<svg viewBox="0 0 548.358 548.358" xmlns="http://www.w3.org/2000/svg" xmlns:xlink="http://www.w3.org/1999/xlink"><style>:root>svg{display:none}:root>svg:target{display:block}</style><svg fill="#fff" viewBox="0 0 448.8 448.8" id="icon-check" xmlns="http://www.w3.org/2000/svg"><path d="M142.8 323.85L35.7 216.75 0 252.45l142.8 142.8 306-306-35.7-35.7z"/></svg><svg fill="#fff" viewBox="0 0 28 28" id="icon-cross" xmlns="http://www.w3.org/2000/svg"><path d="M28 22.398L19.594 14 28 5.602 22.398 0 14 8.402 5.598 0 0 5.602 8.398 14 0 22.398 5.598 28 14 19.598 22.398 28z"/></svg><svg fill="#449779" viewBox="0 0 28 28" id="icon-cross-green" xmlns="http://www.w3.org/2000/svg"><path d="M28 22.398L19.594 14 28 5.602 22.398 0 14 8.402 5.598 0 0 5.602 8.398 14 0 22.398 5.598 28 14 19.598 22.398 28z"/></svg><svg fill="#fff" viewBox="0 0 512 512" id="icon-email" xmlns="http://www.w3.org/2000/svg"><path d="M467 61H45C20.218 61 0 81.196 0 106v300c0 24.72 20.128 45 45 45h422c24.72 0 45-20.128 45-45V106c0-24.72-20.128-45-45-45zm-6.214 30L256.954 294.833 51.359 91h409.427zM30 399.788V112.069l144.479 143.24L30 399.788zM51.213 421l144.57-144.57 50.657 50.222c5.864 5.814 15.327 5.795 21.167-.046L317 277.213 460.787 421H51.213zM482 399.787L338.213 256 482 112.212v287.575z"/></svg><svg viewBox="0 0 96.124 96.123" id="icon-fb" xmlns="http://www.w3.org/2000/svg"><path d="M72.089.02L59.624 0C45.62 0 36.57 9.285 36.57 23.656v10.907H24.037a1.96 1.96 0 00-1.96 1.961v15.803a1.96 1.96 0 001.96 1.96H36.57v39.876a1.96 1.96 0 001.96 1.96h16.352a1.96 1.96 0 001.96-1.96V54.287h14.654a1.96 1.96 0 001.96-1.96l.006-15.803a1.963 1.963 0 00-1.961-1.961H56.842v-9.246c0-4.444 1.059-6.7 6.848-6.7l8.397-.003a1.96 1.96 0 001.959-1.96V1.98A1.96 1.96 0 0072.089.02z" fill="#fff"/></svg><svg fill="#fff" viewBox="0 0 512 512" id="icon-loc" xmlns="http://www.w3.org/2000/svg"><path d="M256 0C156.748 0 76 80.748 76 180c0 33.534 9.289 66.26 26.869 94.652l142.885 230.257A15 15 0 00258.499 512h.119a14.997 14.997 0 0012.75-7.292L410.611 272.22C427.221 244.428 436 212.539 436 180 436 80.748 355.252 0 256 0zm128.866 256.818L258.272 468.186l-129.905-209.34C113.734 235.214 105.8 207.95 105.8 180c0-82.71 67.49-150.2 150.2-150.2S406.1 97.29 406.1 180c0 27.121-7.411 53.688-21.234 76.818z"/><path d="M256 90c-49.626 0-90 40.374-90 90 0 49.309 39.717 90 90 90 50.903 0 90-41.233 90-90 0-49.626-40.374-90-90-90zm0 150.2c-33.257 0-60.2-27.033-60.2-60.2 0-33.084 27.116-60.2 60.2-60.2s60.1 27.116 60.1 60.2c0 32.683-26.316 60.2-60.1 60.2z"/></svg><svg fill="#fff" viewBox="0 0 24 24" id="icon-ok" xmlns="http://www.w3.org/2000/svg"><path d="M4.721 12.881c-.613 1.205.083 1.781 1.671 2.765 1.35.834 3.215 1.139 4.413 1.261l-4.721 4.541c-1.374 1.317.838 3.43 2.211 2.141l3.717-3.585c1.423 1.369 2.787 2.681 3.717 3.59 1.374 1.294 3.585-.801 2.226-2.141-.102-.097-5.037-4.831-4.736-4.541 1.213-.122 3.05-.445 4.384-1.261l-.001-.001c1.588-.989 2.284-1.564 1.68-2.769-.365-.684-1.349-1.256-2.659-.267 0 0-1.769 1.355-4.622 1.355-2.854 0-4.622-1.355-4.622-1.355-1.309-.994-2.297-.417-2.658.267z"/><path d="M11.999 12.142c3.478 0 6.318-2.718 6.318-6.064 0-3.36-2.84-6.078-6.318-6.078C8.52 0 5.68 2.718 5.68 6.078c0 3.346 2.84 6.064 6.319 6.064zm0-9.063c1.709 0 3.103 1.341 3.103 2.999 0 1.644-1.394 2.985-3.103 2.985S8.896 7.722 8.896 6.078c-.001-1.659 1.393-2.999 3.103-2.999z"/></svg><svg fill="#fff" viewBox="0 0 348.077 348.077" id="icon-phone" xmlns="http://www.w3.org/2000/svg"><path d="M340.273 275.083l-53.755-53.761c-10.707-10.664-28.438-10.34-39.518.744l-27.082 27.076a792.327 792.327 0 01-5.344-2.973c-17.102-9.476-40.509-22.464-65.14-47.113-24.704-24.701-37.704-48.144-47.209-65.257-1.003-1.813-1.964-3.561-2.913-5.221l18.176-18.149 8.936-8.947c11.097-11.1 11.403-28.826.721-39.521L73.39 8.194c-10.682-10.68-28.421-10.356-39.518.744l-15.15 15.237.414.411c-5.08 6.482-9.325 13.958-12.484 22.02C3.74 54.28 1.927 61.603 1.098 68.941-6 127.785 20.89 181.564 93.866 254.541c100.875 100.868 182.167 93.248 185.674 92.876 7.638-.913 14.958-2.738 22.397-5.627 7.992-3.122 15.463-7.361 21.941-12.43l.331.294 15.348-15.029c11.074-11.098 11.393-28.83.716-39.542z"/></svg><svg fill="#fff" viewBox="0 0 357 357" id="icon-plus" xmlns="http://www.w3.org/2000/svg"><path d="M357 204H204v153h-51V204H0v-51h153V0h51v153h153v51z"/></svg><svg viewBox="0 0 548.358 548.358" id="icon-vk" xmlns="http://www.w3.org/2000/svg"><path d="M545.451 400.298c-.664-1.431-1.283-2.618-1.858-3.569-9.514-17.135-27.695-38.167-54.532-63.102l-.567-.571-.284-.28-.287-.287h-.288c-12.18-11.611-19.893-19.418-23.123-23.415-5.91-7.614-7.234-15.321-4.004-23.13 2.282-5.9 10.854-18.36 25.696-37.397 7.807-10.089 13.99-18.175 18.556-24.267 32.931-43.78 47.208-71.756 42.828-83.939l-1.701-2.847c-1.143-1.714-4.093-3.282-8.846-4.712-4.764-1.427-10.853-1.663-18.278-.712l-82.224.568c-1.332-.472-3.234-.428-5.712.144l-3.713.859-1.431.715-1.136.859c-.952.568-1.999 1.567-3.142 2.995-1.137 1.423-2.088 3.093-2.848 4.996-8.952 23.031-19.13 44.444-30.553 64.238-7.043 11.803-13.511 22.032-19.418 30.693-5.899 8.658-10.848 15.037-14.842 19.126-4 4.093-7.61 7.372-10.852 9.849-3.237 2.478-5.708 3.525-7.419 3.142-1.715-.383-3.33-.763-4.859-1.143-2.663-1.714-4.805-4.045-6.42-6.995-1.622-2.95-2.714-6.663-3.285-11.136-.568-4.476-.904-8.326-1-11.563-.089-3.233-.048-7.806.145-13.706.198-5.903.287-9.897.287-11.991 0-7.234.141-15.085.424-23.555.288-8.47.521-15.181.716-20.125.194-4.949.284-10.185.284-15.705s-.336-9.849-1-12.991a44.442 44.442 0 00-2.99-9.137c-1.335-2.95-3.289-5.232-5.853-6.852-2.569-1.618-5.763-2.902-9.564-3.856-10.089-2.283-22.936-3.518-38.547-3.71-35.401-.38-58.148 1.906-68.236 6.855-3.997 2.091-7.614 4.948-10.848 8.562-3.427 4.189-3.905 6.475-1.431 6.851 11.422 1.711 19.508 5.804 24.267 12.275l1.715 3.429c1.334 2.474 2.666 6.854 3.999 13.134 1.331 6.28 2.19 13.227 2.568 20.837.95 13.897.95 25.793 0 35.689-.953 9.9-1.853 17.607-2.712 23.127-.859 5.52-2.143 9.993-3.855 13.418-1.715 3.426-2.856 5.52-3.428 6.28-.571.76-1.047 1.239-1.425 1.427a21.387 21.387 0 01-7.71 1.431c-2.667 0-5.901-1.334-9.707-4-3.805-2.666-7.754-6.328-11.847-10.992-4.093-4.665-8.709-11.184-13.85-19.558-5.137-8.374-10.467-18.271-15.987-29.691l-4.567-8.282c-2.855-5.328-6.755-13.086-11.704-23.267-4.952-10.185-9.329-20.037-13.134-29.554-1.521-3.997-3.806-7.04-6.851-9.134l-1.429-.859c-.95-.76-2.475-1.567-4.567-2.427a30.301 30.301 0 00-6.567-1.854l-78.229.568c-7.994 0-13.418 1.811-16.274 5.428l-1.143 1.711c-.571.953-.859 2.475-.859 4.57 0 2.094.571 4.664 1.714 7.707 11.42 26.84 23.839 52.725 37.257 77.659 13.418 24.934 25.078 45.019 34.973 60.237 9.897 15.229 19.985 29.602 30.264 43.112 10.279 13.515 17.083 22.176 20.412 25.981 3.333 3.812 5.951 6.662 7.854 8.565l7.139 6.851c4.568 4.569 11.276 10.041 20.127 16.416 8.853 6.379 18.654 12.659 29.408 18.85 10.756 6.181 23.269 11.225 37.546 15.126 14.275 3.905 28.169 5.472 41.684 4.716h32.834c6.659-.575 11.704-2.669 15.133-6.283l1.136-1.431c.764-1.136 1.479-2.901 2.139-5.276.668-2.379 1-5 1-7.851-.195-8.183.428-15.558 1.852-22.124 1.423-6.564 3.045-11.513 4.859-14.846 1.813-3.33 3.859-6.14 6.136-8.418 2.282-2.283 3.908-3.666 4.862-4.142.948-.479 1.705-.804 2.276-.999 4.568-1.522 9.944-.048 16.136 4.429 6.187 4.473 11.99 9.996 17.418 16.56 5.425 6.57 11.943 13.941 19.555 22.124 7.617 8.186 14.277 14.271 19.985 18.274l5.708 3.426c3.812 2.286 8.761 4.38 14.853 6.283 6.081 1.902 11.409 2.378 15.984 1.427l73.087-1.14c7.229 0 12.854-1.197 16.844-3.572 3.998-2.379 6.373-5 7.139-7.851.764-2.854.805-6.092.145-9.712-.677-3.611-1.344-6.136-2.008-7.563z" fill="#fff"/></svg><svg viewBox="0 -62 512.002 512" fill="#fff" id="icon-yt" xmlns="http://www.w3.org/2000/svg"><path d="M334.809 170.992l-113.114-61.89c-6.504-3.559-14.191-3.426-20.566.351-6.379 3.781-10.184 10.461-10.184 17.875v122.719c0 7.379 3.782 14.047 10.118 17.832 3.308 1.976 6.976 2.969 10.652 2.969a20.74 20.74 0 009.848-2.504L334.68 207.52a20.772 20.772 0 0010.937-18.223 20.763 20.763 0 00-10.808-18.305zm-113.86 63.617v-91.718l84.54 46.257zm0 0"/><path d="M508.234 91.527l-.023-.234c-.434-4.121-4.75-40.777-22.57-59.422C465.043 9.941 441.69 7.277 430.46 6a135.45 135.45 0 01-2.543-.305l-.895-.093C359.336.68 257.113.008 256.09.004L256 0l-.09.004C254.887.008 152.664.68 84.367 5.602l-.902.093c-.727.098-1.528.188-2.399.29-11.101 1.28-34.203 3.949-54.859 26.671C9.234 51.102 4.328 86.973 3.824 91.004l-.058.523C3.613 93.242 0 134.067 0 175.051v38.312c0 40.985 3.613 81.809 3.766 83.528l.027.257c.434 4.055 4.746 40.04 22.484 58.692 19.368 21.195 43.856 24 57.028 25.508 2.082.238 3.875.441 5.097.656l1.184.164c39.082 3.719 161.617 5.55 166.812 5.625l.157.004.156-.004c1.023-.004 103.242-.676 170.93-5.598l.894-.093c.856-.114 1.817-.215 2.871-.325 11.04-1.172 34.016-3.605 54.387-26.02 16.973-18.448 21.883-54.32 22.383-58.347l.058-.523c.153-1.719 3.77-42.54 3.77-83.524v-38.312c-.004-40.985-3.617-81.805-3.77-83.524zm-26.238 121.836c0 37.934-3.312 77-3.625 80.586-1.273 9.88-6.45 32.574-14.719 41.563-12.75 14.027-25.847 15.418-35.41 16.43a164.16 164.16 0 00-3.195.359c-65.469 4.734-163.832 5.46-168.363 5.488-5.082-.074-125.825-1.922-163.715-5.441-1.942-.317-4.04-.559-6.25-.809-11.215-1.285-26.567-3.043-38.371-16.027l-.278-.297c-8.125-8.465-13.152-29.688-14.43-41.149-.238-2.71-3.636-42.238-3.636-80.703v-38.312c0-37.89 3.305-76.914 3.625-80.574 1.52-11.637 6.793-32.957 14.719-41.575 13.14-14.453 26.996-16.054 36.16-17.113.875-.102 1.691-.195 2.445-.293 66.422-4.758 165.492-5.465 169.047-5.492 3.555.023 102.59.734 168.422 5.492.808.102 1.691.203 2.64.313 9.426 1.074 23.672 2.699 36.747 16.644l.12.129c8.126 8.465 13.153 30.059 14.43 41.75.227 2.559 3.637 42.172 3.637 80.719zm0 0"/></svg></svg>