<svg width="24" height="24" viewBox="0 0 24 24" fill="none" xmlns="http://www.w3.org/2000/svg">
<path d="M3 19.4346H10.0435V20.9998H3V19.4346Z" stroke="white" stroke-width="1.5" stroke-linecap="round" stroke-linejoin="round"/>
<path d="M3.78259 17.8696H9.26085V19.4348H3.78259V17.8696Z" stroke="white" stroke-width="1.5" stroke-linecap="round" stroke-linejoin="round"/>
<path d="M12.7356 8.69739L13.9565 7.47652L9.47998 3L8.25911 4.22087L8.66607 4.62783L5.41042 7.88348L5.00346 7.47652L3.78259 8.69739L8.25911 13.1739L9.47998 11.953L9.07303 11.5461L12.3287 8.29043L12.7356 8.69739V8.69739Z" stroke="white" stroke-width="1.5" stroke-linecap="round" stroke-linejoin="round"/>
<path d="M11.5072 9.1123L20.6715 18.261C20.8842 18.4738 21.0037 18.7623 21.0037 19.0632C21.0037 19.364 20.8842 19.6526 20.6715 19.8653C20.4605 20.0663 20.1803 20.1784 19.8889 20.1784C19.5975 20.1784 19.3173 20.0663 19.1063 19.8653L9.90283 10.7167" stroke="white" stroke-width="1.5" stroke-linecap="round" stroke-linejoin="round"/>
</svg>
