<svg width="441" height="2200" viewBox="0 0 441 2200" fill="none" xmlns="http://www.w3.org/2000/svg">
<mask id="mask0_793_25" style="mask-type:alpha" maskUnits="userSpaceOnUse" x="0" y="0" width="441" height="2200">
<path d="M60 60H78C111.137 60 138 86.8629 138 120V2080C138 2113.14 164.863 2140 198 2140H381" stroke="#424359" stroke-width="120" stroke-linecap="round"/>
</mask>
<g mask="url(#mask0_793_25)">
<path d="M60 60H78C111.137 60 138 86.8629 138 120V2080C138 2113.14 164.863 2140 198 2140H381" stroke="#424359" stroke-width="120" stroke-linecap="round"/>
<path d="M60 60H78C111.137 60 138 86.8629 138 120V2080C138 2113.14 164.863 2140 198 2140H411" stroke="white" stroke-width="88" stroke-linecap="round"/>
<path d="M60 60H78C111.137 60 138 86.8629 138 120V2080C138 2113.14 164.863 2140 198 2140H421" stroke="#424359" stroke-width="80" stroke-linecap="round"/>
<path d="M60 58C58.8954 58 58 58.8954 58 60C58 61.1046 58.8954 62 60 62V58ZM451 2142C452.105 2142 453 2141.1 453 2140C453 2138.9 452.105 2138 451 2138V2142ZM60 62H66.5V58H60V62ZM79.5 62H86V58H79.5V62ZM86 62C88.2152 62 90.3957 62.1439 92.533 62.4227L93.0504 58.4563C90.742 58.1552 88.3886 58 86 58V62ZM105.139 65.7932C109.203 67.4784 112.997 69.6846 116.438 72.3291L118.875 69.1574C115.16 66.3024 111.062 63.9193 106.671 62.0983L105.139 65.7932ZM125.671 81.5619C128.315 85.0031 130.522 88.7973 132.207 92.8611L135.902 91.3289C134.081 86.9378 131.698 82.8398 128.843 79.1246L125.671 81.5619ZM135.577 105.467C135.856 107.604 136 109.785 136 112H140C140 109.611 139.845 107.258 139.544 104.95L135.577 105.467ZM136 112V119.968H140V112H136ZM136 135.903V151.839H140V135.903H136ZM136 167.774V183.71H140V167.774H136ZM136 199.645V215.581H140V199.645H136ZM136 231.516V247.452H140V231.516H136ZM136 263.387V279.323H140V263.387H136ZM136 295.258V311.194H140V295.258H136ZM136 327.129V343.065H140V327.129H136ZM136 359V374.936H140V359H136ZM136 390.871V406.806H140V390.871H136ZM136 422.742V438.677H140V422.742H136ZM136 454.613V470.548H140V454.613H136ZM136 486.484V502.419H140V486.484H136ZM136 518.355V534.29H140V518.355H136ZM136 550.226V566.161H140V550.226H136ZM136 582.097V598.032H140V582.097H136ZM136 613.968V629.903H140V613.968H136ZM136 645.839V661.774H140V645.839H136ZM136 677.71V693.645H140V677.71H136ZM136 709.581V725.516H140V709.581H136ZM136 741.452V757.387H140V741.452H136ZM136 773.323V789.258H140V773.323H136ZM136 805.194V821.129H140V805.194H136ZM136 837.065V853H140V837.065H136ZM136 868.936V884.871H140V868.936H136ZM136 900.807V916.742H140V900.807H136ZM136 932.677V948.613H140V932.677H136ZM136 964.548V980.484H140V964.548H136ZM136 996.419V1012.35H140V996.419H136ZM136 1028.29V1044.23H140V1028.29H136ZM136 1060.16V1076.1H140V1060.16H136ZM136 1092.03V1107.97H140V1092.03H136ZM136 1123.9V1139.84H140V1123.9H136ZM136 1155.77V1171.71H140V1155.77H136ZM136 1187.65V1203.58H140V1187.65H136ZM136 1219.52V1235.45H140V1219.52H136ZM136 1251.39V1267.32H140V1251.39H136ZM136 1283.26V1299.19H140V1283.26H136ZM136 1315.13V1331.06H140V1315.13H136ZM136 1347V1362.93H140V1347H136ZM136 1378.87V1394.81H140V1378.87H136ZM136 1410.74V1426.68H140V1410.74H136ZM136 1442.61V1458.55H140V1442.61H136ZM136 1474.48V1490.42H140V1474.48H136ZM136 1506.35V1522.29H140V1506.35H136ZM136 1538.22V1554.16H140V1538.22H136ZM136 1570.1V1586.03H140V1570.1H136ZM136 1601.97V1617.9H140V1601.97H136ZM136 1633.84V1649.77H140V1633.84H136ZM136 1665.71V1681.64H140V1665.71H136ZM136 1697.58V1713.51H140V1697.58H136ZM136 1729.45V1745.38H140V1729.45H136ZM136 1761.32V1777.26H140V1761.32H136ZM136 1793.19V1809.13H140V1793.19H136ZM136 1825.06V1841H140V1825.06H136ZM136 1856.93V1872.87H140V1856.93H136ZM136 1888.8V1904.74H140V1888.8H136ZM136 1920.67V1936.61H140V1920.67H136ZM136 1952.55V1968.48H140V1952.55H136ZM136 1984.42V2000.35H140V1984.42H136ZM136 2016.29V2032.22H140V2016.29H136ZM136 2048.16V2064.09H140V2048.16H136ZM136 2080.03V2088H140V2080.03H136ZM136 2088C136 2090.39 136.155 2092.74 136.456 2095.05L140.423 2094.53C140.144 2092.4 140 2090.22 140 2088H136ZM140.098 2108.67C141.919 2113.06 144.302 2117.16 147.157 2120.88L150.329 2118.44C147.685 2115 145.478 2111.2 143.793 2107.14L140.098 2108.67ZM157.125 2130.84C160.84 2133.7 164.938 2136.08 169.329 2137.9L170.861 2134.21C166.797 2132.52 163.003 2130.32 159.562 2127.67L157.125 2130.84ZM182.95 2141.54C185.258 2141.84 187.611 2142 190 2142V2138C187.785 2138 185.604 2137.86 183.467 2137.58L182.95 2141.54ZM190 2142H198.156V2138H190V2142ZM214.469 2142H230.781V2138H214.469V2142ZM247.094 2142H263.406V2138H247.094V2142ZM279.719 2142H296.031V2138H279.719V2142ZM312.344 2142H328.656V2138H312.344V2142ZM344.969 2142H361.281V2138H344.969V2142ZM377.594 2142H393.906V2138H377.594V2142ZM410.219 2142H426.531V2138H410.219V2142ZM442.844 2142H451V2138H442.844V2142Z" fill="white"/>
</g>
</svg>
