<svg width="893" height="1543" viewBox="0 0 893 1543" fill="none" xmlns="http://www.w3.org/2000/svg">
<mask id="mask0_793_20" style="mask-type:alpha" maskUnits="userSpaceOnUse" x="0" y="0" width="893" height="1543">
<path d="M60 60H635C668.137 60 695 86.8629 695 120V364C695 397.137 668.137 424 635 424H254.5C221.363 424 194.5 450.863 194.5 484V713.5C194.5 746.637 221.363 773.5 254.5 773.5H635C668.137 773.5 695 800.363 695 833.5V1071.5C695 1104.64 668.137 1131.5 635 1131.5H254.5C221.363 1131.5 194.5 1158.36 194.5 1191.5V1423C194.5 1456.14 221.363 1483 254.5 1483H833" stroke="#424359" stroke-width="120" stroke-linecap="round"/>
</mask>
<g mask="url(#mask0_793_20)">
<path d="M60 60H635C668.137 60 695 86.8629 695 120V364C695 397.137 668.137 424 635 424H254.5C221.363 424 194.5 450.863 194.5 484V713.5C194.5 746.637 221.363 773.5 254.5 773.5H635C668.137 773.5 695 800.363 695 833.5V1071.5C695 1104.64 668.137 1131.5 635 1131.5H254.5C221.363 1131.5 194.5 1158.36 194.5 1191.5V1423C194.5 1456.14 221.363 1483 254.5 1483H833" stroke="#424359" stroke-width="120" stroke-linecap="round"/>
<path d="M60.5 60H635C668.137 60 695 86.8629 695 120V364C695 397.137 668.137 424 635 424H254.5C221.363 424 194.5 450.863 194.5 484V713.5C194.5 746.637 221.363 773.5 254.5 773.5H635C668.137 773.5 695 800.363 695 833.5V1071.5C695 1104.64 668.137 1131.5 635 1131.5H254.5C221.363 1131.5 194.5 1158.36 194.5 1191.5V1423C194.5 1456.14 221.363 1483 254.5 1483H879.5" stroke="white" stroke-width="88" stroke-linecap="round"/>
<path d="M60 60H635C668.137 60 695 86.8629 695 120V364C695 397.137 668.137 424 635 424H254.5C221.363 424 194.5 450.863 194.5 484V713.5C194.5 746.637 221.363 773.5 254.5 773.5H635C668.137 773.5 695 800.363 695 833.5V1071.5C695 1104.64 668.137 1131.5 635 1131.5H254.5C221.363 1131.5 194.5 1158.36 194.5 1191.5V1423C194.5 1456.14 221.363 1483 254.5 1483H879.5" stroke="#424359" stroke-width="80" stroke-linecap="round"/>
<path d="M60 58C58.8954 58 58 58.8954 58 60C58 61.1046 58.8954 62 60 62V58ZM899 1485C900.105 1485 901 1484.1 901 1483C901 1481.9 900.105 1481 899 1481V1485ZM60 62H68.0972V58H60V62ZM84.2917 62H100.486V58H84.2917V62ZM116.681 62H132.875V58H116.681V62ZM149.069 62H165.264V58H149.069V62ZM181.458 62H197.653V58H181.458V62ZM213.847 62H230.042V58H213.847V62ZM246.236 62H262.431V58H246.236V62ZM278.625 62H294.819V58H278.625V62ZM311.014 62H327.208V58H311.014V62ZM343.403 62H359.597V58H343.403V62ZM375.792 62H391.986V58H375.792V62ZM408.181 62H424.375V58H408.181V62ZM440.57 62H456.764V58H440.57V62ZM472.958 62H489.153V58H472.958V62ZM505.347 62H521.542V58H505.347V62ZM537.736 62H553.931V58H537.736V62ZM570.125 62H586.32V58H570.125V62ZM602.514 62H618.709V58H602.514V62ZM634.903 62H643V58H634.903V62ZM643 62C645.215 62 647.396 62.1439 649.533 62.4227L650.05 58.4563C647.742 58.1552 645.389 58 643 58V62ZM662.139 65.7932C666.203 67.4784 669.997 69.6846 673.438 72.3291L675.875 69.1574C672.16 66.3024 668.062 63.9193 663.671 62.0983L662.139 65.7932ZM682.671 81.5619C685.315 85.0031 687.522 88.7974 689.207 92.8611L692.902 91.3289C691.081 86.9378 688.698 82.8398 685.843 79.1246L682.671 81.5619ZM692.577 105.467C692.856 107.604 693 109.785 693 112H697C697 109.611 696.845 107.258 696.544 104.95L692.577 105.467ZM693 112V120.125H697V112H693ZM693 136.375V152.625H697V136.375H693ZM693 168.875V185.125H697V168.875H693ZM693 201.375V217.625H697V201.375H693ZM693 233.875V250.125H697V233.875H693ZM693 266.375V282.625H697V266.375H693ZM693 298.875V315.125H697V298.875H693ZM693 331.375V347.625H697V331.375H693ZM693 363.875V372H697V363.875H693ZM693 372C693 374.215 692.856 376.396 692.577 378.533L696.544 379.05C696.845 376.742 697 374.389 697 372H693ZM689.207 391.139C687.522 395.203 685.315 398.997 682.671 402.438L685.843 404.875C688.698 401.16 691.081 397.062 692.902 392.671L689.207 391.139ZM673.438 411.671C669.997 414.315 666.203 416.522 662.139 418.207L663.671 421.902C668.062 420.081 672.16 417.698 675.875 414.843L673.438 411.671ZM649.533 421.577C647.396 421.856 645.215 422 643 422V426C645.389 426 647.742 425.845 650.05 425.544L649.533 421.577ZM643 422H634.74V426H643V422ZM618.219 422H601.698V426H618.219V422ZM585.177 422H568.656V426H585.177V422ZM552.135 422H535.615V426H552.135V422ZM519.094 422H502.573V426H519.094V422ZM486.052 422H469.531V426H486.052V422ZM453.01 422H436.49V426H453.01V422ZM419.969 422H403.448V426H419.969V422ZM386.927 422H370.406V426H386.927V422ZM353.885 422H337.365V426H353.885V422ZM320.844 422H304.323V426H320.844V422ZM287.802 422H271.281V426H287.802V422ZM254.76 422H246.5V426H254.76V422ZM246.5 422C244.111 422 241.758 422.155 239.45 422.456L239.967 426.423C242.104 426.144 244.285 426 246.5 426V422ZM225.829 426.098C221.438 427.919 217.34 430.302 213.625 433.157L216.062 436.329C219.503 433.685 223.297 431.478 227.361 429.793L225.829 426.098ZM203.657 443.125C200.802 446.84 198.419 450.938 196.598 455.329L200.293 456.861C201.978 452.797 204.185 449.003 206.829 445.562L203.657 443.125ZM192.956 468.95C192.655 471.258 192.5 473.611 192.5 476H196.5C196.5 473.785 196.644 471.604 196.923 469.467L192.956 468.95ZM192.5 476V483.672H196.5V476H192.5ZM192.5 499.016V514.359H196.5V499.016H192.5ZM192.5 529.703V545.047H196.5V529.703H192.5ZM192.5 560.391V575.734H196.5V560.391H192.5ZM192.5 591.078V606.422H196.5V591.078H192.5ZM192.5 621.766V637.109H196.5V621.766H192.5ZM192.5 652.453V667.797H196.5V652.453H192.5ZM192.5 683.141V698.484H196.5V683.141H192.5ZM192.5 713.828V721.5H196.5V713.828H192.5ZM192.5 721.5C192.5 723.889 192.655 726.242 192.956 728.55L196.923 728.033C196.644 725.896 196.5 723.715 196.5 721.5H192.5ZM196.598 742.171C198.419 746.562 200.802 750.66 203.657 754.375L206.829 751.938C204.185 748.497 201.978 744.703 200.293 740.639L196.598 742.171ZM213.625 764.343C217.34 767.198 221.438 769.581 225.829 771.402L227.361 767.707C223.297 766.022 219.503 763.815 216.062 761.171L213.625 764.343ZM239.45 775.044C241.758 775.345 244.111 775.5 246.5 775.5V771.5C244.285 771.5 242.104 771.356 239.967 771.077L239.45 775.044ZM246.5 775.5H254.76V771.5H246.5V775.5ZM271.281 775.5H287.802V771.5H271.281V775.5ZM304.323 775.5H320.844V771.5H304.323V775.5ZM337.365 775.5H353.885V771.5H337.365V775.5ZM370.406 775.5H386.927V771.5H370.406V775.5ZM403.448 775.5H419.969V771.5H403.448V775.5ZM436.49 775.5H453.01V771.5H436.49V775.5ZM469.531 775.5H486.052V771.5H469.531V775.5ZM502.573 775.5H519.094V771.5H502.573V775.5ZM535.615 775.5H552.135V771.5H535.615V775.5ZM568.656 775.5H585.177V771.5H568.656V775.5ZM601.698 775.5H618.219V771.5H601.698V775.5ZM634.74 775.5H643V771.5H634.74V775.5ZM643 775.5C645.215 775.5 647.396 775.644 649.533 775.923L650.05 771.956C647.742 771.655 645.389 771.5 643 771.5V775.5ZM662.139 779.293C666.203 780.978 669.997 783.185 673.438 785.829L675.875 782.657C672.16 779.802 668.062 777.419 663.671 775.598L662.139 779.293ZM682.671 795.062C685.315 798.503 687.522 802.297 689.207 806.361L692.902 804.829C691.081 800.438 688.698 796.34 685.843 792.625L682.671 795.062ZM692.577 818.967C692.856 821.104 693 823.285 693 825.5H697C697 823.111 696.845 820.758 696.544 818.45L692.577 818.967ZM693 825.5V833.438H697V825.5H693ZM693 849.312V865.188H697V849.312H693ZM693 881.062V896.938H697V881.062H693ZM693 912.812V928.688H697V912.812H693ZM693 944.562V960.438H697V944.562H693ZM693 976.312V992.188H697V976.312H693ZM693 1008.06V1023.94H697V1008.06H693ZM693 1039.81V1055.69H697V1039.81H693ZM693 1071.56V1079.5H697V1071.56H693ZM693 1079.5C693 1081.72 692.856 1083.9 692.577 1086.03L696.544 1086.55C696.845 1084.24 697 1081.89 697 1079.5H693ZM689.207 1098.64C687.522 1102.7 685.315 1106.5 682.671 1109.94L685.843 1112.38C688.698 1108.66 691.081 1104.56 692.902 1100.17L689.207 1098.64ZM673.438 1119.17C669.997 1121.82 666.203 1124.02 662.139 1125.71L663.671 1129.4C668.062 1127.58 672.16 1125.2 675.875 1122.34L673.438 1119.17ZM649.533 1129.08C647.396 1129.36 645.215 1129.5 643 1129.5V1133.5C645.389 1133.5 647.742 1133.34 650.05 1133.04L649.533 1129.08ZM643 1129.5H634.74V1133.5H643V1129.5ZM618.219 1129.5H601.698V1133.5H618.219V1129.5ZM585.177 1129.5H568.656V1133.5H585.177V1129.5ZM552.135 1129.5H535.615V1133.5H552.135V1129.5ZM519.094 1129.5H502.573V1133.5H519.094V1129.5ZM486.052 1129.5H469.531V1133.5H486.052V1129.5ZM453.01 1129.5H436.49V1133.5H453.01V1129.5ZM419.969 1129.5H403.448V1133.5H419.969V1129.5ZM386.927 1129.5H370.406V1133.5H386.927V1129.5ZM353.885 1129.5H337.365V1133.5H353.885V1129.5ZM320.844 1129.5H304.323V1133.5H320.844V1129.5ZM287.802 1129.5H271.281V1133.5H287.802V1129.5ZM254.76 1129.5H246.5V1133.5H254.76V1129.5ZM246.5 1129.5C244.111 1129.5 241.758 1129.66 239.45 1129.96L239.967 1133.92C242.104 1133.64 244.285 1133.5 246.5 1133.5V1129.5ZM225.829 1133.6C221.438 1135.42 217.34 1137.8 213.625 1140.66L216.062 1143.83C219.503 1141.18 223.297 1138.98 227.361 1137.29L225.829 1133.6ZM203.657 1150.62C200.802 1154.34 198.419 1158.44 196.598 1162.83L200.293 1164.36C201.978 1160.3 204.185 1156.5 206.829 1153.06L203.657 1150.62ZM192.956 1176.45C192.655 1178.76 192.5 1181.11 192.5 1183.5H196.5C196.5 1181.28 196.644 1179.1 196.923 1176.97L192.956 1176.45ZM192.5 1183.5V1191.23H196.5V1183.5H192.5ZM192.5 1206.7V1222.17H196.5V1206.7H192.5ZM192.5 1237.64V1253.11H196.5V1237.64H192.5ZM192.5 1268.58V1284.05H196.5V1268.58H192.5ZM192.5 1299.52V1314.98H196.5V1299.52H192.5ZM192.5 1330.45V1345.92H196.5V1330.45H192.5ZM192.5 1361.39V1376.86H196.5V1361.39H192.5ZM192.5 1392.33V1407.8H196.5V1392.33H192.5ZM192.5 1423.27V1431H196.5V1423.27H192.5ZM192.5 1431C192.5 1433.39 192.655 1435.74 192.956 1438.05L196.923 1437.53C196.644 1435.4 196.5 1433.22 196.5 1431H192.5ZM196.598 1451.67C198.419 1456.06 200.802 1460.16 203.657 1463.88L206.829 1461.44C204.185 1458 201.978 1454.2 200.293 1450.14L196.598 1451.67ZM213.625 1473.84C217.34 1476.7 221.438 1479.08 225.829 1480.9L227.361 1477.21C223.297 1475.52 219.503 1473.32 216.062 1470.67L213.625 1473.84ZM239.45 1484.54C241.758 1484.84 244.111 1485 246.5 1485V1481C244.285 1481 242.104 1480.86 239.967 1480.58L239.45 1484.54ZM246.5 1485H254.656V1481H246.5V1485ZM270.969 1485H287.281V1481H270.969V1485ZM303.594 1485H319.906V1481H303.594V1485ZM336.219 1485H352.531V1481H336.219V1485ZM368.844 1485H385.156V1481H368.844V1485ZM401.469 1485H417.781V1481H401.469V1485ZM434.094 1485H450.406V1481H434.094V1485ZM466.719 1485H483.031V1481H466.719V1485ZM499.344 1485H515.656V1481H499.344V1485ZM531.969 1485H548.281V1481H531.969V1485ZM564.594 1485H580.906V1481H564.594V1485ZM597.219 1485H613.531V1481H597.219V1485ZM629.844 1485H646.156V1481H629.844V1485ZM662.469 1485H678.781V1481H662.469V1485ZM695.094 1485H711.406V1481H695.094V1485ZM727.719 1485H744.031V1481H727.719V1485ZM760.344 1485H776.656V1481H760.344V1485ZM792.969 1485H809.281V1481H792.969V1485ZM825.594 1485H841.906V1481H825.594V1485ZM858.219 1485H874.531V1481H858.219V1485ZM890.844 1485H899V1481H890.844V1485Z" fill="white"/>
</g>
</svg>
