<svg width="683" height="1123" viewBox="0 0 683 1123" fill="none" xmlns="http://www.w3.org/2000/svg">
<g opacity="0.1">
<path fill-rule="evenodd" clip-rule="evenodd" d="M180.826 752.089L647.812 485.905C658.289 480.515 667.079 472.344 673.218 462.288C679.357 452.231 682.607 440.678 682.612 428.896V601.721C682.61 613.495 679.36 625.041 673.22 635.088C667.08 645.134 658.288 653.293 647.812 658.667L180.826 924.851V752.089ZM295.091 949.355V1122.18L647.812 921.068C658.288 915.694 667.08 907.535 673.22 897.488C679.36 887.441 682.61 875.895 682.612 864.121V691.297C682.607 703.079 679.357 714.632 673.218 724.688C667.079 734.744 658.289 742.915 647.812 748.305L295.091 949.355Z" fill="#57BCB3"/>
<path fill-rule="evenodd" clip-rule="evenodd" d="M0 0V88.5833C0 137.341 39.0189 195.094 85.2956 221.52L647.812 542.604C658.298 547.983 667.096 556.151 673.236 566.21C679.377 576.269 682.621 587.828 682.613 599.613V426.788C682.614 415.005 679.367 403.449 673.227 393.391C667.088 383.334 658.294 375.164 647.812 369.78C431.895 246.54 215.958 123.281 0 0ZM647.812 805.004L266.122 587.392C219.845 561.028 180.827 503.213 180.827 454.517V365.623L647.812 632.366C658.289 637.756 667.079 645.927 673.218 655.983C679.357 666.04 682.607 677.593 682.613 689.375V862.199C682.656 850.382 679.427 838.785 673.285 828.69C667.143 818.595 658.326 810.397 647.812 805.004Z" fill="white"/>
</g>
</svg>
