<svg width="496" height="816" viewBox="0 0 496 816" fill="none" xmlns="http://www.w3.org/2000/svg">
<g opacity="0.05">
<path fill-rule="evenodd" clip-rule="evenodd" d="M131.357 546.337L470.588 352.974C478.198 349.059 484.584 343.123 489.043 335.818C493.503 328.512 495.864 320.12 495.868 311.562V437.105C495.866 445.659 493.505 454.046 489.045 461.344C484.585 468.642 478.198 474.569 470.588 478.473L131.357 671.836V546.337ZM214.362 689.635V815.179L470.588 669.087C478.198 665.183 484.585 659.256 489.045 651.958C493.505 644.66 495.866 636.273 495.868 627.72V502.176C495.864 510.734 493.503 519.127 489.043 526.432C484.584 533.737 478.198 539.673 470.588 543.588L214.362 689.635Z" fill="#57BCB3"/>
<path fill-rule="evenodd" clip-rule="evenodd" d="M0 0V64.3492C0 99.7683 28.3443 141.721 61.9609 160.918L470.587 394.161C478.204 398.068 484.595 404.002 489.056 411.309C493.516 418.616 495.873 427.013 495.867 435.574V310.03C495.868 301.47 493.509 293.075 489.049 285.769C484.589 278.463 478.201 272.528 470.587 268.617C313.74 179.093 156.877 89.5541 0 0ZM470.587 584.775L193.318 426.696C159.701 407.545 131.357 365.547 131.357 330.173V265.598L470.587 459.367C478.198 463.282 484.583 469.218 489.043 476.523C493.502 483.828 495.863 492.22 495.867 500.779V626.323C495.898 617.739 493.553 609.314 489.091 601.981C484.629 594.648 478.225 588.693 470.587 584.775Z" fill="white"/>
</g>
</svg>
