<svg width="253" height="527" viewBox="0 0 253 527" fill="none" xmlns="http://www.w3.org/2000/svg">
<g opacity="0.4" clip-path="url(#clip0_503_4890)">
<g opacity="0.1">
<path fill-rule="evenodd" clip-rule="evenodd" d="M104.533 434.777L374.494 280.898C380.551 277.782 385.632 273.059 389.181 267.245C392.73 261.432 394.609 254.753 394.612 247.942V347.85C394.61 354.657 392.731 361.331 389.182 367.139C385.633 372.947 380.55 377.664 374.494 380.77L104.533 534.649V434.777ZM170.589 548.815V648.723L374.494 532.462C380.55 529.355 385.633 524.639 389.182 518.831C392.731 513.023 394.61 506.348 394.612 499.542V399.633C394.609 406.444 392.73 413.123 389.181 418.937C385.632 424.75 380.551 429.474 374.494 432.589L170.589 548.815Z" fill="#57BCB3"/>
<path fill-rule="evenodd" clip-rule="evenodd" d="M0 0V51.2093C0 79.396 22.5565 112.782 49.3087 128.059L374.495 313.675C380.557 316.784 385.643 321.507 389.193 327.322C392.742 333.136 394.618 339.818 394.613 346.631V246.723C394.614 239.911 392.737 233.231 389.187 227.416C385.638 221.602 380.554 216.879 374.495 213.767C249.675 142.523 124.844 71.2675 0 0ZM374.495 465.366L153.843 339.567C127.091 324.326 104.534 290.903 104.534 262.753V211.364L374.495 365.566C380.552 368.681 385.633 373.405 389.182 379.219C392.731 385.032 394.61 391.711 394.613 398.522V498.43C394.638 491.599 392.771 484.895 389.221 479.059C385.67 473.223 380.573 468.484 374.495 465.366Z" fill="white"/>
</g>
</g>
<defs>
<clipPath id="clip0_503_4890">
<rect width="253" height="527" fill="white"/>
</clipPath>
</defs>
</svg>
