<svg width="153" height="41" viewBox="0 0 153 41" fill="none" xmlns="http://www.w3.org/2000/svg">
<path d="M4.992 22H1.584V5.992H4.992V22ZM11.0259 22.288C9.21794 22.288 7.78594 21.768 6.72994 20.728L8.21794 18.112C9.01794 18.88 9.86594 19.264 10.7619 19.264C11.5139 19.264 12.1139 19.032 12.5619 18.568C13.0259 18.104 13.2579 17.48 13.2579 16.696V5.992H16.6659V16.744C16.6659 18.568 16.1539 19.952 15.1299 20.896C14.1059 21.824 12.7379 22.288 11.0259 22.288ZM33.9729 22H30.0849L29.1009 19.288H22.2369L21.2289 22H17.3409L23.5329 5.992H27.8049L33.9729 22ZM28.1649 16.288L25.6689 9.4L23.1729 16.288H28.1649ZM48.4112 22H44.4992L41.3552 16.312H38.8592V22H35.4512V5.992H42.9392C44.5872 5.992 45.8912 6.472 46.8512 7.432C47.8272 8.392 48.3152 9.632 48.3152 11.152C48.3152 12.464 47.9712 13.528 47.2832 14.344C46.6112 15.16 45.7872 15.68 44.8112 15.904L48.4112 22ZM42.4352 13.312C43.1392 13.312 43.7152 13.12 44.1632 12.736C44.6112 12.336 44.8352 11.808 44.8352 11.152C44.8352 10.496 44.6112 9.976 44.1632 9.592C43.7152 9.192 43.1392 8.992 42.4352 8.992H38.8592V13.312H42.4352ZM65.8011 22H61.9131L60.9291 19.288H54.0651L53.0571 22H49.1691L55.3611 5.992H59.6331L65.8011 22ZM59.9931 16.288L57.4971 9.4L55.0011 16.288H59.9931ZM79.1079 22.288C76.2599 22.288 74.0039 21.44 72.3399 19.744L74.1879 17.152C75.5639 18.592 77.2599 19.312 79.2759 19.312C80.1559 19.312 80.8359 19.144 81.3159 18.808C81.8119 18.456 82.0599 18.032 82.0599 17.536C82.0599 17.104 81.8279 16.744 81.3639 16.456C80.9159 16.168 80.3479 15.96 79.6599 15.832C78.9879 15.704 78.2519 15.52 77.4519 15.28C76.6519 15.04 75.9079 14.768 75.2199 14.464C74.5479 14.16 73.9799 13.68 73.5159 13.024C73.0679 12.368 72.8439 11.568 72.8439 10.624C72.8439 9.248 73.3959 8.096 74.4999 7.168C75.6039 6.224 77.0759 5.752 78.9159 5.752C81.4599 5.752 83.5399 6.496 85.1559 7.984L83.2599 10.48C81.9959 9.312 80.4439 8.728 78.6039 8.728C77.8839 8.728 77.3239 8.872 76.9239 9.16C76.5239 9.448 76.3239 9.84 76.3239 10.336C76.3239 10.72 76.5479 11.048 76.9959 11.32C77.4599 11.576 78.0279 11.768 78.6999 11.896C79.3879 12.024 80.1239 12.216 80.9079 12.472C81.7079 12.712 82.4439 12.992 83.1159 13.312C83.8039 13.616 84.3719 14.104 84.8199 14.776C85.2839 15.432 85.5159 16.224 85.5159 17.152C85.5159 18.688 84.9639 19.928 83.8599 20.872C82.7719 21.816 81.1879 22.288 79.1079 22.288ZM99.1386 22H87.8106V5.992H99.1386V8.992H91.2186V12.376H98.9706V15.376H91.2186V19H99.1386V22ZM114.763 22H110.851L107.707 16.312H105.211V22H101.803V5.992H109.291C110.939 5.992 112.243 6.472 113.203 7.432C114.179 8.392 114.667 9.632 114.667 11.152C114.667 12.464 114.323 13.528 113.635 14.344C112.963 15.16 112.139 15.68 111.163 15.904L114.763 22ZM108.787 13.312C109.491 13.312 110.067 13.12 110.515 12.736C110.963 12.336 111.187 11.808 111.187 11.152C111.187 10.496 110.963 9.976 110.515 9.592C110.067 9.192 109.491 8.992 108.787 8.992H105.211V13.312H108.787ZM125.75 22H121.478L115.286 5.992H119.174L123.614 18.304L128.03 5.992H131.918L125.75 22ZM136.805 22H133.396V5.992H136.805V22ZM145.67 22.288C142.822 22.288 140.566 21.44 138.902 19.744L140.75 17.152C142.126 18.592 143.822 19.312 145.838 19.312C146.718 19.312 147.398 19.144 147.878 18.808C148.374 18.456 148.622 18.032 148.622 17.536C148.622 17.104 148.39 16.744 147.926 16.456C147.478 16.168 146.91 15.96 146.222 15.832C145.55 15.704 144.814 15.52 144.014 15.28C143.214 15.04 142.47 14.768 141.782 14.464C141.11 14.16 140.542 13.68 140.078 13.024C139.63 12.368 139.406 11.568 139.406 10.624C139.406 9.248 139.958 8.096 141.062 7.168C142.166 6.224 143.638 5.752 145.478 5.752C148.022 5.752 150.102 6.496 151.718 7.984L149.822 10.48C148.558 9.312 147.006 8.728 145.166 8.728C144.446 8.728 143.886 8.872 143.486 9.16C143.086 9.448 142.886 9.84 142.886 10.336C142.886 10.72 143.11 11.048 143.558 11.32C144.022 11.576 144.59 11.768 145.262 11.896C145.95 12.024 146.686 12.216 147.47 12.472C148.27 12.712 149.006 12.992 149.678 13.312C150.366 13.616 150.934 14.104 151.382 14.776C151.846 15.432 152.078 16.224 152.078 17.152C152.078 18.688 151.526 19.928 150.422 20.872C149.334 21.816 147.75 22.288 145.67 22.288Z" fill="black"/>
<path d="M29.086 37H27.756L26.93 34.928H22.282L21.456 37H20.126L23.878 27.662H25.32L29.086 37ZM26.58 33.892L24.606 28.866L22.618 33.892H26.58ZM33.5968 37.168C32.6448 37.168 31.8842 36.7713 31.3148 35.978V39.576H30.2648V30.238H31.3148V31.246C31.5668 30.8913 31.8935 30.6067 32.2948 30.392C32.6962 30.1773 33.1302 30.07 33.5968 30.07C34.4928 30.07 35.2162 30.392 35.7668 31.036C36.3268 31.6707 36.6068 32.5293 36.6068 33.612C36.6068 34.6947 36.3268 35.558 35.7668 36.202C35.2162 36.846 34.4928 37.168 33.5968 37.168ZM33.3308 36.23C33.9935 36.23 34.5208 35.9873 34.9128 35.502C35.3048 35.0073 35.5008 34.3773 35.5008 33.612C35.5008 32.8467 35.3048 32.2213 34.9128 31.736C34.5208 31.2507 33.9935 31.008 33.3308 31.008C32.9295 31.008 32.5375 31.1153 32.1548 31.33C31.7815 31.5353 31.5015 31.7873 31.3148 32.086V35.138C31.5015 35.446 31.7815 35.7073 32.1548 35.922C32.5375 36.1273 32.9295 36.23 33.3308 36.23ZM41.3286 37.168C40.3206 37.168 39.4946 36.8413 38.8506 36.188C38.2066 35.5253 37.8846 34.6667 37.8846 33.612C37.8846 32.6227 38.2019 31.7873 38.8366 31.106C39.4712 30.4153 40.2646 30.07 41.2166 30.07C42.2152 30.07 43.0039 30.4153 43.5826 31.106C44.1706 31.7873 44.4646 32.6507 44.4646 33.696V33.962H38.9906C39.0372 34.6247 39.2799 35.18 39.7186 35.628C40.1572 36.076 40.7266 36.3 41.4266 36.3C42.2666 36.3 42.9619 36.0153 43.5126 35.446L44.0166 36.132C43.3259 36.8227 42.4299 37.168 41.3286 37.168ZM43.4286 33.192C43.4192 32.6133 43.2232 32.0953 42.8406 31.638C42.4579 31.1713 41.9119 30.938 41.2026 30.938C40.5306 30.938 39.9986 31.1667 39.6066 31.624C39.2239 32.0813 39.0186 32.604 38.9906 33.192H43.4286ZM47.2152 37H46.1652V30.238H47.2152V33.052H50.7432V30.238H51.7932V37H50.7432V33.976H47.2152V37ZM53.0918 38.722V36.132C53.4372 36.0667 53.7078 35.8613 53.9038 35.516C54.0998 35.1613 54.2585 34.5127 54.3798 33.57L54.8138 30.238H59.5178V36.076H60.3018V38.722H59.2518V37H54.1418V38.722H53.0918ZM55.7378 31.162L55.4298 33.696C55.2712 34.8813 54.9445 35.6747 54.4498 36.076H58.4678V31.162H55.7378ZM67.0155 37H65.9655V36.23C65.3962 36.8553 64.6495 37.168 63.7255 37.168C63.1002 37.168 62.5495 36.9673 62.0735 36.566C61.5975 36.1647 61.3595 35.6187 61.3595 34.928C61.3595 34.2187 61.5928 33.6727 62.0595 33.29C62.5355 32.898 63.0908 32.702 63.7255 32.702C64.6868 32.702 65.4335 33.01 65.9655 33.626V32.408C65.9655 31.96 65.8068 31.61 65.4895 31.358C65.1722 31.106 64.7615 30.98 64.2575 30.98C63.4642 30.98 62.7735 31.2927 62.1855 31.918L61.6955 31.19C62.4142 30.4433 63.3148 30.07 64.3975 30.07C65.1722 30.07 65.8022 30.2567 66.2875 30.63C66.7728 31.0033 67.0155 31.5773 67.0155 32.352V37ZM64.1035 36.412C64.9435 36.412 65.5642 36.132 65.9655 35.572V34.298C65.5642 33.738 64.9435 33.458 64.1035 33.458C63.6182 33.458 63.2168 33.598 62.8995 33.878C62.5915 34.1487 62.4375 34.5033 62.4375 34.942C62.4375 35.3713 62.5915 35.726 62.8995 36.006C63.2168 36.2767 63.6182 36.412 64.1035 36.412ZM78.6797 37H77.3357L74.8997 33.962L73.7797 35.068V37H72.7297V30.238H73.7797V33.836L77.3357 30.238H78.6657L75.6697 33.304L78.6797 37ZM83.7151 37H79.9211V30.238H83.6451C84.2331 30.238 84.6951 30.3967 85.0311 30.714C85.3764 31.0313 85.5491 31.4513 85.5491 31.974C85.5491 32.3567 85.4418 32.688 85.2271 32.968C85.0218 33.2387 84.7651 33.4207 84.4571 33.514C84.8024 33.598 85.0918 33.7987 85.3251 34.116C85.5678 34.4333 85.6891 34.7833 85.6891 35.166C85.6891 35.7167 85.5118 36.16 85.1571 36.496C84.8118 36.832 84.3311 37 83.7151 37ZM83.5051 36.076C83.8411 36.076 84.1071 35.9827 84.3031 35.796C84.4991 35.6093 84.5971 35.3573 84.5971 35.04C84.5971 34.7507 84.4991 34.5033 84.3031 34.298C84.1071 34.0927 83.8411 33.99 83.5051 33.99H80.9711V36.076H83.5051ZM83.4631 33.066C83.7804 33.066 84.0278 32.982 84.2051 32.814C84.3824 32.6367 84.4711 32.408 84.4711 32.128C84.4711 31.8293 84.3824 31.596 84.2051 31.428C84.0278 31.2507 83.7804 31.162 83.4631 31.162H80.9711V33.066H83.4631ZM92.951 37H91.901V36.23C91.3317 36.8553 90.585 37.168 89.661 37.168C89.0357 37.168 88.485 36.9673 88.009 36.566C87.533 36.1647 87.295 35.6187 87.295 34.928C87.295 34.2187 87.5284 33.6727 87.995 33.29C88.471 32.898 89.0264 32.702 89.661 32.702C90.6224 32.702 91.369 33.01 91.901 33.626V32.408C91.901 31.96 91.7424 31.61 91.425 31.358C91.1077 31.106 90.697 30.98 90.193 30.98C89.3997 30.98 88.709 31.2927 88.121 31.918L87.631 31.19C88.3497 30.4433 89.2504 30.07 90.333 30.07C91.1077 30.07 91.7377 30.2567 92.223 30.63C92.7084 31.0033 92.951 31.5773 92.951 32.352V37ZM90.039 36.412C90.879 36.412 91.4997 36.132 91.901 35.572V34.298C91.4997 33.738 90.879 33.458 90.039 33.458C89.5537 33.458 89.1524 33.598 88.835 33.878C88.527 34.1487 88.373 34.5033 88.373 34.942C88.373 35.3713 88.527 35.726 88.835 36.006C89.1524 36.2767 89.5537 36.412 90.039 36.412ZM98.3879 37.168C97.4359 37.168 96.6752 36.7713 96.1059 35.978V39.576H95.0559V30.238H96.1059V31.246C96.3579 30.8913 96.6845 30.6067 97.0859 30.392C97.4872 30.1773 97.9212 30.07 98.3879 30.07C99.2839 30.07 100.007 30.392 100.558 31.036C101.118 31.6707 101.398 32.5293 101.398 33.612C101.398 34.6947 101.118 35.558 100.558 36.202C100.007 36.846 99.2839 37.168 98.3879 37.168ZM98.1219 36.23C98.7845 36.23 99.3119 35.9873 99.7039 35.502C100.096 35.0073 100.292 34.3773 100.292 33.612C100.292 32.8467 100.096 32.2213 99.7039 31.736C99.3119 31.2507 98.7845 31.008 98.1219 31.008C97.7205 31.008 97.3285 31.1153 96.9459 31.33C96.5725 31.5353 96.2925 31.7873 96.1059 32.086V35.138C96.2925 35.446 96.5725 35.7073 96.9459 35.922C97.3285 36.1273 97.7205 36.23 98.1219 36.23ZM105.35 37H104.3V31.162H102.34V30.238H107.324V31.162H105.35V37ZM109.708 37H108.7V30.238H109.75V35.404L113.292 30.238H114.328V37H113.278V31.736L109.708 37ZM119.757 37.168C118.805 37.168 118.044 36.7713 117.475 35.978V39.576H116.425V30.238H117.475V31.246C117.727 30.8913 118.054 30.6067 118.455 30.392C118.856 30.1773 119.29 30.07 119.757 30.07C120.653 30.07 121.376 30.392 121.927 31.036C122.487 31.6707 122.767 32.5293 122.767 33.612C122.767 34.6947 122.487 35.558 121.927 36.202C121.376 36.846 120.653 37.168 119.757 37.168ZM119.491 36.23C120.154 36.23 120.681 35.9873 121.073 35.502C121.465 35.0073 121.661 34.3773 121.661 33.612C121.661 32.8467 121.465 32.2213 121.073 31.736C120.681 31.2507 120.154 31.008 119.491 31.008C119.09 31.008 118.698 31.1153 118.315 31.33C117.942 31.5353 117.662 31.7873 117.475 32.086V35.138C117.662 35.446 117.942 35.7073 118.315 35.922C118.698 36.1273 119.09 36.23 119.491 36.23Z" fill="#9D9D9D"/>
</svg>
