<svg width="40" height="40" viewBox="0 0 40 40" fill="none" xmlns="http://www.w3.org/2000/svg">
<path d="M34.3125 10.0875H34.5534L34.4147 9.89053C32.953 7.81472 31.0623 6.0773 28.8706 4.79584L28.6269 4.65336L28.6852 4.92956L29.7527 9.98831L29.7736 10.0875H29.875H34.3125ZM20.0003 2.375H20C19.8918 2.375 19.7858 2.38119 19.683 2.38809C19.6634 2.38941 19.644 2.39075 19.6247 2.39208C19.5416 2.3978 19.4608 2.40336 19.3792 2.40633L19.3023 2.40913L19.2702 2.47907L15.9452 9.71657L15.9143 9.78369L15.9582 9.84308L17.5732 12.0268L17.605 12.0698L17.658 12.0765L25.0655 13.0165L25.1217 13.0236L25.1642 12.986L27.5717 10.8523L27.6261 10.8041L27.6111 10.7329L26.0948 3.54669L26.0805 3.47911L26.0157 3.45522C24.0895 2.74507 22.0533 2.37941 20.0003 2.375ZM25.2738 22.1103L25.3499 22.0698L25.339 21.9843L24.4915 15.3018L24.4793 15.2057L24.3832 15.1935L17.7145 14.3472L17.6276 14.3362L17.5876 14.4141L14.2413 20.9279L14.1985 21.0111L14.2664 21.0756L18.8539 25.4344L18.9192 25.4965L18.9988 25.4541L25.2738 22.1103ZM16.5973 2.90719L16.7006 2.6824L16.4584 2.7326C13.1915 3.4096 10.1845 5.00153 7.78803 7.32271L7.61619 7.48916L7.85096 7.53517L13.8272 8.70642L13.9238 8.72534L13.9648 8.63594L16.5973 2.90719ZM5.9928 9.46359L5.91548 9.44843L5.86846 9.51164C4.80699 10.9386 3.9686 12.5186 3.382 14.1975L3.35795 14.2663L3.40601 14.3212L8.45726 20.0824L8.49461 20.125H8.55125H12.0512H12.1276L12.1624 20.0571L15.6324 13.3009L15.6679 13.2318L15.6217 13.1694L14.0767 11.0819L14.0479 11.0429L14.0003 11.0336L5.9928 9.46359ZM2.375 19.9991L2.375 20.0002C2.37831 22.1738 2.78645 24.3277 3.5786 26.3518L3.67448 26.5968L3.80385 26.3677L6.5701 21.469L6.61371 21.3917L6.5552 21.325L2.84395 17.0963L2.671 16.8992L2.62679 17.1577C2.4662 18.0964 2.38193 19.0467 2.375 19.9991ZM4.92366 28.9598L4.88772 29.0234L4.92555 29.0859C6.40198 31.5266 8.44602 33.5745 10.8838 35.0556L10.9519 35.0969L11.0181 35.0528L17.5693 30.6853L17.625 30.6481V30.5812V27.4288V27.3751L17.5861 27.3382L12.4011 22.4094L12.3649 22.375H12.315H8.715H8.64203L8.60616 22.4385L4.92366 28.9598ZM19.9999 37.625L20.001 37.625C20.8606 37.6178 21.7185 37.548 22.5679 37.416L22.7974 37.3804L22.6413 37.2085L18.6413 32.8022L18.569 32.7225L18.4794 32.7822L13.4482 36.1372L13.251 36.2687L13.4708 36.3572C15.5462 37.1929 17.7625 37.6232 19.9999 37.625ZM25.26 36.7391L25.3142 36.7987L25.3908 36.774C27.5412 36.0812 29.5381 34.981 31.2726 33.5335L31.3261 33.4888L31.3162 33.4198L30.23 25.8136L30.2206 25.7481L30.1613 25.719L26.6426 23.9928L26.5851 23.9646L26.5287 23.9947L19.9412 27.5059L19.875 27.5412V27.6163V30.7675V30.8158L19.9075 30.8516L25.26 36.7391ZM33.2788 31.2489L33.3184 31.5264L33.4983 31.3115C35.1678 29.3179 36.3742 26.9788 37.0309 24.4628L37.0892 24.2398L36.8705 24.3127L32.5955 25.7377L32.4965 25.7707L32.5113 25.8739L33.2788 31.2489ZM31.2862 23.7647L31.3322 23.7873L31.3808 23.7711L37.4571 21.7436L37.5344 21.7178L37.542 21.6366C37.5922 21.0989 37.625 20.5536 37.625 20V19.9999C37.6223 17.3705 37.0267 14.7755 35.8825 12.4081L35.8484 12.3375H35.77H29.3363H29.2889L29.2534 12.3689L26.7234 14.6076L26.6739 14.6514L26.6822 14.717L27.5922 21.892L27.6007 21.9588L27.6612 21.9885L31.2862 23.7647ZM0.125 20C0.125 9.02336 9.02329 0.125038 19.9999 0.125C30.9712 0.138006 39.862 9.02886 39.875 20.0001C39.8749 30.9767 30.9766 39.875 20 39.875C9.02333 39.875 0.125 30.9767 0.125 20Z" fill="#58B076" stroke="white" stroke-width="0.25"/>
</svg>
