<svg width="40" height="40" viewBox="0 0 40 40" fill="none" xmlns="http://www.w3.org/2000/svg">
<path d="M20 37.625H20.0001C29.7346 37.6146 37.6215 29.7221 37.625 19.9875C37.625 19.7013 37.6055 19.4184 37.5864 19.1409C37.5807 19.0571 37.5749 18.9737 37.5698 18.891L37.5625 18.7738H37.445H37.3866C36.7749 18.6966 36.1595 18.6529 35.5431 18.6425C35.1556 18.6299 34.7684 18.6734 34.3933 18.7716L34.3849 18.7738L34.3769 18.7771C33.8966 18.9776 33.5953 19.4594 33.625 19.9787C33.621 27.511 27.5176 33.6175 19.9849 33.625H19.6126C12.4267 33.3274 6.66997 27.5684 6.375 20.3824V20.01C6.37493 19.1563 6.45452 18.3045 6.61264 17.4658L8.8189 17.9035C8.68987 18.5981 8.62493 19.3033 8.625 20.01V20.3162H8.6249L8.6251 20.3214C8.87081 26.3223 13.6802 31.1305 19.6812 31.3749L19.6812 31.375H19.6862H19.99H19.9901C26.2716 31.3695 31.3639 26.2816 31.375 20.0002H31.3751L31.3749 19.9959C31.3248 18.4772 32.2783 17.1061 33.7192 16.6245C34.3104 16.4589 34.923 16.3829 35.5368 16.3987V16.3988H35.54C36.0966 16.3988 36.642 16.4408 37.1013 16.4869L37.272 16.504L37.236 16.3363C35.7813 9.55871 30.4981 4.25778 23.7254 2.78037L23.5582 2.74391L23.5743 2.91424C23.6115 3.30892 23.64 3.76362 23.64 4.23L23.64 4.23269C23.6549 4.92453 23.5688 5.61492 23.3843 6.28185C22.8953 7.71211 21.5355 8.66052 20.0242 8.62501L20.0217 8.625C18.6287 8.61948 17.2471 8.87122 15.9461 9.36714L15.1282 7.27244C16.6814 6.67742 18.3312 6.37309 19.9951 6.37499C20.5293 6.41558 21.0303 6.11108 21.24 5.61765L21.2438 5.60885L21.2461 5.59958C21.3602 5.15144 21.4098 4.6894 21.3937 4.22735C21.3892 3.66358 21.3492 3.10077 21.2739 2.54205L21.2602 2.44069L21.1582 2.43402C21.0805 2.42894 21.0024 2.42346 20.9241 2.41796C20.6206 2.39665 20.3123 2.375 20 2.375C10.266 2.375 2.375 10.266 2.375 20C2.375 29.734 10.266 37.625 20 37.625ZM0.125 20C0.125 9.02336 9.02329 0.125038 19.9999 0.125C30.9712 0.138006 39.862 9.02886 39.875 20.0001C39.8749 30.9767 30.9766 39.875 20 39.875C9.02333 39.875 0.125 30.9767 0.125 20Z" fill="#5623E7" stroke="white" stroke-width="0.25"/>
<path d="M12.4836 8.63207L13.7098 10.5187C13.1459 10.8928 12.6164 11.3162 12.1274 11.7838L10.5523 10.1773C11.1483 9.60523 11.7947 9.08805 12.4836 8.63207Z" fill="#5623E7" stroke="white" stroke-width="0.25"/>
<path d="M9.55341 15.4941L7.47902 14.6256C7.80479 13.8668 8.19954 13.1395 8.65828 12.4528L10.5133 13.7183C10.1411 14.2805 9.81987 14.8748 9.55341 15.4941Z" fill="#5623E7" stroke="white" stroke-width="0.25"/>
</svg>
