<svg width="125" height="20" viewBox="0 0 125 20" fill="none" xmlns="http://www.w3.org/2000/svg">
<path d="M125 7.63938L118.045 6.1694L114.5 0V17.0953L120.989 20L120.236 12.9219L125 7.63938Z" fill="#9BC9FF"/>
<path d="M110.955 6.1694L104 7.63938L108.764 12.9219L108.011 20L114.5 17.0953V0L110.955 6.1694Z" fill="#FFDA44"/>
<path d="M98.9998 7.63938L92.0449 6.1694L88.5 0V17.0953L94.9891 20L94.2358 12.9219L98.9998 7.63938Z" fill="#FFCD00"/>
<path d="M84.9549 6.1694L78 7.63938L82.7639 12.9219L82.0107 20L88.4998 17.0953V0L84.9549 6.1694Z" fill="#FFDA44"/>
<path d="M72.9998 7.63938L66.0449 6.1694L62.5 0V17.0953L68.9891 20L68.2358 12.9219L72.9998 7.63938Z" fill="#FFCD00"/>
<path d="M58.9549 6.1694L52 7.63938L56.7639 12.9219L56.0107 20L62.4998 17.0953V0L58.9549 6.1694Z" fill="#FFDA44"/>
<path d="M46.9998 7.63938L40.0449 6.1694L36.5 0V17.0953L42.9891 20L42.2358 12.9219L46.9998 7.63938Z" fill="#FFCD00"/>
<path d="M32.9549 6.1694L26 7.63938L30.7639 12.9219L30.0107 20L36.4998 17.0953V0L32.9549 6.1694Z" fill="#FFDA44"/>
<path d="M20.9998 7.63938L14.0449 6.1694L10.5 0V17.0953L16.9891 20L16.2358 12.9219L20.9998 7.63938Z" fill="#FFCD00"/>
<path d="M6.95489 6.1694L0 7.63938L4.76394 12.9219L4.01073 20L10.4998 17.0953V0L6.95489 6.1694Z" fill="#FFDA44"/>
</svg>
