<svg width="30" height="30" viewBox="0 0 30 30" fill="none" xmlns="http://www.w3.org/2000/svg">
<path d="M19.9827 1.0059C20.5238 1.20116 21.0529 1.42804 21.5673 1.68538L20.8312 3.12602C20.3809 2.90183 19.9183 2.70331 19.4456 2.53147L19.9827 1.0059Z" fill="white" stroke="#142A36" stroke-width="0.25"/>
<path d="M25.6515 4.70062L25.6515 4.7006C25.5743 4.62158 25.4961 4.54346 25.417 4.46611L25.4159 4.465C24.8169 3.86411 24.1671 3.31617 23.4738 2.8273L22.5529 4.15692C22.9074 4.41177 23.2493 4.68379 23.5774 4.97198L23.6775 5.05999L23.5832 5.15428L15.0287 13.7089L14.9403 13.7973L14.8519 13.7089L12.8256 11.6825L12.7475 11.6045L12.8153 11.5174C14.9335 8.79529 15.841 5.32283 15.3257 1.91243L15.3033 1.76421L15.4531 1.76882C16.144 1.79005 16.8321 1.86563 17.511 1.99487L17.8403 0.410346C16.8854 0.220704 15.9141 0.125112 14.9403 0.125L25.6515 4.70062ZM25.6515 4.70062C31.3724 10.551 31.2674 19.9313 25.417 25.6521C19.5666 31.373 10.1863 31.268 4.46551 25.4176L4.46453 25.4166M25.6515 4.70062L4.46453 25.4166M4.46453 25.4166C1.68678 22.6385 0.12608 18.8708 0.125732 14.9422C0.125038 6.75963 6.75773 0.125766 14.9403 0.125L4.46453 25.4166ZM24.9068 6.30701L24.8188 6.206L24.7241 6.3007L16.1723 14.8525L16.084 14.9408L16.1723 15.0292L18.1968 17.0556L18.2749 17.1337L18.362 17.0659C21.0842 14.9464 24.5576 14.0384 27.9687 14.5546L28.1177 14.5772L28.1124 14.4266C28.0057 11.4327 26.874 8.56636 24.9068 6.30701ZM13.7012 1.92001L13.682 1.80405L13.5651 1.81611C10.8772 2.09335 8.34126 3.19675 6.3063 4.97456L6.2056 5.06253L6.30015 5.15708L11.5033 10.3602L11.6064 10.4633L11.6925 10.3457C13.4683 7.92175 14.1924 4.88447 13.7012 1.92001ZM5.15653 6.3007L5.06201 6.20619L4.97403 6.30682C3.19539 8.34138 2.09157 10.8775 1.81462 13.5656L1.80257 13.6826L1.91855 13.7018C4.88322 14.1926 7.92066 13.4685 10.3452 11.6931L10.4628 11.607L10.3597 11.5039L5.15653 6.3007ZM1.89134 15.3332H1.76171L1.76642 15.4627C1.8752 18.4543 3.00747 21.3178 4.97389 23.5748L5.06185 23.6757L5.15653 23.5811L13.7083 15.0293L13.7967 14.9409L13.7084 14.8525L11.6932 12.8355L11.6141 12.7563L11.5267 12.8263C9.31329 14.5973 6.54286 15.5248 3.70931 15.4434L3.70673 15.4434C3.10544 15.4385 2.50482 15.402 1.90733 15.334L1.90029 15.3332H1.8932H1.89134ZM14.427 28.1139L14.5775 28.1192L14.555 27.9703C14.0398 24.5596 14.9473 21.0869 17.0653 18.3644L17.1331 18.2773L17.0551 18.1992L15.0287 16.1729L14.9403 16.0845L14.8519 16.1729L6.30015 24.7256L6.20548 24.8203L6.30643 24.9082C8.56556 26.8764 11.4326 28.0082 14.427 28.1139ZM16.3027 28.0663V28.067L16.3156 28.0657C19.0034 27.7884 21.5394 26.685 23.5744 24.9072L23.6751 24.8192L23.5805 24.7247L18.3773 19.5215L18.2743 19.4185L18.1881 19.536C16.411 21.9594 15.6856 24.9968 16.1757 27.9617L16.193 28.0663H16.299H16.3027ZM24.8125 23.6177H24.8693L24.9066 23.5749C26.6852 21.5404 27.7891 19.0043 28.066 16.3161L28.0781 16.1992L27.9622 16.18C24.9974 15.6878 21.9594 16.4121 19.5355 18.1887L19.418 18.2748L19.5209 18.3779L24.7204 23.581L24.757 23.6177H24.8088H24.8125Z" fill="white" stroke="#142A36" stroke-width="0.25"/>
</svg>
