<svg width="30" height="30" viewBox="0 0 30 30" fill="none" xmlns="http://www.w3.org/2000/svg">
<path d="M25.7344 7.59687H25.9753L25.8366 7.39991C24.7377 5.83938 23.3164 4.53326 21.6687 3.5699L21.425 3.42743L21.4833 3.70362L22.2839 7.49768L22.3049 7.59687H22.4062H25.7344ZM15.0003 1.75H15C14.9177 1.75 14.8374 1.75471 14.7602 1.75989C14.7453 1.76089 14.7307 1.7619 14.7161 1.7629C14.6539 1.76719 14.5939 1.77131 14.5333 1.77352L14.4564 1.77632L14.4242 1.84625L11.9305 7.27438L11.8996 7.3415L11.9436 7.40089L13.1548 9.0387L13.1866 9.08166L13.2396 9.08838L18.7952 9.79338L18.8514 9.80052L18.8938 9.76292L20.6995 8.16261L20.7539 8.11439L20.7389 8.04326L19.6017 2.65357L19.5874 2.58598L19.5226 2.56209C18.0745 2.02821 16.5437 1.75331 15.0003 1.75ZM18.97 16.6103L19.0461 16.5698L19.0353 16.4843L18.3996 11.4724L18.3874 11.3763L18.2914 11.3641L13.2898 10.7294L13.2029 10.7184L13.1629 10.7963L10.6532 15.6816L10.6104 15.7649L10.6783 15.8294L14.1189 19.0984L14.1842 19.1605L14.2638 19.1181L18.97 16.6103ZM12.4764 2.19344L12.5797 1.96865L12.3374 2.01885C9.88148 2.5278 7.6209 3.72458 5.81928 5.46959L5.64744 5.63603L5.88221 5.68204L10.3644 6.56048L10.4609 6.5794L10.502 6.49001L12.4764 2.19344ZM4.50061 7.06702L4.42329 7.05186L4.37627 7.11508C3.57828 8.18784 2.94799 9.37566 2.507 10.6378L2.48295 10.7067L2.53101 10.7615L6.31945 15.0824L6.35679 15.125H6.41344H9.03844H9.11476L9.14963 15.0571L11.7521 9.98992L11.7876 9.92086L11.7414 9.85845L10.5827 8.29282L10.5538 8.25385L10.5062 8.24452L4.50061 7.06702ZM1.75 14.9991L1.75 15.0002C1.75248 16.6342 2.05933 18.2536 2.65485 19.7752L2.75073 20.0202L2.8801 19.7911L4.95478 16.1171L4.9984 16.0398L4.93989 15.9732L2.15645 12.8016L1.9835 12.6045L1.93929 12.863C1.81856 13.5687 1.75521 14.2831 1.75 14.9991ZM3.66553 21.7045L3.6296 21.7681L3.66742 21.8306C4.77735 23.6654 6.31399 25.205 8.14666 26.3184L8.21468 26.3597L8.2809 26.3156L13.1943 23.0399L13.25 23.0028V22.9359V20.5716V20.5179L13.2111 20.481L9.32237 16.7844L9.28618 16.75H9.23625H6.53625H6.46328L6.42741 16.8135L3.66553 21.7045ZM14.9999 28.25L15.001 28.25C15.6473 28.2446 16.2922 28.1921 16.9307 28.0929L17.1602 28.0573L17.0041 27.8854L14.0041 24.5807L13.9318 24.501L13.8422 24.5607L10.0688 27.0769L9.87164 27.2084L10.0914 27.2969C11.6517 27.9251 13.3179 28.2486 14.9999 28.25ZM18.9219 27.5753L18.9761 27.6349L19.0527 27.6102C20.6693 27.0894 22.1705 26.2623 23.4745 25.1741L23.528 25.1294L23.5181 25.0605L22.7034 19.3558L22.6941 19.2903L22.6347 19.2612L19.9957 17.9665L19.9383 17.9384L19.8818 17.9684L14.9412 20.6019L14.875 20.6372V20.7122V23.0756V23.124L14.9075 23.1597L18.9219 27.5753ZM24.9281 23.4411L24.9678 23.7186L25.1477 23.5037C26.4028 22.0049 27.3098 20.2465 27.8034 18.355L27.8617 18.132L27.643 18.2049L24.4367 19.2736L24.3378 19.3066L24.3525 19.4099L24.9281 23.4411ZM23.4509 17.8516L23.4969 17.8742L23.5455 17.858L28.1027 16.3373L28.18 16.3115L28.1876 16.2304C28.2253 15.8264 28.25 15.4164 28.25 15V14.9999C28.248 13.0231 27.8002 11.0723 26.94 9.29248L26.9059 9.22188H26.8275H22.0022H21.9548L21.9194 9.25326L20.0219 10.9323L19.9724 10.9761L19.9807 11.0417L20.6632 16.4229L20.6717 16.4898L20.7322 16.5194L23.4509 17.8516ZM0.125 15C0.125 6.78478 6.78472 0.125039 14.9999 0.125C23.2111 0.134744 29.8653 6.78892 29.875 15.0001C29.8749 23.2153 23.2152 29.875 15 29.875C6.78476 29.875 0.125 23.2152 0.125 15Z" fill="white" stroke="#142A36" stroke-width="0.25"/>
<path d="M14.1875 15.8125V14.1875H15.8125V15.8125H14.1875Z" fill="white" stroke="#142A36" stroke-width="0.25"/>
</svg>
