<svg width="30" height="30" viewBox="0 0 30 30" fill="none" xmlns="http://www.w3.org/2000/svg">
<path d="M5.78424 0.765527L7.3481 0.19676L7.91687 1.76062L6.35301 2.32939L5.78424 0.765527Z" fill="white" stroke="#142A36" stroke-width="0.25"/>
<path d="M9.62407 0.738391L11.1835 0.160637L11.7616 1.721L10.2022 2.29876L9.62407 0.738391Z" fill="white" stroke="#142A36" stroke-width="0.25"/>
<path d="M26.7738 22.4689H26.7734H19.5345H19.4475L19.4173 22.3873L17.7118 17.7831L17.6959 17.74L17.7116 17.6969L22.454 4.6497L20.8897 4.08142L16.9187 15.007L16.8026 15.3266L16.6841 15.0078L15.727 12.4335L15.7109 12.39L15.727 12.3465L18.5546 4.7186L16.9937 4.14119L14.9441 9.6771L14.8269 9.99369L14.7097 9.67711L12.5138 3.74724L10.9536 4.32971L18.2893 24.1329H23.3118H23.5141L23.4236 24.3138L21.5096 28.1419L21.475 28.211H21.3978H18.2952C18.2952 28.211 18.2951 28.211 18.2951 28.211C17.8402 28.2111 17.4337 27.9265 17.2781 27.499L17.2781 27.499L8.65787 3.79437L7.09361 4.36349L11.9393 17.6883L11.955 17.7314L11.9391 17.7745L10.2289 22.3873L10.1986 22.4689H10.1117H2.87662H2.87638C1.35976 22.4659 0.12798 23.693 0.125005 25.2096C0.123975 25.7546 0.285099 26.2875 0.587898 26.7406L26.7738 22.4689ZM26.7738 22.4689C27.3223 22.4672 27.8587 22.6302 28.3135 22.9368C29.568 23.7824 29.8993 25.485 29.0536 26.7394L29.0532 26.7401L27.7861 28.6445L27.786 28.6448C27.2764 29.4145 26.4143 29.8767 25.4912 29.875H25.4909H18.2952C18.2952 29.875 18.2951 29.875 18.2951 29.875C17.1391 29.8747 16.1063 29.1526 15.709 28.0671C15.709 28.067 15.709 28.067 15.7089 28.0669L14.9435 25.9514L14.8265 25.6279L14.7085 25.9511L13.9353 28.0697L26.7738 22.4689ZM27.8902 28.7138C27.3574 29.5185 26.456 30.0017 25.4909 30L27.8902 28.7138ZM27.8902 28.7138L29.1573 26.8093L27.8902 28.7138ZM1.97264 25.8136L1.97241 25.8133C1.64192 25.3154 1.77765 24.6439 2.27557 24.3134C2.45377 24.1951 2.66307 24.1323 2.87698 24.1329M1.97264 25.8136L4.14945 28.086V28.211H4.14981H6.10751H6.30977L6.21932 28.0301L4.30528 24.202L4.27073 24.1329H4.19348H2.87698M1.97264 25.8136L3.25145 27.7266C3.25156 27.7267 3.25168 27.7269 3.2518 27.7271L1.97264 25.8136ZM2.87698 24.1329L2.87662 24.2579V24.1329H2.87698ZM8.17015 28.211L8.1356 28.1419L6.22157 24.3138L6.13111 24.1329H6.33337H11.3645L12.72 20.4697L12.8382 20.1503L12.9547 20.4703L13.9318 23.1548L13.9474 23.1976L13.9318 23.2405L12.3728 27.5001L8.17015 28.211ZM8.17015 28.211H8.24741M8.17015 28.211H8.24741M8.24741 28.211H11.3557M8.24741 28.211H11.3557M27.801 25.622L27.6717 25.8162L26.4029 27.7234C26.2002 28.0291 25.8573 28.2124 25.4905 28.211M27.801 25.622L27.7304 25.2149H27.8554C27.8554 25.2149 27.8554 25.2149 27.8554 25.2148C27.8553 24.6173 27.3709 24.1329 26.7734 24.1329H25.4527H25.3754L25.3409 24.202L23.4268 28.0301L23.3364 28.211H23.5386H25.4905M27.801 25.622H27.7747H27.801ZM25.4905 28.211L25.4909 28.086M25.4905 28.211H25.4909V28.086M25.4909 28.086H23.6784L26.2987 27.6543C26.1192 27.925 25.8157 28.0872 25.4909 28.086ZM11.3557 28.211C11.8104 28.2112 12.2168 27.9273 12.3728 27.5002L11.3557 28.211ZM1.86743 28.6489L0.588002 26.7408L13.9352 28.0699C13.5378 29.1522 12.5084 29.8724 11.3555 29.875H4.14945H4.14915C3.23087 29.8772 2.37326 29.4166 1.86799 28.6498L1.86743 28.6489Z" fill="white" stroke="#142A36" stroke-width="0.25"/>
<path d="M21.6282 2.04821L22.1962 0.484015L23.7604 1.05195L23.1924 2.61614L21.6282 2.04821Z" fill="white" stroke="#142A36" stroke-width="0.25"/>
<path d="M17.7401 2.11195L18.3177 0.551421L19.8783 1.12901L19.3007 2.68954L17.7401 2.11195Z" fill="white" stroke="#142A36" stroke-width="0.25"/>
</svg>
