<svg width="170" height="28" viewBox="0 0 170 28" fill="none" xmlns="http://www.w3.org/2000/svg">
<path d="M9.568 22.384C5.89867 22.384 3.008 21.2533 0.896 18.992L2.976 16.112C4.81067 18.0747 7.06133 19.056 9.728 19.056C11.1573 19.056 12.224 18.768 12.928 18.192C13.6533 17.616 14.016 16.9333 14.016 16.144C14.016 15.3333 13.5893 14.6933 12.736 14.224C11.8827 13.7333 10.848 13.3493 9.632 13.072C8.416 12.7947 7.18933 12.464 5.952 12.08C4.736 11.696 3.70133 11.0453 2.848 10.128C1.99467 9.21067 1.568 8.02667 1.568 6.576C1.568 4.784 2.28267 3.30133 3.712 2.128C5.16267 0.933332 7.04 0.335999 9.344 0.335999C12.6293 0.335999 15.296 1.328 17.344 3.312L15.2 6.096C13.5787 4.47467 11.52 3.664 9.024 3.664C7.91467 3.664 7.02933 3.90933 6.368 4.4C5.728 4.86933 5.408 5.50933 5.408 6.32C5.408 6.85333 5.632 7.30133 6.08 7.664C6.54933 8.02667 7.14667 8.32533 7.872 8.56C8.59733 8.77333 9.39733 8.98667 10.272 9.2C11.168 9.41333 12.0533 9.68 12.928 10C13.824 10.2987 14.6347 10.672 15.36 11.12C16.0853 11.568 16.672 12.1867 17.12 12.976C17.5893 13.7653 17.824 14.704 17.824 15.792C17.824 17.712 17.1307 19.2907 15.744 20.528C14.3573 21.7653 12.2987 22.384 9.568 22.384ZM29.496 22.384C27.448 22.384 25.7947 21.5413 24.536 19.856V27.888H21.176V6.544H24.536V8.656C25.7733 6.992 27.4267 6.16 29.496 6.16C31.5227 6.16 33.1653 6.88533 34.424 8.336C35.704 9.78667 36.344 11.76 36.344 14.256C36.344 16.752 35.704 18.736 34.424 20.208C33.1653 21.6587 31.5227 22.384 29.496 22.384ZM28.504 19.408C29.8267 19.408 30.8827 18.928 31.672 17.968C32.4613 17.008 32.856 15.7707 32.856 14.256C32.856 12.7413 32.4613 11.5147 31.672 10.576C30.8827 9.616 29.8267 9.136 28.504 9.136C27.736 9.136 26.9787 9.33867 26.232 9.744C25.4853 10.1493 24.92 10.64 24.536 11.216V17.328C24.92 17.904 25.4853 18.3947 26.232 18.8C26.9787 19.2053 27.736 19.408 28.504 19.408ZM46.652 22.384C44.2627 22.384 42.3427 21.6053 40.892 20.048C39.4413 18.4693 38.716 16.5387 38.716 14.256C38.716 11.9733 39.4413 10.0533 40.892 8.496C42.3427 6.93867 44.2627 6.16 46.652 6.16C49.0627 6.16 50.9933 6.93867 52.444 8.496C53.8947 10.0533 54.62 11.9733 54.62 14.256C54.62 16.56 53.8947 18.4907 52.444 20.048C50.9933 21.6053 49.0627 22.384 46.652 22.384ZM46.652 19.408C48.0387 19.408 49.1267 18.9173 49.916 17.936C50.7267 16.9333 51.132 15.7067 51.132 14.256C51.132 12.8267 50.7267 11.6213 49.916 10.64C49.1267 9.63733 48.0387 9.136 46.652 9.136C45.2867 9.136 44.1987 9.63733 43.388 10.64C42.5987 11.6213 42.204 12.8267 42.204 14.256C42.204 15.7067 42.5987 16.9333 43.388 17.936C44.1987 18.9173 45.2867 19.408 46.652 19.408ZM61.3798 22H58.0198V6.544H61.3798V8.816C61.9771 8.048 62.7238 7.41867 63.6198 6.928C64.5158 6.43733 65.4438 6.192 66.4038 6.192V9.52C66.1051 9.456 65.7531 9.424 65.3478 9.424C64.6438 9.424 63.8864 9.63733 63.0758 10.064C62.2864 10.4693 61.7211 10.9387 61.3798 11.472V22ZM73.7535 22.384C72.4522 22.384 71.4602 22.0427 70.7775 21.36C70.1162 20.6773 69.7855 19.696 69.7855 18.416V9.488H67.2255V6.544H69.7855V2.32H73.1455V6.544H76.2815V9.488H73.1455V17.584C73.1455 18.1387 73.2735 18.5867 73.5295 18.928C73.7855 19.248 74.1482 19.408 74.6175 19.408C75.3002 19.408 75.8015 19.2267 76.1215 18.864L76.9215 21.392C76.2175 22.0533 75.1615 22.384 73.7535 22.384Z" fill="white"/>
<path d="M84.6123 22.384C81.8389 22.384 79.6309 21.584 77.9883 19.984L79.5243 17.552C80.1003 18.1493 80.8789 18.6613 81.8602 19.088C82.8416 19.5147 83.8123 19.728 84.7723 19.728C85.7536 19.728 86.5003 19.536 87.0123 19.152C87.5456 18.768 87.8123 18.2667 87.8123 17.648C87.8123 17.0933 87.4923 16.6667 86.8523 16.368C86.2123 16.048 85.4336 15.8027 84.5163 15.632C83.5989 15.44 82.6816 15.216 81.7643 14.96C80.8469 14.6827 80.0683 14.2027 79.4283 13.52C78.7883 12.8373 78.4683 11.952 78.4683 10.864C78.4683 9.54133 79.0123 8.432 80.1003 7.536C81.1883 6.61867 82.6709 6.16 84.5483 6.16C86.9163 6.16 88.9216 6.88533 90.5643 8.336L89.1563 10.704C88.6656 10.1493 88.0149 9.70133 87.2043 9.36C86.3936 9.01867 85.5189 8.848 84.5803 8.848C83.7056 8.848 83.0016 9.02933 82.4683 9.392C81.9563 9.73333 81.7003 10.1813 81.7003 10.736C81.7003 11.1627 81.9243 11.5147 82.3723 11.792C82.8416 12.048 83.4176 12.24 84.1003 12.368C84.8043 12.496 85.5616 12.6773 86.3723 12.912C87.1829 13.1253 87.9296 13.3813 88.6123 13.68C89.3163 13.9787 89.8923 14.4693 90.3403 15.152C90.8096 15.8133 91.0443 16.624 91.0443 17.584C91.0443 18.992 90.4789 20.144 89.3483 21.04C88.2176 21.936 86.6389 22.384 84.6123 22.384ZM101.466 22.384C99.1193 22.384 97.1993 21.6267 95.706 20.112C94.2127 18.576 93.466 16.624 93.466 14.256C93.466 11.9093 94.2127 9.97867 95.706 8.464C97.1993 6.928 99.1193 6.16 101.466 6.16C104.047 6.16 106.021 7.07733 107.386 8.912L105.178 10.96C104.325 9.744 103.141 9.136 101.626 9.136C100.218 9.136 99.0873 9.616 98.234 10.576C97.3807 11.5147 96.954 12.7413 96.954 14.256C96.954 15.7707 97.3807 17.008 98.234 17.968C99.0873 18.928 100.218 19.408 101.626 19.408C103.098 19.408 104.282 18.8 105.178 17.584L107.386 19.632C106.021 21.4667 104.047 22.384 101.466 22.384ZM117.308 22.384C114.919 22.384 112.999 21.6053 111.548 20.048C110.098 18.4693 109.372 16.5387 109.372 14.256C109.372 11.9733 110.098 10.0533 111.548 8.496C112.999 6.93867 114.919 6.16 117.308 6.16C119.719 6.16 121.65 6.93867 123.1 8.496C124.551 10.0533 125.276 11.9733 125.276 14.256C125.276 16.56 124.551 18.4907 123.1 20.048C121.65 21.6053 119.719 22.384 117.308 22.384ZM117.308 19.408C118.695 19.408 119.783 18.9173 120.572 17.936C121.383 16.9333 121.788 15.7067 121.788 14.256C121.788 12.8267 121.383 11.6213 120.572 10.64C119.783 9.63733 118.695 9.136 117.308 9.136C115.943 9.136 114.855 9.63733 114.044 10.64C113.255 11.6213 112.86 12.8267 112.86 14.256C112.86 15.7067 113.255 16.9333 114.044 17.936C114.855 18.9173 115.943 19.408 117.308 19.408ZM132.036 22H128.676V6.544H132.036V8.816C132.633 8.048 133.38 7.41867 134.276 6.928C135.172 6.43733 136.1 6.192 137.06 6.192V9.52C136.761 9.456 136.409 9.424 136.004 9.424C135.3 9.424 134.543 9.63733 133.732 10.064C132.943 10.4693 132.377 10.9387 132.036 11.472V22ZM146.906 22.384C144.559 22.384 142.618 21.6373 141.082 20.144C139.567 18.6293 138.81 16.6667 138.81 14.256C138.81 11.9947 139.546 10.0853 141.018 8.528C142.511 6.94933 144.388 6.16 146.65 6.16C148.932 6.16 150.767 6.94933 152.154 8.528C153.562 10.1067 154.266 12.1227 154.266 14.576V15.376H142.33C142.458 16.592 142.959 17.6053 143.834 18.416C144.708 19.2267 145.85 19.632 147.258 19.632C148.047 19.632 148.836 19.4827 149.626 19.184C150.436 18.8853 151.108 18.4693 151.642 17.936L153.178 20.144C151.62 21.6373 149.53 22.384 146.906 22.384ZM151.002 13.008C150.959 11.9413 150.564 10.992 149.818 10.16C149.092 9.328 148.036 8.912 146.65 8.912C145.327 8.912 144.292 9.328 143.546 10.16C142.799 10.9707 142.383 11.92 142.298 13.008H151.002ZM162.862 22.384C160.089 22.384 157.881 21.584 156.238 19.984L157.774 17.552C158.35 18.1493 159.129 18.6613 160.11 19.088C161.092 19.5147 162.062 19.728 163.022 19.728C164.004 19.728 164.75 19.536 165.262 19.152C165.796 18.768 166.062 18.2667 166.062 17.648C166.062 17.0933 165.742 16.6667 165.102 16.368C164.462 16.048 163.684 15.8027 162.766 15.632C161.849 15.44 160.932 15.216 160.014 14.96C159.097 14.6827 158.318 14.2027 157.678 13.52C157.038 12.8373 156.718 11.952 156.718 10.864C156.718 9.54133 157.262 8.432 158.35 7.536C159.438 6.61867 160.921 6.16 162.798 6.16C165.166 6.16 167.172 6.88533 168.814 8.336L167.406 10.704C166.916 10.1493 166.265 9.70133 165.454 9.36C164.644 9.01867 163.769 8.848 162.83 8.848C161.956 8.848 161.252 9.02933 160.718 9.392C160.206 9.73333 159.95 10.1813 159.95 10.736C159.95 11.1627 160.174 11.5147 160.622 11.792C161.092 12.048 161.668 12.24 162.35 12.368C163.054 12.496 163.812 12.6773 164.622 12.912C165.433 13.1253 166.18 13.3813 166.862 13.68C167.566 13.9787 168.142 14.4693 168.59 15.152C169.06 15.8133 169.294 16.624 169.294 17.584C169.294 18.992 168.729 20.144 167.598 21.04C166.468 21.936 164.889 22.384 162.862 22.384Z" fill="#FF8B03"/>
</svg>
