<?xml version="1.0" encoding="utf-8"?><svg viewBox="0 0 20 16" xmlns="http://www.w3.org/2000/svg" xmlns:xlink="http://www.w3.org/1999/xlink"><style>:root>svg{display:none}:root>svg:target{display:block}</style><svg fill="none" viewBox="0 0 17 16" id="icon-01" xmlns="http://www.w3.org/2000/svg"><path fill-rule="evenodd" clip-rule="evenodd" d="M15.222 4.08a7.74 7.74 0 00-2.829-2.828A7.603 7.603 0 008.492.209c-1.41 0-2.71.348-3.902 1.043A7.738 7.738 0 001.762 4.08 7.603 7.603 0 00.719 7.982c0 1.41.348 2.71 1.042 3.901a7.74 7.74 0 002.83 2.83 7.603 7.603 0 003.9 1.042c1.41 0 2.712-.348 3.902-1.043a7.738 7.738 0 002.83-2.829 7.605 7.605 0 001.041-3.901c0-1.41-.347-2.71-1.042-3.902zm-6.73-2.737c1.673 0 3.134.553 4.382 1.66l-.127.176c-.05.071-.177.208-.379.41a6.507 6.507 0 01-.663.577c-.24.183-.565.39-.977.623-.411.233-.85.437-1.315.612a28.863 28.863 0 00-2.49-3.866 6.696 6.696 0 011.569-.192zm-2.834.637A6.55 6.55 0 003.29 3.863a6.562 6.562 0 00-1.296 2.752c2.038 0 4.082-.27 6.133-.81A34.84 34.84 0 005.659 1.98zm-3.36 8.396a6.513 6.513 0 01-.445-2.394c0-.095.003-.165.01-.213 2.442 0 4.713-.313 6.811-.94.216.417.395.792.537 1.123a.818.818 0 01-.132.045 6.34 6.34 0 01-.132.035l-.374.132a7.783 7.783 0 00-1.007.486c-.415.23-.856.503-1.321.82a9.042 9.042 0 00-1.442 1.26 8.483 8.483 0 00-1.25 1.685c-.54-.6-.958-1.28-1.255-2.04zm1.963 2.727c1.242 1.012 2.652 1.518 4.23 1.518.892 0 1.755-.175 2.592-.526-.284-1.626-.756-3.306-1.417-5.04h-.02l-.02.01c-.109.04-.254.096-.436.167-.182.07-.523.236-1.022.496-.5.26-.962.536-1.387.83-.425.293-.867.68-1.325 1.159a5.417 5.417 0 00-1.043 1.497l-.152-.11zm9.818-1.533a6.632 6.632 0 01-1.873 1.918 28.528 28.528 0 00-1.295-4.747c1.343-.21 2.722-.111 4.14.293a6.55 6.55 0 01-.972 2.536zm.698-3.725c.1.017.185.032.253.046l.101.02c-.02-1.565-.523-2.949-1.508-4.15l-.01.01c-.06.082-.125.164-.192.249a5.866 5.866 0 01-.44.45 8.41 8.41 0 01-.72.612c-.252.193-.59.412-1.011.658a10.39 10.39 0 01-1.331.653c.169.358.317.678.445.961.013.04.036.1.066.178.03.077.056.133.076.167.243-.034.494-.058.754-.071a14.464 14.464 0 011.442-.005 16.675 16.675 0 011.705.162l.37.06z" fill="#fff"/></svg><svg fill="none" viewBox="0 0 20 13" id="icon-02" xmlns="http://www.w3.org/2000/svg"><path fill-rule="evenodd" clip-rule="evenodd" d="M10.168 8.73c0-.7-.159-1.294-.475-1.784-.314-.492-.784-.85-1.404-1.076.41-.208.718-.44.928-.693.375-.453.562-1.048.562-1.793 0-.72-.184-1.342-.557-1.859C8.602.682 7.552.252 6.07.228H.189v12.176h5.483c.617 0 1.19-.055 1.72-.164a3.33 3.33 0 001.373-.612c.345-.257.631-.577.862-.956.362-.572.54-1.22.54-1.943zm2.79-6.779h4.902V.733h-4.903v1.218zM2.996 5.03h2.576c.53 0 .958-.101 1.287-.302.33-.201.494-.558.494-1.07 0-.567-.218-.943-.654-1.124-.375-.126-.855-.19-1.437-.19H2.997v2.686zm3.83 2.222c.517.234.775.672.775 1.304 0 .75-.267 1.255-.8 1.52-.295.145-.704.214-1.232.214H2.997V7.044H5.61c.522.005.93.074 1.218.207zm12.853-.677c.059.399.086.977.075 1.732h-6.35c.035.877.337 1.49.911 1.84.346.22.766.328 1.257.328.518 0 .94-.131 1.266-.4.177-.143.333-.345.468-.599h2.328c-.061.518-.342 1.043-.845 1.577-.78.848-1.875 1.273-3.28 1.273-1.161 0-2.185-.359-3.073-1.073-.885-.718-1.33-1.88-1.33-3.494 0-1.513.4-2.671 1.2-3.478.804-.807 1.842-1.209 3.12-1.209.759 0 1.442.135 2.052.408.607.272 1.11.702 1.505 1.291.358.52.588 1.12.696 1.804zm-2.9-1.15c.364.313.566.771.609 1.378h-3.93c.083-.57.284-1.02.608-1.35.322-.332.774-.5 1.36-.5.54 0 .99.157 1.352.471z" fill="#fff"/></svg></svg>