<svg width="56" height="54" fill="none" xmlns="http://www.w3.org/2000/svg"><path d="M9.105 20.976c7.206-18.298 30.172-18.705 37.827 0" stroke="#EFE0D0" stroke-linecap="round" stroke-linejoin="round"/><path d="M23.184 41.257C17.662 45.73 6.044 46.462 1 39.63c.9-1.49 3.152-4.88 10.033-4.88m8.386 2.847c-3.902.136-12.115-2.033-12.115-11.792 2.252-1.627 6.221-.814 9.236.813m11.48 17.485c-6.005-2.575-16.302-10.735-9.457-22.771.96.387 2.038.93 3.139 1.626m6.317 21.145c2.79-5.78 2.26-10.543.314-14.232m-.314 14.232c1.88-.87 3.48-1.828 4.835-2.846m-4.52-11.386c-1.606-3.045-4.174-5.36-6.632-6.913m6.631 6.913c.6-1.94 2.47-5.436 5.822-7.32M20.815 46.95c2.701 2.033 11.707 2.033 13.96 0m-21.166 2.846c7.205 4.473 21.165 4.066 28.82 0m-2.918-23.178c-.25-2.098-.88-3.94-1.585-5.286a9.912 9.912 0 0 0-3.771 1.22m5.356 4.066c1.273-1.084 4.99-2.847 9.673-1.22.506 2.156-.019 6.026-4.053 9.15m-5.62-7.93c.426 3.58-.26 7.908-3.592 11.792m0 0c4.198-.878 7.16-2.273 9.212-3.863M35.92 38.41a19.23 19.23 0 0 1-3.065 2.847m12.277-6.71c2.102-.339 7.115.204 10.358 5.083-2.781 3.389-11.202 8.458-22.635 1.627m19.032-25.212 2.702-1.22M41.528 7.1l1.802-2.44m-15.31-.813V1M14.51 7.1l-1.802-2.44M4.603 16.045l-3.153-1.22m20.252 8.133c.604-1.626 2.715-5.449 6.317-7.726 1.689 1.085 5.28 4.067 6.136 7.32" stroke="#EFE0D0" stroke-linecap="round" stroke-linejoin="round"/></svg>