<svg width="66" height="65" fill="none" xmlns="http://www.w3.org/2000/svg"><path d="M17.145 8.058c.284-2.255 2.498-6.823 9.083-7.058-.095 2.157-2.044 6.588-9.083 7.058Zm0 0c2.838-.784 9.424-1.117 13.057 3.823-3.974 2.353-8.516 4.117-15.328-2.276m2.271-1.547C11.279 11.49.625 22.468 4.94 38.938m47.83-6.23c1.747 1.412 4.412 5.704 1.087 11.575-1.766-1.197-4.457-5.186-1.088-11.575Zm0 0c-.858 2.883-4.1 8.805-10.208 9.425.144-4.684 1.087-9.56 10.119-12.206m.088 2.781c.248-6.893-3.304-21.864-19.49-26.601M12.36 49.783c-2.11.771-7.161.845-10.481-5.029 1.935-.898 6.74-1.15 10.482 5.03Zm0 0c-2.029-2.22-5.435-8.049-2.821-13.604 3.94 2.536 7.635 5.856 5.251 14.96m-2.43-1.356c5.782 3.762 20.444 8.428 32.84-3.006M25.078 33c0 1.241.857 3.227 4 2.979" stroke="#EFE0D0"/><path d="M28.053 23c4.143 4.776 8.855 16 0 16-8.854 0-3.978-11.224 0-16Z" stroke="#EFE0D0"/></svg>