<svg width="50" height="54" fill="none" xmlns="http://www.w3.org/2000/svg"><path d="M8.503 1h-.734a4 4 0 0 0-4 4v3.306a2.367 2.367 0 0 0 2.367 2.367v0M8.503 1v9.673m0-9.673h4.698m-4.698 9.673h4.698m-4.698 0H6.136M17.899 1h.589a4 4 0 0 1 4 4v3.378a2.294 2.294 0 0 1-2.294 2.295v0h-2.295M17.9 1v9.673M17.9 1h-4.698m4.698 9.673h-4.698m0 0V7.327m0-6.327v3.273m-7.065 6.4v2.836c0 .51-5.208 3.636-5.135 7.927.004.241.007.56.01.946M13.166 53H5.01a4.001 4.001 0 0 1-4-4.01l.01-5.372m-.01-21.236h8.365m-8.364 0c.019 2.302.023 7.023.02 12.29M16.5 22.383h8M6.536 43.618H1.02m0 0c.005-2.937.01-6.025.011-8.945m9.146 8.945H24.5m0-8.945h-8.177m-15.291 0h8.915M20 53h15.895a4 4 0 0 0 4-4v0m0 0c1.807 0 3.424-.921 4.006-1.382M39.895 49h-14.64m0-16.436h20.03m1.384 13.09c1.748-1.105 2.282-3.078 2.331-3.927v-1.6m0 0v-3.849a3.715 3.715 0 0 0-3.715-3.714v0M49 40.127c-.121.267-.612.771-1.602.655-1.239-.146-2.841-3.127-5.827-3.127-2.987 0-4.808 3.636-8.304 3.636-3.496 0-2.95-3.055-8.012-3.636m20.03-5.091c-2.622-1.916-10.299-6.037-20.03-7.2M13.09 40.127c5.388-.045 3.57-7.656.51-10.428a.768.768 0 0 0-1.032-.015c-2.811 2.502-4.833 10.489.522 10.443Z" stroke="#EFE0D0" stroke-linecap="round"/><path d="M19.934 11v2.814c0 .506 5.137 3.609 5.065 7.866-.05 2.96-.03 17.604-.01 27.312a3.999 3.999 0 0 1-4 4.008H13" stroke="#EFE0D0"/><circle cx="13" cy="22" r="3.5" stroke="#EFE0D0"/></svg>