<svg width="61" height="52" fill="none" xmlns="http://www.w3.org/2000/svg"><path d="M31.447 32.061a.5.5 0 0 0 .248-.662l-1.865-4.095a.5.5 0 0 0-.91.414l1.658 3.64-3.64 1.658a.5.5 0 0 0 .414.91l4.095-1.865Zm11.11-29.518a.5.5 0 0 0-.254.66l1.833 4.11a.5.5 0 1 0 .913-.407L43.42 3.253l3.654-1.63a.5.5 0 1 0-.408-.913l-4.11 1.833Zm-8.93 15.406a5.759 5.759 0 0 0 .092 2.215c.208.831.67 1.714 1.615 2.191l.451-.892c-.591-.299-.928-.87-1.096-1.542a4.764 4.764 0 0 1-.076-1.81l-.986-.162ZM1 30h21.12v-1H1v1Zm44.64 0H61v-1H45.64v1ZM23.085 10.6c-.9 2.728-1.589 7.061-.723 11.229.872 4.193 3.327 8.234 8.703 10.245l.35-.936c-4.992-1.868-7.257-5.585-8.073-9.513-.822-3.953-.167-8.104.693-10.71l-.95-.314Zm28.3 12.463c.988-2.494 1.754-6.502.838-10.455-.924-3.984-3.554-7.88-9.284-10.075l-.358.934c5.406 2.071 7.816 5.691 8.668 9.367.86 3.709.139 7.506-.794 9.86l.93.369ZM6.76 45.197h.96v-1h-.96v1Zm5.76 6.303h.96v-1h-.96v1Zm6.72-6.303h.96v-1h-.96v1ZM25 51.5h.96v-1H25v1Zm5.76-6.303h.96v-1h-.96v1ZM37 51.5h.96v-1H37v1Zm5.76-6.303h.96v-1h-.96v1Zm5.76 6.303h.96v-1h-.96v1Zm6.72-6.303h.96v-1h-.96v1ZM1.046 35.452c1.247-.114 2.12.06 2.814.362.704.308 1.253.761 1.854 1.278.59.506 1.235 1.078 2.077 1.512.855.44 1.894.73 3.289.73v-1c-1.245 0-2.126-.256-2.831-.62-.718-.37-1.273-.858-1.883-1.381-.6-.514-1.25-1.06-2.106-1.435-.867-.38-1.913-.57-3.306-.441l.092.995Zm10.034 3.881c2.6 0 3.924-1.21 5.187-2.303.631-.547 1.234-1.053 1.99-1.431.745-.373 1.658-.63 2.903-.63v-1c-1.395 0-2.462.29-3.351.735-.88.44-1.567 1.025-2.196 1.57-1.257 1.088-2.333 2.06-4.533 2.06v1Zm10.08-4.363c1.53 0 2.507.29 3.208.691.709.405 1.18.947 1.68 1.552.489.591 1.02 1.265 1.816 1.77.812.515 1.86.835 3.376.835v-1c-1.365 0-2.219-.285-2.84-.68-.637-.404-1.069-.942-1.582-1.563-.503-.607-1.073-1.278-1.953-1.782-.886-.507-2.044-.823-3.705-.823v1Zm10.08 4.848c1.515 0 2.572-.32 3.387-.835.802-.506 1.33-1.18 1.805-1.779.486-.613.917-1.151 1.555-1.554.625-.394 1.488-.68 2.853-.68v-1c-1.515 0-2.572.32-3.387.834-.802.507-1.33 1.18-1.805 1.78-.486.613-.917 1.151-1.555 1.554-.625.394-1.488.68-2.853.68v1Zm9.6-4.848c2.438 0 3.633 1.09 5.01 2.3.688.604 1.436 1.25 2.39 1.736.966.492 2.124.812 3.64.812v-1c-1.364 0-2.366-.285-3.186-.703-.83-.423-1.492-.99-2.184-1.597-1.383-1.215-2.828-2.548-5.67-2.548v1Zm11.04 4.848c1.294 0 2.258-.33 3.046-.837.771-.497 1.354-1.156 1.887-1.754.547-.614 1.044-1.168 1.683-1.58.622-.4 1.398-.677 2.504-.677v-1c-1.294 0-2.258.33-3.046.837-.771.497-1.354 1.156-1.887 1.754-.547.614-1.044 1.167-1.683 1.58-.622.4-1.398.677-2.504.677v1Z" fill="#EFE0D0"/><path d="M37 7c2 2.598 6 6.82 6 12.667C43 23.954 39.308 26 37 26m0-19c-2 2.598-6 6.82-6 12.667C31 23.954 34.692 26 37 26" stroke="#EFE0D0"/></svg>