<svg width="52" height="47" fill="none" xmlns="http://www.w3.org/2000/svg"><path d="M13.671 2.391A6.119 6.119 0 0 1 17.989.6c1.621.002 3.866.753 5.011 1.9s1.934 2.597 1.934 4.218c0-1.62.92-3.072 2.066-4.218S30.194.607 31.814.607a6.11 6.11 0 0 1 6.111 6.11c0 7.467-8.021 13.408-12.374 16.633l-.048.035-.555.402-.446-.326C20.08 20.245 11.879 14.26 11.879 6.71a6.118 6.118 0 0 1 1.791-4.32Z" stroke="#EFE0D0"/><path d="M.5 36C6.667 39.5 20 46.5 24 46.5s14-6.667 18.5-10c3-2 8.8-6.4 8-8m0 0c-1-2-6.5.5-8 1.5-1.2.8-5.318 4-6.818 5M50.5 28.5c.818-1.308.897-3.61-5.142-2.565a1.95 1.95 0 0 0-.666.25l-4.44 2.664M32.5 33.5l5-3 2.752-1.651m0 0c0-1.628-1.666-1.892-3.752-.849-3 1.5-6.036 3.864-7.703 4.698M16.5 39.5c2.167-.5 7.275-1 10.5-1 4.5 0 8.5 3 11 2s.5-3.5-1.563-5c-2.216-1.611-6.648-3.385-13.287-3.04a2.11 2.11 0 0 1-1.203-.299C17.713 29.617 9.107 25.544.5 26.5" stroke="#EFE0D0" stroke-linecap="round"/></svg>