<svg width="172" height="99" fill="none" xmlns="http://www.w3.org/2000/svg"><path d="M1 20.026V98h170V20.026m-170 0h170m-170 0L5.662 1H167.58L171 20.026" stroke="#7A7070" stroke-width=".8"/><path opacity=".6" d="M87.82 12.68c1.322-.493 2.23-1.508 2.23-2.68 0-.51-.171-.99-.474-1.41 1.245.438 2.042 1.097 2.042 1.836 0 1.044-1.592 1.933-3.799 2.254Zm-1.82.129c-1.36 0-2.464-1.257-2.464-2.809 0-.694.222-1.33.588-1.82A12.615 12.615 0 0 1 86 8.042c.658 0 1.289.05 1.876.138a3.04 3.04 0 0 1 .588 1.82c0 1.552-1.103 2.809-2.464 2.809Zm-5.618-2.383c0-.739.797-1.4 2.043-1.837-.303.42-.476.9-.476 1.411 0 1.172.909 2.187 2.232 2.68-2.207-.321-3.799-1.21-3.799-2.254ZM86 7.19c.655 0 1.25.293 1.69.768a13.541 13.541 0 0 0-3.379-.003c.441-.473 1.035-.765 1.689-.765Zm3.32 1.092C88.588 7.507 87.374 7 86 7c-1.374 0-2.588.507-3.32 1.283-1.615.46-2.68 1.248-2.68 2.143C80 11.847 82.686 13 86 13s6-1.153 6-2.574c0-.895-1.065-1.683-2.68-2.144ZM85 14.707c.552.39 1.448.39 2 0L86 14l-1 .707Z" fill="#645140"/><path d="m52.032 49.19 3.332-8.961 3.332 8.962h-6.664Zm3.442-10.69L50 53.223h.533l1.313-3.531h7.036l1.312 3.531h2.215L56.935 38.5h-1.461Zm16.134 11.192L65.961 38.5h-1.953v14.724h.5V40.227l6.218 12.325 6.216-12.323v12.995h2.076V38.5h-1.762l-5.648 11.192Zm28.663-3.422v-7.272h1.686c2.037 0 3.689 1.598 3.689 3.57 0 1.87-1.488 3.422-3.413 3.562l-1.962.14Zm19.207 6.952h2.215L116.219 38.5h-1.462l-3.707 9.969a3.788 3.788 0 0 1 1.607-.359c1.706 0 3.094 1.09 3.094 2.43s-1.388 2.433-3.094 2.433c-1.913 0-3.318-1.52-4.524-2.821-.545-.589-1.108-1.196-1.761-1.72a9.616 9.616 0 0 0-3.533-1.77l1.11-.083c2.128-.159 3.773-1.917 3.773-4.035 0-2.234-1.826-4.044-4.078-4.044h-5.449v14.723h2.076v-6.37l.266-.021c2.001.046 3.975.752 5.522 1.99.625.502 1.175 1.095 1.708 1.67.406.437.825.89 1.282 1.308.921.844 2.033 1.527 3.3 1.644 1.138.108 2.357-.276 3.153-1.115.458-.483.749-1.115.749-1.789 0-1.614-1.613-2.929-3.594-2.929a4.5 4.5 0 0 0-.776.07l2.766-7.452 4.831 12.994Zm-28.493-.337c1.73-1.293 2.919-3.953 2.919-7.022 0-1.336-.225-2.593-.621-3.695 1.629 1.148 2.67 2.874 2.67 4.81 0 2.736-2.081 5.065-4.968 5.907Zm-2.38.337c-1.779 0-3.222-3.294-3.222-7.359 0-1.82.29-3.485.769-4.77a8.473 8.473 0 0 1 2.454-.362c.86 0 1.685.13 2.453.361.48 1.286.769 2.95.769 4.771 0 4.065-1.443 7.36-3.222 7.36Zm-7.347-6.244c0-1.936 1.041-3.67 2.672-4.814a10.955 10.955 0 0 0-.623 3.7c0 3.068 1.188 5.728 2.92 7.02-2.888-.841-4.97-3.17-4.97-5.906Zm7.348-8.479c.856 0 1.634.766 2.21 2.012a9.03 9.03 0 0 0-2.21-.28 9.01 9.01 0 0 0-2.21.273c.578-1.242 1.355-2.005 2.21-2.005Zm4.342 2.86C91.99 39.33 90.403 38 88.606 38c-1.798 0-3.385 1.33-4.343 3.361-2.112 1.208-3.505 3.272-3.505 5.617 0 3.725 3.514 6.746 7.848 6.746s7.848-3.021 7.848-6.746c0-2.345-1.394-4.41-3.506-5.619Zm-5.44 14.271c.6.6 1.572.6 2.172 0l-1.086-1.088-1.086 1.088ZM65.818 75v-2.8h2.18v.428H66.33v.688h.828c.672 0 1.028.288 1.028.816 0 .556-.4.868-1.108.868h-1.26Zm.512-.4h.72c.4 0 .612-.156.612-.452 0-.292-.204-.432-.612-.432h-.72v.884Zm2.945-.036h1.58V75h-2.1v-2.8H70.8v.436h-1.524v.728h1.352v.428h-1.352v.772Zm3.312-2.364c.736 0 1.192.376 1.192.996 0 .616-.456.996-1.192.996h-.632V75h-.52v-2.8h1.152Zm-.024 1.552c.456 0 .692-.204.692-.556 0-.352-.236-.556-.692-.556h-.608v1.112h.608Zm2.228.812h1.58V75h-2.1v-2.8h2.044v.436H74.79v.728h1.352v.428H74.79v.772Zm5.28.436-.704-1.18h-.48V75h-.508v-1.18h-.48L77.191 75h-.6l.88-1.46-.82-1.34h.552l.684 1.172h.492V72.2h.508v1.172h.484l.688-1.172h.552l-.816 1.344.876 1.456h-.6Zm2.93-2.8h.52V75H83v-1.2h-1.448V75h-.52v-2.8h.52v1.156H83V72.2Zm3.441 2.8-.28-.648h-1.4l-.276.648h-.536l1.26-2.8h.512l1.264 2.8h-.544Zm-1.504-1.056h1.052l-.528-1.224-.524 1.224Zm3.313-1.744h1.164V75h-.512v-.78h-.748l-.52.78h-.548l.6-.864c-.388-.144-.608-.46-.608-.908 0-.648.46-1.028 1.172-1.028Zm.016.44c-.424 0-.66.196-.66.58 0 .368.22.576.64.576h.656V72.64h-.636ZM94.378 75h-.496l-.004-1.856-.92 1.536h-.232l-.92-1.512V75h-.492v-2.8h.428l1.108 1.852 1.096-1.852h.424l.008 2.8Zm2.92 0-.28-.648h-1.4l-.276.648h-.537l1.26-2.8h.513L97.84 75h-.543Zm-1.505-1.056h1.052l-.528-1.224-.523 1.224Zm3.727 1.096c-.856 0-1.496-.604-1.496-1.44s.64-1.44 1.5-1.44c.456 0 .848.164 1.108.468l-.336.316a.984.984 0 0 0-.748-.328c-.58 0-1 .408-1 .984 0 .576.42.984 1 .984a.974.974 0 0 0 .748-.332l.336.32c-.26.304-.652.468-1.112.468Zm3.447-.04-.82-1.18h-.52V75h-.512v-2.8h.512v1.172h.536l.804-1.172h.552l-.956 1.356.992 1.444h-.588Zm3.03 0-.28-.648h-1.4l-.276.648h-.536l1.26-2.8h.512l1.264 2.8h-.544Zm-1.504-1.056h1.052l-.528-1.224-.524 1.224ZM61.708 78.2l-.004.44h-1.388L60.32 81h-.512v-2.8h1.9Zm.416 0h2.06V81h-.512v-2.36h-1.104l-.024.7c-.036 1.104-.2 1.7-.804 1.7-.088 0-.176-.016-.284-.04l.036-.452c.04.012.076.016.12.016.34 0 .444-.416.472-1.204l.04-1.16Zm4.74 0h.512l-1.216 2.26c-.216.408-.524.6-.864.6-.132 0-.272-.028-.412-.088l.128-.408c.1.032.188.052.272.052.164 0 .3-.076.416-.26l.044-.068-1.116-2.088h.556l.828 1.644.852-1.644Zm.878 2.8v-2.8h2.18v.428h-1.668v.688h.828c.672 0 1.028.288 1.028.816 0 .556-.4.868-1.108.868h-1.26Zm.512-.4h.72c.4 0 .612-.156.612-.452 0-.292-.204-.432-.612-.432h-.72v.884Zm3.721.44c-.868 0-1.508-.612-1.508-1.44s.64-1.44 1.508-1.44 1.508.608 1.508 1.44-.64 1.44-1.508 1.44Zm0-.456c.564 0 .984-.412.984-.984 0-.572-.42-.984-.984-.984-.564 0-.984.412-.984.984 0 .572.42.984.984.984ZM75.91 81l-.82-1.18h-.52V81h-.512v-2.8h.512v1.172h.536l.804-1.172h.552l-.956 1.356.992 1.444h-.588Zm2.23.04c-.869 0-1.509-.612-1.509-1.44s.64-1.44 1.508-1.44 1.508.608 1.508 1.44-.64 1.44-1.508 1.44Zm0-.456a.954.954 0 0 0 .983-.984c0-.572-.42-.984-.984-.984-.564 0-.984.412-.984.984 0 .572.42.984.984.984Zm3.986-2.384-.004.44h-1.388l.004 2.36h-.512v-2.8h1.9Zm1.412 2.84c-.868 0-1.508-.612-1.508-1.44s.64-1.44 1.508-1.44 1.508.608 1.508 1.44-.64 1.44-1.508 1.44Zm0-.456c.564 0 .984-.412.984-.984 0-.572-.42-.984-.984-.984-.564 0-.984.412-.984.984 0 .572.42.984.984.984Zm4.484.456c-.868 0-1.508-.612-1.508-1.44s.64-1.44 1.508-1.44 1.508.608 1.508 1.44-.64 1.44-1.508 1.44Zm0-.456c.564 0 .984-.412.984-.984 0-.572-.42-.984-.984-.984-.564 0-.984.412-.984.984 0 .572.42.984.984.984Zm3.692-2.384h.516V81h-.516v-1.056c-.268.1-.52.148-.752.148-.716 0-1.116-.356-1.116-1V78.2h.516v.836c0 .396.236.608.664.608.232 0 .468-.048.688-.148V78.2ZM93.02 81v-2.8h.512v1.988l1.504-1.988h.484V81h-.512v-1.984L93.503 81h-.484Zm6.885-.44h.404v1.036h-.48V81h-3.52v-2.8h.512v2.36h1.032V78.2h.512v2.36h1.028V78.2h.512v2.36Zm1.424.004h1.58V81h-2.1v-2.8h2.044v.436h-1.524v.728h1.352v.428h-1.352v.772Zm4.128-2.364h.52V81h-.52v-1.2h-1.448V81h-.52v-2.8h.52v1.156h1.448V78.2Zm1.309 2.8v-2.8h.512v1.988l1.504-1.988h.484V81h-.512v-1.984L107.249 81h-.484Zm4.261-2.8h1.164V81h-.512v-.78h-.748l-.52.78h-.548l.6-.864c-.388-.144-.608-.46-.608-.908 0-.648.46-1.028 1.172-1.028Zm.016.44c-.424 0-.66.196-.66.58 0 .368.22.576.64.576h.656V78.64h-.636Z" fill="#645140"/></svg>