<svg width="74" height="179" fill="none" xmlns="http://www.w3.org/2000/svg"><path d="m6.558 20.834-.884 10.67m.884-10.67c11.138-7.647 13.773-9.54 30.199-9.54m-30.199 9.54C8.664 14.223 17.652 1 36.757 1M5.674 31.504l-2.527 1.758-.758 10.168.379 1.004v2.26m2.906-15.19c2.78 3.39 14.152 3.892 31.083 3.39m-33.99 11.8c-.715.167-2.173.677-2.274 1.38-.1.703-.042 2.218 0 2.888m2.275-4.268c1.769 2.51 11.245 3.64 33.989 3.64m-36.264.628V178h36.264M.493 50.962c3.538 1.255 15.29 3.766 36.264 3.012M34.164 6.442c-.631-.137-.672-.627-.614-.855.702-1.112 2.192-1.368 3.243-1.368 1.052 0 2.98.598 3.156 1.368.14.615-.526.826-.877.855-1.373.057-4.277.137-4.908 0Zm32.793 14.392.885 10.67m-.885-10.67c-11.137-7.647-13.772-9.54-30.198-9.54m30.198 9.54C64.851 14.223 55.863 1 36.76 1m31.083 30.504 2.527 1.758.758 10.168-.38 1.004v2.26m-2.905-15.19c-2.78 3.39-14.152 3.892-31.083 3.39m33.989 11.8c.716.167 2.173.677 2.274 1.38.101.703.042 2.218 0 2.888m-2.274-4.268c-1.769 2.51-11.246 3.64-33.99 3.64m36.264.628V178H36.76M73.022 50.962c-3.538 1.255-15.289 3.766-36.263 3.012" stroke="#635E5E" stroke-width=".6"/><path d="m11.56 92.658 2.483-6.677 2.483 6.677H11.56Zm2.565-7.966-4.078 10.97h.397l.978-2.631h5.242l.978 2.631h1.65l-4.078-10.97h-1.089Zm12.015 8.339-4.208-8.339h-1.455v10.97h.372V85.98l4.633 9.183 4.631-9.181v9.681h1.547v-10.97h-1.313l-4.208 8.339Zm21.36-2.548v-5.418h1.256c1.518 0 2.748 1.19 2.748 2.66 0 1.393-1.109 2.55-2.542 2.654l-1.462.104Zm14.31 5.18h1.65l-4.079-10.97h-1.088l-2.762 7.428a2.831 2.831 0 0 1 1.197-.267c1.27 0 2.305.811 2.305 1.81s-1.034 1.812-2.305 1.812c-1.425 0-2.472-1.132-3.37-2.101-.406-.439-.826-.891-1.313-1.282a7.163 7.163 0 0 0-2.632-1.319l.827-.061a3.024 3.024 0 0 0 2.81-3.006c0-1.665-1.36-3.013-3.038-3.013h-4.059v10.97H47.5v-4.747l.198-.016c1.49.034 2.962.56 4.114 1.484.465.373.876.815 1.272 1.243.303.326.615.663.955.975.686.628 1.515 1.137 2.46 1.225.847.08 1.755-.206 2.348-.831.341-.36.558-.831.558-1.333 0-1.202-1.201-2.182-2.677-2.182-.199 0-.392.019-.579.051l2.062-5.551 3.599 9.681Zm-21.23-.253c1.29-.963 2.175-2.945 2.175-5.231a8.17 8.17 0 0 0-.462-2.753c1.213.855 1.99 2.141 1.99 3.583 0 2.039-1.551 3.774-3.702 4.4Zm-1.772.252c-1.326 0-2.4-2.455-2.4-5.483 0-1.357.215-2.597.572-3.555a6.312 6.312 0 0 1 1.828-.269c.641 0 1.256.096 1.828.27.357.957.573 2.197.573 3.554 0 3.028-1.075 5.483-2.401 5.483Zm-5.474-4.653c0-1.442.775-2.734 1.99-3.587a8.163 8.163 0 0 0-.464 2.757c0 2.286.886 4.268 2.175 5.23-2.15-.626-3.701-2.361-3.701-4.4Zm5.474-6.317c.638 0 1.218.57 1.647 1.499a6.727 6.727 0 0 0-1.647-.21c-.572 0-1.123.073-1.646.205.43-.925 1.009-1.494 1.646-1.494Zm3.235 2.13c-.713-1.512-1.896-2.502-3.235-2.502-1.34 0-2.522.99-3.236 2.505-1.573.899-2.611 2.437-2.611 4.184 0 2.775 2.618 5.026 5.847 5.026 3.23 0 5.847-2.25 5.847-5.026 0-1.747-1.038-3.285-2.612-4.186ZM38 97.454a1.144 1.144 0 0 0 1.618 0l-.809-.81-.809.81Zm-21.007 35h.512l-1.216 2.26c-.216.408-.524.6-.864.6-.132 0-.272-.028-.412-.088l.128-.408c.1.032.188.052.272.052.164 0 .3-.076.416-.26l.044-.068-1.116-2.088h.556l.828 1.644.852-1.644Zm2.13 2.84c-.856 0-1.496-.604-1.496-1.44s.64-1.44 1.5-1.44c.456 0 .848.164 1.108.468l-.336.316a.983.983 0 0 0-.748-.328c-.58 0-1 .408-1 .984 0 .576.42.984 1 .984a.973.973 0 0 0 .748-.332l.336.32c-.26.304-.652.468-1.112.468Zm1.599-2.84h2.476v2.8h-.512v-2.36h-1.452v2.36h-.512v-2.8Zm4.561 2.84c-.867 0-1.508-.612-1.508-1.44s.64-1.44 1.509-1.44c.867 0 1.508.608 1.508 1.44s-.64 1.44-1.509 1.44Zm0-.456c.564 0 .984-.412.984-.984a.954.954 0 0 0-.983-.984c-.564 0-.985.412-.985.984 0 .572.42.984.985.984Zm3.935.416-.82-1.18h-.52v1.18h-.512v-2.8h.512v1.172h.536l.804-1.172h.552l-.956 1.356.992 1.444h-.588Zm3.03 0-.28-.648h-1.4l-.276.648h-.536l1.26-2.8h.513l1.263 2.8h-.544Zm-1.503-1.056h1.052l-.529-1.224-.524 1.224Zm2.48 1.056v-2.8h.513v1.988l1.504-1.988h.484v2.8h-.512v-1.984l-1.504 1.984h-.484Zm5.13-1.456c.352.096.548.328.548.68 0 .484-.364.776-1.06.776h-1.328v-2.8h1.252c.624 0 1 .256 1 .72 0 .3-.152.512-.412.624Zm-1.328-.944v.796h.696c.336 0 .516-.136.516-.396 0-.264-.18-.4-.516-.4h-.696Zm.8 2c.36 0 .552-.136.552-.416 0-.28-.192-.408-.552-.408h-.8v.824h.8Zm3.804.4-.28-.648h-1.4l-.276.648h-.536l1.26-2.8h.512l1.264 2.8h-.544Zm-1.504-1.056h1.052l-.528-1.224-.524 1.224Zm4.874-1.784c.832 0 1.448.608 1.448 1.44s-.616 1.44-1.448 1.44c-.76 0-1.344-.508-1.44-1.228h-.44v1.188h-.512v-2.8h.512v1.148h.448c.112-.7.688-1.188 1.432-1.188Zm0 2.424c.524 0 .924-.4.924-.984s-.4-.984-.924-.984c-.52 0-.924.4-.924.984s.404.984.924.984Zm5.63-.024h.404v1.036h-.48v-.596h-3.52v-2.8h.512v2.36h1.032v-2.36h.511v2.36h1.028v-2.36h.512v2.36Zm.907.44v-2.8h.512v1.988l1.504-1.988h.484v2.8h-.512v-1.984l-1.504 1.984h-.484Zm4.533-2.988c-.484 0-.724-.208-.728-.58h.364c.004.2.132.308.364.308.228 0 .364-.108.372-.308h.36c-.004.372-.252.58-.732.58Zm-1.244 2.988v-2.8h.512v1.988l1.504-1.988h.484v2.8h-.512v-1.984l-1.504 1.984h-.484Zm-34.246 6v-2.8h2.18v.428h-1.668v.688h.828c.672 0 1.028.288 1.028.816 0 .556-.4.868-1.108.868h-1.26Zm.512-.4h.72c.4 0 .612-.156.612-.452 0-.292-.204-.432-.612-.432h-.72v.884Zm4.542.4-.28-.648h-1.4l-.276.648h-.536l1.26-2.8h.512l1.264 2.8h-.544Zm-1.504-1.056h1.052l-.528-1.224-.524 1.224Zm2.83-1.744h2.06v2.8h-.513v-2.36h-1.104l-.024.7c-.036 1.104-.2 1.7-.804 1.7-.088 0-.176-.016-.284-.04l.036-.452c.04.012.076.016.12.016.34 0 .444-.416.472-1.204l.04-1.16Zm4.139.948c.668 0 1.044.3 1.044.896 0 .628-.42.956-1.128.956h-1.204v-2.8h.512v.948h.776Zm-.108 1.452c.4 0 .632-.188.632-.548 0-.352-.228-.508-.632-.508h-.668v1.056h.668Zm3.077-1.06c.332.104.536.352.536.676 0 .52-.56.824-1.2.824-.364 0-.756-.1-1.084-.312l.168-.38c.252.172.568.256.852.256.4 0 .736-.164.736-.464 0-.252-.22-.376-.572-.376h-.652v-.408h.612c.312 0 .496-.136.496-.356 0-.268-.28-.412-.632-.412-.24 0-.52.068-.764.212l-.164-.42c.296-.16.628-.232.94-.232.616 0 1.148.292 1.148.788 0 .28-.16.496-.42.604Zm3.261 1.46-.28-.648h-1.4l-.276.648h-.535l1.26-2.8h.512l1.264 2.8h-.544Zm-1.503-1.056h1.052l-.529-1.224-.523 1.224Zm5.545 1.056h-.496l-.004-1.856-.92 1.536h-.232l-.92-1.512v1.832h-.492v-2.8h.428l1.108 1.852 1.096-1.852h.424l.008 2.8Zm4.26-.44h.405v1.036h-.48v-.596h-2.148v.596h-.484l.004-1.036h.12c.38-.016.472-.652.5-1.472l.032-.888h2.052v2.36Zm-1.627-1.424c-.024.636-.088 1.2-.304 1.424h1.42v-1.92h-1.096l-.02.496Zm2.854-.936h2.06v2.8h-.512v-2.36h-1.104l-.024.7c-.036 1.104-.2 1.7-.804 1.7-.088 0-.176-.016-.284-.04l.036-.452c.04.012.076.016.12.016.34 0 .444-.416.472-1.204l.04-1.16Zm3.823 0h1.164v2.8h-.512v-.78h-.748l-.52.78h-.548l.6-.864c-.388-.144-.608-.46-.608-.908 0-.648.46-1.028 1.172-1.028Zm.016.44c-.424 0-.66.196-.66.58 0 .368.22.576.64.576h.656v-1.156h-.636Zm-25.32 5.56h.512l-1.216 2.26c-.216.408-.524.6-.864.6-.133 0-.272-.028-.412-.088l.128-.408c.1.032.188.052.271.052.165 0 .3-.076.416-.26l.044-.068-1.116-2.088h.557l.828 1.644.852-1.644Zm3.941 2.8h-.496l-.004-1.856-.92 1.536h-.232l-.92-1.512v1.832h-.492v-2.8h.428l1.108 1.852 1.096-1.852h.424l.008 2.8Zm2.076-1.852c.668 0 1.044.3 1.044.896 0 .628-.42.956-1.128.956h-1.204v-2.8h.512v.948h.776Zm1.448 1.852v-2.8h.512v2.8h-.512Zm-1.556-.4c.4 0 .632-.188.632-.548 0-.352-.228-.508-.632-.508h-.668v1.056h.668Zm4.699-1.056c.352.096.548.328.548.68 0 .484-.364.776-1.06.776h-1.328v-2.8h1.252c.624 0 1 .256 1 .72 0 .3-.152.512-.412.624Zm-1.328-.944v.796h.696c.336 0 .516-.136.516-.396 0-.264-.18-.4-.516-.4h-.696Zm.8 2c.36 0 .552-.136.552-.416 0-.28-.192-.408-.552-.408h-.8v.824h.8Zm3.804.4-.28-.648h-1.4l-.276.648h-.536l1.26-2.8h.512l1.264 2.8h-.544Zm-1.504-1.056h1.052l-.528-1.224-.524 1.224Zm4.445-1.744h.52v2.8h-.52v-1.2h-1.448v1.2h-.52v-2.8h.52v1.156h1.448v-1.156Zm1.31 2.8v-2.8h.512v1.988l1.504-1.988h.484v2.8h-.512v-1.984l-1.504 1.984h-.484Zm4.261-2.8h1.164v2.8h-.512v-.78h-.748l-.52.78h-.548l.6-.864c-.388-.144-.608-.46-.608-.908 0-.648.46-1.028 1.172-1.028Zm.016.44c-.424 0-.66.196-.66.58 0 .368.22.576.64.576h.656v-1.156h-.636Z" fill="#645140"/></svg>