<svg width="65" height="124" fill="none" xmlns="http://www.w3.org/2000/svg"><path d="m5.793 15.752-.813 6.75m.813-6.75c10.504-4.566 12.017-5.132 26.349-5.132M5.793 15.753C7.632 11.212 15.474 1 32.142 1M4.98 22.503l-2.163 1.784-.662 6.983.331.69v1.551M4.98 22.503c2.425 2.328 12.389 2.129 27.162 1.784M2.486 33.511c-.625.115-1.896.466-1.984.948-.088.483-.037 1.523 0 1.983m1.984-2.93c1.544 1.723 9.812 2.5 29.656 2.5m-31.64.43v87.242h31.64M.502 36.442c3.087.862 13.34 2.587 31.64 2.07m26.354-22.76.813 6.75m-.813-6.75c-10.504-4.566-12.017-5.132-26.349-5.132m26.349 5.133C56.658 11.212 48.816 1 32.147 1M59.31 22.503l2.163 1.784.662 6.983-.331.69v1.551M59.31 22.503c-2.425 2.328-12.389 2.129-27.161 1.784m29.655 9.224c.625.115 1.896.466 1.984.948.088.483.037 1.523 0 1.983m-1.984-2.93c-1.543 1.723-9.812 2.5-29.655 2.5m31.64.43v87.242h-31.64m31.64-87.242c-3.087.862-13.34 2.587-31.64 2.07" stroke="#635E5E" stroke-width=".6"/><path d="m10.83 63.698 2.157-5.8 2.157 5.8h-4.313Zm2.229-6.92-3.543 9.53h.345l.85-2.285h4.553l.85 2.286h1.434l-3.543-9.53h-.946Zm10.439 7.245-3.656-7.244h-1.264v9.53h.324v-8.413l4.024 7.978 4.024-7.976v8.41h1.344v-9.53h-1.141l-3.655 7.245Zm18.557-2.215v-4.706h1.09c1.32 0 2.388 1.034 2.388 2.31 0 1.21-.963 2.215-2.209 2.306l-1.27.09Zm12.431 4.5h1.434l-3.543-9.53h-.946l-2.4 6.453a2.46 2.46 0 0 1 1.04-.232c1.105 0 2.003.705 2.003 1.573 0 .867-.898 1.574-2.002 1.574-1.239 0-2.148-.983-2.928-1.826-.353-.38-.718-.773-1.14-1.113a6.222 6.222 0 0 0-2.288-1.146l.719-.053a2.628 2.628 0 0 0 2.442-2.612 2.628 2.628 0 0 0-2.64-2.617h-3.526v9.53h1.344v-4.124l.171-.013a5.98 5.98 0 0 1 3.575 1.288c.404.325.76.709 1.105 1.08.263.283.534.576.83.847.596.546 1.316.988 2.136 1.064.737.07 1.526-.178 2.04-.721.297-.313.485-.722.485-1.158 0-1.045-1.043-1.896-2.325-1.896-.173 0-.341.016-.503.045l1.79-4.823 3.127 8.41ZM36.05 66.09c1.12-.837 1.889-2.558 1.889-4.545a7.1 7.1 0 0 0-.402-2.392c1.054.743 1.728 1.86 1.728 3.114 0 1.77-1.347 3.278-3.215 3.823Zm-1.54.218c-1.153 0-2.086-2.132-2.086-4.763 0-1.179.187-2.256.497-3.088a5.483 5.483 0 0 1 1.588-.233c.557 0 1.091.083 1.588.233.31.832.498 1.91.498 3.088 0 2.631-.934 4.763-2.086 4.763Zm-4.757-4.041c0-1.253.674-2.375 1.73-3.116a7.091 7.091 0 0 0-.403 2.394c0 1.987.769 3.708 1.89 4.545-1.87-.545-3.217-2.052-3.217-3.823Zm4.756-5.489c.555 0 1.058.496 1.431 1.303a5.833 5.833 0 0 0-2.86-.004c.373-.804.876-1.298 1.43-1.298Zm2.81 1.852c-.62-1.314-1.646-2.174-2.81-2.174-1.163 0-2.19.86-2.81 2.175-1.368.782-2.27 2.118-2.27 3.636 0 2.41 2.275 4.366 5.08 4.366 2.806 0 5.08-1.956 5.08-4.366 0-1.518-.902-2.855-2.27-3.637Zm-3.522 9.237a.994.994 0 0 0 1.406 0l-.703-.704-.703.704ZM17.34 94.738h.52v2.8h-.52v-1.2h-1.45v1.2h-.52v-2.8h.52v1.156h1.448v-1.156Zm3.44 2.8-.28-.648h-1.4l-.275.648h-.536l1.26-2.8h.512l1.264 2.8h-.544Zm-1.503-1.056h1.052l-.528-1.224-.524 1.224Zm3.726 1.096c-.856 0-1.496-.604-1.496-1.44s.64-1.44 1.5-1.44c.456 0 .848.164 1.108.468l-.336.316a.983.983 0 0 0-.748-.328c-.58 0-1 .408-1 .984 0 .576.42.984 1 .984a.973.973 0 0 0 .748-.332l.336.32c-.26.304-.652.468-1.112.468Zm2.887-1.892c.668 0 1.044.3 1.044.896 0 .628-.42.956-1.128.956h-1.204v-2.8h.512v.948h.776Zm1.448 1.852v-2.8h.512v2.8h-.512Zm-1.556-.4c.4 0 .632-.188.632-.548 0-.352-.228-.508-.632-.508h-.668v1.056h.668Zm6.455-.04h.404v1.036h-.48v-.596h-3.52v-2.8h.512v2.36h1.032v-2.36h.512v2.36h1.028v-2.36h.512v2.36Zm1.424.004h1.58v.436h-2.1v-2.8h2.044v.436H33.66v.728h1.352v.428H33.66v.772Zm4.127-2.364h.52v2.8h-.52v-1.2H36.34v1.2h-.52v-2.8h.52v1.156h1.448v-1.156Zm3.274 0h.52v2.8h-.52v-1.2h-1.448v1.2h-.52v-2.8h.52v1.156h1.448v-1.156Zm2.597.948c.668 0 1.044.3 1.044.896 0 .628-.42.956-1.128.956h-1.204v-2.8h.512v.948h.776Zm1.448 1.852v-2.8h.512v2.8h-.512Zm-1.556-.4c.4 0 .632-.188.632-.548 0-.352-.228-.508-.632-.508h-.668v1.056h.668Zm4.103-2.588c-.484 0-.724-.208-.728-.58h.364c.004.2.132.308.364.308.228 0 .364-.108.372-.308h.36c-.004.372-.252.58-.732.58Zm-1.244 2.988v-2.8h.512v1.988l1.504-1.988h.484v2.8h-.512v-1.984l-1.504 1.984h-.484Zm-32.231 5.56h.415v1.056h-.48v-.616h-2.376v-2.8h.513v2.36h1.412v-2.36h.515v2.36Zm2.735-1.016c.352.096.548.328.548.68 0 .484-.364.776-1.06.776h-1.328v-2.8h1.252c.624 0 1 .256 1 .72 0 .3-.152.512-.412.624Zm-1.328-.944v.796h.696c.336 0 .516-.136.516-.396 0-.264-.18-.4-.516-.4h-.696Zm.8 2c.36 0 .552-.136.552-.416 0-.28-.192-.408-.552-.408h-.8v.824h.8Zm2.189-.036h1.58v.436h-2.1v-2.8h2.044v.436h-1.524v.728h1.352v.428h-1.352v.772Zm4.192-2.364v.44h-.928v2.36h-.516v-2.36h-.925v-.44h2.369Zm1.705 2.84c-.868 0-1.508-.612-1.508-1.44s.64-1.44 1.508-1.44 1.508.608 1.508 1.44-.64 1.44-1.508 1.44Zm0-.456c.564 0 .984-.412.984-.984 0-.572-.42-.984-.984-.984-.564 0-.984.412-.984.984 0 .572.42.984.984.984Zm3.692-2.384h.516v2.8h-.516v-1.056c-.268.1-.52.148-.752.148-.716 0-1.116-.356-1.116-1v-.892h.516v.836c0 .396.236.608.664.608.232 0 .468-.048.688-.148v-1.296Zm3.269 0h.52v2.8h-.52v-1.2h-1.448v1.2h-.52v-2.8h.52v1.156h1.448v-1.156Zm2.597.948c.668 0 1.044.3 1.044.896 0 .628-.42.956-1.128.956h-1.204v-2.8h.512v.948h.776Zm1.448 1.852v-2.8h.512v2.8h-.512Zm-1.556-.4c.4 0 .632-.188.632-.548 0-.352-.228-.508-.632-.508h-.668v1.056h.668Zm4.104-2.588c-.485 0-.725-.208-.729-.58h.364c.005.2.133.308.364.308.229 0 .364-.108.373-.308h.36c-.005.372-.253.58-.733.58Zm-1.245 2.988v-2.8h.513v1.988l1.504-1.988h.483v2.8h-.511v-1.984l-1.505 1.984h-.483Zm6.243 0-.82-1.18h-.52v1.18h-.512v-2.8h.512v1.172h.536l.804-1.172h.552l-.956 1.356.992 1.444h-.588Zm2.093-2.8c.736 0 1.192.376 1.192.996 0 .616-.456.996-1.192.996h-.632v.808h-.52v-2.8h1.152Zm-.024 1.552c.456 0 .692-.204.692-.556 0-.352-.236-.556-.692-.556h-.608v1.112h.608Zm2.228.812h1.58v.436h-2.1v-2.8h2.044v.436H47.32v.728h1.352v.428H47.32v.772Zm5.228.436h-.496l-.004-1.856-.92 1.536h-.232l-.92-1.512v1.832h-.492v-2.8h.428l1.108 1.852 1.096-1.852h.424l.008 2.8Z" fill="#645140"/><path d="M29.418 6.585c-.666-.135-.71-.618-.648-.842.74-1.095 2.312-1.347 3.421-1.347 1.11 0 3.144.589 3.33 1.347.147.606-.556.814-.925.842-1.449.056-4.513.134-5.178 0Z" stroke="#635E5E" stroke-width=".6"/></svg>