<svg width="42" height="37" fill="none" xmlns="http://www.w3.org/2000/svg"><path d="M17.606.16c.105-.107.264-.16.476-.16.317 0 .581.214.793.64.211.428.158.748-.159.962-3.912 2.99-6.979 6.033-9.2 9.13-2.114 2.99-3.436 6.246-3.965 9.77-.211 1.282-.317 2.19-.317 2.723 0 .961.159 1.869.476 2.723.952-1.068 2.38-1.602 4.282-1.602 1.904 0 3.384.641 4.441 1.922 1.164 1.175 1.745 2.617 1.745 4.325 0 2.029-.687 3.63-2.062 4.805C12.847 36.466 11.05 37 8.724 37c-2.644 0-4.759-.854-6.345-2.563C.793 32.622 0 30.113 0 26.91 0 17.62 5.869 8.703 17.606.16Zm22.998 0c.106-.107.265-.16.476-.16.317 0 .582.214.793.64.212.428.159.748-.158.962-3.913 2.99-6.98 6.033-9.2 9.13-2.115 2.99-3.437 6.246-3.965 9.77-.212 1.282-.317 2.19-.317 2.723 0 .961.158 1.869.476 2.723.951-1.068 2.379-1.602 4.282-1.602s3.384.641 4.441 1.922c1.163 1.175 1.745 2.617 1.745 4.325 0 2.029-.688 3.63-2.062 4.805C35.845 36.466 34.048 37 31.722 37c-2.643 0-4.758-.854-6.344-2.563-1.587-1.815-2.38-4.324-2.38-7.528 0-9.29 5.87-18.206 17.606-26.749Z" fill="#D7BCA3"/></svg>