<svg width="60" height="60" fill="none" xmlns="http://www.w3.org/2000/svg"><path d="M27.912 45.43a.811.811 0 0 1-.12 1.618 12.801 12.801 0 0 1-4.328-1.116c-2.765 1.727-5.574 1.33-7.837-.283-1.253-.893-2.33-2.168-3.124-3.657a12.55 12.55 0 0 1-1.432-4.924c-.312-4.173 1.512-8.661 6.868-11.293a.809.809 0 0 1 1.081.37l.044.109c1.079 3.34 2.818 5.328 4.246 6.962 2.227 2.547 3.796 4.343 1.87 8.528a.81.81 0 0 1-1.472-.68c1.487-3.231.204-4.7-1.617-6.782-1.396-1.598-3.07-3.513-4.25-6.625-4.02 2.318-5.403 5.927-5.152 9.29a10.907 10.907 0 0 0 1.242 4.283c.677 1.27 1.586 2.351 2.635 3.099 1.516 1.08 3.348 1.454 5.201.667a12.652 12.652 0 0 1-1.56-1.207l-.04-.035-.013-.014a12.766 12.766 0 0 1-2.672-3.462c-.188-.13-.499-.224-.847-.326l-.035-.009c-.21-.062-.432-.127-.67-.21a.81.81 0 0 1 .534-1.53l.165.055a12.694 12.694 0 0 1-.51-2.278.81.81 0 0 1 1.604-.203c.113.873.335 1.746.667 2.596.32.821.746 1.619 1.276 2.372l.096.134c.032-.485.098-.975.185-1.562a.812.812 0 0 1 1.605.235c-.106.717-.18 1.269-.19 1.774-.01.437.023.88.115 1.425.556.482 1.152.902 1.779 1.258a11.177 11.177 0 0 0 4.656 1.422Zm2.192-30.364a.81.81 0 0 1 1.352.894c-.079.118-.16.238-.249.359.777.08 1.537.23 2.27.447a.81.81 0 0 1-.457 1.554 11.039 11.039 0 0 0-3.737-.433l-.02.002-.039.002h-.019c-.504.033-1.01.098-1.517.2l-.245.052c.46.207.922.459 1.44.784a.81.81 0 0 1-.863 1.37 9.291 9.291 0 0 0-1.595-.823c-.448-.175-.92-.313-1.48-.448-.599.297-1.165.645-1.692 1.037l-.49.386a11.167 11.167 0 0 0-2.69 3.3.81.81 0 0 1-1.427-.762 12.813 12.813 0 0 1 2.763-3.508c-.256-1.784.096-3.328.871-4.6.59-.966 1.425-1.765 2.423-2.382.977-.604 2.107-1.032 3.31-1.271 2.793-.555 6.03-.102 8.693 1.523a.81.81 0 0 1-.844 1.384c-2.305-1.406-5.112-1.797-7.539-1.314-1.02.202-1.966.558-2.77 1.055-.783.484-1.435 1.105-1.89 1.85-.445.73-.703 1.593-.712 2.578a12.67 12.67 0 0 1 1.611-.886h.002a12.82 12.82 0 0 1 4.389-1.13c.218-.133.407-.297.575-.474.219-.23.407-.492.576-.746Zm7.612.55a.81.81 0 0 1 1.18-1.11l.325.35a.812.812 0 0 1-1.206 1.085l-.299-.326Zm1.628 2.32a.81.81 0 0 1 1.452-.717c.377.765.685 1.606.907 2.523l.007.037c.204.857.334 1.78.375 2.77a.81.81 0 0 1-.777.84l-.114-.003c-3.49-.359-6.013.43-8.086 1.079-3.227 1.01-5.5 1.722-8.555-1.73a.81.81 0 0 1 1.212-1.072c2.357 2.663 4.219 2.08 6.86 1.253 2.025-.633 4.451-1.392 7.775-1.216a12.37 12.37 0 0 0-.263-1.546l-.008-.03a10.518 10.518 0 0 0-.785-2.188Zm4.76 22.7a.811.811 0 0 1-1.585.338 6.98 6.98 0 0 0-.081-.332 12.74 12.74 0 0 1-1.634 1.722.81.81 0 0 1-1.066-1.218 11.195 11.195 0 0 0 3.051-4.377l.089-.237c-.423.28-.884.535-1.435.796a.811.811 0 0 1-.692-1.466 9.205 9.205 0 0 0 1.55-.902c.39-.285.758-.61 1.169-1.007a11.115 11.115 0 0 0-1.376-6.649.812.812 0 0 1 1.415-.793 12.805 12.805 0 0 1 1.479 4.215c2.97 1.337 4.203 3.89 4.121 6.668-.045 1.54-.504 3.145-1.3 4.632a12.54 12.54 0 0 1-3.298 3.927c-3.296 2.582-8.04 3.563-13.203.578a.811.811 0 0 1-.197-1.244c2.149-2.734 2.831-5.273 3.392-7.36.878-3.267 1.497-5.57 6.049-6.297a.81.81 0 0 1 .254 1.6c-3.512.56-4.018 2.444-4.736 5.115-.55 2.048-1.21 4.502-3.143 7.215 4.164 2.054 7.934 1.197 10.588-.882a10.905 10.905 0 0 0 2.866-3.414c.68-1.271 1.073-2.628 1.11-3.914.056-1.86-.653-3.59-2.338-4.692.005.58-.03 1.166-.106 1.751v.002l-.001.007-.002.013-.002.019-.002.008a12.81 12.81 0 0 1-.74 2.889c-.19.495-.408.97-.648 1.424.004.306.088.576.19.9.084.27.178.57.263.966Z" fill="#D7BCA3"/></svg>