<svg width="60" height="60" fill="none" xmlns="http://www.w3.org/2000/svg"><path d="M47.283 9a.745.745 0 0 0-.744.749v2.376a.752.752 0 0 0 .744.747.745.745 0 0 0 .75-.747V9.749a.754.754 0 0 0-.464-.693.744.744 0 0 0-.286-.056Zm-14.906 3.11a.981.981 0 0 0-.655.263 1.574 1.574 0 0 0-.3.375 4.893 4.893 0 0 0-.402.88c-.246.668-.48 1.51-.706 2.366-.227.857-.445 1.728-.637 2.401a11.63 11.63 0 0 1-.26.825 1.24 1.24 0 0 1-.09.187 1.227 1.227 0 0 1-.186.09c-.2.076-.486.165-.821.261-.67.193-1.532.413-2.385.64-.853.228-1.695.463-2.36.71a4.84 4.84 0 0 0-.876.403 1.56 1.56 0 0 0-.37.302.992.992 0 0 0-.263.658c0 .298.142.52.264.658.122.138.241.223.369.302.255.159.542.281.875.405.666.247 1.508.48 2.36.708.854.227 1.716.447 2.386.64.335.097.622.187.821.263.078.029.14.061.187.088.025.046.06.108.089.187.075.2.164.489.26.825.192.673.41 1.541.637 2.398.227.857.46 1.699.706 2.367.123.335.244.623.401.88.08.128.164.252.3.375a.983.983 0 0 0 .656.265.983.983 0 0 0 .655-.265c.137-.123.222-.247.3-.375a4.89 4.89 0 0 0 .403-.88c.246-.668.478-1.51.705-2.367.227-.857.446-1.725.637-2.398.096-.336.187-.624.262-.825.029-.078.062-.14.089-.186.046-.026.107-.06.185-.09.2-.075.486-.165.821-.262.67-.193 1.533-.413 2.385-.64.853-.228 1.695-.461 2.36-.708.334-.124.62-.246.876-.405.128-.079.249-.164.37-.302a.991.991 0 0 0 .265-.658.993.993 0 0 0-.264-.658 1.562 1.562 0 0 0-.37-.302 4.84 4.84 0 0 0-.876-.403c-.666-.247-1.508-.482-2.36-.71-.853-.227-1.716-.447-2.386-.64a11.751 11.751 0 0 1-.821-.26 1.213 1.213 0 0 1-.185-.091c-.026-.047-.06-.108-.09-.187a11.81 11.81 0 0 1-.26-.825c-.193-.673-.412-1.544-.638-2.4-.227-.858-.459-1.7-.705-2.368a4.88 4.88 0 0 0-.402-.88 1.576 1.576 0 0 0-.3-.374.981.981 0 0 0-.656-.263Zm-17.087.768a.746.746 0 0 0-.744.748v2.377a.752.752 0 0 0 .744.753.742.742 0 0 0 .694-.464.754.754 0 0 0 .056-.289v-2.377a.754.754 0 0 0-.464-.692.747.747 0 0 0-.286-.056Zm27.874.261a.744.744 0 0 0-.693.465.755.755 0 0 0 .407.98c.09.037.188.056.286.056h2.365a.745.745 0 0 0 .744-.748.755.755 0 0 0-.458-.695.744.744 0 0 0-.286-.058h-2.365Zm5.878 0a.744.744 0 0 0-.688.466.753.753 0 0 0 .163.815c.14.14.328.22.525.22h2.365a.745.745 0 0 0 .744-.748.753.753 0 0 0-.458-.695.744.744 0 0 0-.286-.058h-2.365Zm-16.665 1.154c.198.562.41 1.298.619 2.087.223.844.441 1.713.644 2.425.102.357.201.675.3.943.1.267.133.46.41.737.276.278.473.315.74.415.265.1.578.2.933.302.709.204 1.573.42 2.413.643.785.21 1.522.427 2.082.626-.56.2-1.297.412-2.082.622-.84.224-1.704.444-2.413.648-.355.102-.668.198-.934.299-.266.1-.463.135-.74.413-.276.277-.308.475-.408.743-.1.267-.2.582-.3.938-.204.712-.422 1.582-.645 2.426-.209.789-.42 1.524-.619 2.087a28.806 28.806 0 0 1-.619-2.087c-.223-.844-.441-1.714-.644-2.426-.102-.356-.201-.67-.3-.938-.1-.268-.133-.466-.41-.743-.276-.278-.471-.313-.738-.413-.266-.1-.579-.197-.933-.3-.71-.203-1.575-.423-2.415-.647a28.668 28.668 0 0 1-2.082-.622c.56-.2 1.297-.416 2.082-.626.84-.224 1.706-.439 2.415-.643.354-.102.667-.202.933-.302.267-.1.462-.137.738-.415.277-.277.31-.47.41-.737.099-.268.198-.586.3-.943.203-.712.421-1.581.644-2.425.209-.789.42-1.525.619-2.087Zm14.906.612a.746.746 0 0 0-.744.75v2.375a.753.753 0 0 0 .458.695.742.742 0 0 0 .817-.161.75.75 0 0 0 .219-.534v-2.376a.753.753 0 0 0-.464-.693.744.744 0 0 0-.286-.056Zm-36.111 2.11a.742.742 0 0 0-.694.465.754.754 0 0 0 .694 1.038h2.365a.745.745 0 0 0 .745-.749.753.753 0 0 0-.46-.695.744.744 0 0 0-.285-.058h-2.365Zm5.878 0a.743.743 0 0 0-.694.465.752.752 0 0 0 .694 1.038h2.365a.745.745 0 0 0 .745-.749.755.755 0 0 0-.46-.695.745.745 0 0 0-.285-.058H17.05Zm-1.76 1.768a.746.746 0 0 0-.744.748v2.377a.752.752 0 0 0 .744.754.742.742 0 0 0 .694-.465.754.754 0 0 0 .056-.289v-2.377a.754.754 0 0 0-.464-.691.747.747 0 0 0-.286-.056Zm1.717 9.486a.925.925 0 0 0-.618.245c-.125.112-.2.22-.267.329-.133.216-.23.447-.327.712-.195.53-.375 1.188-.552 1.855-.176.668-.346 1.34-.494 1.859-.074.26-.142.482-.197.63a.56.56 0 0 1-.037.078c-.025.013-.051.027-.081.038a8.823 8.823 0 0 1-.625.2c-.516.15-1.185.318-1.85.495-.663.177-1.319.36-1.846.557a3.898 3.898 0 0 0-.712.327 1.38 1.38 0 0 0-.326.268.938.938 0 0 0-.245.623c0 .286.134.496.245.621.111.126.218.199.326.265.215.134.448.23.712.327.527.196 1.183.38 1.847.557.663.178 1.333.349 1.85.497.257.075.476.142.624.198a.64.64 0 0 1 .081.038.478.478 0 0 1 .037.078c.055.148.123.37.197.63.148.519.318 1.192.494 1.859.177.667.357 1.325.552 1.855.097.265.194.496.327.713.066.108.142.216.267.328a.926.926 0 0 0 .618.248.925.925 0 0 0 .619-.248c.125-.112.2-.22.267-.328.133-.217.228-.448.325-.713.195-.53.375-1.188.552-1.855.176-.667.346-1.34.494-1.859.074-.26.142-.482.197-.63a.534.534 0 0 1 .037-.078.793.793 0 0 1 .082-.038c.147-.056.366-.123.624-.198.516-.148 1.186-.32 1.85-.497.664-.177 1.32-.36 1.847-.557.264-.098.496-.193.712-.327a1.36 1.36 0 0 0 .327-.265.933.933 0 0 0 .243-.621.938.938 0 0 0-.243-.623 1.382 1.382 0 0 0-.327-.268 3.896 3.896 0 0 0-.712-.327c-.528-.196-1.183-.38-1.847-.557-.664-.177-1.334-.346-1.85-.494a8.823 8.823 0 0 1-.624-.2.697.697 0 0 1-.082-.039.498.498 0 0 1-.037-.078 9.315 9.315 0 0 1-.197-.63c-.148-.518-.318-1.191-.494-1.858-.177-.668-.357-1.326-.552-1.856a3.891 3.891 0 0 0-.325-.712 1.386 1.386 0 0 0-.267-.329.924.924 0 0 0-.619-.244Zm27.467 1.428a.878.878 0 0 0-.586.232 1.186 1.186 0 0 0-.23.286 3.01 3.01 0 0 0-.257.558 16.08 16.08 0 0 0-.412 1.375c-.13.49-.252.983-.359 1.357-.05.177-.096.32-.132.42-.1.037-.243.082-.42.133-.372.107-.86.231-1.349.362-.487.13-.97.265-1.37.413a2.98 2.98 0 0 0-.555.256c-.09.056-.18.12-.282.233a.886.886 0 0 0-.23.59.89.89 0 0 0 .23.589c.102.114.192.176.282.232.178.11.356.183.555.257.4.149.883.282 1.37.412.488.13.977.255 1.35.362.176.05.319.096.419.132.036.1.082.245.132.422.107.375.23.866.36 1.356.129.49.263.977.41 1.378.074.2.147.377.257.557.055.09.117.182.23.284a.877.877 0 0 0 .587.232c.274 0 .473-.13.587-.232a1.16 1.16 0 0 0 .23-.284c.11-.18.183-.356.257-.557.148-.401.282-.888.411-1.378.13-.49.252-.981.36-1.356a6.55 6.55 0 0 1 .133-.422c.1-.036.242-.081.418-.132.372-.107.861-.232 1.35-.362.487-.13.97-.263 1.37-.412.199-.074.376-.147.555-.258.09-.055.18-.117.281-.231a.885.885 0 0 0 .231-.59.885.885 0 0 0-.23-.589 1.176 1.176 0 0 0-.282-.233 2.977 2.977 0 0 0-.556-.256 15.96 15.96 0 0 0-1.37-.413c-.488-.13-.977-.255-1.35-.362a6.591 6.591 0 0 1-.417-.132 6.584 6.584 0 0 1-.134-.421c-.106-.374-.229-.867-.359-1.357-.13-.49-.264-.974-.41-1.375a2.998 2.998 0 0 0-.258-.558 1.178 1.178 0 0 0-.23-.286.877.877 0 0 0-.587-.232Zm-27.467 1.025c.107.349.211.666.32 1.075.173.654.341 1.33.5 1.887.08.279.156.528.236.743.08.215.101.372.36.633.26.261.417.281.631.362.214.08.462.158.74.238.555.16 1.227.329 1.877.502.41.11.728.214 1.077.321-.349.108-.667.214-1.077.323-.65.174-1.322.343-1.877.503a9.8 9.8 0 0 0-.74.237c-.214.08-.37.098-.63.359s-.28.42-.36.636c-.08.216-.157.463-.237.742-.159.557-.327 1.234-.5 1.888-.108.409-.213.726-.32 1.075-.106-.349-.213-.666-.32-1.075-.174-.654-.342-1.33-.501-1.888-.08-.279-.156-.526-.236-.742-.08-.215-.1-.375-.36-.636s-.415-.278-.63-.36a9.991 9.991 0 0 0-.74-.236c-.554-.16-1.227-.33-1.878-.503-.41-.11-.728-.215-1.077-.323.349-.107.667-.211 1.077-.32.65-.174 1.324-.344 1.879-.503.277-.08.525-.157.74-.238.214-.08.368-.1.628-.362.26-.261.28-.418.36-.633.081-.215.158-.464.237-.743.159-.558.327-1.233.5-1.886.109-.41.215-.727.321-1.076Zm27.467 1.673c.014.053.026.085.041.138.126.477.249.972.366 1.385a8.1 8.1 0 0 0 .18.559c.062.166.065.29.31.536.244.246.366.247.532.31.166.062.35.118.556.177.411.118.904.244 1.378.37.053.015.085.028.137.042-.052.014-.084.027-.137.04-.474.127-.967.25-1.378.369-.206.059-.39.117-.556.18-.166.062-.288.062-.533.308-.244.246-.247.371-.309.538a7.52 7.52 0 0 0-.18.558c-.118.413-.24.908-.366 1.385-.014.053-.025.085-.04.138-.015-.053-.026-.085-.042-.138-.126-.477-.248-.972-.366-1.385a7.52 7.52 0 0 0-.18-.558c-.062-.167-.063-.292-.307-.538-.245-.246-.368-.246-.534-.308a7.429 7.429 0 0 0-.556-.18c-.411-.119-.904-.242-1.379-.368-.053-.014-.084-.027-.137-.041.053-.014.084-.027.137-.041.475-.127.968-.253 1.379-.371.206-.06.39-.115.556-.178.166-.062.29-.063.534-.309.245-.246.245-.37.308-.536a8.1 8.1 0 0 0 .18-.559c.117-.413.24-.908.365-1.385.014-.053.026-.085.041-.138Zm-15.206 7.822a.743.743 0 0 0-.692.46.755.755 0 0 0-.058.287v2.377a.752.752 0 0 0 .75.754.743.743 0 0 0 .69-.466.755.755 0 0 0 .056-.288v-2.377a.752.752 0 0 0-.746-.747Zm-4.124 4.137a.745.745 0 0 0-.744.754.752.752 0 0 0 .744.748h2.366a.745.745 0 0 0 .744-.748.753.753 0 0 0-.744-.754h-2.366Zm5.878 0a.745.745 0 0 0-.744.754.752.752 0 0 0 .744.748h2.366a.744.744 0 0 0 .692-.461.752.752 0 0 0-.692-1.04h-2.366Zm-1.754 1.768a.743.743 0 0 0-.692.46.755.755 0 0 0-.058.287v2.378a.752.752 0 0 0 .75.753.743.743 0 0 0 .69-.466.755.755 0 0 0 .056-.287v-2.378a.752.752 0 0 0-.746-.747Z" fill="#D7BCA3"/></svg>