<svg width="524" height="184" fill="none" xmlns="http://www.w3.org/2000/svg"><path opacity=".2" fill-rule="evenodd" clip-rule="evenodd" d="M233.184 2.015H12.918C6.088 2.015.55 7.648.55 14.598s5.538 12.584 12.368 12.584h188.578c8.7-10.722 19.497-19.367 31.688-25.167zm-47.328 52.209H30.347c-6.832 0-12.37 5.635-12.37 12.584 0 6.95 5.538 12.584 12.37 12.584h149.181a105.563 105.563 0 016.328-25.168zm-6.328 52.14H65.369c-6.832 0-12.37 5.633-12.37 12.584 0 6.95 5.538 12.584 12.37 12.584h120.487a105.567 105.567 0 01-6.328-25.168zm21.968 52.211h-89.903c-6.831 0-12.369 5.633-12.369 12.584 0 6.949 5.538 12.584 12.369 12.584h121.591c-12.191-5.801-22.988-14.446-31.688-25.168z" fill="url(#paint0_linear)"/><path fill-rule="evenodd" clip-rule="evenodd" d="M361.515 66.605c8.829 0 15.234-8.598 11.283-16.631C358.218 20.344 328.1 0 293.31 0c-49.06 0-88.833 40.46-88.833 90.37 0 49.91 39.773 90.37 88.833 90.37 34.79 0 64.908-20.344 79.488-49.974 3.951-8.034-2.454-16.632-11.283-16.632-5.497 0-10.323 3.491-13.057 8.342-10.954 19.432-31.548 32.522-55.148 32.522-35.085 0-63.528-28.936-63.528-64.628 0-35.693 28.443-64.627 63.528-64.627 23.6 0 44.194 13.089 55.148 32.52 2.734 4.852 7.56 8.342 13.057 8.342z" fill="#262830"/><path d="M293.311 127.249c20.021 0 36.252-16.512 36.252-36.88 0-20.367-16.231-36.878-36.252-36.878-20.022 0-36.252 16.511-36.252 36.879 0 20.367 16.23 36.879 36.252 36.879zm-136.788-3.291h28.173v6.037h-28.173v44.377h-6.037v-44.377h-78.93v-3.354l77.7-115.024h7.267v112.341zm-75.575 0h69.538V18.883l-9.391 15.426-60.147 89.649zm405.108 0h28.173v6.037h-28.173v44.377h-6.037v-44.377H401.09v-3.354l77.699-115.024h7.267v112.341zm-75.575 0h69.538V18.883l-9.391 15.426-60.147 89.649z" fill="#262830"/><path fill-rule="evenodd" clip-rule="evenodd" d="M150.486 123.958V18.883l-9.391 15.426-60.147 89.649h69.538zm-51.483-9.628h41.854V51.947L99.002 114.33zm-27.446 12.311v3.354h78.929v44.377h6.037v-44.377h28.173v-6.037h-28.173V11.617h-7.267l-77.7 115.024zm94.595-12.311V11.617c0-5.317-4.311-9.628-9.629-9.628h-7.267a9.63 9.63 0 00-7.98 4.24L63.577 121.251a9.628 9.628 0 00-1.65 5.389v3.354c0 5.317 4.312 9.627 9.63 9.627h69.3v34.75c0 5.317 4.311 9.628 9.629 9.628h6.037c5.318 0 9.629-4.311 9.629-9.628v-34.75h18.544c5.318 0 9.629-4.31 9.629-9.627v-6.037c0-5.317-4.311-9.628-9.629-9.628h-18.544zm313.866 9.628V18.883l-9.391 15.426-60.147 89.649h69.538zm-51.483-9.628h41.854V51.947l-41.854 62.383zm-27.446 12.311v3.354h78.929v44.377h6.037v-44.377h28.173v-6.037h-28.173V11.617h-7.267l-77.699 115.024zm94.595-12.311V11.617c0-5.317-4.311-9.628-9.629-9.628h-7.267a9.628 9.628 0 00-7.979 4.24L393.11 121.251a9.621 9.621 0 00-1.65 5.389v3.354c0 5.317 4.311 9.627 9.629 9.627h69.3v34.75c0 5.317 4.311 9.628 9.629 9.628h6.037c5.318 0 9.629-4.311 9.629-9.628v-34.75h18.544c5.318 0 9.629-4.31 9.629-9.627v-6.037c0-5.317-4.311-9.628-9.629-9.628h-18.544z" fill="#262830"/><defs><linearGradient id="paint0_linear" x1="233.244" y1="105.571" x2="95.153" y2="151.159" gradientUnits="userSpaceOnUse"><stop stop-color="#262830"/><stop offset="1" stop-color="#262830" stop-opacity="0"/></linearGradient></defs></svg>