<svg width="171" height="109" fill="none" xmlns="http://www.w3.org/2000/svg"><path d="M85.5 79.167L73.625 67.292h-7.917a11.875 11.875 0 01-11.875-11.875v-23.75a11.875 11.875 0 0111.875-11.875h39.584a11.876 11.876 0 0111.875 11.875v23.75a11.875 11.875 0 01-11.875 11.875h-7.917L85.5 79.167zM69.667 35.625h31.666" stroke="#4F525B" stroke-width="1.5" stroke-linecap="round" stroke-linejoin="round"/><path d="M69.667 51.458h23.75" stroke="#262830" stroke-width="1.5" stroke-linecap="round" stroke-linejoin="round"/><path d="M27 74.625l-9.258 4.868 1.768-10.31-7.489-7.3 10.35-1.504L27 51l4.629 9.38 10.35 1.502-7.49 7.301 1.769 10.31L27 74.625zM54 99.23l-6.686 3.515 1.277-7.446-5.41-5.273 7.476-1.085L54 82.167l3.343 6.774 7.475 1.085L59.41 95.3l1.277 7.446L54 99.229zm89-24.605l9.258 4.868-1.768-10.31 7.489-7.3-10.35-1.504L143 51l-4.629 9.38-10.35 1.502 7.49 7.301-1.769 10.31L143 74.625zM116 99.23l6.686 3.515-1.277-7.446 5.409-5.273-7.475-1.085L116 82.167l-3.343 6.774-7.475 1.085 5.409 5.273-1.277 7.446L116 99.229zm-30.5 5.864l-3.858 2.028.737-4.296-3.12-3.042 4.312-.626L85.5 95.25l1.929 3.908 4.312.626-3.12 3.042.737 4.296-3.858-2.028z" stroke="#4F525B" stroke-width="1.5" stroke-linecap="round" stroke-linejoin="round"/></svg>