<svg width="24" height="24" viewBox="0 0 24 24" fill="none" xmlns="http://www.w3.org/2000/svg">
<path fill-rule="evenodd" clip-rule="evenodd" d="M15.7722 8.05217C15.2962 6.63001 13.9282 6.43257 12.3109 6.65921L11.8447 4.64093L10.6168 4.92412L11.0707 6.88922C10.7482 6.96365 10.4195 7.0459 10.0926 7.12877L9.6361 5.15092L8.40877 5.4338L8.874 7.45178C8.60936 7.5186 8.34938 7.58382 8.09464 7.64246L8.09303 7.63624L6.39915 8.02705L6.7023 9.33867C6.7023 9.33867 7.60478 9.11184 7.59403 9.13218C8.09168 9.01779 8.32042 9.26874 8.42474 9.50724L8.95535 11.8055C8.98956 11.7974 9.03405 11.788 9.08761 11.7842C9.04592 11.7929 9.00269 11.8032 8.95728 11.8139L9.70086 15.0349C9.71485 15.1959 9.68014 15.4669 9.33273 15.5477C9.35181 15.5576 8.44007 15.7539 8.44007 15.7539L8.53451 17.2775L10.1323 16.9083C10.4296 16.8396 10.7239 16.7773 11.011 16.7131L11.483 18.7534L12.7097 18.4709L12.2438 16.4517C12.5819 16.3802 12.9089 16.3083 13.227 16.2345L13.6903 18.2441L14.9183 17.9609L14.4489 15.9239C16.4864 15.3283 17.8116 14.4748 17.543 12.4943C17.3274 10.8988 16.432 10.3721 15.1949 10.3613C15.8241 9.83431 16.1219 9.09299 15.7722 8.05217ZM15.0774 13.0272C15.4298 14.5522 12.7787 14.9811 11.9464 15.1738L11.3227 12.4703C12.1553 12.2783 14.7101 11.4363 15.0774 13.0272ZM13.5775 9.40698C13.8971 10.7939 11.6822 11.135 10.9892 11.2958L10.4228 8.84299C11.1164 8.68349 13.2431 7.96038 13.5775 9.40698Z" fill="#F7931A"/>
<path fill-rule="evenodd" clip-rule="evenodd" d="M0.858666 11.8053C0.751263 17.9584 5.65225 23.0335 11.8053 23.1409C17.9584 23.2483 23.0335 18.3473 23.1409 12.1943C23.2483 6.04119 18.3473 0.966068 12.1943 0.858666C6.04119 0.751263 0.966068 5.65225 0.858666 11.8053ZM12.1569 2.99777C17.1286 3.08455 21.0886 7.18524 21.0018 12.1569C20.915 17.1286 16.8143 21.0886 11.8427 21.0018C6.87098 20.915 2.91099 16.8143 2.99777 11.8427C3.08455 6.87098 7.18524 2.91099 12.1569 2.99777Z" fill="#F7931A"/>
</svg>
