<svg width="24" height="24" viewBox="0 0 24 24" fill="none" xmlns="http://www.w3.org/2000/svg">
<path fill-rule="evenodd" clip-rule="evenodd" d="M0.856934 11.5712C0.856934 17.4896 5.84626 22.2855 11.9998 22.2855C18.1533 22.2855 23.1426 17.4883 23.1426 11.5712C23.1426 5.65415 18.1535 0.856934 11.9998 0.856934C5.84537 0.856934 0.856934 5.65286 0.856934 11.5712ZM13.4051 12.9729V18.0787H10.664V12.9733C7.58412 12.8364 5.26641 12.2497 5.26641 11.5468C5.26641 10.844 7.58301 10.2572 10.664 10.1212V8.52859H6.87298V6.10009H17.1948V8.52859H13.4043V10.1225L13.4051 10.1229C16.4806 10.2594 18.7925 10.8457 18.7925 11.5479C18.7925 12.2501 16.4806 12.8364 13.4051 12.9729ZM12.0573 12.1275C12.9026 12.1275 13.3276 12.0937 13.4056 12.0868V10.3072C16.1222 10.4235 18.1493 10.8797 18.1493 11.4232C18.1493 11.9666 16.1213 12.423 13.4051 12.5392C13.3278 12.5439 12.9305 12.5668 12.0457 12.5668C11.3486 12.5668 10.8551 12.5481 10.6731 12.5412L10.6653 12.5409C7.94337 12.425 5.91158 11.9692 5.91158 11.4238C5.91158 10.8785 7.94359 10.4233 10.6653 10.3072V12.0868C10.8436 12.0986 11.3535 12.1275 12.0573 12.1275Z" fill="#53AE94"/>
</svg>
