<svg width="24" height="24" viewBox="0 0 24 24" fill="none" xmlns="http://www.w3.org/2000/svg">
<path d="M3.42954 11.4799C3.42954 10.1801 3.53855 9.3555 6.22962 7.34677C8.4572 5.68253 15.5993 0 15.5993 0V9.48614H21.0305V23.1429H5.1254C4.67588 23.1413 4.24522 22.9621 3.92736 22.6442C3.6095 22.3264 3.43025 21.8957 3.42871 21.4462L3.42954 11.4799Z" fill="#FFD000"/>
<path d="M15.5978 9.48779V14.9848L5.61816 21.784L18.2356 17.6783V9.48779H15.5978Z" fill="#D8B100"/>
<path d="M11.0389 9.20306C11.6214 8.50741 12.4751 8.26193 12.9428 8.65469C13.4104 9.04745 13.3172 9.93033 12.7339 10.6251C12.1506 11.32 11.2977 11.5663 10.83 11.1735C10.3624 10.7808 10.4556 9.89871 11.0389 9.20306Z" fill="#1D1D1B"/>
</svg>
