<svg width="20" height="20" viewBox="0 0 20 20" fill="none" xmlns="http://www.w3.org/2000/svg">
<path fill-rule="evenodd" clip-rule="evenodd" d="M13.1437 6.71032C12.7471 5.52519 11.607 5.36066 10.2593 5.54953L9.87083 3.86762L8.84753 4.10362L9.22581 5.7412C8.95703 5.80322 8.6831 5.87177 8.41073 5.94083L8.0303 4.29262L7.00752 4.52835L7.39522 6.21C7.17468 6.26568 6.95803 6.32004 6.74575 6.3689L6.74441 6.36372L5.33284 6.68939L5.58547 7.7824C5.58547 7.7824 6.33753 7.59338 6.32857 7.61033C6.74328 7.51501 6.93389 7.72413 7.02083 7.92288L7.46301 9.83806C7.49152 9.83136 7.52859 9.82354 7.57322 9.82035C7.53848 9.82762 7.50246 9.83621 7.46462 9.84506L8.08426 12.5293C8.09592 12.6634 8.067 12.8893 7.77749 12.9566C7.79339 12.9648 7.0336 13.1285 7.0336 13.1285L7.11231 14.3981L8.44378 14.0904C8.69157 14.0332 8.9368 13.9812 9.17605 13.9278L9.56934 15.6281L10.5916 15.3926L10.2034 13.7099C10.4852 13.6504 10.7576 13.5904 11.0228 13.5289L11.4088 15.2036L12.4321 14.9676L12.0409 13.2701C13.7389 12.7738 14.8432 12.0625 14.6194 10.4121C14.4397 9.08249 13.6935 8.64364 12.6627 8.63459C13.1869 8.19544 13.4351 7.57767 13.1437 6.71032ZM12.5647 10.8562C12.8584 12.127 10.6492 12.4845 9.95557 12.645L9.43578 10.3921C10.1296 10.2321 12.2586 9.53043 12.5647 10.8562ZM11.3148 7.83934C11.5811 8.99508 9.73535 9.27939 9.15787 9.41334L8.6859 7.36934C9.2639 7.23642 11.0361 6.63383 11.3148 7.83934Z" fill="#F7931A"/>
<path fill-rule="evenodd" clip-rule="evenodd" d="M0.715768 9.83795C0.626266 14.9655 4.71042 19.1948 9.83798 19.2843C14.9655 19.3738 19.1948 15.2896 19.2843 10.1621C19.3738 5.0345 15.2897 0.80524 10.1621 0.715738C5.03454 0.626236 0.80527 4.71039 0.715768 9.83795ZM10.131 2.49832C14.274 2.57064 17.574 5.98788 17.5017 10.131C17.4294 14.274 14.0122 17.574 9.8691 17.5017C5.72603 17.4294 2.42604 14.0121 2.49835 9.86907C2.57067 5.726 5.98792 2.42601 10.131 2.49832Z" fill="#F7931A"/>
</svg>
