<svg width="374" height="184" viewBox="0 0 374 184" fill="none" xmlns="http://www.w3.org/2000/svg">
<path opacity="0.2" fill-rule="evenodd" clip-rule="evenodd" d="M232.833 2.01454H12.5677C5.73701 2.01454 0.199219 7.64814 0.199219 14.5985C0.199219 21.5472 5.73701 27.1824 12.5677 27.1824H201.145C209.845 16.4598 220.643 7.81525 232.833 2.01454ZM185.505 54.224H29.9965C23.1644 54.224 17.6264 59.8591 17.6264 66.8079C17.6264 73.7582 23.1644 79.3919 29.9965 79.3919H179.178C180.274 70.5818 182.433 62.1398 185.505 54.224ZM179.178 106.364H65.0184C58.1862 106.364 52.6483 111.997 52.6483 118.948C52.6483 125.898 58.1862 131.532 65.0184 131.532H185.505C182.433 123.616 180.274 115.174 179.178 106.364ZM201.145 158.575H111.242C104.412 158.575 98.8736 164.208 98.8736 171.159C98.8736 178.108 104.412 183.743 111.242 183.743H232.833C220.643 177.942 209.845 169.297 201.145 158.575Z" fill="url(#paint0_linear)"/>
<path fill-rule="evenodd" clip-rule="evenodd" d="M361.166 66.6053C369.995 66.6053 376.4 58.0071 372.448 49.9737C357.868 20.3435 327.75 0 292.961 0C243.9 0 204.127 40.4595 204.127 90.3698C204.127 140.28 243.9 180.74 292.961 180.74C327.75 180.74 357.868 160.396 372.448 130.766C376.4 122.732 369.995 114.134 361.166 114.134C355.669 114.134 350.843 117.625 348.108 122.476C337.154 141.908 316.56 154.998 292.961 154.998C257.875 154.998 229.433 126.062 229.433 90.3698C229.433 54.6774 257.875 25.7435 292.961 25.7435C316.56 25.7435 337.154 38.8318 348.108 58.2639C350.843 63.1146 355.669 66.6053 361.166 66.6053Z" fill="#262830"/>
<path d="M292.961 127.249C312.983 127.249 329.213 110.737 329.213 90.3697C329.213 70.0021 312.983 53.4909 292.961 53.4909C272.94 53.4909 256.709 70.0021 256.709 90.3697C256.709 110.737 272.94 127.249 292.961 127.249Z" fill="#262830"/>
<path d="M284.297 50.6447C286.494 41.5857 299.381 41.5857 301.579 50.6447C301.909 52.0056 302.555 53.2694 303.465 54.3333C304.376 55.3972 305.525 56.231 306.818 56.767C308.112 57.303 309.514 57.5259 310.91 57.4176C312.306 57.3094 313.657 56.873 314.853 56.1441C322.813 51.2947 331.929 60.4053 327.079 68.3706C326.351 69.5657 325.916 70.9157 325.808 72.3108C325.7 73.706 325.922 75.1069 326.458 76.3998C326.993 77.6927 327.826 78.841 328.889 79.7514C329.951 80.6618 331.214 81.3086 332.573 81.6393C341.632 83.8369 341.632 96.7238 332.573 98.9215C331.212 99.2512 329.949 99.8977 328.885 100.808C327.821 101.719 326.987 102.867 326.451 104.161C325.915 105.455 325.692 106.857 325.8 108.253C325.909 109.649 326.345 111 327.074 112.195C331.923 120.155 322.813 129.271 314.847 124.422C313.652 123.694 312.302 123.258 310.907 123.15C309.512 123.042 308.111 123.265 306.818 123.8C305.525 124.336 304.377 125.169 303.467 126.231C302.556 127.294 301.909 128.556 301.579 129.916C299.381 138.975 286.494 138.975 284.297 129.916C283.967 128.555 283.32 127.291 282.41 126.227C281.499 125.164 280.351 124.33 279.057 123.794C277.763 123.258 276.361 123.035 274.965 123.143C273.569 123.251 272.218 123.688 271.023 124.417C263.063 129.266 253.947 120.155 258.796 112.19C259.524 110.995 259.96 109.645 260.068 108.25C260.176 106.855 259.953 105.454 259.418 104.161C258.882 102.868 258.05 101.72 256.987 100.809C255.924 99.899 254.662 99.2522 253.302 98.9215C244.243 96.7238 244.243 83.8369 253.302 81.6393C254.663 81.3095 255.927 80.6631 256.991 79.7526C258.055 78.8421 258.888 77.6933 259.424 76.3996C259.96 75.106 260.183 73.704 260.075 72.3079C259.967 70.9118 259.53 69.561 258.801 68.3655C253.952 60.4053 263.063 51.2896 271.028 56.1389C276.166 59.2755 282.873 56.5 284.297 50.6447Z" fill="#262830" stroke="#262830" stroke-width="1.5" stroke-linecap="round" stroke-linejoin="round"/>
<path d="M292.938 105.757C301.485 105.757 308.414 98.8279 308.414 90.2804C308.414 81.7329 301.485 74.8037 292.938 74.8037C284.39 74.8037 277.461 81.7329 277.461 90.2804C277.461 98.8279 284.39 105.757 292.938 105.757Z" fill="white" stroke="#262830" stroke-width="1.5" stroke-linecap="round" stroke-linejoin="round"/>
<defs>
<linearGradient id="paint0_linear" x1="232.893" y1="105.571" x2="94.8021" y2="151.159" gradientUnits="userSpaceOnUse">
<stop stop-color="#262830"/>
<stop offset="1" stop-color="#262830" stop-opacity="0"/>
</linearGradient>
</defs>
</svg>
