<svg width="21" height="20" viewBox="0 0 21 20" fill="none" xmlns="http://www.w3.org/2000/svg">
<path d="M9.8367 9.66667C11.7612 9.66667 13.3215 7.95044 13.3215 5.83336C13.3215 3.71622 12.8092 2 9.8367 2C6.86417 2 6.35181 3.71622 6.35181 5.83336C6.35181 7.95044 7.91209 9.66667 9.8367 9.66667Z" stroke="#262830" stroke-width="1.5" stroke-linecap="round" stroke-linejoin="round"/>
<path d="M11.7662 10C15.8884 10.6897 16.4271 11.7794 16.4925 15.6035L16.4997 16.1657C16.4997 16.1657 15.5182 18 9.83344 18C4.14858 18 3.16718 16.1657 3.16718 16.1657L3.17674 15.4792C3.25188 11.7557 3.82333 10.6822 7.90058 10C7.90058 10 8.48095 10.6855 9.83344 10.6855C11.1859 10.6855 11.7662 10 11.7662 10Z" stroke="#262830" stroke-width="1.5" stroke-linecap="round" stroke-linejoin="round"/>
</svg>
