<svg width="170" height="30" viewBox="0 0 170 30" fill="none" xmlns="http://www.w3.org/2000/svg">
<path fill-rule="evenodd" clip-rule="evenodd" d="M37.9774 0.328918H2.01915C0.904043 0.328918 0 1.24873 0 2.38352C0 3.51806 0.904043 4.43812 2.01915 4.43812H32.8044C34.2247 2.68743 35.9873 1.27601 37.9774 0.328918ZM30.2512 8.85325H4.86441C3.74905 8.85325 2.84499 9.77331 2.84499 10.9078C2.84499 12.0426 3.74905 12.9625 4.86441 12.9625H29.2182C29.3972 11.524 29.7496 10.1457 30.2512 8.85325ZM29.2182 17.3662H10.5817C9.46637 17.3662 8.5623 18.286 8.5623 19.4208C8.5623 20.5556 9.46637 21.4754 10.5817 21.4754H30.2512C29.7496 20.183 29.3972 18.8047 29.2182 17.3662ZM32.8044 25.8908H18.1277C17.0126 25.8908 16.1086 26.8106 16.1086 27.9454C16.1086 29.0799 17.0126 30 18.1277 30H37.9774C35.9873 29.0529 34.2247 27.6415 32.8044 25.8908Z" fill="url(#paint0_linear)"/>
<path fill-rule="evenodd" clip-rule="evenodd" d="M58.9281 10.8748C60.3695 10.8748 61.4151 9.47093 60.77 8.1593C58.3898 3.32152 53.473 0 47.7937 0C39.7846 0 33.2916 6.6059 33.2916 14.7548C33.2916 22.9038 39.7846 29.5097 47.7937 29.5097C53.473 29.5097 58.3898 26.1881 60.77 21.3504C61.4151 20.0387 60.3695 18.6349 58.9281 18.6349C58.0308 18.6349 57.2429 19.2048 56.7965 19.9968C55.0082 23.1695 51.6463 25.3067 47.7937 25.3067C42.0659 25.3067 37.4228 20.5824 37.4228 14.7548C37.4228 8.92727 42.0659 4.20318 47.7937 4.20318C51.6463 4.20318 55.0082 6.34014 56.7965 9.51286C57.2429 10.3048 58.0308 10.8748 58.9281 10.8748Z" fill="#262830"/>
<path d="M47.7937 20.7761C51.0622 20.7761 53.7118 18.0803 53.7118 14.7548C53.7118 11.4294 51.0622 8.73355 47.7937 8.73355C44.5252 8.73355 41.8755 11.4294 41.8755 14.7548C41.8755 18.0803 44.5252 20.7761 47.7937 20.7761Z" fill="#262830"/>
<path d="M70.6512 12.7396C70.6318 13.181 70.6222 13.593 70.6222 13.9757C70.6222 14.3582 70.6318 14.7702 70.6512 15.2118C70.68 16.026 70.9211 16.6882 71.3743 17.1982C71.8371 17.6987 72.4975 17.9488 73.3557 17.9488C73.8185 17.9488 74.2091 17.8899 74.5271 17.7722C74.8455 17.6544 75.1057 17.5024 75.3083 17.3159C75.5203 17.1295 75.6795 16.9188 75.7855 16.6833C75.9012 16.438 75.9881 16.1928 76.046 15.9475C76.0651 15.8396 76.1133 15.761 76.1905 15.712C76.2677 15.6531 76.3447 15.6238 76.4219 15.6238H77.0873C77.174 15.6238 77.2463 15.6582 77.3041 15.7267C77.3716 15.7855 77.4054 15.8593 77.4054 15.9475C77.3957 16.2713 77.3138 16.6245 77.1596 17.007C77.0054 17.3897 76.7643 17.7525 76.4363 18.096C76.1182 18.4295 75.7036 18.7092 75.1926 18.9348C74.6913 19.1603 74.079 19.273 73.3557 19.273C72.729 19.273 72.1698 19.175 71.6779 18.9787C71.1863 18.7728 70.7619 18.4932 70.4051 18.14C70.058 17.7868 69.7881 17.37 69.5952 16.8892C69.4025 16.3986 69.2965 15.8641 69.2771 15.2853C69.2481 14.4122 69.2481 13.5392 69.2771 12.6661C69.2965 12.0969 69.4025 11.5672 69.5952 11.0768C69.7881 10.5862 70.058 10.1644 70.4051 9.8112C70.7619 9.45803 71.1863 9.18342 71.6779 8.98713C72.1698 8.78124 72.729 8.67816 73.3557 8.67816C74.079 8.67816 74.6913 8.79084 75.1926 9.01669C75.7036 9.24228 76.1182 9.52673 76.4363 9.87005C76.7643 10.2035 77.0054 10.5617 77.1596 10.9442C77.3138 11.3269 77.3957 11.6801 77.4054 12.0037C77.4054 12.0921 77.3716 12.1705 77.3041 12.2392C77.2463 12.298 77.174 12.3276 77.0873 12.3276H76.4219C76.3447 12.3276 76.2677 12.3031 76.1905 12.2541C76.1133 12.1952 76.0651 12.1116 76.046 12.0037C75.9881 11.7584 75.9012 11.5182 75.7855 11.2827C75.6795 11.0374 75.5203 10.8217 75.3083 10.6353C75.1057 10.4488 74.8455 10.2967 74.5271 10.179C74.2091 10.0613 73.8185 10.0024 73.3557 10.0024C72.4975 10.0024 71.8371 10.2576 71.3743 10.7676C70.9211 11.2681 70.68 11.9254 70.6512 12.7396ZM81.3104 12.6661C81.3201 12.1166 81.4117 11.6015 81.5853 11.1208C81.7685 10.6305 82.0287 10.2086 82.3662 9.8554C82.7036 9.49238 83.1183 9.20792 83.6101 9.00178C84.1018 8.78603 84.6659 8.67816 85.3023 8.67816C85.9387 8.67816 86.5026 8.78603 86.9944 9.00178C87.4861 9.20792 87.9007 9.49238 88.2382 9.8554C88.5758 10.2086 88.8313 10.6305 89.0049 11.1208C89.1879 11.6015 89.2845 12.1166 89.2942 12.6661C89.323 13.5392 89.323 14.4122 89.2942 15.2853C89.2748 15.8348 89.1735 16.3547 88.9903 16.845C88.8167 17.3258 88.5612 17.7477 88.2238 18.1107C87.8863 18.4737 87.4717 18.7582 86.98 18.9641C86.4978 19.1702 85.9387 19.273 85.3023 19.273C84.6659 19.273 84.1018 19.1702 83.6101 18.9641C83.1279 18.7582 82.7183 18.4737 82.3806 18.1107C82.0431 17.7477 81.7829 17.3258 81.5997 16.845C81.4261 16.3547 81.3298 15.8348 81.3104 15.2853C81.2813 14.4122 81.2813 13.5392 81.3104 12.6661ZM87.9201 12.7396C87.9007 12.2786 87.8238 11.8761 87.6887 11.5328C87.5633 11.1895 87.385 10.9051 87.1536 10.6795C86.9222 10.4539 86.6473 10.2871 86.329 10.179C86.0206 10.0613 85.6782 10.0024 85.3023 10.0024C84.9261 10.0024 84.579 10.0613 84.2609 10.179C83.9523 10.2871 83.6824 10.4539 83.451 10.6795C83.2196 10.9051 83.0363 11.1895 82.9012 11.5328C82.7664 11.8761 82.6939 12.2786 82.6845 12.7396C82.6651 13.181 82.6554 13.593 82.6554 13.9757C82.6554 14.3582 82.6651 14.7702 82.6845 15.2118C82.6939 15.6729 82.7664 16.075 82.9012 16.4184C83.0363 16.7617 83.2196 17.0461 83.451 17.272C83.6824 17.4976 83.9523 17.6691 84.2609 17.7868C84.579 17.8947 84.9261 17.9488 85.3023 17.9488C85.6782 17.9488 86.0206 17.8947 86.329 17.7868C86.6473 17.6691 86.9222 17.4976 87.1536 17.272C87.385 17.0461 87.5633 16.7617 87.6887 16.4184C87.8238 16.075 87.9007 15.6729 87.9201 15.2118C87.9395 14.7702 87.9489 14.3582 87.9489 13.9757C87.9489 13.593 87.9395 13.181 87.9201 12.7396ZM94.1809 19.126C94.0747 19.126 93.9833 19.0868 93.9061 19.0083C93.8288 18.9297 93.7904 18.8365 93.7904 18.7286V9.22258C93.7904 9.11471 93.8288 9.02149 93.9061 8.94292C93.9833 8.86461 94.0747 8.8252 94.1809 8.8252H94.7739C94.8799 8.8252 94.9715 8.86461 95.0487 8.94292C95.1257 9.02149 95.1644 9.11471 95.1644 9.22258V18.7286C95.1644 18.8365 95.1257 18.9297 95.0487 19.0083C94.9715 19.0868 94.8799 19.126 94.7739 19.126H94.1809ZM106.686 19.126C106.55 19.126 106.436 19.0818 106.339 18.9936C106.252 18.8953 106.175 18.7925 106.108 18.6844L101.408 11.4889V18.7286C101.408 18.8365 101.368 18.9297 101.291 19.0083C101.214 19.0868 101.122 19.126 101.015 19.126H100.424C100.318 19.126 100.226 19.0868 100.149 19.0083C100.072 18.9297 100.032 18.8365 100.032 18.7286V9.22258C100.032 9.11471 100.072 9.02149 100.149 8.94292C100.226 8.86461 100.318 8.8252 100.424 8.8252H100.928C101.065 8.8252 101.174 8.87446 101.261 8.97248C101.358 9.06065 101.44 9.15891 101.507 9.26678L106.207 16.4626V9.22258C106.207 9.11471 106.247 9.02149 106.324 8.94292C106.401 8.86461 106.493 8.8252 106.6 8.8252H107.193C107.297 8.8252 107.389 8.86461 107.466 8.94292C107.543 9.02149 107.583 9.11471 107.583 9.22258V18.7286C107.583 18.8365 107.543 18.9297 107.466 19.0083C107.389 19.0868 107.297 19.126 107.193 19.126H106.686ZM115.571 8.67816C116.159 8.67816 116.676 8.77138 117.117 8.95782C117.572 9.144 117.952 9.37465 118.262 9.64925C118.58 9.91426 118.821 10.2035 118.985 10.5175C119.149 10.8217 119.235 11.0963 119.245 11.3416C119.255 11.43 119.226 11.5083 119.158 11.577C119.091 11.6359 119.014 11.6655 118.928 11.6655H118.334C118.227 11.6655 118.14 11.6458 118.073 11.6066C118.016 11.5672 117.952 11.479 117.885 11.3416C117.838 11.2436 117.756 11.1208 117.639 10.9738C117.532 10.8166 117.383 10.6696 117.192 10.5322C117.008 10.3851 116.782 10.2624 116.512 10.1644C116.241 10.0565 115.928 10.0024 115.571 10.0024C115.3 10.0024 115.042 10.0368 114.791 10.1055C114.55 10.1644 114.332 10.2576 114.14 10.3852C113.947 10.5127 113.793 10.6744 113.676 10.8707C113.562 11.0571 113.502 11.2779 113.502 11.5328C113.502 11.788 113.557 12.0037 113.661 12.1803C113.778 12.3569 113.957 12.5188 114.197 12.6661C114.448 12.8033 114.761 12.9309 115.136 13.0486C115.513 13.1663 115.97 13.2987 116.512 13.446C117.06 13.593 117.525 13.7549 117.9 13.9315C118.284 14.1081 118.6 14.3092 118.841 14.5348C119.082 14.7505 119.255 15.0057 119.36 15.3C119.476 15.5844 119.533 15.9083 119.533 16.2713C119.533 16.7127 119.437 17.1199 119.245 17.4925C119.062 17.8555 118.801 18.1695 118.463 18.4343C118.126 18.6993 117.716 18.9052 117.234 19.0525C116.762 19.1995 116.231 19.273 115.643 19.273C115.084 19.273 114.567 19.1897 114.096 19.0229C113.624 18.8562 113.219 18.6404 112.882 18.3754C112.544 18.1107 112.273 17.8164 112.072 17.4925C111.878 17.1689 111.777 16.8501 111.767 16.5361C111.767 16.4479 111.796 16.3741 111.854 16.3153C111.921 16.2468 111.998 16.2125 112.084 16.2125H112.678C112.775 16.2125 112.857 16.2319 112.924 16.2713C113.001 16.3105 113.068 16.3987 113.127 16.5361C113.184 16.6735 113.271 16.8256 113.388 16.9923C113.512 17.1492 113.676 17.3013 113.88 17.4486C114.081 17.5857 114.327 17.7034 114.617 17.8017C114.905 17.8997 115.248 17.9488 115.643 17.9488C115.98 17.9488 116.298 17.9096 116.599 17.831C116.906 17.7525 117.177 17.6398 117.408 17.4925C117.639 17.3455 117.823 17.1689 117.957 16.9628C118.093 16.7569 118.16 16.5262 118.16 16.2713C118.16 16.0162 118.083 15.8004 117.929 15.6238C117.775 15.4374 117.552 15.2707 117.264 15.1234C116.973 14.9764 116.618 14.8437 116.194 14.726C115.779 14.5987 115.305 14.4661 114.776 14.3289C114.294 14.2013 113.885 14.0492 113.547 13.8726C113.209 13.6862 112.934 13.4753 112.723 13.2398C112.509 13.0044 112.355 12.7444 112.258 12.46C112.171 12.1755 112.129 11.8665 112.129 11.5328C112.129 11.1698 112.201 10.8166 112.345 10.4733C112.489 10.13 112.703 9.82584 112.983 9.56109C113.271 9.29608 113.629 9.08514 114.053 8.92826C114.486 8.76153 114.992 8.67816 115.571 8.67816ZM129.925 8.8252C130.029 8.8252 130.121 8.86461 130.198 8.94292C130.275 9.02149 130.315 9.11471 130.315 9.22258V9.75233C130.315 9.8602 130.275 9.95342 130.198 10.032C130.121 10.1105 130.029 10.1497 129.925 10.1497H127.218V18.7286C127.218 18.8365 127.181 18.9297 127.104 19.0083C127.027 19.0868 126.935 19.126 126.828 19.126H126.235C126.131 19.126 126.039 19.0868 125.962 19.0083C125.885 18.9297 125.845 18.8365 125.845 18.7286V10.1497H123.141C123.034 10.1497 122.943 10.1105 122.866 10.032C122.789 9.95342 122.751 9.8602 122.751 9.75233V9.22258C122.751 9.11471 122.789 9.02149 122.866 8.94292C122.943 8.86461 123.034 8.8252 123.141 8.8252H129.925ZM138.173 8.8252C138.645 8.8252 139.089 8.88405 139.504 9.00178C139.929 9.1195 140.299 9.30114 140.616 9.54644C140.934 9.79148 141.185 10.1055 141.369 10.4882C141.562 10.8707 141.659 11.3317 141.659 11.8713C141.659 12.6659 141.461 13.2987 141.066 13.7696C140.681 14.2405 140.184 14.5742 139.576 14.7702L141.759 18.6404C141.788 18.6993 141.803 18.7531 141.803 18.8021C141.803 18.8905 141.768 18.9691 141.701 19.0376C141.644 19.0964 141.572 19.126 141.485 19.126H140.862C140.671 19.126 140.525 19.077 140.43 18.9787C140.343 18.8807 140.279 18.7973 140.241 18.7286L138.143 14.9764H135.655V18.7286C135.655 18.8365 135.618 18.9297 135.541 19.0083C135.464 19.0868 135.372 19.126 135.266 19.126H134.672C134.568 19.126 134.476 19.0868 134.399 19.0083C134.32 18.9297 134.282 18.8365 134.282 18.7286V9.22258C134.282 9.11471 134.32 9.02149 134.399 8.94292C134.476 8.86461 134.568 8.8252 134.672 8.8252H138.173ZM135.655 13.6518H138.101C138.794 13.6518 139.33 13.5147 139.705 13.2398C140.092 12.9554 140.284 12.4991 140.284 11.8713C140.284 11.2436 140.092 10.802 139.705 10.5471C139.33 10.2821 138.794 10.1497 138.101 10.1497H135.655V13.6518ZM146.481 19.126C146.374 19.126 146.283 19.0868 146.206 19.0083C146.129 18.9297 146.089 18.8365 146.089 18.7286V9.22258C146.089 9.11471 146.129 9.02149 146.206 8.94292C146.283 8.86461 146.374 8.8252 146.481 8.8252H147.072C147.179 8.8252 147.271 8.86461 147.348 8.94292C147.425 9.02149 147.464 9.11471 147.464 9.22258V18.7286C147.464 18.8365 147.425 18.9297 147.348 19.0083C147.271 19.0868 147.179 19.126 147.072 19.126H146.481ZM154.459 13.7549L159.39 18.5374C159.447 18.5962 159.487 18.6503 159.504 18.6993C159.524 18.7385 159.534 18.7728 159.534 18.8021C159.534 18.8905 159.502 18.9691 159.432 19.0376C159.375 19.0964 159.303 19.126 159.216 19.126H158.32C158.183 19.126 158.074 19.1015 157.987 19.0525C157.9 18.9936 157.838 18.9446 157.799 18.9052L153.707 14.9322V18.7286C153.707 18.8365 153.667 18.9297 153.59 19.0083C153.513 19.0868 153.421 19.126 153.314 19.126H152.723C152.617 19.126 152.525 19.0868 152.448 19.0083C152.371 18.9297 152.331 18.8365 152.331 18.7286V9.22258C152.331 9.11471 152.371 9.02149 152.448 8.94292C152.525 8.86461 152.617 8.8252 152.723 8.8252H153.314C153.421 8.8252 153.513 8.86461 153.59 8.94292C153.667 9.02149 153.707 9.11471 153.707 9.22258V12.6512L157.568 9.04598C157.605 9.00683 157.67 8.96262 157.756 8.91361C157.843 8.85475 157.953 8.8252 158.089 8.8252H158.926C159.013 8.8252 159.087 8.85954 159.144 8.92826C159.211 8.98712 159.246 9.06064 159.246 9.14906C159.246 9.17836 159.236 9.21777 159.216 9.26678C159.197 9.30594 159.159 9.35494 159.1 9.4138L154.459 13.7549ZM169.61 17.8017C169.717 17.8017 169.809 17.8409 169.886 17.9194C169.963 17.9978 170 18.091 170 18.1989V18.7286C170 18.8365 169.963 18.9297 169.886 19.0083C169.809 19.0868 169.717 19.126 169.61 19.126H163.768C163.661 19.126 163.569 19.0868 163.492 19.0083C163.415 18.9297 163.375 18.8365 163.375 18.7286V9.22258C163.375 9.11471 163.415 9.02149 163.492 8.94292C163.569 8.86461 163.661 8.8252 163.768 8.8252H169.493C169.6 8.8252 169.692 8.86461 169.769 8.94292C169.846 9.02149 169.886 9.11471 169.886 9.22258V9.75233C169.886 9.8602 169.846 9.95342 169.769 10.032C169.692 10.1105 169.6 10.1497 169.493 10.1497H164.751V13.2545H169.176C169.282 13.2545 169.374 13.2939 169.451 13.3722C169.528 13.4508 169.565 13.544 169.565 13.6518V14.1816C169.565 14.2895 169.528 14.3827 169.451 14.4613C169.374 14.5398 169.282 14.579 169.176 14.579H164.751V17.8017H169.61Z" fill="#262830"/>
<defs>
<linearGradient id="paint0_linear" x1="30.6842" y1="16.0528" x2="15.4239" y2="24.7876" gradientUnits="userSpaceOnUse">
<stop stop-color="#262830"/>
<stop offset="1" stop-color="#262830" stop-opacity="0"/>
</linearGradient>
</defs>
</svg>
