<svg width="33" height="33" fill="none" xmlns="http://www.w3.org/2000/svg"><path fill-rule="evenodd" clip-rule="evenodd" d="M21.53 11.236c-.635-1.896-2.459-2.159-4.615-1.857l-.622-2.69-1.637.377.605 2.62c-.43.1-.868.209-1.304.32l-.609-2.638-1.636.377.62 2.691c-.353.09-.7.176-1.039.254l-.002-.008-2.259.521.405 1.749s1.203-.303 1.189-.275c.663-.153.968.182 1.107.5l.708 3.064c.045-.01.105-.023.176-.029l-.174.04.992 4.295c.018.214-.028.576-.491.684.025.013-1.19.274-1.19.274l.126 2.032 2.13-.492c.396-.092.789-.175 1.172-.26l.629 2.72 1.636-.377-.622-2.692c.451-.095.887-.191 1.311-.29l.618 2.68 1.637-.378-.626-2.716c2.717-.794 4.484-1.932 4.126-4.573-.288-2.127-1.481-2.83-3.13-2.844.838-.702 1.235-1.69.769-3.079zm-.927 6.634c.47 2.033-3.064 2.605-4.174 2.862l-.832-3.605c1.11-.256 4.517-1.378 5.006.743zm-2-4.827c.427 1.85-2.527 2.304-3.45 2.518l-.756-3.27c.925-.213 3.76-1.177 4.207.752z" fill="#F7931A"/><path fill-rule="evenodd" clip-rule="evenodd" d="M1.645 16.24c-.143 8.205 6.392 14.972 14.596 15.115 8.204.143 14.97-6.392 15.114-14.596.143-8.204-6.392-14.97-14.596-15.114C8.555 1.502 1.79 8.037 1.645 16.241zM16.71 4.498c6.63.116 11.91 5.584 11.794 12.212-.116 6.63-5.584 11.91-12.212 11.794-6.63-.116-11.91-5.584-11.794-12.212.116-6.63 5.584-11.91 12.212-11.794z" fill="#F7931A"/></svg>5.1525 15.5613L14.3973 12.2909C15.3221 12.0783 18.1577 11.1141 18.6035 13.0429Z" fill="#F7931A"/>
<path fill-rule="evenodd" clip-rule="evenodd" d="M1.64513 16.2407C1.50193 24.4448 8.03657 31.2116 16.2407 31.3548C24.4448 31.498 31.2116 24.9634 31.3548 16.7593C31.498 8.55519 24.9634 1.78837 16.7593 1.64516C8.55516 1.50196 1.78833 8.03661 1.64513 16.2407ZM16.7095 4.4973C23.3384 4.61301 28.6184 10.0806 28.5027 16.7095C28.387 23.3384 22.9194 28.6184 16.2905 28.5027C9.66155 28.387 4.38156 22.9194 4.49727 16.2905C4.61298 9.66158 10.0806 4.38159 16.7095 4.4973Z" fill="#F7931A"/>
</svg>
