<svg width="33" height="33" fill="none" xmlns="http://www.w3.org/2000/svg"><path d="M31.357 16.447c0 8.184-6.673 14.857-14.857 14.857S1.643 24.63 1.643 16.447c0-.315 0-.693.063-1.007l9.002 5.162L29.72 9.71c1.008 2.014 1.637 4.344 1.637 6.736zm-20.649.44l-8.373-4.784a6.897 6.897 0 00-.377 1.637l8.75 5.036 18.194-10.45-.944-1.322-17.25 9.883zm16.116-11.08c-.44-.377-.818-.755-1.322-1.133l-14.794 8.5L3.594 9.08c-.251.44-.503.944-.755 1.448L10.645 15l16.18-9.191zm-16.116 5.477l13.283-7.617c-.566-.315-1.133-.63-1.762-.881l-11.52 6.673L5.545 6.5c-.378.378-.693.818-1.007 1.26l6.17 3.524z" fill="#00A10B"/></svg>2C3.34258 9.5218 3.09076 10.0254 2.83895 10.5291L10.6452 14.9988L26.8244 5.80751ZM10.7082 11.2845L23.9915 3.66708C23.4249 3.35231 22.8583 3.03754 22.2288 2.78572L10.7082 9.45884L5.54597 6.50001C5.16825 6.87773 4.85348 7.31841 4.53871 7.75909L10.7082 11.2845Z" fill="#00A10B"/>
</svg>
