<svg width="16" height="16" viewBox="0 0 16 16" fill="none" xmlns="http://www.w3.org/2000/svg">
<path fill-rule="evenodd" clip-rule="evenodd" d="M10.8528 14.0989C12.1619 14.0989 13.5823 14.5498 15.1544 15.949C15.3119 16.0891 15.5215 15.915 15.3841 15.7408C13.8391 13.7814 12.4102 13.4084 10.9851 13.0929C9.24208 12.7071 8.34545 11.7219 7.72054 10.6401C7.59619 10.4249 7.54042 10.4629 7.52931 10.7395C7.51561 11.0778 7.53883 11.5255 7.61416 11.966C7.55631 11.9687 7.49813 11.9686 7.43973 11.9685L7.40208 11.9684C4.9083 11.9684 2.88669 9.93782 2.88669 7.43282C2.88669 4.92781 4.9083 2.89711 7.40208 2.89711C9.89577 2.89711 11.9174 4.92781 11.9174 7.43282C11.9174 7.61105 11.9087 7.7872 11.8888 7.96005C11.5589 7.90034 10.9101 7.89356 10.4548 7.93314C10.2835 7.94799 10.3076 8.02814 10.4371 8.05167C11.9297 8.32261 12.9552 9.25178 13.1896 10.938C13.195 10.9766 13.2455 10.9883 13.2655 10.9548C13.8797 9.92526 14.2325 8.72036 14.2325 7.43282C14.2325 3.64345 11.1745 0.571533 7.40208 0.571533C3.62969 0.571533 0.571533 3.64345 0.571533 7.43282C0.571533 11.2222 3.62969 14.2944 7.40208 14.2944C7.85564 14.2944 8.30755 14.2542 8.80177 14.2103C9.39811 14.1574 10.056 14.0989 10.8528 14.0989ZM11.3609 11.6077C11.6646 11.8658 11.7571 12.1726 11.5964 12.389C11.507 12.5077 11.3621 12.5731 11.1885 12.5731C11.018 12.5731 10.8442 12.5097 10.7237 12.404C10.4474 12.1615 10.3662 11.7682 10.5466 11.5448C10.6171 11.4575 10.7316 11.4093 10.8688 11.4093C11.0358 11.4093 11.2104 11.4799 11.3609 11.6077ZM12.2311 11.0152C12.3846 11.2556 12.5147 11.3775 12.6183 11.3775C12.7133 11.3775 12.8079 11.253 12.7632 10.9523C12.7366 10.7727 12.6371 10.383 12.3836 10.2868C12.2528 10.237 12.1489 10.2766 12.0993 10.3677C12.0243 10.5054 12.0797 10.7777 12.2311 11.0152Z" fill="#E9832C"/>
</svg>
