<svg width="57" height="56" viewBox="0 0 57 56" fill="none" xmlns="http://www.w3.org/2000/svg">
<path d="M21.25 35L35.25 21" stroke="#4F525B" stroke-width="1.5" stroke-linecap="round" stroke-linejoin="round"/>
<path d="M22.4167 23.3333C23.061 23.3333 23.5833 22.811 23.5833 22.1667C23.5833 21.5223 23.061 21 22.4167 21C21.7723 21 21.25 21.5223 21.25 22.1667C21.25 22.811 21.7723 23.3333 22.4167 23.3333Z" stroke="#4F525B" stroke-width="1.5" stroke-linecap="round" stroke-linejoin="round"/>
<path d="M11.9168 16.7999C11.9168 15.4384 12.4576 14.1327 13.4203 13.17C14.383 12.2074 15.6887 11.6665 17.0501 11.6665H19.3834C20.7389 11.6657 22.039 11.1289 23.0001 10.1732L24.6334 8.53986C25.1105 8.06012 25.6776 7.67942 26.3023 7.41964C26.927 7.15986 27.5969 7.02612 28.2734 7.02612C28.95 7.02612 29.6199 7.15986 30.2445 7.41964C30.8692 7.67942 31.4364 8.06012 31.9134 8.53986L33.5468 10.1732C34.5079 11.1289 35.808 11.6657 37.1634 11.6665H39.4968C40.8582 11.6665 42.1639 12.2074 43.1266 13.17C44.0893 14.1327 44.6301 15.4384 44.6301 16.7999V19.1332C44.6309 20.4886 45.1677 21.7887 46.1234 22.7499L47.7568 24.3832C48.2365 24.8602 48.6172 25.4274 48.877 26.0521C49.1368 26.6768 49.2705 27.3466 49.2705 28.0232C49.2705 28.6997 49.1368 29.3696 48.877 29.9943C48.6172 30.619 48.2365 31.1861 47.7568 31.6632L46.1234 33.2965C45.1677 34.2576 44.6309 35.5578 44.6301 36.9132V39.2465C44.6301 40.608 44.0893 41.9137 43.1266 42.8763C42.1639 43.839 40.8582 44.3799 39.4968 44.3799H37.1634C35.808 44.3806 34.5079 44.9175 33.5468 45.8732L31.9134 47.5065C31.4364 47.9863 30.8692 48.367 30.2445 48.6267C29.6199 48.8865 28.95 49.0203 28.2734 49.0203C27.5969 49.0203 26.927 48.8865 26.3023 48.6267C25.6776 48.367 25.1105 47.9863 24.6334 47.5065L23.0001 45.8732C22.039 44.9175 20.7389 44.3806 19.3834 44.3799H17.0501C15.6887 44.3799 14.383 43.839 13.4203 42.8763C12.4576 41.9137 11.9168 40.608 11.9168 39.2465V36.9132C11.916 35.5578 11.3792 34.2576 10.4234 33.2965L8.7901 31.6632C8.31037 31.1861 7.92966 30.619 7.66988 29.9943C7.4101 29.3696 7.27637 28.6997 7.27637 28.0232C7.27637 27.3466 7.4101 26.6768 7.66988 26.0521C7.92966 25.4274 8.31037 24.8602 8.7901 24.3832L10.4234 22.7499C11.3792 21.7887 11.916 20.4886 11.9168 19.1332V16.7999" stroke="#4F525B" stroke-width="1.5" stroke-linecap="round" stroke-linejoin="round"/>
<path d="M34.0837 35.0001C34.728 35.0001 35.2503 34.4777 35.2503 33.8334C35.2503 33.1891 34.728 32.6667 34.0837 32.6667C33.4393 32.6667 32.917 33.1891 32.917 33.8334C32.917 34.4777 33.4393 35.0001 34.0837 35.0001Z" stroke="#4F525B" stroke-width="1.5" stroke-linecap="round" stroke-linejoin="round"/>
</svg>
