<svg width="57" height="56" viewBox="0 0 57 56" fill="none" xmlns="http://www.w3.org/2000/svg">
<path d="M19.4167 28H10.0833C8.79467 28 7.75 29.0447 7.75 30.3333V44.3333C7.75 45.622 8.79467 46.6667 10.0833 46.6667H19.4167C20.7053 46.6667 21.75 45.622 21.75 44.3333V30.3333C21.75 29.0447 20.7053 28 19.4167 28Z" stroke="#4F525B" stroke-width="1.5" stroke-linecap="round" stroke-linejoin="round"/>
<path d="M33.4167 18.6667H24.0833C22.7947 18.6667 21.75 19.7114 21.75 21.0001V44.3334C21.75 45.6221 22.7947 46.6667 24.0833 46.6667H33.4167C34.7053 46.6667 35.75 45.6221 35.75 44.3334V21.0001C35.75 19.7114 34.7053 18.6667 33.4167 18.6667Z" stroke="#4F525B" stroke-width="1.5" stroke-linecap="round" stroke-linejoin="round"/>
<path d="M47.4167 9.33325H38.0833C36.7947 9.33325 35.75 10.3779 35.75 11.6666V44.3332C35.75 45.6219 36.7947 46.6666 38.0833 46.6666H47.4167C48.7053 46.6666 49.75 45.6219 49.75 44.3332V11.6666C49.75 10.3779 48.7053 9.33325 47.4167 9.33325Z" stroke="#4F525B" stroke-width="1.5" stroke-linecap="round" stroke-linejoin="round"/>
<path d="M10.083 46.6667H42.7497" stroke="#4F525B" stroke-width="1.5" stroke-linecap="round" stroke-linejoin="round"/>
</svg>
