<svg width="25" height="20" fill="none" xmlns="http://www.w3.org/2000/svg"><path d="M9.307.884a.775.775 0 011.388 0l2.49 5.046c.113.228.33.387.583.423l5.569.81a.773.773 0 01.429 1.32l-4.03 3.928a.775.775 0 00-.222.685l.95 5.546a.775.775 0 01-1.123.817L10.36 16.84a.774.774 0 00-.72 0l-4.982 2.619a.776.776 0 01-1.123-.817l.95-5.546a.774.774 0 00-.222-.685L.233 8.483a.774.774 0 01.43-1.32l5.57-.81a.774.774 0 00.582-.423L9.307.884z" fill="#D2D3D6"/></svg>.0958L16.4645 18.6422C16.5137 18.933 16.3951 19.2264 16.156 19.3999C15.9174 19.5725 15.602 19.5953 15.3406 19.459L10.3598 16.84C10.1345 16.7214 9.86488 16.7214 9.63923 16.84L4.65843 19.4585C4.39783 19.5953 4.08156 19.5729 3.84297 19.3999C3.60437 19.2269 3.48528 18.933 3.5349 18.6422L4.48585 13.0958C4.52899 12.8447 4.44529 12.5884 4.26278 12.4106L0.233784 8.48258C0.0227994 8.27677 -0.053138 7.96914 0.0379005 7.68912C0.128939 7.4091 0.370989 7.20459 0.663089 7.16231L6.2324 6.35331C6.48438 6.31664 6.7027 6.15829 6.81531 5.92962L9.30657 0.884099Z" fill="#D2D3D6"/>
</svg>
