<svg width="125" height="24" viewBox="0 0 125 24" fill="none" xmlns="http://www.w3.org/2000/svg">
<rect width="125" height="21.6717" transform="translate(0 1.29224)" fill="white"/>
<path fill-rule="evenodd" clip-rule="evenodd" d="M0 7.19988C0 3.7167 3.00571 0.937988 6.67935 0.937988H19.1614C19.7876 0.937988 20.3303 1.40763 20.3303 2.03382C20.3303 2.66001 19.8293 3.12965 19.1614 3.12965H6.67935C4.25808 3.12965 2.29603 4.96908 2.29603 7.23901V16.7884C2.29603 19.0583 4.25808 20.8978 6.67935 20.8978H16.8654C19.2866 20.8978 21.2487 19.0583 21.2487 16.7884V7.63038H7.1803C6.55411 7.63038 6.01141 7.16074 6.01141 6.53455C6.01141 5.90836 6.51236 5.43872 7.1803 5.43872H21.2904C22.5428 5.43872 23.5447 6.378 23.5447 7.55211V16.7493C23.5447 20.2324 20.539 23.0111 16.8654 23.0111H6.67935C2.96396 23.0111 0 20.1933 0 16.7493V7.19988Z" fill="#FF3B30"/>
<path d="M32.103 5.28296C31.769 5.28296 31.4768 5.40037 31.3098 5.59605C31.1011 5.79174 31.0176 6.02656 31.0176 6.33965V19.2548C31.0176 19.5679 31.1011 19.8418 31.3098 20.0375C31.5185 20.2332 31.769 20.3115 32.103 20.3115C32.4369 20.3115 32.7292 20.2332 32.9379 20.0375C33.1466 19.8418 33.2301 19.5679 33.2301 19.2548V6.33965C33.2301 6.02656 33.1466 5.7526 32.9379 5.59605C32.7292 5.40037 32.4369 5.28296 32.103 5.28296Z" fill="black"/>
<path d="M42.79 9.62646C41.9551 9.62646 41.2037 9.78301 40.5357 10.1352C40.0765 10.3701 39.7008 10.644 39.4086 11.0354V10.6832C39.4086 10.4092 39.3251 10.1352 39.1164 9.9787C38.9076 9.78301 38.6572 9.70474 38.3232 9.70474C37.9892 9.70474 37.697 9.78301 37.53 9.9787C37.363 10.1744 37.2378 10.4092 37.2378 10.7223V19.3324C37.2378 19.6455 37.3213 19.9194 37.53 20.1151C37.7387 20.2717 37.9892 20.3891 38.3232 20.3891C38.6572 20.3891 38.9076 20.3108 39.1164 20.1151C39.3251 19.9194 39.4086 19.6846 39.4086 19.3715V14.3229C39.4086 13.4227 39.7008 12.7183 40.2018 12.2095C40.7445 11.7007 41.4541 11.4268 42.3725 11.4268C43.1657 11.4268 43.7084 11.6224 44.0424 11.9747C44.4181 12.366 44.5851 12.9922 44.5851 13.8532V19.3324C44.5851 19.6455 44.6686 19.9194 44.8773 20.1151C45.086 20.2717 45.3365 20.3891 45.6705 20.3891C46.0044 20.3891 46.2549 20.3108 46.4636 20.1151C46.6724 19.9194 46.7559 19.6846 46.7559 19.3715V13.775C46.8394 11.0354 45.4617 9.62646 42.79 9.62646Z" fill="black"/>
<path d="M59.1543 9.66548C58.7368 9.66548 58.4029 9.86117 58.1941 10.2917L54.7292 17.532L51.2643 10.2525C51.1808 10.0568 51.0138 9.9003 50.8468 9.82203C50.4294 9.54807 49.9284 9.62634 49.511 9.93944C49.2605 10.1351 49.1353 10.3699 49.1353 10.6439C49.1353 10.8004 49.177 10.9179 49.2605 11.0353L53.5186 19.6454C53.6438 19.8411 53.8108 20.0367 54.0195 20.1541C54.2283 20.2716 54.437 20.3107 54.6875 20.3107C54.9379 20.3107 55.1467 20.2716 55.3971 20.115C55.6059 19.9976 55.7729 19.8019 55.8563 19.6062L60.1144 11.0353C60.1979 10.9179 60.2397 10.7613 60.2397 10.6048C60.2397 10.3308 60.1144 10.096 59.9057 9.93944C59.6552 9.78289 59.4047 9.66548 59.1543 9.66548Z" fill="black"/>
<path d="M71.5947 15.2622C71.7617 15.1056 71.8452 14.8708 71.8452 14.5186C71.8452 13.0314 71.4277 11.8181 70.5511 10.9571C69.7161 10.057 68.5473 9.62646 67.0862 9.62646C66.0843 9.62646 65.1658 9.86129 64.3309 10.3309C63.5378 10.8006 62.9116 11.4268 62.4941 12.2486C62.0766 13.0705 61.8262 14.0098 61.8262 15.0273C61.8262 16.6711 62.3271 18.0017 63.329 18.9802C64.3309 19.9194 65.7085 20.4282 67.3784 20.4282C67.9628 20.4282 68.5473 20.3499 69.1317 20.2325C69.7162 20.076 70.3006 19.8412 70.8433 19.5672C71.4277 19.2541 71.72 18.8628 71.72 18.4322C71.72 18.1974 71.6365 18.0017 71.4695 17.8061C71.3025 17.6495 71.0938 17.5712 70.885 17.5712C70.7598 17.5712 70.5511 17.6104 70.0084 17.9235C69.5492 18.1583 69.1317 18.354 68.7142 18.5105C68.3385 18.6279 67.8793 18.7062 67.3366 18.7062C65.2911 18.7062 64.2057 17.6886 63.997 15.5753H70.8015C71.1773 15.5361 71.4277 15.4187 71.5947 15.2622ZM69.8414 14.0489H64.1222C64.2474 13.2271 64.5397 12.5617 64.9989 12.0921C65.5416 11.5833 66.2095 11.3485 67.0862 11.3485C67.9628 11.3485 68.589 11.5833 69.0482 12.0921C69.5074 12.5226 69.7579 13.1879 69.8414 14.0489Z" fill="black"/>
<path d="M81.4464 14.8706C80.9037 14.6358 80.1105 14.401 79.1086 14.1662C78.4407 14.0488 77.9398 13.8922 77.6058 13.7748C77.2718 13.6574 77.0631 13.5008 76.9379 13.3443C76.8126 13.1877 76.7709 12.9921 76.7709 12.7181C76.7709 12.2876 76.9379 11.9745 77.2718 11.7397C77.6475 11.4657 78.1902 11.3483 78.8164 11.3483C79.3174 11.3483 79.7348 11.4266 80.1105 11.544C80.4445 11.6614 80.8202 11.8571 81.2377 12.0919C81.6134 12.3659 81.9056 12.4833 82.1561 12.4833C82.3648 12.4833 82.5736 12.405 82.7405 12.2485C82.9075 12.0919 82.991 11.8962 82.991 11.6614C82.991 11.2309 82.6988 10.8395 82.1561 10.4482C81.7386 10.1742 81.2377 9.97853 80.695 9.82198C80.1523 9.66543 79.5678 9.58716 78.9834 9.58716C78.1902 9.58716 77.4388 9.70457 76.7709 9.97853C76.1447 10.2525 75.602 10.6439 75.2263 11.1135C74.8506 11.5831 74.6418 12.1702 74.6418 12.7964C74.6418 13.6182 74.934 14.2444 75.5602 14.7532C76.1447 15.2229 77.0631 15.5751 78.399 15.849C79.1504 16.0056 79.6931 16.1621 80.1105 16.2796C80.4445 16.397 80.695 16.5535 80.862 16.7101C80.9872 16.8666 81.0707 17.0232 81.0707 17.2971C81.0707 17.7276 80.9037 18.0407 80.528 18.2364C80.1105 18.4712 79.5678 18.5886 78.8164 18.5886C78.1902 18.5886 77.6893 18.5103 77.2718 18.3929C76.8544 18.2364 76.4369 18.0407 76.0194 17.8059C75.6437 17.5711 75.3515 17.4537 75.1428 17.4537C74.8923 17.4537 74.6836 17.5319 74.5583 17.7276C74.4331 17.8842 74.3496 18.0798 74.3496 18.2755C74.3496 18.5103 74.4331 18.7452 74.5583 18.9409C74.6836 19.0974 74.8923 19.2539 75.1845 19.4496C75.6855 19.7236 76.2282 19.9584 76.8544 20.115C77.4806 20.2715 78.1485 20.3498 78.8164 20.3498C80.1105 20.3498 81.1959 20.0758 81.9891 19.5279C82.824 18.9409 83.2415 18.1973 83.2415 17.258C83.2415 16.6709 83.1163 16.2013 82.8658 15.8099C82.4901 15.4968 82.0309 15.1446 81.4464 14.8706Z" fill="black"/>
<path d="M91.299 18.6278L90.7145 18.5887C90.1301 18.5495 89.6709 18.393 89.3787 18.119C89.0864 17.8059 88.9612 17.2972 88.9612 16.6318V11.5832H91.1737C91.466 11.5832 91.6747 11.5049 91.8834 11.3484C92.0921 11.1918 92.1756 10.957 92.1756 10.7222C92.1756 10.4482 92.0921 10.2525 91.8834 10.096C91.7164 9.93944 91.466 9.86117 91.1737 9.86117H88.9612V7.74778C88.9612 7.43469 88.836 7.16073 88.669 7.00418C88.4603 6.8085 88.2098 6.73022 87.8758 6.73022C87.5418 6.73022 87.2496 6.8085 87.0826 7.00418C86.8739 7.19987 86.7904 7.43469 86.7904 7.74778V9.86117H85.538C85.2458 9.86117 84.9953 9.93944 84.7866 10.096C84.6196 10.2525 84.5361 10.4874 84.5361 10.7222C84.5361 10.957 84.6196 11.1918 84.8284 11.3484C84.9953 11.5049 85.2458 11.5441 85.538 11.5441H86.7904V16.4753C86.7904 17.6885 87.0826 18.5887 87.6671 19.2149C88.2515 19.8411 89.1699 20.1933 90.3806 20.2716L90.965 20.3107C91.0485 20.3107 91.132 20.3107 91.1737 20.3107C91.466 20.3107 91.7164 20.2716 91.8834 20.1541C92.1339 19.9976 92.2591 19.7628 92.2591 19.4497C92.2591 19.2149 92.1339 18.7061 91.299 18.6278Z" fill="black"/>
<path d="M106.369 12.3267H102.278C101.986 12.3267 101.735 12.405 101.568 12.5615C101.36 12.718 101.276 12.9137 101.276 13.1877C101.276 13.4225 101.36 13.6573 101.568 13.8139C101.735 13.9704 101.986 14.0487 102.32 14.0487H105.284V18.0798C104.24 18.432 103.071 18.5886 101.819 18.5886C100.066 18.5886 98.7298 18.1189 97.8531 17.1405C96.9764 16.1621 96.5172 14.714 96.5172 12.7963C96.5172 10.9569 96.9764 9.50883 97.8531 8.53041C98.7298 7.55199 100.024 7.08235 101.694 7.08235C102.445 7.08235 103.155 7.19976 103.739 7.39544C104.324 7.59113 104.992 7.94336 105.743 8.49127C106.328 8.88264 106.787 8.84351 107.079 8.49127C107.204 8.29559 107.288 8.09991 107.288 7.86509C107.288 7.55199 107.121 7.27803 106.87 7.00408C106.244 6.45616 105.493 5.98652 104.574 5.71256C103.698 5.39947 102.696 5.24292 101.652 5.24292C100.149 5.24292 98.8132 5.55601 97.6861 6.1822C96.559 6.76926 95.6823 7.6694 95.0979 8.80437C94.5134 9.93934 94.2212 11.27 94.2212 12.8355C94.2212 14.4009 94.5134 15.7707 95.1396 16.9057C95.7658 18.0407 96.6425 18.9408 97.7696 19.5279C98.8967 20.1149 100.274 20.428 101.819 20.428C102.654 20.428 103.531 20.3497 104.365 20.2323C105.2 20.0758 105.952 19.9192 106.536 19.6844C106.87 19.567 107.121 19.4104 107.246 19.2148C107.371 19.0191 107.455 18.7451 107.455 18.3537V13.266C107.455 12.992 107.371 12.7572 107.162 12.6006C106.87 12.405 106.661 12.3267 106.369 12.3267Z" fill="black"/>
<path d="M123.777 8.80444C123.192 7.66948 122.358 6.76933 121.272 6.14314C120.187 5.51695 118.893 5.20386 117.432 5.20386C115.97 5.20386 114.635 5.51695 113.549 6.14314C112.464 6.73019 111.629 7.63034 111.044 8.80444C110.46 9.93941 110.209 11.2701 110.209 12.8355C110.209 14.3619 110.502 15.6925 111.086 16.8275C111.671 17.9625 112.505 18.8626 113.591 19.4888C114.676 20.115 115.97 20.4281 117.432 20.4281C118.893 20.4281 120.187 20.115 121.272 19.4888C122.358 18.8626 123.234 17.9625 123.819 16.8275C124.403 15.6925 124.695 14.3227 124.695 12.7964C124.612 11.3092 124.32 9.93941 123.777 8.80444ZM117.39 18.5886C115.845 18.5886 114.593 18.0799 113.716 17.1014C112.839 16.123 112.422 14.675 112.422 12.8355C112.422 10.9961 112.881 9.54804 113.716 8.56962C114.593 7.5912 115.803 7.08242 117.39 7.08242C118.976 7.08242 120.187 7.5912 121.063 8.53049C121.94 9.50891 122.358 10.957 122.358 12.7964C122.358 14.6358 121.898 16.0839 121.022 17.1014C120.187 18.0799 118.934 18.5886 117.39 18.5886Z" fill="black"/>
</svg>
