<svg width="232" height="474" viewBox="0 0 232 474" fill="none" xmlns="http://www.w3.org/2000/svg">
<mask id="mask0" mask-type="alpha" maskUnits="userSpaceOnUse" x="0" y="0" width="474" height="474">
<rect y="303.455" width="429.15" height="240.813" transform="rotate(-45 0 303.455)" fill="#333333"/>
</mask>
<g mask="url(#mask0)">
<rect width="6.51318" height="6.51318" transform="translate(4.74219 6.55615)" fill="#333333"/>
<circle cx="7.99878" cy="9.81274" r="3.25659" fill="url(#paint0_linear)"/>
<rect width="6.51318" height="6.51318" transform="translate(37.3081 6.55615)" fill="#333333"/>
<circle cx="40.5647" cy="9.81274" r="3.25659" fill="url(#paint1_linear)"/>
<rect width="6.51318" height="6.51318" transform="translate(69.875 6.55664)" fill="#333333"/>
<circle cx="73.1316" cy="9.81323" r="3.25659" fill="url(#paint2_linear)"/>
<rect width="6.51318" height="6.51318" transform="translate(102.441 6.55664)" fill="#333333"/>
<circle cx="105.698" cy="9.81323" r="3.25659" fill="url(#paint3_linear)"/>
<rect width="6.51318" height="6.51318" transform="translate(135.004 6.55664)" fill="#333333"/>
<circle cx="138.26" cy="9.81323" r="3.25659" fill="url(#paint4_linear)"/>
<rect width="6.51318" height="6.51318" transform="translate(167.57 6.55664)" fill="#333333"/>
<circle cx="170.827" cy="9.81323" r="3.25659" fill="url(#paint5_linear)"/>
<rect width="6.51318" height="6.51318" transform="translate(200.138 6.55615)" fill="#333333"/>
<circle cx="203.394" cy="9.81274" r="3.25659" fill="url(#paint6_linear)"/>
<rect width="6.51318" height="6.51318" transform="translate(4.74219 39.123)" fill="#333333"/>
<circle cx="7.99878" cy="42.3796" r="3.25659" fill="url(#paint7_linear)"/>
<rect width="6.51318" height="6.51318" transform="translate(37.3086 39.123)" fill="#333333"/>
<circle cx="40.5652" cy="42.3796" r="3.25659" fill="url(#paint8_linear)"/>
<rect width="6.51318" height="6.51318" transform="translate(69.875 39.123)" fill="#333333"/>
<circle cx="73.1316" cy="42.3796" r="3.25659" fill="url(#paint9_linear)"/>
<rect width="6.51318" height="6.51318" transform="translate(102.441 39.123)" fill="#333333"/>
<circle cx="105.698" cy="42.3796" r="3.25659" fill="url(#paint10_linear)"/>
<rect width="6.51318" height="6.51318" transform="translate(135.004 39.123)" fill="#333333"/>
<circle cx="138.26" cy="42.3796" r="3.25659" fill="url(#paint11_linear)"/>
<rect width="6.51318" height="6.51318" transform="translate(167.57 39.123)" fill="#333333"/>
<circle cx="170.827" cy="42.3796" r="3.25659" fill="url(#paint12_linear)"/>
<rect width="6.51318" height="6.51318" transform="translate(200.137 39.123)" fill="#333333"/>
<circle cx="203.393" cy="42.3796" r="3.25659" fill="url(#paint13_linear)"/>
<rect width="6.51318" height="6.51318" transform="translate(4.74219 71.6895)" fill="#333333"/>
<circle cx="7.99878" cy="74.946" r="3.25659" fill="url(#paint14_linear)"/>
<rect width="6.51318" height="6.51318" transform="translate(37.3086 71.6895)" fill="#333333"/>
<circle cx="40.5652" cy="74.946" r="3.25659" fill="url(#paint15_linear)"/>
<rect width="6.51318" height="6.51318" transform="translate(69.875 71.6895)" fill="#333333"/>
<circle cx="73.1316" cy="74.946" r="3.25659" fill="url(#paint16_linear)"/>
<rect width="6.51318" height="6.51318" transform="translate(102.441 71.6895)" fill="#333333"/>
<circle cx="105.698" cy="74.946" r="3.25659" fill="url(#paint17_linear)"/>
<rect width="6.51318" height="6.51318" transform="translate(135.004 71.6895)" fill="#333333"/>
<circle cx="138.26" cy="74.946" r="3.25659" fill="url(#paint18_linear)"/>
<rect width="6.51318" height="6.51318" transform="translate(167.57 71.6895)" fill="#333333"/>
<circle cx="170.827" cy="74.946" r="3.25659" fill="url(#paint19_linear)"/>
<rect width="6.51318" height="6.51318" transform="translate(200.137 71.6895)" fill="#333333"/>
<circle cx="203.393" cy="74.946" r="3.25659" fill="url(#paint20_linear)"/>
<rect width="6.51318" height="6.51318" transform="translate(4.74219 104.252)" fill="#333333"/>
<circle cx="7.99878" cy="107.509" r="3.25659" fill="url(#paint21_linear)"/>
<rect width="6.51318" height="6.51318" transform="translate(37.3086 104.252)" fill="#333333"/>
<circle cx="40.5652" cy="107.509" r="3.25659" fill="url(#paint22_linear)"/>
<rect width="6.51318" height="6.51318" transform="translate(69.875 104.252)" fill="#333333"/>
<circle cx="73.1316" cy="107.509" r="3.25659" fill="url(#paint23_linear)"/>
<rect width="6.51318" height="6.51318" transform="translate(102.441 104.252)" fill="#333333"/>
<circle cx="105.698" cy="107.509" r="3.25659" fill="url(#paint24_linear)"/>
<rect width="6.51318" height="6.51318" transform="translate(135.004 104.252)" fill="#333333"/>
<circle cx="138.26" cy="107.509" r="3.25659" fill="url(#paint25_linear)"/>
<rect width="6.51318" height="6.51318" transform="translate(167.57 104.252)" fill="#333333"/>
<circle cx="170.827" cy="107.509" r="3.25659" fill="url(#paint26_linear)"/>
<rect width="6.51318" height="6.51318" transform="translate(200.137 104.252)" fill="#333333"/>
<circle cx="203.393" cy="107.509" r="3.25659" fill="url(#paint27_linear)"/>
<rect width="6.51318" height="6.51318" transform="translate(4.74219 136.818)" fill="#333333"/>
<circle cx="7.99878" cy="140.075" r="3.25659" fill="url(#paint28_linear)"/>
<rect width="6.51318" height="6.51318" transform="translate(37.3086 136.818)" fill="#333333"/>
<circle cx="40.5652" cy="140.075" r="3.25659" fill="url(#paint29_linear)"/>
<rect width="6.51318" height="6.51318" transform="translate(69.875 136.818)" fill="#333333"/>
<circle cx="73.1316" cy="140.075" r="3.25659" fill="url(#paint30_linear)"/>
<rect width="6.51318" height="6.51318" transform="translate(102.441 136.818)" fill="#333333"/>
<circle cx="105.698" cy="140.075" r="3.25659" fill="url(#paint31_linear)"/>
<rect width="6.51318" height="6.51318" transform="translate(135.004 136.818)" fill="#333333"/>
<circle cx="138.26" cy="140.075" r="3.25659" fill="url(#paint32_linear)"/>
<rect width="6.51318" height="6.51318" transform="translate(167.57 136.818)" fill="#333333"/>
<circle cx="170.827" cy="140.075" r="3.25659" fill="url(#paint33_linear)"/>
<rect width="6.51318" height="6.51318" transform="translate(200.137 136.818)" fill="#333333"/>
<circle cx="203.393" cy="140.075" r="3.25659" fill="url(#paint34_linear)"/>
<rect width="6.51318" height="6.51318" transform="translate(4.74219 169.386)" fill="#333333"/>
<circle cx="7.99878" cy="172.642" r="3.25659" fill="url(#paint35_linear)"/>
<rect width="6.51318" height="6.51318" transform="translate(37.3081 169.386)" fill="#333333"/>
<circle cx="40.5647" cy="172.642" r="3.25659" fill="url(#paint36_linear)"/>
<rect width="6.51318" height="6.51318" transform="translate(69.875 169.385)" fill="#333333"/>
<circle cx="73.1316" cy="172.641" r="3.25659" fill="url(#paint37_linear)"/>
<rect width="6.51318" height="6.51318" transform="translate(102.441 169.385)" fill="#333333"/>
<circle cx="105.698" cy="172.641" r="3.25659" fill="url(#paint38_linear)"/>
<rect width="6.51318" height="6.51318" transform="translate(135.004 169.385)" fill="#333333"/>
<circle cx="138.26" cy="172.641" r="3.25659" fill="url(#paint39_linear)"/>
<rect width="6.51318" height="6.51318" transform="translate(167.57 169.385)" fill="#333333"/>
<circle cx="170.827" cy="172.641" r="3.25659" fill="url(#paint40_linear)"/>
<rect width="6.51318" height="6.51318" transform="translate(200.138 169.386)" fill="#333333"/>
<circle cx="203.394" cy="172.642" r="3.25659" fill="url(#paint41_linear)"/>
<rect width="6.51318" height="6.51318" transform="translate(4.74219 201.952)" fill="#333333"/>
<circle cx="7.99878" cy="205.208" r="3.25659" fill="url(#paint42_linear)"/>
<rect width="6.51318" height="6.51318" transform="translate(37.3081 201.952)" fill="#333333"/>
<circle cx="40.5647" cy="205.208" r="3.25659" fill="url(#paint43_linear)"/>
<rect width="6.51318" height="6.51318" transform="translate(69.875 201.951)" fill="#333333"/>
<circle cx="73.1316" cy="205.208" r="3.25659" fill="url(#paint44_linear)"/>
<rect width="6.51318" height="6.51318" transform="translate(102.441 201.951)" fill="#333333"/>
<circle cx="105.698" cy="205.208" r="3.25659" fill="url(#paint45_linear)"/>
<rect width="6.51318" height="6.51318" transform="translate(135.004 201.951)" fill="#333333"/>
<circle cx="138.26" cy="205.208" r="3.25659" fill="url(#paint46_linear)"/>
<rect width="6.51318" height="6.51318" transform="translate(167.57 201.951)" fill="#333333"/>
<circle cx="170.827" cy="205.208" r="3.25659" fill="url(#paint47_linear)"/>
<rect width="6.51318" height="6.51318" transform="translate(200.138 201.952)" fill="#333333"/>
<circle cx="203.394" cy="205.208" r="3.25659" fill="url(#paint48_linear)"/>
<rect width="6.51318" height="6.51318" transform="translate(4.74219 234.517)" fill="#333333"/>
<circle cx="7.99878" cy="237.774" r="3.25659" fill="url(#paint49_linear)"/>
<rect width="6.51318" height="6.51318" transform="translate(37.3081 234.517)" fill="#333333"/>
<circle cx="40.5647" cy="237.774" r="3.25659" fill="url(#paint50_linear)"/>
<rect width="6.51318" height="6.51318" transform="translate(69.875 234.518)" fill="#333333"/>
<circle cx="73.1316" cy="237.774" r="3.25659" fill="url(#paint51_linear)"/>
<rect width="6.51318" height="6.51318" transform="translate(102.441 234.518)" fill="#333333"/>
<circle cx="105.698" cy="237.774" r="3.25659" fill="url(#paint52_linear)"/>
<rect width="6.51318" height="6.51318" transform="translate(135.004 234.518)" fill="#333333"/>
<circle cx="138.26" cy="237.774" r="3.25659" fill="url(#paint53_linear)"/>
<rect width="6.51318" height="6.51318" transform="translate(167.57 234.518)" fill="#333333"/>
<circle cx="170.827" cy="237.774" r="3.25659" fill="url(#paint54_linear)"/>
<rect width="6.51318" height="6.51318" transform="translate(200.138 234.517)" fill="#333333"/>
<circle cx="203.394" cy="237.774" r="3.25659" fill="url(#paint55_linear)"/>
<rect width="6.51318" height="6.51318" transform="translate(4.74219 267.083)" fill="#333333"/>
<circle cx="7.99878" cy="270.34" r="3.25659" fill="url(#paint56_linear)"/>
<rect width="6.51318" height="6.51318" transform="translate(37.3081 267.083)" fill="#333333"/>
<circle cx="40.5647" cy="270.34" r="3.25659" fill="url(#paint57_linear)"/>
<rect width="6.51318" height="6.51318" transform="translate(69.875 267.084)" fill="#333333"/>
<circle cx="73.1316" cy="270.341" r="3.25659" fill="url(#paint58_linear)"/>
<rect width="6.51318" height="6.51318" transform="translate(102.441 267.084)" fill="#333333"/>
<circle cx="105.698" cy="270.341" r="3.25659" fill="url(#paint59_linear)"/>
<rect width="6.51318" height="6.51318" transform="translate(135.004 267.084)" fill="#333333"/>
<circle cx="138.26" cy="270.341" r="3.25659" fill="url(#paint60_linear)"/>
<rect width="6.51318" height="6.51318" transform="translate(167.57 267.084)" fill="#333333"/>
<circle cx="170.827" cy="270.341" r="3.25659" fill="url(#paint61_linear)"/>
<rect width="6.51318" height="6.51318" transform="translate(200.138 267.083)" fill="#333333"/>
<circle cx="203.394" cy="270.34" r="3.25659" fill="url(#paint62_linear)"/>
<rect width="6.51318" height="6.51318" transform="translate(4.74219 299.65)" fill="#333333"/>
<circle cx="7.99878" cy="302.907" r="3.25659" fill="url(#paint63_linear)"/>
<rect width="6.51318" height="6.51318" transform="translate(37.3086 299.65)" fill="#333333"/>
<circle cx="40.5652" cy="302.907" r="3.25659" fill="url(#paint64_linear)"/>
<rect width="6.51318" height="6.51318" transform="translate(69.875 299.65)" fill="#333333"/>
<circle cx="73.1316" cy="302.907" r="3.25659" fill="url(#paint65_linear)"/>
<rect width="6.51318" height="6.51318" transform="translate(102.441 299.65)" fill="#333333"/>
<circle cx="105.698" cy="302.907" r="3.25659" fill="url(#paint66_linear)"/>
<rect width="6.51318" height="6.51318" transform="translate(135.004 299.65)" fill="#333333"/>
<circle cx="138.26" cy="302.907" r="3.25659" fill="url(#paint67_linear)"/>
<rect width="6.51318" height="6.51318" transform="translate(167.57 299.65)" fill="#333333"/>
<circle cx="170.827" cy="302.907" r="3.25659" fill="url(#paint68_linear)"/>
<rect width="6.51318" height="6.51318" transform="translate(200.137 299.65)" fill="#333333"/>
<circle cx="203.393" cy="302.907" r="3.25659" fill="url(#paint69_linear)"/>
<rect width="6.51318" height="6.51318" transform="translate(4.74219 332.217)" fill="#333333"/>
<circle cx="7.99878" cy="335.473" r="3.25659" fill="url(#paint70_linear)"/>
<rect width="6.51318" height="6.51318" transform="translate(37.3086 332.217)" fill="#333333"/>
<circle cx="40.5652" cy="335.473" r="3.25659" fill="url(#paint71_linear)"/>
<rect width="6.51318" height="6.51318" transform="translate(69.875 332.217)" fill="#333333"/>
<circle cx="73.1316" cy="335.473" r="3.25659" fill="url(#paint72_linear)"/>
<rect width="6.51318" height="6.51318" transform="translate(102.441 332.217)" fill="#333333"/>
<circle cx="105.698" cy="335.473" r="3.25659" fill="url(#paint73_linear)"/>
<rect width="6.51318" height="6.51318" transform="translate(135.004 332.217)" fill="#333333"/>
<circle cx="138.26" cy="335.473" r="3.25659" fill="url(#paint74_linear)"/>
<rect width="6.51318" height="6.51318" transform="translate(167.57 332.217)" fill="#333333"/>
<circle cx="170.827" cy="335.473" r="3.25659" fill="url(#paint75_linear)"/>
<rect width="6.51318" height="6.51318" transform="translate(200.137 332.217)" fill="#333333"/>
<circle cx="203.393" cy="335.473" r="3.25659" fill="url(#paint76_linear)"/>
<rect width="6.51318" height="6.51318" transform="translate(4.74219 364.779)" fill="#333333"/>
<circle cx="7.99878" cy="368.036" r="3.25659" fill="url(#paint77_linear)"/>
<rect width="6.51318" height="6.51318" transform="translate(37.3086 364.779)" fill="#333333"/>
<circle cx="40.5652" cy="368.036" r="3.25659" fill="url(#paint78_linear)"/>
<rect width="6.51318" height="6.51318" transform="translate(69.875 364.779)" fill="#333333"/>
<circle cx="73.1316" cy="368.036" r="3.25659" fill="url(#paint79_linear)"/>
<rect width="6.51318" height="6.51318" transform="translate(102.441 364.779)" fill="#333333"/>
<circle cx="105.698" cy="368.036" r="3.25659" fill="url(#paint80_linear)"/>
<rect width="6.51318" height="6.51318" transform="translate(135.004 364.779)" fill="#333333"/>
<circle cx="138.26" cy="368.036" r="3.25659" fill="url(#paint81_linear)"/>
<rect width="6.51318" height="6.51318" transform="translate(167.57 364.779)" fill="#333333"/>
<circle cx="170.827" cy="368.036" r="3.25659" fill="url(#paint82_linear)"/>
<rect width="6.51318" height="6.51318" transform="translate(200.137 364.779)" fill="#333333"/>
<circle cx="203.393" cy="368.036" r="3.25659" fill="url(#paint83_linear)"/>
<rect width="6.51318" height="6.51318" transform="translate(4.74219 397.346)" fill="#333333"/>
<circle cx="7.99878" cy="400.602" r="3.25659" fill="url(#paint84_linear)"/>
<rect width="6.51318" height="6.51318" transform="translate(37.3086 397.346)" fill="#333333"/>
<circle cx="40.5652" cy="400.602" r="3.25659" fill="url(#paint85_linear)"/>
<rect width="6.51318" height="6.51318" transform="translate(69.875 397.346)" fill="#333333"/>
<circle cx="73.1316" cy="400.602" r="3.25659" fill="url(#paint86_linear)"/>
<rect width="6.51318" height="6.51318" transform="translate(102.441 397.346)" fill="#333333"/>
<circle cx="105.698" cy="400.602" r="3.25659" fill="url(#paint87_linear)"/>
<rect width="6.51318" height="6.51318" transform="translate(135.004 397.346)" fill="#333333"/>
<circle cx="138.26" cy="400.602" r="3.25659" fill="url(#paint88_linear)"/>
<rect width="6.51318" height="6.51318" transform="translate(167.57 397.346)" fill="#333333"/>
<circle cx="170.827" cy="400.602" r="3.25659" fill="url(#paint89_linear)"/>
<rect width="6.51318" height="6.51318" transform="translate(200.137 397.346)" fill="#333333"/>
<circle cx="203.393" cy="400.602" r="3.25659" fill="url(#paint90_linear)"/>
<rect width="6.51318" height="6.51318" transform="translate(4.74219 429.913)" fill="#333333"/>
<circle cx="7.99878" cy="433.169" r="3.25659" fill="url(#paint91_linear)"/>
<rect width="6.51318" height="6.51318" transform="translate(37.3081 429.913)" fill="#333333"/>
<circle cx="40.5647" cy="433.169" r="3.25659" fill="url(#paint92_linear)"/>
<rect width="6.51318" height="6.51318" transform="translate(69.875 429.912)" fill="#333333"/>
<circle cx="73.1316" cy="433.169" r="3.25659" fill="url(#paint93_linear)"/>
<rect width="6.51318" height="6.51318" transform="translate(102.441 429.912)" fill="#333333"/>
<circle cx="105.698" cy="433.169" r="3.25659" fill="url(#paint94_linear)"/>
<rect width="6.51318" height="6.51318" transform="translate(135.004 429.912)" fill="#333333"/>
<circle cx="138.26" cy="433.169" r="3.25659" fill="url(#paint95_linear)"/>
<rect width="6.51318" height="6.51318" transform="translate(167.57 429.912)" fill="#333333"/>
<circle cx="170.827" cy="433.169" r="3.25659" fill="url(#paint96_linear)"/>
<rect width="6.51318" height="6.51318" transform="translate(200.138 429.913)" fill="#333333"/>
<circle cx="203.394" cy="433.169" r="3.25659" fill="url(#paint97_linear)"/>
<rect width="6.51318" height="6.51318" transform="translate(4.74219 462.479)" fill="#333333"/>
<circle cx="7.99878" cy="465.735" r="3.25659" fill="url(#paint98_linear)"/>
<rect width="6.51318" height="6.51318" transform="translate(37.3081 462.479)" fill="#333333"/>
<circle cx="40.5647" cy="465.735" r="3.25659" fill="url(#paint99_linear)"/>
<rect width="6.51318" height="6.51318" transform="translate(69.875 462.479)" fill="#333333"/>
<circle cx="73.1316" cy="465.735" r="3.25659" fill="url(#paint100_linear)"/>
<rect width="6.51318" height="6.51318" transform="translate(102.441 462.479)" fill="#333333"/>
<circle cx="105.698" cy="465.735" r="3.25659" fill="url(#paint101_linear)"/>
<rect width="6.51318" height="6.51318" transform="translate(135.004 462.479)" fill="#333333"/>
<circle cx="138.26" cy="465.735" r="3.25659" fill="url(#paint102_linear)"/>
<rect width="6.51318" height="6.51318" transform="translate(167.57 462.479)" fill="#333333"/>
<circle cx="170.827" cy="465.735" r="3.25659" fill="url(#paint103_linear)"/>
<rect width="6.51318" height="6.51318" transform="translate(200.138 462.479)" fill="#333333"/>
<circle cx="203.394" cy="465.735" r="3.25659" fill="url(#paint104_linear)"/>
</g>
<defs>
<linearGradient id="paint0_linear" x1="0.322981" y1="5.24599" x2="7.99878" y2="13.0693" gradientUnits="userSpaceOnUse">
<stop offset="0.390625"/>
<stop offset="1" stop-color="#D9D9D9" stop-opacity="0"/>
</linearGradient>
<linearGradient id="paint1_linear" x1="32.8889" y1="5.24599" x2="40.5647" y2="13.0693" gradientUnits="userSpaceOnUse">
<stop offset="0.390625"/>
<stop offset="1" stop-color="#D9D9D9" stop-opacity="0"/>
</linearGradient>
<linearGradient id="paint2_linear" x1="65.4558" y1="5.24648" x2="73.1316" y2="13.0698" gradientUnits="userSpaceOnUse">
<stop offset="0.390625"/>
<stop offset="1" stop-color="#D9D9D9" stop-opacity="0"/>
</linearGradient>
<linearGradient id="paint3_linear" x1="98.0222" y1="5.24648" x2="105.698" y2="13.0698" gradientUnits="userSpaceOnUse">
<stop offset="0.390625"/>
<stop offset="1" stop-color="#D9D9D9" stop-opacity="0"/>
</linearGradient>
<linearGradient id="paint4_linear" x1="130.585" y1="5.24648" x2="138.26" y2="13.0698" gradientUnits="userSpaceOnUse">
<stop offset="0.390625"/>
<stop offset="1" stop-color="#D9D9D9" stop-opacity="0"/>
</linearGradient>
<linearGradient id="paint5_linear" x1="163.151" y1="5.24648" x2="170.827" y2="13.0698" gradientUnits="userSpaceOnUse">
<stop offset="0.390625"/>
<stop offset="1" stop-color="#D9D9D9" stop-opacity="0"/>
</linearGradient>
<linearGradient id="paint6_linear" x1="195.718" y1="5.24599" x2="203.394" y2="13.0693" gradientUnits="userSpaceOnUse">
<stop offset="0.390625"/>
<stop offset="1" stop-color="#D9D9D9" stop-opacity="0"/>
</linearGradient>
<linearGradient id="paint7_linear" x1="0.322981" y1="37.8129" x2="7.99878" y2="45.6362" gradientUnits="userSpaceOnUse">
<stop offset="0.390625"/>
<stop offset="1" stop-color="#D9D9D9" stop-opacity="0"/>
</linearGradient>
<linearGradient id="paint8_linear" x1="32.8894" y1="37.8129" x2="40.5652" y2="45.6362" gradientUnits="userSpaceOnUse">
<stop offset="0.390625"/>
<stop offset="1" stop-color="#D9D9D9" stop-opacity="0"/>
</linearGradient>
<linearGradient id="paint9_linear" x1="65.4558" y1="37.8129" x2="73.1316" y2="45.6362" gradientUnits="userSpaceOnUse">
<stop offset="0.390625"/>
<stop offset="1" stop-color="#D9D9D9" stop-opacity="0"/>
</linearGradient>
<linearGradient id="paint10_linear" x1="98.0222" y1="37.8129" x2="105.698" y2="45.6362" gradientUnits="userSpaceOnUse">
<stop offset="0.390625"/>
<stop offset="1" stop-color="#D9D9D9" stop-opacity="0"/>
</linearGradient>
<linearGradient id="paint11_linear" x1="130.585" y1="37.8129" x2="138.26" y2="45.6362" gradientUnits="userSpaceOnUse">
<stop offset="0.390625"/>
<stop offset="1" stop-color="#D9D9D9" stop-opacity="0"/>
</linearGradient>
<linearGradient id="paint12_linear" x1="163.151" y1="37.8129" x2="170.827" y2="45.6362" gradientUnits="userSpaceOnUse">
<stop offset="0.390625"/>
<stop offset="1" stop-color="#D9D9D9" stop-opacity="0"/>
</linearGradient>
<linearGradient id="paint13_linear" x1="195.718" y1="37.8129" x2="203.393" y2="45.6362" gradientUnits="userSpaceOnUse">
<stop offset="0.390625"/>
<stop offset="1" stop-color="#D9D9D9" stop-opacity="0"/>
</linearGradient>
<linearGradient id="paint14_linear" x1="0.322981" y1="70.3793" x2="7.99878" y2="78.2026" gradientUnits="userSpaceOnUse">
<stop offset="0.390625"/>
<stop offset="1" stop-color="#D9D9D9" stop-opacity="0"/>
</linearGradient>
<linearGradient id="paint15_linear" x1="32.8894" y1="70.3793" x2="40.5652" y2="78.2026" gradientUnits="userSpaceOnUse">
<stop offset="0.390625"/>
<stop offset="1" stop-color="#D9D9D9" stop-opacity="0"/>
</linearGradient>
<linearGradient id="paint16_linear" x1="65.4558" y1="70.3793" x2="73.1316" y2="78.2026" gradientUnits="userSpaceOnUse">
<stop offset="0.390625"/>
<stop offset="1" stop-color="#D9D9D9" stop-opacity="0"/>
</linearGradient>
<linearGradient id="paint17_linear" x1="98.0222" y1="70.3793" x2="105.698" y2="78.2026" gradientUnits="userSpaceOnUse">
<stop offset="0.390625"/>
<stop offset="1" stop-color="#D9D9D9" stop-opacity="0"/>
</linearGradient>
<linearGradient id="paint18_linear" x1="130.585" y1="70.3793" x2="138.26" y2="78.2026" gradientUnits="userSpaceOnUse">
<stop offset="0.390625"/>
<stop offset="1" stop-color="#D9D9D9" stop-opacity="0"/>
</linearGradient>
<linearGradient id="paint19_linear" x1="163.151" y1="70.3793" x2="170.827" y2="78.2026" gradientUnits="userSpaceOnUse">
<stop offset="0.390625"/>
<stop offset="1" stop-color="#D9D9D9" stop-opacity="0"/>
</linearGradient>
<linearGradient id="paint20_linear" x1="195.718" y1="70.3793" x2="203.393" y2="78.2026" gradientUnits="userSpaceOnUse">
<stop offset="0.390625"/>
<stop offset="1" stop-color="#D9D9D9" stop-opacity="0"/>
</linearGradient>
<linearGradient id="paint21_linear" x1="0.322981" y1="102.942" x2="7.99878" y2="110.765" gradientUnits="userSpaceOnUse">
<stop offset="0.390625"/>
<stop offset="1" stop-color="#D9D9D9" stop-opacity="0"/>
</linearGradient>
<linearGradient id="paint22_linear" x1="32.8894" y1="102.942" x2="40.5652" y2="110.765" gradientUnits="userSpaceOnUse">
<stop offset="0.390625"/>
<stop offset="1" stop-color="#D9D9D9" stop-opacity="0"/>
</linearGradient>
<linearGradient id="paint23_linear" x1="65.4558" y1="102.942" x2="73.1316" y2="110.765" gradientUnits="userSpaceOnUse">
<stop offset="0.390625"/>
<stop offset="1" stop-color="#D9D9D9" stop-opacity="0"/>
</linearGradient>
<linearGradient id="paint24_linear" x1="98.0222" y1="102.942" x2="105.698" y2="110.765" gradientUnits="userSpaceOnUse">
<stop offset="0.390625"/>
<stop offset="1" stop-color="#D9D9D9" stop-opacity="0"/>
</linearGradient>
<linearGradient id="paint25_linear" x1="130.585" y1="102.942" x2="138.26" y2="110.765" gradientUnits="userSpaceOnUse">
<stop offset="0.390625"/>
<stop offset="1" stop-color="#D9D9D9" stop-opacity="0"/>
</linearGradient>
<linearGradient id="paint26_linear" x1="163.151" y1="102.942" x2="170.827" y2="110.765" gradientUnits="userSpaceOnUse">
<stop offset="0.390625"/>
<stop offset="1" stop-color="#D9D9D9" stop-opacity="0"/>
</linearGradient>
<linearGradient id="paint27_linear" x1="195.718" y1="102.942" x2="203.393" y2="110.765" gradientUnits="userSpaceOnUse">
<stop offset="0.390625"/>
<stop offset="1" stop-color="#D9D9D9" stop-opacity="0"/>
</linearGradient>
<linearGradient id="paint28_linear" x1="0.322981" y1="135.508" x2="7.99878" y2="143.332" gradientUnits="userSpaceOnUse">
<stop offset="0.390625"/>
<stop offset="1" stop-color="#D9D9D9" stop-opacity="0"/>
</linearGradient>
<linearGradient id="paint29_linear" x1="32.8894" y1="135.508" x2="40.5652" y2="143.332" gradientUnits="userSpaceOnUse">
<stop offset="0.390625"/>
<stop offset="1" stop-color="#D9D9D9" stop-opacity="0"/>
</linearGradient>
<linearGradient id="paint30_linear" x1="65.4558" y1="135.508" x2="73.1316" y2="143.332" gradientUnits="userSpaceOnUse">
<stop offset="0.390625"/>
<stop offset="1" stop-color="#D9D9D9" stop-opacity="0"/>
</linearGradient>
<linearGradient id="paint31_linear" x1="98.0222" y1="135.508" x2="105.698" y2="143.332" gradientUnits="userSpaceOnUse">
<stop offset="0.390625"/>
<stop offset="1" stop-color="#D9D9D9" stop-opacity="0"/>
</linearGradient>
<linearGradient id="paint32_linear" x1="130.585" y1="135.508" x2="138.26" y2="143.332" gradientUnits="userSpaceOnUse">
<stop offset="0.390625"/>
<stop offset="1" stop-color="#D9D9D9" stop-opacity="0"/>
</linearGradient>
<linearGradient id="paint33_linear" x1="163.151" y1="135.508" x2="170.827" y2="143.332" gradientUnits="userSpaceOnUse">
<stop offset="0.390625"/>
<stop offset="1" stop-color="#D9D9D9" stop-opacity="0"/>
</linearGradient>
<linearGradient id="paint34_linear" x1="195.718" y1="135.508" x2="203.393" y2="143.332" gradientUnits="userSpaceOnUse">
<stop offset="0.390625"/>
<stop offset="1" stop-color="#D9D9D9" stop-opacity="0"/>
</linearGradient>
<linearGradient id="paint35_linear" x1="0.322981" y1="168.075" x2="7.99878" y2="175.899" gradientUnits="userSpaceOnUse">
<stop offset="0.390625"/>
<stop offset="1" stop-color="#D9D9D9" stop-opacity="0"/>
</linearGradient>
<linearGradient id="paint36_linear" x1="32.8889" y1="168.075" x2="40.5647" y2="175.899" gradientUnits="userSpaceOnUse">
<stop offset="0.390625"/>
<stop offset="1" stop-color="#D9D9D9" stop-opacity="0"/>
</linearGradient>
<linearGradient id="paint37_linear" x1="65.4558" y1="168.075" x2="73.1316" y2="175.898" gradientUnits="userSpaceOnUse">
<stop offset="0.390625"/>
<stop offset="1" stop-color="#D9D9D9" stop-opacity="0"/>
</linearGradient>
<linearGradient id="paint38_linear" x1="98.0222" y1="168.075" x2="105.698" y2="175.898" gradientUnits="userSpaceOnUse">
<stop offset="0.390625"/>
<stop offset="1" stop-color="#D9D9D9" stop-opacity="0"/>
</linearGradient>
<linearGradient id="paint39_linear" x1="130.585" y1="168.075" x2="138.26" y2="175.898" gradientUnits="userSpaceOnUse">
<stop offset="0.390625"/>
<stop offset="1" stop-color="#D9D9D9" stop-opacity="0"/>
</linearGradient>
<linearGradient id="paint40_linear" x1="163.151" y1="168.075" x2="170.827" y2="175.898" gradientUnits="userSpaceOnUse">
<stop offset="0.390625"/>
<stop offset="1" stop-color="#D9D9D9" stop-opacity="0"/>
</linearGradient>
<linearGradient id="paint41_linear" x1="195.718" y1="168.075" x2="203.394" y2="175.899" gradientUnits="userSpaceOnUse">
<stop offset="0.390625"/>
<stop offset="1" stop-color="#D9D9D9" stop-opacity="0"/>
</linearGradient>
<linearGradient id="paint42_linear" x1="0.322981" y1="200.641" x2="7.99878" y2="208.465" gradientUnits="userSpaceOnUse">
<stop offset="0.390625"/>
<stop offset="1" stop-color="#D9D9D9" stop-opacity="0"/>
</linearGradient>
<linearGradient id="paint43_linear" x1="32.8889" y1="200.641" x2="40.5647" y2="208.465" gradientUnits="userSpaceOnUse">
<stop offset="0.390625"/>
<stop offset="1" stop-color="#D9D9D9" stop-opacity="0"/>
</linearGradient>
<linearGradient id="paint44_linear" x1="65.4558" y1="200.641" x2="73.1316" y2="208.464" gradientUnits="userSpaceOnUse">
<stop offset="0.390625"/>
<stop offset="1" stop-color="#D9D9D9" stop-opacity="0"/>
</linearGradient>
<linearGradient id="paint45_linear" x1="98.0222" y1="200.641" x2="105.698" y2="208.464" gradientUnits="userSpaceOnUse">
<stop offset="0.390625"/>
<stop offset="1" stop-color="#D9D9D9" stop-opacity="0"/>
</linearGradient>
<linearGradient id="paint46_linear" x1="130.585" y1="200.641" x2="138.26" y2="208.464" gradientUnits="userSpaceOnUse">
<stop offset="0.390625"/>
<stop offset="1" stop-color="#D9D9D9" stop-opacity="0"/>
</linearGradient>
<linearGradient id="paint47_linear" x1="163.151" y1="200.641" x2="170.827" y2="208.464" gradientUnits="userSpaceOnUse">
<stop offset="0.390625"/>
<stop offset="1" stop-color="#D9D9D9" stop-opacity="0"/>
</linearGradient>
<linearGradient id="paint48_linear" x1="195.718" y1="200.641" x2="203.394" y2="208.465" gradientUnits="userSpaceOnUse">
<stop offset="0.390625"/>
<stop offset="1" stop-color="#D9D9D9" stop-opacity="0"/>
</linearGradient>
<linearGradient id="paint49_linear" x1="0.322981" y1="233.207" x2="7.99878" y2="241.031" gradientUnits="userSpaceOnUse">
<stop offset="0.390625"/>
<stop offset="1" stop-color="#D9D9D9" stop-opacity="0"/>
</linearGradient>
<linearGradient id="paint50_linear" x1="32.8889" y1="233.207" x2="40.5647" y2="241.031" gradientUnits="userSpaceOnUse">
<stop offset="0.390625"/>
<stop offset="1" stop-color="#D9D9D9" stop-opacity="0"/>
</linearGradient>
<linearGradient id="paint51_linear" x1="65.4558" y1="233.207" x2="73.1316" y2="241.031" gradientUnits="userSpaceOnUse">
<stop offset="0.390625"/>
<stop offset="1" stop-color="#D9D9D9" stop-opacity="0"/>
</linearGradient>
<linearGradient id="paint52_linear" x1="98.0222" y1="233.207" x2="105.698" y2="241.031" gradientUnits="userSpaceOnUse">
<stop offset="0.390625"/>
<stop offset="1" stop-color="#D9D9D9" stop-opacity="0"/>
</linearGradient>
<linearGradient id="paint53_linear" x1="130.585" y1="233.207" x2="138.26" y2="241.031" gradientUnits="userSpaceOnUse">
<stop offset="0.390625"/>
<stop offset="1" stop-color="#D9D9D9" stop-opacity="0"/>
</linearGradient>
<linearGradient id="paint54_linear" x1="163.151" y1="233.207" x2="170.827" y2="241.031" gradientUnits="userSpaceOnUse">
<stop offset="0.390625"/>
<stop offset="1" stop-color="#D9D9D9" stop-opacity="0"/>
</linearGradient>
<linearGradient id="paint55_linear" x1="195.718" y1="233.207" x2="203.394" y2="241.031" gradientUnits="userSpaceOnUse">
<stop offset="0.390625"/>
<stop offset="1" stop-color="#D9D9D9" stop-opacity="0"/>
</linearGradient>
<linearGradient id="paint56_linear" x1="0.322981" y1="265.773" x2="7.99878" y2="273.597" gradientUnits="userSpaceOnUse">
<stop offset="0.390625"/>
<stop offset="1" stop-color="#D9D9D9" stop-opacity="0"/>
</linearGradient>
<linearGradient id="paint57_linear" x1="32.8889" y1="265.773" x2="40.5647" y2="273.597" gradientUnits="userSpaceOnUse">
<stop offset="0.390625"/>
<stop offset="1" stop-color="#D9D9D9" stop-opacity="0"/>
</linearGradient>
<linearGradient id="paint58_linear" x1="65.4558" y1="265.774" x2="73.1316" y2="273.597" gradientUnits="userSpaceOnUse">
<stop offset="0.390625"/>
<stop offset="1" stop-color="#D9D9D9" stop-opacity="0"/>
</linearGradient>
<linearGradient id="paint59_linear" x1="98.0222" y1="265.774" x2="105.698" y2="273.597" gradientUnits="userSpaceOnUse">
<stop offset="0.390625"/>
<stop offset="1" stop-color="#D9D9D9" stop-opacity="0"/>
</linearGradient>
<linearGradient id="paint60_linear" x1="130.585" y1="265.774" x2="138.26" y2="273.597" gradientUnits="userSpaceOnUse">
<stop offset="0.390625"/>
<stop offset="1" stop-color="#D9D9D9" stop-opacity="0"/>
</linearGradient>
<linearGradient id="paint61_linear" x1="163.151" y1="265.774" x2="170.827" y2="273.597" gradientUnits="userSpaceOnUse">
<stop offset="0.390625"/>
<stop offset="1" stop-color="#D9D9D9" stop-opacity="0"/>
</linearGradient>
<linearGradient id="paint62_linear" x1="195.718" y1="265.773" x2="203.394" y2="273.597" gradientUnits="userSpaceOnUse">
<stop offset="0.390625"/>
<stop offset="1" stop-color="#D9D9D9" stop-opacity="0"/>
</linearGradient>
<linearGradient id="paint63_linear" x1="0.322981" y1="298.34" x2="7.99878" y2="306.164" gradientUnits="userSpaceOnUse">
<stop offset="0.390625"/>
<stop offset="1" stop-color="#D9D9D9" stop-opacity="0"/>
</linearGradient>
<linearGradient id="paint64_linear" x1="32.8894" y1="298.34" x2="40.5652" y2="306.164" gradientUnits="userSpaceOnUse">
<stop offset="0.390625"/>
<stop offset="1" stop-color="#D9D9D9" stop-opacity="0"/>
</linearGradient>
<linearGradient id="paint65_linear" x1="65.4558" y1="298.34" x2="73.1316" y2="306.164" gradientUnits="userSpaceOnUse">
<stop offset="0.390625"/>
<stop offset="1" stop-color="#D9D9D9" stop-opacity="0"/>
</linearGradient>
<linearGradient id="paint66_linear" x1="98.0222" y1="298.34" x2="105.698" y2="306.164" gradientUnits="userSpaceOnUse">
<stop offset="0.390625"/>
<stop offset="1" stop-color="#D9D9D9" stop-opacity="0"/>
</linearGradient>
<linearGradient id="paint67_linear" x1="130.585" y1="298.34" x2="138.26" y2="306.164" gradientUnits="userSpaceOnUse">
<stop offset="0.390625"/>
<stop offset="1" stop-color="#D9D9D9" stop-opacity="0"/>
</linearGradient>
<linearGradient id="paint68_linear" x1="163.151" y1="298.34" x2="170.827" y2="306.164" gradientUnits="userSpaceOnUse">
<stop offset="0.390625"/>
<stop offset="1" stop-color="#D9D9D9" stop-opacity="0"/>
</linearGradient>
<linearGradient id="paint69_linear" x1="195.718" y1="298.34" x2="203.393" y2="306.164" gradientUnits="userSpaceOnUse">
<stop offset="0.390625"/>
<stop offset="1" stop-color="#D9D9D9" stop-opacity="0"/>
</linearGradient>
<linearGradient id="paint70_linear" x1="0.322981" y1="330.907" x2="7.99878" y2="338.73" gradientUnits="userSpaceOnUse">
<stop offset="0.390625"/>
<stop offset="1" stop-color="#D9D9D9" stop-opacity="0"/>
</linearGradient>
<linearGradient id="paint71_linear" x1="32.8894" y1="330.907" x2="40.5652" y2="338.73" gradientUnits="userSpaceOnUse">
<stop offset="0.390625"/>
<stop offset="1" stop-color="#D9D9D9" stop-opacity="0"/>
</linearGradient>
<linearGradient id="paint72_linear" x1="65.4558" y1="330.907" x2="73.1316" y2="338.73" gradientUnits="userSpaceOnUse">
<stop offset="0.390625"/>
<stop offset="1" stop-color="#D9D9D9" stop-opacity="0"/>
</linearGradient>
<linearGradient id="paint73_linear" x1="98.0222" y1="330.907" x2="105.698" y2="338.73" gradientUnits="userSpaceOnUse">
<stop offset="0.390625"/>
<stop offset="1" stop-color="#D9D9D9" stop-opacity="0"/>
</linearGradient>
<linearGradient id="paint74_linear" x1="130.585" y1="330.907" x2="138.26" y2="338.73" gradientUnits="userSpaceOnUse">
<stop offset="0.390625"/>
<stop offset="1" stop-color="#D9D9D9" stop-opacity="0"/>
</linearGradient>
<linearGradient id="paint75_linear" x1="163.151" y1="330.907" x2="170.827" y2="338.73" gradientUnits="userSpaceOnUse">
<stop offset="0.390625"/>
<stop offset="1" stop-color="#D9D9D9" stop-opacity="0"/>
</linearGradient>
<linearGradient id="paint76_linear" x1="195.718" y1="330.907" x2="203.393" y2="338.73" gradientUnits="userSpaceOnUse">
<stop offset="0.390625"/>
<stop offset="1" stop-color="#D9D9D9" stop-opacity="0"/>
</linearGradient>
<linearGradient id="paint77_linear" x1="0.322981" y1="363.469" x2="7.99878" y2="371.292" gradientUnits="userSpaceOnUse">
<stop offset="0.390625"/>
<stop offset="1" stop-color="#D9D9D9" stop-opacity="0"/>
</linearGradient>
<linearGradient id="paint78_linear" x1="32.8894" y1="363.469" x2="40.5652" y2="371.292" gradientUnits="userSpaceOnUse">
<stop offset="0.390625"/>
<stop offset="1" stop-color="#D9D9D9" stop-opacity="0"/>
</linearGradient>
<linearGradient id="paint79_linear" x1="65.4558" y1="363.469" x2="73.1316" y2="371.292" gradientUnits="userSpaceOnUse">
<stop offset="0.390625"/>
<stop offset="1" stop-color="#D9D9D9" stop-opacity="0"/>
</linearGradient>
<linearGradient id="paint80_linear" x1="98.0222" y1="363.469" x2="105.698" y2="371.292" gradientUnits="userSpaceOnUse">
<stop offset="0.390625"/>
<stop offset="1" stop-color="#D9D9D9" stop-opacity="0"/>
</linearGradient>
<linearGradient id="paint81_linear" x1="130.585" y1="363.469" x2="138.26" y2="371.292" gradientUnits="userSpaceOnUse">
<stop offset="0.390625"/>
<stop offset="1" stop-color="#D9D9D9" stop-opacity="0"/>
</linearGradient>
<linearGradient id="paint82_linear" x1="163.151" y1="363.469" x2="170.827" y2="371.292" gradientUnits="userSpaceOnUse">
<stop offset="0.390625"/>
<stop offset="1" stop-color="#D9D9D9" stop-opacity="0"/>
</linearGradient>
<linearGradient id="paint83_linear" x1="195.718" y1="363.469" x2="203.393" y2="371.292" gradientUnits="userSpaceOnUse">
<stop offset="0.390625"/>
<stop offset="1" stop-color="#D9D9D9" stop-opacity="0"/>
</linearGradient>
<linearGradient id="paint84_linear" x1="0.322981" y1="396.036" x2="7.99878" y2="403.859" gradientUnits="userSpaceOnUse">
<stop offset="0.390625"/>
<stop offset="1" stop-color="#D9D9D9" stop-opacity="0"/>
</linearGradient>
<linearGradient id="paint85_linear" x1="32.8894" y1="396.036" x2="40.5652" y2="403.859" gradientUnits="userSpaceOnUse">
<stop offset="0.390625"/>
<stop offset="1" stop-color="#D9D9D9" stop-opacity="0"/>
</linearGradient>
<linearGradient id="paint86_linear" x1="65.4558" y1="396.036" x2="73.1316" y2="403.859" gradientUnits="userSpaceOnUse">
<stop offset="0.390625"/>
<stop offset="1" stop-color="#D9D9D9" stop-opacity="0"/>
</linearGradient>
<linearGradient id="paint87_linear" x1="98.0222" y1="396.036" x2="105.698" y2="403.859" gradientUnits="userSpaceOnUse">
<stop offset="0.390625"/>
<stop offset="1" stop-color="#D9D9D9" stop-opacity="0"/>
</linearGradient>
<linearGradient id="paint88_linear" x1="130.585" y1="396.036" x2="138.26" y2="403.859" gradientUnits="userSpaceOnUse">
<stop offset="0.390625"/>
<stop offset="1" stop-color="#D9D9D9" stop-opacity="0"/>
</linearGradient>
<linearGradient id="paint89_linear" x1="163.151" y1="396.036" x2="170.827" y2="403.859" gradientUnits="userSpaceOnUse">
<stop offset="0.390625"/>
<stop offset="1" stop-color="#D9D9D9" stop-opacity="0"/>
</linearGradient>
<linearGradient id="paint90_linear" x1="195.718" y1="396.036" x2="203.393" y2="403.859" gradientUnits="userSpaceOnUse">
<stop offset="0.390625"/>
<stop offset="1" stop-color="#D9D9D9" stop-opacity="0"/>
</linearGradient>
<linearGradient id="paint91_linear" x1="0.322981" y1="428.603" x2="7.99878" y2="436.426" gradientUnits="userSpaceOnUse">
<stop offset="0.390625"/>
<stop offset="1" stop-color="#D9D9D9" stop-opacity="0"/>
</linearGradient>
<linearGradient id="paint92_linear" x1="32.8889" y1="428.603" x2="40.5647" y2="436.426" gradientUnits="userSpaceOnUse">
<stop offset="0.390625"/>
<stop offset="1" stop-color="#D9D9D9" stop-opacity="0"/>
</linearGradient>
<linearGradient id="paint93_linear" x1="65.4558" y1="428.602" x2="73.1316" y2="436.425" gradientUnits="userSpaceOnUse">
<stop offset="0.390625"/>
<stop offset="1" stop-color="#D9D9D9" stop-opacity="0"/>
</linearGradient>
<linearGradient id="paint94_linear" x1="98.0222" y1="428.602" x2="105.698" y2="436.425" gradientUnits="userSpaceOnUse">
<stop offset="0.390625"/>
<stop offset="1" stop-color="#D9D9D9" stop-opacity="0"/>
</linearGradient>
<linearGradient id="paint95_linear" x1="130.585" y1="428.602" x2="138.26" y2="436.425" gradientUnits="userSpaceOnUse">
<stop offset="0.390625"/>
<stop offset="1" stop-color="#D9D9D9" stop-opacity="0"/>
</linearGradient>
<linearGradient id="paint96_linear" x1="163.151" y1="428.602" x2="170.827" y2="436.425" gradientUnits="userSpaceOnUse">
<stop offset="0.390625"/>
<stop offset="1" stop-color="#D9D9D9" stop-opacity="0"/>
</linearGradient>
<linearGradient id="paint97_linear" x1="195.718" y1="428.603" x2="203.394" y2="436.426" gradientUnits="userSpaceOnUse">
<stop offset="0.390625"/>
<stop offset="1" stop-color="#D9D9D9" stop-opacity="0"/>
</linearGradient>
<linearGradient id="paint98_linear" x1="0.322981" y1="461.169" x2="7.99878" y2="468.992" gradientUnits="userSpaceOnUse">
<stop offset="0.390625"/>
<stop offset="1" stop-color="#D9D9D9" stop-opacity="0"/>
</linearGradient>
<linearGradient id="paint99_linear" x1="32.8889" y1="461.169" x2="40.5647" y2="468.992" gradientUnits="userSpaceOnUse">
<stop offset="0.390625"/>
<stop offset="1" stop-color="#D9D9D9" stop-opacity="0"/>
</linearGradient>
<linearGradient id="paint100_linear" x1="65.4558" y1="461.168" x2="73.1316" y2="468.992" gradientUnits="userSpaceOnUse">
<stop offset="0.390625"/>
<stop offset="1" stop-color="#D9D9D9" stop-opacity="0"/>
</linearGradient>
<linearGradient id="paint101_linear" x1="98.0222" y1="461.168" x2="105.698" y2="468.992" gradientUnits="userSpaceOnUse">
<stop offset="0.390625"/>
<stop offset="1" stop-color="#D9D9D9" stop-opacity="0"/>
</linearGradient>
<linearGradient id="paint102_linear" x1="130.585" y1="461.168" x2="138.26" y2="468.992" gradientUnits="userSpaceOnUse">
<stop offset="0.390625"/>
<stop offset="1" stop-color="#D9D9D9" stop-opacity="0"/>
</linearGradient>
<linearGradient id="paint103_linear" x1="163.151" y1="461.168" x2="170.827" y2="468.992" gradientUnits="userSpaceOnUse">
<stop offset="0.390625"/>
<stop offset="1" stop-color="#D9D9D9" stop-opacity="0"/>
</linearGradient>
<linearGradient id="paint104_linear" x1="195.718" y1="461.169" x2="203.394" y2="468.992" gradientUnits="userSpaceOnUse">
<stop offset="0.390625"/>
<stop offset="1" stop-color="#D9D9D9" stop-opacity="0"/>
</linearGradient>
</defs>
</svg>
