<svg width="16" height="14" viewBox="0 0 16 14" fill="none" xmlns="http://www.w3.org/2000/svg">
<path fill-rule="evenodd" clip-rule="evenodd" d="M4.07826 8.08479L0.491271 6.71608C0.126947 6.5765 0.123782 6.05067 0.487068 5.90743L15.2082 0.10151C15.5203 -0.0218856 15.8423 0.257638 15.7743 0.592706L13.1325 13.5843C13.0702 13.8911 12.7185 14.0302 12.4702 13.8457L8.86388 11.1689C8.64485 11.0063 8.34632 11.015 8.13673 11.1896L6.13728 12.8561C5.90518 13.0501 5.55549 12.942 5.46665 12.6496L4.07826 8.08479ZM12.2532 2.94252L5.24287 7.3567C4.97418 7.52625 4.84767 7.85798 4.93448 8.16854L5.69245 10.8914C5.74626 11.0843 6.02019 11.0645 6.04629 10.8652L6.24337 9.37199C6.28052 9.09088 6.4117 8.83188 6.61506 8.63836L12.4006 3.14018C12.5088 3.03758 12.3792 2.86342 12.2532 2.94252Z" fill="white"/>
</svg>
