<svg width="14" height="14" viewBox="0 0 14 14" fill="none" xmlns="http://www.w3.org/2000/svg">
<path fill-rule="evenodd" clip-rule="evenodd" d="M1.85643 0.238281C2.75447 0.238281 3.48374 0.967548 3.48374 1.86612C3.48374 2.76521 2.75447 3.49448 1.85643 3.49448C0.954702 3.49448 0.227539 2.76521 0.227539 1.86612C0.227539 0.967548 0.954702 0.238281 1.85643 0.238281Z" fill="white"/>
<path fill-rule="evenodd" clip-rule="evenodd" d="M0.450195 13.7609H3.26V4.72791H0.450195V13.7609Z" fill="white"/>
<path fill-rule="evenodd" clip-rule="evenodd" d="M5.01904 4.72861H7.71002V5.96368H7.7484C8.12276 5.25334 9.03921 4.50462 10.4052 4.50462C13.2471 4.50462 13.7723 6.37485 13.7723 8.80766V13.7616H10.9662V9.36868C10.9662 8.32131 10.9473 6.97372 9.50663 6.97372C8.046 6.97372 7.82307 8.1152 7.82307 9.29402V13.7616H5.01904V4.72861Z" fill="white"/>
</svg>
