<svg width="16" height="14" viewBox="0 0 16 14" fill="none" xmlns="http://www.w3.org/2000/svg">
<path fill-rule="evenodd" clip-rule="evenodd" d="M5.04606 13.5767C11.0548 13.5767 14.3413 8.51563 14.3413 4.12669C14.3413 3.98294 14.3413 3.83983 14.3318 3.69738C14.9711 3.22721 15.523 2.64507 15.9617 1.97819C15.3654 2.24679 14.7329 2.42293 14.0853 2.50075C14.7673 2.08567 15.2777 1.43283 15.5215 0.663712C14.8803 1.05058 14.1787 1.32323 13.4471 1.46988C12.4344 0.37517 10.8253 0.107235 9.52207 0.816321C8.21882 1.52541 7.54553 3.03517 7.87973 4.49901C5.253 4.36514 2.80567 3.1038 1.14682 1.02892C0.279728 2.54649 0.722622 4.48792 2.15825 5.46254C1.63836 5.44687 1.1298 5.30429 0.675497 5.04682C0.675497 5.06042 0.675497 5.07467 0.675497 5.08891C0.675923 6.66991 1.77212 8.03162 3.29644 8.34468C2.81548 8.47803 2.31085 8.49752 1.82132 8.40166C2.2493 9.75462 3.47578 10.6815 4.87346 10.7082C3.71664 11.6325 2.28759 12.1342 0.816257 12.1327C0.556331 12.1322 0.296658 12.1162 0.0385742 12.0848C1.53256 13.0595 3.2709 13.5765 5.04606 13.5741" fill="white"/>
</svg>
