<svg width="20" height="20" viewBox="0 0 20 20" fill="none" xmlns="http://www.w3.org/2000/svg">
<path d="M9.99971 2.55324C12.4252 2.55324 12.7124 2.5625 13.6704 2.6062C14.556 2.64662 15.037 2.79457 15.3571 2.91897C15.7516 3.06459 16.1085 3.29678 16.4015 3.59848C16.7032 3.89148 16.9354 4.24838 17.081 4.64292C17.2054 4.96301 17.3534 5.44398 17.3938 6.32963C17.4375 7.2875 17.4468 7.57477 17.4468 10.0003C17.4468 12.4258 17.4375 12.713 17.3938 13.671C17.3534 14.5566 17.2054 15.0376 17.081 15.3577C16.9299 15.7494 16.6985 16.1052 16.4015 16.4021C16.1046 16.6991 15.7488 16.9305 15.3571 17.0816C15.037 17.206 14.556 17.354 13.6704 17.3944C12.7127 17.4381 12.4254 17.4474 9.99971 17.4474C7.574 17.4474 7.28683 17.4381 6.32903 17.3944C5.44338 17.354 4.96245 17.206 4.64233 17.0816C4.24778 16.936 3.89088 16.7038 3.59788 16.4021C3.29618 16.1091 3.06399 15.7522 2.91837 15.3577C2.79397 15.0376 2.64599 14.5566 2.60561 13.671C2.56191 12.7131 2.55264 12.4258 2.55264 10.0003C2.55264 7.57477 2.56191 7.28758 2.60561 6.32963C2.64603 5.44398 2.79397 4.96304 2.91837 4.64292C3.06401 4.24836 3.29623 3.89145 3.59795 3.59844C3.89096 3.29675 4.24785 3.06455 4.6424 2.91893C4.96248 2.79453 5.44346 2.64655 6.3291 2.60617C7.28698 2.56247 7.57425 2.5532 9.99978 2.5532L9.99971 2.55324ZM9.99978 0.916504C7.53278 0.916504 7.22334 0.926961 6.25461 0.971167C5.28772 1.0153 4.62743 1.16884 4.04965 1.3934C3.44354 1.62149 2.89448 1.97904 2.44075 2.44113C1.97856 2.89483 1.62091 3.44389 1.39273 4.05003C1.16835 4.62785 1.01481 5.28814 0.970859 6.25503C0.926472 7.22375 0.916016 7.5332 0.916016 10.0002C0.916016 12.4672 0.926472 12.7766 0.970859 13.7454C1.01499 14.7123 1.16853 15.3725 1.39309 15.9503C1.62118 16.5564 1.97874 17.1055 2.44082 17.5592C2.89455 18.0213 3.44361 18.3789 4.04972 18.607C4.62754 18.8315 5.28783 18.9851 6.25468 19.0292C7.22355 19.0734 7.53289 19.0839 9.99985 19.0839C12.4668 19.0839 12.7763 19.0734 13.745 19.0292C14.7119 18.9851 15.3722 18.8315 15.95 18.607C16.5534 18.3736 17.1014 18.0167 17.5589 17.5592C18.0164 17.1018 18.3732 16.5537 18.6066 15.9503C18.8312 15.3725 18.9847 14.7122 19.0288 13.7454C19.073 12.7765 19.0835 12.4672 19.0835 10.0002C19.0835 7.53324 19.073 7.22375 19.0288 6.25503C18.9847 5.28814 18.8312 4.62785 18.6066 4.05006C18.3785 3.44395 18.021 2.89489 17.5589 2.44117C17.1051 1.97899 16.556 1.62136 15.9499 1.39322C15.3721 1.16884 14.7118 1.0153 13.7449 0.971348C12.7761 0.926961 12.4667 0.916504 9.99971 0.916504H9.99978Z" fill="white"/>
<path d="M9.99859 5.33545C9.07602 5.33545 8.17417 5.60902 7.40708 6.12158C6.63999 6.63413 6.04211 7.36264 5.68906 8.21499C5.33601 9.06733 5.24363 10.0052 5.42362 10.9101C5.6036 11.8149 6.04786 12.6461 6.70022 13.2984C7.35257 13.9508 8.18373 14.395 9.08857 14.575C9.99342 14.755 10.9313 14.6626 11.7837 14.3096C12.636 13.9565 13.3645 13.3587 13.8771 12.5916C14.3896 11.8245 14.6632 10.9226 14.6632 10.0001C14.6632 8.76292 14.1717 7.57646 13.297 6.70168C12.4222 5.8269 11.2357 5.33545 9.99859 5.33545ZM9.99859 13.0279C9.39973 13.0279 8.81433 12.8503 8.3164 12.5176C7.81848 12.1849 7.43039 11.712 7.20123 11.1587C6.97206 10.6055 6.9121 9.99667 7.02894 9.40932C7.14577 8.82197 7.43415 8.28246 7.85761 7.85901C8.28107 7.43556 8.82058 7.14718 9.40793 7.03036C9.99528 6.91353 10.6041 6.97349 11.1574 7.20267C11.7106 7.43184 12.1835 7.81993 12.5162 8.31786C12.8489 8.81579 13.0265 9.4012 13.0265 10.0001C13.0265 10.8031 12.7075 11.5732 12.1396 12.1411C11.5718 12.7089 10.8016 13.0279 9.99859 13.0279Z" fill="white"/>
<path d="M14.8478 6.24157C15.4498 6.24157 15.9379 5.75355 15.9379 5.15155C15.9379 4.54954 15.4498 4.06152 14.8478 4.06152C14.2458 4.06152 13.7578 4.54954 13.7578 5.15155C13.7578 5.75355 14.2458 6.24157 14.8478 6.24157Z" fill="white"/>
</svg>
