<svg width="24" height="24" viewBox="0 0 24 24" fill="none" xmlns="http://www.w3.org/2000/svg">
<path fill-rule="evenodd" clip-rule="evenodd" d="M19.9671 6.66662C19.3406 6.9469 18.6722 7.1368 17.9655 7.22287C18.6844 6.78497 19.2376 6.09314 19.4978 5.26898C18.8251 5.66708 18.0781 5.95758 17.2838 6.11897C16.6488 5.43037 15.7442 5 14.7397 5C12.8156 5 11.2547 6.58162 11.2547 8.52905C11.2547 8.80879 11.2866 9.07777 11.345 9.336C8.44828 9.19613 5.8797 7.78666 4.16112 5.65632C3.85903 6.17384 3.68913 6.77636 3.68913 7.43268C3.68913 8.65924 4.305 9.7384 5.23941 10.3721C4.66868 10.3538 4.12979 10.1946 3.66046 9.93099V9.97402C3.66046 11.6848 4.86034 13.1136 6.45628 13.4385C6.16321 13.5181 5.85528 13.5612 5.53779 13.5612C5.3148 13.5612 5.10244 13.5397 4.8906 13.4988C5.33604 14.9018 6.62086 15.9228 8.14991 15.9519C6.96065 16.8992 5.45284 17.4625 3.82876 17.4625C3.55269 17.4625 3.27661 17.4464 3 17.4146C4.55028 18.4147 6.37664 19 8.35219 19C14.7651 19 18.2697 13.6203 18.2697 8.96157C18.2697 8.81094 18.2697 8.66031 18.2586 8.50968C18.9387 8.01476 19.5333 7.39072 20 6.6806L19.9671 6.66662Z" fill="black"/>
</svg>
