<svg width="24" height="24" viewBox="0 0 24 24" fill="none" xmlns="http://www.w3.org/2000/svg">
<path d="M9.49896 20.4443C8.7919 19.6005 8.21116 18.4635 7.80292 17.1336C6.46325 16.7284 5.31776 16.1519 4.46777 15.4501C5.33396 17.7539 7.17811 19.5844 9.49896 20.4443Z" fill="black"/>
<path d="M4.01758 13.072C4.35502 14.2085 5.64205 15.2337 7.48738 15.9073C7.29983 15.017 7.18393 14.0639 7.15074 13.072H4.01758L4.01758 13.072Z" fill="black"/>
<path d="M8.22168 13.072C8.26273 14.2183 8.42156 15.2986 8.67196 16.2708C9.58437 16.5023 10.5912 16.655 11.6583 16.7078V13.072H8.22168L8.22168 13.072Z" fill="black"/>
<path d="M11.6582 17.7716C10.7438 17.7294 9.86414 17.6182 9.03809 17.4468C9.66967 19.1517 10.6081 20.3765 11.6582 20.8081V17.7716Z" fill="black"/>
<path d="M15.4863 20.4443C17.8072 19.5844 19.6513 17.7539 20.5175 15.4501C19.6675 16.1519 18.522 16.7284 17.1824 17.1336C16.7741 18.4635 16.1934 19.6005 15.4863 20.4443H15.4863Z" fill="black"/>
<path d="M20.9679 13.072H17.8347C17.8015 14.0639 17.6856 15.017 17.498 15.9073C19.3434 15.2337 20.6304 14.2085 20.9679 13.072V13.072Z" fill="black"/>
<path d="M16.7638 13.072H12.792V16.7256C14.058 16.7034 15.2499 16.5407 16.3135 16.2708C16.5639 15.2986 16.7227 14.2183 16.7638 13.072V13.072Z" fill="black"/>
<path d="M12.792 17.7883V20.9565C14.0549 20.7727 15.2102 19.4368 15.9473 17.4468C14.9613 17.6515 13.8988 17.7702 12.792 17.7883H12.792Z" fill="black"/>
<path d="M9.49896 4.51221C7.17811 5.37203 5.33396 7.20262 4.46777 9.50639C5.31776 8.80453 6.46325 8.22806 7.80292 7.82283C8.21116 6.49301 8.7919 5.35594 9.49896 4.51221V4.51221Z" fill="black"/>
<path d="M4 11.947H7.14875C7.17909 10.9327 7.29588 9.95821 7.48737 9.04919C5.60827 9.73509 4.3081 10.7856 4 11.947H4Z" fill="black"/>
<path d="M8.21973 11.947H11.6585V8.24878C10.5914 8.30153 9.58453 8.4542 8.67212 8.68575C8.41718 9.67563 8.25716 10.7775 8.21973 11.947H8.21973Z" fill="black"/>
<path d="M11.6582 7.18491V4.14844C10.6081 4.57996 9.66967 5.80478 9.03809 7.50973C9.86414 7.33826 10.7438 7.22714 11.6582 7.18491Z" fill="black"/>
<path d="M15.4863 4.51221C16.1934 5.35594 16.7741 6.49301 17.1824 7.82283C18.522 8.22806 19.6675 8.80453 20.5175 9.50639C19.6513 7.20262 17.8072 5.37203 15.4863 4.51221V4.51221Z" fill="black"/>
<path d="M20.9854 11.947C20.6773 10.7856 19.3772 9.73509 17.498 9.04919C17.6895 9.95821 17.8063 10.9327 17.8367 11.947H20.9854Z" fill="black"/>
<path d="M16.7659 11.947C16.7285 10.7775 16.5685 9.67558 16.3135 8.6857C15.2499 8.41579 14.058 8.25307 12.792 8.23083V11.947H16.7659Z" fill="black"/>
<path d="M12.792 7.1682C13.8988 7.18636 14.9613 7.30506 15.9473 7.50975C15.2102 5.51974 14.0549 4.18383 12.792 4L12.792 7.1682H12.792Z" fill="black"/>
</svg>
