<svg version="1.1" id="Слой_2_1_" xmlns="http://www.w3.org/2000/svg" x="0" y="0" viewBox="0 0 512 512" xml:space="preserve"><style>.st0{fill:#ffe400}</style><path class="st0" d="M408.6 475.8c-2.7 0-5-1.6-6-4s-.5-5.2 1.4-7.1l59.7-59.7c1.2-1.2 2.9-1.9 4.6-1.9 3.6 0 6.5 2.9 6.5 6.5v59.7c0 3.6-2.9 6.5-6.5 6.5h-59.7zm15.8-13h37.4v-37.4l-37.4 37.4zM135.5 339.3c-3.6 0-6.5-2.9-6.5-6.5s2.9-6.5 6.5-6.5h61.7v-95.9c0-1.7.7-3.4 1.9-4.6l51.2-51.2c1.2-1.2 2.9-1.9 4.6-1.9s3.4.7 4.6 1.9l51.2 51.2c1.2 1.2 1.9 2.9 1.9 4.6v95.9h61.7c3.6 0 6.5 2.9 6.5 6.5s-2.9 6.5-6.5 6.5H135.5zm74.8-13h89.3V237h-89.3v89.3zm9.3-102.5h70.9L255 188.4l-35.4 35.4zm28.9-85.3h13.1v13.1h-13.1zm0 221.9h13.1v13.1h-13.1zM377 83.3l-48.1 52.4c-.5.5-.9 1.2-1.2 1.9-.1.2-.1.4-.2.6-.1.1-.1.3-.2.4-.1.1-.1.2-.1.2L317 187.5c-.4 1.7-.1 3.4.9 4.9.9 1.4 2.4 2.4 4.1 2.8.4.1.9.1 1.3.1.6 0 1.2-.1 1.8-.3l47.7-14.1h.1c.2-.1.3-.1.5-.2.1 0 .3-.1.5-.2.7-.3 1.4-.8 1.9-1.3l68.9-74.4v28.9l13.2-6.6 35.3-36.8c1.2-1.3 1.8-3 1.7-4.7-.1-1.8-.8-3.4-2.1-4.6l-14-13 18.8-20.3c2.4-2.6 2.2-6.8-.4-9.2L459.7 3.7c-1.2-1.1-2.8-1.7-4.4-1.7-1.8 0-3.5.7-4.8 2.1l-61.3 66.2-12.2 13zm-45.1 96.1l5.6-26.7 20.6 19.1-26.2 7.6zM479.1 86l-21.3 23.1V90.7l12.1-13.2 9.2 8.5zm-23.6-68.3l28 25.9-14.3 15.5-28-25.9 14.3-15.5zm-23.1 25.2l28 25.9-15.6 16.8-74.1 80-28-25.9 89.7-96.8z"/><path class="st0" d="M327.1 499c-2.5 2.6-2.4 6.7.2 9.2 1.2 1.2 2.8 1.8 4.5 1.8h170.8c3.6 0 6.5-2.9 6.5-6.5V324.3c0-2.7-1.6-5.1-4.1-6.1-.7-.3-1.6-.5-2.4-.5-1.8 0-3.6.7-4.8 2l-39.9 41.9-13.2 13.8-50.7 53.3-12.4 13.1-54.5 57.2zm168.8-158.4v156.3H347l148.9-156.3z"/><path d="M394 428.7H215.9l-.6-1c-1.3-2.2-3-4.2-4.9-5.8L197.3 411c-4.2-3.6-9.6-5.5-15.1-5.5-7.1 0-13.7 3.1-18.2 8.5l-12.1 14.6h-61V83.3H377l-.1.1h.1l12.2-13.1H90.9v-2c-.1-22.4-18.3-40.7-40.7-40.7h-8.5C19.3 27.7 1 45.9 1 68.3v366.9c0 3.6 2.9 6.5 6.5 6.5h133.6l-20.7 24.8c-2.3 2.8-2 6.9.8 9.2l39.3 32.8c1.2 1 2.7 1.5 4.2 1.5 1.9 0 3.8-.9 5-2.3l43.7-52.5c2.8-3.3 4.6-7.4 5.2-11.7l.2-1.7h162.8l12.4-13.1zm-316.2-.1H14.1v-2c0-15.2 12.4-27.6 27.6-27.6h8.5c15.2 0 27.6 12.4 27.6 27.6v2zm0-31.8l-3.2-2.5c-7-5.3-15.6-8.3-24.4-8.3h-8.5c-8.8 0-17.4 2.9-24.4 8.3l-3.2 2.5V68.3c0-15.2 12.4-27.6 27.6-27.6h8.5c15.2 0 27.6 12.4 27.6 27.6v328.5zm86.1 97.5l-29.3-24.4 24.4-29.4 29.3 24.5-24.4 29.3zm40-48.1v.1l-7.2 8.6-29.3-24.4 6.7-8.1c2-2.4 5-3.8 8.1-3.8 2.2 0 4.3.7 6.2 2.1h.2l.5.5 13 10.8c4.3 3.5 5 9.8 1.8 14.2zm253.9-337.1V90.7l-.2-.2-11.2 11.7-1.8 2.9v270.2c.1 0 .1 0 .2.1l13-13.7V109.1z" fill="#799cde"/></svg>