<svg version="1.1" id="Слой_3" xmlns="http://www.w3.org/2000/svg" x="0" y="0" viewBox="0 0 512 512" xml:space="preserve"><style>.st0{fill:#799cde}</style><path class="st0" d="M111 160h232v8H111zm0 32h232v8H111zm0 32h232v8H111zm0 192h80v8h-80zm0 32h232v8H111z"/><path class="st0" d="M383 496H71V120h312v98.2l8-8v-90.3l3.4-.5C419.8 115.7 439 93.6 439 68c0-28.7-23.3-52-52-52H67c-28.7 0-52 23.3-52 52v400c0 2.2 1.8 4 4 4h44v28c0 2.2 1.8 4 4 4h320c2.2 0 4-1.8 4-4V301.7l-8 8V496zM71 112.1V84c0-6.6 5.4-12 12-12h28.1l-1 4.8c-3.5 17.3-17 30.8-34.3 34.3l-4.8 1zM387 24c24.3 0 44 19.7 44 44s-19.7 44-44 44H96.3l7-6.9c10.1-9.9 15.7-23 15.7-37.1s-5.6-27.2-15.7-37.1l-7-6.9H387zM63 84v380H23V68c0-24.3 19.7-44 44-44 20.8 0 38.9 14.8 43.1 35.2l1 4.8H83c-11 0-20 9-20 20z"/><path d="M484.8 218.2c-4.4 21.6-14.9 41.2-30.6 56.9L419 310.3l5.7 5.7 35.2-35.2c21.9-21.8 34.3-50.9 35-81.9v-1.4l.9-1.1c4.7-5.9 7.2-12.8 7.2-20.1 0-17.8-14.5-32.3-32.3-32.3-8.6 0-16.7 3.4-22.8 9.5L391 210.4v-.2l-8 8-37.7 37.7-8 8-24 24-7.9 8-57.2 57.2c-.3.2-.5.7-.7 1.1l-1.9 3.7h-.1l-22.1 44.3c-.7 1.5-.4 3.4.8 4.6l5.1 5.2-18.3 18.3 5.7 5.7 18.2-18.3 5.2 5.2c.7.8 1.7 1.2 2.8 1.2.6 0 1.2-.1 1.8-.4l44.3-22.1v-.1l3.7-1.9c.5-.3.9-.5 1.1-.7l86.9-86.9 2.3-2.3 8-8 96.4-96.5-2.6 13zM427 185.7l14.3 14.3L335 306.3 320.7 292 427 185.7zM243.8 415.1l-11.9-11.9 20.2-40.5 32.2 32.2-40.5 20.2zm47.2-24.8L256.7 356l58.3-58.3 34.3 34.3-58.3 58.3zm64-64L340.7 312 447 205.7l14.3 14.3L355 326.3zm112-112L432.7 180l20.8-20.9c4.6-4.6 10.7-7.1 17.2-7.1 13.4 0 24.3 10.9 24.3 24.2 0 6.5-2.5 12.6-7.1 17.2L467 214.3z" fill="#ffe400"/><path class="st0" d="M111 255.9v8h226.3l-24 24H111v8h194.4l42.4-42.6-2.5 2.6z"/></svg>