<svg fill="#ffea3b" xmlns="http://www.w3.org/2000/svg" viewBox="0 0 512 512"><path d="M44 467.1c-20.4 0-37-16.6-37-37v-300c0-20.4 16.6-37 37-37h422c20.4 0 37 16.6 37 37v300c0 20.4-16.6 37-37 37H44zm435.2-14L316 289.9 260.9 345c-1.3 1.3-3.1 2.1-4.9 2.1-1.9 0-3.7-.7-4.9-2l-56.3-55.8L30.9 453.1h448.3zm9.8-9.9V116.9L325.9 280.1 489 443.2zm-468 0l163.9-163.9L21 116.9v326.3zm235-113l223.1-223.1H31l225 223.1z"/><path d="M44 466.1c-19.9 0-36-16.1-36-36v-300c0-19.9 16.1-36 36-36h422c19.9 0 36 16.1 36 36v300c0 19.9-16.1 36-36 36H44zm437.6-12L316 288.5l-55.8 55.8c-1.1 1.1-2.7 1.8-4.2 1.8-1.6 0-3.1-.6-4.2-1.7l-57-56.5L28.5 454.1h453.1zM20 445.6l166.3-166.3L20 114.5v331.1zm470 0v-331L324.5 280.1 490 445.6zm-234-114l225.5-225.5h-453L256 331.6z"/></svg>