<svg fill="#ffea3b" xmlns="http://www.w3.org/2000/svg" viewBox="0 0 512 512"><path d="M131.9 335.8c-32.1-43.9-61-88-61-143.6C70.9 90.5 153.6 7.8 255.3 7.8h.8c101.2.5 183.6 83.2 183.6 184.4 0 55.6-28.8 99.7-61 143.6l-4.7 6.4-40.5 55.1c-39.4 53.5-65.4 88.8-76.7 104.2l-1.6 2.2-123.3-167.9zM256 472.3l.7-.4 3.4-4.7c11.8-16.1 57.5-78.5 85.2-116.5 2.2-3 4.3-5.9 6.2-8.5 2.5-3.5 4.7-6.5 6.6-9.1l.2-.2c1.4-1.9 2.5-3.4 3.4-4.7 1-1.4 1.8-2.5 2.3-3.2 31.5-42.9 57.6-82.6 57.6-132.9 0-91.8-74.6-166.4-166.4-166.4h-.5l-.5.1h-.2c-91 .7-165.1 75.3-165.1 166.4 0 50.2 26.1 90 57.6 133L254 471.9l.7.4h1.3z"/><path d="M255.3 296.1c-57.3 0-103.9-46.6-103.9-103.9 0-57.3 46.6-103.9 103.9-103.9 57.3 0 103.9 46.6 103.9 103.9 0 57.3-46.6 103.9-103.9 103.9zm0-189.8c-47.4 0-85.9 38.5-85.9 85.9 0 47.4 38.5 85.9 85.9 85.9s85.9-38.5 85.9-85.9c0-47.4-38.5-85.9-85.9-85.9z"/></svg>