<svg fill="#f7e01e" xmlns="http://www.w3.org/2000/svg" viewBox="0 0 512 512"><circle cx="339" cy="320" r="7"/><circle cx="153" cy="463" r="7"/><path d="M52.1 367c-24 0-44.9-16.8-48.5-39.2-.4-2.6-.6-5.2-.6-7.8V71C3 34.1 33.1 4 70 4c3.9 0 7 3.1 7 7v33h259.5L374 6.1c1.3-1.3 3.1-2.1 5-2.1.9 0 1.8.2 2.7.5 2.6 1.1 4.3 3.6 4.3 6.5v33h49V11c0-3.9 3.1-7 7-7 36.9 0 67 30.1 67 67v249c0 25.9-21.1 47-47 47H52.1zM50 287c-18.2 0-33 14.8-33 33 0 1.8.2 3.7.5 5.6C20 341.2 34.9 353 52.1 353H462c18.2 0 33-14.8 33-33 0-1.8-.2-3.7-.5-5.6C492 298.8 477 287 459.8 287H442c-3.9 0-7-3.1-7-7V58h-49v222c0 3.9-3.1 7-7 7H113c-2.8 0-5.4-1.7-6.5-4.3s-.5-5.6 1.5-7.6L322.7 58H77v222c0 3.9-3.1 7-7 7H50zm399-14h10.9c10.9 0 21.7 3.6 30.3 10l4.8 3.6V71c0-25.1-17.8-46.9-42.4-51.9l-3.6-.7V273zM59.4 19.1C34.8 24.1 17 45.9 17 71v215l4.8-3.6C30 276.3 39.7 273 50 273h13V18.3l-3.6.8zM319 253c3.9 0 7 3.1 7 7v13h46V28L129.8 273H186v-13c0-3.9 3.1-7 7-7s7 3.1 7 7v13h46v-13c0-3.9 3.1-7 7-7s7 3.1 7 7v13h52v-13c0-3.9 3.1-7 7-7z"/><path d="M257.9 227c-2.8 0-5.4-1.7-6.5-4.3-1.1-2.6-.5-5.6 1.5-7.6l61.1-61.2c1.3-1.3 3.1-2 5-2 .9 0 1.8.2 2.7.5 2.6 1.1 4.3 3.6 4.3 6.5V220c0 3.9-3.1 7-7 7h-61.1zm16.9-14H312v-37.3L274.8 213zM50 510c-25.9 0-47-21.1-47-47 0-12.5 4.9-24.3 13.8-33.2C25.6 420.9 37.5 416 50 416h349.6c.3 0 .6.1.9.1h.1c.3.1.5.1.8.2h.2l102.9 40c2.7 1.1 4.5 3.6 4.5 6.5s-1.8 5.5-4.5 6.5l-103 40-.2.1c-.1 0-.3.1-.4.1l-.3.1c-.2 0-.3.1-.4.1h-.3l-.4.1H50zm43.7-78.1c-8 19.8-8 42.5 0 62.3l.8 1.9h290l-2.2-4.4c-4.5-8.9-6.8-18.6-6.8-28.6 0-10.1 2.3-19.7 6.8-28.6l2.2-4.4h-290l-.8 1.8zM50 430c-8.8 0-17.1 3.4-23.3 9.7-6.2 6.2-9.7 14.5-9.7 23.3 0 18.2 14.8 33 33 33h29.3l-1.2-3.9c-5.9-18.8-5.9-39.4 0-58.2l1.2-3.9H50zm349.5 3c-6.6 8.7-10.1 19-10.1 30s3.5 21.3 10.1 30l1.4 1.8 36.9-14.3-.8-2.7c-1.7-5.4-1.9-10.5-1.9-14.8s.2-9.4 1.9-14.8l.8-2.7-36.9-14.3-1.4 1.8zm50.3 20.9c-.6 2.5-.8 5.3-.8 9.1s.3 6.6.8 9.1l.8 3.4 32-12.4-32-12.4-.8 3.2z"/><path d="M193 470c-3.9 0-7-3.1-7-7s3.1-7 7-7h146c3.9 0 7 3.1 7 7s-3.1 7-7 7H193zm-40-143c-3.9 0-7-3.1-7-7s3.1-7 7-7h146c3.9 0 7 3.1 7 7s-3.1 7-7 7H153z"/></svg>