<svg version="1.1" id="Слой_2_1_" xmlns="http://www.w3.org/2000/svg" x="0" y="0" viewBox="0 0 512 512" xml:space="preserve"><style>.st0{fill:#799cde}.st1{fill:#ffe400}</style><path class="st0" d="M163.7 167.2c-2.2 0-4-1.8-4-4s1.8-4 4-4h192.8c2.2 0 4 1.8 4 4s-1.8 4-4 4H163.7zm0 61.5c-2.2 0-4-1.8-4-4s1.8-4 4-4h192.8c2.2 0 4 1.8 4 4s-1.8 4-4 4H163.7zm0 51.3c-2.2 0-4-1.8-4-4s1.8-4 4-4h192.8c2.2 0 4 1.8 4 4s-1.8 4-4 4H163.7z"/><path class="st1" d="M95.4 406.9c-1 0-2-.4-2.8-1.1l-27.3-26.6c-1.5-1.5-1.6-4-.1-5.6.8-.8 1.8-1.2 2.9-1.2 1 0 2 .4 2.8 1.1l24.5 23.9 46.4-45.2c.7-.7 1.7-1.1 2.8-1.1s2.1.4 2.8 1.2c1.5 1.6 1.5 4.1 0 5.7l-49.2 48c-.7.5-1.7.9-2.8.9z"/><path class="st1" d="M171 453.1c7-5.4 13.5-13 18.8-22.1l.6-1 4-7.9 1.1-2.8c3.3-8 5-16.4 5.2-24.9v-84.5c0-1.5-.8-2.9-2.2-3.6L110.3 263l-3.9-1.2-4.2 1.3-88 43.1c-1.3.7-2.2 2.1-2.2 3.6v84.6c0 9.1 2.5 19.2 7.2 29.4 6.1 13 15.1 24.2 24.7 30.8l60.2 41c.7.5 1.5.7 2.3.7.8 0 1.6-.2 2.2-.6l45.5-31 12.2-8 4.7-3.6zm-64.6 34.4l-58-39.5c-8.5-5.8-16.4-15.8-21.9-27.6-4.2-8.9-6.5-18.2-6.5-26v-82.1l86.4-42.3 86.4 42.4v82c0 18.6-13 43.1-28.4 53.6l-58 39.5z"/><path class="st0" d="M496 456.8h-21.8v-62.1l1.6-.3c13.9-2.7 24-14.9 24-29.1 0-16.3-13.3-29.6-29.6-29.6s-29.6 13.3-29.6 29.6c0 14.2 10.1 26.4 24 29.1l1.6.3v62.1h-48.4v-355c0-2.2-1.8-4-4-4h-57.5v-66c0-2.2-1.8-4-4-4H167.7c-2.2 0-4 1.8-4 4v66h-57.5c-2.2 0-4 1.8-4 4v161.4l4.2-1.3 3.9 1.3h.2l-.2-.1V105.8H410v351h-63.8V426c0-2.2-1.8-4-4-4h-31.9v-93c0-2.2-1.8-4-4-4v.1H214c-2.2 0-4 1.8-4 4v93.1h-15.6l-4 7.9h147.8v26.7H166.3l-10.6 8H496c2.2 0 4-1.8 4-4s-1.8-4-4-4zm-147.6-359H171.8v-62h176.6v62zM302.2 422h-84.4v-89.1H256v84.7h8V333h38.2v89zm146.6-56.8c0-11.9 9.7-21.6 21.6-21.6 11.9 0 21.6 9.7 21.6 21.6 0 11.9-9.7 21.6-21.6 21.6-11.9 0-21.6-9.8-21.6-21.6z"/></svg>