<svg xmlns="http://www.w3.org/2000/svg" viewBox="0 0 512 512"><path d="M100 508c-10.2 0-18.5-8.3-18.5-18.5v-24H70c-10.2 0-18.5-8.3-18.5-18.5v-30.5c0-1.9 1.6-3.5 3.5-3.5s3.5 1.6 3.5 3.5V447c0 6.3 5.2 11.5 11.5 11.5h288c6.3 0 11.5-5.2 11.5-11.5V65c0-6.3-5.2-11.5-11.5-11.5h-33.1c-1.9 0-3.5-1.6-3.5-3.5s1.6-3.5 3.5-3.5H358c10.2 0 18.5 8.3 18.5 18.5v24H388c10.2 0 18.5 8.3 18.5 18.5v340.2c0 1.9-1.6 3.5-3.5 3.5s-3.5-1.6-3.5-3.5V107.5c0-6.3-5.2-11.5-11.5-11.5h-11.5v351c0 10.2-8.3 18.5-18.5 18.5H88.5v24c0 6.3 5.2 11.5 11.5 11.5h288c6.3 0 11.5-5.2 11.5-11.5v-9.6c0-1.9 1.6-3.5 3.5-3.5s3.5 1.6 3.5 3.5v9.6c0 10.2-8.3 18.5-18.5 18.5H100zM55 387.1c-1.9 0-3.5-1.6-3.5-3.5V65c0-10.2 8.3-18.5 18.5-18.5h18.4l1.1-2.2C92.6 37.9 98.9 34 106 34h9.7V20.1c0-8.9 7.2-16.1 16.1-16.1h18.8c8.9 0 16.1 7.2 16.1 16.1V34h9.7c7 0 13.3 3.9 16.5 10.3l1.1 2.2h98.8c1.9 0 3.5 1.6 3.5 3.5s-1.6 3.5-3.5 3.5h-98v29.2c0 5.7-4.6 10.3-10.3 10.3H98c-5.7 0-10.3-4.6-10.3-10.3V53.5H70c-6.3 0-11.5 5.2-11.5 11.5v318.6c0 2-1.6 3.5-3.5 3.5zM106 41c-6.2 0-11.3 5.1-11.3 11.3V86h93V52.3c0-6.2-5.1-11.3-11.3-11.3H106zm25.7-30c-5 0-9.1 4.1-9.1 9.1V34h37V20.1c0-5-4.1-9.1-9.1-9.1h-18.8z" fill="#799cde"/><path d="M202.5 178c-1.9 0-3.5-1.6-3.5-3.5s1.6-3.5 3.5-3.5h120c1.9 0 3.5 1.6 3.5 3.5s-1.6 3.5-3.5 3.5h-120zm0 32c-1.9 0-3.5-1.6-3.5-3.5s1.6-3.5 3.5-3.5h120c1.9 0 3.5 1.6 3.5 3.5s-1.6 3.5-3.5 3.5h-120zm0 65c-1.9 0-3.5-1.6-3.5-3.5s1.6-3.5 3.5-3.5h120c1.9 0 3.5 1.6 3.5 3.5s-1.6 3.5-3.5 3.5h-120zm0 32c-1.9 0-3.5-1.6-3.5-3.5s1.6-3.5 3.5-3.5h120c1.9 0 3.5 1.6 3.5 3.5s-1.6 3.5-3.5 3.5h-120zm0 65c-1.9 0-3.5-1.6-3.5-3.5s1.6-3.5 3.5-3.5h120c1.9 0 3.5 1.6 3.5 3.5s-1.6 3.5-3.5 3.5h-120zm0 32c-1.9 0-3.5-1.6-3.5-3.5s1.6-3.5 3.5-3.5h120c1.9 0 3.5 1.6 3.5 3.5s-1.6 3.5-3.5 3.5h-120zm-93-178c-4.1 0-7.5-3.4-7.5-7.5v-52c0-4.1 3.4-7.5 7.5-7.5h52c2.8 0 5.4 1.6 6.7 4.1l2.3 4.5 10.8-9.2c.6-.5 1.4-.8 2.3-.8 1 0 2 .4 2.7 1.2 1.3 1.5 1.1 3.7-.4 4.9L169 178v40.5c0 4.1-3.4 7.5-7.5 7.5h-52zm-.5-7h53v-35l-17.2 14.7c-.6.5-1.4.8-2.3.8-1 0-1.9-.4-2.6-1.1l-12-13c-1.3-1.4-1.2-3.6.2-4.9.6-.6 1.5-.9 2.4-.9 1 0 1.9.4 2.6 1.1l9.7 10.5 19.2-16.4V166h-53v53zm.5 104c-4.1 0-7.5-3.4-7.5-7.5v-52c0-4.1 3.4-7.5 7.5-7.5h52c2.9 0 5.6 1.7 6.8 4.4l2.2 4.8 10.7-9.1c.6-.5 1.4-.8 2.3-.8 1 0 2 .4 2.7 1.2 1.3 1.5 1.1 3.7-.4 4.9L169 275.7v39.8c0 4.1-3.4 7.5-7.5 7.5h-52zm-.5-7h53v-34.3l-17.2 14.7c-.6.5-1.4.8-2.3.8-1 0-1.9-.4-2.6-1.1l-12-13c-.6-.7-1-1.6-.9-2.5 0-.9.4-1.8 1.1-2.4.6-.6 1.5-.9 2.4-.9 1 0 1.9.4 2.6 1.1l9.7 10.5 19.2-16.4V263h-53v53zm.5 104c-4.1 0-7.5-3.4-7.5-7.5v-52c0-4.1 3.4-7.5 7.5-7.5h52c3.3 0 6.2 2.1 7.2 5.3l1.8 5.8 10.8-9.2c.6-.5 1.4-.8 2.3-.8 1 0 2 .4 2.7 1.2 1.3 1.5 1.1 3.7-.4 4.9L169 374.5v38c0 4.1-3.4 7.5-7.5 7.5h-52zm-.5-7h53v-32.5l-17.2 14.7c-.6.5-1.4.8-2.3.8-1 0-1.9-.4-2.6-1.1l-12-13c-.6-.7-1-1.6-.9-2.5 0-.9.4-1.8 1.1-2.4.6-.6 1.5-.9 2.4-.9 1 0 1.9.4 2.6 1.1l9.7 10.5 19.2-16.4V360h-53v53z" fill="#ffe400"/></svg>