<svg version="1.1" id="Слой_3" xmlns="http://www.w3.org/2000/svg" x="0" y="0" viewBox="0 0 569 569" xml:space="preserve"><style>.st0{fill:#ffe400}.st1{fill:#799cde}</style><path class="st0" d="M83.6 127.4l-36.7-9.2c-1.2-.3-2.2-1.1-2.8-2.1l-38-66.4c-1-1.7-.7-3.9.8-5.4l38-38c.8-.8 2-1.3 3.2-1.3.8 0 1.5.2 2.2.6l66.4 37.9c1.1.6 1.8 1.6 2.1 2.8L128 83l118.9 119-6.3 6.3L120.7 88.6c-.6-.6-1-1.3-1.2-2.1l-9.1-36.1-61.7-35.3-33.1 33.1 35.3 61.7L87 119c.8.2 1.5.6 2.1 1.2L208.9 240l-6.3 6.3-119-118.9z"/><path transform="rotate(-45.001 285.172 284.566)" class="st1" d="M142.6 280.1h285.2v9H142.6z"/><path class="st1" d="M85.9 507.3c-1.6 0-3-.8-3.8-2.2l-28.5-47.4c-.9-1.4-.9-3.2 0-4.6l28.5-47.4c.8-1.3 2.3-2.2 3.8-2.2h56.9c1.6 0 3 .8 3.8 2.2l28.5 47.4c.9 1.4.9 3.2 0 4.6l-28.5 47.4c-.8 1.3-2.3 2.2-3.8 2.2H85.9zm-23.2-51.9l25.8 42.9h51.8l25.8-42.9-25.8-42.9H88.5l-25.8 42.9z"/><path transform="rotate(-45.009 436.904 436.438)" class="st0" d="M432.4 374.3h9v124.2h-9z"/><path class="st0" d="M300.8 401.8c.9.8 2 1.3 3.2 1.3s2.4-.5 3.2-1.3l4.8-4.8c2.9-3 6.8-4.6 11-4.6s8.1 1.7 11.1 4.6c3 2.9 4.6 6.8 4.6 11s-1.6 8.1-4.6 11.1l-4.7 4.7c-1.7 1.7-1.7 4.6 0 6.3l113.2 113.1c13.5 13.7 31.6 21.2 50.8 21.2 19 0 36.9-7.3 50.5-20.7 13.6-13.4 21.1-31.4 21.2-50.5.1-19.1-7.2-37.1-20.7-50.7L430.8 328.9c-.9-.8-2-1.3-3.2-1.3s-2.4.5-3.2 1.3l-4.8 4.8c-2.9 3-6.8 4.6-11 4.6s-8.1-1.7-11.1-4.6c-5.9-5.9-6.2-15.3-.6-21.5v-.1l5.3-5.3c.8-.9 1.3-2 1.3-3.2s-.5-2.4-1.3-3.2l-25.3-25.3-101.4 101.4 25.3 25.3zm248.3 61.6l2.7 7.3c12.2 32.2-4.2 68.4-36.5 80.5-7.1 2.7-14.5 4-22.1 4-7.5 0-14.9-1.4-21.9-4l-7.3-2.7 85.1-85.1zM392.5 303.5l-2.9 3.5c-4.3 5.1-6.3 11.5-5.7 18 .6 6.5 3.7 12.5 8.7 16.7 4.4 3.7 10 5.7 15.8 5.7s11.4-2.1 15.8-5.8l3.5-3 109.6 109.8c1.2 1.1 2.3 2.3 3.6 3.9l3 3.5-87.6 87.6-3.5-2.9c-1.5-1.3-2.8-2.5-3.9-3.6L339.1 427.1l2.9-3.5c4.3-5.1 6.3-11.5 5.7-18-.6-6.5-3.7-12.5-8.7-16.7-4.4-3.7-10-5.7-15.8-5.7s-11.4 2-15.8 6l-3.5 2.9-22-22 88.6-88.5 22 21.9z"/><path class="st1" d="M376.9 275.1l55.2-55.2 2.6.5c6.9 1.4 14.1 2.2 21.2 2.2h.4c59.6 0 108.2-48.5 108.4-108.1.1-9.1-1.1-18.2-3.3-27.1-.5-2-2.2-3.4-4.3-3.4-.4 0-.7 0-1.1.1-.8.2-1.5.6-2.1 1.2l-61.2 61.2-52.2-17.4L423.1 77l61.2-61.2c1.8-1.7 1.8-4.5 0-6.3-.5-.6-1.3-1-2.1-1.2-8.8-2.2-17.7-3.3-26.7-3.3-49.7 0-92.9 33.7-105.3 82-2.2 8.8-3.3 17.9-3.3 27 0 7.1.8 14.2 2.2 21.2l.5 2.6L138 349.4l-2.6-.5c-6.9-1.4-14.1-2.2-21.2-2.2-60 0-108.8 48.8-108.8 108.8s48.8 108.8 108.8 108.8S223 515.5 223 455.5c0-7.1-.8-14.2-2.2-21.2l-.5-2.6 38.3-38.3 16.9-16.9 101.4-101.4zM212.4 427c-1.1 1.1-1.6 2.7-1.2 4.2 6.6 26 2.7 53-11 76.1-13.7 23.1-35.6 39.5-61.6 46.1-8.2 2-16.6 3.1-24.9 3.1-45.9 0-85.9-31.1-97.3-75.7C2.7 427.1 35.3 372.3 89 358.6c8.1-2.1 16.4-3.1 24.8-3.1 8.3 0 16.6 1 24.7 3.1.4.1.7.1 1.1.1 1.2 0 2.3-.5 3.2-1.3l215.1-215.1c1.1-1.1 1.6-2.7 1.2-4.2-13.6-53.1 18.6-107.4 71.7-121 8-2.1 16.3-3.1 24.6-3.1 2.1 0 4.2.1 6.2.2l11.1.7-57.9 57.9c-1.2 1.2-1.6 3-1.1 4.6l19 56.9c.4 1.3 1.5 2.4 2.8 2.8l56.9 19c.4.1.9.2 1.4.2 1.2 0 2.4-.5 3.2-1.3l58-58 .7 11.1c.1 2 .2 3.9.2 5.7.3 54.8-44.1 99.6-98.9 99.9h-.5c-8.4 0-16.7-1-24.7-3.1-.4-.1-.7-.1-1.1-.1-1 0-1.9.3-2.7.9L212.4 427z"/></svg>