<svg version="1.1" id="Слой_3" xmlns="http://www.w3.org/2000/svg" x="0" y="0" viewBox="0 0 512 512" xml:space="preserve"><style>.st0{fill:#799cde}.st1{fill:#ffe400}</style><path class="st0" d="M8.5 330.8c-2.5 0-4.5-2-4.5-4.5V44.7c0-16.6 13.5-30.1 30.1-30.1h443.7c8 0 15.6 3.1 21.3 8.8 5.7 5.7 8.8 13.3 8.8 21.3v281.6c0 2.5-2 4.5-4.5 4.5H8.5zM34.1 23.6C22.5 23.6 13 33.1 13 44.7v277.1h485.9V44.7c0-11.6-9.5-21.1-21.1-21.1H34.1z"/><path class="st0" d="M34.1 399.1C17.5 399.1 4 385.5 4 368.9v-42.7c0-2.5 2-4.5 4.5-4.5h494.9c2.5 0 4.5 2 4.5 4.5v42.7c0 16.6-13.5 30.1-30.1 30.1H34.1v.1zm-21-30.2c0 11.6 9.5 21.1 21.1 21.1h443.7c11.6 0 21.1-9.5 21.1-21.1v-38.1H13.1v38.1z"/><path class="st0" d="M230.4 364.9c-2.5 0-4.5-2-4.5-4.5s2-4.5 4.5-4.5h51.2c2.5 0 4.5 2 4.5 4.5s-2 4.5-4.5 4.5h-51.2zM42.7 330.8c-2.5 0-4.5-2-4.5-4.5V53.2c0-2.5 2-4.5 4.5-4.5h426.7c2.5 0 4.5 2 4.5 4.5v273.1c0 2.5-2 4.5-4.5 4.5H42.7zm4.5-9.1h417.6v-264H47.2v264zm97.9 179.8c-11.9 0-21.6-9.7-21.6-21.6s9.7-21.6 21.6-21.6H367c11.9 0 21.6 9.7 21.6 21.6s-9.7 21.6-21.6 21.6H145.1zm0-34.2c-6.9 0-12.5 5.6-12.5 12.5s5.6 12.5 12.5 12.5H367c6.9 0 12.5-5.6 12.5-12.5s-5.6-12.5-12.5-12.5H145.1z"/><path class="st0" d="M162.1 467.3c-2.5 0-4.5-2-4.5-4.5s2-4.5 4.5-4.5c31 0 46.7-21.4 46.7-63.7 0-2.5 2-4.5 4.5-4.5h85.3c2.5 0 4.5 2 4.5 4.5 0 42.3 15.7 63.7 46.7 63.7 2.5 0 4.5 2 4.5 4.5s-2 4.5-4.5 4.5H162.1zm55.5-64.5c-1.2 21.2-6.9 37.6-16.9 48.7l-6 6.7h122.6l-6-6.7c-10-11.1-15.7-27.5-16.9-48.7l-.2-3.8h-76.3l-.3 3.8z"/><path class="st1" d="M377.6 296.7c-1.2 0-2.4-.5-3.2-1.3L351 271.9l-14.9 14.9c-.8.8-2 1.3-3.2 1.3-.4 0-.7 0-1.1-.1-1.5-.4-2.8-1.6-3.2-3.1L303 199.6c-.5-1.6 0-3.3 1.1-4.5.9-.9 2-1.3 3.2-1.3.4 0 .9.1 1.3.2l85.3 25.6c1.5.5 2.7 1.7 3.1 3.2s-.1 3.2-1.2 4.3l-14.3 14.3 23.4 23.4c.9.9 1.3 2 1.3 3.2s-.5 2.3-1.3 3.2l-24.1 24.1c-.8.9-2 1.4-3.2 1.4zM351 262c1.9 0 3.7.7 5 2.1l21.6 21.6 17.7-17.7-22.6-22.6c-1.1-1.1-1.7-2.5-1.7-4s.6-2.9 1.7-4L384 226l-70-21 21 70 10.9-10.9c1.4-1.3 3.1-2.1 5.1-2.1zM119.5 134.5c-2.5 0-4.5-2-4.5-4.5V87.3c0-2.5 2-4.5 4.5-4.5h238.9c2.5 0 4.5 2 4.5 4.5V130c0 2.5-2 4.5-4.5 4.5H119.5zm4.5-9h229.9V91.9H124v33.6zm29.6 94.4c-2.5 0-4.5-2-4.5-4.5v-34.1c0-2.5 2-4.5 4.5-4.5h68.3c2.5 0 4.5 2 4.5 4.5v34.1c0 2.5-2 4.5-4.5 4.5h-68.3zm4.5-9.1h59.2v-25.1h-59.2v25.1z"/><path class="st1" d="M119.5 254c-2.5 0-4.5-2-4.5-4.5V87.3c0-2.5 2-4.5 4.5-4.5h238.9c2.5 0 4.5 2 4.5 4.5v126.3c0 1.4-.7 2.8-1.8 3.6-.8.6-1.7.9-2.7.9-.4 0-.9-.1-1.3-.2L314 205l12.9 43.1c.4 1.4.1 2.9-.7 4-.8 1.1-2.2 1.8-3.6 1.8l-203.1.1zm4.5-9.1h192.5l-13.6-45.4c-.5-1.6 0-3.3 1.1-4.5.9-.9 2-1.3 3.2-1.3.4 0 .9.1 1.3.2l45.3 13.6V91.9H124v153z"/></svg>