<svg version="1.1" id="Слой_2_1_" xmlns="http://www.w3.org/2000/svg" x="0" y="0" viewBox="0 0 512 512" xml:space="preserve"><style>.st0{fill:#ffe400}</style><path class="st0" d="M156.2 315.4c-8.2 0-15-6.7-15-15v-16.7c0-1.9-1.3-3.5-3.2-4.1-10.2-2.8-20.1-6.9-29.4-12.2-.7-.4-1.4-.6-2.1-.6-1.1 0-2 .4-2.8 1.1l-12 12c-2.8 2.8-6.6 4.4-10.6 4.4s-7.8-1.6-10.6-4.4l-21.2-21.2c-2.8-2.8-4.4-6.6-4.4-10.6s1.6-7.8 4.4-10.6l12-12c1.3-1.3 1.5-3.3.6-4.9-5.3-9.2-9.4-19.1-12.2-29.4-.5-1.9-2.2-3.2-4.1-3.2H29c-8.2 0-15-6.7-15-15v-30c0-8.2 6.7-15 15-15h16.7c1.9 0 3.5-1.3 4.1-3.2 2.8-10.2 6.9-20.1 12.2-29.4.9-1.6.7-3.6-.6-4.9l-12-12c-2.8-2.8-4.4-6.6-4.4-10.6s1.6-7.8 4.4-10.6l21.2-21.2c2.8-2.8 6.6-4.4 10.6-4.4s7.8 1.6 10.6 4.4l12 11.9c.7.7 1.7 1.1 2.8 1.1.7 0 1.5-.2 2.1-.6 9.2-5.3 19.1-9.4 29.4-12.2 1.9-.5 3.2-2.2 3.2-4.1V16c0-8.2 6.7-15 15-15h30c8.2 0 15 6.7 15 15v16.7c0 1.9 1.3 3.5 3.2 4.1 10.2 2.8 20.1 6.9 29.4 12.2.7.4 1.4.6 2.1.6 1.1 0 2-.4 2.8-1.1l12-12c2.8-2.8 6.6-4.4 10.6-4.4s7.8 1.6 10.6 4.4l2.2 2.2c2.3 2.3 1.8 4.6 1.3 5.7-.9 2.2-3.1 3.8-5.3 3.8-1.4 0-2.6-.6-3.8-1.7l-.1-.1h-.1l-.8-.8c-1.1-1.1-2.4-2.6-4.3-2.6-.7 0-1.7.2-2.7 1.2l-12 11.9c-2.8 2.8-6.6 4.3-10.6 4.4-2.7 0-5.3-.7-7.6-2-8.4-4.8-17.4-8.6-26.8-11.1-6.7-1.8-11.3-7.8-11.3-14.7V16c0-2.2-1.8-4-4-4h-30c-2.2 0-4 1.8-4 4v16.7c0 6.8-4.7 12.9-11.3 14.7-9.4 2.6-18.4 6.3-26.8 11.1-2.3 1.3-4.9 2-7.6 2-4 0-7.8-1.5-10.6-4.3L84 44.2c-.7-.7-1.7-1.2-2.8-1.2-1.1 0-2.1.4-2.8 1.2L57.2 65.4c-.7.7-1.2 1.7-1.2 2.8 0 1.1.4 2.1 1.2 2.8l12 12c4.8 4.8 5.7 12.2 2.3 18.2-4.8 8.4-8.6 17.5-11.1 26.8-1.8 6.7-7.8 11.3-14.7 11.3H29c-2.2 0-4 1.8-4 4v30c0 2.2 1.8 4 4 4h16.7c6.8 0 12.9 4.7 14.7 11.3 2.5 9.3 6.3 18.3 11.1 26.8 3.4 5.9 2.4 13.4-2.3 18.2l-11.9 12c-.7.7-1.2 1.7-1.2 2.8s.4 2 1.2 2.8l21.2 21.2c.7.7 1.7 1.2 2.8 1.2 1.1 0 2.1-.4 2.8-1.2L96 260.3c2.8-2.8 6.6-4.3 10.6-4.3 2.7 0 5.3.7 7.6 2 8.4 4.8 17.4 8.6 26.8 11.1 6.7 1.8 11.3 7.8 11.3 14.7v16.7c0 2.2 1.8 4 4 4h30c2.2 0 4-1.8 4-4v-16.7c0-6.8 4.7-12.9 11.3-14.7.6-.2 1.2-.2 1.7-.2 3.1 0 4.8 2.6 5.2 5 .3 2.2-.6 5-4 5.9-1.9.5-3.2 2.2-3.2 4.1v16.7c0 8.2-6.7 15-15 15h-30.1v-.2z"/><path class="st0" d="M171.2 226.9c-37.9 0-68.7-30.8-68.7-68.7s30.8-68.7 68.7-68.7c8.3 0 16.5 1.5 24.4 4.5 3.9 1.5 3.6 4.9 3.4 6-.4 2.4-2.3 4.8-5.2 4.8-.7 0-1.4-.1-2.2-.4-6.6-2.5-13.5-3.8-20.5-3.8-31.8 0-57.7 25.9-57.7 57.7s25.9 57.7 57.7 57.7c1.1 0 2.3 0 3.5-.1h.5c3.6 0 5.2 2.7 5.3 5.4.1 2.4-1.2 5.4-5.1 5.6h-4.1z"/><path d="M135.9 509c-15.7 0-28.6-12.8-28.6-28.6v-76.3c0-49.2 43.7-65.1 69.7-70.1l77.6-15.1v-21.5l-.9-.6c-2.9-2-5.9-4.2-8.6-6.6-14.6-12.5-23.8-30.4-25.9-50.3l-.2-1.6-1.7-.1c-10.1-.8-18-9.4-18-19.5V202l-1.2-.5c-9-3.9-11.6-12.2-11-18.6.7-8.1 6.3-14.5 14.1-16.3l1.5-.4v-7.5c0-52.3 42.5-94.8 94.8-94.8h8.1c52.3 0 94.8 42.6 94.8 94.9v7.5l1.5.4c7.9 1.8 13.4 8.2 14.1 16.3.6 6.4-2 14.7-11 18.6l-1.2.5v16.7c0 10.1-7.9 18.7-18 19.5l-1.7.1-.2 1.6c-2.6 23.5-14.5 43.2-34.5 56.9l-.9.6V319l77.6 15.1c26 5.1 69.7 20.9 69.7 70.1v76.3c0 15.7-12.8 28.6-28.6 28.6H135.9v-.1zm292.7-46.7c2.7 0 5.5 1.7 5.5 5.4V498h33.7c9.7 0 17.6-7.9 17.6-17.6v-76.3c0-23.5-10.7-39.5-33.7-50.5l-2.2-1.1-.6 2.4c-.2.7-.6 2-1.1 3.7-3.3 10.6-12 38.7-13.4 79.2-.1 3.9-3 5.2-5.5 5.2-1.6 0-3.1-.6-4.2-1.6-1-1-1.4-2.3-1.4-4 1.5-41.8 11.2-73.2 14.3-83.6.5-1.8.9-2.9 1.1-3.6l.4-1.8-1.7-.6c-5-1.7-5.3-1.7-13.6-3.3-6.5-1.2-18.7-3.5-42.7-8.3l-1.3-.3-.7 1.1c-11.8 17.4-51.5 74.5-61.4 88.7-6.7 9.5-10.2 20.7-10.2 32.4V498h115.7v-30.3c-.1-3.8 2.7-5.4 5.4-5.4zM222.7 336.4c-24 4.8-36.2 7.1-42.7 8.3-8.3 1.5-8.6 1.6-13.6 3.3l-1.7.6.4 1.8c.2 1 .7 2.5 1.4 4.7 3.9 12.5 14.2 45.9 14.2 93.8V498h115.7v-39.8c0-11.7-3.5-22.9-10.2-32.4-17.4-24.7-47.1-67.9-61.4-88.7l-.7-1.1-1.4.4zm-70.6 17.2c-23 11-33.7 27.1-33.7 50.6v76.3c0 9.7 7.9 17.6 17.6 17.6h33.7v-49.2c0-46-10.4-79.9-13.9-91-.4-1.4-.7-2.4-.8-2.8l-.6-2.4-2.3.9zm129.3 30.2c-1.9 1.1-4 2-6.1 2.4l-2.9.6 1.7 2.4c8.6 12.5 15.7 22.6 21 30.2 1.8 2.6 3.5 5.4 5 8.2l1.8 3.5 1.8-3.5c1.5-2.8 3.1-5.6 5-8.2 5.3-7.5 12.3-17.6 21-30.2l1.7-2.4-2.9-.6c-2.1-.5-4.2-1.3-6.1-2.4l-20.5-12.3-20.5 12.3zm66.3-52.2c-4.6 13.9-19.7 25.2-31.5 32.2l-2.9 1.7 14.7 8.8c1.1.7 2.6 1 4.2 1 3.4 0 8.2-1.6 11.3-6 9-13 17.3-25.1 22.8-33l1.7-2.5-19.7-3.8-.6 1.6zm-111.9 2.2l1.7 2.5c5.4 7.9 13.7 20 22.7 32.9 2.3 3.3 5.8 5.4 9.7 5.9.7.1 1.4.1 1.9.1 2.7 0 4.2-1 6.9-2.7 1.9-1.2 4.5-2.9 8.8-5.2l3.1-1.7-3.1-1.8c-11.8-7-26.9-18.3-31.5-32.2l-.6-1.7-19.6 3.9zm29.9-10.3c.1 16.6 29.4 32.2 35.3 35.1l.9.5.9-.5c5.9-3 35.3-18.6 35.3-35.1v-19.7l-2.8 1.2c-10.6 4.6-21.8 6.9-33.4 6.9-11.5 0-22.8-2.3-33.4-6.9l-2.8-1.2v19.7zm-41.6-96.3h.2c3 0 5.4 2.4 5.5 5.4.4 19.3 8.6 37.3 22.6 49.3 14.4 12.4 31.5 19 49.5 19s35.1-6.6 49.5-19c13.9-12 22.1-29.9 22.6-49.3.1-3 2.5-5.4 5.5-5.4h1c.6 0 1.3.1 2.2.1 9.3 0 10.7-5.4 10.7-8.6V203H210.5v15.7c0 4.2 2.2 6.3 4 7.2 1.7.9 3.8 1.3 6.6 1.3.7 0 1.4 0 2-.1h1v.1zm-18.5-50.1c-4.9 0-7.4 3.7-7.4 7.4s2.5 7.4 7.4 7.4h192.6c2.2 0 4.2-.8 5.5-2.4 1.2-1.4 1.8-3.1 1.8-5.1 0-3.7-2.5-7.4-7.4-7.4H205.6v.1zm51.6-91.8c-26.7 14.8-43.3 42.9-43.3 73.3v7.4h175.8v-7.4c0-30.4-16.6-58.5-43.3-73.3l-3-1.7v12.8c0 3.8-2.8 5.4-5.5 5.4s-5.5-1.7-5.5-5.4V79.1l-1.4-.4c-7-2.2-14.3-3.5-21.7-3.8l-2.1-.1V114c0 3.8-2.8 5.4-5.5 5.4s-5.5-1.7-5.5-5.4V74.8l-2.1.1c-7.4.3-14.7 1.6-21.7 3.8l-1.4.4v17.3c0 3.8-2.8 5.4-5.5 5.4s-5.5-1.7-5.5-5.4V83.7l-2.8 1.6z" fill="#799cde"/></svg>