<svg version="1.1" id="Слой_2_1_" xmlns="http://www.w3.org/2000/svg" x="0" y="0" viewBox="0 0 512 512" xml:space="preserve"><style>.st0{fill:#ffe400}</style><path class="st0" d="M118.2 459.3c-.3 0-.5 0-.8-.1l-44.6-12c-1-.3-1.8-1.1-2.1-2.1l-12-44.6c-.3-1 0-2.1.8-2.9L92.2 365c.6-.6 1.3-.9 2.1-.9.3 0 .5 0 .8.1l44.6 12c1 .3 1.8 1.1 2.1 2.1l12 44.6c.3 1 0 2.1-.8 2.9l-32.7 32.7c-.5.5-1.3.8-2.1.8zM65 400.7l11.1 41.2 41.3 11.1 30.3-30.1-11.1-41.3-41.3-11.1L65 400.7zm226.5-238l36.5-36.5c3.8-3.6 5.8-8.8 5.5-14-2.5-42.3 29.8-78.9 72.2-81.4 1.5-.1 3.1-.1 4.6-.1 5 0 10.1.5 15 1.5l9.2 1.8-48.9 48.9c-.7.6-1 1.6-.9 2.5l5.7 39.6c.2 1.4 1.3 2.4 2.6 2.6l39.6 5.7h.4c.8 0 1.6-.3 2.2-.9l48.9-48.9 1.8 9.2c4 20.1-.1 40.6-11.5 57.7-11.5 17.1-28.9 28.7-49 32.7-4.9 1-10 1.5-15 1.5-1.5 0-3 0-4.5-.1h-1c-4.9 0-9.7 2-13.2 5.5l-13.2 13.2 4 4.4L396 194c2.3-2.5 5.6-3.9 9-3.9h.6c1.7.1 3.5.2 5.2.2 43.6 0 79.9-34.1 82.6-77.7.7-12-1.2-24.3-5.6-35.5-.4-1.1-1.6-1.9-2.8-1.9-.4 0-.8.1-1.1.2-.4.2-.7.4-1 .7L432.1 127l-36-5.1-5.1-36 51.1-50.7c.7-.7 1-1.7.8-2.7-.2-1-.9-1.8-1.9-2.2-9.7-3.9-19.9-5.8-30.3-5.8-16.5 0-32.5 4.8-46.2 14-14.1 9.4-24.8 22.7-31 38.5-4.4 11.2-6.3 23.5-5.6 35.5v.2c0 3.5-1.3 6.9-3.8 9.3l-36.6 36.6-5.2-5.2 9.2 9.3z"/><path d="M317.2 468.2l-9.3 9.3c-.6.6-.9 1.3-.9 2.1s.3 1.5.9 2.1l11.2 11.3c.5.6 1.3.9 2.1.9.9 0 1.7-.3 2.2-.8 1.1-1.2 1.2-3.1 0-4.3l-9.3-9.1 131.5-131.5 43.1 43.1c.6.6 1.4.9 2.2.9.8 0 1.5-.3 2.1-.9 1.1-1.1 1.2-3 0-4.2l-45.3-45.3c-.5-.6-1.3-.9-2.1-.9h-.1c-.7 0-1.5.4-2 .9l-9.2 9.2-3.5-4.1c-10.3-11.9-16.7-26.4-18.4-42l-5.8-51.4c-1.6-15.1-8.4-29.3-19.1-40.1l-5.4-5.4-3.9-4.5-.4.4-26.1-26.1c-5.2-5-12-7.7-19.2-7.7s-14 2.7-19.3 7.6l-3.5 3.4-18.3-18.3-3.9-4.2-26.2-26.2c-5.1-5.2-11.9-8-19.1-8-7.1 0-13.8 2.8-18.9 7.8-4.6 4.6-7.4 10.6-7.9 17.1l-.5 6-5.8-1.5c-2.2-.6-4.5-.9-6.8-.9-12.1 0-22.7 8.2-25.8 20-1.6 6.3-.9 13 2 18.8l3 6-6.7 1.1c-5.3.9-10.2 3.4-14 7.2-6.7 6.8-9.4 16.7-6.9 25.9l1.6 5.9-6.1.4c-7.1.5-13.6 3.7-18.3 9.1-4.7 5.3-7 12.2-6.5 19.3.4 6.5 3.2 12.6 7.9 17.2l3.3 3.3 11.5 11.5 3.9 4.2 31.9 31.9c5.1 5.1 11.9 7.9 19.1 7.9 7.2 0 13.9-2.8 19-7.8 6.8-6.7 9.5-16.6 7.1-25.8l-1.5-5.8 6-.4c7.1-.5 13.5-3.8 18.2-9.2 4.6-5.4 6.9-12.3 6.4-19.4-.3-3.4-1.2-6.7-2.7-9.8l-2.9-5.9 6.5-1.2c5.3-1 10.1-3.6 13.9-7.4l.2-.2c.4-.4.8-.7 1.2-1l2.8-1.8 2.8 1.8c5.7 3.8 12.4 5.8 19.3 5.8 9.3 0 18.1-3.7 24.8-10.3 2.4-2.4 5.7-3.7 9.1-3.7 3.4 0 6.6 1.3 9.1 3.7 2.4 2.4 3.8 5.7 3.8 9.1 0 3.5-1.4 6.9-3.8 9.3l-5.7 5.7c-19.8 19.9-19.8 52.2 0 72.1l5.8 5.7c.5.6 1.2.9 2 .9.7 0 1.4-.3 1.9-.8l.1-.1c1.2-1.1 1.2-3 0-4.2l-5.6-5.7c-17.5-17.5-17.5-46.1 0-63.6l5.6-5.7c3.6-3.6 5.6-8.3 5.6-13.4s-1.9-9.8-5.5-13.4c-3.7-3.5-8.5-5.4-13.5-5.4s-9.8 1.9-13.4 5.3c-5.5 5.5-12.8 8.5-20.5 8.5s-15-3-20.5-8.5c-5-5-5-13.2 0-18.3l39.7-39.7c4-3.9 9.3-6 14.8-6 5.6 0 10.9 2.1 14.9 6l35.9 35.8c9.7 9.8 15.9 22.8 17.5 36.5l5.8 51.4c2 17.1 9 33.1 20.5 46l3.1 3.5-108.9 108.9-97.6-97.5 88.4-88.4c1.2-1.2 1.2-3.1 0-4.3-.6-.6-1.3-.9-2.1-.9s-1.5.3-2.1.9l-92.6 92.6 4.4 4.3.1-.1 97.6 97.5zm-99.8-137.8c-4 4-9.3 6.2-14.9 6.2-5.7 0-10.9-2.2-14.9-6.2l-50.9-50.9c-3.9-3.9-6.2-9.3-6.2-14.8s2.2-11 6.2-14.9c3.9-3.9 9.2-6.1 14.7-6.1l.4-.1c5.5 0 10.8 2.2 14.7 6.1l45.3 45.3 5.6 5.7c8.2 8.2 8.2 21.5 0 29.7zm28.3-39.5c-4 4-9.3 6.2-14.9 6.2-5.7 0-10.9-2.2-14.9-6.2l-45.3-45.3-5.6-5.7c-3.9-3.9-6.1-9.2-6.1-14.8 0-5.7 2.1-10.9 6.1-14.9l.1-.1c3.9-3.9 9.2-6 14.7-6 5.6 0 10.8 2.1 15 6.2l38.3 38.3.4.3 12.2 12.3c8.2 8.2 8.2 21.5 0 29.7zm24.5-52.1l1.3 2.8-3.1 3.9-.3.2c-4.1 3.8-9.3 5.9-14.8 5.9s-10.8-2.1-14.8-5.9l-51-51c-8.1-8.1-8.2-21.4 0-29.6l.1-.1c4-3.9 9.3-6 14.8-6s10.8 2.1 14.9 6l51.1 51.1 3.1 3.9-1.3 2.8c-2.4 5.1-2.4 10.9 0 16zm5.7-23.6l-48.8-48.8c-8.1-8.2-8.1-21.5 0-29.7l.1-.1c4.1-3.8 9.3-5.9 14.8-5.9s10.7 2.1 14.7 5.9l48.9 48.9-29.7 29.7z" fill="#799cde"/><path class="st0" d="M311.9 278.2c1.2-1.2 1.2-3.1 0-4.3-.6-.6-1.3-.9-2.1-.9s-1.5.3-2.1.9L188.5 393.1c-3.8 3.7-5.8 8.8-5.5 14.1.1 1.5.2 3 .2 4.6 0 42.4-34.5 77-76.9 77h-.2c-20.5 0-39.9-8-54.4-22.6-14.5-14.6-22.5-33.9-22.5-54.5 0-42.5 34.6-77 77-77 1.1 0 2.6.1 4.6.2h.9c5 0 9.8-2 13.3-5.5l26.2-26.6 29.1 29.1-.1-.2-32.9-33.1-26.4 26.4c-2.4 2.5-5.7 3.9-9.1 3.9h-.5c-.9-.1-1.7-.1-2.6-.1-.9 0-1.7-.1-2.6-.1-45.8.1-83 37.3-83 83 0 22.2 8.6 43 24.3 58.7 15.7 15.6 36.5 24.3 58.7 24.3v.1h.5c22.1 0 42.9-8.6 58.6-24.3s24.3-36.5 24.3-58.7c0-1.6-.1-3.2-.2-5-.2-3.6 1.2-7.1 3.8-9.6l26.5-26.5 3.9-4.1 88.4-88.4z"/></svg>