<svg width="210" height="109" viewBox="0 0 210 109" fill="none" xmlns="http://www.w3.org/2000/svg">
<path d="M117.114 1.17662C124.523 -2.15557 131.951 2.34146 138.587 5.35858C138.119 6.26562 137.718 7.21086 137.384 8.17519C133.765 6.8003 130.29 5.05305 126.643 3.77364C123.158 2.6279 119.396 3.4681 116.216 5.08169C108.702 8.85309 101.15 12.529 93.5784 16.1667C97.6267 21.1794 102.649 25.2849 106.907 30.1066C108.759 32.2739 110.593 34.7468 110.87 37.6876C111.185 42.4901 109.982 47.2354 110.096 52.0284C110.192 57.1652 114.135 61.2421 114.507 66.3311C114.67 69.0045 114.355 71.6874 114.192 74.3608C118.813 73.0432 123.54 71.3628 128.418 72.4704C124.781 75.0196 120.131 72.7377 116.331 74.7714C114.488 75.6307 112.082 77.1583 112.741 79.5644C114.173 82.9443 118.011 84.1283 121.114 85.4841C122.098 84.4434 123.081 83.4026 124.084 82.3715C130.175 84.8157 136.19 87.4509 142.263 89.9334C133.794 91.9862 125.067 92.8932 116.445 94.1344C117.505 92.1294 118.565 90.1339 119.663 88.1575C115.405 86.2002 110.965 84.0328 108.511 79.8127C100.768 81.7222 92.9291 83.3358 84.9758 84.0137C84.0783 77.4639 82.8275 70.5226 78.2541 65.4431C72.048 58.1772 60.9343 57.2034 52.4463 60.5356C43.8628 64.0969 39.3848 73.4633 38.6879 82.3046C25.7887 82.4479 12.8991 82.6675 0 82.7916V79.574C11.7152 79.2971 23.459 79.4498 35.1647 78.9724C36.3295 77.779 36.3677 75.9553 36.9692 74.4754C39.1175 66.6462 44.8176 59.533 52.685 56.9551C61.8987 53.9475 73.2892 55.2556 80.135 62.6265C84.8135 67.4482 86.5321 74.1317 88.0311 80.4715C94.6 79.5167 101.226 78.5237 107.576 76.5377C110.726 75.6975 111.185 71.9643 111.395 69.2241C111.996 63.3713 107.251 58.7883 106.907 53.0882C106.573 48.0088 107.957 42.9866 107.604 37.9167C107.117 34.871 104.768 32.6177 102.783 30.4408C97.2257 24.8744 91.6879 19.2889 86.1979 13.6461C87.019 12.7677 87.8115 11.8607 88.5753 10.925C78.531 10.1516 68.4389 9.99883 58.4232 8.88173C38.9838 7.51639 19.4871 7.01035 0 6.99126V3.64951C22.2656 3.9455 44.5693 4.22238 66.749 6.3611C75.6953 7.2586 84.7562 6.83849 93.6452 8.30886C93.6643 10.5144 92.3754 12.319 91.0291 13.9421C99.6604 9.56918 108.378 5.32993 117.114 1.17662Z" fill="#BA1F32"/>
<path d="M141.957 52.124C143.819 52.5345 145.27 53.8617 147.037 54.4345C149.519 54.2436 151.916 53.4798 154.408 53.327C156.699 55.1984 155.84 58.7311 156.938 61.2612C158.895 66.1497 160.748 71.2387 161.082 76.5282C158.886 78.6765 155.42 78.8388 152.555 79.5836C150.808 80.3378 149.357 79.0202 148.001 78.1132C144.535 79.7459 141.785 82.9253 137.737 83.1258C133.307 83.565 128.266 83.7273 124.361 81.3213C123.435 78.9057 124.571 75.9458 126.337 74.1986C129.335 73.1292 132.954 73.3488 135.455 71.1433C136.572 69.0809 137.604 66.9709 138.721 64.9085C140.181 62.5025 139.265 59.6381 139.532 57.0029C140.277 55.3511 141.194 53.7757 141.957 52.124ZM143.189 54.8833C141.919 56.2104 140.917 57.7381 141.432 59.6668C142.253 64.2115 139.169 67.9829 137.164 71.7448C134.873 75.0197 130.328 74.4946 126.996 75.9267C126.032 77.2348 126.012 78.8484 125.821 80.3665C131.159 80.968 136.954 82.0564 141.91 79.3162C144.211 78.4283 146.321 76.471 148.813 76.4232C152.221 78.4283 155.945 76.2227 159.449 75.6976C158.189 71.8498 157.874 67.7251 156.117 64.0397C154.837 61.2135 154.417 58.1105 153.854 55.0838C150.293 55.6089 146.426 57.2034 143.189 54.8833Z" fill="#BA1F32"/>
<path d="M42.8316 75.688C44.703 68.1834 51.4915 62.216 59.168 61.3089C66.1093 60.2873 73.4516 63.3426 77.5858 69.014C81.7868 74.5613 82.5793 82.4192 79.6099 88.7017C77.6621 93.3037 73.4611 96.2349 69.4605 98.9179C73.6712 99.1661 77.8913 99.1088 82.1114 99.0993C124.733 99.0802 167.355 99.1279 209.976 99.0706C210.014 102.059 210.014 105.048 209.919 108.046C139.952 107.893 69.9761 107.969 0 108.007V99.0611C17.969 99.0134 35.9476 99.338 53.9071 98.8988C51.5106 97.0083 48.885 95.3661 46.8513 93.065C42.7743 88.3866 41.2562 81.684 42.8316 75.688ZM57.6594 65.0517C49.7634 67.0185 44.2161 75.5257 45.9347 83.5649C47.3955 92.0721 56.4946 98.0968 64.9158 96.2445C73.9289 94.8028 80.2496 84.6248 77.2802 75.9267C74.9601 67.811 65.7655 62.7888 57.6594 65.0517Z" fill="#BA1F32"/>
</svg>
