<svg width="195" height="135" viewBox="0 0 195 135" fill="none" xmlns="http://www.w3.org/2000/svg">
<path d="M54.5334 1.35C67.1834 0.54 79.8634 0.04 92.5334 0C107.123 1.11 120.743 7.13 133.433 14.06C136.043 15.47 138.523 17.38 141.563 17.71C151.033 18.82 161.003 18.61 169.803 22.78C178.053 26.44 180.393 36.9 178.973 45.04C178.523 47.58 180.623 51.6 177.273 52.75C171.173 54.69 164.383 54.83 158.203 53.16C156.413 57.61 152.543 61.53 147.493 61.66C140.053 62.42 133.293 54.47 135.773 47.27C137.513 40.51 146.033 37.04 152.113 40.36C155.523 41.89 156.923 45.58 159.103 48.34C159.113 42.49 153.883 37.72 148.263 37.21C143.213 36.62 137.853 39.32 135.643 43.97C134.253 46.8 134.573 50.05 134.263 53.1C128.683 53.42 123.103 53.09 117.523 53.06C117.643 53.71 117.883 55.02 118.013 55.68C121.033 55.63 124.603 55.2 126.903 57.63C129.693 60.26 129.423 64.39 129.463 67.9C129.363 79.5 129.693 91.12 128.903 102.7C128.863 105.44 127.113 107.61 125.233 109.4C127.273 110.03 130.323 110.35 130.393 113.11C130.753 118.7 130.593 124.32 130.493 129.92C130.743 132.63 128.063 134.46 125.573 134.17C111.213 134.19 96.8434 134.25 82.4834 134.15C80.0634 134.34 77.8334 132.3 77.9634 129.85C77.9634 124.08 77.5434 118.23 78.2134 112.49C79.4334 108.95 83.8334 109.85 86.7434 109.54C78.7134 100.88 71.0434 91.85 64.2034 82.21C61.8434 78.7 59.1634 74.51 60.4034 70.09C61.4234 66.1 66.2734 63.52 70.0934 65.27C73.2234 66.93 75.3234 69.92 77.7734 72.4C77.9234 65.8 77.8434 59.21 77.8234 52.62C72.6534 52.28 67.2834 53.23 62.3134 51.42C61.2134 56.06 58.0034 60.5 53.0634 61.41C45.7834 63.3 37.9434 56.47 39.1934 48.95C39.9034 41.58 48.7034 36.88 55.2934 40.09C59.2334 41.53 60.8234 45.64 62.8734 48.92C63.2734 39.77 51.7734 34.13 44.3234 38.76C39.4334 41.19 37.9634 46.83 37.8934 51.87C33.0534 51.94 28.2034 50.67 23.8734 48.57C20.0934 46.49 20.5634 41.64 20.9934 38.02C21.0734 35.36 22.4634 33.08 23.6234 30.77C24.1034 26.68 22.5834 22.05 24.9234 18.34C28.2734 15.1 32.4134 12.8 35.9534 9.75C35.9534 8.04 35.9834 6.33 36.0934 4.62C42.1934 3.27 48.3634 2.27 54.5334 1.35ZM43.1134 7.47C39.5734 13.28 33.3334 16.41 28.3534 20.74C26.6734 24.22 28.1534 28.24 28.0234 31.94C27.5434 33.98 25.6134 35.36 25.2234 37.45C24.8034 39.78 24.8634 42.16 24.8734 44.52C27.7034 45.96 30.7734 46.84 33.8434 47.62C34.7634 44.65 35.6334 41.55 37.6634 39.12C42.9334 32.44 53.5034 31.12 60.3234 36.16C64.4734 38.86 66.4634 43.66 67.3234 48.36C70.8234 48.43 74.3234 48.49 77.8334 48.49C77.8834 42.62 77.8234 36.74 77.8334 30.87C77.8434 27.7 78.1734 24.25 80.2834 21.72C82.6434 18.81 87.1734 18.44 90.3234 20.21C93.0034 21.76 94.2734 24.91 94.4134 27.89C94.6834 33.08 94.4234 38.28 94.5234 43.47C96.9734 43.09 99.6934 42.09 102.033 43.45C104.113 44.69 105.183 46.97 106.443 48.94C108.443 48.73 110.453 48.39 112.473 48.63C118.353 49.3 124.283 49.09 130.193 49.14C130.703 44.93 132.013 40.6 135.303 37.71C141.463 31.52 152.503 31.6 158.603 37.83C162.053 40.96 163.213 45.66 163.663 50.12C167.403 50.31 171.173 50.19 174.833 49.31C174.783 47.27 174.743 45.23 175.023 43.2C175.963 37.91 174.503 31.69 170.503 27.96C161.983 22.35 151.263 23.04 141.533 21.79C137.103 21.56 133.583 18.64 129.793 16.69C120.453 11.86 110.843 7.21 100.423 5.28C92.9334 3.23 85.1434 4.17 77.5034 4.35C66.0034 4.82 54.3534 4.62 43.1134 7.47ZM84.1934 23.5C81.8534 25.15 81.9234 28.33 81.8434 30.89C81.8734 43.57 81.8534 56.25 81.8634 68.94C81.8634 72.83 82.0434 76.76 81.4534 80.63C80.7934 80.65 79.4934 80.7 78.8434 80.73C75.4434 76.26 72.2934 71.4 67.5634 68.2C66.4034 69.09 64.7234 69.61 64.2134 71.12C63.6034 74.19 65.5234 76.92 67.0834 79.37C73.0234 87.97 79.8634 95.89 86.7334 103.74C88.3634 105.48 90.0234 107.65 92.5934 107.9C97.5334 108.6 102.553 108.3 107.533 108.57C112.633 108.59 118.103 108.64 122.683 106.09C125.033 104.99 124.953 102.16 125.113 99.97C125.643 87.98 125.643 75.96 125.423 63.97C125.643 61.06 123.183 59.51 120.603 59.21C119.433 60.65 118.333 62.15 117.213 63.62C116.653 63.57 115.553 63.45 115.003 63.39C114.493 60.23 114.773 56.84 113.373 53.89C112.613 51.83 109.583 51.94 108.343 53.47C106.903 54.41 105.743 57.39 103.813 55.66C102.653 52.73 102.683 49.17 100.283 46.85C96.4534 45.52 94.8234 49.76 93.5034 52.43C92.8334 52.3 91.4934 52.05 90.8334 51.92C90.2634 43.69 90.9134 35.42 90.3434 27.19C90.2534 24.13 86.9334 22.17 84.1934 23.5ZM48.9734 43.34C43.8934 44.17 41.3434 50.85 44.7034 54.79C47.9834 59.28 55.9534 58.1 57.6134 52.72C59.6534 47.54 54.2134 41.91 48.9734 43.34ZM144.983 43.38C139.813 44.38 137.483 51.44 141.283 55.2C145.003 59.65 153.283 57.47 154.093 51.64C155.213 46.6 149.833 41.93 144.983 43.38ZM81.9434 113.7C81.8734 119.2 81.8734 124.7 81.9434 130.2C96.8334 130.25 111.733 130.25 126.633 130.2C126.683 124.7 126.683 119.2 126.633 113.7C111.733 113.65 96.8334 113.65 81.9434 113.7Z" fill="#C31631"/>
<path d="M2.50329 17.92C5.42329 11.47 11.1233 6.61998 17.6433 4.03998C18.0833 5.27998 18.5333 6.51998 18.9833 7.74998C14.0233 9.97998 9.3933 13.37 6.8333 18.29C3.5733 23.91 3.40329 30.78 5.19329 36.91C3.95329 37.37 2.72329 37.82 1.48329 38.27C-0.706706 31.65 -0.556705 24.25 2.50329 17.92Z" fill="#C31631"/>
<path d="M174.933 4.91998C183.323 7.18998 190.513 13.57 193.373 21.83C195.233 26.75 195.163 32.12 194.293 37.24C193.073 37.07 191.843 36.91 190.623 36.75C191.153 30.68 191.063 24.19 187.543 18.95C184.593 13.65 179.113 10.7 173.763 8.37998C174.053 7.51998 174.643 5.78998 174.933 4.91998Z" fill="#C31631"/>
<path d="M9.18321 19.6C11.4032 15.28 15.4532 12.34 19.7632 10.31C20.2732 11.52 20.7832 12.73 21.2932 13.94C17.5432 15.91 13.8732 18.55 12.1632 22.57C10.2432 26.39 10.6832 30.78 11.3832 34.84C10.1632 35.2 8.9332 35.56 7.7132 35.92C6.1732 30.54 6.31321 24.53 9.18321 19.6Z" fill="#C31631"/>
<path d="M172.163 15.02C172.543 13.79 172.933 12.56 173.313 11.33C178.853 13.14 183.913 16.86 186.303 22.29C188.423 26.44 188.463 31.21 187.813 35.71C186.533 35.45 185.253 35.19 183.983 34.92C184.263 30.95 184.373 26.71 182.253 23.16C180.203 19.13 176.183 16.73 172.163 15.02Z" fill="#C31631"/>
</svg>
