<svg xmlns="http://www.w3.org/2000/svg" xmlns:xlink="http://www.w3.org/1999/xlink"><symbol id="icon-facebook" viewBox="0 0 430.113 430.114">
<g>
	<path id="Facebook" d="M158.081,83.3c0,10.839,0,59.218,0,59.218h-43.385v72.412h43.385v215.183h89.122V214.936h59.805
		c0,0,5.601-34.721,8.316-72.685c-7.784,0-67.784,0-67.784,0s0-42.127,0-49.511c0-7.4,9.717-17.354,19.321-17.354
		c9.586,0,29.818,0,48.557,0c0-9.859,0-43.924,0-75.385c-25.016,0-53.476,0-66.021,0C155.878-0.004,158.081,72.48,158.081,83.3z"/>
</g>
<g>
</g>
<g>
</g>
<g>
</g>
<g>
</g>
<g>
</g>
<g>
</g>
<g>
</g>
<g>
</g>
<g>
</g>
<g>
</g>
<g>
</g>
<g>
</g>
<g>
</g>
<g>
</g>
<g>
</g>
</symbol><symbol id="icon-instagram" viewBox="0 0 169.063 169.063">
<g>
	<path d="M122.406,0H46.654C20.929,0,0,20.93,0,46.655v75.752c0,25.726,20.929,46.655,46.654,46.655h75.752
		c25.727,0,46.656-20.93,46.656-46.655V46.655C169.063,20.93,148.133,0,122.406,0z M154.063,122.407
		c0,17.455-14.201,31.655-31.656,31.655H46.654C29.2,154.063,15,139.862,15,122.407V46.655C15,29.201,29.2,15,46.654,15h75.752
		c17.455,0,31.656,14.201,31.656,31.655V122.407z"/>
	<path d="M84.531,40.97c-24.021,0-43.563,19.542-43.563,43.563c0,24.02,19.542,43.561,43.563,43.561s43.563-19.541,43.563-43.561
		C128.094,60.512,108.552,40.97,84.531,40.97z M84.531,113.093c-15.749,0-28.563-12.812-28.563-28.561
		c0-15.75,12.813-28.563,28.563-28.563s28.563,12.813,28.563,28.563C113.094,100.281,100.28,113.093,84.531,113.093z"/>
	<path d="M129.921,28.251c-2.89,0-5.729,1.17-7.77,3.22c-2.051,2.04-3.23,4.88-3.23,7.78c0,2.891,1.18,5.73,3.23,7.78
		c2.04,2.04,4.88,3.22,7.77,3.22c2.9,0,5.73-1.18,7.78-3.22c2.05-2.05,3.22-4.89,3.22-7.78c0-2.9-1.17-5.74-3.22-7.78
		C135.661,29.421,132.821,28.251,129.921,28.251z"/>
</g>
<g>
</g>
<g>
</g>
<g>
</g>
<g>
</g>
<g>
</g>
<g>
</g>
<g>
</g>
<g>
</g>
<g>
</g>
<g>
</g>
<g>
</g>
<g>
</g>
<g>
</g>
<g>
</g>
<g>
</g>
</symbol><symbol id="icon-search" viewBox="0 0 15 15">
<path d="M14.5208 13.6626L10.9507 9.94962C11.8686 8.85844 12.3716 7.48552 12.3716 6.05624C12.3716 2.71688 9.6547 0 6.31534 0C2.97598 0 0.259094 2.71688 0.259094 6.05624C0.259094 9.3956 2.97598 12.1125 6.31534 12.1125C7.56898 12.1125 8.76364 11.7344 9.78504 11.0166L13.3822 14.7578C13.5325 14.9139 13.7348 15 13.9515 15C14.1566 15 14.3512 14.9218 14.4989 14.7796C14.8128 14.4776 14.8228 13.9768 14.5208 13.6626ZM6.31534 1.57989C8.78365 1.57989 10.7917 3.58793 10.7917 6.05624C10.7917 8.52456 8.78365 10.5326 6.31534 10.5326C3.84702 10.5326 1.83898 8.52456 1.83898 6.05624C1.83898 3.58793 3.84702 1.57989 6.31534 1.57989Z" fill="black"/>
</symbol><symbol id="icon-telegram" viewBox="0 0 300 300">
<g id="XMLID_496_">
	<path id="XMLID_497_" d="M5.299,144.645l69.126,25.8l26.756,86.047c1.712,5.511,8.451,7.548,12.924,3.891l38.532-31.412
		c4.039-3.291,9.792-3.455,14.013-0.391l69.498,50.457c4.785,3.478,11.564,0.856,12.764-4.926L299.823,29.22
		c1.31-6.316-4.896-11.585-10.91-9.259L5.218,129.402C-1.783,132.102-1.722,142.014,5.299,144.645z M96.869,156.711l135.098-83.207
		c2.428-1.491,4.926,1.792,2.841,3.726L123.313,180.87c-3.919,3.648-6.447,8.53-7.163,13.829l-3.798,28.146
		c-0.503,3.758-5.782,4.131-6.819,0.494l-14.607-51.325C89.253,166.16,91.691,159.907,96.869,156.711z"/>
</g>
<g>
</g>
<g>
</g>
<g>
</g>
<g>
</g>
<g>
</g>
<g>
</g>
<g>
</g>
<g>
</g>
<g>
</g>
<g>
</g>
<g>
</g>
<g>
</g>
<g>
</g>
<g>
</g>
<g>
</g>
</symbol></svg>