<svg width="19" height="16" viewBox="0 0 19 16" fill="none" xmlns="http://www.w3.org/2000/svg">
<path d="M0.325023 7.67105L4.55902 9.25105L6.20002 14.523C6.22452 14.6008 6.26767 14.6714 6.32572 14.7287C6.38376 14.786 6.45493 14.8282 6.53303 14.8517C6.61113 14.8751 6.69378 14.8792 6.77378 14.8634C6.85378 14.8476 6.92871 14.8124 6.99202 14.761L9.35202 12.837C9.47208 12.7384 9.62157 12.6825 9.77691 12.6781C9.93226 12.6738 10.0846 12.7212 10.21 12.813L14.466 15.899C14.5334 15.9478 14.6119 15.979 14.6943 15.9898C14.7768 16.0006 14.8606 15.9906 14.9383 15.9608C15.0159 15.931 15.0849 15.8824 15.139 15.8192C15.1931 15.756 15.2306 15.6804 15.248 15.599L18.367 0.599047C18.3849 0.511323 18.3789 0.420411 18.3496 0.335806C18.3203 0.251201 18.2689 0.176005 18.2006 0.118072C18.1324 0.0601396 18.0498 0.0215945 17.9616 0.00646208C17.8734 -0.0086703 17.7827 0.000166379 17.699 0.0320473L0.320023 6.73805C0.225997 6.77489 0.145332 6.83934 0.0886448 6.92292C0.0319581 7.00649 0.0019074 7.10528 0.00244859 7.20626C0.00298978 7.30725 0.0340975 7.4057 0.0916767 7.48867C0.149256 7.57163 0.230608 7.63521 0.325023 7.67105ZM5.93402 8.41005L14.21 3.31005C14.2404 3.29093 14.2769 3.28388 14.3123 3.29028C14.3476 3.29668 14.3793 3.31606 14.4011 3.34462C14.4229 3.37318 14.4332 3.40886 14.4301 3.44464C14.4269 3.48043 14.4105 3.51375 14.384 3.53805L7.55402 9.88705C7.31412 10.1101 7.15898 10.4094 7.11502 10.734L6.88202 12.458C6.8755 12.5068 6.85237 12.5519 6.81653 12.5856C6.78068 12.6193 6.73431 12.6396 6.68523 12.6431C6.63615 12.6467 6.58735 12.6332 6.54706 12.6049C6.50677 12.5767 6.47744 12.5354 6.46402 12.488L5.57002 9.34805C5.52037 9.17353 5.52906 8.98758 5.59476 8.81845C5.66046 8.64933 5.77958 8.50628 5.93402 8.41105V8.41005Z" fill="#A5B0B5"/>
</svg>
