<svg width="20" height="20" viewBox="0 0 20 20" fill="none" xmlns="http://www.w3.org/2000/svg">
<path d="M14.481 0H5.519C4.05584 0.00185227 2.65314 0.583911 1.61852 1.61852C0.583911 2.65314 0.00185227 4.05584 0 5.519L0 14.48C0.0013235 15.9434 0.583181 17.3465 1.61788 18.3814C2.65258 19.4163 4.05558 19.9984 5.519 20H14.48C15.9433 19.9984 17.3463 19.4165 18.3811 18.3818C19.416 17.3472 19.9981 15.9443 20 14.481V5.519C19.9984 4.05576 19.4164 2.6529 18.3818 1.61823C17.3471 0.583563 15.9442 0.00158818 14.481 0V0ZM18.226 14.481C18.2249 15.4739 17.83 16.4258 17.1279 17.1279C16.4258 17.83 15.4739 18.2249 14.481 18.226H5.519C4.52609 18.2249 3.57415 17.83 2.87205 17.1279C2.16996 16.4258 1.77506 15.4739 1.774 14.481V5.519C1.77506 4.52609 2.16996 3.57415 2.87205 2.87205C3.57415 2.16996 4.52609 1.77506 5.519 1.774H14.48C15.4729 1.77506 16.4249 2.16996 17.1269 2.87205C17.829 3.57415 18.2239 4.52609 18.225 5.519V14.48L18.226 14.481Z" fill="#A5B0B5"/>
<path d="M9.99999 4.84692C8.98082 4.84692 7.98454 5.14914 7.13714 5.71536C6.28973 6.28158 5.62925 7.08637 5.23924 8.02795C4.84922 8.96954 4.74717 10.0056 4.946 11.0052C5.14483 12.0048 5.63561 12.923 6.35627 13.6436C7.07693 14.3643 7.9951 14.8551 8.99469 15.0539C9.99427 15.2527 11.0304 15.1507 11.972 14.7607C12.9135 14.3707 13.7183 13.7102 14.2846 12.8628C14.8508 12.0154 15.153 11.0191 15.153 9.99992C15.1514 8.63375 14.608 7.32399 13.642 6.35796C12.6759 5.39192 11.3662 4.84851 9.99999 4.84692ZM9.99999 13.3789C9.33168 13.3789 8.67839 13.1807 8.12272 12.8095C7.56704 12.4382 7.13395 11.9104 6.8782 11.293C6.62245 10.6756 6.55553 9.99618 6.68591 9.34071C6.81629 8.68525 7.13811 8.08317 7.61067 7.61061C8.08324 7.13805 8.68531 6.81623 9.34078 6.68585C9.99624 6.55547 10.6756 6.62238 11.2931 6.87813C11.9105 7.13388 12.4382 7.56698 12.8095 8.12265C13.1808 8.67832 13.379 9.33162 13.379 9.99992C13.3774 10.8954 13.0208 11.7538 12.3874 12.3868C11.754 13.0198 10.8955 13.3759 9.99999 13.3769V13.3789Z" fill="#A5B0B5"/>
<path d="M15.369 3.34204C15.0683 3.34216 14.7769 3.44654 14.5445 3.63739C14.3121 3.82824 14.153 4.09376 14.0944 4.38873C14.0358 4.68369 14.0813 4.98984 14.2231 5.25503C14.3649 5.52023 14.5943 5.72806 14.8721 5.84312C15.15 5.95818 15.4591 5.97336 15.7469 5.88607C16.0347 5.79878 16.2833 5.61441 16.4504 5.36439C16.6175 5.11436 16.6927 4.81413 16.6633 4.51485C16.6339 4.21557 16.5016 3.93574 16.289 3.72304C16.0447 3.47953 15.7139 3.34256 15.369 3.34204Z" fill="#A5B0B5"/>
</svg>
