<svg width="250" height="66" viewBox="0 0 250 66" fill="none" xmlns="http://www.w3.org/2000/svg">
<path d="M2.36874 2.34973C8.71474 1.87873 15.0527 1.22473 21.4057 0.904729C22.7767 0.756729 23.5187 2.04773 24.1237 3.04873C31.6364 15.6601 39.1607 28.2651 46.6967 40.8637C56.2867 38.6067 65.8567 36.2757 75.4397 33.9907C72.3177 29.5961 69.2077 25.1934 66.1097 20.7827C65.9097 20.3827 65.4557 19.9917 65.6207 19.4997C65.9657 18.8667 66.7347 18.7687 67.3717 18.6347C71.5977 17.9314 75.8234 17.2284 80.0487 16.5257C80.7851 16.3125 81.5701 16.337 82.2917 16.5957C82.9114 17.0146 83.4558 17.5353 83.9017 18.1357C87.4631 22.5444 91.0161 26.9624 94.5607 31.3897C94.6761 31.4913 94.7595 31.6243 94.8006 31.7724C94.8417 31.9206 94.8388 32.0775 94.7923 32.224C94.7457 32.3705 94.6575 32.5003 94.5385 32.5976C94.4194 32.6949 94.2746 32.7554 94.1217 32.7717C89.7237 34.0367 85.2767 35.1367 80.8617 36.3367C84.6864 41.4241 88.4844 46.5287 92.2557 51.6507C92.5897 52.1817 93.1977 52.7717 92.8987 53.4507C92.3317 53.9605 91.6543 54.3322 90.9197 54.5367C81.3331 58.0347 71.7274 61.4834 62.1027 64.8827C60.5387 65.3827 58.9317 66.1557 57.2477 65.8147C55.9787 65.2877 55.3107 63.9757 54.6107 62.8717C51.2567 57.1027 48.0227 51.2597 44.8107 45.4137C38.1837 47.2027 31.5357 48.9077 24.8777 50.5747C23.9781 50.872 23.0009 50.8311 22.1293 50.4596C21.2576 50.0881 20.5514 49.4116 20.1427 48.5567C13.6537 34.4997 7.11474 20.4727 0.702736 6.38973C0.163564 5.48714 -0.0752327 4.43671 0.0207364 3.38973C0.343736 2.40873 1.52074 2.42973 2.36874 2.34873V2.34973ZM4.33374 5.00273C4.81423 6.22691 5.36104 7.42402 5.97174 8.58873C12.0651 21.1301 18.1357 33.6794 24.1837 46.2367C30.3837 44.8127 36.6007 43.3957 42.7567 41.7787C42.5737 41.3707 42.3767 40.9667 42.1697 40.5727C35.0191 28.2394 27.8767 15.9021 20.7427 3.56073C15.2727 4.01806 9.80374 4.4984 4.33574 5.00173L4.33374 5.00273ZM69.7417 21.1727C72.6317 25.2087 75.5807 29.2027 78.4817 33.2277C81.2557 32.6547 83.9817 31.8847 86.7437 31.2377C88.0155 30.9994 89.2594 30.6308 90.4557 30.1377C87.7947 26.7377 85.0837 23.3807 82.4647 19.9527C82.1706 19.5936 81.8547 19.253 81.5187 18.9327C77.6097 19.7657 73.6187 20.2407 69.7417 21.1717V21.1727ZM48.7607 44.3857C51.7977 49.5857 54.7687 54.8267 57.8727 59.9917C58.1602 60.4368 58.5274 60.8249 58.9557 61.1367C68.5987 57.6917 78.3757 54.6157 88.0157 51.1557C84.6937 46.3157 81.1247 41.6367 77.6907 36.8767C68.0327 39.3267 58.4107 41.9037 48.7607 44.3857Z" fill="#FF7A00"/>
<path d="M242.24 21.3318C243.498 21.3285 244.757 21.3285 246.016 21.3318C246.027 29.2838 246.016 37.2319 246.023 45.1849C245.968 45.6062 246.015 46.0345 246.158 46.4344C246.302 46.8343 246.539 47.1944 246.849 47.4848C247.739 47.8703 248.746 47.8869 249.649 47.5309C249.638 48.5749 249.638 49.6158 249.649 50.6598C248.742 51.0381 247.762 51.2076 246.781 51.1557C245.8 51.1037 244.843 50.8317 243.982 50.3598C243.373 49.8681 242.895 49.2339 242.589 48.5134C242.284 47.7929 242.161 47.0083 242.231 46.2288C242.238 37.9282 242.241 29.6292 242.24 21.3318Z" fill="#FF7A00"/>
<path d="M114.537 23.3738H118.404V47.4348C122.151 47.4314 125.9 47.4314 129.65 47.4348C129.653 48.5494 129.653 49.6638 129.65 50.7778H114.537V23.3738Z" fill="#FF7A00"/>
<path d="M134.471 32.6327C135.168 31.6485 136.066 30.8232 137.105 30.2111C138.144 29.5991 139.301 29.2141 140.5 29.0817C142.747 28.7416 145.043 29.1584 147.028 30.2667C147.81 30.8503 148.437 31.617 148.854 32.4996C149.271 33.3822 149.465 34.3537 149.419 35.3287C149.451 38.6127 149.408 41.8927 149.437 45.1727C149.372 46.025 149.624 46.8713 150.144 47.5497C150.612 48.0277 151.332 47.9327 151.937 48.0347C151.933 48.9627 151.933 49.8943 151.937 50.8297C151.415 51.0608 150.851 51.1821 150.28 51.1861C149.709 51.19 149.143 51.0766 148.618 50.8527C148.093 50.6289 147.619 50.2994 147.227 49.8848C146.835 49.4702 146.532 48.9793 146.337 48.4427C145.095 49.8783 143.377 50.8164 141.498 51.0838C139.619 51.3512 137.706 50.9299 136.114 49.8977C135.439 49.3411 134.896 48.6423 134.523 47.8513C134.15 47.0603 133.957 46.1966 133.957 45.3222C133.957 44.4477 134.15 43.584 134.523 42.793C134.896 42.002 135.439 41.3032 136.114 40.7467C138.863 38.6657 142.498 38.4467 145.82 38.4857C145.764 36.6047 146.193 34.1577 144.42 32.8957C143.201 32.2339 141.776 32.0607 140.434 32.4114C139.092 32.762 137.934 33.6102 137.195 34.7837C136.288 34.0627 135.374 33.3497 134.467 32.6317L134.471 32.6327ZM138.858 42.7497C138.477 43.0637 138.178 43.466 137.987 43.9217C137.797 44.3774 137.721 44.8726 137.765 45.3645C137.809 45.8563 137.973 46.3299 138.242 46.7442C138.511 47.1585 138.877 47.5009 139.308 47.7417C140.474 48.2007 141.765 48.2316 142.952 47.8289C144.139 47.4261 145.145 46.6157 145.791 45.5417C145.882 44.1287 145.791 42.7117 145.823 41.2987C143.463 41.2637 140.837 41.2637 138.862 42.7507L138.858 42.7497Z" fill="#FF7A00"/>
<path d="M164.965 29.5996C166.491 28.8616 168.227 29.0296 169.865 29.0296C169.858 30.3826 169.858 31.7296 169.865 33.0866C167.197 32.4086 163.948 32.8866 162.243 35.2456C162.285 40.4276 162.243 45.6096 162.261 50.7916C161.002 50.7916 159.74 50.7916 158.482 50.7916V29.3496C159.466 29.3426 160.454 29.3496 161.442 29.3676C161.699 30.2676 161.976 31.1566 162.261 32.0466C162.901 30.9819 163.842 30.1305 164.965 29.5996Z" fill="#FF7A00"/>
<path d="M173.486 32.6228C174.265 31.5417 175.283 30.6541 176.46 30.0287C177.637 29.4033 178.942 29.0568 180.275 29.0158C182.761 28.9208 185.689 29.3038 187.282 31.4488C188.782 33.4698 188.407 36.1138 188.453 38.4728C188.52 41.0728 188.312 43.6938 188.566 46.2848C188.599 46.5608 188.689 46.827 188.829 47.0668C188.97 47.3066 189.158 47.5149 189.383 47.6788C189.607 47.8427 189.863 47.9586 190.135 48.0193C190.406 48.08 190.687 48.0843 190.96 48.0318C190.956 48.9651 190.956 49.8968 190.96 50.8268C190.438 51.0581 189.873 51.1795 189.302 51.1833C188.731 51.1872 188.165 51.0734 187.64 50.8491C187.114 50.6249 186.641 50.2948 186.249 49.8797C185.856 49.4645 185.554 48.973 185.36 48.4358C184.122 49.8735 182.406 50.8146 180.529 51.0848C178.651 51.3551 176.739 50.9362 175.147 49.9058C174.47 49.3482 173.924 48.6474 173.551 47.8538C173.177 47.0603 172.984 46.1937 172.985 45.3165C172.986 44.4393 173.182 43.5733 173.558 42.7809C173.935 41.9884 174.482 41.2893 175.161 40.7338C177.91 38.6668 181.535 38.4488 184.85 38.4878C184.794 36.6068 185.223 34.1598 183.45 32.8978C182.231 32.2353 180.805 32.0618 179.462 32.4125C178.12 32.7632 176.961 33.6117 176.222 34.7858C175.311 34.0618 174.394 33.3478 173.487 32.6238L173.486 32.6228ZM177.878 42.7588C177.498 43.073 177.201 43.4749 177.012 43.9298C176.823 44.3847 176.747 44.8788 176.792 45.3694C176.837 45.8601 177 46.3324 177.268 46.7456C177.537 47.1588 177.902 47.5004 178.332 47.7408C179.499 48.2052 180.795 48.2372 181.984 47.8311C183.173 47.425 184.178 46.6074 184.818 45.5258C184.909 44.1198 184.818 42.7068 184.85 41.2998C182.483 41.2638 179.853 41.2638 177.877 42.7578L177.878 42.7588Z" fill="#FF7A00"/>
<path d="M221.586 30.5727C222.833 29.7716 224.241 29.2551 225.71 29.06C227.179 28.8648 228.673 28.9959 230.086 29.4437C231.208 29.8058 232.22 30.4466 233.027 31.3062C233.835 32.1658 234.411 33.216 234.702 34.3587C235.183 36.6408 235.263 38.9892 234.938 41.2987C230.399 41.3097 225.861 41.2987 221.319 41.3057C221.46 43.4577 221.998 45.9537 224.019 47.1167C225.416 47.7999 226.976 48.0799 228.524 47.9253C230.071 47.7708 231.545 47.1877 232.78 46.2417C233.342 47.2017 233.909 48.1591 234.48 49.1137C231.738 51.1037 228.148 51.4027 224.889 50.9597C223.685 50.832 222.528 50.4247 221.51 49.7703C220.492 49.1159 219.641 48.2326 219.025 47.1907C217.531 44.4307 217.387 41.1647 217.64 38.1027C217.918 35.2307 219.117 32.2457 221.578 30.5727H221.586ZM222.689 34.1517C221.879 35.4236 221.43 36.8915 221.389 38.3987C224.722 38.4097 228.055 38.3987 231.389 38.3987C231.489 36.4987 231.389 34.2117 229.716 32.9707C228.608 32.26 227.276 31.9873 225.978 32.2056C224.68 32.424 223.511 33.1178 222.697 34.1517H222.689Z" fill="#FF7A00"/>
<path d="M194.682 29.3517H198.904C200.704 35.3207 202.804 41.2097 204.244 47.2807C205.744 41.2267 207.756 35.3207 209.556 29.3547C210.871 29.3477 212.189 29.3547 213.511 29.3547C211.173 36.5017 208.776 43.6277 206.473 50.7817C204.989 50.8517 203.509 50.8137 202.029 50.8207C199.579 43.6633 197.13 36.507 194.682 29.3517Z" fill="#FF7A00"/>
</svg>
