<svg width="193" height="66" viewBox="0 0 193 66" fill="none" xmlns="http://www.w3.org/2000/svg">
<path opacity="0.5" d="M5.86281 59.0103L0.648804 0.488281H57.9698L52.7558 58.9793L29.2618 65.4883" fill="#FF4848"/>
<path d="M11.2978 12.4482H29.3098V19.6212H19.1658L19.8298 26.9682H29.3098V34.1252H13.2568L11.2978 12.4482ZM13.5728 37.7252H20.7728L21.2788 43.4602L29.3048 45.6092V53.0982L14.5798 48.9902" fill="#FF4848"/>
<path d="M47.2578 12.4482H29.2778V19.6212H46.5938L47.2578 12.4482ZM45.9458 26.9682H29.2778V34.1412H38.1258L37.2888 43.4632L29.2788 45.6122V53.0692L43.9728 48.9932" fill="#FF4848"/>
<path d="M85.5418 47.8074V38.6643H77.0653V47.8074H69.6825V23.3005H77.0653V32.3752H85.5418V23.3005H92.9247V47.8074H85.5418ZM110.168 29.0769V47.8074H102.751V29.0769H95.8983V23.3005H117.107V29.0769H110.168ZM142.502 47.8074V34.3748C142.502 33.1101 142.542 31.7201 142.622 30.2048L142.673 29.0769H142.468C142.104 31.0024 141.824 32.3354 141.631 33.0759L138.025 47.8074H131.086L127.309 33.2468C127.207 32.8822 126.939 31.4923 126.506 29.0769H126.301C126.461 32.905 126.54 35.2976 126.54 36.2546V47.8074H120.063V23.3005H131.12L134.487 36.6135C134.567 36.887 134.669 37.4452 134.795 38.2883C134.931 39.12 135.017 39.7638 135.051 40.2195H135.154C135.279 39.1827 135.478 37.9579 135.752 36.5452L138.896 23.3005H149.783V47.8074H142.502ZM154.619 47.8074V23.3005H162.002V42.031H170.444V47.8074H154.619ZM189.773 39.5188C189.773 41.1936 189.374 42.6975 188.577 44.0305C187.79 45.3521 186.651 46.3832 185.159 47.1238C183.666 47.8643 181.906 48.2346 179.878 48.2346C178.75 48.2346 177.571 48.1378 176.34 47.9441C175.121 47.7504 174.119 47.5055 173.332 47.2092V41.5354C175.041 42.4469 176.847 42.9026 178.75 42.9026C180.003 42.9026 180.949 42.6747 181.587 42.219C182.236 41.7633 182.561 41.1195 182.561 40.2878C182.561 38.4877 181.068 37.5876 178.083 37.5876C176.591 37.5876 175.207 37.7301 173.931 38.0149L174.853 23.3005H188.696V28.9744H180.493L180.254 32.4094C180.915 32.3411 181.535 32.3069 182.117 32.3069C184.509 32.3069 186.383 32.9563 187.739 34.2551C189.095 35.5426 189.773 37.2971 189.773 39.5188Z" fill="#FF4848"/>
</svg>
