<svg width="266" height="60" viewBox="0 0 266 60" fill="none" xmlns="http://www.w3.org/2000/svg">
<path d="M91.3727 5.877C96.8587 0.540004 105.145 -0.87299 112.473 0.47701C115.299 1.11701 118.194 2.01301 120.412 3.96901C122.269 5.63492 123.715 7.70931 124.635 10.0289C125.554 12.3484 125.923 14.8498 125.712 17.336C125.221 24.054 122.337 30.255 119.9 36.436C121.711 36.605 123.533 36.63 125.349 36.511C124.91 39.5742 124.086 42.5697 122.896 45.426C118.865 45.479 114.834 45.362 110.809 45.575C104.667 45.484 98.4337 45.927 92.3767 44.653C89.0767 43.96 85.8457 42.195 84.1707 39.161C81.4137 34.693 81.5477 29.169 82.4807 24.184C83.7547 17.471 86.2127 10.593 91.3737 5.87501L91.3727 5.877ZM98.2407 12.753C95.5217 15.531 94.5617 19.434 93.8157 23.123C93.2397 26.093 92.5097 29.292 93.6667 32.223C94.4287 34.27 96.5667 35.374 98.6037 35.747C102.304 36.424 106.079 35.971 109.811 36.147C111.421 32.292 112.28 28.181 113.559 24.214C114.337 21.479 115.329 18.637 114.807 15.763C114.524 14.5738 113.995 13.4569 113.255 12.4845C112.514 11.512 111.578 10.7056 110.507 10.117C108.418 9.37692 106.165 9.23168 103.999 9.69749C101.833 10.1633 99.8392 11.2219 98.2397 12.755L98.2407 12.753Z" fill="#435595"/>
<path d="M253.625 5.569C254.052 5.069 254.425 4.169 255.257 4.433C258.757 4.633 262.257 4.46499 265.757 4.53299C257.818 15.351 249.772 26.095 241.748 36.844C240.458 39.457 240.079 42.394 239.306 45.178C235.883 45.173 232.465 45.189 229.048 45.173C229.954 41.163 231.362 36.866 229.8 32.835C228.388 28.911 227.295 24.8796 226.532 20.78C230.067 20.48 233.632 20.737 237.174 20.647C237.665 22.524 238.174 24.395 238.544 26.304C243.589 19.4047 248.616 12.493 253.625 5.569Z" fill="#435595"/>
<path d="M133.52 9.57806C136.714 9.69506 139.907 9.32206 143.101 9.48706C141.512 17.0264 140.017 24.5887 138.617 32.1741C138.249 33.8111 139.108 35.8961 140.917 36.1741C143.581 36.4142 146.258 36.4783 148.931 36.3661C151.117 27.4511 153.196 18.5101 155.441 9.60606C158.507 9.37706 161.589 9.48906 164.665 9.43506C162.234 21.3461 159.565 33.2151 157.046 45.1101C151.586 45.2811 146.116 45.1261 140.646 45.1851C137.857 45.2011 134.893 45.1051 132.414 43.6851C131.375 43.0067 130.504 42.1005 129.867 41.0352C129.23 39.9699 128.845 38.7736 128.74 37.5371C128.24 33.4261 129.113 29.3151 130.04 25.3371C131.254 20.0871 132.309 14.8141 133.52 9.57806Z" fill="#435595"/>
<path d="M168.272 17.196C171.391 12.019 177.549 9.58198 183.356 9.13398C187.621 8.87798 192.287 9.05898 195.928 11.56C198.228 13.032 198.653 15.943 198.94 18.438C198.978 22.5852 198.519 26.7221 197.572 30.76C190.689 30.872 183.8 30.653 176.917 30.915C175.888 30.984 174.363 30.686 173.878 31.885C173.748 32.9679 174.046 34.0588 174.71 34.9245C175.373 35.7902 176.349 36.3621 177.429 36.518C183.518 37.547 189.713 37.083 195.85 37.051C195.226 39.893 194.576 42.729 193.92 45.566C187.018 45.9422 180.098 45.7549 173.227 45.006C170.662 44.649 167.762 44.174 166.082 41.978C163.971 39.659 163.672 36.358 163.864 33.362C164.239 27.7356 165.735 22.2409 168.264 17.201L168.272 17.196ZM178.346 18.763C177.596 19.2425 176.97 19.8932 176.521 20.6616C176.071 21.43 175.81 22.2942 175.76 23.183C180.43 23.1936 185.101 23.1936 189.772 23.183C189.58 20.922 188.423 18.256 185.972 17.761C183.426 17.41 180.6 17.335 178.35 18.76L178.346 18.763Z" fill="#435595"/>
<path d="M215.838 9.5879C220.461 9.7159 225.078 9.3589 229.701 9.4809C231.412 9.6139 233.593 9.7099 234.526 11.4319C235.68 13.6476 236.455 16.0411 236.819 18.5129C229.589 18.5079 222.364 18.6729 215.135 18.7049C213.088 27.5289 211.072 36.3529 208.998 45.1669C205.826 45.1989 202.658 45.1559 199.486 45.1939C201.667 34.1999 203.933 23.2159 206.386 12.2809C206.653 11.3689 206.695 10.0419 207.874 9.8599C210.474 9.2889 213.188 9.7209 215.838 9.5879Z" fill="#435595"/>
<path d="M69.1547 18.258C69.7097 15.336 70.4447 12.452 71.2337 9.58801C74.5557 9.58801 77.8767 9.59301 81.2037 9.58301C80.5797 12.483 80.0467 15.4 79.3037 18.274C75.9157 18.237 72.5347 18.258 69.1547 18.258Z" fill="#435595"/>
<path d="M68.7347 20.6409C72.0457 20.6999 75.3617 20.5609 78.6727 20.7209C76.6727 30.7019 74.5197 40.6569 71.9117 50.4989C71.0267 53.6929 69.5117 57.1529 66.3507 58.6569C62.1017 60.5229 57.3457 59.9469 52.8457 59.8029C53.6827 56.6729 54.5147 53.5379 55.3677 50.4139C57.5327 50.7389 60.0227 50.2329 61.3817 48.3719C63.4817 45.5569 63.7387 41.9209 64.4577 38.5989C65.7267 32.5789 67.1717 26.5909 68.7347 20.6409Z" fill="#435595"/>
<path d="M26.8588 15.4481C25.5418 12.0251 25.7708 7.46112 28.6238 4.87012C28.1068 7.24812 27.5948 9.79712 28.5758 12.1371C30.4148 17.7191 37.1598 21.4371 42.7758 19.2871C44.1568 18.8021 45.3888 17.9971 46.7267 17.4051C44.7437 20.3161 41.3528 22.5931 37.7108 22.4051C35.4111 22.476 33.1439 21.8494 31.207 20.6077C29.2702 19.366 27.7543 17.5674 26.8588 15.4481Z" fill="#435595"/>
<path d="M18.3527 7.44009C18.4917 7.41309 18.7637 7.36509 18.9017 7.34009C16.6727 10.4271 16.7847 14.5491 17.7557 18.0731C20.0267 25.9801 27.9927 31.7381 36.1667 31.7331C40.3381 31.586 44.3097 29.9104 47.3257 27.0251C46.3969 29.1792 44.9429 31.0663 43.0968 32.5137C41.2507 33.9612 39.0713 34.923 36.7577 35.3111C32.2577 36.1481 27.3367 35.7861 23.3807 33.3171C21.1479 31.9785 19.2031 30.2099 17.659 28.114C16.1149 26.018 15.0023 23.6363 14.3857 21.1071C13.8273 18.3 14.0674 15.3925 15.0787 12.7151C15.9316 10.8195 17.0326 9.04564 18.3527 7.44009Z" fill="#435595"/>
<path d="M0.837743 30.367C0.0602569 27.0789 0.157715 23.6446 1.12041 20.406C2.08311 17.1673 3.87745 14.2374 6.32474 11.908C4.48574 16.493 3.72474 21.6389 5.19974 26.4429C8.07374 36.3329 17.6497 43.265 27.6417 44.571C30.973 45.0864 34.3781 44.8295 37.5942 43.8201C40.8104 42.8106 43.7516 41.0756 46.1907 38.7489C45.0593 41.4589 43.3273 43.8767 41.1255 45.8199C38.9236 47.7631 36.3094 49.1811 33.4797 49.9669C27.2577 51.6786 20.6235 51.043 14.8397 48.181C7.95074 44.597 2.40074 38.071 0.837743 30.367Z" fill="#435595"/>
</svg>
