<svg width="95" height="81" viewBox="0 0 95 81" fill="none" xmlns="http://www.w3.org/2000/svg">
<path d="M32.7287 36.3641H20.0017C19.2845 36.3672 18.5738 36.2282 17.9106 35.9551C17.2474 35.6821 16.6448 35.2804 16.1376 34.7732C15.6305 34.2661 15.2288 33.6635 14.9557 33.0003C14.6827 32.3371 14.5436 31.6264 14.5467 30.9092V29.0922C14.5169 27.1778 14.8797 25.2776 15.6127 23.5088C16.3458 21.74 17.4335 20.1403 18.8087 18.8082C20.141 17.4332 21.7408 16.3458 23.5096 15.613C25.2783 14.8801 27.1784 14.5174 29.0927 14.5472H32.7287C33.6889 14.534 34.6061 14.1466 35.2851 13.4676C35.9642 12.7886 36.3515 11.8714 36.3647 10.9112V3.63715C36.3518 2.67675 35.9646 1.75932 35.2855 1.08006C34.6064 0.400803 33.6891 0.0133485 32.7287 0.00014979H29.0927C25.2156 -0.0124531 21.3772 0.770349 17.8147 2.30015C10.8005 5.22344 5.22498 10.799 2.30169 17.8132C0.771535 21.3755 -0.0112789 25.2141 0.00169292 29.0912V69.0912C-0.0240897 70.5283 0.244866 71.9554 0.791967 73.2845C1.33907 74.6137 2.15271 75.8166 3.18269 76.8192C4.18529 77.849 5.38825 78.6626 6.71737 79.2097C8.04649 79.7568 9.47361 80.0258 10.9107 80.0002H32.7297C34.1641 80.0064 35.5856 79.7284 36.912 79.1823C38.2384 78.6362 39.4435 77.8328 40.4577 76.8185C41.472 75.8042 42.2753 74.599 42.8213 73.2725C43.3672 71.946 43.645 70.5246 43.6387 69.0902V47.2732C43.6445 45.8388 43.3663 44.4176 42.8201 43.0914C42.2738 41.7651 41.4704 40.5602 40.4561 39.546C39.4419 38.5318 38.2369 37.7285 36.9106 37.1824C35.5843 36.6363 34.163 36.3582 32.7287 36.3641Z" fill="#F5FAFC"/>
<path d="M91.3667 39.5452C90.3643 38.5152 89.1615 37.7017 87.8326 37.1546C86.5036 36.6075 85.0766 36.3385 83.6397 36.3642H70.9127C70.1956 36.3671 69.4849 36.228 68.8219 35.9548C68.1588 35.6817 67.5563 35.28 67.0493 34.7729C66.5422 34.2657 66.1406 33.6632 65.8676 33.0001C65.5946 32.3369 65.4557 31.6263 65.4587 30.9092V29.0922C65.4592 25.2346 66.992 21.5352 69.7198 18.8075C72.4476 16.0799 76.1471 14.5474 80.0047 14.5472H83.6397C84.6 14.534 85.5173 14.1467 86.1965 13.4677C86.8757 12.7887 87.2632 11.8715 87.2767 10.9112V3.63716C87.2635 2.67667 86.8761 1.75923 86.1969 1.08C85.5176 0.400769 84.6002 0.0133477 83.6397 0.00015483H80.0047C76.1266 -0.01266 72.2872 0.770142 68.7237 2.30016C61.7113 5.22451 56.1371 10.7994 53.2137 17.8122C51.6836 21.3749 50.9008 25.2137 50.9137 29.0912V69.0912C50.9073 70.5256 51.1852 71.947 51.7311 73.2735C52.2771 74.6 53.0804 75.8052 54.0947 76.8195C55.1089 77.8338 56.314 78.6372 57.6404 79.1833C58.9668 79.7294 60.3883 80.0074 61.8227 80.0012H83.6407C85.075 80.0072 86.4964 79.7292 87.8227 79.183C89.1489 78.6369 90.354 77.8335 91.3681 76.8191C92.3822 75.8048 93.1854 74.5997 93.7313 73.2733C94.2772 71.9469 94.555 70.5255 94.5487 69.0912V47.2732C94.5744 45.836 94.3053 44.4088 93.758 43.0796C93.2108 41.7505 92.3969 40.5476 91.3667 39.5452Z" fill="#F5FAFC"/>
</svg>
