<?xml version="1.0" encoding="utf-8"?><svg viewBox="0 0 20 20" xmlns="http://www.w3.org/2000/svg" xmlns:xlink="http://www.w3.org/1999/xlink"><style>:root>svg{display:none}:root>svg:target{display:block}</style><svg fill="none" viewBox="0 0 10 20" id="icon-facebook" xmlns="http://www.w3.org/2000/svg"><path d="M2.017 3.873v2.754H.004v3.372h2.017v10h4.144v-10h2.781s.26-1.615.387-3.38H6.181v-2.3a.978.978 0 0 1 .9-.807h2.258V-.001h-3.07c-4.354 0-4.252 3.371-4.252 3.874z" fill="#A5B0B5"/></svg><svg fill="none" viewBox="0 0 20 20" id="icon-instagram" xmlns="http://www.w3.org/2000/svg"><path d="M14.481 0H5.519A5.526 5.526 0 0 0 0 5.519v8.961A5.525 5.525 0 0 0 5.519 20h8.961A5.526 5.526 0 0 0 20 14.481V5.519A5.525 5.525 0 0 0 14.481 0zm3.745 14.481a3.75 3.75 0 0 1-3.745 3.745H5.519a3.75 3.75 0 0 1-3.745-3.745V5.519a3.749 3.749 0 0 1 3.745-3.745h8.961a3.749 3.749 0 0 1 3.745 3.745v8.961l.001.001z" fill="#A5B0B5"/><path d="M10 4.847a5.153 5.153 0 1 0 0 10.306 5.153 5.153 0 0 0 0-10.306zm0 8.532a3.38 3.38 0 1 1 3.379-3.38A3.383 3.383 0 0 1 10 13.378v.002zM15.369 3.342a1.3 1.3 0 1 0 .001 2.6 1.3 1.3 0 0 0-.001-2.6z" fill="#A5B0B5"/></svg><svg fill="none" viewBox="0 0 19 16" id="icon-telegram" xmlns="http://www.w3.org/2000/svg"><path d="M.325 7.671l4.234 1.58L6.2 14.523a.5.5 0 0 0 .792.238l2.36-1.924a.7.7 0 0 1 .858-.024l4.256 3.086a.5.5 0 0 0 .782-.3l3.119-15a.5.5 0 0 0-.668-.567L.32 6.738a.5.5 0 0 0 .005.933zm5.609.739l8.276-5.1a.144.144 0 0 1 .174.228l-6.83 6.35c-.24.222-.395.521-.439.846l-.233 1.724a.214.214 0 0 1-.418.03l-.894-3.14a.833.833 0 0 1 .364-.937z" fill="#A5B0B5"/></svg></svg>