<svg width="14" height="12" viewBox="0 0 14 12" fill="none" xmlns="http://www.w3.org/2000/svg">
<path d="M0.245781 5.75383L3.47175 6.93883L4.72206 10.8928C4.74073 10.9512 4.7736 11.0041 4.81783 11.0471C4.86205 11.09 4.91628 11.1217 4.97578 11.1393C5.03529 11.1569 5.09826 11.1599 5.15922 11.1481C5.22017 11.1362 5.27726 11.1099 5.3255 11.0713L7.12363 9.62833C7.21511 9.55433 7.329 9.51239 7.44736 9.50913C7.56572 9.50587 7.68182 9.54148 7.77736 9.61033L11.0201 11.9248C11.0714 11.9614 11.1312 11.9848 11.194 11.9929C11.2569 12.001 11.3207 11.9935 11.3799 11.9712C11.4391 11.9488 11.4916 11.9123 11.5328 11.8649C11.574 11.8176 11.6026 11.7608 11.6159 11.6998L13.9923 0.449834C14.0059 0.384042 14.0014 0.315858 13.9791 0.252404C13.9568 0.18895 13.9176 0.132553 13.8656 0.0891037C13.8136 0.045654 13.7507 0.0167452 13.6834 0.00539588C13.6162 -0.00595341 13.5471 0.000674101 13.4834 0.0245848L0.241972 5.05408C0.170332 5.08172 0.108871 5.13006 0.0656801 5.19274C0.0224893 5.25542 -0.000406868 5.32951 5.47298e-06 5.40525C0.000417813 5.48099 0.0241194 5.55483 0.0679901 5.61705C0.111861 5.67927 0.173844 5.72696 0.245781 5.75383ZM4.51939 6.30808L10.825 2.48308C10.8482 2.46875 10.876 2.46346 10.9029 2.46826C10.9299 2.47306 10.954 2.48759 10.9706 2.50901C10.9872 2.53043 10.9951 2.55719 10.9927 2.58403C10.9903 2.61087 10.9778 2.63586 10.9576 2.65408L5.7537 7.41583C5.57091 7.58313 5.45271 7.80762 5.41922 8.05108L5.24169 9.34408C5.23672 9.38066 5.2191 9.41444 5.19179 9.43973C5.16447 9.46501 5.12915 9.48026 5.09175 9.4829C5.05435 9.48554 5.01717 9.47542 4.98647 9.45423C4.95578 9.43305 4.93343 9.40209 4.92321 9.36658L4.24205 7.01158C4.20422 6.8807 4.21084 6.74123 4.2609 6.61439C4.31095 6.48754 4.40172 6.38026 4.51939 6.30883V6.30808Z" fill="white"/>
</svg>
