<svg width="150" height="44" fill="none" xmlns="http://www.w3.org/2000/svg"><path d="M23.42 21.226a7.341 7.341 0 013.5-6.163 7.522 7.522 0 00-5.928-3.202c-2.494-.262-4.912 1.491-6.183 1.491-1.295 0-3.252-1.465-5.359-1.422a7.898 7.898 0 00-6.643 4.049c-2.872 4.97-.73 12.274 2.022 16.291 1.376 1.967 2.985 4.165 5.09 4.087 2.06-.086 2.83-1.313 5.316-1.313 2.464 0 3.186 1.313 5.334 1.263 2.21-.036 3.603-1.976 4.931-3.962.99-1.401 1.75-2.95 2.255-4.59a7.1 7.1 0 01-4.335-6.53zM19.363 9.219a7.23 7.23 0 001.655-5.181A7.364 7.364 0 0016.254 6.5a6.882 6.882 0 00-1.698 4.99 6.093 6.093 0 004.807-2.272zM49.46 31.376h-7.03l-1.689 4.982h-2.977l6.658-18.431h3.094l6.658 18.431h-3.028l-1.687-4.982zm-6.303-2.298h5.573l-2.747-8.086h-.077l-2.748 8.086zm25.398.562c0 4.176-2.237 6.86-5.612 6.86a4.56 4.56 0 01-4.23-2.352h-.064v6.656h-2.76V22.92h2.671v2.235h.051a4.768 4.768 0 014.281-2.375c3.413 0 5.663 2.696 5.663 6.86zm-2.837 0c0-2.72-1.407-4.51-3.554-4.51-2.108 0-3.527 1.827-3.527 4.51 0 2.708 1.419 4.521 3.527 4.521 2.147 0 3.554-1.776 3.554-4.52zm17.635 0c0 4.176-2.236 6.86-5.611 6.86a4.56 4.56 0 01-4.23-2.352h-.064v6.656h-2.76V22.92h2.671v2.235h.05a4.768 4.768 0 014.282-2.375c3.413 0 5.662 2.696 5.662 6.86zm-2.837 0c0-2.72-1.406-4.51-3.553-4.51-2.109 0-3.527 1.827-3.527 4.51 0 2.708 1.418 4.521 3.527 4.521 2.147 0 3.553-1.776 3.553-4.52zm12.618 1.583c.204 1.828 1.981 3.028 4.409 3.028 2.326 0 4-1.2 4-2.848 0-1.431-1.009-2.288-3.4-2.875l-2.39-.575c-3.386-.818-4.959-2.4-4.959-4.969 0-3.18 2.774-5.364 6.711-5.364 3.897 0 6.569 2.184 6.659 5.364h-2.786c-.167-1.84-1.689-2.95-3.912-2.95s-3.745 1.124-3.745 2.759c0 1.303.972 2.07 3.35 2.657l2.031.498c3.784.895 5.356 2.414 5.356 5.11 0 3.448-2.748 5.608-7.12 5.608-4.09 0-6.851-2.11-7.03-5.443h2.826zm17.282-11.483v3.18h2.557v2.185h-2.557v7.408c0 1.15.512 1.687 1.636 1.687.303-.005.606-.026.907-.064v2.172a7.583 7.583 0 01-1.533.127c-2.722 0-3.783-1.022-3.783-3.628v-7.702h-1.955V22.92h1.955v-3.18h2.773zm4.037 9.9c0-4.228 2.492-6.885 6.377-6.885 3.899 0 6.379 2.657 6.379 6.885 0 4.24-2.467 6.885-6.379 6.885-3.91 0-6.377-2.645-6.377-6.885zm9.944 0c0-2.9-1.33-4.612-3.567-4.612-2.236 0-3.565 1.725-3.565 4.612 0 2.912 1.329 4.611 3.565 4.611 2.237 0 3.567-1.699 3.567-4.61zm5.087-6.72h2.633v2.287h.064a3.204 3.204 0 013.234-2.427 4.23 4.23 0 01.945.103v2.58a3.853 3.853 0 00-1.24-.167 2.778 2.778 0 00-2.754 1.909c-.126.38-.167.784-.122 1.183v7.97h-2.76V22.92zm19.602 9.492c-.371 2.44-2.748 4.113-5.79 4.113-3.911 0-6.339-2.619-6.339-6.82 0-4.216 2.441-6.95 6.223-6.95 3.721 0 6.06 2.554 6.06 6.629v.945h-9.497v.166a3.49 3.49 0 00.949 2.72 3.5 3.5 0 002.668 1.087 3.045 3.045 0 003.105-1.89h2.621zm-9.33-4.01h6.723a3.235 3.235 0 00-3.299-3.412 3.4 3.4 0 00-3.165 2.102 3.4 3.4 0 00-.259 1.31zM42.812 4.054a3.923 3.923 0 014.007 2.69c.18.55.236 1.135.163 1.71 0 2.83-1.53 4.456-4.17 4.456h-3.2V4.054h3.2zm-1.824 7.603h1.67a2.787 2.787 0 002.923-3.185 2.79 2.79 0 00-2.923-3.167h-1.67v6.352zm7.548-2.092a3.165 3.165 0 013.154-3.468 3.17 3.17 0 013.154 3.468 3.164 3.164 0 01-1.87 3.202 3.17 3.17 0 01-4.292-1.9 3.165 3.165 0 01-.146-1.302zm4.95 0c0-1.449-.65-2.296-1.794-2.296-1.147 0-1.792.847-1.792 2.296 0 1.46.645 2.301 1.792 2.301 1.143 0 1.794-.846 1.794-2.301zm9.742 3.345H61.86l-1.382-4.923h-.104l-1.377 4.923H57.64l-1.843-6.684h1.339l1.197 5.1h.1l1.374-5.1h1.266l1.375 5.1h.105l1.192-5.1h1.32l-1.837 6.684zm3.387-6.684h1.27v1.062h.1a2.001 2.001 0 011.995-1.19 2.176 2.176 0 012.315 2.485v4.327h-1.32V8.914c0-1.074-.467-1.608-1.443-1.608A1.535 1.535 0 0067.935 9v3.91h-1.32V6.226zm7.783-2.609h1.32v9.293h-1.32V3.617zm3.154 5.948a3.165 3.165 0 013.154-3.468 3.17 3.17 0 013.007 2.167c.139.419.19.862.147 1.301A3.168 3.168 0 0178.36 12a3.167 3.167 0 01-.808-2.435zm4.95 0c0-1.449-.651-2.296-1.794-2.296-1.147 0-1.793.847-1.793 2.296 0 1.46.646 2.301 1.793 2.301 1.143 0 1.794-.846 1.794-2.3zm2.748 1.455c0-1.204.896-1.897 2.487-1.996l1.812-.104v-.577c0-.706-.467-1.104-1.37-1.104-.736 0-1.247.27-1.393.742h-1.278c.135-1.148 1.216-1.884 2.733-1.884 1.676 0 2.622.834 2.622 2.246v4.567h-1.27v-.94h-.105a2.25 2.25 0 01-2.009 1.05 2.022 2.022 0 01-2.229-2zm4.299-.572V9.89l-1.633.104c-.921.062-1.339.375-1.339.964 0 .601.522.951 1.24.951a1.576 1.576 0 001.732-1.46zm3.049-.883c0-2.112 1.086-3.45 2.776-3.45a2.205 2.205 0 012.05 1.173h.099v-3.67h1.32v9.292h-1.265v-1.056h-.104a2.32 2.32 0 01-2.1 1.166c-1.702 0-2.776-1.338-2.776-3.455zm1.363 0c0 1.418.669 2.27 1.787 2.27 1.112 0 1.8-.865 1.8-2.264 0-1.393-.695-2.27-1.8-2.27-1.111 0-1.787.858-1.787 2.264zm10.343 0a3.158 3.158 0 011.872-3.197 3.17 3.17 0 014.436 3.197 3.169 3.169 0 11-6.308 0zm4.95 0c0-1.449-.651-2.296-1.794-2.296-1.147 0-1.793.847-1.793 2.296 0 1.46.646 2.301 1.793 2.301 1.143 0 1.794-.846 1.794-2.301zm3.127-3.339h1.27v1.062h.099a1.997 1.997 0 011.996-1.19 2.177 2.177 0 012.24 1.522c.097.311.122.64.074.963v4.327h-1.319V8.914c0-1.074-.467-1.608-1.443-1.608a1.537 1.537 0 00-1.526 1.042c-.07.21-.095.432-.071.652v3.91h-1.32V6.226zm13.137-1.664v1.694h1.449v1.111h-1.449v3.437c0 .7.288 1.007.945 1.007.168 0 .337-.01.504-.03v1.098a4.352 4.352 0 01-.718.068c-1.468 0-2.053-.517-2.053-1.805V7.367h-1.061v-1.11h1.061V4.561h1.322zm3.252-.945h1.308V7.3h.104a2.06 2.06 0 012.039-1.197 2.203 2.203 0 012.303 2.492v4.315h-1.321V8.92c0-1.067-.497-1.608-1.43-1.608a1.56 1.56 0 00-1.597 1.026 1.568 1.568 0 00-.087.668v3.904h-1.319V3.617zm13.451 7.488a2.716 2.716 0 01-2.898 1.934 3.035 3.035 0 01-3.089-3.45 3.082 3.082 0 013.083-3.492c1.861 0 2.983 1.27 2.983 3.37v.46h-4.722V10c-.021.245.01.492.091.725a1.755 1.755 0 00.973 1.046c.227.097.471.146.717.143a1.603 1.603 0 001.591-.81h1.271zm-4.643-2.154h3.378a1.6 1.6 0 00-.44-1.23 1.61 1.61 0 00-1.206-.501 1.714 1.714 0 00-1.606 1.065 1.707 1.707 0 00-.126.666z" fill="#262830"/></svg>