<svg width="132" height="16" viewBox="0 0 132 16" fill="none" xmlns="http://www.w3.org/2000/svg">
<g clip-path="url(#clip0)">
<path d="M26.7097 13.2727C26.5928 13.2727 26.5093 13.2386 26.4258 13.1533C26.3422 13.068 26.3088 12.9656 26.3088 12.8632V2.79787C26.3088 2.67845 26.3422 2.59315 26.4258 2.50785C26.5093 2.42255 26.6095 2.38843 26.7097 2.38843H28.6975C28.8144 2.38843 28.898 2.42255 28.9815 2.50785C29.065 2.59315 29.0984 2.69551 29.0984 2.79787V12.8462C29.0984 12.9656 29.065 13.0509 28.9815 13.1362C28.898 13.2215 28.7977 13.2556 28.6975 13.2556H26.7097V13.2727ZM47.1388 12.7609C47.1722 12.795 47.1889 12.8632 47.1889 12.9315C47.1889 13.0168 47.1555 13.1021 47.0887 13.1874C47.0218 13.2556 46.955 13.2727 46.8548 13.2727H44.4327C44.2824 13.2727 44.1822 13.2386 44.0819 13.1874C43.9984 13.1191 43.8982 13.0338 43.8147 12.9144L40.9249 9.21241V12.8462C40.9249 12.9656 40.8915 13.0509 40.8079 13.1362C40.7244 13.2215 40.6242 13.2556 40.524 13.2556H38.5362C38.4193 13.2556 38.3357 13.2215 38.2522 13.1362C38.1687 13.0509 38.1353 12.9485 38.1353 12.8462V2.79787C38.1353 2.67845 38.1687 2.59315 38.2522 2.50785C38.3357 2.42255 38.436 2.38843 38.5362 2.38843H40.524C40.6409 2.38843 40.7244 2.42255 40.8079 2.50785C40.8915 2.59315 40.9249 2.69551 40.9249 2.79787V6.07338L43.5975 2.72963C43.6476 2.66139 43.7144 2.59315 43.798 2.50785C43.8815 2.42255 44.0151 2.38843 44.2156 2.38843H46.5875C46.6711 2.38843 46.7546 2.42255 46.8214 2.49079C46.8882 2.55903 46.9216 2.62727 46.9216 2.72963C46.9216 2.79787 46.9049 2.86611 46.8715 2.90023L43.1131 7.59171L47.1388 12.7609ZM62.8406 10.7819C62.9575 10.7819 63.041 10.816 63.1245 10.9013C63.208 10.9866 63.2415 11.089 63.2415 11.1914V12.8462C63.2415 12.9656 63.208 13.0509 63.1245 13.1362C63.041 13.2215 62.9408 13.2556 62.8406 13.2556H55.6244C55.5075 13.2556 55.424 13.2215 55.3404 13.1362C55.2569 13.0509 55.2235 12.9485 55.2235 12.8462V2.79787C55.2235 2.67845 55.2569 2.59315 55.3404 2.50785C55.424 2.42255 55.5242 2.38843 55.6244 2.38843H62.7236C62.8406 2.38843 62.9241 2.42255 63.0076 2.50785C63.0911 2.59315 63.1245 2.69551 63.1245 2.79787V4.45268C63.1245 4.5721 63.0911 4.6574 63.0076 4.7427C62.9241 4.828 62.8239 4.86212 62.7236 4.86212H58.0298V6.534H62.3896C62.5065 6.534 62.59 6.56812 62.6735 6.65342C62.757 6.73871 62.7904 6.84107 62.7904 6.94343V8.59825C62.7904 8.71767 62.757 8.80297 62.6735 8.88827C62.59 8.97357 62.4898 9.00769 62.3896 9.00769H58.0298V10.7478H62.8406V10.7819ZM79.4778 10.7819C79.5947 10.7819 79.6949 10.816 79.7617 10.9013C79.8453 10.9866 79.8787 11.089 79.8787 11.1914V12.8462C79.8787 12.9656 79.8286 13.0509 79.7617 13.1362C79.6782 13.2215 79.578 13.2556 79.4778 13.2556H72.2616C72.1447 13.2556 72.0445 13.2215 71.9777 13.1362C71.8941 13.0509 71.8607 12.9485 71.8607 12.8462V2.79787C71.8607 2.67845 71.9109 2.59315 71.9777 2.50785C72.0612 2.42255 72.1614 2.38843 72.2616 2.38843H79.3609C79.4778 2.38843 79.578 2.42255 79.6448 2.50785C79.7283 2.59315 79.7617 2.69551 79.7617 2.79787V4.45268C79.7617 4.5721 79.7116 4.6574 79.6448 4.7427C79.5613 4.828 79.4611 4.86212 79.3609 4.86212H74.667V6.534H79.0268C79.1437 6.534 79.2272 6.56812 79.3107 6.65342C79.3943 6.73871 79.4277 6.84107 79.4277 6.94343V8.59825C79.4277 8.71767 79.3943 8.80297 79.3107 8.88827C79.2272 8.97357 79.127 9.00769 79.0268 9.00769H74.667V10.7478H79.4778V10.7819ZM93.2586 2.38843C93.9101 2.38843 94.4947 2.47373 95.0125 2.62727C95.5304 2.78081 95.9647 3.00259 96.3322 3.30966C96.6996 3.61674 96.9836 3.99206 97.1674 4.45268C97.3678 4.9133 97.468 5.44216 97.468 6.03926C97.468 6.65342 97.3678 7.18227 97.1674 7.64289C96.9669 8.10351 96.6996 8.47883 96.3322 8.78591C95.9647 9.09299 95.5304 9.31477 95.0125 9.46831C94.4947 9.62185 93.9101 9.70715 93.2586 9.70715H91.3042V12.8803C91.3042 12.9997 91.2541 13.085 91.1873 13.1703C91.1038 13.2556 91.0036 13.2897 90.9033 13.2897H88.9156C88.7986 13.2897 88.6984 13.2556 88.6316 13.1703C88.5481 13.085 88.5147 12.9827 88.5147 12.8803V2.79787C88.5147 2.67845 88.5648 2.59315 88.6316 2.50785C88.7151 2.42255 88.8153 2.38843 88.9156 2.38843H93.2586ZM91.3209 7.25051H93.1918C93.6261 7.25051 93.9769 7.16521 94.2441 6.97755C94.5281 6.77283 94.6618 6.46576 94.6618 6.0222C94.6618 5.57864 94.5281 5.27156 94.2441 5.0839C93.9602 4.87918 93.6261 4.79388 93.1918 4.79388H91.3209V7.25051ZM113.42 10.7819C113.537 10.7819 113.638 10.816 113.704 10.9013C113.788 10.9866 113.821 11.089 113.821 11.1914V12.8462C113.821 12.9656 113.771 13.0509 113.704 13.1362C113.621 13.2215 113.521 13.2556 113.42 13.2556H106.204C106.087 13.2556 105.987 13.2215 105.92 13.1362C105.837 13.0509 105.803 12.9485 105.803 12.8462V2.79787C105.803 2.67845 105.853 2.59315 105.92 2.50785C106.004 2.42255 106.104 2.38843 106.204 2.38843H113.303C113.42 2.38843 113.521 2.42255 113.587 2.50785C113.671 2.59315 113.704 2.69551 113.704 2.79787V4.45268C113.704 4.5721 113.654 4.6574 113.587 4.7427C113.504 4.828 113.404 4.86212 113.303 4.86212H108.61V6.534H112.969C113.086 6.534 113.17 6.56812 113.253 6.65342C113.337 6.73871 113.37 6.84107 113.37 6.94343V8.59825C113.37 8.71767 113.337 8.80297 113.253 8.88827C113.17 8.97357 113.07 9.00769 112.969 9.00769H108.61V10.7478H113.42V10.7819ZM126.984 2.38843C127.652 2.38843 128.254 2.45667 128.788 2.61021C129.323 2.76375 129.757 2.96847 130.124 3.25849C130.509 3.5485 130.776 3.92382 130.976 4.38444C131.177 4.828 131.277 5.35686 131.277 5.95396C131.277 6.73872 131.127 7.38699 130.809 7.89879C130.492 8.41059 130.041 8.80297 129.473 9.05887L131.361 12.7609C131.394 12.8291 131.411 12.8803 131.411 12.9315C131.411 13.0168 131.377 13.1021 131.31 13.1874C131.244 13.2556 131.177 13.2727 131.077 13.2727H129.005C128.805 13.2727 128.654 13.2215 128.554 13.1362C128.471 13.0509 128.404 12.9485 128.354 12.8632L126.667 9.53655H125.264V12.8632C125.264 12.9827 125.213 13.068 125.147 13.1533C125.063 13.2386 124.963 13.2727 124.863 13.2727H122.875C122.758 13.2727 122.658 13.2386 122.591 13.1533C122.507 13.068 122.474 12.9656 122.474 12.8632V2.79787C122.474 2.67845 122.524 2.59315 122.591 2.50785C122.674 2.42255 122.775 2.38843 122.875 2.38843H126.984ZM125.264 7.09697H126.984C127.418 7.09697 127.769 7.01167 128.036 6.84107C128.32 6.67047 128.471 6.38046 128.471 5.9369C128.471 5.49334 128.337 5.20332 128.036 5.03272C127.769 4.86212 127.418 4.77682 126.984 4.77682H125.264V7.09697Z" fill="#262830"/>
<path d="M2.82298 5.5616C2.82298 5.27158 2.60583 5.0498 2.32186 5.0498H0.501121C0.217152 5.0498 0 5.27158 0 5.5616V15.4393C0 15.7293 0.217152 15.9511 0.501121 15.9511H2.32186C2.60583 15.9511 2.82298 15.7293 2.82298 15.4393V5.5616Z" fill="#262830"/>
<path d="M12.9122 13.085V15.4563C12.9122 15.7463 12.6951 15.9681 12.4111 15.9681H0.501121C0.217152 15.9681 0 15.7463 0 15.4563V13.5968C0 13.3067 0.217152 13.085 0.501121 13.085H12.9122Z" fill="#262830"/>
<path d="M12.9123 13.085H10.0894V5.61275C10.0894 5.32273 10.3065 5.10095 10.5905 5.10095H12.4112C12.6952 5.10095 12.9123 5.32273 12.9123 5.61275V13.085Z" fill="#262830"/>
<path d="M0 0.511799C0 0.221779 0.217152 0 0.501121 0H2.32186C2.60583 0 2.82298 0.221779 2.82298 0.511799V2.32015C2.82298 2.61017 2.60583 2.83195 2.32186 2.83195H0.501121C0.217152 2.83195 0 2.61017 0 2.32015V0.511799Z" fill="#262830"/>
<path d="M15.134 10.3895C15.134 10.6795 15.3512 10.9013 15.6352 10.9013H17.4559C17.7399 10.9013 17.957 10.6795 17.957 10.3895V0.511798C17.957 0.221779 17.7399 0 17.4559 0H15.6352C15.3512 0 15.134 0.221779 15.134 0.511798V10.3895Z" fill="#7869CF"/>
<path d="M5.04468 2.88313V0.511799C5.04468 0.221779 5.26183 0 5.5458 0H17.4558C17.7397 0 17.9569 0.221779 17.9569 0.511799V2.37133C17.9569 2.66135 17.7397 2.88313 17.4558 2.88313H5.04468Z" fill="#7869CF"/>
<path d="M5.04468 2.88318H7.86766V10.3384C7.86766 10.6284 7.65051 10.8502 7.36654 10.8502H5.5458C5.26183 10.8502 5.04468 10.6284 5.04468 10.3384V2.88318Z" fill="#7869CF"/>
<path d="M17.957 15.4392C17.957 15.7292 17.7399 15.951 17.4559 15.951H15.6352C15.3512 15.951 15.134 15.7292 15.134 15.4392V13.6308C15.134 13.3408 15.3512 13.119 15.6352 13.119H17.4559C17.7399 13.119 17.957 13.3408 17.957 13.6308V15.4392Z" fill="#7869CF"/>
</g>
<defs>
<clipPath id="clip0">
<rect width="131.394" height="16" fill="white"/>
</clipPath>
</defs>
</svg>
