<svg width="40" height="41" viewBox="0 0 40 41" fill="none" xmlns="http://www.w3.org/2000/svg">
<path d="M8.33333 7.1665H15L18.3333 15.4998L14.1667 17.9998C15.9516 21.6191 18.8808 24.5482 22.5 26.3332L25 22.1665L33.3333 25.4998V32.1665C33.3333 33.0506 32.9821 33.8984 32.357 34.5235C31.7319 35.1486 30.8841 35.4998 30 35.4998C23.4988 35.1048 17.3669 32.344 12.7614 27.7385C8.15584 23.1329 5.39508 17.0011 5 10.4998C5 9.61578 5.35119 8.76794 5.97631 8.14281C6.60143 7.51769 7.44928 7.1665 8.33333 7.1665" stroke="#7869CF" stroke-width="1.5" stroke-linecap="round" stroke-linejoin="round"/>
<path d="M25 12.1665C25.8841 12.1665 26.7319 12.5177 27.357 13.1428C27.9821 13.7679 28.3333 14.6158 28.3333 15.4998" stroke="#7869CF" stroke-width="1.5" stroke-linecap="round" stroke-linejoin="round"/>
<path d="M25 5.5C27.6522 5.5 30.1957 6.55357 32.0711 8.42893C33.9464 10.3043 35 12.8478 35 15.5" stroke="#7869CF" stroke-width="1.5" stroke-linecap="round" stroke-linejoin="round"/>
</svg>
