<svg width="565" height="291" fill="none" xmlns="http://www.w3.org/2000/svg"><path d="M112.427 177.91v17.334H90.21v43.701H70.068v-43.701H0v-15.625L76.782 70H90.21v107.91h22.217zm-42.359 0V95.757L11.963 177.91h58.105z" fill="#FF7575"/><path fill-rule="evenodd" clip-rule="evenodd" d="M354.017 37.106C248.144-36.65 193.882 15.354 174.706 57.27c0 0 .478-.387 1.369-1.075 16.816-27.212 57.971-73.665 136.327-30.2-14.484 2.62-33.659 6.651-53.242 22.974-17.748 12.696-39.167 19.346-57.527 16.323 2.388-4.127 28.547-30.572 67.988-45.785-9.895 2.9-33.204 10.236-53.3 20.394-20.808 11.486-31.823 24.019-31.823 24.019a132.828 132.828 0 00-15.268 20.13c-.603-5.035-1.933-10.657-4.316-16.944-6.688-17.646-1.844-36.577 2.534-43.913-68.628 43.913-45.984 85.023-20.492 104.419 0 0-.137-.338-.374-.962-12.666-14.327-32.057-45.782 7.014-82.05-1.084 8.611-2.196 20.113 3.701 34.046 4.136 12.251 4.131 25.484-.898 35.264-1.981-2.115-12.874-22.525-14.308-48.01-.596 4.793-2.306 21.246.183 35.736 2.649 12.603 8.662 23.919 9.65 25.725a137.41 137.41 0 00-1.632 9.317c-3.786 27.077.811 54.651 13.187 79.099 12.375 24.447 31.95 44.623 56.15 57.874 24.201 13.251 51.894 18.957 79.439 16.369a138.24 138.24 0 0057.255-18.517c-16.923 6.855-35.646 10.662-55.34 10.662-74.452 0-135.035-54.412-136.967-122.204a119.121 119.121 0 011.054-21.266c3.009-21.521 11.835-41.79 25.481-58.704 3.331-2.446 8.151-2.312 14.684-2.131 14.211.394 36.525 1.014 69.224-24.218 25.195-19.44 65.482-19.76 79.558-16.536zm28.754 44.33c9.449 3.01 17.926 6.9 25.237 11.865-9.466-18.193-23.024-34.112-39.737-46.479 0 0-9.077-3.372-17.644-3.976-8.568-.605-19.858-.981-19.858-.981s10.99 3.843 15.886 6.865c4.896 3.023 12.673 9.887 12.673 9.887a121.48 121.48 0 0123.443 22.82zm-240.703-15.97l-.079.376.066-.63.013.255z" fill="#A0CE1E"/><path fill-rule="evenodd" clip-rule="evenodd" d="M364.395 247.838c-13.883 11.454-30.103 19.667-47.45 24.14 5.26-.88 10.564-2.075 15.894-3.6 49.745-14.233 80.5-49.89 88.699-92.329a133.857 133.857 0 00-5.628-64.33c-8.886-25.886-25.493-48.51-47.639-64.897 0 0-9.077-3.372-17.644-3.976-8.568-.605-19.858-.981-19.858-.981s8.971 3.716 15.126 7.516c6.155 3.8 13.433 9.236 13.433 9.236 19.735 14.604 34.535 34.766 42.454 57.835a119.293 119.293 0 011.913 71.415c-6.673 23.45-20.373 44.356-39.3 59.971z" fill="#FF7575"/><path fill-rule="evenodd" clip-rule="evenodd" d="M334.283 156.436l11.099 11.099c9.045 9.045 9.133 23.621.198 32.556l-15.652 15.653c-8.936 8.935-23.511 8.846-32.556-.199l-11.233-11.232-10.9 10.9c-8.935 8.936-23.511 8.847-32.556-.198l-15.579-15.579c-9.045-9.045-9.134-23.621-.198-32.556l10.9-10.9-11.232-11.232c-9.045-9.045-9.134-23.621-.199-32.557l15.653-15.652c8.935-8.935 23.511-8.846 32.556.199l11.099 11.099 11.115-11.115c8.935-8.935 23.511-8.846 32.556.199l15.845 15.844c9.044 9.045 9.133 23.621.198 32.556l-11.114 11.115zm-15.352-.094l18.744-18.743c4.721-4.722 4.674-12.425-.105-17.205l-15.845-15.844c-4.78-4.78-12.483-4.827-17.205-.105l-18.743 18.743-18.822-18.821c-4.78-4.78-12.483-4.827-17.204-.105l-15.653 15.652c-4.722 4.722-4.675 12.425.105 17.205l18.955 18.954-18.53 18.53c-4.722 4.722-4.675 12.424.105 17.204l15.579 15.579c4.78 4.78 12.482 4.827 17.204.105l18.53-18.53 18.955 18.955c4.779 4.78 12.482 4.827 17.204.105l15.653-15.652c4.721-4.722 4.674-12.425-.105-17.205l-18.822-18.822z" fill="#FF7575"/><path d="M564.427 177.91v17.334H542.21v43.701h-20.142v-43.701H452v-15.625L528.782 70h13.428v107.91h22.217zm-42.359 0V95.757l-58.105 82.153h58.105z" fill="#A0CE1E"/></svg>