<svg width="24" height="24" viewBox="0 0 24 24" fill="none" xmlns="http://www.w3.org/2000/svg">
<path d="M1 11.9C1 17.9 5.8 23 12 23C13.9 23 15.7 22 17.3 21.2L22.3 22.5C22.4 22.5 22.4 22.5 22.5 22.5C22.9 22.5 23.1 22.2 23.1 21.9C23.1 21.8 23.1 21.8 23.1 21.7L21.8 16.8C22.7 15.2 23.2 13.9 23.2 12C23 5.8 18 1 12 1C5.9 1 1 5.9 1 11.9ZM2.4 11.9C2.4 6.7 6.7 2.4 11.9 2.4C17.2 2.4 21.5 6.6 21.5 11.9C21.5 13.6 21 14.9 20.2 16.3C20.1 16.4 20.1 16.5 20.1 16.6C20.1 16.7 20.1 16.7 20.1 16.7L21.2 20.8L17.1 19.7C17 19.7 17 19.7 16.9 19.7C16.8 19.7 16.7 19.7 16.6 19.8C15.2 20.6 13.5 21.6 11.8 21.6C6.7 21.6 2.4 17.2 2.4 11.9Z" fill="black"/>
</svg>
