<svg width="120" height="35" viewBox="0 0 120 35" fill="none" xmlns="http://www.w3.org/2000/svg">
<path fill-rule="evenodd" clip-rule="evenodd" d="M115.554 35H4.44608C1.99566 35 0 33.0274 0 30.625V4.375C0 1.96384 1.99566 0 4.44608 0H115.554C118.002 0 120 1.96384 120 4.375V30.625C120 33.0274 118.002 35 115.554 35Z" fill="black"/>
<path fill-rule="evenodd" clip-rule="evenodd" d="M115.554 0.700436C117.609 0.700436 119.291 2.35224 119.291 4.375V30.625C119.291 32.6478 117.62 34.2996 115.554 34.2996H4.44608C2.39082 34.2996 0.708635 32.6478 0.708635 30.625V4.375C0.708635 2.35224 2.37978 0.700436 4.44608 0.700436H115.554ZM115.554 0H4.44608C1.99566 0 0 1.97257 0 4.375V30.625C0 33.0362 1.99566 35 4.44608 35H115.554C118.002 35 120 33.0362 120 30.625V4.375C120 1.97257 118.002 0 115.554 0Z" fill="#A6A6A6"/>
<path d="M63.2163 11.578C62.4149 11.578 61.7394 11.3008 61.2052 10.7553C60.6754 10.2251 60.3795 9.49411 60.3928 8.74785C60.3928 7.95141 60.6665 7.27715 61.2052 6.74255C61.7372 6.19704 62.4127 5.91992 63.2141 5.91992C64.0066 5.91992 64.6821 6.19704 65.2252 6.74255C65.7638 7.29461 66.0376 7.96886 66.0376 8.74785C66.0287 9.54648 65.755 10.2207 65.2252 10.7532C64.6932 11.303 64.0176 11.578 63.2163 11.578ZM39.3722 11.578C38.5885 11.578 37.9086 11.3052 37.3523 10.7662C36.8004 10.2295 36.52 9.55085 36.52 8.75004C36.52 7.94922 36.8004 7.27061 37.3523 6.73383C37.8975 6.19486 38.5775 5.9221 39.3722 5.9221C39.7607 5.9221 40.1382 5.99848 40.5003 6.1534C40.8557 6.30396 41.1449 6.50907 41.359 6.76001L41.412 6.82329L40.8138 7.40371L40.752 7.33171C40.4142 6.93457 39.9616 6.74037 39.3634 6.74037C38.8291 6.74037 38.3633 6.92803 37.9792 7.29897C37.5929 7.6721 37.3964 8.16088 37.3964 8.75222C37.3964 9.34355 37.5929 9.83233 37.9792 10.2055C38.3633 10.5764 38.8291 10.7641 39.3634 10.7641C39.9329 10.7641 40.412 10.5764 40.7851 10.2055C41.0058 9.98726 41.1427 9.68177 41.1913 9.29555H39.2729V8.47946H42.0147L42.0257 8.55365C42.0456 8.69112 42.0655 8.83295 42.0655 8.96388C42.0655 9.71668 41.8359 10.3255 41.3811 10.775C40.8645 11.3074 40.189 11.578 39.3722 11.578ZM71.0753 11.4623H70.2298L67.6403 7.36662L67.6624 8.10415V11.4601H66.8169V6.03775H67.7816L67.8081 6.07921L70.243 9.93707L70.2209 9.20172V6.03775H71.0753V11.4623ZM56.8629 11.4623H56.0063V6.85384H54.5206V6.03775H58.3464V6.85384H56.8607V11.4623H56.8629ZM53.823 11.4623H52.9687V6.03775H53.823V11.4623ZM49.0215 11.4623H48.1672V6.85384H46.6815V6.03775H50.5072V6.85384H49.0215V11.4623ZM46.1407 11.4536H42.8646V6.03775H46.1407V6.85384H43.7211V8.34199H45.9044V9.14935H43.7211V10.6375H46.1407V11.4536ZM61.8321 10.1945C62.214 10.572 62.6776 10.7619 63.2163 10.7619C63.7704 10.7619 64.2229 10.5764 64.6004 10.1945C64.9757 9.8236 65.1656 9.33701 65.1656 8.75004C65.1656 8.16306 64.9757 7.67429 64.6026 7.30552C64.2207 6.92803 63.7549 6.73819 63.2185 6.73819C62.6644 6.73819 62.2118 6.92366 61.8366 7.30552C61.4613 7.67647 61.2714 8.16306 61.2714 8.75004C61.2714 9.33701 61.4591 9.82578 61.8321 10.1945Z" fill="white"/>
<path fill-rule="evenodd" clip-rule="evenodd" d="M60.3137 19.0361C58.2275 19.0361 56.5365 20.6006 56.5365 22.7587C56.5365 24.8971 58.2386 26.4813 60.3137 26.4813C62.3999 26.4813 64.0909 24.9058 64.0909 22.7587C64.0909 20.6006 62.3999 19.0361 60.3137 19.0361ZM60.3137 25.0062C59.1724 25.0062 58.19 24.0723 58.19 22.75C58.19 21.408 59.1746 20.4937 60.3137 20.4937C61.455 20.4937 62.4374 21.408 62.4374 22.75C62.4396 24.081 61.455 25.0062 60.3137 25.0062ZM52.0728 19.0361C49.9866 19.0361 48.2956 20.6006 48.2956 22.7587C48.2956 24.8971 49.9976 26.4813 52.0728 26.4813C54.1589 26.4813 55.85 24.9058 55.85 22.7587C55.85 20.6006 54.1567 19.0361 52.0728 19.0361ZM52.0728 25.0062C50.9315 25.0062 49.9491 24.0723 49.9491 22.75C49.9491 21.408 50.9337 20.4937 52.0728 20.4937C53.2141 20.4937 54.1965 21.408 54.1965 22.75C54.1965 24.081 53.2141 25.0062 52.0728 25.0062ZM42.2667 20.173V21.7484H46.0924C45.9754 22.6321 45.6796 23.2846 45.227 23.7319C44.6663 24.2861 43.8009 24.8884 42.2755 24.8884C39.9244 24.8884 38.0855 23.0118 38.0855 20.6879C38.0855 18.364 39.9244 16.4875 42.2755 16.4875C43.5449 16.4875 44.4698 16.9828 45.1564 17.6156L46.2867 16.4984C45.333 15.595 44.0636 14.9033 42.2843 14.9033C39.059 14.9033 36.3525 17.5 36.3525 20.6792C36.3525 23.8672 39.0568 26.4551 42.2843 26.4551C44.0261 26.4551 45.333 25.8921 46.3662 24.8316C47.4192 23.7908 47.7525 22.3223 47.7525 21.1374C47.7525 20.7687 47.7238 20.437 47.6642 20.1555H42.2645C42.2667 20.1533 42.2667 20.173 42.2667 20.173ZM82.3763 21.3993C82.0607 20.5635 81.107 19.0274 79.1511 19.0274C77.2128 19.0274 75.6013 20.5352 75.6013 22.75C75.6013 24.8404 77.1951 26.4725 79.3387 26.4725C81.0606 26.4725 82.0629 25.4317 82.4757 24.8207L81.1975 23.9741C80.7736 24.596 80.1842 25.004 79.3475 25.004C78.502 25.004 77.9104 24.6243 77.5174 23.8759L82.5529 21.8139C82.5529 21.816 82.3763 21.3993 82.3763 21.3993ZM77.2415 22.643C77.2018 21.2051 78.3718 20.4741 79.2085 20.4741C79.8685 20.4741 80.4182 20.7948 80.6059 21.2618L77.2415 22.643ZM73.1508 26.25H74.8043V15.3135H73.1508V26.25ZM70.4355 19.8631H70.3759C70.0028 19.4245 69.2942 19.0274 68.3891 19.0274C66.5104 19.0274 64.7797 20.6617 64.7797 22.7609C64.7797 24.8513 66.5016 26.466 68.3891 26.466C69.2831 26.466 70.0028 26.0667 70.3759 25.6193H70.4355V26.1539C70.4355 27.5745 69.6673 28.3404 68.4288 28.3404C67.4155 28.3404 66.7864 27.6203 66.5303 27.018L65.0931 27.6116C65.506 28.5935 66.6075 29.8089 68.4266 29.8089C70.3649 29.8089 72.0073 28.6808 72.0073 25.9292V19.25H70.4443V19.8631C70.4465 19.8631 70.4355 19.8631 70.4355 19.8631ZM68.537 25.0062C67.3956 25.0062 66.442 24.0635 66.442 22.7609C66.442 21.4473 67.3956 20.4959 68.537 20.4959C69.6673 20.4959 70.5437 21.4582 70.5437 22.7609C70.5547 24.0635 69.6695 25.0062 68.537 25.0062ZM90.1184 15.3135H86.1646V26.25H87.818V22.1084H90.1206C91.9506 22.1084 93.7498 20.797 93.7498 18.7154C93.7498 16.6337 91.9573 15.3135 90.1184 15.3135ZM90.1669 20.581H87.8158V16.8279H90.1669C91.4054 16.8279 92.1052 17.8382 92.1052 18.7044C92.1052 19.562 91.3965 20.581 90.1669 20.581ZM100.377 19.0165C99.1761 19.0165 97.9376 19.5423 97.4255 20.6879L98.8913 21.2902C99.207 20.6879 99.7854 20.4828 100.397 20.4828C101.253 20.4828 102.119 20.989 102.139 21.8924V22.0081C101.843 21.8422 101.194 21.5891 100.417 21.5891C98.8339 21.5891 97.229 22.4445 97.229 24.0483C97.229 25.5168 98.5271 26.4594 99.973 26.4594C101.083 26.4594 101.695 25.9641 102.077 25.3902H102.136V26.2369H103.73V22.0473C103.73 20.0966 102.264 19.0165 100.377 19.0165ZM100.169 25.0062C99.6286 25.0062 98.8714 24.7443 98.8714 24.0723C98.8714 23.2256 99.8163 22.9049 100.622 22.9049C101.351 22.9049 101.695 23.0598 102.128 23.2736C102.008 24.2556 101.17 24.9975 100.169 25.0062ZM109.545 19.25L107.647 23.9937H107.587L105.62 19.25H103.841L106.792 25.8812L105.11 29.5667H106.832L111.373 19.25H109.545ZM94.6616 26.25H96.315V15.3135H94.6616V26.25Z" fill="white"/>
<path fill-rule="evenodd" clip-rule="evenodd" d="M9.23651 6.59212C8.98043 6.86487 8.83252 7.28164 8.83252 7.82716V27.1753C8.83252 27.7209 8.98043 28.1376 9.24534 28.3995L9.31377 28.4584L20.2811 17.618V17.3758L9.30494 6.5332L9.23651 6.59212Z" fill="url(#paint0_linear)"/>
<path fill-rule="evenodd" clip-rule="evenodd" d="M23.93 21.2422L20.272 17.6266V17.3735L23.93 13.7578L24.0094 13.8058L28.3363 16.2366C29.5748 16.9261 29.5748 18.0652 28.3363 18.7634L24.0094 21.1942L23.93 21.2422Z" fill="url(#paint1_linear)"/>
<path fill-rule="evenodd" clip-rule="evenodd" d="M24.0095 21.1942L20.2721 17.5L9.23633 28.408C9.64032 28.8357 10.318 28.8837 11.0752 28.467L24.0095 21.1942Z" fill="url(#paint2_linear)"/>
<path fill-rule="evenodd" clip-rule="evenodd" d="M24.0095 13.8056L11.0752 6.5438C10.318 6.11612 9.63811 6.17503 9.23633 6.60271L20.2721 17.4998L24.0095 13.8056Z" fill="url(#paint3_linear)"/>
<path opacity="0.2" fill-rule="evenodd" clip-rule="evenodd" d="M23.9305 21.1157L11.0845 28.3296C10.3671 28.7376 9.72686 28.7093 9.31404 28.3383L9.24561 28.406L9.31404 28.4649C9.72686 28.8336 10.3671 28.8642 11.0845 28.4562L24.0188 21.1943L23.9305 21.1157Z" fill="black"/>
<path opacity="0.12" fill-rule="evenodd" clip-rule="evenodd" d="M28.3363 18.6368L23.9189 21.1156L23.9984 21.1942L28.3253 18.7634C28.9456 18.4143 29.2503 17.956 29.2503 17.5C29.2127 17.919 28.897 18.3161 28.3363 18.6368Z" fill="black"/>
<path opacity="0.25" fill-rule="evenodd" clip-rule="evenodd" d="M11.0754 6.67075L28.3365 16.3634C28.8973 16.6754 29.213 17.0835 29.2615 17.5002C29.2615 17.0442 28.9569 16.586 28.3365 16.2368L11.0754 6.54419C9.83697 5.84375 8.83252 6.42854 8.83252 7.82723V7.95379C8.83252 6.55292 9.83697 5.97904 11.0754 6.67075Z" fill="white"/>
<defs>
<linearGradient id="paint0_linear" x1="19.2973" y1="7.61841" x2="1.75699" y2="12.3468" gradientUnits="userSpaceOnUse">
<stop stop-color="#00A0FF"/>
<stop offset="0.00657" stop-color="#00A1FF"/>
<stop offset="0.2601" stop-color="#00BEFF"/>
<stop offset="0.5122" stop-color="#00D2FF"/>
<stop offset="0.7604" stop-color="#00DFFF"/>
<stop offset="1" stop-color="#00E3FF"/>
</linearGradient>
<linearGradient id="paint1_linear" x1="29.9514" y1="17.5001" x2="8.53122" y2="17.5001" gradientUnits="userSpaceOnUse">
<stop stop-color="#FFE000"/>
<stop offset="0.4087" stop-color="#FFBD00"/>
<stop offset="0.7754" stop-color="#FFA500"/>
<stop offset="1" stop-color="#FF9C00"/>
</linearGradient>
<linearGradient id="paint2_linear" x1="21.9772" y1="19.5102" x2="8.11521" y2="43.1142" gradientUnits="userSpaceOnUse">
<stop stop-color="#FF3A44"/>
<stop offset="1" stop-color="#C31162"/>
</linearGradient>
<linearGradient id="paint3_linear" x1="6.45741" y1="0.156286" x2="12.6418" y2="10.6981" gradientUnits="userSpaceOnUse">
<stop stop-color="#32A071"/>
<stop offset="0.0685" stop-color="#2DA771"/>
<stop offset="0.4762" stop-color="#15CF74"/>
<stop offset="0.8009" stop-color="#06E775"/>
<stop offset="1" stop-color="#00F076"/>
</linearGradient>
</defs>
</svg>
