<svg width="56" height="56" viewBox="0 0 56 56" fill="none" xmlns="http://www.w3.org/2000/svg">
<path d="M28.0002 46.6667L21.0002 39.6667H16.3335C14.477 39.6667 12.6965 38.9292 11.3837 37.6164C10.071 36.3037 9.3335 34.5232 9.3335 32.6667V18.6667C9.3335 16.8102 10.071 15.0297 11.3837 13.7169C12.6965 12.4042 14.477 11.6667 16.3335 11.6667H39.6668C41.5233 11.6667 43.3038 12.4042 44.6166 13.7169C45.9293 15.0297 46.6668 16.8102 46.6668 18.6667V32.6667C46.6668 34.5232 45.9293 36.3037 44.6166 37.6164C43.3038 38.9292 41.5233 39.6667 39.6668 39.6667H35.0002L28.0002 46.6667Z" stroke="#7EAB00" stroke-width="1.5" stroke-linecap="round" stroke-linejoin="round"/>
<path d="M18.6665 21H37.3332" stroke="#7EAB00" stroke-width="1.5" stroke-linecap="round" stroke-linejoin="round"/>
<path d="M18.6665 30.3333H32.6665" stroke="#7EAB00" stroke-width="1.5" stroke-linecap="round" stroke-linejoin="round"/>
</svg>
