<svg width="56" height="56" viewBox="0 0 56 56" fill="none" xmlns="http://www.w3.org/2000/svg">
<path d="M30.3336 7C30.9524 7 31.5459 7.24583 31.9835 7.68342C32.4211 8.121 32.6669 8.71449 32.6669 9.33333V19.915L41.8322 14.6253C42.3681 14.3159 43.005 14.2321 43.6028 14.3922C44.2005 14.5524 44.7101 14.9434 45.0196 15.4793L47.3529 19.5207C47.6623 20.0566 47.7462 20.6935 47.586 21.2912C47.4258 21.8889 47.0348 22.3986 46.4989 22.708L37.3359 28L46.4989 33.2943C47.0348 33.6038 47.4258 34.1134 47.586 34.7111C47.7462 35.3089 47.6623 35.9457 47.3529 36.4817L45.0196 40.523C44.7101 41.0589 44.2005 41.4499 43.6028 41.6101C43.005 41.7703 42.3681 41.6864 41.8322 41.377L32.6669 36.0827V46.6667C32.6669 47.2855 32.4211 47.879 31.9835 48.3166C31.5459 48.7542 30.9524 49 30.3336 49H25.6669C25.0481 49 24.4546 48.7542 24.017 48.3166C23.5794 47.879 23.3336 47.2855 23.3336 46.6667V36.0827L14.1682 41.3747C13.6323 41.6841 12.9954 41.7679 12.3977 41.6078C11.8 41.4476 11.2903 41.0566 10.9809 40.5207L8.64756 36.4793C8.33816 35.9434 8.25431 35.3065 8.41447 34.7088C8.57462 34.1111 8.96566 33.6014 9.50156 33.292L18.6646 28L9.50156 22.708C8.96566 22.3986 8.57462 21.8889 8.41447 21.2912C8.25431 20.6935 8.33816 20.0566 8.64756 19.5207L10.9809 15.4793C11.2903 14.9434 11.8 14.5524 12.3977 14.3922C12.9954 14.2321 13.6323 14.3159 14.1682 14.6253L23.3336 19.915V9.33333C23.3336 8.71449 23.5794 8.121 24.017 7.68342C24.4546 7.24583 25.0481 7 25.6669 7H30.3336Z" stroke="#7EAB00" stroke-width="1.5" stroke-linecap="round" stroke-linejoin="round"/>
</svg>
