<svg width="24" height="24" viewBox="0 0 24 24" fill="none" xmlns="http://www.w3.org/2000/svg">
<path d="M11.9991 20.0001L4.99912 13.0001C4.60516 12.5733 4.29911 12.0731 4.09846 11.528C3.89782 10.9829 3.80649 10.4037 3.82971 9.82333C3.87659 8.65122 4.38717 7.54575 5.24912 6.7501C6.11108 5.95445 7.2538 5.5338 8.4259 5.58069C9.598 5.62757 10.7035 6.13815 11.4991 7.0001C11.6471 7.09899 11.8211 7.15177 11.9991 7.15177C12.1771 7.15177 12.3511 7.09899 12.4991 7.0001C13.2948 6.13815 14.4002 5.62757 15.5723 5.58069C16.7444 5.5338 17.8872 5.95445 18.7491 6.7501C19.6111 7.54575 20.1217 8.65122 20.1685 9.82333C20.2154 10.9954 19.7948 12.1381 18.9991 13.0001L11.9991 20.0001Z" stroke="#C2C1CE" stroke-width="1.5" stroke-linecap="round" stroke-linejoin="round"/>
</svg>
