<svg width="24" height="24" viewBox="0 0 24 24" fill="none" xmlns="http://www.w3.org/2000/svg">
<path d="M12.0001 20L5.0001 13C4.60613 12.5732 4.30009 12.073 4.09944 11.5279C3.89879 10.9829 3.80747 10.4036 3.83068 9.82324C3.87757 8.65113 4.38815 7.54566 5.2501 6.75001C6.11205 5.95436 7.25477 5.53371 8.42688 5.58059C9.59898 5.62748 10.7045 6.13806 11.5001 7.00001C11.6481 7.0989 11.8221 7.15168 12.0001 7.15168C12.1781 7.15168 12.3521 7.0989 12.5001 7.00001C13.2957 6.13806 14.4012 5.62748 15.5733 5.58059C16.7454 5.53371 17.8881 5.95436 18.7501 6.75001C19.6121 7.54566 20.1226 8.65113 20.1695 9.82324C20.2164 10.9953 19.7957 12.1381 19.0001 13L12.0001 20Z" stroke="#FF7575" stroke-width="1.5" stroke-linecap="round" stroke-linejoin="round"/>
</svg>
