<svg width="24" height="22" viewBox="0 0 24 22" fill="none" xmlns="http://www.w3.org/2000/svg">
<path d="M12.0001 20.6667L2.66672 11.3333C2.14143 10.7643 1.73337 10.0973 1.46584 9.37055C1.19831 8.64378 1.07654 7.87144 1.1075 7.09762C1.17001 5.53482 1.85078 4.06086 3.00005 2.99999C4.14932 1.93912 5.67295 1.37826 7.23575 1.44077C8.79856 1.50328 10.2725 2.18405 11.3334 3.33332C11.5307 3.46517 11.7627 3.53555 12.0001 3.53555C12.2374 3.53555 12.4694 3.46517 12.6667 3.33332C13.7276 2.18405 15.2015 1.50328 16.7644 1.44077C18.3272 1.37826 19.8508 1.93912 21.0001 2.99999C22.1493 4.06086 22.8301 5.53482 22.8926 7.09762C22.9551 8.66042 22.3943 10.1841 21.3334 11.3333L12.0001 20.6667Z" stroke="#FF7575" stroke-width="1.5" stroke-linecap="round" stroke-linejoin="round"/>
</svg>
