<svg width="38" height="38" viewBox="0 0 38 38" fill="none" xmlns="http://www.w3.org/2000/svg">
<path d="M8.02754 30.0833H30.0834C30.5878 30.0573 31.0788 29.911 31.5151 29.6566C31.9515 29.4022 32.3207 29.0471 32.5919 28.621C32.8631 28.1948 33.0284 27.71 33.0741 27.2069C33.1197 26.7039 33.0443 26.1972 32.8542 25.7292L27.3125 16.0313L21.7709 6.33334C21.497 5.83839 21.0956 5.42582 20.6083 5.13854C20.121 4.85125 19.5657 4.69973 19 4.69973C18.4344 4.69973 17.879 4.85125 17.3918 5.13854C16.9045 5.42582 16.5031 5.83839 16.2292 6.33334L5.14588 25.7292C4.95578 26.1972 4.8804 26.7039 4.92603 27.2069C4.97166 27.71 5.13697 28.1948 5.40816 28.621C5.67935 29.0471 6.04855 29.4022 6.48494 29.6566C6.92134 29.911 7.41225 30.0573 7.91671 30.0833" stroke="#5FA4CA" stroke-width="1.5" stroke-linecap="round" stroke-linejoin="round"/>
<path d="M19 12.6667V19.7917M19 24.5417V23.75" stroke="#5FA4CA" stroke-width="1.5" stroke-linecap="round" stroke-linejoin="round"/>
</svg>
