<svg width="38" height="38" viewBox="0 0 38 38" fill="none" xmlns="http://www.w3.org/2000/svg">
<path d="M22.1667 4.75V11.0833C22.1667 11.5033 22.3336 11.906 22.6305 12.2029C22.9274 12.4999 23.3302 12.6667 23.7501 12.6667H30.0834" stroke="#5FA4CA" stroke-width="1.5" stroke-linecap="round" stroke-linejoin="round"/>
<path d="M26.9167 33.25H11.0834C10.2436 33.25 9.43811 32.9164 8.84424 32.3225C8.25038 31.7286 7.91675 30.9232 7.91675 30.0833V7.91667C7.91675 7.07681 8.25038 6.27136 8.84424 5.6775C9.43811 5.08363 10.2436 4.75 11.0834 4.75H22.1667L30.0834 12.6667V30.0833C30.0834 30.9232 29.7498 31.7286 29.1559 32.3225C28.5621 32.9164 27.7566 33.25 26.9167 33.25Z" stroke="#5FA4CA" stroke-width="1.5" stroke-linecap="round" stroke-linejoin="round"/>
<path d="M14.25 14.25H15.8333" stroke="#5FA4CA" stroke-width="1.5" stroke-linecap="round" stroke-linejoin="round"/>
<path d="M14.25 20.5833H23.75" stroke="#5FA4CA" stroke-width="1.5" stroke-linecap="round" stroke-linejoin="round"/>
<path d="M14.25 26.9167H23.75" stroke="#5FA4CA" stroke-width="1.5" stroke-linecap="round" stroke-linejoin="round"/>
</svg>
