<svg width="38" height="38" viewBox="0 0 38 38" fill="none" xmlns="http://www.w3.org/2000/svg">
<path d="M6.33325 12.6667V9.49999C6.33325 8.66014 6.66688 7.85469 7.26075 7.26082C7.85461 6.66696 8.66007 6.33333 9.49992 6.33333H12.6666" stroke="#5FA4CA" stroke-width="1.5" stroke-linecap="round" stroke-linejoin="round"/>
<path d="M6.33325 25.3333V28.5C6.33325 29.3398 6.66688 30.1453 7.26075 30.7392C7.85461 31.333 8.66007 31.6667 9.49992 31.6667H12.6666" stroke="#5FA4CA" stroke-width="1.5" stroke-linecap="round" stroke-linejoin="round"/>
<path d="M25.3333 6.33333H28.4999C29.3398 6.33333 30.1452 6.66696 30.7391 7.26082C31.333 7.85469 31.6666 8.66014 31.6666 9.49999V12.6667" stroke="#5FA4CA" stroke-width="1.5" stroke-linecap="round" stroke-linejoin="round"/>
<path d="M25.3333 31.6667H28.4999C29.3398 31.6667 30.1452 31.333 30.7391 30.7392C31.333 30.1453 31.6666 29.3398 31.6666 28.5V25.3333" stroke="#5FA4CA" stroke-width="1.5" stroke-linecap="round" stroke-linejoin="round"/>
<path d="M14.25 19H23.75" stroke="#5FA4CA" stroke-width="1.5" stroke-linecap="round" stroke-linejoin="round"/>
<path d="M19 14.25V23.75" stroke="#5FA4CA" stroke-width="1.5" stroke-linecap="round" stroke-linejoin="round"/>
</svg>
