<svg width="24" height="24" viewBox="0 0 24 24" fill="none" xmlns="http://www.w3.org/2000/svg">
<path d="M17.1 1H6.9C3.7 1 1 3.7 1 6.9V17C1 20.3 3.7 23 6.9 23H17C20.3 23 22.9 20.3 22.9 17.1V6.9C23 3.7 20.3 1 17.1 1ZM21.5 17.1C21.5 19.5 19.5 21.5 17.1 21.5H6.9C4.5 21.5 2.5 19.5 2.5 17.1V6.9C2.5 4.5 4.5 2.5 6.9 2.5H17.2C19.6 2.5 21.6 4.5 21.6 6.9V17.1H21.5Z" fill="black"/>
<path d="M16.9001 11.1998C16.7001 10.0998 16.3001 9.1998 15.5001 8.3998C14.7001 7.5998 13.8001 7.1998 12.7001 6.9998C12.2001 6.8998 11.7001 6.8998 11.3001 6.9998C10.0001 7.2998 8.90014 7.9998 8.10014 8.9998C7.30014 9.9998 7.00014 11.3998 7.20014 12.6998C7.40014 13.9998 8.00014 15.0998 9.10014 15.8998C10.0001 16.4998 11.0001 16.8998 12.0001 16.8998C12.2001 16.8998 12.5001 16.8998 12.7001 16.7998C14.0001 16.5998 15.2001 15.8998 15.9001 14.8998C16.8001 13.7998 17.1001 12.4998 16.9001 11.1998ZM12.6001 15.3998C11.7001 15.4998 10.8001 15.2998 10.0001 14.7998C9.30014 14.1998 8.80014 13.3998 8.60014 12.4998C8.50014 11.5998 8.70014 10.6998 9.20014 9.8998C9.80014 9.1998 10.6001 8.6998 11.5001 8.4998C11.7001 8.4998 11.8001 8.4998 12.0001 8.4998C12.2001 8.4998 12.3001 8.4998 12.5001 8.4998C14.0001 8.6998 15.2001 9.8998 15.4001 11.3998C15.8001 13.2998 14.5001 15.0998 12.6001 15.3998Z" fill="black"/>
<path d="M18.3999 5.5998C18.1999 5.3998 17.9999 5.2998 17.7999 5.2998C17.5999 5.2998 17.2999 5.3998 17.1999 5.5998C16.9999 5.7998 16.8999 5.9998 16.8999 6.1998C16.8999 6.3998 16.9999 6.6998 17.1999 6.7998C17.3999 6.9998 17.5999 7.0998 17.7999 7.0998C17.9999 7.0998 18.2999 6.9998 18.3999 6.7998C18.5999 6.5998 18.6999 6.3998 18.6999 6.1998C18.6999 5.8998 18.5999 5.6998 18.3999 5.5998Z" fill="black"/>
</svg>
