<svg width="56" height="56" viewBox="0 0 56 56" fill="none" xmlns="http://www.w3.org/2000/svg">
<path d="M20.9998 25.6667C26.1545 25.6667 30.3332 21.488 30.3332 16.3333C30.3332 11.1787 26.1545 7 20.9998 7C15.8452 7 11.6665 11.1787 11.6665 16.3333C11.6665 21.488 15.8452 25.6667 20.9998 25.6667Z" stroke="#5FA4CA" stroke-width="1.5" stroke-linecap="round" stroke-linejoin="round"/>
<path d="M7 49V44.3333C7 41.858 7.98333 39.484 9.73367 37.7337C11.484 35.9833 13.858 35 16.3333 35H25.6667C28.142 35 30.516 35.9833 32.2663 37.7337C34.0167 39.484 35 41.858 35 44.3333V49" stroke="#5FA4CA" stroke-width="1.5" stroke-linecap="round" stroke-linejoin="round"/>
<path d="M37.3335 25.6667L42.0002 30.3333L51.3335 21" stroke="#5FA4CA" stroke-width="1.5" stroke-linecap="round" stroke-linejoin="round"/>
</svg>
