<svg width="56" height="56" viewBox="0 0 56 56" fill="none" xmlns="http://www.w3.org/2000/svg">
<path d="M14.0354 39.5404C10.4003 35.8457 8.14844 30.7188 8.14844 25.0518C8.14844 15.8437 14.0939 8.06161 22.2578 5.53255M14.0354 39.5404V51.3334M14.0354 39.5404C16.3068 41.8491 19.1183 43.5985 22.2578 44.5711M14.0354 51.3334H7M14.0354 51.3334H22.2578M42.2734 51.3334V39.2195M42.2734 51.3334H49H33.7422M42.2734 51.3334H33.7422M42.2734 39.2195C45.7268 35.5517 47.8516 30.5566 47.8516 25.0518C47.8516 15.8437 41.9061 8.06161 33.7422 5.53255M42.2734 39.2195C42.2734 39.0847 42.2734 39.2703 42.2734 39.2195ZM42.2734 39.2195C39.9502 41.6871 37.0256 43.554 33.7422 44.5711M22.2578 44.5711V51.3334M22.2578 44.5711V38.1055M22.2578 51.3334H33.7422M33.7422 44.5711V51.3334M33.7422 44.5711V38.1055M33.7422 28.0843H22.2578M33.7422 28.0843H19.1406H22.2578M33.7422 28.0843H36.8594M33.7422 28.0843V38.1055M22.2578 28.0843V38.1055M28 10.7317C27.9452 10.7317 27.8906 10.7321 27.8359 10.7327H28M28 10.7317C28.0548 10.7317 28.1095 10.7321 28.1641 10.7327H28M28 10.7317V10.5633V10.7327M22.2578 38.1055C17.4204 35.8581 14.0547 30.8586 14.0547 25.0518C14.0547 19.2451 17.4204 14.2456 22.2578 11.9982M33.7422 38.1055C38.5796 35.8581 41.9453 30.8586 41.9453 25.0518C41.9453 19.2451 38.5796 14.2456 33.7422 11.9982M22.2578 5.53255V11.9982M22.2578 5.53255V4.66675H28H33.7422V5.53255M22.2578 11.9982V16.6282H33.7422V11.9982M33.7422 5.53255V11.9982M28 10.7327V10.9002" stroke="#5FA4CA" stroke-width="1.5" stroke-linecap="round" stroke-linejoin="round"/>
</svg>
