<svg width="56" height="56" viewBox="0 0 56 56" fill="none" xmlns="http://www.w3.org/2000/svg">
<path d="M28 18.6667V28.0001L32.6667 32.6667" stroke="#5FA4CA" stroke-width="1.5" stroke-linecap="round" stroke-linejoin="round"/>
<path d="M7.1167 25.6666C7.63958 20.5334 10.034 15.7723 13.8431 12.2918C17.6522 8.81133 22.6093 6.85498 27.7687 6.79605C32.9282 6.73712 37.9287 8.57973 41.8163 11.9723C45.7039 15.3649 48.2064 20.07 48.8464 25.1899C49.4864 30.3099 48.2191 35.4862 45.2862 39.7314C42.3533 43.9765 37.9602 46.9933 32.945 48.2062C27.9298 49.4191 22.6437 48.7432 18.095 46.3074C13.5464 43.8716 10.0537 39.8465 8.28337 34.9999M7.1167 46.6666V34.9999H18.7834" stroke="#5FA4CA" stroke-width="1.5" stroke-linecap="round" stroke-linejoin="round"/>
</svg>
