<svg width="56" height="56" viewBox="0 0 56 56" fill="none" xmlns="http://www.w3.org/2000/svg">
<path d="M39.6668 18.6666V11.6666C39.6668 11.0477 39.421 10.4543 38.9834 10.0167C38.5458 9.57909 37.9523 9.33325 37.3335 9.33325H14.0002C12.7625 9.33325 11.5755 9.82492 10.7003 10.7001C9.82516 11.5753 9.3335 12.7622 9.3335 13.9999M9.3335 13.9999C9.3335 15.2376 9.82516 16.4246 10.7003 17.2997C11.5755 18.1749 12.7625 18.6666 14.0002 18.6666H42.0002C42.619 18.6666 43.2125 18.9124 43.6501 19.35C44.0877 19.7876 44.3335 20.3811 44.3335 20.9999V27.9999M9.3335 13.9999V41.9999C9.3335 43.2376 9.82516 44.4246 10.7003 45.2997C11.5755 46.1749 12.7625 46.6666 14.0002 46.6666H42.0002C42.619 46.6666 43.2125 46.4207 43.6501 45.9832C44.0877 45.5456 44.3335 44.9521 44.3335 44.3332V37.3332" stroke="#5FA4CA" stroke-width="1.5" stroke-linecap="round" stroke-linejoin="round"/>
<path d="M46.6665 28V37.3333H37.3332C36.0955 37.3333 34.9085 36.8417 34.0333 35.9665C33.1582 35.0913 32.6665 33.9043 32.6665 32.6667C32.6665 31.429 33.1582 30.242 34.0333 29.3668C34.9085 28.4917 36.0955 28 37.3332 28H46.6665Z" stroke="#5FA4CA" stroke-width="1.5" stroke-linecap="round" stroke-linejoin="round"/>
</svg>
