<svg width="240" height="44" viewBox="0 0 240 44" fill="none" xmlns="http://www.w3.org/2000/svg">
<g clip-path="url(#clip0)">
<path d="M150.761 29.3564V29.0083L152.401 28.2903V18.2385L150.761 17.5205V17.1724H156.242V17.5205L154.625 18.2385V28.2903L156.242 29.0083V29.3564H150.761ZM160.646 29.3564L154.625 23.1556L159.837 18.1297L158.422 17.5205V17.1724H162.937V17.5205L161.657 17.9991L156.827 22.4811L162.623 28.4209L164.195 29.0083V29.3564H160.646Z" fill="#A0CE1E"/>
<path d="M171.471 29.3564V29.0083L173.134 28.2903V18.2602H168.686V19.1088C168.686 20.5737 168.648 21.8357 168.573 22.8945C168.498 23.9389 168.371 24.8454 168.191 25.6142C168.027 26.3684 167.809 27.0429 167.54 27.6376C167.165 28.4209 166.754 28.9358 166.304 29.1824C165.855 29.4144 165.436 29.5305 165.046 29.5305C164.807 29.5305 164.634 29.4942 164.529 29.4217C164.425 29.3492 164.372 29.2114 164.372 29.0083V27.7464L164.462 27.6594H164.664C165.683 27.6594 166.394 26.9414 166.799 25.5054C167.203 24.0694 167.405 21.9517 167.405 19.1523V18.2385L165.81 17.5422V17.1724H176.953V17.5205L175.38 18.2385V28.2903L176.953 29.0083V29.3564H171.471Z" fill="#A0CE1E"/>
<path d="M178.801 29.3564V29.0083L180.418 28.2903V18.2385L178.801 17.5205V17.1724H184.283V17.5205L182.643 18.2385V26.2669L189.18 19V18.2385L187.54 17.5205V17.1724H192.999V17.5205L191.404 18.2385V28.2903L192.999 29.0083V29.3564H187.54V29.0083L189.18 28.2903V20.3707L182.643 27.6376V28.2903L184.283 29.0083V29.3564H178.801Z" fill="#A0CE1E"/>
<path d="M194.795 29.3564V29.0083L196.413 28.2903V18.2385L194.795 17.5205V17.1724H200.277V17.5205L198.637 18.2385V22.5029H204.972V18.2385L203.332 17.5205V17.1724H208.769V17.5205L207.197 18.2385V28.2903L208.769 29.0083V29.3564H203.332V29.0083L204.972 28.2903V23.5908H198.637V28.2903L200.277 29.0083V29.3564H194.795Z" fill="#A0CE1E"/>
<path d="M210.571 29.3564V29.0083L212.188 28.2903V18.2385L210.571 17.5205V17.1724H216.052V17.5205L214.412 18.2385V26.2669L220.95 19V18.2385L219.31 17.5205V17.1724H224.769V17.5205L223.174 18.2385V28.2903L224.769 29.0083V29.3564H219.31V29.0083L220.95 28.2903V20.3707L214.412 27.6376V28.2903L216.052 29.0083V29.3564H210.571Z" fill="#A0CE1E"/>
<path d="M226.565 29.3564V29.0083L228.205 28.2903V18.2385L226.565 17.5205V17.1724H232.047V17.5205L230.429 18.2385V28.2903L232.047 29.0083V29.3564H226.565ZM236.45 29.3564L230.429 23.1556L235.642 18.1297L234.226 17.5205V17.1724H238.742V17.5205L237.461 17.9991L232.631 22.4811L238.427 28.4209L240 29.0083V29.3564H236.45Z" fill="#A0CE1E"/>
<path d="M60.8746 29.356V29.0079L62.5371 28.2899V18.2598H58.0888V19.1083C58.0888 20.5733 58.0514 21.8353 57.9765 22.8941C57.9016 23.9385 57.7743 24.845 57.5946 25.6138C57.4298 26.368 57.2127 27.0425 56.9431 27.6372C56.5686 28.4205 56.1568 28.9354 55.7075 29.182C55.2581 29.414 54.8388 29.5301 54.4494 29.5301C54.2097 29.5301 54.0375 29.4938 53.9327 29.4213C53.8278 29.3488 53.7754 29.211 53.7754 29.0079V27.746L53.8653 27.6589H54.0674C55.0859 27.6589 55.7973 26.941 56.2017 25.505C56.6061 24.069 56.8083 21.9513 56.8083 19.1519V18.2381L55.2132 17.5418V17.1719H66.3563V17.5201L64.7836 18.2381V28.2899L66.3563 29.0079V29.356H60.8746Z" fill="#FF7575"/>
<path d="M68.2041 29.356V29.0079L69.8216 28.2899V18.2381L68.2041 17.5201V17.1719H78.089V20.305H77.7296L76.5614 18.2598H72.0457V22.5025H75.3257L76.0896 21.0012H76.449V25.0698H76.0896L75.3257 23.5903H72.0457V28.2681H77.0556L78.2912 25.8096H78.6507V29.356H68.2041Z" fill="#FF7575"/>
<path d="M80.5787 29.356V29.0079L82.2187 28.2899V18.2381L80.5787 17.5201V17.1719H86.0604V17.5201L84.4428 18.2381V28.2899L86.0604 29.0079V29.356H80.5787ZM90.4637 29.356L84.4428 23.1552L89.6549 18.1293L88.2395 17.5201V17.1719H92.7552V17.5201L91.4746 17.9987L86.6445 22.4807L92.4407 28.4205L94.0133 29.0079V29.356H90.4637Z" fill="#FF7575"/>
<path d="M95.3719 29.356V29.0079L96.5177 28.4205L101.505 17.0632H102.673L107.616 28.3769L108.941 29.0079V29.356H103.729V29.0079L105.302 28.3769L103.909 25.1569H99.281L97.9106 28.3987L99.5506 29.0079V29.356H95.3719ZM99.7528 24.069H103.437L101.572 19.7393L99.7528 24.069Z" fill="#FF7575"/>
<path d="M110.066 29.356V29.0079L111.706 28.2899V18.2381L110.066 17.5201V17.1719H115.48C117.158 17.1719 118.431 17.4548 119.299 18.0205C120.168 18.5717 120.602 19.4347 120.602 20.6096C120.602 21.3348 120.37 21.9658 119.906 22.5025C119.442 23.0392 118.798 23.4525 117.974 23.7426C117.165 24.0182 116.229 24.156 115.166 24.156H113.93V28.2899L115.817 29.0079V29.356H110.066ZM113.93 18.2598V23.0899H115.031C116.034 23.0899 116.828 22.8796 117.412 22.459C117.996 22.0238 118.288 21.4219 118.288 20.6531C118.288 19.7973 117.989 19.1881 117.39 18.8255C116.806 18.4484 115.974 18.2598 114.896 18.2598H113.93Z" fill="#FF7575"/>
<path d="M122.762 17.5201V17.1719H134.04V17.5201L132.445 18.2381V28.2681H134.355V32.4673H133.995L132.4 29.356H123.234L121.662 32.4673H121.302V28.2681H122.875C123.444 26.9047 123.833 25.476 124.043 23.982C124.253 22.488 124.358 20.8127 124.358 18.956V18.2381L122.762 17.5201ZM130.221 28.2681V18.2598H125.638V18.9343C125.638 20.8344 125.533 22.5242 125.324 24.0037C125.129 25.4832 124.769 26.9047 124.245 28.2681H130.221Z" fill="#FF7575"/>
<path d="M142.336 29.5736C141.078 29.5736 139.962 29.3052 138.989 28.7686C138.015 28.2174 137.244 27.4704 136.675 26.5276C136.121 25.5702 135.844 24.4824 135.844 23.264C135.844 22.0456 136.121 20.9577 136.675 20.0004C137.244 19.0431 138.015 18.2961 138.989 17.7594C139.962 17.2082 141.078 16.9326 142.336 16.9326C143.594 16.9326 144.71 17.2082 145.684 17.7594C146.672 18.2961 147.444 19.0431 147.998 20.0004C148.567 20.9577 148.851 22.0456 148.851 23.264C148.851 24.4824 148.567 25.5702 147.998 26.5276C147.444 27.4704 146.672 28.2174 145.684 28.7686C144.71 29.3052 143.594 29.5736 142.336 29.5736ZM142.696 28.4857C143.909 28.4857 144.86 28.0578 145.549 27.202C146.238 26.3463 146.582 25.2149 146.582 23.8079C146.582 22.662 146.388 21.6539 145.998 20.7837C145.624 19.9134 145.092 19.2389 144.403 18.7602C143.714 18.2671 142.928 18.0205 142.044 18.0205C140.846 18.0205 139.888 18.4484 139.169 19.3042C138.465 20.1454 138.113 21.2623 138.113 22.6548C138.113 23.8152 138.307 24.8305 138.697 25.7008C139.086 26.5711 139.625 27.2528 140.314 27.746C141.003 28.2391 141.797 28.4857 142.696 28.4857Z" fill="#FF7575"/>
<path fill-rule="evenodd" clip-rule="evenodd" d="M36.2538 5.5641C20.0597 -5.49584 11.7598 2.30233 8.82678 8.58776C8.82678 8.58776 8.89985 8.52985 9.03608 8.42662C11.6083 4.34617 17.9033 -2.61972 29.8885 3.89817C27.6731 4.29101 24.7401 4.89537 21.7446 7.34306C19.03 9.24682 15.7537 10.244 12.9455 9.79075C13.3107 9.17186 17.312 5.20641 23.3447 2.9251C21.8313 3.35999 18.266 4.46013 15.1921 5.98324C12.0094 7.70569 10.3245 9.58497 10.3245 9.58497L10.3245 9.58498C9.4447 10.5215 8.66446 11.533 7.98916 12.6036C7.89684 11.8485 7.69354 11.0055 7.32903 10.0627C6.306 7.41671 7.04693 4.57787 7.71657 3.47782C-2.78059 10.0627 0.682895 16.2273 4.58213 19.1359C4.58213 19.1359 4.56118 19.0852 4.5249 18.9916C2.58766 16.8432 -0.378462 12.1263 5.59782 6.68779C5.43197 7.97916 5.26191 9.70395 6.16388 11.7932C6.79651 13.6303 6.79584 15.6146 6.02661 17.0812C5.72348 16.7641 4.05732 13.7035 3.83806 9.88191C3.74692 10.6006 3.48536 13.0679 3.866 15.2406C4.27125 17.1305 5.19092 18.8274 5.34207 19.0983C5.24269 19.5602 5.1594 20.0261 5.09248 20.4954C4.51338 24.5556 5.21653 28.6905 7.10946 32.3564C9.00239 36.0224 11.9965 39.0477 15.6982 41.0348C19.3998 43.0218 23.6357 43.8776 27.8489 43.4894C30.9583 43.203 33.9478 42.249 36.6066 40.7128C34.018 41.7406 31.1541 42.3115 28.1419 42.3115C16.7538 42.3115 7.4872 34.1523 7.19158 23.9867C7.1484 22.9261 7.20147 21.8591 7.35284 20.7977C7.81311 17.5706 9.16311 14.5312 11.2504 11.9949C11.7598 11.6281 12.4972 11.6481 13.4964 11.6753C15.6702 11.7345 19.0832 11.8274 24.0848 8.04383C27.9385 5.1286 34.1008 5.0806 36.2538 5.5641ZM40.6519 12.2116C42.0973 12.663 43.3939 13.2463 44.5122 13.9908C43.0644 11.2627 40.9905 8.87564 38.4341 7.02117C38.4341 7.02117 37.0458 6.51549 35.7352 6.42483C34.4247 6.33418 32.6979 6.27776 32.6979 6.27776C32.6979 6.27776 34.3789 6.85402 35.1278 7.30729C35.8766 7.76057 37.0661 8.78985 37.0661 8.78985C38.4229 9.77411 39.6272 10.9267 40.6519 12.2116ZM3.83448 9.81695C3.83075 9.83423 3.82673 9.85299 3.82245 9.87319L3.8325 9.77868L3.83448 9.81695Z" fill="#A0CE1E"/>
<path fill-rule="evenodd" clip-rule="evenodd" d="M37.8418 37.1641C35.7182 38.8817 33.2374 40.1132 30.584 40.7841C31.3885 40.6521 32.1998 40.4728 33.0151 40.2441C40.6239 38.1099 45.3282 32.763 46.5823 26.3991C47.1007 23.1752 46.8112 19.8651 45.7214 16.7527C44.3623 12.871 41.822 9.47853 38.4347 7.02125C38.4347 7.02125 37.0463 6.51556 35.7358 6.42491C34.4253 6.33425 32.6985 6.27783 32.6985 6.27783C32.6985 6.27783 34.0707 6.83505 35.0121 7.4049C35.9536 7.97476 37.0667 8.78993 37.0667 8.78993C40.0854 10.9798 42.3492 14.0031 43.5604 17.4623C44.7717 20.9216 44.8737 24.6549 43.853 28.1713C42.8323 31.6877 40.7368 34.8227 37.8418 37.1641Z" fill="#FF7575"/>
<path fill-rule="evenodd" clip-rule="evenodd" d="M31.1205 18.33H33.5213C35.4779 18.33 37.064 19.8661 37.064 21.7609V25.0803C37.064 26.9752 35.4779 28.5113 33.5214 28.5113H31.0917V30.8229C31.0917 32.7177 29.5055 34.2538 27.549 34.2538H24.1791C22.2225 34.2538 20.6364 32.7177 20.6364 30.8229L20.6364 28.5113H18.2067C16.2502 28.5113 14.6641 26.9752 14.6641 25.0803L14.6641 21.7609C14.6641 19.8661 16.2502 18.33 18.2067 18.33H20.6076V15.9729C20.6076 14.0781 22.1937 12.542 24.1503 12.542L27.5778 12.542C29.5343 12.542 31.1205 14.0781 31.1205 15.9729V18.33ZM29.4499 19.9478V15.9729C29.4499 14.9716 28.6117 14.1598 27.5778 14.1598H24.1503C23.1163 14.1598 22.2782 14.9716 22.2782 15.9729L22.2782 19.9478H18.2067C17.1728 19.9478 16.3346 20.7596 16.3346 21.7609V25.0803C16.3346 26.0817 17.1728 26.8934 18.2067 26.8934H22.307L22.307 30.8229C22.307 31.8242 23.1451 32.636 24.1791 32.636H27.549C28.5829 32.636 29.4211 31.8242 29.4211 30.8229V26.8934H33.5214C34.5553 26.8934 35.3935 26.0817 35.3935 25.0803V21.7609C35.3935 20.7596 34.5553 19.9478 33.5213 19.9478H29.4499Z" fill="#FF7575"/>
</g>
<defs>
<clipPath id="clip0">
<rect width="240" height="43.6364" fill="white"/>
</clipPath>
</defs>
</svg>
