<svg width="270" height="50" viewBox="0 0 270 50" fill="none" xmlns="http://www.w3.org/2000/svg">
<path d="M169.605 33.6373V33.2384L171.45 32.4157V20.898L169.605 20.0753V19.6764H175.772V20.0753L173.953 20.898V32.4157L175.772 33.2384V33.6373H169.605ZM180.726 33.6373L173.953 26.5322L179.816 20.7733L178.224 20.0753V19.6764H183.304V20.0753L181.863 20.6238L176.429 25.7594L182.95 32.5653L184.719 33.2384V33.6373H180.726Z" fill="#A0CE1E"/>
<path d="M192.905 33.6373V33.2384L194.775 32.4157V20.9229H189.771V21.8952C189.771 23.5738 189.729 25.0198 189.645 26.2331C189.56 27.4297 189.417 28.4685 189.215 29.3493C189.03 30.2136 188.785 30.9864 188.482 31.6678C188.061 32.5653 187.597 33.1553 187.092 33.4379C186.586 33.7038 186.115 33.8368 185.677 33.8368C185.407 33.8368 185.213 33.7952 185.095 33.7121C184.977 33.629 184.918 33.4711 184.918 33.2384V31.7925L185.019 31.6928H185.247C186.393 31.6928 187.193 30.8701 187.648 29.2247C188.103 27.5793 188.33 25.1528 188.33 21.9451V20.898L186.536 20.1002V19.6764H199.072V20.0753L197.303 20.898V32.4157L199.072 33.2384V33.6373H192.905Z" fill="#A0CE1E"/>
<path d="M201.151 33.6373V33.2384L202.97 32.4157V20.898L201.151 20.0753V19.6764H207.317V20.0753L205.472 20.898V30.0972L212.827 21.7706V20.898L210.982 20.0753V19.6764H217.124V20.0753L215.329 20.898V32.4157L217.124 33.2384V33.6373H210.982V33.2384L212.827 32.4157V23.3412L205.472 31.6678V32.4157L207.317 33.2384V33.6373H201.151Z" fill="#A0CE1E"/>
<path d="M219.145 33.6373V33.2384L220.964 32.4157V20.898L219.145 20.0753V19.6764H225.311V20.0753L223.466 20.898V25.7843H230.594V20.898L228.749 20.0753V19.6764H234.865V20.0753L233.096 20.898V32.4157L234.865 33.2384V33.6373H228.749V33.2384L230.594 32.4157V27.0308H223.466V32.4157L225.311 33.2384V33.6373H219.145Z" fill="#A0CE1E"/>
<path d="M236.892 33.6373V33.2384L238.711 32.4157V20.898L236.892 20.0753V19.6764H243.059V20.0753L241.214 20.898V30.0972L248.568 21.7706V20.898L246.723 20.0753V19.6764H252.865V20.0753L251.07 20.898V32.4157L252.865 33.2384V33.6373H246.723V33.2384L248.568 32.4157V23.3412L241.214 31.6678V32.4157L243.059 33.2384V33.6373H236.892Z" fill="#A0CE1E"/>
<path d="M254.886 33.6373V33.2384L256.731 32.4157V20.898L254.886 20.0753V19.6764H261.053V20.0753L259.233 20.898V32.4157L261.053 33.2384V33.6373H254.886ZM266.006 33.6373L259.233 26.5322L265.096 20.7733L263.504 20.0753V19.6764H268.584V20.0753L267.144 20.6238L261.71 25.7594L268.23 32.5653L270 33.2384V33.6373H266.006Z" fill="#A0CE1E"/>
<path d="M68.4837 33.6373V33.2385L70.354 32.4158V20.9229H65.3497V21.8952C65.3497 23.5738 65.3076 25.0198 65.2233 26.2331C65.1391 27.4297 64.9959 28.4685 64.7937 29.3493C64.6083 30.2136 64.364 30.9864 64.0607 31.6678C63.6395 32.5653 63.1761 33.1553 62.6706 33.4379C62.1652 33.7038 61.6934 33.8368 61.2553 33.8368C60.9857 33.8368 60.7919 33.7952 60.674 33.7121C60.556 33.629 60.4971 33.4711 60.4971 33.2385V31.7925L60.5982 31.6928H60.8256C61.9714 31.6928 62.7717 30.8701 63.2267 29.2247C63.6816 27.5793 63.9091 25.1528 63.9091 21.9451V20.898L62.1146 20.1002V19.6764H74.6505V20.0753L72.8814 20.898V32.4158L74.6505 33.2385V33.6373H68.4837Z" fill="#FF7575"/>
<path d="M76.7293 33.6373V33.2385L78.5491 32.4158V20.898L76.7293 20.0753V19.6764H87.8499V23.2664H87.4455L86.1313 20.9229H81.0512V25.7843H84.7412L85.6005 24.0641H86.0049V28.7261H85.6005L84.7412 27.0308H81.0512V32.3908H86.6873L88.0774 29.5737H88.4818V33.6373H76.7293Z" fill="#FF7575"/>
<path d="M90.6508 33.6373V33.2385L92.4958 32.4158V20.898L90.6508 20.0753V19.6764H96.8177V20.0753L94.9979 20.898V32.4158L96.8177 33.2385V33.6373H90.6508ZM101.771 33.6373L94.9979 26.5322L100.862 20.7734L99.2692 20.0753V19.6764H104.349V20.0753L102.909 20.6238L97.4748 25.7594L103.995 32.5653L105.765 33.2385V33.6373H101.771Z" fill="#FF7575"/>
<path d="M107.293 33.6373V33.2385L108.582 32.5653L114.193 19.5518H115.507L121.068 32.5155L122.559 33.2385V33.6373H116.695V33.2385L118.464 32.5155L116.897 28.8258H111.691L110.149 32.5404L111.994 33.2385V33.6373H107.293ZM112.222 27.5793H116.367L114.269 22.6182L112.222 27.5793Z" fill="#FF7575"/>
<path d="M123.824 33.6373V33.2385L125.669 32.4158V20.898L123.824 20.0753V19.6764H129.915C131.802 19.6764 133.234 20.0005 134.212 20.6487C135.189 21.2803 135.678 22.2692 135.678 23.6154C135.678 24.4464 135.416 25.1694 134.894 25.7843C134.372 26.3993 133.647 26.8729 132.72 27.2053C131.811 27.5211 130.757 27.679 129.561 27.679H128.171V32.4158L130.294 33.2385V33.6373H123.824ZM128.171 20.9229V26.4574H129.41C130.538 26.4574 131.431 26.2164 132.089 25.7345C132.746 25.2359 133.074 24.5461 133.074 23.6653C133.074 22.6847 132.737 21.9866 132.063 21.5711C131.406 21.139 130.471 20.9229 129.258 20.9229H128.171Z" fill="#FF7575"/>
<path d="M138.108 20.0753V19.6764H150.795V20.0753L149.001 20.898V32.3908H151.149V37.2023H150.745L148.95 33.6373H138.638L136.869 37.2023H136.465V32.3908H138.234C138.874 30.8285 139.312 29.1914 139.548 27.4796C139.784 25.7677 139.902 23.8481 139.902 21.7207V20.898L138.108 20.0753ZM146.499 32.3908V20.9229H141.343V21.6958C141.343 23.873 141.225 25.8093 140.989 27.5045C140.77 29.1998 140.365 30.8285 139.776 32.3908H146.499Z" fill="#FF7575"/>
<path d="M160.128 33.8866C158.713 33.8866 157.458 33.5792 156.362 32.9642C155.267 32.3327 154.399 31.4767 153.759 30.3964C153.136 29.2995 152.824 28.053 152.824 26.6569C152.824 25.2608 153.136 24.0143 153.759 22.9173C154.399 21.8204 155.267 20.9645 156.362 20.3495C157.458 19.718 158.713 19.4022 160.128 19.4022C161.544 19.4022 162.799 19.718 163.894 20.3495C165.006 20.9645 165.874 21.8204 166.497 22.9173C167.138 24.0143 167.458 25.2608 167.458 26.6569C167.458 28.053 167.138 29.2995 166.497 30.3964C165.874 31.4767 165.006 32.3327 163.894 32.9642C162.799 33.5792 161.544 33.8866 160.128 33.8866ZM160.533 32.6401C161.897 32.6401 162.967 32.1498 163.742 31.1692C164.517 30.1887 164.905 28.8923 164.905 27.2801C164.905 25.9671 164.686 24.812 164.248 23.8148C163.827 22.8176 163.228 22.0448 162.453 21.4963C161.678 20.9312 160.794 20.6487 159.8 20.6487C158.452 20.6487 157.373 21.139 156.565 22.1196C155.773 23.0836 155.377 24.3633 155.377 25.9588C155.377 27.2884 155.596 28.4519 156.034 29.4491C156.472 30.4463 157.078 31.2274 157.854 31.7925C158.629 32.3576 159.522 32.6401 160.533 32.6401Z" fill="#FF7575"/>
<path fill-rule="evenodd" clip-rule="evenodd" d="M40.7855 6.37553C22.5671 -6.29732 13.2298 2.63809 9.93012 9.84014C9.93012 9.84014 10.0123 9.77379 10.1656 9.65551C13.0593 4.97999 20.1412 -3.00176 33.6245 4.46665C31.1322 4.91678 27.8326 5.60928 24.4627 8.41392C21.4088 10.5953 17.7229 11.7379 14.5637 11.2186C14.9745 10.5094 19.4759 5.96568 26.2628 3.35168C24.5602 3.84999 20.5493 5.11057 17.0911 6.8558C13.5106 8.82944 11.6151 10.9828 11.6151 10.9828L11.6151 10.9828C10.6253 12.0559 9.74752 13.2149 8.9878 14.4416C8.88395 13.5765 8.65523 12.6105 8.24516 11.5302C7.09425 8.49832 7.92779 5.24547 8.68114 3.985C-3.12816 11.5302 0.768257 18.5938 5.1549 21.9265C5.1549 21.9265 5.13132 21.8684 5.09051 21.7612C2.91111 19.2995 -0.42577 13.8948 6.29755 7.66309C6.11096 9.14279 5.91964 11.1191 6.93437 13.513C7.64608 15.618 7.64532 17.8917 6.77994 19.5722C6.43891 19.2088 4.56448 15.7019 4.31782 11.323C4.21528 12.1465 3.92102 14.9736 4.34925 17.4632C4.80516 19.6287 5.83979 21.573 6.00983 21.8834C5.89803 22.4127 5.80433 22.9466 5.72904 23.4843C5.07756 28.1366 5.86859 32.8745 7.99814 37.075C10.1277 41.2756 13.4961 44.7422 17.6604 47.019C21.8248 49.2959 26.5902 50.2764 31.33 49.8316C34.828 49.5034 38.1913 48.4103 41.1824 46.65C38.2702 47.8278 35.0484 48.4819 31.6596 48.4819C18.848 48.4819 8.4231 39.1329 8.09052 27.4847C8.04195 26.2695 8.10165 25.0468 8.27194 23.8307C8.78975 20.133 10.3085 16.6503 12.6567 13.7441C13.2298 13.3238 14.0593 13.3468 15.1834 13.378C17.6289 13.4458 21.4686 13.5522 27.0954 9.21689C31.4308 5.87652 38.3634 5.82152 40.7855 6.37553ZM45.7334 13.9925C47.3595 14.5097 48.8182 15.1781 50.0763 16.0311C48.4474 12.9052 46.1143 10.17 43.2384 8.04509C43.2384 8.04509 41.6765 7.46567 40.2022 7.36179C38.7278 7.25791 36.7852 7.19326 36.7852 7.19326C36.7852 7.19326 38.6763 7.85356 39.5188 8.37294C40.3612 8.89231 41.6994 10.0717 41.6994 10.0717C43.2258 11.1995 44.5806 12.5202 45.7334 13.9925ZM4.31379 11.2486C4.30959 11.2684 4.30507 11.2899 4.30026 11.313L4.31156 11.2047L4.31379 11.2486Z" fill="#A0CE1E"/>
<path fill-rule="evenodd" clip-rule="evenodd" d="M42.5713 42.5838C40.1823 44.5518 37.3913 45.963 34.4062 46.7317C35.3114 46.5804 36.224 46.375 37.1412 46.113C45.7011 43.6675 50.9934 37.5409 52.4043 30.2489C52.9876 26.5549 52.6619 22.762 51.4358 19.1957C49.9068 14.748 47.0491 10.8607 43.2383 8.0451C43.2383 8.0451 41.6764 7.46567 40.2021 7.36179C38.7277 7.25792 36.7851 7.19327 36.7851 7.19327C36.7851 7.19327 38.3288 7.83175 39.3879 8.4847C40.447 9.13766 41.6993 10.0717 41.6993 10.0717C45.0954 12.5809 47.6421 16.0451 49.0048 20.0089C50.3674 23.9726 50.4821 28.2503 49.3339 32.2795C48.1856 36.3088 45.8281 39.9009 42.5713 42.5838Z" fill="#FF7575"/>
<path fill-rule="evenodd" clip-rule="evenodd" d="M35.0105 21.003H37.7115C39.9127 21.003 41.697 22.7631 41.697 24.9343V28.7378C41.697 30.9089 39.9127 32.6691 37.7115 32.6691H34.9781V35.3178C34.9781 37.489 33.1937 39.2491 30.9926 39.2491H27.2015C25.0003 39.2491 23.216 37.489 23.216 35.3178L23.216 32.6691H20.4826C18.2814 32.6691 16.4971 30.909 16.4971 28.7378L16.4971 24.9343C16.4971 22.7631 18.2814 21.003 20.4826 21.003H23.1836V18.3022C23.1836 16.131 24.9679 14.3709 27.1691 14.3709L31.025 14.3709C33.2261 14.3709 35.0105 16.131 35.0105 18.3022V21.003ZM33.1312 22.8568V18.3022C33.1312 17.1549 32.1882 16.2247 31.025 16.2247H27.1691C26.0059 16.2247 25.0629 17.1549 25.0629 18.3022V22.8568H20.4826C19.3194 22.8568 18.3764 23.7869 18.3764 24.9343V28.7378C18.3764 29.8851 19.3194 30.8153 20.4826 30.8153H25.0953L25.0953 35.3178C25.0953 36.4652 26.0383 37.3953 27.2015 37.3953H30.9926C32.1558 37.3953 33.0988 36.4652 33.0988 35.3178V30.8153H37.7115C38.8747 30.8153 39.8177 29.8851 39.8177 28.7378V24.9343C39.8177 23.7869 38.8747 22.8568 37.7115 22.8568H33.1312Z" fill="#FF7575"/>
</svg>
