<svg width="32" height="32" viewBox="0 0 32 32" fill="none" xmlns="http://www.w3.org/2000/svg">
<rect width="32" height="32" rx="5" fill="#EB722E"/>
<g clip-path="url(#clip0)">
<path d="M9.52992 16.7824C8.98503 17.8535 9.6037 18.3655 11.0153 19.2402C12.2153 19.9815 13.873 20.2526 14.9379 20.3611C14.5015 20.7806 16.5015 18.8571 10.7415 24.3975C9.52014 25.5682 11.4864 27.4464 12.7068 26.3006L16.0108 23.114C17.2757 24.3309 18.4881 25.4971 19.3148 26.3051C20.5361 27.4553 22.5015 25.5931 21.2935 24.402C21.2028 24.3157 16.8161 20.1078 17.0837 20.3655C18.1619 20.2571 19.7948 19.97 20.9806 19.2446L20.9797 19.2438C22.3913 18.3646 23.0099 17.8535 22.473 16.7824C22.1486 16.1744 21.2739 15.666 20.1095 16.5451C20.1095 16.5451 18.537 17.7495 16.001 17.7495C13.4641 17.7495 11.8926 16.5451 11.8926 16.5451C10.729 15.6615 9.85081 16.1744 9.52992 16.7824Z" fill="white"/>
<path d="M15.9992 16.1259C19.0908 16.1259 21.6152 13.7099 21.6152 10.7357C21.6152 7.74901 19.0908 5.33301 15.9992 5.33301C12.9068 5.33301 10.3823 7.74901 10.3823 10.7357C10.3823 13.7099 12.9068 16.1259 15.9992 16.1259ZM15.9992 8.0699C17.5183 8.0699 18.7574 9.2619 18.7574 10.7357C18.7574 12.197 17.5183 13.389 15.9992 13.389C14.4801 13.389 13.241 12.197 13.241 10.7357C13.2401 9.26101 14.4792 8.0699 15.9992 8.0699Z" fill="white"/>
</g>
<defs>
<clipPath id="clip0">
<rect width="21.3333" height="21.3333" fill="white" transform="translate(5.3335 5.33301)"/>
</clipPath>
</defs>
</svg>
