<svg width="184" height="22" viewBox="0 0 184 22" fill="none" xmlns="http://www.w3.org/2000/svg">
<g clip-path="url(#clip0)">
<path d="M22.9672 19.7404H18.6738L21.3592 2.31592H25.6524L22.9672 19.7404Z" fill="#00579F"/>
<path d="M38.5293 2.74183C37.6825 2.38927 36.3393 2 34.6785 2C30.4387 2 27.453 4.37257 27.4347 7.76463C27.3995 10.2673 29.5723 11.6573 31.1975 12.4918C32.8585 13.3445 33.4232 13.901 33.4232 14.6611C33.4063 15.8284 32.0809 16.3665 30.8448 16.3665C29.1307 16.3665 28.2123 16.0891 26.8165 15.4396L26.2512 15.1612L25.6504 19.0727C26.6574 19.5541 28.5126 19.9813 30.4387 20C34.9436 20 37.8764 17.6641 37.9112 14.0494C37.9283 12.0658 36.7809 10.5459 34.3073 9.30397C32.8057 8.50671 31.8861 7.96912 31.8861 7.15338C31.9037 6.4118 32.6639 5.65223 34.359 5.65223C35.7547 5.61503 36.7802 5.9671 37.5571 6.31941L37.9454 6.50444L38.5293 2.74183Z" fill="#00579F"/>
<path d="M44.2358 13.5675C44.5894 12.5665 45.9499 8.6923 45.9499 8.6923C45.9321 8.7295 46.3028 7.6728 46.5148 7.0241L46.8148 8.5255C46.8148 8.5255 47.6279 12.6963 47.8044 13.5675C47.1334 13.5675 45.0838 13.5675 44.2358 13.5675ZM49.5354 2.31592H46.2145C45.1904 2.31592 44.4124 2.63078 43.9705 3.76163L37.5933 19.7402H42.0982C42.0982 19.7402 42.8398 17.5896 42.9992 17.1264C43.4934 17.1264 47.8758 17.1264 48.5116 17.1264C48.6348 17.7381 49.0239 19.7402 49.0239 19.7402H52.9991L49.5354 2.31592Z" fill="#00579F"/>
<path d="M15.0878 2.31592L10.8831 14.1977L10.4237 11.788C9.64632 9.00741 7.20839 5.98638 4.48779 4.48425L8.33908 19.7219H12.8792L19.6276 2.31592H15.0878Z" fill="#00579F"/>
<path d="M6.97828 2.31592H0.0706676L0 2.66798C5.38837 4.11395 8.95699 7.59938 10.4232 11.7887L8.92154 3.7806C8.67432 2.66774 7.91458 2.35263 6.97828 2.31592Z" fill="#FAA61A"/>
</g>
<path d="M90.2225 2.64014H80.0371V18.9201H90.2225V2.64014Z" fill="#FF5F00"/>
<path d="M81.4397 10.7785C81.4384 9.21285 81.8117 7.66742 82.5312 6.25918C83.2508 4.85094 84.2978 3.61679 85.593 2.65012C83.9888 1.45132 82.0623 0.705854 80.0337 0.498928C78.005 0.292002 75.9561 0.631963 74.121 1.47996C72.286 2.32795 70.7388 3.64976 69.6564 5.29432C68.574 6.93888 68 8.83985 68 10.7799C68 12.72 68.574 14.621 69.6564 16.2656C70.7388 17.9101 72.286 19.2319 74.121 20.0799C75.9561 20.9279 78.005 21.2679 80.0337 21.061C82.0623 20.854 83.9888 20.1086 85.593 18.9098C84.2974 17.9428 83.2501 16.7082 82.5306 15.2994C81.811 13.8906 81.438 12.3447 81.4397 10.7785Z" fill="#EB001B"/>
<path d="M102.723 10.7814C102.723 12.7214 102.164 14.6223 101.11 16.2667C100.056 17.9111 98.5492 19.2327 96.7623 20.0805C94.9755 20.9283 92.9805 21.268 91.0053 21.0608C89.0301 20.8536 87.1545 20.1079 85.5928 18.9088C86.8533 17.9414 87.8723 16.7071 88.5731 15.2989C89.2738 13.8908 89.6379 12.3456 89.6379 10.7799C89.6379 9.21431 89.2738 7.66913 88.5731 6.26098C87.8723 4.85282 86.8533 3.61847 85.5928 2.65106C87.1545 1.45202 89.0301 0.706282 91.0053 0.499083C92.9805 0.291883 94.9755 0.631586 96.7623 1.47936C98.5492 2.32713 100.056 3.64877 101.11 5.2932C102.164 6.93763 102.723 8.83849 102.723 10.7785V10.7814Z" fill="#F79E1B"/>
<g clip-path="url(#clip1)">
<path fill-rule="evenodd" clip-rule="evenodd" d="M124.04 2.00304C124.624 1.99955 126.358 1.84335 127.093 4.32268C127.588 5.99278 128.376 8.72849 129.458 12.5298H129.898C131.058 8.52219 131.855 5.78648 132.289 4.32268C133.031 1.81752 134.887 2.00309 135.629 2.00309L141.356 2.0031V19.8175H135.519V9.31917H135.127L131.874 19.8175H127.482L124.228 9.31139H123.837V19.8175H118V2.0031L124.04 2.00304ZM149.737 2.0031V12.5092H150.203L154.161 3.87011C154.929 2.1509 156.567 2.0031 156.567 2.0031H162.215V19.8175H156.256V9.31139H155.791L151.91 17.9505C151.142 19.6619 149.427 19.8175 149.427 19.8175H143.779V2.0031H149.737ZM182.811 10.4686C181.98 12.824 179.37 14.5109 176.48 14.5109H170.231V19.8175H164.564V10.4686H182.811Z" fill="#20AA4D"/>
<path fill-rule="evenodd" clip-rule="evenodd" d="M176.753 2.00293H164.267C164.564 5.96903 167.98 9.36426 171.515 9.36426H183.205C183.879 6.06797 181.557 2.00293 176.753 2.00293Z" fill="url(#paint0_linear)"/>
</g>
<defs>
<linearGradient id="paint0_linear" x1="183.319" y1="6.63353" x2="164.267" y2="6.63353" gradientUnits="userSpaceOnUse">
<stop stop-color="#007DC4"/>
<stop offset="1" stop-color="#0AB1F0"/>
</linearGradient>
<clipPath id="clip0">
<rect width="53" height="18" fill="white" transform="translate(0 2)"/>
</clipPath>
<clipPath id="clip1">
<rect width="65.3196" height="18" fill="white" transform="translate(118 2)"/>
</clipPath>
</defs>
</svg>
