<svg width="36" height="36" viewBox="0 0 36 36" fill="none" xmlns="http://www.w3.org/2000/svg">
<rect width="36" height="36" rx="18" fill="#F3F3F5"/>
<path d="M23.9998 19.3333L21.9998 17.3333H17.3332C17.1564 17.3333 16.9868 17.2631 16.8618 17.1381C16.7367 17.013 16.6665 16.8435 16.6665 16.6667V12.6667C16.6665 12.4899 16.7367 12.3203 16.8618 12.1953C16.9868 12.0702 17.1564 12 17.3332 12H23.3332C23.51 12 23.6796 12.0702 23.8046 12.1953C23.9296 12.3203 23.9998 12.4899 23.9998 12.6667V19.3333Z" stroke="#C2C1CE" stroke-width="1.5" stroke-linecap="round" stroke-linejoin="round"/>
<path d="M19.3333 20V21.3333C19.3333 21.5101 19.2631 21.6797 19.1381 21.8047C19.013 21.9298 18.8435 22 18.6667 22H14L12 24V17.3333C12 17.1565 12.0702 16.987 12.1953 16.8619C12.3203 16.7369 12.4899 16.6667 12.6667 16.6667H14" stroke="#C2C1CE" stroke-width="1.5" stroke-linecap="round" stroke-linejoin="round"/>
</svg>
