<svg width="52" height="52" viewBox="0 0 52 52" fill="none" xmlns="http://www.w3.org/2000/svg">
<rect width="52" height="52" rx="23" fill="#F3F3F5"/>
<path d="M37.9997 28.6667L33.9997 24.6667H24.6663C24.3127 24.6667 23.9736 24.5262 23.7235 24.2761C23.4735 24.0261 23.333 23.687 23.333 23.3333V15.3333C23.333 14.9797 23.4735 14.6406 23.7235 14.3905C23.9736 14.1405 24.3127 14 24.6663 14H36.6663C37.02 14 37.3591 14.1405 37.6092 14.3905C37.8592 14.6406 37.9997 14.9797 37.9997 15.3333V28.6667Z" stroke="#C2C1CE" stroke-width="1.5" stroke-linecap="round" stroke-linejoin="round"/>
<path d="M28.6667 30V32.6667C28.6667 33.0203 28.5262 33.3594 28.2761 33.6095C28.0261 33.8595 27.687 34 27.3333 34H18L14 38V24.6667C14 24.313 14.1405 23.9739 14.3905 23.7239C14.6406 23.4738 14.9797 23.3333 15.3333 23.3333H18" stroke="#C2C1CE" stroke-width="1.5" stroke-linecap="round" stroke-linejoin="round"/>
</svg>
