<svg width="37" height="37" viewBox="0 0 37 37" fill="none" xmlns="http://www.w3.org/2000/svg">
<g clip-path="url(#clip0)">
<path d="M35.1028 0.17041H23.5668C22.5195 0.17041 21.6694 1.02043 21.6694 2.06778V13.6038C21.6694 14.6511 22.5195 15.5011 23.5668 15.5011H29.0881C29.016 18.5218 28.314 20.939 26.9859 22.7567C25.9385 24.1911 24.3524 25.3788 22.2311 26.3161C21.2558 26.7449 20.8346 27.8985 21.29 28.8624L22.6561 31.7464C23.0963 32.6723 24.1853 33.0784 25.1264 32.6723C27.6386 31.587 29.7598 30.2133 31.4902 28.5436C33.6001 26.5058 35.0459 24.2062 35.8276 21.641C36.6093 19.0758 37.0002 15.577 37.0002 11.1372V2.06778C37.0002 1.02047 36.1501 0.17041 35.1028 0.17041Z" fill="#EBEBEF"/>
<path d="M4.02382 32.6647C6.50558 31.5832 8.61545 30.2095 10.3572 28.5436C12.4861 26.5058 13.9395 24.2138 14.7212 21.6676C15.5029 19.1213 15.8937 15.6112 15.8937 11.1372V2.06778C15.8937 1.02043 15.0437 0.17041 13.9963 0.17041H2.46036C1.41301 0.17041 0.56299 1.02043 0.56299 2.06778V13.6038C0.56299 14.6511 1.41301 15.5011 2.46036 15.5011H7.98169C7.90959 18.5218 7.20756 20.939 5.87941 22.7566C4.83206 24.1911 3.24587 25.3788 1.12461 26.3161C0.149364 26.7449 -0.271851 27.8985 0.183517 28.8624L1.54583 31.7388C1.98605 32.6647 3.08273 33.0746 4.02382 32.6647Z" fill="#EBEBEF"/>
</g>
<defs>
<clipPath id="clip0">
<rect width="37" height="37" fill="white"/>
</clipPath>
</defs>
</svg>
