<svg width="32" height="32" viewBox="0 0 32 32" fill="none" xmlns="http://www.w3.org/2000/svg">
<rect width="32" height="32" rx="5" fill="#4680C2"/>
<g clip-path="url(#clip0)">
<path fill-rule="evenodd" clip-rule="evenodd" d="M23.6934 17.6393C24.401 18.3302 25.1479 18.9802 25.7826 19.7408C26.063 20.0788 26.3284 20.4276 26.5315 20.8198C26.8192 21.3774 26.5586 21.991 26.0586 22.0243L22.9508 22.0229C22.1492 22.0894 21.5097 21.7667 20.972 21.2186C20.5417 20.7803 20.1433 20.3139 19.7295 19.8608C19.5599 19.6756 19.3823 19.5014 19.1702 19.3636C18.746 19.0882 18.3777 19.1726 18.1353 19.6151C17.8883 20.0651 17.8323 20.5635 17.8081 21.0651C17.7748 21.7969 17.5536 21.9893 16.8184 22.0228C15.2474 22.0969 13.7564 21.8592 12.3713 21.0667C11.1501 20.368 10.2032 19.3816 9.37896 18.265C7.7742 16.0907 6.54526 13.7014 5.44075 11.2452C5.19213 10.6919 5.37395 10.3948 5.98453 10.3843C6.99841 10.3646 8.01216 10.366 9.02724 10.3829C9.43931 10.3889 9.71211 10.6253 9.87122 11.0146C10.4198 12.3633 11.091 13.6466 11.9335 14.8361C12.1578 15.1528 12.3866 15.4694 12.7124 15.6923C13.0728 15.9391 13.3472 15.8573 13.5168 15.4558C13.6244 15.2013 13.6715 14.9271 13.6957 14.6544C13.7761 13.7163 13.7867 12.7799 13.6458 11.8452C13.5593 11.2618 13.2307 10.8841 12.6486 10.7737C12.3515 10.7174 12.3957 10.6069 12.5396 10.4373C12.7894 10.1449 13.0243 9.96289 13.4927 9.96289H17.0051C17.558 10.072 17.6808 10.3204 17.7565 10.8768L17.7596 14.7784C17.7535 14.9938 17.8672 15.633 18.2551 15.7755C18.5656 15.877 18.7703 15.6286 18.9566 15.4317C19.7976 14.5392 20.3978 13.4843 20.934 12.3921C21.1719 11.9118 21.3765 11.413 21.5748 10.9147C21.7217 10.5449 21.9523 10.3629 22.3688 10.371L25.7493 10.374C25.8496 10.374 25.951 10.3755 26.0481 10.3921C26.6177 10.4891 26.7738 10.7342 26.5979 11.2904C26.3207 12.1632 25.7813 12.8904 25.2539 13.6211C24.6902 14.4012 24.0872 15.1545 23.5282 15.9392C23.0145 16.6557 23.0553 17.0169 23.6934 17.6393Z" fill="white"/>
</g>
<defs>
<clipPath id="clip0">
<rect width="21.3333" height="21.3333" fill="white" transform="translate(5.33301 5.33301)"/>
</clipPath>
</defs>
</svg>
