<svg width="37" height="35" viewBox="0 0 37 35" fill="none" xmlns="http://www.w3.org/2000/svg">
<path d="M15.2978 0L9.79787 3.12662C9.46178 3.31587 9.25618 3.67072 9.25618 4.05317V12.1516C9.25618 13.2753 8.66704 14.3162 7.70228 14.8958L0.517966 19.2171C0.197697 19.4103 0 19.7572 0 20.1318V26.3929L15.2978 17.6991V0Z" fill="#2066E6"/>
<path d="M36.3525 19.2171L29.1682 14.8919C28.2034 14.3123 27.6143 13.2714 27.6143 12.1477V4.05317C27.6143 3.67072 27.4087 3.31587 27.0726 3.12662L21.5727 0V17.6952L36.8705 26.389V20.1318C36.8705 19.7572 36.6728 19.4103 36.3525 19.2171Z" fill="#2066E6"/>
<path d="M3.2146 31.6565L8.80152 34.862C9.1297 35.0513 9.53695 35.0513 9.86513 34.862L16.8399 30.8877C17.8284 30.3239 19.0383 30.3239 20.0268 30.8877L27.0055 34.862C27.3336 35.0513 27.7409 35.0513 28.0691 34.862L33.656 31.6565L18.4333 22.809L3.2146 31.6565Z" fill="#2066E6"/>
</svg>
