<svg width="480" height="480" viewBox="0 0 480 480" fill="none" xmlns="http://www.w3.org/2000/svg">
<path fill-rule="evenodd" clip-rule="evenodd" d="M137.904 111.793V113.497C137.904 113.974 138.093 114.432 138.431 114.769C138.768 115.107 139.226 115.297 139.704 115.297C140.181 115.297 140.639 115.107 140.976 114.769C141.314 114.432 141.504 113.974 141.504 113.497V111.697C141.479 111.223 141.274 110.778 140.93 110.452C140.586 110.125 140.13 109.944 139.656 109.945C139.418 109.948 139.184 109.998 138.966 110.093C138.749 110.188 138.553 110.326 138.389 110.499C138.226 110.671 138.099 110.874 138.015 111.096C137.932 111.319 137.894 111.555 137.904 111.793ZM137.208 106.777C139.848 106.153 142.008 104.377 138.168 104.617C137.217 104.749 136.278 104.958 135.36 105.241C131.76 106.729 134.88 107.329 137.208 106.777ZM357.408 123.481C356.302 125.801 354.452 127.685 352.152 128.833C352.062 128.864 351.987 128.926 351.938 129.007C351.89 129.089 351.871 129.184 351.885 129.278C351.899 129.372 351.946 129.458 352.016 129.521C352.087 129.584 352.177 129.621 352.272 129.625C353.048 129.761 353.847 129.705 354.597 129.459C355.346 129.214 356.024 128.788 356.57 128.218C357.115 127.649 357.512 126.954 357.726 126.194C357.939 125.435 357.961 124.635 357.792 123.865C357.792 123.763 357.751 123.665 357.679 123.593C357.607 123.521 357.51 123.481 357.408 123.481ZM347.856 104.449C347.394 104.331 346.905 104.397 346.493 104.635C346.08 104.873 345.777 105.262 345.648 105.721C345.43 106.502 345.389 107.322 345.528 108.121C345.528 108.598 345.717 109.056 346.055 109.393C346.392 109.731 346.85 109.921 347.328 109.921C347.805 109.921 348.263 109.731 348.6 109.393C348.938 109.056 349.128 108.598 349.128 108.121C349.128 106.393 349.512 104.905 347.856 104.449ZM265.32 340.249C263.376 339.265 226.2 341.689 225.264 345.865C225.072 346.777 225.672 350.281 226.728 350.857C228.816 351.961 264.576 349.945 266.544 346.057C267.103 345.111 267.288 343.99 267.061 342.915C266.835 341.839 266.213 340.888 265.32 340.249ZM227.184 349.849C226.444 348.686 226.044 347.339 226.032 345.961C226.512 343.801 246.312 342.625 248.496 342.481C248.444 344.42 248.943 346.334 249.936 348.001C247.2 348.433 228.48 350.545 227.184 349.921V349.849ZM264.792 345.049C262.896 346.393 253.272 347.617 250.968 347.905C251.169 346.005 250.766 344.09 249.816 342.433C252.672 342.241 261.816 341.737 264.528 341.977C265.248 342.505 265.272 344.137 264.792 345.097V345.049ZM202.248 345.937C202.183 345.896 202.108 345.875 202.032 345.875C201.955 345.875 201.88 345.896 201.816 345.937C201.816 345.697 155.976 371.521 154.584 374.257C154.522 374.388 154.49 374.531 154.49 374.677C154.49 374.822 154.522 374.965 154.584 375.097C156.048 379.297 203.88 422.545 205.872 423.529C206.448 423.817 207.168 423.313 209.424 422.113C214.224 419.545 255.192 397.657 259.416 394.129C260.592 392.929 261.312 382.129 260.664 380.905C260.016 379.681 202.248 346.177 202.248 345.937ZM206.4 421.537C201.288 417.481 160.8 381.001 156.312 374.809C160.488 370.873 200.88 347.473 202.104 346.753C208.296 350.521 252.864 377.641 258.576 381.481C255.557 382.353 252.685 383.672 250.056 385.393C248.688 386.713 252.096 389.161 256.824 393.745C249.6 398.401 213.768 417.601 206.4 421.537ZM258.192 392.377C257.952 392.137 252.168 386.497 251.904 386.281C254.235 384.825 256.638 383.488 259.104 382.273C259.111 385.664 258.79 389.048 258.144 392.377H258.192Z" fill="url(#paint0_linear_214_241)"/>
<path fill-rule="evenodd" clip-rule="evenodd" d="M238.247 387.961C236.567 388.681 216.071 395.473 210.287 397.825C208.588 398.672 206.735 399.17 204.839 399.289C204.503 399.289 206.447 395.545 221.159 384.073C222.695 382.873 225.647 380.593 225.959 378.721C227.375 372.529 210.599 381.793 195.599 387.649C194.048 388.482 192.355 389.019 190.607 389.233C190.439 388.249 193.823 385.153 194.039 384.913C202.991 375.025 214.343 370.945 213.575 367.297C212.399 361.585 191.567 372.697 187.175 374.497C183.479 376.057 177.575 377.929 177.935 377.929C177.143 378.241 177.935 378.793 178.079 378.721C178.223 378.649 185.831 376.321 187.679 375.505C190.439 374.449 208.895 365.545 211.967 367.633C213.191 368.497 200.135 375.529 192.767 383.665C191.471 385.057 187.967 387.889 189.047 390.193C189.246 390.549 189.546 390.837 189.909 391.021C190.273 391.205 190.683 391.276 191.087 391.225C194.663 391.225 219.047 379.009 224.063 378.625C222.912 380.144 221.536 381.479 219.983 382.585C216.407 385.417 206.039 393.865 203.639 397.753C202.391 399.769 203.423 400.969 205.055 400.993C207.215 400.993 209.855 399.529 216.359 397.081C238.415 388.585 239.111 388.969 238.751 388.177C238.733 388.129 238.705 388.086 238.67 388.049C238.634 388.012 238.592 387.983 238.545 387.963C238.498 387.943 238.447 387.932 238.396 387.932C238.345 387.931 238.295 387.941 238.247 387.961Z" fill="url(#paint1_linear_214_241)"/>
<path fill-rule="evenodd" clip-rule="evenodd" d="M468 296.448C467.688 271.344 465.432 220.104 460.464 195.264C457.848 182.088 452.184 164.064 441.648 155.352C437.184 151.68 430.608 148.152 418.68 141.552C418.824 141.24 399.84 133.56 398.952 136.104C398.215 131.727 397.18 127.405 395.856 123.168C397.632 122.592 396.84 117.408 397.584 114.48C398.328 111.552 401.136 109.464 402.576 107.064C405.816 101.712 406.368 92.3764 405.768 86.1604C405.192 80.3764 396.744 67.4644 391.176 65.3524C385.608 63.2404 379.896 63.3124 374.016 62.1364C369.216 61.1524 365.664 58.4884 360.288 57.8164C354.912 57.1444 351.696 60.2164 347.088 60.2164C342.48 60.2164 337.296 56.6404 332.472 56.3524C329.851 56.3117 327.304 57.2235 325.305 58.9184C323.305 60.6133 321.989 62.9762 321.6 65.5684C321.018 69.432 321.476 73.381 322.927 77.0088C324.378 80.6366 326.77 83.8121 329.856 86.2084C333.614 88.5855 337.836 90.1321 342.24 90.7444C341.952 103.008 343.248 99.7204 341.808 100.8C340.368 101.88 340.824 109.44 341.328 111.528C341.544 112.368 341.76 112.68 342.792 113.016C342.216 115.416 338.16 120.6 341.808 121.872C342.288 122.04 344.208 122.376 344.4 122.448C344.892 124.724 345.615 126.944 346.56 129.072C347.491 131.212 348.851 133.138 350.556 134.732C352.26 136.325 354.274 137.552 356.472 138.336C359.928 139.68 362.664 140.04 364.68 140.736C364.958 141.729 365.103 142.754 365.112 143.784C356.541 146.037 348.467 149.871 341.304 155.088C328.32 165.624 309.864 209.328 305.04 214.128C303.168 215.976 259.08 224.52 252.576 228.936C251.304 229.8 251.256 230.544 251.424 232.08C249.84 232.368 243.168 233.616 242.424 235.032C242.204 236.061 242.262 237.13 242.592 238.128C236.653 237.019 230.661 236.218 224.64 235.728C223.538 235.754 222.454 236.011 221.457 236.482C220.461 236.954 219.575 237.629 218.856 238.464C216.84 240.864 218.472 240.456 216.336 240.12C211.8 239.472 195.552 244.92 193.512 245.88C193.512 245.016 193.512 244.416 192.6 243.936C189.921 243.16 187.123 242.884 184.344 243.12C182.664 244.248 189.144 243.864 191.832 245.256C191.832 247.104 192.072 266.064 191.832 269.784C191.832 270.456 191.832 270.36 191.328 270.432C188.928 270.768 185.472 270.432 184.416 271.2C184.8 262.848 184.416 242.4 183.264 241.2C182.568 240.48 169.752 238.944 155.808 237.264C155.857 227.176 155.296 217.093 154.128 207.072C151.56 184.8 146.184 158.544 129.384 145.224C130.357 145.622 131.429 145.714 132.456 145.488C133.827 144.944 135.304 144.714 136.776 144.816C139.176 145.464 139.488 147.216 145.488 143.184C145.872 142.92 146.88 142.992 147.672 142.2C150.384 139.488 149.016 135.816 149.016 133.08C149.413 131.22 149.543 129.313 149.4 127.416C149.326 127.134 149.188 126.872 148.997 126.651C148.805 126.43 148.565 126.257 148.296 126.144C148.296 125.352 149.136 123.936 147.936 122.4C149.664 121.488 151.536 120.432 150.576 118.56C148.742 115.627 147.229 112.505 146.064 109.248C145.32 106.464 146.328 102.912 146.28 99.9124C146.28 97.8484 146.496 95.3764 146.28 93.1204C148.131 91.8279 149.546 90.0032 150.336 87.8884C150.511 87.0335 150.473 86.1487 150.227 85.3118C149.98 84.4748 149.531 83.7113 148.92 83.0884C148.128 82.5844 147.96 83.0884 147.984 81.6004C148.071 81.0782 148.047 80.5436 147.915 80.0311C147.783 79.5185 147.545 79.0393 147.216 78.6244C146.208 77.6404 143.904 76.5604 143.184 75.5524C141.96 73.7524 141.24 71.9524 138.936 71.2324C137.304 70.7044 135.768 71.7364 134.664 71.3764C133.152 70.8964 131.592 69.2644 129.864 70.9924C129.478 71.2016 129.055 71.3326 128.618 71.3779C128.182 71.4232 127.74 71.3819 127.32 71.2564C125.88 70.0324 125.52 67.9204 123.072 67.4644C121.68 67.2244 118.944 67.8964 117.888 67.4644C116.158 66.191 114.249 65.1801 112.224 64.4644C109.96 64.2487 107.675 64.4439 105.48 65.0404C103.944 65.3524 101.976 65.1844 100.368 65.4244C97.0319 65.9524 96.0719 68.8324 93.8639 70.2244C91.6559 71.6164 87.9359 71.6404 85.8239 74.7604C84.0479 77.4004 84.4319 80.2564 83.7359 82.8964C83.4479 84.0244 81.9119 85.2964 81.3359 86.4484C79.9919 89.1124 81.0239 91.8004 80.9999 94.1044C80.9759 96.4084 79.3679 98.5204 79.8239 101.304C80.1944 102.695 80.8034 104.01 81.6239 105.192C81.6338 105.581 81.5853 105.97 81.4799 106.344C80.7477 108.233 80.5973 110.298 81.0479 112.272C81.4407 114.166 82.3551 115.911 83.6879 117.312C85.3679 118.776 86.2319 118.392 87.4559 120.48C87.9707 121.584 88.7446 122.548 89.7119 123.288C91.4879 124.488 93.6719 123.456 94.7279 123.984C95.3849 124.331 96.1014 124.551 96.8399 124.632C96.2491 124.931 95.7387 125.367 95.3519 125.904C82.2959 127.56 65.0639 137.088 54.5519 150.12C50.3999 155.472 43.4159 163.2 40.7999 169.392C26.7359 201.168 33.5999 250.992 27.9359 266.376L13.9199 302.928C13.2479 304.68 11.5199 313.392 12.1439 316.392C13.1519 320.856 17.8319 315.264 20.6879 312.096C18.9119 318.408 18.9359 320.064 17.9999 344.904C17.7119 352.68 17.4479 361.152 17.3279 368.28C17.321 368.331 17.3252 368.384 17.3402 368.433C17.3552 368.482 17.3806 368.528 17.4147 368.567C17.4489 368.605 17.4909 368.636 17.5381 368.657C17.5852 368.678 17.6363 368.689 17.6879 368.688C18.3599 368.688 17.9279 369.456 18.9119 349.632C19.6079 335.688 20.3999 322.68 20.4719 321.624C20.8272 317.522 21.7312 313.486 23.1599 309.624C29.8623 304.617 37.4046 300.846 45.4319 298.488C54.3658 296.098 63.8 296.34 72.5999 299.184C74.9999 299.976 81.4559 301.584 83.7599 300.504C88.5599 298.104 100.92 290.16 102.96 285.336C103.968 282.936 104.784 280.992 105.576 279.192C109.248 279.528 113.76 280.464 117.768 280.512C122.256 280.512 125.136 279.792 130.104 275.4C148.368 275.808 168.504 275.256 178.104 274.896C184.512 277.296 204.192 284.328 208.968 289.056C210.84 290.88 211.944 295.968 212.616 301.632C213.501 308.402 213.734 315.242 213.312 322.056C200.16 324.576 183.408 328.56 170.448 331.776C169.722 331.574 168.964 331.517 168.216 331.608C164.784 331.968 166.392 333.36 165.264 329.88C165.318 329.893 165.374 329.892 165.428 329.878C165.481 329.863 165.531 329.836 165.571 329.798C165.611 329.76 165.642 329.712 165.659 329.66C165.677 329.607 165.681 329.551 165.672 329.496C165.637 324.883 165.097 320.288 164.064 315.792C163.896 315.12 162.72 314.784 162 314.568C154.224 312.312 124.2 309.288 117.6 310.992C113.304 312.12 83.5679 327.48 82.2239 330.744C80.8799 334.008 77.2319 353.64 76.5599 357.264C61.0079 361.8 48.7439 365.544 42.7439 367.584C42.6942 367.6 42.6482 367.626 42.6089 367.661C42.5696 367.695 42.5378 367.737 42.5153 367.785C42.4928 367.832 42.4802 367.883 42.4783 367.935C42.4763 367.988 42.485 368.04 42.5039 368.088C42.7919 368.976 50.6639 364.896 131.304 343.704C132.114 345.773 133.153 347.745 134.4 349.584C132 350.16 129.288 351.216 128.496 353.424C128.355 353.891 128.332 354.384 128.428 354.862C128.524 355.339 128.737 355.785 129.048 356.16C131.017 358.365 133.642 359.879 136.536 360.48C141.611 361.752 146.884 362.03 152.064 361.296C157.038 360.862 161.939 359.814 166.656 358.176C171.792 356.016 171.456 352.8 169.488 351.336C167.46 350.144 165.231 349.33 162.912 348.936C165.096 344.976 163.056 346.728 166.32 345.936C168.167 345.496 169.854 344.548 171.192 343.2C173.304 341.04 174.72 335.712 172.704 333.144C182.832 330.744 223.56 320.664 233.52 321.408C251.592 322.728 382.992 376.752 414.096 387.168C414.145 387.184 414.196 387.19 414.247 387.186C414.299 387.182 414.348 387.168 414.394 387.144C414.44 387.121 414.48 387.089 414.514 387.05C414.547 387.01 414.572 386.965 414.588 386.916C414.604 386.867 414.61 386.816 414.605 386.765C414.601 386.714 414.587 386.664 414.564 386.618C414.54 386.572 414.508 386.532 414.469 386.499C414.43 386.465 414.385 386.44 414.336 386.424C406.2 383.592 388.056 376.368 366.336 367.68C367.392 365.136 370.176 356.928 372.336 354.096C373.224 352.944 373.176 352.848 381.096 353.304C401.856 354.504 420.144 353.952 440.064 347.592C452.232 343.68 458.208 334.656 461.664 322.584C462.36 322.8 464.256 323.424 464.928 323.568C465.12 323.615 465.32 323.615 465.512 323.569C465.704 323.523 465.882 323.433 466.032 323.304C468.408 320.88 468 301.176 468 296.448ZM139.728 131.424C139.078 131.661 138.377 131.719 137.698 131.592C137.018 131.466 136.385 131.159 135.864 130.704C135.346 130.29 134.94 129.752 134.684 129.139C134.429 128.527 134.331 127.86 134.4 127.2C134.368 127.102 134.377 126.994 134.424 126.902C134.471 126.81 134.553 126.74 134.652 126.708C134.751 126.677 134.858 126.685 134.95 126.732C135.042 126.78 135.112 126.862 135.144 126.96C136.329 128.665 138.002 129.97 139.944 130.704C140.006 130.756 140.051 130.824 140.074 130.9C140.098 130.977 140.098 131.059 140.075 131.136C140.052 131.213 140.006 131.281 139.945 131.332C139.883 131.384 139.808 131.416 139.728 131.424ZM117.192 110.4C117.274 109.695 117.557 109.029 118.008 108.48C118.536 107.952 120.144 108.288 121.272 107.52C122.116 106.854 122.756 105.964 123.12 104.952C124.464 102.288 126.6 104.352 129.576 99.9604C130.336 98.7253 130.925 97.3932 131.328 96.0004C133.008 95.2084 135.192 96.3604 137.304 92.8804C138 91.7044 138.456 90.4804 139.704 90.1444C140.64 91.1524 141.576 94.9444 145.368 93.4804C145.368 94.7764 145.08 101.328 145.008 101.856C144.697 103.438 144.528 105.045 144.504 106.656C144.504 111.456 146.712 114.096 149.16 119.112C149.544 119.904 147.528 120.672 146.52 121.224C145.098 120.701 143.626 120.323 142.128 120.096C137.472 118.968 133.752 121.392 129.744 122.496C129.065 122.501 128.387 122.42 127.728 122.256C126.216 122.112 124.632 123.648 122.496 123.936C121.939 124.046 121.362 123.985 120.84 123.763C120.318 123.54 119.875 123.166 119.568 122.688C119.309 121.809 119.124 120.91 119.016 120C118.8 119.136 118.536 118.272 118.344 117.432C117.96 115.704 119.088 115.032 117.768 112.632C116.856 111 116.88 111.72 117.192 110.4ZM118.104 159.36C119.72 156.294 121.038 153.079 122.04 149.76C123.384 158.112 124.104 162.336 124.44 164.448C122.688 162.984 122.52 162.432 118.104 159.264V159.36ZM125.304 169.128C126.48 176.328 126.216 174.696 126.432 176.184C125.859 175.104 125.158 174.097 124.344 173.184C124.613 171.599 124.733 169.992 124.704 168.384L125.304 169.128ZM116.616 173.448C115.183 171.958 113.874 170.353 112.704 168.648C113.891 165.873 115.229 163.165 116.712 160.536C121.752 164.4 121.368 164.352 122.616 165.912C122.799 167.956 122.799 170.012 122.616 172.056L116.616 173.448ZM116.928 175.008C119.784 181.368 120.936 191.808 121.536 198.768C118.54 190.002 114.512 181.623 109.536 173.808C110.509 172.479 111.376 171.074 112.128 169.608C113.116 171.449 114.299 173.179 115.656 174.768C115.829 174.877 116.025 174.947 116.228 174.972C116.431 174.997 116.637 174.976 116.832 174.912L116.928 175.008ZM102.672 123.648C102.867 123.709 103.068 123.749 103.272 123.768C103.831 123.743 104.366 123.538 104.799 123.183C105.232 122.829 105.538 122.343 105.672 121.8C106.056 121.56 106.344 121.296 106.32 120.84C106.296 120.384 101.136 113.328 107.712 109.704C108.292 109.641 108.875 109.792 109.352 110.128C109.829 110.463 110.167 110.961 110.304 111.528C110.614 112.809 111.27 113.979 112.2 114.912C112.273 116.446 112.473 117.972 112.8 119.472C112.992 120.36 112.32 121.512 112.176 122.736C111.84 125.136 114.168 127.776 115.008 129.936C116.136 132.84 115.368 135.96 118.056 138.528C120.744 141.096 120.24 138.984 121.176 144.744C120.056 149.271 118.513 153.682 116.568 157.92C113.856 154.08 100.128 131.664 97.3679 126.552C98.3999 125.928 101.616 124.104 102.576 123.552L102.672 123.648ZM95.4719 126.84C97.2239 130.92 114.672 158.568 114.672 158.808C113.832 161.472 109.008 172.512 106.728 173.712C101.712 170.136 87.9599 132.528 86.9759 129.12C89.6835 127.96 92.532 127.162 95.4479 126.744L95.4719 126.84ZM120.24 232.8C117.6 231.96 109.08 203.04 101.472 187.032C96.9119 177.432 87.9599 161.568 78.1919 157.344C67.6319 152.808 47.9999 163.68 45.9119 177.792C44.6369 187.099 45.3902 196.572 48.1199 205.56C59.4479 239.808 74.7839 267.12 107.544 274.944C108.312 273.408 105.6 274.68 127.152 275.256C126.096 276.078 124.972 276.809 123.792 277.44C119.76 279.624 112.104 277.872 106.44 277.248L107.16 275.688C73.4159 268.152 57.6239 239.688 46.3199 206.088C43.465 196.829 42.6463 187.062 43.9199 177.456C46.0799 162.192 66.4079 151.248 77.6639 155.04C80.5339 156.11 83.1613 157.742 85.3919 159.84C84.3215 150.223 84.0566 140.534 84.5999 130.872C85.0409 130.481 85.5146 130.127 86.0159 129.816C88.0799 137.016 99.8399 171.432 105.816 175.248C106.195 175.472 106.639 175.561 107.075 175.5C107.511 175.439 107.913 175.232 108.216 174.912C113.616 184.2 118.656 193.704 120.672 203.712C121.812 209.236 122.104 214.901 121.536 220.512C118.128 206.4 108.696 186 97.9679 176.232C108.936 195.168 116.928 225.456 120.504 231.432C121.934 231.827 123.396 232.1 124.872 232.248C124.248 217.848 123.768 187.824 117.672 174.792C118.416 174.792 123.672 173.664 123.672 173.664C124.62 174.802 125.426 176.052 126.072 177.384C127.056 179.28 126.72 177.84 128.208 187.92C135.408 234.456 135 234.216 135.936 234.72C131.232 234.12 122.952 233.616 120.24 232.8ZM136.176 223.2C126.816 170.064 126.72 168.576 122.784 146.4C123.096 145.344 123.336 144.48 123.504 143.856C124.992 145.752 133.104 156.144 133.992 158.424C132.672 159.6 127.92 161.616 129.36 163.224C130.008 163.968 135.36 168.6 137.04 170.28C137.952 174.144 136.512 216.48 136.176 223.2ZM77.5199 356.952C78.1919 353.904 82.5839 334.08 83.8079 331.296C84.6959 329.232 113.64 313.872 118.2 312.72C124.776 310.992 160.584 314.544 163.08 316.152C164.207 320.339 164.867 324.637 165.048 328.968C161.016 324.168 129.816 325.44 129.48 332.208C129.473 332.431 129.52 332.651 129.616 332.851C129.712 333.052 129.855 333.226 130.032 333.36C130.016 336.261 130.346 339.154 131.016 341.976C112.584 346.944 94.1519 352.128 77.5199 356.952ZM169.032 353.208C170.256 357.168 155.88 358.872 151.728 359.352C146.798 360.055 141.779 359.802 136.944 358.608C134.832 358.032 130.92 356.496 130.176 354.576C129.816 353.664 130.992 352.8 131.856 352.344C132.951 351.773 134.111 351.337 135.312 351.048C136.619 352.85 138.373 354.281 140.4 355.2C142.8 356.256 153.048 355.512 156.6 354.744C158.16 354.408 159.816 353.952 162.168 350.184C163.608 350.4 168.624 351.888 169.032 353.208ZM157.56 352.368C155.76 353.448 143.04 354.312 141.096 353.52C134.664 350.952 131.16 340.92 130.896 333.84C136.125 334.991 141.491 335.387 146.832 335.016C150.84 334.488 160.32 332.856 163.8 331.104C165.888 338.976 161.472 350.088 157.56 352.368ZM170.976 339.984C170.326 341.27 169.414 342.404 168.297 343.313C167.181 344.223 165.886 344.888 164.496 345.264C165.751 341.898 166.346 338.32 166.248 334.728C166.437 334.332 166.712 333.982 167.053 333.704C167.394 333.426 167.792 333.227 168.219 333.122C168.646 333.016 169.091 333.006 169.522 333.093C169.953 333.18 170.359 333.362 170.712 333.624C172.512 334.8 171.72 337.944 170.976 339.984ZM418.176 142.248C434.4 151.2 441.6 154.944 446.784 162.792C443.523 159.988 439.373 158.432 435.072 158.4C419.688 157.872 412.128 180.648 408.192 195.384C401.664 219.96 405.672 251.064 405.312 255.624C401.16 259.488 379.896 270.528 370.392 275.688C371.712 270.12 376.416 248.64 379.488 240.168C383.616 228.792 395.496 202.296 396.288 196.536C396.504 194.832 396.168 194.616 391.128 191.352C393.072 191.352 398.328 190.824 399.96 190.512C400.656 190.512 401.016 190.2 401.28 188.736C402.168 183.648 403.896 141.72 404.04 137.256C403.872 137.16 416.112 141.072 418.248 142.248H418.176ZM399.672 136.512C400.765 136.434 401.863 136.556 402.912 136.872C401.712 154.272 400.512 184.872 399.384 188.784C398.112 189.024 393.6 189.336 391.848 189.456C388.104 189.672 388.008 189.456 387.624 189.984C387.24 190.512 387.768 191.232 388.464 191.712C389.688 192.576 393.768 195.144 394.344 195.816C393.79 198.674 392.937 201.465 391.8 204.144C378.24 240.144 379.056 229.08 369.936 268.56C370.545 249.648 372.292 230.79 375.168 212.088C377.088 201.792 379.416 192.12 387.168 170.088C390.216 161.568 396.528 145.248 396.768 145.344C397.972 142.476 398.966 139.524 399.744 136.512H399.672ZM357.984 283.8C358.44 285.576 358.44 285.336 358.296 285.36L357.552 285.216C357.552 284.976 356.256 260.88 356.88 250.92C358.008 233.28 359.448 214.152 360.792 195.72C361.44 186.792 363.888 167.616 363.816 168.336L366.216 166.56C367.212 168.547 368.342 170.464 369.6 172.296C370.08 172.944 370.728 173.76 371.496 173.832C370.968 178.176 362.976 231.768 360.624 266.016C359.328 284.664 360.624 280.704 358.728 282.408C358.503 282.56 358.322 282.769 358.204 283.014C358.086 283.258 358.035 283.53 358.056 283.8H357.984ZM372.24 173.856C374.064 173.856 376.032 170.016 378.432 168.384C379.368 169.368 382.2 174.072 384.072 174.696C376.128 196.488 367.632 226.872 367.656 277.032C365.616 278.136 362.856 279.72 360.816 280.896C362.016 260.472 370.704 193.44 372.312 173.856H372.24ZM397.44 141.6C396.672 144 385.272 171.528 384.48 172.8C383.242 171.587 382.14 170.243 381.192 168.792C379.176 166.08 378.48 165.192 375.048 169.056C380.136 159.456 390.072 149.712 394.248 144.864C398.232 140.304 397.704 140.688 397.44 141.6ZM343.68 91.2004C345.47 91.7518 347.385 91.7518 349.176 91.2004C350.546 90.5916 352.058 90.3755 353.544 90.5764C355.641 91.5432 357.798 92.3768 360 93.0724C362.724 93.0484 365.443 92.8318 368.136 92.4244C369.37 93.0011 370.415 93.916 371.15 95.0631C371.885 96.2101 372.28 97.5421 372.288 98.9044C367.815 99.5539 363.497 101.009 359.544 103.2C359.301 102.412 358.82 101.719 358.167 101.216C357.513 100.713 356.72 100.425 355.896 100.392C351.961 99.9188 347.986 99.8706 344.04 100.248C343.69 97.1816 343.569 94.093 343.68 91.0084V91.2004ZM342.744 111.672C342.144 110.616 340.968 102.432 342.168 101.544C342.36 101.784 341.52 101.04 346.08 101.088C349.294 101.19 352.499 101.478 355.68 101.952C357.84 102.336 358.2 103.32 358.08 105.408C358.08 109.272 358.2 108.888 358.08 110.088C358.08 110.424 357.936 111.312 357.672 111.504C352.735 112.398 347.678 112.39 342.744 111.48V111.672ZM364.8 138.72C358.224 136.848 352.2 136.608 348.144 128.256C345.528 122.88 346.968 121.32 344.592 120.624C343.711 120.519 342.842 120.326 342 120.048C342 118.44 344.016 115.08 344.4 113.376C348.386 113.853 352.414 113.853 356.4 113.376C358.8 113.016 360.072 112.608 359.688 107.736V104.016C363.456 102.864 371.448 100.968 372.408 100.704C372.414 102.01 372.591 103.309 372.936 104.568C373.311 105.36 373.958 105.991 374.76 106.344C374.888 106.401 375.028 106.428 375.168 106.422C375.308 106.416 375.445 106.378 375.568 106.311C375.691 106.244 375.797 106.149 375.877 106.034C375.958 105.919 376.011 105.787 376.032 105.648C376.584 103.416 377.016 101.424 377.184 100.464C377.184 100.992 377.4 98.7844 378.984 97.9204C381.384 96.6724 385.104 99.4564 385.368 103.392C385.512 105.312 383.592 108.792 382.152 112.8C381.288 115.2 386.52 116.232 388.344 117.12C389.016 118.68 388.608 120.432 389.52 121.368C390.889 122.212 392.39 122.821 393.96 123.168C395.615 128.473 396.82 133.909 397.56 139.416C391.464 145.824 390.096 147.36 388.464 149.016C382.088 155.075 376.681 162.076 372.432 169.776C370.728 159.768 367.488 150.936 367.128 148.032C366.84 145.776 367.32 141.792 366.264 139.656C366.104 139.402 365.89 139.187 365.637 139.025C365.383 138.863 365.098 138.759 364.8 138.72ZM365.496 146.856C366.648 151.128 369.72 165 370.608 170.568C369.144 168.36 367.344 164.712 367.344 164.712C367.282 164.582 367.191 164.468 367.078 164.378C366.965 164.287 366.834 164.224 366.693 164.191C366.552 164.159 366.406 164.159 366.265 164.191C366.125 164.223 365.993 164.286 365.88 164.376L364.128 165.72C364.8 159.48 365.472 153.12 365.568 146.856H365.496ZM364.8 144.72C364.584 162.384 361.056 178.128 359.616 195.72C354.816 254.856 354.816 251.952 355.296 272.88C352.704 253.968 349.08 217.176 347.088 197.232C348.504 196.152 355.344 190.944 356.112 189.36C356.472 188.592 356.112 187.8 354.384 187.8C351.38 188.027 348.364 188.027 345.36 187.8C347.184 180.36 357.624 153.216 360.408 146.016C361.824 145.608 363 145.2 364.8 144.72ZM253.224 230.736C256.944 226.824 303.624 217.704 306.168 215.232C309.744 211.632 319.584 189.288 329.616 172.344C338.136 157.944 342.768 152.616 359.352 146.496C355.368 156.36 347.592 175.656 344.088 186.888C343.872 187.584 343.56 188.352 344.088 188.808C345.408 190.104 350.928 189.336 354.096 189.384C351.864 191.616 345.72 196.152 345.72 196.152C345.602 196.24 345.508 196.357 345.449 196.491C345.39 196.626 345.368 196.774 345.384 196.92C346.392 208.056 352.584 274.512 355.272 284.16L350.952 283.056C348.16 281.685 345.127 280.87 342.024 280.656C347.496 253.44 345.528 245.832 346.2 231C346.2 229.464 339.72 198.6 339.672 198.36C339.672 198.259 339.631 198.161 339.559 198.089C339.487 198.017 339.39 197.976 339.288 197.976C339.186 197.976 339.088 198.017 339.016 198.089C338.944 198.161 338.904 198.259 338.904 198.36C339.312 208.872 342.288 218.88 344.328 230.352C336.648 237.552 328.608 247.512 315.528 250.752C307.44 252.792 269.568 261.048 264.528 261.408C260.4 256.8 252.576 233.808 253.224 230.736ZM248.664 233.928C248.664 233.928 251.544 233.232 251.496 232.776C253.737 241.21 256.56 249.477 259.944 257.52C257.762 258.195 255.531 258.701 253.272 259.032C251.904 259.032 252.864 260.232 249.528 252.312C247.472 247.389 245.709 242.348 244.248 237.216C243.84 235.56 243.144 235.728 248.664 233.928ZM220.56 238.992C222.456 236.904 223.824 236.592 242.784 238.992C244.47 244.715 246.514 250.326 248.904 255.792C245.002 258.834 240.53 261.062 235.752 262.344C235.608 261.312 235.272 261.624 236.088 261.696C236.777 261.716 237.462 261.58 238.092 261.3C238.722 261.02 239.281 260.601 239.727 260.076C240.174 259.551 240.498 258.933 240.673 258.266C240.849 257.599 240.873 256.902 240.744 256.224C240.552 253.824 233.688 248.832 231.744 247.464C232.898 247.702 234.095 247.61 235.2 247.2C235.299 247.169 235.381 247.099 235.428 247.007C235.475 246.914 235.484 246.807 235.452 246.708C235.42 246.61 235.35 246.528 235.258 246.48C235.166 246.433 235.059 246.425 234.96 246.456C230.928 247.512 226.848 242.712 226.32 242.568C224.472 242.112 225.624 246.408 221.52 248.976C220.92 249.36 218.616 248.496 218.472 247.32C218.17 245.865 218.201 244.359 218.562 242.917C218.924 241.475 219.607 240.133 220.56 238.992ZM193.728 246.552C196.8 245.448 212.448 240.6 216.96 241.752C216.452 243.67 216.338 245.67 216.624 247.632C216.776 248.256 217.061 248.839 217.46 249.342C217.858 249.846 218.36 250.257 218.932 250.549C219.504 250.84 220.132 251.005 220.773 251.032C221.414 251.059 222.054 250.947 222.648 250.704C224.32 249.589 225.578 247.952 226.224 246.048C228.36 247.344 238.968 254.376 238.824 256.872C238.824 258.552 237.936 259.968 236.256 259.824C234.838 259.316 233.497 258.613 232.272 257.736C231.039 256.752 229.74 255.854 228.384 255.048C228.168 254.936 227.919 254.908 227.684 254.969C227.448 255.03 227.244 255.176 227.11 255.379C226.976 255.581 226.921 255.826 226.957 256.067C226.993 256.307 227.117 256.526 227.304 256.68C227.304 256.68 229.104 258.024 231.096 259.32C234.096 261.72 235.128 263.928 231.408 265.056C230.826 265.229 230.214 265.28 229.611 265.206C229.008 265.131 228.427 264.934 227.904 264.624C227.292 263.417 226.481 262.321 225.504 261.384C225.068 260.263 224.286 259.31 223.272 258.663C222.258 258.015 221.064 257.708 219.864 257.784C218.616 257.928 218.52 258.552 218.64 257.976C219.216 255.12 215.568 253.392 213.024 253.872C208.92 254.688 206.64 260.112 205.296 264.072C204.48 265.8 207.696 263.88 193.656 268.872C194.052 261.902 194.052 254.915 193.656 247.944C193.536 246.288 193.488 246.672 193.728 246.552ZM205.968 264.336C207.288 261.504 210.192 256.2 213.288 255.72C214.488 255.504 216.912 256.32 216.648 257.544C216.128 260.794 214.63 263.808 212.352 266.184C212.64 266.664 205.128 266.808 205.968 264.336ZM219.552 259.752C220.128 259.176 223.488 260.352 223.584 262.152C223.752 265.152 220.896 268.728 218.424 270.384C217.632 270.936 214.512 268.392 213.792 267.36C215.506 264.675 217.432 262.131 219.552 259.752ZM223.608 267.744C223.776 267.504 226.176 262.176 226.584 266.592C226.752 268.32 224.184 269.232 222.504 268.992C222.894 268.597 223.263 268.18 223.608 267.744ZM276.984 298.944C266.88 306.792 265.44 317.112 267.096 329.424C250.872 323.664 238.488 319.824 233.664 319.416C227.135 319.551 220.637 320.355 214.272 321.816C214.92 315.36 214.632 292.704 210.048 288.048C205.464 283.392 188.832 277.032 182.568 274.632H183.984C184.536 274.344 183.624 271.824 185.712 271.68C188.232 271.536 191.76 272.496 192.912 271.488C193.256 270.966 193.455 270.361 193.488 269.736C196.128 268.896 202.344 267 205.488 266.184C206.545 267.023 207.782 267.605 209.103 267.884C210.423 268.163 211.79 268.132 213.096 267.792C213.816 269.4 217.176 272.928 219.264 271.776C219.843 271.442 220.397 271.065 220.92 270.648C222.438 271.069 224.05 271.002 225.528 270.456C226.31 270.243 227.008 269.795 227.527 269.173C228.046 268.551 228.362 267.784 228.432 266.976C229.688 267.337 231.028 267.28 232.249 266.812C233.47 266.344 234.506 265.492 235.2 264.384C240.462 263.202 245.386 260.838 249.6 257.472C250.056 258.456 250.488 259.296 250.848 259.872C250.967 260.075 251.135 260.245 251.336 260.366C251.537 260.488 251.765 260.557 252 260.568C254.4 260.808 260.064 258.168 260.304 258.168C261.126 259.883 262.149 261.495 263.352 262.968C263.784 263.4 264.504 263.28 265.176 263.208C272.136 262.368 306.696 254.928 315.936 252.624C327.936 249.624 335.76 241.2 343.992 233.184C343.536 246.96 345.336 253.68 339.888 280.728C328.56 282.137 317.336 284.286 306.288 287.16C296.616 289.92 285.096 292.656 276.984 298.968V298.944ZM312 346.296L311.16 345.96C310.968 333.768 313.992 322.536 322.92 314.208C323.71 314.409 324.511 314.562 325.32 314.664C316.128 322.536 312.504 334.008 312 346.296ZM349.896 306.288C342.696 310.512 344.808 312.792 338.208 313.488C332.92 313.852 327.608 313.439 322.44 312.264C318.264 310.92 320.472 309.312 324.84 308.832C325.584 308.952 331.44 309 334.2 308.832C334.425 308.796 334.631 308.681 334.779 308.507C334.927 308.334 335.009 308.113 335.009 307.884C335.009 307.656 334.927 307.435 334.779 307.261C334.631 307.088 334.425 306.972 334.2 306.936C331.087 306.668 327.959 306.62 324.84 306.792C322.853 306.764 320.875 306.53 318.936 306.096C318.743 305.782 318.631 305.424 318.61 305.055C318.589 304.687 318.66 304.319 318.816 303.984C321.336 302.472 333.216 303.048 335.184 302.976C335.415 302.94 335.626 302.822 335.779 302.644C335.931 302.465 336.015 302.239 336.015 302.004C336.015 301.77 335.931 301.543 335.779 301.365C335.626 301.187 335.415 301.069 335.184 301.032C331.246 301.116 327.307 300.907 323.4 300.408C321.72 300.12 317.808 299.28 318.096 297.576C318.624 294.504 324.936 297.144 329.376 296.832C332.508 296.785 335.609 296.201 338.544 295.104C338.763 295.038 338.948 294.886 339.056 294.684C339.164 294.481 339.187 294.244 339.12 294.024C339.053 293.805 338.902 293.621 338.699 293.513C338.497 293.405 338.259 293.382 338.04 293.448C335.037 294.17 331.991 294.699 328.92 295.032C328.725 294.992 328.552 294.882 328.432 294.723C328.313 294.564 328.256 294.367 328.272 294.168C328.306 293.72 328.42 293.281 328.608 292.872C329.845 291.258 331.507 290.02 333.408 289.296C340.224 286.464 345.408 289.296 353.208 289.8C354.187 294.238 355.429 298.614 356.928 302.904C354.536 303.861 352.218 304.992 349.992 306.288H349.896ZM359.064 303.36C358.224 300.528 355.104 290.256 354.792 287.856C356.03 287.251 357.335 286.792 358.68 286.488C359.784 290.592 361.824 297.72 363.144 301.704C361.856 302.348 360.525 302.902 359.16 303.36H359.064ZM365.856 303.36C364.584 300.48 360.816 287.064 359.952 283.704C364.08 280.32 401.136 262.104 406.656 256.56C408.384 254.832 402.552 222.312 409.392 195.552C413.04 181.152 420.192 158.52 434.952 159.024C445.08 159.36 450.864 167.088 454.152 176.736C460.176 194.496 457.776 219.144 457.776 218.904C457.776 239.04 450.576 269.304 436.176 283.704C425.304 294.6 372.624 304.584 365.952 303.432L365.856 303.36ZM464.808 321.6C462 320.856 449.112 316.104 443.664 315.648C415.368 313.248 417.12 307.872 399.624 300.192C409.224 297.792 430.56 292.224 437.64 285.216C452.592 270.384 459.504 239.808 459.432 219.12C459.987 211.875 459.987 204.598 459.432 197.352C464.736 227.448 468 312.48 464.808 321.6Z" fill="url(#paint2_linear_214_241)"/>
<path fill-rule="evenodd" clip-rule="evenodd" d="M93.7193 159.36L85.8474 160.272C88.2472 162.529 90.4326 165.004 92.3754 167.664L94.5594 160.464C94.626 160.335 94.6546 160.19 94.642 160.045C94.6294 159.901 94.5761 159.763 94.4881 159.647C94.4002 159.532 94.2813 159.443 94.1452 159.393C94.0092 159.342 93.8615 159.331 93.7193 159.36ZM321.383 378.384C319.404 377.131 317.218 376.237 314.927 375.744C320.375 366.888 319.391 356.544 317.951 355.632C316.596 354.251 314.791 353.4 312.863 353.232C305.663 351.72 288.215 351.6 283.607 355.44C282.599 356.28 281.999 357.648 282.983 358.56C282.515 364.249 283.707 369.952 286.415 374.976C284.015 375.432 281.231 376.344 280.319 378.504C280.162 378.969 280.119 379.465 280.194 379.949C280.27 380.434 280.461 380.893 280.751 381.288C282.594 383.573 285.115 385.212 287.951 385.968C292.96 387.493 298.216 388.039 303.431 387.576C308.414 387.373 313.354 386.568 318.143 385.176C323.447 383.208 323.399 379.968 321.383 378.384ZM283.823 358.992C288.982 360.402 294.316 361.064 299.663 360.96C305.493 360.562 311.25 359.433 316.799 357.6C317.28 360.902 317.103 364.266 316.28 367.5C315.456 370.733 314.001 373.771 311.999 376.44C311.516 377.288 310.817 377.994 309.975 378.487C309.133 378.979 308.175 379.242 307.199 379.248C303.839 379.68 294.671 379.92 292.799 379.08C286.727 376.272 283.727 366.072 283.823 358.992ZM303.335 385.392C298.381 385.862 293.383 385.356 288.623 383.904C286.468 383.317 284.485 382.223 282.839 380.712C282.455 380.304 281.831 379.488 282.023 378.984C282.647 377.4 285.695 376.584 287.375 376.296C288.578 378.131 290.231 379.626 292.175 380.64C294.575 381.864 307.871 381.72 310.343 380.448C311.884 379.508 313.19 378.227 314.159 376.704C315.575 377.112 320.519 378.792 320.855 380.136C321.935 384.264 307.655 385.248 303.335 385.512V385.392Z" fill="url(#paint3_linear_214_241)"/>
<defs>
<linearGradient id="paint0_linear_214_241" x1="245.813" y1="104.392" x2="245.813" y2="423.608" gradientUnits="userSpaceOnUse">
<stop stop-color="#FF8660"/>
<stop offset="1" stop-color="#AD5AFF"/>
</linearGradient>
<linearGradient id="paint1_linear_214_241" x1="208.198" y1="365.679" x2="208.198" y2="400.993" gradientUnits="userSpaceOnUse">
<stop stop-color="#FF8660"/>
<stop offset="1" stop-color="#AD5AFF"/>
</linearGradient>
<linearGradient id="paint2_linear_214_241" x1="240.018" y1="56.3511" x2="240.018" y2="387.187" gradientUnits="userSpaceOnUse">
<stop stop-color="#FF8660"/>
<stop offset="1" stop-color="#AD5AFF"/>
</linearGradient>
<linearGradient id="paint3_linear_214_241" x1="204.245" y1="159.344" x2="204.245" y2="387.736" gradientUnits="userSpaceOnUse">
<stop stop-color="#FF8660"/>
<stop offset="1" stop-color="#AD5AFF"/>
</linearGradient>
</defs>
</svg>
