<svg width="360" height="374" viewBox="0 0 360 374" fill="none" xmlns="http://www.w3.org/2000/svg">
<path d="M122.589 285.227C125.867 284.067 129.224 283.147 132.636 282.475L133.049 283.989C133.095 284.167 133.204 284.323 133.355 284.428C133.507 284.532 133.691 284.579 133.875 284.559L147.382 282.986C151.098 274.512 157.92 261.673 158.019 261.477C157.92 258.272 158.019 255.578 158.019 252.511C150.292 255.382 135.998 260.828 128.527 264.308C128.358 264.417 128.227 264.576 128.153 264.763C128.079 264.95 128.065 265.155 128.114 265.35C128.114 265.35 128.251 265.842 128.428 266.549C124.771 266.549 113.82 266.018 111.186 268.515C110.776 269.086 110.575 269.78 110.615 270.482C110.458 273.195 111.815 294.272 113.977 300.465C115.098 303.709 117.457 303.355 119.07 300.249C120.936 295.57 122.134 290.653 122.628 285.64C122.628 285.385 122.569 285.404 122.589 285.227ZM120.328 267.631C122.727 267.434 123.474 267.473 128.625 267.316C129.549 270.816 131.456 278.012 132.439 281.688C128.97 282.226 125.546 283.021 122.196 284.067C121.152 278.645 120.527 273.149 120.328 267.631Z" fill="url(#paint0_linear_214_247)"/>
<path d="M303.551 95.5557C304.043 94.8676 303.414 93.9828 302.883 93.2947C304.386 91.7479 306.054 90.37 307.857 89.1855C310.899 87.6695 313.68 85.6784 316.095 83.2871C317.098 82.2451 318.985 80.102 318.278 78.8437C317.57 77.5854 316.311 77.5067 314.601 78.2342C315.342 77.4561 315.947 76.5588 316.39 75.5799C316.941 74.0463 315.643 72.8077 312.831 73.948C313.854 72.3162 314.09 70.6056 312.36 69.7799C310.964 69.1114 308.919 70.7039 307.739 71.746C305.423 73.77 303.248 75.9509 301.231 78.2735C299.993 75.6782 298.027 72.6897 295.569 73.6335C293.111 74.5772 295.018 78.8044 296.277 81.1047L291.814 84.1915C291.139 83.8274 290.377 83.6573 289.612 83.7C284.539 84.5651 261.24 102.299 258.881 102.299C257.072 102.299 231.237 89.9129 208.902 86.3346C208.859 86.2006 208.779 86.0816 208.671 85.9911C208.563 85.9007 208.432 85.8426 208.293 85.8234C204.397 85.1586 200.447 84.8624 196.496 84.9387C196.376 84.9467 196.26 84.9808 196.154 85.0385C196.049 85.0962 195.958 85.1762 195.887 85.2729H194.235C193.842 83.6803 192.387 80.0037 191.876 78.5881C193.213 77.4281 195.061 76.8382 196.024 74.9704C197.794 71.5101 197.715 65.4937 197.224 61.6401C199.445 59.9493 199.504 57.236 198.993 54.4638C198.796 53.3431 198.187 50.8068 197.243 50.1776C196.712 49.8237 195.592 50.1776 194.628 50.5315C193.665 48.2902 193.665 49.3126 194.058 48.4081C194.241 47.9913 194.347 47.5452 194.373 47.0908C195.415 47.4054 197.577 45.3213 196.83 42.5688C196.439 41.5834 195.958 40.6357 195.395 39.7376C195.67 39.0691 196.26 38.263 194.412 35.8053C193.616 34.9467 192.583 34.3444 191.443 34.0751H190.539C189.887 33.128 188.929 32.4338 187.825 32.109C186.16 31.6844 184.395 31.9316 182.91 32.7971C182.517 33.0921 182.202 33.4853 181.809 33.7605C180.92 33.2207 179.9 32.9353 178.86 32.9353C177.82 32.9353 176.8 33.2207 175.911 33.7605C175.39 33.9648 174.917 34.2721 174.518 34.664C174.119 35.0559 173.804 35.5244 173.591 36.0412C172.627 35.7089 171.605 35.5809 170.59 35.6655C169.574 35.7502 168.587 36.0455 167.692 36.5328C164.296 38.3745 161.755 41.4726 160.614 45.164C160.583 45.7207 160.583 46.2786 160.614 46.8352H160.398C157.449 46.4027 153.694 53.4021 156.702 58.8482C157.056 59.4971 157.508 60.1066 157.94 60.8144C159.199 62.7805 158.707 63.3703 161.519 65.769C162.345 66.4768 162.482 66.4178 162.993 66.8503C163.505 67.2829 163.308 67.0666 163.603 68.1676C163.764 68.8162 164.051 69.4265 164.45 69.9631C164.848 70.4997 165.349 70.952 165.923 71.2938C166.132 73.2169 166.952 75.0223 168.263 76.445C168.678 76.9095 169.162 77.3074 169.698 77.6247C169.842 77.7062 170.004 77.7533 170.17 77.7623C170.76 81.4193 171.487 86.1773 171.802 88.2024L170.052 89.1461C167.762 90.0674 165.536 91.1379 163.387 92.3509C163.218 92.4676 163.099 92.6428 163.052 92.8425C160.968 93.9435 159.002 94.9855 157.881 95.654C142.27 104.914 97.9344 165.962 97.4822 168.754C97.4323 168.914 97.4323 169.086 97.4822 169.246C98.1177 170.26 98.892 171.18 99.7826 171.979C99.5082 172.479 99.1784 172.948 98.7995 173.375C94.8673 175.95 88.9689 179.784 85.8035 183.205C85.5815 183.403 85.4149 183.656 85.3202 183.938C85.2256 184.22 85.206 184.521 85.2636 184.813C85.3212 185.105 85.4538 185.377 85.6485 185.602C85.8432 185.827 86.0931 185.997 86.3737 186.096C86.9635 186.292 87.0618 186.233 90.8957 184.129C89.842 185.054 88.9803 186.176 88.3594 187.432C88.1038 188.514 89.0869 189.143 90.3256 188.946C91.0225 188.764 91.6861 188.472 92.2917 188.081C91.9371 188.629 91.7484 189.267 91.7484 189.92C91.7484 190.572 91.9371 191.21 92.2917 191.758C94.2578 194.235 99.409 186.43 102.122 184.503C103.223 185.899 104.718 189.163 107.097 188.298C109.161 187.531 106.9 182.989 107.097 181.672C107.897 180.904 108.751 180.194 109.653 179.548C111.169 180.673 112.903 181.47 114.745 181.888C117.989 181.888 151.845 147.717 154.421 144.984C153.497 153.674 148.837 190.971 149.82 198.226C150.273 201.51 158.157 201.982 161.479 202.159C160.477 225.752 159.808 261.496 159.631 261.87C154.421 273.096 153.005 276.163 151.256 279.565C148.071 285.66 134.662 308.152 133.148 313.264C132.931 314.07 132.912 314.385 133.757 315.879C131.224 318.543 128.872 321.374 126.718 324.353C125.637 326.319 130.277 344.643 133.561 351.132C134.308 352.587 135.527 354.828 137.159 354.769C142.074 354.592 142.054 336.936 141.917 332.001C141.916 331.849 141.86 331.702 141.759 331.588C142.65 330.259 143.622 328.985 144.669 327.774C145.294 328.204 145.951 328.586 146.635 328.915C147.304 329.209 148.051 328.698 148.601 328.246C155.149 323.095 190.46 279.093 198.03 258.331C201.47 248.854 206.051 235.76 207.349 226.48C208.142 220.612 208.215 214.67 207.565 208.785C207.565 208.701 207.598 208.621 207.657 208.562C207.716 208.503 207.796 208.47 207.88 208.47C207.963 208.47 208.043 208.503 208.102 208.562C208.161 208.621 208.194 208.701 208.194 208.785C209.179 214.703 209.371 220.727 208.765 226.696C207.31 239.574 197.145 266.412 191.718 276.281C196.398 275.416 205.914 273.529 210.514 272.153C225.85 267.493 240.006 253.592 241.245 237.981C241.646 230.627 241.646 223.256 241.245 215.902C241.112 205.749 239.793 195.647 237.313 185.801C241.481 183.54 245.295 180.885 246.534 178.447C249.188 173.237 242.169 143.254 240.635 134.839C249.031 135.763 263.325 137.434 269.99 132.224C277.618 126.09 294.094 108.827 303.551 95.5557ZM140.855 330.92C137.316 328.777 132.361 323.685 131.614 319.693C132.42 318.671 133.266 317.727 134.052 316.666C136.717 320.732 140.039 324.326 143.883 327.302C142.803 328.447 141.792 329.655 140.855 330.92ZM297.161 81.6552C297.263 81.5903 297.336 81.489 297.365 81.372C297.395 81.2549 297.378 81.1312 297.319 81.0261C296.631 79.7481 294.566 75.2457 296.001 74.7345C296.827 74.4199 297.555 74.9311 298.164 75.6192C299.095 76.8 299.819 78.1294 300.307 79.5515C300.344 79.6671 300.411 79.7706 300.502 79.851C300.592 79.9314 300.703 79.9856 300.822 80.0078C300.941 80.03 301.064 80.0194 301.178 79.9772C301.292 79.9349 301.392 79.8625 301.467 79.7678C303.433 77.5854 308.034 72.6111 310.629 71.2741C312.595 70.2517 313.067 72.1392 308.25 76.5433C307.144 77.3869 306.081 78.286 305.065 79.2369C305.009 79.3141 304.979 79.407 304.979 79.5023C304.979 79.5977 305.009 79.6906 305.065 79.7678C305.065 80.2789 305.478 80.8491 306.186 80.3183C307.895 78.818 309.701 77.4322 311.593 76.1698C312.558 75.4839 313.68 75.0512 314.857 74.9114C314.267 76.7203 308.781 81.6356 308.309 82.1861C308.16 82.3202 308.069 82.5078 308.056 82.7083C308.043 82.9089 308.11 83.1064 308.241 83.2584C308.373 83.4105 308.558 83.5048 308.759 83.5212C308.959 83.5376 309.158 83.4747 309.312 83.3461C311.494 81.9305 315.309 78.6274 316.626 79.1189C317.943 79.6105 314.031 83.2674 313.048 84.1325C307.405 89.0282 308.86 85.8824 302.332 92.5279C299.491 89.4153 296.228 86.7153 292.639 84.5061L297.161 81.6552ZM211.733 175.695C211.399 172.982 210.986 170.052 210.475 167.005L211.321 165.884C215.253 160.831 216.433 152.789 216.059 146.478C218.163 155.699 219.834 164.763 221.112 173.768L211.733 175.695ZM182.497 108.375C177.326 104.443 169.01 97.6594 164.173 93.0194L172.038 89.0872C179.259 95.8326 185.441 103.611 190.381 112.169C197.936 126.047 203.539 140.9 207.034 156.309L178.998 116.652L182.655 109.063C182.703 108.946 182.714 108.817 182.686 108.694C182.658 108.57 182.592 108.459 182.497 108.375ZM195.788 86.079C195.906 86.2953 197.263 89.1855 199.327 94.2384C199.327 94.4547 198.954 99.37 198.777 101.1C196.267 100.105 193.901 98.7833 191.738 97.1679C192.171 95.4574 194.117 87.6912 194.255 85.9414L195.788 86.079ZM188.809 107.195C188.946 106.841 189.084 106.369 189.241 105.819L190.558 106.507C191.305 106.999 191.011 105.504 191.679 109.83C191.679 110.557 191.876 111.363 191.915 112.248C191.011 110.616 189.89 108.866 188.828 107.195H188.809ZM187.708 105.544C183.993 100.275 179.765 95.3883 175.085 90.955L189.89 97.3842C189.32 98.7408 188.494 102.889 187.727 105.544H187.708ZM202.827 117.065C200.861 111.698 199.347 105.701 198.6 104.128C198.644 103.637 198.644 103.144 198.6 102.653C198.884 102.759 199.182 102.825 199.485 102.85C199.674 102.852 199.858 102.786 200.003 102.663C200.147 102.54 200.243 102.369 200.271 102.182C200.428 101.533 200.684 98.2493 200.723 97.5218C206.443 111.962 211.217 126.759 215.017 141.819C203.908 118.186 205.619 125.028 202.847 117.065H202.827ZM219.087 154.598C214.604 133.109 206.72 106.31 197.754 86.4526C201.047 86.4544 204.334 86.7174 207.585 87.239C209.256 102.182 207.86 101.67 208.981 102.26C210.102 102.85 216.845 105.563 217.848 105.976C217.75 107.49 219.165 150.784 219.106 154.598H219.087ZM196.457 51.436C197.482 53.6727 197.843 56.1565 197.499 58.5926C197.339 59.2127 197.01 59.7761 196.548 60.2203C196.087 60.6644 195.512 60.9719 194.886 61.1084C194.26 61.245 193.609 61.2052 193.005 60.9936C192.4 60.7821 191.867 60.4069 191.463 59.9099C190.525 57.9337 189.819 55.8554 189.359 53.7167C189.89 53.0285 195.552 51.6522 196.457 51.436ZM169.403 71.0972C168.685 70.7702 167.95 70.4814 167.201 70.2321C166.698 70.0255 166.25 69.7066 165.89 69.2998C165.529 68.8931 165.267 68.4092 165.123 67.8853C164.978 67.3615 164.956 66.8116 165.057 66.2777C165.159 65.7439 165.381 65.2403 165.707 64.8056C166.945 63.7635 168.066 63.8225 169.088 65.3758C169.737 66.5751 169.717 66.6734 170.012 66.7914C170.097 66.8286 170.189 66.8474 170.281 66.8464C170.374 66.8454 170.465 66.8247 170.548 66.7856C170.632 66.7465 170.707 66.6899 170.767 66.6197C170.827 66.5495 170.871 66.4673 170.897 66.3785C171.189 65.1478 171.235 63.8719 171.035 62.6232C170.799 61.2666 170.76 55.2502 170.799 55.0536C171.373 55.3563 172.018 55.499 172.667 55.4665C176.225 55.3289 176.933 53.5004 178.349 52.0061C179.981 52.1634 180.315 52.9499 182.163 52.0061C183.028 51.5139 183.822 50.9052 184.522 50.1973C185.087 50.4287 185.633 50.7048 186.154 51.0231C187.333 51.5897 188.662 51.7638 189.946 51.5196C191.231 51.2754 192.403 50.6259 193.291 49.6665C193.508 50.0793 193.704 50.4922 193.881 50.9248C192.074 51.4854 190.373 52.3425 188.848 53.4611C188.514 53.874 189.005 56.1153 189.123 56.6462C187.476 56.8534 185.882 57.3669 184.424 58.1601C184.129 57.1377 183.48 55.2306 182.458 54.6997C182.15 54.6056 181.822 54.6056 181.514 54.6997C179.745 54.975 173.394 56.8821 172.627 57.9242C171.959 58.6516 173.866 64.2747 174.456 65.1988C176.717 68.6985 183.343 67.6761 184.581 63.5866C184.888 62.2141 184.888 60.7909 184.581 59.4184C185.152 59.4184 186.862 58.8089 187.059 58.7499C188.415 61.7974 188.809 61.9744 190.381 65.2578C190.165 65.4347 189.811 65.7297 189.516 65.9263C188.12 66.8503 187.825 66.6931 187.904 67.0863C187.927 67.1643 187.978 67.2313 188.046 67.2748C188.115 67.3182 188.197 67.3351 188.278 67.3222C189.103 67.2043 189.909 66.9796 190.676 66.6537C191.135 66.4825 191.514 66.1459 191.738 65.71C192.289 64.4713 189.241 59.8116 188.042 58.4157C188.278 58.4157 188.828 58.0225 189.241 57.8062C189.792 60.0082 190.165 61.7384 192.289 62.6035C192.902 62.8352 193.556 62.9407 194.212 62.9137C194.867 62.8867 195.51 62.7277 196.103 62.4462C196.417 65.9066 196.358 71.5297 194.707 74.5969C193.861 76.1894 191.777 76.7989 190.44 78.1162C190.047 78.4898 190.303 79.0206 190.44 79.5908C192.623 85.6661 192.662 85.6465 192.544 86.4329C191.965 89.6971 191.157 92.9164 190.126 96.0669C189.634 95.8506 184.109 92.9211 173.296 88.7136C172.962 86.4919 171.172 74.6362 170.602 72.4538C170.642 71.687 170.543 71.5101 169.403 70.9989V71.0972ZM183.166 63.0754C182.537 65.2185 179.568 66.1425 177.444 65.5527C175.321 64.9629 175.183 63.8815 174.181 61.3256C173.711 60.3491 173.386 59.3092 173.217 58.2387C173.866 57.5309 180.964 56.076 181.848 55.9384C183.089 58.0613 183.555 60.5491 183.166 62.9771V63.0754ZM106.231 181.121C105.484 181.849 106.487 184.228 106.644 186.292C106.644 186.469 106.644 187.236 106.526 187.295C105.445 187.649 104.442 186.017 103.833 185.034C103.223 184.051 102.614 182.714 101.65 183.068C99.6843 183.992 95.1229 190.047 93.3337 190.677C92.4293 188.946 97.6002 184.011 97.7772 183.736C97.853 183.61 97.8928 183.465 97.8921 183.318C97.8914 183.17 97.8503 183.026 97.7733 182.9C97.6962 182.774 97.5862 182.672 97.4552 182.605C97.3241 182.537 97.1771 182.507 97.03 182.517C96.6761 182.517 96.4402 182.832 95.8897 183.323C94.2152 184.958 92.2986 186.324 90.2076 187.374C92.1035 185.199 94.1325 183.143 96.2829 181.22C96.3891 181.11 96.4638 180.974 96.4992 180.826C96.4992 180.826 96.0863 179.784 95.2802 180.197C94.1398 180.826 88.5954 184.031 86.8455 184.857C86.6096 184.7 86.7472 184.464 86.8455 184.228C89.6178 180.826 95.7127 176.697 99.4484 174.083C99.8868 173.631 100.252 173.114 100.53 172.549C103.117 174.956 105.877 177.171 108.787 179.175C107.891 179.763 107.037 180.413 106.231 181.121ZM151.983 198.993C151.551 198.718 151.236 198.462 151.177 198.109C150.096 190.087 156.112 144.63 156.014 142.841C156.014 142.736 155.993 142.632 155.952 142.535C155.911 142.439 155.852 142.351 155.776 142.278C155.701 142.204 155.612 142.147 155.515 142.109C155.417 142.07 155.312 142.052 155.208 142.054C154.205 142.054 155.974 142.054 130.926 166.041C129.274 167.594 116.652 179.666 114.548 180.472C111.658 180.256 100.785 171.586 99.0158 168.853C102.437 161.932 143.922 104.993 158.275 96.2832C159.376 95.6147 161.263 94.5726 163.328 93.4716C164.041 94.1449 164.811 94.7566 165.628 95.3001C170.189 99.6256 176.54 105.013 181.357 109.063L177.602 116.515C177.545 116.613 177.515 116.725 177.515 116.839C177.515 116.953 177.545 117.065 177.602 117.163C208.096 160.91 207.644 160.418 207.841 160.418C209.795 170.527 211.011 180.765 211.478 191.05C211.478 193.822 211.478 193.586 211.596 193.39C211.714 193.193 211.596 193.527 211.596 193.527C206.838 198.718 159.749 203.555 151.983 198.993ZM260.67 133.856C251.764 135.094 241.697 133.246 239.751 133.168C238.669 127.926 236.513 122.966 233.42 118.599C233.373 118.535 233.303 118.492 233.225 118.477C233.147 118.462 233.067 118.478 233 118.52C232.933 118.562 232.884 118.628 232.863 118.705C232.843 118.781 232.852 118.863 232.889 118.933C234.029 121.253 237.844 131.26 238.787 133.698C238.492 134.642 247.674 172.608 245.079 177.72C242.759 182.34 229.252 188.16 224.376 189.831C223.412 178.886 221.836 168.003 219.657 157.233C220.325 151.57 219.46 117.91 219.205 105.465C219.197 105.32 219.149 105.181 219.065 105.062C218.982 104.944 218.867 104.852 218.733 104.796L209.905 101.08C209.865 96.4081 209.57 91.7415 209.02 87.1014C231.06 90.9157 256.738 103.518 258.881 103.538C261.988 103.538 285.07 85.8431 289.847 85.1353C291.971 84.801 301.094 92.7638 302.155 94.9659C292.836 107.982 276.458 125.087 268.869 131.005C266.424 132.64 263.602 133.621 260.67 133.856Z" fill="url(#paint1_linear_214_247)"/>
<path d="M181.14 59.1429C181.116 59.0138 181.066 58.8908 180.994 58.7809C180.922 58.6711 180.829 58.5765 180.72 58.5025C180.612 58.4286 180.49 58.3768 180.361 58.35C180.232 58.3233 180.1 58.3221 179.971 58.3467C179.841 58.3712 179.718 58.4209 179.609 58.493C179.499 58.565 179.404 58.658 179.33 58.7667C179.256 58.8753 179.204 58.9974 179.178 59.1261C179.151 59.2547 179.15 59.3874 179.174 59.5165C179.568 61.4826 179.646 61.9348 180.511 61.9348C180.675 61.9354 180.836 61.8952 180.98 61.8178C181.124 61.7404 181.246 61.6283 181.336 61.4916C181.426 61.355 181.48 61.1981 181.494 61.0352C181.508 60.8722 181.481 60.7084 181.416 60.5585C181.357 60.244 181.18 59.3199 181.14 59.1429ZM187.157 72.1586C188.435 72.5322 189.654 71.9227 189.614 71.6081C189.575 71.2936 189.614 71.4508 187.884 70.802C186.724 70.3695 185.446 68.8359 184.994 69.0718C184.542 69.3078 185.23 70.5661 185.387 70.802C185.808 71.4402 186.431 71.9181 187.157 72.1586ZM223.117 53.4805C220.541 64.2745 218.654 73.4366 218.339 75.2651C218.131 76.0607 218.09 76.8911 218.221 77.7031C219.263 79.9248 232.731 84.3093 234.442 83.4442C236.152 82.5791 240.596 72.5715 245.767 62.2494C248.934 62.3506 252.104 62.12 255.224 61.5613C258.509 60.9586 261.705 59.9481 264.74 58.5531C271.385 55.486 278.66 42.3523 279.643 35.7461C280.38 28.5738 278.861 21.3502 275.298 15.0822C258.802 -13.5248 210.416 1.86987 214.348 33.6424C215.471 40.9125 218.496 47.7565 223.117 53.4805ZM235.11 76.897C235.11 77.2116 234.757 77.1722 233.144 76.897C229.847 76.4826 226.654 75.4628 223.727 73.8888C222.35 73.1417 221.977 72.9844 222.114 72.6502C222.252 72.3159 222.547 72.4339 224.67 73.0237C224.867 73.0237 230.962 74.9899 232.712 75.5994C234.973 76.6217 235.11 76.6217 235.11 76.897ZM234.757 44.9082C236.856 45.0171 238.948 44.5838 240.832 43.6499C242.583 44.498 244.476 45.0115 246.416 45.1638C243.113 51.3178 236.408 63.8616 234.245 70.5464L225.909 68.2461C227.875 63.4094 232.22 52.0846 234.717 44.9082H234.757ZM234.068 43.2763C232.601 43.0546 231.246 42.3576 230.213 41.2921C229.179 40.2267 228.524 38.8517 228.347 37.378C227.796 33.4458 230.313 29.0416 234.108 30.0837C236.487 30.7325 236.782 32.62 236.369 34.999C236.015 36.7292 234.737 41.0743 234.029 43.1977L234.068 43.2763ZM239.416 38.5577C239.626 37.2711 240.109 36.0444 240.832 34.9597C241.176 34.3684 241.679 33.8854 242.283 33.5657C242.888 33.2459 243.571 33.1022 244.253 33.1508C245.708 33.5834 246.337 36.3359 245.138 38.0661C243.985 39.5957 242.55 40.8905 240.91 41.8804C240.346 41.5493 239.897 41.0534 239.623 40.4595C239.349 39.8655 239.263 39.2018 239.377 38.5577H239.416ZM221.348 13.5683C230.156 2.9709 246.73 -1.2366 258.704 3.12818C265.208 5.36099 270.68 9.88193 274.099 15.849C277.488 21.8133 278.938 28.6847 278.247 35.5102C277.343 41.6248 270.383 54.3259 264.268 57.1375C258.677 59.6876 252.578 60.925 246.435 60.7551C245.767 60.7551 245.059 60.7551 244.803 61.227C243.643 63.5864 241.52 68.1478 239.436 72.4339C237.997 71.739 236.504 71.1604 234.973 70.7037C237.253 64.1762 244.449 51.3571 247.871 45.1442C250.835 45.3981 253.814 44.8835 256.521 43.6499C257.253 43.2649 257.859 42.6792 258.27 41.9617C258.68 41.2441 258.877 40.4244 258.838 39.5988C258.799 38.7731 258.525 37.9758 258.048 37.3004C257.572 36.6249 256.913 36.0994 256.148 35.7854C253.1 34.2912 250.367 37.8695 248.775 40.8777C248.342 41.6641 247.851 42.5882 247.3 43.6302C245.71 43.5257 244.142 43.2015 242.641 42.6668C244.136 41.616 245.462 40.3431 246.573 38.8919C247.195 37.9518 247.511 36.8418 247.476 35.7148C247.44 34.5879 247.056 33.4997 246.376 32.6003C245.842 31.98 245.1 31.5759 244.289 31.4636C243.479 31.3514 242.655 31.5389 241.972 31.9908C240.595 32.8369 239.492 34.0624 238.794 35.5202C238.097 36.978 237.835 38.6062 238.04 40.2092C238.254 41.1141 238.741 41.931 239.436 42.5489C238.146 43.083 236.762 43.3505 235.366 43.3353C236.152 41.0153 237.43 36.8275 237.765 35.117C237.974 34.1417 238.021 33.1385 237.902 32.1481C237.75 31.2979 237.356 30.5097 236.766 29.8784C236.177 29.247 235.417 28.7994 234.58 28.5894C229.802 27.2328 226.283 32.5217 226.971 37.4566C227.165 39.2251 227.924 40.8839 229.135 42.1872C230.346 43.4904 231.945 44.3687 233.695 44.692C231.178 51.77 227.246 63.1931 225.28 68.0691L220.954 66.9484C223.727 53.0283 224.061 53.3625 223.668 53.1856C219.2 47.4898 216.342 40.7003 215.39 33.5244C214.927 29.9662 215.218 26.3503 216.244 22.9121C217.271 19.4738 219.009 16.2901 221.348 13.5683ZM248.637 43.7482C250.014 41.2512 252.766 35.7854 255.44 37.1224C255.975 37.3379 256.441 37.6953 256.787 38.1562C257.134 38.617 257.348 39.1637 257.406 39.7373C257.367 43.1977 251.98 43.8072 248.559 43.7482H248.637ZM323.9 52.4188C326.27 51.0254 329.068 50.5497 331.765 51.0818C334.727 51.1348 337.557 52.3193 339.674 54.3921C341.79 56.465 343.034 59.2693 343.149 62.2297C341.367 61.1962 339.285 60.8074 337.25 61.1287C332.315 61.5613 325.867 64.2352 326.732 68.9932C327.439 72.9254 332.63 72.3946 336.562 71.3329C340.494 70.2712 343.621 68.3444 344.427 64.5498C349.204 68.0298 350.325 74.1248 350.522 80.0821C350.522 80.1655 350.555 80.2456 350.614 80.3046C350.673 80.3635 350.753 80.3967 350.836 80.3967C350.92 80.3967 351 80.3635 351.059 80.3046C351.118 80.2456 351.151 80.1655 351.151 80.0821C351.288 73.417 350.089 66.8894 344.643 63.0948C344.699 61.3878 344.408 59.6872 343.788 58.0959C343.167 56.5046 342.23 55.0557 341.034 53.837C339.837 52.6184 338.406 51.6552 336.826 51.0059C335.246 50.3566 333.551 50.0346 331.844 50.0595C329.114 49.6609 326.331 50.2314 323.979 51.6717C323.252 52.0256 323.586 52.5564 323.9 52.4188ZM341.831 66.5159C339.61 69.4257 333.318 70.9397 330.408 70.4481C329.327 70.2712 328.442 69.819 328.206 68.6983C327.498 64.766 334.281 62.623 338.332 62.4853C339.981 62.3589 341.626 62.7805 343.011 63.6847C342.862 64.7126 342.457 65.6864 341.831 66.5159ZM314.896 29.4349C316.999 26.8396 315.584 22.3175 309.705 22.2979C307.424 22.2979 306.323 24.6179 306.481 26.8396C306.834 32.1284 312.792 31.9712 314.896 29.4349ZM307.857 26.7413C307.857 25.4436 308.466 23.7528 309.823 23.7724C312.988 23.7724 314.443 25.247 314.443 26.8789C314.365 30.5949 307.601 32.5217 307.857 26.7413ZM307.051 249.64C289.769 242.739 281.747 276.144 267.63 304.849C267.541 306.056 267.58 307.268 267.748 308.467C267.748 311.475 268.082 331.392 269.832 333.653C270.304 334.557 272.29 333.653 273.214 333.082C281.062 328.224 288.458 322.67 295.313 316.488C295.371 316.422 295.416 316.343 295.443 316.259C295.47 316.174 295.479 316.085 295.47 315.997C299.127 310.787 312.831 283.654 316.154 270.049C318.474 260.415 316.174 253.238 307.051 249.64ZM313.224 274.61C303.972 273.424 295.027 270.503 286.859 265.998C291.459 257.288 297.142 247.36 306.52 251.095C316.96 255.244 316.744 263.836 313.224 274.551V274.61ZM280.508 325.729C279.904 325.223 279.245 324.788 278.542 324.431C275.885 323.081 272.815 322.786 269.95 323.606C269.753 321.266 268.633 306.048 268.633 305.911C283.359 311.298 278.817 308.958 293.406 316.213C291.872 317.668 286.112 321.699 280.508 325.69V325.729ZM290.653 268.83C292.571 269.877 294.539 270.829 296.552 271.68C292.045 278.759 288.063 286.159 284.637 293.819C281.334 300.72 281.452 300.681 278.09 308.211C276.124 307.582 274.158 306.992 272.191 306.402C274.315 302.175 289.415 271.268 290.653 268.79V268.83ZM278.857 308.408C285.246 296.945 291.754 282.691 297.338 271.936C299.304 272.762 301.27 273.43 303.236 274.02C302.194 275.986 299.147 281.216 298.341 282.73C297.535 284.244 289.454 300.17 288.884 301.389C287.979 303.355 285.502 308.84 284.735 310.59C282.73 309.705 280.803 309.037 278.778 308.368L278.857 308.408ZM285.443 310.846C286.642 308.663 291.577 299.501 292.187 298.321C293.111 296.493 303.413 275.436 303.984 274.217C305.792 274.728 307.7 275.16 308.919 275.396C305.321 285.227 294.959 304.161 291.223 313.5C287.822 311.907 287.055 311.514 285.364 310.806L285.443 310.846ZM286.642 266.569L290.162 268.535C283.069 280.613 276.892 293.205 271.68 306.206L268.731 305.301C280.154 280.961 280.685 277.775 286.564 266.529L286.642 266.569ZM294.743 315.21L291.774 313.795C294.979 307.503 305.006 291.361 309.587 275.534C310.688 275.731 311.769 275.908 312.811 276.045C307.759 289.527 301.693 302.606 294.664 315.171L294.743 315.21ZM233.144 327.97C233.928 327.322 234.488 326.443 234.746 325.459C235.003 324.475 234.945 323.434 234.58 322.485C234.413 321.115 233.785 319.843 232.798 318.877C231.812 317.912 230.526 317.311 229.153 317.174C227.78 317.037 226.401 317.371 225.243 318.122C224.085 318.873 223.218 319.996 222.783 321.305C220.266 319.673 217.533 317.943 214.918 316.292C216.884 313.677 222.665 314.837 223.255 316.98C223.268 317.063 223.313 317.138 223.382 317.188C223.45 317.238 223.535 317.258 223.618 317.245C223.702 317.232 223.777 317.187 223.826 317.118C223.876 317.05 223.897 316.965 223.884 316.882C223.589 313.46 216.472 311.455 213.601 315.486C211.065 313.932 207.919 312.045 205.284 310.61C207.545 308.643 212.598 309.745 213.149 311.789C213.175 311.859 213.225 311.918 213.29 311.954C213.355 311.991 213.43 312.003 213.504 311.989C213.577 311.975 213.643 311.935 213.689 311.877C213.736 311.819 213.76 311.746 213.758 311.671C213.503 308.486 206.916 306.343 203.928 309.843C202.676 309.141 201.359 308.562 199.995 308.113C199.746 308.009 199.473 307.98 199.208 308.029C198.942 308.078 198.697 308.203 198.501 308.388C193.527 314.581 176.756 330.664 169.009 332.532C168.815 332.561 168.631 332.641 168.477 332.764C168.323 332.887 168.204 333.048 168.133 333.232C168.061 333.415 168.039 333.614 168.068 333.809C168.098 334.004 168.179 334.187 168.302 334.341C170.003 336.067 171.951 337.532 174.082 338.686C172.116 340.652 170.582 342.421 169.442 343.699C168.852 344.329 168.538 356.361 169.049 359.016C169.125 359.275 169.293 359.499 169.521 359.645C171.998 361.336 203.908 375.138 207.172 373.29C209.354 372.051 235.405 344.938 235.818 344.112C236.447 342.815 236.231 334.164 236.192 330.703C236.034 329.661 234.088 328.541 233.144 327.97ZM170.228 353.943V349.558C178.388 353.491 197.066 361.512 204.144 363.754C205.953 364.344 206.11 364.265 207.054 363.754C212.461 360.293 231.552 338.784 235.051 335.501V339.649C224.434 350.286 206.405 368.925 206.071 367.863C204.124 367.745 171.919 354.729 170.228 353.943ZM232.653 321.345C233.36 322.536 233.739 323.892 233.754 325.277C233.747 325.717 233.639 326.151 233.438 326.543C233.236 326.935 232.948 327.275 232.594 327.538C230.942 326.437 227.816 324.392 224.12 321.993C226.145 318.002 230.647 317.943 232.574 321.345H232.653ZM169.737 333.928C178.113 331.45 194.018 316.115 199.366 309.469C200.653 309.827 201.894 310.336 203.063 310.983C201.097 314.64 203.2 318.651 203.947 318.081C204.36 317.766 203.613 317.648 203.495 315.722C203.445 314.314 203.764 312.918 204.419 311.671C207.133 313.087 210.318 314.935 213.011 316.488C211.36 320.165 213.345 323.802 214.034 323.271C214.722 322.741 213.719 322.859 213.601 320.932C213.553 319.668 213.795 318.411 214.309 317.255C217.081 318.887 219.912 320.578 222.508 322.17C222.108 323.15 221.949 324.212 222.045 325.265C222.14 326.319 222.488 327.335 223.058 328.226C223.084 328.26 223.116 328.288 223.153 328.309C223.189 328.33 223.23 328.344 223.272 328.349C223.314 328.355 223.357 328.352 223.398 328.341C223.438 328.33 223.477 328.311 223.51 328.285C223.544 328.259 223.572 328.227 223.593 328.19C223.614 328.154 223.628 328.113 223.633 328.071C223.639 328.029 223.636 327.987 223.625 327.946C223.614 327.905 223.595 327.866 223.569 327.833C223.216 327.052 223.041 326.202 223.058 325.344C223.075 324.487 223.284 323.645 223.668 322.878C228.249 325.67 231.945 328.01 233.085 328.777C232.869 328.973 212.362 347.219 205.383 352.645C200.802 351.446 176.756 339.512 169.737 333.928ZM170.484 344.879C179.391 348.811 199.622 357.934 204.282 358.819C205.088 358.976 205.402 359.035 206.936 357.816C213.483 352.567 234.776 330.29 234.973 330.526C234.982 330.585 234.982 330.645 234.973 330.703V334.636C230.588 338.155 206.208 363.754 205.815 362.535C203.849 362.535 171.9 349.499 170.268 348.772C170.228 347.946 170.405 345.744 170.484 344.879ZM206.287 371.972C204.321 373.093 174.377 360.923 170.366 358.445C170.215 357.193 170.143 355.932 170.15 354.67C178.761 358.917 203.81 369.495 206.11 369.397C209.472 369.22 233.243 342.461 234.933 340.593C234.953 341.597 234.854 342.6 234.639 343.581C234.304 344.23 207.585 371.245 206.287 371.972ZM43.394 261.142C43.5316 263.246 43.63 265.074 43.63 266.785C43.63 267.046 43.7335 267.296 43.9179 267.48C44.1022 267.664 44.3523 267.768 44.613 267.768C44.8737 267.768 45.1238 267.664 45.3081 267.48C45.4925 267.296 45.5961 267.046 45.5961 266.785C45.5961 264.956 45.4978 263.147 45.3601 261.004C45.3419 260.744 45.2208 260.501 45.0235 260.329C44.8263 260.158 44.569 260.072 44.3083 260.09C44.0475 260.108 43.8047 260.229 43.6333 260.427C43.4618 260.624 43.3758 260.881 43.394 261.142ZM342.972 221.721C342.843 221.729 342.718 221.762 342.602 221.819C342.487 221.875 342.384 221.955 342.3 222.052C342.216 222.149 342.152 222.262 342.112 222.384C342.072 222.506 342.057 222.635 342.067 222.763C342.185 224.572 342.303 226.519 342.303 228.406C342.303 228.667 342.407 228.917 342.591 229.101C342.776 229.286 343.026 229.389 343.286 229.389C343.547 229.389 343.797 229.286 343.981 229.101C344.166 228.917 344.269 228.667 344.269 228.406C344.269 226.44 344.151 224.474 344.014 222.626C344.006 222.497 343.973 222.372 343.917 222.256C343.86 222.141 343.781 222.038 343.683 221.954C343.586 221.87 343.473 221.806 343.351 221.766C343.229 221.726 343.1 221.711 342.972 221.721ZM38.3018 256.246C38.5625 256.246 38.8125 256.143 38.9969 255.958C39.1813 255.774 39.2848 255.524 39.2848 255.263C39.2848 255.003 39.1813 254.753 38.9969 254.568C38.8125 254.384 38.5625 254.28 38.3018 254.28C35.9228 254.28 33.937 254.457 31.9709 254.418C31.7083 254.418 31.4562 254.521 31.2687 254.705C31.0812 254.888 30.9733 255.138 30.9681 255.401C30.9681 255.662 31.0717 255.912 31.2561 256.096C31.4404 256.28 31.6905 256.384 31.9512 256.384C33.9763 256.423 36.198 256.345 38.3018 256.246ZM336.877 215.902C334.517 215.902 332.532 216.039 330.546 216.059C330.285 216.059 330.035 216.163 329.851 216.347C329.666 216.531 329.563 216.781 329.563 217.042C329.563 217.303 329.666 217.553 329.851 217.737C330.035 217.921 330.285 218.025 330.546 218.025C332.669 218.025 334.871 218.025 336.995 217.868C337.255 217.852 337.499 217.734 337.673 217.538C337.846 217.343 337.934 217.086 337.919 216.826C337.903 216.565 337.785 216.321 337.589 216.148C337.394 215.975 337.137 215.886 336.877 215.902ZM42.8632 244.096C42.9811 245.905 43.0991 247.851 43.0991 249.739C43.1041 249.998 43.2093 250.245 43.3926 250.428C43.5759 250.611 43.823 250.717 44.0822 250.722C44.3429 250.722 44.5929 250.618 44.7773 250.434C44.9616 250.249 45.0652 249.999 45.0652 249.739C45.0652 247.772 44.9472 245.806 44.8293 243.958C44.811 243.697 44.69 243.455 44.4927 243.283C44.2954 243.112 44.0381 243.026 43.7774 243.044C43.5167 243.062 43.2739 243.183 43.1024 243.381C42.931 243.578 42.8449 243.835 42.8632 244.096ZM343.739 211.36C343.739 209.394 343.621 207.428 343.483 205.58C343.465 205.319 343.344 205.076 343.146 204.905C342.949 204.733 342.692 204.647 342.431 204.665C342.17 204.684 341.928 204.805 341.756 205.002C341.585 205.199 341.499 205.456 341.517 205.717C341.635 207.526 341.753 209.472 341.753 211.36C341.753 211.621 341.856 211.871 342.041 212.055C342.225 212.239 342.475 212.343 342.736 212.343C342.998 212.343 343.25 212.24 343.438 212.056C343.625 211.872 343.733 211.622 343.739 211.36ZM57.3731 255.991C57.5023 255.986 57.6291 255.955 57.7465 255.901C57.8638 255.847 57.9693 255.77 58.057 255.675C58.1446 255.58 58.2127 255.469 58.2573 255.348C58.3019 255.226 58.3221 255.098 58.3169 254.968C58.297 254.711 58.1806 254.471 57.991 254.296C57.8013 254.121 57.5525 254.024 57.2945 254.025C54.9155 254.123 52.9297 254.202 50.9439 254.162C50.6832 254.162 50.4332 254.266 50.2488 254.45C50.0644 254.635 49.9609 254.885 49.9609 255.145C49.9609 255.406 50.0644 255.656 50.2488 255.841C50.4332 256.025 50.6832 256.128 50.9439 256.128C53.0477 256.168 55.2497 256.089 57.3731 255.991ZM355.948 215.646C353.982 215.744 351.8 215.803 349.617 215.803C349.487 215.798 349.358 215.819 349.236 215.865C349.115 215.911 349.004 215.981 348.91 216.071C348.817 216.161 348.742 216.269 348.691 216.389C348.641 216.508 348.614 216.637 348.615 216.767C348.614 217.029 348.717 217.281 348.901 217.469C349.085 217.656 349.335 217.764 349.598 217.769C351.839 217.769 353.648 217.769 356.027 217.612C356.156 217.607 356.283 217.577 356.4 217.523C356.517 217.468 356.623 217.392 356.711 217.297C356.798 217.202 356.866 217.09 356.911 216.969C356.956 216.848 356.976 216.719 356.971 216.59C356.946 216.334 356.829 216.096 356.64 215.922C356.451 215.748 356.205 215.65 355.948 215.646ZM12.1917 197.735C12.4473 197.931 67.8919 189.713 70.2709 188.258C70.4026 188.162 70.5078 188.034 70.5766 187.886C70.6454 187.738 70.6755 187.575 70.6641 187.413C70.6641 184.876 67.3414 161.067 65.7488 155.129C65.5522 154.401 65.3556 153.674 64.9034 153.418C61.8952 151.61 8.8886 161.597 5.72315 163.642C5.63736 163.693 5.56324 163.761 5.50564 163.842C5.44805 163.924 5.40827 164.016 5.38891 164.114C4.72043 166.493 10.4812 196.555 12.1917 197.735ZM6.58824 164.586C10.3632 162.875 58.4742 154.067 63.9793 154.755C65.3163 158.196 68.8946 183.402 69.1305 187.098C66.3976 187.904 12.9388 197.086 12.7422 197.125C12.5456 197.165 12.5259 197.4 12.113 196.162C10.3829 190.971 6.48994 169.029 6.58824 164.586Z" fill="url(#paint2_linear_214_247)"/>
<path d="M74.5964 190.008C74.7034 189.81 74.7511 189.584 74.734 189.359C74.734 186.233 70.2512 151.531 68.6587 148.759C68.5338 148.555 68.3571 148.387 68.1465 148.273C67.9358 148.159 67.6987 148.103 67.4594 148.11C60.8728 147.304 5.31029 158.157 1.65331 160.693C1.14212 161.047 1.22076 161.932 1.27974 162.876C1.59432 168.047 7.1781 202.061 9.14423 201.864C9.3605 201.864 9.28185 201.707 8.77066 202.749C5.70352 209.06 -0.116201 229.272 0.0017664 233.342C0.0017664 235.052 0.394989 237.274 2.08585 237.156C14.2168 235.662 73.6919 226.224 90.7972 222.705C91.4657 222.567 91.8982 221.958 91.8786 220.955C91.6767 219.285 91.1703 217.665 90.3843 216.177C87.9856 211.675 78.0371 193.842 74.5964 190.008ZM9.26219 201.255C7.72862 199.288 2.08585 165.412 2.5184 161.657C6.84386 159.415 61.6593 148.818 67.4004 149.683C68.9733 154.009 73.0431 185.25 73.2987 189.006C66.3387 191.404 18.1491 199.19 9.26219 201.255ZM10.1273 201.844C11.7788 201.431 68.0295 192.014 73.1808 190.657C75.9923 193.272 88.6935 215.863 89.5192 217.79C78.2337 219.756 11.2873 230.943 1.43703 232.437C1.57466 226.48 7.6893 205.659 10.1273 201.844Z" fill="url(#paint3_linear_214_247)"/>
<path d="M17.5201 222.233C19.2306 221.977 55.5252 217.613 68.6392 214.054C68.72 214.033 68.7893 213.981 68.8317 213.909C68.8741 213.837 68.8862 213.751 68.8653 213.671C68.8445 213.59 68.7924 213.52 68.7205 213.478C68.6486 213.436 68.5628 213.424 68.4819 213.444C65.9063 213.975 34.4877 218.163 17.4808 221.623C17.4338 221.615 17.3855 221.617 17.3396 221.63C17.2936 221.643 17.2512 221.667 17.2156 221.698C17.18 221.73 17.1521 221.77 17.134 221.814C17.1159 221.858 17.1081 221.906 17.1111 221.953C17.1142 222.001 17.1281 222.047 17.1517 222.089C17.1753 222.13 17.2081 222.166 17.2475 222.193C17.2869 222.22 17.3319 222.237 17.3792 222.244C17.4264 222.251 17.4746 222.247 17.5201 222.233ZM44.043 85.4304C43.3086 87.0892 42.691 88.7973 42.1949 90.5423C42.1656 90.8223 42.2429 91.1031 42.4112 91.3287C44.3969 94.3172 64.7463 117.262 70.0548 120.486C70.7823 120.938 71.6474 121.253 72.1782 120.604C76.0345 115.806 81.0671 112.087 86.7865 109.81C91.4416 108.163 96.3221 107.242 101.257 107.077C105.189 106.723 105.878 106.33 107.391 103.755C109.177 100.365 111.547 97.3168 114.391 94.7498C118.017 91.5789 122.043 88.8953 126.365 86.7673C126.559 86.6571 126.711 86.485 126.797 86.2784C126.882 86.0717 126.896 85.8425 126.836 85.627C126.172 83.9357 125.293 82.3367 124.221 80.869C124.929 80.633 125.716 80.4168 125.716 79.709C125.716 77.7428 108.571 52.9304 103.813 48.251C103.322 47.7595 102.614 47.1107 101.965 47.15C92.1344 47.7005 82.5593 56.9806 77.0149 65.081C70.6643 64.8451 66.5551 64.2749 59.3198 67.3224C54.212 69.4906 49.6069 72.69 45.7929 76.7205C45.2031 77.33 41.1922 81.5768 41.1332 81.911C41.0742 82.2453 41.1922 82.2453 44.043 85.4304ZM122.688 84.8799C114.489 86.2758 109.259 93.0982 105.406 100.511C103.695 103.814 103.852 103.971 102.044 103.932C98.8806 103.752 95.7077 103.871 92.5669 104.285C90.2632 104.63 87.9982 105.196 85.8035 105.976C80.8095 107.746 75.0881 113.408 72.0406 117.616C71.9759 117.702 71.8936 117.774 71.7991 117.827C71.7046 117.879 71.6001 117.911 71.4925 117.92C71.3848 117.93 71.2764 117.916 71.1743 117.881C71.0722 117.845 70.9788 117.788 70.9003 117.714C64.5104 111.128 53.2052 99.5668 47.5231 92.9213C47.2478 92.6264 47.7197 92.1938 47.995 92.5084C51.6716 96.4407 61.168 105.858 71.3525 116.102C74.7932 111.717 80.1017 106.409 85.3512 104.561C88.2139 103.54 91.1925 102.879 94.2184 102.595C97.0521 102.379 99.898 102.379 102.732 102.595C103.892 101.258 109.633 86.0792 122.649 84.3883C122.687 84.4163 122.718 84.4525 122.74 84.4942C122.762 84.5359 122.775 84.5821 122.777 84.6294C122.779 84.6766 122.77 84.7236 122.751 84.767C122.732 84.8104 122.704 84.8489 122.668 84.8799H122.688ZM101.945 48.7426C105.878 51.4951 121.882 75.1869 123.966 79.3354C120.35 80.4812 116.858 81.9897 113.545 83.8378C110.408 85.4105 107.661 87.6632 105.505 90.4318C103.349 93.2005 101.837 96.4153 101.08 99.842C94.0218 88.3599 84.1716 75.7177 77.6244 66.418C78.0176 66.1624 89.0672 49.5094 101.945 48.7426ZM59.7524 68.4038C66.9287 65.5136 70.9003 66.1821 76.8379 66.4377C82.7363 76.5042 93.3337 90.6996 100.313 99.9993C93.8713 98.4749 87.0924 99.4073 81.301 102.614C77.821 104.58 73.5742 109.299 70.9592 112.229C67.1843 109.201 45.3997 86.0005 41.9 82.0683C47.2871 75.9733 52.2614 71.3923 59.7524 68.3251V68.4038ZM23.7724 118.402C23.2864 118.061 22.7119 117.869 22.1186 117.848C21.5253 117.827 20.9387 117.978 20.4299 118.284C20.0594 118.449 19.7251 118.686 19.446 118.981C19.167 119.275 18.9486 119.622 18.8035 120C18.6583 120.379 18.5892 120.783 18.6001 121.188C18.611 121.594 18.7016 121.993 18.8669 122.364C19.0321 122.734 19.2687 123.069 19.5632 123.348C19.8576 123.627 20.2042 123.845 20.583 123.99C20.9618 124.136 21.3656 124.205 21.7711 124.194C22.1766 124.183 22.5761 124.092 22.9466 123.927C23.5385 123.798 24.077 123.491 24.4909 123.049C24.9047 122.606 25.1743 122.048 25.2639 121.449C25.3534 120.85 25.2588 120.238 24.9924 119.694C24.726 119.149 24.3005 118.699 23.7724 118.402ZM22.4747 122.334C21.0984 122.767 20.2727 122.334 19.9384 121.666C19.3093 120.27 20.0957 118.127 22.1405 118.756C23.5757 119.287 24.7358 121.705 22.4747 122.433V122.334ZM123.75 28.4326C124.32 29.5926 126.974 29.16 128.134 28.7865C128.744 28.5899 129.137 28.3736 129.196 27.7837C129.373 26.3092 129.569 13.5294 128.901 12.2907C128.832 12.1608 128.726 12.0542 128.596 11.9843C128.467 11.9143 128.32 11.8841 128.173 11.8975C126.076 11.8917 123.989 12.1965 121.98 12.8019C121.174 13.2934 123.042 27.1349 123.75 28.4326ZM122.393 13.2738C124.209 13.014 126.046 12.9284 127.878 13.0182C127.996 14.4731 127.682 27.0759 127.662 27.2726C126.831 27.5702 125.945 27.6777 125.067 27.5871C124.929 27.1349 124.693 25.9159 124.398 24.3824C123.532 20.718 122.863 17.0098 122.393 13.2738ZM21.8652 101.808C22.0539 101.905 22.2628 101.955 22.4747 101.955C22.6867 101.955 22.8956 101.905 23.0842 101.808C23.8438 101.34 24.4462 100.655 24.8144 99.842C24.8644 99.7119 24.8798 99.5711 24.8591 99.4333C24.8385 99.2954 24.7824 99.1653 24.6964 99.0556C23.7527 97.9349 13.4502 86.0005 12.1919 86.7477C10.647 87.7478 9.18115 88.8653 7.80745 90.0901C7.75209 90.1396 7.70773 90.2002 7.67725 90.2679C7.64677 90.3356 7.63085 90.409 7.6305 90.4833C7.59118 91.5057 19.034 100.668 21.8652 101.808ZM12.4278 87.2589C13.8631 88.3009 18.6998 94.2779 23.1825 99.5668C22.9897 99.8704 22.7509 100.142 22.4747 100.373C17.7617 97.3564 13.2617 94.0192 9.00679 90.385C10.0734 89.2651 11.2165 88.2205 12.4278 87.2589ZM43.3156 43.8863C43.7481 36.2577 48.1916 32.7187 52.8316 31.8143C51.5143 36.6509 51.7306 42.9425 56.5083 43.7486C58.789 44.1222 59.9096 42.9425 61.5612 41.5662C68.6196 35.6679 62.9178 29.7695 54.955 30.1824C57.9239 22.0427 64.7856 15.4168 73.8888 15.2006C73.9722 15.2006 74.0522 15.1674 74.1112 15.1084C74.1702 15.0494 74.2033 14.9694 74.2033 14.886C74.2033 14.8026 74.1702 14.7226 74.1112 14.6636C74.0522 14.6046 73.9722 14.5714 73.8888 14.5714C64.0582 14.3748 56.3313 21.4528 53.2838 30.3004C48.0343 31.2048 42.8241 35.137 42.6864 43.7683C42.6787 43.8096 42.6791 43.852 42.6878 43.8932C42.6965 43.9343 42.7131 43.9733 42.7369 44.008C42.7606 44.0427 42.7909 44.0724 42.8261 44.0953C42.8613 44.1183 42.9007 44.1341 42.942 44.1419C42.9833 44.1496 43.0258 44.1491 43.0669 44.1405C43.108 44.1318 43.147 44.1152 43.1817 44.0914C43.2164 44.0677 43.2461 44.0374 43.2691 44.0022C43.292 43.967 43.3078 43.9276 43.3156 43.8863ZM54.5028 31.5784C57.4323 31.3817 61.7971 32.2862 62.9964 34.9404C63.6846 36.4543 62.9965 38.3221 60.5585 40.3669C59.8966 41.03 59.1415 41.593 58.3171 42.0381C55.3679 43.2964 52.1041 39.6591 54.5028 31.5784ZM60.1259 309.647C58.2264 309.138 56.2443 309.014 54.2962 309.283C52.3481 309.551 50.4735 310.207 48.7825 311.211C47.0916 312.215 45.6186 313.547 44.4501 315.129C43.2816 316.71 42.4413 318.51 41.9786 320.421C41.1052 324.392 41.845 328.547 44.0351 331.972C46.2253 335.398 49.6866 337.813 53.6574 338.686C57.6282 339.56 61.7834 338.82 65.2088 336.63C68.6342 334.44 71.0492 330.978 71.9226 327.008C72.2957 325.092 72.2861 323.122 71.8942 321.211C71.5023 319.299 70.736 317.484 69.6394 315.871C68.5427 314.257 67.1375 312.876 65.5047 311.808C63.872 310.74 62.0439 310.005 60.1259 309.647ZM66.2012 325.671C65.4123 328.817 63.5238 331.577 60.877 333.452C58.2302 335.327 54.9998 336.194 51.7699 335.894C48.805 334.736 46.3436 332.569 44.8188 329.775C43.294 326.98 42.8035 323.738 43.4336 320.618C44.1692 317.395 46.0403 314.545 48.7045 312.588C51.3688 310.631 54.6483 309.699 57.9435 309.961C60.9377 311.198 63.3996 313.452 64.8957 316.325C66.3918 319.199 66.8262 322.508 66.1226 325.671H66.2012Z" fill="url(#paint4_linear_214_247)"/>
<path d="M86.3144 315.25C84.6028 314.659 82.7684 314.517 80.9862 314.837C80.2476 313.143 79.3385 311.529 78.273 310.02C79.551 308.86 83.0507 305.635 82.2052 304.121C79.1964 300.522 75.6242 297.435 71.6275 294.979C69.9586 294.044 68.1209 293.449 66.2207 293.229C64.9624 293.406 61.9739 298.302 61.3054 299.403C60.8728 299.403 59.3393 298.911 59.2213 298.852C59.2213 297.437 58.8084 292.325 57.5304 291.735C56.1013 291.209 54.6173 290.846 53.1067 290.653C51.7107 290.437 39.1472 292.738 38.2231 294.428C37.6136 295.569 39.0292 299.875 39.4421 301.074C38.3817 301.658 37.3634 302.315 36.3946 303.04C34.4285 304.436 34.9594 304.377 34.6055 304.22C34.1777 304.016 33.7195 303.883 33.2488 303.826C31.6782 302.906 29.8368 302.558 28.0386 302.843C26.2298 303.433 21.9633 313.146 21.2752 315.643C21.05 316.273 20.9891 316.949 21.0982 317.609C21.5701 318.907 24.7159 319.949 26.0332 320.362C25.6694 322.891 25.6694 325.46 26.0332 327.99C24.303 328.462 20.705 329.524 20.9016 331.293C21.0982 333.063 25.6989 344.741 27.6061 345.666C28.6508 346.25 29.8061 346.609 30.9979 346.721C32.1897 346.833 33.3917 346.694 34.5268 346.314C35.1661 345.995 35.7835 345.634 36.375 345.233C37.1614 345.823 37.9872 346.354 38.8326 346.865C38.2231 348.379 36.8665 351.76 37.299 353.294C37.5153 354.1 38.1641 354.356 39.0686 354.69C41.5655 355.594 55.0138 358.819 57.0586 358.465C57.8253 358.347 58.2382 357.541 58.4742 356.774C58.911 355.029 59.1679 353.243 59.2409 351.446C60.2507 351.346 61.2547 351.195 62.2491 350.994C62.8564 352.062 63.6333 353.025 64.5495 353.845C65.5522 354.552 66.3976 354.198 67.538 353.471C68.0885 354.179 68.9143 355.162 69.799 355.26C72.0207 355.516 81.2025 346.865 82.1462 345.095C82.9327 343.621 80.0622 340.986 78.7842 339.826C80.1667 337.746 81.252 335.483 82.0086 333.102C83.4267 333.316 84.8618 333.395 86.2948 333.338C86.9436 333.338 87.6907 333.102 87.966 332.493C89.1653 329.76 88.8114 319.398 87.966 316.764C87.848 315.997 86.9632 315.486 86.3144 315.25ZM86.7863 317.058C87.4548 319.614 87.671 329.268 86.688 331.765C84.9881 331.933 83.2729 331.853 81.5957 331.529C81.4167 331.499 81.2326 331.536 81.0798 331.634C80.927 331.733 80.8165 331.884 80.77 332.06C79.987 334.718 78.7714 337.229 77.172 339.492C77.058 339.642 77.0067 339.83 77.0287 340.017C77.0507 340.204 77.1443 340.375 77.2899 340.495C78.6694 341.588 79.8414 342.92 80.7503 344.427C79.7672 346.039 72.0797 353.078 69.9563 353.668C69.6417 353.668 68.7766 352.488 68.5604 352.173C67.8341 351.082 67.1774 349.946 66.5942 348.772C66.5091 348.601 66.3631 348.468 66.1849 348.399C66.0067 348.329 65.8091 348.329 65.6308 348.398C59.9291 350.542 57.7664 349.283 57.7664 350.699C57.7689 352.818 57.4235 354.924 56.744 356.931C52.1235 356.429 47.5734 355.413 43.1777 353.904C43.39 351.805 43.976 349.76 44.9079 347.868C45.4978 346.55 43.1384 346.924 38.7343 342.441C38.5926 342.31 38.4065 342.237 38.2133 342.237C38.0201 342.237 37.834 342.31 37.6923 342.441C35.7262 344.053 33.1702 345.626 32.659 345.371C31.6563 344.879 27.0359 334.4 26.7606 332.276C28.1591 331.302 29.7466 330.632 31.4203 330.31C31.5988 330.26 31.753 330.146 31.8542 329.991C31.9555 329.835 31.9969 329.648 31.9709 329.465C31.489 326.68 31.489 323.834 31.9709 321.05C32.0009 320.878 31.9649 320.702 31.87 320.556C31.7752 320.41 31.6285 320.305 31.4597 320.263C29.9775 319.875 28.5505 319.3 27.2128 318.553C26.7803 318.238 26.8196 318.258 26.8589 317.924C28.1315 313.334 30.1724 308.993 32.8949 305.085C33.9566 304.79 36.8272 306.894 37.8102 307.641C37.913 307.74 38.0505 307.796 38.1936 307.796C38.3368 307.796 38.4743 307.74 38.577 307.641C39.4804 306.704 40.4531 305.836 41.4869 305.045C44.4754 302.784 45.2815 303.079 45.0259 302.293C44.1221 300.32 43.6144 298.189 43.5316 296.021C43.8364 295.768 44.1821 295.568 44.554 295.431C46.3896 294.705 48.2755 294.114 50.1968 293.662C52.5257 293.013 54.9193 292.624 57.3338 292.502C57.7467 292.679 58.1203 294.468 58.2186 295.018C58.946 298.951 58.4545 299.757 59.0247 299.816C64.6281 300.366 65.7685 301.919 66.1617 301.231C67.252 299.325 68.5226 297.527 69.9563 295.864C70.3692 295.451 70.3495 295.254 71.5882 295.962C75.2886 298.38 78.6028 301.343 81.4188 304.751C81.7137 305.262 79.1577 307.975 77.2899 309.568C76.6411 310.138 77.5652 310.393 79.2561 313.618C80.9469 316.842 80.5537 317.747 81.4581 317.55C83.2016 317.133 84.9959 316.967 86.7863 317.058ZM359.664 152.77C355.543 151.086 351.221 149.943 346.806 149.368C343.581 148.857 339.787 148.346 336.582 147.933C339.669 143.568 348.811 132.518 350.345 129.825C350.777 129.097 349.951 128.075 349.342 127.466C345.921 123.809 339.315 122.432 334.242 121.646C331.332 121.174 319.182 119.68 317.117 120.663C314.64 121.842 296.316 149.368 295.765 153.556C295.765 154.264 296.001 154.539 296.689 154.795C299.579 155.856 312.615 157.508 315.525 158.196C311.592 165.077 294.114 188.337 292.403 191.62C291.99 192.446 292.246 192.937 292.737 193.095C294.507 193.797 296.328 194.362 298.184 194.785C298.891 195.002 300.445 194.038 302.706 192.662C312.851 186.567 356.381 157.822 359.723 154.106C359.815 154.019 359.888 153.913 359.935 153.796C359.983 153.678 360.005 153.551 359.999 153.424C359.994 153.298 359.961 153.174 359.903 153.061C359.845 152.947 359.764 152.848 359.664 152.77ZM317.412 176.363C300.7 187.393 295.057 190.617 294.861 190.755C297.554 186.646 314.286 163.721 317.157 158.235C317.207 158.129 317.232 158.014 317.232 157.896C317.231 157.779 317.205 157.664 317.154 157.558C317.103 157.453 317.029 157.36 316.938 157.287C316.846 157.213 316.74 157.161 316.626 157.134C314.66 156.426 300.346 154.893 296.965 153.694C297.397 150.037 315.249 122.393 317.412 121.292C319.575 120.191 340.553 122.688 344.486 125.499C342.421 129.53 331.018 143.647 329.17 146.93C328.796 147.599 328.678 148.247 329.406 148.424C330.133 148.601 348.615 150.764 352.645 152.081C347.73 156.191 322.917 172.667 317.412 176.284V176.363ZM191.286 56.1544C191.286 56.3313 191.404 56.5476 191.698 57.6879C191.776 57.9353 191.946 58.1431 192.173 58.2677C192.401 58.3924 192.667 58.4241 192.917 58.3564C193.168 58.2834 193.379 58.114 193.504 57.8854C193.63 57.6568 193.659 57.3877 193.586 57.1374C193.389 56.3706 193.212 55.7218 193.094 55.4072C192.98 55.1913 192.789 55.0258 192.559 54.943C192.329 54.8602 192.077 54.866 191.851 54.9593C191.625 55.0526 191.442 55.2267 191.337 55.4477C191.233 55.6686 191.214 55.9206 191.286 56.1544Z" fill="url(#paint5_linear_214_247)"/>
<defs>
<linearGradient id="paint0_linear_214_247" x1="134.311" y1="252.511" x2="134.311" y2="302.743" gradientUnits="userSpaceOnUse">
<stop stop-color="#FF8660"/>
<stop offset="1" stop-color="#AD5AFF"/>
</linearGradient>
<linearGradient id="paint1_linear_214_247" x1="201.832" y1="31.906" x2="201.832" y2="354.77" gradientUnits="userSpaceOnUse">
<stop stop-color="#FF8660"/>
<stop offset="1" stop-color="#AD5AFF"/>
</linearGradient>
<linearGradient id="paint2_linear_214_247" x1="181.153" y1="0" x2="181.153" y2="373.459" gradientUnits="userSpaceOnUse">
<stop stop-color="#FF8660"/>
<stop offset="1" stop-color="#AD5AFF"/>
</linearGradient>
<linearGradient id="paint3_linear_214_247" x1="45.9396" y1="148.068" x2="45.9396" y2="237.16" gradientUnits="userSpaceOnUse">
<stop stop-color="#FF8660"/>
<stop offset="1" stop-color="#AD5AFF"/>
</linearGradient>
<linearGradient id="paint4_linear_214_247" x1="68.4984" y1="11.8944" x2="68.4984" y2="339.044" gradientUnits="userSpaceOnUse">
<stop stop-color="#FF8660"/>
<stop offset="1" stop-color="#AD5AFF"/>
</linearGradient>
<linearGradient id="paint5_linear_214_247" x1="190.447" y1="54.8849" x2="190.447" y2="358.492" gradientUnits="userSpaceOnUse">
<stop stop-color="#FF8660"/>
<stop offset="1" stop-color="#AD5AFF"/>
</linearGradient>
</defs>
</svg>
