<svg width="178" height="83" viewBox="0 0 178 83" fill="none" xmlns="http://www.w3.org/2000/svg">
<path d="M167.897 0.0317383H10.1034C4.95386 0.0317383 0.779297 3.01116 0.779297 10.5V118.94C0.779297 126.429 4.95386 132.5 10.1034 132.5H167.897C173.046 132.5 177.221 126.429 177.221 118.94V10.5C177.221 3.01116 173.046 0.0317383 167.897 0.0317383Z" fill="#989898" fill-opacity="0.25"/>
<path d="M24.0896 15.7C24.0896 11.7666 20.8784 8.578 16.9172 8.578C12.956 8.578 9.74481 11.7666 9.74481 15.7C9.74481 19.6333 12.956 22.8219 16.9172 22.8219C20.8784 22.8219 24.0896 19.6333 24.0896 15.7Z" fill="black" fill-opacity="0.2"/>
<path d="M149.607 31.3683H12.6138C11.0293 31.3683 9.74481 32.6437 9.74481 34.2171C9.74481 35.7904 11.0293 37.0658 12.6138 37.0658H149.607C151.191 37.0658 152.476 35.7904 152.476 34.2171C152.476 32.6437 151.191 31.3683 149.607 31.3683Z" fill="black" fill-opacity="0.2"/>
<path d="M62.1035 12.8512H33.4138C31.8293 12.8512 30.5448 14.1266 30.5448 15.7C30.5448 17.2733 31.8293 18.5488 33.4138 18.5488H62.1035C63.6879 18.5488 64.9724 17.2733 64.9724 15.7C64.9724 14.1266 63.6879 12.8512 62.1035 12.8512Z" fill="black" fill-opacity="0.2"/>
<path d="M83.6207 12.8512H72.1448C70.5603 12.8512 69.2759 14.1266 69.2759 15.7C69.2759 17.2733 70.5603 18.5488 72.1448 18.5488H83.6207C85.2052 18.5488 86.4897 17.2733 86.4897 15.7C86.4897 14.1266 85.2052 12.8512 83.6207 12.8512Z" fill="black" fill-opacity="0.2"/>
<path d="M69.2758 42.7634H12.6138C11.0293 42.7634 9.74481 44.0389 9.74481 45.6122C9.74481 47.1855 11.0293 48.461 12.6138 48.461H69.2758C70.8603 48.461 72.1448 47.1855 72.1448 45.6122C72.1448 44.0389 70.8603 42.7634 69.2758 42.7634Z" fill="black" fill-opacity="0.2"/>
</svg>
