<svg width="465" height="491" viewBox="0 0 465 491" fill="none" xmlns="http://www.w3.org/2000/svg">
<path d="M251.77 488.789C206.138 500.14 141.47 452.173 144.984 399.687C146.5 370.747 177.44 344.704 177.44 344.704C168.135 335.399 144.63 310.911 138.264 304.545C128.938 308.974 99.9552 337.956 91.6043 346.307C3.84005 326.333 -34.7889 249.388 41.3308 186.981C145.443 101.478 195.012 81.2917 284.403 0.716138C369.233 14.8092 490.743 98.0027 460.164 207.916C436.021 279.072 367.737 349.315 299.935 424.953C273.895 453.931 264.072 462.775 251.77 488.789ZM203.096 246.569L236.397 279.87C261.454 251.875 303.7 209.629 320.911 180.664C321.408 176.249 305.74 158.616 301.327 158.132C288.068 168.453 233.05 223.471 203.096 246.569Z" fill="white" fill-opacity="0.2"/>
</svg>
