<svg width="380" height="280" viewBox="0 0 380 280" fill="none" xmlns="http://www.w3.org/2000/svg">
<rect x="90" y="193" width="200" height="47" rx="16" fill="#171A24"/>
<path d="M130.617 209.5H136.377V223.5H133.337V218.64H131.397L128.737 223.5H125.337L128.377 218.18C127.951 217.993 127.564 217.76 127.217 217.48C126.884 217.2 126.604 216.893 126.377 216.56C126.151 216.213 125.971 215.833 125.837 215.42C125.717 215.007 125.657 214.58 125.657 214.14C125.657 212.82 126.131 211.72 127.077 210.84C128.024 209.947 129.204 209.5 130.617 209.5ZM130.797 215.98H133.337V212.32H130.797C130.197 212.32 129.711 212.487 129.337 212.82C128.964 213.153 128.777 213.593 128.777 214.14C128.777 214.5 128.864 214.82 129.037 215.1C129.211 215.38 129.451 215.6 129.757 215.76C130.064 215.907 130.411 215.98 130.797 215.98ZM146.101 212.7H149.021V223.5H146.101V219.36H142.181V223.5H139.261V212.7H142.181V216.7H146.101V212.7ZM161.62 220.76H162.94V225.98H160.3V223.5H153.54V225.98H150.88V220.76H152C152.413 220.427 152.713 219.78 152.9 218.82C153.1 217.86 153.34 215.82 153.62 212.7H161.62V220.76ZM156.18 215.26C156.073 216.9 155.933 218.127 155.76 218.94C155.587 219.753 155.34 220.36 155.02 220.76H158.76V215.26H156.18ZM175.464 218.06C175.464 218.34 175.444 218.627 175.404 218.92H167.244C167.364 219.653 167.651 220.22 168.104 220.62C168.571 221.007 169.164 221.2 169.884 221.2C170.377 221.2 170.824 221.093 171.224 220.88C171.624 220.653 171.937 220.347 172.164 219.96H175.244C174.844 221.133 174.164 222.067 173.204 222.76C172.244 223.453 171.137 223.8 169.884 223.8C168.284 223.8 166.951 223.253 165.884 222.16C164.817 221.067 164.284 219.713 164.284 218.1C164.284 217.46 164.371 216.847 164.544 216.26C164.731 215.673 164.991 215.147 165.324 214.68C165.671 214.213 166.071 213.813 166.524 213.48C166.977 213.133 167.491 212.867 168.064 212.68C168.637 212.493 169.244 212.4 169.884 212.4C170.964 212.4 171.931 212.653 172.784 213.16C173.651 213.667 174.311 214.353 174.764 215.22C175.231 216.087 175.464 217.033 175.464 218.06ZM169.884 214.88C169.231 214.88 168.677 215.06 168.224 215.42C167.784 215.78 167.484 216.28 167.324 216.92H172.544C172.411 216.48 172.217 216.113 171.964 215.82C171.711 215.513 171.404 215.28 171.044 215.12C170.697 214.96 170.311 214.88 169.884 214.88ZM187.463 223.5H183.943L180.463 218.34V223.5H177.543V212.7H180.463V217.5L183.743 212.7H187.063L183.403 217.86L187.463 223.5ZM193.305 223.8C192.238 223.8 191.265 223.553 190.385 223.06C189.518 222.553 188.831 221.86 188.325 220.98C187.831 220.1 187.585 219.127 187.585 218.06C187.585 216.447 188.131 215.1 189.225 214.02C190.318 212.94 191.685 212.4 193.325 212.4C194.725 212.4 195.925 212.807 196.925 213.62C197.925 214.42 198.558 215.487 198.825 216.82H195.925C195.685 216.3 195.331 215.893 194.865 215.6C194.411 215.293 193.891 215.14 193.305 215.14C192.518 215.14 191.858 215.42 191.325 215.98C190.805 216.54 190.545 217.24 190.545 218.08C190.545 218.92 190.811 219.627 191.345 220.2C191.878 220.773 192.531 221.06 193.305 221.06C193.891 221.06 194.411 220.907 194.865 220.6C195.318 220.28 195.671 219.827 195.925 219.24H198.865C198.598 220.613 197.958 221.72 196.945 222.56C195.931 223.387 194.718 223.8 193.305 223.8ZM200.585 223.5V220.38H203.685V223.5H200.585ZM217.933 220.68H219.293V225.98H216.493V223.5H208.213V225.98H205.413V220.68H206.533C206.733 220.52 206.9 220.347 207.033 220.16C207.18 219.973 207.313 219.68 207.433 219.28C207.566 218.867 207.673 218.447 207.753 218.02C207.833 217.58 207.92 216.907 208.013 216C208.12 215.093 208.213 214.193 208.293 213.3C208.373 212.393 208.48 211.127 208.613 209.5H217.933V220.68ZM211.233 212.32C211.073 214.907 210.88 216.807 210.653 218.02C210.426 219.22 210.093 220.107 209.653 220.68H214.913V212.32H211.233ZM228.066 217.7C229 218.287 229.466 219.153 229.466 220.3C229.466 221.327 229.053 222.167 228.226 222.82C227.4 223.473 226.34 223.8 225.046 223.8C223.713 223.8 222.646 223.447 221.846 222.74C221.046 222.033 220.64 221.087 220.626 219.9H223.266C223.28 220.073 223.313 220.24 223.366 220.4C223.433 220.547 223.513 220.673 223.606 220.78C223.713 220.887 223.833 220.98 223.966 221.06C224.113 221.14 224.273 221.2 224.446 221.24C224.633 221.28 224.833 221.3 225.046 221.3C225.526 221.3 225.906 221.193 226.186 220.98C226.466 220.767 226.606 220.48 226.606 220.12C226.606 219.88 226.54 219.673 226.406 219.5C226.286 219.313 226.106 219.173 225.866 219.08C225.64 218.987 225.366 218.94 225.046 218.94H223.886V216.82H225.046C225.473 216.82 225.8 216.733 226.026 216.56C226.253 216.373 226.366 216.113 226.366 215.78C226.366 215.447 226.24 215.187 225.986 215C225.746 214.8 225.413 214.7 224.986 214.7C224.56 214.7 224.213 214.807 223.946 215.02C223.693 215.233 223.553 215.533 223.526 215.92H220.866C220.893 214.88 221.293 214.033 222.066 213.38C222.84 212.727 223.833 212.4 225.046 212.4C226.246 212.4 227.226 212.707 227.986 213.32C228.76 213.92 229.146 214.693 229.146 215.64C229.146 216.467 228.786 217.153 228.066 217.7ZM242.066 218.06C242.066 218.34 242.046 218.627 242.006 218.92H233.846C233.966 219.653 234.252 220.22 234.706 220.62C235.172 221.007 235.766 221.2 236.486 221.2C236.979 221.2 237.426 221.093 237.826 220.88C238.226 220.653 238.539 220.347 238.766 219.96H241.846C241.446 221.133 240.766 222.067 239.806 222.76C238.846 223.453 237.739 223.8 236.486 223.8C234.886 223.8 233.552 223.253 232.486 222.16C231.419 221.067 230.886 219.713 230.886 218.1C230.886 217.46 230.972 216.847 231.146 216.26C231.332 215.673 231.592 215.147 231.926 214.68C232.272 214.213 232.672 213.813 233.126 213.48C233.579 213.133 234.092 212.867 234.666 212.68C235.239 212.493 235.846 212.4 236.486 212.4C237.566 212.4 238.532 212.653 239.386 213.16C240.252 213.667 240.912 214.353 241.366 215.22C241.832 216.087 242.066 217.033 242.066 218.06ZM236.486 214.88C235.832 214.88 235.279 215.06 234.826 215.42C234.386 215.78 234.086 216.28 233.926 216.92H239.146C239.012 216.48 238.819 216.113 238.566 215.82C238.312 215.513 238.006 215.28 237.646 215.12C237.299 214.96 236.912 214.88 236.486 214.88ZM250.984 212.7H253.904V223.5H250.984V219.36H247.064V223.5H244.144V212.7H247.064V216.7H250.984V212.7Z" fill="white"/>
<path d="M190.647 162.195C191.071 155.076 191.367 147.948 191.976 140.844C192.374 136.192 193.567 131.681 195.974 127.589C199.443 121.694 204.609 118.065 211.134 116.251C215.548 115.024 220.078 114.531 224.627 114.255C229.391 113.966 234.165 113.84 238.934 113.646C239.238 113.633 239.543 113.646 239.971 113.646L239.947 112.274C238.506 112.274 237.174 112.344 235.852 112.261C229.7 111.871 223.532 111.613 217.404 110.97C211.379 110.339 205.699 108.561 200.987 104.46C197.072 101.051 194.609 96.7642 193.245 91.7979C192.015 87.3177 191.539 82.7201 191.258 78.1096C190.975 73.4673 190.85 68.8139 190.658 64.1661C190.645 63.8272 190.658 63.4883 190.658 63.0656L189.019 63.006C189.104 63.0135 189.188 63.0302 189.257 63.0377C189.257 64.6111 189.322 66.099 189.246 67.5775C188.978 72.689 188.762 77.8042 188.334 82.9026C187.949 87.4853 187.13 92.0083 185.17 96.2297C182.017 103.023 176.743 107.361 169.632 109.525C165.154 110.888 160.533 111.421 155.888 111.693C150.906 111.985 145.915 112.145 140.927 112.359C140.659 112.37 140.391 112.359 140.024 112.359V114.151C140.024 114.03 140.047 113.909 140.067 113.696C141.279 113.696 142.421 113.64 143.557 113.706C149.341 114.037 155.136 114.272 160.904 114.791C166.176 115.266 171.316 116.409 175.917 119.255C181.279 122.571 184.705 127.349 186.523 133.336C187.837 137.663 188.401 142.125 188.671 146.617C188.987 151.879 189.171 157.149 189.413 162.416C189.421 162.565 189.413 162.716 189.413 162.996L190.701 162.936C190.679 162.67 190.629 162.43 190.643 162.193L190.647 162.195Z" fill="white"/>
<path d="M140.067 113.698C140.047 113.909 140.022 114.032 140.026 114.153C140.149 120.696 140.171 127.243 140.43 133.781C140.62 138.585 141.273 143.347 142.741 147.967C144.541 153.629 147.99 157.696 153.647 159.823C158.38 161.601 163.306 162.348 168.292 162.565C174.979 162.858 181.679 162.867 188.371 162.998C188.7 163.003 189.03 162.998 189.415 162.998C189.415 162.716 189.421 162.567 189.415 162.418C189.175 157.152 188.991 151.881 188.673 146.618C188.403 142.127 187.839 137.665 186.525 133.338C184.707 127.351 181.28 122.573 175.919 119.257C171.318 116.411 166.18 115.268 160.905 114.793C155.136 114.274 149.343 114.039 143.558 113.708C142.421 113.642 141.279 113.698 140.069 113.698H140.067ZM189.257 63.0359C189.16 63.0247 189.039 62.9986 188.92 63.0023C181.422 63.1941 173.918 63.3077 166.424 63.6112C162.519 63.7695 158.678 64.5144 154.937 65.7229C149.344 67.5273 145.347 71.0075 143.261 76.5883C141.87 80.3088 141.042 84.1689 140.784 88.098C140.391 94.0381 140.242 99.995 140.035 105.946C139.963 108.047 140.024 110.151 140.024 112.361C140.391 112.361 140.659 112.371 140.927 112.361C145.915 112.147 150.904 111.987 155.888 111.695C160.533 111.421 165.154 110.89 169.632 109.527C176.743 107.363 182.017 103.025 185.17 96.2316C187.13 92.0103 187.949 87.4872 188.334 82.9045C188.762 77.8061 188.978 72.689 189.246 67.5794C189.324 66.099 189.257 64.6131 189.257 63.0396V63.0359ZM239.969 113.644C239.541 113.644 239.236 113.633 238.933 113.644C234.163 113.838 229.389 113.964 224.625 114.253C220.076 114.529 215.548 115.022 211.132 116.249C204.607 118.063 199.441 121.692 195.972 127.588C193.565 131.677 192.372 136.189 191.974 140.842C191.366 147.944 191.068 155.074 190.645 162.193C190.63 162.43 190.681 162.67 190.703 162.936C190.967 162.958 191.178 162.996 191.39 162.992C197.589 162.903 203.794 162.919 209.987 162.685C215.224 162.485 220.428 161.88 225.436 160.165C230.396 158.467 234.166 155.46 236.288 150.546C238.449 145.538 239.184 140.23 239.524 134.869C239.815 130.29 239.856 125.694 239.96 121.106C240.016 118.661 239.969 116.212 239.969 113.642V113.644ZM239.945 112.272C239.965 111.972 240.003 111.698 239.999 111.425C239.898 105.315 239.897 99.2017 239.655 93.0959C239.444 87.7926 238.797 82.5321 237.079 77.4579C235.225 71.9796 231.697 68.1585 226.227 66.1307C221.31 64.3095 216.187 63.6187 211.013 63.4027C204.51 63.1308 197.998 63.1197 191.49 63.0005C191.226 62.9949 190.96 63.0396 190.656 63.0638C190.656 63.4865 190.645 63.8254 190.656 64.1643C190.848 68.8121 190.971 73.4655 191.256 78.1078C191.537 82.7202 192.013 87.3159 193.243 91.7961C194.608 96.7623 197.07 101.049 200.985 104.458C205.696 108.561 211.378 110.337 217.402 110.968C223.529 111.611 229.698 111.868 235.851 112.259C237.174 112.343 238.505 112.272 239.945 112.272Z" fill="white"/>
<path d="M140.067 113.698C141.279 113.698 142.421 113.642 143.557 113.707C149.341 114.039 155.136 114.274 160.904 114.793C166.176 115.268 171.316 116.411 175.917 119.257C181.279 122.573 184.705 127.351 186.523 133.338C187.837 137.665 188.401 142.127 188.671 146.618C188.987 151.881 189.171 157.15 189.413 162.418C189.421 162.567 189.413 162.718 189.413 162.997C189.028 162.997 188.699 163.003 188.369 162.997C181.675 162.867 174.977 162.858 168.29 162.565C163.304 162.348 158.376 161.601 153.645 159.823C147.988 157.696 144.539 153.629 142.74 147.967C141.271 143.347 140.62 138.585 140.428 133.781C140.169 127.243 140.145 120.696 140.024 114.153C140.022 114.031 140.047 113.91 140.065 113.698L140.067 113.698Z" fill="#171A24"/>
<path d="M189.257 63.0359C189.257 64.6093 189.322 66.0971 189.246 67.5757C188.978 72.6871 188.762 77.8024 188.334 82.9008C187.949 87.4835 187.13 92.0065 185.17 96.2279C182.017 103.021 176.743 107.36 169.632 109.523C165.154 110.886 160.533 111.419 155.888 111.691C150.906 111.983 145.915 112.143 140.927 112.357C140.659 112.369 140.391 112.357 140.024 112.357C140.024 110.149 139.963 108.043 140.035 105.943C140.242 99.9912 140.391 94.0343 140.784 88.0942C141.044 84.1633 141.87 80.305 143.261 76.5845C145.347 71.0019 149.344 67.5235 154.937 65.7191C158.678 64.5125 162.519 63.7677 166.424 63.6075C173.918 63.3077 181.42 63.1923 188.918 63.0005C189.037 62.9967 189.158 63.0247 189.255 63.034L189.257 63.0359Z" fill="#171A24"/>
<path d="M239.969 113.644C239.969 116.214 240.014 118.663 239.96 121.107C239.856 125.698 239.817 130.293 239.524 134.87C239.184 140.231 238.451 145.54 236.288 150.547C234.166 155.462 230.396 158.469 225.436 160.167C220.428 161.882 215.223 162.487 209.987 162.686C203.794 162.921 197.589 162.904 191.39 162.994C191.179 162.997 190.967 162.96 190.703 162.938C190.681 162.672 190.63 162.431 190.645 162.195C191.07 155.076 191.366 147.948 191.974 140.844C192.372 136.192 193.565 131.681 195.972 127.589C199.441 121.694 204.607 118.065 211.132 116.251C215.546 115.024 220.076 114.531 224.625 114.255C229.389 113.966 234.163 113.84 238.933 113.646C239.236 113.633 239.541 113.646 239.969 113.646L239.969 113.644Z" fill="#171A24"/>
<path d="M239.945 112.272C238.505 112.272 237.172 112.343 235.851 112.259C229.698 111.87 223.53 111.611 217.402 110.968C211.378 110.337 205.698 108.559 200.985 104.458C197.07 101.049 194.608 96.7623 193.243 91.7961C192.013 87.3159 191.537 82.7183 191.256 78.1078C190.973 73.4655 190.848 68.8121 190.656 64.1643C190.643 63.8254 190.656 63.4865 190.656 63.0638C190.96 63.0396 191.226 62.9949 191.49 63.0005C197.998 63.1197 204.51 63.129 211.013 63.4027C216.187 63.6206 221.31 64.3095 226.227 66.1307C231.699 68.1585 235.225 71.9796 237.079 77.4579C238.797 82.5321 239.442 87.7944 239.655 93.0959C239.898 99.1998 239.898 105.313 239.999 111.425C240.003 111.696 239.965 111.97 239.945 112.272Z" fill="#171A24"/>
<path d="M86.5638 55.2992L34.2839 71.3243C30.441 72.5022 28.2775 76.5595 29.4518 80.3863L40.2859 115.694C41.4602 119.521 45.5274 121.668 49.3704 120.49L101.65 104.465C105.493 103.287 107.657 99.2302 106.482 95.4033L95.6483 60.0955C94.4741 56.2686 90.4068 54.1212 86.5638 55.2992Z" fill="#171A24"/>
<path d="M82.9499 86.4074C82.7552 86.9932 82.5366 87.552 82.3211 88.06C82.2722 88.1898 82.2191 88.3041 82.1545 88.4381C80.6345 91.7635 77.7532 95.3202 74.7803 99.0349C74.6533 99.1856 74.5304 99.352 74.4034 99.5027C73.7536 100.327 73.0882 101.156 72.4385 101.98C66.4828 100.124 60.3334 98.6705 56.3721 96.1969C54.2014 94.8442 51.7702 92.8944 50.7885 89.6057C50.0434 87.1374 50.0118 84.8948 51.2727 82.5393C52.4232 80.3968 54.4102 79.5642 56.3265 78.9674C56.389 78.9506 56.4671 78.9297 56.5296 78.9129C56.7796 78.846 57.0139 78.7832 57.2566 78.7515C59.1489 78.3779 60.8174 78.481 63.6214 79.9475L65.963 81.4377L67.0322 78.8668C67.7183 77.3656 68.6169 76.1577 69.7989 75.2574C70.5081 74.7172 71.3287 74.2805 72.2608 73.9474C72.3233 73.9307 72.4014 73.9097 72.4639 73.893C74.3802 73.2962 76.4996 72.895 78.6536 73.9353C81.0608 75.1079 82.2911 77.0126 83.0987 79.4642C83.9271 81.9935 83.5922 84.3678 82.9187 86.4158L82.9499 86.4074Z" fill="white"/>
<path d="M70.5189 114L86.0055 127.993C86.6701 128.598 87.7323 128.064 87.6593 127.166L85.9794 109.274L70.5231 114.016L70.5189 114Z" fill="#171A24"/>
<path d="M321.232 122.868L300.097 149.284C298.376 151.436 298.717 154.582 300.86 156.311L338.771 186.898C340.913 188.627 344.046 188.284 345.768 186.132L366.903 159.716C368.624 157.564 368.283 154.418 366.14 152.689L328.229 122.102C326.087 120.373 322.954 120.716 321.232 122.868Z" fill="#171A24"/>
<path d="M341.647 164.324C341.149 164.468 340.652 164.579 340.176 164.679C340.066 164.701 339.955 164.724 339.833 164.746C336.781 165.268 332.91 164.957 328.884 164.646C328.718 164.635 328.552 164.624 328.386 164.613C327.501 164.546 326.605 164.479 325.721 164.424C324.205 159.348 322.303 154.317 322.159 150.352C322.082 148.175 322.303 145.52 324.139 143.255C325.522 141.555 327.081 140.445 329.337 140.2C331.383 139.978 332.91 140.978 334.237 142.033C334.281 142.066 334.336 142.099 334.381 142.144C334.547 142.288 334.69 142.433 334.845 142.577C336.006 143.721 336.725 144.954 337.024 147.631L337.09 149.996L339.402 149.519C340.784 149.274 342.045 149.33 343.24 149.73C343.959 149.974 344.655 150.341 345.33 150.84C345.374 150.874 345.43 150.918 345.474 150.951C346.801 152.007 348.095 153.317 348.383 155.327C348.703 157.582 347.951 159.37 346.613 161.114C345.231 162.913 343.406 163.813 341.658 164.324H341.647Z" fill="white"/>
<path d="M316.375 168.822L313.909 186.437C313.798 187.192 314.683 187.692 315.269 187.203L327.037 177.43L316.375 168.822Z" fill="#171A24"/>
<path d="M270.353 6.68382L264.043 61.3418C263.636 64.8629 266.168 68.0459 269.697 68.4515L347.52 77.3932C351.05 77.7988 354.24 75.2732 354.647 71.7522L360.957 17.0942C361.364 13.5731 358.832 10.3901 355.303 9.98453L277.48 1.04274C273.95 0.637216 270.76 3.16281 270.353 6.68382Z" fill="#171A24"/>
<path d="M331.361 45.3372C330.818 45.9361 330.26 46.4923 329.717 47.0057C329.588 47.134 329.46 47.2481 329.317 47.3765C325.728 50.5852 320.368 53.3804 314.821 56.3039C314.593 56.4323 314.364 56.5464 314.121 56.6747C312.891 57.3165 311.662 57.9725 310.447 58.6428C304.257 53.2521 297.596 48.2464 294.122 43.1695C292.221 40.3885 290.319 36.7377 290.863 32.2455C291.277 28.8798 292.421 26.1274 295.194 23.9455C297.71 21.9632 300.54 22.006 303.171 22.2912C303.257 22.2912 303.357 22.3055 303.442 22.3197C303.771 22.3768 304.1 22.4338 304.414 22.5051C306.887 23.047 308.86 24.0453 311.462 27.3111L313.506 30.363L316.165 27.8245C317.795 26.3699 319.496 25.3859 321.397 24.9295C322.541 24.6443 323.756 24.5587 325.057 24.6585C325.157 24.6585 325.242 24.6728 325.328 24.6871C327.959 24.9723 330.732 25.614 332.762 28.0099C335.049 30.7053 335.535 33.6573 335.206 37.0372C334.877 40.5454 333.205 43.2265 331.318 45.3372H331.361Z" fill="white"/>
<path d="M301.77 72.148L313.063 97.2333C313.549 98.3172 315.121 98.2316 315.493 97.105L322.927 74.5724L301.77 72.1338V72.148Z" fill="#171A24"/>
</svg>
