<svg width="380" height="280" viewBox="0 0 380 280" fill="none" xmlns="http://www.w3.org/2000/svg">
<rect x="90" y="193" width="200" height="47" rx="16" fill="#FE0000"/>
<path d="M160.369 209.5L155.449 217.84V223.5H152.329V217.82L147.449 209.5H150.669L153.909 215.1L157.149 209.5H160.369ZM165.388 223.8C164.281 223.8 163.281 223.553 162.388 223.06C161.494 222.567 160.794 221.887 160.288 221.02C159.794 220.14 159.548 219.167 159.548 218.1C159.548 216.46 160.101 215.1 161.208 214.02C162.314 212.94 163.708 212.4 165.388 212.4C167.054 212.4 168.441 212.94 169.548 214.02C170.654 215.1 171.208 216.46 171.208 218.1C171.208 219.727 170.648 221.087 169.528 222.18C168.421 223.26 167.041 223.8 165.388 223.8ZM165.388 221.06C166.228 221.06 166.914 220.787 167.448 220.24C167.981 219.68 168.248 218.967 168.248 218.1C168.248 217.233 167.981 216.527 167.448 215.98C166.914 215.42 166.221 215.14 165.368 215.14C164.528 215.14 163.841 215.42 163.308 215.98C162.774 216.527 162.508 217.233 162.508 218.1C162.508 218.527 162.574 218.927 162.708 219.3C162.854 219.673 163.054 219.987 163.308 220.24C163.561 220.493 163.861 220.693 164.208 220.84C164.568 220.987 164.961 221.06 165.388 221.06ZM181.914 222.48C180.994 223.36 179.767 223.8 178.234 223.8C176.714 223.8 175.487 223.353 174.554 222.46C173.634 221.567 173.174 220.393 173.174 218.94V212.7H176.094V218.6C176.094 219.373 176.281 219.98 176.654 220.42C177.041 220.847 177.567 221.06 178.234 221.06C178.914 221.06 179.441 220.847 179.814 220.42C180.201 219.98 180.394 219.373 180.394 218.6V212.7H183.314V218.94C183.314 220.407 182.847 221.587 181.914 222.48ZM194.717 209.5V212.32H190.817V223.5H187.777V212.32H183.897V209.5H194.717ZM204.023 222.48C203.103 223.36 201.877 223.8 200.343 223.8C198.823 223.8 197.597 223.353 196.663 222.46C195.743 221.567 195.283 220.393 195.283 218.94V212.7H198.203V218.6C198.203 219.373 198.39 219.98 198.763 220.42C199.15 220.847 199.677 221.06 200.343 221.06C201.023 221.06 201.55 220.847 201.923 220.42C202.31 219.98 202.503 219.373 202.503 218.6V212.7H205.423V218.94C205.423 220.407 204.957 221.587 204.023 222.48ZM213.96 212.4C215.6 212.4 216.953 212.94 218.02 214.02C219.1 215.1 219.64 216.46 219.64 218.1C219.64 219.74 219.1 221.1 218.02 222.18C216.953 223.26 215.6 223.8 213.96 223.8C212.666 223.8 211.54 223.4 210.58 222.6L210.24 223.5H208.08V208.8H211V213.28C211.866 212.693 212.853 212.4 213.96 212.4ZM211.62 220.2C212.18 220.76 212.88 221.04 213.72 221.04C214.573 221.04 215.273 220.76 215.82 220.2C216.38 219.64 216.66 218.94 216.66 218.1C216.66 217.54 216.533 217.033 216.28 216.58C216.04 216.127 215.693 215.773 215.24 215.52C214.786 215.267 214.28 215.14 213.72 215.14C213.173 215.14 212.673 215.267 212.22 215.52C211.766 215.773 211.413 216.127 211.16 216.58C210.906 217.033 210.78 217.54 210.78 218.1C210.78 218.94 211.06 219.64 211.62 220.2ZM232.212 218.06C232.212 218.34 232.192 218.627 232.152 218.92H223.992C224.112 219.653 224.399 220.22 224.852 220.62C225.319 221.007 225.912 221.2 226.632 221.2C227.125 221.2 227.572 221.093 227.972 220.88C228.372 220.653 228.685 220.347 228.912 219.96H231.992C231.592 221.133 230.912 222.067 229.952 222.76C228.992 223.453 227.885 223.8 226.632 223.8C225.032 223.8 223.699 223.253 222.632 222.16C221.565 221.067 221.032 219.713 221.032 218.1C221.032 217.46 221.119 216.847 221.292 216.26C221.479 215.673 221.739 215.147 222.072 214.68C222.419 214.213 222.819 213.813 223.272 213.48C223.725 213.133 224.239 212.867 224.812 212.68C225.385 212.493 225.992 212.4 226.632 212.4C227.712 212.4 228.679 212.653 229.532 213.16C230.399 213.667 231.059 214.353 231.512 215.22C231.979 216.087 232.212 217.033 232.212 218.06ZM226.632 214.88C225.979 214.88 225.425 215.06 224.972 215.42C224.532 215.78 224.232 216.28 224.072 216.92H229.292C229.159 216.48 228.965 216.113 228.712 215.82C228.459 215.513 228.152 215.28 227.792 215.12C227.445 214.96 227.059 214.88 226.632 214.88Z" fill="white"/>
<path d="M189.545 73.0256C187.426 73.0256 185.307 73.0193 183.188 73.0256C178.293 73.0448 173.399 73.163 168.505 73.3115C165.24 73.4104 161.975 73.535 158.713 73.7042C155.845 73.8527 152.978 74.0124 150.112 74.1897C148.596 74.2839 147.076 74.3318 145.577 74.6192C142.772 75.1573 140.268 76.2941 138.226 78.3299C135.909 80.6388 134.697 83.5033 134.158 86.6744C133.431 90.9552 132.916 95.2616 132.56 99.5887C132.248 103.383 132.063 107.181 132.013 110.984C131.951 115.915 132.104 120.839 132.491 125.757C132.735 128.868 132.976 131.98 133.446 135.068C133.864 137.819 134.482 140.517 135.659 143.061C137.477 146.994 140.417 149.632 144.638 150.749C147.329 151.461 150.088 151.781 152.855 152.015C155.85 152.269 158.854 152.346 161.857 152.368C166.621 152.405 171.384 152.483 176.147 152.585C181.758 152.707 187.37 152.734 192.981 152.937C195.804 153.039 198.631 152.996 201.456 152.956C205.154 152.905 208.85 152.804 212.545 152.617C215.103 152.488 217.661 152.378 220.217 152.225C223.286 152.041 226.353 151.832 229.42 151.613C231.184 151.487 232.957 151.431 234.694 151.04C237.79 150.34 240.351 148.817 242.216 146.21C243.485 144.434 244.288 142.446 244.884 140.364C245.679 137.584 246.075 134.731 246.461 131.876C247.079 127.311 247.466 122.725 247.643 118.122C247.818 113.565 247.801 109.006 247.531 104.452C247.266 100.001 247.006 95.5474 246.374 91.1277C245.981 88.3845 245.361 85.6988 244.224 83.1536C242.331 78.9143 239.187 76.1025 234.67 74.9449C231.756 74.1992 228.775 73.808 225.773 73.642C223.599 73.5222 221.421 73.4775 219.243 73.4232C214.9 73.3146 210.555 73.2013 206.212 73.1262C200.659 73.0288 195.104 72.9634 189.55 73.0272L189.545 73.0256Z" fill="#FEFEFE"/>
<path d="M189.545 73.0256C195.1 72.9618 200.654 73.0256 206.208 73.1246C210.552 73.2013 214.895 73.3131 219.238 73.4216C221.416 73.4759 223.594 73.5206 225.768 73.6404C228.77 73.8064 231.753 74.1976 234.665 74.9433C239.184 76.0993 242.326 78.9128 244.22 83.152C245.356 85.6972 245.976 88.3829 246.369 91.1261C247.003 95.5458 247.261 99.9991 247.526 104.451C247.798 109.005 247.814 113.563 247.638 118.12C247.461 122.722 247.076 127.308 246.457 131.874C246.07 134.731 245.674 137.584 244.879 140.363C244.283 142.445 243.48 144.434 242.211 146.208C240.346 148.817 237.785 150.34 234.689 151.038C232.952 151.431 231.18 151.487 229.415 151.611C226.348 151.83 223.281 152.039 220.212 152.223C217.656 152.376 215.098 152.486 212.54 152.616C208.845 152.803 205.149 152.903 201.451 152.954C198.627 152.994 195.799 153.037 192.976 152.935C187.367 152.732 181.753 152.705 176.142 152.584C171.379 152.482 166.617 152.403 161.852 152.367C158.849 152.343 155.845 152.268 152.85 152.014C150.083 151.779 147.324 151.46 144.634 150.748C140.414 149.632 137.474 146.992 135.654 143.059C134.477 140.516 133.859 137.817 133.441 135.066C132.973 131.978 132.73 128.868 132.486 125.756C132.104 120.841 131.951 115.915 132.013 110.984C132.061 107.181 132.247 103.383 132.56 99.5903C132.916 95.2632 133.431 90.9552 134.158 86.676C134.696 83.5033 135.908 80.6404 138.226 78.3315C140.27 76.2957 142.773 75.1573 145.577 74.6208C147.075 74.3334 148.596 74.2855 150.112 74.1912C152.978 74.014 155.845 73.8543 158.713 73.7058C161.975 73.5382 165.24 73.412 168.505 73.3131C173.399 73.1646 178.293 73.0464 183.188 73.0272C185.307 73.0193 187.426 73.0272 189.545 73.0272V73.0256ZM178.505 95.9178V129.832C188.366 124.17 198.184 118.535 208.041 112.877C198.176 107.213 188.358 101.575 178.505 95.9178Z" fill="#FE0000"/>
<path d="M178.505 95.9194C188.358 101.577 198.176 107.215 208.041 112.878C198.184 118.537 188.366 124.173 178.505 129.834V95.9194Z" fill="#FEFDFD"/>
<path d="M290.388 15.7885L272.564 55.433C271.112 58.6623 272.561 62.4535 275.801 63.9008L333.118 89.5061C336.357 90.9534 340.161 89.5087 341.612 86.2793L359.436 46.6348C360.888 43.4054 359.439 39.6143 356.199 38.167L298.882 12.5617C295.643 11.1144 291.839 12.5591 290.388 15.7885Z" fill="#FC2A2A"/>
<path d="M329.376 60.5873C328.805 60.929 328.219 61.228 327.662 61.4986C327.534 61.5698 327.391 61.6267 327.262 61.6837C323.62 63.3354 318.677 64.1898 313.549 65.1153C313.335 65.158 313.121 65.1865 312.906 65.2292C311.778 65.4286 310.635 65.6422 309.507 65.87C305.964 60.0604 301.95 54.4502 300.479 49.5661C299.664 46.8892 299.079 43.5287 300.65 40.1113C301.821 37.5483 303.421 35.6687 306.164 34.6293C308.649 33.6895 310.878 34.4299 312.892 35.3127C312.963 35.3412 313.035 35.3697 313.106 35.4124C313.349 35.5406 313.592 35.6687 313.82 35.7969C315.635 36.8506 316.949 38.1321 318.192 41.3644L319.049 44.2834L321.777 42.9449C323.434 42.1903 325.034 41.8485 326.648 41.9624C327.619 42.0336 328.605 42.2615 329.619 42.6601C329.691 42.6886 329.762 42.7171 329.834 42.7456C331.833 43.6284 333.876 44.8245 334.89 47.2309C336.019 49.9221 335.662 52.3855 334.562 54.977C333.419 57.6682 331.419 59.3769 329.405 60.573L329.376 60.5873Z" fill="white"/>
<path d="M299.25 74.385L301.893 97.0396C302.007 98.0221 303.264 98.3496 303.85 97.5522L315.378 81.6043L299.25 74.3993V74.385Z" fill="#FC2A2A"/>
<path d="M81.3363 88.942L98.9832 116.376C100.896 119.349 100.031 123.307 97.0519 125.216L56.5214 151.185C53.5421 153.093 49.5764 152.23 47.6637 149.257L30.0168 121.823C28.1041 118.85 28.9688 114.892 31.9481 112.983L72.4786 87.0145C75.4579 85.1056 79.4236 85.9686 81.3363 88.942Z" fill="#FC2A2A"/>
<path d="M54.9983 128.306C55.4969 128.505 55.9955 128.675 56.4799 128.832C56.5938 128.86 56.7078 128.903 56.8218 128.931C59.9273 129.813 63.9588 129.912 68.1612 130.026C68.3321 130.026 68.5173 130.026 68.6883 130.04C69.6142 130.068 70.5402 130.097 71.4661 130.14C73.5887 125.078 76.1102 120.131 76.7085 116.05C77.0361 113.818 77.0931 111.074 75.4406 108.529C74.2013 106.624 72.7055 105.316 70.3977 104.818C68.3036 104.363 66.6084 105.231 65.1269 106.169C65.0699 106.198 65.0272 106.226 64.9702 106.269C64.785 106.397 64.6141 106.539 64.4431 106.667C63.1183 107.719 62.2351 108.899 61.6225 111.629L61.2949 114.06L58.9586 113.32C57.5483 112.922 56.2377 112.837 54.9556 113.121C54.1864 113.292 53.4313 113.591 52.6763 114.031C52.6193 114.06 52.5766 114.102 52.5196 114.131C51.0238 115.069 49.5423 116.278 49.0295 118.311C48.4597 120.6 49.0295 122.519 50.2261 124.453C51.4655 126.457 53.2604 127.58 55.0126 128.291L54.9983 128.306Z" fill="white"/>
<path d="M80.6687 135.713L81.2955 154.096C81.324 154.892 80.3553 155.304 79.7998 154.736L68.6883 143.39L80.6687 135.713Z" fill="#FC2A2A"/>
<path d="M144.209 8.14001L152.234 32.929C153.104 35.6158 151.617 38.4835 148.912 39.3342L112.125 50.907C109.421 51.7576 106.524 50.2692 105.654 47.5824L97.6291 22.7934C96.7594 20.1066 98.2464 17.239 100.951 16.3883L137.738 4.81549C140.442 3.9648 143.339 5.45324 144.209 8.14001Z" fill="#FC2A2A"/>
<path d="M115.664 32.975C116.01 33.2318 116.361 33.4668 116.704 33.6878C116.787 33.7334 116.867 33.7899 116.949 33.8355C119.175 35.1595 122.281 36.0738 125.516 37.0345C125.649 37.0701 125.793 37.1085 125.922 37.155C126.634 37.3693 127.347 37.5836 128.056 37.8088C130.746 34.3529 133.722 31.0674 135.028 28.0501C135.742 26.3996 136.353 24.2987 135.596 21.9959C135.028 20.2716 134.138 18.9537 132.451 18.0911C130.921 17.3057 129.428 17.6212 128.085 18.0358C128.035 18.0458 127.996 18.0588 127.943 18.0798C127.773 18.1399 127.611 18.2138 127.452 18.2768C126.208 18.8116 125.28 19.5366 124.241 21.5111L123.486 23.3149L121.827 22.2602C120.815 21.6607 119.816 21.3227 118.764 21.2752C118.132 21.2467 117.485 21.3197 116.808 21.5022C116.758 21.5122 116.716 21.5362 116.666 21.5462C115.313 21.9579 113.915 22.5805 113.097 24.0393C112.183 25.6833 112.229 27.2795 112.758 29.0169C113.306 30.8179 114.466 32.0556 115.678 32.967L115.664 32.975Z" fill="white"/>
<path d="M134.042 44.012L130.736 58.2961C130.594 58.9151 129.758 59.0312 129.444 58.4779L123.168 47.4338L134.042 44.012Z" fill="#FC2A2A"/>
</svg>
