<svg width="320" height="160" viewBox="0 0 320 160" fill="none" xmlns="http://www.w3.org/2000/svg">
<rect x="35" y="69.5049" width="94.0521" height="137.278" rx="20" transform="rotate(-45 35 69.5049)" fill="#70C704"/>
<path d="M143.03 133.875C142.043 134.862 140.998 135.392 139.893 135.464C138.789 135.518 137.793 135.111 136.906 134.242C136.58 133.916 136.295 133.568 136.051 133.196L138.604 130.644C138.766 130.897 138.925 131.101 139.079 131.255C139.703 131.879 140.323 131.884 140.939 131.268C141.274 130.933 141.45 130.531 141.469 130.06C141.478 129.58 141.328 129.105 141.02 128.634L136.132 121.302L138.658 118.776L143.831 126.557C144.655 127.779 144.999 129.037 144.863 130.331C144.727 131.608 144.116 132.789 143.03 133.875Z" fill="white"/>
<path d="M151.63 125.275C151.015 125.891 150.354 126.316 149.648 126.552C148.942 126.787 148.254 126.823 147.584 126.66C146.914 126.479 146.303 126.112 145.751 125.56C145.697 125.506 145.642 125.452 145.588 125.397C145.543 125.334 145.493 125.275 145.439 125.221C145.393 125.157 145.33 125.076 145.248 124.976C145.176 124.868 145.108 124.773 145.045 124.691C144.981 124.592 144.886 124.451 144.76 124.27C144.633 124.089 144.52 123.922 144.42 123.768C144.312 123.605 144.158 123.379 143.959 123.089C143.768 122.79 143.587 122.51 143.415 122.247C143.234 121.976 142.999 121.623 142.709 121.188C142.42 120.735 142.139 120.31 141.867 119.912L144.298 117.481C144.832 118.269 145.457 119.201 146.172 120.278C147.213 121.844 147.81 122.704 147.964 122.858C148.525 123.419 149.118 123.388 149.743 122.763C150.096 122.41 150.272 121.98 150.272 121.473C150.272 120.948 150.105 120.437 149.77 119.939L146.606 115.173L149.037 112.742L152.526 117.97C153.341 119.183 153.663 120.437 153.491 121.731C153.328 123.017 152.708 124.198 151.63 125.275Z" fill="white"/>
<path d="M156.461 119.982L148.477 108.006L150.908 105.576L158.892 117.552L156.461 119.982Z" fill="white"/>
<path d="M159.528 102.251L162.189 99.59L164.932 111.458C165.321 113.186 165.421 114.526 165.231 115.477C165.05 116.418 164.502 117.346 163.588 118.26L162.583 119.265L160.899 116.74L161.524 116.115C162.004 115.635 162.289 115.187 162.379 114.771C162.479 114.345 162.429 113.752 162.23 112.992L153.811 107.968L156.337 105.442L161.361 108.783L159.528 102.251Z" fill="white"/>
<path d="M81.8814 64.841C69.8639 74.193 85.914 84.4245 90.8475 90.7521C95.781 97.0797 97.8689 117.957 117.297 103.209C136.724 88.4609 128.68 73.749 117.046 72.5149C105.413 71.2807 99.7574 69.2961 95.2372 67.235C90.7171 65.1739 87.0132 60.8379 81.8814 64.8323L81.8814 64.841Z" fill="#FFD18D"/>
<g style="mix-blend-mode:multiply" opacity="0.49">
<path d="M117.046 72.5236C105.413 71.2894 99.7571 69.3048 95.2369 67.2437C90.7167 65.1826 87.0128 60.8466 81.881 64.841C78.9232 67.139 77.6692 69.4956 77.525 71.8365C82.7936 72.7237 87.7869 75.2234 91.5639 79.1303C96.3307 84.0616 99.1055 90.525 100.805 97.0735C101.729 100.63 102.311 104.242 102.732 107.875C106.119 109.107 110.709 108.207 117.292 103.205C136.715 88.4609 128.675 73.7447 117.046 72.5149L117.046 72.5236Z" fill="#FFD18D"/>
</g>
<path d="M79.7598 66.6936C92.8422 68.8315 96.9573 69.4917 101.127 62.8298C105.297 56.1679 107.46 52.3559 111.976 51.7291C116.493 51.1023 119.436 50.6078 113.997 48.9096C108.563 47.2071 103.124 45.5089 95.4172 49.7252C87.7105 53.9415 79.7642 66.6979 79.7642 66.6979L79.7598 66.6936Z" fill="#98DB0A"/>
<g style="mix-blend-mode:multiply" opacity="0.65">
<path d="M114.002 48.9053C113.95 48.8879 113.902 48.8748 113.85 48.8574C112.913 48.7087 111.951 48.6467 110.962 48.6974C110.208 48.7397 109.22 48.9204 108.327 49.1533C107.118 49.4681 107.036 49.4897 106.434 49.84C106.148 50.0044 105.87 50.1861 105.593 50.3678C105.546 50.3981 105.515 50.4197 105.485 50.4327C105.424 50.4846 105.351 50.5409 105.264 50.6101C104.623 51.1295 103.991 51.6662 103.372 52.2072C97.9592 56.9079 90.945 63.4532 83.5072 61.323C81.2309 64.3373 79.7645 66.6806 79.7645 66.6806C92.8469 68.8185 96.9619 69.4788 101.132 62.8169C105.302 56.1549 107.464 52.3429 111.981 51.7161C116.497 51.0894 119.44 50.5948 114.002 48.8966L114.002 48.9053Z" fill="#98DB0A"/>
</g>
<g style="mix-blend-mode:multiply" opacity="0.69">
<path d="M116.934 50.444C113.138 51.5659 109.163 48.6645 100.636 52.2511C92.1091 55.8377 93.6076 61.0681 79.7642 66.6979" stroke="#454F3F" stroke-width="0.5" stroke-linecap="round" stroke-linejoin="round"/>
</g>
<path d="M69.1293 66.4276C73.7839 65.3675 80.0638 70.3486 80.0638 70.3486C81.5464 70.29 82.4253 69.4198 82.3356 67.2694C77.8847 65.087 73.6821 63.863 69.9547 64.4995C69.1621 65.0837 68.8335 65.7249 69.1206 66.4276L69.1293 66.4276Z" fill="#895D41"/>
<g style="mix-blend-mode:multiply" opacity="0.45">
<path d="M75.6947 67.6678C78.1717 68.846 80.0596 70.3443 80.0596 70.3443C81.5422 70.2856 82.4211 69.4155 82.3314 67.265C81.7761 66.9955 81.2295 66.7346 80.683 66.4998C79.0234 67.1174 77.3506 67.5053 75.686 67.6678L75.6947 67.6678Z" fill="#895D41"/>
</g>
<path d="M120.097 74.1968C115.316 78.4041 108.42 76.201 103.939 83.1573C99.4568 90.1136 111.51 116.298 133.052 103.976C154.599 91.6501 144.239 73.6706 139.295 69.3936C134.347 65.121 127.614 67.5828 120.097 74.1968Z" fill="#70C704"/>
<g style="mix-blend-mode:multiply" opacity="0.77">
<path d="M139.5 82.8636C137.944 85.8355 135.619 88.4985 133.156 90.7711C130.25 93.4506 127.111 96.3553 123.629 98.3534C119.531 100.706 115.371 102.478 110.616 102.693C115.82 107.325 123.501 109.43 133.044 103.967C150.904 93.7477 146.844 79.6439 142.109 72.6837C142.045 76.1691 141.169 79.6578 139.487 82.8593L139.5 82.8636Z" fill="#F9D026"/>
</g>
<path d="M119.155 80.2519C119.661 76.0127 117.363 72.433 114.589 70.1098C114.649 69.3903 115.229 68.9315 116.083 68.6162C119.632 70.8147 121.635 74.0299 123.023 77.6517C121.972 79.1199 120.716 80.072 119.151 80.2562L119.155 80.2519Z" fill="#895D41"/>
<g style="mix-blend-mode:multiply" opacity="0.46">
<path d="M119.122 77.7157C119.236 78.5309 119.259 79.3763 119.152 80.2475C120.721 80.0676 121.977 79.1156 123.024 77.643C122.402 76.0251 121.658 74.4851 120.707 73.0835C120.397 74.7044 119.874 76.2688 119.118 77.7114L119.122 77.7157Z" fill="#895D41"/>
</g>
<path d="M115.389 80.5546C118.498 81.1181 122.767 80.0098 124.671 74.7364" stroke="#1D211A" stroke-width="0.5" stroke-linecap="round" stroke-linejoin="round"/>
<g style="mix-blend-mode:screen" opacity="0.54">
<path d="M106.907 82.7409C101.858 90.0302 114.998 93.0916 123.153 87.0377C131.308 80.9839 129.834 74.8085 128.17 75.2744C126.506 75.7403 124.137 80.5492 118.252 82.5874C112.368 84.6256 108.932 79.8131 106.907 82.7409Z" fill="#F9D026"/>
</g>
<rect x="151.535" y="20.5949" width="94.0521" height="137.278" rx="20" transform="rotate(-15 151.535 20.5949)" fill="#FFA001"/>
<path d="M203.314 68.2607L208.135 68.7092L212.452 70.9029C212.452 70.9029 208.717 90.5976 206.726 97.0594C204.734 103.521 198.841 101.146 198.841 101.146C198.841 101.146 192.592 100.009 194.325 93.4735C196.057 86.9383 203.307 68.2562 203.307 68.2562L203.314 68.2607Z" fill="#815000"/>
<g style="mix-blend-mode:multiply" opacity="0.49">
<path d="M203.329 89.0221C202.835 85.9468 200.975 83.1597 198.457 81.1788C200.855 74.5948 203.315 68.2608 203.315 68.2608L208.135 68.7093L212.452 70.903C212.452 70.903 208.717 90.5977 206.726 97.0595C205.107 102.324 200.899 101.724 199.392 101.317C202.549 98.2891 204.113 93.9028 203.328 89.016L203.329 89.0221Z" fill="#815000"/>
</g>
<g style="mix-blend-mode:multiply">
<path d="M209.186 79.9013C209.186 79.9013 206.067 94.9375 204.825 97.4324C202.873 101.358 195.395 99.5438 195.526 96.1192" stroke="#895D41" stroke-width="0.5" stroke-linecap="round" stroke-linejoin="round"/>
</g>
<path d="M196.519 47.4202C199.775 38.9833 204.912 23.2635 219.91 27.6015C234.908 31.9395 230.942 47.9948 229.239 56.8858C227.536 65.7767 226.143 77.9999 220.94 82.1863C216.71 85.5858 204.752 80.5371 204.752 80.5371C204.752 80.5371 191.951 78.4286 190.166 73.2902C187.972 66.9628 193.26 55.8647 196.521 47.4262L196.519 47.4202Z" fill="#FFE2B1"/>
<g style="mix-blend-mode:multiply" opacity="0.66">
<path d="M210.612 70.5128C210.206 67.3038 208.911 64.2353 207.175 61.5253C206.515 60.4879 205.789 59.4942 205.145 58.4459C204.87 58.0001 204.635 57.5308 204.366 57.0834C204.366 57.0834 204.364 57.0774 204.363 57.0713C202.981 52.8573 199.976 49.7602 196.171 48.3187C196.292 48.0202 196.406 47.7232 196.521 47.4263C199.775 38.9834 204.912 23.2635 219.91 27.6015C234.908 31.9395 230.942 47.9949 229.239 56.8858C227.536 65.7768 226.143 78 220.94 82.1864C218.26 84.3394 212.477 83.1033 208.601 81.9018C210.34 78.4619 211.127 74.5111 210.618 70.5112L210.612 70.5128Z" fill="#FFE2B1"/>
</g>
<path d="M227.722 30.2028C234.473 35.6078 231.928 48.919 230.625 55.3651C229.169 62.5667 231.069 66.2978 228.739 68.7919C226.406 71.2938 222.798 67.0853 219.563 58.4201C216.329 49.7548 214.628 62.8592 210.428 61.5109C205.284 59.8568 205.527 46.9676 202.215 46.2057C198.904 45.4439 195.276 46.2341 198.465 39.0228C201.64 31.8086 206.128 27.0999 214.177 25.8261C221.307 24.695 226.262 29.0292 227.722 30.2028Z" fill="#FC2A2A"/>
<g style="mix-blend-mode:multiply" opacity="0.49">
<path d="M227.51 57.5115C226.985 51.7367 231.296 46.9 232.113 40.5256C232.482 45.8876 231.352 51.7225 230.618 55.3607C229.161 62.5623 231.061 66.2933 228.731 68.7875C226.789 70.8662 223.965 68.2986 221.208 62.3819C224.013 63.5002 227.989 62.8048 227.508 57.5054L227.51 57.5115Z" fill="#FC2A2A"/>
</g>
<path d="M206.741 36.4676C208.602 37.443 207.041 39.978 205.38 39.2671C203.72 38.5562 204.88 35.4922 206.741 36.4676Z" fill="#EDF0D4"/>
<path d="M213.337 44.9661C213.988 42.7591 216.612 44.361 216.535 46.1283C216.457 47.8895 212.537 47.6607 213.337 44.9661Z" fill="#EDF0D4"/>
<path d="M216.236 31.0924C218.418 29.5726 220.321 33.3873 218.265 34.2175C216.208 35.0478 214.316 32.4316 216.236 31.0924Z" fill="#EDF0D4"/>
<path d="M225.094 51.5163C226.116 51.3659 227.16 54.443 225.337 54.477C223.518 54.5033 222.809 51.8558 225.094 51.5163Z" fill="#EDF0D4"/>
<path d="M226.903 37.3895C229.095 37.1396 229.502 39.9851 227.69 40.3277C225.878 40.6703 225.131 37.5915 226.903 37.3895Z" fill="#EDF0D4"/>
<path d="M209.913 131.159C208.565 131.52 207.395 131.456 206.402 130.967C205.418 130.461 204.76 129.611 204.426 128.415C204.307 127.969 204.234 127.525 204.208 127.081L207.695 126.147C207.709 126.448 207.745 126.704 207.801 126.914C208.03 127.767 208.564 128.081 209.405 127.856C209.863 127.733 210.217 127.472 210.468 127.074C210.716 126.663 210.824 126.177 210.793 125.615L210.226 116.821L213.676 115.897L214.266 125.221C214.368 126.692 214.037 127.953 213.272 129.006C212.516 130.044 211.397 130.761 209.913 131.159Z" fill="white"/>
<path d="M221.661 128.011C220.82 128.236 220.035 128.274 219.306 128.125C218.577 127.976 217.963 127.663 217.464 127.187C216.974 126.696 216.629 126.073 216.426 125.318C216.407 125.244 216.387 125.17 216.367 125.096C216.359 125.018 216.346 124.942 216.326 124.868C216.318 124.791 216.304 124.688 216.283 124.561C216.275 124.431 216.264 124.315 216.25 124.213C216.244 124.095 216.232 123.926 216.213 123.706C216.194 123.485 216.18 123.284 216.17 123.101C216.158 122.905 216.138 122.632 216.11 122.282C216.095 121.928 216.078 121.595 216.06 121.281C216.039 120.956 216.012 120.532 215.979 120.011C215.954 119.474 215.924 118.965 215.888 118.485L219.208 117.595C219.277 118.544 219.351 119.664 219.432 120.954C219.551 122.831 219.638 123.875 219.694 124.085C219.9 124.852 220.429 125.121 221.282 124.892C221.765 124.763 222.132 124.479 222.386 124.04C222.648 123.585 222.759 123.058 222.718 122.46L222.361 116.75L225.681 115.861L226.09 122.133C226.189 123.591 225.84 124.837 225.044 125.872C224.26 126.904 223.132 127.617 221.661 128.011Z" fill="white"/>
<path d="M233.717 113.369C234.682 113.111 235.515 113.206 236.219 113.653C236.934 114.098 237.426 114.821 237.694 115.822C237.724 115.934 237.746 116.041 237.76 116.143C237.787 116.242 237.809 116.348 237.826 116.463C237.84 116.565 237.855 116.72 237.871 116.928C237.887 117.136 237.902 117.338 237.914 117.533C237.939 117.725 237.96 118.024 237.976 118.431C238.004 118.834 238.03 119.225 238.051 119.603C238.086 119.979 238.123 120.512 238.162 121.204C238.198 121.883 238.239 122.555 238.285 123.219L234.964 124.108C234.897 123.066 234.819 121.861 234.731 120.493C234.624 118.759 234.546 117.799 234.496 117.614C234.281 116.81 233.809 116.506 233.079 116.701C232.523 116.85 232.101 117.156 231.814 117.617C231.535 118.063 231.408 118.627 231.432 119.31L231.811 124.953L228.491 125.843L227.81 115.29L230.129 114.669L230.662 115.619C231.376 114.474 232.394 113.724 233.717 113.369Z" fill="white"/>
<path d="M250.023 113.712C250.162 114.231 250.231 114.836 250.231 115.525L242.737 117.533C242.817 117.83 242.923 118.079 243.057 118.282C243.203 118.481 243.377 118.634 243.577 118.739C243.778 118.844 243.999 118.904 244.242 118.919C244.484 118.933 244.754 118.901 245.05 118.821C245.916 118.59 246.502 118.081 246.809 117.297L250.166 116.397C249.971 117.695 249.441 118.811 248.578 119.745C247.715 120.679 246.634 121.319 245.336 121.667C244.013 122.022 242.815 121.879 241.742 121.239C240.669 120.598 239.961 119.635 239.616 118.349C239.149 116.606 239.339 114.991 240.187 113.505C241.047 112.015 242.379 111.029 244.185 110.545C245.57 110.174 246.801 110.294 247.88 110.906C248.971 111.515 249.685 112.451 250.023 113.712ZM244.58 113.282C244.048 113.424 243.618 113.698 243.29 114.105C242.97 114.495 242.757 114.963 242.652 115.508L246.862 114.38C246.441 113.353 245.681 112.987 244.58 113.282Z" fill="white"/>
</svg>
