<svg width="272" height="335" viewBox="0 0 272 335" fill="none" xmlns="http://www.w3.org/2000/svg">
<rect x="26.8711" y="203.046" width="127.344" height="185.87" rx="20" transform="rotate(-45 26.8711 203.046)" fill="#70C704"/>
<path d="M173.141 290.201C171.805 291.537 170.39 292.254 168.894 292.352C167.399 292.426 166.051 291.874 164.85 290.698C164.409 290.257 164.022 289.785 163.692 289.282L167.148 285.826C167.368 286.169 167.583 286.445 167.791 286.653C168.637 287.499 169.477 287.505 170.31 286.672C170.764 286.218 171.003 285.673 171.027 285.035C171.039 284.386 170.837 283.742 170.42 283.105L163.802 273.177L167.221 269.758L174.226 280.292C175.341 281.947 175.807 283.65 175.623 285.403C175.439 287.131 174.612 288.731 173.141 290.201ZM184.786 278.557C183.952 279.39 183.058 279.967 182.102 280.285C181.146 280.604 180.214 280.653 179.307 280.432C178.4 280.187 177.573 279.691 176.825 278.943C176.752 278.87 176.678 278.796 176.605 278.722C176.543 278.637 176.476 278.557 176.402 278.483C176.341 278.398 176.255 278.287 176.145 278.153C176.047 278.005 175.955 277.877 175.869 277.766C175.783 277.632 175.655 277.442 175.483 277.197C175.311 276.951 175.158 276.725 175.023 276.516C174.876 276.296 174.668 275.989 174.398 275.597C174.141 275.193 173.896 274.813 173.663 274.457C173.418 274.089 173.099 273.611 172.707 273.023C172.315 272.41 171.935 271.834 171.567 271.295L174.858 268.004C175.581 269.07 176.427 270.333 177.395 271.791C178.805 273.912 179.614 275.076 179.822 275.285C180.582 276.044 181.385 276.002 182.23 275.156C182.708 274.678 182.947 274.096 182.947 273.409C182.947 272.698 182.721 272.006 182.267 271.332L177.983 264.879L181.274 261.588L185.999 268.666C187.102 270.308 187.537 272.006 187.304 273.759C187.084 275.499 186.244 277.098 184.786 278.557ZM191.327 271.391L180.517 255.175L183.807 251.885L194.618 268.1L191.327 271.391ZM195.479 247.383L199.082 243.78L202.796 259.848C203.323 262.189 203.458 264.003 203.2 265.29C202.955 266.565 202.214 267.821 200.976 269.059L199.615 270.42L197.336 267L198.181 266.154C198.831 265.505 199.217 264.898 199.339 264.334C199.474 263.758 199.407 262.955 199.137 261.926L187.739 255.123L191.158 251.704L197.961 256.227L195.479 247.383Z" fill="white"/>
<path d="M90.3469 196.731C74.0755 209.393 95.8069 223.246 102.487 231.814C109.167 240.381 111.993 268.648 138.298 248.68C164.603 228.712 153.71 208.792 137.959 207.121C122.208 205.45 114.55 202.763 108.43 199.972C102.31 197.182 97.2952 191.311 90.3469 196.719L90.3469 196.731Z" fill="#FFD18D"/>
<g style="mix-blend-mode:multiply" opacity="0.49">
<path d="M137.959 207.133C122.208 205.462 114.55 202.775 108.43 199.984C102.31 197.193 97.2949 191.323 90.3466 196.731C86.3418 199.842 84.6439 203.033 84.4487 206.203C91.5822 207.404 98.343 210.788 103.457 216.078C109.911 222.755 113.668 231.506 115.969 240.373C117.22 245.188 118.008 250.078 118.578 254.998C123.165 256.665 129.379 255.447 138.292 248.674C164.591 228.712 153.704 208.786 137.959 207.121L137.959 207.133Z" fill="#FFD18D"/>
</g>
<path d="M87.4745 199.239C105.188 202.134 110.759 203.028 116.405 194.008C122.052 184.988 124.979 179.826 131.095 178.978C137.21 178.129 141.194 177.46 133.831 175.16C126.473 172.855 119.109 170.556 108.674 176.265C98.2395 181.973 87.4803 199.245 87.4803 199.245L87.4745 199.239Z" fill="#98DB0A"/>
<g style="mix-blend-mode:multiply" opacity="0.65">
<path d="M133.837 175.154C133.766 175.131 133.702 175.113 133.631 175.09C132.363 174.888 131.06 174.804 129.721 174.873C128.7 174.93 127.362 175.175 126.153 175.49C124.516 175.916 124.405 175.946 123.59 176.42C123.203 176.642 122.827 176.888 122.452 177.135C122.387 177.176 122.346 177.205 122.305 177.222C122.223 177.293 122.124 177.369 122.006 177.463C121.138 178.166 120.282 178.892 119.444 179.625C112.116 185.99 102.619 194.852 92.5479 191.968C89.466 196.049 87.4805 199.222 87.4805 199.222C105.194 202.116 110.765 203.01 116.411 193.99C122.058 184.97 124.985 179.809 131.101 178.96C137.216 178.112 141.2 177.442 133.837 175.143L133.837 175.154Z" fill="#98DB0A"/>
</g>
<g style="mix-blend-mode:multiply" opacity="0.69">
<path d="M137.807 177.238C132.668 178.757 127.285 174.828 115.74 179.685C104.195 184.541 106.224 191.622 87.4805 199.245" stroke="#454F3F" stroke-width="0.5" stroke-linecap="round" stroke-linejoin="round"/>
</g>
<path d="M73.081 198.879C79.3832 197.444 87.886 204.188 87.886 204.188C89.8934 204.109 91.0834 202.93 90.962 200.019C84.9355 197.064 79.2454 195.407 74.1985 196.269C73.1254 197.059 72.6805 197.928 73.0692 198.879L73.081 198.879Z" fill="#895D41"/>
<g style="mix-blend-mode:multiply" opacity="0.45">
<path d="M81.9702 200.558C85.3241 202.154 87.8802 204.182 87.8802 204.182C89.8876 204.103 91.0775 202.925 90.9562 200.013C90.2043 199.648 89.4642 199.295 88.7242 198.977C86.4772 199.813 84.2122 200.338 81.9585 200.558L81.9702 200.558Z" fill="#895D41"/>
</g>
<path d="M142.089 209.398C135.617 215.095 126.28 212.112 120.211 221.531C114.143 230.949 130.463 266.402 159.631 249.719C188.804 233.03 174.777 208.686 168.083 202.895C161.384 197.11 152.267 200.443 142.089 209.398Z" fill="#70C704"/>
<g style="mix-blend-mode:multiply" opacity="0.77">
<path d="M168.361 221.133C166.253 225.157 163.106 228.762 159.77 231.839C155.837 235.467 151.587 239.4 146.871 242.106C141.322 245.291 135.691 247.69 129.252 247.981C136.298 254.253 146.698 257.103 159.619 249.707C183.801 235.87 178.304 216.774 171.893 207.35C171.806 212.069 170.621 216.792 168.343 221.127L168.361 221.133Z" fill="#F9D026"/>
</g>
<path d="M140.815 217.597C141.5 211.857 138.388 207.01 134.633 203.865C134.714 202.89 135.499 202.269 136.655 201.842C141.461 204.819 144.173 209.172 146.052 214.076C144.628 216.064 142.928 217.353 140.809 217.603L140.815 217.597Z" fill="#895D41"/>
<g style="mix-blend-mode:multiply" opacity="0.46">
<path d="M140.769 214.163C140.924 215.267 140.954 216.411 140.809 217.591C142.934 217.347 144.634 216.058 146.052 214.064C145.21 211.874 144.203 209.789 142.915 207.891C142.495 210.086 141.788 212.204 140.764 214.157L140.769 214.163Z" fill="#895D41"/>
</g>
<path d="M135.715 218.007C139.925 218.77 145.704 217.269 148.283 210.129" stroke="#1D211A" stroke-width="0.5" stroke-linecap="round" stroke-linejoin="round"/>
<g style="mix-blend-mode:screen" opacity="0.54">
<path d="M124.231 220.967C117.395 230.836 135.186 234.981 146.228 226.785C157.269 218.588 155.274 210.226 153.021 210.857C150.767 211.488 147.56 217.999 139.592 220.759C131.625 223.519 126.973 217.003 124.231 220.967Z" fill="#F9D026"/>
</g>
<rect x="34.6787" y="86.9774" width="127.344" height="185.87" rx="20" transform="rotate(-30 34.6787 86.9774)" fill="#FFA001"/>
<path d="M119.102 131.171L125.563 130.068L131.978 131.425C131.978 131.425 133.995 158.491 133.655 167.64C133.315 176.789 124.775 175.748 124.775 175.748C124.775 175.748 116.205 176.45 116.18 167.296C116.155 158.142 119.09 131.168 119.09 131.168L119.102 131.171Z" fill="#815000"/>
<g style="mix-blend-mode:multiply" opacity="0.49">
<path d="M126.396 158.318C124.673 154.469 121.263 151.476 117.275 149.768C118.105 140.317 119.102 131.171 119.102 131.171L125.564 130.068L131.978 131.425C131.978 131.425 133.995 158.491 133.655 167.64C133.382 175.093 127.67 175.783 125.555 175.778C128.624 170.711 129.131 164.427 126.392 158.311L126.396 158.318Z" fill="#815000"/>
</g>
<g style="mix-blend-mode:multiply">
<path d="M130.859 144.338C130.859 144.338 132.049 165.096 131.3 168.793C130.122 174.612 119.706 174.86 118.678 170.335" stroke="#895D41" stroke-width="0.5" stroke-linecap="round" stroke-linejoin="round"/>
</g>
<path d="M102.912 106.296C104.213 94.1215 105.422 71.7624 126.557 72.1799C147.693 72.5975 148.132 94.985 149.021 107.21C149.909 119.434 152.371 135.908 147.033 143.207C142.692 149.135 125.284 146.723 125.284 146.723C125.284 146.723 107.803 148.451 103.668 142.357C98.5814 134.85 101.607 118.483 102.916 106.304L102.912 106.296Z" fill="#FFE2B1"/>
<g style="mix-blend-mode:multiply" opacity="0.66">
<path d="M129.435 131.559C127.779 127.505 125.01 123.945 121.79 121.01C120.563 119.884 119.266 118.839 118.057 117.693C117.541 117.207 117.068 116.675 116.56 116.185C116.56 116.185 116.556 116.177 116.551 116.17C113.268 111.143 108.252 108.145 102.771 107.594C102.824 107.161 102.87 106.732 102.916 106.304C104.213 94.1215 105.422 71.7624 126.557 72.1799C147.693 72.5975 148.132 94.9849 149.021 107.21C149.909 119.434 152.371 135.908 147.033 143.207C144.282 146.962 136.287 147.372 130.796 147.159C131.865 142.05 131.509 136.608 129.442 131.555L129.435 131.559Z" fill="#FFE2B1"/>
</g>
<path d="M137.686 72.8442C148.409 77.5475 149.745 95.8482 150.301 104.735C150.919 114.664 154.711 118.878 152.539 122.956C150.364 127.046 144.171 122.806 136.904 112.607C129.637 102.408 132.005 120.142 126.039 119.851C118.732 119.49 114.534 102.548 109.935 102.712C105.337 102.876 100.87 105.181 102.513 94.6321C104.138 84.0845 108.357 76.3537 118.438 71.867C127.365 67.8892 135.365 71.8212 137.686 72.8442Z" fill="#FC2A2A"/>
<g style="mix-blend-mode:multiply" opacity="0.49">
<path d="M146.978 108.634C144.269 101.265 148.212 93.429 147.046 84.806C149.407 91.6895 149.974 99.7166 150.289 104.732C150.908 114.661 154.7 118.875 152.527 122.953C150.716 126.352 146.122 123.984 140.443 117.212C144.503 117.692 149.46 115.389 146.974 108.627L146.978 108.634Z" fill="#FC2A2A"/>
</g>
<path d="M112.441 88.3903C115.216 89.014 114.063 92.8763 111.643 92.5283C109.222 92.1803 109.666 87.7666 112.441 88.3903Z" fill="#EDF0D4"/>
<path d="M124.045 97.1935C124.124 94.0788 128.117 95.2543 128.636 97.5925C129.151 99.9233 123.944 100.998 124.045 97.1935Z" fill="#EDF0D4"/>
<path d="M122.975 78.0331C125.297 75.2806 129.122 79.6028 126.724 81.4092C124.325 83.2157 120.933 80.4573 122.975 78.0331Z" fill="#EDF0D4"/>
<path d="M141.718 101.64C143.001 101.085 145.446 104.743 143.073 105.427C140.704 106.099 138.848 102.885 141.718 101.64Z" fill="#EDF0D4"/>
<path d="M139.133 82.5305C141.913 81.4354 143.441 85.0144 141.192 86.0973C138.943 87.1803 136.886 83.4155 139.133 82.5305Z" fill="#EDF0D4"/>
<path d="M149.772 211.12C148.136 212.064 146.583 212.39 145.113 212.098C143.65 211.782 142.49 210.9 141.635 209.453C141.323 208.913 141.072 208.357 140.882 207.786L145.115 205.342C145.24 205.731 145.376 206.052 145.523 206.308C146.121 207.343 146.93 207.567 147.951 206.977C148.506 206.657 148.878 206.192 149.067 205.582C149.247 204.958 149.218 204.284 148.981 203.561L145.157 192.258L149.345 189.84L153.385 201.829C154.034 203.716 154.043 205.482 153.411 207.127C152.787 208.749 151.574 210.08 149.772 211.12ZM164.034 202.886C163.013 203.475 162 203.8 160.994 203.86C159.988 203.921 159.075 203.727 158.256 203.279C157.444 202.808 156.773 202.114 156.244 201.198C156.192 201.108 156.14 201.018 156.088 200.928C156.051 200.829 156.007 200.735 155.955 200.645C155.918 200.546 155.864 200.417 155.792 200.259C155.735 200.091 155.68 199.943 155.625 199.814C155.578 199.662 155.502 199.445 155.4 199.164C155.298 198.883 155.208 198.624 155.132 198.388C155.047 198.137 154.925 197.787 154.766 197.338C154.622 196.881 154.484 196.45 154.351 196.047C154.209 195.628 154.025 195.084 153.799 194.414C153.578 193.721 153.361 193.066 153.145 192.45L157.175 190.123C157.598 191.34 158.088 192.778 158.646 194.438C159.459 196.851 159.939 198.185 160.086 198.44C160.623 199.371 161.41 199.537 162.446 198.939C163.031 198.601 163.413 198.101 163.59 197.438C163.774 196.751 163.734 196.023 163.471 195.255L161.003 187.913L165.034 185.586L167.766 193.646C168.406 195.518 168.387 197.27 167.708 198.903C167.045 200.527 165.82 201.854 164.034 202.886ZM174.67 179.512C175.841 178.836 176.965 178.668 178.041 179.007C179.133 179.337 180.03 180.11 180.732 181.326C180.81 181.461 180.876 181.593 180.93 181.722C180.999 181.842 181.066 181.974 181.129 182.118C181.183 182.247 181.257 182.444 181.351 182.71C181.444 182.977 181.533 183.235 181.618 183.486C181.718 183.729 181.85 184.113 182.014 184.639C182.192 185.156 182.362 185.659 182.524 186.146C182.7 186.625 182.935 187.31 183.229 188.2C183.515 189.076 183.804 189.94 184.095 190.793L180.065 193.12C179.612 191.78 179.088 190.231 178.493 188.473C177.746 186.243 177.307 185.015 177.177 184.79C176.614 183.814 175.889 183.582 175.004 184.093C174.328 184.483 173.883 185.03 173.669 185.734C173.462 186.414 173.493 187.197 173.764 188.081L176.237 195.33L172.207 197.657L167.618 184.094L170.433 182.469L171.463 183.525C171.995 181.777 173.064 180.439 174.67 179.512ZM196.116 174.246C196.48 174.876 196.782 175.642 197.023 176.544L187.926 181.796C188.134 182.156 188.361 182.446 188.607 182.664C188.868 182.873 189.148 183.012 189.447 183.079C189.747 183.147 190.057 183.148 190.379 183.082C190.702 183.016 191.043 182.879 191.403 182.671C192.454 182.064 193.042 181.194 193.168 180.06L197.244 177.707C197.443 179.474 197.142 181.119 196.34 182.642C195.539 184.166 194.35 185.383 192.774 186.293C191.168 187.22 189.551 187.453 187.923 186.991C186.296 186.53 185.032 185.519 184.13 183.958C182.908 181.841 182.591 179.662 183.179 177.422C183.781 175.172 185.179 173.415 187.37 172.15C189.052 171.179 190.705 170.905 192.33 171.328C193.97 171.742 195.232 172.714 196.116 174.246ZM188.846 175.59C188.201 175.963 187.735 176.473 187.447 177.119C187.166 177.741 187.052 178.428 187.105 179.178L192.216 176.227C191.306 175.031 190.182 174.819 188.846 175.59Z" fill="white"/>
</svg>
