<svg width="320" height="165" viewBox="0 0 320 165" fill="none" xmlns="http://www.w3.org/2000/svg">
<path d="M127.523 129.2L132.56 130.528L123.544 148.457L119.305 147.34L116.631 135.178L111.544 145.295L106.534 143.976L115.55 126.046L119.954 127.206L122.55 139.116L127.523 129.2Z" fill="white"/>
<path d="M126.929 149.349L133.885 135.518L138.811 136.816L131.856 150.647L126.929 149.349Z" fill="white"/>
<path d="M141.106 130.981L145.041 132.018L139.691 135.307L134.434 133.922L133.261 128.914L137.197 129.951L138.2 132.333L141.106 130.981Z" fill="white"/>
<path d="M151.07 139.553C152.52 139.934 153.539 140.667 154.129 141.751C154.742 142.821 154.857 144.06 154.473 145.467C154.434 145.612 154.385 145.754 154.328 145.893C154.293 146.02 154.245 146.161 154.182 146.319C154.12 146.477 154.021 146.692 153.888 146.967C153.759 147.223 153.628 147.488 153.494 147.762C153.36 148.036 153.162 148.439 152.9 148.969C152.642 149.481 152.382 150.002 152.12 150.533C151.862 151.045 151.502 151.753 151.039 152.656C150.6 153.546 150.15 154.442 149.687 155.345L144.76 154.047C145.432 152.735 146.205 151.198 147.079 149.437C148.304 147.033 148.954 145.696 149.027 145.425C149.332 144.306 148.934 143.602 147.833 143.312C147.411 143.201 146.997 143.169 146.591 143.217C146.203 143.269 145.834 143.394 145.485 143.592C145.136 143.791 144.807 144.062 144.497 144.405C144.192 144.731 143.924 145.134 143.695 145.615L140.081 152.814L135.154 151.516L144.621 132.69L149.548 133.988L146.665 139.697C148.115 139.209 149.584 139.161 151.07 139.553Z" fill="white"/>
<path d="M171.714 145.485L175.485 146.478L168.53 160.31L165.007 159.382L165.062 158.207C163.29 158.862 161.515 158.955 159.735 158.486C157.845 157.988 156.438 156.979 155.515 155.459C154.615 153.927 154.43 152.186 154.961 150.237C155.423 148.541 156.257 147.107 157.461 145.936C158.665 144.764 160.05 143.978 161.614 143.578C163.202 143.165 164.794 143.168 166.39 143.589C168.262 144.082 169.606 145.103 170.423 146.653L171.714 145.485ZM162.216 154.469C163.298 154.754 164.356 154.588 165.39 153.971C166.442 153.359 167.118 152.502 167.418 151.402C167.639 150.59 167.55 149.87 167.15 149.243C166.756 148.597 166.137 148.163 165.293 147.941C164.192 147.651 163.124 147.814 162.091 148.432C161.081 149.036 160.423 149.897 160.118 151.016C160.01 151.413 159.973 151.799 160.008 152.176C160.062 152.558 160.176 152.897 160.35 153.194C160.53 153.474 160.774 153.732 161.084 153.968C161.416 154.191 161.794 154.358 162.216 154.469Z" fill="white"/>
<path d="M172.258 139.189L176.194 140.226L170.843 143.515L165.586 142.13L164.414 137.122L168.35 138.159L169.353 140.541L172.258 139.189Z" fill="white"/>
<path d="M179.452 163.681C177.379 163.134 175.833 162.06 174.814 160.457C173.796 158.854 173.552 157.079 174.083 155.13C174.535 153.47 175.359 152.072 176.553 150.937C177.771 149.788 179.201 149.014 180.844 148.615C182.486 148.217 184.17 148.244 185.895 148.699C187.968 149.245 189.514 150.32 190.533 151.922C191.552 153.525 191.793 155.31 191.257 157.277C190.805 158.936 189.97 160.341 188.752 161.49C187.557 162.625 186.13 163.39 184.469 163.784C182.831 164.165 181.159 164.13 179.452 163.681ZM181.087 159.412C182.207 159.707 183.262 159.55 184.254 158.941C185.251 158.314 185.904 157.433 186.214 156.296C186.431 155.502 186.355 154.805 185.987 154.206C185.638 153.611 185.06 153.207 184.252 152.994C183.115 152.695 182.047 152.858 181.051 153.485C180.077 154.099 179.438 154.965 179.133 156.084C178.99 156.607 178.966 157.094 179.06 157.544C179.172 157.999 179.4 158.388 179.745 158.71C180.089 159.033 180.537 159.267 181.087 159.412Z" fill="white"/>
<path d="M196.131 75.6108C199.333 75.9084 202.316 76.1866 205.589 76.49C206.024 74.142 206.513 71.8741 206.842 69.5864C207.162 67.3846 208.189 66.8109 210.062 68.0469C212.976 69.9715 215.178 72.5508 216.639 75.705C217.424 77.3999 217.401 78.6393 215.584 79.4567C214.936 79.7484 214.351 80.3585 213.934 80.9578C212.426 83.1167 211.002 85.3339 209.442 87.6854C218.127 89.3341 226.567 90.9891 235.528 91.211C235.049 89.1753 234.727 87.2406 234.124 85.3977C233.573 83.7163 232.708 82.1375 232.001 80.5063C231.556 79.4759 230.75 78.3782 231.537 77.2948C232.378 76.137 233.773 76.5763 234.861 76.8318C236.231 77.153 237.502 77.8704 238.839 78.3501C239.209 78.482 239.796 78.554 240.057 78.3552C243.566 75.7102 247.049 73.0286 249.836 69.5871C250.245 69.0836 250.565 68.5141 251.109 67.7028C249.947 67.6111 249.091 67.4374 248.247 67.4897C243.344 67.7982 238.432 68.052 233.544 68.5413C230.939 68.8038 228.674 68.305 226.874 66.4789C225.467 65.0531 224.269 63.4115 223.102 61.7781C222.767 61.3081 222.573 60.273 222.846 59.956C223.209 59.5355 224.137 59.3418 224.755 59.4482C226.944 59.822 229.085 60.4905 231.278 60.8159C238.073 61.8306 244.894 62.5407 251.781 61.9347C251.9 61.9238 252.022 61.9207 252.134 61.885C257.15 60.3549 260.538 62.9211 263.417 66.4912C264.522 67.8623 265.413 69.4546 266.161 71.0543C267.198 73.2722 266.376 74.9004 263.958 75.1932C256.047 76.154 249.221 79.9258 242.201 83.2163C242.099 83.2644 242.02 83.3643 241.872 83.4853C243.498 85.9758 244.061 88.7682 244.047 91.9665C249.08 92.44 254.04 93.002 259.014 93.3385C262.127 93.55 265.11 93.8873 267.487 96.1694C269.073 97.6921 270.084 99.5623 270.704 101.639C271.08 102.903 270.53 103.824 269.172 103.864C267.485 103.913 265.759 103.801 264.102 103.478C257.212 102.14 250.341 100.696 243.38 99.2763C242.884 102.037 242.502 104.557 241.97 107.049C240.351 114.664 238.713 122.277 235.615 129.473C233.617 134.116 231.191 138.483 227.012 141.598C225.045 143.063 222.867 144.072 220.4 144.362C217.958 144.648 216.769 143.749 216.557 141.33C216.21 137.376 214.624 133.861 212.8 130.416C212.04 128.983 211.271 127.552 210.614 126.068C210.405 125.593 210.548 124.962 210.529 124.406C211.088 124.507 211.728 124.469 212.195 124.728C214.06 125.772 215.841 126.974 217.722 127.992C218.793 128.571 219.989 128.927 221.143 129.342C222.493 129.825 223.632 129.386 224.359 128.247C225.457 126.522 226.609 124.792 227.407 122.922C230.403 115.898 232.916 108.706 234.295 101.164C234.457 100.277 234.553 99.3756 234.704 98.2952C232.809 98.0889 230.98 97.8707 229.148 97.6978C225.198 97.3245 221.248 96.9182 217.294 96.6355C214.776 96.4555 212.889 95.1732 211.192 93.5126C210.12 92.4616 209.168 91.2922 208.226 90.2466C204.816 94.7569 201.361 99.3271 197.896 103.911C199.513 106.36 201.362 109.025 203.061 111.784C204.334 113.856 205.276 116.084 205.039 118.616C204.818 121.015 203.685 122.969 201.98 124.597C200.958 125.572 199.748 125.575 198.829 124.503C198.019 123.555 197.347 122.448 196.802 121.322C194.977 117.545 193.235 113.729 191.463 109.928C191.262 109.497 191.072 109.063 190.972 108.833C187.834 110.706 184.945 112.662 181.853 114.229C175.642 117.376 169.054 119.104 161.995 118.481C161.014 118.395 160.048 118.113 159.074 117.924C159.04 117.755 159.01 117.586 158.976 117.416C159.571 117.028 160.125 116.548 160.767 116.264C163.813 114.92 166.916 113.704 169.938 112.311C175.531 109.736 180.909 106.782 185.847 103.085C186.193 102.827 186.531 102.56 186.982 102.219C185.427 99.7964 183.896 97.4036 182.355 95.0145C181.903 94.3166 181.416 93.6387 180.963 92.9438C179.945 91.383 179.786 89.7509 180.734 88.1304C181.851 86.2241 183.05 84.3692 184.212 82.4914C184.432 82.1374 184.64 81.7771 184.975 81.2178C183.273 81.237 181.784 81.2346 180.295 81.2715C178.354 81.3216 176.393 81.2616 174.473 81.5042C170.825 81.9621 168.195 80.5035 166.391 77.4836C165.485 75.9694 164.695 74.3451 164.14 72.679C163.624 71.1349 164.505 70.309 166.121 70.67C167.392 70.9549 168.619 71.4572 169.871 71.8385C175.634 73.5927 181.587 74.3486 187.537 75.0745C187.866 75.1135 188.433 74.7543 188.585 74.4344C190.989 69.3728 193.373 64.2994 195.698 59.2003C197.241 55.8153 198.579 52.3461 199.018 48.6163C199.166 47.3646 199.179 46.0997 199.252 44.8413C199.281 44.3279 199.271 43.8108 199.347 43.3067C199.58 41.7601 200.59 41.067 201.969 41.7479C205.736 43.6027 208.747 46.2842 210.451 50.2048C210.973 51.4033 210.975 52.6884 209.978 53.6306C207.084 56.3651 205.154 59.7545 203.207 63.146C201.027 66.9434 198.866 70.7527 196.696 74.5595C196.541 74.8294 196.404 75.1103 196.132 75.6208L196.131 75.6108ZM203.48 81.4471C200.018 81.4075 196.86 81.3512 193.702 81.3671C193.419 81.3666 193.051 81.7563 192.873 82.0527C191.187 84.852 189.489 87.648 187.918 90.5109C187.622 91.0479 187.603 92.0914 187.94 92.5553C189.183 94.2746 190.626 95.8477 192.103 97.6035C196.416 92.6371 200.301 87.4809 203.481 81.444L203.48 81.4471Z" fill="#FC2A2A"/>
<path d="M75.2618 44.2498C67.6328 51.6703 58.4438 55.2351 48.202 56.4333C48.0694 56.2274 47.936 56.0245 47.8064 55.8193C48.3265 55.2803 48.7785 54.6509 49.3778 54.2216C52.4378 52.0363 55.5363 49.9039 58.6174 47.7504C68.4373 40.8842 77.308 33.0229 84.4008 23.3121C86.7987 20.0317 88.7314 16.5447 89.4946 12.479C89.9136 10.2513 91.137 9.79254 92.9646 11.1737C96.1133 13.5511 98.5553 16.5618 100.311 20.0801C101.164 21.79 100.781 22.3592 99.3532 23.6054C94.2975 28.0253 89.3145 32.5302 84.3164 37.0179C83.3788 37.8613 82.5026 38.7703 81.6164 39.6307C82.2933 41.0148 82.9832 42.3008 83.5621 43.6325C84.451 45.6764 84.2242 47.5558 83.2234 49.6309C81.8247 52.5268 80.7673 55.6125 79.8164 58.694C77.3177 66.7649 75.0432 74.909 72.5054 82.9662C71.1172 87.3725 69.3152 91.6384 66.5317 95.3987C66.0879 95.9976 65.5873 96.5746 65.0234 97.056C63.7915 98.1122 62.5621 97.9171 61.9737 96.3994C60.3738 92.2871 59.6765 88.0528 61.5045 83.8496C62.3633 81.8741 63.7456 80.134 64.6827 78.186C67.4684 72.4008 69.3824 66.2904 71.1274 60.1346C72.5369 55.1572 73.7957 50.1395 75.113 45.1374C75.1908 44.8469 75.2133 44.5416 75.2635 44.2437L75.2618 44.2498Z" fill="#FC2A2A"/>
<path d="M109.705 45.5446C113.306 45.6573 116.905 45.8353 120.504 45.8688C125.024 45.9098 129.549 45.8772 133.989 44.8644C134.529 44.7405 135.081 44.636 135.596 44.4364C138.464 43.3138 140.987 44.1014 143.279 45.8757C146.036 48.0072 148.217 50.676 150.14 53.5574C150.338 53.8529 150.506 54.1701 150.657 54.4924C151.593 56.4734 150.993 57.7876 148.895 58.3657C148.514 58.4702 148.123 58.5653 147.73 58.5912C141.867 58.9669 136.523 60.9826 131.372 63.6302C130.531 64.0636 129.65 64.4502 128.745 64.7288C128.264 64.8753 127.694 64.742 127.165 64.7379C127.207 64.1756 127.1 63.5507 127.316 63.0676C127.713 62.1745 128.257 61.3371 128.815 60.523C130.399 58.2111 132.019 55.9283 133.621 53.6275C133.863 53.2793 134.066 52.9012 134.426 52.3063C133.577 52.2295 132.933 52.1357 132.288 52.1202C128.324 52.0116 124.357 51.827 120.395 51.8468C117.188 51.8626 113.981 52.075 110.784 52.3129C108.502 52.4813 106.869 51.6046 105.707 49.704C105.589 49.5082 105.435 49.3296 105.302 49.1528C103.508 50.3993 101.809 51.6875 100.005 52.8101C96.8548 54.768 93.4213 56.1093 89.7833 56.8616C89.1205 56.9987 88.375 56.7563 87.6675 56.6912C87.9984 56.0589 88.1903 55.2812 88.6807 54.8161C91.6825 51.9499 94.7285 49.1283 97.8078 46.3419C103.626 41.0809 109.169 35.5791 113.507 28.9939C115.761 25.5735 117.614 22.0029 118.177 17.8475C118.525 15.2698 119.683 14.7607 121.945 16.1305C124.968 17.9595 127.507 20.3474 129.435 23.3119C130.692 25.245 130.412 26.2908 128.654 27.786C126.849 29.3212 125.104 30.928 123.356 32.531C119.165 36.3827 114.992 40.2494 110.808 44.1097C110.409 44.4781 109.998 44.8332 109.592 45.193C109.631 45.3151 109.672 45.4341 109.709 45.5554L109.705 45.5446Z" fill="#FC2A2A"/>
<path d="M106.795 81.6242C107.892 75.9307 109.1 70.2537 110.032 64.5288C110.375 62.4249 110.145 60.207 110.015 58.0485C109.866 55.5801 110.887 54.5984 113.28 55.3184C116.469 56.2809 119.166 58.0818 121.329 60.5951C122.782 62.282 122.57 63.3428 121.506 65.2962C120.287 67.5324 119.2 69.8925 118.448 72.3192C115.874 80.6223 113.807 89.0613 112.229 97.6182C111.064 103.933 107.627 108.681 102.086 111.926C101.578 112.222 101.015 112.455 100.449 112.611C98.7627 113.077 97.5761 112.513 96.917 110.878C96.4006 109.596 96.1524 108.186 95.5067 106.981C93.9206 104.022 92.1772 101.146 90.4953 98.2377C90.0813 97.5205 89.6199 96.8201 89.2695 96.074C89.1209 95.7556 89.0393 95.1504 89.213 94.9938C89.472 94.7649 90.0401 94.6615 90.384 94.7799C91.9184 95.3123 93.4213 95.9378 94.9307 96.5389C96.2591 97.0653 97.598 97.565 98.9017 98.147C99.9877 98.6313 100.826 98.3446 101.299 97.3638C102.169 95.5583 103.086 93.7459 103.679 91.8402C104.733 88.4487 105.555 84.9854 106.475 81.5516C106.581 81.5735 106.688 81.5954 106.794 81.6173L106.795 81.6242Z" fill="#FC2A2A"/>
<path d="M140.689 98.791C139.917 100.197 139.248 101.672 138.351 102.992C137.273 104.578 135.805 104.771 134.415 103.442C133.284 102.362 132.259 101.097 131.472 99.7528C128.222 94.2119 125.484 88.4213 123.267 82.3936C122.97 81.5833 122.731 80.7294 122.634 79.8773C122.461 78.3955 123.231 77.6482 124.612 78.1755C126.408 78.8632 128.163 79.7399 129.788 80.7686C133.015 82.8064 135.942 85.2229 138.369 88.2034C140.923 91.3389 141.485 94.8487 140.692 98.7918L140.689 98.791Z" fill="#FC2A2A"/>
<path d="M95.3272 72.4459C93.3501 79.0868 89.4643 84.3051 83.9599 88.395C83.4251 88.7925 82.8271 89.1304 82.2171 89.4028C80.3363 90.2491 79.0894 89.6397 78.7653 87.6029C78.2425 84.3035 78.8653 81.2292 80.9665 78.5641C81.572 77.7923 82.3269 77.1392 83.0055 76.4264C85.5875 73.7131 88.133 70.9639 90.7613 68.2991C91.6066 67.4441 92.5971 66.6739 93.6473 66.0869C95.0237 65.3152 95.9622 65.8583 95.9155 67.4222C95.8639 69.1027 95.5346 70.7743 95.3264 72.4489L95.3272 72.4459Z" fill="#FC2A2A"/>
<path d="M196.131 75.6108C199.333 75.9084 202.316 76.1866 205.589 76.49C206.024 74.142 206.513 71.8741 206.842 69.5864C207.162 67.3846 208.189 66.8109 210.062 68.0469C212.976 69.9715 215.178 72.5508 216.639 75.705C217.424 77.3999 217.401 78.6393 215.584 79.4567C214.936 79.7484 214.351 80.3585 213.934 80.9578C212.426 83.1167 211.002 85.3339 209.442 87.6854C218.127 89.3341 226.567 90.9891 235.528 91.211C235.049 89.1753 234.727 87.2406 234.124 85.3977C233.573 83.7163 232.708 82.1375 232.001 80.5063C231.556 79.4759 230.75 78.3782 231.537 77.2948C232.378 76.137 233.773 76.5763 234.861 76.8318C236.231 77.153 237.502 77.8704 238.839 78.3501C239.209 78.482 239.796 78.554 240.057 78.3552C243.566 75.7102 247.049 73.0286 249.836 69.5871C250.245 69.0836 250.565 68.5141 251.109 67.7028C249.947 67.6111 249.091 67.4374 248.247 67.4897C243.344 67.7982 238.432 68.052 233.544 68.5413C230.939 68.8038 228.674 68.305 226.874 66.4789C225.467 65.0531 224.269 63.4115 223.102 61.7781C222.767 61.3081 222.573 60.273 222.846 59.956C223.209 59.5355 224.137 59.3418 224.755 59.4482C226.944 59.822 229.085 60.4905 231.278 60.8159C238.073 61.8306 244.894 62.5407 251.781 61.9347C251.9 61.9238 252.022 61.9207 252.134 61.885C257.15 60.3549 260.538 62.9211 263.417 66.4912C264.522 67.8623 265.413 69.4546 266.161 71.0543C267.198 73.2722 266.376 74.9004 263.958 75.1932C256.047 76.154 249.221 79.9258 242.201 83.2163C242.099 83.2644 242.02 83.3643 241.872 83.4853C243.498 85.9758 244.061 88.7682 244.047 91.9665C249.08 92.44 254.04 93.002 259.014 93.3385C262.127 93.55 265.11 93.8873 267.487 96.1694C269.073 97.6921 270.084 99.5623 270.704 101.639C271.08 102.903 270.53 103.824 269.172 103.864C267.485 103.913 265.759 103.801 264.102 103.478C257.212 102.14 250.341 100.696 243.38 99.2763C242.884 102.037 242.502 104.557 241.97 107.049C240.351 114.664 238.713 122.277 235.615 129.473C233.617 134.116 231.191 138.483 227.012 141.598C225.045 143.063 222.867 144.072 220.4 144.362C217.958 144.648 216.769 143.749 216.557 141.33C216.21 137.376 214.624 133.861 212.8 130.416C212.04 128.983 211.271 127.552 210.614 126.068C210.405 125.593 210.548 124.962 210.529 124.406C211.088 124.507 211.728 124.469 212.195 124.728C214.06 125.772 215.841 126.974 217.722 127.992C218.793 128.571 219.989 128.927 221.143 129.342C222.493 129.825 223.632 129.386 224.359 128.247C225.457 126.522 226.609 124.792 227.407 122.922C230.403 115.898 232.916 108.706 234.295 101.164C234.457 100.277 234.553 99.3756 234.704 98.2952C232.809 98.0889 230.98 97.8707 229.148 97.6978C225.198 97.3245 221.248 96.9182 217.294 96.6355C214.776 96.4555 212.889 95.1732 211.192 93.5126C210.12 92.4616 209.168 91.2922 208.226 90.2466C204.816 94.7569 201.361 99.3271 197.896 103.911C199.513 106.36 201.362 109.025 203.061 111.784C204.334 113.856 205.276 116.084 205.039 118.616C204.818 121.015 203.685 122.969 201.98 124.597C200.958 125.572 199.748 125.575 198.829 124.503C198.019 123.555 197.347 122.448 196.802 121.322C194.977 117.545 193.235 113.729 191.463 109.928C191.262 109.497 191.072 109.063 190.972 108.833C187.834 110.706 184.945 112.662 181.853 114.229C175.642 117.376 169.054 119.104 161.995 118.481C161.014 118.395 160.048 118.113 159.074 117.924C159.04 117.755 159.01 117.586 158.976 117.416C159.571 117.028 160.125 116.548 160.767 116.264C163.813 114.92 166.916 113.704 169.938 112.311C175.531 109.736 180.909 106.782 185.847 103.085C186.193 102.827 186.531 102.56 186.982 102.219C185.427 99.7964 183.896 97.4036 182.355 95.0145C181.903 94.3166 181.416 93.6387 180.963 92.9438C179.945 91.383 179.786 89.7509 180.734 88.1304C181.851 86.2241 183.05 84.3692 184.212 82.4914C184.432 82.1374 184.64 81.7771 184.975 81.2178C183.273 81.237 181.784 81.2346 180.295 81.2715C178.354 81.3216 176.393 81.2616 174.473 81.5042C170.825 81.9621 168.195 80.5035 166.391 77.4836C165.485 75.9694 164.695 74.3451 164.14 72.679C163.624 71.1349 164.505 70.309 166.121 70.67C167.392 70.9549 168.619 71.4572 169.871 71.8385C175.634 73.5927 181.587 74.3486 187.537 75.0745C187.866 75.1135 188.433 74.7543 188.585 74.4344C190.989 69.3728 193.373 64.2994 195.698 59.2003C197.241 55.8153 198.579 52.3461 199.018 48.6163C199.166 47.3646 199.179 46.0997 199.252 44.8413C199.281 44.3279 199.271 43.8108 199.347 43.3067C199.58 41.7601 200.59 41.067 201.969 41.7479C205.736 43.6027 208.747 46.2842 210.451 50.2048C210.973 51.4033 210.975 52.6884 209.978 53.6306C207.084 56.3651 205.154 59.7545 203.207 63.146C201.027 66.9434 198.866 70.7527 196.696 74.5595C196.541 74.8294 196.404 75.1103 196.132 75.6208L196.131 75.6108ZM203.48 81.4471C200.018 81.4075 196.86 81.3512 193.702 81.3671C193.419 81.3666 193.051 81.7563 192.873 82.0527C191.187 84.852 189.489 87.648 187.918 90.5109C187.622 91.0479 187.603 92.0914 187.94 92.5553C189.183 94.2746 190.626 95.8477 192.103 97.6035C196.416 92.6371 200.301 87.4809 203.481 81.444L203.48 81.4471Z" stroke="#FC2A2A"/>
<path d="M75.2618 44.2498C67.6328 51.6703 58.4438 55.2351 48.202 56.4333C48.0694 56.2274 47.936 56.0245 47.8064 55.8193C48.3265 55.2803 48.7785 54.6509 49.3778 54.2216C52.4378 52.0363 55.5363 49.9039 58.6174 47.7504C68.4373 40.8842 77.308 33.0229 84.4008 23.3121C86.7987 20.0317 88.7314 16.5447 89.4946 12.479C89.9136 10.2513 91.137 9.79254 92.9646 11.1737C96.1133 13.5511 98.5553 16.5618 100.311 20.0801C101.164 21.79 100.781 22.3592 99.3532 23.6054C94.2975 28.0253 89.3145 32.5302 84.3164 37.0179C83.3788 37.8613 82.5026 38.7703 81.6164 39.6307C82.2933 41.0148 82.9832 42.3008 83.5621 43.6325C84.451 45.6764 84.2242 47.5558 83.2234 49.6309C81.8247 52.5268 80.7673 55.6125 79.8164 58.694C77.3177 66.7649 75.0432 74.909 72.5054 82.9662C71.1172 87.3725 69.3152 91.6384 66.5317 95.3987C66.0879 95.9976 65.5873 96.5746 65.0234 97.056C63.7915 98.1122 62.5621 97.9171 61.9737 96.3994C60.3738 92.2871 59.6765 88.0528 61.5045 83.8496C62.3633 81.8741 63.7456 80.134 64.6827 78.186C67.4684 72.4008 69.3824 66.2904 71.1274 60.1346C72.5369 55.1572 73.7957 50.1395 75.113 45.1374C75.1908 44.8469 75.2133 44.5416 75.2635 44.2437L75.2618 44.2498Z" stroke="#FC2A2A"/>
<path d="M109.705 45.5446C113.306 45.6573 116.905 45.8353 120.504 45.8688C125.024 45.9098 129.549 45.8772 133.989 44.8644C134.529 44.7405 135.081 44.636 135.596 44.4364C138.464 43.3138 140.987 44.1014 143.279 45.8757C146.036 48.0072 148.217 50.676 150.14 53.5574C150.338 53.8529 150.506 54.1701 150.657 54.4924C151.593 56.4734 150.993 57.7876 148.895 58.3657C148.514 58.4702 148.123 58.5653 147.73 58.5912C141.867 58.9669 136.523 60.9826 131.372 63.6302C130.531 64.0636 129.65 64.4502 128.745 64.7288C128.264 64.8753 127.694 64.742 127.165 64.7379C127.207 64.1756 127.1 63.5507 127.316 63.0676C127.713 62.1745 128.257 61.3371 128.815 60.523C130.399 58.2111 132.019 55.9283 133.621 53.6275C133.863 53.2793 134.066 52.9012 134.426 52.3063C133.577 52.2295 132.933 52.1357 132.288 52.1202C128.324 52.0116 124.357 51.827 120.395 51.8468C117.188 51.8626 113.981 52.075 110.784 52.3129C108.502 52.4813 106.869 51.6046 105.707 49.704C105.589 49.5082 105.435 49.3296 105.302 49.1528C103.508 50.3993 101.809 51.6875 100.005 52.8101C96.8548 54.768 93.4213 56.1093 89.7833 56.8616C89.1205 56.9987 88.375 56.7563 87.6675 56.6912C87.9984 56.0589 88.1903 55.2812 88.6807 54.8161C91.6825 51.9499 94.7285 49.1283 97.8078 46.3419C103.626 41.0809 109.169 35.5791 113.507 28.9939C115.761 25.5735 117.614 22.0029 118.177 17.8475C118.525 15.2698 119.683 14.7607 121.945 16.1305C124.968 17.9595 127.507 20.3474 129.435 23.3119C130.692 25.245 130.412 26.2908 128.654 27.786C126.849 29.3212 125.104 30.928 123.356 32.531C119.165 36.3827 114.992 40.2494 110.808 44.1097C110.409 44.4781 109.998 44.8332 109.592 45.193C109.631 45.3151 109.672 45.4341 109.709 45.5554L109.705 45.5446Z" stroke="#FC2A2A"/>
<path d="M106.795 81.6242C107.892 75.9307 109.1 70.2537 110.032 64.5288C110.375 62.4249 110.145 60.207 110.015 58.0485C109.866 55.5801 110.887 54.5984 113.28 55.3184C116.469 56.2809 119.166 58.0818 121.329 60.5951C122.782 62.282 122.57 63.3428 121.506 65.2962C120.287 67.5324 119.2 69.8925 118.448 72.3192C115.874 80.6223 113.807 89.0613 112.229 97.6182C111.064 103.933 107.627 108.681 102.086 111.926C101.578 112.222 101.015 112.455 100.449 112.611C98.7627 113.077 97.5761 112.513 96.917 110.878C96.4006 109.596 96.1524 108.186 95.5067 106.981C93.9206 104.022 92.1772 101.146 90.4953 98.2377C90.0813 97.5205 89.6199 96.8201 89.2695 96.074C89.1209 95.7556 89.0393 95.1504 89.213 94.9938C89.472 94.7649 90.0401 94.6615 90.384 94.7799C91.9184 95.3123 93.4213 95.9378 94.9307 96.5389C96.2591 97.0653 97.598 97.565 98.9017 98.147C99.9877 98.6313 100.826 98.3446 101.299 97.3638C102.169 95.5583 103.086 93.7459 103.679 91.8402C104.733 88.4487 105.555 84.9854 106.475 81.5516C106.581 81.5735 106.688 81.5954 106.794 81.6173L106.795 81.6242Z" stroke="#FC2A2A"/>
<path d="M140.689 98.791C139.917 100.197 139.248 101.672 138.351 102.992C137.273 104.578 135.805 104.771 134.415 103.442C133.284 102.362 132.259 101.097 131.472 99.7528C128.222 94.2119 125.484 88.4213 123.267 82.3936C122.97 81.5833 122.731 80.7294 122.634 79.8773C122.461 78.3955 123.231 77.6482 124.612 78.1755C126.408 78.8632 128.163 79.7399 129.788 80.7686C133.015 82.8064 135.942 85.2229 138.369 88.2034C140.923 91.3389 141.485 94.8487 140.692 98.7918L140.689 98.791Z" stroke="#FC2A2A"/>
<path d="M95.3272 72.4459C93.3501 79.0868 89.4643 84.3051 83.9599 88.395C83.4251 88.7925 82.8271 89.1304 82.2171 89.4028C80.3363 90.2491 79.0894 89.6397 78.7653 87.6029C78.2425 84.3035 78.8653 81.2292 80.9665 78.5641C81.572 77.7923 82.3269 77.1392 83.0055 76.4264C85.5875 73.7131 88.133 70.9639 90.7613 68.2991C91.6066 67.4441 92.5971 66.6739 93.6473 66.0869C95.0237 65.3152 95.9622 65.8583 95.9155 67.4222C95.8639 69.1027 95.5346 70.7743 95.3264 72.4489L95.3272 72.4459Z" stroke="#FC2A2A"/>
</svg>
