<svg width="303" height="406" viewBox="0 0 303 406" fill="none" xmlns="http://www.w3.org/2000/svg">
<g clip-path="url(#clip0_3607_1934)">
<mask id="mask0_3607_1934" style="mask-type:alpha" maskUnits="userSpaceOnUse" x="-485" y="103" width="705" height="306">
<rect x="-485" y="103" width="705" height="306" rx="20" fill="white"/>
</mask>
<g mask="url(#mask0_3607_1934)">
<path d="M115.375 342.16C114.961 341.058 114.564 339.827 114.679 338.632C114.953 335.904 117.988 334.485 120.328 333.91C123.223 333.191 126.211 333.435 129.137 333.78C130.524 333.94 131.843 334.048 133.105 334.697C134.304 335.317 135.35 336.183 136.414 337.002C137.441 337.804 138.529 338.471 139.638 339.143C140.572 339.704 141.677 340.305 142.44 341.13C141.123 341.475 139.753 341.776 138.393 341.775C137.192 341.775 135.903 341.401 134.73 341.819C133.417 342.282 132.842 343.399 132.718 344.626C131.536 344.181 130.374 343.705 129.184 343.293C127.828 342.818 126.373 342.346 124.926 342.275C123.574 342.205 122.231 342.602 120.925 342.902C119.62 343.203 118.155 343.244 116.995 343.988C116.719 344.166 116.487 344.374 116.301 344.611C116.018 343.785 115.679 342.973 115.371 342.153L115.375 342.16Z" fill="#FFE2B1"/>
<path d="M178.961 345.976C177.112 344.103 174.933 342.57 172.472 341.605C169.889 340.591 167.074 340.183 164.33 339.881C161.547 339.575 158.755 339.43 155.978 339.12C154.732 338.979 153.473 338.865 152.226 338.994C150.704 339.16 149.212 339.698 147.767 340.19C144.994 341.135 142.216 342.184 139.279 342.493C138.585 342.571 137.92 342.557 137.221 342.498C136.615 342.441 135.99 342.368 135.382 342.451C134.275 342.6 133.521 343.359 133.379 344.458C133.363 344.606 133.364 344.753 133.359 344.904C133.486 344.996 133.464 345.213 133.361 345.355C133.49 347.148 134.582 348.959 135.852 350.102C137.414 351.511 139.491 352.179 141.539 352.476C145.621 353.077 149.806 352.639 153.895 352.469C155.881 352.386 157.947 352.395 159.858 353.03C161.882 353.701 163.356 355.133 164.228 357.061C165.372 359.571 165.485 362.344 165.944 365.028C166.327 367.293 166.836 369.551 167.499 371.756C168.217 374.152 169.13 376.519 170.404 378.677C171.553 380.62 173.118 382.61 175.171 383.652C175.371 383.759 175.199 384.181 175.003 384.082C174.038 383.595 173.165 383.027 172.374 382.281C170.61 380.619 169.357 378.449 168.403 376.236C167.403 373.929 166.674 371.512 166.093 369.065C165.507 366.593 165.195 364.083 164.751 361.584C164.314 359.082 163.589 356.338 161.423 354.779C159.773 353.587 157.634 353.324 155.652 353.286C155.465 353.282 155.286 353.293 155.099 353.29C155.131 353.392 155.158 353.487 155.182 353.594C155.285 354.043 155.37 354.511 155.405 354.972C155.464 355.714 155.443 356.799 154.735 357.254C154.579 357.353 154.396 357.403 154.22 357.403C154.202 357.404 154.18 357.398 154.162 357.399C155.607 358.941 156.979 361.366 156.187 363.468C155.661 364.863 154.191 365.471 152.786 365.534C151.018 365.612 149.305 364.918 147.638 364.448C145.431 363.827 143.48 362.707 141.439 361.685C139.346 360.638 137.158 359.794 134.971 358.967C133.129 358.274 131.3 357.509 129.406 356.966C128.65 356.746 127.866 356.589 127.089 356.492C126.99 356.641 126.863 356.789 126.769 356.899C126.569 357.144 126.345 357.365 126.114 357.573C125.998 357.677 125.87 357.76 125.754 357.846C125.615 357.814 125.481 357.79 125.343 357.759C125.541 357.589 125.735 357.413 125.921 357.222C126.13 357.009 126.321 356.779 126.496 356.538C126.53 356.501 126.553 356.46 126.575 356.419C125.801 356.358 124.984 356.321 124.211 356.471C124.312 356.357 124.42 356.24 124.521 356.126C125.178 355.904 125.848 355.767 126.559 355.781C127.528 355.795 128.467 355.965 129.403 356.21C131.404 356.728 133.332 357.538 135.265 358.261C137.342 359.04 139.413 359.841 141.405 360.808C143.285 361.729 145.083 362.808 147.074 363.47C147.945 363.762 148.842 364.003 149.728 364.258C150.565 364.505 151.421 364.723 152.296 364.782C153.61 364.864 155.421 364.512 155.758 363.014C156.025 361.843 155.488 360.544 154.905 359.55C154.405 358.683 153.746 357.991 153.027 357.306C152.088 356.416 151.097 355.564 150.04 354.806C149.568 354.469 149.086 354.146 148.558 353.905C148.256 353.765 147.846 353.568 147.513 353.695C147.369 353.75 147.29 353.694 147.248 353.589C145.772 353.61 144.301 353.608 142.834 353.485C140.74 353.316 138.581 352.908 136.758 351.816C134.924 350.721 133.557 348.977 132.96 346.918C132.816 346.428 132.726 345.888 132.705 345.355C132.161 345.198 131.62 345.029 131.085 344.839C128.458 343.924 125.764 342.716 122.926 343.245C121.635 343.491 120.352 343.798 119.054 344.048C118.362 344.179 117.623 344.356 117.046 344.782C116.827 344.945 116.67 345.138 116.535 345.354C116.543 345.368 116.547 345.375 116.549 345.393C116.565 345.42 116.504 345.492 116.487 345.446C116.487 345.446 116.487 345.446 116.483 345.439C116.351 345.691 116.26 345.966 116.202 346.249C115.971 347.371 116.094 348.576 116.269 349.695C116.462 350.943 116.745 352.185 117.132 353.385C118.125 356.481 119.769 359.313 121.449 362.078C124.964 367.878 128.973 373.301 133.42 378.425C137.604 383.239 141.938 388.039 147.273 391.596C147.636 391.84 147.994 392.077 148.357 392.32C149.343 393.276 150.609 393.979 151.833 394.547C153.575 395.354 155.428 396.049 157.277 396.563C159.4 397.149 161.592 397.344 163.775 397.026C165.749 396.746 167.716 396.166 169.614 395.578C170.202 395.396 170.796 395.192 171.378 394.967C169.632 396.187 167.501 396.946 165.488 397.35C164.187 397.611 162.881 397.718 161.585 397.699C162.012 398.599 162.415 399.522 162.783 400.446C163.457 402.11 164.151 403.761 164.856 405.415C166.278 408.727 167.711 412.041 169.22 415.311C172.23 421.837 175.638 428.172 178.682 434.678C179.41 436.227 180.085 437.797 180.834 439.334C182.837 439.601 184.905 439.516 186.926 439.126C193.824 437.815 199.619 433.73 204.853 429.266C207.586 426.939 210.21 424.407 212.346 421.51C212.973 420.658 213.578 419.736 214.094 418.772C214.086 418.758 214.074 418.738 214.066 418.724C213.055 417.07 212.07 415.411 211.066 413.753C207.439 407.759 203.609 401.909 199.798 396.03C197.882 393.078 196.037 390.075 194.079 387.148C193.117 385.706 192.128 384.281 191.214 382.811C190.837 382.206 190.488 381.585 190.157 380.963C190.096 380.665 190.042 380.364 189.992 380.069C189.39 381.877 188.286 383.439 186.726 384.644C186.675 384.683 186.659 384.591 186.696 384.56C188.539 382.821 189.509 380.514 189.79 378.022C189.923 376.827 189.946 375.667 189.899 374.465C189.864 373.524 189.688 372.609 189.567 371.68C189.337 370.593 189.046 369.513 188.777 368.438C188.086 365.639 187.602 362.784 186.843 359.996C186.106 357.279 184.967 354.729 183.61 352.267C182.343 349.976 180.804 347.823 178.956 345.951L178.961 345.976Z" fill="#FFE2B1"/>
<path d="M149.497 353.529C151.252 353.478 153.007 353.315 154.762 353.281C154.77 353.407 154.788 353.535 154.806 353.663C154.852 354.062 154.88 354.462 154.889 354.863C154.895 355.081 154.89 355.297 154.878 355.516C154.879 355.534 154.87 355.614 154.874 355.621C154.869 355.66 154.868 355.707 154.863 355.747C154.848 355.848 154.833 355.949 154.817 356.051C154.805 356.094 154.801 356.134 154.789 356.178C154.786 356.189 154.786 356.189 154.783 356.2C154.783 356.2 154.783 356.2 154.777 356.222C154.761 356.259 154.753 356.291 154.737 356.328C154.734 356.339 154.711 356.38 154.703 356.413C154.693 356.428 154.67 356.468 154.66 356.483C154.66 356.483 154.646 356.491 154.647 356.509C154.64 356.513 154.627 356.521 154.624 356.532C154.573 356.524 154.533 356.52 154.481 356.541C154.424 356.555 154.376 356.583 154.308 356.594C154.301 356.598 154.301 356.598 154.294 356.602C154.294 356.602 154.294 356.602 154.287 356.606C154.269 356.607 154.245 356.612 154.223 356.606C154.212 356.604 154.19 356.598 154.179 356.595C154.117 356.584 154.055 356.556 153.99 356.556C153.961 356.554 153.93 356.563 153.898 356.572C153.887 356.569 153.865 356.563 153.854 356.56C153.785 356.536 153.715 356.511 153.645 356.487C153.513 356.434 153.374 356.385 153.244 356.321C153.008 356.199 152.787 356.058 152.57 355.906C151.926 355.335 151.268 354.772 150.578 354.264C150.229 354.013 149.867 353.769 149.491 353.551L149.497 353.529Z" fill="#DFAA7E"/>
<path d="M136.674 273.63C137.432 275.743 138.153 277.888 138.865 280.019C140.488 284.878 141.927 289.788 143.531 294.649C145.126 299.478 146.957 304.217 148.91 308.913C149.879 311.247 150.868 313.57 151.855 315.903C151.98 316.2 152.11 316.504 152.235 316.802C153.686 319.172 154.941 321.664 156.288 324.094C156.96 324.538 157.636 324.971 158.291 325.434C158.976 325.916 159.595 326.475 160.199 327.041C161.461 328.041 162.662 329.113 163.863 330.185C167.164 333.133 170.448 336.146 173.309 339.532C173.972 340.314 174.557 341.15 175.162 341.975C173.089 340.833 170.831 340.14 168.501 339.692C165.682 339.147 162.817 338.925 159.955 338.691C158.538 338.575 157.132 338.444 155.717 338.3C154.417 338.163 153.125 338.086 151.828 338.289C150.343 338.518 148.896 339.039 147.476 339.526C146.057 340.013 144.638 340.518 143.192 340.927C142.572 339.982 141.511 339.328 140.575 338.732C139.5 338.039 138.386 337.407 137.368 336.636C136.248 335.785 135.174 334.87 133.955 334.151C133.344 333.782 132.694 333.473 132.005 333.288C131.312 333.097 130.585 333.054 129.87 332.968C129.245 332.895 128.624 332.828 127.996 332.765C127.386 332.396 126.931 331.688 126.539 331.138C125.952 330.313 125.36 329.48 124.745 328.67C123.361 326.835 121.86 325.131 120.34 323.411C117.285 319.961 114.387 316.366 111.543 312.738C108.673 309.08 105.868 305.374 103.197 301.564C101.958 299.802 100.791 297.989 99.5588 296.223C98.5933 294.839 97.5517 293.499 96.7209 292.028C95.8902 290.557 95.2434 288.925 95.5853 287.211C95.7592 286.344 96.1112 285.336 96.8565 284.786C97.5602 284.259 98.4316 284.375 99.2083 284.648C103.093 286.029 105.695 289.574 108.32 292.551C111.388 296.04 114.394 299.583 117.408 303.121C120.422 306.66 123.513 310.126 126.595 313.606C129.581 316.985 132.386 320.515 135.4 323.877C136.146 324.704 136.812 325.586 137.581 326.39C138.392 327.234 139.303 328.123 140.434 328.496C140.708 328.587 140.986 328.621 141.257 328.594C141.443 328.403 141.644 328.223 141.853 328.056C141.817 327.994 141.768 327.957 141.677 327.991C141.617 328.016 141.553 328.017 141.485 328.028C141.556 327.83 141.59 327.616 141.601 327.444C141.687 326.423 141.438 325.337 141.143 324.361C140.376 321.864 139.511 319.406 138.706 316.922C137.926 314.497 137.199 312.07 136.514 309.618C133.729 299.735 131.064 289.82 128.753 279.812C128.206 277.456 127.698 275.087 127.176 272.726C126.828 271.179 126.45 269.53 126.713 267.936C126.964 266.386 128.068 265.065 129.76 265.289C131.311 265.494 132.729 266.7 133.723 267.846C135.137 269.479 135.964 271.599 136.684 273.615L136.674 273.63Z" fill="#FFE2B1"/>
<g style="mix-blend-mode:multiply">
<path d="M132.488 265.434C131.289 264.591 129.724 263.914 128.281 264.553C127.708 264.81 127.251 265.203 126.889 265.68C127.25 265.666 127.623 265.719 127.998 265.872C129.534 266.483 130.547 267.997 131.2 269.432C132.158 271.541 132.76 273.8 133.368 276.037C134.003 278.37 134.779 280.659 135.516 282.96C137.051 287.75 138.562 292.544 140.235 297.282C141.895 301.999 143.745 306.644 145.497 311.328C146.256 313.348 146.991 315.373 147.688 317.412C148.07 318.522 148.459 319.629 148.75 320.773C149.27 322.794 149.946 326.175 147.484 327.227C145.851 327.92 144.214 326.831 143.082 325.719C141.386 324.045 140.112 321.952 138.962 319.88C139.508 321.497 140.053 323.114 140.556 324.737C140.698 325.191 140.812 325.662 140.908 326.133C141.01 326.629 141.163 327.262 141.046 327.764C141.003 327.946 140.888 328.003 140.74 327.987C140.001 327.748 139.299 327.044 138.826 326.577C137.91 325.664 137.124 324.638 136.315 323.636C135.121 322.162 133.822 320.776 132.605 319.325C131.095 317.526 129.608 315.703 128.067 313.93C124.926 310.299 121.662 306.776 118.511 303.159C115.402 299.583 112.33 295.976 109.201 292.413C107.722 290.733 106.274 289.009 104.701 287.421C103.292 286.006 101.722 284.824 99.8648 284.056C99.1843 283.774 98.4505 283.56 97.7083 283.684C96.9274 283.82 96.3051 284.327 95.87 284.967C95.8434 285.001 95.8247 285.048 95.7981 285.082C96.3232 285.047 96.8847 285.139 97.4088 285.326C99.1026 285.938 100.526 287.187 101.714 288.508C105.701 292.963 109.42 297.629 113.254 302.219C117.168 306.902 121.162 311.529 125.032 316.247C126.336 317.833 127.68 319.377 128.919 321.01C130.492 323.078 132.103 325.291 133.024 327.736C133.336 328.564 133.613 329.541 133.38 330.433C133.162 331.289 132.468 331.801 131.629 331.98C128.676 332.613 125.867 330.518 123.772 328.539C124.659 329.691 125.511 330.863 126.405 332.011C126.58 332.233 126.765 332.459 126.965 332.676C124.81 332.515 122.648 332.516 120.515 333.017C119.815 333.181 119.093 333.404 118.4 333.693C120.842 333.438 123.32 333.616 125.755 334.216C128.307 334.841 130.82 336.136 132.681 338.029C133.288 338.649 134.074 339.61 133.638 340.536C133.06 341.776 131.08 341.837 129.945 341.744C127.847 341.569 125.839 340.75 123.723 340.751C122.023 340.753 120.346 341.323 118.688 341.652C117.326 341.92 115.863 342.109 114.542 341.55C114.961 342.676 115.59 343.764 116.13 344.811C115.052 346.34 115.4 348.783 115.695 350.48C116.219 353.468 117.305 356.262 118.728 358.934C122.005 365.075 126.063 370.886 130.546 376.202C132.743 378.807 135.024 381.363 137.36 383.841C139.636 386.262 142.045 388.578 144.692 390.6C144.804 390.683 144.924 390.762 145.037 390.845C145.452 391.196 145.875 391.544 146.283 391.9C148.166 393.512 150.376 394.76 152.648 395.75C155.284 396.89 158.082 397.605 160.912 397.718C161.812 399.759 162.56 401.869 163.397 403.928C164.797 407.363 166.314 410.758 167.82 414.15C170.818 420.896 174.335 427.389 177.515 434.049C178.298 435.695 179.037 437.358 179.814 439.008C179.85 439.07 179.883 439.143 179.912 439.21C180.286 439.281 180.655 439.344 181.042 439.389C179.411 435.7 178.038 431.898 176.393 428.216C174.358 423.65 172.337 419.076 170.564 414.405C169.972 412.834 169.415 411.278 168.697 409.761C168.063 408.408 167.43 407.054 166.936 405.638C166.534 404.511 166.085 403.171 166.306 401.953C166.567 400.517 168.147 399.827 169.36 399.367C170.819 398.802 172.327 398.292 173.815 397.812C175.331 397.315 176.881 396.91 178.465 396.707C181.313 396.339 184.15 396.818 186.654 398.257C188.203 399.147 189.532 400.311 190.804 401.555C192.493 403.215 194.11 404.943 195.673 406.722C198.792 410.283 201.676 414.044 204.418 417.897C206.105 420.26 207.738 422.655 209.349 425.061C210.409 423.95 211.407 422.782 212.323 421.551C213.133 420.455 213.903 419.243 214.493 417.959C213.828 416.855 213.152 415.748 212.486 414.644C210.68 411.628 208.833 408.636 206.958 405.661C205.06 402.661 203.117 399.697 201.171 396.726C199.24 393.782 197.375 390.791 195.43 387.856C194.334 386.196 193.178 384.58 192.023 382.963C191.377 382.052 190.714 381.112 190.093 380.149C190.102 379.94 190.115 379.739 190.135 379.533C190.234 379.143 190.328 378.747 190.379 378.338C190.558 377.079 190.49 375.76 190.339 374.507C190.314 374.271 190.285 374.029 190.257 373.787C190.217 373.366 190.164 372.953 190.099 372.538C190.068 372.324 190.013 372.116 189.971 371.9C189.947 371.793 189.929 371.683 189.909 371.584C189.686 370.428 189.422 369.268 189.167 368.121C188.843 366.663 188.554 365.202 188.255 363.739C187.66 360.819 186.961 357.895 185.714 355.175C184.583 352.704 183.28 350.304 181.713 348.084C180.344 346.147 178.679 344.4 176.736 343.035C175.772 341.863 174.951 340.599 174.004 339.408C172.654 337.71 171.208 336.086 169.697 334.527C168.16 332.937 166.531 331.428 164.889 329.945C163.322 328.529 161.739 327.131 160.056 325.866C159.17 325.195 158.229 324.638 157.235 324.149C157.131 324.097 157.021 324.05 156.917 323.999C156.905 323.978 156.907 323.95 156.888 323.933C155.11 321.317 154.306 318.195 152.948 315.364C151.457 312.268 150.081 309.116 148.642 305.999C148.514 305.73 148.384 305.473 148.257 305.204C147.196 302.582 146.18 299.942 145.242 297.276C143.542 292.442 142.092 287.529 140.526 282.656C139.781 280.34 138.976 278.05 138.207 275.74C137.528 273.7 136.884 271.641 135.912 269.716C135.08 268.051 133.968 266.558 132.44 265.48L132.488 265.434ZM117.012 349.895C116.399 347.984 116.201 345.464 118.556 344.834C119.262 344.649 119.999 344.676 120.722 344.712C121.574 344.747 122.427 344.846 123.265 345.018C124.888 345.347 126.441 345.939 127.767 346.939C128.485 347.477 129.037 348.194 129.714 348.774C130.379 349.333 131.216 349.727 132.018 350.059C133.7 350.762 135.455 351.32 137.158 351.964C139.026 352.669 140.865 353.438 142.687 354.272C143.908 354.833 145.122 355.399 146.252 356.124C147.275 356.79 149.946 358.502 148.815 360.034C148.231 360.833 146.975 361.059 146.048 361.086C144.73 361.125 143.412 360.796 142.168 360.386C139.593 359.544 137.211 358.237 134.686 357.274C133.24 356.722 131.875 355.975 130.416 355.449C129.69 355.185 128.935 354.982 128.17 354.906C127.445 354.835 126.692 354.891 125.962 354.924C124.774 354.981 123.583 355.096 122.385 355.085C121.484 355.078 120.554 355.005 119.734 354.609C117.984 353.771 117.346 351.754 117.012 349.895ZM165.197 379.362C166.407 381.474 167.372 384.041 166.802 386.497C166.107 389.505 163.103 391.442 160.264 392.129C152.988 393.89 145.796 389.343 140.759 384.541C136.917 380.88 133.739 376.641 130.665 372.325C130.553 372.195 130.441 372.065 130.332 371.925C128.893 370.168 127.568 368.353 126.331 366.451C125.134 364.619 123.996 362.696 123.41 360.576C123.327 360.272 123.571 360.021 123.871 360.06C124.753 360.18 125.604 360.437 126.443 360.738C128.283 361.395 130.04 362.276 131.899 362.885C134.043 363.589 136.221 364.208 138.404 364.787C142.399 365.846 146.43 366.791 150.35 368.105C153.974 369.322 157.395 370.989 160.314 373.482C162.246 375.131 163.931 377.153 165.193 379.355L165.197 379.362ZM178.915 359.267C179.569 361.136 180.16 362.976 180.585 364.913C181.049 367.03 181.415 369.185 181.616 371.343C181.813 373.429 181.913 375.619 181.477 377.682C181.166 379.128 180.468 380.77 178.905 381.201C178.076 381.43 177.206 381.285 176.412 381.013C174.914 380.501 173.558 379.545 172.451 378.428C169.946 375.899 168.485 372.472 167.61 369.067C167.175 367.386 166.883 365.678 166.711 363.956C166.523 362.077 166.41 360.183 165.965 358.341C165.565 356.686 164.88 355.131 163.656 353.924C163.214 353.495 162.736 353.115 162.228 352.78C160.552 352.407 158.856 352.175 157.15 352.087C153.286 351.878 149.431 352.246 145.562 352.27C143.801 352.279 141.997 352.211 140.293 351.725C138.931 351.337 137.707 350.658 136.557 349.851C135.516 349.121 134.322 348.221 133.826 347.01C133.612 346.495 133.602 345.9 133.91 345.426C134.284 344.841 135.001 344.658 135.652 344.569C136.386 344.478 137.133 344.508 137.873 344.46C138.677 344.412 139.48 344.346 140.286 344.269C141.923 344.11 143.558 343.915 145.188 343.713C151.636 342.921 158.284 342.106 164.642 343.88C168.067 344.832 171.291 346.382 173.657 349.102C176.184 352.007 177.663 355.673 178.926 359.27L178.915 359.267ZM163.033 332.319C164.345 332.958 165.66 333.779 166.498 335.006C166.636 335.213 166.541 335.545 166.29 335.606C163.813 336.232 161.259 336.468 158.709 336.581C156.917 336.664 155.128 336.671 153.335 336.689C151.783 336.707 150.232 336.742 148.679 336.678C147.101 336.618 145.494 336.492 143.959 336.075C142.719 335.737 141.492 335.197 140.677 334.17C140.572 334.037 140.598 333.809 140.713 333.688C142.077 332.16 143.751 330.944 145.657 330.195C149.84 328.538 154.498 329.112 158.732 330.745C158.743 330.747 158.756 330.739 158.771 330.749C160.231 331.164 161.674 331.662 163.037 332.326L163.033 332.319Z" fill="#FFEFD4"/>
</g>
<g style="mix-blend-mode:multiply">
<path d="M120.05 333.156C119.513 333.299 118.968 333.475 118.439 333.697C119.676 333.566 120.934 333.551 122.181 333.645C121.462 333.505 120.757 333.339 120.05 333.156Z" fill="#EDD4BF"/>
</g>
<g style="mix-blend-mode:multiply">
<path d="M147.728 342.108C150.215 341.772 152.726 341.589 155.231 341.557C160.341 341.491 165.453 342.034 170.45 343.115C172.75 343.608 174.943 344.301 177.01 345.447C179.025 346.567 180.857 347.996 182.517 349.589C182.573 349.639 182.623 349.694 182.673 349.748C182.591 349.509 182.508 349.27 182.419 349.035C182.202 348.708 181.985 348.38 181.761 348.056C180.393 346.119 178.728 344.372 176.785 343.007C175.821 341.835 174.999 340.571 174.052 339.38C173.676 338.904 173.276 338.451 172.889 337.99C172.339 338.206 171.72 338.286 171.163 338.33C169.628 338.458 168.06 338.319 166.53 338.167C165.245 338.04 163.969 337.862 162.687 337.724C161.107 337.564 159.507 337.563 157.922 337.507C155.779 337.432 153.648 337.423 151.515 337.666C149.787 337.859 148.272 338.854 146.626 339.351C143.195 340.389 139.753 338.318 136.81 336.791C135.137 335.927 133.467 335.181 131.593 334.848C131.173 334.777 130.75 334.716 130.323 334.666C130.841 334.858 131.355 335.06 131.853 335.299C134.783 336.723 137.467 338.714 140.056 340.667C140.338 340.884 140.147 341.354 139.815 341.37C138.784 341.411 137.748 341.426 136.732 341.588C135.752 341.747 134.554 342.041 134.145 343.063C134.002 343.423 134.068 343.505 134.46 343.528C134.881 343.553 135.321 343.466 135.736 343.401C137.022 343.195 138.328 343.135 139.629 343.067C141.031 342.998 142.433 342.928 143.831 342.74C145.133 342.561 146.43 342.293 147.743 342.118L147.728 342.108Z" fill="#EDD4BF"/>
</g>
<g style="mix-blend-mode:multiply">
<path d="M132.488 265.434C132.098 265.16 131.667 264.909 131.221 264.714C131.346 264.818 131.471 264.921 131.592 265.036C132.647 265.998 133.432 267.07 134.089 268.336C135.433 270.935 136.283 273.689 137.022 276.507C138.45 281.941 139.87 287.379 141.499 292.762C143.071 297.983 144.721 303.178 146.739 308.244C147.741 310.762 148.812 313.259 149.939 315.724C150.501 316.953 151.062 318.181 151.666 319.386C152.109 320.267 152.599 321.131 153.311 321.82C154.209 322.687 155.326 323.18 156.415 323.753C157.57 324.362 158.7 325.022 159.804 325.716C160.105 325.902 160.404 326.1 160.703 326.297C160.504 326.144 160.307 325.98 160.108 325.827C159.221 325.156 158.28 324.599 157.286 324.11C157.183 324.059 157.072 324.011 156.969 323.96C156.957 323.939 156.959 323.911 156.94 323.894C155.161 321.278 154.357 318.156 153 315.325C151.509 312.229 150.132 309.077 148.693 305.96C148.566 305.691 148.436 305.434 148.308 305.165C147.247 302.543 146.232 299.903 145.293 297.237C143.593 292.403 142.144 287.49 140.578 282.617C139.833 280.301 139.028 278.011 138.258 275.701C137.58 273.661 136.936 271.602 135.963 269.677C135.132 268.012 134.02 266.519 132.492 265.441L132.488 265.434Z" fill="#EDD4BF"/>
</g>
<g style="mix-blend-mode:multiply">
<path d="M184.619 353.007C185.267 354.962 185.888 356.933 186.441 358.916C187.402 362.327 188.246 365.805 188.64 369.322C188.974 372.318 189.068 375.444 188.171 378.356C186.276 384.506 180.917 388.497 175.709 391.837C177.727 391.763 179.691 391.193 181.645 390.703C183.585 390.22 185.556 389.776 187.482 390.549C189.007 391.157 190.202 392.362 191.244 393.591C192.653 395.246 193.936 397.02 195.197 398.788C198.168 402.942 200.886 407.281 203.509 411.664C205.885 415.635 208.358 419.551 210.755 423.51C211.308 422.867 211.838 422.2 212.35 421.517C213.159 420.421 213.929 419.209 214.519 417.925C213.854 416.821 213.178 415.714 212.513 414.61C210.707 411.594 208.859 408.602 206.984 405.627C205.086 402.627 203.144 399.663 201.197 396.692C199.266 393.748 197.401 390.757 195.457 387.822C194.36 386.162 193.205 384.546 192.05 382.93C191.403 382.018 190.741 381.079 190.12 380.115C190.129 379.907 190.142 379.705 190.162 379.499C190.26 379.11 190.355 378.713 190.406 378.305C190.585 377.046 190.516 375.726 190.366 374.473C190.341 374.237 190.312 373.995 190.283 373.753C190.243 373.332 190.19 372.919 190.126 372.504C190.095 372.29 190.039 372.082 189.998 371.866C189.973 371.76 189.956 371.649 189.936 371.55C189.712 370.394 189.449 369.234 189.193 368.087C188.869 366.629 188.581 365.168 188.281 363.705C187.686 360.785 186.987 357.861 185.741 355.142C185.46 354.527 185.161 353.914 184.856 353.304C184.771 353.206 184.686 353.107 184.601 353.008L184.619 353.007Z" fill="#FFE2B1"/>
</g>
<g style="mix-blend-mode:multiply">
<path d="M142.905 353.111C143.292 353.285 143.679 353.459 144.07 353.64C145.598 354.366 147.105 355.151 148.546 356.029C149.812 356.796 151.056 357.622 152.148 358.618C152.934 359.338 153.795 360.237 154.014 361.321C154.229 362.381 153.643 363.255 152.776 363.82C151.35 364.745 149.503 364.508 147.957 364.088C146.044 363.575 144.234 362.715 142.464 361.842C140.465 360.861 138.411 359.995 136.392 359.043C136.204 358.958 136.012 358.865 135.827 358.769C136.837 359.461 137.847 360.154 138.857 360.847C141.441 362.6 144.108 364.258 147.048 365.362C148.592 365.94 150.199 366.353 151.83 366.585C153.332 366.8 154.851 366.902 156.348 367.157C158.82 367.579 161.276 368.296 163.403 369.656C165.04 370.699 166.416 372.058 167.618 373.564C166.878 370.969 166.382 368.315 165.935 365.652C165.467 362.872 165.231 359.837 163.86 357.319C162.647 355.089 160.579 353.75 158.132 353.194C155.336 352.562 152.392 352.635 149.544 352.763C147.33 352.867 145.124 353.031 142.912 353.107L142.905 353.111Z" fill="#EDD4BF"/>
</g>
<g style="mix-blend-mode:multiply">
<path d="M127.156 312.866C127.74 313.925 128.324 314.984 128.921 316.035C130.654 319.083 132.48 322.087 134.596 324.887C135.636 326.256 136.744 327.566 137.961 328.777C138.556 329.377 139.52 330.502 140.462 330.421C141.422 330.338 141.325 329.081 141.185 328.422C141.141 328.217 141.082 328.02 141.024 327.822C140.971 327.955 140.866 327.997 140.746 327.983C140.008 327.744 139.305 327.04 138.833 326.573C137.917 325.66 137.131 324.634 136.321 323.632C135.128 322.158 133.829 320.772 132.612 319.321C131.101 317.521 129.615 315.699 128.074 313.926C127.765 313.568 127.454 313.221 127.149 312.87L127.156 312.866Z" fill="#EDD4BF"/>
</g>
<g style="mix-blend-mode:screen" opacity="0.63">
<path d="M185.704 439.332C185.588 439.131 185.476 438.937 185.364 438.742C182.099 432.816 179.141 426.731 176.176 420.65C173.688 415.541 171.176 410.437 168.484 405.438C169.109 407.434 169.907 409.377 170.747 411.295C171.915 413.958 173.19 416.568 174.312 419.248C175.514 422.114 176.614 425.028 177.816 427.894C179.462 431.834 181.231 435.73 183.219 439.51C184.04 439.507 184.869 439.454 185.694 439.347L185.704 439.332Z" fill="#DFAA7E"/>
</g>
<g style="mix-blend-mode:screen" opacity="0.63">
<path d="M152.16 363.011C151.245 362.642 150.271 362.493 149.358 362.096C148.434 361.696 147.565 361.199 146.679 360.721C144.614 359.611 142.488 358.602 140.347 357.647C136.226 355.811 132.083 353.886 127.626 353.02C125.293 352.565 122.919 352.456 120.558 352.802C120.405 352.826 120.299 353.137 120.493 353.154C122.58 353.326 124.659 353.532 126.718 353.896C128.744 354.251 130.727 354.835 132.675 355.504C137.253 357.076 141.704 358.99 145.985 361.233C146.981 361.758 147.955 362.323 148.994 362.777C149.948 363.197 151.036 363.641 152.083 363.388C152.221 363.355 152.315 363.07 152.156 363.004L152.16 363.011Z" fill="#DFAA7E"/>
</g>
<g style="mix-blend-mode:screen" opacity="0.63">
<path d="M130.163 340.185C129.16 339.729 128.076 339.292 126.97 339.218C125.818 339.144 124.643 339.351 123.493 339.423C122.374 339.487 121.251 339.543 120.163 339.82C119.152 340.071 118.145 340.44 117.093 340.363C116.927 340.348 116.814 340.681 116.983 340.75C117.862 341.103 118.776 340.972 119.684 340.8C120.826 340.584 121.971 340.487 123.134 340.435C124.267 340.381 125.412 340.201 126.539 340.216C127.719 340.228 128.863 340.751 130.046 340.622C130.221 340.605 130.363 340.291 130.167 340.192L130.163 340.185Z" fill="#DFAA7E"/>
</g>
<g style="mix-blend-mode:screen" opacity="0.63">
<path d="M159.321 391.888C158.236 391.738 157.162 391.591 156.103 391.278C155.072 390.967 154.066 390.568 153.092 390.114C150.932 389.095 148.925 387.796 147.003 386.372C144.919 384.829 142.925 383.152 141.032 381.379C139.117 379.582 137.327 377.667 135.482 375.801C134.417 374.725 133.414 373.612 132.478 372.424C131.582 371.287 130.706 370.138 129.724 369.077C129.647 368.992 129.55 369.178 129.612 369.253C130.5 370.358 131.253 371.55 132.052 372.725C132.791 373.814 133.595 374.839 134.48 375.826C136.268 377.834 138.113 379.829 140.048 381.707C141.964 383.569 143.987 385.312 146.101 386.939C148.003 388.393 150.002 389.725 152.181 390.713C153.305 391.22 154.472 391.656 155.671 391.971C156.822 392.268 158.06 392.523 159.244 392.348C159.447 392.315 159.585 391.93 159.325 391.895L159.321 391.888Z" fill="#DFAA7E"/>
</g>
<g style="mix-blend-mode:screen" opacity="0.63">
<path d="M120.861 321.816C119.923 320.656 119.009 319.474 118.116 318.279C116.303 315.859 114.567 313.396 112.76 310.972C109.144 306.117 105.521 301.266 101.839 296.459C100.839 295.159 99.8604 293.848 98.9676 292.478C98.5057 291.774 98.0686 291.065 97.6453 290.348C97.2272 289.655 96.7802 288.961 96.4314 288.229C96.3953 288.167 96.3183 288.257 96.3354 288.303C96.546 289.004 96.717 289.7 96.9871 290.376C97.2732 291.08 97.6119 291.763 97.9823 292.436C98.6791 293.707 99.5116 294.909 100.368 296.088C102.131 298.518 103.995 300.881 105.793 303.291C109.431 308.151 112.998 313.081 116.794 317.813C117.817 319.09 118.851 320.351 119.97 321.554C121.124 322.801 122.321 324.024 123.256 325.453C123.308 325.543 123.422 325.403 123.378 325.327C122.65 324.083 121.768 322.938 120.861 321.816Z" fill="#DFAA7E"/>
</g>
<g style="mix-blend-mode:screen" opacity="0.63">
<path d="M127.61 269.331C127.419 270.634 127.829 272.033 128.198 273.281C128.6 274.649 128.972 276.014 129.285 277.405C129.972 280.484 130.606 283.567 131.388 286.619C132.174 289.678 133.044 292.706 133.894 295.747C134.747 298.777 135.5 301.827 136.448 304.83C137.489 308.139 138.684 311.378 140 314.584C140.079 314.77 140.296 314.505 140.263 314.368C139.362 311.319 138.42 308.295 137.513 305.25C136.629 302.294 135.858 299.309 135.031 296.339C134.199 293.362 133.343 290.389 132.55 287.399C131.761 284.416 131.09 281.411 130.428 278.391C130.08 276.78 129.7 275.178 129.162 273.621C128.91 272.88 128.636 272.15 128.391 271.404C128.158 270.697 128.007 269.971 127.761 269.272C127.722 269.174 127.622 269.241 127.613 269.32L127.61 269.331Z" fill="#DFAA7E"/>
</g>
<g style="mix-blend-mode:multiply">
<path d="M140.789 191.06C140.76 190.401 141.35 189.903 141.996 190.029C146.547 190.915 151.139 191.582 155.762 192.001C155.449 192.274 155.147 192.569 154.869 192.887C153.815 194.105 153.151 195.579 152.727 197.118C151.683 200.883 160.958 289.912 162.403 304.793C162.467 305.431 161.925 305.966 161.286 305.9C155.033 305.221 150.016 304.281 148.316 303.21C147.399 302.63 141.486 206.631 140.796 191.056L140.789 191.06Z" fill="#B6B8BA"/>
</g>
<g style="mix-blend-mode:multiply">
<path d="M141.997 190.03C143.529 190.329 145.069 190.595 146.608 190.843C147.057 190.917 147.405 191.279 147.461 191.728C148.05 196.944 148.505 202.182 148.87 207.425C149.551 217.172 149.954 226.933 150.447 236.688C150.944 246.468 151.566 256.24 152.16 266.011C152.766 275.978 153.396 285.94 154.008 295.903C154.168 298.501 154.33 301.088 154.486 303.679C154.525 304.34 153.922 304.864 153.265 304.735C150.927 304.273 149.178 303.757 148.31 303.214C147.393 302.634 141.477 206.646 140.789 191.06C140.76 190.401 141.351 189.903 141.993 190.023L141.997 190.03Z" fill="#B6B8BA"/>
</g>
</g>
<path d="M267.982 284.586C255.171 284.124 242.419 287.799 230.567 292.377C224.33 294.785 218.242 297.56 212.241 300.489C206.624 303.233 200.661 305.344 194.478 306.325C183.114 308.144 153.02 306.152 148.313 303.203C147.395 302.623 141.476 206.628 140.792 191.049C140.763 190.391 141.353 189.892 141.999 190.019C149.018 191.383 156.136 192.247 163.311 192.459C169.499 192.64 175.769 192.421 181.892 191.466C188.093 190.501 194.04 188.473 199.668 185.732C211.025 180.201 220.686 172.035 231.269 165.26C236.567 161.868 242.124 158.826 248.01 156.565C254.019 154.26 260.219 152.909 266.626 152.463C272.359 152.065 278.147 152.338 283.808 153.369C284.261 153.449 284.603 153.834 284.638 154.295C285.413 164.876 296.677 263.674 299.461 288.912C299.539 289.607 298.909 290.165 298.229 290.012C288.222 287.747 278.283 284.943 267.978 284.579L267.982 284.586Z" fill="#FC2A2A"/>
<path d="M216.693 224.399L199.244 228.169L189.154 212.085L186.614 230.903L169.165 234.673L185.578 242.141L184.067 261.364L196.837 247.585L214.146 254.86L204.836 237.983L216.693 224.399Z" fill="#FFDD00"/>
<path d="M238.574 202.447L232.762 201.458L231.653 195.295L228.558 200.742L222.749 199.76L226.86 204.061L224.031 209.762L229.636 207.109L234.047 211.467L233.267 205.151L238.574 202.447Z" fill="#FFDD00"/>
<path d="M258.513 218.65L253.5 215.554L254.785 209.422L249.875 213.311L244.858 210.208L247.048 215.748L242.295 219.971L248.478 219.618L250.933 225.31L252.58 219.164L258.513 218.65Z" fill="#FFDD00"/>
<path d="M263.129 237.164L257.414 238.568L253.927 233.362L253.272 239.592L247.549 241.001L253.036 243.315L252.718 249.664L256.799 244.997L262.582 247.232L259.348 241.759L263.129 237.164Z" fill="#FFDD00"/>
<path d="M251.264 260.34L245.439 259.441L244.238 253.294L241.229 258.794L235.404 257.895L239.579 262.132L236.843 267.88L242.406 265.14L246.882 269.433L246.005 263.127L251.264 260.34Z" fill="#FFDD00"/>
<path d="M149.608 353.465L156.62 450.568C156.739 452.182 158.146 453.403 159.76 453.285C159.885 453.277 160.013 453.259 160.13 453.238C161.562 452.947 162.581 451.638 162.477 450.145L155.469 353.114C153.512 353.245 151.56 353.42 149.604 353.458L149.608 353.465Z" fill="white"/>
<path d="M140.529 186.846C138.904 186.962 137.694 188.372 137.812 189.987L148.571 339.116C150.037 338.436 151.703 338.232 153.297 338.079C153.393 338.07 153.482 338.111 153.561 338.167C153.836 338.147 154.115 338.134 154.394 338.121L143.673 189.57C143.555 187.956 142.147 186.735 140.533 186.853L140.529 186.846Z" fill="white"/>
<g style="mix-blend-mode:screen" opacity="0.38">
<path d="M288.811 245.807C287.048 235.085 285.585 224.337 284.029 213.588C282.619 203.845 281.24 194.075 280.534 184.286C279.946 176.046 279.829 167.757 280.73 159.712C280.86 159.776 280.986 159.851 281.107 159.947C281.273 160.859 281.432 161.775 281.591 162.691C281.575 162.792 281.556 162.887 281.543 162.977C283.02 171.267 284.103 179.627 285.163 187.964C285.195 188.195 285.22 188.43 285.244 188.666C286.505 199.512 287.523 210.369 288.601 221.218C289.75 232.831 290.792 244.451 292.112 256.057C292.771 261.825 293.565 267.588 294.198 273.36C294.398 275.195 294.591 277.034 294.784 278.874C292.643 267.88 290.625 256.86 288.811 245.807Z" fill="white"/>
</g>
<path d="M81.5665 122.395L86.1624 123.627L77.9359 140.264L74.0683 139.228L71.6283 127.942L66.9862 137.33L62.4154 136.106L70.6419 119.468L74.6601 120.545L77.0285 131.596L81.5665 122.395ZM81.0249 141.092L87.3711 128.257L91.8665 129.462L85.5204 142.297L81.0249 141.092ZM93.9598 124.047L97.5511 125.009L92.6687 128.062L87.872 126.776L86.8023 122.129L90.3936 123.092L91.3088 125.302L93.9598 124.047ZM103.052 132.001C104.375 132.356 105.305 133.036 105.843 134.041C106.402 135.035 106.507 136.184 106.157 137.49C106.121 137.624 106.077 137.756 106.024 137.885C105.993 138.002 105.949 138.134 105.892 138.28C105.834 138.426 105.745 138.627 105.623 138.881C105.505 139.119 105.386 139.365 105.264 139.619C105.142 139.874 104.961 140.247 104.721 140.739C104.486 141.214 104.249 141.698 104.009 142.19C103.774 142.666 103.446 143.322 103.024 144.16C102.623 144.986 102.212 145.818 101.79 146.656L97.2945 145.452C97.9079 144.234 98.613 142.808 99.4099 141.173C100.528 138.943 101.121 137.702 101.188 137.451C101.466 136.413 101.103 135.759 100.098 135.49C99.7133 135.387 99.3354 135.357 98.9646 135.401C98.6106 135.45 98.2744 135.566 97.956 135.75C97.6376 135.934 97.3369 136.185 97.054 136.504C96.7757 136.807 96.5318 137.181 96.3225 137.627L93.0252 144.308L88.5297 143.103L97.1675 125.633L101.663 126.838L99.0322 132.136C100.356 131.683 101.696 131.638 103.052 132.001ZM121.889 137.506L125.329 138.428L118.983 151.263L115.768 150.402L115.818 149.311C114.202 149.919 112.582 150.005 110.958 149.57C109.233 149.108 107.95 148.172 107.107 146.762C106.286 145.34 106.118 143.724 106.602 141.916C107.024 140.342 107.784 139.012 108.883 137.924C109.982 136.837 111.245 136.108 112.673 135.737C114.121 135.353 115.574 135.357 117.03 135.747C118.738 136.204 119.965 137.152 120.71 138.59L121.889 137.506ZM113.222 145.843C114.209 146.108 115.175 145.954 116.118 145.381C117.078 144.813 117.694 144.018 117.968 142.997C118.17 142.243 118.089 141.575 117.724 140.993C117.364 140.394 116.799 139.992 116.029 139.785C115.025 139.516 114.051 139.668 113.108 140.241C112.186 140.801 111.586 141.6 111.308 142.639C111.209 143.007 111.176 143.366 111.208 143.715C111.256 144.069 111.36 144.384 111.52 144.66C111.684 144.92 111.907 145.159 112.189 145.378C112.492 145.585 112.836 145.74 113.222 145.843ZM122.385 131.664L125.976 132.626L121.094 135.678L116.297 134.393L115.227 129.746L118.819 130.708L119.734 132.918L122.385 131.664ZM128.949 154.391C127.057 153.884 125.646 152.887 124.717 151.4C123.788 149.912 123.565 148.265 124.05 146.457C124.462 144.916 125.214 143.619 126.304 142.565C127.415 141.499 128.72 140.781 130.219 140.411C131.717 140.041 133.254 140.067 134.828 140.489C136.719 140.996 138.13 141.993 139.06 143.48C139.989 144.967 140.209 146.623 139.72 148.448C139.307 149.989 138.546 151.292 137.434 152.358C136.345 153.412 135.042 154.121 133.526 154.487C132.032 154.84 130.506 154.808 128.949 154.391ZM130.441 150.43C131.462 150.704 132.426 150.558 133.331 149.993C134.24 149.411 134.836 148.593 135.119 147.538C135.316 146.802 135.247 146.155 134.912 145.599C134.593 145.047 134.066 144.672 133.329 144.475C132.291 144.196 131.317 144.348 130.407 144.93C129.519 145.499 128.936 146.303 128.658 147.341C128.528 147.827 128.505 148.278 128.591 148.696C128.693 149.118 128.901 149.479 129.216 149.779C129.53 150.078 129.939 150.296 130.441 150.43Z" fill="white"/>
<path d="M138.476 72.1227C141.403 72.3947 144.131 72.649 147.122 72.9264C147.52 70.7799 147.967 68.7066 148.268 66.6152C148.561 64.6023 149.499 64.0779 151.212 65.2078C153.876 66.9673 155.889 69.3252 157.225 72.2088C157.942 73.7582 157.921 74.8912 156.26 75.6385C155.668 75.9052 155.133 76.4629 154.751 77.0108C153.373 78.9844 152.071 81.0113 150.645 83.161C158.585 84.6683 166.3 86.1813 174.493 86.3842C174.055 84.5231 173.761 82.7545 173.209 81.0697C172.705 79.5326 171.914 78.0893 171.269 76.598C170.861 75.656 170.124 74.6526 170.844 73.6621C171.613 72.6037 172.888 73.0052 173.883 73.2388C175.135 73.5325 176.297 74.1883 177.52 74.6268C177.858 74.7474 178.394 74.8133 178.633 74.6315C181.841 72.2135 185.025 69.762 187.573 66.6158C187.946 66.1555 188.239 65.6349 188.736 64.8932C187.675 64.8094 186.892 64.6506 186.12 64.6984C181.638 64.9804 177.148 65.2125 172.678 65.6597C170.298 65.8997 168.227 65.4438 166.581 63.7743C165.295 62.4709 164.2 60.9701 163.133 59.4769C162.827 59.0472 162.649 58.1009 162.899 57.8112C163.231 57.4268 164.079 57.2497 164.644 57.347C166.645 57.6886 168.602 58.2998 170.607 58.5973C176.819 59.5249 183.055 60.1741 189.351 59.6201C189.459 59.6101 189.571 59.6072 189.674 59.5747C194.259 58.1759 197.357 60.5218 199.988 63.7855C200.999 65.039 201.814 66.4947 202.497 67.9571C203.445 69.9847 202.693 71.4732 200.483 71.7408C193.251 72.6192 187.01 76.0673 180.593 79.0755C180.5 79.1194 180.427 79.2108 180.292 79.3214C181.778 81.5982 182.293 84.151 182.281 87.0748C186.882 87.5077 191.416 88.0215 195.963 88.3291C198.809 88.5224 201.536 88.8308 203.709 90.9171C205.159 92.3091 206.083 94.0189 206.65 95.9174C206.994 97.0731 206.491 97.9151 205.249 97.951C203.707 97.9961 202.129 97.8939 200.615 97.599C194.316 96.3756 188.034 95.0549 181.671 93.7573C181.218 96.2813 180.868 98.5846 180.382 100.863C178.902 107.825 177.404 114.785 174.572 121.363C172.745 125.607 170.528 129.6 166.708 132.447C164.909 133.787 162.918 134.71 160.663 134.974C158.43 135.236 157.343 134.414 157.15 132.202C156.832 128.588 155.383 125.374 153.715 122.225C153.02 120.915 152.317 119.606 151.716 118.25C151.525 117.815 151.656 117.239 151.638 116.731C152.15 116.823 152.734 116.788 153.162 117.025C154.867 117.98 156.495 119.078 158.215 120.009C159.194 120.538 160.287 120.864 161.342 121.243C162.576 121.684 163.618 121.283 164.282 120.242C165.286 118.665 166.339 117.084 167.068 115.374C169.807 108.953 172.105 102.378 173.365 95.4835C173.513 94.6723 173.601 93.8481 173.739 92.8605C172.007 92.6719 170.334 92.4724 168.66 92.3143C165.049 91.9731 161.438 91.6016 157.823 91.3432C155.521 91.1787 153.796 90.0064 152.245 88.4882C151.264 87.5274 150.394 86.4583 149.533 85.5025C146.416 89.6258 143.257 93.8038 140.089 97.9942C141.568 100.233 143.258 102.669 144.811 105.192C145.976 107.086 146.836 109.123 146.62 111.438C146.418 113.631 145.382 115.417 143.823 116.905C142.889 117.796 141.783 117.799 140.943 116.819C140.202 115.953 139.588 114.94 139.09 113.911C137.421 110.459 135.829 106.97 134.209 103.495C134.025 103.101 133.851 102.704 133.76 102.494C130.892 104.206 128.25 105.994 125.423 107.427C119.746 110.304 113.723 111.884 107.27 111.314C106.372 111.235 105.489 110.978 104.599 110.805C104.568 110.65 104.54 110.496 104.51 110.341C105.053 109.986 105.56 109.547 106.147 109.287C108.931 108.059 111.768 106.947 114.531 105.674C119.644 103.32 124.56 100.619 129.075 97.239C129.391 97.0031 129.7 96.7594 130.112 96.4473C128.69 94.2328 127.292 92.0454 125.883 89.8613C125.469 89.2232 125.024 88.6036 124.61 87.9683C123.679 86.5414 123.533 85.0494 124.4 83.5679C125.422 81.8252 126.517 80.1295 127.58 78.4128C127.781 78.0892 127.972 77.7598 128.277 77.2485C126.721 77.266 125.361 77.2639 123.999 77.2975C122.225 77.3434 120.432 77.2885 118.677 77.5103C115.342 77.9289 112.937 76.5955 111.288 73.8347C110.46 72.4504 109.738 70.9655 109.23 69.4424C108.759 68.0308 109.564 67.2757 111.042 67.6058C112.204 67.8663 113.325 68.3254 114.469 68.674C119.738 70.2777 125.18 70.9687 130.62 71.6323C130.92 71.668 131.439 71.3396 131.578 71.0471C133.775 66.4199 135.955 61.7818 138.08 57.1203C139.491 54.0258 140.714 50.8542 141.116 47.4445C141.251 46.3002 141.262 45.1439 141.33 43.9934C141.356 43.5241 141.347 43.0514 141.416 42.5906C141.63 41.1766 142.552 40.5431 143.813 41.1655C147.257 42.8612 150.009 45.3125 151.567 48.8967C152.045 49.9924 152.046 51.1672 151.135 52.0285C148.489 54.5284 146.725 57.627 144.945 60.7274C142.952 64.1989 140.977 67.6814 138.993 71.1615C138.851 71.4083 138.725 71.6651 138.477 72.1318L138.476 72.1227ZM145.194 77.4581C142.029 77.4219 139.142 77.3704 136.256 77.385C135.997 77.3845 135.661 77.7408 135.498 78.0117C133.957 80.5708 132.404 83.1269 130.968 85.7441C130.698 86.235 130.68 87.189 130.988 87.6131C132.124 89.1848 133.444 90.623 134.794 92.2281C138.736 87.6879 142.289 82.9742 145.195 77.4553L145.194 77.4581Z" fill="#FC2A2A"/>
<path d="M27.9789 43.4527C21.0044 50.2365 12.604 53.4953 3.24109 54.5908C3.11985 54.4025 2.99786 54.217 2.87943 54.0295C3.35485 53.5367 3.76806 52.9613 4.316 52.5688C7.11339 50.571 9.94601 48.6216 12.7627 46.6529C21.7399 40.3759 29.8494 33.1892 36.3336 24.3117C38.5258 21.3128 40.2926 18.125 40.9903 14.4082C41.3734 12.3716 42.4918 11.9522 44.1625 13.2148C47.041 15.3883 49.2735 18.1406 50.8786 21.357C51.6585 22.9202 51.3082 23.4405 50.003 24.5798C45.3811 28.6204 40.8257 32.7387 36.2565 36.8414C35.3993 37.6124 34.5983 38.4434 33.7881 39.23C34.4069 40.4953 35.0377 41.671 35.5669 42.8884C36.3795 44.7569 36.1722 46.475 35.2572 48.372C33.9786 51.0195 33.0119 53.8404 32.1426 56.6574C29.8583 64.0358 27.779 71.481 25.459 78.8468C24.1899 82.875 22.5425 86.7748 19.9979 90.2125C19.5921 90.76 19.1345 91.2875 18.619 91.7276C17.4928 92.6932 16.3689 92.5148 15.831 91.1274C14.3684 87.3679 13.7309 83.497 15.4021 79.6545C16.1872 77.8485 17.4508 76.2576 18.3075 74.4768C20.8542 69.1881 22.604 63.602 24.1992 57.9744C25.4877 53.4242 26.6386 48.837 27.8428 44.2641C27.9139 43.9986 27.9345 43.7195 27.9804 43.4471L27.9789 43.4527Z" fill="#FC2A2A"/>
<path d="M59.4664 44.6364C62.7581 44.7394 66.0489 44.9021 69.3389 44.9328C73.4705 44.9703 77.6081 44.9405 81.6665 44.0146C82.1607 43.9013 82.6652 43.8058 83.1358 43.6233C85.7572 42.597 88.0643 43.317 90.1598 44.9391C92.6799 46.8877 94.6738 49.3274 96.4319 51.9617C96.6125 52.2318 96.7668 52.5218 96.9047 52.8164C97.7598 54.6274 97.212 55.8288 95.2932 56.3573C94.9453 56.4529 94.5877 56.5398 94.2289 56.5635C88.8688 56.9069 83.9834 58.7497 79.2745 61.1701C78.5057 61.5663 77.7001 61.9197 76.8729 62.1744C76.4334 62.3083 75.9118 62.1865 75.4278 62.1827C75.4662 61.6686 75.3692 61.0974 75.5659 60.6557C75.9292 59.8393 76.4265 59.0737 76.9362 58.3295C78.3851 56.216 79.866 54.1291 81.3302 52.0257C81.551 51.7074 81.737 51.3618 82.0665 50.8179C81.2901 50.7477 80.7016 50.6619 80.112 50.6477C76.4879 50.5485 72.8614 50.3797 69.2391 50.3978C66.3074 50.4122 63.3759 50.6064 60.4531 50.8239C58.3666 50.9779 56.8735 50.1764 55.8119 48.4388C55.7033 48.2599 55.5633 48.0966 55.4409 47.935C53.8012 49.0745 52.2477 50.2521 50.5992 51.2785C47.719 53.0683 44.5801 54.2946 41.2542 54.9823C40.6484 55.1076 39.9668 54.886 39.32 54.8266C39.6225 54.2485 39.798 53.5375 40.2462 53.1123C42.9905 50.4921 45.7751 47.9126 48.5902 45.3653C53.9091 40.5557 58.9767 35.526 62.9423 29.506C65.003 26.379 66.697 23.1148 67.2118 19.316C67.53 16.9595 68.5885 16.4941 70.6566 17.7463C73.4194 19.4184 75.7412 21.6014 77.503 24.3115C78.653 26.0787 78.3968 27.0347 76.7896 28.4017C75.1394 29.8051 73.544 31.2741 71.9465 32.7395C68.1144 36.2607 64.2997 39.7956 60.4745 43.3246C60.1102 43.6614 59.734 43.986 59.3628 44.315C59.3991 44.4266 59.4362 44.5354 59.4698 44.6463L59.4664 44.6364Z" fill="#FC2A2A"/>
<path d="M56.8063 77.62C57.8094 72.415 58.9138 67.2252 59.765 61.9915C60.0785 60.0682 59.8688 58.0406 59.7499 56.0673C59.6136 53.8107 60.5468 52.9133 62.735 53.5715C65.6498 54.4514 68.1154 56.0978 70.0932 58.3954C71.4209 59.9376 71.2273 60.9074 70.2549 62.6931C69.1408 64.7375 68.147 66.895 67.4592 69.1135C65.106 76.7041 63.2166 84.4189 61.7741 92.2416C60.7093 98.0142 57.5671 102.355 52.5012 105.321C52.037 105.592 51.5222 105.805 51.005 105.948C49.4632 106.374 48.3783 105.858 47.7758 104.364C47.3037 103.192 47.0769 101.902 46.4866 100.801C45.0365 98.0961 43.4427 95.4669 41.9052 92.8079C41.5266 92.1522 41.1048 91.5119 40.7846 90.8299C40.6487 90.5388 40.5741 89.9855 40.7329 89.8423C40.9697 89.6331 41.489 89.5386 41.8034 89.6468C43.2061 90.1335 44.58 90.7054 45.9599 91.2549C47.1744 91.7361 48.3984 92.1929 49.5902 92.725C50.583 93.1677 51.349 92.9056 51.7821 92.009C52.5767 90.3584 53.4153 88.7016 53.9574 86.9593C54.9207 83.8589 55.6727 80.6928 56.5138 77.5536C56.6108 77.5737 56.7079 77.5937 56.8049 77.6137L56.8063 77.62Z" fill="#FC2A2A"/>
<path d="M87.7914 93.3137C87.0857 94.5987 86.4742 95.9478 85.654 97.1541C84.6691 98.604 83.3266 98.7805 82.0558 97.5652C81.0221 96.5781 80.0848 95.4222 79.366 94.193C76.3949 89.1275 73.8916 83.8339 71.865 78.3234C71.5936 77.5826 71.3751 76.802 71.2856 76.023C71.1275 74.6684 71.8316 73.9852 73.094 74.4673C74.7359 75.0959 76.3404 75.8974 77.8264 76.8378C80.7761 78.7008 83.4523 80.9099 85.671 83.6346C88.0054 86.5011 88.5192 89.7097 87.7942 93.3145L87.7914 93.3137Z" fill="#FC2A2A"/>
<path d="M46.3224 69.2293C44.515 75.3003 40.9626 80.0709 35.9306 83.8098C35.4416 84.1732 34.895 84.4821 34.3373 84.7311C32.6179 85.5048 31.478 84.9477 31.1817 83.0856C30.7038 80.0694 31.2731 77.2589 33.194 74.8225C33.7476 74.1169 34.4377 73.5199 35.0581 72.8682C37.4185 70.3878 39.7456 67.8745 42.1484 65.4384C42.9211 64.6567 43.8266 63.9526 44.7867 63.4159C46.045 62.7105 46.9029 63.207 46.8602 64.6366C46.8131 66.173 46.512 67.7012 46.3217 69.2321L46.3224 69.2293Z" fill="#FC2A2A"/>
<path d="M138.476 72.1227C141.403 72.3947 144.131 72.649 147.122 72.9264C147.52 70.7799 147.967 68.7066 148.268 66.6152C148.561 64.6023 149.499 64.0779 151.212 65.2078C153.876 66.9673 155.889 69.3252 157.225 72.2088C157.942 73.7582 157.921 74.8912 156.26 75.6385C155.668 75.9052 155.133 76.4629 154.751 77.0108C153.373 78.9844 152.071 81.0113 150.645 83.161C158.585 84.6683 166.3 86.1813 174.493 86.3842C174.055 84.5231 173.761 82.7545 173.209 81.0697C172.705 79.5326 171.914 78.0893 171.269 76.598C170.861 75.656 170.124 74.6526 170.844 73.6621C171.613 72.6037 172.888 73.0052 173.883 73.2388C175.135 73.5325 176.297 74.1883 177.52 74.6268C177.858 74.7474 178.394 74.8133 178.633 74.6315C181.841 72.2135 185.025 69.762 187.573 66.6158C187.946 66.1555 188.239 65.6349 188.736 64.8932C187.675 64.8094 186.892 64.6506 186.12 64.6984C181.638 64.9804 177.148 65.2125 172.678 65.6597C170.298 65.8997 168.227 65.4438 166.581 63.7743C165.295 62.4709 164.2 60.9701 163.133 59.4769C162.827 59.0472 162.649 58.1009 162.899 57.8112C163.231 57.4268 164.079 57.2497 164.644 57.347C166.645 57.6886 168.602 58.2998 170.607 58.5973C176.819 59.5249 183.055 60.1741 189.351 59.6201C189.459 59.6101 189.571 59.6072 189.674 59.5747C194.259 58.1759 197.357 60.5218 199.988 63.7855C200.999 65.039 201.814 66.4947 202.497 67.9571C203.445 69.9847 202.693 71.4732 200.483 71.7408C193.251 72.6192 187.01 76.0673 180.593 79.0755C180.5 79.1194 180.427 79.2108 180.292 79.3214C181.778 81.5982 182.293 84.151 182.281 87.0748C186.882 87.5077 191.416 88.0215 195.963 88.3291C198.809 88.5224 201.536 88.8308 203.709 90.9171C205.159 92.3091 206.083 94.0189 206.65 95.9174C206.994 97.0731 206.491 97.9151 205.249 97.951C203.707 97.9961 202.129 97.8939 200.615 97.599C194.316 96.3756 188.034 95.0549 181.671 93.7573C181.218 96.2813 180.868 98.5846 180.382 100.863C178.902 107.825 177.404 114.785 174.572 121.363C172.745 125.607 170.528 129.6 166.708 132.447C164.909 133.787 162.918 134.71 160.663 134.974C158.43 135.236 157.343 134.414 157.15 132.202C156.832 128.588 155.383 125.374 153.715 122.225C153.02 120.915 152.317 119.606 151.716 118.25C151.525 117.815 151.656 117.239 151.638 116.731C152.15 116.823 152.734 116.788 153.162 117.025C154.867 117.98 156.495 119.078 158.215 120.009C159.194 120.538 160.287 120.864 161.342 121.243C162.576 121.684 163.618 121.283 164.282 120.242C165.286 118.665 166.339 117.084 167.068 115.374C169.807 108.953 172.105 102.378 173.365 95.4835C173.513 94.6723 173.601 93.8481 173.739 92.8605C172.007 92.6719 170.334 92.4724 168.66 92.3143C165.049 91.9731 161.438 91.6016 157.823 91.3432C155.521 91.1787 153.796 90.0064 152.245 88.4882C151.264 87.5274 150.394 86.4583 149.533 85.5025C146.416 89.6258 143.257 93.8038 140.089 97.9942C141.568 100.233 143.258 102.669 144.811 105.192C145.976 107.086 146.836 109.123 146.62 111.438C146.418 113.631 145.382 115.417 143.823 116.905C142.889 117.796 141.783 117.799 140.943 116.819C140.202 115.953 139.588 114.94 139.09 113.911C137.421 110.459 135.829 106.97 134.209 103.495C134.025 103.101 133.851 102.704 133.76 102.494C130.892 104.206 128.25 105.994 125.423 107.427C119.746 110.304 113.723 111.884 107.27 111.314C106.372 111.235 105.489 110.978 104.599 110.805C104.568 110.65 104.54 110.496 104.51 110.341C105.053 109.986 105.56 109.547 106.147 109.287C108.931 108.059 111.768 106.947 114.531 105.674C119.644 103.32 124.56 100.619 129.075 97.239C129.391 97.0031 129.7 96.7594 130.112 96.4473C128.69 94.2328 127.292 92.0454 125.883 89.8613C125.469 89.2232 125.024 88.6036 124.61 87.9683C123.679 86.5414 123.533 85.0494 124.4 83.5679C125.422 81.8252 126.517 80.1295 127.58 78.4128C127.781 78.0892 127.972 77.7598 128.277 77.2485C126.721 77.266 125.361 77.2639 123.999 77.2975C122.225 77.3434 120.432 77.2885 118.677 77.5103C115.342 77.9289 112.937 76.5955 111.288 73.8347C110.46 72.4504 109.738 70.9655 109.23 69.4424C108.759 68.0308 109.564 67.2757 111.042 67.6058C112.204 67.8663 113.325 68.3254 114.469 68.674C119.738 70.2777 125.18 70.9687 130.62 71.6323C130.92 71.668 131.439 71.3396 131.578 71.0471C133.775 66.4199 135.955 61.7818 138.08 57.1203C139.491 54.0258 140.714 50.8542 141.116 47.4445C141.251 46.3002 141.262 45.1439 141.33 43.9934C141.356 43.5241 141.347 43.0514 141.416 42.5906C141.63 41.1766 142.552 40.5431 143.813 41.1655C147.257 42.8612 150.009 45.3125 151.567 48.8967C152.045 49.9924 152.046 51.1672 151.135 52.0285C148.489 54.5284 146.725 57.627 144.945 60.7274C142.952 64.1989 140.977 67.6814 138.993 71.1615C138.851 71.4083 138.725 71.6651 138.477 72.1318L138.476 72.1227ZM145.194 77.4581C142.029 77.4219 139.142 77.3704 136.256 77.385C135.997 77.3845 135.661 77.7408 135.498 78.0117C133.957 80.5708 132.404 83.1269 130.968 85.7441C130.698 86.235 130.68 87.189 130.988 87.6131C132.124 89.1848 133.444 90.623 134.794 92.2281C138.736 87.6879 142.289 82.9742 145.195 77.4553L145.194 77.4581Z" stroke="#FC2A2A"/>
<path d="M27.9789 43.4527C21.0044 50.2365 12.604 53.4953 3.24109 54.5908C3.11985 54.4025 2.99786 54.217 2.87943 54.0295C3.35485 53.5367 3.76806 52.9613 4.316 52.5688C7.11339 50.571 9.94601 48.6216 12.7627 46.6529C21.7399 40.3759 29.8494 33.1892 36.3336 24.3117C38.5258 21.3128 40.2926 18.125 40.9903 14.4082C41.3734 12.3716 42.4918 11.9522 44.1625 13.2148C47.041 15.3883 49.2735 18.1406 50.8786 21.357C51.6585 22.9202 51.3082 23.4405 50.003 24.5798C45.3811 28.6204 40.8257 32.7387 36.2565 36.8414C35.3993 37.6124 34.5983 38.4434 33.7881 39.23C34.4069 40.4953 35.0377 41.671 35.5669 42.8884C36.3795 44.7569 36.1722 46.475 35.2572 48.372C33.9786 51.0195 33.0119 53.8404 32.1426 56.6574C29.8583 64.0358 27.779 71.481 25.459 78.8468C24.1899 82.875 22.5425 86.7748 19.9979 90.2125C19.5921 90.76 19.1345 91.2875 18.619 91.7276C17.4928 92.6932 16.3689 92.5148 15.831 91.1274C14.3684 87.3679 13.7309 83.497 15.4021 79.6545C16.1872 77.8485 17.4508 76.2576 18.3075 74.4768C20.8542 69.1881 22.604 63.602 24.1992 57.9744C25.4877 53.4242 26.6386 48.837 27.8428 44.2641C27.9139 43.9986 27.9345 43.7195 27.9804 43.4471L27.9789 43.4527Z" stroke="#FC2A2A"/>
<path d="M59.4664 44.6364C62.7581 44.7394 66.0489 44.9021 69.3389 44.9328C73.4705 44.9703 77.6081 44.9405 81.6665 44.0146C82.1607 43.9013 82.6652 43.8058 83.1358 43.6233C85.7572 42.597 88.0643 43.317 90.1598 44.9391C92.6799 46.8877 94.6738 49.3274 96.4319 51.9617C96.6125 52.2318 96.7668 52.5218 96.9047 52.8164C97.7598 54.6274 97.212 55.8288 95.2932 56.3573C94.9453 56.4529 94.5877 56.5398 94.2289 56.5635C88.8688 56.9069 83.9834 58.7497 79.2745 61.1701C78.5057 61.5663 77.7001 61.9197 76.8729 62.1744C76.4334 62.3083 75.9118 62.1865 75.4278 62.1827C75.4662 61.6686 75.3692 61.0974 75.5659 60.6557C75.9292 59.8393 76.4265 59.0737 76.9362 58.3295C78.3851 56.216 79.866 54.1291 81.3302 52.0257C81.551 51.7074 81.737 51.3618 82.0665 50.8179C81.2901 50.7477 80.7016 50.6619 80.112 50.6477C76.4879 50.5485 72.8614 50.3797 69.2391 50.3978C66.3074 50.4122 63.3759 50.6064 60.4531 50.8239C58.3666 50.9779 56.8735 50.1764 55.8119 48.4388C55.7033 48.2599 55.5633 48.0966 55.4409 47.935C53.8012 49.0745 52.2477 50.2521 50.5992 51.2785C47.719 53.0683 44.5801 54.2946 41.2542 54.9823C40.6484 55.1076 39.9668 54.886 39.32 54.8266C39.6225 54.2485 39.798 53.5375 40.2462 53.1123C42.9905 50.4921 45.7751 47.9126 48.5902 45.3653C53.9091 40.5557 58.9767 35.526 62.9423 29.506C65.003 26.379 66.697 23.1148 67.2118 19.316C67.53 16.9595 68.5885 16.4941 70.6566 17.7463C73.4194 19.4184 75.7412 21.6014 77.503 24.3115C78.653 26.0787 78.3968 27.0347 76.7896 28.4017C75.1394 29.8051 73.544 31.2741 71.9465 32.7395C68.1144 36.2607 64.2997 39.7956 60.4745 43.3246C60.1102 43.6614 59.734 43.986 59.3628 44.315C59.3991 44.4266 59.4362 44.5354 59.4698 44.6463L59.4664 44.6364Z" stroke="#FC2A2A"/>
<path d="M56.8063 77.62C57.8094 72.415 58.9138 67.2252 59.765 61.9915C60.0785 60.0682 59.8688 58.0406 59.7499 56.0673C59.6136 53.8107 60.5468 52.9133 62.735 53.5715C65.6498 54.4514 68.1154 56.0978 70.0932 58.3954C71.4209 59.9376 71.2273 60.9074 70.2549 62.6931C69.1408 64.7375 68.147 66.895 67.4592 69.1135C65.106 76.7041 63.2166 84.4189 61.7741 92.2416C60.7093 98.0142 57.5671 102.355 52.5012 105.321C52.037 105.592 51.5222 105.805 51.005 105.948C49.4632 106.374 48.3783 105.858 47.7758 104.364C47.3037 103.192 47.0769 101.902 46.4866 100.801C45.0365 98.0961 43.4427 95.4669 41.9052 92.8079C41.5266 92.1522 41.1048 91.5119 40.7846 90.8299C40.6487 90.5388 40.5741 89.9855 40.7329 89.8423C40.9697 89.6331 41.489 89.5386 41.8034 89.6468C43.2061 90.1335 44.58 90.7054 45.9599 91.2549C47.1744 91.7361 48.3984 92.1929 49.5902 92.725C50.583 93.1677 51.349 92.9056 51.7821 92.009C52.5767 90.3584 53.4153 88.7016 53.9574 86.9593C54.9207 83.8589 55.6727 80.6928 56.5138 77.5536C56.6108 77.5737 56.7079 77.5937 56.8049 77.6137L56.8063 77.62Z" stroke="#FC2A2A"/>
<path d="M87.7914 93.3137C87.0857 94.5987 86.4742 95.9478 85.654 97.1541C84.6691 98.604 83.3266 98.7805 82.0558 97.5652C81.0221 96.5781 80.0848 95.4222 79.366 94.193C76.3949 89.1275 73.8916 83.8339 71.865 78.3234C71.5936 77.5826 71.3751 76.802 71.2856 76.023C71.1275 74.6684 71.8316 73.9852 73.094 74.4673C74.7359 75.0959 76.3404 75.8974 77.8264 76.8378C80.7761 78.7008 83.4523 80.9099 85.671 83.6346C88.0054 86.5011 88.5192 89.7097 87.7942 93.3145L87.7914 93.3137Z" stroke="#FC2A2A"/>
<path d="M46.3224 69.2293C44.515 75.3003 40.9626 80.0709 35.9306 83.8098C35.4416 84.1732 34.895 84.4821 34.3373 84.7311C32.6179 85.5048 31.478 84.9477 31.1817 83.0856C30.7038 80.0694 31.2731 77.2589 33.194 74.8225C33.7476 74.1169 34.4377 73.5199 35.0581 72.8682C37.4185 70.3878 39.7456 67.8745 42.1484 65.4384C42.9211 64.6567 43.8266 63.9526 44.7867 63.4159C46.045 62.7105 46.9029 63.207 46.8602 64.6366C46.8131 66.173 46.512 67.7012 46.3217 69.2321L46.3224 69.2293Z" stroke="#FC2A2A"/>
</g>
<defs>
<clipPath id="clip0_3607_1934">
<rect width="303" height="406" fill="white"/>
</clipPath>
</defs>
</svg>
