<svg width="40" height="38" viewBox="0 0 40 38" fill="none" xmlns="http://www.w3.org/2000/svg">
<path d="M22.0467 1.26467L26.46 10.1428C26.7924 10.8119 27.4356 11.2766 28.178 11.3824L38.0451 12.8068C38.905 12.9306 39.6204 13.5297 39.8878 14.3496C40.157 15.1712 39.9329 16.0717 39.3115 16.6745L32.172 23.5866L32.1702 23.5848C31.6318 24.105 31.388 24.8567 31.5144 25.5922L33.1999 35.3511C33.3462 36.2015 32.9939 37.0608 32.2912 37.5666C31.5885 38.0743 30.6563 38.1407 29.8868 37.7406L21.062 33.1321C20.3972 32.7859 19.6024 32.7859 18.9376 33.1321L10.1128 37.7406C9.34322 38.1407 8.41108 38.0743 7.70837 37.5666C7.00565 37.0607 6.65339 36.2014 6.79972 35.3511L8.48517 25.5922C8.61162 24.8567 8.36774 24.105 7.82939 23.5848L0.688483 16.6745C0.0670236 16.0718 -0.156948 15.1712 0.112206 14.3496C0.379566 13.5298 1.09494 12.9306 1.95485 12.8068L11.822 11.3824C12.5645 11.2766 13.2076 10.812 13.5399 10.1428L17.9532 1.26471C18.338 0.489739 19.1311 0 20 0C20.8689 0 21.662 0.489696 22.0467 1.26467Z" fill="white"/>
</svg>
