<svg width="38" height="38" viewBox="0 0 38 38" fill="none" xmlns="http://www.w3.org/2000/svg">
<path d="M16.2857 2.71429V19C16.2857 19.7199 15.9997 20.4103 15.4907 20.9193C14.9817 21.4283 14.2913 21.7143 13.5714 21.7143H2.71429C1.99441 21.7143 1.30402 21.4283 0.794996 20.9193C0.285968 20.4103 0 19.7199 0 19V2.71429C0 1.99441 0.285968 1.30402 0.794996 0.794996C1.30402 0.285968 1.99441 0 2.71429 0H13.5714C14.2913 0 14.9817 0.285968 15.4907 0.794996C15.9997 1.30402 16.2857 1.99441 16.2857 2.71429ZM35.2857 19H24.4286C23.7087 19 23.0183 19.286 22.5093 19.795C22.0003 20.304 21.7143 20.9944 21.7143 21.7143V35.2857C21.7143 36.0056 22.0003 36.696 22.5093 37.205C23.0183 37.714 23.7087 38 24.4286 38H35.2857C36.0056 38 36.696 37.714 37.205 37.205C37.714 36.696 38 36.0056 38 35.2857V21.7143C38 20.9944 37.714 20.304 37.205 19.795C36.696 19.286 36.0056 19 35.2857 19ZM13.5714 27.1429H2.71429C1.99441 27.1429 1.30402 27.4288 0.794996 27.9379C0.285968 28.4469 0 29.1373 0 29.8571V35.2857C0 36.0056 0.285968 36.696 0.794996 37.205C1.30402 37.714 1.99441 38 2.71429 38H13.5714C14.2913 38 14.9817 37.714 15.4907 37.205C15.9997 36.696 16.2857 36.0056 16.2857 35.2857V29.8571C16.2857 29.1373 15.9997 28.4469 15.4907 27.9379C14.9817 27.4288 14.2913 27.1429 13.5714 27.1429ZM35.2857 0H24.4286C23.7087 0 23.0183 0.285968 22.5093 0.794996C22.0003 1.30402 21.7143 1.99441 21.7143 2.71429V10.8571C21.7143 11.577 22.0003 12.2674 22.5093 12.7764C23.0183 13.2855 23.7087 13.5714 24.4286 13.5714H35.2857C36.0056 13.5714 36.696 13.2855 37.205 12.7764C37.714 12.2674 38 11.577 38 10.8571V2.71429C38 1.99441 37.714 1.30402 37.205 0.794996C36.696 0.285968 36.0056 0 35.2857 0Z" fill="white"/>
</svg>
