<svg width="38" height="38" viewBox="0 0 38 38" fill="none" xmlns="http://www.w3.org/2000/svg">
<path d="M36.9717 9.36175C36.9717 9.36175 35.7499 3.51559 30.4688 1.46154C27.9859 0.513513 23.4537 0.039501 19.0002 0C14.5468 0.039501 10.0145 0.513513 7.53162 1.46154C2.25054 3.51559 1.0288 9.36175 1.0288 9.36175C0.24058 12.6798 -0.0352968 16.0374 0.00411422 19C-0.0352968 21.9626 0.201169 25.3597 1.0288 28.6383C1.0288 28.6383 2.25054 34.4844 7.53162 36.5385C10.0145 37.4865 14.5468 37.9605 19.0002 38C23.4537 37.9605 27.9859 37.526 30.4688 36.5385C35.7499 34.4844 36.9717 28.6383 36.9717 28.6383C37.7599 25.3202 38.0358 21.9626 37.9964 19C38.0358 16.0374 37.7599 12.6798 36.9717 9.36175ZM26.173 20.1455L16.9114 26.1102C16.6356 26.3077 16.3203 26.3867 15.9656 26.3867C15.6897 26.3867 15.4138 26.3077 15.138 26.1892C14.5862 25.8732 14.2315 25.3202 14.2315 24.6882V12.7588C14.2315 12.1268 14.5862 11.5343 15.138 11.2578C15.6897 10.9418 16.3597 10.9813 16.872 11.3368L26.1336 17.3015C26.646 17.6175 26.9219 18.1705 26.9219 18.763C26.9219 19.3555 26.6854 19.8295 26.173 20.1455Z" fill="white"/>
</svg>
