<svg width="153" height="174" viewBox="0 0 153 174" fill="none" xmlns="http://www.w3.org/2000/svg">
<g clip-path="url(#clip0_1688_10326)">
<path d="M186.004 118.066V129.691C185.645 131.982 185.302 134.274 184.929 136.565C182.579 151.043 176.137 163.225 164.706 172.622C156.535 179.34 147.109 183.195 136.748 184.915C134.403 185.302 132.045 185.642 129.695 186H118.07C117.654 185.501 117.077 185.68 116.554 185.637C112.49 185.312 108.455 184.799 104.508 183.743C107.516 180.958 110.596 178.25 113.406 175.257C120.134 168.083 125.399 160.057 128.45 150.592C131.512 141.103 131.773 131.571 129.836 121.869C128.945 117.408 127.375 113.184 125.723 108.975C126.319 108.975 126.91 108.975 127.506 108.975C129.264 110.103 131.299 109.992 133.246 110.2C136.273 110.52 139.107 109.9 141.495 107.89C145.094 104.867 145.05 100.677 144.454 96.6861C143.379 89.5222 139.925 83.2592 135.968 77.2966C134.181 74.6034 132.258 71.9975 130.398 69.348C136.51 64.262 143.132 59.9995 150.586 57.1417C153.56 56.0034 156.588 54.9378 159.833 54.8312C160.734 54.9766 161.049 55.8048 161.48 56.3958C168.097 65.5117 173.744 75.1847 177.973 85.6472C181.62 94.6711 184.26 103.957 185.365 113.668C185.529 115.117 185.21 116.686 186.004 118.057V118.066Z" fill="#FFF1D9"/>
<path d="M0.001875 64.3008V59.2148C0.71875 57.8053 0.234375 56.2989 0.355469 54.8458C2.80156 24.4416 24.3175 2.85781 54.8428 0.343906C56.1797 0.2325 57.5698 0.702344 58.8534 0H64.3027C65.8333 0.750781 67.4608 0.213125 69.0398 0.34875C70.5414 0.479531 72.0527 0.518281 73.5348 0.760469C76.4314 1.23031 79.3909 1.39984 82.1519 2.53328C82.4473 2.91109 82.7331 3.29375 83.0334 3.66672C86.8455 8.34094 89.7808 13.4898 91.5536 19.283C93.8641 26.8247 93.927 34.4633 92.5659 42.1648C89.805 41.4141 86.9859 41.2348 84.1572 41.4334C80.9845 41.6562 78.398 43.2402 76.9981 45.9866C74.9298 50.0505 75.2108 54.3227 77.0127 58.4931C76.8625 59.1373 77.2403 59.6798 77.3517 60.2708C77.0563 60.2369 76.7269 60.2805 76.4653 60.1642C69.8778 57.287 63.0287 55.6498 55.8309 55.088C49.2095 54.5697 42.8012 55.3592 36.5189 57.1998C26.3858 60.1739 17.8269 65.8363 10.2367 73.0922C7.39828 75.8095 4.92312 78.8562 2.20094 81.6705C1.24672 77.6259 0.64125 73.533 0.355469 69.3867C0.210156 67.6914 0.723594 65.9525 -0.0078125 64.3008H0.001875Z" fill="#FFB438"/>
<path d="M0.363281 69.3867C0.242188 69.3867 0.121094 69.3867 0 69.3867V64.3008C0.731406 65.9525 0.217969 67.6962 0.363281 69.3867Z" fill="#FABECF"/>
<path d="M69.0273 0C69.0128 0.11625 69.0177 0.2325 69.0419 0.34875C67.4628 0.213125 65.8353 0.745937 64.3047 0H69.0273Z" fill="#FABECF"/>
<path d="M0 54.8555C0.11625 54.87 0.237344 54.8651 0.353594 54.8458C0.2325 56.3037 0.716875 57.8101 0 59.2148V54.8555Z" fill="#FAC3D3"/>
<path d="M54.8438 0.343906C54.8631 0.227656 54.868 0.11625 54.8583 0H58.8544C57.5659 0.702344 56.1806 0.2325 54.8438 0.343906Z" fill="#FACCDA"/>
<path d="M104.508 183.743C97.9839 182.667 91.7984 180.459 85.7098 177.979C72.1183 172.442 59.8248 164.765 48.6358 155.286C44.0245 151.377 39.6458 147.226 35.5625 142.765C35.7708 142.198 35.9984 141.636 36.1922 141.065C40.2852 129.13 46.7419 118.735 56.0225 110.098C64.1745 102.513 73.5762 97.1172 84.0533 93.4989C88.3981 91.9973 92.8689 90.9801 97.3591 90.0598C98.6766 91.2029 99.9989 92.3315 101.302 93.4892C106.683 98.27 112.433 102.518 118.89 105.749C121.142 106.877 123.443 107.904 125.724 108.98C127.376 113.189 128.945 117.412 129.836 121.874C131.774 131.576 131.507 141.108 128.451 150.597C125.4 160.057 120.134 168.083 113.406 175.261C110.597 178.255 107.516 180.967 104.508 183.748V183.743Z" fill="#FFB438"/>
<path d="M131.167 26.1998C133.434 26.9119 134.955 28.6992 136.684 30.1378C144.87 36.9675 152.271 44.5722 158.844 52.9712C159.285 53.538 159.857 54.0272 159.828 54.8409C156.577 54.9475 153.555 56.0131 150.581 57.1514C143.131 60.0092 136.505 64.2717 130.392 69.3577C130.281 69.3722 130.169 69.3819 130.058 69.3916C126.008 64.4897 121.523 60.0237 116.641 55.9598C120.608 50.7237 124.454 45.4053 127.215 39.4087C129.152 35.1995 130.91 30.9176 131.172 26.1998H131.167Z" fill="#FFB438"/>
<path d="M127.502 108.98C125.254 101.646 121.389 95.1797 116.855 89.0718C115.819 87.6768 114.743 86.3157 113.688 84.94C115.838 82.741 118.003 80.5613 120.139 78.3477C123.239 75.1363 126.8 72.4383 130.055 69.3965C130.166 69.3868 130.277 69.3771 130.389 69.3625C132.249 72.0072 134.172 74.6132 135.959 77.3111C139.921 83.2738 143.375 89.5368 144.445 96.7007C145.041 100.687 145.09 104.877 141.486 107.904C139.098 109.91 136.264 110.534 133.237 110.215C131.29 110.006 129.255 110.118 127.497 108.989L127.502 108.98Z" fill="#E8DAC3"/>
<path d="M77.3636 60.2708C79.5384 66.9551 83.21 72.8161 87.3369 78.43C90.3788 82.5665 93.9292 86.2575 97.3586 90.0598C92.8636 90.9801 88.3977 91.9973 84.0528 93.4989C73.5758 97.122 64.1741 102.513 56.022 110.098C46.7414 118.735 40.2847 129.13 36.1917 141.065C35.998 141.636 35.7752 142.198 35.562 142.765C31.5369 138.541 27.8266 134.046 24.3536 129.357C18.6622 121.67 13.8863 113.436 9.90469 104.761C6.50922 97.3545 3.91297 89.653 2.20312 81.6753C4.92531 78.8562 7.40047 75.8095 10.2389 73.097C17.8242 65.8411 26.388 60.1787 36.5211 57.2047C42.8034 55.3592 49.2117 54.5745 55.8331 55.0928C63.0309 55.6547 69.88 57.2967 76.4675 60.169C76.7291 60.2853 77.0584 60.2417 77.3539 60.2756L77.3636 60.2708Z" fill="#FFF1D9"/>
<path d="M131.173 26.1998C130.912 30.9176 129.153 35.2044 127.216 39.4087C124.455 45.4053 120.604 50.7237 116.642 55.9598C116.535 55.9889 116.424 56.0131 116.317 56.0373C115.954 55.3156 115.358 54.7925 114.738 54.3226C109.812 50.5445 104.654 47.1297 98.967 44.5915C96.9423 43.6906 94.9516 42.6589 92.675 42.4942C92.6459 42.3828 92.6169 42.2714 92.5781 42.1648C93.9344 34.4633 93.8763 26.8247 91.5658 19.283C89.793 13.4898 86.8577 8.34092 83.0456 3.6667C82.7453 3.29373 82.4547 2.91108 82.1641 2.53326C86.6736 3.08061 90.9506 4.53858 95.2034 6.03045C101.302 8.16655 107.138 10.913 112.849 13.9258C118.826 17.079 124.435 20.8184 129.899 24.7758C130.393 25.1342 131.13 25.3958 131.173 26.2047V26.1998Z" fill="#FFF1D9"/>
<path d="M92.5735 42.1648C92.6122 42.2714 92.6413 42.3828 92.6704 42.4942C92.2151 44.2331 91.7743 45.972 91.2947 47.7012C89.9579 52.5837 87.8412 57.1514 85.6615 61.6948C83.8983 61.535 82.5276 60.3434 80.8807 59.8542C79.5729 59.4667 78.3038 58.9533 77.0154 58.4931C75.2135 54.3226 74.9326 50.0505 77.0008 45.9866C78.4007 43.2401 80.9872 41.6562 84.1599 41.4334C86.9887 41.2348 89.8077 41.4141 92.5687 42.1648H92.5735Z" fill="#EBA32D"/>
<path d="M116.307 56.0373C116.418 56.018 116.525 55.9937 116.631 55.9598C121.514 60.0237 126.004 64.4897 130.049 69.3916C126.794 72.4286 123.233 75.1266 120.133 78.3428C117.997 80.5564 115.832 82.7409 113.682 84.9352C112.572 83.763 111.42 82.6247 110.354 81.4089C107.501 78.1394 104.139 75.393 101.078 72.3366C104.682 69.1397 108.019 65.6764 111.25 62.1162C113.018 60.1691 114.888 58.2848 116.302 56.0373H116.307Z" fill="#EBA32D"/>
<path d="M116.31 56.0373C114.896 58.2897 113.026 60.169 111.258 62.1162C108.028 65.6764 104.69 69.1397 101.087 72.3365C96.3784 68.6601 91.6364 65.0467 86.2695 62.3487C86.0225 62.2228 85.8675 61.9176 85.6641 61.6948C87.8438 57.1514 89.9556 52.5837 91.2973 47.7012C91.772 45.9672 92.2128 44.2283 92.673 42.4942C94.9495 42.654 96.9403 43.6906 98.965 44.5915C104.656 47.1297 109.81 50.5445 114.736 54.3226C115.351 54.7973 115.952 55.3156 116.315 56.0373H116.31Z" fill="#E8DAC3"/>
</g>
<defs>
<clipPath id="clip0_1688_10326">
<rect width="186" height="186" fill="white"/>
</clipPath>
</defs>
</svg>
