<svg width="149" height="166" viewBox="0 0 149 166" fill="none" xmlns="http://www.w3.org/2000/svg">
<g clip-path="url(#clip0_1688_10390)">
<path d="M191.683 144.82C191.663 143.495 190.708 143.655 189.828 143.615C177.723 143.06 165.598 143.575 153.503 143.165C142.448 142.79 131.393 143.29 120.363 142.795C110.933 142.375 101.513 142.65 92.0881 142.525C89.7731 142.495 87.4331 142.43 85.2031 142C80.5931 141.11 77.2881 138.3 75.7181 133.845C71.7331 122.545 67.8881 111.195 63.9781 99.87C58.0331 82.645 52.0781 65.425 46.1281 48.2C41.4631 34.695 36.8181 21.175 32.0981 7.68502C31.3181 5.46002 30.7331 3.15502 29.5781 1.07002C31.1331 0.125017 32.8731 -0.119984 34.6131 0.0350165C40.8681 0.580016 47.1181 1.24502 53.3731 1.81502C58.1431 2.25002 62.9231 2.58002 67.6931 3.01002C72.5231 3.44502 77.3481 3.96502 82.1781 4.41002C85.5231 4.72002 88.8731 4.95002 92.2231 5.25502C97.2381 5.71002 102.253 6.20502 107.268 6.65502C110.678 6.96002 114.098 7.15002 117.498 7.52002C120.953 7.89502 124.478 7.77502 127.848 8.79002C131.473 9.88502 134.103 12.28 135.643 15.63C142.298 30.085 148.823 44.595 155.408 59.08C160.163 69.53 164.948 79.97 169.708 90.42C176.798 105.98 183.883 121.54 190.958 137.105C191.363 138 191.663 138.945 192.008 139.87C192.008 141.495 192.008 143.12 192.008 144.745C191.903 144.78 191.798 144.8 191.688 144.81L191.683 144.82Z" fill="#FFB438"/>
<path d="M191.68 144.82C191.66 143.495 190.705 143.655 189.825 143.615C177.72 143.06 165.595 143.575 153.5 143.165C142.445 142.79 131.39 143.29 120.36 142.795C110.93 142.375 101.51 142.65 92.085 142.525C89.77 142.495 87.43 142.43 85.2 142C80.59 141.11 77.285 138.3 75.715 133.845C71.73 122.545 67.885 111.195 63.975 99.87C58.03 82.645 52.075 65.425 46.125 48.2C41.46 34.695 36.815 21.175 32.095 7.68501C31.315 5.46001 30.73 3.15501 29.575 1.07001C23.77 3.16001 18.57 10.16 21.29 17.905C21.99 19.905 22.625 21.925 23.29 23.935C23.465 24.33 23.675 24.715 23.815 25.12C27.255 34.83 30.69 44.54 34.12 54.255C44.795 84.52 55.46 114.785 66.13 145.05C68.405 151.5 72.675 154.515 79.58 154.52C103.64 154.535 127.7 154.55 151.76 154.565C154.445 154.565 157.135 154.51 159.82 154.595C163.265 154.705 165.58 156.785 164.945 159.83C164.09 163.93 161.62 167.3 158.34 169.925C157.44 170.645 156.105 170.625 154.895 170.52C153.9 170.43 152.905 170.345 151.91 170.325C141.105 170.13 130.3 170.325 119.49 170C107.565 169.645 95.63 169.975 83.7 169.595C77.205 169.39 70.7 169.52 64.205 169.47C58.04 169.425 53.325 166.015 51.34 160.16C50.7 158.27 50.125 156.355 49.51 154.455C40.16 125.525 30.805 96.6 21.46 67.67C19.005 60.065 16.505 52.475 14.14 44.845C12.64 40.005 13.77 35.6 16.89 31.67C17.265 31.195 17.87 30.815 17.535 30.06C16.235 30.075 14.93 30.085 13.63 30.1C9.4 30.15 5.745 31.475 2.915 34.77C1.385 36.56 0.69 38.71 0 40.885V45.01C0.35 46 0.71 46.985 1.05 47.98C10.76 76.12 20.465 104.26 30.17 132.4C34.87 146.03 39.57 159.655 44.285 173.28C45.805 177.68 48.81 180.53 53.325 181.715C55.525 182.295 57.77 182.035 60.02 181.995C76.375 181.68 92.735 181.455 109.095 181.18C115.715 181.07 122.33 181.085 128.95 180.89C139.875 180.565 150.805 180.5 161.73 180.4C166.615 180.355 170.4 178.395 173.115 174.355C178.555 166.275 183.99 158.19 189.41 150.095C190.49 148.485 191.47 146.815 191.68 144.82Z" fill="#EBA32D"/>
<path d="M129.423 63.365C128.818 63.365 128.213 63.365 127.608 63.365C121.353 63.365 115.098 63.365 108.833 63.36C107.498 63.36 106.033 63.195 104.218 61.8C102.398 60.395 101.888 59.135 101.868 58.05C101.843 56.6 102.563 55.645 104.493 55.64C114.788 55.615 125.083 55.595 135.433 55.64C138.228 55.655 141.283 57.885 141.993 60.33C142.288 61.35 141.968 62.035 141.678 62.735C138.108 71.385 134.543 80.04 130.988 88.7C130.883 88.96 130.558 89.13 130.948 89.68C131.738 90 132.168 89.835 132.703 89.835C139.423 89.85 146.133 89.855 152.823 89.835C154.353 89.835 155.938 89.98 158.008 91.51C160.148 93.09 160.948 94.59 161.153 95.96C161.428 97.79 160.578 98.89 158.368 98.9C147.248 98.95 136.093 98.95 124.898 98.905C122.098 98.895 119.178 96.885 118.008 94.275C117.398 92.915 117.538 91.925 117.928 91.045C121.773 82.3 125.603 73.5401 129.433 64.7851C129.583 64.4451 129.708 64.09 129.848 63.74C129.708 63.615 129.563 63.49 129.423 63.36V63.365Z" fill="#FFF1D9"/>
<path d="M65.0175 68.695C65.5875 58.225 66.1625 47.755 66.7325 37.29C66.8525 35.06 68.0125 33.99 70.2325 34.145C72.3625 34.295 73.9725 35.44 75.3025 37.015C86.1925 49.88 97.0775 62.745 107.963 75.615C108.733 76.525 109.428 77.495 109.773 78.65C110.688 81.725 108.743 83.755 105.623 83C103.588 82.51 102.038 81.31 100.733 79.735C98.5025 77.04 96.2625 74.36 94.0525 71.65C93.5075 70.985 92.9475 70.575 92.0175 70.58C86.8975 70.62 81.7775 70.615 76.6575 70.58C75.6825 70.575 75.3675 70.91 75.3525 71.875C75.3025 74.56 75.1825 77.24 75.0425 79.92C74.9275 82.095 73.4525 83.355 71.3325 83.175C67.7275 82.87 64.4925 79.245 64.6375 75.615C64.7275 73.31 64.8975 71.005 65.0325 68.7C65.0275 68.7 65.0225 68.7 65.0175 68.7V68.695ZM75.7575 59.805C75.7575 60.515 76.0175 60.82 76.7375 60.815C79.3475 60.8 81.9525 60.81 85.0875 60.81C82.0275 57.11 79.2525 53.755 76.4825 50.4C76.2425 50.445 76.0075 50.49 75.7675 50.535C75.7675 53.625 75.7775 56.715 75.7575 59.81V59.805Z" fill="#FFF1D9"/>
<path d="M23.2923 23.945C22.1173 26.685 19.9723 28.505 17.5423 30.06C17.8723 30.815 17.2723 31.2 16.8973 31.67C13.7773 35.605 12.6523 40.005 14.1473 44.845C16.5123 52.475 19.0073 60.07 21.4673 67.67C30.8123 96.6 40.1673 125.525 49.5173 154.455C50.1323 156.355 50.7023 158.27 51.3473 160.16C53.3373 166.015 58.0473 169.425 64.2123 169.47C70.7123 169.515 77.2173 169.385 83.7073 169.595C95.6373 169.975 107.577 169.645 119.497 170C130.307 170.32 141.112 170.135 151.917 170.325C152.912 170.345 153.907 170.43 154.902 170.52C156.112 170.63 157.447 170.645 158.347 169.925C161.627 167.3 164.097 163.935 164.952 159.83C165.587 156.79 163.272 154.705 159.827 154.595C157.142 154.51 154.452 154.565 151.767 154.565C127.707 154.55 103.647 154.535 79.5873 154.52C72.6823 154.52 68.4123 151.5 66.1373 145.05C55.4673 114.785 44.7973 84.52 34.1273 54.255C30.7023 44.54 27.2623 34.83 23.8223 25.12C23.6773 24.715 23.4723 24.33 23.2973 23.935L23.2923 23.945Z" fill="#FFF1D9"/>
</g>
<defs>
<clipPath id="clip0_1688_10390">
<rect width="192" height="182.09" fill="white"/>
</clipPath>
</defs>
</svg>
