<svg width="149" height="166" viewBox="0 0 149 166" fill="none" xmlns="http://www.w3.org/2000/svg">
<g clip-path="url(#clip0_3606_1921)">
<path d="M0.38096 92.2375C1.37188 94.5327 1.67737 97.0276 2.43329 99.3933C2.50379 99.6165 2.60172 99.8319 2.68788 100.051C6.06013 94.9557 10.1256 90.5455 15.3387 87.2673C15.5228 87.1498 15.6246 86.8991 15.7656 86.7111C13.161 86.0962 10.5212 85.6144 8.02238 84.6039L5.37863 84.6039C2.84063 85.2463 1.29355 86.9344 0.384881 89.3039L0.384881 92.2414L0.38096 92.2375Z" fill="#FFB438"/>
<path d="M117.023 165.679C116.691 165.322 116.369 164.954 116.025 164.61C93.0613 141.642 70.0939 118.675 47.1188 95.7155C46.684 95.2807 46.355 94.6658 45.6265 94.6188C45.274 94.7716 44.9372 94.9752 44.569 95.0731C37.7384 96.8905 31.4638 99.8319 25.9335 104.281C22.8824 106.737 20.0859 109.439 17.9631 112.773C22.9843 118.718 27.9584 124.703 33.0384 130.593C37.5229 135.791 42.0976 140.914 46.684 146.017C50.8866 150.694 55.144 155.319 59.4132 159.929C63.7215 164.582 68.0494 169.216 72.4165 173.81C75.8828 177.456 79.4352 181.017 82.921 184.647C83.9629 185.732 84.9068 186.919 85.8938 188.055C86.1875 187.608 86.4891 187.17 86.7711 186.715C92.2819 177.856 99.7666 171.358 109.554 167.582C111.975 166.65 114.525 166.286 117.016 165.679L117.023 165.679Z" fill="#FFB438"/>
<path d="M117.02 165.679C114.525 166.282 111.975 166.646 109.559 167.582C99.7708 171.358 92.2861 177.856 86.7753 186.715C86.4933 187.17 86.1917 187.608 85.898 188.055C83.7438 192.218 82.0753 196.546 81.4486 201.231C81.2959 205.269 81.5857 209.213 83.5793 212.871C86.1956 217.673 90.3865 220.019 95.6152 220.931C97.9613 221.343 100.264 221.112 102.587 220.908C101.126 219.4 99.6729 217.888 98.2002 216.392C97.1466 215.323 96.4181 214.089 96.1087 212.605C95.1178 207.834 96.5317 203.526 98.729 199.405C101.193 194.788 104.49 190.836 108.525 187.491C112.833 183.919 117.521 181.048 123.134 180.186C126.776 179.626 130.246 180.065 132.906 183.139C134.049 184.463 135.412 185.595 136.678 186.813C136.846 184.009 136.924 181.228 136.407 178.424C135.213 171.985 129.31 166.568 122.844 165.926C120.893 165.734 118.959 165.73 117.016 165.679L117.02 165.679Z" fill="#FFF1D9"/>
<path d="M17.9616 112.769C20.0805 109.436 22.877 106.737 25.932 104.277C31.4623 99.828 37.7368 96.8866 44.5675 95.0693C44.9357 94.9714 45.2725 94.7677 45.625 94.615C42.6836 93.4478 39.5737 92.8995 36.5305 92.1005C29.6137 90.287 22.6851 88.505 15.7604 86.7072C15.6194 86.8952 15.5176 87.1459 15.3335 87.2634C10.1243 90.5416 6.05492 94.9518 2.68267 100.047C2.95292 103.114 4.06134 105.989 4.79767 108.942C6.51709 115.851 8.35401 122.729 10.1518 129.618C10.1713 129.7 10.2732 129.763 10.3398 129.834C10.6648 129.599 10.5943 129.23 10.6648 128.905C11.9417 123.003 14.2838 117.582 17.9616 112.765L17.9616 112.769Z" fill="#FFF1D9"/>
<path d="M17.9599 112.769C14.2822 117.586 11.94 123.007 10.6632 128.909C10.5927 129.238 10.6632 129.606 10.3381 129.837C10.3733 130.386 10.8003 130.68 11.1371 131.02C34.3512 154.238 57.5653 177.452 80.7833 200.663C80.9869 200.866 81.2259 201.039 81.4491 201.227C82.0758 196.546 83.7443 192.218 85.8984 188.051C84.9114 186.911 83.9675 185.728 82.9257 184.643C79.4398 181.017 75.8874 177.452 72.4212 173.806C68.0541 169.212 63.7262 164.578 59.4179 159.925C55.1487 155.311 50.8913 150.686 46.6887 146.013C42.0983 140.91 37.5237 135.787 33.043 130.589C27.9592 124.699 22.9889 118.714 17.9678 112.769L17.9599 112.769Z" fill="#EBA32D"/>
</g>
<g clip-path="url(#clip1_3606_1921)">
<path d="M124.825 164.334C125.748 166.736 127.25 168.663 129.491 169.98L134.151 171.229C135.155 170.891 136.182 171.197 137.199 171.101C146.892 170.196 154.878 165.863 161.619 158.999C163.44 157.144 164.675 154.873 166.134 152.764L167.382 148.103C167.357 145.507 166.448 143.241 164.826 141.239C164.599 141.179 164.341 141.16 164.15 141.042C160.203 138.606 155.944 138.648 151.582 139.415C144.821 140.608 138.923 143.667 133.749 148.048C129.756 151.429 126.427 155.372 125.191 160.702C124.909 161.915 125.231 163.154 124.825 164.334Z" fill="#FFB438"/>
<path d="M54.7044 7.12839C55.0552 9.51838 54.7164 11.9234 54.8303 14.3204C54.8403 14.5464 54.8778 14.772 54.9034 14.9982C59.3252 11.0857 64.2226 7.9862 69.908 6.2302C70.1092 6.16657 70.267 5.95809 70.4456 5.81788C68.1684 4.59258 65.825 3.48276 63.7455 1.91469L61.278 1.25352C58.7485 1.21831 56.8824 2.40696 55.4417 4.39134L54.7071 7.13303L54.7044 7.12839Z" fill="#FFB438"/>
<path d="M145.205 104.845C144.984 104.429 144.776 104.005 144.541 103.597C128.852 76.4181 113.159 49.2379 97.4575 22.0631C97.1604 21.5486 97.0071 20.8924 96.339 20.6663C95.9718 20.7207 95.6065 20.8266 95.2383 20.8259C88.4085 20.8138 81.8167 21.99 75.5422 24.7596C72.0804 26.2887 68.7945 28.1116 65.9796 30.6916C69.1791 37.4966 72.325 44.3263 75.5931 51.0947C78.479 57.0672 81.4675 62.9927 84.4719 68.903C87.2248 74.3188 90.0416 79.7007 92.8733 85.071C95.7308 90.4913 98.6114 95.8982 101.538 101.278C103.862 105.549 106.287 109.76 108.632 114.02C109.333 115.294 109.918 116.637 110.555 117.944C110.941 117.601 111.332 117.267 111.709 116.913C119.068 110.023 127.679 105.83 137.758 104.754C140.25 104.489 142.721 104.787 145.198 104.843L145.205 104.845Z" fill="#FFB438"/>
<path d="M145.206 104.845C142.726 104.784 140.256 104.486 137.766 104.756C127.686 105.832 119.076 110.025 111.716 116.915C111.34 117.269 110.948 117.603 110.563 117.946C107.511 121.293 104.871 124.916 103.115 129.131C101.962 132.862 101.247 136.615 102.192 140.528C103.433 145.664 106.758 148.902 111.41 151.061C113.497 152.032 115.704 152.392 117.923 152.783C116.937 151.01 115.958 149.236 114.958 147.471C114.242 146.21 113.871 144.876 113.953 143.413C114.221 138.713 116.618 135.045 119.7 131.749C123.154 128.055 127.22 125.191 131.822 123.078C136.736 120.822 141.83 119.315 147.284 119.914C150.824 120.303 153.953 121.58 155.666 125.115C156.403 126.636 157.392 128.033 158.268 129.487C159.126 126.911 159.895 124.336 160.114 121.589C160.609 115.28 156.455 108.749 150.58 106.532C148.808 105.865 147.003 105.377 145.202 104.844L145.206 104.845Z" fill="#FFF1D9"/>
<path d="M158.273 129.484C157.396 128.031 156.407 126.633 155.671 125.112C153.958 121.577 150.829 120.3 147.289 119.912C141.834 119.316 136.741 120.819 131.827 123.076C127.221 125.188 123.159 128.052 119.704 131.746C116.623 135.042 114.226 138.71 113.958 143.41C113.875 144.873 114.243 146.206 114.963 147.468C115.963 149.233 116.941 151.007 117.928 152.78C119.895 156.128 121.862 159.476 123.838 162.819C124.145 163.34 124.5 163.827 124.835 164.332C125.241 163.152 124.919 161.914 125.201 160.7C126.433 155.373 129.766 151.427 133.76 148.046C138.934 143.665 144.835 140.607 151.592 139.413C155.952 138.642 160.214 138.6 164.16 141.041C164.352 141.159 164.61 141.173 164.836 141.238C163.252 137.996 161.27 134.981 159.533 131.828C159.106 131.051 158.698 130.264 158.281 129.482L158.273 129.484Z" fill="#EBA32D"/>
<path d="M65.9796 30.6879C68.7908 28.1069 72.0758 26.2876 75.5423 24.7559C81.8167 21.9862 88.4086 20.8101 95.2384 20.8222C95.6065 20.8228 95.9718 20.717 96.339 20.6626C93.8856 18.8376 91.1202 17.5481 88.4796 16.0413C82.4773 12.6189 76.4563 9.22288 70.4428 5.81319C70.2642 5.9534 70.1065 6.16188 69.9053 6.22551C64.2235 7.98248 59.3224 11.081 54.9006 14.9935C54.3859 17.9234 54.7015 20.8838 54.6502 23.8243C54.5271 30.7027 54.5216 37.5813 54.4765 44.4611C54.4742 44.5428 54.5536 44.6267 54.5981 44.7092C54.9603 44.5711 54.9866 44.2099 55.1337 43.9241C57.8015 38.7344 61.3432 34.2609 65.9806 30.6843L65.9796 30.6879Z" fill="#FFF1D9"/>
<path d="M65.9781 30.688C61.3407 34.2646 57.7991 38.7381 55.1312 43.9278C54.9831 44.2172 54.9569 44.5785 54.5957 44.7129C54.4914 45.2335 54.8164 45.6144 55.0456 46.0167C70.9057 73.4925 86.7668 100.965 102.632 128.434C102.772 128.675 102.952 128.896 103.113 129.127C104.868 124.915 107.508 121.293 110.561 117.942C109.925 116.632 109.339 115.292 108.638 114.019C106.292 109.762 103.868 105.547 101.544 101.277C98.6173 95.8965 95.7366 90.4896 92.8792 85.0693C90.0484 79.6953 87.2316 74.3134 84.4777 68.9012C81.4697 62.99 78.4812 57.0645 75.599 51.093C72.3272 44.3236 69.185 37.4948 65.9854 30.6899L65.9781 30.688Z" fill="#EBA32D"/>
</g>
<defs>
<clipPath id="clip0_3606_1921">
<rect width="150.4" height="150.4" fill="white" transform="matrix(-4.37114e-08 -1 -1 4.37114e-08 150.781 235)"/>
</clipPath>
<clipPath id="clip1_3606_1921">
<rect width="145.326" height="145.326" fill="white" transform="matrix(0.258819 -0.965926 -0.965926 -0.258819 159.375 177.988)"/>
</clipPath>
</defs>
</svg>
