<svg width="169" height="173" viewBox="0 0 169 173" fill="none" xmlns="http://www.w3.org/2000/svg">
<g clip-path="url(#clip0_1689_10501)">
<path d="M169.787 89.5774C175.619 92.5444 180.652 96.3492 183.363 102.58C183.42 102.707 183.596 102.785 183.717 102.886L184.803 106.938C184.745 107.087 184.633 107.237 184.64 107.378C185.128 115.349 181.585 121.46 175.658 126.335C171.856 129.466 167.858 132.363 163.894 135.291C155.876 141.221 147.556 146.693 138.896 151.641C130.732 156.31 122.383 160.609 113.663 164.188C108.567 166.28 103.413 168.204 98.1683 169.841C92.6484 171.565 87.0142 172.879 81.2831 173.831C75.7352 174.752 70.1872 175.423 64.573 175.565C54.906 175.808 45.4329 174.729 36.2255 171.584C34.0045 170.826 32.3705 169.664 31.3847 167.514C30.4594 165.491 29.3995 163.53 28.3956 161.545C27.9223 159.779 27.4491 158.013 26.9758 156.247C27.0899 154.096 26.7889 151.959 27.4977 149.8C28.4934 146.767 30.4845 144.84 33.2585 143.54C34.4849 145.723 36.4991 147.09 38.5624 148.274C48.1675 153.784 58.5739 154.256 69.2402 152.939C72.375 152.554 75.4338 151.685 78.5341 151.237C82.789 150.627 86.6744 148.954 90.7094 147.739C94.9333 146.465 99.0186 144.706 103.048 142.874C105.606 141.712 108.273 140.779 110.611 139.164C113.316 138.408 115.668 136.896 118.108 135.596C134.007 127.127 148.945 117.151 163.486 106.556C168.298 103.053 170.828 98.634 170.11 92.5462C169.994 91.5662 169.332 90.6255 169.775 89.5849L169.787 89.5774Z" fill="#FFB438"/>
<path d="M169.79 89.5775C169.353 90.6212 170.009 91.5588 170.125 92.5388C170.843 98.6266 168.313 103.046 163.501 106.549C148.956 117.145 134.022 127.12 118.123 135.589C115.683 136.888 113.332 138.4 110.626 139.157C110.31 138.261 110.622 137.349 110.558 136.444C110.145 130.729 108.797 125.251 106.465 120.023C104.268 115.098 101.407 110.618 97.673 106.674C95.5968 104.478 93.1795 102.721 90.9053 100.782C94.6468 98.1896 98.1691 95.3439 101.208 91.9418C102.263 90.7594 103.471 89.6652 103.993 88.091C104.452 88.0885 104.788 88.3636 105.153 88.5954C107.33 89.9836 109.306 89.6697 111.078 87.6535C114.979 83.2278 114.822 80.2989 110.481 76.447C112.288 72.4707 113.174 68.2961 113.189 63.9315C114.554 63.6549 115.922 63.3908 117.287 63.1007C119.138 62.7116 120.898 62.0485 122.486 61.0262C124.746 59.57 125.208 57.4238 123.935 55.0304C123.344 53.9237 122.486 53.049 121.691 52.1085C120.723 50.9559 119.588 50.6452 118.131 51.0089C116.417 51.4416 114.663 51.6799 112.888 51.7369C112.086 49.3104 111.886 46.9678 113.592 44.7736C114.884 43.1134 116.569 42.0874 118.532 41.4501C121.71 40.327 125.099 40.559 128.349 39.8886C133 38.8785 137.401 37.2849 141.312 34.4776C144.959 31.8615 148.219 28.8857 150.482 24.9477C152.553 24.5486 154.689 25.8558 156.028 28.459C156.565 29.4998 156.997 30.5956 157.33 31.74C159.206 38.1903 160.69 44.7452 162.143 51.2955C164.001 59.661 165.608 68.085 167.244 76.5013C168.092 80.8618 168.572 85.2984 169.793 89.5858L169.79 89.5775Z" fill="#EBA32D"/>
<path d="M90.9016 100.779C93.177 102.722 95.5943 104.479 97.6693 106.671C101.403 110.615 104.264 115.091 106.462 120.02C108.794 125.248 110.141 130.726 110.555 136.441C110.62 137.35 110.311 138.257 110.622 139.153C108.287 140.763 105.616 141.697 103.06 142.863C99.0301 144.696 94.9448 146.454 90.7208 147.728C86.6911 148.946 82.8005 150.617 78.5456 151.227C75.4453 151.675 72.3865 152.543 69.2517 152.929C58.5853 154.246 48.179 153.774 38.5739 148.263C36.5106 147.079 34.4964 145.713 33.27 143.529C31.9401 138.55 32.3556 133.534 33.1234 128.554C34.1863 121.633 36.9618 115.402 41.4504 110.012C45.2752 105.419 50.0403 102.009 55.453 99.5032C56.0785 99.2109 56.7166 98.933 57.3454 98.6532C57.5986 98.5676 57.8593 98.4933 58.1092 98.3951C64.8073 95.6828 71.6986 94.6558 78.8719 95.9941C83.1997 96.8032 87.0866 98.6924 90.9046 100.774L90.9016 100.779Z" fill="#FFF1D9"/>
<path d="M118.531 41.4417C116.57 42.0832 114.884 43.105 113.592 44.7652C111.885 46.9552 112.082 49.3031 112.888 51.7285C112.629 51.7934 112.373 51.8843 112.105 51.9159C104.353 52.8082 96.6101 52.8831 88.9325 51.3415C85.5806 50.6673 82.2385 49.8302 79.3384 47.8503C79.2652 43.1887 79.3006 38.5336 81.0576 34.1032C81.2519 33.6147 81.5101 33.1491 81.739 32.6735C82.8742 32.9038 83.2224 31.8262 83.865 31.3155C86.2098 29.4445 88.7712 28.4153 91.8306 28.513C95.5593 28.6319 99.212 29.1987 102.722 30.3784C109.054 32.5031 114.928 35.3744 118.533 41.4459L118.531 41.4417Z" fill="#FFB438"/>
<path d="M87.907 25.9157C88.4261 24.3291 89.833 23.529 91.01 22.5856C95.4656 19.0177 100.461 16.4499 105.819 14.4709C113.962 11.465 122.307 10.0974 130.966 10.748C135.226 11.0677 139.298 12.119 143.135 14.008C144.038 14.452 145 14.8846 145.407 15.938C145.206 16.1167 144.985 16.2739 144.811 16.4719C138.519 23.5741 130.454 27.7036 121.515 30.3618C118.913 28.6491 116.237 27.0724 113.296 26.0031C104.849 22.9351 96.3855 21.653 87.9059 25.9116L87.907 25.9157Z" fill="#FFF1D9"/>
<path d="M110.473 76.4397C114.814 80.2916 114.967 83.2216 111.07 87.6462C109.297 89.6596 107.322 89.9736 105.145 88.5881C104.78 88.3563 104.445 88.0854 103.985 88.0837C103.136 87.4072 102.155 86.9707 101.162 86.5731C90.4078 82.2927 79.2244 82.0957 67.9149 83.0906C66.6768 81.761 65.4109 80.4611 64.5723 78.8106C63.1411 75.9961 63.957 73.6886 66.8709 72.3956C69.1084 71.4041 71.5164 71.182 73.8927 70.8081C77.5814 70.6615 81.2678 70.6224 84.9455 70.9331C93.6896 71.6679 102.478 72.2172 110.473 76.4397Z" fill="#FFF1D9"/>
<path d="M79.329 47.8513C82.2302 49.8355 85.5712 50.6684 88.9231 51.3425C96.6007 52.8842 104.344 52.8092 112.096 51.917C112.359 51.8865 112.615 51.7956 112.878 51.7296C114.653 51.6726 116.407 51.4344 118.121 51.0016C119.577 50.6338 120.713 50.9486 121.681 52.1012C122.472 53.0428 123.335 53.9205 123.925 55.0231C125.199 57.4166 124.733 59.5679 122.476 61.0189C120.888 62.0413 119.132 62.7032 117.277 63.0934C115.915 63.3783 114.544 63.6476 113.179 63.9242C113.023 63.8903 112.864 63.8126 112.718 63.8297C106.974 64.518 101.21 64.5837 95.4477 64.306C89.1894 64.0053 82.932 63.5752 77.2347 60.5141C73.8473 57.1147 73.6848 54.6462 76.5986 50.7432C77.3988 49.6736 78.27 48.6696 79.3321 47.8461L79.329 47.8513Z" fill="#FFF1D9"/>
<path d="M67.9157 83.0948C79.2251 82.0999 90.4085 82.2969 101.163 86.5774C102.16 86.9739 103.141 87.4103 103.986 88.088C103.464 89.6622 102.26 90.7552 101.201 91.9387C98.1617 95.3409 94.6405 98.1907 90.8979 100.779C87.0798 98.6977 83.193 96.8085 78.8651 95.9994C71.6919 94.6611 64.8047 95.687 58.1024 98.4004C57.8537 98.5027 57.596 98.5717 57.3387 98.6585C59.4359 95.7805 61.5955 92.9525 63.6062 90.0175C65.1402 87.7803 66.482 85.4075 67.9115 83.0959L67.9157 83.0948Z" fill="#FFB438"/>
<path d="M77.2323 60.5194C82.9286 63.5763 89.187 64.0106 95.4453 64.3112C101.206 64.5848 106.975 64.5222 112.715 63.835C112.862 63.8179 113.025 63.8945 113.177 63.9295C113.162 68.2941 112.276 72.4687 110.469 76.445C102.474 72.2225 93.6866 71.6773 84.9413 70.9384C81.2637 70.6277 77.5732 70.6679 73.8886 70.8134C75.0049 67.3831 76.116 63.9497 77.2323 60.5194Z" fill="#FFB438"/>
<path d="M121.517 30.3617C130.457 27.7035 138.521 23.574 144.814 16.4718C144.988 16.2738 145.213 16.1155 145.41 15.9379C147.857 16.9571 148.911 19.1288 149.841 21.3694C150.313 22.499 150.418 23.7224 150.477 24.9404C148.21 28.8795 144.954 31.8542 141.307 34.4703C137.396 37.2776 132.995 38.8712 128.344 39.8813C126.995 36.0427 124.731 32.8634 121.513 30.3628L121.517 30.3617Z" fill="#FFB438"/>
<path d="M121.516 30.3617C124.732 32.8582 126.997 36.0417 128.347 39.8803C125.097 40.5507 121.703 40.3197 118.53 41.4418C114.929 35.3691 109.052 32.4989 102.719 30.3743C99.2102 29.1987 95.5564 28.6277 91.8277 28.5089C88.7683 28.4111 86.2069 29.4404 83.8621 31.3114C83.2206 31.8262 82.8713 32.8997 81.7361 32.6694C83.0773 29.7623 85.2982 27.6617 87.907 25.9116C96.3866 21.653 104.849 22.931 113.297 26.0031C116.237 27.0682 118.915 28.6491 121.516 30.3617Z" fill="#EBA32D"/>
</g>
<defs>
<clipPath id="clip0_1689_10501">
<rect width="165.207" height="148.48" fill="white" transform="translate(-3.25 43.4016) rotate(-15)"/>
</clipPath>
</defs>
</svg>
