<svg width="169" height="204" viewBox="0 0 169 204" fill="none" xmlns="http://www.w3.org/2000/svg">
<g clip-path="url(#clip0_1689_10540)">
<path d="M168.092 59.5171L177.981 69.4055C177.79 69.9922 178.32 70.2065 178.587 70.5394C182.282 75.1507 185.654 79.9796 188.383 85.2336C182.971 86.9015 177.421 87.8508 171.801 88.4078C170.888 88.4968 170.502 88.6451 170.634 89.7197C171.801 99.0939 170.347 108.175 167.371 117.058C167.12 117.809 167.011 118.413 167.427 119.184C172.305 128.288 176.333 137.741 178.844 147.795C179.026 148.53 179.299 148.856 180.113 148.859C185.529 148.876 190.941 148.783 196.311 147.976C196.7 148.642 196.4 149.199 196.027 149.743C190.638 150.135 185.252 150.563 179.843 150.362C178.897 150.326 178.541 150.893 178.132 151.565C173.3 159.45 168.287 167.232 161.962 174.005C159.447 176.698 158.24 179.586 157.696 183.136C156.493 190.951 154.308 198.549 151.981 206.097C151.424 206.496 150.87 206.898 150.316 207.293C149.578 206.68 150.257 206.107 150.432 205.589C153.253 197.25 155.218 188.7 156.767 180.044C157.004 178.719 156.661 178.403 155.366 178.241C145.794 177.048 136.716 174.332 128.519 169.101C127.639 168.537 127.062 168.732 126.327 169.15C116.508 174.77 106.013 178.62 94.9904 181.066C93.7972 181.33 93.4248 181.9 93.171 182.958C91.5427 189.748 89.5089 196.423 86.9841 202.936C86.46 204.284 86.6314 204.91 87.9202 205.645C94.796 209.561 101.843 213.121 109.144 216.17C109.655 216.384 110.321 216.391 110.575 217.04C108.907 216.855 107.17 217.248 105.581 216.43C100.568 213.988 95.386 211.832 90.6626 208.875C86.8226 206.473 82.91 205.138 78.3383 204.95C71.8778 204.686 65.5987 202.962 59.3261 201.429C56.6958 200.025 54.3951 198.206 52.4174 195.978C52.1735 195.589 51.9592 195.177 51.679 194.811C46.57 188.192 42.4333 181.023 39.7074 173.109C38.9625 170.953 38 169.239 36.141 167.829C31.6154 164.391 28.1841 159.885 24.6737 155.478C23.8991 154.255 23.7079 152.824 23.2629 151.49C24.1331 151.338 24.2749 152.119 24.5979 152.594C28.3555 158.032 32.68 162.95 37.7264 167.232C38.6922 168.053 39.5031 168.171 40.6699 167.611C47.2688 164.44 53.8907 161.319 60.5424 158.266C61.7356 157.719 62.0982 157.1 62.0454 155.781C61.5609 144.05 62.82 132.54 66.7358 121.412C67.0786 120.43 66.871 119.774 66.3073 119.046C60.0216 110.967 53.9732 102.716 48.5971 93.9981C48.2247 93.3949 47.905 93.1872 47.2161 93.4674C38.8109 96.8954 30.6463 100.801 22.9927 105.719C22.6927 104.826 23.052 104.084 23.5233 103.362C31.2726 98.9884 39.1833 94.9342 47.4797 91.6809C48.1851 91.404 48.551 90.8733 48.9169 90.257C51.1517 86.5059 53.6007 82.8966 56.2244 79.4027C60.6446 73.5125 65.6547 68.1662 71.067 63.189C71.568 62.7275 71.924 62.332 71.657 61.5574C70.1408 57.1274 69.4486 52.5259 68.9542 47.8916C69.4222 47.4169 69.9067 46.9785 70.6583 47.1697C70.6451 51.514 71.6405 55.6869 72.7052 59.8632C73.0875 61.3728 73.7138 61.9397 75.3816 62.032C85.7579 62.6121 95.8112 64.5569 104.958 69.834C105.802 70.3218 106.375 69.9197 107.038 69.5934C116.046 65.2194 125.355 61.8441 135.451 61.1684C136.624 61.0893 136.535 60.5916 136.4 59.7313C135.437 53.8048 134.854 47.8487 135.111 41.8299C135.395 41.8761 135.688 41.8926 135.958 41.9783C145.576 44.9843 154.446 49.4638 162.581 55.4167C164.43 56.7714 166.032 58.459 168.102 59.5138L168.092 59.5171ZM126.31 123.766C119.267 117.566 112.236 111.379 104.246 106.388C103.419 105.871 102.733 105.772 101.823 106.134C91.1207 110.377 80.4709 114.737 70.0847 119.711C69.0432 120.212 68.4894 120.891 68.1268 121.946C64.2604 133.229 63.0442 144.848 63.5979 156.707C63.6473 157.746 63.9967 158.57 64.7087 159.354C72.3162 167.733 81.4235 174.104 91.3614 179.382C92.2348 179.846 93.0721 179.945 94.0378 179.731C105.294 177.229 116.007 173.3 126.034 167.558C126.835 167.1 127.392 166.536 127.678 165.643C131.182 154.703 133.058 143.5 133.196 132.003C133.206 131.057 132.913 130.335 132.244 129.679C130.249 127.724 128.285 125.733 126.31 123.759L126.31 123.766ZM160.254 77.4811C156.157 73.5026 151.885 69.7252 147.02 66.6928C143.16 64.2899 139.32 62.1045 134.36 62.7011C124.748 63.8614 115.819 66.9828 107.196 71.2151C106.303 71.6535 106.319 72.349 106.253 73.0873C105.436 82.3099 104.74 91.5358 104.101 100.772C103.92 103.359 104.239 105.281 106.916 106.276C107.654 106.553 108.271 107.169 108.936 107.638C117.526 113.696 125.295 120.713 132.784 128.057C133.456 128.716 133.961 129.26 135.138 128.763C144.726 124.705 154.453 121.01 164.427 117.997C165.241 117.75 165.69 117.302 165.947 116.511C168.837 107.542 170.301 98.4248 169.019 88.9879C168.857 87.7914 168.442 86.7696 167.677 85.8401C165.31 82.9593 162.825 80.1839 160.261 77.4811L160.254 77.4811Z" fill="#FFB438"/>
<path d="M196.024 149.743C195.111 154.453 193.39 158.903 191.521 163.29C188.772 169.744 185.16 175.71 181.007 181.359C179.708 183.133 178.07 184.646 176.989 186.584C174.187 189.385 171.385 192.187 168.584 194.989C165.94 196.973 163.349 199.03 160.64 200.915C157.878 202.84 155.158 204.861 151.974 206.094C154.298 198.542 156.487 190.948 157.69 183.133C158.234 179.583 159.44 176.695 161.955 174.002C168.284 167.232 173.297 159.45 178.126 151.562C178.538 150.893 178.891 150.329 179.837 150.359C185.246 150.56 190.635 150.128 196.021 149.739L196.024 149.743Z" fill="#FFF1D9"/>
<path d="M50.1688 60.2588C52.3179 58.6041 54.4242 56.8934 56.6227 55.3145C60.5253 52.5062 64.4741 49.7572 68.9503 47.8916C69.4414 52.5293 70.1369 57.1274 71.6531 61.5574C71.9168 62.3287 71.5641 62.7276 71.0631 63.189C65.6476 68.1629 60.6407 73.5126 56.2206 79.4028C53.5968 82.8967 51.1478 86.506 48.913 90.257C48.5438 90.8767 48.1813 91.4041 47.4759 91.6809C39.1795 94.9342 31.272 98.9852 23.5195 103.362C24.5512 98.6259 26.2981 94.1366 28.3352 89.7593C31.7566 82.3957 36.0514 75.576 41.4242 69.4649C41.6846 69.1715 41.823 68.7694 42.0175 68.4167L50.1754 60.2588L50.1688 60.2588Z" fill="#FFF1D9"/>
<path d="M42.0112 186.584C40.4686 184.56 38.9161 182.546 37.39 180.505C32.5809 174.081 28.8101 167.087 25.9557 159.598C25.4481 158.26 24.5647 157.014 24.6669 155.475C28.174 159.885 31.6086 164.387 36.1342 167.825C37.9932 169.236 38.959 170.947 39.7006 173.106C42.4298 181.016 46.5632 188.189 51.6722 194.807C51.9491 195.17 52.1666 195.585 52.4106 195.974C51.7447 195.645 51.0822 195.318 50.4164 194.989C47.6147 192.187 44.8129 189.385 42.0112 186.584Z" fill="#FFF1D9"/>
<path d="M126.31 123.766C128.284 125.74 130.249 127.731 132.243 129.685C132.912 130.341 133.209 131.06 133.196 132.009C133.054 143.503 131.179 154.707 127.678 165.65C127.391 166.55 126.834 167.107 126.033 167.565C116.006 173.307 105.297 177.232 94.0375 179.737C93.075 179.948 92.2411 179.853 91.361 179.388C81.4231 174.111 72.3159 167.74 64.7084 159.361C63.9964 158.576 63.647 157.752 63.5976 156.714C63.0405 144.858 64.2601 133.235 68.1265 121.953C68.4891 120.898 69.0395 120.216 70.0844 119.718C80.4738 114.741 91.1204 110.383 101.823 106.141C102.733 105.779 103.418 105.877 104.246 106.395C112.236 111.385 119.263 117.569 126.31 123.772L126.31 123.766Z" fill="#FFF1D9"/>
<path d="M160.256 77.4844C162.82 80.1873 165.309 82.9593 167.675 85.8402C168.44 86.7697 168.855 87.7915 169.017 88.988C170.299 98.4248 168.839 107.545 165.945 116.511C165.691 117.305 165.243 117.753 164.425 117.997C154.451 121.01 144.724 124.705 135.136 128.763C133.962 129.257 133.455 128.716 132.782 128.057C125.293 120.713 117.528 113.693 108.935 107.638C108.269 107.17 107.652 106.553 106.914 106.276C104.241 105.278 103.925 103.359 104.099 100.772C104.739 91.5359 105.434 82.31 106.252 73.0874C106.318 72.349 106.301 71.6535 107.194 71.2151C115.814 66.9796 124.746 63.8614 134.358 62.7012C139.315 62.1013 143.155 64.2866 147.018 66.6928C151.883 69.7253 156.155 73.5027 160.252 77.4811L160.256 77.4844Z" fill="#FFF1D9"/>
<path d="M23.2509 151.49C21.4116 144.614 20.2876 137.642 20.103 130.503C19.9119 123.087 20.4491 115.759 22.028 108.511C22.2389 107.542 22.4202 106.57 22.9839 105.723C30.6342 100.801 38.8021 96.8988 47.2073 93.4708C47.8962 93.1906 48.2126 93.395 48.5884 94.0015C53.9677 102.723 60.0128 110.97 66.2986 119.049C66.8655 119.774 67.0765 120.433 66.7271 121.416C62.8112 132.543 61.5521 144.053 62.0366 155.784C62.0894 157.103 61.7268 157.723 60.5336 158.27C53.8787 161.325 47.2567 164.447 40.6611 167.614C39.4943 168.175 38.6834 168.056 37.7177 167.235C32.6746 162.95 28.3467 158.036 24.5891 152.597C24.2628 152.126 24.1243 151.341 23.2542 151.493L23.2509 151.49Z" fill="#FFF1D9"/>
<path d="M150.309 207.293C137.77 213.431 124.553 216.793 110.571 217.037C110.317 216.387 109.648 216.378 109.14 216.167C101.836 213.121 94.7919 209.558 87.9161 205.642C86.6306 204.91 86.4592 204.284 86.98 202.933C89.5049 196.419 91.5419 189.748 93.1669 182.955C93.4207 181.897 93.7932 181.326 94.9864 181.063C106.005 178.614 116.504 174.767 126.323 169.147C127.058 168.728 127.635 168.534 128.515 169.098C136.709 174.325 145.79 177.045 155.362 178.238C156.661 178.403 157 178.716 156.763 180.041C155.214 188.696 153.249 197.247 150.428 205.586C150.253 206.103 149.577 206.68 150.312 207.29L150.309 207.293Z" fill="#FFF1D9"/>
<path d="M70.6512 47.173C72.9189 45.459 75.6185 44.6449 78.2192 43.6725C87.5143 40.1984 97.1127 38.3195 107.051 38.0591C116.616 37.8086 125.97 38.9293 135.094 41.8299C134.84 47.8454 135.421 53.8049 136.383 59.7313C136.525 60.5916 136.61 61.0926 135.434 61.1684C125.338 61.8508 116.029 65.226 107.021 69.5934C106.358 69.9131 105.788 70.3186 104.941 69.834C95.7942 64.5635 85.741 62.6122 75.3647 62.032C73.6968 61.9397 73.0706 61.3728 72.6882 59.8632C71.6301 55.687 70.6347 51.514 70.6413 47.1697L70.6512 47.173Z" fill="#FFF1D9"/>
<path d="M188.375 85.2369C194.124 96.1076 197.617 107.631 198.656 119.916C199.394 128.664 198.854 137.306 197.093 145.889C196.942 146.621 196.892 147.402 196.309 147.973C190.936 148.783 185.527 148.872 180.112 148.856C179.297 148.853 179.024 148.526 178.843 147.791C176.328 137.741 172.306 128.288 167.425 119.181C167.009 118.409 167.118 117.806 167.369 117.055C170.342 108.168 171.799 99.0906 170.632 89.7164C170.497 88.6386 170.882 88.4902 171.799 88.4045C177.422 87.8508 182.973 86.9015 188.382 85.2303L188.375 85.2369Z" fill="#FFF1D9"/>
<path d="M105.572 216.427C104.013 217.419 102.355 216.704 100.803 216.549C86.369 215.108 73.0163 210.504 60.8205 202.606C60.2899 202.26 59.8185 201.822 59.3175 201.426C65.5901 202.959 71.8659 204.679 78.3297 204.946C82.9047 205.131 86.8173 206.466 90.654 208.872C95.3774 211.829 100.559 213.984 105.572 216.427Z" fill="#FFF1D9"/>
</g>
<defs>
<clipPath id="clip0_1689_10540">
<rect width="179" height="179" fill="white" transform="translate(109.5 254.072) rotate(-135)"/>
</clipPath>
</defs>
</svg>
