<svg width="149" height="166" viewBox="0 0 149 166" fill="none" xmlns="http://www.w3.org/2000/svg">
<g clip-path="url(#clip0_1689_10636)">
<path d="M21.9279 70.346C9.85177 69.8332 3.41711 62.4026 1.15693 55.5803C0.721589 54.2624 0.381667 52.9027 0 51.5668C0 49.6287 0 47.6905 0 45.7524C1.04362 41.9655 2.24826 38.298 4.78276 35.1313C10.2811 28.2554 19.8526 25.4227 28.4938 28.3031C36.8845 31.1 42.7526 39.0434 43.015 47.7681C43.1403 51.9724 42.2636 55.8665 40.1704 59.5103C39.9199 59.9516 39.8066 60.4704 39.6277 60.9534C34.9464 66.3803 29.3227 70.03 21.9279 70.352V70.346Z" fill="#FFF1D9"/>
<path d="M21.926 70.346C29.3208 70.0239 34.9444 66.3802 39.6258 60.9474C43.4544 65.104 47.2353 69.3083 51.6065 72.9222C52.5011 73.6617 53.2584 74.6457 54.5406 74.7888C67.1833 86.4475 84.3285 89.2206 94.8184 71.2465C98.641 65.2889 100.812 58.6395 103 51.9902C103.835 51.9305 104.563 52.2764 105.338 52.5388C109.34 53.9045 113.371 54.4949 117.671 53.976C120.569 53.6302 123.151 52.342 125.99 51.9902C128.113 58.6694 130.391 65.2829 134.172 71.2524C134.822 72.2364 135.436 73.2502 136.128 74.2044C140.708 80.5019 146.671 84.5153 154.674 84.1337C161.049 83.8236 166.607 80.8955 171.73 77.2398C172.702 76.5421 174.086 76.2022 174.444 74.7888C177.175 73.8883 178.868 71.5983 180.842 69.7735C183.836 67.0004 186.538 63.9053 189.358 60.9474C191.428 62.6172 192.984 64.8118 195.197 66.3623C198.793 68.8789 202.788 69.9583 207.058 70.346C200.296 87.3838 194.672 104.815 189.06 122.253C188.273 122.3 187.647 121.853 186.961 121.585C183.717 120.297 180.514 118.901 177.205 117.804C168.116 114.786 158.783 112.848 149.319 111.357C140.302 109.938 131.226 109.216 122.143 108.9C108.934 108.441 95.7487 109.169 82.6289 111.005C75.2102 112.043 67.9049 113.492 60.6532 115.341C53.5029 117.166 46.6449 119.76 39.9061 122.706C35.988 109.479 31.5213 96.4365 26.8578 83.4658C25.2775 79.0706 23.566 74.7232 21.9141 70.3579L21.926 70.346Z" fill="#FFB438"/>
<path d="M125.994 51.9961C123.155 52.354 120.573 53.6361 117.675 53.982C113.375 54.5008 109.344 53.9045 105.342 52.5448C104.567 52.2824 103.839 51.9365 103.004 51.9961C100.84 50.0818 98.1381 48.9189 96.0509 46.8615C88.1075 39.0195 85.5193 29.615 88.7813 19.0595C92.1507 8.16411 100.07 1.90239 111.27 0.26838C126.674 -1.97988 141.082 10.4899 141.439 26.0428C141.696 37.129 136.776 45.2991 127.365 50.9167C126.859 51.2209 126.262 51.3938 125.994 51.9961Z" fill="#FFF1D9"/>
<path d="M59.6046 55.1092C59.1156 54.3697 58.245 54.2385 57.5472 53.8449C51.5241 50.4457 48.1964 43.7129 49.413 37.302C50.7965 29.9788 55.9907 25.0768 63.475 24.0153C69.6174 23.1506 76.3264 26.848 79.3022 32.7459C82.3854 38.8526 81.2046 46.0744 76.3026 51.1076C75.8076 51.6145 75.0204 51.9664 75.1933 52.9027C73.5057 52.8311 72.4382 54.1968 70.9831 54.7096C67.2082 56.0514 63.4213 55.634 59.6106 55.1092H59.6046Z" fill="#FFF1D9"/>
<path d="M153.899 52.4494C150.362 48.925 147.959 44.9056 148.025 39.6875C148.114 32.3344 153.44 25.7328 160.53 24.3075C168.08 22.7868 175.511 26.6034 178.475 33.5092C181.45 40.4448 179.244 48.4598 173.137 52.7595C171.933 53.6064 170.644 54.3279 169.392 55.1032C168.074 55.2642 166.756 55.4491 165.432 55.5863C161.18 56.0395 157.387 54.7931 153.893 52.4435L153.899 52.4494Z" fill="#FFF1D9"/>
<path d="M59.6021 55.1091C63.4128 55.6399 67.1997 56.0514 70.9746 54.7096C72.4297 54.1967 73.4972 52.831 75.1848 52.9026C77.5822 57.0771 80.0093 61.2158 83.671 64.4898C86.9807 67.4477 90.6304 69.7675 94.8168 71.2465C84.327 89.2146 67.1818 86.4416 54.5391 74.7888C56.8112 68.378 58.6301 61.8539 59.6021 55.1091Z" fill="#EBA32D"/>
<path d="M153.895 52.4493C157.384 54.799 161.183 56.0394 165.435 55.5921C166.759 55.449 168.076 55.2701 169.394 55.1091C170.355 61.8598 172.191 68.378 174.451 74.7947C174.094 76.2081 172.716 76.548 171.738 77.2457C166.615 80.9074 161.057 83.8355 154.682 84.1396C146.673 84.5272 140.716 80.5078 136.136 74.2103C135.444 73.2561 134.83 72.2423 134.18 71.2584C142.356 68.2766 148.313 62.7722 152.458 55.2045C152.953 54.298 153.418 53.3677 153.901 52.4493H153.895Z" fill="#EBA32D"/>
<path d="M199.982 158.529C194.203 163.526 187.333 166.538 180.278 169.126C168.733 173.36 156.752 175.722 144.569 177.32C131.014 179.103 117.405 179.479 103.796 178.912C85.1779 178.137 66.8161 175.525 49.1939 169.108C42.133 166.538 35.269 163.503 29.4844 158.511C29.8601 158.052 30.2 157.563 30.6115 157.145C36.9746 150.758 44.9955 147.21 53.2729 144.228C71.3902 137.71 90.2886 135.593 109.372 134.812C116.94 134.502 124.501 135.062 132.069 135.581C140.209 136.142 148.266 137.197 156.251 138.79C167.88 141.109 179.187 144.437 189.611 150.234C193.5 152.398 197.239 154.867 199.976 158.529H199.982Z" fill="#EBA32D"/>
<path d="M199.979 158.529C197.248 154.867 193.509 152.392 189.615 150.234C179.19 144.443 167.884 141.109 156.255 138.79C148.263 137.197 140.213 136.142 132.072 135.581C124.511 135.062 116.949 134.502 109.375 134.812C90.2919 135.593 71.3934 137.716 53.2762 144.228C44.9988 147.204 36.9778 150.758 30.6147 157.145C30.1973 157.563 29.8573 158.052 29.4876 158.511C26.8636 156.394 24.5677 153.973 22.9217 151.015C19.6716 145.188 20.6735 138.617 25.5874 133.13C29.0105 129.313 33.1611 126.469 37.6219 124.018C38.4031 123.588 39.1664 123.135 39.9357 122.694C46.6745 119.742 53.5386 117.154 60.6829 115.329C67.9345 113.48 75.2399 112.031 82.6585 110.993C95.7783 109.163 108.964 108.435 122.173 108.888C131.255 109.204 140.326 109.926 149.349 111.345C158.813 112.836 168.146 114.774 177.234 117.792C180.538 118.889 183.747 120.291 186.991 121.573C187.677 121.847 188.303 122.294 189.09 122.241C190.676 123.755 192.787 124.4 194.594 125.545C198.649 128.109 202.454 130.936 205.269 134.883C209.748 141.169 209.491 147.997 204.577 153.973C203.206 155.637 201.703 157.181 199.991 158.511L199.979 158.529Z" fill="#FFF1D9"/>
</g>
<defs>
<clipPath id="clip0_1689_10636">
<rect width="229" height="179.151" fill="white"/>
</clipPath>
</defs>
</svg>
