<svg width="149" height="166" viewBox="0 0 149 166" fill="none" xmlns="http://www.w3.org/2000/svg">
<g clip-path="url(#clip0_1689_10602)">
<path d="M124.78 17.413C121.362 14.9984 118.256 12.4039 117.548 7.87067C116.939 3.98174 117.885 2.0605 121.571 0.557164C121.89 0.423664 122.302 0.435273 122.412 -0.00585938H129.813C131.392 0.359816 132.605 1.32334 133.812 2.34491C153.158 18.7481 164.871 39.4464 168.151 64.62C174.721 115.106 142.321 161.338 92.6416 172.686C88.683 173.591 84.6606 174.143 80.6207 174.561C74.5435 175.164 68.4664 175.193 62.3892 174.549C39.7696 172.204 20.1856 163.271 3.74186 147.53C1.66971 145.544 1.21116 139.334 2.8538 136.02C4.22363 133.262 7.32896 131.98 11.0438 132.496C12.9244 132.757 14.4625 133.437 15.7511 134.876C16.6566 135.892 17.7942 136.699 18.8274 137.598C20.7254 139.52 22.6873 141.348 25.2761 142.329C25.3399 143.217 26.1293 143.461 26.7039 143.838C47.0773 157.084 69.0816 160.961 92.5893 154.686C124.798 146.096 148.224 118.148 151.225 85.0049C153.286 62.2634 146.674 42.2209 131.96 24.8078C131.519 24.2854 131.223 23.496 130.3 23.6063C129.163 20.9131 126.562 19.5258 124.78 17.413Z" fill="#FFB438"/>
<path d="M17.5185 124.155C12.5732 118.769 8.68429 112.721 6.07812 105.872C7.70335 105.523 9.3634 105.291 10.9538 104.809C15.6379 103.399 18.7897 100.561 19.3527 95.4121C19.5268 93.8333 19.8229 92.2661 20.1189 90.7106C20.5484 88.4643 21.8196 87.2628 24.0949 87.0886C25.5344 86.9784 26.9797 86.9726 28.4249 87.2744C32.5925 88.1567 36.7484 89.1434 41.0088 89.5381C44.1664 89.8341 47.2485 89.4104 50.1333 88.0986C53.5579 86.543 54.9857 82.7238 53.8365 78.4111C52.6756 74.052 50.2726 70.3547 47.5561 66.8314C45.8322 64.5967 44.0329 62.4143 42.367 60.1332C41.0494 58.328 41.3339 56.6447 43.0055 55.1298C44.4276 53.8412 46.0586 52.9648 47.7941 52.1928C50.9053 50.8114 54.1963 49.8304 57.1159 48.0427C60.1516 46.1853 60.2387 44.0841 57.3771 41.9655C55.2701 40.4041 52.8439 39.4174 50.528 38.2217C43.1216 34.4024 38.658 28.6503 38.8554 19.9437C38.9076 17.6104 39.7551 15.4279 40.0337 13.141C47.0338 9.73384 54.3763 7.57461 62.1019 6.47178C74.1866 4.74789 85.8186 6.41374 97.2009 10.5058C93.5558 11.8873 89.9629 13.3558 86.7531 15.6543C81.2215 19.6129 78.7778 25.2025 80.2754 30.9778C81.0241 33.8742 82.4114 36.492 84.1179 38.9472C86.428 42.2789 88.6743 45.6629 89.9164 49.5692C91.5475 54.7119 90.4969 57.7534 85.9578 60.6904C83.4097 62.3388 80.7049 63.7319 78.0987 65.2933C73.7861 67.882 73.4204 70.076 76.4967 74.0404C79.3409 77.703 83.0208 80.6052 85.7083 84.4186C88.2854 88.0696 88.9703 91.6103 86.3932 95.6385C84.3965 98.7554 85.2555 100.624 88.8426 101.901C91.0831 102.697 93.4049 103.26 95.6453 104.061C98.5069 105.082 101.386 106.133 102.872 109.145C100.834 111.682 98.443 113.847 95.9762 115.96C88.3725 122.478 79.7936 127.185 70.2396 130.145C70.2686 129.64 70.2338 129.124 70.3383 128.642C70.9652 125.728 70.6749 122.867 69.665 120.11C68.2545 116.273 64.9054 115.176 61.4924 117.399C60.349 118.142 59.368 119.135 58.3174 120.023C55.7751 122.164 53.494 124.631 50.4641 126.14C47.2717 127.725 45.3215 127.33 42.9939 124.631C41.27 122.64 40.0685 120.33 38.8728 118.014C36.4988 113.429 33.0336 112.32 28.4133 114.648C27.0551 115.333 25.8362 116.238 24.5999 117.132C21.8718 119.117 19.8809 121.81 17.5243 124.15L17.5185 124.155Z" fill="#FFF1D9"/>
<path d="M40.0381 13.1469C39.7595 15.4338 38.9121 17.622 38.8598 19.9496C38.6625 28.6561 43.1261 34.4083 50.5324 38.2275C52.8484 39.4232 55.2746 40.41 57.3816 41.9713C60.2373 44.0899 60.1561 46.1969 57.1204 48.0485C54.2008 49.8363 50.9097 50.8172 47.7986 52.1986C46.0631 52.9706 44.432 53.8471 43.01 55.1357C41.3383 56.6506 41.0539 58.3397 42.3715 60.139C44.0373 62.4143 45.8367 64.5968 47.5606 66.8373C50.277 70.3605 52.6801 74.0579 53.8409 78.417C54.9902 82.7296 53.5623 86.5547 50.1377 88.1045C47.253 89.4163 44.165 89.84 41.0133 89.544C36.7587 89.1435 32.6027 88.1625 28.4294 87.2802C26.9841 86.9726 25.5388 86.9842 24.0993 87.0945C21.824 87.2686 20.5529 88.4701 20.1233 90.7164C19.8273 92.2778 19.5313 93.845 19.3572 95.418C18.7883 100.566 15.6424 103.405 10.9583 104.815C9.37366 105.291 7.71361 105.529 6.08258 105.877C3.34292 100.781 1.94987 95.2322 1.03278 89.602C-1.95067 71.1963 1.51454 54.0502 11.6258 38.3436C18.7303 27.3037 28.3191 19.0093 40.0381 13.1469Z" fill="#FFB438"/>
<path d="M102.871 109.145C101.391 106.139 98.5059 105.082 95.6443 104.066C93.4038 103.265 91.0821 102.702 88.8416 101.907C85.2487 100.636 84.3954 98.767 86.3921 95.6443C88.9751 91.6102 88.2844 88.0754 85.7072 84.4244C83.0198 80.6109 79.334 77.7088 76.4957 74.0462C73.4194 70.0818 73.7851 67.8878 78.0977 65.299C80.6981 63.7377 83.4087 62.3446 85.9568 60.6962C90.4958 57.7592 91.5464 54.7177 89.9154 49.575C88.6733 45.6687 86.4328 42.2847 84.1168 38.953C82.4103 36.4978 81.0289 33.88 80.2743 30.9836C78.7768 25.2083 81.2205 19.6186 86.752 15.6601C89.9618 13.3615 93.5547 11.8988 97.1999 10.5116C98.9238 11.359 100.839 11.7944 102.406 12.9726C102.314 13.733 102.894 14.1219 103.289 14.6269C105.065 16.908 106.957 19.1137 108.553 21.5109C118.537 36.55 122.588 52.988 120.295 70.9815C118.908 81.8821 115.199 91.8656 109.157 100.996C107.294 103.811 105.216 106.487 103.231 109.226C103.109 109.203 102.987 109.174 102.865 109.139L102.871 109.145Z" fill="#FFB438"/>
<path d="M103.238 109.232C105.217 106.493 107.301 103.817 109.164 101.002C115.206 91.8715 118.915 81.888 120.303 70.9874C122.595 52.9938 118.544 36.5501 108.56 21.5167C106.964 19.1137 105.072 16.9139 103.296 14.6328C102.901 14.122 102.315 13.7389 102.413 12.9785C107.91 15.4222 112.844 18.7481 117.453 22.5847C118.056 23.0897 118.701 23.5541 119.322 24.0358C121.202 25.9223 123.083 27.8029 124.963 29.6893C125.358 30.2059 125.73 30.7457 126.142 31.2449C138.801 46.4813 144.518 64.0686 142.725 83.7164C140.722 105.639 130.46 123.151 112.525 136.02C107.214 139.827 101.514 142.985 95.1464 144.743C92.517 142.491 89.6497 140.506 87.4324 137.801C82.9863 132.369 83.6306 129.165 89.7948 125.775C93.2078 123.9 96.8761 122.49 100.04 120.168C104.213 117.109 105.084 114.091 103.232 109.244L103.238 109.232Z" fill="#EBA32D"/>
<path d="M17.5156 124.155C19.8722 121.816 21.8631 119.117 24.5911 117.138C25.8275 116.244 27.0406 115.339 28.4046 114.654C33.0249 112.326 36.4901 113.435 38.8641 118.02C40.0656 120.342 41.2671 122.646 42.9852 124.637C45.3186 127.33 47.2688 127.731 50.4554 126.146C53.4853 124.637 55.7722 122.17 58.3087 120.028C59.3593 119.146 60.3403 118.148 61.4837 117.405C64.8967 115.182 68.2458 116.279 69.6563 120.116C70.672 122.873 70.9623 125.734 70.3296 128.648C70.2251 129.136 70.2599 129.652 70.2309 130.151C70.1148 130.267 69.9987 130.383 69.8884 130.5C69.25 130.604 68.5941 130.668 67.973 130.83C63.0683 132.078 58.0824 132.903 53.05 133.152C44.4015 133.582 35.9329 132.398 27.6442 129.786C25.2819 129.043 23.1401 127.586 20.5571 127.534C19.2743 126.651 18.2586 125.531 17.5156 124.161V124.155Z" fill="#FFB438"/>
<path d="M20.5625 127.534C23.1396 127.58 25.2873 129.037 27.6496 129.786C35.9383 132.403 44.4068 133.588 53.0554 133.152C58.0877 132.903 63.0795 132.078 67.9784 130.83C68.6053 130.674 69.2554 130.61 69.8938 130.505C69.6094 131.765 69.383 133.036 69.0348 134.272C67.6185 139.305 64.9543 143.734 62.2321 148.133C60.1889 148.249 58.2329 147.727 56.2652 147.315C46.9782 145.353 38.5386 141.418 30.6389 136.252C28.5725 134.632 26.5062 133.019 24.4456 131.399C23.1512 130.111 21.8627 128.822 20.5683 127.539L20.5625 127.534Z" fill="#EBA32D"/>
<path d="M124.962 29.6835C123.082 27.7971 121.201 25.9165 119.32 24.0301C121.114 21.8012 123.424 20.0018 124.782 17.4131C126.564 19.5259 129.165 20.9189 130.302 23.6063C128.52 25.6321 126.744 27.6578 124.962 29.6835Z" fill="#EBA32D"/>
<path d="M24.4351 131.393C26.5015 133.013 28.5679 134.626 30.6284 136.246C28.8465 138.277 27.0587 140.303 25.2768 142.335C22.688 141.354 20.7262 139.525 18.8281 137.604L24.4351 131.399V131.393Z" fill="#EBA32D"/>
<path d="M95.1431 144.738C90.488 146.833 85.5079 147.692 80.5219 148.371C74.7118 149.161 68.861 149.161 63.0276 148.418C62.7548 148.383 62.4936 148.226 62.2266 148.127C64.9488 143.734 67.613 139.305 69.0293 134.267C69.3775 133.03 69.6039 131.759 69.8883 130.5C70.0044 130.383 70.1205 130.267 70.2366 130.145C79.7906 127.185 88.3636 122.478 95.9732 115.96C98.44 113.841 100.831 111.682 102.869 109.145C102.991 109.18 103.113 109.209 103.234 109.232C105.086 114.085 104.215 117.103 100.036 120.156C96.8728 122.472 93.2045 123.883 89.7915 125.763C83.6273 129.153 82.983 132.357 87.4291 137.79C89.6464 140.5 92.5138 142.486 95.1431 144.732V144.738Z" fill="#FFF1D9"/>
</g>
<defs>
<clipPath id="clip0_1689_10602">
<rect width="169" height="222.888" fill="white"/>
</clipPath>
</defs>
</svg>
