<svg width="149" height="176" viewBox="0 0 149 176" fill="none" xmlns="http://www.w3.org/2000/svg">
<g clip-path="url(#clip0_1689_10622)">
<path d="M89.8696 202.785C84.1761 200.938 78.1416 200.654 72.4103 198.806C36.2034 187.126 12.416 163.016 3.42582 126.222C-6.37903 86.0458 4.93207 51.3167 35.8529 23.7021C52.0996 9.18899 71.624 1.49668 93.5262 0.208312C125.015 -1.65793 151.493 9.24583 172.979 32.048C188.022 48.02 196.51 67.2508 199.277 89.0109C199.381 89.7972 199.115 90.7066 200.006 91.2371V111.842C198.689 113.537 198.992 115.659 198.708 117.554C192.91 156.451 163.401 189.532 125.499 199.346C120.307 200.691 115.012 201.648 109.763 202.785H89.8696ZM159.527 101.326C159.924 96.7885 159.441 92.2981 158.646 87.912C154.354 64.314 142.522 45.6232 121.984 32.8438C108.324 24.3462 93.1757 21.3716 77.469 23.2568C58.2193 25.5683 42.2852 34.6058 29.97 49.8389C14.7748 68.6244 9.30873 90.1572 12.6339 113.746C15.1537 131.622 23.0166 147.12 36.3739 159.653C52.289 174.583 70.8756 181.593 92.7589 179.377C111.715 177.454 127.223 169.126 139.718 154.784C153.123 139.418 159.261 121.476 159.517 101.326H159.527Z" fill="#FFF1D9"/>
<path d="M159.539 101.326C159.283 121.476 153.145 139.409 139.74 154.784C127.235 169.127 111.727 177.454 92.7808 179.377C70.8975 181.593 52.3109 174.583 36.3958 159.653C23.0385 147.12 15.1756 131.622 12.6558 113.746C9.33063 90.1573 14.7967 68.6245 29.9919 49.839C42.3071 34.6155 58.2412 25.5685 77.4909 23.257C93.1976 21.3718 108.345 24.3464 122.006 32.8439C142.544 45.6234 154.376 64.3142 158.668 87.9122C159.463 92.2983 159.946 96.7886 159.549 101.326H159.539ZM97.5269 129.405C97.5269 129.405 97.5269 129.462 97.5269 129.49C98.7111 129.49 99.8952 129.481 101.079 129.49C106.413 129.557 109.558 127.113 109.766 122.736C109.975 118.265 106.877 115.29 101.525 114.996C98.569 114.835 95.6133 114.845 92.6482 114.883C91.0188 114.902 90.3556 114.343 90.2988 112.637C90.2135 110.165 90.6777 108.194 92.5913 106.309C97.9722 100.985 103.116 95.415 108.345 89.9489C113.66 84.3881 119.041 78.8841 124.27 73.2475C129.329 67.7909 130.38 60.8849 127.207 55.2956C122.404 46.8076 110.742 46.1634 103.656 54.0167C95.4049 63.149 87.1253 72.2528 78.9877 81.4798C77.3867 83.2892 76.5531 83.2418 74.9426 81.5556C67.5913 73.8538 60.1453 66.2373 52.6709 58.6586C49.0142 54.9546 45.1207 54.2157 40.7251 56.1577C32.7486 59.6723 30.2192 70.9171 36.0453 77.842C39.8536 82.3608 44.0123 86.5859 48.0101 90.9531C53.0404 96.4476 58.0138 101.999 63.1389 107.418C65.0051 109.398 64.6073 111.719 64.1431 113.746C63.7073 115.659 61.5284 114.551 60.1453 114.655C57.9096 114.816 55.655 114.636 53.4004 114.665C49.5826 114.712 47.0722 116.967 46.7406 120.586C46.428 123.986 48.749 127.169 52.2446 127.738C54.4519 128.098 56.716 128.06 58.9612 128.117C64.8536 128.268 64.7872 128.24 64.3988 133.981C64.2946 135.506 63.8589 136.112 62.3147 135.98C59.8422 135.762 57.3602 135.61 54.8782 135.506C50.4921 135.326 47.7922 137.552 47.5838 141.446C47.3659 145.349 50.1321 148.456 54.1487 148.806C56.5076 149.015 58.8664 149.403 61.2158 149.337C63.622 149.271 64.2946 150.076 64.4936 152.529C65.1093 160.004 70.9922 165.726 77.7372 165.906C84.4822 166.076 88.9347 161.974 90.1662 154.017C90.5167 151.762 91.4072 151.355 93.3776 151.554C96.788 151.885 100.217 152.188 103.637 152.236C108.289 152.302 111.159 149.024 110.6 144.43C110.164 140.82 107.995 138.717 104.48 138.007C100.862 137.277 97.1669 137.438 93.5102 137.448C91.0567 137.448 90.2609 136.633 90.2988 134.161C90.3746 128.827 90.2514 128.827 95.4144 129.282C96.1249 129.348 96.8259 129.377 97.5364 129.424L97.5269 129.405Z" fill="#FFB438"/>
<path d="M97.5255 129.415C96.815 129.367 96.1045 129.339 95.4035 129.272C90.2406 128.818 90.3637 128.818 90.2879 134.151C90.25 136.624 91.0458 137.448 93.4994 137.438C97.1561 137.429 100.841 137.268 104.469 137.997C107.984 138.708 110.153 140.811 110.589 144.42C111.148 149.015 108.278 152.293 103.626 152.226C100.206 152.179 96.7771 151.876 93.3667 151.544C91.3963 151.355 90.5058 151.762 90.1553 154.007C88.9238 161.965 84.4713 166.067 77.7263 165.896C70.9814 165.726 65.0985 159.994 64.4827 152.52C64.2838 150.076 63.6111 149.271 61.2049 149.327C58.8556 149.384 56.4967 149.005 54.1379 148.797C50.1212 148.446 47.355 145.339 47.5729 141.436C47.7908 137.543 50.4906 135.316 54.8673 135.496C57.3493 135.601 59.8313 135.752 62.3038 135.97C63.848 136.103 64.2838 135.496 64.388 133.971C64.7858 128.23 64.8521 128.259 58.9503 128.107C56.7051 128.05 54.4315 128.079 52.2337 127.728C48.7381 127.169 46.4266 123.977 46.7298 120.576C47.0613 116.967 49.5623 114.712 53.3895 114.655C55.6346 114.627 57.8988 114.797 60.1344 114.646C61.5175 114.551 63.6964 115.659 64.1322 113.736C64.5964 111.709 64.9942 109.388 63.128 107.408C58.0124 101.989 53.039 96.4381 47.9992 90.9436C44.0014 86.5858 39.8427 82.3608 36.0344 77.8325C30.2083 70.9076 32.7377 59.6628 40.7142 56.1482C45.1098 54.2156 49.0033 54.9451 52.66 58.6491C60.1344 66.2278 67.5805 73.8443 74.9317 81.5461C76.5422 83.2323 77.3758 83.2891 78.9768 81.4703C87.1144 72.2433 95.394 63.1395 103.645 54.0072C110.731 46.1539 122.393 46.7981 127.196 55.2861C130.36 60.8754 129.318 67.7814 124.259 73.238C119.03 78.8746 113.649 84.3786 108.335 89.9394C103.105 95.415 97.9613 100.985 92.5805 106.3C90.6669 108.185 90.2027 110.155 90.2879 112.628C90.3448 114.333 91.0079 114.892 92.6373 114.873C95.593 114.835 98.5581 114.826 101.514 114.987C106.866 115.28 109.964 118.255 109.756 122.726C109.547 127.103 106.402 129.547 101.069 129.481C99.8844 129.462 98.7002 129.481 97.516 129.481C97.516 129.452 97.516 129.424 97.516 129.396L97.5255 129.415Z" fill="#FFF1D9"/>
</g>
<defs>
<clipPath id="clip0_1689_10622">
<rect width="200" height="202.785" fill="white"/>
</clipPath>
</defs>
</svg>
