<svg width="380" height="160" viewBox="0 0 380 160" fill="none" xmlns="http://www.w3.org/2000/svg">
<g clip-path="url(#clip0_1686_10254)">
<path d="M233.613 33.9041C236.916 45.4645 235.556 57.2678 230.626 67.2738C227.76 73.1026 226.108 79.3928 225.574 85.7802C225.015 92.3862 225.695 99.1135 227.541 105.574L229.12 111.111L188.343 122.744L186.764 117.207C183.048 104.214 174.572 93.2119 163.23 85.8774C153.613 79.6357 146.23 69.8482 143.291 57.7292C142.368 53.8676 141.955 50.0061 142.004 46.1931C142.295 25.8895 156.017 7.26169 176.369 1.67577C201.02 -5.0759 226.594 9.25319 233.637 33.9041H233.613Z" fill="#FFA001"/>
<path d="M204.155 115.094L185.867 63.048L192.546 63.6309L209.765 112.665L204.155 115.094Z" fill="#FF882F"/>
<path d="M193.734 113.321L167.141 49.2289L171.536 42.8658L199.782 111.767L193.734 113.321Z" fill="#FF882F"/>
<path d="M220.036 105.598L204.784 37.8871L197.547 35.2155L214.183 107.808L220.036 105.598Z" fill="#FF882F"/>
<g style="mix-blend-mode:multiply" opacity="0.2">
<path d="M225.598 85.7802C225.04 92.3862 225.72 99.1135 227.565 105.574L229.144 111.111L188.367 122.744L186.788 117.207C183.072 104.214 174.596 93.2119 163.255 85.8774C153.637 79.6357 146.254 69.8482 143.315 57.7292C142.368 53.8676 141.955 50.0061 142.004 46.1931C152.18 66.3995 176.491 98.1421 225.574 85.7559L225.598 85.7802Z" fill="#A31C3D"/>
</g>
<path d="M192.273 122.842C192.273 122.842 200.798 150.285 206.675 156.867C212.577 163.449 232.711 159.029 232.395 149.314C232.079 139.599 227.538 112.763 227.538 112.763L192.273 122.842Z" fill="#5383FF"/>
<path d="M231.059 120.049L191.107 126.946C187.659 127.796 184.259 125.902 183.457 122.72L182.316 118.057C181.539 114.876 183.676 111.621 187.124 110.771L226.566 101.032C230.015 100.182 233.415 102.077 234.216 105.258L235.358 109.921C236.135 113.103 234.508 119.223 231.083 120.073L231.059 120.049Z" fill="#B6CBFF"/>
<path d="M192.64 131.099C191.329 133.309 192.495 136.369 194.559 137.292C196.623 138.191 230.43 135.835 232.64 134.135C234.851 132.459 232.738 126.897 231.669 125.999C230.6 125.1 194.268 128.379 192.64 131.099Z" fill="#B6CBFF"/>
<path d="M196.453 144.481C195.141 146.691 196.307 149.751 198.372 150.674C200.436 151.573 234.243 149.217 236.453 147.517C238.663 145.841 236.55 140.279 235.481 139.381C234.413 138.482 198.08 141.761 196.453 144.481Z" fill="#B6CBFF"/>
<g style="mix-blend-mode:soft-light" opacity="0.64">
<path d="M184.797 9.88463C180.668 17.2192 209.205 35.7741 215.35 25.9381C221.494 16.102 192.593 -4.0073 184.797 9.88463Z" fill="white"/>
</g>
</g>
<path d="M293.336 104.354L289.077 107.177C288.656 107.46 288.4 107.923 288.4 108.416L288.34 113.495C288.325 114.749 286.866 115.451 285.857 114.675L281.84 111.538C281.449 111.224 280.922 111.135 280.441 111.284L275.55 112.793C274.347 113.166 273.218 112.001 273.655 110.821L275.415 106.056C275.596 105.593 275.52 105.071 275.234 104.652L272.285 100.5C271.548 99.4694 272.33 98.0504 273.594 98.1101L278.71 98.3043C279.207 98.3193 279.688 98.0952 279.989 97.6919L283.044 93.6142C283.796 92.5986 285.391 92.8973 285.737 94.1072L287.136 98.9914C287.272 99.4694 287.648 99.8577 288.114 100.022L292.96 101.65C294.163 102.053 294.374 103.652 293.321 104.354H293.336Z" fill="#FFA001"/>
<path d="M324.547 140.139L321.165 143.968C320.831 144.351 320.704 144.864 320.832 145.34L322.088 150.261C322.398 151.477 321.17 152.533 319.995 152.044L315.303 150.054C314.844 149.852 314.312 149.902 313.885 150.171L309.552 152.893C308.486 153.566 307.095 152.732 307.211 151.48L307.678 146.422C307.732 145.928 307.525 145.442 307.14 145.112L303.217 141.865C302.238 141.06 302.626 139.487 303.863 139.217L308.854 138.081C309.338 137.967 309.745 137.626 309.931 137.158L311.826 132.429C312.29 131.253 313.908 131.129 314.556 132.208L317.171 136.564C317.426 136.99 317.89 137.268 318.383 137.306L323.484 137.625C324.751 137.703 325.368 139.192 324.533 140.143L324.547 140.139Z" fill="#FFA001"/>
<path d="M57.2245 154.539L53.1054 154.794C52.6961 154.822 52.3301 155.043 52.131 155.388L50.0378 158.916C49.5205 159.788 48.2159 159.689 47.8244 158.739L46.2808 154.922C46.1338 154.544 45.8016 154.269 45.4044 154.179L41.3741 153.259C40.3812 153.034 40.0623 151.763 40.8442 151.114L44.0002 148.492C44.3135 148.241 44.472 147.845 44.4409 147.437L44.0549 143.341C43.9554 142.322 45.0759 141.645 45.9359 142.198L49.4364 144.4C49.7777 144.611 50.205 144.649 50.5784 144.488L54.3622 142.869C55.2987 142.462 56.2938 143.316 56.0473 144.302L55.0535 148.284C54.9552 148.673 55.0615 149.096 55.3214 149.4L58.0533 152.496C58.7325 153.264 58.2343 154.467 57.214 154.533L57.2245 154.539Z" fill="#FFA001"/>
<path d="M141.336 134.354L137.077 137.177C136.656 137.46 136.4 137.923 136.4 138.416L136.34 143.495C136.325 144.749 134.866 145.451 133.857 144.675L129.84 141.538C129.449 141.224 128.922 141.135 128.441 141.284L123.55 142.793C122.347 143.166 121.218 142.001 121.655 140.821L123.415 136.056C123.596 135.593 123.52 135.071 123.234 134.652L120.285 130.5C119.548 129.469 120.33 128.05 121.594 128.11L126.71 128.304C127.207 128.319 127.688 128.095 127.989 127.692L131.044 123.614C131.796 122.599 133.391 122.897 133.737 124.107L135.136 128.991C135.272 129.469 135.648 129.858 136.114 130.022L140.96 131.65C142.163 132.053 142.374 133.652 141.321 134.354H141.336Z" fill="#FFA001"/>
<path d="M103.231 82.247L99.8168 89.1079C99.4823 89.7925 99.4973 90.5858 99.867 91.2261L103.598 97.8683C104.519 99.5095 103.15 101.516 101.257 101.263L93.6861 100.202C92.9426 100.088 92.1913 100.366 91.6779 100.921L86.4567 106.549C85.1731 107.937 82.8333 107.27 82.5152 105.409L81.2285 97.8995C81.1158 97.1625 80.626 96.5399 79.941 96.211L72.9956 93.0288C71.2649 92.2429 71.2171 89.8128 72.9038 88.9425L79.6951 85.3578C80.3514 85.0048 80.8088 84.3526 80.8973 83.603L81.8069 76.0151C82.0225 74.1315 84.3184 73.3233 85.6754 74.6354L91.1564 79.9307C91.6908 80.45 92.4707 80.6724 93.1999 80.536L100.715 79.0172C102.581 78.6382 104.053 80.5564 103.212 82.2583L103.231 82.247Z" fill="#FFA001"/>
<path d="M349.649 80.0391L344.575 85.7825C344.075 86.3573 343.884 87.1274 344.076 87.8416L345.96 95.223C346.425 97.0468 344.583 98.6305 342.821 97.8966L335.782 94.9116C335.094 94.609 334.296 94.6836 333.656 95.087L327.156 99.1712C325.557 100.18 323.47 98.9297 323.644 97.0506L324.345 89.4636C324.427 88.7226 324.115 87.9943 323.538 87.4994L317.653 82.628C316.185 81.421 316.768 79.0613 318.622 78.6572L326.11 76.9524C326.835 76.7812 327.446 76.2697 327.725 75.5685L330.568 68.4746C331.263 66.7109 333.69 66.5245 334.661 68.1431L338.585 74.6766C338.967 75.3165 339.663 75.7332 340.402 75.7902L348.054 76.2681C349.955 76.3851 350.881 78.6189 349.627 80.045L349.649 80.0391Z" fill="#FFA001"/>
<defs>
<clipPath id="clip0_1686_10254">
<rect width="95.422" height="160" fill="white" transform="translate(142)"/>
</clipPath>
</defs>
</svg>
