<svg width="51" height="31" viewBox="0 0 51 31" fill="none" xmlns="http://www.w3.org/2000/svg">
<path d="M2.96385 18.3512L24.0571 20.5784C24.7319 20.6571 25.4111 20.4751 25.9561 20.0696L40.731 9.3608L45.0178 25.3593C45.0178 25.3593 45.0178 25.3593 45.0373 25.432L43.9132 27.3817C43.0055 28.8321 45.3364 30.1287 46.1498 28.6646L46.9021 27.3597L48.2061 28.1136C48.3516 28.2043 48.5142 28.2641 48.6838 28.2894C48.8533 28.3146 49.0262 28.3048 49.1918 28.2604C49.3573 28.216 49.512 28.1381 49.6462 28.0315C49.7804 27.9249 49.8913 27.7917 49.972 27.6404C50.0607 27.4954 50.1189 27.3339 50.1432 27.1656C50.1674 26.9973 50.1573 26.8258 50.1132 26.6615C50.0692 26.4972 49.9923 26.3436 49.8871 26.21C49.782 26.0764 49.6508 25.9656 49.5015 25.8843L47.4918 24.7224L42.9487 7.76708L43.1525 7.60861C43.6045 7.32319 43.9533 6.90046 44.1479 6.40222C44.3426 5.90399 44.3728 5.35638 44.2343 4.83948C44.0958 4.32257 43.7958 3.86347 43.3781 3.52931C42.9604 3.19515 42.447 3.00345 41.9129 2.98224L20.8067 0.706564C20.1329 0.640085 19.458 0.820915 18.9077 1.21541L1.72421 13.7248C1.27227 14.0102 0.923475 14.433 0.728832 14.9312C0.53419 15.4294 0.503907 15.977 0.642411 16.4939C0.780916 17.0108 1.08094 17.4699 1.49863 17.8041C1.91631 18.1383 2.42974 18.33 2.96385 18.3512Z" fill="white"/>
<path d="M23.8278 23.158L9.80501 21.7233L11.9046 29.559C11.9604 29.8255 12.1013 30.0667 12.3061 30.246C12.5108 30.4253 12.7683 30.5331 13.0395 30.553C17.897 31.0379 22.8016 30.6385 27.5158 29.374C32.2121 28.0985 36.6392 25.9844 40.584 23.1335C40.8089 22.9807 40.978 22.7586 41.0657 22.5009C41.1534 22.2433 41.1548 21.964 41.0699 21.7053L38.9671 13.8574L27.5403 22.1114C27.0152 22.496 26.4223 22.7782 25.7926 22.9431C25.1573 23.1387 24.4905 23.2117 23.8278 23.158Z" fill="white"/>
</svg>
