<svg width="200" height="162" viewBox="0 0 200 162" fill="none" xmlns="http://www.w3.org/2000/svg">
<mask id="mask0_1192_3294" style="mask-type:alpha" maskUnits="userSpaceOnUse" x="0" y="0" width="200" height="162">
<rect width="200" height="162" rx="16" fill="#D9D9D9"/>
</mask>
<g mask="url(#mask0_1192_3294)">
<path d="M82.7112 64.7055C80.6828 66.7317 78.7626 68.8634 76.9586 71.0917C79.7557 74.7335 91.9472 90.6726 105.511 108.037C107.727 105.662 109.997 103.34 112.319 101.123C114.641 98.9061 115.961 97.745 117.597 95.8449C110.802 90.9274 105.431 84.2985 102.029 76.6319C98.6267 68.9654 97.3152 60.5347 98.2276 52.197C92.6257 55.8032 87.4241 59.9964 82.7112 64.7055Z" fill="white" fill-opacity="0.1"/>
<path d="M110.102 45.7052C107.625 53.6805 107.832 62.2483 110.692 70.0945C113.552 77.9407 118.907 84.632 125.935 89.1421C150.318 69.4028 179.24 55.1526 204.045 53.9914C190.463 44.5511 174.651 38.8208 158.175 37.3674C141.698 35.9141 125.127 38.7881 110.102 45.7052Z" fill="white" fill-opacity="0.1"/>
<path d="M137.441 93.7338C150.262 96.6388 163.253 98.7365 176.337 100.014C201.512 103.128 227.109 106.295 243.258 115.056C239.994 96.4318 231.204 79.2195 218.031 65.6555C195.39 60.2721 163.988 73.6251 137.441 93.7338Z" fill="white" fill-opacity="0.1"/>
<path d="M143.193 226.683C145.463 226.683 147.68 227 149.949 227C174.199 227.011 197.529 217.716 215.128 201.033C186.418 195.755 152.113 184.249 124.194 149.151C118.441 142.026 111.791 133.318 105.089 124.873C100.521 130.463 96.3589 136.372 92.6333 142.554C95.5888 147.832 98.9137 154.746 102.714 162.504C113.48 184.777 129.208 216.919 143.193 226.683Z" fill="white" fill-opacity="0.1"/>
<path d="M68.7782 181.294C69.6719 167.669 73.6416 154.424 80.3891 142.554C79.7765 141.445 79.0514 140.401 78.2252 139.44C71.8746 131.696 64.2974 125.046 55.7951 119.754C53.0102 141.146 57.589 162.849 68.7782 181.294Z" fill="white" fill-opacity="0.1"/>
<path d="M244.947 128.99C233.336 117.643 201.67 113.737 175.335 110.517C159.228 109.287 143.302 106.314 127.835 101.651C125.091 104.026 122.558 106.453 119.813 108.934C117.069 111.415 114.536 114.212 112.266 116.693C119.391 125.876 126.516 135.007 132.585 142.607C160.504 177.599 194.123 187.258 223.836 191.797C238.212 174.089 245.709 151.786 244.947 128.99Z" fill="white" fill-opacity="0.1"/>
<path d="M82.7112 199.186C94.5296 210.989 109.26 219.456 125.408 223.728C113.533 208.897 102.608 186.519 93.2138 167.255C90.9444 162.61 88.7806 158.388 86.6167 154.06C79.4685 167.554 77.5876 183.222 81.339 198.024L82.7112 199.186Z" fill="white" fill-opacity="0.1"/>
<path d="M57.8006 109.04C68.7806 114.899 78.472 122.903 86.3001 132.579C89.9999 126.86 94.054 121.378 98.4387 116.165C86.6167 100.701 75.1642 86.1337 70.3615 79.853C64.5657 88.8077 60.3194 98.6745 57.8006 109.04Z" fill="white" fill-opacity="0.1"/>
</g>
</svg>
