<svg width="190" height="190" viewBox="0 0 190 190" fill="none" xmlns="http://www.w3.org/2000/svg">
<path d="M27.7112 27.7055C25.6828 29.7317 23.7626 31.8634 21.9586 34.0917C24.7557 37.7335 36.9472 53.6726 50.5108 71.0368C52.7275 68.6618 54.9969 66.3395 57.319 64.1228C59.6412 61.9061 60.9606 60.745 62.5967 58.8449C55.8022 53.9274 50.4309 47.2985 47.0288 39.6319C43.6267 31.9654 42.3152 23.5347 43.2276 15.197C37.6257 18.8032 32.4241 22.9964 27.7112 27.7055Z" fill="white" fill-opacity="0.1"/>
<path d="M55.1024 8.70519C52.6249 16.6805 52.832 25.2483 55.692 33.0945C58.552 40.9407 63.907 47.632 70.9355 52.1421C95.3184 32.4028 124.24 18.1526 149.045 16.9914C135.463 7.55108 119.651 1.82076 103.175 0.367428C86.6979 -1.0859 70.1274 1.78814 55.1024 8.70519Z" fill="white" fill-opacity="0.1"/>
<path d="M82.4408 56.7338C95.2622 59.6388 108.253 61.7365 121.337 63.0145C146.512 66.1284 172.109 69.2951 188.258 78.0564C184.994 59.4318 176.204 42.2195 163.031 28.6555C140.39 23.2721 108.988 36.6251 82.4408 56.7338Z" fill="white" fill-opacity="0.1"/>
<path d="M88.1935 189.683C90.4629 189.683 92.6795 190 94.9489 190C119.199 190.011 142.529 180.716 160.128 164.033C131.418 158.755 97.1128 147.249 69.1938 112.151C63.4412 105.026 56.7913 96.3178 50.0886 87.8732C45.5213 93.4629 41.3589 99.3715 37.6333 105.554C40.5888 110.832 43.9137 117.746 47.7137 125.504C58.4801 147.777 74.2076 179.919 88.1935 189.683Z" fill="white" fill-opacity="0.1"/>
<path d="M13.7782 144.294C14.6719 130.669 18.6416 117.424 25.3891 105.554C24.7765 104.445 24.0514 103.401 23.2252 102.44C16.8746 94.6962 9.29742 88.0458 0.795063 82.7537C-1.98977 104.146 2.58898 125.849 13.7782 144.294Z" fill="white" fill-opacity="0.1"/>
<path d="M189.947 91.99C178.336 80.6425 146.67 76.7369 120.335 73.5174C104.228 72.287 88.3015 69.3141 72.8354 64.6506C70.091 67.0257 67.5577 69.4535 64.8133 71.9341C62.069 74.4147 59.5357 77.2119 57.2663 79.6925C64.3911 88.876 71.516 98.0067 77.5853 105.607C105.504 140.599 139.123 150.258 168.836 154.797C183.212 137.089 190.709 114.786 189.947 91.99Z" fill="white" fill-opacity="0.1"/>
<path d="M27.7112 162.186C39.5296 173.989 54.26 182.456 70.4077 186.728C58.5329 171.897 47.6081 149.519 38.2138 130.255C35.9444 125.61 33.7806 121.388 31.6167 117.06C24.4685 130.554 22.5877 146.222 26.339 161.024L27.7112 162.186Z" fill="white" fill-opacity="0.1"/>
<path d="M2.80058 72.0396C13.7806 77.8987 23.472 85.9034 31.3001 95.5789C34.9999 89.8596 39.054 84.3775 43.4387 79.1647C31.6167 63.7006 20.1642 49.1337 15.3615 42.853C9.56572 51.8077 5.31938 61.6745 2.80058 72.0396Z" fill="white" fill-opacity="0.1"/>
</svg>
