<svg width="37" height="37" viewBox="0 0 37 37" fill="none" xmlns="http://www.w3.org/2000/svg">
<path d="M5.3964 5.39529C5.00139 5.78986 4.62745 6.20498 4.27614 6.63892C4.82086 7.3481 7.19498 10.452 9.83632 13.8335C10.268 13.371 10.7099 12.9187 11.1621 12.4871C11.6143 12.0554 11.8713 11.8293 12.1899 11.4593C10.8667 10.5017 9.82075 9.21075 9.15824 7.7178C8.49573 6.22484 8.24033 4.58308 8.41801 2.95941C7.3271 3.66167 6.31418 4.47825 5.3964 5.39529Z" fill="white"/>
<path d="M10.7305 1.69522C10.248 3.2483 10.2883 4.91677 10.8453 6.44472C11.4022 7.97267 12.445 9.27571 13.8137 10.154C18.562 6.31002 24.1941 3.53497 29.0246 3.30886C26.3796 1.47047 23.3005 0.354568 20.0919 0.0715518C16.8833 -0.211465 13.6564 0.348217 10.7305 1.69522Z" fill="white"/>
<path d="M16.0543 11.0482C18.5511 11.6139 21.0809 12.0224 23.6288 12.2712C28.5313 12.8776 33.5159 13.4943 36.6608 15.2005C36.0252 11.5736 34.3135 8.22169 31.7481 5.58029C27.3391 4.53194 21.2239 7.13226 16.0543 11.0482Z" fill="white"/>
<path d="M17.1745 36.9383C17.6165 36.9383 18.0481 37 18.4901 37C23.2124 37.0021 27.7556 35.1922 31.1829 31.9432C25.5919 30.9155 18.9114 28.6749 13.4746 21.84C12.3543 20.4525 11.0594 18.7566 9.7541 17.1122C8.86467 18.2007 8.05411 19.3513 7.32859 20.5553C7.90413 21.5831 8.55162 22.9295 9.29161 24.4403C11.3882 28.7776 14.451 35.0369 17.1745 36.9383Z" fill="white"/>
<path d="M2.68312 28.0993C2.85716 25.4461 3.63021 22.8668 4.94419 20.5553C4.8249 20.3392 4.68369 20.136 4.5228 19.9489C3.28611 18.4408 1.81055 17.1458 0.154828 16.1152C-0.387481 20.2811 0.504171 24.5075 2.68312 28.0993Z" fill="white"/>
<path d="M36.9897 17.9138C34.7286 15.7041 28.5621 14.9435 23.4336 14.3166C20.297 14.0769 17.1956 13.498 14.1837 12.5899C13.6493 13.0524 13.156 13.5251 12.6215 14.0082C12.0871 14.4913 11.5938 15.036 11.1519 15.5191C12.5393 17.3074 13.9268 19.0855 15.1087 20.5655C20.5456 27.3798 27.0924 29.2607 32.8787 30.1446C35.6781 26.6963 37.138 22.353 36.9897 17.9138Z" fill="white"/>
<path d="M5.3964 31.5835C7.69786 33.8821 10.5664 35.531 13.711 36.3628C11.3985 33.4747 9.27105 29.1168 7.44164 25.3654C6.9997 24.4609 6.57832 23.6387 6.15694 22.7959C4.76492 25.4236 4.39865 28.4748 5.12918 31.3574L5.3964 31.5835Z" fill="white"/>
<path d="M0.545376 14.0288C2.68359 15.1697 4.57087 16.7286 6.09528 18.6127C6.81577 17.499 7.60526 16.4314 8.45912 15.4163C6.15694 12.4049 3.9267 9.56814 2.99144 8.34506C1.8628 10.0889 1.03588 12.0103 0.545376 14.0288Z" fill="white"/>
</svg>
