<svg width="167" height="175" viewBox="0 0 167 175" fill="none" xmlns="http://www.w3.org/2000/svg">
<path d="M65.4606 1.55187L51.6761 5.2454C46.5695 6.40402 42.059 9.3815 38.9868 13.622C35.9146 17.8624 34.4906 23.0761 34.9806 28.2895L39.0124 58.3584C39.0947 58.982 39.3092 59.581 39.6416 60.1151C39.9741 60.6492 40.4167 61.1061 40.94 61.4553C41.4619 61.8034 42.0519 62.0363 42.6708 62.1386C43.2898 62.241 43.9234 62.2103 44.5295 62.0487L100.009 47.1831C100.62 47.0247 101.191 46.737 101.682 46.3393C102.173 45.9416 102.573 45.4433 102.855 44.8778C103.137 44.3123 103.295 43.693 103.317 43.0615C103.339 42.43 103.226 41.8011 102.984 41.2172L91.3987 13.1723C89.2193 8.41963 85.387 4.62083 80.6154 2.48311C75.8438 0.345399 70.458 0.014445 65.4606 1.55187Z" fill="white" fill-opacity="0.1"/>
<path d="M137.845 46.1929L9.81618 80.4982C6.42064 81.408 3.5256 83.6294 1.76794 86.6738C0.0102844 89.7181 -0.466021 93.336 0.44381 96.7316C1.35364 100.127 3.57508 103.022 6.61944 104.78C9.66379 106.537 13.2817 107.014 16.6772 106.104L144.706 71.7987C148.102 70.8889 150.997 68.6674 152.754 65.6231C154.512 62.5787 154.988 58.9608 154.078 55.5653C153.169 52.1698 150.947 49.2747 147.903 47.5171C144.858 45.7594 141.241 45.2831 137.845 46.1929Z" fill="white" fill-opacity="0.1"/>
<path d="M13.5531 111.515L29.5622 171.262C29.8655 172.394 30.606 173.359 31.6208 173.945C32.6355 174.531 33.8415 174.689 34.9733 174.386C36.1052 174.083 37.0702 173.342 37.6561 172.327C38.242 171.313 38.4007 170.107 38.0975 168.975L30.0929 139.101L59.1128 131.326L62.4756 154.118C62.5597 154.693 62.7565 155.246 63.0547 155.745C63.3529 156.245 63.7467 156.68 64.2135 157.026C64.6804 157.373 65.211 157.624 65.775 157.765C66.339 157.906 66.9254 157.935 67.5004 157.849L68.0125 157.712C69.0692 157.435 69.9862 156.777 70.5863 155.865C71.1865 154.952 71.4274 153.85 71.2624 152.77L67.6907 129.027L111.989 117.158L120.821 139.536C121.218 140.554 121.978 141.388 122.954 141.879C123.93 142.369 125.053 142.48 126.106 142.191L126.619 142.054C127.159 141.841 127.653 141.523 128.071 141.119C128.489 140.715 128.823 140.232 129.054 139.698C129.285 139.165 129.408 138.591 129.417 138.01C129.426 137.428 129.32 136.851 129.105 136.311L120.567 114.859L149.587 107.083L157.591 136.957C157.894 138.088 158.635 139.054 159.65 139.639C160.664 140.225 161.87 140.384 163.002 140.081C164.134 139.777 165.099 139.037 165.685 138.022C166.271 137.007 166.43 135.801 166.126 134.67L150.117 74.9228C148.843 75.6302 15.0102 111.491 13.5531 111.515Z" fill="white" fill-opacity="0.1"/>
</svg>
