<svg width="142" height="20" viewBox="0 0 142 20" fill="none" xmlns="http://www.w3.org/2000/svg">
<path d="M44 16.7768C43.0392 16.7818 42.0784 16.7883 41.1175 16.791C40.706 16.7921 40.7063 16.7883 40.6196 16.3854C40.5052 15.8536 40.3902 15.3219 40.2738 14.7828C40.2255 14.7737 40.1766 14.7676 40.1275 14.7646C38.726 14.7642 37.3246 14.7678 35.9232 14.7619C35.7582 14.7612 35.6804 14.8071 35.6255 14.9644C35.4328 15.5167 35.2273 16.0648 35.0132 16.6095C34.9837 16.6845 34.8791 16.7821 34.8084 16.7828C33.6515 16.7937 32.4945 16.7908 31.3375 16.7901C31.3013 16.785 31.2656 16.777 31.2308 16.7662C31.2788 16.6456 31.3219 16.5299 31.3704 16.4164C32.6364 13.4507 33.9026 10.4852 35.1691 7.51967C35.6067 6.49418 36.0503 5.47102 36.4724 4.43941C36.7971 3.64604 37.3822 3.26142 38.2439 3.26107C39.1321 3.26071 40.0202 3.26251 40.9083 3.25297C41.0795 3.25113 41.1434 3.30032 41.179 3.46941C41.8042 6.44605 42.434 9.42176 43.0684 12.3965C43.3492 13.7199 43.6309 15.043 43.9133 16.366C43.9374 16.4564 43.9663 16.5454 44 16.6327V16.7768ZM39.6842 11.9897C39.3338 10.3197 38.9874 8.66937 38.6411 7.01907L38.5898 7.02433C37.9752 8.67006 37.3607 10.3158 36.7356 11.9897L39.6842 11.9897Z" fill="#1333C8"/>
<path d="M0 3.42507C0.0301525 3.28327 0.119383 3.25169 0.26202 3.25215C2.07856 3.25813 3.89513 3.25694 5.71168 3.25903C5.84202 3.25835 5.97229 3.26472 6.10191 3.27811C6.8465 3.35998 7.28946 3.77924 7.43386 4.50302C7.95212 7.10067 8.47392 9.69764 8.99927 12.2939C9.00388 12.3169 9.0138 12.3388 9.04156 12.4222C9.09211 12.3053 9.12679 12.2332 9.15497 12.1588C10.2441 9.28034 11.3311 6.40117 12.4161 3.52126C12.4939 3.31396 12.591 3.24713 12.817 3.24993C13.8676 3.26293 14.9185 3.2544 15.9694 3.25359C16.0645 3.25351 16.1597 3.25358 16.2941 3.25358C16.0662 3.80586 15.8543 4.32134 15.641 4.83627C14.0209 8.74759 12.4019 12.6593 10.7838 16.5715C10.7192 16.728 10.6431 16.7881 10.4666 16.7866C9.36695 16.7775 8.26727 16.777 7.16755 16.7851C6.97442 16.7868 6.90114 16.7221 6.85419 16.5469C6.17054 13.9949 5.48329 11.4439 4.79246 8.89382C4.46096 7.66501 4.13408 6.43496 3.79221 5.20895C3.75004 5.08507 3.66424 4.98004 3.55026 4.91279C2.54934 4.35815 1.48218 3.92776 0.373293 3.63149C0.248175 3.59712 0.124402 3.55803 0 3.52112V3.42507Z" fill="#1333C8"/>
<path d="M31.486 6.50679C30.387 5.97585 29.2544 5.74915 28.0691 5.88277C27.6988 5.92586 27.3402 6.0384 27.013 6.21428C26.3404 6.58095 26.2785 7.29143 26.8943 7.74129C27.3936 8.10612 27.9526 8.39702 28.503 8.6881C29.1067 9.00732 29.705 9.32649 30.2263 9.77217C31.3645 10.7453 31.6937 11.9666 31.3514 13.3743C30.9845 14.8834 29.9581 15.8284 28.5463 16.4171C27.4939 16.8559 26.384 17.0091 25.2518 16.9996C24.0523 16.9982 22.8605 16.8104 21.7207 16.4432C21.636 16.4154 21.5553 16.3744 21.4694 16.3512C21.3332 16.3143 21.2952 16.2377 21.3182 16.102C21.4713 15.1944 21.6185 14.2859 21.769 13.3779C21.7782 13.3429 21.7911 13.309 21.8076 13.2767C22.3567 13.4847 22.885 13.7174 23.4337 13.8857C24.4102 14.1854 25.4162 14.2915 26.4219 14.0693C26.7758 13.9826 27.1062 13.821 27.39 13.596C27.8647 13.2263 27.8611 12.5552 27.4343 12.1285C26.9561 11.6504 26.3374 11.3896 25.7448 11.0893C25.0624 10.7434 24.4101 10.3561 23.8463 9.83457C22.5598 8.64465 22.5334 7.09328 23.1922 5.7605C23.8075 4.51574 24.8948 3.79951 26.1949 3.39439C28.0223 2.82499 29.8539 2.8928 31.6746 3.46473C31.9151 3.54028 31.999 3.62597 31.9442 3.89962C31.784 4.69977 31.6685 5.50854 31.5345 6.31377C31.5256 6.36717 31.5083 6.41922 31.486 6.50679Z" fill="#1333C8"/>
<path d="M19.0712 16.7798H15.5102C15.5788 16.3477 15.6425 15.9325 15.7107 15.518C16.2767 12.0768 16.8432 8.63568 17.4101 5.19461C17.5063 4.61072 17.6057 4.02733 17.6964 3.44263C17.717 3.31022 17.7616 3.24907 17.9109 3.24997C19.002 3.25649 20.0931 3.25536 21.1842 3.25761C21.2212 3.26391 21.2575 3.27356 21.2927 3.28643C20.553 7.77969 19.8124 12.2775 19.0712 16.7798Z" fill="#1333C8"/>
<path d="M70.4872 10.0079C70.4872 12.2406 70.4872 14.4733 70.4872 16.7057C70.4872 16.8984 70.389 16.9947 70.1926 16.9947C68.9869 16.9947 67.7809 16.9947 66.5752 16.9947C66.4659 16.9947 66.4134 16.9396 66.418 16.8293C66.4195 16.7902 66.4182 16.7512 66.4182 16.7122C66.4182 14.1023 66.4188 11.4927 66.4164 8.8828C66.4164 8.81178 66.4642 8.70617 66.3341 8.68562C66.1252 8.65232 66.0656 8.6812 66.0209 8.83702C65.7893 9.64628 65.5597 10.4561 65.3267 11.2648C65.0712 12.1516 64.8116 13.0371 64.5554 13.9236C64.273 14.9009 63.9904 15.878 63.7132 16.8568C63.6824 16.9658 63.6325 16.9981 63.5226 16.9976C62.6867 16.9934 61.8509 16.9926 61.0153 16.9983C60.8878 16.9991 60.8319 16.9612 60.7977 16.8378C60.6123 16.1696 60.4193 15.5034 60.2265 14.8372C60.0946 14.3814 59.9564 13.9275 59.8255 13.4712C59.5926 12.6589 59.3645 11.8452 59.1315 11.0328C59.0059 10.5945 58.8724 10.1582 58.746 9.72016C58.6601 9.42231 58.5783 9.12316 58.4984 8.82349C58.4603 8.6812 58.4213 8.66117 58.191 8.68302C58.0653 8.69473 58.1001 8.79253 58.1001 8.86095C58.0982 11.501 58.0985 14.1413 58.0988 16.7814C58.0988 16.816 58.0977 16.8519 58.1066 16.8847C58.1277 16.9627 58.0865 16.9879 58.0204 16.9944C57.9901 16.9973 57.9595 16.9955 57.929 16.9955C56.6752 16.9955 55.4217 16.9934 54.168 16.9986C54.0363 16.9983 54 16.9645 54 16.8319C54.0034 12.2798 54.0029 7.72782 54.0029 3.1758C54.0029 3.06308 54.0599 3.00671 54.174 3.00671C55.4755 3.00671 56.7776 2.98668 58.0784 3.01582C58.6556 3.02882 59.1953 3.22392 59.6427 3.62296C60.035 3.97284 60.2644 4.40595 60.3921 4.90983C60.6133 5.78387 60.8534 6.65322 61.083 7.52518C61.1958 7.95387 61.2995 8.38465 61.4139 8.81282C61.6276 9.61273 61.8493 10.4105 62.0593 11.2115C62.0909 11.3322 62.1646 11.3171 62.2453 11.315C62.3315 11.3129 62.4281 11.3447 62.4618 11.212C62.5614 10.8195 62.6698 10.429 62.774 10.0375C62.8915 9.59556 63.009 9.15334 63.1255 8.71111C63.2716 8.15652 63.4157 7.6014 63.562 7.0468C63.7401 6.37098 63.9225 5.69646 64.0972 5.01986C64.1915 4.65464 64.3036 4.2993 64.5381 3.99417C64.8215 3.62556 65.1718 3.35165 65.6166 3.19687C65.9671 3.07487 66.3242 3.00593 66.6954 3.00619C67.8969 3.00697 69.0981 3.00619 70.2997 3.00645C70.4932 3.00645 70.4901 3.00645 70.4885 3.19271C70.4859 3.51787 70.4875 3.84303 70.4875 4.1682C70.4875 6.11475 70.4872 8.06131 70.4872 10.0079Z" fill="#01AF54"/>
<path d="M72.2767 10.0014C72.2767 7.76008 72.2767 5.51905 72.2767 3.27777C72.2767 3.09689 72.3681 3.00645 72.5509 3.00645C73.7611 3.00645 74.9712 3.00801 76.1811 3.00411C76.307 3.00359 76.3511 3.02674 76.3509 3.16773C76.3457 5.83381 76.347 8.49963 76.3475 11.1657C76.3475 11.2276 76.3295 11.3155 76.4277 11.3111C76.5345 11.3062 76.6711 11.3774 76.7367 11.2248C76.9242 10.7877 77.1115 10.3505 77.297 9.9124C77.5665 9.27664 77.8337 8.63984 78.1033 8.00408C78.4643 7.15319 78.8237 6.30179 79.1893 5.45324C79.3826 5.00504 79.5644 4.54955 79.7945 4.12007C80.0683 3.60944 80.5144 3.27699 81.0642 3.09074C81.2392 3.03143 81.4197 3.00177 81.6104 3.00307C82.7594 3.01036 83.9087 3.00671 85.0577 3.00671C85.2239 3.00671 85.2181 3.00723 85.2176 3.1732C85.215 3.85812 85.2163 4.54304 85.2163 5.22797C85.2163 9.04278 85.2163 12.8576 85.2163 16.6724C85.2163 16.7114 85.2158 16.7504 85.2163 16.7895C85.2184 16.9263 85.1522 16.9947 85.0178 16.9947C83.7815 16.9947 82.5455 16.9947 81.3092 16.9947C81.1889 16.9947 81.1288 16.9361 81.1288 16.8189C81.1288 14.1702 81.129 11.5216 81.1264 8.87291C81.1264 8.80944 81.1753 8.7158 81.0682 8.68588C80.9052 8.64036 80.7819 8.68484 80.7312 8.80606C80.5465 9.24802 80.3645 9.69128 80.1809 10.1335C79.9225 10.7552 79.6629 11.3761 79.4051 11.9981C79.1089 12.7127 78.8161 13.4286 78.5178 14.1421C78.3018 14.6587 78.0928 15.1787 77.8559 15.6857C77.6005 16.2325 77.1731 16.6186 76.6121 16.8417C76.3653 16.9398 76.108 17.0028 75.8301 16.9999C74.7027 16.9879 73.5754 16.995 72.448 16.9947C72.327 16.9947 72.2695 16.9351 72.2756 16.816C72.2777 16.7728 72.2764 16.7294 72.2764 16.6859C72.2764 14.4577 72.2767 12.2296 72.2767 10.0014Z" fill="#01AF54"/>
<path d="M91.1737 3.00879C92.6012 3.00879 94.0284 3.00879 95.4558 3.00879C95.8826 3.00879 96.2985 3.08007 96.7088 3.19219C97.2077 3.32849 97.6596 3.55975 98.0738 3.86462C98.7679 4.37578 99.2654 5.03859 99.5998 5.82887C99.8866 6.50703 100.012 7.21484 99.9991 7.94685C99.9952 8.17446 99.9501 8.4013 99.9284 8.62891C99.9205 8.71163 99.8756 8.74181 99.8012 8.74519C99.775 8.74649 99.7489 8.74571 99.7228 8.74571C97.425 8.74545 95.1275 8.74987 92.8297 8.73973C92.4863 8.73817 92.1428 8.66871 91.7996 8.62969C91.378 8.58157 90.982 8.4411 90.5905 8.28866C90.1676 8.124 89.764 7.9185 89.4023 7.64536C89.0611 7.38783 88.707 7.13628 88.4144 6.82933C88.0733 6.47139 87.7747 6.06871 87.4911 5.66238C87.2074 5.25632 86.9838 4.80994 86.8294 4.33832C86.697 3.93408 86.6025 3.51735 86.4896 3.1066C86.4703 3.03611 86.4977 3.00905 86.5654 3.00905C86.6001 3.00905 86.6351 3.00905 86.6699 3.00905C88.1712 3.00905 89.6723 3.00879 91.1737 3.00879Z" fill="url(#paint0_linear_1615_1393)"/>
<path d="M93.3738 9.3708C95.4282 9.3708 97.4827 9.3708 99.5371 9.3708C99.7309 9.3708 99.7314 9.3734 99.6635 9.55602C99.4384 10.1598 99.1077 10.7011 98.6631 11.1667C98.0336 11.8259 97.2717 12.2637 96.3721 12.4435C96.1397 12.49 95.8991 12.5142 95.6619 12.5153C94.2081 12.522 92.7545 12.5192 91.3007 12.5194C91.1262 12.5194 91.1225 12.522 91.1228 12.6916C91.1231 14.0875 91.1225 15.4831 91.127 16.8789C91.1272 16.9931 91.0682 16.995 90.988 16.995C90.457 16.9944 89.926 16.995 89.395 16.995C88.6594 16.995 87.9239 16.9926 87.1883 16.9973C87.069 16.9981 87.0329 16.9648 87.0332 16.8436C87.0366 14.4119 87.0358 11.9799 87.0358 9.54821C87.0358 9.37627 87.0413 9.37106 87.2108 9.37106C89.2651 9.37106 91.3195 9.3708 93.3738 9.3708Z" fill="#01AF54"/>
<path d="M130.327 17.8616H121.674V2.13777H130.327L130.327 17.8616Z" fill="#FF5F00"/>
<path d="M122.222 10C122.222 6.81043 123.699 3.96914 125.999 2.13809C124.258 0.750042 122.105 -0.00330147 119.888 1.08764e-05C114.427 1.08764e-05 110 4.47709 110 10C110 15.5229 114.427 20 119.888 20C122.105 20.0033 124.259 19.25 125.999 17.8619C123.7 16.0312 122.222 13.1897 122.222 10Z" fill="#EB001B"/>
<path d="M142 10C142 15.5229 137.573 20 132.112 20C129.895 20.0033 127.741 19.25 125.999 17.8619C128.3 16.0309 129.777 13.1897 129.777 10C129.777 6.81027 128.3 3.96914 125.999 2.13809C127.74 0.750084 129.894 -0.0032431 132.112 1.08056e-05C137.573 1.08056e-05 142 4.47709 142 10Z" fill="#F79E1B"/>
<defs>
<linearGradient id="paint0_linear_1615_1393" x1="87" y1="10" x2="100" y2="10" gradientUnits="userSpaceOnUse">
<stop stop-color="#00AFE1"/>
<stop offset="1" stop-color="#008AC9"/>
</linearGradient>
</defs>
</svg>
