<svg width="311" height="38" viewBox="0 0 311 38" fill="none" xmlns="http://www.w3.org/2000/svg">
<path d="M309 25.99C309 27.0946 308.105 27.99 307 27.99C306.992 27.99 306.983 27.99 306.975 27.99L309 25.99ZM309 25.99C309 25.8811 308.991 25.7742 308.975 25.6701M309 25.99L308.975 25.6701M308.975 25.6701V24.4917C308.975 23.3871 308.079 22.4917 306.975 22.4917C298.114 22.4917 293.636 19.0579 288.452 15.0663C288.451 15.0661 288.451 15.0659 288.451 15.0657L288.42 15.0418C285.682 12.9319 282.708 10.6399 278.876 8.90709C274.994 7.15197 270.31 6 264.103 6C257.896 6 253.211 7.15197 249.33 8.90709C245.497 10.6399 242.523 12.9319 239.786 15.0418L239.757 15.0642C239.756 15.0648 239.755 15.0654 239.755 15.066C234.571 19.0475 230.066 22.4817 221.231 22.4817C212.398 22.4817 207.92 19.0493 202.733 15.066C202.733 15.0654 202.732 15.0648 202.731 15.0642L202.702 15.0418C199.964 12.9319 196.99 10.6399 193.158 8.90709C189.276 7.15197 184.592 6 178.385 6C172.178 6 167.494 7.15197 163.612 8.90709C159.779 10.6399 156.806 12.9319 154.068 15.0418L154.036 15.0663L154.035 15.0671C148.879 19.0464 144.375 22.4817 135.539 22.4817C126.704 22.4817 122.226 19.0482 117.039 15.0642L117.01 15.0419C114.272 12.932 111.298 10.6399 107.466 8.90709C103.584 7.15197 98.8992 6 92.6925 6C86.4858 6 81.8011 7.15197 77.9193 8.90709C74.0869 10.6399 71.113 12.9319 68.3754 15.0419L68.3464 15.0642C68.3457 15.0648 68.3449 15.0654 68.3441 15.066C63.1579 19.0493 58.6798 22.4817 49.8462 22.4817C41.0113 22.4817 36.5333 19.0482 31.346 15.0642L31.3171 15.0419C28.5795 12.932 25.6056 10.6399 21.7732 8.90709C17.8914 7.15197 13.2067 6 7 6C5.89543 6 5 6.89543 5 8V9.49834C5 10.6029 5.89543 11.4983 7 11.4983C15.8354 11.4983 20.3398 14.9331 25.5218 18.9329L25.523 18.9337L25.5546 18.9581C28.2922 21.068 31.2661 23.3601 35.0985 25.0929C38.9803 26.848 43.665 28 49.8717 28C56.0784 28 60.7631 26.848 64.6449 25.0929C68.4773 23.3601 71.4512 21.068 74.1888 18.9581L74.2177 18.9358C79.405 14.9518 83.883 11.5183 92.7179 11.5183C101.553 11.5183 106.031 14.9518 111.218 18.9358L111.247 18.9581C113.985 21.068 116.959 23.3601 120.791 25.0929C124.673 26.848 129.357 28 135.564 28C141.771 28 146.456 26.848 150.337 25.0929C154.17 23.3601 157.144 21.0681 159.881 18.9582L159.913 18.9337L159.914 18.9329C165.07 14.9536 169.574 11.5183 178.41 11.5183C187.244 11.5183 191.722 14.9508 196.908 18.9341C196.909 18.9347 196.91 18.9352 196.911 18.9358L196.94 18.9582C199.677 21.0681 202.651 23.3601 206.483 25.0929C210.365 26.848 215.05 28 221.257 28C227.463 28 232.148 26.848 236.03 25.0929C239.862 23.3601 242.836 21.0681 245.574 18.9582L245.605 18.9343C250.789 14.9424 255.268 11.5083 264.128 11.5083C272.988 11.5083 277.466 14.9415 282.651 18.9237L282.654 18.9258M308.975 25.6701L282.654 18.9258M282.654 18.9258L282.683 18.9482C285.421 21.0581 288.394 23.3501 292.227 25.0829C296.102 26.8353 300.778 27.9864 306.97 27.99L282.654 18.9258Z" fill="#5383FF" stroke="#5383FF" stroke-width="4" stroke-linejoin="round"/>
</svg>
