<svg width="103" height="455" viewBox="0 0 103 455" fill="none" xmlns="http://www.w3.org/2000/svg">
<path d="M54.24 12.086C42.7033 30.2282 31.8458 51.5339 20.6245 69.8698C18.9147 74.1712 15.6474 78.6703 16.3093 83.244C16.9661 87.8263 20.5038 91.9588 25.0898 91.3157C28.668 90.8181 31.4194 86.8525 33.4496 83.8561C48.049 62.3091 61.4491 41.0396 72.2267 17.3322C73.6672 14.1571 72.9518 9.65636 71.1044 6.69608C69.2214 3.65749 64.4871 2.51761 61.3426 4.22399C58.1981 5.93036 56.1549 9.0693 54.2264 12.0897L54.24 12.086Z" fill="#5383FF"/>
<path d="M12.4515 75.7859C22.6865 58.0584 33.383 41.9714 41.8651 22.92C44.6363 18.4001 46.1895 13.0499 48.0301 8.06192C49.0358 5.34009 49.0787 1.26569 46.073 0.21165C44.9238 -0.197825 43.6947 0.0509758 42.6066 0.415758C35.629 2.76122 31.801 9.51157 28.5121 15.788C20.477 31.1253 12.4369 46.4712 4.41043 61.8134C-0.225314 71.1228 -1.7332 78.5545 2.47327 81.2487C6.67108 83.9378 11.2215 78.7362 12.4465 75.7946L12.4515 75.7859Z" fill="#5383FF"/>
<path d="M102.311 440.603C101.934 439.615 101.592 438.609 101.305 437.602C100.837 435.985 100.496 434.314 100.226 432.643C99.6333 427.18 99.7232 421.681 99.9927 416.2C100.28 410.09 100.55 403.98 100.712 397.853C100.873 390.934 100.927 384.052 100.837 377.133C100.748 370.233 100.55 363.314 100.55 356.414C100.55 352.568 100.514 348.741 100.658 344.913C100.73 342.936 100.784 340.942 100.855 338.965C100.909 337.276 100.855 335.551 100.981 333.862C101.125 332.963 101.269 332.047 101.359 331.13C101.251 331.921 101.143 332.712 101.035 333.484C101.538 330.088 101.736 326.656 102.078 323.223C102.185 322.055 102.275 320.887 102.383 319.719C102.527 318.336 102.761 316.952 102.725 315.55C102.599 310.375 101.736 305.235 101.341 300.078C100.999 295.729 100.891 291.399 101.107 287.05C101.305 283.061 101.718 279.053 101.646 275.064C101.61 272.854 101.52 270.643 101.305 268.433C101.125 266.528 100.891 264.641 100.388 262.808C100.262 262.341 100.137 261.892 99.9927 261.425C99.9209 261.209 99.8669 260.975 99.813 260.742C99.3817 259.304 98.6807 258.082 97.7821 257.04C97.0093 255.477 95.5535 254.237 93.8821 253.464C93.7742 253.392 93.6484 253.32 93.5406 253.248C91.7613 252.116 89.5866 251.631 87.5018 252.314C85.3091 253.015 83.4759 254.614 82.5234 256.663C82.4335 256.788 82.3436 256.914 82.2538 257.04C81.7505 257.903 81.427 258.801 81.2293 259.753C81.1574 260.023 81.0676 260.311 80.9957 260.58C81.0316 260.526 81.0496 260.472 81.0856 260.418C80.78 261.389 80.5643 262.413 80.5284 263.599C80.5284 263.994 80.4925 264.39 80.4565 264.785C80.3846 265.702 80.2229 266.618 80.2049 267.534C80.133 269.403 80.0611 271.272 79.9173 273.141C79.5938 276.933 79.3063 280.742 79.0187 284.534C78.7491 288.236 78.5694 291.92 78.6772 295.622C78.803 300.545 79.2703 305.469 79.7736 310.375C80.133 313.897 80.5464 317.437 81.5528 320.833C82.2538 323.205 82.9188 325.649 83.3142 328.111C83.5298 329.908 83.7096 331.687 83.9791 333.466C83.8713 332.676 83.7635 331.885 83.6556 331.112C83.7275 331.993 83.8713 332.873 83.9971 333.754C84.1229 335.533 84.051 337.366 84.087 339.145C84.1229 341.121 84.1409 343.116 84.1589 345.093C84.1948 349.118 84.0151 353.125 83.8533 357.151C83.5298 365.165 82.8109 373.198 82.1999 381.194C81.5888 389.155 81.2653 397.134 80.8339 405.113C80.4565 411.887 79.6657 418.626 79.5759 425.401C79.5219 429.983 79.8994 434.511 80.6183 439.04C80.9058 440.891 81.3012 442.742 81.8584 444.539C82.3257 446.12 82.9008 447.917 83.7096 449.283C84.6262 450.864 86.2077 452.553 87.9331 453.326C88.9576 453.775 89.982 454.206 91.0244 454.638C92.9834 455.428 96.3084 454.835 98.0337 453.721C100.083 452.409 101.449 450.612 102.221 448.276C103.03 445.779 103.39 443.119 102.401 440.603H102.311Z" fill="#5383FF"/>
<path d="M61.0101 302.127C60.8664 299.395 60.5428 296.682 60.3272 293.968C60.1115 291.291 59.9857 288.595 59.7161 285.936C59.5723 284.534 59.4106 283.132 59.2668 281.731C59.1949 281.084 59.141 280.437 59.0871 279.79C58.9972 278.909 58.8175 278.083 58.6557 277.256C58.6198 276.699 58.5838 276.16 58.5119 275.603C58.4221 274.866 58.1345 274.219 57.9368 273.518C57.793 273.015 57.7391 272.494 57.5774 272.009C57.4695 271.542 57.2539 271.128 56.9303 270.769C56.5709 270.302 56.5529 270.284 56.8764 270.715C56.7326 270.482 56.535 270.284 56.3732 270.068C55.4027 268.792 53.6773 268.307 52.4012 269.565C52.1317 269.817 51.8621 270.068 51.6105 270.338C50.9275 271.057 50.6399 271.865 50.3164 272.782C50.2445 272.979 50.1547 273.177 50.1008 273.393C50.1008 273.393 50.1008 273.393 50.1008 273.429C50.0289 273.59 49.957 273.752 49.8851 273.896C49.4537 274.848 49.3279 275.585 49.2021 276.573C49.256 276.16 49.31 275.747 49.3639 275.315C49.1482 276.843 48.6629 278.28 48.5012 279.808C48.5551 279.341 48.627 278.874 48.6989 278.406C48.2496 281.443 47.7463 284.498 47.5307 287.571C47.3509 290.141 47.2072 292.71 47.0814 295.28C46.9555 297.85 46.8118 300.402 46.8297 302.971C46.8297 305.523 46.8657 308.075 46.8837 310.644C46.9196 315.856 46.8837 321.085 46.9196 326.296C46.9555 331.454 46.7578 336.611 46.7039 341.768C46.632 347.07 46.4703 352.371 46.2546 357.672C46.0389 362.865 45.8592 368.076 45.4638 373.252C44.655 383.728 43.7744 394.187 43.1274 404.681C42.7679 410.575 43.1993 416.362 44.044 422.184C44.4034 424.736 44.8168 427.323 45.4638 429.803C45.8053 431.133 46.2187 432.427 46.632 433.739C46.8477 434.404 47.0454 435.086 47.2791 435.733C47.6744 436.829 48.1417 437.566 48.8067 438.465C49.9749 440.046 51.5026 441.016 53.5515 440.729C54.4142 440.621 55.1151 440.316 55.7981 439.795C56.535 439.22 57.3617 438.285 57.5055 437.315C57.5594 436.955 57.6133 436.614 57.6672 436.254C57.8649 434.889 57.8829 434.08 57.6672 432.696C57.5594 431.942 57.4516 431.205 57.3437 430.45C57.0562 428.222 56.7686 425.994 56.4631 423.765C56.535 424.304 56.6068 424.826 56.6787 425.365C56.0856 420.962 55.7981 416.523 55.852 412.085C55.9239 407.341 56.2833 402.615 56.6787 397.889C57.4695 388.149 58.2603 378.409 59.3027 368.705C59.8239 363.782 60.3272 358.858 60.7585 353.934C61.1899 349.028 61.6571 344.104 61.8369 339.181C62.0166 334.347 62.0885 329.531 62.0525 324.697C62.0166 319.899 61.6751 315.101 61.4235 310.321C61.2797 307.607 61.1359 304.894 61.0101 302.181V302.127Z" fill="#5383FF"/>
</svg>
