<svg width="24" height="454" viewBox="0 0 24 454" fill="none" xmlns="http://www.w3.org/2000/svg">
<path d="M23.3212 32.1978C22.9493 34.4082 22.6128 36.6588 22.3294 38.9094C21.8689 42.5264 21.5324 46.2639 21.2668 50.0015C20.6823 62.219 20.7709 74.5168 21.0365 86.7744C21.3199 100.439 21.5856 114.103 21.745 127.807C21.9044 143.28 21.9575 158.673 21.8689 174.145C21.7804 189.578 21.5856 205.051 21.5856 220.483C21.5856 229.084 21.5501 237.644 21.6918 246.204C21.7627 250.625 21.8158 255.086 21.8867 259.507C21.9398 263.284 21.8867 267.143 22.0106 270.92C22.1523 272.93 22.294 274.979 22.3826 277.029C22.2763 275.261 22.17 273.492 22.0638 271.764C22.5597 279.36 22.7545 287.036 23.091 294.712C23.1973 297.325 23.2858 299.937 23.3921 302.549C23.5338 305.644 23.764 308.738 23.7286 311.873C23.6046 323.447 22.7545 334.941 22.3649 346.476C22.0283 356.201 21.9221 365.887 22.1346 375.613C22.3294 384.535 22.7368 393.497 22.6659 402.419C22.6305 407.362 22.542 412.305 22.3294 417.248C22.1523 421.509 21.9221 425.728 21.4262 429.828C21.3022 430.873 21.1782 431.877 21.0365 432.922C20.9657 433.404 20.9126 433.927 20.8594 434.449C20.4344 437.664 19.7436 440.397 18.8581 442.728C18.0965 446.225 16.6619 448.998 15.0148 450.726C14.9085 450.887 14.7846 451.047 14.6783 451.208C12.9249 453.74 10.7819 454.825 8.7274 453.298C6.56666 451.731 4.76014 448.154 3.82146 443.572C3.73291 443.291 3.64435 443.01 3.5558 442.728C3.05989 440.799 2.74109 438.79 2.54627 436.66C2.47543 436.057 2.38687 435.414 2.31603 434.811C2.35145 434.932 2.36917 435.052 2.40459 435.173C2.1035 433.003 1.89096 430.712 1.85554 428.059C1.85554 427.175 1.82012 426.291 1.7847 425.407C1.71386 423.357 1.55445 421.308 1.53674 419.258C1.4659 415.078 1.39506 410.899 1.25337 406.719C0.934572 398.239 0.651196 389.719 0.36782 381.239C0.102155 372.96 -0.074951 364.721 0.0313149 356.443C0.155292 345.431 0.615776 334.419 1.11168 323.447C1.4659 315.57 1.87326 307.653 2.86507 300.057C3.5558 294.752 4.21111 289.287 4.60075 283.781C4.81328 279.762 4.99039 275.783 5.25605 271.805C5.14979 273.573 5.04352 275.341 4.93725 277.069C5.0081 275.1 5.14978 273.131 5.27376 271.161C5.39774 267.183 5.3269 263.083 5.36232 259.105C5.39774 254.684 5.41545 250.223 5.43316 245.802C5.46858 236.8 5.29147 227.838 5.13207 218.835C4.81328 200.911 4.10484 182.947 3.50267 165.063C2.90049 147.259 2.58169 129.415 2.15663 111.571C1.7847 96.4198 1.00542 81.3489 0.916865 66.1977C0.863732 55.9495 1.23566 45.8219 1.9441 35.6943C2.22748 31.5548 2.61712 27.4153 3.16616 23.3964C3.62664 19.8598 4.19339 15.8409 4.99039 12.7865C5.89365 9.2499 7.45221 5.47212 9.15247 3.744C10.162 2.73927 11.1715 1.77475 12.1988 0.810217C14.1293 -0.958098 17.4058 0.368121 19.106 2.85984C21.1251 5.79363 22.4711 9.81253 23.2327 15.0371C24.0297 20.6234 24.3839 26.5713 23.4098 32.1978H23.3212Z" fill="#5383FF"/>
</svg>
