<svg width="98" height="448" viewBox="0 0 98 448" fill="none" xmlns="http://www.w3.org/2000/svg">
<g clip-path="url(#clip0_3637_1925)">
<path d="M54.8425 395.785C56.8208 399.372 89.3157 398.528 92.5427 395.785C95.7698 393.043 79.396 357.145 75.9726 357.145C72.5491 357.145 52.8642 392.199 54.8425 395.785Z" stroke="white" stroke-miterlimit="10"/>
<path d="M56.4594 345.976C57.3854 347.425 96.1379 346.511 97.106 345.188C98.0742 343.866 79.9185 306.675 75.9759 307.336C72.0333 307.997 55.5333 344.527 56.4594 345.976Z" stroke="white" stroke-miterlimit="10"/>
<path d="M56.7336 443.71C58.7119 446.551 94.5601 449.097 97.0996 445.609C99.6392 442.12 77.8075 406.968 72.2795 406.968C66.7514 406.968 54.7552 440.868 56.7336 443.71Z" stroke="white" stroke-miterlimit="10"/>
<path d="M75.9716 382.057C70.7101 383.294 53.9155 415.141 54.8415 418.643C55.7675 422.146 94.5481 424.875 97.1017 420.711C99.6553 416.547 81.2331 380.833 75.9716 382.071V382.057Z" fill="#FFA001"/>
<path d="M75.9764 332.233C72.2864 332.233 53.9203 369.538 54.8463 370.874C55.7723 372.21 94.2443 369.439 95.6894 367.793C97.1346 366.148 79.6524 332.233 75.9764 332.233Z" fill="#FFA001"/>
<path d="M75.9707 257.512C73.2066 258.272 55.1071 290.737 56.5242 292.707C57.9413 294.676 95.5995 298.432 97.0867 296.153C98.574 293.874 78.7207 256.753 75.9566 257.512H75.9707Z" stroke="white" stroke-miterlimit="10"/>
<path d="M75.9723 207.703C73.068 207.703 55.3473 242.701 56.9188 244.782C58.4902 246.864 96.2325 244.206 97.1024 242.982C97.9864 241.744 78.8626 207.703 75.9723 207.703Z" stroke="white" stroke-miterlimit="10"/>
<path d="M54.8443 321.065C56.4578 323.02 94.1581 326.058 97.1045 324.215C100.051 322.373 79.1313 284.267 75.9744 285.448C72.8175 286.63 53.2308 319.109 54.8443 321.065Z" fill="#FFA001"/>
<path d="M55.7995 272.198C56.5431 274.786 94.8888 270.397 95.7867 269.089C96.6847 267.781 80.4653 238.41 75.9895 236.652C71.5138 234.894 55.0699 269.624 55.8135 272.212L55.7995 272.198Z" fill="#FFA001"/>
</g>
<path d="M12.2501 18.9937C30.3923 30.5305 51.698 41.3879 70.0339 52.6093C74.3353 54.319 78.8344 57.5863 83.4081 56.9245C87.9904 56.2677 92.1229 52.7299 91.4797 48.1439C90.9821 44.5658 87.0166 41.8144 84.0202 39.7842C62.4732 25.1847 41.2036 11.7847 17.4963 1.00707C14.3212 -0.433481 9.82042 0.282012 6.86014 2.12937C3.82156 4.01235 2.68167 8.74669 4.38805 11.8912C6.09443 15.0356 9.23336 17.0788 12.2537 19.0074L12.2501 18.9937Z" fill="#FFA001"/>
<path d="M75.95 60.7823C58.2224 50.5473 42.1355 39.8507 23.0841 31.3687C18.5642 28.5974 13.214 27.0442 8.22598 25.2037C5.50415 24.198 1.42976 24.1551 0.375713 27.1607C-0.033761 28.31 0.21504 29.539 0.579821 30.6272C2.92528 37.6047 9.67564 41.4328 15.9521 44.7216C31.2893 52.7568 46.6352 60.7969 61.9775 68.8233C71.2868 73.4591 78.7185 74.967 81.4127 70.7605C84.1019 66.5627 78.9003 62.0122 75.9586 60.7873L75.95 60.7823Z" fill="#FFA001"/>
<defs>
<clipPath id="clip0_3637_1925">
<rect width="44" height="241" fill="white" transform="translate(54 207)"/>
</clipPath>
</defs>
</svg>
