<svg width="68" height="558" viewBox="0 0 68 558" fill="none" xmlns="http://www.w3.org/2000/svg">
<path d="M37.99 237C39.0946 237 39.99 237.895 39.99 239C39.99 239.009 39.99 239.018 39.99 239.027L37.99 237ZM37.99 237C37.8784 237 37.7688 237.009 37.6622 237.027M37.99 237L37.6622 237.027M37.6622 237.027L36.4917 237.027C35.3871 237.027 34.4917 237.922 34.4917 239.027C34.4917 248.397 31.0256 253.136 27.0375 258.575L27.0173 258.603C24.9048 261.481 22.6193 264.594 20.8925 268.604C19.1467 272.659 18 277.552 18 284.042C18 290.532 19.1467 295.425 20.8925 299.48C22.6193 303.49 24.9049 306.604 27.0175 309.482L27.0361 309.507C31.0145 314.946 34.4817 319.712 34.4817 329.057C34.4817 338.401 31.0162 343.14 27.0361 348.581L27.0175 348.606C24.9049 351.484 22.6193 354.598 20.8925 358.608C19.1467 362.663 18 367.556 18 374.046C18 380.536 19.1467 385.429 20.8925 389.483C22.6193 393.493 24.9048 396.607 27.0174 399.485L27.0381 399.513L27.0389 399.515C31.0145 404.923 34.4817 409.69 34.4817 419.034C34.4817 428.378 31.0162 433.117 27.0361 438.558L27.0174 438.583C24.9049 441.461 22.6193 444.575 20.8925 448.585C19.1467 452.64 18 457.533 18 464.023C18 470.513 19.1467 475.406 20.8925 479.461C22.6193 483.471 24.9049 486.584 27.0174 489.462L27.0361 489.488C27.0365 489.488 27.0368 489.489 27.0371 489.489C31.0168 494.93 34.4817 499.668 34.4817 509.011C34.4817 518.355 31.0162 523.094 27.0361 528.535L27.0174 528.561C24.9049 531.439 22.6193 534.552 20.8925 538.562C19.1467 542.617 18 547.51 18 554C18 555.105 18.8954 556 20 556L21.4983 556C22.6029 556 23.4983 555.105 23.4983 554C23.4983 544.656 26.965 539.89 30.9611 534.454L30.9619 534.452L30.9826 534.424C33.0951 531.546 35.3807 528.432 37.1075 524.422C38.8533 520.368 40 515.475 40 508.985C40 502.495 38.8533 497.601 37.1075 493.547C35.3807 489.537 33.0951 486.423 30.9825 483.545L30.9639 483.52C30.9637 483.52 30.9635 483.519 30.9633 483.519C26.9834 478.078 23.5183 473.339 23.5183 463.996C23.5183 454.652 26.9838 449.914 30.9639 444.473L30.9826 444.447C33.0951 441.569 35.3807 438.455 37.1075 434.445C38.8533 430.391 40 425.498 40 419.008C40 412.518 38.8533 407.624 37.1075 403.57C35.3807 399.56 33.0951 396.446 30.9826 393.568L30.9619 393.54L30.9611 393.539C26.9855 388.13 23.5183 383.364 23.5183 374.019C23.5183 364.675 26.9838 359.937 30.9638 354.495L30.9825 354.47C33.095 351.592 35.3807 348.478 37.1075 344.468C38.8533 340.414 40 335.521 40 329.031C40 322.54 38.8533 317.647 37.1075 313.593C35.3807 309.583 33.095 306.469 30.9825 303.591L30.9624 303.564C26.9744 298.125 23.5083 293.386 23.5083 284.015C23.5083 274.646 26.9735 269.907 30.9519 264.468C30.9525 264.467 30.9532 264.466 30.9539 264.465L30.9726 264.439C33.0851 261.561 35.3707 258.448 37.0975 254.438C38.8406 250.39 39.9864 245.506 39.99 239.031L37.6622 237.027Z" fill="#5383FF" stroke="#5383FF" stroke-width="4" stroke-linejoin="round"/>
<path d="M6.65176 12.4545C5.2729 14.201 4.01425 16.0112 3.05259 18.0194C1.11511 22.064 0.0968823 26.4481 0.00495832 30.9382C-0.0374681 33.1727 0.195876 35.4142 0.570643 37.6133C0.888841 39.5154 1.38382 41.3822 2.02728 43.1995C2.78389 45.3137 3.67484 47.3926 4.77793 49.3584C6.04365 51.614 7.571 53.7212 9.21149 55.7153C10.6893 57.5184 12.3793 59.1659 14.1542 60.6721C15.2785 61.6267 16.4523 62.5318 17.6402 63.4227C18.5877 64.1298 19.5565 64.8157 20.5818 65.4168C21.0767 65.7137 21.5788 65.9895 22.0808 66.2653C22.8233 66.6683 23.587 67.135 24.3931 67.3613C24.1032 67.2411 23.8062 67.128 23.5092 67.0007C24.2375 67.3047 24.9729 67.6017 25.7154 67.8916C25.977 68.026 26.2245 68.1179 26.4649 68.1886C26.571 68.224 26.6841 68.2523 26.7972 68.2664C26.7619 68.2593 26.7195 68.2593 26.6841 68.2523C26.974 68.33 27.271 68.4149 27.5609 68.4927C27.5609 68.4927 27.5821 68.4997 27.5963 68.4997C27.6175 68.5068 27.6387 68.5139 27.6599 68.521C27.6599 68.521 27.6528 68.5139 27.6458 68.5068C28.1973 68.6765 28.7701 68.7119 29.3499 68.5705C30.0853 68.3725 30.9055 67.7926 31.2661 67.0926C31.6338 66.3855 31.8177 65.537 31.5702 64.7521C31.3298 63.9743 30.8419 63.2035 30.0924 62.8217C30.0853 62.8146 30.0782 62.8075 30.0641 62.8075C30.0358 62.7792 30.0004 62.758 29.9721 62.7298C29.5479 62.3479 29.0812 62.0368 28.6216 61.7044C28.3175 61.4852 28.0064 61.259 27.7094 61.0327C27.073 60.4812 26.2952 60.0427 25.6093 59.569C25.0719 59.2013 24.5416 58.8124 24.0183 58.4164C24.2941 58.6215 24.5698 58.8407 24.8456 59.0457C24.1527 58.4659 23.396 57.9497 22.6677 57.4194C19.6484 55.0647 16.919 52.3636 14.5572 49.3513C12.9097 47.1098 11.5096 44.7056 10.4206 42.1459C9.52261 39.8195 8.87915 37.4083 8.52559 34.9475C8.29225 32.8191 8.28518 30.6766 8.51145 28.5553C8.78722 26.7097 9.25391 24.8995 9.91152 23.153C10.6469 21.4701 11.5662 19.872 12.641 18.3871C13.9632 16.7254 15.4835 15.2334 17.1452 13.9111C19.0403 12.5252 21.0909 11.3655 23.2476 10.4392C25.4325 9.59775 27.6953 9.00378 30.0075 8.6573C32.2066 8.42395 34.4198 8.43102 36.6119 8.67144C39.1928 9.04621 41.7243 9.72503 44.1567 10.6726C47.0063 11.8817 49.6934 13.4373 52.1824 15.2758C54.9542 17.4537 57.4503 19.9639 59.5999 22.7499C59.6777 22.856 59.7484 22.955 59.8333 23.054C60.1373 23.5419 60.5545 23.9167 61.0778 24.1854C61.4172 24.3551 61.7707 24.4965 62.1243 24.6096C62.4283 24.6874 62.7324 24.751 63.0435 24.8218C64.083 25.0692 65.0871 24.8571 65.9285 24.2136C66.3174 23.9662 66.6215 23.6338 66.8407 23.2166C67.1306 22.7004 67.2791 22.1418 67.2791 21.5479C67.3074 21.3216 67.3357 21.0953 67.3498 20.869C67.3569 20.7771 67.3781 20.6852 67.3781 20.5862C67.3922 20.3034 67.3144 19.7164 67.2437 19.4336C67.1023 19.0942 66.968 18.7619 66.8336 18.4154C66.7983 18.38 66.77 18.3376 66.7417 18.2952C66.2396 17.6093 65.7235 16.9375 65.1931 16.2658C64.5709 15.488 63.9203 14.7243 63.2557 13.9889C61.898 12.504 60.4343 11.111 58.8787 9.83817C57.0614 8.34617 55.1593 6.95317 53.137 5.73695C51.1288 4.53487 49.0287 3.56613 46.8578 2.68225C42.8627 1.06297 38.5776 0.172015 34.2784 0.0164511C32.051 -0.0613307 29.8378 0.14373 27.6458 0.483141C25.7719 0.773055 23.9264 1.23267 22.1303 1.85493C20.0302 2.58325 17.9725 3.46713 16.028 4.56315C14.0905 5.65209 12.2733 6.97438 10.5621 8.40274C9.13371 9.60482 7.81849 10.9483 6.65883 12.4191L6.65176 12.4545Z" fill="#5383FF"/>
</svg>
