<svg width="209" height="572" viewBox="0 0 209 572" fill="none" xmlns="http://www.w3.org/2000/svg">
<path d="M137.806 447.347C138.912 445.233 139.402 442.993 139.302 440.583C139.484 438.28 138.265 433.734 136.973 431.899C136.066 430.687 135.117 429.45 134.167 428.214C132.474 426.376 130.502 425.123 128.163 424.404C126.787 423.609 125.297 423.208 123.695 423.2C121.455 422.71 119.156 422.816 116.91 423.527C116.342 423.715 115.775 423.903 115.207 424.092C112.907 424.599 110.93 425.637 109.235 427.182C107.246 428.442 105.673 430.172 104.5 432.304C103.197 434.362 102.485 436.589 102.431 438.966C101.941 441.207 102.073 443.462 102.741 445.683C103.302 447.096 103.888 448.467 104.449 449.88C106.02 452.622 108.204 454.801 110.933 456.434L115.3 458.21C118.304 458.969 121.329 458.995 124.315 458.195C124.9 458.075 125.486 457.954 126.072 457.834C127.486 457.274 128.856 456.688 130.269 456.128C132.406 455.011 134.101 453.466 135.379 451.451C136.561 450.298 137.331 448.965 137.738 447.365L137.806 447.347Z" fill="#5383FF"/>
<path d="M70.0105 561.493C71.4755 558.956 72.2208 556.175 72.1965 553.236C72.2097 553.014 72.1552 552.811 72.1685 552.589C71.9966 550.999 71.7818 549.384 71.5421 547.812C71.2776 546.283 70.5944 544.684 69.7986 543.479C68.8919 542.267 67.9852 541.056 67.0537 539.887L66.9246 539.812C65.715 538.827 64.4806 537.885 63.2462 536.943C63.1602 536.893 63.1171 536.869 63.0311 536.819C62.945 536.769 62.816 536.695 62.7299 536.645C62.2567 536.372 61.7834 536.099 61.3101 535.825C59.7298 535.085 58.075 534.474 56.445 533.819C56.1868 533.67 55.922 533.632 55.6391 533.526C55.1592 533.364 54.6544 533.244 54.1249 533.168C52.4501 532.889 50.7687 532.721 49.1122 532.51C48.8474 532.472 48.5578 532.477 48.25 532.414C47.7386 532.406 47.2272 532.397 46.7092 532.499C45.0509 532.689 43.3248 532.897 41.6598 533.197C41.3884 533.27 41.074 533.318 40.8026 533.39C38.5699 533.879 36.6616 534.899 34.9915 536.401C33.0269 537.618 31.5471 539.287 30.3981 541.376C29.8005 542.809 29.2276 544.198 28.6299 545.631C27.878 548.523 27.9023 551.462 28.6846 554.379C28.721 554.515 28.7573 554.651 28.8616 554.768C29.4042 556.114 29.9765 557.706 30.6117 558.99C30.7093 559.218 30.85 559.472 30.9724 559.657C32.0131 561.233 33.115 562.901 34.4834 564.207C37.8092 567.389 40.3857 568.59 44.6304 570.18C45.1103 570.343 45.572 570.437 46.0767 570.557C47.4436 570.772 49.974 571.258 51.7613 571.143C51.897 571.107 52.0509 571.139 52.1867 571.102C53.5983 570.942 55.2566 570.753 56.675 570.482C56.9216 570.452 57.193 570.38 57.4214 570.282C58.6925 569.869 59.9453 569.388 61.2048 568.796C62.84 568.249 64.3776 567.474 65.6703 566.328C67.5423 565.172 68.9724 563.589 70.0286 561.561L70.0105 561.493Z" fill="#5383FF"/>
<path d="M85.5454 488.284C82.6198 486.595 78.7771 486.097 75.477 486.945C72.3557 487.78 68.9626 490.18 67.4279 493.136C64.1103 499.478 65.8316 507.526 72.2852 511.252C75.2108 512.941 79.0535 513.439 82.3536 512.592C85.475 511.756 88.868 509.357 90.4027 506.4C93.7204 500.058 91.999 492.01 85.5454 488.284Z" fill="#5383FF"/>
<path d="M30.3733 468.588C30.3733 468.588 30.3733 468.588 30.3981 468.545C30.4726 468.416 31.9296 464.899 31.9611 464.745C31.9611 464.745 31.9859 464.702 32.0108 464.659C32.0356 464.616 32.087 464.13 32.145 463.532C32.2576 463.139 32.4381 462.727 32.5507 462.333C33.1634 460.278 33.2399 458.258 32.7868 456.161C32.6664 454.085 32.071 452.135 30.9757 450.356C29.9798 448.404 28.5568 446.895 26.7565 445.741C25.1547 444.242 23.2551 443.26 21.0574 442.794C18.3186 442.073 15.6012 442.11 12.8869 442.837C12.8869 442.837 12.7512 442.873 12.6834 442.891C12.4119 442.964 9.14649 444.348 8.87507 444.42C8.87507 444.42 8.85023 444.463 8.8254 444.506C7.60227 445.234 6.50157 446.147 5.40087 447.06C5.37603 447.103 5.3512 447.146 5.30154 447.232C2.35345 450.748 2.52064 450.558 0.906289 454.844C0.831794 454.973 0.825154 455.084 0.818515 455.195C0.603124 456.562 0.338072 458.014 0.276585 459.413C0.251753 459.456 0.269943 459.523 0.263303 459.634C0.263303 459.634 0.23847 459.677 0.256662 459.745L0.537639 461.743C0.60868 462.414 0.722745 463.111 0.818617 463.74C0.793785 463.783 0.854999 463.876 0.873191 463.943C1.25522 465.368 1.86566 466.696 2.50092 467.98C2.54395 468.005 2.56214 468.073 2.58033 468.14C2.807 468.443 4.82885 471.102 5.05553 471.405C5.05553 471.405 5.09855 471.429 5.14157 471.454C6.14759 472.494 7.47469 473.375 8.58667 474.131C8.62969 474.156 8.71574 474.206 8.75877 474.231C9.10296 474.43 10.1058 474.779 10.6039 475.009C10.9481 475.208 12.2521 475.732 12.689 475.869C12.689 475.869 12.732 475.894 12.775 475.919C14.1601 476.202 15.5519 476.375 16.9503 476.437C19.6677 476.4 22.1784 475.728 24.5502 474.402C25.7485 473.717 26.7995 472.891 27.7893 471.971C28.569 471.217 29.1334 470.338 29.7658 469.442C29.9396 469.141 30.1747 468.932 30.2491 468.803L30.3733 468.588Z" fill="#5383FF"/>
<path d="M164.972 537.41C166.151 535.567 166.763 533.513 166.846 531.381C167.173 530.021 167.209 528.666 166.846 527.309C166.725 525.233 166.13 523.283 165.034 521.504C164.189 520.385 163.387 519.291 162.541 518.172C161.393 517.279 160.287 516.412 159.139 515.519C157.296 514.34 155.24 513.727 153.109 513.644C151.065 513.209 149.013 513.286 146.971 513.942C146.903 513.96 146.767 513.996 146.699 514.015L146.563 514.051C143.713 514.814 143.311 515.213 141.376 516.676C139.652 517.974 138.311 518.806 137.352 521.063C137.352 521.063 137.328 521.106 137.303 521.149C137.278 521.192 137.228 521.278 137.203 521.321C136.655 522.667 136.132 523.971 135.584 525.318C134.971 527.372 134.895 529.393 135.348 531.489C135.354 532.869 135.743 534.183 136.403 535.425C137.042 537.399 138.137 539.178 139.695 540.652C140.844 541.544 141.949 542.412 143.098 543.304C144.445 543.852 145.749 544.376 147.096 544.924C149.151 545.537 151.172 545.614 153.268 545.162C154.877 545.058 156.395 544.616 157.84 543.901C159.086 543.531 160.21 542.976 161.175 542.099C162.472 541.243 163.494 540.169 164.245 538.768C164.369 538.553 164.407 538.289 164.532 538.073C164.681 537.815 164.891 537.65 165.04 537.392L164.972 537.41Z" fill="#5383FF"/>
<path d="M205.082 104.428C206.388 104.258 207.328 103.356 207.759 102.127C208.151 100.964 208.452 99.8138 208.687 98.6113C208.869 97.6702 209 96.7422 209 95.7881C209 95.0953 208.987 94.4156 208.974 93.7229C208.935 91.2003 208.687 88.6776 208.425 86.1681C207.851 80.7046 207.067 75.2541 205.905 69.8952C204.834 64.9414 203.358 60.1053 201.439 55.4129C199.362 50.3415 196.973 45.427 193.904 40.8653C190.965 36.4736 187.583 32.2779 183.77 28.6181C179.97 24.9584 175.778 21.6646 171.403 18.7237C162.588 12.8027 152.689 8.48937 142.49 5.57462C131.272 2.37232 119.584 0.777698 107.961 0.0588134C106.577 -0.032681 105.206 0.00653078 103.822 0.0196013C102.059 0.0457425 100.257 0.764627 99.0029 2.01941C97.8145 3.20883 96.9265 5.14329 97.0048 6.84247C97.0832 8.607 97.6578 10.4369 99.0029 11.6655C99.4599 12.0184 99.917 12.3713 100.387 12.7373C101.445 13.3516 102.594 13.6653 103.835 13.6653C109.293 14.2143 114.765 14.5411 120.211 15.2338C128.673 16.4363 137.057 18.3054 145.128 21.1417C147.034 21.8083 148.915 22.5403 150.782 23.3115C156.11 25.6119 161.243 28.3567 166.035 31.6113C167.211 32.4086 168.347 33.2451 169.47 34.1078C174.08 37.7676 178.337 41.911 182.007 46.5249C185.546 51.2434 188.458 56.3932 190.782 61.8044C193.943 69.5423 196.15 77.6591 197.691 85.8544C198.148 88.2855 198.54 90.7167 198.905 93.1609C198.84 92.7034 198.788 92.259 198.722 91.8015C198.892 93.0825 199.127 94.3372 199.362 95.592C199.441 96.0103 199.519 96.4285 199.584 96.8468C199.624 97.069 199.663 97.2912 199.702 97.5134C199.741 97.7487 199.819 97.9578 199.898 98.18C199.872 98.1277 199.846 98.0624 199.819 98.0101C199.859 98.1016 199.885 98.1931 199.924 98.2715C199.937 98.3107 199.95 98.363 199.976 98.4022C200.133 98.8335 200.303 99.2649 200.472 99.6831C200.903 100.755 201.36 101.814 201.883 102.846C202.457 103.983 203.894 104.545 205.082 104.375L205.082 104.428Z" fill="#5383FF"/>
<path d="M180.714 110.296C181.497 110.257 182.216 110.035 182.895 109.604C183.574 109.238 184.122 108.728 184.54 108.101C185.063 107.539 185.402 106.872 185.585 106.114C185.859 105.081 185.859 104.036 185.585 103.003C184.801 99.3302 184.201 95.6312 183.339 91.9845C182.477 88.3378 181.445 84.7303 180.205 81.1882C177.684 74.0124 174.432 67.0327 170.084 60.7849C167.968 57.7526 165.657 54.8378 163.11 52.1583C160.551 49.4658 157.743 47.0608 154.765 44.8257C152.167 42.8651 149.346 41.1529 146.408 39.7412C142.829 38.0159 139.081 36.6173 135.229 35.6763C131.194 34.696 127.041 34.1339 122.901 33.8594C119.127 33.598 115.366 33.768 111.605 34.0686C111.161 34.1078 110.717 34.147 110.26 34.1862C110.012 34.2124 109.764 34.2385 109.515 34.2516C109.411 34.2516 109.32 34.2646 109.215 34.2777C108.784 34.33 108.366 34.3953 107.935 34.4476C107.883 34.4738 107.844 34.4868 107.792 34.513C107.1 34.7221 106.407 34.9443 105.715 35.1665C105.389 35.2711 105.062 35.3626 104.736 35.4802C104.148 35.6763 103.626 35.9769 103.09 36.2775C102.908 36.3559 102.725 36.4344 102.542 36.5259C101.85 36.6696 101.027 37.3493 100.714 37.9506C100.374 38.591 100.243 39.2445 100.335 39.9504C100.518 41.3358 101.628 42.473 103.025 42.6429C103.182 42.6821 103.338 42.7213 103.495 42.7736C103.547 42.7998 103.613 42.8259 103.665 42.852C103.717 42.852 103.769 42.852 103.822 42.8782C104.057 42.9566 104.292 43.035 104.527 43.1265C104.592 43.1527 104.657 43.1919 104.736 43.218C104.814 43.218 104.893 43.2311 104.971 43.2442C106.59 43.5186 108.262 43.95 109.894 43.9369C111.265 43.9238 112.624 43.9369 113.995 43.95C116.724 44.0023 119.453 44.1722 122.17 44.3682C123.463 44.4597 124.755 44.6035 126.035 44.7734C130.41 45.4139 134.707 46.4987 138.807 48.1587C142.385 49.7403 145.742 51.7531 148.876 54.1058C152.558 57.0337 155.862 60.4059 158.775 64.0918C161.504 67.7254 163.868 71.6336 165.866 75.7247C166.401 76.8357 166.897 77.9597 167.394 79.0969C169.901 85.2139 171.729 91.5793 173.048 98.0624C173.388 99.7354 173.675 101.408 173.962 103.081C174.015 103.578 174.067 104.088 174.106 104.585C174.106 105.643 174.38 106.624 174.903 107.539C175.203 107.931 175.516 108.336 175.817 108.728C176.548 109.46 177.41 109.957 178.402 110.231C179.186 110.479 179.956 110.506 180.74 110.336L180.714 110.296Z" fill="#5383FF"/>
<path d="M163.907 112.218C164.168 111.721 164.403 111.224 164.612 110.715C164.808 110.27 164.991 109.826 165.174 109.368C165.369 108.885 165.369 108.362 165.422 107.839C165.461 107.539 165.487 107.225 165.513 106.924C165.565 106.297 165.591 105.669 165.591 105.029C165.591 104.049 165.382 102.977 165.252 102.023C164.912 99.5916 164.246 97.2128 163.293 94.9515C162.157 92.2329 160.89 89.6579 159.179 87.2529C157.469 84.8349 155.588 82.5867 153.394 80.6131C149.176 76.8357 144.37 73.7771 139.251 71.3852C133.949 68.9149 128.321 66.9151 122.627 65.5688C119.362 64.7976 116.045 64.3663 112.715 64.0395C111.292 63.8957 109.868 63.8435 108.445 63.8827C107.752 63.9088 107.06 63.948 106.368 64.0134C105.781 64.0787 105.18 64.1572 104.592 64.2356C104.148 64.3009 103.704 64.3532 103.26 64.4186C103.156 64.4316 103.064 64.4447 102.96 64.4709C102.908 64.4709 102.855 64.4839 102.816 64.497C102.281 64.7192 101.745 64.9545 101.21 65.1767C100.648 65.4904 100.048 65.974 99.5775 66.4184C99.473 66.5229 99.3555 66.6275 99.2641 66.7321L98.7678 67.3725C98.376 67.7646 98.1018 68.2352 97.9581 68.7711C97.8406 69.0456 97.7231 69.3201 97.6055 69.5945C97.5664 69.686 97.5272 69.7906 97.5011 69.8821C97.2268 70.9016 97.2268 71.908 97.5011 72.9275C97.7753 73.8948 98.2585 74.7313 98.9767 75.4502C99.0812 75.5286 99.1726 75.607 99.2641 75.6854C99.695 76.0122 100.113 76.352 100.544 76.6788C101.053 76.9271 101.589 77.1363 102.111 77.3454C102.215 77.3846 102.32 77.4108 102.424 77.4369C102.816 77.5545 103.09 77.5676 103.574 77.633C104.762 77.7898 104.997 77.8552 106.407 77.5153C106.656 77.463 106.891 77.3846 107.139 77.3323C107.752 77.1886 108.379 77.0709 109.006 76.9533C111.318 76.705 113.616 76.705 115.928 76.9664C120.942 77.7506 125.879 79.2276 130.632 80.9921C131.742 81.3973 132.826 81.8417 133.923 82.2861C137.723 83.9461 141.38 85.9459 144.697 88.4293C146.956 90.2461 149.045 92.2851 150.861 94.5333C152.219 96.3762 153.394 98.3499 154.334 100.441C154.805 101.631 155.209 102.846 155.523 104.088C155.693 104.781 155.797 105.486 155.954 106.192C156.084 106.846 156.215 107.499 156.319 108.153C156.398 108.846 156.476 109.199 156.685 109.826C156.855 110.31 156.999 110.806 157.142 111.303C157.521 112.728 158.788 113.773 160.224 113.969C161.621 114.152 163.241 113.512 163.92 112.192L163.907 112.218Z" fill="#5383FF"/>
<path d="M188.748 242.777C188.524 242.23 188.28 241.683 188.057 241.115C187.448 240.082 186.615 239.251 185.559 238.623C183.569 237.225 181.538 235.867 179.609 234.408C177.7 232.97 175.852 231.43 173.862 230.092C169.983 227.478 166.124 224.864 162.286 222.21C164.825 218.501 167.201 214.712 169.435 210.822C170.836 208.37 171.993 205.817 173.07 203.203C173.313 202.635 173.517 202.108 173.638 201.5C173.74 200.913 173.862 200.305 174.004 199.717C174.187 199.008 174.39 198.279 174.491 197.549C174.654 196.394 174.227 195.32 173.618 194.368C172.968 193.334 171.689 192.767 170.491 193.091C170.288 193.152 170.084 193.213 169.902 193.274C168.825 193.638 168.054 194.145 167.404 195.118C167.12 195.543 166.835 195.969 166.551 196.374C166.287 196.678 166.023 196.982 165.739 197.286C165.089 197.975 164.601 198.785 164.053 199.555C163.342 200.568 162.611 201.561 161.839 202.534C162.124 202.169 162.388 201.825 162.672 201.46C161.311 203.223 159.991 205.006 158.631 206.769C157.026 208.816 155.402 210.822 153.838 212.889C153.249 213.679 152.64 214.469 152.051 215.239C147.4 212.098 142.73 208.978 138.018 205.918C135.744 204.459 133.51 202.939 131.235 201.5C130.139 200.812 128.88 200.305 127.722 199.738C127.438 199.596 127.133 199.434 126.849 199.292C126.016 198.866 125.488 198.745 124.696 198.542C124.067 198.38 123.437 198.198 122.807 198.035C121 197.569 119.111 198.218 117.974 199.677C116.857 201.115 116.654 203.182 117.609 204.783C117.994 205.411 118.38 205.979 118.847 206.566C118.583 206.222 118.319 205.898 118.076 205.553C118.38 205.979 118.665 206.424 118.949 206.891C119.477 207.782 120.167 208.471 120.878 209.221C121.69 210.072 122.462 211.004 123.356 211.754C125.163 213.274 127.031 214.732 128.88 216.212C133.002 219.515 137.185 222.757 141.45 225.898C141.917 226.242 142.405 226.566 142.872 226.911C139.277 231.308 135.622 235.644 131.885 239.92C130.057 242.027 128.189 244.114 126.321 246.161C125.082 247.519 124.29 249.201 124.29 251.065C124.29 252.767 125.041 254.793 126.321 255.969C127.641 257.184 129.387 258.076 131.235 257.995C133.002 257.914 134.931 257.346 136.15 255.969C142.222 249.038 148.01 241.885 153.513 234.51C157.25 237.103 161.027 239.677 164.804 242.23C167.018 243.729 169.313 245.067 171.628 246.404C173.963 247.762 176.258 249.221 178.553 250.639C180.056 251.571 182.208 251.794 183.894 251.328C185.498 250.882 187.245 249.646 188.037 248.147C188.89 246.546 189.316 244.601 188.727 242.818L188.748 242.777Z" fill="#5383FF"/>
</svg>
