<svg width="203" height="25" viewBox="0 0 203 25" fill="none" xmlns="http://www.w3.org/2000/svg">
<path d="M14.3968 23.6658C15.3852 23.2883 16.3915 22.9469 17.3978 22.6593C19.0151 22.192 20.6863 21.8505 22.3575 21.5809C27.8204 20.9878 33.3192 21.0777 38.8 21.3473C44.9098 21.6349 51.0196 21.9044 57.1474 22.0662C64.0658 22.228 70.9483 22.2819 77.8667 22.192C84.7672 22.1021 91.6856 21.9044 98.5861 21.9044C102.432 21.9044 106.259 21.8685 110.087 22.0123C112.064 22.0842 114.058 22.1381 116.035 22.21C117.724 22.2639 119.449 22.21 121.138 22.3358C122.037 22.4796 122.953 22.6234 123.87 22.7132C123.079 22.6054 122.288 22.4975 121.516 22.3897C124.912 22.8929 128.344 23.0906 131.777 23.4321C132.945 23.54 134.113 23.6298 135.281 23.7377C136.664 23.8814 138.048 24.1151 139.45 24.0791C144.625 23.9533 149.765 23.0906 154.922 22.6952C159.271 22.3538 163.601 22.2459 167.95 22.4616C171.939 22.6593 175.947 23.0727 179.936 23.0008C182.146 22.9648 184.357 22.875 186.567 22.6593C188.472 22.4796 190.359 22.2459 192.192 21.7427C192.659 21.6169 193.108 21.4911 193.575 21.3473C193.791 21.2754 194.025 21.2215 194.258 21.1676C195.696 20.7362 196.918 20.0353 197.96 19.1367C199.523 18.3638 200.763 16.9081 201.536 15.2366C201.608 15.1288 201.68 15.003 201.752 14.8951C202.884 13.1158 203.369 10.9412 202.686 8.85633C201.985 6.66367 200.386 4.83046 198.337 3.87792C198.212 3.78805 198.086 3.69819 197.96 3.60833C197.097 3.10509 196.199 2.78159 195.247 2.58389C194.977 2.512 194.689 2.42213 194.42 2.35024C194.474 2.38619 194.528 2.40417 194.582 2.44011C193.611 2.13458 192.587 1.9189 191.401 1.88295C191.006 1.88295 190.61 1.84701 190.215 1.81107C189.298 1.73918 188.382 1.57742 187.466 1.55945C185.597 1.48755 183.728 1.41567 181.859 1.27189C178.067 0.948378 174.258 0.660815 170.466 0.373253C166.764 0.103663 163.08 -0.07606 159.378 0.0317756C154.455 0.157584 149.531 0.624871 144.625 1.1281C141.103 1.48756 137.563 1.90093 134.167 2.90739C131.795 3.60832 129.351 4.27331 126.889 4.66871C125.092 4.88438 123.313 5.06411 121.534 5.3337C122.324 5.22586 123.115 5.11802 123.888 5.01019C123.007 5.08208 122.127 5.22586 121.246 5.35167C119.467 5.47748 117.634 5.40559 115.855 5.44153C113.879 5.47748 111.884 5.49545 109.907 5.51342C105.882 5.54937 101.875 5.36964 97.8493 5.20789C89.8347 4.88438 81.8022 4.16547 73.8055 3.5544C65.8448 2.94334 57.8662 2.61983 49.8875 2.18848C43.1128 1.81106 36.3741 1.02027 29.5994 0.930402C25.0171 0.876484 20.4886 1.25391 15.9602 1.97281C14.1093 2.26038 12.2584 2.65577 10.4614 3.21292C8.88004 3.68021 7.08305 4.25533 5.71733 5.0641C4.13597 5.98071 2.44679 7.5623 1.67409 9.28767C1.22484 10.3121 0.793563 11.3365 0.362289 12.379C-0.428391 14.338 0.164611 17.6629 1.27875 19.3883C2.59056 21.4372 4.38756 22.8031 6.72365 23.5759C9.22146 24.3847 11.881 24.7441 14.3968 23.7556L14.3968 23.6658Z" fill="#5383FF"/>
</svg>
