<svg width="20" height="20" viewBox="0 0 20 20" fill="none" xmlns="http://www.w3.org/2000/svg">
<path d="M19.275 13.6567L17.508 11.8891C17.0454 11.4471 16.4304 11.2005 15.7907 11.2005C15.151 11.2005 14.5359 11.4471 14.0734 11.8891L13.079 12.8839C12.9296 13.0348 12.7313 13.1277 12.5197 13.146C12.3081 13.1642 12.0969 13.1066 11.9239 12.9833C10.9863 12.2845 10.1017 11.5172 9.27724 10.6878C8.44832 9.86291 7.6813 8.97801 6.98242 8.04031C6.85925 7.86724 6.80163 7.65599 6.81984 7.44432C6.83806 7.23265 6.93093 7.03436 7.08187 6.8849L8.08393 5.88252C8.3099 5.65718 8.48919 5.38945 8.61152 5.09467C8.73385 4.7999 8.79682 4.48387 8.79682 4.1647C8.79682 3.84553 8.73385 3.5295 8.61152 3.23472C8.48919 2.93995 8.3099 2.67222 8.08393 2.44688L6.33223 0.709934C5.87627 0.255293 5.25873 0 4.61494 0C3.97115 0 3.35361 0.255293 2.89765 0.709934L0.709928 2.89833C0.373957 3.23715 0.144288 3.66679 0.0491582 4.13443C-0.0459718 4.60207 -0.00241584 5.08733 0.174471 5.53054C1.46099 8.75913 3.38933 11.6929 5.84267 14.1541C8.3056 16.6087 11.241 18.5376 14.4712 19.824C14.7607 19.94 15.0696 19.9997 15.3814 20C15.7011 20.0007 16.0177 19.9382 16.313 19.8161C16.6084 19.6939 16.8767 19.5146 17.1026 19.2884L19.2903 17.1C19.7448 16.6439 20 16.0262 20 15.3822C20 14.7382 19.7448 14.1204 19.2903 13.6643L19.275 13.6567Z" fill="#FFA001"/>
</svg>
