<svg width="125" height="149" viewBox="0 0 125 149" fill="none" xmlns="http://www.w3.org/2000/svg">
<path d="M48.2149 51.0574H43.965H43.9583H43.9517H43.945H43.9384H43.9317H43.9251H43.9185H43.9118H43.9052H43.8986H43.892H43.8854H43.8787H43.8721H43.8655H43.8589H43.8523H43.8457H43.8391H43.8325H43.8259H43.8193H43.8127H43.8061H43.7995H43.7929H43.7864H43.7798H43.7732H43.7666H43.7601H43.7535H43.7469H43.7404H43.7338H43.7272H43.7207H43.7141H43.7076H43.701H43.6945H43.6879H43.6814H43.6748H43.6683H43.6618H43.6552H43.6487H43.6422H43.6356H43.6291H43.6226H43.6161H43.6096H43.603H43.5965H43.59H43.5835H43.577H43.5705H43.564H43.5575H43.551H43.5445H43.538H43.5315H43.525H43.5186H43.5121H43.5056H43.4991H43.4926H43.4862H43.4797H43.4732H43.4668H43.4603H43.4538H43.4474H43.4409H43.4345H43.428H43.4215H43.4151H43.4086H43.4022H43.3958H43.3893H43.3829H43.3764H43.37H43.3636H43.3571H43.3507H43.3443H43.3379H43.3314H43.325H43.3186H43.3122H43.3058H43.2994H43.293H43.2865H43.2801H43.2737H43.2673H43.2609H43.2545H43.2481H43.2418H43.2354H43.229H43.2226H43.2162H43.2098H43.2034H43.1971H43.1907H43.1843H43.1779H43.1716H43.1652H43.1588H43.1525H43.1461H43.1397H43.1334H43.127H43.1207H43.1143H43.108H43.1016H43.0953H43.0889H43.0826H43.0762H43.0699H43.0636H43.0572H43.0509H43.0446H43.0382H43.0319H43.0256H43.0192H43.0129H43.0066H43.0003H42.994H42.9876H42.9813H42.975H42.9687H42.9624H42.9561H42.9498H42.9435H42.9372H42.9309H42.9246H42.9183H42.912H42.9057H42.8994H42.8931H42.8868H42.8806H42.8743H42.868H42.8617H42.8554H42.8492H42.8429H42.8366H42.8303H42.8241H42.8178H42.8115H42.8053H42.799H42.7927H42.7865H42.7802H42.774H42.7677H42.7615H42.7552H42.749H42.7427H42.7365H42.7302H42.724H42.7177H42.7115H42.7053H42.699H42.6928H42.6866H42.6803H42.6741H42.6679H42.6616H42.6554H42.6492H42.643H42.6367H42.6305H42.6243H42.6181H42.6119H42.6057H42.5995H42.5932H42.587H42.5808H42.5746H42.5684H42.5622H42.556H42.5498H42.5436H42.5374H42.5312H42.525H42.5188H42.5126H42.5065H42.5003H42.4941H42.4879H42.4817H42.4755H42.4693H42.4632H42.457H42.4508H42.4446H42.4385H42.4323H42.4261H42.42H42.4138H42.4076H42.4014H42.3953H42.3891H42.383H42.3768H42.3706H42.3645H42.3583H42.3522H42.346H42.3399H42.3337H42.3276H42.3214H42.3153H42.3091H42.303H42.2968H42.2907H42.2846H42.2784H42.2723H42.2661H42.26H42.2539H42.2477H42.2416H42.2355H42.2293H42.2232H42.2171H42.211H42.2048H42.1987H42.1926H42.1865H42.1803H42.1742H42.1681H42.162H42.1559H42.1498H42.1437H42.1375H42.1314H42.1253H42.1192H42.1131H42.107H42.1009H42.0948H42.0887H42.0826H42.0765H42.0704H42.0643H42.0582H42.0521H42.046H42.0399H42.0338H42.0277H42.0216H42.0155H42.0094H42.0034H41.9973H41.9912H41.9851H41.979H41.9729H41.9668H41.9608H41.9547H41.9486H41.9425H41.9365H41.9304H41.9243H41.9182H41.9122H41.9061H41.9H41.8939H41.8879H41.8818H41.8757H41.8697H41.8636H41.8575H41.8515H41.8454H41.8393H41.8333H41.8272H41.8212H41.8151H41.809H41.803H41.7969H41.7909H41.7848H41.7788H41.7727H41.7667H41.7606H41.7546H41.7485H41.7425H41.7364H41.7304H41.7243H41.7183H41.7122H41.7062H41.7001H41.6941H41.6881H41.682H41.676H41.6699H41.6639H41.6579H41.6518H41.6458H41.6398H41.6337H41.6277H41.6217H41.6156H41.6096H41.6036H41.5975H41.5915H41.5855H41.5794H41.5734H41.5674H41.5614H41.5553H41.5493H41.5433H41.5373H41.5312H41.5252H41.5192H41.5132H41.5071H41.5011H41.4951H41.4891H41.4831H41.477H41.471H41.465H41.459H41.453H41.447H41.441H41.4349H41.4289H41.4229H41.4169H41.4109H41.4049H41.3989H41.3929H41.3868H41.3808H41.3748H41.3688H41.3628H41.3568H41.3508H41.3448H41.3388H41.3328H41.3268H41.3208H41.3148H41.3088H41.3028H41.2968H41.2908H41.2848H41.2787H41.2727H41.2667H41.2607H41.2547H41.2487H41.2428H41.2368H41.2308H41.2248H41.2188H41.2128H41.2068H41.2008H41.1948H41.1888H41.1828H41.1768H41.1708H41.1648H41.1588H41.1528H41.1468H41.1408H41.1348H41.1288H41.1228H41.1169H41.1109H41.1049H41.0989H41.0929H41.0869H41.0809H41.0749H41.0689H41.0629H41.0569H41.051H41.045H41.039H41.033H41.027H41.021H41.015H41.009H41.003H40.9971H40.9911H40.9851H40.9791H40.9731H40.9671H40.9611H40.9552H40.9492H40.9432H40.9372H40.9312H40.9252H40.9192H40.9133H40.9073H40.9013H40.8953H40.8893H40.8833H40.8773H40.8714H40.8654H40.8594H40.8534H40.8474H40.8414H40.8355H40.8295H40.8235H40.8175H40.8115H40.8055H40.7995H40.7936H40.7876C36.0309 51.0574 32.2504 54.7259 31.9384 59.4094L31.9377 59.4191L31.9371 59.4288C31.8236 61.3603 31.7135 63.1112 31.496 64.9611L31.488 65.029L31.4838 65.0972C31.4516 65.612 31.3205 65.9138 31.1751 66.1184C31.0232 66.3322 30.7462 66.5924 30.1977 66.8486L30.1904 66.852C29.8104 67.0309 29.4261 67.2092 29.0387 67.389C27.5401 68.0844 25.9944 68.8017 24.4688 69.6604L24.4382 69.6775L24.4082 69.6956C20.5365 72.0201 18.9335 76.6127 20.6561 80.8437L20.6682 80.8733L20.6809 80.9025C21.0564 81.7612 21.4083 82.6543 21.7801 83.5988L21.7883 83.6197C22.1464 84.5292 22.5236 85.4873 22.9324 86.4251C23.1299 86.9313 23.1507 87.2834 23.1172 87.5366C23.0835 87.7922 22.9739 88.1035 22.6813 88.4968L22.68 88.4985C21.5525 89.9653 20.3951 91.4708 19.2346 93.0965L19.2112 93.1293L19.1889 93.1628C16.4644 97.2521 17.0722 102.174 20.7573 105.4L20.7729 105.414L20.7887 105.427C21.2061 105.781 21.6351 106.153 22.0733 106.533C23.0715 107.399 24.1171 108.306 25.1796 109.125C25.637 109.487 25.8293 109.808 25.9232 110.085C26.0248 110.384 26.074 110.822 25.9565 111.488L25.9426 111.567L25.9338 111.646C25.8254 112.622 25.6892 113.578 25.5471 114.559L25.5174 114.764C25.3863 115.668 25.2512 116.6 25.1413 117.535L25.1387 117.556L25.1365 117.578C24.6704 122.242 27.5531 126.267 32.2401 127.205L32.2548 127.208L32.2697 127.21C33.1344 127.373 34.0055 127.563 34.9196 127.763L34.9377 127.767C35.8337 127.963 36.772 128.169 37.7166 128.346C38.2615 128.448 38.5511 128.62 38.7291 128.78C38.9107 128.944 39.1285 129.235 39.3091 129.813C39.607 130.767 39.9324 131.685 40.24 132.552L40.247 132.572C40.5615 133.459 40.8575 134.295 41.1247 135.15L41.1317 135.173L41.1392 135.195C41.8796 137.418 43.2983 139.249 45.2396 140.354C47.1841 141.46 49.4923 141.743 51.8248 141.148C53.463 140.761 55.0338 140.293 56.5717 139.836C56.9184 139.732 57.2635 139.63 57.6073 139.529L57.6275 139.523L57.6476 139.516C58.1765 139.351 58.5151 139.373 58.7449 139.434C58.9838 139.497 59.2914 139.652 59.6722 140.033L59.7106 140.071L59.7506 140.108C60.4296 140.731 61.1371 141.382 61.8467 142.035L61.8546 142.043C62.5609 142.693 63.2691 143.345 63.9493 143.969C65.7016 145.576 67.8176 146.5 70.0648 146.5C72.3121 146.5 74.4281 145.576 76.1804 143.969L76.1979 143.953C77.5488 142.714 78.944 141.434 80.344 140.033L80.3793 139.998L80.4132 139.961C80.8213 139.519 81.1496 139.361 81.3952 139.3C81.6502 139.236 82.0246 139.224 82.5956 139.403L82.6312 139.414C84.4246 139.975 86.3124 140.565 88.3292 141.04L88.3337 141.041C92.9171 142.111 97.2937 139.904 98.8688 135.333L98.873 135.321L98.877 135.309C99.0737 134.718 99.3039 134.06 99.5449 133.371C99.9366 132.251 100.357 131.049 100.707 129.927L100.713 129.907L100.719 129.887C100.893 129.296 101.119 129.002 101.317 128.831C101.523 128.652 101.868 128.462 102.5 128.351L102.528 128.346L102.556 128.34C103.446 128.162 104.33 127.956 105.169 127.76L105.187 127.756C106.043 127.556 106.853 127.367 107.656 127.206C112.451 126.273 115.322 122.266 114.885 117.521C114.761 115.461 114.402 113.427 114.071 111.554L114.06 111.488L114.05 111.434L114.038 111.38C113.89 110.711 113.947 110.307 114.043 110.047C114.137 109.791 114.349 109.453 114.892 109.055L114.903 109.047L114.914 109.039C115.888 108.308 116.915 107.424 117.86 106.61C118.295 106.235 118.713 105.876 119.1 105.553L119.107 105.547L119.114 105.541C121.006 103.939 122.204 101.875 122.452 99.5724C122.699 97.2841 121.981 95.0303 120.543 93.0799L120.541 93.0773C119.434 91.527 118.298 89.9347 117.155 88.4448C116.893 88.0363 116.801 87.7416 116.775 87.5234C116.749 87.3098 116.767 87.0154 116.957 86.5702C116.958 86.5677 116.959 86.5653 116.96 86.5628L116.966 86.5496C117.746 84.7652 118.557 82.9098 119.258 81.0426C120.134 78.8994 120.251 76.6217 119.494 74.5354C118.733 72.4366 117.163 70.7336 115.031 69.6263C113.274 68.6894 111.526 67.873 109.845 67.0881L109.819 67.0757L109.755 67.046L109.69 67.0199C109.225 66.8337 109.014 66.6305 108.89 66.4538C108.755 66.2627 108.608 65.9379 108.527 65.3522C108.468 64.4358 108.383 63.5 108.302 62.6033L108.3 62.5855C108.214 61.642 108.133 60.7409 108.079 59.8739C107.771 54.9525 103.983 51.2845 99.0017 51.2845H98.9282L98.8548 51.2888C97.933 51.3431 97.0051 51.3706 96.0345 51.3991L96.0172 51.3997C95.064 51.4277 94.0687 51.457 93.0674 51.5159C92.4967 51.5495 92.1955 51.4458 92.0008 51.3362C91.7819 51.213 91.4863 50.9611 91.119 50.3893C90.5969 49.5767 90.0765 48.7956 89.5691 48.034L89.5642 48.0267C89.0519 47.2577 88.5527 46.5083 88.0551 45.7338L88.0383 45.7076L88.0208 45.6819C86.6619 43.678 84.807 42.2371 82.5633 41.7126C80.329 41.1902 78.0253 41.6505 75.8963 42.8501C75.0104 43.3237 74.1604 43.8223 73.3584 44.2928L73.3391 44.3041C72.5329 44.777 71.7738 45.2219 70.998 45.6382C70.0581 46.0603 69.6091 45.9777 69.169 45.7208L69.1279 45.6968L69.0858 45.6743C68.2678 45.2378 67.4447 44.7712 66.5886 44.2858L66.5748 44.278C65.7464 43.8082 64.8866 43.3207 64.0215 42.8581C61.9237 41.6406 59.6174 41.1948 57.387 41.7114C55.1477 42.2301 53.2595 43.6549 51.8887 45.6719C50.8452 47.1806 49.8069 48.7968 48.7963 50.3697L48.7838 50.3893L49.8237 51.0574L48.7838 50.3893C48.5828 50.7021 48.3928 50.9116 48.2149 51.0574Z" fill="url(#paint0_linear_794_3671)" stroke="white" stroke-width="5"/>
<path d="M11.6248 29.5194L12.9088 31.7433L8.62717 34.2153L15.7432 46.5406L13.3737 47.9086L6.25772 35.5833L1.97609 38.0553L0.69209 35.8314L11.6248 29.5194ZM29.2414 36.8906C28.7452 38.6551 27.638 40.0334 25.9198 41.0254C24.2016 42.0174 22.4475 42.2911 20.6574 41.8466C18.8731 41.3802 17.493 40.3018 16.517 38.6113C15.877 37.5028 15.5534 36.3502 15.5461 35.1536C15.5526 33.9489 15.8691 32.8332 16.4957 31.8063C17.128 30.7576 18.0054 29.9093 19.1278 29.2613C20.2502 28.6133 21.4166 28.2816 22.6271 28.2663C23.8435 28.2292 24.968 28.5129 26.0007 29.1176C27.0473 29.7142 27.8905 30.5668 28.5305 31.6753C29.5065 33.3658 29.7435 35.1042 29.2414 36.8906ZM24.6478 38.8222C25.3545 38.4142 25.8969 37.8978 26.2752 37.273C26.6454 36.6343 26.823 35.9498 26.8078 35.2195C26.7985 34.4674 26.5899 33.738 26.1819 33.0313C25.5659 31.9644 24.7115 31.2845 23.6186 30.9917C22.5397 30.6909 21.4667 30.8485 20.3998 31.4645C19.3328 32.0805 18.653 32.9349 18.3601 34.0277C18.0812 35.1125 18.2497 36.1884 18.8657 37.2553C19.4817 38.3223 20.3292 39.0062 21.4081 39.307C22.501 39.5998 23.5808 39.4382 24.6478 38.8222ZM33.859 21.1165L36.1037 19.8205L42.5837 31.0442L40.339 32.3402L38.023 28.3288C37.4209 29.0459 36.6972 29.6484 35.852 30.1364C34.4802 30.9284 33.1466 31.1626 31.8512 30.8389C30.5558 30.5153 29.5001 29.6468 28.6841 28.2334L26.8961 25.1365L29.1617 23.8285L30.9017 26.8423C31.3657 27.6459 31.9295 28.1425 32.5932 28.3321C33.2708 28.5136 34.0114 28.3724 34.815 27.9084C35.6187 27.4444 36.256 26.8363 36.727 26.084L33.859 21.1165ZM52.9255 25.0733L46.7984 22.2369L45.4059 23.0409L48.1659 27.8213L45.8588 29.1533L39.3788 17.9296L41.6859 16.5976L44.1939 20.9416L45.6072 20.1256L46.1545 14.0176L48.8773 12.4456L48.1817 20.0249L55.773 23.4293L52.9255 25.0733ZM59.9167 6.07205L61.7042 5.04005L68.1842 16.2637L66.3136 17.3437L65.293 16.104C64.8442 17.8226 63.8092 19.1499 62.188 20.0859C60.5113 21.0539 58.7878 21.3008 57.0175 20.8264C55.2609 20.344 53.8987 19.2645 52.9307 17.5879C51.9547 15.8974 51.7009 14.1779 52.1695 12.4294C52.6438 10.659 53.7193 9.28985 55.396 8.32185C57.0449 7.36985 58.7297 7.13611 60.4505 7.62062L59.9167 6.07205ZM57.8426 18.2715C58.9493 18.5564 60.0291 18.3948 61.0822 17.7868C62.1492 17.1708 62.8221 16.3204 63.1011 15.2355C63.3859 14.1289 63.2243 13.049 62.6163 11.9959C62.0003 10.929 61.1459 10.2491 60.0531 9.95625C58.9741 9.65543 57.9012 9.81302 56.8342 10.429C56.1414 10.829 55.6029 11.3524 55.2188 11.9991C54.8486 12.6378 54.6681 13.3332 54.6774 14.0853C54.6787 14.8235 54.8794 15.5391 55.2794 16.2319C55.8874 17.285 56.7418 17.9649 57.8426 18.2715Z" fill="#9453FF"/>
<path d="M89.707 104.531L82.7351 98.7275L67.2714 107.656L68.8669 116.563L59.9988 121.683L52.7855 74.1172L60.7113 69.5412L98.7968 99.2831L89.707 104.531ZM62.7515 82.0349L65.7078 98.8034L75.8507 92.9474L62.7515 82.0349Z" fill="white"/>
<defs>
<linearGradient id="paint0_linear_794_3671" x1="120" y1="144" x2="-0.710531" y2="94.1441" gradientUnits="userSpaceOnUse">
<stop stop-color="#9453FF"/>
<stop offset="1" stop-color="#AE7CFF"/>
</linearGradient>
</defs>
</svg>
