<svg width="88" height="40" viewBox="0 0 88 40" fill="none" xmlns="http://www.w3.org/2000/svg">
<path d="M67.8424 5.11565C70.0196 7.05103 72.4721 9.47005 75.071 12.258C75.7142 12.9611 76.3729 13.6812 77.0455 14.4164C77.3769 14.7886 77.7117 15.1645 78.0496 15.5441C78.64 16.2423 79.2359 16.9473 79.8371 17.6584C82.4797 20.8106 85.2371 24.1575 88 27.5691C83.839 28.9227 79.7108 30.2227 75.7882 31.4234C74.8984 31.6915 74.0165 31.9574 73.1428 32.2207C72.6537 32.3544 72.1693 32.4869 71.6899 32.618C70.7275 32.8673 69.785 33.1114 68.8648 33.3497C65.1751 34.2683 61.8079 34.9574 58.9334 35.3911C53.1845 36.2586 49.4069 36.1048 48.963 34.7243C48.5192 33.3437 51.4933 30.9976 56.6604 28.3206C59.0595 27.0778 61.947 25.763 65.1689 24.441C57.8899 23.8735 48.3507 23.4884 38.244 25.1943C32.8469 26.0867 27.8512 27.5325 23.4118 29.2024C18.9687 30.8739 15.1069 32.8192 11.8447 34.5517C5.39913 38.1294 1.31954 40.8305 0.223267 39.7651C-0.761635 38.8407 1.48338 34.1781 7.52661 28.5203C10.5798 25.7671 14.5925 22.8122 19.5261 20.3425C24.4467 17.8741 30.2578 15.8639 36.5212 14.8298C42.785 13.7939 48.8416 13.7158 54.23 14.2917C58.8471 14.7516 62.9744 15.6698 66.4789 16.7381C64.7772 14.2364 63.2956 11.8917 62.1083 9.80597C59.2213 4.73487 57.9956 1.14041 59.1152 0.224531C60.2349 -0.691344 63.488 1.24488 67.8424 5.11565Z" fill="#5383FF"/>
</svg>
