<svg width="580" height="279" viewBox="0 0 580 279" fill="none" xmlns="http://www.w3.org/2000/svg">
<mask id="mask0_2691_198" style="mask-type:alpha" maskUnits="userSpaceOnUse" x="0" y="0" width="580" height="279">
<rect x="0.5" y="0.5" width="579" height="278" rx="19.5" fill="white" stroke="#E5E5E5"/>
</mask>
<g mask="url(#mask0_2691_198)">
<path d="M319 375.231C319 376.765 317.662 378 316 378C314.338 378 313 376.765 313 375.231V277.769C313 276.235 314.338 275 316 275C317.662 275 319 276.235 319 277.769V375.231Z" fill="#464547"/>
<path d="M250 375.231C250 376.765 248.662 378 247 378C245.338 378 244 376.765 244 375.231V277.769C244 276.235 245.338 275 247 275C248.662 275 250 276.235 250 277.769V375.231Z" fill="#464547"/>
<path d="M348 347.231C348 348.765 346.885 350 345.5 350C344.115 350 343 348.765 343 347.231V249.769C343 248.235 344.115 247 345.5 247C346.885 247 348 248.235 348 249.769V347.231Z" fill="#2E2D2F"/>
<path d="M279 347.231C279 348.765 277.885 350 276.5 350C275.115 350 274 348.765 274 347.231V249.769C274 248.235 275.115 247 276.5 247C277.885 247 279 248.235 279 249.769V347.231Z" fill="#2E2D2F"/>
<path d="M251.087 276.02C251.087 276.02 246.098 289.072 246.001 303.064C245.883 317.076 263.723 345 263.723 345C263.723 345 269.103 343.461 271 336.425C271 336.425 262.021 323.333 259.772 309.76C257.522 296.188 263.175 279.118 263.175 279.118L251.087 276V276.02Z" fill="#F4D9BF"/>
<path d="M244.98 264.02C244.98 264.02 235 278.619 235 291.562C235 291.562 268.313 297.047 295.06 291.562C295.06 291.562 294.96 279.835 302.405 275.348C309.85 270.861 244.98 264 244.98 264V264.02Z" fill="#FFC808"/>
<path d="M324 285C322.635 277.236 321.17 269.882 320.082 267.109L309 266C309.712 271.875 312.305 283.336 324 285Z" fill="#294381"/>
<path d="M264 262.034L253.48 261C253.48 261 249.849 268.501 246 279.65C259.441 282.508 263.171 267.061 264 262.034Z" fill="#294381"/>
<path d="M205 393.694C205 396.075 202.988 398 200.5 398C198.012 398 196 396.075 196 393.694V242.306C196 239.925 198.012 238 200.5 238C202.988 238 205 239.925 205 242.306V393.694Z" fill="#2E2D2F"/>
<path d="M420 393.694C420 396.075 417.988 398 415.5 398C413.012 398 411 396.075 411 393.694V242.306C411 239.925 413.012 238 415.5 238C417.988 238 420 239.925 420 242.306V393.694Z" fill="#2E2D2F"/>
<path d="M362.799 180.296C358.979 176.119 353.427 174 346.284 174H295.603C288.48 174 282.928 176.119 279.108 180.296C273.715 186.196 273.934 194.136 274.034 195.621V240.902C274.034 243.159 275.884 245 278.152 245C280.421 245 282.271 243.159 282.271 240.902V195.482C282.271 195.344 282.271 195.225 282.271 195.086C282.271 195.027 281.854 189.503 285.236 185.8C287.445 183.405 290.947 182.177 295.663 182.177H346.344C351.04 182.177 354.522 183.385 356.73 185.761C360.153 189.443 359.735 195.066 359.735 195.086C359.735 195.205 359.735 195.344 359.735 195.482V240.902C359.735 243.159 361.586 245 363.854 245C366.122 245 367.973 243.159 367.973 240.902V195.621C368.053 194.116 368.291 186.196 362.899 180.296H362.799Z" fill="#464547"/>
<g style="mix-blend-mode:multiply">
<path d="M274 213H282.224V195.589C282.224 195.45 282.224 195.331 282.224 195.191C282.224 195.132 281.806 189.58 285.192 185.859C287.402 183.452 290.907 182.218 295.626 182.218H346.347C351.046 182.218 354.531 183.432 356.742 185.819C360.167 189.52 359.749 195.171 359.749 195.191C359.749 195.311 359.749 195.45 359.749 195.589V213H367.973V195.729C368.053 194.216 368.292 186.257 362.895 180.328C359.072 176.129 353.516 174 346.367 174H295.646C288.517 174 282.961 176.129 279.138 180.328C273.741 186.257 273.96 194.236 274.06 195.729V213H274Z" fill="#464547"/>
</g>
<path d="M383 204.363L378.463 207L269.438 204.363L265 149.697L269.438 147H383V204.363Z" fill="#8F5C46"/>
<path d="M379 150H265V207H379V150Z" fill="#C99477"/>
<path d="M318.472 170.097C317.74 170.018 335.009 158.393 340 150H265V169.112C266.901 169.762 268.802 170.451 270.684 171.2C271.258 171.437 271.595 172.363 270.882 172.678C268.842 173.584 266.881 174.825 265.02 176.283V207H334.534C334.791 201.207 334.593 195.356 333.583 189.701C332.078 181.209 328.494 171.062 318.512 170.077L318.472 170.097Z" fill="#B17D60"/>
<path d="M366 162C366 163.667 364.647 165 363 165C361.353 165 360 163.647 360 162C360 160.353 361.353 159 363 159C364.647 159 366 160.353 366 162Z" fill="#8F5C46"/>
<path d="M365 161.991C365 163.105 364.105 164 362.991 164C361.877 164 361 163.105 361 161.991C361 160.877 361.895 160 362.991 160C364.087 160 365 160.895 365 161.991Z" fill="#5C3929"/>
<path d="M366 192C366 193.667 364.647 195 363 195C361.353 195 360 193.647 360 192C360 190.353 361.353 189 363 189C364.647 189 366 190.353 366 192Z" fill="#8F5C46"/>
<path d="M365 192C365 193.109 364.105 194 362.991 194C361.877 194 361 193.109 361 192C361 190.891 361.895 190 362.991 190C364.087 190 365 190.891 365 192Z" fill="#5C3929"/>
<path d="M394.505 108.884C383.761 101.065 393.006 89.168 390.404 78.7358C389.281 74.262 385.949 70.7187 382.302 68.1651C380.548 66.9377 378.675 66.4033 376.783 66.0469C366.433 59.6134 354.802 69.6893 348.475 77.7064C341.378 86.7133 334.813 100.451 335.681 112.348C332.349 117.396 329.609 122.781 327.953 128.581C326.258 134.559 326.731 140.913 330.122 146.179C333.374 151.207 350.84 159.145 342.482 166.132C342.206 166.35 341.299 167.498 341.89 167.815C345.025 169.577 347.706 168.033 349.756 165.301C350.347 164.509 350.801 163.856 351.353 163.044C350.702 163.995 350.446 164.866 350.091 166.073C349.362 168.528 348.534 170.864 348.159 173.397C347.528 177.713 350.347 180.583 353.718 182.701C355.69 183.929 357.937 184.621 359.948 185.789C360.5 186.106 360.933 186.443 361.268 186.819C361.761 188.046 361.958 189.451 361.761 190.718C361.367 191.688 360.716 192.658 360.026 193.589C359.514 193.905 358.903 194.103 358.134 194.143C357.582 194.163 356.695 195.509 357.247 195.925C361.367 199.112 366.532 197.053 369.804 193.668C370.435 192.995 371.066 192.163 371.598 191.233C375.067 193.648 379.207 196.657 376.231 198.874C375.876 199.131 374.792 200.656 375.698 200.854C380.843 201.982 385.673 196.34 387.98 192.401C388.551 191.431 388.906 190.481 389.064 189.471C390.897 188.976 392.73 187.472 393.381 185.532C393.44 185.374 393.479 184.839 393.164 184.879C390.641 185.294 387.526 183.414 389.734 180.306C390.976 178.544 393.085 177.079 394.84 175.872C397.087 174.328 399.926 172.526 401.227 169.993C403.336 165.875 401.897 162.886 398.723 161.065C400.872 160.313 402.705 158.808 404.164 156.69C404.262 156.552 404.795 155.245 404.164 155.562C398.684 158.254 397.008 151.425 399.236 147.446C400.359 145.446 402.035 143.744 403.435 141.943C405.879 138.775 408.245 135.034 408.816 130.976C410.334 120.346 402.173 114.486 394.544 108.924L394.505 108.884Z" fill="#FFEFD4"/>
<path d="M342.588 166.365C342.469 166.464 342.25 166.722 342.072 167C345.227 166.385 348.205 165.373 351.023 164.004C351.182 163.765 351.36 163.527 351.539 163.269C351.38 163.507 351.241 163.726 351.122 163.964C365.294 157.058 378.572 141.321 383.415 126.518C389.548 107.745 387.92 83.9913 377.699 66.1711C377.5 66.1314 377.321 66.0917 377.123 66.052C366.703 59.6026 354.993 69.7034 348.621 77.7403C341.476 86.7695 334.867 100.541 335.74 112.468C332.386 117.528 329.627 122.926 327.96 128.74C326.253 134.733 326.729 141.103 330.143 146.382C333.418 151.422 351.003 159.38 342.588 166.385V166.365Z" fill="#FFEFD4"/>
<path d="M346.519 33.9871C346.519 33.9871 310.093 7.3712 258.062 36.9908C206.05 66.6105 215.489 131.34 253.521 153.798C253.521 153.798 296.689 175.362 338.111 158.652C338.111 158.652 372.078 153.361 379.832 110.612C388.457 63.0299 346.499 33.9871 346.499 33.9871H346.519Z" fill="#FFEFD4"/>
<path opacity="0.4" d="M374.515 68.6515C376.082 77.1124 377.569 88.314 372.671 96.0202C367.752 103.746 358.134 95.4243 354.307 91.0946C346.612 82.4153 338.759 73.875 331.045 65.2354C333.702 70.4589 336.003 75.881 338.382 81.2633C339.215 83.17 341.853 90.4392 337.034 89.6845C331.303 88.8106 324.54 82.6338 320.177 79.1779C315.775 75.6824 311.749 71.8492 308.12 67.6386C310.44 74.2921 311.491 80.3299 308.06 81.2832C304.749 82.1968 300.644 73.6367 299.335 71.7697C296.658 67.9365 294.139 64.0636 292.116 59.9325C289.895 61.2831 287.654 62.5939 285.374 63.865C278.631 67.6585 271.73 71.1342 264.65 74.2127C261.021 75.8015 256.856 78.1253 252.85 78.6218C241.547 80.0121 248.725 65.434 251.819 61.0844C253.068 59.3168 254.397 57.6485 255.766 56C245.771 65.3943 237.679 76.7946 232.206 89.6447C231.909 90.3399 230.818 90.2406 230.501 89.6447C226.594 82.6536 226.614 74.6099 228.894 66.9832C213.148 98.3241 225.642 137.391 253.505 153.816C253.505 153.816 296.677 175.345 338.105 158.662C338.105 158.662 372.076 153.379 379.83 110.698C382.804 94.3518 379.77 80.1908 374.535 68.6515H374.515Z" fill="#FFEFD4"/>
<path d="M323.993 257C324.071 250.121 323.528 242.005 320.987 237L311 240.111C311.368 245.853 313.502 256.322 323.974 256.98L323.993 257Z" fill="#0D4C78"/>
<path d="M323.98 256.763C313.315 256.109 311.167 245.706 310.792 240L264.072 251.036L264.999 259.398C264.999 259.398 256.601 277.032 257.015 289C257.015 289 270.301 281.253 284.377 288.227L289.305 271.722L292.42 286.86C292.42 286.86 304.74 278.875 321.93 282.778L323.172 269.265C323.172 269.265 323.921 263.618 324 256.763H323.98Z" fill="#0A78BD"/>
<g style="mix-blend-mode:multiply" opacity="0.4">
<path d="M310.776 240L264 251.083L264.395 254.645C270.849 257.53 277.875 258.147 285 258.306C293.309 258.485 301.697 258.704 309.375 254.983C309.947 254.705 310.895 254.884 311.013 255.66C312.355 264.415 311.526 273.19 310.914 281.965C314.27 281.846 317.961 282.105 321.928 283L323.171 269.429C323.171 269.429 323.921 263.758 324 256.874C313.322 256.217 311.171 245.77 310.796 240.04L310.776 240Z" fill="#526C9E"/>
</g>
<g style="mix-blend-mode:multiply" opacity="0.6">
<path d="M275.197 269L281.105 272.721C281.105 272.721 275.65 283.727 275 285.244C278.072 285.539 281.341 286.366 284.65 288L289.573 271.599L293 269.433C283.409 272.859 275.197 269.02 275.197 269.02V269Z" fill="#526C9E"/>
</g>
<path d="M288.742 169.817C288.742 169.817 283.81 165.395 275.577 177.126C268.477 187.224 269.79 196.585 269.79 196.585C269.79 196.585 262.969 222.576 261 252.49C261 252.49 291.645 262.489 327.6 242.572L320.977 209.132L327.5 206.862C327.5 206.862 333.983 170.992 300.256 169.598L288.761 169.817H288.742Z" fill="#9453FF"/>
<g style="mix-blend-mode:multiply">
<path opacity="0.5" d="M300.217 169.064L288.715 169.281C288.715 169.281 286.327 168.648 282.387 169.281C281.75 173.735 279.342 191.309 302.605 179.89C303.66 179.375 305.152 176.347 305.55 175.437C305.55 175.437 302.665 214.089 307.54 232.673C310.028 242.114 307.918 247.655 303.839 251C311.261 249.12 319.281 246.131 327.599 241.56L320.973 208.33L327.5 206.074C327.5 206.074 333.987 170.429 300.237 169.044L300.217 169.064Z" fill="#884CEC"/>
</g>
<path d="M286.237 166.518V175.523C286.237 175.523 284.392 181.361 290.992 180.982C297.593 180.584 298.515 179.189 299.077 175.484C299.639 171.778 300 166 300 166L286.258 166.538L286.237 166.518Z" fill="#FFE5B9"/>
<path d="M296.178 172.979C297.282 172.979 298.365 172.936 299.448 172.872C299.796 169.468 300 166 300 166L286 166.578V171.93C289.209 173 293.072 173 296.178 173V172.979Z" fill="#F4D9BF"/>
<path d="M387.735 304H133L133.04 295.462L178.225 231.478L433 223L432.96 231.478L387.735 304Z" fill="#8F5C46"/>
<path d="M387.769 296H133L178.231 223H433L387.769 296Z" fill="#D9AE94"/>
<path d="M244.654 227H319L289.806 288H206L244.654 227Z" fill="#8F5C46"/>
<path d="M244.635 228H317L288.576 288H207L244.635 228Z" fill="#FFF9EF"/>
<path d="M247.958 232H311L285.306 282H216L247.958 232Z" fill="#FFF9EF"/>
<path d="M285.831 282H216.497C216.318 282 216.159 281.901 216.06 281.744C215.98 281.586 215.98 281.389 216.06 281.251L248.031 231.237C248.13 231.099 248.269 231 248.448 231H311.515C311.694 231 311.853 231.079 311.933 231.237C312.012 231.375 312.032 231.572 311.933 231.71L286.229 281.724C286.149 281.882 285.97 282 285.791 282H285.831ZM217.393 281.014H285.532L310.719 231.986H248.747L217.393 281.014Z" fill="#6C6D64"/>
<path d="M362 107.192C356.048 106.895 343.137 84.2034 343.137 84.2034C362 122.214 311.718 72.9073 311.718 72.9073C324.847 93.7754 316.938 94.7465 309.325 88.266C300.843 81.0524 291.688 65 291.688 65C235.058 108.322 243.244 75.1269 243.244 75.1269C240.12 81.3298 238.044 89.5938 237.016 94.033C235.217 101.702 234.801 108.659 235.078 114.624C235.711 128.159 239.962 136.582 239.962 136.582C239.962 136.582 252.656 163.851 289.276 168.33C322 172.333 338.846 157.232 342.069 153.982C344.817 150.276 347.21 146.53 349.266 142.844C352.39 137.275 354.783 131.845 356.602 126.97C360.853 115.555 361.98 107.192 361.98 107.192H362Z" fill="#FFE5B9"/>
<path d="M314 118.734C314 118.734 317.785 114.746 320.657 116.403C323.529 118.059 323.879 121.351 323.995 122.803C324.131 124.255 321.453 117.139 314 118.734Z" fill="#353233"/>
<path d="M267.02 109.816C267.02 109.816 269.711 105.372 272.98 106.076C276.268 106.779 277.444 109.575 277.962 110.815C278.461 112.056 273.956 106.52 267 109.816H267.02Z" fill="#353233"/>
<path d="M230.823 93.0947C223.077 94.0247 221.724 111.042 235.078 115C234.804 109.044 235.215 102.098 237 94.4403C235.706 93.4311 233.784 92.7385 230.823 93.0947Z" fill="#F7D9A5"/>
<path d="M364.025 127.878C361.428 126.606 359.042 126.88 357.138 127.663C355.368 132.477 353.04 137.838 350 143.336C351.885 143.767 354.175 144.08 356.887 143.982C365.853 143.708 370.393 130.989 364.025 127.878Z" fill="#F7D9A5"/>
<path d="M228 100C228 100 228.751 100 229.809 100.358C230.329 100.547 230.945 100.774 231.522 101.151C232.138 101.509 232.696 101.981 233.235 102.509C233.735 103.075 234.197 103.679 234.467 104.34C234.64 104.642 234.736 104.981 234.813 105.302C234.89 105.604 234.967 105.906 234.967 106.189C235.044 106.736 234.967 107.208 234.929 107.509C234.871 107.83 234.832 108 234.832 108C234.832 108 234.775 107.83 234.659 107.528C234.621 107.377 234.582 107.208 234.505 107C234.428 106.811 234.351 106.585 234.255 106.358C234.178 106.113 234.043 105.868 233.928 105.623C233.812 105.377 233.658 105.113 233.485 104.849C233.35 104.585 233.139 104.34 232.946 104.094C232.773 103.83 232.523 103.604 232.311 103.358C232.099 103.113 231.849 102.887 231.618 102.66C231.349 102.453 231.137 102.208 230.887 102.038C230.406 101.623 229.905 101.283 229.482 100.981C228.597 100.396 228 100 228 100Z" fill="#C19168"/>
<path d="M361 135.961C361 135.961 360.413 135.565 359.541 135.327C359.314 135.287 359.086 135.228 358.821 135.208C358.575 135.169 358.309 135.188 358.044 135.169C357.514 135.228 356.945 135.287 356.396 135.525C356.131 135.604 355.846 135.723 355.581 135.862C355.316 135.98 355.032 136.099 354.785 136.277C354.539 136.416 354.274 136.535 354.065 136.693C353.838 136.852 353.611 136.99 353.402 137.109C352.985 137.366 352.663 137.624 352.398 137.762C352.152 137.921 352 138 352 138C352 138 352.076 137.842 352.227 137.584C352.303 137.446 352.398 137.287 352.531 137.129C352.644 136.951 352.758 136.733 352.947 136.555C353.288 136.159 353.686 135.683 354.217 135.307C354.463 135.109 354.747 134.891 355.051 134.733C355.354 134.555 355.657 134.396 356.017 134.297C356.358 134.159 356.699 134.099 357.059 134.04C357.4 133.961 357.779 134.02 358.101 134.04C358.442 134.08 358.764 134.139 359.048 134.278C359.352 134.357 359.598 134.535 359.825 134.674C360.735 135.287 361 135.98 361 135.98V135.961Z" fill="#C19168"/>
<path d="M274.647 129.66C273.795 133.503 271.706 136.341 269.962 135.967C268.218 135.612 267.508 132.203 268.36 128.34C269.212 124.477 271.321 121.659 273.045 122.033C274.789 122.388 275.499 125.798 274.627 129.66H274.647Z" fill="#353233"/>
<path d="M271.837 126.264C271.514 127.359 270.885 128.132 270.437 127.981C269.988 127.83 269.862 126.83 270.167 125.736C270.49 124.641 271.119 123.868 271.568 124.019C272.017 124.17 272.142 125.17 271.819 126.264H271.837Z" fill="white"/>
<path d="M318.647 138.659C317.795 142.522 315.705 145.341 313.96 144.967C312.235 144.612 311.504 141.202 312.357 137.338C313.209 133.475 315.319 130.676 317.044 131.03C318.789 131.405 319.499 134.815 318.627 138.659H318.647Z" fill="#353233"/>
<path d="M315.827 135.262C315.505 136.358 314.896 137.132 314.431 136.981C313.983 136.83 313.858 135.829 314.18 134.734C314.485 133.638 315.111 132.883 315.577 133.015C316.024 133.166 316.132 134.167 315.827 135.262Z" fill="white"/>
<g style="mix-blend-mode:multiply">
<path d="M262.944 137.882C262.379 140.001 257.686 140.625 252.487 139.32C247.269 137.995 243.491 135.214 244.056 133.113C244.621 130.994 249.313 130.37 254.532 131.694C259.75 133 263.509 135.781 262.944 137.901V137.882Z" fill="#FEB69F" fill-opacity="0.25"/>
</g>
<g style="mix-blend-mode:multiply">
<path d="M335.963 152.893C335.399 154.992 330.705 155.634 325.485 154.311C320.266 152.988 316.507 150.209 317.053 148.111C317.617 145.994 322.311 145.37 327.53 146.693C332.75 148.017 336.509 150.795 335.944 152.893H335.963Z" fill="#FEB69F" fill-opacity="0.25"/>
</g>
<path d="M294.244 147.98C289.821 149.256 284.379 148.081 283.258 143.1C282.953 141.723 283.319 140.042 284.114 138.888C284.848 137.815 285.867 137.288 287.131 137.207C289.74 137.065 292.41 137.875 294.387 139.516C294.957 139.981 295.487 140.508 295.895 141.115C295.936 141.156 296.017 141.115 295.997 141.055C294.611 138.746 291.819 137.065 289.149 136.519C289.434 136.053 289.678 135.526 289.76 135C289.434 135.445 288.863 135.891 288.639 136.417C288.578 136.417 288.537 136.417 288.496 136.397C285.419 135.992 283.523 136.822 282.382 139.718C281.241 142.634 282.79 146.077 285.276 147.656C287.905 149.317 291.452 149.357 294.244 148.223C294.366 148.183 294.407 147.94 294.244 147.98Z" fill="#C19168"/>
<path d="M304 150.69C303.571 150.207 303.024 150.047 302.478 150.007C301.268 149.926 300.038 150.609 300.038 150.609C300.858 150.509 301.599 150.509 302.224 150.529C300.994 153 295.139 163.065 283 157.681C283 157.681 295.666 166.219 302.244 150.529C303.297 150.569 303.98 150.71 303.98 150.71L304 150.69Z" fill="#BB9064"/>
<path d="M214.789 230C214.789 230 212.902 232.817 214.964 235.653C217.006 238.489 220.914 241.131 221.887 239.5C222.859 237.887 217.317 231.068 214.808 230H214.789Z" fill="#FFE5B9"/>
<g style="mix-blend-mode:multiply">
<path d="M214 232.377C215.851 235 218.836 236.887 222 238C221.144 235.528 216.925 230.868 214.796 230C214.796 230 214.1 230.981 214 232.358V232.377Z" fill="#F4D9BF"/>
</g>
<path d="M213.147 224C213.147 224 209.621 224.587 211.606 228.841C213.59 233.074 220.122 238.725 220.854 236.497C221.586 234.249 219.332 228.659 219.197 228.476C219.082 228.294 213.128 224 213.128 224H213.147Z" fill="#FFE5B9"/>
<g style="mix-blend-mode:multiply">
<path d="M212.019 224.955C214.009 228.498 217.35 230.567 221 232C220.498 230.149 219.803 228.478 219.725 228.398C219.609 228.219 213.642 224 213.642 224C213.642 224 212.637 224.179 212 224.955H212.019Z" fill="#F4D9BF"/>
</g>
<path d="M228.862 197.513C228.804 199.5 227.23 201.04 225.344 200.999C223.439 200.938 221.962 199.297 222.001 197.331L222.137 192.467C222.195 190.501 223.77 188.941 225.674 189.002C227.56 189.063 229.057 190.704 228.998 192.69L228.862 197.534V197.513Z" fill="#FFE5B9"/>
<path d="M222.338 193.019L221 239L227.997 239.195L229.336 193.214L222.338 193.019Z" fill="#FC2A2A"/>
<path d="M222.144 193.002L222 198L229.997 198.22L230.141 193.222L222.144 193.002Z" fill="#5383FF"/>
<path d="M230 193.658C230 193.842 229.88 194 229.721 194L222.259 193.711C222.12 193.711 222 193.553 222 193.342C222 193.158 222.12 193 222.279 193L229.741 193.289C229.88 193.289 230 193.447 230 193.658Z" fill="#FC2A2A"/>
<path d="M230 194.658C230 194.842 229.88 195 229.721 195L222.259 194.711C222.12 194.711 222 194.553 222 194.342C222 194.158 222.12 194 222.279 194L229.741 194.289C229.88 194.289 230 194.447 230 194.658Z" fill="#FC2A2A"/>
<path d="M230 196.658C230 196.842 229.88 197 229.721 197L222.259 196.711C222.12 196.711 222 196.553 222 196.342C222 196.132 222.12 196 222.279 196L229.721 196.289C229.86 196.289 229.98 196.447 229.98 196.658H230Z" fill="#FC2A2A"/>
<path d="M230 197.658C230 197.842 229.86 198 229.721 198L222.259 197.711C222.12 197.711 222 197.553 222 197.342C222 197.158 222.12 197 222.279 197L229.741 197.289C229.88 197.289 230 197.447 230 197.658Z" fill="#FC2A2A"/>
<path d="M221 238.814C221 238.814 221.16 238.103 221.977 238.046C222.795 237.988 223.034 238.872 223.034 238.872C223.034 238.872 223.254 238.084 224.311 238.007C225.368 237.93 226.026 238.488 226.205 238.968C226.205 238.968 226.444 238.276 227.083 238.295C227.741 238.295 228 239.006 228 239.006L224.311 247L221 238.814Z" fill="#FFF9EF"/>
<path d="M223.899 247L226 242.124L222 242L223.899 247Z" fill="#231F20"/>
<path d="M214.443 215C214.443 215 210.488 218.878 211.056 222.838C211.624 226.778 220.591 233.693 221.648 231.621C222.705 229.548 221.041 225.321 221.061 225.075C221.1 224.829 214.443 215 214.443 215Z" fill="#FFE5B9"/>
<g style="mix-blend-mode:multiply">
<path d="M213 216.702C213.118 219.969 214.836 223.313 217.322 225.426C218.033 226.032 220.895 228.439 222 227.93C221.763 226.306 221.151 224.761 221.171 224.605C221.211 224.37 214.5 215 214.5 215C214.5 215 213.789 215.665 213 216.702Z" fill="#F4D9BF"/>
</g>
<path d="M221.799 208C221.799 208 212.364 210.332 213.034 215.218C213.704 220.105 218.962 227.1 221.306 226.999C223.65 226.898 223.394 220.206 221.562 218.077L221.818 208H221.799Z" fill="#FFE5B9"/>
<g style="mix-blend-mode:multiply">
<path d="M215.021 211.852C215.351 211.753 215.682 211.633 216.013 211.533C216.757 211.314 217.853 210.755 218.659 211.055C220.395 211.693 219.651 215.124 219.444 216.44C219.382 216.719 219.155 217.059 218.804 217.059C218.08 217.078 217.253 216.959 216.447 216.879C218.432 217.876 220.106 219.352 221.408 221.207C222.008 222.045 222.607 223.003 223 224C223 222.085 222.442 219.951 221.491 218.914L221.76 209C221.76 209 217.729 209.938 215 211.872L215.021 211.852Z" fill="#F4D9BF"/>
</g>
<path d="M258.201 191.02C258.201 191.02 256.885 209.309 251.901 213.45C246.898 217.59 239.283 217.871 239.283 217.871L228.738 210.837L228 236C228 236 235.316 236.16 237.05 230.412C237.05 230.412 260.254 231.256 265.636 214.274C271.238 196.607 270.999 191.281 270.999 191.281L258.221 191L258.201 191.02Z" fill="#FFE5B9"/>
<g style="mix-blend-mode:multiply">
<path d="M269.005 202C271.121 194.002 270.999 191.271 270.999 191.271L257.956 191C257.956 191 257.712 194.331 257 198.437C261.517 198.069 265.403 199.463 269.005 202Z" fill="#F4D9BF"/>
</g>
<g style="mix-blend-mode:multiply">
<path d="M233.371 228.555C233.944 230.18 234.097 231.767 233.944 233.316C231.326 235.077 228 234.999 228 234.999L228.344 223C230.599 224.239 232.511 226.135 233.352 228.535L233.371 228.555Z" fill="#F4D9BF"/>
</g>
<g style="mix-blend-mode:multiply">
<path d="M229.494 214.267C227.934 214.933 227.5 217.335 226.908 218.748C225.704 221.554 224.559 224.4 223.553 227.286C220.849 235.037 221.717 238.106 225.842 234.492C225.842 234.492 228.25 231.566 229.217 229.426C229.217 229.426 237.625 229.628 238.928 222.543C239.343 220.282 237.902 217.941 236.224 216.568C234.546 215.175 231.763 213.298 229.513 214.267H229.494Z" fill="#F4D9BF"/>
</g>
<path d="M229.718 214.285C228.113 214.952 227.666 217.355 227.057 218.749C225.817 221.576 224.639 224.403 223.603 227.291C220.821 235.046 221.694 238.095 225.96 234.501C225.96 234.501 228.438 231.572 229.433 229.432C229.433 229.432 237.558 229.23 238.899 222.141C239.325 219.9 238.371 217.961 236.644 216.567C234.918 215.194 232.053 213.296 229.738 214.265L229.718 214.285Z" fill="#FFE5B9"/>
<path d="M274.332 180.62C276.05 176.827 279.585 171.529 283 169C281.802 169.161 278.227 169.763 276.25 170.184C272.775 170.887 266.444 173.114 263.248 176.506C256.718 183.45 256.138 194.689 255 196.936C260.432 196.575 265.205 196.435 269.899 198C271.217 191.819 271.796 186.219 274.312 180.62H274.332Z" fill="#9453FF"/>
<g style="mix-blend-mode:multiply" opacity="0.5">
<path d="M269.979 187.895C269.009 190.987 268.515 194.18 268 197.374C268.752 197.535 269.524 197.737 270.276 198C271.582 191.776 272.156 186.137 274.649 180.499C276.311 176.76 279.675 171.627 283 169C276.015 172.274 272.195 180.843 269.999 187.875L269.979 187.895Z" fill="#884CEC"/>
</g>
<path d="M316.131 201.422C316.131 201.422 317.567 216.049 315.612 216.612C313.658 217.194 294.852 220.068 294.852 220.068C294.852 220.068 287.513 213.015 281.769 214.442C276.025 215.868 274.49 217.295 274.629 220.831C274.629 220.831 273.213 224.649 274.629 228.044C274.629 228.044 274.23 232.003 276.763 233.69C276.763 233.69 276.763 237.648 280.014 237.93C283.245 238.211 284.222 237.648 284.641 236.222C285.06 234.795 284.082 233.811 284.082 233.811C284.082 233.811 287.712 237.608 290.803 236.483C293.914 235.338 295.55 231.52 295.55 231.52C295.55 231.52 324.068 230.114 325.524 221.233C326.98 212.352 327 201 327 201L316.151 201.422H316.131Z" fill="#FFE5B9"/>
<g style="mix-blend-mode:multiply">
<path d="M326.939 203.839C327 202.102 327 201 327 201L316 201.392C316 201.392 316.182 203.111 316.324 205.352C318.831 206.921 323.785 205.333 326.939 203.839Z" fill="#F4D9BF"/>
</g>
<path d="M283 227C283 227 276.354 227.604 277.051 234C277.051 234 276.744 229.25 283 227Z" fill="#C19168"/>
<path d="M280 223C280 223 275.325 223 275.006 228C275.006 228 274.626 224.992 280 223Z" fill="#C19168"/>
<path d="M280 218.037C280 218.037 275.6 217.444 275 221C275 221 275.58 218.997 280 218.037Z" fill="#C19168"/>
<path d="M282.159 235C282.159 235 283.051 233.539 286 233.276C286 233.276 284.071 232.564 282.796 233.426C281.522 234.288 282.159 235 282.159 235Z" fill="#C19168"/>
<path d="M322.081 203.901C324.932 203.664 328.282 203.349 330.993 202.067C331.113 192.564 329.837 169.004 313.866 172.317C313.866 172.317 310.477 175.037 309.54 180.518C308.882 184.422 308.962 195.246 309.081 201.653C313.069 203.605 317.655 204.275 322.081 203.901Z" fill="#9453FF"/>
<g style="mix-blend-mode:multiply" opacity="0.5">
<path d="M323.759 203.98C326.191 203.742 328.804 203.324 330.995 202.291C331.095 193.187 329.929 171.302 316 172.017C323.859 175.694 323.96 192.531 323.759 204V203.98Z" fill="#884CEC"/>
</g>
<path d="M295.503 257H239.497C239.219 257 239 256.78 239 256.5C239 256.22 239.219 256 239.497 256H295.503C295.781 256 296 256.22 296 256.5C296 256.78 295.781 257 295.503 257Z" fill="#6C6D64"/>
<path d="M281.503 279H225.497C225.219 279 225 278.78 225 278.5C225 278.22 225.219 278 225.497 278H281.503C281.781 278 282 278.22 282 278.5C282 278.78 281.781 279 281.503 279Z" fill="#6C6D64"/>
<path d="M284.503 276H228.497C228.219 276 228 275.78 228 275.5C228 275.22 228.219 275 228.497 275H284.503C284.781 275 285 275.22 285 275.5C285 275.78 284.781 276 284.503 276Z" fill="#6C6D64"/>
<path d="M287.503 271H231.497C231.219 271 231 270.78 231 270.5C231 270.22 231.219 270 231.497 270H287.503C287.781 270 288 270.22 288 270.5C288 270.78 287.781 271 287.503 271Z" fill="#6C6D64"/>
<path d="M289.506 267H254.494C254.217 267 254 266.78 254 266.5C254 266.22 254.217 266 254.494 266H289.506C289.783 266 290 266.22 290 266.5C290 266.78 289.783 267 289.506 267Z" fill="#6C6D64"/>
<path d="M293.501 262H259.499C259.22 262 259 261.78 259 261.5C259 261.22 259.22 261 259.499 261H293.501C293.78 261 294 261.22 294 261.5C294 261.78 293.78 262 293.501 262Z" fill="#6C6D64"/>
<path d="M296.506 252H270.494C270.217 252 270 251.78 270 251.5C270 251.22 270.217 251 270.494 251H296.506C296.783 251 297 251.22 297 251.5C297 251.78 296.783 252 296.506 252Z" fill="#6C6D64"/>
<path d="M299.5 248H246.5C246.22 248 246 247.78 246 247.5C246 247.22 246.22 247 246.5 247H299.5C299.78 247 300 247.22 300 247.5C300 247.78 299.78 248 299.5 248Z" fill="#6C6D64"/>
</g>
<path d="M432.614 90.3152L432.824 89.5847C433.118 88.5595 433.482 87.6791 433.915 86.9435C434.382 86.1896 434.927 85.5969 435.55 85.1656C436.181 84.7086 436.703 84.387 437.117 84.2008C437.539 83.9889 438.12 83.7535 438.86 83.4945C439.509 83.2646 439.994 83.0712 440.317 82.9141C440.665 82.7644 441.013 82.5177 441.362 82.1739C441.743 81.8118 442.004 81.3872 442.144 80.9003C442.372 80.1057 442.3 79.3914 441.927 78.7571C441.554 78.1229 440.983 77.6954 440.215 77.4745C439.856 77.3714 439.478 77.3324 439.083 77.3575C438.713 77.39 438.367 77.4847 438.044 77.6418C437.721 77.7988 437.419 78.031 437.136 78.3383C436.88 78.6529 436.689 79.0281 436.563 79.4638L429.874 77.5423C430.669 74.7742 432.197 72.8826 434.459 71.8675C436.728 70.8268 439.233 70.7003 441.976 71.4881C444.744 72.2832 446.797 73.733 448.134 75.8374C449.505 77.9236 449.819 80.261 449.075 82.8496C448.832 83.6954 448.509 84.4349 448.105 85.068C447.701 85.7011 447.187 86.2334 446.564 86.6647C445.974 87.0778 445.468 87.3902 445.046 87.6021C444.658 87.7957 444.086 88.0476 443.331 88.3579C442.767 88.5842 442.34 88.7667 442.05 88.9055C441.76 89.0443 441.41 89.2489 441 89.5194C440.596 89.7643 440.279 90.0477 440.048 90.3697C439.817 90.6917 439.638 91.0706 439.513 91.5063L439.304 92.2367L432.614 90.3152ZM429.998 98.8443L431.908 92.1933L438.828 94.1811L436.918 100.832L429.998 98.8443Z" fill="white"/>
<path d="M515.571 141.554L516.109 141.017C516.863 140.263 517.608 139.669 518.343 139.235C519.116 138.801 519.88 138.547 520.634 138.471C521.407 138.377 522.02 138.349 522.473 138.387C522.944 138.406 523.566 138.481 524.339 138.613C525.018 138.726 525.537 138.792 525.895 138.811C526.272 138.849 526.696 138.801 527.168 138.669C527.677 138.537 528.111 138.292 528.469 137.934C529.053 137.35 529.336 136.69 529.317 135.954C529.299 135.219 529.006 134.568 528.441 134.003C528.177 133.739 527.866 133.522 527.507 133.352C527.168 133.201 526.819 133.116 526.461 133.097C526.102 133.079 525.725 133.135 525.329 133.267C524.952 133.418 524.603 133.654 524.283 133.974L519.361 129.053C521.398 127.016 523.651 126.102 526.121 126.309C528.61 126.498 530.864 127.601 532.881 129.619C534.918 131.655 536.011 133.918 536.162 136.407C536.351 138.896 535.493 141.093 533.588 142.997C532.966 143.619 532.325 144.109 531.665 144.468C531.005 144.826 530.298 145.043 529.544 145.118C528.827 145.194 528.233 145.222 527.762 145.203C527.328 145.184 526.706 145.128 525.895 145.033C525.292 144.958 524.83 144.911 524.509 144.892C524.189 144.873 523.783 144.883 523.293 144.92C522.821 144.939 522.407 145.033 522.048 145.203C521.69 145.373 521.351 145.618 521.03 145.939L520.493 146.476L515.571 141.554ZM509.151 147.749L514.044 142.856L519.135 147.947L514.242 152.84L509.151 147.749Z" fill="white"/>
<path d="M158.741 53.9438L158.361 53.2856C157.827 52.3618 157.446 51.4887 157.218 50.6661C156.999 49.8071 156.951 49.0035 157.073 48.2555C157.182 47.4843 157.313 46.885 157.467 46.4577C157.607 46.0072 157.841 45.4257 158.169 44.7131C158.454 44.0867 158.652 43.6029 158.763 43.2617C158.897 42.9072 158.961 42.4852 158.955 41.9957C158.96 41.4697 158.835 40.9874 158.582 40.5486C158.169 39.8327 157.604 39.3887 156.889 39.2165C156.174 39.0444 155.47 39.1584 154.777 39.5584C154.454 39.745 154.164 39.9894 153.907 40.2916C153.673 40.5804 153.501 40.8954 153.39 41.2365C153.279 41.5777 153.236 41.9566 153.261 42.3733C153.31 42.7766 153.447 43.1746 153.674 43.5672L147.646 47.0472C146.206 44.553 145.906 42.1398 146.746 39.8075C147.572 37.4521 149.221 35.561 151.692 34.1344C154.186 32.6944 156.654 32.2236 159.098 32.7221C161.551 33.1842 163.451 34.5815 164.797 36.9139C165.237 37.676 165.545 38.4222 165.72 39.1524C165.895 39.8826 165.922 40.6217 165.799 41.3698C165.687 42.0815 165.56 42.6625 165.42 43.113C165.29 43.527 165.074 44.1134 164.773 44.8722C164.544 45.4355 164.379 45.8696 164.278 46.1743C164.177 46.4791 164.081 46.8731 163.99 47.3564C163.887 47.8166 163.87 48.2417 163.941 48.6317C164.013 49.0217 164.162 49.413 164.388 49.8056L164.768 50.4638L158.741 53.9438ZM163.062 61.7487L159.602 55.7558L165.838 52.1558L169.298 58.1487L163.062 61.7487Z" fill="white"/>
<path d="M111.944 202.259L111.286 202.639C110.362 203.173 109.489 203.554 108.666 203.782C107.807 204.001 107.004 204.049 106.255 203.927C105.484 203.818 104.885 203.687 104.458 203.533C104.007 203.393 103.426 203.159 102.713 202.831C102.087 202.546 101.603 202.348 101.262 202.237C100.907 202.103 100.485 202.039 99.9957 202.045C99.4697 202.04 98.9874 202.165 98.5486 202.418C97.8327 202.831 97.3887 203.396 97.2165 204.111C97.0444 204.826 97.1584 205.53 97.5584 206.223C97.745 206.546 97.9894 206.836 98.2916 207.093C98.5804 207.327 98.8954 207.499 99.2365 207.61C99.5777 207.721 99.9566 207.764 100.373 207.739C100.777 207.69 101.175 207.553 101.567 207.326L105.047 213.354C102.553 214.794 100.14 215.094 97.8075 214.254C95.4521 213.428 93.561 211.779 92.1344 209.308C90.6944 206.814 90.2236 204.346 90.7221 201.902C91.1842 199.449 92.5814 197.549 94.9139 196.203C95.676 195.763 96.4222 195.455 97.1524 195.28C97.8826 195.105 98.6217 195.078 99.3698 195.201C100.081 195.313 100.663 195.44 101.113 195.58C101.527 195.71 102.113 195.926 102.872 196.227C103.436 196.456 103.87 196.621 104.174 196.722C104.479 196.823 104.873 196.919 105.356 197.01C105.817 197.113 106.242 197.13 106.632 197.059C107.022 196.987 107.413 196.838 107.806 196.612L108.464 196.232L111.944 202.259ZM119.749 197.938L113.756 201.398L110.156 195.162L116.149 191.702L119.749 197.938Z" fill="white"/>
<path d="M79.1038 109.339L78.4456 108.959C77.5218 108.426 76.7553 107.86 76.1461 107.262C75.5271 106.628 75.0835 105.956 74.8155 105.247C74.5243 104.524 74.3384 103.94 74.2577 103.493C74.1539 103.033 74.0657 102.412 73.9931 101.631C73.9267 100.946 73.8562 100.428 73.7817 100.077C73.7205 99.7033 73.5652 99.3057 73.3157 98.8845C73.0564 98.4269 72.7074 98.0715 72.2686 97.8181C71.5527 97.4048 70.842 97.3024 70.1365 97.511C69.4311 97.7195 68.8784 98.1702 68.4784 98.863C68.2917 99.1863 68.1628 99.543 68.0916 99.9329C68.0337 100.3 68.042 100.659 68.1165 101.01C68.191 101.361 68.3433 101.71 68.5733 102.059C68.8166 102.384 69.1346 102.66 69.5272 102.886L66.0472 108.914C63.553 107.474 62.0864 105.534 61.6475 103.094C61.1854 100.641 61.6677 98.1794 63.0944 95.7084C64.5344 93.2142 66.4369 91.5722 68.8021 90.7823C71.1575 89.9559 73.5014 90.2161 75.8339 91.5627C76.596 92.0027 77.2355 92.4951 77.7524 93.0399C78.2693 93.5846 78.6617 94.2115 78.9298 94.9205C79.1881 95.5931 79.3692 96.1596 79.473 96.6198C79.567 97.0436 79.6734 97.6593 79.7922 98.4668C79.8755 99.0692 79.9496 99.5276 80.0143 99.8422C80.0791 100.157 80.1931 100.546 80.3564 101.01C80.4966 101.46 80.6951 101.836 80.9517 102.139C81.2084 102.441 81.533 102.705 81.9256 102.932L82.5838 103.312L79.1038 109.339ZM86.7487 113.938L80.7558 110.478L84.3558 104.242L90.3487 107.702L86.7487 113.938Z" fill="white"/>
<path d="M478.056 216.741L478.714 216.361C479.638 215.827 480.511 215.446 481.334 215.218C482.193 214.999 482.996 214.951 483.745 215.073C484.516 215.182 485.115 215.313 485.542 215.467C485.993 215.607 486.574 215.841 487.287 216.169C487.913 216.454 488.397 216.652 488.738 216.763C489.093 216.897 489.515 216.961 490.004 216.955C490.53 216.96 491.013 216.835 491.451 216.582C492.167 216.169 492.611 215.604 492.783 214.889C492.956 214.174 492.842 213.47 492.442 212.777C492.255 212.454 492.011 212.164 491.708 211.907C491.42 211.673 491.105 211.501 490.763 211.39C490.422 211.279 490.043 211.236 489.627 211.261C489.223 211.31 488.825 211.447 488.433 211.674L484.953 205.646C487.447 204.206 489.86 203.906 492.193 204.746C494.548 205.572 496.439 207.221 497.866 209.692C499.306 212.186 499.776 214.654 499.278 217.098C498.816 219.551 497.419 221.451 495.086 222.797C494.324 223.237 493.578 223.545 492.848 223.72C492.117 223.895 491.378 223.922 490.63 223.799C489.919 223.687 489.337 223.56 488.887 223.42C488.473 223.29 487.887 223.074 487.128 222.773C486.564 222.544 486.13 222.379 485.826 222.278C485.521 222.177 485.127 222.081 484.644 221.99C484.183 221.887 483.758 221.87 483.368 221.941C482.978 222.013 482.587 222.162 482.194 222.388L481.536 222.768L478.056 216.741ZM470.251 221.062L476.244 217.602L479.844 223.838L473.851 227.298L470.251 221.062Z" fill="white"/>
</svg>
