<svg width="126" height="149" viewBox="0 0 126 149" fill="none" xmlns="http://www.w3.org/2000/svg">
<path d="M33.2149 51.0574H28.965H28.9583H28.9517H28.945H28.9384H28.9317H28.9251H28.9185H28.9118H28.9052H28.8986H28.892H28.8854H28.8787H28.8721H28.8655H28.8589H28.8523H28.8457H28.8391H28.8325H28.8259H28.8193H28.8127H28.8061H28.7995H28.7929H28.7864H28.7798H28.7732H28.7666H28.7601H28.7535H28.7469H28.7404H28.7338H28.7272H28.7207H28.7141H28.7076H28.701H28.6945H28.6879H28.6814H28.6748H28.6683H28.6618H28.6552H28.6487H28.6422H28.6356H28.6291H28.6226H28.6161H28.6096H28.603H28.5965H28.59H28.5835H28.577H28.5705H28.564H28.5575H28.551H28.5445H28.538H28.5315H28.525H28.5186H28.5121H28.5056H28.4991H28.4926H28.4862H28.4797H28.4732H28.4668H28.4603H28.4538H28.4474H28.4409H28.4345H28.428H28.4215H28.4151H28.4086H28.4022H28.3958H28.3893H28.3829H28.3764H28.37H28.3636H28.3571H28.3507H28.3443H28.3379H28.3314H28.325H28.3186H28.3122H28.3058H28.2994H28.293H28.2865H28.2801H28.2737H28.2673H28.2609H28.2545H28.2481H28.2418H28.2354H28.229H28.2226H28.2162H28.2098H28.2034H28.1971H28.1907H28.1843H28.1779H28.1716H28.1652H28.1588H28.1525H28.1461H28.1397H28.1334H28.127H28.1207H28.1143H28.108H28.1016H28.0953H28.0889H28.0826H28.0762H28.0699H28.0636H28.0572H28.0509H28.0446H28.0382H28.0319H28.0256H28.0192H28.0129H28.0066H28.0003H27.994H27.9876H27.9813H27.975H27.9687H27.9624H27.9561H27.9498H27.9435H27.9372H27.9309H27.9246H27.9183H27.912H27.9057H27.8994H27.8931H27.8868H27.8806H27.8743H27.868H27.8617H27.8554H27.8492H27.8429H27.8366H27.8303H27.8241H27.8178H27.8115H27.8053H27.799H27.7927H27.7865H27.7802H27.774H27.7677H27.7615H27.7552H27.749H27.7427H27.7365H27.7302H27.724H27.7177H27.7115H27.7053H27.699H27.6928H27.6866H27.6803H27.6741H27.6679H27.6616H27.6554H27.6492H27.643H27.6367H27.6305H27.6243H27.6181H27.6119H27.6057H27.5995H27.5932H27.587H27.5808H27.5746H27.5684H27.5622H27.556H27.5498H27.5436H27.5374H27.5312H27.525H27.5188H27.5126H27.5065H27.5003H27.4941H27.4879H27.4817H27.4755H27.4693H27.4632H27.457H27.4508H27.4446H27.4385H27.4323H27.4261H27.42H27.4138H27.4076H27.4014H27.3953H27.3891H27.383H27.3768H27.3706H27.3645H27.3583H27.3522H27.346H27.3399H27.3337H27.3276H27.3214H27.3153H27.3091H27.303H27.2968H27.2907H27.2846H27.2784H27.2723H27.2661H27.26H27.2539H27.2477H27.2416H27.2355H27.2293H27.2232H27.2171H27.211H27.2048H27.1987H27.1926H27.1865H27.1803H27.1742H27.1681H27.162H27.1559H27.1498H27.1437H27.1375H27.1314H27.1253H27.1192H27.1131H27.107H27.1009H27.0948H27.0887H27.0826H27.0765H27.0704H27.0643H27.0582H27.0521H27.046H27.0399H27.0338H27.0277H27.0216H27.0155H27.0094H27.0034H26.9973H26.9912H26.9851H26.979H26.9729H26.9668H26.9608H26.9547H26.9486H26.9425H26.9365H26.9304H26.9243H26.9182H26.9122H26.9061H26.9H26.8939H26.8879H26.8818H26.8757H26.8697H26.8636H26.8575H26.8515H26.8454H26.8393H26.8333H26.8272H26.8212H26.8151H26.809H26.803H26.7969H26.7909H26.7848H26.7788H26.7727H26.7667H26.7606H26.7546H26.7485H26.7425H26.7364H26.7304H26.7243H26.7183H26.7122H26.7062H26.7001H26.6941H26.6881H26.682H26.676H26.6699H26.6639H26.6579H26.6518H26.6458H26.6398H26.6337H26.6277H26.6217H26.6156H26.6096H26.6036H26.5975H26.5915H26.5855H26.5794H26.5734H26.5674H26.5614H26.5553H26.5493H26.5433H26.5373H26.5312H26.5252H26.5192H26.5132H26.5071H26.5011H26.4951H26.4891H26.4831H26.477H26.471H26.465H26.459H26.453H26.447H26.441H26.4349H26.4289H26.4229H26.4169H26.4109H26.4049H26.3989H26.3929H26.3868H26.3808H26.3748H26.3688H26.3628H26.3568H26.3508H26.3448H26.3388H26.3328H26.3268H26.3208H26.3148H26.3088H26.3028H26.2968H26.2908H26.2848H26.2787H26.2727H26.2667H26.2607H26.2547H26.2487H26.2428H26.2368H26.2308H26.2248H26.2188H26.2128H26.2068H26.2008H26.1948H26.1888H26.1828H26.1768H26.1708H26.1648H26.1588H26.1528H26.1468H26.1408H26.1348H26.1288H26.1228H26.1169H26.1109H26.1049H26.0989H26.0929H26.0869H26.0809H26.0749H26.0689H26.0629H26.0569H26.051H26.045H26.039H26.033H26.027H26.021H26.015H26.009H26.003H25.9971H25.9911H25.9851H25.9791H25.9731H25.9671H25.9611H25.9552H25.9492H25.9432H25.9372H25.9312H25.9252H25.9192H25.9133H25.9073H25.9013H25.8953H25.8893H25.8833H25.8773H25.8714H25.8654H25.8594H25.8534H25.8474H25.8414H25.8355H25.8295H25.8235H25.8175H25.8115H25.8055H25.7995H25.7936H25.7876C21.0309 51.0574 17.2504 54.7259 16.9384 59.4094L16.9377 59.4191L16.9371 59.4288C16.8236 61.3603 16.7135 63.1112 16.496 64.9611L16.488 65.029L16.4838 65.0972C16.4516 65.612 16.3205 65.9138 16.1751 66.1184C16.0232 66.3322 15.7462 66.5924 15.1977 66.8486L15.1904 66.852C14.8104 67.0309 14.4261 67.2092 14.0387 67.389C12.5401 68.0844 10.9944 68.8017 9.46879 69.6604L9.43825 69.6775L9.40819 69.6956C5.53647 72.0201 3.93346 76.6127 5.65613 80.8437L5.66816 80.8733L5.68094 80.9025C6.05635 81.7612 6.40829 82.6543 6.78013 83.5988L6.78834 83.6197C7.1464 84.5292 7.52359 85.4873 7.93243 86.4251C8.12991 86.9313 8.15065 87.2834 8.11724 87.5366C8.08349 87.7922 7.97388 88.1035 7.68132 88.4968L7.68 88.4985C6.55245 89.9653 5.39511 91.4708 4.23463 93.0965L4.21122 93.1293L4.18887 93.1628C1.4644 97.2521 2.07219 102.174 5.75733 105.4L5.77291 105.414L5.78873 105.427C6.20608 105.781 6.63513 106.153 7.07331 106.533C8.07152 107.399 9.11707 108.306 10.1796 109.125C10.637 109.487 10.8293 109.808 10.9232 110.085C11.0248 110.384 11.074 110.822 10.9565 111.488L10.9426 111.567L10.9338 111.646C10.8254 112.622 10.6892 113.578 10.5471 114.559L10.5174 114.764C10.3863 115.668 10.2512 116.6 10.1413 117.535L10.1387 117.556L10.1365 117.578C9.67042 122.242 12.5531 126.267 17.2401 127.205L17.2548 127.208L17.2697 127.21C18.1344 127.373 19.0055 127.563 19.9196 127.763L19.9377 127.767C20.8337 127.963 21.772 128.169 22.7166 128.346C23.2615 128.448 23.5511 128.62 23.7291 128.78C23.9107 128.944 24.1285 129.235 24.3091 129.813C24.607 130.767 24.9324 131.685 25.24 132.552L25.247 132.572C25.5615 133.459 25.8575 134.295 26.1247 135.15L26.1317 135.173L26.1392 135.195C26.8796 137.418 28.2983 139.249 30.2396 140.354C32.1841 141.46 34.4923 141.743 36.8248 141.148C38.463 140.761 40.0338 140.293 41.5717 139.836C41.9184 139.732 42.2635 139.63 42.6073 139.529L42.6275 139.523L42.6476 139.516C43.1765 139.351 43.5151 139.373 43.7449 139.434C43.9838 139.497 44.2914 139.652 44.6722 140.033L44.7106 140.071L44.7506 140.108C45.4296 140.731 46.1371 141.382 46.8467 142.035L46.8546 142.043C47.5609 142.693 48.2691 143.345 48.9493 143.969C50.7016 145.576 52.8176 146.5 55.0648 146.5C57.3121 146.5 59.4281 145.576 61.1804 143.969L61.1979 143.953C62.5488 142.714 63.944 141.434 65.344 140.033L65.3793 139.998L65.4132 139.961C65.8213 139.519 66.1496 139.361 66.3952 139.3C66.6502 139.236 67.0246 139.224 67.5956 139.403L67.6312 139.414C69.4246 139.975 71.3124 140.565 73.3292 141.04L73.3337 141.041C77.9171 142.111 82.2937 139.904 83.8688 135.333L83.873 135.321L83.877 135.309C84.0737 134.718 84.3039 134.06 84.5449 133.371C84.9366 132.251 85.3567 131.049 85.7072 129.927L85.7134 129.907L85.7194 129.887C85.8931 129.296 86.119 129.002 86.3172 128.831C86.5234 128.652 86.8681 128.462 87.5003 128.351L87.5283 128.346L87.5562 128.34C88.4465 128.162 89.3302 127.956 90.1692 127.76L90.1872 127.756C91.0426 127.556 91.8527 127.367 92.656 127.206C97.4511 126.273 100.322 122.266 99.8851 117.521C99.7605 115.461 99.4017 113.427 99.0713 111.554L99.0597 111.488L99.0502 111.434L99.0383 111.38C98.8897 110.711 98.9473 110.307 99.043 110.047C99.1373 109.791 99.3494 109.453 99.8924 109.055L99.9032 109.047L99.914 109.039C100.888 108.308 101.915 107.424 102.86 106.61C103.295 106.235 103.713 105.876 104.1 105.553L104.107 105.547L104.114 105.541C106.006 103.939 107.204 101.875 107.452 99.5724C107.699 97.2841 106.981 95.0303 105.543 93.0799L105.541 93.0773C104.434 91.527 103.298 89.9347 102.155 88.4448C101.893 88.0363 101.801 87.7416 101.775 87.5234C101.749 87.3098 101.767 87.0154 101.957 86.5702C101.958 86.5677 101.959 86.5653 101.96 86.5628L101.966 86.5496C102.746 84.7652 103.557 82.9098 104.258 81.0426C105.134 78.8994 105.251 76.6217 104.494 74.5354C103.733 72.4366 102.163 70.7336 100.031 69.6263C98.2744 68.6894 96.5261 67.873 94.8452 67.0881L94.8185 67.0757L94.7549 67.046L94.6898 67.0199C94.2246 66.8337 94.0143 66.6305 93.89 66.4538C93.7554 66.2627 93.6079 65.9379 93.527 65.3522C93.4682 64.4358 93.3832 63.5 93.3017 62.6033L93.3001 62.5855C93.2144 61.642 93.1327 60.7409 93.0785 59.8739C92.7711 54.9525 88.9829 51.2845 84.0017 51.2845H83.9282L83.8548 51.2888C82.933 51.3431 82.0051 51.3706 81.0345 51.3991L81.0172 51.3997C80.064 51.4277 79.0687 51.457 78.0674 51.5159C77.4967 51.5495 77.1955 51.4458 77.0008 51.3362C76.7819 51.213 76.4863 50.9611 76.119 50.3893C75.5969 49.5767 75.0765 48.7956 74.5691 48.034L74.5642 48.0267C74.0519 47.2577 73.5527 46.5083 73.0551 45.7338L73.0383 45.7076L73.0208 45.6819C71.6619 43.678 69.807 42.2371 67.5633 41.7126C65.329 41.1902 63.0253 41.6505 60.8963 42.8501C60.0104 43.3237 59.1604 43.8223 58.3584 44.2928L58.3391 44.3041C57.5329 44.777 56.7738 45.2219 55.998 45.6382C55.0581 46.0603 54.6091 45.9777 54.169 45.7208L54.1279 45.6968L54.0858 45.6743C53.2678 45.2378 52.4447 44.7712 51.5886 44.2858L51.5748 44.278C50.7464 43.8082 49.8866 43.3207 49.0215 42.8581C46.9237 41.6406 44.6174 41.1948 42.387 41.7114C40.1477 42.2301 38.2595 43.6549 36.8887 45.6719C35.8452 47.1806 34.8069 48.7968 33.7963 50.3697L33.7838 50.3893L34.8237 51.0574L33.7838 50.3893C33.5828 50.7021 33.3928 50.9116 33.2149 51.0574Z" fill="url(#paint0_linear_794_3675)" stroke="white" stroke-width="5"/>
<path d="M75.4248 6.82705L74.1408 9.051L69.8592 6.579L62.7432 18.9043L60.3737 17.5363L67.4897 5.211L63.2081 2.739L64.4921 0.515048L75.4248 6.82705ZM77.8494 25.7691C76.0732 26.2216 74.326 25.9519 72.6078 24.9599C70.8896 23.9679 69.7755 22.5856 69.2654 20.8131C68.7771 19.0347 69.021 17.3003 69.997 15.6098C70.637 14.5013 71.4734 13.6447 72.5061 13.0401C73.5526 12.4434 74.6771 12.1597 75.8797 12.1888C77.104 12.2121 78.2774 12.5478 79.3998 13.1958C80.5222 13.8438 81.3926 14.6881 82.0111 15.7288C82.6515 16.7637 82.968 17.8794 82.9607 19.0761C82.9673 20.2807 82.6505 21.4373 82.0105 22.5458C81.0345 24.2363 79.6475 25.3107 77.8494 25.7691ZM73.8798 22.7567C74.5865 23.1647 75.3049 23.3763 76.0352 23.3915C76.7734 23.3928 77.455 23.2043 78.0798 22.826C78.7265 22.4419 79.2539 21.8965 79.6619 21.1898C80.2779 20.1229 80.4395 19.043 80.1466 17.9502C79.8677 16.8654 79.1947 16.015 78.1278 15.399C77.0608 14.783 75.981 14.6214 74.8881 14.9142C73.8092 15.215 72.9617 15.8989 72.3457 16.9658C71.7297 18.0328 71.5612 19.1087 71.8401 20.1935C72.133 21.2863 72.8128 22.1407 73.8798 22.7567ZM93.819 21.881L96.0637 23.177L89.5837 34.4007L87.339 33.1047L89.655 29.0933C88.7329 28.9304 87.8492 28.6049 87.004 28.1169C85.6322 27.3249 84.7626 26.2871 84.3952 25.0034C84.0278 23.7198 84.2521 22.3713 85.0681 20.9579L86.8561 17.861L89.1217 19.169L87.3817 22.1828C86.9177 22.9864 86.7695 23.723 86.9372 24.3926C87.1188 25.0701 87.6114 25.6409 88.415 26.1049C89.2187 26.5689 90.064 26.8168 90.951 26.8485L93.819 21.881ZM99.9255 40.3715L99.3184 33.6471L97.9259 32.8431L95.1659 37.6235L92.8588 36.2915L99.3388 25.0678L101.646 26.3998L99.1379 30.7438L100.551 31.5598L106.115 28.9798L108.837 30.5518L101.926 33.739L102.773 42.0155L99.9255 40.3715ZM119.877 36.9254L121.664 37.9574L115.184 49.1811L113.314 48.1011L113.877 46.5973C112.164 47.068 110.497 46.8353 108.876 45.8993C107.199 44.9313 106.124 43.5621 105.649 41.7918C105.189 40.0294 105.443 38.3099 106.411 36.6333C107.387 34.9428 108.749 33.8633 110.497 33.3948C112.268 32.9204 113.991 33.1672 115.668 34.1352C117.317 35.0872 118.362 36.4295 118.803 38.162L119.877 36.9254ZM108.275 41.2289C108.581 42.3297 109.261 43.1842 110.314 43.7922C111.381 44.4082 112.454 44.5657 113.533 44.2649C114.634 43.9582 115.488 43.2784 116.096 42.2253C116.712 41.1583 116.874 40.0784 116.581 38.9856C116.302 37.9008 115.629 37.0504 114.562 36.4344C113.869 36.0344 113.147 35.8297 112.395 35.8204C111.657 35.8191 110.964 36.0105 110.317 36.3947C109.679 36.7649 109.159 37.2965 108.759 37.9893C108.151 39.0424 107.99 40.1222 108.275 41.2289Z" fill="#FFA001"/>
<path d="M62.4801 91.5559C64.9558 92.9852 66.845 94.7903 68.1477 96.9712C69.4718 99.1152 70.1257 101.439 70.1092 103.942C70.0928 106.445 69.4019 108.879 68.0366 111.244C65.9459 114.865 63.0277 117.146 59.2819 118.087C55.5731 119.05 51.8711 118.464 48.1761 116.331L32.9341 107.531L55.3341 68.7332L80.2202 83.1012L75.8042 90.7499L59.1765 81.1499L55.4965 87.5239L62.4801 91.5559ZM51.9036 108.211C53.3077 109.022 54.7091 109.24 56.108 108.865C57.5437 108.511 58.6563 107.651 59.4456 106.284C59.8296 105.619 60.0629 104.916 60.1456 104.175C60.2652 103.456 60.2392 102.776 60.0674 102.135C59.8956 101.494 59.5596 100.881 59.0595 100.297C58.6176 99.6966 58.0456 99.194 57.3436 98.7886L51.0805 95.1726L45.6405 104.595L51.9036 108.211Z" fill="white"/>
<defs>
<linearGradient id="paint0_linear_794_3675" x1="5" y1="144.389" x2="101.631" y2="41.2328" gradientUnits="userSpaceOnUse">
<stop stop-color="#FFA001"/>
<stop offset="1" stop-color="#FFB12C"/>
</linearGradient>
</defs>
</svg>
