<svg width="181" height="36" viewBox="0 0 181 36" fill="none" xmlns="http://www.w3.org/2000/svg">
<path d="M158.1 16.6C158.967 16.6 159.747 16.7867 160.44 17.16C161.147 17.5333 161.693 18.0533 162.08 18.72C162.48 19.3733 162.68 20.1 162.68 20.9C162.68 22.14 162.253 23.1733 161.4 24C160.547 24.8267 159.493 25.24 158.24 25.24C157 25.24 155.967 24.8533 155.14 24.08C154.313 23.2933 153.88 22.3067 153.84 21.12H155.46C155.487 21.6133 155.62 22.0533 155.86 22.44C156.113 22.8267 156.447 23.1267 156.86 23.34C157.273 23.5533 157.733 23.66 158.24 23.66C159.04 23.66 159.7 23.4 160.22 22.88C160.74 22.36 161 21.7 161 20.9C161 20.3667 160.873 19.8867 160.62 19.46C160.367 19.02 160.013 18.68 159.56 18.44C159.107 18.2 158.6 18.08 158.04 18.08H154.66L154.42 17.8L155.1 11.7H161.76V13.22H156.46L156.1 16.6H158.1ZM164.868 25V22.88H166.828V25H164.868ZM173.908 25.24C172.334 25.24 171.081 24.62 170.148 23.38C169.228 22.14 168.768 20.46 168.768 18.34C168.768 16.22 169.228 14.5467 170.148 13.32C171.068 12.08 172.321 11.46 173.908 11.46C175.494 11.46 176.748 12.08 177.668 13.32C178.588 14.5467 179.048 16.22 179.048 18.34C179.048 20.46 178.581 22.14 177.648 23.38C176.728 24.62 175.481 25.24 173.908 25.24ZM173.908 23.66C174.988 23.66 175.834 23.1933 176.448 22.26C177.074 21.3133 177.388 20.0067 177.388 18.34C177.388 16.6867 177.074 15.3933 176.448 14.46C175.834 13.5133 174.988 13.04 173.908 13.04C173.201 13.04 172.581 13.2533 172.048 13.68C171.528 14.0933 171.128 14.7 170.848 15.5C170.568 16.3 170.428 17.2467 170.428 18.34C170.428 20.0067 170.734 21.3133 171.348 22.26C171.974 23.1933 172.828 23.66 173.908 23.66Z" fill="#2C2E36"/>
<path d="M51.92 11H57.68V25H54.64V20.14H52.7L50.04 25H46.64L49.68 19.68C49.2533 19.4933 48.8667 19.26 48.52 18.98C48.1867 18.7 47.9067 18.3933 47.68 18.06C47.4533 17.7133 47.2733 17.3333 47.14 16.92C47.02 16.5067 46.96 16.08 46.96 15.64C46.96 14.32 47.4333 13.22 48.38 12.34C49.3267 11.4467 50.5067 11 51.92 11ZM52.1 17.48H54.64V13.82H52.1C51.5 13.82 51.0133 13.9867 50.64 14.32C50.2667 14.6533 50.08 15.0933 50.08 15.64C50.08 16 50.1667 16.32 50.34 16.6C50.5133 16.88 50.7533 17.1 51.06 17.26C51.3667 17.4067 51.7133 17.48 52.1 17.48ZM67.4041 14.2H70.3241V25H67.4041V20.86H63.4841V25H60.5641V14.2H63.4841V18.2H67.4041V14.2ZM82.9227 22.26H84.2427V27.48H81.6027V25H74.8427V27.48H72.1827V22.26H73.3027C73.716 21.9267 74.016 21.28 74.2027 20.32C74.4027 19.36 74.6427 17.32 74.9227 14.2H82.9227V22.26ZM77.4827 16.76C77.376 18.4 77.236 19.6267 77.0627 20.44C76.8893 21.2533 76.6427 21.86 76.3227 22.26H80.0627V16.76H77.4827ZM96.7667 19.56C96.7667 19.84 96.7467 20.1267 96.7067 20.42H88.5467C88.6667 21.1533 88.9534 21.72 89.4067 22.12C89.8734 22.5067 90.4667 22.7 91.1867 22.7C91.6801 22.7 92.1267 22.5933 92.5267 22.38C92.9267 22.1533 93.2401 21.8467 93.4667 21.46H96.5467C96.1467 22.6333 95.4667 23.5667 94.5067 24.26C93.5467 24.9533 92.4401 25.3 91.1867 25.3C89.5867 25.3 88.2534 24.7533 87.1867 23.66C86.1201 22.5667 85.5867 21.2133 85.5867 19.6C85.5867 18.96 85.6734 18.3467 85.8467 17.76C86.0334 17.1733 86.2934 16.6467 86.6267 16.18C86.9734 15.7133 87.3734 15.3133 87.8267 14.98C88.2801 14.6333 88.7934 14.3667 89.3667 14.18C89.9401 13.9933 90.5467 13.9 91.1867 13.9C92.2667 13.9 93.2334 14.1533 94.0867 14.66C94.9534 15.1667 95.6134 15.8533 96.0667 16.72C96.5334 17.5867 96.7667 18.5333 96.7667 19.56ZM91.1867 16.38C90.5334 16.38 89.9801 16.56 89.5267 16.92C89.0867 17.28 88.7867 17.78 88.6267 18.42H93.8467C93.7134 17.98 93.5201 17.6133 93.2667 17.32C93.0134 17.0133 92.7067 16.78 92.3467 16.62C92.0001 16.46 91.6134 16.38 91.1867 16.38ZM108.765 25H105.245L101.765 19.84V25H98.8453V14.2H101.765V19L105.045 14.2H108.365L104.705 19.36L108.765 25ZM114.608 25.3C113.541 25.3 112.568 25.0533 111.688 24.56C110.821 24.0533 110.134 23.36 109.628 22.48C109.134 21.6 108.888 20.6267 108.888 19.56C108.888 17.9467 109.434 16.6 110.528 15.52C111.621 14.44 112.988 13.9 114.628 13.9C116.028 13.9 117.228 14.3067 118.228 15.12C119.228 15.92 119.861 16.9867 120.128 18.32H117.228C116.988 17.8 116.634 17.3933 116.168 17.1C115.714 16.7933 115.194 16.64 114.608 16.64C113.821 16.64 113.161 16.92 112.628 17.48C112.108 18.04 111.848 18.74 111.848 19.58C111.848 20.42 112.114 21.1267 112.648 21.7C113.181 22.2733 113.834 22.56 114.608 22.56C115.194 22.56 115.714 22.4067 116.168 22.1C116.621 21.78 116.974 21.3267 117.228 20.74H120.168C119.901 22.1133 119.261 23.22 118.248 24.06C117.234 24.8867 116.021 25.3 114.608 25.3Z" fill="#2C2E36"/>
<path d="M35.9968 18.0314C35.9853 8.03294 27.965 0.00104783 17.9927 1.01855e-07C8.0979 -0.00104763 0.00629004 8.08114 3.65997e-06 17.9717C-0.00628272 27.9 8.08638 36.0115 17.9853 36C27.9482 35.9885 36.0094 27.9461 35.9979 18.0314H35.9968Z" fill="#010000"/>
<path d="M35.9968 18.0314C36.0084 27.9461 27.9471 35.9885 17.9843 36C8.08638 36.0115 -0.00628272 27.8989 3.65997e-06 17.9717C0.00629004 8.08114 8.0979 -0.00104763 17.9927 1.01855e-07C27.965 0.00104783 35.9853 8.03294 35.9979 18.0314H35.9968ZM9.82666 28.6826C11.1154 28.6826 12.2941 28.6701 13.4728 28.691C13.7766 28.6963 13.9495 28.5821 14.1056 28.3474C15.7411 25.8863 17.3714 23.422 19.0341 20.9797C19.273 20.6287 19.1431 20.5114 18.8853 20.3375C18.0513 19.7707 17.2069 19.2175 16.3959 18.6182C15.1659 17.7108 14.2973 16.5761 14.0574 14.9972C13.7305 12.8473 14.5697 11.239 16.5038 10.5328C17.5966 10.1347 18.7428 10.251 19.8733 10.2206C20.2338 10.2112 20.3092 10.3442 20.3029 10.6722C20.284 11.5271 20.2977 12.3821 20.2977 13.237C20.2977 18.1928 20.305 23.1496 20.2893 28.1053C20.2882 28.5601 20.3962 28.7057 20.8666 28.6826C21.7194 28.6407 22.5775 28.6439 23.4314 28.6826C23.906 28.7036 24.037 28.5705 24.036 28.0854C24.0192 21.82 24.0244 15.5556 24.0244 9.29022C24.0244 8.74959 24.0182 8.20791 24.0276 7.66728C24.0307 7.44307 23.9941 7.30687 23.7175 7.3163C21.2092 7.39907 18.6884 7.10989 16.1937 7.53632C14.7269 7.78777 13.3889 8.34831 12.2773 9.37613C10.1745 11.3218 9.66636 15.0475 11.1311 17.7999C11.876 19.1996 13.0097 20.2421 14.2701 21.1599C14.5509 21.3643 14.6535 21.5057 14.4094 21.8556C13.3544 23.3665 12.3391 24.9056 11.3123 26.4363C10.8325 27.1519 10.361 27.8738 9.82456 28.6837L9.82666 28.6826Z" fill="#FA3D19"/>
<path d="M9.8277 28.6816C10.3631 27.8717 10.8356 27.1498 11.3155 26.4342C12.3423 24.9035 13.3575 23.3654 14.4126 21.8535C14.6567 21.5036 14.554 21.3632 14.2732 21.1579C13.0128 20.24 11.8792 19.1975 11.1342 17.7978C9.6695 15.0454 10.1776 11.3197 12.2804 9.37404C13.391 8.34621 14.73 7.78568 16.1968 7.53422C18.6925 7.10675 21.2134 7.39697 23.7206 7.3142C23.9961 7.30477 24.0339 7.44098 24.0307 7.66519C24.0223 8.20582 24.0276 8.74749 24.0276 9.28812C24.0276 15.5535 24.0213 21.8179 24.0391 28.0833C24.0402 28.5674 23.9092 28.7015 23.4346 28.6805C22.5807 28.6418 21.7226 28.6397 20.8697 28.6805C20.3993 28.7036 20.2914 28.558 20.2924 28.1033C20.3081 23.1475 20.3019 18.1907 20.3008 13.2349C20.3008 12.38 20.2872 11.524 20.306 10.6701C20.3134 10.3432 20.2369 10.2091 19.8765 10.2185C18.7449 10.2489 17.5998 10.1326 16.507 10.5307C14.5729 11.2359 13.7336 12.8441 14.0605 14.9951C14.3005 16.5751 15.169 17.7087 16.3991 18.6161C17.21 19.2143 18.0545 19.7675 18.8885 20.3354C19.1452 20.5104 19.2761 20.6267 19.0372 20.9776C17.3745 23.4199 15.7442 25.8842 14.1087 28.3453C13.9526 28.58 13.7797 28.6942 13.4759 28.6889C12.2972 28.668 11.1175 28.6805 9.8298 28.6805L9.8277 28.6816Z" fill="#FDFCFA"/>
<path d="M146.062 20.1317C146 20.2022 145.954 20.2849 145.926 20.3746C145.898 20.4642 145.89 20.5587 145.902 20.6518L146.376 24.6519C146.402 24.8638 146.369 25.0785 146.283 25.2736C146.196 25.4686 146.059 25.6368 145.885 25.7605C145.683 25.9009 145.444 25.9767 145.198 25.9776C145.017 25.9774 144.839 25.9344 144.678 25.8519L141.297 24.1833C141.208 24.1426 141.11 24.1215 141.011 24.1215C140.913 24.1215 140.815 24.1426 140.725 24.1833L137.334 25.8748C137.143 25.9706 136.93 26.0128 136.718 25.9966C136.505 25.9805 136.301 25.9068 136.127 25.7833C135.953 25.6597 135.815 25.4915 135.729 25.2964C135.642 25.1014 135.61 24.8866 135.635 24.6747L136.11 20.6746C136.121 20.5816 136.113 20.4871 136.085 20.3974C136.058 20.3078 136.012 20.225 135.95 20.1546L133.301 17.1545C133.162 16.9988 133.067 16.8093 133.025 16.6051C132.982 16.4008 132.995 16.1891 133.06 15.991C133.126 15.793 133.242 15.6157 133.398 15.4768C133.554 15.338 133.743 15.2426 133.948 15.2002L137.683 14.4459C137.78 14.4286 137.873 14.3893 137.953 14.3309C138.034 14.2724 138.099 14.1965 138.146 14.1087L139.965 10.6343C140.066 10.4429 140.217 10.2826 140.403 10.1709C140.588 10.0591 140.801 10 141.017 10C141.234 10 141.446 10.0591 141.632 10.1709C141.817 10.2826 141.969 10.4429 142.07 10.6343L143.866 14.1087C143.911 14.1951 143.975 14.2703 144.053 14.3286C144.131 14.387 144.222 14.427 144.317 14.4459L148.052 15.2002C148.257 15.2426 148.446 15.338 148.602 15.4768C148.758 15.6157 148.874 15.793 148.94 15.991C149.005 16.1891 149.018 16.4008 148.975 16.6051C148.933 16.8093 148.838 16.9988 148.699 17.1545L146.062 20.1317Z" fill="#FFA001"/>
</svg>
