<svg width="178" height="36" viewBox="0 0 178 36" fill="none" xmlns="http://www.w3.org/2000/svg">
<path d="M162.22 20.72V22.2H160.82V25H159.22V22.2H152.4V21.8L157.08 11.7H158.8L154.64 20.72H159.24L159.5 16.62H160.82V20.72H162.22ZM164.141 25V22.88H166.101V25H164.141ZM171.481 11.46C172.867 11.46 174.001 11.8867 174.881 12.74C175.774 13.5933 176.221 14.68 176.221 16C176.221 17.3067 175.747 18.78 174.801 20.42L172.141 25.02H170.321C171.934 22.22 172.887 20.52 173.181 19.92C172.581 20.2133 171.941 20.36 171.261 20.36C169.994 20.36 168.927 19.94 168.061 19.1C167.194 18.26 166.761 17.2267 166.761 16C166.761 14.68 167.201 13.5933 168.081 12.74C168.974 11.8867 170.107 11.46 171.481 11.46ZM171.501 18.92C172.087 18.92 172.614 18.7933 173.081 18.54C173.547 18.2867 173.907 17.94 174.161 17.5C174.427 17.0467 174.561 16.5467 174.561 16C174.561 15.1467 174.267 14.44 173.681 13.88C173.107 13.32 172.381 13.04 171.501 13.04C170.607 13.04 169.867 13.32 169.281 13.88C168.707 14.4267 168.421 15.1333 168.421 16C168.421 16.8533 168.707 17.5533 169.281 18.1C169.867 18.6467 170.607 18.92 171.501 18.92Z" fill="#2C2E36"/>
<path d="M53.74 17.68H61.2C61.1867 19.8933 60.5133 21.72 59.18 23.16C57.8467 24.5867 56.1333 25.3 54.04 25.3C51.9733 25.3 50.2467 24.6133 48.86 23.24C47.4867 21.8533 46.8 20.1133 46.8 18.02C46.8 15.9133 47.48 14.1667 48.84 12.78C50.2 11.3933 51.9133 10.7 53.98 10.7C55.7267 10.7 57.2533 11.2 58.56 12.2C59.8667 13.1867 60.68 14.4667 61 16.04H57.88C57.68 15.5333 57.3933 15.1 57.02 14.74C56.6467 14.3667 56.2 14.08 55.68 13.88C55.1733 13.68 54.6267 13.58 54.04 13.58C52.8 13.58 51.7933 13.9933 51.02 14.82C50.2467 15.6467 49.86 16.7133 49.86 18.02C49.86 18.8733 50.0333 19.6333 50.38 20.3C50.7267 20.9667 51.2133 21.4867 51.84 21.86C52.48 22.2333 53.2133 22.42 54.04 22.42C54.64 22.42 55.2067 22.32 55.74 22.12C56.2733 21.92 56.7267 21.64 57.1 21.28C57.4867 20.9067 57.7667 20.4867 57.94 20.02H53.74V17.68ZM68.4775 25.3C67.3708 25.3 66.3708 25.0533 65.4775 24.56C64.5842 24.0667 63.8842 23.3867 63.3775 22.52C62.8842 21.64 62.6375 20.6667 62.6375 19.6C62.6375 17.96 63.1908 16.6 64.2975 15.52C65.4042 14.44 66.7975 13.9 68.4775 13.9C70.1442 13.9 71.5308 14.44 72.6375 15.52C73.7442 16.6 74.2975 17.96 74.2975 19.6C74.2975 21.2267 73.7375 22.5867 72.6175 23.68C71.5108 24.76 70.1308 25.3 68.4775 25.3ZM68.4775 22.56C69.3175 22.56 70.0042 22.2867 70.5375 21.74C71.0708 21.18 71.3375 20.4667 71.3375 19.6C71.3375 18.7333 71.0708 18.0267 70.5375 17.48C70.0042 16.92 69.3108 16.64 68.4575 16.64C67.6175 16.64 66.9308 16.92 66.3975 17.48C65.8642 18.0267 65.5975 18.7333 65.5975 19.6C65.5975 20.0267 65.6642 20.4267 65.7975 20.8C65.9442 21.1733 66.1442 21.4867 66.3975 21.74C66.6508 21.9933 66.9508 22.1933 67.2975 22.34C67.6575 22.4867 68.0508 22.56 68.4775 22.56ZM81.5439 25.3C80.4372 25.3 79.4372 25.0533 78.5439 24.56C77.6506 24.0667 76.9506 23.3867 76.4439 22.52C75.9506 21.64 75.7039 20.6667 75.7039 19.6C75.7039 17.96 76.2572 16.6 77.3639 15.52C78.4706 14.44 79.8639 13.9 81.5439 13.9C83.2106 13.9 84.5972 14.44 85.7039 15.52C86.8106 16.6 87.3639 17.96 87.3639 19.6C87.3639 21.2267 86.8039 22.5867 85.6839 23.68C84.5772 24.76 83.1972 25.3 81.5439 25.3ZM81.5439 22.56C82.3839 22.56 83.0706 22.2867 83.6039 21.74C84.1372 21.18 84.4039 20.4667 84.4039 19.6C84.4039 18.7333 84.1372 18.0267 83.6039 17.48C83.0706 16.92 82.3772 16.64 81.5239 16.64C80.6839 16.64 79.9972 16.92 79.4639 17.48C78.9306 18.0267 78.6639 18.7333 78.6639 19.6C78.6639 20.0267 78.7306 20.4267 78.8639 20.8C79.0106 21.1733 79.2106 21.4867 79.4639 21.74C79.7172 21.9933 80.0172 22.1933 80.3639 22.34C80.7239 22.4867 81.1172 22.56 81.5439 22.56ZM98.1903 14.2H100.09V23.74C100.09 24.86 99.8636 25.8267 99.4103 26.64C98.9703 27.4667 98.337 28.1 97.5103 28.54C96.6836 28.98 95.7036 29.2 94.5703 29.2C93.1036 29.2 91.877 28.8467 90.8903 28.14C89.917 27.4333 89.3103 26.4667 89.0703 25.24H91.9703C92.1303 25.6933 92.4503 26.0467 92.9303 26.3C93.4103 26.5667 93.937 26.7 94.5103 26.7C95.2836 26.7 95.9236 26.4667 96.4303 26C96.9503 25.5467 97.2103 24.9333 97.2103 24.16V23.76C96.317 24.4 95.2903 24.72 94.1303 24.72C93.1436 24.72 92.237 24.4867 91.4103 24.02C90.5836 23.54 89.937 22.8867 89.4703 22.06C89.0036 21.2333 88.7703 20.32 88.7703 19.32C88.7703 17.8133 89.2836 16.5333 90.3103 15.48C91.3503 14.4267 92.6236 13.9 94.1303 13.9C95.5303 13.9 96.7303 14.36 97.7303 15.28L98.1903 14.2ZM94.4703 22.12C95.2703 22.12 95.9303 21.86 96.4503 21.34C96.9703 20.8067 97.2303 20.1333 97.2303 19.32C97.2303 18.52 96.9703 17.86 96.4503 17.34C95.9436 16.8067 95.2836 16.54 94.4703 16.54C93.6836 16.54 93.0303 16.8067 92.5103 17.34C91.9903 17.86 91.7303 18.52 91.7303 19.32C91.7303 20.1333 91.9836 20.8067 92.4903 21.34C93.0103 21.86 93.6703 22.12 94.4703 22.12ZM102.888 25V10.3H105.808V25H102.888ZM119.091 19.56C119.091 19.84 119.071 20.1267 119.031 20.42H110.871C110.991 21.1533 111.278 21.72 111.731 22.12C112.198 22.5067 112.791 22.7 113.511 22.7C114.004 22.7 114.451 22.5933 114.851 22.38C115.251 22.1533 115.564 21.8467 115.791 21.46H118.871C118.471 22.6333 117.791 23.5667 116.831 24.26C115.871 24.9533 114.764 25.3 113.511 25.3C111.911 25.3 110.578 24.7533 109.511 23.66C108.444 22.5667 107.911 21.2133 107.911 19.6C107.911 18.96 107.998 18.3467 108.171 17.76C108.358 17.1733 108.618 16.6467 108.951 16.18C109.298 15.7133 109.698 15.3133 110.151 14.98C110.604 14.6333 111.118 14.3667 111.691 14.18C112.264 13.9933 112.871 13.9 113.511 13.9C114.591 13.9 115.558 14.1533 116.411 14.66C117.278 15.1667 117.938 15.8533 118.391 16.72C118.858 17.5867 119.091 18.5333 119.091 19.56ZM113.511 16.38C112.858 16.38 112.304 16.56 111.851 16.92C111.411 17.28 111.111 17.78 110.951 18.42H116.171C116.038 17.98 115.844 17.6133 115.591 17.32C115.338 17.0133 115.031 16.78 114.671 16.62C114.324 16.46 113.938 16.38 113.511 16.38Z" fill="#2C2E36"/>
<g clip-path="url(#clip0_1701_3408)">
<path d="M35.5722 18.3368C35.5722 16.8619 35.4525 15.7856 35.1935 14.6694H18.3516V21.3264H28.2374C28.0382 22.9808 26.9619 25.4722 24.5701 27.1463L24.5366 27.3692L29.8617 31.4945L30.2306 31.5313C33.6189 28.4021 35.5722 23.7979 35.5722 18.3368Z" fill="#4285F4"/>
<path d="M18.3529 35.8762C23.1962 35.8762 27.2621 34.2816 30.232 31.5312L24.5715 27.1462C23.0567 28.2026 21.0237 28.94 18.3529 28.94C13.6093 28.94 9.58322 25.8109 8.14803 21.4858L7.93767 21.5037L2.40054 25.7889L2.32812 25.9902C5.27793 31.85 11.3371 35.8762 18.3529 35.8762Z" fill="#34A853"/>
<path d="M8.14733 21.4862C7.76864 20.37 7.54948 19.1741 7.54948 17.9384C7.54948 16.7026 7.76864 15.5068 8.12741 14.3906L8.11738 14.1529L2.51086 9.79883L2.32742 9.88608C1.11167 12.3177 0.414062 15.0484 0.414062 17.9384C0.414062 20.8284 1.11167 23.5589 2.32742 25.9906L8.14733 21.4862Z" fill="#FBBC05"/>
<path d="M18.3529 6.93605C21.7213 6.93605 23.9934 8.39102 25.289 9.60692L30.3515 4.66392C27.2423 1.77389 23.1962 0 18.3529 0C11.3371 0 5.27793 4.02609 2.32812 9.88585L8.12811 14.3904C9.58322 10.0653 13.6093 6.93605 18.3529 6.93605Z" fill="#EB4335"/>
</g>
<path d="M145.062 20.1317C145 20.2022 144.954 20.2849 144.926 20.3746C144.898 20.4642 144.89 20.5587 144.902 20.6518L145.376 24.6519C145.402 24.8638 145.369 25.0785 145.283 25.2736C145.196 25.4686 145.059 25.6368 144.885 25.7605C144.683 25.9009 144.444 25.9767 144.198 25.9776C144.017 25.9774 143.839 25.9344 143.678 25.8519L140.297 24.1833C140.208 24.1426 140.11 24.1215 140.011 24.1215C139.913 24.1215 139.815 24.1426 139.725 24.1833L136.334 25.8748C136.143 25.9706 135.93 26.0128 135.718 25.9966C135.505 25.9805 135.301 25.9068 135.127 25.7833C134.953 25.6597 134.815 25.4915 134.729 25.2964C134.642 25.1014 134.61 24.8866 134.635 24.6747L135.11 20.6746C135.121 20.5816 135.113 20.4871 135.085 20.3974C135.058 20.3078 135.012 20.225 134.95 20.1546L132.301 17.1545C132.162 16.9988 132.067 16.8093 132.025 16.6051C131.982 16.4008 131.995 16.1891 132.06 15.991C132.126 15.793 132.242 15.6157 132.398 15.4768C132.554 15.338 132.743 15.2426 132.948 15.2002L136.683 14.4459C136.78 14.4286 136.873 14.3893 136.953 14.3309C137.034 14.2724 137.099 14.1965 137.146 14.1087L138.965 10.6343C139.066 10.4429 139.217 10.2826 139.403 10.1709C139.588 10.0591 139.801 10 140.017 10C140.234 10 140.446 10.0591 140.632 10.1709C140.817 10.2826 140.969 10.4429 141.07 10.6343L142.866 14.1087C142.911 14.1951 142.975 14.2703 143.053 14.3286C143.131 14.387 143.222 14.427 143.317 14.4459L147.052 15.2002C147.257 15.2426 147.446 15.338 147.602 15.4768C147.758 15.6157 147.874 15.793 147.94 15.991C148.005 16.1891 148.018 16.4008 147.975 16.6051C147.933 16.8093 147.838 16.9988 147.699 17.1545L145.062 20.1317Z" fill="#FFA001"/>
<defs>
<clipPath id="clip0_1701_3408">
<rect width="36" height="36" fill="white"/>
</clipPath>
</defs>
</svg>
