<svg width="196" height="36" viewBox="0 0 196 36" fill="none" xmlns="http://www.w3.org/2000/svg">
<path d="M57.24 25.28C55.6133 25.28 54.3 24.8533 53.3 24C52.3133 23.1333 51.82 21.9533 51.82 20.46H54.88C54.88 20.7933 54.94 21.0933 55.06 21.36C55.1933 21.6133 55.3667 21.82 55.58 21.98C55.8067 22.14 56.06 22.26 56.34 22.34C56.62 22.42 56.9133 22.46 57.22 22.46C57.8333 22.46 58.36 22.3133 58.8 22.02C59.2533 21.7267 59.48 21.3267 59.48 20.82C59.48 20.6067 59.4267 20.42 59.32 20.26C59.2133 20.0867 59.0867 19.9533 58.94 19.86C58.8067 19.7533 58.5933 19.6467 58.3 19.54C58.02 19.4333 57.78 19.3533 57.58 19.3C57.38 19.2467 57.08 19.1733 56.68 19.08C56.36 19 56.12 18.94 55.96 18.9C55.8 18.86 55.56 18.7933 55.24 18.7C54.9333 18.6067 54.6933 18.5267 54.52 18.46C54.36 18.38 54.1467 18.2733 53.88 18.14C53.6133 18.0067 53.4067 17.8733 53.26 17.74C53.1133 17.6067 52.9467 17.44 52.76 17.24C52.5867 17.04 52.4533 16.8333 52.36 16.62C52.2667 16.3933 52.1867 16.14 52.12 15.86C52.0533 15.5667 52.02 15.26 52.02 14.94C52.02 13.6067 52.4733 12.5733 53.38 11.84C54.2867 11.1067 55.5267 10.74 57.1 10.74C58.6867 10.74 59.92 11.14 60.8 11.94C61.6933 12.74 62.14 13.84 62.14 15.24H59.14C59.14 14.6667 58.9333 14.2333 58.52 13.94C58.12 13.6333 57.62 13.48 57.02 13.48C56.4867 13.48 56.02 13.5933 55.62 13.82C55.2333 14.0467 55.04 14.3733 55.04 14.8C55.04 15 55.0867 15.18 55.18 15.34C55.2867 15.4867 55.4067 15.6133 55.54 15.72C55.6733 15.8133 55.88 15.9133 56.16 16.02C56.44 16.1133 56.6733 16.1867 56.86 16.24C57.06 16.28 57.3533 16.3467 57.74 16.44C58.1667 16.5467 58.4867 16.6333 58.7 16.7C58.9133 16.7533 59.22 16.8533 59.62 17C60.02 17.1333 60.3267 17.2667 60.54 17.4C60.7667 17.5333 61.0267 17.7133 61.32 17.94C61.6133 18.1533 61.8333 18.3933 61.98 18.66C62.14 18.9133 62.2733 19.2267 62.38 19.6C62.5 19.96 62.56 20.3533 62.56 20.78C62.56 21.7533 62.3133 22.5867 61.82 23.28C61.3267 23.9733 60.6867 24.48 59.9 24.8C59.1267 25.12 58.24 25.28 57.24 25.28ZM69.9261 22.4H71.2461V25H69.1861C68.3994 25 67.7128 24.8467 67.1261 24.54C66.5528 24.2333 66.1128 23.7933 65.8061 23.22C65.4994 22.6333 65.3461 21.94 65.3461 21.14V16.54H63.3861V15.92L67.6661 11.38H68.2061V14.2H71.1861V16.54H68.2661V20.76C68.2661 21.28 68.4061 21.6867 68.6861 21.98C68.9794 22.26 69.3928 22.4 69.9261 22.4ZM81.8398 23.98C80.9198 24.86 79.6932 25.3 78.1598 25.3C76.6398 25.3 75.4132 24.8533 74.4798 23.96C73.5598 23.0667 73.0998 21.8933 73.0998 20.44V14.2H76.0198V20.1C76.0198 20.8733 76.2065 21.48 76.5798 21.92C76.9665 22.3467 77.4932 22.56 78.1598 22.56C78.8398 22.56 79.3665 22.3467 79.7398 21.92C80.1265 21.48 80.3198 20.8733 80.3198 20.1V14.2H83.2398V20.44C83.2398 21.9067 82.7732 23.0867 81.8398 23.98ZM93.8361 10.3H96.7561V25H94.5961L94.2561 24.1C93.2961 24.9133 92.1694 25.32 90.8761 25.32C89.7961 25.32 88.8228 25.0733 87.9561 24.58C87.0894 24.0867 86.4094 23.4067 85.9161 22.54C85.4361 21.66 85.1961 20.68 85.1961 19.6C85.1961 18.52 85.4361 17.5467 85.9161 16.68C86.4094 15.8133 87.0894 15.1333 87.9561 14.64C88.8228 14.1467 89.7961 13.9 90.8761 13.9C91.9694 13.9 92.9561 14.1933 93.8361 14.78V10.3ZM88.9961 21.72C89.5561 22.28 90.2561 22.56 91.0961 22.56C91.9494 22.56 92.6561 22.28 93.2161 21.72C93.7761 21.1467 94.0561 20.44 94.0561 19.6C94.0561 18.7467 93.7761 18.04 93.2161 17.48C92.6561 16.92 91.9494 16.64 91.0961 16.64C90.2561 16.64 89.5561 16.92 88.9961 17.48C88.4361 18.04 88.1561 18.7467 88.1561 19.6C88.1561 20.4533 88.4361 21.16 88.9961 21.72ZM107.008 14.2H110.128L105.408 24.86C104.742 26.3533 104.062 27.4 103.368 28C102.675 28.6 101.735 28.9 100.548 28.9H99.3484V26.26H100.368C101.062 26.26 101.555 26.1333 101.848 25.88C102.142 25.6267 102.462 25.0867 102.808 24.26L102.848 24.18L98.2684 14.2H101.448L104.328 20.84L107.008 14.2ZM110.208 25V21.88H113.308V25H110.208ZM121.416 14.14H122.376V16.9H121.116C120.289 16.9 119.696 17.0933 119.336 17.48C118.989 17.8667 118.816 18.5 118.816 19.38V25H115.896V14.2H117.776L118.296 15.52C119.029 14.6 120.069 14.14 121.416 14.14ZM132.641 23.98C131.721 24.86 130.494 25.3 128.961 25.3C127.441 25.3 126.214 24.8533 125.281 23.96C124.361 23.0667 123.901 21.8933 123.901 20.44V14.2H126.821V20.1C126.821 20.8733 127.007 21.48 127.381 21.92C127.767 22.3467 128.294 22.56 128.961 22.56C129.641 22.56 130.167 22.3467 130.541 21.92C130.927 21.48 131.121 20.8733 131.121 20.1V14.2H134.041V20.44C134.041 21.9067 133.574 23.0867 132.641 23.98Z" fill="#2C2E36"/>
<path d="M173.1 16.6C173.967 16.6 174.747 16.7867 175.44 17.16C176.147 17.5333 176.693 18.0533 177.08 18.72C177.48 19.3733 177.68 20.1 177.68 20.9C177.68 22.14 177.253 23.1733 176.4 24C175.547 24.8267 174.493 25.24 173.24 25.24C172 25.24 170.967 24.8533 170.14 24.08C169.313 23.2933 168.88 22.3067 168.84 21.12H170.46C170.487 21.6133 170.62 22.0533 170.86 22.44C171.113 22.8267 171.447 23.1267 171.86 23.34C172.273 23.5533 172.733 23.66 173.24 23.66C174.04 23.66 174.7 23.4 175.22 22.88C175.74 22.36 176 21.7 176 20.9C176 20.3667 175.873 19.8867 175.62 19.46C175.367 19.02 175.013 18.68 174.56 18.44C174.107 18.2 173.6 18.08 173.04 18.08H169.66L169.42 17.8L170.1 11.7H176.76V13.22H171.46L171.1 16.6H173.1ZM179.868 25V22.88H181.828V25H179.868ZM188.908 25.24C187.334 25.24 186.081 24.62 185.148 23.38C184.228 22.14 183.768 20.46 183.768 18.34C183.768 16.22 184.228 14.5467 185.148 13.32C186.068 12.08 187.321 11.46 188.908 11.46C190.494 11.46 191.748 12.08 192.668 13.32C193.588 14.5467 194.048 16.22 194.048 18.34C194.048 20.46 193.581 22.14 192.648 23.38C191.728 24.62 190.481 25.24 188.908 25.24ZM188.908 23.66C189.988 23.66 190.834 23.1933 191.448 22.26C192.074 21.3133 192.388 20.0067 192.388 18.34C192.388 16.6867 192.074 15.3933 191.448 14.46C190.834 13.5133 189.988 13.04 188.908 13.04C188.201 13.04 187.581 13.2533 187.048 13.68C186.528 14.0933 186.128 14.7 185.848 15.5C185.568 16.3 185.428 17.2467 185.428 18.34C185.428 20.0067 185.734 21.3133 186.348 22.26C186.974 23.1933 187.828 23.66 188.908 23.66Z" fill="#2C2E36"/>
<path d="M28.1875 25.7143C16.7981 25.7143 15.0897 25.7143 12.8125 25.7143C5.73628 25.7143 0 19.958 0 12.8571C0 5.75627 5.73628 0 12.8125 0C15.3295 0 22.1629 0 33.3125 0C34.7278 0 35.875 1.15123 35.875 2.57143C35.875 3.99163 34.7278 5.14286 33.3125 5.14286H12.8125C8.56682 5.14286 5.125 8.59667 5.125 12.8571C5.125 17.1176 8.56682 20.5714 12.8125 20.5714H28.1875C29.6028 20.5714 30.75 21.7227 30.75 23.1429C30.75 24.5631 29.6028 25.7143 28.1875 25.7143ZM7.6875 36C6.27223 36 5.125 34.8488 5.125 33.4286C5.125 32.0084 6.27223 30.8571 7.6875 30.8571H28.1875C32.4332 30.8571 35.875 27.4033 35.875 23.1429C35.875 18.8824 32.4332 15.4286 28.1875 15.4286H12.8125C11.3972 15.4286 10.25 14.2773 10.25 12.8571C10.25 11.4369 11.3972 10.2857 12.8125 10.2857C23.9621 10.2857 25.6705 10.2857 28.1875 10.2857C35.2637 10.2857 41 16.042 41 23.1429C41 30.2437 35.2637 36 28.1875 36C25.9103 36 19.0769 36 7.6875 36Z" fill="black"/>
<path d="M20.5 15.4286H25.625V28.2857L23.0625 25.7143L20.5 28.2857V15.4286Z" fill="#39C5F8"/>
<path d="M161.062 20.1317C161 20.2022 160.954 20.2849 160.926 20.3746C160.898 20.4642 160.89 20.5587 160.902 20.6518L161.376 24.6519C161.402 24.8638 161.369 25.0785 161.283 25.2736C161.196 25.4686 161.059 25.6368 160.885 25.7605C160.683 25.9009 160.444 25.9767 160.198 25.9776C160.017 25.9774 159.839 25.9344 159.678 25.8519L156.297 24.1833C156.208 24.1426 156.11 24.1215 156.011 24.1215C155.913 24.1215 155.815 24.1426 155.725 24.1833L152.334 25.8748C152.143 25.9706 151.93 26.0128 151.718 25.9966C151.505 25.9805 151.301 25.9068 151.127 25.7833C150.953 25.6597 150.815 25.4915 150.729 25.2964C150.642 25.1014 150.61 24.8866 150.635 24.6747L151.11 20.6746C151.121 20.5816 151.113 20.4871 151.085 20.3974C151.058 20.3078 151.012 20.225 150.95 20.1546L148.301 17.1545C148.162 16.9988 148.067 16.8093 148.025 16.6051C147.982 16.4008 147.995 16.1891 148.06 15.991C148.126 15.793 148.242 15.6157 148.398 15.4768C148.554 15.338 148.743 15.2426 148.948 15.2002L152.683 14.4459C152.78 14.4286 152.873 14.3893 152.953 14.3309C153.034 14.2724 153.099 14.1965 153.146 14.1087L154.965 10.6343C155.066 10.4429 155.217 10.2826 155.403 10.1709C155.588 10.0591 155.801 10 156.017 10C156.234 10 156.446 10.0591 156.632 10.1709C156.817 10.2826 156.969 10.4429 157.07 10.6343L158.866 14.1087C158.911 14.1951 158.975 14.2703 159.053 14.3286C159.131 14.387 159.222 14.427 159.317 14.4459L163.052 15.2002C163.257 15.2426 163.446 15.338 163.602 15.4768C163.758 15.6157 163.874 15.793 163.94 15.991C164.005 16.1891 164.018 16.4008 163.975 16.6051C163.933 16.8093 163.838 16.9988 163.699 17.1545L161.062 20.1317Z" fill="#FFA001"/>
</svg>
