<svg width="360" height="372" viewBox="0 0 360 372" fill="none" xmlns="http://www.w3.org/2000/svg">
<mask id="mask0_2652_136" style="mask-type:alpha" maskUnits="userSpaceOnUse" x="20" y="51" width="320" height="321">
<rect x="20" y="51" width="320" height="321" rx="20" fill="#D9D9D9"/>
</mask>
<g mask="url(#mask0_2652_136)">
<path d="M411.332 558.998C411.456 558.246 412.003 558.129 412.63 558.129C412.746 559.217 412.156 558.961 411.332 558.998Z" fill="#8A4FEC"/>
<path d="M341.253 140.842C330.927 169.543 319.952 198.974 302.829 224.36C297.316 231.318 289.594 236.072 281.266 238.97C264.574 245.476 245.417 252.923 236.87 269.876C229.454 288.005 231.08 308.332 229.862 327.512C229.746 348.452 238.438 367.486 247.692 385.783C266.054 422.786 238.759 460.292 218.895 490.279C200.095 498.186 227.718 453.334 197.98 410.476C183.717 390.296 154.059 368.677 128.499 377.431C112.988 385.944 113.557 406.322 110.224 421.494C107.439 417.566 104.493 413.754 101.627 409.877C97.5723 384.002 88.136 356.527 93.7511 329.936C98.5932 314.078 119.34 321.153 129.695 327.14C134.107 330.265 133.093 316.655 134.078 314.253C136.397 289.203 135.901 259.538 116.948 240.664C104.989 229.924 89.9154 223.55 77.5257 213.372C45.6364 187.672 33.7863 144.828 33.0352 105.226C43.7841 109.205 38.4242 95.9536 43.9154 101.05C59.3751 119.763 77.0371 137.03 94.67 153.801C93.1021 157.284 88.7705 159.525 88.1069 163.271C86.5755 164.337 88.0267 165.031 88.5736 166.045C96.3837 175.639 104.602 184.737 113.513 193.286C118.21 199.58 124.153 196.068 130.373 194.396C144.367 189.738 156.895 181.568 168.913 173.332C170.24 180.867 176.585 181.159 175.746 186.781C175.95 196.959 174.514 208.59 180.114 217.556C186.706 223.732 193.78 212.408 195.632 206.772L195.603 206.794C196.019 206.618 196.048 206.261 196.048 205.888L196.026 205.925C196.383 205.72 196.442 205.377 196.449 205.005L196.434 205.034C196.814 204.676 196.923 204.216 196.923 203.712L196.901 203.756C199.891 197.068 201.612 189.424 202.582 182.079L202.531 182.05C204.543 179.925 206.418 177.581 208.015 175.084C209.619 173.449 209.852 170.463 212.747 172.814C229.162 183.459 248.582 190.57 268.322 189.811C270.648 189.957 271.458 187.613 272.953 186.321C273.974 184.999 275.833 184.087 276.183 182.378C279.676 179.699 281.667 175.325 284.803 172.449L284.759 172.463C302.166 162.256 318.967 149.194 334.485 135.979C334.668 139.593 338.044 141.009 341.231 140.805L341.253 140.842ZM146.227 290.064C144.615 290.802 145.731 292.919 145.242 294.219C144.943 298.11 144.214 301.87 144.01 305.762C143.281 317.648 142.114 331.112 147.525 342.107C156.13 362.755 183.753 377.745 204.966 367.567C220.9 358.309 218.333 336.646 220.251 320.839C220.536 297.453 220.113 274.089 218.581 250.784C216.226 213.116 222.497 228.106 190.243 230.588C180.814 231.238 171.407 229.289 162.642 225.857C160.913 225.609 157.96 223.083 156.837 224.996C154.015 246.717 147.897 268.168 146.227 290.057V290.064Z" fill="#8A4FEC"/>
<path d="M41.6984 99.6333C39.2628 108.234 34.5592 107.708 29.4109 101.335C27.5149 98.3629 18.9974 92.8651 18.0275 92.3832C11.4572 87.7469 -0.436635 82.4024 -1.35547 70.8519C6.6588 75.5247 14.2574 82.5411 22.1404 87.9879C23.4676 88.8202 25.1084 90.7185 26.6835 90.3754C17.889 78.2772 6.91403 67.0479 -1.27525 54.7161C7.81828 53.9568 14.1845 60.1556 18.4213 67.5371C23.1613 74.4733 27.544 81.7672 31.8465 88.9005C29.7026 76.9995 24.9698 63.0615 22.0383 50.4741C22.1915 48.1158 34.3551 55.1907 33.5675 57.7389C36.0906 69.4135 36.1708 81.4168 37.0532 93.3032C36.9584 97.4795 40.1743 89.2437 41.2171 88.1193C44.1122 84.1036 46.8468 79.8397 50.668 76.6345C54.4454 73.1591 62.7878 74.8091 64.5088 79.6134C53.3516 80.7304 45.4248 89.0539 41.7057 99.6333H41.6984Z" fill="#8A4FEC"/>
<path d="M107.606 425.312C94.7569 423.334 85.1529 411.717 75.1479 404.087C70.7287 400.181 71.6111 401.094 75.5198 396.991C75.352 399.181 81.2734 395.319 84.8175 398.75C92.8536 405.438 104.74 415.142 107.599 425.305L107.606 425.312Z" fill="#8A4FEC"/>
<path d="M107.606 425.312C105.513 416.478 96.8794 410.316 90.9872 403.796C87.0421 400.16 82.1781 395.334 76.4172 397.838C73.3106 397.122 80.603 392.267 81.7333 391.42C85.5617 389.405 88.6391 394.815 91.0602 397.086C97.2514 404.19 103.041 411.63 108.598 419.23C110.706 421.275 110.909 424.502 107.606 425.312Z" fill="#8A4FEC"/>
<path d="M211.515 489.454C213.484 491.746 216.408 490.972 218.902 490.286C220.973 501.209 223.664 512.073 225.4 523.039C221.921 527.201 215.081 527.763 209.94 528.209C210.181 515.344 210.203 502.158 211.515 489.454Z" fill="#8A4FEC"/>
<path d="M209.932 528.208C215.073 527.756 221.913 527.201 225.392 523.039C228.958 531.582 218.566 535.006 211.989 536.291C207.759 537.386 210.428 530.596 209.932 528.216V528.208Z" fill="#8A4FEC"/>
<path d="M110.669 86.6372C112.704 75.9409 122.498 53.5918 135.252 54.8987C142.646 62.1707 147.364 71.7865 152.651 80.6137C154.927 85.2499 158.923 89.8935 159.936 94.8292C154.329 95.8659 149.611 99.867 144.871 102.678C141.472 95.6907 134.822 68.2016 125.859 69.545C116.226 74.9552 115.585 88.4187 114.163 98.2753C113.317 105.306 113.725 112.425 113.747 119.493C113.142 124.428 116.671 131.211 111.588 134.395C107.971 118.785 108.263 102.32 110.662 86.6372H110.669Z" fill="#8A4FEC"/>
<path d="M262.364 84.6223C266.113 97.5893 265.449 111.447 262.211 124.451C256.516 121.464 260.031 114.901 259.571 109.863C259.732 103.642 259.185 97.4652 257.96 91.354C255.626 80.665 251.12 68.3113 240.677 63.2297C230.446 59.0461 231.693 88.3678 230.366 94.4644C225.575 91.6315 220.032 90.456 214.425 90.0398C216.24 83.5782 221.513 48.7148 228.666 50.0948C245.628 52.8327 257.267 69.3408 262.364 84.6223Z" fill="#8A4FEC"/>
<path d="M293.072 390.266C280.763 396.297 267.177 400.335 253.519 401.583C266.951 380.395 270.415 347.299 246.657 332.076C252.031 326.468 258.164 321.628 263.487 315.962C265.719 313.969 269.555 317.371 272.078 318.108C298.031 331.535 306.403 364.427 293.51 389.858L293.517 389.836C293.371 389.982 293.225 390.12 293.072 390.266Z" fill="#8A4FEC"/>
<path d="M284.285 294.357C289.813 287.648 296.033 281.5 301.451 274.659C305.958 268.81 317.254 274.483 322.716 277.046C347.823 292.291 352.162 325.665 344.184 351.789C338.226 358.849 331.364 365.917 323.824 371.217C334.033 339.771 323.89 294.89 284.278 294.365L284.285 294.357Z" fill="#8A4FEC"/>
<path d="M284.285 294.357C308.904 294.27 326.062 315.48 327.12 339.004C318.391 345.334 309.253 352.219 299.132 355.994C295.908 337.559 282.804 320.722 264.697 315.093C270.648 307.93 277.758 301.191 284.292 294.357L284.285 294.357Z" fill="#8A4FEC"/>
<path d="M347.597 318.736C344.898 296.285 328.935 271.738 304.12 272.198C309.356 264.444 316.254 257.369 322.365 250.155C345.737 247.856 364.077 268.657 369.721 289.633C363.771 299.928 356.741 311.208 347.597 318.736Z" fill="#8A4FEC"/>
<path d="M369.721 289.633C364.077 268.657 345.737 247.848 322.365 250.155C327.586 243.336 332.954 236.159 339.561 230.603C358.47 232.735 376.293 243.68 383.935 261.568C384.795 264.634 386.699 267.292 385.211 270.563C382.462 282.887 378.867 295.351 373.135 306.58C371.451 301.206 372.288 294.912 369.721 289.633Z" fill="#8A4FEC"/>
<path d="M341.253 140.842C335.353 141.163 333.683 137.366 335.236 132.197C335.448 122.391 333.245 111.68 324.721 105.744C324.042 105.014 322.65 104.408 322.817 103.255C339.502 98.2095 339.138 117.587 341.267 128.605C347.108 120.478 350.842 110.147 356.938 101.824C359.687 95.1941 366.426 94.4713 372.799 94.9386C375.103 95.3694 369.452 99.8231 369.277 101.247C362.298 109.271 355.02 117.419 348.924 126.078C348.734 126.137 348.486 126.166 348.771 126.429C348.836 126.327 348.909 126.232 348.975 126.129C360.832 119.858 378.64 100.655 392.466 109.468C380.653 117.076 365.149 123.443 351.936 130.182C352.607 131.116 354.488 130.298 355.567 130.262C365.623 128.159 375.665 125.604 385.779 123.932L385.757 123.903C377.32 140.104 354.444 131.313 341.26 140.827L341.253 140.842Z" fill="#8A4FEC"/>
<path d="M383.935 261.568C376.293 243.68 358.478 232.728 339.561 230.603C367.578 204.925 392.27 222.178 386.946 257.961C385.32 258.377 385.276 260.648 383.935 261.575L383.935 261.568Z" fill="#8A4FEC"/>
<path d="M299.132 355.987C309.254 352.22 318.391 345.335 327.12 338.997C327.988 349.832 326.981 360.923 323.838 371.174C315.015 378.657 304.397 386.061 293.502 389.85C298.067 379.139 300.999 367.676 299.132 355.98V355.987Z" fill="#8A4FEC"/>
<path d="M263.998 365.946C264.333 378.46 259.863 390.989 253.519 401.583C253.293 401.642 253.074 401.707 252.855 401.766C248.844 381.527 234.42 364.887 231.613 344.246C236.914 340.567 241.486 335.806 246.657 332.083C247.583 333.39 249.129 333.966 250.223 335.113C246.015 340.15 244.855 347.824 244.491 354.344C244.046 364.887 256.093 365.975 263.99 365.953L263.998 365.946Z" fill="#8A4FEC"/>
<path d="M369.721 289.633C372.288 294.912 371.458 301.206 373.135 306.58C366.222 323.051 356.136 338.559 344.184 351.782C346.766 340.969 348.997 329.907 347.597 318.736C356.741 311.208 363.771 299.928 369.721 289.633Z" fill="#8A4FEC"/>
<path d="M383.935 261.568C385.284 260.64 385.32 258.377 386.946 257.953C386.713 260.954 386.676 264.108 385.765 266.956C385.707 265.035 384.074 263.532 383.935 261.568Z" fill="#8A4FEC"/>
<path d="M385.78 123.938C385.838 123.888 385.896 123.829 385.954 123.778C385.976 123.946 385.743 123.88 385.78 123.938Z" fill="#8A4FEC"/>
<path d="M323.408 371.656C323.467 371.415 323.598 371.247 323.846 371.181C323.795 371.429 323.635 371.575 323.408 371.656Z" fill="#8A4FEC"/>
<path d="M293.072 390.266C293.218 390.12 293.364 389.982 293.517 389.836C293.532 390.142 293.313 390.215 293.072 390.266Z" fill="#8A4FEC"/>
<path d="M218.056 240.65C219.711 267.343 220.689 294.065 220.251 320.846C218.34 336.646 220.9 358.324 204.974 367.567C183.746 377.752 156.137 362.741 147.525 342.107C148.969 325.161 149.304 306.915 146.227 290.064C147.569 271.672 152.243 253.587 155.291 235.407C174.747 245.3 197.251 244.534 218.056 240.65Z" fill="#8A4FEC"/>
<path d="M266.28 129.167C275.636 138.25 284.62 147.909 293.014 157.839C274.302 151.26 260.366 134.431 242.325 125.874C232.291 120.566 219.843 116.302 208.773 120.8C196.989 126.502 193.824 142.601 201.393 153.042C218.268 175.471 249.172 183.86 276.205 182.407C275.418 184.839 272.588 186.102 271.261 188.285C266.944 191.811 259.652 189.205 254.379 189.11C238.62 187.226 224.255 179.669 210.829 172.069C210.29 171.375 209.648 170.857 209.24 171.777C207.971 174.121 206.476 176.296 204.492 178.092C195.785 186.839 179.728 187.234 172.217 176.8C171.356 176.121 169.912 172.317 168.928 173.339C153.84 183.634 137.731 194.126 119.296 197.134C114.833 196.243 106.79 186.43 103.297 182.751C130.344 184.247 163.079 175.537 177.445 150.713C180.902 143.945 179.91 135.847 176.293 129.313C166.908 114.061 146.351 119.923 133.837 127.743C117.663 138.352 105.448 154.385 88.1214 163.278C91.031 156.722 97.4702 151.574 101.795 145.668C105.047 141.893 108.328 138.147 111.595 134.387C112.944 133.314 114.578 132.014 114.345 130.087C113.944 113.009 110.042 80.2266 125.867 69.5376C134.982 68.3621 141.377 95.5519 144.878 102.671C135.106 110.848 125.32 119.369 117.05 129.006C116.984 129.101 116.839 129.24 116.86 129.276C117.021 129.525 117.138 129.32 117.254 129.211C121.301 127.342 125.115 124.969 129.104 122.961C153.439 109.6 166.39 107.679 187.99 127.349C189.04 128.386 189.93 126.582 190.703 125.983C197.616 119.186 205.426 112.637 214.687 109.402C233.771 105.912 250.427 120.836 266.295 129.16L266.28 129.167ZM189.536 159.27C172.486 159.409 167.316 170.558 186.597 175.055C202.363 175.07 212.667 159.263 189.536 159.27Z" fill="#8A4FEC"/>
<path d="M276.205 182.415C249.18 183.875 218.275 175.471 201.393 153.049C193.809 142.616 196.996 126.509 208.773 120.807C219.85 116.309 232.291 120.573 242.325 125.874C260.366 134.431 274.302 151.26 293.014 157.839C293.977 158.861 292.19 160.182 291.833 161.205C289.762 165.111 286.444 168.484 284.774 172.492C281.784 175.15 279.669 179.823 276.198 182.407L276.205 182.415ZM228.214 148.625C230.3 148.062 238.015 149.355 238.307 147.23C239.598 141.849 236.965 137.476 235.631 132.562C231.948 122.34 217.67 120.573 210.902 128.765C209.801 130.291 207.293 133.307 208.788 134.913C202.735 141.929 209.663 161.139 213.848 152.976C218.552 151.457 223.153 148.807 228.214 148.617V148.625Z" fill="#8A4FEC"/>
<path d="M88.1216 163.286C110.677 152.071 124.729 126.867 150.106 120.887C174.295 113.279 189.201 140.776 172.304 158.445C155 176.939 128.04 184.35 103.297 182.758C101.496 180.794 84.8838 164.038 88.1216 163.286ZM141.1 141.345C140.75 154.042 142.369 143.616 165.362 153.049C168.556 161.73 178.196 143.39 170.277 134.022C171.101 133.708 170.62 132.723 170.386 132.146C167.017 124.845 157.69 120.946 150.427 125.078C146.278 127.225 143.682 130.759 142.296 135.176C141.538 136.724 139.759 139.951 141.108 141.345H141.1Z" fill="#8A4FEC"/>
<path d="M218.056 240.65C197.251 244.527 174.74 245.3 155.291 235.407C157.099 212.89 158.58 232.311 190.244 230.596C219.42 228.661 216.941 215.46 218.057 240.657L218.056 240.65Z" fill="#8A4FEC"/>
<path d="M176.126 202.004C175.608 195.951 175.418 189.796 175.921 183.86C184.497 188.737 194.582 187.577 202.597 182.115C201.685 189.49 199.811 197.083 196.916 203.793C196.486 203.866 196.427 204.632 196.457 205.07C196.172 205.114 196.004 205.618 196.048 205.954L196.07 205.917C195.669 206.093 195.596 206.436 195.625 206.823C194.962 206.961 194.546 208.057 193.977 208.56C190.426 201.631 183.206 198.207 176.957 204.245C176.169 203.698 176.84 202.603 176.14 202.004H176.126Z" fill="#8A4FEC"/>
<path d="M146.227 290.064C149.311 306.923 148.969 325.168 147.525 342.107C142.107 331.112 143.281 317.656 144.01 305.762C144.214 301.87 144.943 298.103 145.242 294.219C145.738 292.912 144.622 290.802 146.227 290.064Z" fill="#8A4FEC"/>
<path d="M202.596 182.108C195.595 186.642 186.742 188.876 178.867 185.182C174.448 183.298 168.767 177.654 169.387 173.04C172.661 177.516 176.059 182.006 181.645 183.649C182.382 183.773 183.074 184.036 183.228 184.795C184.394 185.306 185.481 185.97 186.859 185.97C192.204 186.014 197.214 184.59 201.56 181.451C202.086 181.108 202.188 181.393 202.596 182.108Z" fill="#8A4FEC"/>
<path d="M176.126 202.004C176.826 202.603 176.154 203.698 176.942 204.246C176.978 211.328 182.127 219.038 189.507 213.701C189.604 214.489 190.049 214.935 190.841 215.037C181.23 227.464 175.498 210.963 176.118 202.004L176.126 202.004Z" fill="#8A4FEC"/>
<path d="M202.545 182.079C201.758 180.159 199.65 182.977 198.425 183.335C194.436 185.423 186.378 187.789 183.017 184.204C193.124 186.642 201.226 181.327 208.037 175.114C206.44 177.603 204.565 179.954 202.553 182.079H202.545Z" fill="#8A4FEC"/>
<path d="M190.848 215.037C190.051 214.93 189.606 214.484 189.514 213.701C192.066 211.831 193.386 208.801 195.647 206.794C194.742 209.853 193.014 212.664 190.856 215.037H190.848Z" fill="#8A4FEC"/>
<path d="M208.029 175.114C207.774 175.114 207.526 175.114 207.271 175.114C208.284 174.091 209.152 169.718 210.822 172.084C209.064 171.96 209.312 174.405 208.022 175.121L208.029 175.114Z" fill="#8A4FEC"/>
<path d="M196.448 205.063C196.463 204.567 196.383 204.041 196.937 203.742C196.937 204.238 196.835 204.698 196.448 205.063Z" fill="#8A4FEC"/>
<path d="M195.617 206.823C195.595 206.436 195.661 206.093 196.062 205.918C196.062 206.29 196.033 206.655 195.617 206.823Z" fill="#8A4FEC"/>
<path d="M196.041 205.954C196.026 205.574 196.099 205.239 196.464 205.034C196.457 205.399 196.398 205.75 196.041 205.954Z" fill="#8A4FEC"/>
<path d="M196.908 203.793C196.894 203.42 196.96 203.085 197.317 202.873C197.31 203.238 197.244 203.574 196.908 203.793Z" fill="#8A4FEC"/>
<path d="M175.783 186.409C175.834 186.562 175.965 186.708 175.761 186.803C175.695 186.671 175.703 186.54 175.783 186.409Z" fill="#8A4FEC"/>
<path d="M284.212 172.916C284.358 172.697 284.489 172.449 284.817 172.485C284.723 172.785 284.482 172.872 284.212 172.916Z" fill="#8A4FEC"/>
<path d="M26.436 89.8788C26.9465 90.4337 26.4725 90.755 25.9693 90.3972C26.1225 90.222 26.2829 90.054 26.436 89.8788Z" fill="#8A4FEC"/>
<path d="M266.28 129.167C234.588 111.045 219.222 95.4788 189.302 127.363C187.742 128.378 186.254 125.348 184.897 124.655C179.713 120.026 173.762 116.711 167.345 114.199C149.581 107.803 132.83 122.384 117.254 129.225C117.188 129.152 117.115 129.086 117.05 129.021C120.805 124.793 150.791 92.5948 154.445 100.137C153.234 101.451 152.067 102.722 152.41 104.635C152.622 105.642 152.41 108.015 154 106.642C158.186 103.306 162.838 100.758 167.782 98.7497C173.069 95.9607 176.176 98.6913 173.463 91.8647C184.197 91.0469 195.027 89.0318 205.768 89.9225C204.178 95.8876 205.506 94.5296 210.443 95.9168C216.553 97.4282 221.986 100.575 227.456 103.452C229.147 100.225 226.734 97.6399 224.145 95.9314C223.941 94.296 223.168 94.4566 221.957 94.4712V94.5296C222.066 93.8871 221.629 93.4782 221.33 93.0037C220.586 90.8279 223.255 92.9379 223.284 91.4996C226.004 91.6383 227.981 93.6466 230.366 94.4644C240.188 102.525 249.194 112.301 258.783 120.434C260.482 123.961 263.975 126.049 266.287 129.174L266.28 129.167Z" fill="#8A4FEC"/>
<path d="M159.936 94.8363C160.359 94.9531 160.476 95.2744 160.505 95.6614C158.485 97.1581 156.458 98.6476 154.438 100.144C153.694 98.9323 152.579 98.5965 151.237 98.7498C153.862 96.9829 156.837 95.362 159.936 94.8363Z" fill="#8A4FEC"/>
<path d="M258.783 120.427C249.434 113.075 241.712 103.021 231.772 96.063C228.557 92.2518 231.969 84.5271 231.772 79.5987C233.173 58.1112 241.428 57.9506 252.242 75.0939C259.615 88.8859 260.584 105.153 258.783 120.427Z" fill="#8A4FEC"/>
<path d="M213.651 90.2001C216.845 89.9226 220.141 90.7988 223.277 91.4997C223.255 92.938 220.579 90.828 221.323 93.0038C221.622 93.471 222.059 93.8872 221.943 94.5224C219.179 93.0841 216.415 91.6384 213.658 90.2001H213.651Z" fill="#8A4FEC"/>
<path d="M263.998 365.946C256.107 365.968 244.046 364.88 244.498 354.337C244.855 347.817 246.022 340.15 250.222 335.105C259.885 342.188 264.508 354.162 263.99 365.946L263.998 365.946Z" fill="#8A4FEC"/>
<path d="M348.975 126.129C348.909 126.232 348.836 126.327 348.771 126.429C348.479 126.166 348.734 126.137 348.924 126.078L348.983 126.137L348.975 126.129Z" fill="#8A4FEC"/>
<path d="M189.536 159.277C212.675 159.277 202.349 175.084 186.597 175.063C167.316 170.565 172.494 159.416 189.536 159.277Z" fill="#8A4FEC"/>
<path d="M117.247 129.225C117.035 129.561 116.663 129.335 117.043 129.021C117.116 129.087 117.181 129.16 117.247 129.225Z" fill="#8A4FEC"/>
<path d="M235.842 134.46C238.394 138.41 238.978 142.689 238.307 147.23C238.023 149.362 230.293 148.055 228.214 148.625C228.528 146.434 229.593 144.58 228.929 142.192C225.035 145.054 219.617 140.243 223.38 136.622C223.868 136.154 225.392 135.446 224.313 134.789C211.756 127.699 201.816 145.982 213.856 152.976C210.902 159.08 206.687 149.26 206.432 146.099C203.727 129.678 226.143 120.354 235.849 134.46H235.842Z" fill="#8A4FEC"/>
<path d="M213.848 152.976C201.816 145.974 211.748 127.7 224.306 134.789C225.392 135.446 223.853 136.162 223.372 136.622C219.609 140.243 225.035 145.055 228.922 142.185C229.578 144.573 228.52 146.427 228.207 148.618C223.146 148.807 218.545 151.458 213.841 152.976L213.848 152.976Z" fill="#8A4FEC"/>
<path d="M235.842 134.46C228.893 124.91 215.023 125.305 208.78 134.913C207.052 129.722 215.38 124.348 220.127 123.647C226.763 122.399 235.39 127.349 235.835 134.461L235.842 134.46Z" fill="#8A4FEC"/>
<path d="M151.419 148.661C148.801 148.004 142.851 149.435 141.443 147.34C138.76 135.935 149.552 124.428 161.694 128.145C182.718 134.657 169.431 163.424 165.369 153.057C179.152 145.719 166.069 126.582 154.861 135.446C160.323 138.337 156.327 145.507 150.617 142.214C150.274 144.5 150.857 146.522 151.426 148.669L151.419 148.661Z" fill="#8A4FEC"/>
<path d="M151.419 148.661C150.857 146.515 150.273 144.5 150.609 142.207C156.326 145.5 160.315 138.33 154.853 135.439C166.069 126.582 179.137 145.719 165.362 153.049C160.6 151.947 156.261 149.515 151.419 148.661Z" fill="#8A4FEC"/>
<path d="M170.27 134.03C161.811 122.319 142.872 127.714 141.1 141.353C139.73 139.988 141.553 136.709 142.289 135.183C143.682 130.766 146.271 127.232 150.42 125.086C157.683 120.953 167.01 124.845 170.379 132.153C170.62 132.73 171.094 133.716 170.27 134.03Z" fill="#8A4FEC"/>
<path d="M193.97 208.561C187.72 219.286 177.263 216.796 176.949 204.246C183.206 198.207 190.418 201.639 193.97 208.561Z" fill="#8A4FEC"/>
<path d="M154.438 100.137C159.645 95.9169 165.537 92.7701 171.473 89.7108C172.807 88.988 172.968 91.0397 173.464 91.8574C176.184 98.6841 173.055 95.968 167.783 98.7425C162.839 100.75 158.186 103.306 154 106.635C152.403 108.008 152.622 105.635 152.411 104.627C152.068 102.707 153.227 101.444 154.445 100.13L154.438 100.137Z" fill="#8A4FEC"/>
<path d="M213.651 90.2001C216.415 91.6384 219.179 93.0843 221.936 94.5226C221.936 94.5226 221.943 94.4642 221.95 94.4642C224.897 96.6327 229.717 99.0129 227.449 103.445C207.796 91.2151 201.94 99.7065 206.688 87.4988C209.152 88.1486 211.347 89.3241 213.652 90.2076L213.651 90.2001Z" fill="#8A4FEC"/>
<path d="M224.145 95.9245C223.372 95.5084 222.548 95.1579 221.957 94.4643C223.168 94.4497 223.941 94.2891 224.145 95.9245Z" fill="#8A4FEC"/>
</g>
<mask id="mask1_2652_136" style="mask-type:alpha" maskUnits="userSpaceOnUse" x="0" y="0" width="360" height="372">
<rect width="360" height="372" rx="20" fill="#D9D9D9"/>
</mask>
<g mask="url(#mask1_2652_136)">
<path d="M331.819 140.759C321.487 169.434 310.505 198.839 293.372 224.202C287.856 231.154 280.129 235.902 271.796 238.798C255.093 245.298 235.925 252.738 227.373 269.676C219.952 287.789 221.579 308.097 220.361 327.26C220.244 348.18 228.942 367.197 238.201 385.477C256.575 422.446 229.263 459.919 209.386 489.877C190.575 497.777 218.215 452.967 188.459 410.148C174.186 389.986 144.51 368.386 118.935 377.132C103.414 385.638 103.984 405.997 100.649 421.155C97.8615 417.231 94.9136 413.423 92.046 409.55C87.9889 383.698 78.5469 356.248 84.1654 329.681C89.0105 313.838 109.77 320.906 120.131 326.888C124.546 330.01 123.532 316.413 124.517 314.013C126.837 288.985 126.341 259.347 107.377 240.491C95.4098 229.76 80.3273 223.392 67.93 213.224C36.021 187.547 24.1637 144.742 23.4121 105.177C34.1676 109.152 28.8045 95.9125 34.299 101.004C49.7682 119.7 67.4411 136.952 85.0848 153.707C83.516 157.187 79.1817 159.426 78.5177 163.168C76.9853 164.233 78.4374 164.926 78.9847 165.94C86.7996 175.525 95.0231 184.614 103.94 193.156C108.639 199.444 114.586 195.936 120.81 194.265C134.813 189.611 147.349 181.449 159.374 173.22C160.702 180.748 167.05 181.04 166.211 186.657C166.415 196.825 164.978 208.446 170.582 217.403C177.178 223.575 184.256 212.261 186.109 206.629L186.08 206.651C186.496 206.476 186.525 206.119 186.525 205.747L186.503 205.783C186.861 205.579 186.919 205.236 186.926 204.864L186.912 204.893C187.291 204.536 187.401 204.076 187.401 203.573L187.379 203.617C190.371 196.935 192.093 189.298 193.063 181.959L193.012 181.93C195.026 179.807 196.901 177.466 198.499 174.971C200.105 173.337 200.338 170.354 203.235 172.702C219.66 183.338 239.091 190.443 258.844 189.684C261.172 189.83 261.982 187.488 263.477 186.197C264.499 184.877 266.36 183.965 266.71 182.258C270.205 179.581 272.197 175.212 275.335 172.338L275.291 172.352C292.708 162.154 309.52 149.104 325.048 135.901C325.23 139.512 328.609 140.927 331.798 140.723L331.819 140.759ZM136.673 289.846C135.061 290.583 136.177 292.698 135.688 293.996C135.389 297.884 134.659 301.641 134.455 305.529C133.725 317.405 132.558 330.856 137.972 341.841C146.582 362.47 174.223 377.446 195.449 367.278C211.393 358.028 208.824 336.385 210.743 320.592C211.028 297.228 210.605 273.885 209.072 250.601C206.715 212.968 212.991 227.944 180.717 230.424C171.282 231.073 161.869 229.126 153.098 225.697C151.369 225.449 148.414 222.925 147.29 224.837C144.466 246.538 138.344 267.969 136.673 289.838V289.846Z" fill="#BAAAAD"/>
<path d="M32.0804 99.588C29.6433 108.181 24.9368 107.656 19.7853 101.288C17.8881 98.3187 9.36542 92.8259 8.39494 92.3445C1.82051 87.7124 -10.0806 82.3728 -11 70.8328C-2.9808 75.5013 4.62249 82.5114 12.5103 87.9532C13.8384 88.7847 15.4802 90.6813 17.0563 90.3385C8.2563 78.2514 -2.72541 67.0324 -10.9197 54.7118C-1.8206 53.9532 4.54952 60.1463 8.78897 67.5211C13.5319 74.4509 17.9173 81.7382 22.2224 88.865C20.0771 76.9748 15.3415 63.0495 12.4082 50.4737C12.5614 48.1176 24.7325 55.186 23.9445 57.7318C26.4692 69.3958 26.5494 81.3881 27.4323 93.2636C27.3375 97.4361 30.5554 89.2078 31.5988 88.0845C34.4957 84.0725 37.232 79.8124 41.0555 76.6101C44.8352 73.1379 53.1828 74.7865 54.9049 79.5863C43.7407 80.7024 35.8091 89.0182 32.0877 99.588H32.0804Z" fill="#634C4C"/>
<path d="M101.093 86.6042C103.129 75.9176 112.928 53.589 125.69 54.8947C133.089 62.1601 137.81 71.767 143.101 80.5862C145.377 85.2182 149.376 89.8576 150.39 94.7887C144.779 95.8245 140.058 99.8219 135.315 102.63C131.915 95.6494 125.26 68.1854 116.292 69.5276C106.653 74.9329 106.011 88.3841 104.588 98.2317C103.742 105.256 104.15 112.369 104.172 119.43C103.566 124.361 107.098 131.137 102.012 134.318C98.393 118.722 98.6849 102.273 101.086 86.6042H101.093Z" fill="#634C4C"/>
<path d="M252.883 84.5905C256.634 97.5456 255.97 111.391 252.73 124.382C247.031 121.399 250.548 114.841 250.089 109.808C250.249 103.593 249.702 97.4216 248.476 91.3161C246.141 80.6369 241.632 68.2944 231.183 63.2174C220.945 59.0376 222.193 88.3326 220.865 94.4236C216.071 91.5933 210.525 90.4189 204.914 90.0031C206.731 83.5474 212.007 48.7158 219.165 50.0945C236.137 52.83 247.783 69.323 252.883 84.5905Z" fill="#634C4C"/>
<path d="M283.608 389.956C271.291 395.981 257.697 400.015 244.03 401.262C257.471 380.093 260.937 347.027 237.164 331.818C242.542 326.216 248.678 321.38 254.005 315.719C256.238 313.728 260.076 317.127 262.601 317.864C288.57 331.278 296.947 364.14 284.046 389.547L284.053 389.525C283.907 389.671 283.762 389.81 283.608 389.956Z" fill="#BAAAAD"/>
<path d="M274.818 294.133C280.349 287.43 286.573 281.288 291.995 274.453C296.504 268.61 307.807 274.278 313.272 276.838C338.395 292.069 342.737 325.412 334.754 351.512C328.792 358.566 321.926 365.627 314.381 370.923C324.597 339.506 314.447 294.666 274.811 294.141L274.818 294.133Z" fill="#BAAAAD"/>
<path d="M274.818 294.134C299.452 294.047 316.621 315.237 317.68 338.74C308.945 345.065 299.802 351.943 289.674 355.715C286.449 337.296 273.337 320.475 255.219 314.851C261.173 307.695 268.287 300.962 274.825 294.134H274.818Z" fill="#634C4C"/>
<path d="M338.168 318.49C335.468 296.059 319.495 271.535 294.664 271.995C299.903 264.248 306.806 257.179 312.921 249.972C336.307 247.675 354.658 268.457 360.306 289.414C354.352 299.699 347.318 310.969 338.168 318.49Z" fill="#634C4C"/>
<path d="M360.307 289.415C354.66 268.458 336.308 247.668 312.922 249.973C318.146 243.16 323.517 235.99 330.128 230.438C349.048 232.568 366.882 243.503 374.529 261.375C375.39 264.438 377.294 267.094 375.806 270.362C373.055 282.675 369.458 295.127 363.722 306.346C362.037 300.977 362.876 294.689 360.307 289.415Z" fill="#BAAAAD"/>
<path d="M331.818 140.759C325.915 141.08 324.244 137.287 325.798 132.122C326.009 122.326 323.806 111.625 315.276 105.694C314.597 104.965 313.203 104.359 313.371 103.207C330.066 98.1661 329.702 117.526 331.832 128.533C337.677 120.414 341.413 110.093 347.513 101.777C350.264 95.1534 357.006 94.4313 363.384 94.8981C365.69 95.3285 360.034 99.7782 359.859 101.201C352.876 109.217 345.594 117.358 339.494 126.009C339.304 126.068 339.056 126.097 339.341 126.36C339.406 126.257 339.479 126.163 339.545 126.06C351.41 119.794 369.228 100.61 383.063 109.414C371.242 117.015 355.729 123.376 342.508 130.109C343.179 131.043 345.061 130.226 346.141 130.189C356.204 128.088 366.251 125.535 376.372 123.865L376.35 123.836C367.908 140.022 345.018 131.24 331.825 140.744L331.818 140.759Z" fill="#634C4C"/>
<path d="M374.528 261.375C366.881 243.503 349.055 232.561 330.127 230.438C358.161 204.783 382.868 222.021 377.542 257.771C375.914 258.187 375.871 260.456 374.528 261.382V261.375Z" fill="#634C4C"/>
<path d="M289.672 355.707C299.8 351.943 308.943 345.064 317.677 338.732C318.546 349.558 317.539 360.638 314.394 370.88C305.565 378.356 294.941 385.753 284.039 389.539C288.607 378.838 291.54 367.385 289.672 355.7V355.707Z" fill="#867273"/>
<path d="M254.515 365.657C254.85 378.16 250.377 390.678 244.029 401.262C243.803 401.321 243.584 401.386 243.365 401.445C239.352 381.224 224.919 364.6 222.109 343.978C227.414 340.301 231.989 335.545 237.163 331.825C238.089 333.131 239.636 333.707 240.731 334.852C236.521 339.886 235.36 347.552 234.996 354.066C234.55 364.6 246.605 365.687 254.507 365.665L254.515 365.657Z" fill="#867273"/>
<path d="M360.307 289.415C362.876 294.689 362.044 300.977 363.722 306.346C356.805 322.802 346.713 338.296 334.754 351.506C337.337 340.703 339.57 329.652 338.169 318.491C347.319 310.97 354.353 299.7 360.307 289.415Z" fill="#867273"/>
<path d="M313.963 371.362C314.021 371.121 314.153 370.953 314.401 370.888C314.35 371.136 314.189 371.282 313.963 371.362Z" fill="#BAAAAD"/>
<path d="M208.546 240.475C210.202 267.144 211.18 293.842 210.742 320.598C208.83 336.384 211.391 358.041 195.455 367.276C174.214 377.452 146.588 362.454 137.971 341.84C139.415 324.909 139.751 306.68 136.672 289.844C138.014 271.469 142.692 253.401 145.742 235.237C165.21 245.121 187.728 244.356 208.546 240.475Z" fill="#F5DCDD"/>
<path d="M256.8 129.095C266.162 138.169 275.151 147.82 283.55 157.741C264.826 151.168 250.882 134.354 232.83 125.805C222.789 120.502 210.334 116.242 199.257 120.735C187.465 126.433 184.299 142.517 191.873 152.948C208.758 175.357 239.681 183.739 266.731 182.287C265.943 184.716 263.112 185.978 261.784 188.159C257.464 191.682 250.167 189.078 244.891 188.983C229.123 187.101 214.748 179.552 201.315 171.958C200.775 171.265 200.133 170.747 199.724 171.666C198.454 174.008 196.959 176.181 194.974 177.976C186.261 186.715 170.194 187.109 162.678 176.685C161.817 176.006 160.372 172.206 159.387 173.227C144.29 183.512 128.171 193.995 109.725 197C105.259 196.11 97.2111 186.306 93.7159 182.63C120.78 184.125 153.535 175.423 167.91 150.621C171.369 143.859 170.376 135.77 166.757 129.241C157.366 114.003 136.796 119.86 124.275 127.673C108.091 138.272 95.8685 154.29 78.5312 163.175C81.4427 156.625 87.8858 151.482 92.2128 145.581C95.4672 141.809 98.7507 138.067 102.02 134.311C103.37 133.238 105.004 131.94 104.771 130.014C104.369 112.952 100.465 80.1996 116.3 69.5203C125.421 68.3459 131.82 95.5109 135.322 102.623C125.545 110.793 115.752 119.306 107.478 128.935C107.412 129.029 107.266 129.168 107.288 129.204C107.449 129.452 107.565 129.248 107.682 129.139C111.732 127.271 115.548 124.901 119.539 122.895C143.889 109.546 156.848 107.627 178.461 127.279C179.512 128.315 180.402 126.513 181.176 125.915C188.093 119.123 195.908 112.58 205.175 109.349C224.271 105.862 240.937 120.772 256.814 129.088L256.8 129.095ZM180.008 159.171C162.948 159.309 157.775 170.448 177.067 174.941C192.843 174.956 203.154 159.163 180.008 159.171Z" fill="#F2DDDC"/>
<path d="M266.73 182.294C239.688 183.753 208.764 175.356 191.872 152.955C184.283 142.531 187.472 126.439 199.256 120.742C210.34 116.249 222.789 120.509 232.829 125.804C250.881 134.354 264.826 151.168 283.549 157.74C284.512 158.761 282.725 160.082 282.367 161.103C280.295 165.005 276.975 168.376 275.304 172.38C272.312 175.035 270.196 179.704 266.723 182.286L266.73 182.294ZM218.71 148.534C220.797 147.973 228.517 149.264 228.808 147.141C230.1 141.765 227.466 137.396 226.131 132.486C222.446 122.274 208.158 120.509 201.387 128.693C200.285 130.218 197.775 133.23 199.271 134.835C193.215 141.845 200.147 161.037 204.335 152.882C209.041 151.365 213.646 148.717 218.71 148.527V148.534Z" fill="#634C4C"/>
<path d="M78.5308 163.182C101.1 151.977 115.161 126.796 140.554 120.822C164.757 113.221 179.672 140.692 162.765 158.345C145.45 176.822 118.474 184.226 93.7155 182.636C91.9132 180.674 75.291 163.933 78.5308 163.182ZM131.542 141.261C131.192 153.947 132.812 143.53 155.819 152.955C159.015 161.628 168.661 143.304 160.737 133.945C161.561 133.631 161.08 132.646 160.846 132.07C157.475 124.776 148.142 120.88 140.875 125.009C136.723 127.154 134.125 130.684 132.739 135.097C131.98 136.644 130.2 139.868 131.549 141.261H131.542Z" fill="#634C4C"/>
<path d="M208.546 240.475C187.728 244.348 165.203 245.122 145.742 235.238C147.552 212.741 149.033 232.145 180.716 230.43C209.91 228.497 207.429 215.309 208.546 240.482V240.475Z" fill="#D6C5C6"/>
<path d="M166.589 201.865C166.071 195.817 165.881 189.668 166.385 183.738C174.966 188.61 185.057 187.45 193.076 181.994C192.164 189.362 190.289 196.948 187.392 203.652C186.962 203.725 186.903 204.491 186.933 204.928C186.648 204.972 186.48 205.475 186.524 205.811L186.546 205.774C186.144 205.949 186.072 206.292 186.101 206.679C185.437 206.818 185.021 207.912 184.452 208.415C180.898 201.493 173.674 198.071 167.421 204.104C166.633 203.557 167.304 202.463 166.604 201.865H166.589Z" fill="#811227"/>
<path d="M136.674 289.845C139.76 306.688 139.417 324.917 137.973 341.84C132.551 330.855 133.726 317.411 134.456 305.528C134.66 301.64 135.39 297.876 135.689 293.995C136.185 292.69 135.068 290.581 136.674 289.845Z" fill="#F5DCDD"/>
<path d="M193.077 181.988C186.072 186.518 177.214 188.75 169.333 185.059C164.911 183.177 159.227 177.538 159.847 172.928C163.124 177.399 166.524 181.885 172.113 183.527C172.85 183.651 173.544 183.913 173.697 184.672C174.864 185.183 175.952 185.846 177.331 185.846C182.679 185.89 187.692 184.468 192.041 181.331C192.566 180.988 192.669 181.273 193.077 181.988Z" fill="#634C4C"/>
<path d="M166.588 201.865C167.289 202.463 166.617 203.558 167.405 204.105C167.442 211.18 172.593 218.883 179.978 213.551C180.075 214.339 180.52 214.784 181.313 214.886C171.696 227.301 165.961 210.816 166.581 201.865H166.588Z" fill="#634C4C"/>
<path d="M193.025 181.958C192.237 180.04 190.128 182.855 188.903 183.213C184.911 185.299 176.848 187.662 173.484 184.081C183.598 186.517 191.705 181.207 198.52 174.999C196.922 177.486 195.046 179.835 193.033 181.958H193.025Z" fill="#432E30"/>
<path d="M181.322 214.886C180.524 214.779 180.079 214.334 179.986 213.551C182.54 211.684 183.861 208.656 186.123 206.65C185.218 209.707 183.489 212.515 181.329 214.886H181.322Z" fill="#432E30"/>
<path d="M198.513 174.999C198.257 174.999 198.009 174.999 197.754 174.999C198.768 173.978 199.636 169.608 201.307 171.972C199.549 171.848 199.797 174.292 198.505 175.006L198.513 174.999Z" fill="#867273"/>
<path d="M186.926 204.921C186.94 204.425 186.86 203.9 187.415 203.601C187.415 204.097 187.313 204.556 186.926 204.921Z" fill="#432E30"/>
<path d="M186.094 206.68C186.072 206.293 186.137 205.95 186.539 205.775C186.539 206.147 186.509 206.512 186.094 206.68Z" fill="#432E30"/>
<path d="M186.517 205.811C186.503 205.431 186.576 205.096 186.941 204.892C186.933 205.256 186.875 205.606 186.517 205.811Z" fill="#432E30"/>
<path d="M187.385 203.653C187.37 203.28 187.436 202.945 187.793 202.733C187.786 203.098 187.72 203.434 187.385 203.653Z" fill="#432E30"/>
<path d="M166.246 186.283C166.297 186.436 166.428 186.582 166.224 186.677C166.158 186.546 166.166 186.415 166.246 186.283Z" fill="#634C4C"/>
<path d="M274.742 172.804C274.888 172.585 275.019 172.337 275.348 172.374C275.253 172.673 275.012 172.76 274.742 172.804Z" fill="#4FDBE3"/>
<path d="M16.8088 89.8428C17.3196 90.3972 16.8453 90.7181 16.3418 90.3607C16.495 90.1856 16.6556 90.0178 16.8088 89.8428Z" fill="#FEFEFE"/>
<path d="M256.801 129.094C225.089 110.989 209.714 95.4367 179.775 127.292C178.214 128.306 176.725 125.279 175.368 124.586C170.18 119.961 164.226 116.649 157.805 114.14C140.03 107.75 123.269 122.317 107.683 129.152C107.617 129.079 107.544 129.014 107.479 128.948C111.236 124.724 141.241 92.5553 144.897 100.091C143.685 101.404 142.518 102.673 142.861 104.584C143.072 105.591 142.861 107.961 144.451 106.59C148.64 103.256 153.295 100.711 158.242 98.7047C163.533 95.9181 166.641 98.6463 163.927 91.8259C174.668 91.0089 185.503 88.9956 196.252 89.8855C194.661 95.8452 195.989 94.4884 200.929 95.8744C207.044 97.3844 212.48 100.528 217.952 103.402C219.645 100.178 217.23 97.5959 214.64 95.889C214.435 94.255 213.662 94.4155 212.451 94.4301V94.4884C212.56 93.8465 212.122 93.438 211.823 92.9638C211.079 90.7901 213.749 92.8982 213.779 91.4612C216.5 91.5998 218.478 93.6058 220.864 94.4228C230.693 102.476 239.704 112.243 249.299 120.37C251 123.893 254.495 125.979 256.808 129.101L256.801 129.094Z" fill="#BAAAAD"/>
<path d="M150.389 94.7949C150.812 94.9116 150.929 95.2326 150.958 95.6192C148.937 97.1146 146.908 98.6027 144.887 100.098C144.143 98.8872 143.026 98.5516 141.684 98.7048C144.31 96.9395 147.288 95.3201 150.389 94.7949Z" fill="#D6C5C6"/>
<path d="M249.3 120.363C239.945 113.017 232.218 102.972 222.272 96.0207C219.054 92.213 222.469 84.4953 222.272 79.5715C223.673 58.1036 231.933 57.9431 242.754 75.0708C250.131 88.8502 251.102 105.102 249.3 120.363Z" fill="#F2DDDC"/>
<path d="M204.141 90.1639C207.337 89.8867 210.635 90.7621 213.772 91.4623C213.751 92.8994 211.073 90.7912 211.817 92.965C212.116 93.4319 212.554 93.8477 212.437 94.4823C209.672 93.0453 206.906 91.6009 204.148 90.1639H204.141Z" fill="#D6C5C6"/>
<path d="M254.516 365.657C246.621 365.679 234.552 364.592 235.005 354.059C235.362 347.545 236.53 339.885 240.733 334.845C250.401 341.92 255.027 353.884 254.509 365.657H254.516Z" fill="#634C4C"/>
<path d="M339.547 126.06C339.482 126.162 339.409 126.257 339.343 126.359C339.051 126.096 339.307 126.067 339.496 126.009L339.555 126.067L339.547 126.06Z" fill="#4FDBE3"/>
<path d="M180.01 159.178C203.163 159.178 192.831 174.97 177.069 174.949C157.777 170.455 162.957 159.316 180.01 159.178Z" fill="#432E30"/>
<path d="M107.676 129.153C107.465 129.489 107.093 129.263 107.472 128.949C107.545 129.015 107.611 129.088 107.676 129.153Z" fill="#BAAAAD"/>
<path d="M226.342 134.383C228.896 138.329 229.48 142.604 228.809 147.141C228.524 149.271 220.79 147.965 218.71 148.534C219.024 146.346 220.089 144.493 219.425 142.108C215.529 144.967 210.107 140.16 213.872 136.542C214.361 136.075 215.886 135.368 214.806 134.711C202.241 127.628 192.296 145.894 204.343 152.882C201.387 158.98 197.17 149.169 196.914 146.01C194.207 129.605 216.638 120.29 226.35 134.383H226.342Z" fill="#F9F8F9"/>
<path d="M204.335 152.883C192.295 145.888 202.234 127.629 214.799 134.712C215.886 135.369 214.346 136.084 213.865 136.543C210.1 140.161 215.529 144.968 219.418 142.102C220.074 144.487 219.016 146.34 218.703 148.528C213.639 148.718 209.034 151.366 204.328 152.883H204.335Z" fill="#432E30"/>
<path d="M226.344 134.384C219.39 124.842 205.512 125.236 199.266 134.836C197.536 129.65 205.869 124.281 210.619 123.58C217.26 122.333 225.892 127.279 226.337 134.384H226.344Z" fill="#432E30"/>
<path d="M141.869 148.572C139.249 147.915 133.295 149.345 131.887 147.251C129.201 135.857 140.001 124.361 152.15 128.074C173.187 134.581 159.892 163.321 155.827 152.963C169.618 145.632 156.528 126.513 145.313 135.368C150.778 138.257 146.779 145.42 141.066 142.131C140.723 144.414 141.307 146.434 141.876 148.579L141.869 148.572Z" fill="#F9F8F9"/>
<path d="M141.87 148.571C141.308 146.426 140.724 144.413 141.06 142.122C146.78 145.412 150.772 138.249 145.306 135.36C156.529 126.512 169.605 145.631 155.821 152.955C151.056 151.853 146.715 149.424 141.87 148.571Z" fill="#432E30"/>
<path d="M160.731 133.953C152.267 122.253 133.317 127.644 131.544 141.27C130.172 139.906 131.996 136.631 132.733 135.106C134.127 130.693 136.717 127.162 140.869 125.018C148.137 120.889 157.47 124.777 160.841 132.079C161.082 132.655 161.556 133.64 160.731 133.953Z" fill="#432E30"/>
<path d="M184.445 208.416C178.191 219.132 167.728 216.644 167.414 204.105C173.675 198.072 180.891 201.501 184.445 208.416Z" fill="#F75C6D"/>
<path d="M144.89 100.091C150.1 95.8744 155.996 92.7304 161.936 89.674C163.271 88.9518 163.432 91.0016 163.928 91.8186C166.649 98.639 163.519 95.9254 158.244 98.6973C153.296 100.703 148.641 103.256 144.453 106.583C142.855 107.954 143.073 105.583 142.862 104.577C142.519 102.658 143.679 101.396 144.898 100.083L144.89 100.091Z" fill="#432E30"/>
<path d="M204.139 90.1629C206.904 91.5999 209.67 93.0442 212.428 94.4812C212.428 94.4812 212.435 94.4229 212.443 94.4229C215.39 96.5894 220.214 98.9674 217.944 103.395C198.279 91.1768 192.42 99.6604 197.17 87.4639C199.637 88.1131 201.833 89.2875 204.139 90.1701V90.1629Z" fill="#432E30"/>
<path d="M214.642 95.8828C213.869 95.467 213.044 95.1169 212.453 94.4239C213.664 94.4093 214.438 94.2488 214.642 95.8828Z" fill="#D6C5C6"/>
</g>
</svg>
