<svg width="454" height="573" viewBox="0 0 454 573" fill="none" xmlns="http://www.w3.org/2000/svg">
<g clip-path="url(#clip0_2635_144)">
<mask id="mask0_2635_144" style="mask-type:alpha" maskUnits="userSpaceOnUse" x="-668" y="74" width="1180" height="316">
<rect x="-668" y="74" width="1180" height="316" rx="20" fill="#D9D9D9"/>
</mask>
<g mask="url(#mask0_2635_144)">
<path d="M470.557 582.551C470.693 581.726 471.295 581.597 471.984 581.597C472.112 582.791 471.463 582.511 470.557 582.551Z" fill="#8A4FEC"/>
<path d="M393.538 123.685C382.189 155.181 370.128 187.477 351.309 215.335C345.251 222.971 336.763 228.186 327.611 231.367C309.265 238.506 288.211 246.678 278.818 265.282C270.667 285.176 272.455 307.481 271.116 328.529C270.988 351.508 280.541 372.395 290.712 392.473C310.892 433.078 280.894 474.236 259.062 507.142C238.401 515.819 268.76 466.601 236.077 419.57C220.4 397.425 187.805 373.701 159.715 383.307C142.668 392.649 143.293 415.011 139.63 431.66C136.569 427.35 133.331 423.167 130.181 418.913C125.725 390.518 115.354 360.369 121.525 331.189C126.847 313.787 149.648 321.551 161.029 328.12C165.878 331.55 164.764 316.615 165.846 313.979C168.394 286.49 167.849 253.937 147.02 233.226C133.876 221.44 117.31 214.446 103.693 203.277C68.6456 175.075 55.622 128.06 54.7965 84.6026C66.6099 88.9692 60.7193 74.4273 66.7542 80.0197C83.745 100.555 103.156 119.503 122.535 137.907C120.812 141.728 116.051 144.188 115.322 148.298C113.639 149.468 115.234 150.229 115.835 151.343C124.419 161.871 133.451 171.854 143.245 181.236C148.406 188.142 154.938 184.288 161.774 182.454C177.154 177.342 190.923 168.376 204.131 159.339C205.59 167.607 212.562 167.928 211.641 174.097C211.865 185.266 210.286 198.029 216.441 207.868C223.686 214.646 231.46 202.219 233.496 196.034L233.464 196.058C233.921 195.866 233.953 195.473 233.953 195.065L233.929 195.105C234.322 194.88 234.386 194.504 234.394 194.095L234.378 194.127C234.795 193.735 234.915 193.23 234.915 192.677L234.891 192.725C238.177 185.386 240.068 176.997 241.134 168.937L241.078 168.905C243.29 166.574 245.35 164.002 247.105 161.262C248.868 159.467 249.124 156.19 252.306 158.77C270.347 170.452 291.69 178.255 313.385 177.422C315.941 177.582 316.831 175.01 318.474 173.592C319.596 172.142 321.64 171.141 322.024 169.266C325.863 166.325 328.051 161.526 331.498 158.369L331.45 158.385C350.58 147.185 369.046 132.851 386.1 118.349C386.301 122.315 390.012 123.87 393.514 123.645L393.538 123.685ZM179.198 287.435C177.427 288.245 178.653 290.568 178.116 291.994C177.787 296.265 176.986 300.391 176.761 304.661C175.96 317.705 174.678 332.479 180.624 344.545C190.082 367.203 220.44 383.652 243.755 372.483C261.266 362.324 258.445 338.552 260.553 321.206C260.866 295.544 260.401 269.905 258.718 244.331C256.129 202.997 263.022 219.445 227.573 222.169C217.211 222.882 206.872 220.743 197.238 216.978C195.339 216.705 192.093 213.933 190.859 216.032C187.757 239.868 181.033 263.407 179.198 287.427V287.435Z" fill="#8A4FEC"/>
<path d="M64.3177 78.4653C61.6409 87.9035 56.4715 87.3267 50.8132 80.3321C48.7295 77.0712 39.3685 71.0382 38.3026 70.5094C31.0815 65.4217 18.0098 59.5569 17 46.8819C25.808 52.0096 34.1591 59.7092 42.8228 65.6861C44.2814 66.5995 46.0847 68.6826 47.8158 68.3061C38.1503 55.0301 26.0885 42.7076 17.0882 29.1753C27.0823 28.342 34.0789 35.1443 38.7354 43.2444C43.9448 50.8559 48.7615 58.8599 53.4901 66.6876C51.1338 53.628 45.9324 38.333 42.7106 24.5203C42.8789 21.9324 56.2471 29.6961 55.3815 32.4923C58.1545 45.3035 58.2427 58.4753 59.2124 71.5189C59.1083 76.1018 62.6427 67.0642 63.7887 65.8304C66.9705 61.4237 69.9759 56.7447 74.1755 53.2274C78.3271 49.4137 87.4957 51.2244 89.3871 56.4963C77.1249 57.7222 68.4131 66.8559 64.3257 78.4653H64.3177Z" fill="#8A4FEC"/>
<path d="M136.752 435.85C122.631 433.679 112.076 420.932 101.08 412.559C96.2229 408.273 97.1927 409.274 101.488 404.772C101.304 407.175 107.812 402.937 111.707 406.703C120.539 414.042 133.603 424.69 136.744 435.842L136.752 435.85Z" fill="#8A4FEC"/>
<path d="M136.752 435.85C134.452 426.156 124.963 419.394 118.488 412.239C114.152 408.249 108.806 402.953 102.475 405.701C99.0606 404.916 107.075 399.588 108.317 398.659C112.525 396.447 115.907 402.384 118.568 404.876C125.372 412.672 131.736 420.836 137.843 429.177C140.159 431.42 140.383 434.961 136.752 435.85Z" fill="#8A4FEC"/>
<path d="M250.952 506.236C253.116 508.752 256.33 507.903 259.071 507.15C261.347 519.136 264.304 531.058 266.212 543.092C262.389 547.658 254.871 548.275 249.221 548.764C249.485 534.647 249.509 520.177 250.952 506.236Z" fill="#8A4FEC"/>
<path d="M249.212 548.764C254.862 548.267 262.38 547.658 266.203 543.091C270.122 552.466 258.701 556.223 251.472 557.633C246.824 558.835 249.757 551.384 249.212 548.772V548.764Z" fill="#8A4FEC"/>
<path d="M140.119 64.204C142.355 52.4663 153.119 27.9415 167.136 29.3756C175.263 37.3556 180.448 47.9075 186.259 57.594C188.759 62.6817 193.151 67.7773 194.265 73.1935C188.102 74.3312 182.917 78.7218 177.707 81.8064C173.973 74.1389 166.663 43.9736 156.813 45.4478C146.226 51.3847 145.521 66.1589 143.958 76.9752C143.028 84.6907 143.477 92.5025 143.501 100.258C142.836 105.674 146.715 113.117 141.129 116.611C137.154 99.481 137.474 81.4138 140.111 64.204H140.119Z" fill="#8A4FEC"/>
<path d="M306.837 61.9929C310.956 76.2223 310.227 91.4292 306.669 105.699C300.409 102.422 304.272 95.2188 303.767 89.6905C303.944 82.8643 303.343 76.0861 301.996 69.38C299.432 57.6504 294.479 44.094 283.002 38.5176C271.757 33.9268 273.128 66.1031 271.669 72.7932C266.404 69.6845 260.313 68.3945 254.15 67.9379C256.145 60.8472 261.94 22.5897 269.802 24.104C288.444 27.1085 301.235 45.2237 306.837 61.9929Z" fill="#8A4FEC"/>
<path d="M340.586 397.393C327.058 404.011 312.127 408.441 297.115 409.811C311.878 386.56 315.685 350.242 289.574 333.537C295.48 327.384 302.221 322.072 308.071 315.854C310.524 313.667 314.739 317.401 317.512 318.21C346.036 332.944 355.237 369.038 341.067 396.944L341.075 396.92C340.915 397.08 340.754 397.233 340.586 397.393Z" fill="#8A4FEC"/>
<path d="M330.929 292.147C337.004 284.783 343.84 278.037 349.795 270.53C354.748 264.112 367.162 270.338 373.165 273.15C400.759 289.879 405.528 326.502 396.76 355.169C390.212 362.917 382.67 370.673 374.383 376.489C385.604 341.981 374.455 292.731 330.921 292.155L330.929 292.147Z" fill="#8A4FEC"/>
<path d="M330.929 292.147C357.986 292.05 376.843 315.325 378.005 341.14C368.412 348.086 358.37 355.642 347.246 359.784C343.703 339.554 329.301 321.078 309.401 314.9C315.941 307.041 323.755 299.646 330.936 292.146L330.929 292.147Z" fill="#8A4FEC"/>
<path d="M400.51 318.898C397.545 294.261 380.001 267.325 352.728 267.83C358.482 259.321 366.064 251.557 372.78 243.641C398.466 241.118 418.623 263.944 424.826 286.962C418.286 298.259 410.56 310.638 400.51 318.898Z" fill="#8A4FEC"/>
<path d="M424.826 286.962C418.623 263.944 398.466 241.11 372.78 243.641C378.518 236.158 384.418 228.283 391.679 222.186C412.461 224.525 432.048 236.535 440.447 256.165C441.393 259.53 443.485 262.446 441.85 266.036C438.828 279.56 434.877 293.236 428.578 305.559C426.726 299.662 427.647 292.755 424.826 286.962Z" fill="#8A4FEC"/>
<path d="M393.538 123.685C387.054 124.038 385.219 119.872 386.926 114.199C387.158 103.439 384.738 91.6852 375.369 85.1714C374.623 84.3702 373.093 83.7052 373.277 82.4393C391.614 76.9029 391.213 98.1669 393.554 110.257C399.973 101.34 404.077 90.0026 410.777 80.8689C413.798 73.594 421.204 72.8008 428.208 73.3135C430.741 73.7863 424.53 78.6736 424.337 80.236C416.668 89.0412 408.669 97.9826 401.969 107.485C401.76 107.549 401.488 107.581 401.801 107.869C401.873 107.757 401.953 107.653 402.025 107.541C415.057 100.659 434.628 79.587 449.824 89.2575C436.84 97.606 419.801 104.593 405.279 111.988C406.016 113.013 408.084 112.116 409.27 112.076C420.322 109.768 431.358 106.964 442.474 105.129L442.45 105.097C433.177 122.876 408.036 113.23 393.546 123.669L393.538 123.685Z" fill="#8A4FEC"/>
<path d="M440.447 256.165C432.048 236.535 412.469 224.517 391.679 222.186C422.471 194.007 449.607 212.94 443.757 252.207C441.97 252.663 441.921 255.155 440.447 256.173L440.447 256.165Z" fill="#8A4FEC"/>
<path d="M347.246 359.776C358.37 355.642 368.412 348.087 378.006 341.132C378.959 353.022 377.853 365.192 374.399 376.441C364.701 384.654 353.032 392.778 341.059 396.936C346.076 385.182 349.298 372.603 347.246 359.768V359.776Z" fill="#8A4FEC"/>
<path d="M308.632 370.704C309.001 384.437 304.088 398.186 297.115 409.811C296.867 409.875 296.626 409.947 296.386 410.011C291.978 387.802 276.125 369.543 273.04 346.893C278.866 342.855 283.891 337.631 289.574 333.545C290.591 334.979 292.291 335.612 293.493 336.87C288.868 342.398 287.594 350.818 287.193 357.973C286.704 369.543 299.944 370.736 308.624 370.712L308.632 370.704Z" fill="#8A4FEC"/>
<path d="M424.826 286.962C427.647 292.755 426.734 299.662 428.578 305.559C420.98 323.634 409.896 340.652 396.76 355.161C399.597 343.296 402.049 331.157 400.51 318.898C410.56 310.638 418.286 298.259 424.826 286.962Z" fill="#8A4FEC"/>
<path d="M440.447 256.165C441.93 255.147 441.97 252.663 443.757 252.198C443.5 255.491 443.46 258.952 442.458 262.077C442.394 259.97 440.6 258.32 440.447 256.165Z" fill="#8A4FEC"/>
<path d="M442.475 105.137C442.539 105.081 442.602 105.017 442.666 104.961C442.69 105.145 442.435 105.073 442.475 105.137Z" fill="#8A4FEC"/>
<path d="M373.927 376.97C373.991 376.706 374.135 376.521 374.407 376.449C374.351 376.722 374.175 376.882 373.927 376.97Z" fill="#8A4FEC"/>
<path d="M340.586 397.393C340.746 397.233 340.907 397.08 341.075 396.92C341.091 397.257 340.851 397.337 340.586 397.393Z" fill="#8A4FEC"/>
<path d="M258.141 233.21C259.96 262.502 261.034 291.826 260.553 321.214C258.453 338.552 261.266 362.34 243.763 372.483C220.432 383.66 190.09 367.187 180.624 344.545C182.211 325.949 182.58 305.927 179.198 287.435C180.672 267.253 185.81 247.407 189.16 227.457C210.542 238.314 235.275 237.472 258.141 233.21Z" fill="#8A4FEC"/>
<path d="M311.141 110.874C321.423 120.841 331.297 131.441 340.522 142.337C319.957 135.118 304.641 116.651 284.813 107.261C273.785 101.436 260.104 96.7568 247.938 101.692C234.987 107.95 231.508 125.616 239.828 137.073C258.373 161.686 292.339 170.892 322.048 169.298C321.183 171.966 318.073 173.352 316.615 175.748C311.87 179.617 303.855 176.757 298.061 176.653C280.742 174.586 264.953 166.293 250.198 157.953C249.605 157.192 248.9 156.623 248.451 157.632C247.057 160.204 245.414 162.592 243.234 164.563C233.664 174.161 216.016 174.594 207.761 163.145C206.816 162.399 205.229 158.225 204.147 159.347C187.565 170.644 169.861 182.157 149.6 185.458C144.695 184.481 135.855 173.712 132.016 169.674C161.742 171.317 197.719 161.758 213.508 134.518C217.307 127.09 216.217 118.205 212.242 111.034C201.927 94.2971 179.334 100.731 165.581 109.312C147.805 120.953 134.381 138.548 115.338 148.306C118.536 141.111 125.613 135.463 130.365 128.981C133.94 124.839 137.546 120.729 141.137 116.603C142.62 115.425 144.415 113.999 144.158 111.884C143.718 93.1434 139.43 57.1693 156.821 45.4397C166.839 44.1498 173.868 73.9866 177.715 81.7983C166.976 90.7718 156.22 100.122 147.132 110.698C147.06 110.802 146.899 110.954 146.923 110.994C147.1 111.267 147.228 111.042 147.356 110.922C151.804 108.871 155.996 106.267 160.38 104.064C187.124 89.4018 201.358 87.2946 225.097 108.879C226.251 110.017 227.229 108.038 228.078 107.381C235.676 99.9216 244.26 92.7348 254.438 89.1854C275.412 85.3557 293.717 101.732 311.157 110.866L311.141 110.874ZM226.796 143.908C208.058 144.06 202.376 156.294 223.566 161.23C240.893 161.246 252.218 143.9 226.796 143.908Z" fill="#8A4FEC"/>
<path d="M322.048 169.306C292.347 170.908 258.381 161.686 239.828 137.081C231.493 125.632 234.995 107.958 247.938 101.7C260.112 96.7647 273.785 101.444 284.813 107.261C304.641 116.651 319.957 135.118 340.522 142.337C341.58 143.459 339.616 144.909 339.224 146.031C336.947 150.317 333.301 154.019 331.466 158.417C328.18 161.334 325.855 166.461 322.04 169.298L322.048 169.306ZM269.305 132.226C271.597 131.609 280.076 133.027 280.397 130.696C281.816 124.791 278.922 119.992 277.456 114.6C273.408 103.383 257.716 101.444 250.279 110.433C249.068 112.108 246.311 115.417 247.954 117.179C241.302 124.879 248.916 145.959 253.516 137.001C258.686 135.335 263.743 132.426 269.305 132.218V132.226Z" fill="#8A4FEC"/>
<path d="M115.338 148.314C140.127 136.008 155.571 108.35 183.462 101.789C210.046 93.44 226.428 123.613 207.858 143.002C188.839 163.297 159.21 171.429 132.017 169.683C130.037 167.527 111.78 149.14 115.338 148.314ZM173.564 124.238C173.179 138.171 174.958 126.73 200.228 137.082C203.738 146.608 214.334 126.482 205.63 116.202C206.536 115.858 206.007 114.776 205.75 114.143C202.047 106.131 191.797 101.853 183.814 106.387C179.254 108.743 176.401 112.621 174.878 117.468C174.045 119.167 172.089 122.708 173.572 124.238H173.564Z" fill="#8A4FEC"/>
<path d="M258.141 233.21C235.275 237.464 210.534 238.314 189.16 227.457C191.147 202.748 192.775 224.06 227.574 222.177C259.64 220.054 256.915 205.568 258.141 233.218L258.141 233.21Z" fill="#8A4FEC"/>
<path d="M212.058 190.802C211.489 184.16 211.28 177.406 211.833 170.892C221.258 176.244 232.342 174.97 241.15 168.977C240.149 177.069 238.089 185.402 234.907 192.765C234.434 192.845 234.37 193.686 234.402 194.167C234.09 194.215 233.905 194.768 233.953 195.137L233.977 195.096C233.537 195.289 233.456 195.665 233.488 196.09C232.759 196.242 232.302 197.444 231.677 197.997C227.774 190.393 219.84 186.636 212.971 193.262C212.106 192.661 212.843 191.459 212.074 190.802H212.058Z" fill="#8A4FEC"/>
<path d="M179.198 287.435C182.588 305.935 182.211 325.957 180.624 344.545C174.67 332.479 175.96 317.713 176.761 304.661C176.986 300.391 177.787 296.257 178.116 291.994C178.661 290.56 177.435 288.245 179.198 287.435Z" fill="#8A4FEC"/>
<path d="M241.15 168.969C233.456 173.945 223.726 176.396 215.07 172.342C210.214 170.275 203.97 164.082 204.651 159.018C208.25 163.93 211.985 168.857 218.124 170.66C218.933 170.796 219.695 171.085 219.863 171.918C221.145 172.479 222.339 173.208 223.854 173.208C229.729 173.256 235.235 171.693 240.011 168.248C240.589 167.872 240.701 168.184 241.15 168.969Z" fill="#8A4FEC"/>
<path d="M212.058 190.802C212.827 191.459 212.089 192.661 212.955 193.262C212.995 201.034 218.653 209.494 226.764 203.638C226.871 204.503 227.359 204.992 228.23 205.104C217.667 218.74 211.368 200.633 212.049 190.802L212.058 190.802Z" fill="#8A4FEC"/>
<path d="M241.094 168.937C240.228 166.83 237.912 169.923 236.566 170.315C232.182 172.607 223.326 175.203 219.631 171.269C230.739 173.945 239.643 168.112 247.129 161.294C245.374 164.026 243.314 166.606 241.102 168.937H241.094Z" fill="#8A4FEC"/>
<path d="M228.238 205.104C227.362 204.986 226.873 204.497 226.772 203.637C229.577 201.586 231.027 198.261 233.512 196.058C232.518 199.415 230.619 202.5 228.246 205.104H228.238Z" fill="#8A4FEC"/>
<path d="M247.121 161.294C246.84 161.294 246.568 161.294 246.287 161.294C247.401 160.172 248.355 155.373 250.19 157.969C248.259 157.833 248.531 160.517 247.113 161.302L247.121 161.294Z" fill="#8A4FEC"/>
<path d="M234.393 194.159C234.409 193.614 234.321 193.037 234.93 192.709C234.93 193.254 234.818 193.758 234.393 194.159Z" fill="#8A4FEC"/>
<path d="M233.48 196.09C233.456 195.666 233.528 195.289 233.968 195.097C233.968 195.505 233.936 195.906 233.48 196.09Z" fill="#8A4FEC"/>
<path d="M233.945 195.137C233.929 194.72 234.01 194.352 234.41 194.127C234.402 194.528 234.338 194.913 233.945 195.137Z" fill="#8A4FEC"/>
<path d="M234.899 192.765C234.883 192.357 234.955 191.988 235.348 191.756C235.34 192.156 235.267 192.525 234.899 192.765Z" fill="#8A4FEC"/>
<path d="M211.681 173.688C211.737 173.857 211.881 174.017 211.657 174.121C211.585 173.977 211.593 173.833 211.681 173.688Z" fill="#8A4FEC"/>
<path d="M330.849 158.882C331.009 158.642 331.153 158.37 331.514 158.41C331.41 158.738 331.145 158.834 330.849 158.882Z" fill="#8A4FEC"/>
<path d="M47.5438 67.7612C48.1048 68.3701 47.5839 68.7226 47.0309 68.33C47.1992 68.1377 47.3755 67.9535 47.5438 67.7612Z" fill="#8A4FEC"/>
<path d="M311.141 110.874C276.31 90.9882 259.423 73.9063 226.539 108.895C224.824 110.009 223.189 106.684 221.698 105.922C216 100.843 209.46 97.2053 202.407 94.4492C182.884 87.4306 164.475 103.431 147.356 110.938C147.284 110.858 147.203 110.786 147.131 110.714C151.259 106.075 184.214 70.7416 188.23 79.018C186.899 80.4602 185.617 81.8543 185.994 83.9534C186.226 85.0591 185.994 87.663 187.741 86.1567C192.341 82.4952 197.454 79.699 202.888 77.4957C208.699 74.4351 212.113 77.4316 209.132 69.9404C220.929 69.043 232.83 66.8317 244.636 67.8092C242.889 74.355 244.347 72.8648 249.773 74.387C256.489 76.0455 262.46 79.4987 268.471 82.6555C270.33 79.1141 267.678 76.2779 264.832 74.4031C264.608 72.6084 263.758 72.7846 262.428 72.8007V72.8648C262.548 72.1597 262.067 71.711 261.739 71.1902C260.921 68.8027 263.855 71.1181 263.887 69.5398C266.876 69.692 269.049 71.8958 271.669 72.7932C282.465 81.6384 292.362 92.3661 302.901 101.291C304.769 105.161 308.608 107.453 311.148 110.882L311.141 110.874Z" fill="#8A4FEC"/>
<path d="M194.265 73.2013C194.73 73.3295 194.858 73.6821 194.89 74.1067C192.67 75.7492 190.442 77.3836 188.222 79.0261C187.405 77.6961 186.179 77.3275 184.704 77.4958C187.589 75.5569 190.859 73.7782 194.265 73.2013Z" fill="#8A4FEC"/>
<path d="M302.901 101.284C292.627 93.2155 284.139 82.1829 273.215 74.5474C269.681 70.3652 273.432 61.8884 273.215 56.4803C274.754 32.9009 283.827 32.7246 295.712 51.5369C303.815 66.6716 304.881 84.5224 302.901 101.284Z" fill="#8A4FEC"/>
<path d="M253.3 68.1137C256.81 67.8093 260.432 68.7707 263.879 69.5399C263.855 71.1182 260.913 68.8028 261.731 71.1903C262.059 71.7031 262.54 72.1598 262.412 72.8568C259.375 71.2785 256.337 69.6921 253.308 68.1137H253.3Z" fill="#8A4FEC"/>
<path d="M308.632 370.704C299.96 370.728 286.704 369.535 287.201 357.965C287.594 350.81 288.876 342.398 293.492 336.861C304.112 344.633 309.193 357.773 308.624 370.704L308.632 370.704Z" fill="#8A4FEC"/>
<path d="M402.025 107.541C401.953 107.653 401.873 107.757 401.801 107.869C401.48 107.581 401.76 107.549 401.969 107.485L402.034 107.549L402.025 107.541Z" fill="#8A4FEC"/>
<path d="M226.796 143.916C252.226 143.916 240.878 161.262 223.567 161.238C202.376 156.302 208.066 144.068 226.796 143.916Z" fill="#8A4FEC"/>
<path d="M147.348 110.938C147.115 111.307 146.707 111.058 147.123 110.714C147.204 110.786 147.276 110.866 147.348 110.938Z" fill="#8A4FEC"/>
<path d="M277.688 116.683C280.493 121.017 281.134 125.712 280.397 130.696C280.084 133.035 271.589 131.601 269.305 132.226C269.65 129.822 270.82 127.788 270.09 125.168C265.811 128.308 259.856 123.028 263.991 119.055C264.528 118.542 266.203 117.765 265.017 117.043C251.216 109.264 240.293 129.326 253.524 137.001C250.279 143.7 245.646 132.923 245.366 129.454C242.392 111.435 267.029 101.204 277.696 116.683H277.688Z" fill="#8A4FEC"/>
<path d="M253.516 137.001C240.292 129.318 251.208 109.264 265.009 117.044C266.203 117.765 264.512 118.55 263.983 119.055C259.848 123.029 265.811 128.309 270.082 125.16C270.804 127.78 269.641 129.815 269.297 132.218C263.735 132.427 258.678 135.335 253.508 137.002L253.516 137.001Z" fill="#8A4FEC"/>
<path d="M277.688 116.683C270.05 106.203 254.807 106.636 247.946 117.18C246.047 111.483 255.199 105.586 260.417 104.817C267.71 103.447 277.191 108.879 277.68 116.683L277.688 116.683Z" fill="#8A4FEC"/>
<path d="M184.904 132.266C182.027 131.545 175.487 133.116 173.94 130.816C170.991 118.301 182.853 105.674 196.197 109.752C219.303 116.899 204.7 148.467 200.236 137.09C215.384 129.037 201.005 108.038 188.687 117.765C194.69 120.937 190.298 128.805 184.023 125.192C183.646 127.699 184.287 129.919 184.912 132.274L184.904 132.266Z" fill="#8A4FEC"/>
<path d="M184.904 132.266C184.287 129.911 183.645 127.7 184.014 125.184C190.297 128.797 194.681 120.929 188.678 117.757C201.005 108.038 215.368 129.038 200.228 137.082C194.995 135.872 190.226 133.204 184.904 132.266Z" fill="#8A4FEC"/>
<path d="M205.622 116.21C196.325 103.359 175.511 109.28 173.564 124.246C172.057 122.748 174.061 119.151 174.87 117.476C176.401 112.629 179.246 108.751 183.806 106.396C191.789 101.861 202.039 106.131 205.742 114.151C206.007 114.784 206.528 115.866 205.622 116.21Z" fill="#8A4FEC"/>
<path d="M231.669 197.997C224.8 209.767 213.308 207.035 212.963 193.262C219.839 186.636 227.766 190.402 231.669 197.997Z" fill="#8A4FEC"/>
<path d="M188.222 79.018C193.945 74.3871 200.42 70.9339 206.944 67.5768C208.411 66.7837 208.587 69.035 209.132 69.9324C212.122 77.4236 208.683 74.4432 202.889 77.4877C197.455 79.6911 192.342 82.4953 187.741 86.1488C185.986 87.655 186.227 85.0511 185.994 83.9454C185.618 81.8383 186.892 80.4522 188.23 79.01L188.222 79.018Z" fill="#8A4FEC"/>
<path d="M253.3 68.1137C256.337 69.6921 259.375 71.2787 262.405 72.8571C262.405 72.8571 262.413 72.793 262.421 72.793C265.659 75.1725 270.956 77.7845 268.464 82.6478C246.865 69.2276 240.429 78.5456 245.646 65.1495C248.355 65.8626 250.768 67.1525 253.3 68.122L253.3 68.1137Z" fill="#8A4FEC"/>
<path d="M264.833 74.3955C263.983 73.9388 263.078 73.5542 262.428 72.7931C263.759 72.777 264.608 72.6008 264.833 74.3955Z" fill="#8A4FEC"/>
</g>
<path d="M383.538 123.685C372.19 155.181 360.128 187.477 341.31 215.335C335.251 222.971 326.763 228.187 317.611 231.367C299.266 238.506 278.212 246.678 268.819 265.282C260.668 285.176 262.455 307.482 261.117 328.529C260.988 351.508 270.542 372.395 280.712 392.473C300.893 433.078 270.894 474.236 249.063 507.142C228.401 515.819 258.76 466.601 226.077 419.57C210.401 397.425 177.806 373.701 149.715 383.308C132.668 392.65 133.293 415.011 129.63 431.66C126.569 427.35 123.331 423.167 120.181 418.913C115.725 390.518 105.355 360.369 111.526 331.189C116.847 313.787 139.649 321.551 151.029 328.121C155.878 331.55 154.764 316.615 155.846 313.979C158.395 286.49 157.85 253.937 137.02 233.226C123.876 221.44 107.31 214.446 93.6934 203.277C58.646 175.075 45.6224 128.06 44.7969 84.6028C56.6103 88.9693 50.7196 74.4275 56.7545 80.0199C73.7453 100.555 93.1564 119.503 112.536 137.907C110.812 141.729 106.052 144.188 105.322 148.298C103.639 149.468 105.234 150.229 105.835 151.343C114.419 161.871 123.451 171.854 133.245 181.236C138.406 188.142 144.938 184.289 151.775 182.454C167.154 177.342 180.923 168.377 194.131 159.339C195.59 167.607 202.563 167.928 201.641 174.097C201.865 185.266 200.286 198.029 206.442 207.868C213.687 214.646 221.461 202.219 223.496 196.034L223.464 196.058C223.921 195.866 223.953 195.473 223.953 195.065L223.929 195.105C224.322 194.88 224.386 194.504 224.394 194.095L224.378 194.127C224.795 193.735 224.915 193.23 224.915 192.677L224.891 192.725C228.177 185.386 230.068 176.998 231.134 168.937L231.078 168.905C233.29 166.574 235.35 164.002 237.105 161.262C238.868 159.467 239.125 156.19 242.307 158.77C260.347 170.452 281.69 178.255 303.385 177.422C305.942 177.582 306.831 175.011 308.474 173.592C309.596 172.142 311.64 171.141 312.025 169.266C315.864 166.326 318.052 161.526 321.498 158.37L321.45 158.386C340.581 147.185 359.046 132.851 376.101 118.349C376.301 122.315 380.012 123.87 383.514 123.645L383.538 123.685ZM169.198 287.436C167.427 288.245 168.653 290.568 168.116 291.994C167.788 296.265 166.986 300.391 166.762 304.661C165.96 317.705 164.678 332.479 170.625 344.545C180.082 367.203 210.441 383.652 233.755 372.483C251.267 362.324 248.446 338.552 250.553 321.206C250.866 295.544 250.401 269.905 248.718 244.331C246.129 202.997 253.022 219.445 217.574 222.169C207.211 222.883 196.872 220.743 187.239 216.978C185.339 216.705 182.094 213.933 180.859 216.032C177.758 239.868 171.033 263.407 169.198 287.428V287.436Z" fill="#BAAAAD"/>
<path d="M54.3177 78.4653C51.6408 87.9035 46.4715 87.3267 40.8132 80.3321C38.7295 77.0712 29.3685 71.0382 28.3026 70.5094C21.0815 65.4217 8.00983 59.5569 7 46.8819C15.808 52.0096 24.1591 59.7092 32.8228 65.6861C34.2814 66.5995 36.0847 68.6826 37.8158 68.3061C28.1503 55.0301 16.0885 42.7076 7.08816 29.1753C17.0823 28.342 24.0789 35.1443 28.7354 43.2444C33.9448 50.8559 38.7615 58.8599 43.4901 66.6876C41.1338 53.628 35.9324 38.333 32.7106 24.5203C32.8789 21.9324 46.2471 29.6961 45.3815 32.4923C48.1545 45.3035 48.2427 58.4753 49.2124 71.5189C49.1083 76.1018 52.6427 67.0642 53.7887 65.8304C56.9705 61.4237 59.9759 56.7447 64.1755 53.2274C68.3271 49.4137 77.4957 51.2244 79.3871 56.4963C67.1249 57.7222 58.4131 66.8559 54.3257 78.4653H54.3177Z" fill="#634C4C"/>
<path d="M126.752 435.85C112.63 433.679 102.075 420.932 91.0792 412.559C86.2224 408.273 87.1922 409.274 91.4879 404.771C91.3036 407.175 97.8114 402.937 101.706 406.702C110.538 414.041 123.602 424.689 126.744 435.842L126.752 435.85Z" fill="#432E30"/>
<path d="M126.753 435.85C124.453 426.156 114.964 419.394 108.488 412.239C104.152 408.249 98.8063 402.953 92.4748 405.701C89.0606 404.916 97.0752 399.588 98.3174 398.659C102.525 396.447 105.907 402.384 108.568 404.876C115.372 412.672 121.736 420.836 127.843 429.176C130.159 431.42 130.383 434.961 126.753 435.85Z" fill="#634C4C"/>
<path d="M240.952 506.236C243.116 508.752 246.33 507.903 249.071 507.15C251.347 519.136 254.304 531.058 256.211 543.092C252.389 547.659 244.871 548.275 239.221 548.764C239.485 534.647 239.509 520.177 240.952 506.236Z" fill="#634C4C"/>
<path d="M239.211 548.764C244.862 548.267 252.379 547.658 256.202 543.091C260.121 552.465 248.701 556.223 241.472 557.633C236.823 558.835 239.756 551.384 239.211 548.772V548.764Z" fill="#432E30"/>
<path d="M130.118 64.204C132.354 52.4664 143.118 27.9415 157.135 29.3757C165.262 37.3557 170.447 47.9075 176.258 57.5941C178.758 62.6817 183.15 67.7774 184.264 73.1935C178.101 74.3313 172.916 78.7218 167.706 81.8065C163.972 74.139 156.662 43.9736 146.813 45.4478C136.225 51.3848 135.52 66.159 133.957 76.9752C133.028 84.6908 133.476 92.5026 133.5 100.258C132.835 105.674 136.714 113.118 131.128 116.611C127.153 99.481 127.474 81.4139 130.11 64.204H130.118Z" fill="#634C4C"/>
<path d="M296.838 61.9927C300.957 76.2221 300.228 91.429 296.67 105.698C290.41 102.421 294.273 95.2187 293.768 89.6903C293.945 82.8641 293.343 76.0859 291.997 69.3798C289.432 57.6502 284.479 44.0938 273.003 38.5175C261.758 33.9266 263.129 66.1029 261.67 72.793C256.405 69.6843 250.314 68.3944 244.15 67.9377C246.146 60.847 251.94 22.5895 259.803 24.1038C278.444 27.1083 291.236 45.2235 296.838 61.9927Z" fill="#634C4C"/>
<path d="M330.587 397.393C317.058 404.011 302.127 408.442 287.116 409.812C301.879 386.561 305.686 350.242 279.574 333.537C285.481 327.384 292.221 322.072 298.072 315.854C300.524 313.667 304.74 317.401 307.513 318.21C336.036 332.944 345.237 369.038 331.067 396.944L331.075 396.92C330.915 397.08 330.755 397.233 330.587 397.393Z" fill="#BAAAAD"/>
<path d="M320.93 292.147C327.005 284.784 333.841 278.038 339.796 270.53C344.749 264.113 357.164 270.338 363.166 273.15C390.76 289.879 395.529 326.502 386.761 355.169C380.213 362.917 372.672 370.673 364.385 376.489C375.605 341.982 364.457 292.732 320.922 292.155L320.93 292.147Z" fill="#BAAAAD"/>
<path d="M320.929 292.146C347.986 292.05 366.844 315.325 368.007 341.14C358.413 348.086 348.371 355.642 337.247 359.784C333.704 339.554 319.302 321.078 299.402 314.9C305.942 307.041 313.756 299.646 320.937 292.146H320.929Z" fill="#634C4C"/>
<path d="M390.509 318.898C387.544 294.261 370 267.325 342.727 267.83C348.481 259.321 356.063 251.557 362.779 243.641C388.465 241.118 408.622 263.944 414.825 286.962C408.285 298.259 400.559 310.638 390.509 318.898Z" fill="#634C4C"/>
<path d="M414.827 286.963C408.624 263.944 388.468 241.11 362.781 243.642C368.52 236.159 374.418 228.283 381.679 222.186C402.461 224.525 422.049 236.535 430.448 256.165C431.393 259.53 433.485 262.446 431.85 266.035C428.829 279.56 424.878 293.236 418.578 305.559C416.727 299.662 417.649 292.756 414.827 286.963Z" fill="#BAAAAD"/>
<path d="M383.538 123.685C377.054 124.038 375.219 119.872 376.926 114.199C377.158 103.439 374.738 91.6852 365.369 85.1714C364.623 84.3702 363.093 83.7052 363.277 82.4393C381.614 76.903 381.213 98.167 383.554 110.257C389.973 101.34 394.077 90.0027 400.777 80.869C403.798 73.594 411.204 72.8008 418.208 73.3136C420.741 73.7863 414.53 78.6737 414.337 80.236C406.668 89.0412 398.669 97.9827 391.969 107.485C391.761 107.549 391.488 107.581 391.801 107.87C391.873 107.757 391.953 107.653 392.025 107.541C405.057 100.659 424.628 79.587 439.824 89.2576C426.84 97.6061 409.801 104.593 395.279 111.988C396.016 113.013 398.084 112.116 399.27 112.076C410.322 109.768 421.358 106.964 432.474 105.129L432.45 105.097C423.177 122.876 398.036 113.23 383.546 123.669L383.538 123.685Z" fill="#634C4C"/>
<path d="M430.448 256.165C422.049 236.535 402.469 224.517 381.68 222.185C412.471 194.007 439.609 212.94 433.758 252.207C431.971 252.663 431.923 255.155 430.448 256.173V256.165Z" fill="#634C4C"/>
<path d="M337.246 359.776C348.37 355.642 358.412 348.087 368.006 341.132C368.959 353.022 367.853 365.192 364.399 376.441C354.701 384.654 343.032 392.778 331.059 396.936C336.076 385.183 339.298 372.604 337.246 359.768V359.776Z" fill="#867273"/>
<path d="M298.632 370.704C299 384.437 294.087 398.186 287.115 409.811C286.866 409.875 286.626 409.947 286.385 410.011C281.977 387.802 266.125 369.543 263.039 346.892C268.866 342.854 273.891 337.631 279.573 333.544C280.591 334.979 282.29 335.612 283.492 336.869C278.868 342.398 277.593 350.818 277.193 357.973C276.704 369.543 289.944 370.736 298.624 370.712L298.632 370.704Z" fill="#867273"/>
<path d="M414.827 286.963C417.648 292.756 416.734 299.662 418.577 305.559C410.98 323.634 399.896 340.652 386.76 355.161C389.597 343.296 392.049 331.157 390.511 318.899C400.561 310.638 408.287 298.26 414.827 286.963Z" fill="#867273"/>
<path d="M430.445 256.164C431.928 255.147 431.968 252.663 433.755 252.198C433.499 255.491 433.459 258.952 432.457 262.077C432.393 259.97 430.598 258.319 430.445 256.164Z" fill="#867273"/>
<path d="M432.475 105.137C432.539 105.081 432.603 105.017 432.666 104.961C432.69 105.144 432.435 105.073 432.475 105.137Z" fill="#634C4C"/>
<path d="M363.926 376.97C363.99 376.706 364.134 376.521 364.407 376.449C364.351 376.722 364.174 376.882 363.926 376.97Z" fill="#BAAAAD"/>
<path d="M330.586 397.393C330.746 397.232 330.907 397.08 331.075 396.92C331.091 397.256 330.85 397.337 330.586 397.393Z" fill="#867273"/>
<path d="M248.14 233.21C249.96 262.502 251.033 291.826 250.553 321.214C248.453 338.552 251.266 362.34 233.762 372.483C210.432 383.66 180.089 367.187 170.624 344.545C172.211 325.949 172.579 305.927 169.197 287.436C170.672 267.253 175.809 247.407 179.159 227.458C200.542 238.314 225.275 237.473 248.14 233.21Z" fill="#F5DCDD"/>
<path d="M301.14 110.874C311.423 120.841 321.297 131.441 330.522 142.337C309.956 135.118 294.641 116.651 274.813 107.26C263.785 101.436 250.104 96.7566 237.938 101.692C224.987 107.949 221.508 125.616 229.827 137.073C248.373 161.686 282.338 170.892 312.048 169.298C311.183 171.966 308.073 173.352 306.614 175.747C301.87 179.617 293.855 176.757 288.061 176.653C270.741 174.586 254.953 166.293 240.198 157.953C239.605 157.191 238.9 156.623 238.451 157.632C237.056 160.204 235.413 162.592 233.234 164.563C223.664 174.161 206.016 174.594 197.761 163.144C196.816 162.399 195.229 158.225 194.147 159.347C177.565 170.644 159.861 182.157 139.6 185.458C134.695 184.48 125.855 173.712 122.016 169.674C151.742 171.317 187.719 161.758 203.508 134.517C207.307 127.09 206.217 118.205 202.241 111.034C191.927 94.2969 169.334 100.731 155.581 109.311C137.805 120.953 124.38 138.547 105.338 148.306C108.536 141.111 115.612 135.463 120.365 128.981C123.94 124.839 127.546 120.729 131.137 116.602C132.619 115.425 134.415 113.999 134.158 111.883C133.717 93.1432 129.43 57.1691 146.821 45.4395C156.839 44.1496 163.868 73.9864 167.715 81.7981C156.975 90.7716 146.22 100.122 137.131 110.698C137.059 110.802 136.899 110.954 136.923 110.994C137.099 111.266 137.228 111.042 137.356 110.922C141.804 108.871 145.996 106.267 150.379 104.064C177.124 89.4016 191.358 87.2944 215.097 108.879C216.251 110.017 217.229 108.038 218.078 107.381C225.676 99.9214 234.259 92.7346 244.438 89.1852C265.412 85.3555 283.717 101.732 301.157 110.866L301.14 110.874ZM216.796 143.907C198.058 144.06 192.376 156.294 213.566 161.229C230.893 161.246 242.218 143.899 216.796 143.907Z" fill="#F2DDDC"/>
<path d="M312.048 169.306C282.346 170.908 248.38 161.686 229.827 137.082C221.492 125.632 224.994 107.958 237.937 101.7C250.112 96.765 263.784 101.444 274.812 107.261C294.64 116.651 309.956 135.119 330.521 142.337C331.579 143.459 329.616 144.909 329.223 146.031C326.947 150.317 323.3 154.019 321.465 158.418C318.179 161.334 315.855 166.462 312.04 169.298L312.048 169.306ZM259.304 132.226C261.596 131.609 270.076 133.027 270.396 130.696C271.815 124.791 268.922 119.992 267.455 114.6C263.408 103.383 247.715 101.444 240.278 110.433C239.068 112.108 236.311 115.417 237.954 117.18C231.301 124.879 238.915 145.959 243.516 137.001C248.685 135.335 253.742 132.427 259.304 132.218V132.226Z" fill="#634C4C"/>
<path d="M105.337 148.315C130.126 136.008 145.57 108.351 173.461 101.789C200.045 93.4401 216.427 123.613 197.857 143.003C178.839 163.297 149.209 171.429 122.016 169.683C120.036 167.527 101.779 149.14 105.337 148.315ZM163.563 124.238C163.178 138.171 164.957 126.73 190.227 137.082C193.738 146.608 204.333 126.482 195.629 116.202C196.535 115.858 196.006 114.776 195.749 114.143C192.047 106.131 181.796 101.853 173.813 106.388C169.253 108.743 166.4 112.621 164.877 117.468C164.044 119.167 162.088 122.708 163.571 124.238H163.563Z" fill="#634C4C"/>
<path d="M248.141 233.21C225.276 237.464 200.535 238.313 179.16 227.457C181.148 202.748 182.775 224.06 217.574 222.177C249.64 220.054 246.915 205.568 248.141 233.218V233.21Z" fill="#D6C5C6"/>
<path d="M202.058 190.802C201.489 184.16 201.281 177.406 201.834 170.892C211.259 176.244 222.343 174.97 231.151 168.977C230.149 177.069 228.089 185.402 224.907 192.765C224.435 192.845 224.37 193.686 224.403 194.167C224.09 194.215 223.906 194.768 223.954 195.136L223.978 195.096C223.537 195.289 223.457 195.665 223.489 196.09C222.76 196.242 222.303 197.444 221.678 197.997C217.774 190.393 209.84 186.636 202.972 193.262C202.106 192.661 202.843 191.459 202.074 190.802H202.058Z" fill="#811227"/>
<path d="M169.197 287.435C172.587 305.935 172.21 325.957 170.624 344.545C164.669 332.479 165.959 317.713 166.761 304.661C166.985 300.391 167.786 296.256 168.115 291.994C168.66 290.56 167.434 288.244 169.197 287.435Z" fill="#F5DCDD"/>
<path d="M231.151 168.97C223.457 173.945 213.727 176.397 205.072 172.343C200.215 170.275 193.972 164.082 194.653 159.019C198.251 163.93 201.986 168.857 208.125 170.66C208.935 170.796 209.696 171.085 209.864 171.918C211.147 172.479 212.341 173.208 213.856 173.208C219.73 173.256 225.236 171.694 230.013 168.248C230.59 167.872 230.702 168.184 231.151 168.97Z" fill="#634C4C"/>
<path d="M202.056 190.802C202.826 191.459 202.088 192.661 202.954 193.262C202.994 201.034 208.652 209.494 216.763 203.638C216.87 204.503 217.359 204.992 218.23 205.104C207.666 218.74 201.367 200.633 202.048 190.802H202.056Z" fill="#634C4C"/>
<path d="M231.094 168.937C230.228 166.83 227.912 169.923 226.566 170.315C222.182 172.607 213.326 175.203 209.631 171.269C220.739 173.945 229.643 168.112 237.129 161.294C235.373 164.026 233.314 166.606 231.102 168.937H231.094Z" fill="#432E30"/>
<path d="M218.238 205.104C217.362 204.986 216.873 204.497 216.771 203.637C219.577 201.586 221.027 198.261 223.512 196.058C222.518 199.415 220.618 202.5 218.246 205.104H218.238Z" fill="#432E30"/>
<path d="M237.121 161.294C236.84 161.294 236.568 161.294 236.287 161.294C237.401 160.172 238.355 155.373 240.19 157.969C238.259 157.833 238.531 160.517 237.113 161.302L237.121 161.294Z" fill="#867273"/>
<path d="M224.395 194.159C224.411 193.614 224.322 193.037 224.932 192.709C224.932 193.254 224.819 193.759 224.395 194.159Z" fill="#432E30"/>
<path d="M223.479 196.09C223.455 195.666 223.527 195.289 223.968 195.097C223.968 195.505 223.936 195.906 223.479 196.09Z" fill="#432E30"/>
<path d="M223.945 195.137C223.929 194.72 224.009 194.352 224.41 194.127C224.402 194.528 224.338 194.913 223.945 195.137Z" fill="#432E30"/>
<path d="M224.899 192.765C224.882 192.357 224.955 191.988 225.347 191.756C225.339 192.156 225.267 192.525 224.899 192.765Z" fill="#432E30"/>
<path d="M201.68 173.688C201.736 173.857 201.881 174.017 201.656 174.121C201.584 173.977 201.592 173.833 201.68 173.688Z" fill="#634C4C"/>
<path d="M320.848 158.882C321.008 158.642 321.152 158.37 321.513 158.41C321.409 158.738 321.144 158.834 320.848 158.882Z" fill="#4FDBE3"/>
<path d="M37.5442 67.7612C38.1052 68.3701 37.5843 68.7227 37.0312 68.3301C37.1996 68.1378 37.3759 67.9535 37.5442 67.7612Z" fill="#FEFEFE"/>
<path d="M301.14 110.874C266.309 90.9881 249.422 73.9064 216.539 108.895C214.824 110.009 213.189 106.684 211.698 105.923C206 100.843 199.46 97.2054 192.407 94.4493C172.884 87.4308 154.474 103.431 137.355 110.938C137.283 110.858 137.203 110.786 137.131 110.714C141.258 106.075 174.214 70.7417 178.229 79.0181C176.899 80.4603 175.617 81.8544 175.993 83.9535C176.226 85.0592 175.993 87.6631 177.74 86.1568C182.341 82.4953 187.454 79.6991 192.888 77.4958C198.698 74.4352 202.113 77.4317 199.131 69.9405C210.929 69.0431 222.83 66.8318 234.635 67.8093C232.888 74.3551 234.347 72.8649 239.773 74.3872C246.489 76.0456 252.46 79.4988 258.471 82.6556C260.33 79.1143 257.677 76.278 254.832 74.4032C254.608 72.6085 253.758 72.7848 252.428 72.8008V72.8649C252.548 72.1598 252.067 71.7111 251.738 71.1904C250.921 68.8028 253.854 71.1182 253.886 69.5399C256.876 69.6921 259.048 71.8954 261.668 72.7928C272.464 81.6381 282.362 92.3662 292.901 101.292C294.768 105.161 298.607 107.453 301.148 110.882L301.14 110.874Z" fill="#BAAAAD"/>
<path d="M184.264 73.2012C184.729 73.3294 184.858 73.6819 184.89 74.1065C182.67 75.749 180.442 77.3835 178.221 79.0259C177.404 77.6959 176.178 77.3274 174.703 77.4956C177.588 75.5567 180.858 73.778 184.264 73.2012Z" fill="#D6C5C6"/>
<path d="M292.901 101.284C282.626 93.2156 274.139 82.183 263.215 74.5475C259.681 70.3653 263.432 61.8885 263.215 56.4804C264.754 32.901 273.826 32.7247 285.712 51.537C293.815 66.6717 294.881 84.5225 292.901 101.284Z" fill="#F2DDDC"/>
<path d="M243.301 68.1139C246.811 67.8095 250.434 68.7709 253.88 69.5401C253.856 71.1184 250.915 68.8029 251.732 71.1905C252.061 71.7033 252.542 72.16 252.413 72.857C249.376 71.2787 246.338 69.6923 243.309 68.1139H243.301Z" fill="#D6C5C6"/>
<path d="M298.632 370.704C289.96 370.728 276.704 369.534 277.201 357.965C277.594 350.81 278.876 342.398 283.492 336.861C294.112 344.633 299.193 357.773 298.624 370.704H298.632Z" fill="#634C4C"/>
<path d="M392.026 107.541C391.954 107.654 391.874 107.758 391.801 107.87C391.481 107.581 391.761 107.549 391.97 107.485L392.034 107.549L392.026 107.541Z" fill="#4FDBE3"/>
<path d="M216.797 143.916C242.227 143.916 230.878 161.262 213.567 161.238C192.377 156.303 198.067 144.068 216.797 143.916Z" fill="#432E30"/>
<path d="M137.349 110.938C137.117 111.307 136.708 111.058 137.125 110.714C137.205 110.786 137.277 110.866 137.349 110.938Z" fill="#BAAAAD"/>
<path d="M267.687 116.683C270.492 121.017 271.133 125.713 270.396 130.696C270.083 133.036 261.588 131.601 259.304 132.226C259.648 129.823 260.818 127.788 260.089 125.168C255.809 128.308 249.855 123.029 253.99 119.055C254.527 118.542 256.202 117.765 255.016 117.044C241.215 109.264 230.291 129.326 243.523 137.001C240.277 143.7 235.645 132.923 235.364 129.454C232.391 111.435 257.027 101.204 267.695 116.683H267.687Z" fill="#F9F8F9"/>
<path d="M243.515 137.002C230.291 129.318 241.207 109.264 255.008 117.044C256.202 117.765 254.511 118.55 253.982 119.055C249.846 123.029 255.809 128.309 260.081 125.16C260.802 127.78 259.64 129.815 259.295 132.219C253.733 132.427 248.676 135.335 243.507 137.002H243.515Z" fill="#432E30"/>
<path d="M267.689 116.683C260.051 106.203 244.807 106.636 237.947 117.18C236.047 111.483 245.2 105.586 250.417 104.817C257.71 103.447 267.192 108.879 267.681 116.683H267.689Z" fill="#432E30"/>
<path d="M174.905 132.266C172.028 131.545 165.488 133.116 163.941 130.816C160.992 118.302 172.853 105.675 186.197 109.753C209.303 116.899 194.701 148.467 190.237 137.09C205.384 129.038 191.006 108.038 178.688 117.765C184.691 120.937 180.299 128.805 174.023 125.192C173.647 127.7 174.288 129.919 174.913 132.274L174.905 132.266Z" fill="#F9F8F9"/>
<path d="M174.904 132.266C174.287 129.911 173.646 127.699 174.015 125.184C180.298 128.797 184.682 120.929 178.679 117.756C191.005 108.038 205.367 129.037 190.228 137.081C184.994 135.872 180.226 133.204 174.904 132.266Z" fill="#432E30"/>
<path d="M195.622 116.21C186.325 103.359 165.511 109.28 163.564 124.246C162.057 122.748 164.061 119.151 164.87 117.476C166.401 112.629 169.246 108.751 173.806 106.396C181.789 101.861 192.039 106.131 195.742 114.151C196.006 114.784 196.527 115.866 195.622 116.21Z" fill="#432E30"/>
<path d="M221.669 197.997C214.8 209.767 203.308 207.034 202.963 193.262C209.839 186.636 217.766 190.401 221.669 197.997Z" fill="#F75C6D"/>
<path d="M178.223 79.0182C183.945 74.3873 190.421 70.9341 196.945 67.5771C198.411 66.7839 198.588 69.0353 199.133 69.9326C202.122 77.4239 198.684 74.4434 192.889 77.488C187.456 79.6913 182.342 82.4955 177.742 86.149C175.987 87.6552 176.227 85.0513 175.995 83.9457C175.618 81.8385 176.892 80.4524 178.231 79.0102L178.223 79.0182Z" fill="#432E30"/>
<path d="M243.3 68.1139C246.337 69.6922 249.375 71.2786 252.404 72.857C252.404 72.857 252.412 72.7929 252.421 72.7929C255.658 75.1725 260.956 77.7844 258.463 82.6477C236.864 69.2275 230.429 78.5455 235.646 65.1494C238.355 65.8625 240.767 67.1524 243.3 68.1219V68.1139Z" fill="#432E30"/>
<path d="M254.834 74.3955C253.985 73.9388 253.079 73.5543 252.43 72.7931C253.76 72.7771 254.61 72.6008 254.834 74.3955Z" fill="#D6C5C6"/>
</g>
<defs>
<clipPath id="clip0_2635_144">
<rect width="454" height="573" fill="white"/>
</clipPath>
</defs>
</svg>
