<svg width="224" height="236" viewBox="0 0 224 236" fill="none" xmlns="http://www.w3.org/2000/svg">
<mask id="mask0_794_5264" style="mask-type:alpha" maskUnits="userSpaceOnUse" x="0" y="0" width="224" height="236">
<rect width="224" height="236" rx="20" fill="url(#paint0_linear_794_5264)"/>
</mask>
<g mask="url(#mask0_794_5264)">
<path d="M235.913 154.955C235.818 156.893 235.586 158.992 235.232 161.271C235.217 161.319 235.217 161.351 235.217 161.404C235.085 162.176 234.958 162.949 234.795 163.715C233.624 169.77 231.593 176.283 228.719 182.812C228.461 183.435 228.181 184.058 227.891 184.682C224.362 192.297 219.668 199.859 213.803 206.702C210.618 210.408 207.111 213.907 203.224 217.07C198.493 220.942 193.261 224.324 187.475 227.029C181.283 229.947 174.49 232.067 167.08 233.164C161.326 234.032 155.218 234.277 148.699 233.787C148.699 233.787 146.637 232.083 144.733 229.308C141.221 224.174 138.267 215.377 150.097 206.926C150.213 206.846 150.34 206.744 150.472 206.665C154.406 203.922 158.562 200.476 162.808 196.573C164.464 195.045 166.141 193.458 167.813 191.78C169.242 190.369 170.687 188.91 172.138 187.413C175.55 183.872 178.947 180.16 182.28 176.39C185.756 172.47 189.136 168.497 192.322 164.642C195.734 160.526 198.951 156.537 201.847 152.894C203.34 151.009 204.737 149.22 206.072 147.526C206.151 147.43 206.219 147.345 206.298 147.249C206.805 146.61 207.306 145.987 207.844 145.396C208.772 144.315 209.743 143.314 210.734 142.408C222.653 131.46 237.099 133.116 235.913 154.955Z" fill="#8A4FEC"/>
<path d="M210.729 142.412C225.777 144.132 233.034 153.563 235.207 161.397C235.212 161.349 235.222 161.312 235.228 161.258C239.69 133.508 223.714 130.489 210.729 142.412Z" fill="#8A4FEC"/>
<path d="M192.312 164.651C206.114 163.256 221.52 181.895 213.793 206.701C220.148 199.293 225.117 191.028 228.729 182.806C228.392 168.166 217.19 150.826 201.847 152.898C198.946 156.551 195.74 160.529 192.312 164.651Z" fill="#8A4FEC"/>
<path d="M172.127 187.428C184.812 190.703 197.127 208.192 187.475 227.043C193.25 224.338 198.493 220.951 203.213 217.08C208.445 203.01 205.365 176.793 182.275 176.41C178.947 180.164 175.545 183.876 172.127 187.428Z" fill="#8A4FEC"/>
<path d="M150.092 206.94L144.739 229.312C146.643 232.091 148.705 233.785 148.705 233.785C155.208 234.275 161.331 234.035 167.085 233.178C172.766 223.651 177.085 205.038 162.803 196.587C158.578 200.48 154.417 203.926 150.477 206.668C150.34 206.753 150.213 206.849 150.092 206.94Z" fill="#8A4FEC"/>
<path d="M234.795 163.715C233.624 169.77 231.593 176.283 228.719 182.812C228.461 183.435 228.181 184.058 227.891 184.682C224.362 192.297 219.668 199.859 213.803 206.702C210.618 210.408 207.111 213.907 203.224 217.07C198.493 220.942 193.261 224.324 187.475 227.029C181.283 229.947 174.49 232.067 167.08 233.164C161.326 234.032 155.218 234.277 148.699 233.787C148.699 233.787 146.637 232.083 144.733 229.308C141.221 224.174 138.267 215.377 150.097 206.926C150.213 206.846 150.34 206.744 150.472 206.665C154.406 203.922 158.562 200.476 162.808 196.573C164.464 195.045 166.141 193.458 167.813 191.78C169.242 190.369 170.687 188.91 172.138 187.413C175.55 183.872 178.947 180.16 182.28 176.39C185.756 172.47 189.136 168.497 192.322 164.642C195.734 160.526 198.951 156.537 201.847 152.894C203.34 151.009 204.737 149.22 206.072 147.526C206.151 147.43 206.219 147.345 206.298 147.249C206.805 146.61 207.306 145.987 207.844 145.396C197.67 170.452 204.721 191.418 219.642 181.396C227.347 176.204 231.999 169.738 234.795 163.715Z" fill="#8A4FEC"/>
<path d="M84.8671 185.294C82.1507 188.644 77.9422 191.775 73.2956 194.352C64.0341 199.502 53.0797 202.458 48.8552 200.408C39.1877 195.732 33.4389 179.931 30.0422 164.062C30.0422 164.046 30.0264 164.046 30.0422 164.03C25.9495 144.88 25.2797 125.634 25.2797 125.634C25.2797 125.634 28.3176 123.583 29.325 122.305C42.7635 139.975 64.5721 151.494 64.5721 151.494L78.7754 130.246C83.5852 132.967 86.1223 137.712 87.2562 143.585C87.3196 143.9 87.3721 144.209 87.4198 144.539C89.4346 156.217 86.349 171.986 84.8671 185.294Z" fill="#8A4FEC"/>
<path d="M84.8664 185.295C76.7391 195.285 55.194 203.476 48.8545 200.408C39.187 195.732 33.4387 179.931 30.0422 164.062C35.3901 177.961 45.6111 196.435 55.4105 192.036C67.9577 186.392 81.4437 166.672 81.217 141.318C81.217 141.318 83.9804 141.972 87.2609 143.581C89.5975 155.35 86.38 171.63 84.8664 185.295Z" fill="#8A4FEC"/>
<path d="M204.147 125.633C204.147 125.633 203.482 144.879 199.384 164.029C199.4 164.045 199.384 164.045 199.384 164.061C195.988 179.926 190.234 195.731 180.566 200.407C175.656 202.787 161.6 198.404 151.738 191.663C148.879 189.692 146.374 187.546 144.554 185.299C143.04 171.698 139.86 155.519 142.133 143.771C142.149 143.707 142.149 143.654 142.165 143.59C142.814 140.278 143.906 137.306 145.593 134.878C145.593 134.878 145.593 134.878 145.593 134.862C146.912 132.993 148.568 131.432 150.646 130.25L164.849 151.498C164.849 151.498 186.658 139.98 200.096 122.31C201.104 123.583 204.147 125.633 204.147 125.633Z" fill="#8A4FEC"/>
<path d="M144.549 185.294C152.677 195.285 174.221 203.475 180.561 200.408C190.228 195.732 195.982 179.931 199.379 164.062C194.031 177.961 183.81 196.435 174.011 192.036C161.463 186.391 146.369 165.223 144.343 139.229C144.343 139.229 138.225 142.004 134.94 143.612C132.603 155.376 143.041 171.629 144.549 185.294Z" fill="#8A4FEC"/>
<path d="M113.516 243.41C91.9658 245.721 71.4285 240.604 67.8683 226.262C67.1037 223.163 67.4623 219.078 68.438 214.12C69.5456 208.592 71.3967 201.946 73.2953 194.347C76.8871 180.038 80.6422 162.304 79.7773 142.004C79.6137 138.18 79.2922 134.245 78.7699 130.24C78.7699 130.24 82.6201 129.436 88.4902 128.419C101.248 126.219 123.495 123.051 136.184 125.234C142.181 126.251 146.031 128.467 145.725 132.551C145.678 133.276 145.625 134.043 145.593 134.847C145.593 134.863 145.593 134.863 145.593 134.863C145.53 137.126 145.562 139.704 145.688 142.526C146.258 155.52 148.795 173.802 151.733 191.652C152.787 198.054 153.911 204.386 154.997 210.424C155.372 212.491 155.746 214.541 156.121 216.527C161.437 245.215 135.066 241.115 113.516 243.41Z" fill="#8A4FEC"/>
<path d="M142.93 221.917C134.823 240.082 89.1758 235.225 83.0787 218.077C77.2614 201.654 93.7061 169.084 88.4899 128.424C101.248 126.225 123.494 123.056 136.184 125.24C134.966 157.251 150.809 204.231 142.93 221.917Z" fill="#8A4FEC"/>
<path d="M24.6891 125.778C28.1964 127.013 37.8322 115.164 37.8322 115.164L29.5572 103.741C29.5572 103.741 28.1964 105.115 28.1964 107.336C28.1964 109.557 33.5392 114.738 33.5392 114.738L26.6406 118.935L20.0215 111.985C20.0215 111.985 26.6194 109.338 27.458 107.437C28.2966 105.531 27.5635 100.983 27.5635 100.983C27.5635 100.983 16.5617 110.292 16.7726 111.032C16.9836 111.772 20.9656 118.226 20.9656 118.226C20.9656 118.226 18.8717 120.234 19.916 121.821C20.9708 123.419 24.6891 125.778 24.6891 125.778Z" fill="#8A4FEC"/>
<path d="M22.0778 118.605C22.0778 118.605 11.4768 105.946 7.6214 104.61C3.76599 103.273 -1.62944 104.892 -1.62944 104.892L22.9323 120.415L22.0778 118.605Z" fill="#8A4FEC"/>
<path d="M22.0778 118.605C22.0778 118.605 5.23777 114.6 2.64287 114.067C0.0480118 113.534 -4.00781 117.55 -4.00781 117.55C-4.00781 117.55 18.4073 121.405 22.1836 122.114C25.9651 122.817 22.0778 118.605 22.0778 118.605Z" fill="#8A4FEC"/>
<path d="M204.726 125.778C201.219 127.013 191.583 115.164 191.583 115.164L199.858 103.741C199.858 103.741 201.219 105.115 201.219 107.336C201.219 109.557 195.876 114.738 195.876 114.738L202.775 118.935L209.394 111.985C209.394 111.985 202.796 109.338 201.958 107.437C201.119 105.531 201.852 100.983 201.852 100.983C201.852 100.983 212.854 110.292 212.643 111.032C212.432 111.772 208.45 118.226 208.45 118.226C208.45 118.226 210.544 120.234 209.5 121.821C208.45 123.419 204.726 125.778 204.726 125.778Z" fill="#8A4FEC"/>
<path d="M207.338 118.605C207.338 118.605 217.939 105.946 221.794 104.61C225.649 103.273 231.045 104.892 231.045 104.892L206.483 120.415L207.338 118.605Z" fill="#8A4FEC"/>
<path d="M207.337 118.604C207.337 118.604 224.178 114.6 226.773 114.067C229.367 113.534 233.423 117.55 233.423 117.55C233.423 117.55 211.008 121.405 207.232 122.114C203.456 122.817 207.337 118.604 207.337 118.604Z" fill="#8A4FEC"/>
<path d="M155.815 137.972C152.582 139.729 149.201 141.253 145.689 142.536C144.518 142.978 143.331 143.388 142.129 143.766C124.808 149.326 105.125 149.56 87.4147 144.538C84.8146 143.835 82.2618 142.978 79.7776 142.014C77.4203 141.13 75.1314 140.145 72.8896 139.043L78.7703 130.25C78.7703 130.25 82.6205 129.446 88.4906 128.429C101.249 126.229 123.495 123.061 136.185 125.244C142.181 126.261 146.032 128.477 145.726 132.561C145.678 133.286 145.626 134.053 145.594 134.857C146.912 132.988 148.569 131.427 150.646 130.245L155.815 137.972Z" fill="#8A4FEC"/>
<path d="M133.077 55.2106C133.077 55.2106 148.858 25.2925 152.402 24.9677C155.946 24.6429 166.573 32.7694 169.147 49.6828C171.726 66.5909 168.019 82.6897 168.019 82.6897L133.077 55.2106Z" fill="#8A4FEC"/>
<path d="M143.483 63.6668C143.483 63.6668 151.437 38.4672 156.104 35.8631C160.772 33.2643 169.632 45.2944 165.925 80.8997C156.426 81.0598 143.483 63.6668 143.483 63.6668Z" fill="#8A4FEC"/>
<path d="M98.1836 56.8133C98.1836 56.8133 91.6491 23.567 88.3474 22.2196C85.0511 20.8723 72.5459 25.5534 65.2362 40.9863C57.9261 56.4194 63.7331 75.3352 63.7331 75.3352L98.1836 56.8133Z" fill="#8A4FEC"/>
<path d="M85.8056 61.8673C85.8056 61.8673 85.4098 35.4213 81.6864 31.5657C77.963 27.7101 61.1068 41.226 66.2596 74.2327C75.3046 77.1616 85.8056 61.8673 85.8056 61.8673Z" fill="#8A4FEC"/>
<path d="M185.286 101.867C185.286 101.867 181.03 107.607 173.995 115.073C171.035 118.226 167.592 121.688 163.741 125.165C150.545 137.062 132.898 149.023 115.415 148.677C96.1426 148.315 74.6613 137.025 58.1637 120.026C56.5232 118.338 54.9305 116.581 53.4012 114.775C48.9339 109.556 44.9518 103.88 41.6187 97.9097C41.6187 97.9097 49.356 89.1974 58.6648 79.287C70.2363 66.9959 84.2602 52.8677 88.9699 51.4085C97.4507 48.7831 117.05 49.1133 134.032 53.0647C142.418 55.0351 155.028 66.9639 165.64 78.5307C171.278 84.6816 176.347 90.7207 179.923 95.1195L179.938 95.1353C183.251 99.2093 185.286 101.867 185.286 101.867Z" fill="#8A4FEC"/>
<path d="M99.444 106.233C106.527 125.612 127.376 119.493 128.22 107.511C122.144 104.15 99.444 106.233 99.444 106.233Z" fill="#8A4FEC"/>
<path d="M185.286 101.867C185.286 101.867 176.658 113.481 163.736 125.165C147.439 123.541 127.84 107.9 127.84 107.9C127.84 107.9 124.307 116.906 114.022 116.346C103.753 115.771 99.8241 106.617 99.8241 106.617C99.8241 106.617 80.663 121.325 58.1582 120.026C51.7556 113.412 46.1017 105.946 41.6133 97.91C41.6133 97.91 49.3505 89.1974 58.6594 79.287C73.7541 68.5722 87.0976 62.1074 94.6027 63.2577C103.199 64.589 114.592 76.6616 114.592 76.6616C114.592 76.6616 126.749 64.5835 137.766 65.8989C143.663 66.6071 155.709 72.8698 165.635 78.5307C176.51 90.3959 185.286 101.867 185.286 101.867Z" fill="#8A4FEC"/>
<path d="M53.3957 114.78C48.9285 109.561 44.9467 103.884 41.6133 97.9148C50.1101 95.8004 63.8913 81.7682 78.97 74.2379C92.1976 67.6238 105.863 68.3802 108.431 83.0142C111.459 100.189 79.8349 117.352 53.3957 114.78Z" fill="#8A4FEC"/>
<path d="M185.286 101.867C185.286 101.867 181.03 107.607 173.995 115.073C148.383 117.566 118.126 100.881 121.037 83.8183C123.558 69.1681 136.864 68.2628 149.749 74.744C156.753 78.2479 166.69 88.1958 174.749 94.943C179.849 99.2141 185.286 101.867 185.286 101.867Z" fill="#8A4FEC"/>
<path d="M80.2675 83.904C86.6544 79.0417 96.011 77.3694 96.011 77.3694L94.7503 72.1562C94.7503 72.1562 80.9848 77.9341 80.1042 80.7831C79.6505 82.5352 80.2675 83.904 80.2675 83.904Z" fill="#8A4FEC"/>
<path d="M104.418 102.521C105.13 97.3237 122.176 97.1372 124.544 102.846C126.501 107.564 114.708 110.014 114.708 110.014C114.708 110.014 103.754 107.394 104.418 102.521Z" fill="#8A4FEC"/>
<path d="M80.2832 91.1879C88.8274 82.7633 98.2733 90.0697 100.689 92.5089C96.9652 79.5148 84.5026 79.616 80.2832 91.1879Z" fill="#8A4FEC"/>
<path d="M147.903 83.904C141.516 79.0417 132.16 77.3694 132.16 77.3694L133.42 72.1562C133.42 72.1562 147.186 77.9341 148.067 80.7831C148.515 82.5352 147.903 83.904 147.903 83.904Z" fill="#8A4FEC"/>
<path d="M147.887 91.1879C139.343 82.7633 129.897 90.0697 127.482 92.5089C131.2 79.5148 143.668 79.616 147.887 91.1879Z" fill="#8A4FEC"/>
<path d="M113.516 243.41C91.9658 245.721 71.4285 240.604 67.8683 226.262C67.1037 223.163 67.4623 219.078 68.438 214.12C83.29 198.021 95.6735 208.624 110.589 230.496C128.415 208.523 144.697 200.338 155.003 210.43C155.377 212.496 155.751 214.546 156.126 216.533C161.437 245.215 135.066 241.114 113.516 243.41Z" fill="#8A4FEC"/>
<path d="M169.1 243.506C139.048 260.115 102.725 258.869 102.725 258.869L101.702 255.36C101.702 255.36 118.252 233.265 130.794 220.686C135.451 216.005 139.56 212.634 142.044 212.197C153.795 210.137 164.158 228.456 167.776 238.676C168.494 240.667 168.953 242.35 169.1 243.506Z" fill="#8A4FEC"/>
<path d="M169.1 243.507C139.048 260.116 102.725 258.87 102.725 258.87L101.702 255.361C101.702 255.361 118.252 233.266 130.794 220.687C127.941 227.099 123.79 239.097 128.716 246.217C134.175 254.088 157.771 243.608 167.781 238.676C168.494 240.668 168.953 242.351 169.1 243.507Z" fill="#8A4FEC"/>
<path d="M123.51 254.241L122.44 257.735C122.44 257.735 86.1219 258.374 56.3337 241.295C56.3337 241.279 56.3177 241.279 56.3177 241.279C57.3724 234.159 69.8722 207.724 83.8805 210.435C90.22 211.665 106.696 232.061 116.285 244.597C120.588 250.205 123.51 254.241 123.51 254.241Z" fill="#8A4FEC"/>
<path d="M123.51 254.241L122.44 257.735C122.44 257.735 86.1226 258.374 56.3344 241.296C69.43 248.416 114.329 255.914 116.28 244.592C120.589 250.205 123.51 254.241 123.51 254.241Z" fill="#8A4FEC"/>
<path d="M102.725 258.865C105.103 257.325 98.1097 244.14 93.8483 243.405C89.5866 242.675 86.2904 244.321 86.2904 244.321C86.2904 244.321 99.9768 260.643 102.725 258.865Z" fill="#8A4FEC"/>
<path d="M122.44 257.729C120.088 256.153 127.292 243.079 131.564 242.424C135.836 241.764 139.106 243.468 139.106 243.468C139.106 243.468 125.156 259.556 122.44 257.729Z" fill="#8A4FEC"/>
<path d="M228.407 154.665C228.311 156.593 228.079 158.679 227.724 160.946C227.708 160.994 227.708 161.025 227.708 161.078C227.576 161.846 227.449 162.614 227.284 163.377C226.11 169.398 224.072 175.875 221.188 182.368C220.928 182.987 220.648 183.607 220.357 184.227C216.816 191.8 212.105 199.32 206.22 206.125C203.023 209.811 199.504 213.29 195.603 216.436C190.855 220.286 185.605 223.649 179.799 226.339C173.586 229.241 166.769 231.349 159.333 232.44C153.558 233.303 147.43 233.547 140.888 233.06C140.888 233.06 138.819 231.365 136.908 228.606C133.383 223.501 130.419 214.752 142.291 206.348C142.407 206.268 142.534 206.167 142.666 206.088C146.615 203.361 150.785 199.934 155.046 196.052C156.708 194.532 158.391 192.954 160.068 191.286C161.503 189.883 162.953 188.431 164.408 186.943C167.833 183.421 171.241 179.73 174.586 175.981C178.074 172.083 181.466 168.132 184.663 164.298C188.087 160.205 191.316 156.238 194.222 152.615C195.719 150.741 197.122 148.961 198.461 147.277C198.54 147.182 198.609 147.097 198.688 147.002C199.197 146.366 199.699 145.747 200.239 145.159C201.171 144.084 202.145 143.088 203.14 142.188C215.101 131.3 229.597 132.947 228.407 154.665Z" fill="#BAA8A9"/>
<path d="M202.922 142.215C218.14 143.932 225.48 153.346 227.678 161.166C227.683 161.118 227.694 161.081 227.699 161.027C232.212 133.327 216.055 130.313 202.922 142.215Z" fill="#634C4B"/>
<path d="M184.891 164.852C198.846 163.453 214.423 182.138 206.611 207.006C213.037 199.58 218.06 191.294 221.713 183.051C221.372 168.375 210.045 150.992 194.532 153.069C191.599 156.731 188.357 160.719 184.891 164.852Z" fill="#634C4B"/>
<path d="M164.594 187.152C177.197 190.408 189.435 207.798 179.844 226.544C185.583 223.854 190.792 220.487 195.482 216.637C200.681 202.646 197.62 176.576 174.677 176.195C171.37 179.928 167.99 183.62 164.594 187.152Z" fill="#634C4B"/>
<path d="M142.168 206.872L136.793 229.319C138.705 232.108 140.775 233.807 140.775 233.807C147.305 234.299 153.453 234.058 159.231 233.198C164.935 223.639 169.272 204.965 154.931 196.485C150.689 200.391 146.511 203.848 142.555 206.6C142.417 206.685 142.29 206.782 142.168 206.872Z" fill="#634C4B"/>
<path opacity="0.4" d="M226.972 163.711C225.802 169.769 223.771 176.284 220.896 182.816C220.637 183.439 220.358 184.062 220.068 184.685C216.539 192.304 211.844 199.869 205.978 206.714C202.792 210.422 199.284 213.922 195.397 217.087C190.665 220.96 185.432 224.343 179.646 227.049C173.453 229.969 166.659 232.089 159.247 233.187C153.492 234.055 147.384 234.3 140.864 233.81C140.864 233.81 138.802 232.105 136.898 229.329C133.384 224.194 130.43 215.393 142.262 206.938C142.378 206.858 142.505 206.757 142.637 206.677C146.572 203.933 150.729 200.486 154.975 196.582C156.631 195.053 158.308 193.465 159.981 191.787C161.41 190.375 162.856 188.915 164.306 187.418C167.719 183.876 171.116 180.162 174.45 176.391C177.926 172.47 181.307 168.495 184.494 164.638C187.906 160.52 191.124 156.53 194.02 152.886C195.513 151 196.911 149.21 198.245 147.516C198.324 147.42 198.393 147.335 198.472 147.239C198.978 146.599 199.479 145.976 200.017 145.385C189.842 170.45 196.895 191.424 211.817 181.398C219.524 176.204 224.177 169.737 226.972 163.711Z" fill="#BAA8A9"/>
<path d="M77.2012 185.195C74.4709 188.551 70.2408 191.688 65.5705 194.27C56.2615 199.43 45.251 202.391 41.0048 200.337C31.2878 195.652 25.5096 179.822 22.0955 163.923C22.0955 163.907 22.0796 163.907 22.0955 163.891C17.9818 144.705 17.3086 125.423 17.3086 125.423C17.3086 125.423 20.3621 123.369 21.3746 122.089C34.8819 139.791 56.8023 151.331 56.8023 151.331L65.1675 138.852L71.0783 130.044C75.9128 132.77 78.4629 137.524 79.6025 143.409C79.6663 143.723 79.719 144.033 79.767 144.364C81.7921 156.064 78.6907 171.862 77.2012 185.195Z" fill="#BAA8A9"/>
<path opacity="0.5" d="M76.4751 185.327C68.373 195.254 46.8947 203.393 40.5748 200.345C30.9372 195.699 25.2063 179.998 21.8203 164.228C27.1516 178.04 37.3414 196.397 47.1105 192.026C59.6188 186.417 73.063 166.821 72.837 141.627C72.837 141.627 75.5919 142.278 78.8623 143.876C81.1916 155.571 77.9841 171.748 76.4751 185.327Z" fill="#BAA8A9"/>
<path d="M196.913 125.418C196.913 125.418 196.245 144.702 192.127 163.889C192.143 163.906 192.127 163.906 192.127 163.921C188.713 179.817 182.93 195.653 173.213 200.338C168.278 202.723 154.152 198.332 144.239 191.577C141.366 189.602 138.849 187.452 137.02 185.201C135.498 171.573 132.302 155.363 134.587 143.592C134.603 143.528 134.603 143.475 134.618 143.411C135.27 140.092 136.368 137.114 138.064 134.681C138.064 134.681 138.064 134.681 138.064 134.665C139.389 132.793 141.054 131.229 143.142 130.044L148.337 137.787L157.417 151.334C157.417 151.334 179.336 139.793 192.842 122.089C193.855 123.364 196.913 125.418 196.913 125.418Z" fill="#BAA8A9"/>
<path opacity="0.5" d="M136.949 185.281C145.057 195.238 166.552 203.4 172.876 200.343C182.521 195.683 188.262 179.937 191.651 164.121C186.315 177.973 176.118 196.384 166.342 192C153.823 186.374 138.764 165.278 136.744 139.373C136.744 139.373 130.64 142.138 127.362 143.741C125.031 155.465 135.444 171.663 136.949 185.281Z" fill="#BAA8A9"/>
<path d="M105.487 243.295C83.9199 245.607 63.3669 240.488 59.804 226.142C59.0388 223.041 59.3977 218.955 60.3741 213.995C61.4826 208.466 63.3351 201.817 65.2351 194.216C68.8297 179.901 72.5876 162.161 71.7221 141.854C71.5583 138.029 71.2366 134.092 70.7139 130.086C70.7139 130.086 74.5671 129.281 80.4417 128.264C93.2096 126.064 115.473 122.894 128.172 125.078C134.173 126.096 138.027 128.312 137.721 132.398C137.673 133.122 137.62 133.89 137.589 134.694C137.589 134.71 137.589 134.71 137.589 134.71C137.525 136.974 137.557 139.553 137.683 142.376C138.254 155.374 140.793 173.663 143.732 191.52C144.788 197.923 145.912 204.257 146.999 210.298C147.374 212.366 147.749 214.416 148.124 216.403C153.444 245.101 127.053 241 105.487 243.295Z" fill="#BAA8A9"/>
<path d="M134.592 221.784C126.511 239.954 81.0062 235.096 74.9281 217.943C69.129 201.514 85.5223 168.935 80.3224 128.264C93.0407 126.064 115.217 122.894 127.867 125.078C126.653 157.098 142.447 204.093 134.592 221.784Z" fill="#F2DDDB"/>
<path d="M16.9545 125.756C20.4583 126.987 30.0844 115.18 30.0844 115.18L21.8176 103.796C21.8176 103.796 20.4583 105.165 20.4583 107.379C20.4583 109.592 25.7956 114.755 25.7956 114.755L18.9039 118.937L12.2916 112.011C12.2916 112.011 18.8829 109.374 19.7206 107.479C20.5583 105.579 19.826 101.047 19.826 101.047C19.826 101.047 8.83519 110.324 9.04596 111.062C9.2567 111.799 13.2347 118.231 13.2347 118.231C13.2347 118.231 11.1429 120.232 12.1862 121.813C13.2399 123.405 16.9545 125.756 16.9545 125.756Z" fill="#634C4B"/>
<path d="M14.194 118.753C14.194 118.753 3.49058 105.941 -0.40204 104.589C-4.29466 103.236 -9.74219 104.874 -9.74219 104.874L15.0566 120.586L14.194 118.753Z" fill="#634C4B"/>
<path d="M14.048 118.46C14.048 118.46 -2.76785 114.41 -5.35898 113.872C-7.95007 113.333 -12 117.394 -12 117.394C-12 117.394 10.3826 121.292 14.1533 122.009C17.9294 122.72 14.048 118.46 14.048 118.46Z" fill="#634C4B"/>
<path d="M197.263 125.756C193.759 126.987 184.133 115.18 184.133 115.18L192.4 103.796C192.4 103.796 193.759 105.165 193.759 107.379C193.759 109.592 188.422 114.755 188.422 114.755L195.314 118.937L201.926 112.011C201.926 112.011 195.334 109.374 194.497 107.479C193.659 105.579 194.391 101.047 194.391 101.047C194.391 101.047 205.382 110.324 205.171 111.062C204.961 111.799 200.983 118.231 200.983 118.231C200.983 118.231 203.074 120.232 202.031 121.813C200.983 123.405 197.263 125.756 197.263 125.756Z" fill="#634C4B"/>
<path d="M200.027 118.753C200.027 118.753 210.73 105.941 214.623 104.589C218.515 103.236 223.963 104.874 223.963 104.874L199.164 120.586L200.027 118.753Z" fill="#634C4B"/>
<path d="M199.419 118.46C199.419 118.46 216.236 114.41 218.827 113.872C221.419 113.333 225.469 117.394 225.469 117.394C225.469 117.394 203.084 121.292 199.313 122.009C195.542 122.72 199.419 118.46 199.419 118.46Z" fill="#634C4B"/>
<path opacity="0.5" d="M148.817 137.621C145.564 139.354 142.164 140.857 138.63 142.123C137.453 142.558 136.259 142.963 135.049 143.336C117.627 148.819 97.8279 149.05 80.013 144.097C77.3976 143.404 74.8298 142.558 72.331 141.608C69.9597 140.736 67.6574 139.764 65.4023 138.677L71.3177 130.005C71.3177 130.005 75.1906 129.212 81.0952 128.209C93.9286 126.039 116.306 122.915 129.07 125.068C135.102 126.071 138.975 128.256 138.668 132.285C138.62 132.999 138.567 133.755 138.535 134.548C139.861 132.705 141.527 131.166 143.617 130L148.817 137.621Z" fill="#BAA8A9"/>
<path d="M125.52 55.4697C125.52 55.4697 141.232 25.483 144.76 25.1574C148.289 24.8318 158.871 32.977 161.433 49.9292C164.002 66.8761 160.31 83.0119 160.31 83.0119L125.52 55.4697Z" fill="#634C4B"/>
<path d="M136.043 63.6333C136.043 63.6333 143.986 38.5943 148.648 36.0068C153.31 33.4245 162.159 45.3779 158.456 80.7563C148.969 80.9153 136.043 63.6333 136.043 63.6333Z" fill="#F2DDDB"/>
<path d="M90.1975 56.9684C90.1975 56.9684 83.63 23.7096 80.3116 22.3618C76.9988 21.014 64.4305 25.6968 57.0839 41.1355C49.7369 56.5742 55.5732 75.4971 55.5732 75.4971L90.1975 56.9684Z" fill="#634C4B"/>
<path d="M77.4267 62.0346C77.4267 62.0346 77.0352 35.6448 73.353 31.7974C69.6708 27.95 53.0011 41.4371 58.097 74.3737C67.0418 77.2963 77.4267 62.0346 77.4267 62.0346Z" fill="#F2DDDB"/>
<path d="M178.124 101.822C178.124 101.822 173.849 107.533 166.783 114.959C163.812 118.095 160.353 121.538 156.486 124.997C143.234 136.83 125.511 148.728 107.952 148.383C88.5976 148.023 67.0241 136.793 50.4558 119.885C48.8083 118.206 47.2087 116.458 45.6729 114.662C41.1864 109.471 37.1872 103.825 33.8398 97.8864C33.8398 97.8864 41.6103 89.2205 50.9591 79.3628C62.5802 67.137 76.6643 53.084 81.3941 51.6326C89.9113 49.0211 109.594 49.3496 126.65 53.28C135.072 55.2399 147.736 67.1052 158.393 78.6105C164.055 84.7287 169.146 90.7356 172.737 95.111L172.753 95.1268C176.079 99.1791 178.124 101.822 178.124 101.822Z" fill="#BAA8A9"/>
<path d="M91.7031 106.178C98.7321 125.067 119.422 119.103 120.259 107.424C114.23 104.148 91.7031 106.178 91.7031 106.178Z" fill="#634C4B"/>
<path d="M178.124 101.953C178.124 101.953 169.458 113.49 156.482 125.095C140.116 123.482 120.433 107.946 120.433 107.946C120.433 107.946 116.885 116.891 106.556 116.335C96.2441 115.764 92.2981 106.671 92.2981 106.671C92.2981 106.671 73.0556 121.281 50.4552 119.99C44.0253 113.421 38.3473 106.005 33.8398 98.0232C33.8398 98.0232 41.61 89.3692 50.9584 79.5256C66.1173 68.8829 79.5176 62.4618 87.0546 63.6043C95.6878 64.9266 107.128 76.9179 107.128 76.9179C107.128 76.9179 119.337 64.9211 130.402 66.2277C136.323 66.9311 148.421 73.1516 158.389 78.7744C169.31 90.5596 178.124 101.953 178.124 101.953Z" fill="#F2DDDB"/>
<path d="M45.598 114.319C41.14 109.153 37.1664 103.534 33.8398 97.6245C42.3191 95.5315 56.0719 81.6411 71.1195 74.1869C84.3198 67.6397 97.9569 68.3884 100.52 82.8745C103.541 99.8753 71.9826 116.866 45.598 114.319Z" fill="#634C4B"/>
<path d="M177.373 101.894C177.373 101.894 173.105 107.625 166.049 115.078C140.366 117.565 110.022 100.911 112.942 83.8792C115.47 69.2555 128.814 68.3518 141.736 74.8213C148.759 78.3189 158.724 88.2488 166.806 94.9838C171.92 99.2472 177.373 101.894 177.373 101.894Z" fill="#634C4B"/>
<path d="M72.4879 84.5149C78.7587 79.5384 87.9451 77.8269 87.9451 77.8269L86.7074 72.4912C86.7074 72.4912 73.1922 78.4048 72.3276 81.3207C71.8821 83.114 72.4879 84.5149 72.4879 84.5149Z" fill="#453131"/>
<path d="M96.9899 102.67C97.6991 97.5396 114.674 97.3555 117.033 102.99C118.981 107.647 107.237 110.065 107.237 110.065C107.237 110.065 96.3282 107.479 96.9899 102.67Z" fill="#453131"/>
<path d="M72.1641 91.4748C80.6598 83.1433 90.052 90.3689 92.454 92.7811C88.7514 79.9307 76.3595 80.0307 72.1641 91.4748Z" fill="#453131"/>
<path d="M140.225 84.5149C133.953 79.5384 124.766 77.8269 124.766 77.8269L126.003 72.4912C126.003 72.4912 139.52 78.4048 140.385 81.3207C140.826 83.114 140.225 84.5149 140.225 84.5149Z" fill="#453131"/>
<path d="M139.798 91.4748C131.302 83.1433 121.91 90.3689 119.508 92.7811C123.205 79.9307 135.602 80.0307 139.798 91.4748Z" fill="#453131"/>
<path opacity="0.2" d="M105.485 243.299C83.9189 245.597 63.3667 240.508 59.804 226.25C59.0388 223.168 59.3977 219.107 60.3741 214.178C75.2368 198.172 87.6293 208.714 102.555 230.459C120.395 208.613 136.688 200.475 147.001 210.509C147.376 212.563 147.751 214.601 148.125 216.576C153.44 245.094 127.05 241.016 105.485 243.299Z" fill="#BAA8A9"/>
<path d="M161.594 242.807C131.437 259.324 94.9876 258.085 94.9876 258.085L93.9609 254.596C93.9609 254.596 110.569 232.624 123.154 220.116C127.828 215.46 131.951 212.109 134.444 211.674C146.235 209.625 156.635 227.842 160.266 238.004C160.985 239.985 161.446 241.658 161.594 242.807Z" fill="#BAA8A9"/>
<path opacity="0.4" d="M161.594 243.424C131.437 260.087 94.9876 258.837 94.9876 258.837L93.9609 255.316C93.9609 255.316 110.569 233.151 123.154 220.533C120.291 226.965 116.126 239.001 121.069 246.143C126.547 254.039 150.226 243.526 160.271 238.578C160.985 240.577 161.446 242.265 161.594 243.424Z" fill="#BAA8A9"/>
<path d="M115.75 253.87L114.672 257.352C114.672 257.352 78.1168 257.989 48.1333 240.966C48.1333 240.95 48.1172 240.95 48.1172 240.95C49.1789 233.853 61.7605 207.504 75.8606 210.205C82.2417 211.432 98.8262 231.762 108.477 244.257C112.809 249.846 115.75 253.87 115.75 253.87Z" fill="#BAA8A9"/>
</g>
<defs>
<linearGradient id="paint0_linear_794_5264" x1="224" y1="236" x2="-50.3541" y2="128.448" gradientUnits="userSpaceOnUse">
<stop stop-color="#9453FF"/>
<stop offset="1" stop-color="#AE7CFF"/>
</linearGradient>
</defs>
</svg>
