<svg width="455" height="346" viewBox="0 0 455 346" fill="none" xmlns="http://www.w3.org/2000/svg">
<g clip-path="url(#clip0_2602_183)">
<mask id="mask0_2602_183" style="mask-type:alpha" maskUnits="userSpaceOnUse" x="-725" y="0" width="1180" height="346">
<rect x="-725" width="1180" height="346" rx="20" fill="#D9D9D9"/>
</mask>
<g mask="url(#mask0_2602_183)">
<path d="M22 285.016C30.66 272.136 39.13 259.126 48.99 247.106C50.24 245.576 51.64 244.166 52.97 242.696C53.49 245.146 51.82 246.786 50.67 248.536C48.28 252.166 46.22 255.946 44.87 260.076C42.06 268.636 44.85 274.506 53.35 277.206C75.68 284.306 98.9 286.796 121.97 289.966C133.76 291.586 145.64 292.376 157.52 293.276C171.97 294.366 186.34 294.386 200.71 292.806C204.11 292.436 207.53 291.356 210.38 289.116C213.08 286.996 213.93 284.886 210.84 282.276C204.52 276.926 198.24 271.516 192.07 265.996C187.69 262.076 182.35 259.196 179.07 254.066C182.11 254.066 184.37 252.056 186.98 250.956C188.55 250.906 189.81 251.436 191.02 252.516C196.21 257.146 201.5 261.676 206.74 266.246C211.95 270.786 216.87 275.976 224.9 274.016C226.82 273.546 228.8 273.316 230.76 273.016C249.85 270.146 267.65 263.606 284.39 254.076C297.87 246.396 309.85 236.726 321 225.996C322.93 227.736 320.61 228.536 320.12 229.696C318.94 232.546 315.83 234.456 315.99 237.986C307.98 246.986 299.98 255.986 291.97 264.986C290.39 264.876 289.14 265.436 287.95 266.526C272.6 280.536 254.86 290.606 235.53 297.996C234 298.576 232.22 298.826 232.01 300.956C230.51 300.956 228.89 301.346 227.53 300.916C219.05 298.226 215.05 303.016 212.14 309.826C210.31 309.866 208.48 309.956 206.65 309.956C155.5 309.956 104.35 309.896 53.2 310.056C47.4 310.076 42.92 308.126 38.83 304.376C32.68 298.746 27.38 292.336 22 286.006V285.006V285.016Z" fill="#8A4FEC"/>
<path d="M422.999 323.016C423.019 322.716 422.979 322.416 422.889 322.126C428.389 315.996 434.379 310.206 437.189 302.146C440.189 297.066 441.479 291.396 442.609 285.706C446.829 264.406 435.079 243.126 415.189 235.936C415.079 233.866 416.679 234.216 417.919 233.956C432.939 230.786 448.199 229.506 463.449 228.076C463.749 229.886 465.429 230.176 466.659 230.936C471.219 233.736 475.459 236.986 478.959 241.036C493.469 257.806 499.119 277.046 494.839 298.986C492.329 306.096 488.969 312.646 483.029 317.586C482.049 318.406 480.839 319.196 480.879 320.756C477.499 322.646 473.359 320.916 470.019 323.016H422.999Z" fill="#8A4FEC"/>
<path d="M80.9414 197.916C83.6214 191.986 86.3014 186.056 88.9814 180.126C89.6014 179.706 90.2114 179.286 90.8314 178.876C92.3714 179.186 93.2214 178.036 94.3214 177.306C118.881 160.776 143.551 144.436 170.041 131.026C192.081 119.866 214.161 118.516 236.451 130.036C238.651 131.176 239.561 131.176 240.151 128.446C241.261 123.236 242.971 118.206 246.141 113.796C246.861 112.786 247.351 111.556 246.021 110.746C237.821 105.796 230.491 99.2459 220.831 96.9759C222.541 86.3959 223.641 75.6759 227.941 65.6859C230.751 59.1459 234.911 57.8559 240.971 61.4659C242.631 62.4559 243.911 64.2259 246.161 64.0359C254.791 75.0359 260.921 87.0359 261.021 101.426C261.061 107.886 261.051 114.356 261.071 120.816C256.791 117.936 257.371 121.936 257.211 123.826C255.781 140.066 261.671 153.276 273.981 163.836C279.141 168.266 285.591 170.666 290.851 174.896C282.451 175.476 274.391 177.396 267.071 181.616C260.761 185.256 260.861 188.896 267.071 192.506C269.801 194.096 272.651 195.476 275.371 197.056C284.638 202.443 293.068 201.266 300.661 193.526C304.571 189.536 308.161 185.386 307.151 179.166C318.341 181.596 329.601 182.836 341.021 180.916C339.961 188.146 337.911 195.056 334.141 201.376C327.391 201.126 320.711 200.416 314.081 199.016C306.081 197.316 306.051 197.466 303.041 204.926C300.861 205.846 300.241 208.106 298.961 209.776C288.771 222.996 276.751 225.326 262.351 216.996C257.431 214.146 253.651 209.906 249.021 206.716C248.441 204.406 247.481 205.126 246.431 206.376C235.131 219.826 221.491 230.546 206.681 239.756C200.431 243.646 194.541 248.426 187.041 249.976C183.681 247.266 180.801 243.936 176.851 241.966C184.741 236.466 193.311 232.026 200.971 226.156C215.101 215.356 228.111 203.606 235.861 187.136C245.621 166.386 235.681 140.066 214.991 132.746C201.501 127.976 189.061 131.266 177.791 139.416C161.261 151.366 147.511 166.396 132.891 180.466C125.481 187.596 118.561 195.296 110.041 201.196C108.391 199.206 106.011 199.366 103.761 198.946C96.2014 197.526 88.5614 198.176 80.9614 197.906L80.9414 197.916Z" fill="#8A4FEC"/>
<path d="M179.072 254.076C182.342 259.206 187.692 262.086 192.072 266.006C198.242 271.526 204.522 276.936 210.842 282.286C213.932 284.906 213.082 287.006 210.382 289.126C207.542 291.356 204.122 292.436 200.712 292.816C186.342 294.396 171.972 294.376 157.522 293.286C145.642 292.386 133.762 291.596 121.972 289.976C98.9019 286.806 75.6819 284.316 53.3519 277.216C44.8519 274.516 42.0719 268.646 44.8719 260.086C46.2219 255.956 48.2819 252.176 50.6719 248.546C51.8219 246.796 53.5019 245.156 52.9719 242.706C58.0719 234.976 65.2819 229.106 71.1419 222.046C72.8419 222.006 73.6719 220.626 74.8419 219.726C83.1719 213.276 91.5019 206.816 103.022 208.026C110.542 210.986 118.192 213.606 125.272 217.606C138.742 225.226 151.422 234.006 163.782 243.276C165.342 244.446 166.662 246.136 168.952 245.846C171.522 249.576 174.652 252.626 179.082 254.066L179.072 254.076Z" fill="#8A4FEC"/>
<path d="M334.109 201.386C337.879 195.066 339.929 188.156 340.989 180.926C340.239 179.826 339.489 178.716 338.749 177.616C347.389 175.286 356.119 173.336 364.939 171.796C365.289 172.136 365.599 172.686 366.009 172.776C378.929 175.636 391.899 178.236 405.019 180.006C406.769 180.246 409.309 179.156 410.039 181.076C410.739 182.916 408.629 184.486 407.489 186.046C402.849 192.436 401.199 199.926 399.639 207.526C401.749 205.386 403.209 202.896 404.799 200.506C410.929 191.276 419.639 185.916 430.629 186.306C443.069 186.746 454.499 191.436 465.289 197.586C470.219 200.396 475.189 203.146 480.149 205.926C472.459 196.566 462.329 190.446 451.749 182.946C463.229 183.276 473.299 182.756 483.269 180.866C489.539 187.436 494.019 195.196 497.909 203.286C499.289 206.156 501.159 207.446 504.229 208.056C513.289 209.836 522.479 211.176 530.989 215.096C525.749 218.676 519.299 220.636 515.859 226.626C515.089 227.966 513.639 227.476 512.289 227.446C507.589 227.336 502.829 226.176 498.189 227.956C496.189 227.046 494.059 227.126 491.919 226.996C482.379 226.426 472.959 228.516 463.429 228.096C448.189 229.526 432.919 230.806 417.899 233.976C416.669 234.236 415.069 233.886 415.169 235.956C413.309 235.206 411.579 235.026 409.499 235.626C403.719 237.306 397.829 238.586 391.989 240.036C389.639 237.386 388.279 233.866 384.989 232.036C377.329 223.696 368.749 216.596 358.169 212.206C353.739 210.366 349.369 210.646 345.279 212.986C342.279 214.696 339.519 216.826 336.699 218.846C328.989 224.366 323.359 232.136 315.979 238.026C315.819 234.486 318.919 232.586 320.109 229.736C320.589 228.576 322.919 227.776 320.989 226.036C327.269 218.846 331.699 210.676 334.099 201.416L334.109 201.386ZM398.389 210.726C398.339 210.866 398.259 211.016 398.259 211.156C398.259 211.206 398.489 211.246 398.609 211.286C398.659 211.146 398.739 210.996 398.739 210.856C398.739 210.806 398.509 210.766 398.389 210.726Z" fill="#8A4FEC"/>
<path d="M220.809 96.9859C230.469 99.2559 237.799 105.806 245.999 110.756C247.339 111.566 246.839 112.796 246.119 113.806C242.949 118.216 241.249 123.246 240.129 128.456C239.549 131.186 238.629 131.186 236.429 130.046C214.139 118.516 192.059 119.876 170.019 131.036C143.539 144.446 118.869 160.786 94.2986 177.316C93.2086 178.046 92.3486 179.196 90.8086 178.886C91.0086 176.846 92.5486 175.106 92.1686 172.936C93.8686 172.936 94.2086 171.486 94.8686 170.386C102.099 158.346 109.969 146.736 118.279 135.406C120.469 132.426 123.869 130.136 124.079 125.926C124.939 126.086 125.659 125.966 126.319 125.276C131.599 119.806 136.909 114.356 142.219 108.896C154.519 104.536 166.959 100.626 179.899 98.6359C184.289 97.9559 188.639 96.7459 193.149 97.0159C202.369 95.6859 211.589 95.0159 220.809 96.9959V96.9859Z" fill="#8A4FEC"/>
<path d="M498.191 227.936C502.831 226.156 507.591 227.316 512.291 227.426C513.651 227.456 515.101 227.946 515.861 226.606C519.301 220.616 525.751 218.656 530.991 215.076C538.221 216.516 544.971 219.206 551.291 222.976C546.301 223.746 541.451 224.806 537.991 228.976C533.581 229.396 529.201 228.546 524.311 228.216C525.011 228.986 525.251 229.466 525.641 229.656C547.561 240.576 561.931 257.316 566.031 281.986C566.671 291.526 564.011 300.306 559.871 308.746C544.181 312.986 528.161 315.516 512.101 317.826C512.251 315.566 514.191 314.586 515.511 313.206C520.861 307.576 525.391 301.426 528.061 294.046C532.701 284.726 533.451 274.776 531.371 264.876C527.471 246.346 515.281 234.846 498.201 227.936H498.191Z" fill="#8A4FEC"/>
<path d="M483.26 180.866C473.29 182.756 463.22 183.266 451.74 182.946C462.32 190.446 472.45 196.566 480.14 205.926C475.19 203.146 470.22 200.406 465.28 197.586C454.5 191.436 443.06 186.756 430.62 186.306C419.62 185.916 410.92 191.276 404.79 200.506C403.2 202.896 401.74 205.386 399.63 207.526C401.19 199.926 402.83 192.436 407.48 186.046C408.62 184.486 410.73 182.906 410.03 181.076C409.3 179.166 406.76 180.246 405.01 180.006C391.89 178.236 378.92 175.636 366 172.776C365.59 172.686 365.29 172.136 364.93 171.796C381.41 166.646 397.94 161.646 413.98 155.166C417.68 153.676 421.55 152.606 425.21 151.036C433.07 147.656 440.58 148.126 448.23 151.906C462.22 158.816 473.75 168.596 483.27 180.876L483.26 180.866Z" fill="#8A4FEC"/>
<path d="M142.221 108.886C136.921 114.336 131.611 119.786 126.321 125.266C125.661 125.956 124.931 126.076 124.081 125.916C123.331 124.816 122.631 123.686 121.831 122.626C113.491 111.606 105.521 100.236 94.7612 91.3359C89.3912 86.9059 85.0112 88.0259 81.9412 94.2559C79.7712 98.6659 79.0512 103.426 78.8812 108.296C78.0912 130.916 84.7712 151.996 92.1912 172.916C92.5712 175.096 91.0312 176.826 90.8312 178.866C90.2112 179.286 89.6012 179.706 88.9812 180.116C79.9512 160.896 73.5012 140.866 71.5012 119.676C69.8212 101.826 72.7512 84.8259 84.0312 70.1859C89.0812 63.6259 91.7612 63.2159 98.1412 67.9559C113.941 79.6859 127.741 93.6559 141.601 107.536C141.931 107.866 142.021 108.426 142.221 108.886Z" fill="#8A4FEC"/>
<path d="M338.75 177.616C339.5 178.716 340.25 179.826 340.99 180.926C329.57 182.846 318.31 181.606 307.12 179.176C302.81 173.466 296.98 173.556 290.82 174.896C285.56 170.666 279.11 168.266 273.95 163.836C261.65 153.266 255.76 140.066 257.18 123.826C257.35 121.936 256.76 117.936 261.04 120.816C263.03 122.256 265.03 123.696 267.02 125.126C266.88 127.586 267.46 129.956 267.77 132.376C268.16 135.456 268.93 136.046 272.08 135.316C275.32 134.576 278.91 134.336 282.14 136.076C282.88 137.136 283.75 137.776 285.06 136.966L284.96 136.916C284.42 138.706 286.11 139.006 286.98 139.656C302.89 151.706 318.84 163.706 334.8 175.696C335.98 176.586 337.08 177.696 338.75 177.606V177.616ZM272.01 153.006C271.95 152.896 271.92 152.766 271.84 152.676C271.79 152.626 271.67 152.636 271.58 152.616C271.72 152.756 271.86 152.886 272 153.026C276.17 160.786 283.41 164.006 291.45 165.786C293.12 166.156 295 165.016 295.81 163.106C297.09 160.086 295.21 154.326 292.11 151.916C292.07 152.656 292.01 153.306 292 153.956C291.86 160.336 290.48 161.286 284.54 158.766C280.31 156.966 276.18 154.936 272.01 153.006Z" fill="#8A4FEC"/>
<path d="M566.029 281.996C561.929 257.326 547.559 240.586 525.639 229.666C525.249 229.476 525.009 228.996 524.309 228.226C529.199 228.566 533.579 229.406 537.989 228.986C549.359 231.306 560.719 233.636 572.089 235.956L572.029 235.906C572.189 236.406 572.399 236.726 572.909 236.206C580.879 242.466 587.819 249.586 591.789 259.146C589.909 264.796 586.129 269.086 581.659 272.746C576.949 276.606 571.569 279.466 566.019 281.986L566.029 281.996Z" fill="#8A4FEC"/>
<path d="M220.809 96.9859C211.589 95.0059 202.368 95.6659 193.148 97.0059C199.658 79.7859 206.518 62.7059 215.858 46.7759C220.838 38.2859 223.498 37.9759 230.708 44.7159C236.778 50.3959 242.248 56.5959 246.128 64.0459C243.878 64.2459 242.598 62.4659 240.938 61.4759C234.878 57.8759 230.728 59.1659 227.908 65.6959C223.608 75.6759 222.508 86.4059 220.798 96.9859H220.809Z" fill="#8A4FEC"/>
<path d="M566.029 281.996C571.579 279.476 576.949 276.616 581.669 272.756C586.129 269.096 589.919 264.806 591.799 259.156C600.729 277.196 595.389 293.656 577.659 302.706C572.019 305.586 566.189 307.876 559.879 308.756C564.019 300.316 566.679 291.536 566.039 281.996H566.029Z" fill="#8A4FEC"/>
<path d="M528.061 294.046C525.391 301.426 520.861 307.576 515.511 313.206C514.201 314.586 512.261 315.566 512.101 317.826C501.711 319.016 491.432 321.386 480.872 320.746C480.842 319.186 482.042 318.396 483.022 317.576C488.962 312.636 492.322 306.076 494.832 298.976C506.152 298.966 517.062 296.206 528.062 294.036L528.061 294.046Z" fill="#8A4FEC"/>
<path d="M103.009 208.016C91.4989 206.796 83.1589 213.256 74.8289 219.716C73.6589 220.616 72.8289 221.996 71.1289 222.036C73.6289 213.686 76.6889 205.566 80.9389 197.926C88.5389 198.206 96.1789 197.546 103.739 198.966C105.989 199.386 108.359 199.226 110.019 201.216C108.259 204.076 105.469 205.886 103.019 208.026L103.009 208.016Z" fill="#8A4FEC"/>
<path d="M572.089 235.956C560.719 233.636 549.359 231.306 537.989 228.986C541.439 224.816 546.298 223.756 551.288 222.986C559.018 226.026 566.009 230.266 572.089 235.956Z" fill="#8A4FEC"/>
<path d="M282.141 136.086C278.901 134.356 275.311 134.586 272.081 135.326C268.931 136.046 268.161 135.466 267.771 132.386C267.461 129.976 266.881 127.606 267.021 125.136C272.181 125.066 277.071 126.446 281.871 128.136C285.131 129.276 286.731 131.716 287.331 135.096C287.791 137.666 285.951 136.596 284.961 136.936L285.061 136.986C284.471 135.446 283.201 136.106 282.141 136.096V136.086Z" fill="#8A4FEC"/>
<path d="M572.911 236.206C572.411 236.726 572.191 236.406 572.031 235.906C572.361 235.906 572.651 235.996 572.911 236.206Z" fill="#8A4FEC"/>
<path d="M334.11 201.386C331.71 210.646 327.28 218.816 321 226.006C309.85 236.736 297.88 246.406 284.391 254.086C267.661 263.616 249.86 270.156 230.76 273.026C228.8 273.316 226.82 273.556 224.9 274.026C216.88 275.986 211.96 270.796 206.74 266.256C201.49 261.686 196.21 257.156 191.02 252.526C189.81 251.446 188.55 250.906 186.98 250.966C187 250.646 187 250.316 187 249.996C194.51 248.446 200.39 243.666 206.64 239.776C221.46 230.566 235.09 219.846 246.39 206.396C247.44 205.146 248.41 204.426 248.98 206.736C251.29 215.906 256.74 222.696 264.93 227.236C270.4 230.266 276.32 231.106 282.19 228.696C292.99 224.256 299.74 216.086 303 204.946C306.01 197.496 306.04 197.346 314.04 199.036C320.671 200.446 327.35 201.156 334.1 201.396L334.11 201.386Z" fill="#8A4FEC"/>
<path d="M315.991 238.006C323.371 232.116 329.001 224.346 336.711 218.826C339.531 216.806 342.291 214.676 345.291 212.966C349.371 210.636 353.741 210.346 358.181 212.186C368.771 216.576 377.341 223.676 385.001 232.016C382.111 233.276 379.211 234.496 376.351 235.796C354.581 245.666 341.341 262.606 336.251 285.686C334.991 291.396 332.301 294.346 327.231 296.106C316.681 299.766 305.691 300.766 294.711 302.226C288.151 303.096 281.441 301.816 275.041 303.996C271.251 300.466 267.331 298.836 262.981 303.116C262.741 300.146 264.751 298.226 266.371 296.226C274.851 285.776 283.431 275.396 291.981 264.996C299.991 255.996 307.991 246.996 316.001 237.996L315.991 238.006Z" fill="#8A4FEC"/>
<path d="M262.969 303.116C267.319 298.836 271.249 300.466 275.029 303.996C276.529 306.036 279.369 306.986 279.849 309.866C257.279 309.856 234.699 309.846 212.129 309.836C215.029 303.036 219.039 298.236 227.519 300.926C228.879 301.356 230.499 300.976 231.999 300.966C242.299 301.996 252.609 302.906 262.969 303.116Z" fill="#8A4FEC"/>
<path d="M262.97 303.116C252.61 302.906 242.3 301.996 232 300.966C232.21 298.836 233.99 298.586 235.52 298.006C254.85 290.616 272.59 280.556 287.94 266.536C289.14 265.446 290.38 264.886 291.96 264.996C283.41 275.396 274.84 285.776 266.35 296.226C264.73 298.226 262.72 300.146 262.96 303.116H262.97Z" fill="#8A4FEC"/>
<path d="M187.001 249.986C187.001 250.306 187.001 250.636 186.981 250.956C184.371 252.056 182.111 254.066 179.071 254.066C174.641 252.616 171.511 249.576 168.941 245.846C171.381 244.186 173.941 242.766 176.821 241.976C180.771 243.946 183.641 247.276 187.011 249.986H187.001Z" fill="#8A4FEC"/>
<path d="M279.859 309.856C279.379 306.976 276.539 306.026 275.039 303.986C281.429 301.806 288.149 303.096 294.709 302.216C305.689 300.756 316.679 299.756 327.229 296.096C332.289 294.336 334.989 291.386 336.249 285.676C341.339 262.586 354.579 245.656 376.349 235.786C379.219 234.486 382.119 233.266 384.999 232.006C388.289 233.836 389.649 237.356 391.999 240.006C387.369 242.036 382.629 243.856 378.139 246.166C374.789 247.886 370.689 248.786 369.019 252.866C366.869 252.696 365.209 253.706 363.619 254.986C351.229 264.986 348.669 279.336 356.409 293.286C360.259 300.216 366.509 304.536 372.259 309.466C371.279 309.626 370.309 309.926 369.329 309.926C339.509 309.926 309.679 309.876 279.859 309.846V309.856Z" fill="#8A4FEC"/>
<path d="M372.26 309.476C366.51 304.546 360.26 300.226 356.41 293.296C348.67 279.346 351.22 264.996 363.62 254.996C365.22 253.706 366.88 252.706 369.02 252.876C378.04 255.896 383.58 262.346 386.85 271.016C390.06 279.516 389.5 288.216 388.15 296.946C386.64 302.846 382.17 306.906 378.99 311.766L372.259 309.466L372.26 309.476Z" fill="#8A4FEC"/>
<path d="M378.988 311.776C382.168 306.916 386.638 302.846 388.148 296.956C389.308 297.016 390.498 296.896 391.618 297.146C406.628 300.536 421.848 301.856 437.198 302.146C434.388 310.206 428.398 315.996 422.898 322.126C408.548 320.846 394.358 318.776 380.958 313.106C380.248 312.806 379.648 312.226 378.998 311.776H378.988Z" fill="#8A4FEC"/>
<path d="M437.192 302.146C421.852 301.856 406.622 300.536 391.612 297.146C390.502 296.896 389.302 297.006 388.142 296.956C389.492 288.226 390.052 279.526 386.842 271.026C383.572 262.356 378.032 255.906 369.012 252.886C370.682 248.806 374.782 247.896 378.132 246.176C382.622 243.876 387.362 242.046 391.992 240.016C397.842 238.576 403.732 237.286 409.502 235.606C411.582 235.006 413.322 235.186 415.172 235.936C435.072 243.126 446.812 264.406 442.592 285.706C441.462 291.396 440.182 297.066 437.172 302.146H437.192Z" fill="#8A4FEC"/>
<path d="M528.061 294.046C517.061 296.216 506.151 298.976 494.831 298.986C499.101 277.046 493.451 257.806 478.951 241.036C475.451 236.986 471.221 233.746 466.651 230.936C465.421 230.176 463.741 229.896 463.441 228.076C472.961 228.496 482.391 226.406 491.931 226.976C494.071 227.106 496.191 227.016 498.201 227.936C515.291 234.836 527.481 246.346 531.371 264.876C533.451 274.786 532.701 284.726 528.061 294.046Z" fill="#8A4FEC"/>
<path d="M176.81 241.986C173.94 242.766 171.38 244.196 168.93 245.856C166.64 246.146 165.31 244.456 163.76 243.286C151.4 234.016 138.72 225.226 125.25 217.616C118.17 213.616 110.52 210.986 103 208.036C105.46 205.896 108.24 204.086 110 201.226C118.53 195.316 125.45 187.626 132.85 180.496C147.47 166.426 161.21 151.396 177.75 139.446C189.02 131.296 201.46 128.006 214.95 132.776C235.63 140.096 245.58 166.426 235.82 187.166C228.07 203.636 215.05 215.386 200.93 226.186C193.26 232.046 184.69 236.496 176.81 241.996V241.986ZM225.96 172.986C224.13 172.736 222.9 173.926 221.44 174.726C210.9 180.496 199.98 183.396 188.03 179.226C184.88 178.126 183.05 174.906 179.58 174.356C179.77 181.226 187.83 188.726 196.57 189.916C210.13 191.766 220.44 185.466 226.01 173.036C226.26 172.676 226.5 172.316 226.73 171.936C226.73 171.936 226.49 171.766 226.37 171.686C226.23 172.116 226.09 172.556 225.95 172.986H225.96ZM211 144.476C210.84 137.066 209.34 136.006 203.16 138.986C198.54 141.216 194.03 143.716 189.57 146.266C187.15 147.656 185.65 149.716 185.95 152.816C186.16 155.036 186.14 156.546 189 154.686C194.77 150.916 201.23 148.756 208.07 148.086C211.03 147.796 211.13 146.186 211.01 144.466L211 144.476Z" fill="#8A4FEC"/>
<path d="M290.811 174.906C296.971 173.556 302.801 173.476 307.111 179.186C308.131 185.406 304.541 189.556 300.621 193.546C293.021 201.299 284.591 202.476 275.331 197.076C272.601 195.486 269.751 194.106 267.031 192.526C260.821 188.906 260.721 185.276 267.031 181.636C274.341 177.416 282.411 175.496 290.811 174.916V174.906Z" fill="#8A4FEC"/>
<path d="M303.008 204.926C299.748 216.066 292.998 224.236 282.198 228.676C276.338 231.086 270.408 230.256 264.938 227.216C256.748 222.676 251.298 215.886 248.988 206.716C253.608 209.906 257.388 214.146 262.318 216.986C276.708 225.316 288.738 222.986 298.928 209.766C300.208 208.096 300.828 205.836 303.008 204.916V204.926Z" fill="#8A4FEC"/>
<path d="M398.392 210.726C398.512 210.766 398.742 210.816 398.742 210.856C398.742 210.996 398.662 211.146 398.612 211.286C398.492 211.246 398.262 211.196 398.262 211.156C398.262 211.016 398.342 210.866 398.392 210.726Z" fill="#8A4FEC"/>
<path d="M92.1784 172.916C84.7584 151.986 78.0784 130.916 78.8684 108.296C79.0384 103.426 79.7584 98.6659 81.9284 94.2559C84.9984 88.0259 89.3784 86.8959 94.7484 91.3359C105.508 100.226 113.478 111.596 121.818 122.626C122.618 123.686 123.328 124.816 124.068 125.916C123.858 130.126 120.458 132.416 118.268 135.396C109.968 146.726 102.088 158.336 94.8584 170.376C94.1984 171.476 93.8584 172.926 92.1584 172.926L92.1784 172.916Z" fill="#8A4FEC"/>
<path d="M272.01 153.006C276.18 154.936 280.31 156.966 284.54 158.766C290.48 161.296 291.86 160.346 292 153.956C292.01 153.306 292.07 152.656 292.11 151.916C295.21 154.316 297.09 160.086 295.81 163.106C295 165.006 293.12 166.156 291.45 165.786C283.41 164.006 276.17 160.786 272 153.026L272.02 153.006H272.01Z" fill="#8A4FEC"/>
<path d="M271.99 153.026C271.85 152.886 271.71 152.756 271.57 152.616C271.66 152.636 271.78 152.616 271.83 152.676C271.91 152.766 271.95 152.896 272 153.006L271.98 153.026H271.99Z" fill="#8A4FEC"/>
<path d="M226.03 173.036C220.46 185.466 210.14 191.766 196.58 189.916C187.84 188.726 179.78 181.216 179.59 174.356C183.05 174.906 184.89 178.126 188.04 179.226C199.99 183.396 210.9 180.486 221.45 174.726C222.91 173.926 224.14 172.736 225.97 172.986L226.03 173.036Z" fill="#8A4FEC"/>
<path d="M211.01 144.476C211.13 146.196 211.03 147.796 208.07 148.096C201.24 148.766 194.78 150.926 189 154.696C186.15 156.556 186.16 155.046 185.95 152.826C185.66 149.726 187.15 147.666 189.57 146.276C194.03 143.726 198.53 141.226 203.16 138.996C209.34 136.016 210.83 137.066 211 144.486L211.01 144.476Z" fill="#8A4FEC"/>
<path d="M225.969 172.976C226.109 172.546 226.249 172.106 226.389 171.676C226.519 171.766 226.759 171.926 226.749 171.926C226.519 172.296 226.279 172.656 226.029 173.026L225.969 172.976Z" fill="#8A4FEC"/>
</g>
<mask id="mask1_2602_183" style="mask-type:alpha" maskUnits="userSpaceOnUse" x="-725" y="0" width="1180" height="346">
<rect x="-725" width="1180" height="346" rx="20" fill="#D9D9D9"/>
</mask>
<g mask="url(#mask1_2602_183)">
<path d="M2 285.016C10.66 272.136 19.13 259.126 28.99 247.106C30.24 245.576 31.64 244.166 32.97 242.696C33.49 245.146 31.82 246.786 30.67 248.536C28.28 252.166 26.22 255.946 24.87 260.076C22.06 268.636 24.85 274.506 33.35 277.206C55.68 284.306 78.9 286.796 101.97 289.966C113.76 291.586 125.64 292.376 137.52 293.276C151.97 294.366 166.34 294.386 180.71 292.806C184.11 292.436 187.53 291.356 190.38 289.116C193.08 286.996 193.93 284.886 190.84 282.276C184.52 276.926 178.24 271.516 172.07 265.996C167.69 262.076 162.35 259.196 159.07 254.066C162.11 254.066 164.37 252.056 166.98 250.956C168.55 250.906 169.81 251.436 171.02 252.516C176.21 257.146 181.5 261.676 186.74 266.246C191.95 270.786 196.87 275.976 204.9 274.016C206.82 273.546 208.8 273.316 210.76 273.016C229.85 270.146 247.65 263.606 264.39 254.076C277.87 246.396 289.85 236.726 301 225.996C302.93 227.736 300.61 228.536 300.12 229.696C298.94 232.546 295.83 234.456 295.99 237.986C287.98 246.986 279.98 255.986 271.97 264.986C270.39 264.876 269.14 265.436 267.95 266.526C252.6 280.536 234.86 290.606 215.53 297.996C214 298.576 212.22 298.826 212.01 300.956C210.51 300.956 208.89 301.346 207.53 300.916C199.05 298.226 195.05 303.016 192.14 309.826C190.31 309.866 188.48 309.956 186.65 309.956C135.5 309.956 84.35 309.896 33.2 310.056C27.4 310.076 22.92 308.126 18.83 304.376C12.68 298.746 7.38 292.336 2 286.006V285.006L2 285.016Z" fill="#A18D8D"/>
<path d="M402.999 323.016C403.019 322.716 402.979 322.416 402.889 322.126C408.389 315.996 414.379 310.206 417.189 302.146C420.189 297.066 421.479 291.396 422.609 285.706C426.829 264.406 415.079 243.126 395.189 235.936C395.079 233.866 396.679 234.216 397.919 233.956C412.939 230.786 428.199 229.506 443.449 228.076C443.749 229.886 445.429 230.176 446.659 230.936C451.219 233.736 455.459 236.986 458.959 241.036C473.469 257.806 479.119 277.046 474.839 298.986C472.329 306.096 468.969 312.646 463.029 317.586C462.049 318.406 460.839 319.196 460.879 320.756C457.499 322.646 453.359 320.916 450.019 323.016H403.019H402.999Z" fill="#634C4B"/>
<path d="M60.9414 197.916C63.6214 191.986 66.3014 186.056 68.9814 180.126C69.6014 179.706 70.2114 179.286 70.8314 178.876C72.3714 179.186 73.2214 178.036 74.3214 177.306C98.8814 160.776 123.551 144.436 150.041 131.026C172.081 119.866 194.161 118.516 216.451 130.036C218.651 131.176 219.561 131.176 220.151 128.446C221.261 123.236 222.971 118.206 226.141 113.796C226.861 112.786 227.351 111.556 226.021 110.746C217.821 105.796 210.491 99.2458 200.831 96.9758C202.541 86.3958 203.641 75.6758 207.941 65.6858C210.751 59.1458 214.911 57.8558 220.971 61.4658C222.631 62.4558 223.911 64.2258 226.161 64.0358C234.791 75.0358 240.921 87.0358 241.021 101.426C241.061 107.886 241.051 114.356 241.071 120.816C236.791 117.936 237.371 121.936 237.211 123.826C235.781 140.066 241.671 153.276 253.981 163.836C259.141 168.266 265.591 170.666 270.851 174.896C262.451 175.476 254.391 177.396 247.071 181.616C240.761 185.256 240.861 188.896 247.071 192.506C249.801 194.096 252.651 195.476 255.371 197.056C264.638 202.442 273.068 201.266 280.661 193.526C284.571 189.536 288.161 185.386 287.151 179.166C298.341 181.596 309.601 182.836 321.021 180.916C319.961 188.146 317.911 195.056 314.141 201.376C307.391 201.126 300.711 200.416 294.081 199.016C286.081 197.316 286.051 197.466 283.041 204.926C280.861 205.846 280.241 208.106 278.961 209.776C268.771 222.996 256.751 225.326 242.351 216.996C237.431 214.146 233.651 209.906 229.021 206.716C228.441 204.406 227.481 205.126 226.431 206.376C215.131 219.826 201.491 230.546 186.681 239.756C180.431 243.646 174.541 248.426 167.041 249.976C163.681 247.266 160.801 243.936 156.851 241.966C164.741 236.466 173.311 232.026 180.971 226.156C195.101 215.356 208.111 203.606 215.861 187.136C225.621 166.386 215.681 140.066 194.991 132.746C181.501 127.976 169.061 131.266 157.791 139.416C141.261 151.366 127.511 166.396 112.891 180.466C105.481 187.596 98.5614 195.296 90.0414 201.196C88.3914 199.206 86.0114 199.366 83.7614 198.946C76.2014 197.526 68.5614 198.176 60.9614 197.906L60.9414 197.916Z" fill="#F0DBD9"/>
<path d="M159.072 254.076C162.342 259.206 167.692 262.086 172.072 266.006C178.242 271.526 184.522 276.936 190.842 282.286C193.932 284.906 193.082 287.006 190.382 289.126C187.542 291.356 184.122 292.436 180.712 292.816C166.342 294.396 151.972 294.376 137.522 293.286C125.642 292.386 113.762 291.596 101.972 289.976C78.9019 286.806 55.6819 284.316 33.3519 277.216C24.8519 274.516 22.0719 268.646 24.8719 260.086C26.2219 255.956 28.2819 252.176 30.6719 248.546C31.8219 246.796 33.5019 245.156 32.9719 242.706C38.0719 234.976 45.2819 229.106 51.1419 222.046C52.8419 222.006 53.6719 220.626 54.8419 219.726C63.1719 213.276 71.5019 206.816 83.0219 208.026C90.5419 210.986 98.1919 213.606 105.272 217.606C118.742 225.226 131.422 234.006 143.782 243.276C145.342 244.446 146.662 246.136 148.952 245.846C151.522 249.576 154.652 252.626 159.082 254.066L159.072 254.076Z" fill="#B9A7A8"/>
<path d="M314.109 201.386C317.879 195.066 319.929 188.156 320.989 180.926C320.239 179.826 319.489 178.716 318.749 177.616C327.389 175.286 336.119 173.336 344.939 171.796C345.289 172.136 345.599 172.686 346.009 172.776C358.929 175.636 371.899 178.236 385.019 180.006C386.769 180.246 389.309 179.156 390.039 181.076C390.739 182.916 388.629 184.486 387.489 186.046C382.849 192.436 381.199 199.926 379.639 207.526C381.749 205.386 383.209 202.896 384.799 200.506C390.929 191.276 399.639 185.916 410.629 186.306C423.069 186.746 434.499 191.436 445.289 197.586C450.219 200.396 455.189 203.146 460.149 205.926C452.459 196.566 442.329 190.446 431.749 182.946C443.229 183.276 453.299 182.756 463.269 180.866C469.539 187.436 474.019 195.196 477.909 203.286C479.289 206.156 481.159 207.446 484.229 208.056C493.289 209.836 502.479 211.176 510.989 215.096C505.749 218.676 499.299 220.636 495.859 226.626C495.089 227.966 493.639 227.476 492.289 227.446C487.589 227.336 482.829 226.176 478.189 227.956C476.189 227.046 474.059 227.126 471.919 226.996C462.379 226.426 452.959 228.516 443.429 228.096C428.189 229.526 412.919 230.806 397.899 233.976C396.669 234.236 395.069 233.886 395.169 235.956C393.309 235.206 391.579 235.026 389.499 235.626C383.719 237.306 377.829 238.586 371.989 240.036C369.639 237.386 368.279 233.866 364.989 232.036C357.329 223.696 348.749 216.596 338.169 212.206C333.739 210.366 329.369 210.646 325.279 212.986C322.279 214.696 319.519 216.826 316.699 218.846C308.989 224.366 303.359 232.136 295.979 238.026C295.819 234.486 298.919 232.586 300.109 229.736C300.589 228.576 302.919 227.776 300.989 226.036C307.269 218.846 311.699 210.676 314.099 201.416L314.109 201.386ZM378.389 210.726C378.339 210.866 378.259 211.016 378.259 211.156C378.259 211.206 378.489 211.246 378.609 211.286C378.659 211.146 378.739 210.996 378.739 210.856C378.739 210.806 378.509 210.766 378.389 210.726Z" fill="#AA9697"/>
<path d="M200.809 96.9859C210.469 99.2559 217.799 105.806 225.999 110.756C227.339 111.566 226.839 112.796 226.119 113.806C222.949 118.216 221.249 123.246 220.129 128.456C219.549 131.186 218.629 131.186 216.429 130.046C194.139 118.516 172.059 119.876 150.019 131.036C123.539 144.446 98.8686 160.786 74.2986 177.316C73.2086 178.046 72.3486 179.196 70.8086 178.886C71.0086 176.846 72.5486 175.106 72.1686 172.936C73.8686 172.936 74.2086 171.486 74.8686 170.386C82.0986 158.346 89.9686 146.736 98.2786 135.406C100.469 132.426 103.869 130.136 104.079 125.926C104.939 126.086 105.659 125.966 106.319 125.276C111.599 119.806 116.909 114.356 122.219 108.896C134.519 104.536 146.959 100.626 159.899 98.6359C164.289 97.9559 168.639 96.7459 173.149 97.0159C182.369 95.6859 191.589 95.0159 200.809 96.9959V96.9859Z" fill="#BAA8A9"/>
<path d="M463.26 180.866C453.29 182.756 443.22 183.266 431.74 182.946C442.32 190.446 452.45 196.566 460.14 205.926C455.19 203.146 450.22 200.406 445.28 197.586C434.5 191.436 423.06 186.756 410.62 186.306C399.62 185.916 390.92 191.276 384.79 200.506C383.2 202.896 381.74 205.386 379.63 207.526C381.19 199.926 382.83 192.436 387.48 186.046C388.62 184.486 390.73 182.906 390.03 181.076C389.3 179.166 386.76 180.246 385.01 180.006C371.89 178.236 358.92 175.636 346 172.776C345.59 172.686 345.29 172.136 344.93 171.796C361.41 166.646 377.94 161.646 393.98 155.166C397.68 153.676 401.55 152.606 405.21 151.036C413.07 147.656 420.58 148.126 428.23 151.906C442.22 158.816 453.75 168.596 463.27 180.876L463.26 180.866Z" fill="#BAA8A9"/>
<path d="M122.221 108.886C116.921 114.336 111.611 119.786 106.321 125.266C105.661 125.956 104.931 126.076 104.081 125.916C103.331 124.816 102.631 123.686 101.831 122.626C93.4912 111.606 85.5212 100.236 74.7612 91.3359C69.3912 86.9059 65.0112 88.0259 61.9412 94.2559C59.7712 98.6659 59.0512 103.426 58.8812 108.296C58.0912 130.916 64.7712 151.996 72.1912 172.916C72.5712 175.096 71.0312 176.826 70.8312 178.866C70.2112 179.286 69.6012 179.706 68.9812 180.116C59.9512 160.896 53.5012 140.866 51.5012 119.676C49.8212 101.826 52.7512 84.8259 64.0312 70.1859C69.0812 63.6259 71.7612 63.2159 78.1412 67.9559C93.9412 79.6859 107.741 93.6559 121.601 107.536C121.931 107.866 122.021 108.426 122.221 108.886Z" fill="#664F4E"/>
<path d="M318.75 177.616C319.5 178.716 320.25 179.826 320.99 180.926C309.57 182.846 298.31 181.606 287.12 179.176C282.81 173.466 276.98 173.556 270.82 174.896C265.56 170.666 259.11 168.266 253.95 163.836C241.65 153.266 235.76 140.066 237.18 123.826C237.35 121.936 236.76 117.936 241.04 120.816C243.03 122.256 245.03 123.696 247.02 125.126C246.88 127.586 247.46 129.956 247.77 132.376C248.16 135.456 248.93 136.046 252.08 135.316C255.32 134.576 258.91 134.336 262.14 136.076C262.88 137.136 263.75 137.776 265.06 136.966L264.96 136.916C264.42 138.706 266.11 139.006 266.98 139.656C282.89 151.706 298.84 163.706 314.8 175.696C315.98 176.586 317.08 177.696 318.75 177.606V177.616ZM252.01 153.006C251.95 152.896 251.92 152.766 251.84 152.676C251.79 152.626 251.67 152.636 251.58 152.616C251.72 152.756 251.86 152.886 252 153.026C256.17 160.786 263.41 164.006 271.45 165.786C273.12 166.156 275 165.016 275.81 163.106C277.09 160.086 275.21 154.326 272.11 151.916C272.07 152.656 272.01 153.306 272 153.956C271.86 160.336 270.48 161.286 264.54 158.766C260.31 156.966 256.18 154.936 252.01 153.006Z" fill="#654E4D"/>
<path d="M200.808 96.9859C191.588 95.0059 182.368 95.6659 173.148 97.0059C179.658 79.7859 186.518 62.7059 195.858 46.7759C200.838 38.2859 203.498 37.9759 210.708 44.7159C216.778 50.3959 222.248 56.5959 226.128 64.0459C223.878 64.2459 222.598 62.4659 220.938 61.4759C214.878 57.8759 210.728 59.1659 207.908 65.6959C203.608 75.6759 202.508 86.4059 200.798 96.9859H200.808Z" fill="#664F4E"/>
<path d="M83.0089 208.016C71.4989 206.796 63.1589 213.256 54.8289 219.716C53.6589 220.616 52.8289 221.996 51.1289 222.036C53.6289 213.686 56.6889 205.566 60.9389 197.926C68.5389 198.206 76.1789 197.546 83.7389 198.966C85.9889 199.386 88.3589 199.226 90.0189 201.216C88.2589 204.076 85.4689 205.886 83.0189 208.026L83.0089 208.016Z" fill="#C8B2B0"/>
<path d="M262.141 136.086C258.901 134.356 255.311 134.586 252.081 135.326C248.931 136.046 248.161 135.466 247.771 132.386C247.461 129.976 246.881 127.606 247.021 125.136C252.181 125.066 257.071 126.446 261.871 128.136C265.131 129.276 266.731 131.716 267.331 135.096C267.791 137.666 265.951 136.596 264.961 136.936L265.061 136.986C264.471 135.446 263.201 136.106 262.141 136.096V136.086Z" fill="#4A3636"/>
<path d="M314.11 201.386C311.71 210.646 307.28 218.816 301 226.006C289.85 236.736 277.88 246.406 264.39 254.086C247.66 263.616 229.86 270.156 210.76 273.026C208.8 273.316 206.82 273.556 204.9 274.026C196.88 275.986 191.96 270.796 186.74 266.256C181.49 261.686 176.21 257.156 171.02 252.526C169.81 251.446 168.55 250.906 166.98 250.966C167 250.646 167 250.316 167 249.996C174.51 248.446 180.39 243.666 186.64 239.776C201.46 230.566 215.09 219.846 226.39 206.396C227.44 205.146 228.41 204.426 228.98 206.736C231.29 215.906 236.74 222.696 244.93 227.236C250.4 230.266 256.32 231.106 262.19 228.696C272.99 224.256 279.74 216.086 283 204.946C286.01 197.496 286.04 197.346 294.04 199.036C300.67 200.446 307.35 201.156 314.1 201.396L314.11 201.386Z" fill="#B9A7A8"/>
<path d="M295.991 238.006C303.371 232.116 309.001 224.346 316.711 218.826C319.531 216.806 322.291 214.676 325.291 212.966C329.371 210.636 333.741 210.346 338.181 212.186C348.771 216.576 357.341 223.676 365.001 232.016C362.111 233.276 359.211 234.496 356.351 235.796C334.581 245.666 321.341 262.606 316.251 285.686C314.991 291.396 312.301 294.346 307.231 296.106C296.681 299.766 285.691 300.766 274.711 302.226C268.151 303.096 261.441 301.816 255.041 303.996C251.251 300.466 247.331 298.836 242.981 303.116C242.741 300.146 244.751 298.226 246.371 296.226C254.851 285.776 263.431 275.396 271.981 264.996C279.991 255.996 287.991 246.996 296.001 237.996L295.991 238.006Z" fill="#B9A7A8"/>
<path d="M242.969 303.116C247.319 298.836 251.249 300.466 255.029 303.996C256.529 306.036 259.369 306.986 259.849 309.866C237.279 309.856 214.699 309.846 192.129 309.836C195.029 303.036 199.039 298.236 207.519 300.926C208.879 301.356 210.499 300.976 211.999 300.966C222.299 301.996 232.609 302.906 242.969 303.116Z" fill="#4A3636"/>
<path d="M242.97 303.116C232.61 302.906 222.3 301.996 212 300.966C212.21 298.836 213.99 298.586 215.52 298.006C234.85 290.616 252.59 280.556 267.94 266.536C269.14 265.446 270.38 264.886 271.96 264.996C263.41 275.396 254.84 285.776 246.35 296.226C244.73 298.226 242.72 300.146 242.96 303.116H242.97Z" fill="#AA9697"/>
<path d="M167.001 249.986C167.001 250.306 167.001 250.636 166.981 250.956C164.371 252.056 162.111 254.066 159.071 254.066C154.641 252.616 151.511 249.576 148.941 245.846C151.381 244.186 153.941 242.766 156.821 241.976C160.771 243.946 163.641 247.276 167.011 249.986H167.001Z" fill="#C8B2B0"/>
<path d="M259.859 309.856C259.379 306.976 256.539 306.026 255.039 303.986C261.429 301.806 268.149 303.096 274.709 302.216C285.689 300.756 296.679 299.756 307.229 296.096C312.289 294.336 314.989 291.386 316.249 285.676C321.339 262.586 334.579 245.656 356.349 235.786C359.219 234.486 362.119 233.266 364.999 232.006C368.289 233.836 369.649 237.356 371.999 240.006C367.369 242.036 362.629 243.856 358.139 246.166C354.789 247.886 350.689 248.786 349.019 252.866C346.869 252.696 345.209 253.706 343.619 254.986C331.229 264.986 328.669 279.336 336.409 293.286C340.259 300.216 346.509 304.536 352.259 309.466C351.279 309.626 350.309 309.926 349.329 309.926C319.509 309.926 289.679 309.876 259.859 309.846V309.856Z" fill="#B1A09F"/>
<path d="M352.26 309.476C346.51 304.546 340.26 300.226 336.41 293.296C328.67 279.346 331.22 264.996 343.62 254.996C345.22 253.706 346.88 252.706 349.02 252.876C358.04 255.896 363.58 262.346 366.85 271.016C370.06 279.516 369.5 288.216 368.15 296.946C366.64 302.846 362.17 306.906 358.99 311.766L352.26 309.466V309.476Z" fill="#634C4B"/>
<path d="M358.988 311.776C362.168 306.916 366.638 302.846 368.148 296.956C369.308 297.016 370.498 296.896 371.618 297.146C386.628 300.536 401.848 301.856 417.198 302.146C414.388 310.206 408.398 315.996 402.898 322.126C388.548 320.846 374.358 318.776 360.958 313.106C360.248 312.806 359.648 312.226 358.998 311.776H358.988Z" fill="#A18D8D"/>
<path d="M417.192 302.146C401.852 301.856 386.622 300.536 371.612 297.146C370.502 296.896 369.302 297.006 368.142 296.956C369.492 288.226 370.052 279.526 366.842 271.026C363.572 262.356 358.032 255.906 349.012 252.886C350.682 248.806 354.782 247.896 358.132 246.176C362.622 243.876 367.362 242.046 371.992 240.016C377.842 238.576 383.732 237.286 389.502 235.606C391.582 235.006 393.322 235.186 395.172 235.936C415.072 243.126 426.812 264.406 422.592 285.706C421.462 291.396 420.182 297.066 417.172 302.146H417.192Z" fill="#B9A7A8"/>
<path d="M508.061 294.046C497.061 296.216 486.151 298.976 474.831 298.986C479.101 277.046 473.451 257.806 458.951 241.036C455.451 236.986 451.221 233.746 446.651 230.936C445.421 230.176 443.741 229.896 443.441 228.076C452.961 228.496 462.391 226.406 471.931 226.976C474.071 227.106 476.191 227.016 478.201 227.936C495.291 234.836 507.481 246.346 511.371 264.876C513.451 274.786 512.701 284.726 508.061 294.046Z" fill="#B9A7A8"/>
<path d="M156.81 241.986C153.94 242.766 151.38 244.196 148.93 245.856C146.64 246.146 145.31 244.456 143.76 243.286C131.4 234.016 118.72 225.226 105.25 217.616C98.17 213.616 90.52 210.986 83 208.036C85.46 205.896 88.24 204.086 90 201.226C98.53 195.316 105.45 187.626 112.85 180.496C127.47 166.426 141.21 151.396 157.75 139.446C169.02 131.296 181.46 128.006 194.95 132.776C215.63 140.096 225.58 166.426 215.82 187.166C208.07 203.636 195.05 215.386 180.93 226.186C173.26 232.046 164.69 236.496 156.81 241.996V241.986ZM205.96 172.986C204.13 172.736 202.9 173.926 201.44 174.726C190.9 180.496 179.98 183.396 168.03 179.226C164.88 178.126 163.05 174.906 159.58 174.356C159.77 181.226 167.83 188.726 176.57 189.916C190.13 191.766 200.44 185.466 206.01 173.036C206.26 172.676 206.5 172.316 206.73 171.936C206.73 171.936 206.49 171.766 206.37 171.686C206.23 172.116 206.09 172.556 205.95 172.986H205.96ZM191 144.476C190.84 137.066 189.34 136.006 183.16 138.986C178.54 141.216 174.03 143.716 169.57 146.266C167.15 147.656 165.65 149.716 165.95 152.816C166.16 155.036 166.14 156.546 169 154.686C174.77 150.916 181.23 148.756 188.07 148.086C191.03 147.796 191.13 146.186 191.01 144.466L191 144.476Z" fill="#634C4B"/>
<path d="M270.811 174.906C276.971 173.556 282.801 173.476 287.111 179.186C288.131 185.406 284.541 189.556 280.621 193.546C273.021 201.299 264.591 202.476 255.331 197.076C252.601 195.486 249.751 194.106 247.031 192.526C240.821 188.906 240.721 185.276 247.031 181.636C254.341 177.416 262.411 175.496 270.811 174.916V174.906Z" fill="#473333"/>
<path d="M283.008 204.926C279.748 216.066 272.998 224.236 262.198 228.676C256.338 231.086 250.408 230.256 244.938 227.216C236.748 222.676 231.298 215.886 228.988 206.716C233.608 209.906 237.388 214.146 242.318 216.986C256.708 225.316 268.738 222.986 278.928 209.766C280.208 208.096 280.828 205.836 283.008 204.916V204.926Z" fill="#664F4E"/>
<path d="M378.392 210.726C378.512 210.766 378.742 210.816 378.742 210.856C378.742 210.996 378.662 211.146 378.612 211.286C378.492 211.246 378.262 211.196 378.262 211.156C378.262 211.016 378.342 210.866 378.392 210.726Z" fill="#BAA8A9"/>
<path d="M72.1784 172.916C64.7584 151.986 58.0784 130.916 58.8684 108.296C59.0384 103.426 59.7584 98.6658 61.9284 94.2558C64.9984 88.0258 69.3784 86.8958 74.7484 91.3358C85.5084 100.226 93.4784 111.596 101.818 122.626C102.618 123.686 103.328 124.816 104.068 125.916C103.858 130.126 100.458 132.416 98.2684 135.396C89.9684 146.726 82.0884 158.336 74.8584 170.376C74.1984 171.476 73.8584 172.926 72.1584 172.926L72.1784 172.916Z" fill="#F0DBD9"/>
<path d="M252.01 153.006C256.18 154.936 260.31 156.966 264.54 158.766C270.48 161.296 271.86 160.346 272 153.956C272.01 153.306 272.07 152.656 272.11 151.916C275.21 154.316 277.09 160.086 275.81 163.106C275 165.006 273.12 166.156 271.45 165.786C263.41 164.006 256.17 160.786 252 153.026L252.02 153.006H252.01Z" fill="#473333"/>
<path d="M251.99 153.026C251.85 152.886 251.71 152.756 251.57 152.616C251.66 152.636 251.78 152.616 251.83 152.676C251.91 152.766 251.95 152.896 252 153.006L251.98 153.026H251.99Z" fill="#473333"/>
<path d="M206.03 173.036C200.46 185.466 190.14 191.766 176.58 189.916C167.84 188.726 159.78 181.216 159.59 174.356C163.05 174.906 164.89 178.126 168.04 179.226C179.99 183.396 190.9 180.486 201.45 174.726C202.91 173.926 204.14 172.736 205.97 172.986L206.03 173.036Z" fill="#473333"/>
<path d="M191.01 144.476C191.13 146.196 191.03 147.796 188.07 148.096C181.24 148.766 174.78 150.926 169 154.696C166.15 156.556 166.16 155.046 165.95 152.826C165.66 149.726 167.15 147.666 169.57 146.276C174.03 143.726 178.53 141.226 183.16 138.996C189.34 136.016 190.83 137.066 191 144.486L191.01 144.476Z" fill="#473333"/>
<path d="M205.969 172.976C206.109 172.546 206.249 172.106 206.389 171.676C206.519 171.766 206.759 171.926 206.749 171.926C206.519 172.296 206.279 172.656 206.029 173.026L205.969 172.976Z" fill="#473333"/>
<path d="M305.648 99.5319L315.032 104.95L312.494 109.346L296.002 99.8238L296.416 99.1068L315.167 87.6519L306.594 82.7019L309.132 78.306L324.751 87.324L324.247 88.197L305.648 99.5319Z" fill="white"/>
<path d="M323.262 109.992L330.339 114.078L327.927 118.256L314.022 110.228L314.31 109.729L328.537 101.648L322.052 97.9038L324.428 93.7884L337.647 101.42L337.287 102.044L323.262 109.992Z" fill="white"/>
<path d="M278.544 52.511L286.149 50.4734L287.103 54.0356L273.739 57.6166L273.583 57.0356L277.332 41.5174L270.384 43.379L269.429 39.8168L282.087 36.4253L282.276 37.1327L278.544 52.511Z" fill="white"/>
<path d="M292.967 48.836L298.702 47.2993L299.609 50.6847L288.341 53.7038L288.233 53.2996L291.39 41.8392L286.135 43.2472L285.242 39.9124L295.954 37.0421L296.089 37.5474L292.967 48.836Z" fill="white"/>
<path d="M349.139 40.3283L355.957 44.2646L354.113 47.4584L342.131 40.5404L342.432 40.0194L356.055 31.6971L349.826 28.1008L351.67 24.907L363.018 31.4589L362.652 32.0931L349.139 40.3283Z" fill="white"/>
<path d="M361.936 47.9281L367.078 50.8967L365.326 53.9319L355.223 48.0993L355.433 47.7369L365.769 41.8656L361.057 39.1454L362.784 36.1555L372.388 41.7004L372.126 42.1534L361.936 47.9281Z" fill="white"/>
</g>
</g>
<defs>
<clipPath id="clip0_2602_183">
<rect width="455" height="346" fill="white"/>
</clipPath>
</defs>
</svg>
