<svg width="418" height="366" viewBox="0 0 418 366" fill="none" xmlns="http://www.w3.org/2000/svg">
<g clip-path="url(#clip0_2667_179)">
<mask id="mask0_2667_179" style="mask-type:alpha" maskUnits="userSpaceOnUse" x="-714" y="50" width="1180" height="316">
<rect x="-714" y="50" width="1180" height="316" rx="20" fill="#D9D9D9"/>
</mask>
<g mask="url(#mask0_2667_179)">
<path d="M159.13 489.363C158.383 486.653 155.745 485.869 153.877 484.354C141.666 474.455 130.188 463.899 121.363 450.693C114.054 439.756 112.335 427.901 113.979 415.098C116.184 397.988 120.279 381.221 122.842 364.185C123.096 362.506 123.649 361.244 121.011 361.819C118.874 362.289 117.11 360.975 115.623 359.699C100.581 346.709 88.2132 331.667 80.1276 313.332C76.7424 305.658 77.4524 297.752 78.7003 289.891C81.8015 270.369 87.04 251.355 93.332 232.647C94.5501 229.026 93.5861 227.451 90.2757 226.272C87.6378 225.331 84.7906 224.577 82.8851 222.218C83.3858 221.748 83.8864 221.27 84.3871 220.8C91.972 218.597 100.401 217.478 101.56 207.191C103.727 208.318 105.856 209.505 108.061 210.55C110.587 211.752 112.328 211.043 112.993 208.213C114.488 207.325 116.371 207.011 117.335 205.324C118.284 205.884 119.233 206.459 120.197 207.004C123.746 209.027 125.622 208.266 126.489 204.212C126.892 202.323 126.81 200.33 126.952 198.382C128.103 198.292 129.254 198.21 130.397 198.12C133.14 201.36 137.437 200.785 140.837 202.383C142.533 203.182 143.953 202.719 145.388 201.801C164.615 189.543 181.668 174.896 195.493 156.636C197.241 154.321 198.19 151.253 201.105 149.88C201.59 151.126 202.114 152.358 202.554 153.612C206.044 163.675 211.791 165.43 219.996 158.935C220.086 158.86 220.228 158.86 220.347 158.823C221.588 158.868 222.851 158.741 224.054 158.98C231.459 160.428 237.624 158.196 243.005 153.052C248.034 148.245 250.575 142.153 252.652 135.733C253.011 134.621 252.652 132.762 255.26 133.128C263.353 134.27 271.506 134.77 279.644 133.352C278.239 142.78 274.645 151.515 270.804 160.122C262.867 177.912 251.613 193.447 237.886 207.22C236.63 208.482 235.368 209.355 237.243 211.393C260.872 237.059 274.473 267.682 281.676 301.462C284.262 313.608 285.772 325.896 286.84 338.251C286.907 338.983 286.84 339.766 287.61 340.214C286.661 343.783 287.206 345.358 291.712 345.612C300.366 346.104 308.623 348.702 316.485 352.554C322.179 355.346 327.021 359.4 332.379 362.662C335.152 365.746 338.014 368.762 340.674 371.934C348.281 381.005 354.394 390.933 357.862 402.34C357.764 402.691 357.757 403.124 357.548 403.385C345.838 418.04 331.669 429.417 313.839 435.852C313.951 433.351 313.458 430.925 313.01 428.491C309.804 411.246 302.937 395.905 289.784 383.826C289.104 383.207 288.589 381.945 287.423 382.445C286.474 382.856 286.93 383.983 286.863 384.804C285.846 396.488 284.83 408.178 282.416 419.675C281.706 423.049 281.759 426.05 283.44 429.282C285.54 433.329 286.863 437.763 287.707 442.294C285.495 442.563 283.178 443.399 281.086 443.004C273.128 441.511 269.75 446.176 266.604 452.32C259.878 465.467 254.774 478.83 257.659 493.977C257.771 494.574 257.734 495.223 256.971 495.485C248.251 493.073 239.53 490.655 230.809 488.243C226.587 485.197 222.193 482.368 218.188 479.068C207.688 470.409 196.188 462.331 196.135 446.221C191.039 449.006 186.608 452.111 182.311 455.456C177.707 459.039 175.936 463.638 176.123 469.461C176.43 479.053 179.194 488.019 182.236 496.963H127.684C127.595 496.746 127.587 496.522 127.655 496.291C145.059 496.291 162.455 496.291 179.86 496.291C173.112 493.081 166.162 491.028 159.1 489.333L159.13 489.363ZM237.557 350.501C237.348 346.194 237.946 338.99 236.937 331.801C236.309 327.307 236.63 327.284 232.341 328.098C231.37 328.285 230.361 328.233 229.367 328.27C222.268 328.561 215.213 328.016 208.241 326.732C195.052 324.306 182.438 320.334 171.632 312.003C169.495 310.353 168.374 310.122 167.036 312.981C161.08 325.679 153.316 337.154 143.101 346.873C142.1 347.821 141.285 348.792 141.195 350.345C140.448 363.849 139.35 377.317 139.544 390.881C139.701 401.982 144.304 410.604 152.995 416.965C166.894 427.132 182.542 431.037 199.722 429.141C215.415 427.416 225.817 419.316 230.959 404.363C236.653 387.805 237.968 370.702 237.557 350.494V350.501ZM216.626 230.766C215.744 229.482 216.327 226.697 214.324 226.496C212.882 226.354 210.065 227.966 210.431 229.519C210.857 231.296 213.704 231.609 215.565 232.371C216.603 232.796 216.596 231.721 216.626 230.766Z" fill="#8A4FEC"/>
<path d="M392.999 290.212C391.586 294.736 392.109 299.461 391.654 304.075C390.338 317.49 388.373 330.763 384.965 343.813C384.816 344.395 384.517 344.94 384.285 345.5C383.202 345.104 383.045 344.051 382.619 343.178C380.213 338.303 377.396 333.697 373.592 329.755C372.344 328.225 371.245 326.538 369.818 325.202C353.953 310.338 335.055 302.873 313.369 302.104C305.776 301.835 298.288 302.582 290.816 303.791C290.756 291.048 290.689 278.305 290.629 265.569C291.085 265.405 291.615 265.345 291.981 265.061C302.406 256.812 314.639 253.804 327.53 253.878C343.193 253.96 357.481 258.962 370.371 267.943C376.394 272.138 381.491 277.394 387.013 282.157C388.037 284.65 390.077 286.322 391.728 288.413C392.58 287.539 391.9 286.233 393.006 285.74V290.219L392.999 290.212Z" fill="#8A4FEC"/>
<path d="M392.999 285.733C391.9 286.225 392.573 287.532 391.721 288.405C390.069 286.315 388.022 284.643 387.006 282.149C388.164 275.05 389.188 267.928 390.578 260.881C390.906 259.231 389.412 256.708 392.281 255.864C392.521 255.804 392.752 255.804 392.991 255.872V285.733H392.999Z" fill="#8A4FEC"/>
<path d="M203.19 497C203.234 496.701 203.279 496.403 203.324 496.104C221.199 496.134 239.081 496.164 256.956 496.186C256.971 496.455 256.986 496.724 257.001 496.993H203.197L203.19 497Z" fill="#8A4FEC"/>
<path d="M201.112 149.872C198.198 151.246 197.256 154.314 195.5 156.628C181.668 174.888 164.623 189.535 145.395 201.793C143.96 202.711 142.54 203.174 140.844 202.375C137.436 200.778 133.147 201.353 130.405 198.113C138.303 192.715 146.09 187.161 153.294 180.853C166.648 169.162 178.791 156.479 186.152 139.973C193.213 124.139 191.704 109.44 179.703 96.5477C171.281 87.4923 160.864 84.0732 148.623 87.2684C147.816 87.2087 147.248 86.8354 146.927 86.0814C146.232 84.4241 145.417 84.2151 143.975 85.5215C140.074 89.0451 136.054 92.4344 132.086 95.8833C127.012 99.5637 123.134 104.424 119.136 109.134C103.069 128.036 89.3042 148.775 72.752 167.289C63.6501 177.464 54.2194 187.325 42.6814 194.88C43.2269 186.124 45.409 177.673 47.7181 169.267C49.8777 161.428 52.3363 153.679 54.6603 145.893C55.034 145.662 55.4001 145.43 55.7738 145.199C56.2147 145.005 56.7452 144.915 57.089 144.609C66.1012 136.644 75.0386 128.589 84.1031 120.69C97.1955 109.276 110.691 98.3692 125.233 88.8212C142.63 77.3993 161.327 75.1298 181.07 81.2663C184.283 82.2666 185.262 81.2812 185.203 78.4071C185.113 73.7936 186.518 69.5682 188.73 65.6639C189.746 63.8722 189.23 63.3272 187.751 62.6554C184.022 60.9607 180.383 59.0347 176.564 57.564C172.312 55.9217 168.187 53.7418 163.472 53.5552C163.539 48.8521 163.434 44.1415 163.718 39.4533C164.07 33.6602 164.421 27.8224 166.655 22.3578C168.344 18.2146 170.616 17.1023 174.883 18.4311C177.431 19.2299 179.852 20.4318 182.326 21.4545L182.281 21.4172C182.176 22.0443 182.595 22.1712 183.073 22.2309L182.998 22.1712C183.245 23.0297 183.97 22.9326 184.62 22.9774C192.287 32.1523 199.917 41.342 200.238 54.1897C199.124 54.1897 198.011 54.2121 196.898 54.1897C191.136 54.1002 191.375 54.0404 192.72 59.6991C193.55 63.1705 194.872 64.1708 198.131 62.5807C199.087 62.1179 200.298 62.1776 201.396 62.0059C202.106 64.5739 202.674 67.1569 202.48 69.8519C201.008 69.1651 199.902 69.083 199.812 71.2106C199.67 74.3311 199.894 77.4217 200.656 80.4302C205.529 99.6906 219.047 109.552 237.452 114.061C236.601 115.375 235.098 115.226 233.851 115.636C227.23 117.831 220.669 120.198 215.325 124.878C211.335 128.372 211.895 131.56 216.715 133.598C222.88 136.196 229.105 138.659 235.248 141.295C236.728 141.929 237.774 141.854 238.91 140.72C243.035 136.591 247.249 132.545 250.291 127.484C252.278 124.177 253.504 120.758 252.114 116.883C262.569 117.339 272.978 117.346 283.059 113.904C283.231 120.616 281.871 127.066 279.666 133.366C271.528 134.785 263.376 134.285 255.283 133.142C252.667 132.777 253.033 134.636 252.675 135.748C250.597 142.168 248.056 148.252 243.027 153.067C237.647 158.211 231.482 160.443 224.076 158.995C222.88 158.763 221.61 158.883 220.37 158.838C214.496 155.583 208.241 152.993 202.943 148.715C201.949 147.916 201.067 148.461 201.12 149.895L201.112 149.872Z" fill="#8A4FEC"/>
<path d="M148.616 87.2684C160.856 84.0807 171.273 87.4998 179.695 96.5477C191.696 109.44 193.206 124.139 186.144 139.973C178.783 156.479 166.648 169.162 153.286 180.853C146.083 187.161 138.296 192.708 130.397 198.113C129.246 198.202 128.096 198.285 126.952 198.374L126.982 198.419C126.773 198.173 126.564 197.934 126.354 197.687C125.211 197.06 125.293 195.784 124.875 194.798C121.669 187.288 118.852 179.591 115.295 172.253C109.01 159.308 111.7 161.152 97.315 161.07C91.5386 161.04 91.0603 161.772 92.809 167.401C93.063 168.222 93.1826 169.08 93.3694 169.916C92.6744 170.215 91.972 170.514 91.277 170.812C89.5433 170.835 88.5868 169.536 87.705 168.423C85.6126 165.796 83.9836 166.146 81.7343 168.446C77.7662 172.507 73.6188 176.434 69.2173 180.017C67.1773 181.674 67.2819 182.279 69.2323 183.638C73.1854 186.385 76.9367 189.416 80.9272 192.096C85.097 194.895 88.7662 198.434 93.3619 200.614C94.6921 202.219 96.9489 202.853 97.868 204.891C97.3748 206.25 96.224 207.026 95.1554 207.84C90.5596 211.334 87.0624 215.723 84.3946 220.807C83.8939 221.278 83.3932 221.755 82.8926 222.226C81.0841 222.681 79.8436 221.397 78.4612 220.695C66.7065 214.723 55.8037 207.467 45.9396 198.717C44.7066 197.628 42.9579 196.821 42.6814 194.873C54.2194 187.325 63.6426 177.464 72.752 167.281C89.3117 148.775 103.077 128.029 119.136 109.127C123.134 104.416 127.012 99.5562 132.086 95.8758C132.31 97.0852 131.742 98.093 131.07 98.959C129.515 100.967 129.717 103.087 130.449 105.275C130.718 106.066 130.621 107.208 131.57 107.484C132.751 107.835 133.349 106.671 133.812 105.932C136.405 101.841 140.418 99.3323 144.199 96.6C145.985 95.3085 148.631 94.8979 149.916 93.3078C151.463 91.3967 148.13 89.5453 148.623 87.2684L148.616 87.2684ZM177.947 125.603C173.866 118.309 168.329 112.508 160.064 110.582C148.803 107.962 139.835 117.294 139.357 128.604C151.433 117.047 164.324 117.667 177.947 125.595V125.603Z" fill="#8A4FEC"/>
<path d="M392.296 255.857C389.419 256.7 390.914 259.216 390.592 260.873C389.195 267.921 388.179 275.042 387.02 282.142C381.498 277.379 376.402 272.131 370.379 267.928C357.488 258.947 343.2 253.946 327.537 253.863C314.646 253.796 302.413 256.797 291.989 265.046C291.63 265.33 291.092 265.39 290.636 265.554C290.151 255.409 289.657 245.256 289.209 235.111C289.142 233.64 288.843 232.139 289.448 230.699C291.488 229.109 293.528 227.504 295.583 225.921C312.681 212.7 331.849 205.324 353.647 204.966C365.753 204.772 376.999 207.444 387.446 213.536C389.479 220.21 389.83 227.168 390.637 234.021C391.489 241.262 391.773 248.571 392.304 255.849L392.296 255.857Z" fill="#8A4FEC"/>
<path d="M387.439 213.543C376.992 207.452 365.753 204.779 353.639 204.973C331.841 205.332 312.674 212.7 295.576 225.928C293.528 227.511 291.488 229.116 289.441 230.706C286.758 211.214 286.997 191.917 293.185 173C294.38 173.104 295.314 172.44 296.308 171.94C316.709 161.802 338.126 157.33 360.918 160.152C362.592 160.361 364.415 161.802 366.179 160.256C378.33 175.605 383.972 193.626 387.626 212.461C387.693 212.797 387.506 213.178 387.439 213.543Z" fill="#8A4FEC"/>
<path d="M290.823 303.791C298.289 302.574 305.776 301.835 313.376 302.104C335.055 302.873 353.961 310.338 369.826 325.202C371.253 326.538 372.351 328.233 373.599 329.755C369.676 338.9 365.461 347.911 358.534 355.242C353.557 360.505 347.773 364.514 340.054 364.051C337.491 363.902 334.965 363.148 332.417 362.67C327.051 359.408 322.216 355.361 316.522 352.562C308.661 348.702 300.403 346.112 291.75 345.619C287.236 345.365 286.691 343.79 287.647 340.222C289.254 328.121 289.859 315.937 290.838 303.784L290.823 303.791Z" fill="#8A4FEC"/>
<path d="M163.464 53.5403C168.18 53.7269 172.297 55.9068 176.557 57.5491C180.375 59.0198 184.007 60.9533 187.743 62.6404C189.223 63.3123 189.746 63.8498 188.722 65.6489C186.51 69.5458 185.098 73.7712 185.195 78.3922C185.255 81.2663 184.276 82.2517 181.063 81.2514C161.32 75.1149 142.63 77.3844 125.226 88.8062C110.684 98.3543 97.188 109.261 84.0957 120.675C75.0312 128.581 66.0937 136.629 57.0815 144.594C56.7378 144.9 56.2072 144.99 55.7663 145.184C55.7215 142.952 57.9782 141.063 56.7452 138.652C58.5835 138.51 58.5611 136.905 59.0618 135.711C63.665 124.759 68.7764 114.069 74.4856 103.64C76.4659 100.019 79.5672 96.8613 79.8735 92.412C80.3294 92.2776 81.0169 92.285 81.2037 91.979C85.0597 85.7231 89.775 80.1092 94.2811 74.3385C99.8259 71.6436 105.296 68.7694 110.938 66.2984C118.538 62.9764 126.422 60.4083 134.395 58.109C135.807 57.7059 137.317 57.5267 138.505 56.5189C140.015 56.6607 141.442 56.3248 142.899 55.9889C149.669 54.4361 156.47 53.0998 163.479 53.5253L163.464 53.5403Z" fill="#8A4FEC"/>
<path d="M56.7378 138.659C57.9782 141.071 55.714 142.959 55.7588 145.191C55.3852 145.423 55.0115 145.654 54.6454 145.886C45.7752 131.627 38.0782 116.801 33.1237 100.683C28.1468 84.4913 26.9587 68.2842 33.5646 52.1965C38.4593 40.2595 41.8071 39.0427 52.6726 45.5151C67.1922 54.1748 80.8674 64.0812 94.2736 74.3535C89.7675 80.1241 85.0522 85.738 81.1962 91.9939C81.0094 92.2925 80.3219 92.285 79.8661 92.4269C76.2642 88.8212 72.7221 85.1557 69.0455 81.6172C62.7758 75.5852 56.4613 69.5831 48.9959 64.9995C43.2942 61.4908 39.2514 62.9838 37.3085 69.3741C35.5673 75.0851 35.9783 80.9602 36.9348 86.7383C40.0211 105.372 47.8825 122.213 56.7378 138.659Z" fill="#8A4FEC"/>
<path d="M237.445 114.054C219.039 109.545 205.521 99.6831 200.649 80.4227C199.887 77.4142 199.67 74.3236 199.804 71.2031C199.902 69.0755 201.008 69.1576 202.472 69.8444C217.463 77.8472 232.498 85.7455 247.414 93.8751C259.378 100.392 271.454 106.715 283.044 113.897C272.963 117.339 262.554 117.339 252.099 116.876C250.074 114.561 247.533 113.733 244.477 113.979C242.138 114.166 239.784 114.046 237.43 114.061L237.445 114.054ZM224.831 105.103C224.936 105.424 225.048 105.752 225.152 106.073C225.249 106.006 225.429 105.887 225.421 105.879C225.257 105.596 225.07 105.319 224.891 105.043C224.48 101.206 221.812 97.996 221.864 94.0095C221.909 90.4187 223.344 89.2765 226.774 90.4187C228.41 90.9637 229.972 91.7251 231.571 92.3896C231.683 92.4866 231.803 92.5837 231.915 92.6807C231.818 92.5687 231.713 92.4567 231.616 92.3448C229.367 88.0448 225.997 84.9541 221.476 83.1923C218.688 82.1099 216.768 83.476 216.02 86.0067C214.459 91.2996 219.675 102.289 224.838 105.088L224.831 105.103Z" fill="#8A4FEC"/>
<path d="M366.179 160.264C364.415 161.809 362.592 160.368 360.918 160.159C338.126 157.337 316.709 161.809 296.308 171.947C295.314 172.44 294.38 173.112 293.185 173.007C296.286 163.668 300.837 155.195 308.377 148.655C322.015 136.83 340.375 137.256 355.762 149.656C359.64 152.784 363.16 156.277 366.171 160.264H366.179Z" fill="#8A4FEC"/>
<path d="M163.464 53.5403C156.455 53.1147 149.655 54.451 142.884 56.0038C141.419 56.3397 139.992 56.6831 138.49 56.5338C142.354 40.5059 146.142 24.4481 152.449 9.14428C155.887 0.790634 158.248 0.126224 165.721 5.21754C171.916 9.43542 177.214 14.676 182.176 20.2675C182.483 20.6109 182.894 20.9693 182.326 21.4396C179.852 20.4168 177.431 19.2149 174.883 18.4161C170.616 17.0799 168.344 18.1922 166.655 22.3429C164.421 27.8075 164.07 33.6528 163.718 39.4384C163.434 44.1266 163.539 48.8371 163.472 53.5403H163.464Z" fill="#8A4FEC"/>
<path d="M159.13 489.363C166.192 491.058 173.149 493.118 179.889 496.321C162.485 496.321 145.089 496.321 127.684 496.321C127.737 492.7 130.39 491.043 133.057 489.617C139.813 486.019 146.964 487.019 154.078 488.206C155.775 488.49 157.441 488.975 159.123 489.363H159.13Z" fill="#8A4FEC"/>
<path d="M201.389 61.9984C200.298 62.1776 199.08 62.1104 198.123 62.5732C194.865 64.1708 193.535 63.1705 192.713 59.6917C191.368 54.0255 191.121 54.0927 196.89 54.1823C198.004 54.1972 199.117 54.1823 200.23 54.1823C205.252 55.0557 210.58 55.5036 211.275 62.5061C207.965 62.0134 204.699 61.2295 201.389 62.0059V61.9984Z" fill="#8A4FEC"/>
<path d="M184.612 22.97C183.962 22.9252 183.237 23.0148 182.991 22.1637C183.985 21.5217 184.082 22.6788 184.612 22.97Z" fill="#8A4FEC"/>
<path d="M183.065 22.2234C182.587 22.1563 182.176 22.0293 182.273 21.4097C183.148 21.0962 183.379 21.3948 183.065 22.2234Z" fill="#8A4FEC"/>
<path d="M237.557 350.509C237.968 370.717 236.645 387.82 230.959 404.378C225.817 419.331 215.415 427.424 199.722 429.156C182.542 431.044 166.894 427.147 152.995 416.98C144.304 410.619 139.701 401.997 139.544 390.896C139.35 377.339 140.448 363.864 141.195 350.36C141.285 348.807 142.1 347.844 143.101 346.888C153.309 337.161 161.08 325.694 167.036 312.996C168.374 310.137 169.495 310.368 171.632 312.018C182.438 320.349 195.052 324.321 208.241 326.747C215.213 328.031 222.268 328.576 229.367 328.285C230.361 328.247 231.377 328.292 232.341 328.113C236.63 327.299 236.309 327.322 236.937 331.816C237.946 339.005 237.348 346.209 237.557 350.516V350.509Z" fill="#8A4FEC"/>
<path d="M332.409 362.67C334.95 363.148 337.483 363.902 340.046 364.051C347.766 364.506 353.557 360.505 358.527 355.242C365.454 347.911 369.676 338.9 373.592 329.755C377.403 333.69 380.213 338.303 382.619 343.178C383.045 344.044 383.209 345.097 384.285 345.5C382.417 355.847 378.584 365.536 374.384 375.092C370.625 383.64 366.104 391.784 360.642 399.377C359.849 400.474 359.169 401.698 357.892 402.355C354.417 390.948 348.311 381.012 340.704 371.949C338.036 368.776 335.182 365.76 332.409 362.677V362.67Z" fill="#8A4FEC"/>
<path d="M93.3545 200.606C88.7587 198.434 85.0896 194.895 80.9197 192.088C76.9293 189.408 73.1779 186.377 69.2248 183.63C67.2744 182.279 67.1698 181.667 69.2099 180.009C73.6113 176.426 77.7587 172.499 81.7268 168.438C83.9761 166.139 85.6052 165.788 87.6976 168.416C88.5868 169.536 89.5359 170.827 91.2696 170.805C91.419 173.246 93.5039 173.858 95.5141 175.515C94.8117 173.141 94.6024 171.342 93.3694 169.909C93.1826 169.065 93.063 168.207 92.8089 167.393C91.0603 161.764 91.5386 161.025 97.315 161.063C111.7 161.145 109.01 159.308 115.295 172.246C118.859 179.584 121.669 187.281 124.875 194.791C125.293 195.776 125.218 197.053 126.354 197.68C126.377 198.083 126.474 198.419 126.982 198.411C126.982 198.411 126.945 198.367 126.952 198.367C126.818 200.315 126.9 202.308 126.489 204.197C125.615 208.258 123.746 209.012 120.197 206.989C119.233 206.444 118.291 205.869 117.335 205.309C114.495 202.189 111.865 198.897 109.511 195.395C110.437 193.686 109.264 192.26 108.793 190.789C106.91 184.847 104.907 178.949 102.628 172.074C102.21 176.21 103.689 179.748 101.477 182.174C98.5779 185.347 96.5902 189.386 92.7492 191.693C89.0576 191.984 86.2254 189.483 82.8851 188.654C82.5189 188.035 82.1976 187.333 81.2859 187.497C81.1589 187.52 80.9496 187.893 81.0019 188.02C81.3531 188.923 82.1976 188.58 82.8627 188.684C84.148 192.088 87.1371 193.947 89.7003 196.179C91.1724 197.456 93.0032 198.404 93.3545 200.599V200.606Z" fill="#8A4FEC"/>
<path d="M313.869 435.867C305.507 439.45 296.727 441.294 287.729 442.317C286.885 437.785 285.57 433.351 283.462 429.305C281.781 426.072 281.729 423.071 282.439 419.697C284.845 408.193 285.861 396.51 286.885 384.827C286.96 384.013 286.496 382.878 287.445 382.468C288.611 381.968 289.127 383.229 289.807 383.849C302.959 395.92 309.826 411.269 313.032 428.514C313.488 430.947 313.981 433.373 313.862 435.874L313.869 435.867Z" fill="#8A4FEC"/>
<path d="M256.956 496.186C239.081 496.156 221.199 496.127 203.324 496.104C205.603 489.52 211.283 488.146 217.156 487.303C221.745 486.646 226.288 487.691 230.839 488.273C239.56 490.684 248.281 493.103 257.001 495.514C257.113 495.746 257.098 495.97 256.956 496.186Z" fill="#8A4FEC"/>
<path d="M93.3545 200.606C93.0032 198.419 91.1724 197.463 89.7003 196.187C87.1296 193.955 84.148 192.096 82.8627 188.692L82.8851 188.662C86.2329 189.49 89.0576 191.991 92.7492 191.7C97.3076 196.635 102.71 198.083 109.055 195.657C108.793 197.262 109.518 198.628 110.363 199.822C112.156 202.361 112.993 205.13 112.993 208.206C112.32 211.035 110.587 211.744 108.061 210.542C105.856 209.497 103.727 208.31 101.56 207.183C100.663 205.877 99.4299 205.108 97.8606 204.876C96.9339 202.838 94.6846 202.204 93.3545 200.599V200.606Z" fill="#8A4FEC"/>
<path d="M201.112 149.872C201.06 148.446 201.942 147.894 202.936 148.693C208.234 152.97 214.481 155.561 220.362 158.816C220.243 158.853 220.101 158.853 220.011 158.928C211.798 165.422 206.059 163.668 202.569 153.605C202.129 152.343 201.605 151.111 201.12 149.872L201.112 149.872Z" fill="#8A4FEC"/>
<path d="M97.8606 204.884C99.4299 205.115 100.663 205.884 101.56 207.191C100.401 217.478 91.9645 218.605 84.3871 220.8C87.0549 215.716 90.5596 211.326 95.1479 207.833C96.2165 207.019 97.3674 206.242 97.8606 204.884Z" fill="#8A4FEC"/>
<path d="M113 208.206C113 205.138 112.164 202.361 110.37 199.822C109.526 198.628 108.801 197.262 109.062 195.657C109.137 195.44 109.286 195.358 109.518 195.403C111.88 198.904 114.502 202.196 117.342 205.317C116.378 207.004 114.495 207.31 113 208.198V208.206Z" fill="#8A4FEC"/>
<path d="M216.626 230.773C216.596 231.729 216.603 232.804 215.565 232.378C213.704 231.617 210.857 231.303 210.431 229.527C210.057 227.974 212.882 226.361 214.324 226.503C216.334 226.705 215.744 229.489 216.626 230.773Z" fill="#8A4FEC"/>
<path d="M237.445 114.054C239.791 114.039 242.153 114.158 244.492 113.972C247.548 113.733 250.081 114.561 252.114 116.868C253.504 120.743 252.278 124.169 250.291 127.469C247.249 132.53 243.035 136.577 238.91 140.705C237.774 141.84 236.728 141.914 235.248 141.28C229.098 138.644 222.88 136.181 216.715 133.583C211.895 131.552 211.335 128.357 215.325 124.864C220.669 120.19 227.23 117.816 233.851 115.621C235.091 115.211 236.601 115.36 237.452 114.046L237.445 114.054Z" fill="#8A4FEC"/>
<path d="M148.616 87.2684C148.13 89.5453 151.455 91.3967 149.909 93.3078C148.623 94.8979 145.978 95.3085 144.192 96.6C140.411 99.3323 136.405 101.841 133.805 105.932C133.334 106.671 132.744 107.835 131.563 107.484C130.614 107.201 130.711 106.066 130.442 105.275C129.71 103.087 129.508 100.975 131.062 98.959C131.727 98.093 132.303 97.0852 132.079 95.8758C136.054 92.4344 140.074 89.0451 143.968 85.514C145.41 84.2151 146.217 84.4241 146.919 86.0739C147.241 86.8354 147.809 87.2087 148.616 87.2609L148.616 87.2684Z" fill="#8A4FEC"/>
<path d="M177.947 125.603C164.324 117.674 151.433 117.047 139.357 128.611C139.835 117.301 148.803 107.97 160.064 110.59C168.329 112.508 173.866 118.316 177.947 125.61V125.603Z" fill="#8A4FEC"/>
<path d="M93.3694 169.916C94.6024 171.35 94.8117 173.149 95.5141 175.523C93.5039 173.866 91.419 173.261 91.2696 170.812C91.9645 170.514 92.667 170.215 93.3619 169.916L93.3694 169.916Z" fill="#8A4FEC"/>
<path d="M126.99 198.419C126.481 198.426 126.384 198.09 126.362 197.687C126.571 197.934 126.78 198.172 126.99 198.419Z" fill="#8A4FEC"/>
<path d="M56.7378 138.659C47.8825 122.213 40.0211 105.372 36.9348 86.7383C35.9783 80.9602 35.5748 75.0851 37.3085 69.3741C39.2514 62.9838 43.2942 61.4908 48.9959 64.9995C56.4538 69.5831 62.7758 75.5927 69.0455 81.6172C72.7221 85.1482 76.2642 88.8212 79.8661 92.4269C79.5522 96.8687 76.4585 100.034 74.4782 103.655C68.769 114.084 63.6576 124.774 59.0543 135.725C58.5536 136.92 58.5761 138.525 56.7378 138.667L56.7378 138.659Z" fill="#8A4FEC"/>
<path d="M231.571 92.4045C229.972 91.7401 228.41 90.9786 226.774 90.4262C223.344 89.284 221.909 90.4262 221.864 94.017C221.812 98.0034 224.48 101.214 224.891 105.051L224.831 105.103C219.675 102.303 214.451 91.3146 216.013 86.0217C216.76 83.491 218.688 82.1248 221.468 83.2073C225.989 84.9691 229.359 88.0597 231.609 92.3597L231.564 92.4045H231.571Z" fill="#8A4FEC"/>
<path d="M224.891 105.051C225.07 105.327 225.257 105.596 225.421 105.887C225.421 105.894 225.242 106.014 225.152 106.081C225.048 105.76 224.935 105.431 224.831 105.11L224.891 105.058V105.051Z" fill="#8A4FEC"/>
<path d="M231.616 92.3597C231.713 92.4717 231.818 92.5837 231.915 92.6956C231.803 92.5986 231.683 92.5015 231.571 92.4045L231.616 92.3597Z" fill="#8A4FEC"/>
<path d="M109.518 195.41C109.294 195.366 109.137 195.448 109.062 195.664C102.718 198.09 97.315 196.642 92.7566 191.708C96.5977 189.408 98.5929 185.37 101.485 182.189C103.704 179.763 102.225 176.225 102.636 172.089C104.915 178.964 106.91 184.862 108.801 190.804C109.264 192.275 110.437 193.701 109.518 195.41Z" fill="#8A4FEC"/>
<path d="M82.8627 188.699C82.1976 188.595 81.3532 188.945 81.0019 188.035C80.9496 187.908 81.1589 187.542 81.2859 187.512C82.1976 187.34 82.5189 188.05 82.8851 188.669L82.8627 188.699Z" fill="#8A4FEC"/>
</g>
<mask id="mask1_2667_179" style="mask-type:alpha" maskUnits="userSpaceOnUse" x="-714" y="0" width="1180" height="366">
<rect x="-714" width="1180" height="366" rx="20" fill="#D9D9D9"/>
</mask>
<g mask="url(#mask1_2667_179)">
<path d="M149.128 487.363C148.381 484.653 145.743 483.869 143.875 482.354C131.664 472.455 120.186 461.899 111.361 448.693C104.052 437.756 102.334 425.901 103.978 413.098C106.182 395.988 110.277 379.221 112.84 362.185C113.094 360.506 113.647 359.244 111.009 359.819C108.872 360.289 107.109 358.975 105.622 357.699C90.5788 344.709 78.2113 329.667 70.1258 311.332C66.7406 303.658 67.4505 295.752 68.6985 287.891C71.7997 268.369 77.0381 249.355 83.3302 230.647C84.5483 227.026 83.5843 225.451 80.2738 224.272C77.6359 223.331 74.7888 222.577 72.8832 220.218C73.3839 219.748 73.8846 219.27 74.3853 218.8C81.9702 216.597 90.3995 215.478 91.5578 205.191C93.7249 206.318 95.8546 207.505 98.0591 208.55C100.585 209.752 102.326 209.043 102.991 206.213C104.486 205.325 106.369 205.011 107.333 203.324C108.282 203.884 109.231 204.459 110.195 205.004C113.744 207.027 115.62 206.266 116.487 202.212C116.891 200.323 116.808 198.33 116.95 196.382C118.101 196.292 119.252 196.21 120.395 196.12C123.138 199.36 127.435 198.785 130.835 200.383C132.531 201.182 133.951 200.719 135.386 199.801C154.613 187.543 171.666 172.896 185.491 154.636C187.239 152.321 188.188 149.253 191.103 147.88C191.589 149.126 192.112 150.358 192.553 151.612C196.042 161.675 201.789 163.43 209.994 156.935C210.084 156.86 210.226 156.86 210.345 156.823C211.586 156.868 212.849 156.741 214.052 156.98C221.457 158.428 227.622 156.196 233.003 151.052C238.032 146.245 240.573 140.153 242.65 133.733C243.009 132.621 242.65 130.762 245.258 131.128C253.351 132.27 261.504 132.77 269.642 131.352C268.237 140.78 264.643 149.515 260.802 158.122C252.866 175.912 241.612 191.447 227.884 205.22C226.629 206.482 225.366 207.355 227.241 209.393C250.87 235.059 264.471 265.682 271.675 299.462C274.26 311.608 275.77 323.896 276.838 336.251C276.906 336.983 276.838 337.766 277.608 338.214C276.659 341.783 277.204 343.358 281.711 343.612C290.364 344.104 298.622 346.702 306.483 350.554C312.177 353.346 317.02 357.4 322.378 360.662C325.15 363.746 328.012 366.762 330.672 369.934C338.28 379.005 344.392 388.933 347.86 400.34C347.763 400.691 347.755 401.124 347.546 401.385C335.836 416.04 321.668 427.417 303.838 433.852C303.95 431.351 303.456 428.925 303.008 426.491C299.802 409.246 292.935 393.905 279.783 381.826C279.103 381.207 278.587 379.945 277.421 380.445C276.472 380.856 276.928 381.983 276.861 382.804C275.844 394.488 274.828 406.178 272.414 417.675C271.704 421.049 271.757 424.05 273.438 427.282C275.538 431.329 276.861 435.763 277.705 440.294C275.493 440.563 273.177 441.399 271.084 441.004C263.126 439.511 259.748 444.176 256.602 450.32C249.876 463.467 244.773 476.83 247.657 491.977C247.769 492.574 247.732 493.223 246.97 493.485C238.249 491.073 229.528 488.655 220.807 486.243C216.585 483.197 212.191 480.368 208.186 477.068C197.686 468.409 186.186 460.331 186.133 444.221C181.037 447.006 176.606 450.111 172.309 453.456C167.706 457.039 165.935 461.638 166.121 467.461C166.428 477.053 169.193 486.019 172.234 494.963H117.683C117.593 494.746 117.586 494.522 117.653 494.291C135.057 494.291 152.454 494.291 169.858 494.291C163.11 491.081 156.16 489.028 149.098 487.333L149.128 487.363ZM227.555 348.501C227.346 344.194 227.944 336.99 226.935 329.801C226.307 325.307 226.629 325.284 222.339 326.098C221.368 326.285 220.359 326.233 219.365 326.27C212.266 326.561 205.212 326.016 198.239 324.732C185.05 322.306 172.436 318.334 161.63 310.003C159.493 308.353 158.372 308.122 157.034 310.981C151.079 323.679 143.314 335.154 133.099 344.873C132.098 345.821 131.283 346.792 131.193 348.345C130.446 361.849 129.348 375.317 129.542 388.881C129.699 399.982 134.302 408.604 142.993 414.965C156.892 425.132 172.54 429.037 189.72 427.141C205.413 425.416 215.815 417.316 220.957 402.363C226.651 385.805 227.966 368.702 227.555 348.494V348.501ZM206.624 228.766C205.742 227.482 206.325 224.697 204.322 224.496C202.88 224.354 200.063 225.966 200.429 227.519C200.855 229.296 203.702 229.609 205.563 230.371C206.601 230.796 206.594 229.721 206.624 228.766Z" fill="#B9A8A9"/>
<path d="M382.999 288.212C381.586 292.736 382.11 297.461 381.654 302.075C380.338 315.49 378.373 328.763 374.966 341.813C374.816 342.395 374.517 342.94 374.285 343.5C373.202 343.104 373.045 342.051 372.619 341.178C370.213 336.303 367.396 331.697 363.592 327.755C362.344 326.225 361.245 324.538 359.818 323.202C343.953 308.338 325.055 300.873 303.369 300.104C295.776 299.835 288.289 300.582 280.816 301.791C280.756 289.048 280.689 276.305 280.629 263.569C281.085 263.405 281.615 263.345 281.982 263.061C292.406 254.812 304.639 251.804 317.53 251.878C333.193 251.96 347.481 256.962 360.371 265.943C366.394 270.138 371.491 275.394 377.013 280.157C378.037 282.65 380.077 284.322 381.728 286.413C382.58 285.539 381.9 284.233 383.006 283.74V288.219L382.999 288.212Z" fill="#B9A7A8"/>
<path d="M382.997 283.733C381.899 284.225 382.571 285.532 381.719 286.405C380.068 284.315 378.02 282.643 377.004 280.149C378.162 273.05 379.186 265.928 380.576 258.881C380.905 257.231 379.41 254.708 382.28 253.864C382.519 253.804 382.75 253.804 382.99 253.872V283.733H382.997Z" fill="#857171"/>
<path d="M191.11 147.872C188.196 149.246 187.255 152.314 185.498 154.628C171.666 172.888 154.621 187.535 135.393 199.793C133.959 200.711 132.539 201.174 130.842 200.375C127.435 198.778 123.145 199.353 120.403 196.113C128.302 190.715 136.088 185.161 143.292 178.853C156.646 167.162 168.789 154.479 176.15 137.973C183.212 122.139 181.702 107.44 169.701 94.5477C161.279 85.4923 150.862 82.0732 138.622 85.2684C137.814 85.2086 137.247 84.8354 136.925 84.0814C136.23 82.4241 135.416 82.2151 133.973 83.5215C130.073 87.0451 126.052 90.4343 122.084 93.8833C117.01 97.5637 113.132 102.424 109.134 107.134C93.0674 126.036 79.3025 146.775 62.7502 165.289C53.6484 175.464 44.2177 185.325 32.6797 192.88C33.2252 184.124 35.4073 175.673 37.7164 167.267C39.876 159.428 42.3345 151.679 44.6586 143.893C45.0322 143.662 45.3984 143.43 45.772 143.199C46.2129 143.005 46.7435 142.915 47.0872 142.609C56.0994 134.644 65.0369 126.589 74.1014 118.69C87.1937 107.276 100.69 96.3692 115.232 86.8211C132.628 75.3993 151.325 73.1298 171.068 79.2663C174.282 80.2666 175.261 79.2812 175.201 76.4071C175.111 71.7935 176.516 67.5682 178.728 63.6639C179.744 61.8722 179.229 61.3272 177.749 60.6554C174.02 58.9607 170.381 57.0347 166.562 55.564C162.31 53.9217 158.185 51.7418 153.47 51.5552C153.537 46.8521 153.433 42.1415 153.717 37.4533C154.068 31.6602 154.419 25.8224 156.653 20.3578C158.342 16.2146 160.614 15.1022 164.881 16.4311C167.429 17.2298 169.85 18.4318 172.324 19.4545L172.279 19.4172C172.174 20.0443 172.593 20.1712 173.071 20.2309L172.996 20.1712C173.243 21.0297 173.968 20.9326 174.618 20.9774C182.285 30.1522 189.915 39.342 190.236 52.1897C189.123 52.1897 188.009 52.2121 186.896 52.1897C181.134 52.1001 181.373 52.0404 182.719 57.6991C183.548 61.1705 184.871 62.1708 188.129 60.5807C189.085 60.1179 190.296 60.1776 191.394 60.0059C192.104 62.5739 192.672 65.1569 192.478 67.8519C191.006 67.1651 189.9 67.083 189.81 69.2106C189.668 72.331 189.892 75.4217 190.655 78.4302C195.527 97.6906 209.045 107.552 227.451 112.061C226.599 113.375 225.097 113.226 223.849 113.636C217.228 115.831 210.667 118.198 205.324 122.878C201.333 126.372 201.894 129.56 206.714 131.598C212.879 134.196 219.104 136.659 225.246 139.295C226.726 139.929 227.772 139.854 228.908 138.72C233.033 134.591 237.248 130.545 240.289 125.484C242.277 122.177 243.502 118.758 242.112 114.883C252.567 115.338 262.976 115.346 273.057 111.904C273.229 118.616 271.869 125.066 269.665 131.366C261.527 132.785 253.374 132.285 245.281 131.142C242.665 130.777 243.031 132.636 242.673 133.748C240.595 140.168 238.055 146.252 233.025 151.067C227.645 156.211 221.48 158.443 214.074 156.995C212.879 156.763 211.608 156.883 210.368 156.838C204.494 153.583 198.24 150.993 192.941 146.715C191.947 145.916 191.066 146.461 191.118 147.895L191.11 147.872Z" fill="#F0DBD9"/>
<path d="M138.614 85.2684C150.855 82.0807 161.272 85.4998 169.693 94.5477C181.695 107.44 183.204 122.139 176.142 137.973C168.782 154.479 156.646 167.162 143.285 178.853C136.081 185.161 128.294 190.708 120.395 196.113C119.245 196.202 118.094 196.284 116.95 196.374L116.98 196.419C116.771 196.173 116.562 195.934 116.353 195.687C115.209 195.06 115.291 193.784 114.873 192.798C111.667 185.288 108.85 177.591 105.293 170.253C99.0082 157.308 101.698 159.152 87.3133 159.07C81.5368 159.04 81.0586 159.772 82.8072 165.401C83.0613 166.222 83.1809 167.08 83.3677 167.916C82.6727 168.215 81.9703 168.514 81.2753 168.812C79.5416 168.835 78.5851 167.536 77.7033 166.423C75.6109 163.796 73.9818 164.146 71.7325 166.446C67.7645 170.507 63.6171 174.434 59.2156 178.017C57.1755 179.674 57.2801 180.279 59.2305 181.638C63.1836 184.385 66.935 187.416 70.9255 190.096C75.0953 192.895 78.7644 196.434 83.3602 198.614C84.6904 200.219 86.9472 200.853 87.8663 202.891C87.3731 204.25 86.2223 205.026 85.1537 205.84C80.5579 209.334 77.0606 213.723 74.3928 218.807C73.8922 219.278 73.3915 219.755 72.8908 220.226C71.0824 220.681 69.8419 219.397 68.4594 218.695C56.7047 212.723 45.8019 205.467 35.9378 196.717C34.7048 195.628 32.9562 194.821 32.6797 192.873C44.2177 185.325 53.6409 175.464 62.7502 165.281C79.3099 146.775 93.0748 126.029 109.134 107.127C113.132 102.416 117.01 97.5562 122.084 93.8758C122.308 95.0852 121.74 96.093 121.068 96.959C119.514 98.9672 119.715 101.087 120.448 103.275C120.717 104.066 120.62 105.208 121.569 105.484C122.749 105.835 123.347 104.671 123.81 103.932C126.404 99.8406 130.416 97.3323 134.198 94.6C135.984 93.3085 138.629 92.8979 139.914 91.3078C141.461 89.3967 138.128 87.5453 138.622 85.2684H138.614ZM167.945 123.603C163.865 116.309 158.327 110.508 150.062 108.582C138.801 105.962 129.834 115.294 129.355 126.604C141.431 115.047 154.322 115.667 167.945 123.595V123.603Z" fill="#634C4B"/>
<path d="M382.295 253.857C379.418 254.7 380.912 257.216 380.591 258.873C379.193 265.921 378.177 273.042 377.019 280.142C371.496 275.379 366.4 270.131 360.377 265.928C347.486 256.947 333.198 251.946 317.535 251.863C304.645 251.796 292.412 254.797 281.987 263.046C281.629 263.33 281.09 263.39 280.635 263.554C280.149 253.409 279.656 243.256 279.207 233.111C279.14 231.64 278.841 230.139 279.446 228.699C281.487 227.109 283.527 225.504 285.582 223.921C302.679 210.7 321.847 203.324 343.645 202.966C355.751 202.772 366.998 205.444 377.445 211.536C379.477 218.21 379.829 225.168 380.636 232.021C381.488 239.262 381.772 246.571 382.302 253.849L382.295 253.857Z" fill="#634C4B"/>
<path d="M377.437 211.544C366.99 205.452 355.751 202.779 343.638 202.973C321.84 203.332 302.672 210.7 285.574 223.928C283.527 225.511 281.487 227.116 279.439 228.706C276.756 209.214 276.996 189.917 283.183 171C284.379 171.104 285.313 170.44 286.307 169.94C306.707 159.802 328.124 155.33 350.916 158.152C352.59 158.361 354.414 159.802 356.177 158.256C368.328 173.605 373.97 191.626 377.624 210.461C377.691 210.797 377.505 211.178 377.437 211.544Z" fill="#B9A7A8"/>
<path d="M280.824 301.791C288.289 300.574 295.777 299.835 303.377 300.104C325.056 300.873 343.962 308.338 359.827 323.202C361.254 324.538 362.352 326.232 363.6 327.755C359.677 336.9 355.462 345.911 348.535 353.242C343.558 358.505 337.774 362.514 330.055 362.051C327.492 361.902 324.966 361.148 322.418 360.67C317.052 357.407 312.217 353.361 306.523 350.562C298.662 346.702 290.404 344.112 281.751 343.619C277.237 343.365 276.692 341.79 277.648 338.222C279.255 326.121 279.86 313.937 280.839 301.784L280.824 301.791Z" fill="#695352"/>
<path d="M153.464 51.5403C158.18 51.7269 162.297 53.9068 166.557 55.5491C170.375 57.0198 174.007 58.9533 177.743 60.6405C179.223 61.3123 179.746 61.8498 178.722 63.649C176.51 67.5458 175.098 71.7712 175.195 76.3922C175.255 79.2663 174.276 80.2517 171.063 79.2514C151.32 73.1149 132.63 75.3844 115.226 86.8062C100.684 96.3543 87.188 107.261 74.0957 118.676C65.0312 126.581 56.0937 134.629 47.0815 142.594C46.7378 142.9 46.2072 142.99 45.7663 143.184C45.7214 140.952 47.9782 139.063 46.7452 136.652C48.5835 136.51 48.5611 134.905 49.0618 133.711C53.665 122.759 58.7764 112.069 64.4856 101.64C66.4659 98.0191 69.5671 94.8613 69.8735 90.412C70.3294 90.2776 71.0169 90.2851 71.2037 89.979C75.0597 83.7231 79.775 78.1092 84.2811 72.3385C89.8259 69.6436 95.296 66.7694 100.938 64.2984C108.538 60.9764 116.422 58.4083 124.395 56.109C125.807 55.7059 127.317 55.5267 128.505 54.5189C130.015 54.6608 131.442 54.3248 132.899 53.9889C139.669 52.4361 146.47 51.0998 153.479 51.5254L153.464 51.5403Z" fill="#B9A8A9"/>
<path d="M46.7378 136.659C47.9782 139.071 45.714 140.959 45.7588 143.191C45.3852 143.423 45.0115 143.654 44.6454 143.886C35.7752 129.627 28.0782 114.801 23.1237 98.6835C18.1468 82.4913 16.9587 66.2842 23.5646 50.1965C28.4593 38.2596 31.8071 37.0427 42.6726 43.5151C57.1922 52.1748 70.8674 62.0813 84.2736 72.3535C79.7675 78.1241 75.0522 83.738 71.1962 89.9939C71.0094 90.2925 70.3219 90.2851 69.8661 90.4269C66.2642 86.8212 62.7221 83.1557 59.0455 79.6172C52.7758 73.5853 46.4613 67.5832 38.9959 62.9995C33.2942 59.4908 29.2514 60.9839 27.3085 67.3741C25.5673 73.0851 25.9783 78.9603 26.9348 84.7384C30.0211 103.372 37.8825 120.213 46.7378 136.659Z" fill="#654E4D"/>
<path d="M227.443 112.054C209.038 107.545 195.52 97.6832 190.647 78.4227C189.885 75.4142 189.668 72.3236 189.803 69.2031C189.9 67.0755 191.006 67.1576 192.471 67.8444C207.461 75.8472 222.496 83.7455 237.412 91.8752C249.376 98.3924 261.452 104.715 273.042 111.897C262.962 115.339 252.552 115.339 242.098 114.876C240.072 112.561 237.532 111.733 234.475 111.979C232.136 112.166 229.782 112.046 227.429 112.061L227.443 112.054ZM214.829 103.103C214.934 103.424 215.046 103.752 215.151 104.073C215.248 104.006 215.427 103.887 215.42 103.879C215.255 103.596 215.069 103.319 214.889 103.043C214.478 99.2061 211.81 95.996 211.863 92.0095C211.908 88.4187 213.342 87.2766 216.772 88.4187C218.409 88.9637 219.971 89.7252 221.57 90.3896C221.682 90.4866 221.802 90.5837 221.914 90.6807C221.816 90.5687 221.712 90.4568 221.615 90.3448C219.365 86.0448 215.995 82.9542 211.474 81.1924C208.687 80.1099 206.766 81.476 206.019 84.0068C204.457 89.2996 209.673 100.289 214.837 103.088L214.829 103.103Z" fill="#654E4D"/>
<path d="M356.178 158.264C354.414 159.809 352.591 158.368 350.917 158.159C328.125 155.337 306.708 159.809 286.307 169.947C285.313 170.44 284.379 171.112 283.184 171.007C286.285 161.668 290.836 153.195 298.376 146.655C312.014 134.83 330.374 135.256 345.761 147.656C349.639 150.784 353.159 154.277 356.17 158.264H356.178Z" fill="#654E4D"/>
<path d="M153.462 51.5403C146.453 51.1147 139.653 52.451 132.882 54.0038C131.418 54.3397 129.99 54.6832 128.488 54.5338C132.352 38.5059 136.14 22.4481 142.447 7.14428C145.885 -1.20937 148.246 -1.87378 155.719 3.21754C161.914 7.43542 167.212 12.676 172.174 18.2675C172.481 18.6109 172.892 18.9693 172.324 19.4396C169.85 18.4168 167.429 17.2149 164.881 16.4161C160.614 15.0799 158.342 16.1922 156.653 20.3429C154.419 25.8075 154.068 31.6528 153.716 37.4384C153.432 42.1266 153.537 46.8371 153.47 51.5403H153.462Z" fill="#654E4D"/>
<path d="M191.388 59.9985C190.297 60.1776 189.079 60.1104 188.122 60.5733C184.864 62.1708 183.534 61.1705 182.712 57.6917C181.367 52.0255 181.12 52.0927 186.889 52.1823C188.003 52.1972 189.116 52.1823 190.23 52.1823C195.251 53.0557 200.58 53.5037 201.275 60.5061C197.964 60.0134 194.698 59.2295 191.388 60.0059V59.9985Z" fill="#463232"/>
<path d="M174.614 20.97C173.964 20.9252 173.239 21.0148 172.992 20.1637C173.986 19.5217 174.083 20.6788 174.614 20.97Z" fill="#654E4D"/>
<path d="M173.064 20.2234C172.586 20.1562 172.175 20.0293 172.272 19.4097C173.146 19.0962 173.378 19.3948 173.064 20.2234Z" fill="#654E4D"/>
<path d="M227.555 348.509C227.966 368.717 226.644 385.82 220.957 402.378C215.816 417.331 205.414 425.424 189.721 427.156C172.541 429.044 156.893 425.147 142.993 414.98C134.302 408.619 129.699 399.997 129.542 388.896C129.348 375.339 130.446 361.864 131.194 348.36C131.283 346.807 132.098 345.844 133.099 344.888C143.307 335.161 151.079 323.694 157.035 310.996C158.372 308.137 159.493 308.368 161.63 310.018C172.436 318.349 185.05 322.321 198.24 324.747C205.212 326.031 212.266 326.576 219.365 326.285C220.359 326.247 221.375 326.292 222.339 326.113C226.629 325.299 226.307 325.322 226.935 329.816C227.944 337.005 227.346 344.209 227.555 348.516V348.509Z" fill="#F1DCDA"/>
<path d="M322.41 360.67C324.951 361.148 327.484 361.902 330.047 362.051C337.767 362.506 343.558 358.505 348.528 353.242C355.455 345.911 359.677 336.9 363.593 327.755C367.404 331.69 370.214 336.303 372.62 341.178C373.046 342.044 373.21 343.097 374.286 343.5C372.418 353.847 368.585 363.537 364.385 373.092C360.626 381.64 356.105 389.784 350.642 397.377C349.85 398.474 349.17 399.698 347.892 400.355C344.418 388.948 338.312 379.012 330.705 369.949C328.037 366.776 325.183 363.761 322.41 360.677V360.67Z" fill="#857171"/>
<path d="M83.3527 198.606C78.7569 196.434 75.0877 192.895 70.9179 190.088C66.9274 187.408 63.1761 184.377 59.223 181.63C57.2726 180.279 57.168 179.667 59.208 178.01C63.6095 174.426 67.7569 170.499 71.725 166.438C73.9743 164.139 75.6034 163.788 77.6957 166.416C78.585 167.536 79.5341 168.827 81.2677 168.805C81.4172 171.246 83.5021 171.858 85.5123 173.515C84.8098 171.141 84.6006 169.342 83.3676 167.909C83.1808 167.065 83.0612 166.207 82.8071 165.393C81.0585 159.764 81.5368 159.025 87.3132 159.063C101.698 159.145 99.0082 157.308 105.293 170.246C108.857 177.584 111.667 185.281 114.873 192.791C115.291 193.776 115.217 195.053 116.353 195.68C116.375 196.083 116.472 196.419 116.98 196.411C116.98 196.411 116.943 196.367 116.95 196.367C116.816 198.315 116.898 200.308 116.487 202.197C115.613 206.258 113.745 207.012 110.195 204.989C109.231 204.444 108.289 203.869 107.333 203.309C104.493 200.189 101.863 196.897 99.5088 193.395C100.435 191.686 99.2622 190.26 98.7914 188.789C96.9083 182.847 94.9056 176.949 92.6264 170.074C92.2079 174.21 93.6875 177.748 91.4756 180.174C88.5761 183.347 86.5884 187.386 82.7474 189.693C79.0558 189.984 76.2236 187.483 72.8833 186.654C72.5171 186.035 72.1958 185.333 71.2841 185.497C71.157 185.52 70.9478 185.893 71.0001 186.02C71.3513 186.923 72.1958 186.58 72.8608 186.684C74.1462 190.088 77.1353 191.947 79.6985 194.179C81.1706 195.456 83.0014 196.404 83.3527 198.599V198.606Z" fill="#463232"/>
<path d="M83.3551 198.606C83.0039 196.419 81.173 195.463 79.7009 194.187C77.1302 191.955 74.1486 190.096 72.8633 186.692L72.8857 186.662C76.2335 187.49 79.0582 189.991 82.7498 189.7C87.3082 194.635 92.711 196.083 99.0554 193.657C98.7939 195.262 99.5187 196.628 100.363 197.822C102.157 200.361 102.994 203.13 102.994 206.206C102.321 209.035 100.587 209.744 98.0616 208.542C95.8571 207.497 93.7273 206.31 91.5602 205.183C90.6635 203.877 89.4305 203.108 87.8612 202.876C86.9346 200.838 84.6852 200.204 83.3551 198.599V198.606Z" fill="#2E2C1F"/>
<path d="M191.112 147.872C191.059 146.446 191.941 145.894 192.935 146.693C198.233 150.97 204.48 153.561 210.362 156.816C210.242 156.853 210.1 156.853 210.01 156.928C201.798 163.422 196.059 161.668 192.569 151.605C192.128 150.343 191.605 149.111 191.119 147.872H191.112Z" fill="#654E4D"/>
<path d="M87.8602 202.884C89.4295 203.115 90.6625 203.884 91.5592 205.191C90.4009 215.478 81.9641 216.605 74.3867 218.8C77.0545 213.716 80.5592 209.326 85.1475 205.833C86.2162 205.019 87.367 204.242 87.8602 202.884Z" fill="#857171"/>
<path d="M103 206.206C103 203.138 102.163 200.361 100.37 197.822C99.5254 196.628 98.8005 195.262 99.062 193.657C99.1368 193.44 99.2862 193.358 99.5179 193.403C101.879 196.904 104.502 200.196 107.342 203.317C106.378 205.004 104.495 205.31 103 206.198V206.206Z" fill="#857171"/>
<path d="M206.627 228.773C206.597 229.729 206.605 230.804 205.566 230.378C203.705 229.617 200.858 229.303 200.432 227.527C200.059 225.974 202.883 224.361 204.325 224.503C206.336 224.705 205.745 227.489 206.627 228.773Z" fill="#F0DBD9"/>
<path d="M227.445 112.054C229.791 112.039 232.152 112.158 234.491 111.972C237.548 111.733 240.081 112.561 242.114 114.868C243.504 118.743 242.278 122.169 240.29 125.469C237.249 130.53 233.034 134.577 228.909 138.705C227.773 139.84 226.727 139.914 225.248 139.28C219.098 136.644 212.88 134.181 206.715 131.583C201.895 129.552 201.335 126.357 205.325 122.863C210.668 118.19 217.229 115.816 223.85 113.621C225.091 113.211 226.6 113.36 227.452 112.046L227.445 112.054Z" fill="#463232"/>
<path d="M138.615 85.2684C138.13 87.5453 141.455 89.3967 139.908 91.3078C138.623 92.8979 135.977 93.3085 134.191 94.6C130.41 97.3323 126.405 99.8406 123.804 103.932C123.333 104.671 122.743 105.835 121.562 105.484C120.613 105.201 120.71 104.066 120.441 103.275C119.709 101.087 119.507 98.9746 121.062 96.959C121.727 96.093 122.302 95.0852 122.078 93.8759C126.053 90.4344 130.074 87.0451 133.967 83.5141C135.409 82.2151 136.216 82.4241 136.919 84.074C137.24 84.8354 137.808 85.2087 138.615 85.2609V85.2684Z" fill="#463232"/>
<path d="M167.945 123.603C154.322 115.674 141.432 115.047 129.355 126.611C129.834 115.301 138.801 105.97 150.063 108.59C158.328 110.508 163.865 116.316 167.945 123.61V123.603Z" fill="#463232"/>
<path d="M83.3694 167.916C84.6024 169.35 84.8116 171.149 85.5141 173.523C83.5039 171.866 81.419 171.261 81.2695 168.812C81.9645 168.514 82.6669 168.215 83.3619 167.916H83.3694Z" fill="#FFA001"/>
<path d="M116.991 196.419C116.483 196.426 116.386 196.09 116.363 195.687C116.573 195.934 116.782 196.172 116.991 196.419Z" fill="#B9A8A9"/>
<path d="M46.7382 136.659C37.883 120.213 30.0216 103.372 26.9353 84.7383C25.9788 78.9602 25.5753 73.085 27.309 67.3741C29.2519 60.9838 33.2947 59.4908 38.9964 62.9994C46.4543 67.5831 52.7763 73.5927 59.0459 79.6171C62.7226 83.1482 66.2647 86.8211 69.8665 90.4269C69.5527 94.8687 66.459 98.034 64.4787 101.655C58.7694 112.084 53.658 122.774 49.0548 133.725C48.5541 134.92 48.5765 136.525 46.7382 136.667V136.659Z" fill="#F0DBD9"/>
<path d="M221.57 90.4045C219.971 89.7401 218.409 88.9786 216.772 88.4262C213.342 87.284 211.908 88.4262 211.863 92.017C211.81 96.0034 214.478 99.2135 214.889 103.051L214.829 103.103C209.673 100.303 204.45 89.3146 206.012 84.0217C206.759 81.4909 208.687 80.1248 211.467 81.2073C215.988 82.9691 219.358 86.0597 221.607 90.3597L221.562 90.4045H221.57Z" fill="#463232"/>
<path d="M214.892 103.051C215.071 103.327 215.258 103.596 215.422 103.887C215.422 103.894 215.243 104.014 215.153 104.081C215.049 103.76 214.937 103.431 214.832 103.11L214.892 103.058V103.051Z" fill="#463232"/>
<path d="M221.615 90.3597C221.712 90.4717 221.817 90.5837 221.914 90.6957C221.802 90.5986 221.682 90.5016 221.57 90.4045L221.615 90.3597Z" fill="#463232"/>
<path d="M99.5193 193.41C99.2951 193.366 99.1382 193.448 99.0635 193.664C92.7191 196.09 87.3162 194.642 82.7578 189.708C86.5988 187.408 88.5941 183.37 91.486 180.189C93.7055 177.763 92.2258 174.225 92.6369 170.089C94.9161 176.964 96.9113 182.862 98.8019 188.804C99.2652 190.275 100.438 191.701 99.5193 193.41Z" fill="#FFA001"/>
<path d="M72.8611 186.699C72.1961 186.595 71.3516 186.945 71.0004 186.035C70.9481 185.908 71.1573 185.542 71.2844 185.512C72.1961 185.34 72.5174 186.05 72.8836 186.669L72.8611 186.699Z" fill="#2E2C1F"/>
</g>
</g>
<defs>
<clipPath id="clip0_2667_179">
<rect width="418" height="366" fill="white"/>
</clipPath>
</defs>
</svg>
