<svg width="1180" height="220" viewBox="0 0 1180 220" fill="none" xmlns="http://www.w3.org/2000/svg">
<mask id="mask0_1091_500" style="mask-type:alpha" maskUnits="userSpaceOnUse" x="0" y="0" width="1180" height="220">
<rect width="1180" height="220" rx="20" fill="#D9D9D9"/>
</mask>
<g mask="url(#mask0_1091_500)">
<path d="M129.771 198.53L159.677 190.082C165.94 188.344 168.036 180.52 163.481 175.883L141.832 153.518C137.206 148.758 129.19 150.855 127.456 157.327L119.2 188.14C117.492 194.515 123.385 200.339 129.771 198.53Z" fill="white" fill-opacity="0.25"/>
<path d="M492.179 181.853L508.92 164.653C512.438 161.072 510.819 155.029 505.981 153.687L482.864 147.087C477.932 145.69 473.38 150.188 474.719 155.187L481.096 178.985C482.415 183.909 488.606 185.528 492.179 181.853Z" fill="white" fill-opacity="0.25"/>
<path d="M615.865 201.254L638.963 194.73C643.8 193.387 645.419 187.344 641.901 183.763L625.181 166.489C621.608 162.813 615.417 164.433 614.078 169.431L607.701 193.23C606.381 198.153 610.933 202.651 615.865 201.254Z" fill="white" fill-opacity="0.25"/>
<path d="M1069.18 74.8527L1085.92 57.6534C1089.44 54.0721 1087.82 48.0292 1082.99 46.6867L1059.87 40.0875C1054.94 38.6904 1050.38 43.1884 1051.72 48.1868L1058.1 71.9853C1059.42 76.9091 1065.61 78.5286 1069.18 74.8527Z" fill="white" fill-opacity="0.25"/>
<path d="M1123.58 115.631L1155.36 106.655C1162.01 104.808 1164.24 96.4937 1159.4 91.5664L1136.4 67.8006C1131.48 62.7432 1122.96 64.9713 1121.12 71.8482L1112.35 104.591C1110.53 111.365 1116.8 117.554 1123.58 115.631Z" fill="white" fill-opacity="0.25"/>
<path d="M22.8334 58.1884L44.5084 35.9197C49.0635 31.2828 46.967 23.4588 40.7038 21.7206L10.7724 13.1762C4.38668 11.3674 -1.50683 17.1912 0.227253 23.6629L8.48358 54.4759C10.1918 60.851 18.2076 62.9478 22.8334 58.1884Z" fill="white" fill-opacity="0.25"/>
<path d="M234.618 102.565C236.769 104.72 239.444 106.272 242.375 107.065C245.306 107.858 248.39 107.866 251.321 107.086L288.191 97.2066C291.118 96.4168 293.786 94.8683 295.928 92.7158C298.069 90.5633 299.61 87.8822 300.396 84.9402L310.227 47.8895C311.004 44.9448 310.998 41.8442 310.209 38.8981C309.419 35.9521 307.874 33.2638 305.728 31.1024L278.689 3.93103C276.538 1.77606 273.863 0.224463 270.932 -0.568805C268.001 -1.36207 264.916 -1.36925 261.986 -0.589609L225.116 9.28973C222.189 10.0796 219.521 11.6281 217.379 13.7806C215.238 15.933 213.697 18.6142 212.911 21.5562L203.08 58.6069C202.303 61.5516 202.309 64.6522 203.098 67.5982C203.888 70.5443 205.433 73.2326 207.578 75.394L234.618 102.565ZM241.496 47.8533C241.226 46.8448 241.216 45.7843 241.468 44.7725C241.721 43.7607 242.226 42.8313 242.937 42.0725C243.648 41.3137 244.541 40.7507 245.53 40.4369C246.52 40.1232 247.574 40.0692 248.592 40.28L268.698 44.4419C269.744 44.6585 270.716 45.1472 271.516 45.8591C272.316 46.5711 272.917 47.4813 273.258 48.4986C273.599 49.5159 273.669 50.6047 273.46 51.6559C273.251 52.7071 272.77 53.6839 272.067 54.4885L257.532 71.116C256.806 71.9475 255.867 72.5646 254.817 72.9013C253.768 73.2381 252.646 73.2819 251.572 73.0281C250.497 72.7743 249.511 72.2324 248.718 71.4602C247.924 70.688 247.354 69.7145 247.067 68.6435L241.496 47.8533Z" fill="white" fill-opacity="0.25"/>
<path d="M308.47 231.83C309.843 233.205 311.55 234.195 313.42 234.701C315.29 235.207 317.258 235.212 319.128 234.714L342.656 228.41C344.524 227.906 346.226 226.918 347.593 225.544C348.959 224.171 349.942 222.46 350.444 220.583L356.717 196.94C357.213 195.061 357.209 193.082 356.706 191.203C356.202 189.323 355.216 187.607 353.847 186.228L336.593 168.889C335.22 167.514 333.513 166.524 331.642 166.018C329.772 165.512 327.804 165.507 325.934 166.005L302.407 172.309C300.539 172.813 298.836 173.801 297.47 175.175C296.103 176.548 295.12 178.259 294.619 180.136L288.345 203.779C287.849 205.658 287.853 207.637 288.357 209.517C288.861 211.396 289.846 213.112 291.216 214.491L308.47 231.83ZM312.859 196.917C312.687 196.273 312.68 195.597 312.841 194.951C313.002 194.305 313.325 193.712 313.779 193.228C314.232 192.744 314.802 192.385 315.433 192.184C316.065 191.984 316.737 191.95 317.387 192.084L330.217 194.74C330.884 194.878 331.504 195.19 332.015 195.644C332.526 196.099 332.909 196.68 333.127 197.329C333.345 197.978 333.389 198.673 333.256 199.343C333.122 200.014 332.816 200.638 332.367 201.151L323.092 211.761C322.628 212.292 322.03 212.686 321.36 212.901C320.69 213.115 319.974 213.143 319.288 212.981C318.603 212.819 317.973 212.474 317.467 211.981C316.961 211.488 316.597 210.867 316.414 210.184L312.859 196.917Z" fill="white" fill-opacity="0.25"/>
<path d="M564.47 113.83C565.843 115.205 567.55 116.195 569.42 116.701C571.29 117.207 573.258 117.212 575.128 116.714L598.656 110.41C600.524 109.906 602.226 108.918 603.593 107.544C604.959 106.171 605.942 104.46 606.444 102.583L612.717 78.9401C613.213 77.061 613.209 75.0825 612.706 73.2025C612.202 71.3226 611.216 69.6072 609.847 68.228L592.593 50.8895C591.22 49.5144 589.513 48.5243 587.642 48.0181C585.772 47.5119 583.804 47.5073 581.934 48.0048L558.407 54.309C556.539 54.813 554.836 55.8011 553.47 57.1746C552.103 58.5482 551.12 60.259 550.619 62.1364L544.345 85.779C543.849 87.6581 543.853 89.6366 544.357 91.5165C544.861 93.3965 545.846 95.1119 547.216 96.4911L564.47 113.83ZM568.859 78.917C568.687 78.2734 568.68 77.5967 568.841 76.9511C569.002 76.3054 569.325 75.7124 569.779 75.2281C570.232 74.7439 570.802 74.3847 571.433 74.1845C572.065 73.9843 572.737 73.9498 573.387 74.0843L586.217 76.7401C586.884 76.8783 587.504 77.1902 588.015 77.6445C588.526 78.0988 588.909 78.6796 589.127 79.3287C589.345 79.9779 589.389 80.6727 589.256 81.3435C589.122 82.0143 588.816 82.6376 588.367 83.151L579.092 93.7613C578.628 94.2919 578.03 94.6856 577.36 94.9005C576.69 95.1154 575.974 95.1434 575.288 94.9814C574.603 94.8195 573.973 94.4737 573.467 93.9809C572.961 93.4882 572.597 92.867 572.414 92.1835L568.859 78.917Z" fill="white" fill-opacity="0.25"/>
<path d="M689.285 79.7799C689.912 82.1281 691.142 84.2682 692.851 85.9862C694.561 87.7043 696.69 88.9403 699.026 89.5708L728.456 97.4563C730.795 98.0786 733.257 98.0729 735.596 97.4397C737.936 96.8066 740.071 95.5681 741.788 93.848L763.37 72.1602C765.083 70.435 766.316 68.2893 766.946 65.9377C767.576 63.5862 767.581 61.1114 766.96 58.761L759.113 29.1875C758.486 26.8393 757.256 24.6992 755.547 22.9812C753.838 21.2631 751.708 20.0271 749.372 19.3966L719.942 11.5111C717.604 10.8888 715.142 10.8945 712.802 11.5277C710.463 12.1609 708.328 13.3993 706.61 15.1194L685.028 36.8073C683.315 38.5325 682.082 40.6782 681.452 43.0297C680.822 45.3812 680.817 47.856 681.438 50.2065L689.285 79.7799ZM715.875 44.7053C716.09 43.9003 716.507 43.1634 717.085 42.5647C717.663 41.9659 718.384 41.5253 719.178 41.2845C719.972 41.0437 720.814 41.0108 721.623 41.1889C722.433 41.367 723.183 41.7501 723.802 42.302L736.039 53.2033C736.676 53.7704 737.153 54.496 737.422 55.3076C737.691 56.1191 737.743 56.988 737.573 57.8274C737.402 58.6668 737.016 59.4471 736.452 60.0903C735.888 60.7335 735.166 61.2171 734.359 61.4925L717.676 67.1856C716.841 67.4703 715.947 67.5224 715.087 67.3362C714.227 67.15 713.434 66.7326 712.792 66.1284C712.151 65.5243 711.685 64.756 711.445 63.9056C711.205 63.0552 711.199 62.1546 711.428 61.2998L715.875 44.7053Z" fill="white" fill-opacity="0.25"/>
<path d="M-20.3774 167.354C-21.3503 169.036 -21.865 170.941 -21.8698 172.879C-21.8747 174.816 -21.3697 176.719 -20.4052 178.396L-8.22646 199.49C-7.25613 201.164 -5.86109 202.553 -4.18065 203.517C-2.50021 204.482 -0.593189 204.989 1.34995 204.987L25.8106 204.927C27.7541 204.92 29.6642 204.405 31.3497 203.431C33.0352 202.458 34.437 201.062 35.4148 199.382L47.6968 178.229C48.6697 176.547 49.1843 174.642 49.1892 172.704C49.1941 170.766 48.6891 168.864 47.7246 167.187L35.5459 146.093C34.5755 144.419 33.1805 143.03 31.5001 142.066C29.8196 141.101 27.9126 140.594 25.9695 140.596L1.5088 140.656C-0.434674 140.663 -2.34475 141.178 -4.03026 142.152C-5.71576 143.125 -7.11758 144.521 -8.09541 146.201L-20.3774 167.354ZM14.4816 162.558C15.0586 162.225 15.7107 162.044 16.376 162.032C17.0413 162.02 17.6976 162.179 18.2828 162.491C18.8679 162.804 19.3624 163.262 19.7192 163.82C20.076 164.378 20.2833 165.018 20.3215 165.681L21.0768 178.761C21.1161 179.441 20.9754 180.121 20.6687 180.732C20.3621 181.343 19.9003 181.863 19.3296 182.242C18.7589 182.62 18.0993 182.843 17.4168 182.887C16.7343 182.932 16.053 182.797 15.4408 182.497L2.79163 176.284C2.15905 175.974 1.62375 175.497 1.24282 174.906C0.861882 174.314 0.649599 173.63 0.628613 172.926C0.607626 172.222 0.778722 171.524 1.12365 170.908C1.46858 170.291 1.9744 169.779 2.58718 169.425L14.4816 162.558Z" fill="white" fill-opacity="0.25"/>
</g>
</svg>
