<svg width="352" height="386" viewBox="0 0 352 386" fill="none" xmlns="http://www.w3.org/2000/svg">
<path d="M65.5953 61.5299L95.5007 53.0821C101.764 51.3439 103.86 43.5199 99.3054 38.883L77.6563 16.5177C73.0305 11.7583 65.0146 13.8551 63.2806 20.3268L55.0242 51.1398C53.316 57.5149 59.2095 63.3387 65.5953 61.5299Z" fill="white" fill-opacity="0.25"/>
<path d="M19.1831 358.853L35.9238 341.653C39.442 338.072 37.8228 332.029 32.9853 330.687L9.86782 324.087C4.93577 322.69 0.383914 327.188 1.72324 332.187L8.10002 355.985C9.41936 360.909 15.6104 362.529 19.1831 358.853Z" fill="white" fill-opacity="0.25"/>
<path d="M142.869 378.254L165.967 371.73C170.804 370.387 172.423 364.344 168.905 360.763L152.185 343.489C148.612 339.813 142.421 341.433 141.081 346.431L134.705 370.23C133.385 375.154 137.937 379.652 142.869 378.254Z" fill="white" fill-opacity="0.25"/>
<path d="M71.1831 144.853L87.9238 127.653C91.442 124.072 89.8228 118.029 84.9853 116.687L61.8678 110.087C56.9358 108.69 52.3839 113.188 53.7232 118.187L60.1 141.985C61.4194 146.909 67.6104 148.529 71.1831 144.853Z" fill="white" fill-opacity="0.25"/>
<path d="M125.581 185.631L157.359 176.654C164.015 174.807 166.242 166.493 161.402 161.566L138.397 137.8C133.482 132.743 124.964 134.971 123.121 141.848L114.348 174.59C112.533 181.365 118.795 187.553 125.581 185.631Z" fill="white" fill-opacity="0.25"/>
<path d="M295.294 71.8297C296.667 73.2049 298.374 74.195 300.244 74.7012C302.114 75.2074 304.083 75.2119 305.952 74.7144L329.48 68.4102C331.348 67.9062 333.05 66.9181 334.417 65.5446C335.784 64.171 336.767 62.4602 337.268 60.5828L343.541 36.9402C344.037 35.0611 344.034 33.0826 343.53 31.2027C343.026 29.3227 342.04 27.6073 340.671 26.2281L323.417 8.88961C322.044 7.51448 320.337 6.52438 318.467 6.01819C316.596 5.51199 314.628 5.50741 312.758 6.00491L289.231 12.3091C287.363 12.8131 285.661 13.8012 284.294 15.1748C282.927 16.5483 281.944 18.2592 281.443 20.1365L275.17 43.7791C274.673 45.6582 274.677 47.6367 275.181 49.5167C275.685 51.3966 276.671 53.112 278.04 54.4912L295.294 71.8297ZM299.683 36.9171C299.511 36.2735 299.505 35.5968 299.666 34.9512C299.827 34.3056 300.149 33.7125 300.603 33.2283C301.057 32.7441 301.626 32.3848 302.258 32.1846C302.889 31.9844 303.562 31.9499 304.211 32.0844L317.041 34.7403C317.709 34.8784 318.329 35.1903 318.839 35.6446C319.35 36.0989 319.733 36.6797 319.951 37.3289C320.169 37.978 320.213 38.6728 320.08 39.3436C319.946 40.0144 319.64 40.6377 319.191 41.1511L309.916 51.7614C309.452 52.292 308.854 52.6858 308.184 52.9006C307.514 53.1155 306.798 53.1435 306.113 52.9815C305.427 52.8196 304.798 52.4738 304.291 51.981C303.785 51.4883 303.421 50.8671 303.238 50.1836L299.683 36.9171Z" fill="white" fill-opacity="0.25"/>
<path d="M91.4737 290.83C92.8466 292.205 94.5534 293.195 96.4237 293.701C98.2941 294.207 100.262 294.212 102.132 293.714L125.66 287.41C127.528 286.906 129.23 285.918 130.597 284.545C131.963 283.171 132.946 281.46 133.448 279.583L139.721 255.94C140.217 254.061 140.213 252.083 139.709 250.203C139.206 248.323 138.22 246.607 136.851 245.228L119.596 227.89C118.224 226.514 116.517 225.524 114.646 225.018C112.776 224.512 110.808 224.507 108.938 225.005L85.4106 231.309C83.5426 231.813 81.8402 232.801 80.4736 234.175C79.107 235.548 78.1239 237.259 77.6225 239.136L71.3493 262.779C70.8531 264.658 70.857 266.637 71.3607 268.517C71.8645 270.397 72.8503 272.112 74.2196 273.491L91.4737 290.83ZM95.8629 255.917C95.6904 255.274 95.6844 254.597 95.8453 253.951C96.0063 253.306 96.3289 252.712 96.7826 252.228C97.2362 251.744 97.8059 251.385 98.4374 251.185C99.0689 250.984 99.7413 250.95 100.391 251.084L113.221 253.74C113.888 253.878 114.508 254.19 115.019 254.645C115.53 255.099 115.913 255.68 116.131 256.329C116.349 256.978 116.393 257.673 116.259 258.344C116.126 259.014 115.82 259.638 115.371 260.151L106.096 270.761C105.632 271.292 105.033 271.686 104.364 271.901C103.694 272.116 102.978 272.143 102.292 271.982C101.607 271.82 100.977 271.474 100.471 270.981C99.9649 270.488 99.6008 269.867 99.4177 269.184L95.8629 255.917Z" fill="white" fill-opacity="0.25"/>
<path d="M216.289 256.78C216.916 259.128 218.146 261.268 219.855 262.986C221.564 264.704 223.694 265.94 226.03 266.571L255.46 274.456C257.799 275.079 260.261 275.073 262.6 274.44C264.94 273.807 267.075 272.568 268.792 270.848L290.374 249.16C292.087 247.435 293.32 245.289 293.95 242.938C294.58 240.586 294.585 238.112 293.964 235.761L286.117 206.188C285.49 203.839 284.26 201.699 282.551 199.981C280.841 198.263 278.712 197.027 276.376 196.397L246.946 188.511C244.608 187.889 242.145 187.895 239.806 188.528C237.467 189.161 235.332 190.399 233.614 192.12L212.032 213.807C210.319 215.533 209.086 217.678 208.456 220.03C207.826 222.381 207.821 224.856 208.442 227.207L216.289 256.78ZM242.879 221.705C243.094 220.9 243.511 220.164 244.089 219.565C244.667 218.966 245.388 218.525 246.182 218.285C246.976 218.044 247.818 218.011 248.627 218.189C249.436 218.367 250.186 218.75 250.806 219.302L263.043 230.203C263.68 230.771 264.157 231.496 264.426 232.308C264.695 233.119 264.747 233.988 264.577 234.828C264.406 235.667 264.02 236.447 263.456 237.09C262.892 237.734 262.17 238.217 261.363 238.493L244.68 244.186C243.845 244.47 242.95 244.523 242.09 244.336C241.23 244.15 240.437 243.733 239.796 243.129C239.155 242.524 238.689 241.756 238.449 240.906C238.209 240.055 238.203 239.155 238.432 238.3L242.879 221.705Z" fill="white" fill-opacity="0.25"/>
</svg>
