<svg width="14" height="14" viewBox="0 0 14 14" fill="none" xmlns="http://www.w3.org/2000/svg">
<path d="M0.302764 6.50994L3.13226 5.09524C3.9813 4.67067 4.66974 3.9822 5.09426 3.13314L6.50956 0.30314C6.55511 0.21205 6.62512 0.135443 6.71176 0.0819013C6.79839 0.02836 6.89822 0 7.00006 0C7.10191 0 7.20174 0.02836 7.28837 0.0819013C7.375 0.135443 7.44502 0.21205 7.49056 0.30314L8.90536 3.13264C9.32989 3.9817 10.0183 4.67017 10.8674 5.09474L13.6964 6.50994C13.7875 6.55546 13.8641 6.62546 13.9177 6.7121C13.9713 6.79874 13.9996 6.89858 13.9996 7.00044C13.9996 7.1023 13.9713 7.20214 13.9177 7.28878C13.8641 7.37542 13.7875 7.44542 13.6964 7.49094L10.8669 8.90574C10.0178 9.33024 9.32937 10.0187 8.90486 10.8677L7.49006 13.6972C7.44452 13.7883 7.3745 13.8649 7.28787 13.9185C7.20124 13.972 7.10141 14.0004 6.99956 14.0004C6.89772 14.0004 6.79789 13.972 6.71126 13.9185C6.62462 13.8649 6.55461 13.7883 6.50906 13.6972L5.09426 10.8677C4.66976 10.0187 3.98131 9.33024 3.13226 8.90574L0.302764 7.49044C0.211775 7.44487 0.135262 7.37488 0.0817912 7.28829C0.02832 7.20171 0 7.10195 0 7.00019C0 6.89843 0.02832 6.79867 0.0817912 6.71209C0.135262 6.62551 0.211775 6.55551 0.302764 6.50994Z" fill="#FFA001"/>
</svg>
