<svg width="11" height="6" viewBox="0 0 11 6" fill="none" xmlns="http://www.w3.org/2000/svg">
<path d="M10.968 1.36592C10.9684 1.47262 10.9448 1.57804 10.8991 1.67445C10.8534 1.77085 10.7866 1.85579 10.7038 1.92301L6.41846 5.37268C6.29066 5.47773 6.13036 5.53516 5.96493 5.53516C5.7995 5.53516 5.6392 5.47773 5.5114 5.37268L1.22609 1.80159C1.08024 1.68036 0.988513 1.50615 0.971101 1.31729C0.953688 1.12844 1.01201 0.940396 1.13324 0.794541C1.25447 0.648686 1.42868 0.556963 1.61754 0.539551C1.8064 0.522138 1.99444 0.580462 2.14029 0.701693L5.9685 3.89425L9.79671 0.808826C9.90155 0.721489 10.0292 0.666011 10.1646 0.648955C10.3 0.6319 10.4374 0.653982 10.5606 0.712587C10.6838 0.771193 10.7877 0.86387 10.8599 0.979653C10.9321 1.09543 10.9696 1.22948 10.968 1.36592Z" fill="#7A35C2"/>
</svg>
