<svg width="41" height="41" viewBox="0 0 41 41" fill="none" xmlns="http://www.w3.org/2000/svg">
<path d="M37.8815 19.4973C34.137 12.5751 27.5703 8.3862 20.3037 8.3862C13.037 8.3862 6.45923 12.5751 2.74812 19.4973L2.43701 20.0195L2.7259 20.5529C6.47035 27.4751 13.037 31.664 20.3037 31.664C27.5703 31.664 34.1481 27.5306 37.8815 20.5529L38.1703 20.0195L37.8815 19.4973ZM20.3037 29.3862C14.0481 29.3862 8.30368 25.8973 4.97035 20.0195C8.30368 14.1418 14.0481 10.6529 20.3037 10.6529C26.5592 10.6529 32.237 14.1529 35.6259 20.0195C32.237 25.8973 26.5481 29.3862 20.3037 29.3862Z" fill="#7A35C2"/>
<path d="M20.6259 12.4306C19.1194 12.4416 17.6499 12.8988 16.4031 13.7445C15.1562 14.5902 14.188 15.7864 13.6206 17.182C13.0532 18.5777 12.9121 20.1102 13.2151 21.5859C13.5182 23.0617 14.2518 24.4146 15.3233 25.4737C16.3948 26.5328 17.7561 27.2506 19.2353 27.5364C20.7145 27.8223 22.2453 27.6634 23.6342 27.0797C25.0232 26.4961 26.208 25.514 27.0391 24.2574C27.8702 23.0008 28.3102 21.5261 28.3037 20.0195C28.2993 19.0167 28.0971 18.0245 27.7086 17.1C27.3202 16.1754 26.753 15.3366 26.0398 14.6316C25.3266 13.9267 24.4812 13.3693 23.5522 12.9917C22.6232 12.614 21.6288 12.4233 20.6259 12.4306ZM20.6259 25.4529C19.5618 25.4419 18.5246 25.1167 17.6446 24.5182C16.7646 23.9197 16.0812 23.0745 15.68 22.0888C15.2788 21.1031 15.1778 20.0208 15.3897 18.9779C15.6016 17.935 16.117 16.978 16.871 16.227C17.6251 15.476 18.5842 14.9646 19.628 14.7569C20.6717 14.5493 21.7536 14.6547 22.7376 15.0599C23.7217 15.4651 24.5641 16.152 25.159 17.0344C25.7539 17.9168 26.0749 18.9553 26.0815 20.0195C26.0844 20.7357 25.9452 21.4454 25.6718 22.1074C25.3984 22.7694 24.9963 23.3706 24.4888 23.876C23.9813 24.3814 23.3786 24.781 22.7155 25.0517C22.0524 25.3224 21.3421 25.4587 20.6259 25.4529Z" fill="#7A35C2"/>
</svg>
