<svg width="41" height="41" viewBox="0 0 41 41" fill="none" xmlns="http://www.w3.org/2000/svg">
<g clip-path="url(#clip0)">
<path d="M13.0194 37.5195C14.4001 37.5195 15.5194 36.4002 15.5194 35.0195C15.5194 33.6388 14.4001 32.5195 13.0194 32.5195C11.6387 32.5195 10.5194 33.6388 10.5194 35.0195C10.5194 36.4002 11.6387 37.5195 13.0194 37.5195Z" fill="#7A35C2"/>
<path d="M30.5194 37.5195C31.9001 37.5195 33.0194 36.4002 33.0194 35.0195C33.0194 33.6388 31.9001 32.5195 30.5194 32.5195C29.1387 32.5195 28.0194 33.6388 28.0194 35.0195C28.0194 36.4002 29.1387 37.5195 30.5194 37.5195Z" fill="#7A35C2"/>
<path d="M35.5194 8.76954H7.79441L6.76941 3.51954C6.71097 3.23294 6.55388 2.97592 6.32548 2.7932C6.09708 2.61048 5.81184 2.51364 5.51941 2.51954H0.519409V5.01954H4.49441L9.26941 29.0195C9.32785 29.3061 9.48494 29.5632 9.71334 29.7459C9.94174 29.9286 10.227 30.0254 10.5194 30.0195H33.0194V27.5195H11.5444L10.5194 22.5195H33.0194C33.3084 22.5266 33.5908 22.4333 33.8187 22.2555C34.0466 22.0778 34.2059 21.8265 34.2694 21.5445L36.7694 10.2945C36.8113 10.1091 36.8103 9.91649 36.7666 9.73145C36.7228 9.54642 36.6374 9.3738 36.5169 9.22675C36.3963 9.0797 36.2438 8.96208 36.071 8.88285C35.8981 8.80362 35.7095 8.76487 35.5194 8.76954ZM32.0194 20.0195H10.0444L8.29441 11.2695H33.9569L32.0194 20.0195Z" fill="#7A35C2"/>
</g>
<defs>
<clipPath id="clip0">
<rect width="40" height="40" fill="white" transform="translate(0.519409 0.0195312)"/>
</clipPath>
</defs>
</svg>
