<svg width="37" height="37" viewBox="0 0 37 37" fill="none" xmlns="http://www.w3.org/2000/svg">
<path fill-rule="evenodd" clip-rule="evenodd" d="M5 30.3945V15.7695H7.25V30.3945C7.25 30.6929 7.36853 30.979 7.5795 31.19C7.79048 31.401 8.07663 31.5195 8.375 31.5195H28.625C28.9234 31.5195 29.2095 31.401 29.4205 31.19C29.6315 30.979 29.75 30.6929 29.75 30.3945V15.7695H32V30.3945C32 31.2896 31.6444 32.1481 31.0115 32.781C30.3786 33.414 29.5201 33.7695 28.625 33.7695H8.375C7.47989 33.7695 6.62145 33.414 5.98851 32.781C5.35558 32.1481 5 31.2896 5 30.3945ZM29.75 5.64453V13.5195L25.25 9.01953V5.64453C25.25 5.34616 25.3685 5.06001 25.5795 4.84904C25.7905 4.63806 26.0766 4.51953 26.375 4.51953H28.625C28.9234 4.51953 29.2095 4.63806 29.4205 4.84904C29.6315 5.06001 29.75 5.34616 29.75 5.64453Z" fill="#7A35C2"/>
<path fill-rule="evenodd" clip-rule="evenodd" d="M16.9092 3.39454C17.3311 2.97273 17.9033 2.73577 18.5 2.73577C19.0966 2.73577 19.6688 2.97273 20.0907 3.39454L35.0465 18.348C35.2577 18.5593 35.3764 18.8458 35.3764 19.1445C35.3764 19.4433 35.2577 19.7298 35.0465 19.941C34.8352 20.1523 34.5487 20.271 34.25 20.271C33.9512 20.271 33.6647 20.1523 33.4535 19.941L18.5 4.98529L3.54646 19.941C3.33521 20.1523 3.0487 20.271 2.74996 20.271C2.45121 20.271 2.1647 20.1523 1.95346 19.941C1.74221 19.7298 1.62354 19.4433 1.62354 19.1445C1.62354 18.8458 1.74221 18.5593 1.95346 18.348L16.9092 3.39454Z" fill="#7A35C2"/>
</svg>
