<svg width="41" height="41" viewBox="0 0 41 41" fill="none" xmlns="http://www.w3.org/2000/svg">
<path d="M17.1787 5.78882C15.6885 5.79409 14.2608 6.38841 13.2071 7.44217C12.1533 8.49592 11.559 9.9236 11.5537 11.4138C11.5537 12.4138 11.8375 13.3426 12.2962 14.1488C10.045 15.4663 8.28246 17.3363 7.33496 19.5388H7.17871C7.09612 19.5407 7.01401 19.5258 6.93733 19.4951C6.86065 19.4643 6.791 19.4184 6.73258 19.3599C6.67417 19.3015 6.6282 19.2319 6.59746 19.1552C6.56671 19.0785 6.55183 18.9964 6.55371 18.9138C6.55371 18.6938 6.66621 18.5188 6.82746 18.4063L5.38121 16.3751C4.97165 16.6599 4.63704 17.0395 4.40589 17.4815C4.17474 17.9236 4.05391 18.415 4.05371 18.9138C4.05371 20.4513 5.20121 21.7113 6.67121 21.9613C6.60746 22.3988 6.55371 22.8351 6.55371 23.2888C6.55371 26.4038 8.20871 29.1038 10.6162 31.1013C10.3137 32.3513 10.465 33.6838 11.4362 34.6563C12.1533 35.3672 13.1221 35.7661 14.1318 35.7661C15.1416 35.7661 16.1104 35.3672 16.8275 34.6563L17.2962 34.1876C18.2725 34.3676 19.2537 34.5388 20.3037 34.5388C21.3537 34.5388 22.335 34.3676 23.3112 34.1876L23.78 34.6563C24.497 35.3672 25.4659 35.7661 26.4756 35.7661C27.4853 35.7661 28.4542 35.3672 29.1712 34.6563C30.1225 33.7038 30.265 32.4101 29.9912 31.1788C30.9936 30.3647 31.8518 29.3877 32.53 28.2888H35.3037V18.2888H32.4525C31.9986 17.5521 31.4608 16.8704 30.85 16.2576L31.5537 12.3901V10.7888H30.3037C30.3037 10.7888 27.3012 10.8388 24.7562 12.7426C24.088 12.5498 23.4099 12.3929 22.725 12.2726C22.775 11.9951 22.8037 11.7063 22.8037 11.4138C22.8037 8.32257 20.27 5.78882 17.1787 5.78882ZM17.1787 8.28882C18.9162 8.28882 20.3037 9.67632 20.3037 11.4138C20.3037 11.6288 20.265 11.8338 20.225 12.0388C18.2087 12.0488 16.305 12.4388 14.5625 13.0938C14.2306 12.5964 14.0535 12.0118 14.0537 11.4138C14.0537 9.67632 15.4412 8.28882 17.1787 8.28882ZM28.7412 13.5238C28.7612 13.5188 28.7612 13.5276 28.78 13.5238L28.3112 16.3738L28.195 17.0388L28.7412 17.5076C29.5759 18.2304 30.2652 19.1056 30.7725 20.0863L31.1237 20.7888H32.8037V25.7888H31.1237L30.7725 26.4926C30.1625 27.6976 29.2 28.7576 27.96 29.6551L27.0612 30.3201L27.6087 31.3363C27.9062 31.8388 27.8525 32.4588 27.4125 32.8988C27.2938 33.0225 27.1514 33.121 26.9937 33.1882C26.836 33.2555 26.6664 33.2901 26.495 33.2901C26.3235 33.2901 26.1539 33.2555 25.9962 33.1882C25.8386 33.121 25.6961 33.0225 25.5775 32.8988L24.6787 31.9988L24.1712 31.5313L23.5062 31.6876C22.4912 31.9213 21.4125 32.0388 20.3037 32.0388C19.226 32.0427 18.1512 31.9249 17.1 31.6876L16.4375 31.5313L15.9287 32.0001L15.03 32.8976C14.9113 33.0215 14.7688 33.1201 14.611 33.1875C14.4532 33.2548 14.2834 33.2895 14.1118 33.2895C13.9403 33.2895 13.7705 33.2548 13.6127 33.1875C13.4549 33.1201 13.3124 33.0215 13.1937 32.8976C12.988 32.6984 12.8565 32.4348 12.821 32.1507C12.7856 31.8665 12.8483 31.5787 12.9987 31.3351L13.5462 30.3201L12.6475 29.6563C10.3862 28.0138 9.05371 25.7738 9.05371 23.2888C9.05371 18.6113 13.9412 14.5388 20.3037 14.5388C21.8412 14.5388 23.3062 14.7688 24.64 15.2026L25.3037 15.4376L25.8512 14.9688C26.7437 14.1726 27.8475 13.7438 28.7412 13.5238ZM27.8037 20.7888C27.1162 20.7888 26.5537 21.3513 26.5537 22.0388C26.5537 22.7263 27.1162 23.2888 27.8037 23.2888C28.4912 23.2888 29.0537 22.7263 29.0537 22.0388C29.0537 21.3513 28.4912 20.7888 27.8037 20.7888Z" fill="#7A35C2"/>
</svg>
