<svg width="41" height="41" viewBox="0 0 41 41" fill="none" xmlns="http://www.w3.org/2000/svg">
<path d="M20.5195 34.1222C21.4399 34.1222 22.1861 33.376 22.1861 32.4555C22.1861 31.535 21.4399 30.7888 20.5195 30.7888C19.599 30.7888 18.8528 31.535 18.8528 32.4555C18.8528 33.376 19.599 34.1222 20.5195 34.1222Z" fill="#7A35C2"/>
<path d="M20.5194 24.1222C18.3623 24.1221 16.2892 24.9585 14.7361 26.4555C14.4178 26.7627 14.2346 27.1838 14.2268 27.626C14.219 28.0683 14.3872 28.4956 14.6944 28.8138C15.0016 29.1321 15.4227 29.3153 15.8649 29.3231C16.3072 29.3309 16.7345 29.1627 17.0527 28.8555C17.9992 27.9888 19.2361 27.5081 20.5194 27.5081C21.8028 27.5081 23.0396 27.9888 23.9861 28.8555C24.3043 29.1627 24.7316 29.3309 25.1739 29.3231C25.6161 29.3153 26.0372 29.1321 26.3444 28.8138C26.6516 28.4956 26.8198 28.0683 26.812 27.626C26.8042 27.1838 26.621 26.7627 26.3027 26.4555C24.7496 24.9585 22.6765 24.1221 20.5194 24.1222ZM20.5194 15.7888C18.5064 15.7901 16.5143 16.1966 14.6617 16.984C12.8091 17.7715 11.134 18.9237 9.73608 20.3722C9.58396 20.533 9.46502 20.7223 9.38605 20.9291C9.30708 21.136 9.26962 21.3563 9.27581 21.5776C9.282 21.7989 9.33172 22.0169 9.42213 22.219C9.51254 22.4211 9.64187 22.6034 9.80274 22.7555C10.1276 23.0627 10.5613 23.2283 11.0082 23.2158C11.2295 23.2096 11.4475 23.1598 11.6496 23.0694C11.8517 22.979 12.034 22.8497 12.1861 22.6888C13.2744 21.5597 14.5792 20.6616 16.0224 20.0481C17.4657 19.4347 19.0178 19.1185 20.5861 19.1185C22.1543 19.1185 23.7064 19.4347 25.1497 20.0481C26.593 20.6616 27.8978 21.5597 28.9861 22.6888C29.1404 22.8463 29.3245 22.9716 29.5276 23.0574C29.7308 23.1432 29.9489 23.1879 30.1694 23.1888C30.4951 23.1876 30.8133 23.0909 31.0847 22.9108C31.3561 22.7307 31.5687 22.4751 31.6964 22.1754C31.824 21.8758 31.8611 21.5453 31.803 21.2248C31.7449 20.9043 31.5941 20.6079 31.3694 20.3722C29.9637 18.9156 28.2778 17.7587 26.4131 16.971C24.5484 16.1833 22.5436 15.7812 20.5194 15.7888Z" fill="#7A35C2"/>
<path d="M36.7194 14.0055C32.3701 9.80978 26.5626 7.46514 20.5194 7.46514C14.4762 7.46514 8.66869 9.80978 4.31939 14.0055C4.03812 14.3182 3.88551 14.7258 3.89218 15.1464C3.89884 15.5669 4.06428 15.9695 4.35532 16.2731C4.64636 16.5768 5.04146 16.7592 5.46138 16.7838C5.88129 16.8083 6.29496 16.6732 6.61939 16.4055C10.3487 12.8007 15.3326 10.7857 20.5194 10.7857C25.7062 10.7857 30.6901 12.8007 34.4194 16.4055C34.7284 16.7033 35.1403 16.8704 35.5694 16.8722C35.7939 16.8713 36.0159 16.8251 36.2221 16.7363C36.4283 16.6475 36.6145 16.518 36.7694 16.3555C37.0733 16.0367 37.2386 15.6105 37.2292 15.1702C37.2198 14.7298 37.0365 14.3111 36.7194 14.0055Z" fill="#7A35C2"/>
</svg>
