<svg width="37" height="37" viewBox="0 0 37 37" fill="none" xmlns="http://www.w3.org/2000/svg">
<path d="M18.5129 18.0877C18.5129 18.0877 17.5499 12.0566 17.5499 11.6364C17.5499 11.2162 17.9819 10.8748 18.5129 10.8748C19.0439 10.8748 19.4759 11.2157 19.4759 11.6364C19.4759 12.0572 18.5129 18.0877 18.5129 18.0877Z" fill="#7A35C2"/>
<path d="M18.5129 19.4957C18.5129 19.4957 19.4759 25.5262 19.4759 25.947C19.4759 26.3677 19.0439 26.7086 18.5129 26.7086C17.9819 26.7086 17.5499 26.3683 17.5499 25.947C17.5499 25.5257 18.5129 19.4957 18.5129 19.4957Z" fill="#7A35C2"/>
<path d="M17.8087 18.7914C17.8087 18.7914 11.7781 19.7544 11.3579 19.7544C10.9372 19.7544 10.5963 19.323 10.5963 18.7914C10.5963 18.2604 10.9372 17.829 11.3579 17.829C11.7781 17.829 17.8087 18.7914 17.8087 18.7914Z" fill="#7A35C2"/>
<path d="M19.2172 18.7914C19.2172 18.7914 25.2477 17.829 25.6685 17.829C26.0887 17.829 26.4301 18.2604 26.4301 18.7914C26.4301 19.323 26.0892 19.7544 25.6685 19.7544C25.2477 19.7544 19.2172 18.7914 19.2172 18.7914Z" fill="#7A35C2"/>
<path d="M18.0146 18.2941C18.0146 18.2941 13.0697 14.711 12.7732 14.4135C12.4757 14.1165 12.5392 13.5703 12.9156 13.1945C13.2913 12.8188 13.8369 12.7552 14.1345 13.0522C14.4309 13.3492 18.0146 18.2941 18.0146 18.2941Z" fill="#7A35C2"/>
<path d="M19.0114 19.2898C19.0114 19.2898 23.9563 22.8729 24.2527 23.1705C24.5503 23.468 24.4867 24.0137 24.1104 24.39C23.7347 24.7657 23.189 24.8293 22.8915 24.5317C22.595 24.2342 19.0114 19.2898 19.0114 19.2898Z" fill="#7A35C2"/>
<path d="M18.0146 19.2898C18.0146 19.2898 14.4309 24.2342 14.1345 24.5317C13.8369 24.8293 13.2913 24.7657 12.9156 24.39C12.5392 24.0137 12.4757 23.468 12.7732 23.1705C13.0697 22.8729 18.0146 19.2898 18.0146 19.2898Z" fill="#7A35C2"/>
<path d="M19.0114 18.2941C19.0114 18.2941 22.595 13.3492 22.8915 13.0522C23.189 12.7552 23.7347 12.8188 24.1104 13.1945C24.4867 13.5703 24.5503 14.1165 24.2527 14.4135C23.9563 14.711 19.0114 18.2941 19.0114 18.2941Z" fill="#7A35C2"/>
<path d="M18.0381 17.6175C18.0381 17.6175 13.0797 7.91323 12.7962 7.21123C12.5127 6.50923 12.682 5.7791 13.1748 5.57998C13.6681 5.38085 14.2969 5.78867 14.5804 6.49067C14.8639 7.19154 18.0381 17.6175 18.0381 17.6175Z" fill="#7A35C2"/>
<path d="M18.9877 19.967C18.9877 19.967 23.9461 29.6707 24.2296 30.3733C24.5131 31.0747 24.3438 31.8049 23.851 32.0034C23.3577 32.2031 22.7289 31.7958 22.4454 31.0939C22.1619 30.3918 18.9877 19.967 18.9877 19.967Z" fill="#7A35C2"/>
<path d="M17.3378 19.2667C17.3378 19.2667 7.6336 24.2252 6.9316 24.5087C6.2296 24.7927 5.49948 24.6228 5.30035 24.1295C5.10123 23.6373 5.50904 23.0073 6.21104 22.7238C6.91248 22.4403 17.3378 19.2667 17.3378 19.2667Z" fill="#7A35C2"/>
<path d="M19.688 18.3172C19.688 18.3172 29.3922 13.3588 30.0942 13.0753C30.7962 12.7912 31.5264 12.9616 31.7255 13.4544C31.9246 13.9471 31.5168 14.5766 30.8148 14.8601C30.1134 15.143 19.688 18.3172 19.688 18.3172Z" fill="#7A35C2"/>
<path d="M17.3463 18.297C17.3463 18.297 6.97771 14.9417 6.28133 14.6458C5.58496 14.3505 5.1884 13.7143 5.39596 13.2244C5.60352 12.7355 6.33758 12.5786 7.03396 12.8745C7.73033 13.1692 17.3463 18.297 17.3463 18.297Z" fill="#7A35C2"/>
<path d="M19.6796 19.287C19.6796 19.287 30.0481 22.6423 30.7445 22.9376C31.4409 23.2335 31.8374 23.8702 31.6299 24.359C31.4223 24.849 30.6883 25.0059 29.9919 24.7095C29.2955 24.4142 19.6796 19.287 19.6796 19.287Z" fill="#7A35C2"/>
<path d="M18.0179 19.9586C18.0179 19.9586 14.6626 30.3272 14.3667 31.0241C14.0708 31.7205 13.4347 32.117 12.9453 31.9095C12.4559 31.7014 12.2995 30.9679 12.5943 30.2715C12.8907 29.5745 18.0179 19.9586 18.0179 19.9586Z" fill="#7A35C2"/>
<path d="M19.0079 17.6253C19.0079 17.6253 22.3632 7.25679 22.6591 6.56041C22.955 5.86347 23.5912 5.46747 24.0806 5.67504C24.5699 5.8826 24.7269 6.61554 24.4316 7.31247C24.1351 8.00941 19.0079 17.6253 19.0079 17.6253Z" fill="#7A35C2"/>
<path d="M18.5163 27.2531C18.5163 27.2531 19.4804 34.2753 19.4804 34.7647C19.4804 35.2541 19.0495 35.6523 18.518 35.6523C17.9864 35.6523 17.5555 35.2558 17.5555 34.7658C17.5555 34.2759 18.5163 27.2531 18.5163 27.2531Z" fill="#7A35C2"/>
<path d="M18.5101 9.75203C18.5101 9.75203 17.5454 3.18878 17.5454 2.73147C17.5454 2.27416 17.9763 1.90234 18.5078 1.90234C19.0394 1.90234 19.4703 2.27303 19.4703 2.73091C19.4703 3.18878 18.5101 9.75203 18.5101 9.75203Z" fill="#7A35C2"/>
<path d="M24.5087 24.768C24.5087 24.768 30.1562 29.052 30.5015 29.3979C30.8486 29.7444 30.8244 30.3294 30.4487 30.7057C30.0729 31.0815 29.4874 31.1056 29.1414 30.7597C28.7949 30.4143 24.5087 24.768 24.5087 24.768Z" fill="#7A35C2"/>
<path d="M12.1292 12.3975C12.1292 12.3975 6.80622 8.4386 6.48222 8.11516C6.15878 7.79116 6.20097 7.22416 6.57672 6.84841C6.95247 6.4721 7.52003 6.42991 7.84347 6.75391C8.16747 7.07679 12.1292 12.3975 12.1292 12.3975Z" fill="#7A35C2"/>
<path d="M24.5087 12.7862C24.5087 12.7862 28.7949 7.14092 29.1414 6.79498C29.4874 6.44848 30.0729 6.47267 30.4487 6.84898C30.8244 7.22473 30.8486 7.81029 30.5015 8.15623C30.1562 8.5016 24.5087 12.7862 24.5087 12.7862Z" fill="#7A35C2"/>
<path d="M12.1292 25.1567C12.1292 25.1567 8.16747 30.4779 7.84347 30.8008C7.52003 31.1248 6.95247 31.082 6.57672 30.7063C6.20097 30.33 6.15878 29.763 6.48222 29.4395C6.80622 29.1161 12.1292 25.1567 12.1292 25.1567Z" fill="#7A35C2"/>
<path d="M26.9886 18.774C26.9886 18.774 34.0109 17.8098 34.5008 17.8098C34.9908 17.8093 35.3879 18.2407 35.3879 18.7717C35.3885 19.3033 34.9919 19.7347 34.502 19.7347C34.012 19.7353 26.9886 18.774 26.9886 18.774Z" fill="#7A35C2"/>
<path d="M9.48819 18.7807C9.48819 18.7807 2.92381 19.7443 2.46706 19.7448C2.00863 19.7448 1.63794 19.3134 1.63794 18.7824C1.63794 18.2508 2.00863 17.8194 2.46706 17.8194C2.92381 17.8194 9.48819 18.7807 9.48819 18.7807Z" fill="#7A35C2"/>
<path d="M12.1725 4.67885C12.7441 4.67885 13.2075 4.21547 13.2075 3.64385C13.2075 3.07224 12.7441 2.60885 12.1725 2.60885C11.6008 2.60885 11.1375 3.07224 11.1375 3.64385C11.1375 4.21547 11.6008 4.67885 12.1725 4.67885Z" fill="#7A35C2"/>
<path d="M25.0064 4.67885C25.5781 4.67885 26.0414 4.21547 26.0414 3.64385C26.0414 3.07224 25.5781 2.60885 25.0064 2.60885C24.4348 2.60885 23.9714 3.07224 23.9714 3.64385C23.9714 4.21547 24.4348 4.67885 25.0064 4.67885Z" fill="#7A35C2"/>
<path d="M11.8805 35.0145C12.4525 35.0145 12.9161 34.5508 12.9161 33.9789C12.9161 33.407 12.4525 32.9433 11.8805 32.9433C11.3086 32.9433 10.845 33.407 10.845 33.9789C10.845 34.5508 11.3086 35.0145 11.8805 35.0145Z" fill="#7A35C2"/>
<path d="M24.7145 35.0145C25.2864 35.0145 25.7501 34.5508 25.7501 33.9789C25.7501 33.407 25.2864 32.9433 24.7145 32.9433C24.1426 32.9433 23.679 33.407 23.679 33.9789C23.679 34.5508 24.1426 35.0145 24.7145 35.0145Z" fill="#7A35C2"/>
<path d="M3.27597 26.1174C3.84758 26.1174 4.31097 25.654 4.31097 25.0824C4.31097 24.5108 3.84758 24.0474 3.27597 24.0474C2.70435 24.0474 2.24097 24.5108 2.24097 25.0824C2.24097 25.654 2.70435 26.1174 3.27597 26.1174Z" fill="#7A35C2"/>
<path d="M3.27597 13.2834C3.84758 13.2834 4.31097 12.82 4.31097 12.2484C4.31097 11.6768 3.84758 11.2134 3.27597 11.2134C2.70435 11.2134 2.24097 11.6768 2.24097 12.2484C2.24097 12.82 2.70435 13.2834 3.27597 13.2834Z" fill="#7A35C2"/>
<path d="M33.611 26.4099C34.1829 26.4099 34.6466 25.9463 34.6466 25.3743C34.6466 24.8024 34.1829 24.3388 33.611 24.3388C33.0391 24.3388 32.5754 24.8024 32.5754 25.3743C32.5754 25.9463 33.0391 26.4099 33.611 26.4099Z" fill="#7A35C2"/>
<path d="M33.6111 13.5753C34.1827 13.5753 34.6461 13.1119 34.6461 12.5403C34.6461 11.9687 34.1827 11.5053 33.6111 11.5053C33.0394 11.5053 32.576 11.9687 32.576 12.5403C32.576 13.1119 33.0394 13.5753 33.6111 13.5753Z" fill="#7A35C2"/>
</svg>
