<svg width="40" height="40" viewBox="0 0 40 40" fill="none" xmlns="http://www.w3.org/2000/svg">
<path d="M31.7624 23.1956L21.8986 33.0431V36.3906H25.2461L35.0936 26.5269L31.7624 23.1956ZM37.6611 22.7081L35.5811 20.6281C35.503 20.5418 35.4077 20.4727 35.3014 20.4251C35.1951 20.3775 35.0801 20.3526 34.9636 20.3519C34.7199 20.3681 34.4924 20.4494 34.3299 20.6281L32.7049 22.2531L36.0361 25.5031L37.6611 23.8781C37.9699 23.5531 37.9699 23.0331 37.6611 22.7081ZM18.6486 29.8906H7.27362V13.6406L20.2736 21.7656L33.2736 13.6406V16.8906H36.5236V10.3906C36.5236 8.60312 35.0611 7.14062 33.2736 7.14062H7.27362C5.48612 7.14062 4.02362 8.60312 4.02362 10.3906V29.8906C4.02362 31.6781 5.48612 33.1406 7.27362 33.1406H18.6486V29.8906ZM33.2736 10.3906L20.2736 18.5156L7.27362 10.3906H33.2736Z" fill="white"/>
</svg>
