<svg width="208" height="29" viewBox="0 0 208 29" fill="none" xmlns="http://www.w3.org/2000/svg">
<g clip-path="url(#clip0)">
<path d="M0 0.481201H22.1974V4.7156H4.83721V11.7553H22.2512V15.9897H4.83721V23.2941H22.4124V27.5285H0V0.481201Z" fill="white"/>
<path d="M25.7447 13.9784C25.7447 6.30356 31.6031 0.00488281 39.9339 0.00488281C44.986 0.00488281 48.0496 1.75157 50.6832 4.23929L47.5659 7.73267C45.3623 5.72133 42.9974 4.34515 39.8801 4.34515C34.6129 4.34515 30.7969 8.57955 30.7969 13.9784C30.7969 19.2714 34.6129 23.6117 39.8801 23.6117C43.2661 23.6117 45.416 22.2355 47.7809 20.1183L50.8982 23.1882C48.0496 26.1523 44.8786 28.0049 39.7189 28.0049C31.7106 28.0049 25.7447 21.865 25.7447 13.9784Z" fill="white"/>
<path d="M62.8837 4.8744H54.1767V0.481201H76.4817V4.8744H67.7747V27.5285H62.8837V4.8744Z" fill="white"/>
<path d="M80.7814 0.481201H85.5649V10.2203H91.907C98.0879 10.2203 102.226 13.2373 102.226 18.6891C102.226 24.1409 98.1953 27.5285 91.8532 27.5285H80.7814V0.481201ZM91.7995 23.2941C95.3468 23.2941 97.4429 21.7062 97.4429 18.6362C97.4429 15.8309 95.3468 14.3489 91.692 14.3489H85.5649V23.2941H91.7995Z" fill="white"/>
<path d="M106.042 0.481201H110.772V20.2241L123.618 0.481201H128.132V27.5285H123.403V7.83848L110.611 27.5285H106.042V0.481201Z" fill="white"/>
<path d="M193.058 17.3659C189.189 16.3073 186.501 13.5549 186.501 9.1088C186.501 3.86873 190.371 0.481201 196.767 0.481201H208V27.5285H203.163V18.1598H198.057L191.231 27.5285H185.534L193.058 17.3659ZM203.163 14.0313V4.76854H197.089C193.488 4.76854 191.339 6.4623 191.339 9.42638C191.339 12.2317 193.596 14.0842 197.036 14.0842H203.163V14.0313Z" fill="white"/>
<path d="M182.47 0.481201H159.95V4.71561H182.47V0.481201Z" fill="white"/>
<path d="M182.47 11.8613H159.95V16.0957H182.47V11.8613Z" fill="white"/>
<path d="M136.248 27.5285H155.597H182.202V23.2941H155.651V0.481201H137.699V4.29217C137.699 13.3432 136.463 18.8479 134.206 23.2941H131.465V27.5285H136.248ZM142.375 7.83848V4.76854H150.867V23.2941H139.365C141.247 19.536 142.375 14.1372 142.375 7.83848Z" fill="white"/>
</g>
<defs>
<clipPath id="clip0">
<rect width="208" height="28" fill="white" transform="translate(0 0.00488281)"/>
</clipPath>
</defs>
</svg>
