<svg width="105" height="63" viewBox="0 0 105 63" fill="none" xmlns="http://www.w3.org/2000/svg">
<path d="M0 0.496582H22.7997V4.90989H4.96845V12.247H22.8549V16.6603H4.96845V24.2733H23.0205V28.6866H0V0.496582Z" fill="black"/>
<path d="M26.4432 14.5639C26.4432 6.5648 32.4606 0 41.0174 0C46.2066 0 49.3533 1.82049 52.0584 4.41331L48.8565 8.05429C46.5931 5.95797 44.1641 4.52364 40.9622 4.52364C35.5521 4.52364 31.6325 8.93695 31.6325 14.5639C31.6325 20.0806 35.5521 24.6042 40.9622 24.6042C44.4401 24.6042 46.6483 23.1699 49.0773 20.9632L52.2792 24.1629C49.3533 27.2522 46.0962 29.183 40.7965 29.183C32.571 29.183 26.4432 22.7837 26.4432 14.5639Z" fill="black"/>
<path d="M64.5899 5.07539H55.6467V0.496582H78.5568V5.07539H69.6135V28.6866H64.5899V5.07539Z" fill="black"/>
<path d="M82.9732 0.496582H87.8865V10.6472H94.4006C100.749 10.6472 105 13.7917 105 19.4738C105 25.156 100.86 28.6866 94.3454 28.6866H82.9732V0.496582ZM94.2902 24.2733C97.9338 24.2733 100.087 22.6183 100.087 19.4186C100.087 16.4948 97.9338 14.9502 94.1798 14.9502H87.8865V24.2733H94.2902Z" fill="black"/>
<path d="M0.331238 34.7549H5.18928V55.3319L18.3833 34.7549H23.0205V62.9449H18.1625V42.423L4.96846 63.0001H0.331238V34.7549Z" fill="black"/>
<path d="M89.653 52.353C85.6782 51.2496 82.918 48.381 82.918 43.747C82.918 38.2855 86.8927 34.7549 93.4621 34.7549H105V62.9449H100.087V53.2356H94.8423L87.8312 63.0001H81.9795L89.653 52.353ZM100.087 48.9326V39.2234H93.8486C90.1498 39.2234 87.9416 40.9887 87.9416 44.078C87.9416 47.0018 90.2602 48.9326 93.7934 48.9326H100.087Z" fill="black"/>
<path d="M78.7776 34.7549H55.6467V39.1682H78.7776V34.7549Z" fill="black"/>
<path d="M78.7776 46.6707H55.6467V51.084H78.7776V46.6707Z" fill="black"/>
<path d="M31.3565 63.0001H51.2303H78.5568V58.5868H51.2855V34.7549H32.847V38.7269C32.847 48.1603 31.5773 53.8976 29.2587 58.5316H26.4432V62.9449H31.3565V63.0001ZM37.5947 42.4782V39.2785H46.3171V58.5868H34.5584C36.4906 54.6148 37.5947 48.9878 37.5947 42.4782Z" fill="black"/>
</svg>
