<svg width="36" height="41" viewBox="0 0 36 41" fill="none" xmlns="http://www.w3.org/2000/svg">
<g clip-path="url(#clip0)">
<path d="M30.5314 7.86328C27.258 4.58203 22.8986 2.77734 18.2658 2.77734C8.70331 2.77734 0.922058 10.5586 0.922058 20.1211C0.922058 23.1758 1.71893 26.1602 3.23456 28.793L0.773621 37.7773L9.96893 35.3633C12.5002 36.7461 15.3517 37.4727 18.258 37.4727H18.2658C27.8205 37.4727 35.7736 29.6914 35.7736 20.1289C35.7736 15.4961 33.8049 11.1445 30.5314 7.86328ZM18.2658 34.5508C15.6721 34.5508 13.133 33.8555 10.9221 32.543L10.3986 32.2305L4.9455 33.6602L6.39862 28.3398L6.05487 27.793C4.60956 25.4961 3.85175 22.8477 3.85175 20.1211C3.85175 12.1758 10.3205 5.70703 18.2736 5.70703C22.1252 5.70703 25.7424 7.20703 28.4611 9.93359C31.1799 12.6602 32.8517 16.2773 32.8439 20.1289C32.8439 28.082 26.2111 34.5508 18.2658 34.5508ZM26.1721 23.7539C25.7424 23.5352 23.6096 22.4883 23.2111 22.3477C22.8127 22.1992 22.5236 22.1289 22.2346 22.5664C21.9455 23.0039 21.1174 23.9727 20.8596 24.2695C20.6096 24.5586 20.3517 24.5977 19.9221 24.3789C17.3752 23.1055 15.7033 22.1055 14.0236 19.2227C13.5783 18.457 14.4689 18.5117 15.2971 16.8555C15.4377 16.5664 15.3674 16.3164 15.258 16.0977C15.1486 15.8789 14.2814 13.7461 13.9221 12.8789C13.5705 12.0352 13.2111 12.1523 12.9455 12.1367C12.6955 12.1211 12.4064 12.1211 12.1174 12.1211C11.8283 12.1211 11.3596 12.2305 10.9611 12.6602C10.5627 13.0977 9.4455 14.1445 9.4455 16.2773C9.4455 18.4102 11.0002 20.4727 11.2111 20.7617C11.4299 21.0508 14.2658 25.4258 18.6174 27.3086C21.3674 28.4961 22.4455 28.5977 23.8205 28.3945C24.6564 28.2695 26.383 27.3477 26.7424 26.332C27.1017 25.3164 27.1017 24.4492 26.9924 24.2695C26.8908 24.0742 26.6017 23.9648 26.1721 23.7539Z" fill="white"/>
</g>
<defs>
<clipPath id="clip0">
<rect width="35" height="40" fill="white" transform="translate(0.773621 0.277344)"/>
</clipPath>
</defs>
</svg>
