<svg width="603" height="330" fill="none" xmlns="http://www.w3.org/2000/svg"><path d="M2.338 178.688v-27.935l62.73-91.824h37.942v89.755h16.188v30.004H103.01v26.383H69.115v-26.383H2.338zm69.307-81.736l-33.389 51.732h33.389V96.951zm412.157 81.736v-27.935l62.73-91.824h37.942v89.755h16.188v30.004h-16.188v26.383h-33.895v-26.383h-66.777zm69.307-81.736l-33.389 51.732h33.389V96.951z" fill="#fff"/><path d="M190.174 141.489h-19.558v19.907h19.558v-19.907zm260.695-.11h-19.557v19.908h19.557v-19.908z" fill="#E43E50"/><path d="M170.616 161.287h19.558v19.907h-17.516l-2.042-19.907zm280.357 0h-19.557v19.907h17.516l2.041-19.907z" fill="#E43E50" fill-opacity=".95"/><path d="M190.174 121.582h-19.558v19.907h19.558v-19.907zm260.695-.11h-19.557v19.907h19.557v-19.907z" fill="#E43E50" fill-opacity=".7"/><path d="M190.174 101.784h-19.558v19.907h19.558v-19.907zm260.695-.11h-19.557v19.908h19.557v-19.908z" fill="#E43E50" fill-opacity=".9"/><path d="M190.174 81.876h-19.558v19.908h19.558V81.876zm260.695-.109h-19.557v19.907h19.557V81.767z" fill="#E43E50" fill-opacity=".4"/><path d="M209.729 121.582h-19.557v19.907h19.557v-19.907zm221.578-.11H411.75v19.907h19.557v-19.907z" fill="#E43E50"/><path d="M209.729 81.876h-19.557v19.908h19.557V81.876zm221.578-.109H411.75v19.907h19.557V81.767z" fill="#E43E50" fill-opacity=".85"/><path d="M209.729 61.97h-19.557v19.906h19.557V61.97zm221.578 0H411.75v19.906h19.557V61.97z" fill="#E43E50" fill-opacity=".3"/><path d="M209.729 101.784h-19.557v19.907h19.557v-19.907zm221.578-.11H411.75v19.908h19.557v-19.908z" fill="#E43E50" fill-opacity=".5"/><path d="M229.395 141.489h-19.557v19.907h19.557v-19.907zm182.357-.11h-19.558v19.908h19.558v-19.908z" fill="#E43E50" fill-opacity=".95"/><path d="M229.395 161.287h-19.557v19.907h19.557v-19.907zm182.357 0h-19.558v19.907h19.558v-19.907z" fill="#E43E50"/><path d="M229.395 121.582h-19.557v19.907h19.557v-19.907zm182.357-.11h-19.558v19.907h19.558v-19.907z" fill="#E43E50" fill-opacity=".8"/><path d="M229.395 101.784h-19.557v19.907h19.557v-19.907zm182.357 0h-19.558v19.907h19.558v-19.907zm-162.797 19.798h-19.558v19.907h19.558v-19.907zm143.132-.11h-19.558v19.907h19.558v-19.907z" fill="#E43E50"/><path d="M229.395 61.97h-19.557v19.906h19.557V61.97zm182.357 0h-19.558v19.906h19.558V61.97z" fill="#E43E50" fill-opacity=".8"/><path d="M229.395 42.171h-19.557V62.08h19.557V42.17zm182.357-.109h-19.558V61.97h19.558V42.062z" fill="#E43E50" fill-opacity=".3"/><path d="M229.395 81.876h-19.557v19.908h19.557V81.876zm182.357-.109h-19.558v19.907h19.558V81.767z" fill="#E43E50" fill-opacity=".4"/><path d="M229.395 22.264h-19.557v19.908h19.557V22.264zm182.357 0h-19.558v19.908h19.558V22.264z" fill="#E43E50" fill-opacity=".1"/><path d="M190.174 61.97h-19.558v19.906h19.558V61.97zm260.695 0h-19.557v19.906h19.557V61.97z" fill="#E43E50" fill-opacity=".2"/><path d="M209.729 42.171h-19.557V62.08h19.557V42.17zm221.578-.109H411.75V61.97h19.557V42.062z" fill="#E43E50" fill-opacity=".15"/><path d="M248.955 141.489h-19.558v19.907h19.558v-19.907z" fill="#E43E50" fill-opacity=".9"/><path d="M392.087 141.379h-19.558v19.908h19.558v-19.908z" fill="#E43E50" fill-opacity=".8"/><path d="M248.955 101.784h-19.558v19.907h19.558v-19.907z" fill="#E43E50" fill-opacity=".9"/><path d="M392.087 101.674h-19.558v19.908h19.558v-19.908z" fill="#E43E50" fill-opacity=".7"/><path d="M248.955 81.876h-19.558v19.908h19.558V81.876z" fill="#E43E50"/><path opacity=".9" d="M392.087 81.767h-19.558v19.907h19.558V81.767z" fill="#E43E50"/><path d="M248.955 42.171h-19.558V62.08h19.558V42.17zm143.132-.109h-19.558V61.97h19.558V42.062z" fill="#E43E50" fill-opacity=".7"/><path d="M248.955 22.264h-19.558v19.908h19.558V22.264zm143.132 0h-19.558v19.908h19.558V22.264z" fill="#E43E50" fill-opacity=".3"/><path d="M209.729 161.287h-19.557v19.907h19.557v-19.907zm221.578 0H411.75v19.907h19.557v-19.907z" fill="#E43E50" fill-opacity=".9"/><path d="M209.729 141.489h-19.557v19.907h19.557v-19.907z" fill="#E43E50" fill-opacity=".85"/><path d="M431.307 141.379H411.75v19.908h19.557v-19.908zm-182.352 19.908h-19.558v19.907h19.558v-19.907zm143.132 0h-19.558v19.907h19.558v-19.907z" fill="#E43E50" fill-opacity=".9"/><path d="M248.955 61.97h-19.558v19.906h19.558V61.97zm143.132 0h-19.558v19.906h19.558V61.97z" fill="#E43E50" fill-opacity=".3"/><path d="M248.955 2.467h-19.558v19.907h19.558V2.467zm143.132-.11h-19.558v19.907h19.558V2.357z" fill="#E43E50" fill-opacity=".05"/><path fill-rule="evenodd" clip-rule="evenodd" d="M248.951 284.339c-39.437-19.688-68.45-57.753-76.295-103.255h76.295v6.344c0 10.173 8.167 18.486 18.161 18.486h87.256c9.993 0 18.16-8.313 18.16-18.486v-6.344h76.295c-7.844 45.502-36.858 83.457-76.295 103.255v24.72c0 10.172-8.167 18.485-18.16 18.485h-87.256c-9.994 0-18.161-8.313-18.161-18.485v-24.72z" fill="url(#paint0_linear)"/><defs><linearGradient id="paint0_linear" x1="310.764" y1="210.753" x2="310.764" y2="325.286" gradientUnits="userSpaceOnUse"><stop stop-color="#E43E50"/><stop offset=".318" stop-color="#E43E50" stop-opacity=".74"/><stop offset="1" stop-color="#ED355A" stop-opacity="0"/></linearGradient></defs></svg>