<svg width="97" height="160" viewBox="0 0 97 160" fill="none" xmlns="http://www.w3.org/2000/svg">
<g clip-path="url(#clip0)">
<path d="M1.51059 124.102V119.462H9.54248V140.733H4.38439V124.065H1.51059V124.102ZM22.8798 129.819C22.8798 126.478 23.5062 123.842 24.7957 121.912C26.0852 119.982 28.1485 119.016 31.0223 119.016C33.8961 119.016 35.9593 119.982 37.212 121.912C38.5015 123.842 39.1647 126.478 39.1647 129.819C39.1647 133.197 38.5015 135.87 37.212 137.763C35.9225 139.694 33.8592 140.659 31.0223 140.659C28.1485 140.659 26.0852 139.694 24.7957 137.763C23.543 135.833 22.8798 133.197 22.8798 129.819ZM34.3013 129.819C34.3013 127.852 34.0803 126.367 33.675 125.29C33.2329 124.214 32.3855 123.694 31.0591 123.694C29.7327 123.694 28.8485 124.214 28.4432 125.29C28.0011 126.33 27.8169 127.852 27.8169 129.819C27.8169 131.156 27.8906 132.232 28.0379 133.123C28.1853 133.977 28.5169 134.682 28.959 135.239C29.438 135.759 30.138 136.019 31.0591 136.019C31.9802 136.019 32.6802 135.759 33.1592 135.239C33.6381 134.682 33.9697 133.977 34.1171 133.123C34.2276 132.232 34.3013 131.118 34.3013 129.819ZM51.5809 136.761C52.2441 136.241 52.5389 135.982 52.4652 136.019C54.3442 134.46 55.8548 133.16 56.9233 132.158C58.0286 131.156 58.9497 130.079 59.6865 128.965C60.4234 127.852 60.8287 126.775 60.8287 125.736C60.8287 124.956 60.6445 124.325 60.276 123.879C59.9076 123.434 59.3549 123.211 58.6181 123.211C57.8812 123.211 57.2917 123.508 56.8864 124.065C56.4811 124.622 56.2601 125.402 56.2601 126.404H51.4704C51.5073 124.733 51.8389 123.36 52.502 122.246C53.1652 121.132 54.0495 120.316 55.1179 119.796C56.2232 119.276 57.4391 119.016 58.7654 119.016C61.0497 119.016 62.7814 119.61 63.9604 120.798C65.1394 121.986 65.7289 123.545 65.7289 125.439C65.7289 127.518 65.0288 129.448 63.6288 131.23C62.2287 133.012 60.4234 134.719 58.2496 136.427H66.0605V140.473H51.5809V136.761ZM77.0767 136.947V132.937L86.2139 119.759H91.7404V132.64H94.0984V136.947H91.7404V140.733H86.8034V136.947H77.0767ZM87.1718 125.216L82.3084 132.64H87.1718V125.216Z" fill="white"/>
<path d="M11.2004 154.395C11.8268 154.543 12.3426 154.84 12.6742 155.323C13.0426 155.768 13.2268 156.325 13.2268 156.919C13.2268 157.847 12.9321 158.589 12.3057 159.072C11.7162 159.592 10.832 159.814 9.68983 159.814H4.1633V149.16H9.54245C10.6109 149.16 11.4583 149.383 12.0847 149.866C12.711 150.348 13.0057 151.016 13.0057 151.944C13.0057 152.576 12.8584 153.095 12.5268 153.541C12.1952 153.949 11.7531 154.246 11.2004 154.395ZM7.44237 153.355H8.7319C9.02665 153.355 9.24771 153.281 9.39508 153.169C9.54245 153.058 9.61614 152.872 9.61614 152.613C9.61614 152.353 9.54245 152.167 9.39508 152.056C9.24771 151.907 9.02665 151.87 8.7319 151.87H7.44237V153.355ZM8.95296 157.179C9.24771 157.179 9.46877 157.142 9.61614 157.03C9.76352 156.919 9.8372 156.733 9.8372 156.473C9.8372 155.954 9.54245 155.694 8.95296 155.694H7.44237V157.216H8.95296V157.179ZM35.4066 149.197L31.6117 156.622V159.852H28.2958V156.622L24.5009 149.197H28.2958L29.9906 152.984L31.6854 149.197H35.4066ZM55.339 149.197V151.833H52.5389V159.852H49.2229V151.833H46.4597V149.197H55.339ZM70.4448 151.87V153.169H73.7239V155.694H70.4448V157.216H74.166V159.889H67.1289V149.234H74.166V151.907H70.4448V151.87ZM90.4508 159.963C89.1982 159.963 88.1297 159.666 87.3191 159.072C86.5086 158.478 86.0665 157.587 85.9928 156.436H89.5297C89.5666 157.03 89.8613 157.364 90.3403 157.364C90.5245 157.364 90.6719 157.327 90.7824 157.253C90.9298 157.179 90.9666 157.03 90.9666 156.845C90.9666 156.585 90.8193 156.399 90.5614 156.251C90.3035 156.102 89.8613 155.917 89.3087 155.694C88.6455 155.471 88.056 155.211 87.6139 154.989C87.1718 154.766 86.8033 154.432 86.4717 153.986C86.1401 153.541 85.9928 152.984 85.9928 152.279C85.9928 151.573 86.177 151.016 86.5086 150.534C86.877 150.051 87.356 149.68 87.9455 149.42C88.5718 149.16 89.2718 149.049 90.0087 149.049C91.2982 149.049 92.3299 149.346 93.0667 149.94C93.8404 150.534 94.2457 151.388 94.2826 152.464H90.7087C90.7087 152.167 90.6351 151.944 90.4877 151.833C90.3403 151.685 90.1929 151.647 89.9719 151.647C89.8245 151.647 89.714 151.685 89.6403 151.796C89.5666 151.87 89.4929 152.019 89.4929 152.204C89.4929 152.427 89.6403 152.65 89.8982 152.798C90.1561 152.947 90.5982 153.132 91.1509 153.355C91.814 153.615 92.3667 153.838 92.8088 154.06C93.2509 154.283 93.6194 154.617 93.951 155.026C94.2826 155.434 94.4299 155.954 94.4299 156.585C94.4299 157.253 94.2826 157.81 93.951 158.33C93.6194 158.849 93.1773 159.258 92.5509 159.518C92.0351 159.814 91.2982 159.963 90.4508 159.963Z" fill="#E23457"/>
<path d="M6.70552 47.2205H0V53.9768H6.70552V47.2205Z" fill="#E43E50"/>
<path d="M48.0439 57.3179C49.923 57.3179 51.4335 58.8399 51.4335 60.6961C51.4335 62.5522 49.923 64.0742 48.0808 64.0742H48.0439C46.2018 64.0742 44.6912 62.5522 44.6912 60.6961C44.6912 58.8399 46.2018 57.3179 48.0439 57.3179Z" fill="white"/>
<path d="M96.0879 47.1833H89.3824V53.9397H96.0879V47.1833Z" fill="#E43E50"/>
<path d="M0 53.9397H6.70552V60.6961H0.700027L0 53.9397Z" fill="#E43E50" fill-opacity="0.95"/>
<path d="M96.1248 53.9397H89.4193V60.6961H95.4248L96.1248 53.9397Z" fill="#E43E50" fill-opacity="0.95"/>
<path d="M6.70552 40.4641H0V47.2205H6.70552V40.4641Z" fill="#E43E50" fill-opacity="0.7"/>
<path d="M96.0879 40.427H89.3824V47.1834H96.0879V40.427Z" fill="#E43E50" fill-opacity="0.7"/>
<path d="M6.70552 33.7449H0V40.5012H6.70552V33.7449Z" fill="#E43E50" fill-opacity="0.9"/>
<path d="M96.0879 33.7078H89.3824V40.4641H96.0879V33.7078Z" fill="#E43E50" fill-opacity="0.9"/>
<path d="M6.70552 26.9883H0V33.7447H6.70552V26.9883Z" fill="#E43E50" fill-opacity="0.4"/>
<path d="M96.0879 26.9512H89.3824V33.7076H96.0879V26.9512Z" fill="#E43E50" fill-opacity="0.4"/>
<path d="M13.4111 40.4641H6.70557V47.2205H13.4111V40.4641Z" fill="#E43E50"/>
<path d="M89.3824 40.427H82.6769V47.1834H89.3824V40.427Z" fill="#E43E50"/>
<path d="M13.4111 26.9883H6.70557V33.7447H13.4111V26.9883Z" fill="#E43E50" fill-opacity="0.85"/>
<path d="M89.3824 26.9512H82.6769V33.7076H89.3824V26.9512Z" fill="#E43E50" fill-opacity="0.85"/>
<path d="M13.4111 20.2319H6.70557V26.9883H13.4111V20.2319Z" fill="#E43E50" fill-opacity="0.3"/>
<path d="M89.3824 20.2319H82.6769V26.9883H89.3824V20.2319Z" fill="#E43E50" fill-opacity="0.3"/>
<path d="M13.4111 33.7449H6.70557V40.5012H13.4111V33.7449Z" fill="#E43E50" fill-opacity="0.5"/>
<path d="M89.3824 33.7078H82.6769V40.4641H89.3824V33.7078Z" fill="#E43E50" fill-opacity="0.5"/>
<path d="M20.1534 47.2205H13.4479V53.9768H20.1534V47.2205Z" fill="#E43E50" fill-opacity="0.95"/>
<path d="M82.6769 47.1833H75.9714V53.9397H82.6769V47.1833Z" fill="#E43E50" fill-opacity="0.95"/>
<path d="M20.1534 53.9397H13.4479V60.6961H20.1534V53.9397Z" fill="#E43E50"/>
<path d="M82.6769 53.9397H75.9714V60.6961H82.6769V53.9397Z" fill="#E43E50"/>
<path d="M20.1534 40.4641H13.4479V47.2205H20.1534V40.4641Z" fill="#E43E50" fill-opacity="0.8"/>
<path d="M82.6769 40.427H75.9714V47.1834H82.6769V40.427Z" fill="#E43E50" fill-opacity="0.8"/>
<path d="M20.1534 33.7449H13.4479V40.5012H20.1534V33.7449Z" fill="#E43E50"/>
<path d="M82.6769 33.7449H75.9714V40.5012H82.6769V33.7449Z" fill="#E43E50"/>
<path d="M26.859 40.4641H20.1534V47.2205H26.859V40.4641Z" fill="#E43E50"/>
<path d="M75.9345 40.427H69.229V47.1834H75.9345V40.427Z" fill="#E43E50"/>
<path d="M20.1534 20.2319H13.4479V26.9883H20.1534V20.2319Z" fill="#E43E50" fill-opacity="0.8"/>
<path d="M82.6769 20.2319H75.9714V26.9883H82.6769V20.2319Z" fill="#E43E50" fill-opacity="0.8"/>
<path d="M20.1534 13.5127H13.4479V20.2691H20.1534V13.5127Z" fill="#E43E50" fill-opacity="0.3"/>
<path d="M82.6769 13.4756H75.9714V20.232H82.6769V13.4756Z" fill="#E43E50" fill-opacity="0.3"/>
<path d="M20.1534 26.9883H13.4479V33.7447H20.1534V26.9883Z" fill="#E43E50" fill-opacity="0.4"/>
<path d="M82.6769 26.9512H75.9714V33.7076H82.6769V26.9512Z" fill="#E43E50" fill-opacity="0.4"/>
<path d="M20.1534 6.75635H13.4479V13.5127H20.1534V6.75635Z" fill="#E43E50" fill-opacity="0.1"/>
<path d="M82.6769 6.75635H75.9714V13.5127H82.6769V6.75635Z" fill="#E43E50" fill-opacity="0.1"/>
<path d="M6.70552 20.2319H0V26.9883H6.70552V20.2319Z" fill="#E43E50" fill-opacity="0.2"/>
<path d="M96.0879 20.2319H89.3824V26.9883H96.0879V20.2319Z" fill="#E43E50" fill-opacity="0.2"/>
<path d="M13.4111 13.5127H6.70557V20.2691H13.4111V13.5127Z" fill="#E43E50" fill-opacity="0.15"/>
<path d="M89.3824 13.4756H82.6769V20.232H89.3824V13.4756Z" fill="#E43E50" fill-opacity="0.15"/>
<path d="M26.859 47.2205H20.1534V53.9768H26.859V47.2205Z" fill="#E43E50" fill-opacity="0.9"/>
<path d="M75.9345 47.1833H69.229V53.9397H75.9345V47.1833Z" fill="#E43E50" fill-opacity="0.8"/>
<path d="M26.859 33.7449H20.1534V40.5012H26.859V33.7449Z" fill="#E43E50" fill-opacity="0.9"/>
<path d="M75.9345 33.7078H69.229V40.4641H75.9345V33.7078Z" fill="#E43E50" fill-opacity="0.7"/>
<path d="M26.859 26.9883H20.1534V33.7447H26.859V26.9883Z" fill="#E43E50"/>
<path opacity="0.9" d="M75.9345 26.9512H69.229V33.7076H75.9345V26.9512Z" fill="#E43E50"/>
<path d="M26.859 13.5127H20.1534V20.2691H26.859V13.5127Z" fill="#E43E50" fill-opacity="0.7"/>
<path d="M75.9345 13.4756H69.229V20.232H75.9345V13.4756Z" fill="#E43E50" fill-opacity="0.7"/>
<path d="M26.859 6.75635H20.1534V13.5127H26.859V6.75635Z" fill="#E43E50" fill-opacity="0.3"/>
<path d="M75.9345 6.75635H69.229V13.5127H75.9345V6.75635Z" fill="#E43E50" fill-opacity="0.3"/>
<path d="M13.4111 53.9397H6.70557V60.6961H13.4111V53.9397Z" fill="#E43E50" fill-opacity="0.9"/>
<path d="M89.3824 53.9397H82.6769V60.6961H89.3824V53.9397Z" fill="#E43E50" fill-opacity="0.9"/>
<path d="M13.4111 47.2205H6.70557V53.9768H13.4111V47.2205Z" fill="#E43E50" fill-opacity="0.85"/>
<path d="M89.3824 47.1833H82.6769V53.9397H89.3824V47.1833Z" fill="#E43E50" fill-opacity="0.9"/>
<path d="M26.859 53.9397H20.1534V60.6961H26.859V53.9397Z" fill="#E43E50" fill-opacity="0.9"/>
<path d="M75.9345 53.9397H69.229V60.6961H75.9345V53.9397Z" fill="#E43E50" fill-opacity="0.9"/>
<path d="M26.859 20.2319H20.1534V26.9883H26.859V20.2319Z" fill="#E43E50" fill-opacity="0.3"/>
<path d="M75.9345 20.2319H69.229V26.9883H75.9345V20.2319Z" fill="#E43E50" fill-opacity="0.3"/>
<path d="M26.859 0.0371094H20.1534V6.79349H26.859V0.0371094Z" fill="#E43E50" fill-opacity="0.05"/>
<path d="M75.9345 0H69.229V6.75638H75.9345V0Z" fill="#E43E50" fill-opacity="0.05"/>
<path fill-rule="evenodd" clip-rule="evenodd" d="M26.8589 95.703C13.3373 89.0209 3.38959 76.1021 0.700012 60.6589H26.8589V62.8121C26.8589 66.2645 29.659 69.0859 33.0855 69.0859H63.0024C66.4289 69.0859 69.229 66.2645 69.229 62.8121V60.6589H95.3879C92.6983 76.1021 82.7505 88.9838 69.229 95.703V104.093C69.229 107.545 66.4289 110.367 63.0024 110.367H33.0855C29.659 110.367 26.8589 107.545 26.8589 104.093V95.703Z" fill="url(#paint0_linear)"/>
</g>
<defs>
<linearGradient id="paint0_linear" x1="48.0524" y1="70.7282" x2="48.0524" y2="110.371" gradientUnits="userSpaceOnUse">
<stop stop-color="#E43E50"/>
<stop offset="0.3177" stop-color="#E43E50" stop-opacity="0.74"/>
<stop offset="1" stop-color="#ED355A" stop-opacity="0"/>
</linearGradient>
<clipPath id="clip0">
<rect width="96.1616" height="160" fill="white"/>
</clipPath>
</defs>
</svg>
