<svg width="86" height="30" viewBox="0 0 86 30" fill="none" xmlns="http://www.w3.org/2000/svg">
<path d="M1.87614 12.8355H0V14.672H1.87614V12.8355Z" fill="#E43E50"/>
<path d="M13.4422 15.5802C13.9679 15.5802 14.3905 15.9939 14.3905 16.4985C14.3905 17.003 13.9679 17.4167 13.4525 17.4167H13.4422C12.9267 17.4167 12.5041 17.003 12.5041 16.4985C12.5041 15.9939 12.9267 15.5802 13.4422 15.5802Z" fill="white"/>
<path d="M26.8844 12.8255H25.0083V14.662H26.8844V12.8255Z" fill="#E43E50"/>
<path d="M0 14.662H1.87614V16.4985H0.19586L0 14.662Z" fill="#E43E50" fill-opacity="0.95"/>
<path d="M26.8947 14.662H25.0186V16.4985H26.6989L26.8947 14.662Z" fill="#E43E50" fill-opacity="0.95"/>
<path d="M1.87614 10.999H0V12.8355H1.87614V10.999Z" fill="#E43E50" fill-opacity="0.7"/>
<path d="M26.8844 10.9889H25.0083V12.8254H26.8844V10.9889Z" fill="#E43E50" fill-opacity="0.7"/>
<path d="M1.87614 9.17255H0V11.0091H1.87614V9.17255Z" fill="#E43E50" fill-opacity="0.9"/>
<path d="M26.8844 9.16251H25.0083V10.999H26.8844V9.16251Z" fill="#E43E50" fill-opacity="0.9"/>
<path d="M1.87614 7.33603H0V9.17256H1.87614V7.33603Z" fill="#E43E50" fill-opacity="0.4"/>
<path d="M26.8844 7.32596H25.0083V9.16249H26.8844V7.32596Z" fill="#E43E50" fill-opacity="0.4"/>
<path d="M3.75229 10.999H1.87616V12.8355H3.75229V10.999Z" fill="#E43E50"/>
<path d="M25.0083 10.9889H23.1321V12.8254H25.0083V10.9889Z" fill="#E43E50"/>
<path d="M3.75229 7.33603H1.87616V9.17256H3.75229V7.33603Z" fill="#E43E50" fill-opacity="0.85"/>
<path d="M25.0083 7.32596H23.1321V9.16249H25.0083V7.32596Z" fill="#E43E50" fill-opacity="0.85"/>
<path d="M3.75229 5.49951H1.87616V7.33605H3.75229V5.49951Z" fill="#E43E50" fill-opacity="0.3"/>
<path d="M25.0083 5.49951H23.1321V7.33605H25.0083V5.49951Z" fill="#E43E50" fill-opacity="0.3"/>
<path d="M3.75229 9.17255H1.87616V11.0091H3.75229V9.17255Z" fill="#E43E50" fill-opacity="0.5"/>
<path d="M25.0083 9.16251H23.1321V10.999H25.0083V9.16251Z" fill="#E43E50" fill-opacity="0.5"/>
<path d="M5.63871 12.8355H3.76257V14.672H5.63871V12.8355Z" fill="#E43E50" fill-opacity="0.95"/>
<path d="M23.1322 12.8255H21.256V14.662H23.1322V12.8255Z" fill="#E43E50" fill-opacity="0.95"/>
<path d="M5.63871 14.662H3.76257V16.4985H5.63871V14.662Z" fill="#E43E50"/>
<path d="M23.1322 14.662H21.256V16.4985H23.1322V14.662Z" fill="#E43E50"/>
<path d="M5.63871 10.999H3.76257V12.8355H5.63871V10.999Z" fill="#E43E50" fill-opacity="0.8"/>
<path d="M23.1322 10.9889H21.256V12.8254H23.1322V10.9889Z" fill="#E43E50" fill-opacity="0.8"/>
<path d="M5.63871 9.17255H3.76257V11.0091H5.63871V9.17255Z" fill="#E43E50"/>
<path d="M23.1322 9.17255H21.256V11.0091H23.1322V9.17255Z" fill="#E43E50"/>
<path d="M7.51487 10.999H5.63873V12.8355H7.51487V10.999Z" fill="#E43E50"/>
<path d="M21.2457 10.9889H19.3696V12.8254H21.2457V10.9889Z" fill="#E43E50"/>
<path d="M5.63871 5.49951H3.76257V7.33605H5.63871V5.49951Z" fill="#E43E50" fill-opacity="0.8"/>
<path d="M23.1322 5.49951H21.256V7.33605H23.1322V5.49951Z" fill="#E43E50" fill-opacity="0.8"/>
<path d="M5.63871 3.67303H3.76257V5.50957H5.63871V3.67303Z" fill="#E43E50" fill-opacity="0.3"/>
<path d="M23.1322 3.66299H21.256V5.49952H23.1322V3.66299Z" fill="#E43E50" fill-opacity="0.3"/>
<path d="M5.63871 7.33603H3.76257V9.17256H5.63871V7.33603Z" fill="#E43E50" fill-opacity="0.4"/>
<path d="M23.1322 7.32596H21.256V9.16249H23.1322V7.32596Z" fill="#E43E50" fill-opacity="0.4"/>
<path d="M5.63871 1.83652H3.76257V3.67305H5.63871V1.83652Z" fill="#E43E50" fill-opacity="0.1"/>
<path d="M23.1322 1.83652H21.256V3.67305H23.1322V1.83652Z" fill="#E43E50" fill-opacity="0.1"/>
<path d="M1.87614 5.49951H0V7.33605H1.87614V5.49951Z" fill="#E43E50" fill-opacity="0.2"/>
<path d="M26.8844 5.49951H25.0083V7.33605H26.8844V5.49951Z" fill="#E43E50" fill-opacity="0.2"/>
<path d="M3.75229 3.67303H1.87616V5.50957H3.75229V3.67303Z" fill="#E43E50" fill-opacity="0.15"/>
<path d="M25.0083 3.66299H23.1321V5.49952H25.0083V3.66299Z" fill="#E43E50" fill-opacity="0.15"/>
<path d="M7.51487 12.8355H5.63873V14.672H7.51487V12.8355Z" fill="#E43E50" fill-opacity="0.9"/>
<path d="M21.2457 12.8255H19.3696V14.662H21.2457V12.8255Z" fill="#E43E50" fill-opacity="0.8"/>
<path d="M7.51487 9.17255H5.63873V11.0091H7.51487V9.17255Z" fill="#E43E50" fill-opacity="0.9"/>
<path d="M21.2457 9.16251H19.3696V10.999H21.2457V9.16251Z" fill="#E43E50" fill-opacity="0.7"/>
<path d="M7.51487 7.33603H5.63873V9.17256H7.51487V7.33603Z" fill="#E43E50"/>
<path opacity="0.9" d="M21.2457 7.32596H19.3696V9.16249H21.2457V7.32596Z" fill="#E43E50"/>
<path d="M7.51487 3.67303H5.63873V5.50957H7.51487V3.67303Z" fill="#E43E50" fill-opacity="0.7"/>
<path d="M21.2457 3.66299H19.3696V5.49952H21.2457V3.66299Z" fill="#E43E50" fill-opacity="0.7"/>
<path d="M7.51487 1.83652H5.63873V3.67305H7.51487V1.83652Z" fill="#E43E50" fill-opacity="0.3"/>
<path d="M21.2457 1.83652H19.3696V3.67305H21.2457V1.83652Z" fill="#E43E50" fill-opacity="0.3"/>
<path d="M3.75229 14.662H1.87616V16.4985H3.75229V14.662Z" fill="#E43E50" fill-opacity="0.9"/>
<path d="M25.0083 14.662H23.1321V16.4985H25.0083V14.662Z" fill="#E43E50" fill-opacity="0.9"/>
<path d="M3.75229 12.8355H1.87616V14.672H3.75229V12.8355Z" fill="#E43E50" fill-opacity="0.85"/>
<path d="M25.0083 12.8255H23.1321V14.662H25.0083V12.8255Z" fill="#E43E50" fill-opacity="0.9"/>
<path d="M7.51487 14.662H5.63873V16.4985H7.51487V14.662Z" fill="#E43E50" fill-opacity="0.9"/>
<path d="M21.2457 14.662H19.3696V16.4985H21.2457V14.662Z" fill="#E43E50" fill-opacity="0.9"/>
<path d="M7.51487 5.49951H5.63873V7.33605H7.51487V5.49951Z" fill="#E43E50" fill-opacity="0.3"/>
<path d="M21.2457 5.49951H19.3696V7.33605H21.2457V5.49951Z" fill="#E43E50" fill-opacity="0.3"/>
<path d="M7.51487 0.0101318H5.63873V1.84666H7.51487V0.0101318Z" fill="#E43E50" fill-opacity="0.05"/>
<path d="M21.2457 0H19.3696V1.83653H21.2457V0Z" fill="#E43E50" fill-opacity="0.05"/>
<path fill-rule="evenodd" clip-rule="evenodd" d="M7.51479 26.0141C3.73159 24.1978 0.948317 20.6862 0.195801 16.4884H7.51479V17.0736C7.51479 18.0121 8.29823 18.779 9.25692 18.779H17.6274C18.5861 18.779 19.3695 18.0121 19.3695 17.0736V16.4884H26.6885C25.936 20.6862 23.1527 24.1877 19.3695 26.0141V28.2946C19.3695 29.2331 18.5861 30 17.6274 30H9.25692C8.29823 30 7.51479 29.2331 7.51479 28.2946V26.0141Z" fill="url(#paint0_linear)"/>
<path d="M41.3081 7.80979V5.64145H45.1713V15.5811H42.6903V7.79245H41.3081V7.80979ZM51.5862 10.4812C51.5862 8.91999 51.8875 7.68837 52.5077 6.78633C53.1279 5.8843 54.1203 5.43329 55.5025 5.43329C56.8847 5.43329 57.8771 5.8843 58.4796 6.78633C59.0998 7.68837 59.4188 8.91999 59.4188 10.4812C59.4188 12.0598 59.0998 13.3087 58.4796 14.1934C57.8594 15.0954 56.867 15.5465 55.5025 15.5465C54.1203 15.5465 53.1279 15.0954 52.5077 14.1934C51.9052 13.2914 51.5862 12.0598 51.5862 10.4812ZM57.0797 10.4812C57.0797 9.56182 56.9733 8.86795 56.7784 8.36489C56.5658 7.86183 56.1582 7.61898 55.5202 7.61898C54.8823 7.61898 54.457 7.86183 54.2621 8.36489C54.0494 8.8506 53.9608 9.56182 53.9608 10.4812C53.9608 11.1057 53.9962 11.6087 54.0671 12.0251C54.138 12.424 54.2975 12.7536 54.5101 13.0138C54.7405 13.2567 55.0772 13.3781 55.5202 13.3781C55.9633 13.3781 56.3 13.2567 56.5303 13.0138C56.7607 12.7536 56.9202 12.424 56.9911 12.0251C57.0442 11.6087 57.0797 11.0883 57.0797 10.4812ZM65.3908 13.725C65.7097 13.4822 65.8515 13.3608 65.8161 13.3781C66.7198 12.6495 67.4464 12.0424 67.9603 11.574C68.4919 11.1057 68.9349 10.6026 69.2893 10.0822C69.6438 9.56182 69.8387 9.05876 69.8387 8.57305C69.8387 8.20877 69.7501 7.91388 69.5729 7.70572C69.3957 7.49755 69.1299 7.39347 68.7754 7.39347C68.421 7.39347 68.1375 7.53225 67.9426 7.79245C67.7476 8.05265 67.6413 8.41693 67.6413 8.88529H65.3376C65.3553 8.10469 65.5148 7.46286 65.8338 6.94245C66.1528 6.42205 66.5781 6.04043 67.092 5.79757C67.6236 5.55472 68.2084 5.43329 68.8463 5.43329C69.945 5.43329 70.7779 5.71083 71.345 6.26593C71.912 6.82103 72.1956 7.54959 72.1956 8.43428C72.1956 9.4057 71.8589 10.3077 71.1855 11.1404C70.5121 11.973 69.6438 12.771 68.5982 13.5689H72.3551V15.4597H65.3908V13.725ZM77.6536 13.8118V11.9383L82.0484 5.78022H84.7065V11.7995H85.8406V13.8118H84.7065V15.5811H82.3319V13.8118H77.6536ZM82.5091 8.3302L80.1699 11.7995H82.5091V8.3302Z" fill="white"/>
<path d="M45.9685 21.9647C46.2698 22.0341 46.5179 22.1729 46.6774 22.3984C46.8546 22.6065 46.9432 22.8667 46.9432 23.1443C46.9432 23.578 46.8014 23.9249 46.5002 24.1504C46.2166 24.3933 45.7913 24.4973 45.242 24.4973H42.5839V19.5188H45.1711C45.685 19.5188 46.0926 19.6229 46.3938 19.8484C46.6951 20.0739 46.8369 20.3861 46.8369 20.8198C46.8369 21.1147 46.766 21.3576 46.6065 21.5657C46.447 21.7565 46.2344 21.8953 45.9685 21.9647ZM44.161 21.479H44.7812C44.923 21.479 45.0293 21.4443 45.1002 21.3923C45.1711 21.3402 45.2065 21.2535 45.2065 21.1321C45.2065 21.0106 45.1711 20.9239 45.1002 20.8719C45.0293 20.8025 44.923 20.7851 44.7812 20.7851H44.161V21.479ZM44.8876 23.2657C45.0293 23.2657 45.1357 23.2484 45.2065 23.1963C45.2774 23.1443 45.3129 23.0576 45.3129 22.9361C45.3129 22.6933 45.1711 22.5718 44.8876 22.5718H44.161V23.2831H44.8876V23.2657ZM57.6111 19.5362L55.7859 23.0055V24.5147H54.191V23.0055L52.3658 19.5362H54.191L55.0062 21.3055L55.8213 19.5362H57.6111ZM67.1981 19.5362V20.7678H65.8513V24.5147H64.2565V20.7678H62.9274V19.5362H67.1981ZM74.4637 20.7851V21.3923H76.0408V22.5718H74.4637V23.2831H76.2535V24.532H72.8688V19.5535H76.2535V20.8025H74.4637V20.7851ZM84.0861 24.5667C83.4836 24.5667 82.9697 24.4279 82.5798 24.1504C82.19 23.8729 81.9773 23.4565 81.9419 22.9188H83.6431C83.6608 23.1963 83.8026 23.3524 84.0329 23.3524C84.1215 23.3524 84.1924 23.3351 84.2456 23.3004C84.3165 23.2657 84.3342 23.1963 84.3342 23.1096C84.3342 22.9882 84.2633 22.9014 84.1393 22.832C84.0152 22.7627 83.8026 22.6759 83.5367 22.5718C83.2178 22.4678 82.9342 22.3463 82.7216 22.2423C82.5089 22.1382 82.3317 21.982 82.1722 21.7739C82.0128 21.5657 81.9419 21.3055 81.9419 20.9759C81.9419 20.6464 82.0305 20.3861 82.19 20.1606C82.3672 19.9351 82.5975 19.7617 82.8811 19.6402C83.1823 19.5188 83.519 19.4668 83.8734 19.4668C84.4937 19.4668 84.9899 19.6055 85.3443 19.8831C85.7164 20.1606 85.9113 20.5596 85.9291 21.0627H84.2101C84.2101 20.9239 84.1747 20.8198 84.1038 20.7678C84.0329 20.6984 83.962 20.681 83.8557 20.681C83.7848 20.681 83.7317 20.6984 83.6962 20.7504C83.6608 20.7851 83.6253 20.8545 83.6253 20.9412C83.6253 21.0453 83.6962 21.1494 83.8203 21.2188C83.9443 21.2882 84.157 21.3749 84.4228 21.479C84.7418 21.6004 85.0076 21.7045 85.2202 21.8086C85.4329 21.9127 85.6101 22.0688 85.7696 22.2596C85.9291 22.4504 85.9999 22.6933 85.9999 22.9882C85.9999 23.3004 85.9291 23.5606 85.7696 23.8035C85.6101 24.0463 85.3974 24.2371 85.0962 24.3586C84.8481 24.4973 84.4937 24.5667 84.0861 24.5667Z" fill="#E23457"/>
<defs>
<linearGradient id="paint0_linear" x1="13.4445" y1="19.2254" x2="13.4445" y2="30.0012" gradientUnits="userSpaceOnUse">
<stop stop-color="#E43E50"/>
<stop offset="0.3177" stop-color="#E43E50" stop-opacity="0.74"/>
<stop offset="1" stop-color="#ED355A" stop-opacity="0"/>
</linearGradient>
</defs>
</svg>
