<svg width="60" height="100" viewBox="0 0 60 100" fill="none" xmlns="http://www.w3.org/2000/svg">
<path d="M0.942535 77.5638V74.6636H5.95403V87.9583H2.73564V77.5406H0.942535V77.5638ZM14.2759 81.1369C14.2759 79.0487 14.6667 77.4014 15.4713 76.1949C16.2759 74.9884 17.5632 74.3852 19.3563 74.3852C21.1494 74.3852 22.4368 74.9884 23.2184 76.1949C24.023 77.4014 24.4368 79.0487 24.4368 81.1369C24.4368 83.2483 24.023 84.9188 23.2184 86.1021C22.4138 87.3086 21.1264 87.9118 19.3563 87.9118C17.5632 87.9118 16.2759 87.3086 15.4713 86.1021C14.6897 84.8956 14.2759 83.2483 14.2759 81.1369ZM21.4023 81.1369C21.4023 79.9072 21.2644 78.9791 21.0115 78.3063C20.7356 77.6334 20.2069 77.3086 19.3793 77.3086C18.5517 77.3086 18 77.6334 17.7471 78.3063C17.4713 78.9559 17.3563 79.9072 17.3563 81.1369C17.3563 81.9722 17.4023 82.645 17.4943 83.2019C17.5862 83.7355 17.7931 84.1763 18.069 84.5244C18.3678 84.8492 18.8046 85.0116 19.3793 85.0116C19.954 85.0116 20.3908 84.8492 20.6897 84.5244C20.9885 84.1763 21.1954 83.7355 21.2874 83.2019C21.3563 82.645 21.4023 81.949 21.4023 81.1369ZM32.1839 85.4756C32.5977 85.1508 32.7816 84.9884 32.7356 85.0116C33.9081 84.0371 34.8506 83.2251 35.5172 82.5986C36.2069 81.9722 36.7816 81.2993 37.2414 80.6033C37.7012 79.9072 37.954 79.2344 37.954 78.5847C37.954 78.0975 37.8391 77.703 37.6092 77.4246C37.3793 77.1462 37.0345 77.007 36.5747 77.007C36.1149 77.007 35.7471 77.1926 35.4943 77.5406C35.2414 77.8886 35.1035 78.3759 35.1035 79.0023H32.1149C32.1379 77.9582 32.3448 77.0998 32.7586 76.4037C33.1724 75.7077 33.7241 75.1972 34.3908 74.8724C35.0805 74.5476 35.8391 74.3852 36.6667 74.3852C38.092 74.3852 39.1724 74.7564 39.9081 75.4988C40.6437 76.2413 41.0115 77.2158 41.0115 78.3991C41.0115 79.6984 40.5747 80.9049 39.7012 82.0186C38.8276 83.1323 37.7012 84.1995 36.3448 85.2668H41.2184V87.7958H32.1839V85.4756ZM48.092 85.5917V83.0859L53.7931 74.8492H57.2414V82.9002H58.7126V85.5917H57.2414V87.9583H54.1609V85.5917H48.092ZM54.3908 78.2599L51.3563 82.9002H54.3908V78.2599Z" fill="white"/>
<path d="M6.98846 96.4965C7.37926 96.5893 7.7011 96.7749 7.908 97.0766C8.13789 97.355 8.25283 97.703 8.25283 98.0743C8.25283 98.6543 8.06892 99.1183 7.67812 99.42C7.3103 99.7448 6.75857 99.884 6.04593 99.884H2.59766V93.2251H5.95398C6.62064 93.2251 7.14938 93.3643 7.54018 93.6659C7.93099 93.9675 8.1149 94.3852 8.1149 94.9652C8.1149 95.3596 8.02294 95.6845 7.81605 95.9629C7.60915 96.2181 7.33329 96.4037 6.98846 96.4965ZM4.64363 95.8469H5.44823C5.63214 95.8469 5.77007 95.8005 5.86202 95.7309C5.95398 95.6613 5.99995 95.5453 5.99995 95.3828C5.99995 95.2204 5.95398 95.1044 5.86202 95.0348C5.77007 94.942 5.63214 94.9188 5.44823 94.9188H4.64363V95.8469ZM5.58616 98.2367C5.77007 98.2367 5.908 98.2135 5.99995 98.1439C6.09191 98.0743 6.13789 97.9582 6.13789 97.7958C6.13789 97.471 5.95398 97.3086 5.58616 97.3086H4.64363V98.2599H5.58616V98.2367ZM22.0919 93.2483L19.7241 97.8886V99.9072H17.6551V97.8886L15.2873 93.2483H17.6551L18.7126 95.6149L19.7701 93.2483H22.0919ZM34.5287 93.2483V94.8956H32.7816V99.9072H30.7126V94.8956H28.9885V93.2483H34.5287ZM43.954 94.9188V95.7309H45.9999V97.3086H43.954V98.2599H46.2758V99.9304H41.885V93.2715H46.2758V94.942H43.954V94.9188ZM56.4367 99.9768C55.6551 99.9768 54.9884 99.7912 54.4827 99.42C53.977 99.0487 53.7011 98.4919 53.6551 97.7726H55.862C55.885 98.1439 56.0689 98.3527 56.3678 98.3527C56.4827 98.3527 56.5746 98.3295 56.6436 98.2831C56.7356 98.2367 56.7586 98.1439 56.7586 98.0279C56.7586 97.8654 56.6666 97.7494 56.5057 97.6566C56.3448 97.5638 56.0689 97.4478 55.7241 97.3086C55.3103 97.1694 54.9425 97.007 54.6666 96.8678C54.3907 96.7285 54.1609 96.5197 53.954 96.2413C53.7471 95.9629 53.6551 95.6149 53.6551 95.174C53.6551 94.7332 53.7701 94.3852 53.977 94.0835C54.2068 93.7819 54.5057 93.5499 54.8735 93.3875C55.2643 93.2251 55.7011 93.1555 56.1609 93.1555C56.9655 93.1555 57.6091 93.3411 58.0689 93.7123C58.5517 94.0835 58.8045 94.6172 58.8275 95.29H56.5976C56.5976 95.1044 56.5517 94.9652 56.4597 94.8956C56.3678 94.8028 56.2758 94.7796 56.1379 94.7796C56.0459 94.7796 55.977 94.8028 55.931 94.8724C55.885 94.9188 55.839 95.0116 55.839 95.1276C55.839 95.2668 55.931 95.406 56.0919 95.4988C56.2528 95.5917 56.5287 95.7077 56.8735 95.8469C57.2873 96.0093 57.6321 96.1485 57.908 96.2877C58.1838 96.4269 58.4137 96.6357 58.6206 96.891C58.8275 97.1462 58.9195 97.471 58.9195 97.8654C58.9195 98.2831 58.8275 98.6311 58.6206 98.9559C58.4137 99.2808 58.1379 99.536 57.7471 99.6984C57.4252 99.884 56.9655 99.9768 56.4367 99.9768Z" fill="#E23457"/>
<path d="M4.18391 29.5128H0V33.7355H4.18391V29.5128Z" fill="#E43E50"/>
<path d="M29.977 35.8236C31.1494 35.8236 32.0919 36.7749 32.0919 37.935C32.0919 39.0951 31.1494 40.0464 30 40.0464H29.977C28.8275 40.0464 27.885 39.0951 27.885 37.935C27.885 36.7749 28.8275 35.8236 29.977 35.8236Z" fill="white"/>
<path d="M59.954 29.4896H55.7701V33.7123H59.954V29.4896Z" fill="#E43E50"/>
<path d="M0 33.7123H4.18391V37.935H0.436782L0 33.7123Z" fill="#E43E50" fill-opacity="0.95"/>
<path d="M59.977 33.7123H55.7931V37.935H59.5403L59.977 33.7123Z" fill="#E43E50" fill-opacity="0.95"/>
<path d="M4.18391 25.29H0V29.5128H4.18391V25.29Z" fill="#E43E50" fill-opacity="0.7"/>
<path d="M59.954 25.2668H55.7701V29.4896H59.954V25.2668Z" fill="#E43E50" fill-opacity="0.7"/>
<path d="M4.18391 21.0905H0V25.3132H4.18391V21.0905Z" fill="#E43E50" fill-opacity="0.9"/>
<path d="M59.954 21.0673H55.7701V25.29H59.954V21.0673Z" fill="#E43E50" fill-opacity="0.9"/>
<path d="M4.18391 16.8677H0V21.0905H4.18391V16.8677Z" fill="#E43E50" fill-opacity="0.4"/>
<path d="M59.954 16.8446H55.7701V21.0673H59.954V16.8446Z" fill="#E43E50" fill-opacity="0.4"/>
<path d="M8.36786 25.29H4.18396V29.5128H8.36786V25.29Z" fill="#E43E50"/>
<path d="M55.7701 25.2668H51.5862V29.4896H55.7701V25.2668Z" fill="#E43E50"/>
<path d="M8.36786 16.8677H4.18396V21.0905H8.36786V16.8677Z" fill="#E43E50" fill-opacity="0.85"/>
<path d="M55.7701 16.8446H51.5862V21.0673H55.7701V16.8446Z" fill="#E43E50" fill-opacity="0.85"/>
<path d="M8.36786 12.645H4.18396V16.8678H8.36786V12.645Z" fill="#E43E50" fill-opacity="0.3"/>
<path d="M55.7701 12.645H51.5862V16.8678H55.7701V12.645Z" fill="#E43E50" fill-opacity="0.3"/>
<path d="M8.36786 21.0905H4.18396V25.3132H8.36786V21.0905Z" fill="#E43E50" fill-opacity="0.5"/>
<path d="M55.7701 21.0673H51.5862V25.29H55.7701V21.0673Z" fill="#E43E50" fill-opacity="0.5"/>
<path d="M12.5747 29.5128H8.39081V33.7355H12.5747V29.5128Z" fill="#E43E50" fill-opacity="0.95"/>
<path d="M51.5862 29.4896H47.4023V33.7123H51.5862V29.4896Z" fill="#E43E50" fill-opacity="0.95"/>
<path d="M12.5747 33.7123H8.39081V37.935H12.5747V33.7123Z" fill="#E43E50"/>
<path d="M51.5862 33.7123H47.4023V37.935H51.5862V33.7123Z" fill="#E43E50"/>
<path d="M12.5747 25.29H8.39081V29.5128H12.5747V25.29Z" fill="#E43E50" fill-opacity="0.8"/>
<path d="M51.5862 25.2668H47.4023V29.4896H51.5862V25.2668Z" fill="#E43E50" fill-opacity="0.8"/>
<path d="M12.5747 21.0905H8.39081V25.3132H12.5747V21.0905Z" fill="#E43E50"/>
<path d="M51.5862 21.0905H47.4023V25.3132H51.5862V21.0905Z" fill="#E43E50"/>
<path d="M16.7586 25.29H12.5747V29.5128H16.7586V25.29Z" fill="#E43E50"/>
<path d="M47.3793 25.2668H43.1954V29.4896H47.3793V25.2668Z" fill="#E43E50"/>
<path d="M12.5747 12.645H8.39081V16.8678H12.5747V12.645Z" fill="#E43E50" fill-opacity="0.8"/>
<path d="M51.5862 12.645H47.4023V16.8678H51.5862V12.645Z" fill="#E43E50" fill-opacity="0.8"/>
<path d="M12.5747 8.44547H8.39081V12.6682H12.5747V8.44547Z" fill="#E43E50" fill-opacity="0.3"/>
<path d="M51.5862 8.42227H47.4023V12.645H51.5862V8.42227Z" fill="#E43E50" fill-opacity="0.3"/>
<path d="M12.5747 16.8677H8.39081V21.0905H12.5747V16.8677Z" fill="#E43E50" fill-opacity="0.4"/>
<path d="M51.5862 16.8446H47.4023V21.0673H51.5862V16.8446Z" fill="#E43E50" fill-opacity="0.4"/>
<path d="M12.5747 4.22272H8.39081V8.44546H12.5747V4.22272Z" fill="#E43E50" fill-opacity="0.1"/>
<path d="M51.5862 4.22272H47.4023V8.44546H51.5862V4.22272Z" fill="#E43E50" fill-opacity="0.1"/>
<path d="M4.18391 12.645H0V16.8678H4.18391V12.645Z" fill="#E43E50" fill-opacity="0.2"/>
<path d="M59.954 12.645H55.7701V16.8678H59.954V12.645Z" fill="#E43E50" fill-opacity="0.2"/>
<path d="M8.36786 8.44547H4.18396V12.6682H8.36786V8.44547Z" fill="#E43E50" fill-opacity="0.15"/>
<path d="M55.7701 8.42227H51.5862V12.645H55.7701V8.42227Z" fill="#E43E50" fill-opacity="0.15"/>
<path d="M16.7586 29.5128H12.5747V33.7355H16.7586V29.5128Z" fill="#E43E50" fill-opacity="0.9"/>
<path d="M47.3793 29.4896H43.1954V33.7123H47.3793V29.4896Z" fill="#E43E50" fill-opacity="0.8"/>
<path d="M16.7586 21.0905H12.5747V25.3132H16.7586V21.0905Z" fill="#E43E50" fill-opacity="0.9"/>
<path d="M47.3793 21.0673H43.1954V25.29H47.3793V21.0673Z" fill="#E43E50" fill-opacity="0.7"/>
<path d="M16.7586 16.8677H12.5747V21.0905H16.7586V16.8677Z" fill="#E43E50"/>
<path opacity="0.9" d="M47.3793 16.8446H43.1954V21.0673H47.3793V16.8446Z" fill="#E43E50"/>
<path d="M16.7586 8.44547H12.5747V12.6682H16.7586V8.44547Z" fill="#E43E50" fill-opacity="0.7"/>
<path d="M47.3793 8.42227H43.1954V12.645H47.3793V8.42227Z" fill="#E43E50" fill-opacity="0.7"/>
<path d="M16.7586 4.22272H12.5747V8.44546H16.7586V4.22272Z" fill="#E43E50" fill-opacity="0.3"/>
<path d="M47.3793 4.22272H43.1954V8.44546H47.3793V4.22272Z" fill="#E43E50" fill-opacity="0.3"/>
<path d="M8.36786 33.7123H4.18396V37.935H8.36786V33.7123Z" fill="#E43E50" fill-opacity="0.9"/>
<path d="M55.7701 33.7123H51.5862V37.935H55.7701V33.7123Z" fill="#E43E50" fill-opacity="0.9"/>
<path d="M8.36786 29.5128H4.18396V33.7355H8.36786V29.5128Z" fill="#E43E50" fill-opacity="0.85"/>
<path d="M55.7701 29.4896H51.5862V33.7123H55.7701V29.4896Z" fill="#E43E50" fill-opacity="0.9"/>
<path d="M16.7586 33.7123H12.5747V37.935H16.7586V33.7123Z" fill="#E43E50" fill-opacity="0.9"/>
<path d="M47.3793 33.7123H43.1954V37.935H47.3793V33.7123Z" fill="#E43E50" fill-opacity="0.9"/>
<path d="M16.7586 12.645H12.5747V16.8678H16.7586V12.645Z" fill="#E43E50" fill-opacity="0.3"/>
<path d="M47.3793 12.645H43.1954V16.8678H47.3793V12.645Z" fill="#E43E50" fill-opacity="0.3"/>
<path d="M16.7586 0.0232239H12.5747V4.24596H16.7586V0.0232239Z" fill="#E43E50" fill-opacity="0.05"/>
<path d="M47.3793 0H43.1954V4.22274H47.3793V0Z" fill="#E43E50" fill-opacity="0.05"/>
<path fill-rule="evenodd" clip-rule="evenodd" d="M16.7586 59.8144C8.32183 55.638 2.11493 47.5638 0.436768 37.9118H16.7586V39.2575C16.7586 41.4153 18.5057 43.1786 20.6437 43.1786H39.3103C41.4483 43.1786 43.1954 41.4153 43.1954 39.2575V37.9118H59.5172C57.8391 47.5638 51.6322 55.6148 43.1954 59.8144V65.058C43.1954 67.2157 41.4483 68.9791 39.3103 68.9791H20.6437C18.5057 68.9791 16.7586 67.2157 16.7586 65.058V59.8144Z" fill="url(#paint0_linear)"/>
<defs>
<linearGradient id="paint0_linear" x1="29.9823" y1="44.2051" x2="29.9823" y2="68.9819" gradientUnits="userSpaceOnUse">
<stop stop-color="#E43E50"/>
<stop offset="0.3177" stop-color="#E43E50" stop-opacity="0.74"/>
<stop offset="1" stop-color="#ED355A" stop-opacity="0"/>
</linearGradient>
</defs>
</svg>
