<svg width="30" height="20" viewBox="0 0 30 20" fill="none" xmlns="http://www.w3.org/2000/svg">
<path d="M19.048 2.3999H10.3177V17.1999H19.048V2.3999Z" fill="#FF5F00"/>
<path d="M11.5198 9.7986C11.5187 8.37527 11.8386 6.97034 12.4553 5.69012C13.0721 4.4099 13.9695 3.28794 15.0797 2.40916C13.7047 1.31934 12.0534 0.641641 10.3146 0.453527C8.57575 0.265412 6.81952 0.574467 5.24661 1.34537C3.6737 2.11627 2.34758 3.31792 1.41979 4.81298C0.492008 6.30803 0 8.03618 0 9.7999C0 11.5636 0.492008 13.2918 1.41979 14.7868C2.34758 16.2819 3.6737 17.4835 5.24661 18.2544C6.81952 19.0253 8.57575 19.3344 10.3146 19.1463C12.0534 18.9582 13.7047 18.2805 15.0797 17.1906C13.9692 16.3116 13.0715 15.1892 12.4548 13.9085C11.838 12.6278 11.5183 11.2224 11.5198 9.7986Z" fill="#EB001B"/>
<path d="M29.7626 9.80121C29.7625 11.5649 29.2834 13.2929 28.38 14.7878C27.4765 16.2828 26.1852 17.4843 24.6536 18.255C23.1221 19.0257 21.412 19.3345 19.719 19.1461C18.026 18.9578 16.4183 18.2798 15.0797 17.1898C16.1601 16.3103 17.0336 15.1882 17.6342 13.908C18.2349 12.6279 18.547 11.2232 18.547 9.7999C18.547 8.3766 18.2349 6.97189 17.6342 5.69175C17.0336 4.41161 16.1601 3.28948 15.0797 2.41001C16.4183 1.31998 18.026 0.64203 19.719 0.453667C21.412 0.265304 23.1221 0.574125 24.6536 1.34483C26.1852 2.11553 27.4765 3.31702 28.38 4.81195C29.2834 6.30689 29.7625 8.03494 29.7626 9.7986V9.80121Z" fill="#F79E1B"/>
</svg>
