<svg width="61" height="61" fill="none" xmlns="http://www.w3.org/2000/svg"><path fill-rule="evenodd" clip-rule="evenodd" d="M30.272 59.036c15.638 0 28.315-12.677 28.315-28.315 0-15.637-12.677-28.314-28.315-28.314-15.637 0-28.314 12.677-28.314 28.314 0 15.638 12.677 28.315 28.314 28.315zm.001-15.417c7.123 0 12.898-5.775 12.898-12.898 0-7.123-5.775-12.897-12.898-12.897-7.123 0-12.898 5.774-12.898 12.897S23.15 43.62 30.273 43.62z" fill="#EFEFEF"/><path d="M57.587 30.721c0 15.086-12.23 27.315-27.315 27.315v2c16.19 0 29.315-13.125 29.315-29.315h-2zM30.271 3.407c15.086 0 27.315 12.23 27.315 27.314h2c0-16.19-13.125-29.314-29.315-29.314v2zM2.958 30.721c0-15.085 12.229-27.314 27.314-27.314v-2C14.082 1.407.958 14.532.958 30.721h2zm27.314 27.315c-15.085 0-27.314-12.23-27.314-27.315h-2c0 16.19 13.124 29.315 29.314 29.315v-2zM42.171 30.72c0 6.571-5.327 11.898-11.898 11.898v2c7.675 0 13.898-6.222 13.898-13.898h-2zM30.273 18.824c6.57 0 11.898 5.326 11.898 11.897h2c0-7.675-6.223-13.897-13.898-13.897v2zM18.375 30.72c0-6.57 5.327-11.897 11.898-11.897v-2c-7.675 0-13.898 6.222-13.898 13.897h2zm11.898 11.9c-6.57 0-11.898-5.327-11.898-11.898h-2c0 7.676 6.223 13.898 13.898 13.898v-2z" fill="#fff"/><path fill-rule="evenodd" clip-rule="evenodd" d="M30.264 43.62c-7.124 0-12.898-5.775-12.898-12.898H1.953c0 15.637 12.675 28.313 28.31 28.315V43.619z" fill="#082C46"/><path d="M30.264 43.62h1v-1h-1v1zM17.366 30.721h1v-1h-1v1zm-15.413 0v-1h-1v1h1zm28.31 28.315v1h1v-1h-1zm0-16.418v2-2zm0 0c-6.57 0-11.897-5.326-11.897-11.897h-2c0 7.675 6.222 13.897 13.897 13.897v-2zM1.953 31.722h15.413v-2H1.953v2zm1-1h-2 2zm27.31 27.315c-15.083-.002-27.31-12.23-27.31-27.314h-2c0 16.188 13.122 29.312 29.31 29.314v-2zm-1-14.418v15.418h2V43.619h-2z" fill="#fff"/><path fill-rule="evenodd" clip-rule="evenodd" d="M43.166 30.722h15.416c0-15.638-12.676-28.315-28.314-28.315h-.002v15.417h.002c7.123 0 12.898 5.774 12.898 12.897z" fill="#082C46"/><path d="M58.582 30.722v1h1v-1h-1zm-15.416 0h-1v1h1v-1zm-12.9-28.315v-1h-1v1h1zm0 15.417h-1v1h1v-1zm28.316 11.898H43.166v2h15.416v-2zm-1 1h2-2zM30.268 3.406c15.085 0 27.314 12.23 27.314 27.314h2c0-16.19-13.124-29.314-29.314-29.314v2zm-.002 0h.002v-2h-.002v2zm1 14.417V2.407h-2v15.417h2zm-1 1h.002v-2h-.002v2zm.002 0c6.571 0 11.898 5.326 11.898 11.897h2c0-7.675-6.222-13.897-13.898-13.897v2zM42.166 30.72h2-2z" fill="#fff"/><path fill-rule="evenodd" clip-rule="evenodd" d="M30.27 43.62c7.124 0 12.898-5.775 12.898-12.898h15.413c0 15.637-12.675 28.313-28.31 28.315V43.62z" fill="#FFE259"/><path d="M30.27 43.62h-1v-1h1v1zm12.898-12.898h-1v-1h1v1zm15.413 0v-1h1v1h-1zm-28.31 28.315v1h-1v-1h1zm0-16.417v2-2zm0 0c6.57 0 11.897-5.327 11.897-11.898h2c0 7.676-6.222 13.898-13.897 13.898v-2zm28.31-10.898H43.168v-2h15.413v2zm-1-1h2-2zm-27.31 27.315c15.083-.002 27.31-12.23 27.31-27.314h2c0 16.188-13.122 29.312-29.31 29.314v-2zm1-14.417v15.417h-2V43.62h2z" fill="#fff"/><path fill-rule="evenodd" clip-rule="evenodd" d="M17.372 30.722H1.956c0-15.638 12.677-28.315 28.314-28.315h.003v15.417h-.003c-7.123 0-12.898 5.774-12.898 12.897z" fill="#FFE259"/><path d="M1.956 30.722v1h-1v-1h1zm15.416 0h1v1h-1v-1zm12.9-28.315v-1h1v1h-1zm0 15.417h1v1h-1v-1zM1.957 29.722h15.416v2H1.956v-2zm1 1h-2 2zM30.27 3.406c-15.085 0-27.314 12.23-27.314 27.314h-2C.956 14.53 14.08 1.406 30.27 1.406v2zm.003 0h-.003v-2h.003v2zm-1 14.417V2.407h2v15.417h-2zm1 1h-.003v-2h.002v2zm-.003 0c-6.57 0-11.898 5.326-11.898 11.897h-2c0-7.675 6.223-13.897 13.898-13.897v2zM18.372 30.72h-2 2z" fill="#fff"/></svg>