<svg width="61" height="62" fill="none" xmlns="http://www.w3.org/2000/svg"><path d="M4.155 1.481h42.797v55.05H12.155a8 8 0 01-8-8V1.48z" fill="#FFE259"/><path d="M4.155 1.481v-1h-1v1h1zm42.797 0h1v-1h-1v1zm0 55.05v1h1v-1h-1zM4.155 2.48h42.797v-2H4.155v2zm41.797-1v55.05h2V1.48h-2zm1 54.05H12.155v2h34.797v-2zm-41.797-7V1.48h-2v47.05h2zm7 7a7 7 0 01-7-7h-2a9 9 0 009 9v-2z" fill="#fff"/><path d="M10.627 56.53a8 8 0 008-8v-7.745h37.761v7.746a8 8 0 01-8 8H7.92h2.707z" fill="#082C46"/><path d="M56.388 40.785h1v-1h-1v1zm-37.761 0v-1h-1v1h1zm36.76 0v7.746h2v-7.746h-2zm-7 14.746H7.92v2h40.468v-2zm-40.467 2h2.707v-2H7.92v2zm27.054-15.746h21.414v-2H34.974v2zm-15.347 6.746v-7.746h-2v7.746h2zm-1-6.746h16.347v-2H18.627v2zm36.76 6.746a7 7 0 01-7 7v2a9 9 0 009-9h-2zm-44.76 9a9 9 0 009-9h-2a7 7 0 01-7 7v2z" fill="#fff"/><path fill="#082C46" d="M12.101 12.319h27.414v2.242H12.101zm0 10.989h27.414v2.242H12.101z"/></svg>