<svg width="483" height="271" fill="none" xmlns="http://www.w3.org/2000/svg"><path d="M85.778 59.414a8.125 8.125 0 018.125-8.125H358.96a8.124 8.124 0 018.125 8.125v210.1H85.778v-210.1z" fill="#E2F6FF" stroke="#000" stroke-width="1.75"/><circle cx="101.207" cy="62.323" r="3.78" fill="#000"/><circle cx="114.888" cy="62.323" r="3.78" fill="#000"/><circle cx="128.573" cy="62.323" r="3.78" fill="#000"/><path fill="#E2F6FF" stroke="#000" stroke-width="2" d="M105.987 89.751h186.481v15.46H105.987z"/><path stroke="#000" d="M105.487 234.587h119.271v-6.574H105.487z"/><path fill="#000" stroke="#000" d="M105.487 244.068h74.275v-2.034h-74.275zm8.44-145.593h74.275v-2.034h-74.275z"/><path fill="#FFE259" stroke="#000" d="M295.39 161.627h53.402v-38.304H295.39zm0 63.301h53.402v-38.304H295.39zM105.487 145.64h159.978v-22.317H105.487z"/><path fill="#000" stroke="#000" d="M105.487 156.501h74.275v-2.034h-74.275zm8.44-25.32h74.275v-2.034h-74.275zm0 8.44h74.275v-2.034h-74.275z"/><path fill="#FFE259" stroke="#000" d="M105.487 198.391h159.978v-22.317H105.487z"/><path fill="#000" stroke="#000" d="M105.487 209.252h74.275v-2.034h-74.275zm8.44-25.32h74.275v-2.034h-74.275zm0 8.44h74.275v-2.034h-74.275zm181.463-18.991h30.566v-2.034H295.39zm0 63.302h30.566v-2.034H295.39zm8.174-20.816h26.356v-1.626h-26.356zm0-9.278h26.356v-1.626h-26.356zm0-9.277h26.356v-1.626h-26.356zm0-44.746h26.356v-1.626h-26.356zm0-9.278h26.356v-1.626h-26.356zm0-9.277h26.356v-1.626h-26.356z"/><mask id="a" maskUnits="userSpaceOnUse" x="290" y="51" width="77" height="84"><path fill="#C4C4C4" d="M290.506 51.754h76.47v82.728h-76.47z"/></mask><g mask="url(#a)"><path fill-rule="evenodd" clip-rule="evenodd" d="M423.205 64.556c0 23.836-10.6 43.159-23.675 43.159-3.915 0-7.608-1.733-10.861-4.8-7.545-4.051-19.746-10.292-29.235-13.66-9.208-3.267-22.365-6.137-30.031-7.673l5.238 22.008s-4.848 4.075-8.597 5.307c-3.269 1.073-8.755.987-8.755.987l-5.127-29.489h-7.624s-6.099-9.614-5.93-16.436c.159-6.385 5.93-15.242 5.93-15.242H323.2s22.566-3.121 36.234-7.913c9.272-3.25 20.939-9.545 28.49-13.874 3.429-3.523 7.389-5.533 11.606-5.533 13.075 0 23.675 19.323 23.675 43.159z" fill="#000"/></g><mask id="b" fill="#fff"><path fill-rule="evenodd" clip-rule="evenodd" d="M318.326 73.007h-7.624s-6.099-9.615-5.93-16.436c.159-6.385 5.93-15.243 5.93-15.243h18.662s22.566-3.12 36.234-7.913c14.987-5.254 36.235-18.462 36.235-18.462v84.43s-21.423-12.259-36.235-17.516c-9.207-3.267-22.364-6.138-30.03-7.674l5.238 22.01s-4.131 3.674-8.105 5.499c-3.973 1.826-9.247.794-9.247.794l-5.128-29.489z"/></mask><path fill-rule="evenodd" clip-rule="evenodd" d="M318.326 73.007h-7.624s-6.099-9.615-5.93-16.436c.159-6.385 5.93-15.243 5.93-15.243h18.662s22.566-3.12 36.234-7.913c14.987-5.254 36.235-18.462 36.235-18.462v84.43s-21.423-12.259-36.235-17.516c-9.207-3.267-22.364-6.138-30.03-7.674l5.238 22.01s-4.131 3.674-8.105 5.499c-3.973 1.826-9.247.794-9.247.794l-5.128-29.489z" fill="#0089C4"/><path d="M310.702 73.007l-.844.536.294.464h.55v-1zm7.624 0l.986-.171-.145-.829h-.841v1zm-13.554-16.436l-.999-.025.999.025zm5.93-15.243v-1h-.542l-.296.454.838.546zm18.662 0v1h.069l.068-.01-.137-.99zm36.234-7.913l.331.944-.331-.944zm36.235-18.462h1v-1.8l-1.528.95.528.85zm0 84.43l-.497.867 1.497.857v-1.725h-1zm-36.235-17.516l-.334.943.334-.943zm-30.03-7.674l.197-.98-1.531-.307.361 1.519.973-.232zm5.238 22.01l.665.746.446-.397-.138-.581-.973.231zm-8.105 5.499l-.417-.908.417.908zm-9.247.794l-.985.171.118.678.675.132.192-.981zm-12.752-28.489h7.624v-2h-7.624v2zm-6.929-17.461c-.091 3.657 1.481 7.946 2.993 11.22a57.716 57.716 0 002.818 5.33c.085.142.153.252.2.328l.053.086.015.023.004.007.001.002h.001l.844-.535.845-.535-.001-.001-.002-.004a55.576 55.576 0 01-2.962-5.539c-1.495-3.238-2.888-7.167-2.81-10.332l-1.999-.05zm6.929-15.218l-.838-.545-.001.002-.004.006-.014.021a47.747 47.747 0 00-.91 1.495 56.955 56.955 0 00-2.038 3.811c-1.471 3.03-3.039 7.006-3.124 10.428l1.999.05c.074-2.964 1.47-6.61 2.924-9.604a55.313 55.313 0 012.607-4.743c.077-.124.137-.22.178-.283l.045-.07.011-.018a.013.013 0 01.003-.003v-.001l-.838-.546zm18.662-1h-18.662v2h18.662v-2zm35.904-7.856c-6.759 2.37-15.756 4.336-23.097 5.714a326.966 326.966 0 01-11.956 2.01l-.735.106-.189.027-.048.006-.012.002h-.003l.136.991.138.99h.004c.003 0 .007 0 .013-.002l.05-.007.193-.027a270.507 270.507 0 003.498-.529c2.336-.368 5.594-.91 9.28-1.601 7.359-1.381 16.48-3.37 23.389-5.793l-.661-1.887zm36.565-17.52l-.529-.849-.003.002-.011.007-.045.028a127.787 127.787 0 01-.875.536 327.828 327.828 0 01-11.517 6.662c-7.176 3.954-16.175 8.536-23.585 11.134l.661 1.887c7.576-2.656 16.695-7.306 23.889-11.27a329.86 329.86 0 008.971-5.13 276.702 276.702 0 003.508-2.118l.047-.029a.22.22 0 01.015-.01h.001l-.527-.85zm1 84.43v-84.43h-2v84.43h2zM365.264 82.81c7.339 2.604 16.347 6.957 23.547 10.675a396.154 396.154 0 0111.582 6.232l.702.396.181.103.045.026a.156.156 0 00.011.006l.003.002h.001l.497-.868.496-.868h-.001a1.47 1.47 0 01-.062-.036l-.184-.104a334.145 334.145 0 00-3.346-1.865 398.882 398.882 0 00-9.007-4.801c-7.215-3.726-16.323-8.13-23.796-10.783l-.669 1.885zm-29.892-7.636c7.666 1.536 20.759 4.394 29.892 7.636l.669-1.885c-9.283-3.294-22.503-6.176-30.168-7.712l-.393 1.961zm6.407 20.797l-5.238-22.01-1.946.464 5.238 22.009 1.946-.463zm-8.66 6.64c2.082-.956 4.174-2.38 5.725-3.543a49.343 49.343 0 002.43-1.947l.144-.125.038-.033.01-.01a.014.014 0 01.003-.002l.001-.001-.664-.748a93.032 93.032 0 01-.664-.747h-.001l-.001.002c-.002 0-.004.003-.008.006a1.47 1.47 0 00-.032.029l-.132.114a44.134 44.134 0 01-2.324 1.862c-1.508 1.13-3.469 2.457-5.36 3.326l.835 1.817zm-9.665-.115l-.192.982h.003l.004.001a22.584 22.584 0 003.302.305c1.879.03 4.364-.17 6.548-1.173l-.835-1.817c-1.789.822-3.928 1.019-5.68.99a20.49 20.49 0 01-2.756-.234l-.157-.027-.037-.007-.008-.001-.001-.001v.001l-.191.981zm-6.113-29.318l5.128 29.489 1.97-.342-5.127-29.49-1.971.343z" fill="#000" mask="url(#b)"/><path d="M428.868 57.168c0 11.85-2.635 22.554-6.872 30.277-4.247 7.742-10.032 12.382-16.302 12.382-6.271 0-12.056-4.64-16.303-12.382-4.236-7.723-6.872-18.427-6.872-30.277 0-11.85 2.636-22.554 6.872-30.278 4.247-7.741 10.032-12.381 16.303-12.381 6.27 0 12.055 4.64 16.302 12.381 4.237 7.724 6.872 18.427 6.872 30.278z" fill="#006591" stroke="#000"/><mask id="c" fill="#fff"><path fill-rule="evenodd" clip-rule="evenodd" d="M384.621 76.854c-1.663-5.903-2.601-12.595-2.601-19.686 0-7.092.938-13.784 2.6-19.686 9.006 1.356 15.935 9.653 15.935 19.686s-6.929 18.33-15.934 19.686z"/></mask><path fill-rule="evenodd" clip-rule="evenodd" d="M384.621 76.854c-1.663-5.903-2.601-12.595-2.601-19.686 0-7.092.938-13.784 2.6-19.686 9.006 1.356 15.935 9.653 15.935 19.686s-6.929 18.33-15.934 19.686z" fill="#FFE259"/><path d="M384.621 76.854l-.963.27.239.85.872-.131-.148-.99zm-.001-39.372l.149-.989-.872-.131-.239.849.962.27zm.963 39.1c-1.636-5.809-2.563-12.41-2.563-19.414h-2c0 7.178.949 13.961 2.638 19.957l1.925-.542zm-2.563-19.414c0-7.005.927-13.606 2.563-19.415l-1.925-.542c-1.689 5.995-2.638 12.779-2.638 19.957h2zm1.451-18.697c8.473 1.276 15.084 9.113 15.084 18.697h2c0-10.482-7.247-19.238-16.786-20.675l-.298 1.978zm15.084 18.697c0 9.583-6.611 17.42-15.083 18.697l.297 1.978c9.539-1.437 16.786-10.193 16.786-20.675h-2z" fill="#000" mask="url(#c)"/><path fill="#000" d="M440.222 128.646l-2.484 1.837-14.686-19.861 2.484-1.837zm38.804-45.19l-1.045 2.907-32.449-11.666 1.046-2.907zm-17.259-38.873l.513 3.046-16.556 2.786-.512-3.047zm-13.214 54.305l-1.745 2.549-8.662-5.927 1.744-2.55zM438.174 3.059l2.048 2.312-7.856 6.96-2.049-2.312zm3.166 24.475l-1.564-2.664L481.302.483l1.564 2.664z"/><path fill="#fff" stroke="#000" d="M.644 97.152h62.881v34.029H.644z"/><path d="M30.413 131.681v9.559h74.574m-37.826 55.031v-11.137h37.827m277.676 52.049v-26.384h-33.618m68.579-42.123v-26.384h-68.579" stroke="#000" stroke-width="2"/><path fill="#fff" stroke="#000" d="M34.472 196.771h62.455V230.8H34.472z"/><path d="M49.243 207.287h-3.33v3.726H44.58v-3.726h-3.33v-1.224h3.33v-3.6h1.332v3.6h3.33v1.224zm-32.608-97.8h-3.33v3.726h-1.332v-3.726h-3.33v-1.224h3.33v-3.6h1.332v3.6h3.33v1.224z" fill="#000"/><path d="M52.525 216.804c-3.717 2.175-11.368 6.69-12.238 7.343v1.762h53.03v-22.703l-10.605 4.351-5.677 11.785-9.72-6.621-7.794 6.057-6.996-1.974z" fill="#0089C4" stroke="#000"/><path d="M18.07 118.902c-3.716 2.176-11.367 6.69-12.237 7.343h52.503v-24.157l-10.279 3.216-8.03 7.194h-8.625l-7.436 6.404h-5.895z" fill="#E2F6FF" stroke="#000"/><path fill="#000" stroke="#000" d="M354.671 225.623h12.79v34.029h-12.79z"/><path fill="#fff" stroke="#000" d="M360.097 229.484h62.455v34.029h-62.455zm27.849-72.057h62.455v34.029h-62.455z"/><path d="M374.868 240h-3.33v3.726h-1.332V240h-3.33v-1.224h3.33v-3.6h1.332v3.6h3.33V240zm27.849-72.058h-3.33v3.726h-1.332v-3.726h-3.33v-1.224h3.33v-3.6h1.332v3.6h3.33v1.224z" fill="#000"/><path d="M376.546 254.792c-3.717 2.176-10.866 1.162-11.736 1.815v.867h53.031v-21.808l-10.607 4.351h-7.129l-8.267 5.164-8.561 1.919-6.731 7.692z" fill="#E2F6FF" stroke="#000"/><path d="M405.424 178.815c-3.717 2.176-10.055 6.69-10.926 7.343h50.976v-23.432l-9.503 4.006-8.126 4.192-7.346 5.739-7.125-1.931-7.95 4.083z" fill="#0089C4" stroke="#000"/></svg>