<svg width="435" height="439" fill="none" xmlns="http://www.w3.org/2000/svg"><path clip-rule="evenodd" d="M99.633-285.562c10.099-15.202 30.597-19.321 45.783-9.198l213.279 142.158c15.187 10.123 19.311 30.652 9.212 45.855L44.995 379.363c-10.1 15.202-30.597 19.32-45.783 9.198l-213.279-142.158c-15.187-10.123-19.311-30.653-9.213-45.855l322.913-486.11z" stroke="#FFB218"/><path clip-rule="evenodd" d="M99.562-314.808c10.099-15.203 30.596-19.321 45.783-9.198l213.279 142.158c15.186 10.122 19.311 30.652 9.212 45.855L44.923 350.117c-10.098 15.202-30.596 19.32-45.783 9.198l-213.278-142.158c-15.187-10.123-19.312-30.653-9.213-45.855l322.913-486.11z" stroke="#FFB218"/><path clip-rule="evenodd" d="M99.491-344.053c10.099-15.202 30.597-19.32 45.783-9.198l213.279 142.158c15.186 10.123 19.311 30.653 9.212 45.855L44.852 320.872C34.754 336.074 14.256 340.193-.93 330.07l-213.278-142.158c-15.187-10.122-19.311-30.652-9.213-45.855l322.913-486.11z" stroke="#FFB218"/><path clip-rule="evenodd" d="M99.417-373.299c10.099-15.203 30.596-19.321 45.783-9.198l213.279 142.158c15.186 10.122 19.311 30.652 9.212 45.854L44.778 291.625c-10.098 15.203-30.596 19.321-45.783 9.199l-213.278-142.159c-15.187-10.122-19.312-30.652-9.213-45.854l322.913-486.11z" stroke="#FFB218"/><path clip-rule="evenodd" d="M99.346-402.545c10.099-15.202 30.597-19.32 45.783-9.198l213.279 142.158c15.186 10.123 19.311 30.652 9.212 45.855L44.707 262.38c-10.098 15.202-30.596 19.32-45.783 9.198L-214.354 129.42c-15.187-10.123-19.311-30.652-9.213-45.855l322.913-486.11z" stroke="#FFB218"/><path clip-rule="evenodd" d="M99.275-431.792c10.099-15.202 30.596-19.32 45.783-9.198l213.279 142.159c15.186 10.122 19.311 30.652 9.212 45.854L44.636 233.133c-10.099 15.203-30.596 19.321-45.783 9.198l-213.279-142.158c-15.186-10.122-19.311-30.652-9.212-45.855l322.913-486.11z" stroke="#FFB218"/><path clip-rule="evenodd" d="M99.204-461.037c10.098-15.202 30.596-19.32 45.783-9.198l213.278 142.159c15.187 10.122 19.311 30.652 9.213 45.854L44.565 203.888c-10.099 15.203-30.596 19.321-45.783 9.198L-214.497 70.928c-15.186-10.122-19.311-30.652-9.212-45.855l322.913-486.11z" stroke="#FFB218"/><path clip-rule="evenodd" d="M99.13-490.282c10.098-15.202 30.596-19.32 45.783-9.198l213.279 142.158c15.186 10.123 19.311 30.653 9.212 45.855L44.491 174.643c-10.099 15.202-30.596 19.321-45.783 9.198L-214.57 41.683c-15.186-10.122-19.311-30.652-9.212-45.855L99.13-490.282z" stroke="#FFB218"/><path clip-rule="evenodd" d="M99.058-519.527c10.099-15.203 30.597-19.321 45.784-9.198L358.12-386.567c15.187 10.122 19.311 30.652 9.213 45.854L44.42 145.397c-10.1 15.203-30.597 19.321-45.783 9.199L-214.642 12.437c-15.186-10.122-19.311-30.652-9.212-45.854l322.913-486.11z" stroke="#FFB218"/><path clip-rule="evenodd" d="M98.985-548.772c10.098-15.203 30.596-19.321 45.783-9.199l213.279 142.159c15.186 10.122 19.311 30.652 9.212 45.854L44.346 116.152c-10.099 15.203-30.596 19.321-45.783 9.198L-214.716-16.808c-15.186-10.122-19.311-30.652-9.212-45.855L98.985-548.771z" stroke="#FFB218"/><path clip-rule="evenodd" d="M98.913-578.018c10.099-15.202 30.597-19.321 45.783-9.198l213.279 142.158c15.187 10.122 19.311 30.652 9.213 45.855L44.275 86.907c-10.099 15.202-30.597 19.32-45.783 9.198L-214.787-46.053c-15.186-10.123-19.311-30.653-9.212-45.855l322.913-486.11z" stroke="#FFB218"/><path fill-rule="evenodd" clip-rule="evenodd" d="M98.842-607.263c10.099-15.203 30.597-19.321 45.783-9.198l213.279 142.158c15.187 10.122 19.311 30.652 9.212 45.855L44.204 57.662c-10.1 15.202-30.597 19.32-45.783 9.198L-214.858-75.3c-15.187-10.122-19.311-30.652-9.213-45.854l322.913-486.11z" fill="#001C30" stroke="#FFB218"/></svg>