<svg width="726" height="1029" fill="none" xmlns="http://www.w3.org/2000/svg"><path clip-rule="evenodd" d="M390.634 304.438c10.098-15.202 30.596-19.321 45.783-9.198l213.278 142.158c15.187 10.123 19.312 30.652 9.213 45.855l-322.913 486.11c-10.099 15.202-30.596 19.32-45.783 9.198L76.933 836.403c-15.186-10.123-19.31-30.653-9.212-45.855l322.913-486.11z" stroke="#697DFF"/><path clip-rule="evenodd" d="M390.562 275.192c10.099-15.203 30.597-19.321 45.783-9.198l213.279 142.158c15.187 10.122 19.311 30.652 9.213 45.855l-322.913 486.11c-10.099 15.202-30.597 19.32-45.783 9.198L76.862 807.157c-15.186-10.123-19.311-30.653-9.212-45.855l322.912-486.11z" stroke="#697DFF"/><path clip-rule="evenodd" d="M390.492 245.947c10.098-15.202 30.596-19.32 45.783-9.198l213.278 142.158c15.187 10.123 19.312 30.653 9.213 45.855l-322.913 486.11c-10.099 15.202-30.596 19.321-45.783 9.198L76.791 777.912c-15.186-10.122-19.31-30.652-9.212-45.855l322.913-486.11z" stroke="#697DFF"/><path clip-rule="evenodd" d="M390.417 216.701c10.099-15.203 30.597-19.321 45.783-9.198l213.279 142.158c15.187 10.122 19.311 30.652 9.213 45.854l-322.913 486.11c-10.099 15.203-30.597 19.321-45.783 9.199L76.717 748.665c-15.187-10.122-19.311-30.652-9.213-45.854l322.913-486.11z" stroke="#697DFF"/><path clip-rule="evenodd" d="M390.347 187.455c10.098-15.202 30.596-19.32 45.783-9.198l213.278 142.158c15.187 10.123 19.311 30.652 9.213 45.855L335.708 852.38c-10.099 15.202-30.596 19.32-45.783 9.198L76.646 719.42c-15.186-10.123-19.31-30.653-9.212-45.855l322.913-486.11z" stroke="#697DFF"/><path clip-rule="evenodd" d="M390.275 158.208c10.099-15.202 30.597-19.32 45.783-9.198l213.279 142.159c15.187 10.122 19.311 30.652 9.213 45.854l-322.913 486.11c-10.099 15.203-30.597 19.321-45.783 9.198L76.574 690.173c-15.186-10.122-19.31-30.652-9.212-45.855l322.913-486.11z" stroke="#697DFF"/><path clip-rule="evenodd" d="M390.204 128.963c10.099-15.202 30.596-19.32 45.783-9.198l213.279 142.159c15.186 10.122 19.311 30.652 9.212 45.854l-322.913 486.11c-10.098 15.203-30.596 19.321-45.783 9.198L76.504 660.928c-15.187-10.122-19.312-30.652-9.213-45.855l322.913-486.11z" stroke="#697DFF"/><path clip-rule="evenodd" d="M390.13 99.718c10.099-15.202 30.597-19.32 45.783-9.198l213.279 142.158c15.187 10.123 19.311 30.653 9.213 45.855l-322.913 486.11c-10.099 15.202-30.597 19.321-45.783 9.198L76.429 631.683c-15.186-10.122-19.31-30.652-9.212-45.855L390.13 99.718z" stroke="#697DFF"/><path clip-rule="evenodd" d="M390.059 70.473c10.099-15.203 30.596-19.32 45.783-9.198l213.279 142.158c15.186 10.122 19.311 30.652 9.212 45.854L335.42 735.397c-10.098 15.203-30.596 19.321-45.783 9.199L76.359 602.437c-15.187-10.122-19.311-30.652-9.213-45.854L390.06 70.473z" stroke="#697DFF"/><path clip-rule="evenodd" d="M389.985 41.227c10.099-15.202 30.597-19.32 45.783-9.197l213.279 142.158c15.187 10.122 19.311 30.652 9.213 45.854l-322.913 486.11c-10.099 15.203-30.597 19.321-45.783 9.198L76.284 573.192c-15.186-10.122-19.31-30.652-9.212-45.854l322.913-486.11z" stroke="#697DFF"/><path clip-rule="evenodd" d="M389.914 11.982c10.099-15.202 30.596-19.32 45.783-9.198l213.279 142.158c15.186 10.122 19.311 30.652 9.212 45.855l-322.913 486.11c-10.098 15.202-30.596 19.32-45.783 9.198L76.214 543.947C61.027 533.824 56.902 513.294 67 498.092l322.913-486.11z" stroke="#697DFF"/><path fill-rule="evenodd" clip-rule="evenodd" d="M389.843-17.263c10.098-15.203 30.596-19.32 45.783-9.198l213.278 142.158c15.187 10.122 19.312 30.652 9.213 45.855l-322.913 486.11c-10.099 15.202-30.596 19.32-45.783 9.198L76.142 514.701c-15.186-10.122-19.31-30.652-9.212-45.854l322.913-486.11z" fill="#001C30" stroke="#697DFF"/></svg>