<svg width="86" height="86" fill="none" xmlns="http://www.w3.org/2000/svg"><path d="M29.294 15.8a3.5 3.5 0 013.5-3.5h36.649a3.5 3.5 0 013.5 3.5v39.233H29.294V15.8z" fill="#082C46" stroke="#0089C4"/><path d="M23.157 21.588a3.5 3.5 0 013.5-3.5h36.648a3.5 3.5 0 013.5 3.5v39.233H23.157V21.588z" fill="#082C46" stroke="#0089C4"/><path d="M17.596 27.822a3.5 3.5 0 013.5-3.5h36.648a3.5 3.5 0 013.5 3.5v39.233H17.596V27.822z" fill="#082C46" stroke="#0089C4"/><circle cx="24.516" cy="30.371" fill="#0089C4" r="1.859"/><circle cx="30.655" cy="30.371" fill="#0089C4" r="1.859"/><circle cx="36.794" cy="30.371" fill="#0089C4" r="1.859"/><mask id="a" fill="#fff"><path fill-rule="evenodd" clip-rule="evenodd" d="M43.633 43.835L41.4 41.704l-.619-.59L14.393 52.66 10.21 67.385l4.025 3.84 3.265 3.117 1.456 1.389 14.762-4.63 9.915-27.266z"/></mask><path fill-rule="evenodd" clip-rule="evenodd" d="M43.633 43.835L41.4 41.704l-.619-.59L14.393 52.66 10.21 67.385l4.025 3.84 3.265 3.117 1.456 1.389 14.762-4.63 9.915-27.266z" fill="#082C46"/><path d="M41.4 41.704l.69-.723-.723-.69-.69.723.723.69zm2.233 2.131l.94.342.223-.614-.473-.451-.69.723zm-2.233-2.13l-.69.723.722.69.69-.723-.722-.69zm-.619-.59l.69-.724-.48-.46-.61.267.4.916zM14.393 52.658l-.4-.916-.433.19-.129.453.962.273zM10.21 67.385l-.962-.274-.165.58.437.417.69-.723zm4.025 3.84l-.69.724.723.69.69-.723-.723-.69zm0 0l.69-.723-.723-.69-.69.723.723.69zm3.265 3.117l-.69.723.723.69.69-.723-.723-.69zm0 0l.69-.724-.723-.69-.69.723.723.69zm1.456 1.389l-.69.723.426.407.563-.176-.3-.954zm14.762-4.63l.299.955.471-.148.17-.465-.94-.342zm6.991-28.674l2.234 2.132 1.38-1.447-2.233-2.131-1.38 1.446zm1.414-.032l-1.447-1.381 1.447 1.38zm-2.032-.557l.618.59 1.38-1.447-.617-.59-1.381 1.447zM14.794 53.575l26.388-11.544-.802-1.833-26.388 11.545.802 1.832zm-3.622 14.083l4.183-14.725-1.924-.547-4.183 14.725 1.924.547zm3.753 2.844l-4.025-3.84-1.38 1.446 4.024 3.841 1.381-1.447zm-1.414.033l1.447 1.381-1.447-1.38zm4.68 3.084l-3.266-3.117-1.38 1.447 3.264 3.116 1.381-1.447zm-1.414.032l1.446 1.381-1.446-1.38zm2.87 1.356l-1.456-1.389-1.381 1.447 1.455 1.39 1.381-1.448zm13.771-4.86l-14.761 4.63.598 1.908 14.762-4.63-.599-1.908zm9.275-26.654L32.778 70.76l1.88.683 9.915-27.266-1.88-.684z" fill="#FFE259" mask="url(#a)"/><path d="M28.186 62.057a3.33 3.33 0 11-4.817-4.597 3.33 3.33 0 014.817 4.597z" fill="#082C46" stroke="#FFE259"/><path fill="#FFE259" stroke="#FFE259" d="M10.698 66.43l9.206 8.786-5.168 5.415-9.205-8.786z"/><path d="M42.05 42.716L28.24 57.311" stroke="#FFE259"/></svg>