<svg width="86" height="86" fill="none" xmlns="http://www.w3.org/2000/svg"><path d="M14.385 15.039h41.792a3.5 3.5 0 013.5 3.5v44.27H10.885V18.54a3.5 3.5 0 013.5-3.5z" fill="#082C46" stroke="#0089C4"/><circle cx="17.805" cy="21.087" fill="#0089C4" r="1.859"/><circle cx="23.945" cy="21.087" fill="#0089C4" r="1.859"/><circle cx="30.084" cy="21.087" fill="#0089C4" r="1.859"/><path d="M24.495 29.47h-8.549m26.734 5.791H27.746m20.178 4.574H22.502m4.273 7.511h16.876v3.878H26.775v-3.878z" stroke="#0089C4"/><path d="M51.81 26.153h19.87a3.5 3.5 0 013.5 3.5v42.282a3.5 3.5 0 01-3.5 3.5H51.81a3.5 3.5 0 01-3.5-3.5V29.653a3.5 3.5 0 013.5-3.5z" fill="#082C46" stroke="#FFE259"/><path d="M54.04 26.153h15.41v2.204a1.5 1.5 0 01-1.5 1.5H55.54a1.5 1.5 0 01-1.5-1.5v-2.204z" fill="#082C46" stroke="#FFE259"/><path d="M61.43 37.976h-8.548m14.933 5.791H52.882m14.933 4.573H52.882" stroke="#FFE259"/><path d="M53.382 59.268h16.875v3.878H53.382v-3.878z" fill="#FFE259" stroke="#FFE259"/></svg>