<svg width="86" height="86" fill="none" xmlns="http://www.w3.org/2000/svg"><path d="M27.988 10.783h28.588a3.5 3.5 0 013.5 3.5V72.29a3.5 3.5 0 01-3.5 3.5H27.988a3.5 3.5 0 01-3.5-3.5V14.283a3.5 3.5 0 013.5-3.5z" fill="#082C46" stroke="#0089C4"/><path d="M32.01 10.783h20.54v3.675a1.5 1.5 0 01-1.5 1.5H33.51a1.5 1.5 0 01-1.5-1.5v-3.675z" fill="#082C46" stroke="#0089C4"/><path fill="#082C46" stroke="#FFE259" d="M48.872 22.594h30.789v30.789H48.872z"/><path fill-rule="evenodd" clip-rule="evenodd" d="M56.745 28.335c-.27.16-.455.506-.455.951V45.68c0 .445.148.816.37 1.038l.101.056 9.171-9.18v-.147l-9.023-8.952-.164-.159zM68.98 40.677l-3.046-3.009v-.222l3.014-3.013.102.046 3.634 2.077c1.038.593 1.038 1.557 0 2.15l-3.705 1.97z" fill="#FFE259" stroke="#082C46"/><path fill-rule="evenodd" clip-rule="evenodd" d="M69.048 40.635l-3.116-3.115-9.19 9.197v.044c.372.37.809.402 1.476.105l10.83-6.23z" fill="#FFE259" stroke="#082C46"/><path fill-rule="evenodd" clip-rule="evenodd" d="M68.978 34.439l-10.76-6.19c-.667-.371-1.035-.284-1.406.087l.408.542 8.713 8.642 3.045-3.081z" fill="#FFE259"/><path d="M68.978 34.439l.356.351.456-.461-.562-.324-.25.434zm-10.76-6.19l.25-.434-.007-.004-.242.437zm-1.406.087l-.353-.353-.308.307.262.347.4-.3zm9.12 9.184l-.352.355.356.353.352-.356-.355-.352zm-8.712-8.643l-.4.301.023.03.025.025.352-.355zm12.008 5.128l-10.76-6.19-.499.867 10.76 6.19.499-.867zM58.46 27.811c-.373-.207-.739-.33-1.106-.294-.381.037-.668.237-.896.466l.707.707c.142-.143.225-.172.287-.178.076-.008.228.01.523.174l.485-.875zm7.827 10.06l3.046-3.08-.711-.704-3.046 3.082.711.703zm-9.875-9.234l.408.541.799-.601-.408-.542-.8.602zm.455.596l8.712 8.642.705-.71-8.713-8.642-.704.71z" fill="#082C46"/><path fill="#082C46" stroke="#FFE259" d="M7.121 36.998H37.91v30.789H7.121z"/><path fill-rule="evenodd" clip-rule="evenodd" d="M26.277 42.913c.124 1.121-.32 2.226-.97 3.039-.678.8-1.762 1.41-2.818 1.332-.138-1.079.397-2.226.996-2.926.677-.795 1.852-1.403 2.792-1.445zm3.458 6.469c-.118.07-2.07 1.236-2.05 3.613.025 2.87 2.512 3.82 2.542 3.83-.015.067-.39 1.37-1.322 2.692-.779 1.165-1.595 2.303-2.89 2.324-.617.014-1.033-.163-1.466-.348-.453-.192-.924-.393-1.66-.393-.782 0-1.275.207-1.75.407-.41.173-.807.34-1.367.363-1.234.045-2.177-1.243-2.984-2.397-1.613-2.357-2.87-6.64-1.185-9.556.816-1.43 2.303-2.35 3.894-2.375.7-.014 1.371.256 1.96.492.45.181.852.343 1.181.343.29 0 .68-.156 1.135-.336.717-.285 1.595-.633 2.49-.54.611.019 2.351.242 3.474 1.88h-.002z" fill="#FFE259"/><path d="M25.307 45.952l.381.323.005-.005.004-.006-.39-.312zm.97-3.039l.497-.055-.051-.465-.468.02.022.5zm-3.788 4.371l-.496.064.052.404.407.03.037-.498zm.996-2.926l.38.325v-.001l-.38-.324zm4.2 8.637l.5-.004-.5.004zm2.05-3.613l.256.43-.256-.43zm.492 7.443l.488.108.097-.437-.423-.144-.162.473zm-1.322 2.692l-.409-.288-.007.01.416.278zm-2.89 2.324l-.009-.5h-.003l.011.5zm-1.466-.348l.196-.46-.196.46zm-3.41.014l.195.46-.194-.46zm-1.367.363l.019.5h.002l-.02-.5zm-2.984-2.397l-.413.282.003.004.41-.286zm-1.185-9.556l.433.25v-.002l-.433-.248zm3.894-2.375l.007.5h.003l-.01-.5zm1.96.492l-.186.464.186-.464zm2.316.007l.185.465-.185-.465zm2.49-.54L26.21 48l.019.002h.019l.014-.5zm3.474 1.88l.257.429.457-.273-.301-.44-.413.283zm-4.04-3.117c.71-.888 1.219-2.121 1.077-3.406l-.994.11c.106.958-.275 1.935-.864 2.671l.781.625zm-3.245 1.519c1.26.094 2.489-.626 3.236-1.508l-.763-.647c-.608.718-1.548 1.22-2.399 1.157l-.074.998zm.653-3.75c-.656.766-1.274 2.05-1.112 3.315l.992-.127c-.114-.893.337-1.904.88-2.538l-.76-.65zm3.15-1.62c-1.095.049-2.395.733-3.15 1.62l.76.649c.598-.702 1.65-1.235 2.434-1.27l-.044-.998zm1.93 10.577c-.018-2.08 1.7-3.115 1.806-3.179l-.512-.858c-.13.076-2.317 1.373-2.293 4.046l1-.009zm2.204 3.362c.034.012-.527-.196-1.09-.732-.552-.524-1.103-1.356-1.113-2.63l-1 .01c.013 1.597.718 2.674 1.424 3.345.693.659 1.39.931 1.456.953l.323-.946zm-1.075 3.453c.976-1.384 1.374-2.75 1.401-2.872l-.976-.216c.001-.007-.084.304-.289.788a9.422 9.422 0 01-.954 1.724l.818.576zm-3.292 2.536c.81-.013 1.451-.38 1.973-.868.511-.477.94-1.1 1.326-1.678l-.832-.556c-.392.587-.762 1.116-1.177 1.504-.405.378-.82.59-1.306.598l.016 1zm-1.67-.388c.439.187.941.405 1.674.388l-.023-1c-.5.011-.83-.125-1.258-.308l-.392.92zm-1.464-.353c.63 0 1.023.165 1.465.353l.392-.92c-.463-.197-1.013-.433-1.857-.433v1zm-1.554.368c.463-.195.878-.368 1.554-.368v-1c-.887 0-1.456.242-1.942.446l.388.922zm-1.541.401c.658-.027 1.13-.228 1.54-.401l-.387-.922c-.41.172-.733.305-1.194.324l.04 1zm-3.415-2.61c.4.572.865 1.225 1.4 1.727.535.502 1.204.913 2.013.884l-.037-1c-.426.016-.845-.194-1.292-.614-.447-.42-.857-.988-1.264-1.57l-.82.573zM15.17 49.667c-.922 1.595-1.02 3.527-.704 5.324.318 1.8 1.063 3.528 1.91 4.764l.825-.565c-.767-1.12-1.457-2.713-1.75-4.372-.293-1.664-.178-3.331.585-4.65l-.866-.501zm4.319-2.625c-1.78.027-3.423 1.054-4.32 2.627l.868.496c.734-1.287 2.066-2.101 3.467-2.123l-.015-1zm2.155.528c-.572-.23-1.338-.545-2.158-.528l.02 1c.582-.012 1.16.213 1.765.456l.373-.928zm.994.306c-.089 0-.215-.023-.393-.08a9.118 9.118 0 01-.601-.226l-.373.928c.22.089.452.182.67.252.218.069.457.127.697.127v-1zm.95-.3c-.231.092-.426.17-.598.224a1.274 1.274 0 01-.352.077v1c.224 0 .453-.059.659-.125.21-.067.437-.158.66-.246l-.368-.93zm2.727-.571c-1.037-.11-2.03.295-2.726.571l.369.93c.738-.293 1.5-.586 2.252-.507l.105-.994zm3.835 2.093c-1.257-1.832-3.198-2.076-3.873-2.096l-.029 1c.549.016 2.088.22 3.077 1.661l.825-.565zm-.159.713l.003-.001-.513-.859-.002.002.512.858z" fill="#FFE259"/></svg>