<svg width="480" height="350" fill="none" xmlns="http://www.w3.org/2000/svg"><path fill="#250F42" d="M-.748.357h480v349h-480z"/><path fill="#250F42" d="M151.829 110.956h176v127.803h-176z"/><path d="M183.579 204.971c-2.151 0-3.912-.442-5.283-1.325-.38-.231-.654-.473-.823-.725a1.665 1.665 0 01-.221-.852c0-.337.095-.621.285-.852a.899.899 0 01.727-.347c.274 0 .707.168 1.297.505.633.336 1.245.61 1.835.82.612.21 1.371.315 2.278.315 1.012 0 1.803-.178 2.372-.536.57-.357.854-.862.854-1.514 0-.421-.116-.757-.348-1.009-.21-.253-.59-.474-1.138-.663-.549-.21-1.361-.431-2.436-.662-1.856-.4-3.195-.936-4.018-1.609-.801-.694-1.202-1.63-1.202-2.808 0-.904.264-1.714.791-2.429.527-.736 1.255-1.304 2.183-1.703.928-.4 1.982-.599 3.163-.599.844 0 1.666.115 2.468.347a6.69 6.69 0 012.119.946c.696.463 1.044.999 1.044 1.609 0 .336-.105.62-.316.851-.19.232-.422.347-.696.347a1.4 1.4 0 01-.57-.126 7.6 7.6 0 01-.759-.41 10.28 10.28 0 00-1.613-.788c-.485-.19-1.097-.284-1.835-.284-.886 0-1.603.189-2.151.567-.527.379-.791.894-.791 1.546 0 .589.243 1.052.728 1.388.506.316 1.444.621 2.815.915 1.413.294 2.52.631 3.322 1.009.801.379 1.37.852 1.708 1.42.358.547.538 1.251.538 2.113 0 1.367-.58 2.471-1.74 3.313-1.139.82-2.668 1.23-4.587 1.23zm21.967-4.101a.9.9 0 01.728.347c.19.231.285.526.285.883 0 .61-.38 1.125-1.139 1.546a9.963 9.963 0 01-2.436.978 9.678 9.678 0 01-2.499.347c-2.446 0-4.376-.705-5.789-2.114-1.413-1.43-2.12-3.375-2.12-5.835 0-1.578.306-2.976.918-4.196.632-1.22 1.508-2.166 2.625-2.839 1.139-.673 2.426-1.009 3.86-1.009 2.067 0 3.701.662 4.903 1.987 1.202 1.325 1.803 3.112 1.803 5.363 0 .841-.379 1.261-1.139 1.261h-9.775c.211 3.26 1.782 4.89 4.714 4.89.78 0 1.455-.105 2.025-.316.569-.21 1.17-.483 1.803-.82a5.14 5.14 0 01.506-.252c.295-.147.538-.221.727-.221zm-5.504-9.558c-1.223 0-2.204.389-2.942 1.167s-1.181 1.872-1.329 3.281h8.162c-.063-1.43-.432-2.524-1.107-3.281-.654-.778-1.582-1.167-2.784-1.167zm16.871 13.659c-1.519 0-2.858-.326-4.018-.978-1.139-.652-2.025-1.577-2.657-2.776-.612-1.22-.918-2.629-.918-4.227 0-1.619.306-3.028.918-4.227.632-1.22 1.518-2.156 2.657-2.808 1.16-.651 2.499-.977 4.018-.977 1.518 0 2.847.326 3.985.977 1.16.652 2.046 1.588 2.658 2.808.632 1.199.949 2.608.949 4.227 0 1.598-.317 3.007-.949 4.227a6.506 6.506 0 01-2.658 2.776c-1.138.652-2.467.978-3.985.978zm0-2.524c1.413 0 2.488-.462 3.226-1.388.759-.925 1.139-2.281 1.139-4.069 0-1.767-.38-3.112-1.139-4.038-.759-.946-1.835-1.419-3.226-1.419-1.392 0-2.468.473-3.227 1.419-.759.926-1.139 2.271-1.139 4.038 0 1.788.369 3.144 1.107 4.069.759.926 1.846 1.388 3.259 1.388z" fill="#fff"/><path d="M236.351 188.978c1.328 0 2.509.336 3.543 1.009 1.054.673 1.866 1.62 2.436 2.839.59 1.22.885 2.629.885 4.227 0 1.578-.284 2.966-.854 4.164-.569 1.199-1.381 2.124-2.436 2.776-1.033.652-2.225.978-3.574.978-1.16 0-2.183-.242-3.069-.725a4.983 4.983 0 01-2.024-2.145v7.034c0 .442-.148.789-.443 1.041-.274.274-.644.41-1.108.41-.485 0-.885-.136-1.202-.41-.295-.273-.443-.641-.443-1.104v-18.485c0-.463.148-.831.443-1.104.296-.295.686-.442 1.171-.442.464 0 .843.147 1.139.442.295.273.443.641.443 1.104v1.293a4.983 4.983 0 012.024-2.145c.886-.505 1.909-.757 3.069-.757zm-.76 13.47c1.392 0 2.468-.463 3.227-1.388.759-.947 1.139-2.282 1.139-4.007 0-1.745-.39-3.102-1.17-4.069-.76-.967-1.825-1.451-3.196-1.451-1.391 0-2.467.473-3.226 1.42-.738.946-1.107 2.292-1.107 4.037 0 1.746.369 3.092 1.107 4.038.759.946 1.835 1.42 3.226 1.42zm23.246-1.578c.295 0 .538.116.728.347.189.232.284.526.284.884 0 .609-.379 1.125-1.138 1.545a9.995 9.995 0 01-2.436.978 9.635 9.635 0 01-2.499.347c-2.447 0-4.377-.704-5.79-2.113-1.413-1.43-2.119-3.376-2.119-5.836 0-1.577.306-2.976.917-4.196.633-1.219 1.508-2.166 2.626-2.839 1.139-.673 2.425-1.009 3.859-1.009 2.067 0 3.702.662 4.904 1.987 1.202 1.325 1.803 3.113 1.803 5.363 0 .841-.38 1.262-1.139 1.262h-9.775c.211 3.259 1.782 4.889 4.714 4.889.78 0 1.455-.105 2.024-.315.57-.211 1.171-.484 1.803-.82.064-.043.232-.127.506-.253.296-.147.538-.221.728-.221zm-5.504-9.558c-1.224 0-2.204.389-2.942 1.167s-1.181 1.872-1.329 3.281h8.162c-.064-1.43-.433-2.524-1.108-3.281-.653-.778-1.581-1.167-2.783-1.167zm22.786-8.959c.485 0 .875.137 1.17.41.296.274.443.642.443 1.104v19.495c0 .484-.147.863-.443 1.136-.274.273-.653.41-1.139.41-.485 0-.875-.137-1.17-.41-.274-.273-.411-.652-.411-1.136v-1.261a4.985 4.985 0 01-2.025 2.145c-.886.483-1.908.725-3.068.725-1.329 0-2.521-.336-3.575-1.009-1.033-.673-1.845-1.62-2.436-2.839-.569-1.22-.854-2.619-.854-4.196 0-1.598.285-2.997.854-4.195.591-1.199 1.403-2.124 2.436-2.776 1.033-.652 2.225-.978 3.575-.978 1.16 0 2.172.252 3.036.757a4.835 4.835 0 012.025 2.082v-8.013c0-.441.137-.788.411-1.041.296-.273.686-.41 1.171-.41zm-5.884 20.095c1.371 0 2.436-.474 3.195-1.42.759-.946 1.139-2.292 1.139-4.038 0-1.745-.38-3.091-1.139-4.037-.738-.947-1.803-1.42-3.195-1.42s-2.478.473-3.259 1.42c-.759.925-1.138 2.25-1.138 3.974 0 1.725.39 3.081 1.17 4.07.78.967 1.856 1.451 3.227 1.451zm13.565 2.46c-.464 0-.854-.126-1.17-.378-.295-.253-.443-.631-.443-1.136v-12.807c0-.505.148-.884.443-1.136.316-.273.706-.41 1.17-.41.464 0 .844.137 1.139.41.295.252.443.631.443 1.136v12.807c0 .505-.148.883-.443 1.136-.295.252-.675.378-1.139.378zm0-18.959c-.611 0-1.096-.168-1.455-.504-.358-.337-.538-.778-.538-1.325 0-.547.18-.978.538-1.294.359-.336.844-.504 1.455-.504.591 0 1.065.168 1.424.504.379.316.569.747.569 1.294s-.179.988-.538 1.325c-.358.336-.843.504-1.455.504zm12.533 3.029c2.046 0 3.565.515 4.556 1.546 1.012 1.03 1.518 2.597 1.518 4.7v8.17c0 .484-.137.862-.411 1.136-.274.252-.654.378-1.139.378-.464 0-.833-.137-1.107-.41-.274-.273-.411-.641-.411-1.104v-1.167c-.401.883-1.002 1.567-1.803 2.05-.781.463-1.698.694-2.753.694-1.012 0-1.94-.2-2.783-.599-.844-.421-1.508-.999-1.993-1.735a4.52 4.52 0 01-.696-2.461c0-1.114.284-1.987.854-2.618.59-.652 1.55-1.114 2.878-1.388 1.35-.273 3.196-.41 5.536-.41h.728v-.915c0-1.177-.242-2.029-.728-2.555-.485-.526-1.265-.789-2.34-.789-.739 0-1.435.095-2.088.284-.654.19-1.371.463-2.151.821-.57.315-.971.473-1.203.473-.316 0-.58-.116-.79-.347-.19-.232-.285-.526-.285-.884 0-.315.084-.588.253-.82.19-.252.485-.494.886-.725.738-.4 1.602-.715 2.594-.947a11.66 11.66 0 012.878-.378zm-.98 13.627c1.16 0 2.109-.389 2.847-1.167.738-.799 1.107-1.819 1.107-3.06v-.82h-.569c-1.645 0-2.911.074-3.796.221-.886.147-1.519.399-1.899.757-.379.336-.569.831-.569 1.483 0 .757.274 1.377.823 1.861.548.483 1.233.725 2.056.725z" fill="#DF2F58"/><path fill-rule="evenodd" clip-rule="evenodd" d="M230.716 145.876c-1.934-.843-4.202-1.435-6.874-1.629-2.1-.152-4.45-.059-7.084.352v25.959c5.33-.79 17.509-.263 23.588 8.17v-16.079c-6.162-.017-11.152-5.004-11.152-11.153 0-2.049.554-3.97 1.522-5.62z" fill="url(#paint0_linear)"/><path fill-rule="evenodd" clip-rule="evenodd" d="M218.434 146.057v22.645c2.788-.196 6.477-.054 10.235.86 3.436.835 7.017 2.339 10.003 4.897v-10.251c-6.295-.833-11.152-6.207-11.152-12.712 0-1.658.317-3.246.893-4.703-1.379-.441-2.933-.752-4.691-.88-1.585-.115-3.341-.081-5.288.144zm-1.934-3.107c2.746-.429 5.225-.531 7.465-.368 2.854.207 5.308.842 7.422 1.763a1.668 1.668 0 01.776 2.374 9.405 9.405 0 00-1.293 4.777c0 5.228 4.243 9.468 9.482 9.483.923.003 1.67.75 1.67 1.671v16.079c0 .725-.469 1.367-1.162 1.59a1.678 1.678 0 01-1.873-.615c-2.729-3.786-6.878-5.867-11.112-6.897-4.238-1.03-8.395-.963-10.87-.596a1.68 1.68 0 01-1.34-.387 1.67 1.67 0 01-.581-1.265V144.6c0-.823.601-1.523 1.416-1.65z" fill="url(#paint1_linear)"/><path fill-rule="evenodd" clip-rule="evenodd" d="M240.456 162.649c6.142-.041 11.109-5.018 11.109-11.153 0-2.043-.551-3.958-1.513-5.605 1.941-.851 4.22-1.449 6.908-1.644 2.1-.152 4.45-.059 7.084.352v25.959c-5.33-.79-17.509-.263-23.588 8.17v-16.079z" fill="url(#paint2_linear)"/><path fill-rule="evenodd" clip-rule="evenodd" d="M256.838 142.582c2.241-.163 4.719-.061 7.465.368a1.671 1.671 0 011.416 1.65v25.959c0 .486-.212.947-.581 1.265a1.68 1.68 0 01-1.34.387c-2.475-.367-6.632-.434-10.87.596-4.234 1.03-8.383 3.111-11.112 6.897a1.678 1.678 0 01-1.873.615 1.672 1.672 0 01-1.162-1.59V162.65c0-.919.743-1.665 1.664-1.671 5.222-.034 9.445-4.267 9.445-9.483 0-1.74-.469-3.366-1.286-4.764a1.667 1.667 0 01.774-2.37c2.123-.93 4.589-1.572 7.46-1.78zm5.531 3.475c-1.947-.225-3.703-.259-5.288-.144-1.774.129-3.341.445-4.729.892a12.77 12.77 0 01.888 4.691c0 6.49-4.835 11.854-11.109 12.706v10.257c2.987-2.558 6.568-4.062 10.003-4.897 3.758-.914 7.447-1.056 10.235-.86v-22.645z" fill="url(#paint3_linear)"/><path fill-rule="evenodd" clip-rule="evenodd" d="M240.4 161.508c.925 0 1.675.748 1.675 1.67v15.551c0 .922-.75 1.67-1.675 1.67a1.673 1.673 0 01-1.675-1.67v-15.551c0-.922.75-1.67 1.675-1.67z" fill="#fff"/><path fill-rule="evenodd" clip-rule="evenodd" d="M240.38 161.018c5.274 0 9.549-4.263 9.549-9.522 0-5.258-4.275-9.521-9.549-9.521-5.273 0-9.548 4.263-9.548 9.521 0 5.259 4.275 9.522 9.548 9.522zm0 3.199c7.045 0 12.757-5.695 12.757-12.721 0-7.025-5.712-12.72-12.757-12.72s-12.756 5.695-12.756 12.72c0 7.026 5.711 12.721 12.756 12.721z" fill="#fff"/><defs><linearGradient id="paint0_linear" x1="212.458" y1="154.163" x2="241.613" y2="181.355" gradientUnits="userSpaceOnUse"><stop stop-color="#DF2F58"/><stop offset="1" stop-color="#7C2E4B"/></linearGradient><linearGradient id="paint1_linear" x1="228.553" y1="144.179" x2="228.553" y2="178.729" gradientUnits="userSpaceOnUse"><stop stop-color="#DF2F58" stop-opacity="0"/><stop offset="1" stop-color="#DF2F58"/></linearGradient><linearGradient id="paint2_linear" x1="268.344" y1="154.163" x2="239.189" y2="181.355" gradientUnits="userSpaceOnUse"><stop stop-color="#DF2F58"/><stop offset="1" stop-color="#7C2E4B"/></linearGradient><linearGradient id="paint3_linear" x1="252.25" y1="144.179" x2="252.25" y2="178.729" gradientUnits="userSpaceOnUse"><stop stop-color="#DF2F58" stop-opacity="0"/><stop offset="1" stop-color="#DF2F58"/></linearGradient></defs></svg>