<svg width="480" height="350" fill="none" xmlns="http://www.w3.org/2000/svg"><path fill="#E01F83" d="M.252.357h481v349h-481z"/><path fill="#E01F83" d="M153.146 110.956h176.367v127.803H153.146z"/><path d="M214.099 194.729v-15.795h7.733v15.795l-4.169 4.35-3.564-4.35zm0-19.559v-4.618h7.733v4.618h-7.733zm-35.278-22.638c0 1.205.336 2.231 1.014 3.08.671.848 1.483 1.264 2.42 1.264.335 0 .664-.059.985-.187.322-.127.588-.263.791-.415.209-.153.405-.323.587-.518.189-.195.315-.331.371-.416.055-.084.097-.144.125-.195l-.713-.78-.231.339c-.16.238-.419.467-.776.696a2.04 2.04 0 01-1.139.348c-.658 0-1.231-.306-1.714-.925-.482-.619-.72-1.383-.72-2.282 0-.9.238-1.663.72-2.282.483-.62 1.056-.934 1.714-.934.258 0 .51.051.748.145.237.101.426.212.58.33.147.119.287.263.413.425.125.169.209.28.244.339.042.068.07.11.084.144l.72-.865-.3-.399c-.196-.271-.532-.551-.993-.831a2.856 2.856 0 00-1.503-.424c-.93 0-1.735.424-2.413 1.272-.678.849-1.014 1.867-1.014 3.071zm8.839-3.037h2.433v7.211h1v-7.211h2.433v-1.128h-5.866v1.128zm10.635 8.424c-.259.874-.692 1.307-1.3 1.307-.238 0-.476-.059-.714-.178v1.137l.098.034c.07.034.182.067.322.093.14.034.287.042.44.042.497 0 .909-.178 1.238-.551.322-.373.629-1.001.916-1.884l3.154-9.552h-1.077l-2.217 6.778-2.223-6.778h-1.077l2.797 8.339-.357 1.213zm13.712-2.341h-1.077v-7.211h-4.719v2.435c0 .61-.049 1.204-.133 1.764s-.182 1.01-.294 1.349a7.493 7.493 0 01-.671 1.493 1.818 1.818 0 01-.126.17h-.497v3.215h1v-2.087h5.517v2.087h1v-3.215zm-4.797-6.083h2.72v6.083h-3.866l.286-.484c.189-.322.378-.882.567-1.679.196-.789.286-1.663.286-2.613l.007-1.307zm13.349-1.128l-4.154 6.252v-6.252h-.999v8.339h.853l4.153-6.252v6.252h1.007v-8.339h-.86zm4.545 2.782c0 .399.049.755.154 1.069.105.306.217.552.343.721.125.17.265.323.433.442.161.118.273.195.343.229a.66.66 0 00.16.059l-1.573 3.037h1.147l1.426-2.782h2.007v2.782h1v-8.339h-2.93c-.748 0-1.356.271-1.818.797-.461.526-.692 1.188-.692 1.985zm4.44-1.654v3.3h-1.93c-.461 0-.832-.152-1.097-.458-.273-.305-.406-.696-.406-1.188 0-.483.133-.882.406-1.187.272-.306.636-.458 1.097-.458l1.93-.009zm20.593 6.083h-1.077v-7.211h-4.72v2.435c0 .61-.049 1.204-.133 1.764a8.347 8.347 0 01-.293 1.349 7.493 7.493 0 01-.671 1.493 1.818 1.818 0 01-.126.17h-.497v3.215h1v-2.087h5.517v2.087h1v-3.215zm-4.797-6.083h2.72v6.083h-3.867l.287-.484c.189-.322.378-.882.567-1.679.195-.789.286-1.663.286-2.613l.007-1.307zm13.349-1.128l-4.154 6.252v-6.252h-1v8.339h.853l4.154-6.252v6.252h1.007v-8.339h-.86zm9.132 2.172c0-.637-.224-1.188-.658-1.655-.44-.458-1.006-.695-1.706-.695-.475 0-.916.118-1.335.339-.42.229-.692.407-.818.543a4.271 4.271 0 00-.287.339l.72.866.203-.238c.119-.161.322-.322.608-.475.287-.153.588-.229.909-.229.448 0 .783.11 1.014.331.224.22.343.517.343.874 0 .356-.126.67-.371.924-.251.255-.58.382-.986.382h-.79v1.128h.79c.539 0 .944.128 1.224.382.28.255.42.594.42 1.01 0 .415-.14.746-.413 1.001-.28.254-.685.382-1.231.382-.363 0-.713-.102-1.048-.306-.336-.203-.56-.373-.658-.509a17.84 17.84 0 01-.231-.305l-.643.78.098.161c.07.102.175.221.315.365s.314.289.51.433c.196.136.434.263.727.365.294.102.602.152.93.152.846 0 1.497-.246 1.958-.729.455-.484.685-1.078.685-1.782 0-.331-.055-.619-.153-.874a1.965 1.965 0 00-.329-.585 1.692 1.692 0 00-.406-.339 1.447 1.447 0 00-.321-.162c-.063-.016-.112-.033-.147-.042l.112-.034c.07-.034.154-.102.266-.187.111-.084.216-.195.321-.322.105-.127.196-.305.266-.526.07-.229.112-.483.112-.763zm5.482 1.391c-.65.136-1.147.416-1.49.84-.349.424-.517.984-.517 1.68 0 .636.231 1.196.699 1.688a2.304 2.304 0 001.734.738c.273 0 .539-.042.798-.136.258-.085.468-.186.629-.305.154-.119.3-.246.44-.399.14-.153.224-.254.266-.314.042-.059.07-.11.091-.144v1.128h1v-5.302c0-.908-.259-1.671-.776-2.291-.518-.611-1.161-.924-1.944-.924-.308 0-.615.059-.909.169a2.89 2.89 0 00-.713.374 4.923 4.923 0 00-.525.483 4.089 4.089 0 00-.321.373c-.049.068-.084.128-.112.17l.643.781.217-.297c.14-.204.37-.408.692-.611a1.887 1.887 0 011.028-.306c.503 0 .916.196 1.237.577.322.391.483.891.483 1.502l-2.65.526zm.426 3.818c-.447 0-.804-.119-1.055-.365a1.253 1.253 0 01-.378-.933c0-.781.433-1.273 1.294-1.477l2.363-.526v.526c0 .823-.21 1.494-.629 2.003-.42.517-.951.772-1.595.772zm10.342-9.731c-.363 0-.65-.128-.846-.382-.203-.255-.301-.619-.301-1.094h-.79c0 .695.175 1.264.539 1.696.356.441.825.654 1.398.654.574 0 1.035-.213 1.392-.654.356-.432.538-1.001.538-1.696h-.783c0 .475-.105.839-.301 1.094-.203.254-.482.382-.846.382zm2.147 2.35l-4.154 6.252v-6.252h-1v8.339h.854l4.153-6.252v6.252h1.007v-8.339h-.86zm9.915 8.339h1.007v-8.339h-1.007v3.563h-3.937v-3.563h-1v8.339h1v-3.648h3.937v3.648zm6.629-4.776c-.65.136-1.147.416-1.49.84-.349.424-.517.984-.517 1.68 0 .636.231 1.196.699 1.688a2.304 2.304 0 001.734.738c.273 0 .539-.042.798-.136.258-.085.468-.186.629-.305.154-.119.3-.246.44-.399.14-.153.224-.254.266-.314.042-.059.07-.11.091-.144v1.128h1v-5.302c0-.908-.259-1.671-.776-2.291-.518-.611-1.161-.924-1.944-.924-.308 0-.615.059-.909.169a2.89 2.89 0 00-.713.374 4.923 4.923 0 00-.525.483 4.089 4.089 0 00-.321.373c-.049.068-.084.128-.112.17l.643.781.217-.297c.14-.204.37-.408.692-.611a1.887 1.887 0 011.028-.306c.503 0 .916.196 1.237.577.322.391.483.891.483 1.502l-2.65.526zm.426 3.818c-.447 0-.804-.119-1.055-.365a1.253 1.253 0 01-.378-.933c0-.781.433-1.273 1.294-1.477l2.363-.526v.526c0 .823-.21 1.494-.629 2.003-.42.517-.951.772-1.595.772zm-111.275 36.288l-7.933-9.931-7.733-8.332v-3.221h6.918l8.748 11.157 8.767-11.157h6.918v28.368h-7.733v-16.815l-7.952 9.931zm48.226-1.819c0-.515-.245-.963-.736-1.346-.49-.382-1.123-.699-1.898-.949-.776-.251-1.637-.518-2.585-.802a20.833 20.833 0 01-2.823-1.078 13.13 13.13 0 01-2.564-1.563c-.776-.606-1.408-1.424-1.899-2.453-.49-1.028-.735-2.215-.735-3.561 0-2.321 1.01-4.355 3.031-6.103 2.022-1.747 4.609-2.621 7.764-2.621 1.298 0 2.524.142 3.677.426 1.153.283 2.098.623 2.833 1.018a19.7 19.7 0 011.939 1.177c.556.39.941.736 1.153 1.039l.377.396-4.493 4.668a7.614 7.614 0 00-.586-.603c-.258-.244-.795-.577-1.61-.999-.815-.422-1.64-.633-2.475-.633-.875 0-1.604.244-2.187.732-.583.488-.875 1.055-.875 1.701 0 .515.245.96.736 1.336.49.376 1.123.692 1.898.949.776.257 1.63.528 2.565.811.934.284 1.875.643 2.823 1.078.947.436 1.809.957 2.584 1.563.775.607 1.408 1.425 1.899 2.453.49 1.029.735 2.216.735 3.561 0 2.625-1.04 4.834-3.121 6.628-2.081 1.793-4.844 2.69-8.29 2.69-1.405 0-2.76-.168-4.065-.504-1.306-.337-2.379-.742-3.221-1.217a22.893 22.893 0 01-2.237-1.424c-.649-.475-1.126-.884-1.431-1.227l-.437-.495 4.473-4.649c.053.08.149.185.288.317.139.132.411.376.815.732.404.356.832.669 1.282.94.451.27 1.014.511 1.69.722a6.773 6.773 0 002.028.316c1.087 0 1.971-.296 2.654-.89.683-.593 1.024-1.306 1.024-2.136zm-59.94 1.179a3.77 3.77 0 013.781 3.762 3.772 3.772 0 01-3.781 3.763h-.171a3.772 3.772 0 01-3.781-3.763c0-2.078 1.693-3.762 3.781-3.762h.171zm84.772-1.179c0-.515-.245-.963-.736-1.346-.49-.382-1.123-.699-1.898-.949-.776-.251-1.637-.518-2.585-.802a20.833 20.833 0 01-2.823-1.078 13.13 13.13 0 01-2.564-1.563c-.776-.606-1.408-1.424-1.899-2.453-.49-1.028-.735-2.215-.735-3.561 0-2.321 1.01-4.355 3.031-6.103 2.022-1.747 4.609-2.621 7.764-2.621 1.298 0 2.524.142 3.677.426 1.153.283 2.098.623 2.833 1.018a19.7 19.7 0 011.939 1.177c.556.39.941.736 1.153 1.039l.377.396-4.493 4.668a7.614 7.614 0 00-.586-.603c-.258-.244-.795-.577-1.61-.999-.815-.422-1.64-.633-2.475-.633-.875 0-1.604.244-2.187.732-.583.488-.875 1.055-.875 1.701 0 .515.245.96.736 1.336.49.376 1.123.692 1.898.949.776.257 1.63.528 2.565.811.934.284 1.875.643 2.823 1.078.947.436 1.809.957 2.584 1.563.775.607 1.408 1.425 1.899 2.453.49 1.029.735 2.216.735 3.561 0 2.625-1.04 4.834-3.121 6.628-2.081 1.793-4.844 2.69-8.29 2.69-1.405 0-2.76-.168-4.065-.504-1.306-.337-2.379-.742-3.221-1.217a22.75 22.75 0 01-2.236-1.424c-.65-.475-1.127-.884-1.432-1.227l-.437-.495 4.473-4.649c.053.08.149.185.288.317.139.132.411.376.815.732.404.356.832.669 1.282.94.451.27 1.014.511 1.69.722a6.773 6.773 0 002.028.316c1.087 0 1.971-.296 2.654-.89.683-.593 1.024-1.306 1.024-2.136z" fill="#fff"/><path fill-rule="evenodd" clip-rule="evenodd" d="M304.655 198.92v-28.368h-7.733v15.806l-12.206-15.806h-6.72v28.368h7.733v-15.806l12.247 15.806h6.679z" fill="#fff"/></svg>