<svg width="482" height="350" fill="none" xmlns="http://www.w3.org/2000/svg"><path fill="#fff" d="M.252.357h481v349h-481z"/><path fill="#fff" d="M153.146 110.956h176.367v127.803H153.146z"/><path d="M153.929 210.823v-.386l1.747-.797v-11.156l-1.747-.797v-.387h6.115v.387l-1.966.797v11.132h5.072l1.529-3.55h.388v4.757h-11.138zm13.011 0v-.386l1.747-.797v-11.156l-1.747-.797v-.387h10.677v3.478h-.388l-1.262-2.27h-4.878v4.708h3.543l.825-1.666h.389v4.516h-.389l-.825-1.642h-3.543v5.192h5.412l1.334-2.729h.389v3.936H166.94zm20.816.242c-1.407 0-2.669-.29-3.786-.87-1.1-.579-1.965-1.376-2.596-2.39-.631-1.015-.946-2.158-.946-3.429 0-1.079.202-2.061.606-2.946a7.186 7.186 0 011.699-2.319 7.55 7.55 0 012.451-1.521 7.747 7.747 0 012.912-.555c.695 0 1.286.048 1.771.145.502.08.947.201 1.335.362.404.161.801.33 1.189.507l.097 3.453h-.388l-1.408-2.439a3.605 3.605 0 00-1.237-.628 4.466 4.466 0 00-1.359-.193c-1.019 0-1.925.25-2.718.749-.777.499-1.391 1.183-1.844 2.052-.437.87-.656 1.852-.656 2.946 0 1.884.47 3.333 1.408 4.347.954 1.014 2.232 1.521 3.834 1.521.502 0 .946-.032 1.335-.096a4.08 4.08 0 001.116-.411l1.747-2.584h.388l-.218 3.26a9.177 9.177 0 01-2.014.749c-.744.193-1.65.29-2.718.29zm6.374-.242v-.386l1.237-.652 5.387-12.605h1.262l5.339 12.556 1.432.701v.386h-5.63v-.386l1.698-.701-1.504-3.573h-4.999l-1.48 3.598 1.771.676v.386h-4.513zm4.732-5.868h3.979l-2.014-4.805-1.965 4.805zm11.139 5.868v-.386l1.772-.797v-11.156l-1.772-.797v-.387h5.873c1.488 0 2.661.306 3.519.918.873.596 1.31 1.425 1.31 2.487 0 .773-.243 1.441-.728 2.004-.469.548-1.149.982-2.038 1.304l3.737 5.675 1.601.749v.386h-3.81l-3.834-6.158h-1.48v4.951l1.602.821v.386h-5.752zm5.29-12.339h-1.14v4.998h1.238c.873 0 1.561-.225 2.062-.676.502-.451.752-1.063.752-1.835 0-.821-.258-1.441-.776-1.86-.502-.418-1.213-.627-2.136-.627zm9.284 12.339v-.386l1.772-.797v-11.156l-1.772-.797v-.387h6.188c1.634 0 3.018.266 4.15.797 1.132.515 1.998 1.24 2.597 2.173.598.918.897 1.981.897 3.188 0 1.481-.315 2.777-.946 3.888-.631 1.094-1.529 1.948-2.694 2.559-1.164.612-2.548.918-4.149.918h-6.043zm5.679-12.315h-1.505v11.108h1.675c1.763 0 3.114-.507 4.052-1.522.955-1.03 1.432-2.398 1.432-4.105 0-1.771-.485-3.123-1.456-4.057-.971-.949-2.37-1.424-4.198-1.424zm16.849 12.557c-1.359 0-2.564-.298-3.616-.894a6.85 6.85 0 01-2.499-2.487c-.599-1.063-.898-2.27-.898-3.622 0-1.353.299-2.56.898-3.622a6.61 6.61 0 012.499-2.488c1.052-.611 2.257-.917 3.616-.917s2.564.306 3.616.917a6.387 6.387 0 012.499 2.488c.615 1.062.922 2.269.922 3.622 0 1.352-.307 2.559-.922 3.622a6.61 6.61 0 01-2.499 2.487c-1.052.596-2.257.894-3.616.894zm.388-1.208c1.311 0 2.338-.475 3.082-1.425.744-.949 1.116-2.205 1.116-3.767 0-1.271-.21-2.39-.631-3.356-.404-.966-.978-1.715-1.723-2.246-.744-.547-1.593-.821-2.548-.821-1.294 0-2.329.475-3.106 1.425-.76.933-1.14 2.173-1.14 3.719 0 1.287.21 2.414.631 3.38.42.966 1.003 1.723 1.747 2.27.744.547 1.602.821 2.572.821z" fill="#FF7575"/><path d="M263.653 211.064c-1.408 0-2.67-.29-3.786-.869-1.1-.58-1.965-1.377-2.596-2.391s-.947-2.157-.947-3.429c0-1.078.202-2.061.607-2.946a7.178 7.178 0 011.699-2.318 7.536 7.536 0 012.45-1.521 7.732 7.732 0 012.912-.556c.696 0 1.287.048 1.772.145.501.081.946.201 1.335.362.404.161.8.33 1.189.507l.097 3.454h-.389l-1.407-2.439a3.583 3.583 0 00-1.238-.628 4.457 4.457 0 00-1.359-.193c-1.019 0-1.925.249-2.717.748-.777.499-1.392 1.183-1.845 2.053-.436.869-.655 1.851-.655 2.946 0 1.883.469 3.332 1.408 4.346.954 1.015 2.232 1.522 3.834 1.522.501 0 .946-.033 1.334-.097a4.04 4.04 0 001.117-.41l1.747-2.584h.388l-.218 3.26a9.196 9.196 0 01-2.014.748c-.745.193-1.651.29-2.718.29zm7.552-.241v-.387l1.747-.797v-11.156l-1.747-.797v-.386h6.115v.386l-1.966.797v11.132h5.072l1.529-3.55h.388v4.758h-11.138zm13.108 0v-.387l1.601-.797v-11.156l-1.601-.797v-.386h5.702v.386l-1.674.797v11.156l1.674.797v.387h-5.702zm7.65 0v-.387l1.723-.797v-11.18l-1.723-.773v-.386h3.616l8.202 9.683v-8.524l-2.135-.773v-.386h5.217v.386l-1.723.773v12.46h-1.116l-8.955-10.504v9.152l2.16.869v.387h-5.266zm16.618 0v-.387l1.602-.797v-11.156l-1.602-.797v-.386h5.703v.386l-1.675.797v11.156l1.675.797v.387h-5.703zm15.198.241c-1.408 0-2.67-.29-3.786-.869-1.1-.58-1.966-1.377-2.596-2.391-.631-1.014-.947-2.157-.947-3.429 0-1.078.202-2.061.607-2.946a7.19 7.19 0 011.698-2.318 7.55 7.55 0 012.451-1.521 7.732 7.732 0 012.912-.556c.696 0 1.286.048 1.772.145a5.97 5.97 0 011.334.362c.405.161.801.33 1.19.507l.097 3.454h-.389l-1.407-2.439a3.592 3.592 0 00-1.238-.628 4.457 4.457 0 00-1.359-.193c-1.019 0-1.925.249-2.717.748-.777.499-1.392 1.183-1.845 2.053-.437.869-.655 1.851-.655 2.946 0 1.883.469 3.332 1.408 4.346.954 1.015 2.232 1.522 3.834 1.522.501 0 .946-.033 1.334-.097a4.04 4.04 0 001.117-.41l1.747-2.584h.388l-.218 3.26a9.186 9.186 0 01-2.015.748c-.744.193-1.65.29-2.717.29z" fill="#ACC32A"/><path fill-rule="evenodd" clip-rule="evenodd" d="M254.792 143.186c-17.492-12.275-26.458-3.62-29.626 3.356 0 0 .08-.065.229-.181 2.779-4.529 9.579-12.257 22.523-5.024-2.393.436-5.562 1.107-8.797 3.823-2.932 2.113-6.471 3.22-9.504 2.717.394-.687 4.718-5.09 11.237-7.622-1.631.481-5.488 1.703-8.812 3.396-3.438 1.912-5.258 3.997-5.258 3.997l.001.002a22.119 22.119 0 00-2.522 3.35c-.1-.838-.319-1.774-.713-2.821-1.105-2.937-.305-6.088.418-7.309-11.338 7.309-7.597 14.151-3.385 17.379l-.063-.162c-2.092-2.385-5.294-7.619 1.16-13.654-.179 1.433-.363 3.347.612 5.666.683 2.039.682 4.241-.149 5.869-.327-.352-2.127-3.75-2.364-7.992-.098.795-.381 3.536.03 5.95.439 2.101 1.435 3.987 1.595 4.283a22.444 22.444 0 001.91 14.713 22.585 22.585 0 009.277 9.631 22.736 22.736 0 0022.585-.357 24.172 24.172 0 01-9.144 1.774c-12.315 0-22.333-9.076-22.631-20.376a20.028 20.028 0 014.389-13.275c.55-.403 1.345-.381 2.42-.351 2.348.066 6.035.169 11.437-4.03 4.163-3.236 10.819-3.289 13.145-2.752zm4.753 7.378c1.561.501 2.962 1.148 4.17 1.974a22.565 22.565 0 00-6.566-7.735s-1.499-.562-2.915-.662a105.166 105.166 0 00-3.281-.163s1.816.639 2.625 1.142c.809.503 2.094 1.646 2.094 1.646a20.115 20.115 0 013.873 3.798zm-39.77-2.659l-.012.06.01-.102.002.042z" fill="#ACC32A"/><path fill-rule="evenodd" clip-rule="evenodd" d="M248.674 182.274a20.222 20.222 0 007.833-4.016 20.08 20.08 0 006.493-9.981 20 20 0 00-.316-11.886 20.097 20.097 0 00-7.015-9.625s-1.202-.905-2.219-1.537c-1.017-.633-2.499-1.251-2.499-1.251s1.865.063 3.281.163c1.415.101 2.915.662 2.915.662a22.543 22.543 0 017.871 10.801 22.436 22.436 0 01.932 10.691c-1.351 7.07-6.433 13.01-14.658 15.381-.878.253-1.752.451-2.618.598z" fill="#FF7575"/><mask id="a" maskUnits="userSpaceOnUse" x="230.274" y="149.726" width="26" height="26" fill="#000"><path fill="#fff" d="M230.274 149.726h26v26h-26z"/><path fill-rule="evenodd" clip-rule="evenodd" d="M251.409 159.15h-3.969v-3.971a2.454 2.454 0 00-2.454-2.453h-2.839a2.454 2.454 0 00-2.454 2.453v3.971h-3.965a2.454 2.454 0 00-2.454 2.454v2.801a2.454 2.454 0 002.454 2.454h3.998v3.919a2.454 2.454 0 002.454 2.454h2.777a2.454 2.454 0 002.454-2.454v-3.919h3.998a2.454 2.454 0 002.454-2.454v-2.801a2.454 2.454 0 00-2.454-2.454z"/></mask><path d="M247.44 159.15h-2.189c0 1.209.98 2.189 2.189 2.189v-2.189zm3.969 0v-2.189 2.189zm-3.969-3.971h-2.189 2.189zm-2.454-2.453v2.189-2.189zm-2.839 0v2.189-2.189zm-2.454 2.453h-2.189 2.189zm0 3.971v2.189a2.19 2.19 0 002.19-2.189h-2.19zm-3.965 0v2.189-2.189zm3.998 7.709h2.189a2.19 2.19 0 00-2.189-2.19v2.19zm0 3.919h2.189-2.189zm7.685 0h2.189-2.189zm0-3.919v-2.19a2.19 2.19 0 00-2.19 2.19h2.19zm.029-5.52h3.969v-4.378h-3.969v4.378zm-2.189-6.16v3.971h4.378v-3.971h-4.378zm-.265-.264c.146 0 .265.118.265.264h4.378a4.643 4.643 0 00-4.643-4.643v4.379zm-2.839 0h2.839v-4.379h-2.839v4.379zm-.264.264c0-.146.118-.264.264-.264v-4.379a4.643 4.643 0 00-4.643 4.643h4.379zm0 3.971v-3.971h-4.379v3.971h4.379zm-6.155 2.189h3.965v-4.378h-3.965v4.378zm-.264.265c0-.146.118-.265.264-.265v-4.378a4.643 4.643 0 00-4.643 4.643h4.379zm0 2.801v-2.801h-4.379v2.801h4.379zm.264.264a.264.264 0 01-.264-.264h-4.379a4.643 4.643 0 004.643 4.643v-4.379zm3.998 0h-3.998v4.379h3.998v-4.379zm2.189 6.109v-3.919h-4.378v3.919h4.378zm.265.265a.265.265 0 01-.265-.265h-4.378a4.643 4.643 0 004.643 4.643v-4.378zm2.777 0h-2.777v4.378h2.777v-4.378zm.264-.265a.265.265 0 01-.264.265v4.378a4.643 4.643 0 004.643-4.643h-4.379zm0-3.919v3.919h4.379v-3.919h-4.379zm6.188-2.19h-3.998v4.379h3.998v-4.379zm.264-.264a.264.264 0 01-.264.264v4.379a4.643 4.643 0 004.643-4.643h-4.379zm0-2.801v2.801h4.379v-2.801h-4.379zm-.264-.265c.146 0 .264.119.264.265h4.379a4.643 4.643 0 00-4.643-4.643v4.378z" fill="#FF7575" mask="url(#a)"/></svg>