<svg width="480" height="352" fill="none" xmlns="http://www.w3.org/2000/svg"><path fill="#fff" d="M-.748.357h480v351h-480z"/><path fill="#fff" d="M151.829 111.59h176v128.535h-176z"/><path d="M181.383 203.466l1.479-3.775h6.587l1.479 3.775h4.907l-7.394-17.864h-4.369l-7.462 17.864h4.773zm4.84-12.134l1.814 4.719h-3.697l1.883-4.719zm20.703 12.134c1.882 0 3.428-.472 4.571-1.416 1.142-.943 1.747-2.157 1.747-3.707 0-1.281-.336-2.36-1.008-3.169-.672-.809-1.479-1.348-2.353-1.55a3.823 3.823 0 002.084-3.438c0-2.899-2.285-4.517-5.512-4.517h-8.604v17.797h9.075zm-4.571-7.618h3.697c1.344 0 2.218.742 2.218 1.888s-.806 1.888-2.218 1.888h-3.697v-3.776zm0-6.471h3.361c1.143 0 1.815.607 1.815 1.55 0 .944-.74 1.551-1.815 1.551h-3.361v-3.101zm17.275 14.089l7.461-10.112v10.112h4.571v-17.797h-3.966l-7.327 10.045v-10.045h-4.57v17.797h3.831zm18.754 0l1.479-3.775h6.587l1.479 3.775h4.907l-7.461-17.864h-4.369l-7.395 17.864h4.773zm4.84-12.134l1.882 4.719h-3.697l1.815-4.719zm17.947 12.134v-13.752h5.31v-4.045H251.29v4.045h5.31v13.752h4.571zm11.965-5.258c-.874-.944-1.345-2.157-1.345-3.573s.404-2.697 1.345-3.573c.874-.944 2.016-1.416 3.361-1.416 1.344 0 2.42.472 3.293 1.416.874.944 1.345 2.157 1.345 3.573s-.471 2.697-1.345 3.573c-.873.944-1.949 1.416-3.293 1.416-1.345 0-2.487-.472-3.361-1.416zm10.015 2.899c1.748-1.82 2.689-3.978 2.689-6.539 0-2.562-.874-4.719-2.689-6.539-1.747-1.821-4.033-2.697-6.654-2.697-2.689 0-4.907.876-6.655 2.697-1.748 1.82-2.689 3.977-2.689 6.539 0 2.561.874 4.719 2.689 6.539 1.748 1.82 4.033 2.696 6.655 2.696 2.621 0 4.907-.876 6.654-2.696zm10.083 2.359v-6.606h3.361c1.949 0 3.563-.54 4.705-1.551 1.143-1.011 1.748-2.359 1.748-4.045 0-1.685-.605-2.966-1.748-4.044-1.142-1.012-2.756-1.551-4.705-1.551h-7.864v17.797h4.503zm0-13.887h3.025c1.344 0 2.151.607 2.151 1.753s-.874 1.753-2.151 1.753h-3.025v-3.506z" fill="#41ACFA"/><path d="M179.704 214.306v-3.641h1.479v-.876h-3.966v.876h1.479v3.641h1.008zm9.881-.742c-.403 0-.807-.135-1.076-.404-.268-.27-.403-.607-.403-1.079 0-.404.135-.809.403-1.079.269-.269.605-.404 1.076-.404.403 0 .739.135 1.075.404.269.27.404.607.404 1.079 0 .405-.135.809-.404 1.079-.336.269-.672.404-1.075.404zm0 .876c.739 0 1.277-.202 1.748-.674.47-.472.672-1.011.672-1.685 0-.674-.202-1.213-.672-1.685-.471-.472-1.076-.674-1.748-.674-.739 0-1.277.202-1.748.674-.47.472-.672 1.011-.672 1.685 0 .674.202 1.213.672 1.685.404.405 1.009.674 1.748.674zm11.494-4.718c-.672 0-1.21.269-1.613.741v-.607h-.941v6.337h1.008v-2.427c.404.472.874.742 1.614.742.604 0 1.142-.202 1.546-.674.403-.472.605-1.011.605-1.686 0-.674-.202-1.213-.605-1.685-.471-.539-.942-.741-1.614-.741zm-.269.876c.404 0 .74.135 1.009.472.269.269.403.607.403 1.078 0 .405-.134.742-.403 1.079-.269.27-.605.405-1.009.405-.605 0-1.075-.338-1.344-.809v-1.416c.269-.472.807-.809 1.344-.809zm9.949 3.708v-3.641h2.487v-.876h-3.428v4.517h.941zm10.889-.742c-.403 0-.807-.135-1.075-.404-.269-.27-.404-.607-.404-1.079 0-.404.135-.809.404-1.079.268-.269.605-.404 1.075-.404.471 0 .74.135 1.076.404.268.27.403.607.403 1.079 0 .405-.135.809-.403 1.079-.336.269-.673.404-1.076.404zm0 .876c.74 0 1.277-.202 1.748-.674.47-.472.672-1.011.672-1.685 0-.674-.202-1.213-.672-1.685-.471-.472-1.076-.674-1.748-.674-.739 0-1.277.202-1.748.674-.47.472-.672 1.011-.672 1.685 0 .674.202 1.213.672 1.685.471.472 1.009.674 1.748.674zm11.494-.134c1.009 0 1.546-.472 1.546-1.214 0-.606-.268-.944-.873-1.146.336-.135.605-.539.605-.944 0-.674-.471-1.146-1.412-1.146h-2.42v4.45h2.554zm-1.613-1.888h1.412c.47 0 .739.202.739.539s-.269.54-.739.54h-1.412v-1.079zm0-1.82h1.21c.471 0 .672.135.672.472 0 .269-.269.472-.672.472h-1.21v-.944zm15.192 3.708v-4.517h-1.009v4.517h1.009zm-3.361 0c.537 0 1.008-.135 1.277-.472.336-.27.47-.674.47-1.146 0-.944-.739-1.551-1.815-1.551h-1.075v-1.348h-1.008v4.517h2.151zm-1.076-2.292h.941c.605 0 .941.269.941.741s-.336.742-.941.742h-.941v-1.483zm12.234 2.292l2.42-3.034v3.034h1.008v-4.517h-.941l-2.42 3.034v-3.034h-1.008v4.517h.941zm1.21-5.056c.941 0 1.546-.607 1.546-1.483h-.807c0 .471-.336.741-.739.741-.471 0-.74-.337-.74-.741h-.806c0 .876.605 1.483 1.546 1.483zm17.208 6.269v-1.213h3.697v1.213h.941v-2.09h-.807v-3.64h-3.562c0 1.011-.068 1.753-.135 2.292-.067.539-.269.944-.47 1.348h-.605v2.09h.941zm.672-2.09c.336-.674.538-1.55.538-2.764h1.68v2.764h-2.218zm12.502.135c-.403 0-.806-.135-1.075-.404-.269-.27-.403-.607-.403-1.079 0-.404.134-.809.403-1.079.269-.269.605-.404 1.075-.404.404 0 .74.135 1.076.404.269.27.403.607.403 1.079 0 .405-.134.809-.403 1.079-.336.269-.672.404-1.076.404zm0 .876c.74 0 1.278-.202 1.748-.674.471-.472.672-1.011.672-1.685 0-.674-.201-1.213-.672-1.685-.47-.472-1.075-.674-1.748-.674-.739 0-1.277.202-1.747.674-.471.472-.672 1.011-.672 1.685 0 .674.201 1.213.672 1.685.403.405 1.008.674 1.747.674zm9.882-.134v-3.169l1.344 1.686h.403l1.345-1.686v3.169h.941v-4.517h-.941l-1.546 1.888-1.546-1.888h-.941v4.517h.941zm-75.351-48.923l6.406-5.176v15.468h-6.406v-10.292zm38.379 0l-6.407-5.176v15.468h6.407v-10.292z" fill="#5C6B72"/><path d="M224.791 146.821l14.593-11.303 15.067 11.303" stroke="#F5BA40" stroke-width="2.606"/><path d="M227.047 160.207l-6.406 5.176v9.875h6.406v-15.051zm25.566 0l6.407 5.176v9.875h-6.407v-15.051z" fill="#5C6B72"/><path d="M239.384 133.673l15.957 11.958-1.779 2.38-14.118-10.649-13.762 10.649-1.839-2.38 15.541-11.958z" fill="#F5BA40"/><path d="M239.684 141.467l-9.907 7.615v26.592h7.475v-11.125h4.745v11.125h7.89v-26.533l-10.203-7.674zm2.55 16.062h-4.804v-4.342h4.804v4.342z" fill="#41ACFA"/></svg>