<svg width="115" height="115" fill="none" xmlns="http://www.w3.org/2000/svg"><path d="M.872 9a8.5 8.5 0 018.5-8.5h69a8.5 8.5 0 018.5 8.5v69.5h-86V9z" stroke="#000"/><path d="M.872 9a8.5 8.5 0 018.5-8.5h69a8.5 8.5 0 018.5 8.5v6.5h-86V9z" fill="#fff" stroke="#000"/><circle transform="scale(-1 1) rotate(28.174 -20.318 -15.558)" fill="#000" r="2.224"/><circle transform="scale(-1 1) rotate(28.174 -24.003 -30.24)" fill="#000" r="2.224"/><circle transform="scale(-1 1) rotate(28.174 -27.688 -44.925)" fill="#000" r="2.224"/><circle transform="scale(-1 1) rotate(28.174 -112.896 -47.802)" fill="#fff" r="3.923"/><mask id="a" fill="#fff"><path fill-rule="evenodd" clip-rule="evenodd" d="M45.833 33.747l-6.761 3.023a11.398 11.398 0 00-2.9-.43l-5.65-4.698a17.3 17.3 0 00-4.888 2.618l.78 7.304a11.36 11.36 0 00-1.251 2.655L18.9 48.173c.027 1.827.347 3.67.98 5.456l7.587 1.6a11.233 11.233 0 001.637 1.52l1.926 7.58c1.769.544 3.625.804 5.493.758l4.018-6.984a11.544 11.544 0 001.568-.84l8.039.526a17.235 17.235 0 002.412-4.994l-5.243-5.805a11.275 11.275 0 00-.356-2.2l2.872-7.202a17.063 17.063 0 00-4-3.841zm-8.035 17.352a3.923 3.923 0 11-3.705-6.916 3.923 3.923 0 013.705 6.916z"/></mask><path fill-rule="evenodd" clip-rule="evenodd" d="M45.833 33.747l-6.761 3.023a11.398 11.398 0 00-2.9-.43l-5.65-4.698a17.3 17.3 0 00-4.888 2.618l.78 7.304a11.36 11.36 0 00-1.251 2.655L18.9 48.173c.027 1.827.347 3.67.98 5.456l7.587 1.6a11.233 11.233 0 001.637 1.52l1.926 7.58c1.769.544 3.625.804 5.493.758l4.018-6.984a11.544 11.544 0 001.568-.84l8.039.526a17.235 17.235 0 002.412-4.994l-5.243-5.805a11.275 11.275 0 00-.356-2.2l2.872-7.202a17.063 17.063 0 00-4-3.841zm-8.035 17.352a3.923 3.923 0 11-3.705-6.916 3.923 3.923 0 013.705 6.916z" fill="#FFE259"/><path d="M39.072 36.77l.408.912-.332.149-.349-.1.273-.962zm6.761-3.023l-.408-.913.512-.23.463.319-.567.824zm-9.661 2.592l-.018 1-.352-.006-.27-.225.64-.769zm-5.65-4.697l-.325-.945.532-.183.432.36-.639.768zm-4.888 2.618l-.994.106-.06-.559.447-.342.607.795zm.78 7.304l.994-.106.037.35-.19.296-.842-.54zm-1.251 2.655l.952.307-.112.345-.307.194-.533-.846zM18.9 48.173l-1 .014-.008-.56.474-.3.534.846zm.98 5.456l-.206.978-.549-.115-.187-.529.943-.334zm7.587 1.6l.206-.978.324.068.219.248-.75.662zm1.637 1.52l.604-.797.279.211.086.34-.97.246zm1.926 7.58l-.294.955-.537-.165-.138-.544.97-.247zm5.493.758l.867.499-.28.487-.562.014-.025-1zm4.018-6.984l-.866-.498.163-.285.3-.132.403.915zm1.568-.84l-.54-.842.277-.177.328.022-.065.998zm8.039.526l.819.575-.323.46-.561-.037.065-.998zm2.412-4.994l.742-.67.377.416-.16.539-.959-.285zm-5.243-5.805l-.742.67-.234-.26-.022-.348.998-.062zm-.356-2.2l-.967.258-.085-.32.123-.308.929.37zm2.872-7.202l.8-.6.336.45-.208.52-.928-.37zM32.487 49.493l-.882.473.882-.473zm5.31 1.606l-.471-.881.472.881zm-3.704-6.916l-.472-.882.472.882zm5.31 1.606l.882-.473-.881.473zm-.74-9.932l6.762-3.023.816 1.826-6.761 3.022-.816-1.825zm-2.473-.517c1.071.019 2.132.178 3.154.467l-.545 1.925a10.403 10.403 0 00-2.645-.393l.036-2zm-5.029-4.467l5.65 4.697-1.279 1.538-5.65-4.697 1.28-1.538zm-3.66 1.001c.879-.471 1.78-.863 2.696-1.177l.65 1.891c-.814.28-1.618.629-2.402 1.05l-.945-1.764zm-2.474 1.591a18.31 18.31 0 012.473-1.59l.945 1.762c-.785.42-1.52.895-2.204 1.418l-1.214-1.59zm.392 8.205l-.779-7.304 1.989-.212.779 7.304-1.99.212zm-1.208 2.243a12.393 12.393 0 011.36-2.888l1.684 1.079a10.397 10.397 0 00-1.14 2.422l-1.904-.613zm-5.845 3.414l6.263-3.953 1.067 1.691-6.262 3.953-1.068-1.691zm.572 6.636a18.062 18.062 0 01-1.038-5.776l2-.03a16.04 16.04 0 00.923 5.138l-1.885.668zm8.322 2.245l-7.586-1.6.413-1.957 7.586 1.6-.413 1.957zm1.24 1.337a12.273 12.273 0 01-1.783-1.654l1.499-1.324c.455.516.956.978 1.492 1.385l-1.209 1.593zm1.561 7.03l-1.927-7.58 1.939-.493 1.926 7.58-1.938.493zm6.487 1.512a18.238 18.238 0 01-5.812-.803l.588-1.911a16.25 16.25 0 005.175.715l.049 1.999zm4.86-7.485l-4.018 6.984-1.733-.998 4.018-6.983 1.733.997zm.404-.006c-.286.153-.575.294-.868.423l-.806-1.831c.246-.108.49-.226.73-.355l.944 1.763zm.835-.49c-.27.173-.548.336-.835.49l-.944-1.763c.241-.13.475-.267.702-.412l1.077 1.685zm7.436.68l-8.04-.525.13-1.995 8.04.525-.13 1.996zm3.436-5.706a18.238 18.238 0 01-2.552 5.284l-1.637-1.15a16.235 16.235 0 002.272-4.704l1.917.57zm-5.46-6.76l5.243 5.805-1.484 1.34-5.243-5.805 1.484-1.34zm-.132-1.786c.21.791.339 1.593.388 2.394l-1.996.124a10.281 10.281 0 00-.325-2.005l1.933-.513zm2.834-6.576l-2.872 7.203-1.857-.74 2.872-7.204 1.857.741zM46.4 32.923a18.065 18.065 0 014.233 4.065l-1.6 1.199a16.064 16.064 0 00-3.766-3.616l1.133-1.648zM33.368 49.02a2.923 2.923 0 003.958 1.197l.944 1.763a4.923 4.923 0 01-6.665-2.015l1.763-.945zm1.197-3.957a2.923 2.923 0 00-1.197 3.957l-1.763.945a4.923 4.923 0 012.016-6.665l.944 1.763zm3.957 1.197a2.923 2.923 0 00-3.957-1.197l-.944-1.763a4.923 4.923 0 016.664 2.015l-1.763.945zm-1.196 3.957a2.923 2.923 0 001.196-3.957l1.763-.945a4.923 4.923 0 01-2.015 6.665l-.944-1.763z" fill="#000" mask="url(#a)"/><mask id="b" fill="#fff"><path fill-rule="evenodd" clip-rule="evenodd" d="M52.91 62.438c-.91 0-1.962.67-2.064 1.563a31.306 31.306 0 00.014 7.218c.111.93.958 1.63 1.88 1.557l.397-.01c2.84 0 5.478 1.728 6.57 4.302 1.16 2.735.436 5.918-1.8 7.918a1.749 1.749 0 00-.191 2.412 31.82 31.82 0 005.195 5.077c.74.565 1.789.483 2.423-.2 1.912-2.074 5.31-2.855 7.954-1.788a7.052 7.052 0 014.394 6.769 1.773 1.773 0 001.59 1.817 32.23 32.23 0 007.225-.02 1.768 1.768 0 001.575-1.854 7.034 7.034 0 014.346-6.888c2.646-1.099 6.084-.321 8.006 1.779a1.8 1.8 0 002.444.192 31.738 31.738 0 005.08-5.08 1.748 1.748 0 00-.195-2.392c-2.196-1.99-2.919-5.143-1.796-7.849 1.127-2.71 3.811-4.42 6.608-4.35.921 0 2.005-.665 2.106-1.56a31.388 31.388 0 00-.014-7.218c-.112-.916-.837-1.591-1.855-1.56-3.138 0-5.879-1.68-6.987-4.29-1.161-2.736-.44-5.918 1.795-7.92a1.751 1.751 0 00.192-2.411 31.776 31.776 0 00-5.195-5.077 1.806 1.806 0 00-2.424.2c-1.91 2.078-5.324 2.85-7.95 1.79a7.06 7.06 0 01-4.398-6.771 1.773 1.773 0 00-1.59-1.817 32.41 32.41 0 00-7.224.019 1.768 1.768 0 00-1.577 1.854c.172 2.972-1.573 5.741-4.337 6.891-2.657 1.096-6.096.317-8.01-1.778a1.804 1.804 0 00-2.44-.195 31.588 31.588 0 00-5.088 5.078 1.75 1.75 0 00.196 2.394c2.192 1.988 2.913 5.143 1.795 7.848-1.095 2.642-3.707 4.35-6.65 4.35zm19.329 5.09c0 5.74 4.709 10.395 10.518 10.395 5.808 0 10.518-4.654 10.518-10.396 0-5.741-4.71-10.396-10.518-10.396-5.81 0-10.518 4.655-10.518 10.396z"/></mask><path fill-rule="evenodd" clip-rule="evenodd" d="M52.91 62.438c-.91 0-1.962.67-2.064 1.563a31.306 31.306 0 00.014 7.218c.111.93.958 1.63 1.88 1.557l.397-.01c2.84 0 5.478 1.728 6.57 4.302 1.16 2.735.436 5.918-1.8 7.918a1.749 1.749 0 00-.191 2.412 31.82 31.82 0 005.195 5.077c.74.565 1.789.483 2.423-.2 1.912-2.074 5.31-2.855 7.954-1.788a7.052 7.052 0 014.394 6.769 1.773 1.773 0 001.59 1.817 32.23 32.23 0 007.225-.02 1.768 1.768 0 001.575-1.854 7.034 7.034 0 014.346-6.888c2.646-1.099 6.084-.321 8.006 1.779a1.8 1.8 0 002.444.192 31.738 31.738 0 005.08-5.08 1.748 1.748 0 00-.195-2.392c-2.196-1.99-2.919-5.143-1.796-7.849 1.127-2.71 3.811-4.42 6.608-4.35.921 0 2.005-.665 2.106-1.56a31.388 31.388 0 00-.014-7.218c-.112-.916-.837-1.591-1.855-1.56-3.138 0-5.879-1.68-6.987-4.29-1.161-2.736-.44-5.918 1.795-7.92a1.751 1.751 0 00.192-2.411 31.776 31.776 0 00-5.195-5.077 1.806 1.806 0 00-2.424.2c-1.91 2.078-5.324 2.85-7.95 1.79a7.06 7.06 0 01-4.398-6.771 1.773 1.773 0 00-1.59-1.817 32.41 32.41 0 00-7.224.019 1.768 1.768 0 00-1.577 1.854c.172 2.972-1.573 5.741-4.337 6.891-2.657 1.096-6.096.317-8.01-1.778a1.804 1.804 0 00-2.44-.195 31.588 31.588 0 00-5.088 5.078 1.75 1.75 0 00.196 2.394c2.192 1.988 2.913 5.143 1.795 7.848-1.095 2.642-3.707 4.35-6.65 4.35zm19.329 5.09c0 5.74 4.709 10.395 10.518 10.395 5.808 0 10.518-4.654 10.518-10.396 0-5.741-4.71-10.396-10.518-10.396-5.81 0-10.518 4.655-10.518 10.396z" fill="#082C46"/><path d="M50.846 64.001l-.993-.113.993.113zm.014 7.218l-.993.118.993-.118zm1.88 1.557l-.08-.997.027-.002.027-.001.026 1zm.397-.01l-.026-1h.026v1zm6.57 4.302l-.921.39.92-.39zm-1.8 7.918l-.667-.745.667.745zm-.191 2.412l.775-.631-.775.632zm5.195 5.077l-.607.795-.006-.004.613-.79zm2.423-.2l.736.677-.003.003-.733-.68zm7.954-1.788l.374-.928-.374.928zm4.394 6.769l-1-.035v-.002l1 .037zm1.59 1.817l.108-.994-.109.994zm7.225-.02l-.115-.993h.003l.112.994zm1.575-1.854l-.998.06v-.003l.998-.057zm4.346-6.888l.383.923H92.8l-.382-.923zm8.006 1.779l-.737.676h-.001l.738-.676zm2.444.192l.623.782-.623-.782zm5.08-5.08l-.784-.622.003-.004.781.625zm-.195-2.392l.671-.74h.001l-.672.74zm-1.796-7.849l-.924-.383.001-.001.923.384zm6.608-4.35v1h-.025l.025-1zm2.106-1.56l.994.112-.994-.113zm-.014-7.218l.993-.121v.003l-.993.118zm-1.855-1.56l.031 1h-.031v-1zm-6.987-4.29l-.921.391.921-.39zm1.795-7.92l.669.744-.002.002-.667-.746zm.192-2.411l-.776.63h-.001l.777-.63zm-5.195-5.077l.61-.792.003.002-.613.79zm-2.424.2l-.736-.676.001-.001.735.678zm-7.95 1.79l-.374.928h-.001l.375-.927zm-4.398-6.771l1 .034-1-.034zm-1.59-1.817l-.108.994.109-.994zm-7.224.019l-.115-.994.115.994zm-1.577 1.854l.998-.06v.002l-.998.058zm-4.337 6.891l.384.923-.003.002-.381-.925zm-8.01-1.778l.739-.675-.739.675zm-2.44-.195l.62.783-.62-.783zm-5.088 5.078l.782.623-.782-.623zm.196 2.394l.67-.742.001.001-.671.741zm1.795 7.848l.925.382v.001l-.925-.383zm-9.707 5.8c.092-.811.6-1.43 1.14-1.816a3.365 3.365 0 011.917-.635v2a1.37 1.37 0 00-.752.26c-.24.172-.309.336-.318.417l-1.987-.226zm.014 7.449a32.302 32.302 0 01-.014-7.449l1.987.226a30.3 30.3 0 00.013 6.987l-1.986.236zm2.953 2.435c-1.467.118-2.78-.982-2.953-2.435l1.986-.237c.049.406.431.709.807.679l.16 1.993zm.343-.007l-.396.01-.053-2 .397-.01.052 2zm5.623 3.693c-.931-2.196-3.203-3.693-5.65-3.693v-2c3.233 0 6.24 1.962 7.491 4.913l-1.841.78zm-1.546 6.783c1.922-1.72 2.537-4.447 1.546-6.782l1.84-.782c1.332 3.135.498 6.773-2.052 9.054l-1.334-1.49zm-.3 3.789a2.749 2.749 0 01.3-3.789l1.334 1.49a.749.749 0 00-.083 1.036l-1.55 1.263zm5.358 5.236a32.82 32.82 0 01-5.358-5.237l1.552-1.261a30.82 30.82 0 005.031 4.917l-1.225 1.58zm3.769-.31a2.809 2.809 0 01-3.763.314l1.214-1.59a.809.809 0 001.084-.086l1.465 1.361zm6.846-1.542c-2.255-.91-5.213-.23-6.843 1.538l-1.471-1.355c2.192-2.378 6.032-3.26 9.063-2.038l-.749 1.855zm3.77 5.805a6.052 6.052 0 00-3.77-5.805l.75-1.854a8.052 8.052 0 015.019 7.732l-2-.073zm2.48 2.848a2.773 2.773 0 01-2.48-2.846l1.999.069a.773.773 0 00.698.79l-.217 1.987zm3.634.199c-1.212 0-2.423-.065-3.635-.199l.219-1.988c1.138.125 2.277.187 3.416.187v2zm3.815-.219a33.296 33.296 0 01-3.815.219v-2c1.2 0 2.396-.068 3.585-.206l.23 1.987zm2.458-2.908a2.767 2.767 0 01-2.46 2.908l-.225-1.987a.768.768 0 00.689-.8l1.996-.12zm3.73-5.904a6.034 6.034 0 00-3.73 5.907l-1.996.114a8.034 8.034 0 014.962-7.87l.764 1.849zm6.886 1.53c-1.64-1.791-4.63-2.467-6.885-1.53l-.767-1.848c3.038-1.26 6.923-.38 9.127 2.028l-1.475 1.35zm3.805.3a2.801 2.801 0 01-3.804-.299l1.473-1.352a.8.8 0 001.085.085l1.246 1.565zm5.24-5.242a32.678 32.678 0 01-5.24 5.241l-1.246-1.565a30.662 30.662 0 004.919-4.92l1.567 1.244zm-.306-3.753a2.746 2.746 0 01.303 3.756l-1.561-1.25a.748.748 0 00-.086-1.025l1.344-1.481zm-1.545-6.726c-.957 2.309-.344 5.014 1.544 6.725l-1.343 1.482c-2.504-2.27-3.335-5.87-2.048-8.973l1.847.766zm5.66-3.732c-2.381-.06-4.69 1.402-5.66 3.733l-1.846-.768c1.284-3.088 4.343-5.046 7.556-4.965l-.05 2zm3.125-2.45c-.094.825-.621 1.444-1.167 1.825a3.461 3.461 0 01-1.933.625v-2c.238 0 .542-.093.788-.265.251-.175.316-.338.324-.41l1.988.226zm-.015-7.447c.292 2.461.295 4.969.015 7.448l-1.988-.225c.264-2.328.26-4.681-.013-6.987l1.986-.236zm-2.88-2.44c1.545-.05 2.706 1.017 2.88 2.437l-1.986.242c-.05-.41-.339-.696-.831-.68l-.063-2zm-6.035-3.683c.931 2.192 3.274 3.682 6.067 3.682v2c-3.483 0-6.622-1.872-7.908-4.9l1.841-.782zm1.542-6.783c-1.921 1.719-2.534 4.446-1.542 6.784l-1.841.781c-1.33-3.136-.501-6.773 2.049-9.056l1.334 1.49zm.301-3.788a2.751 2.751 0 01-.299 3.786l-1.337-1.487a.75.75 0 00.084-1.037l1.552-1.262zm-5.358-5.236a32.723 32.723 0 015.358 5.237l-1.553 1.26a30.777 30.777 0 00-5.031-4.917l1.226-1.58zm-3.772.313a2.805 2.805 0 013.769-.315l-1.221 1.584a.805.805 0 00-1.078.087l-1.47-1.356zm-6.84 1.54c2.239.904 5.21.232 6.84-1.539l1.471 1.354c-2.192 2.383-6.048 3.256-9.06 2.04l.749-1.855zm-3.773-5.81a6.06 6.06 0 003.774 5.81l-.751 1.855a8.06 8.06 0 01-5.022-7.735l1.999.07zm-2.48-2.845a2.773 2.773 0 012.48 2.845l-2-.069a.773.773 0 00-.698-.788l.218-1.988zm-7.448.019a33.421 33.421 0 017.448-.02l-.218 1.989a31.41 31.41 0 00-7.003.018l-.227-1.987zm-2.461 2.908a2.769 2.769 0 012.46-2.908l.229 1.987a.768.768 0 00-.693.801l-1.996.12zm-3.723 5.908c2.375-.988 3.87-3.366 3.723-5.91l1.997-.116c.196 3.4-1.8 6.561-4.952 7.872l-.768-1.846zm-6.887-1.53c1.63 1.785 4.621 2.464 6.89 1.529l.762 1.849c-3.046 1.255-6.932.377-9.129-2.029l1.477-1.349zm-3.8-.304a2.804 2.804 0 013.8.304l-1.477 1.35a.804.804 0 00-1.082-.087l-1.242-1.567zm-5.25 5.239a32.587 32.587 0 015.25-5.24l1.24 1.569a30.581 30.581 0 00-4.925 4.917l-1.564-1.246zm.308 3.759a2.75 2.75 0 01-.307-3.76l1.563 1.248a.75.75 0 00.085 1.028l-1.34 1.484zm1.542 6.724c.955-2.31.341-5.017-1.543-6.725l1.343-1.482c2.501 2.268 3.33 5.87 2.049 8.971l-1.849-.764zm-5.726 3.731c2.555 0 4.792-1.477 5.727-3.732l1.847.766c-1.256 3.03-4.242 4.967-7.574 4.967v-2zm29.847 17.486c-6.35 0-11.518-5.091-11.518-11.396h2c0 5.178 4.25 9.396 9.518 9.396v2zm11.518-11.396c0 6.305-5.168 11.396-11.518 11.396v-2c5.267 0 9.518-4.218 9.518-9.396h2zM82.757 56.131c6.35 0 11.518 5.091 11.518 11.396h-2c0-5.178-4.25-9.396-9.518-9.396v-2zM71.239 67.527c0-6.305 5.167-11.396 11.518-11.396v2c-5.268 0-9.518 4.218-9.518 9.396h-2z" fill="#000" mask="url(#b)"/><path d="M82.756 77.923c-5.808 0-10.517-4.654-10.517-10.396 0-5.741 4.709-10.396 10.517-10.396 5.81 0 10.518 4.655 10.518 10.396 0 5.742-4.709 10.396-10.518 10.396z" fill="#fff"/></svg>