<svg width="445" height="283" fill="none" xmlns="http://www.w3.org/2000/svg"><path d="M404.223 219.685H255.204l40.777 32.067H445l-40.777-32.067z" fill="#006591"/><path d="M221.066 7.066a6.562 6.562 0 016.562-6.562h161.07a6.562 6.562 0 016.563 6.562V213H221.066V7.066z" fill="#000" stroke="#000" stroke-width=".875"/><path d="M229.751 15.315a8.125 8.125 0 018.125-8.125h157.07a8.124 8.124 0 018.125 8.125V218.81h-173.32V15.315z" fill="#fff" stroke="#000" stroke-width="1.75"/><path fill="#E2F6FF" stroke="#000" stroke-width=".875" d="M256.444 111.144h108.38v4.729h-108.38zm120.597 0h46.154v4.729h-46.154zm-74.792-19.819h49.074v4.729h-49.074zm63.45 0h57.496v4.729h-57.496zm-109.255.001h31.688v4.729h-31.688zm91.455 39.897h75.296v4.729h-75.296zm-91.455 0h77.518v4.729h-77.518zm0-79.628h108.38v4.729h-108.38zm120.596 0h46.154v4.729H377.04zm-74.791-19.819h49.074v4.729h-49.074zm63.45 0h57.496v4.729h-57.496zm-109.256 0h31.688v4.729h-31.688zM347.9 71.674h75.296v4.729H347.9zm-91.456 0h77.518v4.729h-77.518zm66.169 98.073h42.21v4.729h-42.21zm54.427 0h46.154v4.729H377.04zm-74.792-19.819h49.074v4.729h-49.074zm63.45 0h57.496v4.729h-57.496zm-109.255 0h31.688v4.729h-31.688zm72.455 39.898h94.296v4.73h-94.296v-4.73z"/><path d="M213.209 165.704h95.742v88.848h-95.742v-88.848z" fill="#F5F8FA"/><path d="M266.64 267.474h-16.006v-6.302c-4.369 5.209-10.797 7.814-19.283 7.814-5.461 0-10.376-1.764-14.745-5.293-4.285-3.613-6.428-8.57-6.428-14.872 0-6.553 2.101-11.468 6.302-14.745 4.285-3.277 9.242-4.915 14.871-4.915 8.654 0 15.082 2.478 19.283 7.435v-8.191c0-3.109-1.218-5.588-3.655-7.436-2.437-1.849-5.671-2.773-9.704-2.773-6.638 0-12.561 2.395-17.77 7.184l-6.05-10.713c7.226-6.385 16.09-9.578 26.592-9.578 7.814 0 14.2 1.807 19.157 5.419 4.957 3.613 7.436 9.495 7.436 17.645v39.321zm-28.861-9.327c5.965 0 10.25-1.764 12.855-5.293v-7.562c-2.605-3.528-6.89-5.293-12.855-5.293-3.277 0-6.008.84-8.192 2.521-2.185 1.596-3.277 3.823-3.277 6.679 0 2.773 1.092 4.958 3.277 6.554 2.184 1.596 4.915 2.394 8.192 2.394z" fill="#000"/><path d="M190.255 261.848h.628l-.217-.589L128.66 93.136l-.106-.286H63.921l-.105.286L1.809 261.259l-.217.589h58.672l.095-.309 5.955-19.352h59.847l5.955 19.352.095.309h58.044zM80.194 196.95l16.043-52.264 16.044 52.264H80.194z" fill="#000" stroke="#000" stroke-width=".875"/><path fill="#000" d="M281.515 191.388h4.835v91.403h-4.835z"/><path d="M198.022 267.3h1.256l-.435-1.178-62.006-168.123-.211-.572H71.383l-.211.572L9.165 266.122l-.434 1.178h59.623l.19-.618 5.86-19.043h59.201l5.859 19.043.19.618h58.368zm-109.47-65.773l15.452-50.335 15.452 50.335H88.552z" fill="#E2F6FF" stroke="#000" stroke-width="1.75"/><mask id="a" fill="#fff"><path fill-rule="evenodd" clip-rule="evenodd" d="M198.022 31.338h-24.269v92.374h.02l12.114 21.526 12.114-21.526h.021V31.338z"/></mask><path fill-rule="evenodd" clip-rule="evenodd" d="M198.022 31.338h-24.269v92.374h.02l12.114 21.526 12.114-21.526h.021V31.338z" fill="#FFE259"/><path d="M173.753 31.338v-1h-1v1h1zm24.269 0h1v-1h-1v1zm-24.269 92.374h-1v1h1v-1zm.02 0l.872-.491-.287-.509h-.585v1zm12.114 21.526l-.871.49.871 1.549.872-1.549-.872-.49zm12.114-21.526v-1h-.584l-.287.509.871.491zm.021 0v1h1v-1h-1zm-24.269-91.374h24.269v-2h-24.269v2zm1 91.337V31.338h-2v92.337h2zm0 .037v-.037h-2v.037h2zm-.98-1h-.02v2h.02v-2zm-.871 1.49l12.114 21.526 1.743-.98-12.114-21.527-1.743.981zm13.857 21.526l12.114-21.526-1.743-.981-12.114 21.527 1.743.98zm11.263-23.016h-.021v2h.021v-2zm-1 .963v.037h2v-.037h-2zm0-92.337v92.337h2V31.338h-2z" fill="#000" mask="url(#a)"/><path d="M185.583 120.316l-3.091 2.38V31.838h6.792v90.858l-3.091-2.38-.305-.235-.305.235z" fill="#FFE259" stroke="#000"/><circle cx="240.001" cy="16.758" r="3.315" fill="#000"/><circle cx="252.001" cy="16.758" r="3.315" fill="#000"/><circle cx="264.001" cy="16.758" r="3.315" fill="#000"/></svg>