<svg width="390" height="313" fill="none" xmlns="http://www.w3.org/2000/svg"><path fill="#0089C4" stroke="#000" d="M385.839 236.787h-83.253v59.697h83.253z"/><path d="M385.839 236.787h-82.204l82.204 59.221v-59.221z" fill="#0089C4" stroke="#000"/><path d="M343.92 266.23l40.869-29.443h-82.203v59.221l41.334-29.778z" fill="#0089C4" stroke="#000"/><path d="M55.028 62.688a9 9 0 019-9h255.855a9 9 0 019 9v203.823H55.028V62.688z" fill="#000"/><path d="M65.832 70.41a8.125 8.125 0 018.125-8.125H329.81a8.125 8.125 0 018.125 8.125v202.948H65.832V70.41z" fill="#E2F6FF" stroke="#000" stroke-width="1.75"/><circle cx="80.73" cy="72.932" r="3.657" fill="#000"/><circle cx="93.968" cy="72.932" r="3.657" fill="#000"/><circle cx="107.206" cy="72.932" r="3.657" fill="#000"/><path fill="#fff" stroke="#000" d="M61.887 1.393H80.23V21.55H61.887z"/><path d="M61.887 1.393h17.709l-17.709 19.37V1.392z" fill="#fff" stroke="#000"/><path d="M80.23 20.762L62.522 1.392H80.23v19.37z" stroke="#000"/><path fill="#fff" stroke="#000" d="M334.846 45.437h54.492V2.559h-54.492z"/><path d="M334.846 45.437H388.4L334.846 3.092v42.345z" fill="#006591" stroke="#000"/><path d="M362.402 24.39l-26.617 21.047h53.553V3.092L362.402 24.39z" fill="#FFE259" stroke="#000"/><path d="M362.092 24.635l-26.307 20.802H388.4l-26.308-20.802z" fill="#E2F6FF" stroke="#000"/><path fill="#fff" stroke="#000" d="M50.394 183.582h21.985V163.28H50.394z"/><path d="M50.394 183.582h21.21l-21.21-19.657v19.657z" fill="#006591" stroke="#000"/><path d="M61.727 173.798l-10.558 9.784h21.21v-19.657l-10.653 9.873z" fill="#FFE259" stroke="#000"/><path d="M61.387 174.113l-10.218 9.469h20.435l-10.217-9.469z" fill="#E2F6FF" stroke="#000"/><path d="M247.464 200.489a5 5 0 015-5h86.348v37.38a5 5 0 01-5 5h-81.348a5 5 0 01-5-5v-32.38z" fill="#000"/><rect x="252.29" y="200.955" width="121.175" height="41.743" rx="4.5" fill="#FFE259" stroke="#000"/><path d="M286.294 229.073h-8.688v-16.008h8.424c1.456 0 2.584.4 3.384 1.2.816.784 1.224 1.744 1.224 2.88 0 .976-.264 1.792-.792 2.448-.528.656-1.184 1.064-1.968 1.224.864.128 1.592.568 2.184 1.32.592.752.888 1.624.888 2.616 0 1.248-.408 2.28-1.224 3.096-.816.816-1.96 1.224-3.432 1.224zm-1.008-9.6c.576 0 1.032-.16 1.368-.48.336-.32.504-.736.504-1.248s-.176-.928-.528-1.248c-.336-.336-.784-.504-1.344-.504h-4.272v3.48h4.272zm.12 6.648c.64 0 1.144-.16 1.512-.48.368-.336.552-.792.552-1.368 0-.528-.184-.968-.552-1.32-.368-.368-.872-.552-1.512-.552h-4.392v3.72h4.392zm18.914 2.952h-3.048v-1.464c-1.04 1.168-2.4 1.752-4.08 1.752-1.248 0-2.184-.32-2.808-.96-.624-.64-.936-1.536-.936-2.688v-8.232h3.048v7.032c0 1.424.712 2.136 2.136 2.136 1.072 0 1.952-.44 2.64-1.32v-7.848h3.048v11.592zm6.915.288c-1.072 0-1.888-.272-2.448-.816-.56-.544-.84-1.328-.84-2.352v-6.048h-1.92v-2.664h1.92v-3.168h3.072v3.168h2.352v2.664h-2.352v5.232c0 .368.096.672.288.912.192.24.448.36.768.36.48 0 .832-.112 1.056-.336l.648 2.304c-.56.496-1.408.744-2.544.744zm8.109 0c-1.072 0-1.888-.272-2.448-.816-.56-.544-.84-1.328-.84-2.352v-6.048h-1.92v-2.664h1.92v-3.168h3.072v3.168h2.352v2.664h-2.352v5.232c0 .368.096.672.288.912.192.24.448.36.768.36.48 0 .832-.112 1.056-.336l.648 2.304c-.56.496-1.408.744-2.544.744zm14.062-1.752c-1.12 1.168-2.608 1.752-4.464 1.752-1.856 0-3.344-.584-4.464-1.752-1.104-1.184-1.656-2.632-1.656-4.344 0-1.712.552-3.152 1.656-4.32 1.12-1.168 2.608-1.752 4.464-1.752 1.856 0 3.344.584 4.464 1.752 1.12 1.168 1.68 2.608 1.68 4.32 0 1.712-.56 3.16-1.68 4.344zm-6.624-1.92c.528.64 1.248.96 2.16.96.912 0 1.632-.32 2.16-.96.544-.656.816-1.464.816-2.424 0-.944-.272-1.736-.816-2.376-.528-.656-1.248-.984-2.16-.984-.912 0-1.632.328-2.16.984-.528.64-.792 1.432-.792 2.376 0 .96.264 1.768.792 2.424zm21.437 3.384h-3.048v-7.008c0-1.44-.712-2.16-2.136-2.16-1.104 0-1.984.456-2.64 1.368v7.8h-3.048v-11.592h3.048v1.512c1.008-1.2 2.36-1.8 4.056-1.8 1.248 0 2.184.328 2.808.984.64.656.96 1.56.96 2.712v8.184z" fill="#000"/><path fill="#E2F6FF" stroke="#000" d="M1.452 85.876H24.67v187.858H1.452z"/><path d="M25.17 258.842H18.3m6.87-51.928H18.3m6.87-51.928H18.3m6.87-51.928H18.3" stroke="#000"/><path fill="#E2F6FF" stroke="#000" stroke-width=".875" d="M8.27 266.198v-14.713h2.944v14.713zm0-51.928v-14.713h2.944v14.713zm0-51.928v-14.713h2.944v14.713zm0-51.928V95.7h2.944v14.713z"/><path fill="#000" stroke="#000" d="M106.103 172.496h84.652v98.798h-84.652z"/><path fill="#fff" stroke="#000" d="M114.305 179.281h86.448v132.918h-86.448z"/><circle cx="128.09" cy="212.227" r="4.727" fill="#FFE259" stroke="#000"/><path fill="#E2F6FF" stroke="#000" stroke-width=".875" d="M140.708 209.849h50.109v4.757h-50.109z"/><circle cx="128.09" cy="232.998" r="4.727" fill="#006591" stroke="#000"/><path fill="#E2F6FF" stroke="#000" stroke-width=".875" d="M140.708 230.62h50.109v4.757h-50.109z"/><circle cx="128.09" cy="274.609" r="4.727" fill="#E2F6FF" stroke="#000"/><path fill="#E2F6FF" stroke="#000" stroke-width=".875" d="M140.708 272.231h50.109v4.757h-50.109z"/><circle cx="128.09" cy="253.77" r="4.727" fill="#000" stroke="#000"/><path fill="#E2F6FF" stroke="#000" stroke-width=".875" d="M140.708 251.391h50.109v4.757h-50.109z"/><circle cx="128.09" cy="295.312" r="4.727" fill="#fff" stroke="#000"/><path fill="#E2F6FF" stroke="#000" stroke-width=".875" d="M140.708 292.933h50.109v4.757h-50.109z"/><path fill="#000" d="M122.863 191.682h33.882v3.819h-33.882zm60.123 1.435h8.921v.949h-8.921z"/><path fill="#000" d="M186.972 198.052v-8.921h.949v8.921z"/><path fill-rule="evenodd" clip-rule="evenodd" d="M366.697 38.847l.643 27.956 6.217-6.18 4.013 8.197 6.166.455-5.251-9.968h7.854l-19.642-20.46z" fill="#000"/><path d="M265.729 36.803l5.531 19.543.076.269.269.076 19.542 5.53-19.542 5.532-.269.076-.076.269-5.531 19.542-5.531-19.542-.076-.269-.269-.076-19.543-5.531 19.543-5.531.269-.076.076-.27 5.531-19.542z" fill="#fff" stroke="#000"/><path fill="#E2F6FF" d="M207.428 88.019h101.126v80.245H207.428z"/><path d="M212.997 167.524l34.878-61.991 34.879 61.991h-69.757z" fill="#0089C4" stroke="#000"/><path d="M249.399 167.524l31.255-43.962 31.255 43.962h-62.51z" fill="#006591" stroke="#000"/><circle cx="302.086" cy="101.735" r="10.791" fill="#FFE259"/><path fill="#fff" stroke="#000" d="M95.342 97.707h110.107v42.878H95.342z"/><path fill="#000" d="M92.412 137.438h5.795v5.795h-5.795zm110.087 0h5.795v5.795h-5.795zM92.412 94.309h5.795v5.795h-5.795zm110.087 0h5.795v5.795h-5.795zm-86.807 32.546h-2.324v-16.604h-5.908v-2.072h14.168v2.072h-5.936v16.604zm9.977-15.456a1.389 1.389 0 01-1.4-1.4c0-.392.14-.728.42-1.008.28-.28.607-.42.98-.42.392 0 .728.14 1.008.42.28.28.42.616.42 1.008s-.14.728-.42 1.008c-.28.262-.616.392-1.008.392zm1.064 15.456h-2.1v-13.524h2.1v13.524zm7.605.336c-.989 0-1.736-.27-2.24-.812-.504-.541-.756-1.325-.756-2.352v-8.848h-2.24v-1.848h2.24v-3.696h2.1v3.696h2.744v1.848h-2.744v8.4c0 .523.112.943.336 1.26.243.318.588.476 1.036.476.616 0 1.092-.186 1.428-.56l.616 1.568c-.616.579-1.456.868-2.52.868zm6.914-.336h-2.1v-18.676h2.1v18.676zm10.294.336c-2.016 0-3.668-.653-4.956-1.96-1.288-1.325-1.932-3.042-1.932-5.152 0-1.978.634-3.649 1.904-5.012 1.269-1.381 2.856-2.072 4.76-2.072 1.997 0 3.574.691 4.732 2.072 1.176 1.363 1.764 3.09 1.764 5.18v.532H146.87c.093 1.326.578 2.436 1.456 3.332.877.896 2.016 1.344 3.416 1.344 1.68 0 3.07-.569 4.172-1.708l1.008 1.372c-1.382 1.382-3.174 2.072-5.376 2.072zm4.2-7.952c-.019-1.157-.411-2.193-1.176-3.108-.766-.933-1.858-1.4-3.276-1.4-1.344 0-2.408.458-3.192 1.372a5.145 5.145 0 00-1.232 3.136h8.876zm7.175-12.464h2.17v25.629h-2.17z"/><path d="M84.388 97.669h131.931m0 42.922H84.388" stroke="#000" stroke-width=".5" stroke-dasharray="2 2"/></svg>