<svg width="66" height="66" fill="none" xmlns="http://www.w3.org/2000/svg"><path d="M14.91 7.92h43.146a3.171 3.171 0 013.184 2.31c.13.456.155.935.076 1.402L55.833 57.5H5.277l5.484-45.868a4.307 4.307 0 011.394-2.619 4.294 4.294 0 012.755-1.092z" fill="#F7F8F9" stroke="#082C46"/><path d="M18.555 15.436c.549-.518.624-1.332.167-1.818-.457-.486-1.273-.46-1.822.058-.549.518-.623 1.332-.166 1.818.457.486 1.272.46 1.821-.058zm4.235-.003c.55-.518.624-1.332.167-1.818-.457-.486-1.273-.46-1.822.059-.548.517-.623 1.331-.166 1.817.457.486 1.272.46 1.821-.058zm4.237-.003c.549-.518.623-1.332.166-1.817-.457-.486-1.272-.46-1.821.058-.55.518-.624 1.331-.167 1.817.457.486 1.273.46 1.822-.058z" fill="#082C46"/><g filter="url(#filter0_d)" stroke="#082C46"><path d="M40.122 26.032l-.001.009-.001.009c-.205 1.746-1.13 3.564-2.459 4.945-1.33 1.383-3.01 2.275-4.694 2.275-1.67 0-3.098-.877-4.07-2.221a7.022 7.022 0 01-1.255-4.877 7.317 7.317 0 012.378-4.454 7.293 7.293 0 014.696-1.849h.002a5.328 5.328 0 014.14 1.815 5.348 5.348 0 011.264 4.348z" fill="#FFE259"/><path d="M23.353 40.805l2.77 8.032h-6.698l3.928-8.032zm17.467-.13l-4.395 8.162h6.698l-2.304-8.162z" fill="#fff"/><path d="M26.641 37.949h11.414a2.672 2.672 0 012.252 1.187 2.684 2.684 0 01.242 2.538l-1.723 4.83a3.512 3.512 0 01-3.22 2.333h-9.07a2.613 2.613 0 01-2.662-2.332l-.544-4.77a3.471 3.471 0 011.956-3.45 3.456 3.456 0 011.355-.336z" fill="#082C46"/></g><defs><filter id="filter0_d" x="14.623" y="19.368" width="33.16" height="37.97" filterUnits="userSpaceOnUse" color-interpolation-filters="sRGB"><feFlood flood-opacity="0" result="BackgroundImageFix"/><feColorMatrix in="SourceAlpha" values="0 0 0 0 0 0 0 0 0 0 0 0 0 0 0 0 0 0 127 0"/><feOffset dy="4"/><feGaussianBlur stdDeviation="2"/><feColorMatrix values="0 0 0 0 0 0 0 0 0 0 0 0 0 0 0 0 0 0 0.18 0"/><feBlend in2="BackgroundImageFix" result="effect1_dropShadow"/><feBlend in="SourceGraphic" in2="effect1_dropShadow" result="shape"/></filter></defs></svg>