<svg width="66" height="70" fill="none" xmlns="http://www.w3.org/2000/svg"><path d="M14.91 4.152h43.146a3.17 3.17 0 012.514 1.076 3.182 3.182 0 01.746 2.635L55.833 53.73H5.278L10.76 7.863a4.307 4.307 0 011.395-2.62 4.294 4.294 0 012.754-1.091z" fill="#F7F8F9" stroke="#082C46"/><path d="M18.556 11.667c.549-.518.623-1.332.166-1.818-.457-.486-1.272-.46-1.821.058-.55.518-.624 1.332-.167 1.818.457.486 1.273.46 1.822-.058zm4.234-.003c.55-.518.624-1.332.167-1.818-.457-.486-1.272-.46-1.821.058-.549.518-.623 1.332-.166 1.818.457.486 1.272.46 1.82-.058zm4.237-.003c.55-.518.624-1.332.167-1.818-.457-.485-1.273-.46-1.822.058-.549.518-.623 1.332-.166 1.818.457.486 1.272.46 1.821-.058z" fill="#082C46"/><g filter="url(#filter0_d)" stroke="#000"><path d="M39.585 36.212h0v.01l-2.767 24.434-15.78.11 2.75-24.308.001-.004a25.21 25.21 0 013.308-9.636 25.166 25.166 0 016.525-7.293 19.297 19.297 0 014.938 7.426 19.326 19.326 0 011.025 9.26z" fill="#FFE259"/><path d="M31.758 36.534h.012a3.43 3.43 0 003.27-3.008 2.708 2.708 0 00-1.572-2.88c-.36-.16-.75-.24-1.144-.233h0-.012a3.43 3.43 0 00-3.27 3.007 2.708 2.708 0 001.572 2.88c.36.16.75.24 1.144.234z" fill="#fff"/><path d="M12.876 59.745l.595-5.545 11.176-10.598-1.383 12.568-10.388 3.575zm32.694.013l-9.616-3.429 1.434-12.713 8.81 10.432-.628 5.71z" fill="#082C46"/></g><defs><filter id="filter0_d" x="8.294" y="18.878" width="42.423" height="50.391" filterUnits="userSpaceOnUse" color-interpolation-filters="sRGB"><feFlood flood-opacity="0" result="BackgroundImageFix"/><feColorMatrix in="SourceAlpha" values="0 0 0 0 0 0 0 0 0 0 0 0 0 0 0 0 0 0 127 0"/><feOffset dy="4"/><feGaussianBlur stdDeviation="2"/><feColorMatrix values="0 0 0 0 0 0 0 0 0 0 0 0 0 0 0 0 0 0 0.18 0"/><feBlend in2="BackgroundImageFix" result="effect1_dropShadow"/><feBlend in="SourceGraphic" in2="effect1_dropShadow" result="shape"/></filter></defs></svg>