<svg width="66" height="68" fill="none" xmlns="http://www.w3.org/2000/svg"><path d="M14.91 6.258h43.146a3.17 3.17 0 012.514 1.076 3.182 3.182 0 01.746 2.635l-5.483 45.868H5.278L10.76 9.97a4.307 4.307 0 011.395-2.62 4.294 4.294 0 012.754-1.091z" fill="#F7F8F9" stroke="#082C46"/><path d="M18.556 13.773c.549-.518.623-1.332.166-1.818-.457-.486-1.272-.46-1.821.058-.55.518-.624 1.332-.167 1.818.457.486 1.273.46 1.822-.058zm4.234-.003c.55-.518.624-1.332.167-1.818-.457-.486-1.272-.46-1.821.058-.549.518-.623 1.332-.166 1.818.457.486 1.272.46 1.82-.058zm4.237-.003c.55-.518.624-1.332.167-1.818-.457-.486-1.273-.46-1.822.058-.549.518-.623 1.332-.166 1.818.457.486 1.272.46 1.821-.058z" fill="#082C46"/><g filter="url(#filter0_d)" stroke="#000"><path d="M18.991 35.773H45.17l-2.795 23.39H16.186l2.805-23.39z" fill="#082C46"/><path d="M17.493 25.35h-.444l-.053.44-1.533 12.821a4.748 4.748 0 002.752 5.058 4.728 4.728 0 002.007.409h.003a6.158 6.158 0 003.957-1.569 6.175 6.175 0 002-3.762h0v-.008l1.535-12.83.067-.56H17.493zm21.774 0h-.443l-.053.44-1.534 12.821a4.747 4.747 0 002.785 5.073 4.728 4.728 0 002.021.394 6.169 6.169 0 003.954-1.571 6.186 6.186 0 002.001-3.759h0l.001-.01 1.535-12.829.067-.56H39.268z" fill="#FFE259"/><path d="M28.267 25.35h-.443l-.053.44-1.534 12.821a4.747 4.747 0 002.785 5.073 4.728 4.728 0 002.021.394 6.169 6.169 0 003.954-1.571 6.186 6.186 0 002.001-3.759h0l.001-.01 1.535-12.829.067-.56H28.268z" fill="#fff"/></g><defs><filter id="filter0_d" x="10.907" y="24.85" width="43.258" height="42.814" filterUnits="userSpaceOnUse" color-interpolation-filters="sRGB"><feFlood flood-opacity="0" result="BackgroundImageFix"/><feColorMatrix in="SourceAlpha" values="0 0 0 0 0 0 0 0 0 0 0 0 0 0 0 0 0 0 127 0"/><feOffset dy="4"/><feGaussianBlur stdDeviation="2"/><feColorMatrix values="0 0 0 0 0 0 0 0 0 0 0 0 0 0 0 0 0 0 0.18 0"/><feBlend in2="BackgroundImageFix" result="effect1_dropShadow"/><feBlend in="SourceGraphic" in2="effect1_dropShadow" result="shape"/></filter></defs></svg>