<svg width="70" height="66" fill="none" xmlns="http://www.w3.org/2000/svg"><path d="M18.938 8.196h43.146a3.171 3.171 0 013.184 2.31c.13.455.155.934.076 1.401l-5.483 45.868H9.306l5.483-45.868a4.308 4.308 0 011.394-2.619 4.294 4.294 0 012.755-1.092z" fill="#F7F8F9" stroke="#082C46"/><path d="M22.583 15.711c.55-.518.624-1.331.167-1.817-.457-.486-1.273-.46-1.822.058-.548.518-.623 1.332-.166 1.818.457.485 1.272.46 1.821-.059zm4.236-.002c.549-.518.623-1.332.166-1.818-.457-.486-1.272-.46-1.821.058-.55.518-.624 1.332-.167 1.818.457.486 1.273.46 1.822-.058zm4.236-.003c.549-.518.624-1.332.167-1.818-.457-.486-1.273-.46-1.822.058-.549.518-.623 1.332-.166 1.818.457.486 1.272.46 1.821-.058z" fill="#082C46"/><g filter="url(#filter0_d)"><path d="M44.173 31.966H63.88a1.447 1.447 0 011.455 1.055c.059.208.07.427.035.64l-2.505 20.95h-23.09l2.504-20.95a1.967 1.967 0 011.895-1.695z" fill="#082C46" stroke="#082C46"/><path d="M9.012 31.966h19.706a1.447 1.447 0 011.455 1.055c.059.208.07.427.034.64l-2.504 20.95H4.613l2.504-20.95a1.967 1.967 0 011.895-1.695z" fill="#fff" stroke="#082C46"/><path d="M27.543 23.514H47.25a1.448 1.448 0 011.454 1.055c.059.208.07.427.035.64l-2.505 20.95h-23.09l2.504-20.95a1.967 1.967 0 011.895-1.695z" fill="#FFE259" stroke="#082C46"/><path d="M34.674 33.016h2.182l-.96 7.964h-2.182l.96-7.964zm2.328-1.899c.549-.518.623-1.332.166-1.818-.457-.486-1.272-.46-1.821.058-.549.518-.623 1.332-.166 1.818.456.486 1.272.46 1.82-.058zM16.24 41.355h2.182l-.96 7.965h-2.183l.96-7.965zm2.327-1.899c.55-.518.624-1.332.167-1.818-.457-.486-1.273-.46-1.822.058-.549.518-.623 1.332-.166 1.818.457.486 1.272.46 1.821-.058z" fill="#082C46"/><path d="M51.4 41.355h2.183l-.96 7.965H50.44l.96-7.965zm2.328-1.899c.55-.518.624-1.332.167-1.818-.457-.486-1.273-.46-1.822.058-.548.518-.623 1.332-.166 1.818.457.486 1.273.46 1.821-.058z" fill="#F5F8FA"/></g><defs><filter id="filter0_d" x=".049" y="23.013" width="69.84" height="40.098" filterUnits="userSpaceOnUse" color-interpolation-filters="sRGB"><feFlood flood-opacity="0" result="BackgroundImageFix"/><feColorMatrix in="SourceAlpha" values="0 0 0 0 0 0 0 0 0 0 0 0 0 0 0 0 0 0 127 0"/><feOffset dy="4"/><feGaussianBlur stdDeviation="2"/><feColorMatrix values="0 0 0 0 0 0 0 0 0 0 0 0 0 0 0 0 0 0 0.18 0"/><feBlend in2="BackgroundImageFix" result="effect1_dropShadow"/><feBlend in="SourceGraphic" in2="effect1_dropShadow" result="shape"/></filter></defs></svg>