<svg width="72" height="71" fill="none" xmlns="http://www.w3.org/2000/svg"><path opacity=".08" fill-rule="evenodd" clip-rule="evenodd" d="M4.599 24.03c6.251-14.88 7.51-4.823 25.814-9.065 5.698-1.32 10.933-6.057 15.427-7.173 17.154-4.262 9.97 9.763 12.446 16.324 3.595 9.527 15.213 5.431 8.573 17.75-5.425 10.064-26.527 29.335-40.207 19.34-6.094-4.452-3.544-17.927-7.575-19.172C10.423 39.36-1.653 38.91 4.599 24.03z" fill="#697DFF"/><path fill="#2A334F" d="M21.113 16.369H49.22v36.539H21.113z"/><path fill="#697DFF" d="M29.545 24.801h28.107v32.791H29.545z"/><path fill="#fff" d="M34.23 30.422h9.513v1.622H34.23zm0 7.297h19.026v1.622H34.23zm-.072 4.595h19.026v1.622H34.158z"/><path fill-rule="evenodd" clip-rule="evenodd" d="M30.74 15.61l-2.006-.324a7.633 7.633 0 00-.9-2.071l1.177-1.585a.716.716 0 00-.077-.959l-1.415-1.356a.814.814 0 00-.985-.06l-1.653 1.129a8.586 8.586 0 00-2.16-.855l-.339-1.917A.758.758 0 0021.628 7H19.63a.758.758 0 00-.754.612l-.338 1.924a7.98 7.98 0 00-2.206.892l-1.638-1.113a.796.796 0 00-.992.08l-1.415 1.357a.724.724 0 00-.085.951l1.184 1.6a8.045 8.045 0 00-.884 2.071l-1.992.303a.745.745 0 00-.638.722v1.917c0 .354.27.663.638.722l2.015.325c.2.715.5 1.408.908 2.064l-1.162 1.57a.717.717 0 00.085.951l.708.678.707.678a.805.805 0 00.992.082l1.668-1.136a8.793 8.793 0 002.161.848l.33 1.902a.758.758 0 00.754.612h2a.758.758 0 00.753-.612l.339-1.931a8.464 8.464 0 002.107-.84l1.653 1.127a.796.796 0 00.992-.081l1.415-1.356a.724.724 0 00.084-.951l-1.168-1.6c.4-.656.7-1.35.891-2.071l2-.325a.745.745 0 00.638-.722v-1.917a.745.745 0 00-.638-.722z" fill="#FFB218"/><path fill-rule="evenodd" clip-rule="evenodd" d="M24.195 17.205a3.585 3.585 0 11-7.17 0 3.585 3.585 0 017.17 0z" fill="#fff"/></svg>