<svg width="72" height="71" fill="none" xmlns="http://www.w3.org/2000/svg"><path opacity=".08" fill-rule="evenodd" clip-rule="evenodd" d="M7.982 47.059C5.765 35.471 6.282 39.425 15 24.344c2.713-4.694-2.256-6.586-.167-10.339 7.971-14.32 21.279-5.592 27.405-2.94 6.127 2.654 14.876 11.342 17.561 19.165 3.523 10.262 3.652 23.861-11.99 26.473-6.97 1.164-14.69-9.412-18.12-7.524-7.366 4.053-15.37 11.865-21.706-2.12z" fill="#697DFF"/><path d="M21.545 15.407a3 3 0 013-3h21a3 3 0 013 3v41a3 3 0 01-3 3h-21a3 3 0 01-3-3v-41z" fill="#2A334F"/><path fill-rule="evenodd" clip-rule="evenodd" d="M27.193 13.693h16.132c-.215 0-.393.212-.403.48-.054 1.484-.664 2.225-1.828 2.225-.949 0-3.379.005-5.798.01-2.441-.005-4.893-.01-5.851-.01-1.175 0-1.79-.741-1.845-2.224-.01-.27-.19-.481-.407-.481z" fill="#ADB4E3"/><circle cx="42.545" cy="37.407" r="7" stroke="#FFB218" stroke-width="2"/><circle cx="42.045" cy="36.907" r="11.5" stroke="#FFB218" stroke-width="2"/><path d="M53.26 61.349l3.322-5.868v-7.636a2.327 2.327 0 00-2.62-2.304l-1.035.132-.276-1.006a2.33 2.33 0 00-2.91-1.613l-.809.243-.502-.678a2.308 2.308 0 00-2.083-.936l-1.31.12v-5.071a2.327 2.327 0 00-2.326-2.325 2.327 2.327 0 00-2.325 2.325v12.644L38.56 48.26a1.977 1.977 0 00-1.01-.289 2 2 0 00-1.625.816 1.986 1.986 0 00-.277 1.796l1.094 3.27a11.932 11.932 0 002.626 4.402l2.687 2.868v3.992H53.26V61.35z" fill="#697DFF"/></svg>