<svg width="72" height="71" fill="none" xmlns="http://www.w3.org/2000/svg"><path opacity=".08" fill-rule="evenodd" clip-rule="evenodd" d="M64.448 13.854c-5.53-4.736-10.076 0-22.806 0-4.656 0-4.944-3.719-11.828-4.715-5.664-.819-12.76 1.938-21.491 9.181-8.731 7.244 1.855 14.337 1.855 25.806 0 11.47 6.803 4.301 23.27 10.34 16.466 6.037 16.44-.122 26.361-3.888 9.922-3.766-.773-8.437 3.788-18.114 4.561-9.677 6.38-13.874.85-18.61z" fill="#697DFF"/><path fill="#697DFF" d="M21.871 12h30v36h-30z"/><path d="M43.074 51.594V24.047a4.703 4.703 0 10-9.406 0v27.547l2.688-2.016 2.015 2.016 2.016-2.016 2.687 2.016z" fill="#2A334F"/><path d="M33.668 24.047a4.703 4.703 0 119.406 0h-9.406z" fill="#FAF8FA"/><path d="M35.507 20.323a4.69 4.69 0 00-1.839 3.724h6.853a8.567 8.567 0 00-5.014-3.724zm7.567 31.271l-4.703 8.062-4.703-8.062 2.688-2.016 2.015 2.016 2.016-2.016 2.687 2.016z" fill="#ADB4E3"/><path d="M40.723 55.625H36.02l2.351 4.031 2.352-4.031zm-.336-31.578v25.531l-2.016 2.016-2.016-2.016V24.047h4.032z" fill="#FFB218"/><path d="M56.512 27.406l-4.703-8.062-4.703 8.062 2.687 2.016 2.016-2.016 2.015 2.016 2.688-2.016z" fill="#ADB4E3"/><path d="M54.16 23.375h-4.703l2.352-4.031 2.351 4.031z" fill="#FF5D48"/><path d="M56.512 27.406v27.547a4.703 4.703 0 11-9.407 0V27.406l2.688 2.016 2.016-2.016 2.015 2.016 2.688-2.016z" fill="#243242"/><path d="M53.824 54.953V29.422l-2.015-2.016-2.016 2.016v25.531h4.031z" fill="#FF5D48"/><path d="M47.105 54.953a4.703 4.703 0 109.407 0h-9.407z" fill="#ADB4E3"/><path d="M14.371 17l2.026 5.474L21.87 24.5l-5.474 2.026L14.37 32l-2.026-5.474L6.871 24.5l5.474-2.026L14.371 17z" fill="#FFB218"/></svg>