<svg width="72" height="71" fill="none" xmlns="http://www.w3.org/2000/svg"><path opacity=".08" fill-rule="evenodd" clip-rule="evenodd" d="M61.39 57.79c-4.3 4.398-16.5 4.996-21 0-9-7.004-19.12.829-23.676 0-17.39-3.16-5.08-12.997-4.642-19.996.635-10.162-11.64-11.2-.525-19.704 9.08-6.947 36.234-15.85 44.602-1.119 3.727 6.563-4.133 17.802-.969 20.593 6.793 5.991 15.211 11.018 6.21 20.227z" fill="#697DFF"/><path fill="#2A334F" d="M18.256 16.774h36.365v36.365H18.256z"/><path fill-rule="evenodd" clip-rule="evenodd" d="M35.319 57.432c0 .61-.07 1.195-.194 1.626-.123.43-.291.673-.466.672H13.052c-.365.001-.66-1.027-.661-2.298V39.103c0-1.271.296-2.3.66-2.301h21.607c.176 0 .344.242.468.674.123.431.193 1.017.193 1.627v18.329z" fill="#697DFF"/><path fill-rule="evenodd" clip-rule="evenodd" d="M18.256 41.015c-.181.18-.301.481-.301.842V55.16c0 .36.12.662.3.842l.06.06 7.464-7.463v-.12l-7.523-7.463z" fill="#fff" stroke="#697DFF"/><path fill-rule="evenodd" clip-rule="evenodd" d="M28.247 51.126l-2.468-2.468v-.18l2.468-2.468.06.06 2.949 1.685c.842.482.842 1.264 0 1.746l-3.01 1.625z" fill="#fff" stroke="#697DFF"/><path fill-rule="evenodd" clip-rule="evenodd" d="M28.307 51.065l-2.528-2.527-7.523 7.523c.3.3.722.3 1.264.06l8.787-5.056z" fill="#fff"/><path d="M28.307 51.065l-2.528-2.527-7.523 7.523c.3.3.722.3 1.264.06l8.787-5.056" stroke="#697DFF"/><path fill-rule="evenodd" clip-rule="evenodd" d="M28.307 46.01l-8.787-4.995c-.542-.301-.963-.241-1.264.06l7.523 7.463 2.528-2.528z" fill="#fff" stroke="#697DFF"/><path opacity=".2" fill-rule="evenodd" clip-rule="evenodd" d="M28.247 51.005l-8.727 4.936c-.482.3-.903.24-1.204 0l-.06.06.06.06c.301.24.722.301 1.204 0l8.727-5.056z" fill="#000"/><path opacity=".12" fill-rule="evenodd" clip-rule="evenodd" d="M18.256 55.94c-.18-.18-.24-.48-.24-.842v.06c0 .361.12.662.3.843v-.06h-.06zm13-6.62l-3.009 1.685.06.06 2.95-1.685c.42-.24.601-.541.601-.842 0 .3-.24.541-.602.782z" fill="#000"/><path opacity=".25" fill-rule="evenodd" clip-rule="evenodd" d="M19.52 41.075l11.736 6.68c.361.241.602.482.602.783 0-.301-.18-.602-.602-.843l-11.736-6.68c-.843-.482-1.505-.06-1.505.902v.06c0-.962.662-1.384 1.505-.902z" fill="#fff"/><path fill-rule="evenodd" clip-rule="evenodd" d="M63.473 32.712c0 .61-.07 1.195-.193 1.626-.124.431-.292.673-.467.672H41.206c-.365.002-.66-1.027-.661-2.298V14.383c0-1.27.296-2.3.661-2.301h21.607c.175 0 .343.242.467.674.124.432.193 1.017.193 1.627v18.329z" fill="#FF5D48"/><path fill-rule="evenodd" clip-rule="evenodd" d="M55.256 15.75c.1.909-.26 1.804-.786 2.462-.549.647-1.427 1.143-2.282 1.079-.112-.874.321-1.803.806-2.37.549-.644 1.5-1.137 2.262-1.17zm2.8 5.24c-.096.057-1.677 1-1.66 2.926.02 2.325 2.034 3.094 2.058 3.102-.012.054-.315 1.11-1.07 2.18-.631.944-1.292 1.866-2.342 1.883-.499.011-.836-.132-1.187-.282-.366-.156-.748-.318-1.345-.318-.633 0-1.031.167-1.416.33-.332.139-.654.274-1.107.293-1 .037-1.764-1.007-2.417-1.941-1.307-1.909-2.324-5.379-.96-7.74.66-1.158 1.865-1.904 3.153-1.923.568-.012 1.111.206 1.588.398.365.147.69.277.957.277.234 0 .55-.125.92-.271.58-.231 1.291-.513 2.015-.437.496.015 1.905.196 2.815 1.522h-.002z" fill="#fff"/><path d="M14.737 26.16h7.038m29.327 18.768h7.039" stroke="#FFB218" stroke-width="2"/></svg>