<svg width="295" height="419" fill="none" xmlns="http://www.w3.org/2000/svg"><mask id="a" maskUnits="userSpaceOnUse" x="0" y="0" width="353" height="419"><path fill="#C4C4C4" d="M0 0h353v419H0z"/></mask><g mask="url(#a)" clip-rule="evenodd" stroke="#F7F8F9"><path d="M281.448-126.554c10.062-15.227 30.549-19.395 45.76-9.309l143.963 95.45c15.212 10.085 19.386 30.604 9.325 45.831L251.623 351.794c-10.062 15.227-30.549 19.395-45.761 9.309L61.9 265.654c-15.212-10.086-19.386-30.605-9.325-45.832l228.873-346.376z"/><path d="M281.342-148.217c10.061-15.227 30.549-19.395 45.76-9.31l143.963 95.45c15.211 10.085 19.386 30.605 9.324 45.832L251.516 330.13c-10.061 15.227-30.549 19.395-45.76 9.31L61.793 243.99c-15.211-10.085-19.386-30.605-9.324-45.832l228.873-346.375z"/><path d="M281.235-169.88c10.062-15.227 30.549-19.395 45.761-9.31l143.962 95.45c15.212 10.085 19.386 30.605 9.325 45.832L251.41 308.467c-10.062 15.227-30.549 19.395-45.76 9.31l-143.963-95.45c-15.212-10.085-19.386-30.605-9.325-45.832L281.235-169.88z"/><path d="M281.129-191.544c10.061-15.227 30.549-19.395 45.76-9.31l143.963 95.45c15.211 10.085 19.386 30.605 9.325 45.832L251.304 286.803c-10.062 15.227-30.55 19.395-45.761 9.31L61.58 200.663c-15.211-10.085-19.386-30.605-9.324-45.832l228.873-346.375z"/><path d="M281.023-213.208c10.061-15.227 30.549-19.395 45.76-9.31l143.963 95.45c15.211 10.085 19.386 30.605 9.325 45.832L251.198 265.14c-10.062 15.227-30.55 19.395-45.761 9.31L61.474 179c-15.211-10.085-19.386-30.605-9.324-45.832l228.873-346.375z"/><path d="M280.916-234.872c10.062-15.227 30.549-19.396 45.761-9.31l143.963 95.45c15.211 10.085 19.386 30.605 9.324 45.832L251.091 243.475c-10.061 15.227-30.549 19.395-45.76 9.31l-143.963-95.45c-15.211-10.086-19.386-30.605-9.325-45.832l228.873-346.375z"/><path d="M280.81-256.535c10.062-15.228 30.549-19.396 45.761-9.31l143.963 95.449c15.211 10.086 19.386 30.606 9.324 45.833L250.985 221.812c-10.061 15.227-30.549 19.395-45.76 9.31l-143.963-95.45c-15.211-10.086-19.386-30.605-9.325-45.832L280.81-256.535z"/><path d="M280.703-278.199c10.062-15.227 30.55-19.395 45.761-9.309l143.963 95.449c15.211 10.086 19.386 30.605 9.324 45.832L250.878 200.149c-10.061 15.227-30.549 19.395-45.76 9.309L61.155 114.009c-15.211-10.086-19.386-30.605-9.325-45.832L280.703-278.2z"/><path d="M280.597-299.862c10.062-15.227 30.55-19.395 45.761-9.31l143.963 95.45c15.211 10.085 19.386 30.605 9.324 45.832L250.772 178.485c-10.061 15.227-30.549 19.395-45.76 9.31L61.049 92.345C45.838 82.26 41.663 61.74 51.724 46.513l228.873-346.375z"/><path d="M280.491-321.526c10.062-15.227 30.549-19.395 45.76-9.31l143.963 95.45c15.212 10.086 19.386 30.605 9.325 45.832L250.666 156.821c-10.062 15.227-30.549 19.396-45.761 9.31L60.942 70.681c-15.21-10.085-19.386-30.605-9.324-45.832l228.873-346.375z"/><path d="M280.385-343.189c10.061-15.227 30.549-19.395 45.76-9.31l143.963 95.45c15.211 10.085 19.386 30.605 9.324 45.832L250.559 135.158c-10.061 15.227-30.549 19.395-45.76 9.31L60.836 49.018C45.625 38.933 41.45 18.413 51.512 3.186L280.385-343.19z"/><path d="M280.279-364.852c10.061-15.227 30.549-19.396 45.76-9.31l143.963 95.45c15.211 10.085 19.386 30.605 9.324 45.832L250.453 113.495c-10.061 15.227-30.549 19.395-45.76 9.31L60.73 27.355C45.52 17.27 41.344-3.25 51.406-18.477l228.873-346.375z"/></g></svg>