<svg width="321" height="341" fill="none" xmlns="http://www.w3.org/2000/svg"><mask id="a" maskUnits="userSpaceOnUse" x="-203" y="0" width="524" height="343"><path fill="#C4C4C4" d="M-203 0h524v343h-524z"/></mask><g mask="url(#a)" clip-rule="evenodd" stroke="#fff"><path d="M77.453 328.447c-10.061-15.227-30.549-19.395-45.76-9.31l-143.963 95.45c-15.211 10.085-19.386 30.605-9.324 45.832l228.872 346.375c10.062 15.227 30.55 19.395 45.761 9.31l143.963-95.45c15.211-10.085 19.386-30.605 9.324-45.832L77.453 328.447z"/><path d="M77.56 306.783c-10.062-15.227-30.55-19.395-45.76-9.31l-143.964 95.45c-15.211 10.085-19.386 30.605-9.324 45.832L107.385 785.13c10.061 15.227 30.549 19.395 45.76 9.31l143.963-95.45c15.212-10.085 19.386-30.605 9.325-45.832L77.56 306.783z"/><path d="M77.666 285.12c-10.061-15.227-30.549-19.395-45.76-9.31l-143.963 95.45c-15.211 10.085-19.386 30.605-9.325 45.832l228.873 346.375c10.062 15.227 30.55 19.395 45.761 9.31l143.963-95.45c15.211-10.085 19.386-30.605 9.324-45.832L77.666 285.12z"/><path d="M77.773 263.456c-10.062-15.227-30.55-19.395-45.76-9.31l-143.964 95.45c-15.211 10.085-19.386 30.605-9.324 45.832l228.873 346.375c10.061 15.227 30.549 19.395 45.76 9.31l143.963-95.45c15.211-10.085 19.386-30.605 9.325-45.832L77.773 263.456z"/><path d="M77.879 241.792c-10.062-15.227-30.55-19.396-45.76-9.31l-143.964 95.45c-15.211 10.085-19.386 30.605-9.324 45.832l228.873 346.375c10.061 15.227 30.549 19.395 45.76 9.31l143.963-95.45c15.211-10.085 19.386-30.605 9.325-45.832L77.879 241.792z"/><path d="M77.985 220.128c-10.061-15.227-30.55-19.396-45.76-9.31l-143.963 95.45c-15.212 10.085-19.386 30.605-9.325 45.832L107.81 698.475c10.062 15.227 30.549 19.395 45.761 9.31l143.963-95.45c15.211-10.086 19.386-30.605 9.324-45.832L77.985 220.128z"/><path d="M78.091 198.465c-10.061-15.228-30.55-19.396-45.76-9.31l-143.963 95.449c-15.212 10.086-19.386 30.606-9.325 45.833l228.873 346.375c10.062 15.227 30.549 19.395 45.761 9.31l143.963-95.45c15.211-10.086 19.385-30.605 9.324-45.832L78.091 198.465z"/><path d="M78.198 176.801c-10.062-15.227-30.55-19.395-45.76-9.309l-143.963 95.449c-15.212 10.086-19.386 30.605-9.325 45.832l228.873 346.376c10.062 15.227 30.549 19.395 45.761 9.309l143.962-95.449c15.212-10.086 19.386-30.605 9.325-45.832L78.198 176.801z"/><path d="M78.304 155.137c-10.062-15.227-30.55-19.395-45.76-9.31l-143.963 95.45c-15.212 10.086-19.386 30.605-9.325 45.832l228.873 346.376c10.062 15.227 30.549 19.395 45.76 9.309l143.963-95.449c15.212-10.086 19.386-30.605 9.325-45.833L78.304 155.137z"/><path d="M78.41 133.474c-10.061-15.227-30.549-19.395-45.76-9.31l-143.963 95.45c-15.211 10.086-19.386 30.605-9.324 45.832l228.873 346.375c10.061 15.227 30.549 19.396 45.76 9.31l143.963-95.45c15.211-10.085 19.386-30.605 9.324-45.832L78.41 133.474z"/><path d="M78.517 111.811c-10.062-15.227-30.55-19.395-45.76-9.31l-143.964 95.45c-15.211 10.085-19.386 30.605-9.324 45.832l228.873 346.375c10.061 15.227 30.549 19.396 45.76 9.31l143.963-95.45c15.212-10.085 19.386-30.605 9.325-45.832L78.517 111.811z"/><path d="M78.623 90.148c-10.062-15.227-30.55-19.395-45.76-9.31l-143.964 95.45c-15.211 10.085-19.386 30.605-9.324 45.832l228.873 346.375c10.061 15.227 30.549 19.395 45.76 9.31l143.963-95.45c15.212-10.085 19.386-30.605 9.325-45.832L78.623 90.148z"/></g></svg>