<svg width="647" height="561" fill="none" xmlns="http://www.w3.org/2000/svg"><path d="M530.745 140.596h-70l7.8-70h70l-7.8 70z" fill="#5B7B8F" fill-opacity=".05" stroke="#EFEFEF"/><path d="M522.944 210.596h-70l7.8-70h70l-7.8 70z" fill="#fff" stroke="#EFEFEF"/><path d="M515.144 280.596h-70l7.799-70h70l-7.799 70z" fill="#F7F8F9" stroke="#F7F8F9"/><path d="M507.354 350.596h-70l7.791-70h70l-7.791 70z" fill="#fff" stroke="#EFEFEF"/><path d="M499.554 420.596h-70l7.8-70h70l-7.8 70z" fill="#5B7B8F" fill-opacity=".05" stroke="#EFEFEF"/><path d="M584.644 280.596h-70l7.799-70h70.001l-7.8 70z" fill="#fff" stroke="#EFEFEF"/><path d="M576.843 350.596h-70l7.8-70h70l-7.8 70z" fill="#F7F8F9" stroke="#EFEFEF"/><path d="M569.046 420.596h-70l7.8-70h70l-7.8 70z" fill="#fff" stroke="#EFEFEF"/><path d="M561.245 490.596h-70l7.8-70h70l-7.8 70zm-169.992-350h-70l7.8-70h70l-7.8 70z" fill="#F7F8F9" stroke="#EFEFEF"/><path d="M383.452 210.596h-70l7.8-70h70l-7.8 70z" fill="#fff" stroke="#EFEFEF"/><path d="M375.655 280.596h-70l7.8-70h70l-7.8 70z" fill="#F7F8F9" stroke="#EFEFEF"/><path d="M367.854 350.596h-70l7.8-70h70l-7.8 70z" fill="#fff" stroke="#EFEFEF"/><path d="M360.054 420.596h-70l7.8-70h70l-7.8 70z" fill="#F7F8F9" stroke="#EFEFEF"/><path d="M460.745 140.596h-70l7.8-70h70l-7.8 70z" fill="#fff" stroke="#EFEFEF"/><path d="M453.116 210.596h-70l7.8-70h70l-7.8 70z" fill="#F7F8F9" stroke="#EFEFEF"/><path d="M445.144 280.596h-70l7.799-70h70l-7.799 70z" fill="#fff" stroke="#EFEFEF"/><path d="M437.354 350.596h-70l7.791-70h70l-7.791 70z" fill="#5B7B8F" fill-opacity=".05" stroke="#EFEFEF"/><path d="M429.554 420.596h-70l7.8-70h70l-7.8 70z" fill="#fff" stroke="#EFEFEF"/><path d="M421.753 490.596h-70l7.8-70h70l-7.8 70z" fill="#F7F8F9" stroke="#EFEFEF"/><path d="M228.362 350.596h-70l7.8-70h70l-7.8 70z" fill="#fff" stroke="#EFEFEF"/><path d="M220.565 420.596h-70l7.8-70h70l-7.8 70z" fill="#5B7B8F" fill-opacity=".05" stroke="#EFEFEF"/><path d="M212.761 490.596h-70l7.8-70h70l-7.8 70zm108.492-350h-70l7.8-70h70l-7.8 70z" fill="#fff" stroke="#EFEFEF"/><path d="M313.452 210.596h-70l7.8-70h70l-7.8 70z" fill="#FFE259" stroke="#F7F8F9"/><path d="M305.655 280.596h-70l7.8-70h70l-7.8 70z" fill="#fff" stroke="#EFEFEF"/><path d="M297.854 350.596h-70l7.8-70h70l-7.8 70z" fill="#5B7B8F" fill-opacity=".05" stroke="#EFEFEF"/><path d="M290.054 420.596h-70l7.8-70h70l-7.8 70z" fill="#fff" stroke="#EFEFEF"/><path d="M282.761 490.426h-70l7.8-70h70l-7.8 70z" fill="#F7F8F9" stroke="#EFEFEF"/><path d="M274.339 560.426h-70l7.8-70h70l-7.8 70z" fill="#fff" stroke="#EFEFEF"/><path d="M81.065 420.596h-70l7.8-70h70l-7.8 70zm77.297-70h-70l7.8-70h70l-7.8 70z" fill="#F7F8F9" stroke="#EFEFEF"/><path d="M150.565 420.596h-70l7.8-70h70l-7.8 70z" fill="#fff" stroke="#EFEFEF"/><path d="M213.095 167.064l6.4 11.39 3.48.63-9.36-16.66-13.261 16.66 3.681-.63 9.06-11.39zm30.882 353.816l6.4 11.39 3.48.63-9.36-16.66-13.26 16.66 3.68-.63 9.06-11.39z" fill="#000"/><path d="M219.593 419.512h-68.52l7.631-68.532h68.531l-7.642 68.532z" fill="#FFE259"/><g filter="url(#filter0_f)"><path fill-rule="evenodd" clip-rule="evenodd" d="M197.17 344.557h1.515l10.412 36.882-8.252 17.16-1.231 11.069H178.3l1.23-10.949h-.056l-4.424-17.28 18.685-36.882h1.516l-3.52 31.529a3.673 3.673 0 00-2.578 3.043 2.815 2.815 0 00.682 2.264 2.818 2.818 0 002.165.95 3.665 3.665 0 003.569-3.214 2.81 2.81 0 00-1.907-3.043l3.508-31.529z" fill="#000" fill-opacity=".27"/></g><path d="M192.13 398.445h-21.314l1.296-11.537h21.301l-1.283 11.537z" fill="#000"/><path d="M184.525 371.619h0a4.164 4.164 0 004.055-3.65 3.308 3.308 0 00-1.863-3.429l3.416-30.708h.689l10.258 36.336-8.092 16.827h-20.611l-4.281-16.722 18.462-36.441h.65l-3.423 30.661a4.163 4.163 0 00-2.612 3.345 3.318 3.318 0 00.804 2.662c.318.36.711.646 1.151.839l.201-.458-.201.458c.44.193.917.289 1.397.28z" fill="#fff" stroke="#000"/><path d="M569.09 106.132h-3.837l.428-3.841h3.837l-.428 3.841zm-1.27 11.445h-3.837l.428-3.842h3.837l-.428 3.842zm-1.269 11.444h-3.837l.428-3.841h3.837l-.428 3.841zm-1.274 11.444h-3.837l.428-3.841h3.837l-.428 3.841zm-1.273 11.445h-3.837l.428-3.842h3.837l-.428 3.842zm-1.27 11.444h-3.837l.428-3.841h3.837l-.428 3.841zm-1.269 11.444h-3.837l.428-3.841h3.837l-.428 3.841zm-1.273 11.445h-3.838l.428-3.842h3.837l-.427 3.842zM114.168 446.57h-3.837l.428-3.841h3.837l-.428 3.841zm-1.269 11.444h-3.837l.427-3.841h3.837l-.427 3.841zm-1.27 11.444h-3.837l.428-3.841h3.837l-.428 3.841zm-1.273 11.445h-3.837l.427-3.841h3.837l-.427 3.841zm-1.274 11.444h-3.837l.428-3.841h3.837l-.428 3.841zm-1.269 11.444h-3.837l.427-3.841h3.837l-.427 3.841zm-1.27 11.445h-3.837l.428-3.841h3.837l-.428 3.841zm-1.273 11.444h-3.837l.427-3.841h3.837l-.427 3.841zm40.632-348.497h-3.837l.428-3.841h3.837l-.428 3.841zm-1.273 11.444h-3.837l.428-3.841h3.837l-.428 3.841zm-1.273 11.445h-3.837l.427-3.842h3.837l-.427 3.842zm-1.27 11.444h-3.837l.428-3.841h3.837l-.428 3.841zm-1.269 11.444h-3.838l.428-3.841h3.837l-.427 3.841zm-1.274 11.445h-3.837l.428-3.842h3.837l-.428 3.842zm-1.273 11.444h-3.837l.427-3.841h3.837l-.427 3.841zM137 258.293h-3.837l.428-3.841h3.837l-.428 3.841zM462.145 446.57h-3.837l.427-3.841h3.837l-.427 3.841zm-1.27 11.444h-3.837l.428-3.841h3.837l-.428 3.841zm-1.269 11.444h-3.837l.427-3.841h3.837l-.427 3.841zm-1.274 11.445h-3.837l.428-3.841h3.837l-.428 3.841zm-1.273 11.444h-3.837l.427-3.841h3.837l-.427 3.841zm-1.27 11.444h-3.837l.428-3.841h3.837l-.428 3.841zm-1.269 11.445h-3.837l.427-3.841h3.837l-.427 3.841zm-1.274 11.444h-3.837l.428-3.841h3.837l-.428 3.841z" fill="#FF5423"/><g filter="url(#filter1_f)"><path fill-rule="evenodd" clip-rule="evenodd" d="M376.782 83.078a22.74 22.74 0 00-1.362-1.577c-9.556-10.102-26.459-9.631-37.753 1.053-11.294 10.684-12.703 27.535-3.146 37.637a22.68 22.68 0 003.991 3.352c4.111 3.653 10.161 7.398 17.691 7.398 14.7 0 27.95-11.92 29.59-26.63.958-8.59-3.462-15.173-9.011-21.233z" fill="#000" fill-opacity=".18"/></g><path d="M379.392 95.814c-1.64 14.71-14.89 26.63-29.59 26.63s-23.76-14.27-23.76-14.27 15-39 29.69-39c5.37 0 9.88-.88 13.07 2.62 6.6 7.26 11.63 14.69 10.59 24.02z" fill="#006591" stroke="#006591"/><path d="M365.873 109.642c11.294-10.684 12.703-27.535 3.146-37.637-9.557-10.103-26.46-9.631-37.754 1.053-11.294 10.684-12.702 27.535-3.145 37.637 9.556 10.102 26.459 9.631 37.753-1.053z" fill="#fff" stroke="#006591"/><path d="M343.224 92.825h-1.942l.13-1.18h2.499l.05-.445 1.06-9.556h4.953c2.454 0 4.1.502 5.063 1.391a4.373 4.373 0 011.197 3.96l-.006.03-.003.03a5.894 5.894 0 01-2.311 4.232 9.232 9.232 0 01-5.68 1.538h-2.888l-.049.445-.28 2.56-.061.555h4.739l-.098.87h-4.74l-.05.444-.39 3.456h-1.575l.369-3.346.061-.555h-2.496l.102-.87h2.502l.051-.443.29-2.56.063-.556h-.56zm3.7-9.99h-.447l-.05.444-.88 7.81-.063.555h2.548a9.02 9.02 0 004.382-.91l.019-.01.019-.011a4.246 4.246 0 002.05-3.468 3.62 3.62 0 00-1.03-3.32l-.031-.03-.035-.023a6.06 6.06 0 00-3.923-1.037h-2.559z" fill="#006591" stroke="#006591"/><path d="M297.893 350.595h-69.792l7.779-69.792h69.777l-7.764 69.792z" fill="#006591"/><g filter="url(#filter2_f)"><path d="M260.481 329.669c13.334-.627 23.867-7.01 23.527-14.258-.341-7.248-11.426-12.616-24.761-11.99-13.334.627-23.867 7.01-23.527 14.258.341 7.248 11.426 12.616 24.761 11.99z" fill="#000" fill-opacity=".31"/></g><path d="M276.77 303.588c.158 3.355-2.203 6.62-6.395 9.161-4.174 2.529-10.056 4.264-16.656 4.574-6.601.31-12.62-.866-17.012-2.992-4.412-2.136-7.068-5.167-7.226-8.521-.157-3.355 2.203-6.621 6.396-9.161 4.173-2.529 10.055-4.264 16.656-4.574 6.6-.311 12.619.865 17.011 2.992 4.412 2.136 7.068 5.166 7.226 8.521z" fill="#fff" stroke="#000"/><path d="M260.326 311.863c4.659-4.408 5.24-11.36 1.298-15.527-3.943-4.168-10.916-3.974-15.576.434-4.659 4.408-5.241 11.36-1.298 15.528 3.943 4.168 10.916 3.973 15.576-.435z" fill="#006591"/><path d="M256.526 308.118c2.194-2.076 2.464-5.353.603-7.32-1.861-1.968-5.148-1.88-7.343.196-2.194 2.076-2.464 5.353-.603 7.32 1.861 1.968 5.148 1.88 7.343-.196z" fill="#fff"/><path d="M437.354 350.596h-70l7.801-70h70l-7.801 70z" fill="#006591"/><path d="M407.425 305.146l5.17-2.9a9.418 9.418 0 019.7 0 9.444 9.444 0 009.71 0 9.425 9.425 0 019.7 0 9.426 9.426 0 009.7 0l5.17-2.9" fill="#006591"/><path d="M407.425 305.146l5.17-2.9a9.418 9.418 0 019.7 0v0a9.444 9.444 0 009.71 0v0a9.425 9.425 0 019.7 0v0a9.426 9.426 0 009.7 0l5.17-2.9" stroke="#fff" stroke-width="2"/><path d="M406.253 315.595l5.18-2.9a9.425 9.425 0 019.7 0 9.425 9.425 0 009.7 0 9.418 9.418 0 019.7 0 9.425 9.425 0 009.7 0l5.18-2.9" fill="#006591"/><path d="M406.253 315.595l5.18-2.9a9.425 9.425 0 019.7 0v0a9.425 9.425 0 009.7 0v0a9.418 9.418 0 019.7 0v0a9.425 9.425 0 009.7 0l5.18-2.9" stroke="#fff" stroke-width="2"/><path d="M405.097 326.046l5.18-2.91a9.472 9.472 0 019.7 0 9.415 9.415 0 009.7 0 9.472 9.472 0 019.7 0 9.415 9.415 0 009.7 0l5.18-2.9" fill="#006591"/><path d="M405.097 326.046l5.18-2.91a9.472 9.472 0 019.7 0v0a9.415 9.415 0 009.7 0v0a9.472 9.472 0 019.7 0 9.415 9.415 0 009.7 0l5.18-2.9" stroke="#fff" stroke-width="2"/><g filter="url(#filter3_f)" fill="#000" fill-opacity=".27"><path d="M389.174 250.943l-2.77 1.89a29.781 29.781 0 00-12.93 21l-.49 4.35-7 3.41a8.51 8.51 0 00-4.52 6.66l-2.11 19 12.461-6.05h23.209l11.111 6.05 2.11-19a6.566 6.566 0 00-3-6.66l-5.911-3.22.51-4.54a23.28 23.28 0 00-8.269-21l-2.351-1.89h-.05z"/><path d="M381.124 320.234l-3.1-9.49a5.08 5.08 0 014.86-6.35c3.26 0 5.08 3.36 3.44 6.35l-5.2 9.49z"/></g><path d="M394.349 287.685h-23.45l-11.74 5.7 2-18.08a8.005 8.005 0 014.24-6.26l7.26-3.53.51-4.63a29.429 29.429 0 0112.73-20.7l2.47-1.68 2.06 1.66a22.85 22.85 0 018.07 20.52l-.54 4.88 6.2 3.38a6.083 6.083 0 012.79 6.16l-2 18.24-10.6-5.66z" fill="#fff"/><path d="M388.344 258.44c1.32-1.248 1.485-3.217.37-4.396-1.116-1.18-3.091-1.124-4.411.125-1.32 1.248-1.485 3.217-.37 4.396 1.116 1.18 3.091 1.124 4.411-.125zm-1.066 9.731c1.32-1.249 1.485-3.217.369-4.397-1.116-1.18-3.09-1.123-4.41.125-1.32 1.249-1.486 3.217-.37 4.397 1.116 1.179 3.091 1.123 4.411-.125zm-1.086 9.714c1.32-1.249 1.485-3.218.369-4.397-1.116-1.18-3.09-1.124-4.41.125-1.32 1.249-1.486 3.217-.37 4.397 1.116 1.179 3.091 1.123 4.411-.125z" fill="#006591"/><path d="M388.331 239.125l1.78 1.43a22.387 22.387 0 017.89 20.13l-.5 4.54-.08.67.59.32 5.91 3.21a5.616 5.616 0 012.53 5.68l-1.95 17.5-9.8-5.34-.22-.12h-23.7l-.21.1-10.83 5.25 1.91-17.17a7.503 7.503 0 014-5.87l7-3.41.49-.24.06-.55.49-4.35a28.905 28.905 0 0112.5-20.29l2.16-1.48-.02-.01zm.07-1.23l-2.77 1.89a29.77 29.77 0 00-12.93 21l-.49 4.35-7 3.41a8.492 8.492 0 00-4.52 6.66l-2.11 19 12.46-6.05h23.21l11.11 6.05 2.11-19a6.56 6.56 0 00-3-6.66l-5.91-3.22.51-4.54a23.284 23.284 0 00-8.27-21l-2.35-1.89h-.05z" fill="#000"/><path d="M380.35 307.185l-3.1-9.49a5.093 5.093 0 01-.06-2.281 5.07 5.07 0 014.92-4.069c3.26 0 5.08 3.36 3.44 6.35l-5.2 9.49z" fill="#fff" stroke="#000"/><g filter="url(#filter4_f)"><path d="M301.683 251.178l1.942-17.417 3.882-34.833h49.657l-3.877 34.833-1.939 17.417h.002-49.667z" fill="#000" fill-opacity=".17"/></g><path d="M303.981 191.338h48.65l-3.815 34.278-1.889 16.972h-48.659l1.88-16.861-.497-.056.497.056 3.833-34.389z" fill="#E2F6FF" stroke="#000"/><path d="M299.689 186.742h48.65l-3.815 34.278-1.889 16.972h-48.659l1.88-16.861-.497-.055.497.055 3.833-34.389z" fill="#fff" stroke="#000"/><path d="M354.265 196.121l-.093-.28-.29-.053-3.229-.599 8.764-5.106-4.109 9.155-1.043-3.117z" fill="#006591" stroke="#006591"/><path d="M278.69 225.052s17.803-19.314 28.121-19.107c8.941.175 10.509 7.308 19.498 7.269 16.21-.056 29.601-19.904 29.601-19.904" stroke="#006591" stroke-width="2"/><g filter="url(#filter5_f)"><path d="M358.35 208.19l5.27-11.744-11.273 6.569 4.554.844 1.449 4.331z" fill="#000" fill-opacity=".24"/><path d="M281.8 232.632s17.802-19.315 28.12-19.108c8.941.175 10.509 7.309 19.498 7.269 16.21-.056 29.601-19.904 29.601-19.904" stroke="#000" stroke-opacity=".24" stroke-width="2"/></g><path d="M499.151 421.152h-70l7.8-70h70l-7.8 70z" fill="#FFE259"/><mask id="a" maskUnits="userSpaceOnUse" x="429" y="351" width="78" height="71"><path d="M499.151 421.152h-70l7.8-70h70l-7.8 70z" fill="#FFE259"/></mask><g filter="url(#filter6_f)" mask="url(#a)"><path fill-rule="evenodd" clip-rule="evenodd" d="M474.582 353.308a13.526 13.526 0 017.39-2.39c9.55 0 15.95 11.98 14.31 26.77-1.64 14.79-10.73 26.79-20.28 26.79a11.109 11.109 0 01-6.59-2.18l-36.86-13.32-1.72 15.5h-7.08l1.86-16.65h-1.87c-2.87-.17-4.69-4.73-4.06-10.35.63-5.62 3.49-10.49 6.4-10.67h8.18l40.32-13.5z" fill="#000" fill-opacity=".19"/></g><path d="M476.242 336.572a13.526 13.526 0 00-7.39 2.39l-40.32 13.5h-8.18c-2.91.18-5.77 5.05-6.4 10.67-.63 5.62 1.19 10.18 4.06 10.35h1.87l-1.86 16.65h7.08l1.72-15.5 36.86 13.32a11.107 11.107 0 006.59 2.18c9.55 0 18.64-12 20.28-26.79 1.64-14.79-4.76-26.77-14.31-26.77z" fill="#fff" stroke="#000"/><path d="M489.924 366.383c2.673-14.536-2.482-27.665-11.515-29.327-9.033-1.661-18.523 8.776-21.196 23.311-2.673 14.536 2.483 27.666 11.516 29.327 9.033 1.661 18.522-8.776 21.195-23.311z" fill="#E2F6FF" stroke="#000"/><path d="M461.481 351.832a3.34 3.34 0 00-1.45.36 42.002 42.002 0 00-2.82 11.21 38.51 38.51 0 00.32 11.22c.423.224.892.344 1.37.35 3.22 0 7.41-5.18 8.13-11.57.72-6.39-2.33-11.57-5.55-11.57z" fill="#006591"/><path d="M540.789 459.925c5.836-7.703 5.015-18.156-1.834-23.345-6.85-5.19-17.134-3.152-22.971 4.552-5.836 7.703-5.015 18.155 1.834 23.345 6.85 5.189 17.134 3.152 22.971-4.552z" stroke="#fff" stroke-width="4" stroke-miterlimit="10"/><path d="M536.315 463.98l8.22 14.42-8.22-14.42z" fill="#006591"/><path d="M536.315 463.98l8.22 14.42" stroke="#fff" stroke-width="7" stroke-miterlimit="10"/><path d="M184.639 429.875v4a5.62 5.62 0 014.23 1.84 6.45 6.45 0 011.46 5.12l-2.18 19.43h-13.82l2.08-18.57c.48-4.21 4.23-7.77 8.2-7.77v-4l.03-.05zm-.03.05c-6 0-11.47 5.06-12.17 11.32l-2.59 23 21.88.08 2.58-23c.7-6.27-3.62-11.38-9.66-11.4h-.04z" fill="#F7F8F9"/><path fill-rule="evenodd" clip-rule="evenodd" d="M161.099 477.045l36.55.14 2.26-20.18-36.54-.13-2.27 20.17zm17.828-6.221l3.23.01.74-6.59-3.23-.01-.74 6.59z" fill="#F7F8F9"/><path d="M135.404 396.718l-19.53 11.14-17.02-11.27 3.36-29.92 18.05 2.11 18.5-1.97-3.36 29.91z" fill="#F7F8F9"/><path d="M126.837 380.658l-9.37 9.26-4.28-4.66" stroke="#fff" stroke-width="3" stroke-miterlimit="10"/><path d="M529.678 140.465l-68.66-.25 8.02-71.34 68.65.25-8.01 71.34z" fill="#006591"/><g filter="url(#filter7_f)"><path d="M515.642 114.327c9.47-12.498 8.134-29.46-2.984-37.883-11.118-8.424-27.808-5.12-37.278 7.378-9.47 12.499-8.134 29.46 2.984 37.884 11.118 8.423 27.808 5.12 37.278-7.379z" fill="#000" fill-opacity=".3"/></g><path d="M507.646 66.985c10.855 8.225 12.225 24.86 2.887 37.183-9.337 12.324-25.721 15.506-36.577 7.282-10.855-8.225-12.225-24.86-2.887-37.183 9.337-12.324 25.721-15.507 36.577-7.282z" fill="#fff" stroke="#000"/><path d="M500.392 74.511c6.721 5.092 7.592 15.422 1.774 23.102-5.819 7.679-15.999 9.636-22.719 4.544-6.721-5.093-7.592-15.422-1.774-23.102 5.819-7.679 15.999-9.636 22.719-4.544z" fill="#fff" stroke="#000"/><path d="M493.221 90.84c1.95-2.574 1.675-6.067-.615-7.802-2.29-1.735-5.727-1.055-7.678 1.519-1.95 2.573-1.674 6.066.616 7.801 2.29 1.735 5.727 1.055 7.677-1.518z" fill="#006591"/><path d="M461.084 64.339l27.989 23.355" stroke="#000" stroke-width="2" stroke-miterlimit="10" stroke-linecap="round"/><path d="M464.254 67.945l-6.448 2.36-5.596-4.776 6.448-2.36 5.596 4.776zm6.655 5.671l-6.448 2.36-5.607-4.775 6.459-2.36 5.596 4.775zm-5.912-6.621l1.202-6.83-5.595-4.776-1.213 6.83 5.606 4.776zm6.644 5.671l1.214-6.83-5.596-4.776-1.213 6.841 5.595 4.766z" fill="#006591"/><path d="M359.385 420.926l-7.689 69h-68.994l7.689-69h68.994z" fill="#fff" stroke="#EFEFEF"/><path d="M328.127 388.061l6.4 11.38 3.48.64-9.36-16.66-13.26 16.66 3.68-.64 9.06-11.38z" fill="#000"/><path d="M329.902 372.151l6.39 11.39 3.48.63-9.36-16.66-13.26 16.66 3.68-.63 9.07-11.39z" fill="#000"/><path d="M72.917 490.574h-70l7.8-70h70l-7.8 70z" fill="#fff" stroke="#EFEFEF"/><path d="M38.446 458.035l6.4 11.38 3.48.64-9.36-16.66-13.26 16.66 3.68-.64 9.06-11.38z" fill="#000"/><path d="M40.23 442.124l6.39 11.39 3.48.63-9.36-16.66-13.26 16.66 3.68-.63 9.07-11.39zm449.271-262.978l6.4 11.38 3.48.64-9.36-16.66-13.26 16.66 3.68-.64 9.06-11.38z" fill="#000"/><path d="M491.284 163.236l6.39 11.39 3.48.63-9.36-16.66-13.26 16.66 3.68-.63 9.07-11.39z" fill="#000"/><g filter="url(#filter8_f)"><path fill-rule="evenodd" clip-rule="evenodd" d="M561.024 291.884a22.914 22.914 0 00-1.361-1.578c-9.557-10.102-26.46-9.631-37.754 1.053-11.294 10.684-12.703 27.535-3.146 37.637a22.73 22.73 0 003.991 3.353c4.111 3.652 10.161 7.397 17.692 7.397 14.7 0 27.95-11.92 29.59-26.63.957-8.589-3.463-15.173-9.012-21.232z" fill="#000" fill-opacity=".16"/></g><path d="M563.313 304.595c-1.64 14.7-14.89 26.62-29.6 26.62s-23.78-14.26-23.78-14.26 15-39 29.69-39c5.37 0 9.88-.88 13.07 2.63 6.63 7.24 11.66 14.67 10.62 24.01z" fill="#000" stroke="#000"/><path d="M549.717 318.285c11.294-10.684 12.702-27.535 3.146-37.637-9.557-10.103-26.46-9.631-37.754 1.053-11.294 10.684-12.703 27.535-3.146 37.637 9.557 10.102 26.46 9.631 37.754-1.053z" fill="#fff" stroke="#000"/><path d="M533.035 286.595h2.26l-.38 3.43c.706.052 1.406.173 2.09.36a13.37 13.37 0 012.15.82l-1.16 2.26a10.675 10.675 0 00-2.27-.9 8.925 8.925 0 00-2.23-.28 5.357 5.357 0 00-2.88.73 2.837 2.837 0 00-1.34 2.23 1.993 1.993 0 00.76 2 8.931 8.931 0 002.47 1.15l1.57.5a8.678 8.678 0 013.85 2.16 4.23 4.23 0 011 3.49 5.313 5.313 0 01-.74 2.23 6.291 6.291 0 01-1.51 1.7 7.546 7.546 0 01-2.09 1.14 10.13 10.13 0 01-2.44.57l-.38 3.47h-2.27l.39-3.47a12.157 12.157 0 01-2.67-.39 11.95 11.95 0 01-2.45-1l1.38-2.29a8.526 8.526 0 002.69 1.11c.787.179 1.592.277 2.4.29a6.089 6.089 0 003.08-.75 3.001 3.001 0 001.49-2.4 2.218 2.218 0 00-.78-2.14 8.463 8.463 0 00-2.9-1.33l-1.57-.46a7.998 7.998 0 01-3.42-1.86 3.888 3.888 0 01-1-3.36 5.658 5.658 0 01.603-2.167 5.658 5.658 0 011.397-1.763 8.083 8.083 0 014.49-1.68l.41-3.4z" fill="#000"/><defs><filter id="filter0_f" x="166.05" y="335.557" width="52.047" height="83.112" filterUnits="userSpaceOnUse" color-interpolation-filters="sRGB"><feFlood flood-opacity="0" result="BackgroundImageFix"/><feBlend in="SourceGraphic" in2="BackgroundImageFix" result="shape"/><feGaussianBlur stdDeviation="4.5" result="effect1_foregroundBlur"/></filter><filter id="filter1_f" x="321.182" y="67.222" width="71.743" height="70.719" filterUnits="userSpaceOnUse" color-interpolation-filters="sRGB"><feFlood flood-opacity="0" result="BackgroundImageFix"/><feBlend in="SourceGraphic" in2="BackgroundImageFix" result="shape"/><feGaussianBlur stdDeviation="3.5" result="effect1_foregroundBlur"/></filter><filter id="filter2_f" x="225.104" y="292.287" width="69.521" height="48.516" filterUnits="userSpaceOnUse" color-interpolation-filters="sRGB"><feFlood flood-opacity="0" result="BackgroundImageFix"/><feBlend in="SourceGraphic" in2="BackgroundImageFix" result="shape"/><feGaussianBlur stdDeviation="5" result="effect1_foregroundBlur"/></filter><filter id="filter3_f" x="348.354" y="239.943" width="70.981" height="91.29" filterUnits="userSpaceOnUse" color-interpolation-filters="sRGB"><feFlood flood-opacity="0" result="BackgroundImageFix"/><feBlend in="SourceGraphic" in2="BackgroundImageFix" result="shape"/><feGaussianBlur stdDeviation="5.5" result="effect1_foregroundBlur"/></filter><filter id="filter4_f" x="291.683" y="188.928" width="75.481" height="72.25" filterUnits="userSpaceOnUse" color-interpolation-filters="sRGB"><feFlood flood-opacity="0" result="BackgroundImageFix"/><feBlend in="SourceGraphic" in2="BackgroundImageFix" result="shape"/><feGaussianBlur stdDeviation="5" result="effect1_foregroundBlur"/></filter><filter id="filter5_f" x="274.064" y="189.446" width="96.556" height="50.863" filterUnits="userSpaceOnUse" color-interpolation-filters="sRGB"><feFlood flood-opacity="0" result="BackgroundImageFix"/><feBlend in="SourceGraphic" in2="BackgroundImageFix" result="shape"/><feGaussianBlur stdDeviation="3.5" result="effect1_foregroundBlur"/></filter><filter id="filter6_f" x="410.558" y="341.918" width="94.981" height="71.56" filterUnits="userSpaceOnUse" color-interpolation-filters="sRGB"><feFlood flood-opacity="0" result="BackgroundImageFix"/><feBlend in="SourceGraphic" in2="BackgroundImageFix" result="shape"/><feGaussianBlur stdDeviation="4.5" result="effect1_foregroundBlur"/></filter><filter id="filter7_f" x="449.233" y="52.191" width="92.555" height="93.767" filterUnits="userSpaceOnUse" color-interpolation-filters="sRGB"><feFlood flood-opacity="0" result="BackgroundImageFix"/><feBlend in="SourceGraphic" in2="BackgroundImageFix" result="shape"/><feGaussianBlur stdDeviation="4.5" result="effect1_foregroundBlur"/></filter><filter id="filter8_f" x="505.424" y="276.027" width="71.743" height="70.719" filterUnits="userSpaceOnUse" color-interpolation-filters="sRGB"><feFlood flood-opacity="0" result="BackgroundImageFix"/><feBlend in="SourceGraphic" in2="BackgroundImageFix" result="shape"/><feGaussianBlur stdDeviation="3.5" result="effect1_foregroundBlur"/></filter></defs></svg>