<svg width="70" height="70" fill="none" xmlns="http://www.w3.org/2000/svg"><path d="M7.627 34.962c0-9.435 7.648-17.083 17.083-17.083h24.443v9.958H25.47a7.124 7.124 0 100 14.249h23.683v9.959H24.71c-9.435 0-17.083-7.648-17.083-17.083z" stroke="#fff"/><mask id="a" fill="#fff"><path fill-rule="evenodd" clip-rule="evenodd" d="M43.64 52.545h6.014v-10.96H43.64v10.96zm0-24.208V17.38h6.014v10.958H43.64z"/></mask><path fill-rule="evenodd" clip-rule="evenodd" d="M43.64 52.545h6.014v-10.96H43.64v10.96zm0-24.208V17.38h6.014v10.958H43.64z" fill="#FFE259"/><path d="M43.64 52.545h-2v2h2v-2zm6.014 0v2h2v-2h-2zm0-10.96h2v-2h-2v2zm-6.013 0v-2h-2v2h2zm0-13.248h-2v2h2v-2zm0-10.958v-2h-2v2h2zm6.013 0h2v-2h-2v2zm0 10.958v2h2v-2h-2zM43.64 54.545h6.013v-4H43.64v4zm8.013-2v-10.96h-4v10.96h4zm-2-12.96H43.64v4h6.013v-4zm-4.013 12.96v-10.96h-4v10.96h4zm0-24.208V17.38h-4v10.958h4zm4.013-12.958H43.64v4h6.013v-4zm2 12.958V17.38h-4v10.958h4zm-8.013 2h6.013v-4H43.64v4z" fill="#FFE259" mask="url(#a)"/><path stroke="#fff" d="M56.102 18.379h6.032v6.032h-6.032zm0 13.57h6.032v6.032h-6.032zm0 13.571h6.032v6.032h-6.032z"/></svg>