<svg width="70" height="71" fill="none" xmlns="http://www.w3.org/2000/svg"><path d="M35.127 25.973l2.726 5.812 6.37.797-4.685 4.39 1.21 6.304-5.621-3.1-5.623 3.1 1.21-6.305-4.684-4.39 6.37-.796 2.727-5.812z" stroke="#fff"/><path fill="#FFE259" stroke="#FFE259" stroke-width="2" d="M21.777 25.251V21.66h3.592v3.592zm23.107 23.105v-3.592h3.592v3.592z"/><path stroke="#fff" d="M9.726 37.304v-4.592h4.592v4.592zM32.83 60.41v-4.592h4.593v4.592zm0-46.21V9.606h4.593V14.2z"/><path fill="#FFE259" stroke="#FFE259" stroke-width="2" d="M21.777 48.357v-3.592h3.592v3.592zM44.885 25.25v-3.59h3.592v3.592z"/><path stroke="#fff" d="M55.937 37.304v-4.592h4.592v4.592z"/></svg>