<svg width="63" height="63" fill="none" xmlns="http://www.w3.org/2000/svg"><rect x=".853" y=".996" width="61.826" height="61.826" rx="18" fill="#082C46"/><g clip-path="url(#clip0)"><path d="M37.109 31.67l.734-.318-.734.319zm.774 2.557l.787-.141-.787.14zm-.497.754l-.172-.782-.02.005-.021.006.213.77zm-.142.039l-.213-.771-.01.003-.01.003.233.765zm-1.86 2.232l.795.084-.795-.084zm1.491 2.608l.337-.725-.337.725zm.328.834l-.74-.303v.001l.74.302zm-1.29 2.357l.65.467.003-.005-.653-.462zm-.88.19l-.404.691.003.002.402-.692zm-3.007.227l-.503-.622.503.622zm-.825 2.87l.757-.26v-.001l-.757.261zm-.366.815l-.315-.735.315.735zm-2.56.773l-.144-.787h-.002l.146.787zm-.757-.486l.777-.187v-.002l-.777.189zm-2.282-1.969l-.078.796h.001l.077-.796zm-2.642 1.494l.722.346v-.001l-.722-.345zm-.844.332l-.294.744.294-.744zm-2.346-1.25l.454-.658-.003-.002-.451.66zm-.19-.867l-.686-.41.686.41zm-.211-2.972l.617-.509-.617.509zm-2.809-.826l.234.765.01-.003.009-.003-.253-.759zm-.914-.325l-.734.318.734-.318zm-.774-2.556l-.788.139v.002l.788-.141zm.488-.752l.21.772.011-.004.013-.003-.234-.765zm2.01-2.273l.795.084-.795-.084zm-1.49-2.61l-.339.726h.002l.336-.725zm-.329-.832l.741.301-.74-.301zm1.29-2.358l-.651-.463-.002.001.654.462zm.88-.19l.405-.69v-.001l-.405.69zm3.007-.226l.503.623-.503-.623zm.826-2.871l-.757.26.757-.26zm.366-.815l.315.735-.315-.735zm2.56-.773l-.145-.787.144.787zm.757.486l-.777.187v.002l.777-.19zm2.28 1.97l-.079.797h.003l.076-.796zm2.642-1.494l-.722-.344.722.344zm.843-.332l-.292.744.292-.744zm2.35 1.248l-.454.66.453-.66zm.188.868l-.686-.411v.001l.686.41zm.212 2.972l-.618.508.618-.508zm4.457.833c-.184-.422-.549-.651-.857-.756a1.675 1.675 0 00-1.01-.02l.467 1.53c-.012.003-.011 0 .001.001a.11.11 0 01.03.005c.007.003-.001.001-.02-.014a.29.29 0 01-.08-.109l1.469-.637zm.827 2.733a12.384 12.384 0 00-.827-2.733l-1.468.637c.332.765.574 1.566.72 2.38l1.575-.284zm-1.113 1.677a1.46 1.46 0 001.113-1.676l-1.574.282a.143.143 0 01.019-.104.158.158 0 01.1-.065l.342 1.563zm-.1.029l.142-.04-.426-1.541-.142.039.426 1.542zm-1.278 1.545c.074-.703.595-1.336 1.299-1.55l-.467-1.531c-1.306.398-2.28 1.559-2.423 2.913l1.591.168zm1.033 1.798a1.781 1.781 0 01-1.033-1.798l-1.59-.168a3.381 3.381 0 001.95 3.418l.673-1.452zm.732 1.862a1.447 1.447 0 00-.732-1.861l-.674 1.45a.153.153 0 01-.075-.194l1.481.605zm-1.378 2.517a12.578 12.578 0 001.379-2.518l-1.483-.603a10.971 10.971 0 01-1.202 2.198l1.306.923zm-1.934.42a1.47 1.47 0 001.931-.415l-1.3-.933a.13.13 0 01.172-.035l-.803 1.384zm-2.103.157c.56-.453 1.485-.518 2.1-.158l.809-1.38c-1.186-.695-2.835-.58-3.915.294l1.006 1.244zm-.572 1.987a1.81 1.81 0 01.572-1.987l-1.007-1.244a3.41 3.41 0 00-1.077 3.753l1.512-.522zm-.807 1.811a1.456 1.456 0 00.808-1.81l-1.514.52a.144.144 0 01.076-.18l.63 1.47zm-1.309.479c.444-.135.88-.295 1.31-.479l-.632-1.47c-.375.16-.756.3-1.144.419l.466 1.53zm-1.422.346c.48-.088.955-.203 1.422-.346l-.466-1.53c-.41.124-.824.225-1.244.302l.288 1.574zm-1.68-1.086a1.454 1.454 0 001.682 1.086l-.292-1.573a.146.146 0 01.166.113l-1.555.374zm-1.58-1.36a1.803 1.803 0 011.581 1.362l1.555-.378a3.403 3.403 0 00-2.983-2.576l-.153 1.592zm-1.842 1.043c.309-.65 1.123-1.113 1.841-1.043l.156-1.592c-1.393-.136-2.844.693-3.442 1.946l1.445.689zm-1.86.731a1.466 1.466 0 001.859-.73l-1.443-.691a.134.134 0 01.17-.067l-.587 1.488zm-2.508-1.335a12.52 12.52 0 002.507 1.335l.588-1.488a10.925 10.925 0 01-2.186-1.164l-.909 1.317zm-.422-1.936c-.39.655-.21 1.503.425 1.938l.903-1.321a.154.154 0 01.046.203l-1.374-.82zm-.142-2.053a1.79 1.79 0 01.143 2.053l1.373.82a3.392 3.392 0 00-.281-3.89l-1.235 1.017zm-1.938-.576a1.807 1.807 0 011.939.576l1.233-1.019c-.9-1.09-2.379-1.507-3.677-1.075l.505 1.518zm-1.9-.766c.186.431.563.658.871.758.314.101.677.116 1.01.014l-.467-1.53c.008-.003.004 0-.011 0a.14.14 0 01-.039-.006c-.01-.004 0-.003.019.013.02.016.057.053.084.115l-1.468.636zm-.829-2.733c.169.936.448 1.856.828 2.733l1.468-.636a10.83 10.83 0 01-.72-2.38l-1.575.283zm1.067-1.666a1.443 1.443 0 00-1.067 1.664l1.576-.278a.15.15 0 01-.025.1.17.17 0 01-.044.046c-.014.011-.024.013-.022.013l-.418-1.544zm1.423-1.584c-.072.681-.601 1.333-1.447 1.591l.467 1.53c1.374-.419 2.423-1.548 2.571-2.953l-1.59-.169zm-1.031-1.8c.7.325 1.11 1.05 1.031 1.8l1.591.168a3.382 3.382 0 00-1.95-3.42l-.672 1.452zm-.733-1.86c-.293.72.034 1.535.731 1.86l.676-1.45a.15.15 0 01.075.193l-1.482-.603zm1.378-2.518a12.543 12.543 0 00-1.378 2.519l1.482.601a11 11 0 011.203-2.197l-1.307-.923zm1.937-.42a1.468 1.468 0 00-1.935.418l1.304.927a.132.132 0 01-.177.037l.808-1.381zm2.1-.156c-.556.45-1.486.518-2.099.158l-.81 1.38c1.188.697 2.841.575 3.915-.293l-1.006-1.245zm.572-1.99a1.813 1.813 0 01-.572 1.99l1.007 1.244a3.413 3.413 0 001.078-3.754l-1.513.52zm.808-1.81a1.456 1.456 0 00-.808 1.81l1.513-.519a.144.144 0 01-.075.18l-.63-1.47zm2.73-.824c-.938.172-1.852.448-2.73.825l.63 1.47c.768-.33 1.568-.57 2.39-.722l-.29-1.573zm1.68 1.085a1.454 1.454 0 00-1.68-1.085l.289 1.573a.146.146 0 01-.164-.113l1.555-.375zm1.58 1.362a1.806 1.806 0 01-1.58-1.363l-1.555.378a3.406 3.406 0 002.978 2.578l.157-1.593zm1.842-1.041c-.307.644-1.12 1.11-1.845 1.041l-.151 1.593c1.393.133 2.845-.695 3.44-1.947l-1.444-.687zm1.858-.734a1.468 1.468 0 00-1.858.733l1.444.688a.138.138 0 01-.072.07.136.136 0 01-.1-.002l.586-1.489zm2.51 1.333a12.544 12.544 0 00-2.51-1.333l-.585 1.49c.764.299 1.5.69 2.188 1.162l.906-1.319zm.422 1.94a1.447 1.447 0 00-.423-1.94l-.905 1.32a.153.153 0 01-.045-.203l1.373.823zm.143 2.052a1.796 1.796 0 01-.143-2.054l-1.374-.82a3.395 3.395 0 00.281 3.89l1.236-1.016zm1.972.564c-.744.227-1.513-.007-1.973-.565l-1.234 1.018c.886 1.076 2.335 1.486 3.674 1.077l-.467-1.53zM27.552 40.81c2.47-.754 3.883-3.351 3.132-5.814l-1.53.467c.488 1.6-.427 3.315-2.07 3.816l.468 1.53zm-5.844-3.076c.751 2.463 3.374 3.83 5.844 3.076l-.467-1.53c-1.642.5-3.358-.412-3.847-2.013l-1.53.467zm3.132-5.814c-2.47.754-3.883 3.35-3.132 5.814l1.53-.467c-.488-1.601.427-3.316 2.069-3.816l-.467-1.53zm5.844 3.076c-.752-2.463-3.374-3.83-5.844-3.076l.467 1.53c1.642-.5 3.358.412 3.846 2.013l1.53-.467z" fill="#FFE259"/><path d="M15.266 25.91v-8.5h17.5m15 14.5v12.5h-8.5" stroke="#0089C4" stroke-width="1.6"/><path d="M48.029 22.69l.797-.06v-.001l-.797.06zm-1.734-1.276l-.75.277v.001l.75-.278zm.428-1.588l-.513-.614h-.002l.515.614zm.059-.488l-.645.475.645-.475zm-1-1.076l-.52.607.52-.607zm-.5.02l-.57-.561.57.562zm-1.65.302l-.334.726.002.001.333-.727zm-.831-1.441l-.796-.078v.001l.796.077zm-.308-.391l.122-.79v-.001l-.122.79zm-1.475-.06l.057.798-.057-.798zm-.339.358l-.8-.002.8.003zm-.95 1.35l.27.752h.002l-.272-.753zm-1.61-.428l.61-.519h-.002l-.608.519zm-.493-.06l-.464-.652-.002.002.466.65zm-1.1.996l.6.528h.002l-.602-.528zm.02.494l-.557.575h.001l.556-.575zm.305 1.631l.724.341-.724-.34zm-1.46.822l-.055.798.012.001h.013l.03-.799zm-.39.304l-.79-.127v.003l.79.124zm-.06 1.474l-.797.06.797-.06zm.418.335l-.03.8h.02l.01-.8zm1.316.94l.75-.279-.75.278zm-.428 1.588l-.514-.612.514.612zm-.058.487l.645-.473-.002-.003-.643.476zm.998 1.077l-.522.606.522-.606zm.5-.02l.569.563v-.001l-.569-.562zm1.649-.302l-.335.727h.001l.334-.727zm.834 1.44l.796.08v-.003l-.796-.076zm.307.392l.122-.79-.002-.001-.12.79zm1.475.06l-.056-.798h-.001l.057.798zm.339-.359l.8.003v-.002l-.8-.001zm.95-1.348l-.271-.753h-.001l.272.753zm1.61.427l-.609.52.002.002.607-.522zm.493.06l.461.654.005-.004-.466-.65zm1.1-.997l-.6-.528h-.001l.601.528zm-.02-.494l.556-.575-.556.575zm-.306-1.63l.724.34-.724-.34zm1.375-.828l.051-.798-.01-.001h-.01l-.031.799zm.08.005l.095-.794-.021-.003-.022-.001-.051.798zm.397-.303l.79.125-.79-.125zm.857-1.534a1.135 1.135 0 00-.448-.805 1.282 1.282 0 00-.73-.27l-.06 1.6a.319.319 0 01-.191-.067.469.469 0 01-.167-.338l1.596-.12zm-1.177-1.075a.658.658 0 01-.605-.418l-1.5.556a2.258 2.258 0 002.044 1.461l.06-1.598zm-.604-.417a.633.633 0 01.191-.699l-1.029-1.225a2.233 2.233 0 00-.663 2.478l1.5-.554zm.19-.698c.47-.393.553-1.083.19-1.576l-1.288.95a.443.443 0 01.072-.601l1.026 1.227zm.19-1.575a7.25 7.25 0 00-1.124-1.21l-1.04 1.216c.324.276.618.593.875.943l1.289-.95zm-1.123-1.21a1.169 1.169 0 00-1.59.067l1.139 1.123a.431.431 0 01-.59.025l1.04-1.215zm-1.59.067a.73.73 0 01-.747.135l-.666 1.455c.84.384 1.909.186 2.552-.467l-1.14-1.123zm-.745.136a.64.64 0 01-.37-.638l-1.594-.153a2.24 2.24 0 001.294 2.244l.67-1.453zm-.371-.636a1.161 1.161 0 00-.982-1.26l-.243 1.582a.439.439 0 01-.367-.478l1.592.156zm-.983-1.26a7.426 7.426 0 00-1.653-.067l.114 1.596a5.817 5.817 0 011.297.053l.242-1.582zm-1.652-.067c-.602.043-1.08.54-1.083 1.154l1.6.005a.438.438 0 01-.404.437l-.114-1.596zm-1.083 1.154c0 .265-.17.508-.422.599l.544 1.505a2.242 2.242 0 001.478-2.1l-1.6-.004zm-.421.599a.734.734 0 01-.73-.194l-1.218 1.038c.59.692 1.632.97 2.49.66l-.542-1.505zm-.73-.195a1.169 1.169 0 00-1.566-.192l.928 1.304a.431.431 0 01-.579-.072l1.216-1.04zm-1.568-.19c-.454.325-.87.701-1.236 1.12l1.204 1.053c.284-.324.609-.618.964-.872l-.932-1.301zm-1.235 1.119a1.158 1.158 0 00.064 1.596l1.114-1.149c.166.161.18.43.024.608l-1.202-1.055zm.065 1.597c.198.19.248.479.137.715l1.448.68a2.226 2.226 0 00-.473-2.546l-1.112 1.15zm.137.715c-.092.195-.34.377-.705.363l-.061 1.599c.917.034 1.813-.428 2.214-1.281l-1.448-.681zm-.68.364a1.155 1.155 0 00-1.236.975l1.58.255a.44.44 0 01-.161.27.43.43 0 01-.294.096l.11-1.596zm-1.237.978a7.22 7.22 0 00-.066 1.657l1.595-.119a5.622 5.622 0 01.052-1.29l-1.58-.248zm-.066 1.658c.03.394.264.665.459.812.198.15.455.252.726.262l.06-1.598a.3.3 0 01.179.06.472.472 0 01.171.344l-1.595.12zm1.205 1.075a.64.64 0 01.576.418l1.5-.558a2.24 2.24 0 00-2.055-1.46l-.02 1.6zm.576.418a.631.631 0 01-.192.698l1.029 1.225a2.23 2.23 0 00.663-2.48l-1.5.557zm-.192.698a1.157 1.157 0 00-.187 1.575l1.286-.952a.443.443 0 01-.07.602l-1.03-1.225zm-.19 1.572a7.28 7.28 0 001.122 1.21l1.043-1.213a5.683 5.683 0 01-.874-.943l-1.29.946zm1.122 1.21a1.168 1.168 0 001.59-.063l-1.136-1.126a.432.432 0 01.59-.024l-1.044 1.213zm1.591-.064a.728.728 0 01.745-.137l.67-1.453c-.84-.387-1.91-.186-2.553.465l1.138 1.125zm.746-.136c.25.114.396.372.371.637l1.593.152a2.237 2.237 0 00-1.297-2.244l-.667 1.455zm.371.634c-.06.622.38 1.17.984 1.26l.24-1.581a.439.439 0 01.369.478l-1.593-.157zm.982 1.26c.28.044.562.07.845.081l.061-1.599a5.766 5.766 0 01-.662-.063l-.244 1.581zm.845.081c.27.01.539.006.81-.013l-.115-1.596a5.755 5.755 0 01-.634.01l-.06 1.6zm.809-.013a1.162 1.162 0 001.082-1.154l-1.6-.006a.438.438 0 01.405-.436l.113 1.596zm1.082-1.156a.64.64 0 01.421-.596l-.543-1.505a2.241 2.241 0 00-1.478 2.099l1.6.002zm.42-.596a.732.732 0 01.731.193l1.217-1.039c-.589-.69-1.627-.97-2.49-.66l.543 1.506zm.733.196a1.17 1.17 0 001.561.192l-.922-1.308a.43.43 0 01.574.072l-1.213 1.044zm1.566.188a7.302 7.302 0 001.236-1.119l-1.203-1.055a5.64 5.64 0 01-.965.873l.932 1.301zm1.235-1.118c.41-.466.38-1.168-.065-1.598l-1.112 1.15a.443.443 0 01-.024-.609l1.2 1.057zm-.065-1.598a.625.625 0 01-.138-.715l-1.448-.68a2.225 2.225 0 00.474 2.546l1.112-1.151zm-.138-.716a.67.67 0 01.62-.368l.061-1.599a2.27 2.27 0 00-2.13 1.288l1.45.68zm.6-.369l.08.006.103-1.597-.08-.005-.104 1.596zm.038.002a1.164 1.164 0 001.28-.973l-1.58-.25a.436.436 0 01.488-.366l-.188 1.589zm1.28-.974a7.197 7.197 0 00.067-1.658l-1.596.12c.032.432.015.866-.051 1.29l1.58.248z" fill="#FFE259"/></g><defs><clipPath id="clip0"><path fill="#fff" transform="translate(11.766 11.91)" d="M0 0h40v40H0z"/></clipPath></defs></svg>