<svg width="140" height="15" fill="none" xmlns="http://www.w3.org/2000/svg"><path d="M138.847 7.727a.5.5 0 000-.708l-3.182-3.181a.5.5 0 10-.707.707l2.828 2.828-2.828 2.828a.5.5 0 00.707.707l3.182-3.181zM.654 7.873h2.462v-1H.654v1zm7.385 0h4.922v-1H8.04v1zm9.845 0h4.923v-1h-4.923v1zm9.846 0h4.923v-1H27.73v1zm9.845 0h4.923v-1h-4.923v1zm9.846 0h4.923v-1H47.42v1zm9.846 0h4.922v-1h-4.922v1zm9.845 0h4.923v-1h-4.923v1zm9.846 0h4.923v-1h-4.923v1zm9.846 0h4.922v-1h-4.922v1zm9.845 0h4.923v-1h-4.923v1zm9.846 0h4.923v-1h-4.923v1zm9.845 0h4.923v-1h-4.923v1zm9.846 0h4.923v-1h-4.923v1zm9.846 0h2.461v-1h-2.461v1zm3.168.207a1 1 0 000-1.414L132.836.302a1 1 0 10-1.414 1.414l5.657 5.657-5.657 5.657a1 1 0 001.414 1.414L139.2 8.08zM.654 8.373h2.462v-2H.654v2zm7.385 0h4.922v-2H8.04v2zm9.845 0h4.923v-2h-4.923v2zm9.846 0h4.923v-2H27.73v2zm9.845 0h4.923v-2h-4.923v2zm9.846 0h4.923v-2H47.42v2zm9.846 0h4.922v-2h-4.922v2zm9.845 0h4.923v-2h-4.923v2zm9.846 0h4.923v-2h-4.923v2zm9.846 0h4.922v-2h-4.922v2zm9.845 0h4.923v-2h-4.923v2zm9.846 0h4.923v-2h-4.923v2zm9.845 0h4.923v-2h-4.923v2zm9.846 0h4.923v-2h-4.923v2zm9.846 0h2.461v-2h-2.461v2z" fill="#082C46"/></svg>