<svg width="117" height="17" fill="none" xmlns="http://www.w3.org/2000/svg"><path fill-rule="evenodd" clip-rule="evenodd" d="M99.242.932h-.873l-.593 2.036h-2.06l-3.453 11.927h2.044l-.593 2.036h16.001l.592-2.036h2.354l3.454-11.927h-2.338l.592-2.036H99.242zm7.294 11.927l2.327-8h-7.273l-2.327 8h7.273zM50.663.932h18.035l-.677 2.327h2.57l-1.164 3.927h-2.549l-1.058 3.637h2.44l-1.163 3.927h-2.42l-.634 2.181H46.01l4.654-16zm3.221 11.927h6.98l.55-1.89h-6.98l-.55 1.89zm9.308-8l-.635 2.182h-6.98l.635-2.182h6.98zM73.354.932h18.033l-.677 2.327h2.57l-1.163 3.928h-2.55l-1.057 3.636h2.44l-1.163 3.927h-2.42l-.634 2.181H68.699l4.655-16zm3.22 11.927h6.98l.55-1.89h-6.98l-.55 1.89zm9.307-8l-.635 2.182h-6.979l.635-2.182h6.98zM34.661.932h-6.397l-4.655 16h19.782l1.309-4.073H31.485l.465-1.6h13.332l1.163-3.927H33.093l.72-2.473h13.212L48.188.932H34.661zm-15.708 0h6.69l-4.654 16H14.3l.507-1.746h-2.25l.661-2.036h-2.62l-.662 2.036H7.827l-.508 1.745H.628l4.654-16h6.691L9.52 9.369h2.229l.709-2.182h2.421l-.709 2.182h2.33L18.953.932z" fill="#fff"/></svg>