<svg width="101" height="15" fill="none" xmlns="http://www.w3.org/2000/svg"><path fill-rule="evenodd" clip-rule="evenodd" d="M85.973.466h-.761l-.517 1.775H82.9l-3.01 10.398h1.782l-.517 1.775h13.949l.516-1.775h2.053l3.011-10.398h-2.039l.517-1.775H85.973zm6.359 10.398l2.029-6.975h-6.34l-2.03 6.975h6.34zM59.218.466h.127l-.59 2.029h2.239l-1.015 3.423h-2.22l-.923 3.17h2.127l-1.014 3.425H55.84l-.553 1.901H39.565L43.622.466H59.22zM46.43 10.864h6.086l.48-1.648H46.91l-.48 1.648zm8.115-6.975l-.554 1.903h-6.085l.553-1.903h6.086zM79 .466h.126l-.59 2.03h2.24L79.76 5.918h-2.22l-.922 3.17h2.126l-1.014 3.424h-2.108l-.553 1.901H59.346L63.403.466H79zM66.212 10.864h6.085l.48-1.648H66.69l-.48 1.648zm8.114-6.975l-.553 1.903h-6.086l.553-1.903h6.086zM29.673.466h-5.578l-4.058 13.948h17.246l1.14-3.55h-11.52l.406-1.395H38.93l1.014-3.424h-11.64l.627-2.156H40.45L41.465.466H29.673zm-13.695 0h5.833l-4.058 13.948H11.92l.443-1.521H10.4l.577-1.776H8.694l-.577 1.775h-1.84l-.442 1.522H.002L4.06.466h5.833L7.753 7.82h1.944l.618-1.902h2.111l-.618 1.903h2.03l2.14-7.355z" fill="#000"/></svg>