<svg width="150" height="36" fill="none" xmlns="http://www.w3.org/2000/svg"><path d="M46.111 23.043l1.263-3.236h5.625l1.263 3.236h4.19L52.138 7.73h-3.73l-6.372 15.312h4.075zm4.133-10.4l1.55 4.044h-3.157l1.607-4.045zm17.678 10.4c1.607 0 2.927-.404 3.903-1.213.976-.81 1.492-1.85 1.492-3.178 0-1.098-.286-2.023-.86-2.716-.575-.693-1.263-1.156-2.01-1.329a3.279 3.279 0 001.78-2.947c0-2.484-1.952-3.871-4.707-3.871h-7.346v15.254h7.748zm-3.903-6.53h3.157c1.148 0 1.894.636 1.894 1.619 0 .982-.689 1.617-1.894 1.617h-3.157v-3.235zm0-5.546h2.87c.976 0 1.55.52 1.55 1.329 0 .809-.632 1.329-1.55 1.329h-2.87v-2.658zM78.77 23.043l6.371-8.667v8.667h3.903V7.789h-3.386l-6.257 8.61v-8.61H75.5v15.254h3.271zm16.014 0l1.263-3.236h5.625l1.262 3.236h4.19L100.753 7.73h-3.73l-6.314 15.312h4.075zm4.132-10.4l1.608 4.044h-3.157l1.55-4.045zm15.325 10.4V11.256h4.535V7.789h-12.972v3.467h4.534v11.787h3.903zm10.217-4.507c-.746-.809-1.148-1.849-1.148-3.062 0-1.214.345-2.312 1.148-3.063.746-.809 1.722-1.213 2.87-1.213 1.148 0 2.066.404 2.812 1.213.747.81 1.148 1.85 1.148 3.063s-.401 2.31-1.148 3.062c-.746.809-1.664 1.213-2.812 1.213s-2.124-.404-2.87-1.213zm8.552 2.485c1.493-1.56 2.296-3.41 2.296-5.605 0-2.196-.746-4.045-2.296-5.605-1.492-1.56-3.444-2.311-5.682-2.311-2.296 0-4.19.751-5.682 2.311-1.493 1.56-2.296 3.41-2.296 5.605 0 2.196.746 4.045 2.296 5.605 1.492 1.56 3.443 2.31 5.682 2.31 2.238 0 4.19-.75 5.682-2.31zm8.61 2.022V17.38h2.87c1.664 0 3.042-.463 4.017-1.33.976-.866 1.493-2.022 1.493-3.466 0-1.445-.517-2.543-1.493-3.467-.975-.867-2.353-1.33-4.017-1.33h-6.716v15.255h3.846zm0-11.903h2.583c1.148 0 1.836.52 1.836 1.502 0 .983-.746 1.503-1.836 1.503h-2.583V11.14z" fill="#41ACFA"/><path d="M44.677 32.333v-3.12h1.263v-.751h-3.386v.751h1.262v3.12h.861zm8.438-.635c-.345 0-.689-.116-.919-.347-.23-.231-.344-.52-.344-.924 0-.347.115-.694.344-.925.23-.231.517-.347.919-.347.344 0 .631.116.918.347.23.231.344.52.344.925 0 .346-.114.693-.344.924-.287.231-.574.347-.918.347zm0 .75c.631 0 1.09-.173 1.492-.577.402-.404.574-.867.574-1.444 0-.578-.172-1.04-.574-1.445-.402-.404-.918-.578-1.492-.578-.632 0-1.09.174-1.493.578-.401.404-.574.867-.574 1.445 0 .577.173 1.04.574 1.444.345.347.861.578 1.493.578zm9.815-4.044c-.574 0-1.033.231-1.378.636v-.52h-.803v5.431h.86v-2.08c.345.404.747.636 1.378.636.517 0 .976-.174 1.32-.578.344-.405.517-.867.517-1.445 0-.578-.172-1.04-.517-1.444-.402-.462-.803-.636-1.377-.636zm-.23.751c.344 0 .631.116.861.405.23.23.344.52.344.924 0 .347-.114.636-.344.925a1.17 1.17 0 01-.861.346c-.517 0-.918-.288-1.148-.693V29.85c.23-.405.689-.694 1.148-.694zm8.495 3.178v-3.12h2.123v-.751h-2.927v3.871h.804zm9.298-.635c-.344 0-.689-.116-.918-.347-.23-.231-.345-.52-.345-.924 0-.347.115-.694.345-.925.23-.231.516-.347.918-.347s.631.116.918.347c.23.231.345.52.345.925 0 .346-.115.693-.345.924-.287.231-.574.347-.918.347zm0 .75c.631 0 1.09-.173 1.492-.577.402-.404.574-.867.574-1.444 0-.578-.172-1.04-.574-1.445-.401-.404-.918-.578-1.492-.578-.631 0-1.09.174-1.492.578-.402.404-.574.867-.574 1.445 0 .577.172 1.04.574 1.444.401.404.86.578 1.492.578zm9.815-.115c.86 0 1.32-.404 1.32-1.04 0-.52-.23-.809-.746-.982.287-.116.516-.462.516-.809 0-.578-.401-.982-1.205-.982h-2.066v3.813h2.18zm-1.378-1.618h1.206c.401 0 .631.174.631.463 0 .288-.23.462-.631.462H88.93v-.925zm0-1.56h1.034c.401 0 .573.116.573.405 0 .23-.23.404-.573.404H88.93v-.809zm12.972 3.178v-3.871h-.861v3.871h.861zm-2.87 0c.46 0 .861-.115 1.091-.404.287-.231.402-.578.402-.982 0-.81-.632-1.33-1.55-1.33h-.918v-1.155h-.861v3.871h1.836zm-.918-1.964h.803c.517 0 .804.23.804.635s-.287.636-.803.636h-.804v-1.271zm10.446 1.964l2.066-2.6v2.6h.861v-3.871h-.803l-2.066 2.6v-2.6h-.861v3.871h.803zM109.593 28c.804 0 1.32-.52 1.32-1.271h-.688c0 .404-.287.635-.632.635-.401 0-.631-.289-.631-.636h-.689c0 .752.517 1.272 1.32 1.272zm14.694 5.373v-1.04h3.157v1.04h.803v-1.79h-.688v-3.121h-3.043c0 .867-.057 1.502-.114 1.965-.058.462-.23.808-.402 1.155h-.517v1.791h.804zm.574-1.79c.287-.579.459-1.33.459-2.37h1.435v2.37h-1.894zm10.676.115c-.345 0-.689-.116-.919-.347-.229-.231-.344-.52-.344-.924 0-.347.115-.694.344-.925.23-.231.517-.347.919-.347.344 0 .631.116.918.347.23.231.344.52.344.925 0 .346-.114.693-.344.924-.287.231-.574.347-.918.347zm0 .75c.631 0 1.09-.173 1.492-.577.402-.404.574-.867.574-1.444 0-.578-.172-1.04-.574-1.445-.402-.404-.918-.578-1.492-.578-.632 0-1.091.174-1.493.578-.401.404-.574.867-.574 1.445 0 .577.173 1.04.574 1.444.345.347.861.578 1.493.578zm8.437-.115v-2.715l1.148 1.444h.344l1.148-1.445v2.716h.804v-3.871h-.804l-1.32 1.618-1.32-1.618h-.804v3.871h.804zM0 27.178l5.47-4.436V36H0v-8.822zm32.771 0l-5.47-4.436V36h5.47v-8.822z" fill="#5C6B72"/><path d="M16.005 0l13.626 10.25-1.52 2.039L16.056 3.16 4.305 12.29l-1.57-2.04L16.004 0z" fill="#F5BA40"/><path d="M16.26 6.68l-8.458 6.527V36h6.382v-9.535h4.052V36h6.737V13.258L16.26 6.68zm2.179 13.768h-4.103v-3.723h4.103v3.723z" fill="#41ACFA"/></svg>