<svg width="101" height="58" fill="none" xmlns="http://www.w3.org/2000/svg"><path d="M5.45 53.056c-1.72 0-3.127-.354-4.223-1.062-.303-.186-.523-.38-.657-.582a1.33 1.33 0 01-.177-.682c0-.27.075-.498.227-.683a.718.718 0 01.582-.278c.219 0 .564.135 1.036.404.506.27.995.49 1.467.658.489.168 1.095.252 1.82.252.81 0 1.441-.143 1.896-.43.455-.286.683-.69.683-1.213 0-.337-.093-.607-.278-.81-.169-.201-.472-.378-.91-.53-.439-.169-1.087-.346-1.947-.531-1.483-.32-2.554-.75-3.211-1.29-.64-.556-.96-1.306-.96-2.25 0-.725.21-1.373.631-1.947.422-.59 1.003-1.044 1.745-1.365.741-.32 1.584-.48 2.528-.48a7.07 7.07 0 011.972.278c.64.169 1.205.421 1.694.758.556.371.835.801.835 1.29 0 .27-.085.497-.253.683a.694.694 0 01-.556.278c-.152 0-.304-.034-.456-.102a5.997 5.997 0 01-.606-.328 8.207 8.207 0 00-1.29-.632c-.388-.152-.876-.228-1.466-.228-.708 0-1.281.152-1.72.455a1.447 1.447 0 00-.632 1.24c0 .471.194.842.582 1.112.404.253 1.154.497 2.25.733 1.13.236 2.014.506 2.655.809.64.303 1.095.683 1.365 1.138.287.438.43 1.003.43 1.694 0 1.095-.463 1.98-1.39 2.654-.91.658-2.133.987-3.667.987zm17.557-3.287c.236 0 .43.092.581.278.152.185.228.421.228.708 0 .489-.304.901-.91 1.239a7.977 7.977 0 01-1.947.783 7.696 7.696 0 01-1.998.279c-1.955 0-3.497-.565-4.626-1.694-1.13-1.147-1.695-2.706-1.695-4.678 0-1.264.245-2.385.734-3.363.505-.977 1.205-1.736 2.098-2.275.91-.54 1.939-.81 3.085-.81 1.652 0 2.958.532 3.919 1.594.96 1.062 1.44 2.494 1.44 4.298 0 .674-.303 1.011-.91 1.011h-7.812c.169 2.613 1.424 3.92 3.767 3.92.624 0 1.163-.085 1.619-.254.455-.168.935-.387 1.44-.657a4.08 4.08 0 01.405-.202c.236-.118.43-.177.582-.177zm-4.4-7.661c-.977 0-1.761.312-2.351.935-.59.624-.944 1.5-1.062 2.63h6.523c-.05-1.146-.345-2.023-.885-2.63-.522-.623-1.264-.935-2.225-.935zm13.484 10.948c-1.214 0-2.284-.262-3.211-.784a5.41 5.41 0 01-2.124-2.225c-.489-.978-.733-2.107-.733-3.388 0-1.298.244-2.427.733-3.388.506-.978 1.214-1.728 2.124-2.25.927-.523 1.997-.784 3.211-.784 1.214 0 2.276.261 3.186.784a5.175 5.175 0 012.123 2.25c.506.96.759 2.09.759 3.388 0 1.28-.253 2.41-.758 3.388a5.206 5.206 0 01-2.124 2.225c-.91.522-1.972.784-3.186.784zm0-2.023c1.13 0 1.989-.37 2.579-1.113.607-.741.91-1.828.91-3.261 0-1.416-.303-2.495-.91-3.236-.607-.759-1.467-1.138-2.579-1.138-1.113 0-1.972.379-2.579 1.138-.607.741-.91 1.82-.91 3.236 0 1.433.295 2.52.885 3.261.607.742 1.475 1.113 2.604 1.113z" fill="#250F42"/><path d="M47.627 40.237c1.062 0 2.006.27 2.832.81.843.539 1.492 1.297 1.947 2.275.472.977.708 2.107.708 3.388 0 1.264-.228 2.376-.683 3.337-.455.96-1.104 1.703-1.947 2.225-.826.523-1.778.784-2.857.784-.927 0-1.744-.194-2.452-.582a3.988 3.988 0 01-1.618-1.719v5.638c0 .354-.118.632-.354.835-.22.219-.515.328-.885.328-.388 0-.708-.11-.961-.328-.236-.22-.354-.514-.354-.885V41.527c0-.371.118-.666.354-.885.236-.236.548-.354.935-.354.371 0 .675.118.91.354.237.219.355.514.355.885v1.036c.37-.741.91-1.315 1.618-1.719.708-.405 1.525-.607 2.452-.607zm-.607 10.796c1.113 0 1.972-.37 2.58-1.112.606-.759.91-1.83.91-3.211 0-1.4-.312-2.486-.936-3.262-.607-.775-1.458-1.163-2.554-1.163-1.112 0-1.972.38-2.579 1.138-.59.758-.884 1.837-.884 3.236 0 1.4.294 2.478.884 3.236.607.759 1.467 1.138 2.58 1.138zM65.6 49.77c.235 0 .43.092.58.277.152.186.228.422.228.708 0 .489-.303.902-.91 1.239a7.977 7.977 0 01-1.947.784 7.701 7.701 0 01-1.997.278c-1.955 0-3.498-.565-4.627-1.694-1.13-1.146-1.694-2.705-1.694-4.678 0-1.264.244-2.385.733-3.362.506-.978 1.205-1.736 2.099-2.276.91-.54 1.938-.809 3.084-.809 1.652 0 2.959.531 3.92 1.593.96 1.062 1.44 2.495 1.44 4.298 0 .675-.303 1.012-.91 1.012h-7.812c.168 2.612 1.424 3.919 3.767 3.919.623 0 1.163-.085 1.618-.253.455-.169.936-.388 1.441-.658a4.14 4.14 0 01.405-.202c.236-.118.43-.177.581-.177zm-4.4-7.662c-.978 0-1.762.312-2.352.936-.59.623-.943 1.5-1.061 2.63h6.523c-.05-1.147-.346-2.024-.885-2.63-.523-.624-1.264-.936-2.225-.936zm18.212-7.18c.387 0 .7.11.935.328.236.22.354.514.354.885v15.625c0 .388-.118.692-.354.91-.22.22-.522.33-.91.33s-.7-.11-.936-.33c-.219-.218-.328-.522-.328-.91v-1.01a3.988 3.988 0 01-1.618 1.718c-.708.388-1.526.582-2.453.582-1.062 0-2.014-.27-2.857-.81-.826-.538-1.475-1.297-1.947-2.275-.455-.977-.683-2.098-.683-3.362 0-1.281.228-2.402.683-3.363.472-.96 1.121-1.703 1.947-2.225.826-.523 1.778-.784 2.857-.784.927 0 1.736.202 2.427.607a3.868 3.868 0 011.618 1.669V36.09c0-.354.11-.632.33-.835.235-.219.547-.328.935-.328zm-4.703 16.105c1.095 0 1.947-.379 2.553-1.138.607-.758.91-1.837.91-3.236 0-1.399-.303-2.478-.91-3.236-.59-.759-1.44-1.138-2.553-1.138s-1.98.38-2.604 1.138c-.607.741-.91 1.803-.91 3.186 0 1.382.311 2.469.935 3.261.624.776 1.483 1.163 2.579 1.163zm10.841 1.972c-.37 0-.682-.1-.935-.303-.236-.202-.354-.506-.354-.91V41.527c0-.405.118-.708.354-.91.253-.22.565-.33.936-.33.37 0 .674.11.91.33.236.202.354.505.354.91v10.265c0 .404-.118.708-.354.91-.236.202-.54.303-.91.303zm0-15.195c-.488 0-.876-.135-1.162-.405-.287-.27-.43-.623-.43-1.062 0-.438.143-.783.43-1.036.286-.27.674-.405 1.163-.405.472 0 .851.135 1.138.405.303.253.455.598.455 1.036 0 .439-.144.793-.43 1.062-.287.27-.674.405-1.163.405zm10.018 2.427c1.635 0 2.849.413 3.64 1.24.81.825 1.214 2.08 1.214 3.766v6.549c0 .387-.109.69-.328.91-.22.202-.523.303-.91.303-.371 0-.666-.11-.885-.328-.22-.22-.33-.514-.33-.885v-.936a3.61 3.61 0 01-1.44 1.644c-.624.37-1.357.556-2.2.556-.809 0-1.55-.16-2.225-.48a4.003 4.003 0 01-1.593-1.391 3.63 3.63 0 01-.556-1.972c0-.894.228-1.593.683-2.099.472-.522 1.238-.893 2.3-1.112 1.08-.22 2.554-.329 4.425-.329h.582v-.733c0-.944-.194-1.627-.582-2.048-.388-.422-1.011-.632-1.87-.632-.59 0-1.147.076-1.67.227-.522.152-1.095.371-1.719.658-.455.253-.775.379-.96.379a.819.819 0 01-.633-.278c-.151-.186-.227-.422-.227-.708 0-.253.067-.472.202-.657.152-.203.388-.397.708-.582.59-.32 1.28-.573 2.073-.758a9.287 9.287 0 012.3-.304zm-.784 10.923c.927 0 1.686-.312 2.276-.936.59-.64.885-1.458.885-2.452v-.658h-.455c-1.315 0-2.327.06-3.035.177-.707.118-1.213.32-1.517.607-.303.27-.455.666-.455 1.188 0 .607.22 1.104.658 1.492.438.388.986.582 1.643.582z" fill="#DF2F58"/><path fill-rule="evenodd" clip-rule="evenodd" d="M43.124 5.69c-1.546-.675-3.358-1.15-5.494-1.305-1.679-.122-3.557-.047-5.662.283v20.806c4.26-.634 13.994-.211 18.852 6.548V19.135A8.94 8.94 0 0143.124 5.69z" fill="url(#paint0_linear)"/><path fill-rule="evenodd" clip-rule="evenodd" d="M33.306 5.836v18.15a27.362 27.362 0 018.18.69c2.747.669 5.608 1.874 7.995 3.924v-8.216c-5.03-.668-8.913-4.975-8.913-10.188 0-1.33.253-2.602.714-3.77a16.059 16.059 0 00-3.75-.705 22.493 22.493 0 00-4.226.115zm-1.545-2.49c2.194-.344 4.175-.426 5.966-.296 2.281.167 4.242.676 5.932 1.414a1.339 1.339 0 01.62 1.903 7.6 7.6 0 006.545 11.43c.738.002 1.335.6 1.335 1.338v12.887a1.339 1.339 0 01-2.426.782c-2.18-3.035-5.497-4.702-8.88-5.528-3.388-.825-6.71-.772-8.688-.478a1.339 1.339 0 01-1.536-1.324V4.668c0-.66.48-1.22 1.131-1.323z" fill="url(#paint1_linear)"/><path fill-rule="evenodd" clip-rule="evenodd" d="M50.908 19.135a8.94 8.94 0 007.67-13.432c1.55-.682 3.372-1.161 5.52-1.318 1.68-.122 3.558-.047 5.663.283v20.806c-4.26-.634-13.994-.211-18.853 6.548V19.135z" fill="url(#paint2_linear)"/><path fill-rule="evenodd" clip-rule="evenodd" d="M64.001 3.05c1.79-.13 3.772-.048 5.967.295a1.339 1.339 0 011.131 1.323v20.806a1.339 1.339 0 01-1.535 1.324c-1.978-.294-5.3-.347-8.688.479-3.384.825-6.7 2.492-8.88 5.527a1.339 1.339 0 01-2.427-.782V19.135c0-.736.594-1.334 1.33-1.339a7.6 7.6 0 006.521-11.42 1.339 1.339 0 01.619-1.899c1.697-.745 3.668-1.26 5.962-1.427zm4.42 2.786a22.493 22.493 0 00-4.225-.115 15.975 15.975 0 00-3.78.715c.458 1.165.71 2.434.71 3.76 0 5.202-3.865 9.5-8.88 10.183V28.6c2.388-2.05 5.25-3.255 7.996-3.925a27.362 27.362 0 018.18-.69V5.837z" fill="url(#paint3_linear)"/><path fill-rule="evenodd" clip-rule="evenodd" d="M50.863 18.22c.74 0 1.339.599 1.339 1.338v12.464a1.339 1.339 0 11-2.678 0V19.558c0-.74.6-1.339 1.34-1.339z" fill="#250F42"/><path fill-rule="evenodd" clip-rule="evenodd" d="M50.848 17.827a7.631 7.631 0 100-15.263 7.631 7.631 0 000 15.263zm0 2.564c5.63 0 10.195-4.565 10.195-10.196C61.043 4.565 56.478 0 50.848 0c-5.631 0-10.196 4.565-10.196 10.195 0 5.631 4.565 10.196 10.196 10.196z" fill="#250F42"/><defs><linearGradient id="paint0_linear" x1="28.531" y1="12.333" x2="51.894" y2="34.062" gradientUnits="userSpaceOnUse"><stop stop-color="#DF2F58"/><stop offset="1" stop-color="#7C2E4B"/></linearGradient><linearGradient id="paint1_linear" x1="41.394" y1="4.33" x2="41.394" y2="32.022" gradientUnits="userSpaceOnUse"><stop stop-color="#DF2F58" stop-opacity="0"/><stop offset="1" stop-color="#DF2F58"/></linearGradient><linearGradient id="paint2_linear" x1="73.197" y1="12.333" x2="49.834" y2="34.062" gradientUnits="userSpaceOnUse"><stop stop-color="#DF2F58"/><stop offset="1" stop-color="#7C2E4B"/></linearGradient><linearGradient id="paint3_linear" x1="60.334" y1="4.33" x2="60.334" y2="32.022" gradientUnits="userSpaceOnUse"><stop stop-color="#DF2F58" stop-opacity="0"/><stop offset="1" stop-color="#DF2F58"/></linearGradient></defs></svg>