<svg width="129" height="40" fill="none" xmlns="http://www.w3.org/2000/svg"><path fill-rule="evenodd" clip-rule="evenodd" d="M5.455 14.697c-.165.09-.336.166-.514.23l-1.845.663c-1.888.679-2.81 2.702-2.038 4.47l.14.32a3.232 3.232 0 01-.112 2.826l-.702 1.318c-.703 1.32-.423 2.918.69 3.952l1.459 1.353a3.333 3.333 0 011.038 1.94l.257 1.694c.218 1.43 1.367 2.573 2.864 2.847l1.892.346a3.639 3.639 0 011.917.995l.745.744c1.411 1.408 3.78 1.408 5.19 0l.745-.744a3.639 3.639 0 011.917-.995l1.892-.346c1.497-.274 2.647-1.416 2.864-2.847l.258-1.694a3.333 3.333 0 011.038-1.94l1.458-1.353c1.114-1.034 1.393-2.633.69-3.952l-.702-1.318a3.232 3.232 0 01-.111-2.827l.14-.32c.772-1.767-.15-3.79-2.038-4.469l-1.845-.663a3.666 3.666 0 01-.514-.23 15.569 15.569 0 01-8.387 2.42c-3.103 0-5.987-.892-8.386-2.42z" fill="#F2226E"/><path d="M46.855 24.817a2.386 2.386 0 01-.778.39c-.306.087-.664.13-1.077.13-.55 0-1.008-.064-1.374-.194-.351-.13-.58-.354-.687-.672a239.12 239.12 0 00-1.054-3.078 27.465 27.465 0 01-.641-2.08h-.114a205.98 205.98 0 00-.115 2.34l-.046 2.038c0 .664-.015 1.336-.046 2.015-.015.68-.046 1.43-.091 2.254-.199.072-.458.13-.779.173-.32.058-.641.087-.962.087-.672 0-1.199-.101-1.58-.303-.367-.203-.55-.571-.55-1.106l.664-11.052c.122-.188.39-.39.802-.607.412-.217.992-.325 1.74-.325.81 0 1.443.123 1.901.368.459.231.794.614 1.008 1.149.138.347.283.744.435 1.192.168.448.329.91.481 1.387.168.477.329.953.481 1.43.153.462.29.881.413 1.257H45c.367-1.214.733-2.384 1.1-3.51a45.264 45.264 0 011.007-2.861c.23-.116.52-.21.87-.282a5.27 5.27 0 011.215-.13c.748 0 1.359.108 1.832.325.473.202.748.498.825.888.06.29.122.737.183 1.344.076.592.152 1.264.229 2.015a230.706 230.706 0 01.435 4.812 73.598 73.598 0 01.275 3.597c-.26.145-.535.246-.825.304-.275.072-.633.108-1.076.108-.58 0-1.07-.094-1.466-.282-.397-.188-.61-.556-.641-1.105a126.87 126.87 0 01-.184-4.248 78.44 78.44 0 00-.091-3.164h-.115a36.347 36.347 0 01-.664 2.124c-.29.852-.641 1.943-1.054 3.272zm12.117-9.513c.26-.145.649-.282 1.168-.412a6.762 6.762 0 011.603-.195c.764 0 1.435.108 2.015.325.596.202.978.527 1.146.975.275.751.572 1.625.893 2.622.32.997.641 2.03.962 3.1.32 1.054.634 2.102.939 3.142.305 1.026.573 1.936.802 2.73-.184.203-.458.362-.825.477-.366.13-.801.195-1.305.195-.367 0-.68-.029-.94-.086a1.821 1.821 0 01-.618-.26 1.475 1.475 0 01-.39-.456 4.616 4.616 0 01-.251-.65l-.413-1.495h-4.145c-.122.433-.244.881-.367 1.344-.122.462-.244.91-.366 1.343-.214.073-.443.13-.687.174-.23.057-.512.086-.848.086-.778 0-1.358-.123-1.74-.368a1.235 1.235 0 01-.55-1.062c0-.202.03-.405.092-.607.06-.202.13-.44.206-.715.107-.39.252-.874.435-1.452l.641-1.864c.23-.679.474-1.372.733-2.08l.733-1.994c.23-.636.435-1.2.618-1.69.199-.492.352-.867.459-1.127zm2.748 2.795a180.28 180.28 0 01-.733 2.037c-.26.737-.496 1.489-.71 2.254h2.84a69.906 69.906 0 00-.664-2.275 93.597 93.597 0 00-.596-2.016h-.137zm18.324-2.6c-.213-.174-.55-.325-1.007-.456a5.192 5.192 0 00-1.466-.194c-.641 0-1.191.086-1.65.26-.457.187-.77.44-.938.758-.168.332-.374.759-.619 1.279a67.82 67.82 0 00-.779 1.777l-.824 2.059a97.157 97.157 0 00-1.535 4.442 43.824 43.824 0 00-.595 2.037c.214.203.52.383.916.542.412.174.847.26 1.306.26.565 0 1.023-.115 1.374-.347.366-.216.633-.628.801-1.235.413-1.416.825-2.774 1.237-4.074.428-1.286.87-2.63 1.329-4.031h.137c.412 1.358.832 2.839 1.26 4.443.443 1.603.863 3.2 1.26 4.79.274.13.564.238.87.324.32.087.68.13 1.076.13.565 0 1.046-.123 1.443-.368.397-.231.596-.621.596-1.17 0-.318-.084-.78-.252-1.387a27.081 27.081 0 00-.618-2.06 44.228 44.228 0 00-.848-2.361 45.596 45.596 0 00-.939-2.341 39.624 39.624 0 00-.87-1.929c-.275-.549-.497-.932-.665-1.148zm18.776-.152c-.213-.202-.526-.354-.938-.455-.397-.116-.878-.173-1.443-.173-.565 0-1.1.079-1.603.238-.504.159-.917.542-1.237 1.148l-2.268 4.378a41.62 41.62 0 00-.618 1.257 43.28 43.28 0 00-.596 1.387l-.137-.022c.061-.78.091-1.574.091-2.384.016-.809.023-1.603.023-2.383v-3.36a6.686 6.686 0 00-.778-.13 7.858 7.858 0 00-1.008-.065c-.336 0-.634.022-.893.066-.26.043-.474.13-.642.26-.168.13-.297.303-.389.52-.092.23-.137.527-.137.888v10.836c.213.289.542.506.984.65a4.55 4.55 0 001.42.217c.565 0 1.1-.087 1.604-.26.519-.159.931-.535 1.237-1.127l2.29-4.378c.229-.448.435-.874.618-1.278.184-.39.382-.846.596-1.366l.114.022c-.06.78-.099 1.56-.114 2.34-.015.78-.023 1.56-.023 2.341v3.51c.168.044.42.088.756.13a8.4 8.4 0 001.03.066c.672 0 1.184-.116 1.535-.347.351-.216.527-.679.527-1.387v-11.14zm14.497 12.613a6.7 6.7 0 01-.801.13 8.601 8.601 0 01-1.054.065 4.59 4.59 0 01-.939-.087 1.576 1.576 0 01-.664-.26 1.174 1.174 0 01-.413-.542c-.091-.23-.137-.534-.137-.91v-3.38h-4.398v4.984a6.7 6.7 0 01-.801.13 8.59 8.59 0 01-1.054.065 4.59 4.59 0 01-.939-.087 1.58 1.58 0 01-.664-.26 1.173 1.173 0 01-.412-.542c-.092-.23-.138-.534-.138-.91V14.913c.168-.028.435-.065.802-.108a6.764 6.764 0 011.053-.086c.352 0 .657.028.917.086.274.043.503.13.687.26.183.13.32.31.412.542.092.231.137.535.137.91v3.468h4.398v-5.071c.168-.03.435-.066.802-.109a6.754 6.754 0 011.053-.086c.351 0 .657.028.916.086a1.6 1.6 0 01.687.26c.184.13.321.31.413.542.091.231.137.535.137.91V27.96zm5.929-12.656c.26-.145.649-.282 1.169-.412a6.753 6.753 0 011.603-.195c.763 0 1.435.108 2.015.325.596.202.978.527 1.146.975.274.751.572 1.625.893 2.622.32.997.641 2.03.962 3.1.32 1.054.633 2.102.939 3.142a341.2 341.2 0 01.801 2.73c-.183.203-.458.362-.824.477-.367.13-.802.195-1.306.195a4.39 4.39 0 01-.939-.086 1.821 1.821 0 01-.618-.26 1.458 1.458 0 01-.389-.456 4.52 4.52 0 01-.252-.65l-.413-1.495h-4.145c-.122.433-.245.881-.367 1.344-.122.462-.244.91-.366 1.343-.214.073-.443.13-.687.174a3.527 3.527 0 01-.848.086c-.779 0-1.359-.123-1.74-.368a1.234 1.234 0 01-.55-1.062c0-.202.03-.405.091-.607.062-.202.13-.44.207-.715.106-.39.252-.874.435-1.452l.641-1.864a82.71 82.71 0 01.733-2.08l.733-1.994c.229-.636.435-1.2.618-1.69l.458-1.127zm2.749 2.795a180.28 180.28 0 01-.733 2.037c-.26.737-.496 1.489-.71 2.254h2.84a70.67 70.67 0 00-.664-2.275 90.093 90.093 0 00-.596-2.016h-.137z" fill="#30283D"/><path fill-rule="evenodd" clip-rule="evenodd" d="M1.068 7.565a9.93 9.93 0 013.383-.588c5.203 0 9.42 3.965 9.42 8.855h-.042c-5.809 0-10.772-3.428-12.76-8.267z" fill="#4CAF52"/><path fill-rule="evenodd" clip-rule="evenodd" d="M14.315 12.14a9.35 9.35 0 01.77 3.617c6.971-.602 12.432-6.157 12.432-12.921 0-.974-.113-1.923-.328-2.836-6.372 1.372-11.395 6.112-12.874 12.14zm25.031 18.832c-1.317 0-2.385 1.012-2.385 2.261v3.957c0 1.249 1.068 2.261 2.386 2.261h87.071c1.317 0 2.386-1.012 2.386-2.26v-3.958c0-1.248-1.069-2.26-2.386-2.26H39.346zm45.815 4.746h4.511c.079-.312.118-.616.118-.912 0-.805-.287-1.479-.859-2.02-.563-.543-1.287-.814-2.17-.814a3.267 3.267 0 00-2.393.924c-.667.633-.992 1.388-.975 2.267-.017.888.316 1.648 1.001 2.28.693.625 1.534.928 2.522.912.945 0 1.803-.304 2.574-.912l-.728-1.134c-.563.411-1.161.617-1.794.617-.468 0-.862-.103-1.183-.309a1.534 1.534 0 01-.624-.9zm2.925-1.17h-2.925c.095-.379.282-.678.56-.9a1.51 1.51 0 01.974-.333c.39 0 .715.115.975.345.269.222.408.518.416.887zm-23.593 3.66v-3.624c0-.83-.246-1.47-.74-1.922-.495-.46-1.166-.69-2.016-.69-1.127 0-2.063.419-2.808 1.257l.91 1.023c.295-.296.572-.51.832-.641.26-.132.55-.197.871-.197.39 0 .685.094.884.283.208.18.312.444.312.789v.27h-1.612c-.745 0-1.339.16-1.78.481-.434.313-.651.744-.651 1.294 0 .543.2.982.598 1.319.407.337.95.505 1.625.505.806 0 1.46-.246 1.963-.74v.592h1.612zm-1.755-2.355v.074c0 .354-.13.645-.39.875-.251.222-.572.333-.962.333-.277 0-.503-.057-.676-.172a.585.585 0 01-.247-.493c0-.411.3-.617.897-.617h1.378zm4.784-3.746v6.1h1.742v-4.695h2.288v4.695h1.755v-6.1h-5.785zm10.153 6.1v-4.695H75.7v-1.405h5.707v1.405h-1.989v4.695h-1.742zm21.194 0h-2.08L94.24 34.98v3.228h-1.742v-6.1h1.742v2.847l2.431-2.847h1.99l-2.432 2.785 2.64 3.315zm7.611 0v-3.623c0-.83-.247-1.47-.741-1.922-.494-.46-1.165-.69-2.015-.69-1.127 0-2.063.419-2.808 1.257l.91 1.023c.295-.296.572-.51.832-.641.26-.132.55-.197.871-.197.39 0 .685.094.884.283.208.18.312.444.312.789v.27h-1.612c-.745 0-1.339.16-1.781.481-.433.313-.65.744-.65 1.294 0 .543.199.982.598 1.319.407.337.949.505 1.625.505.806 0 1.461-.246 1.963-.74v.592h1.612zm-1.755-2.354v.074c0 .354-.13.645-.39.875-.251.222-.572.333-.962.333-.277 0-.503-.057-.676-.172a.584.584 0 01-.247-.493c0-.411.299-.617.897-.617h1.378z" fill="#8BC24A"/></svg>