<svg width="141" height="50" fill="none" xmlns="http://www.w3.org/2000/svg"><path fill-rule="evenodd" clip-rule="evenodd" d="M97.665 13.158c-.69-3.218-3.492-4.404-6.693-4.406v.008h-9.777c-.9-4.263-3.543-7.029-6.687-8.76h16.464v.016c5.992-.232 17.714 2.126 18.444 13.142H97.665zm5.481 21.788l9.055 15H98.298l-8.098-15h12.946zM72.668 13.158C71.97 2.658 61.289.024 55.102 0H40.05v.014h-9.075V8.76h23.693c3.02.103 5.6 1.276 6.253 4.398h11.748zM30.975 34.946v14.998h11.648V34.947H30.975zm21.585 0h12.946l9.054 15H60.657l-8.097-15z" fill="#C9CED6" fill-opacity=".2"/><path d="M9.175 32.623L5.471 25.82H4.067v6.803H0v-17.14h6.536c.823 0 1.622.089 2.397.266a5.98 5.98 0 012.106.847c.63.404 1.13.937 1.501 1.598.371.662.557 1.485.557 2.47 0 1.162-.315 2.138-.944 2.929-.63.79-1.501 1.355-2.615 1.694l4.479 7.336H9.175zm-.17-11.887c0-.403-.088-.726-.266-.968a1.519 1.519 0 00-.653-.581 2.547 2.547 0 00-.896-.29 6.364 6.364 0 00-.944-.073H4.043v3.994h1.96c.34 0 .687-.024 1.042-.073a3.57 3.57 0 00.968-.314c.29-.145.525-.355.702-.63.194-.274.29-.629.29-1.065zm7.047 11.887v-17.14h11.524v3.51h-7.53v3.22h7.118v3.316h-7.117v3.56h7.965v3.534h-11.96zm18.797-13.606v3.535h6.633v3.413h-6.633v6.658h-4.092v-17.14H42.04v3.534h-7.19zm9.857 13.606v-17.14h11.523v3.51H48.7v3.22h7.118v3.316H48.7v3.56h7.965v3.534h-11.96zm56.16 0l-1.331-3.365h-6.633l-1.26 3.365H87.14l7.19-17.14h4.019l7.117 17.14h-4.6zm-4.6-12.565l-2.178 5.883h4.309l-2.13-5.883zm10.617 12.565v-17.14h4.163v13.533h6.634v3.607h-10.797zm23.225 0l-6.367-7.892h-.049v7.892h-4.067v-17.14h4.067v6.972h.073l6.125-6.972h5.18l-7.383 7.892 7.819 9.248h-5.398zm6.728 0v-17.14H141v17.14h-4.164z" fill="#BDC3CD"/><path fill-rule="evenodd" clip-rule="evenodd" d="M73.786 20.438c.044-4.018-3.969-4.971-6.188-4.957h-5.151v.005h-3.152v17.137h4.045V25.82h2.548l3.716 6.802h4.828L69.99 25.35c1.81-.433 3.76-1.634 3.796-4.913zm-9.105-1.95h2.856c1.176.043 2.156.55 2.21 1.95.074 1.898-1.37 2.31-2.51 2.382h-7.942v-4.333h5.386zm14.005 7.333h-4.74c1.185-.557 2.201-1.486 2.568-3.001h3.216c1.14-.072 2.58-.486 2.507-2.381-.056-1.44-1.13-1.954-2.38-1.954v.003h-3.393c-.312-1.463-1.23-2.413-2.321-3.007h5.715v.005c2.158-.083 6.462.791 6.417 4.953-.033 3.117-1.8 4.356-3.53 4.843l4.485 7.341h-4.828l-3.716-6.802z" fill="#BDC3CD"/><path fill-rule="evenodd" clip-rule="evenodd" d="M97.665 13.158c-.69-3.218-3.492-4.404-6.693-4.406v.008h-9.777c-.9-4.263-3.543-7.029-6.687-8.76h16.464v.016c5.992-.232 17.714 2.126 18.444 13.142H97.665zm5.481 21.788l9.055 15H98.298l-8.098-15h12.946zM72.668 13.158C71.97 2.658 61.289.024 55.102 0H40.05v.014h-9.075V8.76h23.693c3.02.103 5.6 1.276 6.253 4.398h11.748zM30.975 34.946v14.998h11.648V34.947H30.975zm21.585 0h12.946l9.054 15H60.657l-8.097-15z" fill="#553D6F" fill-opacity=".05"/><path d="M9.175 32.623L5.471 25.82H4.067v6.803H0v-17.14h6.536c.823 0 1.622.089 2.397.266a5.98 5.98 0 012.106.847c.63.404 1.13.937 1.501 1.598.371.662.557 1.485.557 2.47 0 1.162-.315 2.138-.944 2.929-.63.79-1.501 1.355-2.615 1.694l4.479 7.336H9.175zm-.17-11.887c0-.403-.088-.726-.266-.968a1.519 1.519 0 00-.653-.581 2.547 2.547 0 00-.896-.29 6.364 6.364 0 00-.944-.073H4.043v3.994h1.96c.34 0 .687-.024 1.042-.073a3.57 3.57 0 00.968-.314c.29-.145.525-.355.702-.63.194-.274.29-.629.29-1.065zm7.047 11.887v-17.14h11.524v3.51h-7.53v3.22h7.118v3.316h-7.117v3.56h7.965v3.534h-11.96zm18.797-13.606v3.535h6.633v3.413h-6.633v6.658h-4.092v-17.14H42.04v3.534h-7.19zm9.857 13.606v-17.14h11.523v3.51H48.7v3.22h7.118v3.316H48.7v3.56h7.965v3.534h-11.96zm56.16 0l-1.331-3.365h-6.633l-1.26 3.365H87.14l7.19-17.14h4.019l7.117 17.14h-4.6zm-4.6-12.565l-2.178 5.883h4.309l-2.13-5.883zm10.617 12.565v-17.14h4.163v13.533h6.634v3.607h-10.797zm23.225 0l-6.367-7.892h-.049v7.892h-4.067v-17.14h4.067v6.972h.073l6.125-6.972h5.18l-7.383 7.892 7.819 9.248h-5.398zm6.728 0v-17.14H141v17.14h-4.164z" fill="#553D6F"/><path fill-rule="evenodd" clip-rule="evenodd" d="M73.786 20.438c.044-4.018-3.969-4.971-6.188-4.957h-5.151v.005h-3.152v17.137h4.045V25.82h2.548l3.716 6.802h4.828L69.99 25.35c1.81-.433 3.76-1.634 3.796-4.913zm-9.105-1.95h2.856c1.176.043 2.156.55 2.21 1.95.074 1.898-1.37 2.31-2.51 2.382h-7.942v-4.333h5.386zm14.005 7.333h-4.74c1.185-.557 2.201-1.486 2.568-3.001h3.216c1.14-.072 2.58-.486 2.507-2.381-.056-1.44-1.13-1.954-2.38-1.954v.003h-3.393c-.312-1.463-1.23-2.413-2.321-3.007h5.715v.005c2.158-.083 6.462.791 6.417 4.953-.033 3.117-1.8 4.356-3.53 4.843l4.485 7.341h-4.828l-3.716-6.802z" fill="#553D6F"/></svg>