<svg width="156" height="45" fill="none" xmlns="http://www.w3.org/2000/svg"><path d="M57.99 17.5v5.335c0 .61.136 1.076.406 1.399.279.322.68.484 1.203.484s.92-.162 1.19-.484c.279-.323.418-.789.418-1.4V17.5h2.236v5.335c0 .871-.17 1.608-.51 2.21a3.358 3.358 0 01-1.399 1.347c-.584.296-1.246.444-1.987.444-.741 0-1.395-.148-1.962-.444a3.17 3.17 0 01-1.334-1.347c-.322-.602-.483-1.339-.483-2.21V17.5h2.223zm22.81 9.245h-2.236l-3.74-5.676v5.676h-2.236V17.5h2.236l3.74 5.727V17.5H80.8v9.245zM92.23 17.5v9.245h-2.236V17.5h2.236zm15.836 0v1.778h-2.51v7.467h-2.249v-7.467h-2.485V17.5h7.244zm12.947 4.524l3.727 4.72h-2.707l-3.138-4.145v4.146h-2.236V17.5h2.236v4.066l3.164-4.066h2.681l-3.727 4.524zm14.56-2.746v1.935h3.125V22.9h-3.125v2.053h3.518v1.792h-5.754V17.5h5.754v1.778h-3.518zM156 17.5l-3.204 6.172v3.073h-2.249v-3.073l-3.203-6.172h2.563l1.778 3.766 1.778-3.766H156z" fill="#177365"/><path fill-rule="evenodd" clip-rule="evenodd" d="M15.104 33.053l-.173-.09.05.048.123.042zM.008 18.763l.005-.005 10.173 9.687a12.025 12.025 0 01-1.69-6.166c0-6.44 5.04-11.704 11.392-12.062h-.014a24.743 24.743 0 0115.72 4.371c-4.12-4.57-9.841-7.402-16.166-7.402-.256 0-.51.005-.764.014a17.256 17.256 0 00-3.74.898l5.653-5.15L22.74 4.92a40.83 40.83 0 014.4 1.06L20.577 0 0 18.743l.008.02zm14.106 19.908l6.463 5.888L41.334 25.65 30.503 15.388a12.026 12.026 0 012.157 6.891c0 6.673-5.41 12.082-12.082 12.082-.083 0-.167 0-.25-.002l-.378.002a24.743 24.743 0 01-14.176-4.435c4.123 4.58 9.854 7.418 16.19 7.418.25 0 .497-.004.745-.013a17.327 17.327 0 003.519-.868l-5.651 5.147-2.113-1.925a39.418 39.418 0 01-4.35-1.014z" fill="#177365"/><path fill-rule="evenodd" clip-rule="evenodd" d="M20.578 31.556a9.276 9.276 0 110-18.552 9.276 9.276 0 010 18.552zm-.001-1.872a7.404 7.404 0 110-14.808 7.404 7.404 0 010 14.809z" fill="#177365"/><path fill-rule="evenodd" clip-rule="evenodd" d="M20.424 21.599a2.122 2.122 0 01-2.117-2.276 3.727 3.727 0 104.205-.23 2.122 2.122 0 01-2.088 2.505z" fill="#177365"/></svg>