<svg width="140" height="44" fill="none" xmlns="http://www.w3.org/2000/svg"><path d="M43.458 19.522v-.473l3.234-5.324a6.666 6.666 0 01-.986-.789 3.434 3.434 0 01-.631-.907 8.201 8.201 0 01-.394-.946 3.943 3.943 0 01-.198-1.144V7.691h3.195v1.223a6.179 6.179 0 000 .788v.828l.315.632c.101.214.25.403.434.552l.71.355c.327.047.659.047.986 0V7.533h3.155v4.536h1.262l.434-.316c.146-.087.268-.209.355-.355l.236-.434V9.939a3 3 0 000-.592V7.81h3.155c.06.867.06 1.737 0 2.603a5.009 5.009 0 01-1.301 2.958 7.879 7.879 0 01-.907.71l3.234 5.324v.473h-3.392l-2.642-4.653h-.631v4.614h-2.76V14.83h-.671l-2.603 4.654-3.589.04zm18.299 0V7.454h7.572v2.761h-4.457v1.696h3.944v2.76h-3.944v2.09h4.615v2.761h-7.73zm8.834 0v-.433l5.442-11.832h1.341l5.482 11.832v.433h-3.037l-3.115-7.059-3.077 7.06h-3.036zm13.842 0V7.454h7.533v2.761h-4.457v1.696h3.944v2.76H87.51v2.09h4.615v2.761h-7.69zm9.465-3.943h2.721a1.5 1.5 0 001.538 1.538c.246.063.504.063.75 0 .208-.076.387-.213.513-.395.117-.15.198-.326.236-.513a.747.747 0 000-.591 1.223 1.223 0 00-.237-.513 1.34 1.34 0 00-.512-.394 1.497 1.497 0 00-.75 0h-.867v-2.524h.828c.182.04.37.04.552 0a.947.947 0 00.355-.316 1.24 1.24 0 000-.394.83.83 0 000-.434 1.24 1.24 0 000-.394.947.947 0 00-.355-.316 1.105 1.105 0 00-.513 0 1.46 1.46 0 00-.788 0 .512.512 0 00-.276.473h-2.761a3.35 3.35 0 01.237-1.42 2.41 2.41 0 01.828-1.025c.393-.251.817-.45 1.262-.591a5.758 5.758 0 011.498 0 4.85 4.85 0 011.736.315c.466.159.886.43 1.222.79.32.315.575.69.75 1.104.165.415.258.854.276 1.3a3.261 3.261 0 01-.276 1.223 2.962 2.962 0 01-.789 1.026 3.19 3.19 0 011.301 1.183c.291.546.44 1.156.434 1.774a3.433 3.433 0 01-1.222 2.761 4.971 4.971 0 01-3.431 1.065 4.339 4.339 0 01-3.116-1.065 3.943 3.943 0 01-1.144-3.115v-.553zm11.2 3.943V7.454h3.195v4.378H112V7.454h3.155v12.068H112V14.83h-3.707v4.85l-3.195-.157zm11.832 0v-.433l5.442-11.832h1.341l5.442 11.832v.433h-2.997l-.71-1.498h-4.772l-.71 1.498h-3.036zm4.732-4.14h2.761l-1.381-3.195-1.38 3.194zm8.242 4.14v-.433l2.367-3.944a3.953 3.953 0 01-.947-.907 3.338 3.338 0 01-.591-1.183 3.428 3.428 0 01-.237-1.262 7.251 7.251 0 010-1.302c.105-.42.278-.82.513-1.183.235-.384.528-.73.867-1.025a3.951 3.951 0 011.262-.67 5.09 5.09 0 011.578-.237H140v12.067h-3.076v-3.549h-1.617l-2.05 3.55-3.353.078zm3.944-8.715a2.097 2.097 0 00-.197.591 1.716 1.716 0 000 .631c.044.21.124.41.237.592a.947.947 0 00.394.394c.187.124.406.193.631.197h2.209v-2.997h-2.209a1.143 1.143 0 00-.631 0c-.173.113-.321.26-.434.434v.158zm-90.39 24.017V22.716h1.104l4.772 5.245 4.93-5.245h1.104v12.147h-3.155v-5.442l-2.603 2.681h-.315l-2.564-2.681v5.403h-3.273zm13.33 0v-.276l5.442-11.832h1.34l5.443 11.831v.474h-2.918l-.71-1.538h-4.772l-.71 1.538-3.115-.197zm4.732-4.18h2.76l-1.38-3.156-1.38 3.155zm9.07 4.18V22.716h5.325c.592.002 1.18.109 1.735.316.48.171.914.455 1.262.828.345.35.637.749.868 1.183.238.44.386.922.434 1.42.039.499.039 1 0 1.498a3.954 3.954 0 01-.434 1.42c-.23.434-.523.833-.868 1.183a3.196 3.196 0 01-1.262.829 5.01 5.01 0 01-1.735.315h-2.209v3.116h-3.115zm3.116-5.876h2.209c.225-.005.444-.073.63-.198.175-.143.323-.317.435-.512a2.726 2.726 0 000-.671 2.13 2.13 0 000-.71 1.68 1.68 0 000-.67.946.946 0 00-.434-.513 1.104 1.104 0 00-.631 0h-2.209v3.47-.196zm8.913 5.876V22.716h3.155v4.575c.501.022 1-.072 1.46-.276a3 3 0 00.867-.552 2.76 2.76 0 00.434-1.026 8.14 8.14 0 000-1.104v-1.617h3.194a4.01 4.01 0 010 .79v.748a4.01 4.01 0 010 .79 3.24 3.24 0 010 .71c.028.235.028.473 0 .709a3.952 3.952 0 01-.276.63c-.108.225-.24.437-.394.632l-.552.552a4.439 4.439 0 01-.67.513l3.272 5.324v.512h-3.352l-2.642-4.693h-1.183v4.614l-3.313.277zm11.398 0v-.276l5.442-11.832h1.301l5.482 11.831v.474h-3.037l-.71-1.538h-4.85l-.71 1.538-2.918-.197zm4.732-4.18h2.761l-1.42-3.156-1.34 3.155z" fill="#1A2543"/><path fill-rule="evenodd" clip-rule="evenodd" d="M24.845 36.046l1.853-1.144 1.144 1.814-1.853 1.144-1.144-1.814zM0 20.468h2.169v2.169H0v-2.17z" fill="#748FC9"/><path fill-rule="evenodd" clip-rule="evenodd" d="M17.629 43.026L0 32.181V10.885L17.629 0l17.588 10.885v21.217L17.63 42.947v.08zm0-37.86l6.625 3.944 6.625 3.944V29.46l-6.625 3.944-6.625 3.943-6.665-3.944-6.626-3.943V13.054l6.626-3.944 6.665-3.944zm1.971 6.468a.434.434 0 01-.434.394.395.395 0 01-.394-.394 1.184 1.184 0 00-1.183-1.183 1.182 1.182 0 00-.972 2.073 1.185 1.185 0 00.972.254h.276a.357.357 0 01.395.394v1.775l5.442 1.183a2.091 2.091 0 011.577 1.499l-7.493-1.617-7.493 1.617a2.05 2.05 0 011.578-1.5l5.442-1.182v-1.42a1.972 1.972 0 01-1.38-1.893 2.011 2.011 0 113.944 0H19.6zm-2.76 5.482h.75l7.532 1.656-.592 6.941-2.248 4.811h-2.208v-5.6l3.115-2.642v-.67l-4.772 1.183.513 3.944a2.043 2.043 0 00-1.34.71 2.13 2.13 0 00-1.342-.71l.513-3.944-5.324-1.341h.552v.67l3.115 2.643v5.6h-.67v-5.324l-2.445-2.09-.552-.474v-1.893l6.152 1.538-.75-.197v-4.811zm.789-14.474l-15.46 9.505v18.811l15.46 9.544 15.42-9.544V12.147l-15.42-9.505z" fill="#1A2543"/></svg>