<svg width="143" height="46" fill="none" xmlns="http://www.w3.org/2000/svg"><path d="M8.213 33.557v10.592H31.71V23.455h-8.936l-2.813-5.625-2.813 5.626H0V8.93l.861.22c9.543 2.429 14.353 3.646 19.094 3.646 3.34 0 6.716-.601 11.756-1.803V1.377H8.213v8.24L6.832 9.28V0h26.26v12.076c-5.732 1.403-9.416 2.098-13.137 2.097-4.781 0-9.498-1.155-18.574-3.464v11.364h14.925l2.89-5.78h1.537l2.885 5.78h9.471V45.53H6.832V24.835h4.143v8.715h19.354v1.38H9.594v-8.715H8.213v7.342zm9.015-30.79h5.465v1.381H17.23V2.764v.004zm2.734 33.28a3.492 3.492 0 11-.682 6.918 3.494 3.494 0 01.685-6.921l-.003.003zm1.496 1.998a2.113 2.113 0 100 2.993 2.118 2.118 0 000-2.99v-.003zm23.607-25.297v9.283h1.147v-8.15h4.437v-1.133h-5.584zm10.043 0v9.283h1.325l5.184-7.707v7.704h1.19v-9.28h-1.31l-5.199 7.57v-7.57h-1.19zm12.685 0v9.283h1.176v-2.527l1.157-1.293 3.105 3.82h1.532l-3.855-4.557 3.84-4.726h-1.453l-4.326 5.319v-5.32h-1.176zm11.381 0v9.283h1.148v-8.15h4.438v-1.133h-5.586zm10.017 3.019v6.264h1.175v-1.613h4.499v1.613h1.176c0-2.025.148-4.573-.016-6.534l-.037-.2-.092-.342a3.333 3.333 0 00-.13-.37 2.876 2.876 0 00-.17-.337 2.794 2.794 0 00-1.168-1.126c-.498-.252-1.104-.378-1.818-.378-.203 0-.406.01-.608.033a3.818 3.818 0 00-1.02.258 2.38 2.38 0 00-.385.206c-.118.079-.229.16-.327.24a2.747 2.747 0 00-.651.762 3.434 3.434 0 00-.323.756 2.848 2.848 0 00-.1.764l-.005.004zm5.447 3.475h-4.272c0-1.12-.151-2.726.038-3.777l.05-.189.077-.224.106-.21c.181-.31.455-.555.783-.701a2.88 2.88 0 011.189-.221c.399-.01.795.062 1.166.21.324.136.599.366.79.661.095.15.17.311.222.48.051.163.077.332.078.502v3.463l-.227.006zm5.498 1.754v2.523h1.148V22.03h6.502v1.488h1.146v-2.523h-1.222v-8.248h-3.223a3.603 3.603 0 00-1.25.2 2.685 2.685 0 00-.956.607 2.616 2.616 0 00-.615.952 3.598 3.598 0 00-.208 1.263v4.094c0 .334-.084.6-.252.793a1.05 1.05 0 01-.739.334l-.331.005zm6.159 0h-4.132l.229-.35a1.48 1.48 0 00.183-.38c.039-.13.058-.265.058-.4v-4.092a2.28 2.28 0 01.127-.785c.083-.231.218-.44.395-.61.176-.17.388-.297.619-.376.252-.084.516-.125.781-.121h1.966v7.112l-.226.002zm9.479-3.773l-3.277 4.808h1.474l2.705-4.086.876 1.147v2.94h1.175v-2.94l.866-1.102 2.718 4.046h1.477l-3.37-4.941 3.269-4.347h-1.395l-2.079 2.746-1.486 2.373v-5.12h-1.175v5.12l-1.477-2.358-2.086-2.761h-1.396l3.273 4.342-.091.133h-.001zm12.113-4.475v9.283h5.904v-1.176h-4.729v-1.803h4.576V18.02h-4.576v-4.095h4.729v-1.176h-5.904zm9.86 0v1.036h2.045v8.247h1.161v-8.247h2.045v-1.036h-5.251zM46.334 28.32c-.359.36-.571.846-.633 1.46.358-.613.823-.92 1.395-.92a1.687 1.687 0 011.238.507c.36.362.54.945.54 1.749 0 .655-.18 1.163-.54 1.523a1.882 1.882 0 01-2.604.031c-.444-.444-.666-1.058-.666-1.84 0-1.355.285-2.318.857-2.89.413-.42.968-.671 1.556-.702.268-.01.526-.11.73-.285l.38.54c-.254.19-.634.301-1.143.348-.415.022-.81.19-1.111.477v.002zm.762 1.11a1.303 1.303 0 00-.952.415c-.232.233-.35.624-.35 1.175 0 .593.128 1.014.381 1.27a1.233 1.233 0 001.652 0c.254-.256.38-.647.38-1.174 0-.636-.126-1.08-.38-1.336-.233-.232-.478-.35-.731-.35zm6.794 1.686c.021.55.159.95.413 1.202.191.191.466.287.826.286.445 0 .75-.095.921-.286.146-.182.264-.384.35-.601l.539.286a2.316 2.316 0 01-.51.76c-.274.276-.707.414-1.302.414-.528 0-.941-.147-1.238-.445-.422-.424-.634-1.016-.634-1.778 0-.8.19-1.397.572-1.778.317-.317.75-.475 1.303-.475.53 0 .953.158 1.27.475.38.381.572.975.572 1.778v.16l-3.082.002zm2.414-.601a1.402 1.402 0 00-.381-.953c-.19-.191-.465-.285-.827-.285-.379 0-.675.116-.888.35a1.277 1.277 0 00-.318.888h2.414zm7.968.318c.177.062.34.16.478.287.168.168.253.432.253.792a1.216 1.216 0 01-.381.89c-.254.253-.71.38-1.366.38-.614 0-1.068-.148-1.364-.445a3.236 3.236 0 01-.508-.666l.539-.286c.101.196.23.378.38.54.214.211.53.318.953.318.423 0 .72-.085.89-.255a.7.7 0 00.222-.508.736.736 0 00-.221-.539c-.15-.15-.456-.212-.922-.191v-.571c.424.02.72-.053.889-.223a.602.602 0 00.158-.444.563.563 0 00-.158-.413c-.17-.17-.423-.254-.762-.253-.338 0-.593.053-.763.159a1.561 1.561 0 00-.475.507l-.508-.381c.189-.248.428-.453.702-.601.255-.148.604-.221 1.048-.221.573 0 .996.137 1.27.412.19.19.286.455.286.794 0 .275-.064.476-.19.6a1.436 1.436 0 01-.446.32l-.004-.002zm12.541-.286a.906.906 0 00.667-.254.5.5 0 00.1-.35.632.632 0 00-.16-.412c-.084-.1-.274-.16-.57-.16h-1.493v1.176h1.456zm.032-1.778c.487 0 .846.116 1.08.35a.986.986 0 01.286.73c0 .296-.075.518-.224.666a1.42 1.42 0 01-.444.285c.201.066.386.175.54.32.19.189.286.453.286.792 0 .382-.085.656-.254.825-.255.253-.625.38-1.11.381h-2.287v-4.353l2.127.004zm-1.492 2.38v1.367h1.619c.3 0 .5-.053.6-.158a.658.658 0 00.158-.478.672.672 0 00-.222-.539c-.149-.127-.37-.191-.667-.191h-1.488zm9.049-1.937a1.182 1.182 0 00-.857.383c-.255.254-.382.698-.381 1.333 0 .635.127 1.08.38 1.334a1.153 1.153 0 001.715 0c.254-.254.381-.698.381-1.334 0-.635-.127-1.08-.382-1.333a1.183 1.183 0 00-.856-.383zm-1.334 0a1.92 1.92 0 012.667 0c.36.361.54.933.54 1.716 0 .784-.18 1.355-.54 1.715a1.92 1.92 0 01-2.667 0c-.359-.36-.54-.932-.54-1.715 0-.782.181-1.355.54-1.716zm11.145 3.907h-.636v-3.752h-2.095v3.747h-.635v-4.35h3.366v4.356zm5.397-1.238c.4.487.835.731 1.302.731.339 0 .601-.095.793-.286.275-.275.412-.784.413-1.525 0-.55-.126-.951-.382-1.202a1.064 1.064 0 00-.792-.318c-.467 0-.912.222-1.334.667v1.936-.003zm0-3.111v.572c.467-.424.922-.636 1.365-.635.508 0 .922.158 1.238.475.361.36.539.922.539 1.683 0 .825-.189 1.43-.57 1.81a1.644 1.644 0 01-1.202.508 1.63 1.63 0 01-1.365-.666v1.682h-.635v-5.43h.63zm9.176.444a1.187 1.187 0 00-.858.382c-.255.253-.38.701-.38 1.333s.125 1.08.38 1.334a1.148 1.148 0 00.857.381 1.158 1.158 0 00.858-.381c.253-.254.381-.702.381-1.334 0-.632-.128-1.08-.381-1.333a1.187 1.187 0 00-.857-.383zm-1.334 0a1.92 1.92 0 012.668 0c.359.36.539.932.538 1.715 0 .784-.18 1.355-.538 1.715a1.922 1.922 0 01-2.668 0c-.36-.36-.54-.932-.54-1.715 0-.782.18-1.354.54-1.715zm10.604.794a1.81 1.81 0 00-.381-.54.898.898 0 00-.667-.255c-.4 0-.707.107-.92.319-.275.274-.412.73-.412 1.364 0 .701.137 1.185.412 1.463.191.19.465.285.826.285.381 0 .667-.107.856-.318.173-.181.303-.399.382-.636l.539.286a2.37 2.37 0 01-.413.701c-.34.339-.794.508-1.364.508-.571 0-1.007-.147-1.302-.445-.382-.38-.572-.984-.572-1.809 0-.783.191-1.365.572-1.747.339-.338.801-.507 1.396-.507a1.543 1.543 0 011.144.444c.176.178.326.38.445.601l-.541.287v-.001zm6.986-.794a1.185 1.185 0 00-.858.382c-.254.254-.381.698-.38 1.333 0 .635.129 1.077.384 1.326a1.158 1.158 0 001.326.281c.148-.065.28-.161.388-.281.255-.254.382-.698.382-1.334 0-.635-.127-1.08-.382-1.333a1.18 1.18 0 00-.856-.383l-.004.009zm-1.334 0a1.917 1.917 0 012.667 0c.361.36.539.932.539 1.715 0 .784-.178 1.355-.539 1.715a1.92 1.92 0 01-2.667 0c-.359-.36-.54-.932-.54-1.715 0-.782.181-1.355.54-1.715zm10.001 1.334a.904.904 0 00.667-.254.498.498 0 00.1-.35.63.63 0 00-.161-.412c-.084-.1-.274-.16-.57-.16h-1.493v1.176h1.457zm.031-1.778c.487 0 .847.116 1.079.35a.97.97 0 01.219.335.97.97 0 01.068.395c0 .3-.073.518-.223.666a1.413 1.413 0 01-.443.285c.201.067.385.176.54.32.189.189.283.453.284.792 0 .382-.084.656-.253.825-.256.254-.624.381-1.11.381h-2.288v-4.354l2.127.005zm-1.492 2.38v1.367h1.619c.3 0 .501-.053.601-.158a.666.666 0 00.158-.478.665.665 0 00-.222-.539c-.149-.127-.371-.19-.668-.191h-1.488zm7.937-3.491h.889l-.189 3.587h-.508l-.192-3.587zm.101 4.73h.701v.701h-.701v-.701z" fill="#1D1D1B"/></svg>