<svg width="161" height="162" fill="none" xmlns="http://www.w3.org/2000/svg"><g filter="url(#filter0_d)"><circle cx="80.5" cy="73.677" r="67.5" fill="#697DFF"/></g><path fill="#697DFF" d="M44.5 37.677H118v73.5H44.5z"/><path clip-rule="evenodd" d="M100.514 102.633c15.769-10.83 19.773-32.393 8.943-48.163-10.83-15.77-32.394-19.774-48.163-8.943C45.523 56.357 41.52 77.92 52.35 93.69c10.83 15.77 32.394 19.774 48.164 8.943z" stroke="#FAF8FA" stroke-width="2"/><path clip-rule="evenodd" d="M92.206 89.904c8.363-5.744 10.487-17.181 4.743-25.545s-17.181-10.487-25.545-4.743-10.488 17.18-4.743 25.545c5.744 8.364 17.18 10.487 25.544 4.743z" stroke="#FAF8FA" stroke-width="2"/><path d="M82.734 73.21l19.449-13.356 9.724-6.679" stroke="#2A334F" stroke-width="2" stroke-linecap="round"/><path fill-rule="evenodd" clip-rule="evenodd" d="M120.929 34.737l-5.717 3.926-1.27.872-5.716 3.926-1.906 1.309-4.446 3.053-1.514 14.127 20.959-14.395-.39-12.818z" fill="#F9FAFF"/><path fill-rule="evenodd" clip-rule="evenodd" d="M133.144 52.521l-19.055 13.086-13.728-3.657 20.959-14.395 11.824 4.966z" fill="#2A334F"/><defs><filter id="filter0_d" x="0" y=".177" width="161" height="161" filterUnits="userSpaceOnUse" color-interpolation-filters="sRGB"><feFlood flood-opacity="0" result="BackgroundImageFix"/><feColorMatrix in="SourceAlpha" values="0 0 0 0 0 0 0 0 0 0 0 0 0 0 0 0 0 0 127 0"/><feOffset dy="7"/><feGaussianBlur stdDeviation="6.5"/><feColorMatrix values="0 0 0 0 0 0 0 0 0 0 0 0 0 0 0 0 0 0 0.25 0"/><feBlend in2="BackgroundImageFix" result="effect1_dropShadow"/><feBlend in="SourceGraphic" in2="effect1_dropShadow" result="shape"/></filter></defs></svg>