<svg width="465" height="339" fill="none" xmlns="http://www.w3.org/2000/svg"><path fill="#082C46" d="M310.764.651h58.984v58.996h-58.984z"/><path fill="#FFE259" d="M310.764.651h30.243v58.996h-30.243z"/><path fill="#E2F6FF" d="M341.008.651h28.741v30.151h-28.741z"/><path d="M310.764 59.647h29.492v30.15h-29.492v-30.15z" fill="#fff"/><path d="M369.749 119.948h-29.492v-30.15h29.492v30.15z" fill="#E2F6FF"/><path d="M310.764 59.647h29.492v30.15l-29.492-30.15z" fill="#FFE259"/><path d="M340.257 59.647h29.492v30.15h-29.492v-30.15zm-.001 60.301h-29.492v-30.15h29.492v30.15z" fill="#fff"/><path d="M340.256 150.099h-29.492v-30.151h29.492v30.151z" fill="#006591"/><path d="M369.749 178.944h-58.985v-30.151h58.985v30.151z" fill="#000"/><path d="M341.008 178.944h-30.244v-30.151h30.244v30.151z" fill="#FFE259"/><path d="M369.749 238.316h-58.985V178.48h58.985v59.836z" fill="#fff"/><path d="M369.749 178.5l-58.985 59.372v-60.261l29.492.889h29.493z" fill="#FFE259"/><path d="M369.749 59.647v30.15h-29.492l29.492-30.15z" fill="#006591"/><path d="M310.764 119.948v-30.15h29.492l-29.492 30.15z" fill="#E2F6FF"/><circle cx="340.256" cy="30.149" r="23.351" fill="#006591" stroke="#fff" stroke-width="12.44"/><path d="M369.749 119.948l-29.492 29.851V89.798l29.492 30.15z" fill="#000"/><circle cx="340.256" cy="149.214" r="23.351" fill="#0089C4" stroke="#fff" stroke-width="12.44"/><path d="M369.749 150.099h-29.492v-31.484l29.492 1.333v30.151z" fill="#000"/><path fill-rule="evenodd" clip-rule="evenodd" d="M323.147 150.099c.46 9.05 7.944 16.246 17.109 16.246 9.165 0 16.648-7.196 17.109-16.246h-34.218z" fill="#082C46"/><path fill="#F7F8F9" d="M317.732 146.449h85.736v99.765h-85.736z"/><path d="M77.742 85.582a8.125 8.125 0 018.125-8.125h245.688a8.124 8.124 0 018.124 8.125v195.046H77.742V85.582z" fill="#E2F6FF" stroke="#000" stroke-width="1.75"/><circle cx="92.055" cy="87.675" r="3.521" fill="#000"/><circle cx="104.801" cy="87.675" r="3.521" fill="#000"/><circle cx="117.547" cy="87.675" r="3.521" fill="#000"/><path stroke="#000" d="M7.908 66.029h22.736v17.386H7.908zm52.299-21.276h9.782v7.43h-9.782z"/><path fill-rule="evenodd" clip-rule="evenodd" d="M340.255 133.64v60.802h-14.429v17.827l-.21-.172v.172H114.92v-.52l-16.46-17.307H77.65V133.64h20.76v-.052l.05.052h.158v.167l16.635 15.061v.171h188.336V133.64h.37v-.061l.076.061h36.22z" fill="#000"/><path d="M55.212 209.812h51.995v-67.929a.5.5 0 00-.5-.5H55.212l11.062 34.06.05.154-.05.155-11.063 34.06z" fill="#fff" stroke="#000"/><path d="M372.983 209.812h-59.532v-68.429h59.532l-12.63 34.04-.064.174.064.174 12.63 34.041z" fill="#FFE259" stroke="#000"/><path d="M313.796 141.804v48.749l14.71 10.516c1.654 1.182 3.954 0 3.954-2.034v-42.603a2.5 2.5 0 00-1.047-2.034l-17.617-12.594z" fill="#006591" stroke="#000"/><path d="M124.336 223.391v-68.164l-18.168-13.401v68.163l18.168 13.402z" fill="#FFE259" stroke="#000"/><rect x=".5" y="-.5" width="209.696" height="67.908" rx=".5" transform="matrix(1 0 0 -1 122.244 223.38)" fill="#fff" stroke="#000"/><path d="M172.439 200.598h-15.293v-21.163h14.828c2.563 0 4.548.528 5.956 1.586 1.437 1.036 2.155 2.306 2.155 3.807 0 1.291-.465 2.37-1.394 3.237-.93.867-2.084 1.406-3.464 1.618 1.521.169 2.802.751 3.844 1.745 1.042.994 1.563 2.147 1.563 3.458 0 1.65-.718 3.015-2.154 4.093-1.437 1.079-3.45 1.619-6.041 1.619zm-1.775-12.692c1.014 0 1.817-.211 2.408-.634.592-.423.887-.973.887-1.65 0-.677-.309-1.227-.929-1.65-.591-.444-1.38-.667-2.366-.667h-7.519v4.601h7.519zm.212 8.789c1.126 0 2.013-.212 2.661-.635.648-.444.972-1.047.972-1.808 0-.698-.324-1.28-.972-1.745-.648-.487-1.535-.73-2.661-.73h-7.731v4.918h7.731zm37.094 3.903h-6.886l-5.534-7.52h-4.394v7.52h-5.998v-21.163h13.18c2.901 0 5.196.634 6.886 1.903 1.718 1.269 2.577 2.909 2.577 4.918 0 1.735-.606 3.141-1.817 4.22-1.183 1.079-2.633 1.766-4.351 2.063l6.337 8.059zm-10.519-11.486c1.239 0 2.253-.254 3.041-.762.789-.528 1.183-1.227 1.183-2.094 0-.867-.394-1.554-1.183-2.062-.788-.529-1.802-.793-3.041-.793h-6.295v5.711h6.295zm41.128 11.486h-6.844l-1.732-3.586h-12.082l-1.774 3.586h-6.843l10.899-21.163h7.519l10.857 21.163zm-10.223-7.552l-4.394-9.106-4.393 9.106h8.787zm38.044 7.552h-5.787l-13.434-13.802v13.802h-5.998v-21.163h6.167l13.054 13.294v-13.294h5.998v21.163zm16.666 0h-11.11v-21.163h11.11c4.422 0 8.013.973 10.773 2.919 2.788 1.946 4.182 4.505 4.182 7.678s-1.38 5.732-4.14 7.678c-2.76 1.925-6.365 2.888-10.815 2.888zm0-3.966c2.704 0 4.844-.635 6.422-1.904 1.605-1.269 2.407-2.835 2.407-4.696 0-1.946-.774-3.532-2.323-4.759-1.549-1.248-3.717-1.872-6.506-1.872h-5.111v13.231h5.111z" fill="#000"/><path fill="#E2F6FF" stroke="#000" d="M141.597 110.326h134.736v18.31H141.597z"/><path d="M156.534 123.877h-2.424l-1.831-5.985-1.832 5.985h-2.442l-2.639-8.787h2.37l1.616 5.913 1.903-5.913h2.029l1.904 5.913 1.615-5.913h2.371l-2.64 8.787z" fill="#000"/><path d="M170.334 123.877h-2.424l-1.832-5.985-1.831 5.985h-2.442l-2.639-8.787h2.37l1.616 5.913 1.903-5.913h2.029l1.903 5.913 1.616-5.913h2.37l-2.639 8.787z" fill="#000"/><path d="M184.133 123.877h-2.424l-1.831-5.985-1.831 5.985h-2.442l-2.64-8.787h2.37l1.616 5.913 1.904-5.913h2.029l1.903 5.913 1.616-5.913h2.37l-2.64 8.787z" fill="#000"/><rect x=".852" y="263.233" width="109.448" height="62.312" rx="4.5" fill="#006591" stroke="#000"/><rect x="18.07" y="275.55" width="109.448" height="62.312" rx="4.5" fill="#fff" stroke="#000"/><mask id="a" maskUnits="userSpaceOnUse" x="18" y="275" width="111" height="64"><rect x="19.002" y="275.55" width="109.448" height="62.312" rx="4.5" fill="#fff" stroke="#000"/></mask><g mask="url(#a)"><path d="M33.492 283.89l-15.074 15.173v-15.4l7.537.227h7.537z" fill="#FFE259"/><path d="M33.492 298.89l-15.074 15.173v-15.4l7.537.227h7.537z" fill="#E2F6FF"/><path d="M18.418 328.836l15.075-15.173v15.401l-7.537-.228h-7.538z" fill="#000"/><path d="M18.418 328.846v15.174h15.075v-15.174H18.418z" fill="#FFE259"/><path d="M18.418 268.761v15.174h15.075v-15.174H18.418z" fill="#0089C4"/></g><rect x="18.07" y="275.55" width="109.448" height="62.312" rx="4.5" stroke="#000"/><ellipse cx="46.142" cy="291.363" rx="5.8" ry="5.802" fill="#000"/><path fill="#000" d="M55.471 288.336h24.21v6.054h-24.21zm4 21.62h24.21v3.978h-24.21zm0 8.262H110.8v1.259H59.471zm0 4.561h43.45v1.58h-43.45z"/><path fill="#fff" stroke="#000" d="M352.908 185.158h97.51v120.009h-97.51z"/><path d="M352.908 305.007V186.131l6.046 7.874.177.231.288-.04 6.373-.879V312.15l-6.031-8.725-.203-.293-.343.097-6.307 1.778z" fill="#0089C4" stroke="#000"/><path d="M450.781 245.156l-.831-59.998h.672l6.256 8.832.175.247.3-.041 6.437-.88v118.846l-6.094-8.738-.203-.291-.342.095-6.37 1.78v-59.852z" fill="#fff" stroke="#000"/><path fill="#fff" stroke="#000" d="M365.908 193.158h97.876v120.009h-97.876z"/><ellipse cx="400.978" cy="215.43" rx="5.8" ry="5.802" fill="#000"/><path fill="#000" d="M410.307 212.403h24.21v6.054h-24.21z"/><path fill="#082C46" d="M395.266 240.292h40.785v40.793h-40.785z"/><path fill="#FFE259" d="M395.266 240.292h20.912v40.793h-20.912z"/><path fill="#E2F6FF" d="M416.18 240.292h19.873v20.848H416.18z"/><path d="M395.266 281.084h20.392v20.848h-20.392v-20.848z" fill="#fff"/><path d="M436.053 322.779H415.66v-20.847h20.393v20.847z" fill="#E2F6FF"/><path d="M395.266 281.084h20.392v20.848l-20.392-20.848z" fill="#FFE259"/><path d="M415.659 281.084h20.393v20.848h-20.393v-20.848zm0 41.695h-20.392v-20.847h20.392v20.847z" fill="#fff"/><path d="M436.052 281.084v20.848h-20.393l20.393-20.848z" fill="#006591"/><path d="M395.267 322.779v-20.847h20.392l-20.392 20.847z" fill="#E2F6FF"/><circle cx="415.659" cy="260.688" r="16.146" fill="#006591" stroke="#fff" stroke-width="8.601"/><path d="M436.053 322.779H415.66v-20.848l20.393 20.848z" fill="#000"/><path d="M426.515 190.389v-22.353c0-11.261-9.128-20.389-20.388-20.389v0c-11.26 0-20.389 9.128-20.389 20.389v22.353" stroke="#000" stroke-width="2"/><path d="M434.515 200.389v-26.456c0-11.261-9.128-20.389-20.388-20.389v0c-11.26 0-20.389 9.128-20.389 20.389v26.456" stroke="#000" stroke-width="2"/></svg>