<svg width="969" height="552" fill="none" xmlns="http://www.w3.org/2000/svg"><mask id="a" maskUnits="userSpaceOnUse" x="-15" y="0" width="984" height="552"><path fill="#C4C4C4" d="M-15 0h983.542v551.11H-15z"/></mask><g mask="url(#a)"><path opacity=".41" d="M642.651 165.714c.792.432 1.417.783 1.861 1.034L413.783 297.394l-.008.004-400.361 217.83H4.59c.3-.512.745-1.266 1.325-2.234 1.16-1.934 2.861-4.72 5.02-8.124 4.32-6.807 10.475-16.082 17.813-25.953 14.694-19.764 34.067-41.822 52.923-51.315 14.368-7.233 18.712-21.83 21.625-38.595.569-3.269 1.081-6.612 1.602-10.007.822-5.36 1.664-10.847 2.773-16.369 1.807-8.991 4.309-17.972 8.542-26.375 13.962-27.719 38.684-61.376 54.893-82.277 9.281-11.968 23.305-16.644 35.18-12.246 17.038 6.311 37.201-8.31 45.583-28.606 5.386-13.044 12.701-26.665 22.26-36.618 9.542-9.936 21.323-16.221 35.708-14.632 26.203 2.894 41.457 3.559 53.493 1.276 12.065-2.288 20.872-7.532 34.166-16.341 8.325-5.516 15.14-5.95 21.344-3.609 6.242 2.355 11.884 7.524 17.821 13.292.58.563 1.163 1.132 1.749 1.705 11.367 11.1 24.033 23.47 43.883 20.912 6.579-.848 11.316-2.359 15.351-4.395 4.029-2.034 7.338-4.584 11.043-7.462l.253-.196c7.349-5.709 16.488-12.81 36.28-20.194 20.053-7.481 45.042-2.438 65.087 4.533 10.009 3.481 18.759 7.433 25.006 10.515a197.312 197.312 0 017.337 3.801z" fill="url(#paint0_linear)" stroke="url(#paint1_linear)"/><path transform="matrix(.88043 -.47418 .52123 .85342 -18.348 521.505)" fill="url(#paint2_linear)" d="M0 0h601.738v74.338H0z"/><path d="M405.738 345.796l-.008.005-273.804 152.142-3.986.674c.833-.997 2.011-2.387 3.479-4.073a323.69 323.69 0 0112.677-13.743c10.365-10.591 23.769-22.702 36.082-29.016 9.316-4.777 16.062-15.966 20.498-25.959 5.551-12.506 11.653-24.936 20.585-34.553l24.009-25.855c7.677-8.266 17.781-12.506 27.385-11.491 10.245 1.083 20.991-4.314 28.209-14.168l21.042-28.725h0l.016-.022.002-.003c.14-.192 8.162-11.188 18.382-20.17 5.112-4.494 10.72-8.435 16.128-10.296 5.383-1.853 10.53-1.639 14.851 2.104 9.283 8.043 18.068 7.778 24.559 5.433 3.229-1.167 5.869-2.84 7.703-4.221a29.162 29.162 0 002.129-1.761c.19-.175.347-.324.468-.442l96.689 11.552-97.095 52.588z" fill="url(#paint3_linear)" stroke="url(#paint4_linear)" stroke-width="1.629"/><path transform="matrix(.9732 -.23 .2835 .95897 -17.002 468.75)" fill="url(#paint5_linear)" d="M0 0h601.154v74.415H0z"/></g><defs><linearGradient id="paint0_linear" x1="170.812" y1="196.227" x2="268.526" y2="380.513" gradientUnits="userSpaceOnUse"><stop stop-color="#0086BF" stop-opacity=".77"/><stop offset=".911" stop-color="#0086BF" stop-opacity="0"/></linearGradient><linearGradient id="paint1_linear" x1="335.639" y1="143.148" x2="419.15" y2="300.648" gradientUnits="userSpaceOnUse"><stop stop-color="#0089C3"/><stop offset=".88" stop-color="#0089C3" stop-opacity="0"/></linearGradient><linearGradient id="paint2_linear" x1="300.869" y1="0" x2="300.869" y2="74.338" gradientUnits="userSpaceOnUse"><stop stop-color="#082C46" stop-opacity=".06"/><stop offset=".865" stop-color="#082C46"/></linearGradient><linearGradient id="paint3_linear" x1="224.271" y1="286.131" x2="299.214" y2="408.178" gradientUnits="userSpaceOnUse"><stop stop-color="#0085BF" stop-opacity=".49"/><stop offset="1" stop-color="#0086BF" stop-opacity="0"/></linearGradient><linearGradient id="paint4_linear" x1="244.153" y1="244.985" x2="334.474" y2="334.225" gradientUnits="userSpaceOnUse"><stop stop-color="#37AAE1"/><stop offset="1" stop-color="#0D5578" stop-opacity="0"/></linearGradient><linearGradient id="paint5_linear" x1="300.577" y1="0" x2="300.577" y2="74.415" gradientUnits="userSpaceOnUse"><stop stop-color="#082C46" stop-opacity=".06"/><stop offset=".865" stop-color="#082C46"/></linearGradient></defs></svg>