<svg width="178" height="129" fill="none" xmlns="http://www.w3.org/2000/svg"><path fill="#fff" d="M.895.599h176.367v127.803H.895z"/><path fill-rule="evenodd" clip-rule="evenodd" d="M8.363 55.922c-.225.122-.46.228-.704.316l-2.526.907c-2.584.929-3.847 3.699-2.79 6.119l.192.438a4.425 4.425 0 01-.153 3.87l-.961 1.805c-.962 1.806-.58 3.994.945 5.41l1.997 1.853a4.562 4.562 0 011.42 2.656l.353 2.32c.298 1.958 1.872 3.522 3.921 3.897l2.59.474a4.981 4.981 0 012.625 1.362l1.02 1.018c1.932 1.928 5.174 1.928 7.106 0l1.02-1.018a4.982 4.982 0 012.625-1.362l2.59-.474c2.05-.375 3.623-1.94 3.921-3.897l.352-2.32a4.563 4.563 0 011.422-2.656l1.996-1.853c1.525-1.416 1.908-3.604.946-5.41l-.962-1.806a4.425 4.425 0 01-.153-3.869l.192-.438c1.057-2.42-.206-5.19-2.79-6.119l-2.526-.908a5.026 5.026 0 01-.704-.315c-3.284 2.093-7.234 3.314-11.482 3.314-4.248 0-8.197-1.221-11.482-3.314z" fill="#F2226E"/><path d="M65.045 69.778c-.272.218-.627.396-1.066.534-.418.12-.91.178-1.474.178-.752 0-1.38-.089-1.881-.267-.481-.178-.795-.484-.941-.92a324.037 324.037 0 00-1.442-4.213 37.647 37.647 0 01-.879-2.848h-.156a308.357 308.357 0 00-.157 3.204l-.063 2.79c0 .91-.02 1.83-.063 2.759-.02.93-.062 1.958-.125 3.086a5.251 5.251 0 01-1.066.237c-.44.08-.878.119-1.317.119-.92 0-1.641-.139-2.164-.416-.502-.277-.752-.781-.752-1.513l.909-15.132c.167-.257.533-.534 1.097-.831.565-.297 1.36-.445 2.384-.445 1.108 0 1.975.168 2.602.504.628.317 1.087.841 1.38 1.573.188.475.387 1.019.596 1.632.23.613.45 1.246.659 1.899.23.653.449 1.305.658 1.958.21.633.397 1.207.565 1.721h.156a237.704 237.704 0 011.505-4.807 61.915 61.915 0 011.38-3.916c.314-.159.711-.287 1.192-.386a7.224 7.224 0 011.662-.178c1.024 0 1.86.148 2.508.445.649.277 1.025.682 1.13 1.216.083.396.167 1.01.25 1.84.105.811.21 1.73.314 2.76a312.711 312.711 0 01.596 6.587 100.748 100.748 0 01.376 4.925 3.856 3.856 0 01-1.129.415c-.376.1-.868.149-1.474.149-.794 0-1.463-.129-2.007-.386-.543-.257-.836-.762-.878-1.513a173.828 173.828 0 01-.25-5.816c-.022-1.72-.063-3.165-.126-4.332h-.157c-.209.772-.512 1.74-.91 2.908a178.44 178.44 0 00-1.442 4.48zm16.589-13.025c.355-.198.888-.386 1.599-.564a9.257 9.257 0 012.195-.267c1.045 0 1.965.148 2.76.445.815.277 1.338.722 1.568 1.335a97.276 97.276 0 011.222 3.59c.44 1.365.879 2.78 1.318 4.243.439 1.444.867 2.878 1.285 4.303.418 1.404.784 2.65 1.098 3.738-.251.277-.627.495-1.13.653-.5.178-1.097.267-1.787.267-.501 0-.93-.04-1.285-.119a2.494 2.494 0 01-.847-.356 2.022 2.022 0 01-.533-.623 6.306 6.306 0 01-.345-.89l-.564-2.047h-5.676c-.167.593-.335 1.206-.502 1.84-.167.632-.334 1.246-.502 1.839a6.468 6.468 0 01-.94.237c-.314.08-.7.119-1.16.119-1.067 0-1.861-.168-2.384-.504-.502-.356-.752-.841-.752-1.454 0-.277.041-.554.125-.831.084-.277.178-.603.282-.98.147-.533.345-1.196.596-1.987l.878-2.552c.314-.93.648-1.88 1.003-2.848.356-.97.69-1.88 1.004-2.73.314-.87.596-1.642.847-2.314.271-.673.48-1.187.627-1.543zm3.763 3.827c-.293.831-.627 1.76-1.004 2.79a48.697 48.697 0 00-.972 3.085h3.889a95.647 95.647 0 00-.91-3.115 127.516 127.516 0 00-.815-2.76h-.188zm25.088-3.56c-.293-.238-.753-.445-1.38-.623a7.104 7.104 0 00-2.007-.267c-.878 0-1.63.118-2.258.356-.627.257-1.055.603-1.285 1.038a73.21 73.21 0 00-.847 1.75c-.334.733-.69 1.544-1.066 2.434-.355.89-.732 1.83-1.129 2.819a134.781 134.781 0 00-2.1 6.082 59.94 59.94 0 00-.816 2.79c.292.276.71.523 1.254.741.564.237 1.16.356 1.787.356.774 0 1.401-.158 1.882-.475.502-.296.868-.86 1.098-1.691a241.273 241.273 0 011.693-5.578c.585-1.76 1.191-3.6 1.819-5.519h.188c.564 1.86 1.139 3.887 1.724 6.083a269.543 269.543 0 011.725 6.557c.376.178.774.326 1.192.445.439.119.93.178 1.474.178.773 0 1.432-.168 1.975-.504.544-.317.816-.85.816-1.603 0-.435-.115-1.068-.345-1.899a37.31 37.31 0 00-.847-2.818 60.971 60.971 0 00-1.16-3.234 62.373 62.373 0 00-1.286-3.205 53.49 53.49 0 00-1.192-2.64c-.376-.752-.679-1.277-.909-1.573zm25.707-.208c-.293-.277-.721-.485-1.286-.623-.543-.158-1.202-.237-1.975-.237a7.24 7.24 0 00-2.195.326c-.69.218-1.255.742-1.694 1.572l-3.104 5.994a56.707 56.707 0 00-.847 1.721 59.617 59.617 0 00-.815 1.899l-.188-.03a42.12 42.12 0 00.125-3.263c.021-1.108.032-2.196.032-3.264v-4.6a9.174 9.174 0 00-1.067-.177c-.459-.06-.919-.09-1.379-.09-.46 0-.868.03-1.223.09-.356.059-.648.178-.878.356-.23.178-.408.415-.533.712-.126.316-.189.722-.189 1.216V73.25c.293.395.743.692 1.349.89a6.228 6.228 0 001.944.297c.774 0 1.505-.119 2.195-.356.711-.218 1.275-.732 1.693-1.543l3.136-5.994c.314-.613.596-1.197.847-1.75.251-.534.523-1.158.815-1.87l.157.03a54.544 54.544 0 00-.157 3.204 163.031 163.031 0 00-.031 3.205v4.807c.23.059.575.118 1.035.178.481.059.951.089 1.411.089.92 0 1.62-.159 2.101-.475.481-.297.721-.93.721-1.899V56.812zm19.847 17.268a9.18 9.18 0 01-1.097.179c-.481.059-.962.089-1.443.089a6.28 6.28 0 01-1.285-.119 2.163 2.163 0 01-.91-.356 1.606 1.606 0 01-.564-.742c-.126-.316-.188-.732-.188-1.246v-4.629h-6.021v6.825c-.23.059-.596.118-1.098.178-.481.059-.961.089-1.442.089s-.91-.04-1.286-.119a2.164 2.164 0 01-.909-.356 1.614 1.614 0 01-.565-.742c-.125-.316-.188-.732-.188-1.246V56.219c.23-.04.596-.09 1.098-.149a9.264 9.264 0 011.442-.118c.481 0 .899.04 1.254.118.377.06.69.178.941.356s.439.426.565.742c.125.317.188.732.188 1.246v4.748h6.021v-6.943c.23-.04.595-.09 1.097-.149a9.286 9.286 0 011.443-.118c.48 0 .899.04 1.254.118.376.06.69.178.941.356s.439.426.564.742c.126.317.188.732.188 1.246v15.667zm8.118-17.327c.356-.198.889-.386 1.599-.564a9.264 9.264 0 012.196-.267c1.045 0 1.965.148 2.759.445.815.277 1.338.722 1.568 1.335a97.827 97.827 0 011.223 3.59c.439 1.365.878 2.78 1.317 4.243.439 1.444.868 2.878 1.286 4.303a433 433 0 011.097 3.738c-.251.277-.627.495-1.129.653-.501.178-1.097.267-1.787.267-.502 0-.93-.04-1.286-.119a2.486 2.486 0 01-.846-.356 2.019 2.019 0 01-.534-.623 6.417 6.417 0 01-.345-.89l-.564-2.047h-5.676a128.09 128.09 0 00-.502 1.84c-.167.632-.334 1.246-.501 1.839a6.502 6.502 0 01-.941.237c-.314.08-.7.119-1.16.119-1.066 0-1.861-.168-2.384-.504-.501-.356-.752-.841-.752-1.454 0-.277.042-.554.125-.831.084-.277.178-.603.283-.98.146-.533.344-1.196.595-1.987l.878-2.552c.314-.93.648-1.88 1.004-2.848.355-.97.69-1.88 1.003-2.73.314-.87.596-1.642.847-2.314.272-.673.481-1.187.627-1.543zm3.763 3.827c-.293.831-.627 1.76-1.003 2.79a47.869 47.869 0 00-.972 3.085h3.888a97.961 97.961 0 00-.909-3.115 128.369 128.369 0 00-.816-2.76h-.188z" fill="#30283D"/><path fill-rule="evenodd" clip-rule="evenodd" d="M2.357 46.157a13.596 13.596 0 014.631-.805c7.124 0 12.898 5.428 12.898 12.124h-.058c-7.953 0-14.749-4.695-17.471-11.32z" fill="#4CAF52"/><path fill-rule="evenodd" clip-rule="evenodd" d="M20.494 52.421a12.82 12.82 0 011.055 4.952c9.544-.824 17.02-8.43 17.02-17.69a16.94 16.94 0 00-.45-3.883c-8.724 1.878-15.6 8.368-17.625 16.621z" fill="#8BC24A"/><path d="M51.518 81.306c0-1.71 1.462-3.096 3.266-3.096h119.211c1.804 0 3.267 1.386 3.267 3.096v5.418c0 1.71-1.463 3.095-3.267 3.095H54.785c-1.805 0-3.267-1.386-3.267-3.095v-5.418z" fill="#8BC24A"/><path d="M89.213 83.157v4.96h-2.207v-.81c-.688.675-1.584 1.012-2.688 1.012-.925 0-1.667-.23-2.224-.691-.546-.462-.82-1.063-.82-1.806 0-.753.297-1.344.89-1.771.606-.439 1.419-.658 2.44-.658h2.207v-.371c0-.473-.143-.833-.428-1.08-.273-.259-.676-.388-1.21-.388-.44 0-.837.09-1.193.27-.356.18-.736.472-1.139.877l-1.246-1.4c1.02-1.147 2.302-1.721 3.845-1.721 1.163 0 2.082.315 2.759.945.676.618 1.014 1.496 1.014 2.632zm-2.402 1.839v-.102h-1.887c-.82 0-1.229.282-1.229.844a.8.8 0 00.339.675c.237.157.545.236.925.236.534 0 .973-.152 1.317-.455a1.53 1.53 0 00.535-1.198zm6.549 3.121v-8.352h7.921v8.352h-2.404v-6.428h-3.132v6.428h-2.386zm13.901 0v-6.428h-2.706v-1.923h7.814v1.923h-2.723v6.428h-2.385zm16.425-3.408h-6.176c.142.528.427.94.854 1.231.439.282.979.422 1.62.422.866 0 1.685-.28 2.456-.843l.997 1.552c-1.056.832-2.231 1.248-3.524 1.248-1.353.023-2.504-.393-3.453-1.248-.938-.866-1.395-1.907-1.371-3.121-.024-1.204.421-2.239 1.335-3.105.914-.866 2.006-1.287 3.275-1.265 1.211 0 2.202.371 2.973 1.114.783.742 1.175 1.664 1.175 2.766 0 .405-.054.822-.161 1.249zm-6.176-1.603h4.005c-.012-.506-.202-.911-.57-1.215-.356-.315-.801-.472-1.335-.472-.51 0-.955.152-1.335.456-.379.303-.635.714-.765 1.231zm18.767 5.011h-2.848l-3.489-4.42v4.42h-2.385v-8.352h2.385v3.898l3.329-3.897h2.723l-3.328 3.813 3.613 4.538zm10.422-4.96v4.96h-2.208v-.81c-.688.675-1.584 1.012-2.687 1.012-.926 0-1.668-.23-2.225-.691-.546-.462-.819-1.063-.819-1.806 0-.753.296-1.344.89-1.771.605-.439 1.418-.658 2.438-.658h2.208v-.371c0-.473-.143-.833-.428-1.08-.273-.259-.676-.388-1.21-.388-.439 0-.837.09-1.193.27-.356.18-.735.472-1.139.877l-1.246-1.4c1.021-1.147 2.302-1.721 3.845-1.721 1.163 0 2.083.315 2.759.945.676.618 1.015 1.496 1.015 2.632zm-2.403 1.839v-.102h-1.887c-.819 0-1.228.282-1.228.844a.8.8 0 00.338.675c.237.157.546.236.925.236.534 0 .973-.152 1.318-.455a1.53 1.53 0 00.534-1.198z" fill="#fff"/></svg>