<svg width="41" height="41" fill="none" xmlns="http://www.w3.org/2000/svg"><g clip-path="url(#clip0)"><path d="M36.507 22.845c.102-.731.155-1.478.155-2.238 0-8.836-7.163-16-16-16-8.836 0-16 7.164-16 16 0 8.837 7.164 16 16 16 .788 0 1.563-.057 2.32-.167" stroke="#0089C4" stroke-width="2"/><path d="M32.662 20.607c0-6.627-5.372-12-12-12-6.627 0-12 5.373-12 12 0 6.628 5.373 12 12 12 .508 0 1.009-.031 1.5-.092" stroke="#0089C4" stroke-width="2"/><path d="M16.749 24.607v-5.962h2.134V17.27H13.03v1.375h2.145v5.962h1.573zm11.088 0V17.27h-2.2l-1.782 4.433-1.782-4.433h-2.189v7.337h1.562V19.47l2.068 5.137h.682l2.068-5.137v5.137h1.573zm11.605 6.743l.798-.06-.798.06zm-.063 1.59l.79.125-.79-.125zm-.428.327l.094-.794-.02-.003h-.022l-.052.797zm-.087-.005l.051-.799h-.02l-.031.799zm-1.483.893l.723.34-.724-.34zm.33 1.76l.556-.576-.556.575zm.021.532l-.6-.528.6.528zm-1.187 1.075l.461.654.005-.003-.466-.65zm-.532-.064l-.608.52.002.002.606-.522zm-1.737-.46l-.271-.753.27.752zm-1.025 1.454l.8.003v-.002l-.8-.001zm-.366.387l-.056-.798.056.798zm-1.591-.065l.122-.79h-.002l-.12.79zm-.332-.422l.796.079v-.003l-.796-.076zm-.9-1.554l-.334.727.334-.727zm-1.778.325l.568.563-.568-.563zm-.54.022l-.522.606.521-.606zm-1.077-1.162l.645-.473-.002-.003-.643.476zm.063-.525l-.514-.613.514.613zm.461-1.715l.75-.278-.75.278zm-1.42-1.013l-.03.8h.02l.01-.8zm-.45-.362l-.798.06.798-.06zm.064-1.59l-.79-.127v.003l.79.124zm.421-.328l-.055.798.012.001h.013l.03-.799zm1.576-.886l.724.34-.724-.34zm-.33-1.76l-.556.574.556-.574zm-.021-.533l.6.528.001-.001-.601-.527zm1.187-1.075l-.464-.652-.002.001.466.65zm.532.064l.609-.519-.609.52zm1.736.461l.272.753-.271-.753zm1.026-1.455l-.8-.003.8.003zm.366-.387l.056.798-.056-.798zm1.591.065l.122-.791-.122.79zm.332.422l-.796-.079v.002l.796.076zm.898 1.554l-.335.726.002.002.333-.728zm1.78-.325l-.57-.561.57.561zm.539-.022l-.52.607.52-.607zm1.078 1.161l-.644.475.644-.475zm-.063.526l-.513-.613h-.001l.514.613zm-.461 1.714l-.75.277v.002l.75-.279zm2.668 1.316a1.162 1.162 0 00-.459-.824 1.321 1.321 0 00-.75-.277l-.061 1.599a.28.28 0 01-.17-.058.443.443 0 01-.156-.32l1.596-.12zm-.071 1.775a7.7 7.7 0 00.07-1.775l-1.595.12a6.06 6.06 0 01-.056 1.406l1.58.249zm-1.312.997a1.193 1.193 0 001.312-.997l-1.58-.25a.407.407 0 01.456-.342l-.188 1.589zm-.045-.002l.088.006.103-1.597-.088-.006-.103 1.597zm-.707.435a.786.786 0 01.729-.434l.06-1.599a2.385 2.385 0 00-2.238 1.353l1.449.68zm.161.844a.738.738 0 01-.162-.844l-1.447-.68a2.338 2.338 0 00.498 2.675l1.111-1.151zm.067 1.637a1.186 1.186 0 00-.066-1.637l-1.113 1.15a.414.414 0 01-.022-.57l1.201 1.057zm-1.322 1.197a7.84 7.84 0 001.323-1.198L37.13 35.92a6.218 6.218 0 01-1.051.952l.931 1.3zm-1.604-.193c.406.472 1.099.55 1.6.196l-.923-1.307a.401.401 0 01.535.067l-1.212 1.044zm-.86-.23c.276-.1.669.006.858.227l1.216-1.039c-.618-.724-1.71-1.02-2.616-.693l.542 1.505zm-.496.703c0-.311.2-.596.496-.703l-.543-1.505a2.355 2.355 0 00-1.553 2.206l1.6.002zm-1.11 1.184a1.19 1.19 0 001.11-1.182l-1.6-.006a.41.41 0 01.378-.408l.113 1.596zm-.864.014a7.9 7.9 0 00.866-.014l-.115-1.596c-.23.017-.46.02-.69.012l-.061 1.598zm-.905-.086c.3.046.602.075.905.086l.06-1.599a6.305 6.305 0 01-.721-.069l-.244 1.582zm-1.006-1.291a1.19 1.19 0 001.008 1.291l.24-1.582a.41.41 0 01.344.448l-1.592-.157zm-.437-.749a.75.75 0 01.437.751l1.593.152a2.35 2.35 0 00-1.363-2.357l-.667 1.454zm-.876.16c.206-.208.609-.282.875-.16l.669-1.453c-.882-.406-2.006-.196-2.682.489l1.138 1.124zm-1.631.066a1.197 1.197 0 001.63-.065l-1.137-1.126c.15-.15.39-.16.55-.022l-1.043 1.214zm-1.2-1.295a7.8 7.8 0 001.2 1.295l1.043-1.213a6.183 6.183 0 01-.953-1.028l-1.29.946zm.193-1.61a1.185 1.185 0 00-.191 1.613l1.286-.952a.415.415 0 01-.065.563l-1.03-1.225zm.226-.824a.744.744 0 01-.225.823l1.028 1.226a2.344 2.344 0 00.697-2.606l-1.5.557zm-.68-.492a.753.753 0 01.68.493l1.5-.559a2.353 2.353 0 00-2.159-1.534l-.02 1.6zm-1.238-1.102c.03.402.27.679.47.83.205.155.47.26.748.271l.061-1.599a.26.26 0 01.157.053c.03.022.145.122.16.325l-1.596.12zm.071-1.774a7.723 7.723 0 00-.07 1.774l1.595-.12a6.13 6.13 0 01.056-1.405l-1.58-.25zm1.268-1.002a1.183 1.183 0 00-1.267.999l1.58.255a.411.411 0 01-.151.251.402.402 0 01-.273.091l.111-1.596zm.796-.429c-.112.237-.406.444-.821.428l-.061 1.599c.967.037 1.909-.451 2.33-1.346l-1.448-.681zm-.161-.844a.738.738 0 01.16.844l1.449.68a2.338 2.338 0 00-.498-2.675l-1.111 1.15zm-.067-1.636a1.186 1.186 0 00.066 1.635l1.114-1.149a.415.415 0 01.022.57l-1.203-1.056zm1.322-1.198a7.799 7.799 0 00-1.323 1.198l1.203 1.055c.31-.354.664-.674 1.052-.952l-.932-1.3zm1.606.195a1.198 1.198 0 00-1.604-.196l.928 1.303a.402.402 0 01-.54-.067l1.216-1.04zm.857.229c-.273.098-.669-.008-.856-.228l-1.218 1.038c.62.727 1.716 1.02 2.617.695l-.543-1.506zm.497-.705c0 .312-.2.598-.497.705l.543 1.505a2.357 2.357 0 001.554-2.206l-1.6-.004zm1.109-1.183a1.19 1.19 0 00-1.109 1.182l1.6.006a.41.41 0 01-.378.408l-.113-1.596zm1.77.072a7.947 7.947 0 00-1.77-.072l.114 1.596a6.35 6.35 0 011.413.058l.242-1.582zm1.006 1.29a1.19 1.19 0 00-1.006-1.29l-.243 1.581a.41.41 0 01-.343-.447l1.592.157zm.437.75a.753.753 0 01-.437-.751l-1.592-.153a2.353 2.353 0 001.359 2.357l.67-1.452zm.875-.16c-.203.207-.607.283-.877.16l-.666 1.455c.882.403 2.007.194 2.682-.491l-1.14-1.123zm1.63-.068a1.198 1.198 0 00-1.63.069l1.139 1.123a.402.402 0 01-.55.023l1.04-1.215zm1.201 1.295a7.768 7.768 0 00-1.202-1.295l-1.04 1.216c.353.301.674.647.954 1.028l1.288-.95zm-.194 1.614c.482-.403.567-1.11.194-1.614l-1.288.95a.414.414 0 01.068-.563l1.026 1.227zm-.224.823a.747.747 0 01.226-.824l-1.03-1.225a2.347 2.347 0 00-.697 2.604l1.501-.555zm.709.492a.774.774 0 01-.71-.493l-1.5.556a2.373 2.373 0 002.149 1.536l.06-1.6zm-6.763 4.673c1.664.063 3.08-1.22 3.143-2.887l-1.6-.061a1.418 1.418 0 01-1.482 1.35l-.061 1.598zm-2.915-3.118c-.063 1.667 1.251 3.055 2.915 3.118l.06-1.599a1.418 1.418 0 01-1.376-1.458l-1.599-.06zm3.143-2.887c-1.664-.063-3.08 1.22-3.143 2.887l1.6.061a1.418 1.418 0 011.482-1.35l.061-1.598zm2.915 3.118c.063-1.667-1.25-3.055-2.915-3.118l-.06 1.599c.798.03 1.405.691 1.376 1.458l1.599.06z" fill="#FFE259"/></g><defs><clipPath id="clip0"><path fill="#fff" transform="translate(.662 .607)" d="M0 0h40v40H0z"/></clipPath></defs></svg>