<svg width="41" height="41" fill="none" xmlns="http://www.w3.org/2000/svg"><circle cx="17.945" cy="17.177" r="13" stroke="#0089C4" stroke-width="2"/><path d="M24.945 27.177l8.586 8.586a2 2 0 002.828 0l.172-.172a2 2 0 000-2.828l-8.586-8.586m3 4l-2 2" stroke="#0089C4" stroke-width="2"/><path d="M13.852 19.177l1.337-4.67H13.6l-.595 2.857-.707-2.856h-1.064l-.707 2.856-.602-2.856H8.343l1.337 4.669h1.484l.602-2.646.602 2.646h1.484zm6.679 0l1.337-4.67h-1.589l-.595 2.857-.707-2.856h-1.064l-.707 2.856-.602-2.856h-1.582l1.337 4.669h1.484l.602-2.646.602 2.646h1.484zm6.679 0l1.337-4.67h-1.59l-.594 2.857-.707-2.856h-1.064l-.707 2.856-.602-2.856H21.7l1.337 4.669h1.484l.602-2.646.602 2.646h1.484z" fill="#FFE259"/><path d="M10.945 22.177h14m-14-10.5h14" stroke="#FFE259" stroke-width="2"/></svg>