<svg width="40" height="40" fill="none" xmlns="http://www.w3.org/2000/svg"><g clip-path="url(#clip0)"><path d="M20.715 34.91c-.563.06-1.136.09-1.715.09-8.837 0-16-7.163-16-16S10.163 3 19 3s16 7.163 16 16c0 5.355-2.63 10.096-6.67 13" stroke="#0089C4" stroke-width="2"/><path d="M19 31c-6.627 0-12-5.373-12-12S12.373 7 19 7s12 5.373 12 12a11.981 11.981 0 01-5.676 10.2" stroke="#0089C4" stroke-width="2"/><path d="M15.087 23h-1.573v-5.962h-2.145v-1.375h5.852v1.375h-2.134V23zm11.088 0h-1.573v-5.137L22.534 23h-.682l-2.068-5.137V23h-1.562v-7.337h2.19l1.781 4.433 1.782-4.433h2.2V23z" fill="#FFE259"/><path d="M14.371 28.656l3.36-2.794 5.759.092 2.4 2.886 4.8 5.772-6.72 5.587-9.599-11.543z" fill="#082C46"/><path d="M23.055 32.323l5.87 7.069 11.68-11.569" stroke="#FFE259" stroke-width="2"/></g><defs><clipPath id="clip0"><path fill="#fff" d="M0 0h40v40H0z"/></clipPath></defs></svg>