<svg width="41" height="41" fill="none" xmlns="http://www.w3.org/2000/svg"><g clip-path="url(#clip0)"><path d="M4.662 6.43a2 2 0 012-2h24v28h-26v-26zm0 26h26v4h-24a2 2 0 01-2-2v-2z" stroke="#0089C4" stroke-width="2"/><path d="M13.843 22.43v-5.17h1.86v-1.5h-5.45v1.5h1.87v5.17h1.72zm10.849 0v-6.67h-2.39l-1.4 3.62-1.39-3.62h-2.39v6.67h1.72v-4.34l1.68 4.34h.76l1.69-4.34v4.34h1.72z" fill="#FFE259"/><path d="M35.662 13.43h4v19.667l-2 2.667-2-2.667V13.431zm0 4h4" stroke="#FFE259" stroke-width="2"/></g><defs><clipPath id="clip0"><path fill="#fff" transform="translate(.662 .43)" d="M0 0h40v40H0z"/></clipPath></defs></svg>