<svg width="40" height="41" fill="none" xmlns="http://www.w3.org/2000/svg"><g clip-path="url(#clip0)"><path d="M13.744 27.174l.568-.823-.568.823zm12.511 0l-.568-.822.568.822zM30 18.148a9.951 9.951 0 01-4.313 8.204l1.136 1.645A11.951 11.951 0 0032 18.148h-2zM20 8.177c5.525 0 10 4.467 10 9.971h2c0-6.614-5.375-11.971-12-11.971v2zm-10 9.971c0-5.504 4.475-9.971 10-9.971v-2c-6.625 0-12 5.357-12 11.971h2zm4.312 8.203A9.951 9.951 0 0110 18.148H8c0 4.084 2.05 7.69 5.175 9.848l1.137-1.645zm2.104 8.242V30.05h-2v4.543h2zm3.583 3.584a3.583 3.583 0 01-3.583-3.584h-2c0 3.084 2.5 5.584 5.583 5.584v-2zm3.584-3.584a3.583 3.583 0 01-3.584 3.584v2c3.084 0 5.584-2.5 5.584-5.584h-2zm0-4.542v4.542h2v-4.542h-2zm-10.407-2.055c.777.538 1.24 1.299 1.24 2.054h2c0-1.59-.95-2.903-2.104-3.7l-1.136 1.646zm12.51-1.644c-1.152.796-2.103 2.108-2.103 3.7h2c0-.756.462-1.517 1.24-2.055l-1.136-1.645z" fill="#0089C4"/><path d="M15 33.177h10m-13.5-8s3.5 4 8.5 4" stroke="#0089C4" stroke-width="2"/><path d="M26.78 17.92l.997-.076-.997.075zm-.064 1.59l.988.155-.988-.155zm-.427.327l.118-.993-.027-.004-.026-.001-.065.998zm-.087-.006l.064-.998h-.013l-.013-.001-.038 1zm-1.484.893l.905.426v-.001l-.905-.425zm.33 1.76l.696-.72h-.001l-.695.72zm.022.533l-.75-.66h-.001l.751.66zm-1.187 1.075l.577.817.005-.004-.582-.813zm-.532-.065l-.76.65.002.003.758-.653zm-1.737-.46l-.34-.941.34.94zm-1.025 1.454l1 .004v-.002l-1-.002zm-.366.387l-.07-.997h-.001l.071.997zm-1.591-.065l.152-.988h-.002l-.15.988zm-.332-.421l.995.098v-.003l-.995-.095zm-.9-1.554l-.418.908h.001l.417-.908zm-1.778.325l.71.703h.001l-.711-.704zm-.54.021l-.653.759.652-.759zm-1.077-1.162l.806-.591-.002-.003-.804.594zm.063-.525l-.643-.766.643.766zm.461-1.714l.938-.348-.938.348zm-1.42-1.014l-.037 1h.025l.013-1zm-.45-.361l-.997.074.997-.074zm.063-1.59l-.987-.16v.004l.987.156zm.422-.328l-.07.997.017.001h.015l.038-.998zm1.576-.887l.904.426-.904-.426zm-.33-1.76l-.696.718.002.001.694-.72zm-.022-.533l.752.66v-.001l-.752-.659zm1.188-1.075l-.58-.815-.003.002.583.813zm.532.064l.761-.648-.001-.001-.76.65zm1.736.461l.34.941-.34-.94zm1.026-1.455l-1-.003 1 .003zm.365-.387l.071.998-.07-.998zm1.592.065l.152-.988-.152.988zm.332.422l-.995-.098v.002l.995.096zm.898 1.554l-.419.909h.003l.416-.909zm1.78-.324l-.712-.703.711.703zm.539-.023l-.65.76.65-.76zm1.078 1.162l-.805.593.805-.593zm-.063.526l-.642-.767h-.001l.643.767zm-.461 1.714l-.939.346v.001l.939-.347zm2.867 1.3a1.36 1.36 0 00-.535-.967 1.521 1.521 0 00-.866-.319l-.076 1.999a.48.48 0 01-.285-.1.642.642 0 01-.232-.462l1.994-.15zm-.073 1.821a7.9 7.9 0 00.073-1.82l-1.994.15c.034.455.016.913-.054 1.359l1.975.311zm-1.532 1.165a1.393 1.393 0 001.532-1.164l-1.975-.313a.607.607 0 01.678-.51l-.235 1.987zm-.035-.001l.088.006.128-1.996-.087-.006-.129 1.996zm-.513.32a.586.586 0 01.54-.319l.076-1.998a2.585 2.585 0 00-2.427 1.467l1.81.85zm.119.615a.538.538 0 01-.12-.614l-1.81-.851a2.538 2.538 0 00.54 2.904l1.39-1.439zm.078 1.913a1.386 1.386 0 00-.077-1.912l-1.39 1.437a.614.614 0 01-.034-.846l1.501 1.321zm-1.356 1.228c.498-.357.954-.77 1.357-1.229l-1.503-1.319a6.018 6.018 0 01-1.018.922l1.165 1.626zm-1.872-.225a1.4 1.4 0 001.867.229l-1.153-1.634a.601.601 0 01.802.1l-1.516 1.305zm-.64-.172a.655.655 0 01.637.169l1.521-1.3c-.672-.787-1.852-1.106-2.836-.751l.677 1.882zm-.364.515c0-.227.147-.437.364-.516l-.679-1.88a2.555 2.555 0 00-1.685 2.393l2 .003zm-1.295 1.383a1.39 1.39 0 001.295-1.381l-2-.008a.61.61 0 01.564-.606l.14 1.995zm-.887.015c.295.01.59.006.888-.015l-.143-1.995a6.12 6.12 0 01-.669.011l-.076 1.998zm-.928-.09c.308.048.617.078.928.09l.076-1.999a6.128 6.128 0 01-.699-.067l-.305 1.977zm-1.174-1.507a1.39 1.39 0 001.177 1.508l.3-1.977a.61.61 0 01.513.665l-1.99-.196zm-.322-.548a.55.55 0 01.322.55l1.99.19a2.55 2.55 0 00-1.478-2.557l-.834 1.817zm-.65.12c.147-.15.46-.207.65-.12l.835-1.817c-.958-.441-2.173-.213-2.908.53l1.423 1.406zm-1.904.076a1.397 1.397 0 001.903-.076l-1.42-1.407a.603.603 0 01.821-.033l-1.304 1.517zm-1.23-1.328c.358.488.773.935 1.23 1.329l1.304-1.517a5.988 5.988 0 01-.922-.995L13.2 23.144zm.225-1.882a1.385 1.385 0 00-.223 1.885l1.608-1.19a.615.615 0 01-.098.836l-1.287-1.531zm.168-.601a.544.544 0 01-.167.6l1.286 1.532a2.544 2.544 0 00.756-2.828l-1.875.696zm-.495-.362c.2.003.412.14.495.363l1.874-.698a2.553 2.553 0 00-2.343-1.665l-.026 2zm-1.435-1.287c.035.477.32.802.549.976.234.177.538.298.86.31l.077-1.998a.46.46 0 01.269.092.645.645 0 01.24.47l-1.995.15zm.073-1.82a7.926 7.926 0 00-.073 1.82l1.994-.149a5.926 5.926 0 01.054-1.36l-1.975-.31zm1.479-1.17a1.383 1.383 0 00-1.479 1.167l1.975.318a.611.611 0 01-.223.376.6.6 0 01-.412.134l.139-1.995zm.6-.315c-.072.155-.286.326-.632.313l-.076 1.999c1.037.04 2.06-.484 2.518-1.46l-1.81-.852zm-.118-.615a.538.538 0 01.119.616l1.81.85a2.538 2.538 0 00-.54-2.904l-1.39 1.438zm-.079-1.912c-.491.56-.45 1.399.077 1.91l1.393-1.435a.614.614 0 01.033.845l-1.503-1.32zm1.356-1.228c-.498.357-.955.77-1.357 1.23l1.505 1.317c.3-.342.642-.652 1.017-.921l-1.165-1.626zm1.875.228a1.398 1.398 0 00-1.872-.23l1.16 1.63a.602.602 0 01-.808-.1l1.52-1.3zm.637.17a.658.658 0 01-.636-.169l-1.522 1.297c.673.79 1.857 1.106 2.836.753l-.678-1.881zm.365-.518a.557.557 0 01-.365.518l.68 1.881a2.557 2.557 0 001.685-2.393l-2-.005zm1.295-1.381a1.39 1.39 0 00-1.295 1.38l2 .008a.61.61 0 01-.564.607l-.141-1.995zm1.814.074a8.148 8.148 0 00-1.815-.074l.143 1.995a6.144 6.144 0 011.369.056l.303-1.977zm1.175 1.507a1.39 1.39 0 00-1.175-1.507l-.304 1.976a.61.61 0 01-.511-.664l1.99.195zm.322.55a.553.553 0 01-.322-.552l-1.99-.19a2.553 2.553 0 001.474 2.558l.838-1.817zm.648-.12c-.144.147-.457.207-.651.118l-.833 1.82c.958.438 2.173.213 2.908-.532l-1.425-1.404zm1.902-.08a1.398 1.398 0 00-1.901.08l1.423 1.405a.602.602 0 01-.823.035l1.301-1.52zm1.233 1.329a7.96 7.96 0 00-1.233-1.329l-1.3 1.52c.34.292.652.626.923.995l1.61-1.186zm-.226 1.886a1.387 1.387 0 00.226-1.887l-1.61 1.187a.614.614 0 01.1-.834l1.284 1.534zm-.165.6a.547.547 0 01.166-.602l-1.286-1.531a2.546 2.546 0 00-.757 2.826l1.877-.693zm.528.361a.573.573 0 01-.529-.362l-1.875.695a2.573 2.573 0 002.328 1.666l.076-1.999zm-6.778 5.073c1.772.068 3.283-1.3 3.35-3.08l-1.998-.075a1.218 1.218 0 01-1.276 1.157l-.076 1.998zm-3.107-3.325c-.067 1.78 1.335 3.258 3.107 3.325l.076-1.998a1.218 1.218 0 01-1.184-1.25l-1.998-.077zm3.35-3.08c-1.771-.067-3.282 1.3-3.35 3.08l1.999.076a1.218 1.218 0 011.276-1.157l.076-1.999zm3.107 3.326c.068-1.78-1.334-3.258-3.106-3.326l-.076 1.999c.69.026 1.209.597 1.184 1.25l1.998.077z" fill="#FFE259"/><path d="M5 18.177H1m38 0h-4m-15-18v4m14 2l-2.5 2.5M6 6.177l2.5 2.5M6 30.177l2.5-2.5m25.5 2.5l-2.5-2.5" stroke="#0089C4" stroke-width="2"/></g><defs><clipPath id="clip0"><path fill="#fff" transform="translate(0 .177)" d="M0 0h40v40H0z"/></clipPath></defs></svg>