<svg width="113" height="77" fill="none" xmlns="http://www.w3.org/2000/svg"><path d="M87.51 76.15h-70l7.8-70h70l-7.8 70z" fill="#F7F8F9" stroke="#EFEFEF"/><g opacity=".17" filter="url(#filter0_f)" stroke="#000"><path d="M82.126 11.567L70.977 21.733a7.52 7.52 0 01-6.787 1.872v0a7.697 7.697 0 00-7.938 3.137l-4.184 5.805a4.183 4.183 0 01-5.124 1.495v0a8.366 8.366 0 00-9.413 1.81l-5.898 5.783"/><path d="M73.196 14.296l8.995-2.95-3.787 8.702-1.453-3.702-.063-.157-.157-.084-3.535-1.81zm-40.64 41.216l.77-6.902h2.14l-.77 6.902h-2.14zm7.596 0l1.61-14.214h2.14l-1.61 14.214h-2.14zm8.435.002l1.61-14.214h2.14l-1.61 14.214h-2.14zm8.435 0l2.504-22.91h2.14l-2.504 22.91h-2.14zm9.327 0l2.504-22.91h2.14l-2.504 22.91h-2.14zm9.322-.014l3.044-29.536h2.14l-3.043 29.535h-2.14z" fill="#000"/><path d="M32.002 55.494h46.146"/></g><path d="M81.754 4.447L70.605 14.613a7.52 7.52 0 01-6.787 1.872v0a7.698 7.698 0 00-7.938 3.137l-4.184 5.805a4.184 4.184 0 01-5.124 1.495v0a8.366 8.366 0 00-9.413 1.81l-5.898 5.783" stroke="#000"/><path d="M72.824 7.176l8.994-2.95-3.785 8.702-1.454-3.702-.063-.157-.157-.084-3.535-1.81z" fill="#fff" stroke="#000"/><path d="M31.19 48.393l.771-6.902h4.14l-.77 6.902h-4.14zm7.596 0l1.61-14.214h4.14l-1.61 14.214h-4.14zm8.436.002l1.61-14.214h4.14l-1.61 14.214h-4.14zm8.434 0l2.505-22.91h4.14l-2.504 22.91h-4.14zm9.33 0l2.505-22.91h4.14l-2.504 22.91h-4.14zm9.32-.015l3.044-29.535h4.14L78.448 48.38h-4.14z" fill="#FFE259" stroke="#000"/><path d="M31.633 48.374h46.145" stroke="#000"/><path d="M110.129 33.433H92.393l1.976-17.737h17.736l-1.976 17.737zM18.821 64.361H1.085l1.976-17.736h17.737L18.82 64.361z" fill="#fff" stroke="#EFEFEF"/><defs><filter id="filter0_f" x="21.283" y=".524" width="71.81" height="65.717" filterUnits="userSpaceOnUse" color-interpolation-filters="sRGB"><feFlood flood-opacity="0" result="BackgroundImageFix"/><feBlend in="SourceGraphic" in2="BackgroundImageFix" result="shape"/><feGaussianBlur stdDeviation="5" result="effect1_foregroundBlur"/></filter></defs></svg>