<svg width="105" height="79" fill="none" xmlns="http://www.w3.org/2000/svg"><path d="M18.788 39.137H1.052L3.028 21.4h17.737l-1.977 17.737z" fill="#fff" stroke="#EFEFEF"/><path d="M84.358 77.607h-70l7.8-70h70l-7.8 70z" fill="#F7F8F9" stroke="#EFEFEF"/><g opacity=".2" filter="url(#filter0_f)"><path d="M30.66 31.996c3.88-12.15 15.65-21.23 28.57-21.23s22.73 9.12 24 21.27" stroke="#000"/><path d="M44.208 47.155c-3.84-5.19-3.34-12.9 1.59-18.49 4.93-5.59 12.65-7.2 18.45-4.24" fill="#000"/><path d="M44.208 47.155c-3.84-5.19-3.34-12.9 1.59-18.49 4.93-5.59 12.65-7.2 18.45-4.24l-20.04 22.73z" stroke="#000"/><path d="M82.038 43.215c-3.88 12.15-15.65 21.27-28.57 21.27s-22.74-9.12-24-21.27" stroke="#000"/><path d="M68.7 28.176c3.83 5.18 3.33 12.9-1.59 18.49-4.92 5.59-12.66 7.19-18.45 4.24" fill="#000"/><path d="M68.7 28.176c3.83 5.18 3.33 12.9-1.59 18.49-4.92 5.59-12.66 7.19-18.45 4.24l20.04-22.73z" stroke="#000"/><path d="M75.91 47.545l6.58-6.27.56 8.49-2.93-2.26-.13-.1h-.17l-3.91.14zM35.78 29.296l-6.58 6.27-.56-8.49 2.93 2.26.13.1h.17l3.91-.14z" fill="#000" stroke="#000"/></g><path d="M28.839 26.406c3.88-12.15 15.65-21.23 28.57-21.23s22.73 9.12 24 21.27" stroke="#000"/><path d="M42.387 41.566c-3.84-5.19-3.34-12.9 1.59-18.49 4.93-5.59 12.65-7.2 18.45-4.24" fill="#006591"/><path d="M42.387 41.566c-3.84-5.19-3.34-12.9 1.59-18.49 4.93-5.59 12.65-7.2 18.45-4.24l-20.04 22.73z" stroke="#000"/><path d="M80.218 37.625c-3.88 12.15-15.65 21.27-28.57 21.27s-22.74-9.12-24-21.27" stroke="#000"/><path d="M66.879 22.586c3.83 5.18 3.33 12.9-1.59 18.49-4.92 5.59-12.66 7.19-18.45 4.24" fill="#FFE259"/><path d="M66.879 22.586c3.83 5.18 3.33 12.9-1.59 18.49-4.92 5.59-12.66 7.19-18.45 4.24l20.04-22.73z" stroke="#000"/><path d="M74.089 41.956l6.58-6.27.56 8.49-2.93-2.26-.13-.1h-.17l-3.91.14zM33.96 23.706l-6.58 6.27-.56-8.49 2.93 2.26.13.1h.17l3.91-.14z" fill="#fff" stroke="#000"/><path d="M102.177 77.608H84.44l1.977-17.737h17.736l-1.976 17.736z" fill="#fff" stroke="#EFEFEF"/><defs><filter id="filter0_f" x="18.067" y=".266" width="75.659" height="74.719" filterUnits="userSpaceOnUse" color-interpolation-filters="sRGB"><feFlood flood-opacity="0" result="BackgroundImageFix"/><feBlend in="SourceGraphic" in2="BackgroundImageFix" result="shape"/><feGaussianBlur stdDeviation="5" result="effect1_foregroundBlur"/></filter></defs></svg>