<svg width="114" height="79" fill="none" xmlns="http://www.w3.org/2000/svg"><path d="M110.539 39.592H92.803l1.976-17.736h17.736l-1.976 17.736z" fill="#fff" stroke="#EFEFEF"/><path d="M88.686 78.176h-70l7.8-70h70l-7.8 70z" fill="#fff" stroke="#EFEFEF"/><g opacity=".17" filter="url(#filter0_f)"><path d="M37.956 42.5l1.54-14.31c1-9.29 8.54-16.82 16.86-16.82h12.82c8.31 0 14.25 7.53 13.25 16.82l-1.52 14.31c-1 9.3-8.55 16.83-16.86 16.83" stroke="#000"/><path d="M39.425 29.35h2.89a.44.44 0 01.45.5l-1.76 16.42a.58.58 0 01-.55.5h-2.89a3.099 3.099 0 01-3.13-3.5l1.12-10.42a4 4 0 013.87-3.5zm43.161 0h-2.89a.57.57 0 00-.55.5l-1.76 16.42a.441.441 0 00.44.5h2.89a4 4 0 003.88-3.5l1.12-10.42a3.1 3.1 0 00-3.13-3.5z" fill="#000" stroke="#000"/><path d="M63.382 61.22c1.13-1.072 1.268-2.762.307-3.777-.962-1.014-2.657-.968-3.788.104-1.13 1.07-1.267 2.762-.306 3.776.96 1.014 2.657.968 3.787-.104z" fill="#000"/></g><path d="M36.39 37.874l1.54-14.31c1-9.29 8.54-16.82 16.86-16.82h12.82c8.31 0 14.25 7.53 13.25 16.82l-1.52 14.31c-1 9.3-8.55 16.83-16.86 16.83" stroke="#000"/><path d="M38.722 21.725h3.388a.517.517 0 01.528.586l-2.063 19.247a.68.68 0 01-.645.586h-3.388a3.632 3.632 0 01-3.669-4.102l1.313-12.215a4.689 4.689 0 014.536-4.102zm41.592 0h-3.388a.668.668 0 00-.644.586L74.219 41.56a.515.515 0 00.515.586h3.388a4.689 4.689 0 004.548-4.103l1.313-12.214a3.634 3.634 0 00-3.669-4.103z" fill="#006591" stroke="#000"/><path d="M61.816 56.594c1.13-1.07 1.267-2.761.306-3.776-.961-1.014-2.657-.968-3.787.104-1.13 1.07-1.268 2.762-.307 3.776.962 1.014 2.657.968 3.788-.104z" fill="#000"/><path d="M18.689 78.176H.952L2.93 60.44h17.736L18.69 78.176z" fill="#fff" stroke="#EFEFEF"/><defs><filter id="filter0_f" x="23.909" y=".869" width="72.333" height="72.29" filterUnits="userSpaceOnUse" color-interpolation-filters="sRGB"><feFlood flood-opacity="0" result="BackgroundImageFix"/><feBlend in="SourceGraphic" in2="BackgroundImageFix" result="shape"/><feGaussianBlur stdDeviation="5" result="effect1_foregroundBlur"/></filter></defs></svg>