<svg width="112" height="84" fill="none" xmlns="http://www.w3.org/2000/svg"><path d="M18.821 65.938H1.085L3.061 48.2h17.737L18.82 65.938zm90.325-22.642H91.409l1.976-17.736h17.737l-1.976 17.736z" fill="#fff" stroke="#EFEFEF"/><path d="M86.835 83.201h-70l7.8-70h70l-7.8 70z" fill="#fff" stroke="#EFEFEF"/><g opacity=".09" filter="url(#filter0_f)" stroke="#000"><path d="M68.73 26.358c3.042-2.884 3.41-7.438.82-10.17-2.591-2.733-7.158-2.61-10.201.275s-3.41 7.439-.82 10.171c2.59 2.733 7.157 2.61 10.2-.276zm-14.613 5.454h17.604a2.503 2.503 0 012.535 2.838L72.6 50.097a2.796 2.796 0 01-2.712 2.45 3.98 3.98 0 00-3.865 3.498l-1.047 9.886a3.236 3.236 0 01-3.142 2.838h-5.728a2.503 2.503 0 01-2.534-2.838l1.047-9.886a3.142 3.142 0 00-3.142-3.498 2.157 2.157 0 01-2.188-2.45l1.654-15.447a3.236 3.236 0 013.173-2.838z" fill="#000"/><path d="M48.444 23.34h-4.189a4.787 4.787 0 00-4.639 4.189l-2.995 27.93a3.698 3.698 0 003.738 4.188h4.19m4.189-39.271l-.638 6.011m-3.25 30.256l-.596 6.01M79.052 23.34h4.19a3.697 3.697 0 013.738 4.19l-2.995 27.93a4.786 4.786 0 01-4.64 4.188H75.21m3.824-39.272l-.639 6.011m-3.247 30.256l-.64 6.01"/></g><path d="M64.398 19.292c3.044-2.885 3.41-7.439.82-10.171-2.59-2.733-7.157-2.61-10.2.276-3.043 2.884-3.41 7.438-.82 10.17 2.59 2.733 7.157 2.61 10.2-.275zm-14.612 5.454H67.39a2.503 2.503 0 012.534 2.838L68.27 43.03a2.796 2.796 0 01-2.712 2.45 3.98 3.98 0 00-3.865 3.499l-1.047 9.885a3.237 3.237 0 01-3.142 2.838h-5.728a2.503 2.503 0 01-2.534-2.838l1.047-9.885a3.142 3.142 0 00-3.142-3.498 2.156 2.156 0 01-2.188-2.45l1.654-15.447a3.236 3.236 0 013.173-2.838z" fill="#FFE259" stroke="#000"/><path d="M44.113 16.273h-4.189a4.787 4.787 0 00-4.64 4.19L32.29 48.391a3.694 3.694 0 003.739 4.189h4.188m4.19-39.27l-.638 6.01M40.52 49.576l-.597 6.011m34.798-39.313h4.19a3.696 3.696 0 013.738 4.19l-2.995 27.929a4.786 4.786 0 01-4.64 4.189h-4.136m3.825-39.272l-.639 6.01m-3.247 30.256l-.64 6.011" stroke="#000"/><path fill-rule="evenodd" clip-rule="evenodd" d="M57.642 27.886l-3.058 9.09 2.367 1.98 2.785-1.98-1.047-9.142-1.047.052z" fill="#000"/><defs><filter id="filter0_f" x="26.088" y=".533" width="71.425" height="78.736" filterUnits="userSpaceOnUse" color-interpolation-filters="sRGB"><feFlood flood-opacity="0" result="BackgroundImageFix"/><feBlend in="SourceGraphic" in2="BackgroundImageFix" result="shape"/><feGaussianBlur stdDeviation="5" result="effect1_foregroundBlur"/></filter></defs></svg>