<svg width="104" height="80" fill="none" xmlns="http://www.w3.org/2000/svg"><path d="M18.872 26.938H1.136L3.112 9.2H20.85l-1.977 17.737z" fill="#fff" stroke="#EFEFEF"/><path d="M82.91 79.201h-70l7.8-70h70l-7.8 70z" fill="#F7F8F9" stroke="#EFEFEF"/><g opacity=".12" filter="url(#filter0_f)"><path d="M26.448 47.097l24.23-28.34 18.07-8.39 4.61 3.75 4.6 3.75-5.23 18.84-24.23 28.34-22.05-17.95z" fill="#000"/></g><path d="M24.66 40.15l24.23-28.34 18.07-8.39 4.61 3.75 4.6 3.75-5.23 18.84L46.71 58.1 24.66 40.15z" fill="#fff" stroke="#000"/><path d="M67.383 16.428c1.27-1.205 1.426-3.104.347-4.242-1.08-1.139-2.984-1.085-4.255.12-1.27 1.204-1.425 3.103-.346 4.241 1.079 1.139 2.983 1.085 4.254-.12z" fill="#F7F8F9" stroke="#000"/><path d="M55.156 42.222c4.869-4.615 5.463-11.893 1.328-16.255-4.135-4.362-11.433-4.156-16.302.46-4.869 4.615-5.464 11.892-1.329 16.254 4.135 4.362 11.434 4.157 16.303-.459z" fill="#FFE259" stroke="#000"/><path d="M53.07 27.291c-.229-.188-.417-.156-.639.115l-.753.893c-1.91-1.237-3.77-.877-5.286.893a3.851 3.851 0 00-1.065 2.614c.032.39.143.77.328 1.114a6.554 6.554 0 001.401 1.852c.394.38.741.807 1.033 1.27a1.64 1.64 0 01-.238 2.09c-.983 1.139-2.18 1.147-3.597 0-1.148-.942-1.295-1.983-.713-3.417.164-.402.115-.55-.246-.656l-.688-.196a.559.559 0 00-.713.385c-.82 1.925-.59 3.523.614 4.769l-.778.91c-.23.262-.23.45 0 .63l.557.46c.221.18.41.147.64-.124l.819-.917a3.866 3.866 0 005.449-.82 3.999 3.999 0 001.114-2.671 2.711 2.711 0 00-.328-1.114 7.185 7.185 0 00-1.425-1.828 6.44 6.44 0 01-1.016-1.254 1.548 1.548 0 01.188-2.024c.975-1.139 2.024-1.188 3.335-.122 1.098.901 1.213 1.786.77 3.228-.139.393-.04.55.287.606l.73.148a.583.583 0 00.712-.434c.607-1.869.508-3.139-.655-4.409l.762-.893c.23-.262.23-.45 0-.63l-.598-.468z" fill="#000"/><path d="M100.687 79.201H82.95l1.977-17.736h17.736L100.687 79.2z" fill="#fff" stroke="#EFEFEF"/><defs><filter id="filter0_f" x="16.448" y=".367" width="71.51" height="74.68" filterUnits="userSpaceOnUse" color-interpolation-filters="sRGB"><feFlood flood-opacity="0" result="BackgroundImageFix"/><feBlend in="SourceGraphic" in2="BackgroundImageFix" result="shape"/><feGaussianBlur stdDeviation="5" result="effect1_foregroundBlur"/></filter></defs></svg>