<svg width="105" height="75" fill="none" xmlns="http://www.w3.org/2000/svg"><path d="M84.573 73.928h-70l7.8-70h70l-7.8 70z" fill="#F7F8F9" stroke="#EFEFEF"/><g opacity=".17" filter="url(#filter0_f)" fill="#000"><path d="M52.288 42.498l3.48-32.48 26.24 16.24-29.72 16.24z"/><path d="M33.917 52.547l3.48-32.49 26.24 16.25-29.72 16.24z"/><path d="M50.128 62.587l3.49-32.45 26.24 16.2-29.73 16.25z"/><path fill-rule="evenodd" clip-rule="evenodd" d="M53.548 29.986l10.2 6.31-11.55 6.31 1.35-12.62z"/></g><path d="M48.331 35.888l3.48-32.48 26.24 16.24-29.72 16.24z" fill="#fff" stroke="#000"/><path d="M29.96 45.937l3.48-32.49 26.24 16.25-29.72 16.24z" fill="#006591" stroke="#000"/><path d="M46.17 55.977l3.49-32.45 26.24 16.2-29.73 16.25z" fill="#FFE259" stroke="#000"/><path d="M48.335 35.881l1.33-12.431 10.048 6.215-11.378 6.216z" fill="#000" stroke="#000"/><path d="M102.243 73.928H84.507l1.976-17.737h17.737l-1.977 17.737zm-83.898-33.43H.608l1.977-17.736H20.32l-1.976 17.736z" fill="#fff" stroke="#EFEFEF"/><defs><filter id="filter0_f" x="23.917" y=".018" width="68.091" height="72.569" filterUnits="userSpaceOnUse" color-interpolation-filters="sRGB"><feFlood flood-opacity="0" result="BackgroundImageFix"/><feBlend in="SourceGraphic" in2="BackgroundImageFix" result="shape"/><feGaussianBlur stdDeviation="5" result="effect1_foregroundBlur"/></filter></defs></svg>