<svg width="166" height="112" fill="none" xmlns="http://www.w3.org/2000/svg"><path d="M0 0h166v112H0V0z" fill="#2F2231"/><path fill-rule="evenodd" clip-rule="evenodd" d="M74.926 62.388h-7.26L66.68 64.5H63.3v-.014l7.38-16.002h1.208l7.404 16.002v.014H75.91l-.984-2.112zm-14.522-3.336h-5.4V64.5h-3.368V48.7H61.1v2.84h-6.096v4.672h5.4v2.84zm8.213.664l2.649-6.17 2.716 6.17h-5.365zm25.987-.02c-.024 2.877-1.783 4.804-4.732 4.804H82.5V48.7h6.676c2.644 0 4.732 2.048 4.732 4.66 0 .904-.47 1.968-1.138 2.518l-.59.485.681.346c1.15.586 1.743 1.626 1.743 2.987zm-8.952-4.444V51.54h3.188c2.386 0 2.403 3.712.024 3.712h-3.212zm0 2.576v3.856h3.932c1.096 0 1.793-.872 1.784-1.932-.01-1.058-.716-1.924-1.808-1.924h-3.908zm22.36-9.128v10.636c0 1.567-1.378 2.54-3.044 2.54-1.672 0-3.068-.974-3.068-2.54V48.7h-3.104v10.708c0 3.158 2.703 5.332 6.172 5.332 3.477 0 6.148-2.163 6.148-5.332V48.7h-3.104zm11.576 0v12.936h6.096V64.5h-9.416V48.7h3.32zm12.301 13.688h7.261l.984 2.112h3.382v-.014l-7.404-16.002h-1.208l-7.38 16.002v.014h3.381l.984-2.112zm3.601-8.842l-2.649 6.17h5.365l-2.716-6.17z" fill="#fff"/><path d="M31.34 61.344v1.574" stroke="#fff" stroke-width="3.4" stroke-linecap="square"/><rect x="23.7" y="45.7" width="14.6" height="14.6" rx="5.3" stroke="#FFB218" stroke-width="3.4"/></svg>