<svg width="188" height="33" fill="none" xmlns="http://www.w3.org/2000/svg"><path fill-rule="evenodd" clip-rule="evenodd" d="M81.675 28.377H70.469l-1.518 3.259h-5.218v-.022L75.122 6.92h1.864l11.425 24.693v.022h-5.218l-1.518-3.26zm-22.41-5.148H50.93v8.407h-5.197V7.253h14.604v4.383H50.93v7.209h8.333v4.383zm12.672 1.024l4.088-9.521 4.191 9.52h-8.279zm40.101-.03c-.036 4.438-2.75 7.413-7.302 7.413H93.36V7.253h10.302c4.08 0 7.302 3.16 7.302 7.191 0 1.396-.725 3.037-1.756 3.886l-.909.749 1.05.534c1.775.903 2.689 2.509 2.689 4.608zm-13.813-6.859v-5.728h4.919c3.683 0 3.708 5.728.037 5.728h-4.956zm0 3.976v5.95h6.067c1.693 0 2.767-1.346 2.753-2.982-.013-1.631-1.104-2.968-2.79-2.968h-6.03zM132.73 7.254v16.413c0 2.418-2.125 3.92-4.697 3.92-2.58 0-4.735-1.503-4.735-3.92V7.254h-4.789v16.524c0 4.874 4.172 8.228 9.524 8.228 5.366 0 9.487-3.337 9.487-8.228V7.254h-4.79zm17.864 0v19.962h9.407v4.42h-14.53V7.253h5.123zm18.983 21.123h11.205l1.519 3.259h5.217v-.022L176.094 6.921h-1.865l-11.388 24.693v.022h5.217l1.519-3.26zm5.555-13.645l-4.087 9.52h8.279l-4.192-9.52z" fill="#fff"/><path d="M14.414 26.764v2.43" stroke="#fff" stroke-width="5.247" stroke-linecap="square"/><rect x="2.623" y="2.623" width="22.53" height="22.53" rx="8.179" stroke="#FFB218" stroke-width="5.247"/></svg>