<svg width="13" height="12" fill="none" xmlns="http://www.w3.org/2000/svg"><path d="M3.382 6.94c.495.16.873.466 1.135.915.29.418.436.932.436 1.543 0 .77-.218 1.397-.655 1.88A2.092 2.092 0 012.684 12c-.698 0-1.266-.241-1.702-.723-.407-.514-.61-1.14-.61-1.88 0-.385.028-.754.086-1.108a19.8 19.8 0 01.48-1.638L2.771 0h2.095L3.382 6.94zm7.418 0c.495.16.873.466 1.135.915.29.418.436.932.436 1.543 0 .77-.218 1.397-.655 1.88a2.092 2.092 0 01-1.614.722c-.698 0-1.265-.241-1.702-.723-.407-.514-.61-1.14-.61-1.88 0-.385.028-.754.087-1.108.087-.385.247-.932.48-1.638L10.189 0h2.095L10.8 6.94z" fill="#000"/></svg>