<svg width="13" height="12" fill="none" xmlns="http://www.w3.org/2000/svg"><path d="M9.36 5.06a1.978 1.978 0 01-1.134-.915c-.291-.418-.437-.932-.437-1.543 0-.77.218-1.397.655-1.88A2.092 2.092 0 0110.058 0c.699 0 1.266.241 1.702.723.408.514.611 1.14.611 1.88 0 .385-.029.754-.087 1.108a19.29 19.29 0 01-.48 1.638L9.97 12H7.877L9.36 5.06zm-7.418 0a1.978 1.978 0 01-1.135-.915c-.29-.418-.436-.932-.436-1.543 0-.77.218-1.397.655-1.88A2.092 2.092 0 012.64 0c.698 0 1.266.241 1.702.723.407.514.61 1.14.61 1.88 0 .385-.028.754-.086 1.108a19.8 19.8 0 01-.48 1.638L2.553 12H.458l1.484-6.94z" fill="#000"/></svg>