<svg width="414" height="273" fill="none" xmlns="http://www.w3.org/2000/svg"><path d="M48.583 76.932a8.125 8.125 0 018.125-8.125h245.688a8.124 8.124 0 018.124 8.125V271.98H48.583V76.932z" fill="#E2F6FF" stroke="#000" stroke-width="1.75"/><circle cx="62.895" cy="79.026" r="3.521" fill="#000"/><circle cx="75.641" cy="79.026" r="3.521" fill="#000"/><circle cx="88.389" cy="79.026" r="3.521" fill="#000"/><path fill="#FFE259" d="M80.05 121.283h204.127v18.386H80.05zm.568 21.632h96.885v18.386H80.618zm0 63.254h95.539v18.386H80.618zm134.524-21.329h69.035v18.386h-69.035z"/><path fill="#E2F6FF" stroke="#000" stroke-width=".875" d="M93.74 191.495h115.177v5.078H93.74z"/><path fill="#000" stroke="#000" stroke-width=".875" d="M221.84 191.495h49.08v5.078h-49.08z"/><path fill="#E2F6FF" stroke="#000" stroke-width=".875" d="M142.395 170.442h52.181v5.078h-52.181zm67.398 0h61.128v5.078h-61.128zm-116.053.001h33.714v5.078H93.74zm97.145 42.38h80.035v5.078h-80.035z"/><path fill="#000" stroke="#000" stroke-width=".875" d="M93.74 212.823h81.979v5.078H93.74zm0-84.583h115.177v5.078H93.74zm128.1 0h49.08v5.078h-49.08z"/><path fill="#E2F6FF" stroke="#000" stroke-width=".875" d="M142.395 107.188h52.181v5.078h-52.181zm67.398 0h61.128v5.078h-61.128zm-116.054.001h33.714v5.078H93.739zm97.146 42.379h80.035v5.078h-80.035z"/><path fill="#000" stroke="#000" stroke-width=".875" d="M93.74 149.568h82.395v5.078H93.74z"/><path fill="#E2F6FF" stroke="#000" stroke-width=".875" d="M142.395 232.692h52.181v5.078h-52.181zm67.398 0h61.128v5.078h-61.128zm-116.053 0h33.714v5.078H93.74z"/><path fill="#000" d="M176.156 202.633h1.347v25.458h-1.347zm.417-62.964h1.347v25.458h-1.347z"/><path fill="#F7F8F9" d="M190.447.628H397.75v164.499H190.447z"/><path d="M202.79 33.004a8.125 8.125 0 018.125-8.125h144.458a8.125 8.125 0 018.125 8.125v118.209H202.79V33.003z" fill="#fff" stroke="#000" stroke-width="1.75"/><circle cx="216.707" cy="35.502" r="3.521" fill="#000"/><circle cx="229.453" cy="35.502" r="3.521" fill="#000"/><circle cx="242.2" cy="35.502" r="3.521" fill="#000"/><path fill="#FFE259" d="M221.089 94.282h113.09v18.386h-113.09zm0-21.244h160.674v18.386H221.089z"/><path fill="#000" stroke="#000" stroke-width=".875" d="M231.623 79.608h91.496v5.078h-91.496zm139.397 0h-35.319v5.078h35.319z"/><path fill="#E2F6FF" stroke="#000" stroke-width=".875" d="M333.742 58.556h-41.355v5.078h41.355zm1.346 63.733h-42.702v5.078h42.702zm10.152-63.733h25.779v5.078H345.24zm0 63.733h25.779v5.078H345.24zm0-21.353h25.779v5.078H345.24zm-65.144-42.38H231.62v5.078h48.476zm0 63.733H231.62v5.078h48.476z"/><path fill="#000" stroke="#000" stroke-width=".875" d="M333.742 100.937h-26.656v5.078h26.656zm-102.119-.001h65.403v5.078h-65.403z"/><path fill="#000" d="M334.179 91.425h1.347v24.677h-1.347zm5 137.589h73.87V247.4h-73.87zM88.388 6.293h42.596v11.006H88.388z"/><path stroke="#000" d="M1.137 27.137h105.26v17.386H1.137z"/></svg>