<svg width="138" height="96" fill="none" xmlns="http://www.w3.org/2000/svg"><path d="M.979 75.016v-.29l1.357-.599v-8.38l-1.357-.599v-.29h4.75v.29l-1.527.599v8.362h3.94l1.187-2.666h.302v3.573H.979zm10.106 0v-.29l1.357-.599v-8.38l-1.357-.599v-.29h8.294v2.612h-.301l-.98-1.705h-3.79v3.537h2.753l.64-1.251h.302v3.392h-.301l-.641-1.234h-2.752v3.9h4.203l1.037-2.05h.302v2.957h-8.766zm16.17.181c-1.093 0-2.073-.217-2.94-.653-.855-.435-1.527-1.034-2.017-1.795-.49-.762-.735-1.62-.735-2.576 0-.81.157-1.548.47-2.213a5.411 5.411 0 011.32-1.741 5.899 5.899 0 011.904-1.143 6.194 6.194 0 012.262-.417c.54 0 1 .036 1.376.108.39.061.735.152 1.037.273.314.12.622.247.924.38l.075 2.594h-.302l-1.093-1.832a2.838 2.838 0 00-.961-.471 3.58 3.58 0 00-1.056-.145c-.791 0-1.495.187-2.111.562a4.023 4.023 0 00-1.433 1.542c-.339.653-.509 1.39-.509 2.213 0 1.415.365 2.503 1.094 3.265.741.761 1.734 1.142 2.978 1.142a6.6 6.6 0 001.037-.072c.301-.06.59-.163.867-.309l1.357-1.94h.302l-.17 2.448c-.452.23-.974.418-1.565.563-.578.145-1.281.217-2.11.217zm4.951-.181v-.29l.961-.49 4.185-9.469h.98L42.48 74.2l1.113.526v.29h-4.374v-.29l1.32-.526-1.169-2.685h-3.883l-1.15 2.703 1.376.508v.29h-3.506zm3.676-4.408h3.091l-1.564-3.61-1.527 3.61zm8.653 4.408v-.29l1.376-.599v-8.38l-1.376-.599v-.29h4.562c1.156 0 2.067.23 2.733.69.679.447 1.018 1.07 1.018 1.868 0 .58-.188 1.082-.565 1.505-.365.411-.893.738-1.584.98l2.903 4.262 1.244.563v.29h-2.96l-2.978-4.626h-1.15v3.719l1.245.617v.29h-4.468zm4.11-9.269h-.886v3.755h.96c.68 0 1.214-.17 1.603-.508.39-.339.584-.798.584-1.379 0-.616-.2-1.082-.603-1.396-.39-.315-.942-.472-1.658-.472zm7.211 9.269v-.29l1.376-.599v-8.38l-1.376-.599v-.29h4.807c1.27 0 2.344.2 3.223.599.88.387 1.552.93 2.017 1.632.465.69.698 1.488.698 2.395 0 1.112-.245 2.086-.735 2.92-.49.822-1.188 1.463-2.093 1.923-.905.46-1.979.689-3.223.689h-4.694zm4.411-9.25h-1.169v8.343H60.4c1.37 0 2.42-.38 3.148-1.143.742-.774 1.112-1.801 1.112-3.083 0-1.33-.377-2.346-1.13-3.048-.755-.713-1.842-1.07-3.262-1.07zm13.088 9.431c-1.055 0-1.991-.223-2.808-.67a5.231 5.231 0 01-1.942-1.87c-.465-.797-.697-1.704-.697-2.72 0-1.016.232-1.923.697-2.72a5.05 5.05 0 011.942-1.869c.817-.46 1.753-.69 2.808-.69 1.056 0 1.992.23 2.809.69a4.883 4.883 0 011.942 1.868c.477.798.716 1.705.716 2.721s-.239 1.923-.716 2.72a5.05 5.05 0 01-1.942 1.87c-.817.447-1.753.67-2.809.67zm.302-.907c1.018 0 1.816-.356 2.394-1.07.578-.713.867-1.656.867-2.83 0-.955-.163-1.795-.49-2.52-.314-.726-.76-1.289-1.338-1.688a3.33 3.33 0 00-1.98-.616c-1.005 0-1.81.356-2.412 1.07-.591.701-.886 1.632-.886 2.793 0 .968.163 1.814.49 2.54.326.725.779 1.294 1.357 1.705.578.41 1.244.616 1.998.616z" fill="#FF7575"/><path d="M86.211 75.197c-1.093 0-2.073-.218-2.94-.653-.855-.435-1.527-1.034-2.017-1.796s-.735-1.62-.735-2.576c0-.81.157-1.547.47-2.212a5.41 5.41 0 011.32-1.742 5.898 5.898 0 011.904-1.143 6.195 6.195 0 012.262-.417c.54 0 1 .037 1.376.109.39.06.735.151 1.037.272.314.121.622.248.924.381l.075 2.594h-.302l-1.093-1.832a2.834 2.834 0 00-.961-.472 3.577 3.577 0 00-1.056-.145c-.792 0-1.495.188-2.111.562a4.023 4.023 0 00-1.433 1.542c-.339.653-.509 1.39-.509 2.213 0 1.415.365 2.503 1.094 3.265.741.762 1.734 1.143 2.978 1.143a6.6 6.6 0 001.037-.073c.301-.06.59-.163.867-.308l1.357-1.94h.302l-.17 2.448a7.3 7.3 0 01-1.564.562c-.579.145-1.282.218-2.112.218zm5.866-.182v-.29l1.358-.598v-8.38l-1.358-.599v-.29h4.75v.29l-1.526.599v8.362h3.94l1.187-2.667h.302v3.573h-8.653zm10.183 0v-.29l1.244-.598v-8.38l-1.244-.599v-.29h4.429v.29l-1.3.599v8.38l1.3.598v.29h-4.429zm5.943 0v-.29l1.338-.598v-8.399l-1.338-.58v-.29h2.808l6.372 7.273v-6.403l-1.659-.58v-.29h4.053v.29l-1.339.58v9.36h-.867l-6.956-7.89v6.874l1.678.653v.29h-4.09zm12.908 0v-.29l1.244-.598v-8.38l-1.244-.599v-.29h4.43v.29l-1.301.599v8.38l1.301.598v.29h-4.43zm11.806.182c-1.094 0-2.074-.218-2.941-.653-.855-.435-1.527-1.034-2.017-1.796s-.735-1.62-.735-2.576c0-.81.157-1.547.471-2.212a5.415 5.415 0 011.32-1.742 5.888 5.888 0 011.903-1.143 6.2 6.2 0 012.262-.417c.541 0 .999.037 1.376.109a4.7 4.7 0 011.037.272c.314.121.622.248.924.381l.075 2.594h-.301l-1.094-1.832a2.829 2.829 0 00-.961-.472 3.578 3.578 0 00-1.056-.145c-.791 0-1.495.188-2.111.562a4.017 4.017 0 00-1.432 1.542c-.34.653-.509 1.39-.509 2.213 0 1.415.364 2.503 1.093 3.265.741.762 1.734 1.143 2.978 1.143.39 0 .735-.024 1.037-.073.302-.06.591-.163.867-.308l1.357-1.94h.302l-.17 2.448c-.452.23-.974.417-1.564.562-.578.145-1.282.218-2.111.218z" fill="#ACC32A"/><path fill-rule="evenodd" clip-rule="evenodd" d="M79.328 24.21c-13.588-9.221-20.552-2.72-23.013 2.52l.177-.135c2.159-3.402 7.44-9.208 17.496-3.774-1.86.327-4.32.831-6.833 2.872-2.278 1.587-5.027 2.418-7.383 2.04.306-.516 3.665-3.823 8.728-5.725-1.268.362-4.263 1.28-6.844 2.551-2.67 1.436-4.084 3.003-4.084 3.003v.001a16.66 16.66 0 00-1.959 2.516 8.799 8.799 0 00-.554-2.119c-.858-2.206-.236-4.573.325-5.49-8.807 5.49-5.901 10.63-2.63 13.054l-.048-.12c-1.625-1.792-4.113-5.724.9-10.258-.138 1.077-.281 2.515.476 4.257.53 1.531.53 3.186-.115 4.408-.255-.264-1.653-2.816-1.837-6.002-.076.598-.296 2.656.023 4.468.341 1.578 1.115 2.995 1.24 3.217a16.37 16.37 0 001.483 11.052c1.588 3.056 4.1 5.578 7.206 7.235a18.17 18.17 0 0010.195 2.046 18.073 18.073 0 007.35-2.315 19.338 19.338 0 01-7.104 1.333c-9.564 0-17.344-6.814-17.58-15.3-.034-.876.011-1.758.137-2.636a14.804 14.804 0 013.273-7.341c.427-.303 1.044-.286 1.88-.264 1.824.05 4.688.127 8.884-3.027 3.234-2.43 8.404-2.47 10.21-2.068zm3.692 5.541c1.213.377 2.3.863 3.239 1.484a17.112 17.112 0 00-5.1-5.81s-1.165-.422-2.265-.498c-1.1-.076-2.548-.123-2.548-.123s1.41.48 2.039.859c.628.378 1.626 1.236 1.626 1.236a15.41 15.41 0 013.009 2.852zm-30.893-1.996l-.01.046.009-.078.001.032z" fill="#ACC32A"/><path fill-rule="evenodd" clip-rule="evenodd" d="M74.576 53.57a15.907 15.907 0 006.084-3.016c2.43-1.952 4.187-4.565 5.044-7.497a14.55 14.55 0 00-.246-8.928c-1.016-2.884-2.915-5.404-5.448-7.23 0 0-.934-.68-1.724-1.155-.79-.475-1.941-.94-1.941-.94s1.448.048 2.548.123c1.1.076 2.265.497 2.265.497 2.842 2.05 4.973 4.877 6.114 8.113a16.325 16.325 0 01.724 8.027C86.948 46.876 83 51.341 76.61 53.122c-.682.19-1.36.339-2.034.449z" fill="#FF7575"/><mask id="a" maskUnits="userSpaceOnUse" x="59.613" y="28.375" width="22" height="21" fill="#000"><path fill="#fff" d="M59.613 28.375h22v21h-22z"/><path fill-rule="evenodd" clip-rule="evenodd" d="M73.617 35.678c0 .197-.023.388-.067.572.158-.032.322-.049.489-.049h2.113a2.454 2.454 0 012.454 2.454v.883a2.454 2.454 0 01-2.454 2.454H74.04c-.169 0-.334-.017-.493-.05.031.158.048.321.048.489v1.895a2.454 2.454 0 01-2.453 2.453H70.08a2.454 2.454 0 01-2.454-2.454v-1.894c0-.168.017-.331.049-.489-.16.033-.325.05-.494.05h-2.113a2.454 2.454 0 01-2.454-2.454v-.883a2.454 2.454 0 012.454-2.454h2.113c.167 0 .33.017.486.048a2.457 2.457 0 01-.067-.572V33.83a2.454 2.454 0 012.454-2.454h1.11a2.454 2.454 0 012.454 2.454v1.849z"/></mask><path d="M73.55 36.25l-2.13-.509a2.19 2.19 0 002.564 2.655l-.434-2.146zm2.602-.049v2.19-2.19zm-2.606 5.741l.438-2.145a2.19 2.19 0 00-2.584 2.579l2.146-.434zm-5.92 2.383h2.188-2.189zm0-1.894h-2.19 2.19zm.048-.489l2.146.434a2.19 2.19 0 00-2.584-2.579l.438 2.145zm-.008-5.693l-.431 2.147a2.19 2.19 0 002.56-2.655l-2.129.508zm-.067-.572h2.19-2.19zm0-1.848H65.41h2.19zm2.454-2.454v-2.189 2.19zm1.11 0v2.19-2.19zm2.454 2.454h2.19-2.19zm2.062 2.93c.084-.35.127-.712.127-1.081h-4.378a.268.268 0 01-.008.063l4.26 1.018zm-1.64-2.747a4.65 4.65 0 00-.924.092l.869 4.292a.279.279 0 01.055-.005v-4.379zm2.113 0H74.04v4.379h2.113v-4.379zm4.643 4.643a4.643 4.643 0 00-4.643-4.643v4.379c.146 0 .265.118.265.264h4.378zm0 .883v-.883h-4.378v.883h4.378zm-4.643 4.643a4.643 4.643 0 004.643-4.643h-4.378a.264.264 0 01-.265.264v4.38zm-2.113 0h2.113v-4.379H74.04v4.38zm-.931-.094c.302.062.614.094.931.094v-4.379a.274.274 0 01-.055-.005l-.876 4.29zm2.676-1.656c0-.314-.032-.623-.092-.922l-4.292.867a.278.278 0 01.005.055h4.379zm0 1.895V42.43h-4.379v1.895h4.379zm-4.643 4.642a4.643 4.643 0 004.643-4.643h-4.379a.264.264 0 01-.264.265v4.378zm-1.062 0h1.062V44.59h-1.062v4.378zm-4.643-4.643a4.643 4.643 0 004.643 4.643V44.59a.264.264 0 01-.265-.265h-4.378zm0-1.894v1.895h4.378V42.43h-4.378zm.092-.922c-.06.3-.092.608-.092.922h4.378a.28.28 0 01.006-.055l-4.292-.867zm1.652 2.672c.317 0 .63-.032.932-.094l-.876-4.29a.275.275 0 01-.056.005v4.38zm-2.113 0h2.113v-4.379h-2.113v4.38zm-4.643-4.643a4.643 4.643 0 004.643 4.643v-4.379a.264.264 0 01-.264-.264h-4.379zm0-.883v.883h4.379v-.883h-4.379zm4.643-4.643a4.643 4.643 0 00-4.643 4.643h4.379c0-.146.118-.264.264-.264v-4.379zm2.113 0h-2.113v4.379h2.113v-4.379zm.918.091a4.655 4.655 0 00-.918-.091v4.379c.02 0 .039.002.055.005l.863-4.293zm-2.688 1.575c0 .369.044.731.127 1.08l4.259-1.017a.274.274 0 01-.007-.063H65.41zm0-1.849v1.849h4.379v-1.849H65.41zm4.643-4.643a4.643 4.643 0 00-4.643 4.643h4.379c0-.146.118-.264.264-.264v-4.379zm1.11 0h-1.11v4.379h1.11v-4.379zm4.643 4.643a4.643 4.643 0 00-4.643-4.643v4.379c.146 0 .265.118.265.264h4.378zm0 1.849v-1.849h-4.378v1.849h4.378z" fill="#FF7575" mask="url(#a)"/></svg>