<svg width="138" height="96" fill="none" xmlns="http://www.w3.org/2000/svg"><path fill-rule="evenodd" clip-rule="evenodd" d="M6.172 41.557a3.96 3.96 0 01-.546.237l-1.963.682c-2.007.697-2.988 2.778-2.166 4.596l.148.329c.424.938.38 2-.119 2.906L.78 51.663c-.748 1.357-.45 3 .734 4.064l1.55 1.392a3.394 3.394 0 011.105 1.995l.274 1.743c.23 1.47 1.453 2.646 3.046 2.927l2.012.356a3.918 3.918 0 012.038 1.023l.793.765c1.5 1.448 4.019 1.448 5.52 0l.792-.765a3.915 3.915 0 012.039-1.023l2.012-.356c1.592-.281 2.814-1.456 3.046-2.927l.273-1.743a3.394 3.394 0 011.104-1.995l1.551-1.392c1.185-1.063 1.482-2.707.735-4.064l-.747-1.356a3.226 3.226 0 01-.12-2.906l.15-.33c.821-1.817-.16-3.898-2.167-4.595l-1.962-.682a3.956 3.956 0 01-.547-.237c-2.552 1.572-5.62 2.489-8.92 2.489s-6.367-.917-8.919-2.49z" fill="#F2226E"/><path d="M50.203 51.965a2.569 2.569 0 01-.829.401c-.324.09-.706.134-1.144.134-.585 0-1.072-.067-1.462-.2-.373-.134-.617-.365-.73-.692a239.264 239.264 0 00-1.121-3.164c-.293-.818-.52-1.53-.682-2.14h-.122c-.049.877-.09 1.679-.122 2.407l-.048 2.095a43.9 43.9 0 01-.05 2.073 68.502 68.502 0 01-.097 2.318 4.199 4.199 0 01-.828.178 5.94 5.94 0 01-1.023.09c-.715 0-1.275-.105-1.68-.313-.39-.208-.585-.587-.585-1.136l.706-11.367c.13-.193.414-.401.853-.624.438-.223 1.055-.335 1.85-.335.862 0 1.535.127 2.023.38.487.237.844.63 1.072 1.18.146.357.3.766.462 1.226.179.46.35.936.512 1.427.178.49.349.98.511 1.47.163.476.309.907.439 1.293h.122c.39-1.248.78-2.451 1.169-3.61a45.55 45.55 0 011.072-2.942c.243-.119.552-.216.925-.29.39-.09.82-.134 1.291-.134.796 0 1.446.112 1.949.335.503.208.796.512.877.913.065.298.13.758.195 1.382.081.61.162 1.3.243 2.073a229.321 229.321 0 01.463 4.948 73.369 73.369 0 01.292 3.7 3.06 3.06 0 01-.876.312c-.293.074-.674.111-1.145.111-.617 0-1.137-.096-1.56-.29-.422-.193-.649-.572-.681-1.136-.098-1.62-.163-3.076-.195-4.369a77.908 77.908 0 00-.098-3.254h-.121c-.163.58-.398 1.308-.707 2.185a130.69 130.69 0 00-1.12 3.365zm12.886-9.785c.276-.148.69-.289 1.242-.423a7.423 7.423 0 011.705-.2c.812 0 1.526.111 2.143.334.634.208 1.04.542 1.218 1.003.293.773.61 1.672.95 2.697.341 1.025.682 2.087 1.023 3.187a374.35 374.35 0 011 3.232c.324 1.055.608 1.99.852 2.808-.195.208-.487.371-.877.49-.39.134-.853.2-1.389.2-.39 0-.722-.029-.998-.088a1.974 1.974 0 01-.658-.268 1.535 1.535 0 01-.414-.468 4.647 4.647 0 01-.268-.668l-.439-1.538H63.77c-.13.445-.26.906-.39 1.381-.13.476-.26.936-.389 1.382-.227.075-.47.134-.73.179a3.905 3.905 0 01-.902.089c-.828 0-1.445-.127-1.851-.38-.39-.267-.585-.63-.585-1.091 0-.208.033-.416.097-.624.066-.208.139-.453.22-.736.113-.401.268-.899.463-1.493.21-.594.438-1.233.682-1.917a81.07 81.07 0 01.78-2.14c.275-.727.535-1.411.779-2.05.243-.654.462-1.233.657-1.738.211-.506.374-.892.488-1.16zm2.922 2.876c-.227.624-.487 1.322-.779 2.095a35.46 35.46 0 00-.755 2.318h3.02a70.138 70.138 0 00-.706-2.34 94.04 94.04 0 00-.633-2.073h-.147zM85.5 42.381c-.228-.178-.585-.334-1.072-.468-.47-.133-.99-.2-1.559-.2-.682 0-1.267.089-1.754.267-.487.193-.82.453-.998.78-.18.342-.398.78-.658 1.315-.26.55-.536 1.16-.828 1.828l-.877 2.117a97.829 97.829 0 00-1.632 4.57 43.893 43.893 0 00-.634 2.094c.228.208.552.394.975.557a3.65 3.65 0 001.388.268c.601 0 1.088-.12 1.462-.357.39-.223.674-.646.852-1.27.439-1.456.877-2.853 1.316-4.19a939.46 939.46 0 001.412-4.146h.147c.438 1.397.885 2.92 1.34 4.57.47 1.648.917 3.29 1.339 4.925.292.133.6.245.926.334.34.09.722.134 1.145.134.6 0 1.112-.127 1.534-.38.422-.237.633-.638.633-1.203 0-.327-.089-.802-.267-1.426a27.171 27.171 0 00-.658-2.117c-.26-.773-.56-1.583-.901-2.43a45.998 45.998 0 00-1-2.407 40.08 40.08 0 00-.925-1.983c-.292-.565-.528-.959-.706-1.182zm19.969-.156c-.227-.208-.56-.364-.999-.468-.422-.119-.934-.178-1.534-.178-.601 0-1.17.082-1.706.245-.535.163-.974.557-1.315 1.181l-2.412 4.502c-.243.461-.462.892-.657 1.293a43.62 43.62 0 00-.633 1.427l-.147-.023c.065-.802.098-1.62.098-2.451.016-.832.024-1.65.024-2.452v-3.455a7.316 7.316 0 00-.828-.133 8.645 8.645 0 00-1.072-.067 6.01 6.01 0 00-.95.067 1.526 1.526 0 00-.682.267 1.306 1.306 0 00-.414.535c-.097.238-.146.542-.146.914v11.144c.227.297.576.52 1.047.668.471.149.975.223 1.51.223a5.38 5.38 0 001.706-.267c.552-.164.99-.55 1.315-1.16l2.436-4.501c.244-.461.463-.9.658-1.315.194-.401.406-.87.633-1.404l.122.022a39.577 39.577 0 00-.122 2.407c-.016.802-.024 1.605-.024 2.407v3.61a9.253 9.253 0 001.9.2c.714.001 1.258-.118 1.632-.355.373-.223.56-.699.56-1.427V42.225zm15.417 12.972a7.398 7.398 0 01-.853.133 9.455 9.455 0 01-1.12.067 5.05 5.05 0 01-.999-.089 1.714 1.714 0 01-.706-.267 1.219 1.219 0 01-.439-.557c-.097-.238-.146-.55-.146-.937v-3.476h-4.677v5.126a7.372 7.372 0 01-.852.133 9.472 9.472 0 01-1.121.067 5.07 5.07 0 01-.998-.089 1.713 1.713 0 01-.707-.267 1.21 1.21 0 01-.438-.557c-.098-.238-.146-.55-.146-.937V41.78a18.7 18.7 0 01.852-.112c.39-.06.763-.09 1.121-.09.373 0 .698.03.974.09.292.045.536.134.731.267.195.134.341.32.438.558.098.237.146.55.146.936v3.566h4.677V41.78c.179-.03.463-.067.853-.112.389-.06.763-.09 1.12-.09.374 0 .699.03.975.09.292.045.535.134.73.267.195.134.341.32.439.558.097.237.146.55.146.936v11.768zm6.306-13.017c.276-.148.69-.289 1.242-.423a7.43 7.43 0 011.705-.2c.812 0 1.527.111 2.144.334.633.208 1.039.542 1.218 1.003.292.773.609 1.672.95 2.697.341 1.025.682 2.087 1.023 3.187.341 1.084.674 2.162.999 3.232.324 1.055.609 1.99.852 2.808-.195.208-.487.371-.877.49-.39.134-.852.2-1.388.2-.39 0-.723-.029-.999-.088a1.976 1.976 0 01-.658-.268 1.543 1.543 0 01-.414-.468 4.67 4.67 0 01-.268-.668l-.438-1.538h-4.409c-.13.445-.26.906-.39 1.381-.13.476-.26.936-.39 1.382a5.169 5.169 0 01-.73.179 3.9 3.9 0 01-.902.089c-.828 0-1.445-.127-1.851-.38-.39-.267-.585-.63-.585-1.091 0-.208.033-.416.098-.624.065-.208.138-.453.219-.736.114-.401.268-.899.463-1.493l.682-1.917c.244-.698.503-1.411.78-2.14.276-.727.535-1.411.779-2.05.244-.654.463-1.233.658-1.738.211-.506.373-.892.487-1.16zm2.923 2.876c-.227.624-.487 1.322-.78 2.095-.276.758-.527 1.53-.755 2.318h3.021a70.602 70.602 0 00-.707-2.34 91.007 91.007 0 00-.633-2.073h-.146z" fill="#fff"/><path fill-rule="evenodd" clip-rule="evenodd" d="M1.508 34.221a10.9 10.9 0 013.597-.604c5.534 0 10.02 4.077 10.02 9.107h-.046c-6.178 0-11.456-3.526-13.571-8.503z" fill="#4CAF52"/><path fill-rule="evenodd" clip-rule="evenodd" d="M15.596 38.927a9.361 9.361 0 01.819 3.72c7.413-.62 13.22-6.332 13.22-13.289 0-1.001-.12-1.977-.348-2.916-6.777 1.411-12.118 6.285-13.691 12.485z" fill="#8BC24A"/><path d="M39.695 60.625c0-1.285 1.136-2.326 2.537-2.326h92.603c1.401 0 2.537 1.041 2.537 2.326v4.069c0 1.284-1.136 2.325-2.537 2.325H42.232c-1.4 0-2.537-1.04-2.537-2.325v-4.07z" fill="#8BC24A"/><path d="M68.975 62.014v3.726h-1.714v-.608c-.535.507-1.23.76-2.088.76-.719 0-1.295-.173-1.728-.52a1.668 1.668 0 01-.636-1.355c0-.566.23-1.01.69-1.33.471-.33 1.102-.495 1.895-.495h1.715v-.279c0-.355-.11-.625-.332-.811-.212-.194-.526-.291-.94-.291-.341 0-.65.067-.927.202-.276.136-.571.355-.885.66l-.968-1.053c.793-.861 1.789-1.292 2.987-1.292.903 0 1.618.236 2.143.71.526.464.788 1.123.788 1.977zm-1.866 1.382v-.076h-1.466c-.636 0-.954.211-.954.633 0 .212.088.38.263.507.184.119.424.178.719.178.415 0 .756-.114 1.023-.342.276-.237.415-.537.415-.9zm5.087 2.344v-6.273h6.153v6.273h-1.867v-4.828H74.05v4.828h-1.853zm10.798 0v-4.828h-2.101v-1.445h6.07v1.445h-2.116v4.828h-1.853zm12.76-2.56h-4.798c.11.398.332.706.663.926.341.21.76.316 1.259.316.673 0 1.309-.21 1.908-.633l.774 1.166c-.82.625-1.733.938-2.738.938-1.05.016-1.945-.296-2.682-.938-.728-.65-1.083-1.432-1.065-2.345-.018-.904.328-1.681 1.037-2.332.71-.65 1.558-.967 2.544-.95.94 0 1.71.279 2.31.836.608.558.912 1.25.912 2.079 0 .304-.041.616-.124.937zm-4.798-1.203h3.11a1.146 1.146 0 00-.442-.913c-.276-.237-.622-.355-1.037-.355-.396 0-.742.114-1.037.342a1.661 1.661 0 00-.594.925zm14.578 3.763h-2.212l-2.71-3.32v3.32h-1.853v-6.273h1.853v2.928l2.585-2.928h2.116l-2.586 2.864 2.807 3.41zm8.095-3.726v3.726h-1.714v-.608c-.535.507-1.231.76-2.088.76-.719 0-1.295-.173-1.728-.52a1.669 1.669 0 01-.637-1.355c0-.566.231-1.01.692-1.33.47-.33 1.101-.495 1.894-.495h1.715v-.279c0-.355-.111-.625-.332-.811-.212-.194-.526-.291-.94-.291-.341 0-.65.067-.927.202-.276.136-.571.355-.885.66l-.968-1.053c.793-.861 1.789-1.292 2.987-1.292.903 0 1.618.236 2.143.71.526.464.788 1.123.788 1.977zm-1.866 1.382v-.076h-1.466c-.636 0-.954.211-.954.633 0 .212.088.38.263.507.184.119.424.178.719.178.414 0 .756-.114 1.023-.342.276-.237.415-.537.415-.9z" fill="#fff"/></svg>