<svg width="138" height="96" fill="none" xmlns="http://www.w3.org/2000/svg"><path d="M25.085 70.62c-1.674 0-3.045-.332-4.112-.995-.296-.174-.51-.356-.64-.545a1.21 1.21 0 01-.173-.64c0-.253.074-.466.222-.64a.71.71 0 01.566-.26c.214 0 .55.126 1.01.379.492.252.968.458 1.428.616.476.158 1.067.237 1.773.237.788 0 1.404-.135 1.847-.403.443-.269.665-.648.665-1.137 0-.316-.09-.57-.271-.759-.164-.19-.46-.355-.887-.497-.427-.158-1.059-.324-1.896-.498-1.444-.3-2.487-.703-3.127-1.208-.624-.522-.936-1.225-.936-2.11 0-.678.205-1.287.616-1.824.41-.553.976-.98 1.699-1.28.722-.3 1.543-.45 2.462-.45.657 0 1.297.087 1.921.261a5.317 5.317 0 011.65.711c.542.347.813.75.813 1.208a.896.896 0 01-.247.64.685.685 0 01-.541.26 1.12 1.12 0 01-.444-.094 5.938 5.938 0 01-.59-.308 8.135 8.135 0 00-1.257-.592c-.377-.142-.853-.214-1.428-.214-.69 0-1.247.143-1.674.427-.41.284-.616.671-.616 1.161 0 .442.189.79.567 1.043.393.236 1.124.466 2.191.687 1.1.22 1.962.474 2.586.758.623.284 1.067.64 1.33 1.066.278.411.418.94.418 1.588 0 1.027-.452 1.856-1.354 2.488-.887.616-2.077.924-3.57.924zm17.1-3.08a.71.71 0 01.566.26c.148.174.222.395.222.664 0 .458-.296.845-.887 1.16a7.948 7.948 0 01-1.896.735 7.778 7.778 0 01-1.945.261c-1.904 0-3.406-.53-4.506-1.588-1.1-1.074-1.65-2.535-1.65-4.383 0-1.185.238-2.236.714-3.152a5.328 5.328 0 012.044-2.132c.886-.506 1.888-.759 3.004-.759 1.609 0 2.881.498 3.817 1.493.935.995 1.403 2.338 1.403 4.029 0 .631-.295.947-.886.947h-7.61c.165 2.449 1.388 3.673 3.67 3.673.607 0 1.133-.079 1.576-.237.443-.158.911-.363 1.404-.616.049-.032.18-.095.393-.19.23-.11.42-.165.567-.165zM37.9 60.36c-.952 0-1.715.292-2.29.877-.575.584-.92 1.406-1.034 2.464h6.353c-.05-1.074-.337-1.896-.862-2.464-.509-.585-1.231-.877-2.167-.877zm13.132 10.26c-1.182 0-2.224-.245-3.127-.735a5.16 5.16 0 01-2.068-2.085c-.477-.916-.715-1.974-.715-3.175 0-1.216.239-2.275.715-3.175a5.124 5.124 0 012.068-2.109c.903-.49 1.945-.735 3.127-.735 1.182 0 2.217.245 3.103.735a4.934 4.934 0 012.069 2.109c.492.9.738 1.959.738 3.175 0 1.2-.246 2.259-.739 3.175a4.966 4.966 0 01-2.068 2.085c-.886.49-1.92.735-3.103.735zm0-1.896c1.1 0 1.938-.347 2.512-1.042.591-.695.887-1.714.887-3.057 0-1.327-.296-2.338-.887-3.033-.591-.71-1.428-1.066-2.512-1.066-1.083 0-1.92.355-2.511 1.066-.591.695-.887 1.706-.887 3.033 0 1.343.287 2.362.862 3.057.591.695 1.436 1.042 2.536 1.042z" fill="#fff"/><path d="M66.163 58.607c1.035 0 1.954.252 2.758.758.821.505 1.453 1.216 1.897 2.133.46.916.689 1.974.689 3.175 0 1.184-.222 2.227-.665 3.127-.443.9-1.075 1.596-1.896 2.086-.804.49-1.732.734-2.782.734-.903 0-1.7-.181-2.389-.545a3.801 3.801 0 01-1.576-1.611v5.284c0 .332-.115.592-.345.782-.213.205-.5.308-.862.308-.377 0-.69-.103-.935-.308-.23-.205-.345-.482-.345-.83V59.816c0-.347.115-.624.345-.83.23-.22.533-.33.91-.33.362 0 .657.11.887.33.23.206.345.483.345.83v.972a3.801 3.801 0 011.576-1.612c.69-.379 1.486-.568 2.389-.568zm-.59 10.118c1.083 0 1.92-.348 2.511-1.043.591-.71.887-1.714.887-3.01 0-1.31-.304-2.33-.911-3.056-.591-.727-1.42-1.09-2.487-1.09-1.084 0-1.921.355-2.512 1.066-.575.711-.862 1.722-.862 3.033s.287 2.322.862 3.033c.59.711 1.428 1.067 2.512 1.067zm18.094-1.185a.71.71 0 01.567.26c.147.174.221.395.221.664 0 .458-.295.845-.886 1.161a7.946 7.946 0 01-1.897.735 7.778 7.778 0 01-1.945.26c-1.904 0-3.406-.529-4.506-1.587-1.1-1.075-1.65-2.536-1.65-4.384 0-1.185.238-2.235.714-3.151a5.327 5.327 0 012.044-2.133c.887-.506 1.888-.758 3.004-.758 1.609 0 2.881.497 3.817 1.492.936.996 1.404 2.338 1.404 4.029 0 .632-.296.948-.887.948h-7.609c.164 2.448 1.387 3.672 3.67 3.672.607 0 1.132-.079 1.575-.237.443-.158.911-.363 1.404-.616.049-.031.18-.094.394-.19.23-.11.418-.165.566-.165zm-4.285-7.18c-.952 0-1.715.292-2.29.877-.574.584-.919 1.406-1.034 2.464h6.353c-.049-1.074-.336-1.895-.862-2.464-.509-.585-1.23-.877-2.167-.877zm17.738-6.73c.377 0 .68.103.91.309.23.205.345.481.345.829v14.644c0 .363-.115.647-.344.853-.214.205-.51.308-.887.308-.378 0-.681-.103-.911-.308-.214-.206-.32-.49-.32-.853v-.948a3.802 3.802 0 01-1.576 1.611c-.69.364-1.486.545-2.389.545-1.034 0-1.961-.252-2.782-.758-.805-.505-1.437-1.216-1.896-2.133-.444-.916-.665-1.966-.665-3.151 0-1.2.221-2.251.665-3.152.46-.9 1.091-1.595 1.896-2.085.804-.49 1.732-.734 2.782-.734.903 0 1.691.19 2.364.568.69.364 1.215.885 1.576 1.564v-6.018c0-.332.107-.593.32-.782.23-.206.534-.308.911-.308zm-4.58 15.095c1.066 0 1.895-.356 2.486-1.067.591-.71.887-1.722.887-3.033 0-1.31-.296-2.322-.887-3.033-.574-.71-1.403-1.066-2.487-1.066-1.083 0-1.929.355-2.536 1.066-.591.695-.887 1.69-.887 2.986 0 1.295.304 2.314.912 3.057.607.726 1.444 1.09 2.511 1.09zm10.559 1.848c-.361 0-.665-.095-.911-.284-.23-.19-.345-.474-.345-.853v-9.62c0-.38.115-.664.345-.854.246-.205.55-.308.911-.308s.656.103.886.308c.23.19.345.474.345.853v9.62c0 .38-.115.664-.345.853-.23.19-.525.285-.886.285zm0-14.241c-.476 0-.854-.127-1.133-.38-.279-.252-.419-.584-.419-.994 0-.411.14-.735.419-.972.279-.253.657-.38 1.133-.38.459 0 .829.127 1.108.38.295.237.443.56.443.972 0 .41-.139.742-.419.995-.279.252-.656.379-1.132.379zm9.756 2.275c1.592 0 2.774.387 3.546 1.16.788.775 1.182 1.952 1.182 3.531v6.138c0 .363-.107.647-.321.852-.213.19-.508.285-.886.285-.361 0-.649-.103-.862-.308-.213-.206-.32-.482-.32-.83v-.876a3.426 3.426 0 01-1.404 1.54c-.607.347-1.321.521-2.142.521-.788 0-1.51-.15-2.167-.45-.657-.316-1.174-.75-1.551-1.303a3.309 3.309 0 01-.542-1.849c0-.837.222-1.492.665-1.966.46-.49 1.206-.837 2.241-1.043 1.05-.205 2.487-.308 4.309-.308h.566v-.687c0-.885-.188-1.524-.566-1.92-.378-.394-.985-.592-1.822-.592-.575 0-1.117.071-1.625.214-.509.142-1.068.347-1.675.616-.443.237-.755.355-.936.355a.81.81 0 01-.615-.26c-.148-.174-.222-.395-.222-.664 0-.237.066-.442.197-.616.148-.19.378-.371.69-.545.574-.3 1.247-.537 2.019-.711a9.372 9.372 0 012.241-.284zm-.764 10.236c.903 0 1.642-.292 2.216-.877.575-.6.862-1.366.862-2.298v-.616h-.443c-1.28 0-2.265.055-2.955.166-.689.11-1.182.3-1.477.568-.296.253-.444.624-.444 1.114 0 .569.214 1.035.641 1.398.426.363.96.545 1.6.545z" fill="#DF2F58"/><path fill-rule="evenodd" clip-rule="evenodd" d="M61.777 26.23c-1.505-.633-3.27-1.077-5.35-1.223-1.635-.115-3.465-.045-5.515.264v19.5c4.149-.594 13.63-.198 18.361 6.137V38.83c-4.796-.014-8.68-3.76-8.68-8.378a8.1 8.1 0 011.184-4.222z" fill="url(#paint0_linear)"/><path fill-rule="evenodd" clip-rule="evenodd" d="M52.216 26.366v17.01c2.17-.147 5.042-.04 7.967.646 2.674.628 5.462 1.757 7.786 3.679V40c-4.9-.626-8.68-4.663-8.68-9.549 0-1.246.246-2.438.695-3.533a16.189 16.189 0 00-3.652-.66 22.76 22.76 0 00-4.116.107zm-1.505-2.334c2.137-.322 4.066-.398 5.81-.276 2.222.155 4.132.633 5.778 1.325.341.143.603.42.718.76.115.341.074.713-.114 1.022a6.882 6.882 0 00-1.006 3.59c0 3.926 3.302 7.111 7.38 7.122.719.002 1.3.564 1.3 1.255v12.078a1.26 1.26 0 01-.904 1.194 1.333 1.333 0 01-1.459-.462c-2.124-2.844-5.353-4.407-8.649-5.18-3.299-.774-6.535-.724-8.46-.448a1.34 1.34 0 01-1.044-.29 1.235 1.235 0 01-.453-.951v-19.5c0-.617.468-1.143 1.103-1.239z" fill="url(#paint1_linear)"/><path fill-rule="evenodd" clip-rule="evenodd" d="M69.358 38.83c4.781-.031 8.647-3.77 8.647-8.378a8.1 8.1 0 00-1.177-4.21c1.51-.64 3.284-1.088 5.377-1.235 1.635-.115 3.464-.045 5.514.264v19.5c-4.148-.594-13.629-.198-18.36 6.137V38.83z" fill="url(#paint2_linear)"/><path fill-rule="evenodd" clip-rule="evenodd" d="M82.111 23.756c1.744-.122 3.674-.046 5.811.276.635.096 1.102.622 1.102 1.24V44.77c0 .365-.165.712-.452.95a1.34 1.34 0 01-1.043.291c-1.927-.276-5.163-.326-8.462.448-3.295.773-6.525 2.336-8.649 5.18-.33.443-.92.63-1.458.462a1.26 1.26 0 01-.904-1.194V38.83c0-.69.578-1.25 1.295-1.255 4.065-.026 7.352-3.205 7.352-7.123a6.88 6.88 0 00-1-3.579 1.213 1.213 0 01-.114-1.02c.115-.34.375-.616.715-.76 1.653-.698 3.573-1.18 5.807-1.337zm4.306 2.61a22.76 22.76 0 00-4.116-.108 16.166 16.166 0 00-3.682.67 9.292 9.292 0 01.691 3.524c0 4.875-3.763 8.904-8.647 9.544v7.705c2.325-1.922 5.112-3.051 7.787-3.679a27.661 27.661 0 017.967-.646v-17.01z" fill="url(#paint3_linear)"/><path fill-rule="evenodd" clip-rule="evenodd" d="M69.316 37.972c.72 0 1.303.562 1.303 1.255v11.68c0 .694-.583 1.256-1.303 1.256s-1.304-.562-1.304-1.255V39.227c0-.693.584-1.255 1.304-1.255z" fill="#fff"/><path fill-rule="evenodd" clip-rule="evenodd" d="M69.3 37.604c4.105 0 7.432-3.202 7.432-7.152S73.405 23.3 69.3 23.3s-7.433 3.202-7.433 7.152 3.328 7.152 7.433 7.152zm0 2.403c5.484 0 9.93-4.278 9.93-9.555s-4.446-9.555-9.93-9.555-9.93 4.278-9.93 9.555 4.446 9.555 9.93 9.555z" fill="#fff"/><defs><linearGradient id="paint0_linear" x1="47.565" y1="32.455" x2="69.505" y2="53.661" gradientUnits="userSpaceOnUse"><stop stop-color="#DF2F58"/><stop offset="1" stop-color="#7C2E4B"/></linearGradient><linearGradient id="paint1_linear" x1="60.093" y1="24.955" x2="60.093" y2="50.908" gradientUnits="userSpaceOnUse"><stop stop-color="#DF2F58" stop-opacity="0"/><stop offset="1" stop-color="#DF2F58"/></linearGradient><linearGradient id="paint2_linear" x1="91.066" y1="32.455" x2="69.126" y2="53.661" gradientUnits="userSpaceOnUse"><stop stop-color="#DF2F58"/><stop offset="1" stop-color="#7C2E4B"/></linearGradient><linearGradient id="paint3_linear" x1="78.54" y1="24.955" x2="78.54" y2="50.908" gradientUnits="userSpaceOnUse"><stop stop-color="#DF2F58" stop-opacity="0"/><stop offset="1" stop-color="#DF2F58"/></linearGradient></defs></svg>