<svg width="138" height="96" fill="none" xmlns="http://www.w3.org/2000/svg"><path d="M47.717 62.927V51.063h6.007v11.864l-3.238 3.268-2.77-3.268zm0-14.692v-3.469h6.007v3.47h-6.007zM15 27.064c0 .915.274 1.694.826 2.337.548.644 1.209.96 1.972.96.274 0 .542-.046.804-.142a2.853 2.853 0 001.123-.708 2.95 2.95 0 00.302-.316c.046-.064.08-.11.102-.148l-.58-.592-.189.257c-.131.18-.342.355-.633.528a1.75 1.75 0 01-.929.264c-.535 0-1.003-.232-1.396-.701-.393-.47-.587-1.05-.587-1.732 0-.683.194-1.262.587-1.732.393-.47.86-.708 1.396-.708.211 0 .417.038.61.11.194.077.348.16.473.25.12.09.234.2.337.322.102.13.17.213.2.258.033.051.056.083.067.11l.588-.657-.245-.303c-.16-.206-.434-.418-.81-.63a2.458 2.458 0 00-1.225-.323c-.758 0-1.414.322-1.967.966-.552.644-.826 1.416-.826 2.33zm7.204-2.304h1.984v5.472h.815V24.76h1.983v-.857h-4.782v.857zm8.669 6.392c-.21.663-.564.992-1.06.992-.194 0-.387-.045-.581-.135v.862l.08.026c.057.026.148.052.262.07.114.027.233.033.359.033.404 0 .74-.135 1.009-.419.262-.283.513-.76.746-1.429l2.57-7.249h-.877l-1.807 5.144-1.812-5.144h-.878l2.28 6.329-.29.92zm11.177-1.777h-.878v-5.472h-3.847v1.848c0 .464-.04.914-.108 1.34a6.04 6.04 0 01-.24 1.023 5.474 5.474 0 01-.547 1.133c-.045.064-.08.103-.102.128h-.405v2.44h.815v-1.583h4.497v1.584h.815v-2.44zm-3.91-4.615h2.217v4.615h-3.151l.233-.366c.154-.245.308-.67.462-1.275.16-.599.233-1.262.233-1.983l.006-.991zm10.88-.857l-3.385 4.745v-4.745h-.815v6.329h.696l3.385-4.745v4.745h.82v-6.329h-.7zm3.705 2.112c0 .303.04.573.126.811.085.232.177.419.28.547.102.13.216.245.352.335.132.09.223.148.28.174a.579.579 0 00.13.045l-1.282 2.305h.935l1.163-2.112h1.636v2.112h.815v-6.329h-2.388c-.61 0-1.106.206-1.482.606-.377.399-.565.9-.565 1.506zm3.62-1.255v2.504h-1.573c-.377 0-.679-.116-.895-.348-.223-.232-.33-.528-.33-.901 0-.367.107-.67.33-.901.222-.232.518-.348.895-.348l1.573-.006zm16.785 4.615h-.878v-5.472h-3.847v1.848c0 .464-.04.914-.108 1.34a6.032 6.032 0 01-.24 1.023 5.474 5.474 0 01-.547 1.133c-.045.064-.08.103-.102.128h-.405v2.44h.815v-1.583h4.497v1.584h.815v-2.44zm-3.91-4.615h2.217v4.615h-3.152l.234-.366c.154-.245.308-.67.462-1.275a7.71 7.71 0 00.233-1.983l.006-.991zm10.88-.857l-3.385 4.745v-4.745H75.9v6.329h.695l3.386-4.745v4.745h.82v-6.329h-.7zm7.444 1.649c0-.483-.182-.902-.536-1.256-.359-.348-.82-.528-1.39-.528-.388 0-.747.09-1.089.258-.342.174-.564.309-.667.412a3.287 3.287 0 00-.233.257l.587.657.165-.18c.097-.123.262-.245.496-.36a1.64 1.64 0 01.74-.175c.365 0 .639.084.827.251.182.168.28.393.28.663a.95.95 0 01-.303.702c-.205.193-.473.29-.803.29h-.644v.856h.644c.439 0 .77.097.997.29.228.193.342.45.342.766a.957.957 0 01-.336.76c-.228.193-.559.29-1.003.29-.297 0-.582-.078-.855-.232-.274-.155-.456-.284-.536-.387-.08-.096-.142-.174-.188-.232l-.524.593.08.122c.056.077.142.168.256.277.114.11.256.219.416.328a2.495 2.495 0 001.35.393c.69 0 1.22-.187 1.596-.554a1.83 1.83 0 00.56-1.352c0-.25-.046-.47-.126-.663a1.464 1.464 0 00-.268-.444 1.371 1.371 0 00-.33-.257 1.28 1.28 0 00-.263-.123c-.051-.013-.091-.026-.12-.032l.092-.026c.057-.025.125-.077.216-.141.091-.065.177-.148.262-.245.086-.097.16-.232.217-.4a1.85 1.85 0 00.091-.578zm4.469 1.055c-.53.103-.935.316-1.214.638-.285.322-.422.746-.422 1.274 0 .483.188.908.57 1.281.382.374.855.56 1.413.56.223 0 .44-.032.65-.102.21-.065.382-.142.513-.232a2.874 2.874 0 00.576-.54c.034-.046.057-.085.074-.11v.856h.815v-4.024c0-.689-.211-1.268-.633-1.738a2.053 2.053 0 00-1.584-.702 2.24 2.24 0 00-.741.129c-.24.084-.433.18-.582.283-.148.11-.29.232-.427.367a3.273 3.273 0 00-.262.284c-.04.051-.069.096-.091.128l.524.593.177-.226c.114-.154.302-.309.564-.463.262-.155.541-.232.838-.232a1.3 1.3 0 011.008.438c.263.296.394.676.394 1.14l-2.16.398zm.347 2.897c-.364 0-.655-.09-.86-.277a.92.92 0 01-.308-.708c0-.592.353-.965 1.054-1.12L94.173 27v.4c0 .624-.171 1.132-.513 1.519a1.646 1.646 0 01-1.3.585zm8.43-7.384c-.296 0-.53-.096-.69-.29-.165-.193-.245-.47-.245-.83h-.644c0 .528.143.96.439 1.288.29.334.673.495 1.14.495.467 0 .843-.16 1.134-.495.291-.329.439-.76.439-1.288h-.638c0 .36-.086.637-.245.83-.166.194-.394.29-.69.29zm1.75 1.783l-3.386 4.745v-4.745h-.815v6.329h.695l3.386-4.745v4.745h.821v-6.329h-.701zm8.082 6.329h.82v-6.329h-.82v2.704h-3.209v-2.704h-.815v6.329h.815v-2.768h3.209v2.768zm5.403-3.625c-.53.103-.935.316-1.214.638-.285.322-.422.746-.422 1.274 0 .483.188.908.57 1.281.382.374.855.56 1.414.56.222 0 .438-.032.649-.102.211-.065.382-.142.513-.232a2.67 2.67 0 00.359-.303 2.88 2.88 0 00.217-.238c.034-.045.057-.084.074-.11v.857H119v-4.024c0-.689-.211-1.268-.633-1.738a2.051 2.051 0 00-1.584-.702c-.251 0-.502.045-.741.129s-.433.18-.581.283a3.96 3.96 0 00-.428.367 3.242 3.242 0 00-.262.284c-.04.051-.068.096-.091.128l.524.593.177-.226c.114-.154.302-.309.564-.463a1.62 1.62 0 01.838-.232c.41 0 .747.148 1.009.438.262.296.393.676.393 1.14l-2.16.398zm.348 2.897c-.365 0-.656-.09-.861-.277a.92.92 0 01-.308-.708c0-.592.354-.965 1.055-1.12l1.926-.399v.4c0 .624-.171 1.132-.513 1.519a1.645 1.645 0 01-1.299.585zm-85.89 31.4l-6.161-7.46-6.008-6.258v-2.42h5.375l6.794 8.381 6.81-8.38h5.374v21.308H36.66v-12.63l-6.177 7.46zm37.462-1.367c0-.386-.19-.723-.57-1.01-.382-.288-.874-.526-1.476-.714a98.938 98.938 0 00-2.007-.602 16.501 16.501 0 01-2.193-.81 10.29 10.29 0 01-1.992-1.174c-.602-.455-1.094-1.07-1.475-1.842-.38-.773-.571-1.664-.571-2.675 0-1.744.785-3.272 2.355-4.584 1.57-1.313 3.58-1.97 6.03-1.97 1.009 0 1.961.107 2.857.32.896.213 1.63.468 2.2.766.572.297 1.074.591 1.506.884.433.292.731.552.896.78l.293.297-3.49 3.507a5.785 5.785 0 00-.455-.453c-.201-.183-.618-.434-1.251-.75a4.255 4.255 0 00-1.923-.476c-.68 0-1.246.183-1.698.55-.453.366-.68.792-.68 1.278 0 .386.19.72.571 1.003.381.282.873.52 1.475.713.602.193 1.266.396 1.992.61.726.212 1.457.482 2.193.81.736.326 1.405.717 2.008 1.173.602.456 1.093 1.07 1.474 1.843.381.772.572 1.664.572 2.674 0 1.972-.808 3.631-2.425 4.979-1.616 1.347-3.763 2.02-6.44 2.02-1.09 0-2.143-.126-3.157-.378-1.014-.253-1.848-.558-2.502-.914a17.67 17.67 0 01-1.737-1.07c-.505-.357-.875-.664-1.112-.922l-.34-.371 3.475-3.492c.04.06.116.139.224.238.108.099.319.282.633.55.314.267.646.502.996.705.35.203.787.384 1.312.543a5.44 5.44 0 001.575.237c.845 0 1.532-.222 2.062-.668.53-.446.795-.981.795-1.605zm-46.56.885c1.622 0 2.937 1.266 2.937 2.827 0 1.56-1.315 2.826-2.937 2.826h-.134c-1.622 0-2.937-1.266-2.937-2.826 0-1.561 1.315-2.827 2.938-2.827h.133zm65.849-.885c0-.386-.19-.723-.57-1.01-.382-.288-.873-.526-1.476-.714a98.724 98.724 0 00-2.007-.602 16.502 16.502 0 01-2.193-.81 10.293 10.293 0 01-1.992-1.174c-.602-.455-1.094-1.07-1.475-1.842-.38-.773-.571-1.664-.571-2.675 0-1.744.785-3.272 2.355-4.584 1.57-1.313 3.58-1.97 6.03-1.97 1.009 0 1.961.107 2.857.32.896.213 1.63.468 2.2.766.572.297 1.074.591 1.506.884.433.292.731.552.896.78l.293.297-3.49 3.507a5.781 5.781 0 00-.455-.453c-.201-.183-.618-.434-1.251-.75a4.254 4.254 0 00-1.923-.476c-.68 0-1.246.183-1.699.55-.453.366-.679.792-.679 1.278 0 .386.19.72.571 1.003.381.282.873.52 1.475.713a92.31 92.31 0 001.992.61c.726.212 1.457.482 2.193.81.736.326 1.405.717 2.008 1.173.602.456 1.094 1.07 1.475 1.843.38.772.57 1.664.57 2.674 0 1.972-.807 3.631-2.424 4.979-1.616 1.347-3.763 2.02-6.44 2.02-1.09 0-2.143-.126-3.157-.378-1.014-.253-1.848-.558-2.502-.914a17.693 17.693 0 01-1.737-1.07c-.505-.357-.875-.664-1.112-.922l-.34-.371 3.475-3.492c.04.06.115.139.224.238.108.099.319.282.633.55.314.267.646.502.996.705.35.203.787.384 1.313.543a5.44 5.44 0 001.575.237c.844 0 1.531-.222 2.061-.668.53-.446.796-.981.796-1.605z" fill="#E01F83"/><path fill-rule="evenodd" clip-rule="evenodd" d="M118.06 66.075V44.766h-6.007V56.64l-9.482-11.873h-5.22v21.31h6.008V54.201l9.512 11.873h5.189z" fill="#E01F83"/></svg>