<svg width="203" height="159" fill="none" xmlns="http://www.w3.org/2000/svg"><path d="M158.812 118.837H.628l43.284 32.498h158.185l-43.285-32.498z" fill="#082C46"/><path d="M186.188 14.713H29.003v113.386h157.185V14.713z" fill="#E2F6FF" stroke="#000"/><path d="M186.188 15.15H29.003V5.89a4.5 4.5 0 014.5-4.5h148.185a4.5 4.5 0 014.5 4.5v9.26z" fill="#E2F6FF" stroke="#000"/><path d="M39.07 9.549a1.28 1.28 0 001.283-1.278c0-.706-.575-1.279-1.284-1.279-.709 0-1.284.573-1.284 1.279s.575 1.278 1.284 1.278zm7.371 0a1.28 1.28 0 001.284-1.278c0-.706-.575-1.279-1.284-1.279-.709 0-1.284.573-1.284 1.279s.575 1.278 1.284 1.278zm7.372 0a1.28 1.28 0 001.284-1.278c0-.706-.574-1.279-1.284-1.279-.709 0-1.284.573-1.284 1.279s.575 1.278 1.284 1.278z" fill="#000" stroke="#000" stroke-miterlimit="10"/><path d="M158.982 27.863H55.1v22.35h103.882v-22.35zm.246 28.842H55.1v54.466h104.128V56.705z" fill="#fff" stroke="#000" stroke-miterlimit="10"/><path d="M158.983 56.703H62.28v54.467h96.703V56.703zm.613-22.393H62.28v16.378h97.316V34.31z" fill="#000"/><path d="M169.082 37.918H65.199v83.309h103.883V37.918z" fill="#fff" stroke="#000" stroke-miterlimit="10"/><path d="M169.825 110.246H76.736v11.265h93.089v-11.265zm-64.231-63.699H76.736v31.24h28.858v-31.24zm33.123 0h-28.858v31.24h28.858v-31.24zm32.366 0h-27.74v31.24h27.74v-31.24z" fill="#000"/><path d="M174.282 114.045H80.495v22.659h93.787v-22.659zm-65.868-64.354H80.495v31.6h27.919v-31.6z" fill="#fff" stroke="#000" stroke-miterlimit="10"/><path d="M80.495 89.91h27.919m-27.919 7.181h27.919m-27.919 7.182h14.601" stroke="#000" stroke-miterlimit="10"/><path d="M141.339 49.691h-27.918v31.6h27.918v-31.6z" fill="#fff" stroke="#000" stroke-miterlimit="10"/><path d="M113.421 89.91h27.933m-27.933 7.181h27.933m-27.933 7.182h14.601" stroke="#000" stroke-miterlimit="10"/><path d="M174.282 49.691h-27.919v31.6h27.919v-31.6z" fill="#fff" stroke="#000" stroke-miterlimit="10"/><path d="M146.363 89.91h27.919m-27.919 7.181h27.919m-27.919 7.182h14.587" stroke="#000" stroke-miterlimit="10"/></svg>