<svg width="204" height="159" fill="none" xmlns="http://www.w3.org/2000/svg"><path d="M160.247 119.164H.92l43.597 32.497h159.327l-43.597-32.497z" fill="#082C46"/><path d="M187.823 15.04H29.496v113.385h158.327V15.04z" fill="#E2F6FF" stroke="#000"/><path d="M187.823 15.476H29.496v-9.26a4.5 4.5 0 014.5-4.5h149.327a4.5 4.5 0 014.5 4.5v9.26z" fill="#E2F6FF" stroke="#000"/><path d="M39.638 9.876c.714 0 1.294-.573 1.294-1.279s-.58-1.278-1.294-1.278c-.714 0-1.293.572-1.293 1.278 0 .706.579 1.279 1.293 1.279zm7.425 0c.714 0 1.293-.573 1.293-1.279s-.579-1.278-1.293-1.278-1.294.572-1.294 1.278c0 .706.58 1.279 1.294 1.279zm7.426 0c.714 0 1.293-.573 1.293-1.279S55.203 7.32 54.49 7.32c-.715 0-1.294.572-1.294 1.278 0 .706.58 1.279 1.294 1.279z" fill="#000" stroke="#000" stroke-miterlimit="10"/><path fill-rule="evenodd" clip-rule="evenodd" d="M148.957 65.126c1.229 0 2.65.906 2.787 2.111a42.29 42.29 0 01-.018 9.745c-.15 1.255-1.294 2.202-2.539 2.102l-.535-.014c-3.834 0-7.398 2.335-8.87 5.81-1.568 3.692-.59 7.99 2.429 10.69a2.36 2.36 0 01.258 3.258 42.999 42.999 0 01-7.014 6.855 2.442 2.442 0 01-3.272-.272c-2.581-2.799-7.17-3.854-10.739-2.413-3.691 1.493-6.078 5.166-5.933 9.139a2.394 2.394 0 01-2.146 2.454 43.614 43.614 0 01-9.756-.026c-1.266-.144-2.202-1.243-2.126-2.504.23-4.015-2.124-7.754-5.868-9.301-3.573-1.483-8.214-.433-10.81 2.402a2.43 2.43 0 01-3.3.259 42.788 42.788 0 01-6.858-6.86 2.36 2.36 0 01.263-3.228c2.966-2.687 3.94-6.945 2.425-10.598-1.522-3.658-5.146-5.967-8.922-5.872-1.243 0-2.707-.898-2.844-2.108a42.42 42.42 0 01.02-9.745c.15-1.236 1.129-2.149 2.504-2.105 4.237 0 7.937-2.27 9.434-5.793 1.568-3.695.594-7.991-2.424-10.693a2.364 2.364 0 01-.259-3.256 42.851 42.851 0 017.014-6.855 2.437 2.437 0 013.273.271c2.579 2.805 7.189 3.848 10.733 2.417a9.533 9.533 0 005.939-9.144 2.394 2.394 0 012.145-2.453 43.77 43.77 0 019.756.026c1.271.146 2.204 1.242 2.128 2.503-.231 4.013 2.124 7.752 5.856 9.305 3.588 1.479 8.231.428 10.815-2.401a2.436 2.436 0 013.296-.264 42.644 42.644 0 016.869 6.857 2.36 2.36 0 01-.265 3.232c-2.96 2.685-3.934 6.944-2.424 10.597 1.479 3.567 5.005 5.872 8.978 5.872zm-27.549 5.436c0 7.752-6.358 14.036-14.201 14.036-7.843 0-14.201-6.284-14.201-14.036s6.358-14.036 14.201-14.036c7.843 0 14.201 6.284 14.201 14.036z" fill="#000"/><path d="M50.023 36.281v16.167a4 4 0 004 4H80.14" stroke="#000"/><path fill="#000" d="M46.338 31.204h7.109v7.027h-7.109z"/><path d="M165.44 112.027V95.861a4 4 0 00-4-4h-26.118" stroke="#000"/><path fill="#000" d="M169.125 117.111h-7.109v-7.027h7.109z"/><path d="M60.16 111.029V94.862a4 4 0 00-4-4H30.042" stroke="#000"/><path fill="#000" d="M63.844 116.106h-7.109v-7.027h7.11z"/><path d="M49.51 100.84H29.566" stroke="#000"/><path fill="#000" d="M53.196 104.487h-7.11V97.46h7.11z"/><path d="M157.727 46.572V30.405a4 4 0 014-4h26.118" stroke="#000"/><path fill="#000" d="M154.042 51.65h7.109v-7.028h-7.109z"/><path d="M168.376 36.383h19.946" stroke="#000"/><path fill="#000" d="M164.691 40.03h7.109v-7.027h-7.109z"/><mask id="a" fill="#fff"><path fill-rule="evenodd" clip-rule="evenodd" d="M153.056 67.999c1.229 0 2.65.906 2.787 2.11a42.234 42.234 0 01-.019 9.746c-.15 1.255-1.293 2.201-2.538 2.102l-.536-.014c-3.833 0-7.397 2.334-8.87 5.81-1.567 3.692-.589 7.99 2.43 10.69a2.361 2.361 0 01.258 3.257 42.92 42.92 0 01-7.014 6.855 2.442 2.442 0 01-3.272-.271c-2.581-2.8-7.17-3.854-10.739-2.414-3.692 1.494-6.078 5.167-5.933 9.139a2.396 2.396 0 01-2.146 2.455 43.632 43.632 0 01-9.756-.027 2.388 2.388 0 01-2.127-2.504c.23-4.014-2.124-7.753-5.867-9.301-3.573-1.482-8.214-.433-10.81 2.403a2.432 2.432 0 01-3.3.259 42.76 42.76 0 01-6.858-6.86 2.358 2.358 0 01.263-3.228c2.965-2.688 3.94-6.945 2.425-10.598-1.522-3.658-5.146-5.967-8.922-5.872-1.243 0-2.707-.899-2.844-2.109a42.426 42.426 0 01.019-9.744c.151-1.236 1.13-2.15 2.505-2.106 4.236 0 7.937-2.269 9.434-5.792 1.567-3.696.594-7.992-2.425-10.694a2.364 2.364 0 01-.258-3.256 42.856 42.856 0 017.014-6.854 2.437 2.437 0 013.272.27c2.58 2.805 7.19 3.848 10.734 2.417a9.533 9.533 0 005.938-9.143 2.394 2.394 0 012.146-2.453 43.76 43.76 0 019.755.025c1.272.146 2.204 1.243 2.129 2.504-.232 4.013 2.124 7.752 5.856 9.304 3.588 1.48 8.231.428 10.814-2.4a2.436 2.436 0 013.296-.264 42.654 42.654 0 016.87 6.856c.781.98.667 2.39-.265 3.233-2.961 2.684-3.934 6.943-2.425 10.596 1.48 3.568 5.005 5.873 8.979 5.873zM126.96 74.87c0 7.752-6.358 14.036-14.201 14.036-7.843 0-14.201-6.284-14.201-14.036s6.358-14.037 14.201-14.037c7.843 0 14.201 6.285 14.201 14.037z"/></mask><path fill-rule="evenodd" clip-rule="evenodd" d="M153.056 67.999c1.229 0 2.65.906 2.787 2.11a42.234 42.234 0 01-.019 9.746c-.15 1.255-1.293 2.201-2.538 2.102l-.536-.014c-3.833 0-7.397 2.334-8.87 5.81-1.567 3.692-.589 7.99 2.43 10.69a2.361 2.361 0 01.258 3.257 42.92 42.92 0 01-7.014 6.855 2.442 2.442 0 01-3.272-.271c-2.581-2.8-7.17-3.854-10.739-2.414-3.692 1.494-6.078 5.167-5.933 9.139a2.396 2.396 0 01-2.146 2.455 43.632 43.632 0 01-9.756-.027 2.388 2.388 0 01-2.127-2.504c.23-4.014-2.124-7.753-5.867-9.301-3.573-1.482-8.214-.433-10.81 2.403a2.432 2.432 0 01-3.3.259 42.76 42.76 0 01-6.858-6.86 2.358 2.358 0 01.263-3.228c2.965-2.688 3.94-6.945 2.425-10.598-1.522-3.658-5.146-5.967-8.922-5.872-1.243 0-2.707-.899-2.844-2.109a42.426 42.426 0 01.019-9.744c.151-1.236 1.13-2.15 2.505-2.106 4.236 0 7.937-2.269 9.434-5.792 1.567-3.696.594-7.992-2.425-10.694a2.364 2.364 0 01-.258-3.256 42.856 42.856 0 017.014-6.854 2.437 2.437 0 013.272.27c2.58 2.805 7.19 3.848 10.734 2.417a9.533 9.533 0 005.938-9.143 2.394 2.394 0 012.146-2.453 43.76 43.76 0 019.755.025c1.272.146 2.204 1.243 2.129 2.504-.232 4.013 2.124 7.752 5.856 9.304 3.588 1.48 8.231.428 10.814-2.4a2.436 2.436 0 013.296-.264 42.654 42.654 0 016.87 6.856c.781.98.667 2.39-.265 3.233-2.961 2.684-3.934 6.943-2.425 10.596 1.48 3.568 5.005 5.873 8.979 5.873zM126.96 74.87c0 7.752-6.358 14.036-14.201 14.036-7.843 0-14.201-6.284-14.201-14.036s6.358-14.037 14.201-14.037c7.843 0 14.201 6.285 14.201 14.037z" fill="#fff"/><path d="M155.843 70.11l.994-.113-.994.113zm-.019 9.745l.993.118-.993-.118zm-2.538 2.102l.08-.997-.027-.002h-.027l-.026.999zm-.536-.014l.027-1h-.027v1zm-8.87 5.81l.921.39-.921-.39zm2.43 10.69l.667-.745h-.001l-.666.745zm.258 3.257l-.775-.631-.001.001.776.63zm-7.014 6.855l.607.795.006-.005-.613-.79zm-3.272-.271l-.736.678.003.003.733-.681zm-10.739-2.414l-.374-.927h-.001l.375.927zm-5.933 9.139l.999-.034v-.002l-.999.036zm-2.146 2.455l-.109-.995v.001l.109.994zm-9.756-.027l.115-.993-.003-.001-.112.994zm-2.127-2.504l.999.06v-.003l-.999-.057zm-5.867-9.301l-.383.924h.001l.382-.924zm-10.81 2.403l.737.676.001-.001-.737-.675zm-3.3.259l-.623.782.623-.782zm-6.858-6.86l.783-.621-.002-.004-.781.625zm.263-3.228l-.672-.741.672.741zm2.425-10.598l.923-.383v-.001l-.923.384zm-8.922-5.872v1h.025l-.025-1zm-2.844-2.109l-.994.113.994-.113zm.019-9.744l-.993-.122v.004l.993.118zm2.505-2.106l-.032 1h.032v-1zm9.434-5.792l.92.39-.92-.39zM79.2 51.29l-.668.744.001.001.667-.745zm-.258-3.256l.776.631-.776-.63zm7.014-6.854l-.61-.792-.003.002.613.79zm3.272.27l.736-.676v-.001l-.736.678zm10.734 2.417l.374.928h.001l-.375-.928zm5.938-9.143l-.999.034v.001l.999-.035zm2.146-2.453l.109.994-.109-.994zm9.755.025l.115-.993h-.001l-.114.993zm2.129 2.504l-.998-.06v.002l.998.058zm5.856 9.304l-.384.923.003.002.381-.925zm10.814-2.4l-.738-.676.738.675zm3.296-.264l-.621.783h.001l.62-.783zm6.87 6.856l-.782.623.782-.623zm-.265 3.233l-.67-.742h-.002l.672.742zm-2.425 10.596l-.924.382v.001l.924-.383zm12.76 7.87c-.111-.967-.719-1.722-1.395-2.206-.68-.488-1.544-.791-2.386-.791v2c.386 0 .848.15 1.22.416.376.27.546.57.573.808l1.988-.227zm-.02 9.977c.392-3.3.397-6.655.02-9.976l-1.988.225c.361 3.17.356 6.37-.018 9.515l1.986.236zm-3.611 2.98c1.79.144 3.399-1.201 3.611-2.98l-1.986-.237c-.087.732-.766 1.28-1.465 1.224l-.16 1.994zm-.482-.01l.536.014.052-2-.535-.014-.053 2zm-7.923 5.2c1.313-3.098 4.509-5.2 7.949-5.2v-2c-4.227 0-8.158 2.567-9.79 6.42l1.841.78zm2.175 9.555c-2.704-2.42-3.573-6.262-2.175-9.555l-1.841-.781c-1.738 4.092-.65 8.844 2.683 11.826l1.333-1.49zm.367 4.634a3.36 3.36 0 00-.366-4.634l-1.335 1.49a1.36 1.36 0 01.151 1.881l1.55 1.263zm-7.176 7.013a43.942 43.942 0 007.177-7.014l-1.552-1.261a41.975 41.975 0 01-6.851 6.695l1.226 1.58zm-4.618-.38a3.442 3.442 0 004.612.385l-1.214-1.59a1.442 1.442 0 01-1.933-.157l-1.465 1.362zm-9.632-2.168c3.181-1.283 7.329-.331 9.629 2.165l1.471-1.356c-2.861-3.104-7.892-4.26-11.848-2.663l.748 1.854zm-5.308 8.176c-.129-3.55 2.006-6.839 5.309-8.176l-.75-1.854c-4.08 1.651-6.718 5.708-6.558 10.103l1.999-.073zm-3.037 3.485a3.395 3.395 0 003.037-3.483l-1.999.068a1.393 1.393 0 01-1.255 1.426l.217 1.989zm-4.868.266c1.623 0 3.246-.088 4.869-.266l-.218-1.988c-1.55.17-3.1.254-4.651.254v2zm-5.111-.293c1.697.196 3.401.293 5.111.293v-2c-1.634 0-3.262-.093-4.881-.28l-.23 1.987zm-3.01-3.558c-.108 1.802 1.228 3.356 3.013 3.558l.224-1.988a1.385 1.385 0 01-1.24-1.45l-1.997-.12zm-5.25-8.317c3.352 1.387 5.455 4.733 5.25 8.32l1.997.114c.254-4.442-2.35-8.573-6.484-10.282l-.764 1.848zm-9.69 2.154c2.312-2.527 6.506-3.474 9.688-2.154l.766-1.847c-3.964-1.645-9.053-.493-11.93 2.651l1.475 1.35zm-4.662.366a3.43 3.43 0 004.66-.365l-1.473-1.352a1.432 1.432 0 01-1.941.152l-1.246 1.565zm-7.018-7.02a43.784 43.784 0 007.018 7.02l1.246-1.565a41.764 41.764 0 01-6.698-6.698l-1.566 1.243zm.374-4.59a3.358 3.358 0 00-.372 4.593l1.561-1.25a1.359 1.359 0 01.155-1.862l-1.344-1.481zm2.173-9.475c1.351 3.256.485 7.065-2.173 9.474l1.343 1.482c3.273-2.967 4.358-7.672 2.677-11.722l-1.847.766zm-7.973-5.255c3.36-.085 6.609 1.976 7.973 5.256l1.847-.768c-1.68-4.036-5.678-6.593-9.87-6.488l.05 2zm-3.863-2.996c.111.982.742 1.736 1.429 2.215.691.483 1.565.78 2.409.78v-2c-.4 0-.88-.15-1.265-.42-.39-.272-.56-.572-.586-.8l-1.987.225zm.02-9.975a43.427 43.427 0 00-.02 9.975l1.987-.225A41.414 41.414 0 0170.68 70l-1.986-.235zm3.53-2.987c-1.902-.06-3.317 1.243-3.53 2.983l1.985.243c.09-.732.632-1.254 1.481-1.227l.063-2zm8.481-5.184c-1.319 3.105-4.622 5.183-8.513 5.183v2c4.582 0 8.68-2.46 10.354-6.401l-1.84-.782zm-2.17-9.558c2.703 2.42 3.569 6.261 2.17 9.558l1.841.781c1.737-4.094.656-8.845-2.678-11.829l-1.334 1.49zm-.368-4.632a3.364 3.364 0 00.366 4.631l1.337-1.487a1.364 1.364 0 01-.151-1.882l-1.552-1.262zm7.177-7.014a43.853 43.853 0 00-7.178 7.015l1.553 1.26a41.854 41.854 0 016.85-6.694l-1.225-1.58zm4.62.384a3.437 3.437 0 00-4.618-.385l1.222 1.584a1.437 1.437 0 011.926.157l1.47-1.356zm9.625 2.167c-3.16 1.275-7.327.332-9.624-2.166l-1.472 1.354c2.861 3.11 7.913 4.254 11.844 2.667l-.748-1.855zm5.313-8.181a8.533 8.533 0 01-5.314 8.181l.75 1.854a10.535 10.535 0 006.563-10.105l-1.999.07zm3.036-3.482c-1.767.193-3.097 1.704-3.036 3.481l1.999-.069a1.393 1.393 0 011.255-1.424l-.218-1.988zm9.978.026a44.762 44.762 0 00-9.978-.026l.218 1.988a42.768 42.768 0 019.533.025l.227-1.987zm3.013 3.557c.108-1.803-1.225-3.352-3.012-3.557l-.229 1.987a1.387 1.387 0 011.245 1.45l1.996.12zm5.242 8.32c-3.343-1.39-5.449-4.738-5.242-8.322l-1.996-.116c-.257 4.442 2.349 8.571 6.47 10.285l.768-1.846zm9.692-2.151c-2.3 2.518-6.496 3.47-9.695 2.15l-.762 1.85c3.976 1.64 9.067.488 11.934-2.651l-1.477-1.35zm4.655-.373a3.436 3.436 0 00-4.655.372l1.476 1.35a1.436 1.436 0 011.937-.155l1.242-1.567zm7.031 7.017a43.638 43.638 0 00-7.031-7.017l-1.241 1.568a41.709 41.709 0 016.708 6.695l1.564-1.246zm-.377 4.598a3.36 3.36 0 00.376-4.599l-1.563 1.248a1.362 1.362 0 01-.153 1.867l1.34 1.484zM145 61.743c-1.345-3.257-.48-7.069 2.173-9.474l-1.344-1.481c-3.269 2.964-4.35 7.67-2.677 11.72l1.848-.765zM153.056 67c-3.585 0-6.736-2.076-8.055-5.256l-1.848.766c1.641 3.955 5.541 6.49 9.903 6.49v-2zm-40.297 22.908c8.384 0 15.201-6.721 15.201-15.036h-2c0 7.188-5.899 13.036-13.201 13.036v2zM97.558 74.871c0 8.315 6.817 15.036 15.201 15.036v-2c-7.302 0-13.201-5.848-13.201-13.036h-2zm15.201-15.037c-8.384 0-15.201 6.721-15.201 15.037h2c0-7.19 5.899-13.037 13.201-13.037v-2zm15.201 15.037c0-8.316-6.817-15.037-15.201-15.037v2c7.302 0 13.201 5.848 13.201 13.037h2z" fill="#000" mask="url(#a)"/></svg>