<svg width="203" height="159" fill="none" xmlns="http://www.w3.org/2000/svg"><path d="M159.229 120.76H.628l43.398 34.129h158.602l-43.399-34.129z" fill="#082C46"/><path d="M186.679 12.267H29.077v119.13H186.68V12.267z" fill="#E2F6FF" stroke="#000"/><path d="M186.679 15.89H29.077v-10a4.5 4.5 0 014.5-4.5H182.18a4.5 4.5 0 014.5 4.5v10z" fill="#E2F6FF" stroke="#000"/><path d="M39.17 9.983c.711 0 1.288-.6 1.288-1.342 0-.742-.577-1.343-1.288-1.343-.71 0-1.287.601-1.287 1.343 0 .741.576 1.342 1.287 1.342zm7.392 0c.711 0 1.287-.6 1.287-1.342 0-.742-.576-1.343-1.287-1.343s-1.288.601-1.288 1.343c0 .741.577 1.342 1.288 1.342zm7.391 0c.71 0 1.287-.6 1.287-1.342 0-.742-.576-1.343-1.288-1.343-.71 0-1.287.601-1.287 1.343 0 .741.577 1.342 1.288 1.342z" fill="#000" stroke="#000" stroke-miterlimit="10"/><path d="M61.276 60.775c6.615 0 11.977-5.592 11.977-12.49 0-6.897-5.362-12.49-11.977-12.49S49.3 41.389 49.3 48.286c0 6.898 5.362 12.49 11.977 12.49z" fill="#000"/><path d="M75.647 49.794c0 6.641-5.158 11.99-11.477 11.99-6.32 0-11.478-5.349-11.478-11.99 0-6.642 5.158-11.99 11.478-11.99 6.319 0 11.477 5.348 11.477 11.99z" fill="#fff" stroke="#000"/><path d="M64.813 58.13h.102l-.002-.102-.032-1.822c.832-.143 1.503-.504 2.007-1.088.521-.605.78-1.359.78-2.255 0-.903-.324-1.66-.972-2.262a6.099 6.099 0 00-.886-.729c-.274-.19-.698-.437-1.269-.74a8.644 8.644 0 01-1.377-.917c-.338-.287-.502-.628-.502-1.028 0-.418.141-.746.42-.993.276-.245.727-.378 1.378-.378.646 0 1.367.148 2.166.449l.1.038.03-.103.42-1.383.028-.09-.088-.033a7.92 7.92 0 00-2.168-.507l.032-1.78.002-.102h-1.379l.001.102.032 1.804c-.774.118-1.416.432-1.918.945-.512.522-.768 1.172-.768 1.944 0 .762.172 1.418.52 1.963h0l.001.002c.142.21.351.426.624.652h0l.002.002c.27.21.492.37.664.478h0l.007.004 1.142.596h0c.588.3 1.073.629 1.457.983h0l.002.002c.383.333.57.732.57 1.203 0 .476-.168.863-.505 1.17-.332.304-.846.465-1.562.465-.709 0-1.585-.217-2.632-.658l-.103-.044-.032.108-.436 1.47-.024.08.074.038c.683.35 1.635.566 2.85.653l-.032 1.761-.002.102h1.278z" fill="#000" stroke="#000" stroke-width=".2"/><path d="M108.262 60.775c6.615 0 11.978-5.592 11.978-12.49 0-6.897-5.363-12.49-11.978-12.49-6.614 0-11.977 5.593-11.977 12.49 0 6.898 5.363 12.49 11.977 12.49z" fill="#000"/><path d="M122.633 49.794c0 6.641-5.158 11.99-11.477 11.99s-11.477-5.349-11.477-11.99c0-6.642 5.158-11.99 11.477-11.99s11.477 5.348 11.477 11.99z" fill="#fff" stroke="#000"/><path d="M111.799 58.13h.102l-.002-.102-.032-1.822c.832-.143 1.503-.504 2.007-1.088.522-.605.78-1.359.78-2.255 0-.903-.324-1.66-.971-2.262a6.11 6.11 0 00-.887-.729c-.274-.19-.697-.437-1.268-.74-.567-.314-1.026-.62-1.377-.917-.339-.287-.503-.628-.503-1.028 0-.418.142-.746.42-.993.276-.245.728-.378 1.379-.378.645 0 1.367.148 2.165.449l.1.038.031-.103.42-1.383.027-.09-.087-.033a7.927 7.927 0 00-2.168-.507l.032-1.78.001-.102h-1.379l.002.102.032 1.804c-.775.118-1.416.432-1.919.945-.512.522-.767 1.172-.767 1.944 0 .762.171 1.418.519 1.963h0l.002.002c.141.21.35.426.624.652h0l.002.002c.27.21.491.37.663.478h0l.007.004 1.142.596h.001c.587.3 1.072.629 1.456.983h0l.002.002c.383.333.571.732.571 1.203 0 .476-.169.863-.505 1.17-.333.304-.847.465-1.562.465-.709 0-1.586-.217-2.632-.658l-.103-.044-.032.108-.437 1.47-.024.08.074.038c.683.35 1.636.566 2.85.653l-.031 1.761-.002.102h1.277z" fill="#000" stroke="#000" stroke-width=".2"/><path d="M154.554 60.775c6.615 0 11.978-5.592 11.978-12.49 0-6.897-5.363-12.49-11.978-12.49-6.614 0-11.977 5.593-11.977 12.49 0 6.898 5.363 12.49 11.977 12.49z" fill="#000"/><path d="M168.925 49.794c0 6.641-5.158 11.99-11.477 11.99s-11.477-5.349-11.477-11.99c0-6.642 5.158-11.99 11.477-11.99s11.477 5.348 11.477 11.99z" fill="#fff" stroke="#000"/><path d="M158.091 58.13h.102l-.002-.102-.032-1.822c.832-.143 1.503-.504 2.007-1.088.522-.605.78-1.359.78-2.255 0-.903-.324-1.66-.972-2.262a6.055 6.055 0 00-.886-.729c-.274-.19-.697-.437-1.268-.74-.567-.314-1.026-.62-1.377-.917-.339-.287-.503-.628-.503-1.028 0-.418.142-.746.42-.993.276-.245.728-.378 1.379-.378.645 0 1.367.148 2.165.449l.1.038.031-.103.42-1.383.027-.09-.088-.033a7.912 7.912 0 00-2.167-.507l.032-1.78.001-.102h-1.379l.002.102.032 1.804c-.775.118-1.416.432-1.919.945-.512.522-.767 1.172-.767 1.944 0 .762.171 1.418.519 1.963h0l.002.002c.141.21.35.426.624.652h0l.002.002c.269.21.491.37.663.478h0l.007.004 1.142.596h.001c.587.3 1.072.629 1.456.983h0l.002.002c.383.333.571.732.571 1.203 0 .476-.169.863-.505 1.17-.333.304-.847.465-1.562.465-.71 0-1.586-.217-2.632-.658l-.103-.044-.032.108-.437 1.47-.024.08.074.038c.683.35 1.636.566 2.85.653l-.031 1.761-.002.102h1.277z" fill="#000" stroke="#000" stroke-width=".2"/><path d="M146.415 79.983a4 4 0 00-4-4H76.237a4 4 0 00-4 4v25.187a4 4 0 004 4h66.178a4 4 0 004-4V79.983z" fill="#000"/><path d="M148.805 83.007a3.5 3.5 0 00-3.5-3.5H79.127a3.5 3.5 0 00-3.5 3.5v25.187a3.5 3.5 0 003.5 3.5h66.178a3.5 3.5 0 003.5-3.5V83.007z" fill="#fff" stroke="#000"/><path d="M104.493 91.075l45.148 19.203-20.338 6.578-4.231 14.154h-5.034l-15.545-39.935z" fill="#000"/><path d="M129.681 141.297l-17.31-44.773 42.827 18.216-19.065 6.166-.248.08-.076.25-6.128 20.061z" fill="#fff" stroke="#000"/></svg>