<svg width="203" height="159" fill="none" xmlns="http://www.w3.org/2000/svg"><path d="M158.817 118.838H.628l43.286 32.497h158.189l-43.286-32.497z" fill="#082C46"/><path d="M186.193 14.714H29.005V128.1h157.188V14.714z" fill="#E2F6FF" stroke="#000"/><path d="M186.193 15.15H29.005V5.89a4.5 4.5 0 014.5-4.5h148.188a4.5 4.5 0 014.5 4.5v9.26z" fill="#E2F6FF" stroke="#000"/><path d="M39.07 9.549a1.28 1.28 0 001.284-1.278c0-.706-.575-1.279-1.284-1.279-.709 0-1.284.573-1.284 1.279s.575 1.278 1.284 1.278zm7.372 0c.71 0 1.285-.572 1.285-1.278 0-.706-.575-1.279-1.285-1.279-.709 0-1.284.573-1.284 1.279s.575 1.278 1.284 1.278zm7.372 0c.71 0 1.285-.572 1.285-1.278 0-.706-.575-1.279-1.285-1.279-.709 0-1.284.573-1.284 1.279s.575 1.278 1.284 1.278z" fill="#000" stroke="#000" stroke-miterlimit="10"/><path fill="#000" d="M78.682 91.379h79.722v37.145H78.682z"/><path fill="#fff" stroke="#000" d="M82.067 94.752h78.722v41.575H82.067z"/><mask id="a" fill="#fff"><path fill-rule="evenodd" clip-rule="evenodd" d="M89.65 115.898c0-6.419 4.764-11.731 10.964-12.622l.617 4.372c-4.054.626-7.157 4.115-7.157 8.326s3.102 7.7 7.155 8.326l-.607 4.222c-6.205-.888-10.973-6.202-10.973-12.624zm21.352.076c0 4.276-3.2 7.808-7.346 8.353l.629 4.197c6.212-.882 10.988-6.199 10.988-12.626a12.65 12.65 0 00-1.368-5.739l-3.851 1.938a8.352 8.352 0 01.948 3.877zm-2.35-5.826l3.153-2.976a12.804 12.804 0 00-7.512-3.899l-.638 4.348a8.458 8.458 0 014.997 2.527z"/></mask><path fill-rule="evenodd" clip-rule="evenodd" d="M89.65 115.898c0-6.419 4.764-11.731 10.964-12.622l.617 4.372c-4.054.626-7.157 4.115-7.157 8.326s3.102 7.7 7.155 8.326l-.607 4.222c-6.205-.888-10.973-6.202-10.973-12.624zm21.352.076c0 4.276-3.2 7.808-7.346 8.353l.629 4.197c6.212-.882 10.988-6.199 10.988-12.626a12.65 12.65 0 00-1.368-5.739l-3.851 1.938a8.352 8.352 0 01.948 3.877zm-2.35-5.826l3.153-2.976a12.804 12.804 0 00-7.512-3.899l-.638 4.348a8.458 8.458 0 014.997 2.527z" fill="#fff"/><path d="M100.614 103.276l.99-.14-.14-.993-.992.143.142.99zm.617 4.372l.152.989.976-.151-.138-.977-.99.139zm-.002 16.652l.99.143.141-.98-.978-.151-.153.988zm-.607 4.222l-.142.99.989.141.142-.989-.989-.142zm3.034-4.195l-.13-.991-1.01.132.151 1.008.989-.149zm.629 4.197l-.988.148.147.981.982-.139-.141-.99zm9.62-18.365l.892-.453-.451-.889-.89.448.449.894zm-3.851 1.938l-.449-.893-.907.456.47.899.886-.462zm1.751-4.925l.686.727.727-.686-.685-.727-.728.686zm-3.153 2.976l-.721.693.686.714.721-.68-.686-.727zm-4.359-6.875l.141-.99-.986-.14-.144.985.989.145zm-.638 4.348l-.99-.145-.147 1.005 1.006.132.131-.992zm-3.183-5.335c-6.682.96-11.823 6.685-11.823 13.612h2c0-5.912 4.389-10.811 10.107-11.633l-.284-1.979zm1.749 5.223l-.617-4.373-1.98.279.616 4.373 1.981-.279zm-7.147 8.465c0-3.706 2.732-6.785 6.309-7.337l-.305-1.977c-4.53.699-8.004 4.599-8.004 9.314h2zm6.308 7.338c-3.577-.553-6.308-3.631-6.308-7.338h-2c0 4.715 3.473 8.614 8.003 9.314l.305-1.976zm.229 5.352l.608-4.221-1.98-.285-.607 4.221 1.979.285zm-12.962-12.766c0 6.93 5.145 12.657 11.831 13.614l.283-1.98c-5.722-.819-10.114-5.72-10.114-11.634h-2zm15.137 9.421c4.634-.609 8.216-4.557 8.216-9.345h-2c0 3.764-2.818 6.881-6.476 7.362l.26 1.983zm1.488 3.057l-.629-4.197-1.978.297.63 4.196 1.977-.296zm8.999-12.478c0 5.919-4.399 10.823-10.128 11.636l.281 1.98c6.694-.95 11.847-6.68 11.847-13.616h-2zm-1.259-5.287a11.659 11.659 0 011.259 5.287h2c0-2.225-.532-4.33-1.476-6.192l-1.783.905zm-2.51 2.379l3.851-1.938-.899-1.787-3.851 1.939.899 1.786zm1.498 2.984c0-1.563-.383-3.04-1.061-4.339l-1.773.924a7.371 7.371 0 01.834 3.415h2zm-.883-9.529l-3.154 2.975 1.373 1.455 3.153-2.976-1.372-1.454zm-6.967-2.182a11.802 11.802 0 016.925 3.595l1.456-1.372a13.808 13.808 0 00-8.099-4.203l-.282 1.98zm.492 3.504l.639-4.348-1.979-.291-.639 4.348 1.979.291zm4.728 1.687a9.453 9.453 0 00-5.587-2.824l-.261 1.983a7.457 7.457 0 014.407 2.228l1.441-1.387z" fill="#000" mask="url(#a)"/><path d="M120.445 110.007h27.92m-27.92 5.532h27.92m-27.92 5.538h14.602" stroke="#000" stroke-miterlimit="10"/><path fill="#000" d="M45.158 27.169h79.722v49.95H45.158z"/><path fill="#fff" stroke="#000" d="M48.544 30.542h78.722v51.23H48.544z"/><path d="M54.723 59.164l4.786-4.328 2.499 1.312h5.62l7.492-8.264 1.93 1.442 1.192 1.443h7.076c.07.262.458.341 1.457-1.443.999-1.784 5.827-6.514 8.117-8.657l3.746 4.985 4.579-1.574 4.995-3.41h2.914c1.248 0 1.873 1.18 2.913 1.049.833-.105 5.342-1.705 7.493-2.492" stroke="#000"/><path d="M56.126 65.165h27.92m-27.92 5.51h27.92" stroke="#000" stroke-miterlimit="10"/><mask id="b" fill="#fff"><path d="M106.519 59.173h21.25V82.28h-21.25V59.173z"/></mask><path d="M106.519 59.173h21.25V82.28h-21.25V59.173z" fill="#000"/><path d="M106.519 59.173v-1h-1v1h1zm21.25 0h1v-1h-1v1zm0 23.108v1h1v-1h-1zm-21.25 0h-1v1h1v-1zm0-22.108h21.25v-2h-21.25v2zm20.25-1V82.28h2V59.173h-2zm1 22.108h-21.25v2h21.25v-2zm-20.25 1V59.173h-2V82.28h2z" fill="#000" mask="url(#b)"/><mask id="c" fill="#fff"><path fill-rule="evenodd" clip-rule="evenodd" d="M143.795 62.034h-34.436v22.561h1.95v4.124l8.8-4.124h23.686v-22.56z"/></mask><path fill-rule="evenodd" clip-rule="evenodd" d="M143.795 62.034h-34.436v22.561h1.95v4.124l8.8-4.124h23.686v-22.56z" fill="#fff"/><path d="M109.359 62.034v-1h-1v1h1zm34.436 0h1v-1h-1v1zm-34.436 22.561h-1v1h1v-1zm1.95 0h1v-1h-1v1zm0 4.124h-1v1.574l1.425-.668-.425-.906zm8.8-4.124v-1h-.223l-.202.095.425.905zm23.686 0v1h1v-1h-1zm-34.436-21.56h34.436v-2h-34.436v2zm1 21.56v-22.56h-2v22.56h2zm.95-1h-1.95v2h1.95v-2zm1 5.124v-4.124h-2v4.124h2zm7.375-5.03l-8.799 4.125.849 1.81 8.799-4.123-.849-1.811zm24.111-.094h-23.686v2h23.686v-2zm-1-21.56v22.56h2v-22.56h-2z" fill="#000" mask="url(#c)"/><path d="M115.977 69.322h15.72m-15.72 4.169h15.72" stroke="#000" stroke-miterlimit="10"/><mask id="d" fill="#fff"><path fill-rule="evenodd" clip-rule="evenodd" d="M185.82 27.937a24.52 24.52 0 00-12.018-3.125c-13.555 0-24.544 10.94-24.544 24.434 0 13.495 10.989 24.434 24.544 24.434a24.52 24.52 0 0012.018-3.124v-7.49a18.467 18.467 0 01-12.109 4.496c-10.212 0-18.489-8.241-18.489-18.407 0-10.165 8.277-18.406 18.489-18.406 4.631 0 8.865 1.695 12.109 4.496v-7.308z"/></mask><path fill-rule="evenodd" clip-rule="evenodd" d="M185.82 27.937a24.52 24.52 0 00-12.018-3.125c-13.555 0-24.544 10.94-24.544 24.434 0 13.495 10.989 24.434 24.544 24.434a24.52 24.52 0 0012.018-3.124v-7.49a18.467 18.467 0 01-12.109 4.496c-10.212 0-18.489-8.241-18.489-18.407 0-10.165 8.277-18.406 18.489-18.406 4.631 0 8.865 1.695 12.109 4.496v-7.308z" fill="#000"/><path d="M185.82 27.937h1v-.586l-.512-.287-.488.873zm0 42.619l.488.872.512-.286v-.586h-1zm0-7.49h1V60.88l-1.654 1.428.654.757zm0-27.82l-.654.756 1.654 1.428v-2.185h-1zm.488-8.182a25.517 25.517 0 00-12.506-3.252v2a23.52 23.52 0 0111.529 2.997l.977-1.745zm-12.506-3.252c-14.103 0-25.544 11.383-25.544 25.434h2c0-12.938 10.537-23.434 23.544-23.434v-2zm-25.544 25.434c0 14.051 11.441 25.434 25.544 25.434v-2c-13.007 0-23.544-10.496-23.544-23.434h-2zm25.544 25.434c4.541 0 8.809-1.18 12.506-3.252l-.977-1.745a23.52 23.52 0 01-11.529 2.997v2zm13.018-4.124v-7.49h-2v7.49h2zm-13.109-1.994a19.46 19.46 0 0012.762-4.74l-1.307-1.513a17.465 17.465 0 01-11.455 4.253v2zm-19.489-19.407c0 10.722 8.729 19.407 19.489 19.407v-2c-9.664 0-17.489-7.798-17.489-17.407h-2zm19.489-19.406c-10.76 0-19.489 8.685-19.489 19.406h2c0-9.608 7.825-17.406 17.489-17.406v-2zm12.762 4.74a19.465 19.465 0 00-12.762-4.74v2a17.47 17.47 0 0111.455 4.253l1.307-1.514zm.347.756v-7.308h-2v7.308h2z" fill="#000" mask="url(#d)"/><path fill-rule="evenodd" clip-rule="evenodd" d="M197.358 88.328l-10.487-16.24 4.889-3.129 10.487 16.24-4.889 3.129z" fill="#fff" stroke="#000"/><mask id="e" fill="#fff"><path fill-rule="evenodd" clip-rule="evenodd" d="M176.654 75.206c13.555 0 24.544-10.939 24.544-24.433 0-13.495-10.989-24.434-24.544-24.434-13.556 0-24.545 10.94-24.545 24.434 0 13.494 10.989 24.433 24.545 24.433zm-.092-6.118c10.212 0 18.49-8.24 18.49-18.406 0-10.166-8.278-18.406-18.49-18.406-10.211 0-18.489 8.24-18.489 18.406 0 10.165 8.278 18.406 18.489 18.406z"/></mask><path fill-rule="evenodd" clip-rule="evenodd" d="M176.654 75.206c13.555 0 24.544-10.939 24.544-24.433 0-13.495-10.989-24.434-24.544-24.434-13.556 0-24.545 10.94-24.545 24.434 0 13.494 10.989 24.433 24.545 24.433zm-.092-6.118c10.212 0 18.49-8.24 18.49-18.406 0-10.166-8.278-18.406-18.49-18.406-10.211 0-18.489 8.24-18.489 18.406 0 10.165 8.278 18.406 18.489 18.406z" fill="#fff"/><path d="M200.198 50.773c0 12.938-10.537 23.433-23.544 23.433v2c14.103 0 25.544-11.382 25.544-25.433h-2zm-23.544-23.434c13.007 0 23.544 10.496 23.544 23.434h2c0-14.051-11.441-25.434-25.544-25.434v2zm-23.545 23.434c0-12.938 10.537-23.434 23.545-23.434v-2c-14.104 0-25.545 11.383-25.545 25.434h2zm23.545 23.433c-13.008 0-23.545-10.495-23.545-23.433h-2c0 14.05 11.441 25.433 25.545 25.433v-2zm17.398-23.524c0 9.609-7.826 17.406-17.49 17.406v2c10.76 0 19.49-8.684 19.49-19.406h-2zm-17.49-17.406c9.664 0 17.49 7.797 17.49 17.406h2c0-10.722-8.73-19.406-19.49-19.406v2zm-17.489 17.406c0-9.61 7.826-17.406 17.489-17.406v-2c-10.759 0-19.489 8.684-19.489 19.406h2zm17.489 17.406c-9.663 0-17.489-7.797-17.489-17.406h-2c0 10.722 8.73 19.406 19.489 19.406v-2z" fill="#000" mask="url(#e)"/></svg>