<svg width="204" height="159" fill="none" xmlns="http://www.w3.org/2000/svg"><path d="M160.241 119.164H.914l43.597 32.497h159.327l-43.597-32.497z" fill="#082C46"/><path d="M187.818 15.04H29.491v113.386h158.327V15.04z" fill="#E2F6FF" stroke="#000"/><path d="M187.818 15.477H29.491v-9.26a4.5 4.5 0 014.5-4.5h149.327a4.5 4.5 0 014.5 4.5v9.26z" fill="#E2F6FF" stroke="#000"/><path d="M39.632 9.875c.715 0 1.294-.572 1.294-1.278 0-.706-.58-1.279-1.294-1.279-.714 0-1.293.573-1.293 1.279s.579 1.278 1.293 1.278zm7.425 0c.714 0 1.293-.572 1.293-1.278 0-.706-.579-1.279-1.293-1.279s-1.293.573-1.293 1.279.579 1.278 1.293 1.278zm7.426 0c.714 0 1.293-.572 1.293-1.278 0-.706-.579-1.279-1.293-1.279s-1.293.573-1.293 1.279.579 1.278 1.293 1.278z" fill="#000" stroke="#000" stroke-miterlimit="10"/><path d="M61.188 51.731c0-8.836 7.163-16 16-16h10.628c8.836 0 16 7.164 16 16v10.134c0 8.836-7.164 16-16 16H77.187c-8.836 0-16-7.164-16-16V51.73z" fill="#000"/><path d="M64.094 54.605c0-8.837 7.163-16 16-16h10.628c8.837 0 16 7.163 16 16v10.133c0 8.836-7.163 16-16 16H80.094c-8.837 0-16-7.164-16-16V54.605z" fill="#fff"/><path d="M80.094 39.105h10.628v-1H80.094v1zm26.128 15.5v10.133h1V54.605h-1zm-15.5 25.633H80.094v1h10.628v-1zm-26.128-15.5V54.605h-1v10.133h1zm15.5 15.5c-8.56 0-15.5-6.94-15.5-15.5h-1c0 9.112 7.387 16.5 16.5 16.5v-1zm26.128-15.5c0 8.56-6.94 15.5-15.5 15.5v1c9.113 0 16.5-7.388 16.5-16.5h-1zm-15.5-25.633c8.56 0 15.5 6.94 15.5 15.5h1c0-9.113-7.387-16.5-16.5-16.5v1zm-10.628-1c-9.113 0-16.5 7.387-16.5 16.5h1c0-8.56 6.94-15.5 15.5-15.5v-1z" fill="#000"/><path fill-rule="evenodd" clip-rule="evenodd" d="M83.624 70.206v-10.21h-3.545v-3.979h3.545V53.08c0-3.404 2.145-5.257 5.278-5.257 1.5 0 2.79.106 3.166.155v3.56h-2.175c-1.7 0-2.03.79-2.03 1.944v2.538h4.06l-.526 3.988h-3.535v10.199h-4.238z" fill="#000"/><path d="M119.687 43.513a9.217 9.217 0 019.217-9.218h.217a9.218 9.218 0 010 18.435h-.217a9.217 9.217 0 01-9.217-9.217z" fill="#000"/><path d="M121.595 45.397a9.218 9.218 0 019.217-9.217h.217a9.217 9.217 0 019.217 9.217 9.217 9.217 0 01-9.217 9.218h-.217a9.218 9.218 0 01-9.217-9.218z" fill="#fff"/><path d="M130.812 36.68h.217v-1h-.217v1zm.217 17.435h-.217v1h.217v-1zm-.217 0a8.717 8.717 0 01-8.717-8.718h-1c0 5.367 4.35 9.718 9.717 9.718v-1zm8.934-8.718a8.717 8.717 0 01-8.717 8.718v1c5.367 0 9.717-4.35 9.717-9.718h-1zm-8.717-8.717a8.717 8.717 0 018.717 8.717h1a9.716 9.716 0 00-9.717-9.717v1zm-.217-1a9.716 9.716 0 00-9.717 9.717h1a8.717 8.717 0 018.717-8.717v-1z" fill="#000"/><path fill-rule="evenodd" clip-rule="evenodd" d="M136.826 42.246h-2.081a.474.474 0 00-.414.235s-.83 1.453-1.097 1.942c-.717 1.316-1.181.902-1.181.292v-2.106c0-.366-.313-.663-.698-.663h-1.565a1.28 1.28 0 00-1.107.488s.794-.122.794.895c0 .252.014.978.026 1.586a.438.438 0 01-.291.419.478.478 0 01-.514-.116 12.777 12.777 0 01-1.579-2.73.442.442 0 00-.399-.242h-1.891a.328.328 0 00-.265.13.29.29 0 00-.038.282c.574 1.496 3.047 6.197 5.87 6.197h1.188c.259 0 .469-.2.469-.445v-.682c0-.175.109-.333.278-.402a.48.48 0 01.499.083l1.422 1.27a.708.708 0 00.471.176h1.868c.9 0 .9-.593.409-1.053-.345-.323-1.592-1.572-1.592-1.572a.589.589 0 01-.05-.795 546.97 546.97 0 001.342-1.683c.382-.483 1.074-1.506.126-1.506zM28.99 105.515h10.387c8.836 0 16-7.163 16-16V79.382c0-8.837-7.164-16-16-16H28.989v42.133z" fill="#000"/><rect x="17.108" y="66.255" width="42.628" height="42.133" rx="16" fill="#fff" stroke="#000"/><path fill-rule="evenodd" clip-rule="evenodd" d="M49.83 78.681c1.255.326 2.245 1.278 2.583 2.487.628 2.207.604 6.807.604 6.807s0 4.578-.604 6.785c-.338 1.208-1.327 2.16-2.583 2.486-2.293.581-11.467.581-11.467.581s-9.15 0-11.466-.604c-1.256-.325-2.245-1.278-2.584-2.486-.603-2.184-.603-6.785-.603-6.785s0-4.577.603-6.784c.338-1.209 1.352-2.185 2.583-2.51 2.294-.58 11.467-.58 11.467-.58s9.174 0 11.467.603zm-6.138 9.267l-7.993 4.609V83.34l7.993 4.608zm144.625-51.546c-1.456-.436-3-.67-4.599-.67H173.09c-8.837 0-16 7.163-16 16v10.133c0 8.836 7.163 16 16 16h10.628a16.01 16.01 0 004.599-.671V36.402zm10.01 31.998a15.944 15.944 0 001.391-6.535V51.73c0-2.328-.497-4.54-1.391-6.535V68.4z" fill="#000"/><path d="M159.997 54.605c0-8.837 7.164-16 16-16h10.628c8.837 0 16 7.163 16 16v10.133c0 8.836-7.163 16-16 16h-10.628c-8.836 0-16-7.164-16-16V54.605z" fill="#fff"/><path d="M175.997 39.105h10.628v-1h-10.628v1zm26.128 15.5v10.133h1V54.605h-1zm-15.5 25.633h-10.628v1h10.628v-1zm-26.128-15.5V54.605h-1v10.133h1zm15.5 15.5c-8.56 0-15.5-6.94-15.5-15.5h-1c0 9.112 7.387 16.5 16.5 16.5v-1zm26.128-15.5c0 8.56-6.939 15.5-15.5 15.5v1c9.113 0 16.5-7.388 16.5-16.5h-1zm-15.5-25.633c8.561 0 15.5 6.94 15.5 15.5h1c0-9.113-7.387-16.5-16.5-16.5v1zm-10.628-1c-9.113 0-16.5 7.387-16.5 16.5h1c0-8.56 6.94-15.5 15.5-15.5v-1z" fill="#000"/><path fill-rule="evenodd" clip-rule="evenodd" d="M193.255 52.648c-.883.37-1.826.62-2.823.733 1.014-.577 1.794-1.488 2.161-2.573-.949.524-2.002.907-3.123 1.12a5.027 5.027 0 00-3.588-1.474c-2.714 0-4.916 2.083-4.916 4.647 0 .368.045.722.128 1.062-4.086-.184-7.709-2.04-10.133-4.845a4.372 4.372 0 00-.666 2.34c0 1.614.869 3.035 2.187 3.87a5.13 5.13 0 01-2.227-.581v.056c0 2.253 1.692 4.134 3.943 4.562a5.26 5.26 0 01-2.208.08c.628 1.846 2.44 3.19 4.597 3.23a10.217 10.217 0 01-6.095 1.988c-.389 0-.779-.021-1.169-.063a14.573 14.573 0 007.549 2.087c9.046 0 13.989-7.083 13.989-13.217 0-.198 0-.397-.016-.595a9.63 9.63 0 002.457-2.408l-.047-.019z" fill="#000"/><path d="M75.13 99.548a9.217 9.217 0 019.217-9.218h.217a9.217 9.217 0 110 18.435h-.217a9.218 9.218 0 01-9.217-9.217z" fill="#000"/><path d="M77.037 101.433a9.218 9.218 0 019.218-9.217h.216a9.218 9.218 0 110 18.435h-.216a9.218 9.218 0 01-9.218-9.218z" fill="#fff"/><path d="M86.255 92.716h.216v-1h-.216v1zm.216 17.435h-.216v1h.216v-1zm-.216 0a8.718 8.718 0 01-8.718-8.718h-1a9.717 9.717 0 009.718 9.718v-1zm8.934-8.718a8.718 8.718 0 01-8.718 8.718v1c5.367 0 9.718-4.351 9.718-9.718h-1zm-8.718-8.717a8.718 8.718 0 018.718 8.717h1c0-5.367-4.35-9.717-9.718-9.717v1zm-.216-1c-5.367 0-9.718 4.35-9.718 9.717h1a8.718 8.718 0 018.718-8.717v-1z" fill="#000"/><path fill-rule="evenodd" clip-rule="evenodd" d="M84.65 103.102l3.888 2.821c.444.241.764.116.875-.404l1.582-7.324c.163-.638-.247-.928-.672-.738l-9.293 3.519c-.635.249-.63.597-.116.752l2.385.731 5.521-3.42c.261-.156.5-.072.304.099" fill="#000"/><rect x="110.104" y="63.382" width="42.628" height="42.133" rx="16" fill="#000"/><rect x="113.011" y="66.255" width="42.628" height="42.133" rx="16" fill="#fff" stroke="#000"/><path fill-rule="evenodd" clip-rule="evenodd" d="M128.356 74.154h11.938c4.054 0 7.353 3.26 7.353 7.267v11.8c0 4.007-3.299 7.267-7.353 7.267h-11.938c-4.054 0-7.352-3.26-7.352-7.267v-11.8c0-4.007 3.298-7.267 7.352-7.267zm11.936 23.995c2.751 0 4.989-2.212 4.989-4.93h-.001v-11.8c0-2.719-2.238-4.93-4.988-4.93h-11.938c-2.751 0-4.989 2.211-4.989 4.93v11.8c0 2.718 2.238 4.93 4.989 4.93h11.938z" fill="#000"/><path fill-rule="evenodd" clip-rule="evenodd" d="M127.663 87.319c0-3.63 2.988-6.584 6.661-6.584 3.673 0 6.66 2.954 6.66 6.584 0 3.63-2.987 6.583-6.66 6.583s-6.661-2.953-6.661-6.583zm2.294 0c0 2.38 1.959 4.316 4.367 4.316s4.367-1.936 4.367-4.316-1.959-4.317-4.367-4.317-4.367 1.937-4.367 4.317z" fill="#000"/><path d="M141.651 78.105a2.02 2.02 0 00-1.412.578 1.976 1.976 0 00-.587 1.396c0 .52.215 1.03.587 1.397.371.367.887.579 1.412.579a2.03 2.03 0 001.413-.579 1.98 1.98 0 00.585-1.397c0-.52-.213-1.03-.585-1.396a2.02 2.02 0 00-1.413-.579z" fill="#000"/></svg>