<svg width="203" height="159" fill="none" xmlns="http://www.w3.org/2000/svg"><path d="M155.596 118.838H.628l42.404 32.497H198l-42.404-32.497z" fill="#082C46"/><path d="M182.404 14.714H28.437V128.1h153.967V14.714z" fill="#E2F6FF" stroke="#000"/><path d="M182.404 15.15H28.437V5.89a4.5 4.5 0 014.5-4.5h144.967a4.5 4.5 0 014.5 4.5v9.26z" fill="#E2F6FF" stroke="#000"/><path d="M38.287 9.549c.695 0 1.258-.572 1.258-1.278 0-.706-.563-1.279-1.258-1.279-.694 0-1.258.573-1.258 1.279s.563 1.278 1.258 1.278zm7.222 0c.695 0 1.258-.572 1.258-1.278 0-.706-.563-1.279-1.258-1.279-.695 0-1.258.573-1.258 1.279s.563 1.278 1.258 1.278zm7.223 0c.694 0 1.258-.572 1.258-1.278a1.27 1.27 0 00-1.258-1.279c-.695 0-1.258.573-1.258 1.279s.563 1.278 1.258 1.278z" fill="#000" stroke="#000" stroke-miterlimit="10"/><path fill-rule="evenodd" clip-rule="evenodd" d="M182.904 46.744v35.962h-8.511V93.25l-.124-.101v.101H50.015v-.307l-9.708-10.237h-12.27V46.744h12.24v-.032l.03.032h.093v.098l9.81 8.909v.1h111.07v-9.107h.218v-.037l.045.037h21.362z" fill="#000"/><path d="M15.085 91.593h30.177V52.027a.5.5 0 00-.5-.5H15.085l6.437 19.879.05.154-.05.154-6.437 19.879zm186.825 0h-34.608V51.527h34.608l-7.346 19.86-.064.173.064.173 7.346 19.86z" fill="#fff" stroke="#000"/><path d="M167.503 51.97v28.331l6.64 4.76c1.654 1.186 3.956.004 3.956-2.031V60.85a2.5 2.5 0 00-1.043-2.031l-9.553-6.85zM55.363 99.422V59.614L45.06 51.991v39.808l10.304 7.623z" fill="#fff" stroke="#000"/><rect x=".5" y="-.5" width="123.254" height="39.757" rx=".5" transform="matrix(1 0 0 -1 54.334 99.413)" fill="#fff" stroke="#000"/><path d="M83.936 86.347h-9.018V73.829h8.744c1.512 0 2.683.313 3.513.938.847.614 1.27 1.364 1.27 2.252 0 .764-.273 1.402-.821 1.915-.549.513-1.23.832-2.043.957.897.1 1.652.444 2.267 1.032.614.588.921 1.27.921 2.046 0 .975-.423 1.782-1.27 2.42-.847.639-2.035.958-3.563.958zM82.89 78.84c.598 0 1.071-.125 1.42-.376.349-.25.523-.575.523-.975s-.183-.726-.548-.976c-.349-.263-.814-.394-1.395-.394h-4.434v2.72h4.434zm.125 5.198c.664 0 1.187-.125 1.57-.375.381-.263.572-.62.572-1.07 0-.413-.19-.757-.573-1.032-.382-.288-.905-.432-1.57-.432h-4.558v2.91h4.559zm21.875 2.309h-4.061l-3.263-4.448h-2.591v4.448h-3.538V73.829h7.773c1.711 0 3.064.375 4.061 1.126 1.013.75 1.519 1.72 1.519 2.909 0 1.026-.357 1.858-1.071 2.496-.697.638-1.553 1.045-2.566 1.22l3.737 4.767zm-6.203-6.794c.73 0 1.329-.15 1.794-.45.465-.313.697-.726.697-1.239 0-.513-.232-.92-.697-1.22-.465-.313-1.063-.47-1.794-.47h-3.712v3.379h3.712zm24.254 6.794h-4.036l-1.021-2.121h-7.125l-1.046 2.12h-4.036l6.427-12.517h4.435l6.402 12.518zm-6.029-4.467l-2.59-5.386-2.591 5.386h5.181zm22.437 4.467h-3.413l-7.923-8.164v8.163h-3.537V73.83h3.637l7.698 7.863V73.83h3.538v12.518zm9.828 0h-6.552V73.829h6.552c2.608 0 4.725.576 6.353 1.727 1.644 1.15 2.466 2.665 2.466 4.541 0 1.877-.814 3.39-2.441 4.542-1.628 1.138-3.754 1.708-6.378 1.708zm0-2.346c1.595 0 2.857-.376 3.787-1.126.947-.751 1.42-1.677 1.42-2.778 0-1.15-.457-2.09-1.37-2.815-.914-.738-2.193-1.107-3.837-1.107h-3.014V84h3.014z" fill="#000"/><path fill="#E2F6FF" stroke="#000" d="M65.954 33.157h79.048v10.421H65.954z"/><path d="M74.558 40.969h-1.43l-1.08-3.54-1.08 3.54h-1.44l-1.556-5.197h1.397l.953 3.497 1.123-3.497h1.196l1.123 3.497.953-3.497h1.398l-1.557 5.197z" fill="#000"/><path d="M82.696 40.969h-1.43l-1.08-3.54-1.08 3.54h-1.44l-1.556-5.197h1.397l.953 3.497 1.123-3.497h1.196l1.123 3.497.953-3.497h1.398l-1.557 5.197z" fill="#000"/><path d="M90.834 40.969h-1.43l-1.08-3.54-1.08 3.54h-1.44l-1.556-5.197h1.398l.953 3.497 1.122-3.497h1.197l1.122 3.497.953-3.497h1.398l-1.557 5.197z" fill="#000"/></svg>