<svg width="203" height="159" fill="none" xmlns="http://www.w3.org/2000/svg"><path d="M158.817 118.838H.628l43.286 32.497h158.189l-43.286-32.497z" fill="#082C46"/><path d="M186.193 14.714H29.005V128.1h157.188V14.714z" fill="#E2F6FF" stroke="#000"/><path d="M186.193 15.15H29.005V5.89a4.5 4.5 0 014.5-4.5h148.188a4.5 4.5 0 014.5 4.5v9.26z" fill="#E2F6FF" stroke="#000"/><path d="M39.07 9.549a1.28 1.28 0 001.284-1.278c0-.706-.575-1.279-1.284-1.279-.709 0-1.284.573-1.284 1.279s.575 1.278 1.284 1.278zm7.372 0c.71 0 1.285-.572 1.285-1.278 0-.706-.575-1.279-1.285-1.279-.709 0-1.284.573-1.284 1.279s.575 1.278 1.284 1.278zm7.372 0c.71 0 1.285-.572 1.285-1.278 0-.706-.575-1.279-1.285-1.279-.709 0-1.284.573-1.284 1.279s.575 1.278 1.284 1.278z" fill="#000" stroke="#000" stroke-miterlimit="10"/><path fill="#000" d="M43.559 30.194h54.204v51.863H43.559z"/><path fill="#fff" stroke="#000" d="M46.944 33.567h53.204V84.43H46.944z"/><path fill="#000" d="M61.448 59.915h99.63v65.813h-99.63z"/><path fill="#fff" stroke="#000" d="M64.832 63.288h98.63v64.813h-98.63z"/><path fill="#fff" stroke="#000" d="M64.833 63.287h15.418V128.1H64.833z"/><path d="M93.569 80.387l-6.736-2.992v-1.368l6.736-3.007v1.413l-5.362 2.285 5.362 2.256v1.413zm5.69 1.653h-1.39l3.58-10.629h1.389l-3.579 10.63zm14.619-4.645l-6.736 2.992v-1.413l5.361-2.256-5.361-2.285V73.02l6.736 3.007v1.368z" fill="#000"/><path d="M86.23 89.95h44.324M86.23 95.447h27.165m-27.165 5.824h10.492" stroke="#000" stroke-miterlimit="10"/><path fill="#000" stroke="#000" d="M105.211 106.188h65.814v21.913h-65.814z"/><path fill="#fff" stroke="#000" d="M108.097 109.061h65.814v27.905h-65.814z"/><path d="M122.04 126.979c-1.326 0-2.435-.417-3.325-1.251-.882-.843-1.322-1.925-1.322-3.245 0-1.321.44-2.398 1.322-3.232.89-.843 1.999-1.265 3.325-1.265 1.632 0 2.85.708 3.653 2.125l-1.597.782a2.342 2.342 0 00-.851-.9 2.137 2.137 0 00-1.205-.365c-.794 0-1.449.27-1.964.809-.515.538-.772 1.22-.772 2.046 0 .825.257 1.507.772 2.046.515.539 1.17.808 1.964.808.437 0 .838-.117 1.205-.352.375-.235.659-.539.851-.912l1.597.769c-.829 1.425-2.047 2.137-3.653 2.137zm10.088-.951c-.611.634-1.423.951-2.435.951-1.013 0-1.824-.317-2.435-.951-.603-.643-.904-1.43-.904-2.359 0-.93.301-1.712.904-2.346.611-.634 1.422-.952 2.435-.952 1.012 0 1.824.318 2.435.952.611.634.916 1.416.916 2.346 0 .929-.305 1.716-.916 2.359zm-3.613-1.043c.288.348.68.521 1.178.521.497 0 .89-.173 1.178-.521.297-.356.445-.795.445-1.316 0-.513-.148-.943-.445-1.291-.288-.356-.681-.534-1.178-.534-.498 0-.89.178-1.178.534-.288.348-.433.778-.433 1.291 0 .521.145.96.433 1.316zm11.694 1.838h-1.663v-3.806c0-.782-.389-1.173-1.165-1.173-.603 0-1.083.248-1.44.743v4.236h-1.663v-6.295h1.663v.821c.549-.652 1.287-.978 2.212-.978.681 0 1.191.178 1.532.535.349.356.524.847.524 1.472v4.445zm3.771.156c-.584 0-1.03-.148-1.335-.443-.305-.295-.458-.721-.458-1.277v-3.285h-1.048v-1.446h1.048v-1.721h1.676v1.721h1.283v1.446h-1.283v2.842c0 .199.052.365.157.495a.51.51 0 00.419.195c.261 0 .453-.06.576-.182l.353 1.251c-.305.269-.768.404-1.388.404zm5.275 0c-.978 0-1.785-.304-2.422-.912-.637-.608-.956-1.408-.956-2.398 0-.93.306-1.712.917-2.346.619-.634 1.405-.952 2.356-.952.943 0 1.707.322 2.291.965.585.634.878 1.468.878 2.502v.365h-4.7c.052.417.24.765.562 1.043.323.278.742.417 1.257.417.28 0 .581-.057.904-.17.331-.113.593-.265.785-.456l.733 1.069c-.637.582-1.505.873-2.605.873zm1.453-3.897a1.572 1.572 0 00-.432-.964c-.253-.287-.628-.43-1.126-.43-.471 0-.838.143-1.099.43a1.666 1.666 0 00-.459.964h3.116zm8.742 3.741h-1.662v-3.806c0-.782-.389-1.173-1.166-1.173-.602 0-1.082.248-1.44.743v4.236h-1.662v-6.295h1.662v.821c.55-.652 1.288-.978 2.213-.978.681 0 1.191.178 1.532.535.349.356.523.847.523 1.472v4.445zm3.772.156c-.585 0-1.03-.148-1.335-.443-.306-.295-.459-.721-.459-1.277v-3.285h-1.047v-1.446h1.047v-1.721h1.676v1.721h1.283v1.446h-1.283v2.842a.77.77 0 00.157.495c.105.13.245.195.419.195.262 0 .454-.06.576-.182l.354 1.251c-.306.269-.768.404-1.388.404zm-15.541-86.881h39.045v31.067h-39.045z" fill="#000"/><path fill="#fff" stroke="#000" d="M151.066 43.471h50.415v30.067h-50.415z"/><ellipse cx="167.614" cy="58.505" rx="1.797" ry="1.789" fill="#000"/><ellipse cx="176.271" cy="58.505" rx="1.797" ry="1.789" fill="#000"/><ellipse cx="184.928" cy="58.505" rx="1.797" ry="1.789" fill="#000"/><path d="M83.248 43.79l3.015-1.796a5.891 5.891 0 016.029 0v0a5.891 5.891 0 006.03 0v0a5.89 5.89 0 016.028 0v0a5.89 5.89 0 006.029 0l3.015-1.796M83.248 50.253l3.015-1.795a5.891 5.891 0 016.029 0v0a5.891 5.891 0 006.03 0v0a5.89 5.89 0 016.028 0v0a5.89 5.89 0 006.029 0l3.015-1.796M83.248 56.717l3.015-1.796a5.891 5.891 0 016.029 0v0a5.891 5.891 0 006.03 0v0a5.89 5.89 0 016.028 0v0a5.89 5.89 0 006.029 0l3.015-1.795" stroke="#000"/></svg>