<svg width="41" height="41" fill="none" xmlns="http://www.w3.org/2000/svg"><path d="M14.277 3.593l-.34.941.34-.94a2 2 0 00-2.531 1.127l-1.06 2.603-2.803.203a2 2 0 00-1.854 2.06l.09 2.808-2.478 1.326a2 2 0 00-.856 2.636l1.226 2.529-1.725 2.219.79.614-.79-.614a2 2 0 00.29 2.756l2.148 1.812-.673 2.729a2 2 0 001.386 2.4l2.7.781.494 2.767a2 2 0 002.242 1.629l2.785-.384 1.577 2.326a2 2 0 002.71.576l2.388-1.483 2.387 1.483a2 2 0 002.71-.576l1.578-2.326 2.785.384a2 2 0 002.242-1.63l.495-2.766 2.7-.781a2 2 0 001.385-2.4l-.673-2.729 2.148-1.812a2 2 0 00.29-2.756l-1.725-2.219 1.226-2.53a2 2 0 00-.857-2.635l-2.478-1.326.091-2.809a2 2 0 00-1.854-2.06l-2.803-.202-1.06-2.603a2 2 0 00-2.531-1.128l-2.644.955L21.72 2.6a2 2 0 00-2.772 0l-2.026 1.947-2.644-.955z" stroke="#0089C4" stroke-width="2"/><path d="M13.7 18.453l6.147 5.769 8.65-10.018" stroke="#FFE259" stroke-width="3"/></svg>