<svg width="41" height="41" fill="none" xmlns="http://www.w3.org/2000/svg"><g clip-path="url(#clip0)"><path d="M21.5 5.932v32m-5-28l5-5 5 5" stroke="#0089C4" stroke-width="2"/><path d="M39.5 21.932c0 .555-.439 1.29-1.667 1.946-1.186.632-2.893 1.054-4.833 1.054-1.94 0-3.647-.422-4.833-1.054-1.228-.656-1.667-1.39-1.667-1.946s.439-1.291 1.667-1.946c1.186-.633 2.893-1.054 4.833-1.054 1.94 0 3.647.421 4.833 1.054 1.228.655 1.667 1.39 1.667 1.946z" stroke="#FFE259" stroke-width="2"/><path d="M26.5 21.932v4c0 1.656 2.91 3 6.5 3s6.5-1.344 6.5-3v-4" stroke="#FFE259" stroke-width="2"/><path d="M26.5 25.932v4c0 1.656 2.91 3 6.5 3s6.5-1.344 6.5-3v-4" stroke="#FFE259" stroke-width="2"/><path d="M26.5 29.932v4c0 1.656 2.91 3 6.5 3s6.5-1.344 6.5-3v-4" stroke="#FFE259" stroke-width="2"/><path d="M12.076 28.965l-.622-.784-.449.357.081.568.99-.142zm-5.152 0l.99.14.08-.567-.448-.357-.622.784zm-.292 2.042l.351.936.555-.208.084-.587-.99-.14zM1.5 32.932l-.351-.937-.649.244v.693h1zm0 4h-1v1h1v-1zm16 0v1h1v-1h-1zm0-4h1v-.693l-.649-.244-.351.937zm-5.132-1.925l-.99.141.084.587.555.208.35-.936zm1.132-7.034c0 1.526-.83 3.242-2.046 4.208l1.244 1.566c1.689-1.34 2.802-3.631 2.802-5.774h-2zm-4-4.041c2.201 0 4 1.801 4 4.041h2c0-3.329-2.678-6.041-6-6.041v2zm-4 4.041c0-2.24 1.799-4.041 4-4.041v-2c-3.322 0-6 2.712-6 6.041h2zm2.046 4.208C6.33 27.215 5.5 25.5 5.5 23.973h-2c0 2.143 1.113 4.433 2.802 5.774l1.244-1.566zm-1.612.642l-.292 2.043 1.98.282.292-2.042-1.98-.283zm.347 1.248l-5.132 1.924.702 1.873 5.132-1.925-.702-1.872zM.5 32.93v4h2v-4h-2zm1 5h16v-2h-16v2zm17-1v-4h-2v4h2zm-.649-4.936l-5.132-1.924-.702 1.872 5.132 1.925.702-1.873zm-4.493-1.13l-.292-2.042-1.98.283.292 2.042 1.98-.282z" fill="#FFE259"/></g><defs><clipPath id="clip0"><path fill="#fff" transform="translate(.5 .932)" d="M0 0h40v40H0z"/></clipPath></defs></svg>