<svg width="51" height="46" fill="none" xmlns="http://www.w3.org/2000/svg"><path d="M9.027 4.328a3.5 3.5 0 013.5-3.5h33.944a3.5 3.5 0 013.5 3.5v32.224H9.027V4.328z" fill="#E2F6FF" stroke="#082C46"/><path d="M9.027 4.328a3.5 3.5 0 013.5-3.5h33.944a3.5 3.5 0 013.5 3.5v2.16H9.027v-2.16z" fill="#fff" stroke="#082C46"/><path fill-rule="evenodd" clip-rule="evenodd" d="M33.381 13.132l-1.703-1.626-.472-.45-20.126 8.805-3.19 11.231 3.07 2.93 2.49 2.377 1.11 1.059 11.259-3.53 7.562-20.796z" fill="#082C46"/><circle cx="19.763" cy="25.276" r="2.921" transform="rotate(43.663 19.763 25.276)" fill="#fff"/><path fill="#082C46" stroke="#082C46" d="M8.266 30.532l6.85 6.537-3.779 3.959-6.849-6.537z"/><path d="M32.54 11.893L21.642 23.409" stroke="#E2F6FF" stroke-width="2"/></svg>