<svg width="37" height="48" fill="none" xmlns="http://www.w3.org/2000/svg"><path d="M.517 7.13a.5.5 0 01.356-.478l17.626-5.3 17.626 5.3a.5.5 0 01.356.478v14.926c0 9.42-5.307 18.036-13.718 22.274l-1.89.953a5.276 5.276 0 01-4.748 0l-1.89-.953A24.942 24.942 0 01.517 22.056V7.13z" fill="#E2F6FF" stroke="#082C46"/><mask id="a" fill="#fff"><path fill-rule="evenodd" clip-rule="evenodd" d="M.729 6.173a1 1 0 00-.712.957v4.257L18.499 5.83l18.482 5.557V7.13a1 1 0 00-.712-.957L18.499.83.729 6.173z"/></mask><path fill-rule="evenodd" clip-rule="evenodd" d="M.729 6.173a1 1 0 00-.712.957v4.257L18.499 5.83l18.482 5.557V7.13a1 1 0 00-.712-.957L18.499.83.729 6.173z" fill="#fff"/><path d="M.729 6.173l.288.957-.288-.957zm-.712 5.214h-1v1.345l1.288-.387-.288-.958zM18.499 5.83l.288-.958-.288-.086-.288.086.288.958zm18.482 5.557l-.288.958 1.288.387v-1.345h-1zm-.712-5.214l-.288.957.288-.957zM18.499.83l.288-.958-.288-.086-.288.086.288.958zM1.017 7.13L.44 5.215A2 2 0 00-.983 7.13h2zm0 4.257V7.13h-2v4.257h2zm-.712.957l18.482-5.556-.576-1.916L-.271 10.43l.576 1.915zM18.21 6.788l18.482 5.557.576-1.916-18.482-5.557-.576 1.916zm17.77.342v4.257h2V7.13h-2zm0 0h2a2 2 0 00-1.424-1.915L35.98 7.13zM18.21 1.788L35.98 7.13l.576-1.915-17.77-5.343-.576 1.916zM1.017 7.13l17.77-5.342-.576-1.916L.44 5.215l.576 1.915z" fill="#082C46" mask="url(#a)"/><path fill-rule="evenodd" clip-rule="evenodd" d="M27.827 20.043L17.184 31.226l-7.301-6.118 2.569-3.066 4.423 3.706 8.055-8.463 2.897 2.758z" fill="#082C46" stroke="#082C46"/></svg>