<svg width="63" height="63" fill="none" xmlns="http://www.w3.org/2000/svg"><rect x=".214" y=".847" width="61.826" height="61.826" rx="18" fill="#FFE259"/><path d="M25.627 41.26l5.472-2.65a2 2 0 001.128-1.8v-1.57c0-.581-.255-1.135-.61-1.595-.78-1.01-2.03-3.169-2.03-6.624 0-7.305 7.04-7.761 7.04-7.761" stroke="#082C46" stroke-width="2"/><path d="M19.127 38.76l3.191-1.545a1.788 1.788 0 001.009-1.61v0c0-.535-.244-1.041-.588-1.452-.651-.777-1.612-2.281-1.612-4.393 0-3.196 2.2-5.5 5-5.5s3.5 1.5 3.5 1.5" stroke="#082C46" stroke-width="2"/><circle cx="28.127" cy="28.76" r="13" stroke="#082C46" stroke-width="2"/><path d="M35.127 38.76l8.586 8.586a2 2 0 002.828 0l.172-.172a2 2 0 000-2.828l-8.586-8.586m3 4l-2 2" stroke="#082C46" stroke-width="2"/></svg>