<svg width="98" height="19" fill="none" xmlns="http://www.w3.org/2000/svg"><path d="M8.755.673l1.959 6.03h6.34l-5.13 3.726 1.96 6.03-5.129-3.727-5.129 3.726 1.96-6.03-5.13-3.725h6.34L8.755.673zm20 0l1.959 6.03h6.34l-5.13 3.726 1.96 6.03-5.129-3.727-5.129 3.726 1.96-6.03-5.13-3.725h6.34l1.959-6.03zm20 0l1.959 6.03h6.34l-5.13 3.726 1.96 6.03-5.129-3.727-5.129 3.726 1.96-6.03-5.13-3.725h6.34l1.959-6.03zm20 0l1.959 6.03h6.34l-5.13 3.726 1.96 6.03-5.129-3.727-5.129 3.726 1.96-6.03-5.13-3.725h6.34l1.959-6.03zm20 0l1.959 6.03h6.34l-5.13 3.726 1.96 6.03-5.129-3.727-5.129 3.726 1.96-6.03-5.13-3.725h6.34l1.959-6.03z" fill="#FFE259"/></svg>