<svg width="41" height="41" fill="none" xmlns="http://www.w3.org/2000/svg"><g clip-path="url(#clip0)"><path d="M20.628 21.964l.347-.937-.347-.129-.347.129.347.937zm-9 3.334l-.347-.938-.653.242v.696h1zm18 0h1v-.696l-.653-.242-.347.938zm0 3.444l.555.832.445-.297v-.535h-1zm-18 0h-1v.535l.445.297.555-.832zm13-13.5c0 1.293-.484 2.715-1.273 3.802-.798 1.098-1.783 1.698-2.727 1.698v2c1.817 0 3.333-1.13 4.345-2.523 1.02-1.404 1.655-3.232 1.655-4.977h-2zm-4-4.5c2.122 0 4 1.923 4 4.5h2c0-3.498-2.599-6.5-6-6.5v2zm-4 4.5c0-2.577 1.878-4.5 4-4.5v-2c-3.401 0-6 3.002-6 6.5h2zm4 5.5c-.944 0-1.929-.6-2.727-1.698-.79-1.087-1.273-2.509-1.273-3.802h-2c0 1.745.635 3.573 1.655 4.977 1.012 1.393 2.527 2.523 4.345 2.523v-2zm-.347.285l-9 3.333.694 1.875 9-3.333-.694-1.875zm9.694 3.333l-9-3.333-.694 1.875 9 3.333.694-1.875zm.653 4.382v-3.444h-2v3.444h2zm-10 3c3.113 0 5.47-.519 7.066-1.051a13.941 13.941 0 001.819-.742 8.535 8.535 0 00.649-.361l.012-.008.005-.003.002-.002c.001 0 .002 0-.553-.833l-.554-.832.002-.002h.001l-.014.009-.08.047a6.505 6.505 0 01-.365.196c-.335.168-.854.4-1.556.634-1.404.467-3.547.948-6.434.948v2zm-9-3c-.555.832-.554.832-.554.833.002 0 .002.001.003.002l.005.003.012.008.04.025.13.079c.112.065.272.153.48.257a13.95 13.95 0 001.818.742c1.596.532 3.953 1.051 7.066 1.051v-2c-2.887 0-5.03-.48-6.434-.948a11.966 11.966 0 01-1.556-.634 6.542 6.542 0 01-.445-.243l-.014-.01.001.002h.001c.001 0 .002.001-.553.833zm-1-3.444v3.444h2v-3.444h-2z" fill="#FFE259"/><circle cx="20.628" cy="20.742" r="16" stroke="#0089C4" stroke-width="2"/><path d="M20.628.742v4m0 32v4m20-20h-4m-32 0h-4" stroke="#0089C4" stroke-width="2"/></g><defs><clipPath id="clip0"><path fill="#fff" transform="translate(.628 .742)" d="M0 0h40v40H0z"/></clipPath></defs></svg>