<svg width="41" height="41" fill="none" xmlns="http://www.w3.org/2000/svg"><path d="M20.628 36.742c-8.837 0-16-7.163-16-16 0-8.836 7.163-16 16-16" stroke="#0089C4" stroke-width="2"/><path d="M20.628 36.742c8.837 0 16-7.163 16-16 0-8.836-7.163-16-16-16" stroke="url(#paint0_linear)" stroke-width="2"/><path d="M13.685 24.911c-1.3 0-2.396-.416-3.29-1.248-.883-.832-1.325-1.915-1.325-3.25 0-1.343.442-2.427 1.326-3.25.893-.823 1.989-1.235 3.289-1.235 1.577 0 2.773.646 3.588 1.937l-1.534.832a2.402 2.402 0 00-.858-.806 2.251 2.251 0 00-1.196-.325c-.789 0-1.439.269-1.95.806-.511.538-.767 1.218-.767 2.041s.256 1.504.767 2.041c.511.537 1.161.806 1.95.806.364 0 .715-.065 1.053-.195.338-.13.602-.286.793-.468v-1.04h-2.288v-1.612h4.134v3.328c-.98 1.092-2.21 1.638-3.692 1.638zm5.885.091h-1.196l3.081-9.19h1.196l-3.08 9.19zm8.595-.26h-1.846v-3.549l-3.341-5.122h2.106l2.158 3.484 2.132-3.484h2.106l-3.315 5.122v3.55z" fill="#FFE259"/><defs><linearGradient id="paint0_linear" x1="28.628" y1="6.242" x2="28.628" y2="36.742" gradientUnits="userSpaceOnUse"><stop stop-color="#0089C4"/><stop offset="1" stop-color="#0089C4" stop-opacity=".15"/></linearGradient></defs></svg>