<svg width="62" height="62" fill="none" xmlns="http://www.w3.org/2000/svg"><rect x=".7" y=".115" width="60.938" height="60.938" rx="30.469" fill="#F5F8FA"/><path d="M25.83 26.81l4.824-1.987.679-.243c.978.469 2.958 1.421 3.055 1.48.097.057 1.576.767 2.304 1.115l-1.188 1.624-.606 2.037-2.765.582h-2.182l-2.546-.824-.68-1.795-.896-1.988z" fill="#FFE259"/><path d="M31.169 24.32c2.455 0 4.444-3.097 4.444-5.815 0-2.718-1.99-4.921-4.444-4.921-2.455 0-4.445 2.203-4.445 4.921 0 2.718 1.99 5.816 4.445 5.816z" fill="#FFE259" stroke="#082C46"/><path fill-rule="evenodd" clip-rule="evenodd" d="M40.169 37.584c2.761 0 5-3.462 5-6.5s-2.239-5.5-5-5.5-5 2.462-5 5.5 2.239 6.5 5 6.5zm-9 3.555l9-3.333 9 3.334v3.444s-3 2-9 2-9-2-9-2v-3.445z" fill="#E2F6FF"/><path d="M40.169 37.806l.174-.469-.174-.064-.174.064.174.47zm-9 3.334l-.174-.47-.326.121v.349h.5zm18 0h.5v-.349l-.326-.12-.174.468zm0 3.444l.277.416.223-.148v-.268h-.5zm-18 0h-.5v.268l.223.148.277-.416zm13.5-13.5c0 1.406-.522 2.93-1.369 4.095-.851 1.172-1.969 1.905-3.131 1.905v1c1.6 0 2.982-.998 3.94-2.317.962-1.325 1.56-3.051 1.56-4.683h-1zm-4.5-5c2.441 0 4.5 2.193 4.5 5h1c0-3.268-2.419-6-5.5-6v1zm-4.5 5c0-2.807 2.058-5 4.5-5v-1c-3.081 0-5.5 2.732-5.5 6h1zm4.5 6c-1.162 0-2.28-.733-3.131-1.905-.847-1.166-1.37-2.69-1.37-4.095h-1c0 1.632.598 3.358 1.56 4.683.96 1.319 2.342 2.317 3.94 2.317v-1zm-.174.253l-9 3.334.348.937 9-3.333-.348-.938zm9.348 3.334l-9-3.334-.348.938 9 3.333.348-.937zm.326 3.913v-3.445h-1v3.445h1zm-9.5 2.5c3.056 0 5.36-.51 6.908-1.026a13.452 13.452 0 001.753-.714 7.999 7.999 0 00.601-.334l.01-.006a.043.043 0 01.003-.003h.001c.001 0 .001-.001-.276-.417a65.785 65.785 0 01-.277-.416l-.003.002-.02.012-.093.056c-.084.05-.216.123-.393.211-.355.178-.896.419-1.622.66-1.452.485-3.649.975-6.592.975v1zm-9-2.5l-.277.416.002.001.003.003.01.006.032.02a7.999 7.999 0 00.569.313c.395.198.98.457 1.753.715 1.548.516 3.851 1.026 6.908 1.026v-1c-2.944 0-5.14-.49-6.592-.974a12.443 12.443 0 01-1.622-.66 6.976 6.976 0 01-.51-.283h.001l-.277.417zm-.5-3.445v3.445h1v-3.445h-1z" fill="#0089C4"/><path fill-rule="evenodd" clip-rule="evenodd" d="M22.169 37.584c2.761 0 5-3.462 5-6.5s-2.239-5.5-5-5.5c-2.762 0-5 2.462-5 5.5s2.238 6.5 5 6.5zm-9 3.555l9-3.333 9 3.334v3.444s-4 2-9 2-9-2-9-2v-3.445z" fill="#fff"/><path d="M22.169 37.806l.174-.469-.174-.064-.174.064.174.47zm-9 3.334l-.174-.47-.326.121v.349h.5zm18 0h.5v-.349l-.326-.12-.174.468zm0 3.444l.224.447.276-.138v-.309h-.5zm-18 0h-.5v.309l.276.138.224-.447zm13.5-13.5c0 1.406-.522 2.93-1.369 4.095-.851 1.172-1.969 1.905-3.131 1.905v1c1.6 0 2.982-.998 3.94-2.317.962-1.325 1.56-3.051 1.56-4.683h-1zm-4.5-5c2.441 0 4.5 2.193 4.5 5h1c0-3.268-2.419-6-5.5-6v1zm-4.5 5c0-2.807 2.058-5 4.5-5v-1c-3.081 0-5.5 2.732-5.5 6h1zm4.5 6c-1.162 0-2.28-.733-3.131-1.905-.847-1.166-1.37-2.69-1.37-4.095h-1c0 1.632.598 3.358 1.56 4.683.96 1.319 2.342 2.317 3.94 2.317v-1zm-.174.253l-9 3.334.348.937 9-3.333-.348-.938zm9.348 3.334l-9-3.334-.348.938 9 3.333.348-.937zm.326 3.913v-3.445h-1v3.445h1zm-9.5 2.5c2.564 0 4.865-.512 6.522-1.022.83-.255 1.5-.51 1.966-.703a15.415 15.415 0 00.72-.32l.01-.006.004-.001h.001l-.223-.448a116.42 116.42 0 01-.224-.447l-.008.004a3.004 3.004 0 01-.158.075c-.114.052-.284.127-.504.218-.441.183-1.083.427-1.878.672-1.593.49-3.792.978-6.228.978v1zm-9-2.5l-.223.447v.001c.002 0 .003 0 .004.002a3.613 3.613 0 00.192.09c.124.057.306.138.539.234a22.1 22.1 0 001.966.704c1.657.51 3.958 1.022 6.522 1.022v-1c-2.436 0-4.635-.488-6.228-.978a21.477 21.477 0 01-1.878-.672 14.636 14.636 0 01-.632-.278l-.03-.015-.007-.004h-.002l-.223.447zm-.5-3.445v3.445h1v-3.445h-1z" fill="#0089C4"/></svg>