<svg width="62" height="62" fill="none" xmlns="http://www.w3.org/2000/svg"><rect x=".7" y=".084" width="60.938" height="60.938" rx="30.469" fill="#F5F8FA"/><path fill="#E2F6FF" stroke="#0089C4" d="M14.669 40.053h6v7h-6zm18-13h6v20h-6z"/><path fill="#fff" stroke="#0089C4" d="M23.669 34.053h6v13h-6z"/><path fill="#FFE259" stroke="#082C46" d="M41.669 14.053h6v33h-6z"/><circle cx="22.669" cy="22.053" r="8" fill="#fff" stroke="#0089C4"/><path d="M22.117 26.653v-.99c-1.093-.08-1.947-.462-2.563-1.144l.715-.99a3.095 3.095 0 001.848.979v-2.123c-.345-.088-.63-.173-.858-.253a4.388 4.388 0 01-.715-.363 1.641 1.641 0 01-.572-.616 2.043 2.043 0 01-.187-.902c0-.565.213-1.045.638-1.441.425-.396.99-.624 1.694-.682v-1.023h.88v1.034c.887.095 1.624.425 2.21.99l-.736.957a2.868 2.868 0 00-1.474-.77v1.892c.271.073.502.143.693.209.19.066.4.161.627.286.235.117.422.25.56.396.14.14.258.322.353.55.095.227.143.484.143.77a2.12 2.12 0 01-.605 1.529c-.396.41-.986.649-1.771.715v.99h-.88zm1.683-2.497a.869.869 0 00.264-.616.658.658 0 00-.275-.55c-.183-.147-.447-.272-.792-.374v1.903c.36-.059.627-.18.803-.363zm-2.695-3.993c0 .352.337.623 1.012.814V19.26c-.315.03-.565.128-.748.297a.787.787 0 00-.264.605z" fill="#0089C4"/></svg>