<svg width="72" height="71" fill="none" xmlns="http://www.w3.org/2000/svg"><path d="M34.832 39.779a.5.5 0 01.883 0L46.646 60.36a.5.5 0 01-.442.735H24.343a.5.5 0 01-.442-.735l10.93-20.582z" fill="#E2F6FF" stroke="#006591"/><path stroke="#000" d="M2.031 37.41h68.09"/><rect x=".704" y="-.01" width="18.163" height="18.163" rx=".5" transform="matrix(.69443 -.71956 .71428 .69986 2.253 22.973)" fill="#E2F6FF" stroke="#006591"/><rect x=".498" y="-.502" width="8.987" height="8.987" rx=".5" transform="matrix(-.0001 -1.00378 .9962 .0001 11.553 27.29)" fill="#FFE259" stroke="#000"/><rect x=".704" y="-.01" width="18.163" height="18.163" rx=".5" transform="matrix(.69443 -.71956 .71428 .69986 43.348 22.973)" fill="#FFE259" stroke="#000"/><rect x=".498" y="-.502" width="8.987" height="8.987" rx=".5" transform="matrix(-.0001 -1.00378 .9962 .0001 52.648 27.29)" fill="#fff" stroke="#000"/><path fill="#fff" stroke="#000" d="M2.609 35.44h67.013v3.812H2.609z"/></svg>