<svg width="72" height="71" fill="none" xmlns="http://www.w3.org/2000/svg"><mask id="a" fill="#fff"><path fill-rule="evenodd" clip-rule="evenodd" d="M44.606 35.428c.603 0 1.3.445 1.368 1.036a20.746 20.746 0 01-.01 4.785 1.181 1.181 0 01-1.245 1.033l-.264-.007c-1.882 0-3.632 1.146-4.355 2.852a4.625 4.625 0 001.193 5.25 1.16 1.16 0 01.127 1.6 21.094 21.094 0 01-3.444 3.365 1.2 1.2 0 01-1.607-.133c-1.267-1.375-3.52-1.893-5.273-1.185a4.675 4.675 0 00-2.913 4.487 1.176 1.176 0 01-1.054 1.205 21.38 21.38 0 01-4.79-.013 1.172 1.172 0 01-1.044-1.23 4.663 4.663 0 00-2.881-4.566c-1.755-.728-4.034-.213-5.308 1.18a1.194 1.194 0 01-1.62.127 21.008 21.008 0 01-3.368-3.368 1.158 1.158 0 01.129-1.586c1.456-1.32 1.935-3.41 1.19-5.204-.747-1.796-2.526-2.93-4.38-2.883-.61 0-1.33-.441-1.397-1.035a20.829 20.829 0 01.01-4.785c.074-.607.554-1.055 1.23-1.034 2.08 0 3.897-1.114 4.632-2.844a4.626 4.626 0 00-1.19-5.25 1.16 1.16 0 01-.128-1.6 21.042 21.042 0 013.444-3.366 1.197 1.197 0 011.607.134c1.266 1.377 3.53 1.889 5.27 1.186a4.681 4.681 0 002.917-4.49 1.175 1.175 0 011.053-1.204 21.49 21.49 0 014.79.012c.625.072 1.082.61 1.045 1.23a4.67 4.67 0 002.876 4.569c1.761.726 4.041.21 5.31-1.18a1.196 1.196 0 011.618-.129 20.945 20.945 0 013.373 3.367 1.16 1.16 0 01-.13 1.587c-1.453 1.318-1.931 3.41-1.19 5.203.726 1.752 2.457 2.884 4.409 2.884zm-12.814 3.374c0 3.806-3.122 6.892-6.973 6.892s-6.973-3.086-6.973-6.892c0-3.806 3.122-6.892 6.973-6.892 3.85 0 6.973 3.085 6.973 6.892z"/></mask><path fill-rule="evenodd" clip-rule="evenodd" d="M44.606 35.428c.603 0 1.3.445 1.368 1.036a20.746 20.746 0 01-.01 4.785 1.181 1.181 0 01-1.245 1.033l-.264-.007c-1.882 0-3.632 1.146-4.355 2.852a4.625 4.625 0 001.193 5.25 1.16 1.16 0 01.127 1.6 21.094 21.094 0 01-3.444 3.365 1.2 1.2 0 01-1.607-.133c-1.267-1.375-3.52-1.893-5.273-1.185a4.675 4.675 0 00-2.913 4.487 1.176 1.176 0 01-1.054 1.205 21.38 21.38 0 01-4.79-.013 1.172 1.172 0 01-1.044-1.23 4.663 4.663 0 00-2.881-4.566c-1.755-.728-4.034-.213-5.308 1.18a1.194 1.194 0 01-1.62.127 21.008 21.008 0 01-3.368-3.368 1.158 1.158 0 01.129-1.586c1.456-1.32 1.935-3.41 1.19-5.204-.747-1.796-2.526-2.93-4.38-2.883-.61 0-1.33-.441-1.397-1.035a20.829 20.829 0 01.01-4.785c.074-.607.554-1.055 1.23-1.034 2.08 0 3.897-1.114 4.632-2.844a4.626 4.626 0 00-1.19-5.25 1.16 1.16 0 01-.128-1.6 21.042 21.042 0 013.444-3.366 1.197 1.197 0 011.607.134c1.266 1.377 3.53 1.889 5.27 1.186a4.681 4.681 0 002.917-4.49 1.175 1.175 0 011.053-1.204 21.49 21.49 0 014.79.012c.625.072 1.082.61 1.045 1.23a4.67 4.67 0 002.876 4.569c1.761.726 4.041.21 5.31-1.18a1.196 1.196 0 011.618-.129 20.945 20.945 0 013.373 3.367 1.16 1.16 0 01-.13 1.587c-1.453 1.318-1.931 3.41-1.19 5.203.726 1.752 2.457 2.884 4.409 2.884zm-12.814 3.374c0 3.806-3.122 6.892-6.973 6.892s-6.973-3.086-6.973-6.892c0-3.806 3.122-6.892 6.973-6.892 3.85 0 6.973 3.085 6.973 6.892z" fill="#E2F6FF"/><path d="M45.974 36.464l.994-.113-.994.113zm-.01 4.785l.994.119-.993-.119zm-1.245 1.033l.08-.997-.027-.002-.027-.001-.026 1zm-.264-.007l.027-1h-.027v1zM40.1 45.127l.92.391h.001l-.92-.39zm1.193 5.25l.667-.745-.667.745zm.127 1.6l-.776-.632.776.631zm-3.444 3.365l.607.795.006-.005-.613-.79zm-1.607-.133l-.735.677.002.003.733-.68zm-5.273-1.185l-.374-.928.374.928zm-2.913 4.487l1-.034v-.002l-1 .036zm-1.054 1.205l-.108-.994h-.001l.11.994zm-4.79-.013l.114-.993h-.002l-.112.993zm-1.044-1.23l.998.06v-.002l-.998-.057zm-2.881-4.566l-.384.924h.002l.382-.924zm-5.308 1.18l.736.676.002-.001-.738-.675zm-1.62.127l-.623.782.622-.782zm-3.368-3.368l.783-.622-.003-.003-.78.625zm.129-1.586l-.672-.74.672.74zm1.19-5.204l.924-.383-.924.383zm-4.38-2.883v1h.025l-.026-1zM3.66 41.138l-.994.112.994-.112zm.01-4.785l-.993-.122v.004l.992.118zm1.23-1.034l-.032 1h.031v-1zm4.632-2.844l.92.39-.92-.39zm-1.19-5.25l-.67.743.002.001.667-.745zm-.128-1.6l.776.631h.001l-.777-.63zm3.444-3.366l-.61-.791-.002.001.613.79zm1.607.134l.736-.677v-.002l-.736.679zm5.27 1.186l.375.927h.001l-.375-.927zm2.917-4.49l-1 .035 1-.034zm1.053-1.204l.109.994-.109-.994zm4.79.012l.115-.993-.115.994zm1.045 1.23l-.998-.06v.002l.998.058zm2.876 4.569l-.384.923.003.001.381-.925zm5.31-1.18l-.738-.674.738.675zm1.618-.129l-.62.784.62-.784zm3.373 3.367l-.782.623.782-.623zm-.13 1.587l-.67-.742-.001.001.672.741zm-1.19 5.203l-.924.382v.001l.924-.383zm6.77 3.807c-.075-.66-.485-1.147-.893-1.44a2.568 2.568 0 00-1.468-.483v2c.03 0 .08.006.14.026.06.02.116.05.162.083.108.077.08.11.073.04l1.987-.226zm-.009 5.016c.197-1.66.2-3.346.01-5.016l-1.987.226c.172 1.518.17 3.05-.01 4.554l1.987.236zm-2.32 1.911c1.157.093 2.184-.77 2.32-1.91l-1.986-.237a.178.178 0 01-.066.114.153.153 0 01-.108.04l-.16 1.993zm-.209-.004l.263.007.053-2-.263-.006-.053 2zm-3.408 2.244c.563-1.33 1.946-2.243 3.434-2.243v-2c-2.275 0-4.392 1.379-5.276 3.462l1.842.78zm.939 4.113a3.625 3.625 0 01-.94-4.113l-1.84-.781c-.94 2.212-.35 4.778 1.446 6.385l1.334-1.49zm.235 2.977a2.16 2.16 0 00-.235-2.976l-1.334 1.49a.16.16 0 01.019.223l1.55 1.263zm-3.606 3.524a22.094 22.094 0 003.607-3.525l-1.552-1.261a20.094 20.094 0 01-3.28 3.206l1.225 1.58zm-2.953-.242a2.2 2.2 0 002.947.247l-1.214-1.59a.2.2 0 01-.267-.019l-1.466 1.361zm-4.166-.94c1.365-.55 3.177-.134 4.164.936l1.47-1.355c-1.547-1.679-4.242-2.298-6.382-1.435l.748 1.855zm-2.288 3.525a3.675 3.675 0 012.29-3.524l-.75-1.854a5.675 5.675 0 00-3.539 5.45l2-.072zm-1.944 2.235a2.176 2.176 0 001.944-2.233l-1.999.068a.176.176 0 01-.162.177l.217 1.988zm-2.446.134c.815 0 1.63-.044 2.446-.134l-.218-1.988c-.742.082-1.485.122-2.228.122v2zm-2.568-.147c.852.098 1.71.147 2.568.147v-2a20.29 20.29 0 01-2.339-.134l-.229 1.987zm-1.928-2.283a2.172 2.172 0 001.93 2.283l.225-1.987a.172.172 0 01-.158-.176l-1.997-.12zm-2.264-3.583a3.663 3.663 0 012.264 3.586l1.997.114a5.663 5.663 0 00-3.497-5.548l-.764 1.848zm-4.188.93c.991-1.083 2.823-1.496 4.186-.93l.767-1.848c-2.146-.89-4.872-.272-6.429 1.428l1.476 1.35zm-2.981.235a2.194 2.194 0 002.98-.233l-1.474-1.353a.194.194 0 01-.261.021l-1.245 1.565zm-3.529-3.529a22.004 22.004 0 003.529 3.529l1.245-1.565A20.008 20.008 0 018.9 51.224l-1.567 1.243zm.24-2.947a2.158 2.158 0 00-.237 2.95l1.561-1.25a.158.158 0 01.02-.22l-1.343-1.48zm.94-4.08c.58 1.396.21 3.039-.939 4.08L8.918 51c1.764-1.598 2.352-4.137 1.443-6.328l-1.847.767zm-3.432-2.267c1.437-.036 2.842.85 3.432 2.268l1.847-.769c-.905-2.174-3.059-3.556-5.33-3.499l.05 2zM2.666 41.25c.077.674.504 1.16.916 1.448.418.292.947.475 1.474.475v-2a.517.517 0 01-.154-.028.684.684 0 01-.175-.087c-.116-.081-.082-.112-.073-.033l-1.988.225zm.01-5.015a21.83 21.83 0 00-.01 5.015l1.988-.225a19.83 19.83 0 01.008-4.554l-1.986-.236zm2.255-1.915c-1.202-.038-2.118.8-2.254 1.911l1.985.243c.009-.071.036-.104.052-.118.013-.01.053-.04.154-.037l.063-2zm3.68-2.236c-.557 1.312-1.977 2.235-3.712 2.235v2c2.426 0 4.64-1.305 5.553-3.453l-1.84-.782zm-.937-4.115a3.626 3.626 0 01.937 4.115l1.841.781a5.626 5.626 0 00-1.444-6.386l-1.334 1.49zm-.236-2.975a2.16 2.16 0 00.235 2.974L9.01 26.48a.16.16 0 01-.02-.224l-1.552-1.262zm3.608-3.525a22.046 22.046 0 00-3.608 3.526l1.553 1.26a20.043 20.043 0 013.28-3.205l-1.225-1.58zm2.954.245a2.197 2.197 0 00-2.952-.246l1.221 1.584a.197.197 0 01.261.019L14 21.714zm4.161.938c-1.354.547-3.175.134-4.16-.936L12.53 23.07c1.548 1.683 4.254 2.295 6.381 1.436l-.749-1.854zm2.291-3.527a3.68 3.68 0 01-2.292 3.527l.751 1.854a5.681 5.681 0 003.54-5.452l-1.999.07zm1.945-2.234a2.175 2.175 0 00-1.945 2.233l1.999-.069a.176.176 0 01.163-.176l-.217-1.988zm5.012.013a22.491 22.491 0 00-5.013-.013l.218 1.988c1.52-.167 3.05-.162 4.568.012l.227-1.987zm1.93 2.283a2.172 2.172 0 00-1.93-2.283l-.228 1.987c.108.012.166.099.161.176l1.997.12zm2.261 3.585a3.67 3.67 0 01-2.261-3.587l-1.997-.116a5.67 5.67 0 003.49 5.55l.768-1.847zm4.188-.93c-.985 1.079-2.818 1.495-4.19.929l-.763 1.849c2.15.887 4.877.27 6.43-1.43l-1.477-1.348zm2.978-.239a2.196 2.196 0 00-2.978.239l1.476 1.35a.196.196 0 01.26-.021l1.242-1.568zm3.534 3.528a21.944 21.944 0 00-3.535-3.528l-1.241 1.568a19.934 19.934 0 013.211 3.206l1.565-1.246zm-.242 2.952a2.16 2.16 0 00.241-2.953l-1.563 1.248a.16.16 0 01-.019.221l1.34 1.484zm-.937 4.08c-.578-1.399-.207-3.042.938-4.081L40.716 26.6c-1.762 1.598-2.348 4.137-1.443 6.326l1.848-.764zm3.485 2.265c-1.563 0-2.92-.903-3.485-2.267l-1.848.766c.887 2.14 2.993 3.5 5.333 3.5v-2zM24.819 46.694c4.392 0 7.973-3.522 7.973-7.892h-2c0 3.243-2.664 5.892-5.973 5.892v2zm-7.973-7.892c0 4.37 3.58 7.892 7.973 7.892v-2c-3.31 0-5.973-2.649-5.973-5.892h-2zm7.973-7.892c-4.393 0-7.973 3.522-7.973 7.892h2c0-3.243 2.663-5.892 5.973-5.892v-2zm7.973 7.892c0-4.37-3.581-7.892-7.973-7.892v2c3.31 0 5.973 2.649 5.973 5.892h2z" fill="#006591" mask="url(#a)"/><mask id="b" fill="#fff"><path fill-rule="evenodd" clip-rule="evenodd" d="M49.298 16.407l4.483 2.003a7.558 7.558 0 011.922-.285l3.746-3.113a11.466 11.466 0 013.24 1.735l-.516 4.843c.352.55.63 1.142.829 1.76l4.152 2.62a11.314 11.314 0 01-.65 3.618l-5.03 1.061a7.48 7.48 0 01-1.085 1.007l-1.277 5.025a11.426 11.426 0 01-3.642.503l-2.663-4.63a7.675 7.675 0 01-1.04-.556l-5.33.348a11.425 11.425 0 01-1.6-3.31l3.477-3.85c.03-.487.108-.976.236-1.458l-1.904-4.775a11.316 11.316 0 012.652-2.546zm5.327 11.504a2.601 2.601 0 102.456-4.586 2.601 2.601 0 00-2.456 4.586z"/></mask><path fill-rule="evenodd" clip-rule="evenodd" d="M49.298 16.407l4.483 2.003a7.558 7.558 0 011.922-.285l3.746-3.113a11.466 11.466 0 013.24 1.735l-.516 4.843c.352.55.63 1.142.829 1.76l4.152 2.62a11.314 11.314 0 01-.65 3.618l-5.03 1.061a7.48 7.48 0 01-1.085 1.007l-1.277 5.025a11.426 11.426 0 01-3.642.503l-2.663-4.63a7.675 7.675 0 01-1.04-.556l-5.33.348a11.425 11.425 0 01-1.6-3.31l3.477-3.85c.03-.487.108-.976.236-1.458l-1.904-4.775a11.316 11.316 0 012.652-2.546zm5.327 11.504a2.601 2.601 0 102.456-4.586 2.601 2.601 0 00-2.456 4.586z" fill="#FFE259"/><path d="M53.78 18.41l-.407.913.33.149.35-.1-.272-.962zm-4.482-2.003l.408-.913-.512-.23-.463.318.567.825zm6.405 1.718l.018 1 .352-.006.27-.225-.64-.769zm3.746-3.113l.325-.946-.532-.183-.432.36.639.769zm3.24 1.735l.995.106.06-.559-.448-.341-.607.794zm-.516 4.843l-.995-.106-.037.35.19.295.842-.54zm.829 1.76l-.952.306.11.345.308.194.534-.846zm4.152 2.62l1 .015.008-.56-.475-.3-.533.845zm-.65 3.618l.206.978.549-.115.187-.529-.942-.334zm-5.03 1.061l-.206-.979-.324.069-.22.248.75.662zm-1.085 1.007l-.604-.797-.279.212-.086.339.97.246zm-1.277 5.025l.294.956.537-.165.138-.544-.969-.247zm-3.642.503l-.867.5.28.486.563.014.024-1zm-2.663-4.63l.866-.498-.163-.285-.3-.132-.404.915zm-1.04-.556l.539-.843-.277-.177-.327.022.065.998zm-5.33.348l-.818.574.322.46.561-.036-.065-.998zm-1.6-3.31l-.741-.671-.377.417.16.538.959-.285zm3.477-3.85l.742.671.234-.26.022-.348-.998-.062zm.236-1.458l.967.257.085-.32-.123-.307-.928.37zm-1.904-4.775l-.8-.6-.336.45.208.52.928-.37zm7.543-1.455l-4.483-2.004-.816 1.825 4.483 2.005.816-1.826zm1.496-.372a8.554 8.554 0 00-2.177.322l.545 1.925a6.557 6.557 0 011.668-.248l-.036-2zm3.124-2.883l-3.745 3.114 1.279 1.537 3.745-3.113-1.279-1.538zm2.802.625a12.519 12.519 0 00-1.837-.802l-.65 1.891c.523.18 1.039.404 1.543.674l.944-1.763zm1.685 1.085c-.523-.4-1.086-.764-1.685-1.085l-.944 1.763c.504.27.976.575 1.415.91l1.214-1.588zm-.129 5.743l.517-4.843-1.99-.212-.516 4.843 1.99.212zm.787 1.347a8.555 8.555 0 00-.939-1.992l-1.684 1.078c.305.477.546.99.719 1.527l1.904-.613zm3.733 2.082l-4.152-2.621-1.067 1.691 4.152 2.621 1.067-1.691zm-.24 4.797a12.31 12.31 0 00.707-3.937l-2-.03a10.314 10.314 0 01-.593 3.299l1.885.668zm-5.766 1.706l5.03-1.062-.414-1.956-5.03 1.06.414 1.957zm-.687.825a8.481 8.481 0 001.23-1.142l-1.5-1.324a6.478 6.478 0 01-.94.872l1.21 1.594zm-.913 4.475l1.277-5.026-1.938-.492-1.277 5.025 1.938.493zm-4.635 1.256a12.427 12.427 0 003.96-.547l-.588-1.911c-1.07.33-2.193.486-3.323.459l-.05 2zm-3.506-5.13l2.663 4.63 1.734-.998-2.664-4.63-1.733.997zm-.136.124c.198.106.398.203.6.292l.805-1.83a6.643 6.643 0 01-.46-.225l-.945 1.763zm-.576-.338c.186.12.378.232.576.338l.945-1.763a6.624 6.624 0 01-.443-.26l-1.078 1.685zm-4.726.504l5.33-.349-.13-1.995-5.33.348.13 1.996zM43.88 29.32a12.41 12.41 0 001.74 3.6l1.637-1.149a10.426 10.426 0 01-1.46-3.02l-1.917.569zm3.693-4.803l-3.476 3.848 1.484 1.34 3.476-3.848-1.484-1.34zm.012-1.046a8.478 8.478 0 00-.268 1.654l1.996.124c.026-.423.094-.846.205-1.264l-1.933-.514zm-1.867-4.148l1.905 4.775 1.857-.74-1.904-4.776-1.858.741zm3.014-3.74a12.314 12.314 0 00-2.885 2.77l1.601 1.199a10.316 10.316 0 012.417-2.321l-1.133-1.649zm8.533 10.791a1.601 1.601 0 01-2.167.655l-.944 1.764a3.601 3.601 0 004.874-1.475l-1.763-.944zm-.655-2.167a1.601 1.601 0 01.655 2.167l1.763.944a3.601 3.601 0 00-1.474-4.874l-.944 1.763zm-2.167.655a1.601 1.601 0 012.167-.655l.944-1.763a3.601 3.601 0 00-4.874 1.474l1.763.944zm.655 2.168a1.601 1.601 0 01-.655-2.168l-1.763-.944a3.601 3.601 0 001.474 4.875l.944-1.764z" fill="#000" mask="url(#b)"/><circle cx="55.853" cy="25.618" r="2.601" transform="rotate(28.174 55.853 25.618)" fill="#fff"/><path d="M24.819 45.694c3.851 0 6.973-3.085 6.973-6.892 0-3.806-3.122-6.892-6.973-6.892s-6.973 3.086-6.973 6.892c0 3.807 3.122 6.892 6.973 6.892z" fill="#fff"/></svg>