<svg width="17" height="14" fill="none" xmlns="http://www.w3.org/2000/svg"><path fill-rule="evenodd" clip-rule="evenodd" d="M16.91 1.569a7.23 7.23 0 01-1.994.523A3.372 3.372 0 0016.443.253a7.369 7.369 0 01-2.207.8A3.533 3.533 0 0011.701 0C9.783 0 8.227 1.489 8.227 3.322c0 .263.032.516.09.76C5.43 3.95 2.87 2.622 1.157.617a3.152 3.152 0 00-.47 1.672c0 1.154.614 2.17 1.545 2.767a3.591 3.591 0 01-1.574-.415v.04c0 1.61 1.196 2.955 2.787 3.261A3.68 3.68 0 011.885 8c.443 1.32 1.724 2.282 3.248 2.309a7.16 7.16 0 01-4.307 1.422c-.275 0-.55-.015-.826-.045a10.207 10.207 0 005.334 1.492c6.392 0 9.885-5.064 9.885-9.449 0-.142 0-.284-.011-.425a6.842 6.842 0 001.735-1.722l-.032-.013z" fill="#fff"/></svg>