<svg width="53" height="53" fill="none" xmlns="http://www.w3.org/2000/svg"><path d="M39.341 9.999h5.21v39.075H14.593v-5.21" stroke="#FFE259" stroke-width="1.6"/><path d="M39.341 4.79H9.383v39.075h29.958V4.788zM14.593 24.327h6.513m-6.513 9.117h6.513m-2.605-5.21h14.328m-14.328 9.118h14.328" stroke="#0089C4" stroke-width="1.6"/><path d="M24.363 15.463l.278-.75-.278-.103-.277.103.277.75zm-4.023 1.49l-.278-.75-.522.193v.557h.8zm8.047 0h.8v-.557l-.522-.193-.278.75zm0 1.54l.357.715.443-.22v-.495h-.8zm-8.047 0h-.8v.494l.442.221.358-.715zm5.459-6.035c0 .498-.19 1.062-.502 1.492-.32.438-.666.613-.934.613v1.6c.967 0 1.738-.598 2.228-1.273.497-.684.808-1.573.808-2.432h-1.6zm-1.436-1.659c.723 0 1.436.67 1.436 1.659h1.6c0-1.727-1.29-3.259-3.036-3.259v1.6zm-1.435 1.659c0-.99.713-1.659 1.435-1.659v-1.6c-1.746 0-3.035 1.532-3.035 3.259h1.6zm1.435 2.105c-.267 0-.614-.175-.933-.614a2.657 2.657 0 01-.502-1.491h-1.6c0 .86.311 1.748.808 2.432.49.675 1.26 1.273 2.227 1.273v-1.6zm-.277.15l-4.024 1.49.556 1.5 4.023-1.49-.555-1.5zm4.579 1.49l-4.024-1.49-.555 1.5 4.023 1.49.556-1.5zm.522 2.29v-1.54h-1.6v1.54h1.6zm-4.824 1.694c1.22 0 2.308-.244 3.085-.483a10.599 10.599 0 001.191-.446l.073-.034.022-.01.006-.004h.003v-.001h.001l-.357-.716-.358-.716h.001l-.01.005a5.146 5.146 0 01-.253.111 8.98 8.98 0 01-.789.282c-.676.208-1.6.412-2.615.412v1.6zm-4.023-1.694c-.358.715-.357.715-.357.716h.001l.002.001.007.004.022.01.073.034c.061.029.15.068.26.114.223.092.54.212.93.332.777.24 1.865.483 3.085.483v-1.6a9.029 9.029 0 01-2.614-.412 8.98 8.98 0 01-.994-.37 4.144 4.144 0 01-.048-.023l-.01-.005-.357.716zm-.8-1.54v1.54h1.6v-1.54h-1.6z" fill="#FFE259"/></svg>