<svg width="305" height="194" fill="none" xmlns="http://www.w3.org/2000/svg"><path d="M94.152 179.092h26.765m-26.765 5.237h17.456m138.478-28.511h11.637m-11.638 5.236h20.947M170.956 62.142h36.074m-36.074 5.236h24.437M92.987 21.413h26.765m-26.764-4.655h9.31m-9.311 9.892h17.456M32.477 183.165l60.512-34.91 60.511 11.636 60.512-34.91 62.838 11.637" stroke="#000" stroke-width="2.327"/><circle cx="32.477" cy="183.165" r="5.818" fill="#fff" stroke="#000" stroke-width="2.327"/><circle cx="92.988" cy="148.255" r="5.818" fill="#0089C4" stroke="#000" stroke-width="2.327"/><circle cx="153.5" cy="159.891" r="5.818" fill="#fff" stroke="#000" stroke-width="2.327"/><circle cx="214.011" cy="124.981" r="5.818" fill="#0089C4" stroke="#000" stroke-width="2.327"/><circle cx="276.85" cy="136.617" r="5.818" fill="#fff" stroke="#000" stroke-width="2.327"/><circle cx="232.048" cy="58.069" r="2.909" fill="#fff" stroke="#000" stroke-width="2.327"/><circle cx="181.429" cy="23.74" r="22.11" fill="#0089C4" stroke="#000" stroke-width="2.327"/><circle cx="181.428" cy="23.74" r="9.309" fill="#FFE259" stroke="#000" stroke-width="2.327"/><mask id="a" fill="#fff"><path fill-rule="evenodd" clip-rule="evenodd" d="M180.264 15.677a8.146 8.146 0 019.228 9.227h15.181c.019-.386.028-.774.028-1.164 0-12.854-10.42-23.274-23.273-23.274-.391 0-.779.01-1.164.029v15.182z"/></mask><path fill-rule="evenodd" clip-rule="evenodd" d="M180.264 15.677a8.146 8.146 0 019.228 9.227h15.181c.019-.386.028-.774.028-1.164 0-12.854-10.42-23.274-23.273-23.274-.391 0-.779.01-1.164.029v15.182z" fill="#fff"/><path d="M180.264 15.677h-2.327v2.684l2.657-.38-.33-2.304zm9.228 9.227l-2.304-.33-.38 2.657h2.684v-2.327zm15.181 0v2.327h2.215l.109-2.213-2.324-.114zM180.264.494l-.115-2.324-2.212.11V.494h2.327zm1.164 12.773c-.506 0-1.005.036-1.494.106l.66 4.607c.271-.038.55-.059.834-.059v-4.654zm10.473 10.473c0-5.784-4.689-10.473-10.473-10.473v4.654a5.819 5.819 0 015.819 5.819h4.654zm-.106 1.493c.07-.489.106-.987.106-1.493h-4.654c0 .284-.021.563-.059.834l4.607.66zm12.878-2.657h-15.181v4.655h15.181v-4.655zm2.324 2.442c.021-.424.032-.85.032-1.278h-4.655c0 .352-.009.702-.026 1.05l4.649.228zm.032-1.278c0-14.14-11.462-25.601-25.601-25.601v4.655c11.568 0 20.946 9.378 20.946 20.946h4.655zM181.428-1.861c-.429 0-.855.01-1.279.031l.229 4.65c.348-.018.698-.026 1.05-.026v-4.655zm1.163 17.538V.495h-4.654v15.182h4.654z" fill="#000" mask="url(#a)"/><path d="M181.428 1.63v13.964m23.273 8.146h-13.964" stroke="#000" stroke-width="2.327"/><circle cx="44.114" cy="48.177" r="22.11" fill="#fff" stroke="#000" stroke-width="2.327"/><circle cx="44.114" cy="48.177" r="16.291" stroke="#000" stroke-width="2.327"/><path d="M37.388 52.05h2.228v-2.28h-2.228v-1.946h2.228v-8.909h4.813c2.235 0 3.891.453 4.966 1.357 1.092.905 1.639 2.219 1.639 3.943 0 1.74-.598 3.106-1.792 4.096-1.178.973-2.902 1.459-5.172 1.459h-2.15v2.279h4.224v1.664H41.92v3.481h-2.304v-3.481h-2.228V52.05zm6.836-11.188H41.92v6.963h1.817c1.553 0 2.757-.256 3.61-.768.87-.512 1.306-1.433 1.306-2.765 0-1.16-.359-2.022-1.075-2.585-.717-.563-1.835-.845-3.354-.845z" fill="#000"/><circle cx="214.011" cy="175.019" r="17.455" fill="#fff" stroke="#000" stroke-width="2.327"/><circle cx="214.012" cy="175.019" r="11.637" fill="#fff" stroke="#000" stroke-width="2.327"/><path d="M213.239 182.735v-1.657c-1.788-.099-3.209-.751-4.264-1.955l.912-1.173c.906 1.018 2.023 1.601 3.352 1.75v-4.543a19.482 19.482 0 01-1.155-.335 9.669 9.669 0 01-1.005-.428c-.385-.199-.689-.41-.913-.633a2.984 2.984 0 01-.577-.857 2.997 2.997 0 01-.223-1.191c0-.956.36-1.751 1.08-2.384.72-.633 1.651-.98 2.793-1.042v-1.713h1.135v1.731c1.502.149 2.725.714 3.668 1.695l-.931 1.135c-.732-.782-1.644-1.253-2.737-1.415v4.041c.584.161 1.068.322 1.453.484.384.149.788.366 1.21.651.434.273.757.627.968 1.062.211.422.317.918.317 1.489a3.49 3.49 0 01-.969 2.458c-.645.683-1.638 1.074-2.979 1.173v1.657h-1.135zm3.481-5.157c0-.559-.204-.994-.614-1.304-.397-.31-.974-.577-1.732-.8v4.226c.807-.087 1.397-.335 1.769-.745.385-.409.577-.869.577-1.377zm-5.753-5.959c0 .472.192.845.577 1.118.385.26.95.502 1.695.726v-3.799c-.671.05-1.217.255-1.639.615a1.657 1.657 0 00-.633 1.34z" fill="#000"/><path d="M213.239 182.735h-.233v.233h.233v-.233zm0-1.657h.232v-.22l-.219-.013-.013.233zm-4.264-1.955l-.184-.143-.118.152.127.144.175-.153zm.912-1.173l.174-.155-.186-.209-.172.221.184.143zm3.352 1.75l-.026.231.258.029v-.26h-.232zm0-4.543h.232v-.179l-.173-.046-.059.225zm-1.155-.335l-.076.22.003.001.073-.221zm-1.005-.428l-.107.207.005.002.102-.209zm-.913-.633l.165-.165-.165.165zm-.577-.857l-.214.092.003.006.211-.098zm.857-3.575l.153.175-.153-.175zm2.793-1.042l.012.232.22-.012v-.22h-.232zm0-1.713v-.233h-.233v.233h.233zm1.135 0h.233v-.233h-.233v.233zm0 1.731h-.232v.211l.209.021.023-.232zm3.668 1.695l.18.147.131-.16-.143-.149-.168.162zm-.931 1.135l-.17.159.182.194.168-.205-.18-.148zm-2.737-1.415l.034-.23-.266-.039v.269h.232zm0 4.041h-.232v.177l.17.047.062-.224zm1.453.484l-.09.214.006.003.084-.217zm1.21.651l-.131.193.007.004.124-.197zm.968 1.062l-.209.101.001.003.208-.104zm-.652 3.947l.169.16.002-.002-.171-.158zm-2.979 1.173l-.017-.232-.215.016v.216h.232zm0 1.657v.233h.233v-.233h-.233zm1.732-6.461l-.143.184.002.002.141-.186zm-1.732-.8l.066-.224-.298-.088v.312h.232zm0 4.226h-.232v.259l.257-.028-.025-.231zm1.769-.745l-.17-.159-.002.003.172.156zm-4.599-6.218l-.134.189.004.003.13-.192zm1.695.726l-.067.223.299.09v-.313h-.232zm0-3.799h.232v-.25l-.25.018.018.232zm-1.639.615l.148.18.003-.003-.151-.177zm1.871 12.456v-1.657h-.465v1.657h.465zm-.219-1.89c-1.734-.096-3.093-.724-4.102-1.876l-.35.307c1.101 1.257 2.584 1.932 4.426 2.034l.026-.465zm-4.093-1.579l.912-1.173-.368-.286-.912 1.173.368.286zm.554-1.161c.944 1.059 2.113 1.671 3.5 1.826l.052-.462c-1.27-.143-2.335-.698-3.204-1.674l-.348.31zm3.758 1.595v-4.543h-.465v4.543h.465zm-.173-4.768a18.808 18.808 0 01-1.14-.331l-.147.442c.304.101.694.214 1.168.339l.119-.45zm-1.137-.33a9.237 9.237 0 01-.981-.418l-.203.419c.39.189.734.336 1.031.439l.153-.44zm-.975-.415c-.371-.192-.653-.389-.855-.591l-.329.329c.245.246.571.47.97.675l.214-.413zm-.855-.591c-.2-.2-.378-.462-.531-.79l-.422.196c.171.367.378.677.624.923l.329-.329zm-.528-.784a2.77 2.77 0 01-.204-1.099h-.466c0 .472.079.902.242 1.283l.428-.184zm-.204-1.099c0-.889.331-1.62 1-2.209l-.307-.349c-.77.677-1.159 1.535-1.159 2.558h.466zm1-2.209c.674-.592 1.552-.925 2.652-.985l-.025-.465c-1.184.065-2.168.427-2.934 1.101l.307.349zm2.872-1.217v-1.713h-.465v1.713h.465zm-.232-1.481h1.135v-.465h-1.135v.465zm.903-.232v1.731h.465v-1.731h-.465zm.209 1.963c1.454.144 2.623.688 3.524 1.624l.335-.323c-.986-1.025-2.262-1.611-3.813-1.764l-.046.463zm3.511 1.315l-.931 1.136.36.295.931-1.136-.36-.295zm-.581 1.124c-.769-.821-1.73-1.317-2.873-1.486l-.068.461c1.042.153 1.906.601 2.601 1.343l.34-.318zm-3.139-1.256v4.041h.465v-4.041h-.465zm.17 4.265c.578.16 1.052.318 1.425.474l.18-.429a12.69 12.69 0 00-1.481-.494l-.124.449zm1.431.477c.365.141.753.349 1.163.627l.261-.385a6.298 6.298 0 00-1.256-.676l-.168.434zm1.17.631c.4.252.692.574.883.966l.418-.203a2.795 2.795 0 00-1.053-1.157l-.248.394zm.884.969c.192.383.292.843.292 1.385h.465c0-.599-.111-1.133-.341-1.593l-.416.208zm.292 1.385c0 .884-.3 1.647-.906 2.299l.341.317a3.725 3.725 0 001.03-2.616h-.465zm-.905 2.298c-.591.625-1.519 1.004-2.827 1.101l.035.464c1.373-.102 2.431-.505 3.13-1.245l-.338-.32zm-3.042 1.333v1.657h.465v-1.657h-.465zm.232 1.424h-1.135v.466h1.135v-.466zm2.579-4.924c0-.625-.233-1.131-.707-1.489l-.281.371c.346.262.523.624.523 1.118h.465zm-.704-1.487c-.429-.336-1.038-.613-1.809-.841l-.132.447c.744.219 1.29.476 1.655.761l.286-.367zm-2.107-.617v4.226h.465v-4.226h-.465zm.257 4.457c.838-.09 1.491-.351 1.916-.819l-.344-.313c-.32.351-.846.586-1.622.67l.05.462zm1.914-.816c.421-.448.64-.963.64-1.537h-.465c0 .443-.166.847-.514 1.218l.339.319zm-5.579-7.496c0 .548.229.991.676 1.307l.269-.379a1.068 1.068 0 01-.479-.928h-.466zm.68 1.31c.413.28 1.003.53 1.758.757l.133-.446c-.735-.221-1.274-.455-1.63-.696l-.261.385zm2.057.534v-3.799h-.465v3.799h.465zm-.25-4.031c-.709.053-1.305.271-1.772.67l.302.354c.377-.322.873-.513 1.505-.559l-.035-.465zm-1.769.667a1.894 1.894 0 00-.718 1.52h.466c0-.476.18-.857.548-1.16l-.296-.36z" fill="#000"/><path d="M1.64 125.562v11.637m11.054-19.782v19.782m5.819-31.419v31.419m5.819-26.764v26.764m5.818-33.747v33.747m5.818-39.565v39.565M6.876 112.762v24.437" stroke="#000" stroke-width="2.327"/><path d="M95.315 79.597h52.366v30.255H95.315V79.597z" fill="#F5F8FA"/><path d="M111.608 98.415h-1.711v-6.37h-3.617v6.37h-1.71v-7.869h7.038v7.869zm5.773.195c-1.217 0-2.194-.396-2.933-1.189-.738-.803-1.108-1.786-1.108-2.949 0-1.162.37-2.14 1.108-2.932.739-.793 1.716-1.19 2.933-1.19 1.227 0 2.21.397 2.949 1.19.738.793 1.107 1.77 1.107 2.932 0 1.174-.369 2.156-1.107 2.95-.739.792-1.722 1.189-2.949 1.189zm0-1.515c.706 0 1.26-.25 1.661-.749.413-.51.62-1.135.62-1.874 0-.727-.207-1.34-.62-1.84-.401-.51-.955-.766-1.661-.766-.695 0-1.249.255-1.662.766-.402.5-.603 1.113-.603 1.84 0 .739.201 1.364.603 1.874.413.5.967.75 1.662.75zm7.433 1.32h-1.646v-7.869h1.711v5.295l3.617-5.295h1.71v7.869h-1.71v-5.441l-3.682 5.441zm11.198.195c-1.195 0-2.172-.385-2.933-1.156-.76-.782-1.14-1.776-1.14-2.981 0-1.195.38-2.178 1.14-2.95.761-.781 1.738-1.172 2.933-1.172 1.314 0 2.319.467 3.014 1.4l-1.124 1.043c-.435-.619-1.038-.928-1.809-.928-.717 0-1.292.244-1.727.733-.434.478-.651 1.102-.651 1.873 0 .772.217 1.402.651 1.89.435.49 1.01.733 1.727.733.75 0 1.352-.31 1.809-.928l1.124 1.043c-.695.934-1.7 1.4-3.014 1.4zm11.877-.195h-2.15l-2.411-3.242-1.092 1.124v2.118h-1.71v-7.869h1.71v3.796l3.47-3.796h2.118l-3.274 3.568 3.339 4.301z" fill="#000"/><path d="M145.354 78.433H94.152v32.583h52.366m6.981-25.601h124.514v18.619H153.499m68.657-17.455v16.291" stroke="#000" stroke-width="2.327"/><path fill="#0089C4" d="M223.32 86.579h53.529v16.291H223.32z"/><path fill="#F5F8FA" d="M153.499 86.579h67.493v16.291h-67.493z"/><path fill-rule="evenodd" clip-rule="evenodd" d="M298.161 43.488c.359-.102.871.066 1.038.434.45.993.794 2.028 1.022 3.075.088.408-.147.802-.522.873l-.158.04c-1.123.318-1.92 1.35-1.985 2.568-.07 1.294.67 2.568 1.838 3.17.366.188.55.629.419 1.005a12.782 12.782 0 01-1.331 2.743c-.212.323-.639.405-.987.186-1.051-.67-2.506-.621-3.399.128-.923.777-1.235 2.133-.774 3.374.144.39-.016.804-.37.952a12.264 12.264 0 01-2.859.8c-.386.06-.776-.21-.887-.613-.356-1.285-1.439-2.27-2.698-2.447-1.203-.172-2.451.544-2.912 1.653-.154.368-.565.522-.94.355a14.663 14.663 0 01-2.731-1.594c-.332-.244-.446-.698-.263-1.04.585-1.093.422-2.517-.407-3.543-.832-1.028-2.136-1.456-3.232-1.113-.364.103-.887-.059-1.055-.429a15.42 15.42 0 01-1.022-3.074c-.086-.403.105-.772.512-.872 1.24-.351 2.085-1.373 2.152-2.608.069-1.296-.669-2.57-1.837-3.172-.365-.188-.55-.628-.419-1.005.334-.969.783-1.892 1.331-2.743.21-.324.64-.406.987-.185 1.051.67 2.511.617 3.398-.128.924-.778 1.235-2.134.775-3.375-.144-.39.016-.804.37-.952a12.202 12.202 0 012.859-.8c.388-.06.776.209.887.613.355 1.285 1.439 2.268 2.696 2.449 1.206.169 2.455-.547 2.913-1.654.153-.366.566-.52.938-.356.95.421 1.869.957 2.734 1.593.332.244.448.699.263 1.041-.584 1.092-.42 2.516.407 3.543.81 1.002 2.085 1.437 3.249 1.108zm-6.918 4.33c.817 2.444-.382 4.953-2.679 5.602-2.297.65-4.821-.804-5.638-3.249-.817-2.444.382-4.953 2.679-5.603 2.297-.65 4.821.805 5.638 3.25z" fill="#fff"/><path d="M299.199 43.922l1.096-.363-1.096.364zm-1.038-.434l.435 1.083-.435-1.083zm2.06 3.51l1.173-.132-1.173.131zm-.522.872l-.336-1.106-.033.006-.034.009.403 1.091zm-.158.04l-.403-1.091-.016.004-.016.004.435 1.083zm-1.985 2.568l1.197.155-1.197-.156zm1.838 3.17l.502-.98h-.001l-.501.98zm.419 1.005l-1.142-.434v.001l1.142.433zm-1.331 2.743l1.035.652.004-.006-1.039-.646zm-.987.186l-.609.917.004.003.605-.92zm-3.399.128l-.84-.87h-.001l.841.87zm-.774 3.374l1.128-.285-.001-.002-1.127.287zm-.37.952l-.563-1.039h-.001l.564 1.039zm-1.366.476l-.435-1.083.435 1.083zm-1.493.324l-.291-1.114h-.004l.295 1.114zm-.887-.613l1.159-.19-.001-.003-1.158.193zm-2.698-2.447l-.077 1.115h.002l.075-1.115zm-2.912 1.653l1.12.49h.001l-1.121-.49zm-.94.355l-.433 1.013.433-1.013zm-2.731-1.594l.687-.864-.005-.004-.682.868zm-.263-1.04l-1.08-.576h-.001l1.081.576zm-.407-3.543l.93-.632h-.001l-.929.632zm-3.232-1.113l.435 1.084.016-.005.015-.005-.466-1.074zm-1.055-.429l-1.096.363 1.096-.363zm-1.022-3.074l-1.174.127.001.004 1.173-.131zm.512-.872l.396 1.093.02-.004.019-.006-.435-1.083zm2.152-2.608l1.196.155-1.196-.155zm-1.837-3.172l-.504.978.002.002.502-.98zm-.419-1.005l1.142.433.001-.001-1.143-.432zm1.331-2.743l-1.037-.648-.002.003 1.039.645zm.987-.185l.61-.917-.001-.001-.609.918zm3.398-.128l.84.87h.001l-.841-.87zm.775-3.375l-1.128.285 1.128-.285zm.37-.952l.563 1.039h.001l-.564-1.039zm2.859-.8l-.292-1.114h-.001l.293 1.114zm.887.613l-1.158.19v.002l1.158-.192zm2.696 2.449l-.078 1.115h.004l.074-1.115zm2.913-1.654l-1.121-.488 1.121.488zm.938-.356l-.431 1.013h.001l.43-1.013zm2.734 1.593l-.685.866h.001l.684-.866zm.263 1.041l-1.079-.577-.001.001 1.08.576zm.407 3.543l-.931.63.001.001.93-.631zm-6.348 11.04l-.435-1.083.435 1.083zm-5.638-3.249l1.14-.25-1.14.25zm2.679-5.603l.435 1.083-.435-1.083zm14.69-1.01c-.252-.554-.734-.897-1.171-1.067a2.24 2.24 0 00-1.399-.086l.871 2.166a.322.322 0 01-.215-.005.538.538 0 01-.278-.28l2.192-.727zm1.099 3.308a16.552 16.552 0 00-1.099-3.307l-2.192.727c.416.917.734 1.874.945 2.842l2.346-.262zm-1.359 2.11c1.077-.205 1.551-1.223 1.359-2.11l-2.346.262a.246.246 0 01.029-.185.415.415 0 01.286-.18l.672 2.214zm-.091.026l.158-.04-.806-2.183-.158.04.806 2.183zm-1.191 1.63c.044-.825.586-1.458 1.223-1.639l-.87-2.166c-1.608.455-2.661 1.885-2.747 3.495l2.394.31zm1.142 2.036c-.68-.35-1.19-1.151-1.142-2.035l-2.394-.311c-.092 1.704.877 3.452 2.534 4.305l1.002-1.959zm1.06 2.42c.293-.843-.085-1.918-1.059-2.42l-1.004 1.958a.444.444 0 01-.212-.216.267.267 0 01-.009-.19l2.284.867zm-1.434 2.954a13.785 13.785 0 001.435-2.956l-2.285-.866a11.784 11.784 0 01-1.228 2.53l2.078 1.292zm-2.631.46c.97.612 2.111.333 2.627-.454l-2.07-1.304a.39.39 0 01.259-.158.559.559 0 01.394.076l-1.21 1.84zm-1.954.08c.513-.431 1.374-.45 1.95-.083l1.218-1.835c-1.526-.971-3.574-.894-4.848.176l1.68 1.741zm-.487 2.215c-.313-.842-.082-1.737.488-2.216l-1.682-1.74c-1.277 1.074-1.67 2.891-1.06 4.53l2.254-.574zm-.933 2.277c.934-.389 1.256-1.404.934-2.275l-2.256.57a.251.251 0 010-.185.344.344 0 01.195-.187l1.127 2.077zm-1.495.522a13.173 13.173 0 001.496-.522l-1.129-2.076c-.404.169-.817.312-1.237.431l.87 2.166zm-1.637.354a13.428 13.428 0 001.637-.355l-.87-2.166a11.1 11.1 0 01-1.349.293l.582 2.228zm-2.337-1.537c.253.923 1.226 1.71 2.34 1.537l-.589-2.228a.564.564 0 01.4.093.404.404 0 01.167.218l-2.318.38zm-1.614-1.522c.679.096 1.374.654 1.615 1.525l2.316-.386c-.47-1.7-1.942-3.11-3.782-3.37l-.149 2.231zm-1.716 1.027c.299-.72 1.104-1.114 1.714-1.027l.153-2.23c-1.795-.256-3.487.782-4.11 2.28l2.243.977zm-2.494.879c1.071.477 2.134-.016 2.493-.877l-2.241-.981a.35.35 0 01.206-.184.547.547 0 01.408.017l-.866 2.025zm-2.985-1.743a16.06 16.06 0 002.985 1.742l.866-2.024a13.299 13.299 0 01-2.477-1.447l-1.374 1.729zm-.657-2.48c-.417.783-.191 1.858.662 2.483l1.364-1.735a.4.4 0 01.158.217.26.26 0 01-.023.186l-2.161-1.15zm-.257-2.336c.527.652.649 1.605.258 2.336l2.16 1.152c.778-1.455.574-3.35-.557-4.75l-1.861 1.262zm-1.835-.67c.563-.176 1.312.023 1.836.671l1.859-1.264c-1.138-1.407-2.999-2.064-4.627-1.555l.932 2.148zm-2.617-1.14c.257.569.755.909 1.194 1.073a2.27 2.27 0 001.392.077l-.87-2.167a.286.286 0 01.19.003c.044.016.196.09.286.288l-2.192.726zm-1.099-3.306a16.558 16.558 0 001.099 3.306l2.192-.726a14.28 14.28 0 01-.945-2.843l-2.346.263zm1.288-2.096c-1.063.262-1.474 1.225-1.289 2.092l2.348-.255c.007.03.01.097-.034.175a.375.375 0 01-.232.174l-.793-2.186zm1.352-1.671c-.043.791-.585 1.453-1.39 1.681l.87 2.166c1.676-.474 2.822-1.856 2.913-3.536l-2.393-.311zm-1.142-2.036c.68.35 1.19 1.15 1.142 2.036l2.393.311c.092-1.704-.874-3.452-2.532-4.306l-1.003 1.959zm-1.06-2.418c-.293.845.09 1.915 1.058 2.416l1.008-1.956a.45.45 0 01.211.215c.026.062.03.129.008.191l-2.285-.866zm1.435-2.955a13.714 13.714 0 00-1.435 2.956l2.286.864c.308-.894.722-1.746 1.227-2.53l-2.078-1.29zm2.635-.458c-.97-.617-2.119-.337-2.633.455l2.075 1.296a.394.394 0 01-.262.162.562.562 0 01-.398-.078l1.218-1.835zm1.949-.08c-.509.426-1.375.447-1.948.081l-1.221 1.833c1.529.976 3.583.89 4.849-.173l-1.68-1.742zm.487-2.22c.313.845.082 1.74-.488 2.22l1.682 1.74c1.278-1.076 1.669-2.893 1.062-4.531l-2.256.571zm.934-2.275c-.932.389-1.257 1.402-.934 2.275l2.256-.57a.26.26 0 010 .185.344.344 0 01-.195.187l-1.127-2.077zm3.13-.876a13.384 13.384 0 00-3.13.876l1.128 2.077a11.04 11.04 0 012.588-.725l-.586-2.228zm2.339 1.537c-.254-.925-1.225-1.707-2.338-1.537l.584 2.228a.565.565 0 01-.397-.092.402.402 0 01-.166-.219l2.317-.38zm1.614 1.524c-.678-.098-1.374-.656-1.615-1.526l-2.316.384c.47 1.7 1.942 3.109 3.776 3.372l.155-2.23zm1.715-1.027c-.297.716-1.1 1.113-1.719 1.026l-.147 2.231c1.795.252 3.489-.783 4.109-2.28l-2.243-.977zm2.489-.881c-1.065-.473-2.131.018-2.489.88l2.243.978a.354.354 0 01-.207.186.547.547 0 01-.408-.018l.861-2.026zm2.989 1.74a15.998 15.998 0 00-2.989-1.74l-.86 2.027c.857.38 1.691.865 2.479 1.445l1.37-1.731zm.657 2.485c.423-.787.19-1.862-.658-2.485l-1.368 1.732a.39.39 0 01-.155-.214.26.26 0 01.023-.188l2.158 1.155zm.26 2.335c-.527-.654-.649-1.607-.259-2.337l-2.16-1.152c-.778 1.455-.572 3.349.556 4.749l1.863-1.26zm1.881.655c-.66.186-1.389-.045-1.882-.656l-1.861 1.262c1.125 1.393 2.947 2.032 4.614 1.56l-.871-2.166zm-8.726 12.099c2.96-.838 4.371-3.985 3.384-6.937l-2.28.5c.647 1.938-.341 3.808-1.974 4.27l.87 2.166zm-7.213-4.082c.999 2.988 4.187 4.938 7.213 4.082l-.87-2.167c-1.567.444-3.428-.516-4.063-2.417l-2.28.502zm3.384-6.937c-2.96.837-4.371 3.984-3.384 6.937l2.28-.502c-.647-1.937.341-3.807 1.974-4.269l-.87-2.166zm7.213 4.082c-.999-2.989-4.187-4.939-7.213-4.082l.87 2.166c1.567-.444 3.427.517 4.063 2.417l2.28-.501z" fill="#000"/><circle cx="115.097" cy="94.725" r="36.074" stroke="#fff" stroke-width="4.655"/><circle cx="115.098" cy="94.725" r="39.565" stroke="#000" stroke-width="2.327"/><circle cx="115.098" cy="94.725" r="32.583" stroke="#000" stroke-width="2.327"/><path d="M170.879 156.149l-31.344-30.005 4.073-4.073c1.524-1.524 3.662-4.141 3.662-4.141l31.278 30.247a5.53 5.53 0 01-7.669 7.972z" fill="#0089C4" stroke="#000" stroke-width="2.327"/><path d="M153.362 123.68l-8.145 8.145" stroke="#000" stroke-width="2.327"/><path d="M120.335 67.96l-15.128 15.71m15.71 18.037l-11.637 12.218m25.601-37.819L96.48 115.089" stroke="#fff" stroke-width="2.327"/></svg>