<svg width="20" height="11" fill="none" xmlns="http://www.w3.org/2000/svg"><path fill-rule="evenodd" clip-rule="evenodd" d="M19.187.479h-3.24a.736.736 0 00-.645.37s-1.293 2.289-1.708 3.06c-1.117 2.073-1.84 1.422-1.84.46V1.05c0-.578-.487-1.046-1.088-1.046H8.23a1.983 1.983 0 00-1.725.77s1.238-.193 1.238 1.41c0 .397.02 1.54.04 2.5a.69.69 0 01-.453.659.738.738 0 01-.8-.182A20.172 20.172 0 014.068.86a.685.685 0 00-.62-.381H.503A.507.507 0 00.09.684a.465.465 0 00-.06.443c.894 2.357 4.746 9.766 9.142 9.766h1.85c.404 0 .73-.314.73-.703V9.117a.69.69 0 01.434-.633.74.74 0 01.777.13l2.215 2c.199.18.461.28.734.28h2.908c1.403 0 1.403-.935.638-1.66-.538-.509-2.48-2.477-2.48-2.477a.937.937 0 01-.077-1.253c.627-.794 1.654-2.094 2.09-2.65.595-.762 1.672-2.374.195-2.374z" fill="#fff"/></svg>