<svg width="384" height="320" viewBox="0 0 384 320" fill="none" xmlns="http://www.w3.org/2000/svg">
<path d="M356.979 6.3792e-05H27.0208C12.152 -0.0319362 0.0632 11.9793 0 26.8481V231.29C0.0632 246.158 12.152 258.17 27.0208 258.138H167.923V307.2H85.9456C82.4112 307.2 79.5456 310.066 79.5456 313.6C79.5456 317.134 82.4112 320 85.9456 320H298.054C301.589 320 304.454 317.134 304.454 313.6C304.454 310.066 301.589 307.2 298.054 307.2H216.077V258.138H356.979C371.848 258.17 383.937 246.158 384 231.29V26.8481C383.937 11.9793 371.848 -0.0319362 356.979 6.3792e-05ZM203.277 307.2H180.723V258.138H203.277V307.2ZM371.2 231.29C371.144 239.092 364.782 245.377 356.979 245.338H27.0208C19.2184 245.377 12.856 239.092 12.8 231.29V213.946H371.2V231.29ZM371.2 201.146H12.8V26.8481C12.856 19.0457 19.2184 12.7609 27.0208 12.8001H356.979C364.782 12.7609 371.144 19.0457 371.2 26.8481V201.146Z" fill="#E2E2E2"/>
<path d="M134.402 122.668H128.002V71.4684C128.002 67.934 125.137 65.0684 121.602 65.0684C118.068 65.0684 115.202 67.934 115.202 71.4684V122.668H89.6023C86.0679 122.668 83.2023 119.803 83.2023 116.268V71.4684C83.2023 67.934 80.3367 65.0684 76.8023 65.0684C73.2679 65.0684 70.4023 67.934 70.4023 71.4684V116.268C70.4023 126.872 78.9983 135.468 89.6023 135.468H115.202V148.268C115.202 151.803 118.068 154.668 121.602 154.668C125.137 154.668 128.002 151.803 128.002 148.268V135.468H134.402C137.937 135.468 140.802 132.603 140.802 129.068C140.802 125.534 137.937 122.668 134.402 122.668Z" fill="#E2E2E2"/>
<path d="M307.199 122.668H300.799V71.4684C300.799 67.934 297.934 65.0684 294.399 65.0684C290.865 65.0684 287.999 67.934 287.999 71.4684V122.668H262.399C258.865 122.668 255.999 119.803 255.999 116.268V71.4684C255.999 67.934 253.134 65.0684 249.599 65.0684C246.065 65.0684 243.199 67.934 243.199 71.4684V116.268C243.199 126.872 251.795 135.468 262.399 135.468H287.999V148.268C287.999 151.803 290.865 154.668 294.399 154.668C297.934 154.668 300.799 151.803 300.799 148.268V135.468H307.199C310.734 135.468 313.599 132.603 313.599 129.068C313.599 125.534 310.734 122.668 307.199 122.668Z" fill="#E2E2E2"/>
<path d="M211.198 65.0684H172.798C162.194 65.0684 153.598 73.6644 153.598 84.2684V135.468C153.598 146.072 162.194 154.668 172.798 154.668H211.198C221.802 154.668 230.398 146.072 230.398 135.468V84.2684C230.398 73.6644 221.802 65.0684 211.198 65.0684ZM217.598 135.468C217.598 139.003 214.732 141.868 211.198 141.868H172.798C169.263 141.868 166.398 139.003 166.398 135.468V84.2684C166.398 80.734 169.263 77.8684 172.798 77.8684H211.198C214.732 77.8684 217.598 80.734 217.598 84.2684V135.468Z" fill="#E2E2E2"/>
</svg>
