<svg width="20" height="20" viewBox="0 0 20 20" fill="none" xmlns="http://www.w3.org/2000/svg">
<path d="M17.498 5.06656C17.4945 4.94949 17.4479 4.83527 17.3616 4.74906L12.7497 0.137148C12.7495 0.136953 12.7493 0.136875 12.7492 0.13668C12.6645 0.0522266 12.5476 0 12.4186 0H3.48781C2.94418 0 2.50195 0.442187 2.50195 0.98582V19.0141C2.50195 19.5577 2.94414 20 3.48777 20H16.5129C17.0565 20 17.4987 19.5578 17.4987 19.0141V5.08016C17.4988 5.07555 17.4983 5.07109 17.498 5.06656ZM12.8869 1.59887L15.9 4.61195H13.0845C12.9755 4.61195 12.8869 4.52332 12.8869 4.41434V1.59887ZM16.5623 19.0142C16.5622 19.0413 16.5401 19.0634 16.513 19.0634H3.48781C3.46066 19.0634 3.43855 19.0413 3.43855 19.0142V0.98582C3.43855 0.958672 3.46066 0.936562 3.48781 0.936562H11.9504V4.41434C11.9504 5.03969 12.4591 5.54852 13.0845 5.54852H16.5623V19.0142H16.5623Z" fill="#D6D6D6"/>
<line x1="6" y1="8.5" x2="14" y2="8.5" stroke="#BEBEBE"/>
<line x1="6" y1="11.5" x2="14" y2="11.5" stroke="#BEBEBE"/>
<line x1="6" y1="14.5" x2="14" y2="14.5" stroke="#BEBEBE"/>
</svg>
