<svg width="15" height="20" viewBox="0 0 15 20" fill="none" xmlns="http://www.w3.org/2000/svg">
<path d="M7.08348 0C3.17765 0 0 3.15422 0 7.03125C0 8.34117 0.365547 9.61953 1.05737 10.7286L6.68028 19.723C6.78798 19.8953 6.97774 20 7.18183 20C7.1834 20 7.18494 20 7.18651 20C7.39236 19.9984 7.58252 19.8905 7.68826 19.7152L13.1678 10.6336C13.8215 9.54797 14.167 8.30231 14.167 7.03125C14.167 3.15422 10.9893 0 7.08348 0ZM12.1547 10.032L7.17289 18.2885L2.06078 10.1112C1.48493 9.18805 1.17271 8.12305 1.17271 7.03125C1.17271 3.80039 3.82862 1.16406 7.08348 1.16406C10.3383 1.16406 12.9903 3.80039 12.9903 7.03125C12.9903 8.09066 12.6987 9.12844 12.1547 10.032Z" fill="#B1B1B1" fill-opacity="0.83"/>
<path d="M7.08276 3.51562C5.12984 3.51562 3.54102 5.09273 3.54102 7.03125C3.54102 8.95738 5.10399 10.5469 7.08276 10.5469C9.08593 10.5469 10.6245 8.93621 10.6245 7.03125C10.6245 5.09273 9.03567 3.51562 7.08276 3.51562ZM7.08276 9.38281C5.77401 9.38281 4.71373 8.32684 4.71373 7.03125C4.71373 5.73891 5.78081 4.67969 7.08276 4.67969C8.3847 4.67969 9.44785 5.73891 9.44785 7.03125C9.44785 8.30793 8.41225 9.38281 7.08276 9.38281Z" fill="#B1B1B1" fill-opacity="0.83"/>
</svg>
