<svg width="20" height="19" viewBox="0 0 20 19" fill="none" xmlns="http://www.w3.org/2000/svg">
<path d="M18.9565 8.87168L9.95259 0.879491C9.93685 0.863866 9.92111 0.852147 9.90144 0.840428C9.70467 0.652928 9.38985 0.645116 9.18128 0.82871L0.177386 8.8209C-0.0429895 9.01621 -0.0587306 9.34824 0.134098 9.56699C0.24035 9.68418 0.385955 9.74277 0.53156 9.74277C0.657488 9.74277 0.783417 9.6998 0.885734 9.60996L2.50707 8.16855V8.4498V12.6217V17.4889C2.50707 18.2193 3.10523 18.817 3.84506 18.817C3.85686 18.817 3.86473 18.817 3.87654 18.817C3.88834 18.817 3.89622 18.817 3.90802 18.817H6.68632C7.37893 18.817 7.94167 18.2584 7.94167 17.5709V12.8326C7.94167 12.7271 8.02825 12.6412 8.1345 12.6412H11.0033C11.1096 12.6412 11.1961 12.7271 11.1961 12.8326V17.5709C11.1961 18.2584 11.7589 18.817 12.4515 18.817H15.2928C16.0405 18.817 16.6307 18.0865 16.6307 17.1529V12.8092V11.4811V8.21933L18.2521 9.66074C18.3544 9.75058 18.4803 9.79355 18.6063 9.79355C18.7519 9.79355 18.8975 9.73496 19.0037 9.61777C19.1926 9.39902 19.1729 9.06699 18.9565 8.87168ZM15.5643 11.4771V12.8053V17.1451C15.5643 17.524 15.3754 17.7545 15.2888 17.7545H12.4476C12.3413 17.7545 12.2547 17.6686 12.2547 17.5631V12.8326C12.2547 12.1451 11.692 11.5865 10.9994 11.5865H8.13056C7.43796 11.5865 6.87521 12.1451 6.87521 12.8326V17.5709C6.87521 17.6764 6.78864 17.7623 6.68239 17.7623H3.90409C3.89228 17.7623 3.88441 17.7623 3.8726 17.7623C3.8608 17.7623 3.85293 17.7623 3.84112 17.7623C3.69158 17.7623 3.56565 17.6412 3.56565 17.4889V12.6178V8.4459V7.22324L9.53939 1.92637L15.5643 7.27402V11.4771Z" fill="#B1B1B1" fill-opacity="0.83"/>
</svg>
