<svg width="20" height="16" viewBox="0 0 20 16" fill="none" xmlns="http://www.w3.org/2000/svg">
<path d="M16.6973 0.695312H2.32574C1.04285 0.695312 0 1.73047 0 3.00391V12.7539C0 14.0273 1.04285 15.0625 2.32574 15.0625H16.6934C17.9763 15.0625 19.0192 14.0273 19.0192 12.7539V3.00781C19.0231 1.73438 17.9802 0.695312 16.6973 0.695312ZM17.9606 12.7539C17.9606 13.4453 17.3939 14.0078 16.6973 14.0078H2.32574C1.6292 14.0078 1.06252 13.4453 1.06252 12.7539V3.00781C1.06252 2.31641 1.6292 1.75391 2.32574 1.75391H16.6934C17.39 1.75391 17.9566 2.31641 17.9566 3.00781V12.7539H17.9606Z" fill="#B1B1B1" fill-opacity="0.83"/>
<path d="M11.9941 7.75772L16.6455 3.61709C16.862 3.42178 16.8817 3.08975 16.6849 2.871C16.4881 2.65616 16.1536 2.63663 15.9333 2.83194L9.51877 8.54678L8.26735 7.43741C8.26342 7.4335 8.25948 7.42959 8.25948 7.42569C8.23194 7.39834 8.20439 7.37491 8.17291 7.35147L3.08067 2.82803C2.86029 2.63272 2.5258 2.65225 2.32903 2.871C2.13227 3.08975 2.15195 3.42178 2.37232 3.61709L7.0789 7.79288L2.392 12.1483C2.17949 12.3476 2.16769 12.6796 2.36839 12.8944C2.47464 13.0038 2.61631 13.0624 2.75798 13.0624C2.88784 13.0624 3.0177 13.0155 3.12002 12.9218L7.87776 8.50381L9.16853 9.64834C9.27085 9.73819 9.39678 9.78116 9.5227 9.78116C9.64863 9.78116 9.7785 9.73428 9.87688 9.64444L11.2031 8.46475L15.9333 12.9257C16.0356 13.0233 16.1694 13.0702 16.2992 13.0702C16.4409 13.0702 16.5786 13.0155 16.6849 12.9062C16.8856 12.6952 16.8777 12.3593 16.6652 12.1601L11.9941 7.75772Z" fill="#B1B1B1" fill-opacity="0.83"/>
</svg>
