<svg width="19" height="20" viewBox="0 0 19 20" fill="none" xmlns="http://www.w3.org/2000/svg">
<path d="M14.7223 12.1602C14.3406 11.7656 13.8801 11.5547 13.3922 11.5547C12.9081 11.5547 12.4438 11.7617 12.0463 12.1562L10.8028 13.3867C10.7004 13.332 10.5981 13.2812 10.4998 13.2305C10.3581 13.1602 10.2243 13.0937 10.1102 13.0234C8.94532 12.2891 7.88673 11.332 6.87143 10.0938C6.37952 9.47656 6.04896 8.95703 5.80891 8.42969C6.1316 8.13672 6.43068 7.83203 6.72189 7.53906C6.83208 7.42969 6.94227 7.31641 7.05245 7.20703C7.87886 6.38672 7.87886 5.32422 7.05245 4.50391L5.97813 3.4375C5.85613 3.31641 5.7302 3.19141 5.61215 3.06641C5.37603 2.82422 5.12811 2.57422 4.87232 2.33984C4.49059 1.96484 4.0341 1.76562 3.554 1.76562C3.0739 1.76562 2.60954 1.96484 2.21601 2.33984C2.21207 2.34375 2.21207 2.34375 2.20814 2.34766L0.870146 3.6875C0.366432 4.1875 0.0791574 4.79688 0.0161931 5.50391C-0.0782534 6.64453 0.26018 7.70703 0.519908 8.40234C1.15742 10.1094 2.10976 11.6914 3.53039 13.3867C5.25404 15.4297 7.32792 17.043 9.69696 18.1797C10.6021 18.6055 11.8102 19.1094 13.16 19.1953C13.2426 19.1992 13.3292 19.2031 13.4079 19.2031C14.317 19.2031 15.0804 18.8789 15.6786 18.2344C15.6825 18.2266 15.6904 18.2227 15.6943 18.2148C15.8989 17.9688 16.1351 17.7461 16.383 17.5078C16.5522 17.3477 16.7253 17.1797 16.8946 17.0039C17.2842 16.6016 17.4888 16.1328 17.4888 15.6523C17.4888 15.168 17.2802 14.7031 16.8828 14.3125L14.7223 12.1602ZM16.1311 16.2734C16.1272 16.2734 16.1272 16.2773 16.1311 16.2734C15.9776 16.4375 15.8202 16.5859 15.651 16.75C15.3952 16.9922 15.1355 17.2461 14.8915 17.5312C14.494 17.9531 14.0258 18.1523 13.4118 18.1523C13.3528 18.1523 13.2899 18.1523 13.2308 18.1484C12.0621 18.0742 10.9759 17.6211 10.1613 17.2344C7.93395 16.1641 5.97813 14.6445 4.35286 12.7188C3.01093 11.1133 2.11369 9.62891 1.51947 8.03516C1.15349 7.0625 1.01969 6.30469 1.07872 5.58984C1.11807 5.13281 1.29516 4.75391 1.62178 4.42969L2.96371 3.09766C3.15654 2.91797 3.36117 2.82031 3.56187 2.82031C3.80979 2.82031 4.01049 2.96875 4.13642 3.09375C4.14036 3.09766 4.14429 3.10156 4.14823 3.10547C4.38828 3.32813 4.61652 3.55859 4.85657 3.80469C4.97857 3.92969 5.1045 4.05469 5.23042 4.18359L6.30475 5.25C6.72189 5.66406 6.72189 6.04688 6.30475 6.46094C6.19063 6.57422 6.08044 6.6875 5.96632 6.79687C5.63576 7.13281 5.32094 7.44531 4.97857 7.75C4.9707 7.75781 4.96283 7.76172 4.95889 7.76953C4.62046 8.10547 4.68342 8.43359 4.75426 8.65625C4.75819 8.66797 4.76213 8.67969 4.76606 8.69141C5.04547 9.36328 5.43899 9.99609 6.03716 10.75L6.04109 10.7539C7.12722 12.082 8.27239 13.1172 9.53561 13.9102C9.69696 14.0117 9.86224 14.0938 10.0196 14.1719C10.1613 14.2422 10.2951 14.3086 10.4092 14.3789C10.425 14.3867 10.4407 14.3984 10.4565 14.4062C10.5903 14.4727 10.7162 14.5039 10.8461 14.5039C11.1727 14.5039 11.3773 14.3008 11.4442 14.2344L12.7901 12.8984C12.9239 12.7656 13.1364 12.6055 13.3843 12.6055C13.6283 12.6055 13.829 12.7578 13.951 12.8906C13.9549 12.8945 13.9549 12.8945 13.9589 12.8984L16.1272 15.0508C16.5325 15.4492 16.5325 15.8594 16.1311 16.2734Z" fill="#B1B1B1" fill-opacity="0.83"/>
<path d="M10.0623 5.0969C11.0933 5.26878 12.0299 5.75315 12.7776 6.49534C13.5253 7.23753 14.0094 8.16722 14.1865 9.19065C14.2297 9.44847 14.4541 9.62815 14.7098 9.62815C14.7413 9.62815 14.7689 9.62425 14.8004 9.62034C15.0916 9.57347 15.2844 9.30003 15.2372 9.01097C15.0247 7.77269 14.4344 6.64378 13.5332 5.74925C12.632 4.85472 11.4947 4.26878 10.2473 4.05784C9.95604 4.01097 9.68451 4.20237 9.63335 4.48753C9.58219 4.77269 9.77109 5.05003 10.0623 5.0969Z" fill="#B1B1B1" fill-opacity="0.83"/>
<path d="M18.6113 8.8596C18.261 6.82054 17.2929 4.96507 15.8054 3.48851C14.3179 2.01195 12.4486 1.05101 10.3944 0.703352C10.1071 0.652571 9.83561 0.847883 9.78445 1.13304C9.73723 1.4221 9.93006 1.69163 10.2213 1.74241C12.0551 2.05101 13.7276 2.91429 15.0577 4.2307C16.3878 5.55101 17.2536 7.21117 17.5645 9.03148C17.6078 9.28929 17.8321 9.46898 18.0879 9.46898C18.1194 9.46898 18.1469 9.46507 18.1784 9.46117C18.4657 9.4182 18.6624 9.14476 18.6113 8.8596Z" fill="#B1B1B1" fill-opacity="0.83"/>
</svg>
