<svg width="244" height="244" viewBox="0 0 244 244" fill="none" xmlns="http://www.w3.org/2000/svg">
<path d="M229.703 0H60.0469C52.1836 0 45.75 6.43359 45.75 14.2969V30.5C45.75 33.1211 47.8945 35.2656 50.5156 35.2656C53.1367 35.2656 55.2812 33.1211 55.2812 30.5V14.2969C55.2812 11.6758 57.4258 9.53125 60.0469 9.53125H229.703C232.324 9.53125 234.469 11.6758 234.469 14.2969V229.703C234.469 232.324 232.324 234.469 229.703 234.469H60.0469C57.4258 234.469 55.2812 232.324 55.2812 229.703V214.31C55.2812 211.689 53.1367 209.545 50.5156 209.545C47.8945 209.545 45.75 211.689 45.75 214.31V229.703C45.75 237.566 52.1836 244 60.0469 244H229.703C237.566 244 244 237.566 244 229.703V14.2969C244 6.43359 237.566 0 229.703 0Z" fill="#E4E4E4"/>
<path d="M206.781 183.953H92.4062C89.7852 183.953 87.6406 186.098 87.6406 188.719C87.6406 191.34 89.7852 193.484 92.4062 193.484H206.781C209.402 193.484 211.547 191.34 211.547 188.719C211.547 186.098 209.402 183.953 206.781 183.953Z" fill="#E4E4E4"/>
<path d="M210.165 210.116C209.259 209.211 208.068 208.734 206.781 208.734C205.542 208.734 204.303 209.259 203.398 210.116C202.492 211.022 202.016 212.213 202.016 213.5C202.016 214.787 202.54 215.978 203.398 216.884C204.303 217.789 205.495 218.266 206.781 218.266C208.02 218.266 209.259 217.741 210.165 216.884C211.07 215.978 211.547 214.787 211.547 213.5C211.547 212.213 211.023 211.022 210.165 210.116Z" fill="#E4E4E4"/>
<path d="M187.29 208.734H92.4062C89.7852 208.734 87.6406 210.879 87.6406 213.5C87.6406 216.121 89.7852 218.266 92.4062 218.266H187.29C189.911 218.266 192.055 216.121 192.055 213.5C192.055 210.879 189.911 208.734 187.29 208.734Z" fill="#E4E4E4"/>
<path d="M125.812 19.0625C84.9234 19.0625 51.6117 52.3266 51.6117 93.2633C51.6117 116.901 62.7156 138.013 80.0148 151.595L24.7336 206.923C21.2547 210.402 15.6313 210.402 12.1523 206.923C10.4367 205.255 9.53125 203.016 9.53125 200.633C9.53125 198.25 10.4367 196.01 12.1523 194.342L40.4602 166.034C42.3188 164.176 42.3188 161.173 40.4602 159.315C38.6016 157.456 35.5992 157.456 33.7406 159.315L5.43281 187.623C1.90625 191.102 0 195.724 0 200.633C0 205.541 1.90625 210.164 5.38516 213.643C8.95938 217.217 13.6773 219.028 18.3953 219.028C23.1133 219.028 27.8313 217.217 31.4055 213.643L87.9734 157.075C99.0297 163.652 111.945 167.416 125.765 167.416C166.654 167.416 199.966 134.152 199.966 93.2156C199.966 52.2789 166.702 19.0625 125.812 19.0625ZM125.812 157.933C90.1656 157.933 61.143 128.91 61.143 93.2633C61.143 57.6164 90.1656 28.5938 125.812 28.5938C161.459 28.5938 190.482 57.6164 190.482 93.2633C190.482 128.91 161.459 157.933 125.812 157.933Z" fill="#E4E4E4"/>
<path d="M55.4227 144.304C54.5172 143.398 53.3258 142.922 52.0391 142.922C50.8 142.922 49.5609 143.446 48.6555 144.304C47.75 145.209 47.2734 146.401 47.2734 147.688C47.2734 148.927 47.7977 150.166 48.6555 151.071C49.5609 151.977 50.7523 152.453 52.0391 152.453C53.2781 152.453 54.5172 151.929 55.4227 151.071C56.3281 150.166 56.8047 148.974 56.8047 147.688C56.8047 146.448 56.3281 145.209 55.4227 144.304Z" fill="#E4E4E4"/>
</svg>
