<svg width="36" height="36" viewBox="0 0 36 36" fill="none" xmlns="http://www.w3.org/2000/svg">
<path d="M17.9995 1C8.61106 1 1 8.61158 1 17.9997C1 27.3877 8.61106 35 17.9995 35C27.388 35 35 27.3882 35 17.9997C35 8.61113 27.388 1 17.9995 1ZM16.1089 17.9997C16.1089 18.3547 16.0442 18.6922 15.9311 19.0084L20.6762 21.2912C21.2223 20.6934 22.0057 20.3171 22.8789 20.3171C24.5283 20.3171 25.8656 21.654 25.8656 23.3032C25.8656 24.9528 24.5279 26.2902 22.8782 26.2902C21.2289 26.2902 19.8909 24.9528 19.8909 23.3032C19.8909 23.1451 19.9073 22.9907 19.9309 22.8397L14.8798 20.4103C14.386 20.7716 13.7793 20.987 13.1209 20.987C11.4713 20.987 10.1338 19.6501 10.1338 17.9994C10.1338 16.3504 11.4713 15.0133 13.1209 15.0133C13.7793 15.0133 14.3862 15.2288 14.8801 15.5897L19.9316 13.1609C19.9078 13.0095 19.8915 12.8558 19.8915 12.6974C19.8915 11.0475 21.2292 9.71035 22.8789 9.71035C24.5283 9.71035 25.866 11.0475 25.866 12.6974C25.866 14.3469 24.5283 15.6844 22.8789 15.6844C22.0062 15.6844 21.2223 15.3072 20.6762 14.7099L15.9311 16.9918C16.0443 17.3075 16.1089 17.6458 16.1089 17.9997Z" stroke="#C40001"/>
</svg>
