<svg width="40" height="40" viewBox="0 0 40 40" fill="none" xmlns="http://www.w3.org/2000/svg">
<path d="M19.9995 0C8.95419 0 0 8.9548 0 19.9996C0 31.0444 8.95419 40 19.9995 40C31.0447 40 40 31.0449 40 19.9996C40 8.95427 31.0447 0 19.9995 0ZM17.7752 19.9996C17.7752 20.4173 17.6991 20.8144 17.566 21.1864L23.1484 23.872C23.791 23.1687 24.7126 22.726 25.7399 22.726C27.6803 22.726 29.2537 24.2988 29.2537 26.2391C29.2537 28.1797 27.6799 29.7532 25.7391 29.7532C23.7987 29.7532 22.2246 28.1797 22.2246 26.2391C22.2246 26.0531 22.2439 25.8715 22.2716 25.6937L16.3292 22.8356C15.7482 23.2607 15.0345 23.5141 14.2598 23.5141C12.3191 23.5141 10.7457 21.9413 10.7457 19.9993C10.7457 18.0593 12.3191 16.4863 14.2598 16.4863C15.0345 16.4863 15.7485 16.7397 16.3296 17.1644L22.2724 14.3069C22.2444 14.1288 22.2253 13.948 22.2253 13.7616C22.2253 11.8205 23.7991 10.2475 25.7399 10.2475C27.6803 10.2475 29.2541 11.8205 29.2541 13.7616C29.2541 15.7023 27.6803 17.2757 25.7399 17.2757C24.7132 17.2757 23.791 16.832 23.1484 16.1293L17.566 18.8139C17.6992 19.1853 17.7752 19.5833 17.7752 19.9996Z" fill="#B1B1B1"/>
</svg>
