<svg width="52" height="49" fill="none" xmlns="http://www.w3.org/2000/svg"><path fill-rule="evenodd" clip-rule="evenodd" d="m20.524 18.93-1.91-1.79c1.075-1.074 3.962-3.198 6.921-3.102 3.128.1 4.294 1.396 5.3 2.515.185.204.363.403.547.587a48.3 48.3 0 0 1 .56-.328c2.833-1.648 9.586-5.573 14.475-16.02H49.4L36.752 22.748h2.983l-.954 2.864h-6.444l5.25-9.665c-1.113.875-3.77 2.816-5.489 3.58 0 2.863-1.79 7.16-7.636 7.16-4.678 0-6.882-3.422-7.399-5.132 2.626-.12 8.711-.93 12.052-3.222-1.551-2.625-6.682-2.028-8.591.597Zm1.79 4.415c1.431-.239 4.796-1.026 6.801-2.267-.954 3.102-4.415 3.102-6.801 2.267Zm16.347 4.534h-2.148c-2.863-1.79-4.773-1.79-7.994 0-2.761 1.534-4.208.79-6.142-.205-.323-.167-.66-.34-1.018-.51-2.005-.955-4.097-.398-4.892 0 .159.238.62 1.002 1.193 2.147 2.213-.392 3.183.256 4.179.921.82.548 1.657 1.108 3.22 1.108 2.55 0 5.137-1.238 6.703-1.987l.336-.161c.358-.16 1.36-.286 2.506.477-1.67 2.148-5.011 4.296-8.83 4.296-3.818 0-11.455-2.267-11.455-10.381 0-9.666 8.95-11.336 11.455-11.336 2.005 0 4.574 1.034 5.608 1.551l1.432-2.267c-.954-.597-3.699-1.79-7.04-1.79-10.143 0-13.842 7.875-13.842 13.842 0 5.966 4.296 13.006 13.842 13.006 7.637 0 11.773-5.807 12.887-8.71ZM7.787 46.14l-2.167-.68c-.109.525-.285.925-.53 1.2-.24.277-.596.414-1.07.414-.488 0-.866-.17-1.136-.51-.269-.343-.404-.975-.404-1.897 0-.743.113-1.289.339-1.636.298-.468.728-.703 1.289-.703.247 0 .471.053.671.159.2.106.37.257.508.453.084.117.164.302.24.555l2.185-.504c-.28-.876-.71-1.525-1.289-1.948-.575-.423-1.367-.635-2.375-.635-1.29 0-2.287.37-2.993 1.11C.351 42.256 0 43.31 0 44.684c0 1.031.2 1.877.6 2.538.401.66.876 1.123 1.426 1.387.553.26 1.265.39 2.135.39.718 0 1.307-.107 1.77-.322a3.002 3.002 0 0 0 1.168-.957c.313-.423.543-.95.688-1.58Zm8.87 2.714V40.55h-2.31l-3.015 4.593V40.55H9v8.303h2.332l2.998-4.56v4.56h2.326Zm7.994-6.264H20.78v6.264h-2.468V40.55h6.34v2.039Zm3.605-2.039h-2.474v8.303h2.474v-3.359h2.703v3.359h2.485V40.55h-2.485v2.905h-2.703V40.55Zm11.757 6.932h-2.818l-.388 1.37H34.28l3.009-8.302h2.698l3.009 8.303h-2.589l-.393-1.37Zm-.519-1.795-.884-2.985-.88 2.985h1.764Zm9.82 3.166h2.473V40.55h-6.875v5.494c0 .407-.07.689-.208.844-.138.15-.375.226-.71.226h-.371v1.682c.35.06.659.09.928.09.881 0 1.519-.114 1.912-.345.397-.23.648-.59.753-1.081.11-.495.164-1.267.164-2.317V42.59h1.933v6.264Z" fill="#fff"/></svg>