<svg width="390" height="96" fill="none" xmlns="http://www.w3.org/2000/svg"><path fill="#000" d="M0 0h390v75H0z"/><path fill-rule="evenodd" clip-rule="evenodd" d="M167.179 75H390V0l-50.907 9.754-.116.022-.452.087-.018.003C225.706 31.478 112.739 53.121 0 74.994V75h167.179z" fill="#191A21"/><path d="M51.213 74.213h21.213L51.213 95.426 30 74.213h21.213z" fill="#191A21"/><path d="M70 17l7.053 10.292 11.968 3.528-7.608 9.888.343 12.472L70 49l-11.756 4.18.343-12.472-7.608-9.888 11.968-3.528L70 17zm64 0l7.053 10.292 11.968 3.528-7.608 9.888.343 12.472L134 49l-11.756 4.18.343-12.472-7.608-9.888 11.968-3.528L134 17zm64 0l7.053 10.292 11.968 3.528-7.608 9.888.343 12.472L198 49l-11.756 4.18.343-12.472-7.608-9.888 11.968-3.528L198 17zm64 0l7.053 10.292 11.968 3.528-7.608 9.888.343 12.472L262 49l-11.756 4.18.343-12.472-7.608-9.888 11.968-3.528L262 17z" fill="#CB010B"/><path d="M326 17l7.053 10.292 11.968 3.528-7.608 9.888.343 12.472L326 49l-11.756 4.18.343-12.472-7.608-9.888 11.968-3.528L326 17z" fill="#fff"/></svg>