<svg width="232" height="80" fill="none" xmlns="http://www.w3.org/2000/svg"><path fill="#000" d="M0 0h232v80H0z"/><path fill-rule="evenodd" clip-rule="evenodd" d="M99.45 80H232V35l-30.567 5.907-.054.01-.007.002h-.003C134.266 53.888 67.065 66.873 0 79.997V80h99.45z" fill="#191A21"/><path d="M36 25l5.29 7.719 8.976 2.646-5.706 7.416.257 9.354L36 49l-8.817 3.135.258-9.354-5.707-7.416 8.976-2.646L36 25zm40 0l5.29 7.719 8.976 2.646-5.707 7.416.258 9.354L76 49l-8.817 3.135.257-9.354-5.706-7.416 8.976-2.646L76 25zm40 0l5.29 7.719 8.976 2.646-5.706 7.416.257 9.354L116 49l-8.817 3.135.257-9.354-5.706-7.416 8.976-2.646L116 25zm40 0l5.29 7.719 8.976 2.646-5.706 7.416.257 9.354L156 49l-8.817 3.135.257-9.354-5.706-7.416 8.976-2.646L156 25z" fill="#CB010B"/><path d="M196 25l5.29 7.719 8.976 2.646-5.706 7.416.257 9.354L196 49l-8.817 3.135.257-9.354-5.706-7.416 8.976-2.646L196 25z" fill="#fff"/></svg>