<svg width="40" height="40" fill="none" xmlns="http://www.w3.org/2000/svg"><path d="M14 27.556h.02M14 6.778h-4c-1.06 0-2.078.398-2.828 1.106A3.675 3.675 0 006 10.556v22.666c0 1.002.421 1.963 1.172 2.672A4.122 4.122 0 0010 37h20c1.06 0 2.078-.398 2.828-1.106A3.674 3.674 0 0034 33.222V10.556a3.674 3.674 0 00-1.172-2.672A4.122 4.122 0 0030 6.778H14zm0 0a3.67 3.67 0 001.172 2.671A4.123 4.123 0 0018 10.556h4a4.12 4.12 0 002.828-1.107A3.674 3.674 0 0026 6.778H14zm0 0c0-1.002.421-1.963 1.172-2.672A4.122 4.122 0 0118 3h4c1.06 0 2.078.398 2.828 1.106A3.674 3.674 0 0126 6.778H14zM20 20h6-6zm0 7.556h6-6zM14 20h.02H14z" stroke="#fff" stroke-width="3" stroke-linecap="round" stroke-linejoin="round"/></svg>