<svg width="40" height="40" fill="none" xmlns="http://www.w3.org/2000/svg"><path d="M28.333 15H27.5h.833zM11.667 25h5c.133-1.133.383-2.266.833-3.333h-5.833V25zm8.166-6.833A10.884 10.884 0 0127.5 15H11.667v3.334H19.7c.05-.05.083-.1.133-.167zm0 15.333c.6.584 1.25 1.067 1.934 1.5H8.333A3.333 3.333 0 015 31.667V8.334C5 6.5 6.5 5 8.333 5H15.3c.533-1.4 1.6-2.5 3.033-3 2.55-.933 5.417.4 6.367 3h6.967A3.333 3.333 0 0135 8.334v9.7a10.734 10.734 0 00-3.333-2.2v-7.5h-3.334v3.333H11.667V8.334H8.333v23.333h10.05c.4.65.9 1.267 1.45 1.833zm-1.5-26.833c0 .917.75 1.667 1.667 1.667s1.667-.75 1.667-1.667S20.917 5 20 5s-1.667.75-1.667 1.667zM38.983 35l-2.316 2.317-5.2-5.117a7.496 7.496 0 01-3.967 1.134 7.469 7.469 0 01-7.5-7.5c0-4.167 3.333-7.5 7.5-7.5s7.5 3.333 7.5 7.5c0 1.466-.417 2.85-1.15 4L38.983 35zm-7.316-9.166a4.167 4.167 0 10-8.334 0 4.167 4.167 0 008.334 0z" fill="#fff"/></svg>