<svg width="1190" height="641" fill="none" xmlns="http://www.w3.org/2000/svg"><path d="M79.144 65.068c18.5 0 32.505 3.888 42.014 11.665 9.509 7.605 14.264 18.838 14.264 33.701 0 12.443-3.198 23.244-9.596 32.404-6.397 8.987-15.647 15.9-27.75 20.739-12.102 4.839-26.366 7.258-42.791 7.258H-6.44l2.852-48.995L-6.439 3.11h132.265l2.594 3.63-3.112 37.848-43.31-1.555H45.17l-.518 22.035h34.492zm-13.226 71.289c4.84-1.555 8.472-3.975 10.892-7.258 2.594-3.284 3.89-7.259 3.89-11.925 0-5.53-1.642-9.765-4.927-12.703-3.285-2.938-7.953-4.32-14.005-4.147l-17.895.518-.518 15.813.778 18.147 21.785 1.555z" fill="#000"/><path d="M79.144 65.068c18.5 0 32.505 3.888 42.014 11.665 9.509 7.605 14.264 18.838 14.264 33.701 0 12.443-3.198 23.244-9.596 32.404-6.397 8.987-15.647 15.9-27.75 20.739-12.102 4.839-26.366 7.258-42.791 7.258H-6.44l2.852-48.995L-6.439 3.11h132.265l2.594 3.63-3.112 37.848-43.31-1.555H45.17l-.518 22.035h34.492zm-13.226 71.289c4.84-1.555 8.472-3.975 10.892-7.258 2.594-3.284 3.89-7.259 3.89-11.925 0-5.53-1.642-9.765-4.927-12.703-3.285-2.938-7.953-4.32-14.005-4.147l-17.895.518-.518 15.813.778 18.147 21.785 1.555z" fill="#F2F1F4"/><path d="M231.669 61.438c16.771 0 29.479 4.062 38.124 12.184 8.818 7.95 13.227 19.53 13.227 34.738 0 12.789-3.026 23.85-9.077 33.182-5.879 9.332-14.524 16.591-25.935 21.776-11.238 5.011-24.551 7.517-39.939 7.517h-57.056l2.853-48.995-2.853-118.988h52.647l-1.556 58.587h29.565zm114.371 54.958l2.075 54.439h-52.128l2.593-49.254-2.593-118.47h52.906l-2.853 113.285zM218.443 135.58c3.112-1.556 5.619-4.148 7.521-7.777 2.074-3.63 3.112-7.778 3.112-12.444 0-5.53-1.383-9.937-4.15-13.221-2.766-3.456-6.397-5.098-10.892-4.925l-12.708.518-.519 18.924.778 17.628 16.858 1.297z" fill="#000"/><path d="M231.669 61.438c16.771 0 29.479 4.062 38.124 12.184 8.818 7.95 13.227 19.53 13.227 34.738 0 12.789-3.026 23.85-9.077 33.182-5.879 9.332-14.524 16.591-25.935 21.776-11.238 5.011-24.551 7.517-39.939 7.517h-57.056l2.853-48.995-2.853-118.988h52.647l-1.556 58.587h29.565zm114.371 54.958l2.075 54.439h-52.128l2.593-49.254-2.593-118.47h52.906l-2.853 113.285zM218.443 135.58c3.112-1.556 5.619-4.148 7.521-7.777 2.074-3.63 3.112-7.778 3.112-12.444 0-5.53-1.383-9.937-4.15-13.221-2.766-3.456-6.397-5.098-10.892-4.925l-12.708.518-.519 18.924.778 17.628 16.858 1.297z" fill="#F2F1F4"/><path d="M457.088.26c14.869 0 28.874 2.332 42.014 6.999l-8.818 41.218-3.371 2.074c-4.495-2.42-9.682-4.32-15.561-5.704-5.878-1.555-11.324-2.333-16.338-2.333-10.547 0-18.155 3.111-22.823 9.333-4.668 6.049-7.002 16.245-7.002 30.59 0 16.763 2.68 29.034 8.04 36.811 5.359 7.604 13.745 11.406 25.156 11.406 4.841 0 10.201-.432 16.079-1.296 6.052-1.037 11.325-2.42 15.82-4.148l4.15 2.593-4.15 40.959c-10.373 3.283-22.39 4.925-36.048 4.925-27.837 0-48.844-7.259-63.021-21.776-14.005-14.517-21.007-35.688-21.007-63.512 0-27.997 7.521-49.687 22.563-65.068C407.986 7.95 429.425.26 457.088.26z" fill="#000"/><path d="M457.088.26c14.869 0 28.874 2.332 42.014 6.999l-8.818 41.218-3.371 2.074c-4.495-2.42-9.682-4.32-15.561-5.704-5.878-1.555-11.324-2.333-16.338-2.333-10.547 0-18.155 3.111-22.823 9.333-4.668 6.049-7.002 16.245-7.002 30.59 0 16.763 2.68 29.034 8.04 36.811 5.359 7.604 13.745 11.406 25.156 11.406 4.841 0 10.201-.432 16.079-1.296 6.052-1.037 11.325-2.42 15.82-4.148l4.15 2.593-4.15 40.959c-10.373 3.283-22.39 4.925-36.048 4.925-27.837 0-48.844-7.259-63.021-21.776-14.005-14.517-21.007-35.688-21.007-63.512 0-27.997 7.521-49.687 22.563-65.068C407.986 7.95 429.425.26 457.088.26z" fill="#F2F1F4"/><path d="M637.849 6.74l-2.852 37.848-34.234-1.555h-3.112l-1.297 73.363 2.075 54.439H546.56l2.594-49.254-1.297-78.548h-3.372l-34.492 1.555-3.113-3.629 2.853-37.848h125.264l2.852 3.63z" fill="#000"/><path d="M637.849 6.74l-2.852 37.848-34.234-1.555h-3.112l-1.297 73.363 2.075 54.439H546.56l2.594-49.254-1.297-78.548h-3.372l-34.492 1.555-3.113-3.629 2.853-37.848h125.264l2.852 3.63z" fill="#F2F1F4"/><path d="M732.938 2.852c18.845 0 33.282 4.666 43.31 13.998 10.201 9.16 15.302 22.294 15.302 39.404 0 13.307-3.112 25.06-9.337 35.256-6.224 10.023-15.042 17.887-26.453 23.59-11.411 5.53-24.551 8.296-39.42 8.296h-12.708l1.815 47.439h-52.128l2.593-49.254-2.593-118.47 79.619-.26zm-9.337 84.25c4.669-2.592 8.04-5.875 10.115-9.85 2.247-4.148 3.371-9.419 3.371-15.813 0-7.605-1.815-13.135-5.446-16.592-3.631-3.629-9.336-5.616-17.117-5.962l-9.336.778-1.038 46.403 19.451 1.037z" fill="#000"/><path d="M732.938 2.852c18.845 0 33.282 4.666 43.31 13.998 10.201 9.16 15.302 22.294 15.302 39.404 0 13.307-3.112 25.06-9.337 35.256-6.224 10.023-15.042 17.887-26.453 23.59-11.411 5.53-24.551 8.296-39.42 8.296h-12.708l1.815 47.439h-52.128l2.593-49.254-2.593-118.47 79.619-.26zm-9.337 84.25c4.669-2.592 8.04-5.875 10.115-9.85 2.247-4.148 3.371-9.419 3.371-15.813 0-7.605-1.815-13.135-5.446-16.592-3.631-3.629-9.336-5.616-17.117-5.962l-9.336.778-1.038 46.403 19.451 1.037z" fill="#F2F1F4"/><path d="M885.807 0c24.379 0 43.224 7.259 56.537 21.776 13.313 14.344 19.97 34.65 19.97 60.92 0 29.034-7.348 51.501-22.045 67.401-14.523 15.899-35.184 23.849-61.983 23.849-24.378 0-43.224-7.258-56.537-21.775-13.313-14.69-19.97-35.429-19.97-62.217 0-28.688 7.262-50.81 21.785-66.364C838.261 7.863 859.008 0 885.807 0zm-4.668 41.477c-6.743 0-11.843 1.21-15.301 3.63-3.458 2.246-5.965 6.308-7.521 12.184-1.384 5.876-2.075 14.43-2.075 25.664 0 14.344.778 25.232 2.334 32.663 1.556 7.432 4.149 12.617 7.78 15.555 3.804 2.938 9.337 4.407 16.598 4.407 6.743 0 11.844-1.124 15.302-3.37 3.458-2.42 5.878-6.568 7.261-12.444 1.556-6.049 2.334-14.69 2.334-25.923 0-14.172-.778-24.973-2.334-32.405-1.556-7.43-4.236-12.616-8.039-15.553-3.631-2.938-9.077-4.407-16.339-4.407z" fill="#000"/><path d="M885.807 0c24.379 0 43.224 7.259 56.537 21.776 13.313 14.344 19.97 34.65 19.97 60.92 0 29.034-7.348 51.501-22.045 67.401-14.523 15.899-35.184 23.849-61.983 23.849-24.378 0-43.224-7.258-56.537-21.775-13.313-14.69-19.97-35.429-19.97-62.217 0-28.688 7.262-50.81 21.785-66.364C838.261 7.863 859.008 0 885.807 0zm-4.668 41.477c-6.743 0-11.843 1.21-15.301 3.63-3.458 2.246-5.965 6.308-7.521 12.184-1.384 5.876-2.075 14.43-2.075 25.664 0 14.344.778 25.232 2.334 32.663 1.556 7.432 4.149 12.617 7.78 15.555 3.804 2.938 9.337 4.407 16.598 4.407 6.743 0 11.844-1.124 15.302-3.37 3.458-2.42 5.878-6.568 7.261-12.444 1.556-6.049 2.334-14.69 2.334-25.923 0-14.172-.778-24.973-2.334-32.405-1.556-7.43-4.236-12.616-8.039-15.553-3.631-2.938-9.077-4.407-16.339-4.407z" fill="#F2F1F4"/><path d="M103.523 300.539c10.892 3.111 18.759 7.777 23.6 13.999 5.014 6.048 7.521 13.998 7.521 23.849 0 17.455-7.175 30.244-21.525 38.367-14.178 7.95-35.444 11.925-63.8 11.925-15.733 0-34.32-.605-55.758-1.815l2.593-49.255-2.593-118.47 74.95-.259c19.019 0 33.888 3.716 44.608 11.147 10.719 7.259 16.079 17.887 16.079 31.886 0 8.641-2.248 16.332-6.743 23.072-4.322 6.567-10.633 11.752-18.932 15.554zm-27.231-31.108c0-6.049-2.162-10.197-6.484-12.443-4.15-2.42-12.016-3.63-23.6-3.63h-2.334l-1.038 34.219 19.451.778c4.841-1.555 8.385-3.802 10.633-6.74 2.248-2.938 3.372-6.999 3.372-12.184zM59.175 354.46c7.089 0 12.621-1.556 16.598-4.667 4.15-3.11 6.224-7.604 6.224-13.48 0-3.975-1.21-7.172-3.63-9.591-2.248-2.42-5.966-4.494-11.153-6.222l-25.156.518-.26 11.407.779 20.998c8.645.691 14.177 1.037 16.598 1.037z" fill="#000"/><path d="M103.523 300.539c10.892 3.111 18.759 7.777 23.6 13.999 5.014 6.048 7.521 13.998 7.521 23.849 0 17.455-7.175 30.244-21.525 38.367-14.178 7.95-35.444 11.925-63.8 11.925-15.733 0-34.32-.605-55.758-1.815l2.593-49.255-2.593-118.47 74.95-.259c19.019 0 33.888 3.716 44.608 11.147 10.719 7.259 16.079 17.887 16.079 31.886 0 8.641-2.248 16.332-6.743 23.072-4.322 6.567-10.633 11.752-18.932 15.554zm-27.231-31.108c0-6.049-2.162-10.197-6.484-12.443-4.15-2.42-12.016-3.63-23.6-3.63h-2.334l-1.038 34.219 19.451.778c4.841-1.555 8.385-3.802 10.633-6.74 2.248-2.938 3.372-6.999 3.372-12.184zM59.175 354.46c7.089 0 12.621-1.556 16.598-4.667 4.15-3.11 6.224-7.604 6.224-13.48 0-3.975-1.21-7.172-3.63-9.591-2.248-2.42-5.966-4.494-11.153-6.222l-25.156.518-.26 11.407.779 20.998c8.645.691 14.177 1.037 16.598 1.037z" fill="#F2F1F4"/><path d="M233.189 277.467c16.771 0 29.479 4.061 38.124 12.184 8.817 7.95 13.226 19.529 13.226 34.738 0 12.788-3.026 23.849-9.077 33.182-5.878 9.332-14.523 16.59-25.934 21.775-11.239 5.012-24.552 7.518-39.939 7.518h-57.056l2.853-48.995-2.853-118.989h52.647l-1.556 58.587h29.565zm114.371 54.958l2.075 54.439h-52.129l2.594-49.255-2.594-118.47h52.907l-2.853 113.286zm-127.598 19.183c3.112-1.555 5.619-4.148 7.521-7.777 2.075-3.629 3.112-7.777 3.112-12.443 0-5.53-1.383-9.937-4.149-13.221-2.766-3.457-6.397-5.098-10.892-4.926l-12.708.519-.519 18.924.778 17.628 16.857 1.296z" fill="#000"/><path d="M233.189 277.467c16.771 0 29.479 4.061 38.124 12.184 8.817 7.95 13.226 19.529 13.226 34.738 0 12.788-3.026 23.849-9.077 33.182-5.878 9.332-14.523 16.59-25.934 21.775-11.239 5.012-24.552 7.518-39.939 7.518h-57.056l2.853-48.995-2.853-118.989h52.647l-1.556 58.587h29.565zm114.371 54.958l2.075 54.439h-52.129l2.594-49.255-2.594-118.47h52.907l-2.853 113.286zm-127.598 19.183c3.112-1.555 5.619-4.148 7.521-7.777 2.075-3.629 3.112-7.777 3.112-12.443 0-5.53-1.383-9.937-4.149-13.221-2.766-3.457-6.397-5.098-10.892-4.926l-12.708.519-.519 18.924.778 17.628 16.857 1.296z" fill="#F2F1F4"/><path d="M486.877 222.769l-3.113 37.848-37.605-1.556h-13.486l-1.815 73.364 2.075 54.439h-52.128l2.593-49.255-2.593-118.47h103.478l2.594 3.63z" fill="#000"/><path d="M486.877 222.769l-3.113 37.848-37.605-1.556h-13.486l-1.815 73.364 2.075 54.439h-52.128l2.593-49.255-2.593-118.47h103.478l2.594 3.63z" fill="#F2F1F4"/><path d="M565.425 216.029c24.379 0 43.225 7.258 56.538 21.775 13.313 14.345 19.969 34.651 19.969 60.92 0 29.035-7.348 51.502-22.044 67.401-14.523 15.9-35.185 23.85-61.984 23.85-24.378 0-43.224-7.259-56.537-21.776-13.313-14.69-19.969-35.429-19.969-62.216 0-28.689 7.261-50.81 21.785-66.364 14.696-15.727 35.444-23.59 62.242-23.59zm-4.668 41.477c-6.743 0-11.843 1.21-15.301 3.629-3.458 2.247-5.965 6.308-7.521 12.184-1.383 5.876-2.075 14.431-2.075 25.665 0 14.344.778 25.232 2.334 32.663 1.556 7.431 4.15 12.616 7.781 15.554 3.803 2.938 9.336 4.407 16.598 4.407 6.743 0 11.843-1.123 15.301-3.37 3.458-2.419 5.879-6.567 7.262-12.443 1.556-6.049 2.334-14.69 2.334-25.924 0-14.171-.778-24.973-2.334-32.404-1.556-7.431-4.236-12.616-8.04-15.554-3.631-2.938-9.077-4.407-16.339-4.407z" fill="#000"/><path d="M565.425 216.029c24.379 0 43.225 7.258 56.538 21.775 13.313 14.345 19.969 34.651 19.969 60.92 0 29.035-7.348 51.502-22.044 67.401-14.523 15.9-35.185 23.85-61.984 23.85-24.378 0-43.224-7.259-56.537-21.776-13.313-14.69-19.969-35.429-19.969-62.216 0-28.689 7.261-50.81 21.785-66.364 14.696-15.727 35.444-23.59 62.242-23.59zm-4.668 41.477c-6.743 0-11.843 1.21-15.301 3.629-3.458 2.247-5.965 6.308-7.521 12.184-1.383 5.876-2.075 14.431-2.075 25.665 0 14.344.778 25.232 2.334 32.663 1.556 7.431 4.15 12.616 7.781 15.554 3.803 2.938 9.336 4.407 16.598 4.407 6.743 0 11.843-1.123 15.301-3.37 3.458-2.419 5.879-6.567 7.262-12.443 1.556-6.049 2.334-14.69 2.334-25.924 0-14.171-.778-24.973-2.334-32.404-1.556-7.431-4.236-12.616-8.04-15.554-3.631-2.938-9.077-4.407-16.339-4.407z" fill="#F2F1F4"/><path d="M836.167 344.868v77.511l-37.605 2.592-6.484-38.107h-95.957l-5.965 35.515-38.383 2.592v-80.103H665c7.953-3.111 14.004-7.604 18.154-13.48 4.322-5.876 7.78-14.517 10.373-25.924 2.767-11.406 5.447-28.256 8.04-50.55l4.15-35.775h109.962l-2.853 113.286.519 12.443h22.822zm-71.06 0l.259-7.259-1.815-80.103h-16.858l-.778 6.999c-2.766 22.467-5.965 39.836-9.596 52.106-3.458 12.271-8.039 21.69-13.745 28.257h42.533z" fill="#000"/><path d="M836.167 344.868v77.511l-37.605 2.592-6.484-38.107h-95.957l-5.965 35.515-38.383 2.592v-80.103H665c7.953-3.111 14.004-7.604 18.154-13.48 4.322-5.876 7.78-14.517 10.373-25.924 2.767-11.406 5.447-28.256 8.04-50.55l4.15-35.775h109.962l-2.853 113.286.519 12.443h22.822zm-71.06 0l.259-7.259-1.815-80.103h-16.858l-.778 6.999c-2.766 22.467-5.965 39.836-9.596 52.106-3.458 12.271-8.039 21.69-13.745 28.257h42.533z" fill="#F2F1F4"/><path d="M1005.08 332.425l2.07 54.439h-52.124l2.593-49.255-.259-12.961-28.009-.519-24.119.778-.26 7.518 2.075 54.439h-52.128l2.593-49.255-2.593-118.47h52.906l-1.556 63.513 26.194.518 23.86-.518-1.297-63.513h52.904l-2.85 113.286z" fill="#000"/><path d="M1005.08 332.425l2.07 54.439h-52.124l2.593-49.255-.259-12.961-28.009-.519-24.119.778-.26 7.518 2.075 54.439h-52.128l2.593-49.255-2.593-118.47h52.906l-1.556 63.513 26.194.518 23.86-.518-1.297-63.513h52.904l-2.85 113.286z" fill="#F2F1F4"/><path d="M1113.49 216.029c24.38 0 43.23 7.258 56.54 21.775 13.31 14.345 19.97 34.651 19.97 60.92 0 29.035-7.35 51.502-22.04 67.401-14.53 15.9-35.19 23.85-61.99 23.85-24.38 0-43.22-7.259-56.53-21.776-13.32-14.69-19.97-35.429-19.97-62.216 0-28.689 7.26-50.81 21.78-66.364 14.7-15.727 35.44-23.59 62.24-23.59zm-4.66 41.477c-6.75 0-11.85 1.21-15.31 3.629-3.45 2.247-5.96 6.308-7.52 12.184-1.38 5.876-2.07 14.431-2.07 25.665 0 14.344.78 25.232 2.33 32.663 1.56 7.431 4.15 12.616 7.78 15.554 3.81 2.938 9.34 4.407 16.6 4.407 6.74 0 11.84-1.123 15.3-3.37 3.46-2.419 5.88-6.567 7.26-12.443 1.56-6.049 2.34-14.69 2.34-25.924 0-14.171-.78-24.973-2.34-32.404-1.55-7.431-4.23-12.616-8.04-15.554-3.63-2.938-9.07-4.407-16.33-4.407z" fill="#000"/><path d="M1113.49 216.029c24.38 0 43.23 7.258 56.54 21.775 13.31 14.345 19.97 34.651 19.97 60.92 0 29.035-7.35 51.502-22.04 67.401-14.53 15.9-35.19 23.85-61.99 23.85-24.38 0-43.22-7.259-56.53-21.776-13.32-14.69-19.97-35.429-19.97-62.216 0-28.689 7.26-50.81 21.78-66.364 14.7-15.727 35.44-23.59 62.24-23.59zm-4.66 41.477c-6.75 0-11.85 1.21-15.31 3.629-3.45 2.247-5.96 6.308-7.52 12.184-1.38 5.876-2.07 14.431-2.07 25.665 0 14.344.78 25.232 2.33 32.663 1.56 7.431 4.15 12.616 7.78 15.554 3.81 2.938 9.34 4.407 16.6 4.407 6.74 0 11.84-1.123 15.3-3.37 3.46-2.419 5.88-6.567 7.26-12.443 1.56-6.049 2.34-14.69 2.34-25.924 0-14.171-.78-24.973-2.34-32.404-1.55-7.431-4.23-12.616-8.04-15.554-3.63-2.938-9.07-4.407-16.33-4.407z" fill="#F2F1F4"/><path d="M137.756 435.168L95.224 546.639c-7.435 16.245-14.697 28.516-21.785 36.811-6.916 8.123-15.301 13.912-25.157 17.369-9.682 3.283-22.476 4.925-38.383 4.925l-3.371-.518c-3.977-12.444-6.83-26.097-8.558-40.959l1.815-4.407c16.425-1.037 28.441-2.506 36.049-4.407L-22 435.168h55.24l7.262 21.776 20.748 56.772h3.112l18.154-59.883 4.927-18.665h50.313z" fill="#000"/><path d="M137.756 435.168L95.224 546.639c-7.435 16.245-14.697 28.516-21.785 36.811-6.916 8.123-15.301 13.912-25.157 17.369-9.682 3.283-22.476 4.925-38.383 4.925l-3.371-.518c-3.977-12.444-6.83-26.097-8.558-40.959l1.815-4.407c16.425-1.037 28.441-2.506 36.049-4.407L-22 435.168h55.24l7.262 21.776 20.748 56.772h3.112l18.154-59.883 4.927-18.665h50.313z" fill="#F2F1F4"/><path d="M315.705 560.897v77.511L278.1 641l-6.484-38.107h-95.957l-5.965 35.515L131.311 641v-80.103h13.227c7.953-3.111 14.004-7.605 18.154-13.481 4.322-5.876 7.78-14.517 10.374-25.923 2.766-11.406 5.446-28.257 8.039-50.551l4.15-35.774h109.962l-2.853 113.285.519 12.444h22.822zm-71.06 0l.259-7.259-1.815-80.103h-16.858l-.778 6.999c-2.766 22.467-5.965 39.836-9.596 52.106-3.458 12.271-8.039 21.689-13.745 28.257h42.533z" fill="#000"/><path d="M315.705 560.897v77.511L278.1 641l-6.484-38.107h-95.957l-5.965 35.515L131.311 641v-80.103h13.227c7.953-3.111 14.004-7.605 18.154-13.481 4.322-5.876 7.78-14.517 10.374-25.923 2.766-11.406 5.446-28.257 8.039-50.551l4.15-35.774h109.962l-2.853 113.285.519 12.444h22.822zm-71.06 0l.259-7.259-1.815-80.103h-16.858l-.778 6.999c-2.766 22.467-5.965 39.836-9.596 52.106-3.458 12.271-8.039 21.689-13.745 28.257h42.533z" fill="#F2F1F4"/><path d="M409.667 432.057c24.378 0 43.224 7.259 56.537 21.776 13.313 14.344 19.969 34.651 19.969 60.92 0 29.034-7.348 51.501-22.044 67.401-14.523 15.9-35.184 23.849-61.983 23.849-24.379 0-43.224-7.258-56.537-21.775-13.313-14.69-19.97-35.429-19.97-62.216 0-28.689 7.262-50.81 21.785-66.365 14.696-15.726 35.444-23.59 62.243-23.59zm-4.668 41.478c-6.743 0-11.844 1.209-15.302 3.629-3.458 2.247-5.965 6.308-7.521 12.184-1.383 5.876-2.074 14.431-2.074 25.664 0 14.344.778 25.232 2.334 32.664 1.556 7.431 4.149 12.616 7.78 15.554 3.804 2.938 9.336 4.407 16.598 4.407 6.743 0 11.843-1.124 15.301-3.37 3.458-2.42 5.879-6.568 7.262-12.444 1.556-6.048 2.334-14.69 2.334-25.923 0-14.172-.778-24.973-2.334-32.404-1.556-7.432-4.236-12.616-8.04-15.554-3.631-2.938-9.077-4.407-16.338-4.407z" fill="#000"/><path d="M409.667 432.057c24.378 0 43.224 7.259 56.537 21.776 13.313 14.344 19.969 34.651 19.969 60.92 0 29.034-7.348 51.501-22.044 67.401-14.523 15.9-35.184 23.849-61.983 23.849-24.379 0-43.224-7.258-56.537-21.775-13.313-14.69-19.97-35.429-19.97-62.216 0-28.689 7.262-50.81 21.785-66.365 14.696-15.726 35.444-23.59 62.243-23.59zm-4.668 41.478c-6.743 0-11.844 1.209-15.302 3.629-3.458 2.247-5.965 6.308-7.521 12.184-1.383 5.876-2.074 14.431-2.074 25.664 0 14.344.778 25.232 2.334 32.664 1.556 7.431 4.149 12.616 7.78 15.554 3.804 2.938 9.336 4.407 16.598 4.407 6.743 0 11.843-1.124 15.301-3.37 3.458-2.42 5.879-6.568 7.262-12.444 1.556-6.048 2.334-14.69 2.334-25.923 0-14.172-.778-24.973-2.334-32.404-1.556-7.432-4.236-12.616-8.04-15.554-3.631-2.938-9.077-4.407-16.338-4.407z" fill="#F2F1F4"/><path d="M590.742 497.125c18.5 0 32.504 3.888 42.014 11.666 9.509 7.604 14.264 18.837 14.264 33.7 0 12.443-3.199 23.245-9.596 32.404-6.397 8.987-15.647 15.9-27.75 20.739s-26.367 7.259-42.792 7.259h-61.724l2.853-48.996-2.853-118.729h132.266l2.593 3.629-3.112 37.849-43.31-1.556h-36.827l-.519 22.035h34.493zm-13.227 71.289c4.842-1.555 8.472-3.974 10.893-7.258 2.593-3.284 3.89-7.259 3.89-11.925 0-5.53-1.642-9.764-4.928-12.702-3.285-2.938-7.953-4.321-14.004-4.148l-17.895.518-.519 15.814.778 18.146 21.785 1.555z" fill="#000"/><path d="M590.742 497.125c18.5 0 32.504 3.888 42.014 11.666 9.509 7.604 14.264 18.837 14.264 33.7 0 12.443-3.199 23.245-9.596 32.404-6.397 8.987-15.647 15.9-27.75 20.739s-26.367 7.259-42.792 7.259h-61.724l2.853-48.996-2.853-118.729h132.266l2.593 3.629-3.112 37.849-43.31-1.556h-36.827l-.519 22.035h34.493zm-13.227 71.289c4.842-1.555 8.472-3.974 10.893-7.258 2.593-3.284 3.89-7.259 3.89-11.925 0-5.53-1.642-9.764-4.928-12.702-3.285-2.938-7.953-4.321-14.004-4.148l-17.895.518-.519 15.814.778 18.146 21.785 1.555z" fill="#F2F1F4"/><path d="M816.143 548.453l2.075 54.44h-52.129l2.594-49.255-.26-12.962-28.009-.518-24.119.778-.259 7.517 2.074 54.44h-52.128l2.594-49.255-2.594-118.47h52.907l-1.556 63.512 26.193.519 23.86-.519-1.297-63.512h52.907l-2.853 113.285z" fill="#000"/><path d="M816.143 548.453l2.075 54.44h-52.129l2.594-49.255-.26-12.962-28.009-.518-24.119.778-.259 7.517 2.074 54.44h-52.128l2.594-49.255-2.594-118.47h52.907l-1.556 63.512 26.193.519 23.86-.519-1.297-63.512h52.907l-2.853 113.285z" fill="#F2F1F4"/><path d="M924.557 432.057c24.378 0 43.224 7.259 56.537 21.776 13.313 14.344 19.966 34.651 19.966 60.92 0 29.034-7.345 51.501-22.041 67.401-14.523 15.9-35.184 23.849-61.983 23.849-24.378 0-43.224-7.258-56.537-21.775-13.313-14.69-19.97-35.429-19.97-62.216 0-28.689 7.262-50.81 21.785-66.365 14.696-15.726 35.444-23.59 62.243-23.59zm-4.668 41.478c-6.743 0-11.844 1.209-15.302 3.629-3.458 2.247-5.965 6.308-7.521 12.184-1.383 5.876-2.074 14.431-2.074 25.664 0 14.344.778 25.232 2.334 32.664 1.556 7.431 4.149 12.616 7.78 15.554 3.804 2.938 9.336 4.407 16.598 4.407 6.743 0 11.843-1.124 15.301-3.37 3.458-2.42 5.879-6.568 7.262-12.444 1.556-6.048 2.334-14.69 2.334-25.923 0-14.172-.778-24.973-2.334-32.404-1.556-7.432-4.236-12.616-8.04-15.554-3.63-2.938-9.077-4.407-16.338-4.407z" fill="#000"/><path d="M924.557 432.057c24.378 0 43.224 7.259 56.537 21.776 13.313 14.344 19.966 34.651 19.966 60.92 0 29.034-7.345 51.501-22.041 67.401-14.523 15.9-35.184 23.849-61.983 23.849-24.378 0-43.224-7.258-56.537-21.775-13.313-14.69-19.97-35.429-19.97-62.216 0-28.689 7.262-50.81 21.785-66.365 14.696-15.726 35.444-23.59 62.243-23.59zm-4.668 41.478c-6.743 0-11.844 1.209-15.302 3.629-3.458 2.247-5.965 6.308-7.521 12.184-1.383 5.876-2.074 14.431-2.074 25.664 0 14.344.778 25.232 2.334 32.664 1.556 7.431 4.149 12.616 7.78 15.554 3.804 2.938 9.336 4.407 16.598 4.407 6.743 0 11.843-1.124 15.301-3.37 3.458-2.42 5.879-6.568 7.262-12.444 1.556-6.048 2.334-14.69 2.334-25.923 0-14.172-.778-24.973-2.334-32.404-1.556-7.432-4.236-12.616-8.04-15.554-3.63-2.938-9.077-4.407-16.338-4.407z" fill="#F2F1F4"/></svg>