<svg width="38" height="38" fill="none" xmlns="http://www.w3.org/2000/svg"><path fill-rule="evenodd" clip-rule="evenodd" d="M18.715 33.688c8.269 0 14.973-6.704 14.973-14.973 0-8.27-6.704-14.973-14.973-14.973-8.27 0-14.973 6.704-14.973 14.973 0 8.269 6.704 14.973 14.973 14.973zM23.76 13.91c0 2.714-2.268 4.918-5.046 4.918-2.778 0-5.046-2.204-5.046-4.918 0-2.724 2.268-4.929 5.047-4.929 2.777 0 5.045 2.205 5.045 4.93zm-2.568 0c0-1.344-1.113-2.432-2.477-2.432-1.366 0-2.48 1.087-2.479 2.432 0 1.334 1.114 2.421 2.479 2.421 1.364 0 2.477-1.087 2.477-2.42zm-6.955 7.76c-1.268-.798-1.824-1.265-1.335-2.242.289-.555 1.078-1.023 2.124-.217 0 0 1.412 1.099 3.69 1.099 2.28 0 3.692-1.1 3.692-1.1 1.046-.801 1.832-.337 2.123.218.483.977-.073 1.443-1.341 2.245-1.065.663-2.532.925-3.5 1.024l.813.783 2.968 2.9c1.085 1.087-.68 2.786-1.778 1.736a600.12 600.12 0 00-2.912-2.856l-.001-.001-.055-.054-2.969 2.907c-1.096 1.046-2.863-.668-1.765-1.736l.706-.692c.659-.646 1.445-1.418 2.262-2.208l.802-.784c-.957-.099-2.446-.346-3.524-1.022z" fill="#4B515B"/></svg>