<svg width="39" height="38" fill="none" xmlns="http://www.w3.org/2000/svg"><path fill-rule="evenodd" clip-rule="evenodd" d="M19.57 33.688c8.27 0 14.973-6.704 14.973-14.973 0-8.27-6.703-14.973-14.973-14.973-8.269 0-14.972 6.704-14.972 14.973 0 8.269 6.703 14.973 14.972 14.973zm7.227-19.467c.59 0 .707.298.59.711-.201.957-1.975 3.494-2.489 4.229-.09.128-.141.201-.139.201-.202.331-.286.497 0 .86.1.14.32.35.57.593.257.248.548.528.778.796.842.942 1.465 1.72 1.65 2.265.169.545-.118.826-.674.826h-1.97c-.53 0-.797-.292-1.366-.916-.244-.266-.543-.594-.941-.985-1.162-1.091-1.668-1.24-1.954-1.24-.404 0-.522.116-.522.662v1.719c0 .463-.151.744-1.398.744-2.088 0-4.378-1.24-5.995-3.521-2.425-3.356-3.099-5.886-3.099-6.398 0-.281.118-.546.674-.546h1.97c.505 0 .69.215.859.777.96 2.745 2.577 5.142 3.25 5.142.253 0 .37-.116.37-.744v-2.844c-.04-.808-.328-1.16-.54-1.422-.131-.16-.234-.286-.234-.462 0-.215.185-.447.505-.447h3.1c.403 0 .555.215.555.711v3.835c0 .397.185.546.303.546.253 0 .455-.149.91-.595 1.414-1.554 2.408-3.951 2.408-3.951.135-.281.354-.546.859-.546h1.97z" fill="#4B515B"/></svg>