<svg width="39" height="38" fill="none" xmlns="http://www.w3.org/2000/svg"><path fill-rule="evenodd" clip-rule="evenodd" d="M19.428 33.688c8.269 0 14.972-6.704 14.972-14.973 0-8.27-6.703-14.973-14.972-14.973-8.27 0-14.973 6.704-14.973 14.973 0 8.269 6.704 14.973 14.973 14.973zm6.286-18.832a7 7 0 001.946-.537 6.762 6.762 0 01-1.692 1.765c.007.144.012.29.012.44 0 4.492-3.397 9.675-9.61 9.675a9.458 9.458 0 01-5.18-1.526 6.757 6.757 0 004.994-1.403c-1.476-.033-2.717-1.023-3.155-2.37.205.047.423.059.64.059.31 0 .61-.036.885-.112a3.41 3.41 0 01-2.705-3.34v-.038c.45.25.983.408 1.525.419a3.411 3.411 0 01-1.037-4.545c1.668 2.064 4.152 3.419 6.96 3.557a3.53 3.53 0 01-.08-.776c0-1.873 1.506-3.4 3.375-3.4.964 0 1.847.41 2.467 1.075a6.718 6.718 0 002.14-.823 3.376 3.376 0 01-1.485 1.88z" fill="#4B515B"/></svg>