<svg width="440" height="233" fill="none" xmlns="http://www.w3.org/2000/svg"><path d="M36.72 23.652c6.715 0 11.8 1.413 15.252 4.24 3.452 2.764 5.178 6.848 5.178 12.25 0 4.523-1.161 8.45-3.484 11.779-2.322 3.267-5.68 5.78-10.074 7.538-4.394 1.76-9.572 2.639-15.535 2.639H5.65l1.036-17.81L5.649 1.131h48.017l.942 1.319-1.13 13.758-15.723-.566h-13.37l-.188 8.01h12.522zm-4.803 25.913c1.758-.565 3.076-1.445 3.955-2.638.941-1.194 1.412-2.639 1.412-4.335 0-2.01-.596-3.55-1.789-4.617-1.192-1.068-2.887-1.57-5.084-1.508l-6.497.189-.188 5.748L24.01 49l7.908.565z" fill="#000"/><path d="M36.72 23.652c6.715 0 11.8 1.413 15.252 4.24 3.452 2.764 5.178 6.848 5.178 12.25 0 4.523-1.161 8.45-3.484 11.779-2.322 3.267-5.68 5.78-10.074 7.538-4.394 1.76-9.572 2.639-15.535 2.639H5.65l1.036-17.81L5.649 1.131h48.017l.942 1.319-1.13 13.758-15.723-.566h-13.37l-.188 8.01h12.522zm-4.803 25.913c1.758-.565 3.076-1.445 3.955-2.638.941-1.194 1.412-2.639 1.412-4.335 0-2.01-.596-3.55-1.789-4.617-1.192-1.068-2.887-1.57-5.084-1.508l-6.497.189-.188 5.748L24.01 49l7.908.565z" fill="#fff"/><path d="M92.091 22.333c6.089 0 10.702 1.476 13.84 4.428 3.202 2.89 4.802 7.1 4.802 12.627 0 4.649-1.098 8.67-3.295 12.062-2.134 3.392-5.273 6.03-9.415 7.915-4.08 1.822-8.913 2.733-14.5 2.733H62.81l1.036-17.81L62.81 1.037h19.113l-.565 21.296H92.09zm41.521 19.976l.753 19.789h-18.924l.941-17.904-.941-43.063h19.207l-1.036 41.178zM87.29 49.282c1.13-.565 2.04-1.507 2.73-2.826.753-1.32 1.13-2.827 1.13-4.524 0-2.01-.503-3.612-1.507-4.805-1.004-1.257-2.322-1.854-3.954-1.79l-4.614.188-.188 6.879.283 6.407 6.12.471z" fill="#000"/><path d="M92.091 22.333c6.089 0 10.702 1.476 13.84 4.428 3.202 2.89 4.802 7.1 4.802 12.627 0 4.649-1.098 8.67-3.295 12.062-2.134 3.392-5.273 6.03-9.415 7.915-4.08 1.822-8.913 2.733-14.5 2.733H62.81l1.036-17.81L62.81 1.037h19.113l-.565 21.296H92.09zm41.521 19.976l.753 19.789h-18.924l.941-17.904-.941-43.063h19.207l-1.036 41.178zM87.29 49.282c1.13-.565 2.04-1.507 2.73-2.826.753-1.32 1.13-2.827 1.13-4.524 0-2.01-.503-3.612-1.507-4.805-1.004-1.257-2.322-1.854-3.954-1.79l-4.614.188-.188 6.879.283 6.407 6.12.471z" fill="#fff"/><path d="M173.926.094c5.398 0 10.483.848 15.253 2.544l-3.201 14.983-1.224.754c-1.632-.88-3.515-1.57-5.649-2.073-2.134-.566-4.112-.848-5.932-.848-3.829 0-6.59 1.13-8.285 3.392-1.695 2.199-2.542 5.905-2.542 11.12 0 6.093.973 10.553 2.919 13.38 1.945 2.764 4.99 4.146 9.132 4.146 1.758 0 3.704-.157 5.838-.471 2.196-.377 4.111-.88 5.743-1.508l1.506.943-1.506 14.888c-3.766 1.194-8.129 1.79-13.087 1.79-10.106 0-17.732-2.638-22.879-7.915-5.084-5.277-7.626-12.972-7.626-23.087 0-10.176 2.73-18.06 8.191-23.651C156.1 2.89 163.884.094 173.926.094z" fill="#000"/><path d="M173.926.094c5.398 0 10.483.848 15.253 2.544l-3.201 14.983-1.224.754c-1.632-.88-3.515-1.57-5.649-2.073-2.134-.566-4.112-.848-5.932-.848-3.829 0-6.59 1.13-8.285 3.392-1.695 2.199-2.542 5.905-2.542 11.12 0 6.093.973 10.553 2.919 13.38 1.945 2.764 4.99 4.146 9.132 4.146 1.758 0 3.704-.157 5.838-.471 2.196-.377 4.111-.88 5.743-1.508l1.506.943-1.506 14.888c-3.766 1.194-8.129 1.79-13.087 1.79-10.106 0-17.732-2.638-22.879-7.915-5.084-5.277-7.626-12.972-7.626-23.087 0-10.176 2.73-18.06 8.191-23.651C156.1 2.89 163.884.094 173.926.094z" fill="#fff"/><path d="M239.549 2.45l-1.035 13.758-12.428-.566h-1.13l-.471 26.667.753 19.789h-18.83l.942-17.904-.471-28.552h-1.224l-12.522.566-1.13-1.32 1.035-13.757h45.476l1.035 1.319z" fill="#000"/><path d="M239.549 2.45l-1.035 13.758-12.428-.566h-1.13l-.471 26.667.753 19.789h-18.83l.942-17.904-.471-28.552h-1.224l-12.522.566-1.13-1.32 1.035-13.757h45.476l1.035 1.319z" fill="#fff"/><path d="M274.07 1.037c6.841 0 12.083 1.696 15.723 5.088 3.703 3.33 5.555 8.104 5.555 14.323 0 4.837-1.13 9.109-3.389 12.815-2.26 3.644-5.461 6.502-9.604 8.575-4.143 2.01-8.913 3.016-14.311 3.016h-4.613l.659 17.244h-18.925l.942-17.904-.942-43.063 28.905-.094zm-3.39 30.624c1.695-.942 2.919-2.136 3.672-3.58.816-1.508 1.224-3.424 1.224-5.748 0-2.764-.659-4.775-1.977-6.031-1.318-1.32-3.389-2.042-6.214-2.168l-3.389.283-.377 16.867 7.061.377z" fill="#000"/><path d="M274.07 1.037c6.841 0 12.083 1.696 15.723 5.088 3.703 3.33 5.555 8.104 5.555 14.323 0 4.837-1.13 9.109-3.389 12.815-2.26 3.644-5.461 6.502-9.604 8.575-4.143 2.01-8.913 3.016-14.311 3.016h-4.613l.659 17.244h-18.925l.942-17.904-.942-43.063 28.905-.094zm-3.39 30.624c1.695-.942 2.919-2.136 3.672-3.58.816-1.508 1.224-3.424 1.224-5.748 0-2.764-.659-4.775-1.977-6.031-1.318-1.32-3.389-2.042-6.214-2.168l-3.389.283-.377 16.867 7.061.377z" fill="#fff"/><path d="M329.567 0c8.85 0 15.692 2.638 20.525 7.915 4.833 5.214 7.25 12.596 7.25 22.145 0 10.553-2.668 18.72-8.003 24.5-5.273 5.779-12.773 8.668-22.502 8.668-8.851 0-15.692-2.638-20.525-7.915-4.834-5.34-7.25-12.878-7.25-22.615 0-10.428 2.636-18.47 7.909-24.123C312.306 2.858 319.838 0 329.567 0zm-1.695 15.077c-2.448 0-4.299.44-5.555 1.32-1.255.816-2.165 2.292-2.73 4.428-.502 2.136-.753 5.245-.753 9.329 0 5.214.282 9.171.847 11.873.565 2.701 1.506 4.586 2.825 5.654 1.38 1.068 3.389 1.601 6.025 1.601 2.448 0 4.3-.408 5.555-1.225 1.256-.879 2.134-2.387 2.636-4.523.565-2.198.848-5.34.848-9.423 0-5.15-.283-9.077-.848-11.778-.564-2.702-1.537-4.586-2.918-5.654-1.318-1.068-3.296-1.602-5.932-1.602z" fill="#000"/><path d="M329.567 0c8.85 0 15.692 2.638 20.525 7.915 4.833 5.214 7.25 12.596 7.25 22.145 0 10.553-2.668 18.72-8.003 24.5-5.273 5.779-12.773 8.668-22.502 8.668-8.851 0-15.692-2.638-20.525-7.915-4.834-5.34-7.25-12.878-7.25-22.615 0-10.428 2.636-18.47 7.909-24.123C312.306 2.858 319.838 0 329.567 0zm-1.695 15.077c-2.448 0-4.299.44-5.555 1.32-1.255.816-2.165 2.292-2.73 4.428-.502 2.136-.753 5.245-.753 9.329 0 5.214.282 9.171.847 11.873.565 2.701 1.506 4.586 2.825 5.654 1.38 1.068 3.389 1.601 6.025 1.601 2.448 0 4.3-.408 5.555-1.225 1.256-.879 2.134-2.387 2.636-4.523.565-2.198.848-5.34.848-9.423 0-5.15-.283-9.077-.848-11.778-.564-2.702-1.537-4.586-2.918-5.654-1.318-1.068-3.296-1.602-5.932-1.602z" fill="#fff"/><path d="M45.57 109.244c3.954 1.131 6.81 2.827 8.567 5.089 1.82 2.198 2.73 5.088 2.73 8.669 0 6.345-2.604 10.993-7.814 13.946-5.147 2.89-12.867 4.335-23.161 4.335-5.712 0-12.46-.22-20.243-.66l.942-17.904-.942-43.063 27.21-.094c6.904 0 12.302 1.35 16.194 4.052 3.892 2.638 5.837 6.501 5.837 11.59 0 3.141-.816 5.936-2.448 8.386-1.569 2.388-3.86 4.272-6.873 5.654zm-9.887-11.307c0-2.2-.784-3.707-2.353-4.523-1.507-.88-4.363-1.32-8.568-1.32h-.848l-.376 12.439 7.061.282c1.758-.565 3.045-1.382 3.86-2.45.816-1.067 1.224-2.544 1.224-4.428zm-6.214 30.907c2.574 0 4.582-.565 6.026-1.696 1.507-1.131 2.26-2.764 2.26-4.9 0-1.445-.44-2.607-1.318-3.486-.816-.88-2.166-1.634-4.049-2.262l-9.133.188-.094 4.147.283 7.632c3.138.252 5.147.377 6.025.377z" fill="#000"/><path d="M45.57 109.244c3.954 1.131 6.81 2.827 8.567 5.089 1.82 2.198 2.73 5.088 2.73 8.669 0 6.345-2.604 10.993-7.814 13.946-5.147 2.89-12.867 4.335-23.161 4.335-5.712 0-12.46-.22-20.243-.66l.942-17.904-.942-43.063 27.21-.094c6.904 0 12.302 1.35 16.194 4.052 3.892 2.638 5.837 6.501 5.837 11.59 0 3.141-.816 5.936-2.448 8.386-1.569 2.388-3.86 4.272-6.873 5.654zm-9.887-11.307c0-2.2-.784-3.707-2.353-4.523-1.507-.88-4.363-1.32-8.568-1.32h-.848l-.376 12.439 7.061.282c1.758-.565 3.045-1.382 3.86-2.45.816-1.067 1.224-2.544 1.224-4.428zm-6.214 30.907c2.574 0 4.582-.565 6.026-1.696 1.507-1.131 2.26-2.764 2.26-4.9 0-1.445-.44-2.607-1.318-3.486-.816-.88-2.166-1.634-4.049-2.262l-9.133.188-.094 4.147.283 7.632c3.138.252 5.147.377 6.025.377z" fill="#fff"/><path d="M92.643 100.858c6.088 0 10.702 1.476 13.84 4.429 3.201 2.889 4.802 7.098 4.802 12.626 0 4.649-1.099 8.67-3.295 12.062-2.135 3.392-5.273 6.031-9.416 7.915-4.08 1.822-8.913 2.733-14.499 2.733H63.362l1.035-17.81-1.035-43.251h19.113l-.565 21.296h10.733zm41.521 19.977l.753 19.788h-18.925l.942-17.904-.942-43.063h19.207l-1.035 41.179zm-46.323 6.973c1.13-.566 2.04-1.508 2.73-2.827.754-1.319 1.13-2.827 1.13-4.523 0-2.011-.502-3.612-1.506-4.806-1.004-1.256-2.322-1.853-3.954-1.79l-4.614.188-.188 6.879.282 6.407 6.12.472z" fill="#000"/><path d="M92.643 100.858c6.088 0 10.702 1.476 13.84 4.429 3.201 2.889 4.802 7.098 4.802 12.626 0 4.649-1.099 8.67-3.295 12.062-2.135 3.392-5.273 6.031-9.416 7.915-4.08 1.822-8.913 2.733-14.499 2.733H63.362l1.035-17.81-1.035-43.251h19.113l-.565 21.296h10.733zm41.521 19.977l.753 19.788h-18.925l.942-17.904-.942-43.063h19.207l-1.035 41.179zm-46.323 6.973c1.13-.566 2.04-1.508 2.73-2.827.754-1.319 1.13-2.827 1.13-4.523 0-2.011-.502-3.612-1.506-4.806-1.004-1.256-2.322-1.853-3.954-1.79l-4.614.188-.188 6.879.282 6.407 6.12.472z" fill="#fff"/><path d="M184.741 80.975l-1.13 13.758-13.652-.566h-4.896l-.659 26.668.753 19.788h-18.924l.941-17.904-.941-43.063h37.566l.942 1.32z" fill="#000"/><path d="M184.741 80.975l-1.13 13.758-13.652-.566h-4.896l-.659 26.668.753 19.788h-18.924l.941-17.904-.941-43.063h37.566l.942 1.32z" fill="#fff"/><path d="M213.257 78.525c8.85 0 15.692 2.639 20.525 7.916 4.833 5.214 7.249 12.595 7.249 22.144 0 10.553-2.667 18.72-8.002 24.5-5.273 5.779-12.774 8.669-22.503 8.669-8.85 0-15.692-2.639-20.525-7.916-4.833-5.339-7.249-12.878-7.249-22.615 0-10.428 2.636-18.469 7.908-24.123 5.336-5.716 12.868-8.575 22.597-8.575zm-1.695 15.077c-2.448 0-4.3.44-5.555 1.32-1.255.816-2.165 2.292-2.73 4.428-.502 2.136-.754 5.246-.754 9.329 0 5.214.283 9.172.848 11.873.565 2.701 1.506 4.586 2.824 5.654 1.381 1.068 3.39 1.602 6.026 1.602 2.448 0 4.3-.409 5.555-1.225 1.255-.88 2.134-2.388 2.636-4.523.565-2.199.848-5.34.848-9.423 0-5.152-.283-9.078-.848-11.779-.565-2.702-1.538-4.586-2.918-5.654-1.319-1.068-3.296-1.602-5.932-1.602z" fill="#000"/><path d="M213.257 78.525c8.85 0 15.692 2.639 20.525 7.916 4.833 5.214 7.249 12.595 7.249 22.144 0 10.553-2.667 18.72-8.002 24.5-5.273 5.779-12.774 8.669-22.503 8.669-8.85 0-15.692-2.639-20.525-7.916-4.833-5.339-7.249-12.878-7.249-22.615 0-10.428 2.636-18.469 7.908-24.123 5.336-5.716 12.868-8.575 22.597-8.575zm-1.695 15.077c-2.448 0-4.3.44-5.555 1.32-1.255.816-2.165 2.292-2.73 4.428-.502 2.136-.754 5.246-.754 9.329 0 5.214.283 9.172.848 11.873.565 2.701 1.506 4.586 2.824 5.654 1.381 1.068 3.39 1.602 6.026 1.602 2.448 0 4.3-.409 5.555-1.225 1.255-.88 2.134-2.388 2.636-4.523.565-2.199.848-5.34.848-9.423 0-5.152-.283-9.078-.848-11.779-.565-2.702-1.538-4.586-2.918-5.654-1.319-1.068-3.296-1.602-5.932-1.602z" fill="#fff"/><path d="M311.546 125.358v28.174l-13.652.943-2.354-13.852h-34.836l-2.166 12.909-13.934.943v-29.117h4.802c2.887-1.131 5.084-2.764 6.59-4.9 1.57-2.136 2.825-5.277 3.766-9.423 1.005-4.146 1.978-10.271 2.919-18.375l1.507-13.004h39.92l-1.036 41.179.188 4.523h8.286zm-25.798 0l.094-2.639-.659-29.117h-6.119l-.283 2.544c-1.004 8.167-2.165 14.48-3.484 18.941-1.255 4.46-2.918 7.883-4.99 10.271h15.441z" fill="#000"/><path d="M311.546 125.358v28.174l-13.652.943-2.354-13.852h-34.836l-2.166 12.909-13.934.943v-29.117h4.802c2.887-1.131 5.084-2.764 6.59-4.9 1.57-2.136 2.825-5.277 3.766-9.423 1.005-4.146 1.978-10.271 2.919-18.375l1.507-13.004h39.92l-1.036 41.179.188 4.523h8.286zm-25.798 0l.094-2.639-.659-29.117h-6.119l-.283 2.544c-1.004 8.167-2.165 14.48-3.484 18.941-1.255 4.46-2.918 7.883-4.99 10.271h15.441z" fill="#fff"/><path d="M372.867 120.835l.753 19.788h-18.924l.941-17.904-.094-4.711-10.168-.189-8.756.283-.094 2.733.753 19.788h-18.925l.942-17.904-.942-43.063h19.207l-.565 23.086 9.51.189 8.662-.189-.471-23.086h19.207l-1.036 41.179z" fill="#000"/><path d="M372.867 120.835l.753 19.788h-18.924l.941-17.904-.094-4.711-10.168-.189-8.756.283-.094 2.733.753 19.788h-18.925l.942-17.904-.942-43.063h19.207l-.565 23.086 9.51.189 8.662-.189-.471-23.086h19.207l-1.036 41.179z" fill="#fff"/><path d="M412.225 78.525c8.851 0 15.692 2.639 20.525 7.916 4.833 5.214 7.25 12.595 7.25 22.144 0 10.553-2.668 18.72-8.003 24.5-5.272 5.779-12.773 8.669-22.502 8.669-8.85 0-15.692-2.639-20.525-7.916-4.833-5.339-7.25-12.878-7.25-22.615 0-10.428 2.636-18.469 7.909-24.123 5.335-5.716 12.867-8.575 22.596-8.575zm-1.694 15.077c-2.448 0-4.3.44-5.555 1.32-1.256.816-2.166 2.292-2.731 4.428-.502 2.136-.753 5.246-.753 9.329 0 5.214.283 9.172.847 11.873.565 2.701 1.507 4.586 2.825 5.654 1.381 1.068 3.389 1.602 6.026 1.602 2.448 0 4.299-.409 5.555-1.225 1.255-.88 2.134-2.388 2.636-4.523.565-2.199.847-5.34.847-9.423 0-5.152-.282-9.078-.847-11.779-.565-2.702-1.538-4.586-2.919-5.654-1.318-1.068-3.295-1.602-5.931-1.602z" fill="#000"/><path d="M412.225 78.525c8.851 0 15.692 2.639 20.525 7.916 4.833 5.214 7.25 12.595 7.25 22.144 0 10.553-2.668 18.72-8.003 24.5-5.272 5.779-12.773 8.669-22.502 8.669-8.85 0-15.692-2.639-20.525-7.916-4.833-5.339-7.25-12.878-7.25-22.615 0-10.428 2.636-18.469 7.909-24.123 5.335-5.716 12.867-8.575 22.596-8.575zm-1.694 15.077c-2.448 0-4.3.44-5.555 1.32-1.256.816-2.166 2.292-2.731 4.428-.502 2.136-.753 5.246-.753 9.329 0 5.214.283 9.172.847 11.873.565 2.701 1.507 4.586 2.825 5.654 1.381 1.068 3.389 1.602 6.026 1.602 2.448 0 4.299-.409 5.555-1.225 1.255-.88 2.134-2.388 2.636-4.523.565-2.199.847-5.34.847-9.423 0-5.152-.282-9.078-.847-11.779-.565-2.702-1.538-4.586-2.919-5.654-1.318-1.068-3.295-1.602-5.931-1.602z" fill="#fff"/><path d="M57.997 158.181L42.557 198.7c-2.7 5.905-5.336 10.366-7.91 13.381-2.51 2.952-5.554 5.057-9.132 6.313-3.515 1.194-8.16 1.791-13.934 1.791l-1.224-.189c-1.444-4.523-2.48-9.486-3.107-14.888l.659-1.602c5.963-.377 10.325-.911 13.087-1.602L0 158.181h20.054l2.637 7.916 7.532 20.636h1.13l6.59-21.767 1.789-6.785h18.265z" fill="#000"/><path d="M57.997 158.181L42.557 198.7c-2.7 5.905-5.336 10.366-7.91 13.381-2.51 2.952-5.554 5.057-9.132 6.313-3.515 1.194-8.16 1.791-13.934 1.791l-1.224-.189c-1.444-4.523-2.48-9.486-3.107-14.888l.659-1.602c5.963-.377 10.325-.911 13.087-1.602L0 158.181h20.054l2.637 7.916 7.532 20.636h1.13l6.59-21.767 1.789-6.785h18.265z" fill="#fff"/><path d="M122.599 203.883v28.175l-13.652.942-2.354-13.852H71.757l-2.165 12.91-13.934.942v-29.117h4.801c2.887-1.131 5.084-2.764 6.59-4.9 1.57-2.136 2.825-5.277 3.767-9.423 1.004-4.146 1.977-10.271 2.919-18.375l1.506-13.004h39.92l-1.035 41.179.188 4.523h8.285zm-25.797 0l.094-2.639-.66-29.117h-6.12l-.281 2.544c-1.005 8.167-2.166 14.481-3.484 18.941-1.255 4.46-2.919 7.884-4.99 10.271H96.8z" fill="#000"/><path d="M122.599 203.883v28.175l-13.652.942-2.354-13.852H71.757l-2.165 12.91-13.934.942v-29.117h4.801c2.887-1.131 5.084-2.764 6.59-4.9 1.57-2.136 2.825-5.277 3.767-9.423 1.004-4.146 1.977-10.271 2.919-18.375l1.506-13.004h39.92l-1.035 41.179.188 4.523h8.285zm-25.797 0l.094-2.639-.66-29.117h-6.12l-.281 2.544c-1.005 8.167-2.166 14.481-3.484 18.941-1.255 4.46-2.919 7.884-4.99 10.271H96.8z" fill="#fff"/><path d="M156.711 157.05c8.85 0 15.692 2.639 20.525 7.916 4.833 5.214 7.249 12.595 7.249 22.144 0 10.554-2.667 18.72-8.002 24.5-5.273 5.779-12.774 8.669-22.503 8.669-8.85 0-15.692-2.639-20.525-7.915-4.833-5.34-7.249-12.879-7.249-22.616 0-10.428 2.636-18.469 7.908-24.123 5.336-5.716 12.868-8.575 22.597-8.575zm-1.695 15.077c-2.448 0-4.3.44-5.555 1.319-1.255.817-2.165 2.293-2.73 4.429-.502 2.136-.754 5.246-.754 9.329 0 5.214.283 9.172.848 11.873.565 2.701 1.506 4.586 2.824 5.654 1.381 1.068 3.39 1.602 6.026 1.602 2.448 0 4.3-.408 5.555-1.225 1.255-.88 2.134-2.387 2.636-4.523.565-2.199.848-5.34.848-9.423 0-5.152-.283-9.078-.848-11.779-.565-2.701-1.538-4.586-2.918-5.654-1.319-1.068-3.296-1.602-5.932-1.602z" fill="#000"/><path d="M156.711 157.05c8.85 0 15.692 2.639 20.525 7.916 4.833 5.214 7.249 12.595 7.249 22.144 0 10.554-2.667 18.72-8.002 24.5-5.273 5.779-12.774 8.669-22.503 8.669-8.85 0-15.692-2.639-20.525-7.915-4.833-5.34-7.249-12.879-7.249-22.616 0-10.428 2.636-18.469 7.908-24.123 5.336-5.716 12.868-8.575 22.597-8.575zm-1.695 15.077c-2.448 0-4.3.44-5.555 1.319-1.255.817-2.165 2.293-2.73 4.429-.502 2.136-.754 5.246-.754 9.329 0 5.214.283 9.172.848 11.873.565 2.701 1.506 4.586 2.824 5.654 1.381 1.068 3.39 1.602 6.026 1.602 2.448 0 4.3-.408 5.555-1.225 1.255-.88 2.134-2.387 2.636-4.523.565-2.199.848-5.34.848-9.423 0-5.152-.283-9.078-.848-11.779-.565-2.701-1.538-4.586-2.918-5.654-1.319-1.068-3.296-1.602-5.932-1.602z" fill="#fff"/><path d="M222.448 180.702c6.716 0 11.8 1.414 15.252 4.241 3.452 2.764 5.178 6.847 5.178 12.25 0 4.523-1.161 8.449-3.483 11.778-2.323 3.267-5.681 5.78-10.074 7.539-4.394 1.759-9.572 2.638-15.535 2.638h-22.408l1.035-17.809-1.035-43.158h48.017l.941 1.319-1.129 13.758-15.724-.565h-13.369l-.189 8.009h12.523zm-4.802 25.914c1.757-.566 3.075-1.445 3.954-2.639.942-1.193 1.412-2.638 1.412-4.334 0-2.011-.596-3.55-1.788-4.618-1.193-1.068-2.888-1.57-5.085-1.507l-6.496.188-.188 5.748.282 6.596 7.909.566z" fill="#000"/><path d="M222.448 180.702c6.716 0 11.8 1.414 15.252 4.241 3.452 2.764 5.178 6.847 5.178 12.25 0 4.523-1.161 8.449-3.483 11.778-2.323 3.267-5.681 5.78-10.074 7.539-4.394 1.759-9.572 2.638-15.535 2.638h-22.408l1.035-17.809-1.035-43.158h48.017l.941 1.319-1.129 13.758-15.724-.565h-13.369l-.189 8.009h12.523zm-4.802 25.914c1.757-.566 3.075-1.445 3.954-2.639.942-1.193 1.412-2.638 1.412-4.334 0-2.011-.596-3.55-1.788-4.618-1.193-1.068-2.888-1.57-5.085-1.507l-6.496.188-.188 5.748.282 6.596 7.909.566z" fill="#fff"/><path d="M304.276 199.36l.753 19.788h-18.924l.942-17.904-.095-4.711-10.168-.189-8.756.283-.094 2.733.753 19.788h-18.924l.941-17.904-.941-43.063h19.206l-.564 23.087 9.509.188 8.662-.188-.471-23.087h19.207l-1.036 41.179z" fill="#000"/><path d="M304.276 199.36l.753 19.788h-18.924l.942-17.904-.095-4.711-10.168-.189-8.756.283-.094 2.733.753 19.788h-18.924l.941-17.904-.941-43.063h19.206l-.564 23.087 9.509.188 8.662-.188-.471-23.087h19.207l-1.036 41.179z" fill="#fff"/><path d="M343.634 157.05c8.851 0 15.692 2.639 20.526 7.916 4.833 5.214 7.249 12.595 7.249 22.144 0 10.554-2.667 18.72-8.003 24.5-5.272 5.779-12.773 8.669-22.502 8.669-8.85 0-15.692-2.639-20.525-7.915-4.833-5.34-7.25-12.879-7.25-22.616 0-10.428 2.637-18.469 7.909-24.123 5.335-5.716 12.867-8.575 22.596-8.575zm-1.694 15.077c-2.448 0-4.3.44-5.555 1.319-1.256.817-2.166 2.293-2.731 4.429-.502 2.136-.753 5.246-.753 9.329 0 5.214.283 9.172.848 11.873.565 2.701 1.506 4.586 2.824 5.654 1.381 1.068 3.39 1.602 6.026 1.602 2.448 0 4.299-.408 5.555-1.225 1.255-.88 2.134-2.387 2.636-4.523.565-2.199.847-5.34.847-9.423 0-5.151-.282-9.078-.847-11.779-.565-2.701-1.538-4.586-2.919-5.654-1.318-1.068-3.295-1.602-5.931-1.602z" fill="#000"/><path d="M343.634 157.05c8.851 0 15.692 2.639 20.526 7.916 4.833 5.214 7.249 12.595 7.249 22.144 0 10.554-2.667 18.72-8.003 24.5-5.272 5.779-12.773 8.669-22.502 8.669-8.85 0-15.692-2.639-20.525-7.915-4.833-5.34-7.25-12.879-7.25-22.616 0-10.428 2.637-18.469 7.909-24.123 5.335-5.716 12.867-8.575 22.596-8.575zm-1.694 15.077c-2.448 0-4.3.44-5.555 1.319-1.256.817-2.166 2.293-2.731 4.429-.502 2.136-.753 5.246-.753 9.329 0 5.214.283 9.172.848 11.873.565 2.701 1.506 4.586 2.824 5.654 1.381 1.068 3.39 1.602 6.026 1.602 2.448 0 4.299-.408 5.555-1.225 1.255-.88 2.134-2.387 2.636-4.523.565-2.199.847-5.34.847-9.423 0-5.151-.282-9.078-.847-11.779-.565-2.701-1.538-4.586-2.919-5.654-1.318-1.068-3.295-1.602-5.931-1.602z" fill="#fff"/></svg>