<svg width="116" height="81" fill="none" xmlns="http://www.w3.org/2000/svg"><path d="M60.05 10.95l-.768.64.006.007.762-.647zm-.6 57.9l.76.65.004-.004-.764-.646zm-49.2.6l.762-.647-.762.647zm.6-57.75l-.758-.652-.006.007.764.645zm10.8 12.9l.751.66.005-.005.005-.006-.761-.649zm0 31.95l.77-.638-.77.638zm26.85.3l-.75-.662-.001.002.751.66zm0-31.95l-.768.64.009.01.759-.65zm-12-22.85c9.965 0 17.508 3.212 22.782 9.54l1.536-1.28C55.092 3.438 46.935.05 36.5.05v2zm22.788 9.547C64.683 17.956 67.45 27.044 67.45 39h2c0-12.244-2.833-21.856-8.638-28.697l-1.524 1.294zM67.45 39c0 12.653-2.965 22.343-8.764 29.204l1.528 1.292C66.415 62.157 69.45 51.948 69.45 39h-2zm-8.76 29.2c-5.772 6.734-13.97 10.15-24.74 10.15v2c11.23 0 20.032-3.584 26.26-10.85l-1.52-1.3zM33.95 78.35c-9.964 0-17.562-3.212-22.938-9.547l-1.525 1.294C15.312 76.962 23.514 80.35 33.95 80.35v-2zm-22.938-9.547C5.615 62.441 2.85 53.452 2.85 41.7h-2c0 12.048 2.835 21.559 8.637 28.397l1.525-1.294zM2.85 41.7c0-12.755 2.966-22.494 8.764-29.355l-1.528-1.29C3.884 18.395.85 28.655.85 41.7h2zm8.758-29.348C17.485 5.512 25.736 2.05 36.5 2.05v-2c-11.235 0-20.085 3.638-26.409 10.998l1.518 1.304zM35 18.5c-6.187 0-10.961 1.759-14.11 5.451l1.52 1.298C25.062 22.14 29.188 20.5 35 20.5v-2zm-14.101 5.44c-3.136 3.568-4.599 9.112-4.599 16.41h2c0-7.102 1.437-12.058 4.101-15.09L20.9 23.94zM16.3 40.35c0 7.4 1.465 13.078 4.58 16.838l1.54-1.276c-2.685-3.24-4.12-8.363-4.12-15.562h-2zm4.58 16.838c3.15 3.801 7.98 5.612 14.27 5.612v-2c-5.91 0-10.08-1.69-12.73-4.888l-1.54 1.276zM35.15 62.8c6.178 0 10.95-1.703 14.101-5.29l-1.502-1.32C45.1 59.203 40.972 60.8 35.15 60.8v2zm14.1-5.288C52.479 53.852 54 48.367 54 41.25h-2c0 6.883-1.479 11.798-4.25 14.938l1.5 1.324zM54 41.25c0-7.503-1.515-13.238-4.74-17l-1.52 1.3c2.775 3.238 4.26 8.403 4.26 15.7h2zm-4.732-16.99C46.028 20.37 41.207 18.5 35 18.5v2c5.793 0 9.973 1.73 12.732 5.04l1.536-1.28zm65.105-20.81l.999.028.015-.523-.421-.31-.593.805zm-1.2 43.35l-1-.028-.001.031.001.03 1-.033zm1.05 31.2v1h1.034l-.035-1.034-.999.034zm-20.25 0l-1-.03-.032 1.03h1.032v-1zm.9-29.1l1 .03v-.03h-1zm0-24.9h1v-1.3l-1.257.334.257.966zm-16.95 4.5l-.574.82.381.266.45-.12-.257-.966zm-1.5-1.05h-1v.52l.426.3.574-.82zm0-16.05l-.276-.961-.724.207v.754h1zm35.1-10.05l.593-.805-.396-.292-.473.136.276.961zm1.85 2.072l-1.2 43.35 1.999.056 1.2-43.35-1.999-.056zm-1.2 43.412l1.05 31.2 1.999-.068-1.05-31.2-1.999.068zM114.223 77h-20.25v2h20.25v-2zm-19.25 1.03l.9-29.1-2-.06-.9 29.1 2 .06zm.9-29.13V24h-2v24.9h2zm-1.257-25.866l-16.95 4.5.513 1.933 16.95-4.5-.513-1.933zm-16.12 4.647l-1.5-1.05-1.147 1.638 1.5 1.05 1.147-1.638zm-1.073-.231V11.4h-2v16.05h2zm-.725-15.089l35.1-10.05-.551-1.922-35.1 10.05.55 1.922zm34.231-10.206l2.85 2.1 1.187-1.61-2.85-2.1-1.187 1.61z" fill="#000"/></svg>