<svg width="60" height="60" fill="none" xmlns="http://www.w3.org/2000/svg"><path fill-rule="evenodd" clip-rule="evenodd" d="M44.403 25.5v8.333c0 1.381-1.002 2.5-2.237 2.5h-2.237V25.5h4.474zm-23.86-3.333V20.5c0-1.38 1.002-2.5 2.237-2.5h19.386c1.235 0 2.237 1.12 2.237 2.5v1.667h-23.86zm-3.728 2.5h19.386c1.235 0 2.237 1.12 2.237 2.5V40.5c0 1.38-1.002 2.5-2.237 2.5H16.815c-1.235 0-2.237-1.12-2.237-2.5V27.167c0-1.38 1.002-2.5 2.237-2.5zm1.864 4.166c-.618 0-1.118.56-1.118 1.25s.5 1.25 1.118 1.25h2.983c.617 0 1.118-.56 1.118-1.25s-.5-1.25-1.119-1.25H18.68zm-.373 6.667c-.412 0-.745.373-.745.833 0 .46.333.834.745.834h2.237c.412 0 .746-.373.746-.834 0-.46-.334-.833-.746-.833h-2.237zm0 2.5c-.412 0-.745.373-.745.833 0 .46.333.834.745.834H29.49c.412 0 .746-.373.746-.834 0-.46-.334-.833-.746-.833H18.306zm4.474-2.5c-.412 0-.746.373-.746.833 0 .46.334.834.746.834h2.237c.412 0 .745-.373.745-.834 0-.46-.334-.833-.745-.833H22.78zm4.474 0c-.412 0-.746.373-.746.833 0 .46.334.834.746.834h2.236c.412 0 .746-.373.746-.834 0-.46-.334-.833-.746-.833h-2.236zm4.473 0c-.412 0-.745.373-.745.833 0 .46.334.834.745.834h2.237c.412 0 .746-.373.746-.834 0-.46-.334-.833-.746-.833h-2.237zm-1.118-3.334c.61 0 1.151-.327 1.491-.833.34.506.881.834 1.491.834 1.03 0 1.864-.933 1.864-2.084 0-1.15-.834-2.083-1.864-2.083-.61 0-1.15.327-1.49.833-.341-.506-.882-.833-1.492-.833-1.03 0-1.864.933-1.864 2.083 0 1.15.834 2.084 1.864 2.084z" fill="#191A21"/></svg>