<svg width="60" height="60" fill="none" xmlns="http://www.w3.org/2000/svg"><path fill-rule="evenodd" clip-rule="evenodd" d="M23.404 15.6h12.315c1.276 0 2.31 1.074 2.31 2.4v24c0 1.325-1.034 2.4-2.31 2.4H23.404c-1.276 0-2.31-1.075-2.31-2.4V18c0-1.326 1.034-2.4 2.31-2.4zm0 2.4c-.425 0-.77.358-.77.8v20.8c0 .441.345.8.77.8h12.315c.425 0 .77-.359.77-.8V18.8c0-.442-.345-.8-.77-.8H23.404zm1.539 7.2h9.237c.425 0 .77.358.77.8v6.4c0 .442-.345.8-.77.8h-9.237c-.425 0-.77-.358-.77-.8V26c0-.442.345-.8.77-.8zm1.54 2.4c-.426 0-.77.358-.77.8 0 .442.344.8.77.8h.769c.425 0 .77-.358.77-.8 0-.442-.345-.8-.77-.8h-.77zm0 2.4c-.426 0-.77.358-.77.8 0 .441.344.8.77.8H31.1c.425 0 .77-.359.77-.8 0-.442-.345-.8-.77-.8h-4.619zm1.924 12a.393.393 0 00-.385.4v.8c0 .22.172.4.385.4h2.309c.212 0 .385-.18.385-.4v-.8c0-.221-.172-.4-.385-.4h-2.31zm-9.622-15.2c.425 0 .77.358.77.8v4.8c0 .442-.345.8-.77.8-.425 0-.77-.358-.77-.8v-4.8c0-.442.345-.8.77-.8zm21.552 0c.426 0 .77.358.77.8v4.8c0 .442-.344.8-.77.8-.425 0-.77-.358-.77-.8v-4.8c0-.442.345-.8.77-.8zm-24.63-2.4c.424 0 .769.358.769.8v9.6c0 .442-.345.8-.77.8-.425 0-.77-.358-.77-.8v-9.6c0-.442.345-.8.77-.8zm27.71 0c.425 0 .77.358.77.8v9.6c0 .442-.345.8-.77.8-.425 0-.77-.358-.77-.8v-9.6c0-.442.345-.8.77-.8z" fill="#191A21"/></svg>