<svg width="60" height="60" fill="none" xmlns="http://www.w3.org/2000/svg"><path fill-rule="evenodd" clip-rule="evenodd" d="M35.78 42.384c2.663 0 5.554.953 8.753 3.91.32.296.747-.072.467-.44-3.144-4.14-6.051-4.93-8.951-5.596-3.547-.815-5.372-2.897-6.643-5.183-.253-.455-.367-.375-.39.21-.027.715.02 1.66.173 2.592-.143.007-.287.005-.431.005-5.075 0-9.189-4.291-9.189-9.585 0-5.293 4.114-9.585 9.189-9.585 5.074 0 9.188 4.292 9.188 9.585 0 .377-.018.749-.058 1.114-.672-.126-1.992-.14-2.919-.057-.348.032-.299.201-.035.25 3.037.573 5.124 2.537 5.6 6.1.011.082.114.107.155.036a14.906 14.906 0 001.968-7.443c0-8.008-6.223-14.5-13.9-14.5-7.676 0-13.9 6.492-13.9 14.5s6.224 14.5 13.9 14.5c2.037 0 4.057-.413 7.022-.413zm1.034-5.264c.618.545.806 1.194.48 1.651-.183.25-.477.39-.83.39-.347 0-.701-.135-.947-.358-.562-.513-.727-1.344-.36-1.816.144-.185.377-.287.656-.287.34 0 .695.15 1.001.42zm2.853-1.385c.091.635-.101.898-.295.898-.21 0-.475-.257-.788-.765-.308-.502-.42-1.078-.268-1.369.101-.192.313-.276.579-.17.516.203.718 1.026.772 1.406z" fill="#191A21"/></svg>