<svg width="60" height="60" fill="none" xmlns="http://www.w3.org/2000/svg"><path d="M41.807 20.047a16.571 16.571 0 011.867 3.085L29.54 33.547l-5.935-3.726v-4.46l5.904 3.696 12.297-9.01zM17.58 29.515c0-.213 0-.397.03-.61l-3.58-.184c0 .244-.03.52-.03.764 0 4.276 1.744 8.154 4.558 10.964l2.54-2.535a11.73 11.73 0 01-3.519-8.399zm11.93-11.911c.214 0 .397 0 .611.03l.184-3.573c-.245 0-.52-.03-.765-.03-4.282 0-8.168 1.74-10.982 4.55l2.54 2.535a11.82 11.82 0 018.412-3.512zm0 23.822c-.214 0-.398 0-.612-.03l-.184 3.573c.245 0 .52.03.765.03 4.283 0 8.168-1.74 10.982-4.55l-2.539-2.535c-2.141 2.2-5.108 3.512-8.412 3.512z" fill="#191A21"/><path d="M36.238 19.68l3.029-2.229A15.555 15.555 0 0029.508 14v3.573c2.509.03 4.834.794 6.73 2.108zm8.812 9.835c0-.947-.091-1.863-.244-2.779L41.47 29.21v.305c0 3.513-1.53 6.658-3.946 8.827l2.417 2.657a15.46 15.46 0 005.108-11.484zM29.509 41.427a11.86 11.86 0 01-8.84-3.94L18.006 39.9A15.447 15.447 0 0029.509 45v-3.573zm-7.984-20.738l-2.416-2.657A15.4 15.4 0 0014 29.515h3.58c0-3.482 1.529-6.658 3.945-8.826z" fill="#191A21"/></svg>