<svg width="40" height="40" fill="none" xmlns="http://www.w3.org/2000/svg"><path d="M36.668 28.333H3.335a1.666 1.666 0 100 3.334h33.333a1.667 1.667 0 000-3.334zm0 6.667H3.335a1.667 1.667 0 100 3.333h33.333a1.667 1.667 0 000-3.333zM10.001 11.667a1.666 1.666 0 100 3.332 1.666 1.666 0 000-3.332zm23.334-10H6.668a5 5 0 00-5 5V20a5 5 0 005 5h26.667a5 5 0 005-5V6.667a5 5 0 00-5-5zM35 20a1.666 1.666 0 01-1.666 1.667H6.668A1.667 1.667 0 015.001 20V6.667A1.667 1.667 0 016.668 5h26.667A1.666 1.666 0 0135 6.667V20zM20 8.333a5 5 0 100 10 5 5 0 000-10zM20 15a1.666 1.666 0 110-3.333A1.666 1.666 0 0120 15zm10-3.333A1.666 1.666 0 1030 15a1.666 1.666 0 000-3.333z" fill="#fff"/></svg>