<svg width="34" height="36" fill="none" xmlns="http://www.w3.org/2000/svg"><path d="M31.45 0c.49 0 .961.19 1.308.527.347.338.542.796.542 1.273v32.4c0 .477-.195.935-.542 1.273A1.876 1.876 0 0131.45 36H1.85c-.49 0-.961-.19-1.308-.527A1.776 1.776 0 010 34.2V1.8C0 1.323.195.865.542.527A1.876 1.876 0 011.85 0h29.6zM29.6 3.6H3.7v28.8h25.9V3.6zm-5.55 21.6v3.6H9.25v-3.6h14.8zm-7.4-18c1.963 0 3.845.759 5.233 2.109A7.103 7.103 0 0124.05 14.4c0 1.91-.78 3.74-2.167 5.091A7.506 7.506 0 0116.65 21.6a7.506 7.506 0 01-5.233-2.109A7.103 7.103 0 019.25 14.4c0-1.91.78-3.74 2.167-5.091A7.506 7.506 0 0116.65 7.2zm0 3.6c-.981 0-1.922.38-2.616 1.054A3.551 3.551 0 0012.95 14.4c0 .955.39 1.87 1.084 2.546A3.753 3.753 0 0016.65 18c.981 0 1.922-.38 2.616-1.054A3.551 3.551 0 0020.35 14.4c0-.955-.39-1.87-1.084-2.546A3.753 3.753 0 0016.65 10.8z" fill="#fff"/></svg>