<svg width="29" height="29" fill="none" xmlns="http://www.w3.org/2000/svg"><path fill-rule="evenodd" clip-rule="evenodd" d="M14.5 28.5c7.732 0 14-6.267 14-14 0-7.731-6.268-14-14-14s-14 6.27-14 14c0 7.733 6.268 14 14 14zm6.018-20.018c.284.276.502.611.639.982.117.301.256.753.294 1.586.04.9.05 1.17.05 3.45 0 2.28-.01 2.55-.05 3.45-.038.833-.178 1.285-.294 1.586a2.827 2.827 0 01-1.62 1.62c-.302.117-.754.256-1.586.294-.9.041-1.17.05-3.45.05-2.28 0-2.55-.009-3.451-.05-.832-.038-1.285-.177-1.586-.294a2.642 2.642 0 01-.981-.639 2.646 2.646 0 01-.639-.981c-.117-.301-.256-.753-.294-1.585-.04-.901-.05-1.171-.05-3.45 0-2.28.01-2.55.05-3.451.038-.833.177-1.285.294-1.586.137-.37.355-.706.639-.982a2.64 2.64 0 01.982-.638c.3-.117.753-.256 1.585-.294.9-.041 1.17-.05 3.45-.05 2.28 0 2.55.009 3.45.05.833.038 1.285.177 1.586.294.371.137.706.355.982.638zM10.116 14.5a4.385 4.385 0 108.769 0 4.385 4.385 0 00-8.77 0zm7.918-4.558a1.025 1.025 0 102.049 0 1.025 1.025 0 00-2.05 0zM14.5 17.346a2.846 2.846 0 100-5.692 2.846 2.846 0 000 5.692z" fill="#fff"/></svg>