<svg width="66" height="82" fill="none" xmlns="http://www.w3.org/2000/svg"><path d="M17.14 61.366c.842 0 1.492.25 1.952.75.467.494.7 1.19.7 2.092 0 1-.249 1.77-.746 2.31-.49.539-1.19.808-2.101.808-.85 0-1.505-.254-1.964-.762-.46-.508-.689-1.228-.689-2.16 0-.97.245-1.717.735-2.241.498-.531 1.202-.797 2.113-.797zm-.104.913c-.55 0-.957.157-1.217.473-.252.308-.379.813-.379 1.513 0 .778.127 1.333.38 1.664.252.33.654.496 1.205.496.559 0 .968-.154 1.229-.462.26-.315.39-.828.39-1.536 0-.77-.126-1.32-.379-1.652-.253-.33-.662-.496-1.229-.496zm13.52-.739l-.069.889-1.113-.081h-.483l-.023 3.05.035 1.836H27.8l.045-1.733-.023-3.153h-.47l-1.137.08-.08-.092.08-.89h4.283l.057.093zm9.421-.105c.62 0 1.098.154 1.435.462.345.3.517.732.517 1.294 0 .662-.218 1.186-.655 1.571-.436.377-1.025.566-1.768.566h-.654v.07l.046 1.836h-1.103l.046-1.733-.046-4.054 2.182-.012zm-.195 3.061c.658-.138.987-.543.987-1.212 0-.332-.092-.578-.276-.74-.183-.161-.466-.25-.85-.265l-.745.023-.035 2.171.919.023zm13.302 1.814l.08.08-.092.844h-3.686l.046-1.733-.046-4.054h3.72l.07.092-.081.843-1.458-.057-1.149.011-.023 1.502 1.103.011.999-.034.057.092-.069.855-1.08-.035-1.021.012-.011.658.023.947 1.067.012 1.55-.046zm10.35-2.541c.628 0 1.106.134 1.435.404.33.262.494.643.494 1.144 0 .608-.23 1.082-.689 1.42-.46.331-1.106.497-1.94.497H61.01l.057-1.733-.057-4.077h4.053l.046.092-.057.832-1.527-.023h-1.39l-.023 1.444h1.32zm-.345 2.68c.353-.047.62-.154.804-.324a.851.851 0 00.287-.67c0-.293-.095-.516-.287-.67-.191-.162-.467-.239-.827-.23l-.964.01-.011.832.022 1.005.976.046z" fill="#000"/><path d="M6.363 64.9l.034 2.334H5.226l.046-2.23-.035-4.25H2.183L2.137 64.9l.046 2.333H1l.058-2.23L1 59.819h5.42l-.057 5.083zM2.137 76.569l.046 2.333H1l.057-2.23L1 71.487h1.194l-.057 5.083zm1.32-1.594A45.934 45.934 0 006.5 78.648l-.011.139a8.301 8.301 0 01-1.137.219l-.15-.07a65.236 65.236 0 01-2.962-3.904v-.08l2.297-2.796.459-.67h1.297l-2.836 3.489z" fill="#fff"/><path d="M16.182 73.103c.62 0 1.098.154 1.435.462.345.3.517.732.517 1.294 0 .662-.218 1.186-.655 1.571-.436.377-1.026.566-1.768.566h-.655v.07l.046 1.836H14l.046-1.733L14 73.115l2.182-.012zm-.195 3.061c.658-.138.987-.543.987-1.213 0-.33-.092-.577-.276-.739-.183-.162-.466-.25-.85-.266l-.746.024-.034 2.171.918.023zm13.147 1.814l.08.08-.091.844h-3.686l.046-1.733-.046-4.054h3.72l.07.092-.081.844-1.458-.058-1.149.011-.023 1.502 1.103.011.999-.034.057.092-.069.855-1.08-.035-1.021.012-.012.658.023.948 1.068.011 1.55-.046zm12.816.012v2.379l-.816.07-.16-1.537h-3.997l-.16 1.467-.827.07v-2.45h.505c.268-.13.479-.327.632-.589.153-.27.28-.65.379-1.143.1-.5.19-1.198.275-2.091l.115-1.028-.011-.023h3.272l-.046 3.95.023.924h.815zm-1.86-.82l-.035-3.224H38.78l-.046.416c-.107 1.07-.237 1.88-.39 2.426-.153.54-.372.94-.655 1.201h2.377l.023-.82zm9.38 0l-.057-4.044 1.137-.057-.069 4.1h.08l2.7-4.077h1.205l-.058 3.973.035 1.837h-1.125l.057-1.733v-2.345h-.092l-2.698 4.078h-1.172l.058-1.733zm16.387-3.963l-.07.89-1.113-.081h-.482l-.023 3.05.034 1.836h-1.102l.046-1.733-.023-3.153h-.47l-1.138.08-.08-.092.08-.89H65.8l.058.093z" fill="#000"/><path fill-rule="evenodd" clip-rule="evenodd" d="M1 12.875C22.242 8.77 43.534 4.717 64.776.664v5.204L6.472 17.028V42.1L1 41.05V12.875z" fill="#fff"/><path fill-rule="evenodd" clip-rule="evenodd" d="M22.282 44.953l1.692.35 2.935.55V26.888h-4.627v18.066zm-9.551-7.056L9 37.197v5.254l5.074 1 3.134.601V26.887h-4.477v11.01zm14.178-11.01h-4.627v-1.902l-5.074 1.001v.901h-4.477v-5.655l14.178-2.702v8.357zm12.984 8.357l-6.07.05v11.911l-4.874-.95V26.886h4.875v3.053l6.069-.1v-2.953h5.024v22.42l-5.024-.951V35.244zm5.024-8.357h-5.024v-5.305l-6.07 1.151v4.154H28.95v-8.758l12.635-2.452 3.333-.65v11.86zm15.472 20.218l-8.557-1.652V35.094l8.557-.1v12.11zm-10.845 3.103L63.87 52.96l1.393.25V26.887h-4.875v2.702l-8.557.1v-2.802h-4.875v22.82l2.587.5zm15.72-39.085v15.764h-4.875v-9.308l-6.07 1.15-2.487.501v7.607h-4.875v-12.16l18.307-3.554z" fill="#000"/><path d="M46.958 24.558h4.873v7.883h-4.873v-7.883z" fill="#000"/></svg>