<svg width="145" height="173" fill="none" xmlns="http://www.w3.org/2000/svg"><path d="M46.967 122.151c1.694 0 3.004.504 3.928 1.511.94.992 1.41 2.394 1.41 4.208 0 2.014-.501 3.564-1.503 4.648-.986 1.085-2.395 1.628-4.228 1.628-1.71 0-3.027-.512-3.951-1.535-.924-1.022-1.387-2.471-1.387-4.346 0-1.953.493-3.456 1.48-4.51 1-1.069 2.418-1.604 4.25-1.604zm-.208 1.837c-1.11 0-1.926.317-2.45.953-.508.62-.762 1.635-.762 3.045 0 1.565.254 2.681.763 3.347.508.666 1.317.999 2.426.999 1.124 0 1.948-.309 2.472-.929.524-.636.786-1.666.786-3.092 0-1.549-.255-2.657-.763-3.324-.508-.666-1.332-.999-2.472-.999zm27.206-1.488l-.139 1.79-2.24-.163h-.971l-.047 6.137.07 3.696h-2.219l.093-3.487-.046-6.346h-.948l-2.287.163-.162-.186.162-1.79h8.619l.115.186zm18.957-.209c1.248 0 2.21.31 2.888.93.693.604 1.04 1.472 1.04 2.603 0 1.333-.44 2.386-1.317 3.161-.878.76-2.064 1.139-3.558 1.139h-1.318v.14l.093 3.696h-2.218l.092-3.487-.092-8.159 4.39-.023zm-.393 6.16c1.325-.279 1.987-1.093 1.987-2.441 0-.666-.185-1.162-.554-1.488-.37-.325-.94-.503-1.71-.534l-1.502.046-.07 4.37 1.85.047zm26.767 3.649l.162.163-.185 1.697h-7.417l.093-3.487-.093-8.159h7.487l.138.186-.162 1.697-2.934-.116-2.311.023-.046 3.022 2.218.023 2.011-.07.115.186-.139 1.72-2.172-.069-2.056.023-.023 1.325.046 1.906 2.149.023 3.119-.093zm20.829-5.114c1.263 0 2.225.271 2.888.814.662.527.993 1.294.993 2.301 0 1.224-.462 2.177-1.386 2.859-.924.666-2.226 1-3.905 1h-3.466l.116-3.487-.116-8.205h8.157l.092.186-.115 1.673-3.074-.046h-2.796l-.046 2.905h2.658zm-.694 5.393c.709-.093 1.248-.31 1.618-.651.385-.341.577-.79.577-1.348 0-.589-.192-1.038-.577-1.348-.385-.326-.94-.481-1.664-.465l-1.941.023-.023 1.674.046 2.022 1.964.093z" fill="#fff"/><g filter="url(#filter0_d)"><mask id="a" fill="#fff"><path d="M25.791 129.264l.07 4.696h-2.357l.092-4.487-.07-8.554h-6.145l-.093 8.345.093 4.696H15l.115-4.487L15 119.037h10.906l-.116 10.227zm-8.503 23.48l.092 4.695H15l.116-4.486L15 142.516h2.403l-.115 10.228zm2.657-3.208c1.787 2.418 3.828 4.881 6.123 7.392l-.023.279a16.62 16.62 0 01-2.288.441l-.3-.139c-2.341-2.882-4.329-5.501-5.962-7.857v-.162l4.622-5.626.924-1.348h2.611l-5.707 7.02z"/></mask><path d="M25.791 129.264l.07 4.696h-2.357l.092-4.487-.07-8.554h-6.145l-.093 8.345.093 4.696H15l.115-4.487L15 119.037h10.906l-.116 10.227zm-8.503 23.48l.092 4.695H15l.116-4.486L15 142.516h2.403l-.115 10.228zm2.657-3.208c1.787 2.418 3.828 4.881 6.123 7.392l-.023.279a16.62 16.62 0 01-2.288.441l-.3-.139c-2.341-2.882-4.329-5.501-5.962-7.857v-.162l4.622-5.626.924-1.348h2.611l-5.707 7.02z" fill="#CB010B"/><path d="M25.791 129.264l-5-.056v.13l5-.074zm.07 4.696v5h5.074l-.075-5.074-5 .074zm-2.357 0l-5-.103-.104 5.103h5.104v-5zm.092-4.487l4.999.103.002-.071-.001-.072-5 .04zm-.07-8.554l5-.04-.04-4.96h-4.96v5zm-6.145 0v-5h-4.946l-.054 4.945 5 .055zm-.093 8.345l-5-.055v.077l.001.077 4.999-.099zm.093 4.696v5h5.099l-.1-5.099-5 .099zm-2.38 0l-4.999-.129-.132 5.129H15v-5zm.115-4.487l4.998.129.003-.092-.001-.092-5 .055zm-.115-10.436v-5H9.945l.056 5.055 5-.055zm10.906 0l5 .056.056-5.056h-5.056v5zm-8.62 33.707l-5-.057v.078l.002.077 4.999-.098zm.093 4.695v5h5.1l-.101-5.098-4.999.098zm-2.38 0l-4.998-.128-.132 5.128H15v-5zm.116-4.486l4.998.129.002-.092v-.092l-5 .055zM15 142.516v-5H9.944l.056 5.056 5-.056zm2.403 0l5 .057.057-5.057h-5.057v5zm2.542 7.02l-3.88-3.154-2.446 3.008 2.305 3.118 4.02-2.972zm6.123 7.392l4.983.413.18-2.176-1.473-1.611-3.69 3.374zm-.023.279l1.323 4.822 3.371-.925.289-3.484-4.983-.413zm-2.288.441l-2.105 4.535 1.309.608 1.431-.183-.635-4.96zm-.3-.139l-3.88 3.153.727.896 1.047.486 2.106-4.535zm-5.962-7.857h-5v1.564l.891 1.285 4.11-2.849zm0-.162l-3.863-3.174-1.136 1.383v1.791h5zm4.622-5.626l3.863 3.174.138-.167.123-.179-4.124-2.828zm.924-1.348v-5h-2.634l-1.49 2.173 4.124 2.827zm2.611 0l3.88 3.154 6.63-8.154h-10.51v5zm-4.86-13.178l.07 4.695 9.998-.147-.07-4.696-9.998.148zm5.068-.378h-2.356v10h2.356v-10zm2.643 5.103l.092-4.487-9.998-.206-.092 4.487 9.998.206zm.093-4.63l-.07-8.554-10 .081.07 8.554 10-.081zm-5.07-13.514h-6.145v10h6.146v-10zm-11.145 4.945l-.093 8.345 10 .111.092-8.345-10-.111zm-.092 8.499l.092 4.695 9.998-.197-.092-4.695-9.998.197zm5.092-.403H15v10h2.38v-10zm2.618 5.128l.115-4.486-9.996-.257-.116 4.486 9.997.257zm.117-4.67L20 118.981l-10 .111.116 10.437 10-.111zM15 124.037h10.906v-10H15v10zm5.906-5.057l-.116 10.228 10 .113.115-10.228-9.999-.113zm-8.618 33.862l.092 4.696 9.998-.197-.092-4.696-9.998.197zm5.091-.403H15v10h2.38v-10zm2.618 5.129l.116-4.486-9.997-.258-.115 4.487 9.996.257zm.117-4.67L20 142.461l-10 .111.116 10.436 10-.11zM15 147.516h2.403v-10H15v10zm-2.597-5.056l-.115 10.227 10 .113.115-10.227-10-.113zm3.521 10.048c1.902 2.574 4.056 5.172 6.454 7.794l7.38-6.748c-2.193-2.399-4.121-4.729-5.792-6.99l-8.042 5.944zm5.161 4.007l-.023.279 9.966.826.023-.279-9.966-.826zm3.637-4.13c-.41.112-.937.219-1.6.304l1.27 9.919c1.032-.132 2.03-.32 2.976-.579l-2.646-9.644zm1.14.728l-.3-.139-4.21 9.07.3.139 4.21-9.07zm1.476 1.243c-2.284-2.811-4.19-5.326-5.733-7.552l-8.219 5.697c1.723 2.485 3.79 5.207 6.19 8.161l7.762-6.306zm-4.843-4.704v-.162h-10v.162h10zm-1.136 3.012l4.621-5.626-7.727-6.348-4.62 5.626 7.726 6.348zm4.882-5.972l.924-1.349-8.248-5.654-.924 1.348 8.248 5.655zm-3.2.824h2.611v-10h-2.611v10zm-1.268-8.154l-5.708 7.02 7.76 6.308 5.707-7.02-7.76-6.308z" fill="#CB010B" mask="url(#a)"/></g><path d="M45.039 145.77c1.247 0 2.21.31 2.888.93.693.604 1.04 1.472 1.04 2.603 0 1.333-.44 2.387-1.317 3.161-.878.76-2.064 1.139-3.559 1.139h-1.317v.14l.093 3.696h-2.219l.093-3.487-.093-8.159 4.39-.023zm-.393 6.16c1.325-.279 1.987-1.093 1.987-2.441 0-.666-.185-1.162-.555-1.488-.37-.325-.94-.503-1.71-.534l-1.501.046-.07 4.37 1.849.047zm26.457 3.649l.162.163-.185 1.697h-7.417l.093-3.487-.093-8.159h7.487l.138.186-.162 1.697-2.934-.116-2.31.023-.047 3.022 2.218.023 2.01-.07.116.186-.139 1.72-2.172-.069-2.056.023-.023 1.325.046 1.906 2.149.023 3.12-.093zm25.787.023v4.789l-1.64.139-.323-3.091h-8.041l-.324 2.952-1.663.139v-4.928h1.016c.54-.263.963-.658 1.271-1.185.308-.542.562-1.31.763-2.301.2-1.008.385-2.41.554-4.208l.231-2.068-.023-.047h6.585l-.092 7.95.046 1.859h1.64zm-3.742-1.65l-.07-6.485h-2.565l-.092.837c-.216 2.154-.478 3.781-.786 4.881-.308 1.085-.747 1.89-1.317 2.417h4.783l.047-1.65zm18.878 0l-.115-8.136 2.287-.116-.138 8.252h.161l5.43-8.205h2.427l-.116 7.996.069 3.696h-2.264l.115-3.487v-4.719h-.184l-5.43 8.206h-2.357l.115-3.487zM145 145.979l-.139 1.79-2.241-.163h-.971l-.046 6.137.069 3.696h-2.218l.093-3.487-.047-6.346h-.947l-2.288.163-.161-.186.161-1.79h8.619l.116.186z" fill="#fff"/><path fill-rule="evenodd" clip-rule="evenodd" d="M15.01 24.572C57.757 16.314 100.602 8.157 143.347 0v10.473L26.022 32.93v50.453l-11.011-2.115V24.572z" fill="#CB010B"/><path fill-rule="evenodd" clip-rule="evenodd" d="M56.354 89.123l3.404.705 5.906 1.107V52.77h-9.31v36.354zm-19.22-14.2l-7.508-1.41v10.575l10.21 2.014 6.307 1.208V52.77h-9.01v22.155zm28.53-22.154h-9.31v-3.827l-10.21 2.014v1.813h-9.01v-11.38l28.53-5.438V52.77zm26.128 16.817l-12.213.1v23.968l-9.81-1.913V52.77h9.81v6.143l12.213-.202V52.77h10.11v45.115l-10.11-1.913V69.586zm10.11-16.817h-10.11V42.094L79.579 44.41v8.359h-9.81V35.145l25.426-4.934 6.707-1.31V52.77zm31.133 40.684l-17.218-3.323V69.284l17.218-.201v24.37zm-21.823 6.244l28.831 5.538 2.803.504v-52.97h-9.811v5.438l-17.218.201v-5.64h-9.81V98.69l5.205 1.007zm31.634-78.65v31.722h-9.811V34.038l-12.213 2.316-5.005 1.007v15.307h-9.81V28.197l36.839-7.15z" fill="#fff"/><path d="M106.008 48.082h9.807v15.862h-9.807V48.082z" fill="#fff"/><defs><filter id="filter0_d" x="0" y="104.037" width="41.068" height="68.612" filterUnits="userSpaceOnUse" color-interpolation-filters="sRGB"><feFlood flood-opacity="0" result="BackgroundImageFix"/><feColorMatrix in="SourceAlpha" values="0 0 0 0 0 0 0 0 0 0 0 0 0 0 0 0 0 0 127 0"/><feOffset/><feGaussianBlur stdDeviation="7.5"/><feColorMatrix values="0 0 0 0 0.796078 0 0 0 0 0.00392157 0 0 0 0 0.0431373 0 0 0 1 0"/><feBlend in2="BackgroundImageFix" result="effect1_dropShadow"/><feBlend in="SourceGraphic" in2="effect1_dropShadow" result="shape"/></filter></defs></svg>