<svg width="35" height="35" fill="none" xmlns="http://www.w3.org/2000/svg"><path d="M20.781 21.146l-1.662 1.108a2.916 2.916 0 01-3.238 0l-1.662-1.108m-9.844 6.562V14.685a2.917 2.917 0 011.298-2.426L15.88 5.454a2.916 2.916 0 013.238 0l10.208 6.805a2.917 2.917 0 011.298 2.426v13.023H4.375zm0 0a2.916 2.916 0 002.917 2.917h20.416a2.917 2.917 0 002.917-2.917H4.375zm0 0l9.844-6.562-9.844 6.562zm26.25 0l-9.844-6.562 9.844 6.562zM4.375 14.583l9.844 6.563-9.844-6.563zm26.25 0l-9.844 6.563 9.844-6.563z" stroke="#fff" stroke-width="2" stroke-linecap="round" stroke-linejoin="round"/></svg>