<svg width="89" height="29" fill="none" xmlns="http://www.w3.org/2000/svg"><path fill-rule="evenodd" clip-rule="evenodd" d="M1.84 6.647C6.135-.801 14.253-.734 17.004.877c2.886 1.677 3.892 5.3 2.282 8.05-1.477 2.55-4.63 3.557-7.381 2.416-.201-.067-1.074-.604-1.812-.872-1.073-.402-2.818-.738-5.166-.201C.9 11.276.029 14.229.029 14.229S-.374 10.47 1.84 6.647z" fill="#00409E"/><path fill-rule="evenodd" clip-rule="evenodd" d="M13.649 28.252c-8.589 0-12.547-7.046-12.547-10.2 0-3.287 2.616-6.038 5.837-6.038 2.952 0 5.368 2.214 5.77 5.167 0 .201 0 1.207.135 2.013.2 1.14.738 2.818 2.415 4.562 2.885 2.953 5.838 2.282 5.838 2.282s-3.02 2.214-7.448 2.214z" fill="#FF1520"/><path fill-rule="evenodd" clip-rule="evenodd" d="M26.599 7.25c4.227 7.515.067 14.427-2.684 15.97-2.885 1.61-6.508.67-8.119-2.08-1.476-2.55-.738-5.77 1.61-7.582.202-.134 1.074-.604 1.678-1.14.872-.739 2.08-2.08 2.751-4.362 1.14-3.959-.94-6.173-.94-6.173s3.49 1.476 5.704 5.368z" fill="#C4C4C4"/><path d="M49.08 28.32l-.043-7.034-3.347 5.644H43.4l-3.345-5.401v6.79H35.32V12.887h4.271l5.02 8.223 4.887-8.223h4.271l.044 15.432H49.08zm7.44-15.433h5.107v8.025l5.306-8.025h4.887v15.432h-5.107v-8.003l-5.284 8.003h-4.91V12.887zm25.457 0c1.423 0 2.663.235 3.72.705 1.057.47 1.871 1.147 2.444 2.028.572.882.858 1.911.858 3.087 0 1.176-.286 2.205-.858 3.086-.573.882-1.387 1.558-2.444 2.029-1.057.47-2.297.705-3.72.705h-2.224v3.792h-5.196V12.887h7.42zm-.33 7.628c.704 0 1.232-.155 1.584-.463.353-.324.529-.772.529-1.345s-.176-1.014-.529-1.323c-.352-.323-.88-.485-1.585-.485h-1.893v3.616h1.893zM36.675 3.733c-.432 0-.761-.12-.989-.36-.224-.242-.344-.573-.36-.993a14.46 14.46 0 01-.005-.44c0-.206.002-.355.005-.449.016-.42.136-.749.36-.988.228-.243.557-.365.989-.365.289 0 .534.053.735.16.201.103.352.24.453.41.103.17.16.35.17.544 0 .03-.011.055-.034.075a.108.108 0 01-.073.025h-.244a.116.116 0 01-.077-.025.158.158 0 01-.044-.085c-.055-.257-.156-.436-.302-.54-.143-.103-.338-.154-.584-.154-.565 0-.859.323-.881.968-.004.09-.005.228-.005.415 0 .186.001.328.005.424.022.643.316.964.88.964.244 0 .439-.052.585-.155.146-.103.247-.281.302-.534a.158.158 0 01.044-.085.116.116 0 01.078-.025h.243c.03 0 .053.01.073.03.023.017.034.04.034.07a1.14 1.14 0 01-.623.959 1.596 1.596 0 01-.735.154zm1.787-.05a.092.092 0 01-.069-.03.097.097 0 01-.029-.07l.01-.054L39.581.298a.152.152 0 01.156-.11h.312c.078 0 .13.037.156.11l1.207 3.23.01.056a.09.09 0 01-.034.07.092.092 0 01-.069.03h-.229a.136.136 0 01-.082-.026.158.158 0 01-.04-.06l-.272-.718h-1.611l-.268.719c-.026.056-.066.084-.122.084h-.233zm.764-1.218h1.334L39.893.672l-.667 1.793zm2.834 1.218a.121.121 0 01-.084-.03.128.128 0 01-.029-.084V.308c0-.037.01-.065.03-.085a.102.102 0 01.082-.035h.229c.058 0 .099.025.122.075l1.037 2.042L44.493.263c.026-.05.065-.075.117-.075h.229c.036 0 .063.012.083.035.02.02.029.048.029.085v3.26a.117.117 0 01-.034.085.104.104 0 01-.078.03h-.224a.104.104 0 01-.078-.03.128.128 0 01-.029-.084V1.087l-.833 1.653c-.032.07-.084.105-.155.105h-.146c-.069 0-.12-.035-.156-.105l-.828-1.653v2.482a.117.117 0 01-.034.084.104.104 0 01-.078.03h-.219zm4.965.05c-.422 0-.748-.113-.979-.34-.23-.229-.352-.573-.365-1.033a14.74 14.74 0 010-.844c.013-.452.138-.795.375-1.028.24-.233.563-.35.969-.35s.727.117.964.35c.237.233.362.576.375 1.028.006.193.01.333.01.42 0 .083-.004.224-.01.424-.013.46-.135.804-.365 1.034-.228.226-.552.34-.974.34zm0-.414c.26 0 .467-.08.623-.24.156-.163.24-.41.253-.744.007-.2.01-.333.01-.4 0-.072-.003-.206-.01-.399-.013-.333-.097-.58-.253-.744-.156-.163-.364-.244-.623-.244-.26 0-.47.081-.628.244-.156.163-.239.411-.248.744-.004.097-.005.23-.005.4 0 .166.001.3.005.4.01.332.092.58.248.743.156.16.365.24.628.24zm2.175.364a.104.104 0 01-.078-.03.128.128 0 01-.03-.084V.308c0-.037.01-.065.03-.085A.097.097 0 0149.2.188h1.232c.366 0 .654.092.861.275.211.18.317.442.317.789 0 .346-.106.609-.317.789-.207.18-.495.27-.861.27h-.877v1.258a.117.117 0 01-.034.084.104.104 0 01-.078.03H49.2zm1.207-1.777c.49 0 .736-.218.736-.654 0-.213-.062-.376-.185-.49-.12-.113-.304-.17-.55-.17h-.853v1.314h.852zm1.912 1.777a.104.104 0 01-.078-.03.128.128 0 01-.03-.084V.308c0-.037.01-.065.03-.085a.097.097 0 01.078-.035h2c.036 0 .064.012.084.035a.11.11 0 01.034.085v.18c0 .033-.012.06-.034.08a.113.113 0 01-.083.03h-1.66V1.71h1.553c.035 0 .063.012.082.035.023.02.035.048.035.085V2a.117.117 0 01-.035.085.11.11 0 01-.082.03H52.66v1.153h1.699c.035 0 .063.012.082.035.023.02.034.048.034.085v.18a.117.117 0 01-.034.084.121.121 0 01-.082.03h-2.04zm2.948 0a.104.104 0 01-.078-.03.128.128 0 01-.03-.084V.308c0-.037.01-.065.03-.085a.096.096 0 01.078-.035h1.869c.036 0 .063.012.083.035.02.02.029.048.029.085v.185c0 .033-.01.061-.03.085-.019.02-.046.03-.082.03h-1.519v2.96a.117.117 0 01-.034.085.12.12 0 01-.083.03h-.233zM60.025.188c.026 0 .049.01.068.03.02.02.03.043.03.07 0 .02-.005.043-.015.07l-.993 2.307a4.689 4.689 0 01-.302.604.874.874 0 01-.312.31.91.91 0 01-.462.104h-.195a.104.104 0 01-.078-.03.128.128 0 01-.029-.084v-.195c0-.037.01-.065.03-.085a.097.097 0 01.077-.035h.175a.449.449 0 00.322-.125c.087-.083.178-.223.272-.42L57.348.349a.126.126 0 01-.015-.055c0-.03.01-.055.03-.075a.109.109 0 01.072-.03h.258c.046 0 .085.027.117.08l1.032 1.922.818-1.922c.02-.053.06-.08.122-.08h.243zm2.589 3.495a.104.104 0 01-.078-.03.128.128 0 01-.03-.084V.623H61.28v.818c0 .536-.038.964-.112 1.284-.075.32-.192.554-.35.704-.157.15-.364.233-.624.25a.096.096 0 01-.083-.03.135.135 0 01-.029-.09v-.205c0-.03.008-.055.024-.075a.112.112 0 01.078-.04c.211-.03.372-.19.482-.48.11-.292.166-.752.166-1.377V.303c0-.037.01-.065.03-.085.022-.02.05-.03.082-.03h1.903c.036 0 .064.012.083.035.023.02.034.048.034.085v3.26a.117.117 0 01-.034.085.121.121 0 01-.083.03h-.233zm1.31 0a.104.104 0 01-.078-.03.135.135 0 01-.03-.09V.309c0-.037.01-.065.03-.085a.102.102 0 01.083-.035h.234c.032 0 .058.012.078.035a.11.11 0 01.034.085V2.92L66.11.258a.126.126 0 01.117-.07h.229c.032 0 .058.012.078.035a.11.11 0 01.034.085v3.26a.117.117 0 01-.034.085.104.104 0 01-.078.03h-.234a.12.12 0 01-.083-.03.117.117 0 01-.034-.084V.982l-1.83 2.632a.126.126 0 01-.117.07h-.234zm3.604 0a.104.104 0 01-.078-.03.128.128 0 01-.03-.084V.308c0-.037.01-.065.03-.085a.097.097 0 01.078-.035h1.231c.367 0 .654.092.862.275.211.18.317.442.317.789 0 .346-.106.609-.317.789-.207.18-.495.27-.861.27h-.877v1.258a.117.117 0 01-.034.084.104.104 0 01-.078.03h-.243zm1.207-1.777c.49 0 .735-.218.735-.654 0-.213-.061-.376-.185-.49-.12-.113-.303-.17-.55-.17h-.852v1.314h.852zM72.867.188c.026 0 .048.01.068.03.02.02.029.043.029.07 0 .02-.005.043-.015.07l-.993 2.307a4.703 4.703 0 01-.302.604.875.875 0 01-.311.31.91.91 0 01-.463.104h-.194a.104.104 0 01-.078-.03.128.128 0 01-.03-.084v-.195c0-.037.01-.065.03-.085a.096.096 0 01.078-.035h.175a.449.449 0 00.321-.125 1.46 1.46 0 00.273-.42L70.189.349a.127.127 0 01-.015-.055c0-.03.01-.055.03-.075a.109.109 0 01.073-.03h.258c.045 0 .084.027.117.08l1.032 1.922L72.5.268c.02-.053.06-.08.122-.08h.244zm3.061 3.545c-.447 0-.778-.123-.993-.37-.21-.245-.326-.573-.345-.983a5.422 5.422 0 01-.01-.25h-.73v1.44a.117.117 0 01-.034.084.12.12 0 01-.083.03h-.234a.104.104 0 01-.078-.03.128.128 0 01-.029-.084V.303c0-.033.01-.06.03-.08a.096.096 0 01.077-.035h.234c.036 0 .063.012.083.035a.1.1 0 01.034.08v1.393h.73c0-.047.003-.116.01-.21.022-.402.14-.727.35-.973.215-.25.544-.375.989-.375.447 0 .778.128.993.385.217.253.334.584.35.993.007.193.01.333.01.42 0 .083-.003.224-.01.424-.016.416-.131.75-.346.999-.214.25-.546.374-.998.374zm0-.414c.263 0 .471-.077.624-.23.155-.156.24-.4.253-.734.006-.2.01-.34.01-.42a14.1 14.1 0 00-.01-.419c-.013-.333-.098-.577-.253-.734-.156-.156-.364-.234-.624-.234s-.467.078-.623.234c-.155.157-.24.401-.253.734a14.273 14.273 0 000 .84c.013.332.096.577.248.733.156.153.366.23.629.23zm5.882 1.063a.097.097 0 01-.077-.034.11.11 0 01-.03-.08v-.585h-3.592a.104.104 0 01-.078-.03.128.128 0 01-.03-.084V.303c0-.033.01-.06.03-.08a.096.096 0 01.078-.035h.233c.036 0 .064.012.083.035a.1.1 0 01.034.08v2.946h1.213V.303a.11.11 0 01.112-.115h.233c.036 0 .064.01.083.03.02.02.03.048.03.085v2.946h1.216V.303c0-.037.01-.065.03-.085a.12.12 0 01.082-.03h.23c.035 0 .062.012.082.035a.1.1 0 01.034.08v2.946h.239a.11.11 0 01.082.035.1.1 0 01.034.08v.904a.1.1 0 01-.034.08.102.102 0 01-.082.034h-.234zm.71-.699a.092.092 0 01-.069-.03.097.097 0 01-.029-.07l.01-.054L83.639.298a.152.152 0 01.156-.11h.312c.078 0 .13.037.156.11l1.207 3.23.01.056a.09.09 0 01-.035.07.092.092 0 01-.068.03h-.228a.136.136 0 01-.083-.026.158.158 0 01-.04-.06l-.272-.718h-1.611l-.268.719c-.026.056-.067.084-.122.084h-.233zm.764-1.218h1.334L83.95.672l-.667 1.793zM88.245.188c.032 0 .058.012.078.035.02.02.029.047.029.08v3.266c0 .033-.01.061-.03.084a.104.104 0 01-.077.03h-.234a.121.121 0 01-.083-.03.117.117 0 01-.034-.084V2.35h-.677l-.744 1.199a.407.407 0 01-.078.104.18.18 0 01-.112.03h-.215a.092.092 0 01-.068-.03.097.097 0 01-.029-.07c0-.016.005-.034.015-.054l.76-1.224a.874.874 0 01-.527-.35c-.123-.176-.185-.4-.185-.673 0-.193.041-.373.122-.54a.943.943 0 01.37-.4 1.13 1.13 0 01.609-.154h1.11zm-.35.405h-.721c-.208 0-.372.063-.492.19-.12.126-.18.296-.18.509 0 .432.224.649.672.649h.72V.593zm-51.22 9.632c-.422 0-.748-.114-.979-.34-.23-.23-.352-.574-.365-1.034a14.19 14.19 0 01-.005-.424c0-.183.002-.323.005-.42.013-.452.138-.795.375-1.028.24-.233.563-.35.969-.35.405 0 .727.117.964.35.237.233.361.576.374 1.029.007.193.01.333.01.42 0 .082-.003.224-.01.423-.012.46-.134.804-.365 1.034-.227.226-.551.34-.973.34zm0-.415c.26 0 .467-.08.623-.24.156-.163.24-.41.253-.743.006-.2.01-.333.01-.4 0-.073-.004-.206-.01-.4-.013-.332-.097-.58-.253-.743-.156-.164-.364-.245-.623-.245-.26 0-.47.081-.628.245-.156.163-.239.41-.249.744a13.33 13.33 0 000 .799c.01.332.093.58.249.744.156.16.365.24.628.24zm4.025.365a.104.104 0 01-.078-.03.128.128 0 01-.03-.085V6.8c0-.037.01-.066.03-.086a.096.096 0 01.078-.035h1.232c.366 0 .654.092.861.275.211.18.317.443.317.789 0 .346-.106.61-.317.789-.207.18-.495.27-.861.27h-.877v1.258a.117.117 0 01-.034.085.104.104 0 01-.078.03H40.7zm1.207-1.778c.49 0 .735-.218.735-.654 0-.213-.061-.376-.185-.49-.12-.113-.303-.17-.55-.17h-.852v1.314h.852zm3.762 1.778a.104.104 0 01-.078-.03.128.128 0 01-.03-.085V6.8c0-.037.01-.066.03-.086a.096.096 0 01.078-.035h1.87c.035 0 .063.012.082.035.02.02.03.049.03.085v.185c0 .033-.01.062-.03.085a.111.111 0 01-.083.03H46.02v2.96a.117.117 0 01-.034.086.121.121 0 01-.083.03h-.233zm4.048 0a.092.092 0 01-.068-.03.097.097 0 01-.03-.07l.01-.055 1.207-3.23a.152.152 0 01.156-.11h.312c.078 0 .13.036.156.11l1.207 3.23.01.055a.09.09 0 01-.034.07.093.093 0 01-.069.03h-.228a.136.136 0 01-.083-.025.158.158 0 01-.04-.06l-.272-.72H50.34l-.268.72c-.026.056-.066.085-.122.085h-.233zm.764-1.219h1.334l-.667-1.792-.667 1.792zm4.679 1.219a.104.104 0 01-.078-.03.128.128 0 01-.03-.085V6.8c0-.037.01-.066.03-.086a.096.096 0 01.077-.035h.234c.036 0 .063.012.083.035.023.02.034.049.034.085v1.388h1.694V6.8c0-.036.01-.065.03-.085a.111.111 0 01.082-.035h.234c.036 0 .063.012.083.035a.11.11 0 01.034.085v3.26a.117.117 0 01-.034.086.121.121 0 01-.083.03h-.234a.121.121 0 01-.083-.03.128.128 0 01-.029-.085V8.622H55.51v1.438a.117.117 0 01-.034.085.121.121 0 01-.083.03h-.234zm5.315 0a.104.104 0 01-.078-.03.135.135 0 01-.029-.09V6.799c0-.036.01-.065.03-.085a.102.102 0 01.082-.035h.234c.032 0 .058.012.078.035.023.02.034.049.034.085v2.612l1.835-2.662a.126.126 0 01.117-.07h.229c.032 0 .058.012.078.035.023.02.034.049.034.085v3.26a.117.117 0 01-.034.086.104.104 0 01-.078.03h-.234a.121.121 0 01-.083-.03.117.117 0 01-.034-.085V7.473l-1.83 2.632a.126.126 0 01-.117.07h-.234zm6.365.05c-.254 0-.473-.039-.658-.115a1.042 1.042 0 01-.423-.32.872.872 0 01-.176-.45v-.01a.08.08 0 01.03-.064.108.108 0 01.073-.025h.224a.14.14 0 01.087.025c.023.013.04.042.054.085a.566.566 0 00.258.34.996.996 0 00.526.124.99.99 0 00.589-.17.54.54 0 00.243-.459c0-.196-.07-.35-.21-.46-.139-.11-.329-.164-.569-.164h-.35a.104.104 0 01-.078-.03.135.135 0 01-.03-.09v-.16c0-.036.01-.065.03-.085a.096.096 0 01.078-.035h.33c.212 0 .379-.046.502-.14.123-.096.185-.24.185-.434a.467.467 0 00-.204-.394.807.807 0 00-.502-.155 1.01 1.01 0 00-.511.115.506.506 0 00-.248.36c-.017.066-.056.1-.117.1h-.239a.115.115 0 01-.078-.03.083.083 0 01-.029-.076.88.88 0 01.35-.639c.212-.16.504-.24.877-.24.247 0 .458.044.633.13a.93.93 0 01.394.345.841.841 0 01.137.46c0 .162-.031.312-.093.449a.743.743 0 01-.297.324.885.885 0 01.38.355.992.992 0 01.126.504.932.932 0 01-.16.54 1.026 1.026 0 01-.453.359c-.195.086-.422.13-.682.13zm3.608-.05a.093.093 0 01-.069-.03.097.097 0 01-.029-.07l.01-.055 1.207-3.23a.152.152 0 01.156-.11h.312c.078 0 .13.036.156.11l1.207 3.23.01.055a.09.09 0 01-.034.07.093.093 0 01-.069.03h-.228a.136.136 0 01-.083-.025.158.158 0 01-.04-.06l-.272-.72h-1.611l-.268.72c-.026.056-.066.085-.122.085h-.233zm.764-1.219h1.334l-.667-1.792-.667 1.792zm7.191 1.918a.11.11 0 01-.112-.115v-.584h-2.4a.104.104 0 01-.079-.03.135.135 0 01-.029-.09v-3.26c0-.034.01-.06.03-.08a.096.096 0 01.077-.036h.234c.036 0 .063.012.083.035a.1.1 0 01.034.08V9.74h1.694V6.794a.11.11 0 01.112-.115h.234c.035 0 .063.012.083.035.022.02.034.047.034.08V9.74h.238c.033 0 .059.012.078.035a.1.1 0 01.034.08v.904c0 .037-.01.065-.029.085a.111.111 0 01-.083.03h-.233zm2.903-.699a.104.104 0 01-.078-.03.136.136 0 01-.029-.09V6.799c0-.036.01-.065.03-.085a.102.102 0 01.082-.035h.234c.032 0 .058.012.078.035a.11.11 0 01.034.085v2.612l1.835-2.662a.126.126 0 01.117-.07h.229c.032 0 .058.012.078.035a.11.11 0 01.034.085v3.26a.117.117 0 01-.034.086.104.104 0 01-.078.03h-.234a.121.121 0 01-.083-.03.117.117 0 01-.034-.085V7.473l-1.83 2.632a.126.126 0 01-.117.07h-.234zm7.586-3.495c.033 0 .059.011.078.034.02.02.03.047.03.08v3.266c0 .033-.01.061-.03.085a.104.104 0 01-.078.03h-.233a.121.121 0 01-.083-.03.117.117 0 01-.034-.085V8.842h-.677l-.745 1.198a.405.405 0 01-.078.105.181.181 0 01-.112.03h-.214a.093.093 0 01-.068-.03.097.097 0 01-.03-.07c0-.017.006-.035.015-.055l.76-1.223a.874.874 0 01-.526-.35c-.123-.176-.185-.401-.185-.674 0-.193.04-.373.122-.54a.942.942 0 01.37-.399c.165-.103.368-.155.608-.155h1.11zm-.35.404h-.72c-.209 0-.372.063-.493.19-.12.126-.18.296-.18.509 0 .433.224.65.672.65h.72v-1.35z" fill="#fff"/></svg>