<svg width="30" height="31" fill="none" xmlns="http://www.w3.org/2000/svg"><path fill-rule="evenodd" clip-rule="evenodd" d="M15 27.274c6.627 0 12-5.267 12-11.764 0-6.498-5.373-11.765-12-11.765S3 9.012 3 15.51c0 6.497 5.373 11.764 12 11.764zm4.042-15.538c0 2.132-1.817 3.864-4.043 3.864-2.227 0-4.045-1.732-4.045-3.864 0-2.141 1.818-3.873 4.045-3.873 2.226 0 4.043 1.732 4.043 3.873zm-2.057 0c0-1.056-.893-1.911-1.986-1.911-1.095 0-1.987.854-1.987 1.911 0 1.048.893 1.902 1.987 1.902 1.093 0 1.986-.854 1.986-1.902zm-5.575 6.097c-1.017-.627-1.462-.994-1.07-1.762.231-.436.864-.804 1.702-.17 0 0 1.132.863 2.959.863 1.825 0 2.958-.863 2.958-.863.838-.63 1.468-.266 1.702.17.386.768-.06 1.134-1.076 1.764l.001.001c-.854.52-2.03.726-2.806.804l.652.615 2.379 2.279c.87.854-.546 2.189-1.425 1.364-.586-.57-1.44-1.388-2.335-2.245l-.044-.042-2.38 2.284c-.878.822-2.294-.525-1.414-1.364l.564-.542v-.001l.002-.001a341.19 341.19 0 011.813-1.735l.642-.615c-.766-.078-1.96-.273-2.824-.804z" fill="#fff"/></svg>