<svg width="29" height="29" fill="none" xmlns="http://www.w3.org/2000/svg"><path fill-rule="evenodd" clip-rule="evenodd" d="M14.5 28.5c7.732 0 14-6.267 14-14 0-7.731-6.268-14-14-14s-14 6.27-14 14c0 7.733 6.268 14 14 14zm4.718-18.49c0 2.537-2.12 4.598-4.717 4.598-2.598 0-4.719-2.062-4.719-4.599 0-2.548 2.12-4.609 4.719-4.609 2.597 0 4.717 2.061 4.717 4.61zm-2.4 0c0-1.258-1.041-2.275-2.317-2.275-1.277 0-2.318 1.016-2.317 2.274 0 1.247 1.04 2.264 2.317 2.264 1.276 0 2.317-1.017 2.317-2.264zm-6.504 7.255c-1.186-.747-1.706-1.183-1.248-2.097.27-.519 1.007-.956 1.985-.203 0 0 1.32 1.028 3.452 1.028 2.13 0 3.451-1.028 3.451-1.028.978-.75 1.713-.316 1.986.203.45.914-.069 1.35-1.255 2.1-.995.62-2.367.864-3.273.957l.76.732 2.776 2.712c1.015 1.016-.636 2.605-1.662 1.623-.683-.678-1.68-1.652-2.724-2.672l-.052-.05-2.775 2.718c-1.026.978-2.677-.624-1.651-1.623l.66-.647c.616-.604 1.351-1.326 2.115-2.065l.75-.732c-.895-.093-2.287-.324-3.295-.956z" fill="#fff"/></svg>