<svg width="50" height="50" fill="none" xmlns="http://www.w3.org/2000/svg"><path fill-rule="evenodd" clip-rule="evenodd" d="M4.624 18.002C5.07 18 6.398 17.88 6.96 19.774c.379 1.275.982 3.365 1.81 6.268h.338c.888-3.06 1.497-5.15 1.83-6.268.568-1.913 1.988-1.772 2.556-1.772h4.384v13.606H13.41V23.59h-.3l-2.49 8.018H7.258l-2.49-8.024h-.3v8.024H0V18.002h4.624zm19.67 0v8.024h.356l3.03-6.598c.588-1.313 1.841-1.426 1.841-1.426h4.324v13.606h-4.561v-8.024h-.357l-2.97 6.598c-.588 1.307-1.9 1.426-1.9 1.426h-4.324V18.002h4.56zm25.317 6.466c-.636 1.799-2.634 3.087-4.847 3.087h-4.783v4.053h-4.337v-7.14H49.61zm-4.637-6.466h-9.558c.228 3.03 2.842 5.623 5.549 5.623h8.947c.517-2.518-1.26-5.623-4.938-5.623z" fill="#fff"/></svg>