<svg width="50" height="50" fill="none" xmlns="http://www.w3.org/2000/svg"><path fill-rule="evenodd" clip-rule="evenodd" d="M31.36 37.24c2.758 0 5.75.948 9.062 3.894.332.295.774-.072.484-.439-3.255-4.124-6.265-4.91-9.267-5.574-3.672-.812-5.561-2.886-6.878-5.163-.262-.453-.38-.373-.403.21-.029.712.02 1.654.18 2.581-.149.007-.298.005-.448.005-5.253 0-9.512-4.274-9.512-9.547 0-5.273 4.259-9.548 9.512-9.548 5.254 0 9.513 4.275 9.513 9.548 0 .375-.018.746-.06 1.11-.695-.126-2.062-.14-3.021-.057-.361.031-.31.2-.038.25 3.145.57 5.305 2.526 5.8 6.075.01.082.117.106.16.036a14.417 14.417 0 002.036-7.414c0-7.977-6.442-14.443-14.39-14.443-7.947 0-14.39 6.466-14.39 14.443 0 7.977 6.443 14.444 14.39 14.444 2.109 0 4.2-.412 7.27-.412zm1.071-5.245c.64.544.835 1.19.497 1.645-.189.25-.494.388-.86.388-.359 0-.725-.134-.979-.356-.582-.51-.753-1.339-.373-1.81.148-.183.39-.284.679-.284.352 0 .72.148 1.036.417zm2.954-1.38c.094.634-.105.896-.305.896-.218 0-.492-.257-.816-.763-.319-.5-.436-1.073-.278-1.363.105-.192.324-.275.6-.17.533.202.743 1.023.8 1.4z" fill="#fff"/></svg>