<svg width="56" height="30" fill="none" xmlns="http://www.w3.org/2000/svg"><path fill-rule="evenodd" clip-rule="evenodd" d="M20.406 11.036v-5.22h-.841v-.841h.841v-.281c0-.842.197-1.628.702-2.133.42-.393.954-.561 1.487-.561.393 0 .73.084.954.168l-.14.842c-.168-.084-.393-.14-.702-.14-.926 0-1.178.814-1.178 1.768v.337h1.459v.841h-1.46v5.22h-1.122zm-1.319-7.773c0 .365-.252.673-.701.673a.665.665 0 01-.674-.673c0-.393.28-.702.702-.702.393 0 .673.309.673.702zm-1.234 1.712h1.094v6.06h-1.094v-6.06zM1.465 2.589l2.75 8.446H5.42L8.452 2.59H7.274L5.842 6.77l-.084.253c-.336 1.005-.662 1.984-.87 2.89H4.86c-.224-1.01-.533-2.02-.898-3.171L2.643 2.589H1.465zM9.042 8.2c.028 1.488.982 2.105 2.076 2.105.786 0 1.263-.14 1.684-.309l.196.786c-.393.168-1.066.365-2.02.365-1.88 0-2.975-1.235-2.975-3.059s1.067-3.283 2.835-3.283c1.992 0 2.497 1.74 2.497 2.862 0 .132-.01.244-.018.337-.005.066-.01.122-.01.168L9.042 8.2zm3.226-.785c.029-.702-.28-1.796-1.543-1.796-1.122 0-1.6 1.038-1.684 1.796h3.227zm1.937-.561c0-.702 0-1.32-.056-1.88h.954l.028 1.178h.056c.28-.814.954-1.319 1.683-1.319.113 0 .225 0 .31.028V5.9c-.113-.028-.225-.028-.366-.028-.785 0-1.319.589-1.487 1.403-.028.14-.056.336-.056.505v3.227h-1.095V6.855h.029zM25.26 3.263c.028.365-.253.673-.702.673a.665.665 0 01-.673-.673c0-.393.28-.702.701-.702.421 0 .674.309.674.702zm-1.235 1.712h1.095v6.06h-1.095v-6.06zm5.135 5.331c-1.094 0-2.048-.617-2.076-2.105l4.265-.028c0-.046.005-.102.01-.168.009-.093.018-.205.018-.337 0-1.122-.505-2.862-2.497-2.862-1.768 0-2.834 1.46-2.834 3.283 0 1.824 1.094 3.059 2.974 3.059.954 0 1.628-.197 2.02-.365l-.196-.786c-.42.169-.898.31-1.684.31zm-.393-4.686c1.263 0 1.544 1.094 1.544 1.796h-3.227c.084-.758.56-1.796 1.683-1.796zm8.728-3.48v7.324c0 .533 0 1.15.056 1.572h-.982l-.056-1.067h-.029c-.336.674-1.066 1.179-2.076 1.179-1.46 0-2.582-1.235-2.582-3.087 0-2.02 1.235-3.255 2.722-3.255.926 0 1.544.45 1.824.926h.028V2.14h1.095zM36.4 7.444c0-.14 0-.337-.056-.477-.168-.702-.758-1.29-1.6-1.29-1.15 0-1.823 1.01-1.823 2.356 0 1.235.589 2.245 1.796 2.245.73 0 1.403-.477 1.627-1.319.028-.14.056-.308.056-.477V7.444zm5.22 2.02c0 .533-.029 1.15-.057 1.572h.983l.056-1.01h.028c.449.813 1.15 1.15 2.02 1.15 1.347 0 2.722-1.094 2.722-3.255.028-1.824-1.038-3.087-2.554-3.087-.982 0-1.683.45-2.076 1.123h-.028V2.14H41.62v7.324zm1.15-.477a1.654 1.654 0 01-.056-.393h.028V7.5c0-.169.028-.337.056-.45.224-.841.926-1.346 1.684-1.346 1.178 0 1.796 1.038 1.796 2.245 0 1.375-.702 2.329-1.852 2.329-.814 0-1.431-.533-1.656-1.291zm7.128-.42l-1.32-3.592h-1.206l2.245 5.584c.056.14.084.224.084.28 0 .057-.028.14-.084.253-.252.561-.617 1.01-.926 1.235-.309.28-.673.449-.954.533l.28.926c.281-.028.814-.225 1.348-.702.757-.645 1.29-1.711 2.076-3.788l1.656-4.321h-1.179l-1.206 3.563a9.162 9.162 0 00-.289.903c-.036.128-.07.25-.104.36h-.028l-.067-.217V9.58l-.001-.002a23.655 23.655 0 00-.325-1.013zM19.76 15.16l-3.34 8.446-1.346-7.183c-.169-.814-.786-1.263-1.488-1.263H8.115l-.084.365c1.123.252 2.385.645 3.171 1.066.477.252.617.477.758 1.094l2.553 9.906h3.424l5.22-12.431H19.76zm2.104 12.43l2.666-12.43h3.2l-2.639 12.43h-3.227zm10.103-8.979c0-.449.448-.926 1.375-1.038.448-.056 1.74-.112 3.17.561l.562-2.638c-.786-.28-1.768-.561-3.003-.561-3.17 0-5.416 1.684-5.444 4.125-.028 1.796 1.6 2.778 2.806 3.367 1.263.618 1.684.983 1.656 1.544 0 .842-1.01 1.206-1.908 1.206-1.51.026-2.415-.382-3.143-.71a30.872 30.872 0 00-.168-.075l-.59 2.722c.758.336 2.133.645 3.564.645 3.367 0 5.584-1.656 5.584-4.265.034-1.93-1.577-2.776-2.873-3.456-.871-.458-1.6-.84-1.588-1.427zM42.49 15.16c-.617 0-1.15.365-1.375.898L36.29 27.563h3.367l.674-1.852h4.125l.392 1.852h2.975l-2.582-12.43h-2.75v.027zm-1.234 8.026l1.711-4.658.955 4.658h-2.666z" fill="#4B515B"/></svg>