<svg width="64" height="30" fill="none" xmlns="http://www.w3.org/2000/svg"><path fill-rule="evenodd" clip-rule="evenodd" d="M42.46 6.382l.326-2.122a4.603 4.603 0 00-.261-.105 15.271 15.271 0 01-.218-.085l-.822-.215a3.284 3.284 0 00-.893-.105c-2.643 0-4.49 2.444-4.49 5.944 0 2.603 1.337 4.224 3.486 4.224.553 0 1.03-.075 1.762-.285l.348-2.234c-.661.346-1.202.504-1.693.504-1.159 0-1.863-.896-1.863-2.383 0-2.154 1.05-3.662 2.533-3.662.556 0 1.077.148 1.784.524zm17.358 6.202c0-.692.537-1.252 1.191-1.252.659 0 1.19.56 1.19 1.252 0 .693-.53 1.252-1.19 1.252-.654 0-1.19-.56-1.19-1.252zm-23.647-6.87a1.096 1.096 0 00-.204-.02c-.657 0-1.028.347-1.638 1.295l.177-1.209h-1.805l-1.224 7.957h2.003c.716-4.863.899-5.703 1.859-5.703.059 0 .064 0 .146.008.177-.959.42-1.664.754-2.307l-.068-.02zm-13.363 8.189c.46 0 .888-.082 1.43-.263l.266-1.76a1.55 1.55 0 01-.537.075c-.47 0-.679-.182-.679-.59 0-.063.011-.15.025-.262l.009-.067.526-3.321h1.017l.28-1.935h-1.02l.228-1.18H22.37l-.864 5.43-.092.633-.123.776a4.56 4.56 0 00-.057.713c0 1.131.556 1.75 1.573 1.75zM16.38 8.297c0 1.004.463 1.698 1.51 2.218.803.399.93.515.93.877 0 .495-.356.724-1.14.724-.592 0-1.145-.1-1.782-.32l-.276 1.836.09.02.366.077c.118.025.291.048.52.072.475.044.84.066 1.097.066 2.091 0 3.059-.844 3.059-2.657 0-1.089-.404-1.733-1.4-2.215-.831-.396-.926-.49-.926-.859 0-.432.33-.653.97-.653.39 0 .92.046 1.426.118l.284-1.837a12.444 12.444 0 00-1.749-.157c-2.218 0-2.987 1.22-2.979 2.69zm42.28 5.44h-1.886l.099-.779c-.55.616-1.113.885-1.842.885-1.457 0-2.413-1.314-2.413-3.303 0-2.647 1.485-4.882 3.248-4.882.774 0 1.36.336 1.911 1.09l.434-2.796h1.965l-1.516 9.786zm-2.942-1.873c.932 0 1.582-1.106 1.582-2.68 0-1.012-.371-1.563-1.06-1.563-.903 0-1.545 1.11-1.545 2.676 0 1.042.346 1.567 1.023 1.567zM30.55 13.571a6.6 6.6 0 01-2.048.32c-2.222 0-3.384-1.224-3.384-3.563 0-2.734 1.477-4.747 3.485-4.747 1.638 0 2.69 1.128 2.69 2.896 0 .585-.07 1.156-.248 1.963h-3.963c-.017.12-.02.176-.02.247 0 .93.593 1.398 1.753 1.398.711 0 1.351-.154 2.068-.506l-.333 1.992zm-1.118-4.739c.011-.166.014-.301.014-.402 0-.65-.35-1.03-.944-1.03-.632 0-1.085.507-1.27 1.427l2.2.005zM6.388 13.738h1.991l1.544-9.786H6.826l-1.937 6.056-.08-6.056H1.94L.385 13.738H2.25l1.2-7.476.165 7.476H4.98l2.548-7.52-1.14 7.52zm6.921 0h1.65l.025-.214.035-.277.051-.405.068-.51.417-2.82c.136-.888.165-1.182.165-1.578 0-1.525-.908-2.333-2.62-2.333-.739 0-1.394.12-2.39.429l-.273 1.784.174-.051.277-.08c.446-.142 1.094-.228 1.658-.228.934 0 1.28.2 1.28.725 0 .14-.017.253-.079.516a6.058 6.058 0 00-.81-.058c-2.21 0-3.504 1.127-3.504 3.07 0 1.281.74 2.168 1.824 2.168.913 0 1.585-.306 2.088-.964l-.036.826zm-.245-3.58c.143 0 .235.01.446.035-.033 1.18-.62 1.992-1.431 1.992-.435 0-.717-.316-.717-.812 0-.803.573-1.214 1.702-1.214zm32.953 3.58h1.653l.022-.214.036-.277.056-.405.062-.51.42-2.82c.129-.888.163-1.182.163-1.578 0-1.525-.907-2.333-2.623-2.333-.733 0-1.387.12-2.383.429l-.278 1.784.173-.051.283-.08c.442-.142 1.088-.228 1.655-.228.934 0 1.28.2 1.28.725 0 .14-.018.253-.079.516a6.042 6.042 0 00-.81-.058c-2.215 0-3.506 1.127-3.506 3.07 0 1.281.743 2.168 1.827 2.168.911 0 1.585-.306 2.088-.964l-.039.826zm-.241-3.58c.14 0 .235.01.443.035-.036 1.18-.617 1.992-1.431 1.992-.435 0-.72-.316-.72-.812 0-.803.574-1.214 1.708-1.214zm7.461-4.444a.995.995 0 00-.2-.02c-.655 0-1.029.347-1.641 1.295l.177-1.209H49.77l-1.219 7.957h1.996c.717-4.863.906-5.703 1.86-5.703h.037a.351.351 0 01.102.008c.18-.959.424-1.664.76-2.307l-.069-.02zm-6.403 15.774c0-2.005-.99-3.566-2.853-3.566-2.144 0-3.532 1.898-3.532 4.692 0 2 .82 3.636 2.85 3.636 2.048 0 3.535-1.45 3.535-4.762zm-1.96-.033c0 1.804-.559 2.866-1.439 2.866-.643.02-1.032-.696-1.032-1.767 0-1.267.57-2.703 1.483-2.703.734 0 .988.778.988 1.604zm-4.09-2.82l.306-2.12c-.141-.07-.198-.092-.354-.154l-.096-.038-.763-.216a3.172 3.172 0 00-.837-.105c-2.47 0-4.195 2.444-4.195 5.946 0 2.602 1.25 4.224 3.256 4.224.511 0 .961-.073 1.65-.285l.323-2.232c-.615.346-1.121.505-1.584.505-1.085 0-1.736-.9-1.736-2.387 0-2.153.972-3.668 2.365-3.668.521 0 1.003.156 1.666.53zm-12.019-.663a.729.729 0 00-.191-.022c-.605 0-.96.349-1.526 1.294l.165-1.208h-1.685l-1.138 7.959h1.861c.67-4.869.847-5.706 1.74-5.706.052 0 .057 0 .135.009.168-.963.394-1.668.707-2.313l-.068-.013zm24.31 7.937h-1.758l.09-.776c-.511.612-1.043.883-1.724.883-1.356 0-2.251-1.315-2.251-3.304 0-2.643 1.39-4.884 3.032-4.884.726 0 1.276.343 1.784 1.097l.41-2.799h1.832l-1.415 9.783zm-2.751-1.871c.877 0 1.48-1.105 1.48-2.681 0-1.015-.344-1.56-.985-1.56-.846 0-1.448 1.107-1.448 2.678 0 1.037.323 1.563.953 1.563zm-39.011 1.839a5.727 5.727 0 01-1.907.324c-2.078 0-3.163-1.226-3.163-3.564 0-2.73 1.38-4.745 3.253-4.745 1.534 0 2.512 1.126 2.512 2.894 0 .584-.066 1.157-.225 1.964h-3.71a2.47 2.47 0 00-.015.247c0 .928.555 1.396 1.635 1.396.665 0 1.266-.155 1.933-.504l-.313 1.988zm-1.041-4.735c.008-.168.014-.302.014-.404 0-.65-.327-1.029-.88-1.029-.595 0-1.017.51-1.188 1.425l2.054.008zm23.18 4.735a5.75 5.75 0 01-1.907.324c-2.083 0-3.167-1.226-3.167-3.564 0-2.73 1.382-4.745 3.254-4.745 1.534 0 2.515 1.126 2.515 2.894 0 .584-.069 1.157-.234 1.964h-3.701l-.005.047c-.008.089-.014.14-.014.2 0 .928.555 1.396 1.634 1.396.666 0 1.268-.155 1.935-.504l-.31 1.988zm-1.046-4.735c.012-.168.019-.302.019-.404 0-.65-.33-1.029-.88-1.029-.595 0-1.017.51-1.19 1.425l2.05.008zm27.02 4.735a5.793 5.793 0 01-1.912.324c-2.079 0-3.167-1.226-3.167-3.564 0-2.73 1.385-4.745 3.257-4.745 1.534 0 2.51 1.126 2.51 2.894 0 .584-.063 1.157-.228 1.964h-3.705a2.032 2.032 0 00-.016.247c0 .928.556 1.396 1.636 1.396.666 0 1.266-.155 1.934-.504l-.309 1.988zm-1.046-4.735c.008-.168.013-.302.013-.404 0-.65-.325-1.029-.88-1.029-.594 0-1.015.51-1.187 1.425l2.054.008zM4.248 17.875c.697 0 1.19.213 1.555.456l.459-1.983c-.48-.318-1.297-.446-2.167-.446-1.545 0-3.147.77-3.147 3.343 0 1.602.89 2.098 1.656 2.524.579.322 1.086.605 1.086 1.294 0 1.023-.919 1.183-1.505 1.183-.615 0-1.367-.232-1.74-.57L0 25.7c.618.275 1.456.516 2.185.516 1.638 0 3.449-.715 3.449-3.473 0-1.798-.968-2.342-1.754-2.783-.537-.302-.99-.556-.99-1.13 0-.8.606-.956 1.358-.956zm12.514 7.999c-.384.184-.896.306-1.653.306-1.627 0-2.636-1.626-2.636-3.605 0-2.591 1.46-4.658 3.607-4.658.469 0 1.184.202 1.748.53l-.412 1.9c-.4-.262-.815-.43-1.243-.43-.995 0-1.706.913-1.706 2.547 0 .94.516 1.713 1.33 1.713.485 0 .826-.103 1.244-.347l-.279 2.044zm6.725.07c.053-.714.142-1.378.237-2.063l.869-5.832h-1.93l-.55 3.637c-.138 1.166-.62 2.166-1.438 2.166-.537.029-.75-.442-.75-.908 0-.319.047-.628.093-.936l.038-.265.535-3.694h-1.994l-.507 3.684c-.12.832-.152 1.132-.152 1.665 0 1.546.61 2.73 1.734 2.73 1.014 0 1.595-.595 2.156-1.47h.018l-.15 1.287h1.791zm37.796-.096h-.301v-1.32h-.436v-.282h1.173v.282h-.436v1.32zm1.718 0h.281v-1.602h-.436l-.256 1.263h-.005l-.261-1.263h-.44v1.602h.281v-1.34h.004l.263 1.34h.296l.269-1.34H63v1.34z" fill="#4B515B"/></svg>