<svg width="57" height="30" fill="none" xmlns="http://www.w3.org/2000/svg"><path fill-rule="evenodd" clip-rule="evenodd" d="M51.621 19.564H18.586a8.647 8.647 0 01-7.364 4.115c-4.781 0-8.657-3.886-8.657-8.679s3.876-8.679 8.657-8.679c2.89 0 5.448 1.42 7.02 3.6h2.996C19.388 6.26 15.597 3.75 11.222 3.75 5.024 3.75 0 8.787 0 15s5.024 11.25 11.222 11.25a11.19 11.19 0 008.57-3.986h33.881v-.643a2.055 2.055 0 00-2.052-2.057zM4.49 10.827v7.723h2.489v-2.266c0-1.244.026-2.266.051-2.266.032 0 .37 1.021.754 2.266l.695 2.266h1.794l.696-2.266c.383-1.244.715-2.266.746-2.266.026 0 .052 1.021.052 2.266v2.266h2.489v-7.723h-1.321c-.734 0-1.43.025-1.551.063-.281.077-.67.396-.811.658-.057.115-.338 1.002-.62 1.985-.286.977-.542 1.775-.58 1.768-.032-.006-.243-.638-.46-1.398l-.067-.234c-.523-1.805-.61-2.104-.796-2.312a2.208 2.208 0 00-.128-.125l-.01-.01c-.154-.14-.39-.287-.524-.325-.14-.038-.83-.07-1.57-.07H4.489zm10.723 0v7.723h2.49v-7.723h-2.49zm3.511 5.585v-2.139h7.657s-.308.72-.589 1a2.54 2.54 0 01-.74.493l-.029.014-.3.153.173.268.372.556v.001l.001.001.463.693c.357.536.65 1.098.65 1.098s-.523.006-1.41 0h-1.417l-.625-1.213-.626-1.219h-1.092v2.432h-2.489v-2.138zm25.884-2.094c.364.728 1.021.984 1.8 1.118.166.025.964.044 1.768.038l1.468-.006.012-.167c.051-.683-.376-1.264-1.002-1.538-.376-.16-.542-.166-2.782-.14-.968.006-1.464.012-1.464.012s.037.36.2.683zm6.99 2.381v-2.043H50v-1.212h4.47v1.212h-1.532v4.086h-1.34v-2.043zm-15.422-.198c.191.9.727 1.532 1.519 1.794.587.191 1.474.153 1.978-.077.422-.191.818-.479.818-.587 0-.109-.537-.862-.613-.868-.039 0-.109.044-.16.102-.179.21-.715.428-1.079.428-.574 0-1.02-.332-1.18-.875-.173-.574-.084-1.028.28-1.385.44-.44 1.06-.479 1.737-.108.204.114.383.191.395.178.09-.115.492-.83.492-.874 0-.083-.409-.364-.734-.51-.198-.084-.495-.151-1.032-.151-.536 0-.787.048-1.12.207-.995.466-1.538 1.596-1.301 2.726zm-3.006 1.794c-.792-.262-1.328-.894-1.52-1.794-.236-1.13.307-2.26 1.303-2.726.331-.16.583-.207 1.12-.207.536 0 .833.067 1.03.15.326.147.735.428.735.51 0 .045-.402.76-.492.875-.012.013-.191-.064-.395-.178-.677-.37-1.296-.333-1.737.108-.364.357-.453.81-.28 1.385.159.543.606.875 1.18.875.364 0 .9-.217 1.079-.428.051-.057.121-.102.16-.102.076.006.612.76.612.868 0 .108-.395.396-.817.587-.504.23-1.391.268-1.978.077zm-6.084.064s1.021-3.09 1.43-4.277l.147-.415h1.295s.358 1.072.798 2.355l.792 2.337h-1.264l-.14-.48-.141-.484h-1.418l-.128.504-.127.46h-1.245zm2.598-1.98s-.192-.74-.3-1.148l-.077-.287-.185.638c-.095.351-.185.798-.185.798h.747zM41 15.998v-2.362h2.994v1.021h-1.781v.798h1.475v1.054h-1.475v.796h1.907v1.054H41v-2.362zm3.83-.128v2.489h1.213v-1.404h1.168c1.538 0 1.851-.096 2.253-.67.12-.172.156-.415.156-.415h-4.79zm-23.643-2.128c-1.392-.364-2.528-1.37-2.815-2.704l-.045-.21h2.866c2.381 0 2.93.019 3.243.102a2.563 2.563 0 011.71 1.417c.173.364.205.517.224 1.053v.438h-2.413c-1.896 0-2.495-.02-2.77-.096z" fill="#4B515B"/></svg>