<svg width="50" height="50" fill="none" xmlns="http://www.w3.org/2000/svg"><path fill-rule="evenodd" clip-rule="evenodd" d="M21.423 32.77h-4.005l2.505-15.49h4.005l-2.505 15.49zM35.94 17.66a9.869 9.869 0 00-3.59-.66c-3.955 0-6.74 2.109-6.757 5.124-.033 2.225 1.994 3.46 3.51 4.202 1.55.758 2.076 1.253 2.076 1.928-.016 1.038-1.252 1.516-2.405 1.516-1.599 0-2.456-.246-3.758-.824l-.527-.247-.56 3.477c.939.428 2.67.807 4.466.824 4.202 0 6.938-2.076 6.97-5.29.016-1.763-1.054-3.114-3.361-4.218-1.401-.708-2.259-1.186-2.259-1.911.017-.66.726-1.335 2.307-1.335a6.804 6.804 0 012.983.594l.362.164.545-3.345zm7.17-.38h3.097l3.23 15.489H45.73s-.363-1.78-.478-2.323H40.11l-.84 2.323h-4.203l5.95-14.203c.411-1.005 1.137-1.285 2.092-1.285zm-.248 5.669l-1.598 4.333h3.328c-.164-.774-.923-4.482-.923-4.482l-.28-1.334c-.117.343-.288.816-.403 1.134-.078.217-.13.362-.123.349zM14.073 17.28l-3.922 10.562-.428-2.142c-.725-2.471-3-5.157-5.537-6.492l3.592 13.545h4.235l6.295-15.472h-4.235z" fill="#0D0E13"/><path fill-rule="evenodd" clip-rule="evenodd" d="M6.51 17.28H.065L0 17.595c5.026 1.285 8.355 4.382 9.723 8.106l-1.401-7.117c-.23-.99-.94-1.27-1.813-1.302z" fill="#0D0E13"/></svg>