<svg width="150" height="100" fill="none" xmlns="http://www.w3.org/2000/svg"><path d="M21.252 43.164v-4.275h8.577v4.275h-8.577zm78.845-4.275h4.243v3.825h-4.243v-3.825z" fill="#000"/><path d="M21.252 43.164v-4.275h8.577v4.275h-8.577zm78.845-4.275h4.243v3.825h-4.243v-3.825zm-68.437 0h4.244v5.49c2.546.18 5.137-.36 7.594.315 4.556 2.025 5.316 8.55 2.725 12.42-.983 1.575-2.725 2.745-4.646 2.655H31.66v-20.88zm4.244 8.775v8.775c1.742-.09 3.574.315 5.226-.315 2.949-1.71 2.77-6.75-.357-8.19-1.563-.45-3.26-.225-4.87-.27zm46.458-8.775h4.244v20.925h-4.244V38.889zm6.388 10.755c1.43-1.755 2.859-3.6 4.288-5.355h5.942c-2.279 2.655-4.646 5.22-6.88 7.875 2.323 2.52 4.601 5.085 6.924 7.605h-6.03c-1.609-1.89-3.172-3.78-4.825-5.625-1.876-1.98-.938-2.565.58-4.5zm-38.909-5.22c3.217.045 6.433-.045 9.65.045 2.412.045 4.645 1.98 4.824 4.455.313 3.69.044 7.38.134 11.07-3.887-.045-7.773.09-11.66-.045-2.903-.18-4.735-3.42-3.752-6.12.447-1.665 1.966-3.06 3.708-3.105 2.502-.18 5.003.045 7.505-.09-.09-1.17-.715-2.745-2.145-2.655-2.77-.045-5.539 0-8.308-.045.044-1.215.044-2.385.044-3.51zm4.333 12.015c1.921.45 3.976.135 5.942.225v-2.925c-1.877.045-3.708-.09-5.584.045-1.385.135-1.698 2.205-.358 2.655zM66.28 44.424c3.261 0 6.522-.045 9.739 0 1.384 0 2.814.54 3.618 1.755.983 1.26 1.072 2.97 1.072 4.5v9.135h-4.244c-.044-3.33.045-6.705-.044-10.035 0-.945-.85-1.665-1.698-1.8-1.385-.135-2.77-.045-4.154-.045v11.925h-4.244c-.045-5.175-.045-10.305-.045-15.435zm33.816 0c1.43 0 2.859 0 4.289.045-.09 5.13 0 10.26-.045 15.39h-4.244V44.424zm11.749 4.905c-.045-2.115 1.251-4.365 3.44-4.77 2.144-.315 4.333-.09 6.477-.135v3.51c-1.832.225-4.78-.81-5.629 1.44-.134 3.465 0 6.975-.044 10.485-1.385 0-2.815 0-4.199.045-.135-3.555-.045-7.065-.045-10.575zm11.614-4.905h4.244c0 3.285-.045 6.57 0 9.855-.134 1.08.849 2.07 1.876 2.025 1.34.045 2.681 0 4.021 0V44.379h4.243c-.044 5.13 0 10.26 0 15.39-3.35-.045-6.7.045-10.006-.045-2.367.045-4.244-2.115-4.333-4.41-.134-3.6 0-7.245-.045-10.89z" fill="#000"/><path d="M31.66 38.889h4.244v5.49c2.546.18 5.137-.36 7.594.315 4.556 2.025 5.316 8.55 2.725 12.42-.983 1.575-2.725 2.745-4.646 2.655H31.66v-20.88zm4.244 8.775v8.775c1.742-.09 3.574.315 5.226-.315 2.949-1.71 2.77-6.75-.357-8.19-1.563-.45-3.26-.225-4.87-.27zm46.458-8.775h4.244v20.925h-4.244V38.889zm6.388 10.755c1.43-1.755 2.859-3.6 4.288-5.355h5.942c-2.279 2.655-4.646 5.22-6.88 7.875 2.323 2.52 4.601 5.085 6.924 7.605h-6.03c-1.609-1.89-3.172-3.78-4.825-5.625-1.876-1.98-.938-2.565.58-4.5zm-38.909-5.22c3.217.045 6.433-.045 9.65.045 2.412.045 4.645 1.98 4.824 4.455.313 3.69.044 7.38.134 11.07-3.887-.045-7.773.09-11.66-.045-2.903-.18-4.735-3.42-3.752-6.12.447-1.665 1.966-3.06 3.708-3.105 2.502-.18 5.003.045 7.505-.09-.09-1.17-.715-2.745-2.145-2.655-2.77-.045-5.539 0-8.308-.045.044-1.215.044-2.385.044-3.51zm4.333 12.015c1.921.45 3.976.135 5.942.225v-2.925c-1.877.045-3.708-.09-5.584.045-1.385.135-1.698 2.205-.358 2.655zM66.28 44.424c3.261 0 6.522-.045 9.739 0 1.384 0 2.814.54 3.618 1.755.983 1.26 1.072 2.97 1.072 4.5v9.135h-4.244c-.044-3.33.045-6.705-.044-10.035 0-.945-.85-1.665-1.698-1.8-1.385-.135-2.77-.045-4.154-.045v11.925h-4.244c-.045-5.175-.045-10.305-.045-15.435zm33.816 0c1.43 0 2.859 0 4.289.045-.09 5.13 0 10.26-.045 15.39h-4.244V44.424zm11.749 4.905c-.045-2.115 1.251-4.365 3.44-4.77 2.144-.315 4.333-.09 6.477-.135v3.51c-1.832.225-4.78-.81-5.629 1.44-.134 3.465 0 6.975-.044 10.485-1.385 0-2.815 0-4.199.045-.135-3.555-.045-7.065-.045-10.575zm11.614-4.905h4.244c0 3.285-.045 6.57 0 9.855-.134 1.08.849 2.07 1.876 2.025 1.34.045 2.681 0 4.021 0V44.379h4.243c-.044 5.13 0 10.26 0 15.39-3.35-.045-6.7.045-10.006-.045-2.367.045-4.244-2.115-4.333-4.41-.134-3.6 0-7.245-.045-10.89zm-107.211 3.15h13.625v4.14H16.248v-4.14z" fill="#000"/><path d="M16.248 47.574h13.625v4.14H16.248v-4.14zm-5.137 8.1h18.762v4.14H11.111v-4.14zm94.792.315h4.244v3.825h-4.244V55.99z" fill="#000"/><path d="M11.111 55.674h18.762v4.14H11.111v-4.14zm94.792.315h4.244v3.825h-4.244V55.99z" fill="#000"/></svg>