<svg width="150" height="100" fill="none" xmlns="http://www.w3.org/2000/svg"><path d="M54.802 48.708c.055-.147.129-.276.184-.424 1.088-3.115 2.894-4.387 6.213-4.406.368 0 .756.055 1.106-.037.221-.055.534-.276.553-.46.074-.738.535-.812 1.106-.793.59.018 1.161.018 1.751 0 .609-.019 1.088.036 1.162.83.018.165.424.386.663.423.443.074.922.019 1.383.019 3.023.018 5.07 1.567 5.844 4.48.498 1.88.48 3.778-.369 5.585-.995 2.12-2.82 3.06-5.088 3.263-.387.037-.793.019-1.198.019-1.254 0-1.254 0-1.328 1.253h-3.87c-.056-1.253-.056-1.18-1.31-1.272-1.124-.074-2.267-.184-3.318-.516-1.973-.627-2.858-2.267-3.484-4.111v-3.853zm12.02 1.899c0 1.014-.038 2.028.018 3.042.018.258.368.7.571.719 1.493.036 3.153-.59 3.484-2.452.111-.664.13-1.346.111-2.01-.074-1.954-1.456-3.134-3.41-3.005-.535.037-.775.24-.775.793v2.913zm-3.927.129c0-1.014.037-2.028-.037-3.023-.019-.295-.35-.738-.608-.793-1.512-.314-2.858.46-3.319 1.936-.221.718-.258 1.511-.24 2.249.056 1.972 1.365 3.207 3.356 3.281.59.018.848-.203.83-.793 0-.958.018-1.899.018-2.857z" fill="#000"/><path d="M54.802 48.708c.055-.147.129-.276.184-.424 1.088-3.115 2.894-4.387 6.213-4.406.368 0 .756.055 1.106-.037.221-.055.534-.276.553-.46.074-.738.535-.812 1.106-.793.59.018 1.161.018 1.751 0 .609-.019 1.088.036 1.162.83.018.165.424.386.663.423.443.074.922.019 1.383.019 3.023.018 5.07 1.567 5.844 4.48.498 1.88.48 3.778-.369 5.585-.995 2.12-2.82 3.06-5.088 3.263-.387.037-.793.019-1.198.019-1.254 0-1.254 0-1.328 1.253h-3.87c-.056-1.253-.056-1.18-1.31-1.272-1.124-.074-2.267-.184-3.318-.516-1.973-.627-2.858-2.267-3.484-4.111v-3.853zm12.02 1.899c0 1.014-.038 2.028.018 3.042.018.258.368.7.571.719 1.493.036 3.153-.59 3.484-2.452.111-.664.13-1.346.111-2.01-.074-1.954-1.456-3.134-3.41-3.005-.535.037-.775.24-.775.793v2.913zm-3.927.129c0-1.014.037-2.028-.037-3.023-.019-.295-.35-.738-.608-.793-1.512-.314-2.858.46-3.319 1.936-.221.718-.258 1.511-.24 2.249.056 1.972 1.365 3.207 3.356 3.281.59.018.848-.203.83-.793 0-.958.018-1.899.018-2.857zm74.864 6.452c-.958.019-1.899-.018-2.857.037-.848.055-1.051-.35-1.033-1.106.019-2.268.019-4.535-.147-6.858-.092.332-.203.645-.295.977-.682 2.047-1.364 4.074-2.028 6.12-.203.627-.553.886-1.198.867-3.3-.074-2.489.48-3.54-2.47-.626-1.77-1.161-3.558-1.751-5.346-.018-.056-.074-.074-.203-.222v6.582c0 1.438 0 1.456-1.419 1.438-2.821-.037-2.452.405-2.471-2.508-.018-3.189 0-6.396 0-9.586 0-1.18.056-1.235 1.254-1.235h1.844c1.788.019 2.654.608 3.226 2.304.626 1.825 1.216 3.669 1.843 5.512.074.222.184.424.387.867.682-2.046 1.309-3.871 1.881-5.696.755-2.452 1.456-2.987 4.037-2.987.829 0 1.659.019 2.489.019-.019 4.442-.019 8.867-.019 13.291z" fill="#000"/><path d="M137.759 57.188c-.958.019-1.899-.018-2.857.037-.848.055-1.051-.35-1.033-1.106.019-2.268.019-4.535-.147-6.858-.092.332-.203.645-.295.977-.682 2.047-1.364 4.074-2.028 6.12-.203.627-.553.886-1.198.867-3.3-.074-2.489.48-3.54-2.47-.626-1.77-1.161-3.558-1.751-5.346-.018-.056-.074-.074-.203-.222v6.582c0 1.438 0 1.456-1.419 1.438-2.821-.037-2.452.405-2.471-2.508-.018-3.189 0-6.396 0-9.586 0-1.18.056-1.235 1.254-1.235h1.844c1.788.019 2.654.608 3.226 2.304.626 1.825 1.216 3.669 1.843 5.512.074.222.184.424.387.867.682-2.046 1.309-3.871 1.881-5.696.755-2.452 1.456-2.987 4.037-2.987.829 0 1.659.019 2.489.019-.019 4.442-.019 8.867-.019 13.291zm-52.576-7.263a506.663 506.663 0 01-3.558 5.125c-1.954 2.728-.885 2.083-4.37 2.175-.681.018-.921-.295-.903-.94.019-3.798.019-7.614 0-11.411 0-.7.258-1.014.977-.977.59.036 1.162.036 1.752 0 .866-.074 1.216.294 1.198 1.18-.037 2.046-.019 4.092-.019 6.267 1.457-2.12 2.895-4.092 4.222-6.157.627-.959 1.309-1.364 2.47-1.309 2.49.092 2.323-.295 2.323 2.323v9.77c0 1.143-.11 1.254-1.272 1.254-2.636.018-2.636.018-2.636-2.618v-4.59c-.074-.037-.13-.055-.184-.092z" fill="#000"/><path d="M85.183 49.925a506.663 506.663 0 01-3.558 5.125c-1.954 2.728-.885 2.083-4.37 2.175-.681.018-.921-.295-.903-.94.019-3.798.019-7.614 0-11.411 0-.7.258-1.014.977-.977.59.036 1.162.036 1.752 0 .866-.074 1.216.294 1.198 1.18-.037 2.046-.019 4.092-.019 6.267 1.457-2.12 2.895-4.092 4.222-6.157.627-.959 1.309-1.364 2.47-1.309 2.49.092 2.323-.295 2.323 2.323v9.77c0 1.143-.11 1.254-1.272 1.254-2.636.018-2.636.018-2.636-2.618v-4.59c-.074-.037-.13-.055-.184-.092zm28.592 7.282c-1.346 0-2.71.073-4.055-.019-1.66-.11-3.134-.7-3.687-2.415-.535-1.622-.406-3.226.94-4.516.774-.756 1.751-.996 2.783-1.014 1.531-.037 3.079 0 4.609-.019.811-.018 1.051-.332.811-1.106-.276-.903-.995-1.217-1.843-1.217-1.881-.018-3.743-.018-5.623-.018-1.217 0-1.272-.092-1.272-1.53 0-1.346.074-1.438 1.272-1.438h6.176c3.115.018 4.793 1.549 4.904 4.646.092 2.599.018 5.217.036 7.834 0 .646-.276.885-.884.867-1.402-.055-2.784-.037-4.167-.055 0 .018 0 .018 0 0zm-1.253-5.144h-1.936c-.774.019-1.346.295-1.346 1.162 0 .83.609 1.124 1.291 1.143 1.345.055 2.691.036 4.037.018.903-.018.664-.719.682-1.217.018-.516.111-1.106-.7-1.106h-2.028z" fill="#000"/><path d="M113.775 57.207c-1.346 0-2.71.073-4.055-.019-1.66-.11-3.134-.7-3.687-2.415-.535-1.622-.406-3.226.94-4.516.774-.756 1.751-.996 2.783-1.014 1.531-.037 3.079 0 4.609-.019.811-.018 1.051-.332.811-1.106-.276-.903-.995-1.217-1.843-1.217-1.881-.018-3.743-.018-5.623-.018-1.217 0-1.272-.092-1.272-1.53 0-1.346.074-1.438 1.272-1.438h6.176c3.115.018 4.793 1.549 4.904 4.646.092 2.599.018 5.217.036 7.834 0 .646-.276.885-.884.867-1.402-.055-2.784-.037-4.167-.055 0 .018 0 .018 0 0zm-1.253-5.144h-1.936c-.774.019-1.346.295-1.346 1.162 0 .83.609 1.124 1.291 1.143 1.345.055 2.691.036 4.037.018.903-.018.664-.719.682-1.217.018-.516.111-1.106-.7-1.106h-2.028zm-17.495-2.986h4.369c.553 0 .756-.295.756-.811 0-1.07.037-2.157 0-3.227-.019-.81.258-1.216 1.124-1.142.572.036 1.162.036 1.752 0 .829-.056 1.05.313 1.05 1.087-.018 3.724-.036 7.43 0 11.153 0 .848-.294 1.125-1.124 1.106-3.245-.092-2.728.48-2.784-2.765-.037-2.802.369-2.396-2.47-2.415-2.655-.018-2.655 0-2.655 2.655 0 .46-.037.922 0 1.382.074.812-.22 1.217-1.087 1.143-.664-.055-1.346-.018-2.028-.018-.535 0-.793-.258-.793-.793V44.726c0-.553.277-.848.848-.848 3.724.037 2.968-.498 3.042 2.765.018.775 0 1.53 0 2.434z" fill="#000"/><path d="M95.027 49.077h4.369c.553 0 .756-.295.756-.811 0-1.07.037-2.157 0-3.227-.019-.81.258-1.216 1.124-1.142.572.036 1.162.036 1.752 0 .829-.056 1.05.313 1.05 1.087-.018 3.724-.036 7.43 0 11.153 0 .848-.294 1.125-1.124 1.106-3.245-.092-2.728.48-2.784-2.765-.037-2.802.369-2.396-2.47-2.415-2.655-.018-2.655 0-2.655 2.655 0 .46-.037.922 0 1.382.074.812-.22 1.217-1.087 1.143-.664-.055-1.346-.018-2.028-.018-.535 0-.793-.258-.793-.793V44.726c0-.553.277-.848.848-.848 3.724.037 2.968-.498 3.042 2.765.018.775 0 1.53 0 2.434zM35.095 33.333c1.07.885 2.139 1.77 3.226 2.618.443.332.553.645.277 1.125-.277.479-.498.977-.738 1.456-.184.387-.442.516-.83.221-1.032-.811-2.082-1.604-3.096-2.452-.166-.147-.24-.571-.148-.81.277-.738.645-1.439.996-2.158h.313z" fill="#000"/><path d="M35.095 33.333c1.07.885 2.139 1.77 3.226 2.618.443.332.553.645.277 1.125-.277.479-.498.977-.738 1.456-.184.387-.442.516-.83.221-1.032-.811-2.082-1.604-3.096-2.452-.166-.147-.24-.571-.148-.81.277-.738.645-1.439.996-2.158h.313zM23.794 49.611a94.555 94.555 0 01-2.71 1.365.617.617 0 01-.479-.037 395.37 395.37 0 01-3.835-3.005c1.07-.48 1.955-.885 2.84-1.272.092-.037.276-.019.35.037 1.253.94 2.47 1.88 3.834 2.912z" fill="#000"/><path d="M23.794 49.611a94.555 94.555 0 01-2.71 1.365.617.617 0 01-.479-.037 395.37 395.37 0 01-3.835-3.005c1.07-.48 1.955-.885 2.84-1.272.092-.037.276-.019.35.037 1.253.94 2.47 1.88 3.834 2.912zm4.425 6.987a77.85 77.85 0 012.58-1.198c.111-.056.332-.056.425.018 1.235.94 2.451 1.899 3.834 2.968-1.05.516-1.935.959-2.839 1.364-.092.037-.295-.036-.405-.129a240.606 240.606 0 01-3.392-2.673c-.056-.018-.074-.11-.203-.35z" fill="#000"/><path d="M28.219 56.598a77.85 77.85 0 012.58-1.198c.111-.056.332-.056.425.018 1.235.94 2.451 1.899 3.834 2.968-1.05.516-1.935.959-2.839 1.364-.092.037-.295-.036-.405-.129a240.606 240.606 0 01-3.392-2.673c-.056-.018-.074-.11-.203-.35zM26.247 67.77c-.904-.682-1.733-1.272-2.508-1.9-1.714-1.437-1.75-.773-.755-3.004.442-.995.442-.995 1.327-.313.866.663 1.714 1.345 2.6 1.99.479.35.552.646.239 1.18-.332.59-.553 1.254-.903 2.047z" fill="#000"/><path d="M26.247 67.77c-.904-.682-1.733-1.272-2.508-1.9-1.714-1.437-1.75-.773-.755-3.004.442-.995.442-.995 1.327-.313.866.663 1.714 1.345 2.6 1.99.479.35.552.646.239 1.18-.332.59-.553 1.254-.903 2.047zm-5.734-16.537c-.719.664-1.327 1.273-1.99 1.826-.111.092-.425.037-.572-.074-1.07-.793-2.12-1.64-3.19-2.452-.387-.295-.331-.516-.036-.848 1.567-1.696 1.585-1.715 3.373-.332a159.42 159.42 0 002.415 1.88z" fill="#000"/><path d="M20.513 51.233c-.719.664-1.327 1.273-1.99 1.826-.111.092-.425.037-.572-.074-1.07-.793-2.12-1.64-3.19-2.452-.387-.295-.331-.516-.036-.848 1.567-1.696 1.585-1.715 3.373-.332a159.42 159.42 0 002.415 1.88zm-8.277 1.899c1.29 1.014 2.489 1.918 3.65 2.876.129.11.221.424.147.59-.295.774-.663 1.549-1.05 2.434-.738-.572-1.42-1.07-2.102-1.586-.203-.147-.387-.313-.572-.46-1.419-1.125-1.493-.683-.663-2.71.147-.351.35-.664.59-1.144z" fill="#000"/><path d="M12.236 53.132c1.29 1.014 2.489 1.918 3.65 2.876.129.11.221.424.147.59-.295.774-.663 1.549-1.05 2.434-.738-.572-1.42-1.07-2.102-1.586-.203-.147-.387-.313-.572-.46-1.419-1.125-1.493-.683-.663-2.71.147-.351.35-.664.59-1.144zm5.77.443c-.074.129-.13.24-.203.35-.148.203-.295.387-.443.59-1.032 1.438-1.032 1.438-2.433.332-.682-.535-1.346-1.088-2.046-1.586-.369-.276-.498-.516-.185-.921.369-.498.7-1.033 1.106-1.494.13-.147.572-.22.72-.11 1.105.811 2.156 1.659 3.225 2.489.093.092.148.22.259.35z" fill="#000"/><path d="M18.006 53.575c-.074.129-.13.24-.203.35-.148.203-.295.387-.443.59-1.032 1.438-1.032 1.438-2.433.332-.682-.535-1.346-1.088-2.046-1.586-.369-.276-.498-.516-.185-.921.369-.498.7-1.033 1.106-1.494.13-.147.572-.22.72-.11 1.105.811 2.156 1.659 3.225 2.489.093.092.148.22.259.35zm13.77 6.415c-.719.664-1.327 1.272-1.99 1.807-.13.092-.498.055-.646-.055-1.032-.775-2.028-1.604-3.042-2.378-.424-.314-.424-.572-.073-.959 1.493-1.622 1.585-1.64 3.318-.313.793.626 1.585 1.235 2.433 1.898z" fill="#000"/><path d="M31.776 59.99c-.719.664-1.327 1.272-1.99 1.807-.13.092-.498.055-.646-.055-1.032-.775-2.028-1.604-3.042-2.378-.424-.314-.424-.572-.073-.959 1.493-1.622 1.585-1.64 3.318-.313.793.626 1.585 1.235 2.433 1.898zm5.587-20.481c-.553.719-1.07 1.42-1.623 2.083-.055.074-.424-.055-.59-.166a78.104 78.104 0 01-3.097-2.433c-.129-.11-.147-.535-.055-.72.295-.534.7-1.013 1.05-1.53.222-.331.425-.423.775-.147 1.032.83 2.065 1.623 3.097 2.434.166.11.258.276.443.479z" fill="#000"/><path d="M37.363 39.509c-.553.719-1.07 1.42-1.623 2.083-.055.074-.424-.055-.59-.166a78.104 78.104 0 01-3.097-2.433c-.129-.11-.147-.535-.055-.72.295-.534.7-1.013 1.05-1.53.222-.331.425-.423.775-.147 1.032.83 2.065 1.623 3.097 2.434.166.11.258.276.443.479zm11.171 8.701c-.258.443-.516.867-.774 1.272-.756 1.143-.756 1.143-1.825.295-.774-.608-1.567-1.235-2.36-1.806-.46-.332-.645-.627-.184-1.125.35-.405.59-.922.94-1.327.13-.148.572-.277.7-.166 1.107.811 2.158 1.659 3.245 2.507.074.074.148.203.258.35z" fill="#000"/><path d="M48.534 48.21c-.258.443-.516.867-.774 1.272-.756 1.143-.756 1.143-1.825.295-.774-.608-1.567-1.235-2.36-1.806-.46-.332-.645-.627-.184-1.125.35-.405.59-.922.94-1.327.13-.148.572-.277.7-.166 1.107.811 2.158 1.659 3.245 2.507.074.074.148.203.258.35zM35.39 42.127c-.313.387-.553.719-.83 1.032-1.271 1.401-1.05 1.162-2.193.258-.719-.571-1.456-1.106-2.175-1.677-.72-.553-.72-.609-.111-1.235.092-.093.166-.185.258-.259 1.198-1.216 1.198-1.216 2.544-.202.682.516 1.383 1.05 2.065 1.585.147.13.276.314.442.498z" fill="#000"/><path d="M35.39 42.127c-.313.387-.553.719-.83 1.032-1.271 1.401-1.05 1.162-2.193.258-.719-.571-1.456-1.106-2.175-1.677-.72-.553-.72-.609-.111-1.235.092-.093.166-.185.258-.259 1.198-1.216 1.198-1.216 2.544-.202.682.516 1.383 1.05 2.065 1.585.147.13.276.314.442.498zm-6.065 20.02a7.202 7.202 0 01-.368.627c-.277.405-.627.793-.849 1.217-.331.663-.663.645-1.18.202a77.803 77.803 0 00-2.728-2.157c-.424-.313-.46-.608-.184-1.069 1.18-1.917 1.18-1.917 2.95-.553.626.48 1.253.977 1.88 1.457.147.11.332.184.48.276z" fill="#000"/><path d="M29.325 62.147a7.202 7.202 0 01-.368.627c-.277.405-.627.793-.849 1.217-.331.663-.663.645-1.18.202a77.803 77.803 0 00-2.728-2.157c-.424-.313-.46-.608-.184-1.069 1.18-1.917 1.18-1.917 2.95-.553.626.48 1.253.977 1.88 1.457.147.11.332.184.48.276zm11.411-12.222c.646-.72 1.18-1.346 1.752-1.917.11-.11.497-.093.626.018 1.088.811 2.176 1.66 3.227 2.507.129.092.184.48.11.59a10.23 10.23 0 01-1.346 1.475c-.165.147-.608.203-.774.074-1.18-.848-2.341-1.788-3.595-2.747z" fill="#000"/><path d="M40.736 49.925c.646-.72 1.18-1.346 1.752-1.917.11-.11.497-.093.626.018 1.088.811 2.176 1.66 3.227 2.507.129.092.184.48.11.59a10.23 10.23 0 01-1.346 1.475c-.165.147-.608.203-.774.074-1.18-.848-2.341-1.788-3.595-2.747zM20.624 63.364c-.424-.295-.774-.535-1.106-.774-.627-.48-1.254-.996-1.88-1.475-1.07-.83-1.07-.83-.554-2.065.664-1.567.664-1.585 1.973-.572.793.609 1.585 1.217 2.341 1.844.166.13.332.442.277.59-.277.774-.645 1.53-1.051 2.452z" fill="#000"/><path d="M20.624 63.364c-.424-.295-.774-.535-1.106-.774-.627-.48-1.254-.996-1.88-1.475-1.07-.83-1.07-.83-.554-2.065.664-1.567.664-1.585 1.973-.572.793.609 1.585 1.217 2.341 1.844.166.13.332.442.277.59-.277.774-.645 1.53-1.051 2.452zm5.512-7.724c-.7.645-1.254 1.198-1.862 1.696-.148.129-.572.11-.738 0-1.032-.756-2.027-1.586-3.06-2.36-.387-.295-.46-.553-.073-.885.46-.406.921-.848 1.4-1.217.167-.11.535-.184.664-.092 1.217.922 2.415 1.88 3.669 2.858z" fill="#000"/><path d="M26.136 55.64c-.7.645-1.254 1.198-1.862 1.696-.148.129-.572.11-.738 0-1.032-.756-2.027-1.586-3.06-2.36-.387-.295-.46-.553-.073-.885.46-.406.921-.848 1.4-1.217.167-.11.535-.184.664-.092 1.217.922 2.415 1.88 3.669 2.858zm15.67-21.145c1.29 1.014 2.47 1.917 3.631 2.839.11.092.24.276.221.368-.276.83-.59 1.66-.921 2.489-.019.037-.424 0-.553-.11-1.033-.775-2.065-1.55-3.06-2.379-.166-.147-.314-.497-.259-.682.24-.81.572-1.585.94-2.525z" fill="#000"/><path d="M41.806 34.495c1.29 1.014 2.47 1.917 3.631 2.839.11.092.24.276.221.368-.276.83-.59 1.66-.921 2.489-.019.037-.424 0-.553-.11-1.033-.775-2.065-1.55-3.06-2.379-.166-.147-.314-.497-.259-.682.24-.81.572-1.585.94-2.525zM39.04 40.67c1.235.959 2.397 1.825 3.521 2.766.166.129.203.608.093.83-.277.552-.646 1.05-1.051 1.51-.11.13-.572.167-.72.056a64.1 64.1 0 01-3.096-2.433c-.148-.13-.277-.516-.203-.627.405-.682.903-1.327 1.456-2.102z" fill="#000"/><path d="M39.04 40.67c1.235.959 2.397 1.825 3.521 2.766.166.129.203.608.093.83-.277.552-.646 1.05-1.051 1.51-.11.13-.572.167-.72.056a64.1 64.1 0 01-3.096-2.433c-.148-.13-.277-.516-.203-.627.405-.682.903-1.327 1.456-2.102zm4.037 2.637c-.166-.111-.332-.185-.46-.277-1.033-.793-2.047-1.567-3.06-2.378-.148-.129-.24-.498-.167-.664.24-.59.572-1.161.867-1.733.184-.387.424-.46.756-.184 1.05.83 2.12 1.622 3.17 2.47.148.111.258.461.185.627-.277.627-.627 1.235-.959 1.844-.074.11-.221.184-.332.295z" fill="#000"/><path d="M43.077 43.307c-.166-.111-.332-.185-.46-.277-1.033-.793-2.047-1.567-3.06-2.378-.148-.129-.24-.498-.167-.664.24-.59.572-1.161.867-1.733.184-.387.424-.46.756-.184 1.05.83 2.12 1.622 3.17 2.47.148.111.258.461.185.627-.277.627-.627 1.235-.959 1.844-.074.11-.221.184-.332.295zM29.418 53.999c-1.033.498-1.862.922-2.71 1.309a.494.494 0 01-.424-.037c-1.217-.922-2.434-1.862-3.853-2.95 1.05-.497 1.935-.903 2.82-1.29.11-.056.314 0 .424.092 1.198.922 2.378 1.844 3.742 2.876z" fill="#000"/><path d="M29.418 53.999c-1.033.498-1.862.922-2.71 1.309a.494.494 0 01-.424-.037c-1.217-.922-2.434-1.862-3.853-2.95 1.05-.497 1.935-.903 2.82-1.29.11-.056.314 0 .424.092 1.198.922 2.378 1.844 3.742 2.876zm-9.236-7.595c1.124-.443 2.064-.83 3.005-1.18.092-.037.258 0 .35.074 1.198.921 2.378 1.843 3.705 2.875a9.419 9.419 0 01-2.95 1.236c-.11.037-.294-.056-.405-.148-1.161-.885-2.323-1.788-3.705-2.857z" fill="#000"/><path d="M20.182 46.404c1.124-.443 2.064-.83 3.005-1.18.092-.037.258 0 .35.074 1.198.921 2.378 1.843 3.705 2.875a9.419 9.419 0 01-2.95 1.236c-.11.037-.294-.056-.405-.148-1.161-.885-2.323-1.788-3.705-2.857zm11.282 8.756c1.087-.442 1.954-.83 2.857-1.161.148-.056.406 0 .553.11 1.125.867 2.231 1.752 3.337 2.618.055.037.055.13.166.35-.94.37-1.88.738-2.802 1.07-.092.037-.258-.037-.35-.093a180.607 180.607 0 01-3.761-2.894z" fill="#000"/><path d="M31.464 55.16c1.087-.442 1.954-.83 2.857-1.161.148-.056.406 0 .553.11 1.125.867 2.231 1.752 3.337 2.618.055.037.055.13.166.35-.94.37-1.88.738-2.802 1.07-.092.037-.258-.037-.35-.093a180.607 180.607 0 01-3.761-2.894zm-11.651-.24c.147.093.295.185.442.296l2.931 2.267c.37.277.424.553.13.94-.332.424-.646.867-.94 1.328-.259.405-.517.479-.904.166-1.014-.793-2.046-1.567-3.042-2.379-.147-.129-.295-.479-.22-.59.405-.645.884-1.253 1.326-1.861.074-.093.185-.111.277-.166z" fill="#000"/><path d="M19.813 54.92c.147.093.295.185.442.296l2.931 2.267c.37.277.424.553.13.94-.332.424-.646.867-.94 1.328-.259.405-.517.479-.904.166-1.014-.793-2.046-1.567-3.042-2.379-.147-.129-.295-.479-.22-.59.405-.645.884-1.253 1.326-1.861.074-.093.185-.111.277-.166zm13.384-10.415c-.775.59-1.401 1.124-2.065 1.585-.166.11-.553.056-.72-.073-1.068-.775-2.1-1.604-3.133-2.397-.332-.258-.369-.498.018-.756.535-.368 1.033-.792 1.567-1.143.166-.11.48-.147.646-.073.313.147.571.387.848.608.903.719 1.806 1.438 2.839 2.249z" fill="#000"/><path d="M33.197 44.505c-.775.59-1.401 1.124-2.065 1.585-.166.11-.553.056-.72-.073-1.068-.775-2.1-1.604-3.133-2.397-.332-.258-.369-.498.018-.756.535-.368 1.033-.792 1.567-1.143.166-.11.48-.147.646-.073.313.147.571.387.848.608.903.719 1.806 1.438 2.839 2.249zm3.981-.995c.203.11.369.202.535.313.977.756 1.954 1.53 2.95 2.267.368.277.386.535.036.83-.24.221-.46.46-.663.7-.867 1.033-.867 1.051-1.918.24-.83-.645-1.622-1.29-2.47-1.917-.387-.295-.424-.553-.074-.903.424-.424.83-.848 1.254-1.272.073-.111.221-.185.35-.258z" fill="#000"/><path d="M37.178 43.51c.203.11.369.202.535.313.977.756 1.954 1.53 2.95 2.267.368.277.386.535.036.83-.24.221-.46.46-.663.7-.867 1.033-.867 1.051-1.918.24-.83-.645-1.622-1.29-2.47-1.917-.387-.295-.424-.553-.074-.903.424-.424.83-.848 1.254-1.272.073-.111.221-.185.35-.258zm3.319 6.728c.184.11.368.203.534.332.959.737 1.918 1.493 2.876 2.23.406.296.424.572.037.867a.488.488 0 01-.11.092c-1.641 1.401-1.641 1.401-3.374.074-.59-.443-1.18-.904-1.77-1.364-.442-.332-.516-.627 0-.959.48-.313.903-.682 1.364-1.014.148-.092.295-.166.443-.258z" fill="#000"/><path d="M40.497 50.238c.184.11.368.203.534.332.959.737 1.918 1.493 2.876 2.23.406.296.424.572.037.867a.488.488 0 01-.11.092c-1.641 1.401-1.641 1.401-3.374.074-.59-.443-1.18-.904-1.77-1.364-.442-.332-.516-.627 0-.959.48-.313.903-.682 1.364-1.014.148-.092.295-.166.443-.258zm-14.417.479c.867-.35 1.733-.718 2.6-1.069a.484.484 0 01.423.055l3.595 2.71c0 .093-.018.185-.018.277-.904.369-1.788.756-2.692 1.125-.092.036-.258-.019-.35-.093a538.039 538.039 0 01-3.447-2.71c-.056-.037-.056-.129-.11-.295z" fill="#000"/><path d="M26.08 50.717c.867-.35 1.733-.718 2.6-1.069a.484.484 0 01.423.055l3.595 2.71c0 .093-.018.185-.018.277-.904.369-1.788.756-2.692 1.125-.092.036-.258-.019-.35-.093a538.039 538.039 0 01-3.447-2.71c-.056-.037-.056-.129-.11-.295zm6.416-3.097c.811-.608 1.475-1.143 2.175-1.64.111-.074.443.018.59.129 1.014.755 2.01 1.548 3.005 2.304.424.313.387.59 0 .885-.037.037-.073.055-.11.092-2.102 1.604-1.475 1.438-3.355.018a338.107 338.107 0 01-2.305-1.788z" fill="#000"/><path d="M32.496 47.62c.811-.608 1.475-1.143 2.175-1.64.111-.074.443.018.59.129 1.014.755 2.01 1.548 3.005 2.304.424.313.387.59 0 .885-.037.037-.073.055-.11.092-2.102 1.604-1.475 1.438-3.355.018a338.107 338.107 0 01-2.305-1.788zm2.507 6.102c.977-.516 1.77-.94 2.58-1.327.13-.055.425.074.59.203a169.63 169.63 0 012.895 2.194c.406.313.48.553-.037.884-1.954 1.254-1.935 1.254-3.742-.202-.7-.572-1.42-1.106-2.286-1.752z" fill="#000"/><path d="M35.003 53.722c.977-.516 1.77-.94 2.58-1.327.13-.055.425.074.59.203a169.63 169.63 0 012.895 2.194c.406.313.48.553-.037.884-1.954 1.254-1.935 1.254-3.742-.202-.7-.572-1.42-1.106-2.286-1.752zM23.979 44.91c.755-.423 1.53-.884 2.304-1.29a.45.45 0 01.405.037c1.199.903 2.379 1.825 3.78 2.894-.996.498-1.789.922-2.6 1.31-.11.054-.35-.02-.479-.111a222.516 222.516 0 01-3.281-2.563c-.056-.037-.056-.129-.13-.276z" fill="#000"/><path d="M23.979 44.91c.755-.423 1.53-.884 2.304-1.29a.45.45 0 01.405.037c1.199.903 2.379 1.825 3.78 2.894-.996.498-1.789.922-2.6 1.31-.11.054-.35-.02-.479-.111a222.516 222.516 0 01-3.281-2.563c-.056-.037-.056-.129-.13-.276zm12.038 6.01c-.903.461-1.677.885-2.47 1.254-.129.055-.406-.019-.553-.11-1.07-.812-2.12-1.623-3.17-2.453-.075-.055-.093-.165-.167-.313.738-.424 1.457-.848 2.194-1.235.148-.074.369.018.553.074.092.018.166.11.24.166 1.106.83 2.175 1.677 3.373 2.617z" fill="#000"/><path d="M36.017 50.92c-.903.461-1.677.885-2.47 1.254-.129.055-.406-.019-.553-.11-1.07-.812-2.12-1.623-3.17-2.453-.075-.055-.093-.165-.167-.313.738-.424 1.457-.848 2.194-1.235.148-.074.369.018.553.074.092.018.166.11.24.166 1.106.83 2.175 1.677 3.373 2.617z" fill="#000"/></svg>