<svg width="150" height="100" fill="none" xmlns="http://www.w3.org/2000/svg"><path d="M84.19 33.333v10.895c.16-.072.301-.134.442-.202 2.341-1.163 4.806-1.556 7.319-.684 2.676.94 4.322 3.002 5.322 5.639a14.684 14.684 0 01.766 6.545 14.177 14.177 0 01-1.526 5.55c-1.672 3.122-4.271 4.924-7.633 5.632a17.956 17.956 0 01-6.115.116c-1.529-.205-3.044-.513-4.57-.749-.448-.068-.575-.26-.568-.725.076-5.856.136-11.713.18-17.57 0-2.42-.04-4.845-.1-7.27a13.038 13.038 0 00-.264-2.253c-.284-1.398-.92-1.962-2.342-2.127-.428-.05-.612-.246-.512-.656a.596.596 0 01.335-.39c2.78-.547 5.563-1.074 8.343-1.6.3-.055.599-.1.923-.15zm-.05 19.714v6.333c0 1.77.053 3.539.107 5.307 0 .195.137.533.26.557 1.359.27 2.677.209 3.757-.82a7.757 7.757 0 001.864-2.941c1.003-2.63 1.284-5.38 1.17-8.17a13.064 13.064 0 00-1.08-4.955 5.357 5.357 0 00-2.03-2.506c-1.265-.762-2.563-.581-3.858-.102-.097.037-.183.263-.183.403-.01 2.298-.007 4.596-.007 6.894z" fill="#000"/><path d="M84.19 33.333v10.895c.16-.072.301-.134.442-.202 2.341-1.163 4.806-1.556 7.319-.684 2.676.94 4.322 3.002 5.322 5.639a14.684 14.684 0 01.766 6.545 14.177 14.177 0 01-1.526 5.55c-1.672 3.122-4.271 4.924-7.633 5.632a17.956 17.956 0 01-6.115.116c-1.529-.205-3.044-.513-4.57-.749-.448-.068-.575-.26-.568-.725.076-5.856.136-11.713.18-17.57 0-2.42-.04-4.845-.1-7.27a13.038 13.038 0 00-.264-2.253c-.284-1.398-.92-1.962-2.342-2.127-.428-.05-.612-.246-.512-.656a.596.596 0 01.335-.39c2.78-.547 5.563-1.074 8.343-1.6.3-.055.599-.1.923-.15zm-.05 19.714v6.333c0 1.77.053 3.539.107 5.307 0 .195.137.533.26.557 1.359.27 2.677.209 3.757-.82a7.757 7.757 0 001.864-2.941c1.003-2.63 1.284-5.38 1.17-8.17a13.064 13.064 0 00-1.08-4.955 5.357 5.357 0 00-2.03-2.506c-1.265-.762-2.563-.581-3.858-.102-.097.037-.183.263-.183.403-.01 2.298-.007 4.596-.007 6.894zM37.883 33.928v2.626c.027 1.987.054 3.974.097 5.964 0 .342-.066.52-.428.622-.987.277-.98.301-1.338-.656-.585-1.628-1.288-3.19-2.499-4.446a5.754 5.754 0 00-1.892-1.348 5.646 5.646 0 00-2.259-.48c-1.733-.018-3.465-.001-5.198-.022-.335 0-.428.13-.439.428-.023.745-.07 1.49-.083 2.233-.047 2.346-.087 4.692-.13 7.037-.017.995-.024 1.987-.06 2.982 0 .42.103.581.544.54.921-.1 1.847-.15 2.774-.15 1.702.034 2.72-.876 3.318-2.394.215-.562.382-1.142.498-1.733.06-.298.164-.394.442-.38.278.014.542 0 .85 0v10.942a8 8 0 01-1.027-.017c-.097 0-.211-.222-.241-.342-.251-1.108-.552-2.195-1.302-3.077a2.808 2.808 0 00-.927-.74 2.75 2.75 0 00-1.143-.286c-1.06-.048-2.12-.116-3.185-.168-.592-.027-.612 0-.595.568.073 2.483.164 4.965.237 7.448a13.237 13.237 0 00.542 3.761c.412 1.269 1.228 1.983 2.55 2.093.42.034.832.167 1.25.215.643.072.358.568.398.896.05.407-.27.342-.498.342H12.608c-.261 0-.392-.068-.385-.366.017-.906-.094-.759.702-.926.335-.069.67-.134.98-.185 1.479-.233 2.111-1.29 2.402-2.626a13 13 0 00.335-2.524 1412.2 1412.2 0 00.17-15.388 44.937 44.937 0 00-.25-4.691 10.975 10.975 0 00-.62-2.551c-.394-1.101-1.304-1.573-2.394-1.71-.255-.034-.516-.051-.767-.092-.183-.031-.505-.072-.515-.147a5.693 5.693 0 010-1.105c0-.037.148-.085.231-.099.137-.009.275-.009.412 0h24.964l.01-.048z" fill="#000"/><path d="M37.883 33.928v2.626c.027 1.987.054 3.974.097 5.964 0 .342-.066.52-.428.622-.987.277-.98.301-1.338-.656-.585-1.628-1.288-3.19-2.499-4.446a5.754 5.754 0 00-1.892-1.348 5.646 5.646 0 00-2.259-.48c-1.733-.018-3.465-.001-5.198-.022-.335 0-.428.13-.439.428-.023.745-.07 1.49-.083 2.233-.047 2.346-.087 4.692-.13 7.037-.017.995-.024 1.987-.06 2.982 0 .42.103.581.544.54.921-.1 1.847-.15 2.774-.15 1.702.034 2.72-.876 3.318-2.394.215-.562.382-1.142.498-1.733.06-.298.164-.394.442-.38.278.014.542 0 .85 0v10.942a8 8 0 01-1.027-.017c-.097 0-.211-.222-.241-.342-.251-1.108-.552-2.195-1.302-3.077a2.808 2.808 0 00-.927-.74 2.75 2.75 0 00-1.143-.286c-1.06-.048-2.12-.116-3.185-.168-.592-.027-.612 0-.595.568.073 2.483.164 4.965.237 7.448a13.237 13.237 0 00.542 3.761c.412 1.269 1.228 1.983 2.55 2.093.42.034.832.167 1.25.215.643.072.358.568.398.896.05.407-.27.342-.498.342H12.608c-.261 0-.392-.068-.385-.366.017-.906-.094-.759.702-.926.335-.069.67-.134.98-.185 1.479-.233 2.111-1.29 2.402-2.626a13 13 0 00.335-2.524 1412.2 1412.2 0 00.17-15.388 44.937 44.937 0 00-.25-4.691 10.975 10.975 0 00-.62-2.551c-.394-1.101-1.304-1.573-2.394-1.71-.255-.034-.516-.051-.767-.092-.183-.031-.505-.072-.515-.147a5.693 5.693 0 010-1.105c0-.037.148-.085.231-.099.137-.009.275-.009.412 0h24.964l.01-.048zM34.846 55.29c-.017-3.228.609-5.858 2.221-8.176a10.238 10.238 0 013.206-3.027 9.994 9.994 0 014.153-1.37 12.336 12.336 0 015.965.57 9.154 9.154 0 013.495 2.228 9.418 9.418 0 012.191 3.565c1.492 4.158 1.496 8.306-.558 12.283-1.72 3.33-4.543 5.109-8.182 5.546-1.88.27-3.794.1-5.6-.496-3.01-1.05-4.984-3.207-6.068-6.237a14.537 14.537 0 01-.823-4.886zm15.468-.985c-.09-.927-.19-2.585-.422-4.223a10.327 10.327 0 00-1.605-4.497c-1.158-1.682-3.084-2.004-4.486-.731a5.113 5.113 0 00-1.338 2.345 19.265 19.265 0 00-.753 4.753c-.154 2.736-.144 5.489.395 8.207a10.267 10.267 0 001.565 4.025c.25.389.586.712.98.943a2.847 2.847 0 003.684-.7 6.16 6.16 0 001.207-2.473c.612-2.267.673-4.592.756-7.649h.017z" fill="#000"/><path d="M34.846 55.29c-.017-3.228.609-5.858 2.221-8.176a10.238 10.238 0 013.206-3.027 9.994 9.994 0 014.153-1.37 12.336 12.336 0 015.965.57 9.154 9.154 0 013.495 2.228 9.418 9.418 0 012.191 3.565c1.492 4.158 1.496 8.306-.558 12.283-1.72 3.33-4.543 5.109-8.182 5.546-1.88.27-3.794.1-5.6-.496-3.01-1.05-4.984-3.207-6.068-6.237a14.537 14.537 0 01-.823-4.886zm15.468-.985c-.09-.927-.19-2.585-.422-4.223a10.327 10.327 0 00-1.605-4.497c-1.158-1.682-3.084-2.004-4.486-.731a5.113 5.113 0 00-1.338 2.345 19.265 19.265 0 00-.753 4.753c-.154 2.736-.144 5.489.395 8.207a10.267 10.267 0 001.565 4.025c.25.389.586.712.98.943a2.847 2.847 0 003.684-.7 6.16 6.16 0 001.207-2.473c.612-2.267.673-4.592.756-7.649h.017zm69.06 7.715c.669.611.669.632.14 1.268a10.195 10.195 0 01-5.93 3.468 11.111 11.111 0 01-7.57-.978c-3.081-1.615-4.908-4.254-5.617-7.664-.763-3.662-.358-7.198 1.579-10.443 1.736-2.91 4.308-4.558 7.62-4.972 2.037-.253 4.034-.14 5.894.862 2.081 1.118 3.312 2.944 4.048 5.17.425 1.445.67 2.938.729 4.446.03.43-.134.513-.518.51-4.135-.012-8.27-.012-12.404 0-.669 0-.669 0-.669.663.077 2.342.465 4.599 1.897 6.53 1.257 1.71 2.96 2.545 5.017 2.736 2.058.192 3.921-.215 5.58-1.494a1.12 1.12 0 01.204-.102zm-5.72-10.17c-.101-1.252-.151-2.442-.301-3.618a7.292 7.292 0 00-1.024-3.146c-.702-1.074-1.93-1.368-2.91-.557a5.77 5.77 0 00-1.362 1.71 12.455 12.455 0 00-1.291 5.08c-.05.73-.047.733.669.719 1.655-.034 3.311-.07 4.968-.11.361-.006.736-.044 1.251-.078z" fill="#000"/><path d="M119.374 62.02c.669.611.669.632.14 1.268a10.195 10.195 0 01-5.93 3.468 11.111 11.111 0 01-7.57-.978c-3.081-1.615-4.908-4.254-5.617-7.664-.763-3.662-.358-7.198 1.579-10.443 1.736-2.91 4.308-4.558 7.62-4.972 2.037-.253 4.034-.14 5.894.862 2.081 1.118 3.312 2.944 4.048 5.17.425 1.445.67 2.938.729 4.446.03.43-.134.513-.518.51-4.135-.012-8.27-.012-12.404 0-.669 0-.669 0-.669.663.077 2.342.465 4.599 1.897 6.53 1.257 1.71 2.96 2.545 5.017 2.736 2.058.192 3.921-.215 5.58-1.494a1.12 1.12 0 01.204-.102zm-5.72-10.17c-.101-1.252-.151-2.442-.301-3.618a7.292 7.292 0 00-1.024-3.146c-.702-1.074-1.93-1.368-2.91-.557a5.77 5.77 0 00-1.362 1.71 12.455 12.455 0 00-1.291 5.08c-.05.73-.047.733.669.719 1.655-.034 3.311-.07 4.968-.11.361-.006.736-.044 1.251-.078zm23.118-1.744c-.261-.667-.488-1.323-.773-1.953-.609-1.367-1.338-2.619-2.696-3.35a4.092 4.092 0 00-2.947-.466 3.093 3.093 0 00-1.575.965 3.211 3.211 0 00-.767 1.706c-.214 1.453.301 2.54 1.432 3.378 1.255.93 2.676 1.491 4.088 2.124.809.352 1.598.751 2.362 1.197 1.689 1.026 2.779 2.492 2.953 4.54.181 2.131-.231 4.104-1.635 5.776-1.255 1.488-2.884 2.288-4.724 2.691-2.06.418-4.179.425-6.242.02-1.338-.238-2.676-.632-4.014-.96a.45.45 0 01-.361-.503c-.02-1.986-.06-3.977-.094-5.963 0-.49.124-.602.739-.705.372-.061.335.267.392.448.565 1.447 1.184 2.866 2.238 4.025 1.428 1.573 3.188 2.189 5.235 1.628 1.291-.342 2.07-1.3 2.341-2.643.298-1.403-.09-2.61-1.257-3.382a27.068 27.068 0 00-3.195-1.655c-.983-.48-2.027-.842-2.977-1.368-2.308-1.317-3.262-3.42-3.094-6.063.19-2.965 2.147-5.42 5.017-6.395 1.874-.639 3.78-.65 5.714-.489 1.436.12 2.852.432 4.208.93.149.031.281.12.368.247a.615.615 0 01.1.438c0 1.552.057 3.104.081 4.657.02.882.013.882-.917 1.125z" fill="#000"/><path d="M136.772 50.106c-.261-.667-.488-1.323-.773-1.953-.609-1.367-1.338-2.619-2.696-3.35a4.092 4.092 0 00-2.947-.466 3.093 3.093 0 00-1.575.965 3.211 3.211 0 00-.767 1.706c-.214 1.453.301 2.54 1.432 3.378 1.255.93 2.676 1.491 4.088 2.124.809.352 1.598.751 2.362 1.197 1.689 1.026 2.779 2.492 2.953 4.54.181 2.131-.231 4.104-1.635 5.776-1.255 1.488-2.884 2.288-4.724 2.691-2.06.418-4.179.425-6.242.02-1.338-.238-2.676-.632-4.014-.96a.45.45 0 01-.361-.503c-.02-1.986-.06-3.977-.094-5.963 0-.49.124-.602.739-.705.372-.061.335.267.392.448.565 1.447 1.184 2.866 2.238 4.025 1.428 1.573 3.188 2.189 5.235 1.628 1.291-.342 2.07-1.3 2.341-2.643.298-1.403-.09-2.61-1.257-3.382a27.068 27.068 0 00-3.195-1.655c-.983-.48-2.027-.842-2.977-1.368-2.308-1.317-3.262-3.42-3.094-6.063.19-2.965 2.147-5.42 5.017-6.395 1.874-.639 3.78-.65 5.714-.489 1.436.12 2.852.432 4.208.93.149.031.281.12.368.247a.615.615 0 01.1.438c0 1.552.057 3.104.081 4.657.02.882.013.882-.917 1.125zm-63.066-.728a22.544 22.544 0 00-2.341-.876 5.226 5.226 0 00-3.727.342c-.27.1-.502.288-.658.535-.157.247-.23.54-.208.833.023 2.64-.077 5.28-.037 7.92.032 1.642.15 3.28.351 4.91.17 1.422.9 1.997 2.305 2.052.422.02.843.071 1.258.109.03.065.063.106.063.147 0 1.238.138 1.005-.916 1.009H57.85c-.194 0-.528-.058-.552-.15a3.053 3.053 0 010-.917c0-.044.141-.096.225-.113.28-.061.562-.123.846-.16a1.77 1.77 0 001.061-.45 1.84 1.84 0 00.575-1.018 17.11 17.11 0 00.364-3.077c.074-2.825.114-5.653.087-8.48a32.004 32.004 0 00-.334-4.446c-.211-1.405-.82-1.83-2.389-1.997-.317-.034-.501-.096-.508-.482a.507.507 0 01.102-.403.488.488 0 01.366-.182c2.98-.608 5.958-1.23 8.938-1.846.073-.006.145-.006.218 0v5.16c.127-.223.22-.363.297-.513.706-1.416 1.58-2.691 2.877-3.608 1.673-1.183 3.48-1.535 5.43-.77.41.162.498.343.334.798-.713 1.894-1.392 3.795-2.08 5.673z" fill="#000"/><path d="M73.706 49.378a22.544 22.544 0 00-2.341-.876 5.226 5.226 0 00-3.727.342c-.27.1-.502.288-.658.535-.157.247-.23.54-.208.833.023 2.64-.077 5.28-.037 7.92.032 1.642.15 3.28.351 4.91.17 1.422.9 1.997 2.305 2.052.422.02.843.071 1.258.109.03.065.063.106.063.147 0 1.238.138 1.005-.916 1.009H57.85c-.194 0-.528-.058-.552-.15a3.053 3.053 0 010-.917c0-.044.141-.096.225-.113.28-.061.562-.123.846-.16a1.77 1.77 0 001.061-.45 1.84 1.84 0 00.575-1.018 17.11 17.11 0 00.364-3.077c.074-2.825.114-5.653.087-8.48a32.004 32.004 0 00-.334-4.446c-.211-1.405-.82-1.83-2.389-1.997-.317-.034-.501-.096-.508-.482a.507.507 0 01.102-.403.488.488 0 01.366-.182c2.98-.608 5.958-1.23 8.938-1.846.073-.006.145-.006.218 0v5.16c.127-.223.22-.363.297-.513.706-1.416 1.58-2.691 2.877-3.608 1.673-1.183 3.48-1.535 5.43-.77.41.162.498.343.334.798-.713 1.894-1.392 3.795-2.08 5.673z" fill="#000"/></svg>