<svg width="50" height="42" fill="none" xmlns="http://www.w3.org/2000/svg"><path d="M35.027 41.26c-2.835-1.701-4.915-3.734-6.238-6.099-1.323-2.364-1.985-5.2-1.985-8.51 0-4.066 1.181-8.18 3.544-12.34C32.711 10.15 36.303 5.8 41.124 1.26l7.656 4.964.283 1.419c-3.78 4.16-5.67 8.274-5.67 12.34 0 2.459.425 4.586 1.275 6.383.945 1.702 2.458 3.262 4.537 4.681v1.702c-4.915 3.783-9.64 6.62-14.178 8.51zm-25.804 0c-2.835-1.701-4.915-3.734-6.238-6.099C1.662 32.797 1 29.961 1 26.651c0-4.066 1.182-8.18 3.544-12.34C6.907 10.15 10.5 5.8 15.32 1.26l7.656 4.964.283 1.419c-3.78 4.16-5.67 8.274-5.67 12.34 0 2.459.425 4.586 1.275 6.383.945 1.702 2.458 3.262 4.537 4.681v1.702c-4.915 3.783-9.64 6.62-14.178 8.51z" stroke="#CB010B"/></svg>