<svg width="50" height="50" fill="none" xmlns="http://www.w3.org/2000/svg"><path fill-rule="evenodd" clip-rule="evenodd" d="M19.7 12h11.2c1.16 0 2.1.94 2.1 2.1v21a2.1 2.1 0 01-2.1 2.1H19.7a2.1 2.1 0 01-2.1-2.1v-21c0-1.16.94-2.1 2.1-2.1zm0 2.1a.7.7 0 00-.7.7V33a.7.7 0 00.7.7h11.2a.7.7 0 00.7-.7V14.8a.7.7 0 00-.7-.7H19.7zm1.4 6.3h8.4a.7.7 0 01.7.7v5.6a.7.7 0 01-.7.7h-8.4a.7.7 0 01-.7-.7v-5.6a.7.7 0 01.7-.7zm1.4 2.1a.7.7 0 100 1.4h.7a.7.7 0 100-1.4h-.7zm0 2.1a.7.7 0 100 1.4h4.2a.7.7 0 100-1.4h-4.2zm1.75 10.5a.35.35 0 00-.35.35v.7c0 .193.157.35.35.35h2.1a.35.35 0 00.35-.35v-.7a.35.35 0 00-.35-.35h-2.1zM15.5 21.8a.7.7 0 01.7.7v4.2a.7.7 0 11-1.4 0v-4.2a.7.7 0 01.7-.7zm19.6 0a.7.7 0 01.7.7v4.2a.7.7 0 11-1.4 0v-4.2a.7.7 0 01.7-.7zm-22.4-2.1a.7.7 0 01.7.7v8.4a.7.7 0 11-1.4 0v-8.4a.7.7 0 01.7-.7zm25.2 0a.7.7 0 01.7.7v8.4a.7.7 0 11-1.4 0v-8.4a.7.7 0 01.7-.7z" fill="#fff"/></svg>