<svg width="50" height="50" fill="none" xmlns="http://www.w3.org/2000/svg"><path fill-rule="evenodd" clip-rule="evenodd" d="M17.064 25c0-6.609 5.647-12 12.774-12 7.035 0 12.866 5.391 12.774 12 0 6.609-5.739 12-12.774 12-7.035 0-12.774-5.391-12.774-12zm7.96 0c0 2.435 2.222 4.435 4.814 4.435 2.684 0 4.72-2 4.813-4.435 0-2.435-2.129-4.435-4.813-4.435-2.684 0-4.813 2-4.813 4.435zm-7.96 9.677v-18.58H7l5.661 18.58h4.403z" fill="#191A21"/><path fill-rule="evenodd" clip-rule="evenodd" d="M17.064 25c0-6.609 5.647-12 12.774-12 7.035 0 12.866 5.391 12.774 12 0 6.609-5.739 12-12.774 12-7.035 0-12.774-5.391-12.774-12zm7.96 0c0 2.435 2.222 4.435 4.814 4.435 2.684 0 4.72-2 4.813-4.435 0-2.435-2.129-4.435-4.813-4.435-2.684 0-4.813 2-4.813 4.435zm-7.96 9.677v-18.58H7l5.661 18.58h4.403z" fill="#fff"/></svg>