<svg width="50" height="50" fill="none" xmlns="http://www.w3.org/2000/svg"><path d="M35.172 17.04a13.805 13.805 0 011.555 2.57l-11.778 8.68-4.945-3.106v-3.716l4.92 3.08 10.248-7.508zm-20.189 7.89c0-.179 0-.332.025-.51l-2.982-.152c0 .203-.026.432-.026.636a12.88 12.88 0 003.798 9.137l2.116-2.112a9.775 9.775 0 01-2.931-7zm9.942-9.927c.179 0 .331 0 .51.026l.153-2.978c-.204 0-.434-.026-.637-.026a12.92 12.92 0 00-9.152 3.793l2.116 2.112a9.85 9.85 0 017.01-2.927zm-.001 19.852c-.178 0-.33 0-.51-.025l-.152 2.978c.204 0 .433.025.637.025a12.92 12.92 0 009.152-3.792l-2.116-2.112c-1.784 1.832-4.257 2.926-7.01 2.926z" fill="#fff"/><path d="M30.532 16.734l2.524-1.858A12.962 12.962 0 0024.924 12v2.978c2.09.025 4.028.662 5.608 1.756zm7.345 8.196c0-.79-.077-1.553-.204-2.317l-2.779 2.062v.254a9.854 9.854 0 01-3.288 7.356l2.013 2.214a12.884 12.884 0 004.258-9.57zm-12.952 9.925a9.884 9.884 0 01-7.367-3.283l-2.218 2.01a12.872 12.872 0 009.585 4.251v-2.977zm-6.654-17.281l-2.014-2.214A12.833 12.833 0 0012 24.93h2.983a9.895 9.895 0 013.288-7.356z" fill="#fff"/></svg>