<svg width="495" height="116" fill="none" xmlns="http://www.w3.org/2000/svg"><path fill="#000" d="M0 0h495v95H0z"/><g clip-path="url(#clip0)"><path fill-rule="evenodd" clip-rule="evenodd" d="M212.188 95.192H495V0l-65.185 12.49-.087.017-.061.011-.015.003C286.478 39.951 143.095 67.422 0 95.184v.008h212.188z" fill="#191A21"/></g><path d="M51.213 94.213h21.213l-21.213 21.213L30 94.213h21.213z" fill="#191A21"/><path d="M80 28l7.053 10.292 11.968 3.528-7.608 9.888.343 12.472L80 60l-11.756 4.18.343-12.472-7.608-9.888 11.968-3.528L80 28zm85 0l7.053 10.292 11.968 3.528-7.608 9.888.343 12.472L165 60l-11.756 4.18.343-12.472-7.608-9.888 11.968-3.528L165 28zm85 0l7.053 10.292 11.968 3.528-7.608 9.888.343 12.472L250 60l-11.756 4.18.343-12.472-7.608-9.888 11.968-3.528L250 28zm85 0l7.053 10.292 11.968 3.528-7.608 9.888.343 12.472L335 60l-11.756 4.18.343-12.472-7.608-9.888 11.968-3.528L335 28z" fill="#CB010B"/><path d="M420 28l7.053 10.292 11.968 3.528-7.608 9.888.343 12.472L420 60l-11.756 4.18.343-12.472-7.608-9.888 11.968-3.528L420 28z" fill="#fff"/><defs><clipPath id="clip0"><path fill="#fff" d="M0 0h495v95.192H0z"/></clipPath></defs></svg>