<svg width="50" height="51" fill="none" xmlns="http://www.w3.org/2000/svg"><path fill-rule="evenodd" clip-rule="evenodd" d="M31.36 37.406c2.757 0 5.75.949 9.061 3.894.332.295.774-.071.484-.438-3.255-4.125-6.265-4.91-9.267-5.574-3.672-.812-5.561-2.886-6.878-5.163-.262-.453-.38-.373-.403.21-.029.712.02 1.654.18 2.581-.149.007-.298.005-.448.005-5.253 0-9.512-4.274-9.512-9.547 0-5.273 4.259-9.548 9.512-9.548 5.254 0 9.513 4.275 9.513 9.548 0 .375-.018.746-.06 1.11-.695-.126-2.062-.14-3.021-.057-.361.031-.31.2-.038.25 3.145.57 5.305 2.526 5.8 6.075.01.082.117.106.16.036a14.417 14.417 0 002.036-7.414c0-7.977-6.442-14.443-14.39-14.443-7.947 0-14.39 6.466-14.39 14.443 0 7.976 6.443 14.443 14.39 14.443 2.109 0 4.2-.411 7.27-.411zm1.07-5.244c.64.543.835 1.19.496 1.645-.188.25-.493.387-.859.387a1.52 1.52 0 01-.979-.356c-.582-.51-.753-1.338-.373-1.808.148-.184.39-.286.679-.286.352 0 .72.149 1.036.418zm2.954-1.38c.094.633-.105.895-.305.895-.218 0-.492-.256-.816-.762-.319-.5-.435-1.073-.277-1.363.104-.192.323-.275.599-.17.533.202.743 1.022.8 1.4z" fill="#fff"/></svg>