<svg width="51" height="51" fill="none" xmlns="http://www.w3.org/2000/svg"><path fill-rule="evenodd" clip-rule="evenodd" d="M41.25 20.02l-15.5-9.52-15.5 9.52h31zm-15.5-2.597a1.731 1.731 0 10.001-3.463 1.731 1.731 0 00-.001 3.463z" fill="#fff"/><path d="M33.213 20.885h5.74v1.153h-5.74v-1.153zm0 15h5.74v1.154h-5.74v-1.154zm1.148-12.693h3.445v11.539H34.36V23.192zM22.88 20.885h5.74v1.153h-5.74v-1.153zm0 15h5.74v1.154h-5.74v-1.154zm1.148-12.693h3.444v11.539h-3.444V23.192zm-11.482-2.307h5.741v1.153h-5.74v-1.153zm0 15h5.741v1.154h-5.74v-1.154zm1.148-12.693h3.445v11.539h-3.445V23.192z" fill="#fff"/><path d="M10.25 39.346a2.302 2.302 0 012.296-2.307h26.408a2.302 2.302 0 012.296 2.307V40.5h-31v-1.154z" fill="#fff"/></svg>