<svg width="50" height="51" fill="none" xmlns="http://www.w3.org/2000/svg"><path fill-rule="evenodd" clip-rule="evenodd" d="M10 38.386A2.614 2.614 0 0012.614 41h25.272a2.614 2.614 0 002.614-2.614V13.114a2.614 2.614 0 00-2.614-2.614H12.614A2.614 2.614 0 0010 13.114v25.272zm2.79-4.84v-6.351h1.161l.069.011h.056l.068.011h.057l.068.023.17.034.058.022.113.046.057.023.046.023.045.034.057.022.137.103.045.046.046.034.045.045.034.046.046.045.068.091.046.057.034.057.034.046.023.056.035.057.034.069c.195.418.296.91.296 1.457 0 .783-.125 1.381-.376 1.786-.223.365-.508.547-.854.547-.241 0-.467-.107-.671-.285v1.844H12.79zm.99-5.453h.102c.264 0 .47.153.615.444.145.292.216.742.216 1.366 0 .337-.041.603-.136.786-.092.182-.21.273-.342.273-.127 0-.232-.087-.319-.25-.086-.16-.136-.39-.136-.695v-1.924zm23.56-1.121l.086-.087.25 6.67H36.63s-.14-3.966-.15-4.198c-.15.16-1.466 1.553-1.493 1.585v2.613h-1.024V27.19h1.024v2.24c.164-.173 2.353-2.458 2.353-2.458zm-4.909 0l-.005.01-.009.003-.009.014-.014.014-.059.06-.023.022-.027.027-.027.032-.032.032-.032.032-.032.036-.077.077-.082.087-.087.091-.09.096-.096.1-.1.105-.105.104-.104.11-.105.113-.214.223-.105.11-.104.105-.1.104-.096.105-.095.096-.087.09-.082.087-.04.04-.037.042-.037.037-.032.036-.031.032-.028.032-.054.055-.023.023-.036.036-.014.018-.014.01-.009.013v-2.24h-1.03v6.365h1.03v-2.613c.021-.026.862-.916 1.278-1.357l.215-.228.15 4.198h1.043l-.25-6.67-.083.086zm-6.018 4.926l.063.077c.36.437.87.656 1.516.656h.05v1.115h-.05c-.984 0-1.762-.328-2.327-.965-.532-.606-.806-1.411-.806-2.386 0-1.01.25-1.816.742-2.394.542-.642 1.339-.96 2.377-.96h.05v1.11h-.05c-.665 0-1.175.214-1.526.642-.318.392-.482.924-.482 1.593l.01.237.008.114.014.114.019.11.023.109.027.1.027.104.032.096.041.096.041.09.046.092.045.086.055.087.055.077zm-8.172-4.863c-.55 0-.99.312-1.308.922-.31.6-.467 1.4-.467 2.378 0 1.011.148 1.828.444 2.425.3.61.749.922 1.331.922.597 0 1.068-.33 1.4-.968.31-.596.467-1.402.467-2.39 0-.975-.16-1.771-.478-2.368l-.069-.113-.023-.057-.045-.046-.023-.045-.046-.046-.102-.136-.08-.08-.046-.034-.034-.035-.045-.034-.035-.034-.045-.034-.046-.023-.136-.068-.091-.046-.046-.011-.056-.023-.046-.011-.057-.012-.045-.01h-.046l-.114-.023h-.113zm.638 1.65c-.132-.419-.346-.626-.637-.626-.255 0-.449.21-.582.614-.145.423-.216.984-.216 1.662 0 .664.07 1.231.216 1.673.142.423.33.637.58.637h.081l.023-.011h.023l.022-.011.023-.011h.023l.023-.012.012-.011.046-.023.022-.022.023-.012.023-.022.011-.023.023-.011.011-.023.023-.022.023-.023.01-.023.012-.034.023-.023.011-.034.023-.023.012-.034.022-.035.045-.136.023-.046c.141-.437.205-1.009.205-1.696 0-.71-.055-1.261-.182-1.639zm3.65 3.29l-.027-.036-.032-.041-.06-.077-.05-.087-.05-.086-.045-.091-.041-.091-.037-.096-.036-.096-.027-.104-.027-.1-.037-.219-.013-.114-.01-.114-.009-.118v-.119c0-.669.16-1.201.483-1.593.346-.428.856-.642 1.52-.642h.055v-1.11h-.054c-1.034 0-1.835.318-2.372.96-.497.578-.742 1.384-.742 2.394 0 .975.268 1.78.806 2.386.56.638 1.342.965 2.326.965h.05v-1.115h-.05c-.651 0-1.161-.219-1.52-.656zm-9.73-7.721v-6.397h3.812v6.397h-1.175v-5.336h-1.457v5.336H12.8zm7.423-6.564c-.624 0-1.125.314-1.48.934-.35.605-.523 1.407-.523 2.39 0 1.015.163 1.846.5 2.447.342.615.847.922 1.503.922.669 0 1.197-.321 1.57-.968.351-.6.535-1.413.535-2.401 0-.984-.19-1.79-.546-2.39l-.103-.17-.045-.046-.034-.057-.046-.046-.034-.045-.171-.17-.137-.104-.056-.034-.046-.023-.046-.034-.045-.023-.057-.023-.045-.023-.114-.045-.046-.012-.056-.023-.228-.045h-.125l-.057-.011h-.068zm.706 1.696c-.15-.41-.376-.614-.695-.614-.287 0-.498.198-.65.602-.16.419-.24.972-.24 1.65 0 .66.08 1.22.24 1.662l.023.034.022.069.023.034.011.046.012.023.022.034.011.034.023.023.012.023.023.034.023.023.01.023.024.023.023.023.011.023.023.01.023.024.023.01.023.024.068.034.023.01.023.012h.023l.046.023h.102c.292 0 .506-.196.66-.615.16-.428.24-.995.24-1.673 0-.71-.069-1.254-.205-1.628zm7.811-1.529v1.061h.979v5.336h1.179v-5.336h.993v-1.06h-3.151zm-3.223 2.227h.641v-2.227h1.18v6.396h-1.18v-3.09h-.86c-.46 0-.86-.142-1.184-.42a1.355 1.355 0 01-.496-1.06v-1.826h1.179v1.707c0 .146.041.26.132.342.123.119.324.178.588.178zm7.909-2.223l-.217 6.397h1.173s.11-2.989.114-3.13h1.468l.34 3.13h1.185l-.547-4.678v-.17l-.011-.057v-.057l-.011-.046v-.057l-.012-.045-.01-.057-.046-.182-.023-.046-.023-.09-.023-.046-.022-.034-.023-.046-.012-.034-.023-.046-.023-.034-.034-.034-.023-.046-.023-.023-.034-.045-.091-.091-.035-.024-.023-.034-.045-.034c-.296-.232-.697-.342-1.206-.342h-1.74v.001zm1.548 1.058h-.422V19l-.011.023v.33l-.011.046v.455l-.012.034v.182h1.31c-.042-.415-.112-.71-.217-.865-.127-.187-.332-.285-.637-.285z" fill="#fff"/></svg>