<svg width="157" height="156" fill="none" xmlns="http://www.w3.org/2000/svg"><path d="M155.362 86.234l-1.996-.583.618-2.825.315-1.676-6.841-1.381-4.21-.679.524-2.78 3.916.88L157 78.776l-1.382 7.336-.256.121zm-16.758 23.073l-3.651-2.233 1.501-2.302 3.298 2.277 3.278 2.041.955-1.465-.422-.347c-1.531-1.268-2.659-2.302-3.384-3.1-.732-.787-1.181-1.473-1.347-2.059-.154-.579-.075-1.172.238-1.78l.341-.523 2.005.823c-.144.501-.135.97.029 1.407.164.436.518.937 1.063 1.503.556.573 1.411 1.324 2.567 2.252l1.464 1.192.047.005-3.492 5.355-4.49-3.046zm-11.153 23.226c-.877.614-1.701.894-2.472.84-.774-.035-1.409-.404-1.906-1.107-.144-.204-.567-.874-1.268-2.011a36.978 36.978 0 01-.645-1.022c-.21-.345-.399-.636-.567-.874-.136-.193-.261-.309-.374-.349-.105-.028-.232.01-.38.113a2.34 2.34 0 00-.396.379l-.268-.016-.636-1.334c.197-.493.512-.926.948-1.298.366-.205.735-.286 1.107-.241.38.056.742.243 1.087.562l.119-.084c.145-1 .436-1.83.872-2.49.828-.563 1.625-.798 2.388-.705.764.092 1.402.502 1.915 1.227.401.567.571 1.109.51 1.626-.064.536-.352 1.068-.864 1.596l-2.268 2.323.493.697c.521.737 1.146.85 1.876.34.353-.247.673-.589.96-1.027.275-.43.538-.986.787-1.669l.243-.018 1.315 1.318a7.402 7.402 0 01-1.08 1.797 6.96 6.96 0 01-1.496 1.427zm-2.35-5.676c.15-.172.231-.347.242-.525.008-.157-.065-.344-.217-.56-.208-.294-.452-.471-.732-.53-.272-.047-.55.029-.835.229-.445.311-.728.898-.849 1.763l.855 1.282 1.536-1.659zM98.68 143.203c-1.321-.025-2.113-.605-2.375-1.739-.221-.959.003-1.75.674-2.373.671-.623 1.767-1.108 3.288-1.456.72-.164 1.86-.397 3.42-.696l.756 3.922 1.38 5.509-4.236.969c-1.086.248-1.968.236-2.646-.036-.677-.271-1.105-.792-1.283-1.562a2.282 2.282 0 01.108-1.39c.17-.437.475-.82.914-1.148zm3.56 2.322c.299-.068.535-.129.708-.183l-.502-2.36-1.562.293c-.714.377-.994.896-.841 1.558.094.405.31.661.649.769.326.11.842.085 1.548-.077zm-1.959-6.25c-.57.13-.986.339-1.249.627-.259.301-.339.667-.239 1.099.072.311.223.533.454.665.234.145.57.211 1.01.195l1.869-.448-.604-2.337a9.11 9.11 0 00-1.241.199zm-33.208 5.844l.677-4.189 2.774.514-.858 3.902-1.224 7.111 4.766.883 1.384-6.828.678-4.189 2.774.514-.858 3.902L75.58 156l-10.334-1.914 1.827-8.967zm-26.459-2.215c-1.172-.801-1.831-1.756-1.978-2.865-.147-1.109.225-2.309 1.117-3.6.962-1.394 2.032-2.235 3.211-2.522 1.171-.277 2.383.013 3.634.868 1.172.801 1.83 1.756 1.978 2.865.147 1.109-.225 2.309-1.117 3.6-.962 1.394-2.029 2.229-3.2 2.505-1.178.288-2.394.004-3.645-.851zm1.22-1.437c.55.377 1.079.469 1.584.276.493-.201 1.02-.707 1.58-1.518.726-1.052 1.116-1.886 1.171-2.504.055-.619-.204-1.124-.779-1.516-.551-.377-1.07-.471-1.555-.281-.505.193-1.042.701-1.61 1.523-.717 1.04-1.098 1.873-1.142 2.499-.062.63.188 1.137.75 1.521zm-25.397-19.759l1.58-.868 1.03 1.616.4.584 2.949-1.896 3.471-2.5 1.552 2.269-3.388 2.142-3.092 2.168.424.619 1.133 1.547-.073.225-1.557.903-4.49-6.566.06-.243zM3.951 99.632c-.26-1.177-.058-2.172.605-2.984.662-.811 1.729-1.377 3.198-1.698 1.66-.362 3.038-.23 4.132.397 1.077.617 1.78 1.67 2.108 3.159.095.433.155.896.177 1.387l3.682-.867.59 2.681-7.727 1.537-5.362 1.297-.793-2.53 1.393-.282-.032-.143a6.731 6.731 0 01-1.12-.905 6.111 6.111 0 01-.85-1.049zm8.262-.759c-.155-.704-.524-1.184-1.108-1.44-.585-.255-1.367-.276-2.346-.062-.953.207-1.633.519-2.04.934-.425.405-.572.905-.44 1.5.128.583.55 1.108 1.267 1.576l2.372-.496 2.298-.544c.097-.532.096-1.021-.003-1.468zM6.017 68.526l-.956 5.532c1.737.184 2.75-.53 3.04-2.14.153-.845.083-1.83-.21-2.952l.185-.2 1.962.773c.197 1.106.213 2.115.048 3.03-.27 1.5-.922 2.602-1.955 3.305-1.03.689-2.32.895-3.87.619-1.535-.275-2.674-.907-3.415-1.899-.755-.993-1.005-2.2-.749-3.619.22-1.214.724-2.088 1.514-2.623.779-.551 1.765-.72 2.958-.507.315.056.707.161 1.174.315l.274.366zm-2.185 1.638c-.549-.098-.982-.05-1.3.147-.333.195-.542.53-.628 1.008-.096.532.002 1.007.295 1.426.278.415.736.744 1.372.984l.541-3.473-.28-.093zm4.436-27.769c.69-1.074 1.53-1.676 2.52-1.803.998-.139 2.137.198 3.418 1.011 1.409.895 2.266 1.916 2.571 3.064.301 1.128.04 2.335-.786 3.62-.562.876-1.197 1.467-1.906 1.774-.713.287-1.552.305-2.515.055-.968-.27-2.11-.821-3.425-1.657-1.174-.745-2.067-1.452-2.68-2.12-.617-.688-1.002-1.402-1.156-2.14-.165-.747-.128-1.603.111-2.57l.511-1.994c.192-.815.3-1.601.324-2.36l.258-.131 1.935 1.08c-.073.629-.238 1.363-.495 2.202L6.37 42.3c-.174.58-.15 1.097.072 1.55.229.442.678.875 1.347 1.3l.476.302.114-.1c-.33-1.082-.368-2.067-.111-2.956zm6.286 4.732c.352-.549.425-1.062.218-1.538-.21-.496-.715-.997-1.514-1.504-.834-.53-1.527-.79-2.08-.778-.564.003-1.018.274-1.363.811a1.993 1.993 0 00-.31.987c-.025.346.026.757.152 1.231.994.615 1.8 1.045 2.42 1.29.62.245 1.121.326 1.506.241.385-.084.708-.33.97-.74zm13.942-26.801c2.4.87 5.047 1.694 7.937 2.468l.142.281a22.324 22.324 0 01-2.009 1.94l-.37.05a110.103 110.103 0 01-7.955-3.01l1.472 2.223 2.487 3.446-2.331 1.58-2.139-3.38-5.44-7.684 2.366-1.604 3.432 5.196.337-6.191-.09-1.499 2.52-1.709-.36 7.893zM54.21 3.254c1.19-.225 2.185.003 2.982.684.796.682 1.335 1.758 1.616 3.229.318 1.661.146 3.027-.514 4.097-.65 1.054-1.727 1.724-3.233 2.008a8.338 8.338 0 01-1.399.138l.768 3.685-2.71.513-1.328-7.728-1.153-5.368 2.564-.718.245 1.392.144-.027c.313-.44.626-.802.94-1.088a6.186 6.186 0 011.078-.817zm.532 8.237c.712-.134 1.204-.488 1.478-1.062.273-.574.316-1.35.128-2.331-.182-.953-.476-1.638-.882-2.056-.394-.433-.893-.592-1.495-.478-.589.11-1.128.516-1.618 1.216l.432 2.373.482 2.3c.532.111 1.023.124 1.475.038zm30.889-5.416l-5.535-1.092c-.228 1.722.463 2.748 2.073 3.078.846.173 1.837.129 2.972-.134l.196.189-.827 1.932c-1.116.168-2.13.158-3.045-.03-1.501-.307-2.591-.983-3.271-2.028-.666-1.043-.84-2.33-.523-3.865.314-1.52.98-2.636 1.995-3.348C80.683.05 81.902-.166 83.32.125c1.215.249 2.08.773 2.598 1.572.534.789.678 1.774.434 2.955-.065.312-.18.699-.347 1.16l-.375.263zm-1.59-2.215c.113-.543.075-.976-.115-1.298-.187-.335-.519-.552-.996-.65-.533-.108-1.013-.023-1.44.257-.425.267-.767.714-1.024 1.34l3.476.627.1-.276zm27.572 13.847l-2.472 3.608-1.55-.874 1.159-2.284-5.215-3.536-1.613 1.8-1.55-.874 2.554-3.729.604.41c.487.028.938-.052 1.353-.24.424-.2.897-.558 1.42-1.075.534-.51 1.253-1.289 2.157-2.337l1.243-1.446 5.285 3.582-3.152 4.38-1.242 1.925 1.019.69zm-1.967-3.774l2.137-3.23-1.486-1.007-.357.412c-1.009 1.177-1.839 2.032-2.49 2.563-.651.532-1.267.853-1.847.962l2.849 1.932 1.194-1.631zm18.855 13.282l4.666-3.16 1.598 2.24-5.118 3.153.091.14 6.75-.514 1.493 2.307-4.596 2.77-3.576 2.462-1.493-2.308 3.284-1.954 1.933-1.238-.079-.122-6.947.517-1.459-2.256 3.453-2.037zm21.491 29.73l-1.797.173-.3-1.89-.133-.695-3.464.575-4.184.924-.519-2.696 3.965-.627 3.703-.769-.141-.735-.423-1.867.157-.178 1.789-.214 1.5 7.8-.153.2z" fill="#fff"/></svg>