<svg width="1920" height="375" fill="none" xmlns="http://www.w3.org/2000/svg"><path d="M114.315 103.063l1.383 47.621H78.361l1.844-43.94-.23-16.334h-2.536c-7.836 7.822-17.285 13.574-28.348 17.254-15.98 0-27.964-3.68-35.954-11.042C5.301 89.107 1.306 77.68 1.152 62.344L0 2.301h38.028l-.46 50.381c-.154 7.362 1.305 13.113 4.378 17.254 3.227 3.987 7.683 5.981 13.368 5.981 7.221 0 15.288-3.374 24.2-10.122L78.36 2.3h38.029l-2.075 100.762zM247.204 5.061l-2.075 27.376-29.04-1.38h-6.453l-1.152 72.006 1.383 47.621H172.53l2.074-43.94-1.152-75.687h-6.915l-29.27 1.38-2.305-2.76L137.267 2.3h107.862l2.075 2.76zM323.669 0c21.203 0 37.567 6.365 49.091 19.094 11.523 12.576 17.285 30.52 17.285 53.833 0 25.459-6.299 45.243-18.899 59.353-12.599 13.957-30.345 20.935-53.239 20.935-21.05 0-37.337-6.442-48.861-19.325-11.523-13.036-17.285-31.44-17.285-55.212 0-25.152 6.223-44.554 18.668-58.203C283.028 6.825 300.775 0 323.669 0zm-3.227 29.907c-7.221 0-12.983 1.457-17.286 4.37-4.302 2.761-7.451 7.362-9.449 13.804-1.997 6.288-2.996 14.877-2.996 25.766 0 13.036.999 23.312 2.996 30.827 1.998 7.361 5.147 12.653 9.449 15.873 4.456 3.221 10.449 4.831 17.977 4.831 7.376 0 13.214-1.38 17.517-4.14 4.302-2.914 7.375-7.592 9.219-14.034 1.997-6.441 2.996-15.26 2.996-26.456 0-12.883-.999-23.005-2.996-30.367-1.998-7.361-5.148-12.576-9.45-15.643-4.302-3.22-10.294-4.831-17.977-4.831zM537.794 5.061l-2.536 27.146-32.727-.92h-15.903l-1.382 71.776 1.382 47.621h-37.336l1.843-43.94-1.843-104.443h86.427l2.075 2.76zM607.262 0c21.203 0 37.567 6.365 49.091 19.094 11.524 12.576 17.285 30.52 17.285 53.833 0 25.459-6.299 45.243-18.898 59.353-12.6 13.957-30.346 20.935-53.24 20.935-21.05 0-37.337-6.442-48.861-19.325-11.523-13.036-17.285-31.44-17.285-55.212 0-25.152 6.223-44.554 18.668-58.203C566.622 6.825 584.368 0 607.262 0zm-3.227 29.907c-7.221 0-12.983 1.457-17.285 4.37-4.303 2.761-7.452 7.362-9.45 13.804-1.997 6.288-2.996 14.877-2.996 25.766 0 13.036.999 23.312 2.996 30.827 1.998 7.361 5.147 12.653 9.45 15.873 4.455 3.221 10.448 4.831 17.977 4.831 7.375 0 13.213-1.38 17.516-4.14 4.302-2.914 7.375-7.592 9.219-14.034 1.997-6.441 2.996-15.26 2.996-26.456 0-12.883-.999-23.005-2.996-30.367-1.998-7.361-5.148-12.576-9.45-15.643-4.302-3.22-10.294-4.831-17.977-4.831zm179.86 44.17c9.987 2.454 17.286 6.518 21.895 12.193 4.61 5.52 6.914 12.883 6.914 22.085 0 14.876-5.992 25.919-17.977 33.127-11.831 7.055-29.5 10.583-53.009 10.583-15.365 0-30.038-.461-44.02-1.381h-.231l2.075-43.94-2.075-104.443 58.541-.23c15.826 0 28.194 3.22 37.106 9.662 8.912 6.441 13.368 15.72 13.368 27.836 0 7.822-1.998 14.723-5.993 20.705-3.841 5.828-9.372 10.429-16.594 13.803zM768.453 44.63c0-6.288-1.997-10.659-5.992-13.113-3.841-2.454-10.832-3.68-20.973-3.68h-7.375l-.922 36.118 19.821.92c5.224-1.534 9.065-3.911 11.523-7.132 2.612-3.22 3.918-7.592 3.918-13.113zm-19.82 81.669c8.297 0 14.75-1.687 19.359-5.061 4.61-3.375 6.915-8.206 6.915-14.494 0-4.754-1.46-8.512-4.379-11.272-2.92-2.914-7.452-5.061-13.598-6.442l-24.2.46-.231 13.573.692 22.315c7.99.614 13.137.921 15.442.921zM900.683 0c21.203 0 37.567 6.365 49.091 19.094 11.523 12.576 17.285 30.52 17.285 53.833 0 25.459-6.299 45.243-18.899 59.353-12.599 13.957-30.345 20.935-53.239 20.935-21.05 0-37.337-6.442-48.861-19.325-11.524-13.036-17.285-31.44-17.285-55.212 0-25.152 6.222-44.554 18.668-58.203C860.042 6.825 877.789 0 900.683 0zm-3.227 29.907c-7.222 0-12.984 1.457-17.286 4.37-4.302 2.761-7.452 7.362-9.449 13.804-1.998 6.288-2.996 14.877-2.996 25.766 0 13.036.998 23.312 2.996 30.827 1.997 7.361 5.147 12.653 9.449 15.873 4.456 3.221 10.449 4.831 17.977 4.831 7.376 0 13.214-1.38 17.516-4.14 4.303-2.914 7.376-7.592 9.219-14.034 1.998-6.441 2.996-15.26 2.996-26.456 0-12.883-.998-23.005-2.996-30.367-1.997-7.361-5.147-12.576-9.449-15.643-4.302-3.22-10.295-4.831-17.977-4.831zM1053.58 2.07c15.98 0 28.27 3.988 36.87 11.963 8.76 7.975 13.14 19.325 13.14 34.048 0 11.502-2.61 21.625-7.84 30.367-5.22 8.588-12.6 15.26-22.12 20.014-9.53 4.755-20.59 7.132-33.19 7.132h-13.37l1.39 45.09h-37.572l2.074-43.94-2.074-104.443 62.692-.23zm-6.46 76.608c5.84-1.994 10.14-5.138 12.91-9.432 2.92-4.448 4.38-10.276 4.38-17.484 0-7.669-1.92-13.343-5.76-17.024-3.69-3.68-9.53-5.675-17.52-5.982l-12.44.69-1.16 48.312 19.59.92zM1230 106.744l1.84 43.94h-37.56l1.61-47.621h-19.59c-4.92 10.583-12.91 26.303-23.97 47.161l-3.69 2.991c-14.13-.92-26.5-3.298-37.1-7.132l-.47-4.141c12.3-14.876 24.44-30.903 36.42-48.08-9.07-4.755-15.98-10.66-20.74-17.715-4.77-7.208-7.15-15.413-7.15-24.615 0-9.662 2.38-18.251 7.15-25.766 4.91-7.515 11.75-13.343 20.51-17.484 8.76-4.294 18.67-6.442 29.73-6.442l54.85.46-1.84 104.444zm-34.8-31.977l-.92-45.32-14.06-.69c-14.29.46-21.44 7.898-21.44 22.315 0 6.441 1.39 11.656 4.15 15.643 2.92 3.834 7.61 6.902 14.06 9.202l18.21-1.15zm167.69-69.706l-2.07 27.376-29.04-1.38h-6.45l-1.16 72.006 1.39 47.621h-37.34l2.07-43.94-1.15-75.687h-6.91l-29.27 1.38-2.31-2.76 2.31-27.376h107.86l2.07 2.76zM303.345 323.113l1.383 47.621h-37.337l1.844-43.94-.23-14.953-29.962-.23-26.505.69-.23 10.812 1.383 47.621h-37.337l1.844-43.94-1.844-104.444h37.798l-1.153 59.124 28.349.46 27.196-.46-1.153-59.124h38.029l-2.075 100.763zm157.947 47.621h-38.028l-3.918-21.395-2.074-8.512-26.735-.46-23.048.69-1.844 5.982-4.148 23.695h-36.646L372.79 222.35h44.943l43.559 148.384zm-51.165-57.973l-14.52-56.363h-2.305l-17.285 56.363 17.055.46 17.055-.46zm254.804 10.352l1.383 47.621H481.473l1.844-43.94-1.844-104.444h38.028l-2.074 100.763.692 17.254h38.489l.461-13.573-1.844-104.444h38.028l-1.844 100.763.461 17.254h38.49l.46-13.573-1.843-104.444h38.028l-2.074 100.763zm38.132 3.681l-1.843-103.523 38.028-1.841-2.535 93.171h2.304l52.779-92.251h39.872l-2.074 100.763 1.383 47.621H793.64l1.844-43.94v-48.541h-2.305l-53.009 92.481h-38.95l1.843-43.94zm268.741-34.508c15.672 23.159 33.416 46.701 53.236 70.626l-.46 4.141a272.245 272.245 0 01-36.874 6.212l-4.379-2.301c-18.899-27.606-34.648-52.068-47.247-73.386l-.461 25.535 1.383 47.621h-37.337l1.844-43.94-1.844-104.444h37.798l-1.153 66.255 36.185-51.301 8.297-14.954h39.868l-48.856 69.936zm184.206 30.827l1.38 47.621h-37.57l1.85-43.94-1.39-76.607h-22.81l-1.16 8.282c-3.53 30.213-7.37 53.448-11.52 69.705-3.99 16.104-9.07 27.607-15.21 34.508-6.15 6.902-14.29 10.736-24.43 11.503l-9.45.23-6.22-30.597c7.37-1.687 13.13-5.291 17.28-10.812 4.15-5.675 7.53-14.647 10.14-26.917 2.77-12.422 5.38-30.52 7.84-54.292l3.23-29.447h89.88l-1.84 100.763zm38.01 3.681l-1.84-103.523 38.03-1.841-2.54 93.171h2.31l52.78-92.251h39.87l-2.08 100.763 1.39 47.621h-37.34l1.84-43.94v-48.541h-2.3l-53.01 92.481h-38.95l1.84-43.94zm261.18 13.573l2.07 2.761-2.3 27.606h-98.19l2.08-43.94-2.08-104.444h99.57l2.07 2.761-2.53 27.606-36.19-1.38-25.35.23-.46 29.677h24.2l24.2-.69 2.07 2.76-2.3 27.607-26.51-.691h-22.35l-.23 12.883.46 18.404 24.43.231 37.34-1.381zm156.5-17.254l1.38 47.621h-37.34l1.85-43.94-.23-14.953-29.97-.23-26.5.69-.23 10.812 1.38 47.621h-37.33l1.84-43.94-1.84-104.444h37.79l-1.15 59.124 28.35.46 27.2-.46-1.16-59.124h38.03l-2.07 100.763zm132.84-98.002l-2.07 27.376-29.04-1.38h-6.45l-1.16 72.006 1.39 47.621h-37.34l2.07-43.94-1.15-75.687h-6.91l-29.27 1.38-2.31-2.76 2.31-27.377h107.86l2.07 2.761zm78.43 51.992c14.29 0 25.2 3.527 32.73 10.582 7.53 6.902 11.29 17.024 11.29 30.367 0 16.411-5.53 29.293-16.59 38.649-11.07 9.355-26.51 14.033-46.33 14.033h-44.94l2.07-43.71-2.07-104.904h37.8l-.93 54.983h26.97zm94.96 46.01l1.38 47.621h-37.57l2.08-43.94-2.08-104.444H1920l-2.07 100.763zm-105.1 22.085c4.92-1.38 8.68-3.987 11.29-7.821 2.77-3.988 4.15-8.819 4.15-14.494 0-6.288-1.61-11.196-4.84-14.723-3.07-3.528-7.37-5.215-12.91-5.061l-14.98.46-.46 19.784.69 20.705 17.06 1.15z" fill="#fff"/></svg>