<svg width="112" height="32" fill="none" xmlns="http://www.w3.org/2000/svg"><path d="M20.02 16.223c-.067-4.78 3.09-6.125 3.09-6.125L21.9 8.75c-.201-.134-.873-.673-1.88-1.076-.202-.068-.94-.337-2.015-.472-.873-.067-1.545 0-1.679.068-.537.067-.873.202-1.478.404-1.208.403-1.276.605-1.947.74a5.317 5.317 0 01-1.813 0c-1.008-.202-1.142-.471-2.284-.808a6.727 6.727 0 00-1.947-.269 5.362 5.362 0 00-2.687.74c-.268.135-1.41.74-2.35 1.952a7.681 7.681 0 00-1.612 3.635c-.269 1.346-.202 2.356-.202 3.5.068.74.202 2.423.874 4.442.738 2.289 1.746 3.837 1.947 4.173.605.943 1.142 1.481 2.15 2.558.67.74 1.007 1.01 1.544 1.212.873.336 1.679.201 1.88.201.135 0 .269-.067 1.41-.538 1.344-.538 1.545-.606 1.881-.673.672-.067 1.142 0 1.41 0 .538.067.94.202 1.344.337.94.336 1.007.538 1.678.673.74.201 1.344.134 1.545.067.269-.067.806-.135 1.41-.471.538-.27.806-.673 1.008-.875.94-1.077 1.41-1.683 2.082-2.693.403-.605 1.746-3.769 1.746-3.769s-3.828-1.683-3.895-5.586zM16.462 4.51C18.208 2.424 17.805 0 17.805 0s-2.417-.134-4.298 2.154c-2.083 2.491-1.68 4.646-1.68 4.646s2.35.336 4.634-2.289zm21.376 5.41c-.572 0-1.067-.084-1.485-.253-.41-.176-.73-.41-.957-.704a1.894 1.894 0 01-.396-.99v-.022c0-.059.022-.106.066-.143a.249.249 0 01.165-.055h.506c.08 0 .147.018.198.055.051.03.092.092.121.187.088.315.282.565.583.748.308.183.704.275 1.188.275.528 0 .972-.125 1.331-.374.367-.257.55-.594.55-1.012 0-.433-.158-.77-.473-1.012-.315-.242-.744-.363-1.287-.363h-.792a.238.238 0 01-.176-.066.293.293 0 01-.066-.198v-.352c0-.08.022-.143.066-.187a.22.22 0 01.176-.077h.748c.477 0 .854-.103 1.133-.308.279-.213.418-.532.418-.957 0-.36-.154-.649-.462-.869-.308-.227-.686-.341-1.133-.341-.47 0-.854.084-1.155.253a1.12 1.12 0 00-.561.792c-.037.147-.125.22-.264.22h-.539a.263.263 0 01-.176-.066.18.18 0 01-.066-.165 1.928 1.928 0 01.792-1.408c.477-.352 1.137-.528 1.98-.528.557 0 1.034.095 1.43.286.396.19.693.444.891.759.205.315.308.653.308 1.012 0 .36-.07.69-.209.99-.14.293-.363.532-.671.715.381.19.667.451.858.781.19.323.286.693.286 1.111 0 .447-.121.843-.363 1.188-.235.337-.576.601-1.023.792-.44.19-.953.286-1.54.286zm5.942 0c-.36 0-.693-.073-1.001-.22a1.935 1.935 0 01-.726-.594 1.466 1.466 0 01-.264-.847c0-.484.198-.88.594-1.188.396-.308.935-.513 1.617-.616l1.65-.231v-.319c0-.755-.436-1.133-1.31-1.133-.337 0-.608.07-.813.209-.206.132-.356.29-.451.473a.371.371 0 01-.1.154c-.029.022-.072.033-.131.033h-.43a.263.263 0 01-.175-.066.263.263 0 01-.066-.176c0-.169.077-.363.23-.583.162-.227.408-.422.738-.583.33-.169.733-.253 1.21-.253.821 0 1.408.19 1.76.572.36.381.539.858.539 1.43v3.575a.255.255 0 01-.077.187.238.238 0 01-.176.066h-.484a.238.238 0 01-.176-.066.278.278 0 01-.066-.187v-.484a1.857 1.857 0 01-.704.605c-.308.161-.704.242-1.188.242zm.22-.803c.484 0 .88-.158 1.188-.473.308-.315.462-.774.462-1.375v-.308l-1.287.187c-.528.073-.928.198-1.2.374-.27.176-.406.396-.406.66 0 .3.12.532.363.693.25.161.543.242.88.242zm4.497.693a.277.277 0 01-.187-.066.278.278 0 01-.066-.187V4.343c0-.073.022-.132.066-.176a.254.254 0 01.187-.077h3.267a.22.22 0 01.176.077.238.238 0 01.066.176v.352a.238.238 0 01-.066.176.238.238 0 01-.176.066h-2.53v4.62a.255.255 0 01-.077.187.238.238 0 01-.176.066h-.484zm4.727 2.09a.277.277 0 01-.188-.066c-.044-.044-.066-.106-.066-.187V4.343c0-.08.023-.143.066-.187a.277.277 0 01.188-.066h.462c.08 0 .142.022.187.066.044.044.066.106.066.187v.484c.425-.565 1.03-.847 1.815-.847.77 0 1.345.246 1.727.737.388.484.593 1.104.615 1.859.008.08.012.205.012.374s-.004.293-.011.374c-.023.748-.228 1.368-.617 1.859-.38.491-.956.737-1.726.737-.785 0-1.38-.279-1.782-.836v2.563a.22.22 0 01-.078.176.22.22 0 01-.175.077h-.495zm2.32-2.838c.529 0 .914-.165 1.156-.495.241-.33.373-.763.395-1.298a3.23 3.23 0 00.011-.319c0-1.408-.52-2.112-1.562-2.112-.513 0-.901.172-1.165.517a2.034 2.034 0 00-.407 1.199c-.008.08-.011.224-.011.429s.003.348.01.429c.015.447.155.836.419 1.166.27.323.656.484 1.154.484zm8.385-4.972c.058 0 .11.022.154.066a.198.198 0 01.077.154c0 .03-.022.095-.066.198l-2.09 4.95-.1.231c-.197.47-.377.85-.538 1.144a2.483 2.483 0 01-.594.748 1.203 1.203 0 01-.836.319h-.418a.255.255 0 01-.187-.077.238.238 0 01-.066-.176v-.341c0-.073.022-.136.066-.187a.277.277 0 01.187-.066h.286a.72.72 0 00.396-.099.86.86 0 00.275-.319 6.11 6.11 0 00.33-.682l.187-.451-2.145-4.994a.706.706 0 01-.055-.187.224.224 0 01.23-.231h.485c.117 0 .205.059.264.176l1.716 4.07 1.705-4.07a.276.276 0 01.275-.176h.462zm3.321 5.83c-.528 0-.968-.084-1.32-.253-.345-.169-.598-.374-.76-.616a1.412 1.412 0 01-.241-.715.19.19 0 01.066-.154.224.224 0 01.165-.066h.473c.073 0 .128.018.165.055a.33.33 0 01.11.165.91.91 0 00.473.594c.242.117.56.176.957.176.381 0 .693-.077.935-.231a.787.787 0 00.374-.704c0-.616-.356-.924-1.067-.924h-.605a.238.238 0 01-.176-.066.238.238 0 01-.066-.176V6.73c0-.073.022-.132.066-.176a.238.238 0 01.176-.066h.539c.63 0 .946-.253.946-.759a.846.846 0 00-.297-.66c-.19-.183-.495-.275-.913-.275-.41 0-.708.07-.891.209-.184.132-.316.352-.396.66-.037.14-.129.209-.275.209h-.462a.233.233 0 01-.154-.055.211.211 0 01-.066-.154 1.52 1.52 0 01.264-.836c.168-.257.418-.462.748-.616.337-.154.748-.231 1.232-.231.506 0 .92.08 1.243.242.33.161.568.363.715.605.146.242.22.495.22.759 0 .3-.052.543-.154.726-.096.183-.268.337-.517.462.315.125.539.312.67.561.14.242.21.543.21.902 0 .543-.22.96-.66 1.254-.44.286-1.016.429-1.727.429zm8.456-5.83a.25.25 0 01.165.066.198.198 0 01.077.154v5.247a.255.255 0 01-.077.187.238.238 0 01-.176.066h-.484a.278.278 0 01-.187-.066.278.278 0 01-.066-.187V5.531l-3.08 4.114c-.08.11-.176.165-.286.165h-.473a.25.25 0 01-.165-.066.25.25 0 01-.066-.165V4.343c0-.073.022-.132.066-.176a.255.255 0 01.187-.077h.484a.22.22 0 01.176.077.22.22 0 01.077.176v4.026l3.08-4.114c.08-.11.176-.165.286-.165h.462zm3.613 5.72a.278.278 0 01-.187-.066.278.278 0 01-.066-.187v-4.62H77.14a.278.278 0 01-.187-.066.238.238 0 01-.066-.176v-.352c0-.073.022-.132.066-.176a.255.255 0 01.187-.077h4.829a.22.22 0 01.176.077.238.238 0 01.066.176v.352a.238.238 0 01-.066.176.238.238 0 01-.176.066h-1.925v4.62a.254.254 0 01-.077.187.238.238 0 01-.176.066h-.473zm6.135.11c-.748 0-1.346-.231-1.793-.693-.447-.47-.693-1.107-.737-1.914l-.011-.374.011-.363c.044-.792.29-1.423.737-1.892.447-.47 1.045-.704 1.793-.704.807 0 1.43.257 1.87.77.447.513.671 1.21.671 2.09v.198a.255.255 0 01-.077.187.238.238 0 01-.176.066h-3.817v.099c.022.477.169.884.44 1.221.271.337.63.506 1.078.506.345 0 .623-.066.836-.198.22-.14.385-.282.495-.429.066-.088.117-.14.154-.154a.386.386 0 01.187-.033h.484c.066 0 .121.018.165.055a.168.168 0 01.077.143c0 .161-.099.356-.297.583-.198.227-.48.425-.847.594-.36.161-.774.242-1.243.242zm1.54-3.377V6.51c0-.513-.14-.931-.418-1.254-.279-.323-.653-.484-1.122-.484-.477 0-.85.161-1.122.484-.271.323-.407.74-.407 1.254v.033h3.069zm5.299 3.267a.277.277 0 01-.187-.066.278.278 0 01-.066-.187V4.343c0-.073.022-.132.066-.176a.254.254 0 01.187-.077h2.277c.66 0 1.166.14 1.518.418.359.271.539.642.539 1.111 0 .315-.06.561-.176.737-.118.176-.301.326-.55.451.264.11.469.293.616.55.154.257.23.535.23.836 0 .52-.183.92-.55 1.199-.366.279-.883.418-1.55.418h-2.354zm2.2-3.278c.359 0 .645-.077.858-.231a.795.795 0 00.319-.671c0-.506-.393-.759-1.177-.759h-1.485v1.661h1.485zm.066 2.497c.366 0 .656-.07.869-.209a.72.72 0 00.33-.638c0-.293-.1-.51-.297-.649-.198-.14-.5-.209-.902-.209h-1.551v1.705h1.55zM44.384 24.835H38.06l-1.309 2.975H35l5.389-11.9h1.683l5.406 11.9h-1.785l-1.309-2.975zm-.595-1.36l-2.567-5.831-2.567 5.83h5.134zm9.003-4.76c.873 0 1.655.193 2.346.578a4.1 4.1 0 011.615 1.615c.397.691.595 1.49.595 2.397 0 .907-.198 1.711-.595 2.414a4.1 4.1 0 01-1.615 1.615c-.691.385-1.473.578-2.346.578a4.232 4.232 0 01-1.785-.374 3.713 3.713 0 01-1.36-1.088v4.658h-1.632V18.8h1.564v1.428a3.398 3.398 0 011.377-1.122 4.268 4.268 0 011.836-.391zm-.136 7.769c.578 0 1.094-.13 1.547-.391a2.877 2.877 0 001.088-1.122c.272-.487.408-1.043.408-1.666s-.136-1.173-.408-1.65a2.734 2.734 0 00-1.088-1.121 3.048 3.048 0 00-1.547-.391c-.566 0-1.082.136-1.547.408a2.91 2.91 0 00-1.088 1.105c-.26.476-.39 1.026-.39 1.649s.13 1.179.39 1.666c.26.476.623.85 1.088 1.122.465.26.98.39 1.547.39zm10.724-7.769c.873 0 1.655.193 2.346.578a4.1 4.1 0 011.615 1.615c.397.691.595 1.49.595 2.397 0 .907-.198 1.711-.595 2.414a4.1 4.1 0 01-1.615 1.615c-.691.385-1.473.578-2.346.578a4.232 4.232 0 01-1.785-.374 3.713 3.713 0 01-1.36-1.088v4.658h-1.632V18.8h1.564v1.428a3.398 3.398 0 011.377-1.122 4.268 4.268 0 011.836-.391zm-.136 7.769c.578 0 1.094-.13 1.547-.391a2.877 2.877 0 001.088-1.122c.272-.487.408-1.043.408-1.666s-.136-1.173-.408-1.65a2.734 2.734 0 00-1.088-1.121 3.048 3.048 0 00-1.547-.391c-.567 0-1.082.136-1.547.408a2.91 2.91 0 00-1.088 1.105c-.26.476-.39 1.026-.39 1.649s.13 1.179.39 1.666c.26.476.623.85 1.088 1.122.465.26.98.39 1.547.39zm13.218 1.462a8.378 8.378 0 01-2.6-.408c-.828-.283-1.48-.646-1.956-1.088l.63-1.326c.453.408 1.03.742 1.733 1.003a6.59 6.59 0 002.193.374c.986 0 1.723-.164 2.21-.493.488-.34.731-.788.731-1.343 0-.408-.136-.737-.408-.986-.26-.26-.589-.46-.986-.595a17.284 17.284 0 00-1.649-.46c-.895-.214-1.62-.43-2.176-.645a3.706 3.706 0 01-1.41-.986c-.386-.453-.579-1.06-.579-1.82 0-.634.165-1.206.493-1.716.34-.51.85-.918 1.53-1.224.68-.306 1.525-.46 2.533-.46.703 0 1.394.092 2.074.273.68.181 1.264.442 1.751.782l-.56 1.36a5.95 5.95 0 00-1.599-.714 5.78 5.78 0 00-1.666-.255c-.963 0-1.688.176-2.176.527-.476.351-.714.805-.714 1.36 0 .408.136.742.408 1.003.272.25.607.448 1.003.595.408.136.958.283 1.65.442.895.215 1.614.43 2.158.646a3.565 3.565 0 011.394.986c.397.442.595 1.037.595 1.785a3.08 3.08 0 01-.51 1.717c-.34.51-.855.918-1.547 1.224-.691.295-1.54.442-2.55.442zm10.919-.663a2.536 2.536 0 01-.884.476 3.883 3.883 0 01-1.088.153c-.907 0-1.61-.244-2.108-.731-.499-.487-.748-1.184-.748-2.091v-4.947h-1.53V18.8h1.53v-1.972h1.632V18.8h2.584v1.343h-2.584v4.879c0 .487.119.861.357 1.122.25.26.6.39 1.054.39.499 0 .924-.14 1.275-.424l.51 1.173zm4.533.629c-.895 0-1.7-.198-2.414-.595a4.394 4.394 0 01-1.683-1.632c-.396-.703-.595-1.496-.595-2.38 0-.884.199-1.672.595-2.363A4.24 4.24 0 0189.5 19.31c.714-.397 1.519-.595 2.414-.595.895 0 1.695.198 2.397.595.714.385 1.27.93 1.666 1.632.408.691.612 1.479.612 2.363 0 .884-.204 1.677-.612 2.38a4.272 4.272 0 01-1.666 1.632c-.703.397-1.502.595-2.397.595zm0-1.428c.578 0 1.094-.13 1.547-.391a2.877 2.877 0 001.088-1.122c.26-.487.391-1.043.391-1.666s-.13-1.173-.39-1.65a2.733 2.733 0 00-1.089-1.121 3.048 3.048 0 00-1.547-.391c-.578 0-1.1.13-1.564.39a2.897 2.897 0 00-1.088 1.123c-.26.476-.39 1.026-.39 1.649s.13 1.179.39 1.666c.272.476.635.85 1.088 1.122.465.26.986.39 1.564.39zm7.496-6.171a2.786 2.786 0 011.258-1.19c.556-.272 1.23-.408 2.023-.408v1.58a3.182 3.182 0 00-.374-.016c-.884 0-1.581.266-2.091.799-.498.521-.748 1.27-.748 2.244v4.488h-1.632V18.8h1.564v1.513zm12.353 3.043c0 .125-.012.289-.034.493h-7.31c.102.793.447 1.434 1.037 1.92.6.477 1.343.715 2.227.715 1.076 0 1.943-.363 2.601-1.088l.901 1.054a3.934 3.934 0 01-1.53 1.088c-.601.25-1.275.374-2.023.374-.952 0-1.797-.193-2.533-.578a4.294 4.294 0 01-1.717-1.65c-.397-.702-.595-1.495-.595-2.38 0-.872.192-1.66.578-2.362a4.214 4.214 0 011.615-1.632c.691-.397 1.467-.595 2.329-.595.861 0 1.626.198 2.295.595a3.99 3.99 0 011.581 1.632c.385.703.578 1.507.578 2.414zm-4.454-3.264c-.782 0-1.44.238-1.972.714-.522.476-.828 1.1-.918 1.87h5.78c-.091-.76-.403-1.377-.935-1.853-.522-.487-1.173-.731-1.955-.731z" fill="#0D0E13"/></svg>