<svg width="420" height="204" fill="none" xmlns="http://www.w3.org/2000/svg"><path d="M16.724 24.088c6.716 0 11.8 1.414 15.253 4.24 3.452 2.765 5.178 6.848 5.178 12.25 0 4.524-1.161 8.45-3.484 11.78-2.322 3.266-5.68 5.779-10.074 7.538-4.394 1.759-9.572 2.638-15.535 2.638h-22.408l1.036-17.81-1.036-43.157h48.017l.942 1.32-1.13 13.757-15.723-.565H4.39l-.188 8.01h12.522zm-4.802 25.914c1.758-.566 3.076-1.445 3.955-2.639.941-1.193 1.412-2.638 1.412-4.334 0-2.01-.596-3.55-1.789-4.618-1.193-1.068-2.887-1.57-5.084-1.507l-6.497.188-.188 5.748.283 6.596 7.908.566z" fill="#000"/><path d="M16.724 24.088c6.716 0 11.8 1.414 15.253 4.24 3.452 2.765 5.178 6.848 5.178 12.25 0 4.524-1.161 8.45-3.484 11.78-2.322 3.266-5.68 5.779-10.074 7.538-4.394 1.759-9.572 2.638-15.535 2.638h-22.408l1.036-17.81-1.036-43.157h48.017l.942 1.32-1.13 13.757-15.723-.565H4.39l-.188 8.01h12.522zm-4.802 25.914c1.758-.566 3.076-1.445 3.955-2.639.941-1.193 1.412-2.638 1.412-4.334 0-2.01-.596-3.55-1.789-4.618-1.193-1.068-2.887-1.57-5.084-1.507l-6.497.188-.188 5.748.283 6.596 7.908.566z" fill="#fff"/><path d="M72.096 22.77c6.088 0 10.702 1.475 13.84 4.428 3.201 2.89 4.802 7.099 4.802 12.627 0 4.648-1.098 8.669-3.295 12.061-2.134 3.392-5.273 6.031-9.415 7.916-4.08 1.821-8.913 2.732-14.5 2.732H42.815l1.036-17.81-1.036-43.25h19.113l-.565 21.295h10.733zm41.521 19.976l.753 19.788H95.446l.941-17.904-.941-43.063h19.207l-1.036 41.179zm-46.323 6.973c1.13-.565 2.04-1.508 2.73-2.827.754-1.32 1.13-2.827 1.13-4.523 0-2.01-.502-3.612-1.506-4.806-1.004-1.256-2.322-1.853-3.954-1.79l-4.614.188-.188 6.88.282 6.407 6.12.47z" fill="#000"/><path d="M72.096 22.77c6.088 0 10.702 1.475 13.84 4.428 3.201 2.89 4.802 7.099 4.802 12.627 0 4.648-1.098 8.669-3.295 12.061-2.134 3.392-5.273 6.031-9.415 7.916-4.08 1.821-8.913 2.732-14.5 2.732H42.815l1.036-17.81-1.036-43.25h19.113l-.565 21.295h10.733zm41.521 19.976l.753 19.788H95.446l.941-17.904-.941-43.063h19.207l-1.036 41.179zm-46.323 6.973c1.13-.565 2.04-1.508 2.73-2.827.754-1.32 1.13-2.827 1.13-4.523 0-2.01-.502-3.612-1.506-4.806-1.004-1.256-2.322-1.853-3.954-1.79l-4.614.188-.188 6.88.282 6.407 6.12.47z" fill="#fff"/><path d="M153.931.53c5.398 0 10.483.849 15.253 2.545l-3.201 14.983-1.224.753c-1.632-.88-3.515-1.57-5.649-2.073-2.134-.565-4.112-.848-5.932-.848-3.829 0-6.59 1.131-8.285 3.393-1.695 2.198-2.542 5.905-2.542 11.119 0 6.093.973 10.553 2.918 13.38 1.946 2.765 4.99 4.147 9.133 4.147 1.758 0 3.703-.157 5.838-.472 2.196-.377 4.111-.88 5.743-1.507l1.506.942-1.506 14.888c-3.766 1.194-8.129 1.79-13.087 1.79-10.106 0-17.732-2.638-22.879-7.915-5.084-5.276-7.626-12.972-7.626-23.086 0-10.177 2.73-18.06 8.191-23.652 5.523-5.59 13.307-8.386 23.349-8.386z" fill="#000"/><path d="M153.931.53c5.398 0 10.483.849 15.253 2.545l-3.201 14.983-1.224.753c-1.632-.88-3.515-1.57-5.649-2.073-2.134-.565-4.112-.848-5.932-.848-3.829 0-6.59 1.131-8.285 3.393-1.695 2.198-2.542 5.905-2.542 11.119 0 6.093.973 10.553 2.918 13.38 1.946 2.765 4.99 4.147 9.133 4.147 1.758 0 3.703-.157 5.838-.472 2.196-.377 4.111-.88 5.743-1.507l1.506.942-1.506 14.888c-3.766 1.194-8.129 1.79-13.087 1.79-10.106 0-17.732-2.638-22.879-7.915-5.084-5.276-7.626-12.972-7.626-23.086 0-10.177 2.73-18.06 8.191-23.652 5.523-5.59 13.307-8.386 23.349-8.386z" fill="#fff"/><path d="M219.554 2.887l-1.035 13.757-12.428-.565h-1.13l-.471 26.667.753 19.788h-18.83l.941-17.904-.47-28.551h-1.224l-12.523.565-1.129-1.32 1.035-13.757h45.476l1.035 1.32z" fill="#000"/><path d="M219.554 2.887l-1.035 13.757-12.428-.565h-1.13l-.471 26.667.753 19.788h-18.83l.941-17.904-.47-28.551h-1.224l-12.523.565-1.129-1.32 1.035-13.757h45.476l1.035 1.32z" fill="#fff"/><path d="M254.075 1.473c6.841 0 12.082 1.696 15.723 5.088 3.703 3.33 5.555 8.104 5.555 14.323 0 4.838-1.13 9.11-3.39 12.816-2.259 3.643-5.46 6.502-9.603 8.575-4.143 2.01-8.913 3.015-14.311 3.015h-4.613l.659 17.244H225.17l.942-17.904-.942-43.063 28.905-.094zm-3.39 30.625c1.695-.942 2.919-2.136 3.672-3.58.816-1.509 1.224-3.425 1.224-5.749 0-2.764-.659-4.774-1.977-6.03-1.318-1.32-3.39-2.042-6.214-2.168l-3.39.283-.376 16.867 7.061.377z" fill="#000"/><path d="M254.075 1.473c6.841 0 12.082 1.696 15.723 5.088 3.703 3.33 5.555 8.104 5.555 14.323 0 4.838-1.13 9.11-3.39 12.816-2.259 3.643-5.46 6.502-9.603 8.575-4.143 2.01-8.913 3.015-14.311 3.015h-4.613l.659 17.244H225.17l.942-17.904-.942-43.063 28.905-.094zm-3.39 30.625c1.695-.942 2.919-2.136 3.672-3.58.816-1.509 1.224-3.425 1.224-5.749 0-2.764-.659-4.774-1.977-6.03-1.318-1.32-3.39-2.042-6.214-2.168l-3.39.283-.376 16.867 7.061.377z" fill="#fff"/><path d="M309.572.437c8.85 0 15.692 2.638 20.525 7.915 4.833 5.214 7.249 12.595 7.249 22.144 0 10.554-2.667 18.72-8.002 24.5-5.273 5.78-12.774 8.669-22.503 8.669-8.85 0-15.691-2.638-20.525-7.915-4.833-5.34-7.249-12.879-7.249-22.616 0-10.428 2.636-18.469 7.908-24.123 5.336-5.716 12.868-8.574 22.597-8.574zm-1.695 15.076c-2.448 0-4.299.44-5.555 1.32-1.255.816-2.165 2.293-2.73 4.428-.502 2.136-.753 5.246-.753 9.33 0 5.213.282 9.17.847 11.872.565 2.701 1.506 4.586 2.824 5.654 1.381 1.068 3.39 1.602 6.026 1.602 2.448 0 4.3-.408 5.555-1.225 1.255-.88 2.134-2.387 2.636-4.523.565-2.199.848-5.34.848-9.423 0-5.151-.283-9.078-.848-11.779-.565-2.701-1.537-4.586-2.918-5.654-1.318-1.068-3.296-1.602-5.932-1.602z" fill="#000"/><path d="M309.572.437c8.85 0 15.692 2.638 20.525 7.915 4.833 5.214 7.249 12.595 7.249 22.144 0 10.554-2.667 18.72-8.002 24.5-5.273 5.78-12.774 8.669-22.503 8.669-8.85 0-15.691-2.638-20.525-7.915-4.833-5.34-7.249-12.879-7.249-22.616 0-10.428 2.636-18.469 7.908-24.123 5.336-5.716 12.868-8.574 22.597-8.574zm-1.695 15.076c-2.448 0-4.299.44-5.555 1.32-1.255.816-2.165 2.293-2.73 4.428-.502 2.136-.753 5.246-.753 9.33 0 5.213.282 9.17.847 11.872.565 2.701 1.506 4.586 2.824 5.654 1.381 1.068 3.39 1.602 6.026 1.602 2.448 0 4.3-.408 5.555-1.225 1.255-.88 2.134-2.387 2.636-4.523.565-2.199.848-5.34.848-9.423 0-5.151-.283-9.078-.848-11.779-.565-2.701-1.537-4.586-2.918-5.654-1.318-1.068-3.296-1.602-5.932-1.602z" fill="#fff"/><path d="M25.574 109.681c3.955 1.131 6.81 2.827 8.568 5.088 1.82 2.199 2.73 5.089 2.73 8.669 0 6.345-2.605 10.994-7.814 13.946-5.147 2.89-12.868 4.335-23.161 4.335-5.712 0-12.46-.22-20.243-.66l.941-17.903-.941-43.064 27.21-.094c6.904 0 12.302 1.35 16.194 4.052 3.891 2.639 5.837 6.502 5.837 11.59 0 3.141-.816 5.937-2.448 8.387-1.569 2.387-3.86 4.272-6.873 5.654zm-9.886-11.308c0-2.199-.784-3.706-2.354-4.523-1.506-.88-4.362-1.32-8.567-1.32h-.848l-.376 12.439 7.061.283c1.758-.565 3.044-1.382 3.86-2.45.816-1.068 1.224-2.544 1.224-4.429zm-6.214 30.908c2.574 0 4.582-.566 6.026-1.696 1.506-1.131 2.26-2.765 2.26-4.9 0-1.445-.44-2.607-1.319-3.487-.815-.879-2.165-1.633-4.048-2.261l-9.133.188-.094 4.146.283 7.633c3.138.251 5.147.377 6.025.377z" fill="#000"/><path d="M25.574 109.681c3.955 1.131 6.81 2.827 8.568 5.088 1.82 2.199 2.73 5.089 2.73 8.669 0 6.345-2.605 10.994-7.814 13.946-5.147 2.89-12.868 4.335-23.161 4.335-5.712 0-12.46-.22-20.243-.66l.941-17.903-.941-43.064 27.21-.094c6.904 0 12.302 1.35 16.194 4.052 3.891 2.639 5.837 6.502 5.837 11.59 0 3.141-.816 5.937-2.448 8.387-1.569 2.387-3.86 4.272-6.873 5.654zm-9.886-11.308c0-2.199-.784-3.706-2.354-4.523-1.506-.88-4.362-1.32-8.567-1.32h-.848l-.376 12.439 7.061.283c1.758-.565 3.044-1.382 3.86-2.45.816-1.068 1.224-2.544 1.224-4.429zm-6.214 30.908c2.574 0 4.582-.566 6.026-1.696 1.506-1.131 2.26-2.765 2.26-4.9 0-1.445-.44-2.607-1.319-3.487-.815-.879-2.165-1.633-4.048-2.261l-9.133.188-.094 4.146.283 7.633c3.138.251 5.147.377 6.025.377z" fill="#fff"/><path d="M72.648 101.294c6.088 0 10.702 1.477 13.84 4.429 3.201 2.89 4.802 7.099 4.802 12.627 0 4.649-1.099 8.669-3.296 12.061-2.134 3.393-5.272 6.031-9.415 7.916-4.08 1.822-8.913 2.732-14.5 2.732H43.368l1.035-17.809-1.035-43.252H62.48l-.565 21.296h10.734zm41.521 19.977l.753 19.788H95.997l.942-17.903-.942-43.064h19.207l-1.035 41.179zm-46.323 6.973c1.13-.565 2.04-1.508 2.73-2.827.754-1.319 1.13-2.827 1.13-4.523 0-2.01-.502-3.612-1.506-4.806-1.005-1.256-2.323-1.853-3.955-1.79l-4.613.189-.188 6.878.282 6.408 6.12.471z" fill="#000"/><path d="M72.648 101.294c6.088 0 10.702 1.477 13.84 4.429 3.201 2.89 4.802 7.099 4.802 12.627 0 4.649-1.099 8.669-3.296 12.061-2.134 3.393-5.272 6.031-9.415 7.916-4.08 1.822-8.913 2.732-14.5 2.732H43.368l1.035-17.809-1.035-43.252H62.48l-.565 21.296h10.734zm41.521 19.977l.753 19.788H95.997l.942-17.903-.942-43.064h19.207l-1.035 41.179zm-46.323 6.973c1.13-.565 2.04-1.508 2.73-2.827.754-1.319 1.13-2.827 1.13-4.523 0-2.01-.502-3.612-1.506-4.806-1.005-1.256-2.323-1.853-3.955-1.79l-4.613.189-.188 6.878.282 6.408 6.12.471z" fill="#fff"/><path d="M164.746 81.412l-1.13 13.757-13.652-.565h-4.896l-.659 26.667.753 19.788h-18.924l.941-17.903-.941-43.064h37.566l.942 1.32z" fill="#000"/><path d="M164.746 81.412l-1.13 13.757-13.652-.565h-4.896l-.659 26.667.753 19.788h-18.924l.941-17.903-.941-43.064h37.566l.942 1.32z" fill="#fff"/><path d="M193.262 78.962c8.85 0 15.692 2.638 20.525 7.915 4.833 5.214 7.249 12.596 7.249 22.144 0 10.554-2.667 18.721-8.003 24.5-5.272 5.78-12.773 8.669-22.502 8.669-8.85 0-15.692-2.638-20.525-7.915-4.833-5.34-7.249-12.878-7.249-22.615 0-10.429 2.636-18.47 7.908-24.123 5.336-5.717 12.868-8.575 22.597-8.575zm-1.695 15.077c-2.448 0-4.3.44-5.555 1.319-1.255.816-2.166 2.293-2.73 4.429-.503 2.136-.754 5.245-.754 9.328 0 5.214.283 9.172.848 11.873.565 2.702 1.506 4.586 2.824 5.654 1.381 1.068 3.39 1.602 6.026 1.602 2.448 0 4.3-.408 5.555-1.225 1.255-.879 2.134-2.387 2.636-4.523.565-2.199.848-5.34.848-9.423 0-5.151-.283-9.077-.848-11.779-.565-2.701-1.538-4.586-2.919-5.653-1.318-1.069-3.295-1.602-5.931-1.602z" fill="#000"/><path d="M193.262 78.962c8.85 0 15.692 2.638 20.525 7.915 4.833 5.214 7.249 12.596 7.249 22.144 0 10.554-2.667 18.721-8.003 24.5-5.272 5.78-12.773 8.669-22.502 8.669-8.85 0-15.692-2.638-20.525-7.915-4.833-5.34-7.249-12.878-7.249-22.615 0-10.429 2.636-18.47 7.908-24.123 5.336-5.717 12.868-8.575 22.597-8.575zm-1.695 15.077c-2.448 0-4.3.44-5.555 1.319-1.255.816-2.166 2.293-2.73 4.429-.503 2.136-.754 5.245-.754 9.328 0 5.214.283 9.172.848 11.873.565 2.702 1.506 4.586 2.824 5.654 1.381 1.068 3.39 1.602 6.026 1.602 2.448 0 4.3-.408 5.555-1.225 1.255-.879 2.134-2.387 2.636-4.523.565-2.199.848-5.34.848-9.423 0-5.151-.283-9.077-.848-11.779-.565-2.701-1.538-4.586-2.919-5.653-1.318-1.069-3.295-1.602-5.931-1.602z" fill="#fff"/><path d="M291.551 125.794v28.175l-13.652.942-2.354-13.852h-34.836l-2.166 12.91-13.934.942v-29.117h4.802c2.887-1.131 5.084-2.764 6.59-4.9 1.569-2.136 2.825-5.277 3.766-9.423 1.005-4.146 1.978-10.271 2.919-18.375l1.506-13.004h39.921l-1.036 41.179.188 4.523h8.286zm-25.798 0l.094-2.638-.659-29.117h-6.12l-.282 2.544c-1.004 8.166-2.166 14.48-3.484 18.94-1.255 4.46-2.918 7.884-4.99 10.271h15.441z" fill="#000"/><path d="M291.551 125.794v28.175l-13.652.942-2.354-13.852h-34.836l-2.166 12.91-13.934.942v-29.117h4.802c2.887-1.131 5.084-2.764 6.59-4.9 1.569-2.136 2.825-5.277 3.766-9.423 1.005-4.146 1.978-10.271 2.919-18.375l1.506-13.004h39.921l-1.036 41.179.188 4.523h8.286zm-25.798 0l.094-2.638-.659-29.117h-6.12l-.282 2.544c-1.004 8.166-2.166 14.48-3.484 18.94-1.255 4.46-2.918 7.884-4.99 10.271h15.441z" fill="#fff"/><path d="M352.872 121.271l.753 19.788h-18.924l.941-17.903-.094-4.712-10.168-.188-8.756.282-.095 2.733.754 19.788h-18.925l.942-17.903-.942-43.064h19.207L317 103.18l9.509.188 8.662-.188-.47-23.087h19.207l-1.036 41.179z" fill="#000"/><path d="M352.872 121.271l.753 19.788h-18.924l.941-17.903-.094-4.712-10.168-.188-8.756.282-.095 2.733.754 19.788h-18.925l.942-17.903-.942-43.064h19.207L317 103.18l9.509.188 8.662-.188-.47-23.087h19.207l-1.036 41.179z" fill="#fff"/><path d="M392.23 78.962c8.85 0 15.692 2.638 20.525 7.915 4.833 5.214 7.25 12.596 7.25 22.144 0 10.554-2.668 18.721-8.003 24.5-5.272 5.78-12.773 8.669-22.502 8.669-8.85 0-15.692-2.638-20.525-7.915-4.833-5.34-7.25-12.878-7.25-22.615 0-10.429 2.636-18.47 7.909-24.123 5.335-5.717 12.867-8.575 22.596-8.575zm-1.695 15.077c-2.447 0-4.299.44-5.554 1.319-1.256.816-2.166 2.293-2.731 4.429-.502 2.136-.753 5.245-.753 9.328 0 5.214.282 9.172.847 11.873.565 2.702 1.507 4.586 2.825 5.654 1.381 1.068 3.389 1.602 6.026 1.602 2.447 0 4.299-.408 5.554-1.225 1.256-.879 2.135-2.387 2.637-4.523.565-2.199.847-5.34.847-9.423 0-5.151-.282-9.077-.847-11.779-.565-2.701-1.538-4.586-2.919-5.653-1.318-1.069-3.295-1.602-5.932-1.602z" fill="#000"/><path d="M392.23 78.962c8.85 0 15.692 2.638 20.525 7.915 4.833 5.214 7.25 12.596 7.25 22.144 0 10.554-2.668 18.721-8.003 24.5-5.272 5.78-12.773 8.669-22.502 8.669-8.85 0-15.692-2.638-20.525-7.915-4.833-5.34-7.25-12.878-7.25-22.615 0-10.429 2.636-18.47 7.909-24.123 5.335-5.717 12.867-8.575 22.596-8.575zm-1.695 15.077c-2.447 0-4.299.44-5.554 1.319-1.256.816-2.166 2.293-2.731 4.429-.502 2.136-.753 5.245-.753 9.328 0 5.214.282 9.172.847 11.873.565 2.702 1.507 4.586 2.825 5.654 1.381 1.068 3.389 1.602 6.026 1.602 2.447 0 4.299-.408 5.554-1.225 1.256-.879 2.135-2.387 2.637-4.523.565-2.199.847-5.34.847-9.423 0-5.151-.282-9.077-.847-11.779-.565-2.701-1.538-4.586-2.919-5.653-1.318-1.069-3.295-1.602-5.932-1.602z" fill="#fff"/><path d="M38.002 158.618l-15.44 40.519c-2.7 5.905-5.336 10.365-7.91 13.38-2.51 2.953-5.554 5.057-9.132 6.314-3.515 1.193-8.16 1.79-13.934 1.79l-1.224-.188c-1.444-4.523-2.48-9.486-3.107-14.889l.659-1.602c5.963-.376 10.325-.91 13.087-1.601l-20.996-43.723H.059l2.636 7.915 7.532 20.636h1.13l6.59-21.767 1.79-6.784h18.265z" fill="#000"/><path d="M38.002 158.618l-15.44 40.519c-2.7 5.905-5.336 10.365-7.91 13.38-2.51 2.953-5.554 5.057-9.132 6.314-3.515 1.193-8.16 1.79-13.934 1.79l-1.224-.188c-1.444-4.523-2.48-9.486-3.107-14.889l.659-1.602c5.963-.376 10.325-.91 13.087-1.601l-20.996-43.723H.059l2.636 7.915 7.532 20.636h1.13l6.59-21.767 1.79-6.784h18.265z" fill="#fff"/><path d="M102.604 204.319v28.175l-13.652.943-2.354-13.852H51.762l-2.165 12.909-13.935.943v-29.118h4.802c2.887-1.13 5.084-2.764 6.59-4.9 1.57-2.135 2.825-5.276 3.767-9.423 1.004-4.146 1.977-10.271 2.919-18.375l1.506-13.003h39.92l-1.036 41.178.189 4.523h8.285zm-25.797 0l.094-2.638-.66-29.117h-6.12l-.282 2.544c-1.004 8.167-2.165 14.48-3.483 18.94-1.256 4.461-2.919 7.884-4.99 10.271h15.44z" fill="#000"/><path d="M102.604 204.319v28.175l-13.652.943-2.354-13.852H51.762l-2.165 12.909-13.935.943v-29.118h4.802c2.887-1.13 5.084-2.764 6.59-4.9 1.57-2.135 2.825-5.276 3.767-9.423 1.004-4.146 1.977-10.271 2.919-18.375l1.506-13.003h39.92l-1.036 41.178.189 4.523h8.285zm-25.797 0l.094-2.638-.66-29.117h-6.12l-.282 2.544c-1.004 8.167-2.165 14.48-3.483 18.94-1.256 4.461-2.919 7.884-4.99 10.271h15.44z" fill="#fff"/><path d="M136.716 157.487c8.85 0 15.692 2.638 20.525 7.915 4.833 5.214 7.249 12.596 7.249 22.144 0 10.554-2.667 18.721-8.003 24.5-5.272 5.78-12.773 8.669-22.502 8.669-8.85 0-15.692-2.638-20.525-7.915-4.833-5.34-7.249-12.878-7.249-22.615 0-10.428 2.636-18.469 7.908-24.123 5.335-5.717 12.868-8.575 22.597-8.575zm-1.695 15.077c-2.448 0-4.3.44-5.555 1.319-1.255.817-2.166 2.293-2.73 4.429-.503 2.136-.754 5.245-.754 9.329 0 5.214.283 9.171.848 11.873.565 2.701 1.506 4.586 2.824 5.653 1.381 1.068 3.39 1.602 6.026 1.602 2.448 0 4.3-.408 5.555-1.225 1.255-.879 2.134-2.387 2.636-4.523.565-2.198.847-5.339.847-9.423 0-5.151-.282-9.077-.847-11.778-.565-2.702-1.538-4.586-2.919-5.654-1.318-1.068-3.295-1.602-5.931-1.602z" fill="#000"/><path d="M136.716 157.487c8.85 0 15.692 2.638 20.525 7.915 4.833 5.214 7.249 12.596 7.249 22.144 0 10.554-2.667 18.721-8.003 24.5-5.272 5.78-12.773 8.669-22.502 8.669-8.85 0-15.692-2.638-20.525-7.915-4.833-5.34-7.249-12.878-7.249-22.615 0-10.428 2.636-18.469 7.908-24.123 5.335-5.717 12.868-8.575 22.597-8.575zm-1.695 15.077c-2.448 0-4.3.44-5.555 1.319-1.255.817-2.166 2.293-2.73 4.429-.503 2.136-.754 5.245-.754 9.329 0 5.214.283 9.171.848 11.873.565 2.701 1.506 4.586 2.824 5.653 1.381 1.068 3.39 1.602 6.026 1.602 2.448 0 4.3-.408 5.555-1.225 1.255-.879 2.134-2.387 2.636-4.523.565-2.198.847-5.339.847-9.423 0-5.151-.282-9.077-.847-11.778-.565-2.702-1.538-4.586-2.919-5.654-1.318-1.068-3.295-1.602-5.931-1.602z" fill="#fff"/><path d="M202.452 181.139c6.717 0 11.801 1.413 15.253 4.24 3.452 2.764 5.178 6.847 5.178 12.25 0 4.523-1.161 8.449-3.483 11.779-2.323 3.266-5.681 5.779-10.074 7.538-4.394 1.759-9.573 2.639-15.535 2.639h-22.409l1.036-17.81-1.036-43.157H219.4l.941 1.319-1.13 13.758-15.723-.566h-13.369l-.189 8.01h12.522zm-4.801 25.913c1.757-.565 3.075-1.445 3.954-2.638.942-1.194 1.412-2.639 1.412-4.335 0-2.01-.596-3.549-1.789-4.617-1.192-1.068-2.887-1.571-5.084-1.508l-6.496.189-.188 5.748.282 6.596 7.909.565z" fill="#000"/><path d="M202.452 181.139c6.717 0 11.801 1.413 15.253 4.24 3.452 2.764 5.178 6.847 5.178 12.25 0 4.523-1.161 8.449-3.483 11.779-2.323 3.266-5.681 5.779-10.074 7.538-4.394 1.759-9.573 2.639-15.535 2.639h-22.409l1.036-17.81-1.036-43.157H219.4l.941 1.319-1.13 13.758-15.723-.566h-13.369l-.189 8.01h12.522zm-4.801 25.913c1.757-.565 3.075-1.445 3.954-2.638.942-1.194 1.412-2.639 1.412-4.335 0-2.01-.596-3.549-1.789-4.617-1.192-1.068-2.887-1.571-5.084-1.508l-6.496.189-.188 5.748.282 6.596 7.909.565z" fill="#fff"/><path d="M284.281 199.796l.753 19.789H266.11l.941-17.904-.094-4.712-10.168-.188-8.756.283-.094 2.732.753 19.789h-18.925l.942-17.904-.942-43.063h19.207l-.565 23.086 9.51.189 8.662-.189-.471-23.086h19.207l-1.036 41.178z" fill="#000"/><path d="M284.281 199.796l.753 19.789H266.11l.941-17.904-.094-4.712-10.168-.188-8.756.283-.094 2.732.753 19.789h-18.925l.942-17.904-.942-43.063h19.207l-.565 23.086 9.51.189 8.662-.189-.471-23.086h19.207l-1.036 41.178z" fill="#fff"/><path d="M323.639 157.487c8.851 0 15.692 2.638 20.525 7.915 4.833 5.214 7.25 12.596 7.25 22.144 0 10.554-2.668 18.721-8.003 24.5-5.272 5.78-12.773 8.669-22.502 8.669-8.85 0-15.692-2.638-20.525-7.915-4.833-5.34-7.25-12.878-7.25-22.615 0-10.428 2.637-18.469 7.909-24.123 5.335-5.717 12.867-8.575 22.596-8.575zm-1.694 15.077c-2.448 0-4.3.44-5.555 1.319-1.256.817-2.166 2.293-2.731 4.429-.502 2.136-.753 5.245-.753 9.329 0 5.214.283 9.171.847 11.873.565 2.701 1.507 4.586 2.825 5.653 1.381 1.068 3.389 1.602 6.026 1.602 2.448 0 4.299-.408 5.555-1.225 1.255-.879 2.134-2.387 2.636-4.523.565-2.198.847-5.339.847-9.423 0-5.151-.282-9.077-.847-11.778-.565-2.702-1.538-4.586-2.919-5.654-1.318-1.068-3.295-1.602-5.931-1.602z" fill="#000"/><path d="M323.639 157.487c8.851 0 15.692 2.638 20.525 7.915 4.833 5.214 7.25 12.596 7.25 22.144 0 10.554-2.668 18.721-8.003 24.5-5.272 5.78-12.773 8.669-22.502 8.669-8.85 0-15.692-2.638-20.525-7.915-4.833-5.34-7.25-12.878-7.25-22.615 0-10.428 2.637-18.469 7.909-24.123 5.335-5.717 12.867-8.575 22.596-8.575zm-1.694 15.077c-2.448 0-4.3.44-5.555 1.319-1.256.817-2.166 2.293-2.731 4.429-.502 2.136-.753 5.245-.753 9.329 0 5.214.283 9.171.847 11.873.565 2.701 1.507 4.586 2.825 5.653 1.381 1.068 3.389 1.602 6.026 1.602 2.448 0 4.299-.408 5.555-1.225 1.255-.879 2.134-2.387 2.636-4.523.565-2.198.847-5.339.847-9.423 0-5.151-.282-9.077-.847-11.778-.565-2.702-1.538-4.586-2.919-5.654-1.318-1.068-3.295-1.602-5.931-1.602z" fill="#fff"/></svg>