<svg width="30" height="30" fill="none" xmlns="http://www.w3.org/2000/svg"><path d="M16.25 7a1.25 1.25 0 10-2.5 0h2.5zM15 16h-1.25c0 .69.56 1.25 1.25 1.25V16zm6 1.25a1.25 1.25 0 100-2.5v2.5zm-6-15.5C7.685 1.75 1.75 7.685 1.75 15h2.5C4.25 9.065 9.065 4.25 15 4.25v-2.5zM1.75 15c0 7.315 5.935 13.25 13.25 13.25v-2.5C9.065 25.75 4.25 20.935 4.25 15h-2.5zM15 28.25c7.315 0 13.25-5.935 13.25-13.25h-2.5c0 5.935-4.815 10.75-10.75 10.75v2.5zM28.25 15c0-7.315-5.935-13.25-13.25-13.25v2.5c5.935 0 10.75 4.815 10.75 10.75h2.5zm-14.5-8v9h2.5V7h-2.5zM15 17.25h6v-2.5h-6v2.5z" fill="#191A21"/></svg>