<svg width="30" height="30" fill="none" xmlns="http://www.w3.org/2000/svg"><path d="M1.875 20.375h26.25v1.875H1.875v-1.875zm0 3.75h26.25V26H1.875v-1.875zm20.625-15a1.875 1.875 0 100 3.75 1.875 1.875 0 000-3.75zM15 14.75a3.75 3.75 0 110-7.5 3.75 3.75 0 010 7.5zm0-5.625a1.875 1.875 0 100 3.75 1.875 1.875 0 000-3.75zm-7.5 0a1.875 1.875 0 100 3.75 1.875 1.875 0 000-3.75z" fill="#191A21"/><path d="M26.25 18.5H3.75a1.88 1.88 0 01-1.875-1.875V5.375A1.88 1.88 0 013.75 3.5h22.5a1.88 1.88 0 011.875 1.875v11.25A1.877 1.877 0 0126.25 18.5zm0-13.125H3.75v11.25h22.5V5.375z" fill="#191A21"/></svg>