<svg width="29" height="29" fill="none" xmlns="http://www.w3.org/2000/svg"><path fill-rule="evenodd" clip-rule="evenodd" d="M14.5 28.5c7.732 0 14-6.267 14-14 0-7.731-6.268-14-14-14s-14 6.27-14 14c0 7.733 6.268 14 14 14zm5.881-17.606a6.548 6.548 0 001.82-.502 6.325 6.325 0 01-1.583 1.65c.007.136.012.271.012.412 0 4.2-3.177 9.047-8.986 9.047A8.843 8.843 0 016.8 20.074c.249.032.497.043.756.043 1.476 0 2.84-.51 3.914-1.355-1.38-.03-2.54-.956-2.95-2.215.192.043.396.054.598.054.29 0 .57-.034.828-.104a3.188 3.188 0 01-2.53-3.124v-.035c.422.233.92.382 1.427.391a3.19 3.19 0 01-.97-4.249c1.56 1.93 3.882 3.197 6.507 3.326a3.293 3.293 0 01-.073-.725c0-1.752 1.407-3.18 3.155-3.18.9 0 1.727.384 2.306 1.006a6.282 6.282 0 002.002-.77 3.157 3.157 0 01-1.389 1.757z" fill="#fff"/></svg>