<svg width="395" height="486" fill="none" xmlns="http://www.w3.org/2000/svg"><path fill-rule="evenodd" clip-rule="evenodd" d="M.03 74.282C129.908 49.32 260.092 24.66 389.971 0v31.661L33.488 99.551v152.522L.029 245.679V74.282z" fill="#D9030E"/><path d="M32.788 390.773l.21 14.194h-7.16l.28-13.562-.21-25.859H7.232l-.28 25.227.28 14.194H.001l.351-13.562-.351-31.551h33.138l-.35 30.919z" fill="#D9030E"/><path d="M97.13 369.27c5.148 0 9.126 1.523 11.935 4.568 2.855 2.998 4.282 7.238 4.282 12.719 0 6.09-1.521 10.774-4.563 14.054-2.996 3.279-7.278 4.918-12.848 4.918-5.196 0-9.197-1.546-12.006-4.637-2.808-3.092-4.212-7.472-4.212-13.141 0-5.902 1.498-10.447 4.493-13.632 3.042-3.233 7.349-4.849 12.918-4.849zm-.632 5.552c-3.37 0-5.851.96-7.443 2.881-1.544 1.873-2.316 4.942-2.316 9.205 0 4.731.772 8.104 2.316 10.119 1.545 2.014 4.002 3.021 7.372 3.021 3.417 0 5.921-.937 7.513-2.81 1.591-1.921 2.387-5.036 2.387-9.346 0-4.685-.773-8.034-2.317-10.049-1.545-2.014-4.049-3.021-7.513-3.021zm82.665-4.498l-.422 5.411-6.81-.492h-2.949l-.14 18.551.211 11.173h-6.74l.281-10.54-.141-19.184h-2.878l-6.951.492-.491-.562.491-5.411h26.188l.351.562zm57.599-.632c3.791 0 6.717.937 8.776 2.811 2.106 1.827 3.16 4.45 3.16 7.87 0 4.029-1.334 7.214-4.002 9.557-2.668 2.295-6.272 3.443-10.812 3.443h-4.002v.421l.281 11.173h-6.74l.281-10.54-.281-24.665 13.339-.07zm-1.193 18.621c4.025-.843 6.038-3.302 6.038-7.378 0-2.014-.562-3.513-1.685-4.497-1.124-.984-2.856-1.523-5.196-1.616l-4.563.14-.211 13.211 5.617.14zm81.331 11.033l.492.492-.562 5.129h-22.537l.281-10.54-.281-24.665h22.747l.422.562-.492 5.13-8.916-.351-7.021.07-.14 9.135 6.74.07 6.108-.211.351.563-.421 5.2-6.6-.211-6.249.07-.07 4.005.141 5.762 6.529.071 9.478-.281zm63.286-15.46c3.838 0 6.763.82 8.776 2.46 2.012 1.593 3.019 3.911 3.019 6.956 0 3.701-1.405 6.582-4.213 8.644-2.808 2.014-6.763 3.021-11.865 3.021h-10.531l.351-10.54-.351-24.805h24.783l.281.562-.351 5.059-9.338-.14h-8.495l-.14 8.783h8.074zm-2.107 16.303c2.153-.281 3.792-.937 4.915-1.968 1.17-1.03 1.755-2.389 1.755-4.075 0-1.78-.585-3.139-1.755-4.076-1.17-.984-2.855-1.452-5.055-1.405l-5.898.07-.07 5.059.141 6.114 5.967.281z" fill="#000"/><path d="M6.95 461.753l.281 14.195H0l.351-13.562L0 430.835h7.302l-.351 30.918zm8.075-9.697c5.429 7.308 11.63 14.757 18.605 22.346l-.07.843c-2.06.562-4.377 1.007-6.951 1.335l-.913-.422c-7.114-8.713-13.152-16.63-18.114-23.751v-.492l14.042-17.005 2.808-4.075h7.934l-17.341 21.221z" fill="#D9030E"/><path d="M91.272 440.672c3.791 0 6.717.937 8.776 2.811 2.106 1.827 3.159 4.451 3.159 7.87 0 4.029-1.333 7.215-4.001 9.557-2.668 2.296-6.272 3.443-10.812 3.443h-4.002v.422l.28 11.173h-6.74l.281-10.541-.28-24.664 13.34-.071zm-1.193 18.622c4.025-.843 6.038-3.303 6.038-7.378 0-2.015-.562-3.514-1.686-4.498-1.123-.983-2.855-1.522-5.195-1.616l-4.563.141-.211 13.21 5.617.141zm80.39 11.032l.491.492-.562 5.13h-22.536l.28-10.541-.28-24.664h22.747l.421.562-.491 5.13-8.917-.352-7.02.071-.141 9.135 6.74.07 6.108-.211.351.562-.421 5.2-6.599-.211-6.249.071-.07 4.005.14 5.762 6.53.07 9.478-.281zm78.354.071v14.475l-4.985.422-.983-9.346h-24.432l-.983 8.924-5.055.422v-14.897h3.089c1.638-.797 2.925-1.991 3.862-3.584.936-1.64 1.708-3.959 2.316-6.957.609-3.045 1.171-7.284 1.685-12.719l.702-6.254-.07-.14h20.01l-.281 24.032.14 5.622h4.985zm-11.374-4.99l-.21-19.605h-7.794l-.28 2.53c-.656 6.512-1.451 11.43-2.387 14.757-.937 3.279-2.27 5.715-4.002 7.308h14.533l.14-4.99zm57.362 0l-.351-24.594 6.951-.351-.422 24.945h.492l16.499-24.805h7.372l-.351 24.173.21 11.173h-6.88l.351-10.541v-14.264h-.562l-16.499 24.805h-7.161l.351-10.541zM395 441.305l-.422 5.411-6.81-.492h-2.949l-.14 18.551.211 11.173h-6.74l.281-10.541-.141-19.183h-2.878l-6.951.492-.491-.562.491-5.411h26.188l.351.562z" fill="#000"/><path fill-rule="evenodd" clip-rule="evenodd" d="M125.651 269.425l10.342 2.131 17.946 3.349V159.524h-28.288v109.901zm-58.4-42.925l-22.813-4.262v31.966l31.026 6.088 19.162 3.653V159.524H67.251V226.5zm86.688-66.976h-28.288v-11.569l-31.025 6.089v5.48H67.251v-34.401l86.688-16.44v50.841zm79.388 50.841l-37.109.304v72.456l-29.808-5.784V159.524h29.808v18.571l37.109-.609v-17.962h30.721v136.387l-30.721-5.784v-79.762zm30.721-50.841h-30.721v-32.27l-37.109 7.002v25.268H166.41v-53.276l77.258-14.918 20.38-3.957v72.151zm94.596 122.992l-52.317-10.046v-63.019l52.317-.608v73.673zm-66.309 18.875l87.6 16.744 8.517 1.522V159.524h-29.808v16.44l-52.317.608v-17.048h-29.809v138.823l15.817 3.044zm96.117-237.764v95.897h-29.808v-56.625l-37.109 7.002-15.208 3.044v46.275h-29.809V85.242l111.934-21.615z" fill="#000"/><path d="M276.522 145.356h29.798v47.952h-29.798v-47.952z" fill="#000"/></svg>