<svg width="29" height="29" fill="none" xmlns="http://www.w3.org/2000/svg"><path fill-rule="evenodd" clip-rule="evenodd" d="M14.5 28.5c7.732 0 14-6.267 14-14 0-7.731-6.268-14-14-14s-14 6.27-14 14c0 7.733 6.268 14 14 14zm6.027-18.58c.66.174 1.18.68 1.357 1.323.33 1.173.317 3.62.317 3.62s0 2.433-.317 3.606a1.905 1.905 0 01-1.357 1.322c-1.206.309-6.026.309-6.026.309s-4.808 0-6.025-.321a1.905 1.905 0 01-1.358-1.322c-.317-1.161-.317-3.607-.317-3.607s0-2.434.317-3.607a1.943 1.943 0 011.358-1.334c1.205-.31 6.025-.31 6.025-.31s4.82 0 6.026.322zm-3.552 4.93l-4.009-2.248v4.496l4.009-2.248z" fill="#fff"/></svg>