<svg width="13" height="14" viewBox="0 0 13 14" fill="none" xmlns="http://www.w3.org/2000/svg">
<path d="M12.7885 6.44954L7.01062 0.227494C6.72895 -0.0758312 6.27105 -0.0758312 5.98938 0.227494L0.211535 6.44954C0.00497642 6.67198 -0.0571354 7.00642 0.0555326 7.2973C0.165312 7.58818 0.429648 7.77795 0.72143 7.77795H1.44366V13.2222C1.44366 13.6516 1.76722 14 2.16589 14H5.05482C5.45349 14 5.77705 13.6516 5.77705 13.2222V9.33346H7.22151V13.2222C7.22151 13.6516 7.54507 14 7.94374 14H10.8327C11.2313 14 11.5549 13.6516 11.5549 13.2222V7.77795H12.2771C12.5689 7.77795 12.8332 7.58818 12.9445 7.2973C13.0571 7.00642 12.995 6.67198 12.7885 6.44954Z" fill="#E34D45"/>
</svg>
