<svg width="9" height="12" viewBox="0 0 9 12" fill="none" xmlns="http://www.w3.org/2000/svg">
<path fill-rule="evenodd" clip-rule="evenodd" d="M-4.06143e-07 4.65119C0.0446686 2.30796 1.97665 0.442527 4.32 0.479986C6.66335 0.442527 8.59533 2.30796 8.64 4.65119C8.63996 5.55426 8.33748 6.4313 7.7808 7.14239L4.512 11.424C4.46667 11.4844 4.39554 11.52 4.32 11.52C4.24446 11.52 4.17332 11.4844 4.128 11.424L0.8592 7.14719C0.301506 6.4348 -0.00103894 5.5559 -4.06143e-07 4.65119ZM2.66223 4.5297C2.60316 5.36385 3.17003 6.11314 3.9888 6.28319C4.53779 6.3972 5.10736 6.22817 5.50529 5.83314C5.90321 5.43812 6.0764 4.86979 5.9664 4.31999C5.80235 3.49999 5.05721 2.92767 4.22265 2.98064C3.38809 3.03361 2.7213 3.69555 2.66223 4.5297Z" fill="white"/>
</svg>
