<svg width="50" height="50" fill="none" xmlns="http://www.w3.org/2000/svg"><path d="M8.333 16.77v-5.256a2 2 0 012-2h5.576m-7.576 7.255v22.898a2 2 0 002 2h29.334a2 2 0 002-2V16.769m-33.334 0h33.334m0 0v-5.255a2 2 0 00-2-2H34.09m-18.182 0V6.25m0 3.264H34.09m-18.182 0V12.5M34.09 9.514V6.25m0 3.264V12.5" stroke="#0186B9" stroke-width="1.5"/><path d="M34.856 23.447a.765.765 0 01-.765.765v1.5a2.265 2.265 0 002.265-2.265h-1.5zm-.765.765a.765.765 0 01-.765-.765h-1.5a2.265 2.265 0 002.265 2.265v-1.5zm-.765-.765c0-.423.342-.765.765-.765v-1.5a2.265 2.265 0 00-2.265 2.265h1.5zm.765-.765c.422 0 .765.342.765.765h1.5a2.265 2.265 0 00-2.265-2.265v1.5zm-8.326.765a.765.765 0 01-.765.765v1.5a2.265 2.265 0 002.265-2.265h-1.5zm-.765.765a.765.765 0 01-.765-.765h-1.5A2.265 2.265 0 0025 25.712v-1.5zm-.765-.765c0-.423.342-.765.765-.765v-1.5a2.265 2.265 0 00-2.265 2.265h1.5zm.765-.765c.422 0 .765.342.765.765h1.5A2.265 2.265 0 0025 21.182v1.5zm-8.326.765a.765.765 0 01-.765.765v1.5a2.265 2.265 0 002.265-2.265h-1.5zm-.765.765a.765.765 0 01-.765-.765h-1.5a2.265 2.265 0 002.265 2.265v-1.5zm-.765-.765c0-.423.342-.765.765-.765v-1.5a2.265 2.265 0 00-2.265 2.265h1.5zm.765-.765c.422 0 .765.342.765.765h1.5a2.265 2.265 0 00-2.265-2.265v1.5zm18.947 11.371a.765.765 0 01-.765.765v1.5a2.265 2.265 0 002.265-2.265h-1.5zm-.765.765a.765.765 0 01-.765-.765h-1.5a2.265 2.265 0 002.265 2.265v-1.5zm-.765-.765c0-.423.342-.765.765-.765v-1.5a2.265 2.265 0 00-2.265 2.265h1.5zm.765-.765c.422 0 .765.342.765.765h1.5a2.265 2.265 0 00-2.265-2.265v1.5zm-8.326.765a.765.765 0 01-.765.765v1.5a2.265 2.265 0 002.265-2.265h-1.5zm-.765.765a.765.765 0 01-.765-.765h-1.5A2.265 2.265 0 0025 36.318v-1.5zm-.765-.765c0-.423.342-.765.765-.765v-1.5a2.265 2.265 0 00-2.265 2.265h1.5zm.765-.765c.422 0 .765.342.765.765h1.5A2.265 2.265 0 0025 31.788v1.5zm-8.326.765a.765.765 0 01-.765.765v1.5a2.265 2.265 0 002.265-2.265h-1.5zm-.765.765a.765.765 0 01-.765-.765h-1.5a2.265 2.265 0 002.265 2.265v-1.5zm-.765-.765c0-.423.342-.765.765-.765v-1.5a2.265 2.265 0 00-2.265 2.265h1.5zm.765-.765c.422 0 .765.342.765.765h1.5a2.265 2.265 0 00-2.265-2.265v1.5z" fill="#0186B9"/></svg>