<svg width="967" height="410" fill="none" xmlns="http://www.w3.org/2000/svg"><circle cx="505.739" cy="204.647" r="164.147" stroke="#B6E6F8" stroke-width="81"/><path d="M506.808 159.798c43.694 0 79.114-34.797 79.114-77.722 0-42.924-35.42-77.722-79.114-77.722s-79.115 34.797-79.115 77.722 35.421 77.722 79.115 77.722z" fill="#0CAAE7"/><path fill-rule="evenodd" clip-rule="evenodd" d="M428.303 91.726c5.27-45.369 44.487-80.611 92.074-80.611 9.019 0 17.729 1.26 25.968 3.623-11.629-6.601-25.128-10.384-39.537-10.384-43.697 0-79.115 34.796-79.115 77.722 0 3.266.21 6.493.61 9.65z" fill="#1FB9F4"/><path fill-rule="evenodd" clip-rule="evenodd" d="M493.369 132.905c43.687 0 79.114-34.796 79.114-77.722 0-6.96-.93-13.7-2.679-20.113 10.109 13.054 16.108 29.345 16.108 47.016 0 42.927-35.417 77.722-79.114 77.722-36.607 0-67.415-24.431-76.435-57.609 14.449 18.664 37.288 30.706 63.006 30.706z" fill="#049DD8"/><path fill-rule="evenodd" clip-rule="evenodd" d="M506.796 252.65h-15.379v30.159c0-23.835-27.638-29.981-42.667-30.159h-1.32v-31.381s13.219 0 13.219-14.057-13.219-14.057-13.219-14.057v-44.317h118.451v44.317s-13.219 0-13.219 14.057 13.219 14.057 13.219 14.057v31.381h-1.31c-14.968.178-41.567 6.324-41.567 30.159l-1.06-30.159h-15.148z" fill="#0CAAE7"/><path d="M369.088 193.224c44.407 0 70.385-20.103 79.064-30.031v30.031h-79.064zm265.155 0c-44.397 0-60.136-20.103-68.815-30.031v30.031h68.815z" fill="#049DD8"/><path d="M447.273 221.329c.6-.05 1.19-.12 1.78-.189 3.61-.626 11.44-3.316 11.44-15.03 0-12.846-13.22-12.846-13.22-12.846v-44.446h51.037c0 29.773-9.839 67.666-49.257 72.332-1.08.179-1.78.179-1.78.179zm118.142-.001c-.6-.049-1.19-.119-1.78-.188-3.609-.626-11.439-3.316-11.439-15.03.72-12.886 13.219-12.886 13.219-12.886v-44.416h-51.036c0 29.773 9.849 67.666 49.256 72.332 1.08.188 1.78.188 1.78.188z" fill="#049DD8"/><path d="M543.633 168.882c15.932 0 28.848-12.69 28.848-28.343s-12.916-28.343-28.848-28.343c-15.932 0-28.848 12.69-28.848 28.343s12.916 28.343 28.848 28.343zm-73.656 0c15.932 0 28.848-12.69 28.848-28.343s-12.916-28.343-28.848-28.343c-15.932 0-28.848 12.69-28.848 28.343s12.916 28.343 28.848 28.343z" fill="#0CAAE7"/><path d="M555.754 147.568c0 6.532-5.4 11.883-12.119 11.883-6.72 0-12.119-5.351-12.119-11.883 0-6.532 5.399-11.883 12.119-11.883 6.719 0 12.119 5.351 12.119 11.883z" fill="#fff"/><path fill-rule="evenodd" clip-rule="evenodd" d="M543.635 138.423c-5.22 0-9.361 4.148-9.361 9.145 0 4.996 4.141 9.145 9.361 9.145 5.22 0 9.361-4.149 9.361-9.145 0-4.997-4.141-9.145-9.361-9.145zm-14.877 9.145c0-8.068 6.658-14.621 14.877-14.621 8.219 0 14.877 6.553 14.877 14.621 0 8.068-6.658 14.621-14.877 14.621-8.219 0-14.877-6.553-14.877-14.621z" fill="#0186B9"/><path d="M482.098 147.568c0 6.532-5.4 11.883-12.119 11.883-6.72 0-12.12-5.351-12.12-11.883 0-6.532 5.4-11.883 12.12-11.883 6.719 0 12.119 5.351 12.119 11.883z" fill="#fff"/><path fill-rule="evenodd" clip-rule="evenodd" d="M469.979 138.423c-5.221 0-9.362 4.148-9.362 9.145 0 4.996 4.141 9.145 9.362 9.145 5.22 0 9.361-4.149 9.361-9.145 0-4.997-4.141-9.145-9.361-9.145zm-14.877 9.145c0-8.068 6.658-14.621 14.877-14.621 8.218 0 14.877 6.553 14.877 14.621 0 8.068-6.659 14.621-14.877 14.621-8.219 0-14.877-6.553-14.877-14.621z" fill="#0186B9"/><path d="M672.792 208.671c.26-11.734.42-17.611.45-17.611 9.48 2.234 16.079 10.672 15.869 20.599-.17 7.813-4.52 14.971-11.279 18.962l-.54.317-20.669.407-.53-.297a20.46 20.46 0 01-7.799-7.754 20.948 20.948 0 01-2.68-10.741c.21-9.928 7.17-18.644 16.839-21.215l-.36 17.105c-.07 3.018 2.42 5.48 5.46 5.42a5.33 5.33 0 005.239-5.192z" fill="#0CAAE7"/><path d="M523.015 316.542h-31.667v13.522c16.848-.318 23.878 18.763 24.338 28.462 7.329-8.895 7.599-19.607 7.329-24.045v-17.939zm-2.551-131.39l-.11-.704c-.52-2.889-3.19-13.69-14.079-13.69-10.689 0-13.459 10.423-14.049 13.531l-.14.863s.04-.317.14-.863l5.96-37.099h16.388l5.78 37.268c.08.436.11.694.11.694zm-13.92 26.319c3.761 0 6.809-3.027 6.809-6.761s-3.048-6.761-6.809-6.761-6.81 3.027-6.81 6.761 3.049 6.761 6.81 6.761zm30.512 17.634c1.894-4.539-.277-9.742-4.849-11.622-4.571-1.881-9.812.275-11.706 4.813-1.894 4.539.277 9.743 4.849 11.623 4.571 1.88 9.812-.276 11.706-4.814zm10.482-171.529c7.041 0 12.749-5.667 12.749-12.658 0-6.99-5.708-12.657-12.749-12.657s-12.749 5.667-12.749 12.657 5.708 12.658 12.749 12.658zm-38.984-8.21c3.446 0 6.24-2.774 6.24-6.195 0-3.421-2.794-6.195-6.24-6.195s-6.24 2.774-6.24 6.195c0 3.421 2.794 6.195 6.24 6.195zm8.257 199.045c2.358 0 4.269-1.898 4.269-4.239s-1.911-4.239-4.269-4.239-4.27 1.898-4.27 4.239 1.912 4.239 4.27 4.239zm10.496-178.277c2.358 0 4.27-1.898 4.27-4.24 0-2.34-1.912-4.238-4.27-4.238-2.358 0-4.27 1.898-4.27 4.239 0 2.34 1.912 4.239 4.27 4.239zm114.207 226.484c2.358 0 4.27-1.898 4.27-4.239s-1.912-4.239-4.27-4.239c-2.358 0-4.27 1.898-4.27 4.239s1.912 4.239 4.27 4.239zM590.645 174.65c2.358 0 4.269-1.898 4.269-4.239s-1.911-4.239-4.269-4.239-4.27 1.898-4.27 4.239 1.912 4.239 4.27 4.239zM485.096 296.618c2.358 0 4.27-1.898 4.27-4.239s-1.912-4.239-4.27-4.239c-2.358 0-4.27 1.898-4.27 4.239s1.912 4.239 4.27 4.239zm-155.99-11.516c2.358 0 4.269-1.898 4.269-4.239s-1.911-4.239-4.269-4.239-4.27 1.898-4.27 4.239 1.912 4.239 4.27 4.239zm44.947-110.452c2.358 0 4.27-1.898 4.27-4.239s-1.912-4.239-4.27-4.239c-2.358 0-4.27 1.898-4.27 4.239s1.912 4.239 4.27 4.239zm288.635 121.968c2.358 0 4.269-1.898 4.269-4.239s-1.911-4.239-4.269-4.239-4.27 1.898-4.27 4.239 1.912 4.239 4.27 4.239zM611.819 174.65c2.358 0 4.269-1.898 4.269-4.239s-1.911-4.239-4.269-4.239c-2.359 0-4.27 1.898-4.27 4.239s1.911 4.239 4.27 4.239zM506.27 296.618c2.358 0 4.269-1.898 4.269-4.239s-1.911-4.239-4.269-4.239-4.27 1.898-4.27 4.239 1.912 4.239 4.27 4.239zm-177.164-32.532c2.358 0 4.269-1.898 4.269-4.239s-1.911-4.239-4.269-4.239-4.27 1.898-4.27 4.239 1.912 4.239 4.27 4.239zm66.097-89.436c2.358 0 4.27-1.898 4.27-4.239s-1.912-4.239-4.27-4.239c-2.358 0-4.269 1.898-4.269 4.239s1.911 4.239 4.269 4.239zM683.86 296.618c2.358 0 4.269-1.898 4.269-4.239s-1.911-4.239-4.269-4.239c-2.359 0-4.27 1.898-4.27 4.239s1.911 4.239 4.27 4.239zM632.992 174.65c2.359 0 4.27-1.898 4.27-4.239s-1.911-4.239-4.27-4.239c-2.358 0-4.269 1.898-4.269 4.239s1.911 4.239 4.269 4.239zm-105.55 121.968c2.358 0 4.269-1.898 4.269-4.239s-1.911-4.239-4.269-4.239c-2.359 0-4.27 1.898-4.27 4.239s1.911 4.239 4.27 4.239zM329.106 243.07c2.358 0 4.269-1.898 4.269-4.239s-1.911-4.239-4.269-4.239-4.27 1.898-4.27 4.239 1.912 4.239 4.27 4.239zm87.269-68.42c2.358 0 4.27-1.898 4.27-4.239s-1.912-4.239-4.27-4.239c-2.358 0-4.27 1.898-4.27 4.239s1.912 4.239 4.27 4.239z" fill="#049DD8"/><path d="M638.791 120.872h31.648v19.677h-31.648v-19.677zm-273.289-17.105H397.6c3.05 0 5.519 2.453 5.519 5.48v21.483c0 3.028-2.469 5.48-5.519 5.48h-32.098c-3.05 0-5.52-2.452-5.52-5.48v-21.483c.01-3.027 2.48-5.48 5.52-5.48zm268.736 265.888v31.867c0 3.028-2.47 5.48-5.519 5.48H607.08c-3.05 0-5.519-2.452-5.519-5.48v-31.867c0-3.028 2.469-5.48 5.519-5.48h21.639c3.049 0 5.519 2.452 5.519 5.48z" fill="#0CAAE7"/><path d="M356.977 115.006c0-3.028 2.469-5.48 5.519-5.48h38.137c3.05 0 5.52 2.452 5.52 5.48v9.947c0 3.028-2.47 5.48-5.52 5.48h-38.137c-3.05 0-5.519-2.452-5.519-5.48v-9.947zm265.931 246.171c3.04 0 5.51 2.452 5.51 5.48v37.863c0 3.028-2.47 5.48-5.51 5.48h-10.019c-3.05 0-5.52-2.452-5.52-5.48v-37.863c0-3.028 2.47-5.48 5.52-5.48h10.019zM261.52 211.352c0-3.237 2.639-5.858 5.899-5.858h39.787v11.725h-39.787c-3.26-.01-5.899-2.631-5.899-5.867zm-19.647 11.942h65.345v13.928h-51.316c-7.749-.01-14.029-6.244-14.029-13.928z" fill="#0CAAE7"/><path d="M241.873 199.081c0-3.236 2.64-5.857 5.9-5.857 3.259 0 5.899 2.621 5.899 5.857v24.322h-11.799v-24.322z" fill="#0CAAE7"/><path d="M267.813 223.304c-16.319-.228-14.189-6.701-14.189-12.667h-2.13v15.953h16.319v-3.286z" fill="#0CAAE7"/><path fill-rule="evenodd" clip-rule="evenodd" d="M344.391 107.749c0-.298-.01-.596-.03-.894v.04s.01-.03.01-.099c.03-.248.1-.953.38-2.085.43-1.747 1.14-3.673 2.13-5.34.98-1.649 2.03-2.74 3.05-3.396.89-.576 2.299-1.191 4.799-1.191 3.94 0 5.8.972 6.68 1.588 1.02.715 1.97 1.856 2.78 3.614.84 1.796 1.32 3.812 1.57 5.519.12.814.17 1.46.19 1.847.01.169.01.288.01.327-.04 8.617 6.919 15.686 15.618 15.815 8.76.129 15.969-6.81 16.099-15.507l-15.549-.228c15.549.228 15.549.228 15.549.218v-.804c-.01-.387-.02-.883-.05-1.479-.06-1.182-.19-2.78-.47-4.656-.53-3.673-1.66-8.846-4.149-14.226-2.52-5.43-6.62-11.466-13.259-16.132-6.78-4.765-15.189-7.386-25.009-7.386-17.948 0-29.228 10.036-35.197 20.123-2.86 4.834-4.61 9.768-5.61 13.898-.87 3.564-1.42 7.475-1.26 10.9v44.118c0 15.1 6.36 25.931 14.869 32.632 7.66 6.026 16.519 8.289 22.399 8.289h101.223c8.759 0 15.858-7.049 15.858-15.745 0-8.696-7.099-15.745-15.858-15.745H350.371a8.115 8.115 0 01-3.13-1.489c-.69-.536-1.3-1.231-1.79-2.224-.48-.983-1.07-2.74-1.07-5.728v-44.574h.01zm37.447 0c-15.778-.238-15.858-.228-15.858-.228v-.01l15.858.238zm288.65 25.573c0-8.696-7.099-15.745-15.859-15.745-8.759 0-15.859 7.049-15.859 15.745v18.991c0 3.763-1.409 5.838-2.989 7.198a10.41 10.41 0 01-3 1.787c-.5.188-.94.307-1.29.377-.33.069-.51.069-.52.069h-65.185c-8.76 0-15.859 7.049-15.859 15.745 0 8.697 7.099 15.745 15.859 15.745h65.185c8.539 0 18.099-3.474 25.618-9.957 7.99-6.9 13.899-17.413 13.899-30.964v-18.991zm-366.754 72.103c-8.759 0-15.859 7.049-15.859 15.745 0 8.696 7.1 15.745 15.859 15.745 4.83 0 6.649 1.022 7.229 1.429.54.378 1.56 1.311 2.59 4.289 2.49 7.198 2.69 18.495 2.69 36.285 0 9.848 2.43 18.296 6.92 25.186 4.439 6.82 10.289 11.198 15.738 13.968 5.37 2.72 10.55 3.991 14.259 4.606 1.89.308 3.5.467 4.71.546.6.04 1.11.06 1.51.07.06 0 .11 0 .17.01.08 0 .16.01.24.01.42.019.98.039 1.65.049 1.34.02 3.16-.01 5.319-.169 4.22-.307 10.18-1.151 16.409-3.464 6.25-2.323 13.379-6.374 18.929-13.412 5.71-7.237 8.829-16.46 8.829-27.39 0-11.427 3.96-17.413 7.65-20.768 3.95-3.584 8.679-5.123 11.439-5.48h29.728c8.759 0 15.859-7.049 15.859-15.745 0-8.697-7.1-15.745-15.859-15.745h-30.538c-.44 0-.89.02-1.33.059-8.719.735-20.688 4.587-30.708 13.7-10.529 9.57-17.948 24.114-17.948 43.989 0 4.725-1.24 6.909-2.09 7.981-.99 1.261-2.6 2.423-5.08 3.336-2.51.933-5.28 1.38-7.609 1.549-1.12.079-2.02.089-2.6.089-.28 0-.48-.01-.56-.02h-.04c-.33-.02-.66-.03-.99-.039-.04 0-.12 0-.24-.01-.33-.02-.91-.07-1.65-.199-1.55-.258-3.38-.744-5.02-1.578-1.569-.795-2.719-1.777-3.539-3.028-.77-1.182-1.84-3.524-1.84-8.091v-1.886c.01-15.11.02-31.808-4.4-44.604-2.52-7.287-6.819-14.534-14.249-19.766-7.409-5.222-16.219-7.247-25.578-7.247zm379.853 24.769c0-8.696-7.099-15.745-15.859-15.745-8.759 0-15.858 7.049-15.858 15.745 0 5.887 1.119 13.68 5.029 20.609 4.31 7.645 12.509 14.663 24.718 14.663 2.08 0 5.9.695 8.66 2.403 1.19.744 1.89 1.479 2.31 2.174.37.615.89 1.807.89 4.12 0 3.822-.93 5.648-1.54 6.522-.69.993-1.76 1.896-3.38 2.68-1.67.805-3.55 1.291-5.14 1.539-.76.119-1.35.179-1.7.199-.12.01-.21.01-.26.01H639.71c-1.11 0-3.119-.457-5.049-2.651-1.94-2.214-4.99-7.624-4.99-19.468 0-16.34-6.789-28.283-17.349-35.222-9.119-5.996-19.378-7.178-26.558-6.602h-29.878c-8.759 0-15.859 7.048-15.859 15.745 0 8.696 7.1 15.745 15.859 15.745h30.608c.57 0 1.13-.03 1.69-.089 1.91-.199 4.78.238 6.62 1.449.739.476 1.369 1.102 1.889 2.124.54 1.053 1.26 3.128 1.26 6.85 0 17.135 4.48 30.666 12.779 40.137 8.31 9.491 19.259 13.472 28.978 13.472h41.907v-15.745c0 15.745.01 15.745.02 15.745h.31c.14 0 .3-.01.5-.01.38-.01.87-.03 1.46-.08 1.17-.079 2.73-.238 4.57-.526 3.61-.576 8.669-1.767 13.919-4.299 5.31-2.561 11.169-6.661 15.679-13.173 4.6-6.642 7.119-14.822 7.119-24.352 0-16.083-8.289-26.924-18.148-33.029-7.92-4.894-16.639-6.721-22.979-7.088-.05-.169-.1-.367-.14-.566a15.458 15.458 0 01-.34-3.286zm-160.508 6.721c0-8.697-7.1-15.745-15.859-15.745-8.76 0-15.859 7.048-15.859 15.745v48.208h-40.197c-.89 0-1.77.069-2.64.218l2.64 15.527c-2.64-15.527-2.65-15.527-2.66-15.527h-.02l-.03.01-.08.01c-.05.01-.12.02-.19.03-.14.029-.3.059-.48.099-.37.079-.84.179-1.38.308-1.09.268-2.54.665-4.22 1.251-3.32 1.151-7.819 3.087-12.409 6.303-9.689 6.801-19.029 18.902-19.029 37.943 0 19.081 9.39 31.113 19.249 37.784 4.64 3.137 9.179 4.984 12.529 6.066 1.69.546 3.15.913 4.25 1.151.55.119 1.02.209 1.39.278.19.03.35.06.49.08l.19.029.08.01.04.01h.02c.01 0 .02 0 2.28-15.576l-2.27 15.586c.75.109 1.51.159 2.27.159h25.178c15.619 0 27.508-5.321 35.517-13.591 7.59-7.822 10.75-17.313 11.21-24.54.02-.328.03-.655.03-.983v-21.145h18.348c3.33-.08 8.29.774 11.809 2.839 1.58.923 2.55 1.906 3.15 2.879.55.883 1.2 2.422 1.2 5.212v9.818c-.23 4.537-.39 11.158.58 18.455l30.968-11.407c-.01-1.965.04-3.911.14-5.807.02-.278.03-.546.03-.824v-10.225c0-17.274-9.049-28.81-19.939-35.193-9.879-5.798-20.998-7.347-28.458-7.208h-17.828v-48.237h-.04zm66.255 112.111l-30.438 11.218c.43 2.204.98 4.437 1.66 6.681l29.088-14.981c-.13-.953-.23-1.936-.31-2.918zm1.19 7.435l-28.488 14.673c.41 1.052.86 2.095 1.35 3.127.6 1.271 1.27 2.542 1.99 3.792l26.058-18.723c-.35-.933-.65-1.886-.91-2.869zm2.95 6.83l-25.689 18.465a44.008 44.008 0 0012.73 11.923c4.919 3.048 10.479 5.182 16.618 6.413v-33.227c-1.44-.923-2.639-2.094-3.659-3.574zm8.109 5.5v32.016c2.82.348 5.75.526 8.779.526 8.76 0 15.859-7.048 15.859-15.745 0-8.696-7.099-15.745-15.859-15.745-3.719 0-6.579-.436-8.779-1.052zm-148.5-52.178h38.278v20.39c-.02.1-.04.209-.07.348-.08.347-.22.774-.42 1.251a9.271 9.271 0 01-1.88 2.839c-1.42 1.469-4.75 3.941-12.669 3.941h-23.449c-.19-.049-.419-.119-.659-.198-1.28-.407-2.9-1.092-4.42-2.125-2.47-1.668-5.4-4.547-5.4-11.764 0-7.267 2.98-10.374 5.62-12.22 1.57-1.102 3.23-1.837 4.539-2.294.18-.059.36-.119.53-.168z" fill="#0CAAE7"/><path d="M654.353 151.469c-2.14-.03-3.98-.804-5.51-2.323-1.53-1.519-2.31-3.355-2.33-5.51l-7.729-22.465c-.03-2.492 5.769-5.59 7.789-7.118l-.37-28.214-7.729.02c-1.26.02-2.34-.427-3.25-1.33-.91-.904-1.38-1.996-1.39-3.277l.03-9.143c.02-1.31.47-2.412 1.36-3.296.88-.883 1.99-1.33 3.31-1.35l24.488-.04h12.549c.02 1.281 0 1.37 0 18.416-3.29-.05-2-.04-3.29-.05l-10.289.02.42 28.363c2.06 1.578 7.689 4.487 7.729 6.979l-8.149 22.684c.03 2.154-.71 3.981-2.2 5.46-1.49 1.479-3.3 2.204-5.439 2.174z" fill="#0CAAE7"/><path fill-rule="evenodd" clip-rule="evenodd" d="M135.812 42.786c26.607-26.607 72.101-7.763 72.101 29.865v302.681h-32.221V237.739H42.824c-37.628 0-56.472-45.493-29.865-72.101L135.812 42.786zm39.88 162.732V72.651c0-8.922-10.788-13.39-17.097-7.081L35.743 188.422c-6.309 6.309-1.84 17.096 7.081 17.096h132.868zM831.69 42.786c-26.607-26.607-72.101-7.763-72.101 29.865v302.681h32.221V237.739h132.868c37.628 0 56.472-45.493 29.865-72.101L831.69 42.786zm-39.88 162.732V72.651c0-8.922 10.788-13.39 17.096-7.081l122.853 122.852c6.309 6.309 1.841 17.096-7.081 17.096H791.81z" fill="#0CAAE7"/></svg>