<svg width="169" height="36" fill="none" xmlns="http://www.w3.org/2000/svg"><path d="M23.07 13.536c3.806 0 6.89-3.03 6.89-6.768S26.876 0 23.07 0c-3.804 0-6.889 3.03-6.889 6.768s3.085 6.768 6.89 6.768z" fill="#0CAAE7"/><path fill-rule="evenodd" clip-rule="evenodd" d="M16.234 7.608c.46-3.95 3.874-7.02 8.018-7.02.786 0 1.544.11 2.262.316A6.954 6.954 0 0023.07 0c-3.806 0-6.89 3.03-6.89 6.768 0 .285.019.566.053.84z" fill="#1FB9F4"/><path fill-rule="evenodd" clip-rule="evenodd" d="M21.901 11.194c3.805 0 6.89-3.03 6.89-6.768 0-.606-.081-1.193-.234-1.751a6.662 6.662 0 011.403 4.094c0 3.738-3.084 6.768-6.89 6.768-3.187 0-5.87-2.127-6.655-5.016a6.919 6.919 0 005.486 2.673z" fill="#049DD8"/><path fill-rule="evenodd" clip-rule="evenodd" d="M23.07 21.622h-1.338v2.626c0-2.075-2.407-2.61-3.716-2.626h-.115V18.89s1.151 0 1.151-1.224-1.15-1.224-1.15-1.224v-3.859h10.314v3.86s-1.151 0-1.151 1.223c0 1.224 1.151 1.224 1.151 1.224v2.733h-.114c-1.303.016-3.62.55-3.62 2.626l-.092-2.626h-1.32z" fill="#0CAAE7"/><path d="M11.078 16.447c3.867 0 6.13-1.75 6.885-2.615v2.615h-6.885zm23.09 0c-3.866 0-5.237-1.75-5.993-2.615v2.615h5.993z" fill="#049DD8"/><path d="M17.887 18.895c.052-.005.104-.01.155-.017.314-.054.996-.289.996-1.309 0-1.118-1.15-1.118-1.15-1.118v-3.87h4.443c0 2.592-.856 5.892-4.289 6.298-.094.016-.155.016-.155.016zm10.288 0a4.321 4.321 0 01-.155-.017c-.314-.054-.996-.289-.996-1.309.063-1.122 1.151-1.122 1.151-1.122V12.58h-4.444c0 2.593.857 5.893 4.29 6.3a.999.999 0 00.154.015z" fill="#049DD8"/><path d="M26.279 14.327c1.387 0 2.512-1.105 2.512-2.468s-1.125-2.468-2.512-2.468c-1.388 0-2.512 1.105-2.512 2.468s1.124 2.468 2.512 2.468zm-6.415 0c1.387 0 2.512-1.105 2.512-2.468s-1.125-2.468-2.512-2.468c-1.388 0-2.512 1.105-2.512 2.468s1.124 2.468 2.512 2.468z" fill="#0CAAE7"/><path d="M27.334 12.471c0 .57-.47 1.035-1.055 1.035a1.045 1.045 0 01-1.056-1.035c0-.569.47-1.034 1.056-1.034.585 0 1.055.466 1.055 1.034z" fill="#fff"/><path fill-rule="evenodd" clip-rule="evenodd" d="M26.279 11.675a.806.806 0 00-.816.796c0 .435.361.797.816.797a.806.806 0 00.815-.797.806.806 0 00-.815-.796zm-1.296.796c0-.702.58-1.273 1.296-1.273.715 0 1.295.57 1.295 1.273s-.58 1.274-1.295 1.274a1.285 1.285 0 01-1.296-1.274z" fill="#0186B9"/><path d="M20.92 12.471c0 .57-.471 1.035-1.056 1.035a1.045 1.045 0 01-1.056-1.035c0-.569.47-1.034 1.056-1.034.585 0 1.055.466 1.055 1.034z" fill="#fff"/><path fill-rule="evenodd" clip-rule="evenodd" d="M19.864 11.675a.806.806 0 00-.816.796c0 .435.361.797.816.797a.806.806 0 00.815-.797.806.806 0 00-.815-.796zm-1.296.796c0-.702.58-1.273 1.296-1.273.715 0 1.295.57 1.295 1.273s-.58 1.274-1.295 1.274a1.285 1.285 0 01-1.296-1.274z" fill="#0186B9"/><path d="M37.525 17.792a96.25 96.25 0 01.039-1.533c.825.194 1.4.929 1.382 1.793a1.98 1.98 0 01-.983 1.652l-.047.027-1.8.036-.046-.026a1.781 1.781 0 01-.912-1.61 1.973 1.973 0 011.466-1.848l-.031 1.49a.464.464 0 00.475.471.464.464 0 00.457-.452z" fill="#0CAAE7"/><path d="M24.482 27.186h-2.758v1.177c1.468-.027 2.08 1.634 2.12 2.479.638-.775.662-1.707.638-2.094v-1.562zm-.222-11.442l-.01-.061c-.046-.252-.278-1.192-1.226-1.192-.931 0-1.172.908-1.224 1.178l-.012.075.012-.075.52-3.23h1.426l.504 3.245.01.06zm-1.213 2.292a.59.59 0 00.593-.589.59.59 0 00-.593-.588.59.59 0 00-.593.588.59.59 0 00.593.59zm2.658 1.536a.773.773 0 00-.422-1.012.782.782 0 00-1.02.419.773.773 0 00.422 1.012.782.782 0 001.02-.42zm.912-14.937c.613 0 1.11-.494 1.11-1.103 0-.608-.497-1.102-1.11-1.102-.613 0-1.11.494-1.11 1.102 0 .61.497 1.103 1.11 1.103zm-3.394-.715c.3 0 .544-.242.544-.54a.541.541 0 00-.544-.54c-.3 0-.543.242-.543.54 0 .298.243.54.543.54zm.719 17.333a.37.37 0 00.371-.37.37.37 0 00-.371-.368.37.37 0 00-.372.369.37.37 0 00.372.369zm.915-15.525a.37.37 0 00.372-.369.37.37 0 00-.372-.37.37.37 0 00-.372.37c0 .204.166.37.372.37zm9.945 19.722a.37.37 0 00.371-.368.37.37 0 00-.371-.37.37.37 0 00-.372.37.37.37 0 00.372.369zm-4.43-10.62a.37.37 0 00.372-.37.37.37 0 00-.372-.369.37.37 0 00-.372.37c0 .203.167.369.372.369zM21.18 25.45a.37.37 0 00.372-.368.37.37 0 00-.372-.37.37.37 0 00-.372.37.37.37 0 00.372.369zM7.596 24.448a.37.37 0 00.371-.369.37.37 0 00-.371-.37.37.37 0 00-.372.37c0 .204.166.37.372.37zm3.914-9.618a.37.37 0 00.372-.37.37.37 0 00-.372-.369.37.37 0 00-.372.37.37.37 0 00.372.369zm25.135 10.62a.37.37 0 00.372-.368.37.37 0 00-.372-.37.37.37 0 00-.372.37.37.37 0 00.372.369zm-4.43-10.62a.37.37 0 00.372-.37.37.37 0 00-.372-.369.37.37 0 00-.371.37.37.37 0 00.371.369zm-9.191 10.62a.37.37 0 00.371-.368.37.37 0 00-.371-.37.37.37 0 00-.372.37.37.37 0 00.372.369zM7.596 22.618a.37.37 0 00.371-.37.37.37 0 00-.371-.368.37.37 0 00-.372.369.37.37 0 00.372.369zm5.757-7.788a.37.37 0 00.372-.37.37.37 0 00-.372-.369.37.37 0 00-.372.37c0 .203.167.369.372.369zm25.136 10.62a.37.37 0 00.371-.368.37.37 0 00-.371-.37.37.37 0 00-.372.37.37.37 0 00.372.369zm-4.43-10.62a.37.37 0 00.372-.37.37.37 0 00-.372-.369.37.37 0 00-.372.37.37.37 0 00.372.369zm-9.192 10.62a.37.37 0 00.372-.368.37.37 0 00-.372-.37.37.37 0 00-.372.37.37.37 0 00.372.369zM7.596 20.788a.37.37 0 00.371-.37.37.37 0 00-.371-.369.37.37 0 00-.372.37.37.37 0 00.372.369zm7.601-5.958a.37.37 0 00.371-.37.37.37 0 00-.371-.369.37.37 0 00-.372.37.37.37 0 00.372.369z" fill="#049DD8"/><path d="M34.564 10.147h2.756v1.713h-2.756v-1.713zm-23.799-1.49h2.795c.266 0 .48.214.48.477v1.871a.479.479 0 01-.48.477h-2.795a.479.479 0 01-.48-.477v-1.87a.48.48 0 01.48-.478zm23.403 23.154v2.775a.479.479 0 01-.481.477h-1.884a.479.479 0 01-.48-.477v-2.775c0-.264.214-.477.48-.477h1.884c.266 0 .48.213.48.477z" fill="#0CAAE7"/><path d="M10.023 9.636c0-.264.215-.477.48-.477h3.321c.266 0 .48.213.48.477v.866a.479.479 0 01-.48.477h-3.32a.479.479 0 01-.481-.477v-.866zm23.159 21.437c.265 0 .48.213.48.477v3.297a.479.479 0 01-.48.477h-.873a.479.479 0 01-.48-.477V31.55c0-.264.215-.477.48-.477h.873zM1.712 18.026c0-.282.23-.51.514-.51H5.69v1.02H2.226a.513.513 0 01-.514-.51zM0 19.066h5.69v1.213H1.222A1.218 1.218 0 010 19.066z" fill="#0CAAE7"/><path d="M0 16.957c0-.282.23-.51.514-.51.284 0 .514.228.514.51v2.118H0v-2.118z" fill="#0CAAE7"/><path d="M2.259 19.067c-1.421-.02-1.236-.584-1.236-1.104H.838v1.39h1.42v-.286z" fill="#0CAAE7"/><path fill-rule="evenodd" clip-rule="evenodd" d="M8.927 9.004c0-.026 0-.052-.003-.078v.003l.001-.008c.003-.022.009-.083.033-.182.038-.152.1-.32.186-.465a.872.872 0 01.265-.295c.078-.05.2-.104.418-.104.344 0 .505.084.582.138a.756.756 0 01.242.315 1.763 1.763 0 01.154.67 1.376 1.376 0 001.36 1.377 1.377 1.377 0 001.402-1.35l-1.354-.02 1.354.019v-.07a4.195 4.195 0 00-.045-.534 4.509 4.509 0 00-.361-1.24 3.494 3.494 0 00-1.155-1.404c-.59-.415-1.323-.643-2.178-.643-1.563 0-2.545.874-3.065 1.752-.249.42-.401.85-.488 1.21-.076.31-.124.651-.11.95v3.841c0 1.315.554 2.258 1.295 2.842.667.525 1.438.722 1.95.722h8.815c.763 0 1.381-.614 1.381-1.371 0-.758-.618-1.371-1.381-1.371H9.448a.684.684 0 01-.273-.13.54.54 0 01-.156-.194 1.128 1.128 0 01-.093-.499V9.004h.001zm3.261 0l-1.381-.02 1.381.02zm25.136 2.227c0-.758-.618-1.371-1.38-1.371-.764 0-1.382.614-1.382 1.37v1.655c0 .327-.123.508-.26.626a.901.901 0 01-.374.189c-.028.006-.044.006-.045.006h-5.677c-.762 0-1.38.614-1.38 1.37 0 .758.618 1.372 1.38 1.372h5.677c.744 0 1.576-.303 2.23-.867.697-.6 1.211-1.516 1.211-2.696V11.23zM5.387 17.51c-.763 0-1.382.613-1.382 1.37 0 .758.619 1.372 1.382 1.372.42 0 .579.089.63.124.046.033.135.114.225.374.216.627.234 1.61.234 3.16 0 .857.211 1.593.602 2.193.387.594.896.975 1.371 1.216a4.34 4.34 0 001.798.456h.021a5.263 5.263 0 00.607-.01 5.24 5.24 0 001.429-.302c.544-.202 1.165-.555 1.648-1.167.497-.63.77-1.434.77-2.386 0-.995.344-1.516.665-1.808.344-.312.756-.446.996-.477h2.59c.762 0 1.38-.614 1.38-1.371 0-.758-.618-1.372-1.38-1.372h-2.66c-.038 0-.078.002-.116.006-.76.064-1.802.4-2.674 1.193-.917.833-1.563 2.1-1.563 3.83 0 .412-.108.602-.182.695-.086.11-.226.211-.443.29-.218.082-.46.121-.662.136a3.163 3.163 0 01-.275.006h-.004a2.765 2.765 0 00-.086-.004h-.02a1.546 1.546 0 01-.58-.155.768.768 0 01-.31-.264c-.067-.103-.16-.307-.16-.705v-.164c0-1.316.002-2.77-.383-3.884-.22-.635-.594-1.266-1.241-1.721-.645-.455-1.412-.631-2.227-.631zm33.078 2.157c0-.758-.618-1.372-1.381-1.372s-1.381.614-1.381 1.372c0 .512.097 1.19.438 1.794.375.666 1.09 1.277 2.152 1.277.181 0 .514.06.754.21a.59.59 0 01.202.189c.032.053.077.157.077.358 0 .333-.08.492-.134.568a.733.733 0 01-.294.234 1.65 1.65 0 01-.596.151l-.023.001h-3.635c-.097 0-.272-.04-.44-.23-.169-.194-.434-.665-.434-1.696 0-1.423-.592-2.463-1.511-3.067-.794-.523-1.688-.625-2.313-.575h-2.602c-.762 0-1.38.613-1.38 1.37 0 .758.618 1.372 1.38 1.372h2.666c.05 0 .098-.003.147-.008a.98.98 0 01.576.126.45.45 0 01.165.185c.047.092.11.273.11.597 0 1.492.39 2.67 1.113 3.495a3.36 3.36 0 002.523 1.173h3.649v-1.37c0 1.37.001 1.37.002 1.37h.071c.033-.002.075-.003.127-.008a4.419 4.419 0 001.61-.42c.462-.223.972-.58 1.365-1.147.4-.578.62-1.29.62-2.12 0-1.401-.722-2.345-1.58-2.877a4.378 4.378 0 00-2.001-.617 1.348 1.348 0 01-.042-.335zm-13.978.585c0-.758-.618-1.371-1.38-1.371-.763 0-1.382.613-1.382 1.37v4.199h-3.5c-.078 0-.154.006-.23.019l.23 1.352c-.23-1.352-.23-1.352-.232-1.352h-.004l-.007.002-.017.002-.041.009c-.032.007-.073.015-.12.027a4.407 4.407 0 00-1.448.658c-.844.592-1.658 1.646-1.658 3.304 0 1.661.818 2.709 1.677 3.29a4.343 4.343 0 001.582.653l.043.007.016.002.007.001h.005c.001 0 .002 0 .199-1.355l-.198 1.357a1.3 1.3 0 00.198.014h2.193c1.36 0 2.396-.464 3.093-1.184a3.458 3.458 0 00.976-2.137l.003-.085v-1.842h1.597c.29-.007.723.067 1.03.247.137.08.221.166.274.251.047.077.104.211.104.454v.855c-.02.395-.034.972.05 1.607l2.697-.993a8.76 8.76 0 01.015-.578v-.89c0-1.505-.788-2.509-1.736-3.065-.86-.505-1.829-.64-2.478-.627H24.49v-4.201h-.003zm5.77 9.763l-2.65.977c.037.191.085.386.144.581l2.533-1.304a4.784 4.784 0 01-.027-.254zm.104.647L27.88 31.94a4.107 4.107 0 00.29.602l2.27-1.63a2.585 2.585 0 01-.08-.25zm.257.595l-2.237 1.608c.277.389.64.749 1.108 1.038a4.35 4.35 0 001.447.559v-2.894a1.11 1.11 0 01-.318-.311zm.706.479v2.788c.245.03.5.046.764.046.763 0 1.381-.614 1.381-1.371 0-.758-.618-1.371-1.38-1.371-.325 0-.574-.038-.765-.092zm-12.932-4.544h3.333v1.776l-.006.03a.81.81 0 01-.2.356c-.124.128-.413.343-1.103.343h-2.042a1.518 1.518 0 01-.442-.202c-.215-.145-.47-.396-.47-1.024 0-.633.259-.904.489-1.064a1.632 1.632 0 01.441-.215z" fill="#0CAAE7"/><path d="M35.92 12.811a.672.672 0 01-.48-.202.661.661 0 01-.203-.48l-.673-1.956c-.003-.217.502-.487.678-.62l-.032-2.457-.673.002a.379.379 0 01-.283-.116.393.393 0 01-.121-.286l.002-.796a.4.4 0 01.407-.405l2.133-.003h1.093v1.604c-.287-.004-.175-.004-.287-.004l-.896.001.036 2.47c.18.138.67.39.674.608l-.71 1.975a.632.632 0 01-.192.476.633.633 0 01-.473.19z" fill="#0CAAE7"/><path d="M65.303 18.11c0 2.198-.593 4.013-1.783 5.447-1.19 1.434-2.743 2.152-4.665 2.152-1.914 0-3.462-.718-4.644-2.152-1.174-1.434-1.763-3.249-1.763-5.446v-.227c0-2.181.589-3.994 1.763-5.436 1.174-1.441 2.72-2.162 4.637-2.162 1.922 0 3.477.72 4.665 2.162 1.194 1.442 1.793 3.255 1.793 5.436v.227h-.003zm-2.834-.247c0-1.552-.305-2.812-.916-3.778-.611-.97-1.513-1.453-2.708-1.453-1.194 0-2.088.481-2.68 1.442-.583.961-.876 2.224-.876 3.789v.248c0 1.578.296 2.851.887 3.82.599.961 1.49 1.442 2.677 1.442 1.202 0 2.104-.48 2.707-1.442.604-.969.907-2.24.907-3.82v-.248h.002zm15.792-2.304h-2.114l-.292-1.997a2.935 2.935 0 00-1.061-.7c-.422-.17-.922-.256-1.5-.256-1.235 0-2.185.472-2.854 1.42-.662.948-.993 2.181-.993 3.706v.526c0 1.524.331 2.763.993 3.716.662.953 1.596 1.43 2.806 1.43.558 0 1.068-.084 1.528-.255.467-.171.828-.406 1.08-.7l.293-1.997h2.114v2.966c-.57.7-1.3 1.26-2.192 1.68-.884.41-1.874.616-2.97.616-1.901 0-3.46-.697-4.674-2.09-1.215-1.394-1.821-3.182-1.821-5.364v-.504c0-2.176.603-3.965 1.81-5.364 1.208-1.399 2.77-2.1 4.685-2.1 1.096 0 2.089.213 2.97.637.884.42 1.614.975 2.192 1.669v2.96zm5.986-5.057v5.55h2.434c1.642 0 2.943.425 3.895 1.276.954.844 1.432 1.974 1.432 3.389 0 1.433-.48 2.592-1.442 3.468-.96.873-2.256 1.308-3.887 1.308H79.88V23.69l1.52-.31V12.62l-1.52-.309V10.5h4.367v.003zm0 7.865v4.819h2.434c.799 0 1.412-.232 1.841-.7.435-.472.652-1.07.652-1.79 0-.687-.215-1.248-.644-1.68-.43-.433-1.046-.649-1.851-.649h-2.432zm1.518-7.865v1.813l-1.52.31v-2.12h1.52v-.003zm21.138 3.903l-.058-.01-3.798 11.098h-1.91l-3.778-11.058-.058.01.273 6.578v2.358l1.52.31v1.802h-5.872V23.69l1.51-.31V12.62l-1.51-.309V10.5h5.22l3.615 11.048h.058l3.641-11.048h5.241v1.813l-1.52.31V23.38l1.52.31v1.802h-5.872V23.69l1.51-.31v-2.358l.268-6.618zm11.312-3.903v1.813l-1.518.31v6.938l.058.021 5.718-6.127v-.833l-1.51-.31v-1.812h5.871v1.813l-1.51.31v10.759l1.51.31v1.801h-5.871v-1.802l1.51-.31V16.61l-.061-.021-5.715 6.135v.66l1.518.31v1.801h-5.872v-1.802l1.52-.31V12.625l-1.52-.31v-1.812h5.872zm9.842 1.813v-1.813h5.871v1.813l-1.517.31v4.324h5.783v-4.325l-1.518-.31v-1.812h5.872v1.813l-1.518.31v10.759l1.518.31v1.801h-5.872v-1.802l1.518-.31v-4.119h-5.783v4.117l1.517.31v1.802h-5.871V23.69l1.51-.31V12.62l-1.51-.306zm28.765 5.796c0 2.197-.596 4.012-1.783 5.446-1.189 1.434-2.743 2.152-4.665 2.152-1.916 0-3.465-.718-4.646-2.152-1.175-1.434-1.763-3.249-1.763-5.446v-.227c0-2.181.588-3.994 1.763-5.436 1.176-1.441 2.72-2.162 4.636-2.162 1.922 0 3.475.72 4.665 2.162 1.195 1.442 1.793 3.255 1.793 5.436v.227zm-2.836-.248c0-1.552-.306-2.812-.914-3.778-.611-.97-1.513-1.453-2.708-1.453-1.194 0-2.088.481-2.679 1.442-.584.961-.877 2.224-.877 3.789v.248c0 1.578.296 2.851.887 3.82.598.961 1.49 1.442 2.679 1.442 1.2 0 2.104-.48 2.708-1.442.603-.969.904-2.24.904-3.82v-.248zm4.26 5.828l1.511-.31V12.62l-1.511-.309V10.5H169v3.8h-2.182l-.116-1.482H162.6V23.38l1.521.31v1.802h-5.875V23.69z" fill="#0D4C77"/></svg>