<svg width="615" height="615" fill="none" xmlns="http://www.w3.org/2000/svg"><circle opacity=".5" cx="307.5" cy="307.5" r="307.5" fill="url(#paint0_radial)"/><g opacity=".45" clip-path="url(#clip0)" fill="#0D4C77"><path d="M329.284 203.321c39.958 0 72.351-32.084 72.351-71.661 0-39.576-32.393-71.66-72.351-71.66-39.959 0-72.352 32.084-72.352 71.66 0 39.577 32.393 71.661 72.352 71.661z"/><path fill-rule="evenodd" clip-rule="evenodd" d="M257.49 140.557c4.819-41.83 40.684-74.324 84.203-74.324a85.365 85.365 0 0123.748 3.341C354.806 63.487 342.461 60 329.284 60c-39.962 0-72.352 32.082-72.352 71.66 0 3.012.193 5.987.558 8.897zm59.513 37.968c39.952 0 72.351-32.082 72.351-71.661 0-6.416-.85-12.631-2.451-18.544 9.246 12.036 14.732 27.057 14.732 43.35 0 39.578-32.39 71.66-72.351 71.66-33.478 0-61.652-22.526-69.901-53.116 13.214 17.208 34.1 28.311 57.62 28.311z"/><path fill-rule="evenodd" clip-rule="evenodd" d="M329.284 288.931H315.22v27.807c0-21.977-25.276-27.642-39.02-27.807h-1.207v-28.933s12.089 0 12.089-12.961-12.089-12.961-12.089-12.961v-40.86h108.326v40.86s-12.089 0-12.089 12.961 12.089 12.961 12.089 12.961v28.933h-1.198c-13.689.165-38.014 5.83-38.014 27.807l-.969-27.807h-13.854z"/><path d="M203.336 234.14c40.611 0 64.369-18.536 72.306-27.689v27.689h-72.306zm242.486 0c-40.602 0-54.996-18.536-62.933-27.689v27.689h62.933z"/><path d="M274.847 260.052a44.97 44.97 0 001.627-.173c3.301-.577 10.462-3.058 10.462-13.858 0-11.845-12.089-11.845-12.089-11.845v-40.979h46.673c0 27.451-8.998 62.389-45.046 66.691-.987.164-1.627.164-1.627.164zm108.042 0c-.549-.045-1.088-.109-1.628-.173-3.301-.577-10.461-3.058-10.461-13.858.658-11.881 12.089-11.881 12.089-11.881v-40.952h-46.674c0 27.451 9.008 62.389 45.046 66.691.988.173 1.628.173 1.628.173z"/><path d="M362.972 211.696c14.571 0 26.382-11.7 26.382-26.132 0-14.433-11.811-26.133-26.382-26.133-14.57 0-26.382 11.7-26.382 26.133 0 14.432 11.812 26.132 26.382 26.132zm-67.367 0c14.57 0 26.382-11.7 26.382-26.132 0-14.433-11.812-26.133-26.382-26.133-14.571 0-26.382 11.7-26.382 26.133 0 14.432 11.811 26.132 26.382 26.132z"/><path d="M374.055 192.044c0 6.023-4.938 10.957-11.083 10.957-6.145 0-11.083-4.934-11.083-10.957 0-6.023 4.938-10.956 11.083-10.956 6.145 0 11.083 4.933 11.083 10.956zm-67.367 0c0 6.023-4.938 10.957-11.083 10.957-6.145 0-11.084-4.934-11.084-10.957 0-6.023 4.939-10.956 11.084-10.956s11.083 4.933 11.083 10.956zm174.386 56.338c.237-10.819.384-16.238.411-16.238 8.669 2.06 14.705 9.84 14.512 18.993-.155 7.204-4.133 13.803-10.315 17.483l-.493.293-18.902.375-.485-.275a18.775 18.775 0 01-7.132-7.148 19.438 19.438 0 01-2.451-9.904c.192-9.153 6.556-17.19 15.399-19.56l-.329 15.771c-.064 2.782 2.213 5.052 4.993 4.997 2.615-.046 4.728-2.16 4.792-4.787zm-136.967 99.459h-28.961v12.467c15.409-.293 21.837 17.299 22.258 26.242 6.703-8.201 6.95-18.078 6.703-22.169v-16.54zm-2.341-121.143l-.101-.65c-.475-2.663-2.917-12.622-12.875-12.622-9.775 0-12.308 9.611-12.848 12.476l-.128.796s.037-.293.128-.796l5.45-34.206h14.988l5.285 34.361c.074.403.101.641.101.641zm-12.729 24.265a6.23 6.23 0 006.227-6.233 6.23 6.23 0 00-6.227-6.233 6.23 6.23 0 00-6.227 6.233 6.23 6.23 0 006.227 6.233zm27.909 16.259c1.732-4.185-.254-8.983-4.434-10.716a8.192 8.192 0 00-10.706 4.439c-1.732 4.184.254 8.982 4.434 10.715a8.19 8.19 0 0010.706-4.438zm9.583-158.152c6.44 0 11.66-5.225 11.66-11.67s-5.22-11.67-11.66-11.67c-6.439 0-11.659 5.225-11.659 11.67s5.22 11.67 11.659 11.67zm-35.645-7.569a5.709 5.709 0 005.706-5.712 5.708 5.708 0 00-5.706-5.712 5.709 5.709 0 00-5.706 5.712 5.71 5.71 0 005.706 5.712zm7.544 183.521a3.906 3.906 0 003.905-3.908 3.906 3.906 0 10-7.809 0 3.906 3.906 0 003.904 3.908zm9.611-164.373a3.907 3.907 0 003.905-3.908 3.907 3.907 0 00-3.905-3.909 3.907 3.907 0 00-3.904 3.909 3.906 3.906 0 003.904 3.908zm104.44 208.821a3.906 3.906 0 003.904-3.908 3.906 3.906 0 10-7.809 0 3.906 3.906 0 003.905 3.908zm-46.518-112.456a3.906 3.906 0 003.904-3.908 3.907 3.907 0 00-3.904-3.909 3.907 3.907 0 00-3.905 3.909 3.907 3.907 0 003.905 3.908zm-96.53 112.456a3.906 3.906 0 003.905-3.908 3.906 3.906 0 10-7.81 0 3.907 3.907 0 003.905 3.908zm-142.663-10.617a3.907 3.907 0 003.904-3.909 3.906 3.906 0 00-3.904-3.908 3.907 3.907 0 00-3.905 3.908 3.907 3.907 0 003.905 3.909zm41.104-101.839a3.907 3.907 0 003.905-3.908 3.907 3.907 0 00-3.905-3.909 3.907 3.907 0 00-3.905 3.909 3.907 3.907 0 003.905 3.908zM471.838 329.47a3.906 3.906 0 003.904-3.908 3.906 3.906 0 10-7.809 0 3.906 3.906 0 003.905 3.908zM425.32 217.014a3.906 3.906 0 003.904-3.908 3.907 3.907 0 00-3.904-3.909 3.907 3.907 0 00-3.905 3.909 3.907 3.907 0 003.905 3.908zM328.79 329.47a3.906 3.906 0 003.905-3.908 3.906 3.906 0 10-7.81 0 3.907 3.907 0 003.905 3.908zm-162.022-29.995a3.906 3.906 0 003.904-3.908 3.907 3.907 0 00-3.904-3.909 3.907 3.907 0 00-3.905 3.909 3.907 3.907 0 003.905 3.908zm60.463-82.461a3.907 3.907 0 003.905-3.908 3.907 3.907 0 00-3.905-3.909 3.907 3.907 0 00-3.905 3.909 3.907 3.907 0 003.905 3.908zM491.197 329.47a3.906 3.906 0 003.904-3.908 3.906 3.906 0 10-7.809 0 3.906 3.906 0 003.905 3.908zm-46.519-112.456a3.907 3.907 0 003.905-3.908 3.907 3.907 0 00-3.905-3.909 3.907 3.907 0 00-3.904 3.909 3.906 3.906 0 003.904 3.908zM348.149 329.47a3.907 3.907 0 003.905-3.908 3.906 3.906 0 10-7.81 0 3.906 3.906 0 003.905 3.908zm-181.381-49.372a3.906 3.906 0 003.904-3.908 3.907 3.907 0 00-3.904-3.909 3.907 3.907 0 00-3.905 3.909 3.907 3.907 0 003.905 3.908zm79.822-63.084a3.907 3.907 0 003.905-3.908 3.907 3.907 0 00-3.905-3.909 3.907 3.907 0 00-3.905 3.909 3.907 3.907 0 003.905 3.908zm203.392-49.583h28.943v18.142h-28.943v-18.142zM200.054 151.66h29.353a5.048 5.048 0 015.048 5.053v19.807a5.048 5.048 0 01-5.048 5.053h-29.353a5.048 5.048 0 01-5.048-5.053v-19.807c.009-2.792 2.268-5.053 5.048-5.053zm245.768 245.151v29.381a5.049 5.049 0 01-5.048 5.053h-19.789a5.049 5.049 0 01-5.048-5.053v-29.381a5.049 5.049 0 015.048-5.053h19.789a5.049 5.049 0 015.048 5.053z"/><path d="M192.253 162.022a5.049 5.049 0 015.048-5.053h34.877a5.049 5.049 0 015.048 5.053v9.171a5.049 5.049 0 01-5.048 5.053h-34.877a5.049 5.049 0 01-5.048-5.053v-9.171zM435.47 388.994a5.047 5.047 0 015.039 5.052v34.911a5.047 5.047 0 01-5.039 5.052h-9.163a5.049 5.049 0 01-5.048-5.052v-34.911a5.049 5.049 0 015.048-5.052h9.163zM104.978 250.853c0-2.983 2.414-5.4 5.395-5.4h36.386v10.81h-36.386a5.41 5.41 0 01-5.395-5.41zM87 261.865h59.759v12.842h-46.93C92.744 274.698 87 268.949 87 261.865z"/><path d="M87 239.54a5.396 5.396 0 1110.79 0v22.426H87V239.54z"/><path d="M110.721 261.874c-14.924-.211-12.976-6.178-12.976-11.68h-1.948v14.71h14.924v-3.03z"/><path fill-rule="evenodd" clip-rule="evenodd" d="M180.749 155.331c0-.275-.009-.55-.027-.824v.036s.009-.027.009-.091c.028-.229.092-.879.348-1.922.393-1.611 1.042-3.387 1.947-4.925.897-1.519 1.857-2.526 2.79-3.13.813-.531 2.103-1.098 4.389-1.098 3.603 0 5.304.897 6.108 1.464.933.659 1.802 1.712 2.543 3.332.768 1.657 1.207 3.515 1.435 5.089a18.4 18.4 0 01.174 1.703c.009.155.009.265.009.302-.036 7.945 6.328 14.462 14.284 14.581 8.011.119 14.604-6.279 14.723-14.298l-14.22-.21c14.22.21 14.22.21 14.22.201v-.741c-.01-.357-.019-.815-.046-1.364a45.016 45.016 0 00-.43-4.293c-.485-3.387-1.518-8.155-3.795-13.116-2.304-5.007-6.054-10.572-12.126-14.874-6.2-4.394-13.89-6.81-22.87-6.81-16.414 0-26.729 9.253-32.189 18.553-2.615 4.458-4.215 9.007-5.13 12.815-.795 3.286-1.298 6.892-1.152 10.05v40.677c0 13.922 5.816 23.908 13.598 30.086 7.005 5.556 15.107 7.643 20.484 7.643h92.57c8.01 0 14.503-6.499 14.503-14.517s-6.493-14.517-14.503-14.517h-92.177a7.4 7.4 0 01-2.862-1.373c-.631-.494-1.189-1.135-1.637-2.05-.439-.906-.979-2.526-.979-5.281v-41.098h.009zm34.247 0c-14.43-.22-14.504-.211-14.504-.211v-.009l14.504.22zm263.974 23.578c0-8.018-6.492-14.517-14.503-14.517s-14.503 6.499-14.503 14.517v17.51c0 3.469-1.29 5.382-2.734 6.636a9.458 9.458 0 01-2.744 1.648 7.489 7.489 0 01-1.179.348c-.302.064-.467.064-.476.064h-59.613c-8.01 0-14.503 6.499-14.503 14.517s6.493 14.517 14.503 14.517h59.613c7.81 0 16.552-3.204 23.428-9.181 7.307-6.361 12.711-16.054 12.711-28.549v-17.51zm-335.402 66.48c-8.011 0-14.503 6.499-14.503 14.517s6.492 14.517 14.503 14.517c4.417 0 6.081.943 6.611 1.318.494.348 1.427 1.208 2.369 3.954 2.277 6.636 2.46 17.053 2.46 33.455 0 9.08 2.222 16.87 6.328 23.222 4.06 6.288 9.409 10.325 14.393 12.879 4.911 2.507 9.648 3.679 13.04 4.247 1.729.283 3.201.43 4.307.503.549.037 1.015.055 1.381.064.055 0 .101 0 .156.009.073 0 .146.009.219.009.384.019.896.037 1.509.046a55.66 55.66 0 004.865-.155c3.859-.284 9.309-1.062 15.006-3.195 5.715-2.142 12.235-5.876 17.31-12.366 5.222-6.673 8.075-15.176 8.075-25.254 0-10.535 3.621-16.054 6.996-19.148 3.612-3.304 7.937-4.723 10.461-5.053h27.187c8.01 0 14.503-6.498 14.503-14.517 0-8.018-6.493-14.517-14.503-14.517h-27.928c-.402 0-.814.019-1.216.055-7.974.678-18.92 4.229-28.083 12.632-9.629 8.823-16.414 22.233-16.414 40.558 0 4.356-1.134 6.37-1.911 7.359-.906 1.162-2.378 2.233-4.646 3.075-2.295.861-4.828 1.273-6.959 1.428a33.026 33.026 0 01-2.377.083c-.256 0-.439-.01-.512-.019h-.037c-.302-.018-.604-.027-.905-.036-.037 0-.11 0-.22-.01a13.482 13.482 0 01-1.509-.183c-1.417-.238-3.09-.686-4.59-1.455-1.436-.732-2.487-1.638-3.237-2.792-.704-1.089-1.683-3.249-1.683-7.46v-1.739c.009-13.931.018-29.327-4.024-41.125-2.304-6.719-6.236-13.4-13.03-18.224-6.777-4.815-14.833-6.682-23.392-6.682zm347.382 22.837c0-8.018-6.493-14.517-14.504-14.517-8.01 0-14.503 6.499-14.503 14.517 0 5.428 1.024 12.613 4.6 19.002 3.941 7.048 11.44 13.52 22.605 13.52 1.902 0 5.395.64 7.919 2.215 1.088.686 1.729 1.364 2.113 2.004.338.568.813 1.666.813 3.799 0 3.524-.85 5.208-1.408 6.014-.631.915-1.609 1.748-3.091 2.471-1.527.741-3.246 1.19-4.7 1.419-.695.109-1.234.164-1.554.183-.11.009-.192.009-.238.009h-38.179c-1.015 0-2.853-.421-4.618-2.444-1.774-2.041-4.563-7.03-4.563-17.949 0-15.067-6.209-26.078-15.865-32.476-8.34-5.529-17.722-6.618-24.288-6.087h-27.324c-8.011 0-14.503 6.499-14.503 14.517s6.492 14.517 14.503 14.517h27.991c.522 0 1.034-.027 1.546-.082 1.746-.183 4.371.219 6.053 1.336.677.439 1.253 1.016 1.729 1.959.494.97 1.152 2.883 1.152 6.316 0 15.798 4.097 28.274 11.687 37.006 7.599 8.75 17.612 12.421 26.5 12.421h38.325v-14.517c0 14.517.009 14.517.018 14.517h.284c.128 0 .274-.009.457-.009.348-.009.796-.028 1.335-.074a48.103 48.103 0 004.179-.485c3.301-.531 7.929-1.629 12.729-3.963 4.856-2.362 10.215-6.142 14.339-12.146 4.206-6.124 6.511-13.666 6.511-22.453 0-14.828-7.581-24.824-16.597-30.453-7.243-4.512-15.217-6.197-21.014-6.535a6.33 6.33 0 01-.129-.522c-.21-.952-.31-2.014-.31-3.03zm-146.788 6.197c0-8.018-6.493-14.517-14.503-14.517-8.011 0-14.503 6.499-14.503 14.517v44.448h-36.761c-.814 0-1.619.064-2.415.201l2.415 14.316c-2.415-14.316-2.424-14.316-2.433-14.316h-.018l-.028.01-.073.009c-.045.009-.109.018-.173.027-.129.028-.275.055-.439.092-.339.073-.769.164-1.262.283-.997.248-2.323.614-3.859 1.154-3.036 1.062-7.151 2.846-11.349 5.812-8.861 6.27-17.402 17.428-17.402 34.984 0 17.592 8.587 28.686 17.603 34.837 4.244 2.892 8.395 4.595 11.459 5.592 1.545.504 2.88.842 3.886 1.062.503.11.933.192 1.271.256.174.028.32.055.448.074l.174.027.073.009.037.009h.018c.009 0 .018 0 2.085-14.361l-2.076 14.371a14.4 14.4 0 002.076.146h23.026c14.283 0 25.156-4.906 32.481-12.531 6.941-7.213 9.83-15.963 10.251-22.627.018-.302.027-.604.027-.906v-19.496h16.781c3.045-.073 7.58.714 10.799 2.618 1.445.851 2.332 1.757 2.881 2.654.503.815 1.097 2.234 1.097 4.806v9.052c-.21 4.183-.356 10.288.531 17.016l28.32-10.517a94.262 94.262 0 01.128-5.355c.018-.256.028-.503.028-.759v-9.428c0-15.927-8.276-26.563-18.235-32.448-9.034-5.346-19.203-6.774-26.025-6.646h-16.305v-44.475h-.036zm60.591 103.367l-27.835 10.343a62.805 62.805 0 001.518 6.16l26.601-13.812a51.185 51.185 0 01-.284-2.691zm1.089 6.856l-26.053 13.528a43.99 43.99 0 001.234 2.884 49.336 49.336 0 001.82 3.496l23.831-17.263a27.58 27.58 0 01-.832-2.645zm2.697 6.297l-23.492 17.025a40.387 40.387 0 0011.641 10.993c4.499 2.81 9.583 4.778 15.198 5.913v-30.635c-1.317-.852-2.414-1.932-3.347-3.296zm7.416 5.071v29.519c2.579.321 5.259.485 8.029.485 8.011 0 14.504-6.498 14.504-14.517 0-8.018-6.493-14.517-14.504-14.517-3.401 0-6.017-.402-8.029-.97zM280.15 347.905h35.006v18.801c-.019.091-.037.192-.065.32-.073.32-.201.714-.384 1.153a8.534 8.534 0 01-1.719 2.618c-1.298 1.355-4.343 3.634-11.586 3.634h-21.444a10.57 10.57 0 01-.603-.183c-1.171-.375-2.652-1.007-4.042-1.959-2.259-1.538-4.938-4.192-4.938-10.846 0-6.701 2.725-9.566 5.139-11.268 1.436-1.016 2.954-1.693 4.152-2.114.164-.055.329-.11.484-.156z"/><path d="M464.22 195.641c-1.957-.027-3.639-.741-5.038-2.141-1.4-1.401-2.113-3.094-2.131-5.081l-7.069-20.713c-.027-2.298 5.277-5.153 7.124-6.563l-.339-26.013-7.068.018c-1.152.018-2.14-.394-2.972-1.227-.832-.833-1.262-1.839-1.271-3.02l.027-8.43c.018-1.209.43-2.225 1.244-3.039.805-.815 1.82-1.227 3.027-1.245l22.395-.037h11.476c.018 1.181 0 1.263 0 16.98-3.009-.046-1.829-.037-3.009-.046l-9.409.018.384 26.151c1.883 1.455 7.032 4.137 7.068 6.434l-7.452 20.916c.027 1.986-.65 3.67-2.012 5.034-1.363 1.364-3.018 2.032-4.975 2.004z"/></g><defs><radialGradient id="paint0_radial" cx="0" cy="0" r="1" gradientUnits="userSpaceOnUse" gradientTransform="rotate(90 0 307.5) scale(307.5)"><stop stop-color="#0CAAE7"/><stop offset="1" stop-color="#0CAAE7" stop-opacity="0"/></radialGradient><clipPath id="clip0"><path fill="#fff" transform="translate(87 60)" d="M0 0h442v374H0z"/></clipPath></defs></svg>