<svg width="1264" height="1265" fill="none" xmlns="http://www.w3.org/2000/svg"><ellipse opacity=".5" cx="632" cy="632.5" rx="632" ry="632.5" fill="url(#paint0_radial)"/><g opacity=".45" clip-path="url(#clip0)" fill="#0D4C77"><path d="M572.16 550.547c75.397 0 136.518-60.564 136.518-135.274C708.678 340.564 647.557 280 572.16 280c-75.397 0-136.518 60.564-136.518 135.273 0 74.71 61.121 135.274 136.518 135.274z"/><path fill-rule="evenodd" clip-rule="evenodd" d="M436.694 432.068c9.094-78.963 76.766-140.301 158.88-140.301 15.564 0 30.593 2.194 44.811 6.306C620.318 286.583 597.024 280 572.16 280c-75.402 0-136.518 60.561-136.518 135.273 0 5.685.362 11.301 1.052 16.795zm112.293 71.671c75.385 0 136.518-60.561 136.518-135.273 0-12.112-1.604-23.844-4.624-35.006 17.445 22.721 27.797 51.075 27.797 81.831 0 74.712-61.115 135.273-136.518 135.273-63.169 0-116.33-42.522-131.894-100.267 24.933 32.484 64.342 53.442 108.721 53.442z"/><path fill-rule="evenodd" clip-rule="evenodd" d="M572.16 712.153h-26.537v52.492c0-41.486-47.692-52.181-73.626-52.492h-2.277v-54.618s22.81 0 22.81-24.466-22.81-24.466-22.81-24.466v-77.132h204.397v77.132s-22.81 0-22.81 24.466 22.81 24.466 22.81 24.466v54.618h-2.26c-25.83.311-71.727 11.006-71.727 52.492l-1.829-52.492H572.16z"/><path d="M334.513 608.724c76.627 0 121.455-34.989 136.432-52.268v52.268H334.513zm457.539 0c-76.61 0-103.769-34.989-118.746-52.268v52.268h118.746z"/><path d="M469.444 657.639a86.86 86.86 0 003.071-.328c6.229-1.089 19.739-5.771 19.739-26.16 0-22.358-22.81-22.358-22.81-22.358v-77.356h88.067c0 51.818-16.979 117.77-84.996 125.891-1.864.311-3.071.311-3.071.311zm203.862 0c-1.035-.086-2.053-.207-3.071-.328-6.229-1.089-19.739-5.771-19.739-26.16 1.242-22.427 22.81-22.427 22.81-22.427V531.42h-88.067c0 51.818 16.996 117.77 84.996 125.891 1.864.328 3.071.328 3.071.328z"/><path d="M635.726 566.357c27.492 0 49.779-22.086 49.779-49.33 0-27.245-22.287-49.33-49.779-49.33-27.493 0-49.78 22.085-49.78 49.33 0 27.244 22.287 49.33 49.78 49.33zm-127.115 0c27.493 0 49.78-22.086 49.78-49.33 0-27.245-22.287-49.33-49.78-49.33-27.492 0-49.779 22.085-49.779 49.33 0 27.244 22.287 49.33 49.779 49.33z"/><path d="M656.638 529.26c0 11.369-9.317 20.682-20.912 20.682-11.595 0-20.913-9.313-20.913-20.682 0-11.369 9.318-20.683 20.913-20.683s20.912 9.314 20.912 20.683zm-127.114 0c0 11.369-9.318 20.682-20.913 20.682s-20.912-9.313-20.912-20.682c0-11.369 9.317-20.683 20.912-20.683 11.595 0 20.913 9.314 20.913 20.683zm329.045 106.349c.448-20.423.724-30.652.776-30.652 16.358 3.888 27.746 18.574 27.383 35.853-.293 13.598-7.799 26.056-19.463 33.002l-.932.553-35.665.708-.914-.518a35.45 35.45 0 01-13.459-13.495c-3.158-5.65-4.762-12.095-4.624-18.695.362-17.279 12.371-32.449 29.057-36.924l-.622 29.771c-.12 5.252 4.176 9.537 9.421 9.434 4.935-.087 8.921-4.078 9.042-9.037zM600.13 823.357h-54.646v23.534c29.074-.553 41.204 32.656 41.998 49.537 12.648-15.481 13.114-34.125 12.648-41.848v-31.223zm-4.417-228.681l-.19-1.227c-.898-5.028-5.504-23.827-24.295-23.827-18.445 0-23.224 18.143-24.242 23.551l-.242 1.503s.069-.553.242-1.503l10.283-64.57h28.281l9.973 64.864c.138.76.19 1.209.19 1.209zm-24.019 45.806c6.49 0 11.751-5.269 11.751-11.767 0-6.499-5.261-11.767-11.751-11.767-6.489 0-11.75 5.268-11.75 11.767 0 6.498 5.261 11.767 11.75 11.767zm52.661 30.691c3.268-7.9-.478-16.956-8.367-20.228-7.889-3.273-16.932.479-20.2 8.378-3.268 7.9.478 16.956 8.367 20.228 7.889 3.273 16.932-.479 20.2-8.378zm18.083-298.543c12.15 0 21.999-9.863 21.999-22.03 0-12.167-9.849-22.03-21.999-22.03-12.15 0-22 9.863-22 22.03 0 12.167 9.85 22.03 22 22.03zm-67.258-14.289c5.946 0 10.766-4.827 10.766-10.782s-4.82-10.782-10.766-10.782c-5.947 0-10.767 4.827-10.767 10.782s4.82 10.782 10.767 10.782zm14.235 346.434c4.069 0 7.367-3.303 7.367-7.378s-3.298-7.378-7.367-7.378-7.368 3.303-7.368 7.378 3.299 7.378 7.368 7.378zm18.134-310.288c4.069 0 7.368-3.303 7.368-7.378 0-4.074-3.299-7.377-7.368-7.377-4.069 0-7.368 3.303-7.368 7.377 0 4.075 3.299 7.378 7.368 7.378zm197.065 394.192c4.069 0 7.367-3.303 7.367-7.378 0-4.074-3.298-7.378-7.367-7.378s-7.368 3.304-7.368 7.378c0 4.075 3.299 7.378 7.368 7.378zM716.84 576.396c4.069 0 7.367-3.304 7.367-7.378 0-4.075-3.298-7.378-7.367-7.378s-7.368 3.303-7.368 7.378c0 4.074 3.299 7.378 7.368 7.378zM534.7 788.679c4.069 0 7.368-3.303 7.368-7.378 0-4.074-3.299-7.378-7.368-7.378-4.069 0-7.367 3.304-7.367 7.378 0 4.075 3.298 7.378 7.367 7.378zm-269.188-20.043c4.069 0 7.367-3.303 7.367-7.378 0-4.074-3.298-7.378-7.367-7.378s-7.368 3.304-7.368 7.378c0 4.075 3.299 7.378 7.368 7.378zm77.559-192.24c4.069 0 7.368-3.304 7.368-7.378 0-4.075-3.299-7.378-7.368-7.378-4.069 0-7.368 3.303-7.368 7.378 0 4.074 3.299 7.378 7.368 7.378zm498.071 212.283c4.069 0 7.367-3.303 7.367-7.378 0-4.074-3.298-7.378-7.367-7.378s-7.368 3.304-7.368 7.378c0 4.075 3.299 7.378 7.368 7.378zm-87.774-212.283c4.069 0 7.367-3.304 7.367-7.378 0-4.075-3.298-7.378-7.367-7.378S746 564.943 746 569.018c0 4.074 3.299 7.378 7.368 7.378zm-182.14 212.283c4.069 0 7.368-3.303 7.368-7.378 0-4.074-3.299-7.378-7.368-7.378-4.069 0-7.367 3.304-7.367 7.378 0 4.075 3.298 7.378 7.367 7.378zm-305.716-56.621c4.069 0 7.367-3.304 7.367-7.378 0-4.075-3.298-7.378-7.367-7.378s-7.368 3.303-7.368 7.378c0 4.074 3.299 7.378 7.368 7.378zm114.087-155.662c4.069 0 7.368-3.304 7.368-7.378 0-4.075-3.299-7.378-7.368-7.378-4.069 0-7.368 3.303-7.368 7.378 0 4.074 3.299 7.378 7.368 7.378zM877.67 788.679c4.069 0 7.367-3.303 7.367-7.378 0-4.074-3.298-7.378-7.367-7.378-4.07 0-7.368 3.304-7.368 7.378 0 4.075 3.298 7.378 7.368 7.378zm-87.774-212.283c4.069 0 7.367-3.304 7.367-7.378 0-4.075-3.298-7.378-7.367-7.378-4.07 0-7.368 3.303-7.368 7.378 0 4.074 3.298 7.378 7.368 7.378zm-182.14 212.283c4.069 0 7.368-3.303 7.368-7.378 0-4.074-3.299-7.378-7.368-7.378-4.069 0-7.367 3.304-7.367 7.378 0 4.075 3.298 7.378 7.367 7.378zm-342.244-93.2c4.069 0 7.367-3.303 7.367-7.378s-3.298-7.378-7.367-7.378-7.368 3.303-7.368 7.378 3.299 7.378 7.368 7.378zm150.615-119.083c4.069 0 7.368-3.304 7.368-7.378 0-4.075-3.299-7.378-7.368-7.378-4.069 0-7.368 3.303-7.368 7.378 0 4.074 3.299 7.378 7.368 7.378zm383.776-93.598h54.611v34.246h-54.611v-34.246zm-471.585-29.771h55.388c5.262 0 9.524 4.268 9.524 9.538v37.39c0 5.27-4.262 9.538-9.524 9.538h-55.388c-5.262 0-9.524-4.268-9.524-9.538v-37.39c.017-5.27 4.279-9.538 9.524-9.538zm463.734 462.77v55.464c0 5.27-4.262 9.538-9.524 9.538h-37.339c-5.263 0-9.525-4.268-9.525-9.538v-55.464c0-5.269 4.262-9.537 9.525-9.537h37.339c5.262 0 9.524 4.268 9.524 9.537z"/><path d="M313.6 472.586c0-5.27 4.262-9.537 9.525-9.537h65.809c5.262 0 9.524 4.267 9.524 9.537v17.313c0 5.27-4.262 9.538-9.524 9.538h-65.809c-5.263 0-9.525-4.268-9.525-9.538v-17.313zm458.92 428.456c5.246 0 9.507 4.267 9.507 9.537v65.901c0 5.269-4.261 9.537-9.507 9.537h-17.289c-5.263 0-9.524-4.268-9.524-9.537v-65.901c0-5.27 4.261-9.537 9.524-9.537h17.289zM148.923 640.274c0-5.633 4.555-10.194 10.18-10.194h68.656v20.406h-68.656a10.21 10.21 0 01-10.18-10.212zM115 661.06h112.759v24.242h-88.551C125.836 685.285 115 674.434 115 661.06z"/><path d="M115 618.918c0-5.633 4.555-10.194 10.18-10.194s10.18 4.561 10.18 10.194v42.332H115v-42.332z"/><path d="M159.758 661.078c-28.159-.398-24.484-11.663-24.484-22.048h-3.675v27.767h28.159v-5.719z"/><path fill-rule="evenodd" clip-rule="evenodd" d="M291.894 459.956c0-.519-.017-1.037-.052-1.555v.069s.017-.052.017-.173c.052-.432.173-1.659.656-3.629.742-3.041 1.967-6.393 3.675-9.295 1.691-2.869 3.503-4.769 5.263-5.91 1.536-1.002 3.968-2.073 8.282-2.073 6.798 0 10.008 1.693 11.526 2.765 1.76 1.244 3.399 3.231 4.797 6.289 1.449 3.127 2.278 6.635 2.709 9.607a35.26 35.26 0 01.328 3.214c.017.293.017.501.017.57-.069 14.998 11.94 27.3 26.952 27.524 15.115.225 27.555-11.853 27.78-26.989l-26.831-.397c26.831.397 26.831.397 26.831.38v-1.399c-.018-.674-.035-1.538-.087-2.575a84.753 84.753 0 00-.811-8.104c-.914-6.393-2.864-15.395-7.16-24.76-4.348-9.451-11.423-19.956-22.88-28.077-11.698-8.294-26.21-12.855-43.154-12.855-30.972 0-50.435 17.468-60.736 35.023-4.935 8.415-7.954 17.002-9.68 24.19-1.501 6.203-2.45 13.011-2.174 18.972v76.786c0 26.28 10.974 45.131 25.658 56.794 13.217 10.488 28.505 14.428 38.65 14.428h174.668c15.115 0 27.366-12.268 27.366-27.404s-12.251-27.404-27.366-27.404H302.212a13.35 13.35 0 01-1.277-.363c-1.363-.466-2.847-1.209-4.124-2.229-1.19-.933-2.243-2.142-3.088-3.87-.828-1.711-1.846-4.769-1.846-9.97v-77.58h.017zm64.618 0c-27.227-.415-27.365-.398-27.365-.398v-.017l27.365.415zM854.6 504.465c0-15.136-12.251-27.404-27.366-27.404s-27.365 12.268-27.365 27.404v33.054c0 6.549-2.433 10.16-5.159 12.527a17.899 17.899 0 01-5.177 3.11c-.863.328-1.622.536-2.226.657-.569.121-.88.121-.897.121H673.927c-15.115 0-27.365 12.267-27.365 27.403s12.25 27.404 27.365 27.404H786.41c14.736 0 31.231-6.047 44.206-17.33 13.787-12.009 23.984-30.307 23.984-53.892v-33.054zM221.737 629.959c-15.115 0-27.366 12.268-27.366 27.404s12.251 27.403 27.366 27.403c8.334 0 11.474 1.78 12.475 2.489.932.656 2.692 2.28 4.469 7.464 4.296 12.527 4.641 32.19 4.641 63.153 0 17.14 4.193 31.844 11.94 43.835 7.661 11.871 17.755 19.491 27.159 24.311 9.266 4.735 18.204 6.946 24.605 8.018 3.261.535 6.039.812 8.127.95a62.42 62.42 0 002.606.121c.103 0 .189 0 .293.017.138 0 .276.017.414.017a88.53 88.53 0 002.847.087c2.312.034 5.452-.017 9.179-.294 7.282-.536 17.566-2.004 28.315-6.03 10.784-4.043 23.087-11.093 32.663-23.343 9.852-12.596 15.236-28.648 15.236-47.672 0-19.887 6.833-30.306 13.2-36.147 6.815-6.237 14.977-8.915 19.739-9.537h51.298c15.115 0 27.366-12.268 27.366-27.404s-12.251-27.404-27.366-27.404h-52.696c-.759 0-1.535.035-2.295.104-15.046 1.279-35.699 7.983-52.988 23.844-18.169 16.657-30.972 41.97-30.972 76.561 0 8.225-2.14 12.026-3.607 13.892-1.708 2.195-4.486 4.216-8.765 5.806-4.331 1.624-9.11 2.402-13.131 2.695a61.509 61.509 0 01-4.486.156c-.483 0-.828-.017-.966-.035h-.069a57.481 57.481 0 00-1.708-.069c-.069 0-.207 0-.414-.017a25.577 25.577 0 01-2.847-.346c-2.675-.449-5.832-1.296-8.662-2.747-2.709-1.382-4.693-3.093-6.108-5.27-1.329-2.056-3.175-6.134-3.175-14.082v-3.283c.017-26.298.034-55.36-7.592-77.632-4.348-12.683-11.768-25.296-24.588-34.402-12.786-9.088-27.987-12.613-44.137-12.613zm655.467 43.11c0-15.136-12.251-27.404-27.366-27.404s-27.366 12.268-27.366 27.404c0 10.246 1.933 23.81 8.679 35.87 7.437 13.305 21.586 25.52 42.654 25.52 3.588 0 10.18 1.21 14.942 4.182 2.053 1.296 3.261 2.574 3.986 3.784.638 1.071 1.535 3.145 1.535 7.17 0 6.653-1.604 9.832-2.657 11.352-1.19 1.728-3.037 3.301-5.832 4.666-2.881 1.399-6.125 2.246-8.869 2.678-1.311.207-2.329.311-2.933.345-.207.018-.362.018-.449.018h-72.037c-1.916 0-5.384-.795-8.714-4.614-3.347-3.853-8.61-13.27-8.61-33.883 0-28.44-11.716-49.226-29.937-61.304-15.736-10.436-33.439-12.492-45.828-11.49h-51.557c-15.115 0-27.365 12.267-27.365 27.403s12.25 27.404 27.365 27.404h52.817c.983 0 1.95-.052 2.916-.155 3.295-.346 8.248.414 11.422 2.522 1.277.83 2.364 1.918 3.261 3.698.932 1.831 2.174 5.443 2.174 11.922 0 29.823 7.731 53.373 22.052 69.857 14.338 16.518 33.232 23.447 50.004 23.447h72.314v-27.404c0 27.404.017 27.404.034 27.404h.535c.242 0 .518-.017.863-.017a42.757 42.757 0 002.519-.138 91.731 91.731 0 007.885-.916c6.229-1.002 14.96-3.076 24.019-7.482 9.162-4.458 19.273-11.594 27.055-22.928C944.652 780.42 949 766.183 949 749.595c0-27.991-14.304-46.859-31.317-57.485-13.666-8.518-28.712-11.698-39.651-12.337a11.851 11.851 0 01-.242-.985c-.397-1.797-.586-3.801-.586-5.719zm-276.971 11.697c0-15.136-12.251-27.403-27.366-27.403s-27.365 12.267-27.365 27.403v83.905h-69.364c-1.535 0-3.054.121-4.555.38l4.555 27.024c-4.555-27.024-4.572-27.024-4.589-27.024h-.035l-.052.017-.138.018a6.79 6.79 0 01-.328.051c-.241.052-.517.104-.828.173-.638.138-1.449.311-2.381.536a79.757 79.757 0 00-7.281 2.177c-5.729 2.004-13.493 5.374-21.413 10.972-16.72 11.836-32.836 32.898-32.836 66.038 0 33.21 16.202 54.151 33.215 65.762 8.006 5.46 15.84 8.674 21.62 10.557a76.536 76.536 0 007.334 2.005c.949.207 1.759.363 2.398.484.328.051.604.103.845.138.121.017.225.034.328.052l.138.017.069.017h.035c.017 0 .034 0 3.934-27.11l-3.917 27.127c1.294.191 2.605.277 3.917.277h43.447c26.951 0 47.467-9.261 61.288-23.654 13.096-13.616 18.549-30.134 19.342-42.713.035-.57.052-1.14.052-1.71v-36.804h31.662c5.746-.138 14.304 1.348 20.378 4.942 2.726 1.607 4.4 3.317 5.435 5.011.949 1.538 2.071 4.216 2.071 9.071v17.088c-.397 7.897-.673 19.422 1.001 32.121l53.437-19.853c-.017-3.421.069-6.808.242-10.108.034-.484.051-.95.051-1.434v-17.797c0-30.064-15.615-50.142-34.405-61.252-17.048-10.091-36.235-12.786-49.107-12.544h-30.765v-83.957h-.069zm114.329 195.127l-52.523 19.524a118.999 118.999 0 002.864 11.629l50.194-26.073a95.73 95.73 0 01-.535-5.08zm2.053 12.941l-49.158 25.538a83.331 83.331 0 002.329 5.443 93.014 93.014 0 003.434 6.6l44.965-32.587a52.833 52.833 0 01-1.57-4.994zm5.09 11.888l-44.327 32.138c5.505 7.775 12.7 14.963 21.966 20.752 8.489 5.304 18.082 9.019 28.677 11.161v-57.831c-2.485-1.607-4.556-3.646-6.316-6.22zm13.994 9.572v55.723c4.866.605 9.921.916 15.149.916 15.115 0 27.366-12.268 27.366-27.404s-12.251-27.403-27.366-27.403c-6.418 0-11.353-.76-15.149-1.832zm-256.248-90.816h66.051v35.49c-.035.173-.069.363-.121.605-.138.605-.38 1.348-.725 2.177a16.134 16.134 0 01-3.244 4.942c-2.45 2.557-8.196 6.859-21.861 6.859h-40.462a18.942 18.942 0 01-1.139-.345c-2.209-.708-5.004-1.901-7.627-3.698-4.261-2.902-9.317-7.913-9.317-20.475 0-12.648 5.142-18.056 9.697-21.27 2.709-1.917 5.573-3.196 7.834-3.991.31-.104.621-.207.914-.294z"/><path d="M826.769 536.05c-3.693-.052-6.868-1.399-9.508-4.043-2.64-2.644-3.986-5.84-4.02-9.589l-13.338-39.102c-.052-4.337 9.956-9.728 13.441-12.388l-.638-49.106-13.338.035c-2.174.034-4.037-.743-5.607-2.316-1.571-1.572-2.382-3.473-2.399-5.702l.052-15.913c.034-2.281.811-4.199 2.347-5.737 1.518-1.537 3.433-2.315 5.711-2.349l42.256-.07h21.655c.034 2.229 0 2.385 0 32.052-5.677-.086-3.451-.069-5.677-.086l-17.755.034.725 49.365c3.554 2.747 13.268 7.81 13.337 12.147l-14.062 39.481c.052 3.75-1.225 6.929-3.796 9.503-2.571 2.575-5.694 3.836-9.386 3.784z"/></g><defs><radialGradient id="paint0_radial" cx="0" cy="0" r="1" gradientUnits="userSpaceOnUse" gradientTransform="scale(632 632.5) rotate(90 0 1)"><stop stop-color="#0CAAE7"/><stop offset="1" stop-color="#0CAAE7" stop-opacity="0"/></radialGradient><clipPath id="clip0"><path fill="#fff" transform="translate(115 280)" d="M0 0h834v706H0z"/></clipPath></defs></svg>