<svg width="16" height="16" fill="none" xmlns="http://www.w3.org/2000/svg"><g clip-path="url(#clip0)"><path fill-rule="evenodd" clip-rule="evenodd" d="M13.77 9.23c.531.518 1.091 1.006 1.567 1.576.21.254.41.515.562.81.216.418.02.878-.355.903l-2.33-.001c-.602.05-1.082-.193-1.485-.604-.322-.328-.621-.678-.932-1.018a2.206 2.206 0 00-.42-.373c-.317-.206-.593-.143-.775.189-.186.337-.228.711-.246 1.087-.025.55-.19.693-.742.719-1.178.055-2.296-.123-3.335-.718-.916-.524-1.626-1.263-2.245-2.1C1.831 8.067.91 6.276.081 4.433c-.187-.415-.05-.637.408-.645.76-.015 1.52-.014 2.282-.001.309.004.513.181.633.473A14.146 14.146 0 004.95 7.128c.169.237.34.475.585.642.27.185.476.123.603-.178.08-.19.116-.396.134-.6.06-.704.068-1.407-.037-2.108-.065-.437-.312-.72-.748-.803-.223-.042-.19-.125-.082-.253.187-.219.363-.355.715-.355h2.634c.415.081.507.268.564.685l.002 2.926c-.005.162.08.641.372.748.232.076.386-.11.526-.258.63-.67 1.08-1.46 1.483-2.28.178-.36.332-.734.48-1.108.11-.277.284-.413.596-.407l2.535.002c.075 0 .152.001.224.014.428.072.545.256.413.673-.208.655-.613 1.2-1.008 1.748-.423.585-.875 1.15-1.295 1.739-.385.537-.354.808.124 1.275z" fill="#0CAAE7"/></g><defs><clipPath id="clip0"><path fill="#fff" d="M0 0h16v16H0z"/></clipPath></defs></svg>