<svg width="72" height="10" fill="none" xmlns="http://www.w3.org/2000/svg"><path fill-rule="evenodd" clip-rule="evenodd" d="M60.956 0h9.948l-.365 1.268H72l-2.164 7.464h-1.461L68.009 10h-9.976l.365-1.268h-1.265l2.164-7.464h1.293L60.955 0zm6.547 2.479l-1.46 4.986h-4.554l1.462-4.986h4.553zM42.436 0H31.194L28.3 10h11.24l.394-1.352h1.517l.73-2.45h-1.517l.647-2.283h1.573l.731-2.45h-1.602L42.436 0zm-4.89 7.465H33.19l.337-1.183h4.356l-.337 1.183zm1.068-3.662l.393-1.352h-4.356l-.393 1.352h4.356zM56.571 0H45.33l-2.894 10h11.212l.394-1.352h1.518l.73-2.45h-1.517l.646-2.283h1.602l.73-2.45H56.15L56.57 0zM51.71 7.465h-4.356l.337-1.183h4.356l-.337 1.183zm1.04-3.662l.393-1.352h-4.356l-.393 1.352h4.355z" fill="#B2B3B9"/><path d="M21.415 0h-4.188l-2.894 10h12.336l.816-2.535H19.25l.28-.986h8.32l.73-2.45h-8.347l.45-1.55h8.234l.73-2.45L21.416 0zm-9.977 0h4.16l-2.895 10H8.515l.31-1.099H7.418l.422-1.267H6.21L5.789 8.9H4.496L4.187 10H0L2.895 0h4.159L5.536 5.268h1.377l.45-1.353h1.518l-.45 1.353h1.433L11.438 0z" fill="#B2B3B9"/></svg>