<svg width="24" height="24" viewBox="0 0 24 24" fill="none" xmlns="http://www.w3.org/2000/svg">
<path d="M18.5027 12.0002C18.5027 12.2765 18.2788 12.5004 18.0025 12.5004C17.7262 12.5004 17.5023 12.2765 17.5023 12.0002C17.5023 11.724 17.7262 11.5 18.0025 11.5C18.2788 11.5 18.5027 11.724 18.5027 12.0002" stroke="url(#paint0_linear)" stroke-width="1.5" stroke-linecap="round" stroke-linejoin="round"/>
<path d="M12.5002 12.0002C12.5002 12.2765 12.2763 12.5004 12 12.5004C11.7237 12.5004 11.4998 12.2765 11.4998 12.0002C11.4998 11.724 11.7237 11.5 12 11.5C12.2763 11.5 12.5002 11.724 12.5002 12.0002" stroke="url(#paint1_linear)" stroke-width="1.5" stroke-linecap="round" stroke-linejoin="round"/>
<path d="M6.4977 12.0002C6.4977 12.2765 6.27375 12.5004 5.99749 12.5004C5.72123 12.5004 5.49728 12.2765 5.49728 12.0002C5.49728 11.724 5.72123 11.5 5.99749 11.5C6.27375 11.5 6.4977 11.724 6.4977 12.0002" stroke="url(#paint2_linear)" stroke-width="1.5" stroke-linecap="round" stroke-linejoin="round"/>
<defs>
<linearGradient id="paint0_linear" x1="17.5296" y1="12.5004" x2="18.6961" y2="12.1571" gradientUnits="userSpaceOnUse">
<stop stop-color="#85FFC4"/>
<stop offset="0.411458" stop-color="#5CC6FF"/>
<stop offset="0.854167" stop-color="#BC85FF"/>
</linearGradient>
<linearGradient id="paint1_linear" x1="11.5271" y1="12.5004" x2="12.6936" y2="12.1571" gradientUnits="userSpaceOnUse">
<stop stop-color="#85FFC4"/>
<stop offset="0.411458" stop-color="#5CC6FF"/>
<stop offset="0.854167" stop-color="#BC85FF"/>
</linearGradient>
<linearGradient id="paint2_linear" x1="5.52457" y1="12.5004" x2="6.69109" y2="12.1571" gradientUnits="userSpaceOnUse">
<stop stop-color="#85FFC4"/>
<stop offset="0.411458" stop-color="#5CC6FF"/>
<stop offset="0.854167" stop-color="#BC85FF"/>
</linearGradient>
</defs>
</svg>
