<svg xmlns="http://www.w3.org/2000/svg" xmlns:xlink="http://www.w3.org/1999/xlink" width="36" height="36" viewBox="0 0 36 36">
  <defs>
    <filter id="Oval" x="0" y="0" width="36" height="36" filterUnits="userSpaceOnUse">
      <feOffset dy="3" input="SourceAlpha"/>
      <feGaussianBlur stdDeviation="3" result="blur"/>
      <feFlood flood-opacity="0.161"/>
      <feComposite operator="in" in2="blur"/>
      <feComposite in="SourceGraphic"/>
    </filter>
  </defs>
  <g id="Bitcoin">
    <g transform="matrix(1, 0, 0, 1, -9, -6)" filter="url(#Oval)">
      <ellipse id="Oval-2" data-name="Oval" cx="18" cy="18" rx="18" ry="18" transform="translate(9 6)" fill="#f99100"/>
    </g>
    <path id="Bitcoin-2" data-name="Bitcoin" d="M4.339,15.964H2.9V13.518h-.01c-.074,0-.22,0-.5-.005-.221,0-.394,0-.516,0H0l.291-1.755h1.04a.506.506,0,0,0,.543-.489V7.406h.15a.906.906,0,0,0-.15-.01V4.643a.75.75,0,0,0-.834-.652H0V2.418l1.987.01c.39,0,.7,0,.909-.01V0H4.339V2.37c.531-.013.894-.019,1.143-.019V0H6.925V2.418a8.184,8.184,0,0,1,1.312.216A4.228,4.228,0,0,1,9.3,3.065a2.18,2.18,0,0,1,.773.748,2.5,2.5,0,0,1,.342,1.1A2.3,2.3,0,0,1,9.185,7.387a2.816,2.816,0,0,1,1.64.988,2.907,2.907,0,0,1,.422,2.053,3.725,3.725,0,0,1-.3,1.2,2.654,2.654,0,0,1-.6.854,3.062,3.062,0,0,1-.909.561,5.47,5.47,0,0,1-1.139.331,11.116,11.116,0,0,1-1.364.144v2.446H5.483V13.556c-.5,0-.885,0-1.143-.01v2.418ZM5.417,8.5c-.161,0-.364,0-.6.009-.265.007-.4.01-.445.01v3.243l.347,0c.194,0,.337,0,.45,0s.288,0,.5-.014.391-.022.548-.038.332-.043.535-.081a3.524,3.524,0,0,0,.52-.135,3.159,3.159,0,0,0,.445-.2,1.314,1.314,0,0,0,.37-.288,1.358,1.358,0,0,0,.229-.384,1.4,1.4,0,0,0-.052-1.1,1.438,1.438,0,0,0-.347-.441,1.774,1.774,0,0,0-.539-.292,4.47,4.47,0,0,0-.614-.178,5.49,5.49,0,0,0-.693-.086C5.794,8.51,5.576,8.5,5.417,8.5ZM4.375,7.041l.316.005.247,0,.188,0c.08,0,.248-.009.469-.019a3.9,3.9,0,0,0,.516-.052c.14-.026.3-.062.483-.106a1.575,1.575,0,0,0,.454-.177,2.6,2.6,0,0,0,.347-.259.929.929,0,0,0,.253-.369,1.369,1.369,0,0,0,.084-.489,1.29,1.29,0,0,0-.117-.561,1.344,1.344,0,0,0-.286-.4,1.4,1.4,0,0,0-.45-.269,3.107,3.107,0,0,0-.516-.158,5.072,5.072,0,0,0-.576-.077c-.193-.016-.357-.025-.487-.025H5.244l-.462.009H4.737l-.37.005V7.042Z" transform="translate(12.366 10.018)" fill="#fff"/>
  </g>
</svg>
