<svg id="Component_2_1" data-name="Component 2 – 1" xmlns="http://www.w3.org/2000/svg" xmlns:xlink="http://www.w3.org/1999/xlink" width="395" height="306" viewBox="0 0 395 306">
  <defs>
    <clipPath id="clip-path">
      <rect width="241" height="306" fill="none"/>
    </clipPath>
    <linearGradient id="linear-gradient" x1="0.911" y1="0.069" x2="-0.123" y2="1" gradientUnits="objectBoundingBox">
      <stop offset="0" stop-color="#ff1fd4"/>
      <stop offset="1" stop-color="#0020ff"/>
    </linearGradient>
  </defs>
  <g id="Repeat_Grid_3" data-name="Repeat Grid 3" opacity="0.072" clip-path="url(#clip-path)">
    <g transform="translate(954 6391)">
      <circle id="Ellipse_67" data-name="Ellipse 67" cx="3.5" cy="3.5" r="3.5" transform="translate(-954 -6391)" fill="#0762e8"/>
      <circle id="Ellipse_68" data-name="Ellipse 68" cx="3.5" cy="3.5" r="3.5" transform="translate(-932 -6391)" fill="#0762e8"/>
      <circle id="Ellipse_69" data-name="Ellipse 69" cx="3.5" cy="3.5" r="3.5" transform="translate(-910 -6391)" fill="#0762e8"/>
      <circle id="Ellipse_70" data-name="Ellipse 70" cx="3.5" cy="3.5" r="3.5" transform="translate(-888 -6391)" fill="#0762e8"/>
      <circle id="Ellipse_71" data-name="Ellipse 71" cx="3.5" cy="3.5" r="3.5" transform="translate(-866 -6391)" fill="#0762e8"/>
    </g>
    <g transform="translate(1064 6391)">
      <circle id="Ellipse_67-2" data-name="Ellipse 67" cx="3.5" cy="3.5" r="3.5" transform="translate(-954 -6391)" fill="#0762e8"/>
      <circle id="Ellipse_68-2" data-name="Ellipse 68" cx="3.5" cy="3.5" r="3.5" transform="translate(-932 -6391)" fill="#0762e8"/>
      <circle id="Ellipse_69-2" data-name="Ellipse 69" cx="3.5" cy="3.5" r="3.5" transform="translate(-910 -6391)" fill="#0762e8"/>
      <circle id="Ellipse_70-2" data-name="Ellipse 70" cx="3.5" cy="3.5" r="3.5" transform="translate(-888 -6391)" fill="#0762e8"/>
      <circle id="Ellipse_71-2" data-name="Ellipse 71" cx="3.5" cy="3.5" r="3.5" transform="translate(-866 -6391)" fill="#0762e8"/>
    </g>
    <g transform="translate(1174 6391)">
      <circle id="Ellipse_67-3" data-name="Ellipse 67" cx="3.5" cy="3.5" r="3.5" transform="translate(-954 -6391)" fill="#0762e8"/>
      <circle id="Ellipse_68-3" data-name="Ellipse 68" cx="3.5" cy="3.5" r="3.5" transform="translate(-932 -6391)" fill="#0762e8"/>
      <circle id="Ellipse_69-3" data-name="Ellipse 69" cx="3.5" cy="3.5" r="3.5" transform="translate(-910 -6391)" fill="#0762e8"/>
      <circle id="Ellipse_70-3" data-name="Ellipse 70" cx="3.5" cy="3.5" r="3.5" transform="translate(-888 -6391)" fill="#0762e8"/>
      <circle id="Ellipse_71-3" data-name="Ellipse 71" cx="3.5" cy="3.5" r="3.5" transform="translate(-866 -6391)" fill="#0762e8"/>
    </g>
    <g transform="translate(954 6418)">
      <circle id="Ellipse_67-4" data-name="Ellipse 67" cx="3.5" cy="3.5" r="3.5" transform="translate(-954 -6391)" fill="#0762e8"/>
      <circle id="Ellipse_68-4" data-name="Ellipse 68" cx="3.5" cy="3.5" r="3.5" transform="translate(-932 -6391)" fill="#0762e8"/>
      <circle id="Ellipse_69-4" data-name="Ellipse 69" cx="3.5" cy="3.5" r="3.5" transform="translate(-910 -6391)" fill="#0762e8"/>
      <circle id="Ellipse_70-4" data-name="Ellipse 70" cx="3.5" cy="3.5" r="3.5" transform="translate(-888 -6391)" fill="#0762e8"/>
      <circle id="Ellipse_71-4" data-name="Ellipse 71" cx="3.5" cy="3.5" r="3.5" transform="translate(-866 -6391)" fill="#0762e8"/>
    </g>
    <g transform="translate(1064 6418)">
      <circle id="Ellipse_67-5" data-name="Ellipse 67" cx="3.5" cy="3.5" r="3.5" transform="translate(-954 -6391)" fill="#0762e8"/>
      <circle id="Ellipse_68-5" data-name="Ellipse 68" cx="3.5" cy="3.5" r="3.5" transform="translate(-932 -6391)" fill="#0762e8"/>
      <circle id="Ellipse_69-5" data-name="Ellipse 69" cx="3.5" cy="3.5" r="3.5" transform="translate(-910 -6391)" fill="#0762e8"/>
      <circle id="Ellipse_70-5" data-name="Ellipse 70" cx="3.5" cy="3.5" r="3.5" transform="translate(-888 -6391)" fill="#0762e8"/>
      <circle id="Ellipse_71-5" data-name="Ellipse 71" cx="3.5" cy="3.5" r="3.5" transform="translate(-866 -6391)" fill="#0762e8"/>
    </g>
    <g transform="translate(1174 6418)">
      <circle id="Ellipse_67-6" data-name="Ellipse 67" cx="3.5" cy="3.5" r="3.5" transform="translate(-954 -6391)" fill="#0762e8"/>
      <circle id="Ellipse_68-6" data-name="Ellipse 68" cx="3.5" cy="3.5" r="3.5" transform="translate(-932 -6391)" fill="#0762e8"/>
      <circle id="Ellipse_69-6" data-name="Ellipse 69" cx="3.5" cy="3.5" r="3.5" transform="translate(-910 -6391)" fill="#0762e8"/>
      <circle id="Ellipse_70-6" data-name="Ellipse 70" cx="3.5" cy="3.5" r="3.5" transform="translate(-888 -6391)" fill="#0762e8"/>
      <circle id="Ellipse_71-6" data-name="Ellipse 71" cx="3.5" cy="3.5" r="3.5" transform="translate(-866 -6391)" fill="#0762e8"/>
    </g>
    <g transform="translate(954 6445)">
      <circle id="Ellipse_67-7" data-name="Ellipse 67" cx="3.5" cy="3.5" r="3.5" transform="translate(-954 -6391)" fill="#0762e8"/>
      <circle id="Ellipse_68-7" data-name="Ellipse 68" cx="3.5" cy="3.5" r="3.5" transform="translate(-932 -6391)" fill="#0762e8"/>
      <circle id="Ellipse_69-7" data-name="Ellipse 69" cx="3.5" cy="3.5" r="3.5" transform="translate(-910 -6391)" fill="#0762e8"/>
      <circle id="Ellipse_70-7" data-name="Ellipse 70" cx="3.5" cy="3.5" r="3.5" transform="translate(-888 -6391)" fill="#0762e8"/>
      <circle id="Ellipse_71-7" data-name="Ellipse 71" cx="3.5" cy="3.5" r="3.5" transform="translate(-866 -6391)" fill="#0762e8"/>
    </g>
    <g transform="translate(1064 6445)">
      <circle id="Ellipse_67-8" data-name="Ellipse 67" cx="3.5" cy="3.5" r="3.5" transform="translate(-954 -6391)" fill="#0762e8"/>
      <circle id="Ellipse_68-8" data-name="Ellipse 68" cx="3.5" cy="3.5" r="3.5" transform="translate(-932 -6391)" fill="#0762e8"/>
      <circle id="Ellipse_69-8" data-name="Ellipse 69" cx="3.5" cy="3.5" r="3.5" transform="translate(-910 -6391)" fill="#0762e8"/>
      <circle id="Ellipse_70-8" data-name="Ellipse 70" cx="3.5" cy="3.5" r="3.5" transform="translate(-888 -6391)" fill="#0762e8"/>
      <circle id="Ellipse_71-8" data-name="Ellipse 71" cx="3.5" cy="3.5" r="3.5" transform="translate(-866 -6391)" fill="#0762e8"/>
    </g>
    <g transform="translate(1174 6445)">
      <circle id="Ellipse_67-9" data-name="Ellipse 67" cx="3.5" cy="3.5" r="3.5" transform="translate(-954 -6391)" fill="#0762e8"/>
      <circle id="Ellipse_68-9" data-name="Ellipse 68" cx="3.5" cy="3.5" r="3.5" transform="translate(-932 -6391)" fill="#0762e8"/>
      <circle id="Ellipse_69-9" data-name="Ellipse 69" cx="3.5" cy="3.5" r="3.5" transform="translate(-910 -6391)" fill="#0762e8"/>
      <circle id="Ellipse_70-9" data-name="Ellipse 70" cx="3.5" cy="3.5" r="3.5" transform="translate(-888 -6391)" fill="#0762e8"/>
      <circle id="Ellipse_71-9" data-name="Ellipse 71" cx="3.5" cy="3.5" r="3.5" transform="translate(-866 -6391)" fill="#0762e8"/>
    </g>
    <g transform="translate(954 6472)">
      <circle id="Ellipse_67-10" data-name="Ellipse 67" cx="3.5" cy="3.5" r="3.5" transform="translate(-954 -6391)" fill="#0762e8"/>
      <circle id="Ellipse_68-10" data-name="Ellipse 68" cx="3.5" cy="3.5" r="3.5" transform="translate(-932 -6391)" fill="#0762e8"/>
      <circle id="Ellipse_69-10" data-name="Ellipse 69" cx="3.5" cy="3.5" r="3.5" transform="translate(-910 -6391)" fill="#0762e8"/>
      <circle id="Ellipse_70-10" data-name="Ellipse 70" cx="3.5" cy="3.5" r="3.5" transform="translate(-888 -6391)" fill="#0762e8"/>
      <circle id="Ellipse_71-10" data-name="Ellipse 71" cx="3.5" cy="3.5" r="3.5" transform="translate(-866 -6391)" fill="#0762e8"/>
    </g>
    <g transform="translate(1064 6472)">
      <circle id="Ellipse_67-11" data-name="Ellipse 67" cx="3.5" cy="3.5" r="3.5" transform="translate(-954 -6391)" fill="#0762e8"/>
      <circle id="Ellipse_68-11" data-name="Ellipse 68" cx="3.5" cy="3.5" r="3.5" transform="translate(-932 -6391)" fill="#0762e8"/>
      <circle id="Ellipse_69-11" data-name="Ellipse 69" cx="3.5" cy="3.5" r="3.5" transform="translate(-910 -6391)" fill="#0762e8"/>
      <circle id="Ellipse_70-11" data-name="Ellipse 70" cx="3.5" cy="3.5" r="3.5" transform="translate(-888 -6391)" fill="#0762e8"/>
      <circle id="Ellipse_71-11" data-name="Ellipse 71" cx="3.5" cy="3.5" r="3.5" transform="translate(-866 -6391)" fill="#0762e8"/>
    </g>
    <g transform="translate(1174 6472)">
      <circle id="Ellipse_67-12" data-name="Ellipse 67" cx="3.5" cy="3.5" r="3.5" transform="translate(-954 -6391)" fill="#0762e8"/>
      <circle id="Ellipse_68-12" data-name="Ellipse 68" cx="3.5" cy="3.5" r="3.5" transform="translate(-932 -6391)" fill="#0762e8"/>
      <circle id="Ellipse_69-12" data-name="Ellipse 69" cx="3.5" cy="3.5" r="3.5" transform="translate(-910 -6391)" fill="#0762e8"/>
      <circle id="Ellipse_70-12" data-name="Ellipse 70" cx="3.5" cy="3.5" r="3.5" transform="translate(-888 -6391)" fill="#0762e8"/>
      <circle id="Ellipse_71-12" data-name="Ellipse 71" cx="3.5" cy="3.5" r="3.5" transform="translate(-866 -6391)" fill="#0762e8"/>
    </g>
    <g transform="translate(954 6499)">
      <circle id="Ellipse_67-13" data-name="Ellipse 67" cx="3.5" cy="3.5" r="3.5" transform="translate(-954 -6391)" fill="#0762e8"/>
      <circle id="Ellipse_68-13" data-name="Ellipse 68" cx="3.5" cy="3.5" r="3.5" transform="translate(-932 -6391)" fill="#0762e8"/>
      <circle id="Ellipse_69-13" data-name="Ellipse 69" cx="3.5" cy="3.5" r="3.5" transform="translate(-910 -6391)" fill="#0762e8"/>
      <circle id="Ellipse_70-13" data-name="Ellipse 70" cx="3.5" cy="3.5" r="3.5" transform="translate(-888 -6391)" fill="#0762e8"/>
      <circle id="Ellipse_71-13" data-name="Ellipse 71" cx="3.5" cy="3.5" r="3.5" transform="translate(-866 -6391)" fill="#0762e8"/>
    </g>
    <g transform="translate(1064 6499)">
      <circle id="Ellipse_67-14" data-name="Ellipse 67" cx="3.5" cy="3.5" r="3.5" transform="translate(-954 -6391)" fill="#0762e8"/>
      <circle id="Ellipse_68-14" data-name="Ellipse 68" cx="3.5" cy="3.5" r="3.5" transform="translate(-932 -6391)" fill="#0762e8"/>
      <circle id="Ellipse_69-14" data-name="Ellipse 69" cx="3.5" cy="3.5" r="3.5" transform="translate(-910 -6391)" fill="#0762e8"/>
      <circle id="Ellipse_70-14" data-name="Ellipse 70" cx="3.5" cy="3.5" r="3.5" transform="translate(-888 -6391)" fill="#0762e8"/>
      <circle id="Ellipse_71-14" data-name="Ellipse 71" cx="3.5" cy="3.5" r="3.5" transform="translate(-866 -6391)" fill="#0762e8"/>
    </g>
    <g transform="translate(1174 6499)">
      <circle id="Ellipse_67-15" data-name="Ellipse 67" cx="3.5" cy="3.5" r="3.5" transform="translate(-954 -6391)" fill="#0762e8"/>
      <circle id="Ellipse_68-15" data-name="Ellipse 68" cx="3.5" cy="3.5" r="3.5" transform="translate(-932 -6391)" fill="#0762e8"/>
      <circle id="Ellipse_69-15" data-name="Ellipse 69" cx="3.5" cy="3.5" r="3.5" transform="translate(-910 -6391)" fill="#0762e8"/>
      <circle id="Ellipse_70-15" data-name="Ellipse 70" cx="3.5" cy="3.5" r="3.5" transform="translate(-888 -6391)" fill="#0762e8"/>
      <circle id="Ellipse_71-15" data-name="Ellipse 71" cx="3.5" cy="3.5" r="3.5" transform="translate(-866 -6391)" fill="#0762e8"/>
    </g>
    <g transform="translate(954 6526)">
      <circle id="Ellipse_67-16" data-name="Ellipse 67" cx="3.5" cy="3.5" r="3.5" transform="translate(-954 -6391)" fill="#0762e8"/>
      <circle id="Ellipse_68-16" data-name="Ellipse 68" cx="3.5" cy="3.5" r="3.5" transform="translate(-932 -6391)" fill="#0762e8"/>
      <circle id="Ellipse_69-16" data-name="Ellipse 69" cx="3.5" cy="3.5" r="3.5" transform="translate(-910 -6391)" fill="#0762e8"/>
      <circle id="Ellipse_70-16" data-name="Ellipse 70" cx="3.5" cy="3.5" r="3.5" transform="translate(-888 -6391)" fill="#0762e8"/>
      <circle id="Ellipse_71-16" data-name="Ellipse 71" cx="3.5" cy="3.5" r="3.5" transform="translate(-866 -6391)" fill="#0762e8"/>
    </g>
    <g transform="translate(1064 6526)">
      <circle id="Ellipse_67-17" data-name="Ellipse 67" cx="3.5" cy="3.5" r="3.5" transform="translate(-954 -6391)" fill="#0762e8"/>
      <circle id="Ellipse_68-17" data-name="Ellipse 68" cx="3.5" cy="3.5" r="3.5" transform="translate(-932 -6391)" fill="#0762e8"/>
      <circle id="Ellipse_69-17" data-name="Ellipse 69" cx="3.5" cy="3.5" r="3.5" transform="translate(-910 -6391)" fill="#0762e8"/>
      <circle id="Ellipse_70-17" data-name="Ellipse 70" cx="3.5" cy="3.5" r="3.5" transform="translate(-888 -6391)" fill="#0762e8"/>
      <circle id="Ellipse_71-17" data-name="Ellipse 71" cx="3.5" cy="3.5" r="3.5" transform="translate(-866 -6391)" fill="#0762e8"/>
    </g>
    <g transform="translate(1174 6526)">
      <circle id="Ellipse_67-18" data-name="Ellipse 67" cx="3.5" cy="3.5" r="3.5" transform="translate(-954 -6391)" fill="#0762e8"/>
      <circle id="Ellipse_68-18" data-name="Ellipse 68" cx="3.5" cy="3.5" r="3.5" transform="translate(-932 -6391)" fill="#0762e8"/>
      <circle id="Ellipse_69-18" data-name="Ellipse 69" cx="3.5" cy="3.5" r="3.5" transform="translate(-910 -6391)" fill="#0762e8"/>
      <circle id="Ellipse_70-18" data-name="Ellipse 70" cx="3.5" cy="3.5" r="3.5" transform="translate(-888 -6391)" fill="#0762e8"/>
      <circle id="Ellipse_71-18" data-name="Ellipse 71" cx="3.5" cy="3.5" r="3.5" transform="translate(-866 -6391)" fill="#0762e8"/>
    </g>
    <g transform="translate(954 6553)">
      <circle id="Ellipse_67-19" data-name="Ellipse 67" cx="3.5" cy="3.5" r="3.5" transform="translate(-954 -6391)" fill="#0762e8"/>
      <circle id="Ellipse_68-19" data-name="Ellipse 68" cx="3.5" cy="3.5" r="3.5" transform="translate(-932 -6391)" fill="#0762e8"/>
      <circle id="Ellipse_69-19" data-name="Ellipse 69" cx="3.5" cy="3.5" r="3.5" transform="translate(-910 -6391)" fill="#0762e8"/>
      <circle id="Ellipse_70-19" data-name="Ellipse 70" cx="3.5" cy="3.5" r="3.5" transform="translate(-888 -6391)" fill="#0762e8"/>
      <circle id="Ellipse_71-19" data-name="Ellipse 71" cx="3.5" cy="3.5" r="3.5" transform="translate(-866 -6391)" fill="#0762e8"/>
    </g>
    <g transform="translate(1064 6553)">
      <circle id="Ellipse_67-20" data-name="Ellipse 67" cx="3.5" cy="3.5" r="3.5" transform="translate(-954 -6391)" fill="#0762e8"/>
      <circle id="Ellipse_68-20" data-name="Ellipse 68" cx="3.5" cy="3.5" r="3.5" transform="translate(-932 -6391)" fill="#0762e8"/>
      <circle id="Ellipse_69-20" data-name="Ellipse 69" cx="3.5" cy="3.5" r="3.5" transform="translate(-910 -6391)" fill="#0762e8"/>
      <circle id="Ellipse_70-20" data-name="Ellipse 70" cx="3.5" cy="3.5" r="3.5" transform="translate(-888 -6391)" fill="#0762e8"/>
      <circle id="Ellipse_71-20" data-name="Ellipse 71" cx="3.5" cy="3.5" r="3.5" transform="translate(-866 -6391)" fill="#0762e8"/>
    </g>
    <g transform="translate(1174 6553)">
      <circle id="Ellipse_67-21" data-name="Ellipse 67" cx="3.5" cy="3.5" r="3.5" transform="translate(-954 -6391)" fill="#0762e8"/>
      <circle id="Ellipse_68-21" data-name="Ellipse 68" cx="3.5" cy="3.5" r="3.5" transform="translate(-932 -6391)" fill="#0762e8"/>
      <circle id="Ellipse_69-21" data-name="Ellipse 69" cx="3.5" cy="3.5" r="3.5" transform="translate(-910 -6391)" fill="#0762e8"/>
      <circle id="Ellipse_70-21" data-name="Ellipse 70" cx="3.5" cy="3.5" r="3.5" transform="translate(-888 -6391)" fill="#0762e8"/>
      <circle id="Ellipse_71-21" data-name="Ellipse 71" cx="3.5" cy="3.5" r="3.5" transform="translate(-866 -6391)" fill="#0762e8"/>
    </g>
    <g transform="translate(954 6580)">
      <circle id="Ellipse_67-22" data-name="Ellipse 67" cx="3.5" cy="3.5" r="3.5" transform="translate(-954 -6391)" fill="#0762e8"/>
      <circle id="Ellipse_68-22" data-name="Ellipse 68" cx="3.5" cy="3.5" r="3.5" transform="translate(-932 -6391)" fill="#0762e8"/>
      <circle id="Ellipse_69-22" data-name="Ellipse 69" cx="3.5" cy="3.5" r="3.5" transform="translate(-910 -6391)" fill="#0762e8"/>
      <circle id="Ellipse_70-22" data-name="Ellipse 70" cx="3.5" cy="3.5" r="3.5" transform="translate(-888 -6391)" fill="#0762e8"/>
      <circle id="Ellipse_71-22" data-name="Ellipse 71" cx="3.5" cy="3.5" r="3.5" transform="translate(-866 -6391)" fill="#0762e8"/>
    </g>
    <g transform="translate(1064 6580)">
      <circle id="Ellipse_67-23" data-name="Ellipse 67" cx="3.5" cy="3.5" r="3.5" transform="translate(-954 -6391)" fill="#0762e8"/>
      <circle id="Ellipse_68-23" data-name="Ellipse 68" cx="3.5" cy="3.5" r="3.5" transform="translate(-932 -6391)" fill="#0762e8"/>
      <circle id="Ellipse_69-23" data-name="Ellipse 69" cx="3.5" cy="3.5" r="3.5" transform="translate(-910 -6391)" fill="#0762e8"/>
      <circle id="Ellipse_70-23" data-name="Ellipse 70" cx="3.5" cy="3.5" r="3.5" transform="translate(-888 -6391)" fill="#0762e8"/>
      <circle id="Ellipse_71-23" data-name="Ellipse 71" cx="3.5" cy="3.5" r="3.5" transform="translate(-866 -6391)" fill="#0762e8"/>
    </g>
    <g transform="translate(1174 6580)">
      <circle id="Ellipse_67-24" data-name="Ellipse 67" cx="3.5" cy="3.5" r="3.5" transform="translate(-954 -6391)" fill="#0762e8"/>
      <circle id="Ellipse_68-24" data-name="Ellipse 68" cx="3.5" cy="3.5" r="3.5" transform="translate(-932 -6391)" fill="#0762e8"/>
      <circle id="Ellipse_69-24" data-name="Ellipse 69" cx="3.5" cy="3.5" r="3.5" transform="translate(-910 -6391)" fill="#0762e8"/>
      <circle id="Ellipse_70-24" data-name="Ellipse 70" cx="3.5" cy="3.5" r="3.5" transform="translate(-888 -6391)" fill="#0762e8"/>
      <circle id="Ellipse_71-24" data-name="Ellipse 71" cx="3.5" cy="3.5" r="3.5" transform="translate(-866 -6391)" fill="#0762e8"/>
    </g>
    <g transform="translate(954 6607)">
      <circle id="Ellipse_67-25" data-name="Ellipse 67" cx="3.5" cy="3.5" r="3.5" transform="translate(-954 -6391)" fill="#0762e8"/>
      <circle id="Ellipse_68-25" data-name="Ellipse 68" cx="3.5" cy="3.5" r="3.5" transform="translate(-932 -6391)" fill="#0762e8"/>
      <circle id="Ellipse_69-25" data-name="Ellipse 69" cx="3.5" cy="3.5" r="3.5" transform="translate(-910 -6391)" fill="#0762e8"/>
      <circle id="Ellipse_70-25" data-name="Ellipse 70" cx="3.5" cy="3.5" r="3.5" transform="translate(-888 -6391)" fill="#0762e8"/>
      <circle id="Ellipse_71-25" data-name="Ellipse 71" cx="3.5" cy="3.5" r="3.5" transform="translate(-866 -6391)" fill="#0762e8"/>
    </g>
    <g transform="translate(1064 6607)">
      <circle id="Ellipse_67-26" data-name="Ellipse 67" cx="3.5" cy="3.5" r="3.5" transform="translate(-954 -6391)" fill="#0762e8"/>
      <circle id="Ellipse_68-26" data-name="Ellipse 68" cx="3.5" cy="3.5" r="3.5" transform="translate(-932 -6391)" fill="#0762e8"/>
      <circle id="Ellipse_69-26" data-name="Ellipse 69" cx="3.5" cy="3.5" r="3.5" transform="translate(-910 -6391)" fill="#0762e8"/>
      <circle id="Ellipse_70-26" data-name="Ellipse 70" cx="3.5" cy="3.5" r="3.5" transform="translate(-888 -6391)" fill="#0762e8"/>
      <circle id="Ellipse_71-26" data-name="Ellipse 71" cx="3.5" cy="3.5" r="3.5" transform="translate(-866 -6391)" fill="#0762e8"/>
    </g>
    <g transform="translate(1174 6607)">
      <circle id="Ellipse_67-27" data-name="Ellipse 67" cx="3.5" cy="3.5" r="3.5" transform="translate(-954 -6391)" fill="#0762e8"/>
      <circle id="Ellipse_68-27" data-name="Ellipse 68" cx="3.5" cy="3.5" r="3.5" transform="translate(-932 -6391)" fill="#0762e8"/>
      <circle id="Ellipse_69-27" data-name="Ellipse 69" cx="3.5" cy="3.5" r="3.5" transform="translate(-910 -6391)" fill="#0762e8"/>
      <circle id="Ellipse_70-27" data-name="Ellipse 70" cx="3.5" cy="3.5" r="3.5" transform="translate(-888 -6391)" fill="#0762e8"/>
      <circle id="Ellipse_71-27" data-name="Ellipse 71" cx="3.5" cy="3.5" r="3.5" transform="translate(-866 -6391)" fill="#0762e8"/>
    </g>
    <g transform="translate(954 6634)">
      <circle id="Ellipse_67-28" data-name="Ellipse 67" cx="3.5" cy="3.5" r="3.5" transform="translate(-954 -6391)" fill="#0762e8"/>
      <circle id="Ellipse_68-28" data-name="Ellipse 68" cx="3.5" cy="3.5" r="3.5" transform="translate(-932 -6391)" fill="#0762e8"/>
      <circle id="Ellipse_69-28" data-name="Ellipse 69" cx="3.5" cy="3.5" r="3.5" transform="translate(-910 -6391)" fill="#0762e8"/>
      <circle id="Ellipse_70-28" data-name="Ellipse 70" cx="3.5" cy="3.5" r="3.5" transform="translate(-888 -6391)" fill="#0762e8"/>
      <circle id="Ellipse_71-28" data-name="Ellipse 71" cx="3.5" cy="3.5" r="3.5" transform="translate(-866 -6391)" fill="#0762e8"/>
    </g>
    <g transform="translate(1064 6634)">
      <circle id="Ellipse_67-29" data-name="Ellipse 67" cx="3.5" cy="3.5" r="3.5" transform="translate(-954 -6391)" fill="#0762e8"/>
      <circle id="Ellipse_68-29" data-name="Ellipse 68" cx="3.5" cy="3.5" r="3.5" transform="translate(-932 -6391)" fill="#0762e8"/>
      <circle id="Ellipse_69-29" data-name="Ellipse 69" cx="3.5" cy="3.5" r="3.5" transform="translate(-910 -6391)" fill="#0762e8"/>
      <circle id="Ellipse_70-29" data-name="Ellipse 70" cx="3.5" cy="3.5" r="3.5" transform="translate(-888 -6391)" fill="#0762e8"/>
      <circle id="Ellipse_71-29" data-name="Ellipse 71" cx="3.5" cy="3.5" r="3.5" transform="translate(-866 -6391)" fill="#0762e8"/>
    </g>
    <g transform="translate(1174 6634)">
      <circle id="Ellipse_67-30" data-name="Ellipse 67" cx="3.5" cy="3.5" r="3.5" transform="translate(-954 -6391)" fill="#0762e8"/>
      <circle id="Ellipse_68-30" data-name="Ellipse 68" cx="3.5" cy="3.5" r="3.5" transform="translate(-932 -6391)" fill="#0762e8"/>
      <circle id="Ellipse_69-30" data-name="Ellipse 69" cx="3.5" cy="3.5" r="3.5" transform="translate(-910 -6391)" fill="#0762e8"/>
      <circle id="Ellipse_70-30" data-name="Ellipse 70" cx="3.5" cy="3.5" r="3.5" transform="translate(-888 -6391)" fill="#0762e8"/>
      <circle id="Ellipse_71-30" data-name="Ellipse 71" cx="3.5" cy="3.5" r="3.5" transform="translate(-866 -6391)" fill="#0762e8"/>
    </g>
    <g transform="translate(954 6661)">
      <circle id="Ellipse_67-31" data-name="Ellipse 67" cx="3.5" cy="3.5" r="3.5" transform="translate(-954 -6391)" fill="#0762e8"/>
      <circle id="Ellipse_68-31" data-name="Ellipse 68" cx="3.5" cy="3.5" r="3.5" transform="translate(-932 -6391)" fill="#0762e8"/>
      <circle id="Ellipse_69-31" data-name="Ellipse 69" cx="3.5" cy="3.5" r="3.5" transform="translate(-910 -6391)" fill="#0762e8"/>
      <circle id="Ellipse_70-31" data-name="Ellipse 70" cx="3.5" cy="3.5" r="3.5" transform="translate(-888 -6391)" fill="#0762e8"/>
      <circle id="Ellipse_71-31" data-name="Ellipse 71" cx="3.5" cy="3.5" r="3.5" transform="translate(-866 -6391)" fill="#0762e8"/>
    </g>
    <g transform="translate(1064 6661)">
      <circle id="Ellipse_67-32" data-name="Ellipse 67" cx="3.5" cy="3.5" r="3.5" transform="translate(-954 -6391)" fill="#0762e8"/>
      <circle id="Ellipse_68-32" data-name="Ellipse 68" cx="3.5" cy="3.5" r="3.5" transform="translate(-932 -6391)" fill="#0762e8"/>
      <circle id="Ellipse_69-32" data-name="Ellipse 69" cx="3.5" cy="3.5" r="3.5" transform="translate(-910 -6391)" fill="#0762e8"/>
      <circle id="Ellipse_70-32" data-name="Ellipse 70" cx="3.5" cy="3.5" r="3.5" transform="translate(-888 -6391)" fill="#0762e8"/>
      <circle id="Ellipse_71-32" data-name="Ellipse 71" cx="3.5" cy="3.5" r="3.5" transform="translate(-866 -6391)" fill="#0762e8"/>
    </g>
    <g transform="translate(1174 6661)">
      <circle id="Ellipse_67-33" data-name="Ellipse 67" cx="3.5" cy="3.5" r="3.5" transform="translate(-954 -6391)" fill="#0762e8"/>
      <circle id="Ellipse_68-33" data-name="Ellipse 68" cx="3.5" cy="3.5" r="3.5" transform="translate(-932 -6391)" fill="#0762e8"/>
      <circle id="Ellipse_69-33" data-name="Ellipse 69" cx="3.5" cy="3.5" r="3.5" transform="translate(-910 -6391)" fill="#0762e8"/>
      <circle id="Ellipse_70-33" data-name="Ellipse 70" cx="3.5" cy="3.5" r="3.5" transform="translate(-888 -6391)" fill="#0762e8"/>
      <circle id="Ellipse_71-33" data-name="Ellipse 71" cx="3.5" cy="3.5" r="3.5" transform="translate(-866 -6391)" fill="#0762e8"/>
    </g>
    <g transform="translate(954 6688)">
      <circle id="Ellipse_67-34" data-name="Ellipse 67" cx="3.5" cy="3.5" r="3.5" transform="translate(-954 -6391)" fill="#0762e8"/>
      <circle id="Ellipse_68-34" data-name="Ellipse 68" cx="3.5" cy="3.5" r="3.5" transform="translate(-932 -6391)" fill="#0762e8"/>
      <circle id="Ellipse_69-34" data-name="Ellipse 69" cx="3.5" cy="3.5" r="3.5" transform="translate(-910 -6391)" fill="#0762e8"/>
      <circle id="Ellipse_70-34" data-name="Ellipse 70" cx="3.5" cy="3.5" r="3.5" transform="translate(-888 -6391)" fill="#0762e8"/>
      <circle id="Ellipse_71-34" data-name="Ellipse 71" cx="3.5" cy="3.5" r="3.5" transform="translate(-866 -6391)" fill="#0762e8"/>
    </g>
    <g transform="translate(1064 6688)">
      <circle id="Ellipse_67-35" data-name="Ellipse 67" cx="3.5" cy="3.5" r="3.5" transform="translate(-954 -6391)" fill="#0762e8"/>
      <circle id="Ellipse_68-35" data-name="Ellipse 68" cx="3.5" cy="3.5" r="3.5" transform="translate(-932 -6391)" fill="#0762e8"/>
      <circle id="Ellipse_69-35" data-name="Ellipse 69" cx="3.5" cy="3.5" r="3.5" transform="translate(-910 -6391)" fill="#0762e8"/>
      <circle id="Ellipse_70-35" data-name="Ellipse 70" cx="3.5" cy="3.5" r="3.5" transform="translate(-888 -6391)" fill="#0762e8"/>
      <circle id="Ellipse_71-35" data-name="Ellipse 71" cx="3.5" cy="3.5" r="3.5" transform="translate(-866 -6391)" fill="#0762e8"/>
    </g>
    <g transform="translate(1174 6688)">
      <circle id="Ellipse_67-36" data-name="Ellipse 67" cx="3.5" cy="3.5" r="3.5" transform="translate(-954 -6391)" fill="#0762e8"/>
      <circle id="Ellipse_68-36" data-name="Ellipse 68" cx="3.5" cy="3.5" r="3.5" transform="translate(-932 -6391)" fill="#0762e8"/>
      <circle id="Ellipse_69-36" data-name="Ellipse 69" cx="3.5" cy="3.5" r="3.5" transform="translate(-910 -6391)" fill="#0762e8"/>
      <circle id="Ellipse_70-36" data-name="Ellipse 70" cx="3.5" cy="3.5" r="3.5" transform="translate(-888 -6391)" fill="#0762e8"/>
      <circle id="Ellipse_71-36" data-name="Ellipse 71" cx="3.5" cy="3.5" r="3.5" transform="translate(-866 -6391)" fill="#0762e8"/>
    </g>
  </g>
  <path id="Subtraction_2" data-name="Subtraction 2" d="M124.571,248.891a126.41,126.41,0,0,1-25.192-2.529,124.3,124.3,0,0,1-63.2-210.006,125.259,125.259,0,0,1,192.04,18.426,124.136,124.136,0,0,1-15.264,157.644,124.918,124.918,0,0,1-88.388,36.465Zm0-232a108.8,108.8,0,0,0-21.766,2.194A107.409,107.409,0,0,0,64.187,35.335,108.316,108.316,0,0,0,25.058,82.852a107.46,107.46,0,0,0-6.293,20.273,109.054,109.054,0,0,0,0,43.531,107.408,107.408,0,0,0,16.251,38.618A108.316,108.316,0,0,0,82.532,224.4a107.461,107.461,0,0,0,20.273,6.293,109.053,109.053,0,0,0,43.531,0,107.408,107.408,0,0,0,38.618-16.251,108.316,108.316,0,0,0,39.129-47.517,107.461,107.461,0,0,0,6.293-20.273,109.054,109.054,0,0,0,0-43.531,107.408,107.408,0,0,0-16.251-38.618,108.317,108.317,0,0,0-47.517-39.129,107.462,107.462,0,0,0-20.273-6.293A108.8,108.8,0,0,0,124.571,16.89Z" transform="translate(145.429 35.109)" fill="url(#linear-gradient)"/>
</svg>
