<svg xmlns="http://www.w3.org/2000/svg" xmlns:xlink="http://www.w3.org/1999/xlink" width="90.877" height="81.614" viewBox="0 0 90.877 81.614">
  <defs>
    <linearGradient id="linear-gradient" x1="1.138" y1="0.5" x2="-0.371" y2="1" gradientUnits="objectBoundingBox">
      <stop offset="0" stop-color="#45e9ff"/>
      <stop offset="1" stop-color="#5c02ff"/>
    </linearGradient>
  </defs>
  <g id="d2" transform="translate(0 3)">
    <path id="Path_1542" data-name="Path 1542" d="M56.027,65.96H52.94V50.832a1.544,1.544,0,0,0-3.087,0V65.96H9.718V35.087H22.561a1.544,1.544,0,1,0,0-3.087H8.175a1.544,1.544,0,0,0-1.544,1.544V65.96H3.544A1.544,1.544,0,0,0,2,67.5v3.087a7.718,7.718,0,0,0,7.718,7.718H49.853a7.718,7.718,0,0,0,7.718-7.718V67.5A1.544,1.544,0,0,0,56.027,65.96Zm-1.544,4.631a4.631,4.631,0,0,1-4.631,4.631H46.766V73.678a1.544,1.544,0,1,0-3.087,0v1.544H15.893V73.678a1.544,1.544,0,1,0-3.087,0v1.544H9.718a4.631,4.631,0,0,1-4.631-4.631V69.047h49.4Z" transform="translate(-2 0.305)" fill="#2c2f33"/>
    <path id="Path_1545" data-name="Path 1545" d="M49,43.28A5.28,5.28,0,1,0,54.28,38,5.28,5.28,0,0,0,49,43.28Zm7.92,0a2.64,2.64,0,1,1-2.64-2.64A2.64,2.64,0,0,1,56.92,43.28Z" transform="translate(24.718 17.518)" fill="#2c2f33"/>
    <path id="Path_1546" data-name="Path 1546" d="M63.8,33H47.96A3.96,3.96,0,0,0,44,36.96V52.8a3.96,3.96,0,0,0,3.96,3.96H63.8a3.96,3.96,0,0,0,3.96-3.96v-2.64a1.32,1.32,0,0,0-2.64,0V52.8a1.32,1.32,0,0,1-1.32,1.32H47.96a1.32,1.32,0,0,1-1.32-1.32V36.96a1.32,1.32,0,0,1,1.32-1.32H63.8a1.32,1.32,0,0,1,1.32,1.32v7.92a1.32,1.32,0,1,0,2.64,0V36.96A3.96,3.96,0,0,0,63.8,33Z" transform="translate(23.118 15.919)" fill="#2c2f33"/>
    <path id="Path_1547" data-name="Path 1547" d="M24.62,16.361a1.313,1.313,0,0,0,1.294.053l7.92-3.96a1.32,1.32,0,0,0,0-2.35l-7.92-3.96A1.32,1.32,0,0,0,24,7.319v7.92A1.32,1.32,0,0,0,24.62,16.361Zm2.02-6.9,3.643,1.822L26.64,13.1Z" transform="translate(46.678 -2.399)" fill="#2c2f33"/>
    <path id="Path_1548" data-name="Path 1548" d="M29.88,24.759A11.88,11.88,0,1,0,18,12.88,11.88,11.88,0,0,0,29.88,24.759Zm0-21.119a9.24,9.24,0,1,1-9.24,9.24,9.24,9.24,0,0,1,9.24-9.24Z" transform="translate(44.758 -4)" fill="#2c2f33"/>
    <path id="Path_1549" data-name="Path 1549" d="M1.544,9.262a1.544,1.544,0,0,0,1.235-.617L7.41,2.47A1.544,1.544,0,1,0,4.94.618L.309,6.792a1.544,1.544,0,0,0,1.235,2.47Z" transform="translate(50.789 14.181) rotate(7)" fill="url(#linear-gradient)"/>
    <path id="Path_1550" data-name="Path 1550" d="M.309,7.1A1.544,1.544,0,0,0,2.47,7.41L8.644,2.779A1.544,1.544,0,1,0,6.792.309L.618,4.94A1.544,1.544,0,0,0,.309,7.1Z" transform="translate(54.445 22.406) rotate(7)" fill="url(#linear-gradient)"/>
    <path id="Path_1551" data-name="Path 1551" d="M10.968,1.271A1.544,1.544,0,0,0,9.115.036L1.4,1.58a1.551,1.551,0,0,0,.309,3.087h.309L9.733,3.124a1.544,1.544,0,0,0,1.235-1.852Z" transform="translate(57.756 32.107) rotate(7)" fill="url(#linear-gradient)"/>
    <path id="Path_1552" data-name="Path 1552" d="M3.32,34.759H19.159a1.32,1.32,0,0,0,1.32-1.32V12.32A1.32,1.32,0,0,0,19.159,11H3.32A1.32,1.32,0,0,0,2,12.32V33.439a1.32,1.32,0,0,0,1.32,1.32ZM4.64,13.64h13.2V32.119H4.64Z" transform="translate(9.24 -13.68)" fill="#2c2f33"/>
    <path id="Path_1553" data-name="Path 1553" d="M11.96,15H9.32a1.32,1.32,0,0,0,0,2.64h2.64a1.32,1.32,0,0,0,0-2.64Z" transform="translate(11.159 -12.4)" fill="#2c2f33"/>
    <path id="Path_1554" data-name="Path 1554" d="M12.6,19H7.32a1.32,1.32,0,1,0,0,2.64H12.6a1.32,1.32,0,1,0,0-2.64Z" transform="translate(10.52 -11.12)" fill="#2c2f33"/>
    <path id="Path_1555" data-name="Path 1555" d="M12.6,23H7.32a1.32,1.32,0,1,0,0,2.64H12.6a1.32,1.32,0,0,0,0-2.64Z" transform="translate(10.52 -9.841)" fill="#2c2f33"/>
    <path id="Path_1556" data-name="Path 1556" d="M46.214,33.8a1.549,1.549,0,1,0-2.686,1.544l6.807,11.778L30.268,53.293h-.232l-4.013,2.315-2.67,1.544a3.082,3.082,0,0,1-4.214-1.127l-3.087-5.341a3.087,3.087,0,0,1,1.158-4.075l5.341-3.087,3.859,6.684A1.549,1.549,0,1,0,29.1,48.663l-3.983-6.885L39.854,28.889l.633,1.1a1.549,1.549,0,0,0,2.686-1.544L41.63,25.77a1.564,1.564,0,0,0-2.331-.417L22.319,40.08l-6.576,3.8A6.175,6.175,0,0,0,12.9,50.87l-1.544.88a4.627,4.627,0,0,0,2.315,8.644,4.724,4.724,0,0,0,2.315-.617l1.544-.88a5.989,5.989,0,0,0,2.7,1.605,5.851,5.851,0,0,0,1.621.216,6.082,6.082,0,0,0,3.087-.834l1.343-.772,3.087,5.356a4.627,4.627,0,1,0,8.012-4.631l-2.809-4.893,18.524-5.6a1.548,1.548,0,0,0,.8-2.207ZM14.384,57.091a1.542,1.542,0,1,1-1.544-2.671l1.343-.772,1.544,2.67ZM34.7,61.413a1.542,1.542,0,0,1-2.671,1.544L28.941,57.6,31.5,56.134h.123Z" transform="translate(1.824 -3.499)" fill="url(#linear-gradient)"/>
  </g>
</svg>
