<svg id="d3" xmlns="http://www.w3.org/2000/svg" xmlns:xlink="http://www.w3.org/1999/xlink" width="86.799" height="86.799" viewBox="0 0 86.799 86.799">
  <defs>
    <linearGradient id="linear-gradient" x1="1.138" y1="0.5" x2="-0.371" y2="1" gradientUnits="objectBoundingBox">
      <stop offset="0" stop-color="#45e9ff"/>
      <stop offset="1" stop-color="#5c02ff"/>
    </linearGradient>
  </defs>
  <path id="Path_1563" data-name="Path 1563" d="M272,32h21v2.8H272Zm0,0" transform="translate(-224.401 -26.4)" fill="url(#linear-gradient)"/>
  <path id="Path_1564" data-name="Path 1564" d="M86.8,67.589l-3.437-1.146,1.62-3.24-5.387-5.387-3.241,1.621L75.209,56H67.591l-1.145,3.438L63.2,57.816,59.52,61.5,49.579,47.6H70a4.205,4.205,0,0,0,4.2-4.2V4.2A4.205,4.205,0,0,0,70,0H48.446a4.171,4.171,0,0,0-2.33.705L38.775,5.6H16.8a4.205,4.205,0,0,0-4.2,4.2V43.4a4.205,4.205,0,0,0,4.2,4.2H41.179L25.2,63.579A10.129,10.129,0,0,0,15.4,53.2,9.812,9.812,0,0,0,5.6,63v2.8a9.787,9.787,0,0,0,4.2,8.03v.714L5.078,75.893A7.026,7.026,0,0,0,0,82.623V86.8H30.8V82.623a7.029,7.029,0,0,0-5.078-6.731L21,74.544v-.714a9.789,9.789,0,0,0,4.2-8.03v-2.22L41.179,47.6h8.4L59.52,61.5l-1.7,1.7,1.62,3.24L56,67.589v7.618l3.437,1.146-1.62,3.24L63.2,84.98l3.241-1.621,1.145,3.44h7.618l1.145-3.438,3.241,1.621,5.387-5.387-1.62-3.24L86.8,75.209Zm-74.2,7.6a9.7,9.7,0,0,0,5.6,0V75.6a2.8,2.8,0,1,1-5.6,0ZM28,82.623V84H2.8V82.623a4.219,4.219,0,0,1,3.046-4.039l4.268-1.219a5.562,5.562,0,0,0,10.574,0l4.268,1.219A4.219,4.219,0,0,1,28,82.623ZM22.4,65.8a7,7,0,1,1-14,0V63a7,7,0,0,1,14,0ZM16.8,8.4H39.624l8.048-5.366a1.4,1.4,0,0,1,.775-.234H70a1.4,1.4,0,0,1,1.4,1.4v7h-56V9.8A1.4,1.4,0,0,1,16.8,8.4Zm-1.4,35V14h56V43.4A1.4,1.4,0,0,1,70,44.8H16.8A1.4,1.4,0,0,1,15.4,43.4ZM84,73.189l-3.211,1.071-.237.617c-.07.179-.14.358-.217.53l-.271.606,1.513,3.027-2.533,2.533-3.027-1.513-.606.271c-.172.077-.347.147-.525.215l-.623.235L73.189,84H69.607l-1.073-3.217-.623-.235c-.178-.068-.353-.137-.525-.215l-.606-.271-3.027,1.513-2.533-2.533,1.513-3.027-.271-.606c-.079-.175-.147-.351-.217-.53l-.237-.617L58.8,73.189V69.607l3.211-1.071.237-.617c.07-.179.14-.358.217-.531l.271-.606-1.513-3.027,2.533-2.533,3.027,1.513.606-.271c.172-.077.347-.147.525-.215l.623-.235L69.609,58.8h3.582l1.073,3.217.623.235c.178.068.353.137.525.215l.606.271,3.027-1.513,2.533,2.533-1.513,3.027.271.606c.079.175.147.351.217.53l.237.617L84,69.609Zm0,0" fill="#2c2f33"/>
  <path id="Path_1565" data-name="Path 1565" d="M375,368a7,7,0,1,0,7,7A7.008,7.008,0,0,0,375,368Zm0,11.2a4.2,4.2,0,1,1,4.2-4.2A4.205,4.205,0,0,1,375,379.2Zm0,0" transform="translate(-303.601 -303.601)" fill="#2c2f33"/>
  <path id="Path_1566" data-name="Path 1566" d="M201.8,96a9.812,9.812,0,0,0-9.8,9.8v5.6a9.812,9.812,0,0,0,9.8,9.8v-2.8a7.008,7.008,0,0,1-7-7v-5.6a7,7,0,1,1,14,0v5.6a1.4,1.4,0,0,1-2.8,0v-5.6a4.2,4.2,0,1,0-8.4,0v2.8a4.186,4.186,0,0,0,5.763,3.892A4.19,4.19,0,0,0,211.6,111.4v-5.6A9.812,9.812,0,0,0,201.8,96Zm0,14a1.4,1.4,0,0,1-1.4-1.4v-2.8a1.4,1.4,0,1,1,2.8,0v2.8A1.4,1.4,0,0,1,201.8,110Zm0,0" transform="translate(-158.4 -79.2)" fill="url(#linear-gradient)"/>
</svg>
