<svg width="407" height="1062" viewBox="0 0 407 1062" fill="none" xmlns="http://www.w3.org/2000/svg">
<path d="M202.988 68.9903C233.093 41.8063 277.31 32.3301 327.594 35.6078C377.829 38.8823 433.671 54.8678 486.443 78.0413C539.205 101.21 588.735 131.493 626.357 163.225C664.12 195.075 689.363 227.949 694.496 256.188C700.687 290.238 683.331 313.179 662.841 337.243C661.521 338.793 660.187 340.349 658.846 341.912C639.595 364.363 618.961 388.425 616.882 423.19C613.252 483.891 653.025 519.521 693.818 554.103C695.21 555.283 696.604 556.462 697.997 557.641C737.789 591.313 777.4 624.832 783.239 680.376C794.821 790.544 745.053 908.927 668.461 972.819C630.219 1004.72 585.455 1022.91 538.414 1019.95C491.399 1016.99 441.631 992.865 393.414 939.224C360.024 902.077 349.726 864.447 351.546 826.701C353.374 788.771 367.438 750.611 383.122 712.484C385.466 706.785 387.848 701.085 390.228 695.387C403.698 663.149 417.137 630.986 423.601 599.573C431.242 562.443 429.235 525.986 406.078 491.154C372.165 440.141 333.86 395.76 297.714 355.994C288.628 345.999 279.689 336.305 270.993 326.875C245.028 298.717 221.231 272.912 202.193 248.462C176.761 215.799 160.281 186.103 158.379 157.143C156.493 128.438 168.911 99.7612 202.988 68.9903Z" stroke="#959595" stroke-width="6"/>
</svg>
