<svg width="70" height="77" viewBox="0 0 70 77" fill="none" xmlns="http://www.w3.org/2000/svg">
<path d="M17.1582 28.535V48.1985L35.0069 58.0271L52.8586 48.1985V28.535L35.0069 18.7061L17.1582 28.535Z" stroke="#DA5454" stroke-width="3" stroke-miterlimit="10" stroke-linejoin="round"/>
<path d="M30.568 35.3841V44.4841H28.449L24.432 39.6351V44.4841H21.91V35.3841H24.029L28.046 40.2331V35.3841H30.568ZM34.9576 37.3731V39.3751H38.9746V41.3641H34.9576V44.4841H32.3836V35.3841H39.5206V37.3731H34.9576ZM42.7249 37.4251H39.9299V35.3841H48.0809V37.4251H45.2989V44.4841H42.7249V37.4251Z" fill="#DA5454"/>
<path d="M35.0066 2.00049V14.854" stroke="#DA5454" stroke-width="3" stroke-miterlimit="10" stroke-linejoin="round"/>
<path d="M40.0798 6.84106L35.0059 2L29.9351 6.84106" stroke="#DA5454" stroke-width="3" stroke-miterlimit="10" stroke-linejoin="round"/>
<path d="M2.00293 20.1812L13.6698 26.6104" stroke="#DA5454" stroke-width="3" stroke-miterlimit="10" stroke-linejoin="round"/>
<path d="M8.93365 18.4102L2.00293 20.1812L3.85918 26.7981" stroke="#DA5454" stroke-width="3" stroke-miterlimit="10" stroke-linejoin="round"/>
<path d="M2 56.5503L13.6669 50.1235" stroke="#DA5454" stroke-width="3" stroke-miterlimit="10" stroke-linejoin="round"/>
<path d="M3.85918 49.9363L2 56.5506L8.93365 58.3245" stroke="#DA5454" stroke-width="3" stroke-miterlimit="10" stroke-linejoin="round"/>
<path d="M35.0017 74.7363V61.8804" stroke="#DA5454" stroke-width="3" stroke-miterlimit="10" stroke-linejoin="round"/>
<path d="M29.9321 69.8933L35.006 74.7361L40.0799 69.8933" stroke="#DA5454" stroke-width="3" stroke-miterlimit="10" stroke-linejoin="round"/>
<path d="M68.0108 56.553L56.343 50.1262" stroke="#DA5454" stroke-width="3" stroke-miterlimit="10" stroke-linejoin="round"/>
<path d="M61.0801 58.3267L68.0106 56.5529L66.1552 49.9387" stroke="#DA5454" stroke-width="3" stroke-miterlimit="10" stroke-linejoin="round"/>
<path d="M68.0108 20.1843L56.343 26.6138" stroke="#DA5454" stroke-width="3" stroke-miterlimit="10" stroke-linejoin="round"/>
<path d="M66.1521 26.801L68.0106 20.184L61.0769 18.4133" stroke="#DA5454" stroke-width="3" stroke-miterlimit="10" stroke-linejoin="round"/>
</svg>
