<svg width="320" height="387" viewBox="0 0 320 387" fill="none" xmlns="http://www.w3.org/2000/svg">
<path d="M94.9999 0H320C320 0 384 138 320 221C282.217 270 216.775 248.997 195 221C167 185 190.767 178.287 149.5 154C112.47 132.207 61.6497 180 19.9999 131C-21.65 82 94.9999 0 94.9999 0Z" fill="#FF6363"/>
<path d="M0 7.15256e-06C0 7.15256e-06 60.2651 -9.24693 97 7.15256e-06C145.217 12.1372 174.254 29.1581 204 69C226.126 98.6361 239.7 120.022 239 157C237.724 224.376 142.924 215.67 115 277C105.018 298.924 110.106 315.788 97 336C73.7165 371.91 0 387 0 387V7.15256e-06Z" fill="#FFC8C8" fill-opacity="0.5"/>
</svg>
