<?xml version="1.0" encoding="utf-8"?><!DOCTYPE svg PUBLIC "-//W3C//DTD SVG 1.1//EN" "http://www.w3.org/Graphics/SVG/1.1/DTD/svg11.dtd"><svg viewBox="0 0 431.972 431.972" xmlns="http://www.w3.org/2000/svg" xmlns:xlink="http://www.w3.org/1999/xlink"><style>:root>svg{display:none}:root>svg:target{display:block}</style><svg fill="none" viewBox="0 0 16 16" id="icon-check" xmlns="http://www.w3.org/2000/svg"><rect x=".5" y=".5" width="15" height="15" rx="3.5" fill="#3551E3" stroke="#3551E3"/><path d="M5 7.788L7.157 10 11.4 6" stroke="#fff" stroke-width="2" stroke-linecap="round" stroke-linejoin="round"/></svg><svg fill="none" viewBox="0 0 12 12" id="icon-close" xmlns="http://www.w3.org/2000/svg"><path d="M1.598 1.602l8.776 8.726M10.374 1.602l-8.776 8.726" stroke="#43484D" stroke-width="2" stroke-linecap="round"/></svg><svg fill="none" viewBox="0 0 14 14" id="icon-close-modal" xmlns="http://www.w3.org/2000/svg"><path d="M1.717 1.723l10.532 10.471M12.249 1.723L1.717 12.194" stroke="#fff" stroke-width="2" stroke-linecap="round"/></svg><svg fill="none" viewBox="0 0 14 14" id="icon-comment" xmlns="http://www.w3.org/2000/svg"><path fill-rule="evenodd" clip-rule="evenodd" d="M13 6.667a5.587 5.587 0 0 1-.6 2.533 5.667 5.667 0 0 1-5.067 3.133 5.588 5.588 0 0 1-2.533-.6L1 13l1.267-3.8a5.586 5.586 0 0 1-.6-2.533A5.667 5.667 0 0 1 4.8 1.6 5.587 5.587 0 0 1 7.333 1h.334A5.653 5.653 0 0 1 13 6.333v.334z" fill="#fff" stroke="#fff" stroke-width="1.5" stroke-linecap="round" stroke-linejoin="round"/></svg><svg fill="none" viewBox="0 0 18 18" id="icon-date" xmlns="http://www.w3.org/2000/svg"><path clip-rule="evenodd" d="M17 16.579a.421.421 0 0 1-.421.421H1.42A.421.421 0 0 1 1 16.579V3.105c0-.232.189-.42.421-.42H16.58c.232 0 .421.188.421.42V16.58z" stroke="#3551E3" stroke-width="1.5" stroke-linecap="round"/><path d="M1.421 6.895H16.58M4.79 1v3.368M13.21 4.368V1" stroke="#3551E3" stroke-width="1.5" stroke-linecap="round"/><path d="M5.76 11.475l2.27 2.329 4.467-4.21" stroke="#3551E3" stroke-width="1.5" stroke-linecap="round" stroke-linejoin="round"/></svg><svg fill="none" viewBox="0 0 8 12" id="icon-date-arrow" xmlns="http://www.w3.org/2000/svg"><path d="M1.559 10.772l4.576-4.59L1.56 1.59" stroke="#3165EC" stroke-width="2" stroke-linecap="round" stroke-linejoin="round"/></svg><svg fill="none" viewBox="0 0 8 12" id="icon-date-arrow2" xmlns="http://www.w3.org/2000/svg"><path d="M6.442 10.772l-4.577-4.59L6.442 1.59" stroke="#3165EC" stroke-width="2" stroke-linecap="round" stroke-linejoin="round"/></svg><svg fill="none" viewBox="0 0 5 5" id="icon-ellipse" xmlns="http://www.w3.org/2000/svg"><circle cx="2.5" cy="2.5" r="2.5" fill="#3551E3"/></svg><svg fill="none" viewBox="0 0 9 16" id="icon-facebook" xmlns="http://www.w3.org/2000/svg"><path d="M5.009 5.242l.004-1.38c0-.719.05-1.104 1.08-1.104h1.906V0H5.268c-2.65 0-3.26 1.369-3.26 3.618l.003 1.624L0 5.243V8h2.011v8H5.01l.002-8 2.723-.001.293-2.757H5.009z" fill="#090509"/></svg><svg fill="none" viewBox="0 0 17 15" id="icon-heart" xmlns="http://www.w3.org/2000/svg"><path d="M1.6 6.626l6.561 7.28a.271.271 0 0 0 .41 0l6.561-7.28-.261.311a3.562 3.562 0 0 0 .866-2.32c0-1.996-1.665-3.614-3.719-3.614-1.694 0-3.124 1.101-3.572 2.608l-.155-.003C7.842 2.1 6.413 1 4.72 1 2.665 1 1 2.618 1 4.615a3.54 3.54 0 0 0 .867 2.32" stroke="#9FA5B4" stroke-width="2" stroke-linecap="round" stroke-linejoin="round"/></svg><svg fill="none" viewBox="0 0 17 15" id="icon-heart-full" xmlns="http://www.w3.org/2000/svg"><path fill-rule="evenodd" clip-rule="evenodd" d="M1.6 6.626l6.561 7.28a.271.271 0 0 0 .41 0l6.561-7.28-.261.311a3.562 3.562 0 0 0 .866-2.32c0-1.996-1.665-3.614-3.719-3.614-1.694 0-3.124 1.101-3.572 2.608l-.155-.003C7.842 2.1 6.413 1 4.72 1 2.665 1 1 2.618 1 4.615a3.54 3.54 0 0 0 .867 2.32" fill="#FF5551"/><path d="M1.6 6.626l6.561 7.28a.271.271 0 0 0 .41 0l6.561-7.28-.261.311a3.562 3.562 0 0 0 .866-2.32c0-1.996-1.665-3.614-3.719-3.614-1.694 0-3.124 1.101-3.572 2.608l-.155-.003C7.842 2.1 6.413 1 4.72 1 2.665 1 1 2.618 1 4.615a3.54 3.54 0 0 0 .867 2.32" stroke="#FF5551" stroke-width="2" stroke-linecap="round" stroke-linejoin="round"/></svg><svg viewBox="0 0 431.972 431.972" id="icon-like" xmlns="http://www.w3.org/2000/svg"><path d="M393.146 14.279c-3.713-5.333-8.713-9.233-14.989-11.707A31.606 31.606 0 0 0 365.592.004V0H66.378c-4.377 0-8.562.857-12.56 2.568-6.28 2.472-11.278 6.377-14.989 11.707-3.71 5.33-5.568 11.228-5.568 17.701v368.019c0 6.475 1.858 12.371 5.568 17.706 3.711 5.329 8.709 9.233 14.989 11.704a31.577 31.577 0 0 0 12.56 2.566c8.949 0 16.844-3.142 23.698-9.418l125.91-121.062 125.91 121.065c6.663 6.081 14.562 9.127 23.695 9.127 4.76 0 8.948-.756 12.565-2.279 6.276-2.471 11.276-6.375 14.989-11.711 3.71-5.328 5.564-11.225 5.564-17.699V31.98c.001-6.473-1.857-12.371-5.563-17.701zm-30.98 376.86L241.397 275.224l-25.411-24.264-25.409 24.264L69.809 391.139V36.549h292.357v354.59z"/></svg><svg viewBox="0 0 431.972 431.972" id="icon-like-full" xmlns="http://www.w3.org/2000/svg"><path d="M393.146 14.279c-3.713-5.333-8.713-9.233-14.989-11.707A31.606 31.606 0 0 0 365.592.004V0H66.378c-4.377 0-8.562.857-12.56 2.568-6.28 2.472-11.278 6.377-14.989 11.707-3.71 5.33-5.568 11.228-5.568 17.701v368.019c0 6.475 1.858 12.371 5.568 17.706 3.711 5.329 8.709 9.233 14.989 11.704a31.577 31.577 0 0 0 12.56 2.566c8.949 0 16.844-3.142 23.698-9.418l125.91-121.062 125.91 121.065c6.663 6.081 14.562 9.127 23.695 9.127 4.76 0 8.948-.756 12.565-2.279 6.276-2.471 11.276-6.375 14.989-11.711 3.71-5.328 5.564-11.225 5.564-17.699V31.98c.001-6.473-1.857-12.371-5.563-17.701z"/></svg><svg fill="none" viewBox="0 0 24 24" id="icon-n01" xmlns="http://www.w3.org/2000/svg"><path d="M5 14l8-11v7h5l-8 11v-7H5z" fill="#3551E3" stroke="#3551E3" stroke-width="1.5" stroke-linecap="round" stroke-linejoin="round"/></svg><svg fill="none" viewBox="0 0 24 24" id="icon-n02" xmlns="http://www.w3.org/2000/svg"><path d="M21 14h-3l-3-7-5 10-3-6-2 3H3" stroke="#B6BAC8" stroke-width="1.5" stroke-linecap="round" stroke-linejoin="round"/></svg><svg fill="none" viewBox="0 0 24 24" id="icon-n03" xmlns="http://www.w3.org/2000/svg"><path d="M12 2l9 5v10l-9 5-9-5V7l9-5z" stroke="#B6BAC8" stroke-width="1.5" stroke-linecap="round" stroke-linejoin="round"/><path d="M3 7l9 5 9-5M12 12v10" stroke="#B6BAC8" stroke-width="1.5" stroke-linecap="round" stroke-linejoin="round"/></svg><svg fill="none" viewBox="0 0 24 24" id="icon-n04" xmlns="http://www.w3.org/2000/svg"><path d="M4 20c0-3 4-3 6-5 1-1-2-1-2-6 0-3.333 1.333-5 4-5s4 1.667 4 5c0 5-3 5-2 6 2 2 6 2 6 5" stroke="#B6BAC8" stroke-width="1.5" stroke-linecap="round" stroke-linejoin="round"/></svg><svg fill="none" viewBox="0 0 24 24" id="icon-n05" xmlns="http://www.w3.org/2000/svg"><path d="M5.035 12.705a7.08 7.08 0 0 1 0-1.41l-1.83-2.063 2-3.464 2.702.553c.38-.275.79-.512 1.222-.707L10 3h4l.871 2.614c.433.195.842.432 1.222.707l2.701-.553 2 3.464-1.829 2.063a7.078 7.078 0 0 1 0 1.41l1.83 2.063-2 3.464-2.702-.553c-.38.275-.79.512-1.222.707L14 21h-4l-.871-2.614a6.991 6.991 0 0 1-1.222-.707l-2.701.553-2-3.464 1.83-2.063z" stroke="#B6BAC8" stroke-width="1.5" stroke-linecap="round" stroke-linejoin="round"/><path d="M12 13a1 1 0 1 0 0-2 1 1 0 0 0 0 2z" stroke="#B6BAC8" stroke-width="1.5" stroke-linecap="round" stroke-linejoin="round"/></svg><svg fill="none" viewBox="0 0 10 12" id="icon-play" xmlns="http://www.w3.org/2000/svg"><path d="M8.5 4.268c1.333.77 1.333 2.694 0 3.464l-5.25 3.031c-1.333.77-3-.192-3-1.732V2.97c0-1.54 1.667-2.502 3-1.732L8.5 4.268z" fill="#0A29C9"/></svg><svg fill="none" viewBox="0 0 17 18" id="icon-search" xmlns="http://www.w3.org/2000/svg"><path d="M11.786 12.603L16 17" stroke="#43484D" stroke-width="2" stroke-linecap="round"/><path clip-rule="evenodd" d="M13.86 7.44a6.435 6.435 0 0 1-6.43 6.438A6.434 6.434 0 0 1 1 7.44 6.434 6.434 0 0 1 7.43 1a6.435 6.435 0 0 1 6.43 6.44v0z" stroke="#43484D" stroke-width="2" stroke-linecap="round"/></svg><svg fill="none" viewBox="0 0 20 16" id="icon-twitter" xmlns="http://www.w3.org/2000/svg"><path d="M19.726 1.893a8.07 8.07 0 0 1-2.32.636A4.057 4.057 0 0 0 19.182.295a8.146 8.146 0 0 1-2.568.981A4.04 4.04 0 0 0 9.73 4.96 11.472 11.472 0 0 1 1.4.738 4.01 4.01 0 0 0 .854 2.77c0 1.402.714 2.64 1.797 3.363a4.041 4.041 0 0 1-1.83-.507v.05a4.045 4.045 0 0 0 3.24 3.963 4.093 4.093 0 0 1-1.064.141c-.26 0-.513-.026-.76-.075A4.043 4.043 0 0 0 6.01 12.51a8.107 8.107 0 0 1-5.018 1.727c-.326 0-.647-.02-.964-.055A11.422 11.422 0 0 0 6.222 16c7.433 0 11.496-6.157 11.496-11.496l-.013-.523a8.07 8.07 0 0 0 2.02-2.088z" fill="#010002"/></svg><svg fill="none" viewBox="0 0 13 13" id="icon-user" xmlns="http://www.w3.org/2000/svg"><path d="M8.501 6.89a3.298 3.298 0 1 0-4.079 0 5.497 5.497 0 0 0-3.419 4.497.553.553 0 1 0 1.1.12 4.397 4.397 0 0 1 8.74 0 .55.55 0 0 0 .55.49h.06a.55.55 0 0 0 .484-.605A5.497 5.497 0 0 0 8.5 6.89zm-2.04-.39a2.199 2.199 0 1 1 0-4.398 2.199 2.199 0 0 1 0 4.398z" fill="#888D94" stroke="#888D94" stroke-width=".5"/></svg><svg fill="none" viewBox="0 0 14 14" id="icon-v-comment" xmlns="http://www.w3.org/2000/svg"><path clip-rule="evenodd" d="M12.25 6.708c.002.77-.178 1.53-.525 2.217a4.958 4.958 0 0 1-4.433 2.742 4.889 4.889 0 0 1-2.217-.525L1.75 12.25l1.108-3.325a4.889 4.889 0 0 1-.525-2.217 4.958 4.958 0 0 1 2.742-4.433 4.888 4.888 0 0 1 2.217-.525h.291a4.947 4.947 0 0 1 4.667 4.667v.291z" stroke="#888D94" stroke-width="1.25" stroke-linecap="round" stroke-linejoin="round"/></svg><svg fill="none" viewBox="0 0 19 13" id="icon-view" xmlns="http://www.w3.org/2000/svg"><path clip-rule="evenodd" d="M11.524 6.5c0 1.085-.906 1.965-2.024 1.965-1.118 0-2.024-.88-2.024-1.965 0-1.084.906-1.964 2.024-1.964 1.118 0 2.024.88 2.024 1.964v0z" stroke="#fff" stroke-width="2" stroke-linecap="round" stroke-linejoin="round"/><path d="M1 6.5C2.213 3.44 6.293 1 9.515 1 12.738 1 16.75 3.398 18 6.423M1 6.5C2.213 9.56 6.293 12 9.515 12 12.738 12 16.75 9.602 18 6.577" stroke="#fff" stroke-width="2" stroke-linecap="round" stroke-linejoin="round"/></svg><svg fill="none" viewBox="0 0 22 22" id="icon-void-comment" xmlns="http://www.w3.org/2000/svg"><path clip-rule="evenodd" d="M20.75 10.458a9.078 9.078 0 0 1-.975 4.117 9.208 9.208 0 0 1-8.233 5.092 9.078 9.078 0 0 1-4.117-.975L1.25 20.75l2.058-6.175a9.078 9.078 0 0 1-.975-4.117 9.208 9.208 0 0 1 5.092-8.233 9.078 9.078 0 0 1 4.117-.975h.541a9.187 9.187 0 0 1 8.667 8.667v.541z" stroke="#B3BACF" stroke-width="1.25" stroke-linecap="round" stroke-linejoin="round"/></svg></svg>