<svg width="48" height="49" viewBox="0 0 48 49" fill="none" xmlns="http://www.w3.org/2000/svg">
<rect opacity="0.397266" width="48" height="48" rx="11" transform="matrix(1 0 0 -1 0 48.759)" fill="#FFBFBF"/>
<path d="M32.3089 29.2443C32.6662 28.8991 32.6662 28.3246 32.3089 27.9673C31.9637 27.6221 31.3892 27.6221 31.0448 27.9673L24.57 34.4421V13.0761C24.5692 12.5781 24.1733 12.1822 23.6753 12.1822C23.1772 12.1822 22.7685 12.5781 22.7685 13.0761V34.4421L16.3057 27.9673C15.9485 27.6221 15.3732 27.6221 15.0288 27.9673C14.6715 28.3246 14.6715 28.8999 15.0288 29.2443L23.0364 37.2519C23.3816 37.6091 23.9561 37.6091 24.3005 37.2519L32.3089 29.2443Z" fill="#E02323"/>
</svg>
