<svg width="48" height="49" viewBox="0 0 48 49" fill="none" xmlns="http://www.w3.org/2000/svg">
<rect opacity="0.397266" y="0.759014" width="48" height="48" rx="11" fill="#B8E986"/>
<path d="M32.3089 20.2738C32.6661 20.6189 32.6661 21.1934 32.3089 21.5507C31.9637 21.8959 31.3892 21.8959 31.0448 21.5507L24.57 15.0759V36.4419C24.5692 36.94 24.1733 37.3358 23.6753 37.3358C23.1772 37.3358 22.7684 36.94 22.7684 36.4419V15.0759L16.3057 21.5507C15.9484 21.8959 15.3731 21.8959 15.0288 21.5507C14.6715 21.1934 14.6715 20.6181 15.0288 20.2738L23.0364 12.2661C23.3816 11.9089 23.9561 11.9089 24.3004 12.2661L32.3089 20.2738Z" fill="#4CAF50"/>
</svg>
