<svg width="15" height="13" viewBox="0 0 15 13" fill="none" xmlns="http://www.w3.org/2000/svg">
<path opacity="1" fill-rule="evenodd" clip-rule="evenodd" d="M13.6094 2.3843H10.5461V1.77161C10.5461 1.09583 9.99654 0.546265 9.32072 0.546265H5.6447C4.96892 0.546265 4.41935 1.0958 4.41935 1.77161V2.38428H1.35602C0.680205 2.3843 0.130669 2.93384 0.130669 3.60963V11.5743C0.130669 12.2501 0.680205 12.7997 1.35602 12.7997H13.6094C14.2852 12.7997 14.8348 12.2501 14.8348 11.5743V3.60963C14.8348 2.93384 14.2852 2.3843 13.6094 2.3843ZM5.03204 1.77161C5.03204 1.43388 5.30697 1.15895 5.6447 1.15895H9.32072C9.65846 1.15895 9.93338 1.43388 9.93338 1.77161V2.38428H5.03204V1.77161ZM13.6094 12.187C13.9472 12.187 14.2221 11.9121 14.2221 11.5744H14.2221V7.11526C14.0412 7.2208 13.8336 7.28568 13.6095 7.28568H8.70809V8.20468C8.70809 8.37401 8.57107 8.51103 8.40174 8.51103H6.56374C6.39441 8.51103 6.25739 8.37401 6.25739 8.20468V7.28568H1.35602C1.13184 7.28568 0.924316 7.22077 0.743358 7.11526V11.5744C0.743358 11.9121 1.01828 12.187 1.35602 12.187H13.6094ZM6.87005 7.89834V6.67299H8.0954V7.89834H6.87005ZM13.6094 6.67299C13.9472 6.67299 14.2221 6.39806 14.2221 6.06033V3.60965C14.2221 3.27192 13.9472 2.99699 13.6094 2.99699H1.35602C1.01828 2.99699 0.743358 3.27192 0.743358 3.60965V6.06033C0.743358 6.39806 1.01828 6.67299 1.35602 6.67299H6.25736V6.36664C6.25736 6.19731 6.39438 6.0603 6.56371 6.0603H8.40172C8.57104 6.0603 8.70806 6.19731 8.70806 6.36664V6.67299H13.6094Z" fill="#192D44"/>
</svg>
