<svg width="17" height="13" viewBox="0 0 17 13" fill="none" xmlns="http://www.w3.org/2000/svg">
<path opacity="1" fill-rule="evenodd" clip-rule="evenodd" d="M15.9542 4.08944L9.55013 0.960996C8.99806 0.684958 8.05953 0.684958 7.50745 0.960996L0.95613 4.08944C0.496065 4.31027 0.422455 4.62311 0.422455 4.78873C0.422455 4.95436 0.496065 5.2488 0.95613 5.48803L1.4898 5.74567V8.69008C1.15856 8.8189 0.919325 9.15014 0.919325 9.5182C0.919325 9.88625 1.15856 10.2175 1.4714 10.3463L0.643286 12.9779H2.96201L2.13389 10.3463C2.46514 10.2175 2.68597 9.88625 2.68597 9.5182C2.68597 9.13174 2.44674 8.8189 2.11549 8.69008V6.05851L3.09083 6.53698V10.3647C3.09083 10.4199 3.10923 10.4751 3.14604 10.5303C3.14937 10.5343 3.15483 10.5413 3.16242 10.5509L3.16243 10.5509C3.36445 10.8071 5.07622 12.9779 8.44598 12.9779C11.8453 12.9779 13.5575 10.7514 13.7176 10.5431L13.7275 10.5303C13.7643 10.4751 13.7827 10.4199 13.7827 10.3647V6.55538L15.9542 5.48803C16.4143 5.2672 16.4879 4.95436 16.4879 4.78873C16.4695 4.62311 16.4143 4.31027 15.9542 4.08944ZM13.1938 10.2727C12.8994 10.6408 11.3168 12.4074 8.44598 12.4074C5.57518 12.4074 3.99256 10.6408 3.69811 10.2727V6.79461L7.50745 8.61647C7.78349 8.74529 8.15154 8.8189 8.51959 8.8189C8.90604 8.8189 9.2741 8.74529 9.55013 8.59807L13.1938 6.81302V10.2727ZM13.4883 6.05851L15.6966 4.97276C15.8438 4.89915 15.899 4.80714 15.899 4.80714C15.899 4.77033 15.8622 4.69672 15.6966 4.62311L9.2925 1.49467C9.10847 1.40266 8.81403 1.34745 8.51959 1.34745C8.24355 1.34745 7.96751 1.40266 7.76508 1.49467L1.21377 4.64151C1.04814 4.71512 1.01134 4.78873 1.01134 4.80714C1.01134 4.80714 1.04814 4.89915 1.21377 4.97276L1.87626 5.2856L8.42758 4.51269C8.5748 4.49429 8.72202 4.60471 8.74042 4.77033C8.75882 4.91755 8.64841 5.06477 8.48279 5.08317L2.83319 5.74567L7.74668 8.1012C8.15154 8.30363 8.90604 8.30363 9.2925 8.1012L13.2859 6.16893C13.3227 6.09532 13.3963 6.05851 13.4883 6.05851Z" fill="#192D44"/>
</svg>
