<svg width="21" height="20" viewBox="0 0 21 20" fill="none" xmlns="http://www.w3.org/2000/svg">
<g opacity="0.4">
<path fill-rule="evenodd" clip-rule="evenodd" d="M18.7678 15.6085L15.5102 14.1975C15.4335 14.1592 15.3485 14.0655 15.2755 13.9405L17.4505 13.9388C17.4885 13.9425 18.3852 14.0245 19.1042 13.7155C19.3765 13.5982 19.5792 13.3665 19.6605 13.0798C19.7425 12.7905 19.6905 12.4842 19.5185 12.2388C18.8968 11.3542 17.4458 9.0425 17.4005 6.69784C17.3995 6.6575 17.2682 2.67017 13.3305 2.63784C12.7508 2.6425 12.2148 2.74084 11.7272 2.92217C11.6208 2.65117 11.4642 2.3685 11.2312 2.1025C10.5468 1.32117 9.43582 0.925171 7.92882 0.925171C6.42182 0.925171 5.31082 1.32117 4.62615 2.10184C3.83682 3.00217 3.91015 4.09384 3.92882 4.27684V6.04984C3.71549 6.29284 3.59549 6.60384 3.59549 6.92484V8.25817C3.59549 8.66384 3.77982 9.04217 4.09449 9.2945C4.39982 10.5035 5.03882 11.4145 5.26215 11.7068V12.8098C5.26215 13.1325 5.08615 13.4285 4.80315 13.5832L1.82949 15.2052C0.862487 15.7332 0.262154 16.7445 0.262154 17.8458V19.2585H14.9288H15.5955H20.2622V18.0262C20.2622 16.9955 19.6895 16.0695 18.7678 15.6085ZM14.9288 18.5918H0.92882V17.8458C0.92882 16.9888 1.39615 16.2012 2.14849 15.7912L5.12215 14.1692C5.61982 13.8975 5.92882 13.3765 5.92882 12.8102V11.4705L5.85115 11.3778C5.84315 11.3682 5.02615 10.3798 4.71449 9.02284L4.68415 8.89084L4.57049 8.8175C4.37749 8.69284 4.26215 8.48384 4.26215 8.2585V6.92517C4.26215 6.73817 4.34149 6.56384 4.48549 6.4335L4.59549 6.3345V4.2585L4.59249 4.21484L4.59244 4.21445C4.58974 4.19122 4.48329 3.27597 5.12749 2.54117C5.67982 1.91117 6.62249 1.59184 7.92882 1.59184C9.23049 1.59184 10.1712 1.90884 10.7242 2.5345C10.9992 2.84517 11.1375 3.19217 11.2065 3.49017C11.2118 3.5135 11.2168 3.5365 11.2215 3.5595L11.2247 3.57565L11.2247 3.57569C11.2284 3.59392 11.232 3.61201 11.2348 3.6295C11.2392 3.6555 11.2428 3.68017 11.2465 3.70484C11.2492 3.7225 11.2518 3.7405 11.2538 3.7575C11.2588 3.79884 11.2628 3.83884 11.2655 3.87584C11.2658 3.87884 11.2658 3.8815 11.2658 3.8845C11.2682 3.9205 11.2698 3.9545 11.2708 3.9855C11.2708 3.9915 11.2708 3.9965 11.2712 4.0025C11.2718 4.03017 11.2718 4.0565 11.2715 4.0795V4.0895C11.2703 4.15917 11.266 4.20379 11.265 4.21352L11.2648 4.2155L11.2622 6.3345L11.3722 6.43384C11.5162 6.56384 11.5955 6.73817 11.5955 6.92517V8.2585C11.5955 8.5495 11.4048 8.80417 11.1215 8.8915L10.9555 8.9425L10.9022 9.1075C10.6792 9.80117 10.3615 10.4418 9.95749 11.0118C9.85849 11.1522 9.76215 11.2765 9.67849 11.3715L9.59549 11.4662V12.8412C9.59549 12.9255 9.60382 13.0082 9.61682 13.0895C9.6184 13.0998 9.62068 13.1098 9.62296 13.1199C9.62454 13.1268 9.62613 13.1338 9.62749 13.1408C9.64049 13.2078 9.65782 13.2735 9.67915 13.3375C9.68415 13.3525 9.68949 13.3668 9.69515 13.3818C9.72115 13.4515 9.75149 13.5188 9.78682 13.5835L9.79265 13.5947L9.79849 13.6058C9.84682 13.6912 9.90249 13.7722 9.96649 13.8468L10.0425 13.9405H10.0555C10.1698 14.0532 10.3012 14.1512 10.4505 14.2258L13.6348 15.8178C14.4332 16.2165 14.9288 17.0185 14.9288 17.9108V18.5918ZM15.5955 18.5918H19.5955V18.0262C19.5955 17.2525 19.1672 16.5572 18.4775 16.2088L15.2285 14.8015C14.9255 14.6505 14.7412 14.3695 14.6368 14.1592C14.5422 13.9685 14.5528 13.7465 14.6655 13.5648C14.7785 13.3825 14.9738 13.2735 15.1882 13.2735H17.4825C17.4847 13.2736 17.4891 13.2739 17.4957 13.2743C17.6062 13.2819 18.3126 13.33 18.8412 13.1025C18.9602 13.0515 19.0042 12.9522 19.0195 12.8975C19.0465 12.8025 19.0295 12.7018 18.9732 12.6218C18.3162 11.6868 16.7832 9.23884 16.7342 6.71117C16.7308 6.5745 16.6112 3.33117 13.3308 3.30417C12.8112 3.3085 12.3302 3.3955 11.9008 3.56417C11.9562 3.92084 11.9375 4.19384 11.9288 4.27717V6.05017C12.1422 6.29317 12.2622 6.60417 12.2622 6.92517V8.2585C12.2622 8.7835 11.9568 9.2485 11.4865 9.46417C11.2458 10.1645 10.9148 10.8138 10.5018 11.3972C10.4188 11.5145 10.3385 11.6208 10.2622 11.7142V12.8412C10.2622 12.9205 10.2742 12.9978 10.2945 13.0718C10.3027 13.1021 10.3158 13.1308 10.3289 13.1594C10.3333 13.169 10.3376 13.1786 10.3418 13.1882C10.3455 13.1967 10.349 13.2054 10.3525 13.2141C10.3606 13.2344 10.3687 13.2546 10.3795 13.2735H11.1185C11.3668 13.2735 11.5802 13.4252 11.6618 13.6602C11.7112 13.8022 11.7038 13.9495 11.6475 14.0782L13.9335 15.2215C14.9585 15.7342 15.5955 16.7645 15.5955 17.9108V18.5918Z" fill="#192D44"/>
</g>
</svg>
