<svg width="21" height="21" viewBox="0 0 21 21" fill="none" xmlns="http://www.w3.org/2000/svg">
<g opacity="0.4">
<path fill-rule="evenodd" clip-rule="evenodd" d="M19.7959 8.49726C19.7969 8.50058 19.7979 8.50395 19.7979 8.50758H19.798V19.6544C19.7968 19.7599 19.7784 19.8646 19.7436 19.9642C19.8093 20.0643 19.8147 20.1924 19.7575 20.2977C19.7003 20.4029 19.5899 20.4681 19.4702 20.4674C19.4409 20.4667 19.4119 20.4619 19.3839 20.4533C19.2181 20.5729 19.019 20.6375 18.8145 20.6379H1.11075C0.907126 20.6379 0.708573 20.5743 0.542908 20.4559C0.412051 20.4936 0.271589 20.4456 0.191062 20.3358C0.110535 20.226 0.107 20.0777 0.182264 19.9642C0.147302 19.8645 0.128822 19.7599 0.127516 19.6544V8.50627C0.127516 8.50279 0.128518 8.49957 0.129509 8.49638C0.130477 8.49327 0.131435 8.49019 0.131435 8.48694C0.133548 8.46466 0.138043 8.44268 0.144882 8.42136C0.149338 8.40192 0.155601 8.38294 0.163554 8.36465C0.17289 8.34729 0.183878 8.33081 0.196325 8.31548C0.209311 8.29669 0.224257 8.27932 0.240931 8.26369C0.243366 8.26154 0.245166 8.25904 0.246959 8.25655C0.249013 8.2537 0.251057 8.25087 0.254032 8.24859L3.40563 5.79992V3.26204C3.40563 2.71882 3.84599 2.2785 4.38917 2.2785H7.94205L9.36488 1.17397C9.71638 0.900118 10.209 0.900118 10.5605 1.17397L11.9831 2.2785H15.536C16.0792 2.2785 16.5195 2.71886 16.5195 3.26204V5.79992L19.6714 8.24859C19.6744 8.25085 19.6764 8.25367 19.6785 8.25651C19.6803 8.25901 19.6821 8.26153 19.6845 8.26369C19.7012 8.27932 19.7162 8.29669 19.7291 8.31548C19.7416 8.33081 19.7525 8.34729 19.7619 8.36465C19.7698 8.38298 19.776 8.40196 19.7806 8.42136C19.7875 8.44311 19.792 8.46554 19.794 8.48825C19.7942 8.49133 19.7951 8.49428 19.7959 8.49726ZM10.1569 1.69133C10.0425 1.60035 9.88032 1.60035 9.76583 1.69133L9.01177 2.2785H10.9133L10.1569 1.69133ZM1.19201 19.9822L9.76587 13.3224C9.88044 13.2319 10.0421 13.2319 10.1567 13.3224L18.7331 19.9822H1.19201ZM10.5599 12.8047L19.1423 19.4701V9.00691L13.7604 13.186C13.6173 13.297 13.4113 13.2711 13.3002 13.1281C13.1891 12.985 13.215 12.779 13.3581 12.668L18.8258 8.42201L16.5194 6.63001V9.16328C16.5194 9.34431 16.3727 9.49112 16.1916 9.49112C16.0105 9.49112 15.8637 9.34435 15.8637 9.16328V3.26204C15.8637 3.08097 15.717 2.9342 15.5359 2.9342H4.38913C4.20806 2.9342 4.06129 3.08097 4.06129 3.26204V9.16328C4.06129 9.34431 3.91453 9.49112 3.73346 9.49112C3.55243 9.49112 3.40563 9.34435 3.40563 9.16328V6.63001L1.09922 8.42201L6.55722 12.6604C6.70037 12.7714 6.72642 12.9774 6.61543 13.1205C6.50443 13.2637 6.29843 13.2897 6.15528 13.1787L0.782838 9.00688V19.4701L9.36523 12.8047C9.7165 12.5312 10.2086 12.5312 10.5599 12.8047Z" fill="#192D44"/>
<path d="M6.68408 5.22912H13.241C13.4221 5.22912 13.5689 5.08235 13.5689 4.90128C13.5689 4.72021 13.4221 4.57345 13.241 4.57345H6.68408C6.50301 4.57345 6.35625 4.72021 6.35625 4.90128C6.35625 5.08235 6.50301 5.22912 6.68408 5.22912Z" fill="#192D44"/>
<path d="M13.5689 6.86836C13.5689 6.68729 13.4221 6.54053 13.241 6.54053H6.68408C6.50301 6.54053 6.35625 6.68733 6.35625 6.86836C6.35625 7.04943 6.50301 7.1962 6.68408 7.1962H13.241C13.4221 7.1962 13.5689 7.04939 13.5689 6.86836Z" fill="#192D44"/>
<path d="M13.5689 8.83544C13.5689 8.65437 13.4221 8.50761 13.241 8.50761H10.2904C10.1093 8.50761 9.96258 8.65437 9.96258 8.83544C9.96258 9.01651 10.1093 9.16327 10.2904 9.16327H13.241C13.4221 9.16327 13.5689 9.01647 13.5689 8.83544Z" fill="#192D44"/>
</g>
</svg>
