<svg width="19" height="19" viewBox="0 0 19 19" fill="none" xmlns="http://www.w3.org/2000/svg">
<g opacity="0.4">
<path fill-rule="evenodd" clip-rule="evenodd" d="M0.439453 9.00003C0.439453 4.27955 4.27985 0.439484 9 0.439484C13.7202 0.439484 17.5605 4.27955 17.5605 9.00003C17.5605 13.7205 13.7202 17.5606 9 17.5606C4.27985 17.5606 0.439453 13.7205 0.439453 9.00003ZM1.09796 9.00003C1.09796 13.357 4.64301 16.9021 9 16.9021C13.357 16.9021 16.902 13.357 16.902 9.00003C16.902 4.64304 13.357 1.09799 9 1.09799C4.64301 1.09799 1.09796 4.64304 1.09796 9.00003Z" fill="#192D44"/>
<path d="M12.196 5.80398C12.0673 5.67524 11.8592 5.67524 11.7305 5.80398L9 8.53447L6.26951 5.80398C6.14078 5.67524 5.93269 5.67524 5.80395 5.80398C5.67522 5.93272 5.67522 6.14081 5.80395 6.26954L8.53444 9.00003L5.80395 11.7305C5.67522 11.8593 5.67522 12.0673 5.80395 12.1961C5.86816 12.2603 5.95245 12.2925 6.03673 12.2925C6.12102 12.2925 6.20531 12.2603 6.26951 12.1961L9 9.46559L11.7305 12.1961C11.7947 12.2603 11.879 12.2925 11.9633 12.2925C12.0476 12.2925 12.1318 12.2603 12.196 12.1961C12.3248 12.0673 12.3248 11.8593 12.196 11.7305L9.46556 9.00003L12.196 6.26954C12.3248 6.14081 12.3248 5.93272 12.196 5.80398Z" fill="#192D44"/>
</g>
</svg>
