<svg width="29" height="37" viewBox="0 0 29 37" fill="none" xmlns="http://www.w3.org/2000/svg">
<g opacity="0.4">
<path d="M22.9346 15.4307H8.23293C7.90832 15.4307 7.64487 15.6935 7.64487 16.0187C7.64487 16.3439 7.90832 16.6068 8.23293 16.6068H22.9346C23.2592 16.6068 23.5226 16.3439 23.5226 16.0187C23.5226 15.6935 23.2592 15.4307 22.9346 15.4307Z" fill="#192D44"/>
<path d="M8.23293 11.9023H14.1136C14.4382 11.9023 14.7017 11.6394 14.7017 11.3142C14.7017 10.989 14.4382 10.7261 14.1136 10.7261H8.23293C7.90832 10.7261 7.64487 10.989 7.64487 11.3142C7.64487 11.6394 7.90832 11.9023 8.23293 11.9023Z" fill="#192D44"/>
<path d="M22.9346 20.1352H8.23293C7.90832 20.1352 7.64487 20.3981 7.64487 20.7233C7.64487 21.0485 7.90832 21.3113 8.23293 21.3113H22.9346C23.2592 21.3113 23.5226 21.0485 23.5226 20.7233C23.5226 20.3981 23.2592 20.1352 22.9346 20.1352Z" fill="#192D44"/>
<path d="M22.9346 24.8397H8.23293C7.90832 24.8397 7.64487 25.1026 7.64487 25.4278C7.64487 25.753 7.90832 26.0159 8.23293 26.0159H22.9346C23.2592 26.0159 23.5226 25.753 23.5226 25.4278C23.5226 25.1026 23.2592 24.8397 22.9346 24.8397Z" fill="#192D44"/>
<path d="M22.9346 29.5443H8.23293C7.90832 29.5443 7.64487 29.8071 7.64487 30.1323C7.64487 30.4575 7.90832 30.7204 8.23293 30.7204H22.9346C23.2592 30.7204 23.5226 30.4575 23.5226 30.1323C23.5226 29.8071 23.2592 29.5443 22.9346 29.5443Z" fill="#192D44"/>
<path fill-rule="evenodd" clip-rule="evenodd" d="M25.2868 0.729034V9.30656L28.2271 12.2469V36.013H2.94033V33.0726H0V0.729034H25.2868ZM25.2868 10.9696L19.9942 5.67702V11.9023H26.2195L25.2868 10.9696ZM1.17613 31.8965V1.90517H24.1107V8.13043L19.6496 3.66936H2.94033V31.8965H1.17613ZM4.11646 33.0726V34.8368H27.051V13.0784H18.8181V4.84549H4.11646V33.0726Z" fill="#192D44"/>
</g>
</svg>
