<svg width="19" height="18" viewBox="0 0 19 18" fill="none" xmlns="http://www.w3.org/2000/svg">
<g opacity="0.4">
<path fill-rule="evenodd" clip-rule="evenodd" d="M17.5585 0.632996C17.7632 0.632996 17.9496 0.75112 18.0369 0.93631C18.1242 1.12143 18.0968 1.3404 17.9664 1.4983L11.6642 9.14203L11.6573 14.4355C11.657 14.6363 11.5432 14.8196 11.3632 14.9088L7.82248 16.6637C7.7483 16.7004 7.66783 16.7187 7.58765 16.7187C7.49061 16.7187 7.39392 16.692 7.30873 16.6392C7.1533 16.5427 7.05873 16.3728 7.05873 16.1898V9.14182L0.756821 1.49837C0.626567 1.3404 0.599204 1.1215 0.686511 0.93631C0.773887 0.75112 0.960206 0.632996 1.16493 0.632996H17.5585ZM10.6067 8.95113C10.6068 8.82856 10.6496 8.70987 10.7275 8.61537L16.4368 1.69075H2.28651L7.99583 8.61537C8.07397 8.71008 8.11663 8.82905 8.11663 8.95183V15.3373L10.5999 14.1065L10.6067 8.95113Z" fill="#192D44"/>
</g>
</svg>
