<svg width="12" height="16" viewBox="0 0 12 16" fill="none" xmlns="http://www.w3.org/2000/svg">
<path fill-rule="evenodd" clip-rule="evenodd" d="M5.83959 15.4723H2.83905C1.30942 15.4723 0.063668 14.1531 0.0621135 12.5241C0.0594828 9.74645 0.0569717 6.64164 0.0610373 4.88099C0.0625918 4.20216 0.587056 3.65617 1.2299 3.65617H1.25047C1.50337 3.65617 1.74994 3.72863 1.93361 3.87356V2.6351C1.93361 1.95435 2.45592 1.40191 3.10044 1.40203C3.35167 1.40286 3.59537 1.488 3.79231 1.64381C3.87626 1.04951 4.36269 0.595001 4.94838 0.595001H4.97002C5.61454 0.595001 6.12741 1.1429 6.12741 1.82353V2.25377C6.34169 2.1092 6.55884 2.02394 6.81163 2.02394C7.45591 2.02394 7.98599 2.57735 7.98647 3.25762L7.9903 8.84461L8.30526 8.46112C8.58244 8.1159 8.99068 7.90138 9.43227 7.86898C9.86478 7.8392 10.2905 7.98975 10.6081 8.28499L10.8831 8.51266C10.9718 8.58596 10.9972 8.7114 10.944 8.81352L8.26867 13.9516C7.77948 14.8914 6.8487 15.4723 5.83959 15.4723ZM1.2299 4.14595C0.856462 4.14595 0.551781 4.47264 0.550824 4.88219C0.546758 6.642 0.549269 9.74634 0.5519 12.5236C0.553216 13.8829 1.57918 14.9825 2.83905 14.9825H5.83959C6.66538 14.9825 7.42972 14.5026 7.83425 13.7255L10.4183 8.76425L10.291 8.65866C10.2877 8.65603 10.2846 8.65328 10.2815 8.65041C10.0623 8.44402 9.76709 8.33808 9.46659 8.35793C9.1594 8.38148 8.876 8.53155 8.68384 8.77238L7.93517 9.68368C7.86952 9.76355 7.76083 9.79369 7.66349 9.75877C7.56616 9.72397 7.50123 9.63178 7.50111 9.52835L7.49668 3.25822C7.49644 2.84783 7.19176 2.51397 6.81773 2.51397C6.45206 2.51397 6.15312 2.83216 6.13889 3.22928C6.13885 3.42845 6.1388 3.63319 6.13875 3.84069C6.13864 4.29294 6.13853 4.75832 6.13853 5.20792L6.13849 5.46274C6.13826 6.836 6.13808 7.98066 6.13853 8.09773C6.13901 8.23297 6.02971 8.34298 5.89447 8.34346C5.75923 8.34394 5.64922 8.23464 5.64874 8.0994C5.64814 7.97433 5.64838 6.69246 5.64874 5.20792C5.64878 4.99649 5.64883 4.78156 5.64889 4.56615C5.64899 4.12942 5.6491 3.69069 5.6491 3.27508C5.64862 3.26981 5.64862 3.26479 5.64862 3.25941C5.64862 3.24686 5.64874 3.23502 5.6491 3.2227V1.8264C5.6491 1.4159 5.34442 1.08479 4.97002 1.08479H4.94838C4.57387 1.08479 4.2601 1.41315 4.2601 1.82389V8.09845C4.2601 8.23369 4.15056 8.34334 4.0152 8.34334C3.87996 8.34334 3.77031 8.23369 3.77031 8.09845V2.6351C3.77031 2.22447 3.47244 1.89026 3.09793 1.89026C2.72138 1.89026 2.4234 2.22447 2.4234 2.6351V8.09821C2.4234 8.23345 2.31386 8.3431 2.1785 8.3431C2.04326 8.3431 1.93361 8.23345 1.93361 8.09821V4.87788C1.93361 4.46714 1.62486 4.14595 1.25047 4.14595H1.2299Z" fill="#192D44"/>
</svg>
