<svg width="20" height="21" viewBox="0 0 20 21" fill="none" xmlns="http://www.w3.org/2000/svg">
<g opacity="0.4">
<path fill-rule="evenodd" clip-rule="evenodd" d="M18.2412 9.97483H19.5633C19.784 9.97483 19.9626 10.1536 19.9626 10.374C19.9626 10.5945 19.784 10.7733 19.5633 10.7733H18.2413C18.0375 15.0199 14.6273 18.4301 10.3806 18.6337V19.9561C10.3806 20.1766 10.202 20.3554 9.98124 20.3554C9.76068 20.3554 9.58208 20.1766 9.58208 19.9561V18.6337C5.33604 18.4296 1.92617 15.0197 1.7225 10.7733H0.399325C0.178596 10.7733 0 10.5945 0 10.374C0 10.1536 0.178596 9.97483 0.399325 9.97483H1.7225C1.92669 5.72879 5.33621 2.31909 9.58208 2.11491V0.792074C9.58208 0.571516 9.76068 0.39275 9.98124 0.39275C10.202 0.39275 10.3806 0.571516 10.3806 0.792074V2.11491C14.6271 2.31858 18.037 5.72845 18.2412 9.97483ZM10.3806 16.9972V17.8353C14.1869 17.6331 17.2405 14.5796 17.4427 10.7733H16.6045C16.3837 10.7733 16.2051 10.5945 16.2051 10.374C16.2051 10.1536 16.3837 9.97483 16.6045 9.97483H17.4427C17.2402 6.16871 14.1867 3.11553 10.3806 2.91339V3.75093C10.3806 3.97132 10.202 4.15008 9.98124 4.15008C9.76068 4.15008 9.58208 3.97132 9.58208 3.75093V2.91339C5.7763 3.11587 2.72363 6.16888 2.52098 9.97483H3.35818C3.57891 9.97483 3.75733 10.1536 3.75733 10.374C3.75733 10.5945 3.57891 10.7733 3.35818 10.7733H2.52098C2.72312 14.5793 5.77613 17.6326 9.58208 17.8353V16.9972C9.58208 16.7767 9.76068 16.5979 9.98124 16.5979C10.202 16.5979 10.3806 16.7767 10.3806 16.9972Z" fill="#192D44"/>
<path fill-rule="evenodd" clip-rule="evenodd" d="M9.22764 10.3081H10.735C11.8025 10.3081 12.6708 11.1764 12.6708 12.2437V13.8673C12.6708 14.0878 12.4922 14.2666 12.2716 14.2666H7.69107C7.47034 14.2666 7.29175 14.0878 7.29175 13.8673V12.2437C7.29175 11.1764 8.16016 10.3081 9.22764 10.3081ZM8.0904 13.4681H11.8723V12.2437C11.8723 11.6168 11.3619 11.1066 10.735 11.1066H9.22764C8.60077 11.1066 8.0904 11.6168 8.0904 12.2437V13.4681Z" fill="#192D44"/>
<path fill-rule="evenodd" clip-rule="evenodd" d="M11.5981 8.10103C11.5981 8.9911 10.8742 9.71504 9.98396 9.71504C9.09081 9.71504 8.36432 8.9911 8.36432 8.10103C8.36432 7.20805 9.09081 6.48155 9.98396 6.48155C10.8742 6.48155 11.5981 7.20805 11.5981 8.10103ZM10.7997 8.10103C10.7997 7.64831 10.4339 7.28003 9.98396 7.28003C9.53142 7.28003 9.16297 7.64831 9.16297 8.10103C9.16297 8.55067 9.53142 8.91656 9.98396 8.91656C10.4339 8.91656 10.7997 8.55067 10.7997 8.10103Z" fill="#192D44"/>
</g>
</svg>
