<svg width="21" height="20" viewBox="0 0 21 20" fill="none" xmlns="http://www.w3.org/2000/svg">
<path fill-rule="evenodd" clip-rule="evenodd" d="M14.8271 0.718393C17.7189 0.718393 20.0297 3.08697 20.3263 6.35164C20.3493 6.49584 20.4455 7.25476 20.1532 8.492C19.7319 10.2775 18.7588 11.9009 17.3399 13.187L10.1391 19.6108L3.05998 13.1866C1.64102 11.9009 0.667947 10.2771 0.246675 8.492C-0.0456366 7.25436 0.0504979 6.49545 0.0739453 6.35125C0.370165 3.08658 2.6813 0.718002 5.57276 0.718002C7.46848 0.718002 9.16022 1.73367 10.1438 3.4168C11.1364 1.75516 12.9005 0.718393 14.8271 0.718393ZM16.817 12.6059C18.1164 11.4288 19.0077 9.94339 19.3923 8.31302C19.6633 7.16579 19.5597 6.50713 19.5546 6.47477C19.5545 6.4741 19.5545 6.47369 19.5545 6.47357C19.2954 3.57624 17.3094 1.49997 14.8275 1.49997C12.9524 1.49997 11.2549 2.65281 10.5018 4.43637L10.1419 5.28947L9.78196 4.43637C9.0168 2.62506 7.40439 1.49958 5.57276 1.49958C3.09046 1.49958 1.10485 3.57585 0.850837 6.43605L0.844975 6.47552C0.844966 6.47562 0.844892 6.4761 0.844759 6.47695C0.839367 6.51176 0.737483 7.16944 1.00754 8.31263C1.39247 9.943 2.28348 11.428 3.5852 12.6074L10.1438 18.5595L16.817 12.6059Z" fill="#4285F4"/>
</svg>
