<?xml version="1.0" encoding="utf-8"?><svg viewBox="0 0 21 21" xmlns="http://www.w3.org/2000/svg" xmlns:xlink="http://www.w3.org/1999/xlink"><style>:root>svg{display:none}:root>svg:target{display:block}</style><svg fill="none" viewBox="0 0 21 15" id="icon-1" xmlns="http://www.w3.org/2000/svg"><g opacity=".8" fill="#fff"><path d="M14.383 5.569L9.505 9.857a.826.826 0 0 0-.264.607c0 .46.374.834.834.834.221 0 .43-.086.608-.264l4.288-4.878a.417.417 0 0 0-.588-.587z"/><path fill-rule="evenodd" clip-rule="evenodd" d="M.075 10.465c0-5.514 4.485-10 10-10 5.514 0 10 4.486 10 10 0 1.034-.16 2.058-.476 3.043a.417.417 0 0 1-.397.29H.947a.417.417 0 0 1-.397-.29 9.984 9.984 0 0 1-.475-3.043zm19.137.416h-1.22a.416.416 0 1 1 0-.833h1.228a9.093 9.093 0 0 0-1.014-3.797l-1.067.616a.417.417 0 0 1-.416-.722l1.065-.615a9.226 9.226 0 0 0-2.78-2.778l-.614 1.065a.416.416 0 1 1-.722-.417l.617-1.067a9.095 9.095 0 0 0-3.798-1.014v1.229a.416.416 0 1 1-.833 0V1.319A9.095 9.095 0 0 0 5.86 2.333L6.477 3.4a.416.416 0 1 1-.721.417L5.14 2.752A9.227 9.227 0 0 0 2.36 5.53l1.066.615a.416.416 0 1 1-.417.722l-1.067-.616a9.095 9.095 0 0 0-1.014 3.797h1.229a.416.416 0 1 1 0 .833H.937c.032.705.126 1.405.32 2.084h17.636c.193-.68.287-1.379.32-2.084z"/></g></svg><svg fill="none" viewBox="0 0 21 11" id="icon-2" xmlns="http://www.w3.org/2000/svg"><path fill-rule="evenodd" clip-rule="evenodd" d="M17.879.912c-1.169 0-2.12.95-2.12 2.119 0 .426.127.823.345 1.156l-2.29 2.29a2.106 2.106 0 0 0-2.348.023L9.153 4.187c.217-.333.344-.73.344-1.156 0-1.169-.95-2.12-2.12-2.12-1.168 0-2.119.951-2.119 2.12 0 .426.127.823.344 1.155l-2.29 2.29a2.106 2.106 0 0 0-1.155-.344c-1.169 0-2.12.951-2.12 2.12 0 1.168.951 2.12 2.12 2.12 1.168 0 2.12-.952 2.12-2.12 0-.427-.128-.823-.345-1.156l2.29-2.29a2.106 2.106 0 0 0 2.311 0l2.327 2.327c-.204.325-.321.708-.321 1.119 0 1.168.95 2.12 2.12 2.12 1.168 0 2.119-.952 2.119-2.12 0-.426-.127-.823-.345-1.156l2.29-2.29c.333.217.73.344 1.156.344 1.169 0 2.12-.95 2.12-2.12 0-1.168-.951-2.118-2.12-2.118zM2.157 9.495A1.245 1.245 0 0 1 .913 8.252a1.245 1.245 0 0 1 2.487 0c0 .685-.558 1.243-1.243 1.243zm3.977-6.464a1.245 1.245 0 0 0 2.487 0c0-.686-.558-1.243-1.243-1.243-.686 0-1.244.557-1.244 1.243zm6.524 6.464a1.245 1.245 0 0 1-1.243-1.243c0-.686.558-1.244 1.243-1.244a1.245 1.245 0 0 1 0 2.487zm3.978-6.464c0 .686.557 1.243 1.243 1.243.685 0 1.243-.557 1.243-1.243s-.558-1.244-1.243-1.244c-.686 0-1.244.558-1.244 1.244z" fill="#192D44" opacity=".4"/></svg><svg fill="none" viewBox="0 0 21 15" id="icon-3" xmlns="http://www.w3.org/2000/svg"><path fill-rule="evenodd" clip-rule="evenodd" d="M19.724.855l.002-.008.003-.015a.342.342 0 0 0-.003-.074V.75l-.001-.01a.33.33 0 0 0-.033-.095l-.005-.009-.004-.006V.628h-.001V.625h-.002L19.677.62a.322.322 0 0 0-.076-.082c-.003-.003-.007-.004-.01-.006a.316.316 0 0 0-.086-.043c-.012-.004-.022-.006-.033-.008h-.005a.317.317 0 0 0-.123-.004c-.004 0-.009 0-.014.002L.3 4.413a.328.328 0 0 0-.087.61L5.665 7.9l.957 5.307v.013a.308.308 0 0 0 .006.116c.007.03.02.06.036.088l.003.008.004.008.002.003.002.002.008.01.004.004.003.003a.333.333 0 0 0 .053.055l.003.002v.002h.002l.008.005a.333.333 0 0 0 .07.036l.009.003.017.007a.33.33 0 0 0 .09.014h.023c.09 0 .172-.04.233-.103l3.632-2.422 3.804 2.472a.33.33 0 0 0 .486-.162L19.709.916a.284.284 0 0 0 .01-.035l.002-.008.001-.006a.1.1 0 0 0 .002-.012zm-3.797 2.093L8.061 8.732a.213.213 0 0 0-.026.024l-.008.009-.004.003-.005.004-.004.004a.331.331 0 0 0-.019.023l-.011.017-.005.008a.336.336 0 0 0-.032.067l-.003.006-.001.002-.001.001-.902 2.93-.714-3.964 9.601-4.918zM8.442 9.51l-.894 2.952 1.331-.887 1.352-.902-.398-.258-1.391-.905zM17.1 1.61L5.962 7.315 1.326 4.87l15.775-3.26zM9.596 9.477l5.05 3.283 4.072-11.05L8.83 8.98l.765.497z" fill="#192D44" opacity=".4"/></svg><svg fill="none" viewBox="0 0 18 16" id="icon-4" xmlns="http://www.w3.org/2000/svg"><path opacity=".4" fill-rule="evenodd" clip-rule="evenodd" d="M8.683 15.594a.563.563 0 0 0 .634 0 37.377 37.377 0 0 0 3.916-3.142c2.674-2.474 4.03-4.605 4.03-6.335 0-3.001-2.253-5.443-5.024-5.443-1.186 0-2.338.461-3.239 1.283C8.1 1.135 6.947.674 5.76.674 2.99.674.737 3.116.737 6.117c0 1.73 1.356 3.86 4.03 6.335a37.394 37.394 0 0 0 3.916 3.142zM1.515 6.019c0-2.496 1.833-4.527 4.086-4.527 1.124 0 2.172.496 2.951 1.397a.592.592 0 0 0 .896 0c.779-.9 1.827-1.397 2.95-1.397 2.254 0 4.087 2.031 4.087 4.527 0 2.846-5.12 7.059-7.485 8.731C6.634 13.08 1.515 8.868 1.515 6.02z" fill="#192D44"/></svg><svg fill="none" viewBox="0 0 21 21" id="icon-5" xmlns="http://www.w3.org/2000/svg"><g opacity=".4" fill-rule="evenodd" clip-rule="evenodd" fill="#192D44"><path d="M18.279 9.93H19.6a.4.4 0 1 1 0 .799h-1.322a8.277 8.277 0 0 1-7.861 7.86v1.323a.4.4 0 1 1-.799 0v-1.323a8.276 8.276 0 0 1-7.86-7.86H.438a.4.4 0 1 1 0-.799H1.76a8.277 8.277 0 0 1 7.86-7.86V.748a.4.4 0 1 1 .798 0V2.07a8.277 8.277 0 0 1 7.86 7.86zm-7.861 7.023v.838a7.479 7.479 0 0 0 7.062-7.062h-.838a.4.4 0 1 1 0-.799h.838a7.479 7.479 0 0 0-7.062-7.061v.837a.4.4 0 1 1-.799 0V2.87A7.479 7.479 0 0 0 2.56 9.93h.837a.399.399 0 1 1 0 .799h-.838A7.479 7.479 0 0 0 9.62 17.79v-.838a.4.4 0 1 1 .799 0z"/><path d="M9.265 10.264h1.507c1.068 0 1.936.868 1.936 1.935v1.624a.4.4 0 0 1-.4.4h-4.58a.4.4 0 0 1-.399-.4v-1.624c0-1.067.868-1.935 1.936-1.935zm-1.137 3.16h3.782v-1.225c0-.627-.51-1.137-1.138-1.137H9.265c-.627 0-1.137.51-1.137 1.137v1.225zM11.636 8.057a1.616 1.616 0 1 1-3.232-.004 1.616 1.616 0 0 1 3.232.004zm-.799 0a.82.82 0 1 0-1.638-.004.82.82 0 0 0 1.638.004z"/></g></svg><svg fill="none" viewBox="0 0 18 19" id="icon-6" xmlns="http://www.w3.org/2000/svg"><g opacity=".4" fill="#192D44"><path d="M17.454 8.5h-6.909c-.3 0-.545-.224-.545-.5s.244-.5.546-.5h6.909c.3 0 .545.224.545.5s-.244.5-.546.5z"/><path d="M14.571 11.5a.562.562 0 0 1-.404-.171.592.592 0 0 1 0-.825L16.621 8l-2.454-2.504a.592.592 0 0 1 0-.825.563.563 0 0 1 .809 0l2.857 2.916a.592.592 0 0 1 0 .825l-2.857 2.916a.562.562 0 0 1-.405.172z"/><path fill-rule="evenodd" clip-rule="evenodd" d="M5.166 18.43c.142.047.284.07.434.07.772 0 1.4-.673 1.4-1.5V3.5c0-.64-.38-1.212-.953-1.426L1.834.57A1.355 1.355 0 0 0 1.4.5C.628.5 0 1.173 0 2v13.5c0 .64.38 1.212.953 1.427l4.213 1.503zM1.05 2c0-.206.158-.375.35-.375.045 0 .084.006.114.016L5.707 3.14a.389.389 0 0 1 .243.361V17c0 .206-.157.375-.35.375a.355.355 0 0 1-.114-.017l-4.193-1.497a.389.389 0 0 1-.243-.361V2z"/><path d="M11.44 6.5a.561.561 0 0 1-.559-.563V2.563a.936.936 0 0 0-.932-.938H1.56A.561.561 0 0 1 1 1.062C1 .752 1.25.5 1.56.5h8.39C11.08.5 12 1.425 12 2.563v3.374c0 .311-.25.563-.56.563zM9.8 16.5H6.6c-.331 0-.6-.252-.6-.563 0-.31.269-.562.6-.562h3.2c.551 0 1-.42 1-.938v-3.374c0-.311.269-.563.6-.563.331 0 .6.252.6.563v3.374c0 1.138-.986 2.063-2.2 2.063z"/></g></svg></svg>