<svg width="19" height="19" viewBox="0 0 19 19" fill="none" xmlns="http://www.w3.org/2000/svg">
<path fill-rule="evenodd" clip-rule="evenodd" d="M8.99433 0.0523529C11.3828 0.0523529 13.6284 0.982498 15.3173 2.67139C17.0062 4.36035 17.9364 6.60588 17.9364 8.99438C17.9364 11.3829 17.0062 13.6284 15.3173 15.3173C13.6284 17.0063 11.3828 17.9364 8.99433 17.9364C6.6058 17.9364 4.36027 17.0063 2.67134 15.3173C0.98242 13.6284 0.05231 11.3829 0.05231 8.99438C0.05231 6.60588 0.98242 4.36031 2.67134 2.67139C4.36023 0.982498 6.6058 0.0523529 8.99433 0.0523529ZM1.1002 8.99438C1.1002 13.3472 4.64149 16.8885 8.99433 16.8885C13.3472 16.8885 16.8885 13.3472 16.8885 8.99438C16.8885 4.64153 13.3472 1.10025 8.99433 1.10025C4.64149 1.10025 1.1002 4.64153 1.1002 8.99438Z" fill="#192D44"/>
<path d="M13.2664 6.12521C13.0618 5.92066 12.7301 5.92066 12.5255 6.12524L7.89873 10.752L5.46318 8.31646C5.25859 8.11187 4.92683 8.11187 4.72221 8.31646C4.51759 8.52104 4.51759 8.85281 4.72221 9.05742L7.52823 11.8634C7.63053 11.9657 7.76463 12.0169 7.89869 12.0169C8.03275 12.0169 8.16688 11.9657 8.26916 11.8634L13.2664 6.86617C13.471 6.66159 13.471 6.32983 13.2664 6.12521Z" fill="#192D44"/>
</svg>
