<svg width="36" height="33" viewBox="0 0 36 33" fill="none" xmlns="http://www.w3.org/2000/svg">
<g opacity="0.4">
<path d="M17.8783 11.2824C17.2673 11.2824 16.8599 11.6897 16.8599 12.3008V19.6329C16.8599 20.2439 17.2672 20.6513 17.8783 20.6513C18.4892 20.6513 18.8967 20.244 18.8967 19.6329V12.3008C18.8967 11.6897 18.4892 11.2824 17.8783 11.2824Z" fill="#192D44"/>
<path fill-rule="evenodd" clip-rule="evenodd" d="M22.359 3.3393L34.3756 24.3173C35.394 25.9467 35.394 27.9834 34.3756 29.6128C33.5608 31.242 31.9315 32.2604 29.8948 32.2604H5.86166C4.02852 32.2604 2.19549 31.2421 1.38087 29.6128C0.362465 27.9834 0.362465 25.9467 1.38087 24.3173L13.3974 3.3393C14.4158 1.71005 16.0452 0.69165 17.8782 0.69165C19.7114 0.69165 21.5444 1.70993 22.359 3.3393ZM30.0986 30.4275C31.3205 30.4275 32.3389 29.8165 32.7462 28.7981C33.3573 27.7797 33.3573 26.5577 32.7462 25.5393L20.7296 4.56124C20.1186 3.54284 19.1003 2.93187 17.8782 2.93187C16.6563 2.93187 15.6379 3.54284 15.2306 4.56124L3.21401 25.5394C2.60304 26.5578 2.60304 27.7797 3.21401 28.7981C3.82498 29.8165 4.84326 30.4275 5.86166 30.4275H30.0986Z" fill="#192D44"/>
<path fill-rule="evenodd" clip-rule="evenodd" d="M17.8782 24.8194C18.4857 24.8194 18.9782 24.327 18.9782 23.7194C18.9782 23.1119 18.4857 22.6194 17.8782 22.6194C17.2707 22.6194 16.7782 23.1119 16.7782 23.7194C16.7782 24.327 17.2707 24.8194 17.8782 24.8194Z" fill="#192D44"/>
</g>
</svg>
