<svg width="22" height="12" viewBox="0 0 22 12" fill="none" xmlns="http://www.w3.org/2000/svg">
<path d="M0.668155 6.55362C0.976154 6.50531 1.36415 6.79883 1.53715 6.18717C1.84015 5.11427 3.50015 4.49805 4.38015 5.25465C5.23815 5.99119 5.82215 6.91733 7.20315 6.79427C7.27515 6.78789 7.41215 6.98023 7.44715 7.09782C7.86915 8.55723 9.31415 9.02486 10.4602 9.83068C11.3552 10.4578 12.8582 10.2883 13.2632 11.6301C13.3132 11.7987 14.2962 12.3748 14.8972 11.4341C15.5942 10.3412 15.1932 9.69121 13.8292 8.79971C15.4732 9.14519 15.9752 8.36854 16.5691 7.70219C17.0702 7.13793 17.3501 7.22544 17.8431 7.75324C18.0271 7.95104 18.3221 8.49251 18.8421 8.20628C19.5491 7.82069 20.4761 7.8371 21.1181 7.16163C20.4711 6.84259 19.8741 6.37404 19.2371 6.32026C18.9231 6.29474 18.4671 6.64933 18.1691 6.25281C17.7391 5.67943 18.7961 5.68126 18.7671 5.10788C17.6001 5.38591 16.6941 5.93102 15.8651 6.60923C15.6551 6.78242 15.2811 7.11241 15.2351 7.0805C14.2151 6.34487 12.4162 6.37495 12.4812 4.51628C12.4982 4.045 11.7492 3.20637 10.6142 3.26835C9.03415 3.35222 7.50515 3.63571 6.10915 2.18907C4.83515 0.868213 2.82015 0.34042 0.730155 0.6385C0.295155 0.698663 -0.00784527 0.704132 0.000154724 1.21552C0.0251547 2.82989 0.0191547 4.44244 0.0101547 6.05773C0.00915472 6.49163 0.279155 6.61014 0.668155 6.55362Z" fill="#C40001"/>
</svg>
