<svg width="26" height="24" viewBox="0 0 26 24" fill="none" xmlns="http://www.w3.org/2000/svg">
<path d="M4.52588 24H12.6639V15.4688H9.74004V12.6562H12.6639V9.14062C12.6639 7.20209 14.3034 5.625 16.3187 5.625H19.9734V8.4375H17.0496C16.2435 8.4375 15.5877 9.0683 15.5877 9.84375V12.6562H19.8415L19.3542 15.4688H15.5877V24H22.1663C24.1816 24 25.8211 22.4229 25.8211 20.4844V3.51562C25.8211 1.57709 24.1816 0 22.1663 0H4.52588C2.51061 0 0.871094 1.57709 0.871094 3.51562V20.4844C0.871094 22.4229 2.51061 24 4.52588 24ZM2.33301 3.51562C2.33301 2.35254 3.31675 1.40625 4.52588 1.40625H22.1663C23.3754 1.40625 24.3592 2.35254 24.3592 3.51562V20.4844C24.3592 21.6475 23.3754 22.5938 22.1663 22.5938H17.0496V16.875H20.5927L21.5673 11.25H17.0496V9.84375H21.4354V4.21875H16.3187C13.4972 4.21875 11.202 6.42664 11.202 9.14062V11.25H8.27813V16.875H11.202V22.5938H4.52588C3.31675 22.5938 2.33301 21.6475 2.33301 20.4844V3.51562Z" fill="white"/>
</svg>
