<svg width="18" height="19" viewBox="0 0 18 19" fill="none" xmlns="http://www.w3.org/2000/svg">
<path d="M13.2317 2.88087C13.4448 2.7453 13.6088 2.58812 13.7142 2.40389C13.986 1.90102 13.9061 1.35477 13.4982 0.776953L13.4719 0.740514C13.0587 0.245761 12.5596 0 12.0684 0C11.1439 0 10.3724 0.839652 9.62503 1.65387C9.25685 2.05553 8.90409 2.43744 8.58004 2.66254C8.25595 2.43744 7.90319 2.05557 7.53505 1.65387C6.78765 0.839615 6.01616 0 5.09169 0C4.6005 0 4.10137 0.245761 3.68817 0.740514L3.66187 0.776953C3.25398 1.35477 3.17404 1.90102 3.44582 2.40389C3.55119 2.58812 3.71524 2.7453 3.92835 2.88087H0V6.58765H8.58H17.16V2.88087H13.2317ZM3.90154 2.15163C3.71459 1.79437 3.86508 1.36844 4.09598 1.06389C4.43065 0.694344 4.75725 0.514438 5.091 0.514438C5.78285 0.514438 6.47509 1.27009 7.14609 1.9993C7.43712 2.31707 7.71944 2.62456 8.00119 2.86866C7.94373 2.87223 7.88109 2.87663 7.82027 2.88114H5.93144C4.8716 2.8681 4.12698 2.54653 3.90154 2.15163ZM9.54711 6.08892H8.58H7.61289V3.58224H8.58H9.54711V6.08892ZM11.2286 2.88114H9.33973C9.27888 2.87663 9.21627 2.87223 9.15881 2.86866C9.44056 2.62456 9.72284 2.31707 10.0139 1.9993C10.6849 1.27009 11.3771 0.514438 12.069 0.514438C12.4027 0.514438 12.7293 0.694344 13.064 1.06389C13.2949 1.36844 13.4453 1.79437 13.2584 2.15163C13.0331 2.54653 12.2884 2.8681 11.2286 2.88114Z" fill="white"/>
<path d="M9.54797 17.9858H8.58059H7.61321V7.13672H0.988281V18.4998H8.58059H16.1729V7.13672H9.54797V17.9858Z" fill="white"/>
</svg>
