<svg width="26" height="24" viewBox="0 0 26 24" fill="none" xmlns="http://www.w3.org/2000/svg">
<path d="M3.86182 24H21.5022C23.5175 24 25.157 22.4229 25.157 20.4844V3.51562C25.157 1.57709 23.5175 0 21.5022 0H3.86182C1.84655 0 0.207031 1.57709 0.207031 3.51562V20.4844C0.207031 22.4229 1.84655 24 3.86182 24ZM1.66895 3.51562C1.66895 2.35254 2.65269 1.40625 3.86182 1.40625H21.5022C22.7114 1.40625 23.6951 2.35254 23.6951 3.51562V20.4844C23.6951 21.6475 22.7114 22.5938 21.5022 22.5938H3.86182C2.65269 22.5938 1.66895 21.6475 1.66895 20.4844V3.51562Z" fill="white"/>
<path d="M12.6802 18.3281C16.3076 18.3281 19.2588 15.4893 19.2588 12C19.2588 8.51074 16.3076 5.67188 12.6802 5.67188C9.0528 5.67188 6.10156 8.51074 6.10156 12C6.10156 15.4893 9.0528 18.3281 12.6802 18.3281ZM12.6802 7.07812C15.5016 7.07812 17.7969 9.28601 17.7969 12C17.7969 14.714 15.5016 16.9219 12.6802 16.9219C9.85876 16.9219 7.56348 14.714 7.56348 12C7.56348 9.28601 9.85876 7.07812 12.6802 7.07812Z" fill="white"/>
<path d="M19.9897 7.07812C21.1989 7.07812 22.1826 6.13184 22.1826 4.96875C22.1826 3.80566 21.1989 2.85938 19.9897 2.85938C18.7806 2.85938 17.7969 3.80566 17.7969 4.96875C17.7969 6.13184 18.7806 7.07812 19.9897 7.07812ZM19.9897 4.26562C20.3927 4.26562 20.7207 4.58112 20.7207 4.96875C20.7207 5.35638 20.3927 5.67188 19.9897 5.67188C19.5868 5.67188 19.2588 5.35638 19.2588 4.96875C19.2588 4.58112 19.5868 4.26562 19.9897 4.26562Z" fill="white"/>
</svg>
