<svg width="18" height="19" viewBox="0 0 18 19" fill="none" xmlns="http://www.w3.org/2000/svg">
<path d="M2.07812 5.97656C2.07812 7.30469 2.22266 8.30078 2.51172 8.96484C2.80078 9.62891 3.26953 9.96094 3.91797 9.96094C5.19922 9.96094 5.83984 8.63281 5.83984 5.97656C5.83984 3.33594 5.19922 2.01562 3.91797 2.01562C3.26953 2.01562 2.80078 2.34375 2.51172 3C2.22266 3.65625 2.07812 4.64844 2.07812 5.97656ZM7.44531 5.97656C7.44531 7.75781 7.14453 9.10547 6.54297 10.0195C5.94922 10.9258 5.07422 11.3789 3.91797 11.3789C2.82422 11.3789 1.97266 10.9141 1.36328 9.98438C0.761719 9.05469 0.460938 7.71875 0.460938 5.97656C0.460938 4.20313 0.75 2.86719 1.32812 1.96875C1.91406 1.07031 2.77734 0.621094 3.91797 0.621094C5.05078 0.621094 5.92188 1.08594 6.53125 2.01562C7.14062 2.94531 7.44531 4.26562 7.44531 5.97656ZM12.3906 12.8438C12.3906 14.1797 12.5352 15.1797 12.8242 15.8438C13.1133 16.5 13.5859 16.8281 14.2422 16.8281C14.8984 16.8281 15.3828 16.5039 15.6953 15.8555C16.0078 15.1992 16.1641 14.1953 16.1641 12.8438C16.1641 11.5078 16.0078 10.5195 15.6953 9.87891C15.3828 9.23047 14.8984 8.90625 14.2422 8.90625C13.5859 8.90625 13.1133 9.23047 12.8242 9.87891C12.5352 10.5195 12.3906 11.5078 12.3906 12.8438ZM17.7695 12.8438C17.7695 14.6172 17.4688 15.9609 16.8672 16.875C16.2734 17.7812 15.3984 18.2344 14.2422 18.2344C13.1328 18.2344 12.2773 17.7695 11.6758 16.8398C11.082 15.9102 10.7852 14.5781 10.7852 12.8438C10.7852 11.0703 11.0742 9.73438 11.6523 8.83594C12.2383 7.9375 13.1016 7.48828 14.2422 7.48828C15.3516 7.48828 16.2148 7.94922 16.832 8.87109C17.457 9.78516 17.7695 11.1094 17.7695 12.8438ZM14.7461 0.867188L5.24219 18H3.51953L13.0234 0.867188H14.7461Z" fill="#C40001"/>
</svg>
