<svg width="19" height="19" viewBox="0 0 19 19" fill="none" xmlns="http://www.w3.org/2000/svg">
<path d="M14.7223 11.9277C14.3406 11.5332 13.8801 11.3223 13.3922 11.3223C12.9081 11.3223 12.4438 11.5293 12.0463 11.9238L10.8028 13.1543C10.7004 13.0996 10.5981 13.0488 10.4998 12.998C10.3581 12.9277 10.2243 12.8613 10.1102 12.791C8.94532 12.0566 7.88673 11.0996 6.87143 9.86133C6.37952 9.24414 6.04896 8.72461 5.80891 8.19727C6.1316 7.9043 6.43068 7.59961 6.72189 7.30664C6.83208 7.19727 6.94227 7.08398 7.05245 6.97461C7.87886 6.1543 7.87886 5.0918 7.05245 4.27148L5.97813 3.20508C5.85613 3.08398 5.7302 2.95898 5.61215 2.83398C5.37603 2.5918 5.12811 2.3418 4.87232 2.10742C4.49059 1.73242 4.0341 1.5332 3.554 1.5332C3.0739 1.5332 2.60954 1.73242 2.21601 2.10742C2.21207 2.11133 2.21207 2.11133 2.20814 2.11523L0.870146 3.45508C0.366432 3.95508 0.0791574 4.56445 0.0161931 5.27148C-0.0782534 6.41211 0.26018 7.47461 0.519908 8.16992C1.15742 9.87695 2.10976 11.459 3.53039 13.1543C5.25404 15.1973 7.32792 16.8105 9.69696 17.9473C10.6021 18.373 11.8102 18.877 13.16 18.9629C13.2426 18.9668 13.3292 18.9707 13.4079 18.9707C14.317 18.9707 15.0804 18.6465 15.6786 18.002C15.6825 17.9941 15.6904 17.9902 15.6943 17.9824C15.8989 17.7363 16.1351 17.5137 16.383 17.2754C16.5522 17.1152 16.7253 16.9473 16.8946 16.7715C17.2842 16.3691 17.4888 15.9004 17.4888 15.4199C17.4888 14.9355 17.2802 14.4707 16.8828 14.0801L14.7223 11.9277ZM16.1311 16.041C16.1272 16.041 16.1272 16.0449 16.1311 16.041C15.9776 16.2051 15.8202 16.3535 15.651 16.5176C15.3952 16.7598 15.1355 17.0137 14.8915 17.2988C14.494 17.7207 14.0258 17.9199 13.4118 17.9199C13.3528 17.9199 13.2899 17.9199 13.2308 17.916C12.0621 17.8418 10.9759 17.3887 10.1613 17.002C7.93395 15.9316 5.97813 14.4121 4.35286 12.4863C3.01093 10.8809 2.11369 9.39648 1.51947 7.80273C1.15349 6.83008 1.01969 6.07227 1.07872 5.35742C1.11807 4.90039 1.29516 4.52148 1.62178 4.19727L2.96371 2.86523C3.15654 2.68555 3.36117 2.58789 3.56187 2.58789C3.80979 2.58789 4.01049 2.73633 4.13642 2.86133C4.14036 2.86523 4.14429 2.86914 4.14823 2.87305C4.38828 3.0957 4.61652 3.32617 4.85657 3.57227C4.97857 3.69727 5.1045 3.82227 5.23042 3.95117L6.30475 5.01758C6.72189 5.43164 6.72189 5.81445 6.30475 6.22852C6.19063 6.3418 6.08044 6.45508 5.96632 6.56445C5.63576 6.90039 5.32094 7.21289 4.97857 7.51758C4.9707 7.52539 4.96283 7.5293 4.95889 7.53711C4.62046 7.87305 4.68342 8.20117 4.75426 8.42383C4.75819 8.43555 4.76213 8.44727 4.76606 8.45898C5.04547 9.13086 5.43899 9.76367 6.03716 10.5176L6.04109 10.5215C7.12722 11.8496 8.27239 12.8848 9.53561 13.6777C9.69696 13.7793 9.86224 13.8613 10.0196 13.9395C10.1613 14.0098 10.2951 14.0762 10.4092 14.1465C10.425 14.1543 10.4407 14.166 10.4565 14.1738C10.5903 14.2402 10.7162 14.2715 10.8461 14.2715C11.1727 14.2715 11.3773 14.0684 11.4442 14.002L12.7901 12.666C12.9239 12.5332 13.1364 12.373 13.3843 12.373C13.6283 12.373 13.829 12.5254 13.951 12.6582C13.9549 12.6621 13.9549 12.6621 13.9589 12.666L16.1272 14.8184C16.5325 15.2168 16.5325 15.627 16.1311 16.041Z" fill="#B1B1B1" fill-opacity="0.83"/>
<path d="M10.0623 4.86448C11.0933 5.03636 12.0299 5.52073 12.7776 6.26292C13.5253 7.00511 14.0094 7.93479 14.1865 8.95823C14.2297 9.21604 14.4541 9.39573 14.7098 9.39573C14.7413 9.39573 14.7689 9.39183 14.8004 9.38792C15.0916 9.34104 15.2844 9.06761 15.2372 8.77854C15.0247 7.54026 14.4344 6.41136 13.5332 5.51683C12.632 4.62229 11.4947 4.03636 10.2473 3.82542C9.95604 3.77854 9.68451 3.96995 9.63335 4.25511C9.58219 4.54026 9.77109 4.81761 10.0623 4.86448Z" fill="#B1B1B1" fill-opacity="0.83"/>
<path d="M18.6113 8.62718C18.261 6.58812 17.2929 4.73265 15.8054 3.25609C14.3179 1.77952 12.4486 0.818587 10.3944 0.47093C10.1071 0.420149 9.83561 0.615462 9.78445 0.900618C9.73723 1.18968 9.93006 1.45921 10.2213 1.50999C12.0551 1.81859 13.7276 2.68187 15.0577 3.99827C16.3878 5.31859 17.2536 6.97874 17.5645 8.79906C17.6078 9.05687 17.8321 9.23656 18.0879 9.23656C18.1194 9.23656 18.1469 9.23265 18.1784 9.22874C18.4657 9.18577 18.6624 8.91234 18.6113 8.62718Z" fill="#B1B1B1" fill-opacity="0.83"/>
</svg>
