<svg width="24" height="22" viewBox="0 0 24 22" fill="none" xmlns="http://www.w3.org/2000/svg">
<path d="M23.4862 3.15174H4.45736C4.42031 3.15174 4.38694 3.16591 4.35189 3.17373L3.57791 0.557535C3.56919 0.529268 3.55062 0.508332 3.5383 0.482182C3.51717 0.213108 3.30175 0 3.03223 0C3.03175 0 3.03071 0 3.03015 0L0.51223 0.0109161C0.227829 0.0125453 -0.00103677 0.248138 3.53245e-06 0.537088C0.00104383 0.82555 0.23095 1.05854 0.514311 1.05854C0.514791 1.05854 0.515831 1.05854 0.516391 1.05854L2.64916 1.04909L7.57249 17.6828C7.08339 18.1378 6.77122 18.7859 6.77122 19.5132C6.77122 20.8865 7.86458 22 9.21408 22C10.5631 22 11.6569 20.8864 11.6569 19.5132C11.6569 19.1551 11.5798 18.8168 11.4461 18.5095H18.5536C18.4199 18.8169 18.3428 19.1551 18.3428 19.5132C18.3428 20.8865 19.4361 22 20.7856 22C22.1347 22 23.2285 20.8864 23.2285 19.5132C23.2285 18.1399 22.1346 17.0263 20.7856 17.0263C20.2734 17.0263 19.7987 17.1881 19.4058 17.4625H10.5934C10.2005 17.1881 9.72631 17.0263 9.21408 17.0263C8.95953 17.0263 8.71882 17.0771 8.48787 17.1504L7.75342 14.6698L20.7106 14.6593C20.9374 14.6593 21.1241 14.507 21.192 14.2991C21.2095 14.2661 21.2285 14.2342 21.2388 14.1965L23.9815 3.9003C23.999 3.83489 24.001 3.76939 23.9938 3.7061C23.9943 3.6951 24 3.68622 24 3.67571C24.0006 3.38627 23.7702 3.15174 23.4862 3.15174ZM20.7862 18.073C21.5663 18.073 22.2005 18.7185 22.2005 19.5128C22.2005 20.3069 21.5664 20.9525 20.7862 20.9525C20.006 20.9525 19.3719 20.307 19.3719 19.5128C19.372 18.7185 20.0061 18.073 20.7862 18.073ZM9.21464 18.073C9.99487 18.073 10.629 18.7185 10.629 19.5128C10.629 20.3069 9.99487 20.9525 9.21464 20.9525C8.43442 20.9525 7.80032 20.307 7.80032 19.5128C7.80032 18.7185 8.43442 18.073 9.21464 18.073ZM20.329 13.6128L7.44446 13.6233L4.65542 4.19936H22.8367L20.329 13.6128Z" fill="#C40001"/>
</svg>
