<svg width="26" height="24" viewBox="0 0 26 24" fill="none" xmlns="http://www.w3.org/2000/svg">
<path d="M25.4357 10.8768C25.9475 10.3963 26.1282 9.691 25.9074 9.0354C25.6862 8.3798 25.1098 7.9118 24.4018 7.81249L18.1063 6.93117C17.8382 6.89355 17.6065 6.73153 17.4868 6.49728L14.6723 1.0012C14.3562 0.383727 13.7148 0 13 0C12.2857 0 11.6443 0.383727 11.3283 1.0012L8.51322 6.49728C8.39347 6.73153 8.16127 6.89355 7.89315 6.93117L1.5977 7.81299C0.890168 7.9118 0.313831 8.3798 0.0925639 9.0354C-0.128183 9.691 0.0524755 10.3963 0.564254 10.8768L5.11924 15.1545C5.31343 15.3371 5.40246 15.5999 5.35664 15.8567L4.28155 21.8975C4.16076 22.5762 4.4445 23.2489 5.02292 23.6542C5.60082 24.06 6.35313 24.1126 6.98673 23.7911L12.6168 20.939C12.8568 20.8176 13.1432 20.8176 13.3832 20.939L19.0138 23.7911C19.2887 23.9305 19.5865 23.9993 19.8827 23.9993C20.2675 23.9993 20.6506 23.8834 20.9776 23.6542C21.556 23.2489 21.8398 22.5762 21.719 21.8975L20.6434 15.8572C20.5975 15.5999 20.6866 15.3376 20.8808 15.155L25.4357 10.8768ZM19.6177 16.0268L20.6928 22.0671C20.747 22.3711 20.6246 22.6615 20.3653 22.8431C20.1055 23.0241 19.7822 23.0462 19.4985 22.9038L13.8679 20.0511C13.5966 19.9142 13.2978 19.845 13 19.845C12.7022 19.845 12.4039 19.9142 12.1321 20.0516L6.50255 22.9038C6.21776 23.0462 5.89445 23.0241 5.63518 22.8431C5.37591 22.6615 5.25408 22.3716 5.3077 22.0671L6.3828 16.0268C6.48641 15.4439 6.28597 14.849 5.84656 14.4367L1.29105 10.1585C1.06145 9.9428 0.98336 9.63883 1.0828 9.34539C1.18172 9.05145 1.43006 8.8498 1.74712 8.80516L8.04205 7.92384C8.64962 7.83907 9.17494 7.4719 9.44619 6.9412L12.2612 1.44512C12.4028 1.16824 12.6793 1.00321 12.9995 1.00321C13.3202 1.00321 13.5961 1.16824 13.7383 1.44512L16.5533 6.9412C16.8245 7.4719 17.3493 7.83907 17.9569 7.92384L24.2524 8.80516C24.5694 8.8498 24.8178 9.05145 24.9167 9.34539C25.0156 9.63883 24.938 9.9428 24.7084 10.1585L20.1534 14.4362C19.714 14.849 19.5136 15.4434 19.6177 16.0268Z" fill="#C40001"/>
</svg>
