<svg width="95" height="91" fill="none" xmlns="http://www.w3.org/2000/svg"><path d="M66.715 79.195c0-.868-.673-1.446-1.442-1.446h-2.69V63.957a.658.658 0 00-.672-.675H33.089a.658.658 0 00-.673.675v13.695h-2.594c-.865 0-1.441.675-1.441 1.447v1.543h38.334v-1.447z" stroke="#010101" stroke-width="2" stroke-miterlimit="10" stroke-linecap="round"/><path d="M13.874 1.462h79.742V59.81" fill="#fff"/><path d="M93.904 36.085v34.238c0 1.35-1.057 2.507-2.498 2.507H3.498A2.485 2.485 0 011 70.323V3.969c0-1.35 1.057-2.507 2.498-2.507h52.168" fill="#fff"/><path d="M93.904 65.886v4.437c0 1.35-1.057 2.507-2.498 2.507H3.498A2.485 2.485 0 011 70.323V3.969c0-1.35 1.057-2.507 2.498-2.507h26.709m9.127-.29h52.168C92.944 1.172 94 2.33 94 3.68v52.369" stroke="#010101" stroke-width="2" stroke-miterlimit="10" stroke-linecap="round"/><path d="M65.754 59.81H6.572V6.67h27.574m54.377 53.237H72.959M43.85 6.67h44.674v53.044" stroke="#010101" stroke-width="2" stroke-miterlimit="10" stroke-linecap="round"/><path d="M46.827 89.226h-31.8c-1.826 0-3.363-1.447-3.363-3.183V26.248c0-1.736 1.441-3.183 3.363-3.183h31.8c1.826 0 3.363 1.447 3.363 3.183v59.795c0 1.736-1.537 3.183-3.363 3.183z" fill="#fff" stroke="#010101" stroke-width="2" stroke-miterlimit="10" stroke-linecap="round"/><path d="M30.688 84.5c1.73 0 3.17-1.447 3.17-3.183 0-1.736-1.44-3.183-3.17-3.183s-3.17 1.447-3.17 3.183c0 1.736 1.44 3.183 3.17 3.183z" stroke="#010101" stroke-width="2" stroke-miterlimit="10" stroke-linecap="round"/><path d="M31.84 28.659H16.564v44.846H44.81V28.659h-3.266" fill="#fff"/><path d="M31.84 28.659H16.564v44.846H44.81V28.659h-3.266" stroke="#010101" stroke-width="2" stroke-miterlimit="10" stroke-linecap="round"/><path d="M37.221 46.694l-3.65-3.665a.463.463 0 00-.673 0l-2.114 2.122-2.113-2.122a.463.463 0 00-.673 0l-3.65 3.665a.467.467 0 000 .675l6.052 6.076c.192.193.48.193.672 0l3.651-3.665 2.498-2.508c.192-.096.192-.385 0-.578z" fill="#FFDA54"/></svg>