<svg width="71" height="93" viewBox="0 0 71 93" fill="none" xmlns="http://www.w3.org/2000/svg">
<path d="M15 13.1724H69V76.1724L8 86.1724L15 13.1724Z" fill="white"/>
<path d="M69.0919 16.3945V6.95728H6.61133V86.3313" fill="white"/>
<path d="M69.0919 16.3945V6.95728H6.61133V86.3313" stroke="#010101" stroke-width="2" stroke-miterlimit="10" stroke-linecap="round"/>
<path d="M6.61133 86.3312V91.3869H54.7383L69.0919 77.1187V27.7979" fill="white"/>
<path d="M6.61133 86.3312V91.3869H54.7383L69.0919 77.1187V27.7979" stroke="#010101" stroke-width="2" stroke-miterlimit="10" stroke-linecap="round"/>
<path d="M54.5684 76.22V91.387H54.7372L69.0909 77.1188V76.22H54.5684Z" fill="white" stroke="#010101" stroke-width="2" stroke-miterlimit="10" stroke-linecap="round"/>
<path d="M43.873 19.6526H57.7764" stroke="#010101" stroke-width="2" stroke-miterlimit="10" stroke-linecap="round"/>
<path d="M43.873 25.27H57.7764" stroke="#010101" stroke-width="2" stroke-miterlimit="10" stroke-linecap="round"/>
<path d="M31.5463 21.2255L27.8312 17.518C27.6624 17.3495 27.3246 17.3495 27.1557 17.518L24.9605 19.7088L22.7652 17.518C22.5964 17.3495 22.2586 17.3495 22.0898 17.518L18.3747 21.2255C18.2058 21.394 18.2058 21.7311 18.3747 21.8996L24.6228 28.1349C24.7916 28.3034 25.1294 28.3034 25.2982 28.1349L29.0133 24.4274L31.5463 21.8996C31.7151 21.6749 31.7151 21.394 31.5463 21.2255Z" fill="#FFDA54"/>
<path d="M18.4316 36.8418H58.3404" stroke="#010101" stroke-width="2" stroke-miterlimit="10" stroke-linecap="round"/>
<path d="M18.4316 42.4592H58.3404" stroke="#010101" stroke-width="2" stroke-miterlimit="10" stroke-linecap="round"/>
<path d="M18.4316 48.0767H58.3404" stroke="#010101" stroke-width="2" stroke-miterlimit="10" stroke-linecap="round"/>
<path d="M32.8967 67.9624L26.8175 71.4452L20.7383 67.9624L14.4902 78.7478L20.1754 77.1188L21.6389 82.9047L26.8175 73.9169L31.9961 82.9047L33.4033 77.1188L39.1447 78.7478L32.8967 67.9624Z" stroke="#010101" stroke-width="2" stroke-miterlimit="10" stroke-linecap="round"/>
<path d="M26.8192 73.4673C31.5756 73.4673 35.4314 69.6194 35.4314 64.8727C35.4314 60.126 31.5756 56.2781 26.8192 56.2781C22.0628 56.2781 18.207 60.126 18.207 64.8727C18.207 69.6194 22.0628 73.4673 26.8192 73.4673Z" fill="white" stroke="#010101" stroke-width="2" stroke-miterlimit="10" stroke-linecap="round"/>
<path d="M1.375 77.3435V86.3875H6.66615" stroke="#010101" stroke-width="2" stroke-miterlimit="10" stroke-linecap="round"/>
<path d="M63.8556 6.9011V1.90161H1.375V65.8839" stroke="#010101" stroke-width="2" stroke-miterlimit="10" stroke-linecap="round"/>
</svg>
