<svg width="108" height="93" viewBox="0 0 108 93" fill="none" xmlns="http://www.w3.org/2000/svg">
<path d="M85.1002 1.17236H40.8047V17.3031H85.1002V1.17236Z" fill="white" stroke="#010101" stroke-width="2" stroke-miterlimit="10" stroke-linecap="round"/>
<path d="M85.1915 48.3118H41.0078V81.9298H85.1915V48.3118Z" fill="white" stroke="#010101" stroke-width="2" stroke-miterlimit="10" stroke-linecap="round"/>
<path d="M79.3176 35.1669V71.1478C76.4876 71.1478 74.5189 73.3643 74.5189 75.7039H52.002C52.002 73.118 49.7872 71.1478 47.2033 71.1478L47.2031 25.645L79.3176 35.1669Z" fill="white" stroke="#010101" stroke-width="2" stroke-miterlimit="10" stroke-linecap="round"/>
<path d="M79.3174 17.3031V11.5157C76.4874 11.5157 74.5187 9.29929 74.5187 6.95972H52.0018C52.0018 9.54556 49.787 11.5157 47.2031 11.5157V17.3031H79.3174Z" fill="white" stroke="#010101" stroke-width="2" stroke-miterlimit="10" stroke-linecap="round"/>
<path d="M63.8365 91.1724H19.541V75.0416H63.8365V91.1724Z" fill="white" stroke="#010101" stroke-width="2" stroke-miterlimit="10" stroke-linecap="round"/>
<path d="M63.9279 44.033H19.7441V10.4149H63.9279V44.033Z" fill="white" stroke="#010101" stroke-width="2" stroke-miterlimit="10" stroke-linecap="round"/>
<path d="M58.0539 57.1779V21.1969C55.2239 21.1969 53.2552 18.9804 53.2552 16.6409H30.7383C30.7383 19.2267 28.5236 21.1969 25.9397 21.1969L25.9395 66.6997L58.0539 57.1779Z" fill="white" stroke="#010101" stroke-width="2" stroke-miterlimit="10" stroke-linecap="round"/>
<path d="M58.0537 75.0416V80.829C55.2237 80.829 53.255 83.0454 53.255 85.385H30.7381C30.7381 82.7992 28.5234 80.829 25.9395 80.829V75.0416H58.0537Z" fill="white" stroke="#010101" stroke-width="2" stroke-miterlimit="10" stroke-linecap="round"/>
<path fill-rule="evenodd" clip-rule="evenodd" d="M103.058 56.9564H43.718C42.0778 56.9564 40.7305 55.6078 40.7305 53.966V19.6052C40.7305 17.9634 42.0778 16.6147 43.718 16.6147H103.058C104.698 16.6147 106.046 17.9634 106.046 19.6052V53.966C106.046 55.6078 104.698 56.9564 103.058 56.9564Z" fill="white" stroke="#0E0F0F" stroke-width="2" stroke-miterlimit="10"/>
<path d="M50.1387 22.9558H50.4318V23.7167V27.6471H50.1387V22.9558Z" stroke="#0E0F0F" stroke-width="2" stroke-miterlimit="10"/>
<mask id="path-11-inside-1" fill="white">
<path d="M54.4889 24.4209H52.0781V26.1818H54.4889V24.4209Z"/>
</mask>
<path d="M52.0781 24.4209V22.4209H50.0781V24.4209H52.0781ZM54.4889 24.4209H56.4889V22.4209H54.4889V24.4209ZM54.4889 26.1818V28.1818H56.4889V26.1818H54.4889ZM52.0781 26.1818H50.0781V28.1818H52.0781V26.1818ZM52.0781 26.4209H54.4889V22.4209H52.0781V26.4209ZM52.4889 24.4209V26.1818H56.4889V24.4209H52.4889ZM54.4889 24.1818H52.0781V28.1818H54.4889V24.1818ZM54.0781 26.1818V24.4209H50.0781V26.1818H54.0781Z" fill="#0E0F0F" mask="url(#path-11-inside-1)"/>
<mask id="path-13-inside-2" fill="white">
<path d="M48.4322 24.4209H46.0215V26.1818H48.4322V24.4209Z"/>
</mask>
<path d="M46.0215 24.4209V22.4209H44.0215V24.4209H46.0215ZM48.4322 24.4209H50.4322V22.4209H48.4322V24.4209ZM48.4322 26.1818V28.1818H50.4322V26.1818H48.4322ZM46.0215 26.1818H44.0215V28.1818H46.0215V26.1818ZM46.0215 26.4209H48.4322V22.4209H46.0215V26.4209ZM46.4322 24.4209V26.1818H50.4322V24.4209H46.4322ZM48.4322 24.1818H46.0215V28.1818H48.4322V24.1818ZM48.0215 26.1818V24.4209H44.0215V26.1818H48.0215Z" fill="#0E0F0F" mask="url(#path-13-inside-2)"/>
<mask id="path-15-inside-3" fill="white">
<path d="M52.0781 26.8862V28.7058H53.3129C53.9597 28.7058 54.4889 28.1775 54.4889 27.5319V26.8862H52.0781Z"/>
</mask>
<path d="M52.0781 26.8862V24.8862H50.0781V26.8862H52.0781ZM52.0781 28.7058H50.0781V30.7058H52.0781V28.7058ZM54.4889 26.8862H56.4889V24.8862H54.4889V26.8862ZM50.0781 26.8862V28.7058H54.0781V26.8862H50.0781ZM52.0781 30.7058H53.3129V26.7058H52.0781V30.7058ZM53.3129 30.7058C55.061 30.7058 56.4889 29.2854 56.4889 27.5319H52.4889C52.4889 27.0697 52.8584 26.7058 53.3129 26.7058V30.7058ZM56.4889 27.5319V26.8862H52.4889V27.5319H56.4889ZM54.4889 24.8862H52.0781V28.8862H54.4889V24.8862Z" fill="#0E0F0F" mask="url(#path-15-inside-3)"/>
<mask id="path-17-inside-4" fill="white">
<path d="M48.4322 26.8862H46.0215V27.5319C46.0215 28.1775 46.5507 28.7058 47.1975 28.7058H48.491V26.8862H48.4322Z"/>
</mask>
<path d="M46.0215 26.8862V24.8862H44.0215V26.8862H46.0215ZM48.491 28.7058V30.7058H50.491V28.7058H48.491ZM48.491 26.8862H50.491V24.8862H48.491V26.8862ZM48.4322 24.8862H46.0215V28.8862H48.4322V24.8862ZM44.0215 26.8862V27.5319H48.0215V26.8862H44.0215ZM44.0215 27.5319C44.0215 29.2854 45.4494 30.7058 47.1975 30.7058V26.7058C47.652 26.7058 48.0215 27.0697 48.0215 27.5319H44.0215ZM47.1975 30.7058H48.491V26.7058H47.1975V30.7058ZM50.491 28.7058V26.8862H46.491V28.7058H50.491ZM48.491 24.8862H48.4322V28.8862H48.491V24.8862Z" fill="#0E0F0F" mask="url(#path-17-inside-4)"/>
<mask id="path-19-inside-5" fill="white">
<path d="M48.4324 23.7167V21.9558H47.1389C46.4921 21.9558 45.9629 22.4841 45.9629 23.1297V23.7167H48.4324Z"/>
</mask>
<path d="M48.4324 23.7167V25.7167H50.4324V23.7167H48.4324ZM48.4324 21.9558H50.4324V19.9558H48.4324V21.9558ZM45.9629 23.7167H43.9629V25.7167H45.9629V23.7167ZM50.4324 23.7167V21.9558H46.4324V23.7167H50.4324ZM48.4324 19.9558H47.1389V23.9558H48.4324V19.9558ZM47.1389 19.9558C45.3908 19.9558 43.9629 21.3762 43.9629 23.1297H47.9629C47.9629 23.592 47.5933 23.9558 47.1389 23.9558V19.9558ZM43.9629 23.1297V23.7167H47.9629V23.1297H43.9629ZM45.9629 25.7167H48.4324V21.7167H45.9629V25.7167Z" fill="#0E0F0F" mask="url(#path-19-inside-5)"/>
<path d="M48.6596 45.4301C48.2495 45.4301 47.9491 45.3321 47.7583 45.1361C47.5707 44.9374 47.4706 44.6786 47.4579 44.3597L47.4531 44.0225L47.4579 43.6736C47.4674 43.3573 47.5676 43.1011 47.7583 42.905C47.9522 42.7064 48.2526 42.6071 48.6596 42.6071C49.0697 42.6071 49.3701 42.7064 49.5608 42.905C49.7547 43.1011 49.8565 43.3573 49.866 43.6736C49.8692 43.7467 49.8708 43.8631 49.8708 44.0225C49.8708 44.1767 49.8692 44.2891 49.866 44.3597C49.8533 44.6786 49.7516 44.9374 49.5608 45.1361C49.3733 45.3321 49.0728 45.4301 48.6596 45.4301ZM48.6596 45.1047C48.9043 45.1047 49.0887 45.038 49.2127 44.9047C49.3367 44.7714 49.4019 44.5832 49.4082 44.3401C49.4114 44.2643 49.413 44.1558 49.413 44.0147C49.413 43.8709 49.4114 43.7637 49.4082 43.6932C49.4019 43.4527 49.3351 43.2658 49.2079 43.1325C49.084 42.9965 48.9012 42.9286 48.6596 42.9286C48.418 42.9286 48.2352 42.9965 48.1112 43.1325C47.9872 43.2658 47.922 43.4527 47.9157 43.6932L47.9109 44.0147L47.9157 44.3401C47.922 44.5832 47.9872 44.7714 48.1112 44.9047C48.2352 45.038 48.418 45.1047 48.6596 45.1047Z" fill="black"/>
<path d="M51.4864 45.3909C51.4546 45.3909 51.4292 45.3831 51.4101 45.3674C51.391 45.3491 51.3815 45.3269 51.3815 45.3007V43.0893L50.5804 43.5951C50.5581 43.6108 50.5343 43.6187 50.5089 43.6187C50.4802 43.6187 50.4532 43.6056 50.4278 43.5794L50.3134 43.4579C50.2975 43.4396 50.2895 43.4213 50.2895 43.403C50.2895 43.3743 50.3054 43.3507 50.3372 43.3324L51.372 42.6737C51.4069 42.6554 51.4483 42.6463 51.4959 42.6463H51.7201C51.7519 42.6463 51.7773 42.6554 51.7964 42.6737C51.8186 42.6894 51.8297 42.7103 51.8297 42.7364V45.3007C51.8297 45.3269 51.8186 45.3491 51.7964 45.3674C51.7773 45.3831 51.7519 45.3909 51.7201 45.3909H51.4864Z" fill="black"/>
<path d="M52.5393 45.3909C52.5075 45.3909 52.4805 45.3831 52.4583 45.3674C52.4392 45.3491 52.4296 45.3269 52.4296 45.3007V45.1831C52.4296 45.123 52.4694 45.0655 52.5489 45.0106L53.5884 44.1597C53.8236 43.9951 53.9858 43.8604 54.0748 43.7559C54.1638 43.6513 54.2083 43.5402 54.2083 43.4226C54.2083 43.2684 54.1559 43.1481 54.0509 43.0619C53.946 42.973 53.7934 42.9286 53.5932 42.9286C53.4024 42.9286 53.2514 42.9743 53.1402 43.0658C53.0289 43.1573 52.9605 43.2801 52.9351 43.4344C52.9288 43.4631 52.9129 43.4853 52.8874 43.501C52.862 43.5167 52.8366 43.5246 52.8111 43.5246H52.5822C52.5536 43.5246 52.5298 43.5167 52.5107 43.501C52.4916 43.4853 52.4821 43.467 52.4821 43.4461C52.4885 43.3076 52.533 43.1743 52.6156 43.0462C52.7015 42.9155 52.827 42.8096 52.9923 42.7286C53.1576 42.645 53.3579 42.6031 53.5932 42.6031C53.9492 42.6031 54.2163 42.6802 54.3943 42.8345C54.5755 42.9861 54.6661 43.1795 54.6661 43.4148C54.6661 43.5794 54.6168 43.7284 54.5183 43.8618C54.4229 43.9925 54.2719 44.131 54.0653 44.2774L53.1259 45.0616H54.6279C54.6629 45.0616 54.6899 45.0694 54.709 45.0851C54.7281 45.1008 54.7376 45.123 54.7376 45.1517V45.3007C54.7376 45.3269 54.7265 45.3491 54.7042 45.3674C54.6852 45.3831 54.6597 45.3909 54.6279 45.3909H52.5393Z" fill="black"/>
<path d="M56.3922 45.4301C56.1443 45.4301 55.9297 45.3975 55.7485 45.3321C55.5673 45.2641 55.429 45.1766 55.3336 45.0694C55.2414 44.9622 55.1921 44.8511 55.1858 44.7361C55.1858 44.7126 55.1953 44.6943 55.2144 44.6812C55.2335 44.6655 55.2573 44.6577 55.2859 44.6577H55.5005C55.5355 44.6577 55.5641 44.6642 55.5863 44.6773C55.6086 44.6878 55.6261 44.71 55.6388 44.744C55.6801 44.8773 55.7691 44.9714 55.9058 45.0263C56.0457 45.0812 56.2094 45.1086 56.397 45.1086C56.6259 45.1086 56.8071 45.0642 56.9406 44.9753C57.0773 44.8838 57.1457 44.7544 57.1457 44.5871C57.1457 44.2682 56.9088 44.1088 56.4351 44.1088H55.9869C55.9551 44.1088 55.9281 44.1009 55.9058 44.0852C55.8868 44.067 55.8772 44.0447 55.8772 44.0186V43.9166C55.8772 43.8774 55.8947 43.8435 55.9297 43.8147L56.8595 42.9678H55.4481C55.4163 42.9678 55.3892 42.9599 55.367 42.9443C55.3479 42.9286 55.3384 42.9077 55.3384 42.8815V42.7404C55.3384 42.7116 55.3479 42.6894 55.367 42.6737C55.3892 42.6554 55.4163 42.6463 55.4481 42.6463H57.3364C57.3714 42.6463 57.3984 42.6554 57.4175 42.6737C57.4397 42.6894 57.4508 42.7116 57.4508 42.7404V42.8698C57.4508 42.8985 57.4349 42.9286 57.4032 42.9599L56.4733 43.8186H56.5496C56.8738 43.8265 57.1298 43.8957 57.3173 44.0264C57.5081 44.1571 57.6034 44.348 57.6034 44.5989C57.6034 44.7714 57.551 44.9204 57.4461 45.0459C57.3443 45.1687 57.2013 45.2641 57.0169 45.3321C56.8325 45.3975 56.6243 45.4301 56.3922 45.4301Z" fill="black"/>
<path d="M62.8856 45.4301C62.4755 45.4301 62.1751 45.3321 61.9843 45.1361C61.7968 44.9374 61.6966 44.6786 61.6839 44.3597L61.6791 44.0225L61.6839 43.6736C61.6934 43.3573 61.7936 43.1011 61.9843 42.905C62.1782 42.7064 62.4787 42.6071 62.8856 42.6071C63.2957 42.6071 63.5961 42.7064 63.7868 42.905C63.9808 43.1011 64.0825 43.3573 64.092 43.6736C64.0952 43.7467 64.0968 43.8631 64.0968 44.0225C64.0968 44.1767 64.0952 44.2891 64.092 44.3597C64.0793 44.6786 63.9776 44.9374 63.7868 45.1361C63.5993 45.3321 63.2989 45.4301 62.8856 45.4301ZM62.8856 45.1047C63.1304 45.1047 63.3147 45.038 63.4387 44.9047C63.5627 44.7714 63.6279 44.5832 63.6342 44.3401C63.6374 44.2643 63.639 44.1558 63.639 44.0147C63.639 43.8709 63.6374 43.7637 63.6342 43.6932C63.6279 43.4527 63.5611 43.2658 63.434 43.1325C63.31 42.9965 63.1272 42.9286 62.8856 42.9286C62.644 42.9286 62.4612 42.9965 62.3372 43.1325C62.2132 43.2658 62.148 43.4527 62.1417 43.6932L62.1369 44.0147L62.1417 44.3401C62.148 44.5832 62.2132 44.7714 62.3372 44.9047C62.4612 45.038 62.644 45.1047 62.8856 45.1047Z" fill="black"/>
<path d="M65.7124 45.3909C65.6806 45.3909 65.6552 45.3831 65.6361 45.3674C65.6171 45.3491 65.6075 45.3269 65.6075 45.3007V43.0893L64.8064 43.5951C64.7842 43.6108 64.7603 43.6187 64.7349 43.6187C64.7063 43.6187 64.6792 43.6056 64.6538 43.5794L64.5394 43.4579C64.5235 43.4396 64.5155 43.4213 64.5155 43.403C64.5155 43.3743 64.5314 43.3507 64.5632 43.3324L65.598 42.6737C65.6329 42.6554 65.6743 42.6463 65.722 42.6463H65.9461C65.9779 42.6463 66.0033 42.6554 66.0224 42.6737C66.0446 42.6894 66.0558 42.7103 66.0558 42.7364V45.3007C66.0558 45.3269 66.0446 45.3491 66.0224 45.3674C66.0033 45.3831 65.9779 45.3909 65.9461 45.3909H65.7124Z" fill="black"/>
<path d="M66.7653 45.3909C66.7335 45.3909 66.7065 45.3831 66.6843 45.3674C66.6652 45.3491 66.6557 45.3269 66.6557 45.3007V45.1831C66.6557 45.123 66.6954 45.0655 66.7749 45.0106L67.8144 44.1597C68.0497 43.9951 68.2118 43.8604 68.3008 43.7559C68.3898 43.6513 68.4343 43.5402 68.4343 43.4226C68.4343 43.2684 68.3819 43.1481 68.277 43.0619C68.1721 42.973 68.0195 42.9286 67.8192 42.9286C67.6284 42.9286 67.4774 42.9743 67.3662 43.0658C67.2549 43.1573 67.1866 43.2801 67.1611 43.4344C67.1548 43.4631 67.1389 43.4853 67.1134 43.501C67.088 43.5167 67.0626 43.5246 67.0371 43.5246H66.8083C66.7796 43.5246 66.7558 43.5167 66.7367 43.501C66.7177 43.4853 66.7081 43.467 66.7081 43.4461C66.7145 43.3076 66.759 43.1743 66.8416 43.0462C66.9275 42.9155 67.053 42.8096 67.2184 42.7286C67.3837 42.645 67.5839 42.6031 67.8192 42.6031C68.1752 42.6031 68.4423 42.6802 68.6203 42.8345C68.8015 42.9861 68.8921 43.1795 68.8921 43.4148C68.8921 43.5794 68.8428 43.7284 68.7443 43.8618C68.6489 43.9925 68.4979 44.131 68.2913 44.2774L67.3519 45.0616H68.854C68.8889 45.0616 68.9159 45.0694 68.935 45.0851C68.9541 45.1008 68.9636 45.123 68.9636 45.1517V45.3007C68.9636 45.3269 68.9525 45.3491 68.9303 45.3674C68.9112 45.3831 68.8857 45.3909 68.854 45.3909H66.7653Z" fill="black"/>
<path d="M70.6182 45.4301C70.3703 45.4301 70.1557 45.3975 69.9745 45.3321C69.7933 45.2641 69.655 45.1766 69.5596 45.0694C69.4674 44.9622 69.4182 44.8511 69.4118 44.7361C69.4118 44.7126 69.4213 44.6943 69.4404 44.6812C69.4595 44.6655 69.4833 44.6577 69.5119 44.6577H69.7265C69.7615 44.6577 69.7901 44.6642 69.8124 44.6773C69.8346 44.6878 69.8521 44.71 69.8648 44.744C69.9061 44.8773 69.9952 44.9714 70.1318 45.0263C70.2717 45.0812 70.4354 45.1086 70.623 45.1086C70.8519 45.1086 71.0331 45.0642 71.1666 44.9753C71.3033 44.8838 71.3717 44.7544 71.3717 44.5871C71.3717 44.2682 71.1348 44.1088 70.6612 44.1088H70.2129C70.1811 44.1088 70.1541 44.1009 70.1318 44.0852C70.1128 44.067 70.1032 44.0447 70.1032 44.0186V43.9166C70.1032 43.8774 70.1207 43.8435 70.1557 43.8147L71.0856 42.9678H69.6741C69.6423 42.9678 69.6153 42.9599 69.593 42.9443C69.5739 42.9286 69.5644 42.9077 69.5644 42.8815V42.7404C69.5644 42.7116 69.5739 42.6894 69.593 42.6737C69.6153 42.6554 69.6423 42.6463 69.6741 42.6463H71.5624C71.5974 42.6463 71.6244 42.6554 71.6435 42.6737C71.6657 42.6894 71.6769 42.7116 71.6769 42.7404V42.8698C71.6769 42.8985 71.661 42.9286 71.6292 42.9599L70.6993 43.8186H70.7756C71.0999 43.8265 71.3558 43.8957 71.5433 44.0264C71.7341 44.1571 71.8294 44.348 71.8294 44.5989C71.8294 44.7714 71.777 44.9204 71.6721 45.0459C71.5704 45.1687 71.4273 45.2641 71.2429 45.3321C71.0585 45.3975 70.8503 45.4301 70.6182 45.4301Z" fill="black"/>
<path d="M77.1116 45.3756C76.7015 45.3756 76.4011 45.2776 76.2103 45.0815C76.0228 44.8828 75.9226 44.6241 75.9099 44.3052L75.9052 43.968L75.9099 43.619C75.9195 43.3027 76.0196 43.0465 76.2103 42.8505C76.4043 42.6518 76.7047 42.5525 77.1116 42.5525C77.5217 42.5525 77.8221 42.6518 78.0128 42.8505C78.2068 43.0465 78.3085 43.3027 78.318 43.619C78.3212 43.6922 78.3228 43.8085 78.3228 43.968C78.3228 44.1222 78.3212 44.2346 78.318 44.3052C78.3053 44.6241 78.2036 44.8828 78.0128 45.0815C77.8253 45.2776 77.5249 45.3756 77.1116 45.3756ZM77.1116 45.0501C77.3564 45.0501 77.5408 44.9835 77.6647 44.8502C77.7887 44.7169 77.8539 44.5287 77.8603 44.2856C77.8634 44.2098 77.865 44.1013 77.865 43.9601C77.865 43.8164 77.8634 43.7092 77.8603 43.6386C77.8539 43.3981 77.7871 43.2112 77.66 43.0779C77.536 42.942 77.3532 42.874 77.1116 42.874C76.87 42.874 76.6872 42.942 76.5632 43.0779C76.4392 43.2112 76.3741 43.3981 76.3677 43.6386L76.3629 43.9601L76.3677 44.2856C76.3741 44.5287 76.4392 44.7169 76.5632 44.8502C76.6872 44.9835 76.87 45.0501 77.1116 45.0501Z" fill="black"/>
<path d="M79.9384 45.3364C79.9067 45.3364 79.8812 45.3285 79.8621 45.3128C79.8431 45.2945 79.8335 45.2723 79.8335 45.2462V43.0348L79.0324 43.5406C79.0102 43.5563 78.9863 43.5641 78.9609 43.5641C78.9323 43.5641 78.9053 43.551 78.8798 43.5249L78.7654 43.4033C78.7495 43.3851 78.7415 43.3668 78.7415 43.3485C78.7415 43.3197 78.7574 43.2962 78.7892 43.2779L79.824 42.6192C79.859 42.6009 79.9003 42.5917 79.948 42.5917H80.1721C80.2039 42.5917 80.2293 42.6009 80.2484 42.6192C80.2706 42.6348 80.2818 42.6558 80.2818 42.6819V45.2462C80.2818 45.2723 80.2706 45.2945 80.2484 45.3128C80.2293 45.3285 80.2039 45.3364 80.1721 45.3364H79.9384Z" fill="black"/>
<path d="M80.9914 45.3364C80.9596 45.3364 80.9325 45.3285 80.9103 45.3128C80.8912 45.2945 80.8817 45.2723 80.8817 45.2462V45.1286C80.8817 45.0684 80.9214 45.0109 81.0009 44.956L82.0404 44.1052C82.2757 43.9405 82.4378 43.8059 82.5268 43.7013C82.6158 43.5968 82.6603 43.4857 82.6603 43.3681C82.6603 43.2138 82.6079 43.0936 82.503 43.0073C82.3981 42.9185 82.2455 42.874 82.0452 42.874C81.8545 42.874 81.7035 42.9198 81.5922 43.0113C81.4809 43.1027 81.4126 43.2256 81.3871 43.3798C81.3808 43.4086 81.3649 43.4308 81.3395 43.4465C81.314 43.4622 81.2886 43.47 81.2632 43.47H81.0343C81.0057 43.47 80.9818 43.4622 80.9627 43.4465C80.9437 43.4308 80.9341 43.4125 80.9341 43.3916C80.9405 43.253 80.985 43.1197 81.0677 42.9916C81.1535 42.861 81.2791 42.7551 81.4444 42.6741C81.6097 42.5904 81.81 42.5486 82.0452 42.5486C82.4013 42.5486 82.6683 42.6257 82.8463 42.7799C83.0275 42.9315 83.1181 43.125 83.1181 43.3602C83.1181 43.5249 83.0688 43.6739 82.9703 43.8072C82.8749 43.9379 82.7239 44.0764 82.5173 44.2228L81.5779 45.007H83.08C83.1149 45.007 83.142 45.0149 83.161 45.0305C83.1801 45.0462 83.1896 45.0684 83.1896 45.0972V45.2462C83.1896 45.2723 83.1785 45.2945 83.1563 45.3128C83.1372 45.3285 83.1118 45.3364 83.08 45.3364H80.9914Z" fill="black"/>
<path d="M84.8443 45.3756C84.5963 45.3756 84.3817 45.3429 84.2005 45.2776C84.0193 45.2096 83.881 45.122 83.7856 45.0149C83.6935 44.9077 83.6442 44.7966 83.6378 44.6816C83.6378 44.658 83.6474 44.6398 83.6664 44.6267C83.6855 44.611 83.7093 44.6032 83.738 44.6032H83.9525C83.9875 44.6032 84.0161 44.6097 84.0384 44.6228C84.0606 44.6332 84.0781 44.6554 84.0908 44.6894C84.1322 44.8227 84.2212 44.9168 84.3579 44.9717C84.4977 45.0266 84.6615 45.0541 84.849 45.0541C85.0779 45.0541 85.2591 45.0096 85.3926 44.9208C85.5293 44.8293 85.5977 44.6999 85.5977 44.5326C85.5977 44.2137 85.3608 44.0542 84.8872 44.0542H84.4389C84.4071 44.0542 84.3801 44.0464 84.3579 44.0307C84.3388 44.0124 84.3293 43.9902 84.3293 43.964V43.8621C84.3293 43.8229 84.3467 43.7889 84.3817 43.7602L85.3116 42.9132H83.9001C83.8683 42.9132 83.8413 42.9054 83.819 42.8897C83.7999 42.874 83.7904 42.8531 83.7904 42.827V42.6858C83.7904 42.6571 83.7999 42.6348 83.819 42.6192C83.8413 42.6009 83.8683 42.5917 83.9001 42.5917H85.7884C85.8234 42.5917 85.8504 42.6009 85.8695 42.6192C85.8917 42.6348 85.9029 42.6571 85.9029 42.6858V42.8152C85.9029 42.844 85.887 42.874 85.8552 42.9054L84.9253 43.7641H85.0016C85.3259 43.7719 85.5818 43.8412 85.7693 43.9719C85.9601 44.1026 86.0555 44.2934 86.0555 44.5443C86.0555 44.7169 86.003 44.8659 85.8981 44.9913C85.7964 45.1142 85.6533 45.2096 85.4689 45.2776C85.2845 45.3429 85.0763 45.3756 84.8443 45.3756Z" fill="black"/>
<path d="M91.3376 45.3756C90.9275 45.3756 90.6271 45.2776 90.4364 45.0815C90.2488 44.8828 90.1487 44.6241 90.1359 44.3052L90.1312 43.968L90.1359 43.619C90.1455 43.3027 90.2456 43.0465 90.4364 42.8505C90.6303 42.6518 90.9307 42.5525 91.3376 42.5525C91.7477 42.5525 92.0481 42.6518 92.2389 42.8505C92.4328 43.0465 92.5345 43.3027 92.5441 43.619C92.5472 43.6922 92.5488 43.8085 92.5488 43.968C92.5488 44.1222 92.5472 44.2346 92.5441 44.3052C92.5313 44.6241 92.4296 44.8828 92.2389 45.0815C92.0513 45.2776 91.7509 45.3756 91.3376 45.3756ZM91.3376 45.0501C91.5824 45.0501 91.7668 44.9835 91.8908 44.8502C92.0147 44.7169 92.0799 44.5287 92.0863 44.2856C92.0895 44.2098 92.091 44.1013 92.091 43.9601C92.091 43.8164 92.0895 43.7092 92.0863 43.6386C92.0799 43.3981 92.0132 43.2112 91.886 43.0779C91.762 42.942 91.5792 42.874 91.3376 42.874C91.096 42.874 90.9132 42.942 90.7892 43.0779C90.6652 43.2112 90.6001 43.3981 90.5937 43.6386L90.589 43.9601L90.5937 44.2856C90.6001 44.5287 90.6652 44.7169 90.7892 44.8502C90.9132 44.9835 91.096 45.0501 91.3376 45.0501Z" fill="black"/>
<path d="M94.1645 45.3364C94.1327 45.3364 94.1072 45.3285 94.0882 45.3128C94.0691 45.2945 94.0596 45.2723 94.0596 45.2462V43.0348L93.2584 43.5406C93.2362 43.5563 93.2123 43.5641 93.1869 43.5641C93.1583 43.5641 93.1313 43.551 93.1058 43.5249L92.9914 43.4033C92.9755 43.3851 92.9676 43.3668 92.9676 43.3485C92.9676 43.3197 92.9835 43.2962 93.0152 43.2779L94.05 42.6192C94.085 42.6009 94.1263 42.5917 94.174 42.5917H94.3981C94.4299 42.5917 94.4553 42.6009 94.4744 42.6192C94.4967 42.6348 94.5078 42.6558 94.5078 42.6819V45.2462C94.5078 45.2723 94.4967 45.2945 94.4744 45.3128C94.4553 45.3285 94.4299 45.3364 94.3981 45.3364H94.1645Z" fill="black"/>
<path d="M95.2174 45.3364C95.1856 45.3364 95.1586 45.3285 95.1363 45.3128C95.1172 45.2945 95.1077 45.2723 95.1077 45.2462V45.1286C95.1077 45.0684 95.1474 45.0109 95.2269 44.956L96.2664 44.1052C96.5017 43.9405 96.6638 43.8059 96.7528 43.7013C96.8419 43.5968 96.8864 43.4857 96.8864 43.3681C96.8864 43.2138 96.8339 43.0936 96.729 43.0073C96.6241 42.9185 96.4715 42.874 96.2712 42.874C96.0805 42.874 95.9295 42.9198 95.8182 43.0113C95.7069 43.1027 95.6386 43.2256 95.6132 43.3798C95.6068 43.4086 95.5909 43.4308 95.5655 43.4465C95.54 43.4622 95.5146 43.47 95.4892 43.47H95.2603C95.2317 43.47 95.2078 43.4622 95.1888 43.4465C95.1697 43.4308 95.1601 43.4125 95.1601 43.3916C95.1665 43.253 95.211 43.1197 95.2937 42.9916C95.3795 42.861 95.5051 42.7551 95.6704 42.6741C95.8357 42.5904 96.036 42.5486 96.2712 42.5486C96.6273 42.5486 96.8943 42.6257 97.0723 42.7799C97.2535 42.9315 97.3441 43.125 97.3441 43.3602C97.3441 43.5249 97.2949 43.6739 97.1963 43.8072C97.1009 43.9379 96.9499 44.0764 96.7433 44.2228L95.8039 45.007H97.306C97.341 45.007 97.368 45.0149 97.3871 45.0305C97.4061 45.0462 97.4157 45.0684 97.4157 45.0972V45.2462C97.4157 45.2723 97.4045 45.2945 97.3823 45.3128C97.3632 45.3285 97.3378 45.3364 97.306 45.3364H95.2174Z" fill="black"/>
<path d="M99.0703 45.3756C98.8223 45.3756 98.6077 45.3429 98.4265 45.2776C98.2453 45.2096 98.107 45.122 98.0117 45.0149C97.9195 44.9077 97.8702 44.7966 97.8638 44.6816C97.8638 44.658 97.8734 44.6398 97.8924 44.6267C97.9115 44.611 97.9354 44.6032 97.964 44.6032H98.1786C98.2135 44.6032 98.2421 44.6097 98.2644 44.6228C98.2866 44.6332 98.3041 44.6554 98.3168 44.6894C98.3582 44.8227 98.4472 44.9168 98.5839 44.9717C98.7238 45.0266 98.8875 45.0541 99.075 45.0541C99.3039 45.0541 99.4851 45.0096 99.6187 44.9208C99.7553 44.8293 99.8237 44.6999 99.8237 44.5326C99.8237 44.2137 99.5869 44.0542 99.1132 44.0542H98.6649C98.6332 44.0542 98.6061 44.0464 98.5839 44.0307C98.5648 44.0124 98.5553 43.9902 98.5553 43.964V43.8621C98.5553 43.8229 98.5728 43.7889 98.6077 43.7602L99.5376 42.9132H98.1261C98.0943 42.9132 98.0673 42.9054 98.045 42.8897C98.026 42.874 98.0164 42.8531 98.0164 42.827V42.6858C98.0164 42.6571 98.026 42.6348 98.045 42.6192C98.0673 42.6009 98.0943 42.5917 98.1261 42.5917H100.014C100.049 42.5917 100.076 42.6009 100.096 42.6192C100.118 42.6348 100.129 42.6571 100.129 42.6858V42.8152C100.129 42.844 100.113 42.874 100.081 42.9054L99.1513 43.7641H99.2276C99.5519 43.7719 99.8078 43.8412 99.9954 43.9719C100.186 44.1026 100.281 44.2934 100.281 44.5443C100.281 44.7169 100.229 44.8659 100.124 44.9913C100.022 45.1142 99.8793 45.2096 99.695 45.2776C99.5106 45.3429 99.3023 45.3756 99.0703 45.3756Z" fill="black"/>
<path d="M48.6596 45.4301C48.2495 45.4301 47.9491 45.3321 47.7583 45.1361C47.5707 44.9374 47.4706 44.6786 47.4579 44.3597L47.4531 44.0225L47.4579 43.6736C47.4674 43.3573 47.5676 43.1011 47.7583 42.905C47.9522 42.7064 48.2526 42.6071 48.6596 42.6071C49.0697 42.6071 49.3701 42.7064 49.5608 42.905C49.7547 43.1011 49.8565 43.3573 49.866 43.6736C49.8692 43.7467 49.8708 43.8631 49.8708 44.0225C49.8708 44.1767 49.8692 44.2891 49.866 44.3597C49.8533 44.6786 49.7516 44.9374 49.5608 45.1361C49.3733 45.3321 49.0728 45.4301 48.6596 45.4301ZM48.6596 45.1047C48.9043 45.1047 49.0887 45.038 49.2127 44.9047C49.3367 44.7714 49.4019 44.5832 49.4082 44.3401C49.4114 44.2643 49.413 44.1558 49.413 44.0147C49.413 43.8709 49.4114 43.7637 49.4082 43.6932C49.4019 43.4527 49.3351 43.2658 49.2079 43.1325C49.084 42.9965 48.9012 42.9286 48.6596 42.9286C48.418 42.9286 48.2352 42.9965 48.1112 43.1325C47.9872 43.2658 47.922 43.4527 47.9157 43.6932L47.9109 44.0147L47.9157 44.3401C47.922 44.5832 47.9872 44.7714 48.1112 44.9047C48.2352 45.038 48.418 45.1047 48.6596 45.1047Z" stroke="black" stroke-width="0.6"/>
<path d="M51.4864 45.3909C51.4546 45.3909 51.4292 45.3831 51.4101 45.3674C51.391 45.3491 51.3815 45.3269 51.3815 45.3007V43.0893L50.5804 43.5951C50.5581 43.6108 50.5343 43.6187 50.5089 43.6187C50.4802 43.6187 50.4532 43.6056 50.4278 43.5794L50.3134 43.4579C50.2975 43.4396 50.2895 43.4213 50.2895 43.403C50.2895 43.3743 50.3054 43.3507 50.3372 43.3324L51.372 42.6737C51.4069 42.6554 51.4483 42.6463 51.4959 42.6463H51.7201C51.7519 42.6463 51.7773 42.6554 51.7964 42.6737C51.8186 42.6894 51.8297 42.7103 51.8297 42.7364V45.3007C51.8297 45.3269 51.8186 45.3491 51.7964 45.3674C51.7773 45.3831 51.7519 45.3909 51.7201 45.3909H51.4864Z" stroke="black" stroke-width="0.6"/>
<path d="M52.5393 45.3909C52.5075 45.3909 52.4805 45.3831 52.4583 45.3674C52.4392 45.3491 52.4296 45.3269 52.4296 45.3007V45.1831C52.4296 45.123 52.4694 45.0655 52.5489 45.0106L53.5884 44.1597C53.8236 43.9951 53.9858 43.8604 54.0748 43.7559C54.1638 43.6513 54.2083 43.5402 54.2083 43.4226C54.2083 43.2684 54.1559 43.1481 54.0509 43.0619C53.946 42.973 53.7934 42.9286 53.5932 42.9286C53.4024 42.9286 53.2514 42.9743 53.1402 43.0658C53.0289 43.1573 52.9605 43.2801 52.9351 43.4344C52.9288 43.4631 52.9129 43.4853 52.8874 43.501C52.862 43.5167 52.8366 43.5246 52.8111 43.5246H52.5822C52.5536 43.5246 52.5298 43.5167 52.5107 43.501C52.4916 43.4853 52.4821 43.467 52.4821 43.4461C52.4885 43.3076 52.533 43.1743 52.6156 43.0462C52.7015 42.9155 52.827 42.8096 52.9923 42.7286C53.1576 42.645 53.3579 42.6031 53.5932 42.6031C53.9492 42.6031 54.2163 42.6802 54.3943 42.8345C54.5755 42.9861 54.6661 43.1795 54.6661 43.4148C54.6661 43.5794 54.6168 43.7284 54.5183 43.8618C54.4229 43.9925 54.2719 44.131 54.0653 44.2774L53.1259 45.0616H54.6279C54.6629 45.0616 54.6899 45.0694 54.709 45.0851C54.7281 45.1008 54.7376 45.123 54.7376 45.1517V45.3007C54.7376 45.3269 54.7265 45.3491 54.7042 45.3674C54.6852 45.3831 54.6597 45.3909 54.6279 45.3909H52.5393Z" stroke="black" stroke-width="0.6"/>
<path d="M56.3922 45.4301C56.1443 45.4301 55.9297 45.3975 55.7485 45.3321C55.5673 45.2641 55.429 45.1766 55.3336 45.0694C55.2414 44.9622 55.1921 44.8511 55.1858 44.7361C55.1858 44.7126 55.1953 44.6943 55.2144 44.6812C55.2335 44.6655 55.2573 44.6577 55.2859 44.6577H55.5005C55.5355 44.6577 55.5641 44.6642 55.5863 44.6773C55.6086 44.6878 55.6261 44.71 55.6388 44.744C55.6801 44.8773 55.7691 44.9714 55.9058 45.0263C56.0457 45.0812 56.2094 45.1086 56.397 45.1086C56.6259 45.1086 56.8071 45.0642 56.9406 44.9753C57.0773 44.8838 57.1457 44.7544 57.1457 44.5871C57.1457 44.2682 56.9088 44.1088 56.4351 44.1088H55.9869C55.9551 44.1088 55.9281 44.1009 55.9058 44.0852C55.8868 44.067 55.8772 44.0447 55.8772 44.0186V43.9166C55.8772 43.8774 55.8947 43.8435 55.9297 43.8147L56.8595 42.9678H55.4481C55.4163 42.9678 55.3892 42.9599 55.367 42.9443C55.3479 42.9286 55.3384 42.9077 55.3384 42.8815V42.7404C55.3384 42.7116 55.3479 42.6894 55.367 42.6737C55.3892 42.6554 55.4163 42.6463 55.4481 42.6463H57.3364C57.3714 42.6463 57.3984 42.6554 57.4175 42.6737C57.4397 42.6894 57.4508 42.7116 57.4508 42.7404V42.8698C57.4508 42.8985 57.4349 42.9286 57.4032 42.9599L56.4733 43.8186H56.5496C56.8738 43.8265 57.1298 43.8957 57.3173 44.0264C57.5081 44.1571 57.6034 44.348 57.6034 44.5989C57.6034 44.7714 57.551 44.9204 57.4461 45.0459C57.3443 45.1687 57.2013 45.2641 57.0169 45.3321C56.8325 45.3975 56.6243 45.4301 56.3922 45.4301Z" stroke="black" stroke-width="0.6"/>
<path d="M62.8856 45.4301C62.4755 45.4301 62.1751 45.3321 61.9843 45.1361C61.7968 44.9374 61.6966 44.6786 61.6839 44.3597L61.6791 44.0225L61.6839 43.6736C61.6934 43.3573 61.7936 43.1011 61.9843 42.905C62.1782 42.7064 62.4787 42.6071 62.8856 42.6071C63.2957 42.6071 63.5961 42.7064 63.7868 42.905C63.9808 43.1011 64.0825 43.3573 64.092 43.6736C64.0952 43.7467 64.0968 43.8631 64.0968 44.0225C64.0968 44.1767 64.0952 44.2891 64.092 44.3597C64.0793 44.6786 63.9776 44.9374 63.7868 45.1361C63.5993 45.3321 63.2989 45.4301 62.8856 45.4301ZM62.8856 45.1047C63.1304 45.1047 63.3147 45.038 63.4387 44.9047C63.5627 44.7714 63.6279 44.5832 63.6342 44.3401C63.6374 44.2643 63.639 44.1558 63.639 44.0147C63.639 43.8709 63.6374 43.7637 63.6342 43.6932C63.6279 43.4527 63.5611 43.2658 63.434 43.1325C63.31 42.9965 63.1272 42.9286 62.8856 42.9286C62.644 42.9286 62.4612 42.9965 62.3372 43.1325C62.2132 43.2658 62.148 43.4527 62.1417 43.6932L62.1369 44.0147L62.1417 44.3401C62.148 44.5832 62.2132 44.7714 62.3372 44.9047C62.4612 45.038 62.644 45.1047 62.8856 45.1047Z" stroke="black" stroke-width="0.6"/>
<path d="M65.7124 45.3909C65.6806 45.3909 65.6552 45.3831 65.6361 45.3674C65.6171 45.3491 65.6075 45.3269 65.6075 45.3007V43.0893L64.8064 43.5951C64.7842 43.6108 64.7603 43.6187 64.7349 43.6187C64.7063 43.6187 64.6792 43.6056 64.6538 43.5794L64.5394 43.4579C64.5235 43.4396 64.5155 43.4213 64.5155 43.403C64.5155 43.3743 64.5314 43.3507 64.5632 43.3324L65.598 42.6737C65.6329 42.6554 65.6743 42.6463 65.722 42.6463H65.9461C65.9779 42.6463 66.0033 42.6554 66.0224 42.6737C66.0446 42.6894 66.0558 42.7103 66.0558 42.7364V45.3007C66.0558 45.3269 66.0446 45.3491 66.0224 45.3674C66.0033 45.3831 65.9779 45.3909 65.9461 45.3909H65.7124Z" stroke="black" stroke-width="0.6"/>
<path d="M66.7653 45.3909C66.7335 45.3909 66.7065 45.3831 66.6843 45.3674C66.6652 45.3491 66.6557 45.3269 66.6557 45.3007V45.1831C66.6557 45.123 66.6954 45.0655 66.7749 45.0106L67.8144 44.1597C68.0497 43.9951 68.2118 43.8604 68.3008 43.7559C68.3898 43.6513 68.4343 43.5402 68.4343 43.4226C68.4343 43.2684 68.3819 43.1481 68.277 43.0619C68.1721 42.973 68.0195 42.9286 67.8192 42.9286C67.6284 42.9286 67.4774 42.9743 67.3662 43.0658C67.2549 43.1573 67.1866 43.2801 67.1611 43.4344C67.1548 43.4631 67.1389 43.4853 67.1134 43.501C67.088 43.5167 67.0626 43.5246 67.0371 43.5246H66.8083C66.7796 43.5246 66.7558 43.5167 66.7367 43.501C66.7177 43.4853 66.7081 43.467 66.7081 43.4461C66.7145 43.3076 66.759 43.1743 66.8416 43.0462C66.9275 42.9155 67.053 42.8096 67.2184 42.7286C67.3837 42.645 67.5839 42.6031 67.8192 42.6031C68.1752 42.6031 68.4423 42.6802 68.6203 42.8345C68.8015 42.9861 68.8921 43.1795 68.8921 43.4148C68.8921 43.5794 68.8428 43.7284 68.7443 43.8618C68.6489 43.9925 68.4979 44.131 68.2913 44.2774L67.3519 45.0616H68.854C68.8889 45.0616 68.9159 45.0694 68.935 45.0851C68.9541 45.1008 68.9636 45.123 68.9636 45.1517V45.3007C68.9636 45.3269 68.9525 45.3491 68.9303 45.3674C68.9112 45.3831 68.8857 45.3909 68.854 45.3909H66.7653Z" stroke="black" stroke-width="0.6"/>
<path d="M70.6182 45.4301C70.3703 45.4301 70.1557 45.3975 69.9745 45.3321C69.7933 45.2641 69.655 45.1766 69.5596 45.0694C69.4674 44.9622 69.4182 44.8511 69.4118 44.7361C69.4118 44.7126 69.4213 44.6943 69.4404 44.6812C69.4595 44.6655 69.4833 44.6577 69.5119 44.6577H69.7265C69.7615 44.6577 69.7901 44.6642 69.8124 44.6773C69.8346 44.6878 69.8521 44.71 69.8648 44.744C69.9061 44.8773 69.9952 44.9714 70.1318 45.0263C70.2717 45.0812 70.4354 45.1086 70.623 45.1086C70.8519 45.1086 71.0331 45.0642 71.1666 44.9753C71.3033 44.8838 71.3717 44.7544 71.3717 44.5871C71.3717 44.2682 71.1348 44.1088 70.6612 44.1088H70.2129C70.1811 44.1088 70.1541 44.1009 70.1318 44.0852C70.1128 44.067 70.1032 44.0447 70.1032 44.0186V43.9166C70.1032 43.8774 70.1207 43.8435 70.1557 43.8147L71.0856 42.9678H69.6741C69.6423 42.9678 69.6153 42.9599 69.593 42.9443C69.5739 42.9286 69.5644 42.9077 69.5644 42.8815V42.7404C69.5644 42.7116 69.5739 42.6894 69.593 42.6737C69.6153 42.6554 69.6423 42.6463 69.6741 42.6463H71.5624C71.5974 42.6463 71.6244 42.6554 71.6435 42.6737C71.6657 42.6894 71.6769 42.7116 71.6769 42.7404V42.8698C71.6769 42.8985 71.661 42.9286 71.6292 42.9599L70.6993 43.8186H70.7756C71.0999 43.8265 71.3558 43.8957 71.5433 44.0264C71.7341 44.1571 71.8294 44.348 71.8294 44.5989C71.8294 44.7714 71.777 44.9204 71.6721 45.0459C71.5704 45.1687 71.4273 45.2641 71.2429 45.3321C71.0585 45.3975 70.8503 45.4301 70.6182 45.4301Z" stroke="black" stroke-width="0.6"/>
<path d="M77.1116 45.3756C76.7015 45.3756 76.4011 45.2776 76.2103 45.0815C76.0228 44.8828 75.9226 44.6241 75.9099 44.3052L75.9052 43.968L75.9099 43.619C75.9195 43.3027 76.0196 43.0465 76.2103 42.8505C76.4043 42.6518 76.7047 42.5525 77.1116 42.5525C77.5217 42.5525 77.8221 42.6518 78.0128 42.8505C78.2068 43.0465 78.3085 43.3027 78.318 43.619C78.3212 43.6922 78.3228 43.8085 78.3228 43.968C78.3228 44.1222 78.3212 44.2346 78.318 44.3052C78.3053 44.6241 78.2036 44.8828 78.0128 45.0815C77.8253 45.2776 77.5249 45.3756 77.1116 45.3756ZM77.1116 45.0501C77.3564 45.0501 77.5408 44.9835 77.6647 44.8502C77.7887 44.7169 77.8539 44.5287 77.8603 44.2856C77.8634 44.2098 77.865 44.1013 77.865 43.9601C77.865 43.8164 77.8634 43.7092 77.8603 43.6386C77.8539 43.3981 77.7871 43.2112 77.66 43.0779C77.536 42.942 77.3532 42.874 77.1116 42.874C76.87 42.874 76.6872 42.942 76.5632 43.0779C76.4392 43.2112 76.3741 43.3981 76.3677 43.6386L76.3629 43.9601L76.3677 44.2856C76.3741 44.5287 76.4392 44.7169 76.5632 44.8502C76.6872 44.9835 76.87 45.0501 77.1116 45.0501Z" stroke="black" stroke-width="0.6"/>
<path d="M79.9384 45.3364C79.9067 45.3364 79.8812 45.3285 79.8621 45.3128C79.8431 45.2945 79.8335 45.2723 79.8335 45.2462V43.0348L79.0324 43.5406C79.0102 43.5563 78.9863 43.5641 78.9609 43.5641C78.9323 43.5641 78.9053 43.551 78.8798 43.5249L78.7654 43.4033C78.7495 43.3851 78.7415 43.3668 78.7415 43.3485C78.7415 43.3197 78.7574 43.2962 78.7892 43.2779L79.824 42.6192C79.859 42.6009 79.9003 42.5917 79.948 42.5917H80.1721C80.2039 42.5917 80.2293 42.6009 80.2484 42.6192C80.2706 42.6348 80.2818 42.6558 80.2818 42.6819V45.2462C80.2818 45.2723 80.2706 45.2945 80.2484 45.3128C80.2293 45.3285 80.2039 45.3364 80.1721 45.3364H79.9384Z" stroke="black" stroke-width="0.6"/>
<path d="M80.9914 45.3364C80.9596 45.3364 80.9325 45.3285 80.9103 45.3128C80.8912 45.2945 80.8817 45.2723 80.8817 45.2462V45.1286C80.8817 45.0684 80.9214 45.0109 81.0009 44.956L82.0404 44.1052C82.2757 43.9405 82.4378 43.8059 82.5268 43.7013C82.6158 43.5968 82.6603 43.4857 82.6603 43.3681C82.6603 43.2138 82.6079 43.0936 82.503 43.0073C82.3981 42.9185 82.2455 42.874 82.0452 42.874C81.8545 42.874 81.7035 42.9198 81.5922 43.0113C81.4809 43.1027 81.4126 43.2256 81.3871 43.3798C81.3808 43.4086 81.3649 43.4308 81.3395 43.4465C81.314 43.4622 81.2886 43.47 81.2632 43.47H81.0343C81.0057 43.47 80.9818 43.4622 80.9627 43.4465C80.9437 43.4308 80.9341 43.4125 80.9341 43.3916C80.9405 43.253 80.985 43.1197 81.0677 42.9916C81.1535 42.861 81.2791 42.7551 81.4444 42.6741C81.6097 42.5904 81.81 42.5486 82.0452 42.5486C82.4013 42.5486 82.6683 42.6257 82.8463 42.7799C83.0275 42.9315 83.1181 43.125 83.1181 43.3602C83.1181 43.5249 83.0688 43.6739 82.9703 43.8072C82.8749 43.9379 82.7239 44.0764 82.5173 44.2228L81.5779 45.007H83.08C83.1149 45.007 83.142 45.0149 83.161 45.0305C83.1801 45.0462 83.1896 45.0684 83.1896 45.0972V45.2462C83.1896 45.2723 83.1785 45.2945 83.1563 45.3128C83.1372 45.3285 83.1118 45.3364 83.08 45.3364H80.9914Z" stroke="black" stroke-width="0.6"/>
<path d="M84.8443 45.3756C84.5963 45.3756 84.3817 45.3429 84.2005 45.2776C84.0193 45.2096 83.881 45.122 83.7856 45.0149C83.6935 44.9077 83.6442 44.7966 83.6378 44.6816C83.6378 44.658 83.6474 44.6398 83.6664 44.6267C83.6855 44.611 83.7093 44.6032 83.738 44.6032H83.9525C83.9875 44.6032 84.0161 44.6097 84.0384 44.6228C84.0606 44.6332 84.0781 44.6554 84.0908 44.6894C84.1322 44.8227 84.2212 44.9168 84.3579 44.9717C84.4977 45.0266 84.6615 45.0541 84.849 45.0541C85.0779 45.0541 85.2591 45.0096 85.3926 44.9208C85.5293 44.8293 85.5977 44.6999 85.5977 44.5326C85.5977 44.2137 85.3608 44.0542 84.8872 44.0542H84.4389C84.4071 44.0542 84.3801 44.0464 84.3579 44.0307C84.3388 44.0124 84.3293 43.9902 84.3293 43.964V43.8621C84.3293 43.8229 84.3467 43.7889 84.3817 43.7602L85.3116 42.9132H83.9001C83.8683 42.9132 83.8413 42.9054 83.819 42.8897C83.7999 42.874 83.7904 42.8531 83.7904 42.827V42.6858C83.7904 42.6571 83.7999 42.6348 83.819 42.6192C83.8413 42.6009 83.8683 42.5917 83.9001 42.5917H85.7884C85.8234 42.5917 85.8504 42.6009 85.8695 42.6192C85.8917 42.6348 85.9029 42.6571 85.9029 42.6858V42.8152C85.9029 42.844 85.887 42.874 85.8552 42.9054L84.9253 43.7641H85.0016C85.3259 43.7719 85.5818 43.8412 85.7693 43.9719C85.9601 44.1026 86.0555 44.2934 86.0555 44.5443C86.0555 44.7169 86.003 44.8659 85.8981 44.9913C85.7964 45.1142 85.6533 45.2096 85.4689 45.2776C85.2845 45.3429 85.0763 45.3756 84.8443 45.3756Z" stroke="black" stroke-width="0.6"/>
<path d="M91.3376 45.3756C90.9275 45.3756 90.6271 45.2776 90.4364 45.0815C90.2488 44.8828 90.1487 44.6241 90.1359 44.3052L90.1312 43.968L90.1359 43.619C90.1455 43.3027 90.2456 43.0465 90.4364 42.8505C90.6303 42.6518 90.9307 42.5525 91.3376 42.5525C91.7477 42.5525 92.0481 42.6518 92.2389 42.8505C92.4328 43.0465 92.5345 43.3027 92.5441 43.619C92.5472 43.6922 92.5488 43.8085 92.5488 43.968C92.5488 44.1222 92.5472 44.2346 92.5441 44.3052C92.5313 44.6241 92.4296 44.8828 92.2389 45.0815C92.0513 45.2776 91.7509 45.3756 91.3376 45.3756ZM91.3376 45.0501C91.5824 45.0501 91.7668 44.9835 91.8908 44.8502C92.0147 44.7169 92.0799 44.5287 92.0863 44.2856C92.0895 44.2098 92.091 44.1013 92.091 43.9601C92.091 43.8164 92.0895 43.7092 92.0863 43.6386C92.0799 43.3981 92.0132 43.2112 91.886 43.0779C91.762 42.942 91.5792 42.874 91.3376 42.874C91.096 42.874 90.9132 42.942 90.7892 43.0779C90.6652 43.2112 90.6001 43.3981 90.5937 43.6386L90.589 43.9601L90.5937 44.2856C90.6001 44.5287 90.6652 44.7169 90.7892 44.8502C90.9132 44.9835 91.096 45.0501 91.3376 45.0501Z" stroke="black" stroke-width="0.6"/>
<path d="M94.1645 45.3364C94.1327 45.3364 94.1072 45.3285 94.0882 45.3128C94.0691 45.2945 94.0596 45.2723 94.0596 45.2462V43.0348L93.2584 43.5406C93.2362 43.5563 93.2123 43.5641 93.1869 43.5641C93.1583 43.5641 93.1313 43.551 93.1058 43.5249L92.9914 43.4033C92.9755 43.3851 92.9676 43.3668 92.9676 43.3485C92.9676 43.3197 92.9835 43.2962 93.0152 43.2779L94.05 42.6192C94.085 42.6009 94.1263 42.5917 94.174 42.5917H94.3981C94.4299 42.5917 94.4553 42.6009 94.4744 42.6192C94.4967 42.6348 94.5078 42.6558 94.5078 42.6819V45.2462C94.5078 45.2723 94.4967 45.2945 94.4744 45.3128C94.4553 45.3285 94.4299 45.3364 94.3981 45.3364H94.1645Z" stroke="black" stroke-width="0.6"/>
<path d="M95.2174 45.3364C95.1856 45.3364 95.1586 45.3285 95.1363 45.3128C95.1172 45.2945 95.1077 45.2723 95.1077 45.2462V45.1286C95.1077 45.0684 95.1474 45.0109 95.2269 44.956L96.2664 44.1052C96.5017 43.9405 96.6638 43.8059 96.7528 43.7013C96.8419 43.5968 96.8864 43.4857 96.8864 43.3681C96.8864 43.2138 96.8339 43.0936 96.729 43.0073C96.6241 42.9185 96.4715 42.874 96.2712 42.874C96.0805 42.874 95.9295 42.9198 95.8182 43.0113C95.7069 43.1027 95.6386 43.2256 95.6132 43.3798C95.6068 43.4086 95.5909 43.4308 95.5655 43.4465C95.54 43.4622 95.5146 43.47 95.4892 43.47H95.2603C95.2317 43.47 95.2078 43.4622 95.1888 43.4465C95.1697 43.4308 95.1601 43.4125 95.1601 43.3916C95.1665 43.253 95.211 43.1197 95.2937 42.9916C95.3795 42.861 95.5051 42.7551 95.6704 42.6741C95.8357 42.5904 96.036 42.5486 96.2712 42.5486C96.6273 42.5486 96.8943 42.6257 97.0723 42.7799C97.2535 42.9315 97.3441 43.125 97.3441 43.3602C97.3441 43.5249 97.2949 43.6739 97.1963 43.8072C97.1009 43.9379 96.9499 44.0764 96.7433 44.2228L95.8039 45.007H97.306C97.341 45.007 97.368 45.0149 97.3871 45.0305C97.4061 45.0462 97.4157 45.0684 97.4157 45.0972V45.2462C97.4157 45.2723 97.4045 45.2945 97.3823 45.3128C97.3632 45.3285 97.3378 45.3364 97.306 45.3364H95.2174Z" stroke="black" stroke-width="0.6"/>
<path d="M99.0703 45.3756C98.8223 45.3756 98.6077 45.3429 98.4265 45.2776C98.2453 45.2096 98.107 45.122 98.0117 45.0149C97.9195 44.9077 97.8702 44.7966 97.8638 44.6816C97.8638 44.658 97.8734 44.6398 97.8924 44.6267C97.9115 44.611 97.9354 44.6032 97.964 44.6032H98.1786C98.2135 44.6032 98.2421 44.6097 98.2644 44.6228C98.2866 44.6332 98.3041 44.6554 98.3168 44.6894C98.3582 44.8227 98.4472 44.9168 98.5839 44.9717C98.7238 45.0266 98.8875 45.0541 99.075 45.0541C99.3039 45.0541 99.4851 45.0096 99.6187 44.9208C99.7553 44.8293 99.8237 44.6999 99.8237 44.5326C99.8237 44.2137 99.5869 44.0542 99.1132 44.0542H98.6649C98.6332 44.0542 98.6061 44.0464 98.5839 44.0307C98.5648 44.0124 98.5553 43.9902 98.5553 43.964V43.8621C98.5553 43.8229 98.5728 43.7889 98.6077 43.7602L99.5376 42.9132H98.1261C98.0943 42.9132 98.0673 42.9054 98.045 42.8897C98.026 42.874 98.0164 42.8531 98.0164 42.827V42.6858C98.0164 42.6571 98.026 42.6348 98.045 42.6192C98.0673 42.6009 98.0943 42.5917 98.1261 42.5917H100.014C100.049 42.5917 100.076 42.6009 100.096 42.6192C100.118 42.6348 100.129 42.6571 100.129 42.6858V42.8152C100.129 42.844 100.113 42.874 100.081 42.9054L99.1513 43.7641H99.2276C99.5519 43.7719 99.8078 43.8412 99.9954 43.9719C100.186 44.1026 100.281 44.2934 100.281 44.5443C100.281 44.7169 100.229 44.8659 100.124 44.9913C100.022 45.1142 99.8793 45.2096 99.695 45.2776C99.5106 45.3429 99.3023 45.3756 99.0703 45.3756Z" stroke="black" stroke-width="0.6"/>
<path d="M97.5956 28.5347C99.3182 28.5347 100.672 27.1802 100.672 25.4563C100.672 23.7324 99.3182 22.3779 97.5956 22.3779C95.873 22.3779 94.5195 23.7324 94.5195 25.4563C94.5195 27.1802 95.873 28.5347 97.5956 28.5347Z" fill="#FFDA54"/>
<path d="M93.7519 28.5347C95.4745 28.5347 96.8279 27.1802 96.8279 25.4563C96.8279 23.7324 95.4745 22.3779 93.7519 22.3779C92.0293 22.3779 90.6758 23.7324 90.6758 25.4563C90.6758 27.1802 92.0293 28.5347 93.7519 28.5347Z" fill="black"/>
<path fill-rule="evenodd" clip-rule="evenodd" d="M63.3276 77.4911H3.98751C2.34731 77.4911 1 76.1424 1 74.5006V40.1399C1 38.498 2.34731 37.1494 3.98751 37.1494H63.3276C64.9678 37.1494 66.3151 38.498 66.3151 40.1399V74.5006C66.3151 76.1424 64.9678 77.4911 63.3276 77.4911Z" fill="white" stroke="#0E0F0F" stroke-width="2" stroke-miterlimit="10"/>
<path d="M10.4082 43.4905H10.7014V44.2514V48.1818H10.4082V43.4905Z" stroke="#0E0F0F" stroke-width="2" stroke-miterlimit="10"/>
<mask id="path-26-inside-6" fill="white">
<path d="M14.7584 44.9556H12.3477V46.7164H14.7584V44.9556Z"/>
</mask>
<path d="M12.3477 44.9556V42.9556H10.3477V44.9556H12.3477ZM14.7584 44.9556H16.7584V42.9556H14.7584V44.9556ZM14.7584 46.7164V48.7164H16.7584V46.7164H14.7584ZM12.3477 46.7164H10.3477V48.7164H12.3477V46.7164ZM12.3477 46.9556H14.7584V42.9556H12.3477V46.9556ZM12.7584 44.9556V46.7164H16.7584V44.9556H12.7584ZM14.7584 44.7164H12.3477V48.7164H14.7584V44.7164ZM14.3477 46.7164V44.9556H10.3477V46.7164H14.3477Z" fill="#0E0F0F" mask="url(#path-26-inside-6)"/>
<mask id="path-28-inside-7" fill="white">
<path d="M8.70372 44.9556H6.29297V46.7164H8.70372V44.9556Z"/>
</mask>
<path d="M6.29297 44.9556V42.9556H4.29297V44.9556H6.29297ZM8.70372 44.9556H10.7037V42.9556H8.70372V44.9556ZM8.70372 46.7164V48.7164H10.7037V46.7164H8.70372ZM6.29297 46.7164H4.29297V48.7164H6.29297V46.7164ZM6.29297 46.9556H8.70372V42.9556H6.29297V46.9556ZM6.70372 44.9556V46.7164H10.7037V44.9556H6.70372ZM8.70372 44.7164H6.29297V48.7164H8.70372V44.7164ZM8.29297 46.7164V44.9556H4.29297V46.7164H8.29297Z" fill="#0E0F0F" mask="url(#path-28-inside-7)"/>
<mask id="path-30-inside-8" fill="white">
<path d="M12.3477 47.4209V49.2405H13.5824C14.2292 49.2405 14.7584 48.7122 14.7584 48.0666V47.4209H12.3477Z"/>
</mask>
<path d="M12.3477 47.4209V45.4209H10.3477V47.4209H12.3477ZM12.3477 49.2405H10.3477V51.2405H12.3477V49.2405ZM14.7584 47.4209H16.7584V45.4209H14.7584V47.4209ZM10.3477 47.4209V49.2405H14.3477V47.4209H10.3477ZM12.3477 51.2405H13.5824V47.2405H12.3477V51.2405ZM13.5824 51.2405C15.3305 51.2405 16.7584 49.8201 16.7584 48.0666H12.7584C12.7584 47.6044 13.1279 47.2405 13.5824 47.2405V51.2405ZM16.7584 48.0666V47.4209H12.7584V48.0666H16.7584ZM14.7584 45.4209H12.3477V49.4209H14.7584V45.4209Z" fill="#0E0F0F" mask="url(#path-30-inside-8)"/>
<mask id="path-32-inside-9" fill="white">
<path d="M8.70372 47.4209H6.29297V48.0666C6.29297 48.7122 6.82216 49.2405 7.46895 49.2405H8.76252V47.4209H8.70372Z"/>
</mask>
<path d="M6.29297 47.4209V45.4209H4.29297V47.4209H6.29297ZM8.76252 49.2405V51.2405H10.7625V49.2405H8.76252ZM8.76252 47.4209H10.7625V45.4209H8.76252V47.4209ZM8.70372 45.4209H6.29297V49.4209H8.70372V45.4209ZM4.29297 47.4209V48.0666H8.29297V47.4209H4.29297ZM4.29297 48.0666C4.29297 49.8201 5.72088 51.2405 7.46895 51.2405V47.2405C7.92344 47.2405 8.29297 47.6044 8.29297 48.0666H4.29297ZM7.46895 51.2405H8.76252V47.2405H7.46895V51.2405ZM10.7625 49.2405V47.4209H6.76252V49.2405H10.7625ZM8.76252 45.4209H8.70372V49.4209H8.76252V45.4209Z" fill="#0E0F0F" mask="url(#path-32-inside-9)"/>
<mask id="path-34-inside-10" fill="white">
<path d="M8.70197 44.2514V42.4905H7.4084C6.76161 42.4905 6.23242 43.0187 6.23242 43.6644V44.2514H8.70197Z"/>
</mask>
<path d="M8.70197 44.2514V46.2514H10.702V44.2514H8.70197ZM8.70197 42.4905H10.702V40.4905H8.70197V42.4905ZM6.23242 44.2514H4.23242V46.2514H6.23242V44.2514ZM10.702 44.2514V42.4905H6.70197V44.2514H10.702ZM8.70197 40.4905H7.4084V44.4905H8.70197V40.4905ZM7.4084 40.4905C5.66035 40.4905 4.23242 41.9109 4.23242 43.6644H8.23242C8.23242 44.1266 7.86287 44.4905 7.4084 44.4905V40.4905ZM4.23242 43.6644V44.2514H8.23242V43.6644H4.23242ZM6.23242 46.2514H8.70197V42.2514H6.23242V46.2514Z" fill="#0E0F0F" mask="url(#path-34-inside-10)"/>
<path d="M8.93105 65.9648C8.52095 65.9648 8.22054 65.8668 8.0298 65.6707C7.84223 65.4721 7.74209 65.2133 7.72938 64.8944L7.72461 64.5572L7.72938 64.2082C7.73891 63.8919 7.83905 63.6358 8.0298 63.4397C8.22372 63.2411 8.52413 63.1417 8.93105 63.1417C9.34114 63.1417 9.64156 63.2411 9.8323 63.4397C10.0262 63.6358 10.1279 63.8919 10.1375 64.2082C10.1407 64.2814 10.1423 64.3977 10.1423 64.5572C10.1423 64.7114 10.1407 64.8238 10.1375 64.8944C10.1248 65.2133 10.023 65.4721 9.8323 65.6707C9.64474 65.8668 9.34432 65.9648 8.93105 65.9648ZM8.93105 65.6394C9.17583 65.6394 9.36022 65.5727 9.4842 65.4394C9.60818 65.3061 9.67335 65.1179 9.67971 64.8748C9.68289 64.799 9.68448 64.6905 9.68448 64.5493C9.68448 64.4056 9.68289 64.2984 9.67971 64.2278C9.67335 63.9873 9.60659 63.8004 9.47943 63.6671C9.35545 63.5312 9.17265 63.4632 8.93105 63.4632C8.68944 63.4632 8.50665 63.5312 8.38267 63.6671C8.25868 63.8004 8.19352 63.9873 8.18716 64.2278L8.18239 64.5493L8.18716 64.8748C8.19352 65.1179 8.25868 65.3061 8.38267 65.4394C8.50665 65.5727 8.68944 65.6394 8.93105 65.6394Z" fill="black"/>
<path d="M11.7579 65.9256C11.7261 65.9256 11.7007 65.9177 11.6816 65.9021C11.6625 65.8838 11.653 65.8615 11.653 65.8354V63.624L10.8519 64.1298C10.8296 64.1455 10.8058 64.1533 10.7803 64.1533C10.7517 64.1533 10.7247 64.1403 10.6993 64.1141L10.5848 63.9926C10.5689 63.9743 10.561 63.956 10.561 63.9377C10.561 63.9089 10.5769 63.8854 10.6087 63.8671L11.6434 63.2084C11.6784 63.1901 11.7197 63.1809 11.7674 63.1809H11.9916C12.0233 63.1809 12.0488 63.1901 12.0678 63.2084C12.0901 63.2241 12.1012 63.245 12.1012 63.2711V65.8354C12.1012 65.8615 12.0901 65.8838 12.0678 65.9021C12.0488 65.9177 12.0233 65.9256 11.9916 65.9256H11.7579Z" fill="black"/>
<path d="M12.8108 65.9256C12.779 65.9256 12.752 65.9177 12.7297 65.9021C12.7107 65.8838 12.7011 65.8615 12.7011 65.8354V65.7178C12.7011 65.6577 12.7409 65.6002 12.8203 65.5453L13.8599 64.6944C14.0951 64.5297 14.2573 64.3951 14.3463 64.2906C14.4353 64.186 14.4798 64.0749 14.4798 63.9573C14.4798 63.8031 14.4273 63.6828 14.3224 63.5966C14.2175 63.5077 14.0649 63.4632 13.8647 63.4632C13.6739 63.4632 13.5229 63.509 13.4116 63.6005C13.3004 63.692 13.232 63.8148 13.2066 63.969C13.2002 63.9978 13.1843 64.02 13.1589 64.0357C13.1335 64.0514 13.108 64.0592 13.0826 64.0592H12.8537C12.8251 64.0592 12.8013 64.0514 12.7822 64.0357C12.7631 64.02 12.7536 64.0017 12.7536 63.9808C12.7599 63.8423 12.8045 63.709 12.8871 63.5809C12.9729 63.4502 13.0985 63.3443 13.2638 63.2633C13.4291 63.1796 13.6294 63.1378 13.8647 63.1378C14.2207 63.1378 14.4877 63.2149 14.6658 63.3691C14.847 63.5207 14.9376 63.7142 14.9376 63.9494C14.9376 64.1141 14.8883 64.2631 14.7897 64.3964C14.6944 64.5271 14.5434 64.6657 14.3367 64.812L13.3973 65.5962H14.8994C14.9344 65.5962 14.9614 65.6041 14.9805 65.6198C14.9996 65.6354 15.0091 65.6577 15.0091 65.6864V65.8354C15.0091 65.8615 14.998 65.8838 14.9757 65.9021C14.9566 65.9177 14.9312 65.9256 14.8994 65.9256H12.8108Z" fill="black"/>
<path d="M16.6637 65.9648C16.4157 65.9648 16.2012 65.9321 16.02 65.8668C15.8388 65.7988 15.7005 65.7112 15.6051 65.6041C15.5129 65.4969 15.4636 65.3858 15.4573 65.2708C15.4573 65.2473 15.4668 65.229 15.4859 65.2159C15.505 65.2002 15.5288 65.1924 15.5574 65.1924H15.772C15.807 65.1924 15.8356 65.1989 15.8578 65.212C15.8801 65.2224 15.8976 65.2447 15.9103 65.2786C15.9516 65.4119 16.0406 65.506 16.1773 65.5609C16.3172 65.6158 16.4809 65.6433 16.6685 65.6433C16.8974 65.6433 17.0786 65.5988 17.2121 65.51C17.3488 65.4185 17.4171 65.2891 17.4171 65.1218C17.4171 64.8029 17.1803 64.6434 16.7066 64.6434H16.2584C16.2266 64.6434 16.1996 64.6356 16.1773 64.6199C16.1582 64.6016 16.1487 64.5794 16.1487 64.5533V64.4513C16.1487 64.4121 16.1662 64.3781 16.2012 64.3494L17.131 63.5024H15.7195C15.6877 63.5024 15.6607 63.4946 15.6385 63.4789C15.6194 63.4632 15.6099 63.4423 15.6099 63.4162V63.275C15.6099 63.2463 15.6194 63.2241 15.6385 63.2084C15.6607 63.1901 15.6877 63.1809 15.7195 63.1809H17.6079C17.6428 63.1809 17.6699 63.1901 17.6889 63.2084C17.7112 63.2241 17.7223 63.2463 17.7223 63.275V63.4044C17.7223 63.4332 17.7064 63.4632 17.6746 63.4946L16.7448 64.3533H16.8211C17.1453 64.3611 17.4012 64.4304 17.5888 64.5611C17.7795 64.6918 17.8749 64.8826 17.8749 65.1336C17.8749 65.3061 17.8225 65.4551 17.7176 65.5805C17.6158 65.7034 17.4728 65.7988 17.2884 65.8668C17.104 65.9321 16.8958 65.9648 16.6637 65.9648Z" fill="black"/>
<path d="M23.1571 65.9648C22.747 65.9648 22.4466 65.8668 22.2558 65.6707C22.0682 65.4721 21.9681 65.2133 21.9554 64.8944L21.9506 64.5572L21.9554 64.2082C21.9649 63.8919 22.0651 63.6358 22.2558 63.4397C22.4497 63.2411 22.7501 63.1417 23.1571 63.1417C23.5672 63.1417 23.8676 63.2411 24.0583 63.4397C24.2522 63.6358 24.354 63.8919 24.3635 64.2082C24.3667 64.2814 24.3683 64.3977 24.3683 64.5572C24.3683 64.7114 24.3667 64.8238 24.3635 64.8944C24.3508 65.2133 24.2491 65.4721 24.0583 65.6707C23.8708 65.8668 23.5703 65.9648 23.1571 65.9648ZM23.1571 65.6394C23.4018 65.6394 23.5862 65.5727 23.7102 65.4394C23.8342 65.3061 23.8994 65.1179 23.9057 64.8748C23.9089 64.799 23.9105 64.6905 23.9105 64.5493C23.9105 64.4056 23.9089 64.2984 23.9057 64.2278C23.8994 63.9873 23.8326 63.8004 23.7054 63.6671C23.5815 63.5312 23.3987 63.4632 23.1571 63.4632C22.9155 63.4632 22.7327 63.5312 22.6087 63.6671C22.4847 63.8004 22.4195 63.9873 22.4132 64.2278L22.4084 64.5493L22.4132 64.8748C22.4195 65.1179 22.4847 65.3061 22.6087 65.4394C22.7327 65.5727 22.9155 65.6394 23.1571 65.6394Z" fill="black"/>
<path d="M25.9839 65.9256C25.9521 65.9256 25.9267 65.9177 25.9076 65.9021C25.8885 65.8838 25.879 65.8615 25.879 65.8354V63.624L25.0779 64.1298C25.0556 64.1455 25.0318 64.1533 25.0064 64.1533C24.9778 64.1533 24.9507 64.1403 24.9253 64.1141L24.8109 63.9926C24.795 63.9743 24.787 63.956 24.787 63.9377C24.787 63.9089 24.8029 63.8854 24.8347 63.8671L25.8695 63.2084C25.9044 63.1901 25.9458 63.1809 25.9934 63.1809H26.2176C26.2494 63.1809 26.2748 63.1901 26.2939 63.2084C26.3161 63.2241 26.3272 63.245 26.3272 63.2711V65.8354C26.3272 65.8615 26.3161 65.8838 26.2939 65.9021C26.2748 65.9177 26.2494 65.9256 26.2176 65.9256H25.9839Z" fill="black"/>
<path d="M27.0368 65.9256C27.005 65.9256 26.978 65.9177 26.9558 65.9021C26.9367 65.8838 26.9271 65.8615 26.9271 65.8354V65.7178C26.9271 65.6577 26.9669 65.6002 27.0464 65.5453L28.0859 64.6944C28.3211 64.5297 28.4833 64.3951 28.5723 64.2906C28.6613 64.186 28.7058 64.0749 28.7058 63.9573C28.7058 63.8031 28.6534 63.6828 28.5485 63.5966C28.4435 63.5077 28.2909 63.4632 28.0907 63.4632C27.8999 63.4632 27.7489 63.509 27.6377 63.6005C27.5264 63.692 27.458 63.8148 27.4326 63.969C27.4263 63.9978 27.4104 64.02 27.3849 64.0357C27.3595 64.0514 27.3341 64.0592 27.3086 64.0592H27.0797C27.0511 64.0592 27.0273 64.0514 27.0082 64.0357C26.9891 64.02 26.9796 64.0017 26.9796 63.9808C26.986 63.8423 27.0305 63.709 27.1131 63.5809C27.199 63.4502 27.3245 63.3443 27.4898 63.2633C27.6551 63.1796 27.8554 63.1378 28.0907 63.1378C28.4467 63.1378 28.7138 63.2149 28.8918 63.3691C29.073 63.5207 29.1636 63.7142 29.1636 63.9494C29.1636 64.1141 29.1143 64.2631 29.0158 64.3964C28.9204 64.5271 28.7694 64.6657 28.5628 64.812L27.6234 65.5962H29.1254C29.1604 65.5962 29.1874 65.6041 29.2065 65.6198C29.2256 65.6354 29.2351 65.6577 29.2351 65.6864V65.8354C29.2351 65.8615 29.224 65.8838 29.2017 65.9021C29.1827 65.9177 29.1572 65.9256 29.1254 65.9256H27.0368Z" fill="black"/>
<path d="M30.8897 65.9648C30.6418 65.9648 30.4272 65.9321 30.246 65.8668C30.0648 65.7988 29.9265 65.7112 29.8311 65.6041C29.7389 65.4969 29.6896 65.3858 29.6833 65.2708C29.6833 65.2473 29.6928 65.229 29.7119 65.2159C29.731 65.2002 29.7548 65.1924 29.7834 65.1924H29.998C30.033 65.1924 30.0616 65.1989 30.0838 65.212C30.1061 65.2224 30.1236 65.2447 30.1363 65.2786C30.1776 65.4119 30.2666 65.506 30.4033 65.5609C30.5432 65.6158 30.7069 65.6433 30.8945 65.6433C31.1234 65.6433 31.3046 65.5988 31.4381 65.51C31.5748 65.4185 31.6432 65.2891 31.6432 65.1218C31.6432 64.8029 31.4063 64.6434 30.9326 64.6434H30.4844C30.4526 64.6434 30.4256 64.6356 30.4033 64.6199C30.3843 64.6016 30.3747 64.5794 30.3747 64.5533V64.4513C30.3747 64.4121 30.3922 64.3781 30.4272 64.3494L31.357 63.5024H29.9456C29.9138 63.5024 29.8867 63.4946 29.8645 63.4789C29.8454 63.4632 29.8359 63.4423 29.8359 63.4162V63.275C29.8359 63.2463 29.8454 63.2241 29.8645 63.2084C29.8867 63.1901 29.9138 63.1809 29.9456 63.1809H31.8339C31.8689 63.1809 31.8959 63.1901 31.915 63.2084C31.9372 63.2241 31.9483 63.2463 31.9483 63.275V63.4044C31.9483 63.4332 31.9324 63.4632 31.9007 63.4946L30.9708 64.3533H31.0471C31.3713 64.3611 31.6273 64.4304 31.8148 64.5611C32.0056 64.6918 32.1009 64.8826 32.1009 65.1336C32.1009 65.3061 32.0485 65.4551 31.9436 65.5805C31.8418 65.7034 31.6988 65.7988 31.5144 65.8668C31.33 65.9321 31.1218 65.9648 30.8897 65.9648Z" fill="black"/>
<path d="M37.3831 65.9102C36.973 65.9102 36.6726 65.8122 36.4818 65.6162C36.2943 65.4175 36.1941 65.1587 36.1814 64.8398L36.1766 64.5026L36.1814 64.1537C36.1909 63.8374 36.2911 63.5812 36.4818 63.3852C36.6757 63.1865 36.9762 63.0872 37.3831 63.0872C37.7932 63.0872 38.0936 63.1865 38.2843 63.3852C38.4783 63.5812 38.58 63.8374 38.5895 64.1537C38.5927 64.2269 38.5943 64.3432 38.5943 64.5026C38.5943 64.6569 38.5927 64.7693 38.5895 64.8398C38.5768 65.1587 38.4751 65.4175 38.2843 65.6162C38.0968 65.8122 37.7964 65.9102 37.3831 65.9102ZM37.3831 65.5848C37.6279 65.5848 37.8123 65.5182 37.9362 65.3848C38.0602 65.2515 38.1254 65.0633 38.1317 64.8202C38.1349 64.7444 38.1365 64.6359 38.1365 64.4948C38.1365 64.351 38.1349 64.2438 38.1317 64.1733C38.1254 63.9328 38.0586 63.7459 37.9315 63.6126C37.8075 63.4767 37.6247 63.4087 37.3831 63.4087C37.1415 63.4087 36.9587 63.4767 36.8347 63.6126C36.7107 63.7459 36.6455 63.9328 36.6392 64.1733L36.6344 64.4948L36.6392 64.8202C36.6455 65.0633 36.7107 65.2515 36.8347 65.3848C36.9587 65.5182 37.1415 65.5848 37.3831 65.5848Z" fill="black"/>
<path d="M40.2099 65.871C40.1781 65.871 40.1527 65.8632 40.1336 65.8475C40.1146 65.8292 40.105 65.807 40.105 65.7809V63.5694L39.3039 64.0752C39.2817 64.0909 39.2578 64.0988 39.2324 64.0988C39.2038 64.0988 39.1767 64.0857 39.1513 64.0596L39.0369 63.938C39.021 63.9197 39.013 63.9014 39.013 63.8831C39.013 63.8544 39.0289 63.8308 39.0607 63.8125L40.0955 63.1538C40.1305 63.1355 40.1718 63.1264 40.2195 63.1264H40.4436C40.4754 63.1264 40.5008 63.1355 40.5199 63.1538C40.5421 63.1695 40.5533 63.1904 40.5533 63.2166V65.7809C40.5533 65.807 40.5421 65.8292 40.5199 65.8475C40.5008 65.8632 40.4754 65.871 40.4436 65.871H40.2099Z" fill="black"/>
<path d="M41.2628 65.871C41.231 65.871 41.204 65.8632 41.1818 65.8475C41.1627 65.8292 41.1532 65.807 41.1532 65.7809V65.6632C41.1532 65.6031 41.1929 65.5456 41.2724 65.4907L42.3119 64.6399C42.5472 64.4752 42.7093 64.3406 42.7983 64.236C42.8873 64.1314 42.9318 64.0204 42.9318 63.9027C42.9318 63.7485 42.8794 63.6283 42.7745 63.542C42.6696 63.4531 42.517 63.4087 42.3167 63.4087C42.1259 63.4087 41.9749 63.4544 41.8637 63.5459C41.7524 63.6374 41.6841 63.7603 41.6586 63.9145C41.6523 63.9432 41.6364 63.9655 41.6109 63.9811C41.5855 63.9968 41.5601 64.0047 41.5346 64.0047H41.3058C41.2771 64.0047 41.2533 63.9968 41.2342 63.9811C41.2152 63.9655 41.2056 63.9472 41.2056 63.9263C41.212 63.7877 41.2565 63.6544 41.3391 63.5263C41.425 63.3956 41.5505 63.2898 41.7159 63.2087C41.8812 63.1251 42.0814 63.0833 42.3167 63.0833C42.6727 63.0833 42.9398 63.1604 43.1178 63.3146C43.299 63.4662 43.3896 63.6596 43.3896 63.8949C43.3896 64.0596 43.3403 64.2086 43.2418 64.3419C43.1464 64.4726 42.9954 64.6111 42.7888 64.7575L41.8494 65.5417H43.3515C43.3864 65.5417 43.4134 65.5495 43.4325 65.5652C43.4516 65.5809 43.4611 65.6031 43.4611 65.6319V65.7809C43.4611 65.807 43.45 65.8292 43.4278 65.8475C43.4087 65.8632 43.3832 65.871 43.3515 65.871H41.2628Z" fill="black"/>
<path d="M45.1157 65.9102C44.8678 65.9102 44.6532 65.8776 44.472 65.8122C44.2908 65.7443 44.1525 65.6567 44.0571 65.5495C43.9649 65.4423 43.9157 65.3313 43.9093 65.2162C43.9093 65.1927 43.9188 65.1744 43.9379 65.1613C43.957 65.1457 43.9808 65.1378 44.0094 65.1378H44.224C44.259 65.1378 44.2876 65.1444 44.3099 65.1574C44.3321 65.1679 44.3496 65.1901 44.3623 65.2241C44.4036 65.3574 44.4927 65.4515 44.6293 65.5064C44.7692 65.5613 44.9329 65.5887 45.1205 65.5887C45.3494 65.5887 45.5306 65.5443 45.6641 65.4554C45.8008 65.3639 45.8692 65.2345 45.8692 65.0672C45.8692 64.7483 45.6323 64.5889 45.1587 64.5889H44.7104C44.6786 64.5889 44.6516 64.5811 44.6293 64.5654C44.6103 64.5471 44.6007 64.5248 44.6007 64.4987V64.3968C44.6007 64.3576 44.6182 64.3236 44.6532 64.2948L45.5831 63.4479H44.1716C44.1398 63.4479 44.1128 63.4401 44.0905 63.4244C44.0714 63.4087 44.0619 63.3878 44.0619 63.3616V63.2205C44.0619 63.1917 44.0714 63.1695 44.0905 63.1538C44.1128 63.1355 44.1398 63.1264 44.1716 63.1264H46.0599C46.0949 63.1264 46.1219 63.1355 46.141 63.1538C46.1632 63.1695 46.1744 63.1917 46.1744 63.2205V63.3499C46.1744 63.3786 46.1585 63.4087 46.1267 63.4401L45.1968 64.2987H45.2731C45.5974 64.3066 45.8533 64.3759 46.0408 64.5066C46.2316 64.6373 46.3269 64.8281 46.3269 65.079C46.3269 65.2515 46.2745 65.4005 46.1696 65.526C46.0679 65.6489 45.9248 65.7443 45.7404 65.8122C45.556 65.8776 45.3478 65.9102 45.1157 65.9102Z" fill="black"/>
<path d="M51.6091 65.9102C51.199 65.9102 50.8986 65.8122 50.7078 65.6162C50.5203 65.4175 50.4201 65.1587 50.4074 64.8398L50.4027 64.5026L50.4074 64.1537C50.417 63.8374 50.5171 63.5812 50.7078 63.3852C50.9018 63.1865 51.2022 63.0872 51.6091 63.0872C52.0192 63.0872 52.3196 63.1865 52.5104 63.3852C52.7043 63.5812 52.806 63.8374 52.8155 64.1537C52.8187 64.2269 52.8203 64.3432 52.8203 64.5026C52.8203 64.6569 52.8187 64.7693 52.8155 64.8398C52.8028 65.1587 52.7011 65.4175 52.5104 65.6162C52.3228 65.8122 52.0224 65.9102 51.6091 65.9102ZM51.6091 65.5848C51.8539 65.5848 52.0383 65.5182 52.1622 65.3848C52.2862 65.2515 52.3514 65.0633 52.3578 64.8202C52.3609 64.7444 52.3625 64.6359 52.3625 64.4948C52.3625 64.351 52.3609 64.2438 52.3578 64.1733C52.3514 63.9328 52.2846 63.7459 52.1575 63.6126C52.0335 63.4767 51.8507 63.4087 51.6091 63.4087C51.3675 63.4087 51.1847 63.4767 51.0607 63.6126C50.9367 63.7459 50.8716 63.9328 50.8652 64.1733L50.8604 64.4948L50.8652 64.8202C50.8716 65.0633 50.9367 65.2515 51.0607 65.3848C51.1847 65.5182 51.3675 65.5848 51.6091 65.5848Z" fill="black"/>
<path d="M54.4359 65.871C54.4042 65.871 54.3787 65.8632 54.3596 65.8475C54.3406 65.8292 54.331 65.807 54.331 65.7809V63.5694L53.5299 64.0752C53.5077 64.0909 53.4838 64.0988 53.4584 64.0988C53.4298 64.0988 53.4028 64.0857 53.3773 64.0596L53.2629 63.938C53.247 63.9197 53.239 63.9014 53.239 63.8831C53.239 63.8544 53.2549 63.8308 53.2867 63.8125L54.3215 63.1538C54.3565 63.1355 54.3978 63.1264 54.4455 63.1264H54.6696C54.7014 63.1264 54.7268 63.1355 54.7459 63.1538C54.7682 63.1695 54.7793 63.1904 54.7793 63.2166V65.7809C54.7793 65.807 54.7682 65.8292 54.7459 65.8475C54.7268 65.8632 54.7014 65.871 54.6696 65.871H54.4359Z" fill="black"/>
<path d="M55.4889 65.871C55.4571 65.871 55.43 65.8632 55.4078 65.8475C55.3887 65.8292 55.3792 65.807 55.3792 65.7809V65.6632C55.3792 65.6031 55.4189 65.5456 55.4984 65.4907L56.5379 64.6399C56.7732 64.4752 56.9353 64.3406 57.0243 64.236C57.1133 64.1314 57.1578 64.0204 57.1578 63.9027C57.1578 63.7485 57.1054 63.6283 57.0005 63.542C56.8956 63.4531 56.743 63.4087 56.5427 63.4087C56.352 63.4087 56.201 63.4544 56.0897 63.5459C55.9784 63.6374 55.9101 63.7603 55.8846 63.9145C55.8783 63.9432 55.8624 63.9655 55.837 63.9811C55.8115 63.9968 55.7861 64.0047 55.7607 64.0047H55.5318C55.5032 64.0047 55.4793 63.9968 55.4602 63.9811C55.4412 63.9655 55.4316 63.9472 55.4316 63.9263C55.438 63.7877 55.4825 63.6544 55.5652 63.5263C55.651 63.3956 55.7766 63.2898 55.9419 63.2087C56.1072 63.1251 56.3075 63.0833 56.5427 63.0833C56.8988 63.0833 57.1658 63.1604 57.3438 63.3146C57.525 63.4662 57.6156 63.6596 57.6156 63.8949C57.6156 64.0596 57.5663 64.2086 57.4678 64.3419C57.3724 64.4726 57.2214 64.6111 57.0148 64.7575L56.0754 65.5417H57.5775C57.6124 65.5417 57.6395 65.5495 57.6585 65.5652C57.6776 65.5809 57.6871 65.6031 57.6871 65.6319V65.7809C57.6871 65.807 57.676 65.8292 57.6538 65.8475C57.6347 65.8632 57.6093 65.871 57.5775 65.871H55.4889Z" fill="black"/>
<path d="M59.3418 65.9102C59.0938 65.9102 58.8792 65.8776 58.698 65.8122C58.5168 65.7443 58.3785 65.6567 58.2831 65.5495C58.191 65.4423 58.1417 65.3313 58.1353 65.2162C58.1353 65.1927 58.1449 65.1744 58.1639 65.1613C58.183 65.1457 58.2068 65.1378 58.2355 65.1378H58.45C58.485 65.1378 58.5136 65.1444 58.5359 65.1574C58.5581 65.1679 58.5756 65.1901 58.5883 65.2241C58.6297 65.3574 58.7187 65.4515 58.8554 65.5064C58.9952 65.5613 59.159 65.5887 59.3465 65.5887C59.5754 65.5887 59.7566 65.5443 59.8901 65.4554C60.0268 65.3639 60.0952 65.2345 60.0952 65.0672C60.0952 64.7483 59.8583 64.5889 59.3847 64.5889H58.9364C58.9046 64.5889 58.8776 64.5811 58.8554 64.5654C58.8363 64.5471 58.8268 64.5248 58.8268 64.4987V64.3968C58.8268 64.3576 58.8442 64.3236 58.8792 64.2948L59.8091 63.4479H58.3976C58.3658 63.4479 58.3388 63.4401 58.3165 63.4244C58.2974 63.4087 58.2879 63.3878 58.2879 63.3616V63.2205C58.2879 63.1917 58.2974 63.1695 58.3165 63.1538C58.3388 63.1355 58.3658 63.1264 58.3976 63.1264H60.2859C60.3209 63.1264 60.3479 63.1355 60.367 63.1538C60.3892 63.1695 60.4004 63.1917 60.4004 63.2205V63.3499C60.4004 63.3786 60.3845 63.4087 60.3527 63.4401L59.4228 64.2987H59.4991C59.8234 64.3066 60.0793 64.3759 60.2668 64.5066C60.4576 64.6373 60.553 64.8281 60.553 65.079C60.553 65.2515 60.5005 65.4005 60.3956 65.526C60.2939 65.6489 60.1508 65.7443 59.9664 65.8122C59.7821 65.8776 59.5738 65.9102 59.3418 65.9102Z" fill="black"/>
<path d="M8.93105 65.9648C8.52095 65.9648 8.22054 65.8668 8.0298 65.6707C7.84223 65.4721 7.74209 65.2133 7.72938 64.8944L7.72461 64.5572L7.72938 64.2082C7.73891 63.8919 7.83905 63.6358 8.0298 63.4397C8.22372 63.2411 8.52413 63.1417 8.93105 63.1417C9.34114 63.1417 9.64156 63.2411 9.8323 63.4397C10.0262 63.6358 10.1279 63.8919 10.1375 64.2082C10.1407 64.2814 10.1423 64.3977 10.1423 64.5572C10.1423 64.7114 10.1407 64.8238 10.1375 64.8944C10.1248 65.2133 10.023 65.4721 9.8323 65.6707C9.64474 65.8668 9.34432 65.9648 8.93105 65.9648ZM8.93105 65.6394C9.17583 65.6394 9.36022 65.5727 9.4842 65.4394C9.60818 65.3061 9.67335 65.1179 9.67971 64.8748C9.68289 64.799 9.68448 64.6905 9.68448 64.5493C9.68448 64.4056 9.68289 64.2984 9.67971 64.2278C9.67335 63.9873 9.60659 63.8004 9.47943 63.6671C9.35545 63.5312 9.17265 63.4632 8.93105 63.4632C8.68944 63.4632 8.50665 63.5312 8.38267 63.6671C8.25868 63.8004 8.19352 63.9873 8.18716 64.2278L8.18239 64.5493L8.18716 64.8748C8.19352 65.1179 8.25868 65.3061 8.38267 65.4394C8.50665 65.5727 8.68944 65.6394 8.93105 65.6394Z" stroke="black" stroke-width="0.6"/>
<path d="M11.7579 65.9256C11.7261 65.9256 11.7007 65.9177 11.6816 65.9021C11.6625 65.8838 11.653 65.8615 11.653 65.8354V63.624L10.8519 64.1298C10.8296 64.1455 10.8058 64.1533 10.7803 64.1533C10.7517 64.1533 10.7247 64.1403 10.6993 64.1141L10.5848 63.9926C10.5689 63.9743 10.561 63.956 10.561 63.9377C10.561 63.9089 10.5769 63.8854 10.6087 63.8671L11.6434 63.2084C11.6784 63.1901 11.7197 63.1809 11.7674 63.1809H11.9916C12.0233 63.1809 12.0488 63.1901 12.0678 63.2084C12.0901 63.2241 12.1012 63.245 12.1012 63.2711V65.8354C12.1012 65.8615 12.0901 65.8838 12.0678 65.9021C12.0488 65.9177 12.0233 65.9256 11.9916 65.9256H11.7579Z" stroke="black" stroke-width="0.6"/>
<path d="M12.8108 65.9256C12.779 65.9256 12.752 65.9177 12.7297 65.9021C12.7107 65.8838 12.7011 65.8615 12.7011 65.8354V65.7178C12.7011 65.6577 12.7409 65.6002 12.8203 65.5453L13.8599 64.6944C14.0951 64.5297 14.2573 64.3951 14.3463 64.2906C14.4353 64.186 14.4798 64.0749 14.4798 63.9573C14.4798 63.8031 14.4273 63.6828 14.3224 63.5966C14.2175 63.5077 14.0649 63.4632 13.8647 63.4632C13.6739 63.4632 13.5229 63.509 13.4116 63.6005C13.3004 63.692 13.232 63.8148 13.2066 63.969C13.2002 63.9978 13.1843 64.02 13.1589 64.0357C13.1335 64.0514 13.108 64.0592 13.0826 64.0592H12.8537C12.8251 64.0592 12.8013 64.0514 12.7822 64.0357C12.7631 64.02 12.7536 64.0017 12.7536 63.9808C12.7599 63.8423 12.8045 63.709 12.8871 63.5809C12.9729 63.4502 13.0985 63.3443 13.2638 63.2633C13.4291 63.1796 13.6294 63.1378 13.8647 63.1378C14.2207 63.1378 14.4877 63.2149 14.6658 63.3691C14.847 63.5207 14.9376 63.7142 14.9376 63.9494C14.9376 64.1141 14.8883 64.2631 14.7897 64.3964C14.6944 64.5271 14.5434 64.6657 14.3367 64.812L13.3973 65.5962H14.8994C14.9344 65.5962 14.9614 65.6041 14.9805 65.6198C14.9996 65.6354 15.0091 65.6577 15.0091 65.6864V65.8354C15.0091 65.8615 14.998 65.8838 14.9757 65.9021C14.9566 65.9177 14.9312 65.9256 14.8994 65.9256H12.8108Z" stroke="black" stroke-width="0.6"/>
<path d="M16.6637 65.9648C16.4157 65.9648 16.2012 65.9321 16.02 65.8668C15.8388 65.7988 15.7005 65.7112 15.6051 65.6041C15.5129 65.4969 15.4636 65.3858 15.4573 65.2708C15.4573 65.2473 15.4668 65.229 15.4859 65.2159C15.505 65.2002 15.5288 65.1924 15.5574 65.1924H15.772C15.807 65.1924 15.8356 65.1989 15.8578 65.212C15.8801 65.2224 15.8976 65.2447 15.9103 65.2786C15.9516 65.4119 16.0406 65.506 16.1773 65.5609C16.3172 65.6158 16.4809 65.6433 16.6685 65.6433C16.8974 65.6433 17.0786 65.5988 17.2121 65.51C17.3488 65.4185 17.4171 65.2891 17.4171 65.1218C17.4171 64.8029 17.1803 64.6434 16.7066 64.6434H16.2584C16.2266 64.6434 16.1996 64.6356 16.1773 64.6199C16.1582 64.6016 16.1487 64.5794 16.1487 64.5533V64.4513C16.1487 64.4121 16.1662 64.3781 16.2012 64.3494L17.131 63.5024H15.7195C15.6877 63.5024 15.6607 63.4946 15.6385 63.4789C15.6194 63.4632 15.6099 63.4423 15.6099 63.4162V63.275C15.6099 63.2463 15.6194 63.2241 15.6385 63.2084C15.6607 63.1901 15.6877 63.1809 15.7195 63.1809H17.6079C17.6428 63.1809 17.6699 63.1901 17.6889 63.2084C17.7112 63.2241 17.7223 63.2463 17.7223 63.275V63.4044C17.7223 63.4332 17.7064 63.4632 17.6746 63.4946L16.7448 64.3533H16.8211C17.1453 64.3611 17.4012 64.4304 17.5888 64.5611C17.7795 64.6918 17.8749 64.8826 17.8749 65.1336C17.8749 65.3061 17.8225 65.4551 17.7176 65.5805C17.6158 65.7034 17.4728 65.7988 17.2884 65.8668C17.104 65.9321 16.8958 65.9648 16.6637 65.9648Z" stroke="black" stroke-width="0.6"/>
<path d="M23.1571 65.9648C22.747 65.9648 22.4466 65.8668 22.2558 65.6707C22.0682 65.4721 21.9681 65.2133 21.9554 64.8944L21.9506 64.5572L21.9554 64.2082C21.9649 63.8919 22.0651 63.6358 22.2558 63.4397C22.4497 63.2411 22.7501 63.1417 23.1571 63.1417C23.5672 63.1417 23.8676 63.2411 24.0583 63.4397C24.2522 63.6358 24.354 63.8919 24.3635 64.2082C24.3667 64.2814 24.3683 64.3977 24.3683 64.5572C24.3683 64.7114 24.3667 64.8238 24.3635 64.8944C24.3508 65.2133 24.2491 65.4721 24.0583 65.6707C23.8708 65.8668 23.5703 65.9648 23.1571 65.9648ZM23.1571 65.6394C23.4018 65.6394 23.5862 65.5727 23.7102 65.4394C23.8342 65.3061 23.8994 65.1179 23.9057 64.8748C23.9089 64.799 23.9105 64.6905 23.9105 64.5493C23.9105 64.4056 23.9089 64.2984 23.9057 64.2278C23.8994 63.9873 23.8326 63.8004 23.7054 63.6671C23.5815 63.5312 23.3987 63.4632 23.1571 63.4632C22.9155 63.4632 22.7327 63.5312 22.6087 63.6671C22.4847 63.8004 22.4195 63.9873 22.4132 64.2278L22.4084 64.5493L22.4132 64.8748C22.4195 65.1179 22.4847 65.3061 22.6087 65.4394C22.7327 65.5727 22.9155 65.6394 23.1571 65.6394Z" stroke="black" stroke-width="0.6"/>
<path d="M25.9839 65.9256C25.9521 65.9256 25.9267 65.9177 25.9076 65.9021C25.8885 65.8838 25.879 65.8615 25.879 65.8354V63.624L25.0779 64.1298C25.0556 64.1455 25.0318 64.1533 25.0064 64.1533C24.9778 64.1533 24.9507 64.1403 24.9253 64.1141L24.8109 63.9926C24.795 63.9743 24.787 63.956 24.787 63.9377C24.787 63.9089 24.8029 63.8854 24.8347 63.8671L25.8695 63.2084C25.9044 63.1901 25.9458 63.1809 25.9934 63.1809H26.2176C26.2494 63.1809 26.2748 63.1901 26.2939 63.2084C26.3161 63.2241 26.3272 63.245 26.3272 63.2711V65.8354C26.3272 65.8615 26.3161 65.8838 26.2939 65.9021C26.2748 65.9177 26.2494 65.9256 26.2176 65.9256H25.9839Z" stroke="black" stroke-width="0.6"/>
<path d="M27.0368 65.9256C27.005 65.9256 26.978 65.9177 26.9558 65.9021C26.9367 65.8838 26.9271 65.8615 26.9271 65.8354V65.7178C26.9271 65.6577 26.9669 65.6002 27.0464 65.5453L28.0859 64.6944C28.3211 64.5297 28.4833 64.3951 28.5723 64.2906C28.6613 64.186 28.7058 64.0749 28.7058 63.9573C28.7058 63.8031 28.6534 63.6828 28.5485 63.5966C28.4435 63.5077 28.2909 63.4632 28.0907 63.4632C27.8999 63.4632 27.7489 63.509 27.6377 63.6005C27.5264 63.692 27.458 63.8148 27.4326 63.969C27.4263 63.9978 27.4104 64.02 27.3849 64.0357C27.3595 64.0514 27.3341 64.0592 27.3086 64.0592H27.0797C27.0511 64.0592 27.0273 64.0514 27.0082 64.0357C26.9891 64.02 26.9796 64.0017 26.9796 63.9808C26.986 63.8423 27.0305 63.709 27.1131 63.5809C27.199 63.4502 27.3245 63.3443 27.4898 63.2633C27.6551 63.1796 27.8554 63.1378 28.0907 63.1378C28.4467 63.1378 28.7138 63.2149 28.8918 63.3691C29.073 63.5207 29.1636 63.7142 29.1636 63.9494C29.1636 64.1141 29.1143 64.2631 29.0158 64.3964C28.9204 64.5271 28.7694 64.6657 28.5628 64.812L27.6234 65.5962H29.1254C29.1604 65.5962 29.1874 65.6041 29.2065 65.6198C29.2256 65.6354 29.2351 65.6577 29.2351 65.6864V65.8354C29.2351 65.8615 29.224 65.8838 29.2017 65.9021C29.1827 65.9177 29.1572 65.9256 29.1254 65.9256H27.0368Z" stroke="black" stroke-width="0.6"/>
<path d="M30.8897 65.9648C30.6418 65.9648 30.4272 65.9321 30.246 65.8668C30.0648 65.7988 29.9265 65.7112 29.8311 65.6041C29.7389 65.4969 29.6896 65.3858 29.6833 65.2708C29.6833 65.2473 29.6928 65.229 29.7119 65.2159C29.731 65.2002 29.7548 65.1924 29.7834 65.1924H29.998C30.033 65.1924 30.0616 65.1989 30.0838 65.212C30.1061 65.2224 30.1236 65.2447 30.1363 65.2786C30.1776 65.4119 30.2666 65.506 30.4033 65.5609C30.5432 65.6158 30.7069 65.6433 30.8945 65.6433C31.1234 65.6433 31.3046 65.5988 31.4381 65.51C31.5748 65.4185 31.6432 65.2891 31.6432 65.1218C31.6432 64.8029 31.4063 64.6434 30.9326 64.6434H30.4844C30.4526 64.6434 30.4256 64.6356 30.4033 64.6199C30.3843 64.6016 30.3747 64.5794 30.3747 64.5533V64.4513C30.3747 64.4121 30.3922 64.3781 30.4272 64.3494L31.357 63.5024H29.9456C29.9138 63.5024 29.8867 63.4946 29.8645 63.4789C29.8454 63.4632 29.8359 63.4423 29.8359 63.4162V63.275C29.8359 63.2463 29.8454 63.2241 29.8645 63.2084C29.8867 63.1901 29.9138 63.1809 29.9456 63.1809H31.8339C31.8689 63.1809 31.8959 63.1901 31.915 63.2084C31.9372 63.2241 31.9483 63.2463 31.9483 63.275V63.4044C31.9483 63.4332 31.9324 63.4632 31.9007 63.4946L30.9708 64.3533H31.0471C31.3713 64.3611 31.6273 64.4304 31.8148 64.5611C32.0056 64.6918 32.1009 64.8826 32.1009 65.1336C32.1009 65.3061 32.0485 65.4551 31.9436 65.5805C31.8418 65.7034 31.6988 65.7988 31.5144 65.8668C31.33 65.9321 31.1218 65.9648 30.8897 65.9648Z" stroke="black" stroke-width="0.6"/>
<path d="M37.3831 65.9102C36.973 65.9102 36.6726 65.8122 36.4818 65.6162C36.2943 65.4175 36.1941 65.1587 36.1814 64.8398L36.1766 64.5026L36.1814 64.1537C36.1909 63.8374 36.2911 63.5812 36.4818 63.3852C36.6757 63.1865 36.9762 63.0872 37.3831 63.0872C37.7932 63.0872 38.0936 63.1865 38.2843 63.3852C38.4783 63.5812 38.58 63.8374 38.5895 64.1537C38.5927 64.2269 38.5943 64.3432 38.5943 64.5026C38.5943 64.6569 38.5927 64.7693 38.5895 64.8398C38.5768 65.1587 38.4751 65.4175 38.2843 65.6162C38.0968 65.8122 37.7964 65.9102 37.3831 65.9102ZM37.3831 65.5848C37.6279 65.5848 37.8123 65.5182 37.9362 65.3848C38.0602 65.2515 38.1254 65.0633 38.1317 64.8202C38.1349 64.7444 38.1365 64.6359 38.1365 64.4948C38.1365 64.351 38.1349 64.2438 38.1317 64.1733C38.1254 63.9328 38.0586 63.7459 37.9315 63.6126C37.8075 63.4767 37.6247 63.4087 37.3831 63.4087C37.1415 63.4087 36.9587 63.4767 36.8347 63.6126C36.7107 63.7459 36.6455 63.9328 36.6392 64.1733L36.6344 64.4948L36.6392 64.8202C36.6455 65.0633 36.7107 65.2515 36.8347 65.3848C36.9587 65.5182 37.1415 65.5848 37.3831 65.5848Z" stroke="black" stroke-width="0.6"/>
<path d="M40.2099 65.871C40.1781 65.871 40.1527 65.8632 40.1336 65.8475C40.1146 65.8292 40.105 65.807 40.105 65.7809V63.5694L39.3039 64.0752C39.2817 64.0909 39.2578 64.0988 39.2324 64.0988C39.2038 64.0988 39.1767 64.0857 39.1513 64.0596L39.0369 63.938C39.021 63.9197 39.013 63.9014 39.013 63.8831C39.013 63.8544 39.0289 63.8308 39.0607 63.8125L40.0955 63.1538C40.1305 63.1355 40.1718 63.1264 40.2195 63.1264H40.4436C40.4754 63.1264 40.5008 63.1355 40.5199 63.1538C40.5421 63.1695 40.5533 63.1904 40.5533 63.2166V65.7809C40.5533 65.807 40.5421 65.8292 40.5199 65.8475C40.5008 65.8632 40.4754 65.871 40.4436 65.871H40.2099Z" stroke="black" stroke-width="0.6"/>
<path d="M41.2628 65.871C41.231 65.871 41.204 65.8632 41.1818 65.8475C41.1627 65.8292 41.1532 65.807 41.1532 65.7809V65.6632C41.1532 65.6031 41.1929 65.5456 41.2724 65.4907L42.3119 64.6399C42.5472 64.4752 42.7093 64.3406 42.7983 64.236C42.8873 64.1314 42.9318 64.0204 42.9318 63.9027C42.9318 63.7485 42.8794 63.6283 42.7745 63.542C42.6696 63.4531 42.517 63.4087 42.3167 63.4087C42.1259 63.4087 41.9749 63.4544 41.8637 63.5459C41.7524 63.6374 41.6841 63.7603 41.6586 63.9145C41.6523 63.9432 41.6364 63.9655 41.6109 63.9811C41.5855 63.9968 41.5601 64.0047 41.5346 64.0047H41.3058C41.2771 64.0047 41.2533 63.9968 41.2342 63.9811C41.2152 63.9655 41.2056 63.9472 41.2056 63.9263C41.212 63.7877 41.2565 63.6544 41.3391 63.5263C41.425 63.3956 41.5505 63.2898 41.7159 63.2087C41.8812 63.1251 42.0814 63.0833 42.3167 63.0833C42.6727 63.0833 42.9398 63.1604 43.1178 63.3146C43.299 63.4662 43.3896 63.6596 43.3896 63.8949C43.3896 64.0596 43.3403 64.2086 43.2418 64.3419C43.1464 64.4726 42.9954 64.6111 42.7888 64.7575L41.8494 65.5417H43.3515C43.3864 65.5417 43.4134 65.5495 43.4325 65.5652C43.4516 65.5809 43.4611 65.6031 43.4611 65.6319V65.7809C43.4611 65.807 43.45 65.8292 43.4278 65.8475C43.4087 65.8632 43.3832 65.871 43.3515 65.871H41.2628Z" stroke="black" stroke-width="0.6"/>
<path d="M45.1157 65.9102C44.8678 65.9102 44.6532 65.8776 44.472 65.8122C44.2908 65.7443 44.1525 65.6567 44.0571 65.5495C43.9649 65.4423 43.9157 65.3313 43.9093 65.2162C43.9093 65.1927 43.9188 65.1744 43.9379 65.1613C43.957 65.1457 43.9808 65.1378 44.0094 65.1378H44.224C44.259 65.1378 44.2876 65.1444 44.3099 65.1574C44.3321 65.1679 44.3496 65.1901 44.3623 65.2241C44.4036 65.3574 44.4927 65.4515 44.6293 65.5064C44.7692 65.5613 44.9329 65.5887 45.1205 65.5887C45.3494 65.5887 45.5306 65.5443 45.6641 65.4554C45.8008 65.3639 45.8692 65.2345 45.8692 65.0672C45.8692 64.7483 45.6323 64.5889 45.1587 64.5889H44.7104C44.6786 64.5889 44.6516 64.5811 44.6293 64.5654C44.6103 64.5471 44.6007 64.5248 44.6007 64.4987V64.3968C44.6007 64.3576 44.6182 64.3236 44.6532 64.2948L45.5831 63.4479H44.1716C44.1398 63.4479 44.1128 63.4401 44.0905 63.4244C44.0714 63.4087 44.0619 63.3878 44.0619 63.3616V63.2205C44.0619 63.1917 44.0714 63.1695 44.0905 63.1538C44.1128 63.1355 44.1398 63.1264 44.1716 63.1264H46.0599C46.0949 63.1264 46.1219 63.1355 46.141 63.1538C46.1632 63.1695 46.1744 63.1917 46.1744 63.2205V63.3499C46.1744 63.3786 46.1585 63.4087 46.1267 63.4401L45.1968 64.2987H45.2731C45.5974 64.3066 45.8533 64.3759 46.0408 64.5066C46.2316 64.6373 46.3269 64.8281 46.3269 65.079C46.3269 65.2515 46.2745 65.4005 46.1696 65.526C46.0679 65.6489 45.9248 65.7443 45.7404 65.8122C45.556 65.8776 45.3478 65.9102 45.1157 65.9102Z" stroke="black" stroke-width="0.6"/>
<path d="M51.6091 65.9102C51.199 65.9102 50.8986 65.8122 50.7078 65.6162C50.5203 65.4175 50.4201 65.1587 50.4074 64.8398L50.4027 64.5026L50.4074 64.1537C50.417 63.8374 50.5171 63.5812 50.7078 63.3852C50.9018 63.1865 51.2022 63.0872 51.6091 63.0872C52.0192 63.0872 52.3196 63.1865 52.5104 63.3852C52.7043 63.5812 52.806 63.8374 52.8155 64.1537C52.8187 64.2269 52.8203 64.3432 52.8203 64.5026C52.8203 64.6569 52.8187 64.7693 52.8155 64.8398C52.8028 65.1587 52.7011 65.4175 52.5104 65.6162C52.3228 65.8122 52.0224 65.9102 51.6091 65.9102ZM51.6091 65.5848C51.8539 65.5848 52.0383 65.5182 52.1622 65.3848C52.2862 65.2515 52.3514 65.0633 52.3578 64.8202C52.3609 64.7444 52.3625 64.6359 52.3625 64.4948C52.3625 64.351 52.3609 64.2438 52.3578 64.1733C52.3514 63.9328 52.2846 63.7459 52.1575 63.6126C52.0335 63.4767 51.8507 63.4087 51.6091 63.4087C51.3675 63.4087 51.1847 63.4767 51.0607 63.6126C50.9367 63.7459 50.8716 63.9328 50.8652 64.1733L50.8604 64.4948L50.8652 64.8202C50.8716 65.0633 50.9367 65.2515 51.0607 65.3848C51.1847 65.5182 51.3675 65.5848 51.6091 65.5848Z" stroke="black" stroke-width="0.6"/>
<path d="M54.4359 65.871C54.4042 65.871 54.3787 65.8632 54.3596 65.8475C54.3406 65.8292 54.331 65.807 54.331 65.7809V63.5694L53.5299 64.0752C53.5077 64.0909 53.4838 64.0988 53.4584 64.0988C53.4298 64.0988 53.4028 64.0857 53.3773 64.0596L53.2629 63.938C53.247 63.9197 53.239 63.9014 53.239 63.8831C53.239 63.8544 53.2549 63.8308 53.2867 63.8125L54.3215 63.1538C54.3565 63.1355 54.3978 63.1264 54.4455 63.1264H54.6696C54.7014 63.1264 54.7268 63.1355 54.7459 63.1538C54.7682 63.1695 54.7793 63.1904 54.7793 63.2166V65.7809C54.7793 65.807 54.7682 65.8292 54.7459 65.8475C54.7268 65.8632 54.7014 65.871 54.6696 65.871H54.4359Z" stroke="black" stroke-width="0.6"/>
<path d="M55.4889 65.871C55.4571 65.871 55.43 65.8632 55.4078 65.8475C55.3887 65.8292 55.3792 65.807 55.3792 65.7809V65.6632C55.3792 65.6031 55.4189 65.5456 55.4984 65.4907L56.5379 64.6399C56.7732 64.4752 56.9353 64.3406 57.0243 64.236C57.1133 64.1314 57.1578 64.0204 57.1578 63.9027C57.1578 63.7485 57.1054 63.6283 57.0005 63.542C56.8956 63.4531 56.743 63.4087 56.5427 63.4087C56.352 63.4087 56.201 63.4544 56.0897 63.5459C55.9784 63.6374 55.9101 63.7603 55.8846 63.9145C55.8783 63.9432 55.8624 63.9655 55.837 63.9811C55.8115 63.9968 55.7861 64.0047 55.7607 64.0047H55.5318C55.5032 64.0047 55.4793 63.9968 55.4602 63.9811C55.4412 63.9655 55.4316 63.9472 55.4316 63.9263C55.438 63.7877 55.4825 63.6544 55.5652 63.5263C55.651 63.3956 55.7766 63.2898 55.9419 63.2087C56.1072 63.1251 56.3075 63.0833 56.5427 63.0833C56.8988 63.0833 57.1658 63.1604 57.3438 63.3146C57.525 63.4662 57.6156 63.6596 57.6156 63.8949C57.6156 64.0596 57.5663 64.2086 57.4678 64.3419C57.3724 64.4726 57.2214 64.6111 57.0148 64.7575L56.0754 65.5417H57.5775C57.6124 65.5417 57.6395 65.5495 57.6585 65.5652C57.6776 65.5809 57.6871 65.6031 57.6871 65.6319V65.7809C57.6871 65.807 57.676 65.8292 57.6538 65.8475C57.6347 65.8632 57.6093 65.871 57.5775 65.871H55.4889Z" stroke="black" stroke-width="0.6"/>
<path d="M59.3418 65.9102C59.0938 65.9102 58.8792 65.8776 58.698 65.8122C58.5168 65.7443 58.3785 65.6567 58.2831 65.5495C58.191 65.4423 58.1417 65.3313 58.1353 65.2162C58.1353 65.1927 58.1449 65.1744 58.1639 65.1613C58.183 65.1457 58.2068 65.1378 58.2355 65.1378H58.45C58.485 65.1378 58.5136 65.1444 58.5359 65.1574C58.5581 65.1679 58.5756 65.1901 58.5883 65.2241C58.6297 65.3574 58.7187 65.4515 58.8554 65.5064C58.9952 65.5613 59.159 65.5887 59.3465 65.5887C59.5754 65.5887 59.7566 65.5443 59.8901 65.4554C60.0268 65.3639 60.0952 65.2345 60.0952 65.0672C60.0952 64.7483 59.8583 64.5889 59.3847 64.5889H58.9364C58.9046 64.5889 58.8776 64.5811 58.8554 64.5654C58.8363 64.5471 58.8268 64.5248 58.8268 64.4987V64.3968C58.8268 64.3576 58.8442 64.3236 58.8792 64.2948L59.8091 63.4479H58.3976C58.3658 63.4479 58.3388 63.4401 58.3165 63.4244C58.2974 63.4087 58.2879 63.3878 58.2879 63.3616V63.2205C58.2879 63.1917 58.2974 63.1695 58.3165 63.1538C58.3388 63.1355 58.3658 63.1264 58.3976 63.1264H60.2859C60.3209 63.1264 60.3479 63.1355 60.367 63.1538C60.3892 63.1695 60.4004 63.1917 60.4004 63.2205V63.3499C60.4004 63.3786 60.3845 63.4087 60.3527 63.4401L59.4228 64.2987H59.4991C59.8234 64.3066 60.0793 64.3759 60.2668 64.5066C60.4576 64.6373 60.553 64.8281 60.553 65.079C60.553 65.2515 60.5005 65.4005 60.3956 65.526C60.2939 65.6489 60.1508 65.7443 59.9664 65.8122C59.7821 65.8776 59.5738 65.9102 59.3418 65.9102Z" stroke="black" stroke-width="0.6"/>
<path d="M57.8651 49.0694C59.5877 49.0694 60.9412 47.7149 60.9412 45.991C60.9412 44.2671 59.5877 42.9126 57.8651 42.9126C56.1425 42.9126 54.7891 44.2671 54.7891 45.991C54.7891 47.7149 56.1425 49.0694 57.8651 49.0694Z" fill="#FFDA54"/>
<path d="M54.0233 49.0694C55.7459 49.0694 57.0994 47.7149 57.0994 45.991C57.0994 44.2671 55.7459 42.9126 54.0233 42.9126C52.3007 42.9126 50.9473 44.2671 50.9473 45.991C50.9473 47.7149 52.3007 49.0694 54.0233 49.0694Z" fill="black"/>
</svg>
