<svg width="91" height="85" viewBox="0 0 91 85" fill="none" xmlns="http://www.w3.org/2000/svg">
<ellipse cx="45.5002" cy="21.5442" rx="21.0099" ry="20.688" fill="white"/>
<ellipse cx="68.7443" cy="62.9202" rx="21.0099" ry="20.688" fill="white"/>
<ellipse cx="21.3615" cy="62.9202" rx="21.0099" ry="20.688" fill="white"/>
<path d="M28.1016 62.5321C28.0492 58.8312 30.5123 57.7887 30.5123 57.7887L29.569 56.7462C29.4117 56.642 28.8877 56.225 28.1016 55.9122C27.9444 55.8601 27.3679 55.6516 26.5294 55.5473C25.8481 55.4952 25.324 55.5473 25.2192 55.5995C24.7999 55.6516 24.5379 55.7558 24.0662 55.9122C23.1229 56.225 23.0705 56.3813 22.5464 56.4856C21.9176 56.5898 21.4459 56.5377 21.1315 56.4856C20.3454 56.3292 20.2405 56.1207 19.3496 55.8601C18.9828 55.7558 18.5111 55.6516 17.8298 55.6516C16.8341 55.6516 16.1004 56.0165 15.7336 56.225C15.5239 56.3292 14.633 56.7983 13.8993 57.7366C13.0084 58.8312 12.7464 59.9259 12.6416 60.5514C12.4319 61.5939 12.4843 62.3758 12.4843 63.2619C12.5367 63.8353 12.6416 65.1384 13.1656 66.7022C13.7421 68.4745 14.5282 69.6734 14.6854 69.934C15.1571 70.6637 15.5763 71.0807 16.3624 71.9147C16.8865 72.4881 17.1485 72.6966 17.5678 72.853C18.2491 73.1136 18.878 73.0094 19.0352 73.0094C19.14 73.0094 19.2448 72.9573 20.1357 72.5924C21.1839 72.1754 21.3411 72.1232 21.6031 72.0711C22.1272 72.019 22.494 72.0711 22.7037 72.0711C23.1229 72.1232 23.4374 72.2275 23.7518 72.3317C24.4855 72.5924 24.5379 72.7488 25.062 72.853C25.6385 73.0094 26.1101 72.9573 26.2673 72.9051C26.477 72.853 26.8962 72.8009 27.3679 72.5403C27.7871 72.3318 27.9968 72.019 28.154 71.8626C28.8877 71.0286 29.2545 70.5595 29.7786 69.7776C30.093 69.3085 31.1412 66.8586 31.1412 66.8586C31.1412 66.8586 28.154 65.5554 28.1016 62.5321ZM25.324 53.4623C26.6866 51.8464 26.3721 49.9699 26.3721 49.9699C26.3721 49.9699 24.4855 49.8657 23.0181 51.6379C21.3935 53.5666 21.7079 55.2346 21.7079 55.2346C21.7079 55.2346 23.5422 55.4952 25.324 53.4623Z" stroke="#010101" stroke-width="2" stroke-miterlimit="10" stroke-linecap="round"/>
<path d="M35.7514 48.4062C40.1012 52.5242 42.6167 58.5186 42.0403 64.93C41.0445 76.0849 31.1396 84.2686 19.9246 83.2782C17.8807 83.0697 15.8893 82.6006 14.1074 81.8708" stroke="#010101" stroke-width="2" stroke-miterlimit="10" stroke-linecap="round"/>
<path d="M8.23848 78.2221C3.57428 74.1042 0.901525 67.9013 1.478 61.2292C2.47373 50.0743 12.3786 41.8906 23.5937 42.881C28.3627 43.298 32.5553 45.3309 35.7521 48.3542" stroke="#010101" stroke-width="2" stroke-miterlimit="10" stroke-linecap="round"/>
<path d="M61.3801 34.2801C57.6592 38.9714 51.8945 41.9946 45.396 41.9946C34.1286 41.9946 25.0098 32.9248 25.0098 21.7178C25.0098 19.6849 25.3242 17.7042 25.9007 15.8276" stroke="#010101" stroke-width="2" stroke-miterlimit="10" stroke-linecap="round"/>
<path d="M28.9922 9.67699C32.7131 4.67294 38.635 1.44116 45.3955 1.44116C56.663 1.44116 65.7818 10.511 65.7818 21.718C65.7818 26.4614 64.1572 30.8399 61.3796 34.2802" stroke="#010101" stroke-width="2" stroke-miterlimit="10" stroke-linecap="round"/>
<path d="M45.3961 41.9948C50.9533 41.9948 55.4582 32.9166 55.4582 21.718C55.4582 10.5194 50.9533 1.44116 45.3961 1.44116C39.839 1.44116 35.334 10.5194 35.334 21.718C35.334 32.9166 39.839 41.9948 45.3961 41.9948Z" stroke="#010101" stroke-width="2" stroke-miterlimit="10" stroke-linecap="round"/>
<path d="M31.8223 36.8343C31.8223 33.9674 37.9015 31.6738 45.3956 31.6738C52.8898 31.6738 58.969 33.9674 58.969 36.8343" stroke="#010101" stroke-width="2" stroke-miterlimit="10" stroke-linecap="round"/>
<path d="M58.969 6.60156C58.969 9.46846 52.8898 11.762 45.3956 11.762C37.9015 11.762 31.8223 9.46846 31.8223 6.60156" stroke="#010101" stroke-width="2" stroke-miterlimit="10" stroke-linecap="round"/>
<path d="M51.5276 21.0405L48.0687 17.6002C47.9115 17.4438 47.5971 17.4438 47.4399 17.6002L45.396 19.6331L43.3521 17.6002C43.1949 17.4438 42.8805 17.4438 42.7232 17.6002L39.2644 21.0405C39.1072 21.1968 39.1072 21.5096 39.2644 21.666L45.0816 27.4519C45.2388 27.6083 45.5532 27.6083 45.7104 27.4519L49.1693 24.0116L51.5276 21.666C51.7372 21.4575 51.7372 21.1968 51.5276 21.0405Z" fill="#FFDA54"/>
<path d="M48.5926 63.1056C48.5402 57.1111 51.1081 51.1688 56.1916 47.1031C64.9435 40.0661 77.7832 41.4214 84.8057 50.1263C86.1159 51.7422 87.1116 53.4624 87.8453 55.2867" stroke="#010101" stroke-width="2" stroke-miterlimit="10" stroke-linecap="round"/>
<path d="M89.3123 62.011C89.5743 68.2139 87.0064 74.469 81.7657 78.639C73.0137 85.676 60.174 84.3207 53.1515 75.6158C50.1643 71.9148 48.6969 67.5363 48.6445 63.1056" stroke="#010101" stroke-width="2" stroke-miterlimit="10" stroke-linecap="round"/>
<path d="M80.0374 61.6982L64.4726 52.7326C63.372 52.1071 61.957 52.889 61.957 54.1921V72.0712C61.957 73.3743 63.372 74.1562 64.4726 73.5307L80.0374 64.5651C81.1903 63.9396 81.1903 62.3237 80.0374 61.6982Z" stroke="#010101" stroke-width="2" stroke-miterlimit="10" stroke-linecap="round"/>
<path d="M62.6895 73.0094L76.158 59.4568" stroke="#010101" stroke-width="2" stroke-miterlimit="10" stroke-linecap="round"/>
<path d="M62.7422 53.2019L76.2107 66.7024" stroke="#010101" stroke-width="2" stroke-miterlimit="10" stroke-linecap="round"/>
</svg>
