<svg width="95" height="92" viewBox="0 0 95 92" fill="none" xmlns="http://www.w3.org/2000/svg">
<path d="M47.4475 48.63C60.3281 48.63 70.7699 38.1371 70.7699 25.1934C70.7699 12.2497 60.3281 1.75684 47.4475 1.75684C34.5668 1.75684 24.125 12.2497 24.125 25.1934C24.125 38.1371 34.5668 48.63 47.4475 48.63Z" fill="white" stroke="#010101" stroke-width="2" stroke-miterlimit="10" stroke-linecap="round"/>
<path d="M93.0196 90.4081C90.8723 66.9715 71.3077 48.6299 47.3887 48.6299C23.5294 48.6299 3.90515 66.9715 1.75781 90.4081" stroke="#010101" stroke-width="2" stroke-miterlimit="10" stroke-linecap="round"/>
<path d="M77.5716 90.4081H93.0802C90.9328 66.9715 71.3682 48.6299 47.4493 48.6299C23.59 48.6299 3.9657 66.9715 1.81836 90.4081H65.5227" fill="white"/>
<path d="M77.5716 90.4081H93.0802C90.9328 66.9715 71.3682 48.6299 47.4493 48.6299C23.59 48.6299 3.9657 66.9715 1.81836 90.4081H65.5227" stroke="#010101" stroke-width="2" stroke-miterlimit="10" stroke-linecap="round"/>
<path d="M47.1506 48.6299C35.221 48.6299 24.4247 53.3052 16.3125 60.9176C26.2141 64.6938 36.9508 66.7917 48.1647 66.7917C58.8417 66.7917 69.0415 64.8736 78.5256 61.4571C70.3538 53.545 59.3189 48.6299 47.1506 48.6299Z" stroke="#010101" stroke-width="2" stroke-miterlimit="10" stroke-linecap="round"/>
<path d="M40.5879 49.0496L48.2229 65.593L54.2473 48.9297" stroke="#010101" stroke-width="2" stroke-miterlimit="10" stroke-linecap="round"/>
<path d="M48.6411 81.8969C50.4859 81.8969 51.9814 80.3941 51.9814 78.5402C51.9814 76.6864 50.4859 75.1836 48.6411 75.1836C46.7963 75.1836 45.3008 76.6864 45.3008 78.5402C45.3008 80.3941 46.7963 81.8969 48.6411 81.8969Z" fill="#FFDA54"/>
<path d="M38.084 35.6826C40.3506 38.2001 43.5716 39.7585 47.2102 39.7585C50.8487 39.7585 54.0697 38.2001 56.3363 35.6826" stroke="#010101" stroke-width="2" stroke-miterlimit="10" stroke-linecap="round"/>
<path d="M61.4661 32.0868C67.7912 32.0868 72.9186 26.9343 72.9186 20.5783C72.9186 14.2224 67.7912 9.06982 61.4661 9.06982C55.1411 9.06982 50.0137 14.2224 50.0137 20.5783C50.0137 26.9343 55.1411 32.0868 61.4661 32.0868Z" stroke="#010101" stroke-width="2" stroke-miterlimit="10" stroke-linecap="round"/>
<path d="M32.8353 32.0868C39.1603 32.0868 44.2877 26.9343 44.2877 20.5783C44.2877 14.2224 39.1603 9.06982 32.8353 9.06982C26.5103 9.06982 21.3828 14.2224 21.3828 20.5783C21.3828 26.9343 26.5103 32.0868 32.8353 32.0868Z" stroke="#010101" stroke-width="2" stroke-miterlimit="10" stroke-linecap="round"/>
<path d="M24.1259 25.7329C21.9189 26.8118 20.4277 29.0296 20.4277 31.5471V35.2634C20.4277 38.9197 23.4698 41.8568 27.2276 41.8568H39.3959" stroke="#010101" stroke-width="2" stroke-miterlimit="10" stroke-linecap="round"/>
<path d="M37.8455 43.3551H40.5893C41.3051 43.3551 41.9015 42.7557 41.9015 42.0365C41.9015 41.3172 41.3051 40.7178 40.5893 40.7178H37.8455C37.1297 40.7178 36.5332 41.3172 36.5332 42.0365C36.5332 42.7557 37.1297 43.3551 37.8455 43.3551Z" stroke="#010101" stroke-width="3" stroke-miterlimit="10" stroke-linecap="round"/>
<path d="M44.4062 22.7958C45.2413 22.616 46.0764 22.4961 46.9115 22.4961C48.0448 22.4961 49.1781 22.6759 50.2518 22.9756" stroke="#010101" stroke-width="2" stroke-miterlimit="10" stroke-linecap="round"/>
<path d="M39.8004 23.9897C41.1259 23.9897 42.2004 22.9093 42.2004 21.5766C42.2004 20.2439 41.1259 19.1636 39.8004 19.1636C38.4749 19.1636 37.4004 20.2439 37.4004 21.5766C37.4004 22.9093 38.4749 23.9897 39.8004 23.9897Z" fill="#010101"/>
<path d="M54.2008 23.9897C55.5263 23.9897 56.6008 22.9093 56.6008 21.5766C56.6008 20.2439 55.5263 19.1636 54.2008 19.1636C52.8753 19.1636 51.8008 20.2439 51.8008 21.5766C51.8008 22.9093 52.8753 23.9897 54.2008 23.9897Z" fill="#010101"/>
</svg>
