<svg width="42" height="42" viewBox="0 0 42 42" fill="none" xmlns="http://www.w3.org/2000/svg">
<path d="M21 0L23.1056 4.33247L26.2225 0.659754L27.1845 5.37976L31.1168 2.59756L30.8748 7.40851L35.3755 5.69166L33.9446 10.2913L38.7309 9.74764L36.2011 13.8469L40.9722 14.5106L37.5024 17.852L41.9586 19.6814L37.7668 22.0549L41.628 24.935L36.9777 26.1915L40.0014 29.9414L35.1847 30.0019L37.1808 34.3859L32.5004 33.2467L33.3435 37.9894L29.0935 35.722L28.7306 40.5253L25.178 37.2722L23.632 41.8344L21 37.8L18.368 41.8344L16.822 37.2722L13.2694 40.5253L12.9065 35.722L8.65651 37.9894L9.49961 33.2467L4.81922 34.3859L6.81529 30.0019L1.99863 29.9414L5.02225 26.1915L0.371967 24.935L4.23315 22.0549L0.0414391 19.6814L4.49757 17.852L1.02781 14.5106L5.79891 13.8469L3.26911 9.74764L8.05538 10.2913L6.62451 5.69166L11.1252 7.40851L10.8832 2.59756L14.8155 5.37976L15.7775 0.659754L18.8944 4.33247L21 0Z" fill="#FFDE52"/>
<path d="M18.729 23.664C18.531 23.664 18.36 23.592 18.216 23.448C18.072 23.304 18 23.133 18 22.935V12.729C18 12.531 18.072 12.36 18.216 12.216C18.36 12.072 18.531 12 18.729 12H23.427C23.625 12 23.796 12.072 23.94 12.216C24.084 12.36 24.156 12.531 24.156 12.729V22.935C24.156 23.133 24.084 23.304 23.94 23.448C23.796 23.592 23.625 23.664 23.427 23.664H18.729ZM18.729 30.9C18.531 30.9 18.36 30.828 18.216 30.684C18.072 30.54 18 30.369 18 30.171V25.473C18 25.275 18.072 25.104 18.216 24.96C18.36 24.816 18.531 24.744 18.729 24.744H23.427C23.625 24.744 23.796 24.816 23.94 24.96C24.084 25.104 24.156 25.275 24.156 25.473V30.171C24.156 30.369 24.084 30.54 23.94 30.684C23.796 30.828 23.625 30.9 23.427 30.9H18.729Z" fill="white"/>
</svg>
