<svg width="40" height="40" viewBox="0 0 40 40" fill="none" xmlns="http://www.w3.org/2000/svg">
<path d="M20 7.0375C20.586 7.0375 21.1663 7.15293 21.7077 7.37719C22.2491 7.60145 22.7411 7.93015 23.1555 8.34454C23.5698 8.75892 23.8986 9.25086 24.1228 9.79228C24.3471 10.3337 24.4625 10.914 24.4625 11.5C24.4625 12.086 24.3471 12.6663 24.1228 13.2077C23.8986 13.7491 23.5698 14.2411 23.1555 14.6555C22.7411 15.0698 22.2491 15.3986 21.7077 15.6228C21.1663 15.8471 20.586 15.9625 20 15.9625C18.8165 15.9625 17.6814 15.4923 16.8445 14.6555C16.0077 13.8186 15.5375 12.6835 15.5375 11.5C15.5375 10.3165 16.0077 9.18142 16.8445 8.34454C17.6814 7.50765 18.8165 7.0375 20 7.0375ZM20 26.1625C26.3113 26.1625 32.9625 29.265 32.9625 30.625V32.9625H7.0375V30.625C7.0375 29.265 13.6888 26.1625 20 26.1625ZM20 3C15.3038 3 11.5 6.80375 11.5 11.5C11.5 16.1962 15.3038 20 20 20C24.6963 20 28.5 16.1962 28.5 11.5C28.5 6.80375 24.6963 3 20 3ZM20 22.125C14.3263 22.125 3 24.9725 3 30.625V34.875C3 36.0438 3.95625 37 5.125 37H34.875C36.0438 37 37 36.0438 37 34.875V30.625C37 24.9725 25.6737 22.125 20 22.125Z" fill="white"/>
</svg>
