<svg width="25" height="25" viewBox="0 0 25 25" fill="none" xmlns="http://www.w3.org/2000/svg">
<g clip-path="url(#clip0)">
<path d="M16.3086 2.35449V8.35449H22.3086" stroke="black" stroke-width="2" stroke-linecap="round" stroke-linejoin="round"/>
<path d="M23.3086 1.35449L16.3086 8.35449" stroke="black" stroke-width="2" stroke-linecap="round" stroke-linejoin="round"/>
<path d="M22.31 17.2746V20.2746C22.3111 20.5531 22.2541 20.8288 22.1425 21.0839C22.0309 21.3391 21.8673 21.5682 21.6621 21.7565C21.4568 21.9447 21.2146 22.0881 20.9507 22.1773C20.6869 22.2665 20.4074 22.2997 20.13 22.2746C17.0528 21.9402 14.097 20.8887 11.5 19.2046C9.08382 17.6693 7.03533 15.6208 5.49999 13.2046C3.80997 10.5958 2.75823 7.62558 2.42999 4.53459C2.405 4.25806 2.43787 3.97935 2.52649 3.71621C2.61512 3.45308 2.75756 3.21128 2.94476 3.00621C3.13195 2.80114 3.3598 2.6373 3.61378 2.52511C3.86777 2.41292 4.14233 2.35485 4.41999 2.35459H7.41999C7.9053 2.34981 8.37578 2.52167 8.74375 2.83812C9.11172 3.15458 9.35207 3.59404 9.41999 4.07459C9.54661 5.03466 9.78144 5.97732 10.12 6.88459C10.2545 7.24251 10.2837 7.6315 10.2039 8.00547C10.1241 8.37943 9.93885 8.7227 9.66999 8.99459L8.39999 10.2646C9.82355 12.7681 11.8964 14.841 14.4 16.2646L15.67 14.9946C15.9419 14.7257 16.2851 14.5404 16.6591 14.4607C17.0331 14.3809 17.4221 14.41 17.78 14.5446C18.6873 14.8831 19.6299 15.118 20.59 15.2446C21.0758 15.3131 21.5194 15.5578 21.8365 15.9321C22.1537 16.3064 22.3222 16.7842 22.31 17.2746Z" stroke="black" stroke-width="2" stroke-linecap="round" stroke-linejoin="round"/>
</g>
<defs>
<clipPath id="clip0">
<rect width="24" height="24" fill="white" transform="translate(0.308594 0.354492)"/>
</clipPath>
</defs>
</svg>
