<svg width="25" height="25" viewBox="0 0 25 25" fill="none" xmlns="http://www.w3.org/2000/svg">
<rect x="6.65" y="5.65" width="11.7" height="13.7" rx="2.35" stroke="#1D2431" stroke-width="1.3"/>
<path d="M10 9L15 9" stroke="#1D2431" stroke-width="1.3" stroke-linecap="round" stroke-linejoin="round"/>
<path fill-rule="evenodd" clip-rule="evenodd" d="M9.7 13.4C10.0866 13.4 10.4 13.0866 10.4 12.7C10.4 12.3134 10.0866 12 9.7 12C9.3134 12 9 12.3134 9 12.7C9 13.0866 9.3134 13.4 9.7 13.4ZM12.5 13.4C12.8866 13.4 13.2 13.0866 13.2 12.7C13.2 12.3134 12.8866 12 12.5 12C12.1134 12 11.8 12.3134 11.8 12.7C11.8 13.0866 12.1134 13.4 12.5 13.4ZM16 12.7C16 13.0866 15.6866 13.4 15.3 13.4C14.9134 13.4 14.6 13.0866 14.6 12.7C14.6 12.3134 14.9134 12 15.3 12C15.6866 12 16 12.3134 16 12.7ZM9.7 16.2C10.0866 16.2 10.4 15.8866 10.4 15.5C10.4 15.1134 10.0866 14.8 9.7 14.8C9.3134 14.8 9 15.1134 9 15.5C9 15.8866 9.3134 16.2 9.7 16.2ZM13.2 15.5C13.2 15.8866 12.8866 16.2 12.5 16.2C12.1134 16.2 11.8 15.8866 11.8 15.5C11.8 15.1134 12.1134 14.8 12.5 14.8C12.8866 14.8 13.2 15.1134 13.2 15.5ZM15.3 16.2C15.6866 16.2 16 15.8866 16 15.5C16 15.1134 15.6866 14.8 15.3 14.8C14.9134 14.8 14.6 15.1134 14.6 15.5C14.6 15.8866 14.9134 16.2 15.3 16.2Z" fill="#1D2431"/>
</svg>
