<svg width="25" height="25" viewBox="0 0 25 25" fill="none" xmlns="http://www.w3.org/2000/svg">
<path fill-rule="evenodd" clip-rule="evenodd" d="M7.5 5.625H14.375V8.125H16.875C18.2557 8.125 19.375 9.24429 19.375 10.625V16.875C19.375 18.2557 18.2557 19.375 16.875 19.375H13.625C13.3074 19.375 13.05 19.0952 13.05 18.75C13.05 18.4048 13.3074 18.125 13.625 18.125H16.875C17.5654 18.125 18.125 17.5654 18.125 16.875V10.625C18.125 9.93464 17.5654 9.375 16.875 9.375H6.25V16.875C6.25 17.5654 6.80964 18.125 7.5 18.125H8.45001C8.76756 18.125 9.02498 18.4048 9.02498 18.75C9.02498 19.0952 8.76753 19.375 8.44998 19.375H7.5C6.11929 19.375 5 18.2557 5 16.875V8.125C5 6.74429 6.11929 5.625 7.5 5.625ZM6.25 8.125C6.25 7.43464 6.80964 6.875 7.5 6.875H13.125V8.125H6.25ZM11 14.85C11.359 14.85 11.65 15.141 11.65 15.5V21.35H17.2592L16.9546 21.0454C16.7008 20.7916 16.7008 20.38 16.9546 20.1262C17.2084 19.8723 17.62 19.8723 17.8738 20.1262L19.288 21.5404C19.5419 21.7942 19.5419 22.2058 19.288 22.4596L17.8738 23.8738C17.62 24.1277 17.2084 24.1277 16.9546 23.8738C16.7008 23.62 16.7008 23.2084 16.9546 22.9546L17.2592 22.65H11C10.641 22.65 10.35 22.359 10.35 22V15.5C10.35 15.141 10.641 14.85 11 14.85Z" fill="#1D2431"/>
</svg>
