<svg width="20" height="21" viewBox="0 0 20 21" fill="none" xmlns="http://www.w3.org/2000/svg">
<path d="M0.807622 19.5772C0.221836 18.9914 0.221836 18.0416 0.807622 17.4558L17.0711 1.19238C17.6569 0.606592 18.6066 0.606591 19.1924 1.19238C19.7782 1.77816 19.7782 2.72791 19.1924 3.3137L2.92894 19.5772C2.34316 20.1629 1.39341 20.1629 0.807622 19.5772Z" fill="#686D81"/>
<path d="M19.1924 19.5772C18.6066 20.1629 17.6569 20.1629 17.0711 19.5772L0.807622 3.3137C0.221836 2.72791 0.221836 1.77816 0.807622 1.19238C1.39341 0.606591 2.34316 0.606591 2.92894 1.19238L19.1924 17.4558C19.7782 18.0416 19.7782 18.9914 19.1924 19.5772Z" fill="#686D81"/>
</svg>
