<svg width="36" height="35" viewBox="0 0 36 35" fill="none" xmlns="http://www.w3.org/2000/svg">
<path d="M29.7608 5.66515L29.7619 5.66552C29.9383 5.72718 30.0912 5.85542 30.1985 6.00723C30.3054 6.15852 30.3755 6.3451 30.3717 6.53337V23.02C30.3717 23.201 30.3147 23.3989 30.2296 23.5733C30.1445 23.7476 30.0241 23.9133 29.8835 24.0234L29.8832 24.0236L18.1026 33.2034C18.1023 33.2036 18.1021 33.2038 18.1019 33.2039C17.9551 33.3202 17.7637 33.3761 17.5786 33.3761C17.392 33.3761 17.205 33.3194 17.0563 33.2047L17.0557 33.2043L5.27401 24.0236L5.27271 24.0226C5.13281 23.911 5.01266 23.745 4.92763 23.5707C4.84266 23.3966 4.78555 23.1996 4.78555 23.02V6.53174C4.78555 6.34435 4.85706 6.15737 4.96497 6.00561C5.0728 5.85396 5.22579 5.72509 5.40347 5.66508C5.40355 5.66505 5.40363 5.66503 5.40371 5.665L17.0174 1.70717C17.0175 1.70717 17.0175 1.70716 17.0175 1.70716L29.7608 5.66515ZM29.7608 5.66515L18.1466 1.70717M29.7608 5.66515L18.1466 1.70717M18.1466 1.70717C18.1466 1.70716 18.1465 1.70714 18.1465 1.70714L18.1466 1.70717ZM14.0188 15.4055L14.0185 15.4051C13.8881 15.2269 13.6794 15.1181 13.4531 15.1181H11.5664C11.2217 15.1181 11.0215 15.5094 11.2223 15.7896L11.2229 15.7903L15.5432 21.7376L15.5434 21.7379C15.6084 21.8269 15.6935 21.8993 15.7918 21.9492C15.89 21.9991 15.9987 22.0251 16.1089 22.0251C16.2191 22.0251 16.3277 21.9991 16.426 21.9492C16.5242 21.8993 16.6093 21.8269 16.6743 21.7379L16.6746 21.7376L23.9412 11.7332L23.9417 11.7324C24.1426 11.4523 23.9423 11.0609 23.5977 11.0609H21.7109C21.4886 11.0609 21.2762 11.1693 21.1455 11.3479L21.1452 11.3484L16.1089 18.2838L14.0188 15.4055ZM27.6176 7.85587V22.2905L17.582 30.1101L7.54648 22.2905V7.85587L17.582 4.43436L27.6176 7.85587Z" fill="#1D2431" stroke="#1D2431" stroke-width="0.3"/>
</svg>
