<svg width="36" height="35" viewBox="0 0 36 35" fill="none" xmlns="http://www.w3.org/2000/svg">
<path d="M18.0824 29.1665C21.1766 29.1665 24.144 27.9373 26.3319 25.7494C28.5199 23.5615 29.749 20.594 29.749 17.4998C29.749 14.4056 28.5199 11.4382 26.3319 9.25026C24.144 7.06234 21.1766 5.83317 18.0824 5.83317C14.9882 5.83317 12.0207 7.06234 9.83278 9.25026C7.64485 11.4382 6.41569 14.4056 6.41569 17.4998C6.41569 20.594 7.64485 23.5615 9.83278 25.7494C12.0207 27.9373 14.9882 29.1665 18.0824 29.1665ZM18.0824 32.0832C10.028 32.0832 3.49902 25.5542 3.49902 17.4998C3.49902 9.44546 10.028 2.9165 18.0824 2.9165C26.1367 2.9165 32.6657 9.44546 32.6657 17.4998C32.6657 25.5542 26.1367 32.0832 18.0824 32.0832ZM16.624 16.0415V24.7915H19.5407V16.0415H16.624ZM16.624 10.2082H19.5407V13.1248H16.624V10.2082Z" fill="#1D2431"/>
</svg>
