<svg width="17" height="17" viewBox="0 0 17 17" fill="none" xmlns="http://www.w3.org/2000/svg">
<path d="M8.5 7C7.67292 7 7 7.67292 7 8.5C7 9.32708 7.67292 10 8.5 10C9.32708 10 10 9.32708 10 8.5C10 7.67292 9.32708 7 8.5 7ZM8.5 9C7.94858 9 9 9.5514 9 9C9 8.4486 7.9486 9 8.5 9C9.0514 9 8 8.4486 8 9C8 9.5514 9.05142 9 8.5 9Z" fill="#1D2431"/>
<path d="M2.5 14.5L14.5 2.5" stroke="#1D2431" stroke-width="1.2" stroke-linecap="round" stroke-linejoin="round"/>
<path fill-rule="evenodd" clip-rule="evenodd" d="M10.9167 6.16409C10.3048 5.53125 9.44749 5.13721 8.49986 5.13721C6.64573 5.13721 5.13721 6.64573 5.13721 8.49986C5.13721 9.44749 5.53126 10.3048 6.1641 10.9167L6.95647 10.1243C6.52653 9.7156 6.25811 9.13849 6.25811 8.49986C6.25811 7.26374 7.26374 6.25811 8.49986 6.25811C9.13849 6.25811 9.7156 6.52653 10.1243 6.95647L10.9167 6.16409ZM8.19789 10.7213C8.29667 10.7347 8.39748 10.7416 8.49986 10.7416C9.73602 10.7416 10.7416 9.73598 10.7416 8.49986C10.7416 8.39747 10.7347 8.29667 10.7214 8.19788L11.6352 7.28408C11.7819 7.66131 11.8625 8.07136 11.8625 8.49986C11.8625 10.354 10.354 11.8625 8.49986 11.8625C8.07136 11.8625 7.66131 11.7819 7.28408 11.6352L8.19789 10.7213Z" fill="#1D2431"/>
<path fill-rule="evenodd" clip-rule="evenodd" d="M12.7145 4.36627C11.484 3.63014 10.0482 3.08252 8.49992 3.08252C3.87833 3.08252 0.259583 7.96169 0.107877 8.16925C-0.0359591 8.36634 -0.0359591 8.63366 0.107877 8.83076C0.21015 8.97081 1.88813 11.2339 4.38681 12.6939L5.21355 11.8672C3.31224 10.8262 1.84681 9.19411 1.27434 8.49972C2.14602 7.44011 5.08832 4.20339 8.49992 4.20339C9.71218 4.20339 10.8666 4.61401 11.8901 5.19062L12.7145 4.36627ZM6.4824 12.4368C7.1266 12.6614 7.80373 12.7968 8.49992 12.7968C11.9115 12.7968 14.8538 9.56006 15.7255 8.50048C15.2825 7.96311 14.3055 6.86503 13.0058 5.91346L13.8128 5.10641C15.6368 6.47459 16.807 8.05321 16.892 8.16945C17.036 8.36634 17.036 8.63386 16.892 8.83092C16.7401 9.03847 13.1215 13.9177 8.49992 13.9177C7.47963 13.9177 6.50822 13.6799 5.61219 13.307L6.4824 12.4368Z" fill="#1D2431"/>
</svg>
