<svg width="38" height="36" viewBox="0 0 38 36" fill="none" xmlns="http://www.w3.org/2000/svg">
<path d="M26.3721 31.127C26.3721 30.7918 26.1124 30.5684 25.8156 30.5684H24.7769V25.2431C24.7769 25.0941 24.6656 24.9824 24.5172 24.9824H13.3881C13.2397 24.9824 13.1284 25.0941 13.1284 25.2431V30.5312H12.1268C11.7929 30.5312 11.5703 30.7918 11.5703 31.0897C11.5703 31.0897 11.5703 31.0897 11.5703 31.127V31.6856H12.1268C12.1268 31.6856 12.1268 31.6856 12.1639 31.6856H25.7785C25.7785 31.6856 25.7785 31.6856 25.8156 31.6856H26.3721V31.2015V31.127Z" stroke="#010101" stroke-width="1.3" stroke-miterlimit="10" stroke-linecap="round"/>
<path d="M5.97102 1.1123H36.7617V23.6424" fill="white"/>
<path d="M36.873 14.4814V27.7015C36.873 28.2229 36.4649 28.6697 35.9084 28.6697H1.96453C1.44517 28.6697 1 28.2601 1 27.7015V2.08054C1 1.55918 1.40807 1.1123 1.96453 1.1123H22.1083" fill="white"/>
<path d="M36.873 25.9885V27.7015C36.873 28.2229 36.4649 28.6697 35.9084 28.6697H1.96453C1.44517 28.6697 1 28.2601 1 27.7015V2.08054C1 1.55918 1.40807 1.1123 1.96453 1.1123H12.2775" stroke="#010101" stroke-width="1.3" stroke-miterlimit="10" stroke-linecap="round"/>
<path d="M15.8008 1H35.9445C36.501 1 36.9091 1.44688 36.9091 1.96823V22.1894" stroke="#010101" stroke-width="1.3" stroke-miterlimit="10" stroke-linecap="round"/>
<path d="M26.0042 23.6412H3.15234V3.12207H13.7992" stroke="#010101" stroke-width="1.3" stroke-miterlimit="10" stroke-linecap="round"/>
<path d="M34.7988 23.6787H28.7891" stroke="#010101" stroke-width="1.3" stroke-miterlimit="10" stroke-linecap="round"/>
<path d="M17.5469 3.12207H34.7971V23.604" stroke="#010101" stroke-width="1.3" stroke-miterlimit="10" stroke-linecap="round"/>
<path d="M18.6947 34.9996H6.41559C5.71074 34.9996 5.11719 34.441 5.11719 33.7707V10.682C5.11719 10.0117 5.67364 9.45312 6.41559 9.45312H18.6947C19.3996 9.45312 19.9931 10.0117 19.9931 10.682V33.7707C19.9931 34.441 19.3996 34.9996 18.6947 34.9996Z" fill="white" stroke="#010101" stroke-width="1.3" stroke-miterlimit="10" stroke-linecap="round"/>
<path d="M12.4625 33.1756C13.1302 33.1756 13.6867 32.617 13.6867 31.9467C13.6867 31.2764 13.1302 30.7178 12.4625 30.7178C11.7947 30.7178 11.2383 31.2764 11.2383 31.9467C11.2383 32.617 11.7947 33.1756 12.4625 33.1756Z" stroke="#010101" stroke-width="1.3" stroke-miterlimit="10" stroke-linecap="round"/>
<path d="M12.9063 11.6133H7.00781V28.9298H17.9144V11.6133H17.8773H16.6531" fill="white"/>
<path d="M12.9063 11.6133H7.00781V28.9298H17.9144V11.6133H17.8773H16.6531" stroke="#010101" stroke-width="1.3" stroke-miterlimit="10" stroke-linecap="round"/>
<path d="M14.9837 18.5774L13.574 17.1623C13.4998 17.0878 13.3885 17.0878 13.3143 17.1623L12.4982 17.9816L11.682 17.1623C11.6079 17.0878 11.4966 17.0878 11.4224 17.1623L10.0127 18.5774C9.93848 18.6519 9.93848 18.7636 10.0127 18.8381L12.3498 21.1842C12.424 21.2587 12.5353 21.2587 12.6095 21.1842L14.0192 19.7691L14.9837 18.8009C15.0579 18.7636 15.0579 18.6519 14.9837 18.5774Z" fill="#FFDA54"/>
</svg>
