<svg width="40" height="40" viewBox="0 0 40 40" fill="none" xmlns="http://www.w3.org/2000/svg">
<path d="M10.7029 5.57989H25.6652V2.9375H8.0625V35.1844H10.7029V5.57989Z" fill="white" stroke="#010101" stroke-width="1.3" stroke-miterlimit="10" stroke-linecap="round"/>
<path d="M28.259 35.1357H10.6562V37.6313H28.259V35.1357Z" stroke="white" stroke-width="1.3" stroke-miterlimit="10"/>
<path d="M28.259 5.58008H10.6562V11.9903H28.259V5.58008Z" fill="white" stroke="#010101" stroke-width="1.3" stroke-miterlimit="10" stroke-linecap="round"/>
<path d="M28.259 34.1074H10.6562V37.6795H28.259V34.1074Z" fill="white" stroke="#010101" stroke-width="1.3" stroke-miterlimit="10" stroke-linecap="round"/>
<path d="M25.9612 11.9903V9.69041C24.8366 9.69041 24.0542 8.80961 24.0542 7.87988H15.1062C15.1062 8.90748 14.226 9.69041 13.1992 9.69041V11.9903H25.9612Z" fill="white" stroke="#010101" stroke-width="1.3" stroke-miterlimit="10" stroke-linecap="round"/>
<path d="M19.3097 35.3805H5.96094V11.8926H32.854V35.3805H23.417" fill="white"/>
<path d="M19.3097 35.3805H5.96094V11.8926H32.854V35.3805H23.417" stroke="#010101" stroke-width="1.3" stroke-miterlimit="10" stroke-linecap="round"/>
<path d="M16.1803 14.3389H30.4092V32.9335H5.96094V14.3389H11.5351" fill="white"/>
<path d="M16.1803 14.3389H30.4092V32.9335H5.96094V14.3389H11.5351" stroke="#010101" stroke-width="1.3" stroke-miterlimit="10" stroke-linecap="round"/>
<path d="M35.054 19.5254H20.1406V26.9143H35.054V19.5254Z" fill="white" stroke="#010101" stroke-width="1.3" stroke-miterlimit="10" stroke-linecap="round"/>
<path d="M24.6873 24.7123C25.3718 24.7123 25.9097 24.174 25.9097 23.489C25.9097 22.8039 25.3718 22.2656 24.6873 22.2656C24.0027 22.2656 23.4648 22.8039 23.4648 23.489C23.4648 24.174 24.0027 24.7123 24.6873 24.7123Z" fill="#FFDA54"/>
</svg>
