<svg width="60" height="61" viewBox="0 0 60 61" fill="none" xmlns="http://www.w3.org/2000/svg">
<path d="M16.0583 9.0505H38.5017V5.08691H12.0977V53.4573H16.0583V9.0505Z" fill="white" stroke="#010101" stroke-width="1.3" stroke-miterlimit="10" stroke-linecap="round"/>
<path d="M42.3924 53.3838H15.9883V57.1272H42.3924V53.3838Z" stroke="white" stroke-width="1.3" stroke-miterlimit="10"/>
<path d="M42.3924 9.05078H15.9883V18.6661H42.3924V9.05078Z" fill="white" stroke="#010101" stroke-width="1.3" stroke-miterlimit="10" stroke-linecap="round"/>
<path d="M42.3924 51.8428H15.9883V57.201H42.3924V51.8428Z" fill="white" stroke="#010101" stroke-width="1.3" stroke-miterlimit="10" stroke-linecap="round"/>
<path d="M38.9437 18.6656V15.2158C37.2568 15.2158 36.0833 13.8946 36.0833 12.5H22.6612C22.6612 14.0414 21.341 15.2158 19.8008 15.2158V18.6656H38.9437Z" fill="white" stroke="#010101" stroke-width="1.3" stroke-miterlimit="10" stroke-linecap="round"/>
<path d="M28.9684 53.7514H8.94531V18.5195H49.2849V53.7514H35.1294" fill="white"/>
<path d="M28.9684 53.7514H8.94531V18.5195H49.2849V53.7514H35.1294" stroke="#010101" stroke-width="1.3" stroke-miterlimit="10" stroke-linecap="round"/>
<path d="M24.2743 22.1895H45.6176V50.0813H8.94531V22.1895H17.3066" fill="white"/>
<path d="M24.2743 22.1895H45.6176V50.0813H8.94531V22.1895H17.3066" stroke="#010101" stroke-width="1.3" stroke-miterlimit="10" stroke-linecap="round"/>
<path d="M52.585 29.9697H30.2148V41.0531H52.585V29.9697Z" fill="white" stroke="#010101" stroke-width="1.3" stroke-miterlimit="10" stroke-linecap="round"/>
<path d="M37.0367 37.7501C38.0636 37.7501 38.8704 36.9427 38.8704 35.9151C38.8704 34.8875 38.0636 34.0801 37.0367 34.0801C36.0099 34.0801 35.2031 34.8875 35.2031 35.9151C35.2031 36.9427 36.0099 37.7501 37.0367 37.7501Z" fill="#FFDA54"/>
</svg>
