<svg width="108" height="92" viewBox="0 0 108 92" fill="none" xmlns="http://www.w3.org/2000/svg">
<path d="M85.0997 0.999023H40.8042V17.1298H85.0997V0.999023Z" fill="white" stroke="#010101" stroke-width="2" stroke-miterlimit="10" stroke-linecap="round"/>
<path d="M85.1905 48.1384H41.0068V81.7565H85.1905V48.1384Z" fill="white" stroke="#010101" stroke-width="2" stroke-miterlimit="10" stroke-linecap="round"/>
<path d="M79.3171 34.9935V70.9745C76.4871 70.9745 74.5184 73.1909 74.5184 75.5305H52.0015C52.0015 72.9447 49.7868 70.9745 47.2028 70.9745L47.2026 25.4717L79.3171 34.9935Z" fill="white" stroke="#010101" stroke-width="2" stroke-miterlimit="10" stroke-linecap="round"/>
<path d="M79.3169 17.1298V11.3424C76.4869 11.3424 74.5182 9.12595 74.5182 6.78638H52.0013C52.0013 9.37222 49.7865 11.3424 47.2026 11.3424V17.1298H79.3169Z" fill="white" stroke="#010101" stroke-width="2" stroke-miterlimit="10" stroke-linecap="round"/>
<path d="M63.8361 90.999H19.5405V74.8683H63.8361V90.999Z" fill="white" stroke="#010101" stroke-width="2" stroke-miterlimit="10" stroke-linecap="round"/>
<path d="M63.9269 43.8596H19.7432V10.2416H63.9269V43.8596Z" fill="white" stroke="#010101" stroke-width="2" stroke-miterlimit="10" stroke-linecap="round"/>
<path d="M58.0534 57.0045V21.0235C55.2234 21.0235 53.2547 18.8071 53.2547 16.4675H30.7379C30.7379 19.0534 28.5231 21.0235 25.9392 21.0235L25.939 66.5264L58.0534 57.0045Z" fill="white" stroke="#010101" stroke-width="2" stroke-miterlimit="10" stroke-linecap="round"/>
<path d="M58.0532 74.8683V80.6557C55.2232 80.6557 53.2545 82.8721 53.2545 85.2117H30.7376C30.7376 82.6258 28.5229 80.6557 25.939 80.6557V74.8683H58.0532Z" fill="white" stroke="#010101" stroke-width="2" stroke-miterlimit="10" stroke-linecap="round"/>
<path fill-rule="evenodd" clip-rule="evenodd" d="M103.059 56.7831H43.7185C42.0783 56.7831 40.731 55.4344 40.731 53.7926V19.4318C40.731 17.79 42.0783 16.4414 43.7185 16.4414H103.059C104.699 16.4414 106.046 17.79 106.046 19.4318V53.7926C106.046 55.4344 104.699 56.7831 103.059 56.7831Z" fill="white" stroke="#0E0F0F" stroke-width="2" stroke-miterlimit="10"/>
<path d="M50.1372 22.7825H50.4304V23.5433V27.4738H50.1372V22.7825Z" stroke="#0E0F0F" stroke-width="2" stroke-miterlimit="10"/>
<mask id="path-11-inside-1" fill="white">
<path d="M54.4884 24.2476H52.0776V26.0084H54.4884V24.2476Z"/>
</mask>
<path d="M52.0776 24.2476V22.2476H50.0776V24.2476H52.0776ZM54.4884 24.2476H56.4884V22.2476H54.4884V24.2476ZM54.4884 26.0084V28.0084H56.4884V26.0084H54.4884ZM52.0776 26.0084H50.0776V28.0084H52.0776V26.0084ZM52.0776 26.2476H54.4884V22.2476H52.0776V26.2476ZM52.4884 24.2476V26.0084H56.4884V24.2476H52.4884ZM54.4884 24.0084H52.0776V28.0084H54.4884V24.0084ZM54.0776 26.0084V24.2476H50.0776V26.0084H54.0776Z" fill="#0E0F0F" mask="url(#path-11-inside-1)"/>
<mask id="path-13-inside-2" fill="white">
<path d="M48.4322 24.2476H46.0215V26.0084H48.4322V24.2476Z"/>
</mask>
<path d="M46.0215 24.2476V22.2476H44.0215V24.2476H46.0215ZM48.4322 24.2476H50.4322V22.2476H48.4322V24.2476ZM48.4322 26.0084V28.0084H50.4322V26.0084H48.4322ZM46.0215 26.0084H44.0215V28.0084H46.0215V26.0084ZM46.0215 26.2476H48.4322V22.2476H46.0215V26.2476ZM46.4322 24.2476V26.0084H50.4322V24.2476H46.4322ZM48.4322 24.0084H46.0215V28.0084H48.4322V24.0084ZM48.0215 26.0084V24.2476H44.0215V26.0084H48.0215Z" fill="#0E0F0F" mask="url(#path-13-inside-2)"/>
<mask id="path-15-inside-3" fill="white">
<path d="M52.0776 26.7129V28.5325H53.3124C53.9592 28.5325 54.4884 28.0042 54.4884 27.3585V26.7129H52.0776Z"/>
</mask>
<path d="M52.0776 26.7129V24.7129H50.0776V26.7129H52.0776ZM52.0776 28.5325H50.0776V30.5325H52.0776V28.5325ZM54.4884 26.7129H56.4884V24.7129H54.4884V26.7129ZM50.0776 26.7129V28.5325H54.0776V26.7129H50.0776ZM52.0776 30.5325H53.3124V26.5325H52.0776V30.5325ZM53.3124 30.5325C55.0605 30.5325 56.4884 29.1121 56.4884 27.3585H52.4884C52.4884 26.8964 52.8579 26.5325 53.3124 26.5325V30.5325ZM56.4884 27.3585V26.7129H52.4884V27.3585H56.4884ZM54.4884 24.7129H52.0776V28.7129H54.4884V24.7129Z" fill="#0E0F0F" mask="url(#path-15-inside-3)"/>
<mask id="path-17-inside-4" fill="white">
<path d="M48.4322 26.7129H46.0215V27.3585C46.0215 28.0042 46.5507 28.5325 47.1975 28.5325H48.491V26.7129H48.4322Z"/>
</mask>
<path d="M46.0215 26.7129V24.7129H44.0215V26.7129H46.0215ZM48.491 28.5325V30.5325H50.491V28.5325H48.491ZM48.491 26.7129H50.491V24.7129H48.491V26.7129ZM48.4322 24.7129H46.0215V28.7129H48.4322V24.7129ZM44.0215 26.7129V27.3585H48.0215V26.7129H44.0215ZM44.0215 27.3585C44.0215 29.1121 45.4494 30.5325 47.1975 30.5325V26.5325C47.652 26.5325 48.0215 26.8963 48.0215 27.3585H44.0215ZM47.1975 30.5325H48.491V26.5325H47.1975V30.5325ZM50.491 28.5325V26.7129H46.491V28.5325H50.491ZM48.491 24.7129H48.4322V28.7129H48.491V24.7129Z" fill="#0E0F0F" mask="url(#path-17-inside-4)"/>
<mask id="path-19-inside-5" fill="white">
<path d="M48.432 23.5433V21.7825H47.1384C46.4916 21.7825 45.9624 22.3107 45.9624 22.9564V23.5433H48.432Z"/>
</mask>
<path d="M48.432 23.5433V25.5433H50.432V23.5433H48.432ZM48.432 21.7825H50.432V19.7825H48.432V21.7825ZM45.9624 23.5433H43.9624V25.5433H45.9624V23.5433ZM50.432 23.5433V21.7825H46.432V23.5433H50.432ZM48.432 19.7825H47.1384V23.7825H48.432V19.7825ZM47.1384 19.7825C45.3903 19.7825 43.9624 21.2029 43.9624 22.9564H47.9624C47.9624 23.4186 47.5928 23.7825 47.1384 23.7825V19.7825ZM43.9624 22.9564V23.5433H47.9624V22.9564H43.9624ZM45.9624 25.5433H48.432V21.5433H45.9624V25.5433Z" fill="#0E0F0F" mask="url(#path-19-inside-5)"/>
<path d="M48.6596 45.2568C48.2495 45.2568 47.9491 45.1588 47.7583 44.9627C47.5707 44.7641 47.4706 44.5053 47.4579 44.1864L47.4531 43.8492L47.4579 43.5002C47.4674 43.1839 47.5676 42.9278 47.7583 42.7317C47.9522 42.533 48.2526 42.4337 48.6596 42.4337C49.0697 42.4337 49.3701 42.533 49.5608 42.7317C49.7547 42.9278 49.8565 43.1839 49.866 43.5002C49.8692 43.5734 49.8708 43.6897 49.8708 43.8492C49.8708 44.0034 49.8692 44.1158 49.866 44.1864C49.8533 44.5053 49.7516 44.7641 49.5608 44.9627C49.3733 45.1588 49.0728 45.2568 48.6596 45.2568ZM48.6596 44.9314C48.9043 44.9314 49.0887 44.8647 49.2127 44.7314C49.3367 44.5981 49.4019 44.4099 49.4082 44.1668C49.4114 44.091 49.413 43.9825 49.413 43.8413C49.413 43.6976 49.4114 43.5904 49.4082 43.5198C49.4019 43.2793 49.3351 43.0924 49.2079 42.9591C49.084 42.8232 48.9012 42.7552 48.6596 42.7552C48.418 42.7552 48.2352 42.8232 48.1112 42.9591C47.9872 43.0924 47.922 43.2793 47.9157 43.5198L47.9109 43.8413L47.9157 44.1668C47.922 44.4099 47.9872 44.5981 48.1112 44.7314C48.2352 44.8647 48.418 44.9314 48.6596 44.9314Z" fill="black"/>
<path d="M51.4864 45.2176C51.4546 45.2176 51.4292 45.2097 51.4101 45.1941C51.391 45.1758 51.3815 45.1535 51.3815 45.1274V42.916L50.5804 43.4218C50.5581 43.4375 50.5343 43.4453 50.5089 43.4453C50.4802 43.4453 50.4532 43.4322 50.4278 43.4061L50.3134 43.2846C50.2975 43.2663 50.2895 43.248 50.2895 43.2297C50.2895 43.2009 50.3054 43.1774 50.3372 43.1591L51.372 42.5004C51.4069 42.4821 51.4483 42.4729 51.4959 42.4729H51.7201C51.7519 42.4729 51.7773 42.4821 51.7964 42.5004C51.8186 42.5161 51.8297 42.537 51.8297 42.5631V45.1274C51.8297 45.1535 51.8186 45.1758 51.7964 45.1941C51.7773 45.2097 51.7519 45.2176 51.7201 45.2176H51.4864Z" fill="black"/>
<path d="M52.5393 45.2176C52.5075 45.2176 52.4805 45.2097 52.4583 45.1941C52.4392 45.1758 52.4296 45.1535 52.4296 45.1274V45.0098C52.4296 44.9497 52.4694 44.8921 52.5489 44.8373L53.5884 43.9864C53.8236 43.8217 53.9858 43.6871 54.0748 43.5826C54.1638 43.478 54.2083 43.3669 54.2083 43.2493C54.2083 43.095 54.1559 42.9748 54.0509 42.8885C53.946 42.7997 53.7934 42.7552 53.5932 42.7552C53.4024 42.7552 53.2514 42.801 53.1402 42.8925C53.0289 42.984 52.9605 43.1068 52.9351 43.261C52.9288 43.2898 52.9129 43.312 52.8874 43.3277C52.862 43.3434 52.8366 43.3512 52.8111 43.3512H52.5822C52.5536 43.3512 52.5298 43.3434 52.5107 43.3277C52.4916 43.312 52.4821 43.2937 52.4821 43.2728C52.4885 43.1343 52.533 43.0009 52.6156 42.8729C52.7015 42.7422 52.827 42.6363 52.9923 42.5553C53.1576 42.4716 53.3579 42.4298 53.5932 42.4298C53.9492 42.4298 54.2163 42.5069 54.3943 42.6611C54.5755 42.8127 54.6661 43.0062 54.6661 43.2414C54.6661 43.4061 54.6168 43.5551 54.5183 43.6884C54.4229 43.8191 54.2719 43.9577 54.0653 44.104L53.1259 44.8882H54.6279C54.6629 44.8882 54.6899 44.8961 54.709 44.9117C54.7281 44.9274 54.7376 44.9497 54.7376 44.9784V45.1274C54.7376 45.1535 54.7265 45.1758 54.7042 45.1941C54.6852 45.2097 54.6597 45.2176 54.6279 45.2176H52.5393Z" fill="black"/>
<path d="M56.3922 45.2568C56.1443 45.2568 55.9297 45.2241 55.7485 45.1588C55.5673 45.0908 55.429 45.0032 55.3336 44.8961C55.2414 44.7889 55.1921 44.6778 55.1858 44.5628C55.1858 44.5393 55.1953 44.521 55.2144 44.5079C55.2335 44.4922 55.2573 44.4844 55.2859 44.4844H55.5005C55.5355 44.4844 55.5641 44.4909 55.5863 44.504C55.6086 44.5144 55.6261 44.5366 55.6388 44.5706C55.6801 44.7039 55.7691 44.798 55.9058 44.8529C56.0457 44.9078 56.2094 44.9353 56.397 44.9353C56.6259 44.9353 56.8071 44.8908 56.9406 44.802C57.0773 44.7105 57.1457 44.5811 57.1457 44.4138C57.1457 44.0949 56.9088 43.9354 56.4351 43.9354H55.9869C55.9551 43.9354 55.9281 43.9276 55.9058 43.9119C55.8868 43.8936 55.8772 43.8714 55.8772 43.8453V43.7433C55.8772 43.7041 55.8947 43.6701 55.9297 43.6414L56.8595 42.7944H55.4481C55.4163 42.7944 55.3892 42.7866 55.367 42.7709C55.3479 42.7552 55.3384 42.7343 55.3384 42.7082V42.567C55.3384 42.5383 55.3479 42.5161 55.367 42.5004C55.3892 42.4821 55.4163 42.4729 55.4481 42.4729H57.3364C57.3714 42.4729 57.3984 42.4821 57.4175 42.5004C57.4397 42.5161 57.4508 42.5383 57.4508 42.567V42.6964C57.4508 42.7252 57.4349 42.7552 57.4032 42.7866L56.4733 43.6453H56.5496C56.8738 43.6531 57.1298 43.7224 57.3173 43.8531C57.5081 43.9838 57.6034 44.1746 57.6034 44.4256C57.6034 44.5981 57.551 44.7471 57.4461 44.8725C57.3443 44.9954 57.2013 45.0908 57.0169 45.1588C56.8325 45.2241 56.6243 45.2568 56.3922 45.2568Z" fill="black"/>
<path d="M62.8856 45.2568C62.4755 45.2568 62.1751 45.1588 61.9843 44.9627C61.7968 44.7641 61.6966 44.5053 61.6839 44.1864L61.6791 43.8492L61.6839 43.5002C61.6934 43.1839 61.7936 42.9278 61.9843 42.7317C62.1782 42.533 62.4787 42.4337 62.8856 42.4337C63.2957 42.4337 63.5961 42.533 63.7868 42.7317C63.9808 42.9278 64.0825 43.1839 64.092 43.5002C64.0952 43.5734 64.0968 43.6897 64.0968 43.8492C64.0968 44.0034 64.0952 44.1158 64.092 44.1864C64.0793 44.5053 63.9776 44.7641 63.7868 44.9627C63.5993 45.1588 63.2989 45.2568 62.8856 45.2568ZM62.8856 44.9314C63.1304 44.9314 63.3147 44.8647 63.4387 44.7314C63.5627 44.5981 63.6279 44.4099 63.6342 44.1668C63.6374 44.091 63.639 43.9825 63.639 43.8413C63.639 43.6976 63.6374 43.5904 63.6342 43.5198C63.6279 43.2793 63.5611 43.0924 63.434 42.9591C63.31 42.8232 63.1272 42.7552 62.8856 42.7552C62.644 42.7552 62.4612 42.8232 62.3372 42.9591C62.2132 43.0924 62.148 43.2793 62.1417 43.5198L62.1369 43.8413L62.1417 44.1668C62.148 44.4099 62.2132 44.5981 62.3372 44.7314C62.4612 44.8647 62.644 44.9314 62.8856 44.9314Z" fill="black"/>
<path d="M65.7124 45.2176C65.6806 45.2176 65.6552 45.2097 65.6361 45.1941C65.6171 45.1758 65.6075 45.1535 65.6075 45.1274V42.916L64.8064 43.4218C64.7842 43.4375 64.7603 43.4453 64.7349 43.4453C64.7063 43.4453 64.6792 43.4322 64.6538 43.4061L64.5394 43.2846C64.5235 43.2663 64.5155 43.248 64.5155 43.2297C64.5155 43.2009 64.5314 43.1774 64.5632 43.1591L65.598 42.5004C65.6329 42.4821 65.6743 42.4729 65.722 42.4729H65.9461C65.9779 42.4729 66.0033 42.4821 66.0224 42.5004C66.0446 42.5161 66.0558 42.537 66.0558 42.5631V45.1274C66.0558 45.1535 66.0446 45.1758 66.0224 45.1941C66.0033 45.2097 65.9779 45.2176 65.9461 45.2176H65.7124Z" fill="black"/>
<path d="M66.7653 45.2176C66.7335 45.2176 66.7065 45.2097 66.6843 45.1941C66.6652 45.1758 66.6557 45.1535 66.6557 45.1274V45.0098C66.6557 44.9497 66.6954 44.8921 66.7749 44.8373L67.8144 43.9864C68.0497 43.8217 68.2118 43.6871 68.3008 43.5826C68.3898 43.478 68.4343 43.3669 68.4343 43.2493C68.4343 43.095 68.3819 42.9748 68.277 42.8885C68.1721 42.7997 68.0195 42.7552 67.8192 42.7552C67.6284 42.7552 67.4774 42.801 67.3662 42.8925C67.2549 42.984 67.1866 43.1068 67.1611 43.261C67.1548 43.2898 67.1389 43.312 67.1134 43.3277C67.088 43.3434 67.0626 43.3512 67.0371 43.3512H66.8083C66.7796 43.3512 66.7558 43.3434 66.7367 43.3277C66.7177 43.312 66.7081 43.2937 66.7081 43.2728C66.7145 43.1343 66.759 43.0009 66.8416 42.8729C66.9275 42.7422 67.053 42.6363 67.2184 42.5553C67.3837 42.4716 67.5839 42.4298 67.8192 42.4298C68.1752 42.4298 68.4423 42.5069 68.6203 42.6611C68.8015 42.8127 68.8921 43.0062 68.8921 43.2414C68.8921 43.4061 68.8428 43.5551 68.7443 43.6884C68.6489 43.8191 68.4979 43.9577 68.2913 44.104L67.3519 44.8882H68.854C68.8889 44.8882 68.9159 44.8961 68.935 44.9117C68.9541 44.9274 68.9636 44.9497 68.9636 44.9784V45.1274C68.9636 45.1535 68.9525 45.1758 68.9303 45.1941C68.9112 45.2097 68.8857 45.2176 68.854 45.2176H66.7653Z" fill="black"/>
<path d="M70.6182 45.2568C70.3703 45.2568 70.1557 45.2241 69.9745 45.1588C69.7933 45.0908 69.655 45.0032 69.5596 44.8961C69.4674 44.7889 69.4182 44.6778 69.4118 44.5628C69.4118 44.5393 69.4213 44.521 69.4404 44.5079C69.4595 44.4922 69.4833 44.4844 69.5119 44.4844H69.7265C69.7615 44.4844 69.7901 44.4909 69.8124 44.504C69.8346 44.5144 69.8521 44.5366 69.8648 44.5706C69.9061 44.7039 69.9952 44.798 70.1318 44.8529C70.2717 44.9078 70.4354 44.9353 70.623 44.9353C70.8519 44.9353 71.0331 44.8908 71.1666 44.802C71.3033 44.7105 71.3717 44.5811 71.3717 44.4138C71.3717 44.0949 71.1348 43.9354 70.6612 43.9354H70.2129C70.1811 43.9354 70.1541 43.9276 70.1318 43.9119C70.1128 43.8936 70.1032 43.8714 70.1032 43.8453V43.7433C70.1032 43.7041 70.1207 43.6701 70.1557 43.6414L71.0856 42.7944H69.6741C69.6423 42.7944 69.6153 42.7866 69.593 42.7709C69.5739 42.7552 69.5644 42.7343 69.5644 42.7082V42.567C69.5644 42.5383 69.5739 42.5161 69.593 42.5004C69.6153 42.4821 69.6423 42.4729 69.6741 42.4729H71.5624C71.5974 42.4729 71.6244 42.4821 71.6435 42.5004C71.6657 42.5161 71.6769 42.5383 71.6769 42.567V42.6964C71.6769 42.7252 71.661 42.7552 71.6292 42.7866L70.6993 43.6453H70.7756C71.0999 43.6531 71.3558 43.7224 71.5433 43.8531C71.7341 43.9838 71.8294 44.1746 71.8294 44.4256C71.8294 44.5981 71.777 44.7471 71.6721 44.8725C71.5704 44.9954 71.4273 45.0908 71.2429 45.1588C71.0585 45.2241 70.8503 45.2568 70.6182 45.2568Z" fill="black"/>
<path d="M77.1116 45.2022C76.7015 45.2022 76.4011 45.1042 76.2103 44.9082C76.0228 44.7095 75.9226 44.4507 75.9099 44.1318L75.9052 43.7946L75.9099 43.4457C75.9195 43.1294 76.0196 42.8732 76.2103 42.6772C76.4043 42.4785 76.7047 42.3792 77.1116 42.3792C77.5217 42.3792 77.8221 42.4785 78.0128 42.6772C78.2068 42.8732 78.3085 43.1294 78.318 43.4457C78.3212 43.5189 78.3228 43.6352 78.3228 43.7946C78.3228 43.9488 78.3212 44.0612 78.318 44.1318C78.3053 44.4507 78.2036 44.7095 78.0128 44.9082C77.8253 45.1042 77.5249 45.2022 77.1116 45.2022ZM77.1116 44.8768C77.3564 44.8768 77.5408 44.8101 77.6647 44.6768C77.7887 44.5435 77.8539 44.3553 77.8603 44.1122C77.8634 44.0364 77.865 43.9279 77.865 43.7868C77.865 43.643 77.8634 43.5358 77.8603 43.4653C77.8539 43.2248 77.7871 43.0379 77.66 42.9046C77.536 42.7686 77.3532 42.7007 77.1116 42.7007C76.87 42.7007 76.6872 42.7686 76.5632 42.9046C76.4392 43.0379 76.3741 43.2248 76.3677 43.4653L76.3629 43.7868L76.3677 44.1122C76.3741 44.3553 76.4392 44.5435 76.5632 44.6768C76.6872 44.8101 76.87 44.8768 77.1116 44.8768Z" fill="black"/>
<path d="M79.9384 45.163C79.9067 45.163 79.8812 45.1552 79.8621 45.1395C79.8431 45.1212 79.8335 45.099 79.8335 45.0728V42.8614L79.0324 43.3672C79.0102 43.3829 78.9863 43.3908 78.9609 43.3908C78.9323 43.3908 78.9053 43.3777 78.8798 43.3516L78.7654 43.23C78.7495 43.2117 78.7415 43.1934 78.7415 43.1751C78.7415 43.1464 78.7574 43.1228 78.7892 43.1045L79.824 42.4458C79.859 42.4275 79.9003 42.4184 79.948 42.4184H80.1721C80.2039 42.4184 80.2293 42.4275 80.2484 42.4458C80.2706 42.4615 80.2818 42.4824 80.2818 42.5086V45.0728C80.2818 45.099 80.2706 45.1212 80.2484 45.1395C80.2293 45.1552 80.2039 45.163 80.1721 45.163H79.9384Z" fill="black"/>
<path d="M80.9914 45.163C80.9596 45.163 80.9325 45.1552 80.9103 45.1395C80.8912 45.1212 80.8817 45.099 80.8817 45.0728V44.9552C80.8817 44.8951 80.9214 44.8376 81.0009 44.7827L82.0404 43.9319C82.2757 43.7672 82.4378 43.6326 82.5268 43.528C82.6158 43.4234 82.6603 43.3123 82.6603 43.1947C82.6603 43.0405 82.6079 42.9203 82.503 42.834C82.3981 42.7451 82.2455 42.7007 82.0452 42.7007C81.8545 42.7007 81.7035 42.7464 81.5922 42.8379C81.4809 42.9294 81.4126 43.0523 81.3871 43.2065C81.3808 43.2352 81.3649 43.2575 81.3395 43.2731C81.314 43.2888 81.2886 43.2967 81.2632 43.2967H81.0343C81.0057 43.2967 80.9818 43.2888 80.9627 43.2731C80.9437 43.2575 80.9341 43.2392 80.9341 43.2182C80.9405 43.0797 80.985 42.9464 81.0677 42.8183C81.1535 42.6876 81.2791 42.5817 81.4444 42.5007C81.6097 42.4171 81.81 42.3752 82.0452 42.3752C82.4013 42.3752 82.6683 42.4524 82.8463 42.6066C83.0275 42.7582 83.1181 42.9516 83.1181 43.1869C83.1181 43.3516 83.0688 43.5006 82.9703 43.6339C82.8749 43.7646 82.7239 43.9031 82.5173 44.0495L81.5779 44.8337H83.08C83.1149 44.8337 83.142 44.8415 83.161 44.8572C83.1801 44.8729 83.1896 44.8951 83.1896 44.9239V45.0728C83.1896 45.099 83.1785 45.1212 83.1563 45.1395C83.1372 45.1552 83.1118 45.163 83.08 45.163H80.9914Z" fill="black"/>
<path d="M84.8443 45.2022C84.5963 45.2022 84.3817 45.1696 84.2005 45.1042C84.0193 45.0363 83.881 44.9487 83.7856 44.8415C83.6935 44.7343 83.6442 44.6232 83.6378 44.5082C83.6378 44.4847 83.6474 44.4664 83.6664 44.4533C83.6855 44.4377 83.7093 44.4298 83.738 44.4298H83.9525C83.9875 44.4298 84.0161 44.4364 84.0384 44.4494C84.0606 44.4599 84.0781 44.4821 84.0908 44.5161C84.1322 44.6494 84.2212 44.7435 84.3579 44.7984C84.4977 44.8533 84.6615 44.8807 84.849 44.8807C85.0779 44.8807 85.2591 44.8363 85.3926 44.7474C85.5293 44.6559 85.5977 44.5265 85.5977 44.3592C85.5977 44.0403 85.3608 43.8809 84.8872 43.8809H84.4389C84.4071 43.8809 84.3801 43.873 84.3579 43.8574C84.3388 43.8391 84.3293 43.8168 84.3293 43.7907V43.6888C84.3293 43.6495 84.3467 43.6156 84.3817 43.5868L85.3116 42.7399H83.9001C83.8683 42.7399 83.8413 42.732 83.819 42.7164C83.7999 42.7007 83.7904 42.6798 83.7904 42.6536V42.5125C83.7904 42.4837 83.7999 42.4615 83.819 42.4458C83.8413 42.4275 83.8683 42.4184 83.9001 42.4184H85.7884C85.8234 42.4184 85.8504 42.4275 85.8695 42.4458C85.8917 42.4615 85.9029 42.4837 85.9029 42.5125V42.6419C85.9029 42.6706 85.887 42.7007 85.8552 42.732L84.9253 43.5907H85.0016C85.3259 43.5986 85.5818 43.6678 85.7693 43.7985C85.9601 43.9292 86.0555 44.1201 86.0555 44.371C86.0555 44.5435 86.003 44.6925 85.8981 44.818C85.7964 44.9408 85.6533 45.0363 85.4689 45.1042C85.2845 45.1696 85.0763 45.2022 84.8443 45.2022Z" fill="black"/>
<path d="M91.3376 45.2022C90.9275 45.2022 90.6271 45.1042 90.4364 44.9082C90.2488 44.7095 90.1487 44.4507 90.1359 44.1318L90.1312 43.7946L90.1359 43.4457C90.1455 43.1294 90.2456 42.8732 90.4364 42.6772C90.6303 42.4785 90.9307 42.3792 91.3376 42.3792C91.7477 42.3792 92.0481 42.4785 92.2389 42.6772C92.4328 42.8732 92.5345 43.1294 92.5441 43.4457C92.5472 43.5189 92.5488 43.6352 92.5488 43.7946C92.5488 43.9488 92.5472 44.0612 92.5441 44.1318C92.5313 44.4507 92.4296 44.7095 92.2389 44.9082C92.0513 45.1042 91.7509 45.2022 91.3376 45.2022ZM91.3376 44.8768C91.5824 44.8768 91.7668 44.8101 91.8908 44.6768C92.0147 44.5435 92.0799 44.3553 92.0863 44.1122C92.0895 44.0364 92.091 43.9279 92.091 43.7868C92.091 43.643 92.0895 43.5358 92.0863 43.4653C92.0799 43.2248 92.0132 43.0379 91.886 42.9046C91.762 42.7686 91.5792 42.7007 91.3376 42.7007C91.096 42.7007 90.9132 42.7686 90.7892 42.9046C90.6652 43.0379 90.6001 43.2248 90.5937 43.4653L90.589 43.7868L90.5937 44.1122C90.6001 44.3553 90.6652 44.5435 90.7892 44.6768C90.9132 44.8101 91.096 44.8768 91.3376 44.8768Z" fill="black"/>
<path d="M94.1645 45.163C94.1327 45.163 94.1072 45.1552 94.0882 45.1395C94.0691 45.1212 94.0596 45.099 94.0596 45.0728V42.8614L93.2584 43.3672C93.2362 43.3829 93.2123 43.3908 93.1869 43.3908C93.1583 43.3908 93.1313 43.3777 93.1058 43.3516L92.9914 43.23C92.9755 43.2117 92.9676 43.1934 92.9676 43.1751C92.9676 43.1464 92.9835 43.1228 93.0152 43.1045L94.05 42.4458C94.085 42.4275 94.1263 42.4184 94.174 42.4184H94.3981C94.4299 42.4184 94.4553 42.4275 94.4744 42.4458C94.4967 42.4615 94.5078 42.4824 94.5078 42.5086V45.0728C94.5078 45.099 94.4967 45.1212 94.4744 45.1395C94.4553 45.1552 94.4299 45.163 94.3981 45.163H94.1645Z" fill="black"/>
<path d="M95.2174 45.163C95.1856 45.163 95.1586 45.1552 95.1363 45.1395C95.1172 45.1212 95.1077 45.099 95.1077 45.0728V44.9552C95.1077 44.8951 95.1474 44.8376 95.2269 44.7827L96.2664 43.9319C96.5017 43.7672 96.6638 43.6326 96.7528 43.528C96.8419 43.4234 96.8864 43.3123 96.8864 43.1947C96.8864 43.0405 96.8339 42.9203 96.729 42.834C96.6241 42.7451 96.4715 42.7007 96.2712 42.7007C96.0805 42.7007 95.9295 42.7464 95.8182 42.8379C95.7069 42.9294 95.6386 43.0523 95.6132 43.2065C95.6068 43.2352 95.5909 43.2575 95.5655 43.2731C95.54 43.2888 95.5146 43.2967 95.4892 43.2967H95.2603C95.2317 43.2967 95.2078 43.2888 95.1888 43.2731C95.1697 43.2575 95.1601 43.2392 95.1601 43.2182C95.1665 43.0797 95.211 42.9464 95.2937 42.8183C95.3795 42.6876 95.5051 42.5817 95.6704 42.5007C95.8357 42.4171 96.036 42.3752 96.2712 42.3752C96.6273 42.3752 96.8943 42.4524 97.0723 42.6066C97.2535 42.7582 97.3441 42.9516 97.3441 43.1869C97.3441 43.3516 97.2949 43.5006 97.1963 43.6339C97.1009 43.7646 96.9499 43.9031 96.7433 44.0495L95.8039 44.8337H97.306C97.341 44.8337 97.368 44.8415 97.3871 44.8572C97.4061 44.8729 97.4157 44.8951 97.4157 44.9239V45.0728C97.4157 45.099 97.4045 45.1212 97.3823 45.1395C97.3632 45.1552 97.3378 45.163 97.306 45.163H95.2174Z" fill="black"/>
<path d="M99.0703 45.2022C98.8223 45.2022 98.6077 45.1696 98.4265 45.1042C98.2453 45.0363 98.107 44.9487 98.0117 44.8415C97.9195 44.7343 97.8702 44.6232 97.8638 44.5082C97.8638 44.4847 97.8734 44.4664 97.8924 44.4533C97.9115 44.4377 97.9354 44.4298 97.964 44.4298H98.1786C98.2135 44.4298 98.2421 44.4364 98.2644 44.4494C98.2866 44.4599 98.3041 44.4821 98.3168 44.5161C98.3582 44.6494 98.4472 44.7435 98.5839 44.7984C98.7238 44.8533 98.8875 44.8807 99.075 44.8807C99.3039 44.8807 99.4851 44.8363 99.6187 44.7474C99.7553 44.6559 99.8237 44.5265 99.8237 44.3592C99.8237 44.0403 99.5869 43.8809 99.1132 43.8809H98.6649C98.6332 43.8809 98.6061 43.873 98.5839 43.8574C98.5648 43.8391 98.5553 43.8168 98.5553 43.7907V43.6888C98.5553 43.6495 98.5728 43.6156 98.6077 43.5868L99.5376 42.7399H98.1261C98.0943 42.7399 98.0673 42.732 98.045 42.7164C98.026 42.7007 98.0164 42.6798 98.0164 42.6536V42.5125C98.0164 42.4837 98.026 42.4615 98.045 42.4458C98.0673 42.4275 98.0943 42.4184 98.1261 42.4184H100.014C100.049 42.4184 100.076 42.4275 100.096 42.4458C100.118 42.4615 100.129 42.4837 100.129 42.5125V42.6419C100.129 42.6706 100.113 42.7007 100.081 42.732L99.1513 43.5907H99.2276C99.5519 43.5986 99.8078 43.6678 99.9954 43.7985C100.186 43.9292 100.281 44.1201 100.281 44.371C100.281 44.5435 100.229 44.6925 100.124 44.818C100.022 44.9408 99.8793 45.0363 99.695 45.1042C99.5106 45.1696 99.3023 45.2022 99.0703 45.2022Z" fill="black"/>
<path d="M48.6596 45.2568C48.2495 45.2568 47.9491 45.1588 47.7583 44.9627C47.5707 44.7641 47.4706 44.5053 47.4579 44.1864L47.4531 43.8492L47.4579 43.5002C47.4674 43.1839 47.5676 42.9278 47.7583 42.7317C47.9522 42.533 48.2526 42.4337 48.6596 42.4337C49.0697 42.4337 49.3701 42.533 49.5608 42.7317C49.7547 42.9278 49.8565 43.1839 49.866 43.5002C49.8692 43.5734 49.8708 43.6897 49.8708 43.8492C49.8708 44.0034 49.8692 44.1158 49.866 44.1864C49.8533 44.5053 49.7516 44.7641 49.5608 44.9627C49.3733 45.1588 49.0728 45.2568 48.6596 45.2568ZM48.6596 44.9314C48.9043 44.9314 49.0887 44.8647 49.2127 44.7314C49.3367 44.5981 49.4019 44.4099 49.4082 44.1668C49.4114 44.091 49.413 43.9825 49.413 43.8413C49.413 43.6976 49.4114 43.5904 49.4082 43.5198C49.4019 43.2793 49.3351 43.0924 49.2079 42.9591C49.084 42.8232 48.9012 42.7552 48.6596 42.7552C48.418 42.7552 48.2352 42.8232 48.1112 42.9591C47.9872 43.0924 47.922 43.2793 47.9157 43.5198L47.9109 43.8413L47.9157 44.1668C47.922 44.4099 47.9872 44.5981 48.1112 44.7314C48.2352 44.8647 48.418 44.9314 48.6596 44.9314Z" stroke="black" stroke-width="0.6"/>
<path d="M51.4864 45.2176C51.4546 45.2176 51.4292 45.2097 51.4101 45.1941C51.391 45.1758 51.3815 45.1535 51.3815 45.1274V42.916L50.5804 43.4218C50.5581 43.4375 50.5343 43.4453 50.5089 43.4453C50.4802 43.4453 50.4532 43.4322 50.4278 43.4061L50.3134 43.2846C50.2975 43.2663 50.2895 43.248 50.2895 43.2297C50.2895 43.2009 50.3054 43.1774 50.3372 43.1591L51.372 42.5004C51.4069 42.4821 51.4483 42.4729 51.4959 42.4729H51.7201C51.7519 42.4729 51.7773 42.4821 51.7964 42.5004C51.8186 42.5161 51.8297 42.537 51.8297 42.5631V45.1274C51.8297 45.1535 51.8186 45.1758 51.7964 45.1941C51.7773 45.2097 51.7519 45.2176 51.7201 45.2176H51.4864Z" stroke="black" stroke-width="0.6"/>
<path d="M52.5393 45.2176C52.5075 45.2176 52.4805 45.2097 52.4583 45.1941C52.4392 45.1758 52.4296 45.1535 52.4296 45.1274V45.0098C52.4296 44.9497 52.4694 44.8921 52.5489 44.8373L53.5884 43.9864C53.8236 43.8217 53.9858 43.6871 54.0748 43.5826C54.1638 43.478 54.2083 43.3669 54.2083 43.2493C54.2083 43.095 54.1559 42.9748 54.0509 42.8885C53.946 42.7997 53.7934 42.7552 53.5932 42.7552C53.4024 42.7552 53.2514 42.801 53.1402 42.8925C53.0289 42.984 52.9605 43.1068 52.9351 43.261C52.9288 43.2898 52.9129 43.312 52.8874 43.3277C52.862 43.3434 52.8366 43.3512 52.8111 43.3512H52.5822C52.5536 43.3512 52.5298 43.3434 52.5107 43.3277C52.4916 43.312 52.4821 43.2937 52.4821 43.2728C52.4885 43.1343 52.533 43.0009 52.6156 42.8729C52.7015 42.7422 52.827 42.6363 52.9923 42.5553C53.1576 42.4716 53.3579 42.4298 53.5932 42.4298C53.9492 42.4298 54.2163 42.5069 54.3943 42.6611C54.5755 42.8127 54.6661 43.0062 54.6661 43.2414C54.6661 43.4061 54.6168 43.5551 54.5183 43.6884C54.4229 43.8191 54.2719 43.9577 54.0653 44.104L53.1259 44.8882H54.6279C54.6629 44.8882 54.6899 44.8961 54.709 44.9117C54.7281 44.9274 54.7376 44.9497 54.7376 44.9784V45.1274C54.7376 45.1535 54.7265 45.1758 54.7042 45.1941C54.6852 45.2097 54.6597 45.2176 54.6279 45.2176H52.5393Z" stroke="black" stroke-width="0.6"/>
<path d="M56.3922 45.2568C56.1443 45.2568 55.9297 45.2241 55.7485 45.1588C55.5673 45.0908 55.429 45.0032 55.3336 44.8961C55.2414 44.7889 55.1921 44.6778 55.1858 44.5628C55.1858 44.5393 55.1953 44.521 55.2144 44.5079C55.2335 44.4922 55.2573 44.4844 55.2859 44.4844H55.5005C55.5355 44.4844 55.5641 44.4909 55.5863 44.504C55.6086 44.5144 55.6261 44.5366 55.6388 44.5706C55.6801 44.7039 55.7691 44.798 55.9058 44.8529C56.0457 44.9078 56.2094 44.9353 56.397 44.9353C56.6259 44.9353 56.8071 44.8908 56.9406 44.802C57.0773 44.7105 57.1457 44.5811 57.1457 44.4138C57.1457 44.0949 56.9088 43.9354 56.4351 43.9354H55.9869C55.9551 43.9354 55.9281 43.9276 55.9058 43.9119C55.8868 43.8936 55.8772 43.8714 55.8772 43.8453V43.7433C55.8772 43.7041 55.8947 43.6701 55.9297 43.6414L56.8595 42.7944H55.4481C55.4163 42.7944 55.3892 42.7866 55.367 42.7709C55.3479 42.7552 55.3384 42.7343 55.3384 42.7082V42.567C55.3384 42.5383 55.3479 42.5161 55.367 42.5004C55.3892 42.4821 55.4163 42.4729 55.4481 42.4729H57.3364C57.3714 42.4729 57.3984 42.4821 57.4175 42.5004C57.4397 42.5161 57.4508 42.5383 57.4508 42.567V42.6964C57.4508 42.7252 57.4349 42.7552 57.4032 42.7866L56.4733 43.6453H56.5496C56.8738 43.6531 57.1298 43.7224 57.3173 43.8531C57.5081 43.9838 57.6034 44.1746 57.6034 44.4256C57.6034 44.5981 57.551 44.7471 57.4461 44.8725C57.3443 44.9954 57.2013 45.0908 57.0169 45.1588C56.8325 45.2241 56.6243 45.2568 56.3922 45.2568Z" stroke="black" stroke-width="0.6"/>
<path d="M62.8856 45.2568C62.4755 45.2568 62.1751 45.1588 61.9843 44.9627C61.7968 44.7641 61.6966 44.5053 61.6839 44.1864L61.6791 43.8492L61.6839 43.5002C61.6934 43.1839 61.7936 42.9278 61.9843 42.7317C62.1782 42.533 62.4787 42.4337 62.8856 42.4337C63.2957 42.4337 63.5961 42.533 63.7868 42.7317C63.9808 42.9278 64.0825 43.1839 64.092 43.5002C64.0952 43.5734 64.0968 43.6897 64.0968 43.8492C64.0968 44.0034 64.0952 44.1158 64.092 44.1864C64.0793 44.5053 63.9776 44.7641 63.7868 44.9627C63.5993 45.1588 63.2989 45.2568 62.8856 45.2568ZM62.8856 44.9314C63.1304 44.9314 63.3147 44.8647 63.4387 44.7314C63.5627 44.5981 63.6279 44.4099 63.6342 44.1668C63.6374 44.091 63.639 43.9825 63.639 43.8413C63.639 43.6976 63.6374 43.5904 63.6342 43.5198C63.6279 43.2793 63.5611 43.0924 63.434 42.9591C63.31 42.8232 63.1272 42.7552 62.8856 42.7552C62.644 42.7552 62.4612 42.8232 62.3372 42.9591C62.2132 43.0924 62.148 43.2793 62.1417 43.5198L62.1369 43.8413L62.1417 44.1668C62.148 44.4099 62.2132 44.5981 62.3372 44.7314C62.4612 44.8647 62.644 44.9314 62.8856 44.9314Z" stroke="black" stroke-width="0.6"/>
<path d="M65.7124 45.2176C65.6806 45.2176 65.6552 45.2097 65.6361 45.1941C65.6171 45.1758 65.6075 45.1535 65.6075 45.1274V42.916L64.8064 43.4218C64.7842 43.4375 64.7603 43.4453 64.7349 43.4453C64.7063 43.4453 64.6792 43.4322 64.6538 43.4061L64.5394 43.2846C64.5235 43.2663 64.5155 43.248 64.5155 43.2297C64.5155 43.2009 64.5314 43.1774 64.5632 43.1591L65.598 42.5004C65.6329 42.4821 65.6743 42.4729 65.722 42.4729H65.9461C65.9779 42.4729 66.0033 42.4821 66.0224 42.5004C66.0446 42.5161 66.0558 42.537 66.0558 42.5631V45.1274C66.0558 45.1535 66.0446 45.1758 66.0224 45.1941C66.0033 45.2097 65.9779 45.2176 65.9461 45.2176H65.7124Z" stroke="black" stroke-width="0.6"/>
<path d="M66.7653 45.2176C66.7335 45.2176 66.7065 45.2097 66.6843 45.1941C66.6652 45.1758 66.6557 45.1535 66.6557 45.1274V45.0098C66.6557 44.9497 66.6954 44.8921 66.7749 44.8373L67.8144 43.9864C68.0497 43.8217 68.2118 43.6871 68.3008 43.5826C68.3898 43.478 68.4343 43.3669 68.4343 43.2493C68.4343 43.095 68.3819 42.9748 68.277 42.8885C68.1721 42.7997 68.0195 42.7552 67.8192 42.7552C67.6284 42.7552 67.4774 42.801 67.3662 42.8925C67.2549 42.984 67.1866 43.1068 67.1611 43.261C67.1548 43.2898 67.1389 43.312 67.1134 43.3277C67.088 43.3434 67.0626 43.3512 67.0371 43.3512H66.8083C66.7796 43.3512 66.7558 43.3434 66.7367 43.3277C66.7177 43.312 66.7081 43.2937 66.7081 43.2728C66.7145 43.1343 66.759 43.0009 66.8416 42.8729C66.9275 42.7422 67.053 42.6363 67.2184 42.5553C67.3837 42.4716 67.5839 42.4298 67.8192 42.4298C68.1752 42.4298 68.4423 42.5069 68.6203 42.6611C68.8015 42.8127 68.8921 43.0062 68.8921 43.2414C68.8921 43.4061 68.8428 43.5551 68.7443 43.6884C68.6489 43.8191 68.4979 43.9577 68.2913 44.104L67.3519 44.8882H68.854C68.8889 44.8882 68.9159 44.8961 68.935 44.9117C68.9541 44.9274 68.9636 44.9497 68.9636 44.9784V45.1274C68.9636 45.1535 68.9525 45.1758 68.9303 45.1941C68.9112 45.2097 68.8857 45.2176 68.854 45.2176H66.7653Z" stroke="black" stroke-width="0.6"/>
<path d="M70.6182 45.2568C70.3703 45.2568 70.1557 45.2241 69.9745 45.1588C69.7933 45.0908 69.655 45.0032 69.5596 44.8961C69.4674 44.7889 69.4182 44.6778 69.4118 44.5628C69.4118 44.5393 69.4213 44.521 69.4404 44.5079C69.4595 44.4922 69.4833 44.4844 69.5119 44.4844H69.7265C69.7615 44.4844 69.7901 44.4909 69.8124 44.504C69.8346 44.5144 69.8521 44.5366 69.8648 44.5706C69.9061 44.7039 69.9952 44.798 70.1318 44.8529C70.2717 44.9078 70.4354 44.9353 70.623 44.9353C70.8519 44.9353 71.0331 44.8908 71.1666 44.802C71.3033 44.7105 71.3717 44.5811 71.3717 44.4138C71.3717 44.0949 71.1348 43.9354 70.6612 43.9354H70.2129C70.1811 43.9354 70.1541 43.9276 70.1318 43.9119C70.1128 43.8936 70.1032 43.8714 70.1032 43.8453V43.7433C70.1032 43.7041 70.1207 43.6701 70.1557 43.6414L71.0856 42.7944H69.6741C69.6423 42.7944 69.6153 42.7866 69.593 42.7709C69.5739 42.7552 69.5644 42.7343 69.5644 42.7082V42.567C69.5644 42.5383 69.5739 42.5161 69.593 42.5004C69.6153 42.4821 69.6423 42.4729 69.6741 42.4729H71.5624C71.5974 42.4729 71.6244 42.4821 71.6435 42.5004C71.6657 42.5161 71.6769 42.5383 71.6769 42.567V42.6964C71.6769 42.7252 71.661 42.7552 71.6292 42.7866L70.6993 43.6453H70.7756C71.0999 43.6531 71.3558 43.7224 71.5433 43.8531C71.7341 43.9838 71.8294 44.1746 71.8294 44.4256C71.8294 44.5981 71.777 44.7471 71.6721 44.8725C71.5704 44.9954 71.4273 45.0908 71.2429 45.1588C71.0585 45.2241 70.8503 45.2568 70.6182 45.2568Z" stroke="black" stroke-width="0.6"/>
<path d="M77.1116 45.2022C76.7015 45.2022 76.4011 45.1042 76.2103 44.9082C76.0228 44.7095 75.9226 44.4507 75.9099 44.1318L75.9052 43.7946L75.9099 43.4457C75.9195 43.1294 76.0196 42.8732 76.2103 42.6772C76.4043 42.4785 76.7047 42.3792 77.1116 42.3792C77.5217 42.3792 77.8221 42.4785 78.0128 42.6772C78.2068 42.8732 78.3085 43.1294 78.318 43.4457C78.3212 43.5189 78.3228 43.6352 78.3228 43.7946C78.3228 43.9488 78.3212 44.0612 78.318 44.1318C78.3053 44.4507 78.2036 44.7095 78.0128 44.9082C77.8253 45.1042 77.5249 45.2022 77.1116 45.2022ZM77.1116 44.8768C77.3564 44.8768 77.5408 44.8101 77.6647 44.6768C77.7887 44.5435 77.8539 44.3553 77.8603 44.1122C77.8634 44.0364 77.865 43.9279 77.865 43.7868C77.865 43.643 77.8634 43.5358 77.8603 43.4653C77.8539 43.2248 77.7871 43.0379 77.66 42.9046C77.536 42.7686 77.3532 42.7007 77.1116 42.7007C76.87 42.7007 76.6872 42.7686 76.5632 42.9046C76.4392 43.0379 76.3741 43.2248 76.3677 43.4653L76.3629 43.7868L76.3677 44.1122C76.3741 44.3553 76.4392 44.5435 76.5632 44.6768C76.6872 44.8101 76.87 44.8768 77.1116 44.8768Z" stroke="black" stroke-width="0.6"/>
<path d="M79.9384 45.163C79.9067 45.163 79.8812 45.1552 79.8621 45.1395C79.8431 45.1212 79.8335 45.099 79.8335 45.0728V42.8614L79.0324 43.3672C79.0102 43.3829 78.9863 43.3908 78.9609 43.3908C78.9323 43.3908 78.9053 43.3777 78.8798 43.3516L78.7654 43.23C78.7495 43.2117 78.7415 43.1934 78.7415 43.1751C78.7415 43.1464 78.7574 43.1228 78.7892 43.1045L79.824 42.4458C79.859 42.4275 79.9003 42.4184 79.948 42.4184H80.1721C80.2039 42.4184 80.2293 42.4275 80.2484 42.4458C80.2706 42.4615 80.2818 42.4824 80.2818 42.5086V45.0728C80.2818 45.099 80.2706 45.1212 80.2484 45.1395C80.2293 45.1552 80.2039 45.163 80.1721 45.163H79.9384Z" stroke="black" stroke-width="0.6"/>
<path d="M80.9914 45.163C80.9596 45.163 80.9325 45.1552 80.9103 45.1395C80.8912 45.1212 80.8817 45.099 80.8817 45.0728V44.9552C80.8817 44.8951 80.9214 44.8376 81.0009 44.7827L82.0404 43.9319C82.2757 43.7672 82.4378 43.6326 82.5268 43.528C82.6158 43.4234 82.6603 43.3123 82.6603 43.1947C82.6603 43.0405 82.6079 42.9203 82.503 42.834C82.3981 42.7451 82.2455 42.7007 82.0452 42.7007C81.8545 42.7007 81.7035 42.7464 81.5922 42.8379C81.4809 42.9294 81.4126 43.0523 81.3871 43.2065C81.3808 43.2352 81.3649 43.2575 81.3395 43.2731C81.314 43.2888 81.2886 43.2967 81.2632 43.2967H81.0343C81.0057 43.2967 80.9818 43.2888 80.9627 43.2731C80.9437 43.2575 80.9341 43.2392 80.9341 43.2182C80.9405 43.0797 80.985 42.9464 81.0677 42.8183C81.1535 42.6876 81.2791 42.5817 81.4444 42.5007C81.6097 42.4171 81.81 42.3752 82.0452 42.3752C82.4013 42.3752 82.6683 42.4524 82.8463 42.6066C83.0275 42.7582 83.1181 42.9516 83.1181 43.1869C83.1181 43.3516 83.0688 43.5006 82.9703 43.6339C82.8749 43.7646 82.7239 43.9031 82.5173 44.0495L81.5779 44.8337H83.08C83.1149 44.8337 83.142 44.8415 83.161 44.8572C83.1801 44.8729 83.1896 44.8951 83.1896 44.9239V45.0728C83.1896 45.099 83.1785 45.1212 83.1563 45.1395C83.1372 45.1552 83.1118 45.163 83.08 45.163H80.9914Z" stroke="black" stroke-width="0.6"/>
<path d="M84.8443 45.2022C84.5963 45.2022 84.3817 45.1696 84.2005 45.1042C84.0193 45.0363 83.881 44.9487 83.7856 44.8415C83.6935 44.7343 83.6442 44.6232 83.6378 44.5082C83.6378 44.4847 83.6474 44.4664 83.6664 44.4533C83.6855 44.4377 83.7093 44.4298 83.738 44.4298H83.9525C83.9875 44.4298 84.0161 44.4364 84.0384 44.4494C84.0606 44.4599 84.0781 44.4821 84.0908 44.5161C84.1322 44.6494 84.2212 44.7435 84.3579 44.7984C84.4977 44.8533 84.6615 44.8807 84.849 44.8807C85.0779 44.8807 85.2591 44.8363 85.3926 44.7474C85.5293 44.6559 85.5977 44.5265 85.5977 44.3592C85.5977 44.0403 85.3608 43.8809 84.8872 43.8809H84.4389C84.4071 43.8809 84.3801 43.873 84.3579 43.8574C84.3388 43.8391 84.3293 43.8168 84.3293 43.7907V43.6888C84.3293 43.6495 84.3467 43.6156 84.3817 43.5868L85.3116 42.7399H83.9001C83.8683 42.7399 83.8413 42.732 83.819 42.7164C83.7999 42.7007 83.7904 42.6798 83.7904 42.6536V42.5125C83.7904 42.4837 83.7999 42.4615 83.819 42.4458C83.8413 42.4275 83.8683 42.4184 83.9001 42.4184H85.7884C85.8234 42.4184 85.8504 42.4275 85.8695 42.4458C85.8917 42.4615 85.9029 42.4837 85.9029 42.5125V42.6419C85.9029 42.6706 85.887 42.7007 85.8552 42.732L84.9253 43.5907H85.0016C85.3259 43.5986 85.5818 43.6678 85.7693 43.7985C85.9601 43.9292 86.0555 44.1201 86.0555 44.371C86.0555 44.5435 86.003 44.6925 85.8981 44.818C85.7964 44.9408 85.6533 45.0363 85.4689 45.1042C85.2845 45.1696 85.0763 45.2022 84.8443 45.2022Z" stroke="black" stroke-width="0.6"/>
<path d="M91.3376 45.2022C90.9275 45.2022 90.6271 45.1042 90.4364 44.9082C90.2488 44.7095 90.1487 44.4507 90.1359 44.1318L90.1312 43.7946L90.1359 43.4457C90.1455 43.1294 90.2456 42.8732 90.4364 42.6772C90.6303 42.4785 90.9307 42.3792 91.3376 42.3792C91.7477 42.3792 92.0481 42.4785 92.2389 42.6772C92.4328 42.8732 92.5345 43.1294 92.5441 43.4457C92.5472 43.5189 92.5488 43.6352 92.5488 43.7946C92.5488 43.9488 92.5472 44.0612 92.5441 44.1318C92.5313 44.4507 92.4296 44.7095 92.2389 44.9082C92.0513 45.1042 91.7509 45.2022 91.3376 45.2022ZM91.3376 44.8768C91.5824 44.8768 91.7668 44.8101 91.8908 44.6768C92.0147 44.5435 92.0799 44.3553 92.0863 44.1122C92.0895 44.0364 92.091 43.9279 92.091 43.7868C92.091 43.643 92.0895 43.5358 92.0863 43.4653C92.0799 43.2248 92.0132 43.0379 91.886 42.9046C91.762 42.7686 91.5792 42.7007 91.3376 42.7007C91.096 42.7007 90.9132 42.7686 90.7892 42.9046C90.6652 43.0379 90.6001 43.2248 90.5937 43.4653L90.589 43.7868L90.5937 44.1122C90.6001 44.3553 90.6652 44.5435 90.7892 44.6768C90.9132 44.8101 91.096 44.8768 91.3376 44.8768Z" stroke="black" stroke-width="0.6"/>
<path d="M94.1645 45.163C94.1327 45.163 94.1072 45.1552 94.0882 45.1395C94.0691 45.1212 94.0596 45.099 94.0596 45.0728V42.8614L93.2584 43.3672C93.2362 43.3829 93.2123 43.3908 93.1869 43.3908C93.1583 43.3908 93.1313 43.3777 93.1058 43.3516L92.9914 43.23C92.9755 43.2117 92.9676 43.1934 92.9676 43.1751C92.9676 43.1464 92.9835 43.1228 93.0152 43.1045L94.05 42.4458C94.085 42.4275 94.1263 42.4184 94.174 42.4184H94.3981C94.4299 42.4184 94.4553 42.4275 94.4744 42.4458C94.4967 42.4615 94.5078 42.4824 94.5078 42.5086V45.0728C94.5078 45.099 94.4967 45.1212 94.4744 45.1395C94.4553 45.1552 94.4299 45.163 94.3981 45.163H94.1645Z" stroke="black" stroke-width="0.6"/>
<path d="M95.2174 45.163C95.1856 45.163 95.1586 45.1552 95.1363 45.1395C95.1172 45.1212 95.1077 45.099 95.1077 45.0728V44.9552C95.1077 44.8951 95.1474 44.8376 95.2269 44.7827L96.2664 43.9319C96.5017 43.7672 96.6638 43.6326 96.7528 43.528C96.8419 43.4234 96.8864 43.3123 96.8864 43.1947C96.8864 43.0405 96.8339 42.9203 96.729 42.834C96.6241 42.7451 96.4715 42.7007 96.2712 42.7007C96.0805 42.7007 95.9295 42.7464 95.8182 42.8379C95.7069 42.9294 95.6386 43.0523 95.6132 43.2065C95.6068 43.2352 95.5909 43.2575 95.5655 43.2731C95.54 43.2888 95.5146 43.2967 95.4892 43.2967H95.2603C95.2317 43.2967 95.2078 43.2888 95.1888 43.2731C95.1697 43.2575 95.1601 43.2392 95.1601 43.2182C95.1665 43.0797 95.211 42.9464 95.2937 42.8183C95.3795 42.6876 95.5051 42.5817 95.6704 42.5007C95.8357 42.4171 96.036 42.3752 96.2712 42.3752C96.6273 42.3752 96.8943 42.4524 97.0723 42.6066C97.2535 42.7582 97.3441 42.9516 97.3441 43.1869C97.3441 43.3516 97.2949 43.5006 97.1963 43.6339C97.1009 43.7646 96.9499 43.9031 96.7433 44.0495L95.8039 44.8337H97.306C97.341 44.8337 97.368 44.8415 97.3871 44.8572C97.4061 44.8729 97.4157 44.8951 97.4157 44.9239V45.0728C97.4157 45.099 97.4045 45.1212 97.3823 45.1395C97.3632 45.1552 97.3378 45.163 97.306 45.163H95.2174Z" stroke="black" stroke-width="0.6"/>
<path d="M99.0703 45.2022C98.8223 45.2022 98.6077 45.1696 98.4265 45.1042C98.2453 45.0363 98.107 44.9487 98.0117 44.8415C97.9195 44.7343 97.8702 44.6232 97.8638 44.5082C97.8638 44.4847 97.8734 44.4664 97.8924 44.4533C97.9115 44.4377 97.9354 44.4298 97.964 44.4298H98.1786C98.2135 44.4298 98.2421 44.4364 98.2644 44.4494C98.2866 44.4599 98.3041 44.4821 98.3168 44.5161C98.3582 44.6494 98.4472 44.7435 98.5839 44.7984C98.7238 44.8533 98.8875 44.8807 99.075 44.8807C99.3039 44.8807 99.4851 44.8363 99.6187 44.7474C99.7553 44.6559 99.8237 44.5265 99.8237 44.3592C99.8237 44.0403 99.5869 43.8809 99.1132 43.8809H98.6649C98.6332 43.8809 98.6061 43.873 98.5839 43.8574C98.5648 43.8391 98.5553 43.8168 98.5553 43.7907V43.6888C98.5553 43.6495 98.5728 43.6156 98.6077 43.5868L99.5376 42.7399H98.1261C98.0943 42.7399 98.0673 42.732 98.045 42.7164C98.026 42.7007 98.0164 42.6798 98.0164 42.6536V42.5125C98.0164 42.4837 98.026 42.4615 98.045 42.4458C98.0673 42.4275 98.0943 42.4184 98.1261 42.4184H100.014C100.049 42.4184 100.076 42.4275 100.096 42.4458C100.118 42.4615 100.129 42.4837 100.129 42.5125V42.6419C100.129 42.6706 100.113 42.7007 100.081 42.732L99.1513 43.5907H99.2276C99.5519 43.5986 99.8078 43.6678 99.9954 43.7985C100.186 43.9292 100.281 44.1201 100.281 44.371C100.281 44.5435 100.229 44.6925 100.124 44.818C100.022 44.9408 99.8793 45.0363 99.695 45.1042C99.5106 45.1696 99.3023 45.2022 99.0703 45.2022Z" stroke="black" stroke-width="0.6"/>
<path d="M97.5951 28.3614C99.3177 28.3614 100.671 27.0069 100.671 25.283C100.671 23.5591 99.3177 22.2046 97.5951 22.2046C95.8725 22.2046 94.519 23.5591 94.519 25.283C94.519 27.0069 95.8725 28.3614 97.5951 28.3614Z" fill="#FFDA54"/>
<path d="M93.7528 28.3614C95.4754 28.3614 96.8289 27.0069 96.8289 25.283C96.8289 23.5591 95.4754 22.2046 93.7528 22.2046C92.0302 22.2046 90.6768 23.5591 90.6768 25.283C90.6768 27.0069 92.0302 28.3614 93.7528 28.3614Z" fill="black"/>
<path fill-rule="evenodd" clip-rule="evenodd" d="M63.3276 77.3177H3.98751C2.34731 77.3177 1 75.9691 1 74.3273V39.9665C1 38.3247 2.34731 36.9761 3.98751 36.9761H63.3276C64.9678 36.9761 66.3151 38.3247 66.3151 39.9665V74.3273C66.3151 75.9691 64.9678 77.3177 63.3276 77.3177Z" fill="white" stroke="#0E0F0F" stroke-width="2" stroke-miterlimit="10"/>
<path d="M10.4072 43.3171H10.7004V44.078V48.0085H10.4072V43.3171Z" stroke="#0E0F0F" stroke-width="2" stroke-miterlimit="10"/>
<mask id="path-26-inside-6" fill="white">
<path d="M14.7579 44.7822H12.3472V46.5431H14.7579V44.7822Z"/>
</mask>
<path d="M12.3472 44.7822V42.7822H10.3472V44.7822H12.3472ZM14.7579 44.7822H16.7579V42.7822H14.7579V44.7822ZM14.7579 46.5431V48.5431H16.7579V46.5431H14.7579ZM12.3472 46.5431H10.3472V48.5431H12.3472V46.5431ZM12.3472 46.7822H14.7579V42.7822H12.3472V46.7822ZM12.7579 44.7822V46.5431H16.7579V44.7822H12.7579ZM14.7579 44.5431H12.3472V48.5431H14.7579V44.5431ZM14.3472 46.5431V44.7822H10.3472V46.5431H14.3472Z" fill="#0E0F0F" mask="url(#path-26-inside-6)"/>
<mask id="path-28-inside-7" fill="white">
<path d="M8.70323 44.7822H6.29248V46.5431H8.70323V44.7822Z"/>
</mask>
<path d="M6.29248 44.7822V42.7822H4.29248V44.7822H6.29248ZM8.70323 44.7822H10.7032V42.7822H8.70323V44.7822ZM8.70323 46.5431V48.5431H10.7032V46.5431H8.70323ZM6.29248 46.5431H4.29248V48.5431H6.29248V46.5431ZM6.29248 46.7822H8.70323V42.7822H6.29248V46.7822ZM6.70323 44.7822V46.5431H10.7032V44.7822H6.70323ZM8.70323 44.5431H6.29248V48.5431H8.70323V44.5431ZM8.29248 46.5431V44.7822H4.29248V46.5431H8.29248Z" fill="#0E0F0F" mask="url(#path-28-inside-7)"/>
<mask id="path-30-inside-8" fill="white">
<path d="M12.3472 47.2476V49.0671H13.5819C14.2287 49.0671 14.7579 48.5389 14.7579 47.8932V47.2476H12.3472Z"/>
</mask>
<path d="M12.3472 47.2476V45.2476H10.3472V47.2476H12.3472ZM12.3472 49.0671H10.3472V51.0671H12.3472V49.0671ZM14.7579 47.2476H16.7579V45.2476H14.7579V47.2476ZM10.3472 47.2476V49.0671H14.3472V47.2476H10.3472ZM12.3472 51.0671H13.5819V47.0671H12.3472V51.0671ZM13.5819 51.0671C15.33 51.0671 16.7579 49.6467 16.7579 47.8932H12.7579C12.7579 47.431 13.1275 47.0671 13.5819 47.0671V51.0671ZM16.7579 47.8932V47.2476H12.7579V47.8932H16.7579ZM14.7579 45.2476H12.3472V49.2476H14.7579V45.2476Z" fill="#0E0F0F" mask="url(#path-30-inside-8)"/>
<mask id="path-32-inside-9" fill="white">
<path d="M8.70323 47.2476H6.29248V47.8932C6.29248 48.5389 6.82167 49.0671 7.46846 49.0671H8.76203V47.2476H8.70323Z"/>
</mask>
<path d="M6.29248 47.2476V45.2476H4.29248V47.2476H6.29248ZM8.76203 49.0671V51.0671H10.762V49.0671H8.76203ZM8.76203 47.2476H10.762V45.2476H8.76203V47.2476ZM8.70323 45.2476H6.29248V49.2476H8.70323V45.2476ZM4.29248 47.2476V47.8932H8.29248V47.2476H4.29248ZM4.29248 47.8932C4.29248 49.6467 5.72039 51.0671 7.46846 51.0671V47.0671C7.92295 47.0671 8.29248 47.431 8.29248 47.8932H4.29248ZM7.46846 51.0671H8.76203V47.0671H7.46846V51.0671ZM10.762 49.0671V47.2476H6.76203V49.0671H10.762ZM8.76203 45.2476H8.70323V49.2476H8.76203V45.2476Z" fill="#0E0F0F" mask="url(#path-32-inside-9)"/>
<mask id="path-34-inside-10" fill="white">
<path d="M8.70149 44.078V42.3171H7.40791C6.76112 42.3171 6.23193 42.8454 6.23193 43.4911V44.078H8.70149Z"/>
</mask>
<path d="M8.70149 44.078V46.078H10.7015V44.078H8.70149ZM8.70149 42.3171H10.7015V40.3171H8.70149V42.3171ZM6.23193 44.078H4.23193V46.078H6.23193V44.078ZM10.7015 44.078V42.3171H6.70149V44.078H10.7015ZM8.70149 40.3171H7.40791V44.3171H8.70149V40.3171ZM7.40791 40.3171C5.65987 40.3171 4.23193 41.7375 4.23193 43.4911H8.23193C8.23193 43.9533 7.86238 44.3171 7.40791 44.3171V40.3171ZM4.23193 43.4911V44.078H8.23193V43.4911H4.23193ZM6.23193 46.078H8.70149V42.078H6.23193V46.078Z" fill="#0E0F0F" mask="url(#path-34-inside-10)"/>
<path d="M8.93056 65.7915C8.52047 65.7915 8.22005 65.6934 8.02931 65.4974C7.84174 65.2987 7.74161 65.0399 7.72889 64.721L7.72412 64.3838L7.72889 64.0349C7.73843 63.7186 7.83857 63.4624 8.02931 63.2664C8.22323 63.0677 8.52364 62.9684 8.93056 62.9684C9.34065 62.9684 9.64107 63.0677 9.83181 63.2664C10.0257 63.4624 10.1275 63.7186 10.137 64.0349C10.1402 64.1081 10.1418 64.2244 10.1418 64.3838C10.1418 64.5381 10.1402 64.6505 10.137 64.721C10.1243 65.0399 10.0226 65.2987 9.83181 65.4974C9.64425 65.6934 9.34383 65.7915 8.93056 65.7915ZM8.93056 65.466C9.17534 65.466 9.35973 65.3994 9.48371 65.2661C9.60769 65.1327 9.67286 64.9445 9.67922 64.7014C9.6824 64.6256 9.68399 64.5172 9.68399 64.376C9.68399 64.2322 9.6824 64.1251 9.67922 64.0545C9.67286 63.814 9.6061 63.6271 9.47894 63.4938C9.35496 63.3579 9.17217 63.2899 8.93056 63.2899C8.68895 63.2899 8.50616 63.3579 8.38218 63.4938C8.2582 63.6271 8.19303 63.814 8.18667 64.0545L8.1819 64.376L8.18667 64.7014C8.19303 64.9445 8.2582 65.1327 8.38218 65.2661C8.50616 65.3994 8.68895 65.466 8.93056 65.466Z" fill="black"/>
<path d="M11.7574 65.7522C11.7256 65.7522 11.7002 65.7444 11.6811 65.7287C11.662 65.7104 11.6525 65.6882 11.6525 65.6621V63.4507L10.8514 63.9565C10.8291 63.9721 10.8053 63.98 10.7799 63.98C10.7512 63.98 10.7242 63.9669 10.6988 63.9408L10.5843 63.8192C10.5685 63.8009 10.5605 63.7826 10.5605 63.7643C10.5605 63.7356 10.5764 63.7121 10.6082 63.6938L11.643 63.035C11.6779 63.0167 11.7193 63.0076 11.7669 63.0076H11.9911C12.0229 63.0076 12.0483 63.0167 12.0674 63.035C12.0896 63.0507 12.1007 63.0716 12.1007 63.0978V65.6621C12.1007 65.6882 12.0896 65.7104 12.0674 65.7287C12.0483 65.7444 12.0229 65.7522 11.9911 65.7522H11.7574Z" fill="black"/>
<path d="M12.8103 65.7522C12.7785 65.7522 12.7515 65.7444 12.7293 65.7287C12.7102 65.7104 12.7006 65.6882 12.7006 65.6621V65.5444C12.7006 65.4843 12.7404 65.4268 12.8199 65.3719L13.8594 64.5211C14.0946 64.3564 14.2568 64.2218 14.3458 64.1172C14.4348 64.0127 14.4793 63.9016 14.4793 63.7839C14.4793 63.6297 14.4269 63.5095 14.3219 63.4232C14.217 63.3343 14.0644 63.2899 13.8642 63.2899C13.6734 63.2899 13.5224 63.3356 13.4112 63.4271C13.2999 63.5186 13.2315 63.6415 13.2061 63.7957C13.1997 63.8245 13.1839 63.8467 13.1584 63.8624C13.133 63.878 13.1076 63.8859 13.0821 63.8859H12.8532C12.8246 63.8859 12.8008 63.878 12.7817 63.8624C12.7626 63.8467 12.7531 63.8284 12.7531 63.8075C12.7595 63.6689 12.804 63.5356 12.8866 63.4075C12.9724 63.2768 13.098 63.171 13.2633 63.0899C13.4286 63.0063 13.6289 62.9645 13.8642 62.9645C14.2202 62.9645 14.4873 63.0416 14.6653 63.1958C14.8465 63.3474 14.9371 63.5408 14.9371 63.7761C14.9371 63.9408 14.8878 64.0898 14.7893 64.2231C14.6939 64.3538 14.5429 64.4923 14.3362 64.6387L13.3968 65.4229H14.8989C14.9339 65.4229 14.9609 65.4307 14.98 65.4464C14.9991 65.4621 15.0086 65.4843 15.0086 65.5131V65.6621C15.0086 65.6882 14.9975 65.7104 14.9752 65.7287C14.9562 65.7444 14.9307 65.7522 14.8989 65.7522H12.8103Z" fill="black"/>
<path d="M16.6632 65.7915C16.4153 65.7915 16.2007 65.7588 16.0195 65.6934C15.8383 65.6255 15.7 65.5379 15.6046 65.4307C15.5124 65.3236 15.4631 65.2125 15.4568 65.0975C15.4568 65.0739 15.4663 65.0556 15.4854 65.0426C15.5045 65.0269 15.5283 65.019 15.5569 65.019H15.7715C15.8065 65.019 15.8351 65.0256 15.8573 65.0386C15.8796 65.0491 15.8971 65.0713 15.9098 65.1053C15.9511 65.2386 16.0401 65.3327 16.1768 65.3876C16.3167 65.4425 16.4804 65.4699 16.668 65.4699C16.8969 65.4699 17.0781 65.4255 17.2116 65.3366C17.3483 65.2451 17.4166 65.1158 17.4166 64.9485C17.4166 64.6296 17.1798 64.4701 16.7061 64.4701H16.2579C16.2261 64.4701 16.1991 64.4623 16.1768 64.4466C16.1578 64.4283 16.1482 64.4061 16.1482 64.3799V64.278C16.1482 64.2388 16.1657 64.2048 16.2007 64.176L17.1305 63.3291H15.719C15.6873 63.3291 15.6602 63.3213 15.638 63.3056C15.6189 63.2899 15.6094 63.269 15.6094 63.2428V63.1017C15.6094 63.0729 15.6189 63.0507 15.638 63.035C15.6602 63.0167 15.6873 63.0076 15.719 63.0076H17.6074C17.6424 63.0076 17.6694 63.0167 17.6885 63.035C17.7107 63.0507 17.7218 63.0729 17.7218 63.1017V63.2311C17.7218 63.2598 17.7059 63.2899 17.6741 63.3213L16.7443 64.18H16.8206C17.1448 64.1878 17.4008 64.2571 17.5883 64.3878C17.7791 64.5185 17.8744 64.7093 17.8744 64.9602C17.8744 65.1327 17.822 65.2817 17.7171 65.4072C17.6153 65.5301 17.4723 65.6255 17.2879 65.6934C17.1035 65.7588 16.8953 65.7915 16.6632 65.7915Z" fill="black"/>
<path d="M23.1566 65.7915C22.7465 65.7915 22.4461 65.6934 22.2553 65.4974C22.0678 65.2987 21.9676 65.0399 21.9549 64.721L21.9501 64.3838L21.9549 64.0349C21.9644 63.7186 22.0646 63.4624 22.2553 63.2664C22.4492 63.0677 22.7497 62.9684 23.1566 62.9684C23.5667 62.9684 23.8671 63.0677 24.0578 63.2664C24.2517 63.4624 24.3535 63.7186 24.363 64.0349C24.3662 64.1081 24.3678 64.2244 24.3678 64.3838C24.3678 64.5381 24.3662 64.6505 24.363 64.721C24.3503 65.0399 24.2486 65.2987 24.0578 65.4974C23.8703 65.6934 23.5698 65.7915 23.1566 65.7915ZM23.1566 65.466C23.4014 65.466 23.5857 65.3994 23.7097 65.2661C23.8337 65.1327 23.8989 64.9445 23.9052 64.7014C23.9084 64.6256 23.91 64.5172 23.91 64.376C23.91 64.2322 23.9084 64.1251 23.9052 64.0545C23.8989 63.814 23.8321 63.6271 23.705 63.4938C23.581 63.3579 23.3982 63.2899 23.1566 63.2899C22.915 63.2899 22.7322 63.3579 22.6082 63.4938C22.4842 63.6271 22.419 63.814 22.4127 64.0545L22.4079 64.376L22.4127 64.7014C22.419 64.9445 22.4842 65.1327 22.6082 65.2661C22.7322 65.3994 22.915 65.466 23.1566 65.466Z" fill="black"/>
<path d="M25.9834 65.7522C25.9516 65.7522 25.9262 65.7444 25.9071 65.7287C25.8881 65.7104 25.8785 65.6882 25.8785 65.6621V63.4507L25.0774 63.9565C25.0551 63.9721 25.0313 63.98 25.0059 63.98C24.9773 63.98 24.9502 63.9669 24.9248 63.9408L24.8104 63.8192C24.7945 63.8009 24.7865 63.7826 24.7865 63.7643C24.7865 63.7356 24.8024 63.7121 24.8342 63.6938L25.869 63.035C25.9039 63.0167 25.9453 63.0076 25.993 63.0076H26.2171C26.2489 63.0076 26.2743 63.0167 26.2934 63.035C26.3156 63.0507 26.3268 63.0716 26.3268 63.0978V65.6621C26.3268 65.6882 26.3156 65.7104 26.2934 65.7287C26.2743 65.7444 26.2489 65.7522 26.2171 65.7522H25.9834Z" fill="black"/>
<path d="M27.0363 65.7522C27.0045 65.7522 26.9775 65.7444 26.9553 65.7287C26.9362 65.7104 26.9267 65.6882 26.9267 65.6621V65.5444C26.9267 65.4843 26.9664 65.4268 27.0459 65.3719L28.0854 64.5211C28.3207 64.3564 28.4828 64.2218 28.5718 64.1172C28.6608 64.0127 28.7053 63.9016 28.7053 63.7839C28.7053 63.6297 28.6529 63.5095 28.548 63.4232C28.4431 63.3343 28.2905 63.2899 28.0902 63.2899C27.8994 63.2899 27.7484 63.3356 27.6372 63.4271C27.5259 63.5186 27.4576 63.6415 27.4321 63.7957C27.4258 63.8245 27.4099 63.8467 27.3844 63.8624C27.359 63.878 27.3336 63.8859 27.3081 63.8859H27.0793C27.0506 63.8859 27.0268 63.878 27.0077 63.8624C26.9887 63.8467 26.9791 63.8284 26.9791 63.8075C26.9855 63.6689 27.03 63.5356 27.1126 63.4075C27.1985 63.2768 27.324 63.171 27.4893 63.0899C27.6547 63.0063 27.8549 62.9645 28.0902 62.9645C28.4462 62.9645 28.7133 63.0416 28.8913 63.1958C29.0725 63.3474 29.1631 63.5408 29.1631 63.7761C29.1631 63.9408 29.1138 64.0898 29.0153 64.2231C28.9199 64.3538 28.7689 64.4923 28.5623 64.6387L27.6229 65.4229H29.125C29.1599 65.4229 29.1869 65.4307 29.206 65.4464C29.2251 65.4621 29.2346 65.4843 29.2346 65.5131V65.6621C29.2346 65.6882 29.2235 65.7104 29.2013 65.7287C29.1822 65.7444 29.1567 65.7522 29.125 65.7522H27.0363Z" fill="black"/>
<path d="M30.8892 65.7915C30.6413 65.7915 30.4267 65.7588 30.2455 65.6934C30.0643 65.6255 29.926 65.5379 29.8306 65.4307C29.7384 65.3236 29.6892 65.2125 29.6828 65.0975C29.6828 65.0739 29.6923 65.0556 29.7114 65.0426C29.7305 65.0269 29.7543 65.019 29.7829 65.019H29.9975C30.0325 65.019 30.0611 65.0256 30.0834 65.0386C30.1056 65.0491 30.1231 65.0713 30.1358 65.1053C30.1771 65.2386 30.2661 65.3327 30.4028 65.3876C30.5427 65.4425 30.7064 65.4699 30.894 65.4699C31.1229 65.4699 31.3041 65.4255 31.4376 65.3366C31.5743 65.2451 31.6427 65.1158 31.6427 64.9485C31.6427 64.6296 31.4058 64.4701 30.9322 64.4701H30.4839C30.4521 64.4701 30.4251 64.4623 30.4028 64.4466C30.3838 64.4283 30.3742 64.4061 30.3742 64.3799V64.278C30.3742 64.2388 30.3917 64.2048 30.4267 64.176L31.3566 63.3291H29.9451C29.9133 63.3291 29.8863 63.3213 29.864 63.3056C29.8449 63.2899 29.8354 63.269 29.8354 63.2428V63.1017C29.8354 63.0729 29.8449 63.0507 29.864 63.035C29.8863 63.0167 29.9133 63.0076 29.9451 63.0076H31.8334C31.8684 63.0076 31.8954 63.0167 31.9145 63.035C31.9367 63.0507 31.9479 63.0729 31.9479 63.1017V63.2311C31.9479 63.2598 31.932 63.2899 31.9002 63.3213L30.9703 64.18H31.0466C31.3709 64.1878 31.6268 64.2571 31.8143 64.3878C32.0051 64.5185 32.1004 64.7093 32.1004 64.9602C32.1004 65.1327 32.048 65.2817 31.9431 65.4072C31.8414 65.5301 31.6983 65.6255 31.5139 65.6934C31.3295 65.7588 31.1213 65.7915 30.8892 65.7915Z" fill="black"/>
<path d="M37.3826 65.7369C36.9725 65.7369 36.6721 65.6389 36.4813 65.4428C36.2938 65.2442 36.1936 64.9854 36.1809 64.6665L36.1762 64.3293L36.1809 63.9803C36.1905 63.664 36.2906 63.4079 36.4813 63.2118C36.6753 63.0132 36.9757 62.9138 37.3826 62.9138C37.7927 62.9138 38.0931 63.0132 38.2838 63.2118C38.4778 63.4079 38.5795 63.664 38.589 63.9803C38.5922 64.0535 38.5938 64.1698 38.5938 64.3293C38.5938 64.4835 38.5922 64.5959 38.589 64.6665C38.5763 64.9854 38.4746 65.2442 38.2838 65.4428C38.0963 65.6389 37.7959 65.7369 37.3826 65.7369ZM37.3826 65.4115C37.6274 65.4115 37.8118 65.3448 37.9357 65.2115C38.0597 65.0782 38.1249 64.89 38.1313 64.6469C38.1344 64.5711 38.136 64.4626 38.136 64.3214C38.136 64.1777 38.1344 64.0705 38.1313 63.9999C38.1249 63.7594 38.0581 63.5726 37.931 63.4392C37.807 63.3033 37.6242 63.2353 37.3826 63.2353C37.141 63.2353 36.9582 63.3033 36.8342 63.4392C36.7102 63.5726 36.6451 63.7594 36.6387 63.9999L36.6339 64.3214L36.6387 64.6469C36.6451 64.89 36.7102 65.0782 36.8342 65.2115C36.9582 65.3448 37.141 65.4115 37.3826 65.4115Z" fill="black"/>
<path d="M40.2094 65.6977C40.1777 65.6977 40.1522 65.6899 40.1331 65.6742C40.1141 65.6559 40.1045 65.6337 40.1045 65.6075V63.3961L39.3034 63.9019C39.2812 63.9176 39.2573 63.9254 39.2319 63.9254C39.2033 63.9254 39.1763 63.9124 39.1508 63.8862L39.0364 63.7647C39.0205 63.7464 39.0125 63.7281 39.0125 63.7098C39.0125 63.681 39.0284 63.6575 39.0602 63.6392L40.095 62.9805C40.13 62.9622 40.1713 62.953 40.219 62.953H40.4431C40.4749 62.953 40.5003 62.9622 40.5194 62.9805C40.5416 62.9962 40.5528 63.0171 40.5528 63.0432V65.6075C40.5528 65.6337 40.5416 65.6559 40.5194 65.6742C40.5003 65.6899 40.4749 65.6977 40.4431 65.6977H40.2094Z" fill="black"/>
<path d="M41.2624 65.6977C41.2306 65.6977 41.2035 65.6899 41.1813 65.6742C41.1622 65.6559 41.1527 65.6337 41.1527 65.6075V65.4899C41.1527 65.4298 41.1924 65.3723 41.2719 65.3174L42.3114 64.4665C42.5467 64.3018 42.7088 64.1672 42.7978 64.0627C42.8868 63.9581 42.9313 63.847 42.9313 63.7294C42.9313 63.5752 42.8789 63.4549 42.774 63.3687C42.6691 63.2798 42.5165 63.2353 42.3162 63.2353C42.1255 63.2353 41.9745 63.2811 41.8632 63.3726C41.7519 63.4641 41.6836 63.5869 41.6581 63.7412C41.6518 63.7699 41.6359 63.7921 41.6105 63.8078C41.585 63.8235 41.5596 63.8313 41.5342 63.8313H41.3053C41.2767 63.8313 41.2528 63.8235 41.2337 63.8078C41.2147 63.7921 41.2051 63.7738 41.2051 63.7529C41.2115 63.6144 41.256 63.4811 41.3386 63.353C41.4245 63.2223 41.5501 63.1164 41.7154 63.0354C41.8807 62.9517 42.081 62.9099 42.3162 62.9099C42.6722 62.9099 42.9393 62.987 43.1173 63.1412C43.2985 63.2929 43.3891 63.4863 43.3891 63.7215C43.3891 63.8862 43.3398 64.0352 43.2413 64.1685C43.1459 64.2992 42.9949 64.4378 42.7883 64.5842L41.8489 65.3683H43.351C43.3859 65.3683 43.413 65.3762 43.432 65.3919C43.4511 65.4075 43.4606 65.4298 43.4606 65.4585V65.6075C43.4606 65.6337 43.4495 65.6559 43.4273 65.6742C43.4082 65.6899 43.3828 65.6977 43.351 65.6977H41.2624Z" fill="black"/>
<path d="M45.1153 65.7369C44.8673 65.7369 44.6527 65.7042 44.4715 65.6389C44.2903 65.5709 44.152 65.4834 44.0566 65.3762C43.9644 65.269 43.9152 65.1579 43.9088 65.0429C43.9088 65.0194 43.9184 65.0011 43.9374 64.988C43.9565 64.9723 43.9803 64.9645 44.009 64.9645H44.2235C44.2585 64.9645 44.2871 64.971 44.3094 64.9841C44.3316 64.9945 44.3491 65.0168 44.3618 65.0507C44.4032 65.1841 44.4922 65.2782 44.6289 65.3331C44.7687 65.3879 44.9325 65.4154 45.12 65.4154C45.3489 65.4154 45.5301 65.371 45.6636 65.2821C45.8003 65.1906 45.8687 65.0612 45.8687 64.8939C45.8687 64.575 45.6318 64.4156 45.1582 64.4156H44.7099C44.6781 64.4156 44.6511 64.4077 44.6289 64.392C44.6098 64.3737 44.6003 64.3515 44.6003 64.3254V64.2234C44.6003 64.1842 44.6177 64.1502 44.6527 64.1215L45.5826 63.2746H44.1711C44.1393 63.2746 44.1123 63.2667 44.09 63.251C44.0709 63.2353 44.0614 63.2144 44.0614 63.1883V63.0471C44.0614 63.0184 44.0709 62.9962 44.09 62.9805C44.1123 62.9622 44.1393 62.953 44.1711 62.953H46.0594C46.0944 62.953 46.1214 62.9622 46.1405 62.9805C46.1627 62.9962 46.1739 63.0184 46.1739 63.0471V63.1765C46.1739 63.2053 46.158 63.2353 46.1262 63.2667L45.1963 64.1254H45.2726C45.5969 64.1332 45.8528 64.2025 46.0403 64.3332C46.2311 64.4639 46.3265 64.6547 46.3265 64.9057C46.3265 65.0782 46.274 65.2272 46.1691 65.3527C46.0674 65.4755 45.9243 65.5709 45.7399 65.6389C45.5555 65.7042 45.3473 65.7369 45.1153 65.7369Z" fill="black"/>
<path d="M51.6086 65.7369C51.1985 65.7369 50.8981 65.6389 50.7074 65.4428C50.5198 65.2442 50.4197 64.9854 50.4069 64.6665L50.4022 64.3293L50.4069 63.9803C50.4165 63.664 50.5166 63.4079 50.7074 63.2118C50.9013 63.0132 51.2017 62.9138 51.6086 62.9138C52.0187 62.9138 52.3191 63.0132 52.5099 63.2118C52.7038 63.4079 52.8055 63.664 52.815 63.9803C52.8182 64.0535 52.8198 64.1698 52.8198 64.3293C52.8198 64.4835 52.8182 64.5959 52.815 64.6665C52.8023 64.9854 52.7006 65.2442 52.5099 65.4428C52.3223 65.6389 52.0219 65.7369 51.6086 65.7369ZM51.6086 65.4115C51.8534 65.4115 52.0378 65.3448 52.1618 65.2115C52.2857 65.0782 52.3509 64.89 52.3573 64.6469C52.3604 64.5711 52.362 64.4626 52.362 64.3214C52.362 64.1777 52.3604 64.0705 52.3573 63.9999C52.3509 63.7594 52.2842 63.5726 52.157 63.4392C52.033 63.3033 51.8502 63.2353 51.6086 63.2353C51.367 63.2353 51.1842 63.3033 51.0602 63.4392C50.9362 63.5726 50.8711 63.7594 50.8647 63.9999L50.86 64.3214L50.8647 64.6469C50.8711 64.89 50.9362 65.0782 51.0602 65.2115C51.1842 65.3448 51.367 65.4115 51.6086 65.4115Z" fill="black"/>
<path d="M54.4355 65.6977C54.4037 65.6977 54.3782 65.6899 54.3592 65.6742C54.3401 65.6559 54.3305 65.6337 54.3305 65.6075V63.3961L53.5294 63.9019C53.5072 63.9176 53.4833 63.9254 53.4579 63.9254C53.4293 63.9254 53.4023 63.9124 53.3768 63.8862L53.2624 63.7647C53.2465 63.7464 53.2386 63.7281 53.2386 63.7098C53.2386 63.681 53.2545 63.6575 53.2862 63.6392L54.321 62.9805C54.356 62.9622 54.3973 62.953 54.445 62.953H54.6691C54.7009 62.953 54.7263 62.9622 54.7454 62.9805C54.7677 62.9962 54.7788 63.0171 54.7788 63.0432V65.6075C54.7788 65.6337 54.7677 65.6559 54.7454 65.6742C54.7263 65.6899 54.7009 65.6977 54.6691 65.6977H54.4355Z" fill="black"/>
<path d="M55.4884 65.6977C55.4566 65.6977 55.4296 65.6899 55.4073 65.6742C55.3882 65.6559 55.3787 65.6337 55.3787 65.6075V65.4899C55.3787 65.4298 55.4184 65.3723 55.4979 65.3174L56.5374 64.4665C56.7727 64.3018 56.9348 64.1672 57.0238 64.0627C57.1128 63.9581 57.1574 63.847 57.1574 63.7294C57.1574 63.5752 57.1049 63.4549 57 63.3687C56.8951 63.2798 56.7425 63.2353 56.5422 63.2353C56.3515 63.2353 56.2005 63.2811 56.0892 63.3726C55.9779 63.4641 55.9096 63.5869 55.8842 63.7412C55.8778 63.7699 55.8619 63.7921 55.8365 63.8078C55.811 63.8235 55.7856 63.8313 55.7602 63.8313H55.5313C55.5027 63.8313 55.4788 63.8235 55.4598 63.8078C55.4407 63.7921 55.4311 63.7738 55.4311 63.7529C55.4375 63.6144 55.482 63.4811 55.5647 63.353C55.6505 63.2223 55.7761 63.1164 55.9414 63.0354C56.1067 62.9517 56.307 62.9099 56.5422 62.9099C56.8983 62.9099 57.1653 62.987 57.3433 63.1412C57.5245 63.2929 57.6151 63.4863 57.6151 63.7215C57.6151 63.8862 57.5659 64.0352 57.4673 64.1685C57.3719 64.2992 57.2209 64.4378 57.0143 64.5842L56.0749 65.3683H57.577C57.612 65.3683 57.639 65.3762 57.6581 65.3919C57.6771 65.4075 57.6867 65.4298 57.6867 65.4585V65.6075C57.6867 65.6337 57.6755 65.6559 57.6533 65.6742C57.6342 65.6899 57.6088 65.6977 57.577 65.6977H55.4884Z" fill="black"/>
<path d="M59.3413 65.7369C59.0933 65.7369 58.8787 65.7042 58.6975 65.6389C58.5163 65.5709 58.378 65.4834 58.2827 65.3762C58.1905 65.269 58.1412 65.1579 58.1348 65.0429C58.1348 65.0194 58.1444 65.0011 58.1634 64.988C58.1825 64.9723 58.2064 64.9645 58.235 64.9645H58.4496C58.4845 64.9645 58.5131 64.971 58.5354 64.9841C58.5576 64.9945 58.5751 65.0168 58.5878 65.0507C58.6292 65.1841 58.7182 65.2782 58.8549 65.3331C58.9948 65.3879 59.1585 65.4154 59.346 65.4154C59.5749 65.4154 59.7561 65.371 59.8896 65.2821C60.0263 65.1906 60.0947 65.0612 60.0947 64.8939C60.0947 64.575 59.8579 64.4156 59.3842 64.4156H58.9359C58.9042 64.4156 58.8771 64.4077 58.8549 64.392C58.8358 64.3737 58.8263 64.3515 58.8263 64.3254V64.2234C58.8263 64.1842 58.8438 64.1502 58.8787 64.1215L59.8086 63.2746H58.3971C58.3653 63.2746 58.3383 63.2667 58.316 63.251C58.297 63.2353 58.2874 63.2144 58.2874 63.1883V63.0471C58.2874 63.0184 58.297 62.9962 58.316 62.9805C58.3383 62.9622 58.3653 62.953 58.3971 62.953H60.2854C60.3204 62.953 60.3474 62.9622 60.3665 62.9805C60.3888 62.9962 60.3999 63.0184 60.3999 63.0471V63.1765C60.3999 63.2053 60.384 63.2353 60.3522 63.2667L59.4223 64.1254H59.4986C59.8229 64.1332 60.0788 64.2025 60.2664 64.3332C60.4571 64.4639 60.5525 64.6547 60.5525 64.9057C60.5525 65.0782 60.5 65.2272 60.3951 65.3527C60.2934 65.4755 60.1503 65.5709 59.9659 65.6389C59.7816 65.7042 59.5733 65.7369 59.3413 65.7369Z" fill="black"/>
<path d="M8.93056 65.7915C8.52047 65.7915 8.22005 65.6934 8.02931 65.4974C7.84174 65.2987 7.74161 65.0399 7.72889 64.721L7.72412 64.3838L7.72889 64.0349C7.73843 63.7186 7.83857 63.4624 8.02931 63.2664C8.22323 63.0677 8.52364 62.9684 8.93056 62.9684C9.34065 62.9684 9.64107 63.0677 9.83181 63.2664C10.0257 63.4624 10.1275 63.7186 10.137 64.0349C10.1402 64.1081 10.1418 64.2244 10.1418 64.3838C10.1418 64.5381 10.1402 64.6505 10.137 64.721C10.1243 65.0399 10.0226 65.2987 9.83181 65.4974C9.64425 65.6934 9.34383 65.7915 8.93056 65.7915ZM8.93056 65.466C9.17534 65.466 9.35973 65.3994 9.48371 65.2661C9.60769 65.1327 9.67286 64.9445 9.67922 64.7014C9.6824 64.6256 9.68399 64.5172 9.68399 64.376C9.68399 64.2322 9.6824 64.1251 9.67922 64.0545C9.67286 63.814 9.6061 63.6271 9.47894 63.4938C9.35496 63.3579 9.17217 63.2899 8.93056 63.2899C8.68895 63.2899 8.50616 63.3579 8.38218 63.4938C8.2582 63.6271 8.19303 63.814 8.18667 64.0545L8.1819 64.376L8.18667 64.7014C8.19303 64.9445 8.2582 65.1327 8.38218 65.2661C8.50616 65.3994 8.68895 65.466 8.93056 65.466Z" stroke="black" stroke-width="0.6"/>
<path d="M11.7574 65.7522C11.7256 65.7522 11.7002 65.7444 11.6811 65.7287C11.662 65.7104 11.6525 65.6882 11.6525 65.6621V63.4507L10.8514 63.9565C10.8291 63.9721 10.8053 63.98 10.7799 63.98C10.7512 63.98 10.7242 63.9669 10.6988 63.9408L10.5843 63.8192C10.5685 63.8009 10.5605 63.7826 10.5605 63.7643C10.5605 63.7356 10.5764 63.7121 10.6082 63.6938L11.643 63.035C11.6779 63.0167 11.7193 63.0076 11.7669 63.0076H11.9911C12.0229 63.0076 12.0483 63.0167 12.0674 63.035C12.0896 63.0507 12.1007 63.0716 12.1007 63.0978V65.6621C12.1007 65.6882 12.0896 65.7104 12.0674 65.7287C12.0483 65.7444 12.0229 65.7522 11.9911 65.7522H11.7574Z" stroke="black" stroke-width="0.6"/>
<path d="M12.8103 65.7522C12.7785 65.7522 12.7515 65.7444 12.7293 65.7287C12.7102 65.7104 12.7006 65.6882 12.7006 65.6621V65.5444C12.7006 65.4843 12.7404 65.4268 12.8199 65.3719L13.8594 64.5211C14.0946 64.3564 14.2568 64.2218 14.3458 64.1172C14.4348 64.0127 14.4793 63.9016 14.4793 63.7839C14.4793 63.6297 14.4269 63.5095 14.3219 63.4232C14.217 63.3343 14.0644 63.2899 13.8642 63.2899C13.6734 63.2899 13.5224 63.3356 13.4112 63.4271C13.2999 63.5186 13.2315 63.6415 13.2061 63.7957C13.1997 63.8245 13.1839 63.8467 13.1584 63.8624C13.133 63.878 13.1076 63.8859 13.0821 63.8859H12.8532C12.8246 63.8859 12.8008 63.878 12.7817 63.8624C12.7626 63.8467 12.7531 63.8284 12.7531 63.8075C12.7595 63.6689 12.804 63.5356 12.8866 63.4075C12.9724 63.2768 13.098 63.171 13.2633 63.0899C13.4286 63.0063 13.6289 62.9645 13.8642 62.9645C14.2202 62.9645 14.4873 63.0416 14.6653 63.1958C14.8465 63.3474 14.9371 63.5408 14.9371 63.7761C14.9371 63.9408 14.8878 64.0898 14.7893 64.2231C14.6939 64.3538 14.5429 64.4923 14.3362 64.6387L13.3968 65.4229H14.8989C14.9339 65.4229 14.9609 65.4307 14.98 65.4464C14.9991 65.4621 15.0086 65.4843 15.0086 65.5131V65.6621C15.0086 65.6882 14.9975 65.7104 14.9752 65.7287C14.9562 65.7444 14.9307 65.7522 14.8989 65.7522H12.8103Z" stroke="black" stroke-width="0.6"/>
<path d="M16.6632 65.7915C16.4153 65.7915 16.2007 65.7588 16.0195 65.6934C15.8383 65.6255 15.7 65.5379 15.6046 65.4307C15.5124 65.3236 15.4631 65.2125 15.4568 65.0975C15.4568 65.0739 15.4663 65.0556 15.4854 65.0426C15.5045 65.0269 15.5283 65.019 15.5569 65.019H15.7715C15.8065 65.019 15.8351 65.0256 15.8573 65.0386C15.8796 65.0491 15.8971 65.0713 15.9098 65.1053C15.9511 65.2386 16.0401 65.3327 16.1768 65.3876C16.3167 65.4425 16.4804 65.4699 16.668 65.4699C16.8969 65.4699 17.0781 65.4255 17.2116 65.3366C17.3483 65.2451 17.4166 65.1158 17.4166 64.9485C17.4166 64.6296 17.1798 64.4701 16.7061 64.4701H16.2579C16.2261 64.4701 16.1991 64.4623 16.1768 64.4466C16.1578 64.4283 16.1482 64.4061 16.1482 64.3799V64.278C16.1482 64.2388 16.1657 64.2048 16.2007 64.176L17.1305 63.3291H15.719C15.6873 63.3291 15.6602 63.3213 15.638 63.3056C15.6189 63.2899 15.6094 63.269 15.6094 63.2428V63.1017C15.6094 63.0729 15.6189 63.0507 15.638 63.035C15.6602 63.0167 15.6873 63.0076 15.719 63.0076H17.6074C17.6424 63.0076 17.6694 63.0167 17.6885 63.035C17.7107 63.0507 17.7218 63.0729 17.7218 63.1017V63.2311C17.7218 63.2598 17.7059 63.2899 17.6741 63.3213L16.7443 64.18H16.8206C17.1448 64.1878 17.4008 64.2571 17.5883 64.3878C17.7791 64.5185 17.8744 64.7093 17.8744 64.9602C17.8744 65.1327 17.822 65.2817 17.7171 65.4072C17.6153 65.5301 17.4723 65.6255 17.2879 65.6934C17.1035 65.7588 16.8953 65.7915 16.6632 65.7915Z" stroke="black" stroke-width="0.6"/>
<path d="M23.1566 65.7915C22.7465 65.7915 22.4461 65.6934 22.2553 65.4974C22.0678 65.2987 21.9676 65.0399 21.9549 64.721L21.9501 64.3838L21.9549 64.0349C21.9644 63.7186 22.0646 63.4624 22.2553 63.2664C22.4492 63.0677 22.7497 62.9684 23.1566 62.9684C23.5667 62.9684 23.8671 63.0677 24.0578 63.2664C24.2517 63.4624 24.3535 63.7186 24.363 64.0349C24.3662 64.1081 24.3678 64.2244 24.3678 64.3838C24.3678 64.5381 24.3662 64.6505 24.363 64.721C24.3503 65.0399 24.2486 65.2987 24.0578 65.4974C23.8703 65.6934 23.5698 65.7915 23.1566 65.7915ZM23.1566 65.466C23.4014 65.466 23.5857 65.3994 23.7097 65.2661C23.8337 65.1327 23.8989 64.9445 23.9052 64.7014C23.9084 64.6256 23.91 64.5172 23.91 64.376C23.91 64.2322 23.9084 64.1251 23.9052 64.0545C23.8989 63.814 23.8321 63.6271 23.705 63.4938C23.581 63.3579 23.3982 63.2899 23.1566 63.2899C22.915 63.2899 22.7322 63.3579 22.6082 63.4938C22.4842 63.6271 22.419 63.814 22.4127 64.0545L22.4079 64.376L22.4127 64.7014C22.419 64.9445 22.4842 65.1327 22.6082 65.2661C22.7322 65.3994 22.915 65.466 23.1566 65.466Z" stroke="black" stroke-width="0.6"/>
<path d="M25.9834 65.7522C25.9516 65.7522 25.9262 65.7444 25.9071 65.7287C25.8881 65.7104 25.8785 65.6882 25.8785 65.6621V63.4507L25.0774 63.9565C25.0551 63.9721 25.0313 63.98 25.0059 63.98C24.9773 63.98 24.9502 63.9669 24.9248 63.9408L24.8104 63.8192C24.7945 63.8009 24.7865 63.7826 24.7865 63.7643C24.7865 63.7356 24.8024 63.7121 24.8342 63.6938L25.869 63.035C25.9039 63.0167 25.9453 63.0076 25.993 63.0076H26.2171C26.2489 63.0076 26.2743 63.0167 26.2934 63.035C26.3156 63.0507 26.3268 63.0716 26.3268 63.0978V65.6621C26.3268 65.6882 26.3156 65.7104 26.2934 65.7287C26.2743 65.7444 26.2489 65.7522 26.2171 65.7522H25.9834Z" stroke="black" stroke-width="0.6"/>
<path d="M27.0363 65.7522C27.0045 65.7522 26.9775 65.7444 26.9553 65.7287C26.9362 65.7104 26.9267 65.6882 26.9267 65.6621V65.5444C26.9267 65.4843 26.9664 65.4268 27.0459 65.3719L28.0854 64.5211C28.3207 64.3564 28.4828 64.2218 28.5718 64.1172C28.6608 64.0127 28.7053 63.9016 28.7053 63.7839C28.7053 63.6297 28.6529 63.5095 28.548 63.4232C28.4431 63.3343 28.2905 63.2899 28.0902 63.2899C27.8994 63.2899 27.7484 63.3356 27.6372 63.4271C27.5259 63.5186 27.4576 63.6415 27.4321 63.7957C27.4258 63.8245 27.4099 63.8467 27.3844 63.8624C27.359 63.878 27.3336 63.8859 27.3081 63.8859H27.0793C27.0506 63.8859 27.0268 63.878 27.0077 63.8624C26.9887 63.8467 26.9791 63.8284 26.9791 63.8075C26.9855 63.6689 27.03 63.5356 27.1126 63.4075C27.1985 63.2768 27.324 63.171 27.4893 63.0899C27.6547 63.0063 27.8549 62.9645 28.0902 62.9645C28.4462 62.9645 28.7133 63.0416 28.8913 63.1958C29.0725 63.3474 29.1631 63.5408 29.1631 63.7761C29.1631 63.9408 29.1138 64.0898 29.0153 64.2231C28.9199 64.3538 28.7689 64.4923 28.5623 64.6387L27.6229 65.4229H29.125C29.1599 65.4229 29.1869 65.4307 29.206 65.4464C29.2251 65.4621 29.2346 65.4843 29.2346 65.5131V65.6621C29.2346 65.6882 29.2235 65.7104 29.2013 65.7287C29.1822 65.7444 29.1567 65.7522 29.125 65.7522H27.0363Z" stroke="black" stroke-width="0.6"/>
<path d="M30.8892 65.7915C30.6413 65.7915 30.4267 65.7588 30.2455 65.6934C30.0643 65.6255 29.926 65.5379 29.8306 65.4307C29.7384 65.3236 29.6892 65.2125 29.6828 65.0975C29.6828 65.0739 29.6923 65.0556 29.7114 65.0426C29.7305 65.0269 29.7543 65.019 29.7829 65.019H29.9975C30.0325 65.019 30.0611 65.0256 30.0834 65.0386C30.1056 65.0491 30.1231 65.0713 30.1358 65.1053C30.1771 65.2386 30.2661 65.3327 30.4028 65.3876C30.5427 65.4425 30.7064 65.4699 30.894 65.4699C31.1229 65.4699 31.3041 65.4255 31.4376 65.3366C31.5743 65.2451 31.6427 65.1158 31.6427 64.9485C31.6427 64.6296 31.4058 64.4701 30.9322 64.4701H30.4839C30.4521 64.4701 30.4251 64.4623 30.4028 64.4466C30.3838 64.4283 30.3742 64.4061 30.3742 64.3799V64.278C30.3742 64.2388 30.3917 64.2048 30.4267 64.176L31.3566 63.3291H29.9451C29.9133 63.3291 29.8863 63.3213 29.864 63.3056C29.8449 63.2899 29.8354 63.269 29.8354 63.2428V63.1017C29.8354 63.0729 29.8449 63.0507 29.864 63.035C29.8863 63.0167 29.9133 63.0076 29.9451 63.0076H31.8334C31.8684 63.0076 31.8954 63.0167 31.9145 63.035C31.9367 63.0507 31.9479 63.0729 31.9479 63.1017V63.2311C31.9479 63.2598 31.932 63.2899 31.9002 63.3213L30.9703 64.18H31.0466C31.3709 64.1878 31.6268 64.2571 31.8143 64.3878C32.0051 64.5185 32.1004 64.7093 32.1004 64.9602C32.1004 65.1327 32.048 65.2817 31.9431 65.4072C31.8414 65.5301 31.6983 65.6255 31.5139 65.6934C31.3295 65.7588 31.1213 65.7915 30.8892 65.7915Z" stroke="black" stroke-width="0.6"/>
<path d="M37.3826 65.7369C36.9725 65.7369 36.6721 65.6389 36.4813 65.4428C36.2938 65.2442 36.1936 64.9854 36.1809 64.6665L36.1762 64.3293L36.1809 63.9803C36.1905 63.664 36.2906 63.4079 36.4813 63.2118C36.6753 63.0132 36.9757 62.9138 37.3826 62.9138C37.7927 62.9138 38.0931 63.0132 38.2838 63.2118C38.4778 63.4079 38.5795 63.664 38.589 63.9803C38.5922 64.0535 38.5938 64.1698 38.5938 64.3293C38.5938 64.4835 38.5922 64.5959 38.589 64.6665C38.5763 64.9854 38.4746 65.2442 38.2838 65.4428C38.0963 65.6389 37.7959 65.7369 37.3826 65.7369ZM37.3826 65.4115C37.6274 65.4115 37.8118 65.3448 37.9357 65.2115C38.0597 65.0782 38.1249 64.89 38.1313 64.6469C38.1344 64.5711 38.136 64.4626 38.136 64.3214C38.136 64.1777 38.1344 64.0705 38.1313 63.9999C38.1249 63.7594 38.0581 63.5726 37.931 63.4392C37.807 63.3033 37.6242 63.2353 37.3826 63.2353C37.141 63.2353 36.9582 63.3033 36.8342 63.4392C36.7102 63.5726 36.6451 63.7594 36.6387 63.9999L36.6339 64.3214L36.6387 64.6469C36.6451 64.89 36.7102 65.0782 36.8342 65.2115C36.9582 65.3448 37.141 65.4115 37.3826 65.4115Z" stroke="black" stroke-width="0.6"/>
<path d="M40.2094 65.6977C40.1777 65.6977 40.1522 65.6899 40.1331 65.6742C40.1141 65.6559 40.1045 65.6337 40.1045 65.6075V63.3961L39.3034 63.9019C39.2812 63.9176 39.2573 63.9254 39.2319 63.9254C39.2033 63.9254 39.1763 63.9124 39.1508 63.8862L39.0364 63.7647C39.0205 63.7464 39.0125 63.7281 39.0125 63.7098C39.0125 63.681 39.0284 63.6575 39.0602 63.6392L40.095 62.9805C40.13 62.9622 40.1713 62.953 40.219 62.953H40.4431C40.4749 62.953 40.5003 62.9622 40.5194 62.9805C40.5416 62.9962 40.5528 63.0171 40.5528 63.0432V65.6075C40.5528 65.6337 40.5416 65.6559 40.5194 65.6742C40.5003 65.6899 40.4749 65.6977 40.4431 65.6977H40.2094Z" stroke="black" stroke-width="0.6"/>
<path d="M41.2624 65.6977C41.2306 65.6977 41.2035 65.6899 41.1813 65.6742C41.1622 65.6559 41.1527 65.6337 41.1527 65.6075V65.4899C41.1527 65.4298 41.1924 65.3723 41.2719 65.3174L42.3114 64.4665C42.5467 64.3018 42.7088 64.1672 42.7978 64.0627C42.8868 63.9581 42.9313 63.847 42.9313 63.7294C42.9313 63.5752 42.8789 63.4549 42.774 63.3687C42.6691 63.2798 42.5165 63.2353 42.3162 63.2353C42.1255 63.2353 41.9745 63.2811 41.8632 63.3726C41.7519 63.4641 41.6836 63.5869 41.6581 63.7412C41.6518 63.7699 41.6359 63.7921 41.6105 63.8078C41.585 63.8235 41.5596 63.8313 41.5342 63.8313H41.3053C41.2767 63.8313 41.2528 63.8235 41.2337 63.8078C41.2147 63.7921 41.2051 63.7738 41.2051 63.7529C41.2115 63.6144 41.256 63.4811 41.3386 63.353C41.4245 63.2223 41.5501 63.1164 41.7154 63.0354C41.8807 62.9517 42.081 62.9099 42.3162 62.9099C42.6722 62.9099 42.9393 62.987 43.1173 63.1412C43.2985 63.2929 43.3891 63.4863 43.3891 63.7215C43.3891 63.8862 43.3398 64.0352 43.2413 64.1685C43.1459 64.2992 42.9949 64.4378 42.7883 64.5842L41.8489 65.3683H43.351C43.3859 65.3683 43.413 65.3762 43.432 65.3919C43.4511 65.4075 43.4606 65.4298 43.4606 65.4585V65.6075C43.4606 65.6337 43.4495 65.6559 43.4273 65.6742C43.4082 65.6899 43.3828 65.6977 43.351 65.6977H41.2624Z" stroke="black" stroke-width="0.6"/>
<path d="M45.1153 65.7369C44.8673 65.7369 44.6527 65.7042 44.4715 65.6389C44.2903 65.5709 44.152 65.4834 44.0566 65.3762C43.9644 65.269 43.9152 65.1579 43.9088 65.0429C43.9088 65.0194 43.9184 65.0011 43.9374 64.988C43.9565 64.9723 43.9803 64.9645 44.009 64.9645H44.2235C44.2585 64.9645 44.2871 64.971 44.3094 64.9841C44.3316 64.9945 44.3491 65.0168 44.3618 65.0507C44.4032 65.1841 44.4922 65.2782 44.6289 65.3331C44.7687 65.3879 44.9325 65.4154 45.12 65.4154C45.3489 65.4154 45.5301 65.371 45.6636 65.2821C45.8003 65.1906 45.8687 65.0612 45.8687 64.8939C45.8687 64.575 45.6318 64.4156 45.1582 64.4156H44.7099C44.6781 64.4156 44.6511 64.4077 44.6289 64.392C44.6098 64.3737 44.6003 64.3515 44.6003 64.3254V64.2234C44.6003 64.1842 44.6177 64.1502 44.6527 64.1215L45.5826 63.2746H44.1711C44.1393 63.2746 44.1123 63.2667 44.09 63.251C44.0709 63.2353 44.0614 63.2144 44.0614 63.1883V63.0471C44.0614 63.0184 44.0709 62.9962 44.09 62.9805C44.1123 62.9622 44.1393 62.953 44.1711 62.953H46.0594C46.0944 62.953 46.1214 62.9622 46.1405 62.9805C46.1627 62.9962 46.1739 63.0184 46.1739 63.0471V63.1765C46.1739 63.2053 46.158 63.2353 46.1262 63.2667L45.1963 64.1254H45.2726C45.5969 64.1332 45.8528 64.2025 46.0403 64.3332C46.2311 64.4639 46.3265 64.6547 46.3265 64.9057C46.3265 65.0782 46.274 65.2272 46.1691 65.3527C46.0674 65.4755 45.9243 65.5709 45.7399 65.6389C45.5555 65.7042 45.3473 65.7369 45.1153 65.7369Z" stroke="black" stroke-width="0.6"/>
<path d="M51.6086 65.7369C51.1985 65.7369 50.8981 65.6389 50.7074 65.4428C50.5198 65.2442 50.4197 64.9854 50.4069 64.6665L50.4022 64.3293L50.4069 63.9803C50.4165 63.664 50.5166 63.4079 50.7074 63.2118C50.9013 63.0132 51.2017 62.9138 51.6086 62.9138C52.0187 62.9138 52.3191 63.0132 52.5099 63.2118C52.7038 63.4079 52.8055 63.664 52.815 63.9803C52.8182 64.0535 52.8198 64.1698 52.8198 64.3293C52.8198 64.4835 52.8182 64.5959 52.815 64.6665C52.8023 64.9854 52.7006 65.2442 52.5099 65.4428C52.3223 65.6389 52.0219 65.7369 51.6086 65.7369ZM51.6086 65.4115C51.8534 65.4115 52.0378 65.3448 52.1618 65.2115C52.2857 65.0782 52.3509 64.89 52.3573 64.6469C52.3604 64.5711 52.362 64.4626 52.362 64.3214C52.362 64.1777 52.3604 64.0705 52.3573 63.9999C52.3509 63.7594 52.2842 63.5726 52.157 63.4392C52.033 63.3033 51.8502 63.2353 51.6086 63.2353C51.367 63.2353 51.1842 63.3033 51.0602 63.4392C50.9362 63.5726 50.8711 63.7594 50.8647 63.9999L50.86 64.3214L50.8647 64.6469C50.8711 64.89 50.9362 65.0782 51.0602 65.2115C51.1842 65.3448 51.367 65.4115 51.6086 65.4115Z" stroke="black" stroke-width="0.6"/>
<path d="M54.4355 65.6977C54.4037 65.6977 54.3782 65.6899 54.3592 65.6742C54.3401 65.6559 54.3305 65.6337 54.3305 65.6075V63.3961L53.5294 63.9019C53.5072 63.9176 53.4833 63.9254 53.4579 63.9254C53.4293 63.9254 53.4023 63.9124 53.3768 63.8862L53.2624 63.7647C53.2465 63.7464 53.2386 63.7281 53.2386 63.7098C53.2386 63.681 53.2545 63.6575 53.2862 63.6392L54.321 62.9805C54.356 62.9622 54.3973 62.953 54.445 62.953H54.6691C54.7009 62.953 54.7263 62.9622 54.7454 62.9805C54.7677 62.9962 54.7788 63.0171 54.7788 63.0432V65.6075C54.7788 65.6337 54.7677 65.6559 54.7454 65.6742C54.7263 65.6899 54.7009 65.6977 54.6691 65.6977H54.4355Z" stroke="black" stroke-width="0.6"/>
<path d="M55.4884 65.6977C55.4566 65.6977 55.4296 65.6899 55.4073 65.6742C55.3882 65.6559 55.3787 65.6337 55.3787 65.6075V65.4899C55.3787 65.4298 55.4184 65.3723 55.4979 65.3174L56.5374 64.4665C56.7727 64.3018 56.9348 64.1672 57.0238 64.0627C57.1128 63.9581 57.1574 63.847 57.1574 63.7294C57.1574 63.5752 57.1049 63.4549 57 63.3687C56.8951 63.2798 56.7425 63.2353 56.5422 63.2353C56.3515 63.2353 56.2005 63.2811 56.0892 63.3726C55.9779 63.4641 55.9096 63.5869 55.8842 63.7412C55.8778 63.7699 55.8619 63.7921 55.8365 63.8078C55.811 63.8235 55.7856 63.8313 55.7602 63.8313H55.5313C55.5027 63.8313 55.4788 63.8235 55.4598 63.8078C55.4407 63.7921 55.4311 63.7738 55.4311 63.7529C55.4375 63.6144 55.482 63.4811 55.5647 63.353C55.6505 63.2223 55.7761 63.1164 55.9414 63.0354C56.1067 62.9517 56.307 62.9099 56.5422 62.9099C56.8983 62.9099 57.1653 62.987 57.3433 63.1412C57.5245 63.2929 57.6151 63.4863 57.6151 63.7215C57.6151 63.8862 57.5659 64.0352 57.4673 64.1685C57.3719 64.2992 57.2209 64.4378 57.0143 64.5842L56.0749 65.3683H57.577C57.612 65.3683 57.639 65.3762 57.6581 65.3919C57.6771 65.4075 57.6867 65.4298 57.6867 65.4585V65.6075C57.6867 65.6337 57.6755 65.6559 57.6533 65.6742C57.6342 65.6899 57.6088 65.6977 57.577 65.6977H55.4884Z" stroke="black" stroke-width="0.6"/>
<path d="M59.3413 65.7369C59.0933 65.7369 58.8787 65.7042 58.6975 65.6389C58.5163 65.5709 58.378 65.4834 58.2827 65.3762C58.1905 65.269 58.1412 65.1579 58.1348 65.0429C58.1348 65.0194 58.1444 65.0011 58.1634 64.988C58.1825 64.9723 58.2064 64.9645 58.235 64.9645H58.4496C58.4845 64.9645 58.5131 64.971 58.5354 64.9841C58.5576 64.9945 58.5751 65.0168 58.5878 65.0507C58.6292 65.1841 58.7182 65.2782 58.8549 65.3331C58.9948 65.3879 59.1585 65.4154 59.346 65.4154C59.5749 65.4154 59.7561 65.371 59.8896 65.2821C60.0263 65.1906 60.0947 65.0612 60.0947 64.8939C60.0947 64.575 59.8579 64.4156 59.3842 64.4156H58.9359C58.9042 64.4156 58.8771 64.4077 58.8549 64.392C58.8358 64.3737 58.8263 64.3515 58.8263 64.3254V64.2234C58.8263 64.1842 58.8438 64.1502 58.8787 64.1215L59.8086 63.2746H58.3971C58.3653 63.2746 58.3383 63.2667 58.316 63.251C58.297 63.2353 58.2874 63.2144 58.2874 63.1883V63.0471C58.2874 63.0184 58.297 62.9962 58.316 62.9805C58.3383 62.9622 58.3653 62.953 58.3971 62.953H60.2854C60.3204 62.953 60.3474 62.9622 60.3665 62.9805C60.3888 62.9962 60.3999 63.0184 60.3999 63.0471V63.1765C60.3999 63.2053 60.384 63.2353 60.3522 63.2667L59.4223 64.1254H59.4986C59.8229 64.1332 60.0788 64.2025 60.2664 64.3332C60.4571 64.4639 60.5525 64.6547 60.5525 64.9057C60.5525 65.0782 60.5 65.2272 60.3951 65.3527C60.2934 65.4755 60.1503 65.5709 59.9659 65.6389C59.7816 65.7042 59.5733 65.7369 59.3413 65.7369Z" stroke="black" stroke-width="0.6"/>
<path d="M57.8647 48.896C59.5873 48.896 60.9407 47.5415 60.9407 45.8176C60.9407 44.0937 59.5873 42.7393 57.8647 42.7393C56.142 42.7393 54.7886 44.0937 54.7886 45.8176C54.7886 47.5415 56.142 48.896 57.8647 48.896Z" fill="#FFDA54"/>
<path d="M54.0224 48.896C55.745 48.896 57.0984 47.5415 57.0984 45.8176C57.0984 44.0937 55.745 42.7393 54.0224 42.7393C52.2998 42.7393 50.9463 44.0937 50.9463 45.8176C50.9463 47.5415 52.2998 48.896 54.0224 48.896Z" fill="black"/>
</svg>
