<svg width="84" height="92" viewBox="0 0 84 92" fill="none" xmlns="http://www.w3.org/2000/svg">
<path d="M63.5144 83.865H14.1611V90.862H63.5144V83.865Z" stroke="white" stroke-width="2" stroke-miterlimit="10"/>
<path d="M63.5144 0.999023H14.1611V18.9716H63.5144V0.999023Z" fill="white" stroke="#010101" stroke-width="2" stroke-miterlimit="10" stroke-linecap="round"/>
<path d="M63.5144 80.9836H14.1611V90.9989H63.5144V80.9836Z" fill="white" stroke="#010101" stroke-width="2" stroke-miterlimit="10" stroke-linecap="round"/>
<path d="M57.0707 18.9717V12.5235C53.9176 12.5235 51.7241 10.054 51.7241 7.44727H26.6362C26.6362 10.3284 24.1685 12.5235 21.2896 12.5235V18.9717H57.0707Z" fill="white" stroke="#010101" stroke-width="2" stroke-miterlimit="10" stroke-linecap="round"/>
<path d="M38.4262 84.5508H1V18.697H76.4009V84.5508H49.942" fill="white"/>
<path d="M38.4262 84.5508H1V18.697H76.4009V84.5508H49.942" stroke="#010101" stroke-width="2" stroke-miterlimit="10" stroke-linecap="round"/>
<path d="M29.6523 25.5566H69.5462V77.6909H1V25.5566H16.6285" fill="white"/>
<path d="M29.6523 25.5566H69.5462V77.6909H1V25.5566H16.6285" stroke="#010101" stroke-width="2" stroke-miterlimit="10" stroke-linecap="round"/>
<path d="M82.57 39.999H40.7568V60.7155H82.57V39.999Z" fill="white" stroke="#010101" stroke-width="2" stroke-miterlimit="10" stroke-linecap="round"/>
<path d="M53.5059 53.8588C55.4252 53.8588 56.9332 52.3496 56.9332 50.4289C56.9332 48.5082 55.4252 46.999 53.5059 46.999C51.5866 46.999 50.0786 48.5082 50.0786 50.4289C50.0786 52.3496 51.5866 53.8588 53.5059 53.8588Z" fill="#FFDA54"/>
</svg>
