<svg width="99" height="80" viewBox="0 0 99 80" fill="none" xmlns="http://www.w3.org/2000/svg">
<path d="M85.4288 14.3656V0.999023H10.7563V69.6368H36.4743" fill="white"/>
<path d="M85.4288 14.3656V0.999023H10.7563V69.6368H36.4743" stroke="#010101" stroke-width="2" stroke-miterlimit="10" stroke-linecap="round"/>
<path d="M73.98 9.34619H11.2642" stroke="#010101" stroke-width="2" stroke-miterlimit="10" stroke-linecap="round"/>
<path d="M15.1565 6.18784C15.7484 6.18784 16.2281 5.70808 16.2281 5.11626C16.2281 4.52444 15.7484 4.04468 15.1565 4.04468C14.5647 4.04468 14.085 4.52444 14.085 5.11626C14.085 5.70808 14.5647 6.18784 15.1565 6.18784Z" fill="#010101"/>
<path d="M23.7845 6.18784C24.3763 6.18784 24.8561 5.70808 24.8561 5.11626C24.8561 4.52444 24.3763 4.04468 23.7845 4.04468C23.1927 4.04468 22.7129 4.52444 22.7129 5.11626C22.7129 5.70808 23.1927 6.18784 23.7845 6.18784Z" fill="#010101"/>
<path d="M19.556 6.18784C20.1478 6.18784 20.6275 5.70808 20.6275 5.11626C20.6275 4.52444 20.1478 4.04468 19.556 4.04468C18.9641 4.04468 18.4844 4.52444 18.4844 5.11626C18.4844 5.70808 18.9641 6.18784 19.556 6.18784Z" fill="#010101"/>
<path d="M10.757 9.28979H1V77.8711H31.2863" stroke="#010101" stroke-width="2" stroke-miterlimit="10" stroke-linecap="round"/>
<path d="M10.5309 17.6367H1.45068" stroke="#010101" stroke-width="2" stroke-miterlimit="10" stroke-linecap="round"/>
<path d="M5.73711 14.4784C6.32893 14.4784 6.80869 13.9986 6.80869 13.4068C6.80869 12.815 6.32893 12.3352 5.73711 12.3352C5.14529 12.3352 4.66553 12.815 4.66553 13.4068C4.66553 13.9986 5.14529 14.4784 5.73711 14.4784Z" fill="#010101"/>
<path d="M22.9391 23.2203C24.6834 23.2203 26.0975 21.8062 26.0975 20.0619C26.0975 18.3176 24.6834 16.9036 22.9391 16.9036C21.1948 16.9036 19.7808 18.3176 19.7808 20.0619C19.7808 21.8062 21.1948 23.2203 22.9391 23.2203Z" fill="#FFDA54"/>
<path d="M22.9391 34.7256C24.6834 34.7256 26.0975 33.3116 26.0975 31.5673C26.0975 29.823 24.6834 28.4089 22.9391 28.4089C21.1948 28.4089 19.7808 29.823 19.7808 31.5673C19.7808 33.3116 21.1948 34.7256 22.9391 34.7256Z" fill="#FFDA54"/>
<path d="M22.9391 46.1749C24.6834 46.1749 26.0975 44.7608 26.0975 43.0165C26.0975 41.2722 24.6834 39.8582 22.9391 39.8582C21.1948 39.8582 19.7808 41.2722 19.7808 43.0165C19.7808 44.7608 21.1948 46.1749 22.9391 46.1749Z" fill="#FFDA54"/>
<circle cx="66.3555" cy="47.5786" r="31.4141" fill="white"/>
<path d="M90.3927 67.2115C84.6964 74.3742 75.8982 78.9989 66.0283 78.9989C48.883 78.9989 35.0088 65.1248 35.0088 47.9794C35.0088 44.8211 35.46 41.7191 36.3624 38.8428" stroke="#010101" stroke-width="2" stroke-miterlimit="10" stroke-linecap="round"/>
<path d="M41.1001 29.5934C46.74 21.9795 55.8203 17.0164 66.0285 17.0164C83.1738 17.0164 97.048 30.8905 97.048 48.0359C97.048 55.3114 94.5665 61.9665 90.3929 67.268" stroke="#010101" stroke-width="2" stroke-miterlimit="10" stroke-linecap="round"/>
<path d="M93.3815 62.3614C85.2036 58.0751 75.8977 55.6499 66.0279 55.6499C56.1016 55.6499 46.7394 58.1315 38.5615 62.4742" stroke="#010101" stroke-width="2" stroke-miterlimit="10" stroke-linecap="round"/>
<path d="M66.0843 55.2551C73.155 55.2551 78.8869 49.5232 78.8869 42.4525C78.8869 35.3818 73.155 29.6499 66.0843 29.6499C59.0137 29.6499 53.2817 35.3818 53.2817 42.4525C53.2817 49.5232 59.0137 55.2551 66.0843 55.2551Z" stroke="#010101" stroke-width="2" stroke-miterlimit="10" stroke-linecap="round"/>
<path d="M61.459 55.8752L66.5349 66.8167L70.4828 55.8188" stroke="#010101" stroke-width="2" stroke-miterlimit="10"/>
</svg>
