<svg width="31" height="31" viewBox="0 0 31 31" fill="none" xmlns="http://www.w3.org/2000/svg">
<path d="M11.7656 0.557617C9.37813 0.557617 7.44438 2.29137 6.96063 4.54262C4.04562 5.06262 1.76562 7.49512 1.76562 10.5576C1.76562 10.8651 1.79938 11.1389 1.84438 11.4176C1.03813 12.6026 0.515625 13.9989 0.515625 15.5576C0.515625 17.8039 1.63438 19.6939 3.21063 21.0651C3.09813 21.5101 3.01562 21.9539 3.01562 22.4326C3.01562 25.5239 5.54938 28.0576 8.64062 28.0576H8.71937C9.44687 29.4689 10.7069 30.5576 12.3906 30.5576C12.9739 30.5563 13.551 30.438 14.0877 30.2098C14.6245 29.9816 15.11 29.648 15.5156 29.2289C15.9212 29.648 16.4068 29.9816 16.9435 30.2098C17.4803 30.438 18.0574 30.5563 18.6406 30.5576C20.3256 30.5576 21.5844 29.4689 22.3131 28.0576H22.3906C25.3256 28.0576 27.7319 25.7726 27.9769 22.9014H28.0156C28.0156 22.8226 27.9819 22.7451 27.9769 22.6664C27.9819 22.5889 28.0156 22.5101 28.0156 22.4326C28.0156 21.9689 27.8494 21.5726 27.7419 21.1439C29.3631 19.7664 30.5156 17.8439 30.5156 15.5576C30.5156 14.0001 29.9931 12.6039 29.1869 11.4164C29.2319 11.1389 29.2656 10.8664 29.2656 10.5576C29.2656 7.49512 26.9856 5.06387 24.0706 4.54137C23.5869 2.29262 21.6531 0.557617 19.2656 0.557617C17.7656 0.557617 16.4331 1.25637 15.5156 2.31512C14.5981 1.25762 13.2656 0.557617 11.7656 0.557617ZM11.7656 3.05762C13.1619 3.05762 14.2656 4.16137 14.2656 5.55762V8.05762C14.2656 10.1426 12.6006 11.8076 10.5156 11.8076V14.3076C11.9319 14.3076 13.2156 13.8201 14.2656 13.0189V26.1826C14.2656 27.2326 13.4406 28.0576 12.3906 28.0576C11.9533 28.0637 11.5281 27.9137 11.1915 27.6343C10.8549 27.355 10.629 26.9648 10.5544 26.5339L10.3206 25.3239L9.10938 25.5189C8.66431 25.5892 8.20929 25.5619 7.77582 25.4389C7.34234 25.3159 6.94079 25.1002 6.59896 24.8066C6.25713 24.5131 5.9832 24.1487 5.79614 23.7388C5.60908 23.3289 5.51337 22.8832 5.51562 22.4326C5.51562 22.0464 5.57812 21.6851 5.71063 21.3389C5.72062 21.3101 5.74063 21.2889 5.74938 21.2601C6.13688 20.2989 6.97563 19.5951 8.01562 19.3851L7.50812 16.9251C6.23236 17.1771 5.08513 17.8679 4.26562 18.8776C3.45288 17.9635 3.00757 16.7808 3.01562 15.5576C3.01349 14.4335 3.39988 13.3433 4.10938 12.4714L4.50063 12.0026L4.38312 11.3776C4.31229 11.1098 4.27286 10.8346 4.26562 10.5576C4.26562 8.47262 5.93062 6.80762 8.01562 6.80762H9.26562V5.55762C9.26562 4.16137 10.3694 3.05762 11.7656 3.05762ZM19.2656 3.05762C20.6619 3.05762 21.7656 4.16137 21.7656 5.55762V6.80762H23.0156C25.1006 6.80762 26.7656 8.47262 26.7656 10.5576C26.7656 10.8264 26.7156 11.0851 26.6481 11.3776L26.5319 12.0026L26.9219 12.4714C27.6314 13.3433 28.0178 14.4335 28.0156 15.5576C28.0156 17.0576 27.3756 18.3951 26.3356 19.3076C25.4819 18.5514 24.3931 18.0576 23.1719 18.0576C21.9906 18.0576 20.9256 18.4776 20.0856 19.1901L21.6881 21.1051C22.1005 20.7497 22.6275 20.5552 23.1719 20.5576C24.3781 20.5576 25.3394 21.4614 25.4769 22.6276C25.3744 24.2739 24.0606 25.5576 22.3906 25.5576C22.2781 25.5576 22.1406 25.5526 21.9219 25.5189L20.7106 25.3226L20.4769 26.5351C20.402 26.9659 20.1759 27.3558 19.8394 27.6348C19.5028 27.9139 19.0778 28.0638 18.6406 28.0576C17.5906 28.0576 16.7656 27.2326 16.7656 26.1826V13.0189C17.8388 13.8511 19.1575 14.3043 20.5156 14.3076V11.8076C18.4306 11.8076 16.7656 10.1426 16.7656 8.05762V5.55762C16.7656 4.16137 17.8694 3.05762 19.2656 3.05762Z" fill="#1D2431"/>
</svg>
