<svg width="36" height="36" viewBox="0 0 36 36" fill="none" xmlns="http://www.w3.org/2000/svg">
<path d="M7.30729 2.97412H10.224V7.34912H7.30729V2.97412ZM13.1406 2.97412H16.0573V7.34912H13.1406V2.97412ZM18.974 2.97412H21.8906V7.34912H18.974V2.97412ZM27.724 13.1825H24.8073V10.2658H4.39062V26.3075C4.39062 28.7195 6.35354 30.6825 8.76562 30.6825H20.4323C22.8444 30.6825 24.8073 28.7195 24.8073 26.3075H27.724C29.3325 26.3075 30.6406 24.9993 30.6406 23.3908V16.0991C30.6406 14.4906 29.3325 13.1825 27.724 13.1825ZM21.8906 26.3075C21.8906 26.6942 21.737 27.0652 21.4635 27.3387C21.19 27.6121 20.8191 27.7658 20.4323 27.7658H8.76562C8.37885 27.7658 8.00792 27.6121 7.73443 27.3387C7.46094 27.0652 7.30729 26.6942 7.30729 26.3075V13.1825H21.8906V26.3075ZM24.8073 23.3908V16.0991H27.724L27.7269 23.3908H24.8073Z" fill="#1D2431"/>
</svg>
