<svg width="36" height="36" viewBox="0 0 36 36" fill="none" xmlns="http://www.w3.org/2000/svg">
<path d="M27.7233 13.1828V10.2661C27.7233 7.85986 25.7546 5.89111 23.3483 5.89111H11.6816C9.27539 5.89111 7.30664 7.85986 7.30664 10.2661V13.1828C4.90039 13.1828 2.93164 15.1515 2.93164 17.5578V24.8494C2.93164 27.2557 4.90039 29.2244 7.30664 29.2244V32.1411H10.2233V29.2244H24.8066V32.1411H27.7233V29.2244C30.1296 29.2244 32.0983 27.2557 32.0983 24.8494V17.5578C32.0983 15.1515 30.1296 13.1828 27.7233 13.1828ZM10.2233 10.2661C10.2233 9.46403 10.8796 8.80778 11.6816 8.80778H23.3483C24.1504 8.80778 24.8066 9.46403 24.8066 10.2661V14.3203C23.9171 15.1224 23.3483 16.2744 23.3483 17.5578V20.4744H11.6816V17.5578C11.6816 16.2744 11.1129 15.1224 10.2233 14.3203V10.2661ZM29.1816 24.8494C29.1816 25.6515 28.5254 26.3078 27.7233 26.3078H7.30664C6.50456 26.3078 5.84831 25.6515 5.84831 24.8494V17.5578C5.84831 16.7557 6.50456 16.0994 7.30664 16.0994C8.10872 16.0994 8.76497 16.7557 8.76497 17.5578V23.3911H26.265V17.5578C26.265 16.7557 26.9212 16.0994 27.7233 16.0994C28.5254 16.0994 29.1816 16.7557 29.1816 17.5578V24.8494Z" fill="#1D2431"/>
</svg>
