<svg width="36" height="35" viewBox="0 0 36 35" fill="none" xmlns="http://www.w3.org/2000/svg">
<path d="M17.515 2.9165C9.47372 2.9165 2.93164 9.45859 2.93164 17.4998C2.93164 25.5411 9.47372 32.0832 17.515 32.0832C25.5562 32.0832 32.0983 25.5411 32.0983 17.4998C32.0983 9.45859 25.5562 2.9165 17.515 2.9165ZM17.515 29.1665C11.0823 29.1665 5.84831 23.9325 5.84831 17.4998C5.84831 11.0671 11.0823 5.83317 17.515 5.83317C23.9477 5.83317 29.1816 11.0671 29.1816 17.4998C29.1816 23.9325 23.9477 29.1665 17.515 29.1665Z" fill="#1D2431"/>
<path d="M21.6386 21.6241C20.8337 22.4312 19.8093 22.9839 18.6928 23.2137C17.915 23.3697 17.114 23.3697 16.3361 23.2137C15.9621 23.136 15.5963 23.0227 15.2439 22.8753C14.8979 22.7275 14.5664 22.5479 14.2536 22.3387C13.6336 21.916 13.0984 21.3807 12.6757 20.7607L10.2578 22.3897C10.5714 22.8549 10.9316 23.2924 11.3268 23.6862C12.1382 24.5004 13.1023 25.1464 14.1639 25.5874C15.2255 26.0283 16.3636 26.2554 17.5131 26.2557C18.6626 26.256 19.8009 26.0294 20.8627 25.589C21.9245 25.1485 22.8889 24.5029 23.7007 23.6891C24.0974 23.2939 24.4591 22.8564 24.7711 22.3897L22.3532 20.7607C22.1447 21.0685 21.9055 21.3587 21.6386 21.6241Z" fill="#1D2431"/>
<path d="M12.4121 17.5C13.6202 17.5 14.5996 16.5206 14.5996 15.3125C14.5996 14.1044 13.6202 13.125 12.4121 13.125C11.204 13.125 10.2246 14.1044 10.2246 15.3125C10.2246 16.5206 11.204 17.5 12.4121 17.5Z" fill="#1D2431"/>
<path d="M22.6204 14.5835C19.7038 14.5835 18.9746 17.5002 18.9746 17.5002H26.2663C26.2663 17.5002 25.5357 14.5835 22.6204 14.5835Z" fill="#1D2431"/>
</svg>
