<svg width="30" height="30" viewBox="0 0 30 30" fill="none" xmlns="http://www.w3.org/2000/svg">
<path fill-rule="evenodd" clip-rule="evenodd" d="M28.7 10.1C28.5 8.49995 27.4 6.49995 26.2 5.59995C26.2 5.59995 24.4 4.19995 22.2 2.89995C20 1.59995 18 0.699951 18 0.699951C17.3 0.399951 16.4 0.199951 15.4 0.199951C14.4 0.199951 13.5 0.399951 12.8 0.699951C12.8 0.699951 10.8 1.59995 8.6 2.89995C6.4 4.19995 4.6 5.59995 4.6 5.59995C4.1 5.89995 3.6 6.39995 3.2 6.99995C3.1 7.09995 3.1 7.19995 3.2 7.29995C3.3 7.39995 3.4 7.49995 3.5 7.49995H5C5.1 7.49995 5.2 7.49995 5.2 7.39995C5.4 7.29995 5.5 7.09995 5.6 6.99995C5.6 6.99995 7.3 5.69995 9.4 4.39995C11.5 3.09995 13.4 2.29995 13.5 2.19995C14 2.09995 14.6 1.99995 15.3 1.99995C16 1.99995 16.7 2.09995 17.1 2.29995C17.1 2.29995 19.1 3.19995 21.2 4.49995C23.3 5.69995 25 6.99995 25.1 6.99995C25.9 7.59995 26.8 9.19995 26.9 10.3C26.9 10.7 27.1 12.7 27.1 15C27.1 17.3 26.9 19.3 26.9 19.7C26.8 20.8 25.9 22.2999 25.1 23C25.1 23 23.4 24.3 21.3 25.6C19.2 26.9 17.3 27.6999 17.2 27.7999C16.7 27.9 16 28 15.3 28C14.6 28 13.9 27.9 13.5 27.7C13.5 27.7 11.6 26.7999 9.4 25.5C7.4 24.2999 5.7 23 5.6 23C5.5 22.9 5.4 22.8 5.2 22.7C5.1 22.6 5.1 22.6 5 22.6H3.5C3.4 22.6 3.3 22.6999 3.2 22.7999C3.1 22.9 3.2 23 3.2 23.1C3.6 23.7 4.1 24.2 4.5 24.5C4.5 24.5 6.3 25.9 8.5 27.2C10.7 28.5 12.7 29.4 12.7 29.4C13.4 29.6999 14.3 29.9 15.3 29.9C16.3 29.9 17.2 29.6999 17.9 29.4C17.9 29.4 19.9 28.5 22.1 27.2C24.3 25.9 26.1 24.5 26.1 24.5C27.3 23.6 28.5 21.5 28.6 20C28.6 20 28.8 17.7 28.8 15.1C28.9 12.4 28.7 10.1 28.7 10.1Z" fill="url(#paint0_linear)"/>
<path fill-rule="evenodd" clip-rule="evenodd" d="M12.9 15.9C13 15.9 13 15.9 12.9 15.9L13 19.6H12.1V16.8H11.2C11.1 17.7 10.9 18.8 10.7 19.6H9.59995C9.89995 18.5 10.2 17.2 10.2 16H12.9V15.9ZM24.2999 15.9C24.4 15.9 24.4 15.9 24.2999 15.9V19.4C23.9 19.6 23.2 19.7 22.6 19.7C21.5 19.7 21.1 19.2 21.1 17.9V15.9V15.8H22C22 15.8 22 15.8 22 15.9V17.8C22 18.6 22.1 18.8 22.7 18.8C22.9 18.8 23.0999 18.8 23.2999 18.7V15.9V15.8H24.2999V15.9ZM5.69995 15.9C5.39995 17.1 4.89995 18.4 4.39995 19.8C4.19995 20.2 3.99995 20.6 3.79995 21H2.79995C2.89995 20.8 2.99995 20.7 3.09995 20.5C3.19995 20.3 3.29995 20 3.49995 19.7L2.19995 16H2.99995L3.89995 18.5C4.29995 17.5 4.59995 16.6 4.69995 16H5.69995V15.9ZM8.89995 18.7L9.19995 19.4V19.5C8.89995 19.6 8.29995 19.7 7.89995 19.7C6.59995 19.7 5.99995 19.1 5.99995 17.7C5.99995 16.3 6.59995 15.7 7.89995 15.7C8.29995 15.7 8.69995 15.8 9.09995 15.9C8.99995 16.2 8.79995 16.4 8.69995 16.6C8.69995 16.6 8.69995 16.6 8.59995 16.6C8.29995 16.5 8.09995 16.5 7.89995 16.5C7.09995 16.6 6.99995 17 6.99995 17.7C6.99995 18.6 7.29995 18.8 7.89995 18.8C8.19995 18.9 8.59995 18.8 8.89995 18.7C8.79995 18.7 8.89995 18.7 8.89995 18.7ZM17.3 15.9C17 17.1 16.5 18.4 16 19.8C15.8 20.3 15.6 20.7 15.4 21H14.4C14.5 20.8 14.6 20.7 14.7 20.5C14.8 20.3 14.9 20 15.1 19.8L13.8 16.1H14.7L15.6 18.6C16 17.6 16.3 16.7 16.4 16.1H17.3V15.9ZM20.6 15.9C20.5 16.2 20.4 16.5 20.2999 16.7H18.9V19.5H18V15.9V15.8H20.6V15.9Z" fill="#EE2F53"/>
<path fill-rule="evenodd" clip-rule="evenodd" d="M7.0999 10.2C8.3999 10.2 8.8999 10.7 8.8999 12.2C8.8999 13.6 8.3999 14.2 7.0999 14.2C5.7999 14.2 5.2999 13.6 5.2999 12.2C5.3999 10.8 5.7999 10.2 7.0999 10.2ZM7.0999 13.4C7.6999 13.4 7.8999 13.2 7.8999 12.2C7.8999 11.1 7.6999 11 7.0999 11C6.4999 11 6.2999 11.1 6.2999 12.2C6.3999 13.2 6.4999 13.4 7.0999 13.4ZM12.3999 13.2L12.6999 13.9V14C12.3999 14.1 11.7999 14.2 11.3999 14.2C10.0999 14.2 9.4999 13.6 9.4999 12.2C9.4999 10.8 10.0999 10.2 11.3999 10.2C11.7999 10.2 12.1999 10.3 12.5999 10.4C12.4999 10.7 12.2999 10.9 12.1999 11.1C12.1999 11.1 12.1999 11.1 12.0999 11.1C11.7999 11 11.5999 11 11.3999 11C10.5999 11 10.4999 11.4 10.4999 12.1C10.4999 13 10.7999 13.2 11.3999 13.2C11.6999 13.3 12.0999 13.3 12.3999 13.2ZM4.9999 10.3C4.9999 10.3 4.9999 10.4 4.9999 10.3C5.0999 10.4 5.0999 10.4 4.9999 10.3C4.8999 10.6 4.7999 10.9 4.6999 11.1H3.2999V14V14.1H2.3999C2.3999 14.1 2.3999 14.1 2.3999 14V10.4V10.3H4.9999Z" fill="#EE2F53"/>
<defs>
<linearGradient id="paint0_linear" x1="17.0136" y1="0.94151" x2="13.4987" y2="29.9397" gradientUnits="userSpaceOnUse">
<stop offset="0.1854" stop-color="#0066B3"/>
<stop offset="0.7226" stop-color="#EE2F53"/>
</linearGradient>
</defs>
</svg>
