<svg width="130" height="30" viewBox="0 0 130 30" fill="none" xmlns="http://www.w3.org/2000/svg">
<path d="M37.4949 9.47314C37.4216 9.47314 37.3629 9.44747 37.3189 9.39614C37.2749 9.35214 37.2529 9.29348 37.2529 9.22014V7.24014C37.2529 7.16681 37.2749 7.10814 37.3189 7.06414C37.3629 7.01281 37.4216 6.98714 37.4949 6.98714H37.7369C38.0889 6.98714 38.3529 6.65347 38.5289 5.98614C38.7123 5.31881 38.8039 4.28114 38.8039 2.87314V0.497141C38.8039 0.423807 38.8259 0.365141 38.8699 0.321141C38.9213 0.269807 38.9836 0.244141 39.0569 0.244141H43.3139C43.3946 0.244141 43.4569 0.269807 43.5009 0.321141C43.5449 0.365141 43.5669 0.427474 43.5669 0.508141V6.98714H44.1059C44.1866 6.98714 44.2489 7.01281 44.2929 7.06414C44.3443 7.10814 44.3699 7.16681 44.3699 7.24014V9.22014C44.3699 9.30081 44.3443 9.36314 44.2929 9.40714C44.2489 9.45114 44.1866 9.47314 44.1059 9.47314H43.5889C43.5156 9.47314 43.4533 9.45114 43.4019 9.40714C43.3579 9.36314 43.3359 9.30081 43.3359 9.22014V7.94414H38.2869V9.22014C38.2869 9.29348 38.2613 9.35214 38.2099 9.39614C38.1659 9.44747 38.1036 9.47314 38.0229 9.47314H37.4949ZM42.5329 6.98714V1.20114H39.8269V3.00514C39.8269 4.03914 39.7646 4.88247 39.6399 5.53514C39.5226 6.18047 39.3429 6.66447 39.1009 6.98714H42.5329Z" fill="#474D62"/>
<path d="M47.891 8.05414C47.0844 8.05414 46.461 7.82681 46.021 7.37214C45.5884 6.91747 45.3574 6.31247 45.328 5.55714L45.317 5.08414L45.328 4.61114C45.3574 3.85581 45.592 3.25081 46.032 2.79614C46.4794 2.34147 47.099 2.11414 47.891 2.11414C48.683 2.11414 49.299 2.34147 49.739 2.79614C50.1864 3.25081 50.4247 3.85581 50.454 4.61114C50.4687 4.77247 50.476 4.93014 50.476 5.08414C50.476 5.23814 50.4687 5.39581 50.454 5.55714C50.4247 6.31247 50.19 6.91747 49.75 7.37214C49.3174 7.82681 48.6977 8.05414 47.891 8.05414ZM47.891 7.22914C48.3604 7.22914 48.7307 7.08247 49.002 6.78914C49.2807 6.48847 49.431 6.05947 49.453 5.50214C49.4604 5.42881 49.464 5.28947 49.464 5.08414C49.464 4.87881 49.4604 4.73947 49.453 4.66614C49.431 4.10881 49.2807 3.68347 49.002 3.39014C48.7307 3.08947 48.3604 2.93914 47.891 2.93914C47.4217 2.93914 47.0477 3.08947 46.769 3.39014C46.4977 3.68347 46.351 4.10881 46.329 4.66614L46.318 5.08414L46.329 5.50214C46.351 6.05947 46.4977 6.48847 46.769 6.78914C47.0477 7.08247 47.4217 7.22914 47.891 7.22914Z" fill="#474D62"/>
<path d="M54.153 8.05414C53.3683 8.05414 52.756 7.83414 52.316 7.39414C51.876 6.94681 51.645 6.32347 51.623 5.52414L51.612 5.08414L51.623 4.64414C51.645 3.84481 51.876 3.22514 52.316 2.78514C52.756 2.33781 53.3683 2.11414 54.153 2.11414C54.681 2.11414 55.1246 2.20947 55.484 2.40014C55.8506 2.58347 56.122 2.81447 56.298 3.09314C56.4813 3.37181 56.5803 3.65047 56.595 3.92914C56.6023 3.99514 56.5766 4.05381 56.518 4.10514C56.4666 4.15647 56.408 4.18214 56.342 4.18214H55.858C55.7846 4.18214 55.7296 4.16747 55.693 4.13814C55.6563 4.10147 55.6196 4.03914 55.583 3.95114C55.451 3.59181 55.2676 3.33881 55.033 3.19214C54.8056 3.03814 54.516 2.96114 54.164 2.96114C53.702 2.96114 53.3353 3.10414 53.064 3.39014C52.7926 3.67614 52.646 4.11247 52.624 4.69914L52.613 5.08414L52.624 5.46914C52.646 6.05581 52.7926 6.49214 53.064 6.77814C53.3353 7.06414 53.702 7.20714 54.164 7.20714C54.5233 7.20714 54.8166 7.13381 55.044 6.98714C55.2713 6.83314 55.451 6.57647 55.583 6.21714C55.6196 6.12914 55.6563 6.07047 55.693 6.04114C55.7296 6.00447 55.7846 5.98614 55.858 5.98614H56.342C56.408 5.98614 56.4666 6.01181 56.518 6.06314C56.5766 6.11447 56.6023 6.17314 56.595 6.23914C56.5803 6.51047 56.4813 6.78547 56.298 7.06414C56.122 7.34281 55.8506 7.57747 55.484 7.76814C55.1246 7.95881 54.681 8.05414 54.153 8.05414Z" fill="#474D62"/>
<path d="M59.6618 7.94414C59.5885 7.94414 59.5262 7.92214 59.4748 7.87814C59.4308 7.82681 59.4088 7.76447 59.4088 7.69114V3.07114H57.4838C57.4105 3.07114 57.3482 3.04914 57.2968 3.00514C57.2528 2.96114 57.2308 2.90247 57.2308 2.82914V2.47714C57.2308 2.40381 57.2528 2.34514 57.2968 2.30114C57.3482 2.24981 57.4105 2.22414 57.4838 2.22414H62.3128C62.3862 2.22414 62.4448 2.24981 62.4888 2.30114C62.5328 2.34514 62.5548 2.40381 62.5548 2.47714V2.82914C62.5548 2.90247 62.5328 2.96114 62.4888 3.00514C62.4448 3.04914 62.3862 3.07114 62.3128 3.07114H60.3878V7.69114C60.3878 7.76447 60.3622 7.82681 60.3108 7.87814C60.2668 7.92214 60.2082 7.94414 60.1348 7.94414H59.6618Z" fill="#474D62"/>
<path d="M68.184 2.22414C68.2427 2.22414 68.294 2.24614 68.338 2.29014C68.3893 2.33414 68.415 2.38547 68.415 2.44414C68.415 2.47347 68.393 2.53947 68.349 2.64214L66.259 7.59214L66.16 7.82314C65.962 8.29247 65.7823 8.67381 65.621 8.96714C65.467 9.26047 65.269 9.50981 65.027 9.71514C64.7923 9.92781 64.5137 10.0341 64.191 10.0341H63.773C63.6996 10.0341 63.6373 10.0085 63.586 9.95714C63.542 9.91314 63.52 9.85448 63.52 9.78114V9.44014C63.52 9.36681 63.542 9.30447 63.586 9.25314C63.6373 9.20914 63.6996 9.18714 63.773 9.18714H64.059C64.2203 9.18714 64.3523 9.15414 64.455 9.08814C64.5577 9.02214 64.6493 8.91581 64.73 8.76914C64.818 8.62247 64.928 8.39514 65.06 8.08714L65.247 7.63614L63.102 2.64214C63.0653 2.54681 63.047 2.48447 63.047 2.45514C63.047 2.38914 63.069 2.33414 63.113 2.29014C63.157 2.24614 63.212 2.22414 63.278 2.22414H63.762C63.8793 2.22414 63.9673 2.28281 64.026 2.40014L65.742 6.47014L67.447 2.40014C67.4983 2.28281 67.59 2.22414 67.722 2.22414H68.184Z" fill="#474D62"/>
<path d="M69.7889 7.94414C69.7155 7.94414 69.6532 7.92214 69.6019 7.87814C69.5579 7.82681 69.5359 7.76447 69.5359 7.69114V2.47714C69.5359 2.40381 69.5579 2.34514 69.6019 2.30114C69.6532 2.24981 69.7155 2.22414 69.7889 2.22414H74.1229C74.1962 2.22414 74.2549 2.24981 74.2989 2.30114C74.3429 2.34514 74.3649 2.40381 74.3649 2.47714V7.69114C74.3649 7.76447 74.3429 7.82681 74.2989 7.87814C74.2549 7.92214 74.1962 7.94414 74.1229 7.94414H73.6389C73.5655 7.94414 73.5032 7.92214 73.4519 7.87814C73.4079 7.82681 73.3859 7.76447 73.3859 7.69114V3.07114H70.5259V7.69114C70.5259 7.76447 70.5002 7.82681 70.4489 7.87814C70.4049 7.92214 70.3462 7.94414 70.2729 7.94414H69.7889Z" fill="#474D62"/>
<path d="M76.2879 7.94414C76.2146 7.94414 76.1522 7.92214 76.1009 7.87814C76.0569 7.82681 76.0349 7.76447 76.0349 7.69114V2.47714C76.0349 2.40381 76.0569 2.34514 76.1009 2.30114C76.1522 2.24981 76.2146 2.22414 76.2879 2.22414H76.7719C76.8452 2.22414 76.9039 2.24981 76.9479 2.30114C76.9992 2.34514 77.0249 2.40381 77.0249 2.47714V4.60014H80.0609V2.47714C80.0609 2.40381 80.0829 2.34514 80.1269 2.30114C80.1782 2.24981 80.2406 2.22414 80.3139 2.22414H80.7979C80.8786 2.22414 80.9409 2.24614 80.9849 2.29014C81.0289 2.33414 81.0509 2.39647 81.0509 2.47714V7.69114C81.0509 7.76447 81.0252 7.82681 80.9739 7.87814C80.9299 7.92214 80.8712 7.94414 80.7979 7.94414H80.3139C80.2406 7.94414 80.1782 7.92214 80.1269 7.87814C80.0829 7.82681 80.0609 7.76447 80.0609 7.69114V5.44714H77.0249V7.69114C77.0249 7.76447 76.9992 7.82681 76.9479 7.87814C76.9039 7.92214 76.8452 7.94414 76.7719 7.94414H76.2879Z" fill="#474D62"/>
<path d="M85.0375 8.05414C84.2309 8.05414 83.6075 7.82681 83.1675 7.37214C82.7349 6.91747 82.5039 6.31247 82.4745 5.55714L82.4635 5.08414L82.4745 4.61114C82.5039 3.85581 82.7385 3.25081 83.1785 2.79614C83.6259 2.34147 84.2455 2.11414 85.0375 2.11414C85.8295 2.11414 86.4455 2.34147 86.8855 2.79614C87.3329 3.25081 87.5712 3.85581 87.6005 4.61114C87.6152 4.77247 87.6225 4.93014 87.6225 5.08414C87.6225 5.23814 87.6152 5.39581 87.6005 5.55714C87.5712 6.31247 87.3365 6.91747 86.8965 7.37214C86.4639 7.82681 85.8442 8.05414 85.0375 8.05414ZM85.0375 7.22914C85.5069 7.22914 85.8772 7.08247 86.1485 6.78914C86.4272 6.48847 86.5775 6.05947 86.5995 5.50214C86.6069 5.42881 86.6105 5.28947 86.6105 5.08414C86.6105 4.87881 86.6069 4.73947 86.5995 4.66614C86.5775 4.10881 86.4272 3.68347 86.1485 3.39014C85.8772 3.08947 85.5069 2.93914 85.0375 2.93914C84.5682 2.93914 84.1942 3.08947 83.9155 3.39014C83.6442 3.68347 83.4975 4.10881 83.4755 4.66614L83.4645 5.08414L83.4755 5.50214C83.4975 6.05947 83.6442 6.48847 83.9155 6.78914C84.1942 7.08247 84.5682 7.22914 85.0375 7.22914Z" fill="#474D62"/>
<path d="M91.9715 7.94414C91.8982 7.94414 91.8358 7.92214 91.7845 7.87814C91.7405 7.82681 91.7185 7.76447 91.7185 7.69114V2.47714C91.7185 2.40381 91.7405 2.34514 91.7845 2.30114C91.8358 2.24981 91.8982 2.22414 91.9715 2.22414H94.2485C94.9085 2.22414 95.4145 2.36347 95.7665 2.64214C96.1258 2.91347 96.3055 3.28381 96.3055 3.75314C96.3055 4.06847 96.2468 4.31414 96.1295 4.49014C96.0122 4.66614 95.8288 4.81647 95.5795 4.94114C95.8435 5.05114 96.0488 5.23447 96.1955 5.49114C96.3495 5.74781 96.4265 6.02647 96.4265 6.32714C96.4265 6.84781 96.2431 7.24747 95.8765 7.52614C95.5098 7.80481 94.9928 7.94414 94.3255 7.94414H91.9715ZM94.1715 4.66614C94.5308 4.66614 94.8168 4.58914 95.0295 4.43514C95.2421 4.27381 95.3485 4.05014 95.3485 3.76414C95.3485 3.25814 94.9562 3.00514 94.1715 3.00514H92.6865V4.66614H94.1715ZM94.2375 7.16314C94.6041 7.16314 94.8938 7.09347 95.1065 6.95414C95.3265 6.80747 95.4365 6.59481 95.4365 6.31614C95.4365 6.02281 95.3375 5.80647 95.1395 5.66714C94.9415 5.52781 94.6408 5.45814 94.2375 5.45814H92.6865V7.16314H94.2375Z" fill="#474D62"/>
<path d="M47.0299 19.9261H48.6619V24.5671C48.0726 25.0545 47.3869 25.4285 46.6049 25.6891C45.8229 25.9498 45.0069 26.0801 44.1569 26.0801C42.9556 26.0801 41.8733 25.8195 40.9099 25.2981C39.9466 24.7655 39.1873 24.0401 38.6319 23.1221C38.0879 22.1928 37.8159 21.1501 37.8159 19.9941C37.8159 18.8381 38.0879 17.7955 38.6319 16.8661C39.1873 15.9368 39.9466 15.2115 40.9099 14.6901C41.8846 14.1688 42.9783 13.9081 44.1909 13.9081C45.1429 13.9081 46.0043 14.0668 46.7749 14.3841C47.5569 14.6901 48.2199 15.1435 48.7639 15.7441L47.7099 16.7981C46.7579 15.8801 45.6076 15.4211 44.2589 15.4211C43.3523 15.4211 42.5363 15.6195 41.8109 16.0161C41.0969 16.4015 40.5359 16.9455 40.1279 17.6481C39.7199 18.3395 39.5159 19.1215 39.5159 19.9941C39.5159 20.8555 39.7199 21.6375 40.1279 22.3401C40.5359 23.0315 41.0969 23.5755 41.8109 23.9721C42.5363 24.3688 43.3466 24.5671 44.2419 24.5671C45.3073 24.5671 46.2366 24.3121 47.0299 23.8021V19.9261Z" fill="#474D62"/>
<path d="M54.5378 26.0461C53.6424 26.0461 52.8378 25.8478 52.1238 25.4511C51.4098 25.0545 50.8488 24.5105 50.4408 23.8191C50.0441 23.1165 49.8458 22.3231 49.8458 21.4391C49.8458 20.5551 50.0441 19.7675 50.4408 19.0761C50.8488 18.3735 51.4098 17.8295 52.1238 17.4441C52.8378 17.0475 53.6424 16.8491 54.5378 16.8491C55.4331 16.8491 56.2321 17.0475 56.9348 17.4441C57.6488 17.8295 58.2041 18.3735 58.6008 19.0761C59.0088 19.7675 59.2128 20.5551 59.2128 21.4391C59.2128 22.3231 59.0088 23.1165 58.6008 23.8191C58.2041 24.5105 57.6488 25.0545 56.9348 25.4511C56.2321 25.8478 55.4331 26.0461 54.5378 26.0461ZM54.5378 24.6181C55.1158 24.6181 55.6314 24.4878 56.0848 24.2271C56.5494 23.9551 56.9121 23.5811 57.1728 23.1051C57.4334 22.6178 57.5638 22.0625 57.5638 21.4391C57.5638 20.8158 57.4334 20.2661 57.1728 19.7901C56.9121 19.3028 56.5494 18.9288 56.0848 18.6681C55.6314 18.4075 55.1158 18.2771 54.5378 18.2771C53.9598 18.2771 53.4384 18.4075 52.9738 18.6681C52.5204 18.9288 52.1578 19.3028 51.8858 19.7901C51.6251 20.2661 51.4948 20.8158 51.4948 21.4391C51.4948 22.0625 51.6251 22.6178 51.8858 23.1051C52.1578 23.5811 52.5204 23.9551 52.9738 24.2271C53.4384 24.4878 53.9598 24.6181 54.5378 24.6181Z" fill="#474D62"/>
<path d="M64.3288 26.0461C63.4335 26.0461 62.6288 25.8478 61.9148 25.4511C61.2008 25.0545 60.6398 24.5105 60.2318 23.8191C59.8351 23.1165 59.6368 22.3231 59.6368 21.4391C59.6368 20.5551 59.8351 19.7675 60.2318 19.0761C60.6398 18.3735 61.2008 17.8295 61.9148 17.4441C62.6288 17.0475 63.4335 16.8491 64.3288 16.8491C65.2241 16.8491 66.0231 17.0475 66.7258 17.4441C67.4398 17.8295 67.9951 18.3735 68.3918 19.0761C68.7998 19.7675 69.0038 20.5551 69.0038 21.4391C69.0038 22.3231 68.7998 23.1165 68.3918 23.8191C67.9951 24.5105 67.4398 25.0545 66.7258 25.4511C66.0231 25.8478 65.2241 26.0461 64.3288 26.0461ZM64.3288 24.6181C64.9068 24.6181 65.4225 24.4878 65.8758 24.2271C66.3405 23.9551 66.7031 23.5811 66.9638 23.1051C67.2245 22.6178 67.3548 22.0625 67.3548 21.4391C67.3548 20.8158 67.2245 20.2661 66.9638 19.7901C66.7031 19.3028 66.3405 18.9288 65.8758 18.6681C65.4225 18.4075 64.9068 18.2771 64.3288 18.2771C63.7508 18.2771 63.2295 18.4075 62.7648 18.6681C62.3115 18.9288 61.9488 19.3028 61.6768 19.7901C61.4161 20.2661 61.2858 20.8158 61.2858 21.4391C61.2858 22.0625 61.4161 22.6178 61.6768 23.1051C61.9488 23.5811 62.3115 23.9551 62.7648 24.2271C63.2295 24.4878 63.7508 24.6181 64.3288 24.6181Z" fill="#474D62"/>
<path d="M78.8798 16.9341V24.7201C78.8798 26.2955 78.4888 27.4571 77.7068 28.2051C76.9248 28.9645 75.7575 29.3441 74.2048 29.3441C73.3548 29.3441 72.5445 29.2251 71.7738 28.9871C71.0031 28.7605 70.3798 28.4318 69.9038 28.0011L70.6858 26.7431C71.1051 27.1058 71.6208 27.3891 72.2328 27.5931C72.8561 27.8085 73.4965 27.9161 74.1538 27.9161C75.2078 27.9161 75.9841 27.6668 76.4828 27.1681C76.9928 26.6695 77.2478 25.9101 77.2478 24.8901V24.1761C76.8625 24.6408 76.3865 24.9921 75.8198 25.2301C75.2645 25.4568 74.6581 25.5701 74.0008 25.5701C73.1395 25.5701 72.3575 25.3888 71.6548 25.0261C70.9635 24.6521 70.4195 24.1365 70.0228 23.4791C69.6261 22.8105 69.4278 22.0511 69.4278 21.2011C69.4278 20.3511 69.6261 19.5975 70.0228 18.9401C70.4195 18.2715 70.9635 17.7558 71.6548 17.3931C72.3575 17.0305 73.1395 16.8491 74.0008 16.8491C74.6808 16.8491 75.3098 16.9738 75.8878 17.2231C76.4771 17.4725 76.9588 17.8408 77.3328 18.3281V16.9341H78.8798ZM74.1878 24.1421C74.7771 24.1421 75.3041 24.0175 75.7688 23.7681C76.2448 23.5188 76.6131 23.1731 76.8738 22.7311C77.1458 22.2778 77.2818 21.7678 77.2818 21.2011C77.2818 20.3285 76.9928 19.6258 76.4148 19.0931C75.8368 18.5491 75.0945 18.2771 74.1878 18.2771C73.2698 18.2771 72.5218 18.5491 71.9438 19.0931C71.3658 19.6258 71.0768 20.3285 71.0768 21.2011C71.0768 21.7678 71.2071 22.2778 71.4678 22.7311C71.7398 23.1731 72.1081 23.5188 72.5728 23.7681C73.0488 24.0175 73.5871 24.1421 74.1878 24.1421Z" fill="#474D62"/>
<path d="M80.9981 13.3301H82.6301V25.9441H80.9981V13.3301Z" fill="#474D62"/>
<path d="M92.8892 21.4901C92.8892 21.6148 92.8778 21.7791 92.8552 21.9831H85.5452C85.6472 22.7765 85.9928 23.4168 86.5822 23.9041C87.1828 24.3801 87.9252 24.6181 88.8092 24.6181C89.8858 24.6181 90.7528 24.2555 91.4102 23.5301L92.3112 24.5841C91.9032 25.0601 91.3932 25.4228 90.7812 25.6721C90.1805 25.9215 89.5062 26.0461 88.7582 26.0461C87.8062 26.0461 86.9618 25.8535 86.2252 25.4681C85.4885 25.0715 84.9162 24.5218 84.5082 23.8191C84.1115 23.1165 83.9132 22.3231 83.9132 21.4391C83.9132 20.5665 84.1058 19.7788 84.4912 19.0761C84.8878 18.3735 85.4262 17.8295 86.1062 17.4441C86.7975 17.0475 87.5738 16.8491 88.4352 16.8491C89.2965 16.8491 90.0615 17.0475 90.7302 17.4441C91.4102 17.8295 91.9372 18.3735 92.3112 19.0761C92.6965 19.7788 92.8892 20.5835 92.8892 21.4901ZM88.4352 18.2261C87.6532 18.2261 86.9958 18.4641 86.4632 18.9401C85.9418 19.4161 85.6358 20.0395 85.5452 20.8101H91.3252C91.2345 20.0508 90.9228 19.4331 90.3902 18.9571C89.8688 18.4698 89.2172 18.2261 88.4352 18.2261Z" fill="#474D62"/>
<path d="M102.498 16.8491C103.37 16.8491 104.152 17.0418 104.844 17.4271C105.535 17.8125 106.073 18.3508 106.459 19.0421C106.855 19.7335 107.054 20.5325 107.054 21.4391C107.054 22.3458 106.855 23.1505 106.459 23.8531C106.073 24.5445 105.535 25.0828 104.844 25.4681C104.152 25.8535 103.37 26.0461 102.498 26.0461C101.852 26.0461 101.257 25.9215 100.713 25.6721C100.18 25.4228 99.7268 25.0601 99.3528 24.5841V29.2421H97.7208V16.9341H99.2848V18.3621C99.6474 17.8635 100.106 17.4895 100.662 17.2401C101.217 16.9795 101.829 16.8491 102.498 16.8491ZM102.362 24.6181C102.94 24.6181 103.455 24.4878 103.909 24.2271C104.373 23.9551 104.736 23.5811 104.997 23.1051C105.269 22.6178 105.405 22.0625 105.405 21.4391C105.405 20.8158 105.269 20.2661 104.997 19.7901C104.736 19.3028 104.373 18.9288 103.909 18.6681C103.455 18.4075 102.94 18.2771 102.362 18.2771C101.795 18.2771 101.279 18.4131 100.815 18.6851C100.361 18.9458 99.9988 19.3141 99.7268 19.7901C99.4661 20.2661 99.3358 20.8158 99.3358 21.4391C99.3358 22.0625 99.4661 22.6178 99.7268 23.1051C99.9874 23.5811 100.35 23.9551 100.815 24.2271C101.279 24.4878 101.795 24.6181 102.362 24.6181Z" fill="#474D62"/>
<path d="M108.309 13.3301H109.941V25.9441H108.309V13.3301Z" fill="#474D62"/>
<path d="M115.338 16.8491C116.584 16.8491 117.536 17.1551 118.194 17.7671C118.862 18.3791 119.197 19.2915 119.197 20.5041V25.9441H117.65V24.7541C117.378 25.1735 116.987 25.4965 116.477 25.7231C115.978 25.9385 115.383 26.0461 114.692 26.0461C113.683 26.0461 112.873 25.8025 112.261 25.3151C111.66 24.8278 111.36 24.1875 111.36 23.3941C111.36 22.6008 111.649 21.9661 112.227 21.4901C112.805 21.0028 113.723 20.7591 114.981 20.7591H117.565V20.4361C117.565 19.7335 117.361 19.1951 116.953 18.8211C116.545 18.4471 115.944 18.2601 115.151 18.2601C114.618 18.2601 114.097 18.3508 113.587 18.5321C113.077 18.7021 112.646 18.9345 112.295 19.2291L111.615 18.0051C112.079 17.6311 112.635 17.3478 113.281 17.1551C113.927 16.9511 114.612 16.8491 115.338 16.8491ZM114.964 24.7881C115.587 24.7881 116.125 24.6521 116.579 24.3801C117.032 24.0968 117.361 23.7001 117.565 23.1901V21.9321H115.049C113.666 21.9321 112.975 22.3968 112.975 23.3261C112.975 23.7795 113.15 24.1365 113.502 24.3971C113.853 24.6578 114.34 24.7881 114.964 24.7881Z" fill="#474D62"/>
<path d="M129.024 16.9341L124.655 26.8451C124.27 27.7631 123.816 28.4091 123.295 28.7831C122.785 29.1571 122.167 29.3441 121.442 29.3441C121 29.3441 120.569 29.2705 120.15 29.1231C119.742 28.9871 119.402 28.7831 119.13 28.5111L119.827 27.2871C120.292 27.7291 120.83 27.9501 121.442 27.9501C121.839 27.9501 122.167 27.8425 122.428 27.6271C122.7 27.4231 122.944 27.0661 123.159 26.5561L123.448 25.9271L119.47 16.9341H121.17L124.315 24.1421L127.426 16.9341H129.024Z" fill="#474D62"/>
<path d="M0.0515053 3.87164C0.0178925 4.02439 0 4.18489 0 4.35205V27.4386C0 27.8234 0.0948441 28.1731 0.258021 28.4738L12.4558 16.276L0.0515053 3.87164Z" fill="#474D62"/>
<path d="M4.24282 28.7317L17.3209 21.141L14.5772 18.3973L4.24282 28.7317Z" fill="#474D62"/>
<path d="M20.0054 19.5829L23.1696 17.7463C24.6471 16.9386 24.6471 14.8521 23.1696 14.0444L20.4871 12.4874L16.6985 16.276L20.0054 19.5829Z" fill="#474D62"/>
<path d="M17.8026 10.9293L3.2236 2.46743C3.04301 2.364 2.8558 2.29037 2.66665 2.24414L14.5772 14.1547L17.8026 10.9293Z" fill="#474D62"/>
</svg>
