<svg width="61" height="61" viewBox="0 0 61 61" fill="none" xmlns="http://www.w3.org/2000/svg">
<path d="M30.5054 0.590637L33.5134 6.77988L37.9661 1.53314L39.3404 8.276L44.958 4.30144L44.6122 11.1742L51.0418 8.72158L48.9977 15.2925L55.8352 14.5158L52.2212 20.3719L59.0371 21.3201L54.0803 26.0935L60.4462 28.7069L54.458 32.0976L59.974 36.2121L53.3307 38.007L57.6502 43.364L50.7692 43.4505L53.6208 49.7134L46.9345 48.0859L48.1389 54.8611L42.0675 51.622L41.5491 58.4839L36.4739 53.8366L34.2654 60.3541L30.5054 54.5906L26.7454 60.3541L24.5368 53.8366L19.4616 58.4839L18.9433 51.622L12.8718 54.8611L14.0762 48.0859L7.38997 49.7134L10.2415 43.4505L3.36056 43.364L7.68001 38.007L1.03675 36.2121L6.55273 32.0976L0.564569 28.7069L6.93048 26.0935L1.97367 21.3201L8.78952 20.3719L5.17553 14.5158L12.0131 15.2925L9.96896 8.72158L16.3985 11.1742L16.0528 4.30144L21.6704 8.276L23.0447 1.53314L27.4974 6.77988L30.5054 0.590637Z" fill="#FFDE52"/>
</svg>
