<svg width="36" height="37" viewBox="0 0 36 37" fill="none" xmlns="http://www.w3.org/2000/svg">
<path fill-rule="evenodd" clip-rule="evenodd" d="M22.0029 17.4495C23.5076 16.2786 24.4797 14.4226 24.4797 12.3333C24.4797 8.79127 21.686 5.91992 18.2397 5.91992C14.7934 5.91992 11.9997 8.79127 11.9997 12.3333C11.9997 14.4226 12.9718 16.2786 14.4765 17.4495C10.3751 18.9778 7.40532 22.9329 7.20995 27.6266C7.20315 27.7902 7.19971 27.9546 7.19971 28.1199V29.5999H16.7997C17.3299 29.5999 17.7597 29.1582 17.7597 28.6133C17.7597 28.0683 17.3299 27.6266 16.7997 27.6266H9.13212C9.38173 22.6792 13.3639 18.7466 18.2397 18.7466C23.1155 18.7466 27.0977 22.6792 27.3473 27.6266H25.4397C24.9095 27.6266 24.4797 28.0683 24.4797 28.6133C24.4797 29.1582 24.9095 29.5999 25.4397 29.5999H29.2797V28.1199C29.2797 27.9546 29.2763 27.7902 29.2695 27.6266C29.0741 22.9329 26.1044 18.9778 22.0029 17.4495ZM22.5597 12.3333C22.5597 14.7854 20.6256 16.7733 18.2397 16.7733C15.8538 16.7733 13.9197 14.7854 13.9197 12.3333C13.9197 9.88111 15.8538 7.89326 18.2397 7.89326C20.6256 7.89326 22.5597 9.88111 22.5597 12.3333Z" fill="#1D2431"/>
</svg>
