<svg width="48" height="48" viewBox="0 0 48 48" fill="none" xmlns="http://www.w3.org/2000/svg">
<path d="M12.8467 6.69528H30.8015V3.52441H9.67822V42.2207H12.8467V6.69528Z" fill="white" stroke="#010101" stroke-miterlimit="10" stroke-linecap="round"/>
<path d="M33.9114 42.1621H12.7881V45.1568H33.9114V42.1621Z" stroke="white" stroke-miterlimit="10"/>
<path d="M33.9114 6.69531H12.7881V14.3876H33.9114V6.69531Z" fill="white" stroke="#010101" stroke-miterlimit="10" stroke-linecap="round"/>
<path d="M33.9114 40.929H12.7881V45.2155H33.9114V40.929Z" fill="white" stroke="#010101" stroke-miterlimit="10" stroke-linecap="round"/>
<path d="M31.1537 14.3878V11.628C29.8042 11.628 28.8654 10.571 28.8654 9.45532H18.1277C18.1277 10.6884 17.0715 11.628 15.8394 11.628V14.3878H31.1537Z" fill="white" stroke="#010101" stroke-miterlimit="10" stroke-linecap="round"/>
<path d="M23.1737 42.4558H7.15527V14.2703H39.4269V42.4558H28.1025" fill="white"/>
<path d="M23.1737 42.4558H7.15527V14.2703H39.4269V42.4558H28.1025" stroke="#010101" stroke-miterlimit="10" stroke-linecap="round"/>
<path d="M19.4185 17.2061H36.4931V39.5196H7.15527V17.2061H13.8443" fill="white"/>
<path d="M19.4185 17.2061H36.4931V39.5196H7.15527V17.2061H13.8443" stroke="#010101" stroke-miterlimit="10" stroke-linecap="round"/>
<path d="M42.0675 23.4304H24.1714V32.2971H42.0675V23.4304Z" fill="white" stroke="#010101" stroke-miterlimit="10" stroke-linecap="round"/>
<path d="M29.628 29.6547C30.4495 29.6547 31.0949 29.0088 31.0949 28.1867C31.0949 27.3647 30.4495 26.7188 29.628 26.7188C28.8066 26.7188 28.1611 27.3647 28.1611 28.1867C28.1611 29.0088 28.8066 29.6547 29.628 29.6547Z" fill="#FFDA54"/>
</svg>
