<svg width="315" height="64" viewBox="0 0 315 64" fill="none" xmlns="http://www.w3.org/2000/svg">
<path fill-rule="evenodd" clip-rule="evenodd" d="M315 47.0245H310.623L308.209 38.2332C307.614 36.3493 306.423 35.4129 304.648 35.4129L298.839 35.3689V47.0135H294.793V18.8108C297.108 18.5684 300.393 18.4473 304.648 18.4473C308.055 18.4473 310.458 19.0311 311.869 20.2099C313.269 21.3777 313.975 23.5259 313.975 26.6326C313.975 28.8911 313.567 30.5986 312.773 31.7444C311.968 32.8901 310.634 33.5842 308.782 33.8265V34.0358C310.612 34.5867 311.792 35.9417 312.343 38.123L315 47.0245ZM161.907 32.4715V32.3062C163.561 32.141 164.785 31.535 165.534 30.4885C166.295 29.4419 166.681 27.8996 166.681 25.8505C166.681 22.9861 165.997 21.0472 164.619 20.0226C163.241 18.9981 160.783 18.4913 157.233 18.4913C153.176 18.4913 150.034 18.6015 147.83 18.8218V47.0245C150.31 47.2448 153.86 47.355 158.468 47.355C161.819 47.355 164.178 46.8372 165.523 45.8016C166.879 44.7661 167.552 42.8271 167.552 39.9958C167.552 37.6493 167.122 35.8646 166.262 34.6197C165.402 33.3748 163.958 32.6587 161.907 32.4715ZM141.16 43.6313L141.369 46.7821C138.889 47.0024 134.854 47.1126 129.265 47.1126C127.523 47.1126 126.145 46.6609 125.131 45.7465C124.117 44.8322 123.598 43.5983 123.576 42.0449V23.8124C123.598 22.259 124.117 21.0252 125.131 20.1108C126.134 19.1964 127.512 18.7447 129.265 18.7447C134.854 18.7447 138.889 18.8549 141.369 19.0752L141.16 22.259H129.948C129.133 22.259 128.548 22.4573 128.207 22.8539C127.865 23.2505 127.699 23.9225 127.699 24.881V30.5215H139.605V33.8375H127.699V41.0314C127.699 41.9899 127.865 42.6619 128.207 43.0585C128.548 43.4551 129.122 43.6534 129.948 43.6534H141.16V43.6313ZM118.141 18.8218L118.139 18.8329H113.776L109.73 40.4145C109.653 40.8001 109.554 41.384 109.443 42.1772C109.391 42.5554 109.346 42.8861 109.307 43.1703L109.307 43.1722L109.307 43.1729C109.264 43.4836 109.23 43.7387 109.201 43.9398H108.264C108.065 42.6619 107.867 41.4721 107.646 40.3814L103.634 20.1879C103.556 19.8133 103.369 19.4939 103.082 19.2295C102.796 18.9761 102.465 18.8439 102.079 18.8439H97.7026C96.8537 18.8439 96.3356 19.2845 96.1482 20.1879L92.1023 40.3374C91.8267 41.5712 91.6173 42.7721 91.485 43.9398H90.5479C90.2944 42.0009 90.129 40.8001 90.0518 40.3374L86.006 18.8329H81.6735L87.0753 45.8567C87.2627 46.6499 87.7809 47.0465 88.6297 47.0465H93.2158C93.6016 47.0465 93.9544 46.9253 94.2631 46.694C94.5717 46.4626 94.7592 46.1652 94.8143 45.8127L98.8601 25.0903L99.4775 21.9065H100.337C100.448 22.6116 100.635 23.6692 100.911 25.0903L105.001 45.8127C105.199 46.6279 105.728 47.0355 106.599 47.0355H111.141C111.957 47.0355 112.497 46.6389 112.74 45.8457L118.139 18.8329H118.141V18.8218ZM151.842 30.841H157.564C159.526 30.841 160.882 30.5325 161.632 29.9266C162.381 29.3096 162.756 28.1198 162.756 26.3462C162.756 24.6055 162.348 23.4378 161.533 22.8539C160.717 22.27 159.217 21.9726 157.035 21.9726H151.842V30.841ZM157.85 43.8737L151.842 43.8296V33.9917H157.608C159.824 34.0248 161.345 34.3994 162.172 35.1375C162.999 35.8646 163.418 37.2527 163.418 39.3018C163.418 41.1305 163.021 42.3424 162.249 42.9593C161.466 43.5652 160 43.8737 157.85 43.8737ZM188.365 32.3062V32.4715C190.416 32.6587 191.86 33.3748 192.72 34.6197C193.58 35.8646 194.01 37.6493 194.01 39.9958C194.01 42.8271 193.337 44.7661 191.981 45.8016C190.636 46.8372 188.277 47.355 184.926 47.355C180.318 47.355 176.768 47.2448 174.288 47.0245V18.8218C176.492 18.6015 179.634 18.4913 183.691 18.4913C187.241 18.4913 189.699 18.9981 191.077 20.0226C192.455 21.0472 193.139 22.9861 193.139 25.8505C193.139 27.8996 192.753 29.4419 191.992 30.4885C191.243 31.535 190.03 32.141 188.365 32.3062ZM184.022 30.841H178.3V21.9726H183.493C185.675 21.9726 187.175 22.27 187.991 22.8539C188.806 23.4378 189.214 24.6055 189.214 26.3462C189.214 28.1198 188.839 29.3096 188.09 29.9266C187.34 30.5325 185.984 30.841 184.022 30.841ZM178.3 43.8296L184.308 43.8737C186.458 43.8737 187.924 43.5652 188.707 42.9593C189.479 42.3424 189.876 41.1305 189.876 39.3018C189.876 37.2527 189.457 35.8646 188.63 35.1375C187.803 34.3994 186.282 34.0248 184.066 33.9917H178.3V43.8296ZM204.483 38.5196H215.727L218.351 47.0245H222.562L213.688 19.9235C213.523 19.1854 213.026 18.8218 212.211 18.8218H208.044C207.261 18.8218 206.754 19.1854 206.533 19.9235L197.703 47.0245H201.87L204.483 38.5196ZM214.669 34.9612L211.351 24.253C211.274 24.0107 211.152 23.6251 210.998 23.1073C210.968 23.0063 210.939 22.9104 210.913 22.8195C210.801 22.4446 210.716 22.1567 210.645 21.9616H209.543L208.892 24.253L205.574 34.9612H214.669ZM249.472 45.4271V18.8219H245.426V38.6408C245.426 39.9188 245.504 41.384 245.636 43.0144H245.019C244.82 42.5738 244.611 42.1111 244.379 41.6043C244.148 41.0975 243.894 40.5687 243.618 40.0069C243.343 39.4561 243.155 39.0484 243.045 38.8061L234.502 20.0888C234.094 19.2405 233.498 18.8219 232.705 18.8219H228.945C227.909 18.8219 227.391 19.3617 227.391 20.4193V47.0245H231.481V26.5445C231.481 25.0242 231.404 23.7133 231.271 22.6226H231.845C231.977 23.1073 232.539 24.4183 233.52 26.5445L242.318 45.7576C242.681 46.6059 243.266 47.0245 244.082 47.0245H247.962C248.965 47.0245 249.472 46.4847 249.472 45.4271ZM264.366 33.9807H261.18C261.367 35.1264 261.467 36.0959 261.467 36.8781V47.0134H257.377V18.8108H261.467V27.4809C261.467 28.6486 261.367 29.7173 261.18 30.6647H264.366L272.667 18.8108H277.121L269.139 30.3342C268.698 30.9621 268.125 31.6121 267.42 32.2951V32.4163C268.18 33.0663 268.842 33.7824 269.382 34.5425L277.639 47.0134H273.097L264.366 33.9807ZM282.809 47.0245H286.899V18.8219H282.809V47.0245ZM304.56 31.8986H298.839V22.0167C299.875 21.9836 301.782 21.9726 304.56 21.9726C306.578 21.9726 307.967 22.3141 308.716 22.9972C309.466 23.6692 309.841 24.9691 309.841 26.875C309.841 28.8139 309.466 30.1249 308.716 30.819C307.967 31.513 306.578 31.8766 304.56 31.8986Z" fill="white"/>
<path d="M31.5 0.753906C48.8749 0.753906 63 14.8469 63 32.2539C63 49.6288 48.907 63.7539 31.5 63.7539C14.1251 63.7539 0 49.661 0 32.2539C0 14.8469 14.093 0.753906 31.5 0.753906Z" fill="white"/>
<path d="M19.5225 38.2777C19.3941 38.1493 19.2979 37.9888 19.2016 37.8284C19.1374 37.6679 19.1053 37.4753 19.1053 37.2827C19.1053 37.0902 19.1374 36.8976 19.2016 36.7371C19.2658 36.5766 19.3621 36.4161 19.5225 36.2878L37.5925 18.1536C37.7209 18.0252 37.8814 17.9289 38.0419 17.8326C38.2024 17.7684 38.3949 17.7363 38.5875 17.7363C38.7801 17.7363 38.9727 17.7684 39.1331 17.8326C39.2936 17.8968 39.4541 17.9931 39.5825 18.1536L50.3667 28.9699C50.4951 29.0983 50.5914 29.2588 50.6877 29.4192C50.7519 29.5797 50.7839 29.7723 50.7839 29.9649C50.7839 30.1574 50.7519 30.35 50.6877 30.5105C50.6235 30.671 50.5272 30.8315 50.3667 30.9598L32.2967 49.094C32.1683 49.2224 32.0078 49.3187 31.8474 49.3829C31.6869 49.4471 31.4943 49.4792 31.3017 49.4792C31.1092 49.4792 30.9487 49.4471 30.7561 49.3829C30.5956 49.3187 30.4351 49.2224 30.3068 49.094L19.5225 38.2777Z" fill="#F8DA5E"/>
<path d="M19.5225 38.2777C19.3941 38.1493 19.2979 37.9888 19.2016 37.8284C19.1374 37.6679 19.1053 37.4753 19.1053 37.2827C19.1053 37.0902 19.1374 36.8976 19.2016 36.7371C19.2658 36.5766 19.3621 36.4161 19.5225 36.2878L37.5925 18.1536C37.7209 18.0252 37.8814 17.9289 38.0419 17.8326C38.2023 17.7684 38.3949 17.7363 38.5875 17.7363C38.7801 17.7363 38.9727 17.7684 39.1331 17.8326C39.2936 17.8968 39.4541 17.9931 39.5825 18.1536L50.3667 28.9699C50.4951 29.0983 50.5914 29.2588 50.6877 29.4192C50.7518 29.5797 50.7839 29.7723 50.7839 29.9649C50.7839 30.1574 50.7518 30.35 50.6877 30.5105C50.6235 30.671 50.5272 30.8315 50.3667 30.9598L32.2967 49.094C32.1683 49.2224 32.0078 49.3187 31.8474 49.3829C31.6869 49.4471 31.4943 49.4792 31.3017 49.4792C31.1092 49.4792 30.9487 49.4471 30.7561 49.3829C30.5956 49.3187 30.4351 49.2224 30.3068 49.094L19.5225 38.2777Z" stroke="#030608" stroke-width="1.5" stroke-miterlimit="10"/>
<path d="M32.0609 49.2443C31.9354 49.3695 31.7785 49.4635 31.6216 49.5574C31.4647 49.6201 31.2765 49.6514 31.0882 49.6514C30.9 49.6514 30.7431 49.6201 30.5548 49.5574C30.3979 49.4948 30.241 49.4009 30.1155 49.2443L12.4506 31.5524C12.1995 31.3019 12.0427 30.9574 12.0427 30.5817C12.0427 30.2059 12.1995 29.8615 12.4506 29.611L23.0244 19.0584C23.15 18.9332 23.3068 18.8392 23.4637 18.7453C23.6206 18.6827 23.8089 18.6514 23.9971 18.6514C24.1854 18.6514 24.3423 18.6827 24.5305 18.7453C24.6874 18.8079 24.8443 18.9019 24.9698 19.0584L42.6348 36.7504C42.8858 37.0009 43.0427 37.3453 43.0427 37.7211C43.0427 38.0968 42.8858 38.4413 42.6348 38.6918L32.0609 49.2443Z" fill="#F8DA5E"/>
<path d="M32.0609 49.2443C31.9354 49.3695 31.7785 49.4635 31.6216 49.5574C31.4647 49.6201 31.2765 49.6514 31.0882 49.6514C30.9 49.6514 30.7431 49.6201 30.5548 49.5574C30.3979 49.4948 30.241 49.4009 30.1155 49.2443L12.4506 31.5524C12.1995 31.3019 12.0427 30.9574 12.0427 30.5817C12.0427 30.2059 12.1995 29.8615 12.4506 29.611L23.0244 19.0584C23.15 18.9332 23.3068 18.8392 23.4637 18.7453C23.6206 18.6827 23.8089 18.6514 23.9971 18.6514C24.1854 18.6514 24.3423 18.6827 24.5305 18.7453C24.6874 18.8079 24.8443 18.9019 24.9698 19.0584L42.6348 36.7504C42.8858 37.0009 43.0427 37.3453 43.0427 37.7211C43.0427 38.0968 42.8858 38.4413 42.6348 38.6918L32.0609 49.2443Z" stroke="#030608" stroke-width="1.5" stroke-miterlimit="10"/>
<circle cx="35.0427" cy="41.6514" r="1" fill="black"/>
<rect x="40.9779" y="19.3018" width="4" height="11" transform="rotate(45 40.9779 19.3018)" fill="black"/>
</svg>
