<svg width="24" height="32" viewBox="0 0 24 32" fill="none" xmlns="http://www.w3.org/2000/svg">
<path fill-rule="evenodd" clip-rule="evenodd" d="M16.6923 13.0044L16.6684 20.299L3.66099 29.5088L20.1385 23.9242V13.0044H23.5006V31.3496H3.01763C1.80163 31.3496 0.806335 30.3152 0.806335 29.0512L0.806661 15.5508C0.806661 13.7904 0.948629 12.6733 4.45629 9.95195C7.36029 7.69901 16.6684 0 16.6684 0L16.6923 13.0044V13.0044ZM10.7244 12.467C9.96398 13.4089 9.84175 14.6036 10.4518 15.1355C11.0618 15.6676 12.173 15.3354 12.9332 14.3935C13.6939 13.4515 13.8158 12.2565 13.2058 11.7245C12.5959 11.1924 11.485 11.5251 10.7244 12.467Z" fill="#FFDE52"/>
</svg>
