<svg width="32" height="34" viewBox="0 0 32 34" fill="none" xmlns="http://www.w3.org/2000/svg">
<path fill-rule="evenodd" clip-rule="evenodd" d="M21.7795 29.384C24.4433 29.384 27.3338 30.3368 30.5327 33.2936C30.8532 33.5898 31.2797 33.2218 31.0002 32.8537C27.8564 28.7131 24.9486 27.9248 22.0487 27.2581C18.5018 26.4428 16.6772 24.3609 15.4056 22.0748C15.1525 21.62 15.039 21.7003 15.0164 22.2849C14.9886 22.9998 15.0358 23.9459 15.1891 24.8768C15.0461 24.8837 14.9021 24.8818 14.7575 24.8818C9.6829 24.8818 5.56911 20.5908 5.56911 15.2972C5.56911 10.0036 9.6829 5.71227 14.7575 5.71227C19.832 5.71227 23.9457 10.0036 23.9457 15.2972C23.9457 15.6738 23.9282 16.046 23.8876 16.4113C23.2163 16.2851 21.896 16.2708 20.9695 16.3544C20.621 16.3858 20.67 16.5552 20.9336 16.6049C23.9708 17.1775 26.0577 19.141 26.5347 22.7043C26.5456 22.786 26.6484 22.8107 26.6891 22.7399C27.939 20.5642 28.6569 18.018 28.6569 15.2972C28.6569 7.28946 22.434 0.797852 14.7575 0.797852C7.08106 0.797852 0.857971 7.28946 0.857971 15.2972C0.857971 23.3049 7.08106 29.7971 14.7575 29.7971C16.7941 29.7971 18.8144 29.384 21.7795 29.384ZM22.8142 24.1197C23.4324 24.6652 23.6206 25.3136 23.2935 25.771C23.1115 26.0217 22.8167 26.1602 22.4635 26.1602C22.1165 26.1602 21.7629 26.0262 21.5176 25.8026C20.9554 25.2902 20.7902 24.4589 21.1573 23.9868C21.3007 23.8022 21.5337 23.7004 21.813 23.7004C22.1527 23.7004 22.5081 23.8496 22.8142 24.1197ZM25.6673 22.7346C25.7582 23.3702 25.5657 23.6333 25.3725 23.6333C25.1617 23.6333 24.8969 23.3757 24.5845 22.8676C24.2763 22.3658 24.1636 21.7902 24.3163 21.4993C24.4173 21.3068 24.6285 21.2232 24.8949 21.3283C25.4107 21.5316 25.6132 22.3552 25.6673 22.7346V22.7346Z" fill="#FFDE52"/>
</svg>
