<svg width="50" height="50" viewBox="0 0 50 50" fill="none" xmlns="http://www.w3.org/2000/svg">
<path fill-rule="evenodd" clip-rule="evenodd" d="M21.4231 32.7691H17.4182L19.9231 17.2806H23.9277L21.4231 32.7691Z" fill="#686D81"/>
<path fill-rule="evenodd" clip-rule="evenodd" d="M35.9409 17.6594C35.151 17.346 33.8981 17 32.3489 17C28.394 17 25.609 19.109 25.5919 22.1241C25.5591 24.3487 27.5859 25.5843 29.1018 26.326C30.6512 27.084 31.1779 27.5787 31.1779 28.2543C31.1621 29.2919 29.9259 29.7702 28.7729 29.7702C27.174 29.7702 26.3172 29.5236 25.0153 28.9463L24.4879 28.6989L23.9275 32.1757C24.8668 32.6036 26.5973 32.9834 28.394 33C32.5961 33 35.3319 30.9237 35.3643 27.7105C35.3803 25.9474 34.31 24.5964 32.0026 23.4924C30.6019 22.7837 29.7441 22.3059 29.7441 21.5808C29.7605 20.9216 30.4697 20.2464 32.0508 20.2464C33.3528 20.2134 34.3094 20.5263 35.034 20.8395L35.3962 21.0039L35.9409 17.6594Z" fill="#686D81"/>
<path fill-rule="evenodd" clip-rule="evenodd" d="M43.1093 17.2806H46.2071L49.4379 32.7688H45.7299C45.7299 32.7688 45.367 30.9893 45.252 30.4455H40.1101C39.9614 30.8572 39.2696 32.7688 39.2696 32.7688H35.0675L41.0161 18.5657C41.4283 17.5605 42.1541 17.2806 43.1093 17.2806ZM42.8625 22.9486C42.8625 22.9486 41.5934 26.3923 41.2636 27.2821H44.5924C44.4277 26.5077 43.6693 22.8003 43.6693 22.8003L43.3894 21.4657C43.2716 21.8094 43.1011 22.2819 42.9862 22.6005C42.9082 22.8166 42.8558 22.9619 42.8625 22.9486Z" fill="#686D81"/>
<path fill-rule="evenodd" clip-rule="evenodd" d="M14.0732 17.2806L10.1512 27.8423L9.72263 25.7002C8.99753 23.2286 6.72345 20.5433 4.1857 19.208L7.77815 32.7526H12.0131L18.308 17.2806H14.0732Z" fill="#686D81"/>
<path fill-rule="evenodd" clip-rule="evenodd" d="M6.50928 17.2806H0.0659184L0 17.5936C5.02623 18.8789 8.35499 21.9764 9.72263 25.7002L8.32193 18.5826C8.09132 17.5934 7.38264 17.3133 6.50928 17.2806Z" fill="#686D81"/>
</svg>
