<svg width="50" height="50" viewBox="0 0 50 50" fill="none" xmlns="http://www.w3.org/2000/svg">
<path fill-rule="evenodd" clip-rule="evenodd" d="M41.3333 19.5001V27.8334C41.3333 29.2141 40.2141 30.3334 38.8333 30.3334H36.3333V19.5001H41.3333ZM14.6667 16.1667V14.5C14.6667 13.1193 15.786 12 17.1667 12H38.8333C40.2141 12 41.3333 13.1193 41.3333 14.5V16.1667H14.6667ZM10.5 18.6668H32.1667C33.5474 18.6668 34.6667 19.7861 34.6667 21.1668V34.5001C34.6667 35.8808 33.5474 37.0001 32.1667 37.0001H10.5C9.11929 37.0001 8 35.8808 8 34.5001V21.1668C8 19.7861 9.11929 18.6668 10.5 18.6668ZM12.5833 22.8334C11.893 22.8334 11.3333 23.3931 11.3333 24.0834C11.3333 24.7738 11.893 25.3334 12.5833 25.3334H15.9167C16.607 25.3334 17.1667 24.7738 17.1667 24.0834C17.1667 23.3931 16.607 22.8334 15.9167 22.8334H12.5833ZM12.1667 29.4999C11.7064 29.4999 11.3333 29.873 11.3333 30.3333C11.3333 30.7935 11.7064 31.1666 12.1667 31.1666H14.6667C15.1269 31.1666 15.5 30.7935 15.5 30.3333C15.5 29.873 15.1269 29.4999 14.6667 29.4999H12.1667ZM12.1667 32.0001C11.7064 32.0001 11.3333 32.3732 11.3333 32.8334C11.3333 33.2936 11.7064 33.6667 12.1667 33.6667H24.6667C25.1269 33.6667 25.5 33.2936 25.5 32.8334C25.5 32.3732 25.1269 32.0001 24.6667 32.0001H12.1667ZM17.1667 29.4999C16.7064 29.4999 16.3333 29.873 16.3333 30.3333C16.3333 30.7935 16.7064 31.1666 17.1667 31.1666H19.6667C20.1269 31.1666 20.5 30.7935 20.5 30.3333C20.5 29.873 20.1269 29.4999 19.6667 29.4999H17.1667ZM22.1667 29.4999C21.7064 29.4999 21.3333 29.873 21.3333 30.3333C21.3333 30.7935 21.7064 31.1666 22.1667 31.1666H24.6667C25.1269 31.1666 25.5 30.7935 25.5 30.3333C25.5 29.873 25.1269 29.4999 24.6667 29.4999H22.1667ZM27.1667 29.4999C26.7064 29.4999 26.3333 29.873 26.3333 30.3333C26.3333 30.7935 26.7064 31.1666 27.1667 31.1666H29.6667C30.1269 31.1666 30.5 30.7935 30.5 30.3333C30.5 29.873 30.1269 29.4999 29.6667 29.4999H27.1667ZM25.9167 26.1666C26.5982 26.1666 27.2032 25.8393 27.5833 25.3334C27.9634 25.8393 28.5685 26.1666 29.25 26.1666C30.4006 26.1666 31.3333 25.2338 31.3333 24.0832C31.3333 22.9326 30.4006 21.9999 29.25 21.9999C28.5685 21.9999 27.9634 22.3271 27.5833 22.833C27.2032 22.3271 26.5982 21.9999 25.9167 21.9999C24.7661 21.9999 23.8333 22.9326 23.8333 24.0832C23.8333 25.2338 24.7661 26.1666 25.9167 26.1666Z" fill="#686D81"/>
</svg>
