<svg width="50" height="50" viewBox="0 0 50 50" fill="none" xmlns="http://www.w3.org/2000/svg">
<path fill-rule="evenodd" clip-rule="evenodd" d="M31.3599 37.2394C34.1177 37.2394 37.1102 38.1885 40.4221 41.1338C40.7539 41.4288 41.1954 41.0622 40.9061 40.6956C37.6512 36.571 34.6408 35.7858 31.6386 35.1217C27.9665 34.3096 26.0775 32.2357 24.761 29.9586C24.499 29.5055 24.3815 29.5855 24.3581 30.1678C24.3293 30.88 24.3782 31.8224 24.5369 32.7496C24.3888 32.7566 24.2398 32.7547 24.0901 32.7547C18.8363 32.7547 14.5774 28.4802 14.5774 23.2072C14.5774 17.9341 18.8363 13.6595 24.0901 13.6595C29.3436 13.6595 33.6026 17.9341 33.6026 23.2072C33.6026 23.5824 33.5844 23.9532 33.5424 24.317C32.8474 24.1913 31.4805 24.1771 30.5213 24.2604C30.1605 24.2916 30.2113 24.4604 30.4841 24.5099C33.6285 25.0802 35.7891 27.0361 36.2829 30.5856C36.2942 30.667 36.4006 30.6915 36.4428 30.621C37.7368 28.4538 38.48 25.9175 38.48 23.2072C38.48 15.2306 32.0375 8.76416 24.0901 8.76416C16.1427 8.76416 9.69995 15.2306 9.69995 23.2072C9.69995 31.1838 16.1427 37.6509 24.0901 37.6509C26.1986 37.6509 28.2901 37.2394 31.3599 37.2394ZM32.4312 31.9956C33.0711 32.5388 33.266 33.1847 32.9273 33.6403C32.7389 33.89 32.4337 34.0279 32.068 34.0279C31.7088 34.0279 31.3427 33.8944 31.0887 33.6718C30.5067 33.1614 30.3356 32.3334 30.7157 31.8631C30.8642 31.6793 31.1054 31.578 31.3946 31.578C31.7462 31.578 32.1142 31.7265 32.4312 31.9956ZM35.3849 30.6157C35.479 31.2488 35.2798 31.5109 35.0797 31.5109C34.8614 31.5109 34.5873 31.2543 34.2639 30.7481C33.9448 30.2483 33.8282 29.675 33.9862 29.3852C34.0908 29.1934 34.3095 29.1101 34.5852 29.2148C35.1192 29.4173 35.3289 30.2378 35.3849 30.6157Z" fill="#686D81"/>
</svg>
