<svg width="50" height="50" viewBox="0 0 50 50" fill="none" xmlns="http://www.w3.org/2000/svg">
<path fill-rule="evenodd" clip-rule="evenodd" d="M29.1991 16.954L29.1743 24.2203L15.7078 33.3944L32.7669 27.8314V16.954H36.2477V35.2281H15.0418C13.7829 35.2281 12.7524 34.1977 12.7524 32.9386L12.7528 19.4905C12.7528 17.7369 12.8998 16.6242 16.5312 13.9134C19.5377 11.6692 29.1743 4 29.1743 4L29.1991 16.954ZM23.0205 16.4187C22.2333 17.3569 22.1068 18.547 22.7383 19.0768C23.3698 19.6068 24.5203 19.2759 25.3073 18.3377C26.0948 17.3993 26.221 16.2089 25.5896 15.6789C24.9581 15.149 23.808 15.4803 23.0205 16.4187Z" fill="#686D81"/>
</svg>
