<svg width="50" height="50" viewBox="0 0 50 50" fill="none" xmlns="http://www.w3.org/2000/svg">
<path d="M45 25.2C45 31.3856 39.8833 36.4 33.5714 36.4C27.2596 36.4 22.1429 31.3856 22.1429 25.2C22.1429 19.0144 27.2596 14 33.5714 14C39.8833 14 45 19.0144 45 25.2Z" fill="#686D81"/>
<path d="M23.3241 16.2676C21.4075 14.8444 19.0186 14 16.4286 14C10.1167 14 5 19.0144 5 25.2C5 31.3856 10.1167 36.4 16.4286 36.4C19.0187 36.4 21.4075 35.5556 23.3241 34.1324C21.1674 31.7579 19.8571 28.6289 19.8571 25.2C19.8571 21.771 21.1674 18.642 23.3241 16.2676Z" fill="#686D81"/>
</svg>
