<svg width="50" height="50" viewBox="0 0 50 50" fill="none" xmlns="http://www.w3.org/2000/svg">
<path fill-rule="evenodd" clip-rule="evenodd" d="M4.62366 18.0023C5.07035 17.9997 6.3979 17.8804 6.96023 19.7739C7.33901 21.0494 7.9424 23.1388 8.77039 26.0419H9.10759C9.99553 22.9812 10.6055 20.8919 10.9375 19.7739C11.5057 17.8606 12.9261 18.0024 13.4943 18.0024L17.878 18.0024V31.6078H13.41V23.5899H13.1104L10.6198 31.6078H7.25821L4.76755 23.5839H4.46794V31.6078H0V18.0024L4.62366 18.0023ZM24.2939 18.0024V26.0262H24.6503L27.6799 19.4283C28.268 18.1152 29.5215 18.0024 29.5215 18.0024H33.8451V31.6078H29.2839V23.5839H28.9274L25.9572 30.1819C25.3691 31.489 24.0562 31.6078 24.0562 31.6078H19.7326V18.0024H24.2939ZM49.6109 24.4678C48.9746 26.2666 46.9765 27.555 44.7644 27.555H39.981V31.6078H35.6436V24.4678H49.6109Z" fill="#686D81"/>
<path fill-rule="evenodd" clip-rule="evenodd" d="M44.9736 18.0024H35.4161C35.6436 21.0315 38.258 23.6245 40.9645 23.6245H49.9123C50.4286 21.107 48.6511 18.0024 44.9736 18.0024Z" fill="#686D81"/>
</svg>
