<svg width="28" height="29" viewBox="0 0 28 29" fill="none" xmlns="http://www.w3.org/2000/svg">
<path d="M21.9963 21.4179L17.166 16.7805C17.0501 16.8602 16.9378 16.9377 16.8317 17.0114C16.4702 17.267 16.1768 17.4665 15.9515 17.6095C15.7263 17.7528 15.4266 17.8989 15.0525 18.048C14.6781 18.1973 14.3293 18.2717 14.0058 18.2717H13.9963H13.9869C13.6633 18.2717 13.3145 18.1973 12.9402 18.048C12.5659 17.8989 12.2662 17.7528 12.0412 17.6095C11.8159 17.4665 11.5227 17.2671 11.161 17.0114C11.0602 16.9404 10.9485 16.8626 10.8276 16.7793L5.99634 21.4179C6.27861 21.6578 6.6109 21.7793 6.99411 21.7793H20.9987C21.382 21.7793 21.714 21.6578 21.9963 21.4179Z" fill="#686D81"/>
<path d="M5.89925 12.7931C5.55966 12.498 5.25851 12.16 4.99634 11.7793V20.7793L9.986 15.7916C9.18577 15.0634 7.16506 13.9143 5.89925 12.7931Z" fill="#686D81"/>
<path d="M22.1019 12.793C20.8839 13.8671 18.8918 15.0439 18.0393 15.8196L22.9962 20.7793V11.7793" fill="#686D81"/>
<path d="M21.3891 7.7793H6.6034C6.08757 7.7793 5.69099 7.95348 5.41318 8.30149C5.13513 8.64966 4.99634 9.08508 4.99634 9.60727C4.99634 10.0291 5.18052 10.4861 5.54873 10.9785C5.91694 11.4707 6.30875 11.8573 6.72395 12.1385C6.95157 12.2993 7.63799 12.7765 8.78321 13.5699C9.40143 13.9983 9.93905 14.3717 10.4011 14.6939C10.7949 14.9683 11.1345 15.2059 11.4149 15.4031C11.4471 15.4257 11.4977 15.4619 11.5649 15.5099C11.6373 15.5619 11.7289 15.6279 11.8419 15.7095C12.0595 15.8669 12.2403 15.9941 12.3843 16.0913C12.5281 16.1885 12.7023 16.2971 12.9067 16.4177C13.1109 16.5381 13.3035 16.6287 13.4843 16.6889C13.6651 16.7491 13.8325 16.7793 13.9865 16.7793H13.9965H14.0065C14.1604 16.7793 14.3279 16.7491 14.5087 16.6889C14.6895 16.6287 14.8819 16.5383 15.0863 16.4177C15.2905 16.2971 15.4645 16.1883 15.6087 16.0913C15.7527 15.9941 15.9335 15.8669 16.1512 15.7095C16.2639 15.6279 16.3556 15.5619 16.4279 15.5101C16.4952 15.4618 16.5458 15.4259 16.5781 15.4031C16.7966 15.2511 17.137 15.0145 17.5946 14.6967C18.4274 14.1181 19.6538 13.2665 21.2791 12.1385C21.7679 11.7971 22.1763 11.3851 22.5045 10.9031C22.8321 10.4211 22.9963 9.91551 22.9963 9.38649C22.9963 8.94449 22.8371 8.56629 22.5193 8.25129C22.2011 7.93668 21.8243 7.7793 21.3891 7.7793Z" fill="#686D81"/>
</svg>
