<svg width="50" height="50" viewBox="0 0 50 50" fill="none" xmlns="http://www.w3.org/2000/svg">
<rect width="50" height="50" rx="5" fill="white"/>
<path d="M15.8076 34.5772C15.2218 33.9914 15.2218 33.0416 15.8076 32.4558L32.0711 16.1924C32.6569 15.6066 33.6066 15.6066 34.1924 16.1924C34.7782 16.7782 34.7782 17.7279 34.1924 18.3137L17.9289 34.5772C17.3432 35.1629 16.3934 35.1629 15.8076 34.5772Z" fill="#686D81"/>
<path d="M34.1924 34.5772C33.6066 35.1629 32.6569 35.1629 32.0711 34.5772L15.8076 18.3137C15.2218 17.7279 15.2218 16.7782 15.8076 16.1924C16.3934 15.6066 17.3432 15.6066 17.9289 16.1924L34.1924 32.4558C34.7782 33.0416 34.7782 33.9914 34.1924 34.5772Z" fill="#686D81"/>
</svg>
