<svg width="31" height="31" viewBox="0 0 31 31" fill="none" xmlns="http://www.w3.org/2000/svg">
<path fill-rule="evenodd" clip-rule="evenodd" d="M15.5 27.5674C22.1274 27.5674 27.5 22.1948 27.5 15.5674C27.5 8.93997 22.1274 3.56738 15.5 3.56738C8.87258 3.56738 3.5 8.93997 3.5 15.5674C3.5 22.1948 8.87258 27.5674 15.5 27.5674ZM19.5435 11.7179C19.5435 13.8927 17.7258 15.6593 15.4997 15.6593C13.273 15.6593 11.4552 13.8927 11.4552 11.7179C11.4552 9.534 13.273 7.76738 15.4997 7.76738C17.7258 7.76738 19.5435 9.534 19.5435 11.7179ZM17.4858 11.7179C17.4858 10.6403 16.5935 9.76864 15.4997 9.76864C14.4052 9.76864 13.513 10.6396 13.5136 11.7179C13.5136 12.7865 14.4059 13.6581 15.4997 13.6581C16.5935 13.6581 17.4858 12.7865 17.4858 11.7179ZM11.911 17.9368C10.8946 17.2972 10.4491 16.9229 10.8414 16.1396C11.0725 15.6951 11.7049 15.32 12.5433 15.9661C12.5433 15.9661 13.6749 16.8468 15.5016 16.8468C17.3277 16.8468 18.4599 15.9661 18.4599 15.9661C19.2984 15.3233 19.9282 15.6951 20.1618 16.1396C20.5484 16.9229 20.1029 17.2966 19.0865 17.9394L19.0872 17.9401C18.2334 18.4704 17.0576 18.6804 16.2812 18.7597L16.9328 19.3876L19.3118 21.7119C20.1817 22.5828 18.7665 23.9445 17.8871 23.1034C17.3014 22.5221 16.4469 21.6873 15.552 20.813L15.508 20.77L13.129 23.1002C12.2502 23.938 10.8344 22.5646 11.7138 21.7086C11.8835 21.5427 12.0736 21.3562 12.2795 21.1542L12.2797 21.1539L12.2799 21.1537C12.8073 20.6364 13.438 20.0176 14.0929 19.3843L14.7355 18.7564C13.9687 18.6771 12.775 18.4789 11.911 17.9368Z" fill="#FFDE52"/>
</svg>
