<svg width="83" height="93" viewBox="0 0 83 93" fill="none" xmlns="http://www.w3.org/2000/svg">
<path d="M63.7178 91.4999H20.2168C17.6471 91.4999 15.5669 89.5421 15.5669 87.156V5.84392C15.5669 3.45779 17.6471 1.49994 20.2168 1.49994H63.7178C66.2875 1.49994 68.3677 3.45779 68.3677 5.84392V87.156C68.3065 89.5421 66.2875 91.4999 63.7178 91.4999Z" fill="white" stroke="#010101" stroke-width="2" stroke-miterlimit="10"/>
<path d="M41.8757 86.0547C43.2611 86.0547 44.3842 84.9316 44.3842 83.5462C44.3842 82.1608 43.2611 81.0377 41.8757 81.0377C40.4903 81.0377 39.3672 82.1608 39.3672 83.5462C39.3672 84.9316 40.4903 86.0547 41.8757 86.0547Z" fill="white" stroke="#010101" stroke-width="2" stroke-miterlimit="10"/>
<path d="M46.2808 6.33337H19.7886V75.5924H64.1462V6.33337H64.0238H59.0068" fill="white"/>
<path d="M46.2808 6.33337H19.7886V75.5924H64.1462V6.33337H64.0238H59.0068" stroke="#010101" stroke-width="2" stroke-miterlimit="10" stroke-linecap="round"/>
<path d="M81.5219 36.8025V71.9826L57.9053 62.8052V19.4266L81.5219 9.14783V24.5659" fill="white"/>
<path d="M81.5219 36.8025V71.9826L57.9053 62.8052V19.4266L81.5219 9.14783V24.5659" stroke="#010101" stroke-width="2" stroke-miterlimit="10" stroke-linecap="round"/>
<path d="M1.61719 45.3681V10.1268L25.295 19.3042V62.6829L1.61719 72.9616V57.6047" fill="white"/>
<path d="M1.61719 45.3681V10.1268L25.295 19.3042V62.6829L1.61719 72.9616V57.6047" stroke="#010101" stroke-width="2" stroke-miterlimit="10" stroke-linecap="round"/>
<path d="M34.5585 38.5026C36.0385 38.5026 37.0735 38.9026 37.6635 39.7026C38.2535 40.5026 38.5485 41.8926 38.5485 43.8726C38.5485 45.8526 38.2535 47.2426 37.6635 48.0426C37.0735 48.8426 36.0385 49.2426 34.5585 49.2426C33.0885 49.2426 32.0585 48.8426 31.4685 48.0426C30.8785 47.2426 30.5835 45.8526 30.5835 43.8726C30.5835 41.8926 30.8785 40.5026 31.4685 39.7026C32.0585 38.9026 33.0885 38.5026 34.5585 38.5026ZM34.5435 40.3176C33.8735 40.3176 33.4185 40.5626 33.1785 41.0526C32.9485 41.5326 32.8335 42.4726 32.8335 43.8726C32.8335 45.2726 32.9485 46.2176 33.1785 46.7076C33.4185 47.1876 33.8735 47.4276 34.5435 47.4276C35.2335 47.4276 35.6985 47.1876 35.9385 46.7076C36.1785 46.2176 36.2985 45.2726 36.2985 43.8726C36.2985 42.4726 36.1785 41.5326 35.9385 41.0526C35.6985 40.5626 35.2335 40.3176 34.5435 40.3176Z" fill="black"/>
<path d="M42.3571 38.5026C43.3171 38.5026 43.9871 38.7276 44.3671 39.1776C44.7471 39.6276 44.9371 40.4276 44.9371 41.5776C44.9371 42.7176 44.7471 43.5176 44.3671 43.9776C43.9871 44.4276 43.3171 44.6526 42.3571 44.6526C41.4071 44.6526 40.7421 44.4276 40.3621 43.9776C39.9821 43.5176 39.7921 42.7176 39.7921 41.5776C39.7921 40.4276 39.9821 39.6276 40.3621 39.1776C40.7421 38.7276 41.4071 38.5026 42.3571 38.5026ZM43.6771 49.0476H42.2521L48.4621 38.6976H49.8721L43.6771 49.0476ZM42.3421 39.7326C41.9821 39.7326 41.7371 39.8576 41.6071 40.1076C41.4871 40.3476 41.4271 40.8376 41.4271 41.5776C41.4271 42.3276 41.4871 42.8226 41.6071 43.0626C41.7371 43.3026 41.9821 43.4226 42.3421 43.4226C42.7221 43.4226 42.9721 43.3026 43.0921 43.0626C43.2221 42.8226 43.2871 42.3276 43.2871 41.5776C43.2871 40.8276 43.2221 40.3326 43.0921 40.0926C42.9721 39.8526 42.7221 39.7326 42.3421 39.7326ZM49.7971 43.0626C50.7571 43.0626 51.4271 43.2926 51.8071 43.7526C52.1871 44.2026 52.3771 44.9976 52.3771 46.1376C52.3771 47.2876 52.1871 48.0926 51.8071 48.5526C51.4271 49.0026 50.7571 49.2276 49.7971 49.2276C48.8471 49.2276 48.1821 49.0026 47.8021 48.5526C47.4321 48.0926 47.2471 47.2876 47.2471 46.1376C47.2471 44.9976 47.4321 44.2026 47.8021 43.7526C48.1821 43.2926 48.8471 43.0626 49.7971 43.0626ZM50.5321 44.6676C50.4121 44.4276 50.1671 44.3076 49.7971 44.3076C49.4271 44.3076 49.1771 44.4276 49.0471 44.6676C48.9271 44.8976 48.8721 45.3876 48.8821 46.1376C48.8721 46.8876 48.9271 47.3826 49.0471 47.6226C49.1771 47.8626 49.4271 47.9826 49.7971 47.9826C50.1671 47.9826 50.4121 47.8626 50.5321 47.6226C50.6621 47.3826 50.7271 46.8876 50.7271 46.1376C50.7271 45.3976 50.6621 44.9076 50.5321 44.6676Z" fill="black"/>
<path d="M49.0951 21.3844L45.057 17.3463C44.8735 17.1628 44.5064 17.1628 44.3228 17.3463L41.9367 19.7325L39.5506 17.3463C39.367 17.1628 38.9999 17.1628 38.8164 17.3463L34.7783 21.3844C34.5947 21.568 34.5947 21.9351 34.7783 22.1186L41.5696 28.9099C41.7531 29.0935 42.1202 29.0935 42.3038 28.9099L46.3419 24.8718L49.0951 22.1186C49.2786 21.9351 49.2786 21.568 49.0951 21.3844Z" fill="#FFDA54"/>
</svg>
