<svg width="135" height="131" viewBox="0 0 135 131" fill="none" xmlns="http://www.w3.org/2000/svg">
<path d="M67.647 69.3392C86.2523 69.3392 101.335 54.1197 101.335 35.3456C101.335 16.5715 86.2523 1.35205 67.647 1.35205C49.0416 1.35205 33.959 16.5715 33.959 35.3456C33.959 54.1197 49.0416 69.3392 67.647 69.3392Z" fill="white" stroke="#010101" stroke-width="2" stroke-miterlimit="10" stroke-linecap="round"/>
<path d="M133.473 129.937C130.371 95.943 102.111 69.3394 67.5617 69.3394C33.0983 69.3394 4.7521 95.943 1.65039 129.937" stroke="#010101" stroke-width="2" stroke-miterlimit="10" stroke-linecap="round"/>
<path d="M111.158 129.937H133.559C130.457 95.943 102.197 69.3394 67.6477 69.3394C33.1842 69.3394 4.83804 95.943 1.73633 129.937H93.7537" fill="white"/>
<path d="M111.158 129.937H133.559C130.457 95.943 102.197 69.3394 67.6477 69.3394C33.1842 69.3394 4.83804 95.943 1.73633 129.937H93.7537" stroke="#010101" stroke-width="2" stroke-miterlimit="10" stroke-linecap="round"/>
<path d="M67.6117 69C50.3538 69 34.7354 75.9505 23 87.2673C37.3241 92.8812 52.8562 96 69.0786 96C84.5245 96 99.28 93.1485 113 88.0693C101.178 76.3069 85.2148 69 67.6117 69Z" stroke="#010101" stroke-width="2" stroke-miterlimit="10" stroke-linecap="round"/>
<path d="M57.7402 69.9478L68.7685 93.9433L77.4706 69.7739" stroke="#010101" stroke-width="2" stroke-miterlimit="10" stroke-linecap="round"/>
<path d="M69.3718 117.591C72.0365 117.591 74.1966 115.411 74.1966 112.722C74.1966 110.033 72.0365 107.854 69.3718 107.854C66.7071 107.854 64.5469 110.033 64.5469 112.722C64.5469 115.411 66.7071 117.591 69.3718 117.591Z" fill="#FFDA54"/>
<path d="M54.1211 50.5598C57.3951 54.2113 62.0477 56.4717 67.3033 56.4717C72.559 56.4717 77.2116 54.2113 80.4856 50.5598" stroke="#010101" stroke-width="2" stroke-miterlimit="10" stroke-linecap="round"/>
<path d="M87.896 45.344C97.0321 45.344 104.438 37.8705 104.438 28.6515C104.438 19.4325 97.0321 11.959 87.896 11.959C78.7598 11.959 71.3535 19.4325 71.3535 28.6515C71.3535 37.8705 78.7598 45.344 87.896 45.344Z" stroke="#010101" stroke-width="2" stroke-miterlimit="10" stroke-linecap="round"/>
<path d="M46.5385 45.344C55.6747 45.344 63.081 37.8705 63.081 28.6515C63.081 19.4325 55.6747 11.959 46.5385 11.959C37.4024 11.959 29.9961 19.4325 29.9961 28.6515C29.9961 37.8705 37.4024 45.344 46.5385 45.344Z" stroke="#010101" stroke-width="2" stroke-miterlimit="10" stroke-linecap="round"/>
<path d="M63.2539 31.868C64.4601 31.6072 65.6663 31.4333 66.8726 31.4333C68.5096 31.4333 70.1466 31.6942 71.6974 32.1289" stroke="#010101" stroke-width="2" stroke-miterlimit="10" stroke-linecap="round"/>
<path d="M56.5995 33.5998C58.5141 33.5998 60.0661 32.0328 60.0661 30.0999C60.0661 28.1669 58.5141 26.5999 56.5995 26.5999C54.6849 26.5999 53.1328 28.1669 53.1328 30.0999C53.1328 32.0328 54.6849 33.5998 56.5995 33.5998Z" fill="#010101"/>
<path d="M77.4003 33.5998C79.3149 33.5998 80.8669 32.0328 80.8669 30.0999C80.8669 28.1669 79.3149 26.5999 77.4003 26.5999C75.4857 26.5999 73.9336 28.1669 73.9336 30.0999C73.9336 32.0328 75.4857 33.5998 77.4003 33.5998Z" fill="#010101"/>
</svg>
