<svg width="135" height="129" viewBox="0 0 135 129" fill="none" xmlns="http://www.w3.org/2000/svg">
<path d="M94.9795 112.752C94.9795 111.51 94.0177 110.683 92.9185 110.683H89.0714V90.9596C89.0714 90.4079 88.6592 89.9941 88.1097 89.9941H46.8906C46.3411 89.9941 45.9289 90.4079 45.9289 90.9596V110.545H42.2192C40.9826 110.545 40.1582 111.51 40.1582 112.614C40.1582 112.614 40.1582 112.614 40.1582 112.752V114.821H42.2192C42.2192 114.821 42.2192 114.821 42.3565 114.821H92.7811C92.7811 114.821 92.7811 114.821 92.9185 114.821H94.9795V113.028V112.752Z" stroke="#010101" stroke-width="2" stroke-miterlimit="10" stroke-linecap="round"/>
<path d="M19.4112 1.58398H133.45V85.0286" fill="white"/>
<path d="M133.863 51.099V100.062C133.863 101.993 132.351 103.648 130.29 103.648H4.57232C2.64876 103.648 1 102.131 1 100.062V5.17003C1 3.23908 2.51136 1.58398 4.57232 1.58398H79.1787" fill="white"/>
<path d="M133.863 93.7178V100.062C133.863 101.993 132.351 103.648 130.29 103.648H4.57232C2.64876 103.648 1 102.131 1 100.062V5.17003C1 3.23908 2.51136 1.58398 4.57232 1.58398H42.7686" stroke="#010101" stroke-width="2" stroke-miterlimit="10" stroke-linecap="round"/>
<path d="M55.8213 1.16992H130.428C132.489 1.16992 134 2.82502 134 4.75597V79.6492" stroke="#010101" stroke-width="2" stroke-miterlimit="10" stroke-linecap="round"/>
<path d="M93.6051 85.0279H8.96875V9.03125H48.4016" stroke="#010101" stroke-width="2" stroke-miterlimit="10" stroke-linecap="round"/>
<path d="M126.168 85.166H103.91" stroke="#010101" stroke-width="2" stroke-miterlimit="10" stroke-linecap="round"/>
<path d="M62.2793 9.03125H126.169V84.89" stroke="#010101" stroke-width="2" stroke-miterlimit="10" stroke-linecap="round"/>
<path d="M66.5382 127.095H21.0599C18.4493 127.095 16.251 125.026 16.251 122.544V37.03C16.251 34.5474 18.3119 32.4785 21.0599 32.4785H66.5382C69.1487 32.4785 71.3471 34.5474 71.3471 37.03V122.544C71.3471 125.026 69.1487 127.095 66.5382 127.095Z" fill="white" stroke="#010101" stroke-width="2" stroke-miterlimit="10" stroke-linecap="round"/>
<path d="M43.456 120.337C45.9291 120.337 47.9901 118.269 47.9901 115.786C47.9901 113.303 45.9291 111.234 43.456 111.234C40.9828 111.234 38.9219 113.303 38.9219 115.786C38.9219 118.269 40.9828 120.337 43.456 120.337Z" stroke="#010101" stroke-width="2" stroke-miterlimit="10" stroke-linecap="round"/>
<path d="M45.1039 40.4785H23.2578V104.614H63.6525V40.4785H63.5151H58.981" fill="white"/>
<path d="M45.1039 40.4785H23.2578V104.614H63.6525V40.4785H63.5151H58.981" stroke="#010101" stroke-width="2" stroke-miterlimit="10" stroke-linecap="round"/>
<path d="M52.7989 66.2703L47.5778 61.0292C47.303 60.7533 46.8908 60.7533 46.616 61.0292L43.5933 64.0635L40.5706 61.0292C40.2958 60.7533 39.8836 60.7533 39.6088 61.0292L34.3877 66.2703C34.1129 66.5462 34.1129 66.9599 34.3877 67.2358L43.0437 75.9251C43.3185 76.2009 43.7307 76.2009 44.0055 75.9251L49.2266 70.6839L52.7989 67.0979C53.0737 66.9599 53.0737 66.5462 52.7989 66.2703Z" fill="#FFDA54"/>
</svg>
