<svg width="134" height="82" viewBox="0 0 134 82" fill="none" xmlns="http://www.w3.org/2000/svg">
<path d="M66.6126 63.4908C83.8689 63.4908 97.858 49.5017 97.858 32.2454C97.858 14.989 83.8689 1 66.6126 1C49.3562 1 35.3672 14.989 35.3672 32.2454C35.3672 49.5017 49.3562 63.4908 66.6126 63.4908Z" fill="white" stroke="#010101" stroke-width="2" stroke-miterlimit="10"/>
<path d="M66.7845 60.1276C82.1295 60.1276 94.569 47.6881 94.569 32.3431C94.569 16.9981 82.1295 4.55859 66.7845 4.55859C51.4396 4.55859 39 16.9981 39 32.3431C39 47.6881 51.4396 60.1276 66.7845 60.1276Z" fill="white" stroke="#010101" stroke-width="2" stroke-miterlimit="10"/>
<path d="M91.0637 13.236L89.9886 6.5791L84.3711 6.66786C86.9231 8.48004 89.1817 10.6967 91.0637 13.236Z" fill="white" stroke="#010101" stroke-width="2" stroke-miterlimit="10"/>
<path d="M90.1127 6.34863L67.5625 27.9174L70.3863 32.1244L94.4976 16.6394L90.1127 6.34863Z" fill="#1D2431"/>
<path d="M67.5273 28.7326L90.5022 7.25L94.0951 15.8362L69.7772 31.786L67.5273 28.7326Z" fill="white" stroke="#010101" stroke-width="2" stroke-miterlimit="10"/>
<path d="M42.4141 12.4489L43.5964 5.59033L49.5883 5.67642C46.8564 7.54351 44.4353 9.82898 42.4141 12.4489Z" fill="white" stroke="#010101" stroke-width="2" stroke-miterlimit="10"/>
<path d="M43.1115 6.28027L65.6616 27.849L62.8436 32.056L38.7266 16.571L43.1115 6.28027Z" fill="white" stroke="#010101" stroke-width="2" stroke-miterlimit="10"/>
<path d="M66.8289 46.2784C74.5505 46.2784 80.8101 40.0188 80.8101 32.2971C80.8101 24.5755 74.5505 18.3159 66.8289 18.3159C59.1073 18.3159 52.8477 24.5755 52.8477 32.2971C52.8477 40.0188 59.1073 46.2784 66.8289 46.2784Z" fill="white" stroke="#010101" stroke-width="2" stroke-miterlimit="10"/>
<path d="M73.9157 31.7428L69.9157 27.7428C69.7339 27.561 69.3703 27.561 69.1885 27.7428L66.8248 30.1064L64.4612 27.7428C64.2794 27.561 63.9158 27.561 63.734 27.7428L59.734 31.7428C59.5522 31.9246 59.5522 32.2882 59.734 32.47L66.4612 39.1972C66.643 39.379 67.0067 39.379 67.1885 39.1972L71.1884 35.1973L73.9157 32.47C74.1581 32.2276 74.1581 31.9246 73.9157 31.7428Z" fill="#FFDA54"/>
<path d="M94.7965 70.7982L73.9457 80.7196C73.7334 80.8257 73.2559 80.9849 72.9907 80.9849C72.1948 81.0379 70.7093 80.9849 69.8604 80.2951C68.2687 78.9687 68.1096 76.6343 69.436 75.0957L69.7012 74.7774C69.7543 74.6712 69.8604 74.6182 69.9665 74.5121L92.7804 56.4202C92.8334 56.4202 92.8334 56.3671 92.8865 56.3671C94.1068 55.5182 95.274 54.5632 96.4412 52.6532C96.4943 52.5471 96.5473 52.494 96.6004 52.3879L98.2981 48.1965C98.9879 46.4457 97.0779 44.801 95.4862 45.756C93.4701 46.9763 91.454 48.4088 89.544 50.2127C89.3848 50.3718 87.7932 51.6452 85.5648 52.6002C83.0182 53.7143 81.4795 53.6613 81.1612 53.6613C80.3654 53.6082 79.9409 53.5552 78.6146 53.0777C77.129 52.5471 76.7576 51.6982 76.5984 51.3268C76.2801 50.4779 76.7046 49.7882 76.7576 49.7352C77.6065 48.1965 79.4104 48.3557 81.5326 47.4538C83.2304 46.764 83.3896 46.6579 87.8462 41.4054C89.0665 39.9729 91.3479 37.0549 94.8495 35.6224C98.9879 33.9246 104.93 34.0838 106.84 34.1368C107.848 34.1899 108.432 34.296 108.856 34.3491C109.121 34.4021 109.44 34.3491 109.705 34.296C109.758 34.2429 109.758 34.2429 109.811 34.1899C110.554 33.2879 112.305 34.1899 112.57 33.7654C114.003 31.5902 115.117 31.6432 114.586 34.6143C114.427 35.3571 114.745 36.1529 115.382 36.5774L119.308 39.3363C119.52 39.4954 119.68 39.6546 119.786 39.8138C121.536 42.5727 121.59 54.6163 118.99 57.9588C117.61 59.7626 115.753 61.1421 113.578 61.8849L113.313 61.991C113.26 61.991 113.154 62.044 113.101 62.0971L103.391 66.7129" fill="white"/>
<path d="M94.7965 70.7982L73.9457 80.7196C73.7334 80.8257 73.2559 80.9849 72.9907 80.9849C72.1948 81.0379 70.7093 80.9849 69.8604 80.2951C68.2687 78.9687 68.1096 76.6343 69.436 75.0957L69.7012 74.7774C69.7543 74.6712 69.8604 74.6182 69.9665 74.5121L92.7804 56.4202C92.8334 56.4202 92.8334 56.3671 92.8865 56.3671C94.1068 55.5182 95.274 54.5632 96.4412 52.6532C96.4943 52.5471 96.5473 52.494 96.6004 52.3879L98.2981 48.1965C98.9879 46.4457 97.0779 44.801 95.4862 45.756C93.4701 46.9763 91.454 48.4088 89.544 50.2127C89.3848 50.3718 87.7932 51.6452 85.5648 52.6002C83.0182 53.7143 81.4795 53.6613 81.1612 53.6613C80.3654 53.6082 79.9409 53.5552 78.6146 53.0777C77.129 52.5471 76.7576 51.6982 76.5984 51.3268C76.2801 50.4779 76.7046 49.7882 76.7576 49.7352C77.6065 48.1965 79.4104 48.3557 81.5326 47.4538C83.2304 46.764 83.3896 46.6579 87.8462 41.4054C89.0665 39.9729 91.3479 37.0549 94.8495 35.6224C98.9879 33.9246 104.93 34.0838 106.84 34.1368C107.848 34.1899 108.432 34.296 108.856 34.3491C109.121 34.4021 109.44 34.3491 109.705 34.296C109.758 34.2429 109.758 34.2429 109.811 34.1899C110.554 33.2879 112.305 34.1899 112.57 33.7654C114.003 31.5902 115.117 31.6432 114.586 34.6143C114.427 35.3571 114.745 36.1529 115.382 36.5774L119.308 39.3363C119.52 39.4954 119.68 39.6546 119.786 39.8138C121.536 42.5727 121.59 54.6163 118.99 57.9588C117.61 59.7626 115.753 61.1421 113.578 61.8849L113.313 61.991C113.26 61.991 113.154 62.044 113.101 62.0971L103.391 66.7129" stroke="#010101" stroke-width="2" stroke-miterlimit="10" stroke-linecap="round"/>
<path d="M122.173 48.5677L106.256 34.7733C104.346 33.0755 104.134 30.1574 105.779 28.2474L108.591 25.0111C110.288 23.1011 113.206 22.8888 115.116 24.5336L131.033 38.328C132.943 40.0258 133.155 42.9438 131.511 44.8538L128.699 48.0902C127.001 50.0002 124.083 50.2124 122.173 48.5677Z" fill="white" stroke="#010101" stroke-width="2" stroke-miterlimit="10" stroke-linecap="round"/>
<path d="M38.7698 70.7982L59.6206 80.7196C59.8328 80.8257 60.3103 80.9849 60.5756 80.9849C61.3715 81.0379 62.857 80.9849 63.7059 80.2951C65.2976 78.9687 65.4567 76.6343 64.1303 75.0957L63.8651 74.7774C63.812 74.6712 63.7059 74.6182 63.5998 74.5121L40.7859 56.4202C40.7329 56.4202 40.7329 56.3671 40.6798 56.3671C39.4595 55.5182 38.2923 54.5632 37.1251 52.6532C37.072 52.5471 37.019 52.494 36.9659 52.3879L35.2681 48.1965C34.5784 46.4457 36.4884 44.801 38.0801 45.756C40.0962 46.9763 42.1123 48.4088 44.0223 50.2127C44.1815 50.3718 45.7731 51.6452 48.0015 52.6002C50.5481 53.7143 52.0867 53.6613 52.4051 53.6613C53.2009 53.6082 53.6254 53.5552 54.9517 53.0777C56.4373 52.5471 56.8087 51.6982 56.9678 51.3268C57.2862 50.4779 56.8617 49.7882 56.8087 49.7352C55.9598 48.1965 54.1559 48.3557 52.0337 47.4538C50.3359 46.764 50.1767 46.6579 45.7201 41.4054C44.4998 39.9729 42.2184 37.0549 38.7168 35.6224C34.5784 33.9246 28.6362 34.0838 26.7262 34.1368C25.7182 34.1899 25.1345 34.296 24.7101 34.3491C24.4448 34.4021 24.1265 34.3491 23.8612 34.296C23.8082 34.2429 23.8082 34.2429 23.7551 34.1899C23.0123 33.2879 21.2615 34.1899 20.9962 33.7654C19.5637 31.5902 18.4495 31.6432 18.9801 34.6143C19.1393 35.3571 18.8209 36.1529 18.1843 36.5774L14.2582 39.3363C14.0459 39.4954 13.8868 39.6546 13.7807 39.8138C12.0298 42.5727 11.9768 54.6163 14.5765 57.9588C15.9559 59.7626 17.8129 61.1421 19.9882 61.8849L20.2534 61.991C20.3065 61.991 20.4126 62.044 20.4657 62.0971L30.1748 66.7129" fill="white"/>
<path d="M38.7698 70.7982L59.6206 80.7196C59.8328 80.8257 60.3103 80.9849 60.5756 80.9849C61.3715 81.0379 62.857 80.9849 63.7059 80.2951C65.2976 78.9687 65.4567 76.6343 64.1303 75.0957L63.8651 74.7774C63.812 74.6712 63.7059 74.6182 63.5998 74.5121L40.7859 56.4202C40.7329 56.4202 40.7329 56.3671 40.6798 56.3671C39.4595 55.5182 38.2923 54.5632 37.1251 52.6532C37.072 52.5471 37.019 52.494 36.9659 52.3879L35.2681 48.1965C34.5784 46.4457 36.4884 44.801 38.0801 45.756C40.0962 46.9763 42.1123 48.4088 44.0223 50.2127C44.1815 50.3718 45.7731 51.6452 48.0015 52.6002C50.5481 53.7143 52.0867 53.6613 52.4051 53.6613C53.2009 53.6082 53.6254 53.5552 54.9517 53.0777C56.4373 52.5471 56.8087 51.6982 56.9678 51.3268C57.2862 50.4779 56.8617 49.7882 56.8087 49.7352C55.9598 48.1965 54.1559 48.3557 52.0337 47.4538C50.3359 46.764 50.1767 46.6579 45.7201 41.4054C44.4998 39.9729 42.2184 37.0549 38.7168 35.6224C34.5784 33.9246 28.6362 34.0838 26.7262 34.1368C25.7182 34.1899 25.1345 34.296 24.7101 34.3491C24.4448 34.4021 24.1265 34.3491 23.8612 34.296C23.8082 34.2429 23.8082 34.2429 23.7551 34.1899C23.0123 33.2879 21.2615 34.1899 20.9962 33.7654C19.5637 31.5902 18.4495 31.6432 18.9801 34.6143C19.1393 35.3571 18.8209 36.1529 18.1843 36.5774L14.2582 39.3363C14.0459 39.4954 13.8868 39.6546 13.7807 39.8138C12.0298 42.5727 11.9768 54.6163 14.5765 57.9588C15.9559 59.7626 17.8129 61.1421 19.9882 61.8849L20.2534 61.991C20.3065 61.991 20.4126 62.044 20.4657 62.0971L30.1748 66.7129" stroke="#010101" stroke-width="2" stroke-miterlimit="10" stroke-linecap="round"/>
<path d="M11.4446 48.5677L27.3612 34.7733C29.2712 33.0755 29.4834 30.1574 27.8387 28.2474L25.0268 25.0111C23.329 23.1011 20.4109 22.8888 18.5009 24.5336L2.5843 38.328C0.674299 40.0258 0.462077 42.9438 2.1068 44.8538L4.91874 48.0902C6.56346 50.0002 9.48151 50.2124 11.4446 48.5677Z" fill="white" stroke="#010101" stroke-width="2" stroke-miterlimit="10" stroke-linecap="round"/>
</svg>
