<svg width="169" height="131" viewBox="0 0 169 131" fill="none" xmlns="http://www.w3.org/2000/svg">
<path d="M100.997 68.9871C119.602 68.9871 134.685 53.7677 134.685 34.9936C134.685 16.2194 119.602 1 100.997 1C82.3912 1 67.3086 16.2194 67.3086 34.9936C67.3086 53.7677 82.3912 68.9871 100.997 68.9871Z" fill="white" stroke="#010101" stroke-width="2" stroke-miterlimit="10" stroke-linecap="round"/>
<path d="M166.823 129.585C163.721 95.591 135.461 68.9873 100.911 68.9873C66.4479 68.9873 38.1017 95.591 35 129.585" stroke="#010101" stroke-width="2" stroke-miterlimit="10" stroke-linecap="round"/>
<path d="M144.507 129.585H166.909C163.807 95.591 135.547 68.9873 100.997 68.9873C66.5338 68.9873 38.1876 95.591 35.0859 129.585H127.103" fill="white"/>
<path d="M144.507 129.585H166.909C163.807 95.591 135.547 68.9873 100.997 68.9873C66.5338 68.9873 38.1876 95.591 35.0859 129.585H127.103" stroke="#010101" stroke-width="2" stroke-miterlimit="10" stroke-linecap="round"/>
<path d="M100.959 68.6479C83.7014 68.6479 68.083 75.5984 56.3477 86.9153C70.6717 92.5291 86.2038 95.6479 102.426 95.6479C117.872 95.6479 132.628 92.7965 146.348 87.7173C134.526 75.9549 118.562 68.6479 100.959 68.6479Z" stroke="#010101" stroke-width="2" stroke-miterlimit="10" stroke-linecap="round"/>
<path d="M91.0898 69.5958L102.118 93.5912L110.82 69.4219" stroke="#010101" stroke-width="2" stroke-miterlimit="10" stroke-linecap="round"/>
<path d="M102.721 117.239C105.386 117.239 107.546 115.059 107.546 112.37C107.546 109.681 105.386 107.501 102.721 107.501C100.057 107.501 97.8965 109.681 97.8965 112.37C97.8965 115.059 100.057 117.239 102.721 117.239Z" fill="#FFDA54"/>
<path d="M87.4707 50.2078C90.7447 53.8592 95.3973 56.1197 100.653 56.1197C105.909 56.1197 110.561 53.8592 113.835 50.2078" stroke="#010101" stroke-width="2" stroke-miterlimit="10" stroke-linecap="round"/>
<path d="M121.246 44.9919C130.382 44.9919 137.788 37.5184 137.788 28.2994C137.788 19.0804 130.382 11.6069 121.246 11.6069C112.109 11.6069 104.703 19.0804 104.703 28.2994C104.703 37.5184 112.109 44.9919 121.246 44.9919Z" stroke="#010101" stroke-width="2" stroke-miterlimit="10" stroke-linecap="round"/>
<path d="M79.8881 44.9919C89.0243 44.9919 96.4306 37.5184 96.4306 28.2994C96.4306 19.0804 89.0243 11.6069 79.8881 11.6069C70.752 11.6069 63.3457 19.0804 63.3457 28.2994C63.3457 37.5184 70.752 44.9919 79.8881 44.9919Z" stroke="#010101" stroke-width="2" stroke-miterlimit="10" stroke-linecap="round"/>
<path d="M96.6035 31.516C97.8097 31.2552 99.016 31.0813 100.222 31.0813C101.859 31.0813 103.496 31.3421 105.047 31.7768" stroke="#010101" stroke-width="2" stroke-miterlimit="10" stroke-linecap="round"/>
<path d="M56.6364 8.75969L48.6364 1.25581C48.2727 0.914729 47.5454 0.914729 47.1818 1.25581L42.4545 5.68992L37.7273 1.25581C37.3636 0.914729 36.6364 0.914729 36.2727 1.25581L28.2727 8.75969C27.9091 9.10078 27.9091 9.78295 28.2727 10.124L41.7273 22.7442C42.0909 23.0853 42.8182 23.0853 43.1818 22.7442L51.1818 15.2403L56.6364 10.124C57.1212 9.66925 57.1212 9.10078 56.6364 8.75969Z" fill="#FFDA54"/>
<path d="M56.2978 49.8721L40.8495 34.5233C40.1474 33.8256 38.7429 33.8256 38.0407 34.5233L28.9122 43.593L19.7837 34.5233C19.0815 33.8256 17.6771 33.8256 16.9749 34.5233L1.52665 49.8721C0.824451 50.5698 0.824451 51.9651 1.52665 52.6628L27.5078 78.4767C28.21 79.1744 29.6144 79.1744 30.3166 78.4767L45.7649 63.1279L56.2978 52.6628C57.2341 51.7326 57.2341 50.5698 56.2978 49.8721Z" fill="white" stroke="#010101" stroke-width="2" stroke-miterlimit="10" stroke-linecap="round"/>
<path d="M90.9491 33.2478C92.8637 33.2478 94.4157 31.6808 94.4157 29.7478C94.4157 27.8148 92.8637 26.2478 90.9491 26.2478C89.0345 26.2478 87.4824 27.8148 87.4824 29.7478C87.4824 31.6808 89.0345 33.2478 90.9491 33.2478Z" fill="#010101"/>
<path d="M111.748 33.2478C113.663 33.2478 115.215 31.6808 115.215 29.7478C115.215 27.8148 113.663 26.2478 111.748 26.2478C109.833 26.2478 108.281 27.8148 108.281 29.7478C108.281 31.6808 109.833 33.2478 111.748 33.2478Z" fill="#010101"/>
</svg>
