<svg width="61" height="61" viewBox="0 0 61 61" fill="none" xmlns="http://www.w3.org/2000/svg">
<ellipse cx="43.4018" cy="44.1584" rx="15.687" ry="15.7595" fill="white"/>
<path d="M59.7429 29.0552L24.4472 33.3234H1.57031V1.47607H59.7429V29.0552Z" fill="white"/>
<path d="M59.7393 28.8787V1.55078H1.72852V33.1297H24.7003" stroke="#010101" stroke-width="2" stroke-miterlimit="10" stroke-linecap="round"/>
<path d="M52.8433 7.58301H2.04883" stroke="#010101" stroke-width="2" stroke-miterlimit="10" stroke-linecap="round"/>
<path d="M4.85547 5.27528C5.27615 5.27528 5.61719 4.93088 5.61719 4.50605C5.61719 4.08121 5.27615 3.73682 4.85547 3.73682C4.43478 3.73682 4.09375 4.08121 4.09375 4.50605C4.09375 4.93088 4.43478 5.27528 4.85547 5.27528Z" fill="#010101"/>
<path d="M10.9902 5.27528C11.4109 5.27528 11.7519 4.93088 11.7519 4.50605C11.7519 4.08121 11.4109 3.73682 10.9902 3.73682C10.5695 3.73682 10.2285 4.08121 10.2285 4.50605C10.2285 4.93088 10.5695 5.27528 10.9902 5.27528Z" fill="#010101"/>
<path d="M7.98242 5.27528C8.4031 5.27528 8.74413 4.93088 8.74413 4.50605C8.74413 4.08121 8.4031 3.73682 7.98242 3.73682C7.56174 3.73682 7.2207 4.08121 7.2207 4.50605C7.2207 4.93088 7.56174 5.27528 7.98242 5.27528Z" fill="#010101"/>
<path d="M55.4498 34.0608C52.6033 30.417 48.1533 28.0688 43.1821 28.0688C34.5627 28.0688 27.5469 35.1539 27.5469 43.8583C27.5469 44.9919 27.6671 46.085 27.8676 47.1377" stroke="#010101" stroke-width="2" stroke-miterlimit="10" stroke-linecap="round"/>
<path d="M30.5938 53.2508C33.4402 57.1375 38.0105 59.6476 43.1821 59.6476C51.8015 59.6476 58.8174 52.5626 58.8174 43.8581C58.8174 40.1739 57.5746 36.7731 55.4498 34.0605" stroke="#010101" stroke-width="2" stroke-miterlimit="10" stroke-linecap="round"/>
<path d="M36.7672 33.3726C33.6802 35.2754 31.4753 38.5547 30.9942 42.4414C30.1924 49.2025 34.9631 55.3564 41.6983 56.1661C42.9411 56.328 44.1438 56.2875 45.3064 56.0446" stroke="#010101" stroke-width="2" stroke-miterlimit="10" stroke-linecap="round"/>
<path d="M51.2001 53.1702C53.4051 51.2269 54.8884 48.5143 55.2893 45.3564C56.0911 38.5953 51.3204 32.4415 44.5852 31.6317C41.7388 31.3079 39.0126 31.9556 36.7676 33.3726" stroke="#010101" stroke-width="2" stroke-miterlimit="10" stroke-linecap="round"/>
<path d="M51.681 30.579L51.6409 25.0325C51.6409 21.996 47.8323 19.5669 43.1417 19.5669C38.4512 19.5669 34.6426 22.0365 34.6426 25.0325V30.4576" stroke="#010101" stroke-width="2" stroke-miterlimit="10" stroke-linecap="round"/>
<path d="M12.6728 21.9958C13.9127 21.9958 14.9179 20.9808 14.9179 19.7286C14.9179 18.4765 13.9127 17.4614 12.6728 17.4614C11.4329 17.4614 10.4277 18.4765 10.4277 19.7286C10.4277 20.9808 11.4329 21.9958 12.6728 21.9958Z" fill="#FFDA54"/>
<path d="M20.8525 21.9958C22.0924 21.9958 23.0975 20.9808 23.0975 19.7286C23.0975 18.4765 22.0924 17.4614 20.8525 17.4614C19.6126 17.4614 18.6074 18.4765 18.6074 19.7286C18.6074 20.9808 19.6126 21.9958 20.8525 21.9958Z" fill="#FFDA54"/>
<path d="M28.9892 21.9958C30.2291 21.9958 31.2343 20.9808 31.2343 19.7286C31.2343 18.4765 30.2291 17.4614 28.9892 17.4614C27.7493 17.4614 26.7441 18.4765 26.7441 19.7286C26.7441 20.9808 27.7493 21.9958 28.9892 21.9958Z" fill="#FFDA54"/>
<path d="M44.7461 41.1459V39.405C44.7461 38.7167 44.1848 38.1499 43.5033 38.1499H43.1826C42.501 38.1499 41.9398 38.7167 41.9398 39.405V41.1459C40.8974 41.6722 40.1758 42.7653 40.1758 44.0203C40.1758 45.8017 41.5789 47.2187 43.3429 47.2187C45.1069 47.2187 46.5101 45.8017 46.5101 44.0203C46.5101 42.7653 45.7884 41.6722 44.7461 41.1459Z" stroke="#010101" stroke-width="2" stroke-miterlimit="10"/>
</svg>
