<svg width="158" height="128" viewBox="0 0 158 128" fill="none" xmlns="http://www.w3.org/2000/svg">
<path d="M137.226 22.9208V1.5H17.5586V111.496H58.7734" fill="white"/>
<path d="M137.226 22.9208V1.5H17.5586V111.496H58.7734" stroke="#010101" stroke-width="2" stroke-miterlimit="10" stroke-linecap="round"/>
<path d="M118.877 14.877H18.3711" stroke="#010101" stroke-width="2" stroke-miterlimit="10" stroke-linecap="round"/>
<path d="M24.6079 9.81494C25.5563 9.81494 26.3252 9.04608 26.3252 8.09766C26.3252 7.14923 25.5563 6.38037 24.6079 6.38037C23.6595 6.38037 22.8906 7.14923 22.8906 8.09766C22.8906 9.04608 23.6595 9.81494 24.6079 9.81494Z" fill="#010101"/>
<path d="M38.436 9.81494C39.3845 9.81494 40.1533 9.04608 40.1533 8.09766C40.1533 7.14923 39.3845 6.38037 38.436 6.38037C37.4876 6.38037 36.7188 7.14923 36.7188 8.09766C36.7188 9.04608 37.4876 9.81494 38.436 9.81494Z" fill="#010101"/>
<path d="M31.6587 9.81494C32.6071 9.81494 33.376 9.04608 33.376 8.09766C33.376 7.14923 32.6071 6.38037 31.6587 6.38037C30.7103 6.38037 29.9414 7.14923 29.9414 8.09766C29.9414 9.04608 30.7103 9.81494 31.6587 9.81494Z" fill="#010101"/>
<path d="M17.5582 14.7856H1.92188V124.692H50.4577" stroke="#010101" stroke-width="2" stroke-miterlimit="10" stroke-linecap="round"/>
<path d="M17.1962 28.1626H2.64453" stroke="#010101" stroke-width="2" stroke-miterlimit="10" stroke-linecap="round"/>
<path d="M9.51416 23.102C10.4626 23.102 11.2314 22.3332 11.2314 21.3848C11.2314 20.4363 10.4626 19.6675 9.51416 19.6675C8.56573 19.6675 7.79688 20.4363 7.79688 21.3848C7.79688 22.3332 8.56573 23.102 9.51416 23.102Z" fill="#010101"/>
<path d="M37.081 37.1107C39.8764 37.1107 42.1425 34.8446 42.1425 32.0493C42.1425 29.2539 39.8764 26.9878 37.081 26.9878C34.2856 26.9878 32.0195 29.2539 32.0195 32.0493C32.0195 34.8446 34.2856 37.1107 37.081 37.1107Z" fill="#FFDA54"/>
<path d="M37.081 55.5492C39.8764 55.5492 42.1425 53.2831 42.1425 50.4877C42.1425 47.6924 39.8764 45.4263 37.081 45.4263C34.2856 45.4263 32.0195 47.6924 32.0195 50.4877C32.0195 53.2831 34.2856 55.5492 37.081 55.5492Z" fill="#FFDA54"/>
<path d="M37.081 73.8969C39.8764 73.8969 42.1425 71.6308 42.1425 68.8354C42.1425 66.04 39.8764 63.7739 37.081 63.7739C34.2856 63.7739 32.0195 66.04 32.0195 68.8354C32.0195 71.6308 34.2856 73.8969 37.081 73.8969Z" fill="#FFDA54"/>
<circle cx="106.66" cy="76.1469" r="50.3432" fill="white"/>
<path d="M120.771 62.7303L112.767 54.6956C112.346 54.2727 111.714 54.2727 111.292 54.6956L106.659 59.3472L102.025 54.6956C101.603 54.2727 100.972 54.2727 100.55 54.6956L92.5464 62.7303C92.1252 63.1532 92.1252 63.7875 92.5464 64.2103L105.816 77.531C106.237 77.9539 106.869 77.9539 107.29 77.531L115.294 69.4963L120.771 63.9989C121.192 63.7875 121.192 63.1532 120.771 62.7303Z" fill="#FFDA54"/>
<path d="M85.7031 88.75H127.617" stroke="black" stroke-width="2" stroke-linecap="round" stroke-linejoin="round"/>
<path d="M85.7031 95.7476H127.617" stroke="black" stroke-width="2" stroke-linecap="round" stroke-linejoin="round"/>
<path d="M85.7031 102.745H127.617" stroke="black" stroke-width="2" stroke-linecap="round" stroke-linejoin="round"/>
<path d="M145.178 107.61C136.05 119.088 121.95 126.5 106.133 126.5C78.6562 126.5 56.4219 104.266 56.4219 76.7891C56.4219 71.7276 57.1449 66.7565 58.5911 62.147" stroke="#010101" stroke-width="2" stroke-miterlimit="10" stroke-linecap="round"/>
<path d="M66.1836 47.3249C75.2219 35.1232 89.7736 27.1694 106.133 27.1694C133.61 27.1694 155.844 49.4037 155.844 76.8802C155.844 88.5397 151.867 99.2049 145.179 107.701" stroke="#010101" stroke-width="2" stroke-miterlimit="10" stroke-linecap="round"/>
</svg>
