<svg width="109" height="82" viewBox="0 0 109 82" fill="none" xmlns="http://www.w3.org/2000/svg">
<path d="M93.6914 14.9105V1H15.9805V72.4306H42.7449" fill="white"/>
<path d="M93.6914 14.9105V1H15.9805V72.4307H42.7449" stroke="#010101" stroke-width="2" stroke-miterlimit="10" stroke-linecap="round"/>
<path d="M81.7756 9.68652H16.5078" stroke="#010101" stroke-width="2" stroke-miterlimit="10" stroke-linecap="round"/>
<path d="M20.5566 6.40029C21.1725 6.40029 21.6718 5.90101 21.6718 5.28511C21.6718 4.66921 21.1725 4.16992 20.5566 4.16992C19.9407 4.16992 19.4414 4.66921 19.4414 5.28511C19.4414 5.90101 19.9407 6.40029 20.5566 6.40029Z" fill="#010101"/>
<path d="M29.5371 6.40029C30.153 6.40029 30.6522 5.90101 30.6522 5.28511C30.6522 4.66921 30.153 4.16992 29.5371 4.16992C28.9212 4.16992 28.4219 4.66921 28.4219 5.28511C28.4219 5.90101 28.9212 6.40029 29.5371 6.40029Z" fill="#010101"/>
<path d="M25.1347 6.40029C25.7506 6.40029 26.2499 5.90101 26.2499 5.28511C26.2499 4.66921 25.7506 4.16992 25.1347 4.16992C24.5188 4.16992 24.0195 4.66921 24.0195 5.28511C24.0195 5.90101 24.5188 6.40029 25.1347 6.40029Z" fill="#010101"/>
<path d="M15.9783 9.62793H5.82422V80.9999H37.3429" stroke="#010101" stroke-width="2" stroke-miterlimit="10" stroke-linecap="round"/>
<path d="M15.7427 18.3145H6.29297" stroke="#010101" stroke-width="2" stroke-miterlimit="10" stroke-linecap="round"/>
<path d="M10.7558 15.0282C11.3717 15.0282 11.871 14.5289 11.871 13.913C11.871 13.2971 11.3717 12.7979 10.7558 12.7979C10.1399 12.7979 9.64062 13.2971 9.64062 13.913C9.64062 14.5289 10.1399 15.0282 10.7558 15.0282Z" fill="#010101"/>
<circle cx="75.2431" cy="48.3008" r="32.6924" fill="white"/>
<path d="M100.259 68.7331C94.3305 76.1872 85.1743 81.0001 74.9028 81.0001C57.0598 81.0001 42.6211 66.5614 42.6211 48.7184C42.6211 45.4315 43.0906 42.2034 44.0298 39.21" stroke="#010101" stroke-width="2" stroke-miterlimit="10" stroke-linecap="round"/>
<path d="M48.957 29.5839C54.8264 21.6602 64.2762 16.4951 74.8998 16.4951C92.7428 16.4951 107.182 30.9338 107.182 48.7768C107.182 56.3484 104.599 63.2743 100.256 68.7915" stroke="#010101" stroke-width="2" stroke-miterlimit="10" stroke-linecap="round"/>
<path d="M103.367 63.6858C94.8564 59.225 85.1719 56.7012 74.9004 56.7012C64.5702 56.7012 54.827 59.2837 46.3164 63.8032" stroke="#010101" stroke-width="2" stroke-miterlimit="10" stroke-linecap="round"/>
<path d="M74.9603 56.2897C82.3187 56.2897 88.2838 50.3245 88.2838 42.9661C88.2838 35.6077 82.3187 29.6426 74.9603 29.6426C67.6019 29.6426 61.6367 35.6077 61.6367 42.9661C61.6367 50.3245 67.6019 56.2897 74.9603 56.2897Z" stroke="#010101" stroke-width="2" stroke-miterlimit="10" stroke-linecap="round"/>
<path d="M70.1484 56.9356L75.4309 68.3223L79.5395 56.877" stroke="#010101" stroke-width="2" stroke-miterlimit="10"/>
<circle cx="25.1355" cy="32.0262" r="24.1355" fill="white"/>
<path d="M31.9015 25.5939L28.0643 21.7419C27.8623 21.5392 27.5594 21.5392 27.3574 21.7419L25.1359 23.972L22.9143 21.7419C22.7124 21.5392 22.4094 21.5392 22.2075 21.7419L18.3702 25.5939C18.1683 25.7966 18.1683 26.1007 18.3702 26.3035L24.732 32.6897C24.9339 32.8924 25.2369 32.8924 25.4388 32.6897L29.2761 28.8377L31.9015 26.2021C32.1035 26.1007 32.1035 25.7966 31.9015 25.5939Z" fill="#FFDA54"/>
<path d="M15.0898 38.0684H35.1843" stroke="black" stroke-width="2" stroke-linecap="round" stroke-linejoin="round"/>
<path d="M15.0898 41.4229H35.1843" stroke="black" stroke-width="2" stroke-linecap="round" stroke-linejoin="round"/>
<path d="M15.0898 44.7783H35.1843" stroke="black" stroke-width="2" stroke-linecap="round" stroke-linejoin="round"/>
<path d="M43.6024 47.1103C39.2259 52.6134 32.4662 56.1666 24.8832 56.1666C11.7104 56.1666 1.05078 45.507 1.05078 32.3342C1.05078 29.9076 1.39743 27.5244 2.09074 25.3145" stroke="#010101" stroke-width="2" stroke-miterlimit="10" stroke-linecap="round"/>
<path d="M5.73047 18.2079C10.0636 12.3581 17.04 8.54492 24.883 8.54492C38.0558 8.54492 48.7154 19.2045 48.7154 32.3773C48.7154 37.9671 46.8088 43.0802 43.6023 47.1534" stroke="#010101" stroke-width="2" stroke-miterlimit="10" stroke-linecap="round"/>
<path d="M53.2536 48.9551L40.6159 47.0143L44.5169 36.9418L53.2536 48.9551Z" fill="white"/>
<path d="M53.2536 48.9551L40.6159 47.0143L44.5169 36.9418L53.2536 48.9551Z" fill="white"/>
<path d="M42.9421 47.8965L53.2533 48.9554L47.4701 40.1585" stroke="#010101" stroke-width="2.2" stroke-linecap="round" stroke-linejoin="round"/>
</svg>
