<svg width="109" height="129" viewBox="0 0 109 129" fill="none" xmlns="http://www.w3.org/2000/svg">
<path d="M18.8078 11.2251H73.0462V1.64648H9.23633V118.542H18.8078V11.2251Z" fill="white" stroke="#010101" stroke-width="2" stroke-miterlimit="10" stroke-linecap="round"/>
<path d="M82.4407 118.364H18.6309V127.411H82.4407V118.364Z" stroke="white" stroke-width="2" stroke-miterlimit="10"/>
<path d="M82.4407 11.2256H18.6309V34.4627H82.4407V11.2256Z" fill="white" stroke="#010101" stroke-width="2" stroke-miterlimit="10" stroke-linecap="round"/>
<path d="M82.4407 114.64H18.6309V127.589H82.4407V114.64Z" fill="white" stroke="#010101" stroke-width="2" stroke-miterlimit="10" stroke-linecap="round"/>
<path d="M74.1098 34.4626V26.1257C70.0331 26.1257 67.1971 22.9328 67.1971 19.5625H34.7604C34.7604 23.2875 31.5699 26.1257 27.8477 26.1257V34.4626H74.1098Z" fill="white" stroke="#010101" stroke-width="2" stroke-miterlimit="10" stroke-linecap="round"/>
<path d="M50.0044 119.251H1.61523V34.1074H99.1025V119.251H64.8933" fill="white"/>
<path d="M50.0044 119.251H1.61523V34.1074H99.1025V119.251H64.8933" stroke="#010101" stroke-width="2" stroke-miterlimit="10" stroke-linecap="round"/>
<path d="M38.6604 42.9766H90.24V110.382H1.61523V42.9766H21.8217" fill="white"/>
<path d="M38.6604 42.9766H90.24V110.382H1.61523V42.9766H21.8217" stroke="#010101" stroke-width="2" stroke-miterlimit="10" stroke-linecap="round"/>
<path d="M107.079 61.7793H53.0176V88.5641H107.079V61.7793Z" fill="white" stroke="#010101" stroke-width="2" stroke-miterlimit="10" stroke-linecap="round"/>
<path d="M69.5016 80.582C71.983 80.582 73.9328 78.6308 73.9328 76.1475C73.9328 73.6641 71.983 71.7129 69.5016 71.7129C67.0201 71.7129 65.0703 73.6641 65.0703 76.1475C65.0703 78.6308 67.0201 80.582 69.5016 80.582Z" fill="#FFDA54"/>
</svg>
