<svg width="69" height="82" viewBox="0 0 69 82" fill="none" xmlns="http://www.w3.org/2000/svg">
<path d="M11.9217 7.0845H46.3747V1H5.8418V75.2535H11.9217V7.0845Z" fill="white" stroke="#010101" stroke-width="2" stroke-miterlimit="10" stroke-linecap="round"/>
<path d="M52.3415 75.1406H11.8086V80.8871H52.3415V75.1406Z" stroke="white" stroke-width="2" stroke-miterlimit="10"/>
<path d="M52.3415 7.08496H11.8086V21.8455H52.3415V7.08496Z" fill="white" stroke="#010101" stroke-width="2" stroke-miterlimit="10" stroke-linecap="round"/>
<path d="M52.3415 72.7744H11.8086V80.9998H52.3415V72.7744Z" fill="white" stroke="#010101" stroke-width="2" stroke-miterlimit="10" stroke-linecap="round"/>
<path d="M47.0504 21.8456V16.5499C44.4608 16.5499 42.6594 14.5217 42.6594 12.3809H22.0551C22.0551 14.7471 20.0285 16.5499 17.6641 16.5499V21.8456H47.0504Z" fill="white" stroke="#010101" stroke-width="2" stroke-miterlimit="10" stroke-linecap="round"/>
<path d="M31.7375 75.7046H1V21.6201H62.9253V75.7046H41.1952" fill="white"/>
<path d="M31.7375 75.7046H1V21.6201H62.9253V75.7046H41.1952" stroke="#010101" stroke-width="2" stroke-miterlimit="10" stroke-linecap="round"/>
<path d="M24.5316 27.2539H57.2957V70.0708H1V27.2539H13.8354" fill="white"/>
<path d="M24.5316 27.2539H57.2957V70.0708H1V27.2539H13.8354" stroke="#010101" stroke-width="2" stroke-miterlimit="10" stroke-linecap="round"/>
<path d="M67.9927 39.1973H33.6523V56.2113H67.9927V39.1973Z" fill="white" stroke="#010101" stroke-width="2" stroke-miterlimit="10" stroke-linecap="round"/>
<path d="M44.1214 51.1406C45.6977 51.1406 46.9362 49.9012 46.9362 48.3237C46.9362 46.7463 45.6977 45.5068 44.1214 45.5068C42.5451 45.5068 41.3066 46.7463 41.3066 48.3237C41.3066 49.9012 42.5451 51.1406 44.1214 51.1406Z" fill="#FFDA54"/>
</svg>
