<svg width="123" height="123" viewBox="0 0 123 123" fill="none" xmlns="http://www.w3.org/2000/svg">
<ellipse cx="87.7665" cy="89.7637" rx="32.3544" ry="32.504" fill="white"/>
<path d="M121.467 58.6143L48.6699 67.4175H1.48633V1.73242H121.467V58.6143Z" fill="white"/>
<path d="M121.462 58.2496V1.88574H1.81445V67.0173H49.1937" stroke="#010101" stroke-width="2" stroke-miterlimit="10" stroke-linecap="round"/>
<path d="M107.24 14.3276H2.47656" stroke="#010101" stroke-width="2" stroke-miterlimit="10" stroke-linecap="round"/>
<path d="M8.26245 9.5681C9.13011 9.5681 9.83349 8.85778 9.83349 7.98156C9.83349 7.10534 9.13011 6.39502 8.26245 6.39502C7.39479 6.39502 6.69141 7.10534 6.69141 7.98156C6.69141 8.85778 7.39479 9.5681 8.26245 9.5681Z" fill="#010101"/>
<path d="M20.9148 9.5681C21.7825 9.5681 22.4858 8.85778 22.4858 7.98156C22.4858 7.10534 21.7825 6.39502 20.9148 6.39502C20.0471 6.39502 19.3438 7.10534 19.3438 7.98156C19.3438 8.85778 20.0471 9.5681 20.9148 9.5681Z" fill="#010101"/>
<path d="M14.7136 9.5681C15.5813 9.5681 16.2847 8.85778 16.2847 7.98156C16.2847 7.10534 15.5813 6.39502 14.7136 6.39502C13.846 6.39502 13.1426 7.10534 13.1426 7.98156C13.1426 8.85778 13.846 9.5681 14.7136 9.5681Z" fill="#010101"/>
<path d="M112.614 68.9379C106.743 61.4227 97.5652 56.5796 87.3121 56.5796C69.5346 56.5796 55.0645 71.1924 55.0645 89.1454C55.0645 91.4834 55.3125 93.738 55.7259 95.909" stroke="#010101" stroke-width="2" stroke-miterlimit="10" stroke-linecap="round"/>
<path d="M61.3477 108.518C67.2184 116.534 76.6446 121.711 87.3112 121.711C105.089 121.711 119.559 107.098 119.559 89.1455C119.559 81.5468 116.996 74.5326 112.613 68.938" stroke="#010101" stroke-width="2" stroke-miterlimit="10" stroke-linecap="round"/>
<path d="M74.0823 67.5181C67.7155 71.4427 63.1677 78.2063 62.1755 86.2225C60.5217 100.167 70.3614 112.86 84.2527 114.53C86.816 114.864 89.2966 114.78 91.6945 114.279" stroke="#010101" stroke-width="2" stroke-miterlimit="10" stroke-linecap="round"/>
<path d="M103.849 108.351C108.397 104.343 111.456 98.7481 112.283 92.235C113.937 78.2901 104.097 65.5978 90.2059 63.9278C84.3351 63.2598 78.7125 64.5958 74.082 67.5184" stroke="#010101" stroke-width="2" stroke-miterlimit="10" stroke-linecap="round"/>
<path d="M104.841 61.7565L104.758 50.3167C104.758 44.0541 96.903 39.0439 87.2287 39.0439C77.5544 39.0439 69.6992 44.1376 69.6992 50.3167V61.506" stroke="#010101" stroke-width="2" stroke-miterlimit="10" stroke-linecap="round"/>
<path d="M24.3902 44.0539C26.9475 44.0539 29.0206 41.9603 29.0206 39.3778C29.0206 36.7952 26.9475 34.7017 24.3902 34.7017C21.8329 34.7017 19.7598 36.7952 19.7598 39.3778C19.7598 41.9603 21.8329 44.0539 24.3902 44.0539Z" fill="#FFDA54"/>
<path d="M41.2574 44.0539C43.8147 44.0539 45.8878 41.9603 45.8878 39.3778C45.8878 36.7952 43.8147 34.7017 41.2574 34.7017C38.7001 34.7017 36.627 36.7952 36.627 39.3778C36.627 41.9603 38.7001 44.0539 41.2574 44.0539Z" fill="#FFDA54"/>
<path d="M58.0426 44.0539C60.5999 44.0539 62.673 41.9603 62.673 39.3778C62.673 36.7952 60.5999 34.7017 58.0426 34.7017C55.4852 34.7017 53.4121 36.7952 53.4121 39.3778C53.4121 41.9603 55.4852 44.0539 58.0426 44.0539Z" fill="#FFDA54"/>
<path d="M90.5376 83.5507V79.9601C90.5376 78.5406 89.38 77.3716 87.9743 77.3716H87.3128C85.9071 77.3716 84.7495 78.5406 84.7495 79.9601V83.5507C82.5997 84.6363 81.1113 86.8908 81.1113 89.4794C81.1113 93.1535 84.0053 96.076 87.6435 96.076C91.2817 96.076 94.1758 93.1535 94.1758 89.4794C94.1758 86.8908 92.6874 84.6363 90.5376 83.5507Z" stroke="#010101" stroke-width="2" stroke-miterlimit="10"/>
</svg>
