<svg width="116" height="129" viewBox="0 0 116 129" fill="none" xmlns="http://www.w3.org/2000/svg">
<path d="M27.2544 33.6045C22.8139 33.6045 18.5554 31.9242 15.4155 28.9333C12.2757 25.9424 10.5117 21.8858 10.5117 17.6559C10.5117 13.4261 12.2757 9.36954 15.4155 6.37861C18.5554 3.38767 22.8139 1.70738 27.2544 1.70738C33.7149 1.60016 40.0459 4.58616 45.4217 10.276C50.7975 15.9658 54.9686 24.0954 57.3911 33.6045C59.8136 24.0954 63.9847 15.9658 69.3605 10.276C74.7363 4.58616 81.0673 1.60016 87.5278 1.70738C91.9683 1.70738 96.2268 3.38767 99.3667 6.37861C102.507 9.36954 104.27 13.4261 104.27 17.6559C104.27 21.8858 102.507 25.9424 99.3667 28.9333C96.2268 31.9242 91.9683 33.6045 87.5278 33.6045" fill="#FFDA54"/>
<path d="M27.2544 33.6045C22.8139 33.6045 18.5554 31.9242 15.4155 28.9333C12.2757 25.9424 10.5117 21.8858 10.5117 17.6559C10.5117 13.4261 12.2757 9.36954 15.4155 6.37861C18.5554 3.38767 22.8139 1.70738 27.2544 1.70738C33.7149 1.60016 40.0459 4.58616 45.4217 10.276C50.7975 15.9658 54.9686 24.0954 57.3911 33.6045C59.8136 24.0954 63.9847 15.9658 69.3605 10.276C74.7363 4.58616 81.0673 1.60016 87.5278 1.70738C91.9683 1.70738 96.2268 3.38767 99.3667 6.37861C102.507 9.36954 104.27 13.4261 104.27 17.6559C104.27 21.8858 102.507 25.9424 99.3667 28.9333C96.2268 31.9242 91.9683 33.6045 87.5278 33.6045" stroke="black" stroke-width="2" stroke-linecap="round" stroke-linejoin="round"/>
<path d="M36.1751 33.6043C33.0486 33.6043 30.0502 32.1726 27.8395 29.6242C25.6287 27.0758 24.3867 23.6194 24.3867 20.0154C24.3867 16.4114 25.6287 12.955 27.8395 10.4066C30.0502 7.85814 33.0486 6.42645 36.1751 6.42645C40.7239 6.33509 45.1816 8.8793 48.9666 13.7273C52.7517 18.5753 55.6885 25.5021 57.3942 33.6043C59.0999 25.5021 62.0367 18.5753 65.8218 13.7273C69.6069 8.8793 74.0645 6.33509 78.6133 6.42645C81.7398 6.42645 84.7382 7.85814 86.949 10.4066C89.1597 12.955 90.4017 16.4114 90.4017 20.0154C90.4017 23.6194 89.1597 27.0758 86.949 29.6242C84.7382 32.1726 81.7398 33.6043 78.6133 33.6043" fill="#EEF1F7"/>
<path d="M36.1751 33.6043C33.0486 33.6043 30.0502 32.1726 27.8395 29.6242C25.6287 27.0758 24.3867 23.6194 24.3867 20.0154C24.3867 16.4114 25.6287 12.955 27.8395 10.4066C30.0502 7.85814 33.0486 6.42645 36.1751 6.42645C40.7239 6.33509 45.1816 8.8793 48.9666 13.7273C52.7517 18.5753 55.6885 25.5021 57.3942 33.6043C59.0999 25.5021 62.0367 18.5753 65.8218 13.7273C69.6069 8.8793 74.0645 6.33509 78.6133 6.42645C81.7398 6.42645 84.7382 7.85814 86.949 10.4066C89.1597 12.955 90.4017 16.4114 90.4017 20.0154C90.4017 23.6194 89.1597 27.0758 86.949 29.6242C84.7382 32.1726 81.7398 33.6043 78.6133 33.6043" stroke="black" stroke-width="2" stroke-linecap="round" stroke-linejoin="round"/>
<path d="M104.27 51.3789V110.823C104.27 115.327 102.859 119.647 100.347 122.832C97.8355 126.017 94.4287 127.807 90.8764 127.807H23.9058C20.3535 127.807 16.9466 126.017 14.4348 122.832C11.9229 119.647 10.5117 115.327 10.5117 110.823V51.3789" fill="white"/>
<path d="M104.27 51.3789V110.823C104.27 115.327 102.859 119.647 100.347 122.832C97.8356 126.017 94.4287 127.807 90.8764 127.807H23.9058C20.3535 127.807 16.9466 126.017 14.4348 122.832C11.9229 119.647 10.5117 115.327 10.5117 110.823V51.3789" stroke="black" stroke-width="2" stroke-linecap="round" stroke-linejoin="round"/>
<path d="M106.866 32.4521H8.69062C6.80879 32.4521 5.06421 33.0031 3.76533 33.9437C2.46764 34.8835 1.55469 36.268 1.55469 37.8957V46.7828C1.55469 48.4105 2.46764 49.795 3.76533 50.7348C5.06421 51.6754 6.80879 52.2263 8.69062 52.2263H106.866C108.747 52.2263 110.492 51.6754 111.791 50.7348C113.089 49.795 114.002 48.4105 114.002 46.7828V37.8957C114.002 36.268 113.089 34.8835 111.791 33.9437C110.492 33.0031 108.747 32.4521 106.866 32.4521Z" fill="#EEF1F7" stroke="black" stroke-width="2" stroke-linecap="round" stroke-linejoin="round"/>
<mask id="mask0" mask-type="alpha" maskUnits="userSpaceOnUse" x="2" y="33" width="112" height="19">
<path d="M106.866 33.4521H8.69062C5.30184 33.4521 2.55469 35.4416 2.55469 37.8957V46.7828C2.55469 49.2369 5.30184 51.2263 8.69062 51.2263H106.866C110.254 51.2263 113.002 49.2369 113.002 46.7828V37.8957C113.002 35.4416 110.254 33.4521 106.866 33.4521Z" fill="white"/>
</mask>
<g mask="url(#mask0)">
<path fill-rule="evenodd" clip-rule="evenodd" d="M18.295 28.1906L11.6824 20.0149L-17.6055 56.226L-10.9929 64.4017L18.295 28.1906ZM41.1136 28.1906L34.501 20.0149L5.21315 56.226L11.8257 64.4017L41.1136 28.1906ZM57.3219 20.0149L63.9344 28.1906L34.6466 64.4017L28.034 56.226L57.3219 20.0149ZM86.7531 28.1906L80.1405 20.0149L50.8526 56.226L57.4652 64.4017L86.7531 28.1906ZM102.961 20.0149L109.574 28.1906L80.2861 64.4017L73.6735 56.226L102.961 20.0149ZM132.393 28.1906L125.78 20.0149L96.4921 56.226L103.105 64.4017L132.393 28.1906Z" fill="white"/>
<path fill-rule="evenodd" clip-rule="evenodd" d="M22.6504 28.5441L16.0379 20.3684L-13.25 56.5795L-6.63742 64.7552L22.6504 28.5441ZM45.4691 28.5441L38.8565 20.3684L9.56862 56.5795L16.1812 64.7552L45.4691 28.5441ZM61.6751 20.3684L68.2877 28.5441L38.9998 64.7552L32.3872 56.5795L61.6751 20.3684ZM91.1085 28.5441L84.4959 20.3684L55.2081 56.5795L61.8207 64.7552L91.1085 28.5441ZM107.315 20.3684L113.927 28.5441L84.6393 64.7552L78.0267 56.5795L107.315 20.3684ZM136.748 28.5441L130.135 20.3684L100.848 56.5795L107.46 64.7552L136.748 28.5441Z" fill="white"/>
</g>
<path d="M37.7496 98.4734C37.5334 98.2572 37.3712 97.9869 37.209 97.7166C37.1009 97.4464 37.0469 97.122 37.0469 96.7977C37.0469 96.4734 37.1009 96.149 37.209 95.8788C37.3172 95.6085 37.4793 95.3382 37.7496 95.122L68.1826 64.5809C68.3988 64.3647 68.6691 64.2025 68.9393 64.0403C69.2096 63.9322 69.534 63.8782 69.8583 63.8782C70.1826 63.8782 70.5069 63.9322 70.7772 64.0403C71.0475 64.1484 71.3178 64.3106 71.534 64.5809L89.6965 82.7974C89.9127 83.0137 90.0749 83.2839 90.237 83.5542C90.3451 83.8245 90.3992 84.1488 90.3992 84.4731C90.3992 84.7975 90.3451 85.1218 90.237 85.3921C90.1289 85.6624 89.9668 85.9326 89.6965 86.1488L59.2635 116.69C59.0473 116.906 58.777 117.068 58.5067 117.176C58.2364 117.285 57.9121 117.339 57.5878 117.339C57.2635 117.339 56.9932 117.285 56.6689 117.176C56.3986 117.068 56.1283 116.906 55.9121 116.69L37.7496 98.4734Z" fill="#F8DA5E"/>
<path d="M37.7496 98.4734C37.5334 98.2572 37.3712 97.9869 37.209 97.7166C37.1009 97.4464 37.0469 97.122 37.0469 96.7977C37.0469 96.4734 37.1009 96.149 37.209 95.8788C37.3172 95.6085 37.4793 95.3382 37.7496 95.122L68.1826 64.5809C68.3988 64.3647 68.6691 64.2025 68.9393 64.0403C69.2096 63.9322 69.534 63.8782 69.8583 63.8782C70.1826 63.8782 70.5069 63.9322 70.7772 64.0403C71.0475 64.1484 71.3178 64.3106 71.534 64.5809L89.6965 82.7974C89.9127 83.0137 90.0749 83.2839 90.237 83.5542C90.3451 83.8245 90.3992 84.1488 90.3992 84.4731C90.3992 84.7975 90.3451 85.1218 90.237 85.3921C90.1289 85.6624 89.9668 85.9326 89.6965 86.1488L59.2635 116.69C59.0473 116.906 58.777 117.068 58.5067 117.176C58.2364 117.285 57.9121 117.339 57.5878 117.339C57.2635 117.339 56.9932 117.285 56.6689 117.176C56.3986 117.068 56.1283 116.906 55.9121 116.69L37.7496 98.4734Z" fill="#F8DA5E" stroke="#030608" stroke-width="2" stroke-miterlimit="10"/>
<path d="M58.8665 116.942C58.6551 117.153 58.3909 117.311 58.1267 117.469C57.8624 117.575 57.5454 117.628 57.2283 117.628C56.9113 117.628 56.647 117.575 56.33 117.469C56.0658 117.364 55.8016 117.206 55.5902 116.942L25.8393 87.1457C25.4166 86.7238 25.1523 86.1437 25.1523 85.5109C25.1523 84.8781 25.4166 84.298 25.8393 83.8761L43.6476 66.1038C43.8589 65.8928 44.1231 65.7346 44.3874 65.5764C44.6516 65.4709 44.9686 65.4182 45.2857 65.4182C45.6028 65.4182 45.867 65.4709 46.184 65.5764C46.4483 65.6819 46.7125 65.8401 46.9238 66.1038L76.6747 95.9C77.0975 96.3219 77.3617 96.902 77.3617 97.5349C77.3617 98.1677 77.0975 98.7478 76.6747 99.1697L58.8665 116.942Z" fill="#F8DA5E"/>
<path d="M58.8665 116.942C58.6551 117.153 58.3909 117.311 58.1267 117.469C57.8624 117.575 57.5454 117.628 57.2283 117.628C56.9113 117.628 56.647 117.575 56.33 117.469C56.0658 117.364 55.8016 117.206 55.5902 116.942L25.8393 87.1457C25.4166 86.7238 25.1523 86.1437 25.1523 85.5109C25.1523 84.8781 25.4166 84.298 25.8393 83.8761L43.6476 66.1038C43.8589 65.8928 44.1231 65.7346 44.3874 65.5764C44.6516 65.4709 44.9686 65.4182 45.2857 65.4182C45.6028 65.4182 45.867 65.4709 46.184 65.5764C46.4483 65.6819 46.7125 65.8401 46.9238 66.1038L76.6747 95.9C77.0975 96.3219 77.3617 96.902 77.3617 97.5349C77.3617 98.1677 77.0975 98.7478 76.6747 99.1697L58.8665 116.942Z" stroke="#030608" stroke-width="2" stroke-miterlimit="10"/>
<circle cx="63.8912" cy="104.154" r="1.68417" fill="black"/>
<rect x="73.8867" y="66.5154" width="6.73669" height="18.5259" transform="rotate(45 73.8867 66.5154)" fill="black"/>
<mask id="mask1" mask-type="alpha" maskUnits="userSpaceOnUse" x="44" y="13" width="30" height="19">
<rect x="44.9883" y="13.7769" width="28.1016" height="17.9098" fill="#C4C4C4"/>
</mask>
<g mask="url(#mask1)">
<circle cx="57.3942" cy="28.7475" r="7.87855" fill="white" stroke="black" stroke-width="2"/>
</g>
</svg>
