<svg width="99" height="129" viewBox="0 0 99 129" fill="none" xmlns="http://www.w3.org/2000/svg">
<path d="M20.4556 17.1172H97.1728V106.225L10.5107 120.369L20.4556 17.1172Z" fill="white"/>
<path d="M97.3017 21.6743V8.32617H8.53613V120.594" fill="white"/>
<path d="M97.3017 21.6743V8.32617H8.53613V120.594" stroke="#010101" stroke-width="2" stroke-miterlimit="10" stroke-linecap="round"/>
<path d="M8.53613 120.594V127.745H76.9096L97.3017 107.564V37.8037" fill="white"/>
<path d="M8.53613 120.594V127.745H76.9096L97.3017 107.564V37.8037" stroke="#010101" stroke-width="2" stroke-miterlimit="10" stroke-linecap="round"/>
<path d="M76.6709 106.292V127.745H76.9108L97.3029 107.564V106.292H76.6709Z" fill="white" stroke="#010101" stroke-width="2" stroke-miterlimit="10" stroke-linecap="round"/>
<path d="M61.4766 26.2832H81.2289" stroke="#010101" stroke-width="2" stroke-miterlimit="10" stroke-linecap="round"/>
<path d="M61.4766 34.228H81.2289" stroke="#010101" stroke-width="2" stroke-miterlimit="10" stroke-linecap="round"/>
<path d="M43.963 28.5077L38.685 23.2637C38.4451 23.0254 37.9653 23.0254 37.7254 23.2637L34.6066 26.3624L31.4878 23.2637C31.2479 23.0254 30.7681 23.0254 30.5282 23.2637L25.2502 28.5077C25.0103 28.746 25.0103 29.2227 25.2502 29.4611L34.1268 38.2804C34.3667 38.5188 34.8465 38.5188 35.0864 38.2804L40.3644 33.0365L43.963 29.4611C44.2029 29.1433 44.2029 28.746 43.963 28.5077Z" fill="#FFDA54"/>
<path d="M25.3291 50.5957H82.0271" stroke="#010101" stroke-width="2" stroke-miterlimit="10" stroke-linecap="round"/>
<path d="M25.3291 58.541H82.0271" stroke="#010101" stroke-width="2" stroke-miterlimit="10" stroke-linecap="round"/>
<path d="M25.3291 66.4863H82.0271" stroke="#010101" stroke-width="2" stroke-miterlimit="10" stroke-linecap="round"/>
<path d="M45.8823 94.6128L37.2456 99.5389L28.609 94.6128L19.7324 109.868L27.8093 107.564L29.8885 115.747L37.2456 103.035L44.6028 115.747L46.602 107.564L54.7588 109.868L45.8823 94.6128Z" stroke="#010101" stroke-width="2" stroke-miterlimit="10" stroke-linecap="round"/>
<path d="M37.246 102.399C44.0033 102.399 49.4812 96.9566 49.4812 90.2428C49.4812 83.529 44.0033 78.0864 37.246 78.0864C30.4886 78.0864 25.0107 83.529 25.0107 90.2428C25.0107 96.9566 30.4886 102.399 37.246 102.399Z" fill="white" stroke="#010101" stroke-width="2" stroke-miterlimit="10" stroke-linecap="round"/>
<path d="M1.09961 107.881V120.673H8.61668" stroke="#010101" stroke-width="2" stroke-miterlimit="10" stroke-linecap="round"/>
<path d="M89.8651 8.24665V1.17529H1.09961V91.6727" stroke="#010101" stroke-width="2" stroke-miterlimit="10" stroke-linecap="round"/>
</svg>
