<svg width="166" height="126" viewBox="0 0 166 126" fill="none" xmlns="http://www.w3.org/2000/svg">
<path d="M144.062 22.5029V1.08203H24.3945V111.079H65.6093" fill="white"/>
<path d="M144.062 22.5029V1.08203H24.3945V111.079H65.6093" stroke="#010101" stroke-width="2" stroke-miterlimit="10" stroke-linecap="round"/>
<path d="M125.713 14.459H25.207" stroke="#010101" stroke-width="2" stroke-miterlimit="10" stroke-linecap="round"/>
<path d="M31.4438 9.39746C32.3923 9.39746 33.1611 8.6286 33.1611 7.68017C33.1611 6.73175 32.3923 5.96289 31.4438 5.96289C30.4954 5.96289 29.7266 6.73175 29.7266 7.68017C29.7266 8.6286 30.4954 9.39746 31.4438 9.39746Z" fill="#010101"/>
<path d="M45.272 9.39746C46.2204 9.39746 46.9892 8.6286 46.9892 7.68017C46.9892 6.73175 46.2204 5.96289 45.272 5.96289C44.3235 5.96289 43.5547 6.73175 43.5547 7.68017C43.5547 8.6286 44.3235 9.39746 45.272 9.39746Z" fill="#010101"/>
<path d="M38.4946 9.39746C39.4431 9.39746 40.2119 8.6286 40.2119 7.68017C40.2119 6.73175 39.4431 5.96289 38.4946 5.96289C37.5462 5.96289 36.7773 6.73175 36.7773 7.68017C36.7773 8.6286 37.5462 9.39746 38.4946 9.39746Z" fill="#010101"/>
<path d="M24.3941 14.3682H8.75781V124.274H57.2936" stroke="#010101" stroke-width="2" stroke-miterlimit="10" stroke-linecap="round"/>
<path d="M24.0322 27.7451H9.48047" stroke="#010101" stroke-width="2" stroke-miterlimit="10" stroke-linecap="round"/>
<path d="M16.3481 22.6836C17.2966 22.6836 18.0654 21.9147 18.0654 20.9663C18.0654 20.0179 17.2966 19.249 16.3481 19.249C15.3997 19.249 14.6309 20.0179 14.6309 20.9663C14.6309 21.9147 15.3997 22.6836 16.3481 22.6836Z" fill="#010101"/>
<circle cx="115.658" cy="73.9213" r="50.3432" fill="white"/>
<path d="M154.178 105.385C145.05 116.863 130.95 124.275 115.133 124.275C87.6562 124.275 65.4219 102.04 65.4219 74.564C65.4219 69.5025 66.1449 64.5314 67.5911 59.9219" stroke="#010101" stroke-width="2" stroke-miterlimit="10" stroke-linecap="round"/>
<path d="M75.1836 45.0988C84.2219 32.8971 98.7736 24.9434 115.133 24.9434C142.61 24.9434 164.844 47.1777 164.844 74.6542C164.844 86.3136 160.867 96.9789 154.179 105.475" stroke="#010101" stroke-width="2" stroke-miterlimit="10" stroke-linecap="round"/>
<path d="M158.968 97.6121C145.862 90.7429 130.949 86.8564 115.132 86.8564C99.2244 86.8564 84.2208 90.8333 71.1152 97.7928" stroke="#010101" stroke-width="2" stroke-miterlimit="10" stroke-linecap="round"/>
<path d="M115.222 86.2235C126.553 86.2235 135.739 77.0377 135.739 65.7065C135.739 54.3752 126.553 45.1895 115.222 45.1895C103.891 45.1895 94.7051 54.3752 94.7051 65.7065C94.7051 77.0377 103.891 86.2235 115.222 86.2235Z" stroke="#010101" stroke-width="2" stroke-miterlimit="10" stroke-linecap="round"/>
<path d="M107.811 87.2173L115.945 104.752L122.272 87.127" stroke="#010101" stroke-width="2" stroke-miterlimit="10"/>
<circle cx="38.4965" cy="48.8598" r="37.1665" fill="white"/>
<path d="M48.9159 38.9549L43.0069 33.0232C42.6959 32.711 42.2294 32.711 41.9184 33.0232L38.4974 36.4574L35.0764 33.0232C34.7654 32.711 34.2989 32.711 33.9879 33.0232L28.079 38.9549C27.768 39.2671 27.768 39.7354 28.079 40.0476L37.8754 49.8818C38.1864 50.194 38.6529 50.194 38.9639 49.8818L44.8729 43.95L48.9159 39.8915C49.2269 39.7354 49.2269 39.2671 48.9159 38.9549Z" fill="#FFDA54"/>
<path d="M23.0254 58.1641H53.969" stroke="black" stroke-width="2" stroke-linecap="round" stroke-linejoin="round"/>
<path d="M23.0254 63.3301H53.969" stroke="black" stroke-width="2" stroke-linecap="round" stroke-linejoin="round"/>
<path d="M23.0254 68.4961H53.969" stroke="black" stroke-width="2" stroke-linecap="round" stroke-linejoin="round"/>
<path d="M66.9357 72.0879C60.1963 80.5622 49.7869 86.0337 38.1098 86.0337C17.8249 86.0337 1.41016 69.619 1.41016 49.3341C1.41016 45.5974 1.94397 41.9275 3.0116 38.5244" stroke="#010101" stroke-width="2" stroke-miterlimit="10" stroke-linecap="round"/>
<path d="M8.61523 27.5812C15.2879 18.5731 26.0309 12.7012 38.1084 12.7012C58.3933 12.7012 74.808 29.1159 74.808 49.4008C74.808 58.0085 71.872 65.8823 66.9343 72.1546" stroke="#010101" stroke-width="2" stroke-miterlimit="10" stroke-linecap="round"/>
<path d="M81.7984 74.9288L62.3376 71.9401L68.3447 56.4294L81.7984 74.9288Z" fill="white"/>
<path d="M81.7984 74.9288L62.3376 71.9401L68.3447 56.4294L81.7984 74.9288Z" fill="white"/>
<path d="M65.9206 73.2979L81.7989 74.9284L72.8932 61.3821" stroke="#010101" stroke-width="2.2" stroke-linecap="round" stroke-linejoin="round"/>
</svg>
