<svg width="202" height="124" viewBox="0 0 202 124" fill="none" xmlns="http://www.w3.org/2000/svg">
<path d="M100.706 95.9593C126.928 95.9593 148.186 74.7019 148.186 48.4796C148.186 22.2574 126.928 1 100.706 1C74.4839 1 53.2266 22.2574 53.2266 48.4796C53.2266 74.7019 74.4839 95.9593 100.706 95.9593Z" fill="white" stroke="#010101" stroke-width="2" stroke-miterlimit="10"/>
<path d="M100.967 90.8484C124.284 90.8484 143.187 71.9456 143.187 48.6278C143.187 25.31 124.284 6.40723 100.967 6.40723C77.6489 6.40723 58.7461 25.31 58.7461 48.6278C58.7461 71.9456 77.6489 90.8484 100.967 90.8484Z" fill="white" stroke="#010101" stroke-width="2" stroke-miterlimit="10"/>
<path d="M137.859 19.5936L136.226 9.47803L127.689 9.6129C131.567 12.3666 135 15.735 137.859 19.5936Z" fill="white" stroke="#010101" stroke-width="2" stroke-miterlimit="10"/>
<path d="M136.415 9.12793L102.148 41.9032L106.439 48.296L143.078 24.7655L136.415 9.12793Z" fill="#1D2431"/>
<path d="M102.094 43.1415L137.006 10.4971L142.465 23.5444L105.513 47.7813L102.094 43.1415Z" fill="white" stroke="#010101" stroke-width="2" stroke-miterlimit="10"/>
<path d="M63.9355 18.3977L65.7322 7.97559L74.8374 8.10641C70.686 10.9436 67.007 14.4165 63.9355 18.3977Z" fill="white" stroke="#010101" stroke-width="2" stroke-miterlimit="10"/>
<path d="M64.9933 9.02393L99.2599 41.7992L94.9776 48.192L58.3301 24.6615L64.9933 9.02393Z" fill="white" stroke="#010101" stroke-width="2" stroke-miterlimit="10"/>
<path d="M101.036 69.8039C112.77 69.8039 122.282 60.292 122.282 48.5585C122.282 36.8249 112.77 27.313 101.036 27.313C89.3029 27.313 79.791 36.8249 79.791 48.5585C79.791 60.292 89.3029 69.8039 101.036 69.8039Z" fill="white" stroke="#010101" stroke-width="2" stroke-miterlimit="10"/>
<path d="M111.802 47.7156L105.724 41.6374C105.448 41.3611 104.895 41.3611 104.619 41.6374L101.027 45.2291L97.4355 41.6374C97.1592 41.3611 96.6066 41.3611 96.3304 41.6374L90.2521 47.7156C89.9759 47.9919 89.9759 48.5445 90.2521 48.8207L100.475 59.0432C100.751 59.3195 101.303 59.3195 101.58 59.0432L107.658 52.965L111.802 48.8207C112.171 48.4524 112.171 47.9919 111.802 47.7156Z" fill="#FFDA54"/>
<path d="M143.529 107.063L111.845 122.139C111.522 122.301 110.796 122.543 110.393 122.543C109.184 122.623 106.927 122.543 105.637 121.494C103.218 119.479 102.976 115.932 104.992 113.594L105.395 113.11C105.475 112.949 105.637 112.868 105.798 112.707L140.465 85.2147C140.546 85.2147 140.546 85.1341 140.627 85.1341C142.481 83.8441 144.254 82.393 146.028 79.4906C146.109 79.3293 146.189 79.2487 146.27 79.0875L148.85 72.7184C149.898 70.0578 146.996 67.5586 144.577 69.0098C141.513 70.8641 138.45 73.0408 135.547 75.782C135.305 76.0238 132.887 77.9588 129.501 79.41C125.631 81.103 123.293 81.0224 122.809 81.0224C121.6 80.9418 120.955 80.8611 118.939 80.1355C116.682 79.3293 116.118 78.0394 115.876 77.475C115.392 76.1851 116.037 75.137 116.118 75.0564C117.407 72.7183 120.149 72.9602 123.373 71.5896C125.953 70.5416 126.195 70.3803 132.967 62.3988C134.822 60.222 138.288 55.7878 143.61 53.611C149.898 51.0311 158.928 51.273 161.83 51.3536C163.362 51.4342 164.249 51.5955 164.894 51.6761C165.297 51.7567 165.78 51.6761 166.184 51.5955C166.264 51.5148 166.264 51.5149 166.345 51.4342C167.474 50.0637 170.134 51.4342 170.537 50.7893C172.714 47.4838 174.407 47.5644 173.601 52.0792C173.359 53.2079 173.843 54.4172 174.81 55.0622L180.776 59.2545C181.099 59.4964 181.34 59.7383 181.502 59.9801C184.162 64.1725 184.243 82.4736 180.292 87.5527C178.196 90.2939 175.374 92.39 172.069 93.5188L171.666 93.68C171.585 93.68 171.424 93.7606 171.343 93.8412L156.59 100.855" fill="white"/>
<path d="M143.529 107.063L111.845 122.139C111.522 122.301 110.796 122.543 110.393 122.543C109.184 122.623 106.927 122.543 105.637 121.494C103.218 119.479 102.976 115.932 104.992 113.594L105.395 113.11C105.475 112.949 105.637 112.868 105.798 112.707L140.465 85.2147C140.546 85.2147 140.546 85.1341 140.627 85.1341C142.481 83.8441 144.254 82.393 146.028 79.4906C146.109 79.3293 146.189 79.2487 146.27 79.0875L148.85 72.7184C149.898 70.0578 146.996 67.5586 144.577 69.0098C141.513 70.8641 138.45 73.0408 135.547 75.782C135.305 76.0238 132.887 77.9588 129.501 79.41C125.631 81.103 123.293 81.0224 122.809 81.0224C121.6 80.9418 120.955 80.8611 118.939 80.1355C116.682 79.3293 116.118 78.0394 115.876 77.475C115.392 76.1851 116.037 75.137 116.118 75.0564C117.407 72.7183 120.149 72.9602 123.373 71.5897C125.953 70.5416 126.195 70.3803 132.967 62.3988C134.822 60.222 138.288 55.7878 143.61 53.611C149.898 51.0311 158.928 51.273 161.83 51.3536C163.362 51.4342 164.249 51.5955 164.894 51.6761C165.297 51.7567 165.78 51.6761 166.184 51.5955C166.264 51.5148 166.264 51.5149 166.345 51.4342C167.474 50.0637 170.134 51.4342 170.537 50.7893C172.714 47.4838 174.407 47.5644 173.601 52.0792C173.359 53.2079 173.843 54.4172 174.81 55.0622L180.776 59.2545C181.099 59.4964 181.34 59.7383 181.502 59.9801C184.162 64.1725 184.243 82.4736 180.292 87.5527C178.196 90.2939 175.374 92.39 172.069 93.5188L171.666 93.68C171.585 93.68 171.424 93.7606 171.343 93.8412L156.59 100.855" stroke="#010101" stroke-width="2" stroke-miterlimit="10" stroke-linecap="round"/>
<path d="M185.129 73.2826L160.943 52.3209C158.04 49.7411 157.718 45.3069 160.217 42.4045L164.49 37.4866C167.07 34.5842 171.504 34.2617 174.406 36.761L198.593 57.7226C201.495 60.3025 201.818 64.7367 199.319 67.6391L195.046 72.557C192.466 75.4594 188.031 75.7819 185.129 73.2826Z" fill="white" stroke="#010101" stroke-width="2" stroke-miterlimit="10" stroke-linecap="round"/>
<path d="M58.3908 107.063L90.0752 122.139C90.3976 122.301 91.1232 122.543 91.5263 122.543C92.7357 122.623 94.9931 122.543 96.283 121.494C98.7017 119.479 98.9435 115.932 96.928 113.594L96.5249 113.11C96.4443 112.949 96.283 112.868 96.1218 112.707L61.4545 85.2147C61.3738 85.2147 61.3738 85.1341 61.2932 85.1341C59.4389 83.8441 57.6652 82.393 55.8916 79.4906C55.8109 79.3293 55.7303 79.2487 55.6497 79.0875L53.0698 72.7184C52.0217 70.0578 54.9241 67.5586 57.3428 69.0098C60.4064 70.8641 63.47 73.0408 66.3724 75.782C66.6143 76.0238 69.0329 77.9588 72.419 79.41C76.2889 81.103 78.6269 81.0224 79.1106 81.0224C80.3199 80.9418 80.9649 80.8611 82.9805 80.1355C85.2379 79.3293 85.8022 78.0394 86.0441 77.475C86.5278 76.1851 85.8828 75.137 85.8022 75.0564C84.5123 72.7183 81.7711 72.9602 78.5463 71.5896C75.9664 70.5416 75.7245 70.3803 68.9523 62.3988C67.098 60.222 63.6312 55.7878 58.3102 53.611C52.0217 51.0311 42.9921 51.273 40.0897 51.3536C38.5579 51.4342 37.6711 51.5955 37.0261 51.6761C36.623 51.7567 36.1393 51.6761 35.7361 51.5955C35.6555 51.5148 35.6555 51.5149 35.5749 51.4342C34.4462 50.0637 31.7857 51.4342 31.3826 50.7893C29.2058 47.4838 27.5127 47.5644 28.319 52.0792C28.5608 53.2079 28.0771 54.4172 27.1096 55.0622L21.1436 59.2545C20.8211 59.4964 20.5793 59.7383 20.418 59.9801C17.7575 64.1725 17.6769 82.4736 21.6274 87.5527C23.7235 90.2939 26.5453 92.39 29.8508 93.5188L30.2539 93.68C30.3345 93.68 30.4957 93.7606 30.5764 93.8412L45.3301 100.855" fill="white"/>
<path d="M58.3908 107.063L90.0752 122.139C90.3976 122.301 91.1232 122.543 91.5263 122.543C92.7357 122.623 94.9931 122.543 96.283 121.494C98.7017 119.479 98.9435 115.932 96.928 113.594L96.5249 113.11C96.4443 112.949 96.283 112.868 96.1218 112.707L61.4545 85.2147C61.3738 85.2147 61.3738 85.1341 61.2932 85.1341C59.4389 83.8441 57.6652 82.393 55.8916 79.4906C55.8109 79.3293 55.7303 79.2487 55.6497 79.0875L53.0698 72.7184C52.0217 70.0578 54.9241 67.5586 57.3428 69.0098C60.4064 70.8641 63.47 73.0408 66.3724 75.782C66.6143 76.0238 69.0329 77.9588 72.419 79.41C76.2889 81.103 78.6269 81.0224 79.1106 81.0224C80.3199 80.9418 80.9649 80.8611 82.9804 80.1355C85.2379 79.3293 85.8022 78.0394 86.0441 77.475C86.5278 76.1851 85.8828 75.137 85.8022 75.0564C84.5123 72.7183 81.7711 72.9602 78.5463 71.5897C75.9664 70.5416 75.7245 70.3803 68.9523 62.3988C67.098 60.222 63.6312 55.7878 58.3102 53.611C52.0217 51.0311 42.9921 51.273 40.0897 51.3536C38.5579 51.4342 37.6711 51.5955 37.0261 51.6761C36.623 51.7567 36.1393 51.6761 35.7361 51.5955C35.6555 51.5148 35.6555 51.5149 35.5749 51.4342C34.4462 50.0637 31.7857 51.4342 31.3826 50.7893C29.2058 47.4838 27.5127 47.5644 28.319 52.0792C28.5608 53.2079 28.0771 54.4172 27.1096 55.0622L21.1436 59.2545C20.8211 59.4964 20.5793 59.7383 20.418 59.9801C17.7575 64.1725 17.6769 82.4736 21.6274 87.5527C23.7235 90.2939 26.5453 92.39 29.8508 93.5188L30.2539 93.68C30.3345 93.68 30.4957 93.7606 30.5764 93.8412L45.3301 100.855" stroke="#010101" stroke-width="2" stroke-miterlimit="10" stroke-linecap="round"/>
<path d="M16.8713 73.2826L41.0578 52.3209C43.9602 49.7411 44.2826 45.3069 41.7834 42.4045L37.5104 37.4866C34.9305 34.5842 30.4963 34.2617 27.594 36.761L3.40745 57.7226C0.505074 60.3025 0.182588 64.7367 2.68186 67.6391L6.95481 72.557C9.45408 75.4594 13.8883 75.7819 16.8713 73.2826Z" fill="white" stroke="#010101" stroke-width="2" stroke-miterlimit="10" stroke-linecap="round"/>
</svg>
