<svg width="85" height="94" viewBox="0 0 85 94" fill="none" xmlns="http://www.w3.org/2000/svg">
<path d="M20.003 24.2491C16.7668 24.2491 13.6631 23.0245 11.3747 20.8446C9.08637 18.6648 7.80078 15.7083 7.80078 12.6256C7.80078 9.54281 9.08637 6.58632 11.3747 4.40649C13.6631 2.22665 16.7668 1.00203 20.003 1.00203C24.7116 0.923888 29.3257 3.10012 33.2436 7.24694C37.1616 11.3938 40.2016 17.3187 41.9671 24.2491C43.7326 17.3187 46.7726 11.3938 50.6906 7.24694C54.6085 3.10012 59.2226 0.923888 63.9312 1.00203C67.1674 1.00203 70.2711 2.22665 72.5594 4.40649C74.8478 6.58632 76.1334 9.54281 76.1334 12.6256C76.1334 15.7083 74.8478 18.6648 72.5594 20.8446C70.2711 23.0245 67.1674 24.2491 63.9312 24.2491" fill="#FFDA54"/>
<path d="M20.003 24.2491C16.7668 24.2491 13.6631 23.0245 11.3747 20.8446C9.08637 18.6648 7.80078 15.7083 7.80078 12.6256C7.80078 9.54281 9.08637 6.58632 11.3747 4.40649C13.6631 2.22665 16.7668 1.00203 20.003 1.00203C24.7116 0.923888 29.3257 3.10012 33.2436 7.24694C37.1616 11.3938 40.2016 17.3187 41.9671 24.2491C43.7326 17.3187 46.7726 11.3938 50.6906 7.24694C54.6085 3.10012 59.2226 0.923888 63.9312 1.00203C67.1674 1.00203 70.2711 2.22665 72.5594 4.40649C74.8478 6.58632 76.1334 9.54281 76.1334 12.6256C76.1334 15.7083 74.8478 18.6648 72.5594 20.8446C70.2711 23.0245 67.1674 24.2491 63.9312 24.2491" stroke="black" stroke-width="2" stroke-linecap="round" stroke-linejoin="round"/>
<path d="M26.5017 24.249C24.2231 24.249 22.0378 23.2056 20.4266 21.3483C18.8153 19.4909 17.9102 16.9719 17.9102 14.3452C17.9102 11.7186 18.8153 9.1995 20.4266 7.34218C22.0378 5.48486 24.2231 4.44143 26.5017 4.44143C29.8169 4.37485 33.0657 6.2291 35.8243 9.76238C38.5829 13.2957 40.7233 18.344 41.9665 24.249C43.2096 18.344 45.35 13.2957 48.1086 9.76238C50.8672 6.2291 54.116 4.37485 57.4312 4.44143C59.7098 4.44143 61.8951 5.48486 63.5063 7.34218C65.1176 9.1995 66.0227 11.7186 66.0227 14.3452C66.0227 16.9719 65.1176 19.4909 63.5063 21.3483C61.8951 23.2056 59.7098 24.249 57.4312 24.249" fill="#EEF1F7"/>
<path d="M26.5017 24.249C24.2231 24.249 22.0378 23.2056 20.4266 21.3483C18.8153 19.4909 17.9102 16.9719 17.9102 14.3452C17.9102 11.7186 18.8153 9.1995 20.4266 7.34218C22.0378 5.48486 24.2231 4.44143 26.5017 4.44143C29.8169 4.37485 33.0657 6.2291 35.8243 9.76238C38.5829 13.2957 40.7233 18.344 41.9665 24.249C43.2096 18.344 45.35 13.2957 48.1086 9.76238C50.8672 6.2291 54.116 4.37485 57.4312 4.44143C59.7098 4.44143 61.8951 5.48486 63.5063 7.34218C65.1176 9.1995 66.0227 11.7186 66.0227 14.3452C66.0227 16.9719 65.1176 19.4909 63.5063 21.3483C61.8951 23.2056 59.7098 24.249 57.4312 24.249" stroke="black" stroke-width="2" stroke-linecap="round" stroke-linejoin="round"/>
<path d="M76.1334 37.2034V80.5268C76.1334 83.8097 75.1049 86.9581 73.2742 89.2794C71.4435 91.6008 68.9606 92.9049 66.3716 92.9049H17.5626C14.9736 92.9049 12.4906 91.6008 10.6599 89.2794C8.82925 86.9581 7.80078 83.8097 7.80078 80.5268V37.2034" fill="white"/>
<path d="M76.1334 37.2034V80.5268C76.1334 83.8097 75.1049 86.9581 73.2742 89.2794C71.4435 91.6008 68.9606 92.9049 66.3716 92.9049H17.5626C14.9736 92.9049 12.4906 91.6008 10.6599 89.2794C8.82925 86.9581 7.80078 83.8097 7.80078 80.5268V37.2034" stroke="black" stroke-width="2" stroke-linecap="round" stroke-linejoin="round"/>
<path d="M78.0232 23.1379H6.47195C5.04961 23.1379 3.72103 23.554 2.72327 24.2766C1.7267 24.9983 1 26.0815 1 27.3765V33.8535C1 35.1484 1.7267 36.2317 2.72327 36.9534C3.72103 37.6759 5.04961 38.092 6.47195 38.092H78.0232C79.4455 38.092 80.7741 37.6759 81.7719 36.9534C82.7684 36.2317 83.4951 35.1484 83.4951 33.8535V27.3765C83.4951 26.0815 82.7684 24.9983 81.7719 24.2766C80.7741 23.554 79.4455 23.1379 78.0232 23.1379Z" fill="#EEF1F7" stroke="black" stroke-width="2" stroke-linecap="round" stroke-linejoin="round"/>
<mask id="mask0" mask-type="alpha" maskUnits="userSpaceOnUse" x="2" y="24" width="81" height="14">
<path d="M78.0232 24.1379H6.47195C4.00216 24.1379 2 25.5879 2 27.3765V33.8535C2 35.6421 4.00216 37.092 6.47195 37.092H78.0232C80.493 37.092 82.4951 35.6421 82.4951 33.8535V27.3765C82.4951 25.5879 80.493 24.1379 78.0232 24.1379Z" fill="white"/>
</mask>
<g mask="url(#mask0)">
<path fill-rule="evenodd" clip-rule="evenodd" d="M13.4733 20.3033L8.65397 14.3447L-12.6914 40.7359L-7.87207 46.6944L13.4733 20.3033ZM30.1033 20.3033L25.284 14.3447L3.93858 40.7359L8.75792 46.6944L30.1033 20.3033ZM41.9165 14.3447L46.7358 20.3033L25.3904 46.6944L20.5711 40.7359L41.9165 14.3447ZM63.3663 20.3033L58.5469 14.3447L37.2016 40.7359L42.0209 46.6944L63.3663 20.3033ZM75.1789 14.3447L79.9983 20.3033L58.6529 46.6944L53.8336 40.7359L75.1789 14.3447ZM96.6288 20.3033L91.8094 14.3447L70.4641 40.7359L75.2834 46.6944L96.6288 20.3033Z" fill="white"/>
<path fill-rule="evenodd" clip-rule="evenodd" d="M16.6452 20.5609L11.8258 14.6023L-9.51953 40.9934L-4.70019 46.952L16.6452 20.5609ZM33.2752 20.5609L28.4558 14.6023L7.11046 40.9934L11.9298 46.952L33.2752 20.5609ZM45.0868 14.6023L49.9062 20.5609L28.5608 46.952L23.7414 40.9934L45.0868 14.6023ZM66.5382 20.5609L61.7188 14.6023L40.3734 40.9934L45.1928 46.952L66.5382 20.5609ZM78.3493 14.6023L83.1686 20.5609L61.8233 46.952L57.0039 40.9934L78.3493 14.6023ZM99.8006 20.5609L94.9813 14.6023L73.6359 40.9934L78.4553 46.952L99.8006 20.5609Z" fill="white"/>
</g>
<path d="M27.6489 71.5267C27.4913 71.3691 27.3731 71.1721 27.2549 70.9751C27.1761 70.7782 27.1367 70.5418 27.1367 70.3054C27.1367 70.069 27.1761 69.8327 27.2549 69.6357C27.3337 69.4387 27.4519 69.2417 27.6489 69.0841L49.8288 46.8254C49.9864 46.6678 50.1834 46.5496 50.3804 46.4314C50.5774 46.3526 50.8137 46.3132 51.0501 46.3132C51.2865 46.3132 51.5229 46.3526 51.7198 46.4314C51.9168 46.5102 52.1138 46.6284 52.2714 46.8254L65.5084 60.1018C65.666 60.2594 65.7842 60.4564 65.9024 60.6534C65.9812 60.8504 66.0206 61.0867 66.0206 61.3231C66.0206 61.5595 65.9812 61.7959 65.9024 61.9929C65.8236 62.1898 65.7054 62.3868 65.5084 62.5444L43.3285 84.8032C43.1709 84.9607 42.9739 85.0789 42.7769 85.1577C42.58 85.2365 42.3436 85.2759 42.1072 85.2759C41.8708 85.2759 41.6739 85.2365 41.4375 85.1577C41.2405 85.0789 41.0435 84.9607 40.8859 84.8032L27.6489 71.5267Z" fill="#F8DA5E"/>
<path d="M27.6489 71.5267C27.4913 71.3691 27.3731 71.1721 27.2549 70.9751C27.1761 70.7782 27.1367 70.5418 27.1367 70.3054C27.1367 70.069 27.1761 69.8327 27.2549 69.6357C27.3337 69.4387 27.4519 69.2417 27.6489 69.0841L49.8288 46.8254C49.9864 46.6678 50.1834 46.5496 50.3804 46.4314C50.5774 46.3526 50.8137 46.3132 51.0501 46.3132C51.2865 46.3132 51.5229 46.3526 51.7198 46.4314C51.9168 46.5102 52.1138 46.6284 52.2714 46.8254L65.5084 60.1018C65.666 60.2594 65.7842 60.4564 65.9024 60.6534C65.9812 60.8504 66.0206 61.0867 66.0206 61.3231C66.0206 61.5595 65.9812 61.7959 65.9024 61.9929C65.8236 62.1898 65.7054 62.3868 65.5084 62.5444L43.3285 84.8032C43.1709 84.9607 42.9739 85.0789 42.7769 85.1577C42.58 85.2365 42.3436 85.2759 42.1072 85.2759C41.8708 85.2759 41.6739 85.2365 41.4375 85.1577C41.2405 85.0789 41.0435 84.9607 40.8859 84.8032L27.6489 71.5267Z" fill="#F8DA5E" stroke="#030608" stroke-width="2" stroke-miterlimit="10"/>
<path d="M43.0401 84.9867C42.886 85.1405 42.6934 85.2558 42.5009 85.3711C42.3083 85.448 42.0772 85.4864 41.8461 85.4864C41.6151 85.4864 41.4225 85.448 41.1914 85.3711C40.9989 85.2942 40.8063 85.1789 40.6522 84.9867L18.9694 63.2709C18.6613 62.9634 18.4688 62.5406 18.4688 62.0794C18.4688 61.6181 18.6613 61.1954 18.9694 60.8879L31.9483 47.9352C32.1024 47.7815 32.2949 47.6662 32.4875 47.5509C32.6801 47.474 32.9111 47.4355 33.1422 47.4355C33.3733 47.4355 33.5659 47.474 33.7969 47.5509C33.9895 47.6277 34.1821 47.743 34.3361 47.9352L56.0189 69.6511C56.327 69.9586 56.5196 70.3814 56.5196 70.8426C56.5196 71.3038 56.327 71.7266 56.0189 72.0341L43.0401 84.9867Z" fill="#F8DA5E"/>
<path d="M43.0401 84.9867C42.886 85.1405 42.6934 85.2558 42.5009 85.3711C42.3083 85.448 42.0772 85.4864 41.8461 85.4864C41.6151 85.4864 41.4225 85.448 41.1914 85.3711C40.9989 85.2942 40.8063 85.1789 40.6522 84.9867L18.9694 63.2709C18.6613 62.9634 18.4688 62.5406 18.4688 62.0794C18.4688 61.6181 18.6613 61.1954 18.9694 60.8879L31.9483 47.9352C32.1024 47.7815 32.2949 47.6662 32.4875 47.5509C32.6801 47.474 32.9111 47.4355 33.1422 47.4355C33.3733 47.4355 33.5659 47.474 33.7969 47.5509C33.9895 47.6277 34.1821 47.743 34.3361 47.9352L56.0189 69.6511C56.327 69.9586 56.5196 70.3814 56.5196 70.8426C56.5196 71.3038 56.327 71.7266 56.0189 72.0341L43.0401 84.9867Z" stroke="#030608" stroke-width="2" stroke-miterlimit="10"/>
<circle cx="46.704" cy="75.6669" r="1.22745" fill="black"/>
<rect x="53.9883" y="48.2351" width="4.90979" height="13.5019" transform="rotate(45 53.9883 48.2351)" fill="black"/>
<mask id="mask1" mask-type="alpha" maskUnits="userSpaceOnUse" x="32" y="9" width="22" height="14">
<rect x="32.9258" y="9.79858" width="20.4808" height="13.0529" fill="#C4C4C4"/>
</mask>
<g mask="url(#mask1)">
<circle cx="41.9669" cy="20.7093" r="5.47081" fill="white" stroke="black" stroke-width="2"/>
</g>
</svg>
