<svg width="102" height="99" viewBox="0 0 102 99" fill="none" xmlns="http://www.w3.org/2000/svg">
<path d="M51.207 52.0419C65.0788 52.0419 76.3241 40.6946 76.3241 26.697C76.3241 12.6994 65.0788 1.35205 51.207 1.35205C37.3352 1.35205 26.0898 12.6994 26.0898 26.697C26.0898 40.6946 37.3352 52.0419 51.207 52.0419Z" fill="white" stroke="#010101" stroke-width="2" stroke-miterlimit="10" stroke-linecap="round"/>
<path d="M100.284 97.2221C97.9718 71.8772 76.9017 52.042 51.1422 52.042C25.4469 52.042 4.31257 71.8772 2 97.2221" stroke="#010101" stroke-width="2" stroke-miterlimit="10" stroke-linecap="round"/>
<path d="M83.6469 97.2221H100.349C98.0363 71.8772 76.9662 52.042 51.2067 52.042C25.5114 52.042 4.37703 71.8772 2.06445 97.2221H70.6708" fill="white"/>
<path d="M83.6469 97.2221H100.349C98.0363 71.8772 76.9662 52.042 51.2067 52.042C25.5114 52.042 4.37703 71.8772 2.06445 97.2221H70.6708" stroke="#010101" stroke-width="2" stroke-miterlimit="10" stroke-linecap="round"/>
<path d="M51.1796 51.7891C38.3124 51.7891 26.6676 56.9712 17.918 65.4088C28.5977 69.5944 40.1782 71.9197 52.2733 71.9197C63.7894 71.9197 74.7908 69.7937 85.0202 66.0068C76.2062 57.237 64.3041 51.7891 51.1796 51.7891Z" stroke="#010101" stroke-width="2" stroke-miterlimit="10" stroke-linecap="round"/>
<path d="M43.8184 52.4959L52.0408 70.3864L58.5289 52.3662" stroke="#010101" stroke-width="2" stroke-miterlimit="10" stroke-linecap="round"/>
<path d="M52.4919 88.0175C54.4786 88.0175 56.0892 86.3923 56.0892 84.3875C56.0892 82.3828 54.4786 80.7576 52.4919 80.7576C50.5051 80.7576 48.8945 82.3828 48.8945 84.3875C48.8945 86.3923 50.5051 88.0175 52.4919 88.0175Z" fill="#FFDA54"/>
<path d="M41.1211 38.0405C43.5621 40.763 47.031 42.4483 50.9495 42.4483C54.8681 42.4483 58.3369 40.763 60.778 38.0405" stroke="#010101" stroke-width="2" stroke-miterlimit="10" stroke-linecap="round"/>
<path d="M66.3025 34.1515C73.1142 34.1515 78.6362 28.5794 78.6362 21.7059C78.6362 14.8323 73.1142 9.26025 66.3025 9.26025C59.4908 9.26025 53.9688 14.8323 53.9688 21.7059C53.9688 28.5794 59.4908 34.1515 66.3025 34.1515Z" stroke="#010101" stroke-width="2" stroke-miterlimit="10" stroke-linecap="round"/>
<path d="M35.4685 34.1515C42.2802 34.1515 47.8022 28.5794 47.8022 21.7059C47.8022 14.8323 42.2802 9.26025 35.4685 9.26025C28.6568 9.26025 23.1348 14.8323 23.1348 21.7059C23.1348 28.5794 28.6568 34.1515 35.4685 34.1515Z" stroke="#010101" stroke-width="2" stroke-miterlimit="10" stroke-linecap="round"/>
<path d="M47.9297 24.1041C48.829 23.9097 49.7284 23.78 50.6277 23.78C51.8482 23.78 53.0687 23.9745 54.225 24.2986" stroke="#010101" stroke-width="2" stroke-miterlimit="10" stroke-linecap="round"/>
<path d="M42.8477 25C44.2284 25 45.3477 23.8807 45.3477 22.5C45.3477 21.1193 44.2284 20 42.8477 20C41.4669 20 40.3477 21.1193 40.3477 22.5C40.3477 23.8807 41.4669 25 42.8477 25Z" fill="#010101"/>
<path d="M58.8477 25C60.2284 25 61.3477 23.8807 61.3477 22.5C61.3477 21.1193 60.2284 20 58.8477 20C57.4669 20 56.3477 21.1193 56.3477 22.5C56.3477 23.8807 57.4669 25 58.8477 25Z" fill="#010101"/>
</svg>
