<svg width="122" height="99" viewBox="0 0 122 99" fill="none" xmlns="http://www.w3.org/2000/svg">
<path d="M71.207 52.0419C85.0788 52.0419 96.3241 40.6946 96.3241 26.697C96.3241 12.6994 85.0788 1.35205 71.207 1.35205C57.3352 1.35205 46.0898 12.6994 46.0898 26.697C46.0898 40.6946 57.3352 52.0419 71.207 52.0419Z" fill="white" stroke="#010101" stroke-width="2" stroke-miterlimit="10" stroke-linecap="round"/>
<path d="M120.284 97.2221C117.972 71.8772 96.9017 52.042 71.1422 52.042C45.4469 52.042 24.3126 71.8772 22 97.2221" stroke="#010101" stroke-width="2" stroke-miterlimit="10" stroke-linecap="round"/>
<path d="M103.645 97.2221H120.347C118.034 71.8772 96.9642 52.042 71.2047 52.042C45.5094 52.042 24.3751 71.8772 22.0625 97.2221H90.6689" fill="white"/>
<path d="M103.645 97.2221H120.347C118.034 71.8772 96.9642 52.042 71.2047 52.042C45.5094 52.042 24.3751 71.8772 22.0625 97.2221H90.6689" stroke="#010101" stroke-width="2" stroke-miterlimit="10" stroke-linecap="round"/>
<path d="M71.1796 51.7891C58.3124 51.7891 46.6676 56.9712 37.918 65.4088C48.5977 69.5944 60.1782 71.9197 72.2733 71.9197C83.7894 71.9197 94.7908 69.7937 105.02 66.0068C96.2062 57.237 84.3041 51.7891 71.1796 51.7891Z" stroke="#010101" stroke-width="2" stroke-miterlimit="10" stroke-linecap="round"/>
<path d="M63.8203 52.4959L72.0428 70.3864L78.5309 52.3662" stroke="#010101" stroke-width="2" stroke-miterlimit="10" stroke-linecap="round"/>
<path d="M72.4919 88.0175C74.4786 88.0175 76.0892 86.3923 76.0892 84.3875C76.0892 82.3828 74.4786 80.7576 72.4919 80.7576C70.5051 80.7576 68.8945 82.3828 68.8945 84.3875C68.8945 86.3923 70.5051 88.0175 72.4919 88.0175Z" fill="#FFDA54"/>
<path d="M61.1211 38.0405C63.5621 40.763 67.031 42.4483 70.9495 42.4483C74.8681 42.4483 78.3369 40.763 80.778 38.0405" stroke="#010101" stroke-width="2" stroke-miterlimit="10" stroke-linecap="round"/>
<path d="M86.3025 34.1515C93.1142 34.1515 98.6362 28.5794 98.6362 21.7059C98.6362 14.8323 93.1142 9.26025 86.3025 9.26025C79.4908 9.26025 73.9688 14.8323 73.9688 21.7059C73.9688 28.5794 79.4908 34.1515 86.3025 34.1515Z" stroke="#010101" stroke-width="2" stroke-miterlimit="10" stroke-linecap="round"/>
<path d="M55.4665 34.1515C62.2783 34.1515 67.8003 28.5794 67.8003 21.7059C67.8003 14.8323 62.2783 9.26025 55.4665 9.26025C48.6548 9.26025 43.1328 14.8323 43.1328 21.7059C43.1328 28.5794 48.6548 34.1515 55.4665 34.1515Z" stroke="#010101" stroke-width="2" stroke-miterlimit="10" stroke-linecap="round"/>
<path d="M67.9297 24.1041C68.829 23.9097 69.7284 23.78 70.6277 23.78C71.8482 23.78 73.0687 23.9745 74.225 24.2986" stroke="#010101" stroke-width="2" stroke-miterlimit="10" stroke-linecap="round"/>
<path d="M62.8477 25C64.2284 25 65.3477 23.8807 65.3477 22.5C65.3477 21.1193 64.2284 20 62.8477 20C61.4669 20 60.3477 21.1193 60.3477 22.5C60.3477 23.8807 61.4669 25 62.8477 25Z" fill="#010101"/>
<path d="M78.8477 25C80.2284 25 81.3477 23.8807 81.3477 22.5C81.3477 21.1193 80.2284 20 78.8477 20C77.4669 20 76.3477 21.1193 76.3477 22.5C76.3477 23.8807 77.4669 25 78.8477 25Z" fill="#010101"/>
<path d="M35.7743 11.938L30.8088 7.16279C30.5831 6.94574 30.1317 6.94574 29.906 7.16279L26.9718 9.98449L24.0376 7.16279C23.8119 6.94574 23.3605 6.94574 23.1348 7.16279L18.1693 11.938C17.9436 12.155 17.9436 12.5891 18.1693 12.8062L26.5204 20.8372C26.7461 21.0543 27.1975 21.0543 27.4232 20.8372L32.3887 16.062L35.7743 12.8062C36.0752 12.5168 36.0752 12.155 35.7743 11.938Z" fill="#FFDA54"/>
<path d="M35.5611 37.876L25.906 28.3256C25.4671 27.8915 24.5893 27.8915 24.1505 28.3256L18.4451 33.969L12.7398 28.3256C12.3009 27.8915 11.4232 27.8915 10.9843 28.3256L1.32915 37.876C0.890282 38.3101 0.890282 39.1783 1.32915 39.6124L17.5674 55.6744C18.0063 56.1085 18.884 56.1085 19.3229 55.6744L28.9781 46.124L35.5611 39.6124C36.1463 39.0336 36.1463 38.3101 35.5611 37.876Z" fill="white" stroke="#010101" stroke-width="2" stroke-miterlimit="10" stroke-linecap="round"/>
</svg>
