<svg width="85" height="82" viewBox="0 0 85 82" fill="none" xmlns="http://www.w3.org/2000/svg">
<path d="M83.0145 80.9999C81.0848 59.8505 63.5026 43.2988 42.0073 43.2988C20.5656 43.2988 2.92975 59.8505 1 80.9999" stroke="#010101" stroke-width="2" stroke-miterlimit="10" stroke-linecap="round"/>
<path d="M71.8242 81.0003C70.4211 65.6226 57.6371 53.5879 42.0078 53.5879C26.4175 53.5879 13.5945 65.6226 12.1914 81.0003" fill="white"/>
<path d="M71.8242 81.0003C70.4211 65.6226 57.6371 53.5879 42.0078 53.5879C26.4175 53.5879 13.5945 65.6226 12.1914 81.0003" stroke="#010101" stroke-width="2" stroke-miterlimit="10" stroke-linecap="round"/>
<path fill-rule="evenodd" clip-rule="evenodd" d="M59.087 35.1813C61.8597 31.5898 63.5127 27.0655 63.5127 22.1494C63.5127 10.4689 54.1813 1 42.6704 1C31.1595 1 21.8281 10.4689 21.8281 22.1494C21.8281 27.2499 23.6075 31.9288 26.5707 35.5816L42.6724 58.385L59.087 35.1813Z" fill="white"/>
<path d="M59.087 35.1813L58.2954 34.5702L58.2827 34.5867L58.2706 34.6038L59.087 35.1813ZM26.5707 35.5816L27.3875 35.0048L27.3683 34.9775L27.3473 34.9516L26.5707 35.5816ZM42.6724 58.385L41.8555 58.9618L42.6717 60.1176L43.4888 58.9625L42.6724 58.385ZM59.8786 35.7924C62.7825 32.031 64.5127 27.293 64.5127 22.1494H62.5127C62.5127 26.8379 60.937 31.1486 58.2954 34.5702L59.8786 35.7924ZM64.5127 22.1494C64.5127 9.93045 54.7473 0 42.6704 0V2C53.6153 2 62.5127 11.0073 62.5127 22.1494H64.5127ZM42.6704 0C30.5935 0 20.8281 9.93045 20.8281 22.1494H22.8281C22.8281 11.0073 31.7256 2 42.6704 2V0ZM20.8281 22.1494C20.8281 27.4862 22.6907 32.386 25.7941 36.2116L27.3473 34.9516C24.5242 31.4715 22.8281 27.0137 22.8281 22.1494H20.8281ZM25.7538 36.1584L41.8555 58.9618L43.4893 57.8082L27.3875 35.0048L25.7538 36.1584ZM43.4888 58.9625L59.9034 35.7588L58.2706 34.6038L41.856 57.8075L43.4888 58.9625Z" fill="#010101"/>
<path d="M54.7973 22.1491C54.7973 28.7708 49.48 34.1233 42.9397 34.1233C36.3994 34.1233 31.082 28.7708 31.082 22.1491C31.082 15.5273 36.3994 10.1748 42.9397 10.1748C49.48 10.1748 54.7973 15.5273 54.7973 22.1491Z" fill="#FFDA54" stroke="black" stroke-width="2"/>
<path d="M42.9418 61.5643C44.8858 61.5643 46.4617 63.1545 46.4617 65.1161C46.4617 67.0778 44.8858 68.668 42.9418 68.668C40.9978 68.668 39.4219 67.0778 39.4219 65.1161C39.4219 63.1545 40.9978 61.5643 42.9418 61.5643Z" fill="#FFDA54"/>
</svg>
