<svg width="101" height="82" viewBox="0 0 101 82" fill="none" xmlns="http://www.w3.org/2000/svg">
<path d="M87.5951 14.7093V1H11.0078V71.3978H37.3853" fill="white"/>
<path d="M87.5951 14.7093V1H11.0078V71.3978H37.3853" stroke="#010101" stroke-width="2" stroke-miterlimit="10" stroke-linecap="round"/>
<path d="M75.8514 9.56128H11.5273" stroke="#010101" stroke-width="2" stroke-miterlimit="10" stroke-linecap="round"/>
<path d="M15.5209 6.32166C16.1279 6.32166 16.62 5.82959 16.62 5.2226C16.62 4.6156 16.1279 4.12354 15.5209 4.12354C14.9139 4.12354 14.4219 4.6156 14.4219 5.2226C14.4219 5.82959 14.9139 6.32166 15.5209 6.32166Z" fill="#010101"/>
<path d="M24.3686 6.32166C24.9756 6.32166 25.4677 5.82959 25.4677 5.2226C25.4677 4.6156 24.9756 4.12354 24.3686 4.12354C23.7616 4.12354 23.2695 4.6156 23.2695 5.2226C23.2695 5.82959 23.7616 6.32166 24.3686 6.32166Z" fill="#010101"/>
<path d="M20.0327 6.32166C20.6397 6.32166 21.1317 5.82959 21.1317 5.2226C21.1317 4.6156 20.6397 4.12354 20.0327 4.12354C19.4257 4.12354 18.9336 4.6156 18.9336 5.2226C18.9336 5.82959 19.4257 6.32166 20.0327 6.32166Z" fill="#010101"/>
<path d="M11.0072 9.50293H1V79.8429H32.063" stroke="#010101" stroke-width="2" stroke-miterlimit="10" stroke-linecap="round"/>
<path d="M10.774 18.0642H1.46094" stroke="#010101" stroke-width="2" stroke-miterlimit="10" stroke-linecap="round"/>
<path d="M5.86078 14.8253C6.46777 14.8253 6.95984 14.3333 6.95984 13.7263C6.95984 13.1193 6.46777 12.6272 5.86078 12.6272C5.25378 12.6272 4.76172 13.1193 4.76172 13.7263C4.76172 14.3333 5.25378 14.8253 5.86078 14.8253Z" fill="#010101"/>
<path d="M23.5011 23.7909C25.2901 23.7909 26.7404 22.3406 26.7404 20.5516C26.7404 18.7626 25.2901 17.3123 23.5011 17.3123C21.712 17.3123 20.2617 18.7626 20.2617 20.5516C20.2617 22.3406 21.712 23.7909 23.5011 23.7909Z" fill="#FFDA54"/>
<path d="M23.5011 35.5915C25.2901 35.5915 26.7404 34.1412 26.7404 32.3521C26.7404 30.5631 25.2901 29.1128 23.5011 29.1128C21.712 29.1128 20.2617 30.5631 20.2617 32.3521C20.2617 34.1412 21.712 35.5915 23.5011 35.5915Z" fill="#FFDA54"/>
<path d="M23.5011 47.3339C25.2901 47.3339 26.7404 45.8836 26.7404 44.0946C26.7404 42.3055 25.2901 40.8552 23.5011 40.8552C21.712 40.8552 20.2617 42.3055 20.2617 44.0946C20.2617 45.8836 21.712 47.3339 23.5011 47.3339Z" fill="#FFDA54"/>
<circle cx="68.0321" cy="48.7738" r="32.2196" fill="white"/>
<path d="M77.0627 40.1872L71.9402 35.045C71.6705 34.7744 71.2661 34.7744 70.9965 35.045L68.0309 38.0221L65.0652 35.045C64.7956 34.7744 64.3912 34.7744 64.1216 35.045L58.9991 40.1872C58.7295 40.4579 58.7295 40.8638 58.9991 41.1345L67.4917 49.6597C67.7613 49.9304 68.1657 49.9304 68.4353 49.6597L73.5578 44.5175L77.0627 40.9992C77.3323 40.8638 77.3323 40.4579 77.0627 40.1872Z" fill="#FFDA54"/>
<path d="M54.6211 56.8398H81.4461" stroke="black" stroke-width="2" stroke-linecap="round" stroke-linejoin="round"/>
<path d="M54.6211 61.3184H81.4461" stroke="black" stroke-width="2" stroke-linecap="round" stroke-linejoin="round"/>
<path d="M54.6211 65.7966H81.4461" stroke="black" stroke-width="2" stroke-linecap="round" stroke-linejoin="round"/>
<path d="M92.683 68.9102C86.8407 76.2565 77.8168 80.9998 67.6938 80.9998C50.1089 80.9998 35.8789 66.7699 35.8789 49.1849C35.8789 45.9456 36.3417 42.7641 37.2672 39.814" stroke="#010101" stroke-width="2" stroke-miterlimit="10" stroke-linecap="round"/>
<path d="M42.1289 30.328C47.9134 22.5189 57.2265 17.4285 67.6965 17.4285C85.2815 17.4285 99.5115 31.6584 99.5115 49.2434C99.5115 56.7055 96.9663 63.5312 92.6857 68.9687" stroke="#010101" stroke-width="2" stroke-miterlimit="10" stroke-linecap="round"/>
</svg>
