<svg width="104" height="82" viewBox="0 0 104 82" fill="none" xmlns="http://www.w3.org/2000/svg">
<circle cx="66.3566" cy="31.2629" r="30.2629" fill="white"/>
<path d="M89.5145 50.1758C84.0269 57.076 75.5511 61.5313 66.0429 61.5313C49.5259 61.5313 36.1602 48.1655 36.1602 31.6485C36.1602 28.6059 36.5948 25.6176 37.4641 22.8467" stroke="#010101" stroke-width="2" stroke-miterlimit="10" stroke-linecap="round"/>
<path d="M42.0273 13.9374C47.4606 6.60253 56.2081 1.82129 66.0422 1.82129C82.5593 1.82129 95.925 15.187 95.925 31.7041C95.925 38.7129 93.5344 45.1241 89.5138 50.2314" stroke="#010101" stroke-width="2" stroke-miterlimit="10" stroke-linecap="round"/>
<path d="M101.616 52.4897L85.7695 50.0562L90.6608 37.4265L101.616 52.4897Z" fill="white"/>
<path d="M101.616 52.4897L85.7695 50.0562L90.6608 37.4265L101.616 52.4897Z" fill="white"/>
<path d="M88.686 51.1611L101.615 52.4888L94.3635 41.4586" stroke="#010101" stroke-width="2.2" stroke-linecap="round" stroke-linejoin="round"/>
<path d="M67.4635 34.005C67.2938 34.005 67.158 33.9541 67.0562 33.8522C66.9543 33.7504 66.9034 33.6146 66.9034 33.4449V32.2229C66.9034 31.5271 67.0222 30.8991 67.2598 30.339C67.4974 29.779 67.786 29.2952 68.1254 28.8879C68.4648 28.4636 68.9146 27.9629 69.4747 27.3859C70.1705 26.6561 70.6712 26.0621 70.9767 25.6038C71.2992 25.1286 71.4604 24.594 71.4604 24C71.4604 23.1005 71.0785 22.3877 70.3148 21.8615C69.551 21.3184 68.6685 21.0469 67.6672 21.0469C66.5979 21.0469 65.7069 21.3269 64.9941 21.887C64.2812 22.4471 63.823 23.3466 63.6193 24.5855C63.5515 24.9589 63.3478 25.1456 63.0084 25.1456H62.601C62.4483 25.1456 62.321 25.1032 62.2192 25.0183C62.1173 24.9165 62.0664 24.7892 62.0664 24.6364C62.0834 23.703 62.338 22.8544 62.8301 22.0907C63.3223 21.3099 63.9842 20.6989 64.8159 20.2577C65.6645 19.7994 66.6149 19.5703 67.6672 19.5703C68.8043 19.5703 69.7717 19.774 70.5694 20.1813C71.384 20.5886 71.9865 21.1317 72.3769 21.8106C72.7842 22.4895 72.9879 23.2193 72.9879 24C72.9879 24.8825 72.7842 25.6463 72.3769 26.2912C71.9695 26.9361 71.367 27.6744 70.5694 28.5061C69.8565 29.2528 69.3219 29.8893 68.9655 30.4154C68.6261 30.9415 68.4564 31.544 68.4564 32.2229V33.4449C68.4564 33.6146 68.4054 33.7504 68.3036 33.8522C68.2018 33.9541 68.066 34.005 67.8963 34.005H67.4635ZM67.158 37.6455C66.9883 37.6455 66.8525 37.5945 66.7507 37.4927C66.6488 37.3909 66.5979 37.2551 66.5979 37.0854V36.118C66.5979 35.9483 66.6488 35.8125 66.7507 35.7107C66.8525 35.5918 66.9883 35.5324 67.158 35.5324H68.1254C68.2951 35.5324 68.4309 35.5918 68.5327 35.7107C68.6515 35.8125 68.7109 35.9483 68.7109 36.118V37.0854C68.7109 37.2551 68.6515 37.3909 68.5327 37.4927C68.4309 37.5945 68.2951 37.6455 68.1254 37.6455H67.158Z" fill="black"/>
<circle r="30.2629" transform="matrix(-1 0 0 1 37.2605 50.7316)" fill="white"/>
<path d="M29.2537 41.2139L34.0651 36.384C34.3183 36.1298 34.6982 36.1298 34.9514 36.384L37.7369 39.1803L40.5225 36.384C40.7757 36.1298 41.1556 36.1298 41.4088 36.384L46.2202 41.2139C46.4735 41.4681 46.4735 41.8494 46.2202 42.1036L38.2434 50.1111C37.9902 50.3653 37.6103 50.3653 37.3571 50.1111L32.5457 45.2812L29.2537 41.9765C29.0004 41.8494 29.0004 41.4681 29.2537 41.2139Z" fill="#FFDA54"/>
<path d="M50.332 56.8555H25.1361" stroke="black" stroke-width="2" stroke-linecap="round" stroke-linejoin="round"/>
<path d="M50.332 61.0615H25.1361" stroke="black" stroke-width="2" stroke-linecap="round" stroke-linejoin="round"/>
<path d="M50.332 65.2686H25.1361" stroke="black" stroke-width="2" stroke-linecap="round" stroke-linejoin="round"/>
<path d="M14.1027 69.6446C19.5903 76.5448 28.0661 81 37.5743 81C54.0913 81 67.457 67.6343 67.457 51.1173C67.457 48.0747 67.0224 45.0864 66.1531 42.3154" stroke="#010101" stroke-width="2" stroke-miterlimit="10" stroke-linecap="round"/>
<path d="M61.5898 33.4052C56.1566 26.0703 47.4091 21.2891 37.575 21.2891C21.0579 21.2891 7.69218 34.6548 7.69218 51.1718C7.69218 58.1807 10.0828 64.5919 14.1034 69.6992" stroke="#010101" stroke-width="2" stroke-miterlimit="10" stroke-linecap="round"/>
<path d="M2.0016 71.9575L17.8476 69.524L12.9563 56.8943L2.0016 71.9575Z" fill="white"/>
<path d="M2.0016 71.9575L17.8476 69.524L12.9563 56.8943L2.0016 71.9575Z" fill="white"/>
<path d="M14.9312 70.6298L2.00229 71.9575L9.25373 60.9273" stroke="#010101" stroke-width="2.2" stroke-linecap="round" stroke-linejoin="round"/>
</svg>
