<svg width="146" height="143" viewBox="0 0 146 143" fill="none" xmlns="http://www.w3.org/2000/svg">
<path d="M144.471 141.158C141.111 104.328 110.493 75.5039 73.0599 75.5039C35.7206 75.5039 5.00898 104.328 1.64844 141.158" stroke="#010101" stroke-width="2" stroke-miterlimit="10" stroke-linecap="round"/>
<path d="M124.983 141.158C122.54 114.379 100.277 93.4209 73.06 93.4209C45.9106 93.4209 23.5802 114.379 21.1367 141.158" fill="white"/>
<path d="M124.983 141.158C122.54 114.379 100.277 93.4209 73.06 93.4209C45.9106 93.4209 23.5802 114.379 21.1367 141.158" stroke="#010101" stroke-width="2" stroke-miterlimit="10" stroke-linecap="round"/>
<path fill-rule="evenodd" clip-rule="evenodd" d="M102.832 61.3284C107.642 55.0803 110.509 47.2164 110.509 38.673C110.509 18.3322 94.2589 1.84277 74.2135 1.84277C54.168 1.84277 37.918 18.3322 37.918 38.673C37.918 47.5638 41.0225 55.7188 46.1916 62.0826L74.2191 101.775L102.832 61.3284Z" fill="white"/>
<path d="M102.832 61.3284L102.039 60.7184L102.027 60.7344L102.015 60.7509L102.832 61.3284ZM46.1916 62.0826L47.0085 61.5058L46.9891 61.4783L46.9678 61.4522L46.1916 62.0826ZM74.2191 101.775L73.4022 102.352L74.2184 103.508L75.0355 102.353L74.2191 101.775ZM103.624 61.9385C108.565 55.5206 111.509 47.4435 111.509 38.673H109.509C109.509 46.9893 106.719 54.64 102.039 60.7184L103.624 61.9385ZM111.509 38.673C111.509 17.7938 94.8249 0.842773 74.2135 0.842773V2.84277C93.6929 2.84277 109.509 18.8707 109.509 38.673H111.509ZM74.2135 0.842773C53.602 0.842773 36.918 17.7938 36.918 38.673H38.918C38.918 18.8707 54.734 2.84277 74.2135 2.84277V0.842773ZM36.918 38.673C36.918 47.8003 40.1059 56.1764 45.4154 62.7131L46.9678 61.4522C41.9391 55.2611 38.918 47.3273 38.918 38.673H36.918ZM45.3747 62.6594L73.4022 102.352L75.036 101.199L47.0085 61.5058L45.3747 62.6594ZM75.0355 102.353L103.648 61.906L102.015 60.7509L73.4027 101.198L75.0355 102.353Z" fill="#010101"/>
<path d="M96.0744 38.6729C96.0744 50.6074 86.489 60.2668 74.6837 60.2668C62.8784 60.2668 53.293 50.6074 53.293 38.6729C53.293 26.7384 62.8784 17.0791 74.6837 17.0791C86.489 17.0791 96.0744 26.7384 96.0744 38.6729Z" fill="#FFDA54" stroke="black" stroke-width="2"/>
<path d="M74.6844 107.312C78.0697 107.312 80.8141 110.081 80.8141 113.497C80.8141 116.913 78.0697 119.683 74.6844 119.683C71.299 119.683 68.5547 116.913 68.5547 113.497C68.5547 110.081 71.299 107.312 74.6844 107.312Z" fill="#FFDA54"/>
</svg>
