<svg width="180" height="143" viewBox="0 0 180 143" fill="none" xmlns="http://www.w3.org/2000/svg">
<circle cx="115.844" cy="53.6083" r="53.3514" fill="white"/>
<path d="M156.666 86.9509C146.991 99.1155 132.049 106.97 115.287 106.97C86.1684 106.97 62.6055 83.4069 62.6055 54.2885C62.6055 48.9246 63.3717 43.6565 64.9043 38.7715" stroke="#010101" stroke-width="2" stroke-miterlimit="10" stroke-linecap="round"/>
<path d="M72.9492 23.064C82.5276 10.1331 97.9489 1.7041 115.286 1.7041C144.404 1.7041 167.967 25.267 167.967 54.3854C167.967 66.7416 163.753 78.0441 156.665 87.0478" stroke="#010101" stroke-width="2" stroke-miterlimit="10" stroke-linecap="round"/>
<path d="M178.001 91.0295L150.066 86.7394L158.689 64.4741L178.001 91.0295Z" fill="white"/>
<path d="M178.001 91.0295L150.066 86.7394L158.689 64.4741L178.001 91.0295Z" fill="white"/>
<path d="M155.21 88.6877L178.003 91.0284L165.219 71.5829" stroke="#010101" stroke-width="2.2" stroke-linecap="round" stroke-linejoin="round"/>
<path d="M117.788 58.4424C117.489 58.4424 117.25 58.3527 117.07 58.1732C116.891 57.9936 116.801 57.7543 116.801 57.4551V55.3008C116.801 54.0741 117.01 52.967 117.429 51.9796C117.848 50.9923 118.357 50.1395 118.955 49.4214C119.553 48.6734 120.346 47.7908 121.334 46.7735C122.56 45.4869 123.443 44.4397 123.982 43.6318C124.55 42.7941 124.834 41.8516 124.834 40.8044C124.834 39.2186 124.161 37.9619 122.815 37.0344C121.468 36.0769 119.912 35.5982 118.147 35.5982C116.262 35.5982 114.691 36.0919 113.435 37.0793C112.178 38.0666 111.37 39.6524 111.011 41.8366C110.891 42.4949 110.532 42.824 109.934 42.824H109.216C108.947 42.824 108.722 42.7492 108.543 42.5996C108.363 42.4201 108.273 42.1957 108.273 41.9264C108.303 40.2807 108.752 38.7847 109.62 37.4383C110.488 36.062 111.654 34.9848 113.121 34.2069C114.617 33.399 116.292 32.9951 118.147 32.9951C120.152 32.9951 121.857 33.3542 123.264 34.0723C124.7 34.7903 125.762 35.7478 126.45 36.9446C127.168 38.1414 127.527 39.428 127.527 40.8044C127.527 42.3602 127.168 43.7066 126.45 44.8436C125.732 45.9806 124.67 47.2821 123.264 48.7482C122.007 50.0647 121.064 51.1867 120.436 52.1143C119.838 53.0418 119.538 54.104 119.538 55.3008V57.4551C119.538 57.7543 119.449 57.9936 119.269 58.1732C119.09 58.3527 118.85 58.4424 118.551 58.4424H117.788ZM117.25 64.8604C116.95 64.8604 116.711 64.7706 116.531 64.5911C116.352 64.4116 116.262 64.1722 116.262 63.873V62.1675C116.262 61.8683 116.352 61.629 116.531 61.4494C116.711 61.24 116.95 61.1353 117.25 61.1353H118.955C119.254 61.1353 119.494 61.24 119.673 61.4494C119.883 61.629 119.987 61.8683 119.987 62.1675V63.873C119.987 64.1722 119.883 64.4116 119.673 64.5911C119.494 64.7706 119.254 64.8604 118.955 64.8604H117.25Z" fill="black"/>
<circle r="53.3514" transform="matrix(-1 0 0 1 64.547 87.9296)" fill="white"/>
<path d="M50.4262 71.1517L58.9083 62.6369C59.3548 62.1887 60.0244 62.1887 60.4709 62.6369L65.3816 67.5665L70.2923 62.6369C70.7388 62.1887 71.4084 62.1887 71.8549 62.6369L80.3371 71.1517C80.7835 71.5999 80.7835 72.2721 80.3371 72.7202L66.2745 86.8369C65.828 87.285 65.1584 87.285 64.712 86.8369L56.2298 78.3221L50.4262 72.4961C49.9797 72.2721 49.9797 71.5999 50.4262 71.1517Z" fill="#FFDA54"/>
<path d="M87.5938 98.7266H43.1751" stroke="black" stroke-width="2" stroke-linecap="round" stroke-linejoin="round"/>
<path d="M87.5938 106.142H43.1751" stroke="black" stroke-width="2" stroke-linecap="round" stroke-linejoin="round"/>
<path d="M87.5938 113.558H43.1751" stroke="black" stroke-width="2" stroke-linecap="round" stroke-linejoin="round"/>
<path d="M23.7251 121.272C33.3993 133.437 48.3416 141.291 65.1038 141.291C94.2222 141.291 117.785 117.728 117.785 88.6098C117.785 83.2459 117.019 77.9778 115.486 73.0928" stroke="#010101" stroke-width="2" stroke-miterlimit="10" stroke-linecap="round"/>
<path d="M107.441 57.3853C97.863 44.4544 82.4417 36.0254 65.1048 36.0254C35.9864 36.0254 12.4235 59.5883 12.4235 88.7067C12.4235 101.063 16.638 112.365 23.726 121.369" stroke="#010101" stroke-width="2" stroke-miterlimit="10" stroke-linecap="round"/>
<path d="M2.38914 125.351L30.3246 121.061L21.7016 98.7954L2.38914 125.351Z" fill="white"/>
<path d="M2.38914 125.351L30.3246 121.061L21.7016 98.7954L2.38914 125.351Z" fill="white"/>
<path d="M25.1808 123.009L2.38804 125.35L15.1718 105.904" stroke="#010101" stroke-width="2.2" stroke-linecap="round" stroke-linejoin="round"/>
</svg>
