<svg width="25" height="26" viewBox="0 0 25 26" fill="none" xmlns="http://www.w3.org/2000/svg">
<path fill-rule="evenodd" clip-rule="evenodd" d="M7.5 6.21973H14.375V8.71973H16.875C18.2557 8.71973 19.375 9.83901 19.375 11.2197V17.4697C19.375 18.8504 18.2557 19.9697 16.875 19.9697H13.625C13.3074 19.9697 13.05 19.6899 13.05 19.3447C13.05 18.9995 13.3074 18.7197 13.625 18.7197H16.875C17.5654 18.7197 18.125 18.1601 18.125 17.4697V11.2197C18.125 10.5294 17.5654 9.96973 16.875 9.96973H6.25V17.4697C6.25 18.1601 6.80964 18.7197 7.5 18.7197H8.45001C8.76756 18.7197 9.02498 18.9996 9.02498 19.3447C9.02498 19.6899 8.76753 19.9697 8.44998 19.9697H7.5C6.11929 19.9697 5 18.8504 5 17.4697V8.71973C5 7.33901 6.11929 6.21973 7.5 6.21973ZM6.25 8.71973C6.25 8.02937 6.80964 7.46973 7.5 7.46973H13.125V8.71973H6.25ZM11 15.4447C11.359 15.4447 11.65 15.7357 11.65 16.0947V21.9447H17.2592L16.9546 21.6401C16.7008 21.3863 16.7008 20.9747 16.9546 20.7209C17.2084 20.4671 17.62 20.4671 17.8738 20.7209L19.288 22.1351C19.5419 22.389 19.5419 22.8005 19.288 23.0544L17.8738 24.4686C17.62 24.7224 17.2084 24.7224 16.9546 24.4686C16.7008 24.2147 16.7008 23.8032 16.9546 23.5493L17.2592 23.2447H11C10.641 23.2447 10.35 22.9537 10.35 22.5947V16.0947C10.35 15.7357 10.641 15.4447 11 15.4447Z" fill="#1D2431"/>
</svg>
