<svg width="32" height="29" viewBox="0 0 32 29" fill="none" xmlns="http://www.w3.org/2000/svg">
<path fill-rule="evenodd" clip-rule="evenodd" d="M9.60089 0.194336H22.4009C23.7264 0.194336 24.8009 1.26885 24.8009 2.59434V26.5943C24.8009 27.9198 23.7264 28.9943 22.4009 28.9943H9.60089C8.27541 28.9943 7.20089 27.9198 7.20089 26.5943V2.59434C7.20089 1.26885 8.27541 0.194336 9.60089 0.194336ZM9.60078 2.59445C9.15895 2.59445 8.80078 2.95262 8.80078 3.39445V24.1944C8.80078 24.6363 9.15895 24.9944 9.60078 24.9944H22.4008C22.8426 24.9944 23.2008 24.6363 23.2008 24.1944V3.39445C23.2008 2.95262 22.8426 2.59445 22.4008 2.59445H9.60078ZM11.2007 9.79422H20.8007C21.2425 9.79422 21.6007 10.1524 21.6007 10.5942V16.9942C21.6007 17.4361 21.2425 17.7942 20.8007 17.7942H11.2007C10.7588 17.7942 10.4007 17.4361 10.4007 16.9942V10.5942C10.4007 10.1524 10.7588 9.79422 11.2007 9.79422ZM12.8008 12.1943C12.359 12.1943 12.0008 12.5525 12.0008 12.9943C12.0008 13.4362 12.359 13.7943 12.8008 13.7943H13.6008C14.0427 13.7943 14.4008 13.4362 14.4008 12.9943C14.4008 12.5525 14.0427 12.1943 13.6008 12.1943H12.8008ZM12.8008 14.5944C12.359 14.5944 12.0008 14.9526 12.0008 15.3944C12.0008 15.8363 12.359 16.1944 12.8008 16.1944H17.6008C18.0427 16.1944 18.4008 15.8363 18.4008 15.3944C18.4008 14.9526 18.0427 14.5944 17.6008 14.5944H12.8008ZM14.8007 26.5944C14.5798 26.5944 14.4007 26.7735 14.4007 26.9944V27.7944C14.4007 28.0154 14.5798 28.1944 14.8007 28.1944H17.2007C17.4216 28.1944 17.6007 28.0154 17.6007 27.7944V26.9944C17.6007 26.7735 17.4216 26.5944 17.2007 26.5944H14.8007ZM4.80084 11.3944C5.24266 11.3944 5.60084 11.7526 5.60084 12.1944V16.9944C5.60084 17.4362 5.24266 17.7944 4.80084 17.7944C4.35901 17.7944 4.00084 17.4362 4.00084 16.9944V12.1944C4.00084 11.7526 4.35901 11.3944 4.80084 11.3944ZM27.2007 11.3944C27.6425 11.3944 28.0007 11.7526 28.0007 12.1944V16.9944C28.0007 17.4362 27.6425 17.7944 27.2007 17.7944C26.7588 17.7944 26.4007 17.4362 26.4007 16.9944V12.1944C26.4007 11.7526 26.7588 11.3944 27.2007 11.3944ZM1.60078 8.99428C2.04261 8.99428 2.40078 9.35245 2.40078 9.79428V19.3943C2.40078 19.8361 2.04261 20.1943 1.60078 20.1943C1.15895 20.1943 0.800781 19.8361 0.800781 19.3943V9.79428C0.800781 9.35245 1.15895 8.99428 1.60078 8.99428ZM30.4007 8.99428C30.8426 8.99428 31.2007 9.35245 31.2007 9.79428V19.3943C31.2007 19.8361 30.8426 20.1943 30.4007 20.1943C29.9589 20.1943 29.6007 19.8361 29.6007 19.3943V9.79428C29.6007 9.35245 29.9589 8.99428 30.4007 8.99428Z" fill="#FFDE52"/>
</svg>
