<svg width="25" height="32" viewBox="0 0 25 32" fill="none" xmlns="http://www.w3.org/2000/svg">
<path fill-rule="evenodd" clip-rule="evenodd" d="M17.1986 13.5487L17.1738 20.815L3.70736 29.9891L20.7664 24.4262V13.5487H24.2472V31.8228H3.04129C1.78238 31.8228 0.751953 30.7924 0.751953 29.5333L0.75229 16.0852C0.75229 14.3317 0.899269 13.2189 4.53073 10.5081C7.53722 8.26389 17.1738 0.594727 17.1738 0.594727L17.1986 13.5487ZM11.02 13.0134C10.2328 13.9516 10.1063 15.1417 10.7379 15.6716C11.3693 16.2016 12.5198 15.8707 13.3068 14.9324C14.0943 13.9941 14.2205 12.8036 13.5891 12.2737C12.9576 11.7437 11.8075 12.075 11.02 13.0134Z" fill="#FFDE52"/>
</svg>
