<svg width="27" height="26" viewBox="0 0 27 26" fill="none" xmlns="http://www.w3.org/2000/svg">
<path fill-rule="evenodd" clip-rule="evenodd" d="M8.38696 8.3063L20.2559 1.56251C19.7567 1.28837 19.2575 1.01423 18.7029 0.794922L8.44242 6.66148L3.83906 4.08458C3.62487 4.29632 3.43366 4.53077 3.23585 4.77332C3.12633 4.9076 3.01479 5.04437 2.89621 5.18113L8.38696 8.3063ZM22.7517 3.42663L8.38701 11.5959L1.45424 7.64836L1.45425 7.64834C1.67609 7.20973 1.89794 6.77111 2.11979 6.38732L8.44248 9.95111L21.587 2.43973C21.7164 2.54939 21.8458 2.65295 21.9753 2.75651C22.2341 2.96364 22.4929 3.17077 22.7517 3.42663ZM8.4979 14.8856L24.6374 5.67454L23.8055 4.52316L8.44244 13.2407L1.01051 9.01902C0.844121 9.51247 0.733197 9.95109 0.677734 10.4445L8.4979 14.8856ZM25.3584 6.93555L8.44241 16.5304L0.455853 11.9797C0.400391 12.2538 0.400391 12.5828 0.400391 12.8569C0.400391 20.0393 6.27938 25.9059 13.6004 25.9059C20.8659 25.9059 26.8004 20.0942 26.8004 12.8569C26.8004 10.7187 26.3012 8.69003 25.3584 6.93555Z" fill="#FFDE52"/>
</svg>
