<svg width="32" height="33" viewBox="0 0 32 33" fill="none" xmlns="http://www.w3.org/2000/svg">
<path fill-rule="evenodd" clip-rule="evenodd" d="M22.3592 28.8336C25.117 28.8336 28.1094 29.7827 31.4213 32.728C31.7531 33.023 32.1947 32.6565 31.9053 32.2899C28.6505 28.1653 25.6401 27.38 22.6378 26.7159C18.9657 25.9038 17.0768 23.83 15.7603 21.5528C15.4983 21.0998 15.3808 21.1797 15.3574 21.762C15.3285 22.4742 15.3774 23.4166 15.5361 24.3439C15.3881 24.3508 15.239 24.3489 15.0893 24.3489C9.83561 24.3489 5.57663 20.0745 5.57663 14.8014C5.57663 9.52838 9.83561 5.25374 15.0893 5.25374C20.3429 5.25374 24.6019 9.52838 24.6019 14.8014C24.6019 15.1766 24.5837 15.5474 24.5416 15.9113C23.8467 15.7856 22.4798 15.7713 21.5206 15.8546C21.1597 15.8859 21.2105 16.0546 21.4834 16.1041C24.6278 16.6745 26.7883 18.6304 27.2821 22.1798C27.2934 22.2612 27.3999 22.2858 27.4421 22.2153C28.736 20.048 29.4793 17.5117 29.4793 14.8014C29.4793 6.82481 23.0368 0.358398 15.0893 0.358398C7.14194 0.358398 0.699219 6.82481 0.699219 14.8014C0.699219 22.7781 7.14194 29.2451 15.0893 29.2451C17.1978 29.2451 19.2894 28.8336 22.3592 28.8336ZM23.4304 23.5898C24.0704 24.1331 24.2652 24.779 23.9265 25.2345C23.7382 25.4842 23.4329 25.6221 23.0673 25.6221C22.7081 25.6221 22.342 25.4886 22.088 25.266C21.5059 24.7557 21.3349 23.9276 21.715 23.4574C21.8634 23.2736 22.1047 23.1722 22.3939 23.1722C22.7455 23.1722 23.1135 23.3208 23.4304 23.5898ZM26.3842 22.21C26.4783 22.8431 26.279 23.1051 26.079 23.1051C25.8607 23.1051 25.5866 22.8485 25.2632 22.3424C24.9441 21.8425 24.8275 21.2693 24.9855 20.9795C25.09 20.7877 25.3087 20.7044 25.5845 20.8091C26.1185 21.0116 26.3282 21.8321 26.3842 22.21Z" fill="#FFDE52"/>
</svg>
