<svg width="50" height="50" viewBox="0 0 50 50" fill="none" xmlns="http://www.w3.org/2000/svg">
<path d="M33.2031 29.1562C31.5824 29.1562 30.1423 29.9439 29.245 31.1562L21.5192 27.2081C21.6489 26.7677 21.7188 26.3021 21.7188 25.8203C21.7188 25.1678 21.5908 24.5448 21.3592 23.9744L29.4563 19.1096C30.3597 20.1699 31.7041 20.8438 33.2031 20.8438C35.917 20.8438 38.125 18.6358 38.125 15.9219C38.125 13.208 35.917 11 33.2031 11C30.4892 11 28.2812 13.208 28.2812 15.9219C28.2812 16.5491 28.3994 17.1492 28.6143 17.7014L20.497 22.5784C19.5943 21.5493 18.2702 20.8984 16.7969 20.8984C14.083 20.8984 11.875 23.1064 11.875 25.8203C11.875 28.5342 14.083 30.7422 16.7969 30.7422C18.4442 30.7422 19.9049 29.9287 20.7987 28.6823L28.502 32.619C28.3586 33.0802 28.2812 33.5703 28.2812 34.0781C28.2812 36.792 30.4892 39 33.2031 39C35.917 39 38.125 36.792 38.125 34.0781C38.125 31.3642 35.917 29.1562 33.2031 29.1562ZM33.2031 12.6406C35.0124 12.6406 36.4844 14.1126 36.4844 15.9219C36.4844 17.7312 35.0124 19.2031 33.2031 19.2031C31.3938 19.2031 29.9219 17.7312 29.9219 15.9219C29.9219 14.1126 31.3938 12.6406 33.2031 12.6406ZM16.7969 29.1016C14.9876 29.1016 13.5156 27.6296 13.5156 25.8203C13.5156 24.011 14.9876 22.5391 16.7969 22.5391C18.6062 22.5391 20.0781 24.011 20.0781 25.8203C20.0781 27.6296 18.6062 29.1016 16.7969 29.1016ZM33.2031 37.3594C31.3938 37.3594 29.9219 35.8874 29.9219 34.0781C29.9219 32.2688 31.3938 30.7969 33.2031 30.7969C35.0124 30.7969 36.4844 32.2688 36.4844 34.0781C36.4844 35.8874 35.0124 37.3594 33.2031 37.3594Z" fill="#474D62"/>
</svg>
