<svg width="50" height="50" viewBox="0 0 50 50" fill="none" xmlns="http://www.w3.org/2000/svg">
<path fill-rule="evenodd" clip-rule="evenodd" d="M25 45C36.0457 45 45 36.0457 45 25C45 13.9543 36.0457 5 25 5C13.9543 5 5 13.9543 5 25C5 36.0457 13.9543 45 25 45ZM33.4012 19.8482C34.3101 19.7318 35.1819 19.4923 36 19.1309C35.3867 20.0503 34.6346 20.8492 33.7395 21.4889C33.7491 21.6814 33.756 21.8752 33.756 22.076C33.756 28.0769 29.2185 35 20.919 35C18.3656 35 15.9979 34.2592 14 32.9618C14.3547 33.0075 14.7095 33.0242 15.0794 33.0242C17.1886 33.0242 19.137 32.2958 20.6715 31.0871C18.6997 31.0442 17.0415 29.7218 16.4571 27.9232C16.7308 27.9842 17.0223 28.0008 17.311 28.0008C17.7262 28.0008 18.1264 27.9523 18.4935 27.8512C16.4434 27.4289 14.88 25.5957 14.88 23.3886V23.3388C15.4823 23.6725 16.1931 23.8843 16.9178 23.8982C15.7188 23.0909 14.9144 21.6966 14.9144 20.1237C14.9144 19.286 15.1426 18.5078 15.5317 17.828C17.7606 20.5848 21.0785 22.3945 24.8281 22.5786C24.7539 22.2491 24.7236 21.9029 24.7236 21.5429C24.7236 19.0409 26.7339 17 29.2309 17C30.5179 17 31.6976 17.5497 32.5254 18.4372C33.5511 18.2309 34.5136 17.8612 35.3854 17.3378C35.0499 18.4026 34.3363 19.286 33.4012 19.8482Z" fill="#0ACCEE"/>
</svg>
