<svg width="50" height="50" viewBox="0 0 50 50" fill="none" xmlns="http://www.w3.org/2000/svg">
<path fill-rule="evenodd" clip-rule="evenodd" d="M25 45C36.0457 45 45 36.0457 45 25C45 13.9543 36.0457 5 25 5C13.9543 5 5 13.9543 5 25C5 36.0457 13.9543 45 25 45ZM31.7392 18.5842C31.7392 22.2089 28.7097 25.1532 24.9995 25.1532C21.2883 25.1532 18.2587 22.2089 18.2587 18.5842C18.2587 14.9444 21.2883 12 24.9995 12C28.7097 12 31.7392 14.9444 31.7392 18.5842ZM28.3096 18.5842C28.3096 16.7881 26.8226 15.3354 24.9995 15.3354C23.1754 15.3354 21.6883 16.787 21.6894 18.5842C21.6894 20.3651 23.1764 21.8178 24.9995 21.8178C26.8226 21.8178 28.3096 20.3651 28.3096 18.5842ZM19.0183 28.9491C17.3243 27.8831 16.5818 27.2591 17.2357 25.9538C17.6208 25.2128 18.6748 24.5878 20.0722 25.6645C20.0722 25.6645 21.9582 27.1324 25.0027 27.1324C28.0461 27.1324 29.9332 25.6645 29.9332 25.6645C31.3307 24.5932 32.3803 25.2128 32.7697 25.9538C33.414 27.2591 32.6716 27.882 30.9776 28.9534L30.9786 28.9545C29.5556 29.8384 27.596 30.1883 26.302 30.3205L27.388 31.367L31.3531 35.2408C32.8028 36.6924 30.4442 38.9619 28.9785 37.5601C28.0025 36.5914 26.5785 35.2001 25.0872 33.7433L25.0134 33.6711L21.0483 37.5547C19.5836 38.951 17.224 36.6621 18.6897 35.2354C18.9713 34.96 19.2868 34.6505 19.6284 34.3153L19.6325 34.3113L19.6331 34.3107C20.512 33.4484 21.5633 32.417 22.6548 31.3615L23.7258 30.3151C22.4479 30.1829 20.4584 29.8525 19.0183 28.9491Z" fill="#ED812B"/>
</svg>
