<svg width="50" height="50" viewBox="0 0 50 50" fill="none" xmlns="http://www.w3.org/2000/svg">
<path fill-rule="evenodd" clip-rule="evenodd" d="M25 45C36.0457 45 45 36.0457 45 25C45 13.9543 36.0457 5 25 5C13.9543 5 5 13.9543 5 25C5 36.0457 13.9543 45 25 45ZM34.6536 19C35.4409 19 35.5984 19.3975 35.4409 19.9495C35.1729 21.2275 32.8027 24.617 32.1167 25.598C31.9967 25.7696 31.9282 25.8675 31.9315 25.8675C31.6616 26.3091 31.5491 26.53 31.9315 27.0158C32.0649 27.2013 32.3577 27.4839 32.6929 27.8075C33.0362 28.1388 33.424 28.5132 33.7312 28.8707C34.856 30.1293 35.6884 31.1672 35.9358 31.8959C36.1608 32.6246 35.7784 33 35.036 33H32.404C31.6949 33 31.339 32.61 30.5788 31.7769C30.2536 31.4206 29.8544 30.9832 29.322 30.4606C27.7698 29.0032 27.0949 28.8044 26.7124 28.8044C26.1725 28.8044 26.0151 28.959 26.0151 29.6877V31.9842C26.0151 32.6025 25.8126 32.9779 24.1479 32.9779C21.3584 32.9779 18.2989 31.3218 16.1393 28.2744C12.8998 23.7918 12 20.4132 12 19.7287C12 19.3533 12.1575 19 12.8998 19H15.5319C16.2068 19 16.4542 19.2871 16.6792 20.0379C17.9615 23.7035 20.1211 26.9054 21.0209 26.9054C21.3584 26.9054 21.5158 26.7508 21.5158 25.9117V22.1136C21.4601 21.0335 21.0767 20.5629 20.7928 20.2143C20.6181 19.9999 20.481 19.8317 20.481 19.5962C20.481 19.3091 20.7285 19 21.1559 19H25.2952C25.8351 19 26.0376 19.2871 26.0376 19.9495V25.0726C26.0376 25.6025 26.285 25.8013 26.4425 25.8013C26.7799 25.8013 27.0499 25.6025 27.6573 25.0063C29.547 22.9306 30.8742 19.7287 30.8742 19.7287C31.0542 19.3533 31.3466 19 32.0215 19H34.6536Z" fill="#4D7198"/>
</svg>
