<svg width="235" height="36" viewBox="0 0 235 36" fill="none" xmlns="http://www.w3.org/2000/svg">
<path d="M17.5 0.779297L23.6717 9.78462L34.1435 12.8715L27.4861 21.524L27.7862 32.4371L17.5 28.7793L7.21376 32.4371L7.51391 21.524L0.85651 12.8715L11.3283 9.78462L17.5 0.779297Z" fill="#FFDE52"/>
<path d="M67.5 0.779297L73.6717 9.78462L84.1435 12.8715L77.4861 21.524L77.7862 32.4371L67.5 28.7793L57.2138 32.4371L57.5139 21.524L50.8565 12.8715L61.3283 9.78462L67.5 0.779297Z" fill="#FFDE52"/>
<path d="M117.5 0.779297L123.672 9.78462L134.143 12.8715L127.486 21.524L127.786 32.4371L117.5 28.7793L107.214 32.4371L107.514 21.524L100.857 12.8715L111.328 9.78462L117.5 0.779297Z" fill="#FFDE52"/>
<path d="M167.5 0.779297L173.672 9.78462L184.143 12.8715L177.486 21.524L177.786 32.4371L167.5 28.7793L157.214 32.4371L157.514 21.524L150.857 12.8715L161.328 9.78462L167.5 0.779297Z" fill="#FFDE52"/>
<path d="M217.5 0.779297L223.672 9.78462L234.143 12.8715L227.486 21.524L227.786 32.4371L217.5 28.7793L207.214 32.4371L207.514 21.524L200.857 12.8715L211.328 9.78462L217.5 0.779297Z" fill="#FFDE52"/>
</svg>
