<svg width="31" height="31" viewBox="0 0 31 31" fill="none" xmlns="http://www.w3.org/2000/svg">
<path fill-rule="evenodd" clip-rule="evenodd" d="M15.5 27.5674C22.1274 27.5674 27.5 22.1948 27.5 15.5674C27.5 8.93997 22.1274 3.56738 15.5 3.56738C8.87258 3.56738 3.5 8.93997 3.5 15.5674C3.5 22.1948 8.87258 27.5674 15.5 27.5674ZM20.5392 12.4765C21.0845 12.4067 21.6076 12.263 22.0984 12.0461C21.7305 12.5978 21.2792 13.0771 20.7421 13.4609C20.7479 13.5764 20.752 13.6927 20.752 13.8132C20.752 17.4137 18.0295 21.5676 13.0498 21.5676C11.5178 21.5676 10.0972 21.1231 8.89844 20.3447C9.11129 20.3721 9.32414 20.3821 9.54606 20.3821C10.8116 20.3821 11.9806 19.9451 12.9013 19.2198C11.7183 19.1941 10.7233 18.4007 10.3727 17.3215C10.5369 17.3581 10.7118 17.368 10.885 17.368C11.1342 17.368 11.3743 17.339 11.5945 17.2783C10.3645 17.0249 9.42644 15.925 9.42644 14.6007V14.5708C9.78779 14.7711 10.2143 14.8982 10.6491 14.9065C9.92969 14.4221 9.44706 13.5855 9.44706 12.6418C9.44706 12.1392 9.58401 11.6723 9.81749 11.2644C11.1548 12.9184 13.1455 14.0043 15.3953 14.1147C15.3508 13.917 15.3326 13.7093 15.3326 13.4933C15.3326 11.9921 16.5388 10.7676 18.037 10.7676C18.8092 10.7676 19.517 11.0974 20.0137 11.6299C20.6291 11.5061 21.2066 11.2843 21.7297 10.9703C21.5284 11.6091 21.1002 12.1392 20.5392 12.4765Z" fill="#FFDE52"/>
</svg>
