<svg width="30" height="30" viewBox="0 0 30 30" fill="none" xmlns="http://www.w3.org/2000/svg">
<path fill-rule="evenodd" clip-rule="evenodd" d="M15 27C21.6274 27 27 21.6274 27 15C27 8.37258 21.6274 3 15 3C8.37258 3 3 8.37258 3 15C3 21.6274 8.37258 27 15 27ZM20.7916 11.4004C21.2641 11.4004 21.3585 11.6389 21.2641 11.9701C21.1032 12.7369 19.6811 14.7706 19.2695 15.3592C19.1975 15.4622 19.1564 15.5209 19.1584 15.5209C18.9964 15.7859 18.929 15.9184 19.1584 16.2098C19.2385 16.3212 19.4141 16.4907 19.6153 16.6849C19.8212 16.8837 20.0539 17.1083 20.2382 17.3228C20.9131 18.078 21.4125 18.7007 21.561 19.1379C21.696 19.5751 21.4665 19.8004 21.0211 19.8004H19.4419C19.0164 19.8004 18.8029 19.5664 18.3468 19.0666C18.1517 18.8527 17.9122 18.5903 17.5927 18.2767C16.6614 17.4023 16.2564 17.283 16.027 17.283C15.703 17.283 15.6085 17.3758 15.6085 17.813V19.1909C15.6085 19.5619 15.4871 19.7871 14.4882 19.7871C12.8145 19.7871 10.9788 18.7934 9.68307 16.9651C7.7394 14.2755 7.1995 12.2483 7.1995 11.8376C7.1995 11.6124 7.29398 11.4004 7.7394 11.4004H9.31863C9.72356 11.4004 9.87203 11.5726 10.007 12.0231C10.7764 14.2225 12.0722 16.1436 12.6121 16.1436C12.8145 16.1436 12.909 16.0509 12.909 15.5474V13.2685C12.8756 12.6205 12.6455 12.3381 12.4752 12.129C12.3703 12.0003 12.2881 11.8994 12.2881 11.7581C12.2881 11.5859 12.4366 11.4004 12.693 11.4004H15.1766C15.5006 11.4004 15.622 11.5726 15.622 11.9701V15.0439C15.622 15.3619 15.7705 15.4811 15.865 15.4811C16.0675 15.4811 16.2294 15.3619 16.5939 15.0042C17.7277 13.7587 18.524 11.8376 18.524 11.8376C18.632 11.6124 18.8075 11.4004 19.2124 11.4004H20.7916Z" fill="#474D62"/>
</svg>
