<svg width="31" height="31" viewBox="0 0 31 31" fill="none" xmlns="http://www.w3.org/2000/svg">
<path fill-rule="evenodd" clip-rule="evenodd" d="M15.5 27.5674C22.1274 27.5674 27.5 22.1948 27.5 15.5674C27.5 8.93997 22.1274 3.56738 15.5 3.56738C8.87258 3.56738 3.5 8.93997 3.5 15.5674C3.5 22.1948 8.87258 27.5674 15.5 27.5674ZM21.2921 11.9674C21.7646 11.9674 21.859 12.2059 21.7646 12.5371C21.6037 13.3039 20.1816 15.3376 19.77 15.9262C19.698 16.0291 19.6569 16.0879 19.6589 16.0879C19.497 16.3529 19.4295 16.4854 19.6589 16.7768C19.739 16.8882 19.9146 17.0577 20.1158 17.2519C20.3217 17.4507 20.5544 17.6753 20.7387 17.8898C21.4136 18.645 21.913 19.2677 22.0615 19.7049C22.1965 20.1421 21.967 20.3674 21.5216 20.3674H19.9424C19.5169 20.3674 19.3034 20.1334 18.8473 19.6335C18.6522 19.4197 18.4127 19.1573 18.0932 18.8437C17.1619 17.9693 16.7569 17.85 16.5275 17.85C16.2035 17.85 16.109 17.9428 16.109 18.38V19.7579C16.109 20.1289 15.9876 20.3541 14.9887 20.3541C13.315 20.3541 11.4793 19.3604 10.1836 17.5321C8.23991 14.8425 7.7 12.8153 7.7 12.4046C7.7 12.1794 7.79448 11.9674 8.23991 11.9674H9.81913C10.2241 11.9674 10.3725 12.1396 10.5075 12.5901C11.2769 14.7895 12.5727 16.7106 13.1126 16.7106C13.315 16.7106 13.4095 16.6179 13.4095 16.1144V13.8355C13.3761 13.1875 13.146 12.9051 12.9757 12.696C12.8708 12.5673 12.7886 12.4664 12.7886 12.3251C12.7886 12.1529 12.9371 11.9674 13.1935 11.9674H15.6771C16.0011 11.9674 16.1225 12.1396 16.1225 12.5371V15.6109C16.1225 15.9289 16.271 16.0481 16.3655 16.0481C16.568 16.0481 16.7299 15.9289 17.0944 15.5712C18.2282 14.3257 19.0245 12.4046 19.0245 12.4046C19.1325 12.1794 19.308 11.9674 19.7129 11.9674H21.2921Z" fill="#FFDE52"/>
</svg>
