<svg width="1920" height="238" viewBox="0 0 1920 238" fill="none" xmlns="http://www.w3.org/2000/svg">
<path fill-rule="evenodd" clip-rule="evenodd" d="M1920 235.156H1883.99L1864.12 162.815C1859.22 147.313 1849.42 139.607 1834.82 139.607L1787.01 139.245V235.066H1753.72V2.99158C1772.77 0.997194 1799.8 0 1834.82 0C1862.85 0 1882.62 4.80466 1894.24 14.5046C1905.76 24.114 1911.56 41.7915 1911.56 67.3559C1911.56 85.94 1908.21 99.9914 1901.68 109.419C1895.05 118.847 1884.08 124.559 1868.84 126.553V128.275C1883.9 132.808 1893.6 143.959 1898.14 161.908L1920 235.156ZM660.229 115.401V114.042C673.837 112.682 683.906 107.696 690.075 99.0836C696.334 90.4715 699.509 77.78 699.509 60.9183C699.509 37.3483 693.885 21.3932 682.545 12.9623C671.206 4.53151 650.976 0.361424 621.766 0.361424C588.382 0.361424 562.528 1.26796 544.385 3.08104V235.155C564.796 236.968 594.007 237.875 631.926 237.875C659.504 237.875 678.917 233.614 689.984 225.093C701.142 216.571 706.676 200.616 706.676 177.318C706.676 158.009 703.138 143.323 696.062 133.079C688.986 122.835 677.102 116.942 660.229 115.401ZM489.503 207.234L491.227 233.161C470.816 234.974 437.614 235.881 391.621 235.881C377.288 235.881 365.948 232.164 357.602 224.64C349.257 217.115 344.993 206.962 344.812 194.18V44.1476C344.993 31.3654 349.257 21.2121 357.602 13.6878C365.858 6.16355 377.197 2.44674 391.621 2.44674C437.614 2.44674 470.816 3.35328 491.227 5.16636L489.503 31.3654H397.245C390.532 31.3654 385.724 32.9971 382.912 36.2607C380.1 39.5242 378.739 45.0541 378.739 52.941V99.3559H476.712V126.643H378.739V185.84C378.739 193.727 380.1 199.257 382.912 202.52C385.724 205.784 390.442 207.415 397.245 207.415H489.503V207.234ZM300.088 3.08156L300.07 3.17221H264.164L230.872 180.763C230.237 183.936 229.42 188.741 228.513 195.268C228.081 198.378 227.71 201.097 227.392 203.435L227.388 203.462L227.388 203.463C227.04 206.019 226.754 208.118 226.517 209.773H218.807C217.174 199.257 215.541 189.466 213.726 180.491L180.706 14.3227C180.071 11.2404 178.529 8.61145 176.17 6.43575C173.812 4.35071 171.09 3.26286 167.915 3.26286H131.901C124.916 3.26286 120.652 6.88902 119.11 14.3227L85.8172 180.129C83.5493 190.282 81.8257 200.163 80.7371 209.773H73.0262C70.9398 193.818 69.579 183.936 68.944 180.129L35.6513 3.17221H0L44.4507 225.547C45.9929 232.074 50.2566 235.337 57.2417 235.337H94.9795C98.1545 235.337 101.057 234.34 103.597 232.436C106.138 230.532 107.68 228.085 108.133 225.184L141.426 54.6637L146.506 28.4647H153.582C154.489 34.2665 156.031 42.9693 158.299 54.6637L191.955 225.184C193.588 231.892 197.942 235.246 205.108 235.246H242.483C249.196 235.246 253.641 231.983 255.637 225.456L300.07 3.17221H300.088V3.08156ZM577.406 101.984H624.487C640.635 101.984 651.793 99.4458 657.962 94.4598C664.13 89.3832 667.215 79.5925 667.215 64.9972C667.215 50.6739 663.858 41.0646 657.145 36.2599C650.432 31.4553 638.095 29.0076 620.133 29.0076H577.406V101.984ZM626.846 209.229L577.406 208.866V127.912H624.85C643.084 128.184 655.603 131.266 662.407 137.34C669.21 143.323 672.658 154.746 672.658 171.607C672.658 186.656 669.392 196.628 663.042 201.704C656.601 206.69 644.536 209.229 626.846 209.229ZM877.947 114.042V115.401C894.82 116.942 906.704 122.835 913.78 133.079C920.856 143.323 924.394 158.009 924.394 177.318C924.394 200.616 918.86 216.571 907.702 225.093C896.635 233.614 877.221 237.875 849.644 237.875C811.725 237.875 782.514 236.968 762.103 235.155V3.08104C780.246 1.26796 806.1 0.361424 839.484 0.361424C868.694 0.361424 888.924 4.53151 900.263 12.9623C911.603 21.3932 917.227 37.3483 917.227 60.9183C917.227 77.78 914.052 90.4715 907.793 99.0836C901.624 107.696 891.645 112.682 877.947 114.042ZM842.205 101.984H795.124V29.0076H837.851C855.813 29.0076 868.15 31.4553 874.863 36.2599C881.576 41.0646 884.932 50.6739 884.932 64.9972C884.932 79.5925 881.848 89.3832 875.679 94.4598C869.511 99.4458 858.353 101.984 842.205 101.984ZM795.124 208.866L844.564 209.229C862.254 209.229 874.319 206.69 880.76 201.704C887.11 196.628 890.375 186.656 890.375 171.607C890.375 154.746 886.928 143.323 880.125 137.34C873.321 131.266 860.802 128.184 842.568 127.912H795.124V208.866ZM1010.57 165.171H1103.1L1124.69 235.156H1159.35L1086.32 12.147C1084.96 6.07314 1080.88 3.08156 1074.17 3.08156H1039.88C1033.43 3.08156 1029.26 6.07314 1027.45 12.147L954.784 235.156H989.075L1010.57 165.171ZM1094.4 135.889L1067.09 47.7733C1066.46 45.7789 1065.46 42.606 1064.19 38.3453C1063.94 37.5134 1063.71 36.723 1063.48 35.9748C1062.57 32.8905 1061.87 30.5223 1061.28 28.9173H1052.21L1046.86 47.7733L1019.55 135.889H1094.4ZM1380.79 222.011V3.08184H1347.49V166.168C1347.49 176.684 1348.13 188.741 1349.22 202.158H1344.14C1342.5 198.532 1340.78 194.724 1338.88 190.554C1336.97 186.384 1334.88 182.033 1332.62 177.409C1330.35 172.877 1328.81 169.523 1327.9 167.528L1257.59 13.507C1254.24 6.52669 1249.34 3.08184 1242.81 3.08184H1211.87C1203.35 3.08184 1199.08 7.52388 1199.08 16.2267V235.156H1232.74V66.6303C1232.74 54.12 1232.1 43.3322 1231.01 34.3575H1235.73C1236.82 38.3462 1241.45 49.1341 1249.52 66.6303L1321.91 224.731C1324.9 231.711 1329.71 235.156 1336.43 235.156H1368.36C1376.61 235.156 1380.79 230.714 1380.79 222.011ZM1503.34 127.822H1477.13C1478.67 137.25 1479.48 145.228 1479.48 151.664V235.066H1445.83V2.99153H1479.48V74.3362C1479.48 83.9455 1478.67 92.739 1477.13 100.535H1503.34L1571.65 2.99153H1608.3L1542.62 97.8156C1538.99 102.983 1534.28 108.331 1528.47 113.952V114.949C1534.73 120.298 1540.17 126.19 1544.62 132.445L1612.56 235.066H1575.19L1503.34 127.822ZM1655.11 235.156H1688.77V3.08184H1655.11V235.156ZM1834.09 110.689H1787.01V29.3722C1795.54 29.1002 1811.23 29.0096 1834.09 29.0096C1850.69 29.0096 1862.12 31.8199 1868.29 37.4404C1874.46 42.9703 1877.55 53.6675 1877.55 69.3506C1877.55 85.3057 1874.46 96.0936 1868.29 101.805C1862.12 107.516 1850.69 110.508 1834.09 110.689Z" fill="white"/>
</svg>
