<svg width="21" height="21" viewBox="0 0 21 21" fill="none" xmlns="http://www.w3.org/2000/svg">
<g clip-path="url(#clip0)">
<path d="M10.968 0.904541C5.45396 0.904541 0.967957 5.39054 0.967957 10.9045C0.967957 16.4185 5.45396 20.9045 10.968 20.9045C16.482 20.9045 20.968 16.4185 20.968 10.9045C20.968 5.39054 16.482 0.904541 10.968 0.904541ZM10.968 18.9045C6.55696 18.9045 2.96796 15.3155 2.96796 10.9045C2.96796 6.49354 6.55696 2.90454 10.968 2.90454C15.379 2.90454 18.968 6.49354 18.968 10.9045C18.968 15.3155 15.379 18.9045 10.968 18.9045Z" fill="#1D2431"/>
<path d="M11.968 5.90454H9.96796V11.9045H15.968V9.90454H11.968V5.90454Z" fill="#1D2431"/>
</g>
<defs>
<clipPath id="clip0">
<rect width="20" height="20" fill="white" transform="translate(0.967957 0.904541)"/>
</clipPath>
</defs>
</svg>
