<svg width="60" height="60" viewBox="0 0 60 60" fill="none" xmlns="http://www.w3.org/2000/svg">
<path d="M60 30.0073C59.989 46.5487 46.4958 60.0293 29.9804 60C13.4198 59.9706 -0.0256482 46.5059 3.67384e-05 29.9755C0.0257217 13.4048 13.4968 -0.0305189 30.0538 5.2068e-05C46.5717 0.0306231 60.011 13.4978 60 30.0073ZM32.8535 42.4008C33.0345 42.3886 33.1972 42.3776 33.3611 42.3678C35.0269 42.2737 36.6646 42.0389 38.2461 41.4739C40.0135 40.8429 41.4249 39.8072 42.2211 38.0524C42.7984 36.7807 42.9892 35.4368 42.9697 34.0525C42.9562 33.1525 42.8266 32.2745 42.4389 31.4552C41.7967 30.0991 40.6764 29.2749 39.3175 28.7368C38.9384 28.5864 38.5445 28.4751 38.1287 28.3369C38.2412 28.2721 38.3268 28.2244 38.4124 28.1743C39.6355 27.4626 40.4795 26.455 40.828 25.0658C41.0299 24.2637 41.0494 23.4505 40.9638 22.6299C40.7669 20.7578 39.9144 19.3136 38.2424 18.3879C37.1196 17.7667 35.9137 17.4035 34.6551 17.203C34.0607 17.1076 33.4626 17.0342 32.8364 16.9462V11.3284H29.5365V16.8276H26.8872V11.3297H23.2388V16.9865H16.6903V20.4435C16.8102 20.4435 16.9093 20.4435 17.0083 20.4435C17.7165 20.4459 18.4247 20.4325 19.1329 20.4545C20.2728 20.4912 20.8868 21.1356 20.8868 22.2668C20.8868 27.1765 20.8868 32.0874 20.8868 36.9971C20.8868 37.1072 20.888 37.2184 20.8831 37.3285C20.8647 37.7504 20.6532 38.0218 20.2397 38.1074C20.0171 38.1527 19.7848 38.1637 19.556 38.1661C18.7855 38.1735 18.0149 38.1686 17.2273 38.1686C16.9998 39.5345 16.776 40.8784 16.5472 42.2468C18.8038 42.2749 21.0262 42.1746 23.2571 42.4094V47.9024H26.9007V42.4974H29.5511V47.9012H32.8559V42.4021L32.8535 42.4008Z" fill="#454572"/>
<path d="M26.9056 30.9563C28.8295 30.8866 30.7339 30.8095 32.6064 31.2241C33.2375 31.3635 33.8687 31.5665 34.4509 31.8428C36.25 32.6964 36.798 34.8975 35.6385 36.4786C35.1529 37.1402 34.4362 37.4569 33.7011 37.7308C32.6774 38.1136 31.6011 38.2652 30.5198 38.3215C29.3738 38.3801 28.2241 38.3667 27.0756 38.3826C27.023 38.3826 26.9704 38.3753 26.9044 38.3691V30.9551L26.9056 30.9563Z" fill="#454572"/>
<path d="M26.9044 27.5678V20.792C27.7875 20.792 28.6595 20.7651 29.5279 20.7981C30.6581 20.8422 31.7747 20.9803 32.8327 21.434C34.3408 22.0809 35.0648 23.6951 34.5071 25.2358C34.1659 26.1799 33.388 26.6812 32.5123 27.0041C31.3393 27.4357 30.1003 27.5458 28.8564 27.5653C28.2143 27.5751 27.5722 27.5666 26.9044 27.5666V27.5678Z" fill="#454572"/>
</svg>
