<svg width="35" height="35" viewBox="0 0 35 35" fill="none" xmlns="http://www.w3.org/2000/svg">
<path d="M27.1121 17.2928C27.1121 18.1804 23.9271 18.9259 19.662 19.1159V19.1177V19.1156C19.5405 19.1233 18.9165 19.1608 17.5269 19.1608C16.416 19.1608 15.6345 19.1293 15.359 19.1149V19.1184C11.0834 18.9291 7.8925 18.1846 7.8925 17.2938C7.8925 16.4031 11.0838 15.6597 15.3583 15.47V18.3767C15.6383 18.396 16.4391 18.4433 17.5444 18.4433C18.872 18.4433 19.5395 18.3879 19.662 18.3767V15.47C23.9285 15.6601 27.1121 16.4052 27.1121 17.2928Z" fill="#454572"/>
<path d="M17.5 0C7.8344 0 0 7.83335 0 17.5C0 27.1667 7.8358 35 17.5 35C27.1642 35 35 27.1646 35 17.5C35 7.83545 27.1646 0 17.5 0ZM19.6612 19.824V28.1635H15.3562V19.8247C10.5192 19.601 6.87925 18.6427 6.87925 17.4948C6.87925 16.3468 10.5175 15.3885 15.3562 15.1662V12.565H9.4024V8.59845H25.613V12.565H19.6599V15.1683H19.6612C24.4913 15.3913 28.1222 16.3489 28.1222 17.4958C28.1222 18.6427 24.4913 19.6011 19.6612 19.824Z" fill="#454572"/>
</svg>
