<svg width="74" height="25" viewBox="0 0 74 25" fill="none" xmlns="http://www.w3.org/2000/svg">
<path d="M73.5913 23.7947C71.997 23.803 70.4027 23.8139 68.8084 23.8183C68.1254 23.8202 68.126 23.8139 67.9822 23.1423C67.7924 22.256 67.6014 21.3699 67.4084 20.4714C67.3281 20.4563 67.247 20.4461 67.1655 20.441C64.84 20.4404 62.5146 20.4463 60.1892 20.4365C59.9155 20.4354 59.7863 20.5119 59.6952 20.774C59.3754 21.6945 59.0344 22.6081 58.6792 23.5158C58.6302 23.6408 58.4566 23.8035 58.3393 23.8047C56.4197 23.8228 54.4998 23.818 52.5799 23.8169C52.5199 23.8084 52.4607 23.7951 52.4029 23.7771C52.4825 23.576 52.5541 23.3832 52.6346 23.194C54.7353 18.2512 56.8364 13.3086 58.9379 8.36615C59.6639 6.65701 60.4 4.95175 61.1005 3.23239C61.6392 1.9101 62.6102 1.26908 64.0401 1.2685C65.5138 1.26789 66.9875 1.27089 68.4611 1.25499C68.7453 1.25193 68.8513 1.33391 68.9103 1.61573C69.9477 6.5768 70.9928 11.5363 72.0455 16.4943C72.5115 18.6998 72.9788 20.9051 73.4475 23.1101C73.4875 23.2606 73.5355 23.409 73.5913 23.5546V23.7947ZM66.43 15.8161C65.8485 13.0328 65.2738 10.2823 64.6991 7.53182L64.614 7.54059C63.5942 10.2835 62.5744 13.0264 61.5372 15.8161L66.43 15.8161Z" fill="#454572"/>
<path d="M0.580566 1.54182C0.630599 1.3055 0.778663 1.25285 1.01535 1.25363C4.0296 1.26359 7.04389 1.2616 10.0582 1.26509C10.2744 1.26396 10.4906 1.27457 10.7057 1.29688C11.9412 1.43334 12.6762 2.1321 12.9158 3.3384C13.7758 7.66782 14.6416 11.9961 15.5134 16.3232C15.521 16.3615 15.5375 16.398 15.5836 16.5371C15.6674 16.3422 15.725 16.2221 15.7717 16.098C17.5789 11.3006 19.3827 6.50199 21.1831 1.70214C21.3121 1.35664 21.4732 1.24526 21.8482 1.24992C23.5916 1.27159 25.3354 1.25737 27.0791 1.25602C27.237 1.25589 27.3949 1.25601 27.6179 1.25601C27.2398 2.17647 26.8882 3.03561 26.5343 3.89382C23.846 10.4127 21.1594 16.9322 18.4746 23.4525C18.3674 23.7133 18.2411 23.8135 17.9481 23.8111C16.1235 23.7959 14.2987 23.7951 12.4739 23.8086C12.1535 23.8113 12.0319 23.7036 11.954 23.4115C10.8196 19.1583 9.67919 14.9066 8.53287 10.6564C7.98279 8.6084 7.4404 6.55832 6.87311 4.51496C6.80314 4.30849 6.66077 4.13345 6.47163 4.02135C4.81077 3.09696 3.04001 2.37964 1.19999 1.88586C0.992372 1.82857 0.78699 1.76342 0.580566 1.70191V1.54182Z" fill="#454572"/>
<path d="M52.8265 6.67803C51.0028 5.79312 49.1235 5.41529 47.1567 5.63799C46.5421 5.7098 45.9472 5.89737 45.4042 6.19051C44.2882 6.80163 44.1855 7.98575 45.2071 8.73553C46.0357 9.34357 46.9633 9.8284 47.8767 10.3135C48.8783 10.8456 49.8712 11.3775 50.7362 12.1203C52.6248 13.7422 53.171 15.7776 52.6031 18.1238C51.9942 20.6391 50.2911 22.2141 47.9485 23.1952C46.2022 23.9266 44.3604 24.1819 42.4818 24.166C40.4914 24.1637 38.5139 23.8507 36.6226 23.2387C36.4819 23.1923 36.348 23.124 36.2055 23.0853C35.9795 23.0239 35.9165 22.8963 35.9546 22.67C36.2087 21.1574 36.4529 19.6432 36.7027 18.1299C36.7179 18.0716 36.7394 18.015 36.7667 17.9611C37.6778 18.3079 38.5544 18.6956 39.4649 18.9762C41.0852 19.4757 42.7546 19.6526 44.4234 19.2822C45.0107 19.1376 45.5588 18.8685 46.0298 18.4934C46.8174 17.8773 46.8114 16.7588 46.1032 16.0475C45.3098 15.2508 44.2831 14.8161 43.2998 14.3155C42.1675 13.7391 41.0852 13.0935 40.1496 12.2243C38.0149 10.2411 37.9711 7.65551 39.0643 5.43421C40.0853 3.35961 41.8893 2.16589 44.0467 1.4907C47.0789 0.541694 50.1182 0.654715 53.1394 1.60792C53.5385 1.73385 53.6776 1.87666 53.5867 2.33274C53.3209 3.66632 53.1292 5.01428 52.9069 6.35633C52.8921 6.44533 52.8634 6.53207 52.8265 6.67803Z" fill="#454572"/>
<path d="M32.2261 23.7996H26.3173C26.431 23.0795 26.5367 22.3875 26.6498 21.6968C27.5891 15.9614 28.5291 10.2262 29.4698 4.49106C29.6294 3.51792 29.7944 2.54559 29.9449 1.57109C29.979 1.35041 30.053 1.24849 30.3008 1.24998C32.1112 1.26086 33.9218 1.25897 35.7323 1.26273C35.7937 1.27323 35.854 1.2893 35.9123 1.31075C34.6848 8.79953 33.4561 16.2958 32.2261 23.7996Z" fill="#454572"/>
</svg>
