<svg width="77" height="25" viewBox="0 0 77 25" fill="none" xmlns="http://www.w3.org/2000/svg">
<path d="M27.6679 12.5131C27.6679 16.2343 27.6679 19.9555 27.6679 23.6762C27.6679 23.9973 27.5039 24.1579 27.1761 24.1579C25.1638 24.1579 23.151 24.1579 21.1387 24.1579C20.9562 24.1579 20.8687 24.066 20.8763 23.8821C20.8789 23.8171 20.8767 23.7521 20.8767 23.687C20.8767 19.3372 20.8776 14.9879 20.8737 10.638C20.8737 10.5197 20.9534 10.3437 20.7363 10.3094C20.3876 10.2539 20.2882 10.302 20.2136 10.5617C19.827 11.9105 19.4438 13.2602 19.0549 14.6081C18.6286 16.086 18.1952 17.5618 17.7676 19.0394C17.2963 20.6682 16.8246 22.2966 16.3621 23.9281C16.3106 24.1098 16.2274 24.1635 16.0438 24.1627C14.6488 24.1557 13.2538 24.1544 11.8592 24.164C11.6465 24.1653 11.5532 24.102 11.4961 23.8965C11.1866 22.7827 10.8644 21.6723 10.5427 20.562C10.3225 19.8024 10.0919 19.0459 9.87349 18.2854C9.48463 16.9315 9.10405 15.5753 8.71519 14.2213C8.5055 13.4908 8.28273 12.7637 8.07173 12.0336C7.92831 11.5372 7.79186 11.0386 7.65846 10.5392C7.59481 10.302 7.52986 10.2687 7.14535 10.3051C6.93567 10.3246 6.99365 10.4876 6.99365 10.6016C6.99059 15.0017 6.99103 19.4023 6.99147 23.8024C6.99147 23.86 6.98972 23.9199 7.00454 23.9745C7.03986 24.1046 6.97098 24.1466 6.86068 24.1574C6.81011 24.1622 6.75911 24.1592 6.7081 24.1592C4.61557 24.1592 2.52348 24.1557 0.430947 24.1644C0.211231 24.164 0.150635 24.1076 0.150635 23.8865C0.156302 16.2998 0.15543 8.71307 0.15543 1.12637C0.15543 0.938499 0.250611 0.844563 0.440973 0.844563C2.61328 0.844563 4.78646 0.81118 6.95746 0.859738C7.9209 0.881415 8.82156 1.20658 9.56833 1.87164C10.2231 2.45477 10.6059 3.17663 10.8191 4.01642C11.1883 5.47315 11.5889 6.92208 11.9721 8.37534C12.1605 9.08983 12.3335 9.80779 12.5245 10.5214C12.8811 11.8546 13.2512 13.1843 13.6017 14.5192C13.6544 14.7204 13.7774 14.6952 13.9121 14.6917C14.0559 14.6883 14.2172 14.7412 14.2735 14.5201C14.4396 13.8658 14.6205 13.2151 14.7944 12.5626C14.9906 11.826 15.1868 11.0889 15.3812 10.3519C15.6249 9.42757 15.8655 8.50237 16.1097 7.57804C16.407 6.45167 16.7113 5.32748 17.0029 4.19981C17.1603 3.59111 17.3473 2.99888 17.7388 2.49032C18.2118 1.87598 18.7964 1.41945 19.5388 1.16149C20.1238 0.958154 20.7198 0.843263 21.3393 0.843696C23.3446 0.844997 25.3495 0.843696 27.3548 0.84413C27.6779 0.84413 27.6726 0.84413 27.67 1.15455C27.6657 1.69649 27.6683 2.23843 27.6683 2.78037C27.6683 6.02463 27.6679 9.26888 27.6679 12.5131Z" fill="#454572"/>
<path d="M30.6545 12.5023C30.6545 8.76683 30.6545 5.0318 30.6545 1.29632C30.6545 0.994861 30.8071 0.84413 31.1122 0.84413C33.132 0.84413 35.1517 0.846731 37.171 0.840228C37.3811 0.839361 37.4548 0.877947 37.4544 1.11293C37.4456 5.55639 37.4478 9.99942 37.4487 14.4429C37.4487 14.5461 37.4186 14.6926 37.5825 14.6852C37.7608 14.677 37.9888 14.7958 38.0982 14.5413C38.4113 13.8129 38.7238 13.0841 39.0333 12.354C39.4832 11.2944 39.9292 10.2331 40.3791 9.1735C40.9816 7.75536 41.5814 6.33635 42.1918 4.92211C42.5144 4.1751 42.8178 3.41595 43.2018 2.70016C43.6587 1.8491 44.4033 1.29502 45.321 0.9846C45.613 0.885751 45.9143 0.836326 46.2325 0.838494C48.1502 0.850633 50.0684 0.844563 51.9861 0.844563C52.2634 0.844563 52.2538 0.845431 52.2529 1.12204C52.2485 2.26357 52.2507 3.40511 52.2507 4.54665C52.2507 10.9047 52.2507 17.2627 52.2507 23.6207C52.2507 23.6857 52.2499 23.7508 52.2507 23.8158C52.2542 24.0439 52.1438 24.1579 51.9194 24.1579C49.8561 24.1579 47.7932 24.1579 45.7299 24.1579C45.5291 24.1579 45.4286 24.0602 45.4286 23.8648C45.4286 19.4504 45.4291 15.036 45.4247 10.6216C45.4247 10.5158 45.5062 10.3597 45.3275 10.3098C45.0555 10.234 44.8497 10.3081 44.7651 10.5101C44.4569 11.2467 44.1531 11.9855 43.8466 12.7225C43.4155 13.7587 42.9821 14.7936 42.5518 15.8302C42.0575 17.0212 41.5688 18.2143 41.0709 19.4036C40.7104 20.2646 40.3617 21.1313 39.9663 21.9763C39.5399 22.8876 38.8267 23.531 37.8903 23.903C37.4783 24.0664 37.0489 24.1713 36.5851 24.1666C34.7035 24.1466 32.822 24.1583 30.9405 24.1579C30.7385 24.1579 30.6426 24.0586 30.6528 23.86C30.6562 23.7881 30.6541 23.7157 30.6541 23.6433C30.6541 19.9295 30.6545 16.2161 30.6545 12.5023Z" fill="#454572"/>
<path d="M62.1937 0.848032C64.5762 0.848032 66.9582 0.848032 69.3406 0.848032C70.0529 0.848032 70.747 0.966825 71.4318 1.15369C72.2645 1.38087 73.0187 1.76629 73.7101 2.27441C74.8684 3.12634 75.6988 4.23103 76.2569 5.54815C76.7355 6.67842 76.9443 7.85811 76.9234 9.07812C76.9169 9.45748 76.8414 9.83554 76.8053 10.2149C76.7922 10.3528 76.7172 10.4031 76.593 10.4087C76.5494 10.4109 76.5058 10.4096 76.4622 10.4096C72.6272 10.4091 68.7926 10.4165 64.9576 10.3996C64.3843 10.397 63.8111 10.2812 63.2383 10.2162C62.5346 10.136 61.8737 9.90187 61.2203 9.64781C60.5145 9.37337 59.8409 9.03087 59.2372 8.57564C58.6678 8.14642 58.0767 7.72718 57.5884 7.21559C57.0191 6.61902 56.5208 5.94789 56.0474 5.27068C55.5739 4.59391 55.2008 3.84994 54.9431 3.06391C54.7221 2.39017 54.5643 1.69562 54.3759 1.01105C54.3437 0.893555 54.3895 0.848465 54.5024 0.848465C54.5604 0.848465 54.6188 0.848465 54.6768 0.848465C57.1826 0.848465 59.6884 0.848465 62.1942 0.848465L62.1937 0.848032Z" fill="#454572"/>
<path d="M65.8657 11.4514C69.2944 11.4514 72.7235 11.4514 76.1522 11.4514C76.4757 11.4514 76.4766 11.4557 76.3632 11.7601C75.9874 12.7663 75.4355 13.6686 74.6936 14.4446C73.6429 15.5432 72.3713 16.2729 70.8699 16.5725C70.4819 16.6501 70.0804 16.6904 69.6846 16.6921C67.2581 16.7034 64.8321 16.6986 62.4056 16.6991C62.1144 16.6991 62.1083 16.7034 62.1087 16.9861C62.1092 19.3125 62.1083 21.6385 62.1157 23.965C62.1161 24.1553 62.0176 24.1583 61.8838 24.1583C60.9975 24.1574 60.1112 24.1583 59.225 24.1583C57.9973 24.1583 56.7697 24.1544 55.5421 24.1622C55.3429 24.1635 55.2827 24.108 55.2832 23.906C55.2888 19.8532 55.2875 15.7999 55.2875 11.7471C55.2875 11.4605 55.2967 11.4518 55.5796 11.4518C59.0083 11.4518 62.4374 11.4518 65.8661 11.4518L65.8657 11.4514Z" fill="#454572"/>
</svg>
