<svg width="69" height="24" viewBox="0 0 69 24" fill="none" xmlns="http://www.w3.org/2000/svg">
<path d="M68.4946 18.8521C67.9711 18.82 67.4439 18.8186 66.9254 18.7494C66.1019 18.6391 65.3543 18.3342 64.7462 17.7508C64.1499 17.1792 63.8481 16.4705 63.7923 15.6595C63.7672 15.2991 63.7773 14.9364 63.7768 14.575C63.7759 11.297 63.7763 8.01896 63.7763 4.74094V4.41304H65.667V9.49018H68.4946V11.1183C67.5971 11.1129 66.699 11.1048 65.8015 11.1097C65.7571 11.1097 65.6748 11.2246 65.6744 11.2861C65.6675 12.6117 65.6547 13.9373 65.6757 15.2625C65.6899 16.1584 66.149 16.7056 67.0406 16.8666C67.5147 16.9521 68.009 16.9272 68.4942 16.9526L68.4946 18.8521Z" fill="#454572"/>
<path d="M23.4695 11.5828C23.4 16.674 20.2108 21.0781 15.3498 22.7307C11.0088 24.2065 6.02802 22.9103 2.95444 19.5156C1.3294 17.721 0.361875 15.6351 0.0921016 13.2413C-0.355996 9.26993 0.825061 5.85984 3.76513 3.09514C5.58587 1.38286 7.76828 0.369786 10.268 0.0875723C13.8862 -0.320824 17.0704 0.701297 19.7622 3.11007C21.647 4.79657 22.7521 6.94664 23.2139 9.41104C23.3479 10.1261 23.3868 10.8587 23.4695 11.5828ZM5.16475 11.2368C5.25757 11.2463 5.30192 11.2545 5.34627 11.2545C7.24246 11.2554 9.1391 11.2527 11.0353 11.259C11.2246 11.2594 11.241 11.1753 11.241 11.0261C11.2374 9.56481 11.2351 8.10308 11.2433 6.64181C11.2442 6.44191 11.1674 6.40935 10.9891 6.41025C9.40521 6.41613 7.82087 6.41613 6.23698 6.4098C6.06368 6.40889 5.98733 6.4591 5.93246 6.62553C5.60324 7.62323 5.37508 8.64264 5.26625 9.68556C5.21321 10.193 5.19858 10.7041 5.16475 11.2368ZM5.19813 12.1242C5.19493 12.1821 5.18944 12.2187 5.19081 12.2553C5.25757 13.7894 5.52094 15.2909 5.94663 16.7667C5.99098 16.92 6.06689 16.958 6.22052 16.9575C7.81309 16.9521 9.40521 16.9544 10.9978 16.9535C11.0705 16.9535 11.1432 16.944 11.2205 16.9385V12.1242H5.19813ZM12.1185 11.2373H18.1504C18.1504 11.1373 18.155 11.055 18.15 10.9732C18.0571 9.49516 17.8176 8.04248 17.3983 6.61965C17.3507 6.45864 17.2826 6.4098 17.1166 6.41025C15.524 6.41613 13.9315 6.41387 12.3389 6.41432C12.2662 6.41432 12.1939 6.42156 12.1185 6.42563V11.2373ZM18.1957 12.0676H12.1263V16.8585C12.1574 16.8671 12.1715 16.8748 12.1862 16.8748C13.8546 16.8766 15.5227 16.8761 17.1911 16.882C17.337 16.8825 17.3713 16.8024 17.3973 16.6934C17.6026 15.8382 17.8459 14.9902 18.0018 14.1264C18.1225 13.457 18.1344 12.7682 18.1966 12.0672L18.1957 12.0676ZM5.10531 6.41387H4.8904C4.03033 6.41387 3.17026 6.41794 2.31018 6.41025C2.14969 6.40889 2.06876 6.46317 1.9956 6.60201C1.41125 7.71232 1.01527 8.88369 0.828719 10.1211C0.773392 10.4883 0.750988 10.8605 0.712122 11.2432C0.825975 11.2486 0.892733 11.2549 0.959947 11.2549C2.01801 11.2554 3.07606 11.2499 4.13412 11.2599C4.33714 11.2617 4.37966 11.197 4.39841 11.0062C4.48986 10.0637 4.57948 9.11978 4.71619 8.18313C4.80124 7.59835 4.96768 7.02578 5.10531 6.41387ZM18.9689 12.1233C18.9602 13.7727 18.6749 15.3592 18.209 16.9539H18.492C19.3297 16.9539 20.1678 16.948 21.0054 16.9585C21.1838 16.9607 21.2766 16.9046 21.3571 16.75C21.9574 15.5953 22.3603 14.3792 22.5368 13.092C22.5802 12.7754 22.5935 12.4548 22.6218 12.1228L18.9689 12.1233ZM18.2071 6.41387C18.6991 8.01806 18.9515 9.61501 18.9739 11.2414H22.5994C22.604 11.1925 22.6122 11.1568 22.6104 11.1211C22.5313 9.50058 22.0813 7.98188 21.3104 6.55498C21.2725 6.48488 21.1495 6.42246 21.0644 6.4202C20.5546 6.40754 20.0439 6.41387 19.5336 6.41387C19.1079 6.41387 18.6827 6.41387 18.2071 6.41387ZM4.38012 12.1292H0.731783C0.731783 12.2201 0.726754 12.2947 0.732698 12.3684C0.852495 13.9341 1.28413 15.4112 2.01618 16.8042C2.07836 16.9232 2.15655 16.9571 2.28595 16.9562C3.16888 16.9512 4.05182 16.9539 4.93475 16.953C4.99191 16.953 5.04906 16.9417 5.12771 16.9336C4.65401 15.3601 4.38058 13.7731 4.38012 12.1292ZM12.1217 22.5109C12.9964 22.4178 13.7367 22.0727 14.3992 21.5539C15.4125 20.7606 16.1084 19.7268 16.6644 18.5907C16.8057 18.3026 16.9278 18.005 17.0686 17.6907H12.1217V22.5109ZM6.29505 17.763C6.31608 17.8259 6.32523 17.8612 6.33894 17.8942C6.6517 18.6572 7.0367 19.3826 7.52092 20.0529C8.19032 20.9795 8.98318 21.7733 10.071 22.212C10.4308 22.3571 10.8172 22.4381 11.2237 22.5575V17.7626L6.29505 17.763ZM11.215 5.60476V0.857781C10.4043 0.947782 9.71202 1.25894 9.09017 1.72297C7.76691 2.71026 6.93153 4.04897 6.31425 5.541C6.30785 5.55682 6.32111 5.58079 6.32614 5.60476H11.215ZM12.1235 0.857329V5.59979H17.0663C16.9209 5.28456 16.797 4.99421 16.6557 4.7129C16.0947 3.59489 15.3955 2.57956 14.3882 1.80166C13.728 1.2915 12.9932 0.950496 12.1235 0.857329ZM8.08561 1.46744C5.77425 2.2182 3.98415 3.63017 2.56761 5.61878C3.47661 5.61878 4.32114 5.61245 5.16612 5.62376C5.35176 5.62602 5.42812 5.56316 5.49396 5.39763C6.05043 3.9947 6.82088 2.72474 7.90774 1.65603C7.96947 1.59543 8.02617 1.5303 8.08561 1.46744ZM2.56715 17.7499C3.98872 19.7399 5.77471 21.1501 8.07738 21.8995C7.94569 21.7195 7.76508 21.5887 7.61968 21.4277C6.69194 20.4002 5.99007 19.2352 5.47796 17.9548C5.44549 17.8738 5.34993 17.7599 5.2818 17.759C4.39887 17.7458 3.51547 17.7504 2.5667 17.7504L2.56715 17.7499ZM15.2483 21.8719C15.2698 21.8931 15.2908 21.9144 15.3123 21.9356C17.5757 21.1428 19.3585 19.7349 20.7462 17.7888C20.7005 17.7689 20.6813 17.7531 20.6621 17.7531C19.7938 17.7513 18.9255 17.7481 18.0576 17.7544C18.0014 17.7544 17.9282 17.8164 17.8935 17.8693C17.8404 17.9498 17.8157 18.048 17.7764 18.138C17.2625 19.3193 16.6552 20.445 15.7636 21.3974C15.6045 21.567 15.4207 21.7145 15.2483 21.8719ZM20.7594 5.59798C19.3566 3.63062 17.5716 2.21955 15.257 1.41407C15.2904 1.47693 15.2968 1.50045 15.3119 1.51492C16.4998 2.62388 17.283 3.98972 17.8793 5.47361C17.9287 5.59617 18.0014 5.62105 18.1207 5.62059C18.9355 5.61698 19.7503 5.61879 20.5656 5.61788C20.6159 5.61788 20.6662 5.60748 20.7594 5.59798Z" fill="#454572"/>
<path d="M46.4025 8.4061C47.0619 11.0568 47.7184 13.6981 48.375 16.3388C48.3901 16.3388 48.4052 16.3398 48.4203 16.3402C48.5429 15.8703 48.6668 15.4004 48.7879 14.93C49.327 12.8302 49.8661 10.7307 50.4006 8.62997C50.4413 8.47077 50.4985 8.39615 50.6855 8.40067C51.2557 8.41515 51.8263 8.4061 52.428 8.4061C52.3178 8.80409 52.2163 9.17902 52.1107 9.55305C51.2598 12.5669 50.407 15.5799 49.5616 18.5952C49.5095 18.7806 49.4331 18.8444 49.2365 18.8399C48.6805 18.8259 48.124 18.8272 47.568 18.839C47.3769 18.843 47.2914 18.7933 47.2438 18.5975C46.7157 16.4175 46.1771 14.2399 45.6417 12.0622C45.563 11.742 45.4834 11.4218 45.3609 11.1002C45.2539 11.5272 45.1446 11.9541 45.0399 12.382C44.5319 14.4506 44.0226 16.5188 43.5205 18.5889C43.4762 18.7725 43.4076 18.8462 43.2041 18.8408C42.633 18.8254 42.0615 18.8304 41.4899 18.8385C41.3376 18.8408 41.2608 18.8037 41.2169 18.6477C40.2741 15.2923 39.3258 11.9383 38.3793 8.58384C38.3651 8.53364 38.3614 8.48118 38.3491 8.40746C38.9517 8.40746 39.5448 8.40293 40.1369 8.41605C40.1858 8.41695 40.2572 8.53002 40.2759 8.60193C40.5864 9.78868 40.8904 10.9777 41.1959 12.1658C41.5329 13.4783 41.8694 14.7903 42.2069 16.1023C42.2247 16.1715 42.2521 16.238 42.2937 16.3624C42.3349 16.2403 42.3619 16.1751 42.3788 16.1073C42.9938 13.6311 43.611 11.155 44.2164 8.67656C44.2699 8.45766 44.3582 8.39525 44.579 8.40113C45.1798 8.41695 45.7816 8.4061 46.4025 8.4061Z" fill="#454572"/>
<path d="M27.7699 15.9951C28.3629 15.679 28.9372 15.3724 29.4987 15.073C29.6999 15.333 29.8686 15.6062 30.0899 15.8287C31.0273 16.7721 32.169 17.1823 33.5046 17.062C34.2001 16.9996 34.8535 16.8255 35.4104 16.3881C36.3971 15.613 36.3807 14.1752 35.3757 13.4195C34.8233 13.0043 34.169 12.8243 33.5133 12.6511C32.5517 12.3964 31.5856 12.1558 30.6295 11.8822C30.319 11.7936 30.0232 11.6384 29.7383 11.482C28.3977 10.7448 27.9162 9.47164 28.0648 8.06057C28.2148 6.63774 29.0744 5.68708 30.3236 5.0634C32.437 4.00827 35.3619 4.37189 37.1511 5.90145C37.4191 6.1303 37.6477 6.40437 37.9133 6.67709C37.3916 7.12302 36.9047 7.53956 36.4044 7.9674C36.3391 7.8964 36.2837 7.8367 36.2293 7.777C34.912 6.33608 33.1132 5.9417 31.4086 6.55271C30.4018 6.91362 29.8961 7.82494 30.1242 8.78872C30.2513 9.32646 30.6171 9.68013 31.1027 9.88049C31.6473 10.1057 32.2147 10.2862 32.7845 10.4422C33.8023 10.7208 34.848 10.9062 35.816 11.3481C36.757 11.7777 37.5169 12.3951 37.8525 13.3987C38.5082 15.3574 37.9051 17.3917 35.8201 18.4157C33.7451 19.4346 30.7923 19.2437 28.9263 17.56C28.4425 17.1235 28.052 16.6192 27.7699 15.9951Z" fill="#454572"/>
<path d="M62.4988 4.39767V6.25874C62.0914 6.27774 61.6959 6.27774 61.305 6.31799C60.2611 6.42518 59.7101 7.04026 59.7083 8.07459C59.7073 8.53364 59.7083 8.99314 59.7083 9.47978H62.4924V11.0989H59.7128V18.8186H57.8134C57.8093 18.7404 57.8016 18.668 57.8016 18.5952C57.8011 15.0463 57.7988 11.4969 57.8025 7.94795C57.8038 6.8286 58.1564 5.85803 59.0942 5.16426C59.8646 4.59395 60.7617 4.42299 61.6986 4.39902C61.9561 4.39224 62.2139 4.39812 62.4974 4.39812L62.4988 4.39767Z" fill="#454572"/>
<path d="M55.7719 18.7481H53.9155V8.35273H55.7719V18.7481Z" fill="#454572"/>
<path d="M54.8487 4.33661C55.5885 4.33571 56.1358 4.86983 56.1413 5.59798C56.1463 6.30849 55.5524 6.8996 54.8391 6.89327C54.129 6.88739 53.5478 6.30713 53.5506 5.60703C53.5533 4.90285 54.1308 4.33752 54.8487 4.33661Z" fill="#454572"/>
</svg>
