<svg width="88" height="25" viewBox="0 0 88 25" fill="none" xmlns="http://www.w3.org/2000/svg">
<path d="M0.560546 16.6362H6.41227C6.41585 16.7515 6.42301 16.8621 6.42301 16.9715C6.42301 17.3397 6.43973 17.7044 6.54363 18.0621C6.6953 18.5868 7.01177 18.955 7.54081 19.1421C7.87639 19.2597 8.21794 19.3468 8.57382 19.348C9.71073 19.3491 10.8476 19.3503 11.9833 19.3374C12.2676 19.3338 12.5566 19.2985 12.836 19.2444C13.635 19.0915 14.1425 18.5539 14.2619 17.7562C14.3312 17.2974 14.3396 16.8374 14.25 16.3798C14.1031 15.6303 13.6326 15.1715 12.8623 15.088C11.8472 14.9786 10.8297 14.8892 9.81104 14.8104C8.33617 14.6974 6.85652 14.6221 5.3912 14.4045C4.68183 14.2986 3.99395 14.1033 3.33355 13.8186C2.0593 13.2704 1.24006 12.3445 0.887765 11.0151C0.664444 10.1633 0.560546 9.29864 0.543827 8.41982C0.522331 7.31748 0.546215 6.21867 0.781478 5.13397C0.887765 4.64456 1.03943 4.17163 1.26872 3.72222C1.71059 2.85517 2.44504 2.30576 3.3025 1.88929C4.17906 1.46341 5.11772 1.25753 6.08266 1.16342C8.14868 0.961066 10.2219 0.951654 12.295 0.998713C13.4116 1.02459 14.5294 1.08577 15.6245 1.33047C15.9768 1.4093 16.3279 1.51165 16.6623 1.64341C18.1515 2.23047 19.0723 3.31987 19.4974 4.82809C19.7948 5.88337 19.8211 6.96337 19.7769 8.04806C19.7745 8.11159 19.7518 8.17512 19.7363 8.25041H13.8822C13.8726 8.15041 13.8654 8.05159 13.8547 7.95394C13.8141 7.59042 13.7854 7.22454 13.7269 6.86337C13.6481 6.38219 13.3519 6.05984 12.8874 5.91749C12.5339 5.80926 12.1696 5.71161 11.803 5.67279C10.6398 5.55044 9.47666 5.58338 8.32064 5.77161C8.16181 5.79749 8.00417 5.84337 7.84892 5.8869C7.36884 6.01984 7.05237 6.33161 6.90787 6.79278C6.70246 7.44571 6.69888 8.10924 6.87205 8.76923C6.99744 9.24334 7.31033 9.54687 7.77727 9.70922C8.15106 9.83863 8.54038 9.87628 8.93089 9.90452C10.2541 9.99981 11.5797 10.0822 12.9029 10.1845C13.7496 10.2492 14.5963 10.321 15.4394 10.4245C16.2861 10.528 17.1078 10.7433 17.8804 11.1092C19.3541 11.8068 20.171 12.9704 20.3609 14.5598C20.5412 16.0609 20.5221 17.5656 20.3477 19.0656C20.2904 19.5585 20.1913 20.0538 20.0432 20.5268C19.6503 21.7879 18.7857 22.6526 17.5962 23.222C16.7806 23.6126 15.9135 23.8291 15.0203 23.9526C13.949 24.1009 12.8695 24.142 11.7911 24.135C10.407 24.1256 9.02046 24.1103 7.63755 24.0526C6.51258 24.0056 5.38881 23.8997 4.29371 23.6103C3.21293 23.3244 2.28382 22.7973 1.60788 21.8926C1.1278 21.2503 0.855521 20.5221 0.728932 19.7409C0.576071 18.7738 0.533079 17.7974 0.541438 16.8174C0.541438 16.7633 0.552187 16.7092 0.560546 16.6362Z" fill="#454572"/>
<path d="M79.923 0.837538C82.3186 8.60806 84.7035 16.348 87.0967 24.1114H80.6754C80.2777 22.7985 79.8764 21.4703 79.4704 20.1291H70.9329C70.5555 21.4574 70.1769 22.7832 69.7983 24.115H63.2444C63.2779 23.9903 63.3017 23.8832 63.334 23.7785C64.6166 19.575 65.8992 15.3727 67.183 11.1692C68.2029 7.83042 69.2227 4.49162 70.2426 1.15283C70.2617 1.0893 70.2689 1.01754 70.3059 0.966948C70.3441 0.914008 70.4062 0.865773 70.4695 0.844597C70.5292 0.82342 70.6021 0.838714 70.6689 0.838714C73.6485 0.838714 76.6281 0.838714 79.6089 0.838714C79.7033 0.838714 79.7988 0.838714 79.9278 0.838714L79.923 0.837538ZM75.207 5.58573C75.0601 5.87514 72.3528 15.3692 72.3588 15.5915H78.1615C78.1603 15.3256 75.3348 5.77514 75.207 5.58573Z" fill="#454572"/>
<path d="M52.1811 18.155V24.1114C51.941 24.1809 46.1383 24.1867 45.8624 24.1185V0.878714C45.9759 0.872832 46.0774 0.861067 46.1789 0.861067C50.0183 0.861067 53.859 0.858714 57.6984 0.861067C58.6442 0.861067 59.5901 0.88342 60.524 1.04812C62.1338 1.33283 63.5059 2.02459 64.4948 3.3481C65.1361 4.2081 65.4848 5.18573 65.646 6.23396C65.8574 7.60689 65.8622 8.98923 65.8335 10.3727C65.8132 11.3327 65.7511 12.2892 65.5899 13.2386C65.5027 13.7504 65.3725 14.2504 65.1683 14.7292C64.4458 16.4303 63.1477 17.4539 61.3348 17.8433C60.8715 17.9433 60.3914 17.9997 59.9173 18.0174C57.4452 18.1068 54.972 18.1597 52.4976 18.1362C52.4044 18.1362 52.3112 18.1456 52.1799 18.1527L52.1811 18.155ZM52.1894 12.7245C52.3089 12.7315 52.3925 12.741 52.4761 12.741C53.7169 12.741 54.9589 12.7598 56.1985 12.7339C56.835 12.721 57.4715 12.6363 58.1057 12.5668C58.4938 12.5245 58.7852 12.3033 58.9548 11.9657C59.0837 11.708 59.1888 11.428 59.2449 11.1469C59.3739 10.4892 59.3715 9.81863 59.356 9.15158C59.3417 8.53159 59.3106 7.91042 59.1363 7.30807C58.9894 6.79984 58.6729 6.43161 58.188 6.20337C57.8023 6.0222 57.3915 5.94573 56.9675 5.94455C55.4592 5.94102 53.9509 5.93867 52.4426 5.93749C52.3602 5.93749 52.279 5.95161 52.1906 5.95985V12.7245H52.1894Z" fill="#454572"/>
<path d="M21.2541 17.0656C21.8166 15.8821 22.3564 14.7433 22.9081 13.581H24.5741V11.7198C24.2839 11.688 23.9997 11.708 23.7178 11.7045C23.4312 11.701 23.1446 11.7045 22.858 11.7045H21.1443C21.1873 11.5974 21.2123 11.5198 21.2482 11.4457C21.7211 10.4492 22.2 9.45511 22.6645 8.45512C22.7529 8.26335 22.8616 8.19512 23.0741 8.19865C23.7811 8.21159 24.4881 8.1963 25.1951 8.20688C25.4053 8.21041 25.5128 8.14335 25.6035 7.95042C27.2563 4.46456 29.9851 2.20458 33.772 1.32459C37.9101 0.363424 41.6193 1.334 44.833 4.09516C44.8975 4.15045 44.9655 4.20221 45.048 4.26927C44.5595 5.30338 44.0818 6.31278 43.597 7.33983C41.3172 4.77515 38.5203 3.71281 35.1394 4.45162C32.9158 4.9375 31.2092 6.20455 29.9828 8.07041C30.0019 8.11983 30.0031 8.13041 30.009 8.1363C30.015 8.14218 30.0246 8.14688 30.0341 8.14924C30.0616 8.15394 30.0902 8.161 30.1189 8.161C34.4074 8.16453 38.6959 8.16688 42.9855 8.17041C42.9951 8.17041 43.0034 8.1763 43.0512 8.19159C42.5054 9.34099 41.9621 10.4869 41.4056 11.6586H28.7539C28.6333 12.3116 28.6954 12.928 28.7754 13.5715H40.406C40.3785 13.8068 39.2034 16.3456 38.7914 17.0727H30.2204C30.181 17.2209 30.2777 17.288 30.3363 17.3644C31.3908 18.7421 32.7474 19.7127 34.4133 20.2468C37.5267 21.2456 40.898 20.3668 43.1121 17.9915C43.1802 17.9174 43.2506 17.8456 43.3486 17.7421C43.3701 17.8727 43.3951 17.955 43.3939 18.0362C43.3904 19.2785 43.3772 20.5197 43.3844 21.7621C43.3856 21.9997 43.302 22.1326 43.1002 22.255C41.4892 23.2326 39.7504 23.8326 37.8647 24.0256C32.6077 24.5632 27.7448 21.7832 25.6393 17.2915C25.5581 17.1186 25.4614 17.0621 25.2715 17.0633C24.0582 17.0715 22.8449 17.068 21.6327 17.068C21.5276 17.068 21.4237 17.068 21.2565 17.068L21.2541 17.0656Z" fill="#454572"/>
</svg>
