<svg width="121" height="126" viewBox="0 0 121 126" fill="none" xmlns="http://www.w3.org/2000/svg">
<path d="M116.84 78.4448C116.342 78.3313 115.838 78.611 115.672 79.0935C104.264 112.144 75.3065 120.215 53.9015 114.149L53.8875 114.145C42.95 111.216 33.4961 104.393 27.3085 94.9666C21.121 85.5398 18.6264 74.1588 20.2971 62.9706C20.2984 62.9619 20.2996 62.9532 20.3007 62.9444C21.76 51.0222 27.7337 40.0726 37.0022 32.3369L37.0199 32.3217C42.5887 27.4494 49.1939 23.9028 56.33 21.9532C63.4662 20.0036 70.9438 19.7027 78.1908 21.0731C78.6691 21.1635 79.1431 20.8964 79.3134 20.4404L84.9238 5.42152C85.021 5.16132 85.0056 4.87243 84.8813 4.62405C84.757 4.37566 84.5349 4.19016 84.2684 4.112C67.2964 -0.865544 48.921 3.00724 33.8211 12.559C18.72 22.1116 6.80832 37.3962 2.79677 55.3793L2.79628 55.3815C0.854779 64.1782 0.755045 73.2677 2.50381 82.0807C4.25257 90.8938 7.8121 99.24 12.9595 106.596C18.1068 113.953 24.7309 120.161 32.4164 124.831C40.1019 129.502 48.683 132.534 57.622 133.739L57.6242 133.739C77.2023 136.333 94.9398 130.17 108.258 120.119C121.557 110.083 130.531 96.1061 132.496 82.963C132.573 82.4459 132.239 81.9565 131.729 81.8402L116.84 78.4448ZM72.2621 99.4419C76.4001 98.7879 80.3679 97.3085 83.9275 95.0926C87.5692 93.0778 90.7778 90.3648 93.3667 87.1109C95.9612 83.8501 97.8816 80.1113 99.0155 76.1123C100.149 72.1133 100.474 67.9341 99.9702 63.8188C99.4663 59.7034 98.1439 55.7344 96.0801 52.1435C94.0162 48.5527 91.2524 45.4122 87.9501 42.9053C84.6478 40.3985 80.8733 38.5755 76.8472 37.5424C72.8211 36.5094 68.6239 36.2869 64.5005 36.8875C60.3841 37.4871 56.4234 38.895 52.8483 41.0292C49.1617 43.0272 45.9089 45.7375 43.2814 49.0006C40.6495 52.2693 38.6985 56.0265 37.5441 60.0503C36.3897 64.0742 36.0554 68.2829 36.5614 72.4275C37.0673 76.5704 38.4024 80.5649 40.4881 84.1749C42.5374 87.8075 45.3067 90.984 48.6287 93.5131C51.9522 96.0431 55.7598 97.8726 59.8217 98.8914C63.8835 99.9102 68.1154 100.097 72.2621 99.4419ZM71.7641 55.394C75.1539 56.2881 78.0609 58.4414 79.8915 61.4107C81.5766 64.4611 82.027 68.0463 81.1479 71.4362C80.2681 74.8292 78.1228 77.7702 75.1489 79.6571C73.6244 80.5619 71.9379 81.1592 70.186 81.4151C68.4295 81.6716 66.6424 81.5797 64.9275 81.1451C63.2126 80.7105 61.6039 79.9418 60.1938 78.8837C58.7837 77.8256 57.5997 76.4988 56.71 74.9798C55.8203 73.4608 55.2422 71.7793 55.009 70.032C54.7759 68.2846 54.8924 66.5057 55.3522 64.7976C55.812 63.0896 56.6061 61.4861 57.689 60.0799C58.7694 58.6771 60.1157 57.4984 61.6509 56.6115C64.752 54.934 68.371 54.499 71.7641 55.394Z" fill="white" stroke="white" stroke-width="2" stroke-linejoin="round"/>
</svg>
