<svg width="173" height="129" viewBox="0 0 173 129" fill="none" xmlns="http://www.w3.org/2000/svg">
<path d="M55.7205 49.1093L78.5162 43.0012L61.2854 87.3013L98.5912 117.922L74.4888 124.38L52.9017 104.799L43.5621 132.667L20.7664 138.775L37.9972 94.4751L0.691377 63.8543L24.7938 57.3961L46.3809 76.9779L55.7205 49.1093Z" fill="white"/>
<path d="M153.554 59.6212L134.388 88.5667L177.511 77.0119L182.452 95.4517L108.693 115.215L104.413 99.244L136.412 48.4968C140.626 41.7654 142.006 35.6894 140.554 30.2688C139.49 26.3001 137.305 23.5657 133.998 22.0656C130.666 20.4687 126.821 20.2538 122.465 21.421C117.722 22.6919 114.385 25.1424 112.452 28.7725C110.494 32.3059 110.216 36.6861 111.616 41.9131L90.1272 47.6711C87.1963 36.733 88.3243 27.1973 93.511 19.064C98.6717 10.8339 106.818 5.22745 117.95 2.24473C128.694 -0.634239 138.013 -0.122522 145.906 3.77989C153.895 7.65635 159.187 14.4344 161.781 24.1142C164.712 35.0522 161.969 46.8879 153.554 59.6212Z" fill="white"/>
</svg>
