<svg width="154" height="136" viewBox="0 0 154 136" fill="none" xmlns="http://www.w3.org/2000/svg">
<path d="M51.0184 22.881L76.1735 116.761L101.938 109.857L107.418 130.308L27.8695 151.623L22.3897 131.172L53.1463 122.931L34.9811 55.1379L6.38193 71.4306L0.945321 51.1409L51.0184 22.881Z" fill="white"/>
<path d="M121.698 110.431C110.04 101.703 101.996 89.0736 97.5661 72.5413C93.1362 56.0089 93.7877 41.0491 99.5205 27.6618C105.361 14.2457 114.937 5.75419 128.248 2.18732C141.56 -1.37956 154.045 1.20069 165.704 9.92806C177.362 18.6554 185.406 31.2853 189.836 47.8176C194.266 64.35 193.614 79.3098 187.881 92.6971C182.149 106.084 172.626 114.562 159.315 118.128C146.003 121.695 133.464 119.129 121.698 110.431ZM120.602 38.0638C118.285 46.1636 118.551 55.5275 121.398 66.1554C124.246 76.7833 128.698 85.0254 134.755 90.8815C140.919 96.7088 147.221 98.7595 153.662 97.0336C160.103 95.3077 164.483 90.3948 166.8 82.2951C169.117 74.1953 168.851 64.8314 166.004 54.2035C163.156 43.5756 158.704 35.3335 152.647 29.4775C146.591 23.6213 140.342 21.5562 133.901 23.2822C127.459 25.0081 123.027 29.9353 120.602 38.0638Z" fill="white"/>
</svg>
