<svg width="370" height="142" viewBox="0 0 370 142" fill="none" xmlns="http://www.w3.org/2000/svg">
<line x1="370" y1="20.8077" x2="242" y2="20.8077" stroke="url(#paint0_linear_2019_2)"/>
<line x1="370" y1="15.7308" x2="198" y2="15.7308" stroke="url(#paint1_linear_2019_2)"/>
<line x1="370" y1="10.6538" x2="153" y2="10.6539" stroke="url(#paint2_linear_2019_2)"/>
<line x1="368.997" y1="5.57692" x2="77.2087" y2="5.57692" stroke="url(#paint3_linear_2019_2)"/>
<line x1="366.992" y1="0.5" x2="6.10352e-05" y2="0.5" stroke="url(#paint4_linear_2019_2)"/>
<line x1="370" y1="25.8846" x2="252" y2="25.8846" stroke="url(#paint5_linear_2019_2)"/>
<line x1="370" y1="30.9615" x2="262" y2="30.9615" stroke="url(#paint6_linear_2019_2)"/>
<line x1="370" y1="36.0385" x2="270" y2="36.0385" stroke="url(#paint7_linear_2019_2)"/>
<line x1="370" y1="41.1154" x2="278" y2="41.1154" stroke="url(#paint8_linear_2019_2)"/>
<line x1="370" y1="46.1923" x2="286" y2="46.1923" stroke="url(#paint9_linear_2019_2)"/>
<line x1="370" y1="51.2692" x2="294" y2="51.2692" stroke="url(#paint10_linear_2019_2)"/>
<line x1="370" y1="56.3461" x2="302" y2="56.3462" stroke="url(#paint11_linear_2019_2)"/>
<line x1="370" y1="61.4231" x2="308" y2="61.4231" stroke="url(#paint12_linear_2019_2)"/>
<line x1="370" y1="66.5" x2="314" y2="66.5" stroke="url(#paint13_linear_2019_2)"/>
<line y1="-0.5" x2="128" y2="-0.5" transform="matrix(-1 -8.86717e-08 -8.61915e-08 1 370 121.714)" stroke="url(#paint14_linear_2019_2)"/>
<line y1="-0.5" x2="172" y2="-0.5" transform="matrix(-1 -8.86717e-08 -8.61915e-08 1 370 126.786)" stroke="url(#paint15_linear_2019_2)"/>
<line y1="-0.5" x2="217" y2="-0.5" transform="matrix(-1 -8.86717e-08 -8.61915e-08 1 370 131.857)" stroke="url(#paint16_linear_2019_2)"/>
<line y1="-0.5" x2="291.789" y2="-0.5" transform="matrix(-1 0 0 1 368.997 136.929)" stroke="url(#paint17_linear_2019_2)"/>
<line y1="-0.5" x2="366.992" y2="-0.5" transform="matrix(-1 0 0 1 366.992 142)" stroke="url(#paint18_linear_2019_2)"/>
<line y1="-0.5" x2="118" y2="-0.5" transform="matrix(-1 8.86717e-08 8.61915e-08 1 370 116.643)" stroke="url(#paint19_linear_2019_2)"/>
<line y1="-0.5" x2="108" y2="-0.5" transform="matrix(-1 8.86717e-08 8.61915e-08 1 370 111.571)" stroke="url(#paint20_linear_2019_2)"/>
<line y1="-0.5" x2="100" y2="-0.5" transform="matrix(-1 -8.86717e-08 -8.61915e-08 1 370 106.5)" stroke="url(#paint21_linear_2019_2)"/>
<line y1="-0.5" x2="92" y2="-0.5" transform="matrix(-1 -8.86717e-08 -8.61915e-08 1 370 101.429)" stroke="url(#paint22_linear_2019_2)"/>
<line y1="-0.5" x2="84" y2="-0.5" transform="matrix(-1 -8.86717e-08 -8.61915e-08 1 370 96.3571)" stroke="url(#paint23_linear_2019_2)"/>
<line y1="-0.5" x2="76" y2="-0.5" transform="matrix(-1 -8.86717e-08 -8.61915e-08 1 370 91.2857)" stroke="url(#paint24_linear_2019_2)"/>
<line y1="-0.5" x2="68" y2="-0.5" transform="matrix(-1 -8.86717e-08 -8.61915e-08 1 370 86.2143)" stroke="url(#paint25_linear_2019_2)"/>
<line y1="-0.5" x2="62" y2="-0.5" transform="matrix(-1 8.86717e-08 8.61915e-08 1 370 81.1429)" stroke="url(#paint26_linear_2019_2)"/>
<line y1="-0.5" x2="56" y2="-0.5" transform="matrix(-1 -8.86717e-08 -8.61915e-08 1 370 76.0714)" stroke="url(#paint27_linear_2019_2)"/>
<line x1="370" y1="71.5" x2="333" y2="71.5" stroke="url(#paint28_linear_2019_2)"/>
<defs>
<linearGradient id="paint0_linear_2019_2" x1="370" y1="20.3077" x2="242" y2="20.3077" gradientUnits="userSpaceOnUse">
<stop offset="0.285" stop-color="#9C72FF"/>
<stop offset="1" stop-color="#9C72FF" stop-opacity="0"/>
</linearGradient>
<linearGradient id="paint1_linear_2019_2" x1="370" y1="15.2308" x2="198" y2="15.2308" gradientUnits="userSpaceOnUse">
<stop offset="0.285" stop-color="#9C72FF"/>
<stop offset="1" stop-color="#9C72FF" stop-opacity="0"/>
</linearGradient>
<linearGradient id="paint2_linear_2019_2" x1="370" y1="10.1538" x2="153" y2="10.1539" gradientUnits="userSpaceOnUse">
<stop offset="0.285" stop-color="#9C72FF"/>
<stop offset="1" stop-color="#9C72FF" stop-opacity="0"/>
</linearGradient>
<linearGradient id="paint3_linear_2019_2" x1="368.997" y1="5.07692" x2="77.2087" y2="5.07695" gradientUnits="userSpaceOnUse">
<stop offset="0.285" stop-color="#9C72FF"/>
<stop offset="1" stop-color="#9C72FF" stop-opacity="0"/>
</linearGradient>
<linearGradient id="paint4_linear_2019_2" x1="366.992" y1="0" x2="6.10352e-05" y2="4.87701e-05" gradientUnits="userSpaceOnUse">
<stop offset="0.285" stop-color="#9C72FF"/>
<stop offset="1" stop-color="#9C72FF" stop-opacity="0"/>
</linearGradient>
<linearGradient id="paint5_linear_2019_2" x1="370" y1="25.3846" x2="252" y2="25.3846" gradientUnits="userSpaceOnUse">
<stop offset="0.285" stop-color="#9C72FF"/>
<stop offset="1" stop-color="#9C72FF" stop-opacity="0"/>
</linearGradient>
<linearGradient id="paint6_linear_2019_2" x1="370" y1="30.4615" x2="262" y2="30.4615" gradientUnits="userSpaceOnUse">
<stop offset="0.285" stop-color="#9C72FF"/>
<stop offset="1" stop-color="#9C72FF" stop-opacity="0"/>
</linearGradient>
<linearGradient id="paint7_linear_2019_2" x1="370" y1="35.5385" x2="270" y2="35.5385" gradientUnits="userSpaceOnUse">
<stop offset="0.285" stop-color="#9C72FF"/>
<stop offset="1" stop-color="#9C72FF" stop-opacity="0"/>
</linearGradient>
<linearGradient id="paint8_linear_2019_2" x1="370" y1="40.6154" x2="278" y2="40.6154" gradientUnits="userSpaceOnUse">
<stop offset="0.285" stop-color="#9C72FF"/>
<stop offset="1" stop-color="#9C72FF" stop-opacity="0"/>
</linearGradient>
<linearGradient id="paint9_linear_2019_2" x1="370" y1="45.6923" x2="286" y2="45.6923" gradientUnits="userSpaceOnUse">
<stop offset="0.285" stop-color="#9C72FF"/>
<stop offset="1" stop-color="#9C72FF" stop-opacity="0"/>
</linearGradient>
<linearGradient id="paint10_linear_2019_2" x1="370" y1="50.7692" x2="294" y2="50.7692" gradientUnits="userSpaceOnUse">
<stop offset="0.285" stop-color="#9C72FF"/>
<stop offset="1" stop-color="#9C72FF" stop-opacity="0"/>
</linearGradient>
<linearGradient id="paint11_linear_2019_2" x1="370" y1="55.8461" x2="302" y2="55.8462" gradientUnits="userSpaceOnUse">
<stop offset="0.285" stop-color="#9C72FF"/>
<stop offset="1" stop-color="#9C72FF" stop-opacity="0"/>
</linearGradient>
<linearGradient id="paint12_linear_2019_2" x1="370" y1="60.9231" x2="308" y2="60.9231" gradientUnits="userSpaceOnUse">
<stop offset="0.285" stop-color="#9C72FF"/>
<stop offset="1" stop-color="#9C72FF" stop-opacity="0"/>
</linearGradient>
<linearGradient id="paint13_linear_2019_2" x1="370" y1="66" x2="314" y2="66" gradientUnits="userSpaceOnUse">
<stop offset="0.285" stop-color="#9C72FF"/>
<stop offset="1" stop-color="#9C72FF" stop-opacity="0"/>
</linearGradient>
<linearGradient id="paint14_linear_2019_2" x1="0" y1="0" x2="128" y2="-5.93281e-06" gradientUnits="userSpaceOnUse">
<stop stop-color="#9C72FF"/>
<stop offset="1" stop-color="#9C72FF" stop-opacity="0"/>
</linearGradient>
<linearGradient id="paint15_linear_2019_2" x1="0" y1="0" x2="172" y2="-1.07127e-05" gradientUnits="userSpaceOnUse">
<stop stop-color="#9C72FF"/>
<stop offset="1" stop-color="#9C72FF" stop-opacity="0"/>
</linearGradient>
<linearGradient id="paint16_linear_2019_2" x1="0" y1="0" x2="217" y2="-1.70514e-05" gradientUnits="userSpaceOnUse">
<stop stop-color="#9C72FF"/>
<stop offset="1" stop-color="#9C72FF" stop-opacity="0"/>
</linearGradient>
<linearGradient id="paint17_linear_2019_2" x1="0" y1="0" x2="291.789" y2="-3.08303e-05" gradientUnits="userSpaceOnUse">
<stop stop-color="#9C72FF"/>
<stop offset="1" stop-color="#9C72FF" stop-opacity="0"/>
</linearGradient>
<linearGradient id="paint18_linear_2019_2" x1="0" y1="0" x2="366.992" y2="-4.87701e-05" gradientUnits="userSpaceOnUse">
<stop stop-color="#9C72FF"/>
<stop offset="1" stop-color="#9C72FF" stop-opacity="0"/>
</linearGradient>
<linearGradient id="paint19_linear_2019_2" x1="0" y1="0" x2="118" y2="-5.04202e-06" gradientUnits="userSpaceOnUse">
<stop stop-color="#9C72FF"/>
<stop offset="1" stop-color="#9C72FF" stop-opacity="0"/>
</linearGradient>
<linearGradient id="paint20_linear_2019_2" x1="0" y1="0" x2="108" y2="-4.22365e-06" gradientUnits="userSpaceOnUse">
<stop stop-color="#9C72FF"/>
<stop offset="1" stop-color="#9C72FF" stop-opacity="0"/>
</linearGradient>
<linearGradient id="paint21_linear_2019_2" x1="0" y1="0" x2="100" y2="-3.6211e-06" gradientUnits="userSpaceOnUse">
<stop stop-color="#9C72FF"/>
<stop offset="1" stop-color="#9C72FF" stop-opacity="0"/>
</linearGradient>
<linearGradient id="paint22_linear_2019_2" x1="0" y1="0" x2="92" y2="-3.0649e-06" gradientUnits="userSpaceOnUse">
<stop stop-color="#9C72FF"/>
<stop offset="1" stop-color="#9C72FF" stop-opacity="0"/>
</linearGradient>
<linearGradient id="paint23_linear_2019_2" x1="0" y1="0" x2="84" y2="-2.55505e-06" gradientUnits="userSpaceOnUse">
<stop stop-color="#9C72FF"/>
<stop offset="1" stop-color="#9C72FF" stop-opacity="0"/>
</linearGradient>
<linearGradient id="paint24_linear_2019_2" x1="0" y1="0" x2="76" y2="-2.09155e-06" gradientUnits="userSpaceOnUse">
<stop stop-color="#9C72FF"/>
<stop offset="1" stop-color="#9C72FF" stop-opacity="0"/>
</linearGradient>
<linearGradient id="paint25_linear_2019_2" x1="0" y1="0" x2="68" y2="-1.6744e-06" gradientUnits="userSpaceOnUse">
<stop stop-color="#9C72FF"/>
<stop offset="1" stop-color="#9C72FF" stop-opacity="0"/>
</linearGradient>
<linearGradient id="paint26_linear_2019_2" x1="0" y1="0" x2="62" y2="-1.39195e-06" gradientUnits="userSpaceOnUse">
<stop stop-color="#9C72FF"/>
<stop offset="1" stop-color="#9C72FF" stop-opacity="0"/>
</linearGradient>
<linearGradient id="paint27_linear_2019_2" x1="0" y1="0" x2="56" y2="-1.13558e-06" gradientUnits="userSpaceOnUse">
<stop stop-color="#9C72FF"/>
<stop offset="1" stop-color="#9C72FF" stop-opacity="0"/>
</linearGradient>
<linearGradient id="paint28_linear_2019_2" x1="370" y1="71" x2="333" y2="71" gradientUnits="userSpaceOnUse">
<stop stop-color="#9C72FF"/>
<stop offset="1" stop-color="#9C72FF" stop-opacity="0"/>
</linearGradient>
</defs>
</svg>
