<svg width="334" height="142" viewBox="0 0 334 142" fill="none" xmlns="http://www.w3.org/2000/svg">
<line x1="334" y1="20.8077" x2="218.454" y2="20.8077" stroke="url(#paint0_linear_2001_3)"/>
<line x1="334" y1="15.7308" x2="178.735" y2="15.7308" stroke="url(#paint1_linear_2001_3)"/>
<line x1="334" y1="10.6538" x2="138.114" y2="10.6539" stroke="url(#paint2_linear_2001_3)"/>
<line x1="333.095" y1="5.57691" x2="69.6968" y2="5.57691" stroke="url(#paint3_linear_2001_3)"/>
<line x1="331.284" y1="0.49999" x2="0.000152588" y2="0.49999" stroke="url(#paint4_linear_2001_3)"/>
<line x1="334" y1="25.8846" x2="227.481" y2="25.8846" stroke="url(#paint5_linear_2001_3)"/>
<line x1="334" y1="30.9615" x2="236.508" y2="30.9615" stroke="url(#paint6_linear_2001_3)"/>
<line x1="334" y1="36.0384" x2="243.73" y2="36.0385" stroke="url(#paint7_linear_2001_3)"/>
<line x1="334" y1="41.1154" x2="250.951" y2="41.1154" stroke="url(#paint8_linear_2001_3)"/>
<line x1="334" y1="46.1923" x2="258.173" y2="46.1923" stroke="url(#paint9_linear_2001_3)"/>
<line x1="334" y1="51.2692" x2="265.395" y2="51.2692" stroke="url(#paint10_linear_2001_3)"/>
<line x1="334" y1="56.3461" x2="272.616" y2="56.3461" stroke="url(#paint11_linear_2001_3)"/>
<line x1="334" y1="61.4231" x2="278.033" y2="61.4231" stroke="url(#paint12_linear_2001_3)"/>
<line x1="334" y1="66.5" x2="283.449" y2="66.5" stroke="url(#paint13_linear_2001_3)"/>
<line y1="-0.5" x2="115.546" y2="-0.5" transform="matrix(-1 -9.82293e-08 -7.78052e-08 1 334 121.714)" stroke="url(#paint14_linear_2001_3)"/>
<line y1="-0.5" x2="155.265" y2="-0.5" transform="matrix(-1 -9.82293e-08 -7.78052e-08 1 334 126.786)" stroke="url(#paint15_linear_2001_3)"/>
<line y1="-0.5" x2="195.886" y2="-0.5" transform="matrix(-1 -9.82293e-08 -7.78052e-08 1 334 131.857)" stroke="url(#paint16_linear_2001_3)"/>
<line y1="-0.5" x2="263.398" y2="-0.5" transform="matrix(-1 0 0 1 333.095 136.929)" stroke="url(#paint17_linear_2001_3)"/>
<line y1="-0.5" x2="331.284" y2="-0.5" transform="matrix(-1 0 0 1 331.284 142)" stroke="url(#paint18_linear_2001_3)"/>
<line y1="-0.5" x2="106.519" y2="-0.5" transform="matrix(-1 9.82293e-08 7.78052e-08 1 334 116.643)" stroke="url(#paint19_linear_2001_3)"/>
<line y1="-0.5" x2="97.4917" y2="-0.5" transform="matrix(-1 9.82293e-08 7.78052e-08 1 334 111.571)" stroke="url(#paint20_linear_2001_3)"/>
<line y1="-0.5" x2="90.2701" y2="-0.5" transform="matrix(-1 -9.82293e-08 -7.78052e-08 1 334 106.5)" stroke="url(#paint21_linear_2001_3)"/>
<line y1="-0.5" x2="83.0485" y2="-0.5" transform="matrix(-1 -9.82293e-08 -7.78052e-08 1 334 101.429)" stroke="url(#paint22_linear_2001_3)"/>
<line y1="-0.5" x2="75.8269" y2="-0.5" transform="matrix(-1 -9.82293e-08 -7.78052e-08 1 334 96.3571)" stroke="url(#paint23_linear_2001_3)"/>
<line y1="-0.5" x2="68.6053" y2="-0.5" transform="matrix(-1 -9.82293e-08 -7.78052e-08 1 334 91.2857)" stroke="url(#paint24_linear_2001_3)"/>
<line y1="-0.5" x2="61.3837" y2="-0.5" transform="matrix(-1 -9.82293e-08 -7.78052e-08 1 334 86.2143)" stroke="url(#paint25_linear_2001_3)"/>
<line y1="-0.5" x2="55.9675" y2="-0.5" transform="matrix(-1 9.82293e-08 7.78052e-08 1 334 81.1429)" stroke="url(#paint26_linear_2001_3)"/>
<line y1="-0.5" x2="50.5513" y2="-0.5" transform="matrix(-1 -9.82293e-08 -7.78052e-08 1 334 76.0714)" stroke="url(#paint27_linear_2001_3)"/>
<line x1="334" y1="71.5" x2="300.6" y2="71.5" stroke="url(#paint28_linear_2001_3)"/>
<defs>
<linearGradient id="paint0_linear_2001_3" x1="334" y1="20.3077" x2="218.454" y2="20.3077" gradientUnits="userSpaceOnUse">
<stop offset="0.285" stop-color="#9C72FF"/>
<stop offset="1" stop-color="#9C72FF" stop-opacity="0"/>
</linearGradient>
<linearGradient id="paint1_linear_2001_3" x1="334" y1="15.2308" x2="178.735" y2="15.2308" gradientUnits="userSpaceOnUse">
<stop offset="0.285" stop-color="#9C72FF"/>
<stop offset="1" stop-color="#9C72FF" stop-opacity="0"/>
</linearGradient>
<linearGradient id="paint2_linear_2001_3" x1="334" y1="10.1538" x2="138.114" y2="10.1539" gradientUnits="userSpaceOnUse">
<stop offset="0.285" stop-color="#9C72FF"/>
<stop offset="1" stop-color="#9C72FF" stop-opacity="0"/>
</linearGradient>
<linearGradient id="paint3_linear_2001_3" x1="333.095" y1="5.07691" x2="69.6968" y2="5.07693" gradientUnits="userSpaceOnUse">
<stop offset="0.285" stop-color="#9C72FF"/>
<stop offset="1" stop-color="#9C72FF" stop-opacity="0"/>
</linearGradient>
<linearGradient id="paint4_linear_2001_3" x1="331.284" y1="-1.04904e-05" x2="0.000152588" y2="2.92508e-05" gradientUnits="userSpaceOnUse">
<stop offset="0.285" stop-color="#9C72FF"/>
<stop offset="1" stop-color="#9C72FF" stop-opacity="0"/>
</linearGradient>
<linearGradient id="paint5_linear_2001_3" x1="334" y1="25.3846" x2="227.481" y2="25.3846" gradientUnits="userSpaceOnUse">
<stop offset="0.285" stop-color="#9C72FF"/>
<stop offset="1" stop-color="#9C72FF" stop-opacity="0"/>
</linearGradient>
<linearGradient id="paint6_linear_2001_3" x1="334" y1="30.4615" x2="236.508" y2="30.4615" gradientUnits="userSpaceOnUse">
<stop offset="0.285" stop-color="#9C72FF"/>
<stop offset="1" stop-color="#9C72FF" stop-opacity="0"/>
</linearGradient>
<linearGradient id="paint7_linear_2001_3" x1="334" y1="35.5384" x2="243.73" y2="35.5385" gradientUnits="userSpaceOnUse">
<stop offset="0.285" stop-color="#9C72FF"/>
<stop offset="1" stop-color="#9C72FF" stop-opacity="0"/>
</linearGradient>
<linearGradient id="paint8_linear_2001_3" x1="334" y1="40.6154" x2="250.951" y2="40.6154" gradientUnits="userSpaceOnUse">
<stop offset="0.285" stop-color="#9C72FF"/>
<stop offset="1" stop-color="#9C72FF" stop-opacity="0"/>
</linearGradient>
<linearGradient id="paint9_linear_2001_3" x1="334" y1="45.6923" x2="258.173" y2="45.6923" gradientUnits="userSpaceOnUse">
<stop offset="0.285" stop-color="#9C72FF"/>
<stop offset="1" stop-color="#9C72FF" stop-opacity="0"/>
</linearGradient>
<linearGradient id="paint10_linear_2001_3" x1="334" y1="50.7692" x2="265.395" y2="50.7692" gradientUnits="userSpaceOnUse">
<stop offset="0.285" stop-color="#9C72FF"/>
<stop offset="1" stop-color="#9C72FF" stop-opacity="0"/>
</linearGradient>
<linearGradient id="paint11_linear_2001_3" x1="334" y1="55.8461" x2="272.616" y2="55.8461" gradientUnits="userSpaceOnUse">
<stop offset="0.285" stop-color="#9C72FF"/>
<stop offset="1" stop-color="#9C72FF" stop-opacity="0"/>
</linearGradient>
<linearGradient id="paint12_linear_2001_3" x1="334" y1="60.9231" x2="278.033" y2="60.9231" gradientUnits="userSpaceOnUse">
<stop offset="0.285" stop-color="#9C72FF"/>
<stop offset="1" stop-color="#9C72FF" stop-opacity="0"/>
</linearGradient>
<linearGradient id="paint13_linear_2001_3" x1="334" y1="66" x2="283.449" y2="66" gradientUnits="userSpaceOnUse">
<stop offset="0.285" stop-color="#9C72FF"/>
<stop offset="1" stop-color="#9C72FF" stop-opacity="0"/>
</linearGradient>
<linearGradient id="paint14_linear_2001_3" x1="0" y1="0" x2="115.546" y2="-4.83447e-06" gradientUnits="userSpaceOnUse">
<stop stop-color="#9C72FF"/>
<stop offset="1" stop-color="#9C72FF" stop-opacity="0"/>
</linearGradient>
<linearGradient id="paint15_linear_2001_3" x1="0" y1="0" x2="155.265" y2="-8.72942e-06" gradientUnits="userSpaceOnUse">
<stop stop-color="#9C72FF"/>
<stop offset="1" stop-color="#9C72FF" stop-opacity="0"/>
</linearGradient>
<linearGradient id="paint16_linear_2001_3" x1="0" y1="0" x2="195.886" y2="-1.38947e-05" gradientUnits="userSpaceOnUse">
<stop stop-color="#9C72FF"/>
<stop offset="1" stop-color="#9C72FF" stop-opacity="0"/>
</linearGradient>
<linearGradient id="paint17_linear_2001_3" x1="0" y1="0" x2="263.398" y2="-2.51226e-05" gradientUnits="userSpaceOnUse">
<stop stop-color="#9C72FF"/>
<stop offset="1" stop-color="#9C72FF" stop-opacity="0"/>
</linearGradient>
<linearGradient id="paint18_linear_2001_3" x1="0" y1="0" x2="331.284" y2="-3.97412e-05" gradientUnits="userSpaceOnUse">
<stop stop-color="#9C72FF"/>
<stop offset="1" stop-color="#9C72FF" stop-opacity="0"/>
</linearGradient>
<linearGradient id="paint19_linear_2001_3" x1="0" y1="0" x2="106.519" y2="-4.10859e-06" gradientUnits="userSpaceOnUse">
<stop stop-color="#9C72FF"/>
<stop offset="1" stop-color="#9C72FF" stop-opacity="0"/>
</linearGradient>
<linearGradient id="paint20_linear_2001_3" x1="0" y1="0" x2="97.4917" y2="-3.44172e-06" gradientUnits="userSpaceOnUse">
<stop stop-color="#9C72FF"/>
<stop offset="1" stop-color="#9C72FF" stop-opacity="0"/>
</linearGradient>
<linearGradient id="paint21_linear_2001_3" x1="0" y1="0" x2="90.2701" y2="-2.95072e-06" gradientUnits="userSpaceOnUse">
<stop stop-color="#9C72FF"/>
<stop offset="1" stop-color="#9C72FF" stop-opacity="0"/>
</linearGradient>
<linearGradient id="paint22_linear_2001_3" x1="0" y1="0" x2="83.0485" y2="-2.49749e-06" gradientUnits="userSpaceOnUse">
<stop stop-color="#9C72FF"/>
<stop offset="1" stop-color="#9C72FF" stop-opacity="0"/>
</linearGradient>
<linearGradient id="paint23_linear_2001_3" x1="0" y1="0" x2="75.8269" y2="-2.08203e-06" gradientUnits="userSpaceOnUse">
<stop stop-color="#9C72FF"/>
<stop offset="1" stop-color="#9C72FF" stop-opacity="0"/>
</linearGradient>
<linearGradient id="paint24_linear_2001_3" x1="0" y1="0" x2="68.6053" y2="-1.70434e-06" gradientUnits="userSpaceOnUse">
<stop stop-color="#9C72FF"/>
<stop offset="1" stop-color="#9C72FF" stop-opacity="0"/>
</linearGradient>
<linearGradient id="paint25_linear_2001_3" x1="0" y1="0" x2="61.3837" y2="-1.36441e-06" gradientUnits="userSpaceOnUse">
<stop stop-color="#9C72FF"/>
<stop offset="1" stop-color="#9C72FF" stop-opacity="0"/>
</linearGradient>
<linearGradient id="paint26_linear_2001_3" x1="0" y1="0" x2="55.9675" y2="-1.13426e-06" gradientUnits="userSpaceOnUse">
<stop stop-color="#9C72FF"/>
<stop offset="1" stop-color="#9C72FF" stop-opacity="0"/>
</linearGradient>
<linearGradient id="paint27_linear_2001_3" x1="0" y1="0" x2="50.5513" y2="-9.25347e-07" gradientUnits="userSpaceOnUse">
<stop stop-color="#9C72FF"/>
<stop offset="1" stop-color="#9C72FF" stop-opacity="0"/>
</linearGradient>
<linearGradient id="paint28_linear_2001_3" x1="334" y1="71" x2="300.6" y2="71" gradientUnits="userSpaceOnUse">
<stop stop-color="#9C72FF"/>
<stop offset="1" stop-color="#9C72FF" stop-opacity="0"/>
</linearGradient>
</defs>
</svg>
