<svg width="101" height="35" viewBox="0 0 101 35" fill="none" xmlns="http://www.w3.org/2000/svg">
<path d="M43.6277 17.2846C43.6277 18.194 43.8323 18.9897 44.2416 19.6717C44.6508 20.3538 45.1964 20.8881 45.8785 21.2746C46.5833 21.6611 47.3563 21.8543 48.1975 21.8543C48.8795 21.8543 49.5388 21.752 50.1754 21.5474C50.812 21.32 51.3804 21.0245 51.8806 20.6607C52.4035 20.2742 52.8013 19.8309 53.0741 19.3307V23.8664C52.5285 24.3665 51.8123 24.7644 50.9257 25.0599C50.0617 25.3328 49.05 25.4692 47.8905 25.4692C46.2309 25.4692 44.7304 25.1281 43.389 24.4461C42.0704 23.764 41.0246 22.8092 40.2516 21.5815C39.5013 20.3311 39.1262 18.8987 39.1262 17.2846C39.1262 15.6476 39.5013 14.2153 40.2516 12.9876C41.0246 11.7599 42.0704 10.8051 43.389 10.123C44.7304 9.44097 46.2309 9.09994 47.8905 9.09994C49.05 9.09994 50.0617 9.24772 50.9257 9.54328C51.8123 9.8161 52.5285 10.1912 53.0741 10.6687V15.2043C52.8013 14.7041 52.3921 14.2722 51.8464 13.9084C51.3235 13.5219 50.7438 13.2264 50.1072 13.0217C49.4706 12.8171 48.8341 12.7148 48.1975 12.7148C47.3563 12.7148 46.5833 12.9194 45.8785 13.3287C45.1964 13.7152 44.6508 14.2494 44.2416 14.9315C43.8323 15.6135 43.6277 16.3979 43.6277 17.2846Z" fill="white"/>
<path d="M55.9134 17.2846C55.9134 15.6476 56.2886 14.2153 57.0388 12.9876C57.8118 11.7599 58.8463 10.8051 60.1422 10.123C61.4608 9.44097 62.9499 9.09994 64.6096 9.09994C66.2693 9.09994 67.747 9.44097 69.0429 10.123C70.3616 10.8051 71.396 11.7599 72.1463 12.9876C72.9193 14.2153 73.3058 15.6476 73.3058 17.2846C73.3058 18.8987 72.9193 20.3311 72.1463 21.5815C71.396 22.8092 70.3616 23.764 69.0429 24.4461C67.747 25.1281 66.2693 25.4692 64.6096 25.4692C62.9499 25.4692 61.4608 25.1281 60.1422 24.4461C58.8463 23.764 57.8118 22.8092 57.0388 21.5815C56.2886 20.3311 55.9134 18.8987 55.9134 17.2846ZM60.415 17.2846C60.415 18.1712 60.5969 18.9556 60.9606 19.6376C61.3471 20.297 61.8587 20.8199 62.4952 21.2064C63.1318 21.5701 63.8366 21.752 64.6096 21.752C65.3826 21.752 66.0874 21.5701 66.724 21.2064C67.3605 20.8199 67.8607 20.297 68.2245 19.6376C68.611 18.9556 68.8042 18.1712 68.8042 17.2846C68.8042 16.3979 68.611 15.6135 68.2245 14.9315C67.8607 14.2494 67.3605 13.7265 66.724 13.3628C66.0874 12.999 65.3826 12.8171 64.6096 12.8171C63.8366 12.8171 63.1318 12.999 62.4952 13.3628C61.8587 13.7265 61.3471 14.2494 60.9606 14.9315C60.5969 15.6135 60.415 16.3979 60.415 17.2846Z" fill="white"/>
<path d="M76.4149 3.37071C76.4149 2.64319 76.6764 2.05208 77.1993 1.59738C77.7222 1.11994 78.3474 0.881226 79.0749 0.881226C79.8025 0.881226 80.4163 1.11994 80.9165 1.59738C81.4394 2.05208 81.7008 2.64319 81.7008 3.37071C81.7008 4.0755 81.4394 4.66661 80.9165 5.14405C80.4163 5.62148 79.8025 5.8602 79.0749 5.8602C78.3474 5.8602 77.7222 5.62148 77.1993 5.14405C76.6764 4.66661 76.4149 4.0755 76.4149 3.37071ZM76.8924 9.44097H81.1893V25.1281H76.8924V9.44097Z" fill="white"/>
<path d="M96.0063 15.5794C96.0063 14.5336 95.8017 13.7379 95.3925 13.1923C94.9833 12.6466 94.3239 12.3738 93.4145 12.3738C92.8007 12.3738 92.2551 12.5102 91.7776 12.783C91.3002 13.0331 90.9364 13.3969 90.6863 13.8743C90.4363 14.3517 90.3112 14.9201 90.3112 15.5794V25.1281H85.8779V9.44097H90.3112V11.8281C90.7886 10.9415 91.4139 10.2708 92.1869 9.8161C92.9826 9.33866 93.9375 9.09994 95.0515 9.09994C96.9157 9.09994 98.3026 9.63422 99.212 10.7028C100.121 11.7486 100.576 13.215 100.576 15.102V25.1281H96.0063V15.5794Z" fill="white"/>
<path d="M27.9683 26.6925L31.0205 29.5109C26.6176 35.021 15.2128 37.6729 6.8047 31.2387C4.88833 29.7655 3.30059 27.9172 2.14096 25.8097C0.981325 23.7021 0.274776 21.3808 0.065573 18.991C-0.14363 16.6012 0.149022 14.1944 0.925195 11.9216C1.70137 9.64869 2.94434 7.55862 4.57624 5.78229C11.2621 -1.46245 23.8703 -2.01975 30.3985 4.79199L27.0271 7.56042C25.4716 6.22809 23.6283 5.26482 21.638 4.74429C19.6478 4.22376 17.5634 4.15976 15.5442 4.55719C12.234 5.12934 9.2701 6.92913 7.25877 9.58844C5.29794 12.0432 4.31458 15.122 4.4943 18.2438C4.67402 21.3656 6.00437 24.3145 8.23428 26.5338C12.5479 30.9535 20.6476 33.0185 27.9683 26.6925Z" fill="#7033FF"/>
<path d="M18.1131 25.6689C17.0049 25.7065 15.9004 25.5219 14.8663 25.1264C13.8323 24.7308 12.89 24.1324 12.0965 23.3673C11.3029 22.6023 10.6744 21.6863 10.249 20.6747C9.82358 19.6632 9.61 18.577 9.62114 17.4817C9.62061 16.3864 9.84245 15.3021 10.2735 14.2929C10.7046 13.2838 11.3362 12.3703 12.1309 11.6064C12.9257 10.8426 13.8674 10.244 14.9004 9.84589C15.9334 9.44783 17.0368 9.25844 18.1452 9.28893C19.2461 9.27221 20.3394 9.47223 21.3612 9.87732C22.3831 10.2824 23.313 10.8844 24.0968 11.6483C24.8806 12.4122 25.5025 13.3226 25.9263 14.3264C26.3501 15.3303 26.5672 16.4074 26.5651 17.495C26.563 18.5826 26.3416 19.6589 25.9139 20.6611C25.4862 21.6633 24.8607 22.5714 24.0739 23.3322C23.2872 24.0931 22.3549 24.6916 21.3315 25.0928C20.3081 25.494 19.214 25.6898 18.1131 25.6689ZM22.0257 17.4755C21.9978 16.4571 21.5758 15.4879 20.8465 14.7675C20.1171 14.047 19.136 13.6302 18.1049 13.6026C17.5847 13.6023 17.0696 13.7036 16.5893 13.9007C16.1089 14.0978 15.6728 14.3868 15.306 14.7511C14.9392 15.1154 14.649 15.5478 14.4521 16.0234C14.2552 16.499 14.1554 17.0084 14.1587 17.5222C14.1619 18.036 14.268 18.5441 14.4709 19.0172C14.6738 19.4903 14.9694 19.9191 15.3407 20.2789C15.7121 20.6387 16.1519 20.9223 16.6347 21.1135C17.1175 21.3047 17.6338 21.3997 18.1539 21.3929C19.1834 21.3511 20.1578 20.9221 20.8775 20.1939C21.5973 19.4656 22.008 18.4932 22.0257 17.4755Z" fill="#7033FF"/>
</svg>
