<svg width="102" height="31" viewBox="0 0 102 31" fill="none" xmlns="http://www.w3.org/2000/svg">
<path d="M36.5586 15.5174C36.5586 20.4612 36.5586 25.4051 36.5586 30.3483C36.5586 30.775 36.3408 30.9883 35.9053 30.9883C33.2318 30.9883 30.5577 30.9883 27.8842 30.9883C27.6417 30.9883 27.5255 30.8662 27.5355 30.6219C27.539 30.5355 27.5361 30.4491 27.5361 30.3627C27.5361 24.5837 27.5372 18.8052 27.532 13.0262C27.532 12.8689 27.638 12.6351 27.3496 12.5896C26.8862 12.5159 26.7542 12.5798 26.6551 12.9248C26.1414 14.7168 25.6323 16.5099 25.1157 18.3007C24.5492 20.2642 23.9735 22.225 23.4053 24.188C22.7793 26.352 22.1526 28.5155 21.5381 30.683C21.4697 30.9243 21.3591 30.9958 21.1153 30.9946C19.2619 30.9854 17.4085 30.9837 15.5557 30.9963C15.273 30.9981 15.1491 30.914 15.0732 30.6409C14.662 29.1612 14.234 27.686 13.8066 26.2109C13.5141 25.2017 13.2077 24.1966 12.9175 23.1863C12.4009 21.3875 11.8953 19.5857 11.3786 17.7869C11.1 16.8163 10.8041 15.8503 10.5237 14.8804C10.3332 14.2208 10.1519 13.5584 9.97468 12.8949C9.89012 12.5798 9.80382 12.5354 9.29298 12.5838C9.0144 12.6097 9.09143 12.8263 9.09143 12.9778C9.08737 18.8237 9.08795 24.6701 9.08853 30.516C9.08853 30.5926 9.08622 30.6721 9.10591 30.7446C9.15282 30.9174 9.06131 30.9733 8.91478 30.9877C8.84759 30.994 8.77983 30.99 8.71206 30.99C5.93199 30.99 3.15249 30.9854 0.372414 30.9969C0.0805064 30.9963 0 30.9215 0 30.6277C0.00752937 20.5482 0.00637101 10.4687 0.00637101 0.389268C0.00637101 0.139667 0.132826 0.014866 0.385736 0.014866C3.2718 0.014866 6.15903 -0.0294862 9.04336 0.0350261C10.3234 0.0638262 11.5199 0.495829 12.5121 1.37942C13.382 2.15414 13.8905 3.11319 14.1738 4.2289C14.6643 6.16427 15.1966 8.08928 15.7057 10.02C15.9559 10.9693 16.1858 11.9232 16.4395 12.8713C16.9133 14.6425 17.405 16.4091 17.8707 18.1826C17.9408 18.4498 18.1041 18.4164 18.2831 18.4118C18.4742 18.4072 18.6885 18.4775 18.7632 18.1837C18.9839 17.3145 19.2242 16.45 19.4553 15.5831C19.716 14.6044 19.9766 13.6252 20.2349 12.646C20.5587 11.418 20.8784 10.1888 21.2027 8.96077C21.5977 7.46431 22.002 5.97074 22.3895 4.47255C22.5985 3.66384 22.847 2.87702 23.3671 2.20137C23.9955 1.38518 24.7722 0.778646 25.7586 0.435924C26.5358 0.165779 27.3276 0.013138 28.1506 0.013714C30.8148 0.015442 33.4785 0.013714 36.1427 0.01429C36.5719 0.01429 36.565 0.01429 36.5615 0.426708C36.5557 1.14671 36.5592 1.86672 36.5592 2.58672C36.5592 6.89695 36.5586 11.2072 36.5586 15.5174Z" fill="#454572"/>
<path d="M40.5266 15.503C40.5266 10.5402 40.5266 5.5779 40.5266 0.615061C40.5266 0.214547 40.7293 0.01429 41.1347 0.01429C43.8181 0.01429 46.5014 0.017746 49.1842 0.00910595C49.4633 0.00795395 49.5612 0.0592182 49.5606 0.371412C49.5491 6.27487 49.552 12.1777 49.5531 18.0812C49.5531 18.2183 49.5132 18.413 49.7309 18.4032C49.9678 18.3922 50.2707 18.5501 50.4161 18.2119C50.832 17.2443 51.2472 16.276 51.6585 15.306C52.2562 13.8983 52.8487 12.4882 53.4464 11.0805C54.2468 9.19635 55.0438 7.3111 55.8546 5.43217C56.2832 4.43972 56.6863 3.43114 57.1966 2.48016C57.8036 1.34946 58.7928 0.613333 60.012 0.200915C60.4001 0.0695863 60.8003 0.00392193 61.2231 0.00680194C63.7709 0.02293 66.3193 0.014866 68.8671 0.014866C69.2355 0.014866 69.2227 0.016018 69.2216 0.383508C69.2158 1.90012 69.2187 3.41674 69.2187 4.93336C69.2187 13.3804 69.2187 21.8275 69.2187 30.2746C69.2187 30.361 69.2175 30.4474 69.2187 30.5338C69.2233 30.8368 69.0766 30.9883 68.7785 30.9883C66.0372 30.9883 63.2966 30.9883 60.5553 30.9883C60.2885 30.9883 60.1551 30.8585 60.1551 30.5989C60.1551 24.734 60.1556 18.8692 60.1498 13.0043C60.1498 12.8638 60.2582 12.6564 60.0207 12.5902C59.6593 12.4894 59.3859 12.5879 59.2735 12.8563C58.8641 13.8349 58.4604 14.8164 58.0532 15.7956C57.4804 17.1723 56.9047 18.5472 56.333 19.9244C55.6762 21.5067 55.027 23.0918 54.3656 24.6718C53.8866 25.8158 53.4232 26.9672 52.8979 28.0898C52.3315 29.3006 51.3839 30.1554 50.1398 30.6496C49.5925 30.8667 49.022 31.0061 48.4058 30.9998C45.906 30.9733 43.4063 30.9888 40.9065 30.9883C40.6382 30.9883 40.5107 30.8564 40.5242 30.5926C40.5289 30.4969 40.526 30.4008 40.526 30.3046C40.526 25.3705 40.5266 20.437 40.5266 15.503Z" fill="#454572"/>
<path d="M82.4287 0.019474C85.5939 0.019474 88.7586 0.019474 91.9238 0.019474C92.8702 0.019474 93.7922 0.177299 94.7021 0.425556C95.8084 0.727382 96.8104 1.23945 97.7289 1.91452C99.2678 3.04637 100.371 4.51403 101.113 6.26392C101.748 7.76556 102.026 9.33287 101.998 10.9537C101.989 11.4577 101.889 11.96 101.841 12.464C101.824 12.6472 101.724 12.714 101.559 12.7215C101.501 12.7244 101.443 12.7226 101.385 12.7226C96.2903 12.7221 91.1958 12.7319 86.1007 12.7094C85.3391 12.7059 84.5775 12.5521 83.8164 12.4657C82.8816 12.3592 82.0036 12.0481 81.1354 11.7106C80.1977 11.346 79.3028 10.891 78.5007 10.2862C77.7443 9.71591 76.9589 9.15891 76.3102 8.47923C75.5538 7.68665 74.8918 6.795 74.2628 5.89528C73.6338 4.99614 73.138 4.00772 72.7957 2.96343C72.5021 2.06832 72.2924 1.14556 72.0422 0.236051C71.9993 0.0799543 72.0602 0.02005 72.2102 0.02005C72.2872 0.02005 72.3648 0.02005 72.4418 0.02005C75.771 0.02005 79.1001 0.02005 82.4293 0.02005L82.4287 0.019474Z" fill="#454572"/>
<path d="M87.3071 14.1068C91.8624 14.1068 96.4183 14.1068 100.974 14.1068C101.403 14.1068 101.404 14.1125 101.254 14.5169C100.755 15.8538 100.021 17.0525 99.0356 18.0835C97.6398 19.5431 95.9503 20.5125 93.9556 20.9105C93.4401 21.0136 92.9067 21.0672 92.3808 21.0695C89.1571 21.0845 85.9339 21.0781 82.7102 21.0787C82.3233 21.0787 82.3152 21.0845 82.3157 21.46C82.3163 24.5509 82.3152 27.6411 82.325 30.732C82.3256 30.9848 82.1947 30.9888 82.0169 30.9888C80.8394 30.9877 79.6619 30.9888 78.4845 30.9888C76.8535 30.9888 75.2225 30.9837 73.5915 30.994C73.3268 30.9958 73.2469 30.922 73.2475 30.6536C73.255 25.2691 73.2533 19.8841 73.2533 14.4996C73.2533 14.1189 73.2654 14.1074 73.6413 14.1074C78.1966 14.1074 82.7524 14.1074 87.3077 14.1074L87.3071 14.1068Z" fill="#454572"/>
</svg>
