<svg width="53" height="72" viewBox="0 0 53 72" fill="none" xmlns="http://www.w3.org/2000/svg">
<path d="M14.6667 79.0833C14.6667 79.5895 15.0772 80 15.5833 80H17.4167C17.9228 80 18.3333 79.5895 18.3333 79.0833V65.3333H32.0833C32.5895 65.3333 33 64.9228 33 64.4167V62.5833C33 62.0772 32.5895 61.6667 32.0833 61.6667H18.3333V47.9167C18.3333 47.4104 17.9228 47 17.4167 47H15.5833C15.0772 47 14.6667 47.4104 14.6667 47.9167V61.6667H0.916667C0.41041 61.6667 0 62.0772 0 62.5833V64.4167C0 64.9228 0.41041 65.3333 0.916667 65.3333H14.6667V79.0833Z" fill="#5E5E9F" fill-opacity="0.5"/>
<path d="M30.6667 44.5833C30.6667 44.8134 30.8533 45 31.0833 45H31.9167C32.1467 45 32.3333 44.8134 32.3333 44.5833V38.3333H38.5833C38.8134 38.3333 39 38.1467 39 37.9167V37.0833C39 36.8533 38.8134 36.6667 38.5833 36.6667H32.3333V30.4167C32.3333 30.1865 32.1467 30 31.9167 30H31.0833C30.8533 30 30.6667 30.1865 30.6667 30.4167V36.6667H24.4167C24.1865 36.6667 24 36.8533 24 37.0833V37.9167C24 38.1467 24.1865 38.3333 24.4167 38.3333H30.6667V44.5833Z" fill="#5E5E9F" fill-opacity="0.5"/>
<path d="M18.2222 27.3611C18.2222 27.7139 18.5083 28 18.8611 28H20.1389C20.4917 28 20.7778 27.7139 20.7778 27.3611V17.7778H30.3611C30.7139 17.7778 31 17.4917 31 17.1389V15.8611C31 15.5083 30.7139 15.2222 30.3611 15.2222H20.7778V5.63889C20.7778 5.28604 20.4917 5 20.1389 5H18.8611C18.5083 5 18.2222 5.28604 18.2222 5.63889V15.2222H8.63889C8.28604 15.2222 8 15.5083 8 15.8611V17.1389C8 17.4917 8.28604 17.7778 8.63889 17.7778H18.2222V27.3611Z" fill="#5E5E9F" fill-opacity="0.5"/>
<path d="M43.5556 13.5278C43.5556 13.7885 43.767 14 44.0278 14H44.9722C45.233 14 45.4444 13.7885 45.4444 13.5278V6.44444H52.5278C52.7885 6.44444 53 6.23298 53 5.97222V5.02778C53 4.76702 52.7885 4.55556 52.5278 4.55556H45.4444V-2.52778C45.4444 -2.78858 45.233 -3 44.9722 -3H44.0278C43.767 -3 43.5556 -2.78858 43.5556 -2.52778V4.55556H36.4722C36.2114 4.55556 36 4.76702 36 5.02778V5.97222C36 6.23298 36.2114 6.44444 36.4722 6.44444H43.5556V13.5278Z" fill="#5E5E9F" fill-opacity="0.5"/>
</svg>
