<svg width="64" height="64" viewBox="0 0 64 64" fill="none" xmlns="http://www.w3.org/2000/svg">
<circle cx="32" cy="32" r="31" fill="#262652" stroke="url(#paint0_linear_2001_3)" stroke-width="2"/>
<path fill-rule="evenodd" clip-rule="evenodd" d="M40.4757 18.1975C41.4194 19.1412 42.0477 20.3042 42.3813 21.6283C43.4963 25.965 41.3897 31.9399 36.6635 36.6662C31.9465 41.3833 25.9716 43.49 21.6258 42.3841C20.3006 42.0505 19.1388 41.4221 18.1952 40.4785C14.1453 36.4286 15.8612 28.1562 22.0074 22.0099C28.1639 15.8544 36.4259 14.1476 40.4757 18.1975ZM44.1886 21.9116L45.8017 23.5247C49.8527 27.5747 48.1459 35.8368 41.9895 41.9922C35.8421 48.1397 27.571 49.8545 23.5211 45.8045L21.8875 44.1708C22.5809 44.2999 23.2949 44.3856 24.0409 44.3856C28.6289 44.3856 33.8006 41.9522 37.8745 37.8772C42.6978 33.0549 45.114 26.8744 44.1886 21.9116ZM26.8301 37.7153L27.2635 35.6767C22.564 36.5259 21.3397 33.4903 22.1437 30.4176C22.5306 28.8579 23.4741 27.2148 24.7959 25.7984C26.1178 24.382 27.7267 23.2903 29.3189 22.7294C31.0141 22.092 32.5828 22.0821 33.7042 22.7017C34.4095 23.0583 34.9296 23.6345 35.2247 24.3862C35.5197 25.1378 35.582 26.0451 35.4067 27.0384L37.5075 26.7108C38.7782 22.0067 35.2182 18.9356 30.2827 20.3547C29.0745 20.7046 27.831 21.2944 26.6301 22.0871C25.4292 22.8798 24.2967 23.8584 23.3036 24.9615C22.3106 26.0646 21.4783 27.2684 20.8589 28.4977C20.2396 29.7269 19.8465 30.955 19.7043 32.1051C19.0936 37.138 23.2557 38.9741 26.8301 37.7153ZM24.505 31.5444C24.6034 31.9898 24.8129 32.3612 25.1209 32.6361C25.4012 32.9348 25.7748 33.1366 26.2198 33.2298C26.6649 33.323 27.1725 33.3056 27.7131 33.1788C28.2537 33.052 28.8164 32.8183 29.3684 32.4912C29.9205 32.1642 30.4507 31.7504 30.9283 31.2739C31.4058 30.7975 31.8211 30.268 32.1499 29.7163C32.4787 29.1646 32.7144 28.6018 32.8433 28.0607C32.9722 27.5195 32.9917 27.011 32.9007 26.5646C32.8096 26.1182 32.6099 25.743 32.313 25.4608C32.0349 25.156 31.6617 24.9489 31.2155 24.8518C30.7692 24.7547 30.259 24.7696 29.7151 24.8956C29.1711 25.0217 28.6044 25.2562 28.0484 25.5854C27.4925 25.9146 26.9586 26.3318 26.4784 26.8123C25.9951 27.2898 25.5749 27.8223 25.2431 28.3778C24.9113 28.9333 24.6749 29.5003 24.548 30.0445C24.4212 30.5888 24.4065 31.099 24.505 31.5444ZM30.6206 28.5739C30.4965 29.0816 30.1824 29.6177 29.7431 30.0717C29.2921 30.5133 28.7576 30.8318 28.249 30.9619C27.7403 31.092 27.296 31.0239 27.0069 30.7715C26.8671 30.6377 26.773 30.4603 26.7299 30.2495C26.6868 30.0387 26.6956 29.7986 26.7557 29.5432C26.8158 29.2877 26.9261 29.0219 27.0803 28.7611C27.2344 28.5002 27.4294 28.2495 27.6539 28.0233C27.8783 27.7971 28.1279 27.6 28.3883 27.4432C28.6487 27.2864 28.9146 27.1731 29.1708 27.1097C29.4271 27.0464 29.6685 27.0343 29.8813 27.0742C30.0941 27.1141 30.2739 27.2051 30.4106 27.3421C30.6696 27.6253 30.7448 28.0661 30.6206 28.5739Z" fill="#FFC518"/>
<defs>
<linearGradient id="paint0_linear_2001_3" x1="0" y1="0" x2="64" y2="64" gradientUnits="userSpaceOnUse">
<stop stop-color="#7033FF" stop-opacity="0"/>
<stop offset="0.49" stop-color="#7033FF"/>
<stop offset="1" stop-color="#7033FF" stop-opacity="0"/>
</linearGradient>
</defs>
</svg>
