<svg width="64" height="64" viewBox="0 0 64 64" fill="none" xmlns="http://www.w3.org/2000/svg">
<circle cx="32" cy="32" r="31" fill="#262652" stroke="url(#paint0_linear_2003_5)" stroke-width="2"/>
<path d="M21.1132 37.9165L17.7819 41.2562C16.7394 42.2987 16.7394 43.9863 17.7819 45.0288L18.9713 46.2181C20.0138 47.2606 21.7014 47.2606 22.744 46.2181L26.0838 42.887L21.1132 37.9165Z" fill="#FFC518"/>
<path d="M45.947 17.0008L37.5176 17.2268C37.1329 17.2386 36.7815 17.4197 36.5436 17.7251L25.293 32.465L24.8966 32.0685C24.3983 31.5703 23.7415 31.3207 23.0954 31.3207C22.4386 31.3207 21.7807 31.5703 21.2825 32.0685C20.286 33.065 20.286 34.6861 21.2825 35.6825L28.3178 42.7177C28.8161 43.2159 29.474 43.4656 30.119 43.4656C30.7758 43.4656 31.4337 43.2159 31.932 42.7177C32.9284 41.7212 32.9284 40.1001 31.932 39.1037L31.5355 38.7072L46.2749 27.457C46.5813 27.2192 46.7624 26.8677 46.7731 26.4831L46.9992 18.054C47.0228 17.4647 46.5363 16.9783 45.947 17.0008ZM38.5034 26.947L29.1332 36.3051L27.6942 34.8661L37.0526 25.5081C37.449 25.0998 38.0951 25.0998 38.5023 25.5081C38.8998 25.9056 38.8998 26.5506 38.5034 26.947Z" fill="#FFC518"/>
<defs>
<linearGradient id="paint0_linear_2003_5" x1="0" y1="0" x2="64" y2="64" gradientUnits="userSpaceOnUse">
<stop stop-color="#7033FF" stop-opacity="0"/>
<stop offset="0.49" stop-color="#7033FF"/>
<stop offset="1" stop-color="#7033FF" stop-opacity="0"/>
</linearGradient>
</defs>
</svg>
