<svg width="133" height="124" viewBox="0 0 133 124" fill="none" xmlns="http://www.w3.org/2000/svg">
<path d="M107.296 116.458H50.8652L91.2187 87.1966C91.2195 87.1961 91.2202 87.1956 91.221 87.1951C112.062 72.4212 122.585 55.9884 122.585 37.8873C122.585 27.233 118.715 18.4838 110.978 11.6809C103.24 4.87661 92.8578 1.5 79.8873 1.5C64.5369 1.5 51.2801 5.86949 40.1421 14.6207C29.1221 23.2509 22.4899 35.0693 20.238 50.0383L20.1515 50.6127H20.7324H49.9155H50.3314L50.4071 50.2037C51.705 43.1954 54.6148 37.8542 59.1077 34.1315L59.1078 34.1315L59.1141 34.1261C63.6165 30.2669 69.085 28.331 75.5493 28.331C80.8639 28.331 84.7948 29.6271 87.4298 32.1367L87.4386 32.1451L87.4478 32.1531C90.218 34.5455 91.6127 37.7532 91.6127 41.831C91.6127 50.0078 86.2461 58.2256 75.2493 66.4732L75.2486 66.4738L6.62884 118.136L6.47886 118.249L6.44026 118.432L1.51068 141.897L1.38404 142.5H2H101.972H102.377L102.461 142.104L107.785 117.062L107.913 116.458H107.296Z" stroke="url(#paint0_linear_2003_3)"/>
<path d="M100.93 76.7887L59.3239 106.958H117.296L111.972 132H12L16.9296 108.535L85.5493 56.8732C96.5916 48.5915 102.113 40.2441 102.113 31.831C102.113 27.6244 100.667 24.2723 97.7747 21.7747C95.0141 19.1455 90.939 17.831 85.5493 17.831C78.9765 17.831 73.3897 19.8028 68.7887 23.7465C64.1878 27.5587 61.23 33.0141 59.9155 40.1127H30.7324C32.9671 25.2582 39.5399 13.5587 50.4507 5.01408C61.493 -3.66197 74.6385 -8 89.8873 -8C102.77 -8 113.023 -4.64789 120.648 2.05634C128.272 8.76056 132.085 17.3709 132.085 27.8873C132.085 45.7653 121.7 62.0657 100.93 76.7887Z" fill="url(#paint1_linear_2003_3)"/>
<defs>
<linearGradient id="paint0_linear_2003_3" x1="2" y1="72" x2="122" y2="72" gradientUnits="userSpaceOnUse">
<stop stop-color="#7033FF" stop-opacity="0.75"/>
<stop offset="1" stop-color="#7033FF" stop-opacity="0"/>
</linearGradient>
<linearGradient id="paint1_linear_2003_3" x1="12" y1="62" x2="132" y2="62" gradientUnits="userSpaceOnUse">
<stop stop-color="#7033FF" stop-opacity="0.75"/>
<stop offset="1" stop-color="#7033FF" stop-opacity="0"/>
</linearGradient>
</defs>
</svg>
