<svg width="128" height="124" viewBox="0 0 128 124" fill="none" xmlns="http://www.w3.org/2000/svg">
<path d="M28.3041 1.5H27.8992L27.815 1.89602L22.491 26.9383L22.3626 27.5423H22.9801H74.9L43.353 55.4565L43.2296 55.5657L43.1953 55.7268L38.6601 77.0226L38.5314 77.6268H39.1491H52.1632C59.0818 77.6268 64.1794 78.9347 67.5381 81.4695C70.8702 83.9844 72.5646 87.764 72.5646 92.9014C72.5646 99.4668 70.1905 104.918 65.4333 109.291C60.6783 113.531 54.4956 115.669 46.8393 115.669C40.6317 115.669 36.2038 113.799 33.4348 110.149C30.6512 106.479 29.6644 101.372 30.5741 94.744L30.6618 94.1048L30.0209 94.1794L1.23215 97.5315L0.829481 97.5784L0.792105 97.9821C-0.531437 112.276 2.64016 123.353 10.4012 131.114L10.4074 131.12C18.2899 138.735 30.0045 142.5 45.459 142.5C61.6058 142.5 75.2017 137.6 86.213 127.783C97.3518 117.97 102.945 106.204 102.945 92.507C102.945 82.2925 100.157 74.0782 94.5348 67.919C89.3087 62.0563 83.0348 58.2597 75.7219 56.5432L113.223 24.0681L113.35 23.9576L113.385 23.7925L117.92 2.10233L118.046 1.5H117.431H28.3041Z" stroke="url(#paint0_linear_2003_4)"/>
<path d="M38.3041 -8H127.431L122.896 13.6901L84.6421 46.8169C92.2665 48.3944 98.7736 52.2066 104.163 58.2535C109.684 64.3005 112.445 72.385 112.445 82.507C112.445 96.047 106.924 107.681 95.8815 117.408C84.9707 127.136 71.4966 132 55.459 132C40.0787 132 28.5106 128.254 20.7548 120.761C13.1304 113.136 9.97542 102.225 11.29 88.0282L40.0787 84.6761C39.1585 91.3803 40.1444 96.6385 43.0365 100.451C45.9285 104.263 50.5294 106.169 56.8393 106.169C64.5951 106.169 70.905 104 75.7689 99.662C80.6327 95.1925 83.0646 89.6056 83.0646 82.9014C83.0646 72.385 76.0975 67.1268 62.1632 67.1268H49.1491L53.6843 45.831L86.2196 17.0423H32.9801L38.3041 -8Z" fill="url(#paint1_linear_2003_4)"/>
<defs>
<linearGradient id="paint0_linear_2003_4" x1="0.6604" y1="72" x2="117.66" y2="72" gradientUnits="userSpaceOnUse">
<stop stop-color="#7033FF" stop-opacity="0.75"/>
<stop offset="1" stop-color="#7033FF" stop-opacity="0"/>
</linearGradient>
<linearGradient id="paint1_linear_2003_4" x1="10.6604" y1="62" x2="127.66" y2="62" gradientUnits="userSpaceOnUse">
<stop stop-color="#7033FF" stop-opacity="0.75"/>
<stop offset="1" stop-color="#7033FF" stop-opacity="0"/>
</linearGradient>
</defs>
</svg>
