<svg width="370" height="116" viewBox="0 0 370 116" fill="none" xmlns="http://www.w3.org/2000/svg">
<line x1="370" y1="17.0894" x2="242" y2="17.0894" stroke="url(#paint0_linear_54_1745)"/>
<line x1="370" y1="12.942" x2="198" y2="12.942" stroke="url(#paint1_linear_54_1745)"/>
<line x1="370" y1="8.79474" x2="153" y2="8.79475" stroke="url(#paint2_linear_54_1745)"/>
<line x1="368.998" y1="4.64734" x2="77.209" y2="4.64734" stroke="url(#paint3_linear_54_1745)"/>
<line x1="366.992" y1="0.5" x2="6.10352e-05" y2="0.5" stroke="url(#paint4_linear_54_1745)"/>
<line x1="370" y1="21.2368" x2="252" y2="21.2367" stroke="url(#paint5_linear_54_1745)"/>
<line x1="370" y1="25.3841" x2="262" y2="25.3841" stroke="url(#paint6_linear_54_1745)"/>
<line x1="370" y1="29.5314" x2="270" y2="29.5314" stroke="url(#paint7_linear_54_1745)"/>
<line x1="370" y1="33.6787" x2="278" y2="33.6787" stroke="url(#paint8_linear_54_1745)"/>
<line x1="370" y1="37.8261" x2="286" y2="37.8261" stroke="url(#paint9_linear_54_1745)"/>
<line x1="370" y1="41.9734" x2="294" y2="41.9735" stroke="url(#paint10_linear_54_1745)"/>
<line x1="370" y1="46.1208" x2="302" y2="46.1208" stroke="url(#paint11_linear_54_1745)"/>
<line x1="370" y1="50.2681" x2="308" y2="50.2681" stroke="url(#paint12_linear_54_1745)"/>
<line x1="370" y1="54.4155" x2="314" y2="54.4155" stroke="url(#paint13_linear_54_1745)"/>
<line y1="-0.5" x2="128" y2="-0.5" transform="matrix(-1 -7.2436e-08 -1.0551e-07 1 370 99.4286)" stroke="url(#paint14_linear_54_1745)"/>
<line y1="-0.5" x2="172" y2="-0.5" transform="matrix(-1 -7.2436e-08 -1.0551e-07 1 370 103.571)" stroke="url(#paint15_linear_54_1745)"/>
<line y1="-0.5" x2="217" y2="-0.5" transform="matrix(-1 -7.2436e-08 -1.0551e-07 1 370 107.714)" stroke="url(#paint16_linear_54_1745)"/>
<line y1="-0.5" x2="291.789" y2="-0.5" transform="matrix(-1 0 0 1 368.998 111.857)" stroke="url(#paint17_linear_54_1745)"/>
<line y1="-0.5" x2="366.992" y2="-0.5" transform="matrix(-1 0 0 1 366.992 116)" stroke="url(#paint18_linear_54_1745)"/>
<line y1="-0.5" x2="118" y2="-0.5" transform="matrix(-1 7.2436e-08 1.0551e-07 1 370 95.2858)" stroke="url(#paint19_linear_54_1745)"/>
<line y1="-0.5" x2="108" y2="-0.5" transform="matrix(-1 7.2436e-08 1.0551e-07 1 370 91.1429)" stroke="url(#paint20_linear_54_1745)"/>
<line y1="-0.5" x2="100" y2="-0.5" transform="matrix(-1 -7.2436e-08 -1.0551e-07 1 370 87)" stroke="url(#paint21_linear_54_1745)"/>
<line y1="-0.5" x2="92" y2="-0.5" transform="matrix(-1 -7.2436e-08 -1.0551e-07 1 370 82.8571)" stroke="url(#paint22_linear_54_1745)"/>
<line y1="-0.5" x2="84" y2="-0.5" transform="matrix(-1 -7.2436e-08 -1.0551e-07 1 370 78.7142)" stroke="url(#paint23_linear_54_1745)"/>
<line y1="-0.5" x2="76" y2="-0.5" transform="matrix(-1 -7.2436e-08 -1.0551e-07 1 370 74.5714)" stroke="url(#paint24_linear_54_1745)"/>
<line y1="-0.5" x2="68" y2="-0.5" transform="matrix(-1 -7.2436e-08 -1.0551e-07 1 370 70.4286)" stroke="url(#paint25_linear_54_1745)"/>
<line y1="-0.5" x2="62" y2="-0.5" transform="matrix(-1 7.2436e-08 1.0551e-07 1 370 66.2858)" stroke="url(#paint26_linear_54_1745)"/>
<line y1="-0.5" x2="56" y2="-0.5" transform="matrix(-1 -7.2436e-08 -1.0551e-07 1 370 62.1429)" stroke="url(#paint27_linear_54_1745)"/>
<line x1="370" y1="58.5" x2="333" y2="58.5" stroke="url(#paint28_linear_54_1745)"/>
<defs>
<linearGradient id="paint0_linear_54_1745" x1="370" y1="16.5894" x2="242" y2="16.5894" gradientUnits="userSpaceOnUse">
<stop stop-color="#262652"/>
<stop offset="1" stop-color="#262652" stop-opacity="0"/>
</linearGradient>
<linearGradient id="paint1_linear_54_1745" x1="370" y1="12.442" x2="198" y2="12.442" gradientUnits="userSpaceOnUse">
<stop stop-color="#262652"/>
<stop offset="1" stop-color="#262652" stop-opacity="0"/>
</linearGradient>
<linearGradient id="paint2_linear_54_1745" x1="370" y1="8.29474" x2="153" y2="8.29478" gradientUnits="userSpaceOnUse">
<stop stop-color="#262652"/>
<stop offset="1" stop-color="#262652" stop-opacity="0"/>
</linearGradient>
<linearGradient id="paint3_linear_54_1745" x1="368.998" y1="4.14734" x2="77.209" y2="4.14737" gradientUnits="userSpaceOnUse">
<stop stop-color="#262652"/>
<stop offset="1" stop-color="#262652" stop-opacity="0"/>
</linearGradient>
<linearGradient id="paint4_linear_54_1745" x1="366.992" y1="0" x2="6.10352e-05" y2="4.87701e-05" gradientUnits="userSpaceOnUse">
<stop stop-color="#262652"/>
<stop offset="1" stop-color="#262652" stop-opacity="0"/>
</linearGradient>
<linearGradient id="paint5_linear_54_1745" x1="370" y1="20.7368" x2="252" y2="20.7367" gradientUnits="userSpaceOnUse">
<stop stop-color="#262652"/>
<stop offset="1" stop-color="#262652" stop-opacity="0"/>
</linearGradient>
<linearGradient id="paint6_linear_54_1745" x1="370" y1="24.8841" x2="262" y2="24.8841" gradientUnits="userSpaceOnUse">
<stop stop-color="#262652"/>
<stop offset="1" stop-color="#262652" stop-opacity="0"/>
</linearGradient>
<linearGradient id="paint7_linear_54_1745" x1="370" y1="29.0314" x2="270" y2="29.0314" gradientUnits="userSpaceOnUse">
<stop stop-color="#262652"/>
<stop offset="1" stop-color="#262652" stop-opacity="0"/>
</linearGradient>
<linearGradient id="paint8_linear_54_1745" x1="370" y1="33.1787" x2="278" y2="33.1787" gradientUnits="userSpaceOnUse">
<stop stop-color="#262652"/>
<stop offset="1" stop-color="#262652" stop-opacity="0"/>
</linearGradient>
<linearGradient id="paint9_linear_54_1745" x1="370" y1="37.3261" x2="286" y2="37.3261" gradientUnits="userSpaceOnUse">
<stop stop-color="#262652"/>
<stop offset="1" stop-color="#262652" stop-opacity="0"/>
</linearGradient>
<linearGradient id="paint10_linear_54_1745" x1="370" y1="41.4734" x2="294" y2="41.4735" gradientUnits="userSpaceOnUse">
<stop stop-color="#262652"/>
<stop offset="1" stop-color="#262652" stop-opacity="0"/>
</linearGradient>
<linearGradient id="paint11_linear_54_1745" x1="370" y1="45.6208" x2="302" y2="45.6208" gradientUnits="userSpaceOnUse">
<stop stop-color="#262652"/>
<stop offset="1" stop-color="#262652" stop-opacity="0"/>
</linearGradient>
<linearGradient id="paint12_linear_54_1745" x1="370" y1="49.7681" x2="308" y2="49.7681" gradientUnits="userSpaceOnUse">
<stop stop-color="#262652"/>
<stop offset="1" stop-color="#262652" stop-opacity="0"/>
</linearGradient>
<linearGradient id="paint13_linear_54_1745" x1="370" y1="53.9155" x2="314" y2="53.9155" gradientUnits="userSpaceOnUse">
<stop stop-color="#262652"/>
<stop offset="1" stop-color="#262652" stop-opacity="0"/>
</linearGradient>
<linearGradient id="paint14_linear_54_1745" x1="0" y1="0" x2="128" y2="-5.93281e-06" gradientUnits="userSpaceOnUse">
<stop stop-color="#262652"/>
<stop offset="1" stop-color="#262652" stop-opacity="0"/>
</linearGradient>
<linearGradient id="paint15_linear_54_1745" x1="0" y1="0" x2="172" y2="-1.07127e-05" gradientUnits="userSpaceOnUse">
<stop stop-color="#262652"/>
<stop offset="1" stop-color="#262652" stop-opacity="0"/>
</linearGradient>
<linearGradient id="paint16_linear_54_1745" x1="0" y1="0" x2="217" y2="-1.70514e-05" gradientUnits="userSpaceOnUse">
<stop stop-color="#262652"/>
<stop offset="1" stop-color="#262652" stop-opacity="0"/>
</linearGradient>
<linearGradient id="paint17_linear_54_1745" x1="0" y1="0" x2="291.789" y2="-3.08303e-05" gradientUnits="userSpaceOnUse">
<stop stop-color="#262652"/>
<stop offset="1" stop-color="#262652" stop-opacity="0"/>
</linearGradient>
<linearGradient id="paint18_linear_54_1745" x1="0" y1="0" x2="366.992" y2="-4.87701e-05" gradientUnits="userSpaceOnUse">
<stop stop-color="#262652"/>
<stop offset="1" stop-color="#262652" stop-opacity="0"/>
</linearGradient>
<linearGradient id="paint19_linear_54_1745" x1="0" y1="0" x2="118" y2="-5.04202e-06" gradientUnits="userSpaceOnUse">
<stop stop-color="#262652"/>
<stop offset="1" stop-color="#262652" stop-opacity="0"/>
</linearGradient>
<linearGradient id="paint20_linear_54_1745" x1="0" y1="0" x2="108" y2="-4.22365e-06" gradientUnits="userSpaceOnUse">
<stop stop-color="#262652"/>
<stop offset="1" stop-color="#262652" stop-opacity="0"/>
</linearGradient>
<linearGradient id="paint21_linear_54_1745" x1="0" y1="0" x2="100" y2="-3.6211e-06" gradientUnits="userSpaceOnUse">
<stop stop-color="#262652"/>
<stop offset="1" stop-color="#262652" stop-opacity="0"/>
</linearGradient>
<linearGradient id="paint22_linear_54_1745" x1="0" y1="0" x2="92" y2="-3.0649e-06" gradientUnits="userSpaceOnUse">
<stop stop-color="#262652"/>
<stop offset="1" stop-color="#262652" stop-opacity="0"/>
</linearGradient>
<linearGradient id="paint23_linear_54_1745" x1="0" y1="0" x2="84" y2="-2.55505e-06" gradientUnits="userSpaceOnUse">
<stop stop-color="#262652"/>
<stop offset="1" stop-color="#262652" stop-opacity="0"/>
</linearGradient>
<linearGradient id="paint24_linear_54_1745" x1="0" y1="0" x2="76" y2="-2.09155e-06" gradientUnits="userSpaceOnUse">
<stop stop-color="#262652"/>
<stop offset="1" stop-color="#262652" stop-opacity="0"/>
</linearGradient>
<linearGradient id="paint25_linear_54_1745" x1="0" y1="0" x2="68" y2="-1.6744e-06" gradientUnits="userSpaceOnUse">
<stop stop-color="#262652"/>
<stop offset="1" stop-color="#262652" stop-opacity="0"/>
</linearGradient>
<linearGradient id="paint26_linear_54_1745" x1="0" y1="0" x2="62" y2="-1.39195e-06" gradientUnits="userSpaceOnUse">
<stop stop-color="#262652"/>
<stop offset="1" stop-color="#262652" stop-opacity="0"/>
</linearGradient>
<linearGradient id="paint27_linear_54_1745" x1="0" y1="0" x2="56" y2="-1.13558e-06" gradientUnits="userSpaceOnUse">
<stop stop-color="#262652"/>
<stop offset="1" stop-color="#262652" stop-opacity="0"/>
</linearGradient>
<linearGradient id="paint28_linear_54_1745" x1="370" y1="58" x2="333" y2="58" gradientUnits="userSpaceOnUse">
<stop stop-color="#262652"/>
<stop offset="1" stop-color="#262652" stop-opacity="0"/>
</linearGradient>
</defs>
</svg>
