<svg width="30" height="30" viewBox="0 0 30 30" fill="none" xmlns="http://www.w3.org/2000/svg">
<path d="M15 30C23.2843 30 30 23.2843 30 15C30 6.71573 23.2843 0 15 0C6.71573 0 0 6.71573 0 15C0 23.2843 6.71573 30 15 30Z" fill="#1877F2"/>
<mask id="mask0_285_5159" style="mask-type:alpha" maskUnits="userSpaceOnUse" x="0" y="0" width="30" height="30">
<path d="M15 30C23.2843 30 30 23.2843 30 15C30 6.71573 23.2843 0 15 0C6.71573 0 0 6.71573 0 15C0 23.2843 6.71573 30 15 30Z" fill="#1877F2"/>
</mask>
<g mask="url(#mask0_285_5159)">
<path d="M17.1344 12.1375C17.1344 11.1719 17.9969 10.825 18.9625 10.825C19.9281 10.825 20.9594 11.125 20.9594 11.125L21.5781 7.45C21.5781 7.45 20.2656 7 17.1344 7C15.2125 7 14.0969 7.73125 13.2812 8.80937C12.5125 9.83125 12.4844 11.4719 12.4844 12.5312V14.9406H10V18.5312H12.4844V31H17.1344V18.5312H20.8187L21.0906 14.9406H17.1344V12.1375Z" fill="white"/>
</g>
</svg>
