<svg width="30" height="30" viewBox="0 0 30 30" fill="none" xmlns="http://www.w3.org/2000/svg">
<path d="M15 30C23.2843 30 30 23.2843 30 15C30 6.71573 23.2843 0 15 0C6.71573 0 0 6.71573 0 15C0 23.2843 6.71573 30 15 30Z" fill="#2787F5"/>
<path d="M24.5474 10.825C24.3224 11.5382 24.019 12.1591 23.6389 12.7228L23.6548 12.6976C23.2814 13.3248 22.8355 14.0496 22.3171 14.8717C21.8725 15.5209 21.6372 15.8569 21.6111 15.8799C21.4961 16.0252 21.4161 16.2033 21.3886 16.399L21.3877 16.4049C21.4102 16.583 21.4919 16.7384 21.6111 16.8544L21.9445 17.2291C23.7281 19.0767 24.7313 20.3503 24.9542 21.0498C24.9833 21.1271 25 21.2162 25 21.3094C25 21.4724 24.9483 21.6228 24.8608 21.7463L24.8625 21.7438C24.7158 21.8958 24.5108 21.9899 24.284 21.9899C24.259 21.9899 24.2332 21.9891 24.209 21.9866H24.2124H22.0153C21.7345 21.9866 21.4761 21.8874 21.2735 21.7228L21.276 21.7244C20.981 21.48 20.7185 21.2153 20.4834 20.928L20.4759 20.9179C20.092 20.4805 19.7513 20.1123 19.4541 19.8132C18.4639 18.8645 17.7332 18.3901 17.262 18.3901C17.2445 18.3884 17.2245 18.3876 17.2037 18.3876C17.0662 18.3876 16.9378 18.4304 16.832 18.5035L16.8345 18.5018C16.7478 18.611 16.6953 18.7522 16.6953 18.9042C16.6953 18.9345 16.6969 18.963 16.7011 18.9924V18.9891C16.6786 19.2529 16.6653 19.5595 16.6653 19.8695C16.6653 19.9695 16.6669 20.0686 16.6694 20.1677V20.1535V21.1271C16.6778 21.1666 16.6828 21.212 16.6828 21.2582C16.6828 21.4615 16.5911 21.643 16.4477 21.7631L16.4469 21.7639C16.1244 21.9126 15.7476 22 15.3501 22C15.265 22 15.1817 21.9958 15.0992 21.9882L15.11 21.9891C13.7981 21.9639 12.5813 21.5766 11.5469 20.9238L11.5761 20.9406C10.3167 20.1694 9.27321 19.1655 8.47808 17.9793L8.45558 17.944C7.70045 16.9342 6.99617 15.7933 6.39607 14.5903L6.33772 14.4609C5.98683 13.7872 5.62344 12.9588 5.31005 12.107L5.26004 11.9516C5.13252 11.5685 5.04001 11.1232 5.00167 10.662L5 10.641C5 10.2165 5.24782 10.0042 5.74346 10.0042H7.93549C7.95549 10.0025 7.97883 10.0017 8.003 10.0017C8.2097 10.0017 8.40057 10.0731 8.55143 10.1932L8.54976 10.1915C8.71645 10.3755 8.83981 10.6015 8.90065 10.8535L8.90315 10.8636C9.30655 12.012 9.73412 12.9765 10.2259 13.9006L10.17 13.7855C10.5718 14.6004 11.016 15.3019 11.5228 15.9496L11.5036 15.9236C11.9481 16.4735 12.2948 16.7485 12.5438 16.7485C12.5513 16.7494 12.5604 16.7494 12.5704 16.7494C12.6938 16.7494 12.8013 16.6822 12.8596 16.5813L12.8605 16.5797C12.9222 16.42 12.958 16.2344 12.958 16.0412C12.958 16 12.9563 15.9588 12.953 15.9185V15.9236V12.6648C12.9355 12.2809 12.8421 11.9222 12.6863 11.6004L12.6929 11.6164C12.5896 11.3946 12.4654 11.203 12.3179 11.0325L12.3204 11.0358C12.1837 10.8981 12.0903 10.7174 12.0612 10.5158L12.0603 10.5108C12.0603 10.368 12.1254 10.2394 12.227 10.1554L12.2279 10.1546C12.3287 10.0613 12.4637 10.005 12.6113 10.005H16.0735C16.0918 10.0025 16.1127 10.0017 16.1344 10.0017C16.2969 10.0017 16.4427 10.0756 16.5394 10.1915L16.5403 10.1924C16.6261 10.3503 16.6769 10.5393 16.6769 10.7393C16.6769 10.7712 16.6753 10.8023 16.6728 10.8334V10.8292V15.175C16.6711 15.1952 16.6703 15.2187 16.6703 15.2422C16.6703 15.3968 16.7128 15.5421 16.7861 15.6656L16.7845 15.6623C16.8453 15.753 16.947 15.8118 17.062 15.8118C17.2087 15.8017 17.3429 15.753 17.4554 15.6757L17.4529 15.6774C17.6796 15.5203 17.8746 15.3414 18.0438 15.1389L18.0472 15.1347C18.5531 14.5584 19.0198 13.9216 19.4266 13.2445L19.4591 13.1857C19.7458 12.7068 20.0558 12.1171 20.3367 11.5113L20.3884 11.3878L20.7601 10.6385C20.8893 10.2638 21.236 10 21.6436 10C21.6594 10 21.6753 10 21.6911 10.0008H21.6886H23.8815C24.4738 10.0008 24.6961 10.2756 24.5483 10.825H24.5474Z" fill="white"/>
</svg>
