<svg width="30" height="30" viewBox="0 0 30 30" fill="none" xmlns="http://www.w3.org/2000/svg">
<path d="M15 30C23.2843 30 30 23.2843 30 15C30 6.71573 23.2843 0 15 0C6.71573 0 0 6.71573 0 15C0 23.2843 6.71573 30 15 30Z" fill="#5865F2"/>
<path d="M21.2388 9.16037C20.0716 8.61383 18.8399 8.22412 17.5745 8.001C17.563 7.99876 17.5511 8.0003 17.5405 8.00539C17.5299 8.01048 17.5211 8.01886 17.5154 8.02934C17.3474 8.34008 17.1949 8.65926 17.0584 8.98568C15.6944 8.77434 14.307 8.77434 12.943 8.98568C12.8059 8.65845 12.6512 8.33919 12.4796 8.02934C12.4738 8.01908 12.465 8.01088 12.4544 8.00583C12.4439 8.00077 12.4321 7.99908 12.4206 8.001C11.1555 8.22377 9.92423 8.61349 8.75772 9.16037C8.74767 9.16468 8.73919 9.17208 8.73346 9.18154C6.39997 12.7389 5.76078 16.2088 6.0744 19.6349C6.07529 19.6433 6.07784 19.6515 6.08189 19.6589C6.08594 19.6663 6.0914 19.6727 6.09795 19.6779C7.45679 20.7049 8.97677 21.4889 10.593 21.9963C10.6044 21.9998 10.6166 21.9996 10.6279 21.9959C10.6392 21.9921 10.6491 21.9849 10.6563 21.9752C11.0033 21.4931 11.3108 20.9827 11.5757 20.4492C11.5793 20.4419 11.5814 20.4338 11.5817 20.4257C11.5821 20.4175 11.5808 20.4093 11.5778 20.4017C11.5748 20.394 11.5703 20.3871 11.5646 20.3814C11.5588 20.3757 11.552 20.3713 11.5444 20.3685C11.0594 20.1795 10.5899 19.9516 10.1402 19.6869C10.132 19.682 10.1252 19.6751 10.1202 19.6669C10.1153 19.6587 10.1124 19.6493 10.1118 19.6397C10.1113 19.63 10.1131 19.6204 10.117 19.6116C10.121 19.6028 10.127 19.5952 10.1345 19.5893C10.2288 19.5176 10.3233 19.4423 10.4134 19.3662C10.4213 19.3595 10.431 19.3552 10.4413 19.3538C10.4515 19.3525 10.4619 19.354 10.4714 19.3583C13.4173 20.7308 16.6069 20.7308 19.5181 19.3583C19.5276 19.3537 19.5382 19.3519 19.5486 19.3532C19.5591 19.3544 19.569 19.3587 19.5772 19.3655C19.6672 19.4412 19.7617 19.5172 19.8584 19.5893C19.866 19.5951 19.8721 19.6027 19.8761 19.6115C19.8801 19.6202 19.882 19.6298 19.8815 19.6395C19.881 19.6491 19.8782 19.6585 19.8733 19.6668C19.8684 19.675 19.8616 19.6819 19.8535 19.6869C19.4044 19.9541 18.9339 20.1821 18.4472 20.3685C18.4396 20.3714 18.4327 20.3759 18.4269 20.3818C18.4212 20.3876 18.4167 20.3946 18.4138 20.4023C18.4109 20.4101 18.4097 20.4183 18.4101 20.4266C18.4106 20.4349 18.4128 20.4429 18.4166 20.4503C18.6858 20.9809 18.9929 21.4907 19.3353 21.9755C19.3422 21.9855 19.3521 21.993 19.3634 21.9969C19.3748 22.0009 19.3871 22.001 19.3986 21.9974C21.017 21.4914 22.539 20.7074 23.8989 19.679C23.9055 19.6741 23.9111 19.6678 23.9152 19.6605C23.9192 19.6532 23.9217 19.6451 23.9224 19.6367C24.2979 15.675 23.2938 12.2335 21.2609 9.18297C21.2564 9.17301 21.2485 9.16501 21.2388 9.16037ZM12.0152 17.549C11.1281 17.549 10.3979 16.7182 10.3979 15.698C10.3979 14.6778 11.1144 13.847 12.0152 13.847C12.9233 13.847 13.6473 14.685 13.6325 15.698C13.6332 16.7182 12.9163 17.549 12.0152 17.549ZM17.9968 17.549C17.1097 17.549 16.3795 16.7182 16.3795 15.698C16.3795 14.6778 17.096 13.847 17.9968 13.847C18.9049 13.847 19.6288 14.685 19.6141 15.698C19.6144 16.7182 18.9049 17.549 17.9968 17.549Z" fill="white"/>
</svg>
