<svg width="30" height="30" viewBox="0 0 30 30" fill="none" xmlns="http://www.w3.org/2000/svg">
<path d="M15 30C23.2843 30 30 23.2843 30 15C30 6.71573 23.2843 0 15 0C6.71573 0 0 6.71573 0 15C0 23.2843 6.71573 30 15 30Z" fill="white"/>
<path d="M21.7434 7.00074C22.2133 7.00074 22.6909 7.00074 23.1684 7.00109C23.1785 7.00109 23.1885 7.00644 23.2069 7.01156C23.1893 7.05078 23.1604 7.07511 23.1357 7.10192C22.8218 7.4426 22.5078 7.7831 22.1937 8.12355C21.0542 9.3588 19.9147 10.594 18.7753 11.8293C18.2354 12.4145 17.6954 12.9997 17.1556 13.585C17.1274 13.6157 17.1004 13.6475 17.0699 13.682C17.4576 14.2023 17.8417 14.7179 18.226 15.2334C18.6104 15.7492 18.995 16.2649 19.3794 16.7807C19.7661 17.2995 20.1527 17.8185 20.5393 18.3374C20.9237 18.8532 21.3082 19.3689 21.6926 19.8847C22.077 20.4006 22.4614 20.9164 22.8459 21.4321C23.2292 21.9464 23.6128 22.4604 24 22.9809C23.9749 22.9904 23.9652 22.9974 23.9554 22.9974C22.2856 22.9979 20.6158 22.9979 18.9395 22.9979C18.5494 22.4768 18.1616 21.9548 17.7728 21.4334C17.3837 20.9115 16.9948 20.3895 16.6058 19.8675C16.2167 19.3456 15.8275 18.8239 15.4385 18.302C15.0497 17.7803 14.6611 17.2586 14.2684 16.7315C14.2244 16.7523 14.2014 16.7879 14.1742 16.8173C13.7325 17.2953 13.2914 17.7737 12.8502 18.2521C11.4175 19.8054 9.98491 21.3588 8.55179 22.9117C8.46081 23.0103 8.49343 22.9991 8.35658 22.9993C7.94385 22.9999 7.53106 22.9996 7.11833 22.9993C7.0817 22.9993 7.04392 23.0045 7 22.9867C7.01961 22.946 7.04816 22.9213 7.07304 22.8943C7.41284 22.5255 7.75288 22.1569 8.09291 21.7882C9.68145 20.0662 11.27 18.3442 12.8585 16.6222C13.0766 16.3859 13.2946 16.1495 13.5125 15.913C13.538 15.8852 13.5625 15.8564 13.5916 15.8234C11.4034 12.8876 9.21862 9.95618 7.03658 7.02841C7.04655 6.99562 7.068 7.00115 7.08571 7.00057C7.11627 6.99959 7.14683 7.00017 7.17744 7.00017C8.7673 7.00017 10.3572 7.00017 11.947 7.00017H12.0892C12.8084 7.96492 13.527 8.9284 14.2452 9.89222C14.9607 10.8524 15.6762 11.8125 16.388 12.7671C16.4043 12.7655 16.4082 12.7658 16.4115 12.7646C16.415 12.7633 16.4181 12.7608 16.4211 12.7584C16.424 12.756 16.4267 12.7532 16.4294 12.7505C16.4321 12.7478 16.4348 12.7451 16.4374 12.7423C16.44 12.7395 16.4426 12.7367 16.4453 12.734C16.4479 12.7312 16.4506 12.7284 16.4532 12.7256C16.4584 12.72 16.4636 12.7144 16.4688 12.7088C16.4714 12.7059 16.4739 12.7031 16.4765 12.7002C18.2103 10.8205 19.944 8.94071 21.6778 7.06096C21.6804 7.05815 21.6831 7.05544 21.6858 7.05268C21.6911 7.04716 21.6964 7.04164 21.7017 7.03612C21.7043 7.03336 21.707 7.0306 21.7097 7.02789C21.7124 7.02519 21.7151 7.02248 21.7179 7.0199C21.7207 7.01731 21.7235 7.01466 21.7265 7.0123C21.7294 7.01 21.7327 7.00799 21.7434 7.00074ZM9.23318 8.12263C9.2537 8.15288 9.27325 8.18429 9.29532 8.21391C10.4483 9.76137 11.6014 11.3088 12.7546 12.8561C14.425 15.0971 16.0955 17.3381 17.7659 19.5792C18.3059 20.3036 18.8449 21.029 19.3862 21.7525C19.5209 21.9326 19.4531 21.8959 19.6733 21.9002C19.6886 21.9005 19.7039 21.9002 19.7192 21.9002C20.2924 21.9002 20.8656 21.9002 21.4389 21.9002C21.5344 21.9002 21.63 21.9007 21.7255 21.8996C21.747 21.8994 21.7685 21.8934 21.8086 21.8873C21.5578 21.5467 21.3124 21.2205 21.0688 20.893C20.8242 20.5644 20.5792 20.236 20.3344 19.9075C20.0896 19.579 19.8448 19.2504 19.6 18.922C19.3575 18.5965 19.1151 18.271 18.8726 17.9455C18.6278 17.617 18.3829 17.2886 18.138 16.9601C17.893 16.6317 17.6481 16.3033 17.4032 15.9749C17.1583 15.6464 16.9134 15.3179 16.6686 14.9895C16.4238 14.661 16.1791 14.3324 15.9343 14.0039C15.6895 13.6754 15.4446 13.3469 15.1998 13.0184C14.955 12.6899 14.7101 12.3614 14.4653 12.0329C14.2228 11.7074 13.9802 11.3821 13.7377 11.0566C13.4929 10.7281 13.2481 10.3996 13.0033 10.071C12.7585 9.7425 12.5145 9.41339 12.2688 9.08565C12.0233 8.75837 11.7821 8.42782 11.536 8.10635C10.7702 8.10635 10.0136 8.10635 9.25708 8.10681C9.25135 8.10681 9.24562 8.11412 9.23318 8.12263Z" fill="#0F0F24"/>
</svg>
