<svg width="115" height="31" viewBox="0 0 115 31" fill="none" xmlns="http://www.w3.org/2000/svg">
<path d="M0.0304887 20.9952H7.80492C7.80968 21.1484 7.8192 21.2953 7.8192 21.4407C7.8192 21.9299 7.84141 22.4144 7.97945 22.8896C8.18095 23.5867 8.6014 24.0759 9.30427 24.3244C9.75011 24.4807 10.2039 24.5964 10.6767 24.5979C12.1872 24.5995 13.6976 24.6011 15.2065 24.5839C15.5841 24.5792 15.9681 24.5323 16.3393 24.4604C17.4008 24.2572 18.0751 23.5429 18.2338 22.4832C18.3258 21.8736 18.3369 21.2625 18.2179 20.6545C18.0227 19.6588 17.3976 19.0493 16.3742 18.9383C15.0256 18.7929 13.6738 18.6741 12.3204 18.5694C10.361 18.4194 8.39514 18.3193 6.44836 18.0302C5.50591 17.8895 4.59202 17.63 3.71462 17.2518C2.02169 16.5234 0.933274 15.2933 0.465222 13.5271C0.168524 12.3955 0.0304887 11.2467 0.00827605 10.0791C-0.0202831 8.6146 0.0114493 7.15475 0.324013 5.71365C0.465222 5.06344 0.666723 4.43511 0.971353 3.83804C1.5584 2.6861 2.53417 1.95617 3.67336 1.40286C4.83794 0.837054 6.08502 0.563527 7.36701 0.438486C10.1119 0.169648 12.8662 0.157144 15.6206 0.219664C17.1041 0.254051 18.5892 0.335327 20.0441 0.660434C20.5121 0.765155 20.9786 0.901137 21.4229 1.07619C23.4014 1.85614 24.6247 3.30349 25.1895 5.30727C25.5846 6.70929 25.6195 8.14413 25.5608 9.58523C25.5576 9.66963 25.5274 9.75403 25.5068 9.85406H17.7292C17.7165 9.72121 17.707 9.58992 17.6927 9.46019C17.6388 8.97722 17.6007 8.49112 17.523 8.01127C17.4182 7.372 17.0248 6.94374 16.4076 6.75461C15.9379 6.61082 15.454 6.48109 14.9669 6.42951C13.4215 6.26695 11.8762 6.31072 10.3403 6.5608C10.1293 6.59519 9.91988 6.65614 9.71362 6.71397C9.0758 6.8906 8.65534 7.30479 8.46336 7.91749C8.19047 8.78497 8.18571 9.6665 8.41577 10.5434C8.58236 11.1732 8.99805 11.5765 9.61842 11.7922C10.115 11.9641 10.6323 12.0141 11.1511 12.0517C12.9091 12.1783 14.6702 12.2877 16.4282 12.4237C17.5531 12.5096 18.678 12.605 19.7982 12.7425C20.9231 12.8801 22.0147 13.1661 23.0412 13.6522C24.9991 14.579 26.0843 16.1249 26.3366 18.2365C26.5762 20.2309 26.5508 22.23 26.3192 24.2228C26.243 24.8777 26.1113 25.5358 25.9146 26.1641C25.3926 27.8396 24.2439 28.9884 22.6636 29.7449C21.5799 30.2639 20.4281 30.5515 19.2413 30.7156C17.8181 30.9125 16.3838 30.9672 14.951 30.9578C13.1122 30.9453 11.2701 30.925 9.43279 30.8484C7.93819 30.7859 6.44519 30.6452 4.99026 30.2607C3.55437 29.8809 2.31998 29.1807 1.42195 27.9787C0.784132 27.1253 0.422383 26.1578 0.254202 25.12C0.0511147 23.8352 -0.00600352 22.5379 0.00510281 21.2359C0.00510281 21.164 0.0193824 21.0921 0.0304887 20.9952Z" fill="#454572"/>
<path d="M105.469 0.0055319C108.652 10.3292 111.82 20.6123 115 30.9266H106.469C105.94 29.1823 105.407 27.4176 104.868 25.6358H93.5251C93.0238 27.4004 92.5208 29.1619 92.0178 30.9313H83.3105C83.3549 30.7656 83.3866 30.6234 83.4295 30.4842C85.1335 24.8996 86.8375 19.3165 88.5432 13.7319C89.8981 9.29607 91.2531 4.86024 92.6081 0.424419C92.6334 0.340016 92.643 0.244673 92.6922 0.177463C92.7429 0.107128 92.8254 0.0430442 92.9095 0.01491C92.9889 -0.0132242 93.0856 0.00709491 93.1745 0.00709491C97.1331 0.00709491 101.092 0.00709491 105.052 0.00709491C105.177 0.00709491 105.304 0.00709491 105.476 0.00709491L105.469 0.0055319ZM99.2036 6.31385C99.0085 6.69835 95.4116 19.3118 95.4196 19.6073H103.129C103.127 19.254 99.3734 6.56549 99.2036 6.31385Z" fill="#454572"/>
<path d="M68.6121 23.0131V30.9266C68.2932 31.0188 60.5838 31.0266 60.2173 30.936V0.0602373C60.368 0.0524222 60.5029 0.0367921 60.6377 0.0367921C65.7387 0.0367921 70.8413 0.0336661 75.9422 0.0367921C77.1988 0.0367921 78.4554 0.0664894 79.6962 0.285311C81.8349 0.66356 83.658 1.58261 84.9717 3.341C85.8237 4.48356 86.287 5.78242 86.5012 7.17506C86.782 8.9991 86.7884 10.8356 86.7503 12.6737C86.7233 13.9492 86.6408 15.2199 86.4266 16.4812C86.3108 17.1611 86.1378 17.8254 85.8665 18.4616C84.9066 20.7217 83.182 22.0815 80.7735 22.5989C80.1579 22.7317 79.5201 22.8067 78.8902 22.8302C75.6059 22.949 72.32 23.0193 69.0325 22.9881C68.9088 22.9881 68.785 23.0006 68.6105 23.0099L68.6121 23.0131ZM68.6232 15.7982C68.7818 15.8076 68.8929 15.8201 69.004 15.8201C70.6525 15.8201 72.3025 15.8451 73.9494 15.8107C74.7951 15.7935 75.6408 15.681 76.4833 15.5888C76.9989 15.5325 77.3861 15.2386 77.6114 14.7901C77.7827 14.4478 77.9223 14.0758 77.9969 13.7022C78.1683 12.8285 78.1651 11.9376 78.1445 11.0513C78.1254 10.2276 78.0842 9.40236 77.8525 8.60209C77.6574 7.92687 77.2369 7.43765 76.5928 7.13443C76.0803 6.89372 75.5345 6.79213 74.9712 6.79056C72.9673 6.78588 70.9634 6.78275 68.9595 6.78119C68.8501 6.78119 68.7422 6.79994 68.6247 6.81088V15.7982H68.6232Z" fill="#454572"/>
<path d="M27.5234 21.5657C28.2707 19.9933 28.9879 18.4803 29.7209 16.9361H31.9342V14.4634C31.5487 14.4212 31.171 14.4478 30.7966 14.4431C30.4158 14.4384 30.035 14.4431 29.6542 14.4431H27.3774C27.4346 14.3008 27.4679 14.1977 27.5155 14.0992C28.1438 12.7753 28.78 11.4546 29.3972 10.126C29.5146 9.87126 29.659 9.7806 29.9414 9.78529C30.8807 9.80249 31.82 9.78217 32.7592 9.79623C33.0385 9.80092 33.1813 9.71183 33.3019 9.4555C35.4978 4.8243 39.1232 1.82175 44.1543 0.652618C49.652 -0.624362 54.58 0.665123 58.8496 4.33351C58.9353 4.40697 59.0257 4.47574 59.1352 4.56484C58.4863 5.93872 57.8516 7.27979 57.2074 8.6443C54.1786 5.23693 50.4627 3.82553 45.971 4.8071C43.0167 5.45263 40.7495 7.13599 39.12 9.61493C39.1454 9.68057 39.147 9.69464 39.1549 9.70245C39.1628 9.71027 39.1755 9.71652 39.1882 9.71965C39.2247 9.7259 39.2628 9.73528 39.3009 9.73528C44.9984 9.73997 50.696 9.74309 56.3951 9.74778C56.4078 9.74778 56.4189 9.7556 56.4824 9.77592C55.7573 11.303 55.0354 12.8253 54.296 14.3821H37.4874C37.3271 15.2496 37.4096 16.0686 37.5159 16.9236H52.968C52.9315 17.2362 51.3703 20.6091 50.8229 21.5751H39.4357C39.3834 21.772 39.5119 21.8611 39.5896 21.9627C40.9906 23.793 42.793 25.0825 45.0064 25.7921C49.1427 27.1191 53.6217 25.9515 56.5633 22.7958C56.6537 22.6973 56.7473 22.602 56.8774 22.4644C56.906 22.6379 56.9393 22.7473 56.9377 22.8552C56.933 24.5057 56.9155 26.1547 56.925 27.8052C56.9266 28.121 56.8156 28.2976 56.5474 28.4601C54.4071 29.759 52.097 30.5562 49.5917 30.8125C42.6074 31.5268 36.1467 27.8334 33.3495 21.8658C33.2416 21.636 33.1131 21.561 32.8608 21.5626C31.2488 21.5735 29.6368 21.5688 28.0264 21.5688C27.8867 21.5688 27.7487 21.5688 27.5266 21.5688L27.5234 21.5657Z" fill="#454572"/>
</svg>
