<svg width="15" height="14" viewBox="0 0 15 14" fill="none" xmlns="http://www.w3.org/2000/svg">
<path d="M12.8106 4.54621L9.97708 4.15032L8.72281 1.72375L8.72283 1.72374L8.72013 1.7186C8.43368 1.17222 7.88261 1 7.49348 1C7.10435 1 6.55328 1.17222 6.26683 1.7186L6.26681 1.71859L6.26414 1.72375L5.00988 4.15032L2.17754 4.54604C1.62441 4.62226 1.22753 5.00652 1.07233 5.45055C0.902702 5.93588 1.03363 6.53322 1.46299 6.8984L3.44994 8.75982L2.97178 11.3946L2.96903 11.4098L2.96675 11.425C2.88201 11.9907 3.15616 12.4527 3.49831 12.7137L3.53229 12.7396L3.56836 12.7626C3.90808 12.9786 4.45875 13.1206 4.98855 12.8178L7.49043 11.5736L10.027 12.8523L10.0982 12.8882L10.1742 12.9124L10.1993 12.9209L10.1997 12.921C10.215 12.9262 10.2485 12.9376 10.2873 12.9487C10.3782 12.9747 10.4996 13 10.6476 13C10.9356 13 11.1517 12.9183 11.3125 12.8417L11.4061 12.797L11.4886 12.734C11.8423 12.4643 12.112 11.9689 12.0163 11.4213L12.0163 11.4213L12.0152 11.4149L11.537 8.78015L13.5266 6.91628C13.7097 6.75963 13.8725 6.54084 13.9517 6.2605C14.0346 5.96684 14.0069 5.66963 13.8993 5.40901C13.7177 4.94079 13.284 4.62127 12.8292 4.54898L12.8199 4.54751L12.8106 4.54621Z" fill="#FFC518" stroke="#181834" stroke-width="2"/>
</svg>
