<svg width="91" height="31" viewBox="0 0 91 31" fill="none" xmlns="http://www.w3.org/2000/svg">
<path d="M91 25.0463C90.3044 25.0037 89.604 25.0019 88.9151 24.91C87.8211 24.7633 86.8278 24.3584 86.0199 23.5832C85.2277 22.8237 84.8268 21.8822 84.7527 20.8048C84.7193 20.3259 84.7326 19.844 84.732 19.3639C84.7308 15.0089 84.7314 10.6538 84.7314 6.29867V5.86304H87.2434V12.6084H91V14.7715C89.8075 14.7643 88.6144 14.7535 87.422 14.7601C87.363 14.7601 87.2537 14.9127 87.2531 14.9944C87.244 16.7556 87.227 18.5167 87.2549 20.2773C87.2737 21.4676 87.8836 22.1946 89.0682 22.4085C89.6982 22.5221 90.3549 22.4891 90.9994 22.5227L91 25.0463Z" fill="#454572"/>
<path d="M31.1809 15.3886C31.0886 22.1526 26.8514 28.0038 20.3933 30.1994C14.6259 32.16 8.00866 30.4379 3.92518 25.9278C1.7662 23.5436 0.480776 20.7724 0.122364 17.592C-0.472966 12.3158 1.09615 7.78522 5.00224 4.11212C7.42122 1.83723 10.3207 0.491287 13.6418 0.116346C18.4488 -0.426237 22.6793 0.931724 26.2555 4.13194C28.7595 6.37258 30.2278 9.2291 30.8414 12.5032C31.0194 13.4532 31.071 14.4266 31.1809 15.3886ZM6.86174 14.9289C6.98505 14.9416 7.04398 14.9524 7.1029 14.9524C9.62212 14.9536 12.1419 14.95 14.6612 14.9584C14.9127 14.959 14.9345 14.8472 14.9345 14.6489C14.9297 12.7075 14.9266 10.7655 14.9376 8.82412C14.9388 8.55854 14.8367 8.51527 14.5998 8.51648C12.4955 8.52429 10.3906 8.52429 8.28627 8.51587C8.05604 8.51467 7.95459 8.58137 7.88169 8.80249C7.44431 10.128 7.14118 11.4824 6.9966 12.868C6.92613 13.5421 6.90669 14.2211 6.86174 14.9289ZM6.90608 16.1078C6.90183 16.1847 6.89454 16.2334 6.89636 16.2821C6.98505 18.3202 7.33496 20.3151 7.90052 22.2757C7.95945 22.4794 8.06029 22.5299 8.2644 22.5293C10.3803 22.5221 12.4955 22.5251 14.6113 22.5239C14.7079 22.5239 14.8045 22.5113 14.9072 22.5041V16.1078H6.90608ZM16.1003 14.9295H24.1141C24.1141 14.7967 24.1202 14.6874 24.1135 14.5786C23.9902 12.615 23.6719 10.685 23.1148 8.79468C23.0517 8.58077 22.9611 8.51587 22.7406 8.51648C20.6248 8.52429 18.5089 8.52128 16.3931 8.52188C16.2965 8.52188 16.2005 8.5315 16.1003 8.53691V14.9295ZM24.1743 16.0327H16.1106V22.3977C16.1519 22.4091 16.1707 22.4194 16.1902 22.4194C18.4069 22.4218 20.623 22.4212 22.8396 22.429C23.0334 22.4296 23.079 22.3232 23.1136 22.1784C23.3864 21.0422 23.7096 19.9155 23.9167 18.7679C24.0771 17.8786 24.0929 16.9635 24.1755 16.0321L24.1743 16.0327ZM6.78276 8.52128H6.49725C5.35458 8.52128 4.21191 8.52669 3.06924 8.51648C2.85602 8.51467 2.7485 8.58678 2.6513 8.77124C1.87494 10.2464 1.34886 11.8026 1.10101 13.4466C1.02751 13.9345 0.997741 14.429 0.946105 14.9373C1.09737 14.9446 1.18606 14.953 1.27536 14.953C2.68107 14.9536 4.08677 14.9464 5.49248 14.9596C5.7622 14.962 5.81869 14.8761 5.8436 14.6225C5.9651 13.3703 6.08416 12.1163 6.2658 10.8719C6.37879 10.095 6.59991 9.33426 6.78276 8.52128ZM25.2015 16.1066C25.19 18.298 24.8109 20.4058 24.1919 22.5245H24.5679C25.6808 22.5245 26.7943 22.5167 27.9072 22.5305C28.1442 22.5335 28.2675 22.459 28.3744 22.2535C29.172 20.7195 29.7072 19.1038 29.9417 17.3937C29.9994 16.9731 30.017 16.5471 30.0547 16.106L25.2015 16.1066ZM24.1895 8.52128C24.8431 10.6526 25.1784 12.7742 25.2082 14.9349H30.0249C30.031 14.8701 30.0419 14.8226 30.0395 14.7751C29.9344 12.6222 29.3366 10.6045 28.3124 8.70875C28.262 8.61562 28.0986 8.5327 27.9856 8.52969C27.3083 8.51287 26.6297 8.52128 25.9518 8.52128C25.3862 8.52128 24.8212 8.52128 24.1895 8.52128ZM5.8193 16.1144H0.972227C0.972227 16.2352 0.965544 16.3344 0.973442 16.4323C1.1326 18.5125 1.70606 20.4749 2.67864 22.3256C2.76125 22.4836 2.86513 22.5287 3.03705 22.5275C4.21009 22.5209 5.38313 22.5245 6.55617 22.5233C6.63211 22.5233 6.70804 22.5083 6.81253 22.4975C6.18318 20.407 5.81991 18.2986 5.8193 16.1144ZM16.1045 29.9074C17.2666 29.7836 18.2501 29.3251 19.1304 28.6359C20.4766 27.582 21.4011 26.2084 22.1398 24.699C22.3275 24.3163 22.4897 23.9209 22.6768 23.5033H16.1045V29.9074ZM8.36342 23.5995C8.39137 23.683 8.40352 23.7298 8.42174 23.7737C8.83726 24.7874 9.34875 25.7512 9.99207 26.6416C10.8814 27.8728 11.9348 28.9273 13.38 29.5102C13.8581 29.7031 14.3714 29.8106 14.9114 29.9693V23.5989L8.36342 23.5995ZM14.8999 7.44633V1.13962C13.8228 1.2592 12.9031 1.67259 12.0769 2.28908C10.3189 3.60078 9.20903 5.37935 8.38894 7.36161C8.38043 7.38264 8.39805 7.41448 8.40473 7.44633H14.8999ZM16.107 1.13902V7.43972H22.6738C22.4806 7.02092 22.316 6.63516 22.1283 6.26142C21.3829 4.77607 20.4541 3.42713 19.1158 2.39363C18.2386 1.71586 17.2624 1.2628 16.107 1.13902ZM10.7423 1.94959C7.6715 2.94703 5.29322 4.82294 3.41125 7.46496C4.61892 7.46496 5.74094 7.45654 6.86356 7.47157C7.11019 7.47457 7.21164 7.39105 7.29912 7.17113C8.03842 5.30724 9.06202 3.62001 10.506 2.20016C10.588 2.11964 10.6633 2.03311 10.7423 1.94959ZM3.41065 23.582C5.2993 26.2258 7.67211 28.0994 10.7314 29.095C10.5564 28.8558 10.3165 28.6822 10.1233 28.4683C8.89071 27.1031 7.95823 25.5553 7.27786 23.8542C7.23473 23.7467 7.10776 23.5952 7.01725 23.594C5.84421 23.5766 4.67056 23.5826 3.41004 23.5826L3.41065 23.582ZM20.2585 29.0583C20.287 29.0866 20.315 29.1148 20.3435 29.1431C23.3505 28.0897 25.7191 26.2192 27.5628 23.6337C27.5021 23.6073 27.4765 23.5862 27.451 23.5862C26.2974 23.5838 25.1438 23.5796 23.9908 23.588C23.9161 23.588 23.8189 23.6704 23.7727 23.7407C23.7023 23.8476 23.6695 23.978 23.6172 24.0976C22.9344 25.667 22.1277 27.1626 20.9431 28.428C20.7317 28.6534 20.4875 28.8492 20.2585 29.0583ZM27.5804 7.43732C25.7167 4.82354 23.3451 2.94884 20.27 1.87869C20.3144 1.96221 20.3229 1.99346 20.3429 2.01268C21.9211 3.48601 22.9618 5.30063 23.7539 7.27208C23.8195 7.43491 23.9161 7.46796 24.0747 7.46736C25.1572 7.46255 26.2397 7.46496 27.3228 7.46376C27.3897 7.46376 27.4565 7.44994 27.5804 7.43732Z" fill="#454572"/>
<path d="M61.649 11.1681C62.525 14.6898 63.3974 18.1989 64.2697 21.7073C64.2898 21.7073 64.3098 21.7085 64.3298 21.7091C64.4927 21.0848 64.6573 20.4605 64.8183 19.8356C65.5345 17.0458 66.2507 14.2566 66.9608 11.4655C67.0149 11.254 67.0908 11.1549 67.3393 11.1609C68.0968 11.1801 68.855 11.1681 69.6544 11.1681C69.508 11.6969 69.3731 12.195 69.2328 12.6919C68.1023 16.6961 66.9694 20.6991 65.8461 24.7051C65.7769 24.9514 65.6754 25.0361 65.4142 25.0301C64.6755 25.0115 63.9362 25.0133 63.1975 25.0289C62.9436 25.0343 62.83 24.9682 62.7668 24.7081C62.0652 21.8119 61.3496 18.9187 60.6382 16.0255C60.5337 15.6001 60.428 15.1747 60.2652 14.7475C60.1231 15.3147 59.9779 15.8819 59.8388 16.4503C59.1638 19.1987 58.4871 21.9465 57.8201 24.6966C57.7612 24.9406 57.6701 25.0385 57.3997 25.0313C56.641 25.0109 55.8816 25.0175 55.1223 25.0283C54.92 25.0313 54.8179 24.9821 54.7596 24.7748C53.507 20.3169 52.2471 15.8609 50.9896 11.4042C50.9708 11.3376 50.9659 11.2678 50.9495 11.1699C51.7502 11.1699 52.5381 11.1639 53.3248 11.1813C53.3898 11.1825 53.4845 11.3327 53.5094 11.4283C53.9219 13.005 54.3259 14.5846 54.7317 16.1631C55.1794 17.9068 55.6265 19.65 56.0748 21.3931C56.0985 21.485 56.135 21.5733 56.1902 21.7386C56.2449 21.5763 56.2808 21.4898 56.3032 21.3997C57.1203 18.1099 57.9404 14.8202 58.7447 11.5274C58.8158 11.2366 58.933 11.1537 59.2264 11.1615C60.0247 11.1825 60.8241 11.1681 61.649 11.1681Z" fill="#454572"/>
<path d="M36.8943 21.2507C37.6822 20.8307 38.4452 20.4233 39.1912 20.0255C39.4584 20.371 39.6826 20.7339 39.9766 21.0295C41.222 22.283 42.7388 22.8279 44.5133 22.6681C45.4373 22.5852 46.3053 22.3539 47.0452 21.7728C48.3562 20.7429 48.3343 18.8328 46.9991 17.8287C46.2652 17.2771 45.3959 17.038 44.5248 16.8078C43.2473 16.4696 41.9637 16.1499 40.6935 15.7864C40.281 15.6686 39.8879 15.4625 39.5095 15.2546C37.7283 14.2752 37.0887 12.5837 37.2861 10.709C37.4854 8.81871 38.6274 7.55569 40.287 6.72709C43.0948 5.32527 46.9809 5.80837 49.3579 7.8405C49.7139 8.14454 50.0176 8.50867 50.3706 8.87099C49.6775 9.46344 49.0305 10.0168 48.3659 10.5853C48.279 10.4909 48.2055 10.4116 48.1332 10.3323C46.3831 8.41793 43.9933 7.89398 41.7286 8.70575C40.3909 9.18524 39.7191 10.396 40.0222 11.6764C40.1911 12.3909 40.677 12.8607 41.3222 13.1269C42.0457 13.4262 42.7996 13.6659 43.5565 13.8732C44.9087 14.2433 46.2981 14.4897 47.5841 15.0767C48.8343 15.6476 49.8439 16.4678 50.2898 17.8011C51.1609 20.4034 50.3597 23.1061 47.5896 24.4665C44.8328 25.8203 40.9097 25.5667 38.4306 23.3297C37.7879 22.7498 37.2691 22.0799 36.8943 21.2507Z" fill="#454572"/>
<path d="M83.0341 5.84261V8.31518C82.4929 8.34042 81.9674 8.34042 81.448 8.3939C80.0611 8.5363 79.3291 9.35348 79.3267 10.7277C79.3255 11.3375 79.3267 11.948 79.3267 12.5946H83.0256V14.7457H79.3328V25.0019H76.8093C76.8038 24.8979 76.7935 24.8018 76.7935 24.705C76.7929 19.99 76.7899 15.2744 76.7947 10.5594C76.7965 9.07228 77.2649 7.78282 78.5108 6.86109C79.5345 6.10339 80.7263 5.87626 81.971 5.84442C82.3131 5.8354 82.6557 5.84322 83.0323 5.84322L83.0341 5.84261Z" fill="#454572"/>
<path d="M74.0969 24.9081H71.6305V11.0972H74.0969V24.9081Z" fill="#454572"/>
<path d="M72.8704 5.7615C73.8533 5.7603 74.5804 6.46992 74.5877 7.43732C74.5944 8.38128 73.8053 9.16662 72.8576 9.1582C71.9142 9.15039 71.1421 8.37948 71.1458 7.44934C71.1494 6.51378 71.9167 5.7627 72.8704 5.7615Z" fill="#454572"/>
</svg>
