<svg width="16" height="14" viewBox="0 0 16 14" fill="none" xmlns="http://www.w3.org/2000/svg">
<path d="M7.97722 7.75654C7.11146 7.75733 6.25479 7.66978 5.40586 7.50705C4.55132 7.34326 3.71922 7.11006 2.93493 6.73095C2.35447 6.45017 1.82796 6.09709 1.40456 5.60809C1.39361 5.59547 1.37838 5.58627 1.33591 5.5513C1.32736 5.63806 1.31213 5.703 1.31614 5.76636C1.34927 6.27508 1.5034 6.75304 1.6968 7.22206C2.03097 8.03233 2.61892 8.59862 3.40187 8.99298C4.9472 9.77118 6.55557 10.3677 8.27133 10.6632C8.30552 10.669 8.33944 10.6758 8.37177 10.6974C6.72146 10.8312 5.07515 10.9127 3.43713 10.3798C3.51673 10.496 3.57897 10.5977 3.65217 10.6913C4.31117 11.5374 5.17399 12.1031 6.18373 12.4631C7.0177 12.7604 7.88373 12.8595 8.76605 12.8795C9.8602 12.9045 10.9552 12.9339 12.0477 12.9949C12.9364 13.0446 13.8206 13.1569 14.6773 13.4132C15.0489 13.5244 15.4108 13.6587 15.682 13.9556C15.7493 14.0292 15.8275 14.0113 15.8609 13.9022C15.912 13.7358 15.9552 13.5638 15.9718 13.3914C16.045 12.6397 15.967 11.8949 15.8382 11.1548C15.6232 9.91893 15.238 8.74033 14.5737 7.66216C13.9619 6.6697 13.1611 5.87651 12.0704 5.39198C11.5634 5.16667 11.0209 5.06177 10.4877 4.92585C8.66935 4.46235 6.86891 3.94417 5.12778 3.24353C3.95108 2.77004 2.80297 2.2366 1.79163 1.46892C1.29985 1.09586 0.859357 0.657337 0.395891 0.248258C0.322966 0.183847 0.25458 0.11444 0.178449 0.0542348C0.0651867 -0.0346269 -0.000792399 -0.0159607 8.98214e-06 0.12259C0.00161174 0.396536 -0.00399938 0.677581 0.0528987 0.943114C0.295717 2.07728 0.851342 3.0637 1.59021 3.95389C2.59702 5.16667 3.8624 6.05134 5.27977 6.73884C6.12389 7.14818 7.00301 7.4684 7.90456 7.73104C7.92887 7.73814 7.95264 7.7476 7.97642 7.75602L7.97722 7.75654Z" fill="white"/>
</svg>
