<svg width="15" height="11" viewBox="0 0 15 11" fill="none" xmlns="http://www.w3.org/2000/svg">
<path d="M14.5131 0.160132C14.3337 0.0516651 14.1235 -0.00404783 13.9097 0.000212994C13.6294 0.0059037 13.3629 0.114148 13.1675 0.301573L4.26835 8.60097L1.82704 6.31453C1.62633 6.12734 1.3541 6.02219 1.07025 6.02219C0.786406 6.02219 0.514182 6.12734 0.313471 6.31453C0.112759 6.50171 -2.00178e-08 6.75558 0 7.02029C9.91277e-09 7.15136 0.027683 7.28115 0.0814683 7.40225C0.135254 7.52334 0.214088 7.63337 0.313471 7.72606L3.5199 10.7105C3.71992 10.8959 3.99049 11 4.27251 11C4.55454 11 4.82511 10.8959 5.02513 10.7105L14.681 1.70533C14.8335 1.56549 14.9374 1.38618 14.9793 1.19063C15.0212 0.995075 14.9992 0.792293 14.9161 0.608557C14.8329 0.424821 14.6926 0.268599 14.5131 0.160132Z" fill="#7033FF"/>
</svg>
