<svg width="60" height="60" viewBox="0 0 60 60" fill="none" xmlns="http://www.w3.org/2000/svg">
<path d="M0 30C0.00599998 24.5754 1.36666 19.5345 4.07593 14.8652C6.75525 10.3517 10.3517 6.75525 14.8652 4.07593C19.5405 1.3606 24.5874 0 30 0C35.4126 0 40.4596 1.3606 45.1349 4.07593C49.6483 6.75525 53.2447 10.3517 55.9241 14.8652C58.6394 19.5405 60 24.5874 60 30C60 35.4126 58.6394 40.4596 55.9241 45.1349C53.2447 49.6483 49.6483 53.2447 45.1349 55.9241C40.4596 58.6394 35.4126 60 30 60C24.5874 60 19.5405 58.6394 14.8652 55.9241C10.3517 53.2447 6.75525 49.6483 4.07593 45.1349C1.36666 40.4656 0.00599998 35.4246 0 30ZM15.3447 15.3447L26.6733 46.9331C27.0329 48.012 27.3926 49.0909 27.8122 50.1099C27.9321 50.4096 28.052 50.6494 28.2318 50.8292C28.8911 51.1888 29.6703 51.009 30.03 50.4096V50.4695L47.0529 25.4745C47.5325 24.8151 47.1728 23.976 46.6334 23.6164C46.3337 23.2568 45.4346 22.6573 45.1948 22.4776C44.1759 21.6983 43.037 20.9191 41.8981 20.2598C41.6584 20.02 41.3587 19.9601 41.1189 19.8402L32.8472 17.8621C31.4086 17.5025 29.9101 17.1429 28.4715 16.8432C26.2537 16.3636 24.036 15.7043 21.8182 15.1649C21.3387 15.045 20.8591 14.8052 20.3197 14.8052C20.2597 14.8052 16.9031 13.9061 16.4835 13.9061C16.1239 13.9061 15.9441 14.026 15.5844 14.3856C15.2847 14.7452 15.2248 14.8052 15.3447 15.3447ZM18.6413 19.001L22.6573 23.7962C24.5155 26.014 26.3137 28.2318 28.1119 30.4495C28.3517 30.7492 28.5315 30.989 28.7712 31.2887C29.0709 31.6484 29.4306 32.008 29.7303 32.4276L29.6104 33.8062C29.5505 34.2857 29.4905 35.3047 28.7113 41.8382C28.5315 44.0559 28.2917 46.4536 28.2318 46.4536C26.6134 41.2987 24.8152 36.3237 23.017 31.2888C21.5185 27.1528 20.0799 23.0769 18.6413 19.001ZM19.5405 17.0829C25.954 18.7013 32.4875 20.3197 39.0809 21.8182L30.8092 30.6893C29.9101 29.6104 28.951 28.4715 28.052 27.3326C25.2947 23.8562 22.4176 20.4995 19.5405 17.083V17.0829ZM30.2697 45.8542C30.6893 41.5984 31.1688 37.2827 31.6484 33.0269L43.3367 26.8531C39.021 33.2068 34.6453 39.5605 30.2697 45.8542ZM34.8851 29.1908C36.8632 26.9131 38.961 24.7553 41.059 22.5974L43.7562 24.5155L34.8851 29.1908Z" fill="#454572"/>
</svg>
