<svg width="60" height="60" viewBox="0 0 60 60" fill="none" xmlns="http://www.w3.org/2000/svg">
<path d="M46.4778 29.6448C46.4778 31.1664 41.0178 32.4444 33.7062 32.7702V32.7732V32.7696C33.498 32.7828 32.4282 32.847 30.0462 32.847C28.1418 32.847 26.802 32.793 26.3298 32.7684V32.7744C19.0002 32.4498 13.53 31.1736 13.53 29.6466C13.53 28.1196 19.0008 26.8452 26.3286 26.52V31.503C26.8086 31.536 28.1814 31.617 30.0762 31.617C32.352 31.617 33.4962 31.5222 33.7062 31.503V26.52C41.0202 26.8458 46.4778 28.1232 46.4778 29.6448Z" fill="#454572"/>
<path d="M30 0C13.4304 0 0 13.4286 0 30C0 46.5714 13.4328 60 30 60C46.5672 60 60 46.5678 60 30C60 13.4322 46.5678 0 30 0ZM33.705 33.984V48.2802H26.325V33.9852C18.033 33.6018 11.793 31.959 11.793 29.991C11.793 28.023 18.03 26.3802 26.325 25.9992V21.54H16.1184V14.7402H43.908V21.54H33.7026V26.0028H33.705C41.985 26.385 48.2094 28.0266 48.2094 29.9928C48.2094 31.959 41.985 33.6018 33.705 33.984Z" fill="#454572"/>
</svg>
