<svg width="97" height="31" viewBox="0 0 97 31" fill="none" xmlns="http://www.w3.org/2000/svg">
<path d="M97 30.5058C94.8818 30.5168 92.7637 30.5313 90.6455 30.5371C89.7381 30.5397 89.7389 30.5313 89.5479 29.6391C89.2957 28.4615 89.042 27.2842 88.7855 26.0905C88.6789 26.0704 88.5711 26.0569 88.4628 26.0501C85.3733 26.0493 82.2838 26.0572 79.1943 26.0442C78.8306 26.0426 78.6591 26.1444 78.5381 26.4926C78.1131 27.7154 77.6601 28.9293 77.1881 30.1352C77.1231 30.3014 76.8925 30.5175 76.7366 30.519C74.1862 30.5431 71.6355 30.5367 69.0849 30.5352C69.0051 30.524 68.9264 30.5063 68.8496 30.4823C68.9555 30.2152 69.0506 29.959 69.1574 29.7077C71.9484 23.1409 74.7399 16.5743 77.5319 10.0078C78.4965 7.73712 79.4744 5.47155 80.4051 3.18726C81.1208 1.43051 82.4109 0.578869 84.3105 0.57809C86.2684 0.577285 88.2264 0.581274 90.1841 0.560152C90.5617 0.556079 90.7026 0.664992 90.7809 1.03941C92.1592 7.63055 93.5476 14.2196 94.9462 20.8066C95.5654 23.7368 96.1863 26.6667 96.8089 29.5962C96.862 29.7962 96.9258 29.9933 97 30.1867V30.5058ZM87.4857 19.9057C86.7131 16.2079 85.9496 12.5536 85.1861 8.89936L85.073 8.91101C83.7181 12.5551 82.3633 16.1992 80.9853 19.9057L87.4857 19.9057Z" fill="#454572"/>
<path d="M0 0.941218C0.0664725 0.627247 0.263185 0.557304 0.577635 0.558343C4.58228 0.571577 8.58698 0.568935 12.5917 0.573566C12.879 0.572061 13.1662 0.586162 13.4519 0.615806C15.0934 0.797097 16.07 1.72546 16.3883 3.32811C17.5308 9.08005 18.6811 14.8305 19.8393 20.5794C19.8495 20.6302 19.8713 20.6787 19.9325 20.8635C20.044 20.6046 20.1204 20.445 20.1825 20.2801C22.5835 13.9065 24.9799 7.53116 27.3719 1.15421C27.5434 0.695191 27.7574 0.547221 28.2556 0.553412C30.5718 0.582207 32.8886 0.563307 35.2052 0.561517C35.4149 0.561346 35.6247 0.561496 35.921 0.561496C35.4187 1.78439 34.9516 2.92582 34.4814 4.06602C30.9098 12.7268 27.3405 21.3885 23.7735 30.0511C23.631 30.3976 23.4633 30.5307 23.0741 30.5275C20.6499 30.5074 18.2256 30.5063 15.8012 30.5242C15.3754 30.5279 15.2139 30.3847 15.1104 29.9967C13.6032 24.3459 12.0882 18.6973 10.5652 13.0506C9.83438 10.3297 9.11378 7.60599 8.36009 4.89125C8.26714 4.61694 8.07799 4.38438 7.8267 4.23546C5.62013 3.00734 3.26754 2.05433 0.822942 1.3983C0.547113 1.32219 0.274249 1.23563 0 1.15391V0.941218Z" fill="#454572"/>
<path d="M69.4124 7.76504C66.9895 6.58938 64.4928 6.0874 61.8797 6.38328C61.0632 6.47868 60.2728 6.72788 59.5514 7.11733C58.0687 7.92925 57.9322 9.50245 59.2896 10.4986C60.3904 11.3064 61.6228 11.9505 62.8362 12.5951C64.167 13.3019 65.4861 14.0087 66.6353 14.9955C69.1445 17.1503 69.8702 19.8545 69.1156 22.9716C68.3067 26.3133 66.0439 28.4058 62.9317 29.7092C60.6116 30.681 58.1647 31.0201 55.6687 30.9991C53.0243 30.996 50.3971 30.5802 47.8843 29.7671C47.6975 29.7054 47.5196 29.6147 47.3303 29.5633C47.0301 29.4818 46.9463 29.3121 46.9969 29.0115C47.3345 27.0019 47.6589 24.9902 47.9908 22.9797C48.0111 22.9022 48.0396 22.827 48.0758 22.7554C49.2863 23.2162 50.4509 23.7313 51.6606 24.1041C53.8133 24.7676 56.0312 25.0027 58.2484 24.5105C59.0285 24.3185 59.7569 23.9609 60.3825 23.4626C61.4289 22.644 61.421 21.158 60.4801 20.2131C59.426 19.1545 58.0619 18.577 56.7556 17.912C55.2512 17.1461 53.8133 16.2885 52.5702 15.1337C49.7342 12.4989 49.676 9.06369 51.1283 6.11253C52.4848 3.35628 54.8817 1.77034 57.7479 0.873299C61.7764 -0.387517 65.8143 -0.237362 69.8281 1.02904C70.3584 1.19634 70.5433 1.38608 70.4225 1.99202C70.0693 3.76377 69.8147 5.55463 69.5192 7.33764C69.4996 7.45588 69.4615 7.57113 69.4124 7.76504Z" fill="#454572"/>
<path d="M42.0433 30.5123H34.193C34.3441 29.5555 34.4846 28.6363 34.6349 27.7185C35.8827 20.0987 37.1316 12.479 38.3815 4.8595C38.5934 3.56661 38.8126 2.2748 39.0126 0.980106C39.0579 0.686924 39.1562 0.551518 39.4854 0.553496C41.8907 0.567945 44.2962 0.565439 46.7016 0.570424C46.7831 0.584374 46.8632 0.605735 46.9408 0.634234C45.3099 10.5836 43.6774 20.543 42.0433 30.5123Z" fill="#454572"/>
</svg>
