<svg width="80" height="80" viewBox="0 0 80 80" fill="none" xmlns="http://www.w3.org/2000/svg">
<g id="astro">
<g id="astro_2">
<path id="Vector" d="M29.4543 68.1397C25.8526 64.8359 24.8011 57.8943 26.3017 52.8655C28.9036 56.0362 32.5088 57.0404 36.243 57.6074C42.0078 58.4823 47.6694 58.1551 53.0247 55.5111C53.6372 55.2084 54.2033 54.806 54.8727 54.3983C55.3753 55.861 55.506 57.338 55.3305 58.841C54.9039 62.5018 53.0884 65.3295 50.2006 67.473C49.046 68.3303 47.8241 69.0967 46.6316 69.9053C42.9681 72.3901 41.9769 75.3034 43.3534 79.5415C43.3862 79.6447 43.4156 79.7479 43.4894 79.9999C41.6188 79.1599 40.2526 77.937 39.2116 76.3287C38.1118 74.6314 37.5886 72.7538 37.5611 70.7223C37.5473 69.7338 37.5473 68.7362 37.4147 67.7618C37.0913 65.3855 35.9798 64.3215 33.8854 64.2602C31.7361 64.1972 30.0359 65.5306 29.585 67.6303C29.5506 67.7914 29.5007 67.9506 29.4508 68.1378L29.4543 68.1397Z" fill="#FF5D01"/>
<path id="Vector_2" d="M8.89734 52.0276C8.89734 52.0276 19.5626 46.814 30.2577 46.814L38.3214 21.7723C38.6233 20.5613 39.5049 19.7383 40.4998 19.7383C41.495 19.7383 42.3766 20.5613 42.6785 21.7723L50.7422 46.814C63.4089 46.814 72.1026 52.0276 72.1026 52.0276C72.1026 52.0276 53.9868 2.50642 53.9513 2.40707C53.4313 0.942954 52.5537 0 51.3702 0H29.6315C28.4482 0 27.6058 0.942954 27.0505 2.40707C27.0114 2.50455 8.89734 52.0276 8.89734 52.0276Z" fill="white"/>
</g>
</g>
</svg>
