<svg width="80" height="80" viewBox="0 0 80 80" fill="none" xmlns="http://www.w3.org/2000/svg">
<g id="bash">
<g id="bash_2">
<path id="Vector" fill-rule="evenodd" clip-rule="evenodd" d="M70.1871 16.3258L44.9139 1.33127C43.4456 0.459872 41.7695 0 40.0619 0C38.3543 0 36.6782 0.459872 35.2098 1.33127L9.93168 16.3258C8.42933 17.2218 7.18617 18.4933 6.32448 20.0151C5.46278 21.537 5.01222 23.2568 5.01711 25.0055V54.9945C5.00783 56.7391 5.45195 58.4562 6.30599 59.9777C7.16003 61.4992 8.39471 62.7729 9.88917 63.6742L35.1623 78.6687C36.6307 79.5401 38.3067 80 40.0144 80C41.722 80 43.3981 79.5401 44.8664 78.6687L70.1446 63.6742C71.639 62.7729 72.8737 61.4992 73.7278 59.9777C74.5818 58.4562 75.0259 56.7391 75.0166 54.9945V25.0055C75.0306 23.2652 74.5933 21.551 73.7474 20.0299C72.9014 18.5087 71.6757 17.2326 70.1896 16.3258H70.1871ZM50.6113 63.1543V65.3042C50.6098 65.4367 50.5751 65.5667 50.5104 65.6824C50.4458 65.7981 50.3532 65.8958 50.2412 65.9667L48.9606 66.6991C48.7606 66.8041 48.5905 66.6991 48.5905 66.4166V64.2992C47.6865 64.7432 46.6518 64.8436 45.6793 64.5817C45.5242 64.4767 45.4642 64.2767 45.5392 64.0817L45.9969 62.1318C46.0351 61.9668 46.1244 61.8181 46.252 61.7068C46.2884 61.6707 46.3307 61.6411 46.3771 61.6193C46.4414 61.5942 46.5128 61.5942 46.5771 61.6193C47.4698 61.8589 48.4209 61.7386 49.2258 61.2843C49.7975 61.0052 50.283 60.5766 50.6308 60.0441C50.9787 59.5116 51.1759 58.8949 51.2016 58.2594C51.2016 57.1645 50.6013 56.7095 49.1507 56.697C47.315 56.697 45.6493 56.347 45.5742 53.6371C45.5952 52.4802 45.8721 51.3423 46.3849 50.305C46.8977 49.2677 47.6339 48.3567 48.5405 47.6373V45.4573C48.5455 45.3245 48.5816 45.1947 48.6458 45.0783C48.7101 44.962 48.8008 44.8623 48.9106 44.7874L50.1461 44.0024C50.3462 43.8974 50.5163 44.0024 50.5163 44.2924V46.4723C51.2732 46.1284 52.118 46.0271 52.9348 46.1823C53.1099 46.2823 53.1799 46.5023 53.0949 46.6823L52.6622 48.6147C52.6132 48.8151 52.4899 48.9894 52.3171 49.1022C52.267 49.1322 52.192 49.1222 52.132 49.1022C51.3357 48.928 50.503 49.0639 49.8035 49.4822C49.2933 49.7022 48.8563 50.0628 48.5436 50.5219C48.2309 50.9809 48.0555 51.5195 48.0378 52.0746C48.0378 53.0621 48.558 53.3621 50.3062 53.3996C52.6447 53.3996 53.6501 54.457 53.6776 56.8045C53.6556 58.0183 53.3694 59.2128 52.8391 60.305C52.3087 61.3972 51.5468 62.361 50.6063 63.1293L50.6113 63.1543ZM63.8494 59.5294C63.8646 59.6203 63.8544 59.7137 63.8199 59.7992C63.7855 59.8848 63.7282 59.9592 63.6543 60.0144L57.2892 63.8942C57.2291 63.9442 57.1391 63.9517 57.0716 63.9117C57.004 63.8717 56.9715 63.7867 56.989 63.7117V62.0618C56.9934 61.9736 57.0231 61.8885 57.0745 61.8166C57.126 61.7448 57.197 61.6893 57.2792 61.6568L63.5718 57.8894C63.6318 57.8394 63.7219 57.8319 63.7894 57.8719C63.8569 57.9119 63.8894 57.9969 63.8719 58.0719V59.5269L63.8494 59.5294ZM68.2638 22.6506L44.3487 37.4151C41.3649 39.18 39.1715 41.11 39.1715 44.6999V74.1439C39.1715 76.2938 40.0544 77.6438 41.3774 78.0938C40.9401 78.1754 40.4967 78.2197 40.0519 78.2263C38.6473 78.2231 37.2694 77.8423 36.0627 77.1238L10.7895 62.1318C9.55898 61.3937 8.54221 60.3477 7.83957 59.097C7.13693 57.8462 6.77271 56.4339 6.78286 54.9995V25.0055C6.77153 23.5692 7.13513 22.1547 7.83778 20.9017C8.54043 19.6488 9.55782 18.6006 10.7895 17.8607L36.0627 2.86622C38.5137 1.41626 41.555 1.41626 44.0061 2.86622L69.2792 17.8607C71.3626 19.1207 72.7807 21.2356 73.1609 23.6105C72.3405 21.8281 70.4522 21.3606 68.2538 22.6231H68.2613L68.2638 22.6506Z" fill="white"/>
</g>
</g>
</svg>
