<svg width="80" height="80" viewBox="0 0 80 80" fill="none" xmlns="http://www.w3.org/2000/svg">
<g id="chrome">
<g id="chrome_2" clip-path="url(#clip0_115_839)">
<path id="Vector" d="M40 59.9912C51.0457 59.9912 60 51.0369 60 39.9912C60 28.9455 51.0457 19.9912 40 19.9912C28.9543 19.9912 20 28.9455 20 39.9912C20 51.0369 28.9543 59.9912 40 59.9912Z" fill="white"/>
<path id="Vector_2" d="M40 20.0001H74.6354C71.1257 13.919 66.0768 8.86924 59.9965 5.35841C53.9161 1.84759 47.0185 -0.000489784 39.9974 9.73664e-08C32.9762 0.000489979 26.0789 1.84953 19.999 5.3612C13.9192 8.87288 8.87101 13.9234 5.36218 20.0049L22.6798 50.0001L22.6954 49.9961C20.9337 46.9582 20.004 43.5096 20.0001 39.9978C19.9961 36.4861 20.918 33.0354 22.6729 29.9936C24.4277 26.9517 26.9534 24.4263 29.9955 22.6718C33.0375 20.9173 36.4883 19.9957 40 20.0001Z" fill="url(#paint0_linear_115_839)"/>
<path id="Vector_3" d="M40 55.8334C48.7445 55.8334 55.8334 48.7446 55.8334 40.0001C55.8334 31.2556 48.7445 24.1667 40 24.1667C31.2555 24.1667 24.1667 31.2556 24.1667 40.0001C24.1667 48.7446 31.2555 55.8334 40 55.8334Z" fill="#1A73E8"/>
<path id="Vector_4" d="M57.3189 50.0048L40.0012 80C47.0223 80.0009 53.92 78.1533 60.0006 74.643C66.0812 71.1326 71.1304 66.0832 74.6405 60.0024C78.1506 53.9217 79.9979 47.024 79.9967 40.0028C79.9954 32.9817 78.1456 26.0846 74.6334 20.0051H39.9982L39.994 20.0206C43.5057 20.0139 46.9572 20.933 50.0004 22.6854C53.0437 24.4379 55.5711 26.9616 57.328 30.0023C59.0849 33.0429 60.0092 36.493 60.0075 40.0048C60.0059 43.5165 59.0785 46.9657 57.3189 50.0048Z" fill="url(#paint1_linear_115_839)"/>
<path id="Vector_5" d="M22.681 50.0052L5.36334 20.01C1.85188 26.09 0.0030693 32.9874 0.00280764 40.0085C0.00254599 47.0297 1.85084 53.9272 5.36185 60.0074C8.87286 66.0877 13.9228 71.1364 20.0039 74.6459C26.0851 78.1554 32.983 80.002 40.0042 80L57.3218 50.0048L57.3107 49.9935C55.5606 53.0381 53.0388 55.5675 49.9996 57.3268C46.9603 59.0861 43.5109 60.013 39.9992 60.0142C36.4875 60.0154 33.0375 59.0908 29.997 57.3335C26.9566 55.5763 24.4331 53.0486 22.681 50.0052Z" fill="url(#paint2_linear_115_839)"/>
</g>
</g>
<defs>
<linearGradient id="paint0_linear_115_839" x1="5.36218" y1="25.0001" x2="74.6354" y2="25.0001" gradientUnits="userSpaceOnUse">
<stop stop-color="#D93025"/>
<stop offset="1" stop-color="#EA4335"/>
</linearGradient>
<linearGradient id="paint1_linear_115_839" x1="34.5365" y1="79.4651" x2="69.1732" y2="19.4728" gradientUnits="userSpaceOnUse">
<stop stop-color="#FCC934"/>
<stop offset="1" stop-color="#FBBC04"/>
</linearGradient>
<linearGradient id="paint2_linear_115_839" x1="44.3302" y1="77.5025" x2="9.69351" y2="17.51" gradientUnits="userSpaceOnUse">
<stop stop-color="#1E8E3E"/>
<stop offset="1" stop-color="#34A853"/>
</linearGradient>
<clipPath id="clip0_115_839">
<rect width="80" height="80" fill="white"/>
</clipPath>
</defs>
</svg>
