<svg width="80" height="80" viewBox="0 0 80 80" fill="none" xmlns="http://www.w3.org/2000/svg">
<g id="eslint">
<g id="eslint_2">
<path id="Vector" d="M24.425 30.0791L39.5439 21.3502C39.7299 21.2428 39.9408 21.1863 40.1556 21.1863C40.3703 21.1863 40.5813 21.2428 40.7672 21.3502L55.8861 30.0791C56.072 30.1865 56.2264 30.3409 56.3338 30.5269C56.4411 30.7128 56.4977 30.9237 56.4978 31.1384V48.5962C56.4978 49.0329 56.2643 49.4366 55.8861 49.6555L40.7672 58.3844C40.5813 58.4918 40.3703 58.5483 40.1556 58.5483C39.9408 58.5483 39.7299 58.4918 39.5439 58.3844L24.425 49.6555C24.2391 49.5481 24.0847 49.3937 23.9774 49.2077C23.87 49.0218 23.8134 48.8109 23.8134 48.5962V31.1381C23.8137 30.7011 24.0468 30.2976 24.425 30.0788" fill="#8080F2"/>
<path id="Vector_2" d="M79.351 38.4368L61.2675 6.97663C60.6107 5.83921 59.3973 5 58.0837 5H21.9164C20.6028 5 19.3888 5.83921 18.732 6.97663L0.648858 38.3673C-0.00794247 39.5051 -0.00794247 40.941 0.648858 42.0787L18.732 73.2811C19.3888 74.4185 20.6028 75 21.9164 75H58.0834C59.397 75 60.6107 74.436 61.2672 73.2982L79.3507 42.0451C80.0081 40.908 80.0081 39.5742 79.3507 38.4368H79.351ZM64.3769 53.565C64.3769 54.0272 64.0986 54.4552 63.6977 54.6868L40.6633 67.9763C40.4649 68.0899 40.2403 68.1497 40.0117 68.1497C39.7832 68.1497 39.5586 68.0899 39.3602 67.9763L16.3081 54.6868C15.9075 54.4552 15.627 54.0275 15.627 53.5646V26.9851C15.627 26.5222 15.9034 26.0948 16.3044 25.8632L39.3375 12.5734C39.5357 12.4596 39.7603 12.3997 39.9889 12.3997C40.2174 12.3997 40.442 12.4596 40.6402 12.5734L63.6936 25.8632C64.0949 26.0948 64.3769 26.5222 64.3769 26.9851V53.5646V53.565Z" fill="#4B32C3"/>
</g>
</g>
</svg>
