<svg width="80" height="80" viewBox="0 0 80 80" fill="none" xmlns="http://www.w3.org/2000/svg">
<g clip-path="url(#clip0_115_755)">
<path d="M39.5 40.0001C39.5 32.6359 45.4691 26.6667 52.8333 26.6667C60.1975 26.6667 66.1667 32.6359 66.1667 40.0001C66.1667 47.3643 60.1975 53.3334 52.8333 53.3334C45.4691 53.3334 39.5 47.3643 39.5 40.0001Z" fill="#00B6FF"/>
<path d="M12.8333 66.6666C12.8333 59.3024 18.8025 53.3333 26.1667 53.3333H39.5V66.6666C39.5 74.0308 33.5309 79.9999 26.1667 79.9999C18.8025 79.9999 12.8333 74.0308 12.8333 66.6666Z" fill="#24CB71"/>
<path d="M39.5 0V26.6667H52.8333C60.1975 26.6667 66.1667 20.6975 66.1667 13.3333C66.1667 5.96912 60.1975 0 52.8333 0H39.5Z" fill="#FF7237"/>
<path d="M12.8333 13.3333C12.8333 20.6975 18.8025 26.6667 26.1667 26.6667H39.5V0H26.1667C18.8025 0 12.8333 5.96912 12.8333 13.3333Z" fill="#FF3737"/>
<path d="M12.8333 40.0001C12.8333 47.3643 18.8025 53.3334 26.1667 53.3334H39.5V26.6667H26.1667C18.8025 26.6667 12.8333 32.6359 12.8333 40.0001Z" fill="#874FFF"/>
</g>
<defs>
<clipPath id="clip0_115_755">
<rect width="53.3333" height="80" fill="white" transform="translate(12.8333)"/>
</clipPath>
</defs>
</svg>
