<svg width="80" height="80" viewBox="0 0 80 80" fill="none" xmlns="http://www.w3.org/2000/svg">
<g id="firefox">
<g id="firefox_2">
<path id="Vector" d="M63.8713 7.44287C61.9253 9.7084 61.0162 14.8143 62.9922 19.984C64.9645 25.1576 67.9925 24.0342 69.8784 29.3091C72.3691 36.2673 71.2083 45.6187 71.2083 45.6187C71.2083 45.6187 74.2024 54.2863 76.2874 45.0777C80.9007 27.7875 63.8713 11.7034 63.8713 7.44287Z" fill="url(#paint0_radial_115_822)"/>
<path id="Vector_2" d="M40.1137 79.2447C60.0507 79.2447 76.201 63.0028 76.201 42.9813C76.201 22.9597 60.0507 6.71777 40.1325 6.71777C20.2142 6.71777 4.06391 22.9559 4.06391 42.9813C4.02634 63.0254 20.1954 79.2447 40.1137 79.2447Z" fill="url(#paint1_radial_115_822)"/>
<path id="Vector_3" d="M67.1547 65.3396C66.3733 65.8919 65.5543 66.3841 64.7053 66.8161C65.8323 65.1668 66.8729 63.4573 67.8196 61.6952C68.5898 60.8424 69.2923 60.0158 69.8671 59.1216C70.1451 58.682 70.4606 58.141 70.795 57.5098C72.8199 53.8579 75.0551 47.9517 75.119 41.884V41.869C75.119 41.7187 75.1228 41.5684 75.119 41.4219C75.1303 39.9003 74.9725 38.3787 74.6532 36.8909C74.6682 37.0073 74.6832 37.1238 74.6982 37.2403C74.6795 37.1501 74.6644 37.0599 74.6457 36.9697C74.6757 37.1351 74.6982 37.2966 74.7245 37.4544C75.1378 40.9673 74.8448 44.3975 73.3684 46.9223C73.3458 46.9599 73.3195 46.9937 73.297 47.0313C74.0634 43.1915 74.3188 38.9497 73.466 34.7042C73.466 34.7042 73.1242 32.6416 70.5884 26.3747C69.1307 22.7679 66.5386 19.8111 64.247 17.6583C62.2409 15.1748 60.4151 13.5067 59.412 12.4509C57.312 10.2418 56.4329 8.58487 56.0723 7.50283C55.7605 7.34503 51.752 3.45268 51.4327 3.30615C49.6821 6.01878 44.1822 14.4985 46.8006 22.426C47.9878 26.0178 50.9856 29.7449 54.1225 31.8376C54.2615 31.9954 55.9896 33.8739 56.8124 38.1119C57.6614 42.4889 57.2143 45.9041 55.4674 50.9574C53.4125 55.3908 48.1455 59.7716 43.2129 60.2187C32.6715 61.1767 28.8096 54.9249 28.8096 54.9249C32.5776 56.4315 36.7401 56.1159 39.2759 54.553C41.8305 52.975 43.3745 51.8028 44.6255 52.2649C45.8614 52.7233 46.8457 51.3895 45.9629 50.0069C44.5691 47.8616 42.0296 46.7532 39.5088 47.1966C36.9542 47.6136 34.6137 49.6349 31.2627 47.6775C31.0448 47.5535 30.8344 47.4145 30.6353 47.2642C30.4137 47.1177 31.3529 47.4859 31.135 47.3206C30.4851 46.9674 29.3317 46.1934 29.0312 45.9192C28.9824 45.8741 29.5384 46.0957 29.4858 46.0507C26.3564 43.4733 26.7471 41.73 26.8448 40.6367C26.9237 39.7613 27.4909 38.6417 28.4489 38.187C28.911 38.4388 29.2003 38.6341 29.2003 38.6341C29.2003 38.6341 29.0012 38.2321 28.896 38.018C28.9335 38.003 28.9673 38.0067 29.0049 37.9917C29.3843 38.1758 30.2221 38.6492 30.6654 38.9385C31.2402 39.3442 31.4243 39.7049 31.4243 39.7049C31.4243 39.7049 31.5745 39.6223 31.4618 39.2691C31.4205 39.1226 31.2477 38.6642 30.6767 38.1983L30.7105 38.2021C31.0523 38.3974 31.3754 38.6191 31.676 38.8708C31.8375 38.2885 32.1268 37.6761 32.0629 36.5865C32.0253 35.8201 32.0404 35.621 31.9051 35.3241C31.7849 35.0687 31.9727 34.971 32.1831 35.234C32.1456 35.0273 32.0854 34.8244 32.0028 34.6328V34.614C32.2658 33.7011 37.5515 31.3228 37.9347 31.0448C38.5658 30.5977 39.0955 30.0229 39.49 29.3541C39.783 28.8845 40.0047 28.227 40.0573 27.2314C40.0873 26.5137 39.753 26.0328 34.4071 25.473C32.9457 25.3303 32.0892 24.2708 31.6008 23.2939C31.5107 23.0835 31.4205 22.8919 31.3303 22.7003C31.2439 22.4786 31.1726 22.2494 31.1237 22.0165C31.999 19.5068 33.4642 17.384 35.6243 15.7797C35.7408 15.6708 35.1547 15.806 35.2712 15.7008C35.4102 15.5768 36.3043 15.2162 36.4733 15.1335C36.68 15.0358 35.5905 14.5737 34.625 14.6864C33.6445 14.7954 33.4341 14.9156 32.9119 15.1373C33.1298 14.9193 33.8211 14.6376 33.6595 14.6376C32.6001 14.7991 31.289 15.4153 30.162 16.1103C30.1582 15.9901 30.1845 15.8699 30.2296 15.7572C29.7074 15.9788 28.4189 16.8768 28.0469 17.6395C28.062 17.493 28.0695 17.3464 28.0695 17.1999C27.6713 17.5343 27.3106 17.91 26.9951 18.3233L26.9763 18.3421C23.9408 17.1172 21.266 17.0383 19.0044 17.5869C18.5086 17.0909 18.2681 17.4516 17.1411 14.9795C17.066 14.8292 17.2012 15.126 17.1411 14.9795C16.957 14.4985 17.2538 15.6182 17.1411 14.9795C15.2477 16.4748 12.757 18.1655 11.5623 19.3602C11.5473 19.4091 12.9561 18.962 11.5623 19.3602C11.0739 19.4992 11.1078 19.7885 11.0326 22.411C11.0138 22.6101 11.0289 22.8318 11.0138 23.0121C10.0596 24.2294 9.40971 25.2589 9.16176 25.7924C7.92579 27.9227 6.56585 31.2402 5.24723 36.4888C5.82953 35.0649 6.52828 33.6936 7.3435 32.3898C6.24653 35.1776 5.18712 39.5509 4.97675 46.2874C5.24347 44.8972 5.58158 43.5221 5.99482 42.1696C5.73561 47.7601 6.70109 53.3394 8.8199 58.5167C9.57876 60.3727 10.8335 63.1868 12.9674 66.2751C19.6769 73.3347 29.1402 77.7305 39.6215 77.7305C50.5762 77.7305 60.4038 72.944 67.1547 65.3396Z" fill="url(#paint2_linear_115_822)"/>
<path id="Vector_4" d="M59.0589 70.4681C72.3014 68.9352 78.1619 55.2894 70.6334 55.0189C63.8337 54.8048 52.7851 71.1933 59.0589 70.4681Z" fill="url(#paint3_radial_115_822)"/>
<path id="Vector_5" d="M71.5878 52.235C80.698 46.9337 78.3237 35.4783 78.3237 35.4783C78.3237 35.4783 74.8074 39.5622 72.418 46.0733C70.0588 52.5205 66.1104 55.436 71.5878 52.235Z" fill="url(#paint4_radial_115_822)"/>
<path id="Vector_6" d="M42.6644 77.2458C55.366 81.2996 66.2832 71.2908 59.5548 67.9508C53.4351 64.9376 36.6386 75.3297 42.6644 77.2458Z" fill="url(#paint5_radial_115_822)"/>
<path id="Vector_7" d="M72.5344 57.0966C72.8424 56.6608 73.2594 55.2631 73.6313 54.6395C75.8741 51.0176 75.8892 48.1322 75.8892 48.0683C77.2453 41.3017 77.1214 38.5403 76.2874 33.4306C75.6149 29.3166 72.6846 23.4217 70.1451 20.5851C67.5266 17.6621 69.3712 18.6126 66.8354 16.4786C64.6151 14.0139 62.4588 11.5756 61.2867 10.595C52.8077 3.50531 52.9993 1.99871 53.1608 1.74323C53.1345 1.77328 53.0932 1.81837 53.0406 1.87848C52.9392 1.47647 52.8678 1.14209 52.8678 1.14209C52.8678 1.14209 48.232 5.77835 47.259 13.4992C46.6203 18.5412 48.51 23.7974 51.2411 27.16C52.6649 28.8996 54.2728 30.4813 56.0385 31.8752V31.8714C58.1047 34.8358 59.2392 38.4952 59.2392 42.4326C59.2392 52.2913 51.2449 60.2826 41.3834 60.2826C40.0385 60.2826 38.7011 60.1323 37.39 59.8355C32.7354 58.9488 30.0493 56.6007 28.7081 55.0076C27.9417 54.0947 27.6149 53.4297 27.6149 53.4297C31.7849 54.925 36.3944 54.6094 39.197 53.0615C42.022 51.4948 43.7314 50.3338 45.1176 50.7922C46.4851 51.2468 47.5745 49.9243 46.5978 48.553C45.6398 47.1816 43.1491 45.2204 39.4524 45.7652C36.6236 46.1785 34.0314 48.1848 30.3273 46.2386C30.0868 46.1146 29.8577 45.9793 29.6323 45.8291C29.3881 45.6863 30.425 46.047 30.1845 45.8854C29.4632 45.536 28.1859 44.7696 27.8553 44.499C27.799 44.454 28.4151 44.6756 28.3587 44.6305C24.895 42.072 25.327 40.3474 25.436 39.2616C25.5224 38.3937 26.1535 37.2854 27.2129 36.8346C27.7239 37.0863 28.0432 37.2779 28.0432 37.2779C28.0432 37.2779 27.8253 36.8796 27.7051 36.6655C27.7464 36.6505 27.7877 36.6542 27.8253 36.6392C28.246 36.8195 29.174 37.2929 29.6623 37.5785C30.2972 37.9805 30.5001 38.3411 30.5001 38.3411C30.5001 38.3411 30.6691 38.2585 30.5452 37.9091C30.5001 37.7663 30.3085 37.3079 29.6774 36.8458L29.7149 36.8496C30.0906 37.0412 30.4475 37.2629 30.7818 37.5146C30.9584 36.936 31.2777 36.3311 31.2101 35.2491C31.1688 34.4901 31.1876 34.291 31.0373 33.9979C30.9021 33.7462 31.1124 33.6485 31.3454 33.9078C31.304 33.7011 31.2402 33.502 31.1463 33.3104L31.15 33.2916C31.4393 32.3861 37.2923 30.0304 37.7168 29.7524C38.4043 29.3203 38.9903 28.7493 39.4374 28.0767C39.7642 27.6109 40.0084 26.9609 40.0685 25.9728C40.0873 25.5257 39.9521 25.1763 38.4005 24.8381C37.4689 24.6352 36.03 24.4399 33.8135 24.2295C32.1944 24.0867 31.2477 23.0347 30.7067 22.0654C30.609 21.855 30.5076 21.6671 30.4062 21.4793C30.3123 21.2576 30.2334 21.0322 30.177 20.7992C31.15 18.2594 32.8931 16.0954 35.166 14.6113C35.2975 14.5061 34.6438 14.6376 34.7753 14.5324C34.9255 14.4084 35.9173 14.0515 36.1052 13.9688C36.3343 13.8711 35.1247 13.4128 34.0615 13.5255C32.9758 13.6345 32.7466 13.7509 32.1643 13.9726C32.4048 13.7584 33.1711 13.4767 32.9908 13.4804C31.8187 13.642 30.3648 14.2506 29.1214 14.9419C29.1176 14.8217 29.1439 14.7015 29.1965 14.5925C28.618 14.8142 27.1942 15.7046 26.7809 16.4598C26.7997 16.317 26.8072 16.1705 26.8034 16.024C26.3677 16.3508 25.9695 16.7228 25.6163 17.1361L25.5938 17.1549C22.2315 15.9413 19.2749 15.8624 16.7692 16.4072C16.2207 15.915 15.3416 15.1673 14.0944 12.7177C14.008 12.5712 13.9629 13.022 13.899 12.8755C13.4144 11.7521 13.1214 9.91116 13.1702 8.64502C13.1702 8.64502 12.1672 9.09963 11.3407 11.0082C11.1866 11.3501 11.089 11.5417 10.9913 11.7296C10.9462 11.786 11.0927 11.1022 11.0702 11.1397C10.9274 11.3839 10.5517 11.7258 10.3902 12.1654C10.2775 12.4923 10.1197 12.6764 10.0183 13.0822L9.99575 13.1197C9.98823 12.9995 10.0258 12.6238 9.99951 12.7027C9.61256 13.4879 9.27821 14.2995 9.00021 15.1298C8.55316 16.5988 8.03472 18.5938 7.95208 21.1937C7.93329 21.3891 7.94832 21.6108 7.93329 21.7874C6.87765 22.9934 6.15635 24.0153 5.88586 24.5451C4.51465 26.649 3.00819 29.9403 1.54682 35.1439C2.19673 33.7237 2.97438 32.3598 3.86849 31.0787C2.65506 33.8401 1.48295 38.1796 1.24628 44.8635C1.5393 43.4809 1.91874 42.117 2.3733 40.7795C2.16292 45.2354 2.68136 50.7584 5.49892 56.9914C7.17067 60.6583 11.0213 68.1011 20.4282 73.9096C29.8351 79.7181 23.629 76.2916 29.1289 78.0763C29.5346 78.2228 29.9478 78.3693 30.3686 78.5083C30.2409 78.4557 30.1131 78.3994 29.9854 78.343C33.6483 79.4401 37.4463 79.9999 41.2707 79.9999C55.5125 80.0112 59.7126 74.2929 59.7126 74.2929C59.7126 74.2929 59.6976 74.3041 59.6713 74.3229C59.8704 74.135 60.0657 73.9359 60.2536 73.733C58.007 75.8558 52.8791 75.9948 50.9594 75.8445C54.2277 74.8827 56.3803 74.0712 60.5654 72.4669C61.0537 72.2866 61.5571 72.0799 62.0681 71.847C62.1244 71.8244 62.1808 71.7944 62.2334 71.7718C62.3348 71.723 62.4362 71.6817 62.5377 71.6291C64.5776 70.6673 66.4935 69.4687 68.2517 68.0523C72.4555 64.6935 73.3684 61.421 73.8492 59.2644C73.7816 59.4711 73.575 59.952 73.4285 60.2676C72.3465 62.582 69.946 64.0059 67.3388 65.2232C68.5785 63.5964 69.7281 61.9019 70.7837 60.1474C71.6328 59.3058 71.8995 57.9833 72.5344 57.0966Z" fill="url(#paint6_radial_115_822)"/>
<path id="Vector_8" d="M67.4178 65.1255C69.1309 63.2357 70.6711 61.0754 71.8357 58.622C74.8374 52.3138 79.4732 41.824 75.8216 30.8721C72.9327 22.2157 68.9693 17.4818 63.939 12.8568C55.7643 5.34635 53.4802 1.99502 53.4802 0C53.4802 0 44.0432 10.5236 48.1343 21.4944C52.2255 32.4651 60.6105 32.0668 66.1555 43.5185C72.681 56.9952 60.8735 71.7004 51.1097 75.8182C51.707 75.6867 72.8125 70.9077 73.9245 58.8361C73.9019 59.0578 73.4248 62.3941 67.4178 65.1255Z" fill="url(#paint7_radial_115_822)"/>
<path id="Vector_9" d="M40.0722 25.9653C40.106 25.2514 39.7341 24.7743 33.8398 24.222C31.4129 23.9966 30.485 21.7573 30.2033 20.8105C29.3392 23.0535 28.9861 25.4017 29.1777 28.2496C29.3092 30.1131 30.5602 32.1119 31.1575 33.2879C31.1575 33.2879 31.289 33.115 31.3528 33.0512C32.4798 31.879 37.2021 30.0906 37.6454 29.8351C38.13 29.527 39.9933 28.1669 40.0722 25.9653Z" fill="url(#paint8_linear_115_822)"/>
<path id="Vector_10" d="M14.1169 12.7216C14.0305 12.5751 13.9854 13.026 13.9215 12.8794C13.4369 11.7561 13.1439 9.93761 13.2115 8.64893C13.2115 8.64893 12.2084 9.10354 11.382 11.0121C11.2279 11.354 11.1303 11.5457 11.0326 11.7335C10.9875 11.7899 11.134 11.1061 11.1115 11.1436C10.9687 11.3879 10.593 11.7298 10.4315 12.1505C10.2963 12.4962 10.161 12.6803 10.0558 13.1086C10.0258 13.2251 10.0859 12.5939 10.0596 12.6728C8.13237 16.3998 7.76421 22.0317 7.96707 21.795C12.0694 17.4143 16.7729 16.3735 16.7729 16.3735C16.277 16.0016 15.1875 14.9383 14.1169 12.7216Z" fill="url(#paint9_linear_115_822)"/>
<path id="Vector_11" d="M29.6886 58.5504C24.0197 56.1309 17.5768 52.7157 17.8173 44.961C18.1479 34.7493 27.3406 36.7668 27.3406 36.7668C26.995 36.8495 26.0671 37.5107 25.7365 38.2171C25.3909 39.0962 24.756 41.0837 26.6757 43.1689C29.6923 46.4376 20.4808 50.9235 34.6963 59.3958C35.057 59.5874 31.3679 59.2756 29.6886 58.5504Z" fill="url(#paint10_linear_115_822)"/>
<path id="Vector_12" d="M27.675 53.4592C31.6947 54.8567 36.3756 54.6125 39.1819 53.0647C41.0603 52.0203 43.4647 50.3448 44.9486 50.758C43.6675 50.2509 42.6945 50.0142 41.5262 49.9578C41.327 49.9578 41.0904 49.9541 40.8725 49.9316C40.4442 49.9316 40.0159 49.9541 39.5914 50.0029C38.8664 50.0706 38.0662 50.5251 37.3374 50.4537C37.2998 50.45 38.0436 50.1457 37.9835 50.1607C37.5966 50.2396 37.1758 50.2584 36.7325 50.3147C36.4508 50.3448 36.2066 50.3824 35.9286 50.3936C27.5548 51.1037 20.4808 45.8555 20.4808 45.8555C19.8759 47.8804 23.1744 51.8926 27.675 53.4592Z" fill="url(#paint11_linear_115_822)"/>
<path id="Vector_13" d="M67.4027 65.1782C75.8705 56.8637 80.1569 46.7571 78.3424 35.4182C78.3424 35.4182 79.0675 41.2304 76.3213 47.1779C77.6399 41.3732 77.7939 34.1595 74.2926 26.6904C69.6192 16.7191 61.9329 11.4742 58.9951 9.28377C54.5509 5.96625 52.7063 2.59238 52.6725 1.89355C51.3426 4.6137 47.3266 13.9426 52.2405 21.9753C56.8463 29.5007 64.1005 31.7362 69.1759 38.638C78.534 51.3596 67.4027 65.1782 67.4027 65.1782Z" fill="url(#paint12_linear_115_822)"/>
<path id="Vector_14" d="M66.1891 43.5449C63.2288 37.4321 59.5359 34.7645 56.0421 31.8716C56.4479 32.4389 56.5493 32.6418 56.7747 33.01C59.8515 36.2862 64.3859 44.285 61.0912 54.3202C54.8926 73.2146 30.1055 64.3178 27.5059 61.8194C28.5577 72.7525 46.8569 77.9861 58.7733 70.8965C65.5542 64.4756 71.0391 53.565 66.1891 43.5449Z" fill="url(#paint13_linear_115_822)"/>
</g>
</g>
<defs>
<radialGradient id="paint0_radial_115_822" cx="0" cy="0" r="1" gradientTransform="matrix(27.9313 1.24641 1.83272 -41.0586 75.0957 20.0058)" gradientUnits="userSpaceOnUse">
<stop offset="0.045" stop-color="#FFEA00"/>
<stop offset="0.12" stop-color="#FFDE00"/>
<stop offset="0.254" stop-color="#FFBF00"/>
<stop offset="0.429" stop-color="#FF8E00"/>
<stop offset="0.769" stop-color="#FF272D"/>
<stop offset="0.872" stop-color="#E0255A"/>
<stop offset="0.953" stop-color="#CC2477"/>
<stop offset="1" stop-color="#C42482"/>
</radialGradient>
<radialGradient id="paint1_radial_115_822" cx="0" cy="0" r="1" gradientUnits="userSpaceOnUse" gradientTransform="translate(55.1577 15.7017) scale(78.8003 78.8076)">
<stop stop-color="#00CCDA"/>
<stop offset="0.22" stop-color="#0083FF"/>
<stop offset="0.261" stop-color="#007AF9"/>
<stop offset="0.33" stop-color="#0060E8"/>
<stop offset="0.333" stop-color="#005FE7"/>
<stop offset="0.438" stop-color="#2639AD"/>
<stop offset="0.522" stop-color="#401E84"/>
<stop offset="0.566" stop-color="#4A1475"/>
</radialGradient>
<linearGradient id="paint2_linear_115_822" x1="45.201" y1="59.2872" x2="29.6344" y2="8.37109" gradientUnits="userSpaceOnUse">
<stop stop-color="#000F43" stop-opacity="0.4"/>
<stop offset="0.485" stop-color="#001962" stop-opacity="0.173"/>
<stop offset="1" stop-color="#002079" stop-opacity="0"/>
</linearGradient>
<radialGradient id="paint3_radial_115_822" cx="0" cy="0" r="1" gradientTransform="matrix(26.4492 2.62612 2.62587 -26.4517 66.9533 41.1294)" gradientUnits="userSpaceOnUse">
<stop offset="0.003" stop-color="#FFEA00"/>
<stop offset="0.497" stop-color="#FF272D"/>
<stop offset="1" stop-color="#C42482"/>
</radialGradient>
<radialGradient id="paint4_radial_115_822" cx="0" cy="0" r="1" gradientTransform="matrix(44.1686 4.38541 4.38505 -44.1722 67.0783 15.5279)" gradientUnits="userSpaceOnUse">
<stop offset="0.003" stop-color="#FFE900"/>
<stop offset="0.157" stop-color="#FFAF0E"/>
<stop offset="0.316" stop-color="#FF7A1B"/>
<stop offset="0.472" stop-color="#FF4E26"/>
<stop offset="0.621" stop-color="#FF2C2E"/>
<stop offset="0.762" stop-color="#FF1434"/>
<stop offset="0.892" stop-color="#FF0538"/>
<stop offset="1" stop-color="#FF0039"/>
</radialGradient>
<radialGradient id="paint5_radial_115_822" cx="0" cy="0" r="1" gradientTransform="matrix(40.5291 4.02404 4.02372 -40.5324 69.2606 57.095)" gradientUnits="userSpaceOnUse">
<stop offset="0.003" stop-color="#FF272D"/>
<stop offset="0.497" stop-color="#C42482"/>
<stop offset="0.986" stop-color="#620700"/>
</radialGradient>
<radialGradient id="paint6_radial_115_822" cx="0" cy="0" r="1" gradientUnits="userSpaceOnUse" gradientTransform="translate(59.391 32.0369) scale(63.5911 63.597)">
<stop offset="0.156" stop-color="#FFEA00"/>
<stop offset="0.231" stop-color="#FFDE00"/>
<stop offset="0.365" stop-color="#FFBF00"/>
<stop offset="0.541" stop-color="#FF8E00"/>
<stop offset="0.763" stop-color="#FF272D"/>
<stop offset="0.796" stop-color="#F92433"/>
<stop offset="0.841" stop-color="#E91C45"/>
<stop offset="0.893" stop-color="#CF0E62"/>
<stop offset="0.935" stop-color="#B5007F"/>
</radialGradient>
<radialGradient id="paint7_radial_115_822" cx="0" cy="0" r="1" gradientUnits="userSpaceOnUse" gradientTransform="translate(54.6066 0.103282) scale(75.0899 75.0967)">
<stop offset="0.279" stop-color="#FFEA00"/>
<stop offset="0.402" stop-color="#FFDD00"/>
<stop offset="0.63" stop-color="#FFBA00"/>
<stop offset="0.856" stop-color="#FF9100"/>
<stop offset="0.933" stop-color="#FF6711"/>
<stop offset="0.994" stop-color="#FF4A1D"/>
</radialGradient>
<linearGradient id="paint8_linear_115_822" x1="2.73632" y1="31.3064" x2="31.6306" y2="26.9212" gradientUnits="userSpaceOnUse">
<stop stop-color="#C42482" stop-opacity="0.5"/>
<stop offset="0.474" stop-color="#FF272D" stop-opacity="0.5"/>
<stop offset="0.486" stop-color="#FF2C2C" stop-opacity="0.513"/>
<stop offset="0.675" stop-color="#FF7A1A" stop-opacity="0.72"/>
<stop offset="0.829" stop-color="#FFB20D" stop-opacity="0.871"/>
<stop offset="0.942" stop-color="#FFD605" stop-opacity="0.964"/>
<stop offset="1" stop-color="#FFE302"/>
</linearGradient>
<linearGradient id="paint9_linear_115_822" x1="12.8899" y1="20.9635" x2="9.6101" y2="9.2067" gradientUnits="userSpaceOnUse">
<stop stop-color="#891551" stop-opacity="0.6"/>
<stop offset="1" stop-color="#C42482" stop-opacity="0"/>
</linearGradient>
<linearGradient id="paint10_linear_115_822" x1="19.1744" y1="38.1395" x2="25.9202" y2="47.5503" gradientUnits="userSpaceOnUse">
<stop offset="0.005" stop-color="#891551" stop-opacity="0.5"/>
<stop offset="0.484" stop-color="#FF272D" stop-opacity="0.5"/>
<stop offset="1" stop-color="#FF272D" stop-opacity="0"/>
</linearGradient>
<linearGradient id="paint11_linear_115_822" x1="32.0578" y1="54.6387" x2="32.6703" y2="48.5899" gradientUnits="userSpaceOnUse">
<stop stop-color="#C42482"/>
<stop offset="0.083" stop-color="#C42482" stop-opacity="0.81"/>
<stop offset="0.206" stop-color="#C42482" stop-opacity="0.565"/>
<stop offset="0.328" stop-color="#C42482" stop-opacity="0.362"/>
<stop offset="0.447" stop-color="#C42482" stop-opacity="0.204"/>
<stop offset="0.562" stop-color="#C42482" stop-opacity="0.091"/>
<stop offset="0.673" stop-color="#C42482" stop-opacity="0.023"/>
<stop offset="0.773" stop-color="#C42482" stop-opacity="0"/>
</linearGradient>
<linearGradient id="paint12_linear_115_822" x1="51.6954" y1="2.93528" x2="76.549" y2="58.5068" gradientUnits="userSpaceOnUse">
<stop stop-color="#FFF14F"/>
<stop offset="0.268" stop-color="#FFEE4C"/>
<stop offset="0.452" stop-color="#FFE643"/>
<stop offset="0.612" stop-color="#FFD834"/>
<stop offset="0.757" stop-color="#FFC41E"/>
<stop offset="0.892" stop-color="#FFAB02"/>
<stop offset="0.902" stop-color="#FFA900"/>
<stop offset="0.949" stop-color="#FFA000"/>
<stop offset="1" stop-color="#FF9100"/>
</linearGradient>
<linearGradient id="paint13_linear_115_822" x1="56.602" y1="34.8965" x2="44.829" y2="66.504" gradientUnits="userSpaceOnUse">
<stop stop-color="#FF8E00"/>
<stop offset="0.04" stop-color="#FF8E00" stop-opacity="0.858"/>
<stop offset="0.084" stop-color="#FF8E00" stop-opacity="0.729"/>
<stop offset="0.13" stop-color="#FF8E00" stop-opacity="0.628"/>
<stop offset="0.178" stop-color="#FF8E00" stop-opacity="0.557"/>
<stop offset="0.227" stop-color="#FF8E00" stop-opacity="0.514"/>
<stop offset="0.282" stop-color="#FF8E00" stop-opacity="0.5"/>
<stop offset="0.389" stop-color="#FF8E00" stop-opacity="0.478"/>
<stop offset="0.524" stop-color="#FF8E00" stop-opacity="0.416"/>
<stop offset="0.676" stop-color="#FF8E00" stop-opacity="0.314"/>
<stop offset="0.838" stop-color="#FF8E00" stop-opacity="0.172"/>
<stop offset="1" stop-color="#FF8E00" stop-opacity="0"/>
</linearGradient>
</defs>
</svg>
