<svg width="80" height="80" viewBox="0 0 80 80" fill="none" xmlns="http://www.w3.org/2000/svg">
<g id="gatsby">
<g id="gatsby_2">
<path id="Vector" d="M40 0C17.9072 0 0 17.9072 0 40C0 62.0928 17.9072 80 40 80C62.0928 80 80 62.0928 80 40C80 17.9072 62.0928 0 40 0ZM8.5952 40.416L39.584 71.4048C22.5664 71.184 8.816 57.4336 8.5952 40.416ZM47.0304 70.6208L9.3792 32.9696C12.5728 19.008 25.0688 8.5888 40 8.5888C50.4352 8.5888 59.6832 13.68 65.3952 21.5136L61.0464 25.3504C56.4128 18.7072 48.7136 14.3584 40 14.3584C28.9056 14.3584 19.456 21.4048 15.8848 31.2672L48.7328 64.112C56.7104 61.2224 62.8448 54.4896 64.8992 46.1504H51.2864V40H71.4144C71.4112 54.9312 60.992 67.4272 47.0304 70.6208Z" fill="#744C9E"/>
</g>
</g>
</svg>
