<svg width="80" height="80" viewBox="0 0 80 80" fill="none" xmlns="http://www.w3.org/2000/svg">
<g id="gsap">
<g id="Union">
<path d="M40.559 34.725C40.6578 34.6294 40.7156 34.4992 40.7201 34.3616H40.7221C40.7888 31.7429 40.1827 29.6975 38.9221 28.2814C37.591 26.7868 35.5523 26.0194 32.8621 26C30.1767 26 27.8635 26.839 26.1718 28.4263C24.572 29.9285 23.6691 32.0079 23.6285 34.2813C23.5599 38.2013 25.7745 40.6942 28.2443 43.1071C30.1564 45.0742 30.5073 46.0468 30.488 47.1565C30.4648 48.4403 29.8539 49.1769 28.8108 49.1769C28.3806 49.1769 28.0355 49.0433 27.7881 48.7804C27.4014 48.3745 27.2303 47.6407 27.2931 46.6587C27.3036 46.5931 27.2999 46.5259 27.2822 46.4619C27.2747 46.4345 27.2647 46.4081 27.2524 46.3826C27.2358 46.3486 27.2151 46.3168 27.1907 46.2875C27.1418 46.2259 27.0798 46.1759 27.0093 46.1412C26.9388 46.1062 26.8614 46.0876 26.7827 46.0864H21.1374C20.9997 46.0859 20.8673 46.1393 20.7683 46.2351C20.6692 46.3307 20.6113 46.4612 20.6067 46.5988C20.4743 49.3208 21.1084 51.43 22.4917 52.8675C23.8547 54.2828 25.904 55 28.5865 55C33.8394 55 37.2914 51.7181 37.3813 46.6413C37.4364 43.5015 36.2909 41.1264 33.4324 38.4449C31.2613 36.3395 30.4986 35.1137 30.5228 33.7652C30.544 32.5559 31.271 31.8637 32.3981 31.8637C33.5253 31.8637 34.0762 32.639 34.0762 34.2311C34.0762 34.5839 34.375 34.8739 34.7326 34.8739H40.1904C40.3279 34.8742 40.4601 34.8206 40.559 34.725Z" fill="#0AE448"/>
<path d="M23.528 39.5574V39.5449H23.5251C23.5299 39.282 23.3472 39.0413 23.0881 39.0075C23.0659 39.0026 23.0417 39.0026 23.0185 39.0026H13.0329V39.0141C12.7747 39.045 12.565 39.2202 12.5137 39.4512L11.4736 43.9692C11.4598 44.0301 11.4602 44.0934 11.4748 44.154C11.4893 44.2147 11.5177 44.2713 11.5577 44.3192C11.6098 44.3806 11.6747 44.4299 11.7478 44.4637C11.8209 44.4974 11.9006 44.5146 11.9811 44.5144H13.5026C13.5906 44.5144 13.7056 44.5271 13.7472 44.5812C13.7868 44.6333 13.7839 44.7504 13.7424 44.9012C13.4466 45.9868 12.7428 47.1767 11.8689 47.8649C10.9941 48.5522 9.54993 48.964 8.53783 48.3435C7.39623 47.6426 7.20288 45.9519 7.1555 44.7495C7.05591 42.1664 7.56149 39.573 8.55429 37.1853C9.26478 35.4762 10.6046 32.3926 12.8762 32.3926C14.1638 32.3926 14.8115 33.4558 14.8598 35.6405C14.861 35.6893 14.871 35.7372 14.8889 35.7821C14.909 35.8321 14.9389 35.8781 14.9776 35.9171C15.0508 35.9907 15.1494 36.0337 15.2533 36.0367H21.179C21.3175 36.0367 21.4504 35.9824 21.5495 35.8857C21.6487 35.7889 21.7061 35.6572 21.7096 35.5187C21.7058 32.3596 20.9846 29.9469 19.5636 28.3442C18.22 26.8293 16.2886 26.0706 13.8284 26.0918C5.74126 26.0918 1.54112 34.2629 0.651745 42.3609C0.158794 46.6741 0.972708 50.2545 2.9428 52.4413C4.43339 54.0961 6.19078 54.9342 8.7969 54.9342C11.6978 54.9342 13.869 54.2903 15.6303 52.91C17.7009 51.2889 19.2688 48.589 20.4269 44.6605C20.4397 44.6171 20.4662 44.5791 20.5025 44.5519C20.5387 44.5246 20.5827 44.5099 20.628 44.5097H21.8837C22.1775 44.5097 22.4327 44.323 22.4888 44.0679L23.528 39.5574Z" fill="#0AE448"/>
<path fill-rule="evenodd" clip-rule="evenodd" d="M57.6368 54.0449L57.6726 27.0429C57.6736 26.9754 57.6611 26.9081 57.6358 26.8454C57.6244 26.8173 57.6106 26.7901 57.5944 26.7646C57.5747 26.7333 57.5515 26.7042 57.5253 26.6778C57.5033 26.6554 57.4792 26.6353 57.4536 26.6176C57.4239 26.5971 57.392 26.5796 57.3584 26.5659C57.2959 26.5402 57.2288 26.5272 57.1612 26.5277H48.7145C48.4303 26.5277 48.3056 26.7722 48.2244 26.9336L35.9941 53.8795V53.8844L35.9893 53.8913C35.8539 54.2226 36.111 54.5776 36.4697 54.5776H42.3741C42.6931 54.5776 42.9048 54.4808 43.0082 54.2797L44.1808 51.4618C44.3248 51.0859 44.3519 51.051 44.7618 51.051H50.4032C50.7957 51.051 50.8034 51.0588 50.7976 51.4425L50.671 54.0624C50.6706 54.0912 50.6726 54.1199 50.677 54.1483C50.6829 54.1863 50.6932 54.2236 50.7077 54.2594C50.7329 54.3222 50.7704 54.3791 50.8179 54.4272C50.8654 54.4751 50.9221 54.5131 50.9845 54.5389C51.0469 54.5648 51.1139 54.5778 51.1814 54.5776H57.1467C57.2205 54.5785 57.2937 54.5632 57.361 54.5327C57.4283 54.5023 57.4881 54.4577 57.5363 54.4015C57.5778 54.3529 57.6083 54.2958 57.6256 54.2342C57.643 54.1726 57.6468 54.1081 57.6368 54.0449ZM47.1871 45.0298C47.1426 45.0298 47.0981 45.0284 47.0537 45.0249C47.033 45.0232 47.013 45.0169 46.995 45.0067C46.9769 44.9963 46.9614 44.9822 46.9494 44.9652C46.9437 44.9571 46.9388 44.9484 46.9348 44.9394C46.9306 44.9295 46.9275 44.9191 46.9256 44.9085C46.9235 44.897 46.9229 44.8854 46.9237 44.8738C46.9243 44.8646 46.9258 44.8557 46.9281 44.8469C46.9347 44.8247 46.943 44.7978 46.9534 44.7665C46.9611 44.7433 46.97 44.7178 46.9803 44.6905L51.2104 34.2233C51.2484 34.1201 51.2923 34.0191 51.3419 33.9207C51.4105 33.7796 51.4936 33.7699 51.5197 33.8745C51.542 33.9613 51.0345 44.6218 51.0345 44.6218C50.9948 45.0211 50.9765 45.0374 50.583 45.0704L47.191 45.0317H47.1833L47.1871 45.0298Z" fill="#0AE448"/>
<path fill-rule="evenodd" clip-rule="evenodd" d="M65.1855 26.5277H69.6699L69.6747 26.5249C76.2886 26.5249 79.5908 29.5226 79.4864 35.4385C79.3645 42.3706 75.1402 47.4649 68.7796 48.6393C67.8757 48.8056 66.9564 48.8703 66.0381 48.8656L62.967 48.8519C62.9166 48.8517 62.8682 48.8712 62.832 48.9062C62.7959 48.9413 62.7749 48.9892 62.7736 49.0395C62.773 49.0735 62.782 49.107 62.7996 49.136C62.8173 49.1651 62.8428 49.1887 62.8732 49.2038L63.2473 49.3982L64.214 49.9028L65.1855 50.4083C65.2858 50.4607 65.3864 50.5131 65.4871 50.5648C65.7017 50.6771 65.7848 50.8626 65.7365 51.1024L65.0559 54.1735C64.9999 54.4296 64.794 54.5776 64.4924 54.5776H58.8877C58.8073 54.5776 58.7279 54.5601 58.6549 54.5263C58.582 54.4926 58.5173 54.4435 58.4652 54.3824C58.4251 54.3342 58.3966 54.2776 58.3818 54.2167C58.3671 54.1558 58.3665 54.0926 58.3801 54.0314L64.621 26.9358C64.6828 26.6535 64.9486 26.5277 65.1855 26.5277ZM68.0236 42.6519H68.1435C71.087 42.5329 72.6917 39.0547 72.7506 35.6801C72.7844 33.7305 72.073 32.5887 70.797 32.55H66.6973C66.6477 32.55 66.6 32.5694 66.5644 32.6041C66.5288 32.6388 66.5082 32.686 66.5069 32.7358C66.5061 32.7697 66.5148 32.8035 66.532 32.8327C66.5493 32.8622 66.5744 32.8861 66.6046 32.9019C66.6046 32.9019 69.1971 34.2688 69.375 34.3675C69.5142 34.4437 69.5162 34.5733 69.4707 34.7986C69.4703 34.8036 69.0734 36.5477 68.6555 38.3866C68.189 40.4389 67.6963 42.6096 67.6988 42.6132C67.7065 42.6228 67.7539 42.6519 68.0236 42.6519Z" fill="#0AE448"/>
</g>
</g>
</svg>
