<svg width="80" height="80" viewBox="0 0 80 80" fill="none" xmlns="http://www.w3.org/2000/svg">
<g clip-path="url(#clip0_115_814)">
<path d="M4.8136 3.45013L49.08 0.180533C54.5176 -0.285867 55.9144 0.0285334 59.3336 2.51413L73.464 12.4685C75.7944 14.1805 76.5704 14.6469 76.5704 16.5109V71.1053C76.5704 74.5269 75.328 76.5509 70.9784 76.8597L19.5736 79.9733C16.3096 80.1277 14.7552 79.6613 13.0456 77.4829L2.64 63.9517C0.7736 61.4613 0 59.5973 0 57.4181V8.89013C0 6.09253 1.2424 3.75973 4.8136 3.45013Z" fill="white"/>
<path fill-rule="evenodd" clip-rule="evenodd" d="M49.08 0.181333L4.8136 3.45093C1.2424 3.75973 0 6.09333 0 8.89013V57.4181C0 59.5965 0.7736 61.4605 2.64 63.9517L13.0456 77.4821C14.7552 79.6605 16.3096 80.1277 19.5736 79.9725L70.9792 76.8605C75.3256 76.5509 76.5712 74.5269 76.5712 71.1061V16.5117C76.5712 14.7437 75.8728 14.2341 73.8168 12.7253L59.3336 2.51413C55.9152 0.0285334 54.5176 -0.285867 49.08 0.180533V0.181333ZM20.736 15.6181C16.5384 15.9005 15.5864 15.9645 13.2024 14.0261L7.1416 9.20533C6.5256 8.58133 6.8352 7.80293 8.3872 7.64773L50.9416 4.53813C54.5152 4.22613 56.376 5.47173 57.7736 6.55973L65.072 11.8477C65.384 12.0053 66.16 12.9357 65.2264 12.9357L21.28 15.5813L20.736 15.6181ZM15.8424 70.6397V24.2933C15.8424 22.2693 16.464 21.3357 18.3248 21.1789L68.8 18.2237C70.512 18.0693 71.2856 19.1573 71.2856 21.1781V67.2157C71.2856 69.2397 70.9736 70.9517 68.1792 71.1061L19.8776 73.9061C17.0832 74.0605 15.8432 73.1301 15.8432 70.6397H15.8424ZM63.5224 26.7781C63.832 28.1781 63.5224 29.5781 62.1224 29.7381L59.7944 30.1997V64.4181C57.7728 65.5061 55.912 66.1277 54.3568 66.1277C51.8712 66.1277 51.2504 65.3493 49.3888 63.0181L34.1648 39.0661V62.2397L38.9808 63.3301C38.9808 63.3301 38.9808 66.1301 35.0952 66.1301L24.3832 66.7517C24.0712 66.1277 24.3832 64.5733 25.4688 64.2637L28.2664 63.4877V32.8477L24.384 32.5333C24.072 31.1333 24.848 29.1117 27.024 28.9549L38.5176 28.1813L54.3576 52.4429V30.9789L50.32 30.5149C50.008 28.8005 51.2504 27.5549 52.8024 27.4029L63.5224 26.7781Z" fill="black"/>
</g>
<defs>
<clipPath id="clip0_115_814">
<rect width="80" height="80" fill="white"/>
</clipPath>
</defs>
</svg>
