<svg width="80" height="80" viewBox="0 0 80 80" fill="none" xmlns="http://www.w3.org/2000/svg">
<g id="ps">
<g id="ps_2">
<path id="Vector" d="M14.1667 1H65.8333C73.6667 1 80 7.33333 80 15.1667V64.8333C80 72.6667 73.6667 79 65.8333 79H14.1667C6.33333 79 0 72.6667 0 64.8333V15.1667C0 7.33333 6.33333 1 14.1667 1Z" fill="#001E36"/>
<path id="Vector_2" d="M18 55.6999V21.3999C18 21.1666 18.1 21.0333 18.3333 21.0333C18.9 21.0333 19.4333 21.0333 20.2 20.9999C21 20.9666 21.8333 20.9666 22.7333 20.9333C23.6333 20.8999 24.6 20.8999 25.6333 20.8666C26.6667 20.8333 27.6667 20.8333 28.6667 20.8333C31.4 20.8333 33.6667 21.1666 35.5333 21.8666C37.2 22.4333 38.7333 23.3666 40 24.5999C41.0667 25.6666 41.9 26.9666 42.4333 28.3999C42.9333 29.7999 43.2 31.2333 43.2 32.7333C43.2 35.5999 42.5333 37.9666 41.2 39.8333C39.8667 41.6999 38 43.0999 35.8333 43.8999C33.5667 44.7332 31.0667 45.0333 28.3333 45.0333C27.5333 45.0333 27 45.0333 26.6667 44.9999C26.3333 44.9666 25.8667 44.9666 25.2333 44.9666V55.6666C25.2667 55.8999 25.1 56.0999 24.8667 56.1332C24.8333 56.1332 24.8 56.1332 24.7333 56.1332H18.4C18.1333 56.1332 18 55.9999 18 55.6999ZM25.2667 27.4666V38.6666C25.7333 38.6999 26.1667 38.7332 26.5667 38.7332H28.3333C29.6333 38.7332 30.9333 38.5333 32.1667 38.1333C33.2333 37.8333 34.1667 37.1999 34.9 36.3666C35.6 35.5333 35.9333 34.3999 35.9333 32.9333C35.9667 31.8999 35.7 30.8666 35.1667 29.9666C34.6 29.0999 33.8 28.4333 32.8333 28.0666C31.6 27.5666 30.2667 27.3666 28.9 27.3999C28.0333 27.3999 27.2667 27.3999 26.6333 27.4333C25.9667 27.3999 25.5 27.4333 25.2667 27.4666Z" fill="#31A8FF"/>
<path id="Vector_3" d="M64 36.6334C63 36.1001 61.9333 35.7334 60.8 35.5001C59.5666 35.2334 58.3333 35.0668 57.0666 35.0668C56.4 35.0334 55.7 35.1334 55.0666 35.3001C54.6333 35.4001 54.2666 35.6334 54.0333 35.9668C53.8666 36.2334 53.7666 36.5668 53.7666 36.8668C53.7666 37.1668 53.9 37.4668 54.1 37.7334C54.4 38.1001 54.8 38.4001 55.2333 38.6334C56 39.0334 56.8 39.4001 57.6 39.7334C59.4 40.3334 61.1333 41.1668 62.7333 42.1668C63.8333 42.8668 64.7333 43.8001 65.3666 44.9334C65.9 46.0001 66.1666 47.1668 66.1333 48.3668C66.1666 49.9334 65.7 51.5001 64.8333 52.8001C63.9 54.1334 62.6 55.1668 61.1 55.7668C59.4666 56.4668 57.4666 56.8334 55.0666 56.8334C53.5333 56.8334 52.0333 56.7001 50.5333 56.4001C49.3666 56.2001 48.2 55.8334 47.1333 55.3334C46.9 55.2001 46.7333 54.9668 46.7666 54.7001V48.9001C46.7666 48.8001 46.8 48.6668 46.9 48.6001C47 48.5334 47.1 48.5668 47.2 48.6334C48.5 49.4001 49.8666 49.9334 51.3333 50.2668C52.6 50.6001 53.9333 50.7668 55.2666 50.7668C56.5333 50.7668 57.4333 50.6001 58.0333 50.3001C58.5666 50.0668 58.9333 49.5001 58.9333 48.9001C58.9333 48.4334 58.6666 48.0001 58.1333 47.5668C57.6 47.1334 56.5 46.6334 54.8666 46.0001C53.1666 45.4001 51.6 44.6001 50.1333 43.6001C49.1 42.8668 48.2333 41.9001 47.6 40.7668C47.0666 39.7001 46.8 38.5334 46.8333 37.3668C46.8333 35.9334 47.2333 34.5668 47.9666 33.3334C48.8 32.0001 50.0333 30.9334 51.4666 30.2668C53.0333 29.4668 55 29.1001 57.3666 29.1001C58.7333 29.1001 60.1333 29.2001 61.5 29.4001C62.5 29.5334 63.4666 29.8001 64.3666 30.1668C64.5 30.2001 64.6333 30.3334 64.7 30.4668C64.7333 30.6001 64.7666 30.7334 64.7666 30.8668V36.3001C64.7666 36.4334 64.7 36.5668 64.6 36.6334C64.3 36.7001 64.1333 36.7001 64 36.6334Z" fill="#31A8FF"/>
</g>
</g>
</svg>
