<svg width="80" height="80" viewBox="0 0 80 80" fill="none" xmlns="http://www.w3.org/2000/svg">
<g id="postman">
<g id="postman_2">
<path id="Vector" d="M71.6582 15.5517C66.8225 9.28976 60.2385 4.60254 52.7388 2.08281C45.239 -0.436917 37.1605 -0.675972 29.525 1.39588C21.8894 3.46774 15.0397 7.75743 9.84219 13.7224C4.6447 19.6875 1.33287 27.0598 0.325559 34.9072C-0.681755 42.7546 0.660694 50.7244 4.18312 57.8087C7.70555 64.8931 13.2497 70.7737 20.1145 74.7069C26.9793 78.6401 34.8562 80.4492 42.7492 79.9054C50.6422 79.3615 58.1966 76.4892 64.457 71.6517C81.9319 58.1467 85.1569 33.0329 71.657 15.5517H71.6582Z" fill="#FF6C37"/>
<path id="Vector_2" d="M53.4907 25.4869L36.6247 42.4869L31.8585 37.5869C48.4583 20.9869 50.1245 22.4869 53.4919 25.4869H53.4907Z" fill="white"/>
<path id="Vector_3" d="M36.6248 42.9516C36.4754 42.948 36.3328 42.8887 36.2248 42.7854L31.4248 37.9854C31.3168 37.8735 31.2563 37.7241 31.2563 37.5685C31.2563 37.413 31.3168 37.2635 31.4248 37.1517C47.7909 20.7854 50.0247 21.5517 53.8909 25.0517C53.9556 25.1035 54.0074 25.1696 54.0421 25.2449C54.0768 25.3202 54.0935 25.4025 54.0909 25.4854C54.1159 25.6479 54.0534 25.8142 53.9246 25.9192L37.0585 42.7866C36.9403 42.8951 36.7852 42.9545 36.6248 42.9529V42.9516ZM32.6911 37.5854L36.6248 41.5191L52.6246 25.5192C52.0722 24.8268 51.2839 24.3625 50.4106 24.2149C49.5373 24.0673 48.6402 24.2468 47.8909 24.7192C44.991 26.0192 40.3247 29.9854 32.6911 37.5854Z" fill="#FF6C37"/>
<path id="Vector_4" d="M41.4584 47.1867L36.8584 42.4867L53.7246 25.8193C58.2583 30.2531 51.5246 37.653 41.4584 47.1854V47.1867Z" fill="white"/>
<path id="Vector_5" d="M41.4585 47.7866C41.3109 47.7749 41.1709 47.7167 41.0585 47.6204L36.3585 43.0204C36.288 42.8495 36.288 42.6576 36.3585 42.4866C36.3086 42.3464 36.3086 42.1932 36.3585 42.0529L53.2247 25.1867C53.3419 25.0765 53.4968 25.0151 53.6578 25.0151C53.8187 25.0151 53.9736 25.0765 54.0909 25.1867C54.6371 25.6894 55.0686 26.3039 55.3561 26.9883C55.6437 27.6727 55.7804 28.411 55.7571 29.1529C55.7571 33.6529 50.6234 39.3192 41.891 47.5866C41.7743 47.7021 41.6208 47.7729 41.4572 47.7866H41.4585ZM37.7248 42.4866L41.491 46.2516C48.1572 39.9517 54.5246 33.4517 54.5571 29.0517C54.5934 28.1189 54.285 27.2054 53.6909 26.4854L37.7248 42.4866Z" fill="#FF6C37"/>
<path id="Vector_6" d="M31.991 37.6866L35.3248 41.0203C35.346 41.0391 35.3631 41.0622 35.3748 41.0881C35.3864 41.1139 35.3925 41.142 35.3925 41.1704C35.3925 41.1987 35.3864 41.2268 35.3748 41.2526C35.3631 41.2785 35.346 41.3016 35.3248 41.3204L28.2911 42.8203C28.1491 42.851 28.001 42.8344 27.8693 42.7731C27.7376 42.7118 27.6296 42.6091 27.5617 42.4807C27.4937 42.3524 27.4696 42.2053 27.493 42.0619C27.5163 41.9186 27.5859 41.7868 27.6911 41.6866L31.791 37.6204C31.791 37.6204 31.9248 37.6204 31.991 37.6866Z" fill="white"/>
<path id="Vector_7" d="M28.1248 43.4866C27.9025 43.4838 27.6847 43.4241 27.4922 43.3131C27.2996 43.2022 27.1387 43.0437 27.0248 42.8528C26.8966 42.6111 26.8501 42.3343 26.8923 42.064C26.9344 41.7936 27.0629 41.5441 27.2585 41.3528L31.3247 37.2528C31.4714 37.1218 31.6612 37.0493 31.8578 37.0493C32.0545 37.0493 32.2443 37.1218 32.391 37.2528L35.7247 40.5866C35.9222 40.7741 35.9997 41.0578 35.9247 41.3203C35.8497 41.5828 35.6297 41.7916 35.3584 41.8541L28.3248 43.3541L28.1248 43.4866ZM31.8585 38.4203L28.0923 42.1866L34.3259 40.8528L31.8585 38.4203Z" fill="#FF6C37"/>
<path id="Vector_8" d="M62.4584 16.1191C60.0459 13.7916 56.2558 13.6941 53.7258 15.8904C51.1958 18.0866 50.7633 21.8566 52.7333 24.5691C54.7033 27.2816 58.4171 28.0416 61.2921 26.3191L56.7584 21.7854L62.4584 16.1191Z" fill="white"/>
<path id="Vector_9" d="M57.9584 27.8516C56.5723 27.8339 55.2222 27.4086 54.0761 26.6289C52.9301 25.8491 52.0388 24.7494 51.5134 23.4666C50.9884 22.1849 50.8506 20.7773 51.1172 19.4181C51.3838 18.0588 52.0431 16.8076 53.0134 15.8191C54.3479 14.5091 56.1433 13.7751 58.0134 13.7751C59.8835 13.7751 61.6789 14.5091 63.0134 15.8191C63.1409 15.9266 63.2134 16.0854 63.2134 16.2529C63.2131 16.3353 63.1951 16.4167 63.1606 16.4915C63.1261 16.5663 63.0759 16.6329 63.0134 16.6866L57.6134 21.7866L61.7134 25.8204C61.7798 25.8838 61.8297 25.9626 61.8587 26.0497C61.8877 26.1369 61.8949 26.2298 61.8796 26.3204C61.8698 26.4078 61.8408 26.4919 61.7948 26.5669C61.7488 26.6419 61.6868 26.7058 61.6134 26.7541C60.5119 27.4426 59.2457 27.8225 57.9471 27.8541L57.9584 27.8516ZM57.9584 14.9179C55.5834 14.9304 53.4584 16.3591 52.5672 18.5429C51.6759 20.7266 52.1609 23.2404 53.8259 24.9179C54.6541 25.7509 55.7145 26.3143 56.8683 26.5345C58.0221 26.7546 59.2155 26.6212 60.2921 26.1516L56.3584 22.2179C56.2959 22.1679 56.2454 22.1045 56.2107 22.0323C56.176 21.9601 56.158 21.8811 56.158 21.801C56.158 21.7209 56.176 21.6419 56.2107 21.5697C56.2454 21.4976 56.2959 21.4341 56.3584 21.3841L61.5584 16.1504C60.5247 15.3582 59.2607 14.925 57.9584 14.9166V14.9179Z" fill="#FF6C37"/>
<path id="Vector_10" d="M62.5582 16.2192L56.8583 21.8855L61.392 26.4192C61.8483 26.1572 62.2731 25.844 62.6582 25.4855C63.8464 24.2295 64.5002 22.561 64.4815 20.8321C64.4629 19.1033 63.7732 17.4493 62.5582 16.2192Z" fill="white"/>
<path id="Vector_11" d="M61.2908 26.9194C61.2159 26.9234 61.1411 26.9106 61.0718 26.8818C61.0026 26.853 60.9407 26.8091 60.8908 26.7531L56.3571 22.2194C56.2945 22.1694 56.2441 22.1059 56.2094 22.0338C56.1747 21.9616 56.1566 21.8826 56.1566 21.8025C56.1566 21.7224 56.1747 21.6434 56.2094 21.5712C56.2441 21.4991 56.2945 21.4356 56.3571 21.3856L62.0233 15.8194C62.078 15.7369 62.1523 15.6692 62.2395 15.6223C62.3268 15.5755 62.4243 15.551 62.5233 15.551C62.6223 15.551 62.7198 15.5755 62.807 15.6223C62.8942 15.6692 62.9685 15.7369 63.0233 15.8194C63.6885 16.4711 64.2169 17.2491 64.5777 18.1076C64.9384 18.9662 65.1243 19.8881 65.1243 20.8194C65.1243 21.7506 64.9384 22.6726 64.5777 23.5311C64.2169 24.3897 63.6885 25.1676 63.0233 25.8194C62.6309 26.2356 62.1819 26.5945 61.6895 26.8856C61.5656 26.9481 61.4222 26.9602 61.2895 26.9194H61.2908ZM57.6246 21.7869L61.3908 25.5531C61.6499 25.3715 61.8951 25.171 62.1245 24.9531C63.2317 23.849 63.8552 22.3505 63.8583 20.7869C63.8608 19.3875 63.3508 18.0357 62.4245 16.9869L57.6246 21.7869Z" fill="#FF6C37"/>
<path id="Vector_12" d="M54.1909 26.1868C53.7394 25.7629 53.1433 25.5269 52.524 25.5269C51.9047 25.5269 51.3086 25.7629 50.8571 26.1868L35.7585 41.2519L38.2585 43.7856L54.2246 29.7856C54.4681 29.5522 54.6612 29.2715 54.7921 28.9607C54.923 28.6498 54.9889 28.3155 54.9858 27.9783C54.9826 27.641 54.9105 27.308 54.7737 26.9997C54.637 26.6914 54.4387 26.4143 54.1909 26.1856V26.1868Z" fill="white"/>
<path id="Vector_13" d="M38.1247 44.3868C37.9754 44.3831 37.8327 44.3238 37.7248 44.2205L35.191 41.6868C35.083 41.5749 35.0226 41.4254 35.0226 41.2699C35.0226 41.1143 35.083 40.9649 35.191 40.853L50.2909 25.8193C50.7258 25.3849 51.2812 25.0912 51.8851 24.9762C52.4889 24.8613 53.1134 24.9304 53.6775 25.1747C54.2416 25.4189 54.7193 25.827 55.0486 26.3461C55.378 26.8651 55.5438 27.4711 55.5246 28.0855C55.5073 28.5025 55.4069 28.9119 55.2294 29.2897C55.0519 29.6675 54.8008 30.006 54.4909 30.2855L38.5247 44.2855C38.4086 44.3677 38.2659 44.4034 38.1247 44.3855V44.3868ZM36.3585 41.2518L38.0247 42.9518L53.6909 29.318C54.0784 28.9805 54.3096 28.498 54.3246 27.9843C54.3396 27.4705 54.1371 26.968 53.7584 26.618C53.4086 26.2697 52.9351 26.0742 52.4415 26.0742C51.9479 26.0742 51.4744 26.2697 51.1246 26.618L36.3585 41.2518Z" fill="#FF6C37"/>
<path id="Vector_14" d="M24.0586 58.4192C24.016 58.4772 23.993 58.5473 23.993 58.6192C23.993 58.6912 24.016 58.7613 24.0586 58.8192L24.7249 61.7192C24.7516 61.8899 24.7263 62.0646 24.6522 62.2207C24.5782 62.3768 24.4589 62.5069 24.3099 62.5942C24.1614 62.6811 23.9891 62.7186 23.818 62.7013C23.6468 62.684 23.4855 62.6128 23.3574 62.498L18.7912 58.098L33.0248 43.7517H37.9585L41.2922 47.0855C36.0919 51.6322 30.2935 55.4456 24.0586 58.4192Z" fill="white"/>
<path id="Vector_15" d="M23.7586 63.3192C23.3811 63.3117 23.0086 63.1567 22.7586 62.8855L18.3924 58.5192C18.3299 58.4692 18.2794 58.4058 18.2447 58.3336C18.21 58.2614 18.192 58.1824 18.192 58.1023C18.192 58.0223 18.21 57.9432 18.2447 57.8711C18.2794 57.7989 18.3299 57.7355 18.3924 57.6855L32.7248 43.3192C32.805 43.2339 32.9099 43.1758 33.0248 43.153H37.991C38.1204 43.1072 38.2616 43.1072 38.391 43.153L41.7247 46.4867C41.7881 46.5452 41.8363 46.6181 41.8653 46.6993C41.8943 46.7806 41.9031 46.8676 41.891 46.953C41.8933 47.0358 41.8765 47.118 41.8418 47.1933C41.8071 47.2685 41.7555 47.3347 41.691 47.3867L41.4247 47.6205C36.2034 51.9734 30.459 55.6573 24.3249 58.5867L24.9586 61.2867C25.0076 61.495 25.0095 61.7116 24.9641 61.9207C24.9187 62.1298 24.8272 62.3261 24.6963 62.4954C24.5654 62.6646 24.3984 62.8025 24.2074 62.899C24.0164 62.9954 23.8063 63.048 23.5924 63.053L23.7586 63.3192ZM19.6924 58.0855L23.6249 62.0517C23.6615 62.0844 23.7089 62.1024 23.758 62.1024C23.8071 62.1024 23.8545 62.0844 23.8911 62.0517C23.9156 62.0177 23.9288 61.9768 23.9288 61.9348C23.9288 61.8929 23.9156 61.852 23.8911 61.818L23.2249 58.918C23.1724 58.7098 23.1935 58.4899 23.2846 58.2956C23.3757 58.1013 23.5313 57.9444 23.7249 57.8517C29.6941 54.9614 35.2904 51.3571 40.391 47.118L37.6572 44.3842H33.191L19.6924 58.0855Z" fill="#FF6C37"/>
<path id="Vector_16" d="M15.3587 61.5193L18.6924 58.1855L23.8261 63.3193L15.6599 62.753C15.5197 62.742 15.3866 62.687 15.2795 62.5959C15.1724 62.5047 15.0968 62.3821 15.0636 62.2454C15.0303 62.1088 15.041 61.9651 15.0943 61.8349C15.1475 61.7048 15.2405 61.5947 15.3599 61.5205L15.3587 61.5193Z" fill="white"/>
<path id="Vector_17" d="M23.9248 63.8192L15.7912 63.2529C15.3087 63.2079 14.8937 62.8779 14.7237 62.4367C14.5537 61.9954 14.6574 61.4717 14.9912 61.1192L18.3249 57.7854C18.4368 57.6773 18.5862 57.6169 18.7418 57.6169C18.8973 57.6169 19.0468 57.6773 19.1586 57.7854L24.2586 62.8854C24.3292 62.9822 24.3672 63.0988 24.3672 63.2186C24.3672 63.3383 24.3292 63.455 24.2586 63.5517C24.1815 63.6764 24.0635 63.7705 23.9248 63.8179V63.8192ZM15.7912 61.9529L22.4574 62.3867L18.7911 58.9529L15.7912 61.9529Z" fill="#FF6C37"/>
<path id="Vector_18" d="M38.4246 44.1543L31.691 45.188L35.5909 41.3218L38.4246 44.1543Z" fill="white"/>
<path id="Vector_19" d="M31.691 45.8192C31.5791 45.8221 31.4688 45.792 31.3739 45.7327C31.279 45.6733 31.2036 45.5873 31.1573 45.4854C31.0863 45.3889 31.048 45.2721 31.048 45.1523C31.048 45.0325 31.0863 44.9157 31.1573 44.8192L35.0235 40.9191C35.1407 40.8089 35.2956 40.7476 35.4566 40.7476C35.6175 40.7476 35.7724 40.8089 35.8897 40.9191L38.7246 43.7517C38.7813 43.8415 38.8113 43.9455 38.8113 44.0517C38.8113 44.1578 38.7813 44.2619 38.7246 44.3517C38.6968 44.4611 38.6381 44.5603 38.5554 44.6372C38.4727 44.7141 38.3696 44.7656 38.2584 44.7854L31.5923 45.8192H31.691ZM35.5909 42.1854L33.4247 44.3517L37.1584 43.7854L35.5909 42.1854Z" fill="#FF6C37"/>
<path id="Vector_20" d="M38.4247 44.1519L33.7248 44.7519C33.599 44.7805 33.4674 44.7677 33.3494 44.7156C33.2315 44.6634 33.1334 44.5747 33.0699 44.4624C33.0063 44.3502 32.9807 44.2205 32.9966 44.0925C33.0126 43.9645 33.0694 43.8451 33.1586 43.7519L35.5923 41.3181L38.4247 44.1519Z" fill="white"/>
<path id="Vector_21" d="M33.591 45.3868C33.3732 45.3847 33.1598 45.325 32.9725 45.2137C32.7852 45.1024 32.6307 44.9434 32.5248 44.7531C32.3975 44.5249 32.3482 44.2614 32.3843 44.0026C32.4203 43.7439 32.5399 43.5039 32.7248 43.3193L35.1585 40.8856C35.2758 40.7754 35.4307 40.714 35.5916 40.714C35.7526 40.714 35.9075 40.7754 36.0248 40.8856L38.8585 43.7193C38.9428 43.7992 39.0021 43.9017 39.0292 44.0146C39.0563 44.1275 39.0501 44.2458 39.0114 44.3552C38.9726 44.4647 38.9029 44.5605 38.8108 44.6311C38.7186 44.7017 38.608 44.7441 38.4922 44.7531L33.826 45.3531L33.591 45.3868ZM33.591 44.1531L37.1248 43.7193L35.5585 42.1531L33.5585 44.1531H33.591ZM62.5908 20.053C62.528 19.9478 62.4288 19.8694 62.3119 19.8325C62.1951 19.7956 62.0688 19.8029 61.957 19.853C61.9019 19.881 61.8529 19.9197 61.8129 19.967C61.773 20.0142 61.7429 20.069 61.7245 20.128C61.6874 20.2472 61.6991 20.3762 61.757 20.4868C61.9908 20.978 61.9258 21.5593 61.5908 21.9868C61.5492 22.028 61.5166 22.0773 61.4951 22.1318C61.4735 22.1862 61.4636 22.2445 61.4658 22.303C61.467 22.4203 61.5115 22.5329 61.5908 22.6193C61.6763 22.6531 61.7715 22.6531 61.857 22.6193C61.9347 22.6388 62.0161 22.6366 62.0926 22.6131C62.1691 22.5895 62.2376 22.5454 62.2908 22.4855C62.5653 22.1495 62.7391 21.7426 62.7922 21.312C62.8452 20.8813 62.7754 20.4444 62.5908 20.0518V20.053Z" fill="#FF6C37"/>
</g>
</g>
</svg>
