<svg width="80" height="80" viewBox="0 0 80 80" fill="none" xmlns="http://www.w3.org/2000/svg">
<g id="prettier">
<g id="prettier_2">
<path id="Rectangle" d="M59.0477 15.238H62.8572C63.9239 15.238 64.762 16.0761 64.762 17.1428C64.762 18.2095 63.9239 19.0475 62.8572 19.0475H59.0477C57.981 19.0475 57.1429 18.2095 57.1429 17.1428C57.1429 16.0761 57.981 15.238 59.0477 15.238Z" fill="#56B3B4"/>
<path id="Rectangle_1_" d="M1.90476 76.1907H20.9524C22.019 76.1907 22.8571 77.0288 22.8571 78.0954C22.8571 79.1621 22.019 80.0002 20.9524 80.0002H1.90476C0.838094 80.0002 0 79.1621 0 78.0954C0 77.0288 0.838094 76.1907 1.90476 76.1907Z" fill="#EA5E5E"/>
<path id="Rectangle_2_" d="M47.6191 45.7144H59.0476C60.1142 45.7144 60.9523 46.5524 60.9523 47.619C60.9523 48.6856 60.1142 49.5237 59.0476 49.5237H47.6191C46.5524 49.5237 45.7144 48.6856 45.7144 47.619C45.7144 46.5524 46.5524 45.7144 47.6191 45.7144Z" fill="#BF85BF"/>
<path id="Rectangle_3_" d="M24.762 45.7144H40.0001C41.0668 45.7144 41.9049 46.5524 41.9049 47.619C41.9049 48.6856 41.0668 49.5237 40.0001 49.5237H24.762C23.6953 49.5237 22.8572 48.6856 22.8572 47.619C22.8572 46.5524 23.6953 45.7144 24.762 45.7144Z" fill="#EA5E5E"/>
<path id="Rectangle_4_" d="M1.90476 45.7144H17.1429C18.2095 45.7144 19.0476 46.5524 19.0476 47.619C19.0476 48.6856 18.2095 49.5237 17.1429 49.5237H1.90476C0.838096 49.5237 0 48.6856 0 47.619C0 46.5524 0.838096 45.7144 1.90476 45.7144Z" fill="#56B3B4"/>
<path id="Rectangle_5_" d="M1.90476 60.9524H20.9524C22.019 60.9524 22.8571 61.7905 22.8571 62.8572C22.8571 63.9238 22.019 64.7619 20.9524 64.7619H1.90476C0.838094 64.7619 0 63.9238 0 62.8572C0 61.7905 0.838094 60.9524 1.90476 60.9524Z" fill="#BF85BF"/>
<path id="Rectangle_6_" d="M1.90476 30.4761H20.9524C22.019 30.4761 22.8571 31.3142 22.8571 32.3809C22.8571 33.4475 22.019 34.2857 20.9524 34.2857H1.90476C0.838094 34.2857 0 33.4475 0 32.3809C0 31.3142 0.838094 30.4761 1.90476 30.4761Z" fill="#BF85BF"/>
<path id="Rectangle_7_" d="M20.9524 7.61914H59.0476C60.1143 7.61914 60.9524 8.45724 60.9524 9.52391C60.9524 10.5906 60.1143 11.4287 59.0476 11.4287H20.9524C19.8858 11.4287 19.0477 10.5906 19.0477 9.52391C19.0477 8.45724 19.8858 7.61914 20.9524 7.61914Z" fill="#F7BA3E"/>
<path id="Rectangle_8_" d="M1.90476 7.61914H13.3333C14.4 7.61914 15.2381 8.45724 15.2381 9.52391C15.2381 10.5906 14.4 11.4287 13.3333 11.4287H1.90476C0.838095 11.4287 0 10.5906 0 9.52391C0 8.45724 0.838095 7.61914 1.90476 7.61914Z" fill="#EA5E5E"/>
<path id="Rectangle_9_" d="M17.1429 68.5715H20.9524C22.0191 68.5715 22.8572 69.4096 22.8572 70.4763C22.8572 71.543 22.0191 72.3811 20.9524 72.3811H17.1429C16.0762 72.3811 15.2381 71.543 15.2381 70.4763C15.2381 69.4096 16.0762 68.5715 17.1429 68.5715Z" fill="#F7BA3E"/>
<path id="Rectangle_10_" d="M17.1429 22.8572H20.9524C22.0191 22.8572 22.8572 23.6953 22.8572 24.7619C22.8572 25.8285 22.0191 26.6666 20.9524 26.6666H17.1429C16.0762 26.6666 15.2381 25.8285 15.2381 24.7619C15.2381 23.6953 16.0762 22.8572 17.1429 22.8572Z" fill="#56B3B4"/>
<path id="Rectangle_11_" d="M1.90477 68.5715H9.52383C10.5905 68.5715 11.4286 69.4096 11.4286 70.4763C11.4286 71.543 10.5905 72.3811 9.52383 72.3811H1.90477C0.838097 72.3811 0 71.543 0 70.4763C0 69.4096 0.838097 68.5715 1.90477 68.5715Z" fill="#56B3B4"/>
<path id="Rectangle_12_" d="M1.90477 22.8572H9.52383C10.5905 22.8572 11.4286 23.6953 11.4286 24.7619C11.4286 25.8285 10.5905 26.6666 9.52383 26.6666H1.90477C0.838097 26.6666 0 25.8285 0 24.7619C0 23.6953 0.838097 22.8572 1.90477 22.8572Z" fill="#F7BA3E"/>
<path id="Rectangle_13_" opacity="0.5" d="M51.4286 68.5715H55.2381C56.3047 68.5715 57.1428 69.4096 57.1428 70.4763C57.1428 71.543 56.3047 72.3811 55.2381 72.3811H51.4286C50.362 72.3811 49.5239 71.543 49.5239 70.4763C49.5239 69.4096 50.362 68.5715 51.4286 68.5715Z" fill="#F5F5F5"/>
<path id="Rectangle_14_" opacity="0.5" d="M28.5714 68.5715H43.8095C44.8762 68.5715 45.7143 69.4096 45.7143 70.4763C45.7143 71.543 44.8762 72.3811 43.8095 72.3811H28.5714C27.5047 72.3811 26.6666 71.543 26.6666 70.4763C26.6666 69.4096 27.5047 68.5715 28.5714 68.5715Z" fill="#F5F5F5"/>
<path id="Rectangle_15_" opacity="0.5" d="M62.8571 68.5715H78.0952C79.1619 68.5715 80 69.4096 80 70.4763C80 71.543 79.1619 72.3811 78.0952 72.3811H62.8571C61.7904 72.3811 60.9523 71.543 60.9523 70.4763C60.9523 69.4096 61.7904 68.5715 62.8571 68.5715Z" fill="#F5F5F5"/>
<path id="Rectangle_16_" d="M32.3809 38.0952H62.8571C63.9237 38.0952 64.7618 38.9333 64.7618 39.9999C64.7618 41.0666 63.9237 41.9047 62.8571 41.9047H32.3809C31.3143 41.9047 30.4762 41.0666 30.4762 39.9999C30.4762 38.9333 31.3143 38.0952 32.3809 38.0952Z" fill="#56B3B4"/>
<path id="Rectangle_17_" d="M13.3333 38.0952H24.7619C25.8285 38.0952 26.6666 38.9333 26.6666 39.9999C26.6666 41.0666 25.8285 41.9047 24.7619 41.9047H13.3333C12.2666 41.9047 11.4285 41.0666 11.4285 39.9999C11.4285 38.9333 12.2666 38.0952 13.3333 38.0952Z" fill="#F7BA3E"/>
<path id="Rectangle_18_" d="M1.90476 38.0952H5.71429C6.78096 38.0952 7.61905 38.9333 7.61905 39.9999C7.61905 41.0666 6.78096 41.9047 5.71429 41.9047H1.90476C0.838096 41.9047 0 41.0666 0 39.9999C0 38.9333 0.838096 38.0952 1.90476 38.0952Z" fill="#EA5E5E"/>
<path id="Rectangle_19_" d="M36.1905 15.238H51.4286C52.4952 15.238 53.3333 16.0761 53.3333 17.1428C53.3333 18.2095 52.4952 19.0475 51.4286 19.0475H36.1905C35.1238 19.0475 34.2857 18.2095 34.2857 17.1428C34.2857 16.0761 35.1238 15.238 36.1905 15.238Z" fill="#BF85BF"/>
<path id="Rectangle_20_" d="M1.90476 15.238H28.5714C29.6381 15.238 30.4762 16.0761 30.4762 17.1428C30.4762 18.2095 29.6381 19.0475 28.5714 19.0475H1.90476C0.838094 19.0475 0 18.2095 0 17.1428C0 16.0761 0.838094 15.238 1.90476 15.238Z" fill="#56B3B4"/>
<path id="Rectangle_21_" d="M13.3333 53.3333H47.6191C48.6858 53.3333 49.5239 54.1713 49.5239 55.238C49.5239 56.3047 48.6858 57.1428 47.6191 57.1428H13.3333C12.2666 57.1428 11.4285 56.3047 11.4285 55.238C11.4285 54.1713 12.2666 53.3333 13.3333 53.3333Z" fill="#F7BA3E"/>
<path id="Rectangle_22_" d="M1.90476 53.3333H5.71429C6.78096 53.3333 7.61905 54.1713 7.61905 55.238C7.61905 56.3047 6.78096 57.1428 5.71429 57.1428H1.90476C0.838096 57.1428 0 56.3047 0 55.238C0 54.1713 0.838096 53.3333 1.90476 53.3333Z" fill="#BF85BF"/>
<path id="Rectangle_23_" d="M47.6191 22.8572H66.6667C67.7333 22.8572 68.5714 23.6953 68.5714 24.7619C68.5714 25.8285 67.7333 26.6666 66.6667 26.6666H47.6191C46.5524 26.6666 45.7144 25.8285 45.7144 24.7619C45.7144 23.6953 46.5524 22.8572 47.6191 22.8572Z" fill="#EA5E5E"/>
<path id="Rectangle_24_" d="M47.6191 30.4761H66.6667C67.7333 30.4761 68.5714 31.3142 68.5714 32.3809C68.5714 33.4475 67.7333 34.2857 66.6667 34.2857H47.6191C46.5524 34.2857 45.7144 33.4475 45.7144 32.3809C45.7144 31.3142 46.5524 30.4761 47.6191 30.4761Z" fill="#F7BA3E"/>
<path id="Rectangle_25_" d="M1.90476 0H47.619C48.6857 0 49.5238 0.838095 49.5238 1.90476C49.5238 2.97143 48.6857 3.80952 47.619 3.80952H1.90476C0.838095 3.80952 0 2.97143 0 1.90476C0 0.838095 0.838095 0 1.90476 0Z" fill="#56B3B4"/>
<path id="Rectangle_26_" opacity="0.5" d="M55.2382 0H78.0953C79.162 0 80.0001 0.838095 80.0001 1.90476C80.0001 2.97143 79.162 3.80952 78.0953 3.80952H55.2382C54.1715 3.80952 53.3334 2.97143 53.3334 1.90476C53.3334 0.838095 54.1715 0 55.2382 0Z" fill="#F5F5F5"/>
<path id="Rectangle_27_" opacity="0.5" d="M55.2382 53.3333H62.8572C63.9238 53.3333 64.7619 54.1713 64.7619 55.238C64.7619 56.3047 63.9238 57.1428 62.8572 57.1428H55.2382C54.1715 57.1428 53.3334 56.3047 53.3334 55.238C53.3334 54.1713 54.1715 53.3333 55.2382 53.3333Z" fill="#F5F5F5"/>
<path id="Rectangle_28_" opacity="0.5" d="M70.4762 53.3333H78.0953C79.162 53.3333 80.0001 54.1713 80.0001 55.238C80.0001 56.3047 79.162 57.1428 78.0953 57.1428H70.4762C69.4096 57.1428 68.5715 56.3047 68.5715 55.238C68.5715 54.1713 69.4096 53.3333 70.4762 53.3333Z" fill="#F5F5F5"/>
<path id="Rectangle_29_" opacity="0.5" d="M66.6667 45.7144H78.0953C79.1619 45.7144 80 46.5524 80 47.619C80 48.6856 79.1619 49.5237 78.0953 49.5237H66.6667C65.6 49.5237 64.7619 48.6856 64.7619 47.619C64.7619 46.5524 65.6 45.7144 66.6667 45.7144Z" fill="#F5F5F5"/>
<path id="Rectangle_30_" opacity="0.5" d="M66.6667 7.61914H78.0953C79.1619 7.61914 80 8.45724 80 9.52391C80 10.5906 79.1619 11.4287 78.0953 11.4287H66.6667C65.6 11.4287 64.7619 10.5906 64.7619 9.52391C64.7619 8.45724 65.6 7.61914 66.6667 7.61914Z" fill="#F5F5F5"/>
<path id="Rectangle_31_" opacity="0.5" d="M70.4762 38.0952H78.0953C79.162 38.0952 80.0001 38.9333 80.0001 39.9999C80.0001 41.0666 79.162 41.9047 78.0953 41.9047H70.4762C69.4096 41.9047 68.5715 41.0666 68.5715 39.9999C68.5715 38.9333 69.4096 38.0952 70.4762 38.0952Z" fill="#F5F5F5"/>
<path id="Rectangle_32_" opacity="0.5" d="M70.4762 15.238H78.0953C79.162 15.238 80.0001 16.0761 80.0001 17.1428C80.0001 18.2095 79.162 19.0475 78.0953 19.0475H70.4762C69.4096 19.0475 68.5715 18.2095 68.5715 17.1428C68.5715 16.0761 69.4096 15.238 70.4762 15.238Z" fill="#F5F5F5"/>
<path id="Rectangle_33_" opacity="0.5" d="M74.2857 22.8572H78.0953C79.1619 22.8572 80 23.6953 80 24.7619C80 25.8285 79.1619 26.6666 78.0953 26.6666H74.2857C73.219 26.6666 72.381 25.8285 72.381 24.7619C72.381 23.6953 73.219 22.8572 74.2857 22.8572Z" fill="#F5F5F5"/>
<path id="Rectangle_34_" opacity="0.5" d="M74.2857 30.4761H78.0953C79.1619 30.4761 80 31.3142 80 32.3809C80 33.4475 79.1619 34.2857 78.0953 34.2857H74.2857C73.219 34.2857 72.381 33.4475 72.381 32.3809C72.381 31.3142 73.219 30.4761 74.2857 30.4761Z" fill="#F5F5F5"/>
<path id="Rectangle_35_" opacity="0.5" d="M43.8096 60.9524H78.0953C79.1619 60.9524 80 61.7905 80 62.8572C80 63.9238 79.1619 64.7619 78.0953 64.7619H43.8096C42.743 64.7619 41.9049 63.9238 41.9049 62.8572C41.9049 61.7905 42.743 60.9524 43.8096 60.9524Z" fill="#F5F5F5"/>
<path id="Rectangle_36_" opacity="0.5" d="M28.5714 60.9524H36.1904C37.2571 60.9524 38.0952 61.7905 38.0952 62.8572C38.0952 63.9238 37.2571 64.7619 36.1904 64.7619H28.5714C27.5047 64.7619 26.6666 63.9238 26.6666 62.8572C26.6666 61.7905 27.5047 60.9524 28.5714 60.9524Z" fill="#F5F5F5"/>
<path id="Rectangle_37_" opacity="0.5" d="M59.0477 76.1907H78.0954C79.162 76.1907 80.0001 77.0288 80.0001 78.0954C80.0001 79.1621 79.162 80.0002 78.0954 80.0002H59.0477C57.981 80.0002 57.1429 79.1621 57.1429 78.0954C57.1429 77.0288 57.981 76.1907 59.0477 76.1907Z" fill="#F5F5F5"/>
<path id="Rectangle_38_" opacity="0.5" d="M28.5714 76.1907H51.4285C52.4951 76.1907 53.3332 77.0288 53.3332 78.0954C53.3332 79.1621 52.4951 80.0002 51.4285 80.0002H28.5714C27.5047 80.0002 26.6666 79.1621 26.6666 78.0954C26.6666 77.0288 27.5047 76.1907 28.5714 76.1907Z" fill="#F5F5F5"/>
<path id="Rectangle_39_" opacity="0.5" d="M28.5714 22.8572H40C41.0667 22.8572 41.9048 23.6953 41.9048 24.7619C41.9048 25.8285 41.0667 26.6666 40 26.6666H28.5714C27.5047 26.6666 26.6666 25.8285 26.6666 24.7619C26.6666 23.6953 27.5047 22.8572 28.5714 22.8572Z" fill="#F5F5F5"/>
<path id="Rectangle_40_" opacity="0.5" d="M28.5714 30.4761H40C41.0667 30.4761 41.9048 31.3142 41.9048 32.3809C41.9048 33.4475 41.0667 34.2857 40 34.2857H28.5714C27.5047 34.2857 26.6666 33.4475 26.6666 32.3809C26.6666 31.3142 27.5047 30.4761 28.5714 30.4761Z" fill="#F5F5F5"/>
</g>
</g>
</svg>
