<svg width="80" height="80" viewBox="0 0 80 80" fill="none" xmlns="http://www.w3.org/2000/svg">
<g id="pwa">
<g id="pwa_2">
<path id="Vector" d="M58.8022 49.6267L61.1041 43.8058H67.7505L64.5961 34.9759L68.541 25L79.8399 54.9997H71.5073L69.5763 49.6267H58.8022Z" fill="white"/>
<path id="Vector_2" d="M51.6938 55.0001L63.7892 25.0005H55.7704L47.4959 44.3866L41.6124 25.0005H35.4485L29.1311 44.3866L24.6755 35.5528L20.6438 47.9743L24.7374 55.0001H32.629L38.3379 37.6146L43.7809 55.0001H51.6938Z" fill="#5A0FC8"/>
<path id="Vector_3" d="M7.77162 44.7015H12.7109C14.2073 44.7015 15.5396 44.5345 16.7078 44.2002L17.9856 40.2652L21.5553 29.2663C21.2835 28.8351 20.9729 28.4275 20.6238 28.0433C18.7906 26.0144 16.1088 25 12.5779 25H0.159912V54.9997H7.77162V44.7015ZM14.3098 31.9019C15.0256 32.6223 15.3837 33.5868 15.3837 34.7948C15.3837 36.0122 15.0687 36.9775 14.4394 37.6911C13.7488 38.4841 12.478 38.8802 10.626 38.8802H7.77162V30.8208H10.6469C12.3728 30.8208 13.5936 31.181 14.3098 31.9019Z" fill="white"/>
</g>
</g>
</svg>
