<svg width="80" height="80" viewBox="0 0 80 80" fill="none" xmlns="http://www.w3.org/2000/svg">
<g id="pwa">
<g id="pwa_2">
<path id="Vector" d="M58.8023 49.6267L61.1041 43.8058H67.7506L64.5962 34.9759L68.541 25L79.84 54.9997H71.5074L69.5764 49.6267H58.8023Z" fill="#121212"/>
<path id="Vector_2" d="M51.6939 55.0001L63.7894 25.0005H55.7705L47.4961 44.3866L41.6125 25.0005H35.4486L29.1312 44.3866L24.6756 35.5528L20.6439 47.9743L24.7375 55.0001H32.6292L38.338 37.6146L43.781 55.0001H51.6939Z" fill="#5A0FC8"/>
<path id="Vector_3" d="M7.77175 44.7015H12.711C14.2074 44.7015 15.5397 44.5345 16.708 44.2002L17.9857 40.2652L21.5555 29.2663C21.2836 28.8351 20.973 28.4275 20.6239 28.0433C18.7907 26.0144 16.1089 25 12.578 25H0.160034V54.9997H7.77175V44.7015ZM14.3099 31.9019C15.0257 32.6223 15.3838 33.5868 15.3838 34.7948C15.3838 36.0122 15.0688 36.9775 14.4395 37.6911C13.7489 38.4841 12.4781 38.8802 10.6261 38.8802H7.77175V30.8208H10.6471C12.3729 30.8208 13.5937 31.181 14.3099 31.9019Z" fill="#121212"/>
</g>
</g>
</svg>
