<svg width="81" height="80" viewBox="0 0 81 80" fill="none" xmlns="http://www.w3.org/2000/svg">
<g id="reactrouter">
<g id="reactrouter_2">
<path id="Vector" d="M24.7888 47.404C20.7692 47.404 17.4927 44.1015 17.4927 40.053C17.4927 36.0044 20.7692 32.7019 24.7888 32.7019C28.8085 32.7019 32.0849 36.0044 32.0849 40.053C32.0849 44.0986 28.8056 47.404 24.7888 47.404ZM7.27011 61.9991C3.25624 61.9904 -0.0115367 58.6735 3.06154e-05 54.6249C0.002323 52.6831 0.774311 50.8215 2.14681 49.4479C3.51932 48.0743 5.38038 47.3008 7.32216 47.297C11.3389 47.3057 14.6067 50.6226 14.5922 54.6741C14.5884 56.6151 13.8158 58.4756 12.4436 59.8484C11.0713 61.2212 9.21115 61.9945 7.27011 61.9991ZM73.6724 61.9991C71.7309 62.003 69.8669 61.2373 68.4886 59.8699C67.1103 58.5024 66.33 56.6445 66.3185 54.703C66.2983 50.6486 69.5516 47.3201 73.5626 47.2999C75.5031 47.2968 77.3659 48.0624 78.7435 49.4291C80.1211 50.7959 80.9014 52.6526 80.9136 54.5931C80.9367 58.6446 77.6805 61.976 73.6724 61.9991Z" fill="#121212"/>
<path id="Vector_2" d="M59.997 33.1299C58.0132 32.5111 55.8934 32.2537 53.8142 32.0281C50.5985 31.6811 49.3174 30.426 48.7737 27.2045C48.4672 25.4058 48.0392 23.5608 47.2613 21.9269C45.7778 18.8182 42.3018 17.4243 38.8114 18.2196C35.8617 18.8934 33.4123 21.8286 33.2764 24.8419C33.1202 28.2774 35.0867 31.2126 38.4644 32.2248C40.0693 32.7077 41.7755 32.9477 43.4499 33.0721C46.5239 33.2947 47.5505 34.2115 48.3805 35.6111C48.9068 36.496 49.4128 37.3665 49.4128 39.998C49.4128 42.6325 48.901 43.5029 48.3805 44.3849C47.5505 45.7846 46.5239 46.6984 43.4499 46.9269C41.7726 47.0483 40.0664 47.2912 38.4644 47.7742C35.0867 48.7892 33.1202 51.7186 33.2764 55.1599C33.4123 58.1703 35.8646 61.1055 38.8114 61.7793C42.3018 62.5775 45.7778 61.1807 47.2613 58.072C48.0421 56.441 48.4672 54.5931 48.7737 52.7944C49.3203 49.5729 50.6014 48.3207 53.8142 47.9708C55.8963 47.7452 58.0132 47.485 59.997 46.8661C63.0074 45.9263 64.8177 43.1183 64.8177 39.998C64.8177 36.8806 63.0074 34.0755 59.997 33.1299Z" fill="#F44250"/>
</g>
</g>
</svg>
