<svg width="81" height="80" viewBox="0 0 81 80" fill="none" xmlns="http://www.w3.org/2000/svg">
<g id="reactjs">
<g id="reactjs_2">
<path id="Vector" d="M40.3453 47.053C44.2406 47.053 47.3983 43.8953 47.3983 40C47.3983 36.1048 44.2406 32.947 40.3453 32.947C36.4501 32.947 33.2923 36.1048 33.2923 40C33.2923 43.8953 36.4501 47.053 40.3453 47.053Z" fill="#61DAFB"/>
<path id="Vector_2" d="M40.3453 54.4501C61.2467 54.4501 78.1906 47.9806 78.1906 40.0001C78.1906 32.0195 61.2467 25.55 40.3453 25.55C19.4439 25.55 2.5 32.0195 2.5 40.0001C2.5 47.9806 19.4439 54.4501 40.3453 54.4501Z" stroke="#61DAFB" stroke-width="5"/>
<path id="Vector_3" d="M27.8312 47.225C38.2819 65.3261 52.3566 76.7652 59.2679 72.775C66.1792 68.7847 63.31 50.8761 52.8594 32.775C42.4087 14.6739 28.334 3.23475 21.4226 7.22501C14.5113 11.2153 17.3805 29.1239 27.8312 47.225Z" stroke="#61DAFB" stroke-width="5"/>
<path id="Vector_4" d="M27.8312 32.7749C17.3805 50.876 14.5113 68.7846 21.4226 72.7749C28.334 76.7652 42.4087 65.326 52.8594 47.2249C63.3101 29.1238 66.1793 11.2152 59.2679 7.22494C52.3566 3.23468 38.2819 14.6738 27.8312 32.7749Z" stroke="#61DAFB" stroke-width="5"/>
</g>
</g>
</svg>
