<svg width="80" height="80" viewBox="0 0 80 80" fill="none" xmlns="http://www.w3.org/2000/svg">
<g id="redux">
<g id="redux_2">
<path id="Vector" d="M55.4316 55.0773C58.3837 54.7715 60.6234 52.2247 60.5216 49.1683C60.42 46.1121 57.8747 43.667 54.8206 43.667H54.6172C51.4609 43.769 49.0178 46.4176 49.1197 49.5757C49.2216 51.104 49.8322 52.4283 50.7484 53.3452C47.2872 60.1711 41.9934 65.1629 34.0528 69.3398C28.6572 72.1924 23.0581 73.2112 17.4591 72.4983C12.8778 71.8869 9.31468 69.8496 7.07468 66.4873C3.81718 61.4954 3.51187 56.0958 6.26062 50.6965C8.195 46.8251 11.2487 43.9725 13.1831 42.5462C12.7759 41.2219 12.165 38.9807 11.8597 37.3508C-2.90188 48.0478 -1.37469 62.5143 3.10468 69.3398C6.46406 74.434 13.285 77.592 20.8184 77.592C22.8544 77.592 24.8903 77.3882 26.9266 76.8791C39.9575 74.332 49.8325 66.5892 55.4316 55.0773V55.0773ZM73.349 42.4446C65.6119 33.3775 54.21 28.3856 41.1791 28.3856H39.5503C38.6341 26.5519 36.6997 25.3292 34.5619 25.3292H34.3581C31.2025 25.4311 28.7594 28.0798 28.8609 31.2382C28.9628 34.2944 31.5078 36.7395 34.5619 36.7395H34.7653C37.005 36.6375 38.9394 35.2112 39.7537 33.2755H41.5862C49.3234 33.2755 56.6531 35.5168 63.2706 39.8976C68.3606 43.2595 72.0256 47.6404 74.0615 52.9377C75.7922 57.2166 75.6903 61.3935 73.8578 64.9594C71.0075 70.3587 66.2228 73.3132 59.9109 73.3132C55.8387 73.3132 51.9703 72.0905 49.9341 71.1736C48.8144 72.1924 46.7781 73.8223 45.3528 74.8414C49.7306 76.8787 54.21 77.9995 58.4856 77.9995C68.2587 77.9995 75.4869 72.5999 78.2356 67.2006C81.1878 61.2915 80.984 51.104 73.349 42.4446V42.4446ZM21.6328 56.8088C21.7347 59.8653 24.2797 62.3101 27.3337 62.3101H27.5375C30.6934 62.2084 33.1366 59.5594 33.0347 56.4013C32.9331 53.3449 30.3878 50.9001 27.3337 50.9001H27.1303C26.9266 50.9001 26.6209 50.9001 26.4178 51.0017C22.2437 44.0742 20.5131 36.5356 21.1241 28.3853C21.5309 22.2727 23.5672 16.975 27.1303 12.5942C30.0825 8.8248 35.7834 6.99104 39.6522 6.88941C50.4431 6.68552 55.0241 20.1331 55.3297 25.5328C56.6531 25.8383 58.8928 26.5516 60.42 27.061C59.1981 10.5572 49.0178 1.99951 39.245 1.99951C30.0825 1.99951 21.6328 8.62153 18.2731 18.4016C13.5903 31.4418 16.6444 43.9725 22.3453 53.8546C21.8366 54.5676 21.5309 55.6883 21.6328 56.8091V56.8088Z" fill="#764ABC"/>
</g>
</g>
</svg>
