<svg width="81" height="80" viewBox="0 0 81 80" fill="none" xmlns="http://www.w3.org/2000/svg">
<g id="safari">
<g id="safari_2" clip-path="url(#clip0_115_848)">
<g id="Vector" opacity="0.53" filter="url(#filter0_f_115_848)">
<path d="M76.9084 41.2712C76.9084 45.9104 75.9594 50.5042 74.1158 54.7902C72.2721 59.0763 69.5698 62.9707 66.1631 66.2511C62.7565 69.5315 58.7122 72.1337 54.2612 73.909C49.8102 75.6844 45.0396 76.5981 40.2219 76.5981C35.4042 76.5981 30.6336 75.6844 26.1826 73.909C21.7316 72.1337 17.6873 69.5315 14.2807 66.2511C10.874 62.9707 8.17172 59.0763 6.32805 54.7902C4.48439 50.5042 3.53546 45.9104 3.53546 41.2712C3.53546 31.902 7.40063 22.9164 14.2807 16.2913C21.1607 9.66627 30.4921 5.94434 40.2219 5.94434C45.0396 5.94434 49.8102 6.85809 54.2612 8.63343C58.7122 10.4088 62.7565 13.0109 66.1631 16.2913C69.5698 19.5717 72.2721 23.4662 74.1158 27.7522C75.9594 32.0383 76.9084 36.632 76.9084 41.2712Z" fill="black"/>
</g>
<path id="Vector_2" d="M78.3032 38.1517C78.3032 43.1529 77.3182 48.1051 75.4043 52.7255C73.4904 57.346 70.6853 61.5442 67.1489 65.0806C63.6126 68.6169 59.4143 71.4221 54.7939 73.336C50.1734 75.2498 45.2212 76.2349 40.2201 76.2349C30.1198 76.2349 20.4332 72.2226 13.2912 65.0806C6.14927 57.9386 2.13696 48.252 2.13696 38.1517C2.13696 28.0515 6.14927 18.3649 13.2912 11.2229C20.4332 4.08093 30.1198 0.0686061 40.2201 0.0686035C45.2212 0.0686032 50.1734 1.05366 54.7939 2.96751C59.4143 4.88137 63.6126 7.68656 67.1489 11.2229C70.6853 14.7593 73.4904 18.9575 75.4043 23.578C77.3182 28.1984 78.3032 33.1506 78.3032 38.1517Z" fill="url(#paint0_linear_115_848)" stroke="#CDCDCD" stroke-width="0.140575" stroke-linecap="round" stroke-linejoin="round"/>
<path id="Vector_3" d="M75.3191 38.152C75.3191 47.4608 71.6211 56.3883 65.0388 62.9707C58.4565 69.553 49.5289 73.2509 40.2201 73.2509C30.9112 73.2509 21.9837 69.553 15.4013 62.9707C8.81901 56.3883 5.12109 47.4608 5.12109 38.152C5.12109 28.8431 8.81901 19.9156 15.4013 13.3332C21.9837 6.75089 30.9112 3.05298 40.2201 3.05298C49.5289 3.05298 58.4565 6.75089 65.0388 13.3332C71.6211 19.9156 75.3191 28.8431 75.3191 38.152Z" fill="url(#paint1_radial_115_848)"/>
<path id="Vector_4" d="M40.2201 4.8833C39.9366 4.8833 39.7083 5.11152 39.7083 5.39503V11.2976C39.7083 11.5811 39.9366 11.8094 40.2201 11.8094C40.5036 11.8094 40.7318 11.5811 40.7318 11.2976V5.39503C40.7318 5.11152 40.5036 4.8833 40.2201 4.8833ZM36.8723 5.09489C36.8384 5.09124 36.8035 5.09124 36.7683 5.09531C36.4863 5.12473 36.283 5.37542 36.3124 5.6574L36.5704 8.12679C36.5998 8.40876 36.8505 8.61208 37.1325 8.58264C37.4144 8.55322 37.6178 8.30253 37.5883 8.02055L37.3306 5.55118C37.3048 5.30444 37.1096 5.11793 36.8723 5.09489ZM43.5912 5.09732C43.3539 5.12017 43.1587 5.30668 43.1327 5.55338L42.873 8.02256C42.8433 8.30451 43.0467 8.55543 43.3286 8.58508C43.6106 8.61475 43.8613 8.41162 43.8909 8.12967L44.1507 5.66028C44.1803 5.37832 43.977 5.12762 43.695 5.09798C43.6598 5.09433 43.6251 5.0943 43.5912 5.09732ZM33.4334 5.59358C33.3993 5.59385 33.3647 5.59723 33.33 5.60452C33.0527 5.66324 32.8767 5.93385 32.9354 6.21121L34.1578 11.9857C34.2165 12.2631 34.4871 12.4391 34.7645 12.3804C35.0419 12.3217 35.2179 12.0513 35.1592 11.7739L33.9367 5.9992C33.8853 5.7565 33.6718 5.59172 33.4334 5.59358ZM47.0299 5.59845C46.7916 5.59601 46.5779 5.76128 46.5264 6.00393L45.2998 11.7778C45.2408 12.0551 45.4167 12.3258 45.694 12.3847C45.9713 12.4436 46.242 12.2677 46.3009 11.9904L47.5275 6.2166C47.5865 5.93929 47.4106 5.66859 47.1333 5.60969C47.0987 5.6024 47.064 5.59845 47.0299 5.59845ZM30.1515 6.51896C30.0852 6.51288 30.0168 6.52018 29.9494 6.54255C29.6797 6.6302 29.5331 6.9176 29.6207 7.18723L30.388 9.54862C30.4756 9.81826 30.7633 9.96487 31.0329 9.87726C31.3025 9.78961 31.4489 9.50199 31.3613 9.23236L30.5941 6.87097C30.5284 6.66874 30.3502 6.53586 30.1515 6.51896ZM50.2933 6.52018C50.0946 6.53708 49.9165 6.67001 49.8507 6.87222L49.083 9.2334C48.9954 9.50301 49.1419 9.79065 49.4114 9.8783C49.6811 9.96595 49.9687 9.81945 50.0564 9.54989L50.824 7.18849C50.9117 6.91887 50.7652 6.63124 50.4956 6.54359C50.4283 6.52171 50.3596 6.51459 50.2933 6.52018ZM26.906 7.70661C26.8395 7.70783 26.7722 7.72242 26.7074 7.75123C26.4485 7.86636 26.3325 8.16755 26.4477 8.42661L28.8451 13.8204C28.9602 14.0794 29.2614 14.1952 29.5205 14.0801C29.7794 13.965 29.8956 13.6638 29.7804 13.4047L27.3828 8.01096C27.2965 7.81665 27.1054 7.70275 26.906 7.70661ZM53.5755 7.72473C53.3761 7.72108 53.1848 7.83427 53.0982 8.02841L50.6935 13.4189C50.578 13.6778 50.6935 13.9792 50.9524 14.0947C51.2113 14.2102 51.5127 14.0947 51.6282 13.8358L54.0329 8.44539C54.1484 8.18648 54.0329 7.88507 53.774 7.76957C53.7093 7.74075 53.6419 7.72619 53.5755 7.72473ZM23.8935 9.30054C23.7953 9.29325 23.694 9.31513 23.602 9.36838C23.3564 9.51013 23.2729 9.82187 23.4147 10.0674L24.6561 12.2176C24.7979 12.4632 25.1096 12.5467 25.3551 12.4049C25.6006 12.2632 25.6842 11.9515 25.5424 11.7059L24.301 9.55568C24.2123 9.40221 24.0572 9.31199 23.8935 9.30054ZM56.5466 9.30054C56.3829 9.31148 56.228 9.40218 56.1394 9.55564L54.8977 11.7059C54.756 11.9514 54.8397 12.2631 55.0852 12.4049C55.3308 12.5467 55.6425 12.4631 55.7843 12.2176L57.0257 10.0674C57.1674 9.82184 57.0839 9.5101 56.8384 9.36834C56.7464 9.31522 56.6449 9.29373 56.5466 9.30054ZM20.9683 11.125C20.8698 11.1287 20.7712 11.1603 20.6851 11.2227C20.4556 11.3891 20.4049 11.7079 20.5714 11.9374L24.0373 16.7151C24.2038 16.9446 24.5228 16.9953 24.7522 16.8289C24.9817 16.6625 25.0325 16.3437 24.8659 16.1142L21.3998 11.3364C21.2957 11.193 21.1323 11.1194 20.9683 11.125ZM59.5085 11.151C59.3445 11.145 59.181 11.2185 59.0768 11.3617L55.6043 16.1349C55.4375 16.3641 55.4878 16.683 55.7171 16.8498C55.9463 17.0166 56.2652 16.9664 56.432 16.7372L59.9043 11.9641C60.0711 11.7348 60.0207 11.416 59.7915 11.2492C59.7055 11.1867 59.607 11.1546 59.5085 11.151ZM18.3535 13.3179C18.2229 13.3106 18.0896 13.3542 17.9843 13.4491C17.7735 13.6387 17.7566 13.961 17.9463 14.1717L19.6076 16.0172C19.7973 16.2279 20.1195 16.2448 20.3303 16.0551C20.541 15.8654 20.5579 15.543 20.3682 15.3322L18.7071 13.487C18.6123 13.3816 18.4842 13.3247 18.3535 13.3179ZM62.0904 13.3215C61.9597 13.3288 61.8316 13.3853 61.7368 13.4907L60.0755 15.3357C59.8858 15.5464 59.9026 15.8689 60.1133 16.0586C60.324 16.2483 60.6462 16.2313 60.8359 16.0207L62.4974 14.1756C62.6872 13.9649 62.6701 13.6425 62.4595 13.4528C62.3541 13.3579 62.221 13.3147 62.0904 13.3215ZM15.8475 15.7251C15.7169 15.7324 15.5889 15.7889 15.4941 15.8943C15.3044 16.105 15.3214 16.4272 15.532 16.6169L19.9189 20.566C20.1296 20.7557 20.4519 20.7387 20.6415 20.5281C20.8312 20.3174 20.8145 19.9951 20.6037 19.8055L16.2167 15.8563C16.1112 15.7615 15.9781 15.7182 15.8475 15.7251ZM64.6086 15.7423C64.4779 15.7351 64.3445 15.7786 64.2391 15.8733L59.8496 19.8194C59.6387 20.0089 59.6214 20.3312 59.8109 20.542C60.0004 20.7528 60.3229 20.77 60.5338 20.5804L64.9235 16.6344C65.1343 16.4448 65.1514 16.1226 64.9619 15.9117C64.8671 15.8063 64.7392 15.7493 64.6086 15.7423ZM13.7635 18.4048C13.5994 18.3987 13.4359 18.4726 13.3317 18.6159C13.1651 18.8453 13.2156 19.164 13.445 19.3306L15.4537 20.79C15.6831 20.9567 16.0017 20.9064 16.1684 20.677C16.335 20.4476 16.2846 20.1287 16.0553 19.9621L14.0466 18.5026C13.9607 18.4401 13.8619 18.4083 13.7635 18.4048ZM66.6906 18.4234C66.5921 18.427 66.4935 18.4585 66.4074 18.521L64.3979 19.9791C64.1684 20.1456 64.1176 20.4645 64.2841 20.694C64.4506 20.9235 64.7693 20.974 64.9988 20.8076L67.0086 19.3495C67.238 19.183 67.2886 18.8643 67.1221 18.6348C67.0181 18.4914 66.8546 18.4178 66.6906 18.4234ZM11.816 21.2632C11.6522 21.2741 11.4973 21.3648 11.4087 21.5182C11.267 21.7638 11.3505 22.0755 11.596 22.2173L16.7077 25.1685C16.9532 25.3103 17.265 25.2268 17.4067 24.9813C17.5485 24.7357 17.465 24.424 17.2194 24.2823L12.1077 21.3309C12.0157 21.2778 11.9142 21.2563 11.816 21.2632ZM68.6242 21.2632C68.5259 21.2559 68.4245 21.2777 68.3324 21.331L63.2207 24.2823C62.9752 24.4241 62.8917 24.7358 63.0334 24.9813C63.1752 25.2268 63.4869 25.3104 63.7324 25.1686L68.8444 22.2173C69.0899 22.0755 69.1734 21.7638 69.0316 21.5183C68.943 21.3648 68.7879 21.2746 68.6242 21.2632ZM10.3435 24.3099C10.1441 24.305 9.95287 24.4192 9.86625 24.6133C9.75075 24.8722 9.86617 25.1737 10.1251 25.2891L12.3928 26.3007C12.6518 26.4161 12.9532 26.3007 13.0687 26.0418C13.1842 25.7829 13.0685 25.4815 12.8096 25.366L10.5421 24.3545C10.4774 24.3255 10.41 24.3112 10.3435 24.3099ZM70.1066 24.3309C70.0401 24.3321 69.9725 24.3467 69.9078 24.3755L67.6396 25.3853C67.3806 25.5006 67.2648 25.8019 67.3801 26.0609C67.4955 26.3199 67.7969 26.4357 68.0559 26.3204L70.3241 25.3104C70.5831 25.1951 70.6987 24.8938 70.5834 24.6348C70.4969 24.4405 70.306 24.3269 70.1066 24.3309ZM9.0312 27.4942C8.83244 27.5109 8.65425 27.6437 8.58838 27.8458C8.5006 28.1154 8.64673 28.4031 8.91635 28.4909L14.5285 30.3196C14.7981 30.4074 15.0858 30.2612 15.1736 29.9917C15.2614 29.7221 15.1153 29.4344 14.8457 29.3465L9.23351 27.5178C9.16615 27.4958 9.09744 27.4886 9.0312 27.4942ZM71.4165 27.5161C71.3502 27.51 71.2818 27.5173 71.2144 27.5397L65.6009 29.3644C65.3313 29.4521 65.1848 29.7397 65.2725 30.0093C65.3601 30.2789 65.6477 30.4254 65.9174 30.3377L71.5306 28.513C71.8003 28.4254 71.9469 28.1377 71.8593 27.8681C71.7935 27.6659 71.6152 27.533 71.4165 27.5161ZM8.21359 30.8369C7.97518 30.8345 7.76139 31 7.70981 31.2426C7.65085 31.5199 7.82677 31.7906 8.10404 31.8495L10.5328 32.3657C10.8101 32.4246 11.0808 32.2487 11.1397 31.9715C11.1987 31.6941 11.0228 31.4235 10.7455 31.3645L8.31694 30.8484C8.28229 30.8411 8.24763 30.8369 8.21359 30.8369ZM72.2277 30.8418C72.1936 30.8421 72.1592 30.8466 72.1246 30.8527L69.6958 31.3686C69.4185 31.4276 69.2427 31.698 69.3016 31.9753C69.3605 32.2527 69.6312 32.4287 69.9085 32.3698L72.337 31.8539C72.6143 31.7949 72.7904 31.5243 72.7315 31.2469C72.6799 31.0043 72.466 30.8398 72.2277 30.8418ZM7.59474 34.1992C7.35743 34.222 7.1621 34.4082 7.13603 34.6549C7.10625 34.9368 7.30906 35.1878 7.59099 35.2176L13.4609 35.8382C13.7428 35.868 13.9939 35.665 14.0236 35.383C14.0534 35.1011 13.8504 34.8501 13.5685 34.8203L7.69856 34.1997C7.6633 34.196 7.62866 34.196 7.59474 34.1992ZM72.8509 34.2434C72.817 34.2397 72.7821 34.2397 72.7468 34.2438L66.8763 34.8565C66.5943 34.8859 66.391 35.1366 66.4204 35.4185C66.4498 35.7005 66.7005 35.9038 66.9825 35.8744L72.8531 35.2617C73.135 35.2323 73.3383 34.9816 73.3089 34.6996C73.2832 34.4529 73.0882 34.2664 72.8509 34.2434ZM7.49536 37.641C7.21185 37.641 6.98364 37.8692 6.98364 38.1527C6.98364 38.4362 7.21185 38.6645 7.49536 38.6645H9.97823C10.2617 38.6645 10.4902 38.4362 10.4902 38.1527C10.4902 37.8692 10.2617 37.641 9.97823 37.641H7.49536ZM70.4619 37.641C70.1784 37.641 69.9502 37.8692 69.9502 38.1527C69.9502 38.4362 70.1784 38.6645 70.4619 38.6645H72.9448C73.2283 38.6645 73.4565 38.4362 73.4565 38.1527C73.4565 37.8692 73.2283 37.641 72.9448 37.641H70.4619ZM13.5616 40.4307C13.5277 40.427 13.4931 40.427 13.4578 40.4311L7.58699 41.0437C7.30501 41.0732 7.10175 41.3238 7.13115 41.6058C7.16057 41.8878 7.41125 42.0911 7.69322 42.0617L13.564 41.449C13.846 41.4196 14.0493 41.1689 14.0199 40.8869C13.9941 40.6402 13.7989 40.4537 13.5616 40.4307ZM66.8754 40.4669C66.6381 40.4896 66.4428 40.6758 66.4167 40.9225C66.3869 41.2044 66.5897 41.4555 66.8717 41.4853L72.7416 42.1059C73.0235 42.1357 73.2745 41.9326 73.3043 41.6507C73.3341 41.3688 73.1311 41.1177 72.8492 41.0879L66.9795 40.4673C66.9442 40.4637 66.9094 40.4637 66.8754 40.4669ZM10.6353 43.924C10.6012 43.9242 10.5666 43.9276 10.5319 43.9349L8.10318 44.4508C7.82586 44.5098 7.65006 44.7804 7.70895 45.0577C7.76791 45.335 8.03855 45.5109 8.31587 45.452L10.7446 44.9362C11.0219 44.8773 11.1977 44.6067 11.1388 44.3293C11.0873 44.0867 10.8737 43.922 10.6353 43.924ZM69.8042 43.9288C69.5658 43.9264 69.3522 44.0917 69.3007 44.3343C69.2417 44.6116 69.4174 44.8823 69.6947 44.9412L72.1234 45.4574C72.4007 45.5163 72.6714 45.3407 72.7303 45.0634C72.7893 44.786 72.6134 44.5152 72.3361 44.4562L69.9076 43.9401C69.8729 43.9328 69.8382 43.9288 69.8042 43.9288ZM14.7251 45.9444C14.6588 45.9383 14.5904 45.9456 14.523 45.9679L8.90951 47.7926C8.63989 47.8803 8.49345 48.1679 8.58109 48.4375C8.66875 48.7072 8.95637 48.8536 9.22599 48.766L14.8393 46.9412C15.1089 46.8536 15.2556 46.566 15.1679 46.2963C15.1021 46.0941 14.9238 45.9612 14.7251 45.9444ZM65.7095 45.9625C65.5108 45.9791 65.3326 46.1119 65.2667 46.3141C65.1789 46.5836 65.3251 46.8714 65.5947 46.9592L71.2069 48.7879C71.4764 48.8757 71.7642 48.7294 71.852 48.4599C71.9399 48.1904 71.7936 47.9026 71.524 47.8148L65.9118 45.9861C65.8445 45.9641 65.7758 45.9569 65.7095 45.9625ZM12.583 49.941C12.5165 49.9422 12.4492 49.9565 12.3844 49.9853L10.116 50.9953C9.85704 51.1106 9.74145 51.4119 9.85675 51.6709C9.97213 51.9299 10.2734 52.0455 10.5323 51.9302L12.8008 50.9204C13.0598 50.8052 13.1754 50.5038 13.0601 50.2448C12.9736 50.0506 12.7824 49.937 12.583 49.941ZM67.849 49.9604C67.6495 49.9556 67.4583 50.0697 67.3717 50.2639C67.2562 50.5228 67.3716 50.8242 67.6305 50.9397L69.8981 51.9512C70.157 52.0667 70.4584 51.9513 70.5739 51.6924C70.6894 51.4335 70.574 51.132 70.3151 51.0166L68.0475 50.005C67.9828 49.9761 67.9154 49.9618 67.849 49.9604ZM16.9995 51.0693C16.9012 51.062 16.7998 51.0839 16.7077 51.1372L11.596 54.0885C11.3505 54.2302 11.267 54.542 11.4087 54.7875C11.5505 55.033 11.8622 55.1165 12.1077 54.9748L17.2194 52.0237C17.465 51.8819 17.5485 51.57 17.4067 51.3245C17.3181 51.171 17.1632 51.0808 16.9995 51.0693ZM63.4409 51.0693C63.2771 51.0803 63.122 51.171 63.0334 51.3244C62.8917 51.5699 62.9752 51.8819 63.2207 52.0237L68.3324 54.9747C68.5779 55.1165 68.8899 55.033 69.0316 54.7874C69.1734 54.5419 69.0899 54.2302 68.8444 54.0884L63.7324 51.1371C63.6404 51.084 63.5391 51.0625 63.4409 51.0693ZM15.7245 55.4003C15.626 55.404 15.5274 55.4357 15.4413 55.4982L13.4318 56.9563C13.2023 57.1228 13.1515 57.4415 13.318 57.671C13.4845 57.9005 13.8032 57.9512 14.0327 57.7846L16.0424 56.3266C16.2719 56.1601 16.3227 55.8413 16.1562 55.6119C16.0522 55.4685 15.8885 55.3947 15.7245 55.4003ZM64.7035 55.4176C64.5395 55.4115 64.3759 55.4854 64.2718 55.6287C64.1051 55.8581 64.1557 56.177 64.3851 56.3436L66.3938 57.8031C66.6231 57.9697 66.9418 57.9192 67.1085 57.6898C67.2751 57.4604 67.2247 57.1417 66.9954 56.9751L64.9867 55.5156C64.9007 55.4532 64.802 55.4211 64.7035 55.4176ZM20.2759 55.5943C20.1453 55.587 20.012 55.6305 19.9066 55.7252L15.5169 59.6713C15.306 59.8608 15.2889 60.1831 15.4784 60.3939C15.668 60.6048 15.9902 60.6219 16.2011 60.4323L20.5908 56.4863C20.8017 56.2968 20.8188 55.9745 20.6292 55.7637C20.5345 55.6583 20.4065 55.6012 20.2759 55.5943ZM60.1521 55.6084C60.0215 55.6157 59.8934 55.6722 59.7985 55.7775C59.6088 55.9883 59.6258 56.3105 59.8365 56.5002L64.2233 60.4493C64.4341 60.639 64.7565 60.622 64.9462 60.4114C65.1359 60.2007 65.1189 59.8784 64.9083 59.6887L60.5212 55.7396C60.4158 55.6448 60.2828 55.6015 60.1521 55.6084ZM24.4403 59.3572C24.2763 59.3511 24.1126 59.4245 24.0083 59.5679L20.536 64.341C20.3693 64.5703 20.4195 64.8892 20.6486 65.0559C20.8779 65.2227 21.1968 65.1725 21.3635 64.9432L24.8358 60.1701C25.0026 59.9408 24.9524 59.622 24.7233 59.4552C24.6373 59.3927 24.5388 59.3606 24.4403 59.3572ZM55.9713 59.3786C55.8728 59.3822 55.7742 59.4137 55.6882 59.4762C55.4587 59.6427 55.408 59.9614 55.5744 60.1909L59.0403 64.9687C59.2067 65.1982 59.5255 65.2489 59.755 65.0825C59.9844 64.916 60.0352 64.5973 59.8688 64.3678L56.4029 59.59C56.2988 59.4466 56.1354 59.373 55.9713 59.3786ZM19.9578 60.1158C19.8272 60.1231 19.6991 60.1796 19.6043 60.285L17.943 62.13C17.7532 62.3407 17.77 62.6632 17.9808 62.8529C18.1915 63.0426 18.5137 63.0256 18.7034 62.8148L20.3649 60.9698C20.5546 60.7591 20.5376 60.4366 20.327 60.2469C20.2216 60.1521 20.0885 60.109 19.9578 60.1158ZM60.4792 60.1182C60.3486 60.1109 60.2155 60.1546 60.1102 60.2494C59.8994 60.4391 59.8825 60.7614 60.0721 60.9721L61.7332 62.8175C61.9229 63.0283 62.2451 63.0452 62.4558 62.8555C62.6665 62.6658 62.6835 62.3433 62.4938 62.1326L60.8327 60.2874C60.7379 60.182 60.6098 60.1251 60.4792 60.1182ZM29.2892 62.1651C29.0898 62.1603 28.8988 62.2744 28.8122 62.4686L26.4073 67.859C26.2918 68.1179 26.4072 68.4193 26.6661 68.5349C26.925 68.6503 27.2264 68.5349 27.3419 68.276L29.7469 62.8856C29.8623 62.6267 29.7469 62.3252 29.488 62.2097C29.4233 62.1808 29.3557 62.1665 29.2892 62.1651ZM51.1184 62.18C51.0519 62.1812 50.9844 62.1955 50.9197 62.2243C50.6608 62.3395 50.5448 62.6407 50.66 62.8997L53.0573 68.2935C53.1725 68.5524 53.4739 68.6684 53.7329 68.5532C53.9919 68.4381 54.1078 68.1369 53.9927 67.8778L51.5953 62.4841C51.5089 62.2899 51.3179 62.1761 51.1184 62.18ZM25.0634 63.8317C24.8996 63.8427 24.7447 63.9334 24.6561 64.0868L23.4147 66.2371C23.2729 66.4826 23.3564 66.7943 23.602 66.9361C23.8475 67.0779 24.1592 66.9943 24.301 66.7488L25.5424 64.5986C25.6842 64.353 25.6006 64.0413 25.3551 63.8995C25.2631 63.8464 25.1616 63.8249 25.0634 63.8317ZM55.3768 63.8317C55.2785 63.8244 55.1773 63.8465 55.0852 63.8996C54.8397 64.0413 54.7562 64.3531 54.898 64.5986L56.1394 66.7489C56.2811 66.9944 56.5929 67.0779 56.8384 66.9361C57.0839 66.7944 57.1674 66.4826 57.0257 66.2371L55.7843 64.0869C55.6956 63.9334 55.5405 63.8432 55.3768 63.8317ZM34.643 63.9088C34.4046 63.9064 34.191 64.0717 34.1395 64.3143L32.9128 70.0882C32.8539 70.3655 33.0298 70.6362 33.307 70.6951C33.5844 70.754 33.8551 70.5781 33.914 70.3008L35.1406 64.527C35.1996 64.2497 35.0236 63.979 34.7464 63.9201C34.7117 63.9128 34.677 63.9088 34.643 63.9088ZM45.779 63.9125C45.745 63.9127 45.7106 63.9161 45.6759 63.9234C45.3986 63.9821 45.2225 64.2525 45.2812 64.5299L46.5037 70.3046C46.5624 70.582 46.833 70.758 47.1104 70.6993C47.3877 70.6406 47.5638 70.37 47.5051 70.0926L46.2824 64.3183C46.231 64.0756 46.0174 63.9106 45.779 63.9125ZM40.2201 64.4949C39.9366 64.4949 39.7083 64.7231 39.7083 65.0066V70.9092C39.7083 71.1927 39.9366 71.4209 40.2201 71.4209C40.5036 71.4209 40.7318 71.1927 40.7318 70.9092V65.0066C40.7318 64.7231 40.5036 64.4949 40.2201 64.4949ZM30.8266 66.4022C30.6279 66.4191 30.4495 66.552 30.3838 66.7542L29.6163 69.1156C29.5287 69.3852 29.6752 69.6729 29.9447 69.7605C30.2143 69.8482 30.502 69.7014 30.5896 69.4319L31.3571 67.0707C31.4448 66.8011 31.2983 66.5135 31.0287 66.4258C30.9613 66.4039 30.8929 66.3966 30.8266 66.4022ZM49.6096 66.4034C49.5433 66.3973 49.4749 66.4046 49.4075 66.4269C49.1379 66.5145 48.9912 66.8021 49.0788 67.0718L49.8461 69.4332C49.9337 69.7028 50.2214 69.8492 50.491 69.7616C50.7606 69.6739 50.9072 69.3865 50.8196 69.1169L50.0522 66.7555C49.9864 66.5533 49.8083 66.4203 49.6096 66.4034ZM37.0079 67.7186C36.7706 67.7415 36.5751 67.9277 36.5492 68.1744L36.2897 70.6438C36.26 70.9258 36.4632 71.1765 36.7451 71.2061C37.0271 71.2358 37.278 71.0327 37.3076 70.7507L37.5671 68.2816C37.5968 67.9996 37.3937 67.7487 37.1118 67.719C37.0765 67.7154 37.0419 67.7154 37.0079 67.7186ZM43.4117 67.721C43.3777 67.7174 43.3428 67.7174 43.3076 67.7215C43.0256 67.7509 42.8223 68.0016 42.8517 68.2835L43.1097 70.7531C43.1391 71.0351 43.3898 71.2382 43.6718 71.2088C43.9538 71.1794 44.1571 70.9287 44.1276 70.6467L43.8699 68.1773C43.8441 67.9306 43.649 67.7441 43.4117 67.721Z" fill="#F4F2F3"/>
<g id="Vector_5" opacity="0.409" filter="url(#filter1_f_115_848)">
<path d="M64.2038 17.6829L36.2063 33.9495L18.5043 61.8174L44.4009 42.6361L64.2038 17.6829Z" fill="black"/>
</g>
<path id="Vector_6" d="M44.2326 42.3539L36.2076 33.9498L64.6753 14.7996L44.2326 42.3539Z" fill="#FF5150"/>
<path id="Vector_7" d="M44.2326 42.3537L36.2076 33.9497L15.7648 61.504L44.2326 42.3537Z" fill="#F1F1F1"/>
<path id="Vector_8" opacity="0.243" d="M15.7648 61.5041L44.2326 42.3539L64.6753 14.7996L15.7648 61.5041Z" fill="black"/>
</g>
</g>
<defs>
<filter id="filter0_f_115_848" x="-0.0448661" y="2.36401" width="80.5335" height="77.8145" filterUnits="userSpaceOnUse" color-interpolation-filters="sRGB">
<feFlood flood-opacity="0" result="BackgroundImageFix"/>
<feBlend mode="normal" in="SourceGraphic" in2="BackgroundImageFix" result="shape"/>
<feGaussianBlur stdDeviation="1.79016" result="effect1_foregroundBlur_115_848"/>
</filter>
<filter id="filter1_f_115_848" x="17.4867" y="16.6652" width="47.7347" height="46.1698" filterUnits="userSpaceOnUse" color-interpolation-filters="sRGB">
<feFlood flood-opacity="0" result="BackgroundImageFix"/>
<feBlend mode="normal" in="SourceGraphic" in2="BackgroundImageFix" result="shape"/>
<feGaussianBlur stdDeviation="0.508813" result="effect1_foregroundBlur_115_848"/>
</filter>
<linearGradient id="paint0_linear_115_848" x1="40.2187" y1="76.2341" x2="40.2187" y2="0.0684038" gradientUnits="userSpaceOnUse">
<stop stop-color="#BDBDBD"/>
<stop offset="1" stop-color="white"/>
</linearGradient>
<radialGradient id="paint1_radial_115_848" cx="0" cy="0" r="1" gradientUnits="userSpaceOnUse" gradientTransform="translate(40.3783 33.0341) scale(38.083 38.083)">
<stop stop-color="#06C2E7"/>
<stop offset="0.25" stop-color="#0DB8EC"/>
<stop offset="0.5" stop-color="#12AEF1"/>
<stop offset="0.75" stop-color="#1F86F9"/>
<stop offset="1" stop-color="#107DDD"/>
</radialGradient>
<clipPath id="clip0_115_848">
<rect width="80.4401" height="80" fill="white"/>
</clipPath>
</defs>
</svg>
