<svg width="80" height="80" viewBox="0 0 80 80" fill="none" xmlns="http://www.w3.org/2000/svg">
<g id="sass">
<g id="sass_2">
<path id="Vector" d="M68.8863 44.4917C66.0953 44.5063 63.6697 45.1785 61.6385 46.1722C60.8933 44.6962 60.1481 43.381 60.0166 42.4165C59.8705 41.2913 59.6951 40.6045 59.8705 39.26C60.0458 37.9156 60.8349 36.0012 60.8203 35.8551C60.8057 35.709 60.6449 35.0221 59.0376 35.0075C57.4302 34.9929 56.042 35.3144 55.8813 35.7382C55.7206 36.162 55.4137 37.1265 55.2091 38.1202C54.9315 39.5815 51.9944 44.7985 50.314 47.5313C49.7734 46.4645 49.3058 45.5292 49.2035 44.7839C49.0574 43.6587 48.882 42.9719 49.0574 41.6274C49.2327 40.283 50.0218 38.3686 50.0072 38.2225C49.9925 38.0763 49.8318 37.3895 48.2245 37.3749C46.6171 37.3603 45.2289 37.6818 45.0682 38.1056C44.9075 38.5294 44.7321 39.5231 44.396 40.4876C44.0599 41.4521 40.1585 50.1617 39.1356 52.4122C38.6096 53.5666 38.1566 54.4873 37.8351 55.1157C37.8351 55.1157 37.8205 55.1595 37.7767 55.2326C37.499 55.7733 37.3383 56.0655 37.3383 56.0655C37.3383 56.0655 37.3383 56.0655 37.3383 56.0801C37.1191 56.4747 36.8853 56.84 36.7684 56.84C36.6807 56.84 36.52 55.7879 36.7976 54.3557C37.3821 51.3308 38.7703 46.6252 38.7557 46.4645C38.7557 46.3768 39.0187 45.5584 37.8497 45.1347C36.71 44.7109 36.3008 45.4123 36.1985 45.4123C36.0962 45.4123 36.0232 45.6607 36.0232 45.6607C36.0232 45.6607 37.2944 40.3707 33.5975 40.3707C31.2888 40.3707 28.1033 42.8988 26.5252 45.1785C25.5315 45.7192 23.4128 46.8736 21.1478 48.1158C20.2857 48.598 19.3944 49.0803 18.5615 49.5333C18.503 49.4748 18.4446 49.4018 18.3861 49.3433C13.9148 44.5647 5.64418 41.189 5.99488 34.7737C6.12639 32.4355 6.93006 26.2979 21.8785 18.845C34.182 12.7804 43.9723 14.461 45.6673 18.1874C48.0929 23.5067 40.4215 33.3854 27.7088 34.8175C22.8575 35.3582 20.3149 33.4877 19.672 32.7863C18.9998 32.0556 18.8975 32.0117 18.6491 32.1579C18.24 32.3771 18.503 33.0347 18.6491 33.4146C19.0291 34.4084 20.5926 36.162 23.2374 37.0242C25.5754 37.7841 31.2596 38.2079 38.142 35.5482C45.8426 32.5671 51.8629 24.2812 50.0948 17.3398C48.3267 10.2961 36.6369 7.97258 25.5754 11.9036C18.9998 14.2418 11.869 17.9244 6.74011 22.7176C0.646772 28.4168 -0.31764 33.3708 0.0768928 35.4459C1.49429 42.8111 11.6498 47.6043 15.7121 51.1554C15.5075 51.2723 15.3175 51.3746 15.1568 51.4623C13.1257 52.4706 5.38116 56.5185 3.45234 60.8003C1.26049 65.652 3.80303 69.13 5.48345 69.5976C10.7 71.0443 16.0628 68.4431 18.9414 64.1468C21.82 59.8504 21.4693 54.2681 20.1396 51.7107C20.125 51.6815 20.1104 51.6523 20.0811 51.623C20.6072 51.3161 21.1478 50.9946 21.6739 50.6878C22.7114 50.074 23.7342 49.5041 24.611 49.0364C24.1141 50.3955 23.7488 52.0176 23.5735 54.3557C23.3543 57.1031 24.4795 60.6688 25.9553 62.0717C26.6128 62.6854 27.3873 62.7 27.8841 62.7C29.6084 62.7 30.3828 61.2679 31.2449 59.5728C32.297 57.4977 33.2468 55.0864 33.2468 55.0864C33.2468 55.0864 32.0632 61.604 35.2779 61.604C36.4469 61.604 37.6305 60.0842 38.1566 59.3097C38.1566 59.3243 38.1566 59.3243 38.1566 59.3243C38.1566 59.3243 38.1858 59.2805 38.2442 59.1782C38.3611 58.9882 38.4342 58.8713 38.4342 58.8713C38.4342 58.8713 38.4342 58.8567 38.4342 58.8421C38.9018 58.0237 39.9539 56.1678 41.5174 53.0844C43.5339 49.1095 45.4773 44.1409 45.4773 44.1409C45.4773 44.1409 45.6527 45.3539 46.2518 47.3705C46.6025 48.5542 47.3331 49.8548 47.9176 51.1116C47.45 51.7692 47.1578 52.1345 47.1578 52.1345C47.1578 52.1345 47.1578 52.1345 47.1724 52.1491C46.7924 52.646 46.3833 53.1867 45.9303 53.7128C44.3376 55.6125 42.438 57.7899 42.175 58.4183C41.8681 59.1636 41.9412 59.7043 42.5257 60.1427C42.9494 60.4642 43.7092 60.508 44.4837 60.4642C45.9157 60.3619 46.924 60.0112 47.4208 59.792C48.1952 59.5143 49.1012 59.0905 49.9487 58.4621C51.5122 57.3077 52.462 55.6563 52.3743 53.4789C52.3305 52.2806 51.936 51.0823 51.4538 49.9571C51.5999 49.7525 51.7314 49.5479 51.8775 49.3433C54.347 45.7338 56.2612 41.7736 56.2612 41.7736C56.2612 41.7736 56.4366 42.9865 57.0357 45.0031C57.3279 46.0261 57.927 47.1367 58.4531 48.2181C56.1297 50.1032 54.6977 52.2953 54.1863 53.7274C53.2657 56.387 53.9817 57.5853 55.3406 57.863C55.9544 57.9945 56.8311 57.7022 57.474 57.4246C58.2923 57.1615 59.2567 56.7085 60.1773 56.0363C61.7408 54.8818 63.2459 53.2744 63.1582 51.0969C63.1144 50.1032 62.8514 49.1241 62.4861 48.1743C64.4587 47.3559 67.0013 46.9029 70.2452 47.2828C77.2007 48.1012 78.5742 52.4414 78.3112 54.2681C78.0482 56.0948 76.587 57.0885 76.1047 57.3954C75.6225 57.7022 75.4618 57.8045 75.5056 58.0237C75.5641 58.3452 75.7979 58.3306 76.207 58.2722C76.7769 58.1699 79.8601 56.7962 79.9916 53.4351C80.2108 49.1387 76.1194 44.4478 68.8863 44.4917ZM15.2299 62.5831C12.9211 65.0967 9.70641 66.0465 8.31824 65.2428C6.82778 64.3806 7.41227 60.6688 10.2471 58.0091C11.9713 56.387 14.1924 54.8818 15.6682 53.9612C16.0043 53.7566 16.5011 53.4643 17.1002 53.099C17.2025 53.0405 17.261 53.0113 17.261 53.0113C17.3779 52.9382 17.4948 52.8652 17.6117 52.7921C18.6491 56.5916 17.6555 59.9381 15.2299 62.5831ZM32.034 51.1554C31.2303 53.1136 29.5499 58.126 28.5271 57.8484C27.6503 57.6146 27.1097 53.8151 28.3517 50.0594C28.98 48.1743 30.3098 45.9238 31.0842 45.047C32.3409 43.6441 33.729 43.1764 34.0651 43.7464C34.4889 44.4917 32.5308 49.9279 32.034 51.1554ZM45.9011 57.7899C45.565 57.9653 45.2435 58.0822 45.0974 57.9945C44.9951 57.9361 45.2435 57.7022 45.2435 57.7022C45.2435 57.7022 46.9824 55.8317 47.6692 54.9841C48.0637 54.4873 48.5313 53.9027 49.0281 53.2451C49.0281 53.3036 49.0281 53.3766 49.0281 53.4351C49.0281 55.671 46.8655 57.1762 45.9011 57.7899ZM56.5973 55.3495C56.3489 55.1741 56.3927 54.5896 57.2256 52.7629C57.5471 52.0468 58.3069 50.8485 59.6074 49.6941C59.7536 50.1617 59.8559 50.6147 59.8412 51.0385C59.8266 53.8589 57.8101 54.9111 56.5973 55.3495Z" fill="#CD6799"/>
</g>
</g>
</svg>
