<svg width="80" height="80" viewBox="0 0 80 80" fill="none" xmlns="http://www.w3.org/2000/svg">
<g id="slack">
<g id="slack_2">
<path id="Vector" fill-rule="evenodd" clip-rule="evenodd" d="M29.353 0.000244141C24.9396 0.00350612 21.3677 3.58516 21.371 7.99861C21.3677 12.4121 24.9428 15.9937 29.3563 15.997H37.3416V8.00187C37.3448 3.58842 33.7697 0.00676809 29.353 0.000244141C29.3563 0.000244141 29.3563 0.000244141 29.353 0.000244141ZM29.353 21.3336H8.06536C3.6519 21.3368 0.0767793 24.9185 0.0800413 29.3319C0.0735173 33.7454 3.64864 37.327 8.06209 37.3336H29.353C33.7665 37.3303 37.3416 33.7486 37.3383 29.3352C37.3416 24.9185 33.7665 21.3368 29.353 21.3336Z" fill="#36C5F0"/>
<path id="Vector_2" fill-rule="evenodd" clip-rule="evenodd" d="M79.9201 29.3319C79.9234 24.9185 76.3483 21.3368 71.9348 21.3336C67.5214 21.3368 63.9462 24.9185 63.9495 29.3319V37.3336H71.9348C76.3483 37.3303 79.9234 33.7486 79.9201 29.3319ZM58.6292 29.3319V7.99861C58.6325 3.58842 55.0606 0.00676809 50.6472 0.000244141C46.2337 0.00350612 42.6586 3.58516 42.6619 7.99861V29.3319C42.6553 33.7454 46.2305 37.327 50.6439 37.3336C55.0574 37.3303 58.6325 33.7486 58.6292 29.3319Z" fill="#2EB67D"/>
<path id="Vector_3" fill-rule="evenodd" clip-rule="evenodd" d="M50.6439 80.0001C55.0574 79.9969 58.6325 76.4152 58.6292 72.0018C58.6325 67.5883 55.0574 64.0067 50.6439 64.0034H42.6586V72.0018C42.6553 76.412 46.2305 79.9936 50.6439 80.0001ZM50.6439 58.6636H71.9348C76.3483 58.6603 79.9234 55.0787 79.9201 50.6652C79.9267 46.2517 76.3515 42.6701 71.9381 42.6636H50.6472C46.2337 42.6668 42.6586 46.2485 42.6619 50.6619C42.6586 55.0787 46.2305 58.6603 50.6439 58.6636Z" fill="#ECB22E"/>
<path id="Vector_4" fill-rule="evenodd" clip-rule="evenodd" d="M0.0800346 50.6651C0.0767726 55.0786 3.6519 58.6602 8.06535 58.6635C12.4788 58.6602 16.0539 55.0786 16.0507 50.6651V42.6667H8.06535C3.6519 42.67 0.0767726 46.2517 0.0800346 50.6651ZM21.3709 50.6651V71.9984C21.3644 76.4119 24.9395 79.9935 29.353 80.0001C33.7665 79.9968 37.3416 76.4151 37.3383 72.0017V50.6716C37.3448 46.2582 33.7697 42.6765 29.3563 42.67C24.9395 42.67 21.3677 46.2517 21.3709 50.6651Z" fill="#E01E5A"/>
</g>
</g>
</svg>
