<svg width="80" height="80" viewBox="0 0 80 80" fill="none" xmlns="http://www.w3.org/2000/svg">
<g id="storybook">
<g id="storybook_2">
<path id="Vector" d="M10.3754 73.72L7.89538 7.68014C7.85796 6.63125 8.23182 5.60925 8.93723 4.8321C9.64264 4.05495 10.6238 3.58417 11.6714 3.52015L67.8312 0.00815994C68.38 -0.0268542 68.93 0.0510649 69.4474 0.237099C69.9648 0.423133 70.4386 0.713328 70.8393 1.08974C71.2401 1.46615 71.5594 1.92077 71.7775 2.4255C71.9956 2.93023 72.1078 3.47432 72.1072 4.02415V75.98C72.1067 76.5232 71.9962 77.0608 71.7823 77.5602C71.5684 78.0595 71.2557 78.5105 70.8628 78.8857C70.47 79.261 70.0053 79.5528 69.4966 79.7436C68.988 79.9344 68.446 80.0203 67.9032 79.996L14.2154 77.584C13.2068 77.5385 12.2521 77.1156 11.5408 76.3991C10.8295 75.6826 10.4135 74.7289 10.3754 73.72Z" fill="#FF4785"/>
<path id="Vector_2" fill-rule="evenodd" clip-rule="evenodd" d="M63.4157 0.28418L55.6877 0.764179L55.3117 9.83216C55.3071 9.94561 55.3347 10.0581 55.3915 10.1564C55.4482 10.2548 55.5317 10.335 55.6323 10.3878C55.7328 10.4405 55.8463 10.4637 55.9595 10.4546C56.0726 10.4454 56.1809 10.4044 56.2717 10.3362L59.7917 7.66416L62.7677 10.0082C62.8575 10.0793 62.9658 10.1232 63.0798 10.1347C63.1939 10.1462 63.3088 10.1248 63.411 10.073C63.5132 10.0213 63.5985 9.94134 63.6568 9.84265C63.715 9.74397 63.7438 9.63067 63.7397 9.51616L63.4157 0.28418ZM57.3997 30.6441C55.9877 31.7441 45.4437 32.4921 45.4437 30.9281C45.6677 24.9561 42.9957 24.6961 41.5077 24.6961C40.0997 24.6961 37.7237 25.1201 37.7237 28.3201C37.7237 31.5801 41.1957 33.4201 45.2717 35.5801C51.0597 38.6481 58.0717 42.3641 58.0717 51.7081C58.0717 60.668 50.7917 65.612 41.5117 65.612C31.9317 65.612 23.5597 61.736 24.5037 48.3001C24.8757 46.7241 37.0557 47.1001 37.0557 48.3001C36.9037 53.844 38.1677 55.476 41.3597 55.476C43.8117 55.476 44.9237 54.1241 44.9237 51.8521C44.9237 48.4081 41.3077 46.3761 37.1437 44.0401C31.5077 40.8761 24.8757 37.1521 24.8757 28.6041C24.8757 20.0761 30.7397 14.3881 41.2117 14.3881C51.6837 14.3881 57.3997 19.9881 57.3997 30.6441Z" fill="white"/>
</g>
</g>
</svg>
