<svg width="81" height="80" viewBox="0 0 81 80" fill="none" xmlns="http://www.w3.org/2000/svg">
<g id="tailwindcss">
<g id="tailwindcss_2">
<path id="Vector" d="M40.0109 16C29.341 16 22.6727 21.3334 20.005 31.9993C24.0065 26.6659 28.6746 24.6666 34.009 25.9995C37.053 26.7599 39.2284 28.9684 41.637 31.412C45.5595 35.3925 50.0994 39.9995 60.0169 39.9995C70.6858 39.9995 77.3551 34.6661 80.0218 23.9992C76.0212 29.3326 71.3532 31.3329 66.0178 30C62.9748 29.2395 60.7994 27.0311 58.3908 24.5875C54.4683 20.607 49.9273 16 40.0109 16ZM20.005 39.9995C9.33605 39.9995 2.66673 45.3329 0 55.9998C4.00059 50.6664 8.66862 48.6661 14.0041 50C17.047 50.7615 19.2225 52.9689 21.631 55.4115C25.5536 59.392 30.0945 64 40.0109 64C50.6808 64 57.3491 58.6666 60.0169 47.9997C56.0153 53.3331 51.3473 55.3334 46.0128 53.9995C42.9688 53.2401 40.7934 51.0306 38.3849 48.588C34.4623 44.6075 29.9224 39.9995 20.005 39.9995Z" fill="#06B6D4"/>
</g>
</g>
</svg>
