<svg width="81" height="80" viewBox="0 0 81 80" fill="none" xmlns="http://www.w3.org/2000/svg">
<g id="reactquery">
<g id="reactquery_2">
<path id="Vector" fill-rule="evenodd" clip-rule="evenodd" d="M49.6067 48.7419L48.0648 51.4193C47.6003 52.2259 46.7404 52.723 45.8096 52.723H33.9976C33.0668 52.723 32.2069 52.2259 31.7424 51.4193L30.2004 48.7419H49.6067ZM53.9234 41.2465L51.2046 45.9673H28.6025L25.8839 41.2465H53.9234ZM51.3045 33.917L53.9277 38.472H25.8795L28.5027 33.917H51.3045ZM45.8096 26.988C46.7404 26.988 47.6003 27.4851 48.0648 28.2917L49.7066 31.1423H30.1006L31.7424 28.2917C32.2069 27.4851 33.0668 26.988 33.9976 26.988H45.8096Z" fill="#00435B"/>
<path id="Vector_2" d="M16.8065 25.7455C15.498 19.4007 15.2172 14.5344 16.063 11.0007C16.566 8.89904 17.4857 7.18455 18.8841 5.94758C20.3604 4.64167 22.227 4.00085 24.3243 4.00085C27.7843 4.00085 31.4215 5.57863 35.3086 8.57599C36.894 9.79856 38.5395 11.2722 40.2485 12.9977C40.3845 12.8226 40.5382 12.6574 40.7095 12.5047C45.5409 8.19928 49.6086 5.52425 53.0876 4.49284C55.1563 3.87956 57.0985 3.82114 58.8671 4.41634C60.7341 5.04462 62.2216 6.34337 63.2712 8.16249C65.0032 11.1647 65.46 15.1096 64.8143 19.9806C64.551 21.9661 64.1011 24.1288 63.4653 26.4722C63.7051 26.5011 63.9456 26.5543 64.1836 26.6332C70.3136 28.6646 74.6543 30.8491 77.2822 33.3456C78.8458 34.831 79.8668 36.4846 80.2359 38.3151C80.6255 40.2472 80.2456 42.1851 79.1973 44.0029C77.4685 47.0008 74.2896 49.3652 69.7609 51.2379C67.9425 51.9899 65.8851 52.671 63.5863 53.2835C63.6912 53.5203 63.7726 53.7718 63.827 54.0357C65.1355 60.3804 65.4163 65.2468 64.5705 68.7805C64.0675 70.8822 63.1478 72.5966 61.7494 73.8336C60.2731 75.1395 58.4065 75.7803 56.3092 75.7803C52.8492 75.7803 49.212 74.2026 45.3249 71.2052C43.7226 69.9696 42.0589 68.4776 40.3305 66.7284C40.1526 67.0065 39.9342 67.2651 39.676 67.4953C34.8446 71.8007 30.777 74.4757 27.2979 75.5072C25.2293 76.1204 23.287 76.1789 21.5184 75.5837C19.6515 74.9554 18.1639 73.6566 17.1144 71.8375C15.3823 68.8353 14.9255 64.8904 15.5713 60.0194C15.844 57.9622 16.3173 55.7146 16.9899 53.273C16.727 53.2463 16.463 53.1907 16.2019 53.1042C10.0719 51.0728 5.73124 48.8883 3.1033 46.3918C1.53973 44.9064 0.51871 43.2528 0.149617 41.4223C-0.239962 39.4902 0.139907 37.5523 1.1882 35.7345C2.91706 32.7367 6.09591 30.3723 10.6246 28.4995C12.4972 27.7251 14.6233 27.0259 17.0053 26.3994C16.9205 26.1916 16.8534 25.9732 16.8065 25.7455Z" fill="#002B3B"/>
<path id="Vector_3" fill-rule="evenodd" clip-rule="evenodd" d="M32.5494 23.7244C35.727 23.4715 39.0022 23.3598 42.3751 23.3893C43.0138 23.3949 43.5362 22.8816 43.5418 22.2429C43.5441 21.9739 43.4526 21.7124 43.283 21.5036C35.6062 12.0515 29.285 7.32544 24.3194 7.32544C19.1928 7.32544 17.7303 12.9764 19.9318 24.2784C20.0525 24.8979 20.6475 25.3063 21.2689 25.1962C25.1884 24.5016 28.9485 24.011 32.5494 23.7244Z" fill="#FF4154"/>
<path id="Vector_4" fill-rule="evenodd" clip-rule="evenodd" d="M50.3871 25.2801C52.2222 27.9244 53.9834 30.7247 55.6708 33.681C55.9874 34.2358 56.6939 34.4288 57.2487 34.1122C57.4813 33.9794 57.6606 33.77 57.7561 33.5197C62.0985 22.1296 63.0112 14.2745 60.4939 9.95442C57.8964 5.49641 52.2365 7.03787 43.5144 14.5788C43.0349 14.9934 42.9784 15.7168 43.3879 16.2008C45.9793 19.2641 48.3124 22.2906 50.3871 25.2801Z" fill="#FF4154"/>
<path id="Vector_5" fill-rule="evenodd" clip-rule="evenodd" d="M58.0891 41.1925C56.7157 44.079 55.1719 46.98 53.4579 49.8956C53.1342 50.4463 53.3182 51.1552 53.8688 51.4789C54.102 51.6159 54.3758 51.667 54.6427 51.6231C66.6098 49.6555 73.8362 46.515 76.322 42.2016C78.8892 37.7469 74.7607 33.6638 63.9364 29.9525C63.3401 29.748 62.6899 30.0587 62.4744 30.6511C61.1085 34.405 59.6467 37.9188 58.0891 41.1925Z" fill="#FF4154"/>
<path id="Vector_6" fill-rule="evenodd" clip-rule="evenodd" d="M48.2698 56.1311C45.0922 56.384 41.817 56.4957 38.4442 56.4661C37.8054 56.4605 37.2831 56.9738 37.2775 57.6126C37.2751 57.8816 37.3666 58.1431 37.5363 58.3519C45.213 67.804 51.5342 72.53 56.4999 72.53C61.6264 72.53 63.0889 66.879 60.8874 55.577C60.7668 54.9576 60.1718 54.5492 59.5503 54.6593C55.6309 55.3539 51.8707 55.8445 48.2698 56.1311Z" fill="#FF4154"/>
<path id="Vector_7" fill-rule="evenodd" clip-rule="evenodd" d="M29.9984 54.72C28.1633 52.0757 26.4021 49.2754 24.7147 46.3191C24.3981 45.7643 23.6916 45.5713 23.1369 45.8879C22.9042 46.0207 22.7249 46.2301 22.6295 46.4804C18.287 57.8705 17.3744 65.7256 19.8916 70.0457C22.4892 74.5037 28.149 72.9622 36.8711 65.4213C37.3507 65.0067 37.4071 64.2833 36.9977 63.7993C34.4062 60.736 32.0731 57.7095 29.9984 54.72Z" fill="#FF4154"/>
<path id="Vector_8" fill-rule="evenodd" clip-rule="evenodd" d="M22.2964 38.3737C23.6699 35.4872 25.2136 32.5861 26.9276 29.6705C27.2513 29.1199 27.0674 28.411 26.5167 28.0873C26.2835 27.9502 26.0097 27.8992 25.7429 27.9431C13.7758 29.9107 6.54932 33.0512 4.06355 37.3645C1.49627 41.8193 5.62479 45.9024 16.4491 49.6137C17.0454 49.8181 17.6956 49.5074 17.9112 48.9151C19.277 45.1611 20.7388 41.6473 22.2964 38.3737Z" fill="#FF4154"/>
<path id="Vector_9" fill-rule="evenodd" clip-rule="evenodd" d="M34.9471 27.1326H44.8622C46.3122 27.1326 47.6515 27.9081 48.3732 29.1657L53.3517 37.8404C54.0679 39.0883 54.0679 40.6226 53.3517 41.8705L48.3732 50.5452C47.6515 51.8028 46.3122 52.5784 44.8622 52.5784H34.9471C33.4971 52.5784 32.1578 51.8028 31.4361 50.5452L26.4576 41.8705C25.7415 40.6226 25.7415 39.0883 26.4576 37.8404L31.4361 29.1657C32.1578 27.9081 33.4971 27.1326 34.9471 27.1326ZM43.351 29.7508C44.8018 29.7508 46.1417 30.5271 46.8632 31.7858L50.3348 37.8423C51.0495 39.0892 51.0495 40.6217 50.3348 41.8686L46.8632 47.9251C46.1417 49.1838 44.8018 49.9601 43.351 49.9601H36.4583C35.0075 49.9601 33.6676 49.1838 32.9462 47.9251L29.4746 41.8686C28.7598 40.6217 28.7598 39.0892 29.4746 37.8423L32.9462 31.7858C33.6676 30.5271 35.0075 29.7508 36.4583 29.7508H43.351ZM41.7223 32.6145H38.0871C36.6378 32.6145 35.299 33.3892 34.577 34.6459L32.7425 37.8387C32.025 39.0875 32.025 40.6234 32.7425 41.8722L34.577 45.065C35.299 46.3217 36.6378 47.0965 38.0871 47.0965H41.7223C43.1716 47.0965 44.5103 46.3217 45.2323 45.065L47.0668 41.8722C47.7843 40.6234 47.7843 39.0875 47.0668 37.8387L45.2323 34.6459C44.5103 33.3892 43.1716 32.6145 41.7223 32.6145ZM40.1539 35.3554C41.6021 35.3554 42.94 36.129 43.6625 37.3842L43.9225 37.8361C44.6421 39.0862 44.6421 40.6247 43.9225 41.8749L43.6625 42.3267C42.94 43.5819 41.6021 44.3555 40.1539 44.3555H39.6554C38.2072 44.3555 36.8693 43.5819 36.1469 42.3267L35.8868 41.8749C35.1673 40.6247 35.1673 39.0862 35.8868 37.8361L36.1469 37.3842C36.8693 36.129 38.2072 35.3554 39.6554 35.3554H40.1539ZM39.9053 38.0554C39.2608 38.0554 38.6663 38.3985 38.3445 38.9554C38.0227 39.5123 38.0227 40.1986 38.3445 40.7555C38.6663 41.3124 39.2608 41.6555 39.904 41.6555C40.5486 41.6555 41.143 41.3124 41.4648 40.7555C41.7866 40.1986 41.7866 39.5123 41.4648 38.9554C41.143 38.3985 40.5486 38.0554 39.9053 38.0554ZM25.3012 39.8555H28.542H25.3012Z" fill="#FFD94C"/>
</g>
</g>
</svg>
