<svg width="80" height="80" viewBox="0 0 80 80" fill="none" xmlns="http://www.w3.org/2000/svg">
<g clip-path="url(#clip0_115_818)">
<path d="M40.0167 80.0333C62.1172 80.0333 80.0333 62.1172 80.0333 40.0167C80.0333 17.9161 62.1172 0 40.0167 0C17.9161 0 0 17.9161 0 40.0167C0 62.1172 17.9161 80.0333 40.0167 80.0333Z" fill="url(#paint0_linear_115_818)"/>
<path fill-rule="evenodd" clip-rule="evenodd" d="M18.0924 39.5835C29.7543 34.5189 37.5177 31.1537 41.4161 29.521C52.5114 24.8896 54.8438 24.09 56.3432 24.0566C56.6764 24.0566 57.4094 24.1233 57.9092 24.5231C58.309 24.8563 58.409 25.2895 58.4756 25.6227C58.5423 25.9559 58.6089 26.6556 58.5423 27.1887C57.9425 33.5194 55.3436 48.8796 54.0108 55.9434C53.4444 58.9421 52.3448 59.9417 51.2786 60.0416C48.9463 60.2416 47.1803 58.509 44.9479 57.0429C41.4161 54.7439 39.4502 53.3111 36.0183 51.0454C32.0533 48.4465 34.6189 47.0137 36.8846 44.6814C37.4844 44.0816 47.7134 34.7522 47.9134 33.9192C47.9467 33.8192 47.9467 33.4194 47.7134 33.2195C47.4802 33.0196 47.147 33.0862 46.8805 33.1529C46.5139 33.2195 40.9163 36.9513 30.0208 44.3149C28.4215 45.4144 26.9887 45.9475 25.6893 45.9142C24.2565 45.8809 21.5244 45.1145 19.4585 44.4481C16.9596 43.6485 14.9604 43.2153 15.127 41.8159C15.227 41.0829 16.2266 40.3499 18.0924 39.5835Z" fill="white"/>
</g>
<defs>
<linearGradient id="paint0_linear_115_818" x1="39.9833" y1="0" x2="39.9833" y2="79.4002" gradientUnits="userSpaceOnUse">
<stop stop-color="#2AABEE"/>
<stop offset="1" stop-color="#229ED9"/>
</linearGradient>
<clipPath id="clip0_115_818">
<rect width="80" height="80" fill="white"/>
</clipPath>
</defs>
</svg>
