<svg width="80" height="80" viewBox="0 0 80 80" fill="none" xmlns="http://www.w3.org/2000/svg">
<g id="typescript">
<g id="typescript_2">
<path id="Vector" d="M0 12C0 5.37258 5.37258 0 12 0H68C74.6274 0 80 5.37258 80 12V68C80 74.6274 74.6274 80 68 80H12C5.37258 80 0 74.6274 0 68V12Z" fill="#017ACB"/>
<path id="Vector_2" d="M38.4125 29.625H42.25V36.2499H31.875V65.7249L31.6 65.7999C31.225 65.8999 26.2875 65.8999 25.225 65.7874L24.375 65.7124V36.2499H14V29.625L17.2875 29.5874C19.0875 29.5624 23.7125 29.5624 27.5625 29.5874C31.4125 29.6124 36.2875 29.625 38.4125 29.625ZM67.7001 62.5999C66.1751 64.2124 64.5376 65.1124 61.8126 65.8499C60.6251 66.1749 60.4251 66.1875 57.7501 66.1749C55.0751 66.1624 54.8626 66.1624 53.5626 65.8249C50.2001 64.9624 47.4876 63.2749 45.6376 60.8874C45.1126 60.2124 44.25 58.8124 44.25 58.6374C44.25 58.5874 44.375 58.4749 44.5375 58.3999C44.7001 58.3249 45.0376 58.1124 45.3126 57.9499C45.5876 57.7874 46.0876 57.4874 46.4251 57.3124C46.7626 57.1374 47.7376 56.5624 48.5876 56.0499C49.4376 55.5374 50.2126 55.1249 50.3001 55.1249C50.3876 55.1249 50.5501 55.2999 50.6751 55.5124C51.4251 56.7749 53.1751 58.3874 54.4126 58.9374C55.1751 59.2624 56.8626 59.6249 57.6751 59.6249C58.4251 59.6249 59.8001 59.2999 60.5376 58.9624C61.3251 58.5999 61.7251 58.2374 62.2001 57.5124C62.5251 56.9999 62.5626 56.8624 62.5501 55.8874C62.5501 54.9874 62.5001 54.7374 62.2501 54.3249C61.5501 53.1749 60.6001 52.5749 56.7501 50.8749C52.7751 49.1124 50.9876 48.0625 49.5376 46.65C48.4626 45.6 48.2501 45.3124 47.5751 43.9999C46.7001 42.3124 46.5876 41.7624 46.5751 39.2499C46.5626 37.4874 46.6001 36.9124 46.7876 36.3124C47.0501 35.4124 47.9001 33.6749 48.2876 33.2374C49.0876 32.2999 49.3751 32.0124 49.9376 31.5499C51.6376 30.1499 54.2876 29.225 56.8251 29.1375C57.1126 29.1375 58.0626 29.1875 58.9501 29.25C61.5001 29.4625 63.2376 30.0874 64.9126 31.4249C66.1751 32.4249 68.0876 34.775 67.9001 35.0875C67.7751 35.275 62.7876 38.5999 62.4626 38.7C62.2626 38.7625 62.1251 38.6874 61.8501 38.3624C60.1501 36.3249 59.4626 35.8874 57.8126 35.7874C56.6376 35.7124 56.0126 35.8499 55.2251 36.3749C54.4001 36.9249 54.0001 37.7624 54.0001 38.9249C54.0126 40.6249 54.6626 41.4249 57.0626 42.6124C58.6126 43.3749 59.9376 43.9999 60.0376 43.9999C60.1876 43.9999 63.4001 45.5999 64.2376 46.0999C68.1376 48.3874 69.7251 50.7374 70.1376 54.7874C70.4376 57.8374 69.5751 60.6249 67.7001 62.5999Z" fill="white"/>
</g>
</g>
</svg>
