<svg width="80" height="80" viewBox="0 0 80 80" fill="none" xmlns="http://www.w3.org/2000/svg">
<g id="vscode">
<g id="vscode_2">
<path id="Vector" d="M0.832682 28.5483C0.832682 28.5483 -1.11227 27.1463 1.22167 25.2743L6.65942 20.4119C6.65942 20.4119 8.21538 18.7749 9.86048 20.2012L60.0401 58.1926V76.4102C60.0401 76.4102 60.0158 79.2709 56.3447 78.9549L0.832682 28.5483Z" fill="#2489CA"/>
<path id="Vector_2" d="M13.7666 40.291L0.832693 52.0498C0.832693 52.0498 -0.496356 53.0385 0.832693 54.8052L6.83773 60.2672C6.83773 60.2672 8.26402 61.7989 10.3711 60.0565L24.0829 49.6592L13.7666 40.291Z" fill="#1070B3"/>
<path id="Vector_3" d="M36.4739 40.3882L60.1942 22.2758L60.0402 4.15533C60.0402 4.15533 59.0272 0.20059 55.6479 2.259L24.0829 30.9876L36.4739 40.3882Z" fill="#0877B9"/>
<path id="Vector_4" d="M56.3448 78.9795C57.7225 80.3895 59.3919 79.9276 59.3919 79.9276L77.877 70.8188C80.2434 69.2061 79.9111 67.2044 79.9111 67.2044V12.8106C79.9111 10.4199 77.4637 9.59332 77.4637 9.59332L61.4422 1.87024C57.9413 -0.293521 55.6479 2.25923 55.6479 2.25923C55.6479 2.25923 58.5977 0.135989 60.0402 4.15556V76.0782C60.0402 76.5726 59.9349 77.0588 59.7242 77.4964C59.3028 78.3474 58.387 79.1415 56.1909 78.8093L56.3448 78.9795Z" fill="#3C99D4"/>
</g>
</g>
</svg>
