<svg width="25" height="23" viewBox="0 0 25 23" fill="none" xmlns="http://www.w3.org/2000/svg">
<path d="M0.441574 11.0537L6.20207 13.2037L8.43174 20.3743C8.57441 20.8336 9.13599 21.0033 9.50874 20.6986L12.7197 18.0809C13.0563 17.8067 13.5357 17.793 13.8875 18.0483L19.679 22.2531C20.0777 22.5429 20.6427 22.3244 20.7427 21.8426L24.9852 1.43499C25.0944 0.908654 24.5772 0.469571 24.0761 0.663404L0.434824 9.78349C-0.148593 10.0085 -0.14351 10.8345 0.441574 11.0537ZM8.07241 12.0592L19.3306 5.12532C19.5329 5.00107 19.7411 5.27465 19.5673 5.43582L10.2761 14.0725C9.94949 14.3765 9.73882 14.7833 9.67916 15.2249L9.36266 17.5704C9.32074 17.8836 8.88082 17.9147 8.79441 17.6116L7.57716 13.3345C7.43774 12.8467 7.64091 12.3256 8.07241 12.0592Z" fill="white" fill-opacity="0.9"/>
</svg>
