<svg width="13" height="25" viewBox="0 0 13 25" fill="none" xmlns="http://www.w3.org/2000/svg">
<path d="M0.588895 13.315H3.3293V24.5968C3.3293 24.8195 3.50978 25 3.73252 25H8.37897C8.60172 25 8.7822 24.8195 8.7822 24.5968V13.3681H11.9325C12.1374 13.3681 12.3097 13.2144 12.3331 13.011L12.8116 8.85758C12.8247 8.74331 12.7885 8.62887 12.712 8.54315C12.6355 8.45734 12.526 8.40823 12.4111 8.40823H8.78236V5.80468C8.78236 5.01984 9.20494 4.62185 10.0385 4.62185C10.1573 4.62185 12.4111 4.62185 12.4111 4.62185C12.6338 4.62185 12.8143 4.44129 12.8143 4.21863V0.40621C12.8143 0.183468 12.6338 0.00298387 12.4111 0.00298387H9.14131C9.11825 0.00185484 9.06704 0 8.99156 0C8.42422 0 6.4522 0.111371 4.89446 1.54444C3.16849 3.1325 3.40841 5.03395 3.46575 5.36363V8.40814H0.588895C0.366153 8.40814 0.185669 8.58863 0.185669 8.81137V12.9117C0.185669 13.1344 0.366153 13.315 0.588895 13.315Z" fill="white" fill-opacity="0.9"/>
</svg>
