<svg width="77" height="100" viewBox="0 0 77 100" fill="none" xmlns="http://www.w3.org/2000/svg">
<path d="M33.4753 0H37.1668C37.1668 4.68671 37.1668 9.37342 37.1678 14.0601C37.1717 14.2017 37.1368 14.3404 37.064 14.4617C31.6062 23.9098 26.1523 33.3598 20.6945 42.808C20.5538 43.032 20.2852 43.1174 20.0727 43.2551C15.9185 45.645 11.773 48.0495 7.61881 50.4384C7.07565 49.4918 6.52764 48.547 5.98157 47.6014C15.1465 31.7342 24.2997 15.8603 33.4753 0Z" fill="#EF7F1A"/>
<path d="M39.1222 0H42.7497C44.0204 2.16683 45.2648 4.35015 46.5247 6.52376C54.386 20.1406 62.2531 33.7556 70.1115 47.3744C69.5509 48.3424 68.9874 49.3084 68.4355 50.2813C64.2463 47.8797 60.0727 45.45 55.8846 43.0466C55.5548 42.8855 55.4326 42.5179 55.2512 42.226C49.904 32.9593 44.5499 23.6954 39.2027 14.4297C39.0659 14.1678 39.1348 13.8584 39.1193 13.5761C39.1251 9.05044 39.1212 4.5257 39.1222 0Z" fill="#009846"/>
<path d="M28.8836 39.5907C31.8322 34.4985 34.7565 29.3909 37.7216 24.3084C40.6673 29.3996 43.612 34.4917 46.5441 39.5907C40.6576 39.5916 34.7701 39.5916 28.8836 39.5907Z" fill="white"/>
<path d="M21.3734 44.7565C21.6227 44.5926 21.934 44.676 22.2133 44.6586C32.8486 44.6595 43.4849 44.6596 54.1202 44.6576C54.3976 44.6741 54.707 44.5946 54.9553 44.7604C59.1193 47.1678 63.2861 49.5693 67.451 51.9757C66.7846 53.1455 66.096 54.3026 65.4393 55.4782C60.2104 55.5111 54.9806 55.483 49.7517 55.4927C36.6847 55.4956 23.6168 55.485 10.5489 55.4976C9.88939 54.3792 9.2405 53.2551 8.60132 52.1251C12.8642 49.678 17.1164 47.2134 21.3734 44.7565Z" fill="white"/>
<path d="M6.05141 62.6188C7.88652 62.1154 9.89622 62.2706 11.6266 63.065C13.0553 63.711 14.2852 64.7808 15.1368 66.096C14.1232 66.7226 13.1115 67.3521 12.0989 67.9816C11.5858 67.2444 10.8826 66.6324 10.0495 66.2832C8.75655 65.7216 7.2066 65.7992 5.97769 66.4888C4.79534 67.1367 3.92241 68.3239 3.67022 69.6498C3.40446 70.9563 3.74103 72.3705 4.57129 73.4142C5.4161 74.5024 6.76625 75.1785 8.14549 75.1891C10.8632 75.1949 13.581 75.1901 16.2978 75.1911C15.7692 76.3812 15.226 77.5645 14.7032 78.7575C12.516 78.7798 10.3288 78.7662 8.14161 78.7711C5.82347 78.7653 3.54025 77.708 2.02619 75.9554C0.812803 74.58 0.104753 72.7885 0 70.9602V70.2531C0.0678952 68.5267 0.681862 66.8244 1.75752 65.4704C2.83608 64.0941 4.36275 63.0756 6.05141 62.6188Z" fill="white"/>
<path d="M63.7547 63.4597C66.3744 61.872 69.8837 61.9437 72.4355 63.6401C74.0204 64.6654 75.2338 66.2502 75.8022 68.0504C76.0379 68.7682 76.1281 69.5218 76.2367 70.2667V70.8467C76.0844 72.1358 75.8051 73.4336 75.1446 74.5664C74.2464 76.1794 72.7896 77.4733 71.0815 78.1726C69.7188 78.7449 68.2037 78.8943 66.745 78.7022C65.1669 78.4723 63.6635 77.7682 62.4743 76.7071C61.2445 75.6159 60.3502 74.1484 59.9554 72.5509C59.518 70.8099 59.6683 68.9253 60.3861 67.2784C61.0699 65.6925 62.2677 64.3366 63.7547 63.4597ZM66.8885 66.0252C65.2435 66.3948 63.8681 67.7333 63.454 69.3676C63.0825 70.7517 63.3987 72.2997 64.2939 73.42C65.1649 74.5422 66.5723 75.2211 67.9933 75.1979C69.3347 75.193 70.6538 74.5674 71.5093 73.5364C72.3434 72.5548 72.7323 71.2143 72.5558 69.9379C72.3929 68.6382 71.6402 67.4306 70.5539 66.7022C69.4976 65.9767 68.1339 65.7313 66.8885 66.0252Z" fill="white"/>
<path d="M24.8244 62.6721C25.8545 62.4772 27.0097 62.5596 27.8836 63.1891C28.6779 63.7653 29.1241 64.677 29.4859 65.5625C31.2211 69.8778 32.9573 74.193 34.6906 78.5092C33.0087 78.5111 31.3268 78.5092 29.645 78.5111C29.2638 77.4103 28.9001 76.3026 28.5121 75.2046C26.4054 75.2134 24.2987 75.2008 22.192 75.2105C21.8263 76.3123 21.4578 77.4122 21.0853 78.5111C19.5722 78.5073 18.0601 78.5121 16.548 78.5092C18.1678 74.6712 19.7914 70.8351 21.4132 66.999C21.8205 66.0844 22.1435 65.127 22.6673 64.2696C23.1358 63.4791 23.9068 62.8429 24.8244 62.6721ZM24.708 67.7769C24.1842 69.3433 23.6615 70.9098 23.1406 72.4772C24.6236 72.4782 26.1076 72.4782 27.5906 72.4772C27.0863 71.0155 26.5751 69.5567 26.0717 68.095C25.9874 67.8613 25.9224 67.6169 25.7914 67.4044C25.6391 67.1494 25.2715 67.0902 25.0242 67.2308C24.8467 67.3579 24.7856 67.5829 24.708 67.7769Z" fill="white"/>
<path d="M38.3317 63.258C39.903 62.1843 42.2512 62.3016 43.6256 63.6537C44.2095 64.2182 44.6101 64.9505 44.8604 65.7177C45.58 67.9418 46.2949 70.1678 47.0155 72.3918C47.8099 70.2561 48.5733 68.1086 49.355 65.968C49.709 64.9428 50.258 63.9273 51.1678 63.2939C52.0766 62.6508 53.2541 62.5131 54.3327 62.6848C55.2309 62.8206 56.0883 63.2842 56.6402 64.0155C57.3773 64.9767 57.6208 66.2231 57.6305 67.4112C57.6324 71.1106 57.6314 74.8099 57.6314 78.5092C56.0912 78.5102 54.5509 78.5102 53.0107 78.5102C53.0088 75.2599 53.0136 72.0107 53.0088 68.7614C53.0194 68.4801 52.903 68.1232 52.5791 68.0892C52.1921 67.9884 51.8914 68.3346 51.7954 68.6712C50.6654 71.9505 49.5374 75.2308 48.4074 78.5102C47.2076 78.5102 46.0088 78.5112 44.8089 78.5092C43.8148 75.3531 42.8216 72.1959 41.8264 69.0398C41.7284 68.7507 41.5897 68.356 41.2212 68.3579C40.8245 68.3046 40.5597 68.7032 40.6004 69.065C40.5975 72.2134 40.6014 75.3618 40.5985 78.5102C39.26 78.5092 37.9224 78.5112 36.5849 78.5092C36.5878 74.7129 36.58 70.9166 36.5888 67.1212C36.6091 65.679 37.1077 64.1203 38.3317 63.258Z" fill="white"/>
<path d="M67.0621 84.8894C67.2774 84.9214 67.5984 84.7954 67.7051 85.0592C67.8147 85.2784 68.0747 85.3094 68.2822 85.386C68.5781 85.3269 68.8797 85.2066 68.9835 84.8953C69.1668 84.8933 69.3511 84.8933 69.5364 84.8953C69.4045 85.2648 69.1969 85.6586 68.7866 85.7682C68.3482 85.8603 67.8303 85.8768 67.4646 85.5771C67.2454 85.4083 67.1581 85.1348 67.0621 84.8894Z" fill="white"/>
<path d="M6.14645 86.3744C6.58971 86.3802 7.03394 86.3744 7.47817 86.3831C7.77885 87.5684 8.12899 88.7391 8.44034 89.9214C8.48302 90.0543 8.50048 90.2124 8.6256 90.3016C8.92143 88.9796 9.36372 87.6954 9.69349 86.3821C10.1164 86.3763 10.5402 86.3792 10.9641 86.3744C11.001 86.9389 10.9757 87.5063 10.968 88.0727C10.9602 88.1988 10.9602 88.3269 10.968 88.4549C10.9942 89.1338 10.9874 89.8147 10.9699 90.4947C10.9913 90.9408 10.966 91.387 10.9845 91.8341C10.7022 91.8312 10.419 91.8312 10.1368 91.8351C10.1309 90.2881 10.1726 88.7391 10.1164 87.194C9.67797 88.7371 9.24441 90.2822 8.83025 91.8322C8.60717 91.8312 8.38505 91.8312 8.16197 91.8312C7.91367 90.8157 7.61784 89.8118 7.35014 88.8012C7.22211 88.2939 7.04461 87.7982 6.97671 87.2774C6.84092 87.3695 6.86808 87.5383 6.86323 87.6828C6.8739 89.0679 6.85644 90.453 6.87293 91.838C6.62948 91.8322 6.38505 91.8322 6.1416 91.8351C6.15518 90.0145 6.14645 88.195 6.14645 86.3744Z" fill="white"/>
<path d="M12.5305 86.3724C13.5509 86.3792 14.5713 86.386 15.5917 86.3695C15.6246 86.6023 15.6401 86.838 15.6353 87.0757C14.8885 87.0689 14.1416 87.0757 13.3948 87.0718C13.3948 87.6091 13.3948 88.1465 13.3948 88.6848C13.9806 88.6819 14.5655 88.6828 15.1503 88.6838C15.1494 88.9166 15.1503 89.1503 15.1523 89.3851C14.5548 89.3851 13.9573 89.3851 13.3608 89.386C13.3676 89.967 13.3676 90.549 13.3608 91.1309C14.1271 91.1338 14.8943 91.1338 15.6615 91.1309C15.6605 91.3647 15.6615 91.5994 15.6654 91.8341C14.6188 91.8341 13.5723 91.8254 12.5257 91.839C12.5402 90.0165 12.5296 88.195 12.5305 86.3724Z" fill="white"/>
<path d="M16.2793 86.3783C16.5771 86.3754 16.8758 86.3773 17.1736 86.3841C17.5383 87.0902 17.9301 87.7818 18.2997 88.4859C18.355 88.6043 18.4403 88.7022 18.5422 88.7866C18.5616 87.9825 18.548 87.1785 18.5499 86.3744C18.8196 86.3783 19.0902 86.3783 19.3598 86.3754C19.3608 87.1756 19.3482 87.9767 19.3666 88.7779C19.4995 88.6857 19.5771 88.5441 19.6508 88.4064C20.0019 87.7245 20.3812 87.0582 20.7362 86.3783C21.0058 86.3773 21.2754 86.3773 21.5451 86.3783C21.1309 87.1765 20.6479 87.9379 20.2279 88.7342C20.8147 89.7497 21.3065 90.8186 21.8913 91.837C21.5703 91.8332 21.2502 91.8322 20.9292 91.8254C20.5043 90.9573 20.0174 90.1212 19.5916 89.2541C19.5325 89.2677 19.4161 89.2939 19.3579 89.3065C19.3618 90.1494 19.3501 90.9922 19.3647 91.8351C19.0912 91.8312 18.8176 91.8312 18.5441 91.838C18.5596 90.9961 18.5461 90.1552 18.5528 89.3143C18.4956 89.2978 18.3821 89.2648 18.3249 89.2483C17.8729 90.1096 17.4122 90.966 16.966 91.8312C16.6877 91.8312 16.4093 91.8312 16.1309 91.837C16.6809 90.9176 17.1406 89.9466 17.6906 89.0272C17.2366 88.1348 16.7109 87.2803 16.2793 86.3783Z" fill="white"/>
<path d="M23.7381 86.3783C24.1794 86.3773 24.6207 86.3783 25.062 86.3773C25.418 87.9612 25.7779 89.5431 26.1445 91.1251C26.2201 91.1193 26.3724 91.1067 26.449 91.1009C26.4452 91.7342 26.4403 92.3666 26.4529 93C26.2463 92.9971 26.0417 92.9961 25.8361 92.998C25.8186 92.6062 25.7633 92.2182 25.7332 91.8283C24.8079 91.8361 23.8816 91.8332 22.9563 91.8293C22.9195 92.2182 22.8671 92.6062 22.8535 92.998C22.6479 92.9961 22.4423 92.9971 22.2366 93C22.2483 92.3676 22.2434 91.7342 22.2395 91.1009C22.3162 91.1067 22.4675 91.1183 22.5441 91.1241C22.9466 89.5431 23.3472 87.9622 23.7381 86.3783ZM23.3297 91.1154C23.9573 91.1096 24.5858 91.1135 25.2134 91.1135C24.9796 89.8235 24.6799 88.5461 24.452 87.2551C24.3928 87.2628 24.2745 87.2774 24.2153 87.2851C23.8865 88.5528 23.6479 89.8438 23.3297 91.1154Z" fill="white"/>
<path d="M26.9534 86.3783C27.2367 86.3792 27.5199 86.3647 27.8031 86.385C28 86.741 28.0941 87.1513 28.257 87.5276C28.4316 88.0475 28.6838 88.5431 28.8021 89.0815C28.8351 89.0873 28.9001 89.0979 28.9321 89.1038C29.2182 88.1891 29.5131 87.2784 29.8225 86.3724C30.0689 86.3763 30.3162 86.3773 30.5625 86.3792C30.2357 87.6081 29.7614 88.7953 29.3763 90.0077C29.1765 90.5499 29.0533 91.1581 28.6411 91.5887C28.3346 91.9001 27.8681 91.8215 27.4733 91.839C27.4782 91.5916 27.4782 91.3462 27.4733 91.0999C27.7556 91.0989 28.128 91.1445 28.2871 90.8496C28.3986 90.6372 28.5577 90.387 28.4646 90.1426C27.9748 88.8826 27.4141 87.6498 26.9534 86.3783Z" fill="white"/>
<path d="M34.0136 86.3812C34.3075 86.3792 34.6023 86.3773 34.8982 86.3724C34.8982 88.1949 34.8885 90.0165 34.903 91.839C34.6062 91.8312 34.3094 91.8302 34.0136 91.8332C34.0184 91.0203 34.0175 90.2066 34.0136 89.3938C33.4636 89.4006 32.9137 89.4006 32.3637 89.3947C32.3754 90.2095 32.3579 91.0233 32.3744 91.838C32.0776 91.8312 31.7808 91.8312 31.484 91.8341C31.4918 90.0155 31.4869 88.1969 31.4869 86.3783C31.7818 86.3783 32.0757 86.3783 32.3715 86.3763C32.3618 87.1426 32.3734 87.9098 32.3647 88.676C32.9127 88.6692 33.4617 88.6683 34.0107 88.678C34.0214 87.9117 34.0165 87.1464 34.0136 86.3812Z" fill="white"/>
<path d="M37.4665 86.3831C37.7963 86.3657 38.1261 86.3822 38.4568 86.3763C38.9486 88.1959 39.417 90.0214 39.9234 91.8361C39.6198 91.8312 39.3162 91.8312 39.0136 91.8342C38.9224 91.3754 38.7701 90.9311 38.708 90.4675C38.1532 90.4695 37.5975 90.4685 37.0427 90.4685C36.9544 90.9282 36.8235 91.3793 36.7187 91.8361C36.4364 91.8312 36.1542 91.8312 35.8719 91.8342C36.4238 90.0243 36.8952 88.1853 37.4665 86.3831ZM37.8196 87.3133C37.6527 88.1416 37.4054 88.9515 37.2376 89.7798C37.6586 89.7789 38.0805 89.7789 38.5014 89.7798C38.3268 88.969 38.0853 88.1746 37.9224 87.3618C37.8972 87.3502 37.8448 87.3259 37.8196 87.3133Z" fill="white"/>
<path d="M46.6005 86.3822C47.2658 86.162 48.0941 86.2745 48.5665 86.8284C49.1048 87.4258 49.1805 88.2745 49.2135 89.0417C49.1999 89.7808 49.1397 90.5694 48.7265 91.2076C48.4297 91.6712 47.8856 91.9612 47.3337 91.9331C46.8012 91.9777 46.2425 91.7896 45.8982 91.3696C45.39 90.7537 45.2872 89.9147 45.3143 89.1426C45.291 88.4763 45.3473 87.7847 45.6732 87.1901C45.872 86.8216 46.1979 86.5131 46.6005 86.3822ZM46.9651 87.034C46.648 87.1222 46.4676 87.4307 46.3842 87.7294C46.1785 88.4394 46.1882 89.194 46.261 89.9234C46.3337 90.3725 46.423 90.9137 46.8604 91.1562C47.2193 91.3133 47.713 91.2474 47.9331 90.8914C48.2299 90.3977 48.2649 89.7993 48.2716 89.2377C48.2736 88.6247 48.2678 87.9787 47.9807 87.421C47.8022 87.0631 47.3357 86.8846 46.9651 87.034Z" fill="white"/>
<path d="M51.5431 86.3715C51.9786 86.4045 52.4335 86.3317 52.8574 86.4074C53.2104 87.9728 53.5848 89.5354 53.9185 91.1067C54.0281 91.1086 54.1387 91.1115 54.2492 91.1164C54.2463 91.7439 54.2454 92.3715 54.2502 92.999C54.0436 92.9971 53.8361 93.0029 53.6314 92.9893C53.5645 92.6014 53.6071 92.2008 53.5024 91.8196C52.5897 91.8429 51.677 91.8361 50.7643 91.8235C50.6721 92.2066 50.6847 92.6033 50.6566 92.9942C50.4442 92.9951 50.2328 92.9961 50.0223 92.9981C50.0262 92.3695 50.0252 91.741 50.0232 91.1125C50.1319 91.1115 50.2415 91.1115 50.3521 91.1135C50.7332 89.5286 51.1367 87.9496 51.5431 86.3715ZM51.9815 87.2522C51.7342 88.547 51.4054 89.8244 51.1338 91.1144C51.7623 91.1125 52.3899 91.1106 53.0184 91.1154C52.7914 90.0029 52.5587 88.8914 52.3414 87.7769C52.2987 87.5548 52.3084 87.1959 51.9815 87.2522Z" fill="white"/>
<path d="M55.324 86.3754C55.6188 86.3783 55.9127 86.3783 56.2076 86.3763C56.2027 87.1426 56.2076 87.9088 56.2056 88.676C56.7556 88.6693 57.3055 88.6693 57.8555 88.676C57.8526 87.9098 57.8564 87.1426 57.8535 86.3763C58.1474 86.3783 58.4413 86.3783 58.7362 86.3763C58.7371 88.1959 58.7274 90.0155 58.741 91.8351C58.4433 91.8312 58.1455 91.8312 57.8487 91.8351C57.8623 91.0213 57.8497 90.2085 57.8564 89.3948C57.3055 89.4006 56.7546 89.4006 56.2046 89.3948C56.2105 90.2076 56.1979 91.0213 56.2114 91.8341C55.9137 91.8312 55.6169 91.8312 55.3201 91.8361C55.3336 90.0155 55.3249 88.195 55.324 86.3754Z" fill="white"/>
<path d="M60.2648 86.3744C60.5587 86.3783 60.8526 86.3783 61.1474 86.3763C61.1416 87.0892 61.1484 87.8012 61.1436 88.5141C61.7624 88.5315 62.4268 88.4297 63.0019 88.7139C63.5267 89.0485 63.6605 89.7216 63.6111 90.3036C63.6625 90.9874 63.194 91.741 62.4753 91.8157C61.7372 91.8584 60.9981 91.8157 60.2599 91.837C60.2735 90.0165 60.2648 88.195 60.2648 86.3744ZM61.1445 89.2047C61.1455 89.8409 61.1455 90.4782 61.1445 91.1144C61.6431 91.063 62.322 91.29 62.6479 90.7808C62.839 90.3812 62.8526 89.8487 62.5975 89.4753C62.2425 89.0427 61.6246 89.259 61.1445 89.2047Z" fill="white"/>
<path d="M64.1309 86.3734C64.4093 86.3783 64.6876 86.3783 64.967 86.3734C64.9679 88.1949 64.9573 90.0165 64.9718 91.839C64.6896 91.8302 64.4073 91.8312 64.126 91.838C64.1406 90.0165 64.1299 88.1949 64.1309 86.3734Z" fill="white"/>
<path d="M66.5073 86.3812C66.8021 86.3783 67.096 86.3773 67.3918 86.3724C67.3909 87.6324 67.387 88.8923 67.3889 90.1523C67.9195 89.0339 68.5664 87.9767 69.1736 86.8991C69.1736 86.7226 69.1746 86.548 69.1755 86.3734C69.4568 86.3792 69.7391 86.3783 70.0213 86.3724C70.0912 88.1901 70.0281 90.0126 70.0533 91.8322C69.7585 91.8312 69.4636 91.8312 69.1697 91.839C69.1949 90.6246 69.1494 89.4093 69.1969 88.1949L69.0611 88.225C68.9767 88.6246 68.742 88.966 68.5509 89.321C68.1629 90.0029 67.7885 90.6915 67.3909 91.3676C67.3909 91.5237 67.3928 91.6809 67.3967 91.839C67.0999 91.8312 66.8031 91.8302 66.5073 91.8332C66.5121 90.0155 66.5121 88.1979 66.5073 86.3812Z" fill="white"/>
<path d="M40.9525 86.3744C41.7537 86.4132 42.5771 86.2871 43.3599 86.5092C44.58 86.9515 44.6334 88.9854 43.4743 89.5354C42.9593 89.7527 42.3841 89.6906 41.84 89.6935C41.8303 90.4064 41.8332 91.1193 41.838 91.8332C41.5412 91.8312 41.2444 91.8312 40.9486 91.838C40.9622 90.0175 40.9535 88.1959 40.9525 86.3744ZM41.8342 87.0524C41.8351 87.7032 41.8351 88.355 41.8342 89.0068C42.292 88.9787 42.8846 89.1106 43.2076 88.6945C43.4937 88.2318 43.4491 87.5199 43.0049 87.1697C42.647 86.9816 42.2212 87.0805 41.8342 87.0524Z" fill="white"/>
<path d="M27.7867 95.3026C28.1843 95.0408 28.7197 95.0281 29.1533 95.2056C29.6877 95.4181 29.9098 96.1474 29.6072 96.6295C29.4763 96.7857 29.3114 96.9118 29.1707 97.0602C29.3715 97.1523 29.6024 97.2376 29.7071 97.451C30.0495 98.0669 29.7032 98.9806 29.002 99.1542C28.5286 99.2522 27.97 99.2309 27.5995 98.8807C27.3705 98.6528 27.2648 98.3337 27.2551 98.0165C27.4375 98 27.6208 97.9855 27.8041 97.9748C27.8759 98.3211 28.1067 98.7187 28.5131 98.6935C29.1465 98.7731 29.3531 97.8691 29.0059 97.4704C28.8468 97.2648 28.5684 97.3191 28.3424 97.3036C28.3415 97.1533 28.3405 97.0039 28.3385 96.8565C28.5364 96.8371 28.7779 96.8933 28.9283 96.7284C29.1892 96.4908 29.2047 96.0252 28.9535 95.7769C28.7333 95.5286 28.2949 95.5344 28.0767 95.7818C27.9389 95.9059 27.9079 96.096 27.8507 96.2648C27.6644 96.2309 27.4792 96.1959 27.2939 96.163C27.3967 95.8497 27.4947 95.4947 27.7867 95.3026Z" fill="white"/>
<path d="M56.4995 95.128C56.9234 95.0398 57.418 95.098 57.7362 95.42C58.13 95.7973 58.2425 96.3705 58.2619 96.8943C58.2803 97.4937 58.2609 98.1387 57.9272 98.6596C57.4694 99.4006 56.2202 99.3928 55.7682 98.6469C55.388 98.0272 55.3918 97.258 55.4597 96.5587C55.5257 95.9505 55.8458 95.2687 56.4995 95.128ZM56.3278 95.8865C56.0921 96.3114 56.0989 96.8138 56.0999 97.2861C56.1115 97.6828 56.1338 98.1096 56.3569 98.453C56.5703 98.7808 57.1193 98.7798 57.3385 98.4588C57.5732 98.1135 57.5606 97.678 57.6188 97.2823C57.5587 96.7953 57.6295 96.2454 57.324 95.8274C57.0892 95.4927 56.5218 95.5286 56.3278 95.8865Z" fill="white"/>
<path d="M6.02814 95.1658C6.23667 95.1668 6.44618 95.1687 6.65568 95.1697C6.6421 96.3142 6.65568 97.4588 6.64792 98.6033C7.04269 98.6013 7.43648 98.6013 7.83124 98.6013C7.82445 97.4578 7.83318 96.3142 7.82639 95.1697C8.04269 95.1697 8.25898 95.1697 8.47528 95.1697C8.46849 96.3152 8.47334 97.4607 8.47237 98.6072C8.6101 98.6023 8.74783 98.5984 8.88653 98.5965C8.88459 99.064 8.88556 99.5315 8.88556 100H8.46267C8.42193 99.7032 8.3938 99.4044 8.36955 99.1067C7.58876 99.1144 6.80796 99.0979 6.02814 99.1125C6.03784 97.7973 6.03784 96.4811 6.02814 95.1658Z" fill="white"/>
<path d="M9.28899 95.1707C10.0494 95.1707 10.8108 95.1726 11.5712 95.1697C11.5703 95.3346 11.5703 95.5015 11.5693 95.6702C11.0242 95.6683 10.4781 95.6702 9.93303 95.6683C9.93497 96.0592 9.93497 96.45 9.93303 96.8409C10.3588 96.8361 10.7846 96.84 11.2114 96.8351C11.2095 97.0039 11.2095 97.1736 11.2114 97.3443C10.7846 97.3385 10.3588 97.3424 9.934 97.3385C9.93497 97.7643 9.93497 98.1901 9.93303 98.6169C10.483 98.6149 11.0329 98.6188 11.5829 98.614C11.5868 98.7769 11.5906 98.9408 11.5965 99.1067C10.8273 99.1154 10.0581 99.1028 9.28899 99.1077C9.29578 98.4016 9.27347 97.6954 9.32973 96.9913C9.28317 96.3851 9.28899 95.7779 9.28899 95.1707Z" fill="white"/>
<path d="M12.0534 95.1678C12.2658 95.1687 12.4782 95.1678 12.6907 95.1658C12.6761 95.7206 12.6897 96.2764 12.679 96.8322C13.0874 96.8264 13.4957 96.8264 13.904 96.8322C13.8953 96.2774 13.9089 95.7226 13.8943 95.1678C14.1058 95.1687 14.3182 95.1678 14.5306 95.1668C14.5199 96.4811 14.5199 97.7963 14.5306 99.1115C14.3182 99.1076 14.1068 99.1076 13.8943 99.1106C13.9089 98.5228 13.8953 97.935 13.904 97.3482C13.4957 97.353 13.0874 97.353 12.679 97.3482C12.6907 97.936 12.6751 98.5237 12.6907 99.1125C12.4782 99.1076 12.2658 99.1076 12.0534 99.1096C12.065 97.7953 12.0641 96.482 12.0534 95.1678Z" fill="white"/>
<path d="M14.8545 95.1639C15.6527 95.1756 16.452 95.1746 17.2502 95.1649C17.2473 95.3434 17.2463 95.5238 17.2463 95.7052C16.9505 95.6974 16.6537 95.6974 16.3569 95.6945C16.3686 96.8332 16.3501 97.9719 16.3676 99.1106C16.1542 99.1077 15.9418 99.1077 15.7303 99.1116C15.7478 97.9729 15.7274 96.8342 15.741 95.6955C15.4462 95.6974 15.1523 95.6974 14.8574 95.7052C14.8574 95.5238 14.8564 95.3434 14.8545 95.1639Z" fill="white"/>
<path d="M17.5713 95.1649C18.128 95.1911 18.6916 95.1241 19.2425 95.2299C20.1668 95.4879 20.2745 96.9651 19.4617 97.4219C19.0747 97.6246 18.6188 97.5393 18.1998 97.5499C18.2027 98.0815 18.2008 98.614 18.2017 99.1465C17.9932 99.1445 17.7866 99.1445 17.579 99.1474C17.5723 97.8196 17.5868 96.4918 17.5713 95.1649ZM18.1988 95.6528C18.2017 96.1222 18.2056 96.5917 18.194 97.0621C18.5092 97.0485 18.8788 97.1338 19.1474 96.9253C19.4006 96.6634 19.3928 96.2173 19.2299 95.9117C19.031 95.5354 18.5422 95.6916 18.1988 95.6528Z" fill="white"/>
<path d="M21.6508 95.1658C22.2076 95.1911 22.773 95.1241 23.323 95.2308C24.2502 95.4898 24.3589 96.9738 23.5364 97.4258C23.1494 97.6236 22.6964 97.5393 22.2784 97.5499C22.2832 98.0815 22.2803 98.6139 22.2803 99.1464C22.0727 99.1445 21.8652 99.1445 21.6586 99.1474C21.6528 97.8196 21.6663 96.4927 21.6508 95.1658ZM22.2784 95.6527C22.2793 96.1202 22.29 96.5887 22.2687 97.0572C22.5616 97.1416 22.8817 97.0824 23.161 96.9748C23.4888 96.7439 23.4811 96.2269 23.3065 95.9049C23.1047 95.5354 22.6198 95.6925 22.2784 95.6527Z" fill="white"/>
<path d="M25.1911 95.1717C25.4394 95.1697 25.6877 95.1707 25.937 95.1707C26.2794 96.4859 26.6256 97.8012 26.9903 99.1106C26.7721 99.1067 26.5548 99.1057 26.3366 99.1057C26.26 98.7789 26.1775 98.4539 26.1038 98.128C25.7042 98.129 25.3056 98.13 24.9059 98.1271C24.8283 98.453 24.7488 98.7789 24.6722 99.1057C24.4675 99.1057 24.2619 99.1077 24.0573 99.1116C24.4481 97.8021 24.8245 96.4879 25.1911 95.1717ZM25.4947 95.7983C25.3259 96.4064 25.1824 97.0213 25.0359 97.6353C25.3473 97.6353 25.6596 97.6353 25.9729 97.6363C25.8138 97.0233 25.6877 96.4016 25.4947 95.7983Z" fill="white"/>
<path d="M30.4821 95.1658C31.0854 95.1901 31.6925 95.1309 32.2929 95.2124C33.001 95.3841 33.1649 96.4956 32.5839 96.9069C32.517 96.9592 32.4491 97.0106 32.3802 97.0611C33.2949 97.3278 33.2522 98.8235 32.3443 99.0611C31.7304 99.161 31.1018 99.0785 30.4821 99.1115C30.4927 97.7963 30.4927 96.4811 30.4821 95.1658ZM31.0999 95.6547C31.1028 96.0465 31.1038 96.4403 31.0989 96.8341C31.4277 96.8089 31.7992 96.8923 32.0902 96.7003C32.3414 96.5102 32.2502 96.1629 32.2522 95.8952C31.9564 95.5713 31.4908 95.6683 31.0999 95.6547ZM31.098 97.3152C31.1038 97.7517 31.1028 98.1881 31.0999 98.6266C31.4287 98.611 31.7779 98.6721 32.0902 98.5509C32.549 98.3123 32.4927 97.5616 32.032 97.3598C31.7265 97.2861 31.4083 97.3181 31.098 97.3152Z" fill="white"/>
<path d="M33.7672 95.1649C33.9748 95.1678 34.1823 95.1688 34.3899 95.1697C34.3792 96.0921 34.3909 97.0145 34.3792 97.9369C34.7333 97.1435 35.2017 96.4103 35.6169 95.6499C35.6906 95.5015 35.6595 95.3278 35.6741 95.1707C35.8885 95.1697 36.1018 95.1697 36.3162 95.1697C36.3104 96.4791 36.3094 97.7895 36.3162 99.0999C36.1222 99.0999 35.9292 99.1203 35.7401 99.161C35.7236 99.1057 35.6906 98.9951 35.6741 98.9399C35.6479 98.0718 35.6789 97.2047 35.7168 96.3375C35.322 97.161 34.8661 97.9534 34.3977 98.7362C34.3928 98.8574 34.3889 98.9787 34.387 99.1028C34.1853 99.0989 33.9845 99.1193 33.7876 99.1552C33.7517 97.8254 33.7915 96.4947 33.7672 95.1649Z" fill="white"/>
<path d="M36.6159 95.1688C37.4219 95.1717 38.2289 95.1717 39.0359 95.1697C39.033 95.3453 39.033 95.5218 39.0339 95.7003C38.7381 95.6974 38.4433 95.6974 38.1484 95.6954C38.1455 96.8332 38.1503 97.9719 38.1455 99.1115C37.9302 99.1077 37.7148 99.1067 37.5005 99.1067C37.5082 97.969 37.5015 96.8322 37.5044 95.6954C37.2085 95.6974 36.9127 95.6974 36.6178 95.7003C36.6178 95.5218 36.6169 95.3453 36.6159 95.1688Z" fill="white"/>
<path d="M39.3414 95.1697C39.5577 95.1697 39.774 95.1697 39.9913 95.1697C39.9913 96.0795 39.9777 96.9893 39.9952 97.8982C40.3366 97.1348 40.7876 96.4287 41.1882 95.6974C41.2949 95.5402 41.2638 95.3472 41.2745 95.1697C41.4782 95.1688 41.6828 95.1678 41.8875 95.1649C41.8759 96.4811 41.8768 97.7973 41.8875 99.1135C41.6809 99.1086 41.4733 99.1067 41.2667 99.1077C41.2735 98.2027 41.2745 97.2978 41.2745 96.3938C40.9302 97.1756 40.4695 97.8972 40.0602 98.645C39.9758 98.7837 39.9952 98.9505 39.9787 99.1067C39.7672 99.1067 39.5558 99.1077 39.3443 99.1106C39.3434 97.7973 39.3492 96.483 39.3414 95.1697Z" fill="white"/>
<path d="M43.3443 95.2279C43.9127 95.1154 44.4976 95.1959 45.0737 95.1668C45.0631 96.4791 45.0621 97.7924 45.0737 99.1047C44.8652 99.1047 44.6576 99.13 44.4491 99.13C44.4336 98.5713 44.4452 98.0126 44.4471 97.4549C44.2308 97.4549 44.0146 97.4539 43.7983 97.4529C43.5868 98 43.3802 98.5499 43.1872 99.1038C42.9525 99.1047 42.7178 99.1067 42.483 99.1115C42.7498 98.5335 42.9767 97.9379 43.2338 97.356C42.9147 97.1435 42.6266 96.8273 42.6246 96.4229C42.5577 95.9224 42.8157 95.3433 43.3443 95.2279ZM43.5296 95.71C43.0931 95.9719 43.1727 96.6266 43.5296 96.9243C43.8361 96.9738 44.1503 97.0698 44.4549 96.9612C44.4355 96.5247 44.4423 96.0892 44.4462 95.6537C44.1406 95.6615 43.8254 95.6246 43.5296 95.71Z" fill="white"/>
<path d="M46.8807 95.1697C47.0912 95.1688 47.3017 95.1678 47.5131 95.1649C47.5102 95.7129 47.4889 96.2619 47.519 96.8099C47.5287 97.0165 47.647 97.1882 47.7847 97.3356C48.1116 97.3618 48.3967 97.2114 48.6363 97.0039C48.6431 96.3918 48.646 95.7808 48.6353 95.1707C48.8429 95.1688 49.0505 95.1678 49.259 95.1649C49.2425 96.4927 49.259 97.8196 49.2503 99.1474C49.0466 99.1455 48.8439 99.1445 48.6412 99.1455C48.645 98.5742 48.6324 98.0039 48.6499 97.4345C48.4452 97.6819 48.1436 97.8652 47.8109 97.8332C47.3647 97.8467 46.9758 97.4733 46.9205 97.0398C46.8487 96.419 46.9089 95.7915 46.8807 95.1697Z" fill="white"/>
<path d="M50.0688 95.1658C50.8244 95.1746 51.581 95.1726 52.3375 95.1668C52.3346 95.3336 52.3317 95.5014 52.3317 95.6712C51.7856 95.6673 51.2395 95.6702 50.6944 95.6692C50.7003 96.0591 50.7003 96.45 50.6944 96.8409C51.1202 96.837 51.5451 96.8419 51.9709 96.8322C51.9689 97.0029 51.9689 97.1746 51.9709 97.3472C51.5451 97.3365 51.1193 97.3424 50.6944 97.3395C50.7003 97.7643 50.6993 98.1911 50.6954 98.6169C51.2434 98.6149 51.7924 98.6149 52.3404 98.6169C52.3569 98.7439 52.3686 98.8729 52.3783 99.0029C52.741 97.7313 53.0805 96.452 53.4151 95.1726C53.6867 95.1697 53.9592 95.1697 54.2318 95.1707C54.5577 96.4869 54.8913 97.8011 55.2454 99.1096C55.0165 99.1067 54.7876 99.1057 54.5596 99.1067C54.3288 98.032 54.0184 96.9748 53.8205 95.8923C53.6974 95.9971 53.6624 96.16 53.6256 96.3104C53.4112 97.2444 53.1581 98.1697 52.9505 99.1067C51.9893 99.1105 51.0291 99.0989 50.0679 99.1125C50.0795 97.7973 50.0795 96.4811 50.0688 95.1658Z" fill="white"/>
<path d="M58.9234 95.1697C59.5364 95.1911 60.1571 95.1242 60.7653 95.2212C61.549 95.4442 61.6023 96.7692 60.807 97.0272C61.1358 97.1882 61.4724 97.4598 61.4714 97.8603C61.55 98.3385 61.3307 98.9079 60.8303 99.0495C60.2822 99.1794 59.7119 99.0514 59.1571 99.1358C59.098 99.1242 58.9787 99.1019 58.9195 99.0902C58.937 97.7837 58.9302 96.4762 58.9234 95.1697ZM59.5296 95.6644C59.5354 96.0534 59.5354 96.4423 59.5286 96.8322C59.871 96.839 60.2173 96.8361 60.5461 96.7304C60.7381 96.4539 60.8429 96.0514 60.5703 95.7895C60.2696 95.5849 59.8739 95.6072 59.5296 95.6644ZM59.5276 97.3211C59.5354 97.7478 59.5402 98.1756 59.5228 98.6033C59.8477 98.7119 60.2047 98.6693 60.5238 98.5568C61.0048 98.3375 60.9408 97.5112 60.4423 97.354C60.1426 97.2852 59.8312 97.3172 59.5276 97.3211Z" fill="white"/>
<path d="M62.1959 95.1658C62.9525 95.1746 63.709 95.1717 64.4665 95.1678C64.4627 95.3346 64.4588 95.5034 64.4588 95.6731C63.9127 95.6663 63.3676 95.6712 62.8215 95.6692C62.8264 96.0591 62.8273 96.4491 62.8215 96.8409C63.2454 96.837 63.6702 96.8419 64.095 96.8322C64.0931 97.0029 64.0931 97.1746 64.095 97.3472C63.6702 97.3365 63.2454 97.3424 62.8215 97.3395C62.8264 97.7653 62.8254 98.192 62.8254 98.6188C63.3773 98.612 63.9282 98.6188 64.4801 98.6139C64.4791 98.7934 64.4782 98.9748 64.4782 99.1571C64.3569 99.1416 64.2357 99.128 64.1154 99.1144C63.4762 99.1794 62.8361 99.062 62.1949 99.1125C62.2066 97.7973 62.2066 96.4811 62.1959 95.1658Z" fill="white"/>
<path d="M64.9476 95.1697C65.1629 95.1697 65.3802 95.1697 65.5965 95.1707C65.5945 95.8089 65.5868 96.4481 65.6023 97.0873C66.0126 96.453 66.4141 95.8118 66.8166 95.1717C67.0426 95.1707 67.2706 95.1688 67.4985 95.1649C67.1338 95.6324 66.8118 96.1309 66.4626 96.6101C66.8564 97.4209 67.2095 98.2531 67.6401 99.0466C68.0145 97.7556 68.3908 96.4656 68.7507 95.1707C68.998 95.1697 69.2463 95.1707 69.4946 95.1707C69.8224 96.4879 70.2133 97.7886 70.5237 99.1106C70.3103 99.1232 70.0979 99.1144 69.8874 99.1018C69.8186 98.775 69.7371 98.451 69.6585 98.128C69.2589 98.13 68.8603 98.13 68.4616 98.128C68.385 98.4539 68.3064 98.7798 68.2298 99.1067C67.8031 99.1067 67.3763 99.1077 66.9505 99.1057C66.7032 98.4588 66.3462 97.8564 66.1406 97.194C65.8797 97.2987 65.7613 97.582 65.6168 97.8041C65.5615 98.2347 65.6062 98.6731 65.5974 99.1077C65.3802 99.1057 65.1629 99.1067 64.9476 99.1086C64.9534 97.7953 64.9534 96.4821 64.9476 95.1697ZM69.0514 95.8041C68.8836 96.4103 68.741 97.0242 68.5926 97.6363C68.9039 97.6353 69.2162 97.6353 69.5286 97.6363C69.3714 97.0242 69.2492 96.4035 69.0514 95.8041Z" fill="white"/>
</svg>
