<svg width="80" height="80" viewBox="0 0 80 80" fill="none" xmlns="http://www.w3.org/2000/svg">
<path d="M27.6928 6.15381H9.23093C6.66648 6.15381 4.48715 7.05134 2.69192 8.8459C0.897531 10.6408 0 12.8201 0 15.3847V33.8459C0 36.4104 0.897026 38.5894 2.69192 40.3839C4.48698 42.1783 6.66699 43.0762 9.23093 43.0762H20.0001C21.2818 43.0762 22.3718 43.5251 23.2693 44.4223C24.1668 45.319 24.6154 46.4093 24.6154 47.692V49.2296C24.6154 52.6272 23.4133 55.5269 21.0096 57.9313C18.6058 60.3344 15.7054 61.5364 12.3075 61.5364H9.23093C8.39705 61.5364 7.67617 61.8417 7.06692 62.4502C6.45818 63.0588 6.15356 63.7802 6.15356 64.6136V70.7681C6.15356 71.6002 6.45818 72.3229 7.06692 72.9316C7.67667 73.54 8.39688 73.8455 9.23093 73.8455H12.3076C15.6413 73.8455 18.8224 73.1955 21.8514 71.8979C24.8803 70.6001 27.5003 68.8448 29.712 66.6331C31.9231 64.4213 33.6781 61.8017 34.9761 58.7727C36.2739 55.7438 36.9231 52.5629 36.9231 49.2297V15.3841C36.9231 12.8195 36.0255 10.6403 34.231 8.84573C32.4364 7.05117 30.2566 6.15381 27.6928 6.15381Z" fill="white" fill-opacity="0.1"/>
<path d="M77.3069 8.8459C75.5125 7.05134 73.333 6.15381 70.7686 6.15381H52.3074C49.743 6.15381 47.5636 7.05134 45.7691 8.8459C43.9747 10.641 43.0775 12.8201 43.0775 15.3847V33.8459C43.0775 36.4104 43.9747 38.5894 45.7691 40.3839C47.5636 42.1783 49.7431 43.0762 52.3074 43.0762H63.0766C64.3582 43.0762 65.4491 43.5251 66.3464 44.4223C67.243 45.3195 67.6926 46.4093 67.6926 47.692V49.2296C67.6926 52.6272 66.4904 55.5269 64.0863 57.9313C61.6827 60.3344 58.7829 61.5364 55.3846 61.5364H52.3074C51.4742 61.5364 50.7527 61.8417 50.1441 62.4502C49.535 63.0588 49.2301 63.7802 49.2301 64.6136V70.7681C49.2301 71.6002 49.535 72.3229 50.1441 72.9316C50.7525 73.54 51.4741 73.8455 52.3074 73.8455H55.3846C58.7178 73.8455 61.8987 73.1955 64.9281 71.8979C67.9564 70.6001 70.5761 68.8448 72.7879 66.6331C74.9996 64.4213 76.7556 61.8011 78.0527 58.7727C79.3504 55.7445 79.9998 52.5629 79.9998 49.2297V15.3841C79.9993 12.8195 79.1027 10.6403 77.3069 8.8459Z" fill="white" fill-opacity="0.1"/>
</svg>
