<svg xmlns="http://www.w3.org/2000/svg" xmlns:xlink="http://www.w3.org/1999/xlink"><symbol id="icon-hamburger" viewBox="0 0 35 23">
<rect width="35" height="3" rx="1.5" fill="white"/>
<rect y="10" width="35" height="3" rx="1.5" fill="white"/>
<rect y="20" width="35" height="3" rx="1.5" fill="white"/>
</symbol><symbol id="icon-s01" viewBox="0 0 25 23">
<path d="M0.441574 11.0537L6.20207 13.2037L8.43174 20.3743C8.57441 20.8336 9.13599 21.0033 9.50874 20.6986L12.7197 18.0809C13.0563 17.8067 13.5357 17.793 13.8875 18.0483L19.679 22.2531C20.0777 22.5429 20.6427 22.3244 20.7427 21.8426L24.9852 1.43499C25.0944 0.908654 24.5772 0.469571 24.0761 0.663404L0.434824 9.78349C-0.148593 10.0085 -0.14351 10.8345 0.441574 11.0537ZM8.07241 12.0592L19.3306 5.12532C19.5329 5.00107 19.7411 5.27465 19.5673 5.43582L10.2761 14.0725C9.94949 14.3765 9.73882 14.7833 9.67916 15.2249L9.36266 17.5704C9.32074 17.8836 8.88082 17.9147 8.79441 17.6116L7.57716 13.3345C7.43774 12.8467 7.64091 12.3256 8.07241 12.0592Z" fill="white" fill-opacity="0.9"/>
</symbol><symbol id="icon-s02" viewBox="0 0 25 25">
<path d="M17.1875 0H7.8125C3.49844 0 0 3.49844 0 7.8125V17.1875C0 21.5016 3.49844 25 7.8125 25H17.1875C21.5016 25 25 21.5016 25 17.1875V7.8125C25 3.49844 21.5016 0 17.1875 0ZM22.6562 17.1875C22.6562 20.2031 20.2031 22.6562 17.1875 22.6562H7.8125C4.79688 22.6562 2.34375 20.2031 2.34375 17.1875V7.8125C2.34375 4.79688 4.79688 2.34375 7.8125 2.34375H17.1875C20.2031 2.34375 22.6562 4.79688 22.6562 7.8125V17.1875Z" fill="white" fill-opacity="0.9"/>
<path d="M12.5 6.25C9.04844 6.25 6.25 9.04844 6.25 12.5C6.25 15.9516 9.04844 18.75 12.5 18.75C15.9516 18.75 18.75 15.9516 18.75 12.5C18.75 9.04844 15.9516 6.25 12.5 6.25ZM12.5 16.4062C10.3469 16.4062 8.59375 14.6531 8.59375 12.5C8.59375 10.3453 10.3469 8.59375 12.5 8.59375C14.6531 8.59375 16.4062 10.3453 16.4062 12.5C16.4062 14.6531 14.6531 16.4062 12.5 16.4062Z" fill="white" fill-opacity="0.9"/>
<path d="M19.2188 6.61386C19.6787 6.61386 20.0516 6.241 20.0516 5.78105C20.0516 5.3211 19.6787 4.94824 19.2188 4.94824C18.7588 4.94824 18.386 5.3211 18.386 5.78105C18.386 6.241 18.7588 6.61386 19.2188 6.61386Z" fill="white" fill-opacity="0.9"/>
</symbol><symbol id="icon-s03" viewBox="0 0 13 25">
<path d="M0.588895 13.315H3.3293V24.5968C3.3293 24.8195 3.50978 25 3.73252 25H8.37897C8.60172 25 8.7822 24.8195 8.7822 24.5968V13.3681H11.9325C12.1374 13.3681 12.3097 13.2144 12.3331 13.011L12.8116 8.85758C12.8247 8.74331 12.7885 8.62887 12.712 8.54315C12.6355 8.45734 12.526 8.40823 12.4111 8.40823H8.78236V5.80468C8.78236 5.01984 9.20494 4.62185 10.0385 4.62185C10.1573 4.62185 12.4111 4.62185 12.4111 4.62185C12.6338 4.62185 12.8143 4.44129 12.8143 4.21863V0.40621C12.8143 0.183468 12.6338 0.00298387 12.4111 0.00298387H9.14131C9.11825 0.00185484 9.06704 0 8.99156 0C8.42422 0 6.4522 0.111371 4.89446 1.54444C3.16849 3.1325 3.40841 5.03395 3.46575 5.36363V8.40814H0.588895C0.366153 8.40814 0.185669 8.58863 0.185669 8.81137V12.9117C0.185669 13.1344 0.366153 13.315 0.588895 13.315Z" fill="white" fill-opacity="0.9"/>
</symbol></svg>