<svg width="128" height="128" viewBox="0 0 128 128" fill="none" xmlns="http://www.w3.org/2000/svg">
<rect width="128" height="128" rx="16" fill="#202020"/>
<g clip-path="url(#clip0_439_221)">
<path d="M64.0193 14C36.2193 14 14.0193 36.4 14.0193 64C14.0193 91.6 36.4193 114 64.0193 114C91.6193 114 114.019 91.6 114.019 64C114.019 36.4 91.6193 14 64.0193 14ZM64.0193 107.8C39.6193 107.8 20.0193 88.2 20.0193 63.8C20.0193 39.4 39.6193 19.8 64.0193 19.8C88.4193 19.8 108.019 39.4 108.019 63.8C107.819 88.2 88.2193 107.8 64.0193 107.8Z" fill="white"/>
<path d="M81.4175 56.9151C79.7765 59.21 78.1521 61.76 76.5444 64.5651C74.9393 67.3703 73.3906 70.2985 71.8983 73.3498C70.4034 76.3985 69.1316 79.2357 68.0829 81.8613C66.6393 85.5023 65.5483 88.1344 64.8098 89.7575C64.0713 91.3831 63.3342 92.6139 62.5983 93.4498C61.8598 94.2857 61.047 94.7036 60.1598 94.7036C58.488 94.7036 56.9303 93.7857 55.4867 91.9498C54.9303 91.2933 54.2572 90.5869 53.4675 89.8305C52.6803 89.0767 52.1483 88.4626 51.8713 87.9882C51.5919 87.5113 51.4521 86.8792 51.4521 86.0921C51.4521 85.3049 51.5752 83.4677 51.8213 80.5805C52.0675 77.6959 52.3047 74.301 52.5329 70.3959C52.7637 66.4933 52.9444 61.36 53.0752 54.9959C51.829 57.619 50.697 60.1613 49.679 62.6228C48.6637 65.051 47.6149 67.7574 46.5329 70.7421C45.4483 73.7267 44.6444 75.9895 44.1213 77.5305C43.5316 79.1716 42.7278 82.0498 41.7098 86.1651C40.6919 90.2831 39.6919 93.2767 38.7098 95.1459C37.7252 97.0818 36.3303 98.0498 34.5252 98.0498C33.7047 98.0498 31.7367 96.8857 28.6213 94.5574C26.0957 92.719 24.8329 90.5703 24.8329 88.1113C24.8329 87.1267 25.3816 85.2895 26.479 82.5998C27.579 79.91 28.7688 77.2203 30.0483 74.5305C31.3278 71.8408 32.3444 69.7241 33.0983 68.1805C35.0675 64.1472 36.856 60.6703 38.4637 57.7498C40.0688 54.7985 42.0367 51.519 44.3675 47.9113C46.6957 44.2703 49.4675 40.1369 52.6829 35.5113V32.4113C52.6829 30.4754 52.9611 29.0485 53.5175 28.1305C54.0765 27.2126 55.2419 26.7536 57.0137 26.7536C57.6034 26.7536 58.1765 26.8677 58.7329 27.0959C59.2919 27.3267 60.1611 27.5562 61.3406 27.7844C63.5713 28.1459 65.2201 28.7613 66.2867 29.6305C67.3534 30.4998 67.8867 32.1972 67.8867 34.7228C67.8867 40.169 67.2136 49.4036 65.8675 62.4267C67.2778 59.6703 69.1726 56.3818 71.5521 52.5613C73.929 48.7382 76.5534 44.8921 79.4252 41.0228C82.2944 37.151 85.0329 33.9767 87.6406 31.4998C90.2483 29.0228 92.4059 27.7844 94.1136 27.7844C94.9316 27.7844 95.6201 27.9818 96.179 28.3767C96.7688 28.769 97.3752 29.4087 97.9983 30.2959C98.6547 31.1805 99.1303 31.8203 99.4252 32.2151C100.048 32.869 100.639 33.4921 101.198 34.0844C101.755 34.6741 102.221 35.3292 102.598 36.0498C102.978 36.7728 103.167 37.5767 103.167 38.4613C103.167 39.3485 102.692 40.9728 101.741 43.3344C100.789 45.6959 99.5342 48.7792 97.9752 52.5844C96.4162 56.3895 94.8995 60.678 93.4252 65.4498C91.9483 70.2241 90.6688 75.4972 89.5867 81.269C89.3559 82.4844 89.0354 85.1344 88.6252 89.219C88.2149 93.301 87.6816 96.3267 87.0252 98.2959C86.3713 100.263 85.2726 101.246 83.729 101.246C83.0726 101.246 82.4329 101.098 81.8098 100.804C81.1867 100.509 80.4649 100.066 79.6444 99.4767C78.8265 98.8869 78.2367 98.4767 77.8752 98.2459C76.9239 97.6562 76.0957 97.1472 75.3906 96.719C74.6854 96.2934 74.1188 95.7036 73.6906 94.9498C73.2649 94.1959 73.0521 93.0639 73.0521 91.5536C73.0521 89.3895 73.5854 86.0844 74.6521 81.6382C75.7188 77.1946 77.9739 68.9536 81.4175 56.9151Z" fill="white"/>
</g>
<defs>
<clipPath id="clip0_439_221">
<rect width="100" height="100" fill="white" transform="translate(14 14)"/>
</clipPath>
</defs>
</svg>
