<svg width="128" height="128" viewBox="0 0 128 128" fill="none" xmlns="http://www.w3.org/2000/svg">
<g clip-path="url(#clip0_282_243)">
<path d="M64.0247 0C28.4407 0 0.0246582 28.672 0.0246582 64C0.0246582 99.328 28.6967 128 64.0247 128C99.3527 128 128.025 99.328 128.025 64C128.025 28.672 99.3527 0 64.0247 0ZM64.0247 120.064C32.7927 120.064 7.70466 94.976 7.70466 63.744C7.70466 32.512 32.7927 7.424 64.0247 7.424C95.2567 7.424 120.345 32.512 120.345 63.744C120.089 94.976 95.0007 120.064 64.0247 120.064Z" fill="#121212"/>
<path d="M86.2944 54.9314C84.1939 57.8688 82.1147 61.1328 80.0568 64.7234C78.0023 68.3139 76.0199 72.062 74.1098 75.9677C72.1963 79.87 70.5684 83.5016 69.2261 86.8625C67.3783 91.523 65.9818 94.892 65.0365 96.9695C64.0913 99.0504 63.1477 100.626 62.2058 101.696C61.2605 102.766 60.2201 103.301 59.0845 103.301C56.9447 103.301 54.9508 102.126 53.103 99.7757C52.3908 98.9355 51.5293 98.0313 50.5184 97.0631C49.5108 96.0982 48.8298 95.3121 48.4753 94.7049C48.1176 94.0945 47.9387 93.2854 47.9387 92.2778C47.9387 91.2703 48.0962 88.9187 48.4113 85.2231C48.7264 81.5308 49.03 77.1853 49.3221 72.1868C49.6175 67.1915 49.8489 60.6208 50.0162 52.4748C48.4212 55.8323 46.9721 59.0865 45.6692 62.2372C44.3695 65.3453 43.0271 68.8095 41.6421 72.6298C40.2538 76.4501 39.2249 79.3466 38.5553 81.3191C37.8004 83.4196 36.7715 87.1037 35.4685 92.3714C34.1656 97.6424 32.8856 101.474 31.6285 103.867C30.3682 106.345 28.5828 107.584 26.2722 107.584C25.222 107.584 22.703 106.094 18.7153 103.114C15.4825 100.76 13.8661 98.0099 13.8661 94.8625C13.8661 93.6021 14.5684 91.2506 15.9732 87.8077C17.3812 84.3648 18.904 80.9219 20.5418 77.4791C22.1795 74.0362 23.4809 71.3269 24.4458 69.3511C26.9664 64.1884 29.2556 59.7379 31.3135 55.9997C33.368 52.222 35.887 48.0243 38.8704 43.4065C41.8505 38.7459 45.3984 33.4553 49.5141 27.5345V23.5665C49.5141 21.0885 49.8702 19.262 50.5824 18.0871C51.2979 16.9121 52.7896 16.3246 55.0575 16.3246C55.8123 16.3246 56.5459 16.4707 57.2581 16.7628C57.9736 17.0581 59.0862 17.3519 60.5959 17.644C63.4513 18.1068 65.5617 18.8945 66.927 20.0071C68.2923 21.1197 68.975 23.2924 68.975 26.5252C68.975 33.4963 68.1135 45.3166 66.3904 61.9861C68.1955 58.4579 70.621 54.2487 73.6667 49.3585C76.7092 44.4649 80.0683 39.5418 83.7442 34.5892C87.4168 29.6333 90.9221 25.5701 94.2599 22.3997C97.5978 19.2292 100.36 17.644 102.545 17.644C103.592 17.644 104.474 17.8967 105.189 18.4021C105.944 18.9043 106.72 19.7232 107.518 20.8588C108.358 21.9911 108.967 22.8099 109.344 23.3154C110.142 24.1523 110.898 24.9498 111.614 25.708C112.326 26.4629 112.923 27.3014 113.406 28.2237C113.892 29.1492 114.134 30.1781 114.134 31.3105C114.134 32.446 113.526 34.5252 112.308 37.548C111.09 40.5708 109.484 44.5174 107.488 49.388C105.493 54.2586 103.551 59.7478 101.664 65.8557C99.7738 71.9669 98.136 78.7164 96.751 86.1043C96.4556 87.66 96.0454 91.052 95.5202 96.2803C94.9951 101.505 94.3124 105.378 93.4722 107.899C92.6353 110.416 91.229 111.675 89.2532 111.675C88.413 111.675 87.5941 111.486 86.7965 111.109C85.999 110.731 85.0751 110.165 84.0249 109.41C82.9779 108.655 82.223 108.13 81.7602 107.835C80.5426 107.08 79.4825 106.428 78.5799 105.88C77.6774 105.335 76.952 104.581 76.4039 103.616C75.8591 102.651 75.5867 101.202 75.5867 99.2686C75.5867 96.4986 76.2694 92.268 77.6347 86.5769C79 80.8891 81.8866 70.3406 86.2944 54.9314Z" fill="#121212"/>
</g>
<defs>
<clipPath id="clip0_282_243">
<rect width="128" height="128" fill="white"/>
</clipPath>
</defs>
</svg>
