<svg width="60" height="60" fill="none" xmlns="http://www.w3.org/2000/svg"><path d="M39.787 30.9a13.35 13.35 0 0 1-1.387.096c2.361-2.006 6.237-6.606 5.774-14.948a.822.822 0 0 0-.459-.696.795.795 0 0 0-.82.076c-.008.005-.51.372-1.222.836-.204-2.697-1.01-8.44-4.212-10.168a.793.793 0 0 0-.61-.062c-.261.08-6.155 1.967-8.564 11.237-.368-.45-.735-1.065-.856-1.818a.817.817 0 0 0-.567-.655.799.799 0 0 0-.827.234c-.154.172-3.464 3.958-2.708 10.528-.611-.49-1.188-1.11-1.314-1.753a.816.816 0 0 0-.55-.622.8.8 0 0 0-.802.19c-.221.217-5.41 5.379-3.42 12.195 1.255 4.3 2.473 7.795 2.815 8.76-1.368 3.72-1.802 6.42-1.802 6.862a.804.804 0 0 0 .807.808c.426 0 .781-.349.808-.783.002-.037.327-2.565 1.686-6.285 1.324-.579 6.464-2.805 9.376-3.731 7.715-2.453 9.65-8.98 9.728-9.256a.833.833 0 0 0-.161-.761.805.805 0 0 0-.713-.283Zm-9.336 8.732c-2.317.738-5.883 2.221-8.034 3.142a43.613 43.613 0 0 1 3.272-6.209c6.712-10.565 8.74-15.11 9.839-19.017a.824.824 0 0 0-.555-1.016.807.807 0 0 0-.999.564c-1.057 3.763-3.038 8.184-9.642 18.578a45.325 45.325 0 0 0-3.355 6.359 174.99 174.99 0 0 1-2.185-6.93c-1.263-4.327.959-8.002 2.216-9.636.99 1.47 2.819 2.382 3.076 2.505a.796.796 0 0 0 .849-.102.83.83 0 0 0 .283-.82c-1.03-4.701.242-8.02 1.183-9.687.735 1.365 1.86 2.107 1.925 2.148.224.145.502.17.747.064a.817.817 0 0 0 .476-.589c1.704-8.272 6.199-10.724 7.45-11.256 2.492 1.755 3.105 7.725 3.128 9.96.003.291.157.56.406.704a.796.796 0 0 0 .803.001 28.7 28.7 0 0 0 1.261-.78c-.099 9.458-6.402 13.011-6.682 13.164a.824.824 0 0 0-.43.698.825.825 0 0 0 .383.726c.65.41 1.823.47 2.787.435-.868 1.84-3.135 5.383-8.202 6.994Z" fill="#D7BCA3"/></svg>