<svg width="60" height="60" fill="none" xmlns="http://www.w3.org/2000/svg"><path d="M22.17 21.424a4.5 4.5 0 0 0 .004.479 7.052 7.052 0 0 0 3.702 6.166 13.176 13.176 0 0 1-2.606 2.566.782.782 0 0 0 .359 1.401c.272.034.545.05.82.047a7.93 7.93 0 0 0 3.709-.9 18.314 18.314 0 0 1-1.24 6.065 18.443 18.443 0 0 0-.878 7.412 3.726 3.726 0 0 1-1.542-.548 8.609 8.609 0 0 0-8.585-8.155h-1.565a.783.783 0 0 0-.783.783v3.13a5.485 5.485 0 0 0 5.479 5.478h4.473c.787.534 1.706.84 2.655.884.275 2.44.784 4.847 1.52 7.19a.783.783 0 0 0 .743.535h3.13a.781.781 0 0 0 .743-1.03c-.768-2.465-1.293-5-1.565-7.569.062-.713.446-1.965 2.152-3.188a.76.76 0 0 0 .235.048h4.696a5.485 5.485 0 0 0 5.478-5.478v-3.13a.783.783 0 0 0-.782-.783h-1.565a8.619 8.619 0 0 0-8.569 7.803c-.636.4-1.218.882-1.732 1.431.023-.44.058-.875.119-1.299.222-1.416.524-2.819.907-4.2.534-1.755.835-3.572.894-5.405a7.91 7.91 0 0 0 3.756.924c.276.003.55-.013.824-.046a.783.783 0 0 0 .357-1.4 11.56 11.56 0 0 1-3.365-3.735 6.943 6.943 0 0 0 2.113-4.974l.782-10.957a.78.78 0 0 0-.95-.82c-.411.092-.808.189-1.195.287-1.507-2.035-5.005-3.253-5.43-3.396a.775.775 0 0 0-.44-.016 21.074 21.074 0 0 0-6.26 3.063 17.918 17.918 0 0 0-2.243.048.782.782 0 0 0-.47 1.33c1.635 1.64 2.069 7.37 2.114 9.959Zm-3.127 22.36a3.918 3.918 0 0 1-3.912-3.914v-1.293a76.302 76.302 0 0 0 6.156 5.206h-2.243Zm-2.724-6.242a7.048 7.048 0 0 1 6.436 5.38 73.47 73.47 0 0 1-6.436-5.38Zm25.42-1.925v1.123a3.918 3.918 0 0 1-3.913 3.913h-1.884a40.576 40.576 0 0 0 5.797-5.036Zm-1.01-1.214a36.893 36.893 0 0 1-6.671 5.61 7.052 7.052 0 0 1 6.67-5.61Zm-14.74-4.065c.507-.52.968-1.081 1.38-1.679a6.99 6.99 0 0 0 1.242.224c-.078.083-.151.178-.235.254a5.35 5.35 0 0 1-2.386 1.2Zm4.177 5.834a38.997 38.997 0 0 0-.94 4.37 21.39 21.39 0 0 0-.05 4.918c-.014.289.009.578.067.861l.024-.006a40.668 40.668 0 0 0 1.242 6.077h-1.496c-.6-2.046-2.539-9.5-.626-14.594a19.005 19.005 0 0 0 1.314-7.768c.254-.255.485-.531.693-.825.16.219.333.428.519.626.312 2.213-.177 4.131-.747 6.34Zm4.631-5.832a5.297 5.297 0 0 1-2.582-1.386c-.16-.164-.31-.34-.446-.525a7.04 7.04 0 0 0 1.127-.56 12.245 12.245 0 0 0 1.901 2.47Zm.608-18.42-.71 9.95a5.484 5.484 0 0 1-4.966 5.453l-.038-.02-.01.022a5.403 5.403 0 0 1-.464.023 5.484 5.484 0 0 1-5.478-5.478v-.41c.064-1.4 1.025-6.858 11.666-9.54Zm-6.22-3.32a12.719 12.719 0 0 1 4.055 2.306 27.85 27.85 0 0 0-2.871 1.053 16.042 16.042 0 0 0-5.073-1.63 16.986 16.986 0 0 1 3.89-1.729Zm-.61 4.237a13.347 13.347 0 0 0-5.1 4.572 18.423 18.423 0 0 0-1.43-5.768 17.675 17.675 0 0 1 6.53 1.196Z" fill="#D7BCA3" stroke="#fff" stroke-width=".3"/><path d="M39.391 21.87a3.13 3.13 0 0 1 3.13 3.13.782.782 0 1 0 1.566 0 3.13 3.13 0 0 1 3.13-3.13.782.782 0 1 0 0-1.565 3.13 3.13 0 0 1-3.13-3.13.782.782 0 1 0-1.565 0 3.13 3.13 0 0 1-3.13 3.13.782.782 0 1 0 0 1.565Zm3.913-2.105a4.73 4.73 0 0 0 1.323 1.322 4.73 4.73 0 0 0-1.323 1.323 4.73 4.73 0 0 0-1.322-1.323 4.73 4.73 0 0 0 1.322-1.322Zm-30.521 9.149a3.13 3.13 0 0 1 3.13 3.13.782.782 0 1 0 1.565 0 3.13 3.13 0 0 1 3.13-3.13.782.782 0 1 0 0-1.565 3.13 3.13 0 0 1-3.13-3.13.782.782 0 1 0-1.565 0 3.13 3.13 0 0 1-3.13 3.13.782.782 0 1 0 0 1.565Zm3.913-2.105c.348.524.798.974 1.322 1.322a4.728 4.728 0 0 0-1.322 1.323 4.73 4.73 0 0 0-1.323-1.323 4.73 4.73 0 0 0 1.323-1.322Z" fill="#D7BCA3" stroke="#fff" stroke-width=".3"/></svg>