<svg width="159" height="48" fill="none" xmlns="http://www.w3.org/2000/svg"><path d="m12.268 28.416 6.626-17.82 6.625 17.82H12.27ZM19.113 7.16 8.229 36.435h1.06l2.61-7.022h13.99l2.61 7.022h4.404L22.018 7.159h-2.905Zm32.068 22.253L39.952 7.159h-3.883v29.276h.993V10.592L49.426 35.1l12.361-24.503v25.838h4.128V7.159H62.41L51.181 29.413Zm56.996-6.803V8.152h3.353c4.05 0 7.334 3.178 7.334 7.1 0 3.716-2.959 6.802-6.786 7.081l-3.901.279Zm38.19 13.825h4.404L139.886 7.159h-2.905l-7.371 19.822a6.811 6.811 0 0 1 1.239-.457 7.569 7.569 0 0 1 1.956-.256c3.392 0 6.151 2.167 6.151 4.832s-2.759 4.837-6.151 4.837c-3.803 0-6.597-3.022-8.995-5.61-1.084-1.17-2.204-2.377-3.503-3.419-2.054-1.646-4.467-2.839-7.025-3.52l2.207-.165c4.231-.315 7.503-3.812 7.503-8.022 0-4.444-3.631-8.042-8.109-8.042h-10.834v29.276h4.128V23.767l.528-.04c3.978.09 7.905 1.494 10.981 3.958 1.241.997 2.336 2.176 3.395 3.319.807.869 1.64 1.77 2.549 2.601 1.831 1.678 4.043 3.036 6.563 3.269 2.262.215 4.686-.549 6.268-2.218.911-.96 1.489-2.217 1.489-3.556 0-3.21-3.206-5.824-7.145-5.824-.531 0-1.046.05-1.544.137l5.501-14.816 9.605 25.838Zm-56.649-.668c3.44-2.57 5.803-7.858 5.803-13.961 0-2.656-.447-5.157-1.234-7.347 3.238 2.282 5.31 5.715 5.31 9.564 0 5.44-4.14 10.07-9.88 11.744Zm-4.732.672c-3.538 0-6.407-6.55-6.407-14.633 0-3.62.576-6.93 1.528-9.486a16.847 16.847 0 0 1 4.879-.718c1.711 0 3.352.256 4.879.718.952 2.556 1.528 5.865 1.528 9.486 0 8.082-2.868 14.633-6.407 14.633Zm-14.61-12.416c0-3.85 2.071-7.296 5.313-9.573-.789 2.19-1.238 4.695-1.238 7.356 0 6.103 2.363 11.392 5.804 13.961-5.74-1.673-9.879-6.304-9.879-11.744Zm14.61-16.86c1.703 0 3.25 1.523 4.397 4a17.952 17.952 0 0 0-4.397-.557c-1.526 0-2.998.192-4.392.544 1.148-2.469 2.692-3.986 4.392-3.986Zm8.634 5.687c-1.904-4.036-5.06-6.678-8.634-6.678-3.574 0-6.73 2.642-8.635 6.683-4.199 2.4-6.97 6.505-6.97 11.168 0 7.406 6.987 13.412 15.605 13.412s15.605-6.006 15.605-13.412c0-4.663-2.77-8.768-6.971-11.173ZM82.827 41.22a3.053 3.053 0 0 0 4.319 0l-2.16-2.162-2.16 2.162Z" fill="#645140"/></svg>