<svg width="15" height="15" fill="none" xmlns="http://www.w3.org/2000/svg"><g opacity=".6"><mask id="a" style="mask-type:alpha" maskUnits="userSpaceOnUse" x="0" y="0" width="15" height="15"><rect x=".688" y=".223" width="14.049" height="14.049" rx="7.025" fill="#D9D9D9"/></mask><g mask="url(#a)"><path d="M7.719 12.705c-.137 0-.274-.024-.41-.073a1.077 1.077 0 0 1-.366-.22A22.884 22.884 0 0 1 5.26 10.7a12.69 12.69 0 0 1-1.222-1.617 7.7 7.7 0 0 1-.746-1.507 4.148 4.148 0 0 1-.256-1.383c0-1.463.47-2.63 1.412-3.498.941-.868 2.032-1.302 3.27-1.302 1.24 0 2.33.434 3.271 1.302.942.869 1.413 2.035 1.413 3.498 0 .439-.086.9-.256 1.383-.171.483-.42.985-.747 1.507a12.68 12.68 0 0 1-1.222 1.617 22.873 22.873 0 0 1-1.683 1.713c-.107.097-.229.17-.366.22a1.213 1.213 0 0 1-.41.072Zm0-5.458c.322 0 .597-.115.826-.344.23-.23.344-.505.344-.827 0-.322-.114-.598-.344-.827a1.127 1.127 0 0 0-.826-.344c-.322 0-.598.115-.827.344-.23.23-.344.505-.344.827 0 .322.114.598.344.827.229.23.505.344.827.344Z" fill="#645140"/></g></g></svg>