<svg width="144" height="144" viewBox="0 0 144 144" fill="none" xmlns="http://www.w3.org/2000/svg">
<path d="M102.225 113.883C94.3406 119.423 85.0597 122.64 75.4376 123.168C65.8155 123.696 56.2383 121.514 47.7949 116.87C39.3514 112.225 32.3804 105.305 27.6744 96.8957C22.9684 88.4864 20.7162 78.9254 21.1739 69.2997C21.6316 59.674 24.7808 50.3699 30.2635 42.445C35.7462 34.5202 43.3424 28.2926 52.1884 24.4702C61.0345 20.6479 70.7755 19.3842 80.3041 20.8228C89.8326 22.2615 98.7664 26.3447 106.09 32.6082L85.0336 57.2269C82.3169 54.9033 79.0027 53.3885 75.4679 52.8549C71.9331 52.3212 68.3195 52.79 65.0379 54.2079C61.7562 55.6259 58.9383 57.9361 56.9044 60.876C54.8704 63.8159 53.7022 67.2675 53.5324 70.8383C53.3626 74.4092 54.1981 77.956 55.9439 81.0756C57.6897 84.1952 60.2757 86.7624 63.408 88.4854C66.5402 90.2083 70.0931 91.0179 73.6626 90.822C77.2321 90.6261 80.675 89.4327 83.6 87.3774L102.225 113.883Z" fill="#DA5454"/>
</svg>
