<svg width="79" height="137" viewBox="0 0 79 137" fill="none" xmlns="http://www.w3.org/2000/svg">
<circle cx="6.00219" cy="17.0863" r="3.20043" transform="rotate(24.1812 6.00219 17.0863)" fill="#C4C4C4"/>
<circle cx="19.6272" cy="23.2041" r="3.20043" transform="rotate(24.1812 19.6272 23.2041)" fill="#C4C4C4"/>
<circle cx="33.2519" cy="29.322" r="3.20043" transform="rotate(24.1812 33.2519 29.322)" fill="#C4C4C4"/>
<circle cx="46.8767" cy="35.4398" r="3.20043" transform="rotate(24.1812 46.8767 35.4398)" fill="#C4C4C4"/>
<circle cx="60.5017" cy="41.5577" r="3.20043" transform="rotate(24.1812 60.5017 41.5577)" fill="#C4C4C4"/>
<circle cx="74.1265" cy="47.6755" r="3.20043" transform="rotate(24.1812 74.1265 47.6755)" fill="#C4C4C4"/>
<circle cx="0.583489" cy="29.1538" r="3.20043" transform="rotate(24.1812 0.583489 29.1538)" fill="#C4C4C4"/>
<circle cx="14.2085" cy="35.2717" r="3.20043" transform="rotate(24.1812 14.2085 35.2717)" fill="#C4C4C4"/>
<circle cx="27.8332" cy="41.3896" r="3.20043" transform="rotate(24.1812 27.8332 41.3896)" fill="#C4C4C4"/>
<circle cx="41.4582" cy="47.5074" r="3.20043" transform="rotate(24.1812 41.4582 47.5074)" fill="#C4C4C4"/>
<circle cx="55.083" cy="53.6252" r="3.20043" transform="rotate(24.1812 55.083 53.6252)" fill="#C4C4C4"/>
<circle cx="68.7078" cy="59.7431" r="3.20043" transform="rotate(24.1812 68.7078 59.7431)" fill="#C4C4C4"/>
<circle cx="8.78979" cy="47.3395" r="3.20043" transform="rotate(24.1812 8.78979 47.3395)" fill="#C4C4C4"/>
<circle cx="22.4145" cy="53.4574" r="3.20043" transform="rotate(24.1812 22.4145 53.4574)" fill="#C4C4C4"/>
<circle cx="36.0395" cy="59.5752" r="3.20043" transform="rotate(24.1812 36.0395 59.5752)" fill="#C4C4C4"/>
<circle cx="49.6643" cy="65.693" r="3.20043" transform="rotate(24.1812 49.6643 65.693)" fill="#C4C4C4"/>
<circle cx="63.2891" cy="71.8109" r="3.20043" transform="rotate(24.1812 63.2891 71.8109)" fill="#C4C4C4"/>
<circle cx="3.37109" cy="59.4071" r="3.20043" transform="rotate(24.1812 3.37109 59.4071)" fill="#C4C4C4"/>
<circle cx="16.9961" cy="65.525" r="3.20043" transform="rotate(24.1812 16.9961 65.525)" fill="#C4C4C4"/>
<circle cx="30.6208" cy="71.6429" r="3.20043" transform="rotate(24.1812 30.6208 71.6429)" fill="#C4C4C4"/>
<circle cx="44.2458" cy="77.7607" r="3.20043" transform="rotate(24.1812 44.2458 77.7607)" fill="#C4C4C4"/>
<circle cx="57.8706" cy="83.8785" r="3.20043" transform="rotate(24.1812 57.8706 83.8785)" fill="#C4C4C4"/>
<circle cx="-2.04761" cy="71.4748" r="3.20043" transform="rotate(24.1812 -2.04761 71.4748)" fill="#C4C4C4"/>
<circle cx="11.5774" cy="77.5928" r="3.20043" transform="rotate(24.1812 11.5774 77.5928)" fill="#C4C4C4"/>
<circle cx="25.2021" cy="83.7106" r="3.20043" transform="rotate(24.1812 25.2021 83.7106)" fill="#C4C4C4"/>
<circle cx="38.8271" cy="89.8285" r="3.20043" transform="rotate(24.1812 38.8271 89.8285)" fill="#C4C4C4"/>
<circle cx="52.4519" cy="95.9463" r="3.20043" transform="rotate(24.1812 52.4519 95.9463)" fill="#C4C4C4"/>
<circle cx="6.15868" cy="89.6604" r="3.20043" transform="rotate(24.1812 6.15868 89.6604)" fill="#C4C4C4"/>
<circle cx="19.7834" cy="95.7782" r="3.20043" transform="rotate(24.1812 19.7834 95.7782)" fill="#C4C4C4"/>
<circle cx="33.4084" cy="101.896" r="3.20043" transform="rotate(24.1812 33.4084 101.896)" fill="#C4C4C4"/>
<circle cx="47.0332" cy="108.014" r="3.20043" transform="rotate(24.1812 47.0332 108.014)" fill="#C4C4C4"/>
<circle cx="0.739983" cy="101.728" r="3.20043" transform="rotate(24.1812 0.739983 101.728)" fill="#C4C4C4"/>
<circle cx="14.3647" cy="107.846" r="3.20043" transform="rotate(24.1812 14.3647 107.846)" fill="#C4C4C4"/>
<circle cx="27.9897" cy="113.964" r="3.20043" transform="rotate(24.1812 27.9897 113.964)" fill="#C4C4C4"/>
<circle cx="41.6145" cy="120.082" r="3.20043" transform="rotate(24.1812 41.6145 120.082)" fill="#C4C4C4"/>
<circle cx="8.94604" cy="119.914" r="3.20043" transform="rotate(24.1812 8.94604 119.914)" fill="#C4C4C4"/>
<circle cx="22.571" cy="126.031" r="3.20043" transform="rotate(24.1812 22.571 126.031)" fill="#C4C4C4"/>
<circle cx="36.1958" cy="132.149" r="3.20043" transform="rotate(24.1812 36.1958 132.149)" fill="#C4C4C4"/>
</svg>
