<svg width="72" height="69" viewBox="0 0 72 69" fill="none" xmlns="http://www.w3.org/2000/svg">
<path d="M38.2431 30.0545C38.7026 32.767 36.7693 35.3238 33.9263 35.7651C31.0833 36.2021 28.404 34.3591 27.9446 31.6422C27.4852 28.9296 29.4139 26.3728 32.2569 25.9315C35.0999 25.4946 37.7792 27.3376 38.2431 30.0545Z" stroke="#DA5454" stroke-width="3" stroke-miterlimit="10" stroke-linejoin="round"/>
<path d="M16.6366 13.9885C16.9501 15.8278 15.6387 17.5622 13.7091 17.8604C11.7752 18.1585 9.95611 16.9071 9.64262 15.0677C9.32913 13.2242 10.6449 11.4898 12.5744 11.1916C14.5039 10.8935 16.3231 12.1449 16.6366 13.9885V13.9885Z" stroke="#DA5454" stroke-width="3" stroke-miterlimit="10" stroke-linejoin="round"/>
<path d="M29.5827 54.4982C29.8974 56.3407 28.5849 58.0764 26.6567 58.3713C24.7239 58.6706 22.9035 57.418 22.5933 55.5798C22.2832 53.7372 23.5912 52.0016 25.524 51.7024C27.4567 51.4031 29.2726 52.6557 29.5827 54.4982Z" stroke="#DA5454" stroke-width="3" stroke-miterlimit="10" stroke-linejoin="round"/>
<path d="M59.734 28.6102C60.0476 30.4529 58.7373 32.1887 56.8045 32.4869C54.8718 32.7851 53.0561 31.5345 52.7425 29.6918C52.429 27.8491 53.744 26.1133 55.672 25.8151C57.6001 25.5169 59.4205 26.7676 59.734 28.6102Z" stroke="#DA5454" stroke-width="3" stroke-miterlimit="10" stroke-linejoin="round"/>
<path d="M49.4056 55.5773C49.681 55.7737 40.5694 43.7596 39.3443 42.1565C37.559 39.7721 41.6804 36.8187 43.5369 39.2934L50.7541 48.9981L48.8216 46.3879C48.8216 46.3879 49.6573 43.0596 53.3181 44.3151L55.507 47.2346C55.507 47.2346 54.3105 45.6785 53.9781 45.1885C53.5935 44.6177 55.6067 41.0275 58.4129 43.2358L59.956 45.2639C59.956 45.2639 59.1251 44.148 58.9589 43.9222C58.6075 43.2629 60.0795 40.0656 62.8097 41.5017C62.8097 41.5017 68.2748 47.6708 69.5805 51.0244C71.1949 55.1654 70.9527 60.967 65.9482 64.5946C62.5058 67.0888 60.5685 67.0761 58.1137 66.6657C55.6589 66.2547 41.538 58.5501 39.9758 58.1952C38.4137 57.8407 39.0547 55.3854 41.0489 54.904C43.0526 54.4226 47.796 54.447 49.4056 55.5773V55.5773Z" stroke="#DA5454" stroke-width="3" stroke-miterlimit="10" stroke-linecap="round" stroke-linejoin="round"/>
<path d="M35.908 11.4525L33.8098 25.9169" stroke="#DA5454" stroke-width="3" stroke-miterlimit="10" stroke-linejoin="round"/>
<path d="M29.2841 27.4507L15.856 16.6997" stroke="#DA5454" stroke-width="3" stroke-miterlimit="10" stroke-linejoin="round"/>
<path d="M52.7117 29.4204L38.2883 30.444" stroke="#DA5454" stroke-width="3" stroke-miterlimit="10" stroke-linejoin="round"/>
<path d="M31.6981 35.6488L27.03 51.7834" stroke="#DA5454" stroke-width="3" stroke-miterlimit="10" stroke-linejoin="round"/>
<path d="M28.0659 32.1715L12.6335 36.2354" stroke="#DA5454" stroke-width="3" stroke-miterlimit="10" stroke-linejoin="round"/>
<path d="M47.4274 7.49825C47.7359 9.34182 46.4237 11.0759 44.4945 11.3737C42.5653 11.6715 40.7467 10.4191 40.4336 8.57987C40.1205 6.7363 41.4327 5.00221 43.3619 4.70443C45.2911 4.40666 47.1143 5.65467 47.4274 7.49825V7.49825Z" stroke="#DA5454" stroke-width="3" stroke-miterlimit="10" stroke-linejoin="round"/>
<path d="M34.0329 4.84044C34.3449 6.68124 33.0335 8.41455 31.1026 8.71561C29.1716 9.01238 27.3538 7.7608 27.0372 5.92C26.7252 4.07919 28.0411 2.34159 29.9675 2.04482C31.8985 1.74376 33.7163 2.99533 34.0329 4.84044Z" stroke="#DA5454" stroke-width="3" stroke-miterlimit="10" stroke-linejoin="round"/>
<path d="M35.9077 11.4525L32.8171 7.96045" stroke="#DA5454" stroke-width="3" stroke-miterlimit="10" stroke-linejoin="round"/>
<path d="M40.6507 9.31665L35.9075 11.4519" stroke="#DA5454" stroke-width="3" stroke-miterlimit="10" stroke-linejoin="round"/>
<path d="M3.315 28.6555C4.83569 27.4793 7.06426 27.7037 8.29217 29.1542C9.52446 30.6088 9.28849 32.7325 7.7678 33.9087C6.24711 35.0807 4.01851 34.8563 2.78623 33.4058C1.55832 31.9554 1.79431 29.8275 3.315 28.6555Z" stroke="#DA5454" stroke-width="3" stroke-miterlimit="10" stroke-linejoin="round"/>
<path d="M7.5455 41.0638C9.06643 39.8932 11.2951 40.1148 12.5259 41.5655C13.7567 43.0162 13.5193 45.1442 11.9984 46.319C10.4775 47.4896 8.24882 47.268 7.01801 45.8173C5.7872 44.3666 6.02457 42.2386 7.5455 41.0638Z" stroke="#DA5454" stroke-width="3" stroke-miterlimit="10" stroke-linejoin="round"/>
<path d="M12.6324 36.2299L10.991 40.5178" stroke="#DA5454" stroke-width="3" stroke-miterlimit="10" stroke-linejoin="round"/>
<path d="M8.33594 33.3582L12.6327 36.2307" stroke="#DA5454" stroke-width="3" stroke-miterlimit="10" stroke-linejoin="round"/>
</svg>
