<svg width="320" height="592" viewBox="0 0 320 592" fill="none" xmlns="http://www.w3.org/2000/svg">
<path d="M439.86 150.253C422.75 92.1156 372.122 50.2065 317.004 20.871C275.923 -0.993164 233.12 3.78968 198.322 25.6287C163.398 47.5473 136.566 86.6864 128.343 133.251L120.78 176.073C111.479 228.742 69.3482 269.449 16.3903 276.935C-45.3052 285.656 -87.2457 342.976 -68.7103 401.14C-52.4358 452.21 -28.701 505.861 3.51105 533.964C49.8247 574.37 98.0626 589.216 146.865 585.43C195.897 581.626 246.094 558.962 295.909 523.202C410.935 440.63 484.278 301.181 439.86 150.253Z" stroke="#F3F3F3" stroke-width="12"/>
</svg>
