<svg width="1440" height="1247" viewBox="0 0 1440 1247" fill="none" xmlns="http://www.w3.org/2000/svg">
<path d="M298.65 177.351C308.947 69.0406 378.128 -26.3226 481.518 -60.1988C781.03 -158.335 1404.09 -312.444 1656.27 -0.0461273C1936.7 347.357 1759 832 1501 848C1404.27 853.999 1323.01 793.371 1259.2 715.233C1131.97 559.416 946.928 433.629 749.179 470.528L640.068 490.888C561.146 505.614 479.652 486.93 415.029 439.292C333.118 378.912 289.019 278.654 298.65 177.351Z" fill="#FF6363"/>
<path d="M-433 -1.71661e-05C-433 -1.71661e-05 797 -42 811 -1.33514e-05C825 42 819 146 707 198C667.908 216.15 617.852 226.503 569.247 232.291C460.526 245.237 355.267 293.421 293.648 383.924C274.675 411.789 251.437 436.748 221.98 453.14C152.78 491.648 10.3421 550.11 -129 480C-285.984 401.013 -433 -1.71661e-05 -433 -1.71661e-05Z" fill="#FFC8C8" fill-opacity="0.5"/>
<path d="M960.859 78.1359C1005.87 27.796 1066.48 -6.18515 1133.59 -13.733C1254.09 -27.2867 1454.05 -40.267 1589.08 0.412655C2144.59 167.768 2169.22 1143.14 1589.08 1239.65C1559.3 1244.6 1526.54 1246.78 1492.63 1246.98C1280.17 1248.25 1141.83 1042.28 1163.46 830.917C1172.08 746.729 1142.66 663.089 1083.24 602.832L970.893 488.91C859.646 376.099 855.253 196.244 960.859 78.1359Z" fill="#FFC8C8" fill-opacity="0.5"/>
<path d="M-196.538 358.671C-187.147 289.548 -128.122 238 -58.3644 238H-7.60657C56.4052 238 103.677 297.7 89.0014 360.006C80.8492 394.618 90.7242 431.006 115.255 456.748L174.627 519.049C240.611 588.29 256.57 691.264 214.64 777.229C167.336 874.214 58.7065 924.973 -46.036 899.034L-54.2028 897.011C-172.791 867.643 -250.2 753.641 -233.753 632.582L-196.538 358.671Z" stroke="#959595" stroke-width="6"/>
<path d="M1450.09 -154.232C1385.98 -188.892 1306.13 -171.148 1262.73 -112.593L1225.26 -62.0339C1187.61 -11.2418 1207.66 61.4033 1266.02 85.7011C1299.54 99.6531 1323.27 130.177 1328.52 166.098L1340.6 248.628C1355.09 347.693 1432.02 425.992 1530.82 442.232C1635 459.357 1737.45 403.334 1779.26 306.384L1786.41 289.804C1838.31 169.432 1789.69 29.3507 1674.38 -32.9867L1450.09 -154.232Z" stroke="#F3F3F3" stroke-width="6"/>
</svg>
