<svg width="146" height="93" viewBox="0 0 146 93" fill="none" xmlns="http://www.w3.org/2000/svg">
<mask id="mask0" mask-type="alpha" maskUnits="userSpaceOnUse" x="1" y="16" width="140" height="57">
<path d="M19.8 72.75C16.3 72.75 12.85 72.375 9.45 71.625C6.05 70.875 3.3 69.9 1.2 68.7L5.85 57.525C7.75 58.675 10 59.575 12.6 60.225C15.2 60.875 17.725 61.2 20.175 61.2C22.125 61.2 23.475 61.05 24.225 60.75C25.025 60.4 25.425 59.9 25.425 59.25C25.425 58.6 24.925 58.15 23.925 57.9C22.975 57.65 21.4 57.4 19.2 57.15C15.85 56.75 13 56.25 10.65 55.65C8.3 55 6.225 53.775 4.425 51.975C2.675 50.175 1.8 47.6 1.8 44.25C1.8 41.6 2.6 39.225 4.2 37.125C5.8 35.025 8.175 33.35 11.325 32.1C14.525 30.85 18.35 30.225 22.8 30.225C25.9 30.225 28.925 30.525 31.875 31.125C34.875 31.675 37.425 32.5 39.525 33.6L34.875 44.775C31.275 42.775 27.325 41.775 23.025 41.775C19.325 41.775 17.475 42.425 17.475 43.725C17.475 44.375 17.975 44.85 18.975 45.15C19.975 45.4 21.55 45.65 23.7 45.9C27.05 46.3 29.875 46.825 32.175 47.475C34.525 48.125 36.575 49.35 38.325 51.15C40.125 52.95 41.025 55.525 41.025 58.875C41.025 61.425 40.225 63.75 38.625 65.85C37.025 67.95 34.625 69.625 31.425 70.875C28.225 72.125 24.35 72.75 19.8 72.75ZM89.8072 51.45C89.8072 51.7 89.7322 53.025 89.5822 55.425H61.0822C61.6822 56.975 62.6822 58.175 64.0822 59.025C65.4822 59.825 67.2322 60.225 69.3322 60.225C71.1322 60.225 72.6322 60 73.8322 59.55C75.0822 59.1 76.4322 58.325 77.8822 57.225L86.7322 66.15C82.7322 70.55 76.7572 72.75 68.8072 72.75C63.8572 72.75 59.5072 71.85 55.7572 70.05C52.0072 68.2 49.1072 65.65 47.0572 62.4C45.0072 59.15 43.9822 55.5 43.9822 51.45C43.9822 47.35 44.9822 43.7 46.9822 40.5C49.0322 37.25 51.8072 34.725 55.3072 32.925C58.8572 31.125 62.8322 30.225 67.2322 30.225C71.3822 30.225 75.1572 31.05 78.5572 32.7C82.0072 34.35 84.7322 36.775 86.7322 39.975C88.7822 43.175 89.8072 47 89.8072 51.45ZM67.3822 41.775C65.6322 41.775 64.1822 42.25 63.0322 43.2C61.8822 44.15 61.1322 45.5 60.7822 47.25H73.9822C73.6322 45.55 72.8822 44.225 71.7322 43.275C70.5822 42.275 69.1322 41.775 67.3822 41.775ZM140.531 16.35V72H124.406V68.625C121.956 71.375 118.206 72.75 113.156 72.75C109.556 72.75 106.231 71.9 103.181 70.2C100.181 68.45 97.7813 65.95 95.9813 62.7C94.2313 59.45 93.3563 55.7 93.3563 51.45C93.3563 47.2 94.2313 43.475 95.9813 40.275C97.7813 37.025 100.181 34.55 103.181 32.85C106.231 31.1 109.556 30.225 113.156 30.225C117.706 30.225 121.181 31.4 123.581 33.75V16.35H140.531ZM117.206 59.55C119.156 59.55 120.756 58.85 122.006 57.45C123.256 56 123.881 54 123.881 51.45C123.881 48.9 123.256 46.925 122.006 45.525C120.756 44.125 119.156 43.425 117.206 43.425C115.256 43.425 113.656 44.125 112.406 45.525C111.156 46.925 110.531 48.9 110.531 51.45C110.531 54 111.156 56 112.406 57.45C113.656 58.85 115.256 59.55 117.206 59.55Z" fill="black"/>
</mask>
<g mask="url(#mask0)">
<rect y="10.4414" width="158.973" height="80.4271" fill="#253656"/>
<ellipse cx="42.8221" cy="93.1766" rx="42.8221" ry="43.1766" fill="#DA5454"/>
<ellipse cx="113.633" cy="89.7397" rx="42.8221" ry="43.1766" fill="#F9DEDE"/>
<ellipse cx="113.633" cy="89.7397" rx="42.8221" ry="43.1766" fill="#F9DEDE"/>
<ellipse cx="113.633" cy="89.7397" rx="42.8221" ry="43.1766" fill="#FF9696"/>
<ellipse cx="16.7928" cy="5.07961" rx="42.8221" ry="43.1766" fill="#F9DEDE"/>
<ellipse cx="16.7928" cy="5.07961" rx="42.8221" ry="43.1766" fill="#F9DEDE"/>
<ellipse cx="16.7928" cy="5.07961" rx="42.8221" ry="43.1766" fill="#FF9696"/>
<ellipse cx="103.556" cy="28.5022" rx="28.2682" ry="28.5022" fill="#F9DEDE"/>
</g>
</svg>
