<svg width="133" height="86" viewBox="0 0 133 86" fill="none" xmlns="http://www.w3.org/2000/svg">
<mask id="mask0" mask-type="alpha" maskUnits="userSpaceOnUse" x="0" y="10" width="130" height="63">
<path d="M33.975 70.575C31.425 72.025 27.95 72.75 23.55 72.75C17.8 72.75 13.375 71.375 10.275 68.625C7.175 65.825 5.625 61.65 5.625 56.1V45.6H0V33.225H5.625V21.75H22.575V33.225H30.975V45.6H22.575V55.95C22.575 57.2 22.9 58.175 23.55 58.875C24.2 59.575 25.05 59.925 26.1 59.925C27.55 59.925 28.825 59.55 29.925 58.8L33.975 70.575ZM56.6221 30.225C63.8221 30.225 69.3221 31.85 73.1221 35.1C76.9221 38.3 78.8221 43.25 78.8221 49.95V72H63.0721V66.6C61.1221 70.7 57.2471 72.75 51.4471 72.75C48.1971 72.75 45.4221 72.2 43.1221 71.1C40.8721 69.95 39.1471 68.425 37.9471 66.525C36.7971 64.575 36.2221 62.4 36.2221 60C36.2221 55.95 37.7721 52.875 40.8721 50.775C43.9721 48.675 48.6721 47.625 54.9721 47.625H61.7971C61.2471 44.425 58.6721 42.825 54.0721 42.825C52.2221 42.825 50.3471 43.125 48.4471 43.725C46.5471 44.275 44.9221 45.05 43.5721 46.05L38.1721 34.875C40.5221 33.425 43.3471 32.3 46.6471 31.5C49.9971 30.65 53.3221 30.225 56.6221 30.225ZM56.5471 62.55C57.7471 62.55 58.8221 62.225 59.7721 61.575C60.7221 60.925 61.4221 59.95 61.8721 58.65V55.8H57.6721C54.2221 55.8 52.4971 56.95 52.4971 59.25C52.4971 60.2 52.8471 61 53.5471 61.65C54.2971 62.25 55.2971 62.55 56.5471 62.55ZM86.1475 16.35H103.097V72H86.1475V16.35ZM110.61 30.975H127.56V72H110.61V30.975ZM119.085 27.675C116.035 27.675 113.56 26.875 111.66 25.275C109.81 23.625 108.885 21.55 108.885 19.05C108.885 16.55 109.81 14.5 111.66 12.9C113.56 11.25 116.035 10.425 119.085 10.425C122.185 10.425 124.66 11.2 126.51 12.75C128.36 14.3 129.285 16.3 129.285 18.75C129.285 21.35 128.36 23.5 126.51 25.2C124.66 26.85 122.185 27.675 119.085 27.675Z" fill="black"/>
</mask>
<g mask="url(#mask0)">
<rect x="-26.7112" y="-5.70503" width="159.704" height="73.906" fill="#253656"/>
<ellipse cx="21.3686" cy="84.0194" rx="43.0187" ry="39.6758" fill="#DA5454"/>
<ellipse cx="121.019" cy="82.6758" rx="43.0187" ry="39.6758" fill="#F9DEDE"/>
<ellipse cx="121.019" cy="82.6758" rx="43.0187" ry="39.6758" fill="#F9DEDE"/>
<ellipse cx="121.019" cy="82.6758" rx="43.0187" ry="39.6758" fill="#F9DEDE"/>
<ellipse cx="34.0214" cy="-2.07454" rx="43.0187" ry="39.6758" fill="#F9DEDE"/>
<ellipse cx="34.0214" cy="-2.07454" rx="43.0187" ry="39.6758" fill="#F9DEDE"/>
<ellipse cx="34.0214" cy="-2.07454" rx="43.0187" ry="39.6758" fill="#FF9696"/>
<ellipse cx="95.035" cy="28.5251" rx="28.398" ry="26.1912" fill="#DA5454"/>
</g>
</svg>
