<?xml version="1.0" encoding="utf-8"?><svg viewBox="0 0 489.7 489.7" xmlns="http://www.w3.org/2000/svg" xmlns:xlink="http://www.w3.org/1999/xlink"><style>:root>svg{display:none}:root>svg:target{display:block}</style><svg fill="none" viewBox="0 0 19 15" id="icon-arrow" xmlns="http://www.w3.org/2000/svg"><path d="M17.197 6.818H1.682a.682.682 0 0 0 0 1.364h15.515a.682.682 0 1 0 0-1.364z" fill="#fff" stroke="#fff" stroke-width=".5"/><path d="M2.646 7.5l5.336-5.336a.682.682 0 1 0-.964-.964L1.2 7.018a.682.682 0 0 0 0 .964L7.018 13.8a.68.68 0 0 0 .964 0 .682.682 0 0 0 0-.964L2.646 7.5z" fill="#fff" stroke="#fff" stroke-width=".5"/></svg><svg viewBox="0 0 21.9 21.9" id="icon-cross" xmlns="http://www.w3.org/2000/svg"><path d="M14.1 11.3c-.2-.2-.2-.5 0-.7l7.5-7.5c.2-.2.3-.5.3-.7s-.1-.5-.3-.7L20.2.3c-.2-.2-.5-.3-.7-.3-.3 0-.5.1-.7.3l-7.5 7.5c-.2.2-.5.2-.7 0L3.1.3C2.9.1 2.6 0 2.4 0s-.5.1-.7.3L.3 1.7c-.2.2-.3.5-.3.7s.1.5.3.7l7.5 7.5c.2.2.2.5 0 .7L.3 18.8c-.2.2-.3.5-.3.7s.1.5.3.7l1.4 1.4c.2.2.5.3.7.3s.5-.1.7-.3l7.5-7.5c.2-.2.5-.2.7 0l7.5 7.5c.2.2.5.3.7.3s.5-.1.7-.3l1.4-1.4c.2-.2.3-.5.3-.7s-.1-.5-.3-.7l-7.5-7.5z"/></svg><svg fill="none" viewBox="0 0 13 13" id="icon-geo" xmlns="http://www.w3.org/2000/svg"><path d="M6.5 0a4.713 4.713 0 0 0-4.708 4.708c0 3.222 4.213 7.952 4.393 8.151a.424.424 0 0 0 .63 0c.18-.2 4.393-4.93 4.393-8.15A4.714 4.714 0 0 0 6.5 0zm0 7.077a2.371 2.371 0 0 1-2.369-2.369A2.371 2.371 0 0 1 6.5 2.34a2.371 2.371 0 0 1 2.369 2.37A2.371 2.371 0 0 1 6.5 7.076z" fill="#444"/></svg><svg viewBox="0 0 489.7 489.7" id="icon-list" xmlns="http://www.w3.org/2000/svg"><path d="M52.7 134.75c29.1 0 52.7-23.7 52.7-52.7s-23.6-52.8-52.7-52.8S0 52.95 0 81.95s23.7 52.8 52.7 52.8zm0-81c15.6 0 28.2 12.7 28.2 28.2s-12.7 28.2-28.2 28.2-28.2-12.7-28.2-28.2 12.7-28.2 28.2-28.2zM52.7 297.55c29.1 0 52.7-23.7 52.7-52.7s-23.6-52.7-52.7-52.7S0 215.75 0 244.85s23.7 52.7 52.7 52.7zm0-80.9c15.6 0 28.2 12.7 28.2 28.2s-12.7 28.2-28.2 28.2-28.2-12.6-28.2-28.2 12.7-28.2 28.2-28.2zM52.7 460.45c29.1 0 52.7-23.7 52.7-52.7 0-29.1-23.7-52.7-52.7-52.7S0 378.75 0 407.75c0 29 23.7 52.7 52.7 52.7zm0-81c15.6 0 28.2 12.7 28.2 28.2 0 15.6-12.7 28.2-28.2 28.2s-28.2-12.7-28.2-28.2 12.7-28.2 28.2-28.2zM175.9 94.25h301.5c6.8 0 12.3-5.5 12.3-12.3s-5.5-12.3-12.3-12.3H175.9c-6.8 0-12.3 5.5-12.3 12.3s5.5 12.3 12.3 12.3zM175.9 257.15h301.5c6.8 0 12.3-5.5 12.3-12.3s-5.5-12.3-12.3-12.3H175.9c-6.8 0-12.3 5.5-12.3 12.3s5.5 12.3 12.3 12.3zM175.9 419.95h301.5c6.8 0 12.3-5.5 12.3-12.3s-5.5-12.3-12.3-12.3H175.9c-6.8 0-12.3 5.5-12.3 12.3s5.5 12.3 12.3 12.3z"/></svg><svg fill="none" viewBox="0 0 15 15" id="icon-phone" xmlns="http://www.w3.org/2000/svg"><path d="M14.993 11.838a.726.726 0 0 1-.223.636L12.66 14.57a1.19 1.19 0 0 1-.374.27 1.541 1.541 0 0 1-.452.143l-.095.008a2.151 2.151 0 0 1-.207.008c-.201 0-.527-.034-.976-.103-.45-.07-1-.239-1.652-.509-.651-.27-1.39-.675-2.215-1.215-.826-.54-1.704-1.282-2.636-2.225A17.414 17.414 0 0 1 2.21 8.851a14.945 14.945 0 0 1-1.175-1.852 9.974 9.974 0 0 1-.667-1.54 8.182 8.182 0 0 1-.302-1.193 3.938 3.938 0 0 1-.063-.786c.01-.19.016-.297.016-.318.02-.148.068-.3.142-.453a1.19 1.19 0 0 1 .27-.373L2.543.222A.7.7 0 0 1 3.051 0c.138 0 .26.04.366.12.106.079.196.177.27.293L5.386 3.64c.095.17.122.355.08.556a.99.99 0 0 1-.27.508l-.779.779a.265.265 0 0 0-.055.103.392.392 0 0 0-.024.12c.042.222.137.476.286.762a7 7 0 0 0 .587.93c.265.365.64.786 1.128 1.263.476.487.9.866 1.27 1.136.37.27.68.469.929.596s.44.204.572.23l.198.04a.38.38 0 0 0 .103-.024.265.265 0 0 0 .103-.056l.905-.921a.973.973 0 0 1 .667-.254.83.83 0 0 1 .43.095h.015l3.065 1.811c.222.138.354.313.397.525z" fill="#FFCB45"/></svg><svg fill="none" viewBox="0 0 16 9" id="icon-select" xmlns="http://www.w3.org/2000/svg"><path d="M8 7.44L1.677 1.116a.395.395 0 0 0-.56 0 .395.395 0 0 0 0 .56L7.72 8.281a.395.395 0 0 0 .56 0l6.602-6.604A.399.399 0 0 0 15 1.398c0-.1-.038-.202-.117-.278a.395.395 0 0 0-.56 0L8 7.44z" fill="#000" stroke="#000" stroke-width=".5"/></svg><svg fill="none" viewBox="0 0 16 16" id="icon-x" xmlns="http://www.w3.org/2000/svg"><path d="M12 4l-8 8M4 4l8 8" stroke="#000" stroke-width="2" stroke-linecap="square"/></svg></svg>