<svg width="566" height="88" viewBox="0 0 566 88" fill="none" xmlns="http://www.w3.org/2000/svg">
<path d="M18.7496 11.4609C20.3692 4.73718 26.373 0 33.2747 0H551.051C560.722 0 567.845 9.06769 565.576 18.4894L547.25 76.5391C545.631 83.2628 539.627 88 532.725 88H14.9494C5.27815 88 -1.84536 78.9323 0.424237 69.5106L18.7496 11.4609Z" fill="white"/>
<path d="M82.7773 56.4688H67.9336L65.4531 61H56.5859L71.957 32.9922H78.7539L94.125 61H85.2578L82.7773 56.4688ZM71.3711 50.1797H79.3398L75.3555 42.8945L71.3711 50.1797ZM97.0547 61V32.9922H115.473C117.283 32.9922 118.962 33.1745 120.512 33.5391C122.061 33.8906 123.396 34.4635 124.516 35.2578C125.648 36.0521 126.534 37.0872 127.172 38.3633C127.81 39.6263 128.129 41.1628 128.129 42.9727C128.129 44.1185 127.947 45.1276 127.582 46C127.23 46.8594 126.781 47.6081 126.234 48.2461C125.688 48.8711 125.082 49.3854 124.418 49.7891C123.767 50.1927 123.148 50.4987 122.562 50.707L128.383 61H119.516L114.613 52.3477H105.316V61H97.0547ZM105.316 39.8867V46.0586H115.473C116.97 46.0586 118.064 45.8242 118.754 45.3555C119.444 44.8737 119.789 44.0794 119.789 42.9727C119.789 41.8789 119.444 41.0911 118.754 40.6094C118.064 40.1276 116.97 39.8867 115.473 39.8867H105.316ZM132.484 32.9922H140.746V61H132.484V32.9922ZM174.652 54.125V61H145.258V56.918L161.176 39.8672H145.648V32.9922H174.652V37.0742L158.715 54.125H174.652ZM203.402 56.4688H188.559L186.078 61H177.211L192.582 32.9922H199.379L214.75 61H205.883L203.402 56.4688ZM191.996 50.1797H199.965L195.98 42.8945L191.996 50.1797ZM247.367 61.7812C244.06 61.7812 241.195 61.3971 238.773 60.6289C236.365 59.8477 234.366 58.793 232.777 57.4648C231.202 56.1237 230.03 54.5547 229.262 52.7578C228.493 50.9609 228.109 49.0404 228.109 46.9961C228.109 44.9518 228.493 43.0312 229.262 41.2344C230.03 39.4375 231.202 37.875 232.777 36.5469C234.366 35.2057 236.365 34.151 238.773 33.3828C241.195 32.6016 244.06 32.2109 247.367 32.2109C250.674 32.2109 253.533 32.6016 255.941 33.3828C258.363 34.151 260.362 35.2057 261.938 36.5469C263.526 37.875 264.704 39.4375 265.473 41.2344C266.241 43.0312 266.625 44.9518 266.625 46.9961C266.625 48.1549 266.501 49.2812 266.254 50.375C266.02 51.4557 265.648 52.4844 265.141 53.4609C264.646 54.4375 264.021 55.349 263.266 56.1953C262.51 57.0286 261.625 57.7839 260.609 58.4609L265.023 63.4609H256.508L254.477 61.0195C253.422 61.2669 252.309 61.4557 251.137 61.5859C249.965 61.7161 248.708 61.7812 247.367 61.7812ZM247.367 54.9062C247.719 54.9062 248.057 54.8997 248.383 54.8867C248.721 54.8737 249.047 54.8542 249.359 54.8281L246.391 51.2148H254.223L255.609 52.7969C256.599 52.0286 257.289 51.1432 257.68 50.1406C258.083 49.125 258.285 48.0768 258.285 46.9961C258.285 46.0065 258.116 45.0365 257.777 44.0859C257.452 43.1354 256.872 42.2891 256.039 41.5469C255.206 40.8047 254.086 40.2122 252.68 39.7695C251.286 39.3138 249.516 39.0859 247.367 39.0859C245.219 39.0859 243.441 39.3138 242.035 39.7695C240.642 40.2122 239.529 40.8047 238.695 41.5469C237.862 42.2891 237.276 43.1354 236.938 44.0859C236.612 45.0365 236.449 46.0065 236.449 46.9961C236.449 47.9857 236.612 48.9557 236.938 49.9062C237.276 50.8568 237.862 51.7031 238.695 52.4453C239.529 53.1875 240.642 53.7865 242.035 54.2422C243.441 54.6849 245.219 54.9062 247.367 54.9062ZM289.008 61.7812C285.701 61.7812 282.836 61.3971 280.414 60.6289C278.005 59.8477 276.007 58.793 274.418 57.4648C272.842 56.1237 271.671 54.5547 270.902 52.7578C270.134 50.9609 269.75 49.0404 269.75 46.9961C269.75 44.9518 270.134 43.0312 270.902 41.2344C271.671 39.4375 272.842 37.875 274.418 36.5469C276.007 35.2057 278.005 34.151 280.414 33.3828C282.836 32.6016 285.701 32.2109 289.008 32.2109C292.315 32.2109 295.173 32.6016 297.582 33.3828C300.004 34.151 302.003 35.2057 303.578 36.5469C305.167 37.875 306.345 39.4375 307.113 41.2344C307.882 43.0312 308.266 44.9518 308.266 46.9961C308.266 49.0404 307.882 50.9609 307.113 52.7578C306.345 54.5547 305.167 56.1237 303.578 57.4648C302.003 58.793 300.004 59.8477 297.582 60.6289C295.173 61.3971 292.315 61.7812 289.008 61.7812ZM289.008 54.9062C291.156 54.9062 292.927 54.6849 294.32 54.2422C295.727 53.7865 296.846 53.1875 297.68 52.4453C298.513 51.7031 299.092 50.8568 299.418 49.9062C299.757 48.9557 299.926 47.9857 299.926 46.9961C299.926 46.0065 299.757 45.0365 299.418 44.0859C299.092 43.1354 298.513 42.2891 297.68 41.5469C296.846 40.8047 295.727 40.2122 294.32 39.7695C292.927 39.3138 291.156 39.0859 289.008 39.0859C286.859 39.0859 285.082 39.3138 283.676 39.7695C282.283 40.2122 281.169 40.8047 280.336 41.5469C279.503 42.2891 278.917 43.1354 278.578 44.0859C278.253 45.0365 278.09 46.0065 278.09 46.9961C278.09 47.9857 278.253 48.9557 278.578 49.9062C278.917 50.8568 279.503 51.7031 280.336 52.4453C281.169 53.1875 282.283 53.7865 283.676 54.2422C285.082 54.6849 286.859 54.9062 289.008 54.9062ZM320.434 54.125H339.906V61H312.172V32.9922H320.434V54.125ZM376.723 46.9961C376.723 48.9753 376.462 50.8177 375.941 52.5234C375.434 54.2161 374.6 55.694 373.441 56.957C372.283 58.2201 370.766 59.2096 368.891 59.9258C367.029 60.6419 364.75 61 362.055 61H343.812V32.9922H362.055C364.75 32.9922 367.029 33.3568 368.891 34.0859C370.766 34.8021 372.283 35.7917 373.441 37.0547C374.6 38.3047 375.434 39.7826 375.941 41.4883C376.462 43.194 376.723 45.0299 376.723 46.9961ZM352.074 54.125H362.055C364.268 54.125 365.883 53.5326 366.898 52.3477C367.914 51.1497 368.422 49.3659 368.422 46.9961C368.422 44.6263 367.914 42.849 366.898 41.6641C365.883 40.4661 364.268 39.8672 362.055 39.8672H352.074V54.125ZM380.844 32.9922H389.105V61H380.844V32.9922ZM394.008 61V32.9922H412.426C414.236 32.9922 415.915 33.1745 417.465 33.5391C419.014 33.8906 420.349 34.4635 421.469 35.2578C422.602 36.0521 423.487 37.0872 424.125 38.3633C424.763 39.6263 425.082 41.1628 425.082 42.9727C425.082 44.1185 424.9 45.1276 424.535 46C424.184 46.8594 423.734 47.6081 423.188 48.2461C422.641 48.8711 422.035 49.3854 421.371 49.7891C420.72 50.1927 420.102 50.4987 419.516 50.707L425.336 61H416.469L411.566 52.3477H402.27V61H394.008ZM402.27 39.8867V46.0586H412.426C413.923 46.0586 415.017 45.8242 415.707 45.3555C416.397 44.8737 416.742 44.0794 416.742 42.9727C416.742 41.8789 416.397 41.0911 415.707 40.6094C415.017 40.1276 413.923 39.8867 412.426 39.8867H402.27ZM429.438 32.9922H437.699V61H429.438V32.9922ZM466.742 40.8828C465.896 40.5443 464.945 40.2448 463.891 39.9844C462.992 39.763 461.924 39.5612 460.688 39.3789C459.451 39.1836 458.083 39.0859 456.586 39.0859C454.698 39.0859 453.233 39.2357 452.191 39.5352C451.163 39.8216 450.648 40.3359 450.648 41.0781C450.648 41.4557 450.766 41.7747 451 42.0352C451.234 42.2826 451.612 42.4974 452.133 42.6797C452.667 42.849 453.357 43.0052 454.203 43.1484C455.049 43.2786 456.078 43.4089 457.289 43.5391C459.945 43.8385 462.204 44.2227 464.066 44.6914C465.928 45.1471 467.439 45.7331 468.598 46.4492C469.757 47.1523 470.596 48.0117 471.117 49.0273C471.651 50.0299 471.918 51.2214 471.918 52.6016C471.918 54.2812 471.521 55.707 470.727 56.8789C469.945 58.0378 468.852 58.9818 467.445 59.7109C466.039 60.4401 464.359 60.9674 462.406 61.293C460.466 61.6185 458.331 61.7812 456 61.7812C454.724 61.7812 453.533 61.7357 452.426 61.6445C451.332 61.5534 450.323 61.4297 449.398 61.2734C448.487 61.1302 447.654 60.9609 446.898 60.7656C446.143 60.5703 445.473 60.3685 444.887 60.1602C443.507 59.6784 442.354 59.1315 441.43 58.5195L445.297 52.875C446.117 53.2526 447.061 53.5911 448.129 53.8906C449.027 54.151 450.108 54.3854 451.371 54.5938C452.647 54.8021 454.06 54.9062 455.609 54.9062C456.885 54.9062 458.018 54.8737 459.008 54.8086C459.997 54.7305 460.831 54.6068 461.508 54.4375C462.185 54.2552 462.699 54.0208 463.051 53.7344C463.402 53.4349 463.578 53.0573 463.578 52.6016C463.578 52.25 463.467 51.9635 463.246 51.7422C463.038 51.5208 462.641 51.332 462.055 51.1758C461.482 51.0065 460.681 50.8568 459.652 50.7266C458.637 50.5833 457.315 50.4206 455.688 50.2383C452.979 49.9518 450.759 49.5286 449.027 48.9688C447.296 48.3958 445.928 47.7188 444.926 46.9375C443.936 46.1432 443.253 45.2513 442.875 44.2617C442.497 43.2721 442.309 42.2109 442.309 41.0781C442.309 39.8542 442.562 38.7083 443.07 37.6406C443.578 36.5599 444.385 35.6224 445.492 34.8281C446.599 34.0208 448.031 33.3828 449.789 32.9141C451.56 32.4453 453.695 32.2109 456.195 32.2109C458.617 32.2109 460.727 32.3737 462.523 32.6992C464.333 33.0117 465.837 33.3568 467.035 33.7344C468.428 34.1771 469.62 34.6784 470.609 35.2383L466.742 40.8828ZM498.793 32.9922H507.055V61H498.793V50.1797H483.715V61H475.453V32.9922H483.715V43.3047H498.793V32.9922Z" fill="#3797EA"/>
</svg>
