<svg width="207" height="56" viewBox="0 0 207 56" fill="none" xmlns="http://www.w3.org/2000/svg">
<path d="M7.30008 4.4525C7.93068 1.84038 10.2682 0 12.9554 0H201.18C204.945 0 207.719 3.52276 206.835 7.18307L199.7 36.7374C199.07 39.3495 196.732 41.1899 194.045 41.1899H5.82049C2.05503 41.1899 -0.718484 37.6671 0.165175 34.0068L7.30008 4.4525Z" fill="#3797EA"/>
<circle cx="188.556" cy="27.6926" r="4.65423" fill="white"/>
<path d="M22.3112 12.7936H28.0789V32.3468H22.3112V12.7936Z" fill="white"/>
<path d="M37.2692 17.6069V22.6793H44.6324C45.1141 22.6793 45.5278 22.6202 45.8732 22.502C46.2186 22.3747 46.5004 22.202 46.7186 21.9839C46.9458 21.7566 47.1095 21.4884 47.2095 21.1794C47.3185 20.8612 47.3731 20.5158 47.3731 20.1431C47.3731 19.7704 47.3185 19.4295 47.2095 19.1204C47.1095 18.8023 46.9458 18.5341 46.7186 18.3159C46.5004 18.0887 46.2186 17.916 45.8732 17.7978C45.5278 17.6705 45.1141 17.6069 44.6324 17.6069H37.2692ZM31.5014 32.3468V12.7936H44.6324C46.005 12.7936 47.2231 12.9572 48.2867 13.2845C49.3502 13.6117 50.2456 14.089 50.9728 14.7162C51.7001 15.3434 52.25 16.1161 52.6227 17.0342C53.0045 17.9432 53.1954 18.9795 53.1954 20.1431C53.1954 21.3066 53.0045 22.3475 52.6227 23.2656C52.25 24.1746 51.7001 24.9428 50.9728 25.57C50.2456 26.1972 49.3502 26.6745 48.2867 27.0017C47.2231 27.329 46.005 27.4926 44.6324 27.4926H37.2829L37.2692 32.3468H31.5014Z" fill="white"/>
<path d="M69.108 32.8922C66.799 32.8922 64.7992 32.624 63.1084 32.0877C61.4267 31.5423 60.0313 30.806 58.9223 29.8788C57.8224 28.9425 57.0042 27.8471 56.4679 26.5926C55.9316 25.3382 55.6634 23.9974 55.6634 22.5702C55.6634 21.143 55.9316 19.8022 56.4679 18.5477C57.0042 17.2933 57.8224 16.2024 58.9223 15.2752C60.0313 14.3389 61.4267 13.6026 63.1084 13.0663C64.7992 12.5209 66.799 12.2482 69.108 12.2482C71.4169 12.2482 73.4122 12.5209 75.0939 13.0663C76.7847 13.6026 78.1801 14.3389 79.28 15.2752C80.389 16.2024 81.2117 17.2933 81.748 18.5477C82.2843 19.8022 82.5525 21.143 82.5525 22.5702C82.5525 23.9974 82.2843 25.3382 81.748 26.5926C81.2117 27.8471 80.389 28.9425 79.28 29.8788C78.1801 30.806 76.7847 31.5423 75.0939 32.0877C73.4122 32.624 71.4169 32.8922 69.108 32.8922ZM69.108 28.0925C70.6079 28.0925 71.8441 27.938 72.8168 27.6289C73.7985 27.3108 74.5803 26.8926 75.1621 26.3745C75.7439 25.8563 76.1484 25.2655 76.3756 24.6019C76.612 23.9383 76.7302 23.2611 76.7302 22.5702C76.7302 21.8793 76.612 21.2021 76.3756 20.5385C76.1484 19.8749 75.7439 19.2841 75.1621 18.7659C74.5803 18.2478 73.7985 17.8342 72.8168 17.5251C71.8441 17.2069 70.6079 17.0478 69.108 17.0478C67.6081 17.0478 66.3672 17.2069 65.3855 17.5251C64.4128 17.8342 63.6356 18.2478 63.0538 18.7659C62.472 19.2841 62.063 19.8749 61.8266 20.5385C61.5994 21.2021 61.4857 21.8793 61.4857 22.5702C61.4857 23.2611 61.5994 23.9383 61.8266 24.6019C62.063 25.2655 62.472 25.8563 63.0538 26.3745C63.6356 26.8926 64.4128 27.3108 65.3855 27.6289C66.3672 27.938 67.6081 28.0925 69.108 28.0925Z" fill="white"/>
<path d="M104.792 12.7936V17.5933H96.4879V32.3468H90.7201V17.5933H82.4161V12.7936H104.792Z" fill="white"/>
<path d="M126.922 20.1158V24.7928H113.028V27.5471H127.713V32.3468H107.26V12.7936H127.577V17.5933H113.028V20.1158H126.922Z" fill="white"/>
<path d="M145.275 12.7936H152.816L142.603 21.2339L152.952 32.3468H145.903L138.621 24.5201L136.481 26.2927V32.3468H130.713V12.7936H136.481V20.0613L145.275 12.7936Z" fill="white"/>
<path d="M172.069 29.1834H161.706L159.974 32.3468H153.784L164.515 12.7936H169.26L179.991 32.3468H173.801L172.069 29.1834ZM164.106 24.7928H169.669L166.888 19.7067L164.106 24.7928Z" fill="white"/>
<path d="M83.1315 52.2665L80.5351 55.1526H78.2455L82.018 50.9597L78.5409 47.0054H80.8305L83.1315 49.6246L85.4325 47.0054H87.7221L84.2451 50.9597L88.0175 55.1526H85.7279L83.1315 52.2665Z" fill="black"/>
<path d="M89.0402 47.0054H90.9321V55.1526H89.0402V47.0054Z" fill="black"/>
<path d="M100.602 53.5107V55.1526H92.3582V54.1527L97.5396 48.6474H92.54V47.0054H100.602V48.0054L95.4204 53.5107H100.602Z" fill="black"/>
<path d="M107.204 52.6301L110.01 47.0054H112.436V55.1526H110.544V49.9257L107.937 55.1526H106.471L103.863 49.9257V55.1526H101.971V47.0054H104.397L107.204 52.6301Z" fill="black"/>
<path d="M120.907 53.5561H116.283L115.419 55.1526H113.402L117.817 47.0054H119.373L123.788 55.1526H121.771L120.907 53.5561ZM117.141 51.971H120.049L118.595 49.278L117.141 51.971Z" fill="black"/>
<path d="M131.486 47.0054V48.6474H127.986V55.1526H126.094V48.6474H122.595V47.0054H131.486Z" fill="black"/>
<path d="M132.685 47.0054H134.577V55.1526H132.685V47.0054Z" fill="black"/>
</svg>
