<svg width="129" height="77" viewBox="0 0 129 77" fill="none" xmlns="http://www.w3.org/2000/svg">
<path d="M27.0932 38.317L25.9777 37.1721H28.4437C28.4437 37.1721 28.9721 31.4768 34.1389 31.4768C39.3058 31.4768 40.069 37.4069 40.069 37.4069H41.4195V29.5686L39.3645 27.543V18.1194L37.8966 16.6515H63.8776V28.8053C63.8776 28.8053 48.9349 31.3888 48.9349 55.7845V56.2542H38.3957V44.6288C38.3957 44.6288 37.6324 41.0179 34.1683 40.2839C31.761 40.7243 30.117 44.3352 30.117 44.3352V55.9312H27.0932V38.317Z" fill="white"/>
<path d="M46.1163 16.9744H44.2081V11.015L43.4448 10.2517H44.2962C44.2962 10.2517 44.2081 6.17105 47.32 6.17105V12.2186C47.32 12.2186 46.1163 12.3654 46.1163 16.9744Z" fill="white"/>
<path d="M48.2887 16.9744H50.1969V11.015L50.9602 10.2517H50.1382C50.1382 10.2517 50.1969 6.17105 47.1144 6.17105V12.2186C47.1144 12.2186 48.2887 12.3654 48.2887 16.9744Z" fill="white"/>
<path d="M33.6394 31.6821L34.1972 25.3117L34.5788 31.6234L33.6394 31.6821Z" fill="white"/>
<path d="M35.3716 31.4469C35.3716 31.8285 34.7844 32.1515 34.0799 32.1515C33.3459 32.1515 32.7588 31.8285 32.7588 31.4469C32.7588 31.0359 33.3459 30.7423 34.0799 30.7423C34.7844 30.7423 35.3716 31.0359 35.3716 31.4469Z" fill="white"/>
<path d="M48.2595 5.7591C48.2595 6.08203 47.7897 6.34625 47.2026 6.34625C46.6155 6.34625 46.1458 6.08203 46.1458 5.7591C46.1458 5.43618 46.6155 5.20132 47.2026 5.20132C47.7897 5.20132 48.2595 5.43618 48.2595 5.7591Z" fill="white"/>
<path d="M46.6741 5.28992L47.2319 0.181789L47.6135 5.26056L46.6741 5.28992Z" fill="white"/>
<path d="M100.515 38.317L101.66 37.1721H99.1646C99.1646 37.1721 98.6362 31.5062 93.4693 31.5062C88.3025 31.5062 87.5686 37.4069 87.5686 37.4069H86.1888V29.5686L88.2438 27.543V18.1194L89.7116 16.6515H63.76V28.8347C63.76 28.8347 78.6734 31.3888 78.6734 55.8138V56.2542H89.2126V44.6581C89.2126 44.6581 89.9758 41.0179 93.44 40.2839C95.8473 40.7243 97.5206 44.3352 97.5206 44.3352V55.9606H100.515V38.317Z" fill="white"/>
<path d="M81.4913 16.9744H83.3995V11.015L84.1628 10.281H83.3408C83.3408 10.281 83.3995 6.17105 80.317 6.17105V12.2186C80.317 12.2186 81.4913 12.3654 81.4913 16.9744Z" fill="white"/>
<path d="M79.319 16.9744H77.4107V11.015L76.6475 10.281H77.4988C77.4988 10.281 77.4107 6.17105 80.4932 6.17105V12.2186C80.4932 12.2186 79.319 12.3654 79.319 16.9744Z" fill="white"/>
<path d="M93.9682 31.6821L93.4398 25.341L93.0288 31.6234L93.9682 31.6821Z" fill="white"/>
<path d="M92.2358 31.4469C92.2358 31.8579 92.823 32.1808 93.5569 32.1808C94.2615 32.1808 94.8486 31.8579 94.8486 31.4469C94.8486 31.0653 94.2615 30.7423 93.5569 30.7423C92.823 30.7423 92.2358 31.0653 92.2358 31.4469Z" fill="white"/>
<path d="M79.3486 5.78846C79.3486 6.08203 79.8184 6.34625 80.4055 6.34625C80.9926 6.34625 81.4623 6.08203 81.4623 5.78846C81.4623 5.46553 80.9926 5.20132 80.4055 5.20132C79.8184 5.20132 79.3486 5.46553 79.3486 5.78846Z" fill="white"/>
<path d="M80.9337 5.28992L80.3759 0.181789L79.9943 5.26056L80.9337 5.28992Z" fill="white"/>
<path d="M25.2141 56.4009H102.335V55.2853H25.2141V56.4009Z" fill="white"/>
<path d="M6.99437 61.9486C6.90629 61.978 6.78887 62.0074 6.7008 62.0367C6.61272 62.0661 6.4953 62.0954 6.40722 62.1541C6.2898 62.1835 6.20173 62.2422 6.11365 62.3009C6.02558 62.3596 5.90815 62.4184 5.82008 62.4771C5.73201 62.5651 5.64394 62.6239 5.55587 62.6826C5.4678 62.7706 5.37973 62.8587 5.29166 62.9174C5.17423 63.0642 5.0568 63.211 4.93937 63.3284C4.8513 63.4752 4.76323 63.622 4.70452 63.7394C4.67516 63.8568 4.6458 63.9449 4.61644 64.033C4.61644 64.1211 4.61644 64.1798 4.61644 64.2678C4.6458 64.3559 4.70452 64.444 4.76323 64.5027C4.8513 64.5614 4.96873 64.6201 5.11551 64.6788C5.29166 64.7376 5.52651 64.7963 5.79073 64.855C6.05494 64.8843 6.31915 64.9137 6.61272 64.9431C7.11179 65.0018 7.61086 65.0898 8.08058 65.2073C8.57965 65.3247 9.02 65.5008 9.40164 65.7651C9.51907 65.8531 9.60714 65.9118 9.66586 65.9706C9.75393 66.0586 9.81264 66.1467 9.87136 66.2054C9.95943 66.2935 10.0181 66.3816 10.0769 66.4696C10.1062 66.5871 10.1649 66.6751 10.1943 66.7632C10.253 66.8806 10.2824 66.9687 10.2824 67.0861C10.3117 67.2036 10.3117 67.321 10.3117 67.4091C10.3117 67.5265 10.3117 67.6439 10.3117 67.7613C10.2824 67.8788 10.253 67.9668 10.2236 68.0843C10.1943 68.1723 10.1649 68.2898 10.1356 68.3778C10.0769 68.4659 10.0475 68.5833 9.98878 68.6714C9.93007 68.7595 9.87136 68.8769 9.81264 68.965C9.75393 69.053 9.66586 69.1411 9.60714 69.2292C9.431 69.464 9.19614 69.6695 8.96129 69.875C8.72643 70.1099 8.46222 70.286 8.16865 70.4915C7.90443 70.6677 7.61086 70.8438 7.28794 70.9906C6.99437 71.1374 6.67144 71.2842 6.34851 71.4016C6.05494 71.4897 5.76137 71.5778 5.43844 71.6365C5.14487 71.7245 4.8513 71.7539 4.52837 71.8126C4.2348 71.842 3.94123 71.842 3.64766 71.842C3.41281 71.842 3.17795 71.842 2.94309 71.8126L2.82566 71.7832C2.64952 71.7539 2.47338 71.7245 2.29724 71.6952C2.15045 71.6365 2.00367 71.6071 1.85688 71.5484C1.68074 71.4897 1.53395 71.4016 1.41653 71.3429C1.26974 71.2548 1.15231 71.1668 1.03488 71.0787L0.97617 71.02C0.477101 70.609 0.212887 69.9338 0.124816 69.2585C0.0661019 68.8182 0.095459 68.3485 0.212887 67.9668C0.359672 67.5558 0.565172 67.2329 0.858742 66.9981C1.12296 66.8219 1.44588 66.7338 1.82752 66.7632C1.94495 66.7926 2.03302 66.7926 2.15045 66.8513C2.17981 66.8513 2.23852 66.8806 2.29724 66.91V66.8806L2.41467 66.9687C2.50274 67.0274 2.59081 67.0861 2.64952 67.1448C2.70824 67.2036 2.73759 67.2329 2.76695 67.2916L2.85502 67.4091C2.94309 67.5558 3.00181 67.7613 3.00181 67.9375C3.00181 68.1136 2.97245 68.3191 2.85502 68.4953V68.5246C2.73759 68.7008 2.62017 68.8769 2.50274 69.0237C2.35595 69.1705 2.20917 69.2879 2.09174 69.4347H2.06238C1.97431 69.5228 1.9156 69.5815 1.85688 69.6402C1.82752 69.6695 1.88624 69.7283 2.06238 69.875C2.1211 69.9044 2.17981 69.9631 2.23852 69.9925C2.32659 70.0218 2.38531 70.0512 2.47338 70.0805C2.53209 70.1099 2.64952 70.1393 2.73759 70.1686C2.82566 70.198 2.94309 70.2273 3.06052 70.2273C3.85316 70.3448 4.76323 70.2273 5.61458 69.9631C6.55401 69.6695 7.43472 69.1705 8.05122 68.642C8.198 68.4953 8.34479 68.3485 8.43286 68.2017C8.55029 68.0843 8.63836 67.9375 8.66772 67.82C8.72643 67.732 8.72643 67.6439 8.72643 67.5558C8.72643 67.4971 8.72643 67.4091 8.66772 67.3503C8.57965 67.1742 8.34479 66.9981 7.96315 66.8513C7.58151 66.7045 7.08244 66.5871 6.40722 66.499C5.64394 66.4109 4.91002 66.3228 4.29352 66.0586C3.67702 65.7944 3.20731 65.3541 3.03116 64.5908C2.97245 64.3559 2.97245 64.1211 3.00181 63.8862C3.03116 63.6513 3.08988 63.4165 3.20731 63.1523C3.29538 62.9468 3.44216 62.7119 3.58895 62.4771C3.73573 62.2716 3.94123 62.0367 4.11737 61.8606C4.2348 61.7431 4.35223 61.6257 4.46966 61.5376C4.61644 61.4202 4.73387 61.3321 4.8513 61.2147H4.88066C5.32101 60.8918 5.99623 60.6276 6.7008 60.5101C7.25858 60.4221 7.84572 60.3927 8.37415 60.5101C8.87322 60.5982 9.34293 60.8331 9.60714 61.2147C9.72457 61.3909 9.81264 61.5964 9.87136 61.8312L9.90071 62.0367L9.69521 61.978C9.13743 61.8606 8.66772 61.8019 8.22736 61.8019C7.81636 61.8019 7.40536 61.8606 6.99437 61.9486Z" fill="white"/>
<path fill-rule="evenodd" clip-rule="evenodd" d="M13.541 70.2859C13.1887 70.0511 13.1594 69.552 12.5722 69.4052C12.0731 69.2878 11.486 69.464 11.6328 70.1098C11.9264 71.0492 12.9539 70.7557 13.541 70.2859ZM11.075 67.82C11.3392 66.0879 12.719 65.8237 14.1281 66.4989C15.5079 67.1154 15.1556 68.6126 15.1263 69.8456V69.8749C16.1244 70.5208 17.0638 70.5208 17.5629 69.2291C17.9739 70.9905 17.24 72.1061 15.3905 71.5777C15.1263 71.4896 14.8327 71.3722 14.5685 71.196C14.1575 71.2841 13.7759 71.4309 13.3649 71.5189C9.84201 72.5171 10.3998 68.7594 12.1319 68.3484C12.7777 68.1722 13.4529 68.3777 13.9226 68.8768L13.952 68.9062V68.8768C14.1869 66.8805 12.308 66.7337 11.075 67.82Z" fill="white"/>
<path fill-rule="evenodd" clip-rule="evenodd" d="M40.4612 71.695L40.5199 68.8474C42.0758 69.4639 43.3088 69.0529 43.5143 67.3502C42.4574 67.7025 41.5474 68.319 40.8722 67.0566C40.696 66.7631 40.6373 66.4401 40.4024 66.1466C39.2575 67.3502 39.1695 66.4695 39.1107 68.9942C39.0814 70.4914 39.1107 71.8418 40.4612 71.695Z" fill="white"/>
<path fill-rule="evenodd" clip-rule="evenodd" d="M59.2791 66.3521C59.2204 66.3521 58.9562 66.5869 58.692 66.8511C58.3984 67.1153 58.1342 67.4089 58.0755 67.497C58.0462 67.7906 58.0462 68.0841 58.0462 68.3777C57.8113 69.141 57.0187 69.8162 56.3141 70.2272C56.7838 70.7556 57.5764 70.6675 58.1049 70.2859C58.1636 70.6088 58.1929 70.9611 58.2223 71.3134C58.3104 71.5483 58.9562 71.4015 59.1324 71.3721C59.6901 71.284 60.0718 67.9373 61.3635 67.2621C61.3341 67.6438 61.3048 68.0254 61.2754 68.4071C61.0993 70.051 60.9819 71.4895 63.3891 71.695C64.7102 71.7831 66.3248 71.4602 67.5285 71.1666C68.0569 71.0198 68.2918 70.4327 68.3505 69.963C68.3798 69.6107 68.3211 69.0823 68.0275 68.8474C67.9688 70.051 65.4735 70.2272 64.5341 70.2859C63.624 70.3153 62.9194 70.1978 62.7433 69.9923C62.2442 69.7281 62.5965 68.4071 62.6259 67.8786C62.7139 67.0566 62.6552 66.264 61.6277 66.1466C60.4534 66.1759 59.5727 67.497 59.2204 68.4071C59.2498 68.2016 59.3672 66.4108 59.2791 66.3521Z" fill="white"/>
<path d="M20.6453 66.1759C20.5279 66.1466 19.5297 67.1741 19.4123 67.3208C19.3829 67.6438 19.3829 67.9373 19.3829 68.2309C19.1481 68.9942 18.3848 70.0217 17.6509 70.0804C18.1499 70.6382 18.9132 70.5501 19.471 70.1391C19.5004 70.462 19.4417 71.2547 19.8233 71.3134C20.0288 71.3428 20.2637 71.3134 20.4692 71.2547C20.7627 71.2253 21.0269 68.1135 22.7003 67.1447C22.6416 68.2016 22.3774 69.2878 22.5241 70.3446C22.5829 70.9611 22.7884 71.4015 23.2581 71.3428C24.0507 71.1373 23.4929 68.1428 25.0782 67.2621C25.0489 67.6731 25.0195 68.0548 24.9901 68.4364C24.814 70.1978 24.7259 71.607 27.28 71.695C28.1901 71.7244 31.4487 71.5776 31.889 70.6969C32.1239 70.2272 32.212 69.2584 31.7423 68.8768C31.7129 69.1116 31.6542 69.2878 31.5368 69.4345C31.3606 69.64 31.1258 69.7868 30.8909 69.8749C30.0983 70.1098 27.0158 70.7263 26.458 70.0217C25.5479 69.552 27.4561 66.3521 25.3424 66.1466C24.3443 66.1759 23.8159 67.2034 23.4929 67.9373C23.581 67.4089 23.7571 66.9979 23.3168 66.5282C23.1113 66.3227 22.8177 66.1466 22.5241 66.1466C21.5554 66.1466 20.8508 67.4676 20.5572 68.2309C20.5866 68.0548 20.7334 66.2053 20.6453 66.1759Z" fill="white"/>
<path d="M73.3999 68.6708C73.1357 66.0287 73.077 64.414 73.1357 63.4452C73.1944 62.5939 73.6641 61.5957 74.6916 61.6545C74.6916 61.6545 74.1925 60.5682 72.8715 61.5077C71.6385 62.6526 71.932 66.2929 72.0788 67.4378C72.0788 67.4378 70.8458 66.3809 69.378 67.3497C68.2918 68.0543 68.4092 69.757 68.6734 70.4909C69.5835 72.8101 73.5467 71.2542 73.6054 70.3441C72.6366 71.1955 70.4055 70.5203 70.0532 69.6396C69.9064 69.2579 69.6715 68.1717 70.4055 67.9369C70.7871 67.8194 71.1981 68.0249 71.6385 68.524C72.7247 69.7276 71.521 70.3148 73.5173 70.1093C73.5173 69.6102 73.3999 69.1405 73.3999 68.6708Z" fill="white"/>
<path d="M48.8574 75.5707C49.0629 75.7762 49.8555 76.1872 50.1197 76.1578C50.1197 76.1578 49.6207 77.244 48.2996 76.3046C47.0666 75.1597 47.3602 71.5194 47.4776 70.3745C47.507 70.3745 46.274 71.4607 44.8061 70.4919C43.7199 69.7873 43.808 68.0846 44.1016 67.3507C45.0116 65.0021 48.9748 66.5581 49.0335 67.4975C48.0354 66.6461 45.8336 67.3213 45.4813 68.2021C44.8648 69.758 45.9804 70.5213 47.0666 69.3176C48.1528 68.0846 46.9492 67.4975 48.9455 67.703C48.9455 68.9653 48.0941 74.778 48.8574 75.5707Z" fill="white"/>
<path fill-rule="evenodd" clip-rule="evenodd" d="M34.8541 70.2859C34.5018 70.0511 34.4724 69.552 33.9146 69.4052C33.3862 69.2878 32.7991 69.464 32.9458 70.1098C33.2394 71.0492 34.2963 70.7557 34.8541 70.2859ZM32.4174 67.82C32.6523 66.0879 34.0614 65.8237 35.4706 66.4989C36.821 67.1154 36.4687 68.6126 36.4393 69.8456V69.8749C37.4668 70.5208 38.4063 70.5208 38.876 69.2291C39.287 70.9905 38.553 72.1061 36.7329 71.5777C36.4393 71.4896 36.1751 71.3722 35.8815 71.196C35.4706 71.2841 35.0889 71.4309 34.7073 71.5189C31.1551 72.5171 31.7128 68.7594 33.4449 68.3484C34.0908 68.1722 34.7953 68.3777 35.2357 68.8768L35.2651 68.9062V68.8768C35.5293 66.8805 33.6504 66.7337 32.4174 67.82Z" fill="white"/>
<path fill-rule="evenodd" clip-rule="evenodd" d="M52.1158 70.2859C51.7341 70.0511 51.7341 69.552 51.147 69.4052C50.6186 69.2878 50.0608 69.464 50.2076 70.1098C50.5011 71.0492 51.5286 70.7557 52.1158 70.2859ZM49.6498 67.82C49.914 66.0879 51.2938 65.8237 52.7029 66.4989C54.0827 67.1154 53.7304 68.6126 53.7011 69.8456V69.8749C54.6992 70.5208 55.6386 70.5208 56.1377 69.2291C56.5487 70.9905 55.7854 72.1061 53.9653 71.5777C53.7011 71.4896 53.4075 71.3722 53.1433 71.196C52.7323 71.2841 52.3506 71.4309 51.9396 71.5189C48.3874 72.5171 48.9452 68.7594 50.7066 68.3484C51.3525 68.1722 52.0277 68.3777 52.4974 68.8768L52.5268 68.9062V68.8768C52.7616 66.8805 50.8828 66.7337 49.6498 67.82Z" fill="white"/>
<path d="M80.3581 65.3534C80.3874 63.7681 80.4168 62.2122 80.4461 60.6562V60.5388L80.5636 60.5094C83.3231 60.2159 85.4075 61.0085 86.7579 62.2709C87.4918 62.9754 88.0202 63.8268 88.2845 64.7369C88.578 65.6469 88.6074 66.6157 88.4019 67.5258C88.0496 69.023 86.9927 70.4321 85.202 71.2835C84.2038 71.7532 82.824 72.0174 81.6204 71.7825C80.6516 71.6064 79.7709 71.1073 79.3012 70.1679C79.2131 69.9624 79.1251 69.7569 79.0663 69.4927C79.037 69.2578 79.0076 68.9936 79.0076 68.7294L78.9783 68.3478L79.2425 68.6413C79.3599 68.7588 79.448 68.8762 79.5654 68.9936C80.1232 69.6688 80.5636 70.1973 81.591 70.4615C82.0314 70.5789 82.5011 70.5789 82.9415 70.4908C83.4993 70.4028 84.057 70.1973 84.5561 69.9624C85.8478 69.3459 86.5817 68.4065 86.846 67.379C87.0515 66.7038 87.0221 65.9405 86.8166 65.2359C86.6405 64.5314 86.2588 63.8561 85.7304 63.2984C84.879 62.3883 83.6167 61.8012 82.1195 61.8599C82.0608 61.8599 82.002 61.8892 81.9727 61.9479C81.9433 61.9773 81.914 62.0067 81.914 62.0654V69.9331V70.1386L81.7378 70.0798C81.503 70.0211 81.2388 69.9037 81.0039 69.7569C80.7691 69.6101 80.5342 69.434 80.3287 69.2578L80.2993 69.1991V69.1404C80.2993 67.8781 80.3287 66.6157 80.3581 65.3534Z" fill="white"/>
<path fill-rule="evenodd" clip-rule="evenodd" d="M105.194 66.4978C105.752 67.6721 104.93 70.5784 103.902 70.7839C103.256 70.5197 102.346 67.6427 103.315 66.4978C101.407 66.4097 101.143 67.6134 101.524 69.1106C101.965 70.5784 102.2 71.8995 103.756 71.8701C105.106 71.8408 105.869 70.5491 106.368 69.4335C106.721 68.5821 107.631 66.4978 105.194 66.4978Z" fill="white"/>
<path fill-rule="evenodd" clip-rule="evenodd" d="M108.717 67.9359C107.543 70.1964 110.625 70.6661 111.3 69.5505C111.477 68.5524 111.007 68.6992 110.273 68.3469C109.568 67.9946 109.245 67.29 108.717 67.9359ZM109.04 66.4093C106.427 67.5249 107.249 73.5137 110.831 71.4294C114.207 69.4918 110.596 65.7341 109.04 66.4093Z" fill="white"/>
<path d="M121.458 69.6101C121.429 69.3459 121.311 69.1111 121.135 68.9643C121.135 69.4927 120.783 69.8156 120.284 69.9624C119.344 70.256 113.737 70.8725 114.823 69.4047C115.616 68.3184 118.111 67.5845 116.966 66.7038C115.733 65.9112 112.504 65.5589 112.739 67.79C112.739 67.379 114.882 67.0267 115.645 67.2909C114.764 67.9074 112.768 69.4634 113.796 70.5789C115.205 72.1349 122.016 72.7807 121.458 69.6101Z" fill="white"/>
<path fill-rule="evenodd" clip-rule="evenodd" d="M91.5431 70.4316C91.1908 70.1968 91.1908 69.6977 90.6037 69.5509C90.0752 69.4335 89.4881 69.6096 89.6642 70.2848C89.9284 71.1949 90.9853 70.9307 91.5431 70.4316ZM89.1065 67.9656C89.3707 66.2629 90.7504 65.9987 92.1596 66.6446C93.51 67.2904 93.1871 68.7583 93.1577 70.0206C94.1559 70.6665 95.0953 70.6665 95.5944 69.4041C96.0054 71.1655 95.2421 72.2811 93.4219 71.7233C93.1577 71.6646 92.8642 71.5178 92.5999 71.371H92.5706C92.1889 71.4298 91.7779 71.5765 91.3963 71.694C87.8441 72.6628 88.4019 68.9051 90.1633 68.4941C90.8092 68.3473 91.4844 68.5528 91.9541 69.0518L91.9834 69.0812V69.0518C92.2183 67.0556 90.3394 66.8794 89.1065 67.9656Z" fill="white"/>
<path fill-rule="evenodd" clip-rule="evenodd" d="M97.5611 71.8708L97.6198 68.9938C99.1758 69.6397 100.409 69.2287 100.614 67.526C99.5281 67.8489 98.6473 68.4948 97.9721 67.2324C97.796 66.9095 97.7373 66.6159 97.4731 66.3223C96.3575 67.526 96.2401 66.6453 96.1814 69.17C96.152 70.6672 96.2107 72.0176 97.5611 71.8708Z" fill="white"/>
<path fill-rule="evenodd" clip-rule="evenodd" d="M124.834 70.4316C124.482 70.1968 124.482 69.6977 123.894 69.5509C123.366 69.4335 122.779 69.6096 122.955 70.2848C123.219 71.1949 124.276 70.9307 124.834 70.4316ZM128.973 70.3142V70.2555C128.973 69.9913 128.944 69.6977 128.885 69.4041C128.386 70.6665 127.447 70.6665 126.448 70.0206C126.478 68.7583 126.801 67.2904 125.45 66.6446C124.041 65.9987 122.661 66.2629 122.397 67.9656C123.63 66.8794 125.509 67.0556 125.274 69.0518V69.0812L125.245 69.0518C124.775 68.5528 124.1 68.3473 123.454 68.4941C121.693 68.9051 121.135 72.6628 124.687 71.694C125.069 71.5765 125.48 71.4298 125.861 71.371H125.891C126.155 71.5178 126.448 71.6646 126.713 71.7233C128.21 72.1637 128.973 71.5178 128.973 70.3142Z" fill="white"/>
</svg>
