<svg width="121" height="55" viewBox="0 0 121 55" fill="none" xmlns="http://www.w3.org/2000/svg">
<path d="M80.9665 27.8269V44.6853H76.1812V27.8269H70.8081V23.9043H86.3699V27.8269H80.9665Z" fill="white"/>
<path d="M98.2588 40.8888C98.6479 40.7427 98.9677 40.4554 99.1544 40.0841C99.3393 39.5379 99.4248 38.9628 99.4066 38.3864C99.4279 37.8197 99.3424 37.254 99.1544 36.719C98.9642 36.3395 98.6313 36.051 98.2286 35.9168C97.6266 35.7434 97.0002 35.6701 96.3745 35.6999H93.8746V41.1032H96.3745C97.01 41.1332 97.6463 41.0608 98.2588 40.8888ZM97.7947 32.1506C98.1253 32.0039 98.3897 31.7396 98.5363 31.409C98.6966 30.9106 98.7699 30.3884 98.7533 29.8651C98.7681 29.3519 98.6947 28.84 98.5363 28.3516C98.3913 28.0198 98.1265 27.755 97.7947 27.61C97.2851 27.4536 96.7535 27.3812 96.2206 27.3955H93.8746V32.3776H96.1903C96.7337 32.386 97.275 32.3094 97.7947 32.1506ZM96.715 23.9043C101.039 23.9043 103.2 25.7542 103.198 29.454C103.198 30.7808 102.921 31.8 102.303 32.5719C101.685 33.3438 100.822 33.7146 99.7093 33.8079C101.099 33.8685 102.212 34.3326 102.989 35.1651C103.766 35.9975 104.131 37.1831 104.131 38.6841C104.131 42.6672 101.692 44.6752 96.8437 44.6752H89.2432V23.9043H96.715Z" fill="white"/>
<path d="M108.912 42.34C107.338 40.549 106.533 37.8927 106.533 34.3106C106.533 27.1802 109.703 23.609 116.043 23.5973C117.534 23.5833 119.017 23.823 120.427 24.3061L119.532 28.09C118.535 27.5993 117.434 27.3561 116.323 27.3811C114.963 27.3811 113.944 27.5955 113.266 27.9664C112.587 28.3372 112.06 29.0485 111.782 30.0349C111.505 31.0212 111.351 32.4137 111.351 34.2955C111.351 36.1773 111.505 37.5749 111.782 38.5259C112.06 39.4769 112.524 40.163 113.233 40.5439C113.942 40.9248 114.933 41.1292 116.23 41.1292C117.532 41.1674 118.822 40.8583 119.966 40.2336L120.831 44.1563C119.298 44.7251 117.672 44.9973 116.038 44.9584C112.865 44.9635 110.486 44.1008 108.912 42.34Z" fill="white"/>
<path d="M27.4273 30.5139C27.6796 33.0137 27.7982 34.3431 25.7599 36.5025C23.6283 38.7576 18.288 42.8947 12.8216 46.0454C10.5059 47.3722 7.38799 48.9766 5.04199 49.8292C3.27619 50.4473 1.83075 50.7247 1.08911 49.4584C0.624961 48.626 0.836857 47.8843 1.08911 47.236C3.00375 42.0799 8.46765 32.4461 12.0497 26.1775C12.4205 25.5671 12.7913 24.8936 13.1622 24.2453C18.6589 14.7654 25.9441 3.15651 27.3971 1.27215C27.5812 1.01989 27.9823 0.717183 28.3229 0.901331C28.6003 1.05773 28.6003 1.40585 28.5751 1.64297C28.5751 1.67324 28.4818 2.01379 28.4515 2.16766C26.0677 11.7408 26.3451 21.1273 27.4273 30.5139Z" fill="white"/>
<path d="M35.4542 33.4475C33.1384 32.3956 31.9226 31.8406 31.1002 29.0002C30.2047 26.0362 29.3218 19.3362 29.3218 13.0373C29.3218 10.3811 29.4782 6.86208 29.9095 4.39247C30.2501 2.56865 30.7445 1.14844 32.2253 1.14844C33.151 1.14844 33.6757 1.7362 34.1399 2.29117C37.6463 6.49126 43.2363 16.0619 46.8789 22.27C47.2497 22.9183 47.6205 23.5666 47.9914 24.2452C53.4553 33.7553 59.8777 45.8586 60.7733 48.0204C60.8969 48.3282 60.9902 48.8226 60.6497 49.0295C60.5193 49.0771 60.3783 49.0879 60.2421 49.0608C60.106 49.0336 59.9799 48.9696 59.8777 48.8756C59.8475 48.8453 59.6003 48.5981 59.4767 48.5048C52.3756 41.661 44.1016 37.1834 35.4542 33.4475Z" fill="white"/>
<path d="M28.8779 38.9369C30.9464 37.4561 32.0286 36.6842 34.932 37.3628C37.9289 38.1044 44.1647 40.6674 49.6614 43.8156C51.9468 45.145 54.9109 47.0268 56.8255 48.6337C58.2457 49.837 59.2018 50.9797 58.4929 52.246C57.9884 53.0785 57.2568 53.2349 56.5455 53.3585C51.1421 54.2843 40.0579 54.3448 32.8635 54.4079H30.5831C19.6225 54.3776 5.94512 53.8832 3.59155 53.5729C3.25353 53.5123 2.78937 53.3585 2.81965 52.9549C2.83281 52.8171 2.88841 52.6868 2.97878 52.582C3.06915 52.4771 3.18983 52.4029 3.32416 52.3696C3.49519 52.306 3.67053 52.2545 3.84886 52.2157C13.3161 49.4712 21.3127 44.5622 28.8779 38.9369Z" fill="white"/>
</svg>
