<svg width="159" height="25" viewBox="0 0 159 25" fill="none" xmlns="http://www.w3.org/2000/svg">
<path d="M151.559 12.6358L158.836 24.2618L143.83 24.257L151.559 12.6358Z" fill="white"/>
<path d="M10.0689 19.17C7.42774 19.17 5.22316 18.2734 3.45514 16.4803C1.68711 14.6653 0.803101 12.4676 0.803101 9.88723C0.803101 7.32874 1.69803 5.15293 3.48788 3.35979C5.27773 1.5448 7.54779 0.637297 10.298 0.637297C13.6813 0.637297 16.2024 1.96028 17.8613 4.60624L13.7031 7.62395C12.8737 6.46497 11.8041 5.88548 10.4945 5.88548C9.3813 5.88548 8.49728 6.26817 7.84246 7.03353C7.18764 7.79889 6.86022 8.75012 6.86022 9.88723C6.86022 11.0462 7.18764 12.0084 7.84246 12.7737C8.49728 13.5391 9.34856 13.9218 10.3963 13.9218C11.0948 13.9218 11.6841 13.7687 12.1643 13.4626C12.6663 13.1564 13.1902 12.6863 13.7359 12.0521L17.9595 15.1026C16.126 17.8142 13.4958 19.17 10.0689 19.17Z" fill="white"/>
<path d="M28.7211 19.17C25.9272 19.17 23.6026 18.2734 21.7472 16.4803C19.8919 14.6653 18.9642 12.4676 18.9642 9.88723C18.9642 7.32874 19.8919 5.14199 21.7472 3.32699C23.6244 1.512 25.9709 0.604496 28.7866 0.604496C31.5805 0.604496 33.9051 1.512 35.7605 3.32699C37.6158 5.12012 38.5435 7.30687 38.5435 9.88723C38.5435 12.4457 37.6049 14.6325 35.7277 16.4475C33.8724 18.2625 31.5369 19.17 28.7211 19.17ZM28.7866 13.889C29.8998 13.889 30.7947 13.5063 31.4714 12.7409C32.148 11.9756 32.4864 11.0243 32.4864 9.88723C32.4864 8.79385 32.1262 7.85355 31.4059 7.06633C30.6856 6.2791 29.7907 5.88548 28.7211 5.88548C27.6079 5.88548 26.713 6.26817 26.0363 7.03353C25.3597 7.79889 25.0214 8.75012 25.0214 9.88723C25.0214 10.9806 25.3815 11.9209 26.1018 12.7081C26.8221 13.4954 27.7171 13.889 28.7866 13.889Z" fill="white"/>
<path d="M41.171 18.7435V0.998111H47.3918V3.4254C48.8542 1.5448 50.6113 0.604496 52.6631 0.604496C55.0641 0.604496 56.7667 1.56666 57.7707 3.491C59.4515 1.56666 61.4268 0.604496 63.6969 0.604496C65.5959 0.604496 67.0802 1.17305 68.1497 2.31016C69.2193 3.44726 69.754 5.04359 69.754 7.09913V18.7435H63.5332V9.1C63.5332 8.1597 63.3149 7.43807 62.8784 6.93512C62.4418 6.4103 61.8525 6.14789 61.1104 6.14789C60.3464 6.14789 59.7243 6.4103 59.2441 6.93512C58.7857 7.43807 58.5565 8.1597 58.5565 9.1V18.7435H52.3357V9.1C52.3357 8.1597 52.1174 7.43807 51.6809 6.93512C51.2443 6.4103 50.655 6.14789 49.9129 6.14789C49.1489 6.14789 48.5377 6.4103 48.0793 6.93512C47.621 7.43807 47.3918 8.1597 47.3918 9.1V18.7435H41.171Z" fill="white"/>
<path d="M72.9529 23.9917V0.998111H79.1738V3.35979C80.6799 1.52293 82.4697 0.604496 84.5433 0.604496C86.7261 0.604496 88.5814 1.45733 90.1093 3.16299C91.6373 4.84678 92.4012 7.07726 92.4012 9.85443C92.4012 12.6535 91.6373 14.9058 90.1093 16.6115C88.6032 18.2953 86.7588 19.1372 84.5761 19.1372C82.437 19.1372 80.6362 18.2843 79.1738 16.5787V23.9917H72.9529ZM82.6443 13.9218C83.6702 13.9218 84.5324 13.5391 85.2309 12.7737C85.9294 12.0084 86.2786 11.0243 86.2786 9.82162C86.2786 8.66265 85.9294 7.71142 85.2309 6.96792C84.5324 6.20256 83.6702 5.81988 82.6443 5.81988C81.6403 5.81988 80.789 6.20256 80.0905 6.96792C79.3921 7.73328 79.0428 8.70639 79.0428 9.88723C79.0428 11.0462 79.3921 12.0084 80.0905 12.7737C80.789 13.5391 81.6403 13.9218 82.6443 13.9218Z" fill="white"/>
<path d="M100.154 19.1372C98.4075 19.1372 96.9778 18.6561 95.8646 17.6939C94.7514 16.7099 94.1948 15.3432 94.1948 13.5938C94.1948 11.8006 94.8169 10.423 96.0611 9.46081C97.3052 8.49864 98.9969 8.01756 101.136 8.01756C102.686 8.01756 104.104 8.24717 105.392 8.70638V8.41117C105.392 6.48684 104.214 5.52467 101.856 5.52467C100.263 5.52467 98.6367 5.85268 96.9778 6.50871L95.7009 2.11335C97.9273 1.19492 100.317 0.735701 102.871 0.735701C105.927 0.735701 108.175 1.45733 109.616 2.90058C110.882 4.14702 111.515 6.02762 111.515 8.54238V18.7435H105.36V16.9067C104.028 18.3937 102.293 19.1372 100.154 19.1372ZM102.38 15.2338C103.297 15.2338 104.039 14.9714 104.607 14.4466C105.174 13.8999 105.458 13.1892 105.458 12.3145V11.4945C104.737 11.1883 103.93 11.0353 103.035 11.0353C102.14 11.0353 101.442 11.243 100.94 11.6585C100.437 12.0521 100.186 12.5988 100.186 13.2985C100.186 13.889 100.383 14.3591 100.776 14.709C101.191 15.0589 101.725 15.2338 102.38 15.2338Z" fill="white"/>
<path d="M121.718 19.1372C118.553 19.1372 115.759 18.2625 113.336 16.5131L115.661 12.7409C117.713 14.0967 119.743 14.7746 121.751 14.7746C122.799 14.7746 123.322 14.4357 123.322 13.7578C123.322 13.4298 123.104 13.1673 122.668 12.9705C122.253 12.7737 121.522 12.5332 120.474 12.2489C118.4 11.6804 116.829 11.0025 115.759 10.2152C114.712 9.40614 114.188 8.17063 114.188 6.50871C114.188 4.67184 114.843 3.23952 116.152 2.21175C117.484 1.16212 119.197 0.637297 121.293 0.637297C124.021 0.637297 126.455 1.32612 128.594 2.70377L126.466 6.63991C124.501 5.54654 122.755 4.99985 121.227 4.99985C120.267 4.99985 119.786 5.306 119.786 5.91829C119.786 6.22443 119.994 6.48684 120.409 6.70551C120.823 6.90232 121.576 7.16473 122.668 7.49274C123.672 7.77702 124.501 8.0613 125.156 8.34557C125.811 8.60798 126.455 8.95786 127.088 9.39521C127.721 9.83256 128.19 10.3683 128.496 11.0025C128.801 11.6148 128.954 12.3473 128.954 13.2001C128.954 15.1026 128.299 16.5677 126.989 17.5955C125.68 18.6233 123.923 19.1372 121.718 19.1372Z" fill="white"/>
<path d="M138.217 19.1372C135.052 19.1372 132.258 18.2625 129.835 16.5131L132.16 12.7409C134.211 14.0967 136.241 14.7746 138.249 14.7746C139.297 14.7746 139.821 14.4357 139.821 13.7578C139.821 13.4298 139.603 13.1673 139.166 12.9705C138.751 12.7737 138.02 12.5332 136.972 12.2489C134.899 11.6804 133.327 11.0025 132.258 10.2152C131.21 9.40614 130.686 8.17063 130.686 6.50871C130.686 4.67184 131.341 3.23952 132.651 2.21175C133.982 1.16212 135.696 0.637297 137.791 0.637297C140.519 0.637297 142.953 1.32612 145.092 2.70377L142.964 6.63991C141 5.54654 139.253 4.99985 137.726 4.99985C136.765 4.99985 136.285 5.306 136.285 5.91829C136.285 6.22443 136.492 6.48684 136.907 6.70551C137.322 6.90232 138.075 7.16473 139.166 7.49274C140.17 7.77702 141 8.0613 141.654 8.34557C142.309 8.60798 142.953 8.95786 143.586 9.39521C144.219 9.83256 144.688 10.3683 144.994 11.0025C145.3 11.6148 145.452 12.3473 145.452 13.2001C145.452 15.1026 144.798 16.5677 143.488 17.5955C142.178 18.6233 140.421 19.1372 138.217 19.1372Z" fill="white"/>
</svg>
