<svg width="82" height="89" viewBox="0 0 82 89" fill="none" xmlns="http://www.w3.org/2000/svg">
<path d="M77.1908 42.5066C77.672 42.7282 78.0767 43.0875 78.3537 43.5391C78.6307 43.9907 78.7676 44.5143 78.747 45.0437C78.7265 45.5731 78.5494 46.0845 78.2382 46.5132C77.9269 46.9419 77.4956 47.2687 76.9986 47.4523C76.5016 47.6359 75.9614 47.6679 75.4462 47.5445C74.931 47.421 74.464 47.1475 74.1043 46.7586C73.7445 46.3697 73.5081 45.8828 73.4251 45.3596C73.342 44.8364 73.416 44.3003 73.6377 43.8191C73.7847 43.4995 73.9932 43.212 74.2514 42.9731C74.5096 42.7342 74.8123 42.5485 75.1423 42.4266C75.4722 42.3047 75.823 42.2491 76.1745 42.2628C76.526 42.2765 76.8713 42.3594 77.1908 42.5066Z" fill="white"/>
<path d="M10.9849 49.2903C11.1969 49.3876 11.3754 49.5456 11.4977 49.7443C11.62 49.943 11.6806 50.1735 11.672 50.4066C11.6634 50.6398 11.5859 50.8652 11.4493 51.0543C11.3127 51.2434 11.1231 51.3878 10.9045 51.4693C10.6859 51.5508 10.448 51.5656 10.221 51.512C9.99389 51.4583 9.78782 51.3386 9.62876 51.1679C9.4697 50.9972 9.36478 50.7832 9.32726 50.553C9.28973 50.3227 9.32129 50.0865 9.41794 49.8741C9.48229 49.7327 9.57391 49.6054 9.68756 49.4995C9.80121 49.3936 9.93465 49.3112 10.0802 49.2569C10.2258 49.2027 10.3806 49.1777 10.5359 49.1834C10.6911 49.1892 10.8437 49.2255 10.9849 49.2903Z" fill="white"/>
<path d="M6.69425 41.6063C7.02323 41.7582 7.29976 42.0043 7.48888 42.3134C7.67799 42.6225 7.77119 42.9808 7.75668 43.3428C7.74217 43.7049 7.62061 44.0546 7.40737 44.3476C7.19413 44.6405 6.89879 44.8637 6.5587 44.9888C6.21862 45.1139 5.84907 45.1354 5.49679 45.0505C5.14451 44.9656 4.82533 44.7781 4.57961 44.5117C4.3339 44.2454 4.17269 43.9122 4.11638 43.5542C4.06006 43.1962 4.11117 42.8296 4.26324 42.5007C4.36385 42.2821 4.50656 42.0854 4.6832 41.922C4.85984 41.7585 5.06695 41.6314 5.29271 41.5481C5.51847 41.4647 5.75844 41.4266 5.99892 41.436C6.2394 41.4454 6.47568 41.502 6.69425 41.6028" fill="white"/>
<path d="M66.7758 41.2688C67.1053 41.4203 67.3824 41.666 67.5722 41.975C67.7619 42.284 67.8558 42.6423 67.8419 43.0047C67.828 43.367 67.7069 43.7171 67.4941 44.0106C67.2812 44.3042 66.986 44.528 66.6459 44.6537C66.3059 44.7795 65.9361 44.8016 65.5835 44.7172C65.2308 44.6328 64.9111 44.4458 64.6648 44.1797C64.4185 43.9136 64.2566 43.5804 64.1996 43.2223C64.1427 42.8642 64.1932 42.4973 64.3448 42.1679C64.5483 41.7266 64.9186 41.384 65.3743 41.2155C65.8301 41.0469 66.3342 41.0661 66.7758 41.2688Z" fill="white"/>
<path d="M29.4606 46.8635C29.79 47.0151 30.0671 47.2609 30.2568 47.57C30.4465 47.8791 30.5402 48.2375 30.5262 48.5998C30.5122 48.9622 30.391 49.3122 30.178 49.6057C29.965 49.8992 29.6697 50.1229 29.3295 50.2485C28.9894 50.3742 28.6196 50.3961 28.267 50.3115C27.9143 50.227 27.5947 50.0398 27.3485 49.7735C27.1023 49.5073 26.9406 49.174 26.8838 48.8158C26.827 48.4577 26.8778 48.0907 27.0296 47.7614C27.1302 47.5428 27.2729 47.3461 27.4496 47.1827C27.6262 47.0192 27.8333 46.8922 28.0591 46.8088C28.2848 46.7254 28.5248 46.6873 28.7653 46.6967C29.0058 46.7061 29.242 46.7628 29.4606 46.8635Z" fill="white"/>
<path d="M21.3619 40.8383C21.8431 41.0599 22.2478 41.4192 22.5249 41.8708C22.8019 42.3223 22.9388 42.8459 22.9182 43.3753C22.8976 43.9047 22.7205 44.4161 22.4093 44.8448C22.0981 45.2736 21.6667 45.6004 21.1698 45.784C20.6728 45.9675 20.1325 45.9996 19.6174 45.8761C19.1022 45.7526 18.6352 45.4791 18.2754 45.0902C17.9156 44.7013 17.6793 44.2145 17.5962 43.6913C17.5132 43.168 17.5872 42.6319 17.8088 42.1507C18.106 41.5055 18.6472 41.0048 19.3136 40.7587C19.9799 40.5126 20.7167 40.5412 21.3619 40.8383Z" fill="white"/>
<path d="M43.4429 53.4761C43.4429 53.4761 46.9773 31.5072 74.9794 20.6319C77.289 25.1179 78.6493 32.9807 78.6493 32.9807C78.6493 32.9807 56.9022 34.3854 43.4429 53.4761Z" fill="white"/>
<path d="M39.6367 43.2699C39.6367 43.2699 40.454 24.9381 19.1085 13.4404C14.7883 16.0092 13.2622 23.1493 13.2622 23.1493C13.2622 23.1493 33.9293 24.5096 39.6367 43.2699Z" fill="white"/>
<path d="M42.4915 45.5811C42.4915 45.5811 37.1893 28.0211 48.0658 8.45509C52.2798 9.55383 58.2616 13.4397 58.2616 13.4397C58.2616 13.4397 43.3077 26.9562 42.4915 45.5811Z" fill="white"/>
<path d="M40.2588 47.2877C40.2588 47.2877 27.9904 23.2871 4.22098 26.679C1.14427 30.1352 0.601318 37.2251 0.601318 37.2251C0.601318 37.2251 25.2383 29.8445 40.2588 47.2877Z" fill="white"/>
<path d="M38.5491 28.3557C38.5491 28.3557 37.051 9.12479 41.1985 0.69916C36.0971 -0.255963 30.5275 2.05478 30.5275 2.05478C30.5275 2.05478 33.2469 18.3094 38.5491 28.3557Z" fill="white"/>
<path d="M52.2793 30.1462C52.2793 30.1462 58.2611 17.0758 71.8558 9.91701C74.2763 12.2523 76.0709 15.1293 76.0709 15.1293C76.0709 15.1293 60.2998 20.1501 52.2793 30.1462Z" fill="white"/>
<path d="M15.9058 77.3063L14.138 71.6293H6.07197L4.30418 77.3063H1.60461L3.40393 71.6293H2.03897V68.9612H4.21077L8.8918 54.0401H11.3146L18.5738 77.3063H15.9058ZM10.105 58.7304L6.90683 68.9612H13.2973L10.105 58.7304Z" fill="white"/>
<path d="M29.757 77.3069V60.7721L24.2353 57.4841V77.3069H21.691V52.9863L29.757 57.7947V53.9473H32.3001V77.3069H29.757Z" fill="white"/>
<path d="M47.2531 77.3063V71.7846H39.7149V77.3063H37.1402V71.7846H35.4962V69.2099H37.1402V53.8848H39.7149V69.2099H47.2531V53.8848H49.8289V77.3063H47.2531Z" fill="white"/>
<path d="M54.0673 69.9397V61.2992C54.0673 56.5633 56.2005 53.6162 59.756 53.6162C63.3114 53.6162 65.4178 56.5633 65.4178 61.2992V69.9397C65.4178 74.7083 63.3161 77.6566 59.756 77.6566C56.1959 77.6566 54.0673 74.7118 54.0673 69.9397ZM63.1199 69.9397V61.2992C63.1199 58.0871 61.9721 56.2656 59.756 56.2656C57.5141 56.2656 56.3698 58.0871 56.3698 61.2992V69.9397C56.3698 73.1857 57.5188 75.0072 59.756 75.0072C61.9745 75.0072 63.1199 73.1857 63.1199 69.9397Z" fill="white"/>
<path d="M32.3438 85.6217C32.0168 85.8942 31.5498 86.0304 30.9426 86.0304H29.775V88.0375H28.6249V82.4551H31.022C31.5747 82.4551 32.0149 82.5991 32.3426 82.8871C32.6703 83.1751 32.835 83.6208 32.8365 84.2241C32.8365 84.8826 32.6731 85.3497 32.3461 85.6252M31.4552 83.6146C31.2773 83.4808 31.0574 83.4149 30.8352 83.4289H29.7843V85.0718H30.8352C31.0599 85.086 31.2816 85.0142 31.4552 84.8709C31.6031 84.7378 31.6771 84.5257 31.6771 84.2346C31.6771 83.9434 31.6031 83.7368 31.4552 83.6146Z" fill="white"/>
<path d="M36.3439 82.457H37.6645L39.639 88.0383H38.3744L38.0054 86.8905H35.9504L35.5721 88.0383H34.3519L36.3439 82.457ZM36.2668 85.9284H37.6972L36.9966 83.7321L36.2668 85.9284Z" fill="white"/>
<path d="M45.4773 82.6004C45.6801 82.6864 45.8592 82.8202 45.9992 82.9904C46.1173 83.1301 46.2123 83.2878 46.2806 83.4575C46.3517 83.6438 46.3865 83.8419 46.3833 84.0413C46.3814 84.314 46.3129 84.5822 46.1837 84.8224C46.0433 85.0844 45.8048 85.2801 45.5205 85.3665C45.7488 85.4455 45.9424 85.6016 46.0681 85.8079C46.1747 85.9978 46.2281 86.2886 46.2281 86.6801V87.0549C46.2221 87.2284 46.2327 87.4019 46.2596 87.5734C46.2707 87.6387 46.2956 87.7009 46.3327 87.7559C46.3697 87.8108 46.418 87.8573 46.4744 87.8921V88.0381H45.19C45.1538 87.9143 45.1293 87.8151 45.1141 87.7392C45.0836 87.5806 45.0672 87.4196 45.0651 87.2581L45.0569 86.7397C45.0569 86.3894 44.9904 86.1454 44.8724 86.0274C44.7545 85.9095 44.5326 85.8488 44.208 85.8488H43.0684V88.0381H41.9288V82.4556H44.5992C44.8991 82.4493 45.1976 82.4984 45.4796 82.6004M43.0684 83.4259V84.9252H44.3236C44.5152 84.9355 44.7068 84.9044 44.8853 84.8341C45.1056 84.7275 45.2157 84.5181 45.2157 84.2059C45.2157 83.8673 45.1095 83.6408 44.8958 83.524C44.7264 83.4487 44.5414 83.415 44.3563 83.4259H43.0684Z" fill="white"/>
<path d="M49.0709 82.457H50.2187V84.7561L52.3753 82.457H53.8816L51.5918 84.7526L53.9995 88.0383H52.5003L50.7803 85.6015L50.2187 86.1713V88.0383H49.0709V82.457Z" fill="white"/>
<path d="M79.7914 73.7856C79.0784 73.134 78.3957 72.2291 77.7434 71.0708C77.0194 69.7476 76.4171 68.3614 75.9441 66.9292C75.5985 65.9173 75.2801 64.8466 74.989 63.7171C76.1601 63.4041 77.1774 62.6758 77.8512 61.6681C78.525 60.6603 78.8092 59.4419 78.6508 58.24C78.4924 57.0382 77.9023 55.935 76.9905 55.1361C76.0787 54.3373 74.9075 53.8974 73.6952 53.8985H69.9822V53.916H69.9144V77.306H72.4715V64.218C72.9192 66.0378 73.4939 67.824 74.1915 69.5634C74.7683 71.0273 75.5073 72.422 76.3948 73.7213C77.2004 74.8695 78.0742 75.7534 79.0161 76.373C79.8878 76.9738 80.9197 77.2992 81.9784 77.3071V74.7629C81.2334 74.7629 80.5045 74.4371 79.7914 73.7856ZM76.3049 58.8959C76.3039 59.5877 76.0287 60.2508 75.5394 60.7398C75.0502 61.2288 74.387 61.5038 73.6952 61.5044H72.4715V56.2863H73.6952C74.3871 56.2872 75.0503 56.5624 75.5395 57.0516C76.0287 57.5408 76.3039 58.2041 76.3049 58.8959Z" fill="white"/>
</svg>
