<svg width="172" height="48" viewBox="0 0 172 48" fill="none" xmlns="http://www.w3.org/2000/svg">
<path d="M27.3342 16.5709C23.178 16.5709 19.8097 19.9318 19.8097 24.0788C19.8097 28.2248 23.178 31.5865 27.3342 31.5865C31.4898 31.5865 34.8585 28.2248 34.8585 24.0788C34.8585 19.9318 31.4898 16.5709 27.3342 16.5709ZM27.217 41.963C25.6134 41.963 24.3128 43.2603 24.3128 44.8608C24.3128 46.4604 25.6134 47.7581 27.217 47.7581C28.821 47.7581 30.1206 46.4604 30.1206 44.8608C30.1206 43.2603 28.821 41.963 27.217 41.963ZM45.3198 36.6843C46.9241 36.6843 48.2242 35.3876 48.2242 33.7871C48.2242 32.1866 46.9241 30.8893 45.3198 30.8893C43.7165 30.8893 42.4164 32.1866 42.4164 33.7871C42.4164 35.3876 43.7165 36.6843 45.3198 36.6843ZM41.5903 13.3687C41.5903 14.9687 42.8899 16.266 44.4939 16.266C46.0975 16.266 47.3975 14.9687 47.3975 13.3687C47.3975 11.7682 46.0975 10.4709 44.4939 10.4709C42.8899 10.4709 41.5903 11.7682 41.5903 13.3687ZM27.0153 6.54149C28.6188 6.54149 29.9189 5.24426 29.9189 3.64421C29.9189 2.04417 28.6188 0.746155 27.0153 0.746155C25.4112 0.746155 24.1111 2.04417 24.1111 3.64421C24.1111 5.24426 25.4112 6.54149 27.0153 6.54149ZM12.1715 14.1773C12.1715 12.5768 10.8714 11.2797 9.26738 11.2797C7.6638 11.2797 6.36336 12.5768 6.36336 14.1773C6.36336 15.7778 7.6638 17.0746 9.26738 17.0746C10.8714 17.0746 12.1715 15.7778 12.1715 14.1773ZM3.31347 21.6294C1.93602 21.6294 0.81897 22.7439 0.81897 24.118C0.81897 25.4928 1.93602 26.6065 3.31347 26.6065C4.69091 26.6065 5.80796 25.4928 5.80796 24.118C5.80796 22.7439 4.69091 21.6294 3.31347 21.6294ZM15.3041 6.0381C16.5769 6.0381 17.6085 5.00871 17.6085 3.73888C17.6085 2.46893 16.5769 1.43999 15.3041 1.43999C14.0318 1.43999 13.0006 2.46893 13.0006 3.73888C13.0006 5.00871 14.0318 6.0381 15.3041 6.0381ZM39.0337 6.17331C40.3797 6.17331 41.4697 5.08523 41.4697 3.74333C41.4697 2.40077 40.3797 1.31269 39.0337 1.31269C37.6888 1.31269 36.5985 2.40077 36.5985 3.74333C36.5985 5.08523 37.6888 6.17331 39.0337 6.17331ZM53.0835 24.363C53.0835 23.0477 52.0149 21.9819 50.6971 21.9819C49.3792 21.9819 48.3107 23.0477 48.3107 24.363C48.3107 25.6779 49.3792 26.7442 50.6971 26.7442C52.0149 26.7442 53.0835 25.6779 53.0835 24.363ZM39.0258 42.3643C37.7469 42.3643 36.7102 43.3987 36.7102 44.6748C36.7102 45.9509 37.7469 46.9853 39.0258 46.9853C40.3047 46.9853 41.3414 45.9509 41.3414 44.6748C41.3414 43.3987 40.3047 42.3643 39.0258 42.3643ZM15.2494 42.2846C13.9545 42.2846 12.9054 43.3318 12.9054 44.6236C12.9054 45.9153 13.9545 46.9633 15.2494 46.9633C16.5442 46.9633 17.5936 45.9153 17.5936 44.6236C17.5936 43.3318 16.5442 42.2846 15.2494 42.2846ZM12.1943 34.5544C12.1943 32.9544 10.8937 31.6572 9.29059 31.6572C7.68657 31.6572 6.38691 32.9544 6.38691 34.5544C6.38691 36.1553 7.68657 37.4521 9.29059 37.4521C10.8937 37.4521 12.1943 36.1553 12.1943 34.5544ZM19.8416 33.1696C17.8744 33.1696 16.2799 34.7611 16.2799 36.724C16.2799 38.6869 17.8744 40.2782 19.8416 40.2782C21.8093 40.2782 23.4034 38.6869 23.4034 36.724C23.4034 34.7611 21.8093 33.1696 19.8416 33.1696ZM12.6328 27.7591C14.6005 27.7591 16.1954 26.168 16.1954 24.2052C16.1954 22.2423 14.6005 20.6517 12.6328 20.6517C10.6664 20.6517 9.07105 22.2423 9.07105 24.2052C9.07105 26.168 10.6664 27.7591 12.6328 27.7591ZM19.8383 8.28209C17.871 8.28209 16.2757 9.87345 16.2757 11.8359C16.2757 13.7989 17.871 15.3903 19.8383 15.3903C21.8059 15.3903 23.4 13.7989 23.4 11.8359C23.4 9.87345 21.8059 8.28209 19.8383 8.28209ZM34.3035 15.3192C36.2712 15.3192 37.8653 13.7277 37.8653 11.7648C37.8653 9.80195 36.2712 8.21059 34.3035 8.21059C32.3359 8.21059 30.7414 9.80195 30.7414 11.7648C30.7414 13.7277 32.3359 15.3192 34.3035 15.3192ZM45.0965 24.3361C45.0965 22.3732 43.5024 20.7822 41.5351 20.7822C39.5676 20.7822 37.9726 22.3732 37.9726 24.3361C37.9726 26.2987 39.5676 27.89 41.5351 27.89C43.5024 27.89 45.0965 26.2987 45.0965 24.3361ZM33.9221 33.3192C31.9549 33.3192 30.3599 34.9107 30.3599 36.8731C30.3599 38.836 31.9549 40.4275 33.9221 40.4275C35.8894 40.4275 37.4839 38.836 37.4839 36.8731C37.4839 34.9107 35.8894 33.3192 33.9221 33.3192Z" fill="white"/>
<path d="M66.8488 26.5881V13.9347H68.5786V26.5881H66.8488Z" fill="white"/>
<path d="M80.581 26.5881H78.9487V21.6203C78.9487 20.3849 78.7299 19.4584 78.2923 18.8407C77.8606 18.2231 77.1745 17.9142 76.2342 17.9142C75.2111 17.9142 74.4098 18.2554 73.8302 18.9378C73.2565 19.6143 72.9697 20.5085 72.9697 21.6203V26.5881H71.3375V16.6524H72.8988L72.9697 18.4084C73.703 17.1495 74.9627 16.5201 76.7487 16.5201C77.4407 16.5201 78.035 16.6377 78.5318 16.873C79.0286 17.1024 79.4248 17.4436 79.7205 17.8966C80.0162 18.3495 80.232 18.8819 80.3681 19.4937C80.51 20.1055 80.581 20.8144 80.581 21.6203V26.5881Z" fill="white"/>
<path d="M83.5261 16.6524V14.3759H85.1584V16.6524H87.8906V17.9407H85.1584V23.6321C85.1584 24.1733 85.25 24.5763 85.4334 24.841C85.6226 25.0998 85.9272 25.241 86.3471 25.2645C86.8143 25.3234 87.3288 25.2969 87.8906 25.1851V26.5352C87.2519 26.6469 86.6694 26.7028 86.143 26.7028C85.2145 26.7028 84.5463 26.4587 84.1382 25.9704C83.7301 25.4822 83.5261 24.7174 83.5261 23.6762V17.9407H82.0003V16.6524H83.5261Z" fill="white"/>
<path d="M94.4551 16.5201C95.1943 16.5201 95.8951 16.6642 96.5575 16.9524C97.2258 17.2407 97.7965 17.6378 98.2696 18.1437C98.7427 18.6554 99.1035 19.2702 99.3518 19.9878C99.6061 20.7055 99.7155 21.4703 99.6801 22.2821H90.8624C91.0161 23.2056 91.4271 23.9527 92.0954 24.5233C92.7637 25.0998 93.5503 25.3881 94.4551 25.3881C95.218 25.3881 95.901 25.1851 96.5043 24.7792C97.1016 24.3851 97.5481 23.8351 97.8438 23.1291L99.2365 23.7998C98.8166 24.6939 98.175 25.4028 97.3115 25.9263C96.4363 26.4499 95.4841 26.7116 94.4551 26.7116C93.497 26.7116 92.6188 26.4999 91.8204 26.0763C91.022 25.6528 90.3833 25.0469 89.9043 24.2586C89.4194 23.4762 89.1769 22.5968 89.1769 21.6203C89.1769 20.6379 89.4194 19.7555 89.9043 18.9731C90.3774 18.1966 91.0161 17.5907 91.8204 17.1554C92.6188 16.7318 93.497 16.5201 94.4551 16.5201ZM94.4551 17.8525C93.5266 17.8525 92.7312 18.1378 92.0688 18.7084C91.4005 19.2849 90.9954 20.0349 90.8535 20.9585H98.0744C97.9207 20.0231 97.5156 19.2731 96.8591 18.7084C96.1967 18.1378 95.3954 17.8525 94.4551 17.8525Z" fill="white"/>
<path d="M101.836 26.5881V16.6524H103.397L103.477 18.576C103.897 17.8642 104.426 17.3466 105.065 17.023C105.703 16.6936 106.508 16.5289 107.478 16.5289V17.9142C106.265 17.9142 105.295 18.2584 104.568 18.9466C103.841 19.6408 103.477 20.532 103.477 21.6203V26.5881H101.836Z" fill="white"/>
<path d="M123.41 26.5881H121.778V21.6203C121.778 20.3849 121.559 19.4584 121.121 18.8407C120.689 18.2231 120.003 17.9142 119.063 17.9142C118.04 17.9142 117.239 18.2554 116.659 18.9378C116.085 19.6143 115.799 20.5085 115.799 21.6203V26.5881H114.166V16.6524H115.728L115.799 18.4084C116.532 17.1495 117.792 16.5201 119.578 16.5201C120.269 16.5201 120.864 16.6377 121.361 16.873C121.857 17.1024 122.254 17.4436 122.549 17.8966C122.845 18.3495 123.061 18.8819 123.197 19.4937C123.339 20.1055 123.41 20.8144 123.41 21.6203V26.5881Z" fill="white"/>
<path d="M130.294 16.5201C131.234 16.5201 132.062 16.6877 132.777 17.023C133.493 17.3583 134.022 17.8201 134.365 18.4084L134.427 16.6524H135.989V26.5881H134.427L134.365 24.8233C133.738 26.0822 132.381 26.7116 130.294 26.7116C129.401 26.7116 128.584 26.491 127.845 26.0498C127.106 25.6204 126.518 25.0116 126.08 24.2233C125.642 23.435 125.423 22.5674 125.423 21.6203C125.423 20.6732 125.642 19.8055 126.08 19.0172C126.512 18.2348 127.1 17.6231 127.845 17.1819C128.584 16.7407 129.401 16.5201 130.294 16.5201ZM128.129 24.2586C128.827 24.9704 129.684 25.3263 130.702 25.3263C131.707 25.3263 132.57 24.9675 133.292 24.2498C134.008 23.538 134.365 22.6615 134.365 21.6203C134.365 20.579 134.011 19.6996 133.301 18.9819C132.585 18.2701 131.719 17.9142 130.702 17.9142C129.684 17.9142 128.827 18.2701 128.129 18.9819C127.419 19.6996 127.065 20.579 127.065 21.6203C127.065 22.6615 127.419 23.5409 128.129 24.2586Z" fill="white"/>
<path d="M139.768 16.6524V14.3759H141.4V16.6524H144.132V17.9407H141.4V23.6321C141.4 24.1733 141.492 24.5763 141.675 24.841C141.864 25.0998 142.169 25.241 142.589 25.2645C143.056 25.3234 143.57 25.2969 144.132 25.1851V26.5352C143.494 26.6469 142.911 26.7028 142.385 26.7028C141.456 26.7028 140.788 26.4587 140.38 25.9704C139.972 25.4822 139.768 24.7174 139.768 23.6762V17.9407H138.242V16.6524H139.768Z" fill="white"/>
<path d="M147.849 14.7288C147.648 14.9288 147.406 15.0288 147.122 15.0288C146.832 15.0288 146.589 14.9288 146.394 14.7288C146.193 14.5288 146.093 14.2847 146.093 13.9964C146.093 13.7141 146.193 13.4758 146.394 13.2817C146.589 13.0876 146.832 12.9905 147.122 12.9905C147.406 12.9905 147.648 13.0876 147.849 13.2817C148.044 13.4817 148.142 13.7229 148.142 14.0053C148.142 14.2876 148.044 14.5288 147.849 14.7288ZM146.297 26.5881V16.6524H147.929V26.5881H146.297Z" fill="white"/>
<path d="M155.168 26.7116C154.21 26.7116 153.331 26.4999 152.533 26.0763C151.735 25.6528 151.096 25.0469 150.617 24.2586C150.132 23.4762 149.889 22.5968 149.889 21.6203C149.889 20.6379 150.132 19.7555 150.617 18.9731C151.09 18.1966 151.732 17.5907 152.542 17.1554C153.34 16.7318 154.216 16.5201 155.168 16.5201C155.871 16.5201 156.546 16.6465 157.19 16.8995C157.841 17.1466 158.409 17.4936 158.893 17.9407C159.378 18.3878 159.76 18.9319 160.038 19.5731C160.316 20.2143 160.455 20.8967 160.455 21.6203C160.455 22.3438 160.316 23.0262 160.038 23.6674C159.76 24.3027 159.378 24.8439 158.893 25.291C158.409 25.7381 157.841 26.0881 157.19 26.341C156.546 26.5881 155.871 26.7116 155.168 26.7116ZM155.168 25.3263C156.179 25.3263 157.042 24.9704 157.758 24.2586C158.474 23.5468 158.831 22.6674 158.831 21.6203C158.831 20.579 158.477 19.6996 157.767 18.9819C157.051 18.2701 156.185 17.9142 155.168 17.9142C154.15 17.9142 153.287 18.2701 152.577 18.9819C151.868 19.6996 151.513 20.579 151.513 21.6203C151.513 22.6615 151.868 23.5409 152.577 24.2586C153.287 24.9704 154.15 25.3263 155.168 25.3263Z" fill="white"/>
<path d="M171.845 26.5881H170.213V21.6203C170.213 20.3849 169.994 19.4584 169.556 18.8407C169.125 18.2231 168.439 17.9142 167.498 17.9142C166.475 17.9142 165.674 18.2554 165.094 18.9378C164.521 19.6143 164.234 20.5085 164.234 21.6203V26.5881H162.602V16.6524H164.163L164.234 18.4084C164.967 17.1495 166.227 16.5201 168.013 16.5201C168.705 16.5201 169.299 16.6377 169.796 16.873C170.293 17.1024 170.689 17.4436 170.985 17.8966C171.28 18.3495 171.496 18.8819 171.632 19.4937C171.774 20.1055 171.845 20.8144 171.845 21.6203V26.5881Z" fill="white"/>
<path d="M66.7775 37.973V31.8994H70.7374V32.5686H67.6078V34.716H70.4692V35.3809H67.6078V37.3038H70.8694V37.973H66.7775Z" fill="white"/>
<path d="M76.6306 37.973H75.8471V35.5885C75.8471 34.9955 75.7421 34.5508 75.532 34.2543C75.3248 33.9578 74.9955 33.8096 74.5441 33.8096C74.053 33.8096 73.6684 33.9733 73.3902 34.3009C73.1148 34.6256 72.9772 35.0548 72.9772 35.5885V37.973H72.1937V33.2039H72.9431L72.9772 34.0467C73.3292 33.4425 73.9338 33.1404 74.7911 33.1404C75.1232 33.1404 75.4085 33.1968 75.647 33.3098C75.8854 33.4199 76.0756 33.5837 76.2175 33.8011C76.3595 34.0185 76.4631 34.2741 76.5284 34.5677C76.5965 34.8614 76.6306 35.2016 76.6306 35.5885V37.973Z" fill="white"/>
<path d="M81.8893 34.0467L81.9191 33.2039H82.6685V37.5368C82.6685 37.8897 82.6032 38.2088 82.4726 38.494C82.3449 38.7792 82.1674 39.0135 81.9403 39.1971C81.7132 39.3806 81.4493 39.5218 81.1484 39.6206C80.8475 39.7194 80.5224 39.7689 80.1733 39.7689C79.7304 39.7689 79.3231 39.6856 78.9512 39.519C78.5822 39.3524 78.2685 39.1152 78.0102 38.8074L78.4445 38.3288C78.8788 38.8399 79.4352 39.0954 80.1136 39.0954C80.6218 39.0954 81.0447 38.9571 81.3825 38.6803C81.7147 38.4065 81.8836 38.014 81.8893 37.5029V37.1259C81.5883 37.7302 80.9369 38.0323 79.9348 38.0323C79.5062 38.0323 79.1144 37.9264 78.7596 37.7147C78.4048 37.5085 78.1223 37.2163 77.9122 36.8379C77.7022 36.4595 77.5971 36.0431 77.5971 35.5885C77.5971 35.1339 77.7022 34.7174 77.9122 34.339C78.1195 33.9635 78.4019 33.6698 78.7596 33.458C79.1173 33.2462 79.509 33.1404 79.9348 33.1404C80.3862 33.1404 80.7836 33.2208 81.1271 33.3818C81.4705 33.5427 81.7246 33.7644 81.8893 34.0467ZM78.8959 36.8549C79.2308 37.1965 79.6424 37.3673 80.1307 37.3673C80.6133 37.3673 81.0277 37.1951 81.374 36.8506C81.7175 36.509 81.8893 36.0882 81.8893 35.5885C81.8893 35.0887 81.7189 34.6665 81.3783 34.3221C81.0348 33.9804 80.6189 33.8096 80.1307 33.8096C79.6424 33.8096 79.2308 33.9804 78.8959 34.3221C78.5552 34.6665 78.3849 35.0887 78.3849 35.5885C78.3849 36.0882 78.5552 36.5104 78.8959 36.8549Z" fill="white"/>
<path d="M83.8948 37.973V31.4674H84.6783V37.973H83.8948Z" fill="white"/>
<path d="M86.6923 32.2806C86.5958 32.3766 86.4794 32.4246 86.3432 32.4246C86.2041 32.4246 86.0877 32.3766 85.994 32.2806C85.8975 32.1846 85.8492 32.0674 85.8492 31.929C85.8492 31.7935 85.8975 31.6791 85.994 31.5859C86.0877 31.4928 86.2041 31.4462 86.3432 31.4462C86.4794 31.4462 86.5958 31.4928 86.6923 31.5859C86.786 31.682 86.8328 31.7977 86.8328 31.9333C86.8328 32.0688 86.786 32.1846 86.6923 32.2806ZM85.9472 37.973V33.2039H86.7306V37.973H85.9472Z" fill="white"/>
<path d="M91.4954 34.2755L90.7204 34.3475C90.6693 34.178 90.5501 34.0369 90.3628 33.9239C90.1726 33.8082 89.9568 33.7503 89.7155 33.7503C89.4146 33.7503 89.1648 33.811 88.9661 33.9324C88.7646 34.0566 88.6638 34.2317 88.6638 34.4576C88.6638 34.5931 88.6979 34.7032 88.766 34.788C88.8341 34.8727 88.9391 34.9489 89.0811 35.0167C89.1549 35.0534 89.3181 35.1084 89.5708 35.1819C89.6502 35.2016 89.7524 35.227 89.8773 35.2581C90.3656 35.371 90.7375 35.491 90.9929 35.6181C91.1462 35.6972 91.2669 35.7805 91.3549 35.868C91.5451 36.0572 91.6387 36.3042 91.6359 36.6092C91.6274 37.0525 91.4528 37.3984 91.1122 37.6469C90.7659 37.8982 90.3117 38.0238 89.7496 38.0238C89.2102 38.0238 88.7646 37.9208 88.4126 37.7147C88.0549 37.5085 87.8363 37.2092 87.7568 36.8167L88.5318 36.7278C88.6056 36.9565 88.7575 37.1288 88.9874 37.2445C89.2202 37.3603 89.4742 37.4182 89.7496 37.4182C90.0647 37.4182 90.3273 37.3518 90.5373 37.2191C90.7446 37.0892 90.8482 36.9057 90.8482 36.6685C90.8482 36.4567 90.7431 36.2859 90.5331 36.156C90.323 36.0233 89.998 35.9075 89.558 35.8087C88.9306 35.659 88.4963 35.4953 88.255 35.3174C88.0081 35.1395 87.8846 34.8614 87.8846 34.483C87.8846 34.0538 88.0521 33.7234 88.387 33.4919C88.7248 33.2575 89.1733 33.1404 89.7326 33.1404C90.2151 33.1404 90.6097 33.2378 90.9163 33.4326C91.2257 33.6274 91.4187 33.9084 91.4954 34.2755Z" fill="white"/>
<path d="M97.2906 37.973H96.5114V35.5885C96.5114 34.9983 96.395 34.555 96.1622 34.2585C95.9294 33.9592 95.5661 33.8096 95.0722 33.8096C94.5811 33.8096 94.178 33.9776 93.8629 34.3136C93.5478 34.6468 93.3902 35.0717 93.3902 35.5885V37.973H92.6067V31.4674H93.3902V34.0467C93.5549 33.7587 93.8033 33.5357 94.1354 33.3775C94.4675 33.2194 94.8607 33.1404 95.3149 33.1404C96.0075 33.1404 96.5099 33.3507 96.8222 33.7714C97.1345 34.1922 97.2906 34.7978 97.2906 35.5885V37.973Z" fill="white"/>
<path d="M104.244 34.2755L103.469 34.3475C103.418 34.178 103.299 34.0369 103.111 33.9239C102.921 33.8082 102.705 33.7503 102.464 33.7503C102.163 33.7503 101.913 33.811 101.715 33.9324C101.513 34.0566 101.412 34.2317 101.412 34.4576C101.412 34.5931 101.446 34.7032 101.515 34.788C101.583 34.8727 101.688 34.9489 101.83 35.0167C101.903 35.0534 102.067 35.1084 102.319 35.1819C102.399 35.2016 102.501 35.227 102.626 35.2581C103.114 35.371 103.486 35.491 103.742 35.6181C103.895 35.6972 104.015 35.7805 104.103 35.868C104.294 36.0572 104.387 36.3042 104.384 36.6092C104.376 37.0525 104.201 37.3984 103.861 37.6469C103.514 37.8982 103.06 38.0238 102.498 38.0238C101.959 38.0238 101.513 37.9208 101.161 37.7147C100.803 37.5085 100.585 37.2092 100.505 36.8167L101.28 36.7278C101.354 36.9565 101.506 37.1288 101.736 37.2445C101.969 37.3603 102.223 37.4182 102.498 37.4182C102.813 37.4182 103.076 37.3518 103.286 37.2191C103.493 37.0892 103.597 36.9057 103.597 36.6685C103.597 36.4567 103.492 36.2859 103.282 36.156C103.072 36.0233 102.747 35.9075 102.307 35.8087C101.679 35.659 101.245 35.4953 101.004 35.3174C100.757 35.1395 100.633 34.8614 100.633 34.483C100.633 34.0538 100.801 33.7234 101.136 33.4919C101.473 33.2575 101.922 33.1404 102.481 33.1404C102.964 33.1404 103.358 33.2378 103.665 33.4326C103.974 33.6274 104.167 33.9084 104.244 34.2755Z" fill="white"/>
<path d="M107.68 37.3801C107.981 37.3801 108.256 37.3123 108.506 37.1768C108.756 37.0384 108.958 36.8436 109.111 36.5923L109.809 36.8972C109.602 37.2473 109.308 37.5241 108.928 37.7274C108.547 37.9307 108.132 38.0323 107.68 38.0323C107.22 38.0323 106.799 37.9307 106.416 37.7274C106.032 37.5241 105.726 37.2332 105.496 36.8549C105.263 36.4793 105.147 36.0572 105.147 35.5885C105.147 35.1169 105.263 34.6934 105.496 34.3178C105.723 33.9451 106.031 33.6543 106.42 33.4453C106.803 33.242 107.223 33.1404 107.68 33.1404C108.132 33.1404 108.547 33.242 108.928 33.4453C109.308 33.6543 109.602 33.9324 109.809 34.2797L109.111 34.5804C108.958 34.3291 108.756 34.1357 108.506 34.0002C108.256 33.8646 107.981 33.7969 107.68 33.7969C107.189 33.7969 106.776 33.9677 106.441 34.3093C106.1 34.651 105.93 35.0774 105.93 35.5885C105.93 36.0939 106.1 36.5188 106.441 36.8633C106.779 37.2078 107.192 37.3801 107.68 37.3801Z" fill="white"/>
<path d="M115.524 37.973H114.744V35.5885C114.744 34.9983 114.628 34.555 114.395 34.2585C114.162 33.9592 113.799 33.8096 113.305 33.8096C112.814 33.8096 112.411 33.9776 112.096 34.3136C111.781 34.6468 111.623 35.0717 111.623 35.5885V37.973H110.84V31.4674H111.623V34.0467C111.788 33.7587 112.036 33.5357 112.368 33.3775C112.7 33.2194 113.094 33.1404 113.548 33.1404C114.24 33.1404 114.743 33.3507 115.055 33.7714C115.367 34.1922 115.524 34.7978 115.524 35.5885V37.973Z" fill="white"/>
<path d="M119.032 38.0323C118.572 38.0323 118.151 37.9307 117.768 37.7274C117.384 37.5241 117.078 37.2332 116.848 36.8549C116.615 36.4793 116.499 36.0572 116.499 35.5885C116.499 35.1169 116.615 34.6934 116.848 34.3178C117.075 33.9451 117.383 33.6543 117.772 33.4453C118.155 33.242 118.575 33.1404 119.032 33.1404C119.37 33.1404 119.694 33.2011 120.003 33.3225C120.315 33.4411 120.588 33.6077 120.821 33.8223C121.053 34.0369 121.236 34.2981 121.37 34.6058C121.503 34.9136 121.57 35.2411 121.57 35.5885C121.57 35.9358 121.503 36.2633 121.37 36.5711C121.236 36.876 121.053 37.1358 120.821 37.3504C120.588 37.565 120.315 37.733 120.003 37.8544C119.694 37.973 119.37 38.0323 119.032 38.0323ZM119.032 37.3673C119.518 37.3673 119.932 37.1965 120.276 36.8549C120.619 36.5132 120.791 36.0911 120.791 35.5885C120.791 35.0887 120.62 34.6665 120.28 34.3221C119.936 33.9804 119.52 33.8096 119.032 33.8096C118.544 33.8096 118.129 33.9804 117.789 34.3221C117.448 34.6665 117.278 35.0887 117.278 35.5885C117.278 36.0882 117.448 36.5104 117.789 36.8549C118.129 37.1965 118.544 37.3673 119.032 37.3673Z" fill="white"/>
<path d="M124.968 38.0323C124.508 38.0323 124.086 37.9307 123.703 37.7274C123.32 37.5241 123.013 37.2332 122.783 36.8549C122.551 36.4793 122.434 36.0572 122.434 35.5885C122.434 35.1169 122.551 34.6934 122.783 34.3178C123.011 33.9451 123.319 33.6543 123.707 33.4453C124.091 33.242 124.511 33.1404 124.968 33.1404C125.306 33.1404 125.629 33.2011 125.939 33.3225C126.251 33.4411 126.523 33.6077 126.756 33.8223C126.989 34.0369 127.172 34.2981 127.306 34.6058C127.439 34.9136 127.506 35.2411 127.506 35.5885C127.506 35.9358 127.439 36.2633 127.306 36.5711C127.172 36.876 126.989 37.1358 126.756 37.3504C126.523 37.565 126.251 37.733 125.939 37.8544C125.629 37.973 125.306 38.0323 124.968 38.0323ZM124.968 37.3673C125.453 37.3673 125.868 37.1965 126.211 36.8549C126.555 36.5132 126.726 36.0911 126.726 35.5885C126.726 35.0887 126.556 34.6665 126.215 34.3221C125.872 33.9804 125.456 33.8096 124.968 33.8096C124.48 33.8096 124.065 33.9804 123.725 34.3221C123.384 34.6665 123.214 35.0887 123.214 35.5885C123.214 36.0882 123.384 36.5104 123.725 36.8549C124.065 37.1965 124.48 37.3673 124.968 37.3673Z" fill="white"/>
<path d="M128.536 37.973V31.4674H129.32V37.973H128.536Z" fill="white"/>
</svg>
