<svg width="174" height="41" viewBox="0 0 174 41" fill="none" xmlns="http://www.w3.org/2000/svg">
<path d="M151.83 0.897987C149.8 1.16726 147.853 1.75758 145.968 2.66895C137.331 6.84262 133.209 16.7642 136.285 25.9918C136.647 27.0896 137.621 29.0988 138.304 30.1448C143.13 37.6015 152.524 40.7498 160.871 37.705C168.369 34.9709 173.392 27.7938 173.392 19.84C173.392 12.1037 168.929 5.372 161.689 2.20291C158.893 0.980839 154.989 0.463013 151.83 0.897987ZM156.263 12.7458C156.335 13.1705 156.459 14.0818 156.553 14.7654C156.811 16.7124 157.329 20.5961 157.443 21.3417C157.495 21.7146 157.619 22.5742 157.712 23.2577C157.806 23.9412 157.899 24.5212 157.93 24.5523C157.951 24.5833 158.013 24.5315 158.065 24.4487C158.116 24.3658 158.748 23.4234 159.483 22.3567C160.208 21.2796 162.114 18.5041 163.709 16.1635L166.598 11.9173H168.494C169.643 11.9173 170.389 11.9587 170.389 12.0209C170.389 12.0727 170.068 12.5698 169.685 13.129C169.291 13.6883 167.23 16.6813 165.107 19.7883C162.974 22.8952 160.674 26.2507 159.981 27.245L158.738 29.0573H156.822H154.916L154.833 28.5913C154.782 28.3324 154.326 25.6293 153.808 22.5845C153.301 19.5397 152.793 16.5777 152.7 16.0081L152.524 14.9725L149.873 14.9414C147.822 14.9207 147.19 14.9518 147.118 15.045C147.066 15.1175 146.962 15.3867 146.9 15.6457C146.828 15.9046 146.548 16.9506 146.268 17.9759C145.989 19.0012 145.575 20.565 145.336 21.4453C144.622 24.1484 144.073 26.1989 143.669 27.6592L143.286 29.0573L141.411 29.0884C140.376 29.0988 139.526 29.0781 139.526 29.0366C139.526 28.9848 139.661 28.467 139.827 27.8663C139.992 27.2657 140.324 26.0332 140.562 25.1219C140.8 24.2105 141.152 22.9056 141.339 22.222C141.536 21.5385 141.857 20.3268 142.074 19.5294C142.281 18.7319 142.633 17.4063 142.851 16.5881C143.068 15.7596 143.224 15.0553 143.193 15.0036C143.162 14.9621 141.929 14.9207 140.448 14.9207C138.978 14.9207 137.766 14.9 137.766 14.8793C137.766 14.7757 138.501 12.0934 138.553 12.0105C138.584 11.9587 142.312 11.9277 147.377 11.938L156.138 11.9691L156.263 12.7458Z" fill="white"/>
<path d="M3.3903 11.7306C3.35923 11.8031 3.2246 12.2795 3.08996 12.7973C2.62392 14.589 1.85754 17.4474 1.21544 19.8397C0.552618 22.2631 0.417984 22.812 0.22121 23.7234C0.0969319 24.2619 -0.00663325 25.1008 -0.00663325 25.5876C-0.0169898 26.3747 0.0140798 26.53 0.283349 27.0168C0.87367 28.1042 1.90932 28.8292 3.47316 29.2434C4.20847 29.4298 4.60202 29.4609 6.34191 29.4609C8.01966 29.4609 8.51678 29.4195 9.31423 29.2331C11.0231 28.8395 12.504 28.0938 13.5915 27.0789C14.8342 25.919 15.3314 24.6969 16.802 19.1148C17.0402 18.2034 17.4648 16.6395 17.7341 15.6453C18.6972 12.0827 18.7697 11.8134 18.7697 11.7098C18.7697 11.6374 18.1483 11.6063 16.9366 11.627L15.1139 11.6581L14.6789 13.2633C14.4407 14.1436 14.0368 15.6143 13.7986 16.5256C13.3429 18.2344 12.4833 21.4346 12.1726 22.5324C11.893 23.5681 11.2613 24.8108 10.7538 25.3597C10.1324 26.0225 9.47993 26.3643 8.42357 26.5611C7.34649 26.7682 6.76653 26.7682 5.83444 26.5714C4.97485 26.3954 4.45702 26.0847 4.18775 25.5876C3.71135 24.7487 3.79421 23.8063 4.5813 20.9271C4.85057 19.9329 5.26483 18.3691 5.51339 17.4577C6.37298 14.2368 6.75617 12.7973 6.85973 12.4348C6.91152 12.238 6.98401 11.9688 7.01508 11.8341L7.07722 11.6063H5.25448C3.89777 11.6063 3.42137 11.6374 3.3903 11.7306Z" fill="white"/>
<path d="M21.359 11.8346C21.2451 12.1143 20.6341 14.4341 20.6341 14.5998C20.6341 14.6827 22.084 14.7137 25.6156 14.7137C28.8054 14.7137 30.5763 14.7448 30.5556 14.8173C30.5349 14.9002 19.3395 24.6456 17.9207 25.8263C17.5375 26.1473 17.4961 26.2509 17.1129 27.6594C16.885 28.4879 16.6986 29.1921 16.6986 29.2336C16.6986 29.2854 20.0541 29.3164 24.1449 29.3164H31.6016L31.757 28.7675C31.8398 28.4775 32.0055 27.8562 32.1298 27.4005C32.2437 26.9448 32.368 26.4891 32.3991 26.3855C32.4509 26.2198 32.1712 26.2095 27.5212 26.2095C24.5488 26.2095 22.6018 26.168 22.6225 26.1163C22.6432 26.0645 23.4718 25.3085 24.466 24.4281C25.4602 23.5582 28.3393 21.0312 30.8663 18.8149C33.3933 16.5986 35.506 14.693 35.5578 14.5688C35.6821 14.2581 36.2724 11.9693 36.2724 11.7725C36.2724 11.6275 35.5682 11.6068 28.8675 11.6068H21.4626L21.359 11.8346Z" fill="white"/>
<path d="M39.2757 11.8653C39.2239 12.0103 39.1721 12.1863 39.1721 12.2381C39.1721 12.2899 38.9443 13.1598 38.6646 14.1748C38.385 15.1794 37.9604 16.7535 37.7222 17.6649C36.9558 20.544 36.4794 22.315 36.3758 22.6878C36.3241 22.8846 36.0859 23.7442 35.858 24.6038C35.6302 25.453 35.2573 26.8408 35.0295 27.6797C34.8017 28.5289 34.6152 29.2435 34.6152 29.2746C34.6152 29.3056 36.9558 29.316 39.8246 29.2849C45.6553 29.2331 45.8728 29.2124 47.4159 28.4875C50.5021 27.0479 52.4284 24.4381 53.4537 20.3058C54.2098 17.3024 54.0855 15.2208 53.0809 13.7087C52.7184 13.1702 51.7242 12.4038 51.0303 12.1449C49.8082 11.6892 49.6736 11.6789 44.4332 11.6374L39.3792 11.5856L39.2757 11.8653ZM48.3376 14.879C49.7565 15.3347 50.1811 16.4532 49.7875 18.7109C49.5079 20.3162 48.8969 22.2736 48.3065 23.4646C47.6644 24.7798 46.6599 25.6705 45.4171 26.0226C44.8371 26.1883 44.2468 26.2297 41.9994 26.2815C39.5864 26.3333 39.2757 26.323 39.2135 26.178C39.1617 26.0433 39.3171 25.4012 39.8971 23.3092C39.9592 23.1124 40.1767 22.2736 40.4045 21.445C40.622 20.6165 40.9431 19.4048 41.1191 18.7523C41.2952 18.0999 41.5852 17.0125 41.7612 16.3393C41.9373 15.6661 42.1237 14.9929 42.1858 14.8479L42.2791 14.589L45.0028 14.6305C47.3227 14.6719 47.8094 14.703 48.3376 14.879Z" fill="white"/>
<path d="M57.7723 11.7303C57.7516 11.8028 57.5341 12.6106 57.2959 13.522C57.0474 14.4333 56.6331 15.9972 56.3638 16.9914C55.8978 18.7313 55.5767 19.9016 54.6032 23.5678C54.365 24.4791 53.9404 26.0533 53.6608 27.0579C53.3812 28.0729 53.1533 28.9946 53.1533 29.1085C53.1533 29.3156 53.1947 29.3156 55.0382 29.2949L56.9127 29.2639L57.2959 27.8657C57.5134 27.0993 57.8862 25.7219 58.1244 24.8106C58.3626 23.8992 58.7458 22.5011 58.9633 21.7036C59.1808 20.9061 59.4915 19.7152 59.6676 19.0627C59.8436 18.4102 60.1647 17.1985 60.3925 16.37C60.61 15.5415 60.9621 14.2158 61.1693 13.4184C61.3764 12.6209 61.5732 11.8856 61.6042 11.7821C61.656 11.6164 61.5214 11.606 59.7297 11.606C58.2798 11.606 57.793 11.6371 57.7723 11.7303Z" fill="white"/>
<path d="M70.3974 11.6791C69.7864 11.7309 68.6264 12.0001 67.9118 12.2487C64.9706 13.2636 62.8889 15.656 61.6047 19.4775C60.3619 23.1644 60.4344 25.8364 61.8015 27.5142C62.2882 28.1045 63.2721 28.7466 64.1213 29.0262C64.7842 29.2437 64.9913 29.2541 70.0038 29.2955L75.2132 29.3369L75.3064 29.0884C75.3582 28.9641 75.5964 28.1045 75.8449 27.1931C76.3938 25.07 76.9531 22.978 77.5434 20.8239C77.8023 19.8814 78.0094 19.0529 78.0094 18.9804C78.0094 18.8769 77.0877 18.8561 73.639 18.8769L69.2789 18.9079L68.8853 20.3061C68.6679 21.0724 68.5125 21.7663 68.5332 21.8285C68.5643 21.932 69.1442 21.9631 70.9463 21.9631C72.2512 21.9631 73.3386 21.9838 73.3697 22.0149C73.4008 22.0459 73.3594 22.2945 73.2869 22.5638C73.2144 22.833 73.0383 23.4959 72.8933 24.0344C72.738 24.5729 72.5723 25.2254 72.5101 25.4843C72.303 26.2818 72.4583 26.2403 69.6724 26.1782C68.2847 26.1471 67.0005 26.0746 66.7726 26.0021C66.0787 25.8054 65.5609 25.3807 65.2502 24.7697C64.9913 24.2726 64.9602 24.0862 64.9602 23.268C64.9706 20.9792 66.1512 17.6444 67.4769 16.2049C68.1811 15.4385 69.2064 14.8689 70.1903 14.7135C70.532 14.6618 72.6862 14.61 74.9853 14.61H79.1486L79.2522 14.3511C79.3454 14.1025 79.8218 12.3626 79.9461 11.8344L79.9979 11.6066L75.4099 11.6273C72.883 11.6377 70.6252 11.6584 70.3974 11.6791Z" fill="white"/>
<path d="M82.5349 11.6792C82.4728 11.7828 81.4993 15.3662 80.3911 19.5295C80.1529 20.4408 79.7697 21.8597 79.5419 22.6882C79.3141 23.5167 78.993 24.6974 78.8273 25.3291C78.6616 25.9505 78.3613 27.069 78.1645 27.8147C77.9677 28.55 77.802 29.1921 77.802 29.2335C77.802 29.2853 78.6616 29.3164 79.718 29.3164C80.7743 29.3164 81.6339 29.2957 81.6339 29.2646C81.6339 29.2128 82.3589 26.5305 82.566 25.7952C82.6696 25.4327 83.0838 23.8999 83.9123 20.7723C84.1505 19.8609 84.5752 18.297 84.8444 17.3028C85.9319 13.2845 86.1804 12.3628 86.2426 11.9899L86.3151 11.6067H84.4509C83.4152 11.6067 82.5556 11.6378 82.5349 11.6792Z" fill="white"/>
<path d="M87.589 11.7309C87.3819 12.3109 86.833 14.5582 86.8744 14.6204C86.9055 14.6721 88.1897 14.7136 89.7225 14.7136C92.3427 14.7136 92.5187 14.7239 92.4669 14.8896C92.4048 15.1175 91.9491 16.847 91.3691 19.0115C91.1309 19.9229 90.7788 21.2278 90.5924 21.9113C90.3956 22.5949 90.0746 23.8066 89.8571 24.604C89.65 25.4015 89.2978 26.7271 89.0804 27.5556C88.8629 28.3842 88.6764 29.1195 88.6764 29.192C88.6764 29.2955 89.0907 29.3162 90.5613 29.2955L92.4359 29.2645L92.5187 29.0055C92.5601 28.8606 92.788 28.001 93.0262 27.0896C93.5854 24.9665 94.2379 22.5327 94.3725 22.0667C94.5382 21.4557 95.2528 18.7837 95.7189 17.0438C95.9571 16.1324 96.1953 15.2314 96.2574 15.045L96.361 14.7136H99.1883C101.001 14.7136 102.047 14.6721 102.088 14.61C102.181 14.465 102.865 11.9484 102.865 11.762C102.865 11.6273 101.881 11.6066 95.2528 11.6066C89.2461 11.6066 87.6201 11.6377 87.589 11.7309Z" fill="white"/>
<path d="M103.175 20.3684C99.8405 25.1841 97.096 29.1714 97.0857 29.2232C97.0546 29.2853 97.7796 29.306 98.9913 29.2957L100.938 29.2646L102.088 27.4833C102.709 26.4994 103.331 25.557 103.465 25.3913L103.703 25.0702H107.484H111.253L111.347 25.298C111.388 25.4327 111.512 26.2612 111.606 27.1415C111.709 28.0218 111.813 28.871 111.844 29.0264L111.906 29.3164H113.905C115.852 29.3164 115.914 29.306 115.914 29.1092C115.914 28.9125 115.51 26.2405 115.292 24.9666C115.168 24.252 115.044 23.4235 114.775 21.7043C114.661 20.9587 114.526 20.0784 114.464 19.7366C114.371 19.1774 114.205 18.121 113.677 14.7655C113.584 14.1959 113.439 13.2638 113.335 12.6942L113.169 11.6585L111.202 11.6378L109.234 11.6067L103.175 20.3684ZM110.311 16.3707C110.363 16.9093 110.528 18.2867 110.684 19.4259C110.829 20.5651 110.943 21.6008 110.943 21.7251V21.9633H108.354C106.81 21.9633 105.764 21.9218 105.764 21.87C105.764 21.8079 106.52 20.6169 107.442 19.1981C108.354 17.7896 109.317 16.3086 109.565 15.9151C109.824 15.5215 110.062 15.2419 110.114 15.2937C110.156 15.3454 110.249 15.8322 110.311 16.3707Z" fill="white"/>
<path d="M120.885 11.8765C120.823 12.0215 120.782 12.1872 120.782 12.239C120.782 12.2908 120.554 13.1607 120.274 14.1756C120.005 15.1802 119.58 16.7544 119.332 17.6658C119.094 18.5772 118.783 19.7164 118.659 20.2031C118.006 22.5748 117.861 23.2272 117.716 24.2111C117.592 25.1535 117.592 25.371 117.726 26.0235C117.903 26.8727 118.244 27.5148 118.845 28.0948C119.332 28.5608 119.756 28.799 120.574 29.0579C121.051 29.2133 121.703 29.2444 124.696 29.2858C126.654 29.3169 128.29 29.2961 128.342 29.2547C128.435 29.1512 129.067 26.8209 129.067 26.5724C129.067 26.4378 128.684 26.417 126.457 26.417C124.655 26.4067 123.63 26.3653 123.184 26.272C122.087 26.0338 121.424 25.3192 121.403 24.3664C121.403 23.9315 121.693 22.5748 122.159 20.8659C122.304 20.3585 122.615 19.1985 122.853 18.2872C123.091 17.3758 123.443 16.0709 123.63 15.3874C124.096 13.6992 124.614 11.7419 124.614 11.6694C124.614 11.6383 123.795 11.6072 122.801 11.6072H120.989L120.885 11.8765Z" fill="white"/>
<path d="M13.809 34.9293C12.7526 35.095 12.0691 35.6232 11.8102 36.4827C11.6134 37.1663 11.6445 38.699 11.862 39.279C12.0795 39.8486 12.6698 40.4182 13.2394 40.615C13.7572 40.7911 15.1864 40.7911 15.6939 40.615C15.9942 40.5114 16.1289 40.5114 16.2117 40.5943C16.336 40.7186 17.527 40.76 17.527 40.6357C17.527 40.5943 17.382 40.4079 17.1956 40.2214L16.8642 39.8797L17.0713 39.3308C17.3406 38.5955 17.3509 37.0316 17.0817 36.3378C16.6571 35.24 15.3728 34.6911 13.809 34.9293ZM15.4971 36.141C16.2221 36.8245 16.2531 38.6783 15.5489 39.424C15.2279 39.7658 14.5236 39.9315 14.0369 39.7761C13.2187 39.5172 12.9287 38.9787 12.9494 37.7566C12.9598 36.7727 13.2498 36.1306 13.7987 35.9131C13.8815 35.8717 14.244 35.8614 14.5961 35.8717C15.1036 35.8924 15.3003 35.9546 15.4971 36.141Z" fill="white"/>
<path d="M20.0645 34.919C19.0703 35.0537 18.5421 35.4058 18.1175 36.2032C17.9207 36.5554 17.8896 36.7936 17.8896 37.8085C17.8896 38.8649 17.9207 39.0513 18.1382 39.4966C18.6146 40.408 19.3188 40.7601 20.6859 40.7497C22.6536 40.729 23.4615 39.8694 23.4615 37.7981C23.4511 35.8511 22.7883 35.0847 20.9448 34.8776C20.748 34.8569 20.3545 34.8776 20.0645 34.919ZM21.5662 36.0686C22.0115 36.3689 22.1669 36.835 22.1772 37.8189C22.1876 39.0306 21.9183 39.538 21.1002 39.7762C20.2613 40.0248 19.4328 39.5484 19.1946 38.6888C18.8839 37.5392 19.2464 36.2343 19.961 35.934C20.3959 35.7579 21.2141 35.8304 21.5662 36.0686Z" fill="white"/>
<path d="M0.614613 35.8622C0.935665 36.3386 1.41206 37.0221 1.67098 37.3949L2.14738 38.0681L2.19916 39.3627L2.25094 40.6572H2.76877H3.28659L3.33838 39.3627L3.39016 38.0681L4.00119 37.1878C4.34296 36.7011 4.81936 36.0175 5.07827 35.655L5.53396 35.0129H4.85043H4.1669L3.48337 36.0486C3.10018 36.6182 2.74805 37.0532 2.69627 37.0221C2.64449 36.991 2.31308 36.525 1.97132 35.9865L1.34993 35.0129H0.687109H0.024292L0.614613 35.8622Z" fill="white"/>
<path d="M5.84501 37.2085C5.88644 39.808 5.92787 39.953 6.8496 40.419C7.326 40.6676 7.54348 40.709 8.23737 40.709C8.69306 40.709 9.24195 40.6572 9.45944 40.5951C10.029 40.419 10.5572 39.9426 10.6919 39.4869C10.7436 39.2798 10.7954 38.182 10.7954 37.0532V35.0129H10.2258H9.65621V36.9289C9.65621 39.1555 9.57336 39.4869 8.99339 39.7251C8.30986 40.0151 7.52277 39.8598 7.20172 39.3834C7.04637 39.1452 7.0153 38.8138 6.98423 37.0532L6.94281 35.0129H6.3732H5.80359L5.84501 37.2085Z" fill="white"/>
<path d="M24.383 37.83L24.4141 40.6573H24.9319H25.4497L25.5015 39.5699L25.5533 38.4825L26.2472 38.4514C27.0446 38.4203 26.9514 38.3375 27.78 39.8184L28.246 40.6573L28.7535 40.6884C29.6131 40.7402 29.6131 40.7195 28.8674 39.5077C28.4946 38.9071 28.1942 38.3789 28.1942 38.3375C28.1942 38.296 28.3392 38.1925 28.5256 38.1096C29.0227 37.8921 29.2816 37.3639 29.2713 36.6183C29.2713 35.9347 29.0952 35.5723 28.6292 35.2512C28.391 35.0855 28.0803 35.0648 26.3508 35.0337L24.3623 34.9923L24.383 37.83ZM27.7075 36.059C28.0182 36.2247 28.0906 36.349 28.0906 36.7322C28.0906 37.2293 27.8214 37.395 26.8789 37.4675C26.4233 37.4986 25.9261 37.4986 25.7708 37.4572C25.5119 37.395 25.5015 37.3536 25.5015 36.7322C25.5015 36.3801 25.5326 36.0487 25.574 36.0176C25.6879 35.8933 27.4693 35.9347 27.7075 36.059Z" fill="white"/>
<path d="M30.3899 37.8299L30.4209 40.6572H30.9905H31.5601L31.5912 37.8299L31.6119 35.0129H30.9905H30.3691L30.3899 37.8299Z" fill="white"/>
<path d="M36.6865 35.0854C35.9409 35.3236 35.6509 35.7689 35.6509 36.6596C35.6509 37.9955 36.1376 38.3166 38.1157 38.327C39.2342 38.327 39.3999 38.3477 39.5864 38.5341C39.7003 38.648 39.7935 38.8551 39.7935 39.0001C39.7935 39.1451 39.7003 39.3523 39.5864 39.4662C39.3999 39.6526 39.2446 39.6733 37.6186 39.6733H35.858V40.1911V40.709H37.5979C40.1145 40.709 40.6634 40.5018 40.9431 39.4351C41.202 38.503 40.7566 37.6124 39.9695 37.457C39.8038 37.4259 39.141 37.3949 38.4989 37.3949C37.484 37.3949 37.2976 37.3638 37.0594 37.1774C36.7176 36.9081 36.7072 36.5353 37.049 36.2039C37.2976 35.945 37.3286 35.945 39.0167 35.945H40.7256V35.4789V35.0129L38.7889 35.0232C37.7118 35.0232 36.7694 35.0543 36.6865 35.0854Z" fill="white"/>
<path d="M41.9892 37.8299L42.0203 40.6572H42.5899H43.1595L43.1906 37.8299L43.2113 35.0129H42.5899H41.9685L41.9892 37.8299Z" fill="white"/>
<path d="M45.7796 35.1579C45.1375 35.3858 44.8579 35.624 44.6301 36.1314C44.4333 36.5768 44.4126 36.8046 44.4022 38.6377V40.6572H44.9718H45.5414L45.5725 39.4973L45.6036 38.327L47.2813 38.3063L48.9591 38.2752L48.9902 37.8299L49.0212 37.3949H47.3124H45.5932V37.0532C45.5932 36.67 45.8004 36.3179 46.1421 36.1314C46.2768 36.0486 46.9085 35.9761 47.6645 35.945L48.9591 35.8932L48.9902 35.4479L49.0212 35.0129H47.592C46.6703 35.0233 46.0282 35.0751 45.7796 35.1579Z" fill="white"/>
<path d="M51.217 35.6017C50.6785 36.8134 49.1146 40.5521 49.1146 40.635C49.1146 40.6764 49.3839 40.7075 49.7049 40.6868L50.2953 40.6557L50.5438 40.0136L50.782 39.3715L51.9937 39.3404C52.6566 39.3197 53.2572 39.3508 53.309 39.3922C53.3712 39.4336 53.5161 39.7443 53.6301 40.0654L53.8579 40.6557L54.4897 40.6868C54.8314 40.7075 55.1214 40.6764 55.1214 40.635C55.1214 40.5936 54.5932 39.3197 53.9408 37.8077L52.7601 35.0632L52.1284 35.0321L51.4863 35.0011L51.217 35.6017ZM52.4701 37.1034C52.6773 37.6316 52.843 38.1287 52.843 38.1909C52.843 38.2841 52.6151 38.3255 52.0662 38.3255C51.1549 38.3255 51.1652 38.3462 51.5795 37.2691C51.7452 36.8549 51.9109 36.4303 51.942 36.3267C51.9834 36.2335 52.0248 36.1506 52.0559 36.1506C52.0766 36.1506 52.2734 36.5856 52.4701 37.1034Z" fill="white"/>
<path d="M55.0173 35.4789V35.945H55.9494H56.8815V38.327V40.709H57.4511H58.0207L58.0414 38.3477L58.0725 35.9967L58.9839 35.9657L59.8849 35.9346V35.4789V35.0129H57.4511H55.0173V35.4789Z" fill="white"/>
<path d="M60.4032 36.9588C60.4032 39.1855 60.5068 39.6722 61.0764 40.1797C61.5217 40.5629 62.2674 40.7286 63.4169 40.6872L64.2869 40.6561V40.2418V39.8276L63.2202 39.7654C61.6046 39.6619 61.5424 39.5583 61.5424 36.7931V35.0118H60.9728H60.4032V36.9588Z" fill="white"/>
<path d="M64.9808 37.8293L65.0119 40.6566L65.6125 40.6877L66.2029 40.7188V37.8604V35.0123H65.5815H64.9601L64.9808 37.8293Z" fill="white"/>
<path d="M69.9516 35.4479L69.9827 35.8932L70.8837 35.9243L71.7951 35.9554L71.8158 38.3063L71.8468 40.6572H72.4165H72.9861L73.0171 38.296L73.0378 35.945H73.9699H74.902V35.479V35.0129H72.4061H69.9205L69.9516 35.4479Z" fill="white"/>
<path d="M76.611 35.1682C76.0932 35.3546 75.5028 35.9967 75.3268 36.5871C75.2439 36.8356 75.1921 37.4363 75.1921 37.9334C75.1921 38.7101 75.2336 38.9276 75.4718 39.4144C75.9585 40.419 76.6421 40.6986 78.6098 40.709H79.7697V40.1911V39.6733H78.4855C77.2634 39.6733 77.1806 39.6629 76.8906 39.4144C76.5385 39.1141 76.3521 38.4616 76.5799 38.3062C76.6524 38.2648 77.3877 38.2234 78.2162 38.2337L79.7179 38.2441L79.749 37.7677L79.7801 37.2913H78.123C76.2796 37.2913 76.2899 37.3017 76.611 36.6285C76.8802 36.0589 77.2117 35.945 78.5684 35.945H79.7697V35.4789V35.0129H78.4027C77.5016 35.0232 76.8802 35.075 76.611 35.1682Z" fill="white"/>
<path d="M80.8052 37.1049C80.8052 38.9794 80.8259 39.2383 81.0123 39.6215C81.4059 40.4397 82.048 40.6986 83.6843 40.709H84.6371V40.2533V39.7976L83.6325 39.7562C82.5554 39.7147 82.2447 39.6008 82.0583 39.1865C81.9858 39.0312 81.9444 38.1509 81.9444 36.9806V35.0129H81.3748H80.8052V37.1049Z" fill="white"/>
<path d="M86.4702 35.1674C85.5381 35.4884 85.1342 36.2134 85.072 37.6012C85.0099 38.9164 85.1549 39.3928 85.7659 39.9935C86.3563 40.5942 86.9052 40.7288 88.5311 40.6874L89.66 40.6563V40.1903V39.7243L88.3033 39.6725C86.7705 39.6103 86.5841 39.5378 86.3977 38.8647C86.232 38.2536 86.3148 38.2226 88.1272 38.2226H89.7221L89.6911 37.7772L89.66 37.3423L88.0547 37.3112C87.1744 37.3008 86.4184 37.249 86.3666 37.1973C86.2527 37.0833 86.522 36.462 86.8119 36.203C87.0087 36.027 87.2262 35.9856 88.3551 35.9441L89.66 35.8923L89.6911 35.447L89.7221 35.012H88.2929C87.3608 35.0224 86.7291 35.0742 86.4702 35.1674Z" fill="white"/>
<path d="M90.0226 35.0854C90.0226 35.1993 92.1975 40.2118 92.3632 40.4708C92.4874 40.6675 92.6117 40.709 93.0156 40.709C93.2952 40.709 93.5645 40.6468 93.6266 40.5743C93.6888 40.5018 94.2377 39.259 94.8384 37.8091C95.4494 36.3592 95.9672 35.1268 95.9983 35.0854C96.0294 35.0439 95.7497 35.0129 95.3976 35.0336L94.7348 35.0647L94.2066 36.3592C93.9063 37.0738 93.5956 37.8195 93.5127 38.0163C93.4299 38.213 93.3056 38.5548 93.2227 38.7619C93.026 39.3315 93.0053 39.3212 92.6221 38.327C92.5599 38.182 92.2389 37.3949 91.9075 36.5663L91.2861 35.0647L90.6543 35.0336C90.3126 35.0129 90.0226 35.0336 90.0226 35.0854Z" fill="white"/>
<path d="M96.3612 37.8293L96.3922 40.6566L96.9929 40.6877L97.5832 40.7188V37.8604V35.0123H96.9618H96.3405L96.3612 37.8293Z" fill="white"/>
<path d="M98.8465 37.8286L98.8776 40.6559L100.172 40.687C100.887 40.7077 101.788 40.6663 102.181 40.6042C102.823 40.4902 102.948 40.4281 103.393 39.9828C103.983 39.3924 104.159 38.7711 104.087 37.5179C104.025 36.4616 103.724 35.8194 103.062 35.3741L102.606 35.0634L100.711 35.0324L98.8258 34.9909L98.8465 37.8286ZM102.233 36.0991C102.668 36.3166 102.813 36.7826 102.813 37.9115C102.813 38.7711 102.782 38.9368 102.575 39.2267C102.295 39.6203 101.995 39.6928 100.845 39.6514L100.017 39.6203L99.9857 37.9115C99.9754 36.9794 99.9857 36.1509 100.006 36.0784C100.089 35.8816 101.85 35.8919 102.233 36.0991Z" fill="white"/>
<path d="M106.137 35.1682C105.599 35.3546 105.081 35.8828 104.863 36.4524C104.573 37.1877 104.615 38.7412 104.936 39.404C105.412 40.3879 106.199 40.709 108.146 40.709H109.286V40.1911V39.6733H108.001C106.769 39.6733 106.697 39.6629 106.396 39.404C106.034 39.1037 105.858 38.4719 106.086 38.3166C106.168 38.2648 106.904 38.2234 107.732 38.2337L109.234 38.2441L109.265 37.7677L109.296 37.2913H107.639C105.796 37.2913 105.837 37.312 106.117 36.6181C106.355 36.0692 106.707 35.945 108.095 35.945H109.286V35.4789V35.0129H107.919C107.018 35.0232 106.396 35.075 106.137 35.1682Z" fill="white"/>
<path d="M110.446 37.8293L110.477 40.6566H111.036H111.585L111.575 38.606C111.554 36.5451 111.606 36.2655 111.896 36.8454C111.979 37.0111 112.497 37.9432 113.066 38.9271L114.081 40.7188L114.713 40.6877L115.345 40.6566L115.376 37.8293L115.397 35.0123H114.827H114.257V36.9283C114.257 37.9846 114.226 38.8442 114.185 38.8442C114.133 38.8442 113.615 37.9743 113.015 36.9283L111.927 35.0123H111.181H110.425L110.446 37.8293Z" fill="white"/>
<path d="M116.66 37.8299L116.691 40.6572H117.26H117.83L117.861 37.8299L117.882 35.0129H117.26H116.639L116.66 37.8299Z" fill="white"/>
<path d="M118.296 35.0751C118.296 35.1062 118.752 35.7897 119.311 36.5975L120.316 38.0681L120.367 39.3627L120.419 40.6572H120.937H121.455L121.507 39.3627L121.558 38.0681L122.087 37.3432C122.366 36.9393 122.853 36.2557 123.143 35.8104L123.692 35.0129H123.019H122.345L121.672 36.0486C121.299 36.6182 120.968 37.0842 120.937 37.0842C120.906 37.0842 120.574 36.6182 120.212 36.0486L119.539 35.0129H118.917C118.576 35.0129 118.296 35.044 118.296 35.0751Z" fill="white"/>
<path d="M125.297 35.1164C124.738 35.2821 124.303 35.6757 124.013 36.2557C123.764 36.7631 123.733 36.9392 123.733 37.8609C123.744 38.7412 123.775 38.9691 123.982 39.404C124.468 40.3879 125.256 40.709 127.203 40.709H128.342V40.1911V39.6733H127.099C126.395 39.6733 125.753 39.6215 125.608 39.5594C125.307 39.4144 124.997 38.8344 125.048 38.503C125.08 38.2752 125.111 38.2752 126.685 38.2545L128.29 38.2441L128.321 37.7677L128.352 37.2913H126.695C125.08 37.2913 125.028 37.2809 125.028 37.0842C125.028 36.7321 125.318 36.266 125.649 36.1003C125.867 35.9864 126.281 35.945 127.151 35.945H128.342V35.4789V35.0129L126.975 35.0232C126.219 35.0232 125.463 35.075 125.297 35.1164Z" fill="white"/>
</svg>
