<svg width="170" height="43" viewBox="0 0 170 43" fill="none" xmlns="http://www.w3.org/2000/svg">
<path fill-rule="evenodd" clip-rule="evenodd" d="M2.70003 23.2928V15.6543H0.803345V11.7162H2.70003V7.60841H7.26472V11.7162H11.0328V15.6458H7.26472V22.5332C7.26472 23.5941 7.70939 24.1118 8.73993 24.1118C9.52467 24.116 10.2977 23.9196 10.9864 23.541V27.2011C9.89551 27.8449 8.64676 28.167 7.38274 28.1305C4.60726 28.1305 2.70003 27.0229 2.70003 23.2928Z" fill="white"/>
<path fill-rule="evenodd" clip-rule="evenodd" d="M12.9907 19.8298C12.9907 15.217 16.2383 11.4317 20.9083 11.4317C26.2696 11.4317 28.7058 15.6074 28.7058 20.1884C28.7058 20.5448 28.6848 20.9713 28.651 21.3957H17.5069C17.9516 23.4687 19.3847 24.5656 21.4204 24.5656C22.9441 24.5656 24.0442 24.084 25.3129 22.8979L27.9155 25.2319C26.4235 27.0906 24.257 28.2321 21.3656 28.2321C16.5375 28.2321 12.9907 24.8372 12.9907 19.8362M24.2887 18.5376C24.0231 16.4986 22.8135 15.1003 20.9168 15.1003C19.0369 15.1003 17.8146 16.4646 17.4585 18.5376H24.2887Z" fill="white"/>
<path fill-rule="evenodd" clip-rule="evenodd" d="M35.0663 19.6768L29.6502 11.7286H34.5204L37.5235 16.4305L40.5371 11.7286H45.2852L39.8796 19.5877L45.5296 27.8606H40.6594L37.4224 22.8341L34.198 27.8606H29.45L35.0663 19.6768Z" fill="white"/>
<path fill-rule="evenodd" clip-rule="evenodd" d="M47.5754 11.7155H52.1233V14.0113C53.177 12.6576 54.5131 11.4248 56.8039 11.4248C60.2516 11.4248 62.2537 13.71 62.2537 17.4147V27.8603H57.7037V18.8596C57.7037 16.6975 56.6943 15.5857 54.9641 15.5857C53.2339 15.5857 52.1296 16.7039 52.1296 18.866V27.8667H47.5754V11.7155Z" fill="white"/>
<path fill-rule="evenodd" clip-rule="evenodd" d="M65.0125 19.8297C65.0125 15.183 68.7152 11.4317 73.7077 11.4317C78.6665 11.4317 82.3482 15.1257 82.3482 19.8297C82.3482 24.4744 78.6349 28.2257 73.6403 28.2257C68.6815 28.2257 65.0125 24.5317 65.0125 19.8297ZM77.8678 19.8297C77.8678 17.4554 76.1671 15.3612 73.6424 15.3612C71.0418 15.3612 69.4844 17.3876 69.4844 19.8297C69.4844 22.2019 71.1957 24.2855 73.7098 24.2855C76.3125 24.2855 77.8678 22.2592 77.8678 19.8297Z" fill="white"/>
<path fill-rule="evenodd" clip-rule="evenodd" d="M85.2502 11.7155H89.7875V14.0113C90.8413 12.6576 92.2005 11.4248 94.5019 11.4248C96.5924 11.4248 98.1941 12.3542 99.0286 13.971C100.43 12.3139 102.11 11.4248 104.297 11.4248C107.669 11.4248 109.701 13.4639 109.701 17.3659V27.8667H105.155V18.8596C105.155 16.6975 104.2 15.5793 102.487 15.5793C100.774 15.5793 99.7473 16.6975 99.7473 18.8596V27.8603H95.1931V18.8596C95.1931 16.6975 94.2363 15.5793 92.5335 15.5793C90.8307 15.5793 89.7939 16.6975 89.7939 18.8596V27.8603H85.2502V11.7155Z" fill="white"/>
<path fill-rule="evenodd" clip-rule="evenodd" d="M112.362 23.1474C112.362 19.6316 115.019 18.0084 118.811 18.0084C120.148 17.9954 121.477 18.2187 122.737 18.6683V18.401C122.737 16.5083 121.569 15.4432 119.289 15.4432C117.555 15.4432 116.339 15.7806 114.863 16.328L113.73 12.827C115.498 12.0419 117.222 11.5391 119.957 11.5391C122.435 11.5391 124.227 12.199 125.361 13.3405C126.551 14.5393 127.095 16.3301 127.095 18.4922V27.8494H122.703V26.1137C121.603 27.3465 120.079 28.1507 117.856 28.1507C114.832 28.1507 112.364 26.4044 112.364 23.1474M122.792 22.1629V21.3439C121.877 20.9393 120.888 20.7333 119.89 20.7392C117.945 20.7392 116.743 21.5243 116.743 23.035C116.743 24.2784 117.765 24.9955 119.224 24.9955C121.356 24.9955 122.792 23.8073 122.792 22.1629Z" fill="white"/>
<path fill-rule="evenodd" clip-rule="evenodd" d="M130.733 11.7285H135.281V14.9749C136.204 12.747 137.694 11.3127 140.395 11.4251V16.2055H140.161C137.127 16.2055 135.281 18.043 135.281 21.9047V27.8606H130.733V11.7285Z" fill="white"/>
<path fill-rule="evenodd" clip-rule="evenodd" d="M143.854 23.2928V15.6543H141.957V11.7162H143.854V7.60841H148.414V11.7162H152.185V15.6458H148.414V22.5332C148.414 23.5941 148.859 24.1118 149.89 24.1118C150.674 24.116 151.447 23.9196 152.136 23.541V27.2011C151.046 27.8446 149.798 28.1666 148.534 28.1305C145.765 28.1305 143.862 27.0229 143.862 23.2928" fill="white"/>
<path fill-rule="evenodd" clip-rule="evenodd" d="M169.398 6.20766L167.541 2.97191L163.682 5.21254V0.733414H159.967V5.21254L156.098 2.97191L154.252 6.20766L158.11 8.45889L154.252 10.6974L156.098 13.9331L159.967 11.6946V16.1738H163.682V11.6946L167.541 13.9331L169.398 10.6974L165.539 8.45889L169.398 6.20766Z" fill="white"/>
<path d="M32.3434 34.7845L30.6933 35.682L32.3434 36.5859L32.0779 37.04L30.531 36.1V37.8441H30.0084V36.1L28.4615 37.04L28.2002 36.5923L29.8503 35.6884L28.2002 34.7845L28.4657 34.3262L30.0126 35.2662V33.5199H30.5352V35.2662L32.0821 34.3262L32.3434 34.7845ZM35.6542 41.0481C35.416 41.6655 35.1821 42.0687 34.9566 42.2575C34.6953 42.456 34.3731 42.5559 34.0462 42.5397H33.3697V41.8268H33.865C34.0603 41.8386 34.2534 41.7791 34.4087 41.6592C34.6031 41.4299 34.7468 41.1615 34.8302 40.872L34.9819 40.4837L32.8977 35.3807H33.7954L35.4055 39.4376L37.0135 35.3807H37.9112L35.6542 41.0481ZM43.0702 37.6086V40.5664H42.2272V39.775C42.0553 40.0701 41.805 40.3112 41.5044 40.4709C41.1762 40.63 40.8148 40.7071 40.4507 40.6959C40.2212 40.709 39.9913 40.6764 39.7744 40.5999C39.5574 40.5235 39.3575 40.4047 39.1862 40.2503C39.0291 40.0951 38.9062 39.9083 38.8256 39.7021C38.745 39.4959 38.7084 39.275 38.7184 39.0536C38.7018 38.8026 38.746 38.5513 38.8474 38.3214C38.9487 38.0915 39.1041 37.8898 39.3 37.7338C39.6878 37.4368 40.2666 37.2882 41.0366 37.2882H42.223V37.2055C42.2325 37.0343 42.2029 36.8633 42.1364 36.7055C42.0699 36.5476 41.9683 36.4073 41.8395 36.2952C41.5287 36.0632 41.1466 35.949 40.7605 35.9727C40.4705 35.9721 40.1816 36.0084 39.9006 36.0809C39.6198 36.1518 39.3493 36.2588 39.0956 36.3992V35.612C39.3885 35.4976 39.6901 35.4075 39.9976 35.3425C40.2747 35.2831 40.5572 35.2526 40.8406 35.2513C41.5838 35.2513 42.1401 35.4458 42.5096 35.8348C42.8763 36.2231 43.0618 36.813 43.0618 37.6044M41.3758 37.9545C40.6909 37.9545 40.2168 38.0351 39.9533 38.1921C39.8196 38.2758 39.7118 38.3954 39.6422 38.5375C39.5725 38.6797 39.5438 38.8386 39.5592 38.9963C39.5531 39.1309 39.5764 39.2653 39.6273 39.3899C39.6783 39.5146 39.7558 39.6264 39.8543 39.7177C40.0807 39.905 40.3689 39.9996 40.6614 39.9829C40.8751 39.991 41.0878 39.9501 41.2834 39.8634C41.4791 39.7767 41.6527 39.6463 41.791 39.4822C42.0881 39.1029 42.2379 38.6278 42.2125 38.1454V37.9545H41.3758ZM49.1185 35.3765L47.2556 37.8993L49.2134 40.5622H48.2208L46.7224 38.5252L45.2219 40.5622H44.2251L46.225 37.8484L44.3937 35.3765H45.3926L46.7582 37.2246L48.1238 35.3765H49.1185ZM53.6495 35.5293V36.3355C53.4131 36.2125 53.1625 36.1191 52.9035 36.0576C52.6411 35.9951 52.3723 35.9638 52.1027 35.9642C51.7763 35.9438 51.4505 36.0112 51.1585 36.1594C51.0576 36.2179 50.9746 36.3034 50.9188 36.4063C50.863 36.5093 50.8366 36.6258 50.8424 36.7429C50.8392 36.8331 50.8582 36.9226 50.8975 37.0036C50.9368 37.0847 50.9953 37.1547 51.0679 37.2076C51.3482 37.3692 51.6552 37.4785 51.9741 37.5301L52.2649 37.5938C52.8656 37.7232 53.2913 37.9078 53.5441 38.1433C53.6766 38.271 53.7798 38.4261 53.8468 38.5979C53.9138 38.7698 53.9428 38.9542 53.9319 39.1384C53.9386 39.3616 53.8901 39.583 53.7908 39.7826C53.6915 39.9822 53.5444 40.1539 53.3629 40.2821C52.9007 40.5876 52.3535 40.7363 51.8013 40.7065C51.5122 40.7059 51.2237 40.6789 50.9394 40.6258C50.6194 40.5674 50.304 40.4866 49.9952 40.3839V39.5034C50.2889 39.6595 50.5983 39.7833 50.9183 39.8726C51.2125 39.9519 51.5157 39.9926 51.8203 39.9935C52.1402 40.0108 52.4586 39.9373 52.7391 39.7814C52.83 39.7234 52.9063 39.6449 52.9619 39.5522C53.0176 39.4595 53.0512 39.3551 53.0599 39.2471C53.0687 39.1391 53.0525 39.0306 53.0126 38.93C52.9726 38.8294 52.91 38.7395 52.8297 38.6674C52.5152 38.4846 52.1691 38.3637 51.8097 38.3109L51.5168 38.243C51.0981 38.1816 50.7047 38.0038 50.3809 37.7296C50.2609 37.6046 50.1679 37.4561 50.1077 37.2932C50.0475 37.1304 50.0214 36.9567 50.0311 36.7832C50.0197 36.5672 50.0605 36.3517 50.1501 36.1551C50.2396 35.9585 50.3752 35.7867 50.5453 35.6545C50.8888 35.3892 51.3777 35.2556 52.0078 35.2556C52.3036 35.2541 52.5989 35.2776 52.8908 35.3256C53.1526 35.3689 53.409 35.4401 53.6558 35.5378M59.5566 37.4474V40.577H58.7137V37.4559C58.7423 37.0669 58.6415 36.6795 58.4271 36.3546C58.3236 36.2296 58.192 36.131 58.0432 36.0672C57.8945 36.0034 57.7327 35.9761 57.5714 35.9876C57.3707 35.9775 57.1702 36.0116 56.9839 36.0875C56.7976 36.1633 56.6299 36.2791 56.4924 36.4268C56.2135 36.7618 56.0718 37.1913 56.0962 37.6277V40.5579H55.2533V33.3438H56.0962V36.17C56.2743 35.8817 56.5196 35.6414 56.8107 35.4699C57.1022 35.3111 57.4297 35.2314 57.7611 35.2386C58.0121 35.2212 58.2636 35.2621 58.4964 35.3581C58.7291 35.4541 58.9369 35.6027 59.1035 35.7924C59.407 36.1616 59.5587 36.7026 59.5587 37.4198M61.2763 33.3438H62.1193V34.4238H61.2763V33.3438ZM61.2763 35.3638H62.1193V40.5494H61.2763V35.3638ZM63.8958 33.3438H64.7388V40.5579H63.8958V33.3438ZM66.5133 33.3438H67.3562V34.4238H66.5133V33.3438ZM66.5133 35.3638H67.3562V40.5494H66.5133V35.3638ZM69.0843 33.3523H69.9273V37.6086L72.4562 35.3723H73.5373L70.7977 37.7975L73.6448 40.5558H72.5405L69.9231 38.0224V40.5558H69.0801L69.0843 33.3523ZM74.5384 33.3523H75.3813V37.6086L77.9103 35.3723H78.9914L76.2517 37.7975L79.0988 40.5558H77.9945L75.4066 38.0245V40.5579H74.5637L74.5384 33.3523ZM83.8932 37.5959V40.5537H83.0503V39.775C82.8791 40.0701 82.6295 40.3111 82.3295 40.4709C82.0011 40.6295 81.6398 40.7066 81.2758 40.6959C81.0463 40.7089 80.8165 40.6762 80.5995 40.5998C80.3826 40.5233 80.1827 40.4046 80.0114 40.2503C79.8542 40.0951 79.7313 39.9083 79.6507 39.7021C79.5701 39.4959 79.5336 39.275 79.5435 39.0536C79.5269 38.8026 79.5712 38.5513 79.6725 38.3214C79.7738 38.0915 79.9292 37.8898 80.1252 37.7338C80.5129 37.4368 81.0918 37.2882 81.8617 37.2882H83.0482V37.2055C83.0577 37.0343 83.028 36.8633 82.9615 36.7055C82.895 36.5476 82.7935 36.4073 82.6646 36.2952C82.3538 36.0632 81.9718 35.949 81.5856 35.9727C81.2956 35.9722 81.0067 36.0086 80.7258 36.0809C80.445 36.1518 80.1744 36.2588 79.9207 36.3992V35.612C80.2136 35.4976 80.5153 35.4075 80.8227 35.3425C81.0999 35.2831 81.3823 35.2526 81.6657 35.2513C82.4103 35.2513 82.9667 35.4458 83.3348 35.8348C83.7015 36.2231 83.8869 36.813 83.8869 37.6044M82.201 37.9545C81.5161 37.9545 81.044 38.0351 80.7806 38.1921C80.6465 38.2755 80.5383 38.395 80.4682 38.5372C80.3982 38.6793 80.3691 38.8384 80.3844 38.9963C80.3782 39.1311 80.4017 39.2657 80.453 39.3904C80.5044 39.5151 80.5824 39.6268 80.6815 39.7177C80.9077 39.9055 81.196 40.0003 81.4887 39.9829C81.702 39.9908 81.9143 39.9499 82.1096 39.8631C82.3049 39.7764 82.4781 39.6461 82.6161 39.4822C82.9132 39.1029 83.0631 38.6278 83.0376 38.1454V37.9545H82.201ZM89.4674 36.1679C89.6242 35.88 89.8578 35.6419 90.1418 35.4805C90.4412 35.3232 90.7757 35.2457 91.1133 35.2556C91.4087 35.2492 91.7013 35.314 91.9667 35.4447C92.2321 35.5753 92.4627 35.768 92.6391 36.0067C93.0213 36.5925 93.2249 37.278 93.2249 37.9789C93.2249 38.6798 93.0213 39.3653 92.6391 39.9511C92.4622 40.1891 92.2315 40.3812 91.9662 40.5114C91.7008 40.6417 91.4084 40.7064 91.1133 40.7001C90.7757 40.7099 90.4412 40.6325 90.1418 40.4752C89.8573 40.3144 89.6236 40.0761 89.4674 39.7877V40.5664H88.6244V33.3523H89.4674V36.1679ZM92.3461 37.9778C92.3772 37.4544 92.2429 36.9345 91.9626 36.4926C91.8402 36.3275 91.6812 36.1934 91.4982 36.1011C91.3153 36.0088 91.1135 35.9607 90.9089 35.9607C90.7042 35.9607 90.5024 36.0088 90.3195 36.1011C90.1366 36.1934 89.9776 36.3275 89.8552 36.4926C89.6037 36.9428 89.4716 37.4507 89.4716 37.9672C89.4716 38.4838 89.6037 38.9916 89.8552 39.4419C89.9776 39.6069 90.1366 39.741 90.3195 39.8333C90.5024 39.9257 90.7042 39.9737 90.9089 39.9737C91.1135 39.9737 91.3153 39.9257 91.4982 39.8333C91.6812 39.741 91.8402 39.6069 91.9626 39.4419C92.241 39.003 92.3752 38.4871 92.3461 37.9672M94.5611 38.5104V35.3701H95.404V38.4764C95.3755 38.8667 95.4763 39.2555 95.6906 39.5819C95.7941 39.707 95.9257 39.8055 96.0745 39.8693C96.2232 39.9332 96.3849 39.9605 96.5462 39.949C96.7476 39.9589 96.9487 39.9248 97.1357 39.849C97.3227 39.7731 97.4912 39.6574 97.6295 39.5098C97.9076 39.1751 98.0491 38.7466 98.0257 38.3109V35.3723H98.8686V40.5579H98.0257V39.7623C97.8476 40.0507 97.6024 40.291 97.3112 40.4625C97.0216 40.62 96.6962 40.699 96.3671 40.6916C96.1153 40.7086 95.8629 40.6675 95.6292 40.5715C95.3955 40.4756 95.1866 40.3273 95.0184 40.1378C94.7121 39.7672 94.5589 39.2254 94.5589 38.5125M102.753 41.0481C102.514 41.6655 102.281 42.0687 102.055 42.2575C101.794 42.456 101.472 42.5559 101.145 42.5397H100.468V41.8268H100.963C101.159 41.8386 101.352 41.7791 101.507 41.6592C101.702 41.4299 101.845 41.1615 101.929 40.872L102.08 40.4837L99.9961 35.3807H100.907L102.517 39.4376L104.125 35.3807H105.022L102.753 41.0481ZM106.089 38.521V35.3807H106.932V38.4871C106.909 38.8756 107.013 39.2608 107.229 39.584C107.332 39.709 107.464 39.8074 107.613 39.8712C107.761 39.935 107.923 39.9624 108.084 39.9511C108.286 39.9612 108.487 39.9271 108.674 39.8513C108.861 39.7755 109.029 39.6597 109.168 39.5119C109.447 39.1781 109.59 38.7492 109.566 38.3131V35.3723H110.409V40.5579H109.566V39.7623C109.386 40.0501 109.141 40.2902 108.849 40.4625C108.56 40.62 108.234 40.699 107.905 40.6916C107.653 40.7086 107.401 40.6675 107.167 40.5715C106.934 40.4756 106.725 40.3273 106.557 40.1378C106.252 39.7672 106.099 39.2254 106.097 38.5125M115.123 36.1679C115.027 36.1121 114.922 36.0713 114.813 36.047C114.692 36.0187 114.567 36.0052 114.443 36.0067C114.235 35.9944 114.028 36.0302 113.837 36.1116C113.646 36.1929 113.476 36.3174 113.34 36.4756C113.061 36.8679 112.925 37.3455 112.957 37.8272V40.5579H112.114V35.3723H112.957V36.1785C113.116 35.8815 113.358 35.6375 113.652 35.4762C113.974 35.3147 114.331 35.236 114.691 35.2471C114.756 35.2475 114.821 35.2517 114.885 35.2598C114.955 35.2598 115.033 35.2789 115.119 35.2937L115.123 36.1679ZM119.302 35.5314V36.3377C119.067 36.2143 118.817 36.1209 118.558 36.0597C118.299 35.9944 118.033 35.9596 117.766 35.9557C117.44 35.935 117.114 36.0024 116.822 36.151C116.721 36.2095 116.638 36.2949 116.582 36.3979C116.526 36.5008 116.5 36.6173 116.506 36.7344C116.503 36.8246 116.521 36.9141 116.561 36.9952C116.6 37.0762 116.659 37.1462 116.731 37.1991C117.011 37.3611 117.318 37.4704 117.637 37.5216L117.926 37.5853C118.527 37.7147 118.955 37.8993 119.207 38.1348C119.338 38.2625 119.439 38.417 119.504 38.5876C119.57 38.7582 119.598 38.941 119.587 39.1236C119.594 39.3465 119.545 39.5677 119.446 39.7673C119.347 39.9669 119.201 40.1386 119.02 40.2672C118.558 40.5728 118.01 40.7215 117.458 40.6916C117.169 40.6912 116.881 40.6642 116.596 40.611C116.276 40.5526 115.96 40.4718 115.65 40.3691V39.4885C115.945 39.6443 116.255 39.7681 116.575 39.8577C116.869 39.9372 117.173 39.9779 117.477 39.9787C117.797 39.996 118.116 39.9224 118.396 39.7665C118.487 39.7085 118.563 39.6301 118.619 39.5374C118.675 39.4447 118.708 39.3402 118.717 39.2322C118.726 39.1243 118.709 39.0157 118.67 38.9151C118.63 38.8146 118.567 38.7247 118.487 38.6526C118.172 38.4698 117.826 38.3488 117.467 38.2961L117.174 38.2282C116.755 38.1662 116.361 37.9884 116.036 37.7147C115.917 37.5892 115.825 37.4405 115.765 37.2777C115.705 37.115 115.679 36.9417 115.688 36.7684C115.677 36.5524 115.717 36.3368 115.807 36.1402C115.897 35.9436 116.032 35.7718 116.202 35.6396C116.545 35.3751 117.033 35.2421 117.665 35.2407C117.961 35.2394 118.256 35.2628 118.548 35.3107C118.809 35.3538 119.065 35.425 119.311 35.5229M120.898 33.3502H121.741V34.4302H120.898V33.3502ZM120.898 35.3701H121.741V40.5558H120.898V35.3701ZM127.797 37.4262V40.5558H126.954V37.4559C126.983 37.0673 126.883 36.6802 126.67 36.3546C126.566 36.2296 126.435 36.131 126.286 36.0672C126.137 36.0034 125.976 35.9761 125.814 35.9876C125.613 35.9772 125.412 36.0112 125.226 36.087C125.039 36.1629 124.871 36.2788 124.733 36.4268C124.456 36.7625 124.315 37.1916 124.339 37.6277V40.5579H123.496V35.3723H124.339V36.1785C124.517 35.8902 124.762 35.6498 125.053 35.4783C125.345 35.3189 125.672 35.2392 126.004 35.2471C126.255 35.2298 126.506 35.2708 126.739 35.3668C126.972 35.4628 127.18 35.6113 127.346 35.8009C127.65 36.1701 127.802 36.7111 127.802 37.4283M130.052 33.6451H130.986V36.6772L130.895 38.33H130.137L130.04 36.6772L130.052 33.6451ZM130.052 39.374H130.986V40.5494H130.052V39.374Z" fill="white"/>
</svg>
