<svg width="349" height="60" fill="none" xmlns="http://www.w3.org/2000/svg"><g filter="url(#filter0_d)"><path d="M33.664 43.036c-6.239.667-11.97 1-17.196 1-2.613 0-4.532-.613-5.758-1.84-1.227-1.227-1.84-3.146-1.84-5.76v-12.8c0-2.8.627-4.826 1.88-6.08 1.28-1.28 3.319-1.92 6.118-1.92h14.396v5.6H18.468c-1.6 0-2.4.8-2.4 2.4v12.8c0 .614.173 1.107.52 1.48.373.347.867.52 1.48.52 3.066 0 5.865-.066 8.397-.2v-5.8h-5.198v-4.8h12.397v15.4zm38.198-15l-5.599 10h-5.599l-5.598-10v15.6h-7.198v-28h7.598l7.998 14.8 7.998-14.8h7.598v28h-7.198v-15.6zm22.21-12.4h15.995c2.613 0 4.532.6 5.759 1.8 1.226 1.174 1.839 2.974 1.839 5.4 0 1.6-.346 2.907-1.04 3.92-.693.987-1.546 1.68-2.559 2.08 2.16.587 3.626 2.027 4.399 4.32.267.827.4 1.787.4 2.88 0 2.614-.613 4.533-1.84 5.76-1.226 1.227-3.146 1.84-5.758 1.84H94.071v-28zm17.595 19.2c0-1.6-.8-2.4-2.4-2.4h-7.997v5.6h7.997c1.6 0 2.4-.8 2.4-2.4v-.8zm-1.2-11.2c0-1.6-.8-2.4-2.399-2.4h-6.798v5.6h6.798c1.599 0 2.399-.8 2.399-2.4v-.8zm29.391 14.4h14.596v5.6H132.66v-28h7.198v22.4z" fill="url(#paint0_linear)"/><path d="M181.057 43.636h-7.198v-22.4h-8.398v-5.6h23.993v5.6h-8.397v22.4zm21.399-28h16.796c2.799 0 4.824.64 6.078 1.92 1.28 1.253 1.92 3.28 1.92 6.08v3.6c0 2.213-.375 3.933-1.12 5.16-.72 1.227-1.879 2.04-3.479 2.44l4.999 8.8h-7.798l-4.599-8.4h-5.598v8.4h-7.199v-28zm17.596 8c0-1.6-.8-2.4-2.4-2.4h-7.997v8.4h7.997c1.6 0 2.4-.8 2.4-2.4v-3.6zm26.382 20h-7.798l10.597-28h7.998l10.597 28h-7.798l-1.799-5h-9.997l-1.8 5zm3.599-10.2h6.398l-3.199-9.4-3.199 9.4zm45.586-17.8c3.012 0 5.292.787 6.839 2.36 1.572 1.547 2.359 3.827 2.359 6.84v9.6c0 3.014-.787 5.307-2.359 6.88-1.547 1.547-3.827 2.32-6.839 2.32h-15.596v-28h15.596zm2 9.2c0-2.4-1.2-3.6-3.599-3.6h-6.798v16.8h6.798c2.399 0 3.599-1.2 3.599-3.6v-9.6zm43.578 18.8h-22.195v-28h22.195v5.6h-14.996v5.4h11.796v5.6h-11.796v5.8h14.996v5.6z" fill="#fff"/></g><defs><linearGradient id="paint0_linear" x1="178.135" y1="0" x2="178.135" y2="60" gradientUnits="userSpaceOnUse"><stop stop-color="#2673DD"/><stop offset="1" stop-color="#26BCDD"/></linearGradient><filter id="filter0_d" x="4.87" y="15.636" width="340.326" height="36.4" filterUnits="userSpaceOnUse" color-interpolation-filters="sRGB"><feFlood flood-opacity="0" result="BackgroundImageFix"/><feColorMatrix in="SourceAlpha" values="0 0 0 0 0 0 0 0 0 0 0 0 0 0 0 0 0 0 127 0"/><feOffset dy="4"/><feGaussianBlur stdDeviation="2"/><feColorMatrix values="0 0 0 0 0 0 0 0 0 0 0 0 0 0 0 0 0 0 0.25 0"/><feBlend in2="BackgroundImageFix" result="effect1_dropShadow"/><feBlend in="SourceGraphic" in2="effect1_dropShadow" result="shape"/></filter></defs></svg>