<svg width="349" height="84" fill="none" xmlns="http://www.w3.org/2000/svg"><g filter="url(#filter0_d)"><path d="M33.664 43.036c-6.239.667-11.97 1-17.196 1-2.613 0-4.532-.613-5.758-1.84-1.227-1.227-1.84-3.146-1.84-5.76v-12.8c0-2.8.627-4.826 1.88-6.08 1.28-1.28 3.319-1.92 6.118-1.92h14.396v5.6H18.468c-1.6 0-2.4.8-2.4 2.4v12.8c0 .614.173 1.107.52 1.48.373.347.867.52 1.48.52 3.066 0 5.865-.066 8.397-.2v-5.8h-5.198v-4.8h12.397v15.4zm38.198-15l-5.599 10h-5.599l-5.598-10v15.6h-7.198v-28h7.598l7.998 14.8 7.998-14.8h7.598v28h-7.198v-15.6zm22.21-12.4h15.995c2.613 0 4.532.6 5.759 1.8 1.226 1.174 1.839 2.974 1.839 5.4 0 1.6-.346 2.907-1.04 3.92-.693.987-1.546 1.68-2.559 2.08 2.16.587 3.626 2.027 4.399 4.32.267.827.4 1.787.4 2.88 0 2.614-.613 4.533-1.84 5.76-1.226 1.227-3.146 1.84-5.758 1.84H94.071v-28zm17.595 19.2c0-1.6-.8-2.4-2.4-2.4h-7.997v5.6h7.997c1.6 0 2.4-.8 2.4-2.4v-.8zm-1.2-11.2c0-1.6-.8-2.4-2.399-2.4h-6.798v5.6h6.798c1.599 0 2.399-.8 2.399-2.4v-.8zm29.391 14.4h14.596v5.6H132.66v-28h7.198v22.4z" fill="url(#paint0_linear)"/><path d="M181.057 43.636h-7.198v-22.4h-8.398v-5.6h23.993v5.6h-8.397v22.4zm21.399-28h16.796c2.799 0 4.824.64 6.078 1.92 1.28 1.253 1.92 3.28 1.92 6.08v3.6c0 2.213-.375 3.933-1.12 5.16-.72 1.227-1.879 2.04-3.479 2.44l4.999 8.8h-7.798l-4.599-8.4h-5.598v8.4h-7.199v-28zm17.596 8c0-1.6-.8-2.4-2.4-2.4h-7.997v8.4h7.997c1.6 0 2.4-.8 2.4-2.4v-3.6zm26.382 20h-7.798l10.597-28h7.998l10.597 28h-7.798l-1.799-5h-9.997l-1.8 5zm3.599-10.2h6.398l-3.199-9.4-3.199 9.4zm45.586-17.8c3.012 0 5.292.787 6.839 2.36 1.572 1.547 2.359 3.827 2.359 6.84v9.6c0 3.014-.787 5.307-2.359 6.88-1.547 1.547-3.827 2.32-6.839 2.32h-15.596v-28h15.596zm2 9.2c0-2.4-1.2-3.6-3.599-3.6h-6.798v16.8h6.798c2.399 0 3.599-1.2 3.599-3.6v-9.6zm43.578 18.8h-22.195v-28h22.195v5.6h-14.996v5.4h11.796v5.6h-11.796v5.8h14.996v5.6z" fill="#fff"/></g><path d="M16.469 66.445h-5.89v4.118h2.82c.776 0 1.447.13 2.015.39.568.255 1 .625 1.297 1.11.302.479.453 1.046.453 1.703 0 1.005-.336 1.796-1.008 2.375-.672.572-1.601.859-2.789.859H9.61V65.625h6.86v.82zm-5.89 4.938v4.805h2.812c.88 0 1.567-.217 2.062-.649.495-.437.742-1.034.742-1.789 0-.719-.24-1.29-.718-1.71-.48-.428-1.152-.647-2.016-.657h-2.883zm29.608-5.758h.961V77h-.96v-9.734L33.71 77h-.969V65.625h.969v9.727l6.477-9.727zm17.844 6.742V77h-.96V65.625h3.874c1.183 0 2.115.302 2.797.906.688.604 1.031 1.435 1.031 2.492 0 1.068-.33 1.894-.992 2.477-.656.578-1.61.867-2.86.867h-2.89zm0-.812h2.914c.933 0 1.644-.222 2.133-.664.49-.443.734-1.06.734-1.852 0-.786-.244-1.411-.734-1.875-.484-.469-1.174-.708-2.07-.719H58.03v5.11zm29.032.03H85.78V77h-.96v-5.414H83.5L79.64 77h-1.218l4.21-5.875-3.929-5.5h1.164l3.578 5.14h1.375v-5.14h.961v5.14h1.344l3.578-5.14h1.156l-3.93 5.492L92.15 77h-1.212l-3.874-5.414zm25.835 2.228h-5.164L106.562 77h-1.007l4.304-11.375h.914L115.078 77h-1l-1.18-3.188zm-4.867-.82h4.563l-2.282-6.196-2.281 6.195zm44.758.82h-5.164L146.453 77h-1.008l4.305-11.375h.914L154.969 77h-1l-1.18-3.188zm-4.867-.82h4.562l-2.281-6.196-2.281 6.195zm24.289-1.329h-1.563V77h-.96V65.625h.96v5.219h1.516l4.398-5.219h1.211l-4.671 5.594L178.117 77h-1.195l-4.711-5.336zm23.219 0h-1.563V77h-.961V65.625h.961v5.219h1.516l4.398-5.219h1.211l-4.672 5.594L201.336 77h-1.195l-4.711-5.336zm26.797 2.148h-5.165L215.891 77h-1.008l4.305-11.375h.914L224.406 77h-1l-1.179-3.188zm-4.868-.82h4.563l-2.281-6.195-2.282 6.195zm25.524-.078l3.234-7.289h1.133l-4.398 9.523-.282.54c-.552.984-1.364 1.476-2.437 1.476-.318 0-.563-.029-.735-.086l.086-.781c.11.036.328.055.657.055.645 0 1.164-.331 1.554-.993l.196-.351.492-1.016-4.305-8.367h1.102l3.703 7.29zM270.562 77h-.968v-5.453h-6.5V77h-.961V65.625h.961v5.11h6.5v-5.11h.968V77zm23.383-10.555h-3.898V77h-.961V66.445h-3.891v-.82h8.75v.82zm23.032 5.485c0 1.047-.183 1.966-.547 2.757-.36.792-.875 1.401-1.547 1.829-.672.427-1.448.64-2.328.64-1.328 0-2.401-.474-3.219-1.422-.818-.953-1.227-2.237-1.227-3.851V70.71c0-1.037.183-1.953.547-2.75.37-.802.891-1.417 1.563-1.844.672-.432 1.445-.648 2.32-.648.875 0 1.646.21 2.313.633.671.421 1.19 1.018 1.554 1.789.365.77.555 1.664.571 2.68v1.359zm-.961-1.235c0-1.37-.31-2.442-.93-3.218-.62-.776-1.469-1.165-2.547-1.165-1.057 0-1.901.391-2.531 1.172-.625.776-.938 1.862-.938 3.258v1.188c0 1.349.313 2.419.938 3.21.625.787 1.474 1.18 2.547 1.18 1.088 0 1.937-.388 2.547-1.164.609-.781.914-1.867.914-3.258v-1.203zM332.398 77V65.625h3.36c1.219 0 2.143.253 2.773.758.63.5.946 1.24.946 2.219 0 .588-.162 1.101-.485 1.539-.318.432-.755.742-1.312.93.661.145 1.192.47 1.593.976.407.505.61 1.088.61 1.75 0 1.005-.326 1.791-.977 2.36-.646.562-1.547.843-2.703.843h-3.805zm.961-5.469v4.656h2.883c.823 0 1.474-.208 1.953-.624.485-.422.727-1.006.727-1.75 0-.704-.232-1.258-.695-1.665-.459-.411-1.094-.617-1.907-.617h-2.961zm0-.804h2.625c.802-.016 1.422-.204 1.86-.563.442-.365.664-.893.664-1.586 0-.729-.229-1.266-.688-1.61-.453-.348-1.14-.523-2.062-.523h-2.399v4.282z" fill="#fff" fill-opacity=".3"/><defs><linearGradient id="paint0_linear" x1="178.135" y1="0" x2="178.135" y2="60" gradientUnits="userSpaceOnUse"><stop stop-color="#2673DD"/><stop offset="1" stop-color="#26BCDD"/></linearGradient><filter id="filter0_d" x="4.87" y="15.636" width="340.326" height="36.4" filterUnits="userSpaceOnUse" color-interpolation-filters="sRGB"><feFlood flood-opacity="0" result="BackgroundImageFix"/><feColorMatrix in="SourceAlpha" values="0 0 0 0 0 0 0 0 0 0 0 0 0 0 0 0 0 0 127 0"/><feOffset dy="4"/><feGaussianBlur stdDeviation="2"/><feColorMatrix values="0 0 0 0 0 0 0 0 0 0 0 0 0 0 0 0 0 0 0.25 0"/><feBlend in2="BackgroundImageFix" result="effect1_dropShadow"/><feBlend in="SourceGraphic" in2="effect1_dropShadow" result="shape"/></filter></defs></svg>