<svg width="9" height="15" fill="none" xmlns="http://www.w3.org/2000/svg"><path fill-rule="evenodd" clip-rule="evenodd" d="M0 1.56c.273-.216.57-.418.89-.607C1.21.765 1.555.6 1.924.456A6.746 6.746 0 013.112.121 7.348 7.348 0 014.49 0a6.25 6.25 0 011.874.261c.557.175 1.03.424 1.42.749.391.325.692.715.902 1.173.21.457.315.965.315 1.523 0 .538-.077.999-.232 1.382a3.718 3.718 0 01-.592 1.006c-.24.286-.5.532-.785.738-.284.206-.553.4-.807.581-.254.182-.475.36-.663.534-.188.175-.304.37-.349.587L5.262 10H2.92l-.243-1.686a1.464 1.464 0 01-.022-.252c0-.307.077-.576.232-.806.155-.23.35-.441.586-.633s.49-.377.763-.555c.272-.178.527-.37.763-.576.235-.206.43-.437.586-.691a1.71 1.71 0 00.232-.906c0-.42-.146-.752-.437-1-.291-.248-.691-.372-1.2-.372-.39 0-.716.038-.978.115a4.072 4.072 0 00-.675.257c-.188.094-.352.18-.492.256a.867.867 0 01-.42.115c-.317 0-.553-.129-.707-.387L0 1.56zM2.5 13.5a1.493 1.493 0 01.903-1.381C3.585 12.04 3.784 12 4 12c.21 0 .406.039.588.118.182.079.341.186.477.32A1.459 1.459 0 015.5 13.5c0 .21-.038.407-.115.592a1.442 1.442 0 01-.797.793A1.51 1.51 0 014 15c-.216 0-.415-.038-.597-.114a1.444 1.444 0 01-.788-.794A1.525 1.525 0 012.5 13.5z" fill="#fff"/></svg>