<svg width="24" height="24" fill="none" xmlns="http://www.w3.org/2000/svg"><path d="M23.574 12.124C23.574 5.892 18.45.838 12.127.838c-.666 0-1.32.057-1.957.166A6.68 6.68 0 006.639 0C2.971 0 0 2.93 0 6.546a6.45 6.45 0 00.912 3.31 11.196 11.196 0 00-.233 2.268c0 6.234 5.126 11.288 11.447 11.288.717 0 1.416-.066 2.097-.189a6.69 6.69 0 003.14.777C21.029 24 24 21.069 24 17.456a6.446 6.446 0 00-.69-2.907c.174-.784.264-1.592.264-2.425z" fill="#03A9F4"/><path d="M17.998 17.518c-.53.74-1.311 1.325-2.327 1.739-1.003.41-2.205.622-3.576.622-1.644 0-3.022-.285-4.1-.849a5.32 5.32 0 01-1.883-1.65c-.488-.69-.732-1.375-.732-2.04 0-.41.16-.77.477-1.063.313-.293.715-.438 1.195-.438.393 0 .732.115 1.008.345.263.222.49.549.67.967.203.46.424.846.656 1.148.227.295.55.541.962.735.415.192.975.292 1.662.292.946 0 1.723-.2 2.305-.592.572-.383.848-.845.848-1.409 0-.444-.146-.795-.441-1.07-.312-.287-.723-.51-1.221-.665a24.282 24.282 0 00-2.1-.513c-1.19-.25-2.2-.546-3-.885-.82-.345-1.484-.822-1.967-1.418-.492-.609-.74-1.37-.74-2.263 0-.852.26-1.62.776-2.283.512-.659 1.259-1.173 2.223-1.523.95-.346 2.08-.52 3.359-.52 1.021 0 1.92.117 2.671.348.755.23 1.39.543 1.89.928.504.39.88.803 1.113 1.235.237.435.359.868.359 1.287 0 .403-.158.77-.47 1.089a1.588 1.588 0 01-1.176.483c-.423 0-.756-.104-.985-.303-.215-.188-.438-.48-.684-.897-.285-.534-.632-.956-1.028-1.254-.385-.29-1.027-.434-1.912-.434-.82 0-1.488.162-1.983.483-.477.308-.71.662-.71 1.082a.98.98 0 00.23.655c.162.198.391.368.682.512.3.148.61.268.921.352.318.087.85.218 1.584.384.927.195 1.778.416 2.53.654.764.239 1.421.534 1.961.88.548.353.981.803 1.29 1.343.31.545.465 1.212.465 1.99a4.249 4.249 0 01-.802 2.516z" fill="#FAFAFA"/></svg>