<svg width="331" height="13" fill="none" xmlns="http://www.w3.org/2000/svg"><path d="M7.469 1.445h-5.89v4.117h2.82c.775 0 1.447.13 2.015.391.568.255 1 .625 1.297 1.11.302.479.453 1.046.453 1.703 0 1.005-.336 1.796-1.008 2.375-.672.572-1.601.859-2.789.859H.61V.625h6.86v.82zm-5.89 4.938v4.804H4.39c.88 0 1.567-.216 2.062-.648.495-.437.742-1.034.742-1.789 0-.719-.24-1.29-.718-1.71-.48-.428-1.151-.647-2.016-.657H1.578zM31.187.625h.96V12h-.96V2.266L24.71 12h-.969V.625h.969v9.727L31.188.625zM49.03 7.367V12h-.96V.625h3.874c1.183 0 2.115.302 2.797.906.688.604 1.031 1.435 1.031 2.492 0 1.068-.33 1.894-.992 2.477-.656.578-1.61.867-2.86.867h-2.89zm0-.812h2.914c.933 0 1.644-.222 2.133-.664.49-.443.734-1.06.734-1.852 0-.786-.244-1.411-.734-1.875-.484-.469-1.174-.708-2.07-.719H49.03v5.11zm29.032.03H76.78V12h-.96V6.586H74.5L70.64 12h-1.218l4.21-5.875-3.929-5.5h1.164l3.578 5.14h1.375V.626h.961v5.14h1.344l3.578-5.14h1.156l-3.93 5.492L83.15 12h-1.212l-3.874-5.414zm25.835 2.228h-5.164L97.563 12h-1.008L100.859.625h.914L106.078 12h-1l-1.18-3.188zm-4.867-.82h4.563l-2.282-6.196-2.28 6.195zm44.758.82h-5.164L137.453 12h-1.008L140.75.625h.914L145.969 12h-1l-1.18-3.188zm-4.867-.82h4.562l-2.281-6.196-2.281 6.195zm24.289-1.329h-1.563V12h-.96V.625h.96v5.219h1.516l4.398-5.219h1.211l-4.671 5.594L169.117 12h-1.195l-4.711-5.336zm23.219 0h-1.563V12h-.961V.625h.961v5.219h1.516L190.78.625h1.211l-4.672 5.594L192.336 12h-1.195l-4.711-5.336zm26.797 2.149h-5.165L206.891 12h-1.008L210.188.625h.914L215.406 12h-1l-1.179-3.188zm-4.868-.82h4.563l-2.281-6.196-2.282 6.195zm25.524-.079l3.234-7.289h1.133l-4.398 9.523-.282.54c-.552.984-1.364 1.476-2.437 1.476-.318 0-.563-.029-.735-.086l.086-.781c.11.036.328.055.657.055.645 0 1.164-.331 1.554-.993l.196-.351.492-1.016-4.305-8.367h1.102l3.703 7.29zM261.562 12h-.968V6.547h-6.5V12h-.961V.625h.961v5.11h6.5V.624h.968V12zm23.383-10.555h-3.898V12h-.961V1.445h-3.891v-.82h8.75v.82zm23.032 5.485c0 1.047-.183 1.966-.547 2.758-.36.791-.875 1.4-1.547 1.828-.672.427-1.448.64-2.328.64-1.328 0-2.401-.474-3.219-1.422-.818-.953-1.227-2.237-1.227-3.851V5.71c0-1.037.183-1.953.547-2.75.37-.802.891-1.417 1.563-1.844.672-.432 1.445-.648 2.32-.648.875 0 1.646.21 2.313.633.671.421 1.19 1.018 1.554 1.789.365.77.555 1.664.571 2.68v1.36zm-.961-1.235c0-1.37-.31-2.442-.93-3.218-.62-.776-1.469-1.164-2.547-1.164-1.057 0-1.901.39-2.531 1.171-.625.776-.938 1.862-.938 3.258V6.93c0 1.349.313 2.419.938 3.21.625.787 1.474 1.18 2.547 1.18 1.088 0 1.937-.388 2.547-1.164.609-.781.914-1.867.914-3.258V5.695zM323.398 12V.625h3.36c1.219 0 2.143.253 2.773.758.63.5.946 1.24.946 2.219 0 .588-.162 1.101-.485 1.539-.318.432-.755.742-1.312.93.661.145 1.192.47 1.593.976.407.505.61 1.088.61 1.75 0 1.005-.326 1.791-.977 2.36-.646.562-1.547.843-2.703.843h-3.805zm.961-5.469v4.657h2.883c.823 0 1.474-.209 1.953-.626.485-.421.727-1.005.727-1.75 0-.703-.232-1.257-.695-1.664-.459-.411-1.094-.617-1.907-.617h-2.961zm0-.804h2.625c.802-.016 1.422-.204 1.86-.563.442-.365.664-.893.664-1.586 0-.729-.229-1.265-.688-1.61-.453-.348-1.14-.523-2.062-.523h-2.399v4.282z" fill="#fff" fill-opacity=".3"/></svg>