<svg width="74" height="74" viewBox="0 0 74 74" fill="none" xmlns="http://www.w3.org/2000/svg">
<rect x="37" y="0.789203" width="50.8839" height="50.8839" rx="5.22944" transform="rotate(45 37 0.789203)" stroke="black" stroke-width="1.1161"/>
<path d="M25 21V52H49V26.3L43.5872 21H25ZM43.8936 22.7L47.2638 26H43.8936V22.7ZM26.0213 51V22H42.8723V27H47.9787V51H26.0213Z" fill="#2B2B2B"/>
<path d="M46 40H28V41H46V40Z" fill="#2B2B2B"/>
<path d="M46 42H28V43H46V42Z" fill="#2B2B2B"/>
<path d="M46 45H40V46H46V45Z" fill="#2B2B2B"/>
<path d="M37 37C39.2556 37 41.5111 36.609 43.663 35.8531L44 35.7228V33.8199L43.1963 33.5853V32.8294C43.1963 30.4834 41.9 28.346 39.8519 27.3033V27.2512C39.8519 26.6517 39.3593 26.1564 38.763 26.1564H37.5185V26H36.4815V26.1564H35.237C34.6407 26.1564 34.1481 26.6517 34.1481 27.2512V27.3033C32.1 28.372 30.8037 30.5095 30.8037 32.8294V33.5853L30 33.846V35.7488L30.337 35.8791C32.4889 36.609 34.7444 37 37 37ZM31.037 34.628L31.8407 34.3934V32.8555C31.8407 31.109 32.7222 29.4668 34.1481 28.5284V30.1185H35.1852V27.2512C35.1852 27.2251 35.2111 27.1991 35.237 27.1991H36.4815V31.7085H37.5185V27.1991H38.763C38.7889 27.1991 38.8148 27.2251 38.8148 27.2512V30.1185H39.8519V28.5284C41.2778 29.4929 42.1593 31.109 42.1593 32.8555V34.3934L42.963 34.628V34.9929C39.1 36.2701 34.9 36.2701 31.037 34.9929V34.628Z" fill="#2B2B2B"/>
<path d="M41 33H33V34H41V33Z" fill="#2B2B2B"/>
</svg>
