<svg width="74" height="74" viewBox="0 0 74 74" fill="none" xmlns="http://www.w3.org/2000/svg">
<rect x="37" y="0.789203" width="50.8839" height="50.8839" rx="5.22944" transform="rotate(45 37 0.789203)" stroke="black" stroke-width="1.1161"/>
<path d="M49.6566 27.366H46.2231C46.6601 27.0294 46.941 26.4786 46.941 25.8972C46.941 24.8568 46.0671 24 45.0058 24C43.9445 24 43.0705 24.8568 43.0705 25.8972C43.0705 26.5092 43.3514 27.0294 43.7884 27.366H29.1803C29.6173 27.0294 29.8983 26.4786 29.8983 25.8972C29.8983 24.8568 29.0243 24 27.963 24C26.9017 24 26.0277 24.8568 26.0277 25.8972C26.0277 26.5092 26.3087 27.0294 26.7457 27.366H23.3121C23.1249 27.366 23 27.4884 23 27.672V32.4149C23 32.5985 23.1249 32.7209 23.3121 32.7209H27.1514L23.6555 48.6328C23.6243 48.7246 23.6555 48.8164 23.7179 48.8776C23.7803 48.9388 23.874 49 23.9676 49H26.9642C27.1202 49 27.2451 48.9082 27.2763 48.7552L29.2116 39.9731H43.8509L45.7861 48.7552C45.8173 48.9082 45.9422 49 46.0983 49H49.0948C49.1884 49 49.2821 48.9694 49.3445 48.8776C49.4069 48.7858 49.4382 48.7246 49.4069 48.6328L45.8798 32.7209H49.6879C49.8751 32.7209 50 32.5985 50 32.4149V27.672C49.9688 27.519 49.8439 27.366 49.6566 27.366ZM45.037 24.6426C45.7549 24.6426 46.348 25.224 46.348 25.9278C46.348 26.6316 45.7549 27.213 45.037 27.213C44.3191 27.213 43.726 26.6316 43.726 25.9278C43.726 25.224 44.3503 24.6426 45.037 24.6426ZM27.9942 24.6426C28.7121 24.6426 29.3052 25.224 29.3052 25.9278C29.3052 26.6316 28.7121 27.213 27.9942 27.213C27.2763 27.213 26.6832 26.6316 26.6832 25.9278C26.6832 25.224 27.2763 24.6426 27.9942 24.6426ZM45.0682 32.1089H41.541L45.5052 27.978H49.0324L45.0682 32.1089ZM28.3688 32.1089L32.3329 27.978H35.8601L31.896 32.1089H28.3688ZM31.4902 27.978L27.526 32.1089H23.9988L27.963 27.978H31.4902ZM36.7341 27.978H40.2613L36.2971 32.1089H32.7699L36.7341 27.978ZM41.104 27.978H44.6312L40.6671 32.1089H37.1399L41.104 27.978ZM27.089 27.978L23.6555 31.5275V27.978H27.089ZM26.7145 48.388H24.3422L27.7757 32.7209H30.148L26.7145 48.388ZM29.3364 39.3611L30.8035 32.7209H42.259L43.6948 39.3611H29.3364ZM48.689 48.388H46.3168L42.8832 32.7209H45.2555L48.689 48.388ZM45.911 32.1089L49.3445 28.5288V32.1089H45.911Z" fill="black"/>
</svg>
