<svg width="74" height="74" viewBox="0 0 74 74" fill="none" xmlns="http://www.w3.org/2000/svg">
<path d="M53.9791 46.4582C53.4233 46.9921 52.7576 47.4442 52.0081 47.7901C50.9349 48.2854 49.7288 48.5449 48.5012 48.5418L48.5001 48.9999L48.4989 48.5418C47.2713 48.5449 46.0652 48.2854 44.9921 47.7901C44.2426 47.4442 43.5768 46.9921 43.0211 46.4582H53.9791Z" stroke="black" stroke-width="0.916379"/>
<path d="M42 36.802C42.074 36.7136 42.1504 36.6268 42.2293 36.5418H42.8742C42.728 36.6797 42.5892 36.8232 42.4582 36.9717M42 36.802H42.4582V36.9717M42 36.802L42.2366 37H42V36.802ZM42.4582 36.9717C42.4499 36.9811 42.4416 36.9905 42.4334 37H42.4582V36.9717ZM54.4088 37H55.0001C54.8789 36.8423 54.75 36.6895 54.6138 36.5418H53.9705C54.1253 36.6885 54.2715 36.8414 54.4088 37Z" stroke="black" stroke-width="0.916379"/>
<path d="M24.5418 43.5C24.5418 43.5231 24.5231 43.5418 24.5 43.5418C24.4769 43.5418 24.4582 43.5231 24.4582 43.5C24.4582 43.4769 24.4769 43.4582 24.5 43.4582C24.5231 43.4582 24.5418 43.4769 24.5418 43.5Z" stroke="black" stroke-width="0.916379"/>
<path d="M29.3844 42.2512L29.3843 42.2512L29.3852 42.2544C29.4316 42.4304 29.4669 42.6092 29.4909 42.7896L29.4912 42.7918C29.5242 43.0309 29.5412 43.2719 29.5419 43.5132C29.5381 44.738 29.089 45.9196 28.2785 46.8374C27.4677 47.7556 26.3506 48.347 25.1358 48.5015C23.9211 48.6559 22.6917 48.3627 21.6771 47.6766C20.663 46.9908 19.9329 45.9593 19.623 44.7745C19.5777 44.596 19.542 44.4151 19.5161 44.2327L19.515 44.2253L19.5137 44.2179C19.4732 43.9878 19.4548 43.7544 19.4587 43.5208L19.4588 43.5209L19.4588 43.5123C19.4563 42.2828 19.9028 41.0948 20.7143 40.1715C21.5258 39.2482 22.6463 38.6532 23.8653 38.4984C25.0842 38.3435 26.3178 38.6394 27.3341 39.3304C28.3504 40.0215 29.0795 41.0601 29.3844 42.2512ZM23.0999 45.6098C23.5144 45.8869 24.0018 46.0348 24.5003 46.0348C25.1689 46.0348 25.8101 45.7691 26.2828 45.2962C26.7554 44.8233 27.0209 44.1819 27.0209 43.5132C27.0209 43.0145 26.8731 42.5271 26.5962 42.1124C26.3193 41.6977 25.9256 41.3745 25.465 41.1836C25.0044 40.9927 24.4975 40.9428 24.0086 41.0401C23.5196 41.1374 23.0704 41.3776 22.7179 41.7303C22.3654 42.0829 22.1254 42.5322 22.0282 43.0213C21.9309 43.5104 21.9808 44.0174 22.1716 44.4781C22.3623 44.9388 22.6854 45.3327 23.0999 45.6098Z" stroke="black" stroke-width="0.916379"/>
<path d="M39.7999 38.4615V38.9197H40.2581H55.3173C55.8442 38.954 56.3415 39.157 56.7336 39.493L56.8496 39.6063C57.1729 39.922 57.3946 40.3207 57.4897 40.754C57.5848 41.1871 57.5497 41.6379 57.3883 42.0526C57.2268 42.4674 56.9453 42.8296 56.5758 43.0945C56.2097 43.3571 55.7731 43.5127 55.3176 43.5417H36.7097C36.6394 43.5417 36.5741 43.5144 36.5278 43.4692C36.4819 43.4243 36.4582 43.366 36.4582 43.3076V35.4582H39.5484C39.6187 35.4582 39.6839 35.4855 39.7303 35.5307C39.7762 35.5756 39.7999 35.6339 39.7999 35.6923V38.4615ZM47.42 42.1902C47.6118 42.3152 47.836 42.3812 48.0645 42.3812C48.3706 42.3812 48.6664 42.2627 48.8863 42.0482C49.1065 41.8334 49.2324 41.5396 49.2324 41.2307C49.2324 41.0006 49.1624 40.7766 49.0326 40.5872C48.9029 40.3979 48.7198 40.252 48.5077 40.1663C48.2957 40.0806 48.0631 40.0584 47.8388 40.1019C47.6144 40.1455 47.4068 40.2532 47.2427 40.4132C47.0786 40.5733 46.9655 40.7787 46.9195 41.0041C46.8735 41.2296 46.8972 41.4631 46.9871 41.6747C47.0769 41.8862 47.2282 42.0651 47.42 42.1902Z" stroke="black" stroke-width="0.916379"/>
<path d="M24.3991 36.3146C22.423 36.3148 20.5269 37.0915 19.128 38.4753C17.7288 39.8596 16.9418 41.7381 16.9418 43.6979C16.9418 43.7509 16.939 43.798 16.9356 43.8562C16.9335 43.8907 16.9312 43.9292 16.9292 43.975C16.9272 44.0176 16.9251 44.0721 16.9267 44.1322C16.8787 44.0837 16.8335 44.0322 16.7917 43.9777C16.5761 43.6973 16.4593 43.3557 16.4582 43.0047L16.4582 37.4653L16.4582 37.4641C16.4581 37.4161 16.4731 37.3689 16.502 37.329C16.5308 37.2892 16.572 37.2585 16.6205 37.2422C16.6208 37.2421 16.621 37.242 16.6212 37.2419L20.8118 35.8601C20.8421 35.8515 20.8734 35.8468 20.905 35.8459H23.7001H24.1583V35.3877V26.385V25.9268H23.7001H22.3001C22.2343 25.9268 22.1723 25.901 22.1273 25.8565C22.0825 25.8121 22.0582 25.7531 22.0582 25.6925C22.0582 25.632 22.0825 25.5729 22.1273 25.5286C22.1723 25.4841 22.2343 25.4582 22.3001 25.4582H36.3002C36.3659 25.4582 36.428 25.4841 36.4729 25.5286C36.5177 25.5729 36.542 25.632 36.542 25.6925C36.542 25.7531 36.5177 25.8121 36.4729 25.8565C36.428 25.901 36.3659 25.9268 36.3002 25.9268H33.4232V26.385L33.1049 26.7146C33.5278 27.1231 33.8637 27.6107 34.0932 28.1487C34.3227 28.6868 34.4412 29.2645 34.442 29.8482V42.5403H31.7259C31.7019 42.3909 31.6737 42.2428 31.6413 42.096V42.02L31.6154 41.9462L31.5652 41.8033C31.5531 41.7603 31.5394 41.7223 31.5282 41.6929C31.5216 41.6754 31.5149 41.6586 31.5095 41.645L31.4952 41.6089C31.4928 41.6026 31.4908 41.5973 31.4893 41.5931C31.4901 41.5571 31.4885 41.5211 31.4844 41.4853L31.4794 41.4414L31.4661 41.3992C31.4296 41.2838 31.3904 41.1669 31.3419 41.0469L31.3411 41.0449L31.2361 40.7887L31.2358 40.788C31.199 40.6987 31.1578 40.6112 31.1122 40.5259C31.0747 40.4417 31.0285 40.352 30.9947 40.2865C30.985 40.2675 30.9762 40.2506 30.9691 40.2364C30.9237 40.1466 30.8725 40.059 30.8279 39.9831C30.7966 39.9158 30.758 39.8522 30.713 39.7933C30.6287 39.6555 30.5362 39.5154 30.4355 39.3796C30.3319 39.23 30.2196 39.0863 30.0993 38.9494L30.0993 38.9494L30.0925 38.9419L30.0324 38.8765C29.9239 38.7427 29.8075 38.6153 29.6837 38.4952C29.548 38.361 29.4074 38.2289 29.2633 38.1085C29.1164 37.9779 28.9623 37.8555 28.8015 37.742C28.8015 37.742 28.8015 37.742 28.8014 37.7419L28.7972 37.739C28.653 37.6371 28.4976 37.5273 28.3332 37.4238L28.3269 37.4198L28.3204 37.416L28.3138 37.4122C28.1672 37.3264 28.0053 37.2318 27.8404 37.1496C27.6924 37.0676 27.5391 36.9954 27.3816 36.9334C27.2276 36.8611 27.0689 36.799 26.9067 36.7474C26.4854 36.5943 26.0503 36.4815 25.6074 36.4105C25.2081 36.345 24.8039 36.3129 24.3991 36.3146ZM24.3991 36.3146C24.3988 36.3146 24.3985 36.3146 24.3982 36.3146L24.4001 36.7727V36.3146C24.3998 36.3146 24.3994 36.3146 24.3991 36.3146ZM17.477 44.6813C17.4703 44.6279 17.4603 44.5586 17.4479 44.4856L17.533 44.9998C17.533 44.9389 17.5186 44.878 17.5038 44.8157C17.4934 44.7718 17.4828 44.7271 17.477 44.6813ZM33.5002 33.7684H33.9584V33.3102V29.8476C33.9584 28.8061 33.5401 27.8084 32.7973 27.0735C32.0546 26.3387 31.0483 25.9268 30.0001 25.9268H28.6001H28.1419V26.385V31.7174V31.8579L28.2207 31.9742L29.2987 33.567L29.435 33.7684H29.6781H33.5002Z" stroke="black" stroke-width="0.916379"/>
<rect x="37" y="0.789203" width="50.8839" height="50.8839" rx="5.22944" transform="rotate(45 37 0.789203)" stroke="black" stroke-width="1.1161"/>
</svg>
