<svg width="74" height="74" viewBox="0 0 74 74" fill="none" xmlns="http://www.w3.org/2000/svg">
<path d="M27.3217 52H34.7949C35.9749 52 36.9189 51.1517 37.1155 50.0721H38.8462C39.0428 51.1517 39.9868 52 41.1668 52H48.64C49.938 52 51 50.959 51 49.6866V33.6082C51 32.6443 50.6853 31.7189 50.1347 31.0249C49.0727 29.7525 48.4827 27.8632 48.4827 25.9353C48.4827 25.0871 48.6007 24.2774 48.7974 23.5062C48.9547 22.8893 48.8367 22.2338 48.4434 21.7711C48.05 21.2699 47.4994 21 46.8701 21H44.3921H44.3528C44.3134 21 44.2741 21 44.2348 21.0386C36.6829 24.1231 31.8843 21.1157 31.845 21.0771H31.8056C31.7663 21.0771 31.7663 21.0386 31.727 21.0386C31.6876 21.0386 31.6876 21.0386 31.6483 21.0386H31.609H29.131C28.5017 21.0386 27.9117 21.3085 27.5577 21.8097C27.1644 22.3109 27.0464 22.9664 27.2037 23.5448C27.4004 24.3159 27.5184 25.1256 27.5184 25.9739C27.5184 27.9017 26.9284 29.791 25.8664 31.0634C25.3157 31.7575 25.0011 32.6828 25.0011 33.6468V49.7251C24.9617 50.9975 26.0237 52 27.3217 52ZM50.2133 41.5124H39.5935V39.9316H40.9701C41.2061 39.9316 41.3635 39.7774 41.3635 39.546C41.3635 39.3147 41.2061 39.1604 40.9701 39.1604H39.5935V37.2711H50.2133V41.5124ZM38.8068 49.301H37.1549V44.6356H38.8068V49.301ZM37.1549 43.8644V39.9316H38.8068V43.8644H37.1549ZM38.8068 39.1604H37.1549V35.2276H38.8068V39.1604ZM36.3682 39.1604H34.6769C34.4409 39.1604 34.2836 39.3147 34.2836 39.546C34.2836 39.7774 34.4409 39.9316 34.6769 39.9316H36.3682V41.5124H25.7484V37.2711H36.3682V39.1604ZM34.7949 51.2289H27.3217C26.4564 51.2289 25.7484 50.5348 25.7484 49.6866V42.2836H36.3682V43.8644H34.6769C34.4409 43.8644 34.2836 44.0187 34.2836 44.25C34.2836 44.4813 34.4409 44.6356 34.6769 44.6356H36.3682V49.6866C36.3682 50.5734 35.6602 51.2289 34.7949 51.2289ZM48.64 51.2289H41.1668C40.3015 51.2289 39.5935 50.5348 39.5935 49.6866V44.6356H40.9701C41.2061 44.6356 41.3635 44.4813 41.3635 44.25C41.3635 44.0187 41.2061 43.8644 40.9701 43.8644H39.5935V42.2836H50.2133V49.6866C50.2133 50.5734 49.5054 51.2289 48.64 51.2289ZM46.8307 21.7711C47.2241 21.7711 47.5781 21.9254 47.814 22.2338C48.05 22.5423 48.1287 22.9279 48.0107 23.3134C47.7747 24.1617 47.6567 25.0485 47.6567 25.9353C47.6567 28.056 48.3254 30.0609 49.466 31.4876C49.938 32.0659 50.174 32.7985 50.174 33.6082V36.5H39.5542V35.2276H40.9308C41.1668 35.2276 41.3241 35.0734 41.3241 34.842C41.3241 34.6107 41.1668 34.4565 40.9308 34.4565H39.5542V30.2537C39.5542 29.3669 40.0655 28.5572 40.8128 28.2102C43.2121 27.092 44.7068 24.0075 44.7068 21.7711H46.8307ZM37.5482 23.1978C39.3575 23.1978 41.5208 22.8507 43.9988 21.9254C43.8808 23.9303 42.5435 26.5908 40.5375 27.5162C39.4755 28.0174 38.8068 29.0585 38.8068 30.2537V34.4565H37.1549V30.2537C37.1549 29.0585 36.4862 27.9789 35.4242 27.5162C33.4576 26.6294 32.1203 24.046 31.963 22.041C32.9069 22.4652 34.8342 23.1978 37.5482 23.1978ZM26.4564 31.5261C27.597 30.0995 28.2657 28.056 28.2657 25.9739C28.2657 25.0485 28.1477 24.1617 27.9117 23.352C27.7937 22.9664 27.8723 22.5808 28.1083 22.2724C28.3443 21.9639 28.6983 21.8097 29.0917 21.8097H31.1763C31.2156 24.0846 32.7103 27.1692 35.0702 28.2488C35.8569 28.5958 36.3289 29.4055 36.3289 30.2923V34.495H34.6376C34.4016 34.495 34.2443 34.6493 34.2443 34.8806C34.2443 35.1119 34.4016 35.2662 34.6376 35.2662H36.3289V36.5H25.709V33.6082C25.7484 32.8371 26.0237 32.0659 26.4564 31.5261Z" fill="black"/>
<rect x="37" y="0.789203" width="50.8839" height="50.8839" rx="5.22944" transform="rotate(45 37 0.789203)" stroke="black" stroke-width="1.1161"/>
</svg>
