<svg 
 xmlns="http://www.w3.org/2000/svg"
 xmlns:xlink="http://www.w3.org/1999/xlink"
 width="24px" height="24px">
<path fill-rule="evenodd"  opacity="0.302" fill="rgb(0, 0, 0)"
 d="M6.407,4.015 C6.407,3.927 6.466,3.869 6.480,3.791 C6.474,3.767 6.468,3.743 6.462,3.719 C6.470,3.717 6.478,3.715 6.487,3.713 C6.487,3.678 6.487,3.644 6.487,3.610 C6.495,3.608 6.503,3.606 6.511,3.604 C6.505,3.579 6.499,3.555 6.493,3.531 C6.501,3.529 6.509,3.527 6.518,3.525 C6.518,3.491 6.518,3.456 6.518,3.422 C6.526,3.420 6.534,3.418 6.542,3.416 C6.536,3.392 6.530,3.367 6.524,3.343 C6.533,3.341 6.541,3.339 6.549,3.337 C6.545,3.321 6.541,3.305 6.537,3.289 C6.545,3.287 6.553,3.285 6.561,3.283 C6.561,3.248 6.561,3.214 6.561,3.180 C6.569,3.178 6.578,3.176 6.586,3.174 C6.580,3.150 6.574,3.125 6.568,3.101 C6.576,3.099 6.584,3.097 6.592,3.095 C6.592,3.061 6.592,3.027 6.592,2.992 C6.601,2.990 6.609,2.988 6.617,2.986 C6.611,2.962 6.605,2.938 6.599,2.913 C6.607,2.912 6.615,2.910 6.623,2.908 C6.623,2.873 6.623,2.839 6.624,2.805 C6.632,2.803 6.640,2.801 6.648,2.799 C6.642,2.774 6.636,2.750 6.630,2.726 C6.638,2.724 6.646,2.722 6.654,2.720 C6.654,2.686 6.654,2.651 6.655,2.617 C6.663,2.615 6.671,2.613 6.679,2.611 C6.673,2.587 6.667,2.562 6.661,2.538 C6.669,2.536 6.677,2.534 6.685,2.532 C6.685,2.498 6.686,2.464 6.686,2.429 C6.694,2.427 6.702,2.425 6.710,2.423 C6.704,2.399 6.698,2.375 6.692,2.351 C6.700,2.349 6.708,2.347 6.716,2.345 C6.712,2.328 6.708,2.312 6.704,2.296 C6.712,2.294 6.721,2.292 6.729,2.290 C6.729,2.256 6.729,2.221 6.729,2.187 C6.737,2.185 6.745,2.183 6.753,2.181 C6.747,2.157 6.741,2.133 6.735,2.108 C6.744,2.106 6.752,2.104 6.760,2.102 C6.760,2.068 6.760,2.034 6.760,1.999 C6.768,1.998 6.776,1.996 6.784,1.994 C6.778,1.969 6.772,1.945 6.766,1.921 C6.775,1.919 6.783,1.917 6.791,1.915 C6.791,1.881 6.791,1.846 6.791,1.812 C6.799,1.810 6.807,1.808 6.815,1.806 C6.816,1.772 6.816,1.737 6.816,1.703 C6.830,1.691 6.844,1.679 6.858,1.667 C6.859,1.632 6.859,1.598 6.859,1.564 C6.885,1.532 6.912,1.499 6.938,1.467 C6.934,1.451 6.930,1.435 6.926,1.419 C6.959,1.376 6.991,1.334 7.023,1.292 C7.028,1.274 7.032,1.256 7.036,1.237 C7.052,1.233 7.068,1.229 7.084,1.226 C7.095,1.197 7.105,1.169 7.115,1.141 C7.131,1.137 7.147,1.133 7.163,1.129 C7.168,1.111 7.172,1.093 7.176,1.074 C7.206,1.058 7.237,1.042 7.267,1.026 C7.271,1.008 7.275,0.990 7.279,0.972 C7.303,0.966 7.328,0.960 7.352,0.954 C7.350,0.946 7.348,0.938 7.346,0.930 C7.362,0.926 7.378,0.922 7.395,0.918 C7.393,0.910 7.391,0.902 7.389,0.894 C7.413,0.888 7.437,0.882 7.461,0.876 C7.459,0.868 7.457,0.860 7.455,0.852 C7.480,0.846 7.504,0.840 7.528,0.834 C7.526,0.826 7.524,0.817 7.522,0.809 C7.554,0.801 7.587,0.793 7.619,0.786 C7.617,0.777 7.615,0.769 7.613,0.761 C7.654,0.751 7.694,0.741 7.735,0.732 C7.733,0.723 7.730,0.715 7.729,0.707 C8.335,0.558 8.941,0.409 9.548,0.260 C10.141,0.115 10.836,-0.116 11.263,0.019 C11.275,0.033 11.287,0.048 11.299,0.062 C11.333,0.062 11.368,0.062 11.402,0.062 C11.424,0.082 11.446,0.103 11.468,0.123 C11.484,0.119 11.501,0.115 11.517,0.111 C11.539,0.131 11.561,0.152 11.583,0.172 C11.642,0.200 11.700,0.229 11.758,0.257 C11.762,0.274 11.766,0.290 11.770,0.306 C11.799,0.316 11.827,0.326 11.855,0.337 C11.859,0.353 11.863,0.369 11.867,0.385 C11.885,0.389 11.903,0.393 11.921,0.397 C11.950,0.442 11.978,0.487 12.006,0.531 C12.014,0.529 12.022,0.527 12.030,0.525 C12.034,0.541 12.038,0.557 12.042,0.574 C12.050,0.572 12.058,0.570 12.066,0.568 C12.094,0.612 12.122,0.657 12.150,0.701 C12.158,0.699 12.167,0.697 12.175,0.695 C12.181,0.720 12.186,0.744 12.192,0.768 C12.201,0.766 12.209,0.764 12.217,0.762 C12.233,0.792 12.249,0.823 12.265,0.853 C12.273,0.851 12.281,0.849 12.289,0.847 C12.295,0.871 12.301,0.896 12.307,0.920 C12.315,0.918 12.323,0.916 12.331,0.914 C12.347,0.944 12.363,0.975 12.379,1.005 C12.387,1.003 12.395,1.001 12.403,0.999 C12.409,1.023 12.415,1.048 12.421,1.072 C12.429,1.070 12.438,1.068 12.446,1.066 C12.462,1.096 12.478,1.127 12.494,1.157 C12.502,1.155 12.510,1.153 12.518,1.151 C12.524,1.175 12.530,1.200 12.536,1.224 C12.544,1.222 12.552,1.220 12.560,1.218 C12.576,1.248 12.592,1.278 12.608,1.309 C12.616,1.307 12.624,1.305 12.632,1.303 C12.636,1.319 12.640,1.335 12.644,1.351 C12.652,1.349 12.660,1.347 12.669,1.345 C12.675,1.370 12.680,1.394 12.686,1.418 C12.695,1.416 12.703,1.414 12.711,1.412 C12.727,1.443 12.743,1.473 12.759,1.503 C12.767,1.501 12.775,1.499 12.783,1.497 C12.789,1.522 12.795,1.546 12.801,1.570 C12.809,1.568 12.817,1.566 12.825,1.564 C12.841,1.594 12.857,1.625 12.873,1.655 C12.881,1.653 12.889,1.651 12.898,1.649 C12.903,1.674 12.909,1.698 12.915,1.722 C12.923,1.720 12.932,1.718 12.940,1.716 C12.956,1.746 12.972,1.777 12.988,1.807 C12.996,1.805 13.004,1.803 13.012,1.801 C13.018,1.825 13.024,1.850 13.030,1.874 C13.038,1.872 13.046,1.870 13.054,1.868 C13.070,1.898 13.086,1.929 13.102,1.959 C13.110,1.957 13.118,1.955 13.126,1.953 C13.132,1.977 13.138,2.002 13.144,2.026 C13.152,2.024 13.161,2.022 13.169,2.020 C13.197,2.064 13.225,2.109 13.253,2.153 C13.261,2.151 13.269,2.149 13.277,2.148 C13.293,2.178 13.309,2.208 13.325,2.239 C13.343,2.243 13.361,2.247 13.380,2.251 C13.422,2.283 13.464,2.316 13.506,2.348 C13.523,2.344 13.539,2.340 13.555,2.336 C13.557,2.344 13.559,2.353 13.561,2.361 C13.577,2.357 13.593,2.353 13.609,2.349 C13.611,2.357 13.613,2.365 13.615,2.373 C13.632,2.369 13.648,2.365 13.664,2.361 C13.666,2.369 13.668,2.377 13.670,2.385 C13.686,2.381 13.702,2.377 13.718,2.373 C13.720,2.381 13.722,2.390 13.724,2.398 C13.740,2.394 13.757,2.390 13.773,2.386 C13.775,2.394 13.777,2.402 13.779,2.410 C13.795,2.406 13.811,2.402 13.827,2.398 C13.829,2.406 13.831,2.414 13.833,2.422 C13.868,2.422 13.902,2.423 13.936,2.423 C13.938,2.431 13.940,2.439 13.942,2.447 C13.985,2.445 14.027,2.443 14.069,2.441 C14.081,2.456 14.093,2.470 14.106,2.484 C14.249,2.509 14.392,2.534 14.535,2.559 C14.547,2.573 14.559,2.587 14.571,2.601 C14.606,2.601 14.640,2.601 14.674,2.601 C14.686,2.616 14.699,2.630 14.711,2.644 C14.763,2.648 14.816,2.653 14.868,2.657 C14.880,2.671 14.892,2.685 14.904,2.699 C14.920,2.695 14.936,2.691 14.953,2.687 C14.965,2.702 14.977,2.716 14.989,2.730 C15.005,2.726 15.021,2.722 15.037,2.718 C15.049,2.732 15.061,2.746 15.074,2.761 C15.108,2.761 15.142,2.761 15.177,2.761 C15.189,2.775 15.201,2.789 15.213,2.804 C15.229,2.800 15.245,2.796 15.261,2.792 C15.283,2.812 15.305,2.832 15.328,2.852 C15.344,2.849 15.360,2.845 15.376,2.841 C15.388,2.855 15.400,2.869 15.412,2.883 C15.438,2.885 15.465,2.887 15.491,2.890 C15.493,2.898 15.495,2.906 15.497,2.914 C15.513,2.910 15.529,2.906 15.545,2.902 C15.568,2.922 15.590,2.942 15.612,2.963 C15.628,2.959 15.644,2.955 15.660,2.951 C15.662,2.959 15.664,2.967 15.666,2.975 C15.719,2.979 15.771,2.984 15.824,2.988 C15.826,2.996 15.828,3.004 15.830,3.012 C15.959,3.026 16.328,2.861 16.400,2.821 C16.473,2.803 16.545,2.785 16.618,2.767 C16.616,2.759 16.614,2.751 16.612,2.743 C16.677,2.727 16.742,2.711 16.806,2.695 C16.804,2.687 16.802,2.679 16.800,2.671 C16.944,2.627 17.087,2.583 17.231,2.539 C17.229,2.531 17.227,2.523 17.225,2.515 C17.290,2.499 17.354,2.483 17.419,2.467 C17.417,2.459 17.415,2.451 17.413,2.443 C17.486,2.425 17.558,2.407 17.631,2.390 C18.144,2.098 18.703,2.166 19.079,2.317 C19.192,2.392 19.305,2.467 19.417,2.542 C19.421,2.558 19.425,2.575 19.429,2.591 C19.448,2.595 19.466,2.599 19.484,2.603 C19.488,2.619 19.492,2.635 19.496,2.652 C19.514,2.656 19.532,2.660 19.550,2.664 C19.578,2.709 19.606,2.753 19.634,2.798 C19.653,2.802 19.671,2.806 19.689,2.810 C19.717,2.854 19.745,2.899 19.773,2.944 C19.791,2.948 19.809,2.952 19.828,2.956 C19.856,3.000 19.884,3.045 19.912,3.089 C19.930,3.094 19.948,3.098 19.966,3.102 C19.970,3.118 19.974,3.134 19.978,3.150 C19.986,3.148 19.994,3.146 20.002,3.144 C20.007,3.161 20.010,3.177 20.014,3.193 C20.033,3.197 20.051,3.201 20.069,3.205 C20.097,3.250 20.125,3.294 20.153,3.339 C20.171,3.343 20.189,3.347 20.208,3.351 C20.236,3.396 20.264,3.440 20.292,3.485 C20.310,3.489 20.328,3.493 20.346,3.497 C20.374,3.542 20.402,3.586 20.431,3.631 C20.449,3.635 20.467,3.639 20.485,3.643 C20.501,3.673 20.517,3.704 20.533,3.734 C20.551,3.738 20.569,3.742 20.588,3.746 C20.616,3.791 20.644,3.835 20.672,3.880 C20.690,3.884 20.708,3.888 20.726,3.892 C20.754,3.937 20.782,3.981 20.811,4.026 C20.829,4.030 20.847,4.034 20.865,4.038 C20.869,4.054 20.873,4.071 20.877,4.087 C20.885,4.085 20.893,4.083 20.901,4.081 C20.905,4.097 20.909,4.113 20.913,4.129 C20.921,4.127 20.929,4.125 20.937,4.123 C20.941,4.140 20.945,4.156 20.949,4.172 C20.967,4.176 20.986,4.180 21.004,4.184 C21.008,4.200 21.012,4.217 21.016,4.233 C21.024,4.231 21.032,4.229 21.040,4.227 C21.044,4.243 21.048,4.259 21.052,4.275 C21.070,4.279 21.088,4.284 21.106,4.288 C21.134,4.332 21.162,4.377 21.191,4.421 C21.209,4.425 21.227,4.429 21.245,4.434 C21.273,4.478 21.301,4.523 21.329,4.567 C21.347,4.571 21.366,4.575 21.384,4.580 C21.388,4.596 21.392,4.612 21.396,4.628 C21.404,4.626 21.412,4.624 21.420,4.622 C21.436,4.652 21.452,4.683 21.468,4.713 C21.476,4.711 21.484,4.709 21.492,4.707 C21.512,4.754 21.532,4.800 21.552,4.847 C21.560,4.845 21.568,4.843 21.576,4.841 C21.747,5.084 21.822,5.626 21.778,5.871 C21.770,5.873 21.762,5.875 21.754,5.877 C21.754,5.912 21.754,5.946 21.753,5.980 C21.745,5.982 21.737,5.984 21.729,5.986 C21.733,6.002 21.737,6.019 21.741,6.035 C21.727,6.047 21.713,6.059 21.699,6.071 C21.698,6.105 21.698,6.140 21.698,6.174 C21.678,6.196 21.658,6.218 21.637,6.240 C21.641,6.256 21.645,6.273 21.649,6.289 C21.629,6.311 21.609,6.333 21.588,6.355 C21.592,6.371 21.596,6.387 21.600,6.404 C21.580,6.426 21.560,6.448 21.539,6.470 C21.543,6.486 21.547,6.502 21.551,6.519 C21.537,6.531 21.523,6.543 21.509,6.555 C21.513,6.571 21.517,6.587 21.521,6.603 C21.500,6.625 21.480,6.647 21.460,6.670 C21.464,6.686 21.468,6.702 21.472,6.718 C21.452,6.740 21.431,6.762 21.411,6.784 C21.415,6.801 21.419,6.817 21.423,6.833 C21.403,6.855 21.382,6.877 21.362,6.899 C21.366,6.916 21.370,6.932 21.374,6.948 C21.360,6.960 21.346,6.972 21.331,6.984 C21.329,7.010 21.327,7.037 21.325,7.063 C21.305,7.085 21.284,7.107 21.264,7.129 C21.268,7.145 21.272,7.161 21.276,7.178 C21.256,7.200 21.236,7.222 21.215,7.244 C21.213,7.270 21.211,7.296 21.209,7.323 C21.195,7.335 21.180,7.347 21.166,7.359 C21.170,7.375 21.174,7.391 21.178,7.407 C21.164,7.419 21.150,7.432 21.136,7.444 C21.140,7.460 21.144,7.476 21.148,7.492 C21.133,7.504 21.119,7.516 21.105,7.528 C21.103,7.554 21.101,7.581 21.099,7.607 C21.078,7.629 21.058,7.651 21.038,7.673 C21.042,7.690 21.046,7.706 21.050,7.722 C21.029,7.744 21.009,7.766 20.989,7.788 C20.993,7.804 20.997,7.821 21.001,7.837 C20.981,7.859 20.960,7.881 20.940,7.903 C20.893,8.024 20.798,8.323 20.913,8.527 C20.921,8.525 20.929,8.523 20.937,8.521 C21.039,8.899 21.140,9.277 21.242,9.655 C21.279,9.808 21.317,9.962 21.355,10.116 C21.347,10.118 21.339,10.120 21.331,10.122 C21.352,10.211 21.374,10.300 21.396,10.388 C21.388,10.390 21.380,10.392 21.372,10.394 C21.408,10.506 21.444,10.617 21.480,10.728 C21.488,10.726 21.496,10.724 21.504,10.722 C21.510,10.746 21.516,10.771 21.522,10.795 C21.540,10.799 21.558,10.803 21.576,10.807 C21.580,10.823 21.584,10.839 21.588,10.856 C21.606,10.860 21.624,10.864 21.643,10.868 C21.646,10.884 21.650,10.900 21.654,10.917 C21.683,10.927 21.711,10.937 21.739,10.947 C21.743,10.963 21.747,10.979 21.751,10.996 C21.769,11.000 21.787,11.004 21.805,11.008 C21.809,11.024 21.813,11.040 21.817,11.056 C21.846,11.067 21.874,11.077 21.902,11.087 C21.906,11.103 21.910,11.119 21.914,11.136 C21.942,11.146 21.970,11.156 21.999,11.166 C22.003,11.182 22.007,11.199 22.011,11.215 C22.029,11.219 22.047,11.223 22.065,11.227 C22.079,11.249 22.093,11.272 22.107,11.294 C22.135,11.304 22.164,11.314 22.192,11.325 C22.196,11.341 22.200,11.357 22.204,11.373 C22.222,11.377 22.240,11.381 22.258,11.385 C22.272,11.408 22.286,11.430 22.300,11.452 C22.329,11.462 22.357,11.473 22.385,11.483 C22.389,11.499 22.393,11.515 22.397,11.531 C22.425,11.542 22.453,11.552 22.482,11.562 C22.486,11.578 22.490,11.594 22.494,11.610 C22.512,11.615 22.530,11.619 22.548,11.623 C22.552,11.639 22.556,11.655 22.560,11.671 C22.578,11.675 22.596,11.680 22.614,11.684 C22.628,11.706 22.642,11.728 22.656,11.750 C22.685,11.761 22.713,11.771 22.741,11.781 C22.745,11.797 22.749,11.813 22.753,11.830 C22.781,11.840 22.810,11.850 22.838,11.860 C22.842,11.876 22.846,11.893 22.850,11.909 C22.878,11.919 22.906,11.929 22.934,11.939 C22.938,11.956 22.942,11.972 22.946,11.988 C22.974,11.998 23.003,12.008 23.031,12.019 C23.045,12.041 23.059,12.063 23.073,12.085 C23.091,12.089 23.109,12.094 23.127,12.098 C23.131,12.114 23.135,12.130 23.139,12.146 C23.158,12.150 23.176,12.154 23.194,12.158 C23.210,12.189 23.226,12.219 23.242,12.250 C23.260,12.254 23.278,12.258 23.296,12.262 C23.300,12.278 23.304,12.294 23.308,12.310 C23.316,12.308 23.325,12.306 23.333,12.304 C23.337,12.321 23.341,12.337 23.344,12.353 C23.353,12.351 23.361,12.349 23.369,12.347 C23.375,12.371 23.381,12.396 23.387,12.420 C23.395,12.418 23.403,12.416 23.411,12.414 C23.417,12.438 23.423,12.462 23.429,12.487 C23.437,12.485 23.445,12.483 23.453,12.481 C23.459,12.505 23.465,12.529 23.471,12.553 C23.479,12.551 23.487,12.549 23.495,12.547 C23.505,12.588 23.515,12.628 23.525,12.669 C23.689,12.950 23.687,13.398 23.630,13.620 C23.622,13.622 23.614,13.624 23.606,13.626 C23.610,13.642 23.614,13.658 23.618,13.675 C23.610,13.677 23.602,13.679 23.593,13.681 C23.597,13.697 23.601,13.713 23.605,13.729 C23.597,13.731 23.589,13.733 23.581,13.735 C23.585,13.751 23.589,13.767 23.593,13.783 C23.579,13.796 23.565,13.808 23.550,13.820 C23.546,13.872 23.542,13.925 23.538,13.977 C23.523,13.989 23.509,14.001 23.495,14.013 C23.495,14.048 23.495,14.082 23.495,14.116 C23.481,14.128 23.466,14.140 23.452,14.152 C23.456,14.169 23.460,14.185 23.464,14.201 C23.456,14.203 23.448,14.205 23.440,14.207 C23.444,14.223 23.448,14.239 23.452,14.255 C23.444,14.257 23.436,14.259 23.427,14.261 C23.431,14.277 23.435,14.294 23.439,14.310 C23.425,14.322 23.411,14.334 23.397,14.346 C23.393,14.398 23.388,14.451 23.384,14.503 C23.370,14.515 23.356,14.528 23.342,14.540 C23.337,14.592 23.333,14.645 23.329,14.697 C23.315,14.709 23.300,14.721 23.286,14.733 C23.290,14.749 23.294,14.766 23.298,14.782 C23.290,14.784 23.282,14.786 23.274,14.788 C23.278,14.804 23.282,14.820 23.286,14.836 C23.272,14.848 23.257,14.860 23.243,14.872 C23.239,14.925 23.235,14.977 23.231,15.030 C23.216,15.042 23.202,15.054 23.188,15.066 C23.184,15.118 23.179,15.171 23.175,15.223 C23.161,15.235 23.147,15.247 23.133,15.260 C23.128,15.312 23.124,15.365 23.120,15.417 C23.106,15.429 23.091,15.441 23.077,15.453 C23.077,15.487 23.077,15.522 23.077,15.556 C23.063,15.568 23.049,15.580 23.034,15.592 C23.030,15.645 23.026,15.697 23.022,15.750 C23.007,15.762 22.993,15.774 22.979,15.786 C22.983,15.802 22.987,15.818 22.991,15.834 C22.983,15.836 22.975,15.838 22.967,15.840 C22.971,15.856 22.975,15.873 22.979,15.889 C22.971,15.891 22.962,15.893 22.954,15.895 C22.958,15.911 22.962,15.927 22.966,15.943 C22.952,15.955 22.938,15.967 22.924,15.979 C22.919,16.032 22.915,16.084 22.911,16.137 C22.897,16.149 22.883,16.161 22.868,16.173 C22.868,16.207 22.868,16.242 22.868,16.276 C22.860,16.278 22.852,16.280 22.844,16.282 C22.842,16.308 22.839,16.335 22.837,16.361 C22.823,16.373 22.809,16.385 22.795,16.397 C22.799,16.413 22.803,16.429 22.807,16.445 C22.780,16.478 22.754,16.510 22.728,16.542 C22.732,16.558 22.735,16.574 22.739,16.590 C22.731,16.592 22.723,16.594 22.715,16.596 C22.705,16.625 22.695,16.653 22.685,16.681 C22.668,16.685 22.652,16.689 22.636,16.693 C22.620,16.731 22.603,16.770 22.587,16.808 C22.571,16.812 22.555,16.816 22.539,16.820 C22.528,16.848 22.518,16.876 22.508,16.905 C22.478,16.921 22.447,16.937 22.417,16.953 C22.419,16.961 22.421,16.969 22.423,16.977 C22.378,17.005 22.334,17.033 22.289,17.061 C22.291,17.069 22.293,17.077 22.295,17.085 C22.271,17.091 22.247,17.097 22.223,17.103 C22.225,17.111 22.227,17.119 22.228,17.127 C22.204,17.133 22.180,17.139 22.156,17.145 C22.072,17.202 21.819,17.348 21.664,17.343 C21.662,17.335 21.660,17.327 21.658,17.319 C21.586,17.337 21.513,17.355 21.440,17.373 C21.438,17.364 21.436,17.356 21.434,17.348 C21.361,17.366 21.289,17.384 21.216,17.402 C21.214,17.394 21.212,17.386 21.210,17.378 C21.137,17.396 21.064,17.413 20.992,17.431 C20.990,17.423 20.988,17.415 20.986,17.407 C20.921,17.423 20.856,17.439 20.792,17.455 C20.790,17.447 20.788,17.439 20.786,17.430 C20.571,17.466 20.357,17.501 20.143,17.537 C20.141,17.529 20.139,17.521 20.137,17.513 C20.064,17.530 19.992,17.548 19.919,17.566 C19.917,17.558 19.915,17.550 19.913,17.542 C19.840,17.560 19.767,17.578 19.695,17.596 C19.693,17.587 19.691,17.579 19.689,17.571 C19.624,17.587 19.559,17.603 19.495,17.619 C19.497,17.627 19.499,17.635 19.501,17.643 C19.446,17.665 19.391,17.687 19.337,17.709 C19.333,17.727 19.329,17.746 19.324,17.764 C19.308,17.768 19.292,17.772 19.276,17.776 C19.272,17.794 19.268,17.812 19.264,17.830 C19.247,17.834 19.231,17.838 19.215,17.842 C19.211,17.860 19.207,17.878 19.203,17.896 C19.187,17.900 19.170,17.904 19.154,17.908 C19.144,17.937 19.134,17.965 19.124,17.993 C19.107,17.997 19.091,18.001 19.075,18.005 C19.071,18.023 19.067,18.041 19.063,18.059 C19.040,18.073 19.018,18.087 18.996,18.101 C18.998,18.110 19.000,18.118 19.002,18.126 C18.986,18.130 18.970,18.134 18.953,18.138 C18.949,18.156 18.945,18.174 18.941,18.192 C18.919,18.206 18.897,18.220 18.874,18.234 C18.876,18.242 18.878,18.250 18.880,18.259 C18.850,18.275 18.820,18.291 18.789,18.307 C18.785,18.325 18.781,18.343 18.777,18.361 C18.755,18.375 18.732,18.389 18.710,18.403 C18.712,18.411 18.714,18.419 18.716,18.427 C18.686,18.443 18.655,18.459 18.625,18.476 C18.621,18.494 18.617,18.512 18.613,18.530 C18.568,18.558 18.523,18.586 18.479,18.614 C18.475,18.632 18.471,18.651 18.467,18.669 C18.450,18.673 18.434,18.677 18.418,18.681 C18.420,18.689 18.422,18.697 18.424,18.705 C18.408,18.709 18.392,18.713 18.376,18.717 C18.378,18.725 18.380,18.733 18.382,18.741 C18.365,18.745 18.349,18.749 18.333,18.753 C18.335,18.761 18.337,18.769 18.339,18.777 C18.323,18.781 18.307,18.785 18.291,18.789 C18.292,18.797 18.294,18.805 18.296,18.813 C18.280,18.817 18.264,18.821 18.248,18.825 C18.250,18.833 18.252,18.841 18.254,18.850 C18.238,18.853 18.222,18.857 18.205,18.861 C18.207,18.870 18.209,18.878 18.211,18.886 C18.195,18.890 18.179,18.894 18.163,18.898 C18.165,18.906 18.167,18.914 18.169,18.922 C18.153,18.926 18.136,18.930 18.120,18.934 C18.116,18.952 18.112,18.970 18.108,18.988 C18.084,18.994 18.059,19.000 18.035,19.006 C18.037,19.014 18.039,19.022 18.041,19.030 C17.997,19.058 17.952,19.087 17.908,19.115 C17.910,19.123 17.912,19.131 17.914,19.139 C17.897,19.143 17.881,19.147 17.865,19.151 C17.867,19.159 17.869,19.167 17.871,19.175 C17.833,19.193 17.794,19.211 17.756,19.229 C17.752,19.247 17.747,19.265 17.743,19.284 C17.727,19.288 17.711,19.291 17.695,19.295 C17.697,19.304 17.699,19.312 17.701,19.320 C17.685,19.324 17.668,19.328 17.652,19.332 C17.654,19.340 17.656,19.348 17.658,19.356 C17.632,19.388 17.605,19.420 17.579,19.452 C17.583,19.469 17.587,19.485 17.591,19.501 C17.577,19.513 17.563,19.525 17.548,19.537 C17.552,19.553 17.556,19.569 17.560,19.586 C17.552,19.588 17.544,19.590 17.536,19.592 C17.540,19.608 17.544,19.624 17.548,19.640 C17.540,19.642 17.532,19.644 17.524,19.646 C17.530,19.670 17.536,19.695 17.542,19.719 C17.534,19.721 17.525,19.723 17.517,19.725 C17.517,19.759 17.517,19.793 17.517,19.828 C17.509,19.830 17.501,19.832 17.493,19.834 C17.499,19.858 17.505,19.882 17.511,19.906 C17.502,19.908 17.494,19.910 17.486,19.912 C17.490,19.929 17.494,19.945 17.498,19.961 C17.490,19.963 17.482,19.965 17.474,19.967 C17.474,20.001 17.474,20.036 17.474,20.070 C17.465,20.072 17.457,20.074 17.449,20.076 C17.455,20.100 17.461,20.124 17.467,20.149 C17.459,20.151 17.451,20.153 17.443,20.155 C17.443,20.189 17.443,20.223 17.443,20.258 C17.434,20.259 17.426,20.261 17.418,20.263 C17.424,20.288 17.430,20.312 17.436,20.336 C17.428,20.338 17.420,20.340 17.412,20.342 C17.412,20.376 17.412,20.411 17.411,20.445 C17.403,20.447 17.395,20.449 17.387,20.451 C17.393,20.475 17.399,20.500 17.405,20.524 C17.397,20.526 17.389,20.528 17.381,20.530 C17.381,20.564 17.381,20.598 17.380,20.633 C17.372,20.635 17.364,20.637 17.356,20.639 C17.362,20.663 17.368,20.687 17.374,20.711 C17.366,20.713 17.358,20.716 17.350,20.718 C17.350,20.752 17.349,20.786 17.349,20.820 C17.341,20.822 17.333,20.824 17.325,20.826 C17.331,20.851 17.337,20.875 17.343,20.899 C17.335,20.901 17.327,20.903 17.319,20.905 C17.323,20.921 17.327,20.937 17.331,20.954 C17.323,20.956 17.314,20.958 17.306,20.960 C17.306,20.994 17.306,21.028 17.306,21.063 C17.298,21.065 17.290,21.067 17.282,21.069 C17.288,21.093 17.294,21.117 17.300,21.141 C17.291,21.143 17.283,21.145 17.275,21.147 C17.275,21.182 17.275,21.216 17.275,21.250 C17.267,21.252 17.259,21.254 17.251,21.256 C17.257,21.280 17.262,21.305 17.269,21.329 C17.260,21.331 17.252,21.333 17.244,21.335 C17.244,21.369 17.244,21.404 17.244,21.438 C17.236,21.440 17.228,21.442 17.220,21.444 C17.226,21.468 17.231,21.492 17.237,21.517 C17.229,21.519 17.221,21.521 17.213,21.523 C17.217,21.539 17.221,21.555 17.225,21.571 C17.217,21.573 17.209,21.575 17.201,21.577 C17.197,21.629 17.192,21.682 17.188,21.734 C17.174,21.746 17.160,21.759 17.146,21.771 C17.149,21.787 17.153,21.803 17.157,21.819 C17.143,21.831 17.129,21.843 17.115,21.855 C17.119,21.871 17.123,21.888 17.127,21.904 C17.100,21.936 17.074,21.968 17.048,22.000 C17.007,22.079 16.966,22.158 16.926,22.236 C16.909,22.240 16.893,22.244 16.877,22.248 C16.867,22.276 16.857,22.304 16.846,22.333 C16.816,22.349 16.786,22.365 16.755,22.381 C16.751,22.399 16.747,22.417 16.743,22.435 C16.705,22.453 16.666,22.471 16.628,22.489 C16.630,22.497 16.632,22.505 16.634,22.514 C16.617,22.517 16.601,22.521 16.585,22.525 C16.587,22.534 16.589,22.542 16.591,22.550 C16.567,22.556 16.543,22.562 16.518,22.568 C16.520,22.576 16.522,22.584 16.524,22.592 C16.247,22.774 15.531,22.887 15.130,22.986 C14.312,23.186 13.199,23.574 12.626,23.369 C12.604,23.349 12.582,23.329 12.560,23.308 C12.544,23.312 12.528,23.316 12.511,23.320 C12.479,23.294 12.447,23.268 12.415,23.241 C12.346,23.207 12.278,23.172 12.209,23.137 C12.205,23.121 12.201,23.105 12.197,23.089 C12.179,23.085 12.161,23.081 12.143,23.077 C12.129,23.054 12.115,23.032 12.101,23.010 C12.093,23.012 12.085,23.014 12.077,23.016 C12.048,22.971 12.020,22.927 11.992,22.882 C11.984,22.884 11.976,22.886 11.968,22.888 C11.964,22.872 11.960,22.856 11.956,22.840 C11.948,22.841 11.940,22.843 11.932,22.845 C11.904,22.801 11.876,22.756 11.848,22.712 C11.840,22.714 11.831,22.716 11.823,22.718 C11.817,22.694 11.811,22.669 11.806,22.645 C11.797,22.647 11.789,22.649 11.781,22.651 C11.765,22.621 11.749,22.590 11.733,22.560 C11.725,22.562 11.717,22.564 11.709,22.566 C11.703,22.542 11.697,22.517 11.691,22.493 C11.683,22.495 11.675,22.497 11.667,22.499 C11.651,22.469 11.635,22.438 11.619,22.408 C11.611,22.410 11.603,22.412 11.594,22.414 C11.589,22.390 11.583,22.366 11.577,22.341 C11.568,22.343 11.560,22.345 11.552,22.347 C11.536,22.317 11.520,22.286 11.504,22.256 C11.496,22.258 11.488,22.260 11.480,22.262 C11.474,22.238 11.468,22.214 11.462,22.189 C11.454,22.191 11.446,22.193 11.438,22.195 C11.422,22.165 11.406,22.135 11.390,22.104 C11.382,22.106 11.374,22.108 11.366,22.110 C11.362,22.094 11.358,22.078 11.354,22.062 C11.346,22.064 11.337,22.066 11.329,22.068 C11.323,22.043 11.317,22.019 11.311,21.995 C11.303,21.997 11.295,21.999 11.287,22.001 C11.271,21.971 11.255,21.940 11.239,21.910 C11.231,21.912 11.223,21.914 11.215,21.916 C11.209,21.892 11.203,21.867 11.197,21.843 C11.189,21.845 11.181,21.847 11.173,21.849 C11.157,21.819 11.141,21.788 11.125,21.758 C11.117,21.760 11.109,21.762 11.100,21.764 C11.094,21.740 11.089,21.715 11.083,21.691 C11.075,21.693 11.066,21.695 11.058,21.697 C11.042,21.667 11.026,21.636 11.010,21.606 C11.002,21.608 10.994,21.610 10.986,21.612 C10.980,21.588 10.974,21.563 10.968,21.539 C10.960,21.541 10.952,21.543 10.944,21.545 C10.928,21.515 10.912,21.484 10.896,21.454 C10.888,21.456 10.880,21.458 10.872,21.460 C10.866,21.436 10.860,21.412 10.854,21.387 C10.846,21.389 10.837,21.391 10.829,21.393 C10.801,21.349 10.773,21.304 10.745,21.260 C10.737,21.262 10.729,21.264 10.721,21.266 C10.705,21.235 10.689,21.205 10.673,21.175 C10.655,21.170 10.637,21.166 10.618,21.162 C10.586,21.136 10.554,21.109 10.522,21.083 C10.288,21.038 10.054,20.992 9.820,20.947 C9.818,20.939 9.816,20.931 9.814,20.923 C9.798,20.927 9.781,20.931 9.765,20.935 C9.763,20.927 9.761,20.918 9.759,20.910 C9.743,20.914 9.727,20.918 9.711,20.922 C9.709,20.914 9.707,20.906 9.705,20.898 C9.689,20.902 9.672,20.906 9.656,20.910 C9.654,20.902 9.652,20.894 9.650,20.886 C9.616,20.886 9.582,20.885 9.547,20.885 C9.535,20.871 9.523,20.857 9.511,20.843 C9.459,20.838 9.406,20.834 9.354,20.830 C9.342,20.816 9.330,20.802 9.318,20.787 C9.265,20.783 9.213,20.779 9.160,20.775 C9.148,20.760 9.136,20.746 9.124,20.732 C9.108,20.736 9.092,20.740 9.075,20.744 C9.063,20.730 9.051,20.716 9.039,20.701 C9.023,20.705 9.007,20.709 8.991,20.713 C8.979,20.699 8.967,20.685 8.955,20.671 C8.920,20.671 8.886,20.671 8.852,20.670 C8.850,20.662 8.848,20.654 8.846,20.646 C8.819,20.644 8.793,20.642 8.767,20.640 C8.755,20.626 8.743,20.611 8.731,20.597 C8.715,20.601 8.699,20.605 8.682,20.609 C8.660,20.589 8.638,20.569 8.616,20.548 C8.600,20.552 8.584,20.556 8.567,20.560 C8.555,20.546 8.543,20.532 8.531,20.518 C8.515,20.522 8.499,20.526 8.483,20.530 C8.461,20.509 8.439,20.489 8.416,20.469 C8.198,20.390 7.935,20.433 7.695,20.569 C7.622,20.587 7.550,20.604 7.477,20.622 C7.479,20.630 7.481,20.638 7.483,20.647 C7.418,20.662 7.353,20.678 7.289,20.694 C7.291,20.702 7.293,20.710 7.295,20.718 C7.089,20.786 6.882,20.854 6.676,20.922 C6.678,20.930 6.680,20.938 6.682,20.946 C6.609,20.964 6.537,20.982 6.464,21.000 C6.466,21.008 6.468,21.016 6.470,21.024 C6.405,21.040 6.340,21.056 6.276,21.072 C6.278,21.080 6.280,21.088 6.282,21.096 C6.201,21.116 6.120,21.136 6.039,21.155 C6.041,21.164 6.043,21.172 6.045,21.180 C5.905,21.259 5.643,21.235 5.542,21.226 C5.510,21.234 5.478,21.242 5.445,21.250 C5.443,21.242 5.441,21.234 5.439,21.226 C5.423,21.230 5.407,21.234 5.391,21.238 C5.389,21.229 5.387,21.221 5.385,21.213 C5.360,21.219 5.336,21.225 5.312,21.231 C5.310,21.223 5.308,21.215 5.306,21.207 C5.290,21.211 5.274,21.215 5.258,21.219 C5.255,21.211 5.253,21.203 5.252,21.195 C5.217,21.194 5.183,21.194 5.149,21.194 C5.137,21.180 5.124,21.166 5.112,21.152 C5.096,21.156 5.080,21.160 5.064,21.164 C5.052,21.149 5.040,21.135 5.028,21.121 C5.012,21.125 4.995,21.129 4.979,21.133 C4.917,21.088 4.854,21.044 4.792,20.999 C4.734,20.970 4.675,20.942 4.617,20.913 C4.613,20.897 4.609,20.881 4.605,20.865 C4.587,20.861 4.568,20.857 4.550,20.853 C4.534,20.822 4.518,20.792 4.502,20.761 C4.484,20.757 4.466,20.753 4.448,20.749 C4.420,20.705 4.392,20.660 4.364,20.616 C4.345,20.611 4.327,20.607 4.309,20.603 C4.305,20.587 4.301,20.571 4.297,20.555 C4.289,20.557 4.281,20.559 4.273,20.561 C4.269,20.544 4.265,20.528 4.261,20.512 C4.243,20.508 4.225,20.504 4.207,20.500 C4.178,20.455 4.150,20.411 4.122,20.366 C4.104,20.362 4.086,20.358 4.068,20.354 C4.040,20.309 4.012,20.265 3.984,20.220 C3.965,20.216 3.947,20.212 3.929,20.208 C3.901,20.163 3.873,20.119 3.845,20.074 C3.827,20.070 3.809,20.066 3.790,20.062 C3.774,20.032 3.758,20.001 3.742,19.971 C3.724,19.967 3.706,19.963 3.688,19.959 C3.684,19.942 3.680,19.926 3.676,19.910 C3.668,19.912 3.660,19.914 3.652,19.916 C3.648,19.900 3.644,19.884 3.640,19.868 C3.632,19.870 3.624,19.871 3.615,19.873 C3.611,19.857 3.608,19.841 3.604,19.825 C3.585,19.821 3.567,19.817 3.549,19.813 C3.521,19.768 3.493,19.724 3.465,19.679 C3.447,19.675 3.429,19.671 3.410,19.667 C3.382,19.622 3.354,19.578 3.326,19.533 C3.308,19.529 3.290,19.525 3.272,19.521 C3.256,19.490 3.240,19.460 3.224,19.430 C3.205,19.426 3.187,19.421 3.169,19.417 C3.141,19.373 3.113,19.328 3.085,19.284 C3.067,19.280 3.049,19.275 3.030,19.271 C3.002,19.227 2.974,19.182 2.946,19.138 C2.928,19.134 2.910,19.130 2.892,19.125 C2.864,19.081 2.836,19.036 2.807,18.992 C2.789,18.988 2.771,18.984 2.753,18.979 C2.737,18.949 2.721,18.919 2.705,18.888 C2.687,18.884 2.669,18.880 2.650,18.876 C2.634,18.846 2.618,18.815 2.602,18.785 C2.594,18.787 2.586,18.789 2.578,18.791 C2.562,18.761 2.546,18.730 2.530,18.700 C2.522,18.702 2.514,18.704 2.506,18.706 C2.500,18.682 2.494,18.657 2.488,18.633 C2.480,18.635 2.472,18.637 2.464,18.639 C2.458,18.615 2.452,18.591 2.446,18.566 C2.438,18.568 2.430,18.570 2.422,18.572 C2.416,18.548 2.410,18.524 2.404,18.500 C2.396,18.502 2.387,18.504 2.379,18.505 C2.342,18.446 2.208,18.026 2.212,17.929 C2.220,17.927 2.228,17.925 2.236,17.923 C2.226,17.883 2.217,17.843 2.207,17.802 C2.215,17.800 2.223,17.798 2.231,17.796 C2.223,17.764 2.215,17.732 2.207,17.699 C2.215,17.697 2.223,17.695 2.231,17.693 C2.227,17.677 2.223,17.661 2.219,17.645 C2.227,17.643 2.236,17.641 2.244,17.639 C2.238,17.615 2.232,17.590 2.226,17.566 C2.234,17.564 2.242,17.562 2.250,17.560 C2.250,17.526 2.250,17.491 2.250,17.457 C2.259,17.455 2.267,17.453 2.275,17.451 C2.275,17.417 2.275,17.382 2.275,17.348 C2.289,17.336 2.303,17.324 2.318,17.312 C2.314,17.296 2.310,17.280 2.306,17.263 C2.320,17.251 2.334,17.239 2.348,17.227 C2.344,17.211 2.340,17.195 2.336,17.179 C2.357,17.157 2.377,17.135 2.397,17.112 C2.393,17.096 2.389,17.080 2.385,17.064 C2.406,17.042 2.426,17.020 2.446,16.998 C2.442,16.981 2.438,16.965 2.434,16.949 C2.455,16.927 2.475,16.905 2.495,16.883 C2.491,16.866 2.487,16.850 2.483,16.834 C2.503,16.812 2.524,16.790 2.544,16.768 C2.540,16.752 2.536,16.735 2.532,16.719 C2.546,16.707 2.560,16.695 2.575,16.683 C2.571,16.667 2.567,16.651 2.563,16.635 C2.577,16.623 2.591,16.610 2.605,16.598 C2.607,16.572 2.610,16.546 2.612,16.520 C2.632,16.498 2.652,16.475 2.673,16.453 C2.669,16.437 2.665,16.421 2.661,16.405 C2.681,16.383 2.701,16.361 2.721,16.338 C2.717,16.322 2.714,16.306 2.710,16.290 C2.730,16.268 2.750,16.246 2.770,16.224 C2.766,16.207 2.762,16.191 2.758,16.175 C2.779,16.153 2.799,16.131 2.819,16.109 C2.815,16.093 2.811,16.076 2.807,16.060 C2.828,16.038 2.848,16.016 2.868,15.994 C2.864,15.978 2.860,15.961 2.856,15.945 C2.877,15.923 2.897,15.901 2.917,15.879 C2.913,15.863 2.909,15.847 2.905,15.830 C2.919,15.818 2.934,15.806 2.948,15.794 C2.944,15.778 2.940,15.762 2.936,15.746 C2.956,15.724 2.976,15.701 2.997,15.679 C2.993,15.663 2.989,15.647 2.985,15.631 C3.005,15.609 3.025,15.587 3.046,15.564 C3.042,15.548 3.038,15.532 3.034,15.516 C3.054,15.494 3.074,15.472 3.095,15.450 C3.091,15.433 3.087,15.417 3.083,15.401 C3.097,15.389 3.111,15.377 3.125,15.365 C3.121,15.349 3.117,15.333 3.113,15.316 C3.121,15.314 3.129,15.312 3.138,15.310 C3.134,15.294 3.130,15.278 3.126,15.262 C3.134,15.260 3.142,15.258 3.150,15.256 C3.144,15.232 3.138,15.207 3.132,15.183 C3.140,15.181 3.148,15.179 3.156,15.177 C3.063,14.866 2.969,14.555 2.875,14.243 C2.804,13.952 2.733,13.661 2.661,13.370 C2.669,13.368 2.677,13.366 2.685,13.364 C2.644,13.160 2.602,12.956 2.561,12.752 C2.552,12.754 2.544,12.756 2.536,12.758 C2.530,12.734 2.524,12.709 2.518,12.685 C2.510,12.687 2.502,12.689 2.494,12.691 C2.488,12.667 2.482,12.643 2.476,12.618 C2.458,12.614 2.440,12.610 2.422,12.606 C2.418,12.590 2.414,12.574 2.410,12.557 C2.392,12.553 2.374,12.549 2.355,12.545 C2.351,12.529 2.348,12.513 2.344,12.497 C2.315,12.486 2.287,12.476 2.259,12.466 C2.255,12.450 2.251,12.434 2.247,12.417 C2.219,12.407 2.191,12.397 2.162,12.387 C2.158,12.371 2.154,12.354 2.150,12.338 C2.122,12.328 2.094,12.318 2.066,12.308 C2.062,12.292 2.058,12.275 2.054,12.259 C2.036,12.255 2.017,12.251 1.999,12.247 C1.985,12.225 1.971,12.202 1.957,12.180 C1.929,12.170 1.901,12.160 1.873,12.149 C1.869,12.133 1.865,12.117 1.861,12.101 C1.832,12.091 1.804,12.080 1.776,12.070 C1.772,12.054 1.768,12.038 1.764,12.022 C1.746,12.018 1.728,12.014 1.710,12.009 C1.706,11.993 1.702,11.977 1.698,11.961 C1.669,11.951 1.641,11.941 1.613,11.930 C1.609,11.914 1.605,11.898 1.601,11.882 C1.573,11.872 1.545,11.861 1.516,11.851 C1.512,11.835 1.508,11.819 1.504,11.803 C1.476,11.792 1.448,11.782 1.420,11.772 C1.416,11.756 1.412,11.740 1.408,11.723 C1.380,11.713 1.351,11.703 1.323,11.693 C1.309,11.671 1.295,11.648 1.281,11.626 C1.263,11.622 1.245,11.618 1.227,11.614 C1.223,11.598 1.219,11.581 1.215,11.565 C1.186,11.555 1.158,11.545 1.130,11.535 C1.116,11.512 1.102,11.490 1.088,11.468 C1.070,11.464 1.052,11.460 1.033,11.455 C1.029,11.439 1.025,11.423 1.022,11.407 C1.003,11.403 0.985,11.399 0.967,11.395 C0.963,11.378 0.959,11.362 0.955,11.346 C0.927,11.336 0.899,11.326 0.870,11.315 C0.866,11.299 0.863,11.283 0.859,11.267 C0.840,11.263 0.822,11.259 0.804,11.255 C0.800,11.238 0.796,11.222 0.792,11.206 C0.774,11.202 0.756,11.198 0.738,11.194 C0.734,11.178 0.730,11.161 0.726,11.145 C0.718,11.147 0.710,11.149 0.702,11.151 C0.686,11.121 0.669,11.091 0.653,11.060 C0.645,11.062 0.637,11.064 0.629,11.066 C0.609,11.020 0.589,10.973 0.569,10.927 C0.561,10.929 0.553,10.931 0.545,10.932 C0.521,10.870 0.497,10.807 0.473,10.744 C0.465,10.746 0.457,10.748 0.449,10.750 C0.392,10.654 0.356,10.358 0.360,10.284 C0.350,10.209 0.340,10.134 0.331,10.059 C0.339,10.057 0.347,10.055 0.355,10.053 C0.351,10.037 0.347,10.021 0.343,10.005 C0.351,10.003 0.359,10.001 0.367,9.999 C0.361,9.975 0.355,9.950 0.349,9.926 C0.357,9.924 0.365,9.922 0.373,9.920 C0.378,9.868 0.382,9.815 0.386,9.763 C0.394,9.761 0.402,9.759 0.410,9.757 C0.406,9.741 0.403,9.725 0.399,9.708 C0.407,9.706 0.415,9.704 0.423,9.702 C0.423,9.668 0.423,9.634 0.423,9.599 C0.437,9.587 0.452,9.575 0.466,9.563 C0.466,9.529 0.466,9.495 0.466,9.460 C0.480,9.448 0.495,9.436 0.509,9.424 C0.505,9.408 0.501,9.392 0.497,9.376 C0.505,9.374 0.513,9.372 0.521,9.370 C0.517,9.353 0.513,9.337 0.509,9.321 C0.517,9.319 0.525,9.317 0.533,9.315 C0.530,9.299 0.526,9.283 0.522,9.267 C0.536,9.255 0.550,9.243 0.564,9.231 C0.568,9.178 0.573,9.126 0.577,9.073 C0.591,9.061 0.605,9.049 0.619,9.037 C0.624,8.984 0.628,8.932 0.632,8.879 C0.646,8.867 0.661,8.855 0.675,8.843 C0.671,8.827 0.667,8.811 0.663,8.795 C0.671,8.793 0.679,8.791 0.687,8.789 C0.683,8.773 0.679,8.757 0.675,8.740 C0.689,8.728 0.704,8.716 0.718,8.704 C0.722,8.652 0.726,8.599 0.730,8.547 C0.745,8.535 0.759,8.523 0.773,8.511 C0.777,8.458 0.782,8.406 0.786,8.353 C0.800,8.341 0.814,8.329 0.828,8.317 C0.833,8.264 0.837,8.212 0.841,8.160 C0.855,8.147 0.869,8.135 0.884,8.123 C0.884,8.089 0.884,8.055 0.884,8.020 C0.898,8.008 0.912,7.996 0.927,7.984 C0.931,7.932 0.935,7.879 0.939,7.827 C0.954,7.815 0.968,7.803 0.982,7.791 C0.986,7.738 0.990,7.686 0.995,7.633 C1.009,7.621 1.023,7.609 1.037,7.597 C1.041,7.545 1.046,7.492 1.050,7.440 C1.064,7.428 1.078,7.415 1.093,7.403 C1.093,7.369 1.093,7.335 1.093,7.300 C1.107,7.288 1.121,7.276 1.135,7.264 C1.140,7.212 1.144,7.159 1.148,7.107 C1.162,7.095 1.177,7.083 1.191,7.071 C1.187,7.054 1.183,7.038 1.179,7.022 C1.205,6.990 1.232,6.958 1.258,6.926 C1.254,6.909 1.250,6.893 1.246,6.877 C1.285,6.825 1.323,6.772 1.362,6.720 C1.366,6.702 1.370,6.684 1.374,6.666 C1.390,6.662 1.407,6.658 1.423,6.654 C1.433,6.625 1.443,6.597 1.453,6.569 C1.470,6.565 1.486,6.561 1.502,6.557 C1.506,6.539 1.510,6.521 1.514,6.503 C1.530,6.499 1.547,6.495 1.563,6.491 C1.561,6.483 1.559,6.475 1.557,6.466 C1.601,6.438 1.646,6.410 1.690,6.382 C1.688,6.374 1.686,6.366 1.684,6.358 C1.753,6.324 1.822,6.290 1.891,6.256 C1.889,6.248 1.887,6.240 1.885,6.232 C1.925,6.222 1.966,6.212 2.006,6.202 C2.004,6.194 2.002,6.186 2.000,6.178 C2.140,6.097 2.581,6.055 2.691,6.059 C3.121,5.996 3.552,5.934 3.982,5.871 C4.063,5.873 4.473,5.844 4.576,5.776 C4.574,5.768 4.572,5.760 4.570,5.752 C4.586,5.748 4.602,5.744 4.619,5.740 C4.617,5.732 4.615,5.724 4.613,5.716 C4.637,5.710 4.661,5.704 4.685,5.698 C4.690,5.680 4.694,5.662 4.698,5.643 C4.714,5.640 4.730,5.636 4.746,5.632 C4.750,5.613 4.755,5.595 4.759,5.577 C4.775,5.573 4.791,5.569 4.807,5.565 C4.817,5.537 4.828,5.509 4.838,5.481 C4.854,5.477 4.870,5.473 4.886,5.469 C4.890,5.450 4.895,5.432 4.899,5.414 C4.915,5.410 4.931,5.406 4.947,5.402 C4.945,5.394 4.943,5.386 4.941,5.378 C4.963,5.364 4.986,5.350 5.008,5.336 C5.012,5.318 5.016,5.300 5.020,5.281 C5.036,5.277 5.053,5.273 5.069,5.269 C5.073,5.251 5.077,5.233 5.081,5.215 C5.097,5.211 5.113,5.207 5.130,5.203 C5.134,5.185 5.138,5.167 5.142,5.149 C5.158,5.145 5.174,5.141 5.190,5.137 C5.195,5.119 5.199,5.100 5.203,5.082 C5.233,5.066 5.264,5.050 5.294,5.034 C5.298,5.016 5.302,4.998 5.306,4.980 C5.337,4.964 5.367,4.948 5.397,4.932 C5.401,4.914 5.405,4.895 5.410,4.877 C5.454,4.849 5.499,4.821 5.543,4.793 C5.547,4.775 5.551,4.757 5.556,4.738 C5.586,4.722 5.616,4.706 5.647,4.690 C5.645,4.682 5.643,4.674 5.641,4.666 C5.657,4.662 5.673,4.658 5.689,4.654 C5.687,4.646 5.685,4.638 5.683,4.630 C5.699,4.626 5.716,4.622 5.732,4.618 C5.730,4.610 5.728,4.602 5.726,4.594 C5.742,4.590 5.758,4.586 5.774,4.582 C5.772,4.574 5.770,4.566 5.768,4.558 C5.785,4.554 5.801,4.550 5.817,4.546 C5.815,4.538 5.813,4.530 5.811,4.521 C5.841,4.505 5.872,4.489 5.902,4.473 C5.900,4.465 5.898,4.457 5.896,4.449 C5.926,4.433 5.957,4.417 5.987,4.401 C5.985,4.393 5.983,4.385 5.981,4.377 C5.997,4.373 6.013,4.369 6.030,4.365 C6.028,4.357 6.026,4.349 6.024,4.341 C6.068,4.313 6.113,4.284 6.157,4.256 C6.155,4.248 6.153,4.240 6.151,4.232 C6.190,4.214 6.228,4.196 6.267,4.178 C6.271,4.160 6.275,4.142 6.279,4.124 C6.295,4.120 6.311,4.116 6.327,4.112 C6.325,4.104 6.323,4.096 6.321,4.087 C6.351,4.050 6.356,4.043 6.407,4.015 ZM10.488,7.333 C10.443,7.394 10.330,7.371 10.251,7.417 C10.253,7.425 10.255,7.433 10.257,7.441 C10.217,7.451 10.176,7.461 10.136,7.471 C10.138,7.479 10.140,7.487 10.142,7.495 C10.093,7.507 10.045,7.519 9.996,7.531 C9.998,7.539 10.000,7.547 10.002,7.555 C9.970,7.563 9.937,7.571 9.905,7.579 C9.907,7.587 9.909,7.595 9.911,7.603 C9.879,7.611 9.846,7.619 9.814,7.627 C9.816,7.635 9.818,7.643 9.820,7.651 C9.788,7.659 9.755,7.667 9.723,7.675 C9.725,7.683 9.727,7.691 9.729,7.699 C9.697,7.707 9.664,7.715 9.632,7.723 C9.634,7.731 9.636,7.739 9.638,7.748 C9.614,7.753 9.589,7.759 9.565,7.765 C9.567,7.773 9.569,7.782 9.571,7.790 C9.547,7.796 9.522,7.802 9.498,7.807 C9.500,7.816 9.502,7.824 9.504,7.832 C9.480,7.838 9.456,7.844 9.431,7.850 C9.433,7.858 9.435,7.866 9.437,7.874 C9.399,7.892 9.361,7.910 9.322,7.928 C9.324,7.936 9.326,7.944 9.328,7.952 C9.312,7.956 9.296,7.960 9.280,7.964 C9.282,7.972 9.284,7.980 9.286,7.988 C9.261,7.994 9.237,8.000 9.213,8.006 C9.215,8.014 9.217,8.022 9.219,8.030 C9.174,8.059 9.130,8.087 9.085,8.115 C9.087,8.123 9.089,8.131 9.091,8.139 C9.075,8.143 9.059,8.147 9.043,8.151 C9.045,8.159 9.047,8.167 9.048,8.175 C9.032,8.179 9.016,8.183 9.000,8.187 C9.002,8.195 9.004,8.203 9.006,8.211 C8.990,8.215 8.974,8.219 8.957,8.223 C8.959,8.231 8.961,8.239 8.963,8.247 C8.947,8.251 8.931,8.255 8.915,8.259 C8.917,8.267 8.919,8.276 8.921,8.284 C8.905,8.288 8.889,8.292 8.872,8.296 C8.874,8.304 8.876,8.312 8.878,8.320 C8.862,8.324 8.846,8.328 8.830,8.332 C8.832,8.340 8.834,8.348 8.836,8.356 C8.820,8.360 8.803,8.364 8.787,8.368 C8.783,8.386 8.779,8.404 8.775,8.422 C8.745,8.438 8.714,8.454 8.684,8.470 C8.686,8.479 8.688,8.487 8.690,8.495 C8.668,8.509 8.645,8.523 8.623,8.537 C8.619,8.555 8.615,8.573 8.611,8.591 C8.595,8.595 8.578,8.599 8.562,8.603 C8.564,8.611 8.566,8.619 8.568,8.627 C8.546,8.642 8.524,8.656 8.501,8.670 C8.497,8.688 8.493,8.706 8.489,8.724 C8.473,8.728 8.457,8.732 8.441,8.736 C8.424,8.774 8.408,8.813 8.392,8.851 C8.375,8.855 8.359,8.859 8.343,8.863 C8.333,8.891 8.323,8.919 8.312,8.947 C8.290,8.961 8.268,8.976 8.246,8.990 C8.199,9.078 8.152,9.167 8.105,9.256 C8.089,9.259 8.073,9.263 8.057,9.267 C8.053,9.286 8.049,9.304 8.044,9.322 C8.036,9.324 8.028,9.326 8.020,9.328 C8.024,9.344 8.028,9.360 8.032,9.376 C7.969,9.469 7.906,9.562 7.843,9.654 C7.847,9.670 7.851,9.687 7.855,9.703 C7.829,9.735 7.802,9.767 7.776,9.799 C7.780,9.815 7.784,9.832 7.788,9.848 C7.768,9.870 7.747,9.892 7.727,9.914 C7.731,9.930 7.735,9.947 7.739,9.963 C7.725,9.975 7.710,9.987 7.696,9.999 C7.700,10.015 7.704,10.031 7.708,10.047 C7.688,10.070 7.668,10.092 7.647,10.114 C7.651,10.130 7.655,10.146 7.659,10.162 C7.645,10.174 7.631,10.186 7.617,10.198 C7.617,10.233 7.616,10.267 7.616,10.301 C7.602,10.313 7.588,10.326 7.574,10.338 C7.574,10.372 7.573,10.406 7.573,10.441 C7.559,10.453 7.545,10.465 7.531,10.477 C7.527,10.529 7.522,10.582 7.518,10.634 C7.510,10.636 7.502,10.638 7.494,10.640 C7.498,10.656 7.502,10.672 7.506,10.689 C7.498,10.691 7.490,10.693 7.481,10.695 C7.477,10.747 7.473,10.800 7.469,10.852 C7.461,10.854 7.453,10.856 7.444,10.858 C7.446,10.900 7.448,10.943 7.450,10.985 C7.442,10.987 7.434,10.989 7.426,10.991 C7.430,11.007 7.434,11.023 7.438,11.040 C7.430,11.042 7.421,11.044 7.413,11.046 C7.419,11.070 7.425,11.094 7.431,11.118 C7.423,11.120 7.415,11.122 7.407,11.124 C7.411,11.140 7.415,11.157 7.419,11.173 C7.411,11.175 7.403,11.177 7.395,11.179 C7.398,11.229 7.402,11.280 7.406,11.330 C7.398,11.332 7.390,11.334 7.382,11.336 C7.388,11.360 7.394,11.385 7.400,11.409 C7.392,11.411 7.384,11.413 7.376,11.415 C7.381,11.439 7.387,11.463 7.393,11.488 C7.385,11.490 7.377,11.492 7.369,11.494 C7.377,11.526 7.385,11.558 7.393,11.591 C7.385,11.593 7.377,11.595 7.369,11.597 C7.377,11.629 7.385,11.661 7.393,11.694 C7.384,11.696 7.376,11.698 7.368,11.700 C7.376,11.732 7.384,11.764 7.392,11.797 C7.384,11.799 7.376,11.801 7.368,11.803 C7.378,11.843 7.388,11.883 7.398,11.924 C7.390,11.926 7.381,11.928 7.373,11.930 C7.385,11.978 7.397,12.027 7.409,12.075 C7.401,12.077 7.393,12.079 7.385,12.081 C7.397,12.130 7.409,12.178 7.421,12.227 C7.413,12.229 7.404,12.231 7.396,12.233 C7.416,12.314 7.436,12.394 7.456,12.475 C7.448,12.477 7.440,12.479 7.432,12.481 C7.465,12.619 7.499,12.756 7.533,12.894 C7.634,13.303 7.790,13.659 7.971,13.943 C7.979,13.976 7.987,14.008 7.995,14.040 C8.003,14.038 8.011,14.036 8.019,14.034 C8.025,14.059 8.031,14.083 8.037,14.107 C8.045,14.105 8.053,14.103 8.061,14.101 C8.067,14.125 8.073,14.150 8.079,14.174 C8.087,14.172 8.095,14.170 8.103,14.168 C8.109,14.192 8.115,14.216 8.121,14.241 C8.129,14.239 8.137,14.237 8.145,14.235 C8.165,14.281 8.185,14.328 8.205,14.374 C8.213,14.372 8.221,14.370 8.230,14.368 C8.233,14.384 8.237,14.401 8.241,14.417 C8.249,14.415 8.258,14.413 8.266,14.411 C8.272,14.435 8.278,14.459 8.284,14.484 C8.292,14.482 8.300,14.480 8.308,14.478 C8.336,14.522 8.364,14.567 8.392,14.611 C8.400,14.609 8.408,14.607 8.416,14.605 C8.420,14.621 8.424,14.638 8.428,14.654 C8.436,14.652 8.444,14.650 8.452,14.648 C8.456,14.664 8.460,14.680 8.464,14.696 C8.473,14.694 8.481,14.692 8.489,14.690 C8.493,14.707 8.497,14.723 8.501,14.739 C8.509,14.737 8.517,14.735 8.525,14.733 C8.529,14.749 8.533,14.765 8.537,14.781 C8.545,14.779 8.553,14.777 8.561,14.776 C8.565,14.792 8.569,14.808 8.573,14.824 C8.581,14.822 8.589,14.820 8.597,14.818 C8.601,14.834 8.605,14.850 8.609,14.867 C8.617,14.865 8.625,14.863 8.633,14.861 C8.637,14.877 8.641,14.893 8.645,14.909 C8.663,14.913 8.682,14.917 8.700,14.921 C8.728,14.966 8.756,15.011 8.784,15.055 C8.802,15.059 8.820,15.063 8.838,15.067 C8.842,15.084 8.846,15.100 8.850,15.116 C8.879,15.126 8.907,15.136 8.935,15.147 C8.939,15.163 8.943,15.179 8.947,15.195 C8.965,15.199 8.983,15.203 9.001,15.207 C9.005,15.224 9.009,15.240 9.013,15.256 C9.031,15.260 9.050,15.264 9.068,15.268 C9.072,15.284 9.076,15.301 9.080,15.317 C9.098,15.321 9.116,15.325 9.134,15.329 C9.136,15.337 9.138,15.345 9.140,15.353 C9.158,15.357 9.176,15.362 9.195,15.366 C9.199,15.382 9.202,15.398 9.206,15.414 C9.255,15.437 9.303,15.459 9.352,15.481 C9.356,15.498 9.359,15.514 9.363,15.530 C9.472,15.589 9.581,15.648 9.690,15.707 C9.742,15.745 9.795,15.784 9.847,15.823 C9.863,15.819 9.879,15.815 9.895,15.811 C9.938,15.843 9.980,15.876 10.022,15.908 C10.038,15.904 10.055,15.900 10.071,15.896 C10.083,15.910 10.095,15.925 10.107,15.939 C10.115,15.937 10.123,15.935 10.131,15.933 C10.143,15.947 10.155,15.961 10.167,15.975 C10.183,15.971 10.200,15.967 10.216,15.963 C10.228,15.978 10.240,15.992 10.252,16.006 C10.278,16.008 10.304,16.010 10.331,16.012 C10.333,16.020 10.335,16.029 10.337,16.037 C10.353,16.033 10.369,16.029 10.385,16.025 C10.407,16.045 10.429,16.065 10.451,16.086 C10.486,16.086 10.520,16.086 10.554,16.086 C10.567,16.100 10.579,16.114 10.591,16.129 C10.625,16.129 10.659,16.129 10.694,16.129 C10.706,16.143 10.718,16.157 10.730,16.172 C10.746,16.168 10.762,16.164 10.778,16.160 C10.780,16.168 10.782,16.176 10.784,16.184 C10.800,16.180 10.817,16.176 10.833,16.172 C10.835,16.180 10.837,16.188 10.839,16.196 C10.855,16.192 10.871,16.188 10.887,16.184 C10.889,16.192 10.891,16.200 10.893,16.209 C10.909,16.205 10.926,16.201 10.942,16.197 C10.944,16.205 10.946,16.213 10.948,16.221 C10.964,16.217 10.980,16.213 10.996,16.209 C10.998,16.217 11.000,16.225 11.002,16.233 C11.018,16.229 11.034,16.225 11.051,16.221 C11.053,16.229 11.055,16.237 11.057,16.246 C11.109,16.250 11.162,16.254 11.214,16.258 C11.216,16.266 11.218,16.274 11.220,16.283 C11.244,16.277 11.268,16.271 11.293,16.265 C11.295,16.273 11.297,16.281 11.299,16.289 C11.333,16.289 11.367,16.289 11.402,16.289 C11.404,16.297 11.406,16.306 11.408,16.314 C11.684,16.323 11.961,16.332 12.237,16.341 C12.371,16.326 12.504,16.310 12.637,16.294 C12.710,16.277 12.783,16.259 12.856,16.241 C12.858,16.249 12.860,16.257 12.862,16.265 C12.982,16.269 13.268,16.163 13.341,16.122 C13.438,16.098 13.535,16.074 13.632,16.050 C13.630,16.042 13.628,16.034 13.626,16.026 C13.690,16.010 13.755,15.994 13.820,15.978 C13.818,15.970 13.816,15.962 13.814,15.954 C13.854,15.944 13.895,15.934 13.935,15.924 C13.933,15.916 13.931,15.908 13.929,15.900 C13.970,15.890 14.010,15.880 14.050,15.870 C14.048,15.862 14.046,15.854 14.044,15.846 C14.107,15.822 14.170,15.798 14.232,15.774 C14.231,15.766 14.229,15.758 14.227,15.750 C14.259,15.742 14.291,15.734 14.324,15.726 C14.322,15.718 14.320,15.710 14.318,15.702 C14.342,15.696 14.366,15.690 14.390,15.684 C14.388,15.676 14.386,15.668 14.384,15.660 C14.409,15.654 14.433,15.648 14.457,15.642 C14.455,15.634 14.453,15.626 14.451,15.618 C14.475,15.612 14.500,15.606 14.524,15.600 C14.522,15.592 14.520,15.583 14.518,15.575 C14.564,15.555 14.611,15.535 14.658,15.515 C15.344,14.995 15.896,14.373 16.198,13.620 C16.224,13.588 16.251,13.555 16.277,13.523 C16.273,13.507 16.269,13.491 16.265,13.475 C16.279,13.463 16.293,13.451 16.308,13.438 C16.310,13.412 16.312,13.386 16.314,13.360 C16.322,13.358 16.330,13.356 16.338,13.354 C16.334,13.338 16.330,13.321 16.326,13.305 C16.341,13.293 16.355,13.281 16.369,13.269 C16.365,13.253 16.361,13.237 16.357,13.221 C16.371,13.209 16.385,13.197 16.400,13.184 C16.396,13.168 16.392,13.152 16.388,13.136 C16.402,13.124 16.416,13.112 16.430,13.100 C16.434,13.047 16.439,12.995 16.443,12.942 C16.457,12.930 16.471,12.918 16.485,12.906 C16.486,12.872 16.486,12.838 16.486,12.803 C16.494,12.801 16.502,12.799 16.510,12.797 C16.506,12.781 16.502,12.765 16.498,12.749 C16.506,12.747 16.514,12.745 16.522,12.743 C16.527,12.690 16.531,12.638 16.535,12.585 C16.543,12.583 16.551,12.581 16.559,12.579 C16.554,12.555 16.548,12.531 16.542,12.507 C16.550,12.505 16.558,12.503 16.566,12.501 C16.566,12.466 16.566,12.432 16.566,12.398 C16.574,12.396 16.582,12.394 16.591,12.392 C16.589,12.349 16.587,12.307 16.585,12.265 C16.593,12.263 16.601,12.261 16.609,12.259 C16.618,12.016 16.627,11.774 16.637,11.532 C16.611,11.358 16.585,11.184 16.560,11.011 C16.568,11.009 16.576,11.007 16.584,11.005 C16.588,10.871 16.419,10.322 16.369,10.234 C16.329,10.107 16.290,9.980 16.250,9.852 C16.242,9.854 16.234,9.856 16.225,9.858 C16.216,9.818 16.206,9.777 16.196,9.737 C16.188,9.739 16.179,9.741 16.171,9.743 C16.162,9.703 16.152,9.662 16.142,9.622 C16.134,9.624 16.125,9.626 16.117,9.628 C16.109,9.595 16.101,9.563 16.094,9.531 C16.085,9.533 16.077,9.535 16.069,9.537 C16.061,9.504 16.053,9.472 16.045,9.440 C16.037,9.442 16.029,9.444 16.021,9.446 C16.015,9.421 16.009,9.397 16.003,9.373 C15.995,9.375 15.987,9.377 15.979,9.379 C15.973,9.355 15.967,9.330 15.961,9.306 C15.953,9.308 15.945,9.310 15.937,9.312 C15.931,9.288 15.925,9.264 15.919,9.239 C15.911,9.241 15.903,9.243 15.895,9.245 C15.889,9.221 15.883,9.197 15.877,9.172 C15.869,9.174 15.861,9.176 15.853,9.178 C15.833,9.132 15.813,9.085 15.793,9.039 C15.785,9.041 15.777,9.043 15.768,9.045 C15.764,9.029 15.761,9.012 15.757,8.996 C15.748,8.998 15.740,9.000 15.732,9.002 C15.726,8.978 15.720,8.954 15.714,8.929 C15.706,8.931 15.698,8.933 15.690,8.935 C15.662,8.891 15.634,8.846 15.606,8.802 C15.598,8.804 15.590,8.806 15.582,8.808 C15.578,8.792 15.574,8.775 15.570,8.759 C15.562,8.761 15.554,8.763 15.545,8.765 C15.542,8.749 15.538,8.733 15.534,8.717 C15.525,8.719 15.517,8.721 15.509,8.723 C15.505,8.707 15.501,8.690 15.497,8.674 C15.489,8.676 15.481,8.678 15.473,8.680 C15.469,8.664 15.465,8.648 15.461,8.632 C15.453,8.634 15.445,8.636 15.437,8.638 C15.433,8.621 15.429,8.605 15.425,8.589 C15.417,8.591 15.409,8.593 15.401,8.595 C15.397,8.579 15.393,8.563 15.389,8.547 C15.381,8.549 15.373,8.551 15.365,8.553 C15.361,8.536 15.357,8.520 15.353,8.504 C15.335,8.500 15.316,8.496 15.298,8.492 C15.282,8.461 15.266,8.431 15.250,8.401 C15.232,8.396 15.214,8.392 15.196,8.388 C15.192,8.372 15.188,8.356 15.184,8.340 C15.166,8.336 15.147,8.332 15.129,8.327 C15.125,8.311 15.121,8.295 15.117,8.279 C15.099,8.275 15.081,8.271 15.063,8.267 C15.059,8.250 15.055,8.234 15.051,8.218 C15.033,8.214 15.015,8.210 14.997,8.206 C14.993,8.190 14.989,8.173 14.985,8.157 C14.956,8.147 14.928,8.137 14.900,8.127 C14.896,8.110 14.892,8.094 14.888,8.078 C14.860,8.068 14.832,8.058 14.803,8.047 C14.789,8.025 14.775,8.003 14.761,7.981 C14.683,7.940 14.604,7.899 14.526,7.859 C14.522,7.842 14.518,7.826 14.514,7.810 C14.445,7.775 14.377,7.741 14.308,7.706 C14.296,7.692 14.284,7.678 14.272,7.664 C14.256,7.668 14.240,7.672 14.223,7.676 C14.161,7.631 14.099,7.586 14.036,7.542 C14.020,7.546 14.004,7.549 13.988,7.553 C13.956,7.527 13.923,7.501 13.891,7.474 C13.875,7.478 13.859,7.482 13.843,7.486 C13.820,7.466 13.798,7.446 13.776,7.425 C13.760,7.429 13.744,7.433 13.728,7.437 C13.716,7.423 13.704,7.409 13.692,7.395 C13.675,7.399 13.659,7.403 13.643,7.407 C13.621,7.386 13.599,7.366 13.577,7.346 C13.560,7.350 13.544,7.354 13.528,7.358 C13.516,7.344 13.504,7.329 13.492,7.315 C13.440,7.311 13.387,7.307 13.335,7.302 C13.323,7.288 13.310,7.274 13.298,7.260 C13.264,7.260 13.230,7.260 13.195,7.259 C13.183,7.245 13.171,7.231 13.159,7.217 C13.125,7.217 13.091,7.217 13.056,7.216 C13.054,7.208 13.052,7.200 13.050,7.192 C12.998,7.188 12.945,7.184 12.893,7.179 C12.891,7.171 12.889,7.163 12.887,7.155 C12.863,7.161 12.838,7.167 12.814,7.173 C12.812,7.165 12.810,7.157 12.808,7.149 C12.792,7.153 12.776,7.157 12.760,7.161 C12.758,7.153 12.756,7.145 12.754,7.136 C12.729,7.142 12.705,7.148 12.681,7.154 C12.679,7.146 12.677,7.138 12.675,7.130 C12.641,7.130 12.606,7.130 12.572,7.130 C12.570,7.122 12.568,7.114 12.566,7.105 C12.542,7.111 12.518,7.117 12.493,7.123 C12.491,7.115 12.489,7.107 12.487,7.099 C12.463,7.105 12.439,7.111 12.415,7.117 C12.413,7.109 12.411,7.101 12.409,7.093 C12.384,7.099 12.360,7.105 12.336,7.111 C12.334,7.102 12.332,7.094 12.330,7.086 C12.306,7.092 12.281,7.098 12.257,7.104 C12.255,7.096 12.253,7.088 12.251,7.080 C12.219,7.088 12.187,7.096 12.154,7.104 C12.152,7.096 12.150,7.088 12.148,7.079 C12.116,7.087 12.084,7.095 12.051,7.103 C12.049,7.095 12.047,7.087 12.045,7.079 C12.013,7.087 11.981,7.095 11.948,7.103 C11.946,7.095 11.944,7.087 11.942,7.079 C11.910,7.087 11.878,7.095 11.845,7.102 C11.843,7.094 11.841,7.086 11.839,7.078 C11.748,7.092 11.658,7.106 11.567,7.119 C11.565,7.111 11.563,7.103 11.561,7.095 C11.488,7.113 11.415,7.131 11.342,7.149 C11.104,7.141 10.754,7.269 10.488,7.333 Z"/>
</svg>