<svg 
 xmlns="http://www.w3.org/2000/svg"
 xmlns:xlink="http://www.w3.org/1999/xlink"
 width="31px" height="31px">
<path fill-rule="evenodd"  fill="rgb(255, 255, 255)"
 d="M15.500,30.475 C7.229,30.475 0.524,23.770 0.524,15.499 C0.524,7.229 7.229,0.524 15.500,0.524 C23.770,0.524 30.475,7.229 30.475,15.499 C30.475,23.770 23.770,30.475 15.500,30.475 ZM15.500,1.885 C7.980,1.885 1.886,7.981 1.886,15.499 C1.886,23.018 7.980,29.114 15.500,29.114 C23.019,29.114 29.113,23.018 29.113,15.499 C29.113,7.981 23.019,1.885 15.500,1.885 ZM19.593,21.351 C19.593,21.351 19.524,21.827 19.201,21.989 C18.878,22.090 18.646,21.788 18.646,21.788 L15.188,19.094 L12.749,21.169 L12.021,20.659 L10.602,16.619 L7.180,15.381 C7.180,15.381 6.724,15.266 6.692,14.943 C6.689,14.644 7.107,14.493 7.107,14.493 L21.085,9.266 C21.085,9.266 21.617,9.000 21.892,9.174 C22.270,9.411 22.068,9.922 22.068,9.922 L19.593,21.351 ZM19.240,11.369 C19.109,11.252 18.956,11.359 18.956,11.359 L11.275,16.328 L12.513,20.077 L12.859,17.292 L19.265,11.651 C19.265,11.651 19.338,11.474 19.240,11.369 Z"/>
</svg>