<svg fill="#b99470" xmlns="http://www.w3.org/2000/svg" viewBox="0 0 94.684 94.684"><path d="M71.023 48.185l-11.009-7.007c-.707-.45-1.538-1.601-1.743-2.414L55.23 26.708c-.006-.025-.017-.047-.024-.072a3.004 3.004 0 00-2.942-2.422H37.436c-.726 0-1.384.27-1.903.7-.068.041-.143.077-.206.122l-10.56 7.492c-1.207.856-1.939 2.667-1.667 4.123l3.268 17.458c.28 1.499 1.7 2.673 3.233 2.673l1.677-.09c.807-.045 1.55-.422 2.038-1.033s.69-1.419.555-2.217l-2.28-13.465c-.12-.706.306-1.725.892-2.138l1.954-1.374V56.68l-.397 10.996c-.046 1.265-.645 3.245-1.309 4.324l-9.983 16.219c-.522.848-.636 1.818-.311 2.661s1.059 1.486 2.016 1.764l3.125.91c.351.102.722.154 1.104.154 1.557 0 3.1-.859 3.838-2.139l9.518-16.478c.79-1.368 1.529-3.67 1.682-5.242l.878-9.008h2.223l3.404 8.714c.459 1.176.683 3.224.488 4.472l-2.701 17.265c-.145.927.077 1.79.624 2.43.53.62 1.307.961 2.188.961.158 0 .32-.011.488-.034l3.222-.447c1.87-.26 3.519-1.93 3.755-3.803l2.18-17.306c.198-1.571-.032-3.981-.523-5.487L55.265 53.27v-5.393l11.838 6.816c.456.262.976.401 1.505.401 1.068 0 2.07-.563 2.615-1.469L72 52.332a3.072 3.072 0 00-.977-4.147zM43.85 21.672c5.975 0 10.836-4.861 10.836-10.836S49.825 0 43.85 0c-5.975 0-10.835 4.861-10.835 10.836s4.861 10.836 10.835 10.836z"/></svg>