<svg width="552" height="233" fill="none" xmlns="http://www.w3.org/2000/svg"><path fill-rule="evenodd" clip-rule="evenodd" d="M313.729 61.955c30.157 14.256 51.266 45.235 51.266 80.874 0 49.347-40.026 89.373-89.372 89.373-49.347 0-89.373-40.026-89.373-89.373 0-19.19 6.031-37.01 16.449-51.54v51.54c0 40.3 32.624 72.924 72.924 72.924 40.3 0 72.923-32.624 72.923-72.924 0-26.318-13.981-49.347-34.817-62.232V61.955z" fill="#000"/><path fill-rule="evenodd" clip-rule="evenodd" d="M323.049 95.128c1.371 1.37 2.742 2.742 4.113 4.386l-11.515 7.403c-1.37-1.371-2.741-3.016-4.112-4.387l11.514-7.402zm7.676 9.047l-11.24 7.402c6.306 8.773 9.87 19.465 9.87 30.979 0 29.608-24.125 53.733-53.734 53.733-19.464 0-36.461-10.417-45.782-25.77l-11.241 7.402c11.789 19.191 33.172 31.801 57.298 31.801 35.365 0 64.425-27.414 67.166-62.231v-4.935c-.274-14.256-4.935-27.415-12.337-38.381zm-115.416 68.811c-.823-1.644-1.645-3.563-2.468-5.482l11.515-7.677c.548 1.919 1.37 3.838 2.193 5.483l-11.24 7.676zm-4.387-10.965c0-.275-.274-.823-.274-1.097v-.274c0-.274-.274-.823-.274-1.097v-.548l-.274-.823v-.274l-.274-.548-.275-.548-.274-.823v-.274l12.611-8.224c.274 2.193.549 4.386 1.097 6.305l-12.063 8.225zM306.6 98.966l12.063-7.95c-1.645-1.37-3.29-2.468-4.935-3.838l-12.611 8.224c1.919 1.097 3.838 2.194 5.483 3.564z" fill="url(#paint0_linear)"/><path fill-rule="evenodd" clip-rule="evenodd" d="M275.347 75.389c11.788 0 23.028 3.015 32.624 8.498l-13.434 8.773c-6.031-2.193-12.336-3.564-19.19-3.564-28.786 0-52.363 22.755-53.733 51.266l-13.434 8.773c-.274-2.193-.274-4.112-.274-6.306.274-37.284 30.431-67.44 67.441-67.44z" fill="#000"/><path fill-rule="evenodd" clip-rule="evenodd" d="M231.757 80.053L208.18 95.405v46.605l23.577-39.477v-22.48zm2.741-29.887l-23.303 15.352v7.128l-3.015 1.92v13.98l23.577-15.626V59.214l2.741-1.92v-7.127zm35.367 4.664l-23.303 15.353v21.931l23.303-7.127V54.83zm-15.079-17.819l-5.483 3.564v6.854l-2.467 1.919v13.981l23.028-15.352V33.995l2.742-1.919v-6.853l-17.82 11.788zm53.189-7.131l-23.303 15.353.274 40.026 23.029-1.37V29.88zM310.715 0l-23.302 15.352v7.128l-2.468 1.645v13.982l23.029-15.353V8.773l2.741-1.645V0z" fill="#000"/><path fill-rule="evenodd" clip-rule="evenodd" d="M275.348 190.259c26.319 0 47.702-21.383 47.702-47.702 0-26.318-21.383-47.701-47.702-47.701-26.318 0-47.702 21.383-47.702 47.701.275 26.319 21.658 47.702 47.702 47.702z" fill="url(#paint1_linear)"/><path d="M275.348 183.405c22.56 0 40.848-18.288 40.848-40.848s-18.288-40.848-40.848-40.848-40.848 18.288-40.848 40.848 18.288 40.848 40.848 40.848z" fill="url(#paint2_linear)"/><path fill-rule="evenodd" clip-rule="evenodd" d="M274.115 152.852v3.902h11.929v8.082h-11.929v4.459h-13.594v-4.459h-5.271v-8.082h5.271v-38.459h19.419c5.826 0 10.265 1.393 13.594 4.459 3.329 2.787 4.716 7.246 4.716 13.098 0 5.853-1.665 10.033-4.716 13.099-3.329 2.787-7.768 4.459-13.594 4.459h-5.825v-.558zm5.548-21.459h-5.548v8.64h5.548c1.664 0 2.774-.279 3.606-1.115.833-.836 1.387-1.672 1.387-3.344 0-1.394-.554-2.509-1.387-3.345-.832-.278-2.219-.836-3.606-.836z" fill="url(#paint3_linear)"/><path d="M171.25 202H148v30H90.75v-30H0v-37.5L74.25 57h60.5l-66 99.25H92.5V129.5H148v26.75h23.25V202zm379.996 0h-23.25v30h-57.25v-30h-90.75v-37.5L454.246 57h60.5l-66 99.25h23.75V129.5h55.5v26.75h23.25V202z" fill="#000"/><defs><linearGradient id="paint0_linear" x1="303.114" y1="187.485" x2="268.157" y2="130.829" gradientUnits="userSpaceOnUse"><stop stop-color="#F0A705"/><stop offset=".431" stop-color="#F0AA0A"/><stop offset="1" stop-color="#FFD845"/></linearGradient><linearGradient id="paint1_linear" x1="291.329" y1="167.515" x2="260.235" y2="118.881" gradientUnits="userSpaceOnUse"><stop stop-color="#EFA403"/><stop offset=".668" stop-color="#F6BD23"/><stop offset="1" stop-color="#FFD845"/></linearGradient><linearGradient id="paint2_linear" x1="264.442" y1="128.626" x2="296.31" y2="169.301" gradientUnits="userSpaceOnUse"><stop stop-color="#F9C82F"/><stop offset="1" stop-color="#F9C82F"/></linearGradient><linearGradient id="paint3_linear" x1="286.96" y1="156.559" x2="256.746" y2="125.964" gradientUnits="userSpaceOnUse"><stop stop-color="#F0A705"/><stop offset=".473" stop-color="#F2AE10"/><stop offset="1" stop-color="#FFBA1A"/></linearGradient></defs></svg>