<svg width="35" height="37" viewBox="0 0 35 37" fill="none" xmlns="http://www.w3.org/2000/svg">
<circle cx="19.705" cy="15.8418" r="15" fill="#FFCD1A"/>
<path fill-rule="evenodd" clip-rule="evenodd" d="M17.7222 14.8788C18.5377 15.6941 19.1846 16.662 19.6259 17.7273C20.0673 18.7926 20.2944 19.9344 20.2944 21.0875C20.2944 22.2406 20.0673 23.3824 19.6259 24.4477C19.1846 25.513 18.5377 26.4809 17.7222 27.2962L11.5136 33.5013L5.30491 27.2944C4.48958 26.4791 3.84282 25.5111 3.40156 24.4458C2.96031 23.3806 2.7332 22.2388 2.7332 21.0857C2.7332 19.9327 2.96031 18.7909 3.40156 17.7256C3.84282 16.6603 4.48958 15.6924 5.30491 14.8771C6.12024 14.0617 7.08818 13.415 8.15347 12.9737C9.21875 12.5325 10.3605 12.3054 11.5136 12.3054C12.6666 12.3054 13.8084 12.5325 14.8737 12.9737C15.939 13.415 16.9069 14.0617 17.7222 14.8771V14.8788ZM19.5834 29.1573C21.1797 27.5613 22.2667 25.5277 22.7072 23.3137C23.1476 21.0998 22.9217 18.805 22.0579 16.7195C21.1941 14.634 19.7313 12.8514 17.8544 11.5973C15.9775 10.3432 13.7709 9.67383 11.5136 9.67383C9.25626 9.67383 7.04964 10.3432 5.17276 11.5973C3.29588 12.8514 1.83305 14.634 0.96926 16.7195C0.105467 18.805 -0.120492 21.0998 0.319959 23.3137C0.760409 25.5277 1.84749 27.5613 3.44372 29.1573L9.65062 35.366C9.89521 35.6108 10.1856 35.8049 10.5053 35.9374C10.8249 36.0698 11.1676 36.138 11.5136 36.138C11.8596 36.138 12.2022 36.0698 12.5219 35.9374C12.8415 35.8049 13.1319 35.6108 13.3765 35.366L19.5834 29.1573ZM11.5136 24.5992C12.4449 24.5992 13.3381 24.2292 13.9967 23.5706C14.6553 22.9121 15.0253 22.0188 15.0253 21.0875C15.0253 20.1561 14.6553 19.2629 13.9967 18.6044C13.3381 17.9458 12.4449 17.5758 11.5136 17.5758C10.5822 17.5758 9.689 17.9458 9.03044 18.6044C8.37187 19.2629 8.00189 20.1561 8.00189 21.0875C8.00189 22.0188 8.37187 22.9121 9.03044 23.5706C9.689 24.2292 10.5822 24.5992 11.5136 24.5992Z" fill="black"/>
</svg>
