<svg width="38" height="36" viewBox="0 0 38 36" fill="none" xmlns="http://www.w3.org/2000/svg">
<circle cx="22.1006" cy="15.8418" r="15" fill="#FFCD1A"/>
<g clip-path="url(#clip0)">
<path d="M16.7061 13.7344V19.7344H22.7061" stroke="black" stroke-width="2" stroke-linecap="round" stroke-linejoin="round"/>
<path d="M23.7061 12.7344L16.7061 19.7344" stroke="black" stroke-width="2" stroke-linecap="round" stroke-linejoin="round"/>
<path d="M22.706 28.6545V31.6545C22.7071 31.933 22.6501 32.2086 22.5385 32.4638C22.4269 32.719 22.2633 32.9481 22.0581 33.1363C21.8528 33.3246 21.6106 33.468 21.3467 33.5572C21.0829 33.6464 20.8034 33.6795 20.526 33.6545C17.4488 33.3201 14.493 32.2686 11.896 30.5845C9.47982 29.0491 7.43132 27.0006 5.89599 24.5845C4.20597 21.9757 3.15423 19.0055 2.82599 15.9145C2.801 15.6379 2.83386 15.3592 2.92249 15.0961C3.01111 14.833 3.15356 14.5912 3.34075 14.3861C3.52795 14.181 3.75579 14.0172 4.00978 13.905C4.26376 13.7928 4.53833 13.7347 4.81599 13.7345H7.81599C8.30129 13.7297 8.77178 13.9016 9.13975 14.218C9.50772 14.5345 9.74806 14.9739 9.81599 15.4545C9.94261 16.4145 10.1774 17.3572 10.516 18.2645C10.6505 18.6224 10.6797 19.0114 10.5999 19.3854C10.5201 19.7593 10.3349 20.1026 10.066 20.3745L8.79599 21.6445C10.2195 24.148 12.2924 26.2209 14.796 27.6445L16.066 26.3745C16.3379 26.1056 16.6811 25.9203 17.0551 25.8406C17.4291 25.7608 17.8181 25.7899 18.176 25.9245C19.0833 26.263 20.0259 26.4978 20.986 26.6245C21.4718 26.693 21.9154 26.9377 22.2325 27.312C22.5497 27.6863 22.7182 28.164 22.706 28.6545Z" stroke="black" stroke-width="2" stroke-linecap="round" stroke-linejoin="round"/>
</g>
<defs>
<clipPath id="clip0">
<rect width="24" height="24" fill="white" transform="translate(0.706055 11.7344)"/>
</clipPath>
</defs>
</svg>
