<svg width="39" height="38" viewBox="0 0 39 38" fill="none" xmlns="http://www.w3.org/2000/svg">
<circle cx="23.1006" cy="15.8418" r="15" fill="#FFCD1A"/>
<path d="M15.2256 10.2344C8.33309 10.2344 2.72559 15.8419 2.72559 22.7344C2.72559 29.6269 8.33309 35.2344 15.2256 35.2344C22.1181 35.2344 27.7256 29.6269 27.7256 22.7344C27.7256 15.8419 22.1181 10.2344 15.2256 10.2344ZM15.2256 32.7344C9.71184 32.7344 5.22559 28.2481 5.22559 22.7344C5.22559 17.2206 9.71184 12.7344 15.2256 12.7344C20.7393 12.7344 25.2256 17.2206 25.2256 22.7344C25.2256 28.2481 20.7393 32.7344 15.2256 32.7344Z" fill="black"/>
<path d="M16.4756 16.4844H13.9756V23.2519L18.0918 27.3681L19.8593 25.6006L16.4756 22.2169V16.4844Z" fill="black"/>
</svg>
