<svg width="18" height="18" viewBox="0 0 18 18" fill="none" xmlns="http://www.w3.org/2000/svg">
<path d="M9.65607 4.22559C9.65607 3.6733 9.20835 3.22559 8.65607 3.22559C8.10378 3.22559 7.65607 3.6733 7.65607 4.22559H9.65607ZM8.65607 9.85059H7.65607C7.65607 10.4029 8.10378 10.8506 8.65607 10.8506V9.85059ZM12.4061 10.8506C12.9584 10.8506 13.4061 10.4029 13.4061 9.85059C13.4061 9.2983 12.9584 8.85059 12.4061 8.85059V10.8506ZM8.65607 0.725586C3.96316 0.725586 0.156067 4.53268 0.156067 9.22559H2.15607C2.15607 5.63725 5.06773 2.72559 8.65607 2.72559V0.725586ZM0.156067 9.22559C0.156067 13.9185 3.96316 17.7256 8.65607 17.7256V15.7256C5.06773 15.7256 2.15607 12.8139 2.15607 9.22559H0.156067ZM8.65607 17.7256C13.349 17.7256 17.1561 13.9185 17.1561 9.22559H15.1561C15.1561 12.8139 12.2444 15.7256 8.65607 15.7256V17.7256ZM17.1561 9.22559C17.1561 4.53268 13.349 0.725586 8.65607 0.725586V2.72559C12.2444 2.72559 15.1561 5.63725 15.1561 9.22559H17.1561ZM7.65607 4.22559V9.85059H9.65607V4.22559H7.65607ZM8.65607 10.8506H12.4061V8.85059H8.65607V10.8506Z" fill="#FFCD1A"/>
</svg>
