<svg width="25" height="25" viewBox="0 0 25 25" fill="none" xmlns="http://www.w3.org/2000/svg">
<circle cx="12.5" cy="12.5" r="12.5" fill="white"/>
<path fill-rule="evenodd" clip-rule="evenodd" d="M15.9097 17.5508C16.3281 17.9692 17.0065 17.9692 17.4249 17.5508C17.8433 17.1324 17.8433 16.454 17.4249 16.0356L13.8893 12.5L17.4249 8.96441C17.8433 8.54599 17.8433 7.8676 17.4249 7.44918C17.0065 7.03076 16.3281 7.03076 15.9096 7.44918L12.3741 10.9848L8.83858 7.44929C8.42016 7.03087 7.74177 7.03087 7.32335 7.44929C6.90493 7.86771 6.90494 8.5461 7.32335 8.96452L10.8588 12.5L7.32335 16.0355C6.90493 16.4539 6.90493 17.1323 7.32335 17.5507C7.74177 17.9691 8.42016 17.9691 8.83858 17.5507L12.3741 14.0152L15.9097 17.5508Z" fill="black"/>
</svg>
