<svg width="36" height="36" viewBox="0 0 36 36" fill="none" xmlns="http://www.w3.org/2000/svg">
<path d="M10.709 26.3854H25.2923V23.4688H10.709V26.3854Z" fill="black"/>
<path d="M25.2923 20.5514H10.709V17.6348H25.2923V20.5514Z" fill="black"/>
<path d="M10.709 14.7184H16.5423V11.8018H10.709V14.7184Z" fill="black"/>
<path fill-rule="evenodd" clip-rule="evenodd" d="M9.25 3.05176C8.08968 3.05176 6.97688 3.51269 6.15641 4.33317C5.33594 5.15364 4.875 6.26644 4.875 7.42676V27.8434C4.875 29.0037 5.33594 30.1165 6.15641 30.937C6.97688 31.7575 8.08968 32.2184 9.25 32.2184H26.75C27.9103 32.2184 29.0231 31.7575 29.8436 30.937C30.6641 30.1165 31.125 29.0037 31.125 27.8434V13.2601C31.125 10.5527 30.0495 7.95614 28.135 6.04171C26.2206 4.12728 23.6241 3.05176 20.9167 3.05176H9.25ZM9.25 5.96842H19.4583V13.2601H28.2083V27.8434C28.2083 28.2302 28.0547 28.6011 27.7812 28.8746C27.5077 29.1481 27.1368 29.3018 26.75 29.3018H9.25C8.86323 29.3018 8.49229 29.1481 8.2188 28.8746C7.94531 28.6011 7.79167 28.2302 7.79167 27.8434V7.42676C7.79167 7.03998 7.94531 6.66905 8.2188 6.39556C8.49229 6.12207 8.86323 5.96842 9.25 5.96842ZM22.375 6.11426C23.5212 6.34908 24.5943 6.8558 25.5038 7.59177C26.4134 8.32775 27.1328 9.27144 27.6017 10.3434H22.375V6.11426Z" fill="black"/>
</svg>
