<svg width="35" height="35" viewBox="0 0 35 35" fill="none" xmlns="http://www.w3.org/2000/svg">
<path d="M28.9142 6.13399L28.9153 6.13437C29.0877 6.19461 29.2369 6.31983 29.3415 6.46789C29.4458 6.61543 29.5143 6.79754 29.5105 6.98151V22.9971C29.5105 23.1737 29.455 23.3666 29.3721 23.5364C29.2892 23.7062 29.1719 23.8677 29.0346 23.9752L29.0344 23.9754L17.5904 32.8929C17.5901 32.893 17.5899 32.8932 17.5897 32.8934C17.4462 33.0071 17.2593 33.0615 17.0787 33.0615C16.8966 33.0615 16.714 33.0062 16.5687 32.8942L16.5682 32.8937L5.12304 23.9754L5.12173 23.9743C4.9852 23.8655 4.86813 23.7036 4.78534 23.5339C4.7026 23.3644 4.64687 23.1723 4.64687 22.9971V6.97988C4.64687 6.79679 4.71673 6.61431 4.82197 6.4663C4.92712 6.31842 5.07643 6.19257 5.25005 6.13393C5.25013 6.1339 5.25021 6.13387 5.25029 6.13385L16.5322 2.2891L16.5323 2.28907L16.5807 2.43105C16.7168 2.38457 16.8994 2.36133 17.082 2.36133C17.2646 2.36133 17.4473 2.38457 17.5834 2.43105L28.9142 6.13399ZM28.9142 6.13399L17.6319 2.2891L28.9142 6.13399ZM13.6241 15.5976L13.6238 15.5972C13.4963 15.423 13.2923 15.3166 13.0711 15.3166H11.2383C10.9 15.3166 10.7034 15.7008 10.9006 15.9757L10.9011 15.9764L15.098 21.7538L15.0982 21.7541C15.1618 21.8411 15.245 21.9119 15.341 21.9606C15.437 22.0094 15.5433 22.0348 15.651 22.0348C15.7587 22.0348 15.8649 22.0094 15.961 21.9606C16.057 21.9119 16.1402 21.8411 16.2037 21.7541L16.204 21.7538L23.263 12.0352L23.2635 12.0345C23.4606 11.7595 23.2641 11.3754 22.9258 11.3754H21.093C20.8756 11.3754 20.668 11.4814 20.5403 11.656L20.54 11.6564L15.651 18.3889L13.6241 15.5976ZM26.8266 8.26925V22.2863L17.082 29.8792L7.3375 22.2863V8.26925L17.082 4.94695L26.8266 8.26925Z" fill="black" stroke="black" stroke-width="0.3"/>
</svg>
