<svg width="36" height="36" viewBox="0 0 36 36" fill="none" xmlns="http://www.w3.org/2000/svg">
<path d="M18.0814 29.3018C21.1756 29.3018 24.143 28.0726 26.331 25.8847C28.5189 23.6967 29.748 20.7293 29.7481 17.6351C29.748 14.5409 28.5189 11.5734 26.331 9.38551C24.143 7.19759 21.1756 5.96842 18.0814 5.96842C14.9872 5.96842 12.0197 7.19759 9.8318 9.38551C7.64388 11.5734 6.41471 14.5409 6.41471 17.6351C6.41471 20.7293 7.64388 23.6967 9.8318 25.8847C12.0197 28.0726 14.9872 29.3018 18.0814 29.3018ZM18.0814 32.2184C10.027 32.2184 3.49805 25.6895 3.49805 17.6351C3.49805 9.58072 10.027 3.05176 18.0814 3.05176C26.1358 3.05176 32.6647 9.58072 32.6647 17.6351C32.6647 25.6895 26.1358 32.2184 18.0814 32.2184ZM16.623 16.1768V24.9268H19.5397V16.1768H16.623ZM16.623 10.3434H19.5397V13.2601H16.623V10.3434Z" fill="black"/>
</svg>
