<svg width="50" height="51" viewBox="0 0 50 51" fill="none" xmlns="http://www.w3.org/2000/svg">
<path fill-rule="evenodd" clip-rule="evenodd" d="M21.4231 33.7384H17.4182L19.9231 18.25H23.9277L21.4231 33.7384Z" fill="#FFCD1A"/>
<path fill-rule="evenodd" clip-rule="evenodd" d="M35.9409 18.6288C35.151 18.3154 33.8981 17.9694 32.3489 17.9694C28.394 17.9694 25.609 20.0783 25.5919 23.0935C25.5591 25.3181 27.5859 26.5536 29.1018 27.2954C30.6512 28.0533 31.1779 28.5481 31.1779 29.2237C31.1621 30.2613 29.9259 30.7396 28.7729 30.7396C27.174 30.7396 26.3172 30.493 25.0153 29.9157L24.4879 29.6682L23.9275 33.1451C24.8668 33.573 26.5973 33.9527 28.394 33.9694C32.5961 33.9694 35.3319 31.893 35.3643 28.6799C35.3803 26.9167 34.31 25.5657 32.0026 24.4618C30.6019 23.7531 29.7441 23.2752 29.7441 22.5501C29.7605 21.891 30.4697 21.2158 32.0508 21.2158C33.3528 21.1827 34.3094 21.4957 35.034 21.8088L35.3962 21.9733L35.9409 18.6288Z" fill="#FFCD1A"/>
<path fill-rule="evenodd" clip-rule="evenodd" d="M43.1093 18.25H46.2071L49.4379 33.7382H45.7299C45.7299 33.7382 45.367 31.9586 45.252 31.4148H40.1101C39.9614 31.8266 39.2696 33.7382 39.2696 33.7382H35.0675L41.0161 19.5351C41.4283 18.5299 42.1541 18.25 43.1093 18.25ZM42.8625 23.9179C42.8625 23.9179 41.5934 27.3617 41.2636 28.2514H44.5924C44.4277 27.4771 43.6693 23.7696 43.6693 23.7696L43.3894 22.4351C43.2716 22.7787 43.1011 23.2512 42.9862 23.5699C42.9082 23.7859 42.8558 23.9313 42.8625 23.9179Z" fill="#FFCD1A"/>
<path fill-rule="evenodd" clip-rule="evenodd" d="M14.0732 18.25L10.1512 28.8116L9.72263 26.6696C8.99753 24.198 6.72345 21.5126 4.1857 20.1774L7.77815 33.722H12.0131L18.308 18.25H14.0732Z" fill="#FFCD1A"/>
<path fill-rule="evenodd" clip-rule="evenodd" d="M6.50928 18.25H0.0659184L0 18.5629C5.02623 19.8482 8.35499 22.9457 9.72263 26.6696L8.32193 19.5519C8.09132 18.5627 7.38264 18.2826 6.50928 18.25Z" fill="#FFCD1A"/>
</svg>
