<svg width="50" height="51" viewBox="0 0 50 51" fill="none" xmlns="http://www.w3.org/2000/svg">
<path fill-rule="evenodd" clip-rule="evenodd" d="M41.3333 20.4694V28.8028C41.3333 30.1835 40.2141 31.3028 38.8333 31.3028H36.3333V20.4694H41.3333ZM14.6667 17.136V15.4694C14.6667 14.0886 15.786 12.9694 17.1667 12.9694H38.8333C40.2141 12.9694 41.3333 14.0886 41.3333 15.4694V17.136H14.6667ZM10.5 19.6361H32.1667C33.5474 19.6361 34.6667 20.7554 34.6667 22.1361V35.4695C34.6667 36.8502 33.5474 37.9695 32.1667 37.9695H10.5C9.11929 37.9695 8 36.8502 8 35.4695V22.1361C8 20.7554 9.11929 19.6361 10.5 19.6361ZM12.5833 23.8028C11.893 23.8028 11.3333 24.3625 11.3333 25.0528C11.3333 25.7432 11.893 26.3028 12.5833 26.3028H15.9167C16.607 26.3028 17.1667 25.7432 17.1667 25.0528C17.1667 24.3625 16.607 23.8028 15.9167 23.8028H12.5833ZM12.1667 30.4693C11.7064 30.4693 11.3333 30.8424 11.3333 31.3026C11.3333 31.7629 11.7064 32.136 12.1667 32.136H14.6667C15.1269 32.136 15.5 31.7629 15.5 31.3026C15.5 30.8424 15.1269 30.4693 14.6667 30.4693H12.1667ZM12.1667 32.9694C11.7064 32.9694 11.3333 33.3425 11.3333 33.8028C11.3333 34.263 11.7064 34.6361 12.1667 34.6361H24.6667C25.1269 34.6361 25.5 34.263 25.5 33.8028C25.5 33.3425 25.1269 32.9694 24.6667 32.9694H12.1667ZM17.1667 30.4693C16.7064 30.4693 16.3333 30.8424 16.3333 31.3026C16.3333 31.7629 16.7064 32.136 17.1667 32.136H19.6667C20.1269 32.136 20.5 31.7629 20.5 31.3026C20.5 30.8424 20.1269 30.4693 19.6667 30.4693H17.1667ZM22.1667 30.4693C21.7064 30.4693 21.3333 30.8424 21.3333 31.3026C21.3333 31.7629 21.7064 32.136 22.1667 32.136H24.6667C25.1269 32.136 25.5 31.7629 25.5 31.3026C25.5 30.8424 25.1269 30.4693 24.6667 30.4693H22.1667ZM27.1667 30.4693C26.7064 30.4693 26.3333 30.8424 26.3333 31.3026C26.3333 31.7629 26.7064 32.136 27.1667 32.136H29.6667C30.1269 32.136 30.5 31.7629 30.5 31.3026C30.5 30.8424 30.1269 30.4693 29.6667 30.4693H27.1667ZM25.9167 27.1359C26.5982 27.1359 27.2032 26.8087 27.5833 26.3028C27.9634 26.8087 28.5685 27.1359 29.25 27.1359C30.4006 27.1359 31.3333 26.2032 31.3333 25.0526C31.3333 23.902 30.4006 22.9692 29.25 22.9692C28.5685 22.9692 27.9634 23.2965 27.5833 23.8024C27.2032 23.2965 26.5982 22.9692 25.9167 22.9692C24.7661 22.9692 23.8333 23.902 23.8333 25.0526C23.8333 26.2032 24.7661 27.1359 25.9167 27.1359Z" fill="#FFCD1A"/>
</svg>
