<svg width="50" height="51" viewBox="0 0 50 51" fill="none" xmlns="http://www.w3.org/2000/svg">
<path fill-rule="evenodd" clip-rule="evenodd" d="M31.3601 38.2085C34.118 38.2085 37.1104 39.1576 40.4223 42.1029C40.7541 42.3979 41.1957 42.0313 40.9063 41.6647C37.6515 37.5401 34.6411 36.7549 31.6388 36.0908C27.9667 35.2787 26.0778 33.2049 24.7612 30.9277C24.4993 30.4746 24.3818 30.5546 24.3584 31.1369C24.3295 31.8491 24.3784 32.7915 24.5371 33.7188C24.3891 33.7257 24.24 33.7238 24.0903 33.7238C18.8366 33.7238 14.5776 29.4494 14.5776 24.1763C14.5776 18.9033 18.8366 14.6286 24.0903 14.6286C29.3439 14.6286 33.6028 18.9033 33.6028 24.1763C33.6028 24.5515 33.5846 24.9223 33.5426 25.2862C32.8477 25.1605 31.4808 25.1462 30.5216 25.2295C30.1607 25.2608 30.2115 25.4295 30.4843 25.479C33.6288 26.0493 35.7893 28.0053 36.2831 31.5547C36.2944 31.6361 36.4008 31.6607 36.4431 31.5901C37.737 29.4229 38.4802 26.8866 38.4802 24.1763C38.4802 16.1997 32.0377 9.73328 24.0903 9.73328C16.1429 9.73328 9.7002 16.1997 9.7002 24.1763C9.7002 32.1529 16.1429 38.62 24.0903 38.62C26.1988 38.62 28.2903 38.2085 31.3601 38.2085ZM32.4314 32.9647C33.0714 33.5079 33.2662 34.1538 32.9275 34.6094C32.7392 34.8591 32.4339 34.997 32.0682 34.997C31.7091 34.997 31.343 34.8635 31.089 34.6409C30.5069 34.1305 30.3359 33.3025 30.716 32.8323C30.8644 32.6484 31.1057 32.5471 31.3948 32.5471C31.7465 32.5471 32.1145 32.6957 32.4314 32.9647ZM35.3852 31.5849C35.4793 32.2179 35.28 32.48 35.0799 32.48C34.8617 32.48 34.5876 32.2234 34.2641 31.7173C33.9451 31.2174 33.8284 30.6441 33.9865 30.3544C34.091 30.1626 34.3097 30.0793 34.5855 30.184C35.1194 30.3865 35.3291 31.2069 35.3852 31.5849Z" fill="#FFCD1A"/>
</svg>
