<svg width="50" height="51" viewBox="0 0 50 51" fill="none" xmlns="http://www.w3.org/2000/svg">
<path fill-rule="evenodd" clip-rule="evenodd" d="M29.1991 17.9234L29.1743 25.1896L15.7078 34.3637L32.7669 28.8008V17.9234H36.2477V36.1974H15.0418C13.7829 36.1974 12.7524 35.167 12.7524 33.908L12.7528 20.4598C12.7528 18.7063 12.8998 17.5936 16.5312 14.8827C19.5377 12.6385 29.1743 4.96936 29.1743 4.96936L29.1991 17.9234ZM23.0205 17.388C22.2333 18.3263 22.1068 19.5163 22.7383 20.0462C23.3698 20.5762 24.5203 20.2453 25.3073 19.307C26.0948 18.3687 26.221 17.1783 25.5896 16.6483C24.9581 16.1183 23.808 16.4497 23.0205 17.388Z" fill="#FFCD1A"/>
</svg>
