<svg width="50" height="51" viewBox="0 0 50 51" fill="none" xmlns="http://www.w3.org/2000/svg">
<path fill-rule="evenodd" clip-rule="evenodd" d="M4.62366 18.9717C5.07035 18.969 6.3979 18.8497 6.96023 20.7433C7.33901 22.0188 7.9424 24.1081 8.77039 27.0113H9.10759C9.99553 23.9506 10.6055 21.8612 10.9375 20.7433C11.5057 18.83 12.9261 18.9717 13.4943 18.9717L17.878 18.9717V32.5771H13.41V24.5592H13.1104L10.6198 32.5771H7.25821L4.76755 24.5533H4.46794V32.5771H0V18.9717L4.62366 18.9717ZM24.2939 18.9717V26.9956H24.6503L27.6799 20.3976C28.268 19.0846 29.5215 18.9717 29.5215 18.9717H33.8451V32.5772H29.2839V24.5533H28.9274L25.9572 31.1513C25.3691 32.4583 24.0562 32.5772 24.0562 32.5772H19.7326V18.9717H24.2939ZM49.6109 25.4371C48.9746 27.236 46.9765 28.5243 44.7644 28.5243H39.981V32.5772H35.6436V25.4371H49.6109Z" fill="#FFCD1A"/>
<path fill-rule="evenodd" clip-rule="evenodd" d="M44.9736 18.9718H35.4161C35.6436 22.0008 38.258 24.5939 40.9645 24.5939H49.9123C50.4286 22.0764 48.6511 18.9718 44.9736 18.9718Z" fill="#FFCD1A"/>
</svg>
