<svg width="23" height="23" viewBox="0 0 23 23" fill="none" xmlns="http://www.w3.org/2000/svg">
<g clip-path="url(#clip0)">
<path fill-rule="evenodd" clip-rule="evenodd" d="M21.1683 7.75439C21.0217 6.58105 20.215 5.11439 19.335 4.45438C19.335 4.45438 18.015 3.42772 16.4017 2.47438C14.7883 1.52105 13.3217 0.861051 13.3217 0.861051C12.8083 0.641051 12.1483 0.494385 11.415 0.494385C10.6817 0.494385 10.0217 0.641051 9.50833 0.861051C9.50833 0.861051 8.04166 1.52105 6.42833 2.47438C4.815 3.42772 3.495 4.45438 3.495 4.45438C3.12833 4.67439 2.76166 5.04105 2.46833 5.48105C2.395 5.55439 2.395 5.62772 2.46833 5.70105C2.54166 5.77438 2.615 5.84772 2.68833 5.84772H3.78833C3.86166 5.84772 3.935 5.84772 3.935 5.77438C4.08166 5.70105 4.155 5.55439 4.22833 5.48105C4.22833 5.48105 5.475 4.52772 7.015 3.57438C8.555 2.62105 9.94833 2.03438 10.0217 1.96105C10.3883 1.88772 10.8283 1.81438 11.3417 1.81438C11.855 1.81438 12.3683 1.88772 12.6617 2.03438C12.6617 2.03438 14.1283 2.69439 15.6683 3.64772C17.2083 4.52772 18.455 5.48105 18.5283 5.48105C19.115 5.92105 19.775 7.09439 19.8483 7.90105C19.8483 8.19439 19.995 9.66105 19.995 11.3477C19.995 13.0344 19.8483 14.5011 19.8483 14.7944C19.775 15.6011 19.115 16.7011 18.5283 17.2144C18.5283 17.2144 17.2817 18.1677 15.7417 19.1211C14.2017 20.0744 12.8083 20.6611 12.735 20.7344C12.3683 20.8077 11.855 20.8811 11.3417 20.8811C10.8283 20.8811 10.315 20.8077 10.0217 20.6611C10.0217 20.6611 8.62833 20.0011 7.015 19.0477C5.54833 18.1677 4.30166 17.2144 4.22833 17.2144C4.155 17.1411 4.08166 17.0677 3.935 16.9944C3.86166 16.9211 3.86166 16.9211 3.78833 16.9211H2.68833C2.615 16.9211 2.54166 16.9944 2.46833 17.0677C2.395 17.1411 2.46833 17.2144 2.46833 17.2877C2.76166 17.7277 3.12833 18.0944 3.42166 18.3144C3.42166 18.3144 4.74166 19.3411 6.355 20.2944C7.96833 21.2477 9.435 21.9077 9.435 21.9077C9.94833 22.1277 10.6083 22.2744 11.3417 22.2744C12.075 22.2744 12.735 22.1277 13.2483 21.9077C13.2483 21.9077 14.715 21.2477 16.3283 20.2944C17.9417 19.3411 19.2617 18.3144 19.2617 18.3144C20.1417 17.6544 21.0217 16.1144 21.095 15.0144C21.095 15.0144 21.2417 13.3277 21.2417 11.4211C21.315 9.44105 21.1683 7.75439 21.1683 7.75439Z" fill="url(#paint0_linear)"/>
<path fill-rule="evenodd" clip-rule="evenodd" d="M9.58177 12.0078C9.65511 12.0078 9.65511 12.0078 9.58177 12.0078L9.65511 14.7211H8.99511V12.6678H8.33511C8.26177 13.3277 8.11511 14.1344 7.96844 14.7211H7.16178C7.38177 13.9144 7.60177 12.9611 7.60177 12.0811H9.58177V12.0078ZM17.9418 12.0078C18.0151 12.0078 18.0151 12.0078 17.9418 12.0078V14.5744C17.6484 14.7211 17.1351 14.7944 16.6951 14.7944C15.8884 14.7944 15.5951 14.4278 15.5951 13.4744V12.0078V11.9344H16.2551C16.2551 11.9344 16.2551 11.9344 16.2551 12.0078V13.4011C16.2551 13.9878 16.3284 14.1344 16.7684 14.1344C16.9151 14.1344 17.0618 14.1344 17.2084 14.0611V12.0078V11.9344H17.9418V12.0078ZM4.30177 12.0078C4.08177 12.8878 3.71511 13.8411 3.34844 14.8677C3.20177 15.1611 3.05511 15.4544 2.90844 15.7478H2.17511C2.24844 15.6011 2.32177 15.5278 2.39511 15.3811C2.46844 15.2344 2.54177 15.0144 2.68844 14.7944L1.73511 12.0811H2.32177L2.98177 13.9144C3.27511 13.1811 3.49511 12.5211 3.56844 12.0811H4.30177V12.0078ZM6.64844 14.0611L6.86844 14.5744V14.6478C6.64844 14.7211 6.20844 14.7944 5.91511 14.7944C4.96177 14.7944 4.52177 14.3544 4.52177 13.3278C4.52177 12.3011 4.96177 11.8611 5.91511 11.8611C6.20844 11.8611 6.50177 11.9344 6.79511 12.0078C6.72178 12.2278 6.57511 12.3744 6.50177 12.5211C6.50177 12.5211 6.50177 12.5211 6.42844 12.5211C6.20844 12.4478 6.06177 12.4478 5.91511 12.4478C5.32844 12.5211 5.25511 12.8144 5.25511 13.3278C5.25511 13.9878 5.47511 14.1344 5.91511 14.1344C6.13511 14.2077 6.42844 14.1344 6.64844 14.0611C6.57511 14.0611 6.64844 14.0611 6.64844 14.0611ZM12.8084 12.0078C12.5884 12.8878 12.2218 13.8411 11.8551 14.8677C11.7084 15.2344 11.5618 15.5278 11.4151 15.7478H10.6818C10.7551 15.6011 10.8284 15.5278 10.9018 15.3811C10.9751 15.2344 11.0484 15.0144 11.1951 14.8677L10.2418 12.1544H10.9018L11.5618 13.9878C11.8551 13.2544 12.0751 12.5944 12.1484 12.1544H12.8084V12.0078ZM15.2284 12.0078C15.1551 12.2278 15.0818 12.4478 15.0084 12.5944H13.9818V14.6478H13.3218V12.0078V11.9344H15.2284V12.0078Z" fill="#EE2F53"/>
<path fill-rule="evenodd" clip-rule="evenodd" d="M5.3285 7.82764C6.28183 7.82764 6.6485 8.1943 6.6485 9.2943C6.6485 10.321 6.28183 10.761 5.3285 10.761C4.37517 10.761 4.0085 10.321 4.0085 9.2943C4.08184 8.26764 4.37517 7.82764 5.3285 7.82764ZM5.3285 10.1743C5.7685 10.1743 5.91517 10.0276 5.91517 9.2943C5.91517 8.48764 5.7685 8.4143 5.3285 8.4143C4.8885 8.4143 4.74184 8.48764 4.74184 9.2943C4.81517 10.0276 4.8885 10.1743 5.3285 10.1743ZM9.21517 10.0276L9.43517 10.541V10.6143C9.21517 10.6876 8.77517 10.761 8.48183 10.761C7.5285 10.761 7.0885 10.321 7.0885 9.2943C7.0885 8.26764 7.5285 7.82764 8.48183 7.82764C8.77517 7.82764 9.0685 7.90097 9.36184 7.9743C9.2885 8.1943 9.14183 8.34097 9.0685 8.48764C9.0685 8.48764 9.0685 8.48764 8.99517 8.48764C8.77517 8.4143 8.6285 8.4143 8.48183 8.4143C7.89517 8.4143 7.82184 8.70764 7.82184 9.22097C7.82184 9.88097 8.04183 10.0276 8.48183 10.0276C8.70183 10.101 8.99517 10.101 9.21517 10.0276ZM3.7885 7.90097C3.7885 7.90097 3.7885 7.9743 3.7885 7.90097C3.86184 7.9743 3.86184 7.9743 3.7885 7.90097C3.71517 8.12097 3.64184 8.34097 3.5685 8.48764H2.54184V10.6143V10.6876H1.88184C1.88184 10.6876 1.88184 10.6876 1.88184 10.6143V7.9743V7.90097H3.7885Z" fill="#EE2F53"/>
</g>
<defs>
<linearGradient id="paint0_linear" x1="12.5983" y1="1.03819" x2="10.0207" y2="22.3035" gradientUnits="userSpaceOnUse">
<stop offset="0.1854" stop-color="#0066B3"/>
<stop offset="0.7226" stop-color="#EE2F53"/>
</linearGradient>
<clipPath id="clip0">
<rect width="22" height="22" fill="white" transform="translate(0.121826 0.347656)"/>
</clipPath>
</defs>
</svg>
