<svg width="20" height="16" viewBox="0 0 20 16" fill="none" xmlns="http://www.w3.org/2000/svg">
<path d="M0 2C0 1.17157 0.671573 0.5 1.5 0.5H18.5C19.3284 0.5 20 1.17157 20 2C20 2.82843 19.3284 3.5 18.5 3.5H1.5C0.671573 3.5 0 2.82843 0 2Z" fill="black"/>
<path d="M0 8C0 7.17157 0.671573 6.5 1.5 6.5H18.5C19.3284 6.5 20 7.17157 20 8C20 8.82843 19.3284 9.5 18.5 9.5H1.5C0.671573 9.5 0 8.82843 0 8Z" fill="black"/>
<path d="M0 14C0 13.1716 0.671573 12.5 1.5 12.5H18.5C19.3284 12.5 20 13.1716 20 14C20 14.8284 19.3284 15.5 18.5 15.5H1.5C0.671573 15.5 0 14.8284 0 14Z" fill="black"/>
</svg>
