<svg width="16" height="16" viewBox="0 0 16 16" fill="none" xmlns="http://www.w3.org/2000/svg">
<path fill-rule="evenodd" clip-rule="evenodd" d="M12.7252 15.0711C13.311 15.6569 14.2607 15.6569 14.8465 15.0711C15.4323 14.4853 15.4323 13.5355 14.8465 12.9497L9.89676 8L14.8465 3.05025C15.4323 2.46447 15.4323 1.51472 14.8465 0.928932C14.2607 0.343146 13.311 0.343145 12.7252 0.928932L7.77544 5.87868L2.82569 0.928932C2.2399 0.343146 1.29016 0.343146 0.704368 0.928932C0.118582 1.51472 0.118582 2.46447 0.704368 3.05025L5.65412 8L0.704368 12.9497C0.118582 13.5355 0.118582 14.4853 0.704368 15.0711C1.29016 15.6569 2.2399 15.6569 2.82569 15.0711L7.77544 10.1213L12.7252 15.0711Z" fill="black"/>
</svg>
