<svg width="28" height="28" viewBox="0 0 28 28" fill="none" xmlns="http://www.w3.org/2000/svg">
<path d="M15.25 6.06299C15.25 5.37263 14.6904 4.81299 14 4.81299C13.3096 4.81299 12.75 5.37263 12.75 6.06299H15.25ZM14 15.063H12.75C12.75 15.7533 13.3096 16.313 14 16.313V15.063ZM20 16.313C20.6904 16.313 21.25 15.7533 21.25 15.063C21.25 14.3726 20.6904 13.813 20 13.813V16.313ZM14 0.812988C6.68464 0.812988 0.75 6.74763 0.75 14.063H3.25C3.25 8.12834 8.06536 3.31299 14 3.31299V0.812988ZM0.75 14.063C0.75 21.3783 6.68464 27.313 14 27.313V24.813C8.06536 24.813 3.25 19.9976 3.25 14.063H0.75ZM14 27.313C21.3154 27.313 27.25 21.3783 27.25 14.063H24.75C24.75 19.9976 19.9346 24.813 14 24.813V27.313ZM27.25 14.063C27.25 6.74763 21.3154 0.812988 14 0.812988V3.31299C19.9346 3.31299 24.75 8.12834 24.75 14.063H27.25ZM12.75 6.06299V15.063H15.25V6.06299H12.75ZM14 16.313H20V13.813H14V16.313Z" fill="black"/>
</svg>
