<svg width="30" height="31" viewBox="0 0 30 31" fill="none" xmlns="http://www.w3.org/2000/svg">
<path d="M1.875 21.063H28.125V22.938H1.875V21.063Z" fill="black" stroke="black" stroke-width="0.5"/>
<path d="M1.875 24.813H28.125V26.688H1.875V24.813Z" fill="black" stroke="black" stroke-width="0.5"/>
<path d="M22.5 9.81299C22.1292 9.81299 21.7666 9.92296 21.4583 10.129C21.15 10.335 20.9096 10.6278 20.7677 10.9705C20.6258 11.3131 20.5887 11.6901 20.661 12.0538C20.7334 12.4175 20.912 12.7516 21.1742 13.0138C21.4364 13.276 21.7705 13.4546 22.1342 13.527C22.4979 13.5993 22.8749 13.5622 23.2175 13.4203C23.5601 13.2783 23.853 13.038 24.059 12.7297C24.265 12.4213 24.375 12.0588 24.375 11.688C24.375 11.1907 24.1775 10.7138 23.8258 10.3622C23.4742 10.0105 22.9973 9.81299 22.5 9.81299Z" fill="black" stroke="black" stroke-width="0.5"/>
<path d="M15 15.438C14.2583 15.438 13.5333 15.2181 12.9166 14.806C12.2999 14.3939 11.8193 13.8083 11.5355 13.1231C11.2516 12.4378 11.1774 11.6838 11.3221 10.9564C11.4668 10.229 11.8239 9.56079 12.3484 9.03634C12.8728 8.51189 13.541 8.15474 14.2684 8.01005C14.9958 7.86535 15.7498 7.93961 16.4351 8.22344C17.1203 8.50727 17.706 8.98792 18.118 9.6046C18.5301 10.2213 18.75 10.9463 18.75 11.688C18.7488 12.6822 18.3533 13.6353 17.6503 14.3383C16.9473 15.0413 15.9942 15.4367 15 15.438ZM15 9.81299C14.6292 9.81299 14.2666 9.92296 13.9583 10.129C13.65 10.335 13.4096 10.6278 13.2677 10.9705C13.1258 11.3131 13.0887 11.6901 13.161 12.0538C13.2334 12.4175 13.412 12.7516 13.6742 13.0138C13.9364 13.276 14.2705 13.4546 14.6342 13.527C14.9979 13.5993 15.3749 13.5622 15.7175 13.4203C16.0601 13.2783 16.353 13.038 16.559 12.7297C16.765 12.4213 16.875 12.0588 16.875 11.688C16.8745 11.1909 16.6768 10.7142 16.3253 10.3627C15.9738 10.0112 15.4971 9.81349 15 9.81299Z" fill="black" stroke="black" stroke-width="0.5"/>
<path d="M7.5 9.81299C7.12916 9.81299 6.76665 9.92296 6.45831 10.129C6.14996 10.335 5.90964 10.6278 5.76773 10.9705C5.62581 11.3131 5.58868 11.6901 5.66103 12.0538C5.73338 12.4175 5.91195 12.7516 6.17418 13.0138C6.4364 13.276 6.77049 13.4546 7.13421 13.527C7.49792 13.5993 7.87492 13.5622 8.21753 13.4203C8.56014 13.2783 8.85298 13.038 9.05901 12.7297C9.26503 12.4213 9.375 12.0588 9.375 11.688C9.375 11.1907 9.17746 10.7138 8.82583 10.3622C8.4742 10.0105 7.99728 9.81299 7.5 9.81299Z" fill="black" stroke="black" stroke-width="0.5"/>
<path d="M26.25 19.188H3.75C3.2531 19.1868 2.7769 18.9888 2.42554 18.6374C2.07418 18.2861 1.87624 17.8099 1.875 17.313V6.06299C1.87624 5.56609 2.07418 5.08989 2.42554 4.73853C2.7769 4.38717 3.2531 4.18923 3.75 4.18799H26.25C26.7469 4.18923 27.2231 4.38717 27.5745 4.73853C27.9258 5.08989 28.1238 5.56609 28.125 6.06299V17.313C28.1243 17.81 27.9265 18.2865 27.575 18.638C27.2235 18.9895 26.7471 19.1872 26.25 19.188ZM26.25 6.06299H3.75V17.313H26.25V6.06299Z" fill="black" stroke="black" stroke-width="0.5"/>
</svg>
