<svg width="315" height="70" viewBox="0 0 315 70" fill="none" xmlns="http://www.w3.org/2000/svg">
<path fill-rule="evenodd" clip-rule="evenodd" d="M38.3306 18.72C47.3981 23.0064 53.7453 32.3212 53.7453 43.0372C53.7453 57.8749 41.7103 69.9099 26.8726 69.9099C12.035 69.9099 0 57.8749 0 43.0372C0 37.267 1.81349 31.909 4.94589 27.5401V42.4602C4.94589 42.6251 4.94589 42.8724 4.94589 43.0372C4.94589 55.1547 14.7552 64.964 26.8726 64.964C38.9901 64.964 48.7994 55.1547 48.7994 43.0372C48.7994 35.1238 44.5954 28.1996 38.3306 24.3253V18.72Z" fill="black"/>
<path fill-rule="evenodd" clip-rule="evenodd" d="M41.1333 28.694C41.5455 29.1062 41.9576 29.5183 42.3698 30.0129L38.9077 32.2385C38.4955 31.8264 38.0833 31.3318 37.6712 30.9196L41.1333 28.694ZM43.4414 31.4142L40.0617 33.6399C41.9576 36.2777 43.0292 39.4925 43.0292 42.9546C43.0292 51.8572 35.7753 59.1112 26.8727 59.1112C21.02 59.1112 15.9093 55.9788 13.1066 51.3626L9.72692 53.5883C13.2715 59.3585 19.7011 63.1503 26.9551 63.1503C37.5888 63.1503 46.3265 54.9072 47.1508 44.4384C47.1508 44.2735 47.1508 44.1087 47.1508 43.9438C47.1508 43.779 47.1508 43.6141 47.1508 43.4492C47.1508 43.2844 47.1508 43.1195 47.1508 42.9546C47.0684 38.6682 45.667 34.7115 43.4414 31.4142ZM8.73774 52.1045C8.49045 51.6099 8.24315 51.0329 7.99586 50.4559L11.458 48.1478C11.6228 48.7248 11.8701 49.3018 12.1174 49.7964L8.73774 52.1045ZM7.41884 48.8073C7.41884 48.7248 7.33641 48.56 7.33641 48.4775V48.3951C7.33641 48.3127 7.25398 48.1478 7.25398 48.0654V47.983V47.9005L7.17155 47.6532V47.5708L7.08912 47.4059L7.00669 47.2411L6.92426 46.9938V46.9113L10.7161 44.4384C10.7985 45.0978 10.881 45.7573 11.0458 46.3343L7.41884 48.8073ZM36.1874 29.848L39.8144 27.4575C39.3198 27.0454 38.8252 26.7156 38.3306 26.3035L34.5388 28.7764C35.1158 29.1061 35.6928 29.4359 36.1874 29.848Z" fill="url(#paint0_linear)"/>
<path fill-rule="evenodd" clip-rule="evenodd" d="M26.7902 22.759C30.3348 22.759 33.7145 23.6658 36.5996 25.3144L32.5604 27.9522C30.7469 27.2928 28.851 26.8806 26.7902 26.8806C18.1349 26.8806 11.0458 33.7224 10.6337 42.2953L6.59452 44.9331C6.51208 44.2736 6.51208 43.6966 6.51208 43.0372C6.59452 31.8265 15.662 22.759 26.7902 22.759Z" fill="black"/>
<path fill-rule="evenodd" clip-rule="evenodd" d="M13.6836 24.1602L6.59454 28.7763V42.7896L13.6836 30.9195V24.1602Z" fill="black"/>
<path fill-rule="evenodd" clip-rule="evenodd" d="M14.508 15.1753L7.50129 19.7915V21.9347L6.59454 22.5117V26.7157L13.6836 22.0171V17.8955L14.508 17.3185V15.1753Z" fill="black"/>
<path fill-rule="evenodd" clip-rule="evenodd" d="M25.1416 16.5767L18.1349 21.1928V27.7873L25.1416 25.6441V16.5767Z" fill="black"/>
<path fill-rule="evenodd" clip-rule="evenodd" d="M20.6079 11.2184L18.9592 12.29V14.3508L18.2173 14.9278V19.1318L25.1416 14.5156V10.3116L25.9659 9.73461V7.67383L20.6079 11.2184Z" fill="black"/>
<path fill-rule="evenodd" clip-rule="evenodd" d="M36.5996 9.0752L29.5929 13.6914L29.6753 25.7264L36.5996 25.3142V9.0752Z" fill="black"/>
<path fill-rule="evenodd" clip-rule="evenodd" d="M37.4239 0.090332L30.4172 4.7065V6.84972L29.6753 7.34429V11.5483L36.5995 6.93213V2.72815L37.4239 2.23355V0.090332Z" fill="black"/>
<path fill-rule="evenodd" clip-rule="evenodd" d="M26.7902 57.2977C34.7036 57.2977 41.1333 50.8681 41.1333 42.9546C41.1333 35.0412 34.7036 28.6116 26.7902 28.6116C18.8768 28.6116 12.4471 35.0412 12.4471 42.9546C12.5296 50.8681 18.9592 57.2977 26.7902 57.2977Z" fill="url(#paint1_linear)"/>
<path d="M26.7902 55.2369C33.5735 55.2369 39.0725 49.738 39.0725 42.9546C39.0725 36.1713 33.5735 30.6724 26.7902 30.6724C20.0069 30.6724 14.5079 36.1713 14.5079 42.9546C14.5079 49.738 20.0069 55.2369 26.7902 55.2369Z" fill="url(#paint2_linear)"/>
<path fill-rule="evenodd" clip-rule="evenodd" d="M88.9436 47.0763L88.8611 30.5076L80.7004 44.1912H78.5572L70.3965 30.6725V47.0763H65.9452V22.0996H69.737L79.7113 38.5859L89.4382 22.0996H93.23L93.3124 47.0763H88.9436Z" fill="black"/>
<path fill-rule="evenodd" clip-rule="evenodd" d="M112.272 41.8008C113.343 40.7292 113.838 39.2454 113.838 37.5143C113.838 35.7008 113.343 34.2995 112.272 33.2279C111.2 32.1563 109.881 31.5793 108.233 31.5793C106.584 31.5793 105.265 32.1563 104.193 33.2279C103.122 34.2995 102.627 35.7833 102.627 37.5143C102.627 39.3278 103.122 40.7292 104.193 41.8008C105.265 42.8724 106.584 43.4494 108.233 43.4494C109.799 43.4494 111.2 42.9548 112.272 41.8008ZM102.957 46.0872C101.391 45.2629 100.237 44.1089 99.3299 42.6251C98.4232 41.1413 98.011 39.4927 98.011 37.5968C98.011 35.7009 98.4232 34.0522 99.3299 32.5684C100.237 31.0847 101.391 29.9307 102.957 29.1063C104.523 28.282 106.254 27.8699 108.15 27.8699C110.128 27.8699 111.86 28.282 113.426 29.1063C114.992 29.9307 116.146 31.0847 117.053 32.5684C117.959 34.0522 118.372 35.7009 118.372 37.5968C118.372 39.4927 117.959 41.1413 117.053 42.6251C116.146 44.1089 114.992 45.2629 113.426 46.0872C111.86 46.9115 110.128 47.3237 108.15 47.3237C106.254 47.3237 104.523 46.9115 102.957 46.0872Z" fill="black"/>
<path fill-rule="evenodd" clip-rule="evenodd" d="M139.227 29.8483C140.711 31.2496 141.37 33.3104 141.37 36.1131V47.0764H136.919V36.6901C136.919 35.0414 136.507 33.805 135.765 32.8982C134.94 32.0739 133.869 31.6617 132.385 31.6617C130.736 31.6617 129.417 32.1563 128.511 33.1455C127.521 34.1347 127.109 35.536 127.109 37.4319V47.0764H122.658V28.0348H126.944V30.5077C127.686 29.601 128.593 28.9415 129.747 28.5293C130.901 28.1172 132.138 27.8699 133.539 27.8699C135.847 27.7875 137.825 28.4469 139.227 29.8483Z" fill="black"/>
<path fill-rule="evenodd" clip-rule="evenodd" d="M151.179 32.5684C150.19 33.3928 149.613 34.5468 149.366 35.9481H160.164C159.999 34.5468 159.422 33.4752 158.433 32.5684C157.444 31.7441 156.208 31.2495 154.806 31.2495C153.405 31.332 152.168 31.7441 151.179 32.5684ZM164.368 38.9157H149.448C149.696 40.317 150.355 41.4711 151.509 42.2954C152.581 43.1197 153.982 43.5318 155.631 43.5318C157.691 43.5318 159.422 42.8724 160.824 41.4711L163.214 44.1913C162.39 45.1805 161.236 46.0048 159.999 46.4994C158.681 46.9939 157.197 47.3237 155.548 47.3237C153.487 47.3237 151.591 46.9115 150.025 46.0872C148.459 45.2629 147.223 44.1089 146.316 42.6251C145.409 41.1413 144.997 39.4927 144.997 37.5968C144.997 35.7009 145.409 34.0522 146.233 32.5684C147.058 31.0847 148.212 29.9307 149.778 29.1063C151.262 28.282 152.993 27.8699 154.806 27.8699C156.702 27.8699 158.351 28.282 159.752 29.1063C161.236 29.9307 162.39 31.0847 163.214 32.5684C164.039 34.0522 164.451 35.7833 164.451 37.7616C164.451 37.9265 164.451 38.3387 164.368 38.9157Z" fill="black"/>
<path fill-rule="evenodd" clip-rule="evenodd" d="M186.048 27.9523L177.145 48.5601C176.321 50.6209 175.332 52.1047 174.095 52.929C172.941 53.7533 171.457 54.1655 169.809 54.1655C168.82 54.1655 167.913 54.0006 167.006 53.6709C166.099 53.3412 165.275 52.929 164.698 52.352L166.512 49.0547C166.924 49.4669 167.418 49.7966 167.995 50.0439C168.572 50.2912 169.149 50.3736 169.726 50.3736C170.551 50.3736 171.128 50.2088 171.705 49.7966C172.199 49.3845 172.694 48.725 173.106 47.7358L173.436 46.994L165.11 27.8699H169.726L175.744 41.9656L181.761 27.8699H186.048V27.9523Z" fill="black"/>
<path fill-rule="evenodd" clip-rule="evenodd" d="M194.703 26.9631V28.1171H199.979V31.6617H194.868V47.0764H190.417V31.7441H187.202V28.1171H190.334V26.8806C190.334 24.8199 190.911 23.2537 192.148 22.0172C193.302 20.8632 195.033 20.2861 197.176 20.2861C198.907 20.2861 200.226 20.6158 201.215 21.3577L199.979 24.7374C199.237 24.2428 198.413 23.9131 197.506 23.9131C195.61 23.9131 194.703 24.9023 194.703 26.9631Z" fill="black"/>
<path fill-rule="evenodd" clip-rule="evenodd" d="M213.085 43.2846C213.992 42.79 214.569 42.0481 214.899 41.059V38.8333H210.283C207.727 38.8333 206.408 39.6576 206.408 41.3887C206.408 42.213 206.738 42.8724 207.398 43.2846C208.057 43.7792 208.964 44.0265 210.035 44.0265C211.272 44.0265 212.261 43.7792 213.085 43.2846ZM217.207 29.7658C218.691 31.0847 219.433 33.1455 219.433 35.8658V47.0764H215.229V44.7684C214.652 45.5927 213.91 46.2521 212.92 46.6643C211.931 47.0764 210.695 47.3237 209.293 47.3237C207.892 47.3237 206.656 47.0764 205.584 46.5818C204.512 46.0873 203.688 45.4278 203.111 44.5211C202.534 43.6143 202.204 42.7076 202.204 41.5535C202.204 39.8225 202.864 38.5036 204.1 37.4319C205.337 36.3603 207.398 35.8658 210.118 35.8658H215.064V35.6185C215.064 34.2996 214.652 33.2279 213.827 32.5685C213.003 31.8266 211.849 31.4969 210.283 31.4969C209.211 31.4969 208.139 31.6618 207.15 31.9915C206.079 32.3212 205.254 32.8158 204.512 33.3928L202.781 30.178C203.771 29.4361 205.007 28.8591 206.408 28.4469C207.81 28.0348 209.293 27.8699 210.86 27.8699C213.58 27.7875 215.723 28.4469 217.207 29.7658Z" fill="black"/>
<path fill-rule="evenodd" clip-rule="evenodd" d="M231.797 38.8332L228.5 42.0481V47.0764H224.049V20.5334H228.5V36.5252L237.732 27.9523H243.09L235.095 35.9481L243.832 47.0764H238.392L231.797 38.8332Z" fill="black"/>
<path fill-rule="evenodd" clip-rule="evenodd" d="M258.588 46.0048C258.093 46.4169 257.433 46.7466 256.692 46.9939C255.95 47.2412 255.125 47.3237 254.301 47.3237C252.24 47.3237 250.592 46.7466 249.438 45.675C248.284 44.6034 247.707 42.9548 247.707 40.894V31.7441H244.574V28.1171H247.707V23.7483H252.158V28.1171H257.269V31.6617H252.158V40.7291C252.158 41.6359 252.405 42.3778 252.817 42.8724C253.229 43.367 253.889 43.6142 254.796 43.6142C255.785 43.6142 256.609 43.367 257.269 42.7899L258.588 46.0048Z" fill="black"/>
<path fill-rule="evenodd" clip-rule="evenodd" d="M279.855 27.9524V47.0765H275.568V44.6036C274.826 45.4279 274.002 46.0873 272.931 46.5819C271.859 47.0765 270.705 47.2414 269.468 47.2414C266.913 47.2414 264.935 46.4995 263.451 45.0981C261.967 43.6968 261.225 41.5536 261.225 38.8334V27.9524H265.677V38.2563C265.677 39.9874 266.089 41.2239 266.831 42.1306C267.573 42.9549 268.727 43.3671 270.128 43.3671C271.694 43.3671 273.013 42.8725 273.92 41.8833C274.826 40.8941 275.321 39.4928 275.321 37.5969V27.9524H279.855Z" fill="black"/>
<path fill-rule="evenodd" clip-rule="evenodd" d="M295.846 27.7874V32.0738C295.434 31.9913 295.105 31.9914 294.775 31.9914C293.044 31.9914 291.642 32.4859 290.736 33.4751C289.747 34.4643 289.252 35.9481 289.252 37.844V47.0763H284.801V28.0346H289.087V30.8373C290.324 28.7765 292.549 27.7874 295.846 27.7874Z" fill="black"/>
<path fill-rule="evenodd" clip-rule="evenodd" d="M308.294 43.2846C309.2 42.79 309.777 42.0481 310.107 41.059V38.8333H305.491C302.936 38.8333 301.617 39.6576 301.617 41.3887C301.617 42.213 301.946 42.8724 302.606 43.2846C303.265 43.7792 304.172 44.0265 305.244 44.0265C306.398 44.0265 307.387 43.7792 308.294 43.2846ZM312.333 29.7658C313.817 31.0847 314.558 33.1455 314.558 35.8658V47.0764H310.354V44.7684C309.777 45.5927 309.036 46.2521 308.046 46.6643C307.057 47.0764 305.821 47.3237 304.419 47.3237C303.018 47.3237 301.782 47.0764 300.71 46.5818C299.638 46.0873 298.814 45.4278 298.237 44.5211C297.66 43.6143 297.33 42.7076 297.33 41.5535C297.33 39.8225 297.99 38.5036 299.226 37.4319C300.463 36.3603 302.523 35.8658 305.244 35.8658H310.19V35.6185C310.19 34.2996 309.777 33.2279 308.953 32.5685C308.129 31.8266 306.975 31.4969 305.409 31.4969C304.337 31.4969 303.265 31.6618 302.276 31.9915C301.205 32.3212 300.38 32.8158 299.638 33.3928L297.907 30.178C298.896 29.4361 300.133 28.8591 301.534 28.4469C302.936 28.0348 304.419 27.8699 305.986 27.8699C308.706 27.7875 310.849 28.4469 312.333 29.7658Z" fill="black"/>
<path fill-rule="evenodd" clip-rule="evenodd" d="M195.28 64.0573C195.775 63.6452 195.94 63.1506 195.94 62.4911C195.94 61.8317 195.692 61.2546 195.28 60.9249C194.786 60.5127 194.126 60.3479 193.219 60.2655V64.7992C194.126 64.6343 194.868 64.387 195.28 64.0573ZM189.922 63.9749C190.417 64.387 191.076 64.5519 191.9 64.6343V60.1006C190.087 60.2654 189.18 61.0073 189.18 62.3262C189.263 63.0681 189.428 63.6451 189.922 63.9749ZM196.269 64.8816C195.527 65.4586 194.538 65.7884 193.219 65.8708V66.6951H191.9V65.8708C190.582 65.7884 189.592 65.4586 188.85 64.8816C188.109 64.3046 187.779 63.4803 187.779 62.4911C187.779 61.5019 188.109 60.6776 188.85 60.1006C189.592 59.5236 190.582 59.1939 191.9 59.1114V58.2871H193.219V59.1114C194.538 59.1939 195.527 59.5236 196.269 60.1006C197.011 60.6776 197.341 61.5019 197.341 62.4911C197.341 63.4803 197.011 64.3046 196.269 64.8816Z" fill="#EAA100"/>
<path fill-rule="evenodd" clip-rule="evenodd" d="M204.1 63.3979L202.617 60.0182L201.133 63.3979H204.1ZM204.595 64.5519H200.721L199.979 66.3654H198.495L202.04 58.5344H203.441L206.985 66.3654H205.337L204.595 64.5519Z" fill="#EAA100"/>
<path fill-rule="evenodd" clip-rule="evenodd" d="M212.096 65.2114C212.673 65.2114 213.085 65.1289 213.333 64.8817C213.662 64.6344 213.745 64.3871 213.745 63.9749C213.745 63.1506 213.168 62.7384 212.014 62.7384H210.035V65.2114H212.096ZM208.716 58.5344H214.816V59.6885H210.2V61.5844H212.508C213.415 61.5844 214.157 61.7492 214.652 62.1614C215.146 62.5736 215.393 63.1506 215.393 63.81C215.393 64.5519 215.146 65.2114 214.569 65.6235C214.075 66.0357 213.25 66.283 212.261 66.283H208.716V58.5344Z" fill="#EAA100"/>
<path fill-rule="evenodd" clip-rule="evenodd" d="M222.07 62.4911C222.4 62.2439 222.565 61.8317 222.565 61.3371C222.565 60.8425 222.4 60.4303 222.07 60.1831C221.741 59.9358 221.246 59.7709 220.669 59.7709H218.938V62.9033H220.669C221.246 62.9033 221.741 62.7384 222.07 62.4911ZM222.4 58.8641C222.895 59.1114 223.307 59.4412 223.554 59.8533C223.801 60.2655 223.966 60.7601 223.966 61.3371C223.966 61.9141 223.801 62.4087 223.554 62.8209C223.307 63.233 222.895 63.5627 222.4 63.81C221.906 64.0573 221.328 64.1398 220.669 64.1398H218.938V66.3654H217.454V58.5344H220.669C221.328 58.5344 221.906 58.6169 222.4 58.8641Z" fill="#EAA100"/>
<path fill-rule="evenodd" clip-rule="evenodd" d="M225.945 58.5344H227.428V64.0573L231.632 58.5344H232.951V66.3654H231.55V60.8425L227.346 66.3654H225.945V58.5344Z" fill="#EAA100"/>
<path fill-rule="evenodd" clip-rule="evenodd" d="M238.639 63.0682H237.155V66.3654H235.754V58.5344H237.155V61.8317H238.639L240.865 58.5344H242.431L239.793 62.3263L242.513 66.3654H240.865L238.639 63.0682Z" fill="#EAA100"/>
<path fill-rule="evenodd" clip-rule="evenodd" d="M248.943 63.3979L247.459 60.0182L245.975 63.3979H248.943ZM249.355 64.5519H245.481L244.739 66.3654H243.255L246.8 58.5344H248.201L251.746 66.3654H250.262L249.355 64.5519Z" fill="#EAA100"/>
<path fill-rule="evenodd" clip-rule="evenodd" d="M264.852 62.9858C265.1 63.3155 265.264 63.7277 265.264 64.1398C265.264 64.6344 265.1 65.0466 264.77 65.3763C264.44 65.706 264.028 65.9533 263.533 66.2006C263.039 66.3655 262.462 66.4479 261.885 66.4479C261.39 66.4479 260.813 66.3655 260.319 66.2006C259.824 66.0358 259.329 65.8709 258.835 65.5411L259.329 64.4696C259.659 64.7168 260.071 64.8817 260.483 64.9641C260.896 65.0466 261.308 65.129 261.72 65.129C262.297 65.129 262.792 65.0466 263.204 64.7993C263.616 64.552 263.781 64.2222 263.781 63.8925C263.781 63.5628 263.616 63.3155 263.369 63.1506C263.121 62.9858 262.709 62.9034 262.214 62.9034H260.401V61.7493H262.132C262.544 61.7493 262.874 61.6669 263.121 61.502C263.369 61.3372 263.451 61.0899 263.451 60.7601C263.451 60.4304 263.286 60.1007 262.956 59.9358C262.627 59.771 262.214 59.6061 261.72 59.6061C261.39 59.6061 260.978 59.6885 260.648 59.7709C260.319 59.8534 259.906 60.0182 259.577 60.1831L259.082 59.0291C259.494 58.7818 259.906 58.6169 260.319 58.5345C260.731 58.452 261.225 58.3696 261.637 58.3696C262.214 58.3696 262.709 58.4521 263.204 58.6169C263.698 58.7818 264.11 59.0291 264.358 59.3588C264.687 59.6885 264.77 60.1007 264.77 60.5128C264.77 60.925 264.687 61.2547 264.44 61.502C264.193 61.8317 263.946 61.9966 263.616 62.1615C264.275 62.4087 264.605 62.656 264.852 62.9858Z" fill="#EAA100"/>
<path fill-rule="evenodd" clip-rule="evenodd" d="M272.189 63.3979L270.705 60.0182L269.221 63.3979H272.189ZM272.683 64.5519H268.809L268.067 66.3654H266.583L270.128 58.5344H271.529L275.074 66.3654H273.59L272.683 64.5519Z" fill="#EAA100"/>
<path fill-rule="evenodd" clip-rule="evenodd" d="M278.783 57.6278C278.453 57.3805 278.289 56.9684 278.289 56.3914H279.278C279.278 56.6387 279.36 56.886 279.525 57.0508C279.69 57.2157 279.937 57.2981 280.267 57.2981C280.597 57.2981 280.844 57.2157 281.009 57.0508C281.174 56.886 281.256 56.7211 281.256 56.3914H282.245C282.245 56.8859 282.08 57.2981 281.751 57.6278C281.421 57.8751 280.926 58.04 280.267 58.04C279.608 58.04 279.113 57.8751 278.783 57.6278ZM276.805 58.5346H278.206V64.0575L282.41 58.5346H283.729V66.3656H282.328V60.8427L278.124 66.3656H276.805V58.5346Z" fill="#EAA100"/>
<path fill-rule="evenodd" clip-rule="evenodd" d="M293.703 66.3654V61.1722L291.148 65.4587H290.488L287.933 61.2547V66.3654H286.532V58.5344H287.768L290.818 63.7276L293.868 58.5344H295.105V66.3654H293.703Z" fill="#EAA100"/>
<path fill-rule="evenodd" clip-rule="evenodd" d="M302.853 64.7992C303.265 64.5519 303.595 64.2222 303.842 63.81C304.09 63.3979 304.172 62.9033 304.172 62.4087C304.172 61.9141 304.09 61.4195 303.842 61.0074C303.595 60.5952 303.265 60.2655 302.853 60.0182C302.441 59.7709 301.946 59.6885 301.452 59.6885C300.957 59.6885 300.463 59.7709 300.051 60.0182C299.638 60.2655 299.309 60.5952 299.061 61.0074C298.814 61.4195 298.732 61.9141 298.732 62.4087C298.732 62.9033 298.814 63.3979 299.061 63.81C299.309 64.2222 299.638 64.5519 300.051 64.7992C300.463 65.0465 300.957 65.1289 301.452 65.1289C302.029 65.2114 302.441 65.0465 302.853 64.7992ZM299.309 65.9533C298.649 65.6235 298.155 65.129 297.825 64.5519C297.495 63.9749 297.248 63.233 297.248 62.4911C297.248 61.7493 297.413 61.0898 297.825 60.4304C298.155 59.8533 298.649 59.3587 299.309 59.029C299.968 58.6993 300.628 58.5344 301.452 58.5344C302.276 58.5344 302.936 58.6993 303.595 59.029C304.255 59.3587 304.749 59.8533 305.079 60.4304C305.409 61.0074 305.656 61.7493 305.656 62.4911C305.656 63.233 305.491 63.9749 305.079 64.5519C304.749 65.129 304.172 65.6235 303.595 65.9533C302.936 66.283 302.276 66.4478 301.452 66.4478C300.71 66.4478 299.968 66.283 299.309 65.9533Z" fill="#EAA100"/>
<path fill-rule="evenodd" clip-rule="evenodd" d="M313.075 64.0573C313.075 63.3155 312.58 62.9033 311.508 62.9033H309.283V65.2114H311.508C312.58 65.2114 313.075 64.8817 313.075 64.0573ZM309.365 61.9141H311.261C311.756 61.9141 312.085 61.8317 312.333 61.6668C312.58 61.502 312.663 61.1722 312.663 60.8425C312.663 60.5128 312.58 60.1831 312.333 60.0182C312.085 59.8533 311.756 59.7709 311.261 59.7709H309.365V61.9141ZM314.146 62.9857C314.394 63.3154 314.558 63.7276 314.558 64.2222C314.558 64.8816 314.311 65.4587 313.817 65.7884C313.322 66.2006 312.58 66.3654 311.591 66.3654H307.882V58.5344H311.344C312.25 58.5344 312.91 58.6993 313.404 59.029C313.899 59.3587 314.146 59.8533 314.146 60.5128C314.146 60.9249 314.064 61.2547 313.817 61.5844C313.652 61.9141 313.322 62.079 312.992 62.2438C313.569 62.4087 313.899 62.656 314.146 62.9857Z" fill="#EAA100"/>
<path fill-rule="evenodd" clip-rule="evenodd" d="M26.4605 46.0047V47.1588H30.0051V49.5493H26.4605V50.8682H22.4214V49.5493H20.8552V47.1588H22.4214V35.7832H28.1916C29.9226 35.7832 31.2415 36.1954 32.2307 37.1021C33.2199 37.9264 33.632 39.2453 33.632 40.9764C33.632 42.7075 33.1375 43.9439 32.2307 44.8507C31.2415 45.675 29.9226 46.1696 28.1916 46.1696H26.4605V46.0047ZM28.1091 39.6575H26.4605V42.2129H28.1091C28.6037 42.2129 28.9334 42.1304 29.1807 41.8832C29.428 41.6359 29.5929 41.3886 29.5929 40.894C29.5929 40.4818 29.428 40.1521 29.1807 39.9048C28.9334 39.8223 28.5213 39.6575 28.1091 39.6575Z" fill="url(#paint3_linear)"/>
<defs>
<linearGradient id="paint0_linear" x1="35.1391" y1="56.464" x2="24.6284" y2="39.4286" gradientUnits="userSpaceOnUse">
<stop stop-color="#F0A705"/>
<stop offset="0.430966" stop-color="#F0AA0A"/>
<stop offset="1" stop-color="#FFD845"/>
</linearGradient>
<linearGradient id="paint1_linear" x1="31.5951" y1="50.4588" x2="22.2459" y2="35.8355" gradientUnits="userSpaceOnUse">
<stop stop-color="#EFA403"/>
<stop offset="0.668" stop-color="#F6BD23"/>
<stop offset="1" stop-color="#FFD845"/>
</linearGradient>
<linearGradient id="paint2_linear" x1="23.511" y1="38.7657" x2="33.0932" y2="50.996" gradientUnits="userSpaceOnUse">
<stop stop-color="#F9C82F"/>
<stop offset="1" stop-color="#F9C82F"/>
</linearGradient>
<linearGradient id="paint3_linear" x1="30.2775" y1="47.1011" x2="21.3412" y2="38.0109" gradientUnits="userSpaceOnUse">
<stop stop-color="#F0A705"/>
<stop offset="0.472635" stop-color="#F2AE10"/>
<stop offset="1" stop-color="#FFBA1A"/>
</linearGradient>
</defs>
</svg>
