<svg width="29" height="29" viewBox="0 0 29 29" fill="none" xmlns="http://www.w3.org/2000/svg">
<path d="M22.1704 21.0415L17.3401 16.4041C17.2242 16.4837 17.1118 16.5612 17.0057 16.6349C16.6443 16.8906 16.3509 17.0901 16.1256 17.2331C15.9003 17.3763 15.6006 17.5224 15.2265 17.6715C14.8522 17.8208 14.5034 17.8952 14.1799 17.8952H14.1704H14.1609C13.8374 17.8952 13.4886 17.8208 13.1143 17.6715C12.74 17.5224 12.4403 17.3763 12.2152 17.2331C11.99 17.0901 11.6968 16.8906 11.3351 16.6349C11.2343 16.564 11.1225 16.4861 11.0017 16.4028L6.17041 21.0415C6.45268 21.2814 6.78497 21.4028 7.16818 21.4028H21.1728C21.556 21.4028 21.8881 21.2814 22.1704 21.0415Z" fill="black"/>
<path d="M6.07333 12.4166C5.73373 12.1215 5.43259 11.7835 5.17041 11.4028V20.4028L10.1601 15.4151C9.35984 14.6869 7.33913 13.5378 6.07333 12.4166Z" fill="black"/>
<path d="M22.2765 12.4166C21.0585 13.4907 19.0664 14.6674 18.2139 15.4431L23.1707 20.4028V11.4028" fill="black"/>
<path d="M21.5631 7.40283H6.77747C6.26164 7.40283 5.86506 7.57702 5.58725 7.92502C5.3092 8.27319 5.17041 8.70862 5.17041 9.23081C5.17041 9.6526 5.3546 10.1096 5.72281 10.602C6.09102 11.0942 6.48282 11.4808 6.89803 11.762C7.12565 11.9228 7.81206 12.4 8.95728 13.1934C9.5755 13.6218 10.1131 13.9952 10.5751 14.3174C10.9689 14.5918 11.3085 14.8294 11.5889 15.0266C11.6211 15.0492 11.6717 15.0854 11.7389 15.1335C11.8113 15.1854 11.9029 15.2514 12.0159 15.333C12.2336 15.4904 12.4143 15.6176 12.5583 15.7148C12.7021 15.812 12.8763 15.9206 13.0807 16.0412C13.285 16.1617 13.4776 16.2522 13.6584 16.3124C13.8392 16.3726 14.0066 16.4028 14.1606 16.4028H14.1706H14.1806C14.3345 16.4028 14.5019 16.3726 14.6828 16.3124C14.8635 16.2522 15.056 16.1619 15.2604 16.0412C15.4646 15.9206 15.6386 15.8118 15.7828 15.7148C15.9268 15.6176 16.1076 15.4904 16.3252 15.333C16.438 15.2514 16.5296 15.1854 16.602 15.1336C16.6692 15.0854 16.7198 15.0494 16.7522 15.0266C16.9706 14.8746 17.311 14.638 17.7687 14.3202C18.6015 13.7416 19.8279 12.89 21.4532 11.762C21.942 11.4206 22.3503 11.0086 22.6785 10.5266C23.0062 10.0446 23.1704 9.53904 23.1704 9.01002C23.1704 8.56803 23.0112 8.18983 22.6933 7.87483C22.3752 7.56022 21.9984 7.40283 21.5631 7.40283Z" fill="black"/>
</svg>
