<svg width="79" height="26" viewBox="0 0 79 26" fill="none" xmlns="http://www.w3.org/2000/svg">
<path fill-rule="evenodd" clip-rule="evenodd" d="M1.62457 6.35046C5.41549 -0.224427 12.5827 -0.165193 15.0113 1.2564C17.5583 2.73723 18.4468 5.93583 17.0252 8.36439C15.7221 10.6153 12.9381 11.5037 10.5096 10.4968C10.3319 10.4376 9.56182 9.96369 8.91025 9.72675C7.96252 9.37135 6.42246 9.07519 4.3493 9.54905C0.795305 10.4376 0.0252728 13.0438 0.0252728 13.0438C0.0252728 13.0438 -0.330127 9.72675 1.62457 6.35046Z" fill="#00409E"/>
<path fill-rule="evenodd" clip-rule="evenodd" d="M12.0498 25.4233C4.4679 25.4233 0.973145 19.2038 0.973145 16.4199C0.973145 13.5174 3.28324 11.0889 6.12643 11.0889C8.73269 11.0889 10.8651 13.0436 11.2205 15.6498C11.2205 15.8275 11.2205 16.716 11.339 17.4268C11.5167 18.4338 11.9905 19.9146 13.4714 21.4547C16.0184 24.0609 18.6246 23.4686 18.6246 23.4686C18.6246 23.4686 15.9591 25.4233 12.0498 25.4233Z" fill="#FF1520"/>
<path fill-rule="evenodd" clip-rule="evenodd" d="M23.4818 6.88368C27.2135 13.5178 23.541 19.6188 21.1125 20.9812C18.5654 22.4028 15.3669 21.5735 13.9453 19.1449C12.6421 16.8941 13.2937 14.0509 15.3669 12.4516C15.5446 12.3331 16.3146 11.9185 16.8477 11.4446C17.6177 10.7931 18.6839 9.6084 19.2762 7.59447C20.2832 4.09972 18.447 2.14502 18.447 2.14502C18.447 2.14502 21.5271 3.44815 23.4818 6.88368Z" fill="#C4C4C4"/>
<path d="M43.3289 25.483L43.29 19.2745L40.3359 24.2569H38.3147L35.3606 19.4886V25.483H31.1821V11.8594H34.9525L39.3836 19.1188L43.6982 11.8594H47.4685L47.5074 25.483H43.3289Z" fill="#686D81"/>
<path d="M49.8958 11.8594H54.4046V18.9437L59.0884 11.8594H63.403V25.483H58.8941V18.4182L54.2297 25.483H49.8958V11.8594Z" fill="#686D81"/>
<path d="M72.369 11.8594C73.6258 11.8594 74.7206 12.067 75.6535 12.4822C76.5863 12.8974 77.3054 13.4942 77.8107 14.2727C78.316 15.0512 78.5687 15.9594 78.5687 16.9974C78.5687 18.0354 78.316 18.9437 77.8107 19.7222C77.3054 20.5007 76.5863 21.0975 75.6535 21.5127C74.7206 21.9279 73.6258 22.1355 72.369 22.1355H70.4061V25.483H65.8194V11.8594H72.369ZM72.0775 18.5933C72.6994 18.5933 73.1658 18.4571 73.4768 18.1846C73.7877 17.8992 73.9432 17.5035 73.9432 16.9974C73.9432 16.4914 73.7877 16.1022 73.4768 15.8297C73.1658 15.5442 72.6994 15.4015 72.0775 15.4015H70.4061V18.5933H72.0775Z" fill="#686D81"/>
<path d="M32.3769 3.77878C31.9958 3.77878 31.705 3.67299 31.5045 3.4614C31.3068 3.24687 31.2008 2.95447 31.1864 2.5842C31.1836 2.50485 31.1821 2.37555 31.1821 2.19629C31.1821 2.01409 31.1836 1.88185 31.1864 1.79956C31.2008 1.42929 31.3068 1.13835 31.5045 0.926768C31.705 0.712243 31.9958 0.60498 32.3769 0.60498C32.6319 0.60498 32.8482 0.652 33.0259 0.746038C33.2035 0.837138 33.3368 0.957625 33.4256 1.1075C33.5173 1.25737 33.5674 1.41753 33.576 1.58798C33.576 1.61442 33.566 1.63646 33.5459 1.6541C33.5287 1.66879 33.5072 1.67614 33.4814 1.67614H33.2666C33.2379 1.67614 33.215 1.66879 33.1978 1.6541C33.1806 1.6394 33.1677 1.61442 33.1591 1.57916C33.1104 1.35288 33.0216 1.19419 32.8926 1.10309C32.7666 1.01199 32.5947 0.966441 32.3769 0.966441C31.8784 0.966441 31.6191 1.25149 31.599 1.8216C31.5961 1.90095 31.5947 2.0229 31.5947 2.18747C31.5947 2.35204 31.5961 2.47693 31.599 2.56216C31.6191 3.12933 31.8784 3.41291 32.3769 3.41291C32.5918 3.41291 32.7637 3.36736 32.8926 3.27626C33.0216 3.18516 33.1104 3.02794 33.1591 2.8046C33.1677 2.76933 33.1806 2.74436 33.1978 2.72966C33.215 2.71497 33.2379 2.70762 33.2666 2.70762H33.4814C33.5072 2.70762 33.5287 2.71644 33.5459 2.73407C33.566 2.74876 33.576 2.76933 33.576 2.79578C33.5674 2.96623 33.5173 3.12639 33.4256 3.27626C33.3368 3.42613 33.2035 3.54809 33.0259 3.64213C32.8482 3.73323 32.6319 3.77878 32.3769 3.77878Z" fill="#686D81"/>
<path d="M33.9544 3.7347C33.9314 3.7347 33.9114 3.72588 33.8942 3.70825C33.877 3.69062 33.8684 3.67005 33.8684 3.64654L33.877 3.59805L34.9429 0.746038C34.9658 0.681387 35.0116 0.649061 35.0804 0.649061H35.3554C35.4242 0.649061 35.4701 0.681387 35.493 0.746038L36.5588 3.59805L36.5674 3.64654C36.5674 3.67005 36.5574 3.69062 36.5373 3.70825C36.5201 3.72588 36.5001 3.7347 36.4772 3.7347H36.2752C36.2465 3.7347 36.2222 3.72735 36.2021 3.71266C36.1849 3.69503 36.1735 3.67739 36.1677 3.65976L35.927 3.025H34.5045L34.2681 3.65976C34.2452 3.70972 34.2094 3.7347 34.1607 3.7347H33.9544ZM34.6291 2.65913H35.8067L35.2179 1.07664L34.6291 2.65913Z" fill="#686D81"/>
<path d="M37.1303 3.7347C37.1016 3.7347 37.0773 3.72588 37.0572 3.70825C37.04 3.68768 37.0314 3.6627 37.0314 3.63331V0.754854C37.0314 0.722529 37.04 0.69755 37.0572 0.679917C37.0744 0.659346 37.0988 0.649061 37.1303 0.649061H37.3323C37.3839 0.649061 37.4197 0.671101 37.4397 0.715182L38.3552 2.51808L39.2792 0.715182C39.3021 0.671101 39.3365 0.649061 39.3823 0.649061H39.5843C39.6158 0.649061 39.6402 0.659346 39.6574 0.679917C39.6746 0.69755 39.6832 0.722529 39.6832 0.754854V3.63331C39.6832 3.6627 39.6731 3.68768 39.6531 3.70825C39.6359 3.72588 39.613 3.7347 39.5843 3.7347H39.3866C39.358 3.7347 39.3351 3.72588 39.3179 3.70825C39.3007 3.68768 39.2921 3.6627 39.2921 3.63331V1.44251L38.5572 2.90158C38.5285 2.96329 38.4827 2.99414 38.4196 2.99414H38.2907C38.2305 2.99414 38.1847 2.96329 38.1532 2.90158L37.4225 1.44251V3.63331C37.4225 3.6627 37.4125 3.68768 37.3925 3.70825C37.3753 3.72588 37.3523 3.7347 37.3237 3.7347H37.1303Z" fill="#686D81"/>
<path d="M41.5139 3.77878C41.1414 3.77878 40.8535 3.67886 40.65 3.47903C40.4466 3.27626 40.3392 2.9721 40.3277 2.56656C40.3248 2.4784 40.3234 2.35351 40.3234 2.19188C40.3234 2.03025 40.3248 1.90683 40.3277 1.8216C40.3392 1.42194 40.4495 1.11925 40.6586 0.913544C40.8707 0.707835 41.1557 0.60498 41.5139 0.60498C41.872 0.60498 42.1557 0.707835 42.3649 0.913544C42.574 1.11925 42.6843 1.42194 42.6958 1.8216C42.7015 1.99205 42.7044 2.11547 42.7044 2.19188C42.7044 2.26535 42.7015 2.39024 42.6958 2.56656C42.6843 2.9721 42.5769 3.27626 42.3735 3.47903C42.1729 3.67886 41.8864 3.77878 41.5139 3.77878ZM41.5139 3.41291C41.7431 3.41291 41.9265 3.34238 42.064 3.20132C42.2015 3.05733 42.276 2.83839 42.2875 2.54452C42.2932 2.3682 42.2961 2.25065 42.2961 2.19188C42.2961 2.12723 42.2932 2.00968 42.2875 1.83924C42.276 1.54537 42.2015 1.32643 42.064 1.18244C41.9265 1.03844 41.7431 0.966441 41.5139 0.966441C41.2847 0.966441 41.0999 1.03844 40.9595 1.18244C40.822 1.32643 40.7489 1.54537 40.7403 1.83924C40.7374 1.92446 40.736 2.04201 40.736 2.19188C40.736 2.33881 40.7374 2.45636 40.7403 2.54452C40.7489 2.83839 40.822 3.05733 40.9595 3.20132C41.097 3.34238 41.2818 3.41291 41.5139 3.41291Z" fill="#686D81"/>
<path d="M43.4342 3.7347C43.4055 3.7347 43.3826 3.72588 43.3654 3.70825C43.3482 3.68768 43.3396 3.6627 43.3396 3.63331V0.754854C43.3396 0.722529 43.3482 0.69755 43.3654 0.679917C43.3826 0.659346 43.4055 0.649061 43.4342 0.649061H44.5215C44.8453 0.649061 45.0988 0.729875 45.2822 0.891504C45.4684 1.05019 45.5616 1.28235 45.5616 1.58798C45.5616 1.8936 45.4684 2.12576 45.2822 2.28445C45.0988 2.44314 44.8453 2.52248 44.5215 2.52248H43.7479V3.63331C43.7479 3.6627 43.7379 3.68768 43.7178 3.70825C43.7006 3.72588 43.6777 3.7347 43.6491 3.7347H43.4342ZM44.5 2.16543C44.9327 2.16543 45.149 1.97295 45.149 1.58798C45.149 1.3999 45.0945 1.2559 44.9857 1.15599C44.8797 1.05607 44.7178 1.00611 44.5 1.00611H43.7479V2.16543H44.5Z" fill="#686D81"/>
<path d="M46.1874 3.7347C46.1588 3.7347 46.1359 3.72588 46.1187 3.70825C46.1015 3.68768 46.0929 3.6627 46.0929 3.63331V0.754854C46.0929 0.722529 46.1015 0.69755 46.1187 0.679917C46.1359 0.659346 46.1588 0.649061 46.1874 0.649061H47.9538C47.9853 0.649061 48.0097 0.659346 48.0269 0.679917C48.0469 0.69755 48.057 0.722529 48.057 0.754854V0.913544C48.057 0.942931 48.0469 0.966441 48.0269 0.984073C48.0097 1.00171 47.9853 1.01052 47.9538 1.01052H46.4883V1.99352H47.8593C47.8908 1.99352 47.9151 2.0038 47.9323 2.02437C47.9524 2.04201 47.9624 2.06698 47.9624 2.09931V2.24918C47.9624 2.27857 47.9524 2.30355 47.9323 2.32412C47.9151 2.34175 47.8908 2.35057 47.8593 2.35057H46.4883V3.36883H47.9882C48.0197 3.36883 48.0441 3.37911 48.0613 3.39969C48.0813 3.41732 48.0913 3.4423 48.0913 3.47462V3.63331C48.0913 3.6627 48.0813 3.68768 48.0613 3.70825C48.0412 3.72588 48.0169 3.7347 47.9882 3.7347H46.1874Z" fill="#686D81"/>
<path d="M48.7896 3.7347C48.761 3.7347 48.738 3.72588 48.7208 3.70825C48.7036 3.68768 48.6951 3.6627 48.6951 3.63331V0.754854C48.6951 0.722529 48.7036 0.69755 48.7208 0.679917C48.738 0.659346 48.761 0.649061 48.7896 0.649061H50.44C50.4715 0.649061 50.4958 0.659346 50.513 0.679917C50.5302 0.69755 50.5388 0.722529 50.5388 0.754854V0.917952C50.5388 0.947339 50.5302 0.972318 50.513 0.992889C50.4958 1.01052 50.4715 1.01934 50.44 1.01934H49.099V3.63331C49.099 3.6627 49.089 3.68768 49.069 3.70825C49.0489 3.72588 49.0245 3.7347 48.9959 3.7347H48.7896Z" fill="#686D81"/>
<path d="M52.9906 0.649061C53.0135 0.649061 53.0336 0.657877 53.0508 0.675509C53.068 0.693142 53.0766 0.713713 53.0766 0.737222C53.0766 0.754854 53.0723 0.775425 53.0637 0.798935L52.1869 2.83546C52.0866 3.06761 51.9978 3.2454 51.9205 3.36883C51.846 3.48932 51.7543 3.58042 51.6454 3.64213C51.5394 3.70384 51.4033 3.7347 51.2371 3.7347H51.0652C51.0366 3.7347 51.0136 3.72588 50.9964 3.70825C50.9793 3.68768 50.9707 3.6627 50.9707 3.63331V3.4614C50.9707 3.42907 50.9793 3.40409 50.9964 3.38646C51.0136 3.36589 51.0366 3.35561 51.0652 3.35561H51.2199C51.3317 3.35561 51.4262 3.31887 51.5036 3.2454C51.5809 3.17194 51.6612 3.04851 51.7443 2.87513L50.6268 0.790119C50.6182 0.772486 50.6139 0.756324 50.6139 0.74163C50.6139 0.715182 50.6225 0.693142 50.6397 0.675509C50.6598 0.657877 50.6813 0.649061 50.7042 0.649061H50.932C50.9721 0.649061 51.0065 0.672571 51.0351 0.71959L51.9463 2.41669L52.6683 0.71959C52.6855 0.672571 52.7213 0.649061 52.7757 0.649061H52.9906Z" fill="#686D81"/>
<path d="M55.2757 3.7347C55.247 3.7347 55.2241 3.72588 55.2069 3.70825C55.1897 3.68768 55.1811 3.6627 55.1811 3.63331V1.03256H54.0981V1.75548C54.0981 2.22861 54.0652 2.60624 53.9993 2.88835C53.9334 3.17047 53.8302 3.37765 53.6898 3.50989C53.5523 3.64213 53.3689 3.7156 53.1397 3.73029C53.111 3.73323 53.0867 3.72441 53.0666 3.70384C53.0494 3.68327 53.0408 3.65682 53.0408 3.6245V3.44377C53.0408 3.41732 53.048 3.39528 53.0623 3.37765C53.0795 3.35707 53.1024 3.34532 53.1311 3.34238C53.3173 3.31593 53.4592 3.17488 53.5566 2.91921C53.654 2.6606 53.7027 2.25506 53.7027 1.70259V0.750446C53.7027 0.718121 53.7113 0.693142 53.7285 0.675509C53.7485 0.657877 53.7729 0.649061 53.8016 0.649061H55.482C55.5135 0.649061 55.5379 0.659346 55.555 0.679917C55.5751 0.69755 55.5851 0.722529 55.5851 0.754854V3.63331C55.5851 3.6627 55.5751 3.68768 55.555 3.70825C55.535 3.72588 55.5106 3.7347 55.482 3.7347H55.2757Z" fill="#686D81"/>
<path d="M56.4324 3.7347C56.4038 3.7347 56.3809 3.72588 56.3637 3.70825C56.3465 3.68768 56.3379 3.66123 56.3379 3.6289V0.754854C56.3379 0.722529 56.3465 0.69755 56.3637 0.679917C56.3809 0.659346 56.4052 0.649061 56.4367 0.649061H56.643C56.6717 0.649061 56.6946 0.659346 56.7118 0.679917C56.7318 0.69755 56.7419 0.722529 56.7419 0.754854V3.06027L58.3621 0.710774C58.3851 0.669632 58.4194 0.649061 58.4653 0.649061H58.6673C58.6959 0.649061 58.7189 0.659346 58.736 0.679917C58.7561 0.69755 58.7661 0.722529 58.7661 0.754854V3.63331C58.7661 3.6627 58.7561 3.68768 58.736 3.70825C58.7189 3.72588 58.6959 3.7347 58.6673 3.7347H58.461C58.4323 3.7347 58.408 3.72588 58.3879 3.70825C58.3679 3.68768 58.3578 3.6627 58.3578 3.63331V1.34994L56.7419 3.67299C56.719 3.71413 56.6846 3.7347 56.6387 3.7347H56.4324Z" fill="#686D81"/>
<path d="M59.6138 3.7347C59.5851 3.7347 59.5622 3.72588 59.545 3.70825C59.5278 3.68768 59.5192 3.6627 59.5192 3.63331V0.754854C59.5192 0.722529 59.5278 0.69755 59.545 0.679917C59.5622 0.659346 59.5851 0.649061 59.6138 0.649061H60.7011C61.0249 0.649061 61.2785 0.729875 61.4618 0.891504C61.6481 1.05019 61.7412 1.28235 61.7412 1.58798C61.7412 1.8936 61.6481 2.12576 61.4618 2.28445C61.2785 2.44314 61.0249 2.52248 60.7011 2.52248H59.9275V3.63331C59.9275 3.6627 59.9175 3.68768 59.8975 3.70825C59.8803 3.72588 59.8573 3.7347 59.8287 3.7347H59.6138ZM60.6797 2.16543C61.1123 2.16543 61.3286 1.97295 61.3286 1.58798C61.3286 1.3999 61.2742 1.2559 61.1653 1.15599C61.0593 1.05607 60.8974 1.00611 60.6797 1.00611H59.9275V2.16543H60.6797Z" fill="#686D81"/>
<path d="M64.3269 0.649061C64.3498 0.649061 64.3698 0.657877 64.387 0.675509C64.4042 0.693142 64.4128 0.713713 64.4128 0.737222C64.4128 0.754854 64.4085 0.775425 64.3999 0.798935L63.5232 2.83546C63.4229 3.06761 63.3341 3.2454 63.2567 3.36883C63.1822 3.48932 63.0905 3.58042 62.9816 3.64213C62.8756 3.70384 62.7395 3.7347 62.5734 3.7347H62.4015C62.3728 3.7347 62.3499 3.72588 62.3327 3.70825C62.3155 3.68768 62.3069 3.6627 62.3069 3.63331V3.4614C62.3069 3.42907 62.3155 3.40409 62.3327 3.38646C62.3499 3.36589 62.3728 3.35561 62.4015 3.35561H62.5562C62.6679 3.35561 62.7625 3.31887 62.8398 3.2454C62.9172 3.17194 62.9974 3.04851 63.0805 2.87513L61.9631 0.790119C61.9545 0.772486 61.9502 0.756324 61.9502 0.74163C61.9502 0.715182 61.9588 0.693142 61.976 0.675509C61.996 0.657877 62.0175 0.649061 62.0404 0.649061H62.2682C62.3083 0.649061 62.3427 0.672571 62.3714 0.71959L63.2825 2.41669L64.0045 0.71959C64.0217 0.672571 64.0575 0.649061 64.112 0.649061H64.3269Z" fill="#686D81"/>
<path d="M67.0299 3.77878C66.6345 3.77878 66.3422 3.67005 66.1531 3.45258C65.9669 3.23512 65.8652 2.94566 65.848 2.5842C65.8423 2.4784 65.8394 2.40494 65.8394 2.36379H65.1947V3.63331C65.1947 3.6627 65.1847 3.68768 65.1647 3.70825C65.1446 3.72588 65.1202 3.7347 65.0916 3.7347H64.8853C64.8566 3.7347 64.8337 3.72588 64.8165 3.70825C64.7993 3.68768 64.7907 3.6627 64.7907 3.63331V0.750446C64.7907 0.721059 64.7993 0.69755 64.8165 0.679917C64.8337 0.659346 64.8566 0.649061 64.8853 0.649061H65.0916C65.1231 0.649061 65.1475 0.659346 65.1647 0.679917C65.1847 0.69755 65.1947 0.721059 65.1947 0.750446V1.98029H65.8394C65.8394 1.93915 65.8423 1.87744 65.848 1.79515C65.8681 1.43957 65.9712 1.15305 66.1574 0.935584C66.3465 0.715182 66.6374 0.60498 67.0299 0.60498C67.4253 0.60498 67.7175 0.718121 67.9066 0.944401C68.0986 1.16774 68.2018 1.46014 68.2161 1.8216C68.2218 1.99205 68.2247 2.11547 68.2247 2.19188C68.2247 2.26535 68.2218 2.39024 68.2161 2.56656C68.2018 2.9339 68.1 3.22777 67.9109 3.44817C67.7218 3.66858 67.4282 3.77878 67.0299 3.77878ZM67.0299 3.41291C67.262 3.41291 67.4453 3.34532 67.58 3.21014C67.7175 3.07202 67.792 2.85603 67.8035 2.56216C67.8092 2.38583 67.8121 2.26241 67.8121 2.19188C67.8121 2.11547 67.8092 1.99205 67.8035 1.8216C67.792 1.52773 67.7175 1.31174 67.58 1.17362C67.4425 1.0355 67.2591 0.966441 67.0299 0.966441C66.8007 0.966441 66.6173 1.0355 66.4798 1.17362C66.3422 1.31174 66.2678 1.52773 66.2563 1.8216C66.2534 1.90683 66.252 2.03025 66.252 2.19188C66.252 2.35057 66.2534 2.47399 66.2563 2.56216C66.2678 2.85603 66.3408 3.07202 66.4755 3.21014C66.613 3.34532 66.7978 3.41291 67.0299 3.41291Z" fill="#686D81"/>
<path d="M72.2228 4.35183C72.1941 4.35183 72.1712 4.34154 72.154 4.32097C72.1368 4.30334 72.1282 4.27983 72.1282 4.25044V3.7347H68.9564C68.9278 3.7347 68.9049 3.72588 68.8877 3.70825C68.8705 3.68768 68.8619 3.6627 68.8619 3.63331V0.750446C68.8619 0.721059 68.8705 0.69755 68.8877 0.679917C68.9049 0.659346 68.9278 0.649061 68.9564 0.649061H69.1627C69.1943 0.649061 69.2186 0.659346 69.2358 0.679917C69.2559 0.69755 69.2659 0.721059 69.2659 0.750446V3.3512H70.336V0.750446C70.336 0.721059 70.3446 0.69755 70.3618 0.679917C70.3819 0.659346 70.4062 0.649061 70.4349 0.649061H70.6412C70.6727 0.649061 70.697 0.657877 70.7142 0.675509C70.7314 0.693142 70.74 0.718121 70.74 0.750446V3.3512H71.8145V0.750446C71.8145 0.718121 71.8231 0.693142 71.8403 0.675509C71.8603 0.657877 71.8847 0.649061 71.9133 0.649061H72.1153C72.1468 0.649061 72.1712 0.659346 72.1884 0.679917C72.2084 0.69755 72.2185 0.721059 72.2185 0.750446V3.3512H72.429C72.4577 3.3512 72.4821 3.36148 72.5021 3.38205C72.5222 3.39969 72.5322 3.4232 72.5322 3.45258V4.25044C72.5322 4.27983 72.5222 4.30334 72.5021 4.32097C72.4849 4.34154 72.4606 4.35183 72.429 4.35183H72.2228Z" fill="#686D81"/>
<path d="M72.8484 3.7347C72.8255 3.7347 72.8055 3.72588 72.7883 3.70825C72.7711 3.69062 72.7625 3.67005 72.7625 3.64654L72.7711 3.59805L73.8369 0.746038C73.8599 0.681387 73.9057 0.649061 73.9745 0.649061H74.2495C74.3183 0.649061 74.3641 0.681387 74.3871 0.746038L75.4529 3.59805L75.4615 3.64654C75.4615 3.67005 75.4515 3.69062 75.4314 3.70825C75.4142 3.72588 75.3942 3.7347 75.3712 3.7347H75.1693C75.1406 3.7347 75.1162 3.72735 75.0962 3.71266C75.079 3.69503 75.0675 3.67739 75.0618 3.65976L74.8211 3.025H73.3986L73.1622 3.65976C73.1393 3.70972 73.1035 3.7347 73.0547 3.7347H72.8484ZM73.5232 2.65913H74.7008L74.112 1.07664L73.5232 2.65913Z" fill="#686D81"/>
<path d="M77.9025 0.649061C77.9312 0.649061 77.9541 0.659346 77.9713 0.679917C77.9885 0.69755 77.9971 0.721059 77.9971 0.750446V3.63331C77.9971 3.6627 77.9885 3.68768 77.9713 3.70825C77.9541 3.72588 77.9312 3.7347 77.9025 3.7347H77.6962C77.6676 3.7347 77.6432 3.72588 77.6232 3.70825C77.6031 3.68768 77.5931 3.6627 77.5931 3.63331V2.55775H76.9957L76.3381 3.61568C76.3152 3.65682 76.2923 3.68768 76.2694 3.70825C76.2464 3.72588 76.2135 3.7347 76.1705 3.7347H75.9814C75.9585 3.7347 75.9384 3.72588 75.9212 3.70825C75.904 3.69062 75.8954 3.67005 75.8954 3.64654C75.8954 3.63184 75.8997 3.61568 75.9083 3.59805L76.5788 2.51808C76.3782 2.46812 76.2235 2.36526 76.1146 2.20951C76.0058 2.05376 75.9513 1.8554 75.9513 1.61442C75.9513 1.44398 75.9871 1.28529 76.0588 1.13835C76.1304 0.99142 76.2393 0.873872 76.3854 0.785711C76.5315 0.694611 76.7106 0.649061 76.9226 0.649061H77.9025ZM77.5931 1.00611H76.957C76.7736 1.00611 76.6289 1.06195 76.5229 1.17362C76.4169 1.28529 76.3639 1.43516 76.3639 1.62324C76.3639 2.00527 76.5616 2.19629 76.957 2.19629H77.5931V1.00611Z" fill="#686D81"/>
<path d="M32.3769 9.50925C32.0044 9.50925 31.7165 9.40933 31.5131 9.2095C31.3096 9.00673 31.2022 8.70257 31.1907 8.29703C31.1879 8.20887 31.1864 8.08398 31.1864 7.92235C31.1864 7.76072 31.1879 7.63729 31.1907 7.55207C31.2022 7.15241 31.3125 6.84972 31.5217 6.64401C31.7337 6.4383 32.0188 6.33545 32.3769 6.33545C32.7351 6.33545 33.0187 6.4383 33.2279 6.64401C33.437 6.84972 33.5473 7.15241 33.5588 7.55207C33.5645 7.72252 33.5674 7.84594 33.5674 7.92235C33.5674 7.99582 33.5645 8.12071 33.5588 8.29703C33.5473 8.70257 33.4399 9.00673 33.2365 9.2095C33.0359 9.40933 32.7494 9.50925 32.3769 9.50925ZM32.3769 9.14338C32.6061 9.14338 32.7895 9.07285 32.927 8.93179C33.0646 8.7878 33.1391 8.56886 33.1505 8.27499C33.1562 8.09867 33.1591 7.98112 33.1591 7.92235C33.1591 7.8577 33.1562 7.74015 33.1505 7.5697C33.1391 7.27583 33.0646 7.0569 32.927 6.9129C32.7895 6.76891 32.6061 6.69691 32.3769 6.69691C32.1477 6.69691 31.9629 6.76891 31.8225 6.9129C31.685 7.0569 31.6119 7.27583 31.6033 7.5697C31.6004 7.65493 31.599 7.77247 31.599 7.92235C31.599 8.06928 31.6004 8.18683 31.6033 8.27499C31.6119 8.56886 31.685 8.7878 31.8225 8.93179C31.96 9.07285 32.1448 9.14338 32.3769 9.14338Z" fill="#686D81"/>
<path d="M35.9303 9.46517C35.9017 9.46517 35.8788 9.45635 35.8616 9.43872C35.8444 9.41815 35.8358 9.39317 35.8358 9.36378V6.48532C35.8358 6.453 35.8444 6.42802 35.8616 6.41039C35.8788 6.38981 35.9017 6.37953 35.9303 6.37953H37.0177C37.3414 6.37953 37.595 6.46034 37.7784 6.62197C37.9646 6.78066 38.0577 7.01282 38.0577 7.31844C38.0577 7.62407 37.9646 7.85623 37.7784 8.01492C37.595 8.17361 37.3414 8.25295 37.0177 8.25295H36.2441V9.36378C36.2441 9.39317 36.234 9.41815 36.214 9.43872C36.1968 9.45635 36.1739 9.46517 36.1452 9.46517H35.9303ZM36.9962 7.8959C37.4288 7.8959 37.6452 7.70341 37.6452 7.31844C37.6452 7.13037 37.5907 6.98637 37.4818 6.88646C37.3758 6.78654 37.2139 6.73658 36.9962 6.73658H36.2441V7.8959H36.9962Z" fill="#686D81"/>
<path d="M40.3168 9.46517C40.2881 9.46517 40.2652 9.45635 40.248 9.43872C40.2308 9.41815 40.2222 9.39317 40.2222 9.36378V6.48532C40.2222 6.453 40.2308 6.42802 40.248 6.41039C40.2652 6.38981 40.2881 6.37953 40.3168 6.37953H41.9671C41.9986 6.37953 42.023 6.38981 42.0402 6.41039C42.0574 6.42802 42.066 6.453 42.066 6.48532V6.64842C42.066 6.67781 42.0574 6.70279 42.0402 6.72336C42.023 6.74099 41.9986 6.74981 41.9671 6.74981H40.6262V9.36378C40.6262 9.39317 40.6162 9.41815 40.5961 9.43872C40.5761 9.45635 40.5517 9.46517 40.5231 9.46517H40.3168Z" fill="#686D81"/>
<path d="M43.8903 9.46517C43.8674 9.46517 43.8473 9.45635 43.8301 9.43872C43.8129 9.42109 43.8043 9.40051 43.8043 9.377L43.8129 9.32852L44.8788 6.47651C44.9017 6.41185 44.9476 6.37953 45.0163 6.37953H45.2914C45.3601 6.37953 45.406 6.41185 45.4289 6.47651L46.4948 9.32852L46.5034 9.377C46.5034 9.40051 46.4933 9.42109 46.4733 9.43872C46.4561 9.45635 46.436 9.46517 46.4131 9.46517H46.2111C46.1824 9.46517 46.1581 9.45782 46.138 9.44313C46.1208 9.42549 46.1094 9.40786 46.1037 9.39023L45.863 8.75547H44.4404L44.204 9.39023C44.1811 9.44019 44.1453 9.46517 44.0966 9.46517H43.8903ZM44.5651 8.3896H45.7426L45.1538 6.80711L44.5651 8.3896Z" fill="#686D81"/>
<path d="M48.6951 9.46517C48.6664 9.46517 48.6435 9.45635 48.6263 9.43872C48.6091 9.41815 48.6005 9.39317 48.6005 9.36378V6.48532C48.6005 6.453 48.6091 6.42802 48.6263 6.41039C48.6435 6.38981 48.6664 6.37953 48.6951 6.37953H48.9014C48.9329 6.37953 48.9573 6.38981 48.9744 6.41039C48.9945 6.42802 49.0045 6.453 49.0045 6.48532V7.71076H50.5002V6.48532C50.5002 6.453 50.5087 6.42802 50.5259 6.41039C50.546 6.38981 50.5704 6.37953 50.599 6.37953H50.8053C50.8368 6.37953 50.8612 6.38981 50.8784 6.41039C50.8984 6.42802 50.9084 6.453 50.9084 6.48532V9.36378C50.9084 9.39317 50.8984 9.41815 50.8784 9.43872C50.8583 9.45635 50.8339 9.46517 50.8053 9.46517H50.599C50.5704 9.46517 50.546 9.45635 50.5259 9.43872C50.5087 9.41815 50.5002 9.39317 50.5002 9.36378V8.09426H49.0045V9.36378C49.0045 9.39317 48.9945 9.41815 48.9744 9.43872C48.9544 9.45635 48.93 9.46517 48.9014 9.46517H48.6951Z" fill="#686D81"/>
<path d="M53.3879 9.46517C53.3592 9.46517 53.3363 9.45635 53.3191 9.43872C53.3019 9.41815 53.2933 9.3917 53.2933 9.35937V6.48532C53.2933 6.453 53.3019 6.42802 53.3191 6.41039C53.3363 6.38981 53.3607 6.37953 53.3922 6.37953H53.5985C53.6271 6.37953 53.6501 6.38981 53.6672 6.41039C53.6873 6.42802 53.6973 6.453 53.6973 6.48532V8.79073L55.3176 6.44124C55.3405 6.4001 55.3749 6.37953 55.4207 6.37953H55.6227C55.6514 6.37953 55.6743 6.38981 55.6915 6.41039C55.7116 6.42802 55.7216 6.453 55.7216 6.48532V9.36378C55.7216 9.39317 55.7116 9.41815 55.6915 9.43872C55.6743 9.45635 55.6514 9.46517 55.6227 9.46517H55.4164C55.3878 9.46517 55.3634 9.45635 55.3434 9.43872C55.3233 9.41815 55.3133 9.39317 55.3133 9.36378V7.08041L53.6973 9.40345C53.6744 9.4446 53.64 9.46517 53.5942 9.46517H53.3879Z" fill="#686D81"/>
<path d="M59.0061 9.50925C58.7826 9.50925 58.5892 9.47545 58.4259 9.40786C58.2654 9.33733 58.1408 9.24329 58.052 9.12575C57.9632 9.0082 57.9116 8.87596 57.8973 8.72902V8.72021C57.8973 8.6967 57.9059 8.67759 57.9231 8.6629C57.9403 8.64821 57.9617 8.64086 57.9875 8.64086H58.1852C58.2167 8.64086 58.2425 8.64821 58.2626 8.6629C58.2826 8.67466 58.2984 8.69963 58.3099 8.73784C58.3442 8.8642 58.4202 8.96412 58.5376 9.03759C58.658 9.11105 58.8127 9.14779 59.0018 9.14779C59.2081 9.14779 59.3814 9.09783 59.5218 8.99791C59.6651 8.89506 59.7367 8.75988 59.7367 8.59237C59.7367 8.41899 59.6751 8.28381 59.5519 8.18683C59.4287 8.08985 59.2611 8.04137 59.0491 8.04137H58.7396C58.711 8.04137 58.6881 8.03255 58.6709 8.01492C58.6537 7.99435 58.6451 7.9679 58.6451 7.93557V7.79451C58.6451 7.76219 58.6537 7.73721 58.6709 7.71958C58.6881 7.69901 58.711 7.68872 58.7396 7.68872H59.0319C59.2181 7.68872 59.3657 7.64758 59.4746 7.5653C59.5834 7.48007 59.6379 7.35224 59.6379 7.1818C59.6379 7.0378 59.5777 6.92172 59.4574 6.83356C59.337 6.74246 59.1895 6.69691 59.0147 6.69691C58.8313 6.69691 58.6809 6.7307 58.5634 6.79829C58.446 6.86588 58.3729 6.97168 58.3442 7.11567C58.3299 7.17445 58.2955 7.20384 58.2411 7.20384H58.0305C58.0047 7.20384 57.9818 7.19502 57.9617 7.17739C57.9417 7.15975 57.9331 7.13771 57.936 7.11127C57.9589 6.87617 58.062 6.68809 58.2454 6.54704C58.4316 6.40598 58.6895 6.33545 59.019 6.33545C59.2367 6.33545 59.423 6.37365 59.5777 6.45006C59.7324 6.52646 59.8485 6.62785 59.9258 6.75421C60.0061 6.88058 60.0462 7.01576 60.0462 7.15976C60.0462 7.30375 60.0189 7.43599 59.9645 7.55648C59.9101 7.67403 59.8227 7.76954 59.7023 7.843C59.8513 7.91941 59.9631 8.02373 60.0376 8.15597C60.1121 8.28528 60.1493 8.43368 60.1493 8.60119C60.1493 8.78045 60.102 8.93914 60.0075 9.07726C59.9158 9.21244 59.7826 9.31823 59.6078 9.39464C59.4359 9.47104 59.2353 9.50925 59.0061 9.50925Z" fill="#686D81"/>
<path d="M62.1915 9.46517C62.1685 9.46517 62.1485 9.45635 62.1313 9.43872C62.1141 9.42109 62.1055 9.40051 62.1055 9.377L62.1141 9.32852L63.18 6.47651C63.2029 6.41185 63.2487 6.37953 63.3175 6.37953H63.5925C63.6613 6.37953 63.7071 6.41185 63.7301 6.47651L64.7959 9.32852L64.8045 9.377C64.8045 9.40051 64.7945 9.42109 64.7744 9.43872C64.7572 9.45635 64.7372 9.46517 64.7143 9.46517H64.5123C64.4836 9.46517 64.4593 9.45782 64.4392 9.44313C64.422 9.42549 64.4105 9.40786 64.4048 9.39023L64.1641 8.75547H62.7416L62.5052 9.39023C62.4823 9.44019 62.4465 9.46517 62.3978 9.46517H62.1915ZM62.8662 8.3896H64.0438L63.455 6.80711L62.8662 8.3896Z" fill="#686D81"/>
<path d="M69.2139 10.0823C69.1853 10.0823 69.1609 10.072 69.1408 10.0514C69.1236 10.0338 69.1151 10.0103 69.1151 9.98091V9.46517H66.9963C66.9676 9.46517 66.9447 9.45635 66.9275 9.43872C66.9103 9.41815 66.9017 9.3917 66.9017 9.35937V6.48091C66.9017 6.45153 66.9103 6.42802 66.9275 6.41039C66.9447 6.38981 66.9676 6.37953 66.9963 6.37953H67.2025C67.2341 6.37953 67.2584 6.38981 67.2756 6.41039C67.2957 6.42802 67.3057 6.45153 67.3057 6.48091V9.08167H68.8013V6.48091C68.8013 6.45153 68.8099 6.42802 68.8271 6.41039C68.8472 6.38981 68.8715 6.37953 68.9002 6.37953H69.1065C69.138 6.37953 69.1623 6.38981 69.1795 6.41039C69.1996 6.42802 69.2096 6.45153 69.2096 6.48091V9.08167H69.4202C69.4488 9.08167 69.4718 9.09195 69.489 9.11252C69.509 9.13015 69.519 9.15366 69.519 9.18305V9.98091C69.519 10.0132 69.5104 10.0382 69.4933 10.0558C69.4761 10.0735 69.4517 10.0823 69.4202 10.0823H69.2139Z" fill="#686D81"/>
<path d="M71.7772 9.46517C71.7485 9.46517 71.7256 9.45635 71.7084 9.43872C71.6912 9.41815 71.6826 9.3917 71.6826 9.35937V6.48532C71.6826 6.453 71.6912 6.42802 71.7084 6.41039C71.7256 6.38981 71.75 6.37953 71.7815 6.37953H71.9878C72.0164 6.37953 72.0394 6.38981 72.0565 6.41039C72.0766 6.42802 72.0866 6.453 72.0866 6.48532V8.79073L73.7069 6.44124C73.7298 6.4001 73.7642 6.37953 73.81 6.37953H74.012C74.0407 6.37953 74.0636 6.38981 74.0808 6.41039C74.1009 6.42802 74.1109 6.453 74.1109 6.48532V9.36378C74.1109 9.39317 74.1009 9.41815 74.0808 9.43872C74.0636 9.45635 74.0407 9.46517 74.012 9.46517H73.8057C73.7771 9.46517 73.7527 9.45635 73.7327 9.43872C73.7126 9.41815 73.7026 9.39317 73.7026 9.36378V7.08041L72.0866 9.40345C72.0637 9.4446 72.0293 9.46517 71.9835 9.46517H71.7772Z" fill="#686D81"/>
<path d="M78.4741 6.37953C78.5028 6.37953 78.5257 6.38981 78.5429 6.41039C78.5601 6.42802 78.5687 6.45153 78.5687 6.48091V9.36378C78.5687 9.39317 78.5601 9.41815 78.5429 9.43872C78.5257 9.45635 78.5028 9.46517 78.4741 9.46517H78.2679C78.2392 9.46517 78.2148 9.45635 78.1948 9.43872C78.1747 9.41815 78.1647 9.39317 78.1647 9.36378V8.28822H77.5673L76.9098 9.34615C76.8868 9.38729 76.8639 9.41815 76.841 9.43872C76.8181 9.45635 76.7851 9.46517 76.7421 9.46517H76.553C76.5301 9.46517 76.5101 9.45635 76.4929 9.43872C76.4757 9.42109 76.4671 9.40051 76.4671 9.377C76.4671 9.36231 76.4714 9.34615 76.48 9.32852L77.1504 8.24854C76.9499 8.19859 76.7951 8.09573 76.6863 7.93998C76.5774 7.78423 76.5229 7.58587 76.5229 7.34489C76.5229 7.17445 76.5588 7.01576 76.6304 6.86882C76.702 6.72189 76.8109 6.60434 76.957 6.51618C77.1032 6.42508 77.2822 6.37953 77.4943 6.37953H78.4741ZM78.1647 6.73658H77.5286C77.3453 6.73658 77.2006 6.79242 77.0946 6.90409C76.9885 7.01576 76.9355 7.16563 76.9355 7.35371C76.9355 7.73574 77.1332 7.92676 77.5286 7.92676H78.1647V6.73658Z" fill="#686D81"/>
</svg>
