<svg width="41" height="41" viewBox="0 0 41 41" fill="none" xmlns="http://www.w3.org/2000/svg">
<ellipse cx="25.3167" cy="15.9687" rx="15" ry="15.0066" fill="#FFCD1A"/>
<path d="M2 29.9749H30V31.9758H2V29.9749Z" fill="black" stroke="black" stroke-width="0.5"/>
<path d="M2 33.9767H30V35.9776H2V33.9767Z" fill="black" stroke="black" stroke-width="0.5"/>
<path d="M24 17.9696C23.6044 17.9696 23.2178 18.087 22.8889 18.3068C22.56 18.5267 22.3036 18.8392 22.1522 19.2048C22.0009 19.5704 21.9613 19.9727 22.0384 20.3608C22.1156 20.749 22.3061 21.1055 22.5858 21.3853C22.8655 21.6652 23.2219 21.8557 23.6098 21.9329C23.9978 22.0101 24.3999 21.9705 24.7654 21.8191C25.1308 21.6676 25.4432 21.4112 25.6629 21.0821C25.8827 20.7531 26 20.3662 26 19.9705C26 19.4398 25.7893 18.9309 25.4142 18.5556C25.0391 18.1804 24.5304 17.9696 24 17.9696Z" fill="black" stroke="black" stroke-width="0.5"/>
<path d="M16 23.9723C15.2089 23.9723 14.4355 23.7376 13.7777 23.2979C13.1199 22.8581 12.6072 22.2332 12.3045 21.5019C12.0017 20.7707 11.9225 19.9661 12.0769 19.1898C12.2312 18.4135 12.6122 17.7005 13.1716 17.1408C13.731 16.5812 14.4437 16.2001 15.2196 16.0456C15.9956 15.8912 16.7998 15.9705 17.5307 16.2734C18.2616 16.5763 18.8864 17.0892 19.3259 17.7473C19.7654 18.4053 20 19.179 20 19.9705C19.9987 21.0314 19.5768 22.0485 18.827 22.7987C18.0771 23.5489 17.0605 23.971 16 23.9723V23.9723ZM16 17.9696C15.6044 17.9696 15.2178 18.087 14.8889 18.3068C14.56 18.5267 14.3036 18.8392 14.1522 19.2048C14.0009 19.5704 13.9613 19.9727 14.0384 20.3609C14.1156 20.749 14.3061 21.1055 14.5858 21.3854C14.8655 21.6652 15.2219 21.8557 15.6098 21.933C15.9978 22.0102 16.3999 21.9705 16.7654 21.8191C17.1308 21.6676 17.4432 21.4112 17.6629 21.0821C17.8827 20.7531 18 20.3663 18 19.9705C17.9995 19.44 17.7886 18.9314 17.4136 18.5563C17.0387 18.1811 16.5303 17.9702 16 17.9696Z" fill="black" stroke="black" stroke-width="0.5"/>
<path d="M8 17.9696C7.60444 17.9696 7.21776 18.087 6.88886 18.3068C6.55996 18.5267 6.30362 18.8392 6.15224 19.2048C6.00087 19.5704 5.96126 19.9727 6.03843 20.3608C6.1156 20.749 6.30608 21.1055 6.58579 21.3853C6.86549 21.6652 7.22186 21.8557 7.60982 21.9329C7.99778 22.0101 8.39991 21.9705 8.76537 21.8191C9.13082 21.6676 9.44318 21.4112 9.66294 21.0821C9.8827 20.7531 10 20.3662 10 19.9705C10 19.4398 9.78929 18.9309 9.41421 18.5556C9.03914 18.1804 8.53043 17.9696 8 17.9696Z" fill="black" stroke="black" stroke-width="0.5"/>
<path d="M28 27.974H4C3.46997 27.9727 2.96203 27.7615 2.58724 27.3865C2.21246 27.0116 2.00132 26.5034 2 25.9732V13.9679C2.00132 13.4376 2.21246 12.9294 2.58724 12.5545C2.96203 12.1795 3.46997 11.9683 4 11.967H28C28.53 11.9683 29.038 12.1795 29.4128 12.5545C29.7875 12.9294 29.9987 13.4376 30 13.9679V25.9732C29.9992 26.5036 29.7882 27.0121 29.4133 27.3871C29.0384 27.7622 28.5302 27.9732 28 27.974V27.974ZM28 13.9679H4V25.9732H28V13.9679Z" fill="black" stroke="black" stroke-width="0.5"/>
</svg>
