<svg width="40" height="33" viewBox="0 0 40 33" fill="none" xmlns="http://www.w3.org/2000/svg">
<ellipse cx="24.2407" cy="16.002" rx="15" ry="15.0066" fill="#FFCD1A"/>
<path d="M21.2504 20.4457C24.0466 20.4457 26.3333 17.8606 26.5524 14.8198L15.9484 14.8185C16.1638 17.8623 18.4553 20.4457 21.2504 20.4457ZM26.5524 14.8196C26.7898 11.5301 24.4157 9.0498 21.2504 9.0498C19.703 9.0498 18.3066 9.63349 17.3259 10.6796C16.3428 11.7284 15.8325 13.183 15.9484 14.8184L26.5524 14.8196Z" stroke="black" stroke-width="2" stroke-linecap="round" stroke-linejoin="round"/>
<path d="M21.2504 22.6217C16.7368 22.6217 12.0945 24.8811 10.9183 29.6053L10.9183 29.6056C10.6602 30.6415 11.3075 31.9296 12.653 31.9296H29.8484C31.1972 31.9296 31.8367 30.6388 31.5841 29.6092C30.408 24.8091 25.7555 22.6217 21.2504 22.6217Z" stroke="black" stroke-width="2" stroke-miterlimit="10"/>
<path d="M13.3778 15.9901C13.5751 13.2501 11.5726 11.1377 8.9237 11.1377C6.28138 11.1377 4.27253 13.2028 4.4695 15.9888L4.4695 15.9888C4.64666 18.4925 6.55529 20.7066 8.9237 20.7066C11.2931 20.7066 13.1977 18.4908 13.3778 15.9901ZM13.3778 15.9901L12.3804 15.9182L13.3778 15.9901Z" stroke="black" stroke-width="2" stroke-linecap="round" stroke-linejoin="round"/>
<mask id="path-5-outside-1" maskUnits="userSpaceOnUse" x="0.0206299" y="21.005" width="16" height="10" fill="black">
<rect fill="white" x="0.0206299" y="21.005" width="16" height="10"/>
<path d="M13.3697 23.7521C12.1924 23.2125 10.8958 23.005 9.52164 23.005C6.13017 23.005 2.86261 24.6917 2.0441 27.977C1.93648 28.4116 2.2091 28.8416 2.65521 28.8416H9.97819"/>
</mask>
<path d="M12.5363 25.5702C13.5404 26.0305 14.7275 25.5896 15.1878 24.5855C15.648 23.5814 15.2071 22.3943 14.203 21.934L12.5363 25.5702ZM2.0441 27.977L0.103418 27.4935L0.102736 27.4963L2.0441 27.977ZM9.97819 30.8416C11.0828 30.8416 11.9782 29.9461 11.9782 28.8416C11.9782 27.737 11.0828 26.8416 9.97819 26.8416V30.8416ZM14.203 21.934C12.692 21.2414 11.0915 21.005 9.52164 21.005V25.005C10.7002 25.005 11.6929 25.1836 12.5363 25.5702L14.203 21.934ZM9.52164 21.005C5.60391 21.005 1.22642 22.9861 0.10342 27.4935L3.98477 28.4605C4.49881 26.3973 6.65643 25.005 9.52164 25.005V21.005ZM0.102736 27.4963C-0.247896 28.9122 0.635787 30.8416 2.65521 30.8416V26.8416C3.12943 26.8416 3.55262 27.0913 3.79381 27.4446C4.01797 27.773 4.06271 28.1458 3.98545 28.4578L0.102736 27.4963ZM2.65521 30.8416H9.97819V26.8416H2.65521V30.8416Z" fill="black" mask="url(#path-5-outside-1)"/>
</svg>
