<svg width="71" height="71" viewBox="0 0 71 71" fill="none" xmlns="http://www.w3.org/2000/svg">
<path fill-rule="evenodd" clip-rule="evenodd" d="M26.5124 52.5352C22.2362 50.2802 18.7807 46.4492 17.0998 41.5116C13.9134 32.1512 18.2066 22.0503 26.7813 17.7089C27.1213 17.5357 27.4671 17.3721 27.8183 17.2186C27.9214 17.1675 28.0284 17.1217 28.1391 17.0817C29.9661 16.3213 31.933 15.8294 33.9904 15.6551C34.1377 15.6333 34.2885 15.6221 34.4419 15.6221H34.4419C36.1339 15.6221 37.5055 16.9937 37.5055 18.6857C37.5055 20.3777 36.1339 21.7494 34.4419 21.7494V21.7666C32.9341 21.9024 31.4978 22.2866 30.1744 22.8778L30.1748 22.879C30.0113 22.9516 29.8498 23.0272 29.6905 23.1057C25.2441 25.3087 22.1871 29.8932 22.1871 35.1917C22.1871 39.1136 23.862 42.6443 26.5354 45.1076C25.7262 43.9605 25.2508 42.5609 25.2508 41.0503C25.2508 37.1587 28.4056 34.0039 32.2972 34.0039C36.1889 34.0039 39.3437 37.1587 39.3437 41.0503C39.3437 44.9419 36.1889 48.0967 32.2972 48.0967C32.0857 48.0967 31.8763 48.0874 31.6696 48.0692C32.9327 48.4608 34.2753 48.6718 35.6672 48.6718C36.4545 48.6718 37.226 48.6043 37.9763 48.4748C38.6548 48.3557 39.3328 48.1829 40.0053 47.954C41.2499 47.5303 42.3923 46.9426 43.4164 46.2232C43.972 45.8322 44.4967 45.4003 44.9861 44.9319C48.5034 41.5598 50.0407 36.408 48.6172 31.4697L48.6319 31.4647L48.6318 31.4645C48.0866 29.8628 48.943 28.1223 50.5447 27.577C52.1465 27.0318 53.887 27.8882 54.4323 29.49C54.4785 29.6257 54.5146 29.7625 54.5411 29.8995C55.0795 31.8132 55.313 33.7478 55.2687 35.6485C55.2727 35.7125 55.2747 35.7771 55.2747 35.8422C55.2747 35.9853 55.2649 36.1261 55.2459 36.264C54.9916 40.9835 53.0683 45.2594 50.0557 48.512C47.1736 51.6238 43.2945 53.7989 38.9261 54.5296C36.1194 55.0071 33.3095 54.8545 30.6667 54.1558C29.2086 53.7724 27.8169 53.2252 26.5124 52.5352ZM44.2454 26.6512C46.6142 26.6512 48.5345 24.7309 48.5345 22.362C48.5345 19.9932 46.6142 18.0729 44.2454 18.0729C41.8766 18.0729 39.9563 19.9932 39.9563 22.362C39.9563 24.7309 41.8766 26.6512 44.2454 26.6512Z" fill="black"/>
</svg>
