<svg width="71" height="71" viewBox="0 0 71 71" fill="none" xmlns="http://www.w3.org/2000/svg">
<path fill-rule="evenodd" clip-rule="evenodd" d="M51.4047 36.8223C50.5185 44.8411 43.7198 51.0783 35.4645 51.0783C26.6066 51.0783 19.4266 43.8979 19.4266 35.0408C19.4266 26.1833 26.6066 19.0023 35.4645 19.0023C43.7196 19.0023 50.518 25.2397 51.4046 33.2583H28.9306V36.8223H51.4047ZM40.8106 26.1298C40.8106 24.8181 39.7467 23.7544 38.4343 23.7544C37.1224 23.7544 36.0586 24.8181 36.0586 26.1298C36.0586 27.4427 37.1224 28.5064 38.4343 28.5064C39.7467 28.5064 40.8106 27.4427 40.8106 26.1298Z" fill="black"/>
<path fill-rule="evenodd" clip-rule="evenodd" d="M14.6748 35.04C14.6748 46.5219 23.9828 55.8299 35.4648 55.8299C46.9468 55.8299 56.2547 46.5219 56.2547 35.04C56.2547 23.558 46.9468 14.25 35.4648 14.25C23.9828 14.25 14.6748 23.558 14.6748 35.04ZM55.0668 35.0399C55.0668 45.8657 46.2907 54.6418 35.4648 54.6418C24.6389 54.6418 15.8628 45.8657 15.8628 35.0399C15.8628 24.214 24.6389 15.4379 35.4648 15.4379C46.2907 15.4379 55.0668 24.214 55.0668 35.0399Z" fill="black"/>
</svg>
