<svg width="24" height="27" viewBox="0 0 24 27" fill="none" xmlns="http://www.w3.org/2000/svg">
<path fill-rule="evenodd" clip-rule="evenodd" d="M23.1934 6.70391L17.0434 0.516406L16.3871 0.253906H1.91211L0.974609 1.19141V11.5039H2.84961V2.12891H14.0996V8.69141L15.0371 9.62891H21.5996V11.5039H23.4746V7.37891L23.1934 6.70391ZM15.9746 7.75391V2.12891L21.5996 7.75391H15.9746ZM1.91211 13.3789L0.974609 14.3164V25.5664L1.91211 26.5039H22.5371L23.4746 25.5664V14.3164L22.5371 13.3789H1.91211ZM21.5996 22.7539V24.6289H2.84961V15.2539H21.5996V22.7539ZM6.59961 20.8789H5.99961V22.7539H4.72461V17.1289H6.71211C8.11836 17.1289 8.83086 17.8039 8.83086 19.0039C8.83449 19.2589 8.78272 19.5117 8.67913 19.7448C8.57554 19.9779 8.4226 20.1857 8.23086 20.3539C7.7662 20.7161 7.1883 20.9021 6.59961 20.8789ZM6.48711 18.1602H5.99961V19.9039H6.48711C7.16211 19.9039 7.49961 19.6039 7.49961 19.0227C7.49961 18.4414 7.16211 18.1602 6.48711 18.1602ZM14.0996 21.9664C14.3765 21.6937 14.5931 21.3658 14.7352 21.004C14.8773 20.6423 14.9418 20.2547 14.9246 19.8664C14.9246 17.9914 13.9309 17.1289 11.9246 17.1289H9.93711V22.7539H11.9246C12.3212 22.7731 12.7177 22.7134 13.0911 22.5782C13.4644 22.443 13.8072 22.2351 14.0996 21.9664ZM11.1934 21.7227V18.1602H11.8121C12.0513 18.145 12.291 18.1787 12.5167 18.2593C12.7423 18.3399 12.9492 18.4657 13.1246 18.6289C13.2835 18.7958 13.407 18.9931 13.4876 19.2091C13.5681 19.425 13.6041 19.655 13.5934 19.8852C13.6214 20.3794 13.4529 20.8647 13.1246 21.2352C12.953 21.3994 12.7499 21.5273 12.5275 21.6111C12.3052 21.6948 12.0682 21.7328 11.8309 21.7227H11.1934ZM19.5371 20.5789H17.7184V22.7539H16.4434V17.1289H19.7059V18.1602H17.7184V19.5477H19.5371V20.5789Z" fill="black"/>
</svg>
