<svg width="121" height="81" viewBox="0 0 121 81" fill="none" xmlns="http://www.w3.org/2000/svg">
<path d="M17.0485 35.3302C17.0485 34.1782 17.0485 33.0622 17.0485 31.9102C19.3357 31.9102 21.6228 31.9102 23.91 31.9102C23.91 33.0622 23.91 34.1782 23.91 35.3302C21.6586 35.3302 19.3714 35.3302 17.0485 35.3302ZM80.1241 31.9102C81.2677 31.9102 82.3756 31.9102 83.5191 31.9102C83.5191 32.9182 83.5191 33.9622 83.5191 34.9702C82.3756 34.9702 81.2677 34.9702 80.1241 34.9702C80.1241 33.9622 80.1241 32.9182 80.1241 31.9102Z" fill="black"/>
<path d="M17.0485 35.3302C17.0485 34.1782 17.0485 33.0622 17.0485 31.9102C19.3357 31.9102 21.6228 31.9102 23.91 31.9102C23.91 33.0622 23.91 34.1782 23.91 35.3302C21.6586 35.3302 19.3714 35.3302 17.0485 35.3302ZM80.1241 31.9102C81.2677 31.9102 82.3756 31.9102 83.5191 31.9102C83.5191 32.9182 83.5191 33.9622 83.5191 34.9702C82.3756 34.9702 81.2677 34.9702 80.1241 34.9702C80.1241 33.9622 80.1241 32.9182 80.1241 31.9102Z" fill="black"/>
<path d="M25.3752 31.9102C26.5187 31.9102 27.6266 31.9102 28.7702 31.9102C28.7702 33.3862 28.7702 34.8622 28.7702 36.3022C30.8072 36.4462 32.8799 36.0142 34.8454 36.5542C38.4906 38.1742 39.0981 43.3942 37.0254 46.4902C36.2392 47.7502 34.8454 48.6862 33.3088 48.6142C30.6642 48.6142 28.0197 48.6142 25.3752 48.6142C25.3752 43.0702 25.3752 37.4902 25.3752 31.9102ZM28.7702 38.9302C28.7702 41.2702 28.7702 43.6102 28.7702 45.9502C30.1639 45.8782 31.6291 46.2022 32.9514 45.6982C35.31 44.3302 35.1671 40.2982 32.6655 39.1462C31.4147 38.7862 30.0567 38.9662 28.7702 38.9302ZM65.9366 31.9102C67.0801 31.9102 68.188 31.9102 69.3316 31.9102V48.6502C68.188 48.6502 67.0801 48.6502 65.9366 48.6502C65.9366 43.0702 65.9366 37.4902 65.9366 31.9102ZM71.0469 40.5142C72.1905 39.1102 73.3341 37.6342 74.4777 36.2302C76.0501 36.2302 77.6225 36.2302 79.2307 36.2302C77.4081 38.3542 75.514 40.4062 73.7272 42.5302C75.5855 44.5462 77.4081 46.5982 79.2664 48.6142C77.6583 48.6142 76.0501 48.6142 74.4419 48.6142C73.1554 47.1022 71.9046 45.5902 70.5824 44.1142C69.0814 42.5302 69.8319 42.0622 71.0469 40.5142ZM39.9201 36.3382C42.4931 36.3742 45.0662 36.3022 47.6393 36.3742C49.5691 36.4102 51.3559 37.9582 51.4988 39.9382C51.749 42.8902 51.5346 45.8422 51.6061 48.7942C48.4969 48.7582 45.3878 48.8662 42.2787 48.7582C39.9558 48.6142 38.4906 46.0222 39.2768 43.8622C39.6342 42.5302 40.8492 41.4142 42.243 41.3782C44.2443 41.2342 46.2455 41.4142 48.2468 41.3062C48.1753 40.3702 47.675 39.1102 46.5314 39.1822C44.3157 39.1462 42.1 39.1822 39.8844 39.1462C39.9201 38.1742 39.9201 37.2382 39.9201 36.3382ZM43.3866 45.9502C44.9233 46.3102 46.5672 46.0582 48.1396 46.1302C48.1396 45.3382 48.1396 44.5822 48.1396 43.7902C46.6386 43.8262 45.1734 43.7182 43.6725 43.8262C42.5646 43.9342 42.3145 45.5902 43.3866 45.9502ZM53.0713 36.3382C55.6801 36.3382 58.2889 36.3022 60.8619 36.3382C61.9698 36.3382 63.1133 36.7702 63.7566 37.7422C64.5428 38.7502 64.6143 40.1182 64.6143 41.3422C64.6143 43.7902 64.6143 46.2022 64.6143 48.6502H61.2193C61.1835 45.9862 61.255 43.2862 61.1835 40.6222C61.1835 39.8662 60.5045 39.2902 59.8255 39.1822C58.7177 39.0742 57.6099 39.1462 56.502 39.1462C56.502 42.3142 56.502 45.4822 56.502 48.6862C55.3584 48.6862 54.2506 48.6862 53.107 48.6862C53.0713 44.5462 53.0713 40.4422 53.0713 36.3382ZM80.1241 36.3382C81.2677 36.3382 82.4113 36.3382 83.5548 36.3742C83.4834 40.4782 83.5548 44.5822 83.5191 48.6862H80.1241C80.1241 44.5462 80.1241 40.4422 80.1241 36.3382ZM89.5229 40.2622C89.4872 38.5702 90.5235 36.7702 92.2747 36.4462C93.99 36.1942 95.7411 36.3742 97.4565 36.3382C97.4565 37.2742 97.4565 38.2102 97.4565 39.1462C95.9913 39.3262 93.6327 38.4982 92.9536 40.2982C92.8464 43.0702 92.9537 45.8782 92.9179 48.6862C91.8101 48.6862 90.6665 48.6862 89.5586 48.7222C89.4514 45.8782 89.5229 43.0702 89.5229 40.2622ZM98.8145 36.3382C99.9581 36.3382 101.066 36.3382 102.21 36.3382C102.21 38.9662 102.174 41.5942 102.21 44.2222C102.102 45.0862 102.889 45.8782 103.71 45.8422C104.783 45.8782 105.855 45.8422 106.927 45.8422C106.927 42.6742 106.927 39.4702 106.927 36.3022C108.07 36.3022 109.178 36.3022 110.322 36.3022C110.286 40.4062 110.322 44.5102 110.322 48.6142C107.642 48.5782 104.961 48.6502 102.317 48.5782C100.423 48.6142 98.9217 46.8862 98.8502 45.0502C98.743 42.1702 98.8502 39.2542 98.8145 36.3382Z" fill="black"/>
<path d="M25.3752 31.9102C26.5187 31.9102 27.6266 31.9102 28.7702 31.9102C28.7702 33.3862 28.7702 34.8622 28.7702 36.3022C30.8072 36.4462 32.8799 36.0142 34.8454 36.5542C38.4906 38.1742 39.0981 43.3942 37.0254 46.4902C36.2392 47.7502 34.8454 48.6862 33.3088 48.6142C30.6642 48.6142 28.0197 48.6142 25.3752 48.6142C25.3752 43.0702 25.3752 37.4902 25.3752 31.9102ZM28.7702 38.9302C28.7702 41.2702 28.7702 43.6102 28.7702 45.9502C30.1639 45.8782 31.6291 46.2022 32.9514 45.6982C35.31 44.3302 35.1671 40.2982 32.6655 39.1462C31.4147 38.7862 30.0567 38.9662 28.7702 38.9302ZM65.9366 31.9102C67.0801 31.9102 68.188 31.9102 69.3316 31.9102V48.6502C68.188 48.6502 67.0801 48.6502 65.9366 48.6502C65.9366 43.0702 65.9366 37.4902 65.9366 31.9102ZM71.0469 40.5142C72.1905 39.1102 73.3341 37.6342 74.4777 36.2302C76.0501 36.2302 77.6225 36.2302 79.2307 36.2302C77.4081 38.3542 75.514 40.4062 73.7272 42.5302C75.5855 44.5462 77.4081 46.5982 79.2664 48.6142C77.6583 48.6142 76.0501 48.6142 74.4419 48.6142C73.1554 47.1022 71.9046 45.5902 70.5824 44.1142C69.0814 42.5302 69.8319 42.0622 71.0469 40.5142ZM39.9201 36.3382C42.4931 36.3742 45.0662 36.3022 47.6393 36.3742C49.5691 36.4102 51.3559 37.9582 51.4988 39.9382C51.749 42.8902 51.5346 45.8422 51.6061 48.7942C48.4969 48.7582 45.3878 48.8662 42.2787 48.7582C39.9558 48.6142 38.4906 46.0222 39.2768 43.8622C39.6342 42.5302 40.8492 41.4142 42.243 41.3782C44.2443 41.2342 46.2455 41.4142 48.2468 41.3062C48.1753 40.3702 47.675 39.1102 46.5314 39.1822C44.3157 39.1462 42.1 39.1822 39.8844 39.1462C39.9201 38.1742 39.9201 37.2382 39.9201 36.3382ZM43.3866 45.9502C44.9233 46.3102 46.5672 46.0582 48.1396 46.1302C48.1396 45.3382 48.1396 44.5822 48.1396 43.7902C46.6386 43.8262 45.1734 43.7182 43.6725 43.8262C42.5646 43.9342 42.3145 45.5902 43.3866 45.9502ZM53.0713 36.3382C55.6801 36.3382 58.2889 36.3022 60.8619 36.3382C61.9698 36.3382 63.1133 36.7702 63.7566 37.7422C64.5428 38.7502 64.6143 40.1182 64.6143 41.3422C64.6143 43.7902 64.6143 46.2022 64.6143 48.6502H61.2193C61.1835 45.9862 61.255 43.2862 61.1835 40.6222C61.1835 39.8662 60.5045 39.2902 59.8255 39.1822C58.7177 39.0742 57.6099 39.1462 56.502 39.1462C56.502 42.3142 56.502 45.4822 56.502 48.6862C55.3584 48.6862 54.2506 48.6862 53.107 48.6862C53.0713 44.5462 53.0713 40.4422 53.0713 36.3382ZM80.1241 36.3382C81.2677 36.3382 82.4113 36.3382 83.5548 36.3742C83.4834 40.4782 83.5548 44.5822 83.5191 48.6862H80.1241C80.1241 44.5462 80.1241 40.4422 80.1241 36.3382ZM89.5229 40.2622C89.4872 38.5702 90.5235 36.7702 92.2747 36.4462C93.99 36.1942 95.7411 36.3742 97.4565 36.3382C97.4565 37.2742 97.4565 38.2102 97.4565 39.1462C95.9913 39.3262 93.6327 38.4982 92.9536 40.2982C92.8464 43.0702 92.9537 45.8782 92.9179 48.6862C91.8101 48.6862 90.6665 48.6862 89.5586 48.7222C89.4514 45.8782 89.5229 43.0702 89.5229 40.2622ZM98.8145 36.3382C99.9581 36.3382 101.066 36.3382 102.21 36.3382C102.21 38.9662 102.174 41.5942 102.21 44.2222C102.102 45.0862 102.889 45.8782 103.71 45.8422C104.783 45.8782 105.855 45.8422 106.927 45.8422C106.927 42.6742 106.927 39.4702 106.927 36.3022C108.07 36.3022 109.178 36.3022 110.322 36.3022C110.286 40.4062 110.322 44.5102 110.322 48.6142C107.642 48.5782 104.961 48.6502 102.317 48.5782C100.423 48.6142 98.9217 46.8862 98.8502 45.0502C98.743 42.1702 98.8502 39.2542 98.8145 36.3382Z" fill="black"/>
<path d="M13.0459 38.8584C16.6911 38.8584 20.3005 38.8584 23.9457 38.8584C23.9457 39.9744 23.9457 41.0904 23.9457 42.1704C20.3005 42.1704 16.6911 42.1704 13.0459 42.1704C13.0459 41.0544 13.0459 39.9744 13.0459 38.8584Z" fill="black"/>
<path d="M13.0459 38.8584C16.6911 38.8584 20.3005 38.8584 23.9457 38.8584C23.9457 39.9744 23.9457 41.0904 23.9457 42.1704C20.3005 42.1704 16.6911 42.1704 13.0459 42.1704C13.0459 41.0544 13.0459 39.9744 13.0459 38.8584Z" fill="black"/>
<path d="M8.93619 45.3384C13.9394 45.3384 18.9425 45.3384 23.9457 45.3384C23.9457 46.4544 23.9457 47.5704 23.9457 48.6504C18.9425 48.6504 13.9394 48.6504 8.93619 48.6504C8.93619 47.5344 8.93619 46.4184 8.93619 45.3384ZM84.7699 45.5904C85.9135 45.5904 87.0213 45.5904 88.1649 45.5904C88.1649 46.5984 88.1649 47.6424 88.1649 48.6504C87.0213 48.6504 85.9135 48.6504 84.7699 48.6504C84.7699 47.6424 84.7699 46.5984 84.7699 45.5904Z" fill="black"/>
<path d="M8.93619 45.3384C13.9394 45.3384 18.9425 45.3384 23.9457 45.3384C23.9457 46.4544 23.9457 47.5704 23.9457 48.6504C18.9425 48.6504 13.9394 48.6504 8.93619 48.6504C8.93619 47.5344 8.93619 46.4184 8.93619 45.3384ZM84.7699 45.5904C85.9135 45.5904 87.0213 45.5904 88.1649 45.5904C88.1649 46.5984 88.1649 47.6424 88.1649 48.6504C87.0213 48.6504 85.9135 48.6504 84.7699 48.6504C84.7699 47.6424 84.7699 46.5984 84.7699 45.5904Z" fill="black"/>
</svg>
