<svg width="121" height="81" viewBox="0 0 121 81" fill="none" xmlns="http://www.w3.org/2000/svg">
<path d="M43.8889 39.7652C43.9331 39.6472 43.9921 39.544 44.0364 39.426C44.9065 36.9336 46.3518 35.916 49.0064 35.9012C49.3014 35.9012 49.6111 35.9455 49.8913 35.8717C50.0683 35.8275 50.319 35.6505 50.3338 35.503C50.3927 34.9131 50.7614 34.8541 51.2186 34.8689C51.6906 34.8836 52.1478 34.8836 52.6197 34.8689C53.1064 34.8541 53.4898 34.8984 53.5488 35.5325C53.5636 35.6653 53.888 35.8422 54.0797 35.8717C54.4337 35.9307 54.8171 35.8865 55.1858 35.8865C57.6045 35.9012 59.2415 37.14 59.8609 39.4702C60.2591 40.9745 60.2444 42.4936 59.566 43.9389C58.7696 45.6349 57.3096 46.387 55.4955 46.5493C55.1858 46.5788 54.8614 46.564 54.5369 46.564C53.5341 46.564 53.5341 46.564 53.4751 47.5669C52.4427 47.5669 51.4104 47.5669 50.378 47.5669C50.3338 46.564 50.3338 46.623 49.3309 46.5493C48.4313 46.4903 47.5169 46.4018 46.6763 46.1363C45.0982 45.6349 44.3903 44.3223 43.8889 42.8475C43.8889 41.8299 43.8889 40.7975 43.8889 39.7652ZM53.5046 41.2842C53.5046 42.0954 53.4751 42.9065 53.5193 43.7177C53.5341 43.9241 53.8143 44.2781 53.9765 44.2928C55.1711 44.3223 56.4984 43.8209 56.7639 42.3313C56.8524 41.8004 56.8671 41.2547 56.8524 40.7238C56.7934 39.1605 55.6873 38.2167 54.124 38.3199C53.6963 38.3494 53.5046 38.5116 53.5046 38.9541C53.5046 39.7062 53.5046 40.4878 53.5046 41.2842ZM50.3632 41.3875C50.3632 40.5763 50.3927 39.7652 50.3338 38.9688C50.319 38.7328 50.0535 38.3789 49.8471 38.3346C48.6377 38.0839 47.5611 38.7033 47.1924 39.8832C47.0155 40.4583 46.986 41.0925 47.0007 41.6824C47.045 43.2605 48.0921 44.2486 49.6848 44.3076C50.1568 44.3223 50.3632 44.1453 50.3485 43.6734C50.3485 42.9065 50.3632 42.1544 50.3632 41.3875Z" fill="black"/>
<path d="M43.8889 39.7652C43.9331 39.6472 43.9921 39.544 44.0364 39.426C44.9065 36.9336 46.3518 35.916 49.0064 35.9012C49.3014 35.9012 49.6111 35.9455 49.8913 35.8717C50.0683 35.8275 50.319 35.6505 50.3338 35.503C50.3927 34.9131 50.7614 34.8541 51.2186 34.8689C51.6906 34.8836 52.1478 34.8836 52.6197 34.8689C53.1064 34.8541 53.4898 34.8984 53.5488 35.5325C53.5636 35.6653 53.888 35.8422 54.0797 35.8717C54.4337 35.9307 54.8171 35.8865 55.1858 35.8865C57.6045 35.9012 59.2415 37.14 59.8609 39.4702C60.2591 40.9745 60.2444 42.4936 59.566 43.9389C58.7696 45.6349 57.3096 46.387 55.4955 46.5493C55.1858 46.5788 54.8614 46.564 54.5369 46.564C53.5341 46.564 53.5341 46.564 53.4751 47.5669C52.4427 47.5669 51.4104 47.5669 50.378 47.5669C50.3338 46.564 50.3338 46.623 49.3309 46.5493C48.4313 46.4903 47.5169 46.4018 46.6763 46.1363C45.0982 45.6349 44.3903 44.3223 43.8889 42.8475C43.8889 41.8299 43.8889 40.7975 43.8889 39.7652ZM53.5046 41.2842C53.5046 42.0954 53.4751 42.9065 53.5193 43.7177C53.5341 43.9241 53.8143 44.2781 53.9765 44.2928C55.1711 44.3223 56.4984 43.8209 56.7639 42.3313C56.8524 41.8004 56.8671 41.2547 56.8524 40.7238C56.7934 39.1605 55.6873 38.2167 54.124 38.3199C53.6963 38.3494 53.5046 38.5116 53.5046 38.9541C53.5046 39.7062 53.5046 40.4878 53.5046 41.2842ZM50.3632 41.3875C50.3632 40.5763 50.3927 39.7652 50.3338 38.9688C50.319 38.7328 50.0535 38.3789 49.8471 38.3346C48.6377 38.0839 47.5611 38.7033 47.1924 39.8832C47.0155 40.4583 46.986 41.0925 47.0007 41.6824C47.045 43.2605 48.0921 44.2486 49.6848 44.3076C50.1568 44.3223 50.3632 44.1453 50.3485 43.6734C50.3485 42.9065 50.3632 42.1544 50.3632 41.3875Z" fill="black"/>
<path d="M110.255 46.5493C109.488 46.564 108.736 46.5345 107.969 46.5788C107.29 46.623 107.128 46.2985 107.143 45.6939C107.158 43.8799 107.158 42.0659 107.025 40.2076C106.951 40.4731 106.863 40.7238 106.789 40.9893C106.243 42.6263 105.698 44.2486 105.167 45.8856C105.005 46.387 104.724 46.5935 104.208 46.5788C101.568 46.5198 102.217 46.9622 101.377 44.6025C100.875 43.1867 100.447 41.7562 99.9755 40.3256C99.9607 40.2814 99.9165 40.2666 99.8132 40.1486C99.8132 41.9479 99.8132 43.6882 99.8132 45.4137C99.8132 46.564 99.8132 46.5788 98.6777 46.564C96.4212 46.5345 96.7162 46.8885 96.7014 44.5583C96.6867 42.0069 96.7014 39.4407 96.7014 36.8893C96.7014 35.9455 96.7457 35.9012 97.7043 35.9012C98.191 35.9012 98.6924 35.9012 99.1791 35.9012C100.61 35.916 101.303 36.3879 101.76 37.7447C102.261 39.2048 102.733 40.6796 103.235 42.1544C103.294 42.3313 103.382 42.4936 103.544 42.8475C104.09 41.2105 104.592 39.7504 105.049 38.2904C105.653 36.3289 106.214 35.9012 108.279 35.9012C108.942 35.9012 109.606 35.916 110.27 35.916C110.255 39.4702 110.255 43.0097 110.255 46.5493Z" fill="black"/>
<path d="M110.255 46.5493C109.488 46.564 108.736 46.5345 107.969 46.5788C107.29 46.623 107.128 46.2985 107.143 45.6939C107.158 43.8799 107.158 42.0659 107.025 40.2076C106.951 40.4731 106.863 40.7238 106.789 40.9893C106.243 42.6263 105.698 44.2486 105.167 45.8856C105.005 46.387 104.724 46.5935 104.208 46.5788C101.568 46.5198 102.217 46.9622 101.377 44.6025C100.875 43.1867 100.447 41.7562 99.9755 40.3256C99.9607 40.2814 99.9165 40.2666 99.8132 40.1486C99.8132 41.9479 99.8132 43.6882 99.8132 45.4137C99.8132 46.564 99.8132 46.5788 98.6777 46.564C96.4212 46.5345 96.7162 46.8885 96.7014 44.5583C96.6867 42.0069 96.7014 39.4407 96.7014 36.8893C96.7014 35.9455 96.7457 35.9012 97.7043 35.9012C98.191 35.9012 98.6924 35.9012 99.1791 35.9012C100.61 35.916 101.303 36.3879 101.76 37.7447C102.261 39.2048 102.733 40.6796 103.235 42.1544C103.294 42.3313 103.382 42.4936 103.544 42.8475C104.09 41.2105 104.592 39.7504 105.049 38.2904C105.653 36.3289 106.214 35.9012 108.279 35.9012C108.942 35.9012 109.606 35.916 110.27 35.916C110.255 39.4702 110.255 43.0097 110.255 46.5493Z" fill="black"/>
<path d="M68.1936 40.7386C67.2497 42.1101 66.3058 43.4817 65.3472 44.8385C63.7839 47.0212 64.6393 46.505 61.8519 46.5788C61.3063 46.5935 61.1145 46.3428 61.1293 45.8266C61.144 42.7885 61.144 39.7357 61.1293 36.6976C61.1293 36.1372 61.3358 35.8865 61.9109 35.916C62.3829 35.9455 62.8401 35.9455 63.312 35.916C64.0051 35.857 64.2854 36.1519 64.2706 36.8598C64.2411 38.4969 64.2559 40.1339 64.2559 41.8742C65.421 40.1781 66.5713 38.6001 67.6331 36.9483C68.1346 36.1814 68.6803 35.857 69.6094 35.9012C71.6004 35.975 71.4676 35.6653 71.4676 37.7595C71.4676 40.3699 71.4676 42.9655 71.4676 45.5759C71.4676 46.4903 71.3791 46.5788 70.45 46.5788C68.3411 46.5935 68.341 46.5935 68.341 44.4846C68.341 43.2605 68.341 42.0364 68.341 40.8123C68.2821 40.7828 68.2378 40.7681 68.1936 40.7386Z" fill="black"/>
<path d="M68.1936 40.7386C67.2497 42.1101 66.3058 43.4817 65.3472 44.8385C63.7839 47.0212 64.6393 46.505 61.8519 46.5788C61.3063 46.5935 61.1145 46.3428 61.1293 45.8266C61.144 42.7885 61.144 39.7357 61.1293 36.6976C61.1293 36.1372 61.3358 35.8865 61.9109 35.916C62.3829 35.9455 62.8401 35.9455 63.312 35.916C64.0051 35.857 64.2854 36.1519 64.2706 36.8598C64.2411 38.4969 64.2559 40.1339 64.2559 41.8742C65.421 40.1781 66.5713 38.6001 67.6331 36.9483C68.1346 36.1814 68.6803 35.857 69.6094 35.9012C71.6004 35.975 71.4676 35.6653 71.4676 37.7595C71.4676 40.3699 71.4676 42.9655 71.4676 45.5759C71.4676 46.4903 71.3791 46.5788 70.45 46.5788C68.3411 46.5935 68.341 46.5935 68.341 44.4846C68.341 43.2605 68.341 42.0364 68.341 40.8123C68.2821 40.7828 68.2378 40.7681 68.1936 40.7386Z" fill="black"/>
<path d="M91.0677 46.564C89.9911 46.564 88.8997 46.623 87.8231 46.5493C86.4958 46.4608 85.316 45.9888 84.8735 44.6173C84.4458 43.3194 84.5491 42.0364 85.6257 41.004C86.2451 40.3993 87.0267 40.2076 87.8526 40.1929C89.0767 40.1634 90.3155 40.1929 91.5396 40.1781C92.1885 40.1634 92.3802 39.9127 92.1885 39.2932C91.9673 38.5706 91.3921 38.3199 90.7137 38.3199C89.2094 38.3051 87.7199 38.3051 86.2156 38.3051C85.2422 38.3051 85.198 38.2314 85.198 37.0811C85.198 36.0044 85.257 35.9307 86.2156 35.9307C87.8674 35.9307 89.5044 35.9307 91.1562 35.9307C93.6486 35.9455 94.9906 37.1695 95.0791 39.6472C95.1529 41.7267 95.0939 43.8209 95.1086 45.9151C95.1086 46.4313 94.8874 46.623 94.4007 46.6083C93.2799 46.564 92.1738 46.5788 91.0677 46.564C91.0677 46.5788 91.0677 46.5788 91.0677 46.564ZM90.0648 42.4493C89.5486 42.4493 89.0324 42.4493 88.5163 42.4493C87.8968 42.4641 87.4397 42.6853 87.4397 43.3784C87.4397 44.0421 87.9263 44.2781 88.472 44.2928C89.5486 44.3371 90.6252 44.3223 91.7018 44.3076C92.4245 44.2928 92.2328 43.7324 92.2475 43.3342C92.2623 42.9213 92.336 42.4493 91.6871 42.4493C91.1414 42.4493 90.5957 42.4493 90.0648 42.4493Z" fill="black"/>
<path d="M91.0677 46.564C89.9911 46.564 88.8997 46.623 87.8231 46.5493C86.4958 46.4608 85.316 45.9888 84.8735 44.6173C84.4458 43.3194 84.5491 42.0364 85.6257 41.004C86.2451 40.3993 87.0267 40.2076 87.8526 40.1929C89.0767 40.1634 90.3155 40.1929 91.5396 40.1781C92.1885 40.1634 92.3802 39.9127 92.1885 39.2932C91.9673 38.5706 91.3921 38.3199 90.7137 38.3199C89.2094 38.3051 87.7199 38.3051 86.2156 38.3051C85.2422 38.3051 85.198 38.2314 85.198 37.0811C85.198 36.0044 85.257 35.9307 86.2156 35.9307C87.8674 35.9307 89.5044 35.9307 91.1562 35.9307C93.6486 35.9455 94.9906 37.1695 95.0791 39.6472C95.1529 41.7267 95.0939 43.8209 95.1086 45.9151C95.1086 46.4313 94.8874 46.623 94.4007 46.6083C93.2799 46.564 92.1738 46.5788 91.0677 46.564C91.0677 46.5788 91.0677 46.5788 91.0677 46.564ZM90.0648 42.4493C89.5486 42.4493 89.0324 42.4493 88.5163 42.4493C87.8968 42.4641 87.4397 42.6853 87.4397 43.3784C87.4397 44.0421 87.9263 44.2781 88.472 44.2928C89.5486 44.3371 90.6252 44.3223 91.7018 44.3076C92.4245 44.2928 92.2328 43.7324 92.2475 43.3342C92.2623 42.9213 92.336 42.4493 91.6871 42.4493C91.1414 42.4493 90.5957 42.4493 90.0648 42.4493Z" fill="black"/>
<path d="M76.069 40.0602C77.3078 40.0602 78.4434 40.0602 79.5643 40.0602C80.0067 40.0602 80.1689 39.8242 80.1689 39.4112C80.1689 38.5559 80.1984 37.6857 80.1689 36.8303C80.1542 36.1814 80.3754 35.857 81.0686 35.916C81.5258 35.9455 81.9977 35.9455 82.4696 35.916C83.1333 35.8717 83.3103 36.1667 83.3103 36.7861C83.2955 39.7652 83.2808 42.7295 83.3103 45.7086C83.3103 46.387 83.0743 46.6083 82.4106 46.5935C79.815 46.5198 80.2279 46.977 80.1837 44.3813C80.1542 42.1396 80.4787 42.4641 78.2075 42.4493C76.0838 42.4346 76.0838 42.4493 76.0838 44.573C76.0838 44.9417 76.0543 45.3104 76.0838 45.6791C76.1427 46.328 75.9068 46.6525 75.2136 46.5935C74.6827 46.5493 74.137 46.5788 73.5913 46.5788C73.1637 46.5788 72.9572 46.3723 72.9572 45.9446C72.9572 42.818 72.9572 39.7062 72.9572 36.5796C72.9572 36.1372 73.1784 35.9012 73.6356 35.9012C76.6147 35.9307 76.01 35.503 76.069 38.1134C76.0838 38.7328 76.069 39.3375 76.069 40.0602Z" fill="black"/>
<path d="M76.069 40.0602C77.3078 40.0602 78.4434 40.0602 79.5643 40.0602C80.0067 40.0602 80.1689 39.8242 80.1689 39.4112C80.1689 38.5559 80.1984 37.6857 80.1689 36.8303C80.1542 36.1814 80.3754 35.857 81.0686 35.916C81.5258 35.9455 81.9977 35.9455 82.4696 35.916C83.1333 35.8717 83.3103 36.1667 83.3103 36.7861C83.2955 39.7652 83.2808 42.7295 83.3103 45.7086C83.3103 46.387 83.0743 46.6083 82.4106 46.5935C79.815 46.5198 80.2279 46.977 80.1837 44.3813C80.1542 42.1396 80.4787 42.4641 78.2075 42.4493C76.0838 42.4346 76.0838 42.4493 76.0838 44.573C76.0838 44.9417 76.0543 45.3104 76.0838 45.6791C76.1427 46.328 75.9068 46.6525 75.2136 46.5935C74.6827 46.5493 74.137 46.5788 73.5913 46.5788C73.1637 46.5788 72.9572 46.3723 72.9572 45.9446C72.9572 42.818 72.9572 39.7062 72.9572 36.5796C72.9572 36.1372 73.1784 35.9012 73.6356 35.9012C76.6147 35.9307 76.01 35.503 76.069 38.1134C76.0838 38.7328 76.069 39.3375 76.069 40.0602Z" fill="black"/>
<path d="M28.1232 27.4653C28.9785 28.1732 29.8339 28.8811 30.7041 29.5595C31.058 29.825 31.1465 30.0757 30.9253 30.4592C30.7041 30.8426 30.5271 31.2408 30.3354 31.6243C30.1879 31.934 29.9814 32.0372 29.6717 31.8012C28.8458 31.1523 28.0052 30.5182 27.194 29.8398C27.0613 29.7218 27.0023 29.3826 27.0761 29.1908C27.2973 28.6009 27.5922 28.0405 27.8724 27.4653C27.9757 27.4653 28.0494 27.4653 28.1232 27.4653Z" fill="black"/>
<path d="M28.1232 27.4653C28.9785 28.1732 29.8339 28.8811 30.7041 29.5595C31.058 29.825 31.1465 30.0757 30.9253 30.4592C30.7041 30.8426 30.5271 31.2408 30.3354 31.6243C30.1879 31.934 29.9814 32.0372 29.6717 31.8012C28.8458 31.1523 28.0052 30.5182 27.194 29.8398C27.0613 29.7218 27.0023 29.3826 27.0761 29.1908C27.2973 28.6009 27.5922 28.0405 27.8724 27.4653C27.9757 27.4653 28.0494 27.4653 28.1232 27.4653Z" fill="black"/>
<path d="M19.0827 40.4878C18.2568 40.9155 17.5932 41.2547 16.9148 41.5792C16.8115 41.6234 16.6198 41.6087 16.5313 41.5497C15.5579 40.7975 14.5993 40.0454 13.4637 39.1458C14.3191 38.7623 15.027 38.4378 15.7349 38.1281C15.8087 38.0986 15.9561 38.1134 16.0151 38.1576C17.018 38.9098 17.9914 39.6619 19.0827 40.4878Z" fill="black"/>
<path d="M19.0827 40.4878C18.2568 40.9155 17.5932 41.2547 16.9148 41.5792C16.8115 41.6234 16.6198 41.6087 16.5313 41.5497C15.5579 40.7975 14.5993 40.0454 13.4637 39.1458C14.3191 38.7623 15.027 38.4378 15.7349 38.1281C15.8087 38.0986 15.9561 38.1134 16.0151 38.1576C17.018 38.9098 17.9914 39.6619 19.0827 40.4878Z" fill="black"/>
<path d="M22.6222 46.0771C23.3301 45.7379 24.0085 45.4134 24.6869 45.1185C24.7754 45.0742 24.9524 45.0742 25.0261 45.1332C26.0142 45.8853 26.9876 46.6522 28.0937 47.5076C27.2531 47.9206 26.5452 48.2745 25.8225 48.599C25.7488 48.6285 25.5866 48.5695 25.4981 48.4957C24.5837 47.7878 23.6841 47.0799 22.7844 46.3573C22.7402 46.3425 22.7254 46.2688 22.6222 46.0771Z" fill="black"/>
<path d="M22.6222 46.0771C23.3301 45.7379 24.0085 45.4134 24.6869 45.1185C24.7754 45.0742 24.9524 45.0742 25.0261 45.1332C26.0142 45.8853 26.9876 46.6522 28.0937 47.5076C27.2531 47.9206 26.5452 48.2745 25.8225 48.599C25.7488 48.6285 25.5866 48.5695 25.4981 48.4957C24.5837 47.7878 23.6841 47.0799 22.7844 46.3573C22.7402 46.3425 22.7254 46.2688 22.6222 46.0771Z" fill="black"/>
<path d="M21.0442 55.0145C20.3215 54.4688 19.6579 53.9969 19.0384 53.4955C17.6669 52.3451 17.6374 52.8761 18.4338 51.0915C18.7877 50.2952 18.7877 50.2952 19.4956 50.8408C20.1888 51.3718 20.8672 51.9174 21.5751 52.4336C21.9585 52.7138 22.0175 52.9498 21.7668 53.3775C21.5014 53.8494 21.3244 54.3803 21.0442 55.0145Z" fill="black"/>
<path d="M21.0442 55.0145C20.3215 54.4688 19.6579 53.9969 19.0384 53.4955C17.6669 52.3451 17.6374 52.8761 18.4338 51.0915C18.7877 50.2952 18.7877 50.2952 19.4956 50.8408C20.1888 51.3718 20.8672 51.9174 21.5751 52.4336C21.9585 52.7138 22.0175 52.9498 21.7668 53.3775C21.5014 53.8494 21.3244 54.3803 21.0442 55.0145Z" fill="black"/>
<path d="M16.4575 41.7855C15.8824 42.3164 15.3957 42.8031 14.8648 43.2455C14.7763 43.3192 14.5256 43.275 14.4076 43.1865C13.5522 42.5523 12.7116 41.8739 11.8562 41.225C11.5465 40.9891 11.5907 40.8121 11.8267 40.5466C13.0803 39.1898 13.095 39.1751 14.5256 40.2812C15.1597 40.7826 15.7791 41.2693 16.4575 41.7855Z" fill="black"/>
<path d="M16.4575 41.7855C15.8824 42.3164 15.3957 42.8031 14.8648 43.2455C14.7763 43.3192 14.5256 43.275 14.4076 43.1865C13.5522 42.5523 12.7116 41.8739 11.8562 41.225C11.5465 40.9891 11.5907 40.8121 11.8267 40.5466C13.0803 39.1898 13.095 39.1751 14.5256 40.2812C15.1597 40.7826 15.7791 41.2693 16.4575 41.7855Z" fill="black"/>
<path d="M9.83571 43.3047C10.8681 44.1158 11.8267 44.8385 12.7558 45.6054C12.859 45.6939 12.9328 45.9446 12.8738 46.0773C12.6378 46.6967 12.3429 47.3161 12.0332 48.024C11.4432 47.5669 10.8976 47.1687 10.3519 46.7557C10.1897 46.6377 10.0422 46.505 9.8947 46.387C8.75911 45.4874 8.70012 45.8413 9.36378 44.2191C9.48176 43.9389 9.64399 43.6881 9.83571 43.3047Z" fill="black"/>
<path d="M9.83571 43.3047C10.8681 44.1158 11.8267 44.8385 12.7558 45.6054C12.859 45.6939 12.9328 45.9446 12.8738 46.0773C12.6378 46.6967 12.3429 47.3161 12.0332 48.024C11.4432 47.5669 10.8976 47.1687 10.3519 46.7557C10.1897 46.6377 10.0422 46.505 9.8947 46.387C8.75911 45.4874 8.70012 45.8413 9.36378 44.2191C9.48176 43.9389 9.64399 43.6881 9.83571 43.3047Z" fill="black"/>
<path d="M14.4518 43.6585C14.3928 43.7618 14.3486 43.8502 14.2896 43.9387C14.1716 44.101 14.0536 44.2484 13.9356 44.4107C13.1097 45.561 13.1097 45.561 11.9889 44.6761C11.4432 44.2484 10.9123 43.806 10.3519 43.4078C10.0569 43.1866 9.95367 42.9949 10.2044 42.6704C10.4993 42.2722 10.7648 41.8445 11.0893 41.4758C11.1925 41.3578 11.5464 41.2988 11.6644 41.3873C12.5493 42.0362 13.3899 42.7147 14.2453 43.3783C14.3191 43.452 14.3633 43.5553 14.4518 43.6585Z" fill="black"/>
<path d="M14.4518 43.6585C14.3928 43.7618 14.3486 43.8502 14.2896 43.9387C14.1716 44.101 14.0536 44.2484 13.9356 44.4107C13.1097 45.561 13.1097 45.561 11.9889 44.6761C11.4432 44.2484 10.9123 43.806 10.3519 43.4078C10.0569 43.1866 9.95367 42.9949 10.2044 42.6704C10.4993 42.2722 10.7648 41.8445 11.0893 41.4758C11.1925 41.3578 11.5464 41.2988 11.6644 41.3873C12.5493 42.0362 13.3899 42.7147 14.2453 43.3783C14.3191 43.452 14.3633 43.5553 14.4518 43.6585Z" fill="black"/>
<path d="M25.4686 48.7911C24.8934 49.3221 24.4067 49.8087 23.8758 50.2364C23.7726 50.3102 23.4776 50.2807 23.3596 50.1922C22.5337 49.5728 21.7374 48.9091 20.9262 48.2897C20.587 48.039 20.587 47.8325 20.8672 47.5228C22.0618 46.225 22.1355 46.2102 23.5219 47.2721C24.156 47.7735 24.7902 48.2602 25.4686 48.7911Z" fill="black"/>
<path d="M25.4686 48.7911C24.8934 49.3221 24.4067 49.8087 23.8758 50.2364C23.7726 50.3102 23.4776 50.2807 23.3596 50.1922C22.5337 49.5728 21.7374 48.9091 20.9262 48.2897C20.587 48.039 20.587 47.8325 20.8672 47.5228C22.0618 46.225 22.1355 46.2102 23.5219 47.2721C24.156 47.7735 24.7902 48.2602 25.4686 48.7911Z" fill="black"/>
<path d="M29.9372 32.406C29.4948 32.9812 29.0818 33.5416 28.6394 34.0725C28.5952 34.1315 28.3002 34.0283 28.1675 33.9398C27.3268 33.3056 26.5009 32.6715 25.6898 31.993C25.5866 31.9046 25.5718 31.5654 25.6456 31.4179C25.8815 30.9902 26.206 30.6067 26.4862 30.1938C26.6632 29.9283 26.8254 29.8546 27.1056 30.0758C27.9315 30.7395 28.7574 31.3736 29.5833 32.0225C29.716 32.111 29.7897 32.2438 29.9372 32.406Z" fill="black"/>
<path d="M29.9372 32.406C29.4948 32.9812 29.0818 33.5416 28.6394 34.0725C28.5952 34.1315 28.3002 34.0283 28.1675 33.9398C27.3268 33.3056 26.5009 32.6715 25.6898 31.993C25.5866 31.9046 25.5718 31.5654 25.6456 31.4179C25.8815 30.9902 26.206 30.6067 26.4862 30.1938C26.6632 29.9283 26.8254 29.8546 27.1056 30.0758C27.9315 30.7395 28.7574 31.3736 29.5833 32.0225C29.716 32.111 29.7897 32.2438 29.9372 32.406Z" fill="black"/>
<path d="M38.8745 39.367C38.668 39.721 38.4615 40.0602 38.2551 40.3847C37.6504 41.299 37.6504 41.299 36.795 40.6206C36.1756 40.1339 35.5414 39.6325 34.9073 39.1753C34.5386 38.9099 34.3911 38.6739 34.7598 38.2757C35.04 37.9512 35.2317 37.5383 35.5119 37.2138C35.6152 37.0959 35.9691 36.9926 36.0724 37.0811C36.9572 37.73 37.7979 38.4084 38.668 39.0868C38.727 39.1458 38.786 39.2491 38.8745 39.367Z" fill="black"/>
<path d="M38.8745 39.367C38.668 39.721 38.4615 40.0602 38.2551 40.3847C37.6504 41.299 37.6504 41.299 36.795 40.6206C36.1756 40.1339 35.5414 39.6325 34.9073 39.1753C34.5386 38.9099 34.3911 38.6739 34.7598 38.2757C35.04 37.9512 35.2317 37.5383 35.5119 37.2138C35.6152 37.0959 35.9691 36.9926 36.0724 37.0811C36.9572 37.73 37.7979 38.4084 38.668 39.0868C38.727 39.1458 38.786 39.2491 38.8745 39.367Z" fill="black"/>
<path d="M28.3592 34.5001C28.1085 34.8098 27.9168 35.0753 27.6955 35.326C26.6779 36.4469 26.8549 36.2551 25.9405 35.5325C25.3654 35.0753 24.7754 34.6476 24.2003 34.1904C23.6251 33.748 23.6251 33.7037 24.1118 33.2023C24.1855 33.1286 24.2445 33.0548 24.3183 32.9958C25.2769 32.0225 25.2769 32.0225 26.3535 32.8336C26.8992 33.2465 27.4596 33.6742 28.0053 34.1019C28.1232 34.2052 28.2265 34.3526 28.3592 34.5001Z" fill="black"/>
<path d="M28.3592 34.5001C28.1085 34.8098 27.9168 35.0753 27.6955 35.326C26.6779 36.4469 26.8549 36.2551 25.9405 35.5325C25.3654 35.0753 24.7754 34.6476 24.2003 34.1904C23.6251 33.748 23.6251 33.7037 24.1118 33.2023C24.1855 33.1286 24.2445 33.0548 24.3183 32.9958C25.2769 32.0225 25.2769 32.0225 26.3535 32.8336C26.8992 33.2465 27.4596 33.6742 28.0053 34.1019C28.1232 34.2052 28.2265 34.3526 28.3592 34.5001Z" fill="black"/>
<path d="M23.5071 50.5164C23.3596 50.7819 23.2859 50.9146 23.2121 51.0178C22.9909 51.3423 22.7107 51.652 22.5337 51.9912C22.2683 52.5221 22.0028 52.5074 21.5899 52.1534C20.882 51.5635 20.1446 50.9883 19.4072 50.4279C19.068 50.1772 19.0385 49.9412 19.2597 49.5725C20.2036 48.0387 20.2036 48.0387 21.6194 49.1301C22.1208 49.5135 22.6222 49.9117 23.1237 50.2952C23.2416 50.3837 23.3891 50.4427 23.5071 50.5164Z" fill="black"/>
<path d="M23.5071 50.5164C23.3596 50.7819 23.2859 50.9146 23.2121 51.0178C22.9909 51.3423 22.7107 51.652 22.5337 51.9912C22.2683 52.5221 22.0028 52.5074 21.5899 52.1534C20.882 51.5635 20.1446 50.9883 19.4072 50.4279C19.068 50.1772 19.0385 49.9412 19.2597 49.5725C20.2036 48.0387 20.2036 48.0387 21.6194 49.1301C22.1208 49.5135 22.6222 49.9117 23.1237 50.2952C23.2416 50.3837 23.3891 50.4427 23.5071 50.5164Z" fill="black"/>
<path d="M32.6361 40.7387C33.1523 40.1636 33.5799 39.6621 34.0371 39.205C34.1256 39.1165 34.4353 39.1312 34.5386 39.2197C35.4087 39.8686 36.2788 40.547 37.1195 41.2254C37.2227 41.2992 37.2669 41.6089 37.208 41.6974C36.8835 42.1251 36.5295 42.5233 36.1314 42.8772C35.9986 42.9952 35.6447 43.0394 35.5119 42.9362C34.5681 42.2578 33.6389 41.5056 32.6361 40.7387Z" fill="black"/>
<path d="M32.6361 40.7387C33.1523 40.1636 33.5799 39.6621 34.0371 39.205C34.1256 39.1165 34.4353 39.1312 34.5386 39.2197C35.4087 39.8686 36.2788 40.547 37.1195 41.2254C37.2227 41.2992 37.2669 41.6089 37.208 41.6974C36.8835 42.1251 36.5295 42.5233 36.1314 42.8772C35.9986 42.9952 35.6447 43.0394 35.5119 42.9362C34.5681 42.2578 33.6389 41.5056 32.6361 40.7387Z" fill="black"/>
<path d="M16.546 51.49C16.2068 51.254 15.9266 51.0623 15.6612 50.8705C15.1597 50.4871 14.6583 50.0742 14.1569 49.6907C13.3015 49.027 13.3015 49.027 13.7144 48.0389C14.2454 46.7854 14.2454 46.7706 15.2925 47.5817C15.9266 48.0684 16.5608 48.5551 17.1655 49.0565C17.2982 49.1598 17.4309 49.4105 17.3867 49.5285C17.1655 50.1479 16.8705 50.7526 16.546 51.49Z" fill="black"/>
<path d="M16.546 51.49C16.2068 51.254 15.9266 51.0623 15.6612 50.8705C15.1597 50.4871 14.6583 50.0742 14.1569 49.6907C13.3015 49.027 13.3015 49.027 13.7144 48.0389C14.2454 46.7854 14.2454 46.7706 15.2925 47.5817C15.9266 48.0684 16.5608 48.5551 17.1655 49.0565C17.2982 49.1598 17.4309 49.4105 17.3867 49.5285C17.1655 50.1479 16.8705 50.7526 16.546 51.49Z" fill="black"/>
<path d="M20.9557 45.3105C20.3952 45.8267 19.9528 46.2692 19.4661 46.6674C19.3481 46.7706 19.0089 46.7559 18.8762 46.6674C18.0503 46.0627 17.2539 45.399 16.428 44.7796C16.1183 44.5437 16.0593 44.3372 16.369 44.0717C16.7377 43.7473 17.1064 43.3933 17.4899 43.0984C17.6226 43.0099 17.9176 42.9509 18.0208 43.0246C18.9942 43.762 19.9528 44.5289 20.9557 45.3105Z" fill="black"/>
<path d="M20.9557 45.3105C20.3952 45.8267 19.9528 46.2692 19.4661 46.6674C19.3481 46.7706 19.0089 46.7559 18.8762 46.6674C18.0503 46.0627 17.2539 45.399 16.428 44.7796C16.1183 44.5437 16.0593 44.3372 16.369 44.0717C16.7377 43.7473 17.1064 43.3933 17.4899 43.0984C17.6226 43.0099 17.9176 42.9509 18.0208 43.0246C18.9942 43.762 19.9528 44.5289 20.9557 45.3105Z" fill="black"/>
<path d="M33.4915 28.3945C34.5239 29.2057 35.4677 29.9283 36.3969 30.6657C36.4853 30.7395 36.5886 30.8869 36.5738 30.9607C36.3526 31.6243 36.1019 32.288 35.8364 32.9517C35.8217 32.9812 35.4972 32.9517 35.394 32.8632C34.5681 32.2438 33.7422 31.6243 32.9458 30.9607C32.8131 30.8427 32.6951 30.5625 32.7394 30.415C32.9311 29.7661 33.1965 29.1467 33.4915 28.3945Z" fill="black"/>
<path d="M33.4915 28.3945C34.5239 29.2057 35.4677 29.9283 36.3969 30.6657C36.4853 30.7395 36.5886 30.8869 36.5738 30.9607C36.3526 31.6243 36.1019 32.288 35.8364 32.9517C35.8217 32.9812 35.4972 32.9517 35.394 32.8632C34.5681 32.2438 33.7422 31.6243 32.9458 30.9607C32.8131 30.8427 32.6951 30.5625 32.7394 30.415C32.9311 29.7661 33.1965 29.1467 33.4915 28.3945Z" fill="black"/>
<path d="M31.2793 33.335C32.2674 34.1019 33.1965 34.795 34.0961 35.5472C34.2289 35.6504 34.2584 36.0338 34.1699 36.2108C33.9487 36.6533 33.6537 37.0515 33.3292 37.4202C33.2408 37.5234 32.8721 37.5529 32.7541 37.4644C31.9134 36.845 31.0875 36.1961 30.2764 35.5177C30.1584 35.4144 30.0552 35.1047 30.1142 35.0162C30.4386 34.4706 30.8368 33.9544 31.2793 33.335Z" fill="black"/>
<path d="M31.2793 33.335C32.2674 34.1019 33.1965 34.795 34.0961 35.5472C34.2289 35.6504 34.2584 36.0338 34.1699 36.2108C33.9487 36.6533 33.6537 37.0515 33.3292 37.4202C33.2408 37.5234 32.8721 37.5529 32.7541 37.4644C31.9134 36.845 31.0875 36.1961 30.2764 35.5177C30.1584 35.4144 30.0552 35.1047 30.1142 35.0162C30.4386 34.4706 30.8368 33.9544 31.2793 33.335Z" fill="black"/>
<path d="M34.5091 35.4438C34.3763 35.3554 34.2436 35.2964 34.1404 35.2226C33.3145 34.5885 32.5033 33.969 31.6922 33.3201C31.5742 33.2169 31.5005 32.9219 31.5595 32.7892C31.7512 32.3173 32.0167 31.8601 32.2526 31.4029C32.4001 31.0932 32.5918 31.0342 32.8573 31.2554C33.6979 31.9191 34.5533 32.5532 35.3939 33.2316C35.5119 33.3201 35.6004 33.6003 35.5414 33.7331C35.3202 34.2345 35.04 34.7212 34.7745 35.2079C34.7155 35.2964 34.5976 35.3554 34.5091 35.4438Z" fill="black"/>
<path d="M34.5091 35.4438C34.3763 35.3554 34.2436 35.2964 34.1404 35.2226C33.3145 34.5885 32.5033 33.969 31.6922 33.3201C31.5742 33.2169 31.5005 32.9219 31.5595 32.7892C31.7512 32.3173 32.0167 31.8601 32.2526 31.4029C32.4001 31.0932 32.5918 31.0342 32.8573 31.2554C33.6979 31.9191 34.5533 32.5532 35.3939 33.2316C35.5119 33.3201 35.6004 33.6003 35.5414 33.7331C35.3202 34.2345 35.04 34.7212 34.7745 35.2079C34.7155 35.2964 34.5976 35.3554 34.5091 35.4438Z" fill="black"/>
<path d="M23.5808 43.998C22.7549 44.3962 22.0913 44.7354 21.4129 45.0451C21.3244 45.0894 21.1622 45.0746 21.0737 45.0156C20.1003 44.2782 19.1269 43.5261 17.9913 42.656C18.832 42.2578 19.5399 41.9333 20.2478 41.6236C20.3363 41.5794 20.4985 41.6236 20.587 41.6973C21.5456 42.4347 22.4895 43.1721 23.5808 43.998Z" fill="black"/>
<path d="M23.5808 43.998C22.7549 44.3962 22.0913 44.7354 21.4129 45.0451C21.3244 45.0894 21.1622 45.0746 21.0737 45.0156C20.1003 44.2782 19.1269 43.5261 17.9913 42.656C18.832 42.2578 19.5399 41.9333 20.2478 41.6236C20.3363 41.5794 20.4985 41.6236 20.587 41.6973C21.5456 42.4347 22.4895 43.1721 23.5808 43.998Z" fill="black"/>
<path d="M16.1921 37.9217C17.0917 37.5678 17.8439 37.2581 18.596 36.9779C18.6697 36.9484 18.8025 36.9779 18.8762 37.0369C19.8348 37.7743 20.7787 38.5117 21.8406 39.3376C21.0442 39.839 20.292 40.1339 19.4809 40.3257C19.3924 40.3552 19.2449 40.2814 19.1564 40.2077C18.2273 39.4998 17.2982 38.7771 16.1921 37.9217Z" fill="black"/>
<path d="M16.1921 37.9217C17.0917 37.5678 17.8439 37.2581 18.596 36.9779C18.6697 36.9484 18.8025 36.9779 18.8762 37.0369C19.8348 37.7743 20.7787 38.5117 21.8406 39.3376C21.0442 39.839 20.292 40.1339 19.4809 40.3257C19.3924 40.3552 19.2449 40.2814 19.1564 40.2077C18.2273 39.4998 17.2982 38.7771 16.1921 37.9217Z" fill="black"/>
<path d="M25.2179 44.9269C26.088 44.573 26.7812 44.2633 27.5038 43.9978C27.6218 43.9536 27.8283 43.9978 27.9462 44.0863C28.8459 44.7795 29.7307 45.4874 30.6156 46.1805C30.6599 46.21 30.6599 46.2838 30.7484 46.4607C29.9962 46.7557 29.2441 47.0507 28.5067 47.3161C28.4329 47.3456 28.3002 47.2866 28.2265 47.2424C27.2531 46.5197 26.3092 45.7823 25.2179 44.9269Z" fill="black"/>
<path d="M25.2179 44.9269C26.088 44.573 26.7812 44.2633 27.5038 43.9978C27.6218 43.9536 27.8283 43.9978 27.9462 44.0863C28.8459 44.7795 29.7307 45.4874 30.6156 46.1805C30.6599 46.21 30.6599 46.2838 30.7484 46.4607C29.9962 46.7557 29.2441 47.0507 28.5067 47.3161C28.4329 47.3456 28.3002 47.2866 28.2265 47.2424C27.2531 46.5197 26.3092 45.7823 25.2179 44.9269Z" fill="black"/>
<path d="M15.8971 44.7354C16.0151 44.8091 16.1331 44.8828 16.251 44.9713C17.0327 45.576 17.8143 46.1807 18.596 46.7853C18.8909 47.0065 18.9352 47.2278 18.6992 47.5375C18.4337 47.8767 18.183 48.2306 17.9471 48.5993C17.7406 48.9238 17.5341 48.9828 17.2244 48.7321C16.4133 48.0979 15.5874 47.4785 14.791 46.8296C14.673 46.7263 14.555 46.4461 14.614 46.3576C14.9385 45.8414 15.3219 45.3548 15.6759 44.8681C15.7349 44.7943 15.8234 44.7796 15.8971 44.7354Z" fill="black"/>
<path d="M15.8971 44.7354C16.0151 44.8091 16.1331 44.8828 16.251 44.9713C17.0327 45.576 17.8143 46.1807 18.596 46.7853C18.8909 47.0065 18.9352 47.2278 18.6992 47.5375C18.4337 47.8767 18.183 48.2306 17.9471 48.5993C17.7406 48.9238 17.5341 48.9828 17.2244 48.7321C16.4133 48.0979 15.5874 47.4785 14.791 46.8296C14.673 46.7263 14.555 46.4461 14.614 46.3576C14.9385 45.8414 15.3219 45.3548 15.6759 44.8681C15.7349 44.7943 15.8234 44.7796 15.8971 44.7354Z" fill="black"/>
<path d="M26.6042 36.4026C25.9848 36.8745 25.4833 37.3022 24.9524 37.6709C24.8197 37.7594 24.51 37.7151 24.3772 37.6119C23.5219 36.9925 22.696 36.3288 21.8701 35.6947C21.6046 35.4882 21.5751 35.2965 21.8848 35.09C22.3125 34.795 22.7107 34.4558 23.1384 34.1756C23.2711 34.0871 23.5219 34.0576 23.6546 34.1166C23.9053 34.2346 24.1118 34.4263 24.333 34.6033C25.0556 35.1785 25.7783 35.7537 26.6042 36.4026Z" fill="black"/>
<path d="M26.6042 36.4026C25.9848 36.8745 25.4833 37.3022 24.9524 37.6709C24.8197 37.7594 24.51 37.7151 24.3772 37.6119C23.5219 36.9925 22.696 36.3288 21.8701 35.6947C21.6046 35.4882 21.5751 35.2965 21.8848 35.09C22.3125 34.795 22.7107 34.4558 23.1384 34.1756C23.2711 34.0871 23.5219 34.0576 23.6546 34.1166C23.9053 34.2346 24.1118 34.4263 24.333 34.6033C25.0556 35.1785 25.7783 35.7537 26.6042 36.4026Z" fill="black"/>
<path d="M29.7897 35.6064C29.952 35.6949 30.0847 35.7687 30.2174 35.8572C30.9991 36.4618 31.7807 37.0812 32.5771 37.6712C32.8721 37.8924 32.8868 38.0989 32.6066 38.3348C32.4149 38.5118 32.2379 38.7035 32.0757 38.8952C31.3825 39.7211 31.3825 39.7359 30.5419 39.087C29.8782 38.5708 29.2441 38.0546 28.5656 37.5532C28.2559 37.3172 28.2264 37.1107 28.5067 36.8305C28.8459 36.4913 29.1703 36.1521 29.5095 35.8129C29.5685 35.7244 29.6865 35.6654 29.7897 35.6064Z" fill="black"/>
<path d="M29.7897 35.6064C29.952 35.6949 30.0847 35.7687 30.2174 35.8572C30.9991 36.4618 31.7807 37.0812 32.5771 37.6712C32.8721 37.8924 32.8868 38.0989 32.6066 38.3348C32.4149 38.5118 32.2379 38.7035 32.0757 38.8952C31.3825 39.7211 31.3825 39.7359 30.5419 39.087C29.8782 38.5708 29.2441 38.0546 28.5656 37.5532C28.2559 37.3172 28.2264 37.1107 28.5067 36.8305C28.8459 36.4913 29.1703 36.1521 29.5095 35.8129C29.5685 35.7244 29.6865 35.6654 29.7897 35.6064Z" fill="black"/>
<path d="M32.4444 40.9893C32.5919 41.0777 32.7393 41.1515 32.8721 41.2547C33.639 41.8446 34.4059 42.4493 35.1728 43.0392C35.4972 43.2752 35.512 43.4964 35.2023 43.7324C35.1728 43.7619 35.1433 43.7914 35.1138 43.8061C33.8012 44.927 33.8012 44.927 32.4149 43.8651C31.943 43.5112 31.471 43.1425 30.9991 42.7738C30.6451 42.5083 30.5861 42.2723 30.9991 42.0069C31.3825 41.7562 31.7217 41.4612 32.0904 41.1957C32.2084 41.122 32.3264 41.063 32.4444 40.9893Z" fill="black"/>
<path d="M32.4444 40.9893C32.5919 41.0777 32.7393 41.1515 32.8721 41.2547C33.639 41.8446 34.4059 42.4493 35.1728 43.0392C35.4972 43.2752 35.512 43.4964 35.2023 43.7324C35.1728 43.7619 35.1433 43.7914 35.1138 43.8061C33.8012 44.927 33.8012 44.927 32.4149 43.8651C31.943 43.5112 31.471 43.1425 30.9991 42.7738C30.6451 42.5083 30.5861 42.2723 30.9991 42.0069C31.3825 41.7562 31.7217 41.4612 32.0904 41.1957C32.2084 41.122 32.3264 41.063 32.4444 40.9893Z" fill="black"/>
<path d="M20.9114 41.3728C21.6046 41.0926 22.2977 40.7976 22.9909 40.5174C23.0941 40.4732 23.2564 40.5026 23.3301 40.5616C24.2887 41.2843 25.2473 42.0069 26.206 42.7296C26.206 42.8033 26.1912 42.8771 26.1912 42.9508C25.4686 43.2458 24.7607 43.5555 24.038 43.8504C23.9643 43.8799 23.8315 43.8357 23.7578 43.7767C22.8287 43.054 21.9143 42.3314 20.9999 41.6087C20.9557 41.5793 20.9557 41.5055 20.9114 41.3728Z" fill="black"/>
<path d="M20.9114 41.3728C21.6046 41.0926 22.2977 40.7976 22.9909 40.5174C23.0941 40.4732 23.2564 40.5026 23.3301 40.5616C24.2887 41.2843 25.2473 42.0069 26.206 42.7296C26.206 42.8033 26.1912 42.8771 26.1912 42.9508C25.4686 43.2458 24.7607 43.5555 24.038 43.8504C23.9643 43.8799 23.8315 43.8357 23.7578 43.7767C22.8287 43.054 21.9143 42.3314 20.9999 41.6087C20.9557 41.5793 20.9557 41.5055 20.9114 41.3728Z" fill="black"/>
<path d="M26.0437 38.8948C26.6926 38.4081 27.2236 37.9804 27.784 37.5822C27.8725 37.5232 28.1379 37.597 28.2559 37.6855C29.0671 38.2901 29.8635 38.9243 30.6599 39.529C30.9991 39.7797 30.9696 40.0009 30.6599 40.2369C30.6304 40.2664 30.6009 40.2811 30.5714 40.3106C28.8901 41.5937 29.3915 41.461 27.8872 40.3254C27.3121 39.8829 26.7221 39.4257 26.0437 38.8948Z" fill="black"/>
<path d="M26.0437 38.8948C26.6926 38.4081 27.2236 37.9804 27.784 37.5822C27.8725 37.5232 28.1379 37.597 28.2559 37.6855C29.0671 38.2901 29.8635 38.9243 30.6599 39.529C30.9991 39.7797 30.9696 40.0009 30.6599 40.2369C30.6304 40.2664 30.6009 40.2811 30.5714 40.3106C28.8901 41.5937 29.3915 41.461 27.8872 40.3254C27.3121 39.8829 26.7221 39.4257 26.0437 38.8948Z" fill="black"/>
<path d="M28.0495 43.7765C28.8311 43.3635 29.4653 43.0243 30.1142 42.7146C30.2174 42.6704 30.4534 42.7736 30.5861 42.8768C31.3678 43.452 32.1347 44.0419 32.9016 44.6319C33.226 44.8826 33.285 45.0743 32.8721 45.3398C31.3088 46.3426 31.3235 46.3426 29.8782 45.1775C29.3178 44.7203 28.7426 44.2927 28.0495 43.7765Z" fill="black"/>
<path d="M28.0495 43.7765C28.8311 43.3635 29.4653 43.0243 30.1142 42.7146C30.2174 42.6704 30.4534 42.7736 30.5861 42.8768C31.3678 43.452 32.1347 44.0419 32.9016 44.6319C33.226 44.8826 33.285 45.0743 32.8721 45.3398C31.3088 46.3426 31.3235 46.3426 29.8782 45.1775C29.3178 44.7203 28.7426 44.2927 28.0495 43.7765Z" fill="black"/>
<path d="M19.2302 36.727C19.8349 36.3878 20.4543 36.0191 21.0737 35.6947C21.1622 35.6504 21.3244 35.6652 21.3981 35.7242C22.3568 36.4468 23.3006 37.1842 24.4215 38.0396C23.6251 38.4378 22.9909 38.777 22.342 39.0867C22.2535 39.131 22.0618 39.072 21.9586 38.9982C21.0737 38.3198 20.2036 37.6414 19.3334 36.9482C19.2892 36.9188 19.2892 36.845 19.2302 36.727Z" fill="black"/>
<path d="M19.2302 36.727C19.8349 36.3878 20.4543 36.0191 21.0737 35.6947C21.1622 35.6504 21.3244 35.6652 21.3981 35.7242C22.3568 36.4468 23.3006 37.1842 24.4215 38.0396C23.6251 38.4378 22.9909 38.777 22.342 39.0867C22.2535 39.131 22.0618 39.072 21.9586 38.9982C21.0737 38.3198 20.2036 37.6414 19.3334 36.9482C19.2892 36.9188 19.2892 36.845 19.2302 36.727Z" fill="black"/>
<path d="M28.8606 41.5349C28.138 41.9036 27.5185 42.2428 26.8844 42.5378C26.7811 42.582 26.5599 42.5231 26.4419 42.4493C25.5866 41.8004 24.7459 41.1515 23.9053 40.4878C23.8463 40.4436 23.8315 40.3551 23.7726 40.2371C24.3625 39.8979 24.9376 39.5587 25.5276 39.249C25.6455 39.19 25.8225 39.2638 25.97 39.308C26.0437 39.3227 26.1027 39.3965 26.1617 39.4407C27.0466 40.1044 27.902 40.7828 28.8606 41.5349Z" fill="black"/>
<path d="M28.8606 41.5349C28.138 41.9036 27.5185 42.2428 26.8844 42.5378C26.7811 42.582 26.5599 42.5231 26.4419 42.4493C25.5866 41.8004 24.7459 41.1515 23.9053 40.4878C23.8463 40.4436 23.8315 40.3551 23.7726 40.2371C24.3625 39.8979 24.9376 39.5587 25.5276 39.249C25.6455 39.19 25.8225 39.2638 25.97 39.308C26.0437 39.3227 26.1027 39.3965 26.1617 39.4407C27.0466 40.1044 27.902 40.7828 28.8606 41.5349Z" fill="black"/>
</svg>
