<svg width="121" height="81" viewBox="0 0 121 81" fill="none" xmlns="http://www.w3.org/2000/svg">
<path d="M5.98887 36.758C6.06895 36.5178 6.14902 36.2776 6.30917 36.1174C7.1099 35.1566 7.99071 34.1957 8.87152 33.2348C9.11174 32.9946 9.43204 32.8344 9.75233 32.8344C11.0335 32.7543 12.2346 32.8344 13.6759 32.8344C13.4357 33.1547 13.2756 33.3149 13.1154 33.475C11.9944 34.596 10.9534 35.7971 9.83241 36.9182C9.51211 37.2385 9.51211 37.4787 9.75233 37.8791C11.1136 39.961 12.4748 42.0429 13.8361 44.1248C13.9162 44.2849 14.0763 44.4451 14.2365 44.7654C13.9962 44.7654 13.756 44.8455 13.5959 44.8455C12.4748 44.8455 11.3538 44.8455 10.2328 44.8455C9.83241 44.8455 9.59219 44.6853 9.35197 44.365C8.6313 43.1639 7.91064 41.9628 7.1099 40.6816C7.02983 40.5215 6.86968 40.2813 6.70954 40.1211C6.06895 40.6016 5.5885 41.082 5.66858 41.8827C5.74865 42.6034 5.66858 43.3241 5.66858 44.0447C5.66858 44.6052 5.50843 44.8455 4.94792 44.8455C4.14718 44.7654 3.34644 44.8455 2.54571 44.8455C1.98519 44.8455 1.82504 44.6052 1.82504 44.1248C1.82504 41.7226 1.82504 39.3204 1.82504 36.8381C1.82504 35.7171 1.82504 34.6761 1.82504 33.5551C1.82504 33.0746 1.98519 32.8344 2.54571 32.8344C3.34644 32.8344 4.22725 32.8344 5.02799 32.8344C5.50843 32.8344 5.74865 32.9946 5.74865 33.475C5.74865 34.2757 5.74865 35.0765 5.74865 35.8772C5.74865 36.0374 5.74865 36.2776 5.82872 36.4377C5.82872 36.5979 5.9088 36.678 5.98887 36.758Z" fill="black"/>
<path d="M5.98887 36.758C6.06895 36.5178 6.14902 36.2776 6.30917 36.1174C7.1099 35.1566 7.99071 34.1957 8.87152 33.2348C9.11174 32.9946 9.43204 32.8344 9.75233 32.8344C11.0335 32.7543 12.2346 32.8344 13.6759 32.8344C13.4357 33.1547 13.2756 33.3149 13.1154 33.475C11.9944 34.596 10.9534 35.7971 9.83241 36.9182C9.51211 37.2385 9.51211 37.4787 9.75233 37.8791C11.1136 39.961 12.4748 42.0429 13.8361 44.1248C13.9162 44.2849 14.0763 44.4451 14.2365 44.7654C13.9962 44.7654 13.756 44.8455 13.5959 44.8455C12.4748 44.8455 11.3538 44.8455 10.2328 44.8455C9.83241 44.8455 9.59219 44.6853 9.35197 44.365C8.6313 43.1639 7.91064 41.9628 7.1099 40.6816C7.02983 40.5215 6.86968 40.2813 6.70954 40.1211C6.06895 40.6016 5.5885 41.082 5.66858 41.8827C5.74865 42.6034 5.66858 43.3241 5.66858 44.0447C5.66858 44.6052 5.50843 44.8455 4.94792 44.8455C4.14718 44.7654 3.34644 44.8455 2.54571 44.8455C1.98519 44.8455 1.82504 44.6052 1.82504 44.1248C1.82504 41.7226 1.82504 39.3204 1.82504 36.8381C1.82504 35.7171 1.82504 34.6761 1.82504 33.5551C1.82504 33.0746 1.98519 32.8344 2.54571 32.8344C3.34644 32.8344 4.22725 32.8344 5.02799 32.8344C5.50843 32.8344 5.74865 32.9946 5.74865 33.475C5.74865 34.2757 5.74865 35.0765 5.74865 35.8772C5.74865 36.0374 5.74865 36.2776 5.82872 36.4377C5.82872 36.5979 5.9088 36.678 5.98887 36.758Z" fill="black"/>
<path d="M60.1187 37.2384C60.1987 37.2384 60.2788 37.2384 60.2788 37.2384C61.2397 35.9572 62.6009 35.717 64.0423 36.1174C65.5637 36.5178 66.2843 37.6388 66.6046 39.0801C66.9249 40.2812 66.8449 41.5624 66.3644 42.6834C65.6437 44.445 63.8021 45.486 62.0404 45.0856C61.4799 44.9255 60.9995 44.6052 60.439 44.2849C60.439 45.2458 60.439 46.1266 60.439 47.0875C60.439 47.9683 60.439 47.9683 59.6382 47.9683C58.9976 47.9683 58.357 47.9683 57.6364 47.9683C57.236 47.9683 57.0759 47.8882 57.0759 47.4078C57.0759 43.8845 57.0759 40.3613 57.0759 36.758C57.0759 36.3576 57.236 36.2775 57.6364 36.2775C58.1969 36.2775 58.7574 36.2775 59.3179 36.2775C59.8784 36.2775 60.1987 36.3576 60.1187 36.9982C60.0386 36.9982 60.0386 37.0783 60.1187 37.2384ZM63.4017 40.4414C63.3216 40.041 63.2415 39.6406 63.1615 39.2403C62.9212 38.6797 62.5209 38.3595 61.8803 38.2794C61.2397 38.2794 60.8393 38.5997 60.5991 39.1602C60.439 39.5606 60.3589 40.041 60.3589 40.5214C60.3589 41.7225 60.9995 42.4432 61.8803 42.4432C62.7611 42.4432 63.4017 41.6425 63.4017 40.4414Z" fill="black"/>
<path d="M60.1187 37.2384C60.1987 37.2384 60.2788 37.2384 60.2788 37.2384C61.2397 35.9572 62.6009 35.717 64.0423 36.1174C65.5637 36.5178 66.2843 37.6388 66.6046 39.0801C66.9249 40.2812 66.8449 41.5624 66.3644 42.6834C65.6437 44.445 63.8021 45.486 62.0404 45.0856C61.4799 44.9255 60.9995 44.6052 60.439 44.2849C60.439 45.2458 60.439 46.1266 60.439 47.0875C60.439 47.9683 60.439 47.9683 59.6382 47.9683C58.9976 47.9683 58.357 47.9683 57.6364 47.9683C57.236 47.9683 57.0759 47.8882 57.0759 47.4078C57.0759 43.8845 57.0759 40.3613 57.0759 36.758C57.0759 36.3576 57.236 36.2775 57.6364 36.2775C58.1969 36.2775 58.7574 36.2775 59.3179 36.2775C59.8784 36.2775 60.1987 36.3576 60.1187 36.9982C60.0386 36.9982 60.0386 37.0783 60.1187 37.2384ZM63.4017 40.4414C63.3216 40.041 63.2415 39.6406 63.1615 39.2403C62.9212 38.6797 62.5209 38.3595 61.8803 38.2794C61.2397 38.2794 60.8393 38.5997 60.5991 39.1602C60.439 39.5606 60.3589 40.041 60.3589 40.5214C60.3589 41.7225 60.9995 42.4432 61.8803 42.4432C62.7611 42.4432 63.4017 41.6425 63.4017 40.4414Z" fill="black"/>
<path d="M26.4077 39.0003C26.4878 40.7619 26.5678 42.3634 26.6479 43.9649C26.6479 44.6055 26.4878 44.8457 25.8472 44.7656C25.2867 44.6856 24.7261 44.7656 24.1656 44.7656C24.0055 44.7656 23.6852 44.4453 23.6852 44.3653C23.6852 41.8029 23.6852 39.2405 23.6852 36.6782C23.6852 36.3579 23.8453 36.1977 24.1656 36.1977C25.1265 36.1977 26.1675 36.1977 27.1283 36.1977C27.2885 36.1977 27.6088 36.438 27.6889 36.6782C28.0892 37.8793 28.4896 39.0804 28.8099 40.2815C28.89 40.3616 28.97 40.6018 29.1302 40.9221C29.2903 40.6018 29.3704 40.3616 29.4505 40.2014C29.8509 39.0003 30.1711 37.8793 30.5715 36.6782C30.5715 36.2778 30.8117 36.1177 31.2922 36.1177C32.173 36.1177 33.1339 36.1177 34.0147 36.1177C34.4151 36.1177 34.5752 36.2778 34.5752 36.7583C34.5752 39.2405 34.5752 41.7228 34.5752 44.2051C34.5752 44.6856 34.4151 44.8457 33.9346 44.8457C33.3741 44.8457 32.8937 44.8457 32.3331 44.8457C31.7726 44.9258 31.5324 44.6856 31.5324 44.045C31.6925 42.5236 31.7726 41.0022 31.8527 39.4808C31.8527 39.4007 31.8527 39.3206 31.7726 39.1605C31.6925 39.3206 31.6125 39.5608 31.5324 39.721C31.052 41.0822 30.6516 42.4435 30.2512 43.8047C30.0911 44.3653 29.9309 44.7656 29.1302 44.7656C28.4095 44.7656 28.2494 44.3653 28.0092 43.8047C27.6088 42.4435 27.1283 41.0822 26.728 39.721C26.6479 39.5608 26.5678 39.3206 26.4077 39.0003Z" fill="black"/>
<path d="M26.4077 39.0003C26.4878 40.7619 26.5678 42.3634 26.6479 43.9649C26.6479 44.6055 26.4878 44.8457 25.8472 44.7656C25.2867 44.6856 24.7261 44.7656 24.1656 44.7656C24.0055 44.7656 23.6852 44.4453 23.6852 44.3653C23.6852 41.8029 23.6852 39.2405 23.6852 36.6782C23.6852 36.3579 23.8453 36.1977 24.1656 36.1977C25.1265 36.1977 26.1675 36.1977 27.1283 36.1977C27.2885 36.1977 27.6088 36.438 27.6889 36.6782C28.0892 37.8793 28.4896 39.0804 28.8099 40.2815C28.89 40.3616 28.97 40.6018 29.1302 40.9221C29.2903 40.6018 29.3704 40.3616 29.4505 40.2014C29.8509 39.0003 30.1711 37.8793 30.5715 36.6782C30.5715 36.2778 30.8117 36.1177 31.2922 36.1177C32.173 36.1177 33.1339 36.1177 34.0147 36.1177C34.4151 36.1177 34.5752 36.2778 34.5752 36.7583C34.5752 39.2405 34.5752 41.7228 34.5752 44.2051C34.5752 44.6856 34.4151 44.8457 33.9346 44.8457C33.3741 44.8457 32.8937 44.8457 32.3331 44.8457C31.7726 44.9258 31.5324 44.6856 31.5324 44.045C31.6925 42.5236 31.7726 41.0022 31.8527 39.4808C31.8527 39.4007 31.8527 39.3206 31.7726 39.1605C31.6925 39.3206 31.6125 39.5608 31.5324 39.721C31.052 41.0822 30.6516 42.4435 30.2512 43.8047C30.0911 44.3653 29.9309 44.7656 29.1302 44.7656C28.4095 44.7656 28.2494 44.3653 28.0092 43.8047C27.6088 42.4435 27.1283 41.0822 26.728 39.721C26.6479 39.5608 26.5678 39.3206 26.4077 39.0003Z" fill="black"/>
<path d="M40.8209 40.7619C41.2212 39.4807 41.6216 38.1996 42.022 36.9184C42.1821 36.3579 42.4223 36.0376 43.0629 36.1176C43.8636 36.1977 44.7445 36.1176 45.5452 36.1176C45.9456 36.1176 46.1858 36.2778 46.1858 36.6782C46.1858 39.1604 46.1858 41.7228 46.1858 44.2051C46.1858 44.6055 46.0256 44.7656 45.6253 44.7656C45.0648 44.7656 44.4242 44.7656 43.8636 44.7656C43.3832 44.7656 43.143 44.5254 43.2231 44.0449C43.3031 42.5235 43.3832 40.9221 43.4633 39.4007C43.4633 39.3206 43.4633 39.1604 43.3832 39.0804C43.3031 39.3206 43.143 39.5608 43.143 39.721C42.6625 41.1623 42.1821 42.6036 41.7017 44.125C41.5415 44.7656 41.2212 44.8457 40.6607 44.8457C40.1002 44.8457 39.7799 44.6855 39.6197 44.125C39.2194 42.6036 38.7389 41.1623 38.2585 39.721C38.2585 39.5608 38.0983 39.3206 37.9382 39.1604C37.9382 39.4807 38.0183 39.801 38.0183 40.1213C38.0983 41.4826 38.1784 42.7638 38.2585 44.125C38.2585 44.6055 38.0983 44.8457 37.6179 44.7656C37.0574 44.7656 36.4168 44.7656 35.8563 44.7656C35.4559 44.7656 35.2958 44.6855 35.2958 44.2852C35.2157 41.7228 35.2157 39.1604 35.2157 36.6782C35.2157 36.2778 35.3758 36.1176 35.6961 36.1176C36.657 36.1176 37.698 36.1176 38.6589 36.1176C38.8991 36.1176 39.1393 36.4379 39.2194 36.5981C39.6998 37.7992 40.0201 39.0003 40.4205 40.2014C40.5006 40.3615 40.5806 40.6018 40.6607 40.7619C40.6607 40.7619 40.7408 40.7619 40.8209 40.7619Z" fill="black"/>
<path d="M40.8209 40.7619C41.2212 39.4807 41.6216 38.1996 42.022 36.9184C42.1821 36.3579 42.4223 36.0376 43.0629 36.1176C43.8636 36.1977 44.7445 36.1176 45.5452 36.1176C45.9456 36.1176 46.1858 36.2778 46.1858 36.6782C46.1858 39.1604 46.1858 41.7228 46.1858 44.2051C46.1858 44.6055 46.0256 44.7656 45.6253 44.7656C45.0648 44.7656 44.4242 44.7656 43.8636 44.7656C43.3832 44.7656 43.143 44.5254 43.2231 44.0449C43.3031 42.5235 43.3832 40.9221 43.4633 39.4007C43.4633 39.3206 43.4633 39.1604 43.3832 39.0804C43.3031 39.3206 43.143 39.5608 43.143 39.721C42.6625 41.1623 42.1821 42.6036 41.7017 44.125C41.5415 44.7656 41.2212 44.8457 40.6607 44.8457C40.1002 44.8457 39.7799 44.6855 39.6197 44.125C39.2194 42.6036 38.7389 41.1623 38.2585 39.721C38.2585 39.5608 38.0983 39.3206 37.9382 39.1604C37.9382 39.4807 38.0183 39.801 38.0183 40.1213C38.0983 41.4826 38.1784 42.7638 38.2585 44.125C38.2585 44.6055 38.0983 44.8457 37.6179 44.7656C37.0574 44.7656 36.4168 44.7656 35.8563 44.7656C35.4559 44.7656 35.2958 44.6855 35.2958 44.2852C35.2157 41.7228 35.2157 39.1604 35.2157 36.6782C35.2157 36.2778 35.3758 36.1176 35.6961 36.1176C36.657 36.1176 37.698 36.1176 38.6589 36.1176C38.8991 36.1176 39.1393 36.4379 39.2194 36.5981C39.6998 37.7992 40.0201 39.0003 40.4205 40.2014C40.5006 40.3615 40.5806 40.6018 40.6607 40.7619C40.6607 40.7619 40.7408 40.7619 40.8209 40.7619Z" fill="black"/>
<path d="M87.0232 44.7655C86.0624 44.7655 85.0214 44.8456 84.0605 44.7655C83.8203 44.7655 83.6602 44.3652 83.4199 44.0449C83.3399 44.125 83.1797 44.205 83.0196 44.2851C81.7384 45.1659 80.2971 45.246 78.8557 44.9257C77.7347 44.6855 77.1742 43.8047 77.0941 42.7637C77.014 41.4825 77.4144 40.6017 78.6155 40.2013C79.6565 39.8811 80.8576 39.7209 81.9786 39.4807C82.2989 39.4006 82.6192 39.3205 82.9395 39.1604C83.5 38.9202 83.4199 38.2796 82.9395 38.0394C82.2989 37.7191 81.4181 37.8792 80.9377 38.4397C80.7775 38.5999 80.5373 38.76 80.2971 38.76C79.5764 38.8401 78.8557 38.76 78.1351 38.76C77.5746 38.76 77.4945 38.5198 77.6546 38.0394C77.8949 37.2386 78.3753 36.6781 79.096 36.4379C81.0978 35.7172 83.0996 35.7172 85.1816 36.2777C86.3827 36.598 86.703 37.639 86.703 38.76C86.703 40.2814 86.703 41.8028 86.703 43.3242C86.783 43.8047 86.9432 44.205 87.0232 44.7655ZM83.3399 41.0021C82.6192 41.1622 81.9786 41.3224 81.2579 41.5626C80.8576 41.7227 80.5373 42.043 80.6974 42.4434C80.7775 42.7637 81.1779 43.084 81.4982 43.084C82.6993 43.4043 83.5 42.4434 83.3399 41.0021Z" fill="black"/>
<path d="M87.0232 44.7655C86.0624 44.7655 85.0214 44.8456 84.0605 44.7655C83.8203 44.7655 83.6602 44.3652 83.4199 44.0449C83.3399 44.125 83.1797 44.205 83.0196 44.2851C81.7384 45.1659 80.2971 45.246 78.8557 44.9257C77.7347 44.6855 77.1742 43.8047 77.0941 42.7637C77.014 41.4825 77.4144 40.6017 78.6155 40.2013C79.6565 39.8811 80.8576 39.7209 81.9786 39.4807C82.2989 39.4006 82.6192 39.3205 82.9395 39.1604C83.5 38.9202 83.4199 38.2796 82.9395 38.0394C82.2989 37.7191 81.4181 37.8792 80.9377 38.4397C80.7775 38.5999 80.5373 38.76 80.2971 38.76C79.5764 38.8401 78.8557 38.76 78.1351 38.76C77.5746 38.76 77.4945 38.5198 77.6546 38.0394C77.8949 37.2386 78.3753 36.6781 79.096 36.4379C81.0978 35.7172 83.0996 35.7172 85.1816 36.2777C86.3827 36.598 86.703 37.639 86.703 38.76C86.703 40.2814 86.703 41.8028 86.703 43.3242C86.783 43.8047 86.9432 44.205 87.0232 44.7655ZM83.3399 41.0021C82.6192 41.1622 81.9786 41.3224 81.2579 41.5626C80.8576 41.7227 80.5373 42.043 80.6974 42.4434C80.7775 42.7637 81.1779 43.084 81.4982 43.084C82.6993 43.4043 83.5 42.4434 83.3399 41.0021Z" fill="black"/>
<path d="M97.1126 40.5217C97.1126 41.7228 97.1126 42.9239 97.1126 44.125C97.1126 44.6055 97.0325 44.8457 96.472 44.8457C95.7513 44.8457 95.0306 44.8457 94.31 44.8457C93.8295 44.8457 93.6694 44.6856 93.6694 44.2051C93.6694 43.5645 93.6694 42.9239 93.6694 42.2033C93.6694 41.6428 93.5092 41.4826 92.9487 41.4826C92.5484 41.4826 92.0679 41.4826 91.6676 41.4826C91.107 41.4826 90.8668 41.6428 90.9469 42.2033C90.9469 42.8439 90.9469 43.4844 90.9469 44.2051C90.9469 44.6055 90.7867 44.8457 90.3864 44.8457C89.6657 44.8457 88.865 44.8457 88.1443 44.8457C87.7439 44.8457 87.5838 44.6856 87.5838 44.2852C87.5838 41.7228 87.5838 39.2405 87.5838 36.6782C87.5838 36.2778 87.7439 36.1177 88.1443 36.1177C88.9451 36.1177 89.7458 36.1177 90.4665 36.1177C90.8668 36.1177 91.027 36.2778 90.9469 36.6782C90.9469 37.3188 90.9469 37.8793 90.9469 38.5199C90.9469 38.9203 91.107 39.0804 91.5074 39.0804C91.9879 39.0804 92.4683 39.0804 92.9487 39.0804C93.4292 39.0804 93.6694 38.9203 93.5893 38.4398C93.5893 37.8793 93.5893 37.3188 93.5893 36.7583C93.6694 36.2778 93.9096 36.1177 94.31 36.1177C95.0306 36.1177 95.8314 36.1177 96.552 36.1177C97.0325 36.1177 97.1126 36.2778 97.1126 36.7583C97.1126 37.9594 97.1126 39.2405 97.1126 40.5217Z" fill="black"/>
<path d="M97.1126 40.5217C97.1126 41.7228 97.1126 42.9239 97.1126 44.125C97.1126 44.6055 97.0325 44.8457 96.472 44.8457C95.7513 44.8457 95.0306 44.8457 94.31 44.8457C93.8295 44.8457 93.6694 44.6856 93.6694 44.2051C93.6694 43.5645 93.6694 42.9239 93.6694 42.2033C93.6694 41.6428 93.5092 41.4826 92.9487 41.4826C92.5484 41.4826 92.0679 41.4826 91.6676 41.4826C91.107 41.4826 90.8668 41.6428 90.9469 42.2033C90.9469 42.8439 90.9469 43.4844 90.9469 44.2051C90.9469 44.6055 90.7867 44.8457 90.3864 44.8457C89.6657 44.8457 88.865 44.8457 88.1443 44.8457C87.7439 44.8457 87.5838 44.6856 87.5838 44.2852C87.5838 41.7228 87.5838 39.2405 87.5838 36.6782C87.5838 36.2778 87.7439 36.1177 88.1443 36.1177C88.9451 36.1177 89.7458 36.1177 90.4665 36.1177C90.8668 36.1177 91.027 36.2778 90.9469 36.6782C90.9469 37.3188 90.9469 37.8793 90.9469 38.5199C90.9469 38.9203 91.107 39.0804 91.5074 39.0804C91.9879 39.0804 92.4683 39.0804 92.9487 39.0804C93.4292 39.0804 93.6694 38.9203 93.5893 38.4398C93.5893 37.8793 93.5893 37.3188 93.5893 36.7583C93.6694 36.2778 93.9096 36.1177 94.31 36.1177C95.0306 36.1177 95.8314 36.1177 96.552 36.1177C97.0325 36.1177 97.1126 36.2778 97.1126 36.7583C97.1126 37.9594 97.1126 39.2405 97.1126 40.5217Z" fill="black"/>
<path d="M18.1601 45.0856C17.5996 45.0055 16.959 45.0055 16.3985 44.8454C14.0763 44.2048 12.9553 42.4432 13.2756 39.8007C13.5158 37.6387 15.1173 36.1173 17.4394 35.9572C18.1601 35.8771 18.9608 35.9572 19.6815 36.1173C22.0837 36.5978 23.2848 38.4395 23.1246 41.0819C22.9645 43.2439 21.363 44.9254 19.0409 45.0856C18.7206 45.0055 18.4003 45.0055 18.1601 45.0856ZM19.7615 40.4413C19.6014 39.9609 19.5213 39.4004 19.2811 38.9199C19.0409 38.4395 18.6405 38.1192 18.08 38.1993C17.5195 38.1993 17.1191 38.5196 16.8789 39C16.3985 40.041 16.3985 41.0819 16.8789 42.1229C17.1191 42.6834 17.5996 42.9236 18.1601 42.8435C18.7206 42.8435 19.201 42.5232 19.3612 41.9627C19.6014 41.4823 19.6815 41.0018 19.7615 40.4413Z" fill="black"/>
<path d="M18.1601 45.0856C17.5996 45.0055 16.959 45.0055 16.3985 44.8454C14.0763 44.2048 12.9553 42.4432 13.2756 39.8007C13.5158 37.6387 15.1173 36.1173 17.4394 35.9572C18.1601 35.8771 18.9608 35.9572 19.6815 36.1173C22.0837 36.5978 23.2848 38.4395 23.1246 41.0819C22.9645 43.2439 21.363 44.9254 19.0409 45.0856C18.7206 45.0055 18.4003 45.0055 18.1601 45.0856ZM19.7615 40.4413C19.6014 39.9609 19.5213 39.4004 19.2811 38.9199C19.0409 38.4395 18.6405 38.1192 18.08 38.1993C17.5195 38.1993 17.1191 38.5196 16.8789 39C16.3985 40.041 16.3985 41.0819 16.8789 42.1229C17.1191 42.6834 17.5996 42.9236 18.1601 42.8435C18.7206 42.8435 19.201 42.5232 19.3612 41.9627C19.6014 41.4823 19.6815 41.0018 19.7615 40.4413Z" fill="black"/>
<path d="M56.3552 42.2829C56.1149 43.1637 55.6345 43.7243 54.9939 44.1246C53.3124 45.3257 50.1895 45.3257 48.4279 44.2047C46.8264 43.1638 46.346 41.5623 46.5862 39.7206C46.8264 37.7988 48.0275 36.5176 49.8692 36.0372C52.9921 35.2365 56.2751 36.5176 56.5954 40.4412C56.6755 40.9217 56.5153 41.0818 55.9548 41.0818C54.1131 41.0818 52.3515 41.0818 50.5098 41.0818C49.8692 41.0818 49.7891 41.242 50.0293 41.8025C50.5098 43.0837 52.0312 43.404 52.912 42.5232C52.9921 42.4431 53.1522 42.2829 53.3124 42.2829C54.2733 42.2829 55.2341 42.2829 56.3552 42.2829ZM53.1522 39.4804C53.0721 38.5195 52.5116 37.959 51.7109 37.8789C50.9102 37.7988 50.1094 38.2793 50.0293 38.9999C50.0293 39.1601 50.1895 39.4804 50.2696 39.4804C51.2305 39.5604 52.1913 39.4804 53.1522 39.4804Z" fill="black"/>
<path d="M56.3552 42.2829C56.1149 43.1637 55.6345 43.7243 54.9939 44.1246C53.3124 45.3257 50.1895 45.3257 48.4279 44.2047C46.8264 43.1638 46.346 41.5623 46.5862 39.7206C46.8264 37.7988 48.0275 36.5176 49.8692 36.0372C52.9921 35.2365 56.2751 36.5176 56.5954 40.4412C56.6755 40.9217 56.5153 41.0818 55.9548 41.0818C54.1131 41.0818 52.3515 41.0818 50.5098 41.0818C49.8692 41.0818 49.7891 41.242 50.0293 41.8025C50.5098 43.0837 52.0312 43.404 52.912 42.5232C52.9921 42.4431 53.1522 42.2829 53.3124 42.2829C54.2733 42.2829 55.2341 42.2829 56.3552 42.2829ZM53.1522 39.4804C53.0721 38.5195 52.5116 37.959 51.7109 37.8789C50.9102 37.7988 50.1094 38.2793 50.0293 38.9999C50.0293 39.1601 50.1895 39.4804 50.2696 39.4804C51.2305 39.5604 52.1913 39.4804 53.1522 39.4804Z" fill="black"/>
<path d="M112.487 44.7652C111.606 44.7652 110.645 44.7652 109.764 44.7652C109.284 44.7652 109.124 44.6051 109.124 44.1246C109.124 42.5231 109.124 40.9217 109.124 39.3202C109.124 38.7597 108.963 38.5195 108.323 38.5195C106.882 38.5195 107.042 38.5995 107.042 37.2383C107.042 35.9571 106.882 36.1172 108.243 36.1172C109.364 36.1172 110.485 36.1172 111.526 36.1172C112.166 36.1172 112.407 36.3575 112.327 36.9981C112.246 37.5586 112.327 38.1191 112.327 38.6796C112.327 39.08 112.487 39.2401 112.887 39.2401C113.768 39.2401 114.729 39.2401 115.61 39.4003C117.131 39.6405 118.092 40.7615 118.092 42.1228C118.092 43.6442 117.051 44.6851 115.289 44.7652C114.408 44.8453 113.448 44.7652 112.487 44.7652ZM113.287 42.9235C113.688 42.8434 114.008 42.8434 114.328 42.7634C114.809 42.6032 115.049 42.0427 114.809 41.5623C114.569 41.1619 112.887 40.9217 112.487 41.242L112.407 41.322C112.407 41.8025 112.327 42.2829 112.487 42.7634C112.487 42.8434 113.047 42.9235 113.287 42.9235Z" fill="black"/>
<path d="M112.487 44.7652C111.606 44.7652 110.645 44.7652 109.764 44.7652C109.284 44.7652 109.124 44.6051 109.124 44.1246C109.124 42.5231 109.124 40.9217 109.124 39.3202C109.124 38.7597 108.963 38.5195 108.323 38.5195C106.882 38.5195 107.042 38.5995 107.042 37.2383C107.042 35.9571 106.882 36.1172 108.243 36.1172C109.364 36.1172 110.485 36.1172 111.526 36.1172C112.166 36.1172 112.407 36.3575 112.327 36.9981C112.246 37.5586 112.327 38.1191 112.327 38.6796C112.327 39.08 112.487 39.2401 112.887 39.2401C113.768 39.2401 114.729 39.2401 115.61 39.4003C117.131 39.6405 118.092 40.7615 118.092 42.1228C118.092 43.6442 117.051 44.6851 115.289 44.7652C114.408 44.8453 113.448 44.7652 112.487 44.7652ZM113.287 42.9235C113.688 42.8434 114.008 42.8434 114.328 42.7634C114.809 42.6032 115.049 42.0427 114.809 41.5623C114.569 41.1619 112.887 40.9217 112.487 41.242L112.407 41.322C112.407 41.8025 112.327 42.2829 112.487 42.7634C112.487 42.8434 113.047 42.9235 113.287 42.9235Z" fill="black"/>
<path d="M76.7739 39.4005C75.6529 39.4005 74.692 39.4005 73.8112 39.4005C73.6511 39.4005 73.4108 39.2403 73.3308 39.0001C73.0905 38.4396 72.6101 38.1193 71.9695 38.1193C71.3289 38.1193 70.7684 38.4396 70.6883 39.0802C70.5282 39.8809 70.5282 40.7617 70.6083 41.6425C70.6883 42.3632 71.2488 42.7636 71.8894 42.7636C72.6101 42.8436 73.0105 42.5233 73.3308 41.8827C73.4108 41.7226 73.7311 41.5625 73.8913 41.4824C74.692 41.4023 75.4927 41.4824 76.2935 41.4824C76.6939 41.4824 76.854 41.6425 76.6939 42.0429C76.3736 43.3241 75.5728 44.1248 74.3717 44.6053C72.8503 45.1658 71.3289 45.1658 69.8075 44.6853C68.2061 44.1248 67.2452 42.9237 67.085 41.082C66.9249 39.1602 67.4854 37.4787 69.3271 36.5178C71.1688 35.5569 73.1706 35.637 75.0123 36.5979C76.0533 37.1584 76.6939 38.0392 76.7739 39.4005Z" fill="black"/>
<path d="M76.7739 39.4005C75.6529 39.4005 74.692 39.4005 73.8112 39.4005C73.6511 39.4005 73.4108 39.2403 73.3308 39.0001C73.0905 38.4396 72.6101 38.1193 71.9695 38.1193C71.3289 38.1193 70.7684 38.4396 70.6883 39.0802C70.5282 39.8809 70.5282 40.7617 70.6083 41.6425C70.6883 42.3632 71.2488 42.7636 71.8894 42.7636C72.6101 42.8436 73.0105 42.5233 73.3308 41.8827C73.4108 41.7226 73.7311 41.5625 73.8913 41.4824C74.692 41.4023 75.4927 41.4824 76.2935 41.4824C76.6939 41.4824 76.854 41.6425 76.6939 42.0429C76.3736 43.3241 75.5728 44.1248 74.3717 44.6053C72.8503 45.1658 71.3289 45.1658 69.8075 44.6853C68.2061 44.1248 67.2452 42.9237 67.085 41.082C66.9249 39.1602 67.4854 37.4787 69.3271 36.5178C71.1688 35.5569 73.1706 35.637 75.0123 36.5979C76.0533 37.1584 76.6939 38.0392 76.7739 39.4005Z" fill="black"/>
<path d="M102.077 36.1177C103.438 36.1177 104.8 36.1177 106.161 36.1177C106.721 36.1177 106.882 36.2778 106.882 36.8383C106.882 38.9203 107.042 38.5199 105.2 38.6C103.599 38.6 103.839 38.3597 103.759 40.0413C103.759 41.4025 103.759 42.6837 103.759 44.045C103.759 44.6055 103.599 44.8457 102.958 44.8457C102.317 44.7656 101.677 44.8457 100.956 44.8457C100.476 44.8457 100.316 44.6856 100.316 44.2051C100.316 42.6036 100.316 41.0022 100.316 39.4007C100.316 38.7601 100.075 38.6 99.5148 38.6C98.9543 38.6 98.3938 38.6 97.8333 38.6C97.4329 38.6 97.2728 38.4398 97.2728 38.0394C97.1927 36.1177 97.1927 36.1177 99.1145 36.1177C100.075 36.1177 101.116 36.1177 102.077 36.1177Z" fill="black"/>
<path d="M102.077 36.1177C103.438 36.1177 104.8 36.1177 106.161 36.1177C106.721 36.1177 106.882 36.2778 106.882 36.8383C106.882 38.9203 107.042 38.5199 105.2 38.6C103.599 38.6 103.839 38.3597 103.759 40.0413C103.759 41.4025 103.759 42.6837 103.759 44.045C103.759 44.6055 103.599 44.8457 102.958 44.8457C102.317 44.7656 101.677 44.8457 100.956 44.8457C100.476 44.8457 100.316 44.6856 100.316 44.2051C100.316 42.6036 100.316 41.0022 100.316 39.4007C100.316 38.7601 100.075 38.6 99.5148 38.6C98.9543 38.6 98.3938 38.6 97.8333 38.6C97.4329 38.6 97.2728 38.4398 97.2728 38.0394C97.1927 36.1177 97.1927 36.1177 99.1145 36.1177C100.075 36.1177 101.116 36.1177 102.077 36.1177Z" fill="black"/>
<path d="M116.651 32.9946C115.93 32.9946 115.289 33.5551 115.289 34.3559C115.289 35.0765 115.85 35.7171 116.571 35.7171C117.371 35.7171 117.932 35.1566 118.012 34.3559C117.932 33.6352 117.371 32.9946 116.651 32.9946ZM115.61 33.7954C115.85 33.3149 116.41 33.0747 116.971 33.2348C116.731 33.4751 116.731 33.4751 116.41 33.3149C116.33 33.395 116.25 33.5551 116.17 33.7153C116.09 33.7954 116.01 33.9555 116.01 34.0356C116.33 34.0356 116.33 34.0356 116.49 33.5551C116.571 33.6352 116.731 33.7153 116.811 33.7954C116.811 33.7954 115.85 34.516 116.01 35.1566C115.45 34.8363 115.369 34.2758 115.61 33.7954ZM116.25 35.1566C116.25 34.9965 116.25 34.8363 116.33 34.6762C116.49 34.436 116.731 34.2758 116.891 34.3559C117.051 34.436 117.051 34.7562 116.891 34.9965C116.731 35.2367 116.571 35.3168 116.41 35.3168C116.33 35.3168 116.33 35.2367 116.25 35.1566ZM116.731 35.4769C116.651 35.4769 116.571 35.4769 116.49 35.4769C116.731 35.4769 116.971 35.3968 117.131 35.0765C117.371 34.7562 117.291 34.3559 117.131 34.2758C116.891 34.1157 116.571 34.2758 116.41 34.5961C116.25 34.8363 116.25 34.9965 116.25 35.2367C116.25 35.1566 116.17 35.0765 116.17 34.9965C116.17 34.7562 116.25 34.5961 116.571 34.2758L117.131 33.5551C117.531 33.7954 117.772 34.1957 117.612 34.7562C117.612 34.9965 117.211 35.3968 116.731 35.4769Z" fill="black"/>
<path d="M116.651 32.9946C115.93 32.9946 115.289 33.5551 115.289 34.3559C115.289 35.0765 115.85 35.7171 116.571 35.7171C117.371 35.7171 117.932 35.1566 118.012 34.3559C117.932 33.6352 117.371 32.9946 116.651 32.9946ZM115.61 33.7954C115.85 33.3149 116.41 33.0747 116.971 33.2348C116.731 33.4751 116.731 33.4751 116.41 33.3149C116.33 33.395 116.25 33.5551 116.17 33.7153C116.09 33.7954 116.01 33.9555 116.01 34.0356C116.33 34.0356 116.33 34.0356 116.49 33.5551C116.571 33.6352 116.731 33.7153 116.811 33.7954C116.811 33.7954 115.85 34.516 116.01 35.1566C115.45 34.8363 115.369 34.2758 115.61 33.7954ZM116.25 35.1566C116.25 34.9965 116.25 34.8363 116.33 34.6762C116.49 34.436 116.731 34.2758 116.891 34.3559C117.051 34.436 117.051 34.7562 116.891 34.9965C116.731 35.2367 116.571 35.3168 116.41 35.3168C116.33 35.3168 116.33 35.2367 116.25 35.1566ZM116.731 35.4769C116.651 35.4769 116.571 35.4769 116.49 35.4769C116.731 35.4769 116.971 35.3968 117.131 35.0765C117.371 34.7562 117.291 34.3559 117.131 34.2758C116.891 34.1157 116.571 34.2758 116.41 34.5961C116.25 34.8363 116.25 34.9965 116.25 35.2367C116.25 35.1566 116.17 35.0765 116.17 34.9965C116.17 34.7562 116.25 34.5961 116.571 34.2758L117.131 33.5551C117.531 33.7954 117.772 34.1957 117.612 34.7562C117.612 34.9965 117.211 35.3968 116.731 35.4769Z" fill="black"/>
</svg>
