<svg width="74" height="54" viewBox="0 0 74 54" fill="none" xmlns="http://www.w3.org/2000/svg">
<path d="M26.86 22.2259C29.5467 23.5259 31.6267 25.4325 33.1 27.9459C34.5733 30.3725 35.31 33.2759 35.31 36.6559C35.31 41.6825 33.7067 45.7125 30.5 48.7459C27.2933 51.7792 23.1767 53.2959 18.15 53.2959C13.1233 53.2959 9.00666 51.7792 5.79999 48.7459C2.59332 45.7125 0.98999 41.6825 0.98999 36.6559C0.98999 34.4025 1.29332 32.1492 1.89999 29.8959C2.50666 27.6425 3.89332 24.2192 6.05999 19.6259L15.16 0.255859H33.36L26.86 22.2259ZM64.56 22.2259C67.2467 23.5259 69.3267 25.4325 70.8 27.9459C72.2733 30.3725 73.01 33.2759 73.01 36.6559C73.01 41.6825 71.4067 45.7125 68.2 48.7459C64.9933 51.7792 60.8767 53.2959 55.85 53.2959C50.8233 53.2959 46.7067 51.7792 43.5 48.7459C40.2933 45.7125 38.69 41.6825 38.69 36.6559C38.69 34.4025 38.9933 32.1492 39.6 29.8959C40.2067 27.6425 41.5933 24.2192 43.76 19.6259L52.86 0.255859H71.06L64.56 22.2259Z" fill="#FFCD1A"/>
</svg>
