<svg width="51" height="51" viewBox="0 0 51 51" fill="none" xmlns="http://www.w3.org/2000/svg">
<path fill-rule="evenodd" clip-rule="evenodd" d="M18.6683 38.0123C15.631 36.3991 13.1779 33.6706 11.9822 30.158C9.70474 23.4679 12.7765 16.2483 18.9087 13.1504C19.148 13.0288 19.3913 12.9138 19.6383 12.8058C19.7119 12.7694 19.7882 12.7367 19.8671 12.7082C21.1724 12.165 22.5775 11.8135 24.0472 11.6891C24.1522 11.6736 24.2596 11.6656 24.3689 11.6656L24.3693 11.6655L24.3693 11.6656C25.5779 11.6656 26.5576 12.6453 26.5576 13.8539C26.5576 15.0625 25.5779 16.0422 24.3693 16.0422L24.3693 16.0545C23.2923 16.1515 22.2665 16.4259 21.3212 16.8482L21.3214 16.849C21.2184 16.8947 21.1166 16.9421 21.0159 16.9911C17.8181 18.5569 15.616 21.8432 15.616 25.6439C15.616 28.4451 16.8122 30.967 18.7217 32.7265C18.1438 31.9071 17.8043 30.9075 17.8043 29.8286C17.8043 27.0489 20.0577 24.7955 22.8375 24.7955C25.6172 24.7955 27.8706 27.0489 27.8706 29.8286C27.8706 32.6084 25.6172 34.8618 22.8375 34.8618C22.6865 34.8618 22.537 34.8551 22.3894 34.8421C23.2915 35.1218 24.2505 35.2725 25.2446 35.2725C25.7934 35.2725 26.3314 35.2266 26.8551 35.1384C27.3527 35.0531 27.8501 34.9275 28.3432 34.7597C33.2298 33.0962 35.9093 27.8931 34.4946 22.9852L34.505 22.9817L34.505 22.9815C34.1155 21.8374 34.7273 20.5942 35.8714 20.2047C37.0155 19.8152 38.2587 20.427 38.6482 21.5711C38.6811 21.6679 38.7069 21.7655 38.7258 21.8632C39.1105 23.2303 39.2773 24.6123 39.2456 25.9701C39.2485 26.0159 39.2499 26.062 39.2499 26.1085C39.2499 26.2109 39.2429 26.3116 39.2293 26.4102C39.0474 29.7841 37.6713 32.8407 35.5163 35.1646C34.738 36.0062 33.8505 36.7581 32.8657 37.3961C31.2876 38.4216 29.4899 39.1378 27.5588 39.4589C25.5722 39.7948 23.5836 39.689 21.7115 39.1998C20.6421 38.9218 19.6223 38.5206 18.6683 38.0123ZM31.372 19.5434C33.064 19.5434 34.4356 18.1718 34.4356 16.4798C34.4356 14.7877 33.064 13.4161 31.372 13.4161C29.6799 13.4161 28.3083 14.7877 28.3083 16.4798C28.3083 18.1718 29.6799 19.5434 31.372 19.5434Z" fill="black"/>
</svg>
