<svg width="50" height="51" viewBox="0 0 50 51" fill="none" xmlns="http://www.w3.org/2000/svg">
<path d="M21.8813 12.584C22.9248 11.5241 23.9429 10.4367 25.0119 9.40613C26.1303 10.4594 27.2279 11.5371 28.3494 12.5856C27.2231 13.6275 26.1319 14.7085 25.0151 15.7618C23.9413 14.7345 22.928 13.6421 21.8813 12.584Z" fill="black"/>
<path fill-rule="evenodd" clip-rule="evenodd" d="M33.4845 18.252C31.0251 17.3596 28.4258 16.9598 25.828 16.8135C25.828 18.7316 25.829 20.6498 25.8299 22.5679C25.832 26.7242 25.834 30.8805 25.8264 35.0368C26.557 35.0356 27.2875 35.037 28.0181 35.0384C29.2967 35.0409 30.5753 35.0433 31.8539 35.0319C32.5746 35.0514 33.1457 34.4549 33.3875 33.8063C33.9548 32.4144 34.5281 31.0249 35.1014 29.6353L35.1014 29.6352L35.1018 29.6344L35.102 29.6338C35.9559 27.5641 36.8098 25.4942 37.6444 23.4162C38.0628 23.6617 38.4668 23.9315 38.8645 24.2111C38.7092 24.731 38.5021 25.2336 38.2953 25.7354L38.2944 25.7376C38.2558 25.8312 38.2172 25.9249 38.1789 26.0186C37.6193 27.4105 37.058 28.8013 36.4968 30.192L36.4943 30.1982C35.8438 31.8101 35.1933 33.422 34.5455 35.0352C35.4475 35.0401 36.3479 35.0401 37.2499 35.0352C37.4999 34.4529 37.7515 33.8711 38.003 33.2892C39.4207 30.01 40.8394 26.7283 42 23.3447C39.4945 21.1405 36.6327 19.32 33.4845 18.252ZM34.8478 22.0947C32.9039 21.2023 30.8326 20.6139 28.7392 20.2156C28.7503 24.3736 28.7567 28.5332 28.7408 32.6928C28.9008 32.6914 29.0614 32.6954 29.222 32.6994C29.6029 32.7089 29.9843 32.7183 30.3602 32.6555C30.9011 32.44 31.1095 31.8774 31.3016 31.3586C31.3298 31.2824 31.3577 31.2071 31.3862 31.134C31.6566 30.45 31.9267 29.7659 32.1967 29.0818L32.2143 29.0371C32.9934 27.0635 33.7724 25.0902 34.5583 23.1204C34.589 23.0071 34.6408 22.8923 34.6929 22.7767C34.7949 22.5507 34.8983 22.3216 34.8478 22.0947Z" fill="black"/>
<path fill-rule="evenodd" clip-rule="evenodd" d="M24.1879 16.8167C22.3267 16.9321 20.4607 17.1288 18.6535 17.6148C14.6988 18.5788 11.04 20.6269 8 23.3707C8.29916 24.1129 8.60398 24.8535 8.9089 25.5943C10.18 28.6824 11.4529 31.775 12.3254 35.0092C13.0194 35.048 13.7148 35.0432 14.4103 35.0384C14.7637 35.036 15.1171 35.0335 15.4704 35.0368C14.8736 33.5023 14.2519 31.9771 13.6302 30.4518L13.63 30.4515C12.7852 28.3788 11.9403 26.306 11.1577 24.2094C11.5586 23.9494 11.9499 23.673 12.3365 23.3935C13.2161 25.4619 14.0671 27.543 14.9181 29.6241L14.9182 29.6243C15.5016 31.0511 16.0851 32.4779 16.6778 33.9006C16.9212 34.5118 17.4891 35.0498 18.1668 35.0319C20.1743 35.0449 22.1819 35.0417 24.1895 35.0303C24.1895 33.2092 24.1899 31.3882 24.1904 29.5671V29.5614C24.1914 25.3132 24.1924 21.065 24.1879 16.8167ZM21.272 20.2107C19.1419 20.622 17.0452 21.2397 15.0615 22.1321C15.6769 23.6441 16.2756 25.164 16.8743 26.684L16.8744 26.6844C17.5803 28.4764 18.2861 30.2684 19.0194 32.0475C19.3507 32.787 20.1331 32.7382 20.8317 32.6946C20.9884 32.6848 21.1409 32.6753 21.2831 32.675C21.269 30.216 21.271 27.7571 21.2731 25.2982C21.2745 23.6024 21.2759 21.9066 21.272 20.2107Z" fill="black"/>
<path d="M12.9267 36.4786C21.0397 36.4786 29.1528 36.477 37.2658 36.4786C37.2658 37.4539 37.2658 38.4308 37.2658 39.4061C29.1528 39.4061 21.0397 39.4061 12.9267 39.4061C12.9267 38.4308 12.9267 37.4539 12.9267 36.4786Z" fill="black"/>
</svg>
