<svg width="50" height="51" viewBox="0 0 50 51" fill="none" xmlns="http://www.w3.org/2000/svg">
<path fill-rule="evenodd" clip-rule="evenodd" d="M31.36 37.312C34.1178 37.312 37.1102 38.2611 40.4221 41.2064C40.7539 41.5014 41.1955 41.1348 40.9061 40.7683C37.6513 36.6437 34.6409 35.8584 31.6386 35.1943C27.9665 34.3822 26.0776 32.3084 24.7611 30.0312C24.4991 29.5782 24.3816 29.6581 24.3582 30.2404C24.3293 30.9526 24.3782 31.895 24.5369 32.8223C24.3889 32.8292 24.2398 32.8273 24.0901 32.8273C18.8364 32.8273 14.5774 28.5529 14.5774 23.2798C14.5774 18.0068 18.8364 13.7321 24.0901 13.7321C29.3437 13.7321 33.6027 18.0068 33.6027 23.2798C33.6027 23.655 33.5845 24.0258 33.5424 24.3897C32.8475 24.264 31.4806 24.2497 30.5214 24.333C30.1605 24.3643 30.2113 24.533 30.4842 24.5825C33.6286 25.1529 35.7891 27.1088 36.2829 30.6582C36.2942 30.7396 36.4006 30.7642 36.4429 30.6937C37.7368 28.5264 38.4801 25.9901 38.4801 23.2798C38.4801 15.3032 32.0375 8.83679 24.0901 8.83679C16.1427 8.83679 9.70001 15.3032 9.70001 23.2798C9.70001 31.2565 16.1427 37.7235 24.0901 37.7235C26.1986 37.7235 28.2902 37.312 31.36 37.312ZM32.4312 32.0682C33.0712 32.6115 33.266 33.2574 32.9273 33.7129C32.739 33.9626 32.4337 34.1005 32.0681 34.1005C31.7089 34.1005 31.3428 33.967 31.0888 33.7444C30.5067 33.2341 30.3357 32.406 30.7158 31.9358C30.8642 31.752 31.1055 31.6506 31.3946 31.6506C31.7463 31.6506 32.1143 31.7992 32.4312 32.0682ZM35.385 30.6884C35.4791 31.3215 35.2798 31.5835 35.0797 31.5835C34.8615 31.5835 34.5874 31.3269 34.264 30.8208C33.9449 30.3209 33.8282 29.7477 33.9863 29.4579C34.0908 29.2661 34.3095 29.1828 34.5853 29.2875C35.1193 29.49 35.329 30.3104 35.385 30.6884Z" fill="black"/>
</svg>
