<svg width="51" height="51" viewBox="0 0 51 51" fill="none" xmlns="http://www.w3.org/2000/svg">
<path fill-rule="evenodd" clip-rule="evenodd" d="M41.25 19.9254L25.75 10.4061L10.25 19.9254H41.25ZM25.75 17.3292C26.7066 17.3292 27.4821 16.5543 27.4821 15.5984C27.4821 14.6426 26.7066 13.8677 25.75 13.8677C24.7934 13.8677 24.018 14.6426 24.018 15.5984C24.018 16.5543 24.7934 17.3292 25.75 17.3292Z" fill="black"/>
<path d="M33.213 20.7907H38.9537V21.9446H33.213V20.7907Z" fill="black"/>
<path d="M33.213 35.7907H38.9537V36.9446H33.213V35.7907Z" fill="black"/>
<path d="M34.3611 23.0984H37.8056V34.6369H34.3611V23.0984Z" fill="black"/>
<path d="M22.8796 20.7907H28.6204V21.9446H22.8796V20.7907Z" fill="black"/>
<path d="M22.8796 35.7907H28.6204V36.9446H22.8796V35.7907Z" fill="black"/>
<path d="M24.0278 23.0984H27.4722V34.6369H24.0278V23.0984Z" fill="black"/>
<path d="M12.5463 20.7907H18.287V21.9446H12.5463V20.7907Z" fill="black"/>
<path d="M12.5463 35.7907H18.287V36.9446H12.5463V35.7907Z" fill="black"/>
<path d="M13.6944 23.0984H17.1389V34.6369H13.6944V23.0984Z" fill="black"/>
<path d="M10.25 39.2523C10.25 37.9778 11.2781 36.9446 12.5463 36.9446H38.9537C40.2219 36.9446 41.25 37.9778 41.25 39.2523V40.4061H10.25V39.2523Z" fill="black"/>
</svg>
