<svg width="50" height="51" viewBox="0 0 50 51" fill="none" xmlns="http://www.w3.org/2000/svg">
<path fill-rule="evenodd" clip-rule="evenodd" d="M10 38.292C10 39.7358 11.1705 40.9062 12.6143 40.9062H37.8857C39.3295 40.9062 40.5 39.7358 40.5 38.292V13.0205C40.5 11.5767 39.3295 10.4062 37.8857 10.4062H12.6143C11.1705 10.4062 10 11.5767 10 13.0205V38.292ZM12.7895 33.4515V27.101H13.951L14.0195 27.1122H14.0763L14.1444 27.1235H14.2013L14.2694 27.1461L14.4398 27.18L14.4966 27.2026L14.6103 27.2485L14.6671 27.271L14.7126 27.2936L14.7582 27.3279L14.815 27.3504L14.9516 27.4531L14.9971 27.4987L15.0426 27.5329L15.0881 27.5784L15.1224 27.624L15.1679 27.6695L15.2364 27.7606L15.2819 27.8174L15.3161 27.8742L15.3504 27.9197L15.3733 27.9765L15.4076 28.0334L15.4418 28.1018C15.6374 28.5207 15.7375 29.0124 15.7375 29.5587C15.7375 30.3418 15.6126 30.9402 15.362 31.3456C15.1388 31.7098 14.8543 31.8919 14.5083 31.8919C14.2668 31.8919 14.0414 31.7852 13.8367 31.6074V33.4515H12.7895ZM13.7799 27.9996H13.8822C14.1463 27.9996 14.3514 28.1522 14.4967 28.4435C14.6424 28.7349 14.713 29.1854 14.713 29.8094C14.713 30.1463 14.6719 30.4125 14.5765 30.5946C14.4854 30.7767 14.367 30.8678 14.2352 30.8678C14.1077 30.8678 14.0028 30.7815 13.9165 30.6172C13.8302 30.458 13.7799 30.2282 13.7799 29.923V27.9996ZM37.3394 26.8778L37.4257 26.7914L37.6763 33.461H36.6292C36.6292 33.461 36.4882 29.4954 36.4791 29.2634C36.3287 29.4226 35.0131 30.8161 34.9858 30.8477V33.461H33.9616V27.0963H34.9858V29.3362C35.1497 29.1632 37.3394 26.8778 37.3394 26.8778ZM32.4312 26.8781L32.4264 26.8872L32.4173 26.8916L32.4082 26.9054L32.3944 26.9189L32.335 26.9783L32.3124 27.0012L32.2851 27.0285L32.2578 27.0606L32.2258 27.0923L32.1941 27.124L32.162 27.1604L32.0848 27.2376L32.0029 27.3243L31.9165 27.4153L31.8255 27.5111L31.7301 27.6113L31.6299 27.7158L31.525 27.8203L31.4205 27.9296L31.3156 28.0436L31.1018 28.2665L30.9972 28.3758L30.8927 28.4807L30.7926 28.5852L30.6971 28.6901L30.6017 28.7859L30.515 28.8769L30.4331 28.9633L30.3923 29.0041L30.3559 29.0452L30.3194 29.0816L30.2874 29.1181L30.2557 29.1501L30.2284 29.1822L30.1737 29.2368L30.1512 29.2597L30.1147 29.2962L30.1009 29.3144L30.0871 29.3235L30.078 29.3373V27.0974H29.0487V33.4621H30.0776V30.8488C30.0994 30.8236 30.9402 29.9328 31.3563 29.4919L31.5709 29.2645C31.58 29.4965 31.7213 33.4621 31.7213 33.4621H32.7637L32.5131 26.7914L32.4312 26.8781ZM26.4125 31.804L26.4762 31.8812C26.8361 32.3183 27.346 32.5368 27.9917 32.5372H28.0416V33.6524H27.9917C27.0083 33.6524 26.2296 33.3246 25.6651 32.6873C25.1326 32.0816 24.8594 31.2759 24.8594 30.3016C24.8594 29.2909 25.1097 28.4853 25.6014 27.9069C26.143 27.2651 26.9399 26.9464 27.9779 26.9464H28.0278V28.0573H27.9779C27.3132 28.0573 26.8033 28.2711 26.4525 28.6991C26.1339 29.0906 25.97 29.6234 25.97 30.2925L25.9794 30.5293L25.9885 30.6433L26.0024 30.7573L26.0206 30.8665L26.0435 30.9758L26.0708 31.076L26.0982 31.1805L26.1298 31.2763L26.171 31.3717L26.2122 31.4628L26.2577 31.5538L26.3032 31.6401L26.3578 31.7268L26.4125 31.804ZM18.2415 26.941C17.6908 26.941 17.2512 27.2528 16.9325 27.8629C16.6229 28.4638 16.466 29.2629 16.466 30.2416C16.466 31.2523 16.6138 32.0696 16.9099 32.6658C17.2104 33.2759 17.6588 33.5877 18.2415 33.5877C18.8381 33.5877 19.3091 33.2577 19.6416 32.6203C19.9512 32.0237 20.1082 31.218 20.1082 30.2299C20.1082 29.2556 19.9486 28.4587 19.6299 27.8625L19.5615 27.7489L19.5385 27.692L19.493 27.6465L19.47 27.601L19.4245 27.5555L19.3218 27.4189L19.242 27.3391L19.1965 27.3049L19.1623 27.2706L19.1167 27.2364L19.0825 27.2022L19.037 27.1679L18.9915 27.145L18.8549 27.0772L18.7638 27.0313L18.7183 27.0201L18.6615 26.9971L18.6159 26.9858L18.5591 26.9745L18.5136 26.9632H18.4681L18.3544 26.9407H18.2415V26.941ZM18.879 28.5913C18.7471 28.1724 18.5329 27.9652 18.2416 27.9652C17.9866 27.9652 17.7932 28.1746 17.6603 28.5793C17.5146 29.0025 17.4439 29.5627 17.4439 30.2409C17.4439 30.9056 17.5146 31.4723 17.6603 31.9141C17.8016 32.3377 17.9906 32.5515 18.2408 32.5515H18.321L18.3439 32.5402H18.3669L18.3894 32.5289L18.4124 32.5176H18.4353L18.4583 32.5063L18.4696 32.495L18.5155 32.4724L18.5384 32.4498L18.561 32.4385L18.5839 32.416L18.5952 32.3934L18.6178 32.3821L18.6291 32.3595L18.652 32.3369L18.6746 32.3144L18.6859 32.2914L18.6972 32.2572L18.7202 32.2342L18.7314 32.2L18.7544 32.177L18.7657 32.1428L18.7883 32.1086L18.8334 31.9716L18.8564 31.9261C18.9973 31.489 19.0611 30.9176 19.0611 30.2303C19.0611 29.5201 19.0064 28.969 18.879 28.5913ZM22.5292 31.8812L22.5018 31.8448L22.4698 31.804L22.4104 31.7268L22.3605 31.6401L22.3103 31.5538L22.2647 31.4628L22.2239 31.3717L22.1875 31.2763L22.1511 31.1805L22.1238 31.076L22.0965 30.9758L22.06 30.7573L22.0466 30.6433L22.0375 30.5293L22.0284 30.4109V30.2925C22.0284 29.6234 22.1875 29.0906 22.511 28.6991C22.857 28.2711 23.3669 28.0573 24.0316 28.0573H24.0862V26.9464H24.0316C22.9979 26.9464 22.1966 27.2651 21.6598 27.9069C21.1633 28.4853 20.9179 29.2909 20.9179 30.3016C20.9179 31.2759 21.1863 32.0816 21.7235 32.6873C22.2833 33.3246 23.0664 33.6524 24.0501 33.6524H24.1V32.5372H24.0501C23.3986 32.5368 22.8886 32.3183 22.5292 31.8812ZM12.7997 24.1599V17.7635H16.6106V24.1599H15.4359V18.8241H13.9791V24.1599H12.7997ZM20.2218 17.5964C19.5979 17.5964 19.0971 17.9103 18.7423 18.5299C18.3916 19.1356 18.2186 19.9369 18.2186 20.9199C18.2186 21.935 18.3825 22.7661 18.7194 23.3671C19.0606 23.9819 19.5662 24.2889 20.2218 24.2889C20.8909 24.2889 21.419 23.968 21.7923 23.3215C22.143 22.7206 22.3273 21.908 22.3273 20.9199C22.3273 19.9365 22.1361 19.1305 21.781 18.5299L21.6783 18.3594L21.6328 18.3139L21.5985 18.2571L21.553 18.2116L21.5188 18.166L21.3479 17.9952L21.2114 17.8925L21.1545 17.8583L21.109 17.8353L21.0635 17.8011L21.018 17.7781L20.9611 17.7552L20.9156 17.7326L20.802 17.6867L20.7565 17.6754L20.6996 17.6525L20.4724 17.6073H20.3471L20.2903 17.596H20.2218V17.5964ZM20.9276 19.2925C20.7776 18.8828 20.5521 18.6777 20.2334 18.6777C19.9464 18.6777 19.7348 18.8758 19.5826 19.2801C19.4234 19.699 19.3436 20.2522 19.3436 20.9304C19.3436 21.5907 19.4234 22.1505 19.5826 22.5923L19.6055 22.6266L19.6281 22.695L19.651 22.7293L19.6623 22.7748L19.6736 22.7978L19.6962 22.832L19.7075 22.8662L19.7304 22.8892L19.7417 22.9121L19.7647 22.9464L19.7876 22.9693L19.7989 22.9923L19.8219 23.0152L19.8448 23.0378L19.8561 23.0607L19.8791 23.072L19.902 23.0946L19.9246 23.1059L19.9475 23.1288L20.0164 23.1627L20.0389 23.174L20.0619 23.1853H20.0848L20.1307 23.2079H20.2334C20.5248 23.2079 20.7386 23.0123 20.8934 22.5934C21.0526 22.1655 21.1323 21.5984 21.1323 20.9202C21.1323 20.21 21.0642 19.6658 20.9276 19.2925ZM28.739 17.7635V18.8241H29.7177V24.1599H30.897V18.8241H31.8895V17.7635H28.739ZM25.5157 19.9897H26.1571V17.7632H27.3365V24.1596H26.1571V21.0685H25.2968C24.8372 21.0685 24.4362 20.9275 24.1131 20.6496C23.7853 20.3674 23.6171 20.0079 23.6171 19.589V17.7632H24.796V19.4706C24.796 19.6163 24.8372 19.7303 24.9282 19.8123C25.0514 19.9307 25.2517 19.9897 25.5157 19.9897ZM33.4248 17.7673L33.2084 24.164H34.3808C34.3808 24.164 34.4901 21.1753 34.4945 21.0339H35.9626C35.9765 21.1661 36.3039 24.164 36.3039 24.164H37.4876L36.9413 19.486V19.3156L36.93 19.2587V19.2019L36.9187 19.1564V19.0996L36.9074 19.054L36.8961 18.9972L36.851 18.8151L36.828 18.7696L36.8054 18.6785L36.7825 18.633L36.7596 18.5988L36.7366 18.5532L36.7253 18.519L36.7024 18.4735L36.6794 18.4392L36.6452 18.405L36.6222 18.3595L36.5993 18.3365L36.5651 18.291L36.4736 18.1996L36.4394 18.1766L36.4165 18.1424L36.3709 18.1082C36.0752 17.8758 35.6742 17.7665 35.1646 17.7665H33.4248V17.7673ZM34.9727 18.8254H34.5513V18.9048L34.54 18.9278V19.2581L34.5287 19.3036V19.7589L34.5174 19.7931V19.9749H35.8264C35.7853 19.5604 35.715 19.2647 35.6101 19.1099C35.4826 18.9234 35.2776 18.8254 34.9727 18.8254Z" fill="black"/>
</svg>
