<svg width="51" height="51" viewBox="0 0 51 51" fill="none" xmlns="http://www.w3.org/2000/svg">
<path fill-rule="evenodd" clip-rule="evenodd" d="M24.6337 38.9061C31.5373 38.9061 37.1337 33.3097 37.1337 26.4061C37.1337 19.5026 31.5373 13.9061 24.6337 13.9061C17.7302 13.9061 12.1337 19.5026 12.1337 26.4061C12.1337 33.3097 17.7302 38.9061 24.6337 38.9061ZM24.5444 16.5847C24.002 16.5847 23.5623 17.0178 23.5623 17.552V26.2573H16.6873C16.1449 26.2573 15.7052 26.6904 15.7052 27.2246C15.7052 27.7588 16.1449 28.1918 16.6873 28.1918H24.5444C25.0869 28.1918 25.5266 27.7588 25.5266 27.2246V17.552C25.5266 17.0178 25.0869 16.5847 24.5444 16.5847Z" fill="black"/>
<path fill-rule="evenodd" clip-rule="evenodd" d="M24.6337 38.9061C31.5373 38.9061 37.1337 33.3097 37.1337 26.4061C37.1337 19.5026 31.5373 13.9061 24.6337 13.9061C17.7302 13.9061 12.1337 19.5026 12.1337 26.4061C12.1337 33.3097 17.7302 38.9061 24.6337 38.9061ZM24.5444 16.5847C24.002 16.5847 23.5623 17.0178 23.5623 17.552V26.2573H16.6873C16.1449 26.2573 15.7052 26.6904 15.7052 27.2246C15.7052 27.7588 16.1449 28.1918 16.6873 28.1918H24.5444C25.0869 28.1918 25.5266 27.7588 25.5266 27.2246V17.552C25.5266 17.0178 25.0869 16.5847 24.5444 16.5847Z" fill="#FFCD1A"/>
</svg>
