<svg width="39" height="39" viewBox="0 0 39 39" fill="none" xmlns="http://www.w3.org/2000/svg">
<path fill-rule="evenodd" clip-rule="evenodd" d="M13.3787 5.7262H25.5387C26.7979 5.7262 27.8187 6.74699 27.8187 8.0062V30.8062C27.8187 32.0654 26.7979 33.0862 25.5387 33.0862H13.3787C12.1195 33.0862 11.0987 32.0654 11.0987 30.8062V8.0062C11.0987 6.74699 12.1195 5.7262 13.3787 5.7262ZM13.3787 8.00625C12.959 8.00625 12.6187 8.34651 12.6187 8.76625V28.5263C12.6187 28.946 12.959 29.2863 13.3787 29.2863H25.5387C25.9584 29.2863 26.2987 28.946 26.2987 28.5263V8.76625C26.2987 8.34651 25.9584 8.00625 25.5387 8.00625H13.3787ZM14.8988 14.8463H24.0188C24.4385 14.8463 24.7788 15.1866 24.7788 15.6063V21.6863C24.7788 22.1061 24.4385 22.4463 24.0188 22.4463H14.8988C14.4791 22.4463 14.1388 22.1061 14.1388 21.6863V15.6063C14.1388 15.1866 14.4791 14.8463 14.8988 14.8463ZM16.4188 17.1263C15.999 17.1263 15.6588 17.4665 15.6588 17.8863C15.6588 18.306 15.999 18.6463 16.4188 18.6463H17.1788C17.5985 18.6463 17.9388 18.306 17.9388 17.8863C17.9388 17.4665 17.5985 17.1263 17.1788 17.1263H16.4188ZM16.4188 19.4062C15.999 19.4062 15.6588 19.7465 15.6588 20.1663C15.6588 20.586 15.999 20.9263 16.4188 20.9263H20.9788C21.3985 20.9263 21.7388 20.586 21.7388 20.1663C21.7388 19.7465 21.3985 19.4062 20.9788 19.4062H16.4188ZM18.3188 30.8062C18.1089 30.8062 17.9388 30.9764 17.9388 31.1862V31.9462C17.9388 32.1561 18.1089 32.3262 18.3188 32.3262H20.5988C20.8087 32.3262 20.9788 32.1561 20.9788 31.9462V31.1862C20.9788 30.9764 20.8087 30.8062 20.5988 30.8062H18.3188ZM8.81872 16.3663C9.23845 16.3663 9.57872 16.7066 9.57872 17.1263V21.6863C9.57872 22.1061 9.23845 22.4463 8.81872 22.4463C8.39898 22.4463 8.05872 22.1061 8.05872 21.6863V17.1263C8.05872 16.7066 8.39898 16.3663 8.81872 16.3663ZM30.0988 16.3663C30.5185 16.3663 30.8588 16.7066 30.8588 17.1263V21.6863C30.8588 22.1061 30.5185 22.4463 30.0988 22.4463C29.6791 22.4463 29.3388 22.1061 29.3388 21.6863V17.1263C29.3388 16.7066 29.6791 16.3663 30.0988 16.3663ZM5.77874 14.0863C6.19847 14.0863 6.53874 14.4265 6.53874 14.8463V23.9663C6.53874 24.386 6.19847 24.7263 5.77874 24.7263C5.359 24.7263 5.01874 24.386 5.01874 23.9663V14.8463C5.01874 14.4265 5.359 14.0863 5.77874 14.0863ZM33.1388 14.0863C33.5585 14.0863 33.8988 14.4265 33.8988 14.8463V23.9663C33.8988 24.386 33.5585 24.7263 33.1388 24.7263C32.719 24.7263 32.3788 24.386 32.3788 23.9663V14.8463C32.3788 14.4265 32.719 14.0863 33.1388 14.0863Z" fill="#FFCD1A"/>
</svg>
