<svg width="51" height="51" viewBox="0 0 51 51" fill="none" xmlns="http://www.w3.org/2000/svg">
<path fill-rule="evenodd" clip-rule="evenodd" d="M29.5245 17.3457L29.4997 24.612L16.0333 33.7861L33.0923 28.2231V17.3457H36.5731V35.6198H15.3672C14.1083 35.6198 13.0779 34.5894 13.0779 33.3303L13.0782 19.8822C13.0782 18.1287 13.2252 17.0159 16.8566 14.3051C19.8631 12.0609 29.4997 4.39172 29.4997 4.39172L29.5245 17.3457ZM23.3459 16.8104C22.5587 17.7486 22.4322 18.9387 23.0638 19.4686C23.6952 19.9985 24.8457 19.6676 25.6327 18.7294C26.4202 17.7911 26.5464 16.6006 25.915 16.0707C25.2835 15.5407 24.1334 15.872 23.3459 16.8104Z" fill="#FFCD1A"/>
</svg>
