<svg width="36" height="36" viewBox="0 0 36 36" fill="none" xmlns="http://www.w3.org/2000/svg">
<path fill-rule="evenodd" clip-rule="evenodd" d="M13.3969 13.7813L23.7822 7.88044L23.7822 7.88043C23.3454 7.64056 22.9087 7.4007 22.4234 7.2088L13.4455 12.342L9.41752 10.0873C9.2301 10.2725 9.06279 10.4777 8.8897 10.6899C8.79387 10.8074 8.69628 10.9271 8.59251 11.0467L13.3969 13.7813ZM25.966 9.51156L13.3969 16.6597L7.33075 13.2056C7.52487 12.8218 7.71899 12.438 7.9131 12.1022L13.4455 15.2205L24.9469 8.64803C25.0602 8.74397 25.1734 8.83459 25.2866 8.92521C25.5131 9.10644 25.7396 9.28768 25.966 9.51156ZM13.494 19.5382L27.616 11.4785L26.8881 10.471L13.4455 18.0989L6.94251 14.4049C6.79693 14.8367 6.69987 15.2205 6.65134 15.6523L13.494 19.5382ZM28.2469 12.5819L13.4455 20.9774L6.45722 16.9955C6.40869 17.2354 6.40869 17.5232 6.40869 17.7631C6.40869 24.0477 11.5528 29.181 17.9587 29.181C24.316 29.181 29.5087 24.0957 29.5087 17.7631C29.5087 15.8921 29.0719 14.1171 28.2469 12.5819Z" fill="#FFCD1A"/>
</svg>
