<svg width="51" height="51" viewBox="0 0 51 51" fill="none" xmlns="http://www.w3.org/2000/svg">
<path fill-rule="evenodd" clip-rule="evenodd" d="M31.6854 38.1454C34.4432 38.1454 37.4357 39.0945 40.7476 42.0398C41.0794 42.3348 41.5209 41.9682 41.2316 41.6016C37.9767 37.477 34.9663 36.6918 31.9641 36.0277C28.292 35.2156 26.403 33.1418 25.0865 30.8646C24.8245 30.4115 24.707 30.4915 24.6836 31.0738C24.6548 31.786 24.7037 32.7284 24.8624 33.6556C24.7143 33.6626 24.5653 33.6607 24.4156 33.6607C19.1618 33.6607 14.9029 29.3863 14.9029 24.1132C14.9029 18.8401 19.1618 14.5655 24.4156 14.5655C29.6691 14.5655 33.9281 18.8401 33.9281 24.1132C33.9281 24.4884 33.9099 24.8592 33.8679 25.223C33.1729 25.0973 31.806 25.0831 30.8468 25.1664C30.486 25.1977 30.5368 25.3664 30.8096 25.4159C33.954 25.9862 36.1146 27.9421 36.6084 31.4916C36.6197 31.573 36.7261 31.5975 36.7683 31.527C38.0623 29.3598 38.8055 26.8235 38.8055 24.1132C38.8055 16.1366 32.363 9.67017 24.4156 9.67017C16.4682 9.67017 10.0255 16.1366 10.0255 24.1132C10.0255 32.0898 16.4682 38.5569 24.4156 38.5569C26.5241 38.5569 28.6156 38.1454 31.6854 38.1454ZM32.7567 32.9016C33.3966 33.4448 33.5915 34.0907 33.2528 34.5463C33.0644 34.796 32.7592 34.9339 32.3935 34.9339C32.0343 34.9339 31.6682 34.8004 31.4142 34.5778C30.8322 34.0674 30.6611 33.2394 31.0412 32.7692C31.1897 32.5853 31.4309 32.484 31.7201 32.484C32.0717 32.484 32.4397 32.6326 32.7567 32.9016ZM35.7104 31.5217C35.8045 32.1548 35.6053 32.4169 35.4052 32.4169C35.1869 32.4169 34.9128 32.1603 34.5894 31.6542C34.2703 31.1543 34.1537 30.581 34.3117 30.2912C34.4163 30.0994 34.635 30.0161 34.9107 30.1209C35.4447 30.3233 35.6544 31.1438 35.7104 31.5217Z" fill="#FFCD1A"/>
</svg>
