<svg width="20" height="20" viewBox="0 0 20 20" fill="none" xmlns="http://www.w3.org/2000/svg">
<mask id="mask0" mask-type="alpha" maskUnits="userSpaceOnUse" x="4" y="2" width="12" height="15">
<path fill-rule="evenodd" clip-rule="evenodd" d="M10 2C7.79086 2 6 3.79086 6 6V8C4.89543 8 4 8.89543 4 10V17H16V10C16 8.89543 15.1046 8 14 8V6C14 3.79086 12.2091 2 10 2ZM8 6V8H12V6C12 4.89543 11.1046 4 10 4C8.89543 4 8 4.89543 8 6ZM10 10C9.44772 10 9 10.4477 9 11V13C9 13.5523 9.44772 14 10 14C10.5523 14 11 13.5523 11 13V11C11 10.4477 10.5523 10 10 10Z" fill="white"/>
</mask>
<g mask="url(#mask0)">
<rect width="20" height="20" fill="black"/>
</g>
</svg>
