<svg width="141" height="125" viewBox="0 0 141 125" fill="none" xmlns="http://www.w3.org/2000/svg">
<circle cx="90.0684" cy="50.5" r="50.5" fill="#FFCD1A"/>
<path d="M45.5557 43.8889V39.4444C45.5557 38.2657 46.0239 37.1352 46.8574 36.3017C47.6909 35.4683 48.8214 35 50.0001 35C51.1789 35 52.3093 35.4683 53.1428 36.3017C53.9763 37.1352 54.4446 38.2657 54.4446 39.4444V43.8889H67.7779V39.4444C67.7779 38.2657 68.2461 37.1352 69.0796 36.3017C69.9131 35.4683 71.0436 35 72.2223 35C73.4011 35 74.5315 35.4683 75.365 36.3017C76.1985 37.1352 76.6668 38.2657 76.6668 39.4444V43.8889H81.1112C84.6474 43.8889 88.0388 45.2936 90.5393 47.7941C93.0398 50.2946 94.4446 53.686 94.4446 57.2222V101.667C94.4446 105.203 93.0398 108.594 90.5393 111.095C88.0388 113.595 84.6474 115 81.1112 115H18.889C15.3528 115 11.9614 113.595 9.46091 111.095C6.96042 108.594 5.55566 105.203 5.55566 101.667V57.2222C5.55566 53.686 6.96042 50.2946 9.46091 47.7941C11.9614 45.2936 15.3528 43.8889 18.889 43.8889H23.3334V39.4444C23.3334 38.2657 23.8017 37.1352 24.6352 36.3017C25.4687 35.4683 26.5991 35 27.7779 35C28.9566 35 30.0871 35.4683 30.9206 36.3017C31.7541 37.1352 32.2223 38.2657 32.2223 39.4444V43.8889H45.5557ZM45.5557 52.7778H32.2223V57.2222C32.2223 58.401 31.7541 59.5314 30.9206 60.3649C30.0871 61.1984 28.9566 61.6667 27.7779 61.6667C26.5991 61.6667 25.4687 61.1984 24.6352 60.3649C23.8017 59.5314 23.3334 58.401 23.3334 57.2222V52.7778H18.889C17.7103 52.7778 16.5798 53.246 15.7463 54.0795C14.9128 54.913 14.4446 56.0435 14.4446 57.2222V101.667C14.4446 102.845 14.9128 103.976 15.7463 104.809C16.5798 105.643 17.7103 106.111 18.889 106.111H81.1112C82.29 106.111 83.4204 105.643 84.2539 104.809C85.0874 103.976 85.5557 102.845 85.5557 101.667V57.2222C85.5557 56.0435 85.0874 54.913 84.2539 54.0795C83.4204 53.246 82.29 52.7778 81.1112 52.7778H76.6668V57.2222C76.6668 58.401 76.1985 59.5314 75.365 60.3649C74.5315 61.1984 73.4011 61.6667 72.2223 61.6667C71.0436 61.6667 69.9131 61.1984 69.0796 60.3649C68.2461 59.5314 67.7779 58.401 67.7779 57.2222V52.7778H54.4446V57.2222C54.4446 58.401 53.9763 59.5314 53.1428 60.3649C52.3093 61.1984 51.1789 61.6667 50.0001 61.6667C48.8214 61.6667 47.6909 61.1984 46.8574 60.3649C46.0239 59.5314 45.5557 58.401 45.5557 57.2222V52.7778ZM18.889 70.5556H27.7779V79.4444H18.889V70.5556ZM18.889 88.3333H27.7779V97.2222H18.889V88.3333ZM72.2223 88.3333H81.1112V97.2222H72.2223V88.3333ZM72.2223 70.5556H81.1112V79.4444H72.2223V70.5556ZM36.6668 70.5556H45.5557V79.4444H36.6668V70.5556ZM54.4446 70.5556H63.3334V79.4444H54.4446V70.5556ZM54.4446 88.3333H63.3334V97.2222H54.4446V88.3333ZM36.6668 88.3333H45.5557V97.2222H36.6668V88.3333Z" fill="black"/>
</svg>
