<svg width="142" height="125" viewBox="0 0 142 125" fill="none" xmlns="http://www.w3.org/2000/svg">
<circle cx="90.7129" cy="50.5" r="50.5" fill="#FFCD1A"/>
<g clip-path="url(#clip0)">
<path d="M6.58203 93.5215H89.707V99.459H6.58203V93.5215Z" fill="black" stroke="black" stroke-width="2"/>
<path d="M6.58203 105.396H89.707V111.334H6.58203V105.396Z" fill="black" stroke="black" stroke-width="2"/>
<path d="M71.8945 57.8965C70.7202 57.8965 69.5722 58.2447 68.5958 58.8971C67.6194 59.5496 66.8584 60.4769 66.409 61.5618C65.9596 62.6467 65.842 63.8406 66.0711 64.9923C66.3002 66.1441 66.8657 67.2021 67.6961 68.0324C68.5265 68.8628 69.5844 69.4283 70.7362 69.6574C71.8879 69.8865 73.0818 69.7689 74.1667 69.3195C75.2517 68.8701 76.179 68.1091 76.8314 67.1327C77.4838 66.1563 77.832 65.0083 77.832 63.834C77.832 62.2593 77.2065 60.749 76.093 59.6355C74.9795 58.522 73.4693 57.8965 71.8945 57.8965Z" fill="black" stroke="black" stroke-width="2"/>
<path d="M48.1445 75.709C45.7959 75.709 43.5 75.0125 41.5471 73.7077C39.5943 72.4029 38.0723 70.5482 37.1735 68.3784C36.2747 66.2085 36.0395 63.8208 36.4977 61.5173C36.9559 59.2138 38.0869 57.0978 39.7476 55.4371C41.4084 53.7763 43.5243 52.6454 45.8278 52.1872C48.1314 51.729 50.519 51.9641 52.6889 52.8629C54.8588 53.7617 56.7134 55.2838 58.0182 57.2366C59.3231 59.1894 60.0195 61.4853 60.0195 63.834C60.0156 66.9822 58.7632 70.0004 56.5371 72.2265C54.3109 74.4527 51.2928 75.7051 48.1445 75.709ZM48.1445 57.8965C46.9702 57.8965 45.8223 58.2447 44.8458 58.8971C43.8694 59.5496 43.1084 60.4769 42.659 61.5618C42.2096 62.6467 42.092 63.8406 42.3211 64.9923C42.5502 66.1441 43.1157 67.2021 43.9461 68.0324C44.7765 68.8628 45.8344 69.4283 46.9862 69.6574C48.1379 69.8865 49.3318 69.7689 50.4167 69.3195C51.5017 68.8701 52.429 68.1091 53.0814 67.1327C53.7338 66.1563 54.082 65.0083 54.082 63.834C54.0805 62.2598 53.4544 60.7504 52.3412 59.6373C51.2281 58.5241 49.7188 57.8981 48.1445 57.8965Z" fill="black" stroke="black" stroke-width="2"/>
<path d="M24.3945 57.8965C23.2202 57.8965 22.0723 58.2447 21.0958 58.8971C20.1194 59.5496 19.3584 60.4769 18.909 61.5618C18.4596 62.6467 18.342 63.8406 18.5711 64.9923C18.8002 66.1441 19.3657 67.2021 20.1961 68.0324C21.0265 68.8628 22.0844 69.4283 23.2362 69.6574C24.3879 69.8865 25.5818 69.7689 26.6667 69.3195C27.7517 68.8701 28.679 68.1091 29.3314 67.1327C29.9838 66.1563 30.332 65.0083 30.332 63.834C30.332 62.2593 29.7065 60.749 28.593 59.6355C27.4795 58.522 25.9693 57.8965 24.3945 57.8965Z" fill="black" stroke="black" stroke-width="2"/>
<path d="M83.7695 87.584H12.5195C10.946 87.5801 9.43806 86.9533 8.32541 85.8406C7.21277 84.728 6.58595 83.22 6.58203 81.6465V46.0215C6.58595 44.448 7.21277 42.94 8.32541 41.8274C9.43806 40.7147 10.946 40.0879 12.5195 40.084H83.7695C85.343 40.0879 86.851 40.7147 87.9637 41.8274C89.0763 42.94 89.7031 44.448 89.707 46.0215V81.6465C89.7047 83.2205 89.0784 84.7293 87.9654 85.8423C86.8524 86.9553 85.3435 87.5816 83.7695 87.584ZM83.7695 46.0215H12.5195V81.6465H83.7695V46.0215Z" fill="black" stroke="black" stroke-width="2"/>
</g>
<defs>
<clipPath id="clip0">
<rect width="100" height="100" fill="white" transform="translate(0.644531 25)"/>
</clipPath>
</defs>
</svg>
