<svg width="141" height="119" viewBox="0 0 141 119" fill="none" xmlns="http://www.w3.org/2000/svg">
<circle cx="90.0684" cy="50.5" r="50.5" fill="#FFCD1A"/>
<path d="M37.8302 65.5291C37.333 72.43 32.1531 77.8649 26.5694 77.8649C20.9858 77.8649 15.7973 72.4321 15.3087 65.5291C14.8009 58.3498 19.8427 53.2188 26.5694 53.2188C33.2961 53.2188 38.338 58.4816 37.8302 65.5291Z" stroke="black" stroke-width="8" stroke-linecap="round" stroke-linejoin="round"/>
<path d="M41.0524 91.0382C37.2174 89.2811 32.9935 88.6055 28.5168 88.6055C17.4686 88.6055 6.82396 94.0977 4.1575 104.795C3.80693 106.21 4.69504 107.611 6.14831 107.611H30.0041" stroke="black" stroke-width="8" stroke-miterlimit="10" stroke-linecap="round"/>
<path d="M80.0475 61.7175C79.4249 70.3586 73.0148 77.0152 66.0246 77.0152C59.0345 77.0152 52.6137 70.3607 52.0018 61.7175C51.3644 52.7281 57.6046 46.4199 66.0246 46.4199C74.4447 46.4199 80.6849 52.8917 80.0475 61.7175Z" stroke="black" stroke-width="8" stroke-linecap="round" stroke-linejoin="round"/>
<path d="M66.0241 90.6133C52.1776 90.6133 38.8623 97.4908 35.5266 110.885C35.0846 112.657 36.1958 114.41 38.0167 114.41H94.0336C95.8545 114.41 96.9593 112.657 96.5237 110.885C93.188 97.2762 79.8727 90.6133 66.0241 90.6133Z" fill="white" stroke="black" stroke-width="8" stroke-miterlimit="10"/>
</svg>
