<svg width="137" height="127" viewBox="0 0 137 127" fill="none" xmlns="http://www.w3.org/2000/svg">
<circle cx="85.7129" cy="50.5" r="50.5" fill="#FFCD1A"/>
<path fill-rule="evenodd" clip-rule="evenodd" d="M76.2377 53.4036H15.0513C13.699 53.4036 12.402 53.9408 11.4458 54.897C10.4896 55.8532 9.95239 57.1501 9.95239 58.5024V99.2934C9.95239 100.646 10.4896 101.943 11.4458 102.899C12.402 103.855 13.699 104.392 15.0513 104.392H76.2377C77.59 104.392 78.8869 103.855 79.8431 102.899C80.7994 101.943 81.3366 100.646 81.3366 99.2934V58.5024C81.3366 57.1501 80.7994 55.8532 79.8431 54.897C78.8869 53.9408 77.59 53.4036 76.2377 53.4036ZM15.0513 48.3047C12.3466 48.3047 9.75281 49.3791 7.84036 51.2915C5.92792 53.204 4.85352 55.7978 4.85352 58.5024L4.85352 99.2934C4.85352 101.998 5.92792 104.592 7.84036 106.504C9.75281 108.417 12.3466 109.491 15.0513 109.491H76.2377C78.9423 109.491 81.5361 108.417 83.4486 106.504C85.361 104.592 86.4354 101.998 86.4354 99.2934V58.5024C86.4354 55.7978 85.361 53.204 83.4486 51.2915C81.5361 49.3791 78.9423 48.3047 76.2377 48.3047H15.0513Z" fill="black" stroke="black" stroke-width="3"/>
<path d="M60.9408 66.151C60.9408 65.4748 61.2094 64.8264 61.6876 64.3483C62.1657 63.8702 62.8141 63.6016 63.4903 63.6016H73.688C74.3642 63.6016 75.0126 63.8702 75.4908 64.3483C75.9689 64.8264 76.2375 65.4748 76.2375 66.151V71.2499C76.2375 71.926 75.9689 72.5745 75.4908 73.0526C75.0126 73.5307 74.3642 73.7993 73.688 73.7993H63.4903C62.8141 73.7993 62.1657 73.5307 61.6876 73.0526C61.2094 72.5745 60.9408 71.926 60.9408 71.2499V66.151ZM9.95215 83.997H81.3363V94.1948H9.95215V83.997Z" fill="black" stroke="black" stroke-width="3"/>
</svg>
