<svg width="30" height="31" viewBox="0 0 30 31" fill="none" xmlns="http://www.w3.org/2000/svg">
<path fill-rule="evenodd" clip-rule="evenodd" d="M15 26.7759C20.5228 26.7759 25 22.2987 25 16.7759C25 11.253 20.5228 6.77588 15 6.77588C9.47715 6.77588 5 11.253 5 16.7759C5 22.2987 9.47715 26.7759 15 26.7759ZM19.8267 14.2759C20.2204 14.2759 20.2992 14.4746 20.2204 14.7506C20.0864 15.3896 18.9013 17.0844 18.5583 17.5749C18.4983 17.6607 18.4641 17.7096 18.4657 17.7096C18.3308 17.9305 18.2745 18.0409 18.4657 18.2838C18.5324 18.3765 18.6788 18.5178 18.8464 18.6796C19.018 18.8453 19.212 19.0325 19.3656 19.2112C19.928 19.8405 20.3442 20.3595 20.4679 20.7238C20.5804 21.0882 20.3891 21.2759 20.018 21.2759H18.7019C18.3474 21.2759 18.1695 21.0809 17.7893 20.6643C17.6268 20.4862 17.4272 20.2675 17.161 20.0062C16.3848 19.2775 16.0474 19.1781 15.8562 19.1781C15.5862 19.1781 15.5075 19.2554 15.5075 19.6197V20.768C15.5075 21.0771 15.4063 21.2648 14.5739 21.2648C13.1791 21.2648 11.6494 20.4368 10.5696 18.9131C8.94988 16.6718 8.49996 14.9825 8.49996 14.6402C8.49996 14.4525 8.5787 14.2759 8.94988 14.2759H10.2659C10.6033 14.2759 10.7271 14.4194 10.8396 14.7948C11.4807 16.6276 12.5605 18.2286 13.0104 18.2286C13.1791 18.2286 13.2579 18.1513 13.2579 17.7317V15.8327C13.23 15.2926 13.0383 15.0573 12.8963 14.883C12.809 14.7758 12.7405 14.6917 12.7405 14.574C12.7405 14.4305 12.8642 14.2759 13.0779 14.2759H15.1476C15.4175 14.2759 15.5187 14.4194 15.5187 14.7506V17.3122C15.5187 17.5771 15.6425 17.6765 15.7212 17.6765C15.8899 17.6765 16.0249 17.5771 16.3286 17.279C17.2734 16.2412 17.9371 14.6402 17.9371 14.6402C18.0271 14.4525 18.1733 14.2759 18.5107 14.2759H19.8267Z" fill="black"/>
</svg>
