<svg width="213" height="46" fill="none" xmlns="http://www.w3.org/2000/svg"><path d="M25.45 1.453c-.377.622-5.865 10.306-12.245 21.547C6.825 34.206 1.303 43.925.926 44.547L.24 45.723l1.475-.76c4.219-2.18 11.284-4.358 16.807-5.189 4.253-.622 12.622-.484 17.287.346 4.527.761 10.941 2.802 14.268 4.497l2.161 1.106-.857-1.521c-.48-.796-6.312-10.999-12.966-22.585C31.795 9.994 26.308.483 26.24.414c-.034-.07-.412.415-.789 1.038zm5.42 24.14c2.297 4.082 4.287 7.575 4.39 7.783.103.173-.48-.104-1.338-.588-4.493-2.663-10.838-2.663-15.332-.035l-1.509.865.446-.83c.446-.865 5.008-8.958 7.237-12.832.755-1.314 1.475-2.248 1.612-2.075.172.139 2.161 3.632 4.493 7.713zM199.04 7.609c-1.681.346-3.739 1.383-5.179 2.594-3.464 2.94-3.43 9.407.034 12.07 1.612 1.246 3.499 1.834 7.855 2.456 2.092.277 4.287.761 4.905 1.073 2.126 1.003 2.435 3.977.583 5.775-3.43 3.32-10.667 2.283-11.902-1.764-.206-.691-.446-.76-2.264-.76-1.955 0-2.024.034-2.024.933 0 1.453 1.304 3.805 2.847 5.12 4.219 3.665 11.696 3.665 15.915 0 1.955-1.696 2.847-3.667 2.847-6.365 0-5.015-3.053-7.367-10.839-8.335-4.733-.588-6.311-1.626-6.311-4.081 0-2.87 2.367-4.704 6.174-4.704 1.235 0 2.607.208 3.087.45 1.201.657 2.744 2.144 2.744 2.697 0 .312.618.45 2.23.45 2.572 0 2.606-.07 1.406-2.629-1.818-3.977-6.826-6.018-12.108-4.98zm-67.056.657c-7.683 2.49-12.039 10.41-10.05 18.193.755 2.905 2.058 5.084 4.322 7.263 4.631 4.462 11.319 5.465 17.081 2.56 3.636-1.834 7.238-6.503 7.821-10.17l.205-1.21h-10.701l-.515 1.868c-.308 1.038-.548 1.971-.548 2.075 0 .104 1.337.208 2.984.208h2.984l-1.475 1.521c-4.15 4.255-11.079 4.255-15.298.035-4.184-4.22-4.15-11.275.035-15.53 2.092-2.11 4.596-3.112 7.683-3.112 3.876 0 7.271 1.902 9.295 5.188.686 1.141.789 1.176 2.915 1.176 2.161 0 2.23-.035 2.024-.796-.377-1.245-1.886-3.7-3.156-5.119-3.704-4.15-10.221-5.88-15.606-4.15zm28.332-.173c-.103.277-.137 5.465-.069 11.517.137 12.59.206 12.867 2.984 15.426 2.23 1.971 4.631 2.836 8.095 2.836 4.63 0 8.369-2.006 10.221-5.5.72-1.383.755-1.729.755-13.004V7.782l-2.127-.104-2.161-.104v11.172c0 12.797.035 12.693-2.949 14.146-3.328 1.59-8.232.657-9.776-1.903-.617-1.003-.652-1.867-.652-12.243V7.609h-2.058c-1.474 0-2.126.138-2.263.484zM63.865 22.308c-3.087 7.886-5.693 14.665-5.796 15.045-.172.692-.069.727 1.99.623l2.194-.104 1.75-4.323 1.783-4.323 5.317-.104 5.316-.07 1.784 4.497 1.783 4.496h2.23c1.989 0 2.195-.07 2.023-.623-.137-.31-2.778-7.09-5.9-15.045L72.647 7.955h-3.191l-5.59 14.353zm9.158-2.282c.96 2.766 1.75 5.05 1.75 5.118 0 .07-1.612.104-3.602.104-1.99 0-3.601-.138-3.601-.311 0-.277 1.852-5.742 3.258-9.684.103-.277.24-.415.309-.346s.926 2.386 1.886 5.119zm19.586 2.801v14.872h4.459v-8.646h5.11l3.533 4.323 3.533 4.323h2.675c1.441 0 2.641-.069 2.641-.173 0-.104-1.715-2.248-3.841-4.738-3.533-4.185-3.807-4.565-3.19-4.911.377-.208 1.578-1.245 2.641-2.352 1.543-1.557 2.058-2.352 2.538-3.943 1.166-4.116-.034-8.37-3.121-11.137-2.47-2.179-3.807-2.49-10.873-2.49h-6.105v14.872zm12.073-10.722c1.715.484 3.327 1.902 4.082 3.632 1.132 2.455.686 4.98-1.201 7.056-1.612 1.763-2.778 2.11-7.065 2.11h-3.773v-6.33c0-3.493.103-6.468.24-6.572.343-.38 6.311-.276 7.717.104z" fill="#424874"/></svg>