<svg width="168" height="56" fill="none" xmlns="http://www.w3.org/2000/svg"><path d="M68.338 35.222H56.035l-5.686-11.304h-3.826v11.304H35.254V.471h17.99c4.703 0 8.373 1.204 11.113 3.559 2.43 2.146 3.67 4.71 3.67 7.693 0 2.25-.723 4.344-2.17 6.228-1.448 1.937-3.464 3.297-5.997 4.083l8.478 13.188zM46.575 8.95v6.543h4.756c1.344 0 2.378-.315 3.101-.995.776-.628 1.137-1.413 1.137-2.303 0-.837-.361-1.622-1.137-2.25-.775-.68-1.809-.995-3.101-.995h-4.756zM0 35.222V.471h18.66c3.774 0 6.72.994 8.892 2.983 1.913 1.727 2.843 3.873 2.843 6.333 0 1.465-.362 2.774-1.137 3.977-.724 1.204-1.81 2.094-3.153 2.67 1.86.628 3.36 1.727 4.445 3.297a9.143 9.143 0 011.654 5.286c0 2.774-.982 5.076-2.998 6.96-2.274 2.146-5.53 3.245-9.615 3.245H0zM16.852 8.95h-5.635v5.653h4.652c1.293 0 2.327-.314 3.05-.942.724-.628 1.138-1.361 1.138-2.146 0-.733-.259-1.308-.776-1.832-.517-.523-1.344-.733-2.43-.733zm.878 12.195h-6.513v5.652h6.513c1.086 0 1.913-.261 2.533-.732.569-.472.88-1.047.88-1.78 0-.837-.311-1.518-.88-2.198-.62-.628-1.447-.942-2.533-.942zM160.195 2.564C157.662.89 154.56 0 150.993 0c-10.286 0-17.006 6.96-17.006 17.585 0 6.804 2.791 12.142 7.547 15.073 2.533 1.622 5.634 2.564 9.201 2.564 10.287 0 17.007-6.96 17.007-17.585 0-6.803-2.843-12.142-7.547-15.073zM144.48 18.056c0-6.333 2.223-9.682 6.358-9.682 2.843 0 4.859 1.57 5.893 4.5.414 1.204.62 2.67.62 4.292 0 6.333-2.222 9.683-6.358 9.683-2.843 0-4.859-1.57-5.893-4.501-.413-1.204-.62-2.617-.62-4.292zM123.958.314s-6.771 18.58-7.34 20.987c-.465-2.303-7.185-20.987-7.185-20.987H97.647l12.768 34.908h12.613L135.848.314h-11.89zM93.356 35.222h11.786L92.374.314H79.761l-10.855 29.57 3.463 5.338h6.41s.62-1.674 1.5-4.134h11.578c.879 2.46 1.5 4.134 1.5 4.134zM83.173 22.923c1.447-4.03 2.688-7.693 2.946-8.687.207.941 1.448 4.657 2.843 8.687h-5.79z" fill="#424874"/></svg>