<svg width="244" height="36" fill="none" xmlns="http://www.w3.org/2000/svg"><path d="M242.65 9.603l1.071 1.242H244l-.279-3.914h-20.776l-.277 3.914h.277l1.073-1.242h7.589v17.419l-1.261.878v.275h5.963V27.9l-1.255-.878V9.603h7.596zm-157.8.643l4.287 8.894h-8.295l4.008-8.893v-.001zm57.947 0l4.286 8.894h-8.288l4.002-8.893v-.001zm-24.038-.55c2.794 0 4.706 1.06 4.706 3.368 0 2.304-1.912 3.365-4.706 3.365h-8.567V9.694h8.567v.002zm57.898 0c2.795 0 4.702 1.06 4.702 3.368 0 2.304-1.912 3.365-4.702 3.365h-8.573V9.694h8.573v.002zM54.637 25.503V7.992l1.16-.786V6.93h-5.772v.275l1.166.784v19.037l-1.255.88v.274H67.68l.28-3.92h-.28l-1.07 1.249H54.636v-.007.001zm145.212 0v-6.865h10.338l.793 1.153h.278v-4.886h-.278l-.793 1.148h-10.338v-6.45h13.044l1.071 1.242h.278l-.278-3.914h-18.727v.275l1.16.785v19.036l-1.255.88v.275h19.141l.279-3.92h-.279l-1.071 1.248h-13.363v-.007zM144.982 6.931h-5.82v.275l1.35 1.107-8.478 18.708-1.256.879v.275h5.542V27.9l-1.025-.878 2.286-5.162h10.852l2.517 5.162-1.261.878v.275h6.335V27.9l-1.397-1.155-9.645-19.814zm-57.94 0h-5.82v.275l1.349 1.107-8.472 18.708-1.261.879v.275h5.541V27.9l-1.023-.878 2.28-5.162h10.85l2.518 5.162-1.261.878v.275h6.335V27.9l-1.398-1.155-9.639-19.814zM118.9 19.188c5.637 0 8.152-2.263 8.152-6.129 0-3.873-2.517-6.128-8.152-6.128h-13.322v.275l1.167.785v19.036l-1.256.88v.275h5.963v-.276l-1.261-.879v-7.839h8.709zm65.762 8.022l-6.614-8.07c4.748-.321 6.891-2.536 6.891-6.081 0-3.873-2.515-6.128-8.147-6.128h-13.321v.275l1.161.785v19.036l-1.262.88v.275h5.962v-.276l-1.261-.879v-7.839h5.684l7.218 8.987h4.89V27.9l-1.201-.69zM0 16.204c0 3.448 2.422 9.065 6.218 13.446C4.72 24.548 2.738 19.569.06 14.87c-.03.432-.06.87-.06 1.333zm10.162 17.068c-1.008-6.176-2.304-12.346-4.607-18.666a56.33 56.33 0 00-3.079-7.132c-.638 1-1.158 2.07-1.551 3.19a63.065 63.065 0 012.273 4.866c2.19 5.161 3.771 10.611 4.982 16.144.627.559 1.29 1.105 1.982 1.598zm6.421-19.592c-.263-4.433-.55-8.838-1.068-13.68-1.063.12-2.101.319-3.108.582.661 4.032 1.091 8.088 1.64 13.302.721 7.247 1.21 14.552 1.611 21.912a9.785 9.785 0 001.557.204c-.084-7.132-.233-14.257-.632-22.32zm-5.215 1.19c-.776-4.175-1.779-8.351-3.455-12.46-.95.521-1.814 1.16-2.62 1.856 1.557 3.419 2.59 7.071 3.598 11.127 1.498 6.261 2.477 12.695 3.282 19.13.525.287 1.074.528 1.641.72-.4-6.692-1.145-13.361-2.446-20.374zm24.59 1.334c0-.463-.03-.901-.06-1.335-2.68 4.7-4.666 9.68-6.165 14.78 3.803-4.373 6.225-9.997 6.225-13.445zM25.79 33.272a25.698 25.698 0 001.988-1.592c1.21-5.534 2.791-10.983 4.976-16.143a61.028 61.028 0 012.273-4.867 15.752 15.752 0 00-1.552-3.19 54.312 54.312 0 00-3.079 7.13c-2.296 6.321-3.597 12.492-4.607 18.662zM19.369 13.68c-.399 8.058-.543 15.188-.632 22.32a9.627 9.627 0 001.551-.204c.406-7.36.895-14.665 1.612-21.912.548-5.22.978-9.276 1.64-13.302A21.67 21.67 0 0020.438 0c-.519 4.842-.805 9.247-1.067 13.68h-.002zm5.216 1.19c-1.296 7.012-2.047 13.68-2.447 20.373a10.872 10.872 0 001.64-.72c.807-6.435 1.786-12.87 3.283-19.13 1.008-4.062 2.042-7.708 3.598-11.127a15.315 15.315 0 00-2.62-1.857c-1.67 4.11-2.678 8.286-3.454 12.46z" fill="#424874"/></svg>