<svg width="212" height="38" fill="none" xmlns="http://www.w3.org/2000/svg"><path d="M63.222 6.439H48.963c-.734 0-1.468.317-1.992.844a2.893 2.893 0 00-.839 2.006V28.71c0 .739.315 1.478.839 2.006a2.855 2.855 0 001.992.844c.734 0 1.468-.317 1.992-.844a2.893 2.893 0 00.839-2.006V11.822h8.597v16.89c0 .738.315 1.477.84 2.005a2.855 2.855 0 001.991.844c.734 0 1.468-.317 1.992-.844a2.893 2.893 0 00.839-2.006V9.29c0-.739-.314-1.478-.839-2.006a2.855 2.855 0 00-1.992-.844zm21.39 2.217c-.315-.634-.734-1.267-1.363-1.69-.63-.422-1.259-.633-1.992-.633h-.21c-.734 0-1.468.211-1.992.634-.63.422-1.049.95-1.363 1.689l-7.969 19.422c-.524 1.16 0 2.533 1.154 3.166.314.212.734.317 1.153.317 1.153 0 2.307-.739 2.726-1.9l1.363-3.483h9.856l1.363 3.483c.21.528.629 1.056 1.048 1.372.524.317 1.049.528 1.678.528.419 0 .943-.105 1.363-.317a2.48 2.48 0 00.943-.844c.21-.422.42-.845.42-1.267 0-.422 0-.95-.21-1.372L84.612 8.656zM78.216 20.9l2.83-7.178 2.727 7.178h-5.557zm133.365 6.861l-7.759-19.105c-.315-.634-.734-1.267-1.363-1.69-.629-.422-1.258-.633-1.992-.633h-.21c-.734 0-1.468.211-1.992.634-.629.422-1.048.95-1.363 1.689l-7.968 19.422c-.315.739-.21 1.689.209 2.428.21.316.525.633.944.844.315.211.734.317 1.153.317 1.154 0 2.307-.74 2.726-1.9l1.363-3.484h9.856l1.363 3.484c.21.527.524 1.055 1.048 1.372.525.317 1.049.528 1.678.528.419 0 .839-.106 1.258-.317.839-.422 1.363-1.267 1.468-2.111-.21-.528-.21-.95-.419-1.478zm-14.26-6.861l2.831-7.178 2.726 7.178h-5.557zM113.759 6.333h-10.904c-.734 0-1.363.317-1.888.74-.524.527-.838 1.16-.838 1.9l-.21 2.321c-.42 5.384-.944 10.873-1.573 12.245-.42 1.161-1.153 2.111-2.097 2.955-.943.528-1.468 1.584-1.468 2.64 0 .738.315 1.372.734 1.794.21.21.525.422.84.527.314.106.733.212 1.048.106 4.089-.317 6.395-4.117 7.653-15.2l.525-4.75h5.452V28.5c0 .739.314 1.478.838 2.006 1.049 1.055 2.831 1.16 3.985 0a2.894 2.894 0 00.838-2.006V9.183c0-.316-.104-.739-.209-1.055-.105-.317-.315-.634-.629-.95-.21-.317-.525-.528-.944-.634-.315-.105-.734-.21-1.048-.21m27.784-.001c-.734 0-1.258.106-1.887.423-.525.316-1.049.738-1.363 1.266l-9.751 14.04V9.182c0-.739-.315-1.477-.839-2.005a2.68 2.68 0 00-3.879-.106l-.105.106a2.895 2.895 0 00-.839 2.005v19.422c0 .423.105.74.21 1.056.105.317.314.633.629.95.21.317.524.528.944.633.314.106.734.212 1.048.212 1.363.105 2.621-.634 3.355-1.795l9.751-13.933V28.5c0 .422.105.739.21 1.161.104.317.314.633.629.95.314.317.629.528.943.633.315.106.734.212 1.154.212.314 0 .733-.106 1.048-.212.315-.105.629-.316.944-.633.314-.317.524-.633.629-.95.105-.317.209-.739.209-1.161V9.183c0-.739-.314-1.477-.838-2.005-.839-.528-1.573-.845-2.202-.845zm23.905.106h-15.098c-.734 0-1.363.317-1.887.844-.21.211-.42.528-.629.845-.105.316-.21.739-.21 1.055 0 .317.105.74.21 1.056.105.316.314.633.629.844.209.211.524.422.839.528.314.106.733.211 1.048.211h4.718v16.89c0 .738.315 1.477.839 2.005 1.048 1.055 2.831 1.16 3.984 0a2.895 2.895 0 00.839-2.006V11.822h4.718c.314 0 .734-.105 1.048-.21.315-.107.629-.318.839-.529.21-.21.42-.527.629-.844.105-.317.21-.739.21-1.056 0-.316-.105-.739-.21-1.055a1.639 1.639 0 00-.629-.845c-.419-.633-1.153-.844-1.887-.844zm20.654 2.322c-1.572-1.583-3.774-2.322-7.234-2.322h-4.509c-.734 0-1.467.317-1.992.844a2.894 2.894 0 00-.838 2.006V28.71c0 .739.314 1.478.838 2.006 1.049 1.055 2.831 1.16 3.984 0a2.89 2.89 0 00.839-2.006v-5.7c.839.106 1.678.106 2.517.106 2.306.105 4.613-.74 6.29-2.428 1.573-1.584 2.517-3.695 2.517-5.911.105-2.322-.734-4.54-2.412-6.017zm-6.291 8.972c-.838 0-1.677-.105-2.621-.21v-5.7c1.573 0 2.412-.106 2.517-.106 2.306 0 3.46.95 3.46 2.955 0 2.111-1.573 3.061-3.356 3.061zM26.212 0H11.533C5.137 0 0 5.172 0 11.611V26.39C0 32.828 5.137 38 11.533 38h14.679c6.395 0 11.533-5.172 11.533-11.611V11.61C37.745 5.172 32.607 0 26.212 0z" fill="#424874"/><path d="M29.88 29.978c-3.25-.106-4.088-2.956-4.193-4.54 0-.421 0-1.9-.105-3.588.105-2.956 0-5.911-.314-8.761a8.278 8.278 0 00-1.888-3.695C21.808 7.6 19.606 6.65 17.195 6.756c-1.154-.106-2.307.105-3.46.527a7.856 7.856 0 00-2.936 1.9 11.356 11.356 0 00-1.887 2.534c-.105.21-.105.422 0 .527 0 .106.104.212.104.212.315 0 .42.105.42.105.21.106.42.106.524 0a.821.821 0 00.42-.422C11.637 9.5 14.364 7.81 17.3 7.917c3.25-.106 6.08 2.216 6.71 5.383 0 .211.104.528.104.739-1.887.528-8.387 2.217-10.59 2.744l-.418.106c-2.307.528-4.09 2.217-5.033 4.328-.63 1.689-.63 3.694.105 5.383.734 1.689 1.992 3.167 3.67 3.906 1.048.527 2.306.738 3.46.738 1.257 0 2.41-.21 3.564-.633a118.392 118.392 0 006.186-2.322c0 .105.105.105.105.211.944 1.689 2.726 2.744 4.613 2.744.21 0 .42-.105.524-.21a.809.809 0 00.21-.528.809.809 0 00-.21-.528c0 .105-.21 0-.42 0zm-5.66-8.234v1.267l-4.3 1.584c.42-1.162.42-2.428.21-3.59 0-.316-.105-.527-.21-.844-.524-1.055-1.363-2.005-2.411-2.533-.105-.106-.314-.211-.42-.211a272.042 272.042 0 007.13-1.9v6.227zm-10.276 3.59c-.734-.528-1.153-1.267-1.153-2.112 1.048-.316 3.565-1.055 5.976-1.794.63 3.166-1.048 4.116-1.887 4.328-.524.105-1.048.21-1.573.105-.42-.105-.943-.211-1.363-.528zm4.509 4.01c-1.888.74-4.09.74-5.977-.105a6.153 6.153 0 01-3.04-3.061c-1.153-2.534-.21-5.49 2.097-6.967.524-.422 1.153-.633 1.887-.844l.42-.106c1.048-.105 2.096.106 2.935.739a5.528 5.528 0 011.468 1.267l-2.726.739-2.516.738c-.42.106-.63.212-.84.317l-.314.106c-.104.105-.314.105-.42.316-.104.106-.104.317-.104.423 0 1.477.63 2.85 1.887 3.694.84.528 1.783.845 2.831.845.524 0 .944-.106 1.468-.212l.315-.105 6.71-2.428v.845c0 .527.105 1.055.314 1.583-1.468.422-4.613 1.583-6.395 2.216z" fill="#DCD6F7"/></svg>