<svg width="130" height="47" fill="none" xmlns="http://www.w3.org/2000/svg"><g clip-path="url(#clip0)" fill="#424874"><path d="M40.128 3.352h7.116c4.166 0 6.923 2.235 6.923 5.982V9.4c0 4.01-3.013 6.113-7.116 6.113h-2.243v4.865h-4.615V3.352h-.065zm6.795 8.414c1.603 0 2.628-.854 2.628-2.235v-.065c0-1.446-1.025-2.235-2.628-2.235h-2.18v4.47h2.18v.065zm8.911-8.414h7.82c2.564 0 4.295.658 5.385 1.841.961.986 1.474 2.3 1.474 3.944v.066c0 2.63-1.346 4.338-3.397 5.193l3.974 5.916h-5.32l-3.334-5.127h-2.051v5.193H55.77V3.352h.064zm7.628 8.152c1.538 0 2.436-.79 2.436-2.038V9.4c0-1.315-.962-2.038-2.5-2.038h-3.013v4.076h3.077v.066zm8.525.394c0-4.93 3.847-8.874 8.975-8.874s8.91 3.878 8.91 8.808c0 4.864-3.846 8.874-8.974 8.874s-8.91-3.944-8.91-8.808zm13.142 0c0-2.498-1.731-4.667-4.231-4.667s-4.167 2.103-4.167 4.536v.065c0 2.432 1.73 4.602 4.23 4.602 2.5 0 4.168-2.104 4.168-4.536zm6.986-8.546h13.27v4.142h-8.654v2.892h7.82v3.944h-7.82v6.048h-4.615V3.352zm15.898 0h4.616v17.026h-4.616V3.352zm7.244 0h4.615v12.884h8.013v4.142h-12.628V3.352zM40.128 26.425h6.41c5.898 0 9.36 3.484 9.36 8.414v.066c0 4.93-3.462 8.545-9.423 8.545h-6.282V26.425h-.065zm6.475 12.818c2.756 0 4.551-1.577 4.551-4.272v-.066c0-2.695-1.795-4.273-4.551-4.273h-1.86v8.677h1.86v-.066zM57.5 34.97c0-4.93 3.846-8.873 8.974-8.873 5.129 0 8.91 3.878 8.91 8.808v.066c0 4.864-3.846 8.874-8.974 8.874-5.128-.066-8.91-4.01-8.91-8.874zm13.205 0c0-2.497-1.73-4.666-4.295-4.666-2.5 0-4.166 2.103-4.166 4.535v.066c0 2.432 1.73 4.601 4.23 4.601 2.5 0 4.231-2.103 4.231-4.535zm6.411 0c0-4.93 3.846-8.873 8.974-8.873S95 29.975 95 34.905v.066c0 4.864-3.846 8.874-8.974 8.874-5.128-.066-8.91-4.01-8.91-8.874zm13.14 0c0-2.497-1.73-4.666-4.294-4.666-2.5 0-4.167 2.103-4.167 4.535v.066c0 2.432 1.731 4.601 4.231 4.601 2.564 0 4.23-2.103 4.23-4.535zm6.988-8.545h7.82c2.564 0 4.295.657 5.385 1.84.961.987 1.474 2.301 1.474 3.945v.066c0 2.629-1.346 4.338-3.397 5.192l3.974 5.917h-5.32l-3.334-5.128h-2.051v5.128H97.18v-16.96h.064zm7.628 8.151c1.538 0 2.436-.789 2.436-2.038v-.065c0-1.315-.962-2.038-2.5-2.038h-3.013v4.076h3.077v.065zm8.397 6.311l2.564-3.156c1.603 1.315 3.462 2.038 5.385 2.038 1.218 0 1.923-.46 1.923-1.183v-.066c0-.723-.577-1.117-2.82-1.643-3.526-.855-6.282-1.84-6.282-5.325 0-3.155 2.435-5.455 6.41-5.455 2.82 0 5 .788 6.795 2.234l-2.308 3.353c-1.538-1.117-3.205-1.71-4.615-1.71-1.09 0-1.667.461-1.667 1.118v.066c0 .789.577 1.118 2.885 1.643 3.782.855 6.153 2.104 6.153 5.325v.066c0 3.484-2.692 5.521-6.73 5.521-2.821 0-5.641-.92-7.693-2.826zM2.18 3.352v40.69h28.59V3.352H2.18z"/></g><defs><clipPath id="clip0"><path fill="#fff" d="M0 0h130v47H0z"/></clipPath></defs></svg>