<svg width="227" height="19" fill="none" xmlns="http://www.w3.org/2000/svg"><path d="M204.757 0l1.403 3.42h7.797L204.47 19h16.085v-3.542h-9.031L220.729 0h-15.972zm-41.671 5.841c0-1.533-1.285-2.309-2.86-2.309h-2.47v4.584h2.038c1.859 0 3.292-.639 3.292-2.275zm.673 4.728l5.516 8.43h-5.244l-4.782-7.498-1.493.007V19h-4.388V0h5.437c3.535 0 5.335.372 6.451 1.223 1.347 1.026 2.09 2.527 2.09 4.15 0 3.852-3.587 5.196-3.587 5.196zm16.312.427l-1.029-2.983c-.31-.917-.569-1.72-.681-2.327h-.035c-.107.631-.368 1.435-.682 2.27l-1.141 3.04h3.568zm.028-10.995L187.901 19h-4.715l-1.801-4.506h-6.111L173.562 19h-4.287l7.398-19h3.426zm8.089 0l1.404 3.42h7.796L187.901 19h16.085v-3.543h-9.031L204.16 0h-15.972zm-43.472 10.99l-1.028-2.982c-.313-.918-.57-1.724-.685-2.325h-.03c-.114.63-.372 1.435-.686 2.267l-1.142 3.04h3.571zM152.545 19h-4.715l-1.798-4.506h-6.116L138.203 19h-4.285l7.399-19h3.427l7.801 19zM124.898 6.545a25.32 25.32 0 00-1.372 2.382h-.057a25.868 25.868 0 00-1.456-2.238L117.298 0h-3.942v19h4.343V9.214c0-.517 0-1.263-.029-1.894h.058c.399.717.857 1.29 1.254 1.837l3.516 4.82h1.912l3.088-4.648c.314-.488 1.084-1.608 1.254-2.01h.029c-.029.575-.029 1.349-.029 2.037V19h4.343V0h-3.971l-4.226 6.545zm-26.493 4.447l-1.028-2.984c-.314-.917-.57-1.723-.685-2.324h-.03c-.114.63-.372 1.435-.686 2.267l-1.142 3.04h3.571zM106.234 19h-4.715l-1.799-4.506h-6.115L91.892 19h-4.285l7.399-19h3.427l7.801 19zM78.681 6.545a25.66 25.66 0 00-1.372 2.382h-.056a26.093 26.093 0 00-1.457-2.238L71.081 0H67.14v19h4.344V9.214c0-.517 0-1.263-.03-1.894h.059c.398.717.856 1.29 1.254 1.837l3.516 4.82h1.912l3.087-4.648c.315-.488 1.085-1.608 1.254-2.01h.03c-.03.575-.03 1.349-.03 2.037V19h4.343V0h-3.97L78.68 6.545zM222.617 19H227V0h-4.383v19zM41.487 5.841c0-1.533-1.285-2.309-2.86-2.309h-2.47v4.584h2.038c1.859 0 3.292-.639 3.292-2.275zM47.676 19h-5.244l-4.782-7.499-1.493.007V19H31.77V0h5.436c3.535 0 5.335.372 6.451 1.223 1.347 1.026 2.09 2.527 2.09 4.15 0 3.852-3.587 5.196-3.587 5.196L47.676 19zM21.85 11.136h6.104V7.578H21.85V3.532h6.074L29.376 0H17.48v19h11.445v-3.53H21.85v-4.334zm36.622-.14l-1.029-2.983c-.31-.917-.568-1.72-.681-2.327h-.035c-.107.631-.368 1.435-.682 2.27l-1.14 3.04h3.567zM66.302 19h-4.714l-1.802-4.506h-6.111L51.963 19h-4.287l7.398-19H58.5l7.802 19zM8.027 9.128L15.77 19h-5.23l-6.114-8.063h-.085V19H0V0h4.313v7.721H4.4l6.11-7.72h4.975L8.027 9.127z" fill="#424874"/></svg>