<svg width="150" height="33" fill="none" xmlns="http://www.w3.org/2000/svg"><path d="M132.519.248c-.368.118-.686.237-.702.237-.184.016-.552 1.132-.552 1.656 0 .862.485 1.487 1.354 1.74 1.354.423 2.657-.422 2.657-1.74 0-1.572-1.253-2.434-2.757-1.893zm7.169-.034c-.05.119-.067 6.185-.016 13.469.05 11.677.1 13.367.334 14.314.602 2.281 1.755 3.717 3.61 4.461.785.304 1.27.372 3.025.372 1.153.017 2.373-.05 2.724-.118l.618-.136v-2.349h-1.053c-1.704 0-2.74-.388-3.726-1.42-1.505-1.554-1.471-1.351-1.538-10.697l-.05-8.162 3.142-.034 3.142-.05.05-1.318.05-1.302h-6.367l-.034-3.6-.05-3.582-1.889-.05c-1.504-.034-1.888 0-1.972.202zM11.954 7.43c-2.675.338-5.265 1.318-7.137 2.72C.756 13.21-.932 18.754.505 24.398c.77 3.008 2.992 5.712 5.766 7.064 3.226 1.572 6.501 1.893 10.813 1.115l1.037-.186v-2.197l-.452.102c-.267.05-1.253.135-2.223.203-5.531.354-9.827-2.704-10.963-7.808-.418-1.926-.267-4.782.35-6.49 1.22-3.379 3.678-5.593 7.07-6.353.953-.22 1.755-.254 3.443-.203 1.203.05 2.323.152 2.49.22.268.118.301.033.251-1.031l-.05-1.166-.669-.119c-1.22-.22-4.161-.287-5.414-.118zm17.781.085c-1.67.355-3.977 1.537-5.214 2.67-3.927 3.616-5.315 10.359-3.225 15.784 1.22 3.194 3.86 5.424 7.604 6.489 1.153.321 1.755.372 4.429.372 2.874.017 4.111-.102 6.233-.592l.786-.186v-.912c0-.507-.05-.913-.117-.913-.084 0-.802.119-1.638.254-1.939.32-5.665.32-7.186 0-1.755-.372-3.828-1.47-4.93-2.62-1.622-1.673-2.34-3.515-2.34-6.033v-1.402h19.052V18.82c0-4.934-2.089-8.872-5.582-10.545-2.039-.98-5.315-1.301-7.872-.76zm4.045 1.504c1.771.22 3.744 1.639 4.73 3.38.702 1.233 1.17 3.21 1.17 4.934v1.403H23.918l.117-1.183c.368-3.786 2.09-6.675 4.697-7.943 1.52-.726 2.84-.895 5.047-.591zm18.5-1.539c-2.138.49-4.01 1.86-4.846 3.516-.886 1.757-.902 2.01-.902 12.252 0 5.222.05 9.531.133 9.565.067.05.986.034 2.04 0l1.921-.102-.066-8.213c-.05-8.906.016-10.02.768-11.71.702-1.606 1.956-2.502 3.978-2.857.618-.101 1.57-.152 2.106-.101l.986.084V8.765c0-1.115-.017-1.149-.452-1.25-1.052-.254-4.646-.27-5.665-.034zm14.608-.067c-2.874.49-5.08 2.18-5.9 4.53-.417 1.216-.484 2.737-.183 3.785.635 2.214 2.607 3.734 6.785 5.239 3.911 1.402 5.365 2.822 5.398 5.255.017 1.352-.267 2.197-1.086 3.093-1.237 1.352-3.643 1.977-6.367 1.622-1.354-.169-3.56-.659-4.362-.98-.234-.085-.268.05-.268.997v1.098l1.47.338c2.692.626 4.413.744 6.469.474 2.406-.322 3.844-.795 5.13-1.673 2.056-1.386 2.908-3.127 2.775-5.662-.084-1.859-.485-2.805-1.688-3.971-1.07-1.065-2.524-1.859-5.131-2.822-2.44-.913-3.343-1.37-4.212-2.163-.919-.828-1.303-1.724-1.303-3.042 0-1.792.785-3.042 2.473-3.87.903-.44 1.07-.473 3.126-.456 1.738 0 2.373.067 3.225.354l1.036.355v-.81c0-.795-.016-.812-.718-1.082-1.822-.693-4.613-.947-6.669-.609zm19.315-.795c-.819.135-1.989.405-2.59.574l-1.087.338v.778c0 .878-.133.845 1.672.355 1.855-.507 3.96-.693 5.615-.457 2.24.288 3.226.727 4.429 1.944 1.27 1.3 1.57 2.095 1.688 4.495l.083 1.774-2.724.017c-7.186.05-11.749 1.74-13.303 4.935-.418.862-.468 1.149-.468 2.653 0 1.994.284 2.974 1.22 4.225 1.254 1.707 3.71 2.873 7.02 3.38 1.153.185 3.125.253 6.852.253h5.23l-.05-9.26c-.066-9.16-.066-9.261-.45-10.428-.97-2.94-2.742-4.596-5.783-5.407-1.438-.389-5.449-.473-7.354-.17zM95.98 24.21v6.54l-3.125-.102c-3.476-.1-5.064-.371-6.652-1.115-1.37-.642-2.156-1.369-2.707-2.518-.401-.845-.468-1.166-.468-2.484 0-1.284.067-1.656.451-2.484 1.32-2.856 4.78-4.259 10.713-4.343l1.788-.017v6.523zm19.324-16.847c-2.323.27-6.016 1.064-9.81 2.095l-.635.17v23.134h3.794l.1-10.308.1-10.309.468-.422c.702-.643 2.607-1.555 3.677-1.775.535-.118 1.705-.169 2.707-.135 1.521.05 1.906.135 2.775.558 1.872.912 3.342 2.839 4.044 5.272.234.845.284 2.13.351 9.041l.05 8.078h3.844l-.05-8.821c-.067-8.382-.083-8.906-.418-10.123-1.236-4.495-4.078-6.608-8.824-6.54-.919 0-1.889.05-2.173.085zm15.961 12.64v12.76h4.011V7.243h-4.011v12.76z" fill="#424874"/></svg>