<svg width="199" height="48" fill="none" xmlns="http://www.w3.org/2000/svg"><path d="M55.733.131c-1.462.59-1.3 6.15.232 7.516.488.448.488.448.325-.212-.07-.353-.186-.919-.278-1.296l-.117-.636.372.636c.487.896.65.825.464-.235-.07-.495.023-1.626.232-2.592.534-2.568.093-3.723-1.23-3.181zm81.459.283c-.256.165-.279.565-.14 2.073.116 1.014.209 2.38.209 3.063 0 .684.07 1.178.186 1.108.093-.07.186-.283.186-.471 0-.189.116-.33.232-.33.302 0 .302.235-.116 1.39-.511 1.508 0 1.13.835-.59.65-1.319.766-1.837.766-3.25.024-2.569-.882-3.818-2.158-2.993zm-77.606.659c-.348.354-.905 1.273-1.253 2.027-.51 1.178-.604 1.626-.51 2.945.046.895.3 2.05.58 2.639l.464 1.06-.116-1.249c-.07-.73-.023-1.225.116-1.225.14 0 .302-.4.371-.895.093-.471.627-1.697 1.207-2.686 1.23-2.097 1.347-3.087.349-3.205-.395-.047-.79.142-1.208.59zM132.805.72a1.117 1.117 0 00-.279.707c0 .518.79 2.168 1.416 2.992.233.283.488.92.581 1.39.139.778.186.802.487.377.325-.4.349-.259.256 1.367-.14 2.05.093 2.168.626.377.558-1.956.465-3.416-.371-5.09-.975-1.979-2.043-2.803-2.716-2.12z" fill="#424874"/><path d="M86.655 1.144c-2.646.707-4.062 1.532-9.796 5.702-4.457 3.252-6.57 4.241-8.914 4.265-2.693 0-4.945-1.626-5.224-3.817-.07-.519-.209-.966-.301-.966-.21 0-.465.848-.465 1.578 0 .307-.093.542-.232.542-.348 0-.278-1.32.116-2.309.79-1.861 2.716-3.11 4.875-3.11 1.51 0 1.718-.448.534-1.178-1.068-.66-2.205-.589-3.853.236-3.993 2.026-4.365 7.916-.697 10.838 1.718 1.39 3.854 2.144 6.105 2.168 3.808.023 6.686-1.32 12.327-5.796 1.88-1.508 5.247-3.888 6.965-4.925l.673-.4-.697.165c-1.021.235-3.017 1.154-4.364 2.026C82.013 7.247 81.92 7.317 81.92 7.2c0-.189 2.46-2.003 3.644-2.71 2.345-1.39 5.618-1.932 7.382-1.225 2.577 1.013 3.413 4.594 1.625 6.974-1.044 1.39-3.459 1.956-4.99 1.155-.813-.425-1.626-1.532-1.626-2.239 0-.306-.093-.447-.255-.33-.348.212-.07 1.555.51 2.545 1.278 2.191 5.061 2.026 6.942-.283 1.277-1.578 1.74-4.264 1.137-6.48-.325-1.2-1.694-2.709-2.994-3.298-1.486-.683-4.504-.754-6.64-.165zm-6.894 5.702c-4.573 3.629-5.966 4.524-8.45 5.349-2.577.871-2.624.495-.07-.448 2.043-.754 3.25-1.508 7.429-4.595 2.367-1.743 3.087-2.238 3.343-2.238.115 0-.906.872-2.252 1.932zm21.588-5.749c-1.602.59-2.693 1.579-3.343 3.04-.487 1.083-.58 1.555-.51 3.11.07 1.531.209 2.003.789 2.969 1.091 1.79 2.182 2.544 3.83 2.662.836.07 1.672-.024 2.113-.188 1.021-.448 2.066-1.98 2.066-3.04l-.023-.848-.441.848c-.79 1.508-1.695 2.097-3.227 2.097-2.159 0-3.761-1.437-4.11-3.7-.301-2.002.535-3.651 2.276-4.57 1.207-.636 3.83-.613 5.525.047 1.393.518 3.644 1.767 4.155 2.262.581.589.047.613-.836.024-1.091-.707-3.691-1.838-4.201-1.838-.209.023.023.235.534.494 1.416.754 2.53 1.532 5.803 4.1 5.363 4.194 6.082 4.665 8.914 5.82 1.556.636 2.043.73 4.086.73 2.554 0 3.97-.4 5.781-1.649 2.553-1.767 3.528-4.053 3.064-7.233-.325-2.12-2.484-4.383-4.504-4.736-1.091-.189-2.553.306-3.018.99-.325.541-.325.541 1.022.541.812 0 1.741.189 2.298.448 1.904.872 3.529 3.581 2.925 4.83l-.232.495v-.495a6.69 6.69 0 00-.279-1.272l-.278-.778-.418 1.367c-.743 2.45-2.275 3.51-5.084 3.534-1.555 0-1.95-.094-3.575-.895-1.973-.943-3.436-1.909-6.755-4.406-2.299-1.72-4.666-3.252-5.92-3.84-2.623-1.203-6.523-1.627-8.427-.92zm10.516 3.723c0 .047-.209 0-.464-.141-.255-.142-.464-.307-.464-.377 0-.048.209 0 .464.14.255.142.464.307.464.378zm3.343 2.333c3.273 2.544 5.827 4.1 7.963 4.83 2.019.707 2.019.707.766.565-2.368-.283-4.875-1.696-9.17-5.136-3.83-3.11-3.505-3.299.441-.26zM51.832 1.427c-.44.707.325 3.204 1.23 4.005.442.425.442.401.372-1.178-.07-2.144-.325-2.968-.928-3.063-.279-.047-.58.071-.674.236zm89.191.236c-.255.353-.371 1.06-.371 2.026 0 .825-.116 1.696-.232 1.956-.14.235-.163.447-.047.447.395 0 1.439-1.767 1.811-3.063.348-1.201.348-1.296-.047-1.578-.557-.425-.696-.401-1.114.212zm-91.766.824c-.162.448.673 1.25 1.346 1.25.627 0 .534-.59-.162-1.155-.743-.59-.998-.613-1.184-.095zm94.227.307c-.905.871-.487 1.413.65.824.418-.212.697-.542.697-.824 0-.613-.697-.613-1.347 0z" fill="#424874"/><path d="M43.87 4.42c-2.554 1.083-4.016 3.322-4.063 6.22 0 1.32.093 1.908.488 2.662.975 1.885 2.762 2.992 4.782 2.992 1.114 0 1.509-.117 2.322-.683 1.787-1.272 2.344-3.652 1.253-5.301-.696-1.06-1.462-1.437-2.6-1.296-1.068.118-2.043 1.084-1.927 1.885.07.495.14.518 1.648.212 1.765-.354 2.484 2.568.86 3.463-.442.236-.442.213.023-.565.301-.518.418-1.013.325-1.32-.21-.66-.442-.588-.743.236-.511 1.343-2.461 1.508-3.622.283-1.184-1.272-1.439-3.157-.603-4.83.65-1.32 1.068-1.767 2.182-2.356 1.486-.778 3.18-.684 5.107.282 1.323.66 2.182 1.367 4.643 3.888 3.064 3.134 4.55 4.453 5.803 5.207.674.4.697.4.233-.023a25.02 25.02 0 00-1.393-1.202c-.488-.424-.836-.848-.743-.942.093-.071.557.212 1.044.683 1.138 1.107 3.018 2.309 5.154 3.275 1.625.754 1.88.801 4.295.801h2.553l2.229-1.107c1.578-.778 2.693-1.532 3.714-2.522.813-.777 1.393-1.484 1.323-1.578-.092-.07-.696.282-1.392.8-1.393 1.061-2.136 1.462-4.063 2.216-1.137.471-1.764.542-4.132.518-2.321-.024-3.018-.118-4.179-.565-2.437-.943-4.48-2.474-7.66-5.75-4.922-5.065-6.175-5.843-9.634-5.96-1.741-.048-2.415.023-3.227.376zm101.377-.213c-2.135.542-3.691 1.65-7.127 5.043-6.244 6.173-7.962 7.092-13.255 7.092h-2.902l-2.251-1.131c-1.254-.613-2.647-1.438-3.088-1.838-1.161-1.037-1.23-.73-.116.542 1.161 1.366 2.879 2.497 5.154 3.44 1.578.66 2.042.754 3.992.754 2.09 0 2.345-.047 4.133-.896 1.067-.494 2.716-1.437 3.667-2.073 2.461-1.626 2.508-1.65 1.765-.825-.395.4-.627.73-.534.73.348 0 3.041-2.426 5.502-4.947 3.017-3.11 4.805-4.241 7.103-4.43 2.461-.212 4.736 1.602 5.107 4.076.209 1.461-.069 2.404-.998 3.44-.743.825-.929.92-1.927.92-.952 0-1.207-.095-1.602-.613-.278-.354-.487-.801-.487-1.014 0-.33-.046-.33-.232-.023-.372.565-.256 1.225.278 1.814.279.306.418.613.325.707-.232.236-1.23-1.013-1.416-1.767-.162-.683.372-1.602 1.161-1.98.418-.188.696-.164 1.23.119.836.4.975.33.975-.542 0-.99-.882-1.65-2.182-1.65-.952 0-1.207.118-1.787.73-2.415 2.616-.209 6.81 3.435 6.527 1.742-.141 3.575-1.413 4.388-3.063.534-1.084.604-1.437.511-2.992-.07-1.178-.279-2.12-.604-2.757-.58-1.154-2.043-2.544-3.227-3.04-1.068-.447-3.83-.635-4.991-.353zm-53.857.731c-.58.33-.51 1.13.093 1.79.557.613.72 2.121.302 2.993-.14.353-.116.4.116.26.232-.142.278-.095.162.188-.185.494.047.518.72.023 1.648-1.178 1.579-4.477-.116-5.254-.673-.306-.766-.306-1.277 0zm9.751.165c-1.323.824-1.486 3.51-.279 4.783.999 1.06 1.231.919 1.115-.683-.093-1.179-.023-1.508.487-2.262.697-1.037.743-1.697.14-2.027-.604-.306-.72-.306-1.463.189zm-31.873.919c-.255.73.906 1.413 2.206 1.272.464-.047 1.392-.542 1.392-.73 0-.189-2.344-.943-2.948-.943-.278 0-.557.188-.65.4zm52.997.047c-1.462.518-1.509.612-.534 1.084 1.417.66 3.227-.071 2.833-1.155-.186-.471-.859-.448-2.299.07z" fill="#424874"/><path d="M64.624 6.422c-.975 1.485 1.323 3.676 3.853 3.676.86 0 2.763-.613 3.552-1.155l.697-.471-2.206.094c-1.3.047-1.857.024-1.37-.094l.813-.165-1.044-.188c-.813-.165-1.254-.425-1.974-1.226-1.068-1.178-1.787-1.32-2.321-.47zm62.494.471c-.743.778-1.254 1.084-2.02 1.226l-1.044.188.812.165c.511.118.046.165-1.323.118-1.161-.024-2.089.023-2.043.118.07.07.673.424 1.346.777 2.066 1.013 4.504.73 5.897-.683.882-.895 1.021-1.932.348-2.545-.627-.589-.882-.494-1.973.636zM90.182 8.59c-.209.188-.371.518-.371.707 0 .188-.163.33-.349.33-.464 0-.44.447.023.636.534.212 1.95-.542 1.95-1.06 0-.425-.417-.99-.72-.99-.092 0-.347.165-.533.377zm12.56-.212c-.348.33-.139 1.248.348 1.578.65.472 1.207.472 1.579.024.232-.306.209-.354-.209-.354-.302 0-.441-.094-.372-.259.325-.518-.928-1.437-1.346-.99zm-50.931 2.804c-.302.824.696 1.955 2.763 3.133.51.283.928.377.998.26.092-.165.325-.142.603.023 1.207.636.743-.094-1.184-1.861-2.066-1.885-2.901-2.31-3.18-1.555zm87.517 1.295c-2.368 2.215-2.809 2.663-2.437 2.45.162-.093.742-.211 1.276-.258.627-.071 1.416-.4 2.206-.966 1.346-.943 1.741-1.485 1.625-2.262-.14-.966-.836-.707-2.67 1.036zm3.589 13.784c-.835.307-1.555.637-1.625.684-.046.07.186.424.511.777l.627.66v8.506c0 4.689-.093 8.788-.209 9.095-.139.377-.464.612-.929.706-.417.095-.719.307-.719.519 0 .306.464.353 3.041.353 2.298 0 3.018-.07 2.948-.283-.07-.164-.441-.4-.836-.518-.394-.118-.789-.377-.859-.589-.069-.212-.139-4.9-.116-10.438 0-5.56-.069-10.084-.162-10.084a23.57 23.57 0 00-1.672.612zm-133.529.565c-2.484.401-5.455 1.956-6.918 3.653C1.45 31.68.404 34.06.126 35.827c-.813 5.325 2.39 10.25 7.544 11.616 1.88.495 6.198.471 8.31-.047 1.626-.4 1.626-.4 2.16-1.579.696-1.578.975-3.204.534-3.204-.186 0-.534.377-.79.848-.673 1.296-2.484 2.804-3.76 3.181-2.786.801-6.013-.024-8.195-2.05-1.068-1.037-1.509-1.673-2.112-3.11-.72-1.696-.766-1.98-.72-4.406 0-1.98.14-2.898.487-3.864 1.347-3.629 4.04-5.467 8.033-5.467 3.11 0 4.851.966 5.826 3.252.232.566.557 1.013.743 1.013.302 0 .325-.33.186-2.05-.07-1.13-.232-2.144-.348-2.262-.674-.683-6.268-1.248-8.636-.872zm118.695.378c-5.711 1.555-9.054 6.456-8.218 11.992.603 3.983 3.296 6.975 7.405 8.247 2.391.754 6.686.66 9.425-.165.789-.235.998-.447 1.509-1.555.65-1.437.952-3.11.557-3.11-.139 0-.65.613-1.137 1.343-1.602 2.45-4.481 3.581-7.545 2.922-4.689-.99-7.22-4.43-7.22-9.92-.023-3.935 1.649-6.903 4.713-8.435 1.161-.589 1.509-.636 3.946-.636 2.299 0 2.809.07 3.599.518 1.23.66 1.834 1.367 2.414 2.733.72 1.72 1.045 1.25.882-1.32-.07-1.154-.186-2.143-.232-2.214-.07-.047-.929-.26-1.927-.424-2.368-.424-6.57-.424-8.171.024zm-47.007 1.508c-.836.683-.836 1.672-.024 2.332.813.636 1.37.613 2.066-.094.674-.66.743-1.296.186-1.956-.627-.754-1.486-.872-2.228-.282zm101.05.235c-.557.566-.604 1.485-.093 1.98 1.021 1.06 2.646.494 2.646-.896 0-1.414-1.555-2.097-2.553-1.084zM34.9 35.356c-.743.377-1.346.801-1.346.943 0 .117.232.424.533.66.488.423.511.518.465 4.712-.047 4.453-.14 4.854-1.068 4.995-.279.047-.534.259-.58.495-.07.377.139.4 3.017.353 2.554-.07 3.088-.141 3.088-.424 0-.212-.325-.4-.905-.495-.488-.07-.975-.283-1.091-.471-.116-.189-.186-2.097-.163-4.241.07-3.535.116-3.982.534-4.453.348-.377.627-.472 1.16-.377 2.299.424 2.322.424 2.763-.071.86-.966-.209-2.403-1.532-2.074-.302.095-1.021.472-1.578.849-.558.377-1.115.636-1.208.589-.092-.07-.185-.495-.185-.943 0-.966-.163-.966-1.904-.047zm23.494-.495c-.186.118-.836.425-1.44.707-.627.26-1.114.59-1.114.73 0 .118.255.448.58.707.58.448.58.495.58 4.17 0 4.925-.046 5.137-1.206 5.467-.534.142-.883.354-.813.519.046.188.929.282 2.971.282 2.392 0 2.879-.07 2.879-.353 0-.189-.209-.377-.464-.424-.998-.189-1.045-.4-1.045-4.618v-4.053l.697-.683c.557-.542.951-.707 2.02-.778 2.506-.188 3.11.872 3.064 5.49-.047 3.723-.14 4.17-1.068 4.571-.418.189-.766.495-.766.66 0 .235.65.306 2.901.306 2.438 0 2.902-.047 2.902-.353 0-.212-.279-.424-.673-.495-.395-.094-.766-.377-.929-.707-.325-.754-.348-6.856 0-7.822.349-1.037 1.51-1.697 2.902-1.697 2.391 0 2.879.99 2.879 5.702 0 3.676-.163 4.241-1.277 4.524-.348.094-.58.283-.51.448.115.4 5.78.4 5.896 0 .07-.165-.186-.354-.558-.448-1.439-.354-1.462-.471-1.462-5.136 0-3.817-.047-4.336-.464-5.02-1.068-1.79-3.39-2.073-6.083-.706l-1.67.825-.767-.66c-1.509-1.343-3.366-1.437-5.571-.236-.674.354-1.277.59-1.347.519-.07-.071-.116-.472-.116-.92 0-.8-.279-.942-.928-.518zm23.051.519c-.813.4-1.463.824-1.463.942s.279.495.604.801l.603.566-.092 4.076c-.093 4.43-.163 4.689-1.37 4.948-.418.07-.673.259-.627.424.07.212.929.33 3.041.377 2.46.047 2.948 0 2.948-.283 0-.188-.371-.471-.812-.613-1.068-.353-1.138-.848-.952-6.997.116-3.935.07-5.019-.162-4.995-.14.023-.929.353-1.718.754zm101.331 0c-1.648.754-1.88 1.107-1.114 1.649.441.33.464.542.418 4.877l-.07 4.524-.789.283c-.441.141-.836.4-.906.542-.069.235.627.306 2.972.306 2.251 0 3.041-.07 2.971-.283-.046-.14-.395-.377-.789-.494-.372-.142-.743-.354-.859-.495-.093-.142-.163-2.78-.139-5.867.023-3.063 0-5.631-.047-5.655-.046-.047-.789.236-1.648.613zm-157.695-.26c-2.623.99-4.294 3.582-4.294 6.668 0 2.592 1.137 4.619 3.134 5.56 1.068.496 3.296.566 4.457.142.882-.33 2.623-1.932 2.623-2.427 0-.518-.487-.4-1.184.283-.418.424-.975.66-1.671.73-2.902.33-5.456-2.285-5.223-5.395l.07-1.013 3.946-.118 3.946-.118.07-.825c.185-1.86-1.556-3.51-3.83-3.675-.744-.047-1.649.023-2.044.188zm2.415.92c1.137.4 1.648 1.837.859 2.379-.14.094-1.323.189-2.623.189-2.183 0-2.392-.048-2.392-.448 0-.825 1.927-2.333 3.041-2.38.21 0 .697.118 1.115.26zm18.874-.684c-1.37.542-3.53 2.45-3.53 3.087 0 1.154 2.16.447 2.438-.754.233-1.06 1.045-1.626 2.136-1.461.487.07 1.068.26 1.277.377.487.306.835 1.956.696 3.346l-.093.966-2.112.777c-3.947 1.414-4.341 1.744-4.341 3.511 0 .801.14 1.13.79 1.79.672.684.95.802 1.856.802.65 0 1.532-.236 2.298-.613l1.254-.589.882.59c1.114.777 2.577.824 3.46.117.881-.707.765-1.037-.372-1.037-1.51 0-1.625-.4-1.44-5.018.14-3.323.093-3.959-.232-4.713-.51-1.13-.975-1.413-2.507-1.578-.928-.095-1.532 0-2.46.4zm2.855 8.388c0 1.343-.07 1.555-.65 2.074-1.37 1.201-3.413.494-3.413-1.155 0-.966.465-1.437 1.997-2.05 1.857-.754 2.066-.612 2.066 1.131zm43.757-8.694c-3.529.612-5.804 3.275-5.85 6.833 0 1.979.44 3.086 1.764 4.406 1.114 1.084 1.393 1.248 2.763 1.484 1.625.283 3.087.094 4.34-.565.767-.401 2.09-1.885 2.09-2.357 0-.377-.604-.494-.743-.141-.023.118-.487.471-.975.825-2.39 1.649-6.036.023-6.871-3.063-.325-1.155-.163-3.11.348-4.1 1.207-2.356 4.155-3.04 6.012-1.414.906.825 1.416.895 1.765.26.325-.637-.093-1.626-.79-1.91-.882-.329-2.692-.447-3.853-.258zm11.144 0c-1.926.4-4.782 2.591-4.596 3.51.07.283.302.4.836.354.928-.024 1.369-.377 1.555-1.249.232-1.06.836-1.46 2.089-1.367 1.37.095 1.997.801 2.136 2.474.139 1.461-.186 2.333-.952 2.522-.325.07-1.509.47-2.6.871-2.901 1.084-3.807 2.31-2.971 4.1.766 1.626 2.995 2.05 5.037.919l1.115-.59.789.59c.998.778 2.554.848 3.459.118.812-.636.766-.99-.093-.801-.557.117-.812.023-1.277-.471l-.603-.613.162-4.053c.139-3.534.116-4.17-.232-4.83-.65-1.296-2.089-1.861-3.854-1.484zm1.811 8.152c.163 1.814-.116 2.474-1.207 2.969-1.648.73-2.925.023-2.925-1.626 0-.872.604-1.414 2.136-1.956 1.671-.589 1.903-.518 1.996.613zm68.296-8.129c-2.67.472-4.039 2.993-2.786 5.09.279.424 1.347 1.343 2.415 2.05 2.576 1.72 3.11 3.086 1.717 4.406-.835.777-2.089.636-3.18-.354-.487-.447-1.021-1.154-1.184-1.531-.418-1.037-.928-.92-.928.212 0 2.12.696 2.804 3.064 3.016 2.623.259 4.828-1.273 4.828-3.346 0-.566-.092-1.273-.208-1.579-.302-.824-1.649-2.097-3.204-3.04-1.114-.682-1.463-1.036-1.695-1.743-.255-.777-.232-.942.163-1.484.928-1.273 2.809-1.037 3.761.471.812 1.296 1.276 1.202 1.091-.212-.07-.613-.279-1.249-.441-1.437-.395-.4-2.368-.684-3.413-.519zm19.499.095c-3.134.683-5.107 2.874-5.478 6.055-.395 3.51 1.625 6.267 4.921 6.692 2.113.282 4.457-.73 5.455-2.404.674-1.107.418-1.201-.696-.306-3.668 2.992-8.729-.966-7.336-5.773.906-3.228 3.715-4.311 6.291-2.427.581.425 1.138.66 1.347.59.464-.189.487-1.438.023-1.885-.65-.66-2.763-.92-4.527-.542zm-42.157.471c-2.391 1.13-4.039 3.44-2.46 3.44.835 0 1.671-.613 1.671-1.202 0-.26.255-.73.58-1.037.79-.824 2.229-.824 3.042 0 .533.542.58.73.51 2.38l-.069 1.79-2.206.802c-3.087 1.155-3.714 1.508-4.132 2.403-.325.684-.325.872-.046 1.744.418 1.13 1.184 1.79 2.368 1.979.673.118 1.207-.024 2.414-.589l1.555-.754.627.613c.882.871 1.857.99 3.111.353 1.3-.636 1.462-1.272.278-1.06-.627.141-.905.047-1.3-.354-.464-.47-.487-.66-.418-4.783.07-3.887.024-4.359-.371-5.042-.255-.4-.696-.848-.998-.99-.952-.447-2.879-.306-4.156.307zm3.204 8.152c-.07 1.909-.604 2.592-2.089 2.663-1.231.047-1.974-.636-1.974-1.744 0-.919.859-1.72 2.392-2.215 1.648-.518 1.741-.447 1.671 1.296zm8.196-8.247c-1.37.684-1.88 1.72-1.787 3.582.069.848 1.044 1.98 2.6 2.969 2.112 1.343 2.553 1.861 2.553 3.016 0 2.662-3.459 2.615-4.736-.071-.673-1.39-1.067-1.296-1.067.26 0 1.672.441 2.19 2.089 2.544 4.062.848 6.871-1.885 5.339-5.137-.418-.848-.836-1.296-1.927-1.955-2.275-1.39-2.948-2.074-2.948-2.993 0-1.107.673-1.743 1.881-1.743 1.207 0 1.671.259 2.298 1.296.696 1.154 1.253 1.107 1.068-.071-.279-1.484-.395-1.72-.999-1.956-1.021-.377-3.342-.259-4.364.26z" fill="#424874"/></svg>