<svg width="159" height="46" fill="none" xmlns="http://www.w3.org/2000/svg"><path d="M65.62 6.393c-3.246 3.536-6.395 7.023-7.063 7.798l-1.193 1.307 1.622 1.696c.907.968 1.909 1.646 2.195 1.598.334-.097 2.339-2.131 4.534-4.504 2.147-2.422 5.297-5.812 6.967-7.653l3.006-3.245-1.86-1.695C72.824.775 71.87 0 71.727 0c-.096 0-2.864 2.906-6.109 6.393zm11.69 1.405l-7.062 7.846 1.861 1.598c1.05.92 2.052 1.647 2.196 1.647.143 0 3.435-3.536 7.348-7.846l7.11-7.798-1.908-1.598C85.853.727 84.851 0 84.708 0c-.191 0-3.484 3.536-7.397 7.798zm13.028-.048l-7.014 7.7 1.765 1.695c1.002.969 1.957 1.744 2.1 1.744.239 0 8.208-8.524 12.598-13.465l1.814-2.082-1.575-1.647C99.119.775 98.165 0 97.926 0c-.286 0-3.674 3.487-7.588 7.75zM7.305 24.991C4.012 26.008 1.1 29.108.29 32.353c-1.145 4.892 1.193 10.123 5.44 12.108 2.386 1.163 6.92 1.453 9.162.581 1.002-.387 1.48-.339 2.1.243.811.775 2.338.92 4.2.436l1.097-.34-1.48-1.55-1.526-1.598 1.002-1.985c2.386-4.698 1.718-9.203-1.861-12.69-1.766-1.743-2.816-2.373-4.725-2.809-3.054-.678-3.531-.63-6.394.242zm6.633 5.328c2.147 1.453 3.293 5.085 2.1 6.974-.335.581-.573.581-1.05.097-.62-.63-3.627-.775-4.581-.194-.43.291-.287.678.62 1.55 1.575 1.502 1.527 1.938-.43 1.938-3.435 0-6.155-4.069-5.058-7.556 1.05-3.148 5.583-4.65 8.399-2.81zm45.048-5.086c-4.772 1.938-7.54 7.508-6.204 12.545.812 3.1 2.434 5.037 5.488 6.587 2.29 1.113 3.054 1.259 5.488 1.017 1.527-.146 3.006-.388 3.293-.582.62-.339.716-6.054.095-6.054-.238 0-.668.34-1.002.727-.334.387-1.288.823-2.195 1.017-4.486.823-7.779-3.875-5.679-8.04 1.48-2.954 4.772-3.778 7.779-1.937l1.527.968v-2.906c0-2.712-.096-2.954-1.241-3.39-1.527-.63-5.774-.581-7.349.049zm42.9.582c-2.004 1.356-3.102 4.213-2.624 6.78.382 2.035 2.004 3.342 5.154 4.214 1.765.484 3.245 1.598 3.245 2.422 0 .871-1.528 1.937-2.768 1.937-.716 0-1.957-.436-2.816-.92l-1.527-.969-.954 1.695c-.573.92-1.002 1.889-1.002 2.131 0 .824 2.911 2.034 5.487 2.277 4.534.484 7.922-1.647 8.638-5.425.62-3.535-1.098-6.102-4.772-7.071-2.386-.581-3.818-1.84-3.388-3.003.429-1.114 2.099-1.356 3.913-.581l1.575.678.954-1.937 1.002-1.938-1.67-.678c-2.625-1.114-6.538-.92-8.447.388zm-77.64 7.071c.143 6.926.238 7.894 1.145 9.057 1.67 2.325 3.245 3.148 6.299 3.439 3.722.339 6.776-.727 8.303-2.906 1.002-1.453 1.098-2.18 1.241-9.445l.19-7.846h-5.392l.048 5.909c.048 8.33.096 8.04-.954 9.105-1.289 1.308-3.15 1.211-4.534-.242-1.145-1.114-1.193-1.404-1.193-7.991v-6.78h-5.344l.19 7.7zm20.424 2.228v9.928h5.25V25.185h-5.25v9.929zm26.246 0v9.928h4.772v-4.116c0-2.277.143-4.117.382-4.117.19.048 1.718 1.889 3.388 4.117l3.054 4.116h6.68l-.954-1.113c-.525-.582-2.481-2.955-4.342-5.231l-3.388-4.165 2.386-2.858a338.92 338.92 0 003.865-4.698l1.432-1.792h-6.204l-2.768 3.826c-1.575 2.131-2.958 3.875-3.15 3.875-.238.048-.381-1.695-.381-3.826v-3.875h-4.772v9.929zm42.949-7.749v2.179h4.294v15.498h5.25v-15.45l2.004-.145c1.956-.145 1.956-.145 2.052-2.228l.095-2.034h-13.695v2.18zm15.747 7.749v9.928h10.976v-4.359h-2.863c-3.007 0-2.864.098-3.055-2.421-.047-.533.669-.775 2.816-.969l2.863-.242.143-2.034.143-2.034-3.006-.145-2.959-.146-.095-1.598-.095-1.55h6.108v-4.359h-10.976v9.929zm14.316 0v9.928h5.25v-6.78h2.815c4.82 0 7.54-2.955 6.92-7.507-.669-4.601-2.386-5.57-9.592-5.57h-5.393v9.929zm9.067-5.086c.525.533.955 1.308.955 1.696 0 1.21-1.814 2.663-3.341 2.663-1.431 0-1.431-.048-1.431-2.663 0-2.616 0-2.664 1.431-2.664.811 0 1.861.436 2.386.968zm-61.178 2.955c-1.002.58-1.145 2.857-.286 3.73 1.336 1.355 3.722.338 3.722-1.6 0-1.937-1.86-3.05-3.436-2.13z" fill="#424874"/></svg>