<svg width="188" height="41" fill="none" xmlns="http://www.w3.org/2000/svg"><g clip-path="url(#clip0)" fill="#424874"><path d="M20.06 38.218a18.368 18.368 0 01-6.245-1.089 15.145 15.145 0 01-7.12-6.214 18.423 18.423 0 01-1.97-9.827C5.483 9.8 18.888 6.841 23.807 13.208c4.918 6.368-3.13 10.968-3.297 8.2-.425-6.765-5.988-4.394-6.194-.333-.618 12.198 19.818 10.763 20.062-2.92.142-8.06-5.447-13.185-8.254-15.453a18.33 18.33 0 019.77 7.951 18.181 18.181 0 012.297 12.348 18.237 18.237 0 01-6.261 10.904 18.405 18.405 0 01-11.858 4.3l-.013.014zm.013-38.245a20.134 20.134 0 00-11.15 3.35 19.984 19.984 0 00-7.4 8.95 19.87 19.87 0 00-1.157 11.53 19.93 19.93 0 005.477 10.228 20.093 20.093 0 0010.265 5.476c3.891.775 7.925.385 11.593-1.12a20.041 20.041 0 009.013-7.341A19.892 19.892 0 0040.11 19.96a19.937 19.937 0 00-5.88-14.103A20.138 20.138 0 0020.06 0l.013-.026zm24.442 6.203h23.371v7.008h-7.172v21.294H51.7V13.184h-7.198V6.176h.013z"/><path d="M65.323 19.975a6.717 6.717 0 011.14-3.254 6.763 6.763 0 012.608-2.268 16.943 16.943 0 017.481-1.397c9.902 0 9.902 5.125 9.902 7.56v11.287a3.353 3.353 0 00.721 2.563H79v-1.602a10.868 10.868 0 01-6.877 2.089c-5.228 0-7.52-3.165-7.52-6.689a6.033 6.033 0 011.777-4.446c1.893-1.921 4.134-2.242 7.804-2.729a26.8 26.8 0 004.43-.884c0-1.396-.439-2.357-2.82-2.357-1.894 0-2.409.474-2.692 1.922l-7.778.205zm10.778 5.65c-.682.154-1.403.32-2.137.564a2.112 2.112 0 00-1.687 1.845 1.787 1.787 0 00.68 1.236 1.808 1.808 0 001.367.365 4.51 4.51 0 002.252-.659 4.48 4.48 0 001.611-1.698 5.573 5.573 0 00.4-2.447c-.838.269-1.649.55-2.486.794zm20.346-10.083c2.253-2 3.785-2.243 6.966-2.243v6.97c-.567 0-1.12-.076-1.687-.076-4.867 0-4.957 3.164-4.996 4.522v9.763h-8.241V13.62h7.958v1.922zm9.091-9.328h8.318v13.453l5.627-5.92h10.134l-7.919 7.483 8.28 13.248h-9.452l-4.52-7.892-2.176 2.088v5.804h-8.292V6.214z"/><path d="M151.533 29.622a12.312 12.312 0 01-4.758 4.328 12.389 12.389 0 01-6.303 1.348c-7.726 0-11.512-5.522-11.512-11.287 0-6.765 4.7-11.134 11.474-11.134a11.93 11.93 0 018.369 3.087c3.065 2.998 3.104 6.407 3.181 9.61h-14.576a3.915 3.915 0 001.004 2.921 3.354 3.354 0 002.485.96 4.006 4.006 0 002.325-.734 3.97 3.97 0 001.461-1.943l6.85 2.845zm-8.009-8.404a7.389 7.389 0 00-.116-.961 2.77 2.77 0 00-1.011-1.555 2.792 2.792 0 00-1.77-.572 3.227 3.227 0 00-2.183.918 3.192 3.192 0 00-.959 2.157h6.039v.013zm26.835-2.538v10.058a5.7 5.7 0 001.403 4.28c1.662 1.678 4.585 1.717 5.473 1.717a40.546 40.546 0 005.228-.436v-5.65c-.488.094-.984.15-1.481.166-2.215 0-2.253-1.358-2.253-2.165v-7.97h3.747v-4.484h-3.593V7.675h-8.318v6.521h-6.76V7.675h-8.37v6.521h-2.897v4.485h2.729v10.045a5.662 5.662 0 001.417 4.28c1.648 1.677 4.584 1.716 5.472 1.716a40.566 40.566 0 005.228-.436v-5.65a9.43 9.43 0 01-1.48.166c-2.215 0-2.254-1.358-2.254-2.165l.065-7.982h6.618l.026.026z"/></g><defs><clipPath id="clip0"><path fill="#fff" d="M0 0h188v41H0z"/></clipPath></defs></svg>