<svg width="240" height="23" fill="none" xmlns="http://www.w3.org/2000/svg"><path d="M66.713 1.05c-.09.597-.271 1.364-.362 1.733l-.15.653 3.707-.085 3.708-.086.392-1.42C74.22 1.052 74.4.342 74.4.2c0-.115-1.688-.2-3.738-.2h-3.738l-.211 1.05zM5.215 6.36c-1.99.824-2.26 1.42-3.828 8.178-1.628 7.099-1.688 7.752-.874 8.178.392.17 5.577.284 14.741.284h14.138l.483-2.215c.271-1.192.512-2.3.512-2.413 0-.114-4.853-.228-10.762-.256l-10.792-.085-.09-.682c-.06-.369.06-.795.301-.908.211-.142 5.215-.256 11.154-.256H30.93l.663-2.64c.995-4.061 1.115-5.48.422-6.19-1.326-1.392-1.447-1.392-14.048-1.392-9.194.028-12.058.114-12.752.397zm18.66 5.14c.091.227.091.625 0 .852-.15.369-1.205.426-6.933.426s-6.813-.057-6.933-.426c-.12-.227-.12-.625 0-.852.24-.625 13.595-.625 13.867 0zm11.004 2.982L32.919 23h7.356l.663-2.783c1.748-7.326 2.08-8.405 2.593-8.774.392-.255 1.778-.369 4.793-.369 5.577 0 5.818.199 4.763 4.203l-.15.653 3.406-.086 3.436-.085.814-3.55c.965-4.06.844-5.48-.543-5.962-.421-.17-3.406-.284-6.632-.284-6.27 0-7.295.17-8.832 1.505l-.724.625.211-1.08.211-1.05h-7.416l-1.99 8.519zm30.658-8.036c-.271.852-3.798 15.958-3.798 16.27 0 .199 1.296.284 3.678.227l3.677-.085 1.719-7.383c.964-4.06 1.838-7.865 1.929-8.461l.211-1.051h-3.618c-3.195 0-3.647.057-3.798.483zm12.631-.199c-1.357.511-1.93 1.533-2.714 4.827-.693 2.925-.723 3.265-.301 3.89.271.37.482.682.543.71.03.029 4.07.142 8.953.227l8.893.142v1.42l-9.797.142-9.798.142-.512 1.988a99.737 99.737 0 00-.694 2.64l-.15.625h25.593l.784-.653c.633-.511.935-1.25 1.507-3.72.905-3.72.905-4.174.181-5.026-.572-.681-.572-.681-9.285-.823l-8.682-.142-.09-.795c-.06-.426-.06-.795 0-.824.06-.028 4.492-.142 9.858-.227l9.797-.142.362-1.306c.181-.738.422-1.789.542-2.357l.211-1.022-12.3.028c-6.752 0-12.57.114-12.901.256zm28.669.199c-.211.653-3.798 16.157-3.798 16.384 0 .113 1.778.142 3.979.113l3.949-.085 1.176-4.799c.633-2.669 1.356-5.14 1.627-5.508.724-1.023 2.231-1.477 4.944-1.477 2.02 0 2.502.085 3.015.568.332.312.603.795.603 1.05 0 .284-.543 2.67-1.176 5.339l-1.145 4.827 3.768.085c2.08.029 3.798.029 3.859-.028.06-.057.602-2.13 1.175-4.629 1.296-5.48 1.507-5.99 2.683-6.672 1.357-.767 6.18-.796 6.904-.029.693.71.663 1.022-.664 6.56L136.591 23h3.708c2.05 0 3.738-.085 3.738-.17 0-.086.753-3.323 1.658-7.213 2.321-9.853 2.411-9.654-5.788-9.654-5.577 0-6.904.312-8.14 1.817l-.633.767-.331-.966c-.513-1.448-1.236-1.618-6.783-1.618-5.517 0-7.235.312-8.682 1.618l-.904.796.211-1.221.211-1.193h-3.919c-3.497 0-3.949.057-4.1.483zm47.329-.057c-.663.227-1.658.823-2.201 1.334-.904.88-1.115 1.392-2.08 5.339-.603 2.413-1.085 5.14-1.115 6.02-.061 1.42.06 1.703.844 2.498.482.483 1.386.994 1.989 1.136.664.17 5.457.256 12.059.227l10.943-.085 1.899-8.093c1.025-4.458 1.869-8.263 1.899-8.461 0-.284-.844-.341-3.678-.284-3.708.085-3.708.085-3.798.795-.151 1.022-.543 1.278-.754.483-.331-1.193-1.266-1.335-8.29-1.335-4.823.028-6.843.142-7.717.426zm15.374 5.168c-.06.284-.452 1.817-.814 3.436l-.693 2.953-5.306-.114c-6.361-.114-6.481-.17-6.21-2.357.513-4.089 1.055-4.4 7.959-4.4 4.823 0 5.215.027 5.064.482zm12.48-5.48c0 .198-3.647 15.9-3.798 16.44-.151.455.091.483 3.527.426l3.708-.085 1.085-4.685c1.417-5.963 1.387-5.906 2.502-6.56.845-.482 1.568-.539 5.698-.539 6.361 0 6.12-.34 4.612 6.162-.603 2.612-1.175 4.997-1.236 5.253-.15.483.151.511 3.708.511h3.859l1.598-6.9c.874-3.777 1.597-7.27 1.567-7.752 0-.511-.271-1.192-.573-1.562-.572-.681-.633-.681-7.837-.766-7.959-.085-9.105.057-10.582 1.363l-.964.852.211-1.136.211-1.136h-3.648c-2.02 0-3.648.057-3.648.114zm29.302 8.035c-1.025 4.515-1.869 8.348-1.869 8.519 0 .284.905.369 3.558.369h3.587l.995-4.486c.542-2.442 1.206-4.941 1.447-5.537.693-1.704 1.417-1.903 6.994-1.903h4.823l.362.71c.301.596.15 1.618-.875 5.963L229.139 23h3.888c2.111 0 3.859-.057 3.859-.114 0-.085.724-3.293 1.628-7.183.965-4.061 1.567-7.383 1.477-7.838-.09-.425-.512-1.022-.934-1.334-.694-.54-1.236-.568-8.11-.568-7.988 0-8.742.114-10.219 1.618l-.784.796.211-.852c.121-.483.241-1.023.332-1.221.06-.256-.784-.341-3.588-.341h-3.677l-1.9 8.15z" fill="#424874"/></svg>