<svg width="337" height="82" fill="none" xmlns="http://www.w3.org/2000/svg"><path d="M2.448 75.99a.555.555 0 01-.408-.169.555.555 0 01-.168-.408V59.79a.64.64 0 01.144-.432.585.585 0 01.432-.168h12.576c.176 0 .32.056.432.168a.585.585 0 01.168.432v15.624c0 .176-.056.32-.168.432a.64.64 0 01-.432.144h-2.16a.555.555 0 01-.408-.168.555.555 0 01-.168-.408V62.19h-7.08v13.224c0 .16-.056.296-.168.408a.508.508 0 01-.408.168H2.448zm22.14.24c-1.872 0-3.32-.48-4.344-1.44-1.024-.977-1.576-2.305-1.656-3.985l-.024-1.056.024-1.056c.08-1.664.64-2.984 1.68-3.96s2.48-1.464 4.32-1.464c1.84 0 3.28.488 4.32 1.464 1.04.976 1.6 2.296 1.68 3.96.016.192.024.544.024 1.056s-.008.864-.024 1.056c-.08 1.68-.632 3.008-1.656 3.984-1.024.96-2.472 1.44-4.344 1.44zm0-2.377c.848 0 1.504-.264 1.968-.792.464-.544.72-1.336.768-2.376.016-.16.024-.472.024-.936 0-.464-.008-.776-.024-.936-.048-1.04-.304-1.824-.768-2.352-.464-.544-1.12-.816-1.968-.816-.848 0-1.504.272-1.968.816-.464.528-.72 1.312-.768 2.352l-.024.936.024.936c.048 1.04.304 1.832.768 2.376.464.528 1.12.792 1.968.792zm9.283 6.696a.555.555 0 01-.407-.168.508.508 0 01-.169-.408V64.085c0-.176.056-.312.169-.408a.555.555 0 01.407-.168h1.896c.176 0 .313.056.408.168a.508.508 0 01.169.408v.96c.895-1.184 2.175-1.776 3.84-1.776 1.616 0 2.855.512 3.72 1.536.863 1.008 1.327 2.376 1.391 4.104.017.192.024.472.024.84 0 .384-.008.672-.024.864-.064 1.68-.528 3.04-1.392 4.08-.864 1.024-2.103 1.536-3.72 1.536-1.615 0-2.847-.568-3.696-1.704v5.448a.508.508 0 01-.168.408.508.508 0 01-.408.168h-2.04zm5.424-6.888c1.728 0 2.648-1.064 2.76-3.192.017-.16.025-.4.025-.72 0-.32-.008-.56-.024-.72-.112-2.128-1.032-3.192-2.76-3.192-.928 0-1.617.296-2.065.888-.448.592-.696 1.32-.744 2.184l-.023.912.023.936c.032.8.28 1.488.744 2.064.48.56 1.169.84 2.064.84zM51.83 75.99a.555.555 0 01-.408-.168.555.555 0 01-.168-.408v-9.36h-3.912a.555.555 0 01-.408-.168.585.585 0 01-.168-.432v-1.368c0-.176.056-.312.168-.408a.555.555 0 01.408-.168h10.896c.176 0 .32.056.432.168a.555.555 0 01.168.408v1.368c0 .16-.056.304-.168.432a.585.585 0 01-.432.168H54.35v9.36c0 .16-.056.296-.168.408a.508.508 0 01-.408.168H51.83zm12.534.24c-.816 0-1.568-.16-2.256-.48-.672-.336-1.208-.784-1.608-1.344a3.198 3.198 0 01-.576-1.848c0-1.088.44-1.968 1.32-2.64.88-.672 2.088-1.128 3.624-1.368l3.288-.48v-.504c0-.704-.176-1.232-.528-1.584-.352-.352-.92-.528-1.704-.528-.528 0-.96.104-1.296.312-.32.192-.576.384-.768.576-.192.208-.32.344-.384.408-.064.192-.184.288-.36.288h-1.848a.573.573 0 01-.384-.144.519.519 0 01-.144-.384c.016-.4.208-.856.576-1.368.384-.512.968-.952 1.752-1.32.784-.368 1.744-.552 2.88-.552 1.888 0 3.264.424 4.128 1.272.864.848 1.296 1.96 1.296 3.336v7.536c0 .16-.056.296-.168.408a.508.508 0 01-.408.168h-1.944a.555.555 0 01-.408-.168.555.555 0 01-.168-.408v-.936c-.352.512-.856.936-1.512 1.272-.64.32-1.44.48-2.4.48zm.816-2.28c.88 0 1.6-.288 2.16-.864.56-.576.84-1.416.84-2.52v-.504l-2.4.384c-.928.144-1.632.376-2.112.696-.464.32-.696.712-.696 1.176 0 .512.216.912.648 1.2.432.288.952.432 1.56.432zm8.887 2.04a.639.639 0 01-.432-.168.639.639 0 01-.168-.432v-1.488c0-.16.048-.288.144-.384a.582.582 0 01.408-.192c.704-.032 1.208-.512 1.512-1.44.32-.944.48-2.464.48-4.56v-3.24c0-.176.056-.312.168-.408a.555.555 0 01.408-.168h8.52c.16 0 .296.056.408.168a.555.555 0 01.168.408v11.328c0 .16-.056.296-.168.408a.555.555 0 01-.408.168h-1.992a.555.555 0 01-.408-.168.555.555 0 01-.168-.408v-9.36h-3.528v1.608c0 2.08-.16 3.72-.48 4.92-.304 1.2-.816 2.072-1.536 2.616-.704.528-1.68.792-2.928.792zm31.826-.744c.08.08.12.184.12.312a.387.387 0 01-.144.312.543.543 0 01-.36.12h-2.424c-.256 0-.48-.12-.672-.36l-3.12-4.704h-1.777v4.488c0 .16-.056.296-.168.408a.555.555 0 01-.407.168h-1.969a.555.555 0 01-.407-.168.555.555 0 01-.168-.408V64.085c0-.16.055-.296.167-.408a.555.555 0 01.409-.168h1.968c.16 0 .296.056.407.168a.555.555 0 01.168.408v4.296h1.776l2.881-4.488c.096-.128.192-.224.288-.288a.682.682 0 01.384-.096h2.136c.16 0 .288.04.384.12.096.08.144.184.144.312 0 .096-.04.2-.12.312l-3.432 5.28 3.936 5.712zm1.83.744a.639.639 0 01-.432-.168.639.639 0 01-.168-.432v-1.488c0-.16.048-.288.144-.384a.582.582 0 01.408-.192c.704-.032 1.208-.512 1.512-1.44.32-.944.48-2.464.48-4.56v-3.24c0-.176.056-.312.168-.408a.555.555 0 01.408-.168h8.52c.16 0 .296.056.408.168a.555.555 0 01.168.408v11.328c0 .16-.056.296-.168.408a.555.555 0 01-.408.168h-1.992a.555.555 0 01-.408-.168.555.555 0 01-.168-.408v-9.36h-3.528v1.608c0 2.08-.16 3.72-.48 4.92-.304 1.2-.816 2.072-1.536 2.616-.704.528-1.68.792-2.928.792zm26.221-12.48c.144 0 .272.056.384.168a.455.455 0 01.168.36v11.376c0 .16-.056.296-.168.408a.555.555 0 01-.408.168h-1.992a.555.555 0 01-.408-.168.555.555 0 01-.168-.408V67.71l-5.76 7.896a.7.7 0 01-.648.384h-1.824a.573.573 0 01-.384-.144.555.555 0 01-.168-.408V64.085c0-.16.056-.296.168-.408a.555.555 0 01.408-.168h1.992c.176 0 .312.056.408.168a.508.508 0 01.168.408v7.728l5.76-7.92c.176-.256.392-.384.648-.384h1.824zm8.954 12.72c-1.776 0-3.192-.512-4.248-1.536-1.04-1.04-1.592-2.496-1.656-4.368l-.024-.6.024-.6c.08-1.824.64-3.256 1.68-4.296 1.056-1.04 2.464-1.56 4.224-1.56 1.888 0 3.344.576 4.368 1.728 1.04 1.152 1.56 2.688 1.56 4.608v.504c0 .16-.056.296-.168.408a.585.585 0 01-.432.168h-7.968v.192c.032.88.272 1.624.72 2.232.464.592 1.096.888 1.896.888.944 0 1.704-.368 2.28-1.104.144-.176.256-.288.336-.336a.932.932 0 01.408-.072h2.064c.144 0 .264.048.36.144.112.08.168.184.168.312 0 .384-.232.84-.696 1.368-.448.512-1.096.96-1.944 1.344-.848.384-1.832.576-2.952.576zm2.664-7.56v-.072c0-.944-.24-1.704-.72-2.28-.464-.576-1.112-.864-1.944-.864-.832 0-1.48.288-1.944.864-.464.576-.696 1.336-.696 2.28v.072h5.304zm6.387 7.32a.555.555 0 01-.408-.168.555.555 0 01-.168-.408V64.085c0-.16.056-.296.168-.408a.555.555 0 01.408-.168h1.992c.176 0 .312.056.408.168a.508.508 0 01.168.408v4.296h5.424v-4.296c0-.176.056-.312.168-.408a.555.555 0 01.408-.168h1.992c.176 0 .312.056.408.168a.508.508 0 01.168.408v11.328c0 .16-.056.296-.168.408a.508.508 0 01-.408.168h-1.992a.555.555 0 01-.408-.168.555.555 0 01-.168-.408v-4.512h-5.424v4.512c0 .16-.056.296-.168.408a.508.508 0 01-.408.168h-1.992zm18.193 0a.555.555 0 01-.408-.168.555.555 0 01-.168-.408v-9.36h-3.912a.555.555 0 01-.408-.168.585.585 0 01-.168-.432v-1.368c0-.176.056-.312.168-.408a.555.555 0 01.408-.168h10.896c.176 0 .32.056.432.168a.555.555 0 01.168.408v1.368c0 .16-.056.304-.168.432a.585.585 0 01-.432.168h-3.888v9.36c0 .16-.056.296-.168.408a.508.508 0 01-.408.168h-1.944zm12.535.24c-.816 0-1.568-.16-2.256-.48-.672-.336-1.208-.784-1.608-1.344a3.198 3.198 0 01-.576-1.848c0-1.088.44-1.968 1.32-2.64.88-.672 2.088-1.128 3.624-1.368l3.288-.48v-.504c0-.704-.176-1.232-.528-1.584-.352-.352-.92-.528-1.704-.528-.528 0-.96.104-1.296.312-.32.192-.576.384-.768.576-.192.208-.32.344-.384.408-.064.192-.184.288-.36.288h-1.848a.573.573 0 01-.384-.144.519.519 0 01-.144-.384c.016-.4.208-.856.576-1.368.384-.512.968-.952 1.752-1.32.784-.368 1.744-.552 2.88-.552 1.888 0 3.264.424 4.128 1.272.864.848 1.296 1.96 1.296 3.336v7.536c0 .16-.056.296-.168.408a.508.508 0 01-.408.168h-1.944a.555.555 0 01-.408-.168.555.555 0 01-.168-.408v-.936c-.352.512-.856.936-1.512 1.272-.64.32-1.44.48-2.4.48zm.816-2.28c.88 0 1.6-.288 2.16-.864.56-.576.84-1.416.84-2.52v-.504l-2.4.384c-.928.144-1.632.376-2.112.696-.464.32-.696.712-.696 1.176 0 .512.216.912.648 1.2.432.288.952.432 1.56.432zM226.149.344v4.133h12.429v36.047h4.18V4.477h12.429V.344h-29.038zm-180.68 35.99V22.5h20.39v-4.133h-20.39V4.478h22.165V.344H45.47V.288h-4.124v40.235h26.632v-4.19H45.47zM151.138 0c-11.283 0-19.473 9.184-19.473 20.491 0 10.086 6.516 18.479 15.93 20.176l.024.004.202.036c1.105.193 2.25.293 3.429.293 6.157 0 11.377-2.735 14.847-7.058h-.128c2.899-3.6 4.584-8.305 4.584-13.45C170.552 9.183 162.419 0 151.137 0zm-9.014 33.942c-3.891-2.969-6.221-7.885-6.221-13.45 0-9.07 6.186-16.417 15.235-16.417 8.992 0 15.177 7.348 15.177 16.416 0 7.927-4.724 14.537-11.917 16.077v.042a15.588 15.588 0 01-3.148.315c-3.507 0-6.583-1.104-9.036-2.983h-.091.001zm67.159-.721L187.122 0h-4.185v40.523h4.124V6.578l22.261 34.348h4.084V.345h-4.124V33.22zM114.715 0L99.22 24.566 83.39 0h-3.815v40.524h4.181V7.663l15.234 23.16h.459L114.74 6.856v33.668h4.181V0h-4.207zM30.579 40.523L21.53 24.452c4.811-1.779 8.075-6.428 8.075-11.652 0-6.83-5.04-12.456-12.6-12.456H2v4.133h15.005c5.097 0 8.305 3.789 8.305 8.323 0 4.477-3.208 8.323-8.305 8.323H2v19.4h4.123V25.256h11.112l8.59 15.267h4.753z" fill="#56698F"/><path d="M282.092 40.524h4.124V.287h-4.124v40.237zM317.584 0c-11.283 0-19.472 9.184-19.472 20.491 0 10.086 6.515 18.479 15.929 20.176l.024.004.202.036c1.105.193 2.25.293 3.429.293 6.157 0 11.377-2.735 14.848-7.058h-.129c2.899-3.6 4.584-8.305 4.584-13.45C336.999 9.183 328.866 0 317.584 0zm-9.014 33.942c-3.891-2.969-6.221-7.885-6.221-13.45 0-9.07 6.186-16.417 15.235-16.417 8.992 0 15.177 7.348 15.177 16.416 0 7.927-4.724 14.537-11.917 16.077v.042a15.588 15.588 0 01-3.148.315c-3.506 0-6.583-1.104-9.035-2.983h-.091zM265.641 20.27c0 .918-.315 1.693-.945 2.324-.63.631-1.365.947-2.205.947-.916 0-1.689-.316-2.319-.947-.63-.632-.945-1.406-.945-2.325 0-.88.306-1.626.917-2.238.611-.612 1.355-.918 2.233-.918.916 0 1.689.306 2.319.918.63.613.945 1.359.945 2.239z" fill="#B7CBD8"/></svg>