<svg width="30" height="30" fill="none" xmlns="http://www.w3.org/2000/svg"><path d="M11.572 6.27a.44.44 0 00-.44-.44H7.97a.44.44 0 00-.44.44V9.2a.44.44 0 00.44.439h3.164a.44.44 0 00.44-.44V6.27zm-.879 2.49H8.408V6.709h2.285v2.05zM22.47 6.27a.44.44 0 00-.439-.44h-3.164a.44.44 0 00-.44.44V9.2a.44.44 0 00.44.439h3.164a.44.44 0 00.44-.44V6.27zm-.878 2.49h-2.285V6.709h2.285v2.05zm-4.571-2.49a.44.44 0 00-.439-.44h-3.164a.44.44 0 00-.44.44V9.2a.44.44 0 00.44.439h3.164a.44.44 0 00.44-.44V6.27zm-.878 2.49h-2.286V6.709h2.286v2.05zm-4.571 2.549a.44.44 0 00-.44-.44H7.97a.44.44 0 00-.44.44v2.93a.44.44 0 00.44.439h3.164a.44.44 0 00.44-.44v-2.93zm-.879 2.49H8.408v-2.051h2.285v2.05zm11.777-2.49a.44.44 0 00-.439-.44h-3.164a.44.44 0 00-.44.44v2.93a.44.44 0 00.44.439h3.164a.44.44 0 00.44-.44v-2.93zm-.878 2.49h-2.285v-2.051h2.285v2.05zm-4.571-2.49a.44.44 0 00-.439-.44h-3.164a.44.44 0 00-.44.44v2.93a.44.44 0 00.44.439h3.164a.44.44 0 00.44-.44v-2.93zm-.878 2.49h-2.286v-2.051h2.286v2.05zm-5.01 2.168H7.969a.44.44 0 00-.44.44v2.929c0 .243.197.44.44.44h3.164a.44.44 0 00.44-.44v-2.93a.44.44 0 00-.44-.44zm-.44 2.93H8.408v-2.051h2.285v2.05zm11.338-2.93h-3.164a.44.44 0 00-.44.44v2.929c0 .243.198.44.44.44h3.164a.44.44 0 00.44-.44v-2.93a.44.44 0 00-.44-.44zm-.44 2.93h-2.284v-2.051h2.285v2.05zm-5.009-2.93h-3.164a.44.44 0 00-.44.44v2.929c0 .243.197.44.44.44h3.164a.44.44 0 00.44-.44v-2.93a.44.44 0 00-.44-.44zm-.44 2.93h-2.285v-2.051h2.286v2.05z" fill="#892045"/><path d="M28.623 25.518h-3.984V3.926a.44.44 0 00-.44-.44h-1.676a.44.44 0 000 .88h1.237v21.152h-2.99V21.27a.44.44 0 00-.439-.44h-2.975a.44.44 0 100 .879h.543v3.809h-5.8v-3.809h3.364a.44.44 0 000-.879H9.668a.44.44 0 00-.44.44v4.248H6.24v-2.785a.44.44 0 10-.879 0v2.785H1.377a1.378 1.378 0 000 2.754h27.246c.76 0 1.377-.618 1.377-1.377 0-.76-.618-1.377-1.377-1.377zm-9.844-3.809h1.114v3.809h-1.114v-3.809zm-8.672 0h1.114v3.809h-1.114v-3.809zm18.516 5.684H1.377a.499.499 0 010-.997h27.246a.499.499 0 010 .997z" fill="#892045"/><path d="M5.8 21.31a.44.44 0 00.44-.44V4.365h14.335a.44.44 0 100-.879H11.69V2.168a.44.44 0 00-.44-.44H7.734a.44.44 0 00-.44.44v1.318H5.802a.44.44 0 00-.44.44V20.87c0 .243.197.44.44.44zM8.175 2.606h2.636v.88H8.174v-.88z" fill="#892045"/></svg>