<svg width="66" height="66" fill="none" xmlns="http://www.w3.org/2000/svg"><path d="M55.688 36.094c0-1.753-1.857-3.094-4.126-3.094-2.268 0-4.124 1.34-4.124 3.094v3.093l-5.054-2.165c1.238-1.134 2.063-2.578 2.578-4.125l2.785-1.444c1.031-.515 1.753-1.547 1.753-2.784v-1.857c0-1.753-1.34-3.093-3.094-3.093h-.412l-.619.618v-2.68h2.063v-3.095c0-6.393-4.229-12.065-10.313-13.818-.206-1.547-1.547-2.681-3.094-2.681H31.97c-1.547 0-2.888 1.134-3.094 2.68-6.084 1.754-10.313 7.426-10.313 13.82v3.093h2.063v2.681l-.619-.618h-.412c-1.753 0-3.094 1.34-3.094 3.093v1.857c0 1.134.619 2.268 1.753 2.784l2.785 1.444c.515 1.547 1.34 2.99 2.578 4.125l-8.56 3.712C10.931 42.591 8.25 46.612 8.25 51.15v12.788h51.563v-30.01l-4.126 5.775v-3.61zM49.5 48.263v-9.488a5.694 5.694 0 004.125 0v3.712L49.5 48.263zm2.063-13.2c1.237 0 2.062.618 2.062 1.03 0 .413-.825 1.032-2.063 1.032-1.237 0-2.062-.619-2.062-1.031 0-.413.825-1.032 2.063-1.032zm-4.126 8.971l-6.703 4.95a3.86 3.86 0 01-1.856.516h-3.506l.31-1.237c.102-.413.515-.825 1.03-.825h1.444c1.65 0 3.197-.826 4.228-2.166l3.3-4.64 1.857.824v2.578h-.103zm-13.715 3.713L33 50.428l-.722-2.681c-.31-1.444-1.547-2.372-2.99-2.372h-1.444c-1.032 0-1.96-.516-2.475-1.34l-3.094-4.332 3.197-1.444 2.99 1.65a9.055 9.055 0 008.87 0l2.99-1.65 3.197 1.444-3.094 4.331c-.619.825-1.547 1.341-2.475 1.341h-1.444c-1.237 0-2.475.928-2.784 2.372zM30.628 49.5h-3.506c-.619 0-1.34-.206-1.856-.619l-8.972-6.497 4.022-1.753 3.3 4.64c.928 1.341 2.578 2.166 4.228 2.166h1.444c.515 0 .928.31 1.03.826l.31 1.237zm16.19-23.616c.413.104.62.516.62.928v1.857c0 .412-.207.722-.62.928l-1.443.722v-2.991l1.444-1.444zm-25.987-6.29c.413-1.238 1.547-2.063 2.888-2.063H42.28c1.34 0 2.475.825 2.888 2.063H20.83zm8.044-12.685v6.497h2.063v-8.25c0-.619.412-1.031 1.03-1.031h2.063c.619 0 1.032.412 1.032 1.031v8.25h2.062V6.91c4.228 1.444 7.322 5.054 8.044 9.488-.825-.619-1.856-.928-2.888-.928H23.72c-1.032 0-2.063.31-2.888.928.722-4.434 3.816-8.044 8.044-9.488zm-9.694 22.688c-.31-.206-.619-.516-.619-.928v-1.857c0-.412.31-.825.62-.928l1.443 1.444v2.991l-1.444-.722zm3.506.619v-8.56h20.625v8.56a7.12 7.12 0 01-3.712 6.29l-3.094 1.65a7.44 7.44 0 01-6.91 0l-3.093-1.65a7.136 7.136 0 01-3.816-6.29zm-12.375 20.83c0-3.093 1.547-5.877 4.022-7.63l9.797 7.115c.928.619 1.96 1.032 2.99 1.032h4.848v10.312h-3.094v-8.25H21.45l-.825-3.3-2.063.412.722 2.888h-1.753v8.25h-7.218V51.047zm16.5 4.642v2.062h-7.218v-2.063h7.218zm-7.218 4.124h7.218v2.063h-7.218v-2.063zm14.437 2.063V51.562h4.847c1.135 0 2.166-.309 2.99-1.03l5.57-4.023v4.538l-7.735 10.828h-5.672zM57.75 40.322v21.553H42.281l13.407-18.563v-.103l2.062-2.887z" fill="#892045"/><path d="M55.687 59.812V46.097L46.51 59.812h9.178zm-2.062-2.062h-3.197l3.197-4.847v4.847z" fill="#892045"/></svg>