<svg width="2" height="183" fill="none" xmlns="http://www.w3.org/2000/svg"><path d="M.87 69.78a359.494 359.494 0 01-.429-17.445C.298 46.472.298 40.753.298 34.89c0-5.863 0-11.582.143-17.445C.584 11.582.727 5.863 1.013 0c.286 5.863.43 11.582.572 17.445.143 5.863.143 11.582.143 17.445 0 5.863 0 11.582-.143 17.445C1.3 58.055 1.156 63.917.87 69.78zm0 112.392c-.286-5.577-.429-11.154-.572-16.587-.143-5.577-.143-11.154-.143-16.587 0-5.577 0-11.154.143-16.587.143-5.577.286-11.154.572-16.588.286 5.577.43 11.154.572 16.588.143 5.576.143 11.153.143 16.587 0 5.576 0 11.153-.143 16.587-.143 5.576-.286 11.153-.572 16.587z" fill="#EFE5E9"/></svg>