<svg width="2" height="427" fill="none" xmlns="http://www.w3.org/2000/svg"><path d="M1.043 116.111c.286 25.897.43 51.795.572 77.693.143 25.897.143 51.795.143 77.693 0 25.898 0 51.795-.143 77.693-.143 25.898-.286 51.795-.572 77.693-.286-25.898-.429-51.795-.572-77.693-.142-25.898-.143-51.795-.143-77.693 0-25.898 0-51.796.143-77.693.143-25.898.43-51.796.572-77.693z" fill="#fff"/><path d="M1.043.859c.286 26.15.43 52.302.572 79.123.143 26.151.143 52.302.143 79.123 0 26.151 0 52.302-.143 79.123-.143 26.151-.286 52.302-.572 79.123C.757 291.2.614 265.049.471 238.228.33 212.077.328 185.926.328 159.105c0-26.151 0-52.302.143-79.123C.614 53.16.901 27.01 1.043.859z" fill="#fff"/></svg>