<svg width="2" height="432" fill="none" xmlns="http://www.w3.org/2000/svg"><path d="M.87 318.78a7495.065 7495.065 0 01-.429-79.695C.298 212.302.298 186.173.298 159.39c0-26.783 0-52.912.143-79.695C.584 52.912.727 26.783 1.013 0c.286 26.783.43 52.912.572 79.695.143 26.783.143 52.912.143 79.695 0 26.783 0 52.912-.143 79.695-.286 26.13-.429 52.912-.715 79.695z" fill="#fff"/><path d="M.87 431.172c-.286-26.506-.429-53.011-.572-78.837-.143-26.506-.143-53.011-.143-78.837 0-26.506 0-53.012.143-78.837.143-26.506.286-53.012.572-78.838.286 26.506.43 53.012.572 78.838.143 26.505.143 53.011.143 78.837 0 26.505 0 53.011-.143 78.837-.143 26.505-.286 53.011-.572 78.837z" fill="#fff"/></svg>