<svg width="66" height="66" fill="none" xmlns="http://www.w3.org/2000/svg"><g clip-path="url(#clip0)"><path d="M34.102 31.9h-2.2a1.1 1.1 0 100 2.2h2.2a1.1 1.1 0 100-2.2z" fill="url(#paint0_linear)"/><path d="M29.702 24.2h-4.4a1.1 1.1 0 100 2.2h1.1v1.1a1.1 1.1 0 002.2 0v-1.1h1.1a1.1 1.1 0 000-2.2z" fill="url(#paint1_linear)"/><path d="M40.702 24.2h-4.4a1.1 1.1 0 100 2.2h1.1v1.1a1.1 1.1 0 102.2 0v-1.1h1.1a1.1 1.1 0 000-2.2z" fill="url(#paint2_linear)"/><path d="M35.202 36.3h-4.4a1.1 1.1 0 100 2.2h4.4a1.1 1.1 0 100-2.2z" fill="url(#paint3_linear)"/><path d="M59.534 61.697l-1.464-4.582a13.37 13.37 0 00-6.962-7.476 13.331 13.331 0 00-4.68-1.193 1.056 1.056 0 00-.226-.046 1.029 1.029 0 00-.138.028c-.19-.008-.378-.028-.57-.028h-3.006a13.877 13.877 0 01-.375-6.554c.138-1.164.334-2.32.587-3.465a9.303 9.303 0 002.394-5.396c.139.04.282.064.426.07.201 0 .4-.032.59-.097.567-.189 2.291-.764 2.291-7.658a6.94 6.94 0 00-.3-2.2h2.5v-4.4a3.295 3.295 0 00-2.2-3.097V13.2A11.01 11.01 0 0038.313 2.246 3.294 3.294 0 0035.202 0h-5.088a3.293 3.293 0 00-3.136 2.325A11.03 11.03 0 0017.602 13.2v2.403a3.295 3.295 0 00-2.2 3.097v4.4h2.501a6.941 6.941 0 00-.301 2.2c0 6.894 1.724 7.469 2.291 7.658.19.065.39.098.59.098a1.87 1.87 0 00.426-.071 9.302 9.302 0 002.394 5.396 34.73 34.73 0 01.587 3.471c.4 2.182.272 4.427-.375 6.548h-3.006c-.192 0-.38.02-.57.028a1.038 1.038 0 00-.137-.028 1.05 1.05 0 00-.226.045 13.327 13.327 0 00-4.68 1.193 13.365 13.365 0 00-6.98 7.529L6.47 61.696a3.267 3.267 0 00.478 2.95A3.267 3.267 0 009.614 66h46.775a3.3 3.3 0 003.145-4.303zM14.302 63.8H9.614a1.1 1.1 0 01-1.048-1.435l1.428-4.479a11.149 11.149 0 012.574-3.997 11.3 11.3 0 011.734-1.42V63.8zm4.4 0h-2.2V51.344c.71-.27 1.448-.467 2.2-.588V63.8zm4.4 0h-2.2V50.6h2.2v13.2zm23.1-38.5c0 3.444-.48 4.985-.753 5.462a3.41 3.41 0 01-.471-.505 25.066 25.066 0 01.628-6.37c.112-.087.236-.16.368-.214.19.52.268 1.075.228 1.627zm-7.7-20.824a8.808 8.808 0 017.7 8.724v2.2h-7.7V4.476zM29.014 3.3a1.1 1.1 0 011.1-1.1h5.088a1.1 1.1 0 011.1 1.1v12.1h-7.288V3.3zm-9.212 9.9a8.823 8.823 0 017.012-8.609V15.4h-7.012v-2.2zm-2.2 7.7v-2.2a1.1 1.1 0 011.1-1.1h28.6a1.1 1.1 0 011.1 1.1v2.2h-30.8zm3.423 9.357a3.46 3.46 0 01-.47.505c-.274-.477-.753-2.018-.753-5.462a3.904 3.904 0 01.227-1.627c.132.055.256.128.37.217.48 2.086.69 4.226.626 6.366zm2.077 2.655c0-.244.01-.487.029-.713a27.618 27.618 0 00-.658-9.099H43.53a27.584 27.584 0 00-.657 9.091c.019.234.029.477.029.721 0 2.13-2.301 5.167-6.481 8.553a5.429 5.429 0 01-6.842-.003c-4.177-3.383-6.477-6.42-6.477-8.55zm8.8 30.888h-6.6V51.612c.46.531.943 1.155 1.378 1.718 1.525 1.975 3.225 4.157 5.222 4.78v5.69zm-3.48-11.814a17.552 17.552 0 00-2.749-3.082c.678-2.374.815-4.87.402-7.305-.012-.103-.032-.21-.045-.313a43.43 43.43 0 002.162 1.883 7.633 7.633 0 009.616.003 42.11 42.11 0 002.164-1.886c-.012.101-.032.206-.044.306a16.56 16.56 0 00.402 7.312 17.549 17.549 0 00-2.748 3.082c-1.415 1.832-3.175 4.114-4.58 4.114-1.406 0-3.166-2.282-4.58-4.114zM40.701 63.8h-6.6v-5.69c1.996-.623 3.697-2.805 5.221-4.78.435-.563.919-1.187 1.379-1.718V63.8zm4.4 0h-2.2V50.6h2.2v13.2zm4.4 0h-2.2V50.757c.751.12 1.488.317 2.2.587V63.8zm7.221-.052a1.11 1.11 0 01-.334.052H51.7V52.468a11.26 11.26 0 011.734 1.421 11.104 11.104 0 012.556 3.946l1.447 4.53a1.1 1.1 0 01-.715 1.383z" fill="url(#paint4_linear)"/></g><defs><linearGradient id="paint0_linear" x1="33.002" y1="31.9" x2="33.002" y2="34.1" gradientUnits="userSpaceOnUse"><stop stop-color="#AB2E5A"/><stop offset="1" stop-color="#892045"/></linearGradient><linearGradient id="paint1_linear" x1="27.502" y1="24.2" x2="27.502" y2="28.599" gradientUnits="userSpaceOnUse"><stop stop-color="#AB2E5A"/><stop offset="1" stop-color="#892045"/></linearGradient><linearGradient id="paint2_linear" x1="38.502" y1="24.2" x2="38.502" y2="28.599" gradientUnits="userSpaceOnUse"><stop stop-color="#AB2E5A"/><stop offset="1" stop-color="#892045"/></linearGradient><linearGradient id="paint3_linear" x1="33.002" y1="36.3" x2="33.002" y2="38.5" gradientUnits="userSpaceOnUse"><stop stop-color="#AB2E5A"/><stop offset="1" stop-color="#892045"/></linearGradient><linearGradient id="paint4_linear" x1="33" y1="0" x2="33" y2="66" gradientUnits="userSpaceOnUse"><stop stop-color="#AB2E5A"/><stop offset="1" stop-color="#892045"/></linearGradient><clipPath id="clip0"><path fill="#fff" d="M0 0h66v66H0z"/></clipPath></defs></svg>