<svg width="58" height="66" fill="none" xmlns="http://www.w3.org/2000/svg"><rect y="9" width="57" height="57" rx="28.5" fill="url(#paint0_linear)"/><path d="M32 4.063c-.563 0-1.015.453-1.015 1.015 0 .523.394.958.913 1.01a1.013 1.013 0 001.117-1.01c0-.562-.453-1.015-1.015-1.015z" fill="#892045"/><path d="M52.313 6.094a5.084 5.084 0 01-5.079-5.078C47.234.455 46.78 0 46.22 0H17.78c-.56 0-1.015.455-1.015 1.016 0 2.8-2.278 5.078-5.078 5.078-.561 0-1.016.455-1.016 1.015v16.574c0 12.917 8.419 24.49 21.036 28.274a1.017 1.017 0 00.584 0c12.344-3.703 21.036-15.075 21.036-28.274V7.11c0-.56-.455-1.015-1.016-1.015zm-1.016 17.59c0 12.13-7.741 22.637-19.297 26.238a27.462 27.462 0 01-19.297-26.239V8.053a7.126 7.126 0 006.022-6.022h26.55a7.126 7.126 0 006.022 6.022v15.63z" fill="#892045"/><path d="M48.657 9.394a9.149 9.149 0 01-4.722-4.723 1.016 1.016 0 00-.93-.609H36.06a1.016 1.016 0 000 2.032h6.302a11.168 11.168 0 004.872 4.872v12.717c0 9.94-5.966 18.516-15.234 21.948-9.268-3.433-15.234-12.008-15.234-21.948V10.966a11.168 11.168 0 004.872-4.872h6.301a1.016 1.016 0 000-2.032h-6.943c-.404 0-.769.24-.93.609a9.149 9.149 0 01-4.723 4.723c-.37.161-.609.527-.609.93v13.36c0 10.888 6.735 20.378 16.927 23.985a1.015 1.015 0 00.678 0c10.183-3.604 16.927-13.088 16.927-23.986v-13.36c0-.403-.24-.768-.608-.93z" fill="#892045"/><path d="M32 14.828c-5.04 0-9.14 4.1-9.14 9.14 0 5.04 4.1 9.141 9.14 9.141 5.04 0 9.14-4.1 9.14-9.14 0-5.04-4.1-9.14-9.14-9.14zm0 16.25c-3.92 0-7.11-3.19-7.11-7.11 0-3.92 3.19-7.109 7.11-7.109 3.92 0 7.11 3.19 7.11 7.11 0 3.92-3.19 7.11-7.11 7.11z" fill="#892045"/><path d="M36.78 21.22a1.016 1.016 0 00-1.436 0l-4.36 4.36-1.313-1.314a1.016 1.016 0 00-1.436 1.437l2.031 2.03a1.014 1.014 0 001.437 0l5.078-5.077a1.016 1.016 0 000-1.437z" fill="#892045"/><defs><linearGradient id="paint0_linear" x1="1.158" y1="9.313" x2="39.942" y2="75.165" gradientUnits="userSpaceOnUse"><stop stop-color="#FDEDBA"/><stop offset=".224" stop-color="#FBEFC8"/><stop offset=".427" stop-color="#FDEDBA"/><stop offset=".708" stop-color="#F9F0D5"/><stop offset="1" stop-color="#FDEDBA"/></linearGradient></defs></svg>