<svg width="58" height="66" fill="none" xmlns="http://www.w3.org/2000/svg"><rect y="9" width="57" height="57" rx="28.5" fill="url(#paint0_linear)"/><g clip-path="url(#clip0)"><path d="M45.244 32.83c.42 0 .762-.34.762-.761v-5.113c0-1.542-1.185-2.791-2.697-2.845a2.788 2.788 0 00-1.408.32 2.818 2.818 0 00-1.876-2.26l-.947-5.523a.764.764 0 01.22-.676l4.274-4.166c.628-.613.85-1.511.579-2.345a2.274 2.274 0 00-1.847-1.557l-5.907-.859a.764.764 0 01-.575-.418l-2.641-5.352A2.273 2.273 0 0031.129 0c-.877 0-1.663.489-2.051 1.275l-.699 1.416a.762.762 0 001.366.674l.7-1.415a.75.75 0 01.684-.426.75.75 0 01.685.426l2.642 5.352a2.288 2.288 0 001.722 1.251l5.907.858a.75.75 0 01.617.52.75.75 0 01-.194.784l-4.274 4.166a2.287 2.287 0 00-.657 2.025l.891 5.198c-.268.066-.525.17-.763.312-.372-1.077-1.37-1.876-2.54-1.917a2.782 2.782 0 00-1.376.303V15.57c0-.766-.304-1.48-.855-2.013a2.773 2.773 0 00-2.044-.783c-1.512.054-2.697 1.304-2.697 2.843l-.019 6.193-3.392 1.784a.75.75 0 01-.805-.058.75.75 0 01-.304-.748l1.01-5.882a2.287 2.287 0 00-.659-2.025l-4.274-4.166a.75.75 0 01-.193-.783.75.75 0 01.617-.52l5.906-.859a2.287 2.287 0 001.723-1.251l.376-.763a.762.762 0 10-1.366-.674l-.377.763a.764.764 0 01-.575.418l-5.906.858a2.274 2.274 0 00-1.847 1.557 2.273 2.273 0 00.579 2.345l4.274 4.166c.18.176.262.429.22.676l-1.01 5.883a2.276 2.276 0 00.91 2.238 2.28 2.28 0 002.41.174l2.678-1.408-.02 6.708-.436-1.328a3.274 3.274 0 00-3.045-2.064c-.48 0-.946.198-1.278.545-.332.348-.51.822-.488 1.302l.254 5.617a7.678 7.678 0 002.013 4.84l2.892 3.148a1.978 1.978 0 01.635 1.45v1.156h-.18c-.841 0-1.526.685-1.526 1.526v4.039c0 .842.685 1.526 1.527 1.526h14.05c.842 0 1.527-.684 1.527-1.526v-4.039c0-.841-.685-1.526-1.526-1.526h-.19v-.589c0-1.243.378-2.438 1.094-3.455l1.161-1.648a7.543 7.543 0 001.33-3.538.762.762 0 10-1.514-.16 6.015 6.015 0 01-1.061 2.82l-1.161 1.649a7.485 7.485 0 00-1.373 4.332v.589H30.22v-1.156a3.51 3.51 0 00-1.051-2.497l-2.877-3.132a6.152 6.152 0 01-1.613-3.878l-.254-5.617a.243.243 0 01.244-.255c.699 0 1.327.41 1.608 1.048l.425 1.296a1.526 1.526 0 001.734 1.02 1.525 1.525 0 001.234-1.49l.048-14.629c0-.705.55-1.298 1.227-1.322a1.272 1.272 0 011.322 1.274l.002 14.839a.762.762 0 101.524 0v-7.18a1.272 1.272 0 011.318-1.208c.677.024 1.227.617 1.227 1.322l.002 7.066a.762.762 0 101.524 0v-5.624a1.268 1.268 0 011.32-1.238c.676.025 1.227.618 1.227 1.323l-.007 5.539a.762.762 0 101.523 0l.007-3.503c0-.349.139-.674.39-.917a1.27 1.27 0 01.932-.356c.676.024 1.227.617 1.227 1.322v5.113c0 .42.341.761.762.761zM42.57 46.436v4.038l-.003.004-14.054-.003.003-4.042 14.054.003z" fill="#892045"/></g><defs><linearGradient id="paint0_linear" x1="1.158" y1="9.313" x2="39.942" y2="75.165" gradientUnits="userSpaceOnUse"><stop stop-color="#FDEDBA"/><stop offset=".224" stop-color="#FBEFC8"/><stop offset=".427" stop-color="#FDEDBA"/><stop offset=".708" stop-color="#F9F0D5"/><stop offset="1" stop-color="#FDEDBA"/></linearGradient><clipPath id="clip0"><path d="M6 0h52v52H6V0z" fill="#fff"/></clipPath></defs></svg>