<svg width="58" height="66" fill="none" xmlns="http://www.w3.org/2000/svg"><rect y="9" width="57" height="57" rx="28.5" fill="url(#paint0_linear)"/><g clip-path="url(#clip0)" fill="#892045"><path d="M12.087 17.472h28a.762.762 0 100-1.523h-28a.762.762 0 100 1.523zm0 4.793h28a.762.762 0 100-1.523h-28a.761.761 0 100 1.523zm0 4.793h28a.762.762 0 100-1.523h-28a.761.761 0 100 1.523z"/><path d="M44.455 8.138a.656.656 0 00-.012-.012L37.208.89A3.12 3.12 0 0035.057 0H9.883A3.046 3.046 0 006.84 3.042v43.119a3.046 3.046 0 003.043 3.042h2.847a.762.762 0 100-1.523H9.883a1.52 1.52 0 01-1.52-1.52V3.043c0-.837.682-1.519 1.52-1.519h25.174c.061 0 .122.005.183.013v5.98a2.581 2.581 0 002.578 2.578h5.98c.008.06.013.122.013.183v35.884a1.52 1.52 0 01-1.52 1.519H27.46a.762.762 0 000 1.523h14.83a3.046 3.046 0 003.043-3.042V10.277c0-.812-.336-1.59-.88-2.14zm-6.637.433a1.056 1.056 0 01-1.055-1.055V2.6l5.97 5.97h-4.915z"/><path d="M27.3 41.412a.608.608 0 01.282-.866c1.71-.743 1.706-3.165 0-3.908a.608.608 0 01-.282-.866c.945-1.605-.478-3.565-2.297-3.162a.608.608 0 01-.736-.535c-.18-1.856-2.484-2.602-3.718-1.208a.608.608 0 01-.91 0c-1.236-1.396-3.538-.645-3.717 1.208a.608.608 0 01-.737.535c-1.82-.403-3.242 1.558-2.297 3.162a.608.608 0 01-.281.866c-1.71.744-1.707 3.166 0 3.908a.609.609 0 01.281.866c-.946 1.607.48 3.566 2.297 3.162a.604.604 0 01.353.03v5.903c0 .514.26.985.694 1.26.436.276.972.308 1.435.089l2.427-1.147 2.427 1.147c.465.22 1.002.186 1.436-.089.434-.275.694-.746.694-1.26v-5.904a.603.603 0 01.352-.029c1.82.404 3.242-1.557 2.297-3.162zm-4.173 9.046l-2.396-1.132a1.485 1.485 0 00-1.274 0l-2.396 1.132v-3.662c.319.163.66.243.996.243.595 0 1.166-.252 1.582-.722a.608.608 0 01.91 0c.571.645 1.435.88 2.255.614.113-.036.22-.082.323-.135v3.662zm2.86-8.273a.608.608 0 01-.655.902 2.134 2.134 0 00-2.582 1.876.598.598 0 01-.417.52.598.598 0 01-.643-.176 2.132 2.132 0 00-3.192 0 .608.608 0 01-1.06-.344 2.134 2.134 0 00-2.582-1.876.608.608 0 01-.656-.902 2.132 2.132 0 00-.986-3.035.608.608 0 010-1.115 2.132 2.132 0 00.986-3.036.608.608 0 01.656-.902 2.132 2.132 0 002.582-1.876.608.608 0 011.06-.344 2.132 2.132 0 003.192 0 .608.608 0 011.06.344 2.132 2.132 0 002.582 1.876.608.608 0 01.656.902 2.132 2.132 0 00.986 3.036.608.608 0 010 1.115 2.132 2.132 0 00-.986 3.035z"/><path d="M20.094 34.142a4.455 4.455 0 00-4.45 4.45 4.456 4.456 0 004.45 4.45 4.456 4.456 0 004.45-4.45 4.456 4.456 0 00-4.45-4.45zm0 7.377a2.93 2.93 0 01-2.927-2.927 2.93 2.93 0 012.927-2.927 2.93 2.93 0 012.927 2.927 2.93 2.93 0 01-2.927 2.927zm-7.046-31.425h11.715c.95 0 1.723-.773 1.723-1.723V5.985c0-.95-.773-1.723-1.723-1.723H13.048c-.95 0-1.722.773-1.722 1.723V8.37c0 .95.772 1.723 1.722 1.723zm-.2-4.11c0-.11.09-.198.2-.198h11.715a.2.2 0 01.2.199V8.37a.2.2 0 01-.2.2H13.048a.2.2 0 01-.2-.2V5.985zm43.955 36.301c-.564-.68-1.51-2.03-1.584-3.5l1.734-9.123c.184-.968.24-1.957.168-2.94l-1.218-16.595a.762.762 0 00-1.519.112l1.218 16.595c.012.162.019.325.022.487h-6.706c.004-.162.01-.325.023-.487L50.69 3c.06-.824.755-1.47 1.581-1.47.827 0 1.521.646 1.582 1.47l.27 3.68a.76.76 0 101.519-.112l-.27-3.68a3.121 3.121 0 00-3.1-2.88 3.121 3.121 0 00-3.101 2.88l-1.75 23.834c-.072.982-.015 1.971.169 2.94l1.734 9.123c-.074 1.47-1.02 2.82-1.584 3.5a1.534 1.534 0 00-.038 1.918l3.343 4.386a1.546 1.546 0 002.453 0l3.344-4.386a1.534 1.534 0 00-.039-1.918zm-7.716-12.908a9.671 9.671 0 01-.085-.532h6.54a9.767 9.767 0 01-.086.532l-1.634 8.598h-3.101l-1.634-8.598zM55.63 43.28l-2.597 3.406v-3.28a.762.762 0 10-1.523 0v3.28l-2.597-3.406c-.005-.007-.006-.016 0-.022.608-.734 1.583-2.122 1.864-3.76h2.99c.28 1.638 1.255 3.026 1.864 3.76.005.006.005.015 0 .022z"/></g><defs><linearGradient id="paint0_linear" x1="1.158" y1="9.313" x2="39.942" y2="75.165" gradientUnits="userSpaceOnUse"><stop stop-color="#FDEDBA"/><stop offset=".224" stop-color="#FBEFC8"/><stop offset=".427" stop-color="#FDEDBA"/><stop offset=".708" stop-color="#F9F0D5"/><stop offset="1" stop-color="#FDEDBA"/></linearGradient><clipPath id="clip0"><path d="M6 0h52v52H6V0z" fill="#fff"/></clipPath></defs></svg>