<svg width="58" height="66" fill="none" xmlns="http://www.w3.org/2000/svg"><rect y="9" width="57" height="57" rx="28.5" fill="url(#paint0_linear)"/><path d="M50.688 6.5a5.688 5.688 0 00-5.623 4.875H35.25V13H45v31.688a.812.812 0 101.625 0 4.062 4.062 0 118.125 0v.17a3.9 3.9 0 01-3.892 3.892H9.25V31.945a22.02 22.02 0 0019.5 11.93.812.812 0 100-1.625 20.184 20.184 0 01-8.799-2.038l.505-1.882a2.377 2.377 0 002.156-1.787l2.675-9.974c.608.112 1.221.186 1.838.22v.836a.812.812 0 101.625 0v-.836a14.56 14.56 0 001.838-.219l2.674 9.97a2.374 2.374 0 002.157 1.788l.671 2.506a.812.812 0 101.57-.42l-.67-2.5a2.444 2.444 0 00.975-2.626L32.633 15.39a5.672 5.672 0 00-1.446-7.864V4.875a3.25 3.25 0 10-6.5 0v2.652a5.672 5.672 0 00-1.445 7.864l-5.336 19.9a2.437 2.437 0 00.98 2.623l-.407 1.51A20.29 20.29 0 019.25 27.603V13h11.375v-1.625h-13v39h43.233a5.525 5.525 0 005.517-5.52V12.188A5.694 5.694 0 0050.687 6.5zM28.75 25.139v-.764a.812.812 0 10-1.625 0v.764a12.934 12.934 0 01-1.41-.163l1.908-7.116c.105.006.208.017.314.017.107 0 .21-.01.315-.017l1.908 7.116c-.467.08-.938.134-1.41.163zm7.648 10.566a.82.82 0 01-.569.996h-.005a.813.813 0 01-.85-.291.799.799 0 01-.136-.285l-4.99-18.587a5.671 5.671 0 001.468-.786l5.082 18.953zM26.312 4.875a1.625 1.625 0 113.25 0v1.869a5.628 5.628 0 00-3.25 0V4.875zm1.625 3.25a4.062 4.062 0 110 8.125 4.062 4.062 0 010-8.125zm-8.46 27.584l5.082-18.957a5.66 5.66 0 001.468.786l-4.985 18.591a.812.812 0 01-.983.576h-.008a.82.82 0 01-.575-.996zM54.75 40.71a5.679 5.679 0 00-8.125 0V12.187a4.062 4.062 0 118.125 0V40.71z" fill="#892045"/><path d="M27.938 14.625a2.438 2.438 0 100-4.875 2.438 2.438 0 000 4.875zm0-3.25a.813.813 0 110 1.626.813.813 0 010-1.626z" fill="#892045"/><defs><linearGradient id="paint0_linear" x1="1.158" y1="9.313" x2="39.942" y2="75.165" gradientUnits="userSpaceOnUse"><stop stop-color="#FDEDBA"/><stop offset=".224" stop-color="#FBEFC8"/><stop offset=".427" stop-color="#FDEDBA"/><stop offset=".708" stop-color="#F9F0D5"/><stop offset="1" stop-color="#FDEDBA"/></linearGradient></defs></svg>