<svg width="70" height="64" fill="none" xmlns="http://www.w3.org/2000/svg"><rect y="7" width="57" height="57" rx="28.5" fill="url(#paint0_linear)"/><path d="M60.763 42.133a.762.762 0 00-.761.761v7.162c0 .232-.19.42-.421.42h-4.095v-15a.762.762 0 00-1.523 0v15h-8.245l2.39-2.63a1.366 1.366 0 00.327-1.119l-2.278-13.453.614-.924c.339.24.6.473 1.09.473.499 0 .965-.28 1.194-.738l2.402-4.815 5.472 2.12c.198.084 3.072 1.379 3.072 4.797v5.152a.762.762 0 101.524 0v-5.152c0-4.503-3.856-6.14-4.02-6.208a.312.312 0 00-.015-.006l-9.107-3.527V22.31a7.137 7.137 0 002.701-4.695c.721-.05 1.39-.32 1.937-.79a3.229 3.229 0 001.123-2.45 3.23 3.23 0 00-.785-2.113V9.441C53.358 4.235 49.123 0 43.917 0s-9.44 4.235-9.44 9.44v2.896a3.059 3.059 0 00-.786 2.039c0 .944.41 1.837 1.123 2.45.546.47 1.215.74 1.936.79a7.062 7.062 0 002.856 4.808v2.023l-9.097 3.527-.015.006c-.164.067-4.02 1.704-4.02 6.208v15.869c0 1.072.872 1.944 1.944 1.944h7.257a.762.762 0 000-1.524h-1.638v-15a.762.762 0 10-1.524 0v15H28.42a.421.421 0 01-.42-.42V34.187c0-3.43 2.893-4.721 3.071-4.797l5.468-2.12 2.402 4.814c.23.46.696.739 1.194.739.487 0 .746-.229 1.09-.473l.614.924-2.277 13.453a1.366 1.366 0 00.326 1.119l2.39 2.63h-3.046a.762.762 0 100 1.524h20.35a1.946 1.946 0 001.944-1.944v-7.162a.762.762 0 00-.762-.761zM50.03 26.718l-2.24 4.488-2.692-1.913 2.766-3.414 2.166.839zm-4.502 4.75l-.58.874h-1.9l-.581-.875 1.53-1.087 1.53 1.087zm-4.398-6.776v-1.426a7.728 7.728 0 002.88.546 7.15 7.15 0 002.85-.593v1.48l-2.863 3.532-2.867-3.539zm11.49-10.317c0 .499-.215.971-.592 1.295-.25.215-.55.352-.88.405v-3.4a1.723 1.723 0 011.473 1.7zm-15.932 1.7a1.721 1.721 0 01-1.473-1.7c0-.814.676-1.477 1.473-1.662v3.362zm.041-4.914a3.77 3.77 0 00-.728.164V9.441c0-4.366 3.552-7.917 7.917-7.917s7.917 3.551 7.917 7.917v1.832a3.387 3.387 0 00-.687-.133c0-.735.007-.593-2.398-3.178a1.355 1.355 0 00-1.73-.21c-2.654 1.733-5.891 2.603-8.878 2.389a1.355 1.355 0 00-1.413 1.02zm1.483 5.514v-5.002c3.288.192 6.735-.785 9.52-2.569 1.103 1.185 1.7 1.806 1.893 2.042v5.529a5.624 5.624 0 01-5.614 5.614c-3.473 0-5.8-2.694-5.8-5.614zm1.992 14.531l-2.24-4.488 2.163-.838 2.767 3.415-2.69 1.911zm.874 15.686l2.205-13.027h1.429l2.205 13.027-2.92 3.211-2.92-3.211z" fill="#892045"/><defs><linearGradient id="paint0_linear" x1="1.158" y1="7.313" x2="39.942" y2="73.165" gradientUnits="userSpaceOnUse"><stop stop-color="#FDEDBA"/><stop offset=".224" stop-color="#FBEFC8"/><stop offset=".427" stop-color="#FDEDBA"/><stop offset=".708" stop-color="#F9F0D5"/><stop offset="1" stop-color="#FDEDBA"/></linearGradient></defs></svg>