<svg width="70" height="64" fill="none" xmlns="http://www.w3.org/2000/svg"><rect y="7" width="57" height="57" rx="28.5" fill="url(#paint0_linear)"/><path d="M25.38 8.661l.52-.55-.52-.55a.81.81 0 010-1.1.706.706 0 011.04 0l.52.55.519-.55a.706.706 0 011.038 0 .81.81 0 010 1.1l-.519.55.52.55a.81.81 0 010 1.1.712.712 0 01-.52.228.712.712 0 01-.52-.228l-.519-.55-.52.55a.713.713 0 01-.519.228.713.713 0 01-.52-.228.81.81 0 010-1.1zm4.498 32.895c.406 0 .735-.349.735-.778 0-.43-.33-.778-.735-.778-.406 0-.735.348-.735.778 0 .43.33.778.735.778zm21.309 1.555c0 .43.329.778.734.778.406 0 .735-.348.735-.778 0-.43-.329-.778-.735-.778-.405 0-.734.349-.734.778zm4.408-3.889c0 .43.33.778.735.778.406 0 .735-.348.735-.778 0-.43-.33-.778-.735-.778-.406 0-.735.349-.735.778zm3.674 2.334c0 .43.329.777.735.777.406 0 .735-.348.735-.777 0-.43-.33-.778-.735-.778-.406 0-.735.348-.735.778zM27.674 36.11c0 .43.329.778.735.778.405 0 .734-.348.734-.778 0-.43-.329-.778-.734-.778-.406 0-.735.349-.735.778zm35.269 9.333H24.735c-.406 0-.735.349-.735.778 0 .43.329.778.735.778h38.208c.406 0 .735-.348.735-.778 0-.43-.329-.778-.735-.778zM35.756 12.778c.407 0 .735-.348.735-.778V9.667c0-.43-.328-.778-.735-.778-.406 0-.734.348-.734.778V12c0 .43.328.778.734.778zm0 1.555c-.406 0-.734.349-.734.778v2.333c0 .43.328.778.734.778.407 0 .735-.348.735-.778v-2.333c0-.43-.328-.778-.735-.778zm-3.673 0h2.204c.406 0 .735-.348.735-.777 0-.43-.33-.778-.735-.778h-2.204c-.407 0-.735.348-.735.778 0 .43.328.777.735.777zm5.143 0h2.204c.406 0 .735-.348.735-.777 0-.43-.329-.778-.735-.778h-2.204c-.406 0-.735.348-.735.778 0 .43.329.777.735.777zm8.082-7c0-1.286.99-2.333 2.205-2.333s2.204 1.047 2.204 2.333c0 1.287-.989 2.334-2.204 2.334-1.216 0-2.205-1.047-2.205-2.334zm1.47 0c0 .43.33.778.735.778.405 0 .734-.349.734-.778 0-.428-.329-.777-.734-.777-.406 0-.735.349-.735.777zM32.222 38.225c-1.596-1.69-1.596-4.439 0-6.128l18.111-19.17c1.596-1.69 4.194-1.69 5.79 0l6.68 7.07c1.596 1.69 1.596 4.439 0 6.128L46.237 43.661a.715.715 0 01-.52.228h-7.839a.715.715 0 01-.52-.228l-5.136-5.436zm1.04-1.1l4.92 5.208h7.231l14.935-15.809a4 4 0 000-5.493l-4.889-5.175a4 4 0 00-5.815 0L33.26 33.196c-1.023 1.084-1.023 2.846 0 3.93z" fill="url(#paint1_linear)"/><defs><linearGradient id="paint0_linear" x1="1.158" y1="7.313" x2="39.942" y2="73.165" gradientUnits="userSpaceOnUse"><stop stop-color="#FDEDBA"/><stop offset=".224" stop-color="#FBEFC8"/><stop offset=".427" stop-color="#FDEDBA"/><stop offset=".708" stop-color="#F9F0D5"/><stop offset="1" stop-color="#FDEDBA"/></linearGradient><linearGradient id="paint1_linear" x1="44" y1="5" x2="44" y2="47" gradientUnits="userSpaceOnUse"><stop stop-color="#AB2E5A"/><stop offset="1" stop-color="#892045"/></linearGradient></defs></svg>