<svg width="70" height="64" fill="none" xmlns="http://www.w3.org/2000/svg"><rect y="7" width="57" height="57" rx="28.5" fill="url(#paint0_linear)"/><path d="M60.242 32.72l-4.325-.614-2.167-1.636v-.411A8.105 8.105 0 0057 23.562v-.812a3.249 3.249 0 002.188-5.65 2.495 2.495 0 00-.572-4.911 9.337 9.337 0 00-6.745-8.574 3.25 3.25 0 00-5.991 0 9.336 9.336 0 00-6.746 8.574 2.495 2.495 0 00-.572 4.91 3.248 3.248 0 002.188 5.651v.813A8.102 8.102 0 0044 30.059v.411l-1.934 1.46-4.393.403a5.765 5.765 0 00-.985.185v-4.893a3.248 3.248 0 00-5.905-1.872 3.25 3.25 0 00-5.799 2.529l1.869 13.668-.29.318a4.062 4.062 0 00.375 8.107H41.05a2.14 2.14 0 002.138-2.138v-1.733l.588-1.176a2.127 2.127 0 00-1.903-3.078h-1.935v-1.625h-1.625v1.625h-1.625v-8.019a4.06 4.06 0 011.138-.28l3.583-.328.979 5.519a.811.811 0 001.218.555l3.398-2.04 1.059 1.589v11.129h1.625V39.246l1.058-1.588 3.398 2.039a.812.812 0 001.219-.555l.946-5.34 3.702.526a4.092 4.092 0 013.49 4.022v12.025h1.624V38.35a5.727 5.727 0 00-4.883-5.63zm-30.066-2.448l1.64 11.978h-3.282l-.02-.142-1.556-11.395a3.213 3.213 0 001.636.214 3.23 3.23 0 001.581-.655zm4.887 18.478h-8.125a2.438 2.438 0 110-4.875h8.125v4.875zm0-6.5h-1.607L31.84 30.454a3.238 3.238 0 003.222-.016V42.25zm-1.625-13a1.625 1.625 0 110-3.25 1.625 1.625 0 010 3.25zm8.435 14.625a.502.502 0 01.45.727l-.675 1.347a.81.81 0 00-.085.364v1.924a.514.514 0 01-.513.513h-4.362v-4.875h5.185zM57 21.125v-3.25a1.625 1.625 0 010 3.25zm-9.75-16.25a1.625 1.625 0 013.25 0v4.063h-3.25V4.875zm-4.875 2.972v2.715H44V6.298a7.734 7.734 0 011.625-.882V9.75a.813.813 0 00.813.813h4.875a.813.813 0 00.812-.813V5.416c.575.228 1.12.524 1.625.882v4.264h1.625V7.848a7.648 7.648 0 011.615 4.34H40.76a7.647 7.647 0 011.615-4.34zm-4.062 6.836a.872.872 0 01.87-.87h19.384a.87.87 0 01.062 1.738l-9.754.697-9.754-.697a.873.873 0 01-.808-.868zm2.437 6.442a1.625 1.625 0 110-3.25v3.25zm1.625 2.438v-6.15l6.442.46a.8.8 0 00.116 0l6.442-.46v6.15a6.481 6.481 0 01-1.625 4.297v-2.672a3.254 3.254 0 00-3.25-3.25h-3.25a3.254 3.254 0 00-3.25 3.25v2.672a6.48 6.48 0 01-1.625-4.297zm9.75 1.625v4.001a6.485 6.485 0 01-6.5 0v-4.002a1.627 1.627 0 011.625-1.625h3.25a1.627 1.627 0 011.625 1.625zm-8.343 12.508l-.786-4.431 1.478-1.117 1.75 4.083-2.442 1.465zm6-1.522l-.907 1.361-.907-1.36-2.186-5.1a8.117 8.117 0 006.186 0l-2.186 5.1zm4.187 1.522l-2.443-1.465 1.75-4.083 1.478 1.116-.785 4.432zM28.19 29.352a1.625 1.625 0 110-3.25 1.625 1.625 0 010 3.25z" fill="#892045"/><path d="M57.813 45.5h-6.5v1.625h6.5v3.25h1.624v-9.75h-1.624V45.5zM45.219 20.312a1.219 1.219 0 100-2.437 1.219 1.219 0 000 2.437zm7.312 0a1.219 1.219 0 100-2.437 1.219 1.219 0 000 2.437zm-7.718 21.126h1.624v1.624h-1.624v-1.624zm0 7.312h1.624v1.625h-1.624V48.75zm3.584-23.563H47.25v1.625h1.147a5.713 5.713 0 002.45-.557l-.693-1.47a4.1 4.1 0 01-1.758.402z" fill="#892045"/><defs><linearGradient id="paint0_linear" x1="1.158" y1="7.313" x2="39.942" y2="73.165" gradientUnits="userSpaceOnUse"><stop stop-color="#FDEDBA"/><stop offset=".224" stop-color="#FBEFC8"/><stop offset=".427" stop-color="#FDEDBA"/><stop offset=".708" stop-color="#F9F0D5"/><stop offset="1" stop-color="#FDEDBA"/></linearGradient></defs></svg>