<svg width="30" height="30" fill="none" xmlns="http://www.w3.org/2000/svg"><path d="M29.867 13.383L15.277.107a.41.41 0 00-.552 0L.135 13.383a.41.41 0 00-.04.562l1.456 1.773a.41.41 0 00.593.043l1.432-1.302v2.695a1.787 1.787 0 000 3.504v3.114a1.787 1.787 0 000 3.504v2.314a.41.41 0 00.409.41h22.031a.41.41 0 00.41-.41v-2.314a1.787 1.787 0 000-3.504v-3.114a1.787 1.787 0 000-3.504V14.46l1.432 1.303a.41.41 0 00.276.106h.03a.41.41 0 00.287-.149l1.456-1.774a.41.41 0 00-.04-.562zM6.446 29.18h-2.05v-1.87h2.05v1.869zm0-2.69h-2.52a.967.967 0 010-1.933h2.52v1.934zm0-2.753h-2.05v-3.044h2.05v3.044zm0-3.864h-2.52a.967.967 0 010-1.934h2.52v1.934zm6.973.41v8.897H7.266V17.94h6.153v2.343zM6.856 17.12h-2.46v-3.043h21.21v3.043H6.856zm16.123-5.797l2.125 1.933H4.898l2.125-1.933h15.956zm-15.054-.82L15 4.061l7.076 6.44H7.925zm15.63 10.191h2.05v3.044h-2.05v-3.044zm-3.485 1.112V17.94h2.665v3.866H20.07zm2.665.82v3.866H20.07v-3.866h2.665zm-6.152-.82V17.94h2.666v3.866h-2.666zm2.666.82v3.866h-2.666v-3.866h2.666zm-5.011 1.112v-3.044h1.523v3.044h-1.523zm1.523.82v1.934h-1.523v-1.934h1.523zm-1.523-4.684V17.94h1.523v1.934h-1.523zm11.367 9.307H14.238V27.31h11.367v1.869zm1.436-3.657a.968.968 0 01-.967.967h-2.519v-1.933h2.52a.968.968 0 01.967.966h-.001zm0-6.617a.967.967 0 01-.967.967h-2.519V17.94h2.52a.968.968 0 01.967.967h-.001zm1.049-4.042l-1.798-1.636-2.879-2.62-8.136-7.403a.41.41 0 00-.552 0l-8.137 7.403-2.88 2.62-1.798 1.636-.935-1.138L15.001.965l14.025 12.76-.936 1.139z" fill="#892045"/><path d="M11.953 24.822a.41.41 0 00.41-.41v-1.801a.41.41 0 10-.82 0v1.801a.408.408 0 00.41.41z" fill="#892045"/></svg>