<svg width="142" height="63" fill="none" xmlns="http://www.w3.org/2000/svg"><g clip-path="url(#clip0)"><path opacity=".3" d="M22.562 6.297V63h-.12V6.297h.12zm-4.11 52.992V0h.12v59.289h-.12z" fill="#fff"/><path d="M30.062 43.957a14.17 14.17 0 01-4.41 2.738A14.12 14.12 0 0110.5 43.41a14.517 14.517 0 01-4.17-10.222c0-3.985 1.59-7.605 4.17-10.22a14.12 14.12 0 0110.08-4.23c1.56 0 3.06.244 4.47.73 1.44.488 2.79 1.218 4.021 2.13l-2.4 3.286a10.901 10.901 0 00-2.88-1.521 10.149 10.149 0 00-3.21-.517c-2.82 0-5.371 1.155-7.231 3.041-1.86 1.886-3 4.472-3 7.332 0 2.86 1.14 5.445 3 7.331 1.86 1.886 4.41 3.042 7.23 3.042 1.29 0 2.52-.243 3.66-.67a10.33 10.33 0 003.18-1.946l2.641 2.981z" fill="#fff"/><path opacity=".3" d="M21.091 11.894c5.82 0 11.101 2.403 14.911 6.267a21.487 21.487 0 016.181 15.119c0 5.901-2.37 11.255-6.18 15.118-3.81 3.864-9.091 6.267-14.912 6.267-5.82 0-11.1-2.403-14.91-6.267A21.487 21.487 0 010 33.28a21.49 21.49 0 016.18-15.12c3.81-3.863 9.091-6.266 14.912-6.266zm14.822 6.358c-3.81-3.863-9.031-6.236-14.821-6.236A20.67 20.67 0 006.27 18.252 21.298 21.298 0 00.12 33.28c0 5.87 2.34 11.194 6.15 15.027 3.81 3.863 9.031 6.236 14.822 6.236 5.79 0 11.04-2.373 14.82-6.236a21.298 21.298 0 006.151-15.027c0-5.872-2.34-11.165-6.15-15.028z" fill="#fff"/><path opacity=".3" d="M20.521 18.648c3.96 0 7.531 1.612 10.111 4.258a14.616 14.616 0 014.2 10.252c0 4.015-1.59 7.635-4.2 10.252-2.58 2.616-6.18 4.258-10.11 4.258-3.93 0-7.531-1.612-10.111-4.258a14.616 14.616 0 01-4.2-10.252c0-4.016 1.59-7.636 4.2-10.252 2.58-2.616 6.15-4.258 10.11-4.258zm10.021 4.35c-2.58-2.617-6.12-4.229-10.05-4.229-3.93 0-7.471 1.612-10.051 4.229a14.445 14.445 0 00-4.17 10.19c0 3.985 1.59 7.575 4.17 10.191 2.58 2.616 6.12 4.228 10.05 4.228 3.93 0 7.471-1.612 10.051-4.228a14.445 14.445 0 004.17-10.19c0-3.986-1.59-7.575-4.17-10.191z" fill="#fff"/><path opacity=".3" d="M20.521 22.633c2.88 0 5.46 1.186 7.35 3.072 1.891 1.917 3.031 4.533 3.031 7.453s-1.17 5.536-3.03 7.453a10.24 10.24 0 01-7.35 3.072c-2.88 0-5.461-1.186-7.351-3.072-1.89-1.917-3.03-4.533-3.03-7.453s1.17-5.537 3.03-7.453a10.312 10.312 0 017.35-3.072zm7.26 3.194a10.18 10.18 0 00-7.26-3.042c-2.85 0-5.4 1.156-7.26 3.042-1.86 1.886-3 4.502-3 7.361 0 2.89 1.14 5.476 3 7.362a10.181 10.181 0 007.26 3.042c2.85 0 5.4-1.156 7.26-3.042a10.465 10.465 0 003.001-7.362c0-2.89-1.14-5.506-3-7.361z" fill="#fff"/><path d="M18.481 16.153V9.947l1.95-.06h.81c6.33 0 12.091 2.616 16.232 6.814 4.17 4.228 6.72 10.038 6.72 16.457a23.41 23.41 0 01-6.72 16.457c-4.17 4.229-9.901 6.814-16.232 6.814h-.81l-1.95-.06V26.16h4.02v26.161a19.006 19.006 0 0012.121-5.566 19.288 19.288 0 005.55-13.568c0-5.293-2.13-10.1-5.55-13.567-3.15-3.194-7.38-5.263-12.12-5.567v2.16h-4.02v-.06z" fill="#892045" stroke="#fff" stroke-width=".7"/><path d="M56.644 12.442c1.08 0 1.83.304 2.31.912.51.609.72 1.43.72 2.464v6.845c0 1.034-.27 1.856-.72 2.464-.51.608-1.29.913-2.31.913h-3.18V12.442h3.18zm-.06 12.26c.57 0 .93-.183 1.2-.488.27-.334.39-.821.39-1.43v-6.996c0-.608-.12-1.095-.39-1.43-.27-.334-.69-.486-1.2-.486h-1.62v10.86h1.62v-.03zm16.831-6.207v1.339h-3.3V24.7h4.02v1.4h-5.52V12.44h5.52v1.4h-4.02v4.654h3.3zm21.482-6.175c1.02 0 1.8.304 2.31.943.51.609.72 1.43.72 2.464v1.217h-1.41v-1.308c0-.608-.12-1.095-.39-1.43-.27-.334-.63-.517-1.2-.517s-.93.183-1.2.517c-.27.335-.39.822-.39 1.43v7.21c0 .608.12 1.095.39 1.43.27.334.63.516 1.2.516s.93-.182 1.2-.517c.27-.334.39-.821.39-1.43v-1.764h1.41v1.704c0 1.034-.27 1.855-.72 2.464-.51.608-1.23.943-2.31.943-1.02 0-1.8-.305-2.28-.943-.51-.609-.72-1.43-.72-2.464v-7.027c0-.517.03-1.004.18-1.43.12-.426.3-.791.57-1.095.27-.305.57-.517.93-.7.36-.122.81-.213 1.32-.213zm11.941 13.75V12.442h1.5V24.67h3.84v1.399h-5.34zm15.421-3.194c0 .608.12 1.095.39 1.43.27.334.63.517 1.2.517s.93-.183 1.2-.517c.27-.335.39-.822.39-1.43V12.442h1.41v10.312c0 1.034-.27 1.856-.72 2.525-.48.639-1.23.943-2.28.943-1.02 0-1.8-.304-2.28-.943-.48-.608-.72-1.46-.72-2.525V12.442h1.5v10.404l-.09.03zm16.561-10.434c1.08 0 1.8.274 2.22.73.42.517.69 1.247.69 2.251v.639c0 .73-.12 1.308-.33 1.764-.21.426-.63.791-1.23.943.63.183 1.11.517 1.41 1.035.27.517.42 1.125.42 1.855v1.126c0 1.034-.27 1.825-.78 2.342-.51.578-1.29.821-2.31.821h-3.09V12.411l3 .03zm-.33 5.81c.6 0 1.08-.122 1.38-.395.3-.274.48-.73.48-1.43v-.791c0-.608-.12-1.034-.33-1.339-.21-.304-.6-.425-1.17-.425h-1.5v4.38h1.14zm.42 6.45c1.08 0 1.59-.61 1.59-1.857V21.63c0-.791-.18-1.308-.48-1.613-.3-.304-.78-.425-1.41-.425h-1.29v5.05l1.59.06zM55.594 42.649c-.75 0-1.35-.243-1.8-.73-.42-.487-.66-1.156-.66-2.038 0-.882.21-1.582.66-2.1.45-.486 1.05-.76 1.83-.76.45 0 .9.091 1.32.244l-.12.425c-.45-.152-.87-.243-1.2-.243-.66 0-1.14.213-1.47.608-.33.396-.51 1.004-.51 1.765 0 .73.18 1.308.51 1.703.33.426.81.609 1.41.609.48 0 .93-.091 1.35-.274v.456c-.33.274-.78.335-1.32.335zm6-5.049h-1.77v4.958h-.48v-4.959h-1.83v-.426h4.08v.426zm.21-.427h.51l1.14 3.042c.33.943.57 1.552.66 1.886h.03c.15-.425.36-1.064.66-1.916l1.14-3.012h.51l-2.37 6.267c-.18.517-.36.852-.48 1.034a1.13 1.13 0 01-.45.396c-.18.09-.39.121-.63.121-.18 0-.39-.03-.63-.09v-.427c.18.061.39.091.6.091.18 0 .3-.03.45-.121.12-.092.24-.213.36-.365.09-.152.21-.426.36-.791.15-.365.21-.609.27-.7l-2.13-5.415zm9.841 7.21h-.48v-1.825h-4.08v1.825h-.48V42.07h.36c.45-.639.78-1.369 1.02-2.19.24-.822.36-1.734.39-2.738h2.55v4.928h.72v2.312zm-1.2-2.282V37.63h-1.65c-.09 1.794-.51 3.285-1.29 4.471h2.94zm2.79-4.928v3.894l-.03 1.004 3.15-4.928h.66v5.384h-.48v-3.863l.03-1.034-3.15 4.928h-.63v-5.385h.45zm5.46 5.385h-.6l1.62-2.343c-.48-.09-.84-.273-1.05-.517-.21-.243-.33-.578-.33-.973 0-.487.15-.882.48-1.156.33-.274.75-.426 1.32-.426h2.19v5.384h-.48v-2.281h-1.62l-1.53 2.312zm.12-3.833c0 .365.12.639.36.821.24.183.6.274 1.08.274h1.59v-2.19h-1.71c-.39 0-.72.09-.93.273-.27.183-.39.457-.39.822zm6.991-1.552h.51l1.14 3.042c.33.943.57 1.552.66 1.886h.03c.15-.425.36-1.064.66-1.916l1.14-3.012h.51l-2.37 6.267c-.18.517-.36.852-.48 1.034a1.13 1.13 0 01-.45.396c-.18.09-.39.121-.63.121a2.6 2.6 0 01-.63-.091v-.426c.18.061.39.091.6.091.18 0 .3-.03.45-.121.12-.092.24-.213.36-.365.09-.152.21-.426.36-.791.15-.365.21-.609.27-.7l-2.13-5.415zm5.97 0v2.373h3.39v-2.373h.48v5.385h-.48v-2.616h-3.39v2.616h-.48v-5.385h.48zm6.091 0v3.894l-.03 1.004 3.15-4.928h.66v5.384h-.48v-3.863l.03-1.034-3.15 4.928h-.63v-5.385h.45zm8.46 0h.601l-2.371 2.616 2.551 2.8h-.661l-2.52-2.739v2.738h-.48v-5.384h.48v2.616l2.4-2.647zm4.951 5.385l-.12-.852h-.03c-.27.335-.54.608-.84.73-.27.152-.63.213-.99.213-.51 0-.93-.122-1.23-.395-.3-.274-.45-.64-.45-1.126 0-.517.21-.943.66-1.217.42-.304 1.05-.456 1.89-.456l1.02-.03v-.366c0-.517-.09-.912-.3-1.156-.21-.273-.54-.395-.99-.395-.48 0-.99.152-1.53.426l-.18-.426c.57-.274 1.17-.426 1.74-.426.57 0 1.02.152 1.32.456.3.305.42.791.42 1.43v3.59h-.39zm-1.98-.335c.57 0 1.02-.152 1.35-.487.33-.334.48-.79.48-1.368v-.518l-.93.03c-.75.031-1.29.153-1.59.366-.33.213-.48.517-.48.943 0 .334.09.608.3.79.21.153.51.244.87.244zm7.74.335h-.48V37.63h-1.89c-.09 1.308-.21 2.312-.36 2.98-.15.7-.33 1.187-.54 1.522a.975.975 0 01-.87.486c-.12 0-.24 0-.33-.03v-.456c.06.03.15.03.27.03.36 0 .66-.395.9-1.186.24-.791.39-2.069.51-3.803h2.79v5.385zm2.25-3.134h1.891c1.26 0 1.89.487 1.89 1.491 0 .517-.18.913-.51 1.186-.36.274-.84.426-1.5.426h-2.221v-5.384h.48l-.03 2.281zm0 .487v2.19h1.801c.45 0 .81-.09 1.05-.304.24-.213.36-.486.36-.882 0-.365-.12-.608-.33-.79-.21-.153-.6-.244-1.14-.244h-1.741v.03zm5.731-2.738v2.373h3.39v-2.373h.48v5.385h-.48v-2.616h-3.39v2.616h-.48v-5.385h.48zm6.12 2.252h1.68c1.26 0 1.89.486 1.89 1.49 0 .517-.18.913-.51 1.186-.36.274-.84.426-1.5.426h-2.04v-5.384h.48v2.282zm0 .486v2.19h1.62c.45 0 .81-.09 1.05-.304.24-.182.36-.486.36-.882 0-.365-.12-.608-.33-.79-.21-.153-.6-.244-1.14-.244h-1.56v.03zm4.981 2.647h-.48v-5.385h.48v5.385zm3.09-2.768l-1.86-2.617h.57l1.59 2.282 1.56-2.282h.54l-1.83 2.616 1.95 2.769h-.57l-1.68-2.404-1.68 2.404h-.54l1.95-2.769zm-85.296 9.582v3.894l-.03 1.003 3.15-4.928h.66v5.415h-.48v-3.863l.03-1.035-3.15 4.898h-.63v-5.384h.45zm6.03 0v2.373h3.39v-2.373h.48v5.384h-.48V52.14h-3.39v2.616h-.48v-5.384h.48zm9.031.426h-1.77v4.958h-.48v-4.958h-1.83v-.426h4.08v.426zm3.24 5.049c-.78 0-1.38-.243-1.8-.73-.42-.486-.66-1.156-.66-2.038 0-.852.21-1.551.63-2.068.42-.518.99-.791 1.68-.791.63 0 1.11.213 1.47.669.36.456.54 1.034.54 1.795v.395h-3.81c0 .73.18 1.308.51 1.704.33.395.81.578 1.44.578.3 0 .57-.03.81-.061.24-.03.51-.122.87-.274v.456c-.3.122-.57.213-.84.274-.27.061-.54.091-.84.091zm-.15-5.14c-.51 0-.93.182-1.23.517-.3.334-.48.851-.54 1.49h3.3c0-.639-.12-1.125-.39-1.46-.3-.395-.66-.548-1.14-.548zm5.791 5.14c-.81 0-1.41-.304-1.8-.943h-.03v.426c0 .244.03.517.03.791v2.069h-.48v-7.85h.42l.09.76h.03c.36-.577.96-.881 1.74-.881.72 0 1.26.243 1.65.73.39.486.57 1.186.57 2.099 0 .882-.21 1.582-.6 2.068-.39.487-.93.73-1.62.73zm-.03-.425c.54 0 .96-.213 1.26-.609.3-.395.45-.973.45-1.734 0-1.582-.57-2.373-1.68-2.373-.63 0-1.08.183-1.38.518-.3.334-.45.912-.45 1.703v.152c0 .852.15 1.46.42 1.795.3.365.75.547 1.38.547zm4.2-2.799h1.89c1.26 0 1.89.487 1.89 1.49 0 .518-.18.913-.51 1.187-.36.274-.84.426-1.5.426h-2.22V49.34h.48l-.03 2.282zm0 .487v2.19h1.8c.45 0 .81-.091 1.05-.304s.36-.487.36-.883c0-.365-.12-.608-.33-.79-.21-.153-.6-.244-1.14-.244h-1.74v.03zm7.38 2.737c-.78 0-1.38-.243-1.8-.73-.42-.486-.66-1.156-.66-2.038 0-.852.21-1.551.63-2.068.42-.518.99-.791 1.68-.791.63 0 1.11.213 1.47.669.36.456.54 1.034.54 1.795v.395h-3.84c0 .73.18 1.308.51 1.704.33.395.81.578 1.44.578.3 0 .57-.03.81-.061.24-.03.51-.122.87-.274v.456c-.3.122-.57.213-.84.274-.27.061-.51.091-.81.091zm-.15-5.14c-.51 0-.93.182-1.23.517-.3.334-.48.851-.54 1.49h3.3c0-.639-.12-1.125-.39-1.46-.3-.395-.66-.548-1.14-.548zm5.761 5.14c-.81 0-1.41-.304-1.8-.943h-.03v.426c0 .244.03.517.03.791v2.069h-.48v-7.85h.42l.09.76h.03c.36-.577.96-.881 1.74-.881.72 0 1.26.243 1.65.73.39.486.57 1.186.57 2.099 0 .882-.21 1.582-.6 2.068-.39.487-.93.73-1.62.73zm0-.425c.54 0 .96-.213 1.26-.609.3-.395.45-.973.45-1.734 0-1.582-.57-2.373-1.68-2.373-.63 0-1.08.183-1.38.518-.3.334-.45.912-.45 1.703v.152c0 .852.15 1.46.42 1.795.3.365.75.547 1.38.547zm8.1-2.373c0 .882-.21 1.582-.63 2.068-.42.487-.99.73-1.74.73-.48 0-.87-.121-1.23-.334a2.144 2.144 0 01-.81-.974c-.18-.425-.27-.912-.27-1.49 0-.882.21-1.552.63-2.069.42-.486.99-.73 1.74-.73.72 0 1.29.243 1.71.76.39.487.6 1.187.6 2.039zm-4.2 0c0 .73.15 1.308.48 1.734.33.426.78.608 1.35.608.57 0 1.05-.213 1.35-.608.3-.396.48-1.004.48-1.734s-.15-1.308-.48-1.734c-.33-.396-.78-.609-1.38-.609-.6 0-1.05.213-1.35.609-.3.426-.45 1.004-.45 1.734zm9.751-1.399c0 .334-.09.608-.24.79-.15.183-.45.335-.81.396v.03c.42.061.75.183.93.365.18.213.3.487.3.852 0 .517-.18.913-.51 1.187-.33.273-.84.425-1.47.425h-2.251v-5.384h2.251c.6 0 1.05.122 1.38.335.27.273.42.608.42 1.004zm-.51.06c0-.304-.12-.547-.33-.669-.21-.122-.54-.213-.99-.213h-1.771v1.856h1.68c.511 0 .841-.091 1.081-.244.24-.152.33-.395.33-.73zm.15 2.434c0-.67-.51-1.004-1.501-1.004h-1.74v2.16h1.801c.96 0 1.44-.396 1.44-1.156z" fill="#fff"/></g><defs><clipPath id="clip0"><path d="M0 0h142v63H0V0z" fill="#fff"/></clipPath></defs></svg>