<svg width="25" height="29" fill="none" xmlns="http://www.w3.org/2000/svg"><rect opacity=".67" x="1" y="6" width="23" height="23" rx="11.5" fill="url(#paint0_linear)"/><path d="M12.5 3.822C6.15 3.822 1 9.02 1 15.432c0 3.477 1.5 5.744 1.5 5.744l19.995.001S24 18.7 24 15.432c0-6.412-5.149-11.61-11.5-11.61zm9.152 15.94l-18.267-.007s-.973-1.843-.973-4.36c0-5.62 4.534-10.175 10.127-10.175 5.593 0 10.127 4.555 10.127 10.175 0 2.545-1.014 4.368-1.014 4.368z" fill="#EAA800"/><path d="M15.75 6.905h-.144l-3.068 6.01-3.178-6.06-4.35 10.95H3.884v.88h6.16v-.88H8.823l1.222-3.423 2.493 4.303 2.396-4.303 1.222 3.423h-1.222v.88h6.111v-.88h-1.059l-4.236-10.9z" fill="#EAA800"/><defs><linearGradient id="paint0_linear" x1="1.467" y1="6.126" x2="17.117" y2="32.698" gradientUnits="userSpaceOnUse"><stop stop-color="#FDEDBA"/><stop offset=".224" stop-color="#FBEFC8"/><stop offset=".427" stop-color="#FDEDBA"/><stop offset=".708" stop-color="#F9F0D5"/><stop offset="1" stop-color="#FDEDBA"/></linearGradient></defs></svg>