<svg width="49" height="36" fill="none" xmlns="http://www.w3.org/2000/svg"><path d="M25.175 26.145c0-4.815 1.78-9.63 5.338-14.444 3.559-4.815 7.85-8.478 12.874-10.99l4.71 5.181c-6.803 3.454-11.2 7.85-13.188 13.188.21-.105.68-.157 1.413-.157 1.78 0 3.297.68 4.553 2.041 1.36 1.256 2.041 2.93 2.041 5.024 0 2.512-.942 4.71-2.826 6.594-1.884 1.78-4.082 2.669-6.594 2.669-2.407 0-4.396-.785-5.966-2.355-1.57-1.57-2.355-3.82-2.355-6.751zm-24.963 0c0-4.815 1.78-9.63 5.338-14.444C9.109 6.886 13.4 3.223 18.424.711l4.71 5.181C16.121 9.451 11.725 13.847 9.946 19.08c.105-.105.523-.157 1.256-.157 1.884 0 3.454.68 4.71 2.041 1.36 1.256 2.041 2.93 2.041 5.024 0 2.512-.942 4.71-2.826 6.594-1.884 1.78-4.082 2.669-6.594 2.669-2.407 0-4.396-.785-5.966-2.355-1.57-1.57-2.355-3.82-2.355-6.751z" fill="#EFEEF0"/></svg>