<svg width="66" height="66" fill="none" xmlns="http://www.w3.org/2000/svg"><g clip-path="url(#clip0)"><path d="M51.004 54.989h-7.073v-8.012a1 1 0 00-1-1H30.85a1 1 0 100 2h11.08v7.012H27.785v-8.012a1 1 0 10-1.999 0v8.012H11.638v-1.255a1 1 0 10-2 0v1.255H7.223a1 1 0 000 2h10.49V64H3.565v-7.013h.301a1 1 0 100-2h-1.3a1 1 0 00-1 1V65a1 1 0 001 1h48.438a1 1 0 001-1v-9.01a1 1 0 00-1-1zM33.858 64H19.711v-7.013h14.147V64zm2 0v-7.013h14.146V64H35.858z" fill="url(#paint0_linear)"/><path d="M17.292 45.977h-6.654a1 1 0 00-1 1v2.106a1 1 0 102 0v-1.107h5.654a1 1 0 000-1.999z" fill="url(#paint1_linear)"/><path d="M63.371 3.519l-2.455-2.455a3.641 3.641 0 00-5.144 0l-3.069 3.069-2.753 2.753-27.441 27.441-.006.007a1.032 1.032 0 00-.142.182l-.01.018a1.017 1.017 0 00-.041.08c-.006.011-.011.024-.016.036l-.017.04-3.591 9.776a1 1 0 001.283 1.283l9.776-3.591.018-.008a.964.964 0 00.048-.02l.044-.021.04-.023a.377.377 0 00.048-.028l.032-.022a1.013 1.013 0 00.123-.101l.01-.009 27.44-27.44 2.753-2.754 3.07-3.07a3.641 3.641 0 000-5.143zM50.656 9.007l1.68 1.68-.01.008-25.055 25.054-2.32-1.036L50.655 9.007zm-29.348 34.12l.925-2.518 1.593 1.593-2.518.925zm4.586-1.685l-2.901-2.901.792-2.158 2.95 1.316 1.317 2.95-2.158.793zm3.828-1.958l-1.037-2.32L53.74 12.107l.008-.009 1.68 1.68-25.706 25.705zm27.12-27.12L54.455 9.98 52.07 7.593l1.34-1.34 4.771 4.772-1.34 1.34zm5.116-5.115L59.595 9.61l-4.771-4.77 2.362-2.362a1.64 1.64 0 012.316 0l2.456 2.455a1.64 1.64 0 010 2.316z" fill="url(#paint2_linear)"/></g><defs><linearGradient id="paint0_linear" x1="26.785" y1="45.977" x2="26.785" y2="66" gradientUnits="userSpaceOnUse"><stop stop-color="#AB2E5A"/><stop offset="1" stop-color="#892045"/></linearGradient><linearGradient id="paint1_linear" x1="13.965" y1="45.977" x2="13.965" y2="50.083" gradientUnits="userSpaceOnUse"><stop stop-color="#AB2E5A"/><stop offset="1" stop-color="#892045"/></linearGradient><linearGradient id="paint2_linear" x1="41.53" y1="0" x2="41.53" y2="45.81" gradientUnits="userSpaceOnUse"><stop stop-color="#AB2E5A"/><stop offset="1" stop-color="#892045"/></linearGradient><clipPath id="clip0"><path fill="#fff" d="M0 0h66v66H0z"/></clipPath></defs></svg>