<svg width="63" height="63" fill="none" xmlns="http://www.w3.org/2000/svg"><g filter="url(#filter0_d)"><rect x="12" y="5" width="39" height="39" rx="19.5" fill="url(#paint0_linear)"/></g><g filter="url(#filter1_d)"><rect x="14.836" y="7.836" width="33.327" height="33.327" rx="16.664" fill="url(#paint1_linear)"/></g><path d="M38.05 28.967l-1.9 1.884c-.28.288-.652.385-1.014.385-1.601-.048-3.114-.834-4.356-1.641-2.04-1.484-3.91-3.323-5.085-5.546-.45-.932-.979-2.121-.928-3.162.005-.391.11-.775.386-1.028l1.9-1.898c.394-.336.775-.22 1.027.171l1.529 2.898a.841.841 0 01-.172.956l-.7.7a.344.344 0 00-.071.2c.268 1.038 1.081 1.996 1.8 2.655.718.659 1.49 1.551 2.492 1.763.123.034.275.046.364-.036l.814-.828c.28-.213.686-.317.985-.143h.015l2.756 1.628c.405.253.447.744.157 1.042z" fill="#892045"/><defs><linearGradient id="paint0_linear" x1="12.792" y1="5.214" x2="39.329" y2="50.27" gradientUnits="userSpaceOnUse"><stop stop-color="#FDEDBA"/><stop offset=".224" stop-color="#FBEFC8"/><stop offset=".427" stop-color="#FDEDBA"/><stop offset=".708" stop-color="#F9F0D5"/><stop offset="1" stop-color="#FDEDBA"/></linearGradient><linearGradient id="paint1_linear" x1="15.513" y1="8.019" x2="38.19" y2="46.522" gradientUnits="userSpaceOnUse"><stop stop-color="#FDEDBA"/><stop offset=".224" stop-color="#FBEFC8"/><stop offset=".427" stop-color="#FDEDBA"/><stop offset=".708" stop-color="#F9F0D5"/><stop offset="1" stop-color="#FDEDBA"/></linearGradient><filter id="filter0_d" x="0" y="0" width="63" height="63" filterUnits="userSpaceOnUse" color-interpolation-filters="sRGB"><feFlood flood-opacity="0" result="BackgroundImageFix"/><feColorMatrix in="SourceAlpha" values="0 0 0 0 0 0 0 0 0 0 0 0 0 0 0 0 0 0 127 0"/><feOffset dy="7"/><feGaussianBlur stdDeviation="6"/><feColorMatrix values="0 0 0 0 0 0 0 0 0 0 0 0 0 0 0 0 0 0 0.19 0"/><feBlend in2="BackgroundImageFix" result="effect1_dropShadow"/><feBlend in="SourceGraphic" in2="effect1_dropShadow" result="shape"/></filter><filter id="filter1_d" x="2.836" y="2.836" width="57.327" height="57.327" filterUnits="userSpaceOnUse" color-interpolation-filters="sRGB"><feFlood flood-opacity="0" result="BackgroundImageFix"/><feColorMatrix in="SourceAlpha" values="0 0 0 0 0 0 0 0 0 0 0 0 0 0 0 0 0 0 127 0"/><feOffset dy="7"/><feGaussianBlur stdDeviation="6"/><feColorMatrix values="0 0 0 0 0 0 0 0 0 0 0 0 0 0 0 0 0 0 0.19 0"/><feBlend in2="BackgroundImageFix" result="effect1_dropShadow"/><feBlend in="SourceGraphic" in2="effect1_dropShadow" result="shape"/></filter></defs></svg>