<svg width="15" height="15" fill="none" xmlns="http://www.w3.org/2000/svg"><path d="M14.05 11.967l-1.9 1.884c-.28.287-.652.385-1.014.385-1.601-.048-3.114-.834-4.356-1.641-2.04-1.484-3.91-3.323-5.085-5.546-.45-.932-.978-2.121-.928-3.162.005-.391.11-.775.386-1.028l1.9-1.898c.394-.336.775-.22 1.027.171L5.61 4.03a.841.841 0 01-.172.956l-.7.7a.344.344 0 00-.071.2c.268 1.038 1.081 1.996 1.8 2.655.718.659 1.49 1.551 2.492 1.763.124.034.275.046.364-.036l.814-.828c.28-.213.686-.317.985-.143h.015l2.756 1.628c.405.253.447.743.157 1.042z" fill="#892045"/></svg>