<svg width="83" height="86" fill="none" xmlns="http://www.w3.org/2000/svg"><rect y="8" width="78" height="78" rx="39" fill="url(#paint0_linear)"/><g clip-path="url(#clip0)" fill="#892045"><path d="M82 19h-7a1 1 0 00-1 1v3h-9v-1a1 1 0 00-1-1h-4v-5a1 1 0 00-1-1h-3V9h2.9l5.982 1.2a4.279 4.279 0 100-8.392L58.9 3H56V1a1 1 0 00-1-1h-4a1 1 0 00-1 1v2h-2.9l-5.982-1.2a4.28 4.28 0 100 8.392L47.1 9H50v6h-3a1 1 0 00-1 1v5h-4a1 1 0 00-1 1v2h-5c-7.176.008-12.992 5.823-13 13v6a1 1 0 001 1h10a1 1 0 001-1v-6a1 1 0 011-1h5v2a1 1 0 001 1h22a1 1 0 001-1v-1h9v3a1 1 0 001 1h7a1 1 0 001-1V20a1 1 0 00-1-1zM56 5h3a.928.928 0 00.2-.02l6.078-1.215a2.279 2.279 0 110 4.47L59.2 7.02A.927.927 0 0059 7h-3V5zM41 34h-5a3 3 0 00-3 3v5h-8v-5c.008-6.072 4.929-10.993 11-11h5v8zM52 2h2v1h-2V2zm0 3h2v2h-2V5zm0 4h2v6h-2V9zm-5-2a.927.927 0 00-.2.02l-6.077 1.215a2.279 2.279 0 110-4.47L46.8 4.98c.066.014.133.02.2.02h3v2h-3zm1 10h10v4H48v-4zm15 20H43V23h20v14zm11-2h-9V25h9v10zm7 4h-5V21h5v18zM33.454 53.159l-3.573-6.633a1.042 1.042 0 00-1.762 0l-3.573 6.633a4.46 4.46 0 00.1 4.44A5 5 0 0029 60a5 5 0 004.354-2.4 4.46 4.46 0 00.1-4.44zm-1.816 3.415A3.017 3.017 0 0129 58a3.017 3.017 0 01-2.638-1.426 2.447 2.447 0 01-.054-2.467l2.692-5 2.692 5a2.447 2.447 0 01-.054 2.467z"/></g><defs><linearGradient id="paint0_linear" x1="1.584" y1="8.428" x2="54.658" y2="98.541" gradientUnits="userSpaceOnUse"><stop stop-color="#FDEDBA"/><stop offset=".224" stop-color="#FBEFC8"/><stop offset=".427" stop-color="#FDEDBA"/><stop offset=".708" stop-color="#F9F0D5"/><stop offset="1" stop-color="#FDEDBA"/></linearGradient><clipPath id="clip0"><path fill="#fff" transform="translate(23)" d="M0 0h60v60H0z"/></clipPath></defs></svg>