<svg width="83" height="86" fill="none" xmlns="http://www.w3.org/2000/svg"><rect y="8" width="78" height="78" rx="39" fill="url(#paint0_linear)"/><path d="M76.964 0H58.785a4.705 4.705 0 00-4.7 4.7v16.885c0 2.591 2.109 4.7 4.7 4.7h18.18c2.59 0 4.7-2.109 4.7-4.7V4.7c0-2.592-2.11-4.7-4.7-4.7zm2.356 21.584c0 1.3-1.056 2.357-2.356 2.357H58.785a2.359 2.359 0 01-2.356-2.357V4.7c0-1.3 1.057-2.356 2.356-2.356h18.18A2.359 2.359 0 0179.32 4.7v16.884z" fill="#892045"/><path d="M67.875 4.854c-4.57 0-8.289 3.718-8.289 8.288s3.718 8.288 8.289 8.288c4.57 0 8.288-3.717 8.288-8.288 0-4.57-3.718-8.288-8.288-8.288zm0 14.233a5.952 5.952 0 01-5.945-5.945 5.952 5.952 0 015.945-5.945 5.952 5.952 0 015.945 5.945 5.952 5.952 0 01-5.945 5.945z" fill="#892045"/><path d="M65.15 10.767a1.17 1.17 0 00-1.172 1.171v2.409a1.172 1.172 0 102.343 0v-2.409a1.17 1.17 0 00-1.171-1.171zm5.45 0c-.647 0-1.172.524-1.172 1.171v2.409a1.172 1.172 0 102.344 0v-2.409c0-.647-.525-1.171-1.172-1.171zm2.477 46.889H58.832a3.38 3.38 0 01-3.375-3.375v-9.495a5.023 5.023 0 00-5.018-5.018 5.023 5.023 0 00-5.017 5.018v9.464a3.41 3.41 0 01-3.406 3.406 3.41 3.41 0 01-3.406-3.406v-9.772a2.764 2.764 0 002.627-2.758v-1.245h.057a6.479 6.479 0 006.472-6.472v-7.24h1.433c.7 0 1.27-.569 1.27-1.27v-2.226a3.259 3.259 0 00-3.255-3.255h-2.237v-8.653a3.045 3.045 0 00-3.042-3.042 3.046 3.046 0 00-3.042 3.042v8.653h-2.91v-8.653a3.045 3.045 0 00-3.043-3.042 3.045 3.045 0 00-3.04 3.043v8.653h-2.24a3.259 3.259 0 00-3.255 3.255v2.226c0 .701.57 1.27 1.271 1.27h1.433v7.24a6.48 6.48 0 006.472 6.472h.057v1.245a2.765 2.765 0 002.627 2.758v9.772c0 3.17 2.58 5.75 5.75 5.75s5.75-2.58 5.75-5.75v-9.464a2.676 2.676 0 012.673-2.674c1.475 0 2.674 1.2 2.674 2.674v9.495A5.726 5.726 0 0058.833 60h14.244a1.172 1.172 0 100-2.344zM41.237 11.36a.7.7 0 011.396 0v8.653h-1.396V11.36zm-8.995 0a.699.699 0 011.397 0v8.653h-1.397V11.36zm-2.788 22.644v-7.24h6.276a1.172 1.172 0 000-2.343h-8.98v-1.153c0-.503.409-.911.911-.911h19.554c.502 0 .91.408.91.911v1.153h-3.02a1.172 1.172 0 100 2.344h.317v7.239a4.133 4.133 0 01-4.128 4.128h-7.712a4.133 4.133 0 01-4.128-4.128zm6.529 7.717v-1.245h2.91v1.245c0 .23-.187.417-.417.417H36.4a.418.418 0 01-.417-.417z" fill="#892045"/><path d="M40.418 26.764h.003a1.171 1.171 0 10-.003-2.344 1.172 1.172 0 100 2.344z" fill="#892045"/><defs><linearGradient id="paint0_linear" x1="1.584" y1="8.428" x2="54.658" y2="98.541" gradientUnits="userSpaceOnUse"><stop stop-color="#FDEDBA"/><stop offset=".224" stop-color="#FBEFC8"/><stop offset=".427" stop-color="#FDEDBA"/><stop offset=".708" stop-color="#F9F0D5"/><stop offset="1" stop-color="#FDEDBA"/></linearGradient></defs></svg>