<svg width="83" height="86" fill="none" xmlns="http://www.w3.org/2000/svg"><rect y="8" width="78" height="78" rx="39" fill="url(#paint0_linear)"/><g clip-path="url(#clip0)"><path d="M82.121 12.088A.879.879 0 0083 11.21V7.13c0-1.128-1.758-1.13-1.758 0v1.16h-2.81V7.13a.879.879 0 00-.879-.879h-2.256V2.82A2.806 2.806 0 0072.494.017h-1.771a2.806 2.806 0 00-2.803 2.802v3.432h-1.927V2.87A2.806 2.806 0 0063.19.067h-1.771a2.806 2.806 0 00-2.803 2.803v3.381h-1.928V2.87A2.806 2.806 0 0053.886.067h-1.772a2.806 2.806 0 00-2.802 2.803v3.381h-1.928V2.87A2.806 2.806 0 0044.58.067h-1.77a2.806 2.806 0 00-2.803 2.803v3.381H38.08V2.87A2.806 2.806 0 0035.277.067h-1.772a2.806 2.806 0 00-2.802 2.803v3.381H28.89c-.728 0-1.321.593-1.321 1.322v3.193c0 .73.593 1.322 1.321 1.322h1.814v36.21h-2.781v-.88a.879.879 0 00-.879-.878h-.703v-2.077a2.112 2.112 0 001.523-2.025 2.111 2.111 0 00-2.11-2.109h-.585c-1.163 0-2.11.946-2.11 2.11 0 .959.645 1.77 1.524 2.024v2.077h-.703a.879.879 0 00-.879.879v5.215c0 1.006.608 1.871 1.474 2.253v4.25c0 1.13 1.758 1.13 1.758 0V54.97a2.464 2.464 0 001.69-2.335v-2.578h2.781v3.323a2.806 2.806 0 002.802 2.803h1.772a2.806 2.806 0 002.803-2.803v-.944h1.928v.944c0 1.544 1.254 2.8 2.797 2.802v2.957c0 1.128 1.758 1.13 1.758 0v-2.956h.018a2.806 2.806 0 002.803-2.803v-.944h1.928v.944a2.806 2.806 0 002.803 2.803h1.771a2.806 2.806 0 002.802-2.803v-.944h1.928v.944a2.806 2.806 0 002.803 2.803h.019v2.956c0 1.128 1.757 1.13 1.757 0V56.18a2.806 2.806 0 002.798-2.802v-.944h1.927v.893a2.806 2.806 0 002.803 2.803h1.771a2.806 2.806 0 002.803-2.803v-3.273h2.781v2.579c0 1.087.71 2.01 1.69 2.335v4.169c0 1.128 1.758 1.13 1.758 0v-4.251A2.463 2.463 0 0083 52.634v-5.215a.879.879 0 00-.879-.88h-.703v-2.076a2.112 2.112 0 001.523-2.025 2.111 2.111 0 00-2.109-2.109h-.586c-1.163 0-2.11.946-2.11 2.11 0 .959.645 1.77 1.524 2.024v2.077h-.703a.879.879 0 00-.879.879v.879h-2.781V30.25c0-1.13-1.758-1.147-1.758 0v23.077c0 .576-.468 1.045-1.044 1.045h-1.772a1.046 1.046 0 01-1.045-1.045V2.82c0-.576.469-1.045 1.045-1.045h1.772c.576 0 1.044.47 1.044 1.045v22.04c0 1.13 1.758 1.147 1.758 0V12.088h2.256a.879.879 0 00.88-.879v-1.16h2.81v1.16c0 .486.393.88.878.88zM25.168 42.087h.586a.352.352 0 010 .703h-.586a.352.352 0 010-.703zm.996 10.547a.704.704 0 01-1.406 0v-4.336h1.406v4.336zm54.082-10.547h.586a.352.352 0 010 .703h-.586a.352.352 0 010-.703zm.996 6.21v4.337a.704.704 0 01-1.406 0v-4.336h1.406zM67.92 8.01v2.321h-1.927V8.01h1.927zm-4.73 46.415h-1.771a1.046 1.046 0 01-1.045-1.045V2.87c0-.576.469-1.045 1.045-1.045h1.771c.576 0 1.045.469 1.045 1.045v50.51c0 .575-.469 1.044-1.045 1.044zm-9.304 0h-1.772a1.046 1.046 0 01-1.044-1.045V41.853c0-1.13-1.758-1.147-1.758 0v4.746h-1.928v-34.51h1.928v24.959c0 1.13 1.758 1.146 1.758 0V2.87c0-.576.468-1.045 1.044-1.045h1.772c.576 0 1.044.469 1.044 1.045v50.51c0 .575-.468 1.044-1.044 1.044zm-9.305 0H42.81a1.046 1.046 0 01-1.045-1.045V2.87c0-.576.469-1.045 1.045-1.045h1.771c.576 0 1.045.469 1.045 1.045v50.51c0 .575-.468 1.044-1.045 1.044zm-7.38-35.013a.879.879 0 00-.88.879v33.09c0 .575-.468 1.044-1.044 1.044h-1.772a1.046 1.046 0 01-1.044-1.045V2.87c0-.576.468-1.045 1.044-1.045h1.772c.576 0 1.045.469 1.045 1.045v12.264c0 1.128 1.758 1.13 1.758 0v-3.046h1.928v34.51H38.08V20.29a.88.88 0 00-.88-.879zm19.487-7.323h1.928v34.51h-1.928v-34.51zm9.305 0h1.927v34.51h-1.927v-34.51zM58.616 8.01v2.321h-1.928V8.01h1.928zm-9.304 0v2.321h-1.928V8.01h1.928zm-9.305 0v2.321H38.08V8.01h1.927zm-10.681 2.32V8.01h1.377v2.32h-1.377zm8.754 40.348v-2.321h1.927v2.32H38.08zm9.304 0v-2.321h1.928v2.32h-1.928zm9.304 0v-2.321h1.928v2.32h-1.928zm9.305 0v-2.321h1.927v2.32h-1.927zM76.674 10.33h-1.377V8.01h1.377v2.32z" fill="#892045"/></g><defs><linearGradient id="paint0_linear" x1="1.584" y1="8.428" x2="54.658" y2="98.541" gradientUnits="userSpaceOnUse"><stop stop-color="#FDEDBA"/><stop offset=".224" stop-color="#FBEFC8"/><stop offset=".427" stop-color="#FDEDBA"/><stop offset=".708" stop-color="#F9F0D5"/><stop offset="1" stop-color="#FDEDBA"/></linearGradient><clipPath id="clip0"><path fill="#fff" transform="translate(23)" d="M0 0h60v60H0z"/></clipPath></defs></svg>