<svg width="255" height="2" fill="none" xmlns="http://www.w3.org/2000/svg"><path opacity=".1" d="M185 1c5.821-.4 11.48-.6 17.301-.8 5.82-.2 11.479-.2 17.3-.2 5.821 0 11.48 0 17.301.2 5.821.2 11.48.4 17.3.8-5.82.4-11.479.6-17.3.8-5.821.2-11.48.2-17.301.2-5.821 0-11.48 0-17.3-.2-5.821-.2-11.48-.6-17.301-.8zM0 1.155C5.72.87 11.438.726 17.3.583 23.02.44 28.74.44 34.602.44c5.72 0 11.439 0 17.3.143 5.72.143 11.44.286 17.301.572-5.719.286-11.438.43-17.3.572-5.72.143-11.439.143-17.3.143-5.72 0-11.44 0-17.301-.143C11.438 1.584 5.719 1.298 0 1.155z" fill="#892045"/></svg>