<svg width="56" height="51" fill="none" xmlns="http://www.w3.org/2000/svg"><rect y="5.578" width="45.422" height="45.422" rx="22.711" fill="url(#paint0_linear)"/><g clip-path="url(#clip0)" fill="#892045"><path d="M43.793 21.387c.397 0 .781.116 1.112.337l4.668 3.112a3.338 3.338 0 001.854.561h4.354v-1.336h-4.353a2 2 0 01-1.113-.337l-1.886-1.257V0H23.032v4.01h-8.688v37.427H39.74v-4.01h8.688v-5.622c.042-.01.086-.014.128-.024l3.11-.777a8.672 8.672 0 012.11-.26h2.004v-1.337h-2.005c-.82 0-1.639.101-2.434.3l-3.109.777a8.74 8.74 0 01-4.86-.187l-1.126-.375a10.02 10.02 0 00-3.174-.515H33.24c0-1.105.9-2.005 2.006-2.005h7.351c1.106 0 2.005-.9 2.005-2.005a2.002 2.002 0 00-1.77-1.981l.549-2.029h.412zm-.844 10.178a9.983 9.983 0 003.174.516c.324 0 .648-.028.97-.06v4.07H39.74v-2.186c.235-.271.416-.591.514-.953l.547-2.028c.345.07.686.154 1.021.266l1.126.375zm-3.486-.806l-.498 1.843c-.13.48-.567.815-1.064.815h-.217a1.102 1.102 0 01-1.063-1.389l.347-1.284h2.105c.13 0 .26.01.39.015zm-3.88-.015l-.253.935a2.43 2.43 0 001.148 2.743l-.21.838 1.297.324.208-.83h.128c.172 0 .34-.024.503-.059v5.406H15.68V5.347h8.689v-4.01h22.724v20.239l-1.446-.964a3.336 3.336 0 00-1.854-.562h-.051l2.781-10.29a2.44 2.44 0 00-2.354-3.075h-.216c-1.1 0-2.067.74-2.354 1.802L39.74 15.36V4.01H25.706v1.336h12.698V20.05h-1.383c-.727 0-1.412.242-1.985.669H28.38v1.336h5.253l-1.337 1.337H28.38v1.337h2.58l-1.116 1.117a2.088 2.088 0 001.475 3.562c.206 0 .404-.04.597-.098-.001.033-.01.064-.01.097 0 .738.599 1.337 1.336 1.337h2.342zm5.148-4.678h-2.498l2.822-10.443 2.292.764-2.616 9.678zm-5.127-4.092a2.02 2.02 0 011.418-.587h1.09l-.545 2.017a3.311 3.311 0 00-2.24.966l-3.48 3.48a.75.75 0 01-1.06-1.06l4.817-4.816zm.668 3.342c.253-.253.574-.425.917-.515l-.341 1.265h-1.325l.75-.75zm8.96-15.906l-.818 3.028-2.292-.764.767-2.839c.13-.48.567-.815 1.064-.815h.216a1.102 1.102 0 011.064 1.39zm-3.46 3.556l2.293.764-.369 1.365-2.292-.764.369-1.364zm.825 11.763a.67.67 0 010 1.337h-.481l.361-1.337h.12z"/><path d="M34.394 6.684H17.017v6.683h17.377V6.684zm-1.337 5.346H18.354V8.02h14.703v4.01z"/><path d="M19.69 9.356h1.337v1.337H19.69V9.356zm2.674 0H23.7v1.337h-1.337V9.356zm2.673 0h1.337v1.337h-1.337V9.356zm2.673 0h1.337v1.337h-1.336V9.356zm2.674 0h1.337v1.337h-1.337V9.356zm-5.347 12.031h-1.336v2.673h-5.347v-5.346h4.01v-1.337h-5.347v8.02h8.02v-4.01z"/><path d="M27.238 14.9l-6.21 6.21-.865-.864-.945.945 1.81 1.81 7.155-7.157-.945-.945zM23.7 35.423h-5.346v-5.347h4.01v-1.337h-5.347v8.02h8.02v-4.01h-1.336v2.674z"/><path d="M20.163 31.608l-.945.946 1.81 1.809 7.155-7.156-.945-.945-6.21 6.21-.865-.864zm15.567 5.151h1.338v1.337H35.73v-1.337zm-8.688 0h7.352v1.337h-7.352v-1.337zm1.337-18.714h8.689v1.337h-8.689v-1.337z"/></g><defs><linearGradient id="paint0_linear" x1=".923" y1="5.827" x2="31.829" y2="58.303" gradientUnits="userSpaceOnUse"><stop stop-color="#FDEDBA"/><stop offset=".224" stop-color="#FBEFC8"/><stop offset=".427" stop-color="#FDEDBA"/><stop offset=".708" stop-color="#F9F0D5"/><stop offset="1" stop-color="#FDEDBA"/></linearGradient><clipPath id="clip0"><path fill="#fff" transform="translate(14.344)" d="M0 0h41.438v41.438H0z"/></clipPath></defs></svg>