<svg width="56" height="51" fill="none" xmlns="http://www.w3.org/2000/svg"><rect y="5.578" width="45.422" height="45.422" rx="22.711" fill="url(#paint0_linear)"/><g clip-path="url(#clip0)" fill="#892045"><path d="M50.256 29.006h-1.081c-.759 0-1.507.177-2.185.516a3.522 3.522 0 01-3.136 0 4.888 4.888 0 00-1.243-.414l1.346-10.461h1.465a.69.69 0 00.69-.69v-2.763a.69.69 0 00-.69-.69h-2.763V12.43a.69.69 0 00-.202-.488l-3.25-3.25V6.546l1.046-.837 1.788 3.577 1.237-.618-1.922-3.842.855-.683h2.52a.69.69 0 00.69-.69V.69a.69.69 0 00-.69-.691h-6.906a6.223 6.223 0 00-6.216 6.216c0 .381.31.69.691.69h1.381v1.786l-1.87 1.87a.69.69 0 00-.202.488v3.453h-1.38V8.978a.681.681 0 00-.051-.25.71.71 0 00-.043-.077.774.774 0 00-.058-.105l-2.611-3.263V.691A.69.69 0 0026.775 0h-4.144a.69.69 0 00-.69.69v4.593l-2.612 3.263a.763.763 0 00-.058.105.727.727 0 00-.043.078.686.686 0 00-.05.25v5.524h-2.762a.69.69 0 00-.691.69v2.763c0 .382.31.69.69.69h1.465l2.685 20.808a.69.69 0 00.685.602h16.257a4.132 4.132 0 003.08 1.382h1.082a4.916 4.916 0 002.185-.516 3.522 3.522 0 013.136 0 4.904 4.904 0 002.185.516h1.081a4.148 4.148 0 004.144-4.144V33.15a4.148 4.148 0 00-4.144-4.144zM42.66 1.381h1.382v1.382H42.66V1.38zm2.072 14.503v1.382h-9.669v-1.382h9.67zM33.04 5.525a4.842 4.842 0 014.785-4.144h3.453v1.74l-3.005 2.404H33.04zm4.785 1.381v1.381h-2.763v-1.38h2.763zm-4.834 4.43l1.667-1.667h3.572l3.048 3.048v1.786h-8.287v-3.167zm-.691 4.548h1.381v4.835a.69.69 0 00.382.621l4.144 2.072c.202.1.355.277.425.491.071.23.046.48-.07.69a.807.807 0 01-1.081.363l-.002-.001-2.804-1.402a.69.69 0 00-.994.619v6.906a1.38 1.38 0 01-1.381 1.381v-6.215h-1.381v6.215h-1.381v-6.215h-1.382v6.215h-1.381v-6.215h-1.381v6.215a1.381 1.381 0 01-1.381-1.38V15.883H32.3zM23.322 1.381h2.762v3.453h-2.762V1.381zm-.36 4.835h3.482L28.1 8.287h-6.796l1.658-2.071zM20.56 9.669h8.288v4.834H20.56V9.67zm-3.453 7.597v-1.382h5.525v1.382h-5.525zM36.444 33.15v4.144c.001.47.083.938.241 1.381H21.857l-2.584-20.028h3.358v12.431a2.762 2.762 0 002.763 2.763H32.3a2.762 2.762 0 002.763-2.763V25.29l1.803.902c1.09.538 2.41.09 2.948-1l.007-.013a2.236 2.236 0 00-.992-3.003l-3.767-1.883v-1.645h7.503l-1.337 10.36h-.64a4.148 4.148 0 00-4.144 4.143zm16.575 4.144a2.763 2.763 0 01-2.763 2.762h-1.081c-.544 0-1.08-.127-1.567-.37a4.912 4.912 0 00-4.372 0 3.523 3.523 0 01-1.567.37h-1.081a2.763 2.763 0 01-2.763-2.762V36.23a4.123 4.123 0 002.762 1.064h1.082c.759 0 1.506-.177 2.185-.516a3.522 3.522 0 013.136 0 4.905 4.905 0 002.185.516h1.081c1.021 0 2.005-.38 2.763-1.064v1.064zm-2.763-1.381h-1.081a3.536 3.536 0 01-1.567-.37 4.913 4.913 0 00-4.372 0 3.522 3.522 0 01-1.567.37h-1.081a2.762 2.762 0 110-5.525h1.081c.544 0 1.08.127 1.567.37a4.915 4.915 0 004.372 0 3.522 3.522 0 011.567-.37h1.081a2.763 2.763 0 010 5.524z"/><path d="M50.947 31.769h-1.381v1.38h1.38v-1.38zm-6.907 0h-1.38v1.38h1.38v-1.38zm-2.762.69h-1.381v1.381h1.381v-1.38zm6.906 0h-1.38v1.381h1.38v-1.38z"/></g><defs><linearGradient id="paint0_linear" x1=".923" y1="5.827" x2="31.829" y2="58.303" gradientUnits="userSpaceOnUse"><stop stop-color="#FDEDBA"/><stop offset=".224" stop-color="#FBEFC8"/><stop offset=".427" stop-color="#FDEDBA"/><stop offset=".708" stop-color="#F9F0D5"/><stop offset="1" stop-color="#FDEDBA"/></linearGradient><clipPath id="clip0"><path fill="#fff" transform="translate(14.344)" d="M0 0h41.438v41.438H0z"/></clipPath></defs></svg>