<svg width="56" height="51" fill="none" xmlns="http://www.w3.org/2000/svg"><rect y="5.578" width="45.422" height="45.422" rx="22.711" fill="url(#paint0_linear)"/><g clip-path="url(#clip0)"><path d="M51.897 13.597h-.648V.647H14.991v27.194h2.59v9.712c0 1.07.872 1.942 1.942 1.942a1.945 1.945 0 001.943-1.942v-1.295a.648.648 0 011.295 0v2.59c0 1.07.871 1.942 1.942 1.942h16.834c1.071 0 1.943-.871 1.943-1.942s-.872-1.943-1.943-1.943h-2.59a.648.648 0 01-.647-.647v-7.122h1.942a3.222 3.222 0 002.573-1.295h8.434v-7.77h.648a3.241 3.241 0 003.237-3.237 3.241 3.241 0 00-3.237-3.237zm-4.533 0v-1.295h2.59v1.295h-2.59zm-2.59 0v1.295h-1.942c-.221 0-.438.022-.647.065v-2.655h3.884v1.295h-1.295zm-9.064 6.505v-2.62h3.95a3.205 3.205 0 00-.065.647v7.122H38.3v-2.28a2.893 2.893 0 00-2.59-2.869zm14.244-9.095H46.07V7.122h3.885v3.885zm-18.129 5.18v-3.885h3.885v3.884h-3.885zm-1.295-5.18V7.122h3.885v3.885H30.53zm-1.295 0h-3.884V7.122h3.884v3.885zm-5.18 0h-3.884V7.122h3.885v3.885zm1.296 1.295v3.884h-3.885v-3.884h3.885zm1.294 0h3.885v3.884h-3.885v-3.884zm9.065-1.295V7.122h3.885v3.885H35.71zm5.18 0V7.122h3.884v3.885H40.89zm1.295-5.18V1.942h3.884v3.885h-3.884zm-1.295 0h-3.885V1.942h3.885v3.885zm-5.18 0h-3.885V1.942h3.885v3.885zm-5.18 0h-3.885V1.942h3.885v3.885zm-5.18 0h-3.884V1.942h3.885v3.885zm-6.474 5.18h-2.59V7.122h2.59v3.885zm1.295 1.295v3.884h-3.885v-3.884h3.885zm-1.295 5.18v3.884h-2.59v-3.885h2.59zm1.295 0h3.885v3.884H20.17v-3.885zm5.18 0h3.884v3.884h-3.884v-3.885zm5.405 3.884h-.226v-3.885h3.885v2.76l-3.66 1.125zm9.503-5.18h-3.254v-3.884h3.885v3.254c-.24.18-.45.392-.631.63zm9.695-10.359h-2.59V1.942h2.59v3.885zM20.171 1.942v3.885h-3.885V1.942h3.885zm-3.885 20.72h10.261l-7.271 2.237a2.384 2.384 0 00-1.601 1.647h-1.389V22.66zM35.4 35.61c-.16 0-.318-.024-.471-.07l-15.273-4.7a1.1 1.1 0 01-.78-1.057v-.461c.127.065.259.123.4.166l15.273 4.7a2.883 2.883 0 002.456-.36v.178c0 .885-.72 1.604-1.605 1.604zm3.547 2.59h2.59a.648.648 0 010 1.295H24.703a.648.648 0 01-.647-.647v-2.59a1.946 1.946 0 00-1.943-1.943c-1.07 0-1.942.872-1.942 1.943v1.295a.648.648 0 01-1.295 0V31.91c.127.066.259.123.4.167l15.273 4.7c.277.084.563.127.852.127.599 0 1.156-.182 1.619-.496.08 1 .908 1.791 1.927 1.791zm-1.942-7.77v.986a1.606 1.606 0 01-2.077 1.534l-15.272-4.7a1.1 1.1 0 01-.78-1.057 1.1 1.1 0 01.78-1.056l15.273-4.7a1.606 1.606 0 012.076 1.534v2.28h-1.943a1.946 1.946 0 00-1.915 2.267c.152.922 1.007 1.618 1.989 1.618h1.869v1.295zm5.18-4.532a1.946 1.946 0 01-1.943 1.943h-5.106c-.35 0-.662-.235-.712-.534a.646.646 0 01.638-.761h4.533c.714 0 1.295-.58 1.295-1.295v-7.122c0-1.071.871-1.943 1.942-1.943h1.942v1.295H43.48c-.715 0-1.295.581-1.295 1.295v7.122zm1.23.648c.042-.21.065-.426.065-.648v-3.237h6.474v3.885h-6.54zm6.54-5.18H43.48v-2.59h1.294v1.295h5.18v1.295zm1.942-2.59h-5.828v-3.884h5.828c1.07 0 1.942.871 1.942 1.942 0 1.07-.872 1.942-1.942 1.942z" fill="#892045"/></g><defs><linearGradient id="paint0_linear" x1=".923" y1="5.827" x2="31.829" y2="58.303" gradientUnits="userSpaceOnUse"><stop stop-color="#FDEDBA"/><stop offset=".224" stop-color="#FBEFC8"/><stop offset=".427" stop-color="#FDEDBA"/><stop offset=".708" stop-color="#F9F0D5"/><stop offset="1" stop-color="#FDEDBA"/></linearGradient><clipPath id="clip0"><path fill="#fff" transform="translate(14.344)" d="M0 0h41.438v41.438H0z"/></clipPath></defs></svg>