<svg width="56" height="51" fill="none" xmlns="http://www.w3.org/2000/svg"><rect y="5.578" width="45.422" height="45.422" rx="22.711" fill="url(#paint0_linear)"/><g clip-path="url(#clip0)" fill="#892045"><path d="M50.903 19.202c-1.41-.705-4.054-.713-4.166-.713a.607.607 0 100 1.214c.682 0 2.663.105 3.623.585a.604.604 0 00.814-.271.607.607 0 00-.271-.815z"/><path d="M53.929 27.844l-2.507-.716a.254.254 0 01-.184-.244v-.837c.204-.14.399-.299.58-.476a4.465 4.465 0 001.367-3.23v-1.155l.243-.484a3.871 3.871 0 00.406-1.723v-3.128a.607.607 0 00-.607-.607h-5.84a3.857 3.857 0 00-3.853 3.852v.036c0 .495.117.99.338 1.433l.311.621v.992a4.74 4.74 0 001.947 3.83v.876c0 .135 0 .191-.5.335l-1.224.349-3.539-1.287a.607.607 0 00-.165-.464l-1.13-1.188v-1.995a7.124 7.124 0 002.596-5.486v-1.592c.43-.937.648-1.929.648-2.95v-6.49a.607.607 0 00-.607-.607h-9.086a5.806 5.806 0 00-5.799 5.799v1.298a7.01 7.01 0 00.649 2.95v1.37a7.417 7.417 0 002.596 5.662v2.04l-1.13 1.189a.606.606 0 00-.166.464l-3.735 1.358c-.27.099-.522.232-.75.394l-.587-.294c1.746-.76 2.3-1.828 2.326-1.881a.607.607 0 000-.543c-.438-.875-.49-2.48-.533-3.768-.015-.43-.028-.835-.054-1.196-.207-2.912-2.42-5.107-5.148-5.107-2.728 0-4.942 2.195-5.149 5.107-.025.361-.039.767-.053 1.196-.043 1.288-.096 2.892-.533 3.768a.607.607 0 000 .543c.026.053.578 1.12 2.327 1.88l-1.629.814a2.54 2.54 0 00-1.411 2.285v4.484a.607.607 0 101.214 0v-4.484c0-.51.284-.97.74-1.199l2.029-1.014.705.67a2.547 2.547 0 001.76.704c.633 0 1.266-.235 1.76-.703l.705-.67.661.33a3.197 3.197 0 00-.488 1.695v4.672a.607.607 0 101.214 0V30.65c0-.834.526-1.585 1.31-1.87l3.937-1.431 1.639 2.458a1.251 1.251 0 001.046.56c.332 0 .65-.13.887-.368l1-1v6.323a.607.607 0 001.214 0v-6.323l1 1a1.25 1.25 0 001.012.362c.376-.038.712-.24.921-.553l1.64-2.46 3.937 1.433a1.995 1.995 0 011.31 1.869v4.672a.607.607 0 001.213 0V30.65c0-.844-.335-1.636-.898-2.221l.15-.043c.152-.043.358-.102.565-.204l1.55 1.55v5.59a.607.607 0 001.214 0v-5.59l1.54-1.539c.08.042.167.077.257.102l2.507.717c.572.163.972.693.972 1.288v5.022a.607.607 0 101.214 0V30.3a2.565 2.565 0 00-1.852-2.456zm-35.691-1.072c-1.136-.409-1.705-.953-1.948-1.25.166-.434.273-.93.346-1.454a4.526 4.526 0 001.602 1.976v.728zm3.477 1.643a1.34 1.34 0 01-1.846 0l-.565-.537c.096-.178.148-.38.148-.592v-.647a4.487 4.487 0 002.68 0v.646c0 .212.052.415.147.593l-.564.537zm-.923-2.787a3.29 3.29 0 01-3.287-3.287.607.607 0 00-.707-.598l.006-.156c.013-.417.026-.812.05-1.15.078-1.09.514-2.096 1.227-2.83a3.751 3.751 0 012.711-1.149c1.028 0 1.99.408 2.71 1.15.714.733 1.15 1.739 1.228 2.83.024.337.037.731.05 1.149l.004.108c-.66-1.018-1.68-1.767-2.998-2.19a7.62 7.62 0 00-2.309-.367.607.607 0 00-.42.186l-1.095 1.136a.607.607 0 00.874.842l.911-.945c.785.039 3.31.332 4.292 2.495a3.28 3.28 0 01-3.247 2.776zm2.554 1.146v-.724a4.489 4.489 0 001.602-1.979c.073.523.18 1.018.346 1.45-.242.295-.814.845-1.948 1.253zm5.841-9.847V15.42a.607.607 0 00-.06-.264 5.823 5.823 0 01-.589-2.551v-1.298a4.59 4.59 0 014.585-4.585h8.48v5.883c0 .884-.199 1.742-.59 2.55a.608.608 0 00-.06.265v1.728c0 1.644-.66 3.169-1.86 4.293-.15.14-.306.272-.466.395l-.01.008a5.836 5.836 0 01-3.94 1.175c-3.078-.2-5.49-2.876-5.49-6.093zm3.418 12.213a.038.038 0 01-.034.012.039.039 0 01-.03-.018l-1.889-2.832.608-.638 2.864 1.957-1.52 1.52zm2.465-2.342l-3.287-2.247v-1.133a6.835 6.835 0 003.293.828 7.03 7.03 0 003.281-.804v1.109l-3.287 2.247zm2.53 2.336a.039.039 0 01-.03.018c-.02.003-.03-.007-.034-.012l-1.52-1.518 2.865-1.958.607.638-1.888 2.832zm11.084-.512l-1.377-1.378c.024-.109.037-.228.037-.36v-.256a4.252 4.252 0 001.342.214c.46 0 .91-.07 1.338-.202v.244c0 .121.015.24.044.354l-1.384 1.384zm2.29-3.922a3.262 3.262 0 01-2.391.927c-1.757-.053-3.186-1.6-3.186-3.45v-1.134a.606.606 0 00-.064-.271l-.375-.75a1.999 1.999 0 01-.21-.89v-.036a2.641 2.641 0 012.638-2.638h5.234v2.521c0 .408-.096.815-.278 1.18l-.307.613a.606.606 0 00-.064.271v1.298a3.26 3.26 0 01-.998 2.36z"/><path d="M52.578 30.82a.607.607 0 00-.607.607v3.894a.607.607 0 001.214 0v-3.894a.607.607 0 00-.607-.607zm-35.031.803a.607.607 0 00-.607.607v3.092a.607.607 0 101.214 0V32.23a.607.607 0 00-.607-.607zm22.495-18.797c-2.295-2.296-7.099-1.857-9.057-1.562a1.246 1.246 0 00-1.065 1.242v1.398a.607.607 0 001.214 0v-1.398c0-.02.014-.039.032-.041.782-.118 2.335-.3 3.943-.193 1.893.126 3.264.601 4.075 1.412a.607.607 0 00.858-.858zM27.931 32.118a.607.607 0 00-.607.607v2.596a.607.607 0 101.214 0v-2.596a.607.607 0 00-.607-.607zm14.279 0a.607.607 0 00-.608.607v2.596a.607.607 0 101.214 0v-2.596a.607.607 0 00-.607-.607z"/></g><defs><linearGradient id="paint0_linear" x1=".923" y1="5.827" x2="31.829" y2="58.303" gradientUnits="userSpaceOnUse"><stop stop-color="#FDEDBA"/><stop offset=".224" stop-color="#FBEFC8"/><stop offset=".427" stop-color="#FDEDBA"/><stop offset=".708" stop-color="#F9F0D5"/><stop offset="1" stop-color="#FDEDBA"/></linearGradient><clipPath id="clip0"><path fill="#fff" transform="translate(14.344)" d="M0 0h41.438v41.438H0z"/></clipPath></defs></svg>