<svg width="56" height="51" fill="none" xmlns="http://www.w3.org/2000/svg"><rect y="5.578" width="45.422" height="45.422" rx="22.711" fill="url(#paint0_linear)"/><g clip-path="url(#clip0)"><path d="M48.189 29.687c-.547-2.736-3.113-3.202-3.121-3.206-.028-.008.235.058-6.26-1.552v-.22h4.782a1.79 1.79 0 001.787-1.787v-9.119a2.24 2.24 0 000-1.03v-3.33a.607.607 0 10-1.214 0v1.742a3.15 3.15 0 00-1.081-.396 1.583 1.583 0 00-1.334-1.22c-.695-.092-1.221-.496-1.565-1.204a1.034 1.034 0 00-.843-.582 1.03 1.03 0 00-.931.42c-1.044 1.42-3.945 4.606-8.954 4.606-.381 0-.64-.019-.73-.023a1.605 1.605 0 00-1.699 1.603v1.395c0 2.23.925 4.39 2.538 5.93a8.13 8.13 0 001.753 1.275v.505h-4.759a.574.574 0 01-.573-.573V9.28c0-4.423 3.606-8.067 7.961-8.067h.043c1.56.009 3.362.452 4.59 1.13.778.429 1.259.087 2.027.087 1.876 0 3.379 1.929 3.559 3.664.001.025.004.127.004.517 0 .586.662.63.608.606a.607.607 0 00.606-.607c0-.108.001-.53-.01-.629-.243-2.415-2.303-4.765-4.767-4.765-.962 0-1.112.244-1.44.063C37.772.512 35.743.01 33.995 0c-5.04-.032-9.225 4.166-9.225 9.28v13.642a1.79 1.79 0 001.787 1.787h4.76v.22l-6.236 1.546-.024.006-.456.135a.637.637 0 00-.04.013c-.813.303-2.235 1.104-2.625 3.058-1.848 9.281-1.77 8.885-1.774 8.917-.223 1.574.565 2.833 2.46 2.833h6.566a.607.607 0 100-1.214h-2.285v-5.726a.607.607 0 10-1.214 0v5.726h-3.066c-.806 0-1.275-.26-1.283-1.106-.003-.414-.02-.011 1.787-9.193.272-1.361 1.26-1.93 1.84-2.15l.42-.124 3.581-.888c3.983 4.692 3.747 4.444 3.977 4.668 1.33 1.297 3.227 1.206 4.475-.26l3.75-4.404 3.566.884c.103.047 1.879.36 2.261 2.274 1.79 9.102 1.79 8.777 1.787 9.192-.007.83-.455 1.107-1.283 1.107h-3.044v-5.726a.607.607 0 10-1.215 0v5.726h-11.22a.607.607 0 100 1.214h15.48c1.5 0 2.483-.825 2.497-2.311.005-.694-.037-.363-1.81-9.44zM43.12 12.042c.507.151.898.485 1.042.898v.696c-.144.412-.535.746-1.042.897v-2.49zm0 3.848v-.112c.38-.07.732-.204 1.042-.389v7.533a.574.574 0 01-.573.573h-4.782v-.47a8.037 8.037 0 004.313-7.134zm-12.719 4.946a7.015 7.015 0 01-2.162-5.051c.037-1.322-.087-1.482.124-1.68a.383.383 0 01.288-.106c4.353.262 8.097-1.651 10.569-4.855.666 1.17 1.644 1.534 2.368 1.63a.365.365 0 01.318.36v4.757c0 6.04-7.231 9.024-11.505 4.945zm6.094 9.546c-.845.994-2.03.991-2.873-.005l-1.267-1.495h5.418l-1.278 1.5zm2.311-2.714h-7.48l-1.043-1.232 1.787-.442a.614.614 0 00.46-.596V23.52a8.051 8.051 0 005.063.018c.012 1.94-.026 1.895.034 2.067a.609.609 0 00.427.389l1.798.445-1.046 1.229z" fill="#892045"/></g><defs><linearGradient id="paint0_linear" x1=".923" y1="5.827" x2="31.829" y2="58.303" gradientUnits="userSpaceOnUse"><stop stop-color="#FDEDBA"/><stop offset=".224" stop-color="#FBEFC8"/><stop offset=".427" stop-color="#FDEDBA"/><stop offset=".708" stop-color="#F9F0D5"/><stop offset="1" stop-color="#FDEDBA"/></linearGradient><clipPath id="clip0"><path fill="#fff" transform="translate(14.344)" d="M0 0h41.438v41.438H0z"/></clipPath></defs></svg>