<svg width="25" height="29" fill="none" xmlns="http://www.w3.org/2000/svg"><rect opacity=".67" x="1" y="6" width="23" height="23" rx="11.5" fill="url(#paint0_linear)"/><path d="M22.708 19.462l-2.96 2.937c-.438.448-1.017.6-1.581.601-2.495-.075-4.853-1.3-6.79-2.559-3.178-2.312-6.094-5.18-7.925-8.644C2.75 10.344 1.927 8.49 2.005 6.87c.007-.61.172-1.21.601-1.602l2.961-2.96c.615-.523 1.21-.342 1.603.267l2.382 4.517c.25.535.107 1.109-.267 1.491l-1.091 1.09a.536.536 0 00-.111.312c.418 1.619 1.685 3.111 2.804 4.138 1.12 1.027 2.323 2.419 3.885 2.748.193.054.43.073.568-.056l1.269-1.29c.437-.332 1.069-.494 1.536-.222h.022l4.296 2.536c.631.395.697 1.16.245 1.624z" fill="#EAA800"/><defs><linearGradient id="paint0_linear" x1="1.467" y1="6.126" x2="17.117" y2="32.698" gradientUnits="userSpaceOnUse"><stop stop-color="#FDEDBA"/><stop offset=".224" stop-color="#FBEFC8"/><stop offset=".427" stop-color="#FDEDBA"/><stop offset=".708" stop-color="#F9F0D5"/><stop offset="1" stop-color="#FDEDBA"/></linearGradient></defs></svg>