<svg width="20" height="20" viewBox="0 0 20 20" fill="none" xmlns="http://www.w3.org/2000/svg">
<g opacity="0.4">
<path fill-rule="evenodd" clip-rule="evenodd" d="M19.6667 18.6149V5.61488H15.6667V18.6149H14.6667V8.28155H10.6667V18.6149H9.66667V10.9482H5.66667V18.6149H4.66667V13.9482H0.666667V18.6149H0.333333C0.149333 18.6149 0 18.7639 0 18.9482C0 19.1325 0.149333 19.2815 0.333333 19.2815H0.666667H4.66667H5.66667H9.66667H10.6667H14.6667H15.6667H19.6667C19.8507 19.2815 20 19.1325 20 18.9482C20 18.7639 19.8507 18.6149 19.6667 18.6149ZM1.33333 18.6149V14.6149H4V18.6149H1.33333ZM6.33333 11.6149V18.6149H9V11.6149H6.33333ZM11.3333 18.6149V8.94821H14V18.6149H11.3333ZM16.3333 6.28155V18.6149H19V6.28155H16.3333Z" fill="#192D44"/>
<path d="M2.67666 9.39155C2.733 9.39155 2.79066 9.37721 2.843 9.34688L14.9327 2.36688L14.176 4.03021C14.0997 4.19788 14.1737 4.39555 14.3413 4.47155C14.386 4.49221 14.433 4.50155 14.4793 4.50155C14.606 4.50155 14.727 4.42888 14.783 4.30621L15.9703 1.69621C15.974 1.68788 15.9733 1.67888 15.9763 1.67021C15.9827 1.65255 15.9877 1.63555 15.991 1.61688C15.9927 1.60755 15.998 1.59988 15.9987 1.59021C15.999 1.58621 15.9973 1.58288 15.9977 1.57888C15.9983 1.56621 15.997 1.55455 15.9963 1.54188C15.9953 1.52355 15.9923 1.50621 15.9883 1.48788C15.9857 1.47521 15.985 1.46221 15.9807 1.44988C15.9767 1.43788 15.9697 1.42788 15.9643 1.41621C15.96 1.40855 15.96 1.39955 15.9553 1.39155C15.9507 1.38355 15.9427 1.37888 15.9373 1.37121C15.9303 1.36088 15.925 1.34988 15.9167 1.34055C15.908 1.33055 15.897 1.32355 15.887 1.31455C15.8733 1.30221 15.8597 1.29088 15.8443 1.28088C15.834 1.27421 15.8247 1.26688 15.8133 1.26121C15.8097 1.25955 15.8077 1.25621 15.804 1.25455C15.7957 1.25088 15.7867 1.25155 15.7783 1.24855C15.76 1.24188 15.742 1.23721 15.723 1.23388C15.7143 1.23221 15.7073 1.22721 15.6983 1.22655L12.8443 0.94988C12.6593 0.931213 12.498 1.06655 12.4803 1.24921C12.4623 1.43255 12.5967 1.59555 12.7797 1.61321L14.5983 1.78955L2.50966 8.76955C2.35 8.86155 2.29566 9.06555 2.38766 9.22488C2.44933 9.33188 2.56133 9.39155 2.67666 9.39155Z" fill="#192D44"/>
</g>
</svg>
