<svg width="126" height="28" viewBox="0 0 126 28" fill="none" xmlns="http://www.w3.org/2000/svg">
<path d="M40.466 19.5329H44.226V21.0049H38.642V9.88485H40.466V19.5329ZM46.6793 11.0209C46.3487 11.0209 46.0713 10.9089 45.8473 10.6849C45.6233 10.4609 45.5113 10.1835 45.5113 9.85285C45.5113 9.52219 45.6233 9.24485 45.8473 9.02085C46.0713 8.79685 46.3487 8.68485 46.6793 8.68485C46.9993 8.68485 47.2713 8.79685 47.4953 9.02085C47.7193 9.24485 47.8313 9.52219 47.8313 9.85285C47.8313 10.1835 47.7193 10.4609 47.4953 10.6849C47.2713 10.9089 46.9993 11.0209 46.6793 11.0209ZM47.5753 12.1889V21.0049H45.7513V12.1889H47.5753ZM54.4181 12.0449C55.1114 12.0449 55.7301 12.1889 56.2741 12.4769C56.8287 12.7649 57.2607 13.1915 57.5701 13.7569C57.8794 14.3222 58.0341 15.0049 58.0341 15.8049V21.0049H56.2261V16.0769C56.2261 15.2875 56.0287 14.6849 55.6341 14.2689C55.2394 13.8422 54.7007 13.6289 54.0181 13.6289C53.3354 13.6289 52.7914 13.8422 52.3861 14.2689C51.9914 14.6849 51.7941 15.2875 51.7941 16.0769V21.0049H49.9701V12.1889H51.7941V13.1969C52.0927 12.8342 52.4714 12.5515 52.9301 12.3489C53.3994 12.1462 53.8954 12.0449 54.4181 12.0449ZM63.8487 16.6049L67.9127 21.0049H65.4487L62.1847 17.2129V21.0049H60.3607V9.16485H62.1847V16.0449L65.3847 12.1889H67.9127L63.8487 16.6049ZM77.3001 16.3809C77.3001 16.7115 77.2787 17.0102 77.2361 17.2769H70.5001C70.5534 17.9809 70.8147 18.5462 71.2841 18.9729C71.7534 19.3995 72.3294 19.6129 73.0121 19.6129C73.9934 19.6129 74.6867 19.2022 75.0921 18.3809H77.0601C76.7934 19.1915 76.3081 19.8582 75.6041 20.3809C74.9107 20.8929 74.0467 21.1489 73.0121 21.1489C72.1694 21.1489 71.4121 20.9622 70.7401 20.5889C70.0787 20.2049 69.5561 19.6715 69.1721 18.9889C68.7987 18.2955 68.6121 17.4955 68.6121 16.5889C68.6121 15.6822 68.7934 14.8875 69.1561 14.2049C69.5294 13.5115 70.0467 12.9782 70.7081 12.6049C71.3801 12.2315 72.1481 12.0449 73.0121 12.0449C73.8441 12.0449 74.5854 12.2262 75.2361 12.5889C75.8867 12.9515 76.3934 13.4635 76.7561 14.1249C77.1187 14.7755 77.3001 15.5275 77.3001 16.3809ZM75.3961 15.8049C75.3854 15.1329 75.1454 14.5942 74.6761 14.1889C74.2067 13.7835 73.6254 13.5809 72.9321 13.5809C72.3027 13.5809 71.7641 13.7835 71.3161 14.1889C70.8681 14.5835 70.6014 15.1222 70.5161 15.8049H75.3961ZM89.7671 12.0449C90.4604 12.0449 91.0791 12.1889 91.6231 12.4769C92.1777 12.7649 92.6097 13.1915 92.9191 13.7569C93.2391 14.3222 93.3991 15.0049 93.3991 15.8049V21.0049H91.5911V16.0769C91.5911 15.2875 91.3937 14.6849 90.9991 14.2689C90.6044 13.8422 90.0657 13.6289 89.3831 13.6289C88.7004 13.6289 88.1564 13.8422 87.7511 14.2689C87.3564 14.6849 87.1591 15.2875 87.1591 16.0769V21.0049H85.3511V16.0769C85.3511 15.2875 85.1537 14.6849 84.7591 14.2689C84.3644 13.8422 83.8257 13.6289 83.1431 13.6289C82.4604 13.6289 81.9164 13.8422 81.5111 14.2689C81.1164 14.6849 80.9191 15.2875 80.9191 16.0769V21.0049H79.0951V12.1889H80.9191V13.1969C81.2177 12.8342 81.5964 12.5515 82.0551 12.3489C82.5137 12.1462 83.0044 12.0449 83.5271 12.0449C84.2311 12.0449 84.8604 12.1942 85.4151 12.4929C85.9697 12.7915 86.3964 13.2235 86.6951 13.7889C86.9617 13.2555 87.3777 12.8342 87.9431 12.5249C88.5084 12.2049 89.1164 12.0449 89.7671 12.0449ZM95.1121 16.5569C95.1121 15.6715 95.2934 14.8875 95.6561 14.2049C96.0294 13.5222 96.5307 12.9942 97.1601 12.6209C97.8001 12.2369 98.5041 12.0449 99.2721 12.0449C99.9654 12.0449 100.568 12.1835 101.08 12.4609C101.603 12.7275 102.019 13.0635 102.328 13.4689V12.1889H104.168V21.0049H102.328V19.6929C102.019 20.1089 101.597 20.4555 101.064 20.7329C100.531 21.0102 99.9227 21.1489 99.2401 21.1489C98.4827 21.1489 97.7894 20.9569 97.1601 20.5729C96.5307 20.1782 96.0294 19.6342 95.6561 18.9409C95.2934 18.2369 95.1121 17.4422 95.1121 16.5569ZM102.328 16.5889C102.328 15.9809 102.2 15.4529 101.944 15.0049C101.699 14.5569 101.373 14.2155 100.968 13.9809C100.563 13.7462 100.125 13.6289 99.6561 13.6289C99.1867 13.6289 98.7494 13.7462 98.3441 13.9809C97.9387 14.2049 97.6081 14.5409 97.3521 14.9889C97.1067 15.4262 96.9841 15.9489 96.9841 16.5569C96.9841 17.1649 97.1067 17.6982 97.3521 18.1569C97.6081 18.6155 97.9387 18.9675 98.3441 19.2129C98.7601 19.4475 99.1974 19.5649 99.6561 19.5649C100.125 19.5649 100.563 19.4475 100.968 19.2129C101.373 18.9782 101.699 18.6369 101.944 18.1889C102.2 17.7302 102.328 17.1969 102.328 16.5889ZM108.692 13.6769V18.5569C108.692 18.8875 108.766 19.1275 108.916 19.2769C109.076 19.4155 109.342 19.4849 109.716 19.4849H110.836V21.0049H109.396C108.574 21.0049 107.945 20.8129 107.508 20.4289C107.07 20.0449 106.852 19.4209 106.852 18.5569V13.6769H105.812V12.1889H106.852V9.99685H108.692V12.1889H110.836V13.6769H108.692ZM113.445 11.0209C113.114 11.0209 112.837 10.9089 112.613 10.6849C112.389 10.4609 112.277 10.1835 112.277 9.85285C112.277 9.52219 112.389 9.24485 112.613 9.02085C112.837 8.79685 113.114 8.68485 113.445 8.68485C113.765 8.68485 114.037 8.79685 114.261 9.02085C114.485 9.24485 114.597 9.52219 114.597 9.85285C114.597 10.1835 114.485 10.4609 114.261 10.6849C114.037 10.9089 113.765 11.0209 113.445 11.0209ZM114.341 12.1889V21.0049H112.517V12.1889H114.341ZM116.128 16.5889C116.128 15.6822 116.309 14.8875 116.672 14.2049C117.045 13.5115 117.557 12.9782 118.208 12.6049C118.858 12.2315 119.605 12.0449 120.448 12.0449C121.514 12.0449 122.394 12.3009 123.088 12.8129C123.792 13.3142 124.266 14.0342 124.512 14.9729H122.544C122.384 14.5355 122.128 14.1942 121.776 13.9489C121.424 13.7035 120.981 13.5809 120.448 13.5809C119.701 13.5809 119.104 13.8475 118.656 14.3809C118.218 14.9035 118 15.6395 118 16.5889C118 17.5382 118.218 18.2795 118.656 18.8129C119.104 19.3462 119.701 19.6129 120.448 19.6129C121.504 19.6129 122.202 19.1489 122.544 18.2209H124.512C124.256 19.1169 123.776 19.8315 123.072 20.3649C122.368 20.8875 121.493 21.1489 120.448 21.1489C119.605 21.1489 118.858 20.9622 118.208 20.5889C117.557 20.2049 117.045 19.6715 116.672 18.9889C116.309 18.2955 116.128 17.4955 116.128 16.5889Z" fill="white"/>
<rect x="0.802673" y="1.38255" width="30.014" height="25.5589" rx="8" fill="#4285F4"/>
<path fill-rule="evenodd" clip-rule="evenodd" d="M6.75992 9.10423H9.22396V16.5306H12.4517V19.2198H6.75992V9.10423Z" fill="white"/>
</svg>
