<svg width="113" height="122" viewBox="0 0 113 122" fill="none" xmlns="http://www.w3.org/2000/svg">
<path d="M55.564 22.5481L8.65833 44.1968L55.564 65.8455L102.47 44.1968L55.564 22.5481Z" fill="#4285F4"/>
<path d="M102.47 44.1968L55.564 22.5481V65.8455L102.47 44.1968Z" fill="#2B5EB2"/>
<path d="M88.1668 23.12H55.7817C48.5437 23.1129 42.6704 28.9746 42.6632 36.2126C42.661 38.4607 43.2371 40.6716 44.3362 42.6326L28.1437 14.849C39.9377 -0.415531 61.873 -3.22884 77.1375 8.56515C82.0396 12.3528 85.8462 17.3761 88.1668 23.12Z" fill="url(#paint0_linear)"/>
<path d="M90.7297 36.2255C90.7136 55.5201 75.0763 71.1574 55.7817 71.1735C54.3204 71.179 52.8607 71.0816 51.4132 70.8823L67.1398 42.7783C70.7442 36.5035 68.5956 28.4953 62.3345 24.8674C60.3521 23.7197 58.1014 23.1167 55.8108 23.12H88.1667C89.8675 27.2797 90.7382 31.7317 90.7297 36.2255Z" fill="#FFC107"/>
<g style="mix-blend-mode:overlay" filter="url(#filter0_f)">
<path fill-rule="evenodd" clip-rule="evenodd" d="M21.0401 52.4884L56.4462 67.3963L92.4735 50.0038L93.7158 60.2529L57.6885 83.5464L32.221 78.5771L17.3132 67.7068L21.0401 52.4884Z" fill="black"/>
</g>
<path d="M67.1398 42.7783L51.4132 70.8823H51.3841C32.2463 68.4644 18.6922 50.9898 21.1101 31.852C21.8928 25.6576 24.3215 19.7862 28.1437 14.849L44.3362 42.6326L44.4236 42.7783C48.0346 49.0512 56.0469 51.2091 62.3198 47.5982C64.3236 46.4448 65.9865 44.7819 67.1398 42.7783Z" fill="#4CAF50"/>
<mask id="mask0" mask-type="alpha" maskUnits="userSpaceOnUse" x="20" y="14" width="48" height="57">
<path d="M67.1398 42.7783L51.4132 70.8823H51.3841C32.2463 68.4644 18.6922 50.9898 21.1101 31.852C21.8928 25.6576 24.3215 19.7862 28.1437 14.849L44.3362 42.6326L44.4236 42.7783C48.0346 49.0512 56.0469 51.2091 62.3198 47.5982C64.3236 46.4448 65.9865 44.7819 67.1398 42.7783Z" fill="white"/>
</mask>
<g mask="url(#mask0)">
<g style="mix-blend-mode:overlay" opacity="0.718973" filter="url(#filter1_f)">
<path fill-rule="evenodd" clip-rule="evenodd" d="M21.0401 52.4884L56.4462 67.3963L92.4735 50.0038L93.7158 60.2529L57.6885 83.5464L32.221 78.5771L17.3132 67.7068L21.0401 52.4884Z" fill="black"/>
</g>
</g>
<path d="M67.1398 42.7783C63.5288 49.0512 55.5164 51.2091 49.2435 47.5982C47.2399 46.4448 45.577 44.7819 44.4236 42.7783L44.3362 42.6326C40.7976 36.3186 43.0476 28.3315 49.3616 24.7929C51.3228 23.6938 53.5337 23.1177 55.7817 23.1199H55.8108C58.1014 23.1166 60.3521 23.7196 62.3344 24.8673C68.5957 28.4953 70.7442 36.5035 67.1398 42.7783Z" fill="#F44336"/>
<path d="M67.1398 42.7783C63.5288 49.0512 55.5164 51.2091 49.2435 47.5982C47.2399 46.4448 45.577 44.7819 44.4236 42.7783L44.3362 42.6326C40.7976 36.3186 43.0476 28.3315 49.3616 24.7929C51.3228 23.6938 53.5337 23.1177 55.7817 23.1199H55.8108C58.1014 23.1166 60.3521 23.7196 62.3344 24.8673C68.5957 28.4953 70.7442 36.5035 67.1398 42.7783Z" fill="#2196F3"/>
<path fill-rule="evenodd" clip-rule="evenodd" d="M48.5009 48.8476C50.6992 50.1179 53.1933 50.787 55.7323 50.7872C60.9518 50.7921 65.7794 48.0183 68.4038 43.5064C69.6837 41.2894 70.3568 38.7743 70.3547 36.2143C70.3486 28.1722 63.824 21.6577 55.7818 21.664C53.2228 21.6626 50.7086 22.3355 48.4926 23.6149C41.5278 27.636 39.1415 36.5417 43.1626 43.5064C44.4434 45.7237 46.2843 47.5656 48.5009 48.8476ZM45.6758 30.401C47.7596 26.7782 51.6287 24.554 55.8079 24.5762V24.5764H55.8108C57.8476 24.5805 59.8478 25.1186 61.6119 26.137C67.1836 29.354 69.0926 36.4786 65.8758 42.0504C62.6589 47.6284 55.5291 49.5425 49.9511 46.3256C44.3731 43.1088 42.459 35.979 45.6758 30.401Z" fill="#FAFAFA"/>
<path d="M101.422 100.607L55.5643 121.772V65.8455L102.47 44.1968V98.9686C102.47 99.6723 102.061 100.312 101.422 100.607Z" fill="#4285F4"/>
<path d="M9.70626 100.607L55.564 121.772V65.8455L8.65833 44.1968V98.9684C8.65833 99.6723 9.06748 100.312 9.70626 100.607Z" fill="#2B5EB2"/>
<path d="M102.47 44.1968L55.564 65.8455L63.9469 90.9945C64.2869 92.0145 65.4382 92.5125 66.4144 92.0622L110.024 71.9347C110.858 71.5494 111.27 70.5982 110.979 69.7261L102.47 44.1968Z" fill="#92CFFF"/>
<path d="M8.65832 44.1968L55.5642 65.8455L47.1812 90.9945C46.8412 92.0145 45.6898 92.5125 44.7136 92.0622L1.10419 71.9345C0.269614 71.5492 -0.141929 70.598 0.14884 69.7259L8.65832 44.1968Z" fill="#92CFFF"/>
<defs>
<filter id="filter0_f" x="4.83668" y="37.5273" width="101.356" height="58.4956" filterUnits="userSpaceOnUse" color-interpolation-filters="sRGB">
<feFlood flood-opacity="0" result="BackgroundImageFix"/>
<feBlend mode="normal" in="SourceGraphic" in2="BackgroundImageFix" result="shape"/>
<feGaussianBlur stdDeviation="6.23824" result="effect1_foregroundBlur"/>
</filter>
<filter id="filter1_f" x="4.83668" y="37.5273" width="101.356" height="58.4956" filterUnits="userSpaceOnUse" color-interpolation-filters="sRGB">
<feFlood flood-opacity="0" result="BackgroundImageFix"/>
<feBlend mode="normal" in="SourceGraphic" in2="BackgroundImageFix" result="shape"/>
<feGaussianBlur stdDeviation="6.23824" result="effect1_foregroundBlur"/>
</filter>
<linearGradient id="paint0_linear" x1="28.1437" y1="1.27466" x2="28.1437" y2="42.6326" gradientUnits="userSpaceOnUse">
<stop stop-color="#FA7866"/>
<stop offset="1" stop-color="#F44336"/>
</linearGradient>
</defs>
</svg>
