<svg width="21" height="21" viewBox="0 0 21 21" fill="none" xmlns="http://www.w3.org/2000/svg">
<g opacity="0.39">
<path fill-rule="evenodd" clip-rule="evenodd" d="M13.2364 14.2024C11.9373 15.3016 10.2718 15.9511 8.43981 15.9511C4.3094 15.9511 0.928467 12.5869 0.928467 8.43979C0.928467 4.30939 4.3094 0.928452 8.43981 0.928452C12.5869 0.928452 15.9511 4.29273 15.9511 8.43979C15.9511 10.2552 15.285 11.9373 14.2024 13.2364L20.0316 19.0656C20.2981 19.3321 20.2981 19.7651 20.0316 20.0316C19.8983 20.1648 19.7318 20.2314 19.5486 20.2314C19.3654 20.2314 19.1988 20.1648 19.0656 20.0316L13.2364 14.2024ZM14.5854 8.43979C14.5854 5.05886 11.8374 2.29415 8.43981 2.29415C5.05887 2.29415 2.29417 5.05886 2.29417 8.43979C2.29417 11.8207 5.04222 14.5854 8.43981 14.5854C11.8374 14.5854 14.5854 11.8374 14.5854 8.43979Z" fill="#192D44"/>
</g>
</svg>
