<svg width="17" height="18" viewBox="0 0 17 18" fill="none" xmlns="http://www.w3.org/2000/svg">
<path fill-rule="evenodd" clip-rule="evenodd" d="M9.8615 10.15C9.69359 10.3809 9.43489 10.5256 9.15112 10.5477C9.1255 10.5496 9.10014 10.5507 9.07479 10.5507C8.81828 10.5507 8.57158 10.4493 8.38867 10.2661C8.18776 10.0652 8.085 9.78744 8.10708 9.50366C8.12916 9.21989 8.27391 8.9612 8.50398 8.79382L12.033 6.24069C12.1412 6.16273 12.2906 6.17445 12.3855 6.26904C12.4803 6.3639 12.4921 6.51328 12.4138 6.62151L9.8615 10.15ZM8.82428 9.23488C8.72396 9.30794 8.66017 9.42161 8.65063 9.54619C8.64082 9.67049 8.68607 9.79262 8.77385 9.88066C8.86244 9.96926 8.98429 10.0123 9.10832 10.0042C9.2329 9.99434 9.34657 9.93082 9.42017 9.82969L10.977 7.67754L8.82428 9.23488Z" fill="#192D44"/>
<path fill-rule="evenodd" clip-rule="evenodd" d="M15.2573 5.52512C15.256 5.5224 15.2553 5.5196 15.2546 5.51681C15.2539 5.51374 15.2531 5.51067 15.2515 5.50768C15.2498 5.50477 15.2475 5.50256 15.2452 5.50035C15.2432 5.49841 15.2412 5.49647 15.2396 5.49405C14.964 5.02137 14.6379 4.58167 14.2677 4.18313L14.8533 3.59787L15.2387 3.98332L16.3951 2.8267L15.2387 1.67034L14.0821 2.8267L14.4678 3.21242L13.8823 3.79768C13.4838 3.4275 13.0443 3.1012 12.5714 2.82561C12.569 2.82395 12.567 2.82194 12.5651 2.81993C12.5629 2.81764 12.5607 2.81536 12.5578 2.81361C12.5548 2.81191 12.5517 2.81117 12.5487 2.81043C12.5459 2.80974 12.5431 2.80905 12.5403 2.80761C11.6972 2.32185 10.7499 1.99828 9.73993 1.8797V1.55504H10.1488C10.5247 1.55504 10.8303 1.24945 10.8303 0.873545C10.8303 0.497635 10.5245 0.192055 10.1485 0.192055H7.69518C7.31927 0.192055 7.01369 0.497635 7.01369 0.873545C7.01369 1.24945 7.31927 1.55504 7.69518 1.55504H8.10408V1.87016C7.80967 1.9015 7.51582 1.94948 7.22523 2.016C7.07857 2.04952 6.98671 2.19591 7.02051 2.34257C7.05404 2.48922 7.20042 2.58136 7.34708 2.54728C7.59787 2.48977 7.85111 2.44642 8.1049 2.41726L8.39739 2.39463C8.4868 2.38782 8.56913 2.38291 8.64927 2.37909V2.91802C8.64927 3.06876 8.77112 3.19061 8.92187 3.19061C9.07261 3.19061 9.19446 3.06876 9.19446 2.91802V2.381C10.2197 2.42816 11.1858 2.70348 12.0447 3.15654L11.7759 3.62186C11.7007 3.75243 11.7454 3.91899 11.8757 3.99422C11.9185 4.01903 11.9654 4.03075 12.0117 4.03075C12.1061 4.03075 12.1977 3.98196 12.2481 3.89445L12.516 3.43022C13.369 3.97133 14.0936 4.69589 14.6347 5.54884L14.1704 5.8168C14.0404 5.89204 13.9957 6.05859 14.0712 6.18917C14.1219 6.27667 14.2132 6.32547 14.3075 6.32547C14.3539 6.32547 14.4008 6.31374 14.4436 6.28894L14.9089 6.02016C15.3682 6.89138 15.6444 7.87327 15.6855 8.91486H15.1471C14.9964 8.91486 14.8745 9.03671 14.8745 9.18745C14.8745 9.3382 14.9964 9.46005 15.1471 9.46005H15.6855C15.6444 10.5016 15.3682 11.4835 14.9089 12.3547L14.4436 12.086C14.3133 12.0107 14.1464 12.0549 14.0712 12.1857C13.996 12.3163 14.0407 12.4829 14.171 12.5581L14.6352 12.8261C14.0941 13.679 13.3695 14.4036 12.5166 14.9447L12.2486 14.4805C12.1731 14.3496 12.006 14.3052 11.8763 14.3807C11.7457 14.4559 11.701 14.6227 11.7765 14.753L12.0453 15.2184C11.1863 15.6714 10.2202 15.9467 9.19501 15.9939V15.4574C9.19501 15.3067 9.07316 15.1848 8.92241 15.1848C8.77167 15.1848 8.64982 15.3067 8.64982 15.4574V15.9961C8.21448 15.9811 7.77778 15.9266 7.3479 15.8279C7.20124 15.7927 7.05486 15.886 7.02133 16.0326C6.98752 16.1793 7.07939 16.3257 7.22605 16.3592C7.77015 16.4846 8.32597 16.5478 8.87743 16.5478C8.88541 16.5478 8.89319 16.5475 8.90101 16.5472L8.91696 16.5467C8.91728 16.5467 8.91759 16.5468 8.91788 16.5468C8.9185 16.5469 8.91906 16.5471 8.91961 16.5473C8.92036 16.5476 8.92108 16.5478 8.92187 16.5478C8.92296 16.5478 8.92398 16.5475 8.925 16.5471C8.92602 16.5468 8.92705 16.5465 8.92814 16.5465C10.2385 16.5375 11.4679 16.1836 12.5316 15.5725C12.5349 15.571 12.5383 15.5698 12.5416 15.5686L12.5416 15.5686C12.5469 15.5667 12.5522 15.5648 12.5572 15.5618C12.5601 15.5601 12.5623 15.5578 12.5645 15.5555C12.5665 15.5535 12.5684 15.5515 12.5708 15.5498C13.6719 14.9082 14.5919 13.9892 15.2349 12.889C15.237 12.886 15.2394 12.8833 15.2417 12.8806C15.2451 12.8766 15.2485 12.8726 15.2513 12.8678C15.253 12.8647 15.2538 12.8615 15.2545 12.8583C15.2551 12.8556 15.2557 12.853 15.257 12.8503C15.8796 11.7708 16.2375 10.5207 16.2375 9.18773C16.2375 7.85473 15.8796 6.6046 15.2573 5.52512ZM15.2385 2.44124L15.6239 2.8267L15.2385 3.21242L14.8527 2.8267L15.2385 2.44124ZM8.64927 1.00984V1.83336C8.66889 1.83254 8.68743 1.83231 8.70595 1.83208C8.71831 1.83193 8.73066 1.83177 8.74332 1.83145C8.76214 1.8311 8.78096 1.83037 8.79979 1.82964C8.82567 1.82864 8.85155 1.82763 8.87743 1.82763C8.88084 1.82763 8.88425 1.82777 8.88766 1.8279C8.89106 1.82804 8.89447 1.82818 8.89788 1.82818C8.90169 1.82818 8.90578 1.82804 8.90987 1.8279C8.91396 1.82777 8.91805 1.82763 8.92187 1.82763C9.0091 1.82763 9.0996 1.82954 9.19446 1.83336V1.00984H10.1485C10.2235 1.00984 10.2848 0.948509 10.2848 0.873545C10.2848 0.798581 10.2235 0.737247 10.1485 0.737247H7.69518C7.62022 0.737247 7.55889 0.798581 7.55889 0.873545C7.55889 0.948509 7.62022 1.00984 7.69518 1.00984H8.64927Z" fill="#192D44"/>
<path d="M6.4685 4.0084H5.10552C4.95478 4.0084 4.83292 4.13025 4.83292 4.281C4.83292 4.43174 4.95478 4.55359 5.10552 4.55359H6.4685C6.61925 4.55359 6.7411 4.43174 6.7411 4.281C6.7411 4.13025 6.61925 4.0084 6.4685 4.0084Z" fill="#192D44"/>
<path d="M6.4685 5.91657H3.74254C3.59179 5.91657 3.46994 6.03842 3.46994 6.18917C3.46994 6.33991 3.59179 6.46176 3.74254 6.46176H6.4685C6.61925 6.46176 6.7411 6.33991 6.7411 6.18917C6.7411 6.03842 6.61925 5.91657 6.4685 5.91657Z" fill="#192D44"/>
<path d="M6.4685 7.82475H2.37956C2.22881 7.82475 2.10696 7.9466 2.10696 8.09734C2.10696 8.24809 2.22881 8.36994 2.37956 8.36994H6.4685C6.61925 8.36994 6.7411 8.24809 6.7411 8.09734C6.7411 7.9466 6.61925 7.82475 6.4685 7.82475Z" fill="#192D44"/>
<path d="M6.4685 9.73292H1.28918C1.13843 9.73292 1.01658 9.85477 1.01658 10.0055C1.01658 10.1563 1.13843 10.2781 1.28918 10.2781H6.4685C6.61925 10.2781 6.7411 10.1563 6.7411 10.0055C6.7411 9.85477 6.61925 9.73292 6.4685 9.73292Z" fill="#192D44"/>
<path d="M6.4685 11.6411H2.92475C2.77401 11.6411 2.65216 11.7629 2.65216 11.9137C2.65216 12.0644 2.77401 12.1863 2.92475 12.1863H6.4685C6.61925 12.1863 6.7411 12.0644 6.7411 11.9137C6.7411 11.7629 6.61925 11.6411 6.4685 11.6411Z" fill="#192D44"/>
<path d="M6.4685 13.5493H4.56033C4.40958 13.5493 4.28773 13.6711 4.28773 13.8219C4.28773 13.9726 4.40958 14.0945 4.56033 14.0945H6.4685C6.61925 14.0945 6.7411 13.9726 6.7411 13.8219C6.7411 13.6711 6.61925 13.5493 6.4685 13.5493Z" fill="#192D44"/>
</svg>
