<svg width="24" height="24" viewBox="0 0 24 24" fill="none" xmlns="http://www.w3.org/2000/svg">
<path d="M8.80604 19.71H6.47104C5.8926 19.71 5.33786 19.4803 4.92884 19.0712C4.51982 18.6622 4.29004 18.1075 4.29004 17.529V16.097C4.29004 15.519 4.06004 14.964 3.65104 14.555L2.63804 13.542C2.43545 13.3396 2.27475 13.0992 2.1651 12.8346C2.05546 12.57 1.99902 12.2864 1.99902 12C1.99902 11.7136 2.05546 11.43 2.1651 11.1655C2.27475 10.9009 2.43545 10.6605 2.63804 10.458L3.65104 9.44504C3.85362 9.24259 4.01432 9.0022 4.12396 8.73762C4.23361 8.47303 4.29004 8.18944 4.29004 7.90304V6.47104C4.29004 5.26704 5.26604 4.29004 6.47104 4.29004H7.90304C8.48104 4.29004 9.03604 4.06004 9.44504 3.65104L10.458 2.63804C10.6605 2.43545 10.9009 2.27475 11.1655 2.1651C11.43 2.05546 11.7136 1.99902 12 1.99902C12.2864 1.99902 12.57 2.05546 12.8346 2.1651C13.0992 2.27475 13.3396 2.43545 13.542 2.63804L14.555 3.65104C14.964 4.06004 15.519 4.29004 16.097 4.29004H17.529C18.733 4.29004 19.71 5.26604 19.71 6.47104V7.90304C19.71 8.48104 19.94 9.03604 20.349 9.44504L21.362 10.458C21.5646 10.6605 21.7253 10.9009 21.835 11.1655C21.9446 11.43 22.0011 11.7136 22.0011 12C22.0011 12.2864 21.9446 12.57 21.835 12.8346C21.7253 13.0992 21.5646 13.3396 21.362 13.542L20.349 14.555C19.9401 14.964 19.7103 15.5187 19.71 16.097V17.529C19.71 18.1075 19.4803 18.6622 19.0712 19.0712C18.6622 19.4803 18.1075 19.71 17.529 19.71H16.097C15.519 19.71 14.964 19.94 14.555 20.349L13.542 21.362C13.3396 21.5646 13.0992 21.7253 12.8346 21.835C12.57 21.9446 12.2864 22.0011 12 22.0011C11.7136 22.0011 11.43 21.9446 11.1655 21.835C10.9009 21.7253 10.6605 21.5646 10.458 21.362L8.80604 19.71Z" stroke="white" stroke-width="1.5" stroke-linecap="round" stroke-linejoin="round"/>
<path d="M9 15L15 9" stroke="white" stroke-width="1.5" stroke-linecap="round" stroke-linejoin="round"/>
<path d="M9.249 9C9.1996 9.0002 9.15136 9.01503 9.11038 9.04262C9.0694 9.07021 9.03751 9.10932 9.01874 9.15502C8.99998 9.20072 8.99517 9.25096 9.00493 9.29938C9.01469 9.34781 9.03857 9.39227 9.07358 9.42713C9.10858 9.46199 9.15313 9.4857 9.20159 9.49527C9.25006 9.50483 9.30028 9.49983 9.3459 9.48088C9.39152 9.46192 9.43051 9.42988 9.45794 9.38879C9.48536 9.3477 9.5 9.2994 9.5 9.25C9.5 9.21709 9.4935 9.1845 9.48087 9.1541C9.46825 9.1237 9.44974 9.0961 9.42642 9.07287C9.4031 9.04964 9.37542 9.03125 9.34498 9.01874C9.31453 9.00624 9.28191 8.99987 9.249 9Z" stroke="white" stroke-width="1.5" stroke-linecap="round" stroke-linejoin="round"/>
<path d="M14.749 14.5C14.6996 14.5002 14.6514 14.515 14.6104 14.5426C14.5694 14.5702 14.5375 14.6093 14.5187 14.655C14.5 14.7007 14.4952 14.751 14.5049 14.7994C14.5147 14.8478 14.5386 14.8923 14.5736 14.9271C14.6086 14.962 14.6531 14.9857 14.7016 14.9953C14.7501 15.0048 14.8003 14.9998 14.8459 14.9809C14.8915 14.9619 14.9305 14.9299 14.9579 14.8888C14.9854 14.8477 15 14.7994 15 14.75C15 14.7171 14.9935 14.6845 14.9809 14.6541C14.9682 14.6237 14.9497 14.5961 14.9264 14.5729C14.9031 14.5496 14.8754 14.5312 14.845 14.5187C14.8145 14.5062 14.7819 14.4999 14.749 14.5Z" stroke="white" stroke-width="1.5" stroke-linecap="round" stroke-linejoin="round"/>
</svg>
