<svg height="512" viewBox="0 0 511.425 511.425" width="512" xmlns="http://www.w3.org/2000/svg"><path d="M463.605 252.33c-3.734-.116-8.653.279-14.173 1.512v-48.781c0-107.698-88.109-197.564-195.807-197.6C145.59 7.426 57.687 95.308 57.687 203.334v49.336c-2.064-.224-5.764-.71-9.866-.607C21.41 252.063 0 273.473 0 299.884v41.208c0 26.41 21.41 47.82 47.82 47.82 2.448.062 5.57-.076 9.866-.606v49.066c0 20.816 16.874 37.69 37.69 37.69h75.945c-.948 14.906 11.422 29 27.066 28.9h82.036c14.93 0 27.033-12.103 27.033-27.033v-33.734c0-14.93-12.103-27.033-27.033-27.033h-82.036c-15.216-.096-27.874 13.315-27.066 28.899H95.377a7.69 7.69 0 01-7.69-7.69v-34.258c0-.027.029-.042.051-.026 6.814 4.875 14.95 8.015 23.762 8.746 28.432 2.359 51.762-19.971 51.762-48.5v-91.419c0-28.529-23.33-50.859-51.762-48.5-8.812.731-16.948 3.87-23.762 8.745a.032.032 0 01-.051-.026v-27.195c0-90.396 71.692-165.398 162.065-167.434 93.196-2.1 169.68 73.101 169.68 165.829v32.046c0 .025-.026.04-.048.028-7.746-4.378-16.819-6.671-26.462-6.07-25.316 1.577-44.759 23.16-44.759 48.526v91.482c0 26.459 21.646 48.817 48.104 48.645 21.129-.138 39.041-14.062 45.189-33.207 5.553 2.532 14.318 4.715 22.148 4.395 26.411 0 47.821-21.41 47.821-47.821V300.15c0-26.41-21.41-47.82-47.82-47.82zM201.388 446.163h76.036c.018 0 .033.015.033.033v27.734a.033.033 0 01-.033.033h-76.036a.033.033 0 01-.033-.033v-27.734c0-.018.015-.033.033-.033zM48.843 358.912c-10.407 0-18.843-8.436-18.843-18.843v-39.162c0-10.407 8.437-18.844 18.843-18.844 10.407 0 18.843 8.437 18.843 18.844v39.162c.001 10.406-8.436 18.843-18.843 18.843zm48.844-87.875c0-9.332 7.225-17.01 16.375-17.732 10.54-.832 19.2 7.696 19.2 18.269v92.1c0 10.573-8.66 19.1-19.2 18.269-9.15-.722-16.375-8.399-16.375-17.732zm316.051 99.168c0 9.332-7.225 17.009-16.375 17.732-10.54.832-19.2-7.696-19.2-18.269v-92.1c0-10.573 8.66-19.101 19.2-18.269 9.15.722 16.375 8.399 16.375 17.732zm67.687-29.87c0 10.407-8.436 18.843-18.843 18.843h-.001c-10.407 0-18.843-8.436-18.843-18.843v-39.163c0-10.407 8.436-18.843 18.843-18.843s18.843 8.437 18.843 18.844v39.162z"/></svg>