<svg width="535" height="879" viewBox="0 0 535 879" fill="none" xmlns="http://www.w3.org/2000/svg">
<g opacity="0.1">
<path fill-rule="evenodd" clip-rule="evenodd" d="M141.62 589.026L507.357 380.555C515.562 376.333 522.447 369.934 527.254 362.058C532.062 354.182 534.608 345.134 534.612 335.906V471.26C534.61 480.481 532.065 489.524 527.256 497.392C522.447 505.261 515.562 511.651 507.357 515.859L141.62 724.331V589.026ZM231.111 743.522V878.875L507.357 721.368C515.562 717.159 522.447 710.769 527.256 702.9C532.065 695.032 534.61 685.99 534.612 676.768V541.414C534.608 550.642 532.062 559.69 527.254 567.566C522.447 575.442 515.562 581.842 507.357 586.063L231.111 743.522Z" fill="#57BCB3"/>
<path fill-rule="evenodd" clip-rule="evenodd" d="M0 0V69.3772C0 107.564 30.559 152.795 66.8023 173.492L507.358 424.96C515.57 429.172 522.46 435.57 527.269 443.448C532.078 451.326 534.62 460.378 534.613 469.608V334.254C534.614 325.026 532.071 315.976 527.262 308.099C522.454 300.222 515.566 293.823 507.358 289.606C338.255 193.087 169.135 96.5516 0 0V0ZM507.358 630.468L208.423 460.037C172.18 439.389 141.621 394.109 141.621 355.971V286.351L507.358 495.26C515.563 499.481 522.447 505.881 527.255 513.757C532.063 521.633 534.609 530.681 534.613 539.909V675.262C534.647 666.008 532.118 656.924 527.307 649.018C522.497 641.112 515.592 634.692 507.358 630.468Z" fill="white"/>
</g>
</svg>
