<svg width="49" height="48" viewBox="0 0 49 48" fill="none" xmlns="http://www.w3.org/2000/svg">
<path d="M23.9468 24.2199L25.0468 23.1199" stroke="white" stroke-width="1.5" stroke-linecap="round" stroke-linejoin="round"/>
<path d="M17.3066 30.8602L16.2066 31.9602" stroke="white" stroke-width="1.5" stroke-linecap="round" stroke-linejoin="round"/>
<path d="M16.1925 28.1418C16.0105 28.8958 16.1745 29.7078 16.7645 30.2978L17.3165 30.8498L17.9745 31.5078C18.8305 32.3638 20.2185 32.3638 21.0745 31.5078C21.7845 30.7978 21.9225 29.6938 21.4045 28.8318L19.8545 26.2438C19.3385 25.3818 19.4745 24.2778 20.1845 23.5678C21.0405 22.7118 22.4285 22.7118 23.2845 23.5678L23.9425 24.2258L24.4945 24.7778C25.0825 25.3658 25.2465 26.1758 25.0685 26.9278" stroke="white" stroke-width="1.5" stroke-linecap="round" stroke-linejoin="round"/>
<path d="M31.7813 16.3855C32.071 16.6753 32.071 17.1451 31.7813 17.4348C31.4915 17.7246 31.0217 17.7246 30.7319 17.4348C30.4421 17.1451 30.4421 16.6753 30.7319 16.3855C31.0217 16.0957 31.4915 16.0957 31.7813 16.3855" stroke="white" stroke-width="1.5" stroke-linecap="round" stroke-linejoin="round"/>
<path fill-rule="evenodd" clip-rule="evenodd" d="M27.1905 8H35.9605C38.2845 8 40.1665 9.882 40.1665 12.204V20.974C40.1665 22.09 39.7225 23.158 38.9345 23.948L22.1145 40.768C20.4725 42.41 17.8105 42.41 16.1685 40.768L7.39849 31.998C5.75649 30.356 5.75649 27.694 7.39849 26.052L24.2185 9.232C25.0065 8.444 26.0765 8 27.1905 8Z" stroke="white" stroke-width="1.5" stroke-linecap="round" stroke-linejoin="round"/>
</svg>
