<svg width="81" height="80" viewBox="0 0 81 80" fill="none" xmlns="http://www.w3.org/2000/svg">
<path d="M0.5 40C0.5 17.9086 18.4086 0 40.5 0C62.5914 0 80.5 17.9086 80.5 40C80.5 62.0914 62.5914 80 40.5 80C18.4086 80 0.5 62.0914 0.5 40Z" fill="url(#paint0_linear)"/>
<path d="M23.3125 38.22L23.3421 34.4749H27.9754C29.1103 34.4749 30.0626 34.2232 30.8324 33.7199C31.612 33.2166 32.1992 32.4765 32.5939 31.4995C32.9887 30.5225 33.1861 29.3235 33.1861 27.9024V26.955C33.1861 25.5241 32.9887 24.325 32.5939 23.3579C32.1992 22.3908 31.6169 21.6605 30.8472 21.1671C30.0774 20.6736 29.1301 20.4269 28.005 20.4269H23.2237V16.667H28.005C29.9492 16.667 31.6614 17.1012 33.1416 17.9696C34.6318 18.8381 35.7963 20.047 36.6351 21.5964C37.474 23.1359 37.8934 24.932 37.8934 26.9846V27.9024C37.8934 29.9551 37.474 31.7561 36.6351 33.3055C35.7963 34.8548 34.6318 36.0637 33.1416 36.9322C31.6614 37.7907 29.9393 38.22 27.9754 38.22H23.3125ZM25.9622 38.22H21.2993V16.667H25.9622V38.22Z" fill="white"/>
<path d="M44.1698 38.22H39.2108L47.2192 16.667H50.3574L49.9133 20.7526L44.1698 38.22ZM48.8623 20.7526L48.3738 16.667H51.5269L59.5796 38.22H54.6207L48.8623 20.7526ZM54.4726 33.9272H43.0448V30.1672H54.4726V33.9272Z" fill="white"/>
<path d="M32.4904 60.6863C32.4904 60.2027 32.3867 59.7833 32.1795 59.428C31.9723 59.0727 31.5726 58.7372 30.9805 58.4214C30.3982 58.0958 29.5347 57.7503 28.39 57.3852C27.4228 57.0694 26.5001 56.7141 25.6218 56.3194C24.7534 55.9148 23.9836 55.446 23.3126 54.9131C22.6415 54.3802 22.1135 53.7585 21.7286 53.048C21.3438 52.3374 21.1513 51.5085 21.1513 50.5611C21.1513 49.3472 21.4967 48.2913 22.1875 47.3932C22.8783 46.4853 23.8257 45.7797 25.0297 45.2764C26.2435 44.7731 27.6301 44.5215 29.1893 44.5215C30.788 44.5215 32.1844 44.8027 33.3785 45.3653C34.5726 45.9278 35.4953 46.7123 36.1467 47.7189C36.8079 48.7156 37.1385 49.8703 37.1385 51.1828H32.5052C32.5052 50.6005 32.3818 50.0874 32.1351 49.6433C31.8884 49.1893 31.5134 48.839 31.0101 48.5923C30.5166 48.3357 29.885 48.2074 29.1153 48.2074C28.3751 48.2074 27.7584 48.316 27.2649 48.5331C26.7715 48.7502 26.4014 49.0364 26.1547 49.3916C25.9179 49.7469 25.7994 50.1466 25.7994 50.5907C25.7994 51.0545 25.9623 51.4591 26.2879 51.8045C26.6136 52.1499 27.0873 52.4706 27.709 52.7667C28.3307 53.0529 29.0857 53.3341 29.9739 53.6105C31.543 54.0842 32.8604 54.6417 33.9262 55.2832C34.992 55.9247 35.7914 56.6845 36.3243 57.5628C36.8671 58.4313 37.1385 59.4626 37.1385 60.6567C37.1385 61.9198 36.8128 63.0004 36.1615 63.8985C35.52 64.7965 34.6121 65.4824 33.4377 65.9561C32.2634 66.4298 30.8818 66.6666 29.2929 66.6666C28.2074 66.6666 27.1416 66.5285 26.0955 66.2522C25.0593 65.966 24.1168 65.5317 23.2681 64.9495C22.4293 64.3574 21.7582 63.6123 21.2549 62.7143C20.7516 61.8162 20.5 60.7504 20.5 59.5168H25.1629C25.1629 60.1583 25.2567 60.7011 25.4442 61.1451C25.6415 61.5794 25.9179 61.9346 26.2731 62.211C26.6383 62.4873 27.0725 62.6896 27.5758 62.8179C28.089 62.9363 28.6613 62.9955 29.2929 62.9955C30.0331 62.9955 30.6351 62.8968 31.0989 62.6995C31.5726 62.4922 31.9229 62.2159 32.1499 61.8705C32.3769 61.5152 32.4904 61.1205 32.4904 60.6863Z" fill="white"/>
<path d="M57.7145 66.3706H53.0664L44.7028 52.5003V66.3706H40.0546V44.8175H44.7028L53.0812 58.7027V44.8175H57.7145V66.3706Z" fill="white"/>
<defs>
<linearGradient id="paint0_linear" x1="2.68182" y1="80" x2="95.965" y2="52.5447" gradientUnits="userSpaceOnUse">
<stop stop-color="#85FFC4"/>
<stop offset="0.411458" stop-color="#5CC6FF"/>
<stop offset="0.854167" stop-color="#BC85FF"/>
</linearGradient>
</defs>
</svg>
