<svg width="49" height="48" viewBox="0 0 49 48" fill="none" xmlns="http://www.w3.org/2000/svg">
<path d="M24.606 15.542V24.4537L31.6109 28.7235" stroke="white" stroke-width="1.5" stroke-linecap="round" stroke-linejoin="round"/>
<path d="M8.91382 17.487C11.668 9.69978 19.5606 4.96231 27.7282 6.19392C35.8958 7.42553 42.0405 14.2797 42.3759 22.5328C42.7113 30.7859 37.1429 38.1161 29.1022 40.0064" stroke="white" stroke-width="1.5" stroke-linecap="round" stroke-linejoin="round"/>
<path fill-rule="evenodd" clip-rule="evenodd" d="M20.4983 42.0074H7.49285C6.94033 42.0074 6.49243 41.5595 6.49243 41.007V40.1946C6.49903 37.8834 8.37098 36.0115 10.6822 36.0049H17.3089C19.6201 36.0115 21.4921 37.8834 21.4987 40.1946V41.007C21.4987 41.5595 21.0508 42.0074 20.4983 42.0074Z" stroke="white" stroke-width="1.5" stroke-linecap="round" stroke-linejoin="round"/>
<path fill-rule="evenodd" clip-rule="evenodd" d="M13.9958 31.0024C11.7878 31.0024 9.99708 29.214 9.99414 27.006C9.99122 24.798 11.7772 23.0049 13.9852 22.999C16.1931 22.9932 17.9886 24.7767 17.9975 26.9847C18.0017 28.0488 17.582 29.0707 16.8311 29.8247C16.0801 30.5786 15.0599 31.0024 13.9958 31.0024Z" stroke="white" stroke-width="1.5" stroke-linecap="round" stroke-linejoin="round"/>
</svg>
