<svg width="258" height="32" viewBox="0 0 258 32" fill="none" xmlns="http://www.w3.org/2000/svg">
<path d="M13.5158 21.9136C12.3041 22.8601 10.9059 23.3333 9.41448 23.3333C7.64344 23.3333 6.15204 22.7654 5.03348 21.6296C3.91493 20.4938 3.35566 18.9794 3.35566 17.0864C3.35566 15.1934 3.91493 13.679 4.94027 12.5432C6.05882 11.4074 7.3638 10.8395 9.04163 10.8395C10.533 10.8395 11.838 11.2181 12.9566 12.07L14.3548 9.79835C13.0498 8.5679 11.2787 8 9.04163 8C6.24525 8 4.00814 8.85185 2.42353 10.5556C0.838914 12.2593 0 14.4362 0 17.0864C0 19.8313 0.838914 22.1029 2.51674 23.7119C4.19457 25.4156 6.33846 26.2675 9.04163 26.2675C11.2787 26.2675 13.5158 25.4156 14.6344 24.2798L13.4226 21.9136H13.5158ZM24.981 22.7654C24.1421 23.428 23.1167 23.8066 21.8118 23.8066C20.0407 23.8066 18.6425 22.8601 18.4561 21.1564H26.5656C26.6588 20.7778 26.752 20.2099 26.752 19.5473C26.752 18.0329 26.1928 16.7078 25.1674 15.7613C24.1421 14.8148 22.8371 14.2469 21.3457 14.2469C19.5747 14.2469 18.0833 14.8148 17.0579 15.9506C15.9394 17.0864 15.3801 18.5062 15.3801 20.2099C15.3801 22.0082 15.9394 23.428 17.0579 24.5638C18.1765 25.6996 19.6679 26.2675 21.4389 26.2675C23.21 26.2675 24.6081 25.7942 25.7267 24.8477L24.8878 22.7654H24.981ZM21.2525 16.7078C22.8371 16.7078 23.8624 17.749 23.8624 19.1687H18.3629C18.6425 17.5597 19.6679 16.7078 21.3457 16.7078H21.2525ZM28.9891 25.9835C29.362 25.9835 30.0145 25.9835 31.133 26.0782C32.2516 26.1728 32.9973 26.1728 33.5566 26.1728C37.0986 26.1728 38.8697 25.037 38.8697 22.7654C38.8697 21.3457 38.0308 20.4938 36.4462 20.1152V20.0206C37.6579 19.8313 38.59 18.7901 38.59 17.465C38.59 15.4774 36.9122 14.4362 33.4633 14.4362C32.0652 14.4362 29.6416 14.5309 29.0824 14.5309V25.9835H28.9891ZM33.6498 21.1564C35.048 21.1564 35.7937 21.6296 35.7937 22.4815C35.7937 23.3333 35.048 23.8066 33.743 23.8066C33.6498 23.8066 32.9973 23.8066 31.8787 23.7119V21.1564H33.6498ZM33.6498 16.8025C34.8615 16.8025 35.4208 17.1811 35.4208 18.0329C35.4208 18.8848 34.6751 19.358 33.6498 19.358H31.7855V16.8025C32.1584 16.8025 32.8109 16.7078 33.5566 16.7078L33.6498 16.8025ZM50.3348 22.7654C49.4959 23.428 48.4706 23.8066 47.1656 23.8066C45.3946 23.8066 43.9964 22.8601 43.81 21.1564H51.9195C52.0127 20.7778 52.1059 20.2099 52.1059 19.5473C52.1059 18.0329 51.5466 16.7078 50.5213 15.7613C49.4959 14.8148 48.191 14.2469 46.6995 14.2469C44.9285 14.2469 43.4371 14.8148 42.4118 15.9506C41.2932 17.0864 40.8271 18.5062 40.8271 20.2099C40.8271 22.0082 41.3864 23.428 42.505 24.5638C43.6235 25.6996 45.1149 26.2675 46.886 26.2675C48.657 26.2675 50.0552 25.7942 51.1738 24.8477L50.3348 22.7654ZM46.6063 16.7078C48.191 16.7078 49.2163 17.749 49.2163 19.1687H43.7167C44.0896 17.5597 45.0217 16.7078 46.6995 16.7078H46.6063ZM57.2326 31V25.6049C57.8851 25.9835 58.724 26.1728 59.8425 26.1728C61.6136 26.1728 63.0118 25.6049 64.1303 24.3745C65.2489 23.2387 65.8081 21.7243 65.8081 19.9259C65.8081 18.2222 65.3421 16.8025 64.41 15.7613C63.4778 14.6255 62.2661 14.1523 60.6814 14.1523C59.2833 14.1523 57.8851 14.7202 57.2326 15.572V14.4362H54.343V30.9053H57.2326V31ZM59.8425 16.9918C61.7068 16.9918 62.8253 18.3169 62.8253 20.1152C62.8253 22.1029 61.6136 23.5226 59.6561 23.5226C58.724 23.5226 57.9783 23.3333 57.3258 22.8601V18.2222C58.0715 17.3704 58.9104 16.9918 59.9357 16.9918H59.8425ZM79.0443 25.9835V14.5309H76.1548V18.8848H71.2145V14.5309H68.3249V25.9835H71.2145V21.6296H76.1548V25.9835H79.0443ZM83.1457 17.465C84.2643 16.8971 85.2896 16.7078 86.1285 16.7078C87.7131 16.7078 88.2724 17.6543 88.2724 19.642C87.6199 19.1687 86.781 18.8848 85.7557 18.8848C83.3321 18.8848 81.6543 20.2099 81.6543 22.5761C81.6543 24.7531 83.0525 26.0782 85.1964 26.0782C86.6878 26.0782 87.8063 25.6049 88.552 24.5638V25.8889H91.0688V18.8848C91.0688 15.7613 89.7638 14.1523 86.5946 14.1523C85.1964 14.1523 83.7982 14.5309 82.5864 15.2881L83.3321 17.465H83.1457ZM86.0353 23.6173C85.1032 23.6173 84.4507 23.144 84.4507 22.2922C84.4507 21.3457 85.1964 20.8724 86.2217 20.8724C87.0606 20.8724 87.7131 21.0617 88.1792 21.4403V22.5761C87.7131 23.2387 86.9674 23.6173 86.0353 23.6173ZM99.3647 14.5309C95.543 14.5309 93.7719 16.1399 93.7719 18.6008C93.7719 20.3045 94.7973 21.535 95.9158 21.9136L92.933 25.9835H96.1955L98.5258 22.5761H100.11V25.9835H103V14.5309H99.3647ZM96.848 18.7901C96.848 17.8436 97.5937 17.0864 98.8986 17.0864H100.204V20.3992H98.7122C97.7801 20.3992 96.848 19.7366 96.848 18.7901Z" fill="#2B2B2B"/>
<path d="M154.07 26.7158V17.5263L161.235 26.7158H165.143L157.513 17.2421L164.677 9H160.956L154.07 17.4316V9H151V26.8105H154.07V26.7158ZM166.817 25.2947C167.934 26.4316 169.423 27 171.283 27C173.144 27 174.54 26.4316 175.75 25.2947C176.866 24.1579 177.424 22.7368 177.424 20.9368C177.424 19.1368 176.866 17.7158 175.75 16.6737C174.633 15.5368 173.144 14.9684 171.283 14.9684C169.423 14.9684 167.934 15.5368 166.817 16.6737C165.701 17.8105 165.143 19.2316 165.143 20.9368C165.143 22.7368 165.701 24.1579 166.817 25.2947ZM168.213 20.9368C168.213 19.0421 169.516 17.7158 171.283 17.7158C173.051 17.7158 174.354 19.0421 174.354 20.9368C174.354 22.9263 173.051 24.2526 171.283 24.2526C169.516 24.2526 168.213 22.8316 168.213 20.9368ZM182.728 26.6211V19.6105L186.17 23.8737H186.263L189.613 19.6105V26.6211H192.497V15.1579H189.985L186.357 19.8947L182.542 15.1579H179.937V26.6211H182.821H182.728ZM206.082 26.6211V15.1579H195.568V26.6211H198.452V17.9053H203.197V26.6211H206.082ZM210.176 18.0947C211.292 17.5263 212.316 17.3368 213.153 17.3368C214.735 17.3368 215.293 18.2842 215.293 20.2737C214.642 19.8 213.804 19.5158 212.781 19.5158C210.362 19.5158 208.687 20.8421 208.687 23.2105C208.687 25.3895 210.083 26.7158 212.223 26.7158C213.711 26.7158 214.921 26.2421 215.572 25.2V26.5263H218.084V19.5158C218.084 16.3895 216.782 14.7789 213.618 14.7789C212.223 14.7789 210.827 15.1579 209.617 15.9158L210.362 18.0947H210.176ZM213.06 24.2526C212.13 24.2526 211.478 23.7789 211.478 22.9263C211.478 21.9789 212.223 21.5053 213.246 21.5053C214.083 21.5053 214.735 21.6947 215.2 22.0737V23.2105C214.735 23.8737 213.99 24.2526 213.06 24.2526ZM231.483 26.5263V15.0632H228.598V19.4211H223.667V15.0632H220.783V26.5263H223.667V22.1684H228.598V26.5263H231.483ZM242.834 19.3263V26.5263H245.718V15.0632H242.834L237.623 22.2632V15.0632H234.739V26.5263H237.623L242.834 19.3263ZM254.371 15.1579C250.557 15.1579 248.789 16.7684 248.789 19.2316C248.789 20.9368 249.812 22.1684 250.929 22.5474L247.951 26.6211H251.208L253.534 23.2105H255.116V26.6211H258V15.1579H254.371ZM251.859 19.4211C251.859 18.4737 252.603 17.7158 253.906 17.7158H255.209V21.0316H253.72C252.79 21.0316 251.859 20.3684 251.859 19.4211Z" fill="#2B2B2B"/>
<path fill-rule="evenodd" clip-rule="evenodd" d="M133.031 26.9176L128 0L143 26.9176L137.969 31.9999L133.031 26.9176Z" fill="#2B2B2B"/>
<path fill-rule="evenodd" clip-rule="evenodd" d="M123 27.0467L127.953 22L133 27.0467L127.953 32L123 27.0467Z" fill="#2B2B2B"/>
<path fill-rule="evenodd" clip-rule="evenodd" d="M123.062 26.9176L128 0L113 26.9176L118.031 31.9999L123.062 26.9176Z" fill="#2B2B2B"/>
</svg>
