<svg width="179" height="39" viewBox="0 0 179 39" fill="none" xmlns="http://www.w3.org/2000/svg">
<g clip-path="url(#clip0_2_775)">
<path fill-rule="evenodd" clip-rule="evenodd" d="M25.3572 8.03878L26.7135 7.72041C26.9528 7.64082 27.1124 7.8 27.1124 8.03878V10.9837C27.1124 11.2224 26.9528 11.4612 26.7135 11.5408L25.3572 11.8592C25.1178 11.9388 24.9583 11.7796 24.9583 11.5408V8.59592C24.9583 8.35714 25.1178 8.11837 25.3572 8.03878ZM25.5965 14.2469L26.9528 13.9286C27.1922 13.849 27.3518 14.0082 27.3518 14.2469V17.1918C27.3518 17.4306 27.1922 17.6694 26.9528 17.749L25.5965 18.0673C25.3572 18.1469 25.1976 17.9878 25.1976 17.749V14.8041C25.1178 14.5653 25.3572 14.3265 25.5965 14.2469ZM30.2239 13.3714L31.1813 13.1327C31.4207 13.0531 31.5802 13.2122 31.5802 13.451L31.66 15.998C31.66 16.2367 31.5004 16.4755 31.2611 16.5551L30.3037 16.7939C30.0644 16.8735 29.9048 16.7143 29.9048 16.4755V13.849C29.7452 13.6102 29.9846 13.3714 30.2239 13.3714ZM25.5965 20.9327L26.9528 20.6143C27.1922 20.5347 27.3518 20.6939 27.3518 20.9327V23.8776C27.3518 24.1163 27.1922 24.3551 26.9528 24.4347L25.5965 24.9918C25.3572 25.0714 25.1976 24.9122 25.1976 24.6735V21.4898C25.1178 21.251 25.3572 21.0122 25.5965 20.9327ZM30.2239 19.8184L31.1813 19.5796C31.4207 19.5 31.5802 19.6592 31.5802 19.898V22.2857C31.5802 22.5245 31.4207 22.7633 31.1813 22.8429L30.2239 23.1612C29.9846 23.2408 29.825 23.0816 29.825 22.8429V20.3755C29.825 20.1367 29.9846 19.898 30.2239 19.8184ZM19.6129 0C10.757 0 3.01811 4.53673 1.02354 10.9837C-3.12515 24.1163 5.81049 36.0551 19.2937 39C19.2937 36.0551 19.2937 34.7816 19.2139 32.6327L6.92745 26.5041C6.6881 26.3449 6.44875 26.0265 6.44875 25.7082C6.36897 24.7531 7.24658 24.6735 7.64549 24.9122L19.2139 29.5286C19.2139 26.0265 19.1342 24.7531 19.1342 23.0816L8.84221 17.9082C8.60287 17.749 8.36352 17.4306 8.36352 17.1122C8.36352 16.3959 8.922 16.0776 9.56026 16.3163L19.1342 20.1367C19.0544 16.3163 19.1342 19.102 19.2139 13.3714L11.7144 9.39184C11.475 9.23265 11.2357 8.91429 11.2357 8.59592C11.2357 7.95918 11.7942 7.56122 12.7516 7.87959L19.2937 10.5061C19.2937 9.39184 19.2937 8.03878 19.3735 6.36735C19.3735 6.04898 19.6129 5.8898 19.8522 5.8898H21.0489C21.3681 5.8898 21.5276 6.12857 21.5276 6.36735C21.6074 14.6449 21.8468 21.9673 21.8468 30.2449C22.4052 30.1653 23.0435 30.0857 23.5222 30.0061C32.2983 28.5735 39 22.4449 39 15.1224C38.9202 6.8449 30.2239 0 19.6129 0Z" fill="#009640"/>
</g>
<path d="M50.818 31.1724C51.4504 31.1724 51.8456 30.9655 52.1618 30.6207L51.6875 30.2069C51.4504 30.4138 51.2132 30.5517 50.818 30.5517C50.2647 30.5517 49.7904 30.1379 49.7904 29.5862C49.7904 29.1035 50.1857 28.6207 50.739 28.6207C51.1342 28.6207 51.3713 28.7586 51.6085 28.9655L52.0827 28.4827C51.7665 28.2069 51.3713 28 50.739 28C49.7114 28 49 28.6897 49 29.5173C49.079 30.4827 49.7904 31.1724 50.818 31.1724ZM53.5846 31.1035H54.375V28.7586H55.4816V28.2069H52.4779V28.7586H53.5846V31.1035ZM56.0349 32H56.8254V30.6897C57.0625 30.9655 57.3787 31.1724 57.932 31.1724C58.7224 31.1724 59.5129 30.6207 59.5129 29.6552C59.5129 28.6897 58.7224 28.1379 57.932 28.1379C57.3787 28.1379 57.0625 28.4138 56.8254 28.6897V28.2069H56.0349V32ZM57.7739 30.5517C57.2206 30.5517 56.8254 30.2069 56.8254 29.5862C56.8254 29.0345 57.2997 28.6207 57.7739 28.6207C58.3272 28.6207 58.7224 28.9655 58.7224 29.5862C58.7224 30.2069 58.3272 30.5517 57.7739 30.5517ZM61.8842 31.1724C62.9118 31.1724 63.7022 30.4827 63.7022 29.6552C63.7022 28.8276 62.9118 28.1379 61.8842 28.1379C60.8566 28.1379 60.0662 28.8276 60.0662 29.6552C60.1452 30.4827 60.8566 31.1724 61.8842 31.1724ZM61.9632 30.6207C61.3309 30.6207 60.9357 30.2069 60.9357 29.6552C60.9357 29.1035 61.3309 28.6897 61.9632 28.6897C62.5956 28.6897 62.9908 29.1035 62.9908 29.6552C62.9118 30.1379 62.5165 30.6207 61.9632 30.6207ZM64.4927 31.1035H65.204L66.7849 29.1724V31.1035H67.4963V28.1379H66.7849C66.2316 28.7586 65.7573 29.4483 65.204 30.069V28.1379H64.4927V31.1035ZM69.2353 31.1035H70.0257V28.7586H71.1323V28.2069H68.2077V28.7586H69.3143V31.1035H69.2353ZM73.2665 31.1724C73.8989 31.1724 74.2941 30.9655 74.6103 30.6207L74.136 30.2759C73.8989 30.4827 73.5827 30.6207 73.1875 30.6207C72.7132 30.6207 72.318 30.3448 72.2389 29.8621H74.6893C74.6893 29.8621 74.6893 29.7241 74.6893 29.6552C74.6893 28.8276 74.136 28.069 73.1084 28.069C72.1599 28.069 71.4485 28.7586 71.4485 29.5862C71.5275 30.5517 72.318 31.1724 73.2665 31.1724ZM72.318 29.4483C72.397 28.9655 72.7132 28.6897 73.1875 28.6897C73.6618 28.6897 73.9779 29.0345 74.057 29.4483H72.318ZM75.5588 31.1035C76.2702 31.1035 76.7445 30.8276 76.7445 28.6897H77.772V31.0345H78.5625V28.069H76.033C76.033 30.2759 75.7959 30.4827 75.4007 30.4827C75.3217 30.4827 75.2427 30.4827 75.1636 30.4827L75.0845 31.0345C75.1636 31.1035 75.4007 31.1035 75.5588 31.1035ZM79.511 31.1035H81.0919C81.8824 31.1035 82.3566 30.7586 82.3566 30.1379C82.3566 29.5173 81.8033 29.2414 81.0129 29.2414H80.2224V28.2069H79.432V31.1035H79.511ZM80.3014 30.5517V29.7241H81.0129C81.408 29.7241 81.6452 29.8621 81.6452 30.1379C81.6452 30.4138 81.408 30.5517 81.0129 30.5517H80.3014ZM83.068 31.1035H83.8584V29.931H85.3603V31.1035H86.1508V28.1379H85.3603V29.3794H83.8584V28.2069H83.068V31.1035ZM88.6801 31.1724C89.7077 31.1724 90.4981 30.4827 90.4981 29.6552C90.4981 28.8276 89.7077 28.1379 88.6801 28.1379C87.6525 28.1379 86.8621 28.8276 86.8621 29.6552C86.8621 30.4827 87.6525 31.1724 88.6801 31.1724ZM88.6801 30.6207C88.0478 30.6207 87.6525 30.2069 87.6525 29.6552C87.6525 29.1035 88.0478 28.6897 88.6801 28.6897C89.3125 28.6897 89.7077 29.1035 89.7077 29.6552C89.7077 30.1379 89.3125 30.6207 88.6801 30.6207ZM91.1305 29.7241H93.0275V29.0345H91.1305V29.7241ZM93.818 31.1035H94.6084V28.7586H96.0313V31.1035H96.8217V28.1379H93.818V31.1035ZM97.8493 32H98.6397V30.6897C98.8768 30.9655 99.193 31.1724 99.7463 31.1724C100.537 31.1724 101.327 30.6207 101.327 29.6552C101.327 28.6897 100.537 28.1379 99.7463 28.1379C99.193 28.1379 98.8768 28.4138 98.6397 28.6897V28.2069H97.8493V32ZM99.5091 30.5517C98.9559 30.5517 98.5606 30.2069 98.5606 29.5862C98.5606 29.0345 99.0349 28.6207 99.5091 28.6207C100.062 28.6207 100.458 28.9655 100.458 29.5862C100.537 30.2069 100.062 30.5517 99.5091 30.5517ZM103.699 31.1724C104.726 31.1724 105.517 30.4827 105.517 29.6552C105.517 28.8276 104.726 28.1379 103.699 28.1379C102.671 28.1379 101.88 28.8276 101.88 29.6552C101.88 30.4827 102.671 31.1724 103.699 31.1724ZM103.699 30.6207C103.066 30.6207 102.671 30.2069 102.671 29.6552C102.671 29.1035 103.066 28.6897 103.699 28.6897C104.331 28.6897 104.726 29.1035 104.726 29.6552C104.726 30.1379 104.331 30.6207 103.699 30.6207ZM106.228 31.1035H107.018V29.1724L108.046 30.4827L109.074 29.1724V31.1035H109.864V28.1379H109.074L108.046 29.5173L107.018 28.1379H106.228V31.1035ZM110.892 31.1035H112.393C113.184 31.1035 113.658 30.7586 113.658 30.1379C113.658 29.5173 113.105 29.2414 112.314 29.2414H111.603V28.2069H110.812V31.1035H110.892ZM111.603 30.5517V29.7241H112.235C112.63 29.7241 112.868 29.8621 112.868 30.1379C112.868 30.4138 112.63 30.5517 112.235 30.5517H111.603ZM114.211 31.1035H115.002V28.1379H114.211V31.1035ZM115.95 31.1035H120.772V28.1379H119.982V30.4827H118.717V28.1379H117.926V30.4827H116.662V28.1379H115.871V31.1035H115.95ZM121.642 31.1035C122.353 31.1035 122.827 30.8276 122.827 28.6897H123.855V31.0345H124.645V28.069H122.116C122.116 30.2759 121.879 30.4827 121.483 30.4827C121.404 30.4827 121.325 30.4827 121.246 30.4827L121.167 31.0345C121.325 31.1035 121.483 31.1035 121.642 31.1035ZM127.175 31.1724C127.807 31.1724 128.202 30.9655 128.518 30.6207L128.044 30.2759C127.807 30.4827 127.491 30.6207 127.096 30.6207C126.621 30.6207 126.226 30.3448 126.147 29.8621H128.597C128.597 29.8621 128.597 29.7241 128.597 29.6552C128.597 28.8276 128.044 28.069 127.017 28.069C126.068 28.069 125.357 28.7586 125.357 29.5862C125.436 30.5517 126.226 31.1724 127.175 31.1724ZM126.226 29.4483C126.305 28.9655 126.621 28.6897 127.096 28.6897C127.57 28.6897 127.886 29.0345 127.965 29.4483H126.226ZM129.467 31.1035H130.257V29.931H131.759V31.1035H132.55V28.1379H131.759V29.3794H130.257V28.2069H129.467V31.1035ZM133.498 31.1035H134.289V29.931H135.79V31.1035H136.581V28.1379H135.79V29.3794H134.289V28.2069H133.498V31.1035ZM140.296 31.1035V29.3794C140.296 28.6207 139.822 28.1379 138.794 28.1379C138.241 28.1379 137.846 28.2069 137.529 28.4138L137.767 28.9655C138.083 28.8276 138.32 28.7586 138.715 28.7586C139.269 28.7586 139.505 28.9655 139.505 29.3794C139.269 29.3103 138.952 29.2414 138.557 29.2414C137.767 29.2414 137.213 29.5862 137.213 30.2069C137.213 30.8276 137.767 31.1035 138.399 31.1035C138.873 31.1035 139.269 30.8965 139.505 30.6897V31.0345H140.296V31.1035ZM139.505 30.069C139.505 30.4138 139.11 30.6897 138.636 30.6897C138.241 30.6897 138.003 30.5517 138.003 30.2759C138.003 30 138.32 29.7931 138.794 29.7931C139.11 29.7931 139.348 29.8621 139.584 29.931V30.069H139.505ZM140.849 31.1035H141.719L142.509 30.1379H143.22V31.1035H144.011V28.1379H142.351C141.482 28.1379 141.007 28.5517 141.007 29.1035C141.007 29.5862 141.323 29.8621 141.798 30L140.849 31.1035ZM142.43 29.5862C142.035 29.5862 141.798 29.4483 141.798 29.1035C141.798 28.8276 142.035 28.6897 142.43 28.6897H143.22V29.5862H142.43ZM146.936 31.1035H147.726V30.4138L148.279 29.931L149.307 31.1724H150.256L148.833 29.4483L150.097 28.2069H149.228L147.726 29.5862V28.2069H146.936V31.1035ZM152.311 31.1724C153.338 31.1724 154.129 30.4827 154.129 29.6552C154.129 28.8276 153.338 28.1379 152.311 28.1379C151.283 28.1379 150.492 28.8276 150.492 29.6552C150.492 30.4827 151.283 31.1724 152.311 31.1724ZM152.311 30.6207C151.678 30.6207 151.283 30.2069 151.283 29.6552C151.283 29.1035 151.678 28.6897 152.311 28.6897C152.943 28.6897 153.338 29.1035 153.338 29.6552C153.338 30.1379 152.943 30.6207 152.311 30.6207ZM154.84 31.1035H155.552V29.1724L156.579 30.4827L157.607 29.1724V31.1035H158.397V28.1379H157.607L156.579 29.5173L155.552 28.1379H154.761V31.1035H154.84ZM159.425 31.1035H160.215V28.7586H161.638V31.1035H162.428V28.1379H159.425V31.1035ZM166.223 31.1035V29.3794C166.223 28.6207 165.748 28.1379 164.721 28.1379C164.167 28.1379 163.772 28.2069 163.456 28.4138L163.693 28.9655C164.009 28.8276 164.247 28.7586 164.642 28.7586C165.195 28.7586 165.432 28.9655 165.432 29.3794C165.195 29.3103 164.878 29.2414 164.483 29.2414C163.693 29.2414 163.14 29.5862 163.14 30.2069C163.14 30.8276 163.693 31.1035 164.325 31.1035C164.8 31.1035 165.195 30.8965 165.432 30.6897V31.0345H166.223V31.1035ZM165.511 30.069C165.511 30.4138 165.116 30.6897 164.642 30.6897C164.247 30.6897 164.009 30.5517 164.009 30.2759C164.009 30 164.325 29.7931 164.8 29.7931C165.116 29.7931 165.353 29.8621 165.59 29.931V30.069H165.511ZM167.171 31.1035H167.961V29.931H169.463V31.1035H170.253V28.1379H169.463V29.3794H167.961V28.2069H167.171V31.1035ZM171.123 31.1035H171.835L173.416 29.1724V31.1035H174.127V28.1379H173.416C172.862 28.7586 172.388 29.4483 171.835 30.069V28.1379H171.123V31.1035ZM174.839 31.1035H175.708L176.498 30.1379H177.21V31.1035H178V28.1379H176.34C175.47 28.1379 174.996 28.5517 174.996 29.1035C174.996 29.5862 175.313 29.8621 175.787 30L174.839 31.1035ZM176.419 29.5862C176.024 29.5862 175.787 29.4483 175.787 29.1035C175.787 28.8276 176.024 28.6897 176.419 28.6897H177.21V29.5862H176.419Z" fill="#5A5A5A"/>
<path d="M87 6H85V8H87V6Z" fill="#5A5A5A"/>
<path d="M91 6H89V8H91V6Z" fill="#5A5A5A"/>
<path d="M177.619 18.8461V10H168.518C168.031 16.3846 167.95 18 167.138 18.8461H166V24H169.169V21.8461H175.831V24H179V18.8461H177.619ZM171.606 12.9231H174.287V18.8461H170.55C171.119 17.9231 171.444 16.2307 171.606 12.9231Z" fill="#5A5A5A"/>
<path d="M57.7863 16.3005C58.6602 15.67 59.2164 14.8818 59.2164 13.7783C59.2164 11.4138 57.0712 10.1527 54.7671 10.1527C52.3836 10.1527 50.0795 11.4926 50.0795 14.0148H53.337C53.337 13.2266 53.9726 12.8325 54.6082 12.8325C55.2438 12.8325 55.8 13.2266 55.8 13.936C55.8 14.5665 55.3233 15.0394 54.4493 15.0394H53.6548V17.7192H54.6877C55.5616 17.7192 56.1178 18.1921 56.1178 18.9015C56.1178 19.6109 55.4822 20.1626 54.7671 20.1626C54.052 20.1626 53.4164 19.6897 53.4164 18.8227H50C50 21.5025 52.2247 23 54.7671 23C57.2301 23 59.6136 21.7389 59.6136 19.2168C59.5342 17.9557 58.9781 16.9311 57.7863 16.3005ZM64.6191 19.6897V17.8769H68.6712V15.1182H64.6191V13.3842H69.1479V10.468H61.2821V22.6059H69.3068V19.6897H64.6191ZM73.5972 10.468L72.7232 17.6404C72.5644 18.9803 72.0082 19.6109 70.9753 19.6109H70.4191V22.6847H71.452C74.2329 22.6847 75.7424 21.1084 76.1397 17.7981L76.5369 13.5419H78.9205V22.6059H82.2574V10.468H73.5972ZM87.978 19.6897V17.8769H92.03V15.1182H87.978V13.3842H92.4273V10.468H84.5616V22.6059H92.5862V19.6897H87.978ZM101.644 10.468V14.8818H97.9889V10.468H94.5725V22.6059H97.9889V17.9557H101.644V22.6059H105.06V10.468H101.644ZM112.608 14.0148H110.701V10.468H107.364V22.6059H112.529C115.151 22.6059 117.057 20.7931 117.057 18.271C117.137 15.7488 115.23 14.0148 112.608 14.0148ZM118.249 10.468V22.6059H121.666V10.468H118.249ZM112.211 19.7685H110.781V16.9311H112.211C113.164 16.9311 113.8 17.4828 113.8 18.3498C113.72 19.138 113.085 19.7685 112.211 19.7685ZM126.671 9.28572H132.312V7H126.671V9.28572ZM132.153 10.468L127.307 17.0099V10.468H123.97V22.6059H126.592L131.438 16.1429V22.6059H134.775V10.468H132.153ZM146.852 22.9212C150.109 22.9212 152.572 20.7143 153.049 17.5616H149.633C149.315 18.9015 148.203 19.7685 146.852 19.7685C145.104 19.7685 143.832 18.4286 143.832 16.537C143.832 14.6453 145.104 13.3054 146.852 13.3054C148.123 13.3054 149.156 14.0936 149.633 15.3547H153.049C152.572 12.2808 150.03 10.1527 146.852 10.1527C143.118 10.1527 140.337 12.9113 140.337 16.537C140.337 20.1626 143.118 22.9212 146.852 22.9212ZM162.266 22.6059H166L161.074 10.468H157.737L152.969 22.6059H156.624L157.34 20.6355H161.709L162.266 22.6059ZM160.835 18.0345H158.134L159.485 14.2512L160.835 18.0345Z" fill="#5A5A5A"/>
<defs>
<clipPath id="clip0_2_775">
<rect width="39" height="39" fill="white"/>
</clipPath>
</defs>
</svg>
