<?xml version="1.0" standalone="no"?>
<!DOCTYPE svg PUBLIC "-//W3C//DTD SVG 1.1//EN" "http://www.w3.org/Graphics/SVG/1.1/DTD/svg11.dtd" >
<svg xmlns="http://www.w3.org/2000/svg">
<metadata>Generated by IcoMoon</metadata>
<defs>
<font id="mediadigger-icons" horiz-adv-x="1024">
<font-face units-per-em="1024" ascent="960" descent="-64" />
<missing-glyph horiz-adv-x="1024" />
<glyph unicode="&#x20;" horiz-adv-x="512" d="" />
<glyph unicode="&#xe900;" glyph-name="star" d="M368.036 207.184l124.109 65.248c12.43 6.535 27.279 6.535 39.709 0l124.109-65.248-23.703 138.198c-2.374 13.841 2.215 27.963 12.271 37.766l100.406 97.872-138.758 20.163c-13.897 2.019-25.91 10.748-32.125 23.34l-62.055 125.736-62.055-125.736c-6.215-12.593-18.228-21.321-32.125-23.34l-138.758-20.163 100.406-97.872c10.056-9.802 14.645-23.925 12.271-37.766l-23.703-138.198zM331.224 91.423c-31.301-16.456-67.885 10.124-61.907 44.978l34.525 201.297-146.251 142.559c-25.323 24.684-11.35 67.691 23.646 72.776l202.114 29.369 90.388 183.146c15.651 31.712 60.871 31.712 76.521 0l90.388-183.146 202.114-29.369c34.996-5.085 48.97-48.092 23.646-72.776l-146.251-142.559 34.525-201.297c5.978-34.855-30.606-61.434-61.907-44.978l-180.776 95.040-180.776-95.040z" />
<glyph unicode="&#xe901;" glyph-name="statistics" d="M640 618.667h170.667v-384h128v-85.333h-853.333v85.333h128v298.667h170.667v170.667h256v-85.333zM640 533.333v-298.667h85.333v298.667h-85.333zM554.667 618.667h-85.333v-384h85.333v384zM298.667 448v-213.333h85.333v213.333h-85.333z" />
<glyph unicode="&#xe902;" glyph-name="support" d="M819.2 832c65.882-0.234 119.233-53.584 119.467-119.467v-358.4c-0.234-65.882-53.584-119.233-119.467-119.467h-520.533l-213.333-170.667v648.533c0.234 65.882 53.584 119.233 119.467 119.467h614.4zM853.333 348.444v369.778c0 15.709-15.282 28.444-34.133 28.444h-614.4c-18.851 0-34.133-12.735-34.133-28.444v-504.889l128 106.667h520.533c18.851 0 34.133 12.735 34.133 28.444zM256 661.333h512v-85.333h-512v85.333zM256 490.667h384v-85.333h-384v85.333z" />
<glyph unicode="&#xe903;" glyph-name="text-align-center" d="M213.333 704h597.333v-85.333h-597.333v85.333zM213.333 490.667h597.333v-85.333h-597.333v85.333zM213.333 277.333h597.333v-85.333h-597.333v85.333z" />
<glyph unicode="&#xe904;" glyph-name="text-align-left" d="M213.333 704h597.333v-85.333h-597.333v85.333zM213.333 490.667h426.667v-85.333h-426.667v85.333zM213.333 277.333h256v-85.333h-256v85.333z" />
<glyph unicode="&#xe905;" glyph-name="text-bold" d="M306 680.667h195.333c38.667 0 67.5-1.611 86.5-4.833s36-9.944 51-20.167c15-10.222 27.5-23.833 37.5-40.833s15-36.055 15-57.167c0-22.889-6.167-43.889-18.5-63s-29.055-33.444-50.167-43c29.778-8.667 52.667-23.444 68.667-44.333s24-45.444 24-73.667c0-22.222-5.167-43.833-15.5-64.833s-24.444-37.778-42.333-50.333c-17.889-12.556-39.944-20.278-66.167-23.167-16.445-1.778-56.111-2.889-119-3.333h-166.333v488.667zM404.667 599.333v-113h64.667c38.445 0 62.333 0.556 71.667 1.667 16.889 2 30.167 7.833 39.833 17.5s14.5 22.389 14.5 38.167c0 15.111-4.167 27.389-12.5 36.833s-20.722 15.167-37.167 17.167c-9.778 1.111-37.889 1.667-84.333 1.667h-56.667zM404.667 405v-130.667h91.333c35.556 0 58.111 1 67.667 3 14.667 2.667 26.611 9.167 35.833 19.5s13.833 24.167 13.833 41.5c0 14.667-3.556 27.111-10.667 37.333s-17.389 17.667-30.833 22.333c-13.445 4.667-42.611 7-87.5 7h-79.667z" />
<glyph unicode="&#xe906;" glyph-name="text-italic" d="M423 192l102.333 488.667h65l-102-488.667z" />
<glyph unicode="&#xe907;" glyph-name="text-link-1" d="M682.667 789.333v-85.333h-213.333c-23.564 0-42.667-19.103-42.667-42.667v-426.667c0-23.564 19.103-42.667 42.667-42.667h85.333c23.564 0 42.667 19.103 42.667 42.667v320c0 11.759-9.532 21.291-21.291 21.291-11.814-0.008-21.376-9.576-21.376-21.376v-280.405h-85.333v280.405c0 58.906 47.732 106.67 106.638 106.709 58.958 0 106.695-47.737 106.695-106.624v-320c0-70.692-57.308-128-128-128h-85.333c-70.692 0-128 57.308-128 128v426.667c0 70.692 57.308 128 128 128h213.333z" />
<glyph unicode="&#xe908;" glyph-name="text-link" d="M542.17 417.83c33.325-33.325 33.325-87.355 0-120.68l-150.849-150.849c-33.325-33.325-87.355-33.325-120.68 0l-60.34 60.34c-33.325 33.325-33.325 87.355 0 120.68l150.849 150.849c33.325 33.325 87.355 33.325 120.68 0-33.325 33.325-33.325 87.355 0 120.68l150.849 150.849c33.325 33.325 87.355 33.325 120.68 0l60.34-60.34c33.325-33.325 33.325-87.355 0-120.68l-150.849-150.849c-33.325-33.325-87.355-33.325-120.68 0zM693.019 689.359l-150.849-150.849 60.34-60.34 150.849 150.849-60.34 60.34zM421.49 417.83l-150.849-150.849 60.34-60.34 150.849 150.849-60.34 60.34z" />
<glyph unicode="&#xe909;" glyph-name="text-list" d="M384 704h426.667v-85.333h-426.667v85.333zM384 490.667h426.667v-85.333h-426.667v85.333zM384 277.333h426.667v-85.333h-426.667v85.333zM213.333 704h85.333v-85.333h-85.333v85.333zM213.333 490.667h85.333v-85.333h-85.333v85.333zM213.333 277.333h85.333v-85.333h-85.333v85.333z" />
<glyph unicode="&#xe90a;" glyph-name="text-numbered-list" d="M426.667 704h384v-85.333h-384v85.333zM426.667 490.667h384v-85.333h-384v85.333zM426.667 277.333h384v-85.333h-384v85.333zM292.779 618.667v178.304h-33.451l11.648 20.907h43.904v-199.211h-22.101zM356.992 362.667h-128.725l72.576 83.925c5.077 5.973 18.517 21.803 23.296 28.971 8.96 12.843 11.051 22.4 11.051 30.464 0 22.4-16.128 38.827-39.723 38.827-14.037 0-25.685-6.272-33.152-17.621-3.883-5.973-6.272-13.44-6.571-23.595h-22.101c0.896 20.011 7.168 32.256 14.933 41.216 8.363 9.557 22.4 20.309 47.189 20.309 35.243 0 61.525-25.088 61.525-59.435 0-13.44-3.883-25.685-15.829-42.709-8.363-11.648-19.115-23.893-27.179-33.152l-41.515-46.891h84.224v-20.309zM261.12 256.597h-22.101c0.597 11.051 4.181 21.205 9.259 29.269 13.141 20.608 34.347 23.296 46.293 23.296 37.632 0 56.149-26.283 56.149-53.76 0-14.336-5.376-34.048-25.685-44.203 6.869-2.688 28.672-13.739 28.672-48.085 0-37.333-27.179-60.032-61.227-60.032-20.608 0-44.8 8.661-55.552 34.347-2.987 7.168-4.181 13.739-4.48 20.907h22.101c0.896-7.168 3.285-14.635 7.168-20.011 6.571-9.557 18.219-14.933 30.763-14.933 22.101 0 39.125 18.219 39.125 40.32 0 11.349-4.48 26.581-19.712 33.451-6.272 2.987-14.933 4.48-22.699 4.181v19.712c7.765-0.597 16.427 0.896 22.699 4.181s16.725 11.648 16.725 29.568c0 17.621-9.557 34.048-34.048 34.048-8.064 0-17.92-1.493-25.685-11.349-3.883-5.077-7.168-12.544-7.765-20.907z" />
<glyph unicode="&#xe90b;" glyph-name="text-right" d="M213.333 704h597.333v-85.333h-597.333v85.333zM384 490.667h426.667v-85.333h-426.667v85.333zM554.667 277.333h256v-85.333h-256v85.333z" />
<glyph unicode="&#xe90c;" glyph-name="text-underline" d="M629.333 723.333h64.667v-282.333c0-49.111-5.555-88.111-16.667-117s-31.167-52.389-60.167-70.5c-29-18.111-67.055-27.167-114.167-27.167-45.778 0-83.222 7.889-112.333 23.667s-49.889 38.611-62.333 68.5c-12.445 29.889-18.667 70.722-18.667 122.5v282.333h64.667v-282c0-42.445 3.944-73.722 11.833-93.833s21.444-35.611 40.667-46.5c19.222-10.889 42.722-16.333 70.5-16.333 47.556 0 81.444 10.778 101.667 32.333s30.333 63 30.333 124.333v282zM298.667 149.333h426.667v-42.667h-426.667v42.667z" />
<glyph unicode="&#xe90d;" glyph-name="tiles" d="M213.333 746.667h85.333v-85.333h-85.333v85.333zM213.333 576h85.333v-85.333h-85.333v85.333zM384 746.667h85.333v-85.333h-85.333v85.333zM384 576h85.333v-85.333h-85.333v85.333zM554.667 746.667h85.333v-85.333h-85.333v85.333zM554.667 576h85.333v-85.333h-85.333v85.333zM213.333 405.333h85.333v-85.333h-85.333v85.333zM384 405.333h85.333v-85.333h-85.333v85.333zM554.667 405.333h85.333v-85.333h-85.333v85.333zM725.333 746.667h85.333v-85.333h-85.333v85.333zM725.333 576h85.333v-85.333h-85.333v85.333zM725.333 405.333h85.333v-85.333h-85.333v85.333zM213.333 234.667h85.333v-85.333h-85.333v85.333zM384 234.667h85.333v-85.333h-85.333v85.333zM554.667 234.667h85.333v-85.333h-85.333v85.333zM725.333 234.667h85.333v-85.333h-85.333v85.333z" />
<glyph unicode="&#xe90e;" glyph-name="time" d="M554.667 448h85.333v-85.333h-170.667v213.333h85.333v-128zM512 746.667c-164.949 0-298.667-133.718-298.667-298.667s133.718-298.667 298.667-298.667c164.949 0 298.667 133.718 298.667 298.667s-133.718 298.667-298.667 298.667zM512 832c212.077 0 384-171.923 384-384s-171.923-384-384-384c-212.077 0-384 171.923-384 384s171.923 384 384 384z" />
<glyph unicode="&#xe90f;" glyph-name="upload" d="M640 566.993v-630.993h-256v630.993l-184.998-123.332-142.003 213.005 455.002 303.334 455.002-303.334-142.003-213.005-184.998 123.332z" />
<glyph unicode="&#xe910;" glyph-name="user" d="M358.057 435.439c-61.985 46.721-102.057 120.961-102.057 204.561 0 141.385 114.615 256 256 256s256-114.615 256-256c0-83.6-40.073-157.84-102.057-204.561 187.845-34.71 294.057-144.727 294.057-371.439v-128h-896v128c0 226.712 106.212 336.729 294.057 371.439zM512 512c70.692 0 128 57.308 128 128s-57.308 128-128 128c-70.692 0-128-57.308-128-128s57.308-128 128-128zM192 64h640c0 212.077-107.923 256-320 256s-320-43.923-320-256z" />
<glyph unicode="&#xe911;" glyph-name="vk" d="M576 380.159v-285.217l-89.211 38.233c-320.638 137.416-486.789 351.039-486.789 634.825h128c0-202.14 103.965-358.904 320-474.492v346.492h-64v128h192v-252.198c114.164 12.709 196.253 60.242 254.048 132.399 23.812 29.729 41.759 61.74 54.54 93.652 7.452 18.607 11.388 32.367 12.658 38.713l125.509-25.132c-9.842-49.15-37.496-118.202-92.802-187.252-40.376-50.41-89.684-91.996-148.201-122.784 103.478-59.297 183.322-157.755 237.672-293.629l-118.845-47.538c-66.822 167.054-172.762 256.916-324.577 275.928z" />
<glyph unicode="&#xe912;" glyph-name="add-group" d="M597.318 277.333c-18.633-24.807-31.984-53.808-38.384-85.333h-217.601v85.333h255.984zM170.667 618.667h85.333v-85.333h-85.333v85.333zM170.667 789.333h85.333v-85.333h-85.333v85.333zM341.333 618.667h512v-85.333h-512v85.333zM341.333 789.333h512v-85.333h-512v85.333zM170.667 448h85.333v-85.333h-85.333v85.333zM170.667 277.333h85.333v-85.333h-85.333v85.333zM341.333 448h512v-85.333h-512v85.333zM725.333 106.667h-85.333v85.333h85.333v85.333h85.333v-85.333h85.333v-85.333h-85.333v-85.333h-85.333v85.333z" />
<glyph unicode="&#xe913;" glyph-name="add-tag" d="M725.283 661.283l0.051-85.283-85.283 0.051-0.051 85.283 85.283-0.051zM810.32 505.195v241.359h-241.359l-367.215-367.215 241.359-241.359 367.215 367.215zM443.105 17.3l-362.039 362.039 452.548 452.548h362.039v-362.039l-452.548-452.548z" />
<glyph unicode="&#xe914;" glyph-name="add-tag-plus" d="M513.593 208.467c3.964-32.369 15.178-62.497 31.969-88.711l-102.456-102.456-362.039 362.039 452.548 452.548h362.039v-362.039l-55.41-55.41c-26.214 16.791-56.342 28.005-88.711 31.969l58.788 58.788v241.359h-241.359l-367.215-367.215 241.359-241.359 70.487 70.487zM725.283 661.283l0.051-85.283-85.283 0.051-0.051 85.283 85.283-0.051zM682.667 192h-85.333v85.333h85.333v85.333h85.333v-85.333h85.333v-85.333h-85.333v-85.333h-85.333v85.333z" />
<glyph unicode="&#xe915;" glyph-name="alert" d="M512 870.378l422.378-422.378-422.378-422.378-422.378 422.378 422.378 422.378zM469.333 618.667v-213.333h85.333v213.333h-85.333zM469.333 362.667v-85.333h85.333v85.333h-85.333z" />
<glyph unicode="&#xe916;" glyph-name="archive" d="M170.667 576h682.667v85.333h-344.336l-85.333 128h-252.998v-213.333zM170.667 490.667v-341.333h682.667v341.333h-682.667zM85.333 874.667h384l85.333-128h384v-682.667h-853.333v810.667zM213.333 192v85.333h213.333v-85.333h-213.333zM213.333 320v85.333h213.333v-85.333h-213.333z" />
<glyph unicode="&#xe917;" glyph-name="arrow" d="M403.655 438.949l212.298-212.298-36.204-36.204-248.502 248.502 248.502 248.502 36.204-36.204z" />
<glyph unicode="&#xe918;" glyph-name="arrow-down" d="M652.497 563.503l60.34-60.34-200.837-200.837-200.837 200.837 60.34 60.34 140.497-140.497z" />
<glyph unicode="&#xe919;" glyph-name="arrow-up" d="M371.503 302.327l-60.34 60.34 200.837 200.837 200.837-200.837-60.34-60.34-140.497 140.497z" />
<glyph unicode="&#xe91a;" glyph-name="Bell" d="M682.667 362.667h-341.333l-42.667-42.667h426.667l-42.667 42.667zM298.667 448v128c0 117.821 95.513 213.333 213.333 213.333s213.333-95.513 213.333-213.333v-128h42.667l42.667-213.333h-597.333l42.667 213.333h42.667zM384 448h256v128c0 70.692-57.308 128-128 128s-128-57.308-128-128v-128zM554.667 106.667h-85.333v85.333h85.333v-85.333z" />
<glyph unicode="&#xe91b;" glyph-name="bookmark" d="M611.704 789.333h-313.037c-47.128 0-85.333-38.205-85.333-85.333v-509.366l192 147.692 192-147.692v530.7c0 22.903 5.156 44.603 14.371 64zM298.667 874.667h469.333v-1.512c72.369-10.352 128-72.59 128-147.821v-362.667h-213.333v-254.683c0-23.564-19.103-42.667-42.667-42.667-9.41 0-18.556 3.111-26.014 8.848l-208.652 160.502-208.652-160.502c-18.678-14.367-45.466-10.873-59.833 7.804-5.737 7.459-8.848 16.604-8.848 26.014v596.017c0 94.257 76.41 170.667 170.667 170.667zM682.667 448v0h128v277.333c0 35.346-28.654 64-64 64s-64-28.654-64-64v-277.333z" />
<glyph unicode="&#xe91c;" glyph-name="calendar" d="M597.333 661.333h-341.333v-512h512v512h-170.667zM682.667 746.667h170.667v-682.667h-682.667v682.667h170.667v85.333h85.333v-85.333h170.667v85.333h85.333v-85.333zM341.333 234.667v85.333h85.333v-85.333h-85.333zM341.333 362.667v85.333h85.333v-85.333h-85.333zM341.333 490.667v85.333h85.333v-85.333h-85.333zM469.333 234.667v85.333h85.333v-85.333h-85.333zM469.333 362.667v85.333h85.333v-85.333h-85.333zM469.333 490.667v85.333h85.333v-85.333h-85.333zM597.333 234.667v85.333h85.333v-85.333h-85.333zM597.333 362.667v85.333h85.333v-85.333h-85.333zM597.333 490.667v85.333h85.333v-85.333h-85.333z" />
<glyph unicode="&#xe91d;" glyph-name="configurations" d="M421.47 654.252l-9.351-4.083c-16.256-7.099-31.653-16.018-45.908-26.57l-8.233-6.094-73.772 13.555c-9.82 1.804-19.714-2.766-24.706-11.413l-37.522-64.99c-4.987-8.639-4.006-19.48 2.452-27.082l48.614-57.23-1.129-10.128c-0.974-8.74-1.465-17.571-1.465-26.467 0-9.013 0.504-17.958 1.504-26.811l1.157-10.247-49.556-57.494c-6.553-7.603-7.581-18.519-2.562-27.211l37.307-64.618c5.014-8.684 14.967-13.252 24.821-11.392l74.734 14.113 8.291-6.141c14.274-10.573 29.694-19.51 45.975-26.619l9.351-4.083 25.24-70.672c3.355-9.394 12.253-15.664 22.228-15.664h75.125c9.965 0 18.857 6.258 22.219 15.639l25.362 70.758 9.326 4.079c16.166 7.071 31.481 15.943 45.667 26.431l8.217 6.075 73.906-13.492c9.813-1.791 19.692 2.779 24.68 11.418l37.562 65.060c4.983 8.63 4.008 19.459-2.434 27.062l-48.627 57.379 1.12 10.105c0.964 8.694 1.45 17.478 1.45 26.327 0 7.295-0.33 14.547-0.986 21.741l-0.911 9.986 59.815 69.24c6.568 7.603 7.603 18.53 2.58 27.231l-37.267 64.549c-5.019 8.693-14.986 13.26-24.847 11.387l-90.055-17.112-8.187 5.794c-13.135 9.295-27.185 17.228-41.939 23.66l-9.375 4.087-25.119 70.587c-3.348 9.407-12.252 15.69-22.237 15.69h-75.044c-9.975 0-18.873-6.271-22.228-15.664l-25.24-70.672zM393.185 778.199c11.523 32.264 42.084 53.801 76.344 53.801h85.915c34.294 0 64.877-21.579 76.375-53.888l21.008-59.034c12.832-6.168 25.237-13.175 37.139-20.971l80.826 15.358c33.868 6.436 68.102-9.253 85.339-39.108l42.666-73.899c17.254-29.884 13.698-67.416-8.86-93.529l-53.66-62.116c0.333-6.027 0.5-12.078 0.5-18.148 0-8.139-0.3-16.243-0.898-24.301l40.813-48.158c22.128-26.11 25.474-63.305 8.361-92.945l-43.004-74.485c-17.13-29.67-51.062-45.368-84.765-39.215l-61.887 11.298c-13.452-9.203-27.582-17.383-42.273-24.463l-21.273-59.351c-11.548-32.219-42.087-53.713-76.313-53.713h-86.007c-34.26 0-64.821 21.537-76.344 53.801l-21.14 59.192c-14.803 7.124-29.035 15.365-42.58 24.643l-62.643-11.83c-33.842-6.391-68.029 9.299-85.249 39.125l-42.711 73.978c-17.237 29.856-13.707 67.347 8.801 93.46l41.515 48.166c-0.623 8.222-0.935 16.493-0.935 24.799 0 8.194 0.304 16.353 0.91 24.466l-40.742 47.963c-22.18 26.111-25.551 63.346-8.421 93.016l42.957 74.404c17.147 29.699 51.127 45.396 84.856 39.199l61.685-11.334c13.537 9.271 27.763 17.507 42.557 24.627l21.14 59.192zM512 320c-70.692 0-128 57.308-128 128s57.308 128 128 128c70.692 0 128-57.308 128-128s-57.308-128-128-128zM512 405.333c23.564 0 42.667 19.103 42.667 42.667s-19.103 42.667-42.667 42.667c-23.564 0-42.667-19.103-42.667-42.667s19.103-42.667 42.667-42.667z" />
<glyph unicode="&#xe91e;" glyph-name="contacts" d="M819.2 789.333h-614.4c-65.882-0.234-119.233-53.584-119.467-119.467v-443.733c0.234-65.882 53.584-119.233 119.467-119.467h614.4c65.882 0.234 119.233 53.584 119.467 119.467v443.733c-0.234 65.882-53.584 119.233-119.467 119.467zM853.333 226.133c0-18.851-15.282-34.133-34.133-34.133h-614.4c-18.851 0-34.133 15.282-34.133 34.133v443.733c0 18.851 15.282 34.133 34.133 34.133h614.4c18.851 0 34.133-15.282 34.133-34.133v-443.733zM426.667 490.667c35.346 0 64 28.654 64 64s-28.654 64-64 64c-35.346 0-64-28.654-64-64s28.654-64 64-64zM298.667 396.373v-76.373h256v76.373c-77.303 52.353-178.697 52.353-256 0z" />
<glyph unicode="&#xe91f;" glyph-name="cross-bold" d="M512 629.019l293.49 293.49 181.019-181.019-293.49-293.49 293.49-293.49-181.019-181.019-293.49 293.49-293.49-293.49-181.019 181.019 293.49 293.49-293.49 293.49 181.019 181.019z" />
<glyph unicode="&#xe920;" glyph-name="cross-thin-normal" d="M512 538.51l338.745 338.745 90.51-90.51-338.745-338.745 338.745-338.745-90.51-90.51-338.745 338.745-338.745-338.745-90.51 90.51 338.745 338.745-338.745 338.745 90.51 90.51z" />
<glyph unicode="&#xe921;" glyph-name="cross-thin" d="M512 538.51l338.745 338.745 90.51-90.51-338.745-338.745 338.745-338.745-90.51-90.51-338.745 338.745-338.745-338.745-90.51 90.51 338.745 338.745-338.745 338.745 90.51 90.51z" />
<glyph unicode="&#xe922;" glyph-name="delete" d="M554.667 704v42.667h-85.333v-42.667h85.333zM640 704h213.333v-85.333h-85.333l-39.139-515.863c-1.998-21.977-20.424-38.804-42.491-38.804h-348.739c-22.067 0-40.494 16.827-42.491 38.804l-39.139 515.863h-85.333v85.333h213.333v85.333c0 23.564 19.103 42.667 42.667 42.667h170.667c23.564 0 42.667-19.103 42.667-42.667v-85.333zM682.667 618.667h-341.333l42.667-469.333h256l42.667 469.333zM554.667 490.667v-213.333h-85.333v213.333h85.333z" />
<glyph unicode="&#xe923;" glyph-name="duplicate" d="M597.333 64h-341.333c-47.128 0-85.333 38.205-85.333 85.333v469.333c0 47.128 38.205 85.333 85.333 85.333h213.333l213.333-213.333v-341.333c0-47.128-38.205-85.333-85.333-85.333zM256 149.333h341.333v256h-170.667c-23.564 0-42.667 19.103-42.667 42.667v170.667h-128v-469.333zM561.987 490.667l-92.654 92.654v-92.654h92.654zM768 277.333v341.333l-170.667 170.667h-170.667v-42.667h-85.333v42.667c0 47.128 38.205 85.333 85.333 85.333h213.333l213.333-213.333v-384c0-47.128-38.205-85.333-85.333-85.333h-42.667v85.333h42.667z" />
<glyph unicode="&#xe924;" glyph-name="edit" d="M516 628l176-176-312-312c-8-8-16-12-28-12h-120c-24 0-40 16-40 40v120c0 12 4 20 12 28l312 312zM820 636c16-16 16-40 0-56l-72-72-176 176 72 72c16 16 40 16 56 0l120-120z" />
<glyph unicode="&#xe925;" glyph-name="facebook" d="M320 448v128h384v-128h-384zM576 0h-128v704c0 106.039 85.961 192 192 192h64v-128h-64c-35.346 0-64-28.654-64-64v-704z" />
<glyph unicode="&#xe926;" glyph-name="filter" d="M768 490.667h170.667v-85.333h-170.667v-42.667c0-23.564-19.103-42.667-42.667-42.667h-170.667c-23.564 0-42.667 19.103-42.667 42.667v42.667h-426.667v85.333h426.667v42.667c0 23.564 19.103 42.667 42.667 42.667h170.667c23.564 0 42.667-19.103 42.667-42.667v-42.667zM213.333 789.333v42.667c0 23.564 19.103 42.667 42.667 42.667h170.667c23.564 0 42.667-19.103 42.667-42.667v-42.667h469.333v-85.333h-469.333v-42.667c0-23.564-19.103-42.667-42.667-42.667h-170.667c-23.564 0-42.667 19.103-42.667 42.667v42.667h-128v85.333h128zM213.333 234.667v42.667c0 23.564 19.103 42.667 42.667 42.667h170.667c23.564 0 42.667-19.103 42.667-42.667v-42.667h469.333v-85.333h-469.333v-42.667c0-23.564-19.103-42.667-42.667-42.667h-170.667c-23.564 0-42.667 19.103-42.667 42.667v42.667h-128v85.333h128zM298.667 234.667v-85.333h85.333v85.333h-85.333zM298.667 789.333v-85.333h85.333v85.333h-85.333zM597.333 490.667v-85.333h85.333v85.333h-85.333z" />
<glyph unicode="&#xe927;" glyph-name="group" d="M170.667 576h85.333v-85.333h-85.333v85.333zM170.667 746.667h85.333v-85.333h-85.333v85.333zM341.333 576h512v-85.333h-512v85.333zM341.333 746.667h512v-85.333h-512v85.333zM170.667 405.333h85.333v-85.333h-85.333v85.333zM170.667 234.667h85.333v-85.333h-85.333v85.333zM341.333 405.333h512v-85.333h-512v85.333zM341.333 234.667h512v-85.333h-512v85.333z" />
<glyph unicode="&#xe928;" glyph-name="history" d="M720.885 221.442c-29.599-18.651-64.648-29.442-102.218-29.442-106.039 0-192 85.961-192 192s85.961 192 192 192c106.039 0 192-85.961 192-192 0-37.57-10.791-72.619-29.442-102.218l52.291-52.291c16.662-16.662 16.662-43.677 0-60.34s-43.677-16.662-60.34 0l-52.291 52.291zM640 704h-384v-469.333h128c23.564 0 42.667-19.103 42.667-42.667s-19.103-42.667-42.667-42.667h-170.667c-23.564 0-42.667 19.103-42.667 42.667v554.667c0 23.564 19.103 42.667 42.667 42.667h469.333c23.564 0 42.667-19.103 42.667-42.667v-85.333c0-23.564-19.103-42.667-42.667-42.667s-42.667 19.103-42.667 42.667v42.667zM618.667 277.333c58.91 0 106.667 47.756 106.667 106.667s-47.756 106.667-106.667 106.667c-58.91 0-106.667-47.756-106.667-106.667s47.756-106.667 106.667-106.667zM384 661.333h42.667c23.564 0 42.667-19.103 42.667-42.667s-19.103-42.667-42.667-42.667h-42.667c-23.564 0-42.667 19.103-42.667 42.667s19.103 42.667 42.667 42.667z" />
<glyph unicode="&#xe929;" glyph-name="journalists" d="M0 960h256v-256h-256v256zM256 704h256v-256h-256v256zM512 448h256v-256h-256v256zM768 192h256v-256h-256v256z" />
<glyph unicode="&#xe92a;" glyph-name="key-word" d="M0 960h512v-256h-512v256zM0 576h768v-256h-768v256zM0 192h256v-256h-256v256z" />
<glyph unicode="&#xe92b;" glyph-name="last-name" d="M256 704v-512h512v512h-512zM0 960h1024v-1024h-1024v1024z" />
<glyph unicode="&#xe92c;" glyph-name="link" d="M602.51 719.529l-135.765 45.255 45.255 45.255c99.974 99.974 262.064 99.974 362.039 0s99.974-262.064 0-362.039l-135.764-135.764c-99.974-99.974-262.064-99.974-362.039 0l90.51 90.51c49.987-49.987 131.032-49.987 181.019 0l135.765 135.765c49.987 49.987 49.987 131.032 0 181.019s-131.032 49.987-181.019 0zM421.49 176.471l135.765-45.255-45.255-45.255c-99.974-99.974-262.064-99.974-362.039 0s-99.974 262.064 0 362.039l135.765 135.765c99.974 99.974 262.064 99.974 362.039 0l-90.51-90.51c-49.987 49.987-131.032 49.987-181.019 0l-135.765-135.765c-49.987-49.987-49.987-131.032 0-181.019s131.032-49.987 181.019 0z" />
<glyph unicode="&#xe92d;" glyph-name="lookmail" d="M763.552 136.109c-29.599-18.651-64.648-29.442-102.218-29.442-106.039 0-192 85.961-192 192s85.961 192 192 192c106.039 0 192-85.961 192-192 0-37.57-10.791-72.619-29.442-102.218l52.291-52.291c16.662-16.662 16.662-43.677 0-60.34s-43.677-16.662-60.34 0l-52.291 52.291zM682.667 746.667h-426.667v-597.333h170.667v-85.333h-256v768h597.333v-256h-85.333v170.667zM661.333 192c58.91 0 106.667 47.756 106.667 106.667s-47.756 106.667-106.667 106.667c-58.91 0-106.667-47.756-106.667-106.667s47.756-106.667 106.667-106.667zM341.333 661.333h256v-85.333h-256v85.333zM341.333 490.667h85.333v-85.333h-85.333v85.333z" />
<glyph unicode="&#xe92e;" glyph-name="message" d="M170.667 663.901v-437.767c0-18.851 15.282-34.133 34.133-34.133h614.4c18.851 0 34.133 15.282 34.133 34.133v441.684l-341.333-343.303-341.333 339.386zM235.22 704l276.78-274.953 273.124 274.953h-549.904zM819.2 789.333c65.882-0.234 119.233-53.584 119.467-119.467v-443.733c-0.234-65.882-53.584-119.233-119.467-119.467h-614.4c-65.882 0.234-119.233 53.584-119.467 119.467v443.733c0.234 65.882 53.584 119.233 119.467 119.467h614.4z" />
<glyph unicode="&#xe92f;" glyph-name="name" d="M512-64c-282.77 0-512 229.23-512 512s229.23 512 512 512c282.77 0 512-229.23 512-512s-229.23-512-512-512zM512 192c141.385 0 256 114.615 256 256s-114.615 256-256 256c-141.385 0-256-114.615-256-256s114.615-256 256-256z" />
<glyph unicode="&#xe930;" glyph-name="new" d="M384 576v384h256v-384h384v-256h-384v-384h-256v384h-384v256h384z" />
<glyph unicode="&#xe931;" glyph-name="new-tab" d="M896 192v-128h-768v768h320v-128h-192v-512h512v192h128v-192zM896 704v-192h-128v102.432l-229.49-229.49-90.51 90.51 228.548 228.548h-100.548v128h320v-128z" />
<glyph unicode="&#xe932;" glyph-name="occupation" d="M1024 960v-1024h-768l-256 256h768v512h-768l256 256z" />
<glyph unicode="&#xe933;" glyph-name="organization" d="M256 704v-512l512 512h-512zM0 960h1024l-1024-1024v1024z" />
<glyph unicode="&#xe934;" glyph-name="permissions-open" d="M554.667 106.667h-256c-47.128 0-85.333 38.205-85.333 85.333v256c0 47.128 38.205 85.333 85.333 85.333v85.333c0 94.257 76.41 170.667 170.667 170.667h85.333c94.257 0 170.667-76.41 170.667-170.667h-85.333v-85.333h85.333c47.128 0 85.333-38.205 85.333-85.333v-85.333h-85.333v85.333h-426.667v-256h256v-85.333zM469.333 704c-47.128 0-85.333-38.205-85.333-85.333v-85.333h256v85.333c0 47.128-38.205 85.333-85.333 85.333h-85.333zM725.333 192v85.333h85.333v-85.333h85.333v-85.333h-85.333v-85.333h-85.333v85.333h-85.333v85.333h85.333z" />
<glyph unicode="&#xe935;" glyph-name="permissions" d="M725.333 533.333c47.128 0 85.333-38.205 85.333-85.333v-256c0-47.128-38.205-85.333-85.333-85.333h-426.667c-47.128 0-85.333 38.205-85.333 85.333v256c0 47.128 38.205 85.333 85.333 85.333v85.333c0 94.257 76.41 170.667 170.667 170.667h85.333c94.257 0 170.667-76.41 170.667-170.667v-85.333zM298.667 448v-256h426.667v256h-426.667zM469.333 704c-47.128 0-85.333-38.205-85.333-85.333v-85.333h256v85.333c0 47.128-38.205 85.333-85.333 85.333h-85.333z" />
<glyph unicode="&#xe936;" glyph-name="planned" d="M469.333 469.333l-128 64v170.667h-85.333v85.333h512v-85.333h-85.333v-170.667l-128-64 128-64v-170.667h85.333v-85.333h-512v85.333h85.333v170.667l128 64zM426.667 234.667h170.667v117.928l-85.333 42.667-85.333-42.667v-117.928zM597.333 704h-170.667v-117.928l85.333-42.667 85.333 42.667v117.928z" />
<glyph unicode="&#xe937;" glyph-name="plus" d="M409.6 550.4v409.6h204.8v-409.6h409.6v-204.8h-409.6v-409.6h-204.8v409.6h-409.6v204.8h409.6z" />
<glyph unicode="&#xe938;" glyph-name="press" d="M0 960h256v-256h-256v256zM0 576h256v-256h-256v256zM0 192h256v-256h-256v256zM384 960h256v-256h-256v256zM384 576h256v-256h-256v256zM384 192h256v-256h-256v256zM768 960h256v-256h-256v256zM768 576h256v-256h-256v256zM768 192h256v-256h-256v256z" />
<glyph unicode="&#xe939;" glyph-name="preview" d="M507.712 285.91c97.219 0 199.953 53.653 307.954 166.378-108.001 112.725-210.735 166.378-307.954 166.378s-199.953-53.653-307.954-166.378c108.001-112.725 210.735-166.378 307.954-166.378zM507.712 704c140.793 0 281.586-83.904 422.378-251.712-140.793-167.808-281.586-251.712-422.378-251.712s-281.586 83.904-422.378 251.712c140.793 167.808 281.586 251.712 422.378 251.712zM505.476 326.524c-70.692 0-128 57.308-128 128s57.308 128 128 128c70.692 0 128-57.308 128-128s-57.308-128-128-128zM505.476 411.857c23.564 0 42.667 19.103 42.667 42.667s-19.103 42.667-42.667 42.667c-23.564 0-42.667-19.103-42.667-42.667s19.103-42.667 42.667-42.667z" />
<glyph unicode="&#xe93a;" glyph-name="read" d="M128 402.81v-338.81h768v338.81l-384-215.033-384 215.033zM867.364 533.477l-355.364 266.523-355.364-266.523 355.364-198.997 355.364 198.997zM0 576l512 384 512-384v-640h-1024v640z" />
<glyph unicode="&#xe93b;" glyph-name="reply" d="M384 256v-128h-204.8c-98.824 0.351-178.849 80.376-179.2 179.2v473.6c0.351 98.824 80.376 178.849 179.2 179.2h665.6c98.824-0.351 178.849-80.376 179.2-179.2v-332.8h-128v332.8c0 1.663-0.079 3.307-0.234 4.93l-383.766-330.958-383.999 326.326c-0.001-0.099-0.001-0.198-0.001-0.297v-473.6c0-28.277 22.923-51.2 51.2-51.2h204.8zM242.511 832l269.489-220.429 264.727 220.429h-534.216zM666.51 128l82.745-82.745-90.51-90.51-237.255 237.255 237.255 237.255 90.51-90.51-82.745-82.745h165.49c106.039 0 192-85.961 192-192v-128h-128v128c0 35.346-28.654 64-64 64h-165.49z" />
<glyph unicode="&#xe93c;" glyph-name="rows" d="M213.333 746.667h597.333v-85.333h-597.333v85.333zM213.333 576h597.333v-85.333h-597.333v85.333zM213.333 405.333h597.333v-85.333h-597.333v85.333zM213.333 234.667h597.333v-85.333h-597.333v85.333z" />
<glyph unicode="&#xe93d;" glyph-name="search-2" d="M702.436 317.904l223.734-223.734-60.34-60.34-223.734 223.734c-53.837-41.132-121.113-65.564-194.096-65.564-176.731 0-320 143.269-320 320s143.269 320 320 320c176.731 0 320-143.269 320-320 0-72.983-24.432-140.259-65.564-194.096zM448 277.333c129.603 0 234.667 105.064 234.667 234.667s-105.064 234.667-234.667 234.667c-129.603 0-234.667-105.064-234.667-234.667s105.064-234.667 234.667-234.667z" />
<glyph unicode="&#xe93e;" glyph-name="search" d="M770.031 280.478l122.753-122.753-90.51-90.51-122.753 122.753c-56.707-39.085-125.442-61.969-199.522-61.969-194.404 0-352 157.596-352 352s157.596 352 352 352c194.404 0 352-157.596 352-352 0-74.080-22.884-142.815-61.969-199.522zM480 256c123.712 0 224 100.288 224 224s-100.288 224-224 224c-123.712 0-224-100.288-224-224s100.288-224 224-224z" />
<glyph unicode="&#xe93f;" glyph-name="select-all" d="M853.333 106.667v85.333h-85.333v-85.333h85.333zM896 21.333h-170.667c-23.564 0-42.667 19.103-42.667 42.667v170.667c0 23.564 19.103 42.667 42.667 42.667h170.667c23.564 0 42.667-19.103 42.667-42.667v-170.667c0-23.564-19.103-42.667-42.667-42.667zM853.333 704v85.333h-85.333v-85.333h85.333zM896 618.667h-170.667c-23.564 0-42.667 19.103-42.667 42.667v170.667c0 23.564 19.103 42.667 42.667 42.667h170.667c23.564 0 42.667-19.103 42.667-42.667v-170.667c0-23.564-19.103-42.667-42.667-42.667zM256 106.667v85.333h-85.333v-85.333h85.333zM298.667 21.333h-170.667c-23.564 0-42.667 19.103-42.667 42.667v170.667c0 23.564 19.103 42.667 42.667 42.667h170.667c23.564 0 42.667-19.103 42.667-42.667v-170.667c0-23.564-19.103-42.667-42.667-42.667zM170.667 618.667h-42.667c-23.564 0-42.667 19.103-42.667 42.667v170.667c0 23.564 19.103 42.667 42.667 42.667h170.667c23.564 0 42.667-19.103 42.667-42.667v-42.667h341.333v-85.333h-341.333v-42.667c0-23.564-19.103-42.667-42.667-42.667h-42.667v-341.333h-85.333v341.333zM469.333 405.333h-85.333v85.333h85.333v85.333h85.333v-85.333h85.333v-85.333h-85.333v-85.333h-85.333v85.333zM256 704v85.333h-85.333v-85.333h85.333zM853.333 277.333h-85.333v85.333h85.333v-85.333zM853.333 405.333h-85.333v85.333h85.333v-85.333zM853.333 533.333h-85.333v85.333h85.333v-85.333zM597.333 106.667v85.333h85.333v-85.333h-85.333zM469.333 106.667v85.333h85.333v-85.333h-85.333zM341.333 106.667v85.333h85.333v-85.333h-85.333z" />
<glyph unicode="&#xe940;" glyph-name="sort-down" d="M128 768h768v-128h-768v128zM128 512h640v-128h-640v128zM128 256h384v-128h-384v128z" />
<glyph unicode="&#xe941;" glyph-name="sort-up" d="M128 256h768v-128h-768v128zM128 512h640v-128h-640v128zM128 768h384v-128h-384v128z" />
<glyph unicode="&#xe942;" glyph-name="edit-void" d="M627.666 686.327l60.34-60.34 60.34 60.34-60.34 60.34-60.34-60.34zM567.327 625.987l-263.617-263.617 7.375-52.965 52.965-7.375 263.617 263.617-60.34 60.34zM128 149.333h725.333v-85.333h-725.333v85.333zM394.353 211.654l-158.895 22.125-22.125 158.895 414.333 414.333c33.325 33.325 87.355 33.325 120.68 0l60.34-60.34c33.325-33.325 33.325-87.355 0-120.68l-414.333-414.333z" />
</font>
</defs>
</svg>
