<svg xmlns="http://www.w3.org/2000/svg" xmlns:xlink="http://www.w3.org/1999/xlink"><symbol viewBox="0 0 36 32" id="icon-i" xmlns="http://www.w3.org/2000/svg"><path d="M12.571 11.429c2.521 0 4.572-2.051 4.572-4.572 0-2.52-2.05-4.571-4.572-4.571A4.577 4.577 0 008 6.857c0 2.52 2.05 4.572 4.571 4.572zm0-5.143a.572.572 0 11-.001 1.144.572.572 0 01.001-1.144zm.572 3.948V8.466A1.711 1.711 0 0014.18 7.43h1.768a3.434 3.434 0 01-2.806 2.805zm2.806-3.948H14.18a1.711 1.711 0 00-1.038-1.038V3.48a3.434 3.434 0 012.806 2.806zM12 3.48v1.768a1.712 1.712 0 00-1.143 1.61c0 .743.48 1.372 1.143 1.608v1.768a3.431 3.431 0 01-2.857-3.377A3.432 3.432 0 0112 3.48zm21.143 6.806H32v-8h-3.429v8H27.43V4.57H24v5.715h-1.143V6.857H19.43v3.429h-.572v1.143h14.286v-1.143zm-3.429-6.857h1.143v6.857h-1.143V3.429zm-4.571 2.285h1.143v4.572h-1.143V5.714zM20.57 8h1.143v2.286h-1.143V8zM9.714 20.571c-2.205 0-4 1.795-4 4 0 2.206 1.795 4 4 4s4-1.794 4-4c0-2.205-1.795-4-4-4zm0 6.858a2.86 2.86 0 01-2.857-2.858 2.86 2.86 0 012.857-2.857 2.86 2.86 0 012.857 2.857 2.86 2.86 0 01-2.857 2.858zM6.05 0L0 6.05v19.093h2.286v1.04l1.442.289c.108.341.246.672.41.99l-.816 1.223L5.6 30.963l1.224-.816c.318.165.65.302.99.41L8.104 32h3.222l.289-1.442c.34-.108.672-.245.99-.41l1.224.816 2.278-2.278-.817-1.224c.165-.317.302-.648.41-.99l1.443-.29v-1.04h18.286V0H6.049zm-.335 1.95v3.764H1.951l3.763-3.763zM1.143 24V6.857h5.714V1.143h27.429v18.286H30.77l-.395-2.373A1.26 1.26 0 0029.128 16c-.598 0-1.106.407-1.235.99l-.899 4.048c-.028.124-.236.122-.26-.002l-.34-1.695a1.318 1.318 0 00-1.288-1.055c-.566 0-1.067.36-1.246.897l-.813 2.44a.133.133 0 01-.127.091h-.07a.133.133 0 01-.13-.104l-.89-4.004a1.315 1.315 0 00-1.29-1.035 1.32 1.32 0 00-1.253.904L18.445 20h-2.797l-1.82-1.82-1.224.816a6.287 6.287 0 00-.99-.41l-.289-1.443H8.103l-.29 1.442a6.296 6.296 0 00-.989.41L5.6 18.179l-2.278 2.278.816 1.224a6.274 6.274 0 00-.41.99l-1.442.29V24H1.143zM16 25.246l-1.218.244-.089.348c-.122.48-.31.936-.562 1.357l-.184.31.689 1.034-.954.954-1.035-.69-.309.185c-.421.251-.878.44-1.356.562l-.349.088-.244 1.22H9.04l-.243-1.219-.348-.089a5.081 5.081 0 01-1.357-.561l-.31-.185-1.034.69-.954-.954.69-1.034-.185-.31a5.097 5.097 0 01-.562-1.357l-.089-.349-1.218-.244v-1.349l1.218-.244.088-.348c.122-.479.311-.935.563-1.357l.184-.31-.69-1.034.954-.954 1.035.69.31-.185c.42-.251.877-.44 1.356-.562l.349-.089.243-1.218h1.35l.243 1.218.349.089c.48.121.936.31 1.357.561l.309.185 1.035-.69.953.954-.689 1.034.184.31c.252.422.44.879.563 1.357l.088.349 1.219.244v1.349zM17.143 24v-1.04l-1.442-.289a6.221 6.221 0 00-.41-.99l.359-.538h3.62l1.1-3.305c.053-.155.311-.14.346.016l.89 4.004c.13.588.643 1 1.245 1h.07c.55 0 1.035-.352 1.21-.873l.813-2.44c.05-.146.298-.13.33.02l.338 1.695a1.28 1.28 0 001.252 1.026 1.27 1.27 0 001.246-1l.9-4.048c.025-.114.218-.109.237.007l.555 3.326h4.484V24H17.143zM3.429 14.857H2.286v-1.143h1.143v1.143zm27.428 0H4.571v-1.143h26.286v1.143zM32 13.714h1.143v1.143H32v-1.143z" fill-rule="nonzero" fill="currentColor"/></symbol></svg>