<svg width="90" height="90" viewBox="0 0 90 90" fill="none" xmlns="http://www.w3.org/2000/svg">
<path d="M24.375 7.49997H65.625C66.2072 7.49997 66.7813 7.63551 67.3021 7.89587C67.8228 8.15622 68.2757 8.53423 68.625 8.99997L78.75 22.5V78.75C78.75 79.7445 78.3549 80.6984 77.6517 81.4016C76.9484 82.1049 75.9946 82.5 75 82.5H15C14.0054 82.5 13.0516 82.1049 12.3483 81.4016C11.6451 80.6984 11.25 79.7445 11.25 78.75V22.5L21.375 8.99997C21.7243 8.53423 22.1772 8.15622 22.6979 7.89587C23.2187 7.63551 23.7928 7.49997 24.375 7.49997ZM71.25 30H18.75V75H71.25V30ZM69.375 22.5L63.75 15H26.25L20.625 22.5H69.375ZM33.75 37.5V45C33.75 47.9837 34.9353 50.8451 37.045 52.9549C39.1548 55.0647 42.0163 56.25 45 56.25C47.9837 56.25 50.8452 55.0647 52.955 52.9549C55.0647 50.8451 56.25 47.9837 56.25 45V37.5H63.75V45C63.75 49.9728 61.7746 54.7419 58.2583 58.2582C54.7419 61.7745 49.9728 63.75 45 63.75C40.0272 63.75 35.2581 61.7745 31.7417 58.2582C28.2254 54.7419 26.25 49.9728 26.25 45V37.5H33.75Z" fill="url(#paint0_linear)"/>
<defs>
<linearGradient id="paint0_linear" x1="12.5" y1="81.5" x2="68.5" y2="12.5" gradientUnits="userSpaceOnUse">
<stop stop-color="#F96D8C"/>
<stop offset="1" stop-color="#FBD862"/>
</linearGradient>
</defs>
</svg>
