<svg width="90" height="90" viewBox="0 0 90 90" fill="none" xmlns="http://www.w3.org/2000/svg">
<path d="M15 23.0362V71.1262L33.9938 62.9887L56.4938 74.2387L75 66.3V18.2137L79.8863 16.1212C80.1716 15.9989 80.4828 15.9493 80.792 15.977C81.1012 16.0046 81.3987 16.1086 81.6578 16.2796C81.9169 16.4506 82.1295 16.6833 82.2765 16.9567C82.4235 17.2301 82.5003 17.5358 82.5 17.8462V71.25L56.25 82.5L33.75 71.25L10.1138 81.3787C9.82843 81.501 9.5172 81.5506 9.208 81.5229C8.8988 81.4953 8.6013 81.3913 8.3422 81.2203C8.08311 81.0493 7.87052 80.8166 7.72353 80.5432C7.57653 80.2698 7.49972 79.9641 7.5 79.6537V26.25L15 23.0362ZM60.9113 42.1612L45 58.0687L29.0888 42.1612C25.9425 39.0144 23.7999 35.0053 22.9321 30.6408C22.0642 26.2763 22.51 21.7525 24.2131 17.6414C25.9162 13.5303 28.8 10.0165 32.5001 7.54432C36.2001 5.07216 40.5501 3.75266 45 3.75266C49.4499 3.75266 53.7999 5.07216 57.4999 7.54432C61.2 10.0165 64.0839 13.5303 65.7869 17.6414C67.49 21.7525 67.9358 26.2763 67.068 30.6408C66.2001 35.0053 64.0576 39.0144 60.9113 42.1612ZM45 47.4637L55.605 36.855C57.7032 34.7573 59.1323 32.0846 59.7115 29.1748C60.2906 26.2649 59.9938 23.2487 58.8586 20.5075C57.7235 17.7664 55.8009 15.4234 53.334 13.775C50.8672 12.1266 47.9669 11.2468 45 11.2468C42.0331 11.2468 39.1328 12.1266 36.666 13.775C34.1991 15.4234 32.2766 17.7664 31.1414 20.5075C30.0062 23.2487 29.7094 26.2649 30.2886 29.1748C30.8677 32.0846 32.2968 34.7573 34.395 36.855L45 47.4637Z" fill="url(#paint0_linear)"/>
<defs>
<linearGradient id="paint0_linear" x1="8.88889" y1="81.45" x2="66.9176" y2="5.78635" gradientUnits="userSpaceOnUse">
<stop stop-color="#F96D8C"/>
<stop offset="1" stop-color="#FBD862"/>
</linearGradient>
</defs>
</svg>
