<svg width="1011" height="194" viewBox="0 0 1011 194" fill="none" xmlns="http://www.w3.org/2000/svg">
<path d="M56.3636 190L67.0909 154.364L128.545 154.364L139.273 190H193.818L132.364 3.81818L63.2727 3.81818L1.81818 190H56.3636ZM78.5455 116.545L97.0909 55.0909H98.5455L117.091 116.545L78.5455 116.545ZM232.23 190L319.866 190C360.321 190 385.321 167.909 385.321 137.273C385.321 111 365.957 93.8182 342.048 92.9091V91.0909C363.594 86.8182 378.048 70.9091 378.048 50.3636C378.048 22 355.503 3.81818 312.957 3.81818L232.23 3.81818L232.23 190ZM282.775 149.636L282.775 110.364H307.139C322.503 110.364 331.866 117.636 331.866 130.727C331.866 143.182 323.412 149.636 306.412 149.636H282.775ZM282.775 79.0909V43.4545H304.23C316.775 43.4545 326.048 49.8182 326.048 61.2727C326.048 72.7273 316.775 79.0909 303.503 79.0909H282.775ZM604.074 96.9091C604.074 34.7273 564.074 1.27272 513.528 1.27272C462.619 1.27272 422.983 34.7273 422.983 96.9091C422.983 158.727 462.619 192.545 513.528 192.545C564.074 192.545 604.074 159.091 604.074 96.9091ZM552.074 96.9091C552.074 130.364 538.619 148.545 513.528 148.545C488.437 148.545 474.983 130.364 474.983 96.9091C474.983 63.4545 488.437 45.2727 513.528 45.2727C538.619 45.2727 552.074 63.4545 552.074 96.9091ZM758.122 3.81818V118.727C758.122 136.091 745.667 148.545 728.304 148.545C710.94 148.545 698.485 136.091 698.485 118.727V3.81818L647.94 3.81818V123.091C647.94 165.636 680.122 192.182 728.304 192.182C776.122 192.182 808.667 165.636 808.667 123.091V3.81818L758.122 3.81818ZM848.079 44.5455H904.079V190H953.897V44.5455H1009.9V3.81818L848.079 3.81818V44.5455Z" fill="white" fill-opacity="0.4"/>
<path d="M56.3636 190V191H57.1069L57.3212 190.288L56.3636 190ZM67.0909 154.364V153.364H66.3476L66.1334 154.075L67.0909 154.364ZM128.545 154.364L129.503 154.075L129.289 153.364H128.545V154.364ZM139.273 190L138.315 190.288L138.529 191H139.273V190ZM193.818 190V191H195.201L194.768 189.687L193.818 190ZM132.364 3.81818L133.313 3.50473L133.087 2.81818H132.364V3.81818ZM63.2727 3.81818V2.81818H62.5497L62.3231 3.50473L63.2727 3.81818ZM1.81818 190L0.868576 189.687L0.435036 191H1.81818L1.81818 190ZM78.5455 116.545L77.5881 116.257L77.1991 117.545H78.5455V116.545ZM97.0909 55.0909V54.0909H96.3481L96.1336 54.802L97.0909 55.0909ZM98.5455 55.0909L99.5028 54.802L99.2882 54.0909H98.5455V55.0909ZM117.091 116.545V117.545H118.437L118.048 116.257L117.091 116.545ZM57.3212 190.288L68.0485 154.652L66.1334 154.075L55.4061 189.712L57.3212 190.288ZM67.0909 155.364L128.545 155.364V153.364L67.0909 153.364V155.364ZM127.588 154.652L138.315 190.288L140.23 189.712L129.503 154.075L127.588 154.652ZM139.273 191H193.818V189H139.273V191ZM194.768 189.687L133.313 3.50473L131.414 4.13162L192.869 190.313L194.768 189.687ZM132.364 2.81818L63.2727 2.81818V4.81818L132.364 4.81818V2.81818ZM62.3231 3.50473L0.868576 189.687L2.76779 190.313L64.2223 4.13162L62.3231 3.50473ZM1.81818 191H56.3636V189H1.81818L1.81818 191ZM79.5028 116.834L98.0483 55.3798L96.1336 54.802L77.5881 116.257L79.5028 116.834ZM97.0909 56.0909H98.5455V54.0909H97.0909V56.0909ZM97.5881 55.3798L116.134 116.834L118.048 116.257L99.5028 54.802L97.5881 55.3798ZM117.091 115.545L78.5455 115.545V117.545L117.091 117.545V115.545ZM232.23 190H231.23V191H232.23V190ZM342.048 92.9091H341.048V93.8718L342.01 93.9084L342.048 92.9091ZM342.048 91.0909L341.854 90.11L341.048 90.2697V91.0909H342.048ZM232.23 3.81818V2.81818H231.23V3.81818H232.23ZM282.775 149.636H281.775V150.636H282.775V149.636ZM282.775 110.364V109.364H281.775V110.364H282.775ZM282.775 79.0909H281.775V80.0909H282.775V79.0909ZM282.775 43.4545V42.4545H281.775V43.4545H282.775ZM232.23 191L319.866 191V189L232.23 189V191ZM319.866 191C340.269 191 356.876 185.429 368.401 175.896C379.942 166.35 386.321 152.884 386.321 137.273H384.321C384.321 152.298 378.2 165.195 367.127 174.354C356.039 183.526 339.918 189 319.866 189V191ZM386.321 137.273C386.321 110.412 366.48 92.8373 342.086 91.9098L342.01 93.9084C365.434 94.799 384.321 111.588 384.321 137.273H386.321ZM343.048 92.9091V91.0909H341.048V92.9091H343.048ZM342.243 92.0718C364.187 87.7201 379.048 71.4541 379.048 50.3636H377.048C377.048 70.3641 363.001 85.9163 341.854 90.11L342.243 92.0718ZM379.048 50.3636C379.048 35.8846 373.277 23.9412 362.051 15.6502C350.864 7.38757 334.354 2.81818 312.957 2.81818V4.81818C334.106 4.81818 350.141 9.33969 360.863 17.2589C371.547 25.1497 377.048 36.479 377.048 50.3636H379.048ZM312.957 2.81818L232.23 2.81818V4.81818L312.957 4.81818V2.81818ZM231.23 3.81818L231.23 190H233.23L233.23 3.81818H231.23ZM283.775 149.636L283.775 110.364H281.775L281.775 149.636H283.775ZM282.775 111.364H307.139V109.364H282.775V111.364ZM307.139 111.364C314.678 111.364 320.608 113.15 324.634 116.413C328.631 119.653 330.866 124.441 330.866 130.727H332.866C332.866 123.922 330.42 118.529 325.894 114.86C321.397 111.214 314.964 109.364 307.139 109.364V111.364ZM330.866 130.727C330.866 136.705 328.853 141.106 324.915 144.051C320.924 147.037 314.813 148.636 306.412 148.636V150.636C315.011 150.636 321.627 149.009 326.113 145.653C330.652 142.258 332.866 137.204 332.866 130.727H330.866ZM306.412 148.636H282.775V150.636H306.412V148.636ZM283.775 79.0909V43.4545H281.775V79.0909H283.775ZM282.775 44.4545H304.23V42.4545H282.775V44.4545ZM304.23 44.4545C310.347 44.4545 315.565 46.007 319.23 48.8575C322.866 51.6861 325.048 55.8462 325.048 61.2727H327.048C327.048 55.2447 324.594 50.4957 320.458 47.2788C316.35 44.0839 310.659 42.4545 304.23 42.4545V44.4545ZM325.048 61.2727C325.048 66.6974 322.868 70.8534 319.148 73.6811C315.395 76.5331 309.994 78.0909 303.503 78.0909V80.0909C310.284 80.0909 316.156 78.4668 320.358 75.2734C324.592 72.0557 327.048 67.3026 327.048 61.2727H325.048ZM303.503 78.0909H282.775V80.0909H303.503V78.0909ZM605.074 96.9091C605.074 65.5967 594.997 41.4157 578.459 25.0617C561.925 8.71258 539.022 0.27272 513.528 0.27272V2.27272C538.58 2.27272 560.949 10.5601 577.052 26.4838C593.15 42.4024 603.074 66.0396 603.074 96.9091H605.074ZM513.528 0.27272C487.854 0.27272 464.949 8.71176 448.46 25.0626C431.967 41.418 421.983 65.5993 421.983 96.9091H423.983C423.983 66.037 433.817 42.4002 449.869 26.4828C465.925 10.561 488.293 2.27272 513.528 2.27272V0.27272ZM421.983 96.9091C421.983 128.038 431.968 152.219 448.459 168.618C464.947 185.014 487.851 193.545 513.528 193.545V191.545C488.296 191.545 465.928 183.168 449.87 167.2C433.816 151.236 423.983 127.598 423.983 96.9091H421.983ZM513.528 193.545C539.022 193.545 561.925 185.106 578.459 168.757C594.997 152.402 605.074 128.221 605.074 96.9091H603.074C603.074 127.779 593.15 151.416 577.052 167.334C560.949 183.258 538.58 191.545 513.528 191.545V193.545ZM551.074 96.9091C551.074 113.526 547.729 126.189 541.408 134.675C535.123 143.114 525.804 147.545 513.528 147.545V149.545C526.343 149.545 536.297 144.886 543.012 135.87C549.691 126.902 553.074 113.747 553.074 96.9091H551.074ZM513.528 147.545C501.252 147.545 491.934 143.114 485.648 134.675C479.328 126.189 475.983 113.526 475.983 96.9091H473.983C473.983 113.747 477.365 126.902 484.044 135.87C490.759 144.886 500.713 149.545 513.528 149.545V147.545ZM475.983 96.9091C475.983 80.2925 479.328 67.6291 485.648 59.1428C491.934 50.7038 501.252 46.2727 513.528 46.2727V44.2727C500.713 44.2727 490.759 48.9326 484.044 57.9481C477.365 66.9164 473.983 80.0712 473.983 96.9091H475.983ZM513.528 46.2727C525.804 46.2727 535.123 50.7038 541.408 59.1428C547.729 67.6291 551.074 80.2925 551.074 96.9091H553.074C553.074 80.0712 549.691 66.9164 543.012 57.9481C536.297 48.9326 526.343 44.2727 513.528 44.2727V46.2727ZM758.122 3.81818V2.81818H757.122V3.81818H758.122ZM698.485 3.81818H699.485V2.81818H698.485V3.81818ZM647.94 3.81818V2.81818H646.94V3.81818H647.94ZM808.667 3.81818H809.667V2.81818H808.667V3.81818ZM757.122 3.81818V118.727H759.122V3.81818H757.122ZM757.122 118.727C757.122 135.539 745.115 147.545 728.304 147.545V149.545C746.22 149.545 759.122 136.643 759.122 118.727H757.122ZM728.304 147.545C711.492 147.545 699.485 135.539 699.485 118.727H697.485C697.485 136.643 710.388 149.545 728.304 149.545V147.545ZM699.485 118.727V3.81818H697.485V118.727H699.485ZM698.485 2.81818L647.94 2.81818V4.81818L698.485 4.81818V2.81818ZM646.94 3.81818V123.091H648.94V3.81818H646.94ZM646.94 123.091C646.94 144.635 655.098 162.195 669.406 174.353C683.697 186.496 704.036 193.182 728.304 193.182V191.182C704.389 191.182 684.547 184.594 670.701 172.829C656.873 161.078 648.94 144.092 648.94 123.091H646.94ZM728.304 193.182C752.391 193.182 772.729 186.496 787.064 174.354C801.415 162.198 809.667 144.639 809.667 123.091H807.667C807.667 144.088 799.646 161.075 785.771 172.828C771.878 184.595 752.035 191.182 728.304 191.182V193.182ZM809.667 123.091V3.81818H807.667V123.091H809.667ZM808.667 2.81818L758.122 2.81818V4.81818L808.667 4.81818V2.81818ZM848.079 44.5455H847.079V45.5455H848.079V44.5455ZM904.079 44.5455H905.079V43.5455H904.079V44.5455ZM904.079 190H903.079V191H904.079V190ZM953.897 190V191H954.897V190H953.897ZM953.897 44.5455V43.5455H952.897V44.5455H953.897ZM1009.9 44.5455V45.5455H1010.9V44.5455H1009.9ZM1009.9 3.81818H1010.9V2.81818H1009.9V3.81818ZM848.079 3.81818V2.81818H847.079V3.81818H848.079ZM848.079 45.5455H904.079V43.5455H848.079V45.5455ZM903.079 44.5455V190H905.079V44.5455H903.079ZM904.079 191H953.897V189H904.079V191ZM954.897 190V44.5455H952.897V190H954.897ZM953.897 45.5455H1009.9V43.5455H953.897V45.5455ZM1010.9 44.5455V3.81818H1008.9V44.5455H1010.9ZM1009.9 2.81818L848.079 2.81818V4.81818L1009.9 4.81818V2.81818ZM847.079 3.81818V44.5455H849.079V3.81818H847.079Z" fill="url(#paint0_linear)"/>
<defs>
<linearGradient id="paint0_linear" x1="-4" y1="-33" x2="1017" y2="-33" gradientUnits="userSpaceOnUse">
<stop stop-color="#F96D8C"/>
<stop offset="1" stop-color="#FBD862"/>
</linearGradient>
</defs>
</svg>
