<svg width="20" height="20" viewBox="0 0 20 20" fill="none" xmlns="http://www.w3.org/2000/svg">
<path d="M2.5 4.1625C2.5 3.24417 3.24417 2.5 4.1625 2.5H15.8375C16.7558 2.5 17.5 3.24417 17.5 4.1625V15.8375C17.5 16.2784 17.3248 16.7013 17.0131 17.0131C16.7013 17.3248 16.2784 17.5 15.8375 17.5H4.1625C3.72158 17.5 3.29871 17.3248 2.98693 17.0131C2.67516 16.7013 2.5 16.2784 2.5 15.8375V4.1625ZM5.2975 15H14.8725C14.3355 14.2278 13.6196 13.5971 12.7859 13.1618C11.9522 12.7264 11.0255 12.4994 10.085 12.5C9.14448 12.4994 8.21779 12.7264 7.38409 13.1618C6.5504 13.5971 5.83448 14.2278 5.2975 15ZM10 10.8333C10.383 10.8333 10.7623 10.7579 11.1162 10.6113C11.47 10.4647 11.7916 10.2499 12.0624 9.97906C12.3332 9.70822 12.5481 9.38669 12.6946 9.03283C12.8412 8.67896 12.9167 8.29969 12.9167 7.91667C12.9167 7.53364 12.8412 7.15437 12.6946 6.80051C12.5481 6.44664 12.3332 6.12511 12.0624 5.85427C11.7916 5.58343 11.47 5.36859 11.1162 5.22202C10.7623 5.07544 10.383 5 10 5C9.22645 5 8.48459 5.30729 7.93761 5.85427C7.39062 6.40125 7.08333 7.14312 7.08333 7.91667C7.08333 8.69021 7.39062 9.43208 7.93761 9.97906C8.48459 10.526 9.22645 10.8333 10 10.8333Z" fill="url(#paint0_linear)"/>
<defs>
<linearGradient id="paint0_linear" x1="2.5" y1="2.5" x2="18" y2="20" gradientUnits="userSpaceOnUse">
<stop stop-color="#F96D8C"/>
<stop offset="1" stop-color="#FBD862"/>
</linearGradient>
</defs>
</svg>
