<svg width="24" height="24" viewBox="0 0 24 24" fill="none" xmlns="http://www.w3.org/2000/svg">
<path d="M6.5 1.99994H17.5C17.6552 1.99994 17.8084 2.03608 17.9472 2.10551C18.0861 2.17494 18.2069 2.27574 18.3 2.39994L21 5.99994V20.9999C21 21.2652 20.8946 21.5195 20.7071 21.707C20.5196 21.8946 20.2652 21.9999 20 21.9999H4C3.73478 21.9999 3.48043 21.8946 3.29289 21.707C3.10536 21.5195 3 21.2652 3 20.9999V5.99994L5.7 2.39994C5.79315 2.27574 5.91393 2.17494 6.05279 2.10551C6.19164 2.03608 6.34475 1.99994 6.5 1.99994ZM18.5 5.99994L17 3.99994H7L5.5 5.99994H18.5ZM9 9.99994H7V11.9999C7 13.326 7.52678 14.5978 8.46447 15.5355C9.40215 16.4732 10.6739 16.9999 12 16.9999C13.3261 16.9999 14.5979 16.4732 15.5355 15.5355C16.4732 14.5978 17 13.326 17 11.9999V9.99994H15V11.9999C15 12.7956 14.6839 13.5587 14.1213 14.1213C13.5587 14.6839 12.7956 14.9999 12 14.9999C11.2044 14.9999 10.4413 14.6839 9.87868 14.1213C9.31607 13.5587 9 12.7956 9 11.9999V9.99994Z" fill="#62514B"/>
</svg>
