<svg width="102" height="102" viewBox="0 0 102 102" fill="none" xmlns="http://www.w3.org/2000/svg">
<path d="M13.2294 22.4323L15.5301 27.0338L20.6429 27.8007L16.9362 31.4435L17.8309 36.4924L13.2294 34.1277L8.69179 36.4924L9.52262 31.4435L5.87976 27.8007L10.9925 27.0338L13.2294 22.4323Z" fill="#F9738B"/>
<path d="M29.3346 6.32715L31.6353 10.9287L36.7481 11.6956L33.0413 15.2745L33.9361 20.3873L29.3346 18.0226L24.797 20.3873L25.6278 15.2745L21.9849 11.6956L27.0977 10.9287L29.3346 6.32715Z" fill="#F9738B"/>
<path d="M50.8722 0L53.173 4.66541L58.2857 5.36842L54.579 9.01128L55.4737 14.0602L50.8722 11.6955L46.3346 14.0602L47.1654 9.01128L43.4587 5.36842L48.5715 4.66541L50.8722 0Z" fill="#F9738B"/>
<path d="M73.1768 6.45496L75.4775 11.1204L80.5903 11.8234L76.8835 15.4662L77.7144 20.579L73.1768 18.1504L68.5753 20.579L69.47 15.4662L65.7632 11.8234L70.876 11.1204L73.1768 6.45496Z" fill="#F9738B"/>
<path d="M88.5151 21.8572L90.8159 26.4587L95.9286 27.2256L92.2219 30.8045L93.1166 35.9173L88.5151 33.4888L83.9136 35.9173L84.8083 30.8045L81.1016 27.2256L86.2143 26.4587L88.5151 21.8572Z" fill="#F9738B"/>
<path d="M94.0752 44.0978L96.3759 48.7632L101.489 49.4662L97.7819 53.1091L98.6767 58.1579L94.0752 55.7933L89.5376 58.1579L90.3684 53.1091L86.6616 49.4662L91.7744 48.7632L94.0752 44.0978Z" fill="#F9738B"/>
<path d="M88.6428 66.2106L90.9435 70.876L96.0563 71.579L92.3495 75.2219L93.2443 80.3346L88.6428 77.9061L84.1052 80.3346L84.936 75.2219L81.2932 71.579L86.4059 70.876L88.6428 66.2106Z" fill="#F9738B"/>
<path d="M72.3459 81.6128L74.6467 86.2143L79.7594 86.9812L76.0527 90.5602L76.9474 95.6729L72.3459 93.2444L67.8083 95.6729L68.6391 90.5602L64.9324 86.9812L70.0452 86.2143L72.3459 81.6128Z" fill="#F9738B"/>
<path d="M50.4248 87.9398L52.7256 92.5413L57.8384 93.3082L54.1316 96.8872L55.0263 102L50.4248 99.5714L45.8872 102L46.782 96.8872L43.0752 93.3082L48.188 92.5413L50.4248 87.9398Z" fill="#F9738B"/>
<path d="M29.5263 81.6128L31.8271 86.2143L36.9399 86.9812L33.2331 90.5602L34.1278 95.6729L29.5263 93.2444L24.9248 95.6729L25.8196 90.5602L22.1128 86.9812L27.2256 86.2143L29.5263 81.6128Z" fill="#F9738B"/>
<path d="M12.9737 65.8271L15.2745 70.4926L20.3873 71.1956L16.6805 74.8384L17.5113 79.8873L12.9737 77.5226L8.37221 79.8873L9.26695 74.8384L5.56018 71.1956L10.673 70.4926L12.9737 65.8271Z" fill="#F9738B"/>
<path d="M7.41354 44.1616L9.71429 48.7631L14.8271 49.53L11.1203 53.109L11.9511 58.2218L7.41354 55.7932L2.81203 58.2218L3.70677 53.109L0 49.53L5.11278 48.7631L7.41354 44.1616Z" fill="#F9738B"/>
<path d="M66.6579 60.0113H62.1843V35.6617C62.1843 29.9098 57.5188 25.2444 51.767 25.2444C46.0151 25.2444 41.3497 29.9098 41.3497 35.6617V60.0113H36.876V35.6617C36.9399 27.4812 43.5865 20.8346 51.767 20.8346C59.9474 20.8346 66.6579 27.4812 66.6579 35.7256V60.0113Z" fill="#263238"/>
<path d="M68.1279 74.9022H35.47C33.4248 74.9022 31.7632 73.2405 31.7632 71.1954V52.9172C31.7632 50.8721 33.4248 49.2104 35.47 49.2104H68.1279C70.173 49.2104 71.8346 50.8721 71.8346 52.9172V71.1954C71.8346 73.2405 70.173 74.9022 68.1279 74.9022Z" fill="#F9738B"/>
<path d="M55.1542 58.6693C55.1542 60.5226 53.6843 61.9926 51.8309 61.9926C49.9776 61.9926 48.5076 60.5226 48.5076 58.6693C48.5076 56.8159 49.9776 55.3459 51.8309 55.3459C53.6204 55.3459 55.1542 56.8159 55.1542 58.6693Z" fill="#263238"/>
<path d="M52.7256 60.0112H50.8722V66.9135H52.7256V60.0112Z" fill="#263238"/>
<path d="M33.8722 72.4737C33.8083 72.4737 33.6805 68.1918 33.6805 62.8872C33.6805 57.5827 33.7444 53.3008 33.8722 53.3008C33.9361 53.3008 34.0639 57.5827 34.0639 62.8872C34.0639 68.1918 34 72.4737 33.8722 72.4737Z" fill="#FAFAFA"/>
<path d="M49.1466 63.0151C49.1466 63.0151 49.0188 62.9512 48.7632 62.8234C48.5076 62.6316 48.188 62.376 47.8685 61.9286C47.2294 61.0978 46.6542 59.6279 47.0376 58.0301C47.4211 56.4324 48.6354 55.3459 49.5301 54.8986C49.9775 54.6429 50.4248 54.5151 50.6805 54.5151C50.9361 54.4512 51.1279 54.4512 51.1279 54.5151C51.1279 54.579 50.4888 54.6429 49.594 55.1542C48.7632 55.6655 47.6767 56.688 47.2933 58.158C46.9737 59.6279 47.4211 61.0339 47.9963 61.8647C48.6354 62.5677 49.2106 62.9512 49.1466 63.0151Z" fill="#FAFAFA"/>
</svg>
