<svg width="317" height="407" fill="none" xmlns="http://www.w3.org/2000/svg"><path fill="#C4C4C4" fill-opacity=".3" d="M15 0h2v2h-2zM30 0h2v2h-2zM45 0h2v2h-2zM60 0h2v2h-2zM75 0h2v2h-2zM90 0h2v2h-2zM105 0h2v2h-2zM120 0h2v2h-2zM135 0h2v2h-2zM150 0h2v2h-2zM165 0h2v2h-2zM180 0h2v2h-2zM195 0h2v2h-2zM210 0h2v2h-2zM225 0h2v2h-2zM240 0h2v2h-2zM255 0h2v2h-2zM270 0h2v2h-2zM285 0h2v2h-2zM300 0h2v2h-2zM0 15h2v2H0zM15 15h2v2h-2zM30 15h2v2h-2zM45 15h2v2h-2zM60 15h2v2h-2zM75 15h2v2h-2zM90 15h2v2h-2zM105 15h2v2h-2zM120 15h2v2h-2zM135 15h2v2h-2zM150 15h2v2h-2zM165 15h2v2h-2zM180 15h2v2h-2zM195 15h2v2h-2zM210 15h2v2h-2zM225 15h2v2h-2zM240 15h2v2h-2zM255 15h2v2h-2zM270 15h2v2h-2zM285 15h2v2h-2zM300 15h2v2h-2zM315 15h2v2h-2zM0 30h2v2H0zM15 30h2v2h-2zM30 30h2v2h-2zM45 30h2v2h-2zM60 30h2v2h-2zM75 30h2v2h-2zM90 30h2v2h-2zM105 30h2v2h-2zM120 30h2v2h-2zM135 30h2v2h-2zM150 30h2v2h-2zM165 30h2v2h-2zM180 30h2v2h-2zM195 30h2v2h-2zM210 30h2v2h-2zM225 30h2v2h-2zM240 30h2v2h-2zM255 30h2v2h-2zM270 30h2v2h-2zM285 30h2v2h-2zM300 30h2v2h-2zM315 30h2v2h-2zM0 45h2v2H0zM15 45h2v2h-2zM30 45h2v2h-2zM45 45h2v2h-2zM60 45h2v2h-2zM75 45h2v2h-2zM90 45h2v2h-2zM105 45h2v2h-2zM120 45h2v2h-2zM135 45h2v2h-2zM150 45h2v2h-2zM165 45h2v2h-2zM180 45h2v2h-2zM195 45h2v2h-2zM210 45h2v2h-2zM225 45h2v2h-2zM240 45h2v2h-2zM255 45h2v2h-2zM270 45h2v2h-2zM285 45h2v2h-2zM300 45h2v2h-2zM315 45h2v2h-2zM0 60h2v2H0zM15 60h2v2h-2zM30 60h2v2h-2zM45 60h2v2h-2zM60 60h2v2h-2zM75 60h2v2h-2zM90 60h2v2h-2zM105 60h2v2h-2zM120 60h2v2h-2zM135 60h2v2h-2zM150 60h2v2h-2zM165 60h2v2h-2zM180 60h2v2h-2zM195 60h2v2h-2zM210 60h2v2h-2zM225 60h2v2h-2zM240 60h2v2h-2zM255 60h2v2h-2zM270 60h2v2h-2zM285 60h2v2h-2zM300 60h2v2h-2zM315 60h2v2h-2zM0 75h2v2H0zM15 75h2v2h-2zM30 75h2v2h-2zM45 75h2v2h-2zM60 75h2v2h-2zM75 75h2v2h-2zM90 75h2v2h-2zM105 75h2v2h-2zM120 75h2v2h-2zM135 75h2v2h-2zM150 75h2v2h-2zM165 75h2v2h-2zM180 75h2v2h-2zM195 75h2v2h-2zM210 75h2v2h-2zM225 75h2v2h-2zM240 75h2v2h-2zM255 75h2v2h-2zM270 75h2v2h-2zM285 75h2v2h-2zM300 75h2v2h-2zM315 75h2v2h-2zM0 90h2v2H0zM15 90h2v2h-2zM30 90h2v2h-2zM45 90h2v2h-2zM60 90h2v2h-2zM75 90h2v2h-2zM90 90h2v2h-2zM105 90h2v2h-2zM120 90h2v2h-2zM135 90h2v2h-2zM150 90h2v2h-2zM165 90h2v2h-2zM180 90h2v2h-2zM195 90h2v2h-2zM210 90h2v2h-2zM225 90h2v2h-2zM240 90h2v2h-2zM255 90h2v2h-2zM270 90h2v2h-2zM285 90h2v2h-2zM300 90h2v2h-2zM315 90h2v2h-2zM0 105h2v2H0zM15 105h2v2h-2zM30 105h2v2h-2zM45 105h2v2h-2zM60 105h2v2h-2zM75 105h2v2h-2zM90 105h2v2h-2zM105 105h2v2h-2zM120 105h2v2h-2zM135 105h2v2h-2zM150 105h2v2h-2zM165 105h2v2h-2zM180 105h2v2h-2zM195 105h2v2h-2zM210 105h2v2h-2zM225 105h2v2h-2zM240 105h2v2h-2zM255 105h2v2h-2zM270 105h2v2h-2zM285 105h2v2h-2zM300 105h2v2h-2zM315 105h2v2h-2zM0 120h2v2H0zM15 120h2v2h-2zM30 120h2v2h-2zM45 120h2v2h-2zM60 120h2v2h-2zM75 120h2v2h-2zM90 120h2v2h-2zM105 120h2v2h-2zM120 120h2v2h-2zM135 120h2v2h-2zM150 120h2v2h-2zM165 120h2v2h-2zM180 120h2v2h-2zM195 120h2v2h-2zM210 120h2v2h-2zM225 120h2v2h-2zM240 120h2v2h-2zM255 120h2v2h-2zM270 120h2v2h-2zM285 120h2v2h-2zM300 120h2v2h-2zM315 120h2v2h-2zM0 135h2v2H0zM15 135h2v2h-2zM30 135h2v2h-2zM45 135h2v2h-2zM60 135h2v2h-2zM75 135h2v2h-2zM90 135h2v2h-2zM105 135h2v2h-2zM120 135h2v2h-2zM135 135h2v2h-2zM150 135h2v2h-2zM165 135h2v2h-2zM180 135h2v2h-2zM195 135h2v2h-2zM210 135h2v2h-2zM225 135h2v2h-2zM240 135h2v2h-2zM255 135h2v2h-2zM270 135h2v2h-2zM285 135h2v2h-2zM300 135h2v2h-2zM315 135h2v2h-2zM0 150h2v2H0zM15 150h2v2h-2zM30 150h2v2h-2zM45 150h2v2h-2zM60 150h2v2h-2zM75 150h2v2h-2zM90 150h2v2h-2zM105 150h2v2h-2zM120 150h2v2h-2zM135 150h2v2h-2zM150 150h2v2h-2zM165 150h2v2h-2zM180 150h2v2h-2zM195 150h2v2h-2zM210 150h2v2h-2zM225 150h2v2h-2zM240 150h2v2h-2zM255 150h2v2h-2zM270 150h2v2h-2zM285 150h2v2h-2zM300 150h2v2h-2zM315 150h2v2h-2zM0 165h2v2H0zM15 165h2v2h-2zM30 165h2v2h-2zM45 165h2v2h-2zM60 165h2v2h-2zM75 165h2v2h-2zM90 165h2v2h-2zM105 165h2v2h-2zM120 165h2v2h-2zM135 165h2v2h-2zM150 165h2v2h-2zM165 165h2v2h-2zM180 165h2v2h-2zM195 165h2v2h-2zM210 165h2v2h-2zM225 165h2v2h-2zM240 165h2v2h-2zM255 165h2v2h-2zM270 165h2v2h-2zM285 165h2v2h-2zM300 165h2v2h-2zM315 165h2v2h-2zM0 180h2v2H0zM15 180h2v2h-2zM30 180h2v2h-2zM45 180h2v2h-2zM60 180h2v2h-2zM75 180h2v2h-2zM90 180h2v2h-2zM105 180h2v2h-2zM120 180h2v2h-2zM135 180h2v2h-2zM150 180h2v2h-2zM165 180h2v2h-2zM180 180h2v2h-2zM195 180h2v2h-2zM210 180h2v2h-2zM225 180h2v2h-2zM240 180h2v2h-2zM255 180h2v2h-2zM270 180h2v2h-2zM285 180h2v2h-2zM300 180h2v2h-2zM315 180h2v2h-2zM0 195h2v2H0zM15 195h2v2h-2zM30 195h2v2h-2zM45 195h2v2h-2zM60 195h2v2h-2zM75 195h2v2h-2zM90 195h2v2h-2zM105 195h2v2h-2zM120 195h2v2h-2zM135 195h2v2h-2zM150 195h2v2h-2zM165 195h2v2h-2zM180 195h2v2h-2zM195 195h2v2h-2zM210 195h2v2h-2zM225 195h2v2h-2zM240 195h2v2h-2zM255 195h2v2h-2zM270 195h2v2h-2zM285 195h2v2h-2zM300 195h2v2h-2zM315 195h2v2h-2zM0 210h2v2H0zM15 210h2v2h-2zM30 210h2v2h-2zM45 210h2v2h-2zM60 210h2v2h-2zM75 210h2v2h-2zM90 210h2v2h-2zM105 210h2v2h-2zM120 210h2v2h-2zM135 210h2v2h-2zM150 210h2v2h-2zM165 210h2v2h-2zM180 210h2v2h-2zM195 210h2v2h-2zM210 210h2v2h-2zM225 210h2v2h-2zM240 210h2v2h-2zM255 210h2v2h-2zM270 210h2v2h-2zM285 210h2v2h-2zM300 210h2v2h-2zM315 210h2v2h-2zM0 225h2v2H0zM15 225h2v2h-2zM30 225h2v2h-2zM45 225h2v2h-2zM60 225h2v2h-2zM75 225h2v2h-2zM90 225h2v2h-2zM105 225h2v2h-2zM120 225h2v2h-2zM135 225h2v2h-2zM150 225h2v2h-2zM165 225h2v2h-2zM180 225h2v2h-2zM195 225h2v2h-2zM210 225h2v2h-2zM225 225h2v2h-2zM240 225h2v2h-2zM255 225h2v2h-2zM270 225h2v2h-2zM285 225h2v2h-2zM300 225h2v2h-2zM315 225h2v2h-2zM0 240h2v2H0zM15 240h2v2h-2zM30 240h2v2h-2zM45 240h2v2h-2zM60 240h2v2h-2zM75 240h2v2h-2zM90 240h2v2h-2zM105 240h2v2h-2zM120 240h2v2h-2zM135 240h2v2h-2zM150 240h2v2h-2zM165 240h2v2h-2zM180 240h2v2h-2zM195 240h2v2h-2zM210 240h2v2h-2zM225 240h2v2h-2zM240 240h2v2h-2zM255 240h2v2h-2zM270 240h2v2h-2zM285 240h2v2h-2zM300 240h2v2h-2zM315 240h2v2h-2zM0 255h2v2H0zM15 255h2v2h-2zM30 255h2v2h-2zM45 255h2v2h-2zM60 255h2v2h-2zM75 255h2v2h-2zM90 255h2v2h-2zM105 255h2v2h-2zM120 255h2v2h-2zM135 255h2v2h-2zM150 255h2v2h-2zM165 255h2v2h-2zM180 255h2v2h-2zM195 255h2v2h-2zM210 255h2v2h-2zM225 255h2v2h-2zM240 255h2v2h-2zM255 255h2v2h-2zM270 255h2v2h-2zM285 255h2v2h-2zM300 255h2v2h-2zM315 255h2v2h-2zM0 270h2v2H0zM15 270h2v2h-2zM30 270h2v2h-2zM45 270h2v2h-2zM60 270h2v2h-2zM75 270h2v2h-2zM90 270h2v2h-2zM105 270h2v2h-2zM120 270h2v2h-2zM135 270h2v2h-2zM150 270h2v2h-2zM165 270h2v2h-2zM180 270h2v2h-2zM195 270h2v2h-2zM210 270h2v2h-2zM225 270h2v2h-2zM240 270h2v2h-2zM255 270h2v2h-2zM270 270h2v2h-2zM285 270h2v2h-2zM300 270h2v2h-2zM315 270h2v2h-2zM0 285h2v2H0zM15 285h2v2h-2zM30 285h2v2h-2zM45 285h2v2h-2zM60 285h2v2h-2zM75 285h2v2h-2zM90 285h2v2h-2zM105 285h2v2h-2zM120 285h2v2h-2zM135 285h2v2h-2zM150 285h2v2h-2zM165 285h2v2h-2zM180 285h2v2h-2zM195 285h2v2h-2zM210 285h2v2h-2zM225 285h2v2h-2zM240 285h2v2h-2zM255 285h2v2h-2zM270 285h2v2h-2zM285 285h2v2h-2zM300 285h2v2h-2zM315 285h2v2h-2zM0 300h2v2H0zM15 300h2v2h-2zM30 300h2v2h-2zM45 300h2v2h-2zM60 300h2v2h-2zM75 300h2v2h-2zM90 300h2v2h-2zM105 300h2v2h-2zM120 300h2v2h-2zM135 300h2v2h-2zM150 300h2v2h-2zM165 300h2v2h-2zM180 300h2v2h-2zM195 300h2v2h-2zM210 300h2v2h-2zM225 300h2v2h-2zM240 300h2v2h-2zM255 300h2v2h-2zM270 300h2v2h-2zM285 300h2v2h-2zM300 300h2v2h-2zM315 300h2v2h-2zM0 315h2v2H0zM15 315h2v2h-2zM30 315h2v2h-2zM45 315h2v2h-2zM60 315h2v2h-2zM75 315h2v2h-2zM90 315h2v2h-2zM105 315h2v2h-2zM120 315h2v2h-2zM135 315h2v2h-2zM150 315h2v2h-2zM165 315h2v2h-2zM180 315h2v2h-2zM195 315h2v2h-2zM210 315h2v2h-2zM225 315h2v2h-2zM240 315h2v2h-2zM255 315h2v2h-2zM270 315h2v2h-2zM285 315h2v2h-2zM300 315h2v2h-2zM315 315h2v2h-2zM0 330h2v2H0zM15 330h2v2h-2zM30 330h2v2h-2zM45 330h2v2h-2zM60 330h2v2h-2zM75 330h2v2h-2zM90 330h2v2h-2zM105 330h2v2h-2zM120 330h2v2h-2zM135 330h2v2h-2zM150 330h2v2h-2zM165 330h2v2h-2zM180 330h2v2h-2zM195 330h2v2h-2zM210 330h2v2h-2zM225 330h2v2h-2zM240 330h2v2h-2zM255 330h2v2h-2zM270 330h2v2h-2zM285 330h2v2h-2zM300 330h2v2h-2zM315 330h2v2h-2zM0 345h2v2H0zM15 345h2v2h-2zM30 345h2v2h-2zM45 345h2v2h-2zM60 345h2v2h-2zM75 345h2v2h-2zM90 345h2v2h-2zM105 345h2v2h-2zM120 345h2v2h-2zM135 345h2v2h-2zM150 345h2v2h-2zM165 345h2v2h-2zM180 345h2v2h-2zM195 345h2v2h-2zM210 345h2v2h-2zM225 345h2v2h-2zM240 345h2v2h-2zM255 345h2v2h-2zM270 345h2v2h-2zM285 345h2v2h-2zM300 345h2v2h-2zM315 345h2v2h-2zM0 360h2v2H0zM15 360h2v2h-2zM30 360h2v2h-2zM45 360h2v2h-2zM60 360h2v2h-2zM75 360h2v2h-2zM90 360h2v2h-2zM105 360h2v2h-2zM120 360h2v2h-2zM135 360h2v2h-2zM150 360h2v2h-2zM165 360h2v2h-2zM180 360h2v2h-2zM195 360h2v2h-2zM210 360h2v2h-2zM225 360h2v2h-2zM240 360h2v2h-2zM255 360h2v2h-2zM270 360h2v2h-2zM285 360h2v2h-2zM300 360h2v2h-2zM315 360h2v2h-2zM0 375h2v2H0zM15 375h2v2h-2zM30 375h2v2h-2zM45 375h2v2h-2zM60 375h2v2h-2zM75 375h2v2h-2zM90 375h2v2h-2zM105 375h2v2h-2zM120 375h2v2h-2zM135 375h2v2h-2zM150 375h2v2h-2zM165 375h2v2h-2zM180 375h2v2h-2zM195 375h2v2h-2zM210 375h2v2h-2zM225 375h2v2h-2zM240 375h2v2h-2zM255 375h2v2h-2zM270 375h2v2h-2zM285 375h2v2h-2zM300 375h2v2h-2zM315 375h2v2h-2zM0 390h2v2H0zM15 390h2v2h-2zM30 390h2v2h-2zM45 390h2v2h-2zM60 390h2v2h-2zM75 390h2v2h-2zM90 390h2v2h-2zM105 390h2v2h-2zM120 390h2v2h-2zM135 390h2v2h-2zM150 390h2v2h-2zM165 390h2v2h-2zM180 390h2v2h-2zM195 390h2v2h-2zM210 390h2v2h-2zM225 390h2v2h-2zM240 390h2v2h-2zM255 390h2v2h-2zM270 390h2v2h-2zM285 390h2v2h-2zM300 390h2v2h-2zM315 390h2v2h-2zM15 405h2v2h-2zM30 405h2v2h-2zM45 405h2v2h-2zM60 405h2v2h-2zM75 405h2v2h-2zM90 405h2v2h-2zM105 405h2v2h-2zM120 405h2v2h-2zM135 405h2v2h-2zM150 405h2v2h-2zM165 405h2v2h-2zM180 405h2v2h-2zM195 405h2v2h-2zM210 405h2v2h-2zM225 405h2v2h-2zM240 405h2v2h-2zM255 405h2v2h-2zM270 405h2v2h-2zM285 405h2v2h-2zM300 405h2v2h-2z"/></svg>