<svg width="1029" height="130" viewBox="0 0 1029 130" fill="none" xmlns="http://www.w3.org/2000/svg">
<path d="M1 2.20342H0.5V2.70342L0.5 127.297L0.5 127.797H1H34.661H35.161V127.297L35.161 55.2795H35.3107L63.4017 126.507L63.5265 126.823H63.8668H84.1624H84.5018L84.6271 126.508L112.718 55.7662H112.868V127.297V127.797H113.368L147.029 127.797H147.529V127.297L147.529 2.70342V2.20342H147.029L104.21 2.20342H103.877L103.749 2.51084L74.424 72.7738H73.6052L44.2802 2.51084L44.1519 2.20342H43.8187L1 2.20342ZM162.834 127.297V127.797H163.334L254.416 127.797H254.916V127.297V100.042V99.5418H254.416L198.237 99.5418L198.237 79.1274L249.961 79.1274H250.461V78.6274V51.3726V50.8726H249.961L198.237 50.8726V30.4582L254.664 30.4582L255.164 30.4582V29.9582V2.70342V2.20342H254.664L163.334 2.20342L162.834 2.20342V2.70342L162.834 127.297ZM271.226 127.297V127.797H271.726H306.13H306.63V127.297V86.6711L317.712 86.6711L339.846 127.535L339.988 127.797H340.286H377.659H378.508L378.097 127.054L352.613 81.0386C365.995 74.5055 373.952 62.3024 373.952 45.0456C373.952 31.6571 369.184 20.9286 360.827 13.5529C352.478 6.18371 340.593 2.20342 326.426 2.20342L271.726 2.20342H271.226V2.70342V127.297ZM506.425 49.9259H506.971L506.923 49.382C505.551 33.8078 499.059 21.5727 488.859 13.2364C478.666 4.9052 464.809 0.5 448.756 0.5C431.569 0.5 416.152 6.13416 405.03 17.0384C393.905 27.9455 387.122 44.082 387.122 65C387.122 85.8232 393.717 101.96 404.75 112.891C415.78 123.821 431.198 129.5 448.756 129.5C486.151 129.5 505.17 103.984 506.923 82.5617L506.967 82.0247L506.429 82.0209L471.53 81.7776L471.102 81.7746L471.033 82.1973C470.184 87.4178 467.885 91.6193 464.283 94.5193C460.678 97.4212 455.723 99.0551 449.498 99.0551C441.241 99.0551 434.777 96.1859 430.362 90.5473C425.933 84.8892 423.515 76.377 423.515 65C423.515 54.2339 425.854 45.7172 430.281 39.9037C434.693 34.1099 441.221 30.9449 449.746 30.9449C456.269 30.9449 461.338 32.8311 464.894 36.0621C468.451 39.2934 470.542 43.913 471.028 49.4694L471.068 49.9259H471.527H506.425ZM521.534 127.297V127.797H522.034H556.437H556.937V127.297V79.1274L601.478 79.1274V127.297V127.797H601.978H636.382H636.882V127.297V2.70342V2.20342H636.382L601.978 2.20342H601.478V2.70342V50.8726L556.937 50.8726V2.70342V2.20342L556.437 2.20342L522.034 2.20342H521.534V2.70342V127.297ZM652.717 2.20342H652.217V2.70342V127.297V127.797H652.717L701.476 127.797C720.883 127.797 736.797 121.924 747.862 111.107C758.929 100.288 765.091 84.5746 765.091 65C765.091 45.4253 758.929 29.7117 747.799 18.8924C736.672 8.07496 720.633 2.20342 700.981 2.20342L652.717 2.20342ZM805.429 127.797H805.799L805.907 127.443L813.1 103.949L854.19 103.949L861.383 127.443L861.491 127.797H861.861H898.987H899.682L899.461 127.137L857.632 2.54429L857.518 2.20342H857.158L810.132 2.20342H809.772L809.658 2.54429L767.829 127.137L767.608 127.797H768.303H805.429ZM306.63 59.3897V30.2148H318.258C324.241 30.2148 328.941 31.3635 332.135 33.7647C335.303 36.1463 337.063 39.8162 337.063 45.0456C337.063 50.2423 335.305 53.786 332.144 56.0538C328.95 58.3446 324.249 59.3897 318.258 59.3897H306.63ZM687.621 98.0817V31.9183L699.249 31.9183C709.103 31.9183 716.611 33.7986 721.668 38.8004C726.725 43.8025 729.44 52.0339 729.44 65C729.44 77.9657 726.725 86.2006 721.787 91.2039C716.852 96.2038 709.592 98.0817 700.239 98.0817H687.621ZM833.771 37.5152L846.086 77.6407L821.204 77.6407L833.52 37.5152H833.771ZM1028.5 65C1028.5 44.0806 1021.65 27.9437 1010.44 17.0369C999.22 6.13345 983.681 0.5 966.371 0.5C948.938 0.5 933.398 6.13305 922.213 17.0374C911.025 27.9448 904.241 44.082 904.241 65C904.241 85.7971 911.026 101.934 922.212 112.871C933.396 123.805 948.936 129.5 966.371 129.5C983.681 129.5 999.22 123.867 1010.44 112.963C1021.65 102.056 1028.5 85.9194 1028.5 65ZM992.107 65C992.107 76.1372 989.827 84.6517 985.494 90.3711C981.179 96.068 974.778 99.0551 966.371 99.0551C957.963 99.0551 951.563 96.068 947.247 90.3711C942.915 84.6517 940.635 76.1372 940.635 65C940.635 53.8629 942.915 45.3483 947.247 39.6289C951.563 33.932 957.963 30.9449 966.371 30.9449C974.778 30.9449 981.179 33.932 985.494 39.6289C989.827 45.3483 992.107 53.8629 992.107 65Z" stroke="url(#paint0_linear)"/>
<defs>
<linearGradient id="paint0_linear" x1="1" y1="1" x2="1028" y2="1" gradientUnits="userSpaceOnUse">
<stop stop-color="#F96D8C"/>
<stop offset="1" stop-color="#FBD862"/>
</linearGradient>
</defs>
</svg>
