<svg width="696" height="80" viewBox="0 0 696 80" fill="none" xmlns="http://www.w3.org/2000/svg">
<path d="M68.6705 1.90909L47.7415 1.90909V42.2614H47.1392L19.7358 1.90909L1.96875 1.90909L1.96875 79H22.8977L22.8977 38.4972H23.3494L51.2045 79H68.6705L68.6705 1.90909ZM78.5703 79H99.4993V48.8864H129.462V32.0227L99.4993 32.0227L99.4993 18.7727L132.775 18.7727V1.90909L78.5703 1.90909L78.5703 79ZM138.365 18.7727L161.552 18.7727L161.552 79H182.18L182.18 18.7727L205.368 18.7727V1.90909L138.365 1.90909V18.7727ZM234.361 1.90909L234.361 79H254.839V34.1307H255.441L272.606 78.3977H284.952L302.117 34.4318H302.719V79L323.197 79V1.90909L297.148 1.90909L279.231 45.5739H278.327L260.41 1.90909L234.361 1.90909ZM353.141 79L357.583 64.2443H383.029L387.47 79L410.056 79L384.61 1.90909L356.002 1.90909L330.556 79H353.141ZM362.325 48.5852L370.004 23.1392H370.607L378.286 48.5852H362.325ZM417.48 79H438.409V53.554H445.637L459.188 79H481.924L466.265 50.2415C474.471 46.2891 479.364 38.7983 479.364 28.108C479.364 11.696 467.883 1.90909 450.756 1.90909L417.48 1.90909V79ZM438.409 37.2926V18.6222H445.787C453.127 18.6222 457.532 21.483 457.532 28.108C457.532 34.6953 453.127 37.2926 445.787 37.2926H438.409ZM488.285 79H509.214V59.125L516.14 50.0909L533.456 79H558.45L531.799 36.2386L557.848 1.90909L533.456 1.90909L510.268 33.0767H509.214V1.90909L488.285 1.90909V79ZM564.059 79L619.468 79V62.1364H584.988V48.8864H616.757V32.0227L584.988 32.0227V18.7727L619.618 18.7727V1.90909L564.059 1.90909V79ZM627.89 18.7727L651.078 18.7727V79L671.705 79V18.7727L694.893 18.7727V1.90909L627.89 1.90909V18.7727Z" fill="white"/>
<path d="M68.6705 1.90909H69.6705V0.909088H68.6705V1.90909ZM47.7415 1.90909V0.909088H46.7415V1.90909H47.7415ZM47.7415 42.2614L47.7415 43.2614H48.7415L48.7415 42.2614H47.7415ZM47.1392 42.2614L46.3119 42.8232L46.6095 43.2614H47.1392L47.1392 42.2614ZM19.7358 1.90909L20.5631 1.34729L20.2655 0.909088H19.7358V1.90909ZM1.96875 1.90909V0.909088H0.96875V1.90909H1.96875ZM1.96875 79H0.96875L0.96875 80H1.96875V79ZM22.8977 79V80H23.8977V79H22.8977ZM22.8977 38.4972V37.4972H21.8977V38.4972H22.8977ZM23.3494 38.4972L24.1734 37.9305L23.8754 37.4972H23.3494V38.4972ZM51.2045 79L50.3806 79.5667L50.6786 80H51.2045V79ZM68.6705 79V80H69.6705V79H68.6705ZM68.6705 0.909088L47.7415 0.909088V2.90909L68.6705 2.90909V0.909088ZM46.7415 1.90909V42.2614H48.7415V1.90909H46.7415ZM47.7415 41.2614H47.1392L47.1392 43.2614H47.7415L47.7415 41.2614ZM47.9665 41.6996L20.5631 1.34729L18.9085 2.47089L46.3119 42.8232L47.9665 41.6996ZM19.7358 0.909088L1.96875 0.909088V2.90909L19.7358 2.90909V0.909088ZM0.96875 1.90909L0.96875 79H2.96875L2.96875 1.90909H0.96875ZM1.96875 80H22.8977V78H1.96875L1.96875 80ZM23.8977 79L23.8977 38.4972H21.8977L21.8977 79H23.8977ZM22.8977 39.4972H23.3494V37.4972H22.8977V39.4972ZM22.5255 39.0638L50.3806 79.5667L52.0285 78.4333L24.1734 37.9305L22.5255 39.0638ZM51.2045 80H68.6705V78H51.2045V80ZM69.6705 79L69.6705 1.90909H67.6705L67.6705 79H69.6705ZM78.5703 79H77.5703V80H78.5703V79ZM99.4993 79V80H100.499V79H99.4993ZM99.4993 48.8864V47.8864H98.4993V48.8864H99.4993ZM129.462 48.8864V49.8864L130.462 49.8864V48.8864L129.462 48.8864ZM129.462 32.0227H130.462V31.0227H129.462V32.0227ZM99.4993 32.0227H98.4993V33.0227H99.4993V32.0227ZM99.4993 18.7727V17.7727H98.4993V18.7727H99.4993ZM132.775 18.7727V19.7727H133.775V18.7727H132.775ZM132.775 1.90909H133.775V0.909088H132.775V1.90909ZM78.5703 1.90909V0.909088H77.5703V1.90909H78.5703ZM78.5703 80H99.4993V78H78.5703V80ZM100.499 79V48.8864H98.4993V79H100.499ZM99.4993 49.8864H129.462V47.8864H99.4993V49.8864ZM130.462 48.8864V32.0227H128.462V48.8864L130.462 48.8864ZM129.462 31.0227L99.4993 31.0227V33.0227L129.462 33.0227V31.0227ZM100.499 32.0227L100.499 18.7727H98.4993L98.4993 32.0227H100.499ZM99.4993 19.7727L132.775 19.7727V17.7727L99.4993 17.7727V19.7727ZM133.775 18.7727V1.90909H131.775V18.7727H133.775ZM132.775 0.909088L78.5703 0.909088V2.90909L132.775 2.90909V0.909088ZM77.5703 1.90909L77.5703 79H79.5703L79.5703 1.90909H77.5703ZM138.365 18.7727H137.365V19.7727H138.365V18.7727ZM161.552 18.7727H162.552V17.7727H161.552V18.7727ZM161.552 79H160.552V80H161.552V79ZM182.18 79V80H183.18V79H182.18ZM182.18 18.7727V17.7727H181.18V18.7727H182.18ZM205.368 18.7727V19.7727H206.368V18.7727H205.368ZM205.368 1.90909H206.368V0.909088H205.368V1.90909ZM138.365 1.90909V0.909088H137.365V1.90909H138.365ZM138.365 19.7727L161.552 19.7727V17.7727L138.365 17.7727V19.7727ZM160.552 18.7727L160.552 79H162.552L162.552 18.7727H160.552ZM161.552 80H182.18V78H161.552V80ZM183.18 79L183.18 18.7727H181.18L181.18 79H183.18ZM182.18 19.7727L205.368 19.7727V17.7727L182.18 17.7727V19.7727ZM206.368 18.7727V1.90909H204.368V18.7727H206.368ZM205.368 0.909088L138.365 0.909088V2.90909L205.368 2.90909V0.909088ZM137.365 1.90909V18.7727H139.365V1.90909H137.365ZM234.361 1.90909V0.909088H233.361V1.90909H234.361ZM234.361 79H233.361V80H234.361V79ZM254.839 79V80H255.839V79H254.839ZM254.839 34.1307V33.1307H253.839V34.1307H254.839ZM255.441 34.1307L256.373 33.7692L256.126 33.1307H255.441V34.1307ZM272.606 78.3977L271.673 78.7593L271.921 79.3977H272.606V78.3977ZM284.952 78.3977V79.3977H285.635L285.884 78.7614L284.952 78.3977ZM302.117 34.4318V33.4318H301.434L301.185 34.0681L302.117 34.4318ZM302.719 34.4318H303.719V33.4318H302.719V34.4318ZM302.719 79H301.719V80H302.719V79ZM323.197 79V80H324.197V79H323.197ZM323.197 1.90909H324.197V0.909088H323.197V1.90909ZM297.148 1.90909V0.909088H296.478L296.223 1.52946L297.148 1.90909ZM279.231 45.5739V46.5739H279.901L280.156 45.9535L279.231 45.5739ZM278.327 45.5739L277.402 45.9535L277.657 46.5739H278.327V45.5739ZM260.41 1.90909L261.335 1.52946L261.08 0.909088H260.41V1.90909ZM233.361 1.90909L233.361 79H235.361L235.361 1.90909H233.361ZM234.361 80H254.839V78H234.361V80ZM255.839 79V34.1307H253.839V79H255.839ZM254.839 35.1307H255.441V33.1307H254.839V35.1307ZM254.509 34.4922L271.673 78.7593L273.538 78.0362L256.373 33.7692L254.509 34.4922ZM272.606 79.3977H284.952V77.3977H272.606V79.3977ZM285.884 78.7614L303.049 34.7955L301.185 34.0681L284.021 78.034L285.884 78.7614ZM302.117 35.4318H302.719V33.4318H302.117V35.4318ZM301.719 34.4318V79H303.719V34.4318H301.719ZM302.719 80L323.197 80V78L302.719 78V80ZM324.197 79V1.90909H322.197V79H324.197ZM323.197 0.909088L297.148 0.909088V2.90909L323.197 2.90909V0.909088ZM296.223 1.52946L278.306 45.1942L280.156 45.9535L298.073 2.28872L296.223 1.52946ZM279.231 44.5739H278.327V46.5739H279.231V44.5739ZM279.252 45.1942L261.335 1.52946L259.484 2.28872L277.402 45.9535L279.252 45.1942ZM260.41 0.909088L234.361 0.909088V2.90909L260.41 2.90909V0.909088ZM353.141 79V80H353.884L354.098 79.2882L353.141 79ZM357.583 64.2443V63.2443H356.839L356.625 63.9561L357.583 64.2443ZM383.029 64.2443L383.986 63.9561L383.772 63.2443H383.029V64.2443ZM387.47 79L386.513 79.2882L386.727 80H387.47V79ZM410.056 79V80H411.439L411.005 78.6866L410.056 79ZM384.61 1.90909L385.559 1.59564L385.333 0.909088H384.61V1.90909ZM356.002 1.90909V0.909088H355.279L355.052 1.59564L356.002 1.90909ZM330.556 79L329.606 78.6866L329.172 80H330.556V79ZM362.325 48.5852L361.368 48.2963L360.979 49.5852H362.325V48.5852ZM370.004 23.1392V22.1392H369.262L369.047 22.8503L370.004 23.1392ZM370.607 23.1392L371.564 22.8503L371.349 22.1392H370.607V23.1392ZM378.286 48.5852V49.5852H379.632L379.243 48.2963L378.286 48.5852ZM354.098 79.2882L358.54 64.5326L356.625 63.9561L352.183 78.7118L354.098 79.2882ZM357.583 65.2443H383.029V63.2443H357.583V65.2443ZM382.071 64.5326L386.513 79.2882L388.428 78.7118L383.986 63.9561L382.071 64.5326ZM387.47 80L410.056 80V78L387.47 78V80ZM411.005 78.6866L385.559 1.59564L383.66 2.22253L409.106 79.3134L411.005 78.6866ZM384.61 0.909088L356.002 0.909088V2.90909L384.61 2.90909V0.909088ZM355.052 1.59564L329.606 78.6866L331.505 79.3134L356.951 2.22253L355.052 1.59564ZM330.556 80H353.141V78H330.556V80ZM363.283 48.8741L370.962 23.4281L369.047 22.8503L361.368 48.2963L363.283 48.8741ZM370.004 24.1392H370.607V22.1392H370.004V24.1392ZM369.649 23.4281L377.328 48.8741L379.243 48.2963L371.564 22.8503L369.649 23.4281ZM378.286 47.5852H362.325V49.5852H378.286V47.5852ZM417.48 79H416.48V80H417.48V79ZM438.409 79V80H439.409V79H438.409ZM438.409 53.554V52.554H437.409V53.554H438.409ZM445.637 53.554L446.519 53.0839L446.237 52.554H445.637V53.554ZM459.188 79L458.305 79.47L458.587 80H459.188V79ZM481.924 79V80L483.607 80L482.802 78.5218L481.924 79ZM466.265 50.2415L465.831 49.3405L464.884 49.7966L465.386 50.7197L466.265 50.2415ZM417.48 1.90909V0.909088H416.48V1.90909H417.48ZM438.409 37.2926H437.409V38.2926H438.409V37.2926ZM438.409 18.6222V17.6222H437.409V18.6222H438.409ZM417.48 80H438.409V78H417.48V80ZM439.409 79V53.554H437.409V79H439.409ZM438.409 54.554H445.637V52.554H438.409V54.554ZM444.754 54.024L458.305 79.47L460.07 78.53L446.519 53.0839L444.754 54.024ZM459.188 80H481.924V78H459.188V80ZM482.802 78.5218L467.143 49.7633L465.386 50.7197L481.045 79.4782L482.802 78.5218ZM466.699 51.1424C475.272 47.0131 480.364 39.1583 480.364 28.108H478.364C478.364 38.4383 473.669 45.565 465.831 49.3405L466.699 51.1424ZM480.364 28.108C480.364 19.6553 477.399 12.8213 472.151 8.10989C466.915 3.41009 459.505 0.909088 450.756 0.909088V2.90909C459.134 2.90909 466.028 5.30156 470.815 9.59821C475.588 13.8832 478.364 20.1486 478.364 28.108H480.364ZM450.756 0.909088L417.48 0.909088V2.90909L450.756 2.90909V0.909088ZM416.48 1.90909V79H418.48V1.90909H416.48ZM439.409 37.2926V18.6222H437.409V37.2926H439.409ZM438.409 19.6222H445.787V17.6222H438.409V19.6222ZM445.787 19.6222C449.354 19.6222 452.035 20.3218 453.805 21.6751C455.525 22.9906 456.532 25.0374 456.532 28.108H458.532C458.532 24.5535 457.336 21.8574 455.019 20.0863C452.752 18.3529 449.56 17.6222 445.787 17.6222V19.6222ZM456.532 28.108C456.532 31.1551 455.529 33.1174 453.823 34.3627C452.055 35.6527 449.371 36.2926 445.787 36.2926V38.2926C449.544 38.2926 452.732 37.6339 455.001 35.9784C457.332 34.2782 458.532 31.6482 458.532 28.108H456.532ZM445.787 36.2926H438.409V38.2926H445.787V36.2926ZM488.285 79H487.285V80H488.285V79ZM509.214 79V80H510.214V79H509.214ZM509.214 59.125L508.421 58.5166L508.214 58.7858V59.125H509.214ZM516.14 50.0909L516.998 49.5771L516.242 48.3146L515.347 49.4825L516.14 50.0909ZM533.456 79L532.598 79.5138L532.889 80H533.456V79ZM558.45 79V80H560.251L559.299 78.4711L558.45 79ZM531.799 36.2386L531.003 35.6342L530.586 36.1829L530.951 36.7676L531.799 36.2386ZM557.848 1.90909L558.644 2.51355L559.862 0.909088H557.848V1.90909ZM533.456 1.90909V0.909088H532.953L532.653 1.31219L533.456 1.90909ZM510.268 33.0767V34.0767H510.771L511.07 33.6736L510.268 33.0767ZM509.214 33.0767H508.214V34.0767H509.214V33.0767ZM509.214 1.90909H510.214V0.909088H509.214V1.90909ZM488.285 1.90909V0.909088H487.285V1.90909H488.285ZM488.285 80H509.214V78H488.285V80ZM510.214 79V59.125H508.214V79H510.214ZM510.008 59.7334L516.934 50.6993L515.347 49.4825L508.421 58.5166L510.008 59.7334ZM515.282 50.6047L532.598 79.5138L534.313 78.4862L516.998 49.5771L515.282 50.6047ZM533.456 80H558.45V78H533.456V80ZM559.299 78.4711L532.648 35.7097L530.951 36.7676L557.601 79.5289L559.299 78.4711ZM532.596 36.8431L558.644 2.51355L557.051 1.30463L531.003 35.6342L532.596 36.8431ZM557.848 0.909088L533.456 0.909088V2.90909L557.848 2.90909V0.909088ZM532.653 1.31219L509.466 32.4798L511.07 33.6736L534.258 2.50598L532.653 1.31219ZM510.268 32.0767H509.214V34.0767H510.268V32.0767ZM510.214 33.0767V1.90909H508.214V33.0767H510.214ZM509.214 0.909088L488.285 0.909088V2.90909L509.214 2.90909V0.909088ZM487.285 1.90909V79H489.285V1.90909H487.285ZM564.059 79H563.059V80H564.059V79ZM619.468 79V80H620.468V79H619.468ZM619.468 62.1364H620.468V61.1364H619.468V62.1364ZM584.988 62.1364H583.988V63.1364H584.988V62.1364ZM584.988 48.8864V47.8864H583.988V48.8864H584.988ZM616.757 48.8864V49.8864H617.757V48.8864H616.757ZM616.757 32.0227H617.757V31.0227H616.757V32.0227ZM584.988 32.0227H583.988V33.0227H584.988V32.0227ZM584.988 18.7727V17.7727H583.988V18.7727H584.988ZM619.618 18.7727V19.7727H620.618V18.7727H619.618ZM619.618 1.90909H620.618V0.909088H619.618V1.90909ZM564.059 1.90909V0.909088H563.059V1.90909H564.059ZM564.059 80L619.468 80V78L564.059 78V80ZM620.468 79V62.1364H618.468V79H620.468ZM619.468 61.1364H584.988V63.1364H619.468V61.1364ZM585.988 62.1364V48.8864H583.988V62.1364H585.988ZM584.988 49.8864H616.757V47.8864H584.988V49.8864ZM617.757 48.8864V32.0227H615.757V48.8864H617.757ZM616.757 31.0227L584.988 31.0227V33.0227L616.757 33.0227V31.0227ZM585.988 32.0227V18.7727H583.988V32.0227H585.988ZM584.988 19.7727L619.618 19.7727V17.7727L584.988 17.7727V19.7727ZM620.618 18.7727V1.90909H618.618V18.7727H620.618ZM619.618 0.909088L564.059 0.909088V2.90909L619.618 2.90909V0.909088ZM563.059 1.90909V79H565.059V1.90909H563.059ZM627.89 18.7727H626.89V19.7727H627.89V18.7727ZM651.078 18.7727H652.078V17.7727H651.078V18.7727ZM651.078 79H650.078V80H651.078V79ZM671.705 79V80H672.705V79H671.705ZM671.705 18.7727V17.7727H670.705V18.7727H671.705ZM694.893 18.7727V19.7727H695.893V18.7727H694.893ZM694.893 1.90909H695.893V0.909088H694.893V1.90909ZM627.89 1.90909V0.909088H626.89V1.90909H627.89ZM627.89 19.7727L651.078 19.7727V17.7727L627.89 17.7727V19.7727ZM650.078 18.7727V79H652.078V18.7727H650.078ZM651.078 80L671.705 80V78L651.078 78V80ZM672.705 79V18.7727H670.705V79H672.705ZM671.705 19.7727L694.893 19.7727V17.7727L671.705 17.7727V19.7727ZM695.893 18.7727V1.90909H693.893V18.7727H695.893ZM694.893 0.909088L627.89 0.909088V2.90909L694.893 2.90909V0.909088ZM626.89 1.90909V18.7727H628.89V1.90909H626.89Z" fill="url(#paint0_linear)"/>
<defs>
<linearGradient id="paint0_linear" x1="-3" y1="-24" x2="698" y2="-24" gradientUnits="userSpaceOnUse">
<stop stop-color="#F96D8C"/>
<stop offset="1" stop-color="#FBD862"/>
</linearGradient>
</defs>
</svg>
