<svg width="410" height="375" fill="none" xmlns="http://www.w3.org/2000/svg"><path d="M118.889 310.726l17.277-17.278" stroke="#999" stroke-width="1.873" stroke-miterlimit="10" stroke-linecap="round"/><path d="M346.019 193.705V197.627c0 .561-.093 1.214-.093 1.775 0 .653-.094 1.307-.094 1.868 0 .56-.093 1.214-.093 1.774-.094.654-.094 1.308-.187 1.868 0 .56-.093 1.214-.187 1.774-.093.654-.093 1.214-.187 1.868-.093.561-.093 1.214-.186 1.775-.094.653-.187 1.307-.281 1.867-.093.561-.186 1.121-.28 1.775-.093.654-.187 1.214-.373 1.868-.094.56-.187 1.214-.28 1.774-.094.654-.281 1.214-.374 1.868-.093.56-.28 1.214-.374 1.775-.093.653-.28 1.307-.373 1.867-.187.561-.28 1.215-.467 1.775-.187.654-.374 1.307-.467 1.868-.093.56-.28 1.214-.467 1.774a48.637 48.637 0 01-.56 1.868c-.187.56-.374 1.214-.561 1.774a14.677 14.677 0 01-.654 1.868c-.186.561-.373 1.214-.653 1.775-.187.654-.467 1.307-.654 1.868-.187.56-.467 1.214-.654 1.774a11.145 11.145 0 01-.747 1.868c-.187.56-.467 1.214-.654 1.774-.28.654-.56 1.308-.84 1.868-.28.561-.561 1.214-.747 1.775-.28.653-.561 1.214-.934 1.868-.28.56-.561 1.214-.841 1.774-.28.654-.654 1.307-.934 1.868-.28.56-.56 1.214-.934 1.774-.373.654-.653 1.308-1.027 1.868-.28.56-.654 1.214-1.027 1.775-.374.653-.747 1.307-1.121 1.867-.374.561-.747 1.215-1.121 1.775-.373.654-.84 1.214-1.214 1.868-.373.56-.747 1.214-1.12 1.774-.467.654-.841 1.308-1.308 1.868-.374.56-.84 1.214-1.214 1.774-.467.654-.934 1.308-1.401 1.868-.467.561-.84 1.214-1.307 1.775-.467.654-1.028 1.307-1.495 1.868-.467.56-.934 1.214-1.494 1.774-.56.654-1.121 1.214-1.681 1.868a26.982 26.982 0 01-1.588 1.774c-.56.654-1.214 1.308-1.774 1.868-.561.561-1.121 1.214-1.681 1.775-.654.653-1.214 1.307-1.962 1.868-.653.56-1.214 1.214-1.867 1.774a36.962 36.962 0 01-2.055 1.868c-.654.56-1.307 1.214-1.961 1.774-.747.654-1.495 1.308-2.335 1.868-.747.561-1.494 1.214-2.241 1.775-.841.653-1.682 1.307-2.522 1.867-.841.561-1.588 1.215-2.428 1.775-.934.654-1.868 1.307-2.802 1.868a44.437 44.437 0 01-2.708 1.774c-1.028.654-2.055 1.308-3.082 1.868-1.028.654-2.055 1.214-3.082 1.775-1.214.653-2.335 1.307-3.549 1.867-1.214.561-2.335 1.215-3.549 1.775-1.401.654-2.802 1.307-4.203 1.868-1.401.653-2.895 1.214-4.296 1.774-1.774.654-3.549 1.308-5.323 1.868-1.868.654-3.736 1.214-5.604 1.774-11.02 3.176-22.788 4.857-34.835 4.857-12.048 0-23.722-1.681-34.836-4.857-1.867-.56-3.735-1.12-5.603-1.774-1.775-.56-3.549-1.214-5.323-1.868-1.495-.56-2.896-1.121-4.296-1.774-1.401-.654-2.802-1.214-4.203-1.868-1.214-.56-2.428-1.121-3.549-1.775-1.214-.653-2.335-1.214-3.549-1.867-1.027-.561-2.055-1.121-3.082-1.775-1.027-.654-2.055-1.214-3.082-1.868a44.437 44.437 0 01-2.708-1.774c-.934-.654-1.868-1.214-2.802-1.868-.841-.56-1.681-1.121-2.428-1.775-.841-.653-1.681-1.214-2.522-1.867-.747-.561-1.494-1.121-2.241-1.775-.747-.654-1.495-1.214-2.242-1.868-.653-.56-1.307-1.12-2.054-1.774-.654-.654-1.401-1.214-2.055-1.868-.654-.56-1.214-1.121-1.868-1.774-.654-.654-1.307-1.215-1.961-1.868-.56-.561-1.121-1.121-1.681-1.775-.56-.653-1.214-1.214-1.775-1.868-.56-.56-1.027-1.12-1.587-1.774-.561-.654-1.121-1.214-1.681-1.868-.467-.56-.934-1.121-1.495-1.774-.466-.654-1.027-1.308-1.494-1.868a21.404 21.404 0 01-1.307-1.775c-.467-.653-.934-1.307-1.401-1.868-15.41-21.013-24.469-46.976-24.469-75.087 0-28.111 9.059-54.074 24.469-75.088.28-.466.654-.84.934-1.307.467-.654.934-1.308 1.494-1.868.467-.56.934-1.214 1.401-1.774a15.147 15.147 0 011.588-1.868c.467-.561 1.027-1.214 1.494-1.775.56-.653 1.121-1.307 1.681-1.867a27.547 27.547 0 001.588-1.775 17.703 17.703 0 011.867-1.868l1.775-1.774c.654-.654 1.307-1.308 1.961-1.868.654-.56 1.214-1.214 1.868-1.775.654-.653 1.401-1.214 2.148-1.867.654-.56 1.401-1.215 2.055-1.775a40.855 40.855 0 012.334-1.868c.748-.56 1.495-1.214 2.242-1.774a44.957 44.957 0 012.615-1.868c.84-.56 1.681-1.214 2.521-1.775a50.495 50.495 0 012.896-1.867c.934-.56 1.867-1.214 2.801-1.775 1.121-.653 2.148-1.307 3.269-1.868 1.027-.653 2.148-1.214 3.175-1.774a69.998 69.998 0 013.736-1.868c1.214-.654 2.522-1.214 3.829-1.774 1.495-.654 2.989-1.308 4.576-1.868 1.588-.654 3.176-1.214 4.763-1.775 1.962-.653 3.923-1.307 5.884-1.868 2.148-.653 4.296-1.214 6.538-1.774a129.255 129.255 0 0129.698-3.456 129.87 129.87 0 0129.699 3.456c2.242.56 4.39 1.12 6.538 1.775 1.961.56 3.922 1.214 5.883 1.867 1.588.56 3.176 1.121 4.763 1.775a94.21 94.21 0 014.577 1.868c1.307.56 2.521 1.12 3.829 1.774 1.307.654 2.521 1.214 3.735 1.868 1.121.56 2.149 1.12 3.176 1.774a37.159 37.159 0 013.269 1.868c.933.56 1.867 1.12 2.801 1.775 1.028.653 1.962 1.214 2.896 1.867.84.56 1.681 1.121 2.521 1.775.841.654 1.775 1.214 2.615 1.868.747.56 1.494 1.12 2.241 1.774.841.654 1.588 1.214 2.335 1.868.654.56 1.401 1.12 2.055 1.775.747.653 1.401 1.214 2.148 1.868.654.56 1.307 1.12 1.868 1.774.654.654 1.307 1.214 1.961 1.868l1.775 1.774 1.867 1.868c.561.56 1.121 1.121 1.588 1.775.56.653 1.121 1.214 1.681 1.867.56.561 1.027 1.121 1.494 1.775.561.654 1.028 1.214 1.588 1.868.467.56.934 1.214 1.401 1.774.467.654.934 1.308 1.494 1.868.467.56.841 1.121 1.308 1.774.467.654.934 1.215 1.307 1.868.374.561.841 1.121 1.214 1.775.467.653.841 1.214 1.214 1.868.374.56.748 1.12 1.121 1.774.374.654.747 1.214 1.214 1.868.374.56.654 1.214 1.028 1.774.373.654.747 1.308 1.027 1.868.373.561.654 1.121.934 1.775.373.653.654 1.214 1.027 1.868.28.56.654 1.12.934 1.774.28.654.654 1.214.934 1.868.28.56.56 1.214.84 1.774.281.654.561 1.308.841 1.868.28.56.467 1.214.747 1.775.28.653.561 1.214.747 1.867.187.561.467 1.121.654 1.775.28.654.467 1.214.747 1.868.187.56.467 1.214.654 1.774.28.654.467 1.214.654 1.868.186.56.373 1.214.56 1.774.187.654.374 1.308.56 1.868.187.561.374 1.214.467 1.775.187.654.374 1.214.467 1.868.187.56.28 1.12.467 1.774.187.654.28 1.214.467 1.868.094.56.28 1.121.374 1.774.093.654.28 1.215.373 1.868.094.561.281 1.214.374 1.775.093.653.28 1.307.374 1.868.093.56.186 1.214.28 1.774.093.654.186 1.308.28 1.868.093.56.187 1.214.28 1.774.093.654.187 1.214.187 1.868.093.561.187 1.121.187 1.775.093.653.093 1.214.186 1.867.094.561.094 1.215.094 1.775.093.654.093 1.307.093 1.868 0 .56.094 1.214.094 1.774 0 .654.093 1.308.093 1.868V193.705z" fill="#E6AA31"/><path d="M254.868 71.547h-72.473c2.148-.653 4.296-1.214 6.538-1.774h59.397c2.242.56 4.39 1.12 6.538 1.775zM265.515 75.19h-93.673c1.588-.654 3.175-1.214 4.763-1.775h84.147c1.587.56 3.175 1.214 4.763 1.775zM273.827 78.832H163.53c1.214-.654 2.522-1.214 3.829-1.774h102.732c1.214.653 2.522 1.214 3.736 1.774zM280.831 82.568H156.526c1.027-.654 2.148-1.214 3.175-1.775h117.955c1.027.56 2.148 1.121 3.175 1.775zM286.995 86.21H150.362c.934-.56 1.868-1.214 2.802-1.774H284.1c1.027.56 1.961 1.12 2.895 1.774zM292.412 89.853H144.945c.841-.56 1.681-1.215 2.522-1.775H289.89c.841.56 1.681 1.12 2.522 1.775zM297.268 93.495H140.089c.747-.56 1.494-1.214 2.241-1.775h152.697c.747.56 1.494 1.121 2.241 1.775zM301.751 97.137H135.606c.654-.56 1.401-1.214 2.054-1.775h162.036c.654.56 1.401 1.215 2.055 1.775zM305.767 100.779H131.59c.654-.56 1.214-1.214 1.868-1.774h170.441c.654.56 1.214 1.214 1.868 1.774zM309.503 104.422H127.854l1.775-1.775h178.192c.561.654 1.121 1.214 1.682 1.775zM312.958 108.064H124.305a26.738 26.738 0 001.588-1.775h185.384c.654.654 1.214 1.215 1.681 1.775zM316.133 111.706h-194.91c.467-.56 1.028-1.214 1.495-1.774h191.921c.56.654 1.027 1.214 1.494 1.774zM319.122 115.349H118.235c.467-.561.934-1.214 1.401-1.775h198.085c.467.654.934 1.214 1.401 1.775zM321.924 119.084H115.807v-1.774h204.809c.467.56.841 1.121 1.308 1.774zM324.445 122.726H115.807v-1.774h207.424c.374.56.841 1.121 1.214 1.774zM326.78 126.369H115.807v-1.775h209.852c.374.561.748 1.121 1.121 1.775zM329.022 130.011H115.807v-1.774h212.187c.28.56.654 1.214 1.028 1.774zM331.076 133.653H115.807v-1.774h214.242c.373.56.654 1.214 1.027 1.774zM332.944 137.296H115.807v-1.775H332.01c.374.654.654 1.214.934 1.775zM334.625 140.938H115.807v-1.774h217.978c.28.653.56 1.214.84 1.774zM336.213 144.58H115.807v-1.774h219.659c.28.654.56 1.214.747 1.774zM337.707 148.223h-221.9v-1.775h221.246c.187.654.467 1.214.654 1.775zM339.015 151.958H115.807v-1.774h222.647c.187.56.374 1.121.561 1.774zM340.229 155.507H115.807v-1.681h223.861l.561 1.681zM341.349 159.243H115.807v-1.774h224.982c.187.56.374 1.12.56 1.774zM342.283 162.885H115.807v-1.774h226.009c.187.56.374 1.12.467 1.774zM343.124 166.528H115.807v-1.775H342.75c.187.56.28 1.214.374 1.775zM343.871 170.17H115.807v-1.775h227.69c.187.561.281 1.214.374 1.775zM344.525 173.812H115.807v-1.774h228.437c.094.654.187 1.214.281 1.774zM344.992 177.454H115.807v-1.774h228.998c.093.654.187 1.214.187 1.774zM345.459 181.097H115.807v-1.775h229.465c.093.654.093 1.214.187 1.775zM345.739 184.739H115.807v-1.774h229.838c0 .653.094 1.214.094 1.774zM345.926 188.382H115.807v-1.775h230.025c.094.654.094 1.214.094 1.775zM346.019 192.117H115.807v-1.774h230.212v1.774zM346.019 193.985v1.775H115.807v-1.775h230.212zM346.019 197.627c0 .561-.093 1.215-.093 1.775H115.807v-1.775h230.212zM345.832 201.27c0 .56-.093 1.214-.093 1.774H115.807v-1.774h230.025zM345.552 204.912c0 .56-.093 1.214-.187 1.774H115.807v-1.774h229.745zM345.178 208.554c-.093.561-.093 1.214-.186 1.775H115.807v-1.775h229.371zM344.711 212.197a78.55 78.55 0 00-.28 1.774H115.807v-1.774h228.904zM344.151 215.932c-.093.56-.187 1.214-.28 1.775H115.807v-1.775h228.344zM343.404 219.575c-.093.56-.28 1.214-.374 1.774H115.807v-1.774h227.597zM342.657 223.217c-.187.56-.28 1.214-.467 1.774H115.807v-1.774h226.85zM341.723 226.859c-.093.56-.28 1.214-.467 1.775H115.807v-1.775h225.916zM340.696 230.501c-.187.561-.374 1.215-.561 1.775H115.807v-1.775h224.889zM339.481 234.144c-.186.56-.373 1.214-.653 1.774H115.807v-1.774h223.674zM338.174 237.786c-.187.56-.467 1.214-.654 1.775H115.807v-1.775h222.367zM336.773 241.428c-.187.561-.467 1.214-.654 1.775H115.807v-1.775h220.966zM335.279 245.071a14.27 14.27 0 00-.747 1.774H115.807v-1.774h219.472zM333.598 248.713c-.28.56-.561 1.214-.841 1.774h-216.95v-1.774h217.791zM331.73 252.448c-.28.561-.56 1.215-.934 1.775H115.807v-1.775H331.73zM329.769 256.091c-.281.56-.654 1.214-1.028 1.774H115.807v-1.774h213.962zM327.621 259.733c-.374.561-.747 1.214-1.121 1.775H115.807v-1.775h211.814zM325.286 263.375c-.374.561-.747 1.215-1.121 1.775H115.807v-1.775h209.479zM322.858 267.018c-.374.56-.841 1.214-1.214 1.774H115.807v-1.774h207.051zM320.149 270.66c-.467.561-.84 1.214-1.307 1.775H118.515a21.404 21.404 0 01-1.307-1.775h202.941zM317.254 274.302c-.467.561-.934 1.215-1.494 1.775H121.504c-.467-.56-.934-1.121-1.495-1.775h197.245zM314.172 277.945a26.982 26.982 0 01-1.588 1.774H124.772c-.56-.56-1.027-1.12-1.587-1.774h190.987zM310.81 281.587c-.56.561-1.121 1.214-1.681 1.775H128.228c-.561-.561-1.121-1.121-1.681-1.775H310.81zM307.168 285.229c-.654.561-1.214 1.215-1.868 1.775H132.057c-.654-.56-1.214-1.121-1.868-1.775h176.979zM303.245 288.872c-.654.56-1.307 1.214-1.961 1.774H136.166c-.654-.56-1.307-1.12-2.054-1.774h169.133zM298.949 292.607c-.747.561-1.494 1.215-2.241 1.775H140.556c-.748-.56-1.495-1.121-2.242-1.775h160.635zM294.28 296.25c-.841.56-1.588 1.214-2.429 1.774H145.599c-.841-.56-1.681-1.12-2.428-1.774H294.28zM289.05 299.892a44.956 44.956 0 01-2.709 1.775H151.109a44.624 44.624 0 01-2.708-1.775H289.05zM283.166 303.534c-1.027.654-2.055 1.214-3.082 1.775H157.273c-1.027-.561-2.055-1.121-3.082-1.775h128.975zM276.535 307.177c-1.214.56-2.335 1.214-3.549 1.774H164.371c-1.214-.56-2.429-1.121-3.549-1.774h115.713zM268.69 310.819c-1.401.654-2.895 1.214-4.296 1.774h-91.431c-1.495-.56-2.895-1.12-4.296-1.774H268.69zM259.071 314.461c-1.868.654-3.736 1.214-5.604 1.774H183.89c-1.868-.56-3.736-1.12-5.604-1.774h80.785z" fill="#D46C2C"/><path d="M330.049 284.949c-27.364 35.396-70.231 58.184-118.422 58.184" stroke="#4D4D4D" stroke-width="3.747" stroke-miterlimit="10"/><path d="M361.149 193.705c0 34.368-11.581 66.028-31.1 91.244" stroke="#808490" stroke-width="1.873" stroke-miterlimit="10" stroke-linecap="round"/><path d="M354.798 150.464c4.109 13.729 6.351 28.205 6.351 43.241" stroke="#808490" stroke-width="5.62" stroke-miterlimit="10"/><path d="M309.969 81.074c20.92 18.211 36.61 42.213 44.829 69.39" stroke="#333" stroke-width="1.873" stroke-miterlimit="10"/><path d="M211.721 44.184c37.637 0 72.005 13.915 98.248 36.89" stroke="#808490" stroke-width="1.873" stroke-miterlimit="10" stroke-linecap="round"/><path d="M132.244 67.065c22.974-14.476 50.245-22.881 79.477-22.881" stroke="gray" stroke-width="5.62" stroke-miterlimit="10"/><path d="M85.267 113.948c11.955-18.96 28.018-35.023 46.977-46.883" stroke="#808490" stroke-width="1.873" stroke-miterlimit="10" stroke-linecap="round"/><path d="M62.2 193.705c0-29.325 8.405-56.689 23.067-79.757" stroke="#808490" stroke-width=".937" stroke-miterlimit="10"/><path d="M65.842 226.766c-2.428-10.647-3.643-21.667-3.643-33.061" stroke="#4D4D4D" stroke-width="1.873" stroke-miterlimit="10"/><path d="M105.72 299.145c-19.425-19.613-33.528-44.455-39.878-72.379" stroke="#808490" stroke-width="5.62" stroke-miterlimit="10"/><path d="M211.721 343.133c-41.373 0-78.824-16.811-105.907-43.988" stroke="#808490" stroke-width=".937" stroke-miterlimit="10"/><path d="M339.108 193.705c0 70.324-57.063 127.387-127.387 127.387-35.303 0-67.243-14.382-90.311-37.544-16.624-16.717-28.578-37.917-33.995-61.639a127.347 127.347 0 01-3.175-28.204c0-70.325 57.063-127.388 127.387-127.388 32.034 0 61.359 11.861 83.773 31.38 17.838 15.504 31.193 35.956 38.198 59.118 3.549 11.674 5.51 24.095 5.51 36.89z" fill="url(#paint0_linear)"/><path d="M333.691 156.908L121.41 283.548c-16.624-16.717-28.578-37.917-33.995-61.639L295.4 97.791c17.838 15.503 31.287 35.862 38.291 59.117z" fill="url(#paint1_linear)"/><path d="M320.71 193.705c0 8.499-.934 16.717-2.802 24.656-11.207 48.283-54.541 84.333-106.187 84.333-9.059 0-17.838-1.121-26.244-3.175-39.598-9.807-70.698-41.28-79.944-81.158-1.774-7.939-2.801-16.157-2.801-24.656 0-8.499.934-16.717 2.801-24.656 11.208-48.377 54.448-84.333 106.188-84.333 33.714 0 63.88 15.316 83.866 39.318 10.74 12.795 18.492 28.205 22.414 45.015 1.681 7.939 2.709 16.157 2.709 24.656z" fill="url(#paint2_linear)"/><path d="M320.71 193.705c0 8.499-.934 16.717-2.802 24.656-11.207 48.283-54.541 84.333-106.187 84.333-9.059 0-17.838-1.121-26.244-3.175-37.076-10.834-65.841-41.093-74.62-79.01a110.137 110.137 0 01-2.709-24.376c0-8.405.934-16.53 2.709-24.375 11.02-47.724 53.794-83.306 104.88-83.306 31.66 0 60.238 13.635 79.85 35.489 10.74 12.795 18.492 28.204 22.414 45.015 1.681 8.032 2.709 16.25 2.709 24.749z" fill="url(#paint3_linear)"/><path d="M204.232 216.335l-33.324-52.192 33.324-52.343 33.171 52.343-33.171 52.192z" fill="#fff"/><path d="M217.774 117.125l29.824 47.018-29.824 47.019-29.824-47.019 29.824-47.018zm0-5.325l-33.171 52.191 33.171 52.192 33.172-52.192-33.172-52.191z" fill="#D46C2C"/><path d="M201.06 234.991v13.363l-10.942-13.363h-4.213V257h5.03v-13.363L201.909 257h4.181v-22.009h-5.03zm26.87 4.087v-4.087h-16.632V257h5.093v-8.018h10.187v-4.087h-10.187v-5.817h11.539zM236.091 257h5.094v-17.859h7.043v-4.15h-19.18v4.15h7.043V257z" fill="#4D4D4D"/><path d="M283.369 241.259l1.689 2.895 3.942.467-2.815 2.242.675 3.175-3.491-1.494-3.491 1.494.676-3.175-2.816-2.242 3.942-.467 1.689-2.895zM161.631 241.259l1.802 2.895 3.829.467-2.816 2.242.676 3.175-3.491-1.494-3.491 1.494.675-3.175-2.815-2.242 3.942-.467 1.689-2.895zM167.038 263.8v4.875l-3.971-4.875h-1.1v7.2h1.327v-4.875l3.97 4.875h1.1v-7.2h-1.326zm5.601 7.272c1.707 0 2.931-1.173 2.931-2.818 0-1.646-1.224-2.808-2.931-2.808-1.687 0-2.921 1.162-2.921 2.808 0 1.645 1.234 2.818 2.921 2.818zm0-1.101c-.926 0-1.625-.668-1.625-1.717s.699-1.718 1.625-1.718c.936 0 1.635.669 1.635 1.718s-.699 1.717-1.635 1.717zm7.277-4.525c-.802 0-1.471.267-1.892.771v-.709H176.8V271h1.285v-2.777c0-1.101.617-1.656 1.533-1.656.823 0 1.306.473 1.306 1.45V271h1.286v-3.147c0-1.656-.977-2.407-2.294-2.407zm3.647 3.229h2.829v-1.069h-2.829v1.069zm6.467-4.34c.268 0 .514.093.71.226l.36-.967c-.288-.205-.72-.298-1.162-.298-1.276 0-1.965.751-1.965 1.903v.35h-.905v1.028h.905V271h1.286v-4.423h1.471v-1.028h-1.512v-.329c0-.587.277-.885.812-.885zm5.597 1.173v2.777c0 1.1-.607 1.656-1.502 1.656-.812 0-1.285-.474-1.285-1.471v-2.962h-1.286v3.137c0 1.656.956 2.427 2.366 2.427.709 0 1.357-.267 1.769-.771V271h1.224v-5.492h-1.286zm6.085-.062c-.802 0-1.47.267-1.892.771v-.709h-1.224V271h1.286v-2.777c0-1.101.617-1.656 1.532-1.656.823 0 1.306.473 1.306 1.45V271h1.286v-3.147c0-1.656-.977-2.407-2.294-2.407zm8.203.062v.73c-.453-.545-1.132-.792-1.903-.792-1.574 0-2.777 1.049-2.777 2.643 0 1.594 1.203 2.664 2.777 2.664.74 0 1.388-.236 1.841-.73v.288c0 1.111-.535 1.666-1.749 1.666-.761 0-1.542-.257-2.026-.658l-.576.967c.628.514 1.646.781 2.674.781 1.924 0 2.963-.905 2.963-2.9v-4.659h-1.224zm-1.708 4.155c-.977 0-1.676-.638-1.676-1.574 0-.925.699-1.553 1.676-1.553.967 0 1.667.628 1.667 1.553 0 .936-.7 1.574-1.667 1.574zm5.27-5.061c.483 0 .823-.349.823-.802 0-.422-.35-.74-.823-.74s-.823.339-.823.771.35.771.823.771zm-.648 6.398h1.286v-5.492h-1.286V271zm6.018-5.554c-.7 0-1.317.236-1.759.73v-2.808h-1.286V271h1.224v-.71c.432.525 1.07.782 1.821.782 1.604 0 2.787-1.111 2.787-2.818 0-1.708-1.183-2.808-2.787-2.808zm-.144 4.525c-.926 0-1.636-.668-1.636-1.717s.71-1.718 1.636-1.718c.925 0 1.625.669 1.625 1.718s-.7 1.717-1.625 1.717zm4.15 1.029h1.286v-7.632h-1.286V271zm8.137-2.715c0-1.718-1.173-2.839-2.777-2.839-1.636 0-2.839 1.172-2.839 2.808 0 1.635 1.193 2.818 3.034 2.818.946 0 1.718-.309 2.211-.895l-.689-.792c-.39.401-.874.597-1.491.597-.957 0-1.625-.515-1.779-1.317h4.309c.01-.123.021-.278.021-.38zm-2.777-1.811c.843 0 1.45.546 1.553 1.337h-3.117c.124-.802.731-1.337 1.564-1.337zm9.796 3.312a1.152 1.152 0 01-.72.227c-.494 0-.761-.288-.761-.823v-2.613h1.471v-1.028h-1.471v-1.255h-1.286v1.255h-.905v1.028h.905v2.644c0 1.213.689 1.851 1.893 1.851.463 0 .925-.123 1.234-.37l-.36-.916zm3.705 1.286c1.708 0 2.932-1.173 2.932-2.818 0-1.646-1.224-2.808-2.932-2.808-1.686 0-2.921 1.162-2.921 2.808 0 1.645 1.235 2.818 2.921 2.818zm0-1.101c-.925 0-1.625-.668-1.625-1.717s.7-1.718 1.625-1.718c.936 0 1.636.669 1.636 1.718s-.7 1.717-1.636 1.717zM250.02 271h1.564l-2.51-3.189 2.294-2.303h-1.543l-2.664 2.468v-4.608h-1.286V271h1.286v-1.45l.956-.905L250.02 271zm7.326-2.715c0-1.718-1.172-2.839-2.777-2.839-1.635 0-2.839 1.172-2.839 2.808 0 1.635 1.194 2.818 3.035 2.818.946 0 1.717-.309 2.211-.895l-.689-.792c-.391.401-.874.597-1.491.597-.957 0-1.626-.515-1.78-1.317h4.31c.01-.123.02-.278.02-.38zm-2.777-1.811c.844 0 1.451.546 1.553 1.337h-3.116c.123-.802.73-1.337 1.563-1.337zm7.129-1.028c-.802 0-1.471.267-1.893.771v-.709h-1.224V271h1.286v-2.777c0-1.101.617-1.656 1.533-1.656.822 0 1.306.473 1.306 1.45V271h1.286v-3.147c0-1.656-.978-2.407-2.294-2.407zM352.276 94.242c16.97 0 30.726-13.757 30.726-30.726 0-16.97-13.756-30.726-30.726-30.726-16.969 0-30.726 13.756-30.726 30.726s13.757 30.726 30.726 30.726z" fill="#fff"/><path d="M347.793 80.793c-1.681-.56-2.988-1.307-3.922-2.148l1.214-2.615c.934.84 2.055 1.495 3.456 1.962 1.4.467 2.895.747 4.296.747 1.961 0 3.455-.374 4.389-1.028.934-.653 1.494-1.587 1.494-2.614 0-.841-.28-1.495-.747-1.962-.56-.467-1.214-.934-1.961-1.12-.747-.28-1.868-.56-3.269-.934-1.774-.467-3.175-.84-4.296-1.308-1.121-.467-2.054-1.12-2.802-1.961-.747-.934-1.12-2.055-1.12-3.642 0-1.308.373-2.429 1.027-3.456.654-1.027 1.681-1.868 2.989-2.428 1.307-.654 2.988-.934 5.043-.934 1.401 0 2.802.187 4.109.56 1.307.374 2.522.84 3.456 1.588l-1.121 2.708c-1.028-.653-2.055-1.12-3.176-1.4-1.12-.374-2.241-.468-3.268-.468-1.868 0-3.362.374-4.296 1.028-.934.654-1.401 1.587-1.401 2.708 0 .84.28 1.495.84 1.961.561.467 1.214.934 2.055 1.214.84.28 1.868.56 3.269.934 1.774.467 3.175.841 4.296 1.308 1.12.467 2.054 1.12 2.802 1.961.747.84 1.12 2.055 1.12 3.55 0 1.213-.373 2.334-1.027 3.361-.654 1.028-1.681 1.868-3.082 2.428-1.401.56-3.082.934-5.043.934-1.961-.093-3.736-.373-5.324-.934z" fill="#E6AA31"/><path d="M354.051 52.776h-2.055v33.901h2.055V52.776z" fill="#E6AA31"/><path d="M367.686 49.04h-.747a.736.736 0 01-.747-.747v-.747c0-.374-.28-.747-.654-.747-.467-.094-.934.28-.934.747v.747a.736.736 0 01-.747.747h-.747c-.374 0-.747.28-.747.654-.094.467.28.934.747.934h.84c.467 0 .747.373.747.747v.747c0 .373.281.747.654.747.467.093.934-.28.934-.747v-.84c0-.467.374-.748.747-.748h.841c.467 0 .84-.467.747-.934-.187-.28-.56-.56-.934-.56zM345.926 44.277h-.934a.936.936 0 01-.934-.934v-.934c0-.467-.28-.84-.747-.934-.561-.093-1.121.374-1.121.934v.934a.936.936 0 01-.934.934h-.934c-.467 0-.841.28-.934.747-.093.56.374 1.12.934 1.12h.934c.467 0 .934.374.934.935v.934c0 .467.28.84.747.934.56.093 1.121-.374 1.121-.934v-.934c0-.467.373-.934.934-.934h.934c.56 0 1.027-.467.933-1.12-.093-.374-.466-.748-.933-.748z" fill="#4D4D4D"/><path d="M115.433 352.098H33.154c-3.455 0-6.164-2.802-6.164-6.164v-35.302c0-3.456 2.802-6.164 6.164-6.164h82.372c3.456 0 6.164 2.802 6.164 6.164v35.302c0 3.362-2.801 6.164-6.257 6.164z" fill="#fff"/><path d="M42.96 313.247h-4.202v9.619h4.203v-9.619zM49.031 313.247h-4.203v9.619h4.203v-9.619z" fill="#4D4D4D"/><path d="M55.102 313.247h-4.203v9.619h4.203v-9.619zM61.172 313.247h-4.203v9.619h4.203v-9.619zM67.243 313.247H63.04v9.619h4.203v-9.619z" fill="#E6AA31"/><path d="M83.96 313.247h-4.203v9.619h4.203v-9.619zM90.03 313.247h-4.202v9.619h4.202v-9.619zM96.1 313.247h-4.202v9.619h4.203v-9.619zM102.171 313.247h-4.202v9.619h4.202v-9.619zM108.242 313.247h-4.203v9.619h4.203v-9.619zM75.088 318.197h-3.55v.84h3.55v-.84z" fill="#4D4D4D"/><path d="M116.647 307.643l17.278-17.184" stroke="#999" stroke-width="1.873" stroke-miterlimit="10" stroke-linecap="round"/><path d="M68.924 330.151h-29.98v3.082h29.98v-3.082zM82.185 336.875h-43.24v3.082h43.24v-3.082zM72.566 343.6H38.945v3.082h33.62V343.6zM108.989 343.6H80.224v3.082h28.765V343.6z" fill="#E3E4E9"/><path d="M88.35 83.689H31.752V57.072l11.114-11.114h56.596v26.617L88.349 83.689z" fill="#fff"/><path d="M51.833 60.9h40.626l-26.99-9.525 1.587 5.883H51.833c-1.027 0-1.775.841-1.775 1.775 0 1.027.84 1.868 1.775 1.868z" fill="#4D4D4D"/><path d="M78.263 67.345H39.038l26.99 9.433-1.587-5.884h13.822c1.027 0 1.774-.84 1.774-1.775 0-.934-.84-1.774-1.774-1.774z" fill="#E6AA31"/><path d="M96.194 78.178c0 1.401-1.12 2.429-2.428 2.429-1.308 0-2.428-1.121-2.428-2.429 0-1.307 1.12-2.428 2.428-2.428a2.411 2.411 0 012.428 2.428z" fill="#4D4D4D"/><path d="M99.183 82.007c.84 0 1.587.747 1.587 1.588 0 .84-.747 1.588-1.587 1.588s-1.588-.747-1.588-1.588c0-.84.747-1.588 1.588-1.588zm0-.84c-1.401 0-2.429 1.12-2.429 2.428 0 1.401 1.121 2.428 2.429 2.428a2.411 2.411 0 002.428-2.428c.093-1.4-1.027-2.428-2.428-2.428z" fill="#3A3E4E"/><path d="M107.121 89.012c0 1.4-1.121 2.428-2.428 2.428a2.411 2.411 0 01-2.428-2.428 2.41 2.41 0 012.428-2.428c1.307 0 2.428 1.12 2.428 2.428z" fill="#4D4D4D"/><path d="M355.139 309.204l-13.802 13.802.33.33 13.802-13.802-.33-.33zM356.148 310.275l-13.802 13.802.331.33 13.801-13.802-.33-.33zM357.29 311.344l-13.802 13.802.33.33 13.802-13.802-.33-.33z" fill="#666"/><path d="M381.415 317.637h-26.057l-6.164-6.164V285.51l6.164-6.164h26.057l6.164 6.164v26.056c-2.429 2.335-3.83 3.736-6.164 6.071z" fill="#4D4D4D"/><path d="M380.387 313.527h-24.001l-2.989-2.988v-24.002l2.989-2.989h24.001l2.989 2.989v24.002a45.053 45.053 0 00-2.989 2.988z" fill="gray"/><path d="M358.907 276.544h-1.401v4.203h1.401v-4.203zM362.363 276.544h-1.401v4.203h1.401v-4.203zM365.725 276.544h-1.401v4.203h1.401v-4.203zM369.087 276.544h-1.401v4.203h1.401v-4.203zM372.449 276.544h-1.401v4.203h1.401v-4.203zM375.811 276.544h-1.401v4.203h1.401v-4.203zM379.267 276.544h-1.401v4.203h1.401v-4.203zM358.907 316.329h-1.401v4.203h1.401v-4.203zM362.363 316.329h-1.401v4.203h1.401v-4.203zM365.725 316.329h-1.401v4.203h1.401v-4.203zM369.087 316.329h-1.401v4.203h1.401v-4.203zM372.449 316.329h-1.401v4.203h1.401v-4.203zM375.811 316.329h-1.401v4.203h1.401v-4.203zM379.267 316.329h-1.401v4.203h1.401v-4.203zM390.377 289.076v-1.4h-4.203v1.4h4.203zM390.397 292.458v-1.401h-4.203v1.401h4.203zM390.323 295.84v-1.401h-4.203v1.401h4.203zM390.343 299.222v-1.4h-4.203v1.4h4.203zM390.363 302.604v-1.401h-4.203v1.401h4.203zM390.382 305.986v-1.401h-4.202v1.401h4.202zM390.309 309.368v-1.401h-4.203v1.401h4.203zM350.591 289.077v-1.4h-4.203v1.4h4.203zM350.61 292.459v-1.401h-4.202v1.401h4.202zM350.537 295.841v-1.401h-4.203v1.401h4.203zM350.557 299.223v-1.401h-4.203v1.401h4.203zM350.576 302.605v-1.401h-4.202v1.401h4.202zM350.596 305.987v-1.401h-4.202v1.401h4.202zM350.523 309.369v-1.401h-4.203v1.401h4.203z" fill="#666"/><path d="M344.618 344.253h-17.931l-4.296-4.296v-17.931l4.296-4.296h17.931l4.296 4.296v17.931a92.554 92.554 0 01-4.296 4.296z" fill="#E98931"/><path d="M343.964 341.359H327.34l-2.054-2.055V322.68l2.054-2.055h16.624l2.055 2.055v16.624l-2.055 2.055z" fill="#F1B331"/><path d="M329.115 315.862h-.934v2.895h.934v-2.895zM331.45 315.862h-.934v2.895h.934v-2.895zM333.785 315.862h-.934v2.895h.934v-2.895zM336.119 315.862h-.934v2.895h.934v-2.895zM338.454 315.862h-.934v2.895h.934v-2.895zM340.789 315.862h-.934v2.895h.934v-2.895zM343.124 315.862h-.934v2.895h.934v-2.895zM329.115 343.319h-.934v2.896h.934v-2.896zM331.45 343.319h-.934v2.896h.934v-2.896zM333.785 343.319h-.934v2.896h.934v-2.896zM336.119 343.319h-.934v2.896h.934v-2.896zM338.454 343.319h-.934v2.896h.934v-2.896zM340.789 343.319h-.934v2.896h.934v-2.896zM343.124 343.319h-.934v2.896h.934v-2.896zM350.836 324.5v-.934h-2.895v.934h2.895zM350.837 326.836v-.934h-2.895v.934h2.895zM350.839 329.172v-.933h-2.896v.933h2.896zM350.84 331.509v-.934h-2.895v.934h2.895zM350.841 333.845v-.934h-2.895v.934h2.895zM350.843 336.181v-.934h-2.895v.934h2.895zM350.844 338.517v-.934h-2.895v.934h2.895zM323.351 324.527v-.934h-2.895v.934h2.895zM323.353 326.863v-.934h-2.895v.934h2.895zM323.354 329.199v-.934h-2.895v.934h2.895zM323.356 331.535v-.933h-2.895v.933h2.895zM323.357 333.872v-.934h-2.895v.934h2.895zM323.359 336.208v-.934h-2.896v.934h2.896zM323.36 338.544v-.934h-2.895v.934h2.895z" fill="#B3B3B3"/><path d="M36.143 211.45H19.986l-3.829-3.829V191.37l3.829-3.829h16.25l3.83 3.829v16.251c-1.588 1.4-2.429 2.241-3.923 3.829z" fill="#4D4D4D"/><path d="M35.583 208.834H20.64l-1.868-1.867v-14.943l1.868-1.868h14.943l1.867 1.868v14.943a17.58 17.58 0 00-1.867 1.867z" fill="gray"/><path d="M22.134 185.767h-.84v2.615h.84v-2.615zM24.282 185.767h-.84v2.615h.84v-2.615zM26.337 185.767h-.84v2.615h.84v-2.615zM28.485 185.767h-.84v2.615h.84v-2.615zM30.54 185.767h-.841v2.615h.84v-2.615zM32.687 185.767h-.84v2.615h.84v-2.615zM34.835 185.767h-.84v2.615h.84v-2.615zM22.134 210.516h-.84v2.615h.84v-2.615zM24.282 210.516h-.84v2.615h.84v-2.615zM26.337 210.516h-.84v2.615h.84v-2.615zM28.485 210.516h-.84v2.615h.84v-2.615zM30.54 210.516h-.841v2.615h.84v-2.615zM32.687 210.516h-.84v2.615h.84v-2.615zM34.835 210.516h-.84v2.615h.84v-2.615zM41.765 193.597v-.841H39.15v.841h2.615zM41.723 195.703v-.841h-2.615v.841h2.615zM41.775 197.809v-.84H39.16v.84h2.615zM41.733 199.915v-.84h-2.615v.84h2.615zM41.785 202.021v-.84H39.17v.84h2.614zM41.743 204.128v-.841h-2.615v.841h2.615zM41.794 206.234v-.84H39.18v.84h2.615zM16.987 193.532v-.84h-2.615v.84h2.615zM16.945 195.639v-.841H14.33v.841h2.615zM16.997 197.745v-.841h-2.615v.841h2.615zM16.955 199.851v-.841H14.34v.841h2.615zM17.006 201.957v-.841h-2.614v.841h2.614zM16.965 204.063v-.84H14.35v.84h2.615zM17.016 206.169v-.84h-2.615v.84h2.615z" fill="#666"/><path d="M248.144 33.63h-13.636l-3.268-3.269V16.726l3.268-3.269h13.636l3.268 3.27V30.36c-1.307 1.308-2.054 1.962-3.268 3.27z" fill="#4D4D4D"/><path d="M247.583 31.389h-12.608l-1.587-1.588V17.287l1.587-1.588h12.608l1.588 1.588v12.608c-.654.56-.934.933-1.588 1.494z" fill="gray"/><path d="M236.376 12.056h-.747v2.149h.747v-2.149zM238.151 12.056h-.747v2.149h.747v-2.149zM239.925 12.056h-.747v2.149h.747v-2.149zM241.7 12.056h-.748v2.149h.748v-2.149zM243.474 12.056h-.747v2.149h.747v-2.149zM245.249 12.056h-.748v2.149h.748v-2.149zM247.023 12.056h-.747v2.149h.747v-2.149zM236.376 32.883h-.747v2.148h.747v-2.148zM238.151 32.883h-.747v2.148h.747v-2.148zM239.925 32.883h-.747v2.148h.747v-2.148zM241.7 32.883h-.748v2.148h.748v-2.148zM243.474 32.883h-.747v2.148h.747v-2.148zM245.249 32.883h-.748v2.148h.748v-2.148zM247.023 32.883h-.747v2.148h.747v-2.148zM252.768 18.59v-.747h-2.148v.747h2.148zM252.766 20.362v-.747h-2.148v.747h2.148zM252.857 22.134v-.747h-2.149v.747h2.149zM252.854 23.906v-.747h-2.148v.747h2.148zM252.852 25.678v-.747h-2.148v.747h2.148zM252.849 27.45v-.747h-2.148v.747h2.148zM252.847 29.222v-.747h-2.148v.747h2.148zM231.921 18.61v-.747h-2.148v.747h2.148zM231.919 20.382v-.747h-2.148v.747h2.148zM232.01 22.154v-.747h-2.148v.747h2.148zM232.007 23.927v-.748h-2.148v.748h2.148zM232.005 25.699v-.748h-2.148v.748h2.148zM232.003 27.47v-.747h-2.149v.748h2.149zM232 29.243v-.747h-2.148v.747H232z" fill="#666"/><path d="M154.004 348.456a1.027 1.027 0 100-2.055 1.027 1.027 0 000 2.055zM43.895 273.742c0 .654-.468 1.121-1.121 1.121-.654 0-1.121-.467-1.121-1.121 0-.654.467-1.121 1.12-1.121.654 0 1.121.561 1.121 1.121zM47.257 109.558c0 .654-.56 1.214-1.215 1.214-.653 0-1.214-.56-1.214-1.214 0-.654.56-1.214 1.214-1.214.654 0 1.215.56 1.215 1.214zM2.241 153.546c0 .654-.467 1.121-1.12 1.121-.654 0-1.121-.561-1.121-1.121 0-.654.467-1.121 1.12-1.121.654 0 1.121.467 1.121 1.121zM147.653 29.054c0 .654-.56 1.214-1.214 1.214-.653 0-1.214-.56-1.214-1.214 0-.654.561-1.214 1.214-1.214.654 0 1.214.56 1.214 1.214zM291.384 43.623c0 .747-.653 1.401-1.401 1.401-.747 0-1.4-.654-1.4-1.4 0-.748.653-1.402 1.4-1.402.841.094 1.401.654 1.401 1.401zM392.528 109.838a1.213 1.213 0 10.001-2.427 1.213 1.213 0 00-.001 2.427zM364.884 142.899a.934.934 0 100-1.868.934.934 0 000 1.868zM398.319 232.93c0 .56-.467 1.027-1.028 1.027-.56 0-1.027-.467-1.027-1.027 0-.561.467-1.028 1.027-1.028.561.094 1.028.467 1.028 1.028zM291.851 340.985a.934.934 0 100-1.868.934.934 0 000 1.868z" fill="#fff"/><path d="M224.235 368.909c0 .654-.467 1.121-1.12 1.121-.654 0-1.121-.467-1.121-1.121 0-.654.467-1.121 1.121-1.121.653 0 1.12.561 1.12 1.121zM99.65 373.205c0 .747-.654 1.401-1.401 1.401s-1.401-.654-1.401-1.401.654-1.401 1.4-1.401c.748 0 1.402.654 1.402 1.401zM54.728 238.813c0 .561-.467 1.028-1.027 1.028-.56 0-1.028-.467-1.028-1.028 0-.56.467-1.027 1.028-1.027.56.094 1.027.467 1.027 1.027zM2.522 223.217c0 .56-.467 1.027-1.028 1.027-.56 0-1.027-.467-1.027-1.027 0-.561.467-1.028 1.027-1.028.56.094 1.028.467 1.028 1.028zM124.025 46.145a1.027 1.027 0 100-2.053 1.027 1.027 0 000 2.053zM288.489 7.854c0 .56-.467 1.027-1.027 1.027-.56 0-1.027-.467-1.027-1.027 0-.56.467-1.027 1.027-1.027.56 0 1.027.466 1.027 1.027zM393.556 94.615c0 .56-.467 1.028-1.028 1.028-.56 0-1.027-.467-1.027-1.028 0-.56.467-1.027 1.027-1.027.561 0 1.028.467 1.028 1.028zM379.36 206.313c0 .56-.467 1.027-1.027 1.027a1.037 1.037 0 01-1.028-1.027c0-.561.467-1.028 1.028-1.028.56 0 1.027.467 1.027 1.028zM376.185 342.012a1.12 1.12 0 100-2.24 1.12 1.12 0 000 2.24z" fill="#666"/><path d="M20.92 156.441h27.364" stroke="#999" stroke-width=".937" stroke-miterlimit="10"/><path d="M173.43 28.494h11.02" stroke="#3A3E4E" stroke-width=".937" stroke-miterlimit="10"/><path d="M379.453 162.138h29.886M274.013 353.499h21.2M105.066 374.326h10.087M118.328 374.326h43.521" stroke="#999" stroke-width=".937" stroke-miterlimit="10"/><path d="M25.59 123.474h-.841a.837.837 0 01-.84-.841v-.84c0-.467-.28-.841-.748-.934-.56-.094-1.027.28-1.027.84v.934a.837.837 0 01-.84.841h-.841c-.467 0-.84.28-.934.747-.093.56.28 1.027.84 1.027h.934c.468 0 .841.374.841.841v.84c0 .467.28.841.747.934.56.093 1.027-.28 1.027-.84v-.934c0-.467.374-.841.841-.841h.934c.56 0 .934-.467.84-1.027-.186-.467-.56-.747-.933-.747z" fill="#E6AA31"/><path d="M406.257 188.942h-1.121c-.653 0-1.12-.467-1.12-1.121v-1.12c0-.561-.374-1.028-.934-1.215-.747-.186-1.401.374-1.401 1.121v1.214c0 .654-.467 1.121-1.121 1.121h-1.121c-.56 0-1.027.373-1.214.934-.186.747.374 1.401 1.121 1.401h1.214c.654 0 1.121.467 1.121 1.12v1.121c0 .561.373 1.027.934 1.214.747.187 1.401-.373 1.401-1.12v-1.215c0-.653.467-1.12 1.12-1.12h1.214c.748 0 1.308-.654 1.121-1.401-.093-.561-.654-.934-1.214-.934zM186.785 368.162h-1.121c-.654 0-1.121-.467-1.121-1.121v-1.121c0-.56-.373-1.027-.933-1.214-.748-.186-1.401.374-1.401 1.121v1.214c0 .654-.467 1.121-1.121 1.121h-1.121c-.56 0-1.027.373-1.214.934-.187.747.374 1.401 1.121 1.401h1.214c.654 0 1.121.467 1.121 1.12v1.121c0 .56.373 1.027.934 1.214.747.187 1.4-.373 1.4-1.12v-1.215c0-.653.467-1.12 1.121-1.12h1.214c.747 0 1.308-.654 1.121-1.401-.187-.561-.654-.934-1.214-.934z" stroke="#808490" stroke-width=".937" stroke-miterlimit="10"/><path d="M189.026 4.585h-1.12c-.654 0-1.121-.467-1.121-1.12V2.25c0-.56-.374-1.027-.934-1.214-.747-.187-1.401.374-1.401 1.12v1.308c0 .654-.467 1.121-1.121 1.121h-1.12c-.561 0-1.028.374-1.214.934-.187.747.373 1.4 1.12 1.4h1.214c.654 0 1.121.468 1.121 1.122v1.12c0 .56.374 1.028.934 1.214.747.187 1.401-.373 1.401-1.12V7.947c0-.654.467-1.12 1.121-1.12h1.214c.747 0 1.307-.654 1.12-1.401-.093-.467-.653-.84-1.214-.84z" stroke="#E6AA31" stroke-width=".937" stroke-miterlimit="10"/><defs><linearGradient id="paint0_linear" x1="84.24" y1="66.317" x2="339.108" y2="66.317" gradientUnits="userSpaceOnUse"><stop stop-color="#F96D8C"/><stop offset="1" stop-color="#FBD862"/></linearGradient><linearGradient id="paint1_linear" x1="87.415" y1="97.791" x2="333.691" y2="97.791" gradientUnits="userSpaceOnUse"><stop stop-color="#F96D8C"/><stop offset="1" stop-color="#FBD862"/></linearGradient><linearGradient id="paint2_linear" x1="71.614" y1="285.986" x2="290.776" y2="265.184" gradientUnits="userSpaceOnUse"><stop stop-color="#FFA9BC"/><stop offset="1" stop-color="#FFF1C2"/></linearGradient><linearGradient id="paint3_linear" x1="108.148" y1="88.452" x2="320.71" y2="88.452" gradientUnits="userSpaceOnUse"><stop stop-color="#F96D8C"/><stop offset="1" stop-color="#FBD862"/></linearGradient></defs></svg>