<svg width="745" height="681" viewBox="0 0 745 681" fill="none" xmlns="http://www.w3.org/2000/svg">
<path d="M216.378 564.703L247.823 533.258" stroke="#999999" stroke-width="1.8732" stroke-miterlimit="10" stroke-linecap="round"/>
<path d="M629.757 351.724V352.234C629.757 353.254 629.757 354.444 629.757 355.464C629.757 356.653 629.757 357.843 629.757 358.863C629.757 359.883 629.587 361.073 629.587 362.093C629.587 363.282 629.417 364.472 629.417 365.492C629.417 366.512 629.247 367.702 629.247 368.722C629.077 369.911 629.077 371.101 628.907 372.121C628.907 373.141 628.737 374.331 628.567 375.351C628.397 376.54 628.397 377.56 628.227 378.75C628.057 379.77 628.057 380.96 627.887 381.98C627.717 383.169 627.547 384.359 627.377 385.379C627.207 386.399 627.037 387.419 626.867 388.609C626.697 389.798 626.527 390.818 626.187 392.008C626.017 393.028 625.847 394.218 625.677 395.238C625.508 396.427 625.168 397.447 624.998 398.637C624.828 399.657 624.488 400.847 624.318 401.867C624.148 403.056 623.808 404.246 623.638 405.266C623.298 406.286 623.128 407.476 622.788 408.496C622.448 409.686 622.108 410.875 621.938 411.895C621.768 412.915 621.428 414.105 621.088 415.125C620.748 416.315 620.408 417.504 620.068 418.524C619.728 419.544 619.388 420.734 619.048 421.754C618.709 422.944 618.369 423.963 617.859 425.153C617.519 426.173 617.179 427.363 616.669 428.383C616.329 429.573 615.819 430.762 615.479 431.782C615.139 432.802 614.629 433.992 614.289 435.012C613.949 436.202 613.439 437.391 612.929 438.411C612.589 439.431 612.079 440.621 611.74 441.641C611.23 442.831 610.72 444.02 610.21 445.04C609.7 446.06 609.19 447.25 608.85 448.27C608.34 449.46 607.83 450.479 607.15 451.669C606.64 452.689 606.13 453.879 605.62 454.899C605.111 456.089 604.431 457.278 603.921 458.298C603.411 459.318 602.901 460.508 602.221 461.528C601.541 462.718 601.031 463.908 600.351 464.927C599.841 465.947 599.161 467.137 598.482 468.157C597.802 469.347 597.122 470.537 596.442 471.556C595.762 472.576 595.082 473.766 594.402 474.786C593.722 475.976 592.872 476.996 592.192 478.185C591.513 479.205 590.833 480.395 590.153 481.415C589.303 482.605 588.623 483.795 587.773 484.814C587.093 485.834 586.243 487.024 585.563 488.044C584.714 489.234 583.864 490.424 583.014 491.443C582.164 492.463 581.484 493.653 580.634 494.673C579.784 495.863 578.764 497.053 577.915 498.072C577.065 499.092 576.215 500.282 575.195 501.302C574.175 502.492 573.155 503.512 572.135 504.702C571.286 505.721 570.266 506.911 569.246 507.931C568.226 509.121 567.036 510.311 566.016 511.331C564.996 512.35 563.977 513.54 562.957 514.56C561.767 515.75 560.747 516.94 559.387 517.96C558.197 518.979 557.178 520.169 555.988 521.189C554.798 522.379 553.438 523.569 552.248 524.589C551.059 525.608 549.869 526.798 548.679 527.818C547.319 529.008 545.959 530.198 544.429 531.218C543.07 532.237 541.71 533.427 540.35 534.447C538.82 535.637 537.291 536.827 535.761 537.847C534.231 538.866 532.871 540.056 531.341 541.076C529.642 542.266 527.942 543.456 526.242 544.476C524.542 545.665 523.013 546.685 521.313 547.705C519.443 548.895 517.573 550.085 515.704 551.105C513.834 552.294 511.964 553.314 510.095 554.334C507.885 555.524 505.845 556.714 503.635 557.734C501.426 558.753 499.386 559.943 497.176 560.963C494.627 562.153 492.077 563.343 489.528 564.363C486.978 565.553 484.258 566.572 481.709 567.592C478.479 568.782 475.25 569.972 472.02 570.992C468.621 572.182 465.221 573.201 461.822 574.221C441.765 580 420.348 583.06 398.421 583.06C376.494 583.06 355.247 580 335.02 574.221C331.621 573.201 328.221 572.182 324.822 570.992C321.592 569.972 318.363 568.782 315.133 567.592C312.414 566.572 309.864 565.553 307.314 564.363C304.765 563.173 302.215 562.153 299.666 560.963C297.456 559.943 295.246 558.923 293.207 557.734C290.997 556.544 288.957 555.524 286.748 554.334C284.878 553.314 283.008 552.294 281.138 551.105C279.269 549.915 277.399 548.895 275.529 547.705C273.829 546.685 272.3 545.665 270.6 544.476C268.9 543.286 267.2 542.266 265.501 541.076C263.971 540.056 262.441 539.036 261.081 537.847C259.552 536.657 258.022 535.637 256.492 534.447C255.132 533.427 253.772 532.407 252.413 531.218C251.053 530.028 249.693 529.008 248.333 527.818C247.143 526.798 245.954 525.778 244.594 524.589C243.404 523.399 242.044 522.379 240.854 521.189C239.664 520.169 238.645 519.149 237.455 517.96C236.265 516.77 235.075 515.75 233.885 514.56C232.865 513.54 231.846 512.52 230.826 511.331C229.806 510.141 228.616 509.121 227.596 507.931C226.576 506.911 225.727 505.891 224.707 504.702C223.687 503.512 222.667 502.492 221.647 501.302C220.797 500.282 219.947 499.262 218.928 498.072C218.078 496.883 217.058 495.693 216.208 494.673C215.358 493.653 214.508 492.463 213.828 491.443C212.978 490.254 212.129 489.064 211.279 488.044C183.233 449.8 166.745 402.547 166.745 351.384C166.745 300.222 183.233 252.969 211.279 214.724C211.789 213.874 212.468 213.195 212.978 212.345C213.828 211.155 214.678 209.965 215.698 208.945C216.548 207.925 217.398 206.735 218.248 205.716C219.098 204.526 220.117 203.336 221.137 202.316C221.987 201.296 223.007 200.106 223.857 199.087C224.877 197.897 225.897 196.707 226.916 195.687C227.936 194.667 228.956 193.477 229.806 192.458C230.826 191.268 232.016 190.078 233.205 189.058C234.225 188.038 235.415 186.848 236.435 185.829C237.625 184.639 238.815 183.449 240.004 182.429C241.194 181.409 242.214 180.219 243.404 179.2C244.594 178.01 245.954 176.99 247.313 175.8C248.503 174.78 249.863 173.59 251.053 172.571C252.413 171.381 253.942 170.191 255.302 169.171C256.662 168.151 258.022 166.961 259.382 165.942C260.911 164.752 262.611 163.562 264.141 162.542C265.671 161.522 267.2 160.332 268.73 159.312C270.43 158.123 272.3 156.933 273.999 155.913C275.699 154.893 277.399 153.703 279.099 152.683C281.138 151.494 283.008 150.304 285.048 149.284C286.917 148.094 288.957 147.074 290.827 146.054C293.037 144.865 295.416 143.675 297.626 142.655C299.836 141.465 302.215 140.445 304.595 139.425C307.314 138.236 310.034 137.046 312.924 136.026C315.813 134.836 318.703 133.816 321.592 132.796C325.162 131.607 328.731 130.417 332.301 129.397C336.21 128.207 340.12 127.187 344.199 126.167C361.536 122.088 379.554 119.878 398.251 119.878C416.778 119.878 434.966 122.088 452.303 126.167C456.382 127.187 460.292 128.207 464.201 129.397C467.771 130.417 471.34 131.607 474.91 132.796C477.799 133.816 480.689 134.836 483.578 136.026C486.298 137.046 489.188 138.236 491.907 139.425C494.287 140.445 496.497 141.465 498.876 142.655C501.256 143.845 503.466 144.865 505.675 146.054C507.715 147.074 509.585 148.094 511.454 149.284C513.494 150.304 515.534 151.494 517.403 152.683C519.103 153.703 520.803 154.723 522.503 155.913C524.372 157.103 526.072 158.123 527.772 159.312C529.302 160.332 530.832 161.352 532.361 162.542C533.891 163.732 535.591 164.752 537.121 165.942C538.48 166.961 539.84 167.981 541.2 169.171C542.73 170.361 544.09 171.381 545.449 172.571C546.639 173.59 547.999 174.61 549.189 175.8C550.549 176.99 551.738 178.01 553.098 179.2C554.288 180.219 555.478 181.239 556.498 182.429C557.688 183.619 558.877 184.639 560.067 185.829C561.087 186.848 562.277 188.038 563.297 189.058C564.487 190.248 565.506 191.268 566.696 192.458C567.716 193.477 568.736 194.497 569.586 195.687C570.606 196.877 571.625 197.897 572.645 199.087C573.665 200.106 574.515 201.126 575.365 202.316C576.385 203.506 577.235 204.526 578.255 205.716C579.104 206.735 579.954 207.925 580.804 208.945C581.654 210.135 582.504 211.325 583.524 212.345C584.374 213.365 585.053 214.384 585.903 215.574C586.753 216.764 587.603 217.784 588.283 218.974C588.963 219.994 589.813 221.013 590.493 222.203C591.343 223.393 592.022 224.413 592.702 225.603C593.382 226.623 594.062 227.642 594.742 228.832C595.422 230.022 596.102 231.042 596.952 232.232C597.632 233.252 598.142 234.441 598.821 235.461C599.501 236.651 600.181 237.841 600.691 238.861C601.371 239.881 601.881 240.9 602.391 242.09C603.071 243.28 603.581 244.3 604.261 245.49C604.771 246.51 605.45 247.529 605.96 248.719C606.47 249.909 607.15 250.929 607.66 252.119C608.17 253.139 608.68 254.328 609.19 255.348C609.7 256.538 610.21 257.728 610.72 258.748C611.23 259.768 611.57 260.957 612.079 261.977C612.589 263.167 613.099 264.187 613.439 265.377C613.779 266.397 614.289 267.417 614.629 268.606C615.139 269.796 615.479 270.816 615.989 272.006C616.329 273.026 616.839 274.216 617.179 275.235C617.689 276.425 618.029 277.445 618.369 278.635C618.708 279.655 619.048 280.845 619.388 281.864C619.728 283.054 620.068 284.244 620.408 285.264C620.748 286.284 621.088 287.474 621.258 288.493C621.598 289.683 621.938 290.703 622.108 291.893C622.448 292.913 622.618 293.933 622.958 295.122C623.298 296.312 623.468 297.332 623.808 298.522C623.978 299.542 624.318 300.562 624.488 301.751C624.658 302.941 624.998 303.961 625.168 305.151C625.338 306.171 625.678 307.361 625.847 308.38C626.017 309.57 626.357 310.76 626.527 311.78C626.697 312.8 626.867 313.99 627.037 315.01C627.207 316.199 627.377 317.389 627.547 318.409C627.717 319.429 627.887 320.619 628.057 321.639C628.227 322.828 628.397 323.848 628.397 325.038C628.567 326.058 628.737 327.078 628.737 328.268C628.907 329.457 628.907 330.477 629.077 331.667C629.247 332.687 629.247 333.877 629.247 334.897C629.417 336.086 629.417 337.276 629.417 338.296C629.417 339.316 629.587 340.506 629.587 341.526C629.587 342.715 629.757 343.905 629.757 344.925C629.757 345.945 629.757 347.135 629.757 348.155C629.757 349.684 629.757 350.704 629.757 351.724Z" fill="#E6AA31"/>
<path d="M463.861 129.397H331.961C335.87 128.207 339.78 127.187 343.859 126.167H451.963C456.043 127.187 459.952 128.207 463.861 129.397Z" fill="#D46C2C"/>
<path d="M483.239 136.026H312.754C315.643 134.836 318.533 133.816 321.423 132.797H474.57C477.459 133.816 480.349 135.006 483.239 136.026Z" fill="#D46C2C"/>
<path d="M498.366 142.655H297.626C299.836 141.465 302.215 140.445 304.595 139.425H491.567C493.777 140.615 496.157 141.635 498.366 142.655Z" fill="#D46C2C"/>
<path d="M511.115 149.454H284.878C286.748 148.264 288.787 147.244 290.657 146.224H505.335C507.205 147.244 509.245 148.264 511.115 149.454Z" fill="#D46C2C"/>
<path d="M522.333 156.083H273.66C275.359 155.063 277.059 153.873 278.759 152.854H517.064C518.933 153.873 520.633 154.893 522.333 156.083Z" fill="#D46C2C"/>
<path d="M532.191 162.712H263.801C265.331 161.692 266.861 160.502 268.39 159.483H527.602C529.132 160.502 530.662 161.522 532.191 162.712Z" fill="#D46C2C"/>
<path d="M541.03 169.341H254.962C256.322 168.321 257.682 167.132 259.042 166.112H536.951C538.31 167.132 539.67 168.151 541.03 169.341Z" fill="#D46C2C"/>
<path d="M549.189 175.97H246.804C247.993 174.95 249.353 173.76 250.543 172.741H545.449C546.639 173.76 547.999 174.95 549.189 175.97Z" fill="#D46C2C"/>
<path d="M556.498 182.599H239.495C240.684 181.579 241.704 180.389 242.894 179.369H553.098C554.288 180.389 555.308 181.579 556.498 182.599Z" fill="#D46C2C"/>
<path d="M563.297 189.228H232.696C233.716 188.208 234.905 187.018 235.925 185.998H560.237C561.257 187.188 562.277 188.208 563.297 189.228Z" fill="#D46C2C"/>
<path d="M569.586 195.857H226.237C227.256 194.837 228.276 193.647 229.126 192.628H566.526C567.716 193.817 568.736 194.837 569.586 195.857Z" fill="#D46C2C"/>
<path d="M575.365 202.486H220.627C221.477 201.466 222.497 200.277 223.347 199.257H572.645C573.665 200.447 574.515 201.466 575.365 202.486Z" fill="#D46C2C"/>
<path d="M580.804 209.115H215.188C216.038 208.095 216.888 206.906 217.738 205.886H578.255C579.105 207.076 579.954 208.095 580.804 209.115Z" fill="#D46C2C"/>
<path d="M585.904 215.914H210.769V212.685H583.524C584.374 213.705 585.054 214.725 585.904 215.914Z" fill="#D46C2C"/>
<path d="M590.493 222.543H210.769V219.314H588.283C588.963 220.334 589.813 221.353 590.493 222.543Z" fill="#D46C2C"/>
<path d="M594.742 229.172H210.769V225.943H592.703C593.382 226.963 594.062 227.982 594.742 229.172Z" fill="#D46C2C"/>
<path d="M598.822 235.801H210.769V232.572H596.952C597.462 233.591 598.142 234.781 598.822 235.801Z" fill="#D46C2C"/>
<path d="M602.561 242.43H210.769V239.201H600.691C601.371 240.221 601.881 241.41 602.561 242.43Z" fill="#D46C2C"/>
<path d="M605.961 249.059H210.769V245.83H604.261C604.941 247.02 605.451 248.04 605.961 249.059Z" fill="#D46C2C"/>
<path d="M609.02 255.688H210.769V252.459H607.49C608 253.649 608.51 254.668 609.02 255.688Z" fill="#D46C2C"/>
<path d="M611.91 262.317H210.769V259.088H610.55C611.06 260.278 611.57 261.297 611.91 262.317Z" fill="#D46C2C"/>
<path d="M614.629 268.946H210.769V265.717H613.439C613.779 266.907 614.289 267.927 614.629 268.946Z" fill="#D46C2C"/>
<path d="M617.009 275.745H210.769V272.516H615.989C616.329 273.536 616.669 274.556 617.009 275.745Z" fill="#D46C2C"/>
<path d="M619.219 282.205H210.769V279.145H618.199C618.539 280.165 618.879 281.185 619.219 282.205Z" fill="#D46C2C"/>
<path d="M621.258 289.003H210.769V285.774H620.238C620.578 286.794 620.918 287.814 621.258 289.003Z" fill="#D46C2C"/>
<path d="M622.958 295.632H210.769V292.403H622.108C622.448 293.423 622.788 294.442 622.958 295.632Z" fill="#D46C2C"/>
<path d="M624.488 302.261H210.769V299.032H623.808C624.148 300.052 624.318 301.241 624.488 302.261Z" fill="#D46C2C"/>
<path d="M625.848 308.89H210.769V305.661H625.168C625.508 306.681 625.678 307.871 625.848 308.89Z" fill="#D46C2C"/>
<path d="M627.037 315.52H210.769V312.29H626.528C626.698 313.48 626.867 314.5 627.037 315.52Z" fill="#D46C2C"/>
<path d="M627.887 322.148H210.769V318.919H627.547C627.717 320.109 627.887 321.129 627.887 322.148Z" fill="#D46C2C"/>
<path d="M628.737 328.777H210.769V325.548H628.397C628.567 326.738 628.567 327.758 628.737 328.777Z" fill="#D46C2C"/>
<path d="M629.247 335.407H210.769V332.177H629.077C629.077 333.367 629.247 334.387 629.247 335.407Z" fill="#D46C2C"/>
<path d="M629.587 342.036H210.769V338.806H629.417C629.587 339.996 629.587 341.016 629.587 342.036Z" fill="#D46C2C"/>
<path d="M629.757 348.835H210.769V345.605H629.757C629.757 346.625 629.757 347.645 629.757 348.835Z" fill="#D46C2C"/>
<path d="M629.757 352.234C629.757 353.254 629.757 354.444 629.757 355.464H210.769V352.234H629.757Z" fill="#D46C2C"/>
<path d="M629.757 358.863C629.757 359.883 629.587 361.073 629.587 362.093H210.769V358.863H629.757Z" fill="#D46C2C"/>
<path d="M629.417 365.492C629.417 366.512 629.247 367.702 629.247 368.722H210.769V365.492H629.417Z" fill="#D46C2C"/>
<path d="M628.907 372.121C628.907 373.141 628.737 374.331 628.567 375.351H210.769V372.121H628.907Z" fill="#D46C2C"/>
<path d="M628.227 378.75C628.057 379.77 628.057 380.96 627.887 381.98H210.769V378.75H628.227Z" fill="#D46C2C"/>
<path d="M627.377 385.379C627.207 386.399 627.037 387.419 626.867 388.609H210.769V385.379H627.377Z" fill="#D46C2C"/>
<path d="M626.358 392.178C626.188 393.198 626.018 394.388 625.848 395.408H210.769V392.178H626.358Z" fill="#D46C2C"/>
<path d="M624.998 398.807C624.828 399.827 624.488 401.017 624.318 402.037H210.769V398.807H624.998Z" fill="#D46C2C"/>
<path d="M623.638 405.436C623.298 406.456 623.128 407.646 622.788 408.665H210.769V405.436H623.638Z" fill="#D46C2C"/>
<path d="M621.938 412.065C621.768 413.085 621.428 414.275 621.088 415.295H210.769V412.065H621.938Z" fill="#D46C2C"/>
<path d="M620.068 418.694C619.729 419.714 619.389 420.904 619.049 421.924H210.769V418.694H620.068Z" fill="#D46C2C"/>
<path d="M617.859 425.323C617.519 426.343 617.179 427.533 616.669 428.553H210.769V425.323H617.859Z" fill="#D46C2C"/>
<path d="M615.479 431.952C615.139 432.972 614.629 434.162 614.289 435.182H210.769V431.952H615.479Z" fill="#D46C2C"/>
<path d="M612.93 438.581C612.59 439.601 612.08 440.791 611.74 441.811H210.769V438.581H612.93Z" fill="#D46C2C"/>
<path d="M610.21 445.21C609.7 446.23 609.19 447.42 608.85 448.44H210.769V445.21H610.21Z" fill="#D46C2C"/>
<path d="M607.15 451.839C606.641 452.859 606.131 454.049 605.621 455.069H210.769V451.839H607.15Z" fill="#D46C2C"/>
<path d="M603.751 458.638C603.241 459.658 602.731 460.848 602.051 461.868H210.769V458.638H603.751Z" fill="#D46C2C"/>
<path d="M600.181 465.267C599.672 466.287 598.992 467.477 598.312 468.497H210.769V465.267H600.181Z" fill="#D46C2C"/>
<path d="M596.272 471.896C595.592 472.916 594.912 474.106 594.232 475.126H210.769V471.896H596.272Z" fill="#D46C2C"/>
<path d="M592.023 478.526C591.343 479.545 590.663 480.735 589.983 481.755H210.769V478.526H592.023Z" fill="#D46C2C"/>
<path d="M587.603 485.154C586.923 486.174 586.073 487.364 585.394 488.384H210.769V485.154H587.603Z" fill="#D46C2C"/>
<path d="M582.674 491.783C581.824 492.803 581.144 493.993 580.294 495.013H215.698C214.848 493.993 213.999 492.803 213.319 491.783H582.674Z" fill="#D46C2C"/>
<path d="M577.405 498.412C576.555 499.432 575.705 500.622 574.685 501.642H221.137C220.287 500.622 219.438 499.602 218.418 498.412H577.405Z" fill="#D46C2C"/>
<path d="M571.795 505.041C570.946 506.061 569.926 507.251 568.906 508.271H227.086C226.067 507.251 225.217 506.231 224.197 505.041H571.795Z" fill="#D46C2C"/>
<path d="M565.677 511.671C564.657 512.69 563.637 513.88 562.617 514.9H233.376C232.356 513.88 231.336 512.86 230.316 511.671H565.677Z" fill="#D46C2C"/>
<path d="M559.048 518.3C557.858 519.319 556.838 520.509 555.648 521.529H240.345C239.155 520.509 238.135 519.489 236.945 518.3H559.048Z" fill="#D46C2C"/>
<path d="M551.909 524.929C550.719 525.949 549.529 527.138 548.339 528.158H247.823C246.634 527.138 245.444 526.119 244.084 524.929H551.909Z" fill="#D46C2C"/>
<path d="M544.09 531.728C542.73 532.748 541.37 533.937 540.01 534.957H255.812C254.452 533.937 253.093 532.918 251.733 531.728H544.09Z" fill="#D46C2C"/>
<path d="M535.591 538.357C534.061 539.377 532.701 540.566 531.171 541.586H264.991C263.461 540.566 261.931 539.547 260.571 538.357H535.591Z" fill="#D46C2C"/>
<path d="M526.072 544.986C524.373 546.176 522.843 547.196 521.143 548.216H275.019C273.32 547.196 271.79 546.176 270.09 544.986H526.072Z" fill="#D46C2C"/>
<path d="M515.364 551.615C513.494 552.804 511.625 553.824 509.755 554.844H286.238C284.368 553.824 282.498 552.804 280.629 551.615H515.364Z" fill="#D46C2C"/>
<path d="M503.296 558.244C501.086 559.264 499.046 560.453 496.837 561.473H299.156C296.946 560.453 294.736 559.434 292.697 558.244H503.296Z" fill="#D46C2C"/>
<path d="M489.018 564.873C486.468 566.063 483.749 567.082 481.199 568.102H314.794C312.074 567.082 309.524 566.063 306.975 564.873H489.018Z" fill="#D46C2C"/>
<path d="M471.51 571.501C468.111 572.691 464.711 573.711 461.312 574.731H334.681C331.281 573.711 327.882 572.691 324.482 571.501H471.51Z" fill="#D46C2C"/>
<path d="M600.691 517.79C550.889 582.21 472.87 623.684 385.163 623.684" stroke="#4D4D4D" stroke-width="3.7465" stroke-miterlimit="10"/>
<path d="M657.293 351.724C657.293 414.275 636.216 471.896 600.691 517.79" stroke="#808490" stroke-width="1.8732" stroke-miterlimit="10" stroke-linecap="round"/>
<path d="M645.735 273.026C653.214 298.012 657.293 324.358 657.293 351.724" stroke="#808490" stroke-width="5.6197" stroke-miterlimit="10"/>
<path d="M564.147 146.734C602.221 179.88 630.777 223.563 645.735 273.026" stroke="#333333" stroke-width="1.8732" stroke-miterlimit="10"/>
<path d="M385.333 79.5944C453.833 79.5944 516.384 104.921 564.147 146.734" stroke="#808490" stroke-width="1.8732" stroke-miterlimit="10" stroke-linecap="round"/>
<path d="M240.684 121.238C282.498 94.8921 332.131 79.5944 385.333 79.5944" stroke="#808080" stroke-width="5.6197" stroke-miterlimit="10"/>
<path d="M155.187 206.565C176.944 172.061 206.18 142.825 240.685 121.238" stroke="#808490" stroke-width="1.8732" stroke-miterlimit="10" stroke-linecap="round"/>
<path d="M113.203 351.724C113.203 298.352 128.501 248.549 155.187 206.565" stroke="#808490" stroke-width="0.9366" stroke-miterlimit="10"/>
<path d="M119.832 411.895C115.413 392.518 113.203 372.461 113.203 351.724" stroke="#4D4D4D" stroke-width="1.8732" stroke-miterlimit="10"/>
<path d="M192.412 543.626C157.057 507.931 131.391 462.718 119.832 411.895" stroke="#808490" stroke-width="5.6197" stroke-miterlimit="10"/>
<path d="M385.333 623.684C310.034 623.684 241.874 593.089 192.582 543.626" stroke="#808490" stroke-width="0.9366" stroke-miterlimit="10"/>
<path d="M617.179 351.724C617.179 479.715 513.324 583.57 385.333 583.57C321.083 583.57 262.951 557.394 220.967 515.24C190.712 484.814 168.955 446.23 159.097 403.056C155.357 386.569 153.317 369.401 153.317 351.724C153.317 223.733 257.172 119.878 385.163 119.878C443.465 119.878 496.837 141.465 537.631 176.99C570.096 205.206 594.402 242.43 607.15 284.584C613.609 305.831 617.179 328.438 617.179 351.724Z" fill="url(#paint0_linear)"/>
<path d="M607.32 284.754L220.967 515.24C190.712 484.815 168.955 446.23 159.096 403.057L537.63 177.16C570.096 205.376 594.572 242.43 607.32 284.754Z" fill="url(#paint1_linear)"/>
<path d="M583.694 351.724C583.694 367.192 581.994 382.15 578.595 396.598C558.198 484.475 479.329 550.085 385.333 550.085C368.846 550.085 352.868 548.045 337.57 544.306C265.501 526.459 208.899 469.177 192.072 396.598C188.842 382.15 186.972 367.192 186.972 351.724C186.972 336.257 188.672 321.299 192.072 306.851C212.469 218.804 291.167 153.364 385.333 153.364C446.694 153.364 501.596 181.24 537.971 224.923C557.518 248.21 571.626 276.256 578.765 306.851C581.824 321.299 583.694 336.257 583.694 351.724Z" fill="url(#paint2_linear)"/>
<path d="M583.694 351.724C583.694 367.192 581.994 382.15 578.595 396.598C558.198 484.475 479.329 550.085 385.333 550.085C368.846 550.085 352.868 548.045 337.57 544.306C270.09 524.589 217.738 469.517 201.76 400.507C198.531 386.229 196.831 371.441 196.831 356.144C196.831 340.846 198.531 326.058 201.76 311.78C221.817 224.923 299.666 160.163 392.642 160.163C450.264 160.163 502.276 184.979 537.971 224.753C557.518 248.04 571.626 276.085 578.765 306.681C581.824 321.299 583.694 336.257 583.694 351.724Z" fill="url(#paint3_linear)"/>
<path d="M371.703 392.911L311.054 297.922L371.703 202.656L432.075 297.922L371.703 392.911Z" fill="white"/>
<path d="M396.351 212.349L450.63 297.922L396.351 383.495L342.071 297.922L396.351 212.349ZM396.351 202.656L335.978 297.645L396.351 392.634L456.723 297.645L396.351 202.656Z" fill="#D46C2C"/>
<path d="M365.93 426.865V451.185L346.016 426.865H338.348V466.922H347.504V442.602L367.475 466.922H375.086V426.865H365.93Z" fill="#4D4D4D"/>
<path d="M414.835 434.304V426.865H384.563V466.922H393.834V452.33H412.374V444.891H393.834V434.304H414.835Z" fill="#4D4D4D"/>
<path d="M429.688 466.922H438.958V434.418H451.776V426.865H416.869V434.418H429.688V466.922Z" fill="#4D4D4D"/>
<path d="M515.734 438.273L518.808 443.542L525.982 444.392L520.858 448.472L522.088 454.251L515.734 451.531L509.38 454.251L510.61 448.472L505.486 444.392L512.659 443.542L515.734 438.273Z" fill="white"/>
<path d="M294.169 438.273L297.449 443.543L304.417 444.392L299.293 448.472L300.523 454.251L294.169 451.531L287.815 454.251L289.045 448.472L283.921 444.392L291.095 443.543L294.169 438.273Z" fill="white"/>
<path d="M304.01 479.298V488.171L296.784 479.298H294.781V492.402H297.196V483.529L304.421 492.402H306.424V479.298H304.01Z" fill="white"/>
<path d="M314.204 492.533C317.311 492.533 319.539 490.399 319.539 487.404C319.539 484.409 317.311 482.293 314.204 482.293C311.134 482.293 308.887 484.409 308.887 487.404C308.887 490.399 311.134 492.533 314.204 492.533ZM314.204 490.53C312.519 490.53 311.246 489.313 311.246 487.404C311.246 485.494 312.519 484.278 314.204 484.278C315.907 484.278 317.18 485.494 317.18 487.404C317.18 489.313 315.907 490.53 314.204 490.53Z" fill="white"/>
<path d="M327.449 482.293C325.988 482.293 324.772 482.78 324.004 483.697V482.406H321.776V492.402H324.116V487.348C324.116 485.345 325.24 484.334 326.906 484.334C328.403 484.334 329.283 485.195 329.283 486.973V492.402H331.623V486.674C331.623 483.66 329.845 482.293 327.449 482.293Z" fill="white"/>
<path d="M334.086 488.171H339.234V486.224H334.086V488.171Z" fill="white"/>
<path d="M345.856 480.272C346.343 480.272 346.792 480.44 347.148 480.683L347.803 478.924C347.279 478.549 346.493 478.381 345.688 478.381C343.367 478.381 342.112 479.747 342.112 481.844V482.481H340.465V484.353H342.112V492.402H344.452V484.353H347.129V482.481H344.377V481.882C344.377 480.814 344.883 480.272 345.856 480.272Z" fill="white"/>
<path d="M356.042 482.406V487.46C356.042 489.463 354.938 490.474 353.309 490.474C351.83 490.474 350.969 489.613 350.969 487.797V482.406H348.629V488.115C348.629 491.129 350.37 492.533 352.935 492.533C354.227 492.533 355.406 492.046 356.155 491.129V492.402H358.382V482.406H356.042Z" fill="white"/>
<path d="M367.118 482.293C365.658 482.293 364.441 482.78 363.674 483.697V482.406H361.446V492.402H363.786V487.348C363.786 485.345 364.909 484.334 366.575 484.334C368.073 484.334 368.953 485.195 368.953 486.973V492.402H371.293V486.674C371.293 483.66 369.514 482.293 367.118 482.293Z" fill="white"/>
<path d="M382.046 482.406V483.735C381.223 482.743 379.987 482.293 378.583 482.293C375.719 482.293 373.529 484.203 373.529 487.104C373.529 490.006 375.719 491.953 378.583 491.953C379.931 491.953 381.11 491.522 381.934 490.624V491.148C381.934 493.169 380.96 494.18 378.752 494.18C377.366 494.18 375.944 493.712 375.064 492.982L374.015 494.742C375.157 495.678 377.011 496.165 378.883 496.165C382.383 496.165 384.274 494.517 384.274 490.886V482.406H382.046ZM378.939 489.968C377.16 489.968 375.887 488.808 375.887 487.104C375.887 485.42 377.16 484.278 378.939 484.278C380.698 484.278 381.971 485.42 381.971 487.104C381.971 488.808 380.698 489.968 378.939 489.968Z" fill="white"/>
<path d="M388.53 480.758C389.409 480.758 390.027 480.122 390.027 479.298C390.027 478.531 389.391 477.95 388.53 477.95C387.668 477.95 387.032 478.568 387.032 479.354C387.032 480.141 387.668 480.758 388.53 480.758ZM387.35 492.402H389.69V482.406H387.35V492.402Z" fill="white"/>
<path d="M398.302 482.293C397.029 482.293 395.906 482.724 395.101 483.622V478.512H392.761V492.402H394.989V491.11C395.775 492.065 396.936 492.533 398.302 492.533C401.223 492.533 403.375 490.511 403.375 487.404C403.375 484.296 401.223 482.293 398.302 482.293ZM398.04 490.53C396.356 490.53 395.064 489.313 395.064 487.404C395.064 485.494 396.356 484.278 398.04 484.278C399.725 484.278 400.998 485.494 400.998 487.404C400.998 489.313 399.725 490.53 398.04 490.53Z" fill="white"/>
<path d="M405.595 492.402H407.935V478.512H405.595V492.402Z" fill="white"/>
<path d="M420.403 487.46C420.403 484.334 418.269 482.293 415.349 482.293C412.372 482.293 410.182 484.427 410.182 487.404C410.182 490.38 412.354 492.533 415.704 492.533C417.427 492.533 418.831 491.971 419.729 490.904L418.475 489.463C417.764 490.193 416.884 490.549 415.761 490.549C414.02 490.549 412.803 489.613 412.522 488.153H420.366C420.384 487.928 420.403 487.647 420.403 487.46ZM415.349 484.165C416.884 484.165 417.988 485.157 418.175 486.599H412.503C412.728 485.139 413.832 484.165 415.349 484.165Z" fill="white"/>
<path d="M433.178 490.193C432.822 490.474 432.354 490.605 431.868 490.605C430.969 490.605 430.482 490.081 430.482 489.107V484.353H433.159V482.481H430.482V480.197H428.142V482.481H426.495V484.353H428.142V489.163C428.142 491.372 429.397 492.533 431.587 492.533C432.429 492.533 433.272 492.308 433.833 491.859L433.178 490.193Z" fill="white"/>
<path d="M439.922 492.533C443.029 492.533 445.257 490.399 445.257 487.404C445.257 484.409 443.029 482.293 439.922 482.293C436.852 482.293 434.605 484.409 434.605 487.404C434.605 490.399 436.852 492.533 439.922 492.533ZM439.922 490.53C438.237 490.53 436.964 489.313 436.964 487.404C436.964 485.494 438.237 484.278 439.922 484.278C441.625 484.278 442.898 485.494 442.898 487.404C442.898 489.313 441.625 490.53 439.922 490.53Z" fill="white"/>
<path d="M455.039 492.402H457.884L453.316 486.599L457.491 482.406H454.683L449.834 486.898V478.512H447.495V492.402H449.834V489.762L451.575 488.115L455.039 492.402Z" fill="white"/>
<path d="M468.372 487.46C468.372 484.334 466.238 482.293 463.318 482.293C460.341 482.293 458.151 484.427 458.151 487.404C458.151 490.38 460.323 492.533 463.674 492.533C465.396 492.533 466.8 491.971 467.698 490.904L466.444 489.463C465.733 490.193 464.853 490.549 463.73 490.549C461.989 490.549 460.772 489.613 460.491 488.153H468.335C468.353 487.928 468.372 487.647 468.372 487.46ZM463.318 484.165C464.853 484.165 465.957 485.157 466.145 486.599H460.472C460.697 485.139 461.802 484.165 463.318 484.165Z" fill="white"/>
<path d="M476.292 482.293C474.832 482.293 473.615 482.78 472.848 483.697V482.406H470.62V492.402H472.96V487.348C472.96 485.345 474.083 484.334 475.749 484.334C477.247 484.334 478.126 485.195 478.126 486.973V492.402H480.466V486.674C480.466 483.66 478.688 482.293 476.292 482.293Z" fill="white"/>
<path d="M641.145 170.701C672.03 170.701 697.067 145.664 697.067 114.779C697.067 83.8944 672.03 58.8573 641.145 58.8573C610.261 58.8573 585.224 83.8944 585.224 114.779C585.224 145.664 610.261 170.701 641.145 170.701Z" fill="white"/>
<path d="M632.987 146.225C629.927 145.205 627.547 143.845 625.848 142.315L628.057 137.556C629.757 139.086 631.797 140.275 634.346 141.125C636.896 141.975 639.616 142.485 642.165 142.485C645.735 142.485 648.454 141.805 650.154 140.615C651.854 139.426 652.874 137.726 652.874 135.856C652.874 134.326 652.364 133.137 651.514 132.287C650.494 131.437 649.304 130.587 647.944 130.247C646.585 129.737 644.545 129.227 641.995 128.547C638.766 127.697 636.216 127.017 634.176 126.168C632.137 125.318 630.437 124.128 629.077 122.598C627.717 120.898 627.037 118.859 627.037 115.969C627.037 113.589 627.717 111.55 628.907 109.68C630.097 107.81 631.967 106.28 634.346 105.261C636.726 104.071 639.786 103.561 643.525 103.561C646.075 103.561 648.624 103.901 651.004 104.581C653.384 105.261 655.593 106.111 657.293 107.47L655.253 112.4C653.384 111.21 651.514 110.36 649.474 109.85C647.434 109.17 645.395 109 643.525 109C640.126 109 637.406 109.68 635.706 110.87C634.006 112.06 633.157 113.759 633.157 115.799C633.157 117.329 633.666 118.519 634.686 119.369C635.706 120.218 636.896 121.068 638.426 121.578C639.956 122.088 641.825 122.598 644.375 123.278C647.604 124.128 650.154 124.808 652.194 125.658C654.233 126.507 655.933 127.697 657.293 129.227C658.653 130.757 659.333 132.967 659.333 135.686C659.333 137.896 658.653 139.936 657.463 141.805C656.273 143.675 654.403 145.205 651.854 146.225C649.304 147.244 646.245 147.924 642.675 147.924C639.106 147.754 635.876 147.244 632.987 146.225Z" fill="#E6AA31"/>
<path d="M644.375 95.2323H640.635V156.933H644.375V95.2323Z" fill="#E6AA31"/>
<path d="M669.191 88.4331H667.831C666.982 88.4331 666.472 87.7532 666.472 87.0733V85.7135C666.472 85.0336 665.962 84.3537 665.282 84.3537C664.432 84.1837 663.582 84.8636 663.582 85.7135V87.0733C663.582 87.9231 662.902 88.4331 662.222 88.4331H660.862C660.183 88.4331 659.503 88.943 659.503 89.6229C659.333 90.4728 660.013 91.3226 660.862 91.3226H662.392C663.242 91.3226 663.752 92.0025 663.752 92.6824V94.0422C663.752 94.7221 664.262 95.402 664.942 95.402C665.792 95.572 666.642 94.8921 666.642 94.0422V92.5125C666.642 91.6626 667.322 91.1527 668.001 91.1527H669.531C670.381 91.1527 671.061 90.3028 670.891 89.4529C670.551 88.943 669.871 88.4331 669.191 88.4331Z" fill="#4D4D4D"/>
<path d="M629.587 79.7645H627.887C627.037 79.7645 626.188 79.0846 626.188 78.0647V76.365C626.188 75.5151 625.678 74.8352 624.828 74.6652C623.808 74.4953 622.788 75.3451 622.788 76.365V78.0647C622.788 78.9146 622.108 79.7645 621.088 79.7645H619.389C618.539 79.7645 617.859 80.2744 617.689 81.1243C617.519 82.1441 618.369 83.164 619.389 83.164H621.088C621.938 83.164 622.788 83.8439 622.788 84.8637V86.5635C622.788 87.4133 623.298 88.0932 624.148 88.2632C625.168 88.4332 626.188 87.5833 626.188 86.5635V84.8637C626.188 84.0138 626.867 83.164 627.887 83.164H629.587C630.607 83.164 631.457 82.3141 631.287 81.1243C631.117 80.4444 630.437 79.7645 629.587 79.7645Z" fill="#4D4D4D"/>
<path d="M210.089 640.001H60.341C54.052 640.001 49.1227 634.902 49.1227 628.783V564.533C49.1227 558.243 54.2219 553.314 60.341 553.314H210.259C216.548 553.314 221.477 558.413 221.477 564.533V628.783C221.477 634.902 216.378 640.001 210.089 640.001Z" fill="white"/>
<path d="M78.1884 569.292H70.5396V586.799H78.1884V569.292Z" fill="#4D4D4D"/>
<path d="M89.2366 569.292H81.5878V586.799H89.2366V569.292Z" fill="#4D4D4D"/>
<path d="M100.285 569.292H92.6362V586.799H100.285V569.292Z" fill="#E6AA31"/>
<path d="M111.334 569.292H103.685V586.799H111.334V569.292Z" fill="#E6AA31"/>
<path d="M122.382 569.292H114.733V586.799H122.382V569.292Z" fill="#E6AA31"/>
<path d="M152.807 569.292H145.158V586.799H152.807V569.292Z" fill="#4D4D4D"/>
<path d="M163.856 569.292H156.207V586.799H163.856V569.292Z" fill="#4D4D4D"/>
<path d="M174.904 569.292H167.255V586.799H174.904V569.292Z" fill="#4D4D4D"/>
<path d="M185.952 569.292H178.304V586.799H185.952V569.292Z" fill="#4D4D4D"/>
<path d="M197.001 569.292H189.352V586.799H197.001V569.292Z" fill="#4D4D4D"/>
<path d="M136.66 578.301H130.201V579.83H136.66V578.301Z" fill="#4D4D4D"/>
<path d="M212.299 559.093L243.744 527.818" stroke="#999999" stroke-width="1.8732" stroke-miterlimit="10" stroke-linecap="round"/>
<path d="M125.442 600.057H70.8796V605.667H125.442V600.057Z" fill="#E3E4E9"/>
<path d="M149.578 612.295H70.8796V617.904H149.578V612.295Z" fill="#E3E4E9"/>
<path d="M132.071 624.534H70.8796V630.143H132.071V624.534Z" fill="#E3E4E9"/>
<path d="M198.361 624.534H146.009V630.143H198.361V624.534Z" fill="#E3E4E9"/>
<path d="M160.796 151.494H57.7915V103.051C65.6103 95.2321 70.0297 90.8127 78.0185 82.8239H181.023V131.267C173.034 139.256 168.615 143.675 160.796 151.494Z" fill="white"/>
<path d="M94.3358 110.02H168.275L119.152 92.6824L122.042 103.391H94.3358C92.4661 103.391 91.1063 104.921 91.1063 106.62C91.1063 108.49 92.6361 110.02 94.3358 110.02Z" fill="#4D4D4D"/>
<path d="M142.439 121.748H71.0494L120.172 138.916L117.283 128.207H142.439C144.309 128.207 145.668 126.678 145.668 124.978C145.668 123.278 144.139 121.748 142.439 121.748Z" fill="#E6AA31"/>
<path d="M175.074 141.465C175.074 144.015 173.034 145.885 170.655 145.885C168.275 145.885 166.235 143.845 166.235 141.465C166.235 139.086 168.275 137.046 170.655 137.046C173.034 137.046 175.074 138.916 175.074 141.465Z" fill="#4D4D4D"/>
<path d="M180.513 148.434C182.043 148.434 183.403 149.794 183.403 151.324C183.403 152.854 182.043 154.213 180.513 154.213C178.983 154.213 177.624 152.854 177.624 151.324C177.624 149.794 178.983 148.434 180.513 148.434ZM180.513 146.904C177.964 146.904 176.094 148.944 176.094 151.324C176.094 153.873 178.134 155.743 180.513 155.743C183.063 155.743 184.933 153.703 184.933 151.324C185.103 148.774 183.063 146.904 180.513 146.904Z" fill="#3A3E4E"/>
<path d="M194.961 161.182C194.961 163.732 192.922 165.602 190.542 165.602C187.992 165.602 186.123 163.562 186.123 161.182C186.123 158.633 188.162 156.763 190.542 156.763C192.922 156.763 194.961 158.803 194.961 161.182Z" fill="#4D4D4D"/>
<path d="M646.356 561.934L621.236 587.053L621.837 587.654L646.957 562.535L646.356 561.934Z" fill="#666666"/>
<path d="M648.193 563.882L623.073 589.002L623.674 589.603L648.793 564.483L648.193 563.882Z" fill="#666666"/>
<path d="M650.27 565.828L625.151 590.947L625.751 591.548L650.871 566.429L650.27 565.828Z" fill="#666666"/>
<path d="M694.177 577.281H646.754C642.335 572.861 639.955 570.482 635.536 566.062V518.809C639.955 514.39 642.335 512.01 646.754 507.591H694.177C698.597 512.01 700.976 514.39 705.396 518.809V566.232C700.976 570.482 698.427 573.031 694.177 577.281Z" fill="#4D4D4D"/>
<path d="M692.308 569.802H648.624C646.585 567.762 645.395 566.572 643.185 564.362V520.679C645.225 518.639 646.415 517.449 648.624 515.24H692.308C694.348 517.279 695.537 518.469 697.747 520.679V564.362C695.537 566.402 694.348 567.592 692.308 569.802Z" fill="#808080"/>
<path d="M653.214 502.492H650.664V510.141H653.214V502.492Z" fill="#666666"/>
<path d="M659.503 502.491H656.953V510.14H659.503V502.491Z" fill="#666666"/>
<path d="M665.622 502.491H663.072V510.14H665.622V502.491Z" fill="#666666"/>
<path d="M671.741 502.491H669.191V510.14H671.741V502.491Z" fill="#666666"/>
<path d="M677.86 502.491H675.31V510.14H677.86V502.491Z" fill="#666666"/>
<path d="M683.979 502.491H681.43V510.14H683.979V502.491Z" fill="#666666"/>
<path d="M690.268 502.491H687.719V510.14H690.268V502.491Z" fill="#666666"/>
<path d="M653.214 574.901H650.664V582.55H653.214V574.901Z" fill="#666666"/>
<path d="M659.503 574.901H656.953V582.55H659.503V574.901Z" fill="#666666"/>
<path d="M665.622 574.901H663.072V582.55H665.622V574.901Z" fill="#666666"/>
<path d="M671.741 574.901H669.191V582.55H671.741V574.901Z" fill="#666666"/>
<path d="M677.86 574.901H675.31V582.55H677.86V574.901Z" fill="#666666"/>
<path d="M683.979 574.901H681.43V582.55H683.979V574.901Z" fill="#666666"/>
<path d="M690.268 574.901H687.719V582.55H690.268V574.901Z" fill="#666666"/>
<path d="M710.489 525.301V522.752H702.84V525.301H710.489Z" fill="#666666"/>
<path d="M710.525 531.456V528.907H702.876V531.456H710.525Z" fill="#666666"/>
<path d="M710.391 537.611V535.062H702.742V537.611H710.391Z" fill="#666666"/>
<path d="M710.427 543.767V541.217H702.778V543.767H710.427Z" fill="#666666"/>
<path d="M710.463 549.922V547.372H702.814V549.922H710.463Z" fill="#666666"/>
<path d="M710.499 556.077V553.528H702.85V556.077H710.499Z" fill="#666666"/>
<path d="M710.365 562.232V559.682H702.716V562.232H710.365Z" fill="#666666"/>
<path d="M638.078 525.303V522.753H630.429V525.303H638.078Z" fill="#666666"/>
<path d="M638.114 531.458V528.908H630.465V531.458H638.114Z" fill="#666666"/>
<path d="M637.98 537.613V535.064H630.331V537.613H637.98Z" fill="#666666"/>
<path d="M638.016 543.768V541.219H630.367V543.768H638.016Z" fill="#666666"/>
<path d="M638.052 549.924V547.374H630.403V549.924H638.052Z" fill="#666666"/>
<path d="M638.088 556.079V553.529H630.439V556.079H638.088Z" fill="#666666"/>
<path d="M637.954 562.234V559.684H630.305V562.234H637.954Z" fill="#666666"/>
<path d="M627.208 625.724H594.572C591.513 622.664 589.813 620.964 586.754 617.905V585.27C589.813 582.21 591.513 580.51 594.572 577.451H627.208C630.267 580.51 631.967 582.21 635.026 585.27V617.905C631.967 621.134 630.267 622.834 627.208 625.724Z" fill="#E98931"/>
<path d="M626.018 620.455H595.762C594.232 618.925 593.552 618.245 592.023 616.715V586.46C593.552 584.93 594.232 584.25 595.762 582.72H626.018C627.547 584.25 628.227 584.93 629.757 586.46V616.715C628.227 618.245 627.377 619.095 626.018 620.455Z" fill="#F1B331"/>
<path d="M598.992 574.051H597.292V579.32H598.992V574.051Z" fill="#B3B3B3"/>
<path d="M603.241 574.051H601.541V579.32H603.241V574.051Z" fill="#B3B3B3"/>
<path d="M607.49 574.051H605.791V579.32H607.49V574.051Z" fill="#B3B3B3"/>
<path d="M611.74 574.051H610.04V579.32H611.74V574.051Z" fill="#B3B3B3"/>
<path d="M615.989 574.051H614.289V579.32H615.989V574.051Z" fill="#B3B3B3"/>
<path d="M620.239 574.051H618.539V579.32H620.239V574.051Z" fill="#B3B3B3"/>
<path d="M624.488 574.051H622.788V579.32H624.488V574.051Z" fill="#B3B3B3"/>
<path d="M598.992 624.024H597.292V629.293H598.992V624.024Z" fill="#B3B3B3"/>
<path d="M603.241 624.024H601.541V629.293H603.241V624.024Z" fill="#B3B3B3"/>
<path d="M607.49 624.024H605.791V629.293H607.49V624.024Z" fill="#B3B3B3"/>
<path d="M611.74 624.024H610.04V629.293H611.74V624.024Z" fill="#B3B3B3"/>
<path d="M615.989 624.024H614.289V629.293H615.989V624.024Z" fill="#B3B3B3"/>
<path d="M620.239 624.024H618.539V629.293H620.239V624.024Z" fill="#B3B3B3"/>
<path d="M624.488 624.024H622.788V629.293H624.488V624.024Z" fill="#B3B3B3"/>
<path d="M638.524 589.772V588.072H633.255V589.772H638.524Z" fill="#B3B3B3"/>
<path d="M638.526 594.024V592.324H633.257V594.024H638.526Z" fill="#B3B3B3"/>
<path d="M638.529 598.276V596.576H633.26V598.276H638.529Z" fill="#B3B3B3"/>
<path d="M638.531 602.528V600.828H633.262V602.528H638.531Z" fill="#B3B3B3"/>
<path d="M638.534 606.78V605.08H633.265V606.78H638.534Z" fill="#B3B3B3"/>
<path d="M638.537 611.032V609.332H633.268V611.032H638.537Z" fill="#B3B3B3"/>
<path d="M638.539 615.284V613.584H633.27V615.284H638.539Z" fill="#B3B3B3"/>
<path d="M588.502 589.821V588.121H583.233V589.821H588.502Z" fill="#B3B3B3"/>
<path d="M588.505 594.073V592.373H583.235V594.073H588.505Z" fill="#B3B3B3"/>
<path d="M588.507 598.325V596.625H583.238V598.325H588.507Z" fill="#B3B3B3"/>
<path d="M588.51 602.577V600.877H583.241V602.577H588.51Z" fill="#B3B3B3"/>
<path d="M588.513 606.829V605.129H583.243V606.829H588.513Z" fill="#B3B3B3"/>
<path d="M588.515 611.081V609.381H583.246V611.081H588.515Z" fill="#B3B3B3"/>
<path d="M588.518 615.333V613.633H583.249V615.333H588.518Z" fill="#B3B3B3"/>
<path d="M65.7805 384.02H36.3749C33.6553 381.3 32.1255 379.77 29.4059 377.051V347.475C32.1255 344.755 33.6553 343.226 36.3749 340.506H65.9505C68.6701 343.226 70.1999 344.755 72.9195 347.475V377.051C70.0299 379.6 68.5001 381.13 65.7805 384.02Z" fill="#4D4D4D"/>
<path d="M64.7606 379.26H37.5647C36.2049 377.9 35.525 377.22 34.1652 375.861V348.665C35.525 347.305 36.2049 346.625 37.5647 345.265H64.7606C66.1204 346.625 66.8003 347.305 68.1601 348.665V375.861C66.8003 377.051 65.9505 377.9 64.7606 379.26Z" fill="#808080"/>
<path d="M40.2843 337.277H38.7545V342.036H40.2843V337.277Z" fill="#666666"/>
<path d="M44.1935 337.277H42.6637V342.036H44.1935V337.277Z" fill="#666666"/>
<path d="M47.9331 337.277H46.4033V342.036H47.9331V337.277Z" fill="#666666"/>
<path d="M51.8425 337.277H50.3127V342.036H51.8425V337.277Z" fill="#666666"/>
<path d="M55.5819 337.277H54.0521V342.036H55.5819V337.277Z" fill="#666666"/>
<path d="M59.4914 337.277H57.9617V342.036H59.4914V337.277Z" fill="#666666"/>
<path d="M63.4009 337.277H61.8711V342.036H63.4009V337.277Z" fill="#666666"/>
<path d="M40.2843 382.32H38.7545V387.079H40.2843V382.32Z" fill="#666666"/>
<path d="M44.1935 382.32H42.6637V387.079H44.1935V382.32Z" fill="#666666"/>
<path d="M47.9331 382.32H46.4033V387.079H47.9331V382.32Z" fill="#666666"/>
<path d="M51.8425 382.32H50.3127V387.079H51.8425V382.32Z" fill="#666666"/>
<path d="M55.5819 382.32H54.0521V387.079H55.5819V382.32Z" fill="#666666"/>
<path d="M59.4914 382.32H57.9617V387.079H59.4914V382.32Z" fill="#666666"/>
<path d="M63.4009 382.32H61.8711V387.079H63.4009V382.32Z" fill="#666666"/>
<path d="M76.0128 351.528V349.998H71.2535V351.528H76.0128Z" fill="#666666"/>
<path d="M75.9366 355.361V353.831H71.1773V355.361H75.9366Z" fill="#666666"/>
<path d="M76.0306 359.194V357.664H71.2713V359.194H76.0306Z" fill="#666666"/>
<path d="M75.9542 363.027V361.498H71.1949V363.027H75.9542Z" fill="#666666"/>
<path d="M76.0482 366.86V365.331H71.2889V366.86H76.0482Z" fill="#666666"/>
<path d="M75.9722 370.694V369.164H71.2129V370.694H75.9722Z" fill="#666666"/>
<path d="M76.0659 374.528V372.998H71.3066V374.528H76.0659Z" fill="#666666"/>
<path d="M30.9167 351.41V349.88H26.1574V351.41H30.9167Z" fill="#666666"/>
<path d="M30.8406 355.244V353.714H26.0813V355.244H30.8406Z" fill="#666666"/>
<path d="M30.9343 359.076V357.547H26.175V359.076H30.9343Z" fill="#666666"/>
<path d="M30.8584 362.91V361.38H26.0991V362.91H30.8584Z" fill="#666666"/>
<path d="M30.9521 366.743V365.213H26.1928V366.743H30.9521Z" fill="#666666"/>
<path d="M30.8761 370.577V369.047H26.1168V370.577H30.8761Z" fill="#666666"/>
<path d="M30.9698 374.41V372.88H26.2105V374.41H30.9698Z" fill="#666666"/>
<path d="M451.623 60.3872H426.807C424.597 58.1775 423.237 56.8177 420.858 54.438V29.6217C423.067 27.412 424.427 26.0522 426.807 23.6726H451.623C453.833 25.8823 455.193 27.2421 457.572 29.6217V54.438C455.193 56.8177 453.833 58.0075 451.623 60.3872Z" fill="#4D4D4D"/>
<path d="M450.604 56.3078H427.657C426.467 55.118 425.957 54.6081 424.767 53.4183V30.6416C425.957 29.4518 426.467 28.9419 427.657 27.752H450.604C451.793 28.9419 452.303 29.4518 453.493 30.6416V53.5882C452.303 54.6081 451.793 55.288 450.604 56.3078Z" fill="#808080"/>
<path d="M430.206 21.123H428.847V25.0324H430.206V21.123Z" fill="#666666"/>
<path d="M433.436 21.123H432.076V25.0324H433.436V21.123Z" fill="#666666"/>
<path d="M436.665 21.123H435.306V25.0324H436.665V21.123Z" fill="#666666"/>
<path d="M439.895 21.123H438.535V25.0324H439.895V21.123Z" fill="#666666"/>
<path d="M443.124 21.123H441.765V25.0324H443.124V21.123Z" fill="#666666"/>
<path d="M446.354 21.123H444.994V25.0324H446.354V21.123Z" fill="#666666"/>
<path d="M449.583 21.123H448.224V25.0324H449.583V21.123Z" fill="#666666"/>
<path d="M430.206 59.0276H428.847V62.937H430.206V59.0276Z" fill="#666666"/>
<path d="M433.436 59.0276H432.076V62.9371H433.436V59.0276Z" fill="#666666"/>
<path d="M436.665 59.0276H435.306V62.9371H436.665V59.0276Z" fill="#666666"/>
<path d="M439.895 59.0276H438.535V62.9371H439.895V59.0276Z" fill="#666666"/>
<path d="M443.124 59.0276H441.765V62.9371H443.124V59.0276Z" fill="#666666"/>
<path d="M446.354 59.0276H444.994V62.9371H446.354V59.0276Z" fill="#666666"/>
<path d="M449.583 59.0276H448.224V62.9371H449.583V59.0276Z" fill="#666666"/>
<path d="M460.04 33.0145V31.6547H456.13V33.0145H460.04Z" fill="#666666"/>
<path d="M460.035 36.2397V34.8799H456.126V36.2397H460.035Z" fill="#666666"/>
<path d="M460.201 39.4647V38.1049H456.291V39.4647H460.201Z" fill="#666666"/>
<path d="M460.196 42.6897V41.33H456.287V42.6897H460.196Z" fill="#666666"/>
<path d="M460.192 45.915V44.5552H456.282V45.915H460.192Z" fill="#666666"/>
<path d="M460.188 49.1398V47.7801H456.278V49.1398H460.188Z" fill="#666666"/>
<path d="M460.183 52.3648V51.0051H456.274V52.3648H460.183Z" fill="#666666"/>
<path d="M422.098 33.0511V31.6913H418.189V33.0511H422.098Z" fill="#666666"/>
<path d="M422.094 36.2761V34.9163H418.185V36.2761H422.094Z" fill="#666666"/>
<path d="M422.26 39.5013V38.1415H418.35V39.5013H422.26Z" fill="#666666"/>
<path d="M422.255 42.7266V41.3668H418.346V42.7266H422.255Z" fill="#666666"/>
<path d="M422.251 45.9516V44.5918H418.341V45.9516H422.251Z" fill="#666666"/>
<path d="M422.246 49.1766V47.8168H418.337V49.1766H422.246Z" fill="#666666"/>
<path d="M422.242 52.4018V51.042H418.332V52.4018H422.242Z" fill="#666666"/>
<path d="M280.289 633.373C281.321 633.373 282.158 632.536 282.158 631.503C282.158 630.47 281.321 629.633 280.289 629.633C279.256 629.633 278.419 630.47 278.419 631.503C278.419 632.536 279.256 633.373 280.289 633.373Z" fill="white"/>
<path d="M79.8882 497.392C79.8882 498.582 79.0384 499.432 77.8485 499.432C76.6587 499.432 75.8088 498.582 75.8088 497.392C75.8088 496.202 76.6587 495.353 77.8485 495.353C79.0384 495.353 79.8882 496.372 79.8882 497.392Z" fill="white"/>
<path d="M86.0074 198.577C86.0074 199.767 84.9875 200.786 83.7977 200.786C82.6079 200.786 81.588 199.767 81.588 198.577C81.588 197.387 82.6079 196.367 83.7977 196.367C84.9875 196.367 86.0074 197.387 86.0074 198.577Z" fill="white"/>
<path d="M4.0794 278.635C4.0794 279.825 3.22952 280.675 2.0397 280.675C0.849875 280.675 0 279.655 0 278.635C0 277.445 0.849875 276.595 2.0397 276.595C3.22952 276.595 4.0794 277.445 4.0794 278.635Z" fill="white"/>
<path d="M268.73 52.0584C268.73 53.2482 267.71 54.2681 266.521 54.2681C265.331 54.2681 264.311 53.2482 264.311 52.0584C264.311 50.8686 265.331 49.8487 266.521 49.8487C267.71 49.8487 268.73 50.8686 268.73 52.0584Z" fill="white"/>
<path d="M530.322 78.5745C530.322 79.9343 529.132 81.1241 527.772 81.1241C526.412 81.1241 525.223 79.9343 525.223 78.5745C525.223 77.2147 526.412 76.0249 527.772 76.0249C529.302 76.1948 530.322 77.2147 530.322 78.5745Z" fill="white"/>
<path d="M714.404 199.086C715.625 199.086 716.614 198.097 716.614 196.877C716.614 195.656 715.625 194.667 714.404 194.667C713.184 194.667 712.195 195.656 712.195 196.877C712.195 198.097 713.184 199.086 714.404 199.086Z" fill="white"/>
<path d="M664.092 259.258C665.031 259.258 665.792 258.497 665.792 257.558C665.792 256.619 665.031 255.858 664.092 255.858C663.153 255.858 662.392 256.619 662.392 257.558C662.392 258.497 663.153 259.258 664.092 259.258Z" fill="white"/>
<path d="M724.943 423.114C724.943 424.133 724.093 424.983 723.073 424.983C722.053 424.983 721.203 424.133 721.203 423.114C721.203 422.094 722.053 421.244 723.073 421.244C724.093 421.414 724.943 422.094 724.943 423.114Z" fill="white"/>
<path d="M531.172 619.775C532.11 619.775 532.871 619.014 532.871 618.075C532.871 617.136 532.11 616.375 531.172 616.375C530.233 616.375 529.472 617.136 529.472 618.075C529.472 619.014 530.233 619.775 531.172 619.775Z" fill="white"/>
<path d="M408.11 670.597C408.11 671.787 407.26 672.637 406.07 672.637C404.88 672.637 404.03 671.787 404.03 670.597C404.03 669.407 404.88 668.557 406.07 668.557C407.26 668.557 408.11 669.577 408.11 670.597Z" fill="#666666"/>
<path d="M181.363 678.416C181.363 679.776 180.173 680.966 178.814 680.966C177.454 680.966 176.264 679.776 176.264 678.416C176.264 677.056 177.454 675.866 178.814 675.866C180.173 675.866 181.363 677.056 181.363 678.416Z" fill="#666666"/>
<path d="M99.6053 433.822C99.6053 434.842 98.7554 435.692 97.7356 435.692C96.7157 435.692 95.8658 434.842 95.8658 433.822C95.8658 432.802 96.7157 431.952 97.7356 431.952C98.7554 432.122 99.6053 432.802 99.6053 433.822Z" fill="#666666"/>
<path d="M4.5893 405.436C4.5893 406.456 3.73943 407.306 2.71958 407.306C1.69973 407.306 0.849854 406.456 0.849854 405.436C0.849854 404.416 1.69973 403.566 2.71958 403.566C3.73943 403.736 4.5893 404.416 4.5893 405.436Z" fill="#666666"/>
<path d="M225.727 83.1638C226.759 83.1638 227.596 82.3267 227.596 81.2941C227.596 80.2615 226.759 79.4244 225.727 79.4244C224.694 79.4244 223.857 80.2615 223.857 81.2941C223.857 82.3267 224.694 83.1638 225.727 83.1638Z" fill="#666666"/>
<path d="M525.052 13.4739C525.052 14.4938 524.203 15.3437 523.183 15.3437C522.163 15.3437 521.313 14.4938 521.313 13.4739C521.313 12.4541 522.163 11.6042 523.183 11.6042C524.203 11.6042 525.052 12.4541 525.052 13.4739Z" fill="#666666"/>
<path d="M716.274 171.381C716.274 172.401 715.424 173.251 714.405 173.251C713.385 173.251 712.535 172.401 712.535 171.381C712.535 170.361 713.385 169.511 714.405 169.511C715.424 169.511 716.274 170.361 716.274 171.381Z" fill="#666666"/>
<path d="M690.438 374.671C690.438 375.691 689.588 376.541 688.568 376.541C687.548 376.541 686.699 375.691 686.699 374.671C686.699 373.651 687.548 372.801 688.568 372.801C689.588 372.801 690.438 373.651 690.438 374.671Z" fill="#666666"/>
<path d="M684.659 621.644C685.785 621.644 686.699 620.731 686.699 619.605C686.699 618.478 685.785 617.565 684.659 617.565C683.532 617.565 682.619 618.478 682.619 619.605C682.619 620.731 683.532 621.644 684.659 621.644Z" fill="#666666"/>
<path d="M38.0745 283.904H87.8771" stroke="#999999" stroke-width="0.9366" stroke-miterlimit="10"/>
<path d="M315.643 51.0384H335.7" stroke="#3A3E4E" stroke-width="0.9366" stroke-miterlimit="10"/>
<path d="M690.608 294.273H745" stroke="#999999" stroke-width="0.9366" stroke-miterlimit="10"/>
<path d="M498.706 642.551H537.291" stroke="#999999" stroke-width="0.9366" stroke-miterlimit="10"/>
<path d="M191.222 680.455H209.579" stroke="#999999" stroke-width="0.9366" stroke-miterlimit="10"/>
<path d="M215.358 680.455H294.567" stroke="#999999" stroke-width="0.9366" stroke-miterlimit="10"/>
<path d="M46.5732 223.903H45.0434C44.1935 223.903 43.5136 223.223 43.5136 222.373V220.844C43.5136 219.994 43.0037 219.314 42.1538 219.144C41.134 218.974 40.2841 219.654 40.2841 220.674V222.373C40.2841 223.223 39.6042 223.903 38.7543 223.903H37.2246C36.3747 223.903 35.6948 224.413 35.5248 225.263C35.3548 226.283 36.0347 227.133 37.0546 227.133H38.7543C39.6042 227.133 40.2841 227.812 40.2841 228.662V230.192C40.2841 231.042 40.794 231.722 41.6439 231.892C42.6638 232.062 43.5136 231.382 43.5136 230.362V228.662C43.5136 227.812 44.1935 227.133 45.0434 227.133H46.7432C47.763 227.133 48.4429 226.283 48.2729 225.263C47.933 224.413 47.2531 223.903 46.5732 223.903Z" fill="#E6AA31"/>
<path d="M739.391 343.056H737.351C736.161 343.056 735.311 342.206 735.311 341.016V338.976C735.311 337.956 734.631 337.107 733.612 336.767C732.252 336.427 731.062 337.446 731.062 338.806V341.016C731.062 342.206 730.212 343.056 729.022 343.056H726.983C725.963 343.056 725.113 343.736 724.773 344.755C724.433 346.115 725.453 347.305 726.813 347.305H729.022C730.212 347.305 731.062 348.155 731.062 349.345V351.384C731.062 352.404 731.742 353.254 732.762 353.594C734.122 353.934 735.311 352.914 735.311 351.554V349.345C735.311 348.155 736.161 347.305 737.351 347.305H739.561C740.921 347.305 741.94 346.115 741.6 344.755C741.43 343.736 740.411 343.056 739.391 343.056Z" stroke="#808490" stroke-width="0.9366" stroke-miterlimit="10"/>
<path d="M339.95 669.237H337.91C336.72 669.237 335.87 668.387 335.87 667.198V665.158C335.87 664.138 335.191 663.288 334.171 662.948C332.811 662.608 331.621 663.628 331.621 664.988V667.198C331.621 668.387 330.771 669.237 329.581 669.237H327.542C326.522 669.237 325.672 669.917 325.332 670.937C324.992 672.297 326.012 673.487 327.372 673.487H329.581C330.771 673.487 331.621 674.337 331.621 675.526V677.566C331.621 678.586 332.301 679.436 333.321 679.776C334.681 680.116 335.87 679.096 335.87 677.736V675.526C335.87 674.337 336.72 673.487 337.91 673.487H340.12C341.48 673.487 342.499 672.297 342.16 670.937C341.82 669.917 340.97 669.237 339.95 669.237Z" stroke="#808490" stroke-width="0.9366" stroke-miterlimit="10"/>
<path d="M344.029 7.52493H341.99C340.8 7.52493 339.95 6.67506 339.95 5.48523V3.27556C339.95 2.25571 339.27 1.40584 338.25 1.06589C336.89 0.725937 335.701 1.74579 335.701 3.10559V5.48523C335.701 6.67506 334.851 7.52493 333.661 7.52493H331.621C330.601 7.52493 329.751 8.20483 329.411 9.22468C329.072 10.5845 330.091 11.7743 331.451 11.7743H333.661C334.851 11.7743 335.701 12.6242 335.701 13.814V15.8537C335.701 16.8736 336.38 17.7234 337.4 18.0634C338.76 18.4033 339.95 17.3835 339.95 16.0237V13.644C339.95 12.4542 340.8 11.6043 341.99 11.6043H344.199C345.559 11.6043 346.579 10.4145 346.239 9.05471C346.069 8.20483 345.049 7.52493 344.029 7.52493Z" stroke="#E6AA31" stroke-width="0.9366" stroke-miterlimit="10"/>
<defs>
<linearGradient id="paint0_linear" x1="153.317" y1="119.878" x2="617.179" y2="119.878" gradientUnits="userSpaceOnUse">
<stop stop-color="#F96D8C"/>
<stop offset="1" stop-color="#FBD862"/>
</linearGradient>
<linearGradient id="paint1_linear" x1="159.096" y1="177.16" x2="607.32" y2="177.16" gradientUnits="userSpaceOnUse">
<stop stop-color="#F96D8C"/>
<stop offset="1" stop-color="#FBD862"/>
</linearGradient>
<linearGradient id="paint2_linear" x1="130.338" y1="519.677" x2="529.215" y2="481.817" gradientUnits="userSpaceOnUse">
<stop stop-color="#FFA9BC"/>
<stop offset="1" stop-color="#FFF1C2"/>
</linearGradient>
<linearGradient id="paint3_linear" x1="196.831" y1="160.163" x2="583.694" y2="160.163" gradientUnits="userSpaceOnUse">
<stop stop-color="#F96D8C"/>
<stop offset="1" stop-color="#FBD862"/>
</linearGradient>
</defs>
</svg>
