<svg width="222" height="222" viewBox="0 0 222 222" fill="none" xmlns="http://www.w3.org/2000/svg">
<g opacity="0.5">
<rect y="167.153" width="2.61176" height="2.61176" transform="rotate(-90 0 167.153)" fill="white"/>
<rect y="148.871" width="2.61176" height="2.61176" transform="rotate(-90 0 148.871)" fill="white"/>
<rect y="130.588" width="2.61176" height="2.61176" transform="rotate(-90 0 130.588)" fill="white"/>
<rect y="112.306" width="2.61176" height="2.61176" transform="rotate(-90 0 112.306)" fill="white"/>
<rect y="94.0235" width="2.61176" height="2.61176" transform="rotate(-90 0 94.0235)" fill="white"/>
<rect y="75.7411" width="2.61176" height="2.61176" transform="rotate(-90 0 75.7411)" fill="white"/>
<rect y="57.4588" width="2.61176" height="2.61176" transform="rotate(-90 0 57.4588)" fill="white"/>
<rect y="39.1764" width="2.61176" height="2.61176" transform="rotate(-90 0 39.1764)" fill="white"/>
<rect y="20.8941" width="2.61176" height="2.61176" transform="rotate(-90 0 20.8941)" fill="white"/>
<rect x="18.2823" y="167.153" width="2.61176" height="2.61176" transform="rotate(-90 18.2823 167.153)" fill="white"/>
<rect x="18.2823" y="148.871" width="2.61176" height="2.61176" transform="rotate(-90 18.2823 148.871)" fill="white"/>
<rect x="18.2823" y="130.588" width="2.61176" height="2.61176" transform="rotate(-90 18.2823 130.588)" fill="white"/>
<rect x="18.2823" y="112.306" width="2.61176" height="2.61176" transform="rotate(-90 18.2823 112.306)" fill="white"/>
<rect x="18.2823" y="94.0235" width="2.61176" height="2.61176" transform="rotate(-90 18.2823 94.0235)" fill="white"/>
<rect x="18.2823" y="75.7411" width="2.61176" height="2.61176" transform="rotate(-90 18.2823 75.7411)" fill="white"/>
<rect x="18.2823" y="57.4588" width="2.61176" height="2.61176" transform="rotate(-90 18.2823 57.4588)" fill="white"/>
<rect x="18.2823" y="39.1764" width="2.61176" height="2.61176" transform="rotate(-90 18.2823 39.1764)" fill="white"/>
<rect x="18.2823" y="20.8941" width="2.61176" height="2.61176" transform="rotate(-90 18.2823 20.8941)" fill="white"/>
<rect x="36.5647" y="167.153" width="2.61176" height="2.61176" transform="rotate(-90 36.5647 167.153)" fill="white"/>
<rect x="36.5647" y="148.871" width="2.61176" height="2.61176" transform="rotate(-90 36.5647 148.871)" fill="white"/>
<rect x="36.5647" y="130.588" width="2.61176" height="2.61176" transform="rotate(-90 36.5647 130.588)" fill="white"/>
<rect x="36.5647" y="112.306" width="2.61176" height="2.61176" transform="rotate(-90 36.5647 112.306)" fill="white"/>
<rect x="36.5647" y="94.0235" width="2.61176" height="2.61176" transform="rotate(-90 36.5647 94.0235)" fill="white"/>
<rect x="36.5647" y="75.7412" width="2.61176" height="2.61176" transform="rotate(-90 36.5647 75.7412)" fill="white"/>
<rect x="36.5647" y="57.4588" width="2.61176" height="2.61176" transform="rotate(-90 36.5647 57.4588)" fill="white"/>
<rect x="36.5647" y="39.1764" width="2.61176" height="2.61176" transform="rotate(-90 36.5647 39.1764)" fill="white"/>
<rect x="36.5647" y="20.8941" width="2.61176" height="2.61176" transform="rotate(-90 36.5647 20.8941)" fill="white"/>
<rect x="36.5647" y="2.61174" width="2.61176" height="2.61176" transform="rotate(-90 36.5647 2.61174)" fill="white"/>
<rect x="54.8471" y="94.0235" width="2.61176" height="2.61176" transform="rotate(-90 54.8471 94.0235)" fill="white"/>
<rect x="54.8471" y="75.7412" width="2.61176" height="2.61176" transform="rotate(-90 54.8471 75.7412)" fill="white"/>
<rect x="54.8471" y="57.4588" width="2.61176" height="2.61176" transform="rotate(-90 54.8471 57.4588)" fill="white"/>
<rect x="73.1294" y="112.306" width="2.61176" height="2.61176" transform="rotate(-90 73.1294 112.306)" fill="white"/>
<rect x="73.1294" y="94.0235" width="2.61176" height="2.61176" transform="rotate(-90 73.1294 94.0235)" fill="white"/>
<rect x="73.1294" y="75.7412" width="2.61176" height="2.61176" transform="rotate(-90 73.1294 75.7412)" fill="white"/>
<rect x="91.4118" y="112.306" width="2.61176" height="2.61176" transform="rotate(-90 91.4118 112.306)" fill="white"/>
<rect x="91.4118" y="94.0235" width="2.61176" height="2.61176" transform="rotate(-90 91.4118 94.0235)" fill="white"/>
<rect x="109.694" y="130.588" width="2.61176" height="2.61176" transform="rotate(-90 109.694 130.588)" fill="white"/>
<rect x="109.694" y="112.306" width="2.61176" height="2.61176" transform="rotate(-90 109.694 112.306)" fill="white"/>
<rect x="109.694" y="94.0235" width="2.61176" height="2.61176" transform="rotate(-90 109.694 94.0235)" fill="white"/>
<rect x="127.976" y="222" width="2.61176" height="2.61176" transform="rotate(-90 127.976 222)" fill="white"/>
<rect x="127.976" y="203.718" width="2.61176" height="2.61176" transform="rotate(-90 127.976 203.718)" fill="white"/>
<rect x="127.976" y="185.435" width="2.61176" height="2.61176" transform="rotate(-90 127.976 185.435)" fill="white"/>
<rect x="127.976" y="112.306" width="2.61176" height="2.61176" transform="rotate(-90 127.976 112.306)" fill="white"/>
<rect x="127.976" y="94.0235" width="2.61176" height="2.61176" transform="rotate(-90 127.976 94.0235)" fill="white"/>
<rect x="146.259" y="203.718" width="2.61176" height="2.61176" transform="rotate(-90 146.259 203.718)" fill="white"/>
<rect x="146.259" y="185.435" width="2.61176" height="2.61176" transform="rotate(-90 146.259 185.435)" fill="white"/>
<rect x="146.259" y="167.153" width="2.61176" height="2.61176" transform="rotate(-90 146.259 167.153)" fill="white"/>
<rect x="146.259" y="112.306" width="2.61176" height="2.61176" transform="rotate(-90 146.259 112.306)" fill="white"/>
<rect x="146.259" y="94.0235" width="2.61176" height="2.61176" transform="rotate(-90 146.259 94.0235)" fill="white"/>
<rect x="146.259" y="75.7411" width="2.61176" height="2.61176" transform="rotate(-90 146.259 75.7411)" fill="white"/>
<rect x="164.541" y="185.435" width="2.61176" height="2.61176" transform="rotate(-90 164.541 185.435)" fill="white"/>
<rect x="164.541" y="167.153" width="2.61176" height="2.61176" transform="rotate(-90 164.541 167.153)" fill="white"/>
<rect x="164.541" y="94.0235" width="2.61176" height="2.61176" transform="rotate(-90 164.541 94.0235)" fill="white"/>
<rect x="164.541" y="75.7411" width="2.61176" height="2.61176" transform="rotate(-90 164.541 75.7411)" fill="white"/>
<rect x="182.824" y="185.435" width="2.61176" height="2.61176" transform="rotate(-90 182.824 185.435)" fill="white"/>
<rect x="182.824" y="167.153" width="2.61176" height="2.61176" transform="rotate(-90 182.824 167.153)" fill="white"/>
<rect x="182.824" y="148.871" width="2.61176" height="2.61176" transform="rotate(-90 182.824 148.871)" fill="white"/>
<rect x="182.824" y="94.0235" width="2.61176" height="2.61176" transform="rotate(-90 182.824 94.0235)" fill="white"/>
<rect x="182.824" y="75.7411" width="2.61176" height="2.61176" transform="rotate(-90 182.824 75.7411)" fill="white"/>
<rect x="182.824" y="57.4588" width="2.61176" height="2.61176" transform="rotate(-90 182.824 57.4588)" fill="white"/>
<rect x="201.106" y="167.153" width="2.61176" height="2.61176" transform="rotate(-90 201.106 167.153)" fill="white"/>
<rect x="201.106" y="148.871" width="2.61176" height="2.61176" transform="rotate(-90 201.106 148.871)" fill="white"/>
<rect x="201.106" y="130.588" width="2.61176" height="2.61176" transform="rotate(-90 201.106 130.588)" fill="white"/>
<rect x="201.106" y="112.306" width="2.61176" height="2.61176" transform="rotate(-90 201.106 112.306)" fill="white"/>
<rect x="201.106" y="94.0235" width="2.61176" height="2.61176" transform="rotate(-90 201.106 94.0235)" fill="white"/>
<rect x="201.106" y="75.7411" width="2.61176" height="2.61176" transform="rotate(-90 201.106 75.7411)" fill="white"/>
<rect x="201.106" y="57.4588" width="2.61176" height="2.61176" transform="rotate(-90 201.106 57.4588)" fill="white"/>
<rect x="219.388" y="167.153" width="2.61176" height="2.61176" transform="rotate(-90 219.388 167.153)" fill="white"/>
<rect x="219.388" y="148.871" width="2.61176" height="2.61176" transform="rotate(-90 219.388 148.871)" fill="white"/>
<rect x="219.388" y="130.588" width="2.61176" height="2.61176" transform="rotate(-90 219.388 130.588)" fill="white"/>
<rect x="219.388" y="112.306" width="2.61176" height="2.61176" transform="rotate(-90 219.388 112.306)" fill="white"/>
<rect x="219.388" y="94.0235" width="2.61176" height="2.61176" transform="rotate(-90 219.388 94.0235)" fill="white"/>
<rect x="219.388" y="75.7411" width="2.61176" height="2.61176" transform="rotate(-90 219.388 75.7411)" fill="white"/>
<rect x="219.388" y="57.4588" width="2.61176" height="2.61176" transform="rotate(-90 219.388 57.4588)" fill="white"/>
<rect x="219.388" y="39.1764" width="2.61176" height="2.61176" transform="rotate(-90 219.388 39.1764)" fill="white"/>
</g>
</svg>
