<svg width="20" height="20" viewBox="0 0 20 20" fill="none" xmlns="http://www.w3.org/2000/svg">
<path d="M4.44166 13.2742C4.25821 12.4735 4.16595 11.6547 4.16666 10.8333C4.16666 6.59335 6.58583 2.97001 9.99999 1.51501C13.4142 2.97001 15.8333 6.59335 15.8333 10.8333C15.8333 11.675 15.7383 12.4925 15.5583 13.2742L17.2417 14.7708C17.3141 14.8353 17.3618 14.923 17.3766 15.0188C17.3913 15.1146 17.3722 15.2126 17.3225 15.2958L15.2742 18.7092C15.2416 18.7634 15.197 18.8095 15.1439 18.844C15.0909 18.8784 15.0306 18.9003 14.9678 18.9081C14.905 18.9158 14.8413 18.9091 14.7814 18.8885C14.7216 18.8679 14.6672 18.8339 14.6225 18.7892L12.7442 16.9108C12.5879 16.7546 12.376 16.6667 12.155 16.6667H7.84499C7.624 16.6667 7.41207 16.7546 7.25583 16.9108L5.37749 18.7892C5.33274 18.8339 5.27838 18.8679 5.21854 18.8885C5.15871 18.9091 5.09497 18.9158 5.03216 18.9081C4.96935 18.9003 4.90912 18.8784 4.85604 18.844C4.80296 18.8095 4.75843 18.7634 4.72583 18.7092L2.67749 15.2967C2.62756 15.2134 2.6083 15.1152 2.62306 15.0192C2.63782 14.9232 2.68567 14.8353 2.75833 14.7708L4.44166 13.2742ZM9.99999 10.8333C10.442 10.8333 10.8659 10.6578 11.1785 10.3452C11.4911 10.0326 11.6667 9.60871 11.6667 9.16668C11.6667 8.72465 11.4911 8.30073 11.1785 7.98817C10.8659 7.67561 10.442 7.50001 9.99999 7.50001C9.55797 7.50001 9.13404 7.67561 8.82148 7.98817C8.50892 8.30073 8.33333 8.72465 8.33333 9.16668C8.33333 9.60871 8.50892 10.0326 8.82148 10.3452C9.13404 10.6578 9.55797 10.8333 9.99999 10.8333Z" fill="url(#paint0_linear)"/>
<defs>
<linearGradient id="paint0_linear" x1="2.61823" y1="1.51501" x2="17.3814" y2="1.51501" gradientUnits="userSpaceOnUse">
<stop stop-color="#F96D8C"/>
<stop offset="1" stop-color="#FBD862"/>
</linearGradient>
</defs>
</svg>
