<svg width="172" height="172" viewBox="0 0 172 172" fill="none" xmlns="http://www.w3.org/2000/svg">
<path fill-rule="evenodd" clip-rule="evenodd" d="M86 156.685C125.038 156.685 156.685 125.038 156.685 86C156.685 46.9618 125.038 15.3151 86 15.3151C46.9618 15.3151 15.3151 46.9618 15.3151 86C15.3151 125.038 46.9618 156.685 86 156.685ZM86 172C133.496 172 172 133.496 172 86C172 38.5035 133.496 0 86 0C38.5035 0 0 38.5035 0 86C0 133.496 38.5035 172 86 172Z" fill="white"/>
<path fill-rule="evenodd" clip-rule="evenodd" d="M57.3322 81.8048L43 90.504L57.3322 81.8048ZM43 107.901L57.3331 116.601V81.8003L71.6669 90.4995L86 99.1996L100.333 90.4995L114.666 81.8003V99.2005L100.334 107.901L86.0008 116.601V134L100.334 125.3L114.667 116.6L129 107.9V55.7L114.668 64.4001L100.336 73.1002L86.0025 81.8003L71.6703 73.1002L57.3364 64.4001V47L43.0042 55.7V107.9L43 107.901Z" fill="white"/>
</svg>
