<svg xmlns="http://www.w3.org/2000/svg" width="37" height="37"><path fill="#3c415e" d="M12.687 28.011v.284c0 .04-.04.081-.04.122-.041.04-.041.08-.082.121 0 .04-.04.081-.08.081-.042.04-.082.082-.123.122 0 0-.04.04-.081.04-.081.04-.122.04-.162.04h-.244c-.081 0-.122 0-.163-.04-.04 0-.08-.04-.121-.04-.041-.04-.041-.081-.082-.122-.04 0-.08-.04-.08-.08-.042-.041-.082-.082-.082-.122 0-.04-.04-.081-.04-.122v-.284c0-.04.04-.08.04-.121 0-.04.04-.081.081-.122 0-.04.04-.081.081-.121l.082-.081c.04-.04.08-.04.121-.081.041 0 .082 0 .163-.041h.244c.04.04.08.04.162.04.04.041.081.041.081.082.04.04.081.04.122.08.04.04.081.082.081.122.041.04.041.081.082.122 0 .04.04.08.04.121zm20.066.203c.772 1.986-.772 3.324-1.787 3.81h-.041L20.16 35.875a5.664 5.664 0 01-2.315.486 6.23 6.23 0 01-2.234-.405h-.04c-2.194-1.014-3.413-1.703-4.185-2.148-1.056-.608-1.421-.81-2.559-.933v.203c0 .405-.324.69-.69.69h-1.95v.607c0 .405-.325.73-.69.73H1.314c-.365 0-.69-.325-.69-.73V25.62c0-.405.325-.73.69-.73h6.458c.935-1.337 2.56-2.594 4.387-2.594 2.6 0 3.98 1.46 4.428 2.027l5.361 1.824h.04c.976.365 1.666 1.094 1.95 1.945l4.875-1.337c1.787-.608 3.29-.04 3.94 1.46zM4.767 26.31H2.005v7.377h2.762zm2.64 0H6.188v6.08h1.219zm22.99 4.418c.325-.122 1.503-.81 1.056-1.986-.447-1.013-1.422-.932-2.193-.649l-5.24 1.42c0 .08-.04.12-.04.161a2.681 2.681 0 01-1.3 1.662 2.776 2.776 0 01-1.341.365c-.284 0-.528-.04-.772-.121l-6.296-1.987c-.365-.122-.568-.486-.446-.851.121-.365.528-.608.893-.486l6.255 1.986c.325.122.69.04 1.016-.122.325-.162.528-.446.65-.81.203-.77-.244-1.5-1.138-1.824l-5.564-1.906a.649.649 0 01-.366-.283c-.04-.081-1.056-1.622-3.412-1.622-1.38 0-2.68 1.135-3.33 2.19v5.633c1.543.122 2.112.446 3.249 1.095.812.486 1.95 1.134 4.062 2.067.528.202 1.95.648 3.452-.04.041 0 .041-.041.041-.041h.04zM25.685 9.853c.04.04.04.08.04.162 0 .04 0 .08-.04.122 0 .04 0 .08-.04.121 0 .04 0 .08-.041.122-.04.04-.04.08-.081.12-.04.042-.082.042-.122.082-.04.04-.081.04-.122.04-.04.041-.081.041-.122.041-.04.04-.081.04-.122.04-.08 0-.122 0-.162-.04-.04 0-.081 0-.122-.04-.04 0-.081 0-.122-.041-.04-.04-.081-.04-.122-.081 0-.04-.04-.08-.081-.121 0-.041-.04-.082-.04-.122-.041-.04-.041-.081-.041-.121 0-.041-.041-.082-.041-.122 0-.081.04-.122.04-.162 0-.041 0-.081.041-.122 0-.04.041-.081.041-.122.04-.04.081-.08.081-.121.04 0 .081-.04.122-.081.04 0 .081-.04.122-.04.04-.041.081-.041.122-.041a.35.35 0 01.284 0c.04 0 .081 0 .122.04.04 0 .081.04.122.04.04.041.081.082.122.082.04.04.04.08.08.121.042.04.042.082.042.122.04.04.04.08.04.122zm9.992-6.81c.406 0 .69.324.69.73v8.755c0 .405-.284.73-.69.73H29.22c-.934 1.337-2.518 2.594-4.346 2.594-.203 0-.406 0-.569-.041l-7.108 7.093c-.284.284-.772.203-1.016 0L2.898 9.65a.696.696 0 010-.973L10.697.895c.244-.284.69-.284.975 0l2.356 2.35 2.843-.972c1.99-.932 3.818-.365 4.55-.081h.04c2.153.973 3.371 1.702 4.184 2.148 1.056.608 1.421.81 2.559.932V5.07c0-.406.284-.73.69-.73h1.95v-.567c0-.406.325-.73.69-.73zM9.6 3.975a3.004 3.004 0 001.584.446 3.11 3.11 0 001.584-.446l-1.584-1.58zm-3.615 6.77a3.096 3.096 0 00.447-1.582c0-.567-.162-1.134-.447-1.58l-1.584 1.58zm12.308 9.079a3.236 3.236 0 00-3.21 0l1.625 1.621zm2.6-2.594a4.338 4.338 0 01-.732-3.527l-2.356-.77c-.203.649-.568 1.297-1.056 1.783a3.977 3.977 0 01-2.803 1.176c-1.015 0-2.03-.405-2.843-1.176-1.543-1.54-1.543-4.053 0-5.634a4.25 4.25 0 012.112-1.094c.244-.486.65-.892 1.138-1.176.284-.162.609-.283.934-.324l-1.503-1.5a4.584 4.584 0 01-2.6.811c-.934 0-1.868-.283-2.6-.81l-1.583 1.58c.528.73.812 1.622.812 2.594 0 .933-.284 1.825-.812 2.595l7.108 7.093a4.395 4.395 0 015.199 0zM15.042 12c-1.178-.445-1.95-1.418-2.112-2.472a2.688 2.688 0 00-.812.568c-1.016.973-1.016 2.635 0 3.648a2.654 2.654 0 003.655 0c.325-.365.569-.81.69-1.297zm7.636 3.446a4.308 4.308 0 01-1.218-.648c0 .486.162 1.013.447 1.459zm5.525-8.796c-1.585-.121-2.113-.445-3.25-1.094-.853-.486-1.95-1.135-4.062-2.067-.568-.243-1.99-.649-3.493.04v.04h-.04l-2.235.771 2.6 2.594.04.04 4.956 1.582a.726.726 0 01.487.85.713.713 0 01-.893.447l-6.255-1.946c-.366-.121-.732-.081-1.016.122a1.195 1.195 0 00-.65.81c-.244.73.244 1.5 1.138 1.824l5.524 1.905a.56.56 0 01.406.325l.081.08c.284.365 1.097 1.217 2.6 1.42.203.04.446.08.73.08 1.382 0 2.641-1.135 3.332-2.23zm2.64-.891h-1.26v6.08h1.26zm4.143-1.297h-2.762v7.377h2.762z"/></svg>