<svg xmlns="http://www.w3.org/2000/svg" width="28" height="52"><path fill="#3c415e" d="M14.315 24.472c.37 0 .658.282.658.646v.889a.644.644 0 01-.658.646h-1.11a.644.644 0 01-.657-.646c0-.364.287-.647.657-.647h.452v-.242c0-.364.288-.646.658-.646zM26.03 50.278c0-.04.041-.04.041-.081.329-.202.493-.565.493-.929V46.28h-7.11v4.16h5.507c.822 0 1.028-.162 1.07-.162zM3.258 51.732c-1.398 0-2.508-1.09-2.508-2.464v-12.52c0-.726.617-1.291 1.357-1.291H3.34V29.6c0-.363.082-.687.288-.97l1.192-1.776c.246-.404.698-.606 1.15-.606.453 0 .864.202 1.11.606l.206.282v-4.563c-.74-.283-1.274-.97-1.274-1.777v-2.262a1.88 1.88 0 011.52-1.857l2.796-4.281c0-.04.04-.08.04-.08l1.028-1.535.38-.591a.716.716 0 01-.667-.056c-.206-.161-.329-.404-.288-.646l.493-2.827-2.096-1.979a.618.618 0 01-.165-.645c.083-.243.288-.445.535-.485l2.918-.404L13.822.605c.082-.202.329-.364.575-.364.247 0 .493.162.617.364l1.315 2.544 2.878.404c.246.04.493.242.575.485.041.242 0 .484-.206.645l-2.096 1.98.493 2.826a.663.663 0 01-.246.646.703.703 0 01-.411.122.593.593 0 01-.288-.081l-.26-.127 4.288 6.629a1.878 1.878 0 011.562 1.857v2.262c0 .808-.534 1.494-1.274 1.777v4.563l.206-.282c.246-.404.657-.606 1.11-.606.452 0 .863.202 1.11.606l1.232 1.777c.165.282.288.605.288.969v5.856h1.233c.74 0 1.357.565 1.357 1.292v12.519c0 .767-.37 1.495-1.028 1.98 0 0-.04.04-.082.04-.411.323-1.192.403-1.726.444H3.258zM8.93 16.92c.288.162.535.404.699.687.41-.283.945-.485 1.48-.485.575 0 1.11.202 1.52.485.33-.566.946-.97 1.686-.97.699 0 1.356.404 1.685.97.411-.283.946-.485 1.48-.485.576 0 1.11.202 1.521.485.165-.283.411-.525.699-.687l-4.768-7.31c-.124-.202-.37-.363-.617-.363-.288 0-.493.161-.658.364a134.132 134.132 0 01-2.59 3.998zm12.414 14.094h2.63v-1.413a.741.741 0 00-.081-.283L22.7 27.541h-.082l-1.193 1.777a.74.74 0 00-.082.283zm-4.07 1.252v.97h6.7v-.97zm2.796-11.469c0 .323.288.606.616.606a.627.627 0 00.617-.606v-2.262a.6.6 0 00-.617-.605.6.6 0 00-.616.605zm-3.823-.646h2.507v-.485c0-.686-.575-1.252-1.274-1.252-.699 0-1.233.566-1.233 1.252zm-.123 1.292a2.077 2.077 0 01-1.11 1.09c1.644.324 2.877 1.777 2.877 3.473 0 1.737-1.274 3.19-3 3.474.082.04.205.12.287.202.165.12.37.282.576.404.37.242.78.525 1.068.928h3.207v-8.44a1.969 1.969 0 01-1.151-1.13zm-1.809 6.825c1.274 0 2.302-1.01 2.302-2.262s-1.028-2.26-2.302-2.26-2.302 1.008-2.302 2.26c0 1.253 1.028 2.262 2.302 2.262zm-.617-7.471c0 .323.288.606.617.606a.627.627 0 00.617-.606v-2.262a.6.6 0 00-.617-.605.6.6 0 00-.617.605zm-3.864-.646h2.55v-.485c0-.686-.576-1.252-1.275-1.252s-1.275.566-1.275 1.252zM8.601 31.014h3.207c.287-.403.698-.686 1.068-.928.206-.122.411-.283.576-.404a.735.735 0 01.287-.202c-1.726-.283-3.041-1.737-3.041-3.473 0-1.697 1.274-3.15 2.918-3.473-.534-.203-.945-.606-1.11-1.09H9.752a1.968 1.968 0 01-1.15 1.13zM7.327 18.535v2.262a.6.6 0 00.617.606.627.627 0 00.616-.606v-2.262a.6.6 0 00-.616-.605c-.37 0-.617.242-.617.605zM4.655 29.601v1.413h2.63v-1.413a.737.737 0 00-.081-.283l-1.192-1.777H5.93l-1.193 1.777c-.082.081-.082.202-.082.283zm0 3.634h6.7v-.969h-6.7zm0 2.222h1.233c.74 0 1.316.565 1.316 1.292v1.01c0 .161.123.282.288.282h3.329c.123 0 .247-.12.247-.282v-1.01c0-.727.616-1.292 1.356-1.292h3.782c.74 0 1.315.565 1.315 1.292v1.01c0 .161.123.282.288.282h3.33c.123 0 .246-.12.246-.282v-1.01c0-.727.617-1.292 1.357-1.292h1.233v-.97h-7.358c-.37 0-.658-.282-.658-.605v-1.616c0-.444-.288-.646-.945-1.09-.247-.162-.494-.323-.699-.525-.247.202-.493.363-.74.525-.658.444-.945.646-.945 1.09v1.616c0 .323-.288.605-.658.605H4.655zm4.522 14.982v-4.16H2.065v2.989c0 .647.535 1.171 1.193 1.171zm4.48-7.552h-.37c-1.562 0-2.795 1.212-2.795 2.747v4.805h3.165zm4.48 7.552v-4.805c0-1.535-1.273-2.747-2.794-2.747h-.37v7.552zm8.427-5.452V36.75h-3.863v1.01c0 .848-.7 1.534-1.562 1.534h-3.33c-.863 0-1.562-.686-1.562-1.534v-1.01h-3.864v1.01c0 .848-.699 1.534-1.562 1.534h-3.33c-.863 0-1.562-.686-1.562-1.534v-1.01H2.065v8.238h7.153c.329-1.938 2.014-3.392 4.07-3.392h2.055c2.014 0 3.74 1.454 4.028 3.392zM12.506 5.976a.66.66 0 01.206.605L12.383 8.4l1.726-.889a.775.775 0 01.288-.08c.123 0 .206.04.329.08l1.685.889-.328-1.818c0-.242.04-.444.205-.605l1.357-1.293-1.891-.282c-.206 0-.411-.162-.494-.323l-.863-1.696-.863 1.696c-.082.161-.288.323-.493.323l-1.891.282z"/></svg>