<svg xmlns="http://www.w3.org/2000/svg" width="70" height="63"><path fill="#3c415e" d="M44.522 31.619H4.654c-2.567 0-4.654-2.1-4.654-4.68V4.68C0 2.1 2.087 0 4.654 0h39.868c2.566 0 4.654 2.1 4.654 4.68v22.26c0 2.58-2.088 4.68-4.654 4.68zm-39.868-3.12h39.868c.855 0 1.551-.7 1.551-1.56V4.68c0-.86-.696-1.56-1.551-1.56H4.654c-.856 0-1.552.7-1.552 1.56v22.26c0 .86.696 1.56 1.552 1.56zm63.02 13.83L33.145 62.373a4.59 4.59 0 01-3.53.464 4.626 4.626 0 01-2.827-2.177l-2.668-4.646v-.002l-2.938-5.116-.001-.001-5.462-9.512a4.67 4.67 0 01-.461-3.55 4.645 4.645 0 012.165-2.843l2.76-1.603a1.547 1.547 0 012.12.571c.428.747.174 1.7-.568 2.131l-2.76 1.603a1.547 1.547 0 00-.72.948c-.108.405-.054.825.151 1.183l4.687 8.162L47.579 33.77a1.547 1.547 0 012.12.57c.428.747.173 1.7-.569 2.132L24.645 50.686l1.387 2.416 37.214-21.604-1.387-2.416-8.146 4.73a1.55 1.55 0 01-2.12-.57 1.565 1.565 0 01.569-2.133l8.146-4.729-4.687-8.162c-.418-.728-.92-1.06-1.136-1.14l-1.431.83c-.742.43-1.69.175-2.119-.571a1.564 1.564 0 01.568-2.13l1.567-.911c1.66-.963 3.912.053 5.238 2.363l11.069 19.277c1.283 2.235.519 5.102-1.704 6.393zm-.984-4.833L64.797 34.2 27.583 55.804l1.893 3.296c.206.358.54.615.943.724.403.108.82.054 1.176-.153l34.527-20.044c.356-.207.612-.543.72-.948a1.555 1.555 0 00-.152-1.183zM42.97 23.82c0 .862-.694 1.56-1.55 1.56h-7.694a1.556 1.556 0 01-1.551-1.56c0-.861.694-1.56 1.551-1.56h7.693c.857 0 1.552.699 1.552 1.56zm-12.984 0c0 .862-.695 1.56-1.552 1.56h-7.693a1.556 1.556 0 01-1.551-1.56c0-.861.694-1.56 1.551-1.56h7.693c.857 0 1.552.699 1.552 1.56zM17 23.82c0 .862-.695 1.56-1.551 1.56H7.756a1.556 1.556 0 01-1.551-1.56c0-.861.694-1.56 1.551-1.56h7.694c.856 0 1.55.699 1.55 1.56zm2.034-12.9v3.541c0 2.58-2.088 4.68-4.654 4.68h-3.522c-2.566 0-4.654-2.1-4.654-4.68V10.92c0-2.58 2.088-4.68 4.654-4.68h3.522c2.566 0 4.654 2.1 4.654 4.68zm-3.103 0c0-.86-.696-1.56-1.551-1.56h-3.522c-.856 0-1.552.7-1.552 1.56v3.541c0 .86.696 1.56 1.552 1.56h3.522c.855 0 1.551-.7 1.551-1.56z"/></svg>