<svg xmlns="http://www.w3.org/2000/svg" width="80" height="80"><path fill="#3c415e" d="M66.628 35.928c2.776.538 5.628 0 7.941-1.38h-6.861c-.463 0-.849-.231-1.08-.615l-1.387-1.996-.155.307v.998c0 .307-.154.614-.308.844l-5.165 6.448-1.311 2.456-2.313-1.151 1.08-2.226-2.545-13.049c-.617-1.535-2.081-2.533-3.7-2.533h-.232v4.759l.926.921a6.755 6.755 0 011.619 7.062l4.548 11.82c.154.23.463.384.771.384a.848.848 0 00.771-.46l6.014-11.898c.23-.537.848-.844 1.387-.69zm-18.965 5.45c-.309 0-.694.077-1.08.077-1.85 0-3.546-.69-4.857-1.995-.462-.461-1.079-.768-1.696-.768-.693 0-1.31.307-1.773.768-1.233 1.305-3.007 1.995-4.857 1.995-.385 0-.694-.077-1.08-.077l.078.46a17.558 17.558 0 0015.188 0zM28.775 56.807a18.459 18.459 0 0022.434 0c-.154-.69-.462-1.305-.771-1.996-3.007 2.533-6.707 3.761-10.408 3.761-3.777 0-7.478-1.228-10.485-3.76-.308.69-.54 1.304-.77 1.995zm18.194-6.908c-.308-.23-.386-.691-.386-1.075l.617-3.991a19.506 19.506 0 01-7.17 1.381c-2.467 0-4.934-.46-7.247-1.381l.617 3.99c.077.385-.077.845-.385 1.076-.771.844-1.542 1.688-2.159 2.61 5.165 4.605 13.106 4.605 18.272 0a16.871 16.871 0 00-2.159-2.61zM30.393 31.553c-.848.768-1.233 1.843-1.233 2.994 0 1.151.385 2.226 1.233 2.993 1.62 1.69 4.395 1.69 6.014 0 1.002-.92 2.236-1.458 3.623-1.458 1.311 0 2.622.537 3.547 1.458 1.696 1.69 4.394 1.69 6.013 0a4 4 0 001.31-2.993 4 4 0 00-1.31-2.994l-1.31-1.305a1.414 1.414 0 01-.386-.92V24.03h-2.621v3.991c0 2.84-2.39 5.22-5.243 5.22-2.93 0-5.32-2.38-5.32-5.22V24.03h-2.62v5.296c0 .307-.155.691-.386.921zm-2.852-.69c.308-.461.617-.845 1.002-1.152l.925-.921v-4.682c-2.004.153-3.854.69-5.628 1.458L3.718 36.236c-.385.23-.693.69-.693 1.15 0 .385.154.692.462.999l10.716 11.974 3.547 1.305a12.835 12.835 0 005.165-1.305h-2.698c-.771 0-1.31-.614-1.31-1.382v-2.302c-.617.307-1.08.767-1.311 1.305l-.154.307c-.232.46-.695.69-1.234.69-.463 0-.925-.23-1.157-.69l-4.934-9.825H7.034v-2.61h3.623l14.263-6.448c.54-.23 1.079-.077 1.465.307zm7.17-13.894v-.077l-.771-.537c-1.002-.69-1.62-1.688-1.696-2.84-.154-1.151.231-2.226 1.079-3.07.694-.69 1.696-1.151 2.698-1.151.771 0 1.465.23 2.082.614.617-1.152 1.619-2.073 2.775-2.764 1.774-1.074 3.855-1.305 5.86-.614l.925.154c-.694-2.15-2.699-3.685-5.011-3.685h-4.01C35.79 3 33.4 5.38 33.4 8.296V9.6c0 .46-.231.844-.617 1.074-.385.307-.848.307-1.31.077l-1.465-.69c-.54-.308-1.234-.461-1.85-.461-2.236 0-4.01 1.765-4.01 3.914 0 2.226 1.774 3.992 4.01 3.992.616 0 1.31-.154 1.85-.461l1.465-.768c.308-.153.694-.153 1.002-.076zm14.263-4.452l-.695-.69a1.269 1.269 0 01-.385-.922V9.37l-1.773-.307s-.077 0-.154-.077c-1.234-.383-2.621-.23-3.778.384-1.156.691-1.927 1.842-2.236 3.147-.077.46-.462.845-.925.998-.462.077-.925 0-1.31-.384l-.848-.844c-.232-.23-.54-.307-.849-.307-.308 0-.616.077-.848.307-.308.384-.385.768-.308.998a.98.98 0 00.54.844l1.387.921c.309.23.54.691.54 1.075v11.897c0 1.382 1.234 2.61 2.698 2.61 1.388 0 2.622-1.228 2.622-2.61v-9.21c0-.615.385-1.075.925-1.305l3.392-1.075zm17.5 13.356c-.617.614-.694 1.766-.231 2.763l2.158 3.301h3.778l.925-1.919c.077-.077.077-.077.077-.153l1.31-1.843c.463-.69.31-1.611-.23-2.149-.309-.307-.771-.537-1.234-.537h-.077c-.463 0-.925.23-1.233.537l-.463.384c-.463.537-1.31.537-1.85 0l-.386-.384c-.385-.307-.77-.537-1.233-.537h-.154c-.463 0-.849.23-1.157.537zm9.791-9.671a6.23 6.23 0 00-3.932 2.533c1.62-.23 3.007-1.152 3.932-2.533zm2.005 15.735c.54 0 1.002.307 1.233.768.154.537.077 1.074-.308 1.458l-.54.538a13.829 13.829 0 01-11.487 3.914L61.54 49.668c-.54 1.229-1.773 1.996-3.084 1.996a3.452 3.452 0 01-3.084-1.842s-.077-.077-.077-.154l-3.932-10.132c-.23.23-.54.46-.848.691l-1.233 8.367c4.934 5.142 6.707 12.511 4.78 19.343 0 .077-.077.077-.077.077l-3.47 11.59-2.544-.768 3.547-11.59c.693-2.533.848-5.143.385-7.676-3.546 2.456-7.71 3.685-11.873 3.685-4.24 0-8.403-1.229-11.95-3.685a16.237 16.237 0 00.463 7.676l3.47 11.59-2.545.768L26 68.014v-.077c-2.004-6.832-.154-14.2 4.703-19.343l-1.234-8.367a8.111 8.111 0 01-.925-.767c-1.619-1.612-2.313-3.838-2.004-5.91l-1.31-1.382-12.49 5.68 3.7 7.369a5.518 5.518 0 013.778-1.459c.694 0 1.31.614 1.31 1.305v2.61h5.243c.54 0 1.08.307 1.233.844.232.46.078 1.075-.23 1.382l-.232.23c-2.698 2.687-6.245 4.145-9.945 4.145-.154 0-.309 0-.463-.077l-4.163-1.458c-.154-.077-.386-.154-.54-.384L1.56 40.15C.789 39.46.403 38.462.403 37.387c0-1.382.771-2.686 1.928-3.454h.077l20.199-10.67h.077c2.467-1.228 5.32-1.842 8.095-1.842h3.932v-1.688l-2.544-.845-.925.46a6.55 6.55 0 01-3.084.768c-3.7 0-6.63-2.993-6.63-6.6 0-3.608 2.93-6.525 6.63-6.525h.77c-.925-.845-2.158-1.305-3.469-1.305V2.999c1.62 0 3.161.537 4.395 1.382-.155-.768-.925-1.382-1.696-1.382V.39c1.927 0 3.623 1.305 4.24 3.147C33.786 1.618 36.098.39 38.643.39h4.009c4.317 0 7.94 3.532 7.94 7.907v2.072l.926.921c.385.384.462.998.23 1.535l-2.62 5.22c-.154.307-.463.537-.771.69l-3.084.999v1.688h5.55c2.776 0 5.243 1.766 6.168 4.299.077.077.077.153.077.23l2.159 10.823 3.238-3.992v-.844c0-.23 0-.384.077-.614l1.08-2.072c-.694-1.92-.309-3.992.925-5.22.848-.844 1.927-1.305 3.084-1.305h.154c.385 0 .848.077 1.233.153v-.383c0-2.072-.77-3.992-2.235-5.373l1.85-1.92a9.255 9.255 0 011.542 1.996c1.542-2.225 4.086-3.684 6.938-3.684h1.157c.385 0 .77.23 1.002.538.308.307.385.69.308 1.15-.925 3.609-4.24 6.142-7.94 6.218v1.458c.462-.076.847-.153 1.31-.153h.077c1.157 0 2.313.46 3.084 1.305 1.465 1.458 1.696 3.685.54 5.45l-1.234 1.765-.308.691zm-39.627 17.04h2.698v2.687h-2.698zm6.013 18.192l-3.315 2.226v9.825h-2.698v-9.825l-3.316-2.226 1.465-2.149 3.238 2.15 3.161-2.15z"/></svg>