<svg xmlns="http://www.w3.org/2000/svg" width="76" height="82"><path fill="#3c415e" d="M43.069 32.917c.56.485 1.122 1.05 1.763 1.535 7.693 5.979 18.752 4.605 24.762-3.07a17.894 17.894 0 003.686-10.907c0-9.856-7.853-17.773-17.63-17.773-5.69 0-11.058 2.746-14.424 7.513-.16.323-.4.646-.561.97-1.202 1.938-2.004 4.12-2.404 6.382-.16.889-.24 1.858-.24 2.828v.08c0 3.232.88 6.464 2.644 9.291.16.243.32.566.56.808a26.285 26.285 0 001.844 2.343zM63.423 12.8c.4.485.4 1.293 0 1.778l-4.487 4.524h5.53l2.323-3.474c.4-.646 1.282-.727 1.843-.323.561.404.721 1.212.4 1.777l-1.361 2.02h1.602c.721 0 1.363.565 1.363 1.373 0 .728-.642 1.374-1.363 1.374h-1.602l1.362 1.939c.4.646.24 1.454-.4 1.939-.241.08-.482.161-.722.161-.481 0-.882-.161-1.122-.565l-2.324-3.474h-5.53l4.488 4.524c.481.485.481 1.374 0 1.858-.32.323-.64.404-.961.404-.401 0-.722-.08-.962-.404l-4.487-4.443v5.493l3.525 2.344c.561.403.722 1.292.32 1.938-.24.324-.64.566-1.12.566-.241 0-.562-.08-.722-.242l-2.003-1.293v1.535c0 .727-.561 1.373-1.363 1.373-.72 0-1.362-.646-1.362-1.373v-1.535l-1.923 1.293a1.35 1.35 0 01-.802.242c-.721 0-1.282-.646-1.282-1.373-.08-.404.16-.89.561-1.131l3.446-2.344v-5.574L49.8 28.23c-.24.243-.56.404-.881.404-.802 0-1.362-.565-1.362-1.373 0-.323.08-.646.4-.97l4.408-4.443h-5.45l-2.323 3.474c-.241.404-.642.565-1.122.565a1.356 1.356 0 01-1.363-1.373c0-.242.08-.485.24-.727l1.283-1.94h-1.523c-.721 0-1.362-.645-1.362-1.373 0-.808.641-1.373 1.362-1.373h1.523l-1.282-2.02c-.401-.646-.16-1.454.48-1.858.562-.323 1.363-.161 1.764.323l2.323 3.555h5.45l-4.408-4.524c-.48-.566-.48-1.455.08-1.94.561-.403 1.282-.403 1.763 0l4.488 4.525V11.59l-3.446-2.344c-.56-.403-.721-1.292-.24-1.858.4-.565 1.202-.727 1.763-.404l1.923 1.374V6.74c0-.727.641-1.373 1.362-1.373.802 0 1.363.646 1.363 1.373v1.616l2.003-1.374c.64-.323 1.442-.161 1.843.485.32.646.16 1.374-.4 1.777l-3.446 2.344v5.574L61.5 12.64c.561-.485 1.442-.404 1.923.162zm-23.56-5.25C46.515-.772 58.615-2.55 67.43 3.752c9.135 6.544 11.3 19.309 4.808 28.6-1.122 1.615-2.484 2.989-4.007 4.2-3.526 2.91-8.013 4.444-12.58 4.444-4.408 0-8.655-1.454-12.181-4.12v32.801a6.829 6.829 0 01-5.45 6.705v1.536c0 2.262-1.843 4.12-4.087 4.12h-1.362c-2.244 0-4.006-1.858-4.006-4.12v-1.374H14.94v1.374c0 2.262-1.763 4.12-4.006 4.12H9.572c-2.243 0-4.087-1.858-4.087-4.12v-1.536a6.829 6.829 0 01-5.449-6.705V13.608c0-3.797 3.045-6.867 6.812-6.867h29.81c1.122 0 2.164.323 3.205.808zm-1.602 2.26c-.481-.161-1.042-.323-1.603-.323H6.848c-2.244 0-4.087 1.858-4.087 4.12v16.4H37.7c-1.442-2.666-2.244-5.735-2.404-8.805v-1.616l.08-.081v-1.05l.08-.081v-.647h.08v-.565h.08v-.08a19.862 19.862 0 012.645-7.272zM2.76 32.755v36.922c0 2.262 1.843 4.12 4.087 4.12h29.81c2.244 0 4.087-1.858 4.087-4.12V34.371a13.08 13.08 0 01-1.362-1.616zm4.087-16.4c.72 0 1.362.647 1.362 1.373v8.16c0 .808-.641 1.374-1.362 1.374-.802 0-1.363-.566-1.363-1.374v-8.16c0-.726.561-1.373 1.363-1.373zm0 19.147c.72 0 1.362.647 1.362 1.374v8.16c0 .808-.641 1.373-1.362 1.373-.802 0-1.363-.565-1.363-1.373v-8.16c0-.727.561-1.374 1.363-1.374zm24.441 42.416c0 .726.561 1.373 1.282 1.373h1.362c.802 0 1.363-.647 1.363-1.373v-1.374h-4.007zm-23.079 0c0 .726.561 1.373 1.362 1.373h1.363c.72 0 1.282-.647 1.282-1.373v-1.374H8.21z"/></svg>