<svg width="1152" height="776" viewBox="0 0 1152 776" fill="none" xmlns="http://www.w3.org/2000/svg">
<mask id="mask0" mask-type="alpha" maskUnits="userSpaceOnUse" x="0" y="-1" width="1152" height="777">
<rect width="1152" height="777" transform="matrix(1 0 0 -1 0 776)" fill="#C4C4C4"/>
</mask>
<g mask="url(#mask0)">
<circle cx="-21.5287" cy="-114.471" r="890.471" fill="url(#paint0_linear)"/>
<ellipse cx="-11.5" cy="354.5" rx="516.5" ry="421.5" fill="url(#paint1_linear)"/>
<path fill-rule="evenodd" clip-rule="evenodd" d="M497.719 493.871C501.82 493.871 505.144 490.547 505.144 486.446C505.144 482.346 501.82 479.022 497.719 479.022C493.619 479.022 490.295 482.346 490.295 486.446C490.295 490.547 493.619 493.871 497.719 493.871ZM530.201 493.871C534.302 493.871 537.626 490.547 537.626 486.446C537.626 482.346 534.302 479.022 530.201 479.022C526.101 479.022 522.777 482.346 522.777 486.446C522.777 490.547 526.101 493.871 530.201 493.871ZM570.108 486.446C570.108 490.547 566.784 493.871 562.683 493.871C558.583 493.871 555.259 490.547 555.259 486.446C555.259 482.346 558.583 479.022 562.683 479.022C566.784 479.022 570.108 482.346 570.108 486.446ZM593.309 493.871C597.41 493.871 600.734 490.547 600.734 486.446C600.734 482.346 597.41 479.022 593.309 479.022C589.209 479.022 585.885 482.346 585.885 486.446C585.885 490.547 589.209 493.871 593.309 493.871ZM633.216 486.446C633.216 490.547 629.892 493.871 625.791 493.871C621.691 493.871 618.367 490.547 618.367 486.446C618.367 482.346 621.691 479.022 625.791 479.022C629.892 479.022 633.216 482.346 633.216 486.446ZM658.273 493.871C662.374 493.871 665.698 490.547 665.698 486.446C665.698 482.346 662.374 479.022 658.273 479.022C654.173 479.022 650.849 482.346 650.849 486.446C650.849 490.547 654.173 493.871 658.273 493.871ZM505.144 519.856C505.144 523.957 501.82 527.281 497.719 527.281C493.619 527.281 490.295 523.957 490.295 519.856C490.295 515.756 493.619 512.432 497.719 512.432C501.82 512.432 505.144 515.756 505.144 519.856ZM530.201 527.281C534.302 527.281 537.626 523.957 537.626 519.856C537.626 515.756 534.302 512.432 530.201 512.432C526.101 512.432 522.777 515.756 522.777 519.856C522.777 523.957 526.101 527.281 530.201 527.281ZM570.108 519.856C570.108 523.957 566.784 527.281 562.683 527.281C558.583 527.281 555.259 523.957 555.259 519.856C555.259 515.756 558.583 512.432 562.683 512.432C566.784 512.432 570.108 515.756 570.108 519.856ZM593.309 527.281C597.41 527.281 600.734 523.957 600.734 519.856C600.734 515.756 597.41 512.432 593.309 512.432C589.209 512.432 585.885 515.756 585.885 519.856C585.885 523.957 589.209 527.281 593.309 527.281ZM633.216 519.856C633.216 523.957 629.892 527.281 625.791 527.281C621.691 527.281 618.367 523.957 618.367 519.856C618.367 515.756 621.691 512.432 625.791 512.432C629.892 512.432 633.216 515.756 633.216 519.856ZM658.273 527.281C662.374 527.281 665.698 523.957 665.698 519.856C665.698 515.756 662.374 512.432 658.273 512.432C654.173 512.432 650.849 515.756 650.849 519.856C650.849 523.957 654.173 527.281 658.273 527.281ZM505.144 553.266C505.144 557.367 501.82 560.691 497.719 560.691C493.619 560.691 490.295 557.367 490.295 553.266C490.295 549.166 493.619 545.842 497.719 545.842C501.82 545.842 505.144 549.166 505.144 553.266ZM530.201 560.691C534.302 560.691 537.626 557.367 537.626 553.266C537.626 549.166 534.302 545.842 530.201 545.842C526.101 545.842 522.777 549.166 522.777 553.266C522.777 557.367 526.101 560.691 530.201 560.691ZM570.108 553.266C570.108 557.367 566.784 560.691 562.683 560.691C558.583 560.691 555.259 557.367 555.259 553.266C555.259 549.166 558.583 545.842 562.683 545.842C566.784 545.842 570.108 549.166 570.108 553.266ZM593.309 560.691C597.41 560.691 600.734 557.367 600.734 553.266C600.734 549.166 597.41 545.842 593.309 545.842C589.209 545.842 585.885 549.166 585.885 553.266C585.885 557.367 589.209 560.691 593.309 560.691ZM633.216 553.266C633.216 557.367 629.892 560.691 625.791 560.691C621.691 560.691 618.367 557.367 618.367 553.266C618.367 549.166 621.691 545.842 625.791 545.842C629.892 545.842 633.216 549.166 633.216 553.266ZM658.273 560.691C662.374 560.691 665.698 557.367 665.698 553.266C665.698 549.166 662.374 545.842 658.273 545.842C654.173 545.842 650.849 549.166 650.849 553.266C650.849 557.367 654.173 560.691 658.273 560.691ZM505.144 586.677C505.144 590.777 501.82 594.101 497.719 594.101C493.619 594.101 490.295 590.777 490.295 586.677C490.295 582.576 493.619 579.252 497.719 579.252C501.82 579.252 505.144 582.576 505.144 586.677ZM530.201 594.101C534.302 594.101 537.626 590.777 537.626 586.677C537.626 582.576 534.302 579.252 530.201 579.252C526.101 579.252 522.777 582.576 522.777 586.677C522.777 590.777 526.101 594.101 530.201 594.101ZM570.108 586.677C570.108 590.777 566.784 594.101 562.683 594.101C558.583 594.101 555.259 590.777 555.259 586.677C555.259 582.576 558.583 579.252 562.683 579.252C566.784 579.252 570.108 582.576 570.108 586.677ZM593.309 594.101C597.41 594.101 600.734 590.777 600.734 586.677C600.734 582.576 597.41 579.252 593.309 579.252C589.209 579.252 585.885 582.576 585.885 586.677C585.885 590.777 589.209 594.101 593.309 594.101ZM633.216 586.677C633.216 590.777 629.892 594.101 625.791 594.101C621.691 594.101 618.367 590.777 618.367 586.677C618.367 582.576 621.691 579.252 625.791 579.252C629.892 579.252 633.216 582.576 633.216 586.677ZM658.273 594.101C662.374 594.101 665.698 590.777 665.698 586.677C665.698 582.576 662.374 579.252 658.273 579.252C654.173 579.252 650.849 582.576 650.849 586.677C650.849 590.777 654.173 594.101 658.273 594.101ZM505.144 620.087C505.144 624.187 501.82 627.511 497.719 627.511C493.619 627.511 490.295 624.187 490.295 620.087C490.295 615.986 493.619 612.662 497.719 612.662C501.82 612.662 505.144 615.986 505.144 620.087ZM530.201 627.511C534.302 627.511 537.626 624.187 537.626 620.087C537.626 615.986 534.302 612.662 530.201 612.662C526.101 612.662 522.777 615.986 522.777 620.087C522.777 624.187 526.101 627.511 530.201 627.511ZM570.108 620.087C570.108 624.187 566.784 627.511 562.683 627.511C558.583 627.511 555.259 624.187 555.259 620.087C555.259 615.986 558.583 612.662 562.683 612.662C566.784 612.662 570.108 615.986 570.108 620.087ZM593.309 627.511C597.41 627.511 600.734 624.187 600.734 620.087C600.734 615.986 597.41 612.662 593.309 612.662C589.209 612.662 585.885 615.986 585.885 620.087C585.885 624.187 589.209 627.511 593.309 627.511ZM633.216 620.087C633.216 624.187 629.892 627.511 625.791 627.511C621.691 627.511 618.367 624.187 618.367 620.087C618.367 615.986 621.691 612.662 625.791 612.662C629.892 612.662 633.216 615.986 633.216 620.087ZM658.273 627.511C662.374 627.511 665.698 624.187 665.698 620.087C665.698 615.986 662.374 612.662 658.273 612.662C654.173 612.662 650.849 615.986 650.849 620.087C650.849 624.187 654.173 627.511 658.273 627.511Z" fill="url(#paint2_linear)"/>
</g>
<defs>
<linearGradient id="paint0_linear" x1="-304.861" y1="85.7009" x2="805.653" y2="-531.742" gradientUnits="userSpaceOnUse">
<stop stop-color="#F96D8C"/>
<stop offset="1" stop-color="#FBD862"/>
</linearGradient>
<linearGradient id="paint1_linear" x1="-528" y1="-66.9999" x2="287.583" y2="1147.77" gradientUnits="userSpaceOnUse">
<stop stop-color="#F96D8C"/>
<stop offset="1" stop-color="#FBD862"/>
</linearGradient>
<linearGradient id="paint2_linear" x1="682.403" y1="408.489" x2="419.763" y2="658.137" gradientUnits="userSpaceOnUse">
<stop stop-color="#F96D8C"/>
<stop offset="1" stop-color="#FBD862"/>
</linearGradient>
</defs>
</svg>
