<svg width="412" height="689" viewBox="0 0 412 689" fill="none" xmlns="http://www.w3.org/2000/svg">
<path d="M125 469.835C125 441.915 107.818 424.196 79.1818 424.196C50.5454 424.196 33.3636 441.915 33.3636 470.193L33.3636 505.094L125 505.094L125 469.835ZM103.881 480.216L54.4829 480.216L54.4829 471.446C54.4829 457.128 60.0312 449.253 79.1818 449.253C98.3324 449.253 103.881 457.128 103.881 470.73L103.881 480.216ZM125 412.686L125 346.822L104.955 346.822L104.955 387.808L89.2045 387.808L89.2045 350.043L69.1591 350.043L69.1591 387.808L53.4091 387.808L53.4091 346.643L33.3636 346.643L33.3636 412.686L125 412.686ZM62 284.907L62 261.103C44.0128 261.192 32.1108 275.063 32.1108 297.256C32.1108 319.047 43.8338 334.439 61.2841 334.305C75.6023 334.349 83.5668 324.416 87.0568 308.174L89.0256 299.046C91.2628 288.844 93.8132 285.354 97.9744 285.265C102.494 285.354 105.67 289.471 105.67 297.435C105.67 306.966 101.196 312.604 92.7841 313.006L92.7841 336.631C115.783 336.542 126.074 320.971 126.074 297.077C126.074 273.855 116.051 259.94 97.9744 259.85C84.0142 259.94 74.2152 268.262 69.875 288.487L68.2642 296.004C66.4297 304.684 63.8792 308.577 59.4943 308.353C55.4673 308.308 52.5142 304.952 52.5142 297.256C52.5142 289.202 56.049 285.399 62 284.907ZM33.3636 225.509L33.3636 250.387L125 250.387L125 225.509L33.3636 225.509ZM63.6108 154.209L63.6108 129.062C45.2209 130.987 32.1108 147.676 32.1108 169.332C32.1108 194.031 49.1136 214.077 79.3608 214.077C108.355 214.077 126.253 195.911 126.253 169.153C126.253 145.17 111.577 127.989 86.5199 127.989L73.8125 127.989L73.8125 168.616L91.5312 168.616L91.5312 151.972C99.4957 152.195 104.597 157.833 104.597 168.974C104.597 181.861 95.1108 188.483 79.0028 188.483C63.1186 188.483 53.767 181.324 53.767 168.795C53.767 161.01 57.3466 155.73 63.6108 154.209ZM33.3636 37.1017L33.3636 61.9796L81.3295 61.9796L81.3295 62.6955L33.3636 95.2694L33.3636 116.389L125 116.389L125 91.5108L76.8551 91.5108L76.8551 90.9739L125 57.8631L125 37.1017L33.3636 37.1017Z" fill="white"/>
<path d="M33.3636 505.094L32.3636 505.094L32.3636 506.094L33.3636 506.094L33.3636 505.094ZM125 505.094L125 506.094L126 506.094L126 505.094L125 505.094ZM103.881 480.216L103.881 481.216L104.881 481.216L104.881 480.216L103.881 480.216ZM54.483 480.216L53.483 480.216L53.483 481.216L54.483 481.216L54.483 480.216ZM126 469.835C126 455.669 121.637 443.985 113.539 435.84C105.439 427.695 93.7089 423.196 79.1818 423.196L79.1818 425.196C93.2911 425.196 104.47 429.557 112.12 437.251C119.772 444.946 124 456.081 124 469.835L126 469.835ZM79.1818 423.196C64.6546 423.196 52.9231 427.695 44.823 435.887C36.7245 444.078 32.3636 455.851 32.3636 470.193L34.3636 470.193C34.3636 456.257 38.5937 445.032 46.2452 437.293C53.895 429.557 65.0726 425.196 79.1818 425.196L79.1818 423.196ZM32.3636 470.193L32.3636 505.094L34.3636 505.094L34.3636 470.193L32.3636 470.193ZM33.3636 506.094L125 506.094L125 504.094L33.3636 504.094L33.3636 506.094ZM126 505.094L126 469.835L124 469.835L124 505.094L126 505.094ZM103.881 479.216L54.483 479.216L54.483 481.216L103.881 481.216L103.881 479.216ZM55.483 480.216L55.483 471.446L53.483 471.446L53.483 480.216L55.483 480.216ZM55.483 471.446C55.483 464.383 56.8575 459.167 60.3559 455.689C63.8595 452.206 69.7087 450.253 79.1818 450.253L79.1818 448.253C69.5044 448.253 63.0041 450.237 58.9459 454.271C54.8826 458.31 53.483 464.191 53.483 471.446L55.483 471.446ZM79.1818 450.253C88.654 450.253 94.5104 452.206 98.0163 455.608C101.511 459 102.881 464.037 102.881 470.73L104.881 470.73C104.881 463.821 103.476 458.119 99.4091 454.173C95.3532 450.237 88.8602 448.253 79.1818 448.253L79.1818 450.253ZM102.881 470.73L102.881 480.216L104.881 480.216L104.881 470.73L102.881 470.73ZM125 412.686L125 413.686L126 413.686L126 412.686L125 412.686ZM125 346.822L126 346.822L126 345.822L125 345.822L125 346.822ZM104.955 346.822L104.955 345.822L103.955 345.822L103.955 346.822L104.955 346.822ZM104.955 387.808L104.955 388.808L105.955 388.808L105.955 387.808L104.955 387.808ZM89.2045 387.808L88.2045 387.808L88.2045 388.808L89.2045 388.808L89.2045 387.808ZM89.2045 350.043L90.2045 350.043L90.2045 349.043L89.2045 349.043L89.2045 350.043ZM69.1591 350.043L69.1591 349.043L68.1591 349.043L68.1591 350.043L69.1591 350.043ZM69.1591 387.808L69.1591 388.808L70.1591 388.808L70.1591 387.808L69.1591 387.808ZM53.4091 387.808L52.4091 387.808L52.4091 388.808L53.4091 388.808L53.4091 387.808ZM53.4091 346.643L54.4091 346.643L54.4091 345.643L53.4091 345.643L53.4091 346.643ZM33.3636 346.643L33.3636 345.643L32.3636 345.643L32.3636 346.643L33.3636 346.643ZM33.3636 412.686L32.3636 412.686L32.3636 413.686L33.3636 413.686L33.3636 412.686ZM126 412.686L126 346.822L124 346.822L124 412.686L126 412.686ZM125 345.822L104.955 345.822L104.955 347.822L125 347.822L125 345.822ZM103.955 346.822L103.955 387.808L105.955 387.808L105.955 346.822L103.955 346.822ZM104.955 386.808L89.2045 386.808L89.2045 388.808L104.955 388.808L104.955 386.808ZM90.2045 387.808L90.2045 350.043L88.2045 350.043L88.2045 387.808L90.2045 387.808ZM89.2045 349.043L69.1591 349.043L69.1591 351.043L89.2045 351.043L89.2045 349.043ZM68.1591 350.043L68.1591 387.808L70.1591 387.808L70.1591 350.043L68.1591 350.043ZM69.1591 386.808L53.4091 386.808L53.4091 388.808L69.1591 388.808L69.1591 386.808ZM54.4091 387.808L54.4091 346.643L52.4091 346.643L52.4091 387.808L54.4091 387.808ZM53.4091 345.643L33.3636 345.643L33.3636 347.643L53.4091 347.643L53.4091 345.643ZM32.3636 346.643L32.3636 412.686L34.3636 412.686L34.3636 346.643L32.3636 346.643ZM33.3636 413.686L125 413.686L125 411.686L33.3636 411.686L33.3636 413.686ZM62 284.907L62.0824 285.904L63 285.828L63 284.907L62 284.907ZM62 261.103L63 261.103L63 260.098L61.995 260.103L62 261.103ZM61.2841 334.305L61.2872 333.305L61.2764 333.305L61.2841 334.305ZM87.0568 308.174L86.0793 307.963L86.0791 307.964L87.0568 308.174ZM89.0256 299.046L88.0488 298.832L88.048 298.835L89.0256 299.046ZM97.9744 285.265L97.9942 284.265L97.9736 284.265L97.9529 284.265L97.9744 285.265ZM92.7841 313.006L92.7363 312.008L91.7841 312.053L91.7841 313.006L92.7841 313.006ZM92.7841 336.631L91.7841 336.631L91.7841 337.635L92.788 337.631L92.7841 336.631ZM97.9744 259.85L97.9794 258.85L97.968 258.85L97.9744 259.85ZM69.875 288.487L68.8973 288.277L68.8972 288.277L69.875 288.487ZM68.2642 296.004L67.2864 295.794L67.2858 295.797L68.2642 296.004ZM59.4943 308.353L59.5453 307.354L59.5254 307.353L59.5054 307.353L59.4943 308.353ZM63 284.907L63 261.103L61 261.103L61 284.907L63 284.907ZM61.995 260.103C52.7256 260.149 44.9673 263.756 39.5427 270.25C34.1326 276.726 31.1108 285.989 31.1108 297.256L33.1108 297.256C33.1108 286.331 36.04 277.562 41.0776 271.532C46.1009 265.519 53.2871 262.146 62.005 262.103L61.995 260.103ZM31.1108 297.256C31.1108 308.322 34.0867 317.849 39.365 324.617C44.6584 331.405 52.2402 335.374 61.2918 335.305L61.2764 333.305C52.8776 333.369 45.8728 329.71 40.9421 323.387C35.9964 317.046 33.1108 307.982 33.1108 297.256L31.1108 297.256ZM61.281 335.305C68.7014 335.328 74.5433 332.753 78.9613 328.03C83.3492 323.34 86.269 316.6 88.0345 308.384L86.0791 307.964C84.3545 315.99 81.5471 322.338 77.5007 326.664C73.4844 330.957 68.1849 333.326 61.2872 333.305L61.281 335.305ZM88.0343 308.385L90.0031 299.257L88.048 298.835L86.0793 307.963L88.0343 308.385ZM90.0023 299.26C91.1162 294.181 92.2823 290.913 93.6109 288.918C94.2654 287.935 94.9395 287.292 95.6376 286.886C96.3306 286.483 97.1001 286.284 97.9959 286.265L97.9529 284.265C96.7682 284.291 95.6584 284.561 94.6329 285.157C93.6126 285.749 92.729 286.633 91.9461 287.809C90.3999 290.132 89.1722 293.709 88.0488 298.832L90.0023 299.26ZM97.9546 286.265C99.8726 286.303 101.5 287.176 102.685 288.952C103.896 290.766 104.67 293.568 104.67 297.435L106.67 297.435C106.67 293.338 105.856 290.1 104.349 287.842C102.816 285.546 100.595 284.317 97.9942 284.265L97.9546 286.265ZM104.67 297.435C104.67 302.057 103.585 305.596 101.608 308.01C99.6497 310.403 96.7152 311.817 92.7363 312.008L92.8319 314.005C97.2649 313.793 100.774 312.187 103.156 309.277C105.519 306.39 106.67 302.344 106.67 297.435L104.67 297.435ZM91.7841 313.006L91.7841 336.631L93.7841 336.631L93.7841 313.006L91.7841 313.006ZM92.788 337.631C104.532 337.586 113.167 333.574 118.838 326.401C124.478 319.267 127.074 309.147 127.074 297.077L125.074 297.077C125.074 308.902 122.524 318.513 117.269 325.161C112.044 331.769 104.035 335.588 92.7802 335.631L92.788 337.631ZM127.074 297.077C127.074 285.341 124.544 275.817 119.605 269.191C114.636 262.526 107.304 258.896 97.9794 258.85L97.9695 260.85C106.721 260.893 113.439 264.267 118.001 270.387C122.593 276.546 125.074 285.591 125.074 297.077L127.074 297.077ZM97.968 258.85C90.7741 258.896 84.5713 261.072 79.619 265.902C74.6904 270.708 71.0909 278.055 68.8973 288.277L70.8527 288.696C72.9992 278.694 76.4694 271.767 81.0154 267.334C85.5377 262.923 91.2146 260.893 97.9808 260.85L97.968 258.85ZM68.8972 288.277L67.2864 295.794L69.242 296.213L70.8528 288.696L68.8972 288.277ZM67.2858 295.797C66.375 300.107 65.3112 303.086 64.0153 304.946C63.3767 305.862 62.7016 306.476 61.9879 306.855C61.2802 307.23 60.4814 307.402 59.5453 307.354L59.4434 309.352C60.6997 309.416 61.864 309.185 62.9251 308.622C63.9802 308.062 64.8796 307.203 65.6561 306.089C67.1902 303.888 68.3189 300.581 69.2426 296.21L67.2858 295.797ZM59.5054 307.353C57.8055 307.334 56.369 306.636 55.3182 305.107C54.2356 303.532 53.5142 300.998 53.5142 297.256L51.5142 297.256C51.5142 301.211 52.2693 304.202 53.67 306.24C55.1026 308.325 57.1561 309.327 59.4832 309.353L59.5054 307.353ZM53.5142 297.256C53.5142 293.361 54.3706 290.652 55.804 288.874C57.22 287.117 59.3092 286.133 62.0824 285.904L61.9176 283.91C58.7398 284.173 56.0861 285.337 54.2469 287.618C52.4252 289.878 51.5142 293.098 51.5142 297.256L53.5142 297.256ZM33.3636 225.509L33.3636 224.509L32.3636 224.509L32.3636 225.509L33.3636 225.509ZM33.3636 250.387L32.3636 250.387L32.3636 251.387L33.3636 251.387L33.3636 250.387ZM125 250.387L125 251.387L126 251.387L126 250.387L125 250.387ZM125 225.509L126 225.509L126 224.509L125 224.509L125 225.509ZM32.3636 225.509L32.3636 250.387L34.3636 250.387L34.3636 225.509L32.3636 225.509ZM33.3636 251.387L125 251.387L125 249.387L33.3636 249.387L33.3636 251.387ZM126 250.387L126 225.509L124 225.509L124 250.387L126 250.387ZM125 224.509L33.3636 224.509L33.3636 226.509L125 226.509L125 224.509ZM63.6108 154.209L63.8468 155.181L64.6108 154.995L64.6108 154.209L63.6108 154.209ZM63.6108 129.062L64.6108 129.062L64.6108 127.952L63.5067 128.068L63.6108 129.062ZM73.8125 127.989L73.8125 126.989L72.8125 126.989L72.8125 127.989L73.8125 127.989ZM73.8125 168.616L72.8125 168.616L72.8125 169.616L73.8125 169.616L73.8125 168.616ZM91.5312 168.616L91.5312 169.616L92.5312 169.616L92.5312 168.616L91.5312 168.616ZM91.5312 151.972L91.5593 150.972L90.5312 150.943L90.5312 151.972L91.5312 151.972ZM64.6108 154.209L64.6108 129.062L62.6108 129.062L62.6108 154.209L64.6108 154.209ZM63.5067 128.068C44.4895 130.058 31.1108 147.292 31.1108 169.332L33.1108 169.332C33.1108 148.06 45.9523 131.915 63.7148 130.057L63.5067 128.068ZM31.1108 169.332C31.1108 181.913 35.4438 193.363 43.683 201.671C51.9273 209.984 64.008 215.077 79.3608 215.077L79.3608 213.077C64.4664 213.077 52.9221 208.147 45.1031 200.262C37.2792 192.373 33.1108 181.451 33.1108 169.332L31.1108 169.332ZM79.3608 215.077C94.0692 215.077 106.059 210.465 114.377 202.365C122.697 194.264 127.253 182.761 127.253 169.153L125.253 169.153C125.253 182.303 120.86 193.262 112.982 200.933C105.103 208.605 93.6466 213.077 79.3608 213.077L79.3608 215.077ZM127.253 169.153C127.253 156.96 123.52 146.408 116.514 138.895C109.5 131.373 99.288 126.989 86.5199 126.989L86.5199 128.989C98.8085 128.989 108.463 133.195 115.051 140.259C121.648 147.333 125.253 157.364 125.253 169.153L127.253 169.153ZM86.5199 126.989L73.8125 126.989L73.8125 128.989L86.5199 128.989L86.5199 126.989ZM72.8125 127.989L72.8125 168.616L74.8125 168.616L74.8125 127.989L72.8125 127.989ZM73.8125 169.616L91.5312 169.616L91.5312 167.616L73.8125 167.616L73.8125 169.616ZM92.5312 168.616L92.5312 151.972L90.5312 151.972L90.5312 168.616L92.5312 168.616ZM91.5032 152.971C95.2388 153.076 98.2108 154.438 100.271 157.005C102.352 159.598 103.597 163.542 103.597 168.974L105.597 168.974C105.597 163.266 104.291 158.82 101.831 155.753C99.3488 152.66 95.7882 151.091 91.5593 150.972L91.5032 152.971ZM103.597 168.974C103.597 175.143 101.343 179.705 97.2428 182.759C93.0966 185.848 86.942 187.483 79.0028 187.483L79.0028 189.483C87.1716 189.483 93.8139 187.807 98.4376 184.363C103.107 180.885 105.597 175.693 105.597 168.974L103.597 168.974ZM79.0028 187.483C71.1938 187.483 65.1303 185.721 61.0415 182.547C56.9877 179.401 54.767 174.785 54.767 168.795L52.767 168.795C52.767 175.335 55.2222 180.562 59.8152 184.127C64.3733 187.665 70.9276 189.483 79.0028 189.483L79.0028 187.483ZM54.767 168.795C54.767 165.051 55.6277 161.993 57.1684 159.713C58.7003 157.446 60.9449 155.885 63.8468 155.181L63.3748 153.237C60.0125 154.054 57.3351 155.894 55.5112 158.593C53.6961 161.28 52.767 164.754 52.767 168.795L54.767 168.795ZM33.3636 37.1017L33.3636 36.1017L32.3636 36.1017L32.3636 37.1017L33.3636 37.1017ZM33.3636 61.9796L32.3636 61.9796L32.3636 62.9796L33.3636 62.9796L33.3636 61.9796ZM81.3295 61.9796L82.3295 61.9796L82.3295 60.9796L81.3295 60.9796L81.3295 61.9796ZM81.3295 62.6955L81.8913 63.5228L82.3295 63.2252L82.3295 62.6955L81.3295 62.6955ZM33.3636 95.2693L32.8018 94.4421L32.3636 94.7397L32.3636 95.2693L33.3636 95.2693ZM33.3636 116.389L32.3636 116.389L32.3636 117.389L33.3636 117.389L33.3636 116.389ZM125 116.389L125 117.389L126 117.389L126 116.389L125 116.389ZM125 91.5108L126 91.5108L126 90.5108L125 90.5108L125 91.5108ZM76.8551 91.5108L75.8551 91.5108L75.8551 92.5108L76.8551 92.5108L76.8551 91.5108ZM76.8551 90.9739L76.2884 90.1499L75.8551 90.448L75.8551 90.9739L76.8551 90.9739ZM125 57.8631L125.567 58.6871L126 58.389L126 57.8631L125 57.8631ZM125 37.1017L126 37.1017L126 36.1017L125 36.1017L125 37.1017ZM32.3636 37.1017L32.3636 61.9796L34.3636 61.9796L34.3636 37.1017L32.3636 37.1017ZM33.3636 62.9796L81.3295 62.9796L81.3295 60.9796L33.3636 60.9796L33.3636 62.9796ZM80.3295 61.9796L80.3295 62.6955L82.3295 62.6955L82.3295 61.9796L80.3295 61.9796ZM80.7677 61.8682L32.8018 94.4421L33.9254 96.0966L81.8913 63.5228L80.7677 61.8682ZM32.3636 95.2693L32.3636 116.389L34.3636 116.389L34.3636 95.2693L32.3636 95.2693ZM33.3636 117.389L125 117.389L125 115.389L33.3636 115.389L33.3636 117.389ZM126 116.389L126 91.5108L124 91.5108L124 116.389L126 116.389ZM125 90.5108L76.8551 90.5108L76.8551 92.5108L125 92.5108L125 90.5108ZM77.8551 91.5108L77.8551 90.9739L75.8551 90.9739L75.8551 91.5108L77.8551 91.5108ZM77.4217 91.7978L125.567 58.6871L124.433 57.0391L76.2884 90.1499L77.4217 91.7978ZM126 57.8631L126 37.1017L124 37.1017L124 57.8631L126 57.8631ZM125 36.1017L33.3636 36.1017L33.3636 38.1017L125 38.1017L125 36.1017Z" fill="url(#paint0_linear)"/>
<circle cx="-16.5" cy="344.5" r="344.5" fill="url(#paint1_linear)"/>
<g filter="url(#filter0_f)">
<path fill-rule="evenodd" clip-rule="evenodd" d="M-96.1717 302L-180.993 353.498H-181L-96.1717 302ZM-180.996 456.501L-96.1663 508.001V302L-11.3294 353.498L73.5059 405L158.335 353.498L243.163 302V405L158.335 456.499L73.5059 508.002V611L158.335 559.501L243.163 508.002L328 456.502V147.498L243.163 198.998L158.335 250.501L73.5059 302L-11.3294 250.501L-96.1663 199.002V96L-180.988 147.498H-180.995V456.501H-180.996Z" fill="url(#paint2_linear)"/>
</g>
<path fill-rule="evenodd" clip-rule="evenodd" d="M62.3417 424.683C67.501 424.683 71.6834 420.501 71.6834 415.342C71.6834 410.182 67.501 406 62.3417 406C57.1824 406 53 410.182 53 415.342C53 420.501 57.1824 424.683 62.3417 424.683ZM103.212 424.684C108.371 424.684 112.553 420.501 112.553 415.342C112.553 410.183 108.371 406 103.212 406C98.0524 406 93.87 410.183 93.87 415.342C93.87 420.501 98.0524 424.684 103.212 424.684ZM153.423 415.342C153.423 420.501 149.241 424.684 144.082 424.684C138.922 424.684 134.74 420.501 134.74 415.342C134.74 410.183 138.922 406 144.082 406C149.241 406 153.423 410.183 153.423 415.342ZM182.616 424.684C187.775 424.684 191.958 420.501 191.958 415.342C191.958 410.183 187.775 406 182.616 406C177.457 406 173.275 410.183 173.275 415.342C173.275 420.501 177.457 424.684 182.616 424.684ZM232.828 415.342C232.828 420.501 228.645 424.684 223.486 424.684C218.327 424.684 214.144 420.501 214.144 415.342C214.144 410.183 218.327 406 223.486 406C228.645 406 232.828 410.183 232.828 415.342ZM264.356 424.684C269.515 424.684 273.698 420.501 273.698 415.342C273.698 410.183 269.515 406 264.356 406C259.197 406 255.014 410.183 255.014 415.342C255.014 420.501 259.197 424.684 264.356 424.684ZM71.6835 457.379C71.6835 462.539 67.501 466.721 62.3418 466.721C57.1825 466.721 53.0001 462.539 53.0001 457.379C53.0001 452.22 57.1825 448.038 62.3418 448.038C67.501 448.038 71.6835 452.22 71.6835 457.379ZM103.212 466.721C108.371 466.721 112.553 462.539 112.553 457.379C112.553 452.22 108.371 448.038 103.212 448.038C98.0524 448.038 93.87 452.22 93.87 457.379C93.87 462.539 98.0524 466.721 103.212 466.721ZM153.423 457.379C153.423 462.539 149.241 466.721 144.082 466.721C138.922 466.721 134.74 462.539 134.74 457.379C134.74 452.22 138.922 448.038 144.082 448.038C149.241 448.038 153.423 452.22 153.423 457.379ZM182.616 466.721C187.775 466.721 191.958 462.539 191.958 457.379C191.958 452.22 187.775 448.038 182.616 448.038C177.457 448.038 173.275 452.22 173.275 457.379C173.275 462.539 177.457 466.721 182.616 466.721ZM232.828 457.379C232.828 462.539 228.645 466.721 223.486 466.721C218.327 466.721 214.144 462.539 214.144 457.379C214.144 452.22 218.327 448.038 223.486 448.038C228.645 448.038 232.828 452.22 232.828 457.379ZM264.356 466.721C269.515 466.721 273.698 462.539 273.698 457.379C273.698 452.22 269.515 448.038 264.356 448.038C259.197 448.038 255.014 452.22 255.014 457.379C255.014 462.539 259.197 466.721 264.356 466.721ZM71.6835 499.417C71.6835 504.576 67.501 508.759 62.3418 508.759C57.1825 508.759 53.0001 504.576 53.0001 499.417C53.0001 494.258 57.1825 490.075 62.3418 490.075C67.501 490.075 71.6835 494.258 71.6835 499.417ZM103.212 508.759C108.371 508.759 112.553 504.576 112.553 499.417C112.553 494.258 108.371 490.075 103.212 490.075C98.0524 490.075 93.87 494.258 93.87 499.417C93.87 504.576 98.0524 508.759 103.212 508.759ZM153.423 499.417C153.423 504.576 149.241 508.759 144.082 508.759C138.922 508.759 134.74 504.576 134.74 499.417C134.74 494.258 138.922 490.075 144.082 490.075C149.241 490.075 153.423 494.258 153.423 499.417ZM182.616 508.759C187.775 508.759 191.958 504.576 191.958 499.417C191.958 494.258 187.775 490.075 182.616 490.075C177.457 490.075 173.275 494.258 173.275 499.417C173.275 504.576 177.457 508.759 182.616 508.759ZM232.828 499.417C232.828 504.576 228.645 508.759 223.486 508.759C218.327 508.759 214.144 504.576 214.144 499.417C214.144 494.258 218.327 490.075 223.486 490.075C228.645 490.075 232.828 494.258 232.828 499.417ZM264.356 508.759C269.515 508.759 273.698 504.576 273.698 499.417C273.698 494.258 269.515 490.075 264.356 490.075C259.197 490.075 255.014 494.258 255.014 499.417C255.014 504.576 259.197 508.759 264.356 508.759ZM71.6835 541.455C71.6835 546.614 67.501 550.797 62.3418 550.797C57.1825 550.797 53.0001 546.614 53.0001 541.455C53.0001 536.296 57.1825 532.113 62.3418 532.113C67.501 532.113 71.6835 536.296 71.6835 541.455ZM103.212 550.797C108.371 550.797 112.553 546.614 112.553 541.455C112.553 536.296 108.371 532.113 103.212 532.113C98.0524 532.113 93.87 536.296 93.87 541.455C93.87 546.614 98.0524 550.797 103.212 550.797ZM153.423 541.455C153.423 546.614 149.241 550.797 144.082 550.797C138.922 550.797 134.74 546.614 134.74 541.455C134.74 536.296 138.922 532.113 144.082 532.113C149.241 532.113 153.423 536.296 153.423 541.455ZM182.616 550.797C187.775 550.797 191.958 546.614 191.958 541.455C191.958 536.296 187.775 532.113 182.616 532.113C177.457 532.113 173.275 536.296 173.275 541.455C173.275 546.614 177.457 550.797 182.616 550.797ZM232.828 541.455C232.828 546.614 228.645 550.797 223.486 550.797C218.327 550.797 214.144 546.614 214.144 541.455C214.144 536.296 218.327 532.113 223.486 532.113C228.645 532.113 232.828 536.296 232.828 541.455ZM264.356 550.797C269.515 550.797 273.698 546.614 273.698 541.455C273.698 536.296 269.515 532.113 264.356 532.113C259.197 532.113 255.014 536.296 255.014 541.455C255.014 546.614 259.197 550.797 264.356 550.797ZM71.6835 583.493C71.6835 588.652 67.501 592.834 62.3418 592.834C57.1825 592.834 53.0001 588.652 53.0001 583.493C53.0001 578.333 57.1825 574.151 62.3418 574.151C67.501 574.151 71.6835 578.333 71.6835 583.493ZM103.212 592.834C108.371 592.834 112.553 588.652 112.553 583.493C112.553 578.333 108.371 574.151 103.212 574.151C98.0524 574.151 93.87 578.333 93.87 583.493C93.87 588.652 98.0524 592.834 103.212 592.834ZM153.423 583.493C153.423 588.652 149.241 592.834 144.082 592.834C138.922 592.834 134.74 588.652 134.74 583.493C134.74 578.333 138.922 574.151 144.082 574.151C149.241 574.151 153.423 578.333 153.423 583.493ZM182.616 592.834C187.775 592.834 191.958 588.652 191.958 583.493C191.958 578.333 187.775 574.151 182.616 574.151C177.457 574.151 173.275 578.333 173.275 583.493C173.275 588.652 177.457 592.834 182.616 592.834ZM232.828 583.493C232.828 588.652 228.645 592.834 223.486 592.834C218.327 592.834 214.144 588.652 214.144 583.493C214.144 578.333 218.327 574.151 223.486 574.151C228.645 574.151 232.828 578.333 232.828 583.493ZM264.356 592.834C269.515 592.834 273.698 588.652 273.698 583.493C273.698 578.333 269.515 574.151 264.356 574.151C259.197 574.151 255.014 578.333 255.014 583.493C255.014 588.652 259.197 592.834 264.356 592.834Z" fill="url(#paint3_linear)"/>
<defs>
<filter id="filter0_f" x="-265" y="12" width="677" height="683" filterUnits="userSpaceOnUse" color-interpolation-filters="sRGB">
<feFlood flood-opacity="0" result="BackgroundImageFix"/>
<feBlend mode="normal" in="SourceGraphic" in2="BackgroundImageFix" result="shape"/>
<feGaussianBlur stdDeviation="42" result="effect1_foregroundBlur"/>
</filter>
<linearGradient id="paint0_linear" x1="3" y1="511" x2="2.99998" y2="31" gradientUnits="userSpaceOnUse">
<stop stop-color="#F96D8C"/>
<stop offset="1" stop-color="#FBD862"/>
</linearGradient>
<linearGradient id="paint1_linear" x1="-219" y1="472" x2="176" y2="-168.5" gradientUnits="userSpaceOnUse">
<stop stop-color="#F96D8C"/>
<stop offset="1" stop-color="#FBD862"/>
</linearGradient>
<linearGradient id="paint2_linear" x1="248.735" y1="78.8415" x2="-214.262" y2="503.591" gradientUnits="userSpaceOnUse">
<stop stop-color="#F96D8C"/>
<stop offset="1" stop-color="#FBD862"/>
</linearGradient>
<linearGradient id="paint3_linear" x1="294.717" y1="317.254" x2="-35.7463" y2="631.369" gradientUnits="userSpaceOnUse">
<stop stop-color="#F96D8C"/>
<stop offset="1" stop-color="#FBD862"/>
</linearGradient>
</defs>
</svg>
