<svg width="412" height="689" fill="none" xmlns="http://www.w3.org/2000/svg"><path d="M125 469.835c0-27.92-17.182-45.639-45.818-45.639-28.637 0-45.818 17.719-45.818 45.997v34.901H125v-35.259zm-21.119 10.381H54.483v-8.77c0-14.318 5.548-22.193 24.699-22.193 19.15 0 24.699 7.875 24.699 21.477v9.486zM125 412.686v-65.864h-20.045v40.986h-15.75v-37.765H69.159v37.765H53.41v-41.165H33.364v66.043H125zM62 284.907v-23.804c-17.987.089-29.89 13.96-29.89 36.153 0 21.791 11.724 37.183 29.174 37.049 14.318.044 22.283-9.889 25.773-26.131l1.969-9.128c2.237-10.202 4.787-13.692 8.948-13.781 4.52.089 7.696 4.206 7.696 12.17 0 9.531-4.474 15.169-12.886 15.571v23.625c22.999-.089 33.29-15.66 33.29-39.554 0-23.222-10.023-37.137-28.1-37.227-13.96.09-23.759 8.412-28.099 28.637l-1.61 7.517c-1.835 8.68-4.386 12.573-8.77 12.349-4.028-.045-6.98-3.401-6.98-11.097 0-8.054 3.534-11.857 9.485-12.349zm-28.636-59.398v24.878H125v-24.878H33.364zm30.247-71.3v-25.147c-18.39 1.925-31.5 18.614-31.5 40.27 0 24.699 17.003 44.745 47.25 44.745 28.994 0 46.892-18.166 46.892-44.924 0-23.983-14.676-41.164-39.733-41.164H73.813v40.627H91.53v-16.644c7.965.223 13.066 5.861 13.066 17.002 0 12.887-9.486 19.509-25.594 19.509-15.884 0-25.236-7.159-25.236-19.688 0-7.785 3.58-13.065 9.844-14.586zM33.364 37.102V61.98h47.965v.716L33.364 95.269v21.12H125V91.511H76.855v-.537L125 57.864V37.101H33.364z" fill="#fff"/><path d="M33.364 505.094h-1v1h1v-1zm91.636 0v1h1v-1h-1zm-21.119-24.878v1h1v-1h-1zm-49.398 0h-1v1h1v-1zM126 469.835c0-14.166-4.363-25.85-12.461-33.995-8.1-8.145-19.83-12.644-34.357-12.644v2c14.11 0 25.288 4.361 32.938 12.055 7.652 7.695 11.88 18.83 11.88 32.584h2zm-46.818-46.639c-14.527 0-26.259 4.499-34.359 12.691-8.099 8.191-12.46 19.964-12.46 34.306h2c0-13.936 4.23-25.161 11.882-32.9 7.65-7.736 18.828-12.097 32.937-12.097v-2zm-46.818 46.997v34.901h2v-34.901h-2zm1 35.901H125v-2H33.364v2zm92.636-1v-35.259h-2v35.259h2zm-22.119-25.878H54.483v2h49.398v-2zm-48.398 1v-8.77h-2v8.77h2zm0-8.77c0-7.063 1.375-12.279 4.873-15.757 3.503-3.483 9.353-5.436 18.826-5.436v-2c-9.678 0-16.178 1.984-20.236 6.018-4.063 4.039-5.463 9.92-5.463 17.175h2zm23.699-21.193c9.472 0 15.328 1.953 18.834 5.355 3.495 3.392 4.865 8.429 4.865 15.122h2c0-6.909-1.405-12.611-5.472-16.557-4.056-3.936-10.549-5.92-20.227-5.92v2zm23.699 20.477v9.486h2v-9.486h-2zM125 412.686v1h1v-1h-1zm0-65.864h1v-1h-1v1zm-20.045 0v-1h-1v1h1zm0 40.986v1h1v-1h-1zm-15.75 0h-1v1h1v-1zm0-37.765h1v-1h-1v1zm-20.046 0v-1h-1v1h1zm0 37.765v1h1v-1h-1zm-15.75 0h-1v1h1v-1zm0-41.165h1v-1h-1v1zm-20.045 0v-1h-1v1h1zm0 66.043h-1v1h1v-1zm92.636 0v-65.864h-2v65.864h2zm-1-66.864h-20.045v2H125v-2zm-21.045 1v40.986h2v-40.986h-2zm1 39.986h-15.75v2h15.75v-2zm-14.75 1v-37.765h-2v37.765h2zm-1-38.765H69.159v2h20.045v-2zm-21.046 1v37.765h2v-37.765h-2zm1 36.765H53.41v2h15.75v-2zm-14.75 1v-41.165h-2v41.165h2zm-1-42.165H33.364v2h20.045v-2zm-21.045 1v66.043h2v-66.043h-2zm1 67.043H125v-2H33.364v2zM62 284.907l.082.997.918-.076v-.921h-1zm0-23.804h1v-1.005l-1.005.005.005 1zm-.716 73.202l.003-1h-.01l.007 1zm25.773-26.131l-.978-.211v.001l.978.21zm1.969-9.128l-.977-.214-.001.003.978.211zm8.948-13.781l.02-1h-.041l.021 1zm-5.19 27.741l-.048-.998-.952.045v.953h1zm0 23.625h-1v1.004l1.004-.004-.004-1zm5.19-76.781l.005-1h-.011l.006 1zm-28.099 28.637l-.978-.21.978.21zm-1.61 7.517l-.979-.21v.003l.978.207zm-8.77 12.349l.05-.999-.02-.001h-.02l-.01 1zM63 284.907v-23.804h-2v23.804h2zm-1.005-24.804c-9.27.046-17.028 3.653-22.452 10.147-5.41 6.476-8.432 15.739-8.432 27.006h2c0-10.925 2.929-19.694 7.967-25.724 5.023-6.013 12.21-9.386 20.927-9.429l-.01-2zm-30.884 37.153c0 11.066 2.976 20.593 8.254 27.361 5.293 6.788 12.875 10.757 21.927 10.688l-.016-2c-8.398.064-15.403-3.595-20.334-9.918-4.946-6.341-7.831-15.405-7.831-26.131h-2zm30.17 38.049c7.42.023 13.262-2.552 17.68-7.275 4.388-4.69 7.308-11.43 9.073-19.646l-1.955-.42c-1.724 8.026-4.532 14.374-8.578 18.7-4.017 4.293-9.316 6.662-16.214 6.641l-.006 2zm26.753-26.92l1.97-9.128-1.956-.422-1.969 9.128 1.955.422zm1.968-9.125c1.114-5.079 2.28-8.347 3.609-10.342.654-.983 1.328-1.626 2.027-2.032.693-.403 1.462-.602 2.358-.621l-.043-2c-1.185.026-2.295.296-3.32.892-1.02.592-1.904 1.476-2.687 2.652-1.546 2.323-2.774 5.9-3.897 11.023l1.953.428zm7.953-12.995c1.918.038 3.545.911 4.73 2.687 1.211 1.814 1.985 4.616 1.985 8.483h2c0-4.097-.814-7.335-2.321-9.593-1.533-2.296-3.754-3.525-6.355-3.577l-.04 2zm6.715 11.17c0 4.622-1.085 8.161-3.062 10.575-1.958 2.393-4.893 3.807-8.872 3.998l.096 1.997c4.433-.212 7.942-1.818 10.324-4.728 2.363-2.887 3.514-6.933 3.514-11.842h-2zm-12.886 15.571v23.625h2v-23.625h-2zm1.004 24.625c11.744-.045 20.379-4.057 26.05-11.23 5.64-7.134 8.236-17.254 8.236-29.324h-2c0 11.825-2.55 21.436-7.805 28.084-5.225 6.608-13.234 10.427-24.489 10.47l.008 2zm34.286-40.554c0-11.736-2.53-21.26-7.469-27.886-4.969-6.665-12.301-10.295-21.626-10.341l-.01 2c8.752.043 15.47 3.417 20.032 9.537 4.592 6.159 7.073 15.204 7.073 26.69h2zM97.968 258.85c-7.194.046-13.397 2.222-18.349 7.052-4.929 4.806-8.528 12.153-10.722 22.375l1.956.419c2.146-10.002 5.616-16.929 10.162-21.362 4.523-4.411 10.2-6.441 16.966-6.484l-.013-2zm-29.07 29.427l-1.612 7.517 1.956.419 1.61-7.517-1.955-.419zm-1.612 7.52c-.911 4.31-1.975 7.289-3.27 9.149-.64.916-1.314 1.53-2.028 1.909-.708.375-1.507.547-2.443.499l-.102 1.998c1.257.064 2.421-.167 3.482-.73 1.055-.56 1.955-1.419 2.731-2.533 1.534-2.201 2.663-5.508 3.587-9.879l-1.957-.413zm-7.78 11.556c-1.7-.019-3.137-.717-4.188-2.246-1.082-1.575-1.804-4.109-1.804-7.851h-2c0 3.955.755 6.946 2.156 8.984 1.433 2.085 3.486 3.087 5.813 3.113l.022-2zm-5.992-10.097c0-3.895.857-6.604 2.29-8.382 1.416-1.757 3.505-2.741 6.278-2.97l-.164-1.994c-3.178.263-5.832 1.427-7.671 3.708-1.822 2.26-2.733 5.48-2.733 9.638h2zm-20.15-71.747v-1h-1v1h1zm0 24.878h-1v1h1v-1zm91.636 0v1h1v-1h-1zm0-24.878h1v-1h-1v1zm-92.636 0v24.878h2v-24.878h-2zm1 25.878H125v-2H33.364v2zm92.636-1v-24.878h-2v24.878h2zm-1-25.878H33.364v2H125v-2zm-61.39-70.3l.237.972.764-.186v-.786h-1zm0-25.147h1v-1.11l-1.103.116.104.994zm10.203-1.073v-1h-1v1h1zm0 40.627h-1v1h1v-1zm17.718 0v1h1v-1h-1zm0-16.644l.028-1-1.028-.029v1.029h1zm-26.92 2.237v-25.147h-2v25.147h2zm-1.104-26.141c-19.017 1.99-32.396 19.224-32.396 41.264h2c0-21.272 12.841-37.417 30.604-39.275l-.208-1.989zM31.11 169.332c0 12.581 4.333 24.031 12.572 32.339 8.244 8.313 20.325 13.406 35.678 13.406v-2c-14.895 0-26.439-4.93-34.258-12.815-7.824-7.889-11.992-18.811-11.992-30.93h-2zm48.25 45.745c14.708 0 26.698-4.612 35.016-12.712 8.32-8.101 12.876-19.604 12.876-33.212h-2c0 13.15-4.393 24.109-12.271 31.78-7.879 7.672-19.335 12.144-33.621 12.144v2zm47.892-45.924c0-12.193-3.733-22.745-10.739-30.258-7.014-7.522-17.226-11.906-29.994-11.906v2c12.288 0 21.943 4.206 28.531 11.27 6.597 7.074 10.202 17.105 10.202 28.894h2zM86.52 126.989H73.813v2H86.52v-2zm-13.707 1v40.627h2v-40.627h-2zm1 41.627H91.53v-2H73.812v2zm18.718-1v-16.644h-2v16.644h2zm-1.028-15.645c3.736.105 6.708 1.467 8.768 4.034 2.081 2.593 3.326 6.537 3.326 11.969h2c0-5.708-1.306-10.154-3.766-13.221-2.482-3.093-6.043-4.662-10.272-4.781l-.056 1.999zm12.094 16.003c0 6.169-2.254 10.731-6.354 13.785-4.146 3.089-10.301 4.724-18.24 4.724v2c8.169 0 14.81-1.676 19.435-5.12 4.669-3.478 7.159-8.67 7.159-15.389h-2zm-24.594 18.509c-7.81 0-13.873-1.762-17.962-4.936-4.053-3.146-6.274-7.762-6.274-13.752h-2c0 6.54 2.455 11.767 7.048 15.332 4.558 3.538 11.113 5.356 19.188 5.356v-2zm-24.236-18.688c0-3.744.86-6.802 2.401-9.082 1.532-2.267 3.777-3.828 6.679-4.532l-.472-1.944c-3.362.817-6.04 2.657-7.864 5.356-1.815 2.687-2.744 6.161-2.744 10.202h2zM33.364 37.102v-1h-1v1h1zm0 24.878h-1v1h1v-1zm47.965 0h1v-1h-1v1zm0 .716l.562.827.438-.298v-.53h-1zM33.364 95.269l-.562-.827-.438.298v.53h1zm0 21.12h-1v1h1v-1zm91.636 0v1h1v-1h-1zm0-24.878h1v-1h-1v1zm-48.145 0h-1v1h1v-1zm0-.537l-.567-.824-.433.298v.526h1zM125 57.864l.567.823.433-.298v-.526h-1zm0-20.762h1v-1h-1v1zm-92.636 0V61.98h2V37.102h-2zm1 25.878h47.965v-2H33.364v2zm46.965-1v.716h2v-.716h-2zm.439-.112L32.802 94.442l1.123 1.655 47.966-32.574-1.123-1.655zM32.364 95.27v21.12h2v-21.12h-2zm1 22.12H125v-2H33.364v2zm92.636-1V91.511h-2v24.878h2zm-1-25.878H76.855v2H125v-2zm-47.145 1v-.537h-2v.537h2zm-.433.287l48.145-33.11-1.134-1.649-48.145 33.11 1.134 1.649zM126 57.863V37.102h-2v20.761h2zm-1-21.761H33.364v2H125v-2z" fill="url(#paint0_linear)"/><circle cx="-16.5" cy="344.5" r="344.5" fill="url(#paint1_linear)"/><g filter="url(#filter0_f)"><path fill-rule="evenodd" clip-rule="evenodd" d="M-96.172 302l-84.821 51.498H-181L-96.172 302zm-84.824 154.501l84.83 51.5V302l84.837 51.498L73.506 405l84.829-51.502L243.163 302v103l-84.828 51.499-84.83 51.503V611l84.83-51.499 84.828-51.499 84.837-51.5V147.498l-84.837 51.5-84.828 51.503L73.505 302l-84.834-51.499-84.837-51.499V96l-84.822 51.498h-.007v309.003h-.001z" fill="url(#paint2_linear)"/></g><path fill-rule="evenodd" clip-rule="evenodd" d="M62.342 424.683a9.341 9.341 0 009.341-9.341A9.341 9.341 0 0062.342 406 9.341 9.341 0 0053 415.342a9.341 9.341 0 009.342 9.341zm40.87.001c5.159 0 9.341-4.183 9.341-9.342a9.342 9.342 0 10-9.341 9.342zm50.211-9.342a9.342 9.342 0 11-18.683 0 9.342 9.342 0 1118.683 0zm29.193 9.342a9.343 9.343 0 10-.001-18.685 9.343 9.343 0 00.001 18.685zm50.212-9.342a9.343 9.343 0 11-18.685-.001 9.343 9.343 0 0118.685.001zm31.528 9.342a9.343 9.343 0 10-.001-18.685 9.343 9.343 0 00.001 18.685zM71.683 457.379a9.342 9.342 0 01-9.341 9.342A9.341 9.341 0 0153 457.379a9.341 9.341 0 019.342-9.341 9.341 9.341 0 019.341 9.341zm31.529 9.342a9.341 9.341 0 009.341-9.342 9.34 9.34 0 00-9.341-9.341 9.341 9.341 0 00-9.342 9.341 9.342 9.342 0 009.342 9.342zm50.211-9.342a9.341 9.341 0 01-9.341 9.342 9.341 9.341 0 01-9.342-9.342 9.341 9.341 0 019.342-9.341 9.34 9.34 0 019.341 9.341zm29.193 9.342a9.342 9.342 0 100-18.684 9.342 9.342 0 000 18.684zm50.212-9.342a9.342 9.342 0 01-9.342 9.342 9.342 9.342 0 119.342-9.342zm31.528 9.342a9.342 9.342 0 10-9.342-9.342 9.342 9.342 0 009.342 9.342zM71.683 499.417a9.342 9.342 0 11-18.684 0 9.342 9.342 0 0118.684 0zm31.529 9.342c5.159 0 9.341-4.183 9.341-9.342a9.342 9.342 0 10-9.341 9.342zm50.211-9.342a9.342 9.342 0 11-18.683 0 9.342 9.342 0 1118.683 0zm29.193 9.342a9.343 9.343 0 10-.001-18.685 9.343 9.343 0 00.001 18.685zm50.212-9.342a9.343 9.343 0 11-18.685-.001 9.343 9.343 0 0118.685.001zm31.528 9.342a9.343 9.343 0 10-.001-18.685 9.343 9.343 0 00.001 18.685zM71.683 541.455a9.342 9.342 0 11-18.684 0 9.342 9.342 0 0118.684 0zm31.529 9.342c5.159 0 9.341-4.183 9.341-9.342a9.342 9.342 0 10-9.341 9.342zm50.211-9.342a9.342 9.342 0 11-18.683 0 9.342 9.342 0 1118.683 0zm29.193 9.342a9.343 9.343 0 10-.001-18.685 9.343 9.343 0 00.001 18.685zm50.212-9.342a9.343 9.343 0 11-18.685-.001 9.343 9.343 0 0118.685.001zm31.528 9.342a9.343 9.343 0 10-.001-18.685 9.343 9.343 0 00.001 18.685zM71.683 583.493a9.341 9.341 0 01-9.341 9.341A9.341 9.341 0 0153 583.493a9.341 9.341 0 019.342-9.342 9.342 9.342 0 019.341 9.342zm31.529 9.341a9.34 9.34 0 009.341-9.341 9.341 9.341 0 00-9.341-9.342 9.342 9.342 0 00-9.342 9.342 9.341 9.341 0 009.342 9.341zm50.211-9.341a9.34 9.34 0 01-9.341 9.341 9.341 9.341 0 01-9.342-9.341 9.341 9.341 0 019.342-9.342 9.341 9.341 0 019.341 9.342zm29.193 9.341a9.342 9.342 0 100-18.682 9.342 9.342 0 000 18.682zm50.212-9.341c0 5.159-4.183 9.341-9.342 9.341a9.342 9.342 0 110-18.683 9.342 9.342 0 019.342 9.342zm31.528 9.341a9.342 9.342 0 100-18.683 9.342 9.342 0 100 18.683z" fill="url(#paint3_linear)"/><defs><linearGradient id="paint0_linear" x1="3" y1="511" x2="3" y2="31" gradientUnits="userSpaceOnUse"><stop stop-color="#F96D8C"/><stop offset="1" stop-color="#FBD862"/></linearGradient><linearGradient id="paint1_linear" x1="-219" y1="472" x2="176" y2="-168.5" gradientUnits="userSpaceOnUse"><stop stop-color="#F96D8C"/><stop offset="1" stop-color="#FBD862"/></linearGradient><linearGradient id="paint2_linear" x1="248.735" y1="78.841" x2="-214.262" y2="503.591" gradientUnits="userSpaceOnUse"><stop stop-color="#F96D8C"/><stop offset="1" stop-color="#FBD862"/></linearGradient><linearGradient id="paint3_linear" x1="294.717" y1="317.254" x2="-35.746" y2="631.369" gradientUnits="userSpaceOnUse"><stop stop-color="#F96D8C"/><stop offset="1" stop-color="#FBD862"/></linearGradient><filter id="filter0_f" x="-265" y="12" width="677" height="683" filterUnits="userSpaceOnUse" color-interpolation-filters="sRGB"><feFlood flood-opacity="0" result="BackgroundImageFix"/><feBlend in="SourceGraphic" in2="BackgroundImageFix" result="shape"/><feGaussianBlur stdDeviation="42" result="effect1_foregroundBlur"/></filter></defs></svg>