<svg width="603" height="141" viewBox="0 0 603 141" fill="none" xmlns="http://www.w3.org/2000/svg">
<rect y="1.78174" width="1.78169" height="1.77462" transform="rotate(-90 0 1.78174)" fill="#C4C4C4" fill-opacity="0.3"/>
<rect x="15.4073" y="1.78174" width="1.78169" height="1.77462" transform="rotate(-90 15.4073 1.78174)" fill="#C4C4C4" fill-opacity="0.3"/>
<rect x="30.8147" y="1.78174" width="1.78169" height="1.77462" transform="rotate(-90 30.8147 1.78174)" fill="#C4C4C4" fill-opacity="0.3"/>
<rect x="46.222" y="1.78174" width="1.78169" height="1.77462" transform="rotate(-90 46.222 1.78174)" fill="#C4C4C4" fill-opacity="0.3"/>
<rect x="61.6294" y="1.78174" width="1.78169" height="1.77462" transform="rotate(-90 61.6294 1.78174)" fill="#C4C4C4" fill-opacity="0.3"/>
<rect x="77.0367" y="1.78174" width="1.78169" height="1.77462" transform="rotate(-90 77.0367 1.78174)" fill="#C4C4C4" fill-opacity="0.3"/>
<rect x="92.4441" y="1.78174" width="1.78169" height="1.77462" transform="rotate(-90 92.4441 1.78174)" fill="#C4C4C4" fill-opacity="0.3"/>
<rect x="107.851" y="1.78174" width="1.78169" height="1.77462" transform="rotate(-90 107.851 1.78174)" fill="#C4C4C4" fill-opacity="0.3"/>
<rect x="123.259" y="1.78174" width="1.78169" height="1.77462" transform="rotate(-90 123.259 1.78174)" fill="#C4C4C4" fill-opacity="0.3"/>
<rect x="138.666" y="1.78174" width="1.78169" height="1.77462" transform="rotate(-90 138.666 1.78174)" fill="#C4C4C4" fill-opacity="0.3"/>
<rect x="154.073" y="1.78174" width="1.78169" height="1.77462" transform="rotate(-90 154.073 1.78174)" fill="#C4C4C4" fill-opacity="0.3"/>
<rect x="169.481" y="1.78174" width="1.78169" height="1.77462" transform="rotate(-90 169.481 1.78174)" fill="#C4C4C4" fill-opacity="0.3"/>
<rect x="184.888" y="1.78174" width="1.78169" height="1.77462" transform="rotate(-90 184.888 1.78174)" fill="#C4C4C4" fill-opacity="0.3"/>
<rect x="200.296" y="1.78174" width="1.78169" height="1.77462" transform="rotate(-90 200.296 1.78174)" fill="#C4C4C4" fill-opacity="0.3"/>
<rect x="215.703" y="1.78174" width="1.78169" height="1.77462" transform="rotate(-90 215.703 1.78174)" fill="#C4C4C4" fill-opacity="0.3"/>
<rect x="231.11" y="1.78174" width="1.78169" height="1.77462" transform="rotate(-90 231.11 1.78174)" fill="#C4C4C4" fill-opacity="0.3"/>
<rect x="246.518" y="1.78174" width="1.78169" height="1.77462" transform="rotate(-90 246.518 1.78174)" fill="#C4C4C4" fill-opacity="0.3"/>
<rect x="261.925" y="1.78174" width="1.78169" height="1.77462" transform="rotate(-90 261.925 1.78174)" fill="#C4C4C4" fill-opacity="0.3"/>
<rect x="277.332" y="1.78174" width="1.78169" height="1.77462" transform="rotate(-90 277.332 1.78174)" fill="#C4C4C4" fill-opacity="0.3"/>
<rect x="292.74" y="1.78174" width="1.78169" height="1.77462" transform="rotate(-90 292.74 1.78174)" fill="#C4C4C4" fill-opacity="0.3"/>
<rect x="308.147" y="1.78174" width="1.78169" height="1.77462" transform="rotate(-90 308.147 1.78174)" fill="#C4C4C4" fill-opacity="0.3"/>
<rect x="323.554" y="1.78174" width="1.78169" height="1.77462" transform="rotate(-90 323.554 1.78174)" fill="#C4C4C4" fill-opacity="0.3"/>
<rect x="338.962" y="1.78174" width="1.78169" height="1.77462" transform="rotate(-90 338.962 1.78174)" fill="#C4C4C4" fill-opacity="0.3"/>
<rect x="354.369" y="1.78174" width="1.78169" height="1.77462" transform="rotate(-90 354.369 1.78174)" fill="#C4C4C4" fill-opacity="0.3"/>
<rect x="369.776" y="1.78174" width="1.78169" height="1.77462" transform="rotate(-90 369.776 1.78174)" fill="#C4C4C4" fill-opacity="0.3"/>
<rect x="385.184" y="1.78174" width="1.78169" height="1.77462" transform="rotate(-90 385.184 1.78174)" fill="#C4C4C4" fill-opacity="0.3"/>
<rect x="400.591" y="1.78174" width="1.78169" height="1.77462" transform="rotate(-90 400.591 1.78174)" fill="#C4C4C4" fill-opacity="0.3"/>
<rect x="415.999" y="1.78174" width="1.78169" height="1.77462" transform="rotate(-90 415.999 1.78174)" fill="#C4C4C4" fill-opacity="0.3"/>
<rect x="431.406" y="1.78174" width="1.78169" height="1.77462" transform="rotate(-90 431.406 1.78174)" fill="#C4C4C4" fill-opacity="0.3"/>
<rect x="446.813" y="1.78174" width="1.78169" height="1.77462" transform="rotate(-90 446.813 1.78174)" fill="#C4C4C4" fill-opacity="0.3"/>
<rect x="462.221" y="1.78174" width="1.78169" height="1.77462" transform="rotate(-90 462.221 1.78174)" fill="#C4C4C4" fill-opacity="0.3"/>
<rect x="477.628" y="1.78174" width="1.78169" height="1.77462" transform="rotate(-90 477.628 1.78174)" fill="#C4C4C4" fill-opacity="0.3"/>
<rect x="493.035" y="1.78174" width="1.78169" height="1.77462" transform="rotate(-90 493.035 1.78174)" fill="#C4C4C4" fill-opacity="0.3"/>
<rect x="508.443" y="1.78174" width="1.78169" height="1.77462" transform="rotate(-90 508.443 1.78174)" fill="#C4C4C4" fill-opacity="0.3"/>
<rect x="523.85" y="1.78174" width="1.78169" height="1.77462" transform="rotate(-90 523.85 1.78174)" fill="#C4C4C4" fill-opacity="0.3"/>
<rect x="539.257" y="1.78174" width="1.78169" height="1.77462" transform="rotate(-90 539.257 1.78174)" fill="#C4C4C4" fill-opacity="0.3"/>
<rect x="554.665" y="1.78174" width="1.78169" height="1.77462" transform="rotate(-90 554.665 1.78174)" fill="#C4C4C4" fill-opacity="0.3"/>
<rect x="570.072" y="1.78174" width="1.78169" height="1.77462" transform="rotate(-90 570.072 1.78174)" fill="#C4C4C4" fill-opacity="0.3"/>
<rect x="585.479" y="1.78174" width="1.78169" height="1.77462" transform="rotate(-90 585.479 1.78174)" fill="#C4C4C4" fill-opacity="0.3"/>
<rect x="600.887" y="1.78174" width="1.78169" height="1.77462" transform="rotate(-90 600.887 1.78174)" fill="#C4C4C4" fill-opacity="0.3"/>
<rect y="17.2504" width="1.78169" height="1.77462" transform="rotate(-90 0 17.2504)" fill="#C4C4C4" fill-opacity="0.3"/>
<rect x="15.4073" y="17.2504" width="1.78169" height="1.77462" transform="rotate(-90 15.4073 17.2504)" fill="#C4C4C4" fill-opacity="0.3"/>
<rect x="30.8147" y="17.2504" width="1.78169" height="1.77462" transform="rotate(-90 30.8147 17.2504)" fill="#C4C4C4" fill-opacity="0.3"/>
<rect x="46.222" y="17.2504" width="1.78169" height="1.77462" transform="rotate(-90 46.222 17.2504)" fill="#C4C4C4" fill-opacity="0.3"/>
<rect x="61.6294" y="17.2504" width="1.78169" height="1.77462" transform="rotate(-90 61.6294 17.2504)" fill="#C4C4C4" fill-opacity="0.3"/>
<rect x="77.0367" y="17.2504" width="1.78169" height="1.77462" transform="rotate(-90 77.0367 17.2504)" fill="#C4C4C4" fill-opacity="0.3"/>
<rect x="92.4441" y="17.2504" width="1.78169" height="1.77462" transform="rotate(-90 92.4441 17.2504)" fill="#C4C4C4" fill-opacity="0.3"/>
<rect x="107.851" y="17.2504" width="1.78169" height="1.77462" transform="rotate(-90 107.851 17.2504)" fill="#C4C4C4" fill-opacity="0.3"/>
<rect x="123.259" y="17.2504" width="1.78169" height="1.77462" transform="rotate(-90 123.259 17.2504)" fill="#C4C4C4" fill-opacity="0.3"/>
<rect x="138.666" y="17.2504" width="1.78169" height="1.77462" transform="rotate(-90 138.666 17.2504)" fill="#C4C4C4" fill-opacity="0.3"/>
<rect x="154.073" y="17.2504" width="1.78169" height="1.77462" transform="rotate(-90 154.073 17.2504)" fill="#C4C4C4" fill-opacity="0.3"/>
<rect x="169.481" y="17.2504" width="1.78169" height="1.77462" transform="rotate(-90 169.481 17.2504)" fill="#C4C4C4" fill-opacity="0.3"/>
<rect x="184.888" y="17.2504" width="1.78169" height="1.77462" transform="rotate(-90 184.888 17.2504)" fill="#C4C4C4" fill-opacity="0.3"/>
<rect x="200.296" y="17.2504" width="1.78169" height="1.77462" transform="rotate(-90 200.296 17.2504)" fill="#C4C4C4" fill-opacity="0.3"/>
<rect x="215.703" y="17.2504" width="1.78169" height="1.77462" transform="rotate(-90 215.703 17.2504)" fill="#C4C4C4" fill-opacity="0.3"/>
<rect x="231.11" y="17.2504" width="1.78169" height="1.77462" transform="rotate(-90 231.11 17.2504)" fill="#C4C4C4" fill-opacity="0.3"/>
<rect x="246.518" y="17.2504" width="1.78169" height="1.77462" transform="rotate(-90 246.518 17.2504)" fill="#C4C4C4" fill-opacity="0.3"/>
<rect x="261.925" y="17.2504" width="1.78169" height="1.77462" transform="rotate(-90 261.925 17.2504)" fill="#C4C4C4" fill-opacity="0.3"/>
<rect x="277.332" y="17.2504" width="1.78169" height="1.77462" transform="rotate(-90 277.332 17.2504)" fill="#C4C4C4" fill-opacity="0.3"/>
<rect x="292.74" y="17.2504" width="1.78169" height="1.77462" transform="rotate(-90 292.74 17.2504)" fill="#C4C4C4" fill-opacity="0.3"/>
<rect x="308.147" y="17.2504" width="1.78169" height="1.77462" transform="rotate(-90 308.147 17.2504)" fill="#C4C4C4" fill-opacity="0.3"/>
<rect x="323.554" y="17.2504" width="1.78169" height="1.77462" transform="rotate(-90 323.554 17.2504)" fill="#C4C4C4" fill-opacity="0.3"/>
<rect x="338.962" y="17.2504" width="1.78169" height="1.77462" transform="rotate(-90 338.962 17.2504)" fill="#C4C4C4" fill-opacity="0.3"/>
<rect x="354.369" y="17.2504" width="1.78169" height="1.77462" transform="rotate(-90 354.369 17.2504)" fill="#C4C4C4" fill-opacity="0.3"/>
<rect x="369.776" y="17.2504" width="1.78169" height="1.77462" transform="rotate(-90 369.776 17.2504)" fill="#C4C4C4" fill-opacity="0.3"/>
<rect x="385.184" y="17.2504" width="1.78169" height="1.77462" transform="rotate(-90 385.184 17.2504)" fill="#C4C4C4" fill-opacity="0.3"/>
<rect x="400.591" y="17.2504" width="1.78169" height="1.77462" transform="rotate(-90 400.591 17.2504)" fill="#C4C4C4" fill-opacity="0.3"/>
<rect x="415.999" y="17.2504" width="1.78169" height="1.77462" transform="rotate(-90 415.999 17.2504)" fill="#C4C4C4" fill-opacity="0.3"/>
<rect x="431.406" y="17.2504" width="1.78169" height="1.77462" transform="rotate(-90 431.406 17.2504)" fill="#C4C4C4" fill-opacity="0.3"/>
<rect x="446.813" y="17.2504" width="1.78169" height="1.77462" transform="rotate(-90 446.813 17.2504)" fill="#C4C4C4" fill-opacity="0.3"/>
<rect x="462.221" y="17.2504" width="1.78169" height="1.77462" transform="rotate(-90 462.221 17.2504)" fill="#C4C4C4" fill-opacity="0.3"/>
<rect x="477.628" y="17.2504" width="1.78169" height="1.77462" transform="rotate(-90 477.628 17.2504)" fill="#C4C4C4" fill-opacity="0.3"/>
<rect x="493.035" y="17.2504" width="1.78169" height="1.77462" transform="rotate(-90 493.035 17.2504)" fill="#C4C4C4" fill-opacity="0.3"/>
<rect x="508.443" y="17.2504" width="1.78169" height="1.77462" transform="rotate(-90 508.443 17.2504)" fill="#C4C4C4" fill-opacity="0.3"/>
<rect x="523.85" y="17.2504" width="1.78169" height="1.77462" transform="rotate(-90 523.85 17.2504)" fill="#C4C4C4" fill-opacity="0.3"/>
<rect x="539.257" y="17.2504" width="1.78169" height="1.77462" transform="rotate(-90 539.257 17.2504)" fill="#C4C4C4" fill-opacity="0.3"/>
<rect x="554.665" y="17.2504" width="1.78169" height="1.77462" transform="rotate(-90 554.665 17.2504)" fill="#C4C4C4" fill-opacity="0.3"/>
<rect x="570.072" y="17.2504" width="1.78169" height="1.77462" transform="rotate(-90 570.072 17.2504)" fill="#C4C4C4" fill-opacity="0.3"/>
<rect x="585.479" y="17.2504" width="1.78169" height="1.77462" transform="rotate(-90 585.479 17.2504)" fill="#C4C4C4" fill-opacity="0.3"/>
<rect x="600.887" y="17.2504" width="1.78169" height="1.77462" transform="rotate(-90 600.887 17.2504)" fill="#C4C4C4" fill-opacity="0.3"/>
<rect y="32.7191" width="1.78169" height="1.77462" transform="rotate(-90 0 32.7191)" fill="#C4C4C4" fill-opacity="0.3"/>
<rect x="15.4073" y="32.7191" width="1.78169" height="1.77462" transform="rotate(-90 15.4073 32.7191)" fill="#C4C4C4" fill-opacity="0.3"/>
<rect x="30.8147" y="32.7191" width="1.78169" height="1.77462" transform="rotate(-90 30.8147 32.7191)" fill="#C4C4C4" fill-opacity="0.3"/>
<rect x="46.222" y="32.7191" width="1.78169" height="1.77462" transform="rotate(-90 46.222 32.7191)" fill="#C4C4C4" fill-opacity="0.3"/>
<rect x="61.6294" y="32.7191" width="1.78169" height="1.77462" transform="rotate(-90 61.6294 32.7191)" fill="#C4C4C4" fill-opacity="0.3"/>
<rect x="77.0367" y="32.7191" width="1.78169" height="1.77462" transform="rotate(-90 77.0367 32.7191)" fill="#C4C4C4" fill-opacity="0.3"/>
<rect x="92.4441" y="32.7191" width="1.78169" height="1.77462" transform="rotate(-90 92.4441 32.7191)" fill="#C4C4C4" fill-opacity="0.3"/>
<rect x="107.851" y="32.7191" width="1.78169" height="1.77462" transform="rotate(-90 107.851 32.7191)" fill="#C4C4C4" fill-opacity="0.3"/>
<rect x="123.259" y="32.7191" width="1.78169" height="1.77462" transform="rotate(-90 123.259 32.7191)" fill="#C4C4C4" fill-opacity="0.3"/>
<rect x="138.666" y="32.7191" width="1.78169" height="1.77462" transform="rotate(-90 138.666 32.7191)" fill="#C4C4C4" fill-opacity="0.3"/>
<rect x="154.073" y="32.7191" width="1.78169" height="1.77462" transform="rotate(-90 154.073 32.7191)" fill="#C4C4C4" fill-opacity="0.3"/>
<rect x="169.481" y="32.7191" width="1.78169" height="1.77462" transform="rotate(-90 169.481 32.7191)" fill="#C4C4C4" fill-opacity="0.3"/>
<rect x="184.888" y="32.7191" width="1.78169" height="1.77462" transform="rotate(-90 184.888 32.7191)" fill="#C4C4C4" fill-opacity="0.3"/>
<rect x="200.296" y="32.7191" width="1.78169" height="1.77462" transform="rotate(-90 200.296 32.7191)" fill="#C4C4C4" fill-opacity="0.3"/>
<rect x="215.703" y="32.7191" width="1.78169" height="1.77462" transform="rotate(-90 215.703 32.7191)" fill="#C4C4C4" fill-opacity="0.3"/>
<rect x="231.11" y="32.7191" width="1.78169" height="1.77462" transform="rotate(-90 231.11 32.7191)" fill="#C4C4C4" fill-opacity="0.3"/>
<rect x="246.518" y="32.7191" width="1.78169" height="1.77462" transform="rotate(-90 246.518 32.7191)" fill="#C4C4C4" fill-opacity="0.3"/>
<rect x="261.925" y="32.7191" width="1.78169" height="1.77462" transform="rotate(-90 261.925 32.7191)" fill="#C4C4C4" fill-opacity="0.3"/>
<rect x="277.332" y="32.7191" width="1.78169" height="1.77462" transform="rotate(-90 277.332 32.7191)" fill="#C4C4C4" fill-opacity="0.3"/>
<rect x="292.74" y="32.7191" width="1.78169" height="1.77462" transform="rotate(-90 292.74 32.7191)" fill="#C4C4C4" fill-opacity="0.3"/>
<rect x="308.147" y="32.7191" width="1.78169" height="1.77462" transform="rotate(-90 308.147 32.7191)" fill="#C4C4C4" fill-opacity="0.3"/>
<rect x="323.554" y="32.7191" width="1.78169" height="1.77462" transform="rotate(-90 323.554 32.7191)" fill="#C4C4C4" fill-opacity="0.3"/>
<rect x="338.962" y="32.7191" width="1.78169" height="1.77462" transform="rotate(-90 338.962 32.7191)" fill="#C4C4C4" fill-opacity="0.3"/>
<rect x="354.369" y="32.7191" width="1.78169" height="1.77462" transform="rotate(-90 354.369 32.7191)" fill="#C4C4C4" fill-opacity="0.3"/>
<rect x="369.776" y="32.7191" width="1.78169" height="1.77462" transform="rotate(-90 369.776 32.7191)" fill="#C4C4C4" fill-opacity="0.3"/>
<rect x="385.184" y="32.7191" width="1.78169" height="1.77462" transform="rotate(-90 385.184 32.7191)" fill="#C4C4C4" fill-opacity="0.3"/>
<rect x="400.591" y="32.7191" width="1.78169" height="1.77462" transform="rotate(-90 400.591 32.7191)" fill="#C4C4C4" fill-opacity="0.3"/>
<rect x="415.999" y="32.7191" width="1.78169" height="1.77462" transform="rotate(-90 415.999 32.7191)" fill="#C4C4C4" fill-opacity="0.3"/>
<rect x="431.406" y="32.7191" width="1.78169" height="1.77462" transform="rotate(-90 431.406 32.7191)" fill="#C4C4C4" fill-opacity="0.3"/>
<rect x="446.813" y="32.7191" width="1.78169" height="1.77462" transform="rotate(-90 446.813 32.7191)" fill="#C4C4C4" fill-opacity="0.3"/>
<rect x="462.221" y="32.7191" width="1.78169" height="1.77462" transform="rotate(-90 462.221 32.7191)" fill="#C4C4C4" fill-opacity="0.3"/>
<rect x="477.628" y="32.7191" width="1.78169" height="1.77462" transform="rotate(-90 477.628 32.7191)" fill="#C4C4C4" fill-opacity="0.3"/>
<rect x="493.035" y="32.7191" width="1.78169" height="1.77462" transform="rotate(-90 493.035 32.7191)" fill="#C4C4C4" fill-opacity="0.3"/>
<rect x="508.443" y="32.7191" width="1.78169" height="1.77462" transform="rotate(-90 508.443 32.7191)" fill="#C4C4C4" fill-opacity="0.3"/>
<rect x="523.85" y="32.7191" width="1.78169" height="1.77462" transform="rotate(-90 523.85 32.7191)" fill="#C4C4C4" fill-opacity="0.3"/>
<rect x="539.257" y="32.7191" width="1.78169" height="1.77462" transform="rotate(-90 539.257 32.7191)" fill="#C4C4C4" fill-opacity="0.3"/>
<rect x="554.665" y="32.7191" width="1.78169" height="1.77462" transform="rotate(-90 554.665 32.7191)" fill="#C4C4C4" fill-opacity="0.3"/>
<rect x="570.072" y="32.7191" width="1.78169" height="1.77462" transform="rotate(-90 570.072 32.7191)" fill="#C4C4C4" fill-opacity="0.3"/>
<rect x="585.479" y="32.7191" width="1.78169" height="1.77462" transform="rotate(-90 585.479 32.7191)" fill="#C4C4C4" fill-opacity="0.3"/>
<rect x="600.887" y="32.7191" width="1.78169" height="1.77462" transform="rotate(-90 600.887 32.7191)" fill="#C4C4C4" fill-opacity="0.3"/>
<rect y="48.1879" width="1.78169" height="1.77462" transform="rotate(-90 0 48.1879)" fill="#C4C4C4" fill-opacity="0.3"/>
<rect x="15.4073" y="48.1879" width="1.78169" height="1.77462" transform="rotate(-90 15.4073 48.1879)" fill="#C4C4C4" fill-opacity="0.3"/>
<rect x="30.8147" y="48.1879" width="1.78169" height="1.77462" transform="rotate(-90 30.8147 48.1879)" fill="#C4C4C4" fill-opacity="0.3"/>
<rect x="46.222" y="48.1879" width="1.78169" height="1.77462" transform="rotate(-90 46.222 48.1879)" fill="#C4C4C4" fill-opacity="0.3"/>
<rect x="61.6294" y="48.1879" width="1.78169" height="1.77462" transform="rotate(-90 61.6294 48.1879)" fill="#C4C4C4" fill-opacity="0.3"/>
<rect x="77.0367" y="48.1879" width="1.78169" height="1.77462" transform="rotate(-90 77.0367 48.1879)" fill="#C4C4C4" fill-opacity="0.3"/>
<rect x="92.4441" y="48.1879" width="1.78169" height="1.77462" transform="rotate(-90 92.4441 48.1879)" fill="#C4C4C4" fill-opacity="0.3"/>
<rect x="107.851" y="48.1879" width="1.78169" height="1.77462" transform="rotate(-90 107.851 48.1879)" fill="#C4C4C4" fill-opacity="0.3"/>
<rect x="123.259" y="48.1879" width="1.78169" height="1.77462" transform="rotate(-90 123.259 48.1879)" fill="#C4C4C4" fill-opacity="0.3"/>
<rect x="138.666" y="48.1879" width="1.78169" height="1.77462" transform="rotate(-90 138.666 48.1879)" fill="#C4C4C4" fill-opacity="0.3"/>
<rect x="154.073" y="48.1879" width="1.78169" height="1.77462" transform="rotate(-90 154.073 48.1879)" fill="#C4C4C4" fill-opacity="0.3"/>
<rect x="169.481" y="48.1879" width="1.78169" height="1.77462" transform="rotate(-90 169.481 48.1879)" fill="#C4C4C4" fill-opacity="0.3"/>
<rect x="184.888" y="48.1879" width="1.78169" height="1.77462" transform="rotate(-90 184.888 48.1879)" fill="#C4C4C4" fill-opacity="0.3"/>
<rect x="200.296" y="48.1879" width="1.78169" height="1.77462" transform="rotate(-90 200.296 48.1879)" fill="#C4C4C4" fill-opacity="0.3"/>
<rect x="215.703" y="48.1879" width="1.78169" height="1.77462" transform="rotate(-90 215.703 48.1879)" fill="#C4C4C4" fill-opacity="0.3"/>
<rect x="231.11" y="48.1879" width="1.78169" height="1.77462" transform="rotate(-90 231.11 48.1879)" fill="#C4C4C4" fill-opacity="0.3"/>
<rect x="246.518" y="48.1879" width="1.78169" height="1.77462" transform="rotate(-90 246.518 48.1879)" fill="#C4C4C4" fill-opacity="0.3"/>
<rect x="261.925" y="48.1879" width="1.78169" height="1.77462" transform="rotate(-90 261.925 48.1879)" fill="#C4C4C4" fill-opacity="0.3"/>
<rect x="277.332" y="48.1879" width="1.78169" height="1.77462" transform="rotate(-90 277.332 48.1879)" fill="#C4C4C4" fill-opacity="0.3"/>
<rect x="292.74" y="48.1879" width="1.78169" height="1.77462" transform="rotate(-90 292.74 48.1879)" fill="#C4C4C4" fill-opacity="0.3"/>
<rect x="308.147" y="48.1879" width="1.78169" height="1.77462" transform="rotate(-90 308.147 48.1879)" fill="#C4C4C4" fill-opacity="0.3"/>
<rect x="323.554" y="48.1879" width="1.78169" height="1.77462" transform="rotate(-90 323.554 48.1879)" fill="#C4C4C4" fill-opacity="0.3"/>
<rect x="338.962" y="48.1879" width="1.78169" height="1.77462" transform="rotate(-90 338.962 48.1879)" fill="#C4C4C4" fill-opacity="0.3"/>
<rect x="354.369" y="48.1879" width="1.78169" height="1.77462" transform="rotate(-90 354.369 48.1879)" fill="#C4C4C4" fill-opacity="0.3"/>
<rect x="369.776" y="48.1879" width="1.78169" height="1.77462" transform="rotate(-90 369.776 48.1879)" fill="#C4C4C4" fill-opacity="0.3"/>
<rect x="385.184" y="48.1879" width="1.78169" height="1.77462" transform="rotate(-90 385.184 48.1879)" fill="#C4C4C4" fill-opacity="0.3"/>
<rect x="400.591" y="48.1879" width="1.78169" height="1.77462" transform="rotate(-90 400.591 48.1879)" fill="#C4C4C4" fill-opacity="0.3"/>
<rect x="415.999" y="48.1879" width="1.78169" height="1.77462" transform="rotate(-90 415.999 48.1879)" fill="#C4C4C4" fill-opacity="0.3"/>
<rect x="431.406" y="48.1879" width="1.78169" height="1.77462" transform="rotate(-90 431.406 48.1879)" fill="#C4C4C4" fill-opacity="0.3"/>
<rect x="446.813" y="48.1879" width="1.78169" height="1.77462" transform="rotate(-90 446.813 48.1879)" fill="#C4C4C4" fill-opacity="0.3"/>
<rect x="462.221" y="48.1879" width="1.78169" height="1.77462" transform="rotate(-90 462.221 48.1879)" fill="#C4C4C4" fill-opacity="0.3"/>
<rect x="477.628" y="48.1879" width="1.78169" height="1.77462" transform="rotate(-90 477.628 48.1879)" fill="#C4C4C4" fill-opacity="0.3"/>
<rect x="493.035" y="48.1879" width="1.78169" height="1.77462" transform="rotate(-90 493.035 48.1879)" fill="#C4C4C4" fill-opacity="0.3"/>
<rect x="508.443" y="48.1879" width="1.78169" height="1.77462" transform="rotate(-90 508.443 48.1879)" fill="#C4C4C4" fill-opacity="0.3"/>
<rect x="523.85" y="48.1879" width="1.78169" height="1.77462" transform="rotate(-90 523.85 48.1879)" fill="#C4C4C4" fill-opacity="0.3"/>
<rect x="539.257" y="48.1879" width="1.78169" height="1.77462" transform="rotate(-90 539.257 48.1879)" fill="#C4C4C4" fill-opacity="0.3"/>
<rect x="554.665" y="48.1879" width="1.78169" height="1.77462" transform="rotate(-90 554.665 48.1879)" fill="#C4C4C4" fill-opacity="0.3"/>
<rect x="570.072" y="48.1879" width="1.78169" height="1.77462" transform="rotate(-90 570.072 48.1879)" fill="#C4C4C4" fill-opacity="0.3"/>
<rect x="585.479" y="48.1879" width="1.78169" height="1.77462" transform="rotate(-90 585.479 48.1879)" fill="#C4C4C4" fill-opacity="0.3"/>
<rect x="600.887" y="48.1879" width="1.78169" height="1.77462" transform="rotate(-90 600.887 48.1879)" fill="#C4C4C4" fill-opacity="0.3"/>
<rect y="63.6565" width="1.78169" height="1.77462" transform="rotate(-90 0 63.6565)" fill="#C4C4C4" fill-opacity="0.3"/>
<rect x="15.4073" y="63.6565" width="1.78169" height="1.77462" transform="rotate(-90 15.4073 63.6565)" fill="#C4C4C4" fill-opacity="0.3"/>
<rect x="30.8147" y="63.6565" width="1.78169" height="1.77462" transform="rotate(-90 30.8147 63.6565)" fill="#C4C4C4" fill-opacity="0.3"/>
<rect x="46.222" y="63.6565" width="1.78169" height="1.77462" transform="rotate(-90 46.222 63.6565)" fill="#C4C4C4" fill-opacity="0.3"/>
<rect x="61.6294" y="63.6565" width="1.78169" height="1.77462" transform="rotate(-90 61.6294 63.6565)" fill="#C4C4C4" fill-opacity="0.3"/>
<rect x="77.0367" y="63.6565" width="1.78169" height="1.77462" transform="rotate(-90 77.0367 63.6565)" fill="#C4C4C4" fill-opacity="0.3"/>
<rect x="92.4441" y="63.6565" width="1.78169" height="1.77462" transform="rotate(-90 92.4441 63.6565)" fill="#C4C4C4" fill-opacity="0.3"/>
<rect x="107.851" y="63.6565" width="1.78169" height="1.77462" transform="rotate(-90 107.851 63.6565)" fill="#C4C4C4" fill-opacity="0.3"/>
<rect x="123.259" y="63.6565" width="1.78169" height="1.77462" transform="rotate(-90 123.259 63.6565)" fill="#C4C4C4" fill-opacity="0.3"/>
<rect x="138.666" y="63.6565" width="1.78169" height="1.77462" transform="rotate(-90 138.666 63.6565)" fill="#C4C4C4" fill-opacity="0.3"/>
<rect x="154.073" y="63.6565" width="1.78169" height="1.77462" transform="rotate(-90 154.073 63.6565)" fill="#C4C4C4" fill-opacity="0.3"/>
<rect x="169.481" y="63.6565" width="1.78169" height="1.77462" transform="rotate(-90 169.481 63.6565)" fill="#C4C4C4" fill-opacity="0.3"/>
<rect x="184.888" y="63.6565" width="1.78169" height="1.77462" transform="rotate(-90 184.888 63.6565)" fill="#C4C4C4" fill-opacity="0.3"/>
<rect x="200.296" y="63.6565" width="1.78169" height="1.77462" transform="rotate(-90 200.296 63.6565)" fill="#C4C4C4" fill-opacity="0.3"/>
<rect x="215.703" y="63.6565" width="1.78169" height="1.77462" transform="rotate(-90 215.703 63.6565)" fill="#C4C4C4" fill-opacity="0.3"/>
<rect x="231.11" y="63.6565" width="1.78169" height="1.77462" transform="rotate(-90 231.11 63.6565)" fill="#C4C4C4" fill-opacity="0.3"/>
<rect x="246.518" y="63.6565" width="1.78169" height="1.77462" transform="rotate(-90 246.518 63.6565)" fill="#C4C4C4" fill-opacity="0.3"/>
<rect x="261.925" y="63.6565" width="1.78169" height="1.77462" transform="rotate(-90 261.925 63.6565)" fill="#C4C4C4" fill-opacity="0.3"/>
<rect x="277.332" y="63.6565" width="1.78169" height="1.77462" transform="rotate(-90 277.332 63.6565)" fill="#C4C4C4" fill-opacity="0.3"/>
<rect x="292.74" y="63.6565" width="1.78169" height="1.77462" transform="rotate(-90 292.74 63.6565)" fill="#C4C4C4" fill-opacity="0.3"/>
<rect x="308.147" y="63.6565" width="1.78169" height="1.77462" transform="rotate(-90 308.147 63.6565)" fill="#C4C4C4" fill-opacity="0.3"/>
<rect x="323.554" y="63.6565" width="1.78169" height="1.77462" transform="rotate(-90 323.554 63.6565)" fill="#C4C4C4" fill-opacity="0.3"/>
<rect x="338.962" y="63.6565" width="1.78169" height="1.77462" transform="rotate(-90 338.962 63.6565)" fill="#C4C4C4" fill-opacity="0.3"/>
<rect x="354.369" y="63.6565" width="1.78169" height="1.77462" transform="rotate(-90 354.369 63.6565)" fill="#C4C4C4" fill-opacity="0.3"/>
<rect x="369.776" y="63.6565" width="1.78169" height="1.77462" transform="rotate(-90 369.776 63.6565)" fill="#C4C4C4" fill-opacity="0.3"/>
<rect x="385.184" y="63.6565" width="1.78169" height="1.77462" transform="rotate(-90 385.184 63.6565)" fill="#C4C4C4" fill-opacity="0.3"/>
<rect x="400.591" y="63.6565" width="1.78169" height="1.77462" transform="rotate(-90 400.591 63.6565)" fill="#C4C4C4" fill-opacity="0.3"/>
<rect x="415.999" y="63.6565" width="1.78169" height="1.77462" transform="rotate(-90 415.999 63.6565)" fill="#C4C4C4" fill-opacity="0.3"/>
<rect x="431.406" y="63.6565" width="1.78169" height="1.77462" transform="rotate(-90 431.406 63.6565)" fill="#C4C4C4" fill-opacity="0.3"/>
<rect x="446.813" y="63.6565" width="1.78169" height="1.77462" transform="rotate(-90 446.813 63.6565)" fill="#C4C4C4" fill-opacity="0.3"/>
<rect x="462.221" y="63.6565" width="1.78169" height="1.77462" transform="rotate(-90 462.221 63.6565)" fill="#C4C4C4" fill-opacity="0.3"/>
<rect x="477.628" y="63.6565" width="1.78169" height="1.77462" transform="rotate(-90 477.628 63.6565)" fill="#C4C4C4" fill-opacity="0.3"/>
<rect x="493.035" y="63.6565" width="1.78169" height="1.77462" transform="rotate(-90 493.035 63.6565)" fill="#C4C4C4" fill-opacity="0.3"/>
<rect x="508.443" y="63.6565" width="1.78169" height="1.77462" transform="rotate(-90 508.443 63.6565)" fill="#C4C4C4" fill-opacity="0.3"/>
<rect x="523.85" y="63.6565" width="1.78169" height="1.77462" transform="rotate(-90 523.85 63.6565)" fill="#C4C4C4" fill-opacity="0.3"/>
<rect x="539.257" y="63.6565" width="1.78169" height="1.77462" transform="rotate(-90 539.257 63.6565)" fill="#C4C4C4" fill-opacity="0.3"/>
<rect x="554.665" y="63.6565" width="1.78169" height="1.77462" transform="rotate(-90 554.665 63.6565)" fill="#C4C4C4" fill-opacity="0.3"/>
<rect x="570.072" y="63.6565" width="1.78169" height="1.77462" transform="rotate(-90 570.072 63.6565)" fill="#C4C4C4" fill-opacity="0.3"/>
<rect x="585.479" y="63.6565" width="1.78169" height="1.77462" transform="rotate(-90 585.479 63.6565)" fill="#C4C4C4" fill-opacity="0.3"/>
<rect x="600.887" y="63.6565" width="1.78169" height="1.77462" transform="rotate(-90 600.887 63.6565)" fill="#C4C4C4" fill-opacity="0.3"/>
<rect y="79.1252" width="1.78169" height="1.77462" transform="rotate(-90 0 79.1252)" fill="#C4C4C4" fill-opacity="0.3"/>
<rect x="15.4073" y="79.1252" width="1.78169" height="1.77462" transform="rotate(-90 15.4073 79.1252)" fill="#C4C4C4" fill-opacity="0.3"/>
<rect x="30.8147" y="79.1252" width="1.78169" height="1.77462" transform="rotate(-90 30.8147 79.1252)" fill="#C4C4C4" fill-opacity="0.3"/>
<rect x="46.222" y="79.1252" width="1.78169" height="1.77462" transform="rotate(-90 46.222 79.1252)" fill="#C4C4C4" fill-opacity="0.3"/>
<rect x="61.6294" y="79.1252" width="1.78169" height="1.77462" transform="rotate(-90 61.6294 79.1252)" fill="#C4C4C4" fill-opacity="0.3"/>
<rect x="77.0367" y="79.1252" width="1.78169" height="1.77462" transform="rotate(-90 77.0367 79.1252)" fill="#C4C4C4" fill-opacity="0.3"/>
<rect x="92.4441" y="79.1252" width="1.78169" height="1.77462" transform="rotate(-90 92.4441 79.1252)" fill="#C4C4C4" fill-opacity="0.3"/>
<rect x="107.851" y="79.1252" width="1.78169" height="1.77462" transform="rotate(-90 107.851 79.1252)" fill="#C4C4C4" fill-opacity="0.3"/>
<rect x="123.259" y="79.1252" width="1.78169" height="1.77462" transform="rotate(-90 123.259 79.1252)" fill="#C4C4C4" fill-opacity="0.3"/>
<rect x="138.666" y="79.1252" width="1.78169" height="1.77462" transform="rotate(-90 138.666 79.1252)" fill="#C4C4C4" fill-opacity="0.3"/>
<rect x="154.073" y="79.1252" width="1.78169" height="1.77462" transform="rotate(-90 154.073 79.1252)" fill="#C4C4C4" fill-opacity="0.3"/>
<rect x="169.481" y="79.1252" width="1.78169" height="1.77462" transform="rotate(-90 169.481 79.1252)" fill="#C4C4C4" fill-opacity="0.3"/>
<rect x="184.888" y="79.1252" width="1.78169" height="1.77462" transform="rotate(-90 184.888 79.1252)" fill="#C4C4C4" fill-opacity="0.3"/>
<rect x="200.296" y="79.1252" width="1.78169" height="1.77462" transform="rotate(-90 200.296 79.1252)" fill="#C4C4C4" fill-opacity="0.3"/>
<rect x="215.703" y="79.1252" width="1.78169" height="1.77462" transform="rotate(-90 215.703 79.1252)" fill="#C4C4C4" fill-opacity="0.3"/>
<rect x="231.11" y="79.1252" width="1.78169" height="1.77462" transform="rotate(-90 231.11 79.1252)" fill="#C4C4C4" fill-opacity="0.3"/>
<rect x="246.518" y="79.1252" width="1.78169" height="1.77462" transform="rotate(-90 246.518 79.1252)" fill="#C4C4C4" fill-opacity="0.3"/>
<rect x="261.925" y="79.1252" width="1.78169" height="1.77462" transform="rotate(-90 261.925 79.1252)" fill="#C4C4C4" fill-opacity="0.3"/>
<rect x="277.332" y="79.1252" width="1.78169" height="1.77462" transform="rotate(-90 277.332 79.1252)" fill="#C4C4C4" fill-opacity="0.3"/>
<rect x="292.74" y="79.1252" width="1.78169" height="1.77462" transform="rotate(-90 292.74 79.1252)" fill="#C4C4C4" fill-opacity="0.3"/>
<rect x="308.147" y="79.1252" width="1.78169" height="1.77462" transform="rotate(-90 308.147 79.1252)" fill="#C4C4C4" fill-opacity="0.3"/>
<rect x="323.554" y="79.1252" width="1.78169" height="1.77462" transform="rotate(-90 323.554 79.1252)" fill="#C4C4C4" fill-opacity="0.3"/>
<rect x="338.962" y="79.1252" width="1.78169" height="1.77462" transform="rotate(-90 338.962 79.1252)" fill="#C4C4C4" fill-opacity="0.3"/>
<rect x="354.369" y="79.1252" width="1.78169" height="1.77462" transform="rotate(-90 354.369 79.1252)" fill="#C4C4C4" fill-opacity="0.3"/>
<rect x="369.776" y="79.1252" width="1.78169" height="1.77462" transform="rotate(-90 369.776 79.1252)" fill="#C4C4C4" fill-opacity="0.3"/>
<rect x="385.184" y="79.1252" width="1.78169" height="1.77462" transform="rotate(-90 385.184 79.1252)" fill="#C4C4C4" fill-opacity="0.3"/>
<rect x="400.591" y="79.1252" width="1.78169" height="1.77462" transform="rotate(-90 400.591 79.1252)" fill="#C4C4C4" fill-opacity="0.3"/>
<rect x="415.999" y="79.1252" width="1.78169" height="1.77462" transform="rotate(-90 415.999 79.1252)" fill="#C4C4C4" fill-opacity="0.3"/>
<rect x="431.406" y="79.1252" width="1.78169" height="1.77462" transform="rotate(-90 431.406 79.1252)" fill="#C4C4C4" fill-opacity="0.3"/>
<rect x="446.813" y="79.1252" width="1.78169" height="1.77462" transform="rotate(-90 446.813 79.1252)" fill="#C4C4C4" fill-opacity="0.3"/>
<rect x="462.221" y="79.1252" width="1.78169" height="1.77462" transform="rotate(-90 462.221 79.1252)" fill="#C4C4C4" fill-opacity="0.3"/>
<rect x="477.628" y="79.1252" width="1.78169" height="1.77462" transform="rotate(-90 477.628 79.1252)" fill="#C4C4C4" fill-opacity="0.3"/>
<rect x="493.035" y="79.1252" width="1.78169" height="1.77462" transform="rotate(-90 493.035 79.1252)" fill="#C4C4C4" fill-opacity="0.3"/>
<rect x="508.443" y="79.1252" width="1.78169" height="1.77462" transform="rotate(-90 508.443 79.1252)" fill="#C4C4C4" fill-opacity="0.3"/>
<rect x="523.85" y="79.1252" width="1.78169" height="1.77462" transform="rotate(-90 523.85 79.1252)" fill="#C4C4C4" fill-opacity="0.3"/>
<rect x="539.257" y="79.1252" width="1.78169" height="1.77462" transform="rotate(-90 539.257 79.1252)" fill="#C4C4C4" fill-opacity="0.3"/>
<rect x="554.665" y="79.1252" width="1.78169" height="1.77462" transform="rotate(-90 554.665 79.1252)" fill="#C4C4C4" fill-opacity="0.3"/>
<rect x="570.072" y="79.1252" width="1.78169" height="1.77462" transform="rotate(-90 570.072 79.1252)" fill="#C4C4C4" fill-opacity="0.3"/>
<rect x="585.479" y="79.1252" width="1.78169" height="1.77462" transform="rotate(-90 585.479 79.1252)" fill="#C4C4C4" fill-opacity="0.3"/>
<rect x="600.887" y="79.1252" width="1.78169" height="1.77462" transform="rotate(-90 600.887 79.1252)" fill="#C4C4C4" fill-opacity="0.3"/>
<rect y="94.5939" width="1.78169" height="1.77462" transform="rotate(-90 0 94.5939)" fill="#C4C4C4" fill-opacity="0.3"/>
<rect x="15.4073" y="94.5939" width="1.78169" height="1.77462" transform="rotate(-90 15.4073 94.5939)" fill="#C4C4C4" fill-opacity="0.3"/>
<rect x="30.8147" y="94.5939" width="1.78169" height="1.77462" transform="rotate(-90 30.8147 94.5939)" fill="#C4C4C4" fill-opacity="0.3"/>
<rect x="46.222" y="94.5939" width="1.78169" height="1.77462" transform="rotate(-90 46.222 94.5939)" fill="#C4C4C4" fill-opacity="0.3"/>
<rect x="61.6294" y="94.5939" width="1.78169" height="1.77462" transform="rotate(-90 61.6294 94.5939)" fill="#C4C4C4" fill-opacity="0.3"/>
<rect x="77.0367" y="94.5939" width="1.78169" height="1.77462" transform="rotate(-90 77.0367 94.5939)" fill="#C4C4C4" fill-opacity="0.3"/>
<rect x="92.4441" y="94.5939" width="1.78169" height="1.77462" transform="rotate(-90 92.4441 94.5939)" fill="#C4C4C4" fill-opacity="0.3"/>
<rect x="107.851" y="94.5939" width="1.78169" height="1.77462" transform="rotate(-90 107.851 94.5939)" fill="#C4C4C4" fill-opacity="0.3"/>
<rect x="123.259" y="94.5939" width="1.78169" height="1.77462" transform="rotate(-90 123.259 94.5939)" fill="#C4C4C4" fill-opacity="0.3"/>
<rect x="138.666" y="94.5939" width="1.78169" height="1.77462" transform="rotate(-90 138.666 94.5939)" fill="#C4C4C4" fill-opacity="0.3"/>
<rect x="154.073" y="94.5939" width="1.78169" height="1.77462" transform="rotate(-90 154.073 94.5939)" fill="#C4C4C4" fill-opacity="0.3"/>
<rect x="169.481" y="94.5939" width="1.78169" height="1.77462" transform="rotate(-90 169.481 94.5939)" fill="#C4C4C4" fill-opacity="0.3"/>
<rect x="184.888" y="94.5939" width="1.78169" height="1.77462" transform="rotate(-90 184.888 94.5939)" fill="#C4C4C4" fill-opacity="0.3"/>
<rect x="200.296" y="94.5939" width="1.78169" height="1.77462" transform="rotate(-90 200.296 94.5939)" fill="#C4C4C4" fill-opacity="0.3"/>
<rect x="215.703" y="94.5939" width="1.78169" height="1.77462" transform="rotate(-90 215.703 94.5939)" fill="#C4C4C4" fill-opacity="0.3"/>
<rect x="231.11" y="94.5939" width="1.78169" height="1.77462" transform="rotate(-90 231.11 94.5939)" fill="#C4C4C4" fill-opacity="0.3"/>
<rect x="246.518" y="94.5939" width="1.78169" height="1.77462" transform="rotate(-90 246.518 94.5939)" fill="#C4C4C4" fill-opacity="0.3"/>
<rect x="261.925" y="94.5939" width="1.78169" height="1.77462" transform="rotate(-90 261.925 94.5939)" fill="#C4C4C4" fill-opacity="0.3"/>
<rect x="277.332" y="94.5939" width="1.78169" height="1.77462" transform="rotate(-90 277.332 94.5939)" fill="#C4C4C4" fill-opacity="0.3"/>
<rect x="292.74" y="94.5939" width="1.78169" height="1.77462" transform="rotate(-90 292.74 94.5939)" fill="#C4C4C4" fill-opacity="0.3"/>
<rect x="308.147" y="94.5939" width="1.78169" height="1.77462" transform="rotate(-90 308.147 94.5939)" fill="#C4C4C4" fill-opacity="0.3"/>
<rect x="323.554" y="94.5939" width="1.78169" height="1.77462" transform="rotate(-90 323.554 94.5939)" fill="#C4C4C4" fill-opacity="0.3"/>
<rect x="338.962" y="94.5939" width="1.78169" height="1.77462" transform="rotate(-90 338.962 94.5939)" fill="#C4C4C4" fill-opacity="0.3"/>
<rect x="354.369" y="94.5939" width="1.78169" height="1.77462" transform="rotate(-90 354.369 94.5939)" fill="#C4C4C4" fill-opacity="0.3"/>
<rect x="369.776" y="94.5939" width="1.78169" height="1.77462" transform="rotate(-90 369.776 94.5939)" fill="#C4C4C4" fill-opacity="0.3"/>
<rect x="385.184" y="94.5939" width="1.78169" height="1.77462" transform="rotate(-90 385.184 94.5939)" fill="#C4C4C4" fill-opacity="0.3"/>
<rect x="400.591" y="94.5939" width="1.78169" height="1.77462" transform="rotate(-90 400.591 94.5939)" fill="#C4C4C4" fill-opacity="0.3"/>
<rect x="415.999" y="94.5939" width="1.78169" height="1.77462" transform="rotate(-90 415.999 94.5939)" fill="#C4C4C4" fill-opacity="0.3"/>
<rect x="431.406" y="94.5939" width="1.78169" height="1.77462" transform="rotate(-90 431.406 94.5939)" fill="#C4C4C4" fill-opacity="0.3"/>
<rect x="446.813" y="94.5939" width="1.78169" height="1.77462" transform="rotate(-90 446.813 94.5939)" fill="#C4C4C4" fill-opacity="0.3"/>
<rect x="462.221" y="94.5939" width="1.78169" height="1.77462" transform="rotate(-90 462.221 94.5939)" fill="#C4C4C4" fill-opacity="0.3"/>
<rect x="477.628" y="94.5939" width="1.78169" height="1.77462" transform="rotate(-90 477.628 94.5939)" fill="#C4C4C4" fill-opacity="0.3"/>
<rect x="493.035" y="94.5939" width="1.78169" height="1.77462" transform="rotate(-90 493.035 94.5939)" fill="#C4C4C4" fill-opacity="0.3"/>
<rect x="508.443" y="94.5939" width="1.78169" height="1.77462" transform="rotate(-90 508.443 94.5939)" fill="#C4C4C4" fill-opacity="0.3"/>
<rect x="523.85" y="94.5939" width="1.78169" height="1.77462" transform="rotate(-90 523.85 94.5939)" fill="#C4C4C4" fill-opacity="0.3"/>
<rect x="539.257" y="94.5939" width="1.78169" height="1.77462" transform="rotate(-90 539.257 94.5939)" fill="#C4C4C4" fill-opacity="0.3"/>
<rect x="554.665" y="94.5939" width="1.78169" height="1.77462" transform="rotate(-90 554.665 94.5939)" fill="#C4C4C4" fill-opacity="0.3"/>
<rect x="570.072" y="94.5939" width="1.78169" height="1.77462" transform="rotate(-90 570.072 94.5939)" fill="#C4C4C4" fill-opacity="0.3"/>
<rect x="585.479" y="94.5939" width="1.78169" height="1.77462" transform="rotate(-90 585.479 94.5939)" fill="#C4C4C4" fill-opacity="0.3"/>
<rect x="600.887" y="94.5939" width="1.78169" height="1.77462" transform="rotate(-90 600.887 94.5939)" fill="#C4C4C4" fill-opacity="0.3"/>
<rect y="110.063" width="1.78169" height="1.77462" transform="rotate(-90 0 110.063)" fill="#C4C4C4" fill-opacity="0.3"/>
<rect x="15.4073" y="110.063" width="1.78169" height="1.77462" transform="rotate(-90 15.4073 110.063)" fill="#C4C4C4" fill-opacity="0.3"/>
<rect x="30.8147" y="110.063" width="1.78169" height="1.77462" transform="rotate(-90 30.8147 110.063)" fill="#C4C4C4" fill-opacity="0.3"/>
<rect x="46.222" y="110.063" width="1.78169" height="1.77462" transform="rotate(-90 46.222 110.063)" fill="#C4C4C4" fill-opacity="0.3"/>
<rect x="61.6294" y="110.063" width="1.78169" height="1.77462" transform="rotate(-90 61.6294 110.063)" fill="#C4C4C4" fill-opacity="0.3"/>
<rect x="77.0367" y="110.063" width="1.78169" height="1.77462" transform="rotate(-90 77.0367 110.063)" fill="#C4C4C4" fill-opacity="0.3"/>
<rect x="92.4441" y="110.063" width="1.78169" height="1.77462" transform="rotate(-90 92.4441 110.063)" fill="#C4C4C4" fill-opacity="0.3"/>
<rect x="107.851" y="110.063" width="1.78169" height="1.77462" transform="rotate(-90 107.851 110.063)" fill="#C4C4C4" fill-opacity="0.3"/>
<rect x="123.259" y="110.063" width="1.78169" height="1.77462" transform="rotate(-90 123.259 110.063)" fill="#C4C4C4" fill-opacity="0.3"/>
<rect x="138.666" y="110.063" width="1.78169" height="1.77462" transform="rotate(-90 138.666 110.063)" fill="#C4C4C4" fill-opacity="0.3"/>
<rect x="154.073" y="110.063" width="1.78169" height="1.77462" transform="rotate(-90 154.073 110.063)" fill="#C4C4C4" fill-opacity="0.3"/>
<rect x="169.481" y="110.063" width="1.78169" height="1.77462" transform="rotate(-90 169.481 110.063)" fill="#C4C4C4" fill-opacity="0.3"/>
<rect x="184.888" y="110.063" width="1.78169" height="1.77462" transform="rotate(-90 184.888 110.063)" fill="#C4C4C4" fill-opacity="0.3"/>
<rect x="200.296" y="110.063" width="1.78169" height="1.77462" transform="rotate(-90 200.296 110.063)" fill="#C4C4C4" fill-opacity="0.3"/>
<rect x="215.703" y="110.063" width="1.78169" height="1.77462" transform="rotate(-90 215.703 110.063)" fill="#C4C4C4" fill-opacity="0.3"/>
<rect x="231.11" y="110.063" width="1.78169" height="1.77462" transform="rotate(-90 231.11 110.063)" fill="#C4C4C4" fill-opacity="0.3"/>
<rect x="246.518" y="110.063" width="1.78169" height="1.77462" transform="rotate(-90 246.518 110.063)" fill="#C4C4C4" fill-opacity="0.3"/>
<rect x="261.925" y="110.063" width="1.78169" height="1.77462" transform="rotate(-90 261.925 110.063)" fill="#C4C4C4" fill-opacity="0.3"/>
<rect x="277.332" y="110.063" width="1.78169" height="1.77462" transform="rotate(-90 277.332 110.063)" fill="#C4C4C4" fill-opacity="0.3"/>
<rect x="292.74" y="110.063" width="1.78169" height="1.77462" transform="rotate(-90 292.74 110.063)" fill="#C4C4C4" fill-opacity="0.3"/>
<rect x="308.147" y="110.063" width="1.78169" height="1.77462" transform="rotate(-90 308.147 110.063)" fill="#C4C4C4" fill-opacity="0.3"/>
<rect x="323.554" y="110.063" width="1.78169" height="1.77462" transform="rotate(-90 323.554 110.063)" fill="#C4C4C4" fill-opacity="0.3"/>
<rect x="338.962" y="110.063" width="1.78169" height="1.77462" transform="rotate(-90 338.962 110.063)" fill="#C4C4C4" fill-opacity="0.3"/>
<rect x="354.369" y="110.063" width="1.78169" height="1.77462" transform="rotate(-90 354.369 110.063)" fill="#C4C4C4" fill-opacity="0.3"/>
<rect x="369.776" y="110.063" width="1.78169" height="1.77462" transform="rotate(-90 369.776 110.063)" fill="#C4C4C4" fill-opacity="0.3"/>
<rect x="385.184" y="110.063" width="1.78169" height="1.77462" transform="rotate(-90 385.184 110.063)" fill="#C4C4C4" fill-opacity="0.3"/>
<rect x="400.591" y="110.063" width="1.78169" height="1.77462" transform="rotate(-90 400.591 110.063)" fill="#C4C4C4" fill-opacity="0.3"/>
<rect x="415.999" y="110.063" width="1.78169" height="1.77462" transform="rotate(-90 415.999 110.063)" fill="#C4C4C4" fill-opacity="0.3"/>
<rect x="431.406" y="110.063" width="1.78169" height="1.77462" transform="rotate(-90 431.406 110.063)" fill="#C4C4C4" fill-opacity="0.3"/>
<rect x="446.813" y="110.063" width="1.78169" height="1.77462" transform="rotate(-90 446.813 110.063)" fill="#C4C4C4" fill-opacity="0.3"/>
<rect x="462.221" y="110.063" width="1.78169" height="1.77462" transform="rotate(-90 462.221 110.063)" fill="#C4C4C4" fill-opacity="0.3"/>
<rect x="477.628" y="110.063" width="1.78169" height="1.77462" transform="rotate(-90 477.628 110.063)" fill="#C4C4C4" fill-opacity="0.3"/>
<rect x="493.035" y="110.063" width="1.78169" height="1.77462" transform="rotate(-90 493.035 110.063)" fill="#C4C4C4" fill-opacity="0.3"/>
<rect x="508.443" y="110.063" width="1.78169" height="1.77462" transform="rotate(-90 508.443 110.063)" fill="#C4C4C4" fill-opacity="0.3"/>
<rect x="523.85" y="110.063" width="1.78169" height="1.77462" transform="rotate(-90 523.85 110.063)" fill="#C4C4C4" fill-opacity="0.3"/>
<rect x="539.257" y="110.063" width="1.78169" height="1.77462" transform="rotate(-90 539.257 110.063)" fill="#C4C4C4" fill-opacity="0.3"/>
<rect x="554.665" y="110.063" width="1.78169" height="1.77462" transform="rotate(-90 554.665 110.063)" fill="#C4C4C4" fill-opacity="0.3"/>
<rect x="570.072" y="110.063" width="1.78169" height="1.77462" transform="rotate(-90 570.072 110.063)" fill="#C4C4C4" fill-opacity="0.3"/>
<rect x="585.479" y="110.063" width="1.78169" height="1.77462" transform="rotate(-90 585.479 110.063)" fill="#C4C4C4" fill-opacity="0.3"/>
<rect x="600.887" y="110.063" width="1.78169" height="1.77462" transform="rotate(-90 600.887 110.063)" fill="#C4C4C4" fill-opacity="0.3"/>
<rect y="125.531" width="1.78169" height="1.77462" transform="rotate(-90 0 125.531)" fill="#C4C4C4" fill-opacity="0.3"/>
<rect x="15.4073" y="125.531" width="1.78169" height="1.77462" transform="rotate(-90 15.4073 125.531)" fill="#C4C4C4" fill-opacity="0.3"/>
<rect x="30.8147" y="125.531" width="1.78169" height="1.77462" transform="rotate(-90 30.8147 125.531)" fill="#C4C4C4" fill-opacity="0.3"/>
<rect x="46.222" y="125.531" width="1.78169" height="1.77462" transform="rotate(-90 46.222 125.531)" fill="#C4C4C4" fill-opacity="0.3"/>
<rect x="61.6294" y="125.531" width="1.78169" height="1.77462" transform="rotate(-90 61.6294 125.531)" fill="#C4C4C4" fill-opacity="0.3"/>
<rect x="77.0367" y="125.531" width="1.78169" height="1.77462" transform="rotate(-90 77.0367 125.531)" fill="#C4C4C4" fill-opacity="0.3"/>
<rect x="92.4441" y="125.531" width="1.78169" height="1.77462" transform="rotate(-90 92.4441 125.531)" fill="#C4C4C4" fill-opacity="0.3"/>
<rect x="107.851" y="125.531" width="1.78169" height="1.77462" transform="rotate(-90 107.851 125.531)" fill="#C4C4C4" fill-opacity="0.3"/>
<rect x="123.259" y="125.531" width="1.78169" height="1.77462" transform="rotate(-90 123.259 125.531)" fill="#C4C4C4" fill-opacity="0.3"/>
<rect x="138.666" y="125.531" width="1.78169" height="1.77462" transform="rotate(-90 138.666 125.531)" fill="#C4C4C4" fill-opacity="0.3"/>
<rect x="154.073" y="125.531" width="1.78169" height="1.77462" transform="rotate(-90 154.073 125.531)" fill="#C4C4C4" fill-opacity="0.3"/>
<rect x="169.481" y="125.531" width="1.78169" height="1.77462" transform="rotate(-90 169.481 125.531)" fill="#C4C4C4" fill-opacity="0.3"/>
<rect x="184.888" y="125.531" width="1.78169" height="1.77462" transform="rotate(-90 184.888 125.531)" fill="#C4C4C4" fill-opacity="0.3"/>
<rect x="200.296" y="125.531" width="1.78169" height="1.77462" transform="rotate(-90 200.296 125.531)" fill="#C4C4C4" fill-opacity="0.3"/>
<rect x="215.703" y="125.531" width="1.78169" height="1.77462" transform="rotate(-90 215.703 125.531)" fill="#C4C4C4" fill-opacity="0.3"/>
<rect x="231.11" y="125.531" width="1.78169" height="1.77462" transform="rotate(-90 231.11 125.531)" fill="#C4C4C4" fill-opacity="0.3"/>
<rect x="246.518" y="125.531" width="1.78169" height="1.77462" transform="rotate(-90 246.518 125.531)" fill="#C4C4C4" fill-opacity="0.3"/>
<rect x="261.925" y="125.531" width="1.78169" height="1.77462" transform="rotate(-90 261.925 125.531)" fill="#C4C4C4" fill-opacity="0.3"/>
<rect x="277.332" y="125.531" width="1.78169" height="1.77462" transform="rotate(-90 277.332 125.531)" fill="#C4C4C4" fill-opacity="0.3"/>
<rect x="292.74" y="125.531" width="1.78169" height="1.77462" transform="rotate(-90 292.74 125.531)" fill="#C4C4C4" fill-opacity="0.3"/>
<rect x="308.147" y="125.531" width="1.78169" height="1.77462" transform="rotate(-90 308.147 125.531)" fill="#C4C4C4" fill-opacity="0.3"/>
<rect x="323.554" y="125.531" width="1.78169" height="1.77462" transform="rotate(-90 323.554 125.531)" fill="#C4C4C4" fill-opacity="0.3"/>
<rect x="338.962" y="125.531" width="1.78169" height="1.77462" transform="rotate(-90 338.962 125.531)" fill="#C4C4C4" fill-opacity="0.3"/>
<rect x="354.369" y="125.531" width="1.78169" height="1.77462" transform="rotate(-90 354.369 125.531)" fill="#C4C4C4" fill-opacity="0.3"/>
<rect x="369.776" y="125.531" width="1.78169" height="1.77462" transform="rotate(-90 369.776 125.531)" fill="#C4C4C4" fill-opacity="0.3"/>
<rect x="385.184" y="125.531" width="1.78169" height="1.77462" transform="rotate(-90 385.184 125.531)" fill="#C4C4C4" fill-opacity="0.3"/>
<rect x="400.591" y="125.531" width="1.78169" height="1.77462" transform="rotate(-90 400.591 125.531)" fill="#C4C4C4" fill-opacity="0.3"/>
<rect x="415.999" y="125.531" width="1.78169" height="1.77462" transform="rotate(-90 415.999 125.531)" fill="#C4C4C4" fill-opacity="0.3"/>
<rect x="431.406" y="125.531" width="1.78169" height="1.77462" transform="rotate(-90 431.406 125.531)" fill="#C4C4C4" fill-opacity="0.3"/>
<rect x="446.813" y="125.531" width="1.78169" height="1.77462" transform="rotate(-90 446.813 125.531)" fill="#C4C4C4" fill-opacity="0.3"/>
<rect x="462.221" y="125.531" width="1.78169" height="1.77462" transform="rotate(-90 462.221 125.531)" fill="#C4C4C4" fill-opacity="0.3"/>
<rect x="477.628" y="125.531" width="1.78169" height="1.77462" transform="rotate(-90 477.628 125.531)" fill="#C4C4C4" fill-opacity="0.3"/>
<rect x="493.035" y="125.531" width="1.78169" height="1.77462" transform="rotate(-90 493.035 125.531)" fill="#C4C4C4" fill-opacity="0.3"/>
<rect x="508.443" y="125.531" width="1.78169" height="1.77462" transform="rotate(-90 508.443 125.531)" fill="#C4C4C4" fill-opacity="0.3"/>
<rect x="523.85" y="125.531" width="1.78169" height="1.77462" transform="rotate(-90 523.85 125.531)" fill="#C4C4C4" fill-opacity="0.3"/>
<rect x="539.257" y="125.531" width="1.78169" height="1.77462" transform="rotate(-90 539.257 125.531)" fill="#C4C4C4" fill-opacity="0.3"/>
<rect x="554.665" y="125.531" width="1.78169" height="1.77462" transform="rotate(-90 554.665 125.531)" fill="#C4C4C4" fill-opacity="0.3"/>
<rect x="570.072" y="125.531" width="1.78169" height="1.77462" transform="rotate(-90 570.072 125.531)" fill="#C4C4C4" fill-opacity="0.3"/>
<rect x="585.479" y="125.531" width="1.78169" height="1.77462" transform="rotate(-90 585.479 125.531)" fill="#C4C4C4" fill-opacity="0.3"/>
<rect x="600.887" y="125.531" width="1.78169" height="1.77462" transform="rotate(-90 600.887 125.531)" fill="#C4C4C4" fill-opacity="0.3"/>
<rect y="141" width="1.78169" height="1.77462" transform="rotate(-90 0 141)" fill="#C4C4C4" fill-opacity="0.3"/>
<rect x="15.4073" y="141" width="1.78169" height="1.77462" transform="rotate(-90 15.4073 141)" fill="#C4C4C4" fill-opacity="0.3"/>
<rect x="30.8147" y="141" width="1.78169" height="1.77462" transform="rotate(-90 30.8147 141)" fill="#C4C4C4" fill-opacity="0.3"/>
<rect x="46.222" y="141" width="1.78169" height="1.77462" transform="rotate(-90 46.222 141)" fill="#C4C4C4" fill-opacity="0.3"/>
<rect x="61.6294" y="141" width="1.78169" height="1.77462" transform="rotate(-90 61.6294 141)" fill="#C4C4C4" fill-opacity="0.3"/>
<rect x="77.0367" y="141" width="1.78169" height="1.77462" transform="rotate(-90 77.0367 141)" fill="#C4C4C4" fill-opacity="0.3"/>
<rect x="92.4441" y="141" width="1.78169" height="1.77462" transform="rotate(-90 92.4441 141)" fill="#C4C4C4" fill-opacity="0.3"/>
<rect x="107.851" y="141" width="1.78169" height="1.77462" transform="rotate(-90 107.851 141)" fill="#C4C4C4" fill-opacity="0.3"/>
<rect x="123.259" y="141" width="1.78169" height="1.77462" transform="rotate(-90 123.259 141)" fill="#C4C4C4" fill-opacity="0.3"/>
<rect x="138.666" y="141" width="1.78169" height="1.77462" transform="rotate(-90 138.666 141)" fill="#C4C4C4" fill-opacity="0.3"/>
<rect x="154.073" y="141" width="1.78169" height="1.77462" transform="rotate(-90 154.073 141)" fill="#C4C4C4" fill-opacity="0.3"/>
<rect x="169.481" y="141" width="1.78169" height="1.77462" transform="rotate(-90 169.481 141)" fill="#C4C4C4" fill-opacity="0.3"/>
<rect x="184.888" y="141" width="1.78169" height="1.77462" transform="rotate(-90 184.888 141)" fill="#C4C4C4" fill-opacity="0.3"/>
<rect x="200.296" y="141" width="1.78169" height="1.77462" transform="rotate(-90 200.296 141)" fill="#C4C4C4" fill-opacity="0.3"/>
<rect x="215.703" y="141" width="1.78169" height="1.77462" transform="rotate(-90 215.703 141)" fill="#C4C4C4" fill-opacity="0.3"/>
<rect x="231.11" y="141" width="1.78169" height="1.77462" transform="rotate(-90 231.11 141)" fill="#C4C4C4" fill-opacity="0.3"/>
<rect x="246.518" y="141" width="1.78169" height="1.77462" transform="rotate(-90 246.518 141)" fill="#C4C4C4" fill-opacity="0.3"/>
<rect x="261.925" y="141" width="1.78169" height="1.77462" transform="rotate(-90 261.925 141)" fill="#C4C4C4" fill-opacity="0.3"/>
<rect x="277.332" y="141" width="1.78169" height="1.77462" transform="rotate(-90 277.332 141)" fill="#C4C4C4" fill-opacity="0.3"/>
<rect x="292.74" y="141" width="1.78169" height="1.77462" transform="rotate(-90 292.74 141)" fill="#C4C4C4" fill-opacity="0.3"/>
<rect x="308.147" y="141" width="1.78169" height="1.77462" transform="rotate(-90 308.147 141)" fill="#C4C4C4" fill-opacity="0.3"/>
<rect x="323.554" y="141" width="1.78169" height="1.77462" transform="rotate(-90 323.554 141)" fill="#C4C4C4" fill-opacity="0.3"/>
<rect x="338.962" y="141" width="1.78169" height="1.77462" transform="rotate(-90 338.962 141)" fill="#C4C4C4" fill-opacity="0.3"/>
<rect x="354.369" y="141" width="1.78169" height="1.77462" transform="rotate(-90 354.369 141)" fill="#C4C4C4" fill-opacity="0.3"/>
<rect x="369.776" y="141" width="1.78169" height="1.77462" transform="rotate(-90 369.776 141)" fill="#C4C4C4" fill-opacity="0.3"/>
<rect x="385.184" y="141" width="1.78169" height="1.77462" transform="rotate(-90 385.184 141)" fill="#C4C4C4" fill-opacity="0.3"/>
<rect x="400.591" y="141" width="1.78169" height="1.77462" transform="rotate(-90 400.591 141)" fill="#C4C4C4" fill-opacity="0.3"/>
<rect x="415.999" y="141" width="1.78169" height="1.77462" transform="rotate(-90 415.999 141)" fill="#C4C4C4" fill-opacity="0.3"/>
<rect x="431.406" y="141" width="1.78169" height="1.77462" transform="rotate(-90 431.406 141)" fill="#C4C4C4" fill-opacity="0.3"/>
<rect x="446.813" y="141" width="1.78169" height="1.77462" transform="rotate(-90 446.813 141)" fill="#C4C4C4" fill-opacity="0.3"/>
<rect x="462.221" y="141" width="1.78169" height="1.77462" transform="rotate(-90 462.221 141)" fill="#C4C4C4" fill-opacity="0.3"/>
<rect x="477.628" y="141" width="1.78169" height="1.77462" transform="rotate(-90 477.628 141)" fill="#C4C4C4" fill-opacity="0.3"/>
<rect x="493.035" y="141" width="1.78169" height="1.77462" transform="rotate(-90 493.035 141)" fill="#C4C4C4" fill-opacity="0.3"/>
<rect x="508.443" y="141" width="1.78169" height="1.77462" transform="rotate(-90 508.443 141)" fill="#C4C4C4" fill-opacity="0.3"/>
<rect x="523.85" y="141" width="1.78169" height="1.77462" transform="rotate(-90 523.85 141)" fill="#C4C4C4" fill-opacity="0.3"/>
<rect x="539.257" y="141" width="1.78169" height="1.77462" transform="rotate(-90 539.257 141)" fill="#C4C4C4" fill-opacity="0.3"/>
<rect x="554.665" y="141" width="1.78169" height="1.77462" transform="rotate(-90 554.665 141)" fill="#C4C4C4" fill-opacity="0.3"/>
<rect x="570.072" y="141" width="1.78169" height="1.77462" transform="rotate(-90 570.072 141)" fill="#C4C4C4" fill-opacity="0.3"/>
<rect x="585.479" y="141" width="1.78169" height="1.77462" transform="rotate(-90 585.479 141)" fill="#C4C4C4" fill-opacity="0.3"/>
<rect x="600.887" y="141" width="1.78169" height="1.77462" transform="rotate(-90 600.887 141)" fill="#C4C4C4" fill-opacity="0.3"/>
</svg>
