<svg width="317" height="407" viewBox="0 0 317 407" fill="none" xmlns="http://www.w3.org/2000/svg">
<rect x="15" width="2" height="2" fill="#C4C4C4" fill-opacity="0.3"/>
<rect x="30" width="2" height="2" fill="#C4C4C4" fill-opacity="0.3"/>
<rect x="45" width="2" height="2" fill="#C4C4C4" fill-opacity="0.3"/>
<rect x="60" width="2" height="2" fill="#C4C4C4" fill-opacity="0.3"/>
<rect x="75" width="2" height="2" fill="#C4C4C4" fill-opacity="0.3"/>
<rect x="90" width="2" height="2" fill="#C4C4C4" fill-opacity="0.3"/>
<rect x="105" width="2" height="2" fill="#C4C4C4" fill-opacity="0.3"/>
<rect x="120" width="2" height="2" fill="#C4C4C4" fill-opacity="0.3"/>
<rect x="135" width="2" height="2" fill="#C4C4C4" fill-opacity="0.3"/>
<rect x="150" width="2" height="2" fill="#C4C4C4" fill-opacity="0.3"/>
<rect x="165" width="2" height="2" fill="#C4C4C4" fill-opacity="0.3"/>
<rect x="180" width="2" height="2" fill="#C4C4C4" fill-opacity="0.3"/>
<rect x="195" width="2" height="2" fill="#C4C4C4" fill-opacity="0.3"/>
<rect x="210" width="2" height="2" fill="#C4C4C4" fill-opacity="0.3"/>
<rect x="225" width="2" height="2" fill="#C4C4C4" fill-opacity="0.3"/>
<rect x="240" width="2" height="2" fill="#C4C4C4" fill-opacity="0.3"/>
<rect x="255" width="2" height="2" fill="#C4C4C4" fill-opacity="0.3"/>
<rect x="270" width="2" height="2" fill="#C4C4C4" fill-opacity="0.3"/>
<rect x="285" width="2" height="2" fill="#C4C4C4" fill-opacity="0.3"/>
<rect x="300" width="2" height="2" fill="#C4C4C4" fill-opacity="0.3"/>
<rect y="15" width="2" height="2" fill="#C4C4C4" fill-opacity="0.3"/>
<rect x="15" y="15" width="2" height="2" fill="#C4C4C4" fill-opacity="0.3"/>
<rect x="30" y="15" width="2" height="2" fill="#C4C4C4" fill-opacity="0.3"/>
<rect x="45" y="15" width="2" height="2" fill="#C4C4C4" fill-opacity="0.3"/>
<rect x="60" y="15" width="2" height="2" fill="#C4C4C4" fill-opacity="0.3"/>
<rect x="75" y="15" width="2" height="2" fill="#C4C4C4" fill-opacity="0.3"/>
<rect x="90" y="15" width="2" height="2" fill="#C4C4C4" fill-opacity="0.3"/>
<rect x="105" y="15" width="2" height="2" fill="#C4C4C4" fill-opacity="0.3"/>
<rect x="120" y="15" width="2" height="2" fill="#C4C4C4" fill-opacity="0.3"/>
<rect x="135" y="15" width="2" height="2" fill="#C4C4C4" fill-opacity="0.3"/>
<rect x="150" y="15" width="2" height="2" fill="#C4C4C4" fill-opacity="0.3"/>
<rect x="165" y="15" width="2" height="2" fill="#C4C4C4" fill-opacity="0.3"/>
<rect x="180" y="15" width="2" height="2" fill="#C4C4C4" fill-opacity="0.3"/>
<rect x="195" y="15" width="2" height="2" fill="#C4C4C4" fill-opacity="0.3"/>
<rect x="210" y="15" width="2" height="2" fill="#C4C4C4" fill-opacity="0.3"/>
<rect x="225" y="15" width="2" height="2" fill="#C4C4C4" fill-opacity="0.3"/>
<rect x="240" y="15" width="2" height="2" fill="#C4C4C4" fill-opacity="0.3"/>
<rect x="255" y="15" width="2" height="2" fill="#C4C4C4" fill-opacity="0.3"/>
<rect x="270" y="15" width="2" height="2" fill="#C4C4C4" fill-opacity="0.3"/>
<rect x="285" y="15" width="2" height="2" fill="#C4C4C4" fill-opacity="0.3"/>
<rect x="300" y="15" width="2" height="2" fill="#C4C4C4" fill-opacity="0.3"/>
<rect x="315" y="15" width="2" height="2" fill="#C4C4C4" fill-opacity="0.3"/>
<rect y="30" width="2" height="2" fill="#C4C4C4" fill-opacity="0.3"/>
<rect x="15" y="30" width="2" height="2" fill="#C4C4C4" fill-opacity="0.3"/>
<rect x="30" y="30" width="2" height="2" fill="#C4C4C4" fill-opacity="0.3"/>
<rect x="45" y="30" width="2" height="2" fill="#C4C4C4" fill-opacity="0.3"/>
<rect x="60" y="30" width="2" height="2" fill="#C4C4C4" fill-opacity="0.3"/>
<rect x="75" y="30" width="2" height="2" fill="#C4C4C4" fill-opacity="0.3"/>
<rect x="90" y="30" width="2" height="2" fill="#C4C4C4" fill-opacity="0.3"/>
<rect x="105" y="30" width="2" height="2" fill="#C4C4C4" fill-opacity="0.3"/>
<rect x="120" y="30" width="2" height="2" fill="#C4C4C4" fill-opacity="0.3"/>
<rect x="135" y="30" width="2" height="2" fill="#C4C4C4" fill-opacity="0.3"/>
<rect x="150" y="30" width="2" height="2" fill="#C4C4C4" fill-opacity="0.3"/>
<rect x="165" y="30" width="2" height="2" fill="#C4C4C4" fill-opacity="0.3"/>
<rect x="180" y="30" width="2" height="2" fill="#C4C4C4" fill-opacity="0.3"/>
<rect x="195" y="30" width="2" height="2" fill="#C4C4C4" fill-opacity="0.3"/>
<rect x="210" y="30" width="2" height="2" fill="#C4C4C4" fill-opacity="0.3"/>
<rect x="225" y="30" width="2" height="2" fill="#C4C4C4" fill-opacity="0.3"/>
<rect x="240" y="30" width="2" height="2" fill="#C4C4C4" fill-opacity="0.3"/>
<rect x="255" y="30" width="2" height="2" fill="#C4C4C4" fill-opacity="0.3"/>
<rect x="270" y="30" width="2" height="2" fill="#C4C4C4" fill-opacity="0.3"/>
<rect x="285" y="30" width="2" height="2" fill="#C4C4C4" fill-opacity="0.3"/>
<rect x="300" y="30" width="2" height="2" fill="#C4C4C4" fill-opacity="0.3"/>
<rect x="315" y="30" width="2" height="2" fill="#C4C4C4" fill-opacity="0.3"/>
<rect y="45" width="2" height="2" fill="#C4C4C4" fill-opacity="0.3"/>
<rect x="15" y="45" width="2" height="2" fill="#C4C4C4" fill-opacity="0.3"/>
<rect x="30" y="45" width="2" height="2" fill="#C4C4C4" fill-opacity="0.3"/>
<rect x="45" y="45" width="2" height="2" fill="#C4C4C4" fill-opacity="0.3"/>
<rect x="60" y="45" width="2" height="2" fill="#C4C4C4" fill-opacity="0.3"/>
<rect x="75" y="45" width="2" height="2" fill="#C4C4C4" fill-opacity="0.3"/>
<rect x="90" y="45" width="2" height="2" fill="#C4C4C4" fill-opacity="0.3"/>
<rect x="105" y="45" width="2" height="2" fill="#C4C4C4" fill-opacity="0.3"/>
<rect x="120" y="45" width="2" height="2" fill="#C4C4C4" fill-opacity="0.3"/>
<rect x="135" y="45" width="2" height="2" fill="#C4C4C4" fill-opacity="0.3"/>
<rect x="150" y="45" width="2" height="2" fill="#C4C4C4" fill-opacity="0.3"/>
<rect x="165" y="45" width="2" height="2" fill="#C4C4C4" fill-opacity="0.3"/>
<rect x="180" y="45" width="2" height="2" fill="#C4C4C4" fill-opacity="0.3"/>
<rect x="195" y="45" width="2" height="2" fill="#C4C4C4" fill-opacity="0.3"/>
<rect x="210" y="45" width="2" height="2" fill="#C4C4C4" fill-opacity="0.3"/>
<rect x="225" y="45" width="2" height="2" fill="#C4C4C4" fill-opacity="0.3"/>
<rect x="240" y="45" width="2" height="2" fill="#C4C4C4" fill-opacity="0.3"/>
<rect x="255" y="45" width="2" height="2" fill="#C4C4C4" fill-opacity="0.3"/>
<rect x="270" y="45" width="2" height="2" fill="#C4C4C4" fill-opacity="0.3"/>
<rect x="285" y="45" width="2" height="2" fill="#C4C4C4" fill-opacity="0.3"/>
<rect x="300" y="45" width="2" height="2" fill="#C4C4C4" fill-opacity="0.3"/>
<rect x="315" y="45" width="2" height="2" fill="#C4C4C4" fill-opacity="0.3"/>
<rect y="60" width="2" height="2" fill="#C4C4C4" fill-opacity="0.3"/>
<rect x="15" y="60" width="2" height="2" fill="#C4C4C4" fill-opacity="0.3"/>
<rect x="30" y="60" width="2" height="2" fill="#C4C4C4" fill-opacity="0.3"/>
<rect x="45" y="60" width="2" height="2" fill="#C4C4C4" fill-opacity="0.3"/>
<rect x="60" y="60" width="2" height="2" fill="#C4C4C4" fill-opacity="0.3"/>
<rect x="75" y="60" width="2" height="2" fill="#C4C4C4" fill-opacity="0.3"/>
<rect x="90" y="60" width="2" height="2" fill="#C4C4C4" fill-opacity="0.3"/>
<rect x="105" y="60" width="2" height="2" fill="#C4C4C4" fill-opacity="0.3"/>
<rect x="120" y="60" width="2" height="2" fill="#C4C4C4" fill-opacity="0.3"/>
<rect x="135" y="60" width="2" height="2" fill="#C4C4C4" fill-opacity="0.3"/>
<rect x="150" y="60" width="2" height="2" fill="#C4C4C4" fill-opacity="0.3"/>
<rect x="165" y="60" width="2" height="2" fill="#C4C4C4" fill-opacity="0.3"/>
<rect x="180" y="60" width="2" height="2" fill="#C4C4C4" fill-opacity="0.3"/>
<rect x="195" y="60" width="2" height="2" fill="#C4C4C4" fill-opacity="0.3"/>
<rect x="210" y="60" width="2" height="2" fill="#C4C4C4" fill-opacity="0.3"/>
<rect x="225" y="60" width="2" height="2" fill="#C4C4C4" fill-opacity="0.3"/>
<rect x="240" y="60" width="2" height="2" fill="#C4C4C4" fill-opacity="0.3"/>
<rect x="255" y="60" width="2" height="2" fill="#C4C4C4" fill-opacity="0.3"/>
<rect x="270" y="60" width="2" height="2" fill="#C4C4C4" fill-opacity="0.3"/>
<rect x="285" y="60" width="2" height="2" fill="#C4C4C4" fill-opacity="0.3"/>
<rect x="300" y="60" width="2" height="2" fill="#C4C4C4" fill-opacity="0.3"/>
<rect x="315" y="60" width="2" height="2" fill="#C4C4C4" fill-opacity="0.3"/>
<rect y="75" width="2" height="2" fill="#C4C4C4" fill-opacity="0.3"/>
<rect x="15" y="75" width="2" height="2" fill="#C4C4C4" fill-opacity="0.3"/>
<rect x="30" y="75" width="2" height="2" fill="#C4C4C4" fill-opacity="0.3"/>
<rect x="45" y="75" width="2" height="2" fill="#C4C4C4" fill-opacity="0.3"/>
<rect x="60" y="75" width="2" height="2" fill="#C4C4C4" fill-opacity="0.3"/>
<rect x="75" y="75" width="2" height="2" fill="#C4C4C4" fill-opacity="0.3"/>
<rect x="90" y="75" width="2" height="2" fill="#C4C4C4" fill-opacity="0.3"/>
<rect x="105" y="75" width="2" height="2" fill="#C4C4C4" fill-opacity="0.3"/>
<rect x="120" y="75" width="2" height="2" fill="#C4C4C4" fill-opacity="0.3"/>
<rect x="135" y="75" width="2" height="2" fill="#C4C4C4" fill-opacity="0.3"/>
<rect x="150" y="75" width="2" height="2" fill="#C4C4C4" fill-opacity="0.3"/>
<rect x="165" y="75" width="2" height="2" fill="#C4C4C4" fill-opacity="0.3"/>
<rect x="180" y="75" width="2" height="2" fill="#C4C4C4" fill-opacity="0.3"/>
<rect x="195" y="75" width="2" height="2" fill="#C4C4C4" fill-opacity="0.3"/>
<rect x="210" y="75" width="2" height="2" fill="#C4C4C4" fill-opacity="0.3"/>
<rect x="225" y="75" width="2" height="2" fill="#C4C4C4" fill-opacity="0.3"/>
<rect x="240" y="75" width="2" height="2" fill="#C4C4C4" fill-opacity="0.3"/>
<rect x="255" y="75" width="2" height="2" fill="#C4C4C4" fill-opacity="0.3"/>
<rect x="270" y="75" width="2" height="2" fill="#C4C4C4" fill-opacity="0.3"/>
<rect x="285" y="75" width="2" height="2" fill="#C4C4C4" fill-opacity="0.3"/>
<rect x="300" y="75" width="2" height="2" fill="#C4C4C4" fill-opacity="0.3"/>
<rect x="315" y="75" width="2" height="2" fill="#C4C4C4" fill-opacity="0.3"/>
<rect y="90" width="2" height="2" fill="#C4C4C4" fill-opacity="0.3"/>
<rect x="15" y="90" width="2" height="2" fill="#C4C4C4" fill-opacity="0.3"/>
<rect x="30" y="90" width="2" height="2" fill="#C4C4C4" fill-opacity="0.3"/>
<rect x="45" y="90" width="2" height="2" fill="#C4C4C4" fill-opacity="0.3"/>
<rect x="60" y="90" width="2" height="2" fill="#C4C4C4" fill-opacity="0.3"/>
<rect x="75" y="90" width="2" height="2" fill="#C4C4C4" fill-opacity="0.3"/>
<rect x="90" y="90" width="2" height="2" fill="#C4C4C4" fill-opacity="0.3"/>
<rect x="105" y="90" width="2" height="2" fill="#C4C4C4" fill-opacity="0.3"/>
<rect x="120" y="90" width="2" height="2" fill="#C4C4C4" fill-opacity="0.3"/>
<rect x="135" y="90" width="2" height="2" fill="#C4C4C4" fill-opacity="0.3"/>
<rect x="150" y="90" width="2" height="2" fill="#C4C4C4" fill-opacity="0.3"/>
<rect x="165" y="90" width="2" height="2" fill="#C4C4C4" fill-opacity="0.3"/>
<rect x="180" y="90" width="2" height="2" fill="#C4C4C4" fill-opacity="0.3"/>
<rect x="195" y="90" width="2" height="2" fill="#C4C4C4" fill-opacity="0.3"/>
<rect x="210" y="90" width="2" height="2" fill="#C4C4C4" fill-opacity="0.3"/>
<rect x="225" y="90" width="2" height="2" fill="#C4C4C4" fill-opacity="0.3"/>
<rect x="240" y="90" width="2" height="2" fill="#C4C4C4" fill-opacity="0.3"/>
<rect x="255" y="90" width="2" height="2" fill="#C4C4C4" fill-opacity="0.3"/>
<rect x="270" y="90" width="2" height="2" fill="#C4C4C4" fill-opacity="0.3"/>
<rect x="285" y="90" width="2" height="2" fill="#C4C4C4" fill-opacity="0.3"/>
<rect x="300" y="90" width="2" height="2" fill="#C4C4C4" fill-opacity="0.3"/>
<rect x="315" y="90" width="2" height="2" fill="#C4C4C4" fill-opacity="0.3"/>
<rect y="105" width="2" height="2" fill="#C4C4C4" fill-opacity="0.3"/>
<rect x="15" y="105" width="2" height="2" fill="#C4C4C4" fill-opacity="0.3"/>
<rect x="30" y="105" width="2" height="2" fill="#C4C4C4" fill-opacity="0.3"/>
<rect x="45" y="105" width="2" height="2" fill="#C4C4C4" fill-opacity="0.3"/>
<rect x="60" y="105" width="2" height="2" fill="#C4C4C4" fill-opacity="0.3"/>
<rect x="75" y="105" width="2" height="2" fill="#C4C4C4" fill-opacity="0.3"/>
<rect x="90" y="105" width="2" height="2" fill="#C4C4C4" fill-opacity="0.3"/>
<rect x="105" y="105" width="2" height="2" fill="#C4C4C4" fill-opacity="0.3"/>
<rect x="120" y="105" width="2" height="2" fill="#C4C4C4" fill-opacity="0.3"/>
<rect x="135" y="105" width="2" height="2" fill="#C4C4C4" fill-opacity="0.3"/>
<rect x="150" y="105" width="2" height="2" fill="#C4C4C4" fill-opacity="0.3"/>
<rect x="165" y="105" width="2" height="2" fill="#C4C4C4" fill-opacity="0.3"/>
<rect x="180" y="105" width="2" height="2" fill="#C4C4C4" fill-opacity="0.3"/>
<rect x="195" y="105" width="2" height="2" fill="#C4C4C4" fill-opacity="0.3"/>
<rect x="210" y="105" width="2" height="2" fill="#C4C4C4" fill-opacity="0.3"/>
<rect x="225" y="105" width="2" height="2" fill="#C4C4C4" fill-opacity="0.3"/>
<rect x="240" y="105" width="2" height="2" fill="#C4C4C4" fill-opacity="0.3"/>
<rect x="255" y="105" width="2" height="2" fill="#C4C4C4" fill-opacity="0.3"/>
<rect x="270" y="105" width="2" height="2" fill="#C4C4C4" fill-opacity="0.3"/>
<rect x="285" y="105" width="2" height="2" fill="#C4C4C4" fill-opacity="0.3"/>
<rect x="300" y="105" width="2" height="2" fill="#C4C4C4" fill-opacity="0.3"/>
<rect x="315" y="105" width="2" height="2" fill="#C4C4C4" fill-opacity="0.3"/>
<rect y="120" width="2" height="2" fill="#C4C4C4" fill-opacity="0.3"/>
<rect x="15" y="120" width="2" height="2" fill="#C4C4C4" fill-opacity="0.3"/>
<rect x="30" y="120" width="2" height="2" fill="#C4C4C4" fill-opacity="0.3"/>
<rect x="45" y="120" width="2" height="2" fill="#C4C4C4" fill-opacity="0.3"/>
<rect x="60" y="120" width="2" height="2" fill="#C4C4C4" fill-opacity="0.3"/>
<rect x="75" y="120" width="2" height="2" fill="#C4C4C4" fill-opacity="0.3"/>
<rect x="90" y="120" width="2" height="2" fill="#C4C4C4" fill-opacity="0.3"/>
<rect x="105" y="120" width="2" height="2" fill="#C4C4C4" fill-opacity="0.3"/>
<rect x="120" y="120" width="2" height="2" fill="#C4C4C4" fill-opacity="0.3"/>
<rect x="135" y="120" width="2" height="2" fill="#C4C4C4" fill-opacity="0.3"/>
<rect x="150" y="120" width="2" height="2" fill="#C4C4C4" fill-opacity="0.3"/>
<rect x="165" y="120" width="2" height="2" fill="#C4C4C4" fill-opacity="0.3"/>
<rect x="180" y="120" width="2" height="2" fill="#C4C4C4" fill-opacity="0.3"/>
<rect x="195" y="120" width="2" height="2" fill="#C4C4C4" fill-opacity="0.3"/>
<rect x="210" y="120" width="2" height="2" fill="#C4C4C4" fill-opacity="0.3"/>
<rect x="225" y="120" width="2" height="2" fill="#C4C4C4" fill-opacity="0.3"/>
<rect x="240" y="120" width="2" height="2" fill="#C4C4C4" fill-opacity="0.3"/>
<rect x="255" y="120" width="2" height="2" fill="#C4C4C4" fill-opacity="0.3"/>
<rect x="270" y="120" width="2" height="2" fill="#C4C4C4" fill-opacity="0.3"/>
<rect x="285" y="120" width="2" height="2" fill="#C4C4C4" fill-opacity="0.3"/>
<rect x="300" y="120" width="2" height="2" fill="#C4C4C4" fill-opacity="0.3"/>
<rect x="315" y="120" width="2" height="2" fill="#C4C4C4" fill-opacity="0.3"/>
<rect y="135" width="2" height="2" fill="#C4C4C4" fill-opacity="0.3"/>
<rect x="15" y="135" width="2" height="2" fill="#C4C4C4" fill-opacity="0.3"/>
<rect x="30" y="135" width="2" height="2" fill="#C4C4C4" fill-opacity="0.3"/>
<rect x="45" y="135" width="2" height="2" fill="#C4C4C4" fill-opacity="0.3"/>
<rect x="60" y="135" width="2" height="2" fill="#C4C4C4" fill-opacity="0.3"/>
<rect x="75" y="135" width="2" height="2" fill="#C4C4C4" fill-opacity="0.3"/>
<rect x="90" y="135" width="2" height="2" fill="#C4C4C4" fill-opacity="0.3"/>
<rect x="105" y="135" width="2" height="2" fill="#C4C4C4" fill-opacity="0.3"/>
<rect x="120" y="135" width="2" height="2" fill="#C4C4C4" fill-opacity="0.3"/>
<rect x="135" y="135" width="2" height="2" fill="#C4C4C4" fill-opacity="0.3"/>
<rect x="150" y="135" width="2" height="2" fill="#C4C4C4" fill-opacity="0.3"/>
<rect x="165" y="135" width="2" height="2" fill="#C4C4C4" fill-opacity="0.3"/>
<rect x="180" y="135" width="2" height="2" fill="#C4C4C4" fill-opacity="0.3"/>
<rect x="195" y="135" width="2" height="2" fill="#C4C4C4" fill-opacity="0.3"/>
<rect x="210" y="135" width="2" height="2" fill="#C4C4C4" fill-opacity="0.3"/>
<rect x="225" y="135" width="2" height="2" fill="#C4C4C4" fill-opacity="0.3"/>
<rect x="240" y="135" width="2" height="2" fill="#C4C4C4" fill-opacity="0.3"/>
<rect x="255" y="135" width="2" height="2" fill="#C4C4C4" fill-opacity="0.3"/>
<rect x="270" y="135" width="2" height="2" fill="#C4C4C4" fill-opacity="0.3"/>
<rect x="285" y="135" width="2" height="2" fill="#C4C4C4" fill-opacity="0.3"/>
<rect x="300" y="135" width="2" height="2" fill="#C4C4C4" fill-opacity="0.3"/>
<rect x="315" y="135" width="2" height="2" fill="#C4C4C4" fill-opacity="0.3"/>
<rect y="150" width="2" height="2" fill="#C4C4C4" fill-opacity="0.3"/>
<rect x="15" y="150" width="2" height="2" fill="#C4C4C4" fill-opacity="0.3"/>
<rect x="30" y="150" width="2" height="2" fill="#C4C4C4" fill-opacity="0.3"/>
<rect x="45" y="150" width="2" height="2" fill="#C4C4C4" fill-opacity="0.3"/>
<rect x="60" y="150" width="2" height="2" fill="#C4C4C4" fill-opacity="0.3"/>
<rect x="75" y="150" width="2" height="2" fill="#C4C4C4" fill-opacity="0.3"/>
<rect x="90" y="150" width="2" height="2" fill="#C4C4C4" fill-opacity="0.3"/>
<rect x="105" y="150" width="2" height="2" fill="#C4C4C4" fill-opacity="0.3"/>
<rect x="120" y="150" width="2" height="2" fill="#C4C4C4" fill-opacity="0.3"/>
<rect x="135" y="150" width="2" height="2" fill="#C4C4C4" fill-opacity="0.3"/>
<rect x="150" y="150" width="2" height="2" fill="#C4C4C4" fill-opacity="0.3"/>
<rect x="165" y="150" width="2" height="2" fill="#C4C4C4" fill-opacity="0.3"/>
<rect x="180" y="150" width="2" height="2" fill="#C4C4C4" fill-opacity="0.3"/>
<rect x="195" y="150" width="2" height="2" fill="#C4C4C4" fill-opacity="0.3"/>
<rect x="210" y="150" width="2" height="2" fill="#C4C4C4" fill-opacity="0.3"/>
<rect x="225" y="150" width="2" height="2" fill="#C4C4C4" fill-opacity="0.3"/>
<rect x="240" y="150" width="2" height="2" fill="#C4C4C4" fill-opacity="0.3"/>
<rect x="255" y="150" width="2" height="2" fill="#C4C4C4" fill-opacity="0.3"/>
<rect x="270" y="150" width="2" height="2" fill="#C4C4C4" fill-opacity="0.3"/>
<rect x="285" y="150" width="2" height="2" fill="#C4C4C4" fill-opacity="0.3"/>
<rect x="300" y="150" width="2" height="2" fill="#C4C4C4" fill-opacity="0.3"/>
<rect x="315" y="150" width="2" height="2" fill="#C4C4C4" fill-opacity="0.3"/>
<rect y="165" width="2" height="2" fill="#C4C4C4" fill-opacity="0.3"/>
<rect x="15" y="165" width="2" height="2" fill="#C4C4C4" fill-opacity="0.3"/>
<rect x="30" y="165" width="2" height="2" fill="#C4C4C4" fill-opacity="0.3"/>
<rect x="45" y="165" width="2" height="2" fill="#C4C4C4" fill-opacity="0.3"/>
<rect x="60" y="165" width="2" height="2" fill="#C4C4C4" fill-opacity="0.3"/>
<rect x="75" y="165" width="2" height="2" fill="#C4C4C4" fill-opacity="0.3"/>
<rect x="90" y="165" width="2" height="2" fill="#C4C4C4" fill-opacity="0.3"/>
<rect x="105" y="165" width="2" height="2" fill="#C4C4C4" fill-opacity="0.3"/>
<rect x="120" y="165" width="2" height="2" fill="#C4C4C4" fill-opacity="0.3"/>
<rect x="135" y="165" width="2" height="2" fill="#C4C4C4" fill-opacity="0.3"/>
<rect x="150" y="165" width="2" height="2" fill="#C4C4C4" fill-opacity="0.3"/>
<rect x="165" y="165" width="2" height="2" fill="#C4C4C4" fill-opacity="0.3"/>
<rect x="180" y="165" width="2" height="2" fill="#C4C4C4" fill-opacity="0.3"/>
<rect x="195" y="165" width="2" height="2" fill="#C4C4C4" fill-opacity="0.3"/>
<rect x="210" y="165" width="2" height="2" fill="#C4C4C4" fill-opacity="0.3"/>
<rect x="225" y="165" width="2" height="2" fill="#C4C4C4" fill-opacity="0.3"/>
<rect x="240" y="165" width="2" height="2" fill="#C4C4C4" fill-opacity="0.3"/>
<rect x="255" y="165" width="2" height="2" fill="#C4C4C4" fill-opacity="0.3"/>
<rect x="270" y="165" width="2" height="2" fill="#C4C4C4" fill-opacity="0.3"/>
<rect x="285" y="165" width="2" height="2" fill="#C4C4C4" fill-opacity="0.3"/>
<rect x="300" y="165" width="2" height="2" fill="#C4C4C4" fill-opacity="0.3"/>
<rect x="315" y="165" width="2" height="2" fill="#C4C4C4" fill-opacity="0.3"/>
<rect y="180" width="2" height="2" fill="#C4C4C4" fill-opacity="0.3"/>
<rect x="15" y="180" width="2" height="2" fill="#C4C4C4" fill-opacity="0.3"/>
<rect x="30" y="180" width="2" height="2" fill="#C4C4C4" fill-opacity="0.3"/>
<rect x="45" y="180" width="2" height="2" fill="#C4C4C4" fill-opacity="0.3"/>
<rect x="60" y="180" width="2" height="2" fill="#C4C4C4" fill-opacity="0.3"/>
<rect x="75" y="180" width="2" height="2" fill="#C4C4C4" fill-opacity="0.3"/>
<rect x="90" y="180" width="2" height="2" fill="#C4C4C4" fill-opacity="0.3"/>
<rect x="105" y="180" width="2" height="2" fill="#C4C4C4" fill-opacity="0.3"/>
<rect x="120" y="180" width="2" height="2" fill="#C4C4C4" fill-opacity="0.3"/>
<rect x="135" y="180" width="2" height="2" fill="#C4C4C4" fill-opacity="0.3"/>
<rect x="150" y="180" width="2" height="2" fill="#C4C4C4" fill-opacity="0.3"/>
<rect x="165" y="180" width="2" height="2" fill="#C4C4C4" fill-opacity="0.3"/>
<rect x="180" y="180" width="2" height="2" fill="#C4C4C4" fill-opacity="0.3"/>
<rect x="195" y="180" width="2" height="2" fill="#C4C4C4" fill-opacity="0.3"/>
<rect x="210" y="180" width="2" height="2" fill="#C4C4C4" fill-opacity="0.3"/>
<rect x="225" y="180" width="2" height="2" fill="#C4C4C4" fill-opacity="0.3"/>
<rect x="240" y="180" width="2" height="2" fill="#C4C4C4" fill-opacity="0.3"/>
<rect x="255" y="180" width="2" height="2" fill="#C4C4C4" fill-opacity="0.3"/>
<rect x="270" y="180" width="2" height="2" fill="#C4C4C4" fill-opacity="0.3"/>
<rect x="285" y="180" width="2" height="2" fill="#C4C4C4" fill-opacity="0.3"/>
<rect x="300" y="180" width="2" height="2" fill="#C4C4C4" fill-opacity="0.3"/>
<rect x="315" y="180" width="2" height="2" fill="#C4C4C4" fill-opacity="0.3"/>
<rect y="195" width="2" height="2" fill="#C4C4C4" fill-opacity="0.3"/>
<rect x="15" y="195" width="2" height="2" fill="#C4C4C4" fill-opacity="0.3"/>
<rect x="30" y="195" width="2" height="2" fill="#C4C4C4" fill-opacity="0.3"/>
<rect x="45" y="195" width="2" height="2" fill="#C4C4C4" fill-opacity="0.3"/>
<rect x="60" y="195" width="2" height="2" fill="#C4C4C4" fill-opacity="0.3"/>
<rect x="75" y="195" width="2" height="2" fill="#C4C4C4" fill-opacity="0.3"/>
<rect x="90" y="195" width="2" height="2" fill="#C4C4C4" fill-opacity="0.3"/>
<rect x="105" y="195" width="2" height="2" fill="#C4C4C4" fill-opacity="0.3"/>
<rect x="120" y="195" width="2" height="2" fill="#C4C4C4" fill-opacity="0.3"/>
<rect x="135" y="195" width="2" height="2" fill="#C4C4C4" fill-opacity="0.3"/>
<rect x="150" y="195" width="2" height="2" fill="#C4C4C4" fill-opacity="0.3"/>
<rect x="165" y="195" width="2" height="2" fill="#C4C4C4" fill-opacity="0.3"/>
<rect x="180" y="195" width="2" height="2" fill="#C4C4C4" fill-opacity="0.3"/>
<rect x="195" y="195" width="2" height="2" fill="#C4C4C4" fill-opacity="0.3"/>
<rect x="210" y="195" width="2" height="2" fill="#C4C4C4" fill-opacity="0.3"/>
<rect x="225" y="195" width="2" height="2" fill="#C4C4C4" fill-opacity="0.3"/>
<rect x="240" y="195" width="2" height="2" fill="#C4C4C4" fill-opacity="0.3"/>
<rect x="255" y="195" width="2" height="2" fill="#C4C4C4" fill-opacity="0.3"/>
<rect x="270" y="195" width="2" height="2" fill="#C4C4C4" fill-opacity="0.3"/>
<rect x="285" y="195" width="2" height="2" fill="#C4C4C4" fill-opacity="0.3"/>
<rect x="300" y="195" width="2" height="2" fill="#C4C4C4" fill-opacity="0.3"/>
<rect x="315" y="195" width="2" height="2" fill="#C4C4C4" fill-opacity="0.3"/>
<rect y="210" width="2" height="2" fill="#C4C4C4" fill-opacity="0.3"/>
<rect x="15" y="210" width="2" height="2" fill="#C4C4C4" fill-opacity="0.3"/>
<rect x="30" y="210" width="2" height="2" fill="#C4C4C4" fill-opacity="0.3"/>
<rect x="45" y="210" width="2" height="2" fill="#C4C4C4" fill-opacity="0.3"/>
<rect x="60" y="210" width="2" height="2" fill="#C4C4C4" fill-opacity="0.3"/>
<rect x="75" y="210" width="2" height="2" fill="#C4C4C4" fill-opacity="0.3"/>
<rect x="90" y="210" width="2" height="2" fill="#C4C4C4" fill-opacity="0.3"/>
<rect x="105" y="210" width="2" height="2" fill="#C4C4C4" fill-opacity="0.3"/>
<rect x="120" y="210" width="2" height="2" fill="#C4C4C4" fill-opacity="0.3"/>
<rect x="135" y="210" width="2" height="2" fill="#C4C4C4" fill-opacity="0.3"/>
<rect x="150" y="210" width="2" height="2" fill="#C4C4C4" fill-opacity="0.3"/>
<rect x="165" y="210" width="2" height="2" fill="#C4C4C4" fill-opacity="0.3"/>
<rect x="180" y="210" width="2" height="2" fill="#C4C4C4" fill-opacity="0.3"/>
<rect x="195" y="210" width="2" height="2" fill="#C4C4C4" fill-opacity="0.3"/>
<rect x="210" y="210" width="2" height="2" fill="#C4C4C4" fill-opacity="0.3"/>
<rect x="225" y="210" width="2" height="2" fill="#C4C4C4" fill-opacity="0.3"/>
<rect x="240" y="210" width="2" height="2" fill="#C4C4C4" fill-opacity="0.3"/>
<rect x="255" y="210" width="2" height="2" fill="#C4C4C4" fill-opacity="0.3"/>
<rect x="270" y="210" width="2" height="2" fill="#C4C4C4" fill-opacity="0.3"/>
<rect x="285" y="210" width="2" height="2" fill="#C4C4C4" fill-opacity="0.3"/>
<rect x="300" y="210" width="2" height="2" fill="#C4C4C4" fill-opacity="0.3"/>
<rect x="315" y="210" width="2" height="2" fill="#C4C4C4" fill-opacity="0.3"/>
<rect y="225" width="2" height="2" fill="#C4C4C4" fill-opacity="0.3"/>
<rect x="15" y="225" width="2" height="2" fill="#C4C4C4" fill-opacity="0.3"/>
<rect x="30" y="225" width="2" height="2" fill="#C4C4C4" fill-opacity="0.3"/>
<rect x="45" y="225" width="2" height="2" fill="#C4C4C4" fill-opacity="0.3"/>
<rect x="60" y="225" width="2" height="2" fill="#C4C4C4" fill-opacity="0.3"/>
<rect x="75" y="225" width="2" height="2" fill="#C4C4C4" fill-opacity="0.3"/>
<rect x="90" y="225" width="2" height="2" fill="#C4C4C4" fill-opacity="0.3"/>
<rect x="105" y="225" width="2" height="2" fill="#C4C4C4" fill-opacity="0.3"/>
<rect x="120" y="225" width="2" height="2" fill="#C4C4C4" fill-opacity="0.3"/>
<rect x="135" y="225" width="2" height="2" fill="#C4C4C4" fill-opacity="0.3"/>
<rect x="150" y="225" width="2" height="2" fill="#C4C4C4" fill-opacity="0.3"/>
<rect x="165" y="225" width="2" height="2" fill="#C4C4C4" fill-opacity="0.3"/>
<rect x="180" y="225" width="2" height="2" fill="#C4C4C4" fill-opacity="0.3"/>
<rect x="195" y="225" width="2" height="2" fill="#C4C4C4" fill-opacity="0.3"/>
<rect x="210" y="225" width="2" height="2" fill="#C4C4C4" fill-opacity="0.3"/>
<rect x="225" y="225" width="2" height="2" fill="#C4C4C4" fill-opacity="0.3"/>
<rect x="240" y="225" width="2" height="2" fill="#C4C4C4" fill-opacity="0.3"/>
<rect x="255" y="225" width="2" height="2" fill="#C4C4C4" fill-opacity="0.3"/>
<rect x="270" y="225" width="2" height="2" fill="#C4C4C4" fill-opacity="0.3"/>
<rect x="285" y="225" width="2" height="2" fill="#C4C4C4" fill-opacity="0.3"/>
<rect x="300" y="225" width="2" height="2" fill="#C4C4C4" fill-opacity="0.3"/>
<rect x="315" y="225" width="2" height="2" fill="#C4C4C4" fill-opacity="0.3"/>
<rect y="240" width="2" height="2" fill="#C4C4C4" fill-opacity="0.3"/>
<rect x="15" y="240" width="2" height="2" fill="#C4C4C4" fill-opacity="0.3"/>
<rect x="30" y="240" width="2" height="2" fill="#C4C4C4" fill-opacity="0.3"/>
<rect x="45" y="240" width="2" height="2" fill="#C4C4C4" fill-opacity="0.3"/>
<rect x="60" y="240" width="2" height="2" fill="#C4C4C4" fill-opacity="0.3"/>
<rect x="75" y="240" width="2" height="2" fill="#C4C4C4" fill-opacity="0.3"/>
<rect x="90" y="240" width="2" height="2" fill="#C4C4C4" fill-opacity="0.3"/>
<rect x="105" y="240" width="2" height="2" fill="#C4C4C4" fill-opacity="0.3"/>
<rect x="120" y="240" width="2" height="2" fill="#C4C4C4" fill-opacity="0.3"/>
<rect x="135" y="240" width="2" height="2" fill="#C4C4C4" fill-opacity="0.3"/>
<rect x="150" y="240" width="2" height="2" fill="#C4C4C4" fill-opacity="0.3"/>
<rect x="165" y="240" width="2" height="2" fill="#C4C4C4" fill-opacity="0.3"/>
<rect x="180" y="240" width="2" height="2" fill="#C4C4C4" fill-opacity="0.3"/>
<rect x="195" y="240" width="2" height="2" fill="#C4C4C4" fill-opacity="0.3"/>
<rect x="210" y="240" width="2" height="2" fill="#C4C4C4" fill-opacity="0.3"/>
<rect x="225" y="240" width="2" height="2" fill="#C4C4C4" fill-opacity="0.3"/>
<rect x="240" y="240" width="2" height="2" fill="#C4C4C4" fill-opacity="0.3"/>
<rect x="255" y="240" width="2" height="2" fill="#C4C4C4" fill-opacity="0.3"/>
<rect x="270" y="240" width="2" height="2" fill="#C4C4C4" fill-opacity="0.3"/>
<rect x="285" y="240" width="2" height="2" fill="#C4C4C4" fill-opacity="0.3"/>
<rect x="300" y="240" width="2" height="2" fill="#C4C4C4" fill-opacity="0.3"/>
<rect x="315" y="240" width="2" height="2" fill="#C4C4C4" fill-opacity="0.3"/>
<rect y="255" width="2" height="2" fill="#C4C4C4" fill-opacity="0.3"/>
<rect x="15" y="255" width="2" height="2" fill="#C4C4C4" fill-opacity="0.3"/>
<rect x="30" y="255" width="2" height="2" fill="#C4C4C4" fill-opacity="0.3"/>
<rect x="45" y="255" width="2" height="2" fill="#C4C4C4" fill-opacity="0.3"/>
<rect x="60" y="255" width="2" height="2" fill="#C4C4C4" fill-opacity="0.3"/>
<rect x="75" y="255" width="2" height="2" fill="#C4C4C4" fill-opacity="0.3"/>
<rect x="90" y="255" width="2" height="2" fill="#C4C4C4" fill-opacity="0.3"/>
<rect x="105" y="255" width="2" height="2" fill="#C4C4C4" fill-opacity="0.3"/>
<rect x="120" y="255" width="2" height="2" fill="#C4C4C4" fill-opacity="0.3"/>
<rect x="135" y="255" width="2" height="2" fill="#C4C4C4" fill-opacity="0.3"/>
<rect x="150" y="255" width="2" height="2" fill="#C4C4C4" fill-opacity="0.3"/>
<rect x="165" y="255" width="2" height="2" fill="#C4C4C4" fill-opacity="0.3"/>
<rect x="180" y="255" width="2" height="2" fill="#C4C4C4" fill-opacity="0.3"/>
<rect x="195" y="255" width="2" height="2" fill="#C4C4C4" fill-opacity="0.3"/>
<rect x="210" y="255" width="2" height="2" fill="#C4C4C4" fill-opacity="0.3"/>
<rect x="225" y="255" width="2" height="2" fill="#C4C4C4" fill-opacity="0.3"/>
<rect x="240" y="255" width="2" height="2" fill="#C4C4C4" fill-opacity="0.3"/>
<rect x="255" y="255" width="2" height="2" fill="#C4C4C4" fill-opacity="0.3"/>
<rect x="270" y="255" width="2" height="2" fill="#C4C4C4" fill-opacity="0.3"/>
<rect x="285" y="255" width="2" height="2" fill="#C4C4C4" fill-opacity="0.3"/>
<rect x="300" y="255" width="2" height="2" fill="#C4C4C4" fill-opacity="0.3"/>
<rect x="315" y="255" width="2" height="2" fill="#C4C4C4" fill-opacity="0.3"/>
<rect y="270" width="2" height="2" fill="#C4C4C4" fill-opacity="0.3"/>
<rect x="15" y="270" width="2" height="2" fill="#C4C4C4" fill-opacity="0.3"/>
<rect x="30" y="270" width="2" height="2" fill="#C4C4C4" fill-opacity="0.3"/>
<rect x="45" y="270" width="2" height="2" fill="#C4C4C4" fill-opacity="0.3"/>
<rect x="60" y="270" width="2" height="2" fill="#C4C4C4" fill-opacity="0.3"/>
<rect x="75" y="270" width="2" height="2" fill="#C4C4C4" fill-opacity="0.3"/>
<rect x="90" y="270" width="2" height="2" fill="#C4C4C4" fill-opacity="0.3"/>
<rect x="105" y="270" width="2" height="2" fill="#C4C4C4" fill-opacity="0.3"/>
<rect x="120" y="270" width="2" height="2" fill="#C4C4C4" fill-opacity="0.3"/>
<rect x="135" y="270" width="2" height="2" fill="#C4C4C4" fill-opacity="0.3"/>
<rect x="150" y="270" width="2" height="2" fill="#C4C4C4" fill-opacity="0.3"/>
<rect x="165" y="270" width="2" height="2" fill="#C4C4C4" fill-opacity="0.3"/>
<rect x="180" y="270" width="2" height="2" fill="#C4C4C4" fill-opacity="0.3"/>
<rect x="195" y="270" width="2" height="2" fill="#C4C4C4" fill-opacity="0.3"/>
<rect x="210" y="270" width="2" height="2" fill="#C4C4C4" fill-opacity="0.3"/>
<rect x="225" y="270" width="2" height="2" fill="#C4C4C4" fill-opacity="0.3"/>
<rect x="240" y="270" width="2" height="2" fill="#C4C4C4" fill-opacity="0.3"/>
<rect x="255" y="270" width="2" height="2" fill="#C4C4C4" fill-opacity="0.3"/>
<rect x="270" y="270" width="2" height="2" fill="#C4C4C4" fill-opacity="0.3"/>
<rect x="285" y="270" width="2" height="2" fill="#C4C4C4" fill-opacity="0.3"/>
<rect x="300" y="270" width="2" height="2" fill="#C4C4C4" fill-opacity="0.3"/>
<rect x="315" y="270" width="2" height="2" fill="#C4C4C4" fill-opacity="0.3"/>
<rect y="285" width="2" height="2" fill="#C4C4C4" fill-opacity="0.3"/>
<rect x="15" y="285" width="2" height="2" fill="#C4C4C4" fill-opacity="0.3"/>
<rect x="30" y="285" width="2" height="2" fill="#C4C4C4" fill-opacity="0.3"/>
<rect x="45" y="285" width="2" height="2" fill="#C4C4C4" fill-opacity="0.3"/>
<rect x="60" y="285" width="2" height="2" fill="#C4C4C4" fill-opacity="0.3"/>
<rect x="75" y="285" width="2" height="2" fill="#C4C4C4" fill-opacity="0.3"/>
<rect x="90" y="285" width="2" height="2" fill="#C4C4C4" fill-opacity="0.3"/>
<rect x="105" y="285" width="2" height="2" fill="#C4C4C4" fill-opacity="0.3"/>
<rect x="120" y="285" width="2" height="2" fill="#C4C4C4" fill-opacity="0.3"/>
<rect x="135" y="285" width="2" height="2" fill="#C4C4C4" fill-opacity="0.3"/>
<rect x="150" y="285" width="2" height="2" fill="#C4C4C4" fill-opacity="0.3"/>
<rect x="165" y="285" width="2" height="2" fill="#C4C4C4" fill-opacity="0.3"/>
<rect x="180" y="285" width="2" height="2" fill="#C4C4C4" fill-opacity="0.3"/>
<rect x="195" y="285" width="2" height="2" fill="#C4C4C4" fill-opacity="0.3"/>
<rect x="210" y="285" width="2" height="2" fill="#C4C4C4" fill-opacity="0.3"/>
<rect x="225" y="285" width="2" height="2" fill="#C4C4C4" fill-opacity="0.3"/>
<rect x="240" y="285" width="2" height="2" fill="#C4C4C4" fill-opacity="0.3"/>
<rect x="255" y="285" width="2" height="2" fill="#C4C4C4" fill-opacity="0.3"/>
<rect x="270" y="285" width="2" height="2" fill="#C4C4C4" fill-opacity="0.3"/>
<rect x="285" y="285" width="2" height="2" fill="#C4C4C4" fill-opacity="0.3"/>
<rect x="300" y="285" width="2" height="2" fill="#C4C4C4" fill-opacity="0.3"/>
<rect x="315" y="285" width="2" height="2" fill="#C4C4C4" fill-opacity="0.3"/>
<rect y="300" width="2" height="2" fill="#C4C4C4" fill-opacity="0.3"/>
<rect x="15" y="300" width="2" height="2" fill="#C4C4C4" fill-opacity="0.3"/>
<rect x="30" y="300" width="2" height="2" fill="#C4C4C4" fill-opacity="0.3"/>
<rect x="45" y="300" width="2" height="2" fill="#C4C4C4" fill-opacity="0.3"/>
<rect x="60" y="300" width="2" height="2" fill="#C4C4C4" fill-opacity="0.3"/>
<rect x="75" y="300" width="2" height="2" fill="#C4C4C4" fill-opacity="0.3"/>
<rect x="90" y="300" width="2" height="2" fill="#C4C4C4" fill-opacity="0.3"/>
<rect x="105" y="300" width="2" height="2" fill="#C4C4C4" fill-opacity="0.3"/>
<rect x="120" y="300" width="2" height="2" fill="#C4C4C4" fill-opacity="0.3"/>
<rect x="135" y="300" width="2" height="2" fill="#C4C4C4" fill-opacity="0.3"/>
<rect x="150" y="300" width="2" height="2" fill="#C4C4C4" fill-opacity="0.3"/>
<rect x="165" y="300" width="2" height="2" fill="#C4C4C4" fill-opacity="0.3"/>
<rect x="180" y="300" width="2" height="2" fill="#C4C4C4" fill-opacity="0.3"/>
<rect x="195" y="300" width="2" height="2" fill="#C4C4C4" fill-opacity="0.3"/>
<rect x="210" y="300" width="2" height="2" fill="#C4C4C4" fill-opacity="0.3"/>
<rect x="225" y="300" width="2" height="2" fill="#C4C4C4" fill-opacity="0.3"/>
<rect x="240" y="300" width="2" height="2" fill="#C4C4C4" fill-opacity="0.3"/>
<rect x="255" y="300" width="2" height="2" fill="#C4C4C4" fill-opacity="0.3"/>
<rect x="270" y="300" width="2" height="2" fill="#C4C4C4" fill-opacity="0.3"/>
<rect x="285" y="300" width="2" height="2" fill="#C4C4C4" fill-opacity="0.3"/>
<rect x="300" y="300" width="2" height="2" fill="#C4C4C4" fill-opacity="0.3"/>
<rect x="315" y="300" width="2" height="2" fill="#C4C4C4" fill-opacity="0.3"/>
<rect y="315" width="2" height="2" fill="#C4C4C4" fill-opacity="0.3"/>
<rect x="15" y="315" width="2" height="2" fill="#C4C4C4" fill-opacity="0.3"/>
<rect x="30" y="315" width="2" height="2" fill="#C4C4C4" fill-opacity="0.3"/>
<rect x="45" y="315" width="2" height="2" fill="#C4C4C4" fill-opacity="0.3"/>
<rect x="60" y="315" width="2" height="2" fill="#C4C4C4" fill-opacity="0.3"/>
<rect x="75" y="315" width="2" height="2" fill="#C4C4C4" fill-opacity="0.3"/>
<rect x="90" y="315" width="2" height="2" fill="#C4C4C4" fill-opacity="0.3"/>
<rect x="105" y="315" width="2" height="2" fill="#C4C4C4" fill-opacity="0.3"/>
<rect x="120" y="315" width="2" height="2" fill="#C4C4C4" fill-opacity="0.3"/>
<rect x="135" y="315" width="2" height="2" fill="#C4C4C4" fill-opacity="0.3"/>
<rect x="150" y="315" width="2" height="2" fill="#C4C4C4" fill-opacity="0.3"/>
<rect x="165" y="315" width="2" height="2" fill="#C4C4C4" fill-opacity="0.3"/>
<rect x="180" y="315" width="2" height="2" fill="#C4C4C4" fill-opacity="0.3"/>
<rect x="195" y="315" width="2" height="2" fill="#C4C4C4" fill-opacity="0.3"/>
<rect x="210" y="315" width="2" height="2" fill="#C4C4C4" fill-opacity="0.3"/>
<rect x="225" y="315" width="2" height="2" fill="#C4C4C4" fill-opacity="0.3"/>
<rect x="240" y="315" width="2" height="2" fill="#C4C4C4" fill-opacity="0.3"/>
<rect x="255" y="315" width="2" height="2" fill="#C4C4C4" fill-opacity="0.3"/>
<rect x="270" y="315" width="2" height="2" fill="#C4C4C4" fill-opacity="0.3"/>
<rect x="285" y="315" width="2" height="2" fill="#C4C4C4" fill-opacity="0.3"/>
<rect x="300" y="315" width="2" height="2" fill="#C4C4C4" fill-opacity="0.3"/>
<rect x="315" y="315" width="2" height="2" fill="#C4C4C4" fill-opacity="0.3"/>
<rect y="330" width="2" height="2" fill="#C4C4C4" fill-opacity="0.3"/>
<rect x="15" y="330" width="2" height="2" fill="#C4C4C4" fill-opacity="0.3"/>
<rect x="30" y="330" width="2" height="2" fill="#C4C4C4" fill-opacity="0.3"/>
<rect x="45" y="330" width="2" height="2" fill="#C4C4C4" fill-opacity="0.3"/>
<rect x="60" y="330" width="2" height="2" fill="#C4C4C4" fill-opacity="0.3"/>
<rect x="75" y="330" width="2" height="2" fill="#C4C4C4" fill-opacity="0.3"/>
<rect x="90" y="330" width="2" height="2" fill="#C4C4C4" fill-opacity="0.3"/>
<rect x="105" y="330" width="2" height="2" fill="#C4C4C4" fill-opacity="0.3"/>
<rect x="120" y="330" width="2" height="2" fill="#C4C4C4" fill-opacity="0.3"/>
<rect x="135" y="330" width="2" height="2" fill="#C4C4C4" fill-opacity="0.3"/>
<rect x="150" y="330" width="2" height="2" fill="#C4C4C4" fill-opacity="0.3"/>
<rect x="165" y="330" width="2" height="2" fill="#C4C4C4" fill-opacity="0.3"/>
<rect x="180" y="330" width="2" height="2" fill="#C4C4C4" fill-opacity="0.3"/>
<rect x="195" y="330" width="2" height="2" fill="#C4C4C4" fill-opacity="0.3"/>
<rect x="210" y="330" width="2" height="2" fill="#C4C4C4" fill-opacity="0.3"/>
<rect x="225" y="330" width="2" height="2" fill="#C4C4C4" fill-opacity="0.3"/>
<rect x="240" y="330" width="2" height="2" fill="#C4C4C4" fill-opacity="0.3"/>
<rect x="255" y="330" width="2" height="2" fill="#C4C4C4" fill-opacity="0.3"/>
<rect x="270" y="330" width="2" height="2" fill="#C4C4C4" fill-opacity="0.3"/>
<rect x="285" y="330" width="2" height="2" fill="#C4C4C4" fill-opacity="0.3"/>
<rect x="300" y="330" width="2" height="2" fill="#C4C4C4" fill-opacity="0.3"/>
<rect x="315" y="330" width="2" height="2" fill="#C4C4C4" fill-opacity="0.3"/>
<rect y="345" width="2" height="2" fill="#C4C4C4" fill-opacity="0.3"/>
<rect x="15" y="345" width="2" height="2" fill="#C4C4C4" fill-opacity="0.3"/>
<rect x="30" y="345" width="2" height="2" fill="#C4C4C4" fill-opacity="0.3"/>
<rect x="45" y="345" width="2" height="2" fill="#C4C4C4" fill-opacity="0.3"/>
<rect x="60" y="345" width="2" height="2" fill="#C4C4C4" fill-opacity="0.3"/>
<rect x="75" y="345" width="2" height="2" fill="#C4C4C4" fill-opacity="0.3"/>
<rect x="90" y="345" width="2" height="2" fill="#C4C4C4" fill-opacity="0.3"/>
<rect x="105" y="345" width="2" height="2" fill="#C4C4C4" fill-opacity="0.3"/>
<rect x="120" y="345" width="2" height="2" fill="#C4C4C4" fill-opacity="0.3"/>
<rect x="135" y="345" width="2" height="2" fill="#C4C4C4" fill-opacity="0.3"/>
<rect x="150" y="345" width="2" height="2" fill="#C4C4C4" fill-opacity="0.3"/>
<rect x="165" y="345" width="2" height="2" fill="#C4C4C4" fill-opacity="0.3"/>
<rect x="180" y="345" width="2" height="2" fill="#C4C4C4" fill-opacity="0.3"/>
<rect x="195" y="345" width="2" height="2" fill="#C4C4C4" fill-opacity="0.3"/>
<rect x="210" y="345" width="2" height="2" fill="#C4C4C4" fill-opacity="0.3"/>
<rect x="225" y="345" width="2" height="2" fill="#C4C4C4" fill-opacity="0.3"/>
<rect x="240" y="345" width="2" height="2" fill="#C4C4C4" fill-opacity="0.3"/>
<rect x="255" y="345" width="2" height="2" fill="#C4C4C4" fill-opacity="0.3"/>
<rect x="270" y="345" width="2" height="2" fill="#C4C4C4" fill-opacity="0.3"/>
<rect x="285" y="345" width="2" height="2" fill="#C4C4C4" fill-opacity="0.3"/>
<rect x="300" y="345" width="2" height="2" fill="#C4C4C4" fill-opacity="0.3"/>
<rect x="315" y="345" width="2" height="2" fill="#C4C4C4" fill-opacity="0.3"/>
<rect y="360" width="2" height="2" fill="#C4C4C4" fill-opacity="0.3"/>
<rect x="15" y="360" width="2" height="2" fill="#C4C4C4" fill-opacity="0.3"/>
<rect x="30" y="360" width="2" height="2" fill="#C4C4C4" fill-opacity="0.3"/>
<rect x="45" y="360" width="2" height="2" fill="#C4C4C4" fill-opacity="0.3"/>
<rect x="60" y="360" width="2" height="2" fill="#C4C4C4" fill-opacity="0.3"/>
<rect x="75" y="360" width="2" height="2" fill="#C4C4C4" fill-opacity="0.3"/>
<rect x="90" y="360" width="2" height="2" fill="#C4C4C4" fill-opacity="0.3"/>
<rect x="105" y="360" width="2" height="2" fill="#C4C4C4" fill-opacity="0.3"/>
<rect x="120" y="360" width="2" height="2" fill="#C4C4C4" fill-opacity="0.3"/>
<rect x="135" y="360" width="2" height="2" fill="#C4C4C4" fill-opacity="0.3"/>
<rect x="150" y="360" width="2" height="2" fill="#C4C4C4" fill-opacity="0.3"/>
<rect x="165" y="360" width="2" height="2" fill="#C4C4C4" fill-opacity="0.3"/>
<rect x="180" y="360" width="2" height="2" fill="#C4C4C4" fill-opacity="0.3"/>
<rect x="195" y="360" width="2" height="2" fill="#C4C4C4" fill-opacity="0.3"/>
<rect x="210" y="360" width="2" height="2" fill="#C4C4C4" fill-opacity="0.3"/>
<rect x="225" y="360" width="2" height="2" fill="#C4C4C4" fill-opacity="0.3"/>
<rect x="240" y="360" width="2" height="2" fill="#C4C4C4" fill-opacity="0.3"/>
<rect x="255" y="360" width="2" height="2" fill="#C4C4C4" fill-opacity="0.3"/>
<rect x="270" y="360" width="2" height="2" fill="#C4C4C4" fill-opacity="0.3"/>
<rect x="285" y="360" width="2" height="2" fill="#C4C4C4" fill-opacity="0.3"/>
<rect x="300" y="360" width="2" height="2" fill="#C4C4C4" fill-opacity="0.3"/>
<rect x="315" y="360" width="2" height="2" fill="#C4C4C4" fill-opacity="0.3"/>
<rect y="375" width="2" height="2" fill="#C4C4C4" fill-opacity="0.3"/>
<rect x="15" y="375" width="2" height="2" fill="#C4C4C4" fill-opacity="0.3"/>
<rect x="30" y="375" width="2" height="2" fill="#C4C4C4" fill-opacity="0.3"/>
<rect x="45" y="375" width="2" height="2" fill="#C4C4C4" fill-opacity="0.3"/>
<rect x="60" y="375" width="2" height="2" fill="#C4C4C4" fill-opacity="0.3"/>
<rect x="75" y="375" width="2" height="2" fill="#C4C4C4" fill-opacity="0.3"/>
<rect x="90" y="375" width="2" height="2" fill="#C4C4C4" fill-opacity="0.3"/>
<rect x="105" y="375" width="2" height="2" fill="#C4C4C4" fill-opacity="0.3"/>
<rect x="120" y="375" width="2" height="2" fill="#C4C4C4" fill-opacity="0.3"/>
<rect x="135" y="375" width="2" height="2" fill="#C4C4C4" fill-opacity="0.3"/>
<rect x="150" y="375" width="2" height="2" fill="#C4C4C4" fill-opacity="0.3"/>
<rect x="165" y="375" width="2" height="2" fill="#C4C4C4" fill-opacity="0.3"/>
<rect x="180" y="375" width="2" height="2" fill="#C4C4C4" fill-opacity="0.3"/>
<rect x="195" y="375" width="2" height="2" fill="#C4C4C4" fill-opacity="0.3"/>
<rect x="210" y="375" width="2" height="2" fill="#C4C4C4" fill-opacity="0.3"/>
<rect x="225" y="375" width="2" height="2" fill="#C4C4C4" fill-opacity="0.3"/>
<rect x="240" y="375" width="2" height="2" fill="#C4C4C4" fill-opacity="0.3"/>
<rect x="255" y="375" width="2" height="2" fill="#C4C4C4" fill-opacity="0.3"/>
<rect x="270" y="375" width="2" height="2" fill="#C4C4C4" fill-opacity="0.3"/>
<rect x="285" y="375" width="2" height="2" fill="#C4C4C4" fill-opacity="0.3"/>
<rect x="300" y="375" width="2" height="2" fill="#C4C4C4" fill-opacity="0.3"/>
<rect x="315" y="375" width="2" height="2" fill="#C4C4C4" fill-opacity="0.3"/>
<rect y="390" width="2" height="2" fill="#C4C4C4" fill-opacity="0.3"/>
<rect x="15" y="390" width="2" height="2" fill="#C4C4C4" fill-opacity="0.3"/>
<rect x="30" y="390" width="2" height="2" fill="#C4C4C4" fill-opacity="0.3"/>
<rect x="45" y="390" width="2" height="2" fill="#C4C4C4" fill-opacity="0.3"/>
<rect x="60" y="390" width="2" height="2" fill="#C4C4C4" fill-opacity="0.3"/>
<rect x="75" y="390" width="2" height="2" fill="#C4C4C4" fill-opacity="0.3"/>
<rect x="90" y="390" width="2" height="2" fill="#C4C4C4" fill-opacity="0.3"/>
<rect x="105" y="390" width="2" height="2" fill="#C4C4C4" fill-opacity="0.3"/>
<rect x="120" y="390" width="2" height="2" fill="#C4C4C4" fill-opacity="0.3"/>
<rect x="135" y="390" width="2" height="2" fill="#C4C4C4" fill-opacity="0.3"/>
<rect x="150" y="390" width="2" height="2" fill="#C4C4C4" fill-opacity="0.3"/>
<rect x="165" y="390" width="2" height="2" fill="#C4C4C4" fill-opacity="0.3"/>
<rect x="180" y="390" width="2" height="2" fill="#C4C4C4" fill-opacity="0.3"/>
<rect x="195" y="390" width="2" height="2" fill="#C4C4C4" fill-opacity="0.3"/>
<rect x="210" y="390" width="2" height="2" fill="#C4C4C4" fill-opacity="0.3"/>
<rect x="225" y="390" width="2" height="2" fill="#C4C4C4" fill-opacity="0.3"/>
<rect x="240" y="390" width="2" height="2" fill="#C4C4C4" fill-opacity="0.3"/>
<rect x="255" y="390" width="2" height="2" fill="#C4C4C4" fill-opacity="0.3"/>
<rect x="270" y="390" width="2" height="2" fill="#C4C4C4" fill-opacity="0.3"/>
<rect x="285" y="390" width="2" height="2" fill="#C4C4C4" fill-opacity="0.3"/>
<rect x="300" y="390" width="2" height="2" fill="#C4C4C4" fill-opacity="0.3"/>
<rect x="315" y="390" width="2" height="2" fill="#C4C4C4" fill-opacity="0.3"/>
<rect x="15" y="405" width="2" height="2" fill="#C4C4C4" fill-opacity="0.3"/>
<rect x="30" y="405" width="2" height="2" fill="#C4C4C4" fill-opacity="0.3"/>
<rect x="45" y="405" width="2" height="2" fill="#C4C4C4" fill-opacity="0.3"/>
<rect x="60" y="405" width="2" height="2" fill="#C4C4C4" fill-opacity="0.3"/>
<rect x="75" y="405" width="2" height="2" fill="#C4C4C4" fill-opacity="0.3"/>
<rect x="90" y="405" width="2" height="2" fill="#C4C4C4" fill-opacity="0.3"/>
<rect x="105" y="405" width="2" height="2" fill="#C4C4C4" fill-opacity="0.3"/>
<rect x="120" y="405" width="2" height="2" fill="#C4C4C4" fill-opacity="0.3"/>
<rect x="135" y="405" width="2" height="2" fill="#C4C4C4" fill-opacity="0.3"/>
<rect x="150" y="405" width="2" height="2" fill="#C4C4C4" fill-opacity="0.3"/>
<rect x="165" y="405" width="2" height="2" fill="#C4C4C4" fill-opacity="0.3"/>
<rect x="180" y="405" width="2" height="2" fill="#C4C4C4" fill-opacity="0.3"/>
<rect x="195" y="405" width="2" height="2" fill="#C4C4C4" fill-opacity="0.3"/>
<rect x="210" y="405" width="2" height="2" fill="#C4C4C4" fill-opacity="0.3"/>
<rect x="225" y="405" width="2" height="2" fill="#C4C4C4" fill-opacity="0.3"/>
<rect x="240" y="405" width="2" height="2" fill="#C4C4C4" fill-opacity="0.3"/>
<rect x="255" y="405" width="2" height="2" fill="#C4C4C4" fill-opacity="0.3"/>
<rect x="270" y="405" width="2" height="2" fill="#C4C4C4" fill-opacity="0.3"/>
<rect x="285" y="405" width="2" height="2" fill="#C4C4C4" fill-opacity="0.3"/>
<rect x="300" y="405" width="2" height="2" fill="#C4C4C4" fill-opacity="0.3"/>
</svg>
