<svg width="248" height="319" fill="none" xmlns="http://www.w3.org/2000/svg"><path fill="#C4C4C4" fill-opacity=".3" d="M11.928.372h1.562v1.562h-1.562zM23.644.372h1.562v1.562h-1.562zM35.359.372h1.562v1.562h-1.562zM47.075.372h1.562v1.562h-1.562zM58.791.372h1.562v1.562h-1.562zM70.506.372h1.562v1.562h-1.562zM82.222.372h1.562v1.562h-1.562zM93.938.372H95.5v1.562h-1.562zM105.653.372h1.562v1.562h-1.562zM117.369.372h1.562v1.562h-1.562zM129.084.372h1.562v1.562h-1.562zM140.8.372h1.562v1.562H140.8zM152.516.372h1.562v1.562h-1.562zM164.231.372h1.562v1.562h-1.562zM175.947.372h1.562v1.562h-1.562zM187.663.372h1.562v1.562h-1.562zM199.378.372h1.562v1.562h-1.562zM211.094.372h1.562v1.562h-1.562zM222.81.372h1.562v1.562h-1.562zM234.525.372h1.562v1.562h-1.562zM.212 12.088h1.562v1.562H.212zM11.928 12.088h1.562v1.562h-1.562zM23.644 12.088h1.562v1.562h-1.562zM35.359 12.088h1.562v1.562h-1.562zM47.075 12.088h1.562v1.562h-1.562zM58.791 12.088h1.562v1.562h-1.562zM70.506 12.088h1.562v1.562h-1.562zM82.222 12.088h1.562v1.562h-1.562zM93.938 12.088H95.5v1.562h-1.562zM105.653 12.088h1.562v1.562h-1.562zM117.369 12.088h1.562v1.562h-1.562zM129.084 12.088h1.562v1.562h-1.562zM140.8 12.088h1.562v1.562H140.8zM152.516 12.088h1.562v1.562h-1.562zM164.231 12.088h1.562v1.562h-1.562zM175.947 12.088h1.562v1.562h-1.562zM187.663 12.088h1.562v1.562h-1.562zM199.378 12.088h1.562v1.562h-1.562zM211.094 12.088h1.562v1.562h-1.562zM222.81 12.088h1.562v1.562h-1.562zM234.525 12.088h1.562v1.562h-1.562zM246.241 12.088h1.562v1.562h-1.562zM.212 23.804h1.562v1.562H.212zM11.928 23.804h1.562v1.562h-1.562zM23.644 23.804h1.562v1.562h-1.562zM35.359 23.804h1.562v1.562h-1.562zM47.075 23.804h1.562v1.562h-1.562zM58.791 23.804h1.562v1.562h-1.562zM70.506 23.804h1.562v1.562h-1.562zM82.222 23.804h1.562v1.562h-1.562zM93.938 23.804H95.5v1.562h-1.562zM105.653 23.804h1.562v1.562h-1.562zM117.369 23.804h1.562v1.562h-1.562zM129.084 23.804h1.562v1.562h-1.562zM140.8 23.804h1.562v1.562H140.8zM152.516 23.804h1.562v1.562h-1.562zM164.231 23.804h1.562v1.562h-1.562zM175.947 23.804h1.562v1.562h-1.562zM187.663 23.804h1.562v1.562h-1.562zM199.378 23.804h1.562v1.562h-1.562zM211.094 23.804h1.562v1.562h-1.562zM222.81 23.804h1.562v1.562h-1.562zM234.525 23.804h1.562v1.562h-1.562zM246.241 23.804h1.562v1.562h-1.562zM.212 35.52h1.562v1.562H.212zM11.928 35.52h1.562v1.562h-1.562zM23.644 35.52h1.562v1.562h-1.562zM35.359 35.52h1.562v1.562h-1.562zM47.075 35.52h1.562v1.562h-1.562zM58.791 35.52h1.562v1.562h-1.562zM70.506 35.52h1.562v1.562h-1.562zM82.222 35.52h1.562v1.562h-1.562zM93.938 35.52H95.5v1.562h-1.562zM105.653 35.52h1.562v1.562h-1.562zM117.369 35.52h1.562v1.562h-1.562zM129.084 35.52h1.562v1.562h-1.562zM140.8 35.52h1.562v1.562H140.8zM152.516 35.52h1.562v1.562h-1.562zM164.231 35.52h1.562v1.562h-1.562zM175.947 35.52h1.562v1.562h-1.562zM187.663 35.52h1.562v1.562h-1.562zM199.378 35.52h1.562v1.562h-1.562zM211.094 35.52h1.562v1.562h-1.562zM222.81 35.52h1.562v1.562h-1.562zM234.525 35.52h1.562v1.562h-1.562zM246.241 35.52h1.562v1.562h-1.562zM.212 47.235h1.562v1.562H.212zM11.928 47.235h1.562v1.562h-1.562zM23.644 47.235h1.562v1.562h-1.562zM35.359 47.235h1.562v1.562h-1.562zM47.075 47.235h1.562v1.562h-1.562zM58.791 47.235h1.562v1.562h-1.562zM70.506 47.235h1.562v1.562h-1.562zM82.222 47.235h1.562v1.562h-1.562zM93.938 47.235H95.5v1.562h-1.562zM105.653 47.235h1.562v1.562h-1.562zM117.369 47.235h1.562v1.562h-1.562zM129.084 47.235h1.562v1.562h-1.562zM140.8 47.235h1.562v1.562H140.8zM152.516 47.235h1.562v1.562h-1.562zM164.231 47.235h1.562v1.562h-1.562zM175.947 47.235h1.562v1.562h-1.562zM187.663 47.235h1.562v1.562h-1.562zM199.378 47.235h1.562v1.562h-1.562zM211.094 47.235h1.562v1.562h-1.562zM222.81 47.235h1.562v1.562h-1.562zM234.525 47.235h1.562v1.562h-1.562zM246.241 47.235h1.562v1.562h-1.562zM.212 58.951h1.562v1.562H.212zM11.928 58.951h1.562v1.562h-1.562zM23.644 58.951h1.562v1.562h-1.562zM35.359 58.951h1.562v1.562h-1.562zM47.075 58.951h1.562v1.562h-1.562zM58.791 58.951h1.562v1.562h-1.562zM70.506 58.951h1.562v1.562h-1.562zM82.222 58.951h1.562v1.562h-1.562zM93.938 58.951H95.5v1.562h-1.562zM105.653 58.951h1.562v1.562h-1.562zM117.369 58.951h1.562v1.562h-1.562zM129.084 58.951h1.562v1.562h-1.562zM140.8 58.951h1.562v1.562H140.8zM152.516 58.951h1.562v1.562h-1.562zM164.231 58.951h1.562v1.562h-1.562zM175.947 58.951h1.562v1.562h-1.562zM187.663 58.951h1.562v1.562h-1.562zM199.378 58.951h1.562v1.562h-1.562zM211.094 58.951h1.562v1.562h-1.562zM222.81 58.951h1.562v1.562h-1.562zM234.525 58.951h1.562v1.562h-1.562zM246.241 58.951h1.562v1.562h-1.562zM.212 70.666h1.562v1.562H.212zM11.928 70.666h1.562v1.562h-1.562zM23.644 70.666h1.562v1.562h-1.562zM35.359 70.666h1.562v1.562h-1.562zM47.075 70.666h1.562v1.562h-1.562zM58.791 70.666h1.562v1.562h-1.562zM70.506 70.666h1.562v1.562h-1.562zM82.222 70.666h1.562v1.562h-1.562zM93.938 70.666H95.5v1.562h-1.562zM105.653 70.666h1.562v1.562h-1.562zM117.369 70.666h1.562v1.562h-1.562zM129.084 70.666h1.562v1.562h-1.562zM140.8 70.666h1.562v1.562H140.8zM152.516 70.666h1.562v1.562h-1.562zM164.231 70.666h1.562v1.562h-1.562zM175.947 70.666h1.562v1.562h-1.562zM187.663 70.666h1.562v1.562h-1.562zM199.378 70.666h1.562v1.562h-1.562zM211.094 70.666h1.562v1.562h-1.562zM222.81 70.666h1.562v1.562h-1.562zM234.525 70.666h1.562v1.562h-1.562zM246.241 70.666h1.562v1.562h-1.562zM.212 82.382h1.562v1.562H.212zM11.928 82.382h1.562v1.562h-1.562zM23.644 82.382h1.562v1.562h-1.562zM35.359 82.382h1.562v1.562h-1.562zM47.075 82.382h1.562v1.562h-1.562zM58.791 82.382h1.562v1.562h-1.562zM70.506 82.382h1.562v1.562h-1.562zM82.222 82.382h1.562v1.562h-1.562zM93.938 82.382H95.5v1.562h-1.562zM105.653 82.382h1.562v1.562h-1.562zM117.369 82.382h1.562v1.562h-1.562zM129.084 82.382h1.562v1.562h-1.562zM140.8 82.382h1.562v1.562H140.8zM152.516 82.382h1.562v1.562h-1.562zM164.231 82.382h1.562v1.562h-1.562zM175.947 82.382h1.562v1.562h-1.562zM187.663 82.382h1.562v1.562h-1.562zM199.378 82.382h1.562v1.562h-1.562zM211.094 82.382h1.562v1.562h-1.562zM222.81 82.382h1.562v1.562h-1.562zM234.525 82.382h1.562v1.562h-1.562zM246.241 82.382h1.562v1.562h-1.562zM.212 94.098h1.562v1.562H.212zM11.928 94.098h1.562v1.562h-1.562zM23.644 94.098h1.562v1.562h-1.562zM35.359 94.098h1.562v1.562h-1.562zM47.075 94.098h1.562v1.562h-1.562zM58.791 94.098h1.562v1.562h-1.562zM70.506 94.098h1.562v1.562h-1.562zM82.222 94.098h1.562v1.562h-1.562zM93.938 94.098H95.5v1.562h-1.562zM105.653 94.098h1.562v1.562h-1.562zM117.369 94.098h1.562v1.562h-1.562zM129.084 94.098h1.562v1.562h-1.562zM140.8 94.098h1.562v1.562H140.8zM152.516 94.098h1.562v1.562h-1.562zM164.231 94.098h1.562v1.562h-1.562zM175.947 94.098h1.562v1.562h-1.562zM187.663 94.098h1.562v1.562h-1.562zM199.378 94.098h1.562v1.562h-1.562zM211.094 94.098h1.562v1.562h-1.562zM222.81 94.098h1.562v1.562h-1.562zM234.525 94.098h1.562v1.562h-1.562zM246.241 94.098h1.562v1.562h-1.562zM.212 105.813h1.562v1.562H.212zM11.928 105.813h1.562v1.562h-1.562zM23.644 105.813h1.562v1.562h-1.562zM35.359 105.813h1.562v1.562h-1.562zM47.075 105.813h1.562v1.562h-1.562zM58.791 105.813h1.562v1.562h-1.562zM70.506 105.813h1.562v1.562h-1.562zM82.222 105.813h1.562v1.562h-1.562zM93.938 105.813H95.5v1.562h-1.562zM105.653 105.813h1.562v1.562h-1.562zM117.369 105.813h1.562v1.562h-1.562zM129.084 105.813h1.562v1.562h-1.562zM140.8 105.813h1.562v1.562H140.8zM152.516 105.813h1.562v1.562h-1.562zM164.231 105.813h1.562v1.562h-1.562zM175.947 105.813h1.562v1.562h-1.562zM187.663 105.813h1.562v1.562h-1.562zM199.378 105.813h1.562v1.562h-1.562zM211.094 105.813h1.562v1.562h-1.562zM222.81 105.813h1.562v1.562h-1.562zM234.525 105.813h1.562v1.562h-1.562zM246.241 105.813h1.562v1.562h-1.562zM.212 117.529h1.562v1.562H.212zM11.928 117.529h1.562v1.562h-1.562zM23.644 117.529h1.562v1.562h-1.562zM35.359 117.529h1.562v1.562h-1.562zM47.075 117.529h1.562v1.562h-1.562zM58.791 117.529h1.562v1.562h-1.562zM70.506 117.529h1.562v1.562h-1.562zM82.222 117.529h1.562v1.562h-1.562zM93.938 117.529H95.5v1.562h-1.562zM105.653 117.529h1.562v1.562h-1.562zM117.369 117.529h1.562v1.562h-1.562zM129.084 117.529h1.562v1.562h-1.562zM140.8 117.529h1.562v1.562H140.8zM152.516 117.529h1.562v1.562h-1.562zM164.231 117.529h1.562v1.562h-1.562zM175.947 117.529h1.562v1.562h-1.562zM187.663 117.529h1.562v1.562h-1.562zM199.378 117.529h1.562v1.562h-1.562zM211.094 117.529h1.562v1.562h-1.562zM222.81 117.529h1.562v1.562h-1.562zM234.525 117.529h1.562v1.562h-1.562zM246.241 117.529h1.562v1.562h-1.562zM.212 129.245h1.562v1.562H.212zM11.928 129.245h1.562v1.562h-1.562zM23.644 129.245h1.562v1.562h-1.562zM35.359 129.245h1.562v1.562h-1.562zM47.075 129.245h1.562v1.562h-1.562zM58.791 129.245h1.562v1.562h-1.562zM70.506 129.245h1.562v1.562h-1.562zM82.222 129.245h1.562v1.562h-1.562zM93.938 129.245H95.5v1.562h-1.562zM105.653 129.245h1.562v1.562h-1.562zM117.369 129.245h1.562v1.562h-1.562zM129.084 129.245h1.562v1.562h-1.562zM140.8 129.245h1.562v1.562H140.8zM152.516 129.245h1.562v1.562h-1.562zM164.231 129.245h1.562v1.562h-1.562zM175.947 129.245h1.562v1.562h-1.562zM187.663 129.245h1.562v1.562h-1.562zM199.378 129.245h1.562v1.562h-1.562zM211.094 129.245h1.562v1.562h-1.562zM222.81 129.245h1.562v1.562h-1.562zM234.525 129.245h1.562v1.562h-1.562zM246.241 129.245h1.562v1.562h-1.562zM.212 140.96h1.562v1.562H.212zM11.928 140.96h1.562v1.562h-1.562zM23.644 140.96h1.562v1.562h-1.562zM35.359 140.96h1.562v1.562h-1.562zM47.075 140.96h1.562v1.562h-1.562zM58.791 140.96h1.562v1.562h-1.562zM70.506 140.96h1.562v1.562h-1.562zM82.222 140.96h1.562v1.562h-1.562zM93.938 140.96H95.5v1.562h-1.562zM105.653 140.96h1.562v1.562h-1.562zM117.369 140.96h1.562v1.562h-1.562zM129.084 140.96h1.562v1.562h-1.562zM140.8 140.96h1.562v1.562H140.8zM152.516 140.96h1.562v1.562h-1.562zM164.231 140.96h1.562v1.562h-1.562zM175.947 140.96h1.562v1.562h-1.562zM187.663 140.96h1.562v1.562h-1.562zM199.378 140.96h1.562v1.562h-1.562zM211.094 140.96h1.562v1.562h-1.562zM222.81 140.96h1.562v1.562h-1.562zM234.525 140.96h1.562v1.562h-1.562zM246.241 140.96h1.562v1.562h-1.562zM.212 152.676h1.562v1.562H.212zM11.928 152.676h1.562v1.562h-1.562zM23.644 152.676h1.562v1.562h-1.562zM35.359 152.676h1.562v1.562h-1.562zM47.075 152.676h1.562v1.562h-1.562zM58.791 152.676h1.562v1.562h-1.562zM70.506 152.676h1.562v1.562h-1.562zM82.222 152.676h1.562v1.562h-1.562zM93.938 152.676H95.5v1.562h-1.562zM105.653 152.676h1.562v1.562h-1.562zM117.369 152.676h1.562v1.562h-1.562zM129.084 152.676h1.562v1.562h-1.562zM140.8 152.676h1.562v1.562H140.8zM152.516 152.676h1.562v1.562h-1.562zM164.231 152.676h1.562v1.562h-1.562zM175.947 152.676h1.562v1.562h-1.562zM187.663 152.676h1.562v1.562h-1.562zM199.378 152.676h1.562v1.562h-1.562zM211.094 152.676h1.562v1.562h-1.562zM222.81 152.676h1.562v1.562h-1.562zM234.525 152.676h1.562v1.562h-1.562zM246.241 152.676h1.562v1.562h-1.562zM.212 164.392h1.562v1.562H.212zM11.928 164.392h1.562v1.562h-1.562zM23.644 164.392h1.562v1.562h-1.562zM35.359 164.392h1.562v1.562h-1.562zM47.075 164.392h1.562v1.562h-1.562zM58.791 164.392h1.562v1.562h-1.562zM70.506 164.392h1.562v1.562h-1.562zM82.222 164.392h1.562v1.562h-1.562zM93.938 164.392H95.5v1.562h-1.562zM105.653 164.392h1.562v1.562h-1.562zM117.369 164.392h1.562v1.562h-1.562zM129.084 164.392h1.562v1.562h-1.562zM140.8 164.392h1.562v1.562H140.8zM152.516 164.392h1.562v1.562h-1.562zM164.231 164.392h1.562v1.562h-1.562zM175.947 164.392h1.562v1.562h-1.562zM187.663 164.392h1.562v1.562h-1.562zM199.378 164.392h1.562v1.562h-1.562zM211.094 164.392h1.562v1.562h-1.562zM222.81 164.392h1.562v1.562h-1.562zM234.525 164.392h1.562v1.562h-1.562zM246.241 164.392h1.562v1.562h-1.562zM.212 176.107h1.562v1.562H.212zM11.928 176.107h1.562v1.562h-1.562zM23.644 176.107h1.562v1.562h-1.562zM35.359 176.107h1.562v1.562h-1.562zM47.075 176.107h1.562v1.562h-1.562zM58.791 176.107h1.562v1.562h-1.562zM70.506 176.107h1.562v1.562h-1.562zM82.222 176.107h1.562v1.562h-1.562zM93.938 176.107H95.5v1.562h-1.562zM105.653 176.107h1.562v1.562h-1.562zM117.369 176.107h1.562v1.562h-1.562zM129.084 176.107h1.562v1.562h-1.562zM140.8 176.107h1.562v1.562H140.8zM152.516 176.107h1.562v1.562h-1.562zM164.231 176.107h1.562v1.562h-1.562zM175.947 176.107h1.562v1.562h-1.562zM187.663 176.107h1.562v1.562h-1.562zM199.378 176.107h1.562v1.562h-1.562zM211.094 176.107h1.562v1.562h-1.562zM222.81 176.107h1.562v1.562h-1.562zM234.525 176.107h1.562v1.562h-1.562zM246.241 176.107h1.562v1.562h-1.562zM.212 187.823h1.562v1.562H.212zM11.928 187.823h1.562v1.562h-1.562zM23.644 187.823h1.562v1.562h-1.562zM35.359 187.823h1.562v1.562h-1.562zM47.075 187.823h1.562v1.562h-1.562zM58.791 187.823h1.562v1.562h-1.562zM70.506 187.823h1.562v1.562h-1.562zM82.222 187.823h1.562v1.562h-1.562zM93.938 187.823H95.5v1.562h-1.562zM105.653 187.823h1.562v1.562h-1.562zM117.369 187.823h1.562v1.562h-1.562zM129.084 187.823h1.562v1.562h-1.562zM140.8 187.823h1.562v1.562H140.8zM152.516 187.823h1.562v1.562h-1.562zM164.231 187.823h1.562v1.562h-1.562zM175.947 187.823h1.562v1.562h-1.562zM187.663 187.823h1.562v1.562h-1.562zM199.378 187.823h1.562v1.562h-1.562zM211.094 187.823h1.562v1.562h-1.562zM222.81 187.823h1.562v1.562h-1.562zM234.525 187.823h1.562v1.562h-1.562zM246.241 187.823h1.562v1.562h-1.562zM.212 199.538h1.562v1.562H.212zM11.928 199.538h1.562v1.562h-1.562zM23.644 199.538h1.562v1.562h-1.562zM35.359 199.538h1.562v1.562h-1.562zM47.075 199.538h1.562v1.562h-1.562zM58.791 199.538h1.562v1.562h-1.562zM70.506 199.538h1.562v1.562h-1.562zM82.222 199.538h1.562v1.562h-1.562zM93.938 199.538H95.5v1.562h-1.562zM105.653 199.538h1.562v1.562h-1.562zM117.369 199.538h1.562v1.562h-1.562zM129.084 199.538h1.562v1.562h-1.562zM140.8 199.538h1.562v1.562H140.8zM152.516 199.538h1.562v1.562h-1.562zM164.231 199.538h1.562v1.562h-1.562zM175.947 199.538h1.562v1.562h-1.562zM187.663 199.538h1.562v1.562h-1.562zM199.378 199.538h1.562v1.562h-1.562zM211.094 199.538h1.562v1.562h-1.562zM222.81 199.538h1.562v1.562h-1.562zM234.525 199.538h1.562v1.562h-1.562zM246.241 199.538h1.562v1.562h-1.562zM.212 211.254h1.562v1.562H.212zM11.928 211.254h1.562v1.562h-1.562zM23.644 211.254h1.562v1.562h-1.562zM35.359 211.254h1.562v1.562h-1.562zM47.075 211.254h1.562v1.562h-1.562zM58.791 211.254h1.562v1.562h-1.562zM70.506 211.254h1.562v1.562h-1.562zM82.222 211.254h1.562v1.562h-1.562zM93.938 211.254H95.5v1.562h-1.562zM105.653 211.254h1.562v1.562h-1.562zM117.369 211.254h1.562v1.562h-1.562zM129.084 211.254h1.562v1.562h-1.562zM140.8 211.254h1.562v1.562H140.8zM152.516 211.254h1.562v1.562h-1.562zM164.231 211.254h1.562v1.562h-1.562zM175.947 211.254h1.562v1.562h-1.562zM187.663 211.254h1.562v1.562h-1.562zM199.378 211.254h1.562v1.562h-1.562zM211.094 211.254h1.562v1.562h-1.562zM222.81 211.254h1.562v1.562h-1.562zM234.525 211.254h1.562v1.562h-1.562zM246.241 211.254h1.562v1.562h-1.562zM.212 222.97h1.562v1.562H.212zM11.928 222.97h1.562v1.562h-1.562zM23.644 222.97h1.562v1.562h-1.562zM35.359 222.97h1.562v1.562h-1.562zM47.075 222.97h1.562v1.562h-1.562zM58.791 222.97h1.562v1.562h-1.562zM70.506 222.97h1.562v1.562h-1.562zM82.222 222.97h1.562v1.562h-1.562zM93.938 222.97H95.5v1.562h-1.562zM105.653 222.97h1.562v1.562h-1.562zM117.369 222.97h1.562v1.562h-1.562zM129.084 222.97h1.562v1.562h-1.562zM140.8 222.97h1.562v1.562H140.8zM152.516 222.97h1.562v1.562h-1.562zM164.231 222.97h1.562v1.562h-1.562zM175.947 222.97h1.562v1.562h-1.562zM187.663 222.97h1.562v1.562h-1.562zM199.378 222.97h1.562v1.562h-1.562zM211.094 222.97h1.562v1.562h-1.562zM222.81 222.97h1.562v1.562h-1.562zM234.525 222.97h1.562v1.562h-1.562zM246.241 222.97h1.562v1.562h-1.562zM.212 234.685h1.562v1.562H.212zM11.928 234.685h1.562v1.562h-1.562zM23.644 234.685h1.562v1.562h-1.562zM35.359 234.685h1.562v1.562h-1.562zM47.075 234.685h1.562v1.562h-1.562zM58.791 234.685h1.562v1.562h-1.562zM70.506 234.685h1.562v1.562h-1.562zM82.222 234.685h1.562v1.562h-1.562zM93.938 234.685H95.5v1.562h-1.562zM105.653 234.685h1.562v1.562h-1.562zM117.369 234.685h1.562v1.562h-1.562zM129.084 234.685h1.562v1.562h-1.562zM140.8 234.685h1.562v1.562H140.8zM152.516 234.685h1.562v1.562h-1.562zM164.231 234.685h1.562v1.562h-1.562zM175.947 234.685h1.562v1.562h-1.562zM187.663 234.685h1.562v1.562h-1.562zM199.378 234.685h1.562v1.562h-1.562zM211.094 234.685h1.562v1.562h-1.562zM222.81 234.685h1.562v1.562h-1.562zM234.525 234.685h1.562v1.562h-1.562zM246.241 234.685h1.562v1.562h-1.562zM.212 246.401h1.562v1.562H.212zM11.928 246.401h1.562v1.562h-1.562zM23.644 246.401h1.562v1.562h-1.562zM35.359 246.401h1.562v1.562h-1.562zM47.075 246.401h1.562v1.562h-1.562zM58.791 246.401h1.562v1.562h-1.562zM70.506 246.401h1.562v1.562h-1.562zM82.222 246.401h1.562v1.562h-1.562zM93.938 246.401H95.5v1.562h-1.562zM105.653 246.401h1.562v1.562h-1.562zM117.369 246.401h1.562v1.562h-1.562zM129.084 246.401h1.562v1.562h-1.562zM140.8 246.401h1.562v1.562H140.8zM152.516 246.401h1.562v1.562h-1.562zM164.231 246.401h1.562v1.562h-1.562zM175.947 246.401h1.562v1.562h-1.562zM187.663 246.401h1.562v1.562h-1.562zM199.378 246.401h1.562v1.562h-1.562zM211.094 246.401h1.562v1.562h-1.562zM222.81 246.401h1.562v1.562h-1.562zM234.525 246.401h1.562v1.562h-1.562zM246.241 246.401h1.562v1.562h-1.562zM.212 258.117h1.562v1.562H.212zM11.928 258.117h1.562v1.562h-1.562zM23.644 258.117h1.562v1.562h-1.562zM35.359 258.117h1.562v1.562h-1.562zM47.075 258.117h1.562v1.562h-1.562zM58.791 258.117h1.562v1.562h-1.562zM70.506 258.117h1.562v1.562h-1.562zM82.222 258.117h1.562v1.562h-1.562zM93.938 258.117H95.5v1.562h-1.562zM105.653 258.117h1.562v1.562h-1.562zM117.369 258.117h1.562v1.562h-1.562zM129.084 258.117h1.562v1.562h-1.562zM140.8 258.117h1.562v1.562H140.8zM152.516 258.117h1.562v1.562h-1.562zM164.231 258.117h1.562v1.562h-1.562zM175.947 258.117h1.562v1.562h-1.562zM187.663 258.117h1.562v1.562h-1.562zM199.378 258.117h1.562v1.562h-1.562zM211.094 258.117h1.562v1.562h-1.562zM222.81 258.117h1.562v1.562h-1.562zM234.525 258.117h1.562v1.562h-1.562zM246.241 258.117h1.562v1.562h-1.562zM.212 269.832h1.562v1.562H.212zM11.928 269.832h1.562v1.562h-1.562zM23.644 269.832h1.562v1.562h-1.562zM35.359 269.832h1.562v1.562h-1.562zM47.075 269.832h1.562v1.562h-1.562zM58.791 269.832h1.562v1.562h-1.562zM70.506 269.832h1.562v1.562h-1.562zM82.222 269.832h1.562v1.562h-1.562zM93.938 269.832H95.5v1.562h-1.562zM105.653 269.832h1.562v1.562h-1.562zM117.369 269.832h1.562v1.562h-1.562zM129.084 269.832h1.562v1.562h-1.562zM140.8 269.832h1.562v1.562H140.8zM152.516 269.832h1.562v1.562h-1.562zM164.231 269.832h1.562v1.562h-1.562zM175.947 269.832h1.562v1.562h-1.562zM187.663 269.832h1.562v1.562h-1.562zM199.378 269.832h1.562v1.562h-1.562zM211.094 269.832h1.562v1.562h-1.562zM222.81 269.832h1.562v1.562h-1.562zM234.525 269.832h1.562v1.562h-1.562zM246.241 269.832h1.562v1.562h-1.562zM.212 281.548h1.562v1.562H.212zM11.928 281.548h1.562v1.562h-1.562zM23.644 281.548h1.562v1.562h-1.562zM35.359 281.548h1.562v1.562h-1.562zM47.075 281.548h1.562v1.562h-1.562zM58.791 281.548h1.562v1.562h-1.562zM70.506 281.548h1.562v1.562h-1.562zM82.222 281.548h1.562v1.562h-1.562zM93.938 281.548H95.5v1.562h-1.562zM105.653 281.548h1.562v1.562h-1.562zM117.369 281.548h1.562v1.562h-1.562zM129.084 281.548h1.562v1.562h-1.562zM140.8 281.548h1.562v1.562H140.8zM152.516 281.548h1.562v1.562h-1.562zM164.231 281.548h1.562v1.562h-1.562zM175.947 281.548h1.562v1.562h-1.562zM187.663 281.548h1.562v1.562h-1.562zM199.378 281.548h1.562v1.562h-1.562zM211.094 281.548h1.562v1.562h-1.562zM222.81 281.548h1.562v1.562h-1.562zM234.525 281.548h1.562v1.562h-1.562zM246.241 281.548h1.562v1.562h-1.562zM.212 293.264h1.562v1.562H.212zM11.928 293.264h1.562v1.562h-1.562zM23.644 293.264h1.562v1.562h-1.562zM35.359 293.264h1.562v1.562h-1.562zM47.075 293.264h1.562v1.562h-1.562zM58.791 293.264h1.562v1.562h-1.562zM70.506 293.264h1.562v1.562h-1.562zM82.222 293.264h1.562v1.562h-1.562zM93.938 293.264H95.5v1.562h-1.562zM105.653 293.264h1.562v1.562h-1.562zM117.369 293.264h1.562v1.562h-1.562zM129.084 293.264h1.562v1.562h-1.562zM140.8 293.264h1.562v1.562H140.8zM152.516 293.264h1.562v1.562h-1.562zM164.231 293.264h1.562v1.562h-1.562zM175.947 293.264h1.562v1.562h-1.562zM187.663 293.264h1.562v1.562h-1.562zM199.378 293.264h1.562v1.562h-1.562zM211.094 293.264h1.562v1.562h-1.562zM222.81 293.264h1.562v1.562h-1.562zM234.525 293.264h1.562v1.562h-1.562zM246.241 293.264h1.562v1.562h-1.562zM.212 304.979h1.562v1.562H.212zM11.928 304.979h1.562v1.562h-1.562zM23.644 304.979h1.562v1.562h-1.562zM35.359 304.979h1.562v1.562h-1.562zM47.075 304.979h1.562v1.562h-1.562zM58.791 304.979h1.562v1.562h-1.562zM70.506 304.979h1.562v1.562h-1.562zM82.222 304.979h1.562v1.562h-1.562zM93.938 304.979H95.5v1.562h-1.562zM105.653 304.979h1.562v1.562h-1.562zM117.369 304.979h1.562v1.562h-1.562zM129.084 304.979h1.562v1.562h-1.562zM140.8 304.979h1.562v1.562H140.8zM152.516 304.979h1.562v1.562h-1.562zM164.231 304.979h1.562v1.562h-1.562zM175.947 304.979h1.562v1.562h-1.562zM187.663 304.979h1.562v1.562h-1.562zM199.378 304.979h1.562v1.562h-1.562zM211.094 304.979h1.562v1.562h-1.562zM222.81 304.979h1.562v1.562h-1.562zM234.525 304.979h1.562v1.562h-1.562zM246.241 304.979h1.562v1.562h-1.562zM11.928 316.695h1.562v1.562h-1.562zM23.644 316.695h1.562v1.562h-1.562zM35.359 316.695h1.562v1.562h-1.562zM47.075 316.695h1.562v1.562h-1.562zM58.791 316.695h1.562v1.562h-1.562zM70.506 316.695h1.562v1.562h-1.562zM82.222 316.695h1.562v1.562h-1.562zM93.938 316.695H95.5v1.562h-1.562zM105.653 316.695h1.562v1.562h-1.562zM117.369 316.695h1.562v1.562h-1.562zM129.084 316.695h1.562v1.562h-1.562zM140.8 316.695h1.562v1.562H140.8zM152.516 316.695h1.562v1.562h-1.562zM164.231 316.695h1.562v1.562h-1.562zM175.947 316.695h1.562v1.562h-1.562zM187.663 316.695h1.562v1.562h-1.562zM199.378 316.695h1.562v1.562h-1.562zM211.094 316.695h1.562v1.562h-1.562zM222.81 316.695h1.562v1.562h-1.562zM234.525 316.695h1.562v1.562h-1.562z"/></svg>