<svg width="1031" height="357" viewBox="0 0 1031 357" fill="none" xmlns="http://www.w3.org/2000/svg">
<path fill-rule="evenodd" clip-rule="evenodd" d="M0 332.803L0 4.45735L250.151 4.45735V78.0976L98.1265 78.0976V131.81H235.017V205.45H98.1265L98.1265 332.803H0ZM96.8719 331.642H1.25461L1.25461 5.6187L248.897 5.6187V76.9362L96.8719 76.9362L96.8719 132.971H233.763V204.289H96.8719L96.8719 331.642ZM371.248 332.803H265.396L382.478 4.45735L514.992 4.45735L632.074 332.803L526.222 332.803L505.93 270.4H391.54L371.248 332.803ZM390.608 269.239L370.315 331.642H267.131L383.385 5.6187L514.085 5.6187L630.339 331.642L527.155 331.642L506.862 269.239H390.608ZM412.277 203.015L485.193 203.015L450.111 95.4024H447.359L412.277 203.015ZM413.966 201.854L483.504 201.854L449.179 96.5637H448.291L413.966 201.854ZM943.723 355.839L917.239 327.343C898.322 333.074 877.857 336.099 856.36 336.099C760.055 336.099 685.075 276.88 685.075 168.63C685.075 59.7436 760.055 1.16135 856.36 1.16135C951.978 1.16135 1027.65 59.7436 1027.65 168.63C1027.65 224.825 1007.53 267.647 974.85 295.983L1028.33 355.839H943.723ZM976.566 296.081C1009.03 267.488 1028.9 224.599 1028.9 168.63C1028.9 113.93 1009.89 71.7467 978.742 43.2375C947.603 14.7341 904.447 0 856.36 0C807.932 0 764.775 14.7331 733.72 43.2386C702.659 71.7493 683.82 113.933 683.82 168.63C683.82 223.011 702.66 265.193 733.719 293.782C764.771 322.366 807.928 337.26 856.36 337.26C877.684 337.26 898.008 334.302 916.833 328.687L943.147 357H1031L976.566 296.081ZM820.133 209.495H897.551L914.156 228.823C923.21 214.064 928.023 193.932 928.023 168.63C928.023 139.468 921.683 117.148 909.612 102.145C897.585 87.1978 879.754 79.3711 856.36 79.3711C832.967 79.3711 815.136 87.1978 803.109 102.145C791.038 117.148 784.698 139.468 784.698 168.63C784.698 197.793 791.038 220.113 803.109 235.115C815.136 250.063 832.967 257.889 856.36 257.889C857.466 257.889 858.548 257.889 859.62 257.859L820.133 209.495ZM862.036 258.891C861.537 258.933 861.039 258.964 860.541 258.987C859.148 259.051 857.754 259.051 856.36 259.051C808.896 259.051 783.444 227.212 783.444 168.63C783.444 110.048 808.896 78.2097 856.36 78.2097C903.825 78.2097 929.277 110.048 929.277 168.63C929.277 194.281 924.357 214.77 914.997 229.801C914.772 230.162 914.545 230.519 914.316 230.874L896.946 210.657H822.654L862.036 258.891Z" fill="url(#paint0_linear)"/>
<defs>
<linearGradient id="paint0_linear" x1="0" y1="0" x2="1031" y2="0" gradientUnits="userSpaceOnUse">
<stop stop-color="#F96D8C"/>
<stop offset="1" stop-color="#FBD862"/>
</linearGradient>
</defs>
</svg>
