<svg width="379" height="138" fill="none" xmlns="http://www.w3.org/2000/svg"><path d="M2.607 4.469A1.783 1.783 0 102.605.902a1.783 1.783 0 00.002 3.567zM15.086 4.469a1.783 1.783 0 10-.001-3.567 1.783 1.783 0 00.001 3.567zM27.565 4.469a1.783 1.783 0 10-.001-3.567 1.783 1.783 0 00.001 3.567zM40.044 4.469a1.783 1.783 0 100-3.567 1.783 1.783 0 000 3.567zM52.524 4.469a1.783 1.783 0 10-.001-3.567 1.783 1.783 0 000 3.567zM65.003 4.469a1.783 1.783 0 10-.001-3.567 1.783 1.783 0 00.001 3.567zM77.482 4.469a1.783 1.783 0 100-3.567 1.783 1.783 0 000 3.567zM89.962 4.469A1.783 1.783 0 1089.96.902a1.783 1.783 0 000 3.567zM102.441 4.469a1.783 1.783 0 100-3.567 1.783 1.783 0 000 3.567zM114.92 4.469a1.783 1.783 0 100-3.567 1.783 1.783 0 000 3.567zM127.4 4.469a1.783 1.783 0 10-.002-3.566 1.783 1.783 0 00.002 3.566zM139.879 4.469A1.784 1.784 0 10139.877.9a1.784 1.784 0 00.002 3.568zM152.358 4.469a1.783 1.783 0 100-3.567 1.783 1.783 0 000 3.567zM164.837 4.469a1.783 1.783 0 100-3.567 1.783 1.783 0 000 3.567zM177.317 4.469a1.783 1.783 0 10-.002-3.566 1.783 1.783 0 00.002 3.566zM189.796 4.469a1.783 1.783 0 100-3.567 1.783 1.783 0 000 3.567zM202.275 4.469a1.783 1.783 0 100-3.567 1.783 1.783 0 000 3.567zM214.755 4.469a1.783 1.783 0 10-.002-3.566 1.783 1.783 0 00.002 3.566zM227.234 4.469A1.784 1.784 0 10227.232.9a1.784 1.784 0 00.002 3.568zM239.713 4.469a1.783 1.783 0 100-3.567 1.783 1.783 0 000 3.567zM252.192 4.469a1.783 1.783 0 100-3.567 1.783 1.783 0 000 3.567zM264.672 4.469A1.784 1.784 0 10264.67.9a1.784 1.784 0 00.002 3.568zM277.151 4.469a1.783 1.783 0 100-3.567 1.783 1.783 0 000 3.567zM289.63 4.469a1.783 1.783 0 100-3.567 1.783 1.783 0 000 3.567zM302.11 4.469a1.783 1.783 0 10-.002-3.566 1.783 1.783 0 00.002 3.566zM314.589 4.469a1.783 1.783 0 100-3.567 1.783 1.783 0 000 3.567zM327.068 4.469a1.783 1.783 0 100-3.567 1.783 1.783 0 000 3.567zM339.547 4.469a1.783 1.783 0 100-3.567 1.783 1.783 0 000 3.567zM352.027 4.469A1.784 1.784 0 10352.025.9a1.784 1.784 0 00.002 3.568zM364.506 4.469a1.783 1.783 0 100-3.567 1.783 1.783 0 000 3.567zM376.985 4.469a1.783 1.783 0 100-3.567 1.783 1.783 0 000 3.567zM2.607 16.957a1.783 1.783 0 10-.002-3.567 1.783 1.783 0 00.002 3.567zM15.086 16.957a1.783 1.783 0 10-.001-3.567 1.783 1.783 0 00.001 3.567zM27.565 16.957a1.783 1.783 0 10-.001-3.567 1.783 1.783 0 00.001 3.567zM40.044 16.957a1.783 1.783 0 100-3.567 1.783 1.783 0 000 3.567zM52.524 16.957a1.783 1.783 0 10-.001-3.567 1.783 1.783 0 000 3.567zM65.003 16.957a1.783 1.783 0 10-.001-3.567 1.783 1.783 0 00.001 3.567zM77.482 16.957a1.783 1.783 0 100-3.567 1.783 1.783 0 000 3.567zM89.962 16.957a1.783 1.783 0 10-.001-3.567 1.783 1.783 0 000 3.567zM102.441 16.957a1.783 1.783 0 100-3.567 1.783 1.783 0 000 3.567zM114.92 16.957a1.783 1.783 0 100-3.567 1.783 1.783 0 000 3.567zM127.4 16.957a1.783 1.783 0 10-.002-3.567 1.783 1.783 0 00.002 3.567zM139.879 16.957a1.784 1.784 0 10-.002-3.568 1.784 1.784 0 00.002 3.568zM152.358 16.957a1.783 1.783 0 100-3.567 1.783 1.783 0 000 3.567zM164.837 16.957a1.783 1.783 0 100-3.567 1.783 1.783 0 000 3.567zM177.317 16.957a1.783 1.783 0 10-.002-3.567 1.783 1.783 0 00.002 3.567zM189.796 16.957a1.783 1.783 0 100-3.567 1.783 1.783 0 000 3.567zM202.275 16.957a1.783 1.783 0 100-3.567 1.783 1.783 0 000 3.567zM214.755 16.957a1.783 1.783 0 10-.002-3.567 1.783 1.783 0 00.002 3.567zM227.234 16.957a1.784 1.784 0 10-.002-3.568 1.784 1.784 0 00.002 3.568zM239.713 16.957a1.783 1.783 0 100-3.567 1.783 1.783 0 000 3.567zM252.192 16.957a1.783 1.783 0 100-3.567 1.783 1.783 0 000 3.567zM264.672 16.957a1.784 1.784 0 10-.002-3.568 1.784 1.784 0 00.002 3.568zM277.151 16.957a1.783 1.783 0 100-3.567 1.783 1.783 0 000 3.567zM289.63 16.957a1.783 1.783 0 100-3.567 1.783 1.783 0 000 3.567zM302.11 16.957a1.783 1.783 0 10-.002-3.567 1.783 1.783 0 00.002 3.567zM314.589 16.957a1.783 1.783 0 100-3.567 1.783 1.783 0 000 3.567zM327.068 16.957a1.783 1.783 0 100-3.567 1.783 1.783 0 000 3.567zM339.547 16.957a1.783 1.783 0 100-3.567 1.783 1.783 0 000 3.567zM352.027 16.957a1.784 1.784 0 10-.002-3.568 1.784 1.784 0 00.002 3.568zM364.506 16.957a1.783 1.783 0 100-3.567 1.783 1.783 0 000 3.567zM376.985 16.957a1.783 1.783 0 100-3.567 1.783 1.783 0 000 3.567zM2.607 29.444a1.783 1.783 0 10-.002-3.567 1.783 1.783 0 00.002 3.567zM15.086 29.444a1.783 1.783 0 10-.001-3.567 1.783 1.783 0 00.001 3.567zM27.565 29.444a1.783 1.783 0 10-.001-3.567 1.783 1.783 0 00.001 3.567zM40.044 29.444a1.783 1.783 0 100-3.567 1.783 1.783 0 000 3.567zM52.524 29.444a1.783 1.783 0 10-.001-3.567 1.783 1.783 0 000 3.567zM65.003 29.444a1.783 1.783 0 10-.001-3.567 1.783 1.783 0 00.001 3.567zM77.482 29.444a1.783 1.783 0 100-3.567 1.783 1.783 0 000 3.567zM89.962 29.444a1.783 1.783 0 10-.001-3.567 1.783 1.783 0 000 3.567zM102.441 29.444a1.783 1.783 0 100-3.567 1.783 1.783 0 000 3.567zM114.92 29.444a1.783 1.783 0 100-3.567 1.783 1.783 0 000 3.567zM127.4 29.444a1.783 1.783 0 10-.002-3.566 1.783 1.783 0 00.002 3.566zM139.879 29.444a1.784 1.784 0 10-.002-3.568 1.784 1.784 0 00.002 3.568zM152.358 29.444a1.783 1.783 0 100-3.567 1.783 1.783 0 000 3.567zM164.837 29.444a1.783 1.783 0 100-3.567 1.783 1.783 0 000 3.567zM177.317 29.444a1.783 1.783 0 10-.002-3.566 1.783 1.783 0 00.002 3.566zM189.796 29.444a1.783 1.783 0 100-3.567 1.783 1.783 0 000 3.567zM202.275 29.444a1.783 1.783 0 100-3.567 1.783 1.783 0 000 3.567zM214.755 29.444a1.783 1.783 0 10-.002-3.566 1.783 1.783 0 00.002 3.566zM227.234 29.444a1.784 1.784 0 10-.002-3.568 1.784 1.784 0 00.002 3.568zM239.713 29.444a1.783 1.783 0 100-3.567 1.783 1.783 0 000 3.567zM252.192 29.444a1.783 1.783 0 100-3.567 1.783 1.783 0 000 3.567zM264.672 29.444a1.784 1.784 0 10-.002-3.568 1.784 1.784 0 00.002 3.568zM277.151 29.444a1.783 1.783 0 100-3.567 1.783 1.783 0 000 3.567zM289.63 29.444a1.783 1.783 0 100-3.567 1.783 1.783 0 000 3.567zM302.11 29.444a1.783 1.783 0 10-.002-3.566 1.783 1.783 0 00.002 3.566zM314.589 29.444a1.783 1.783 0 100-3.567 1.783 1.783 0 000 3.567zM327.068 29.444a1.783 1.783 0 100-3.567 1.783 1.783 0 000 3.567zM339.547 29.444a1.783 1.783 0 100-3.567 1.783 1.783 0 000 3.567zM352.027 29.444a1.784 1.784 0 10-.002-3.568 1.784 1.784 0 00.002 3.568zM364.506 29.444a1.783 1.783 0 100-3.567 1.783 1.783 0 000 3.567zM376.985 29.444a1.783 1.783 0 100-3.567 1.783 1.783 0 000 3.567zM2.607 41.932a1.783 1.783 0 10-.002-3.567 1.783 1.783 0 00.002 3.567zM15.086 41.932a1.783 1.783 0 10-.001-3.567 1.783 1.783 0 00.001 3.567zM27.565 41.932a1.783 1.783 0 10-.001-3.567 1.783 1.783 0 00.001 3.567zM40.044 41.932a1.783 1.783 0 100-3.567 1.783 1.783 0 000 3.567zM52.524 41.932a1.783 1.783 0 10-.001-3.567 1.783 1.783 0 000 3.567zM65.003 41.932a1.783 1.783 0 10-.001-3.567 1.783 1.783 0 00.001 3.567zM77.482 41.932a1.783 1.783 0 100-3.567 1.783 1.783 0 000 3.567zM89.962 41.932a1.783 1.783 0 10-.001-3.567 1.783 1.783 0 000 3.567zM102.441 41.932a1.783 1.783 0 100-3.567 1.783 1.783 0 000 3.567zM114.92 41.932a1.783 1.783 0 100-3.567 1.783 1.783 0 000 3.567zM127.4 41.932a1.783 1.783 0 10-.002-3.566 1.783 1.783 0 00.002 3.566zM139.879 41.932a1.784 1.784 0 10-.002-3.568 1.784 1.784 0 00.002 3.568zM152.358 41.932a1.783 1.783 0 100-3.567 1.783 1.783 0 000 3.567zM164.837 41.932a1.783 1.783 0 100-3.567 1.783 1.783 0 000 3.567zM177.317 41.932a1.783 1.783 0 10-.002-3.566 1.783 1.783 0 00.002 3.566zM189.796 41.932a1.783 1.783 0 100-3.567 1.783 1.783 0 000 3.567zM202.275 41.932a1.783 1.783 0 100-3.567 1.783 1.783 0 000 3.567zM214.755 41.932a1.783 1.783 0 10-.002-3.566 1.783 1.783 0 00.002 3.566zM227.234 41.932a1.784 1.784 0 10-.002-3.568 1.784 1.784 0 00.002 3.568zM239.713 41.932a1.783 1.783 0 100-3.567 1.783 1.783 0 000 3.567zM252.192 41.932a1.783 1.783 0 100-3.567 1.783 1.783 0 000 3.567zM264.672 41.932a1.784 1.784 0 10-.002-3.568 1.784 1.784 0 00.002 3.568zM277.151 41.932a1.783 1.783 0 100-3.567 1.783 1.783 0 000 3.567zM289.63 41.932a1.783 1.783 0 100-3.567 1.783 1.783 0 000 3.567zM302.11 41.932a1.783 1.783 0 10-.002-3.566 1.783 1.783 0 00.002 3.566zM314.589 41.932a1.783 1.783 0 100-3.567 1.783 1.783 0 000 3.567zM327.068 41.932a1.783 1.783 0 100-3.567 1.783 1.783 0 000 3.567zM339.547 41.932a1.783 1.783 0 100-3.567 1.783 1.783 0 000 3.567zM352.027 41.932a1.784 1.784 0 10-.002-3.568 1.784 1.784 0 00.002 3.568zM364.506 41.932a1.783 1.783 0 100-3.567 1.783 1.783 0 000 3.567zM376.985 41.932a1.783 1.783 0 100-3.567 1.783 1.783 0 000 3.567zM2.607 54.42a1.783 1.783 0 10-.002-3.567 1.783 1.783 0 00.002 3.566zM15.086 54.42a1.783 1.783 0 10-.001-3.567 1.783 1.783 0 00.001 3.566zM27.565 54.42a1.783 1.783 0 10-.001-3.567 1.783 1.783 0 00.001 3.566zM40.044 54.42a1.783 1.783 0 100-3.567 1.783 1.783 0 000 3.566zM52.524 54.42a1.783 1.783 0 10-.001-3.567 1.783 1.783 0 000 3.566zM65.003 54.42a1.783 1.783 0 10-.001-3.567 1.783 1.783 0 00.001 3.566zM77.482 54.42a1.783 1.783 0 100-3.567 1.783 1.783 0 000 3.566zM89.962 54.42a1.783 1.783 0 10-.001-3.567 1.783 1.783 0 000 3.566zM102.441 54.42a1.783 1.783 0 100-3.567 1.783 1.783 0 000 3.566zM114.92 54.42a1.783 1.783 0 100-3.567 1.783 1.783 0 000 3.566zM127.4 54.42a1.783 1.783 0 10-.002-3.567 1.783 1.783 0 00.002 3.566zM139.879 54.42a1.784 1.784 0 10-.002-3.568 1.784 1.784 0 00.002 3.568zM152.358 54.42a1.783 1.783 0 100-3.567 1.783 1.783 0 000 3.566zM164.837 54.42a1.783 1.783 0 100-3.567 1.783 1.783 0 000 3.566zM177.317 54.42a1.783 1.783 0 10-.002-3.567 1.783 1.783 0 00.002 3.566zM189.796 54.42a1.783 1.783 0 100-3.567 1.783 1.783 0 000 3.566zM202.275 54.42a1.783 1.783 0 100-3.567 1.783 1.783 0 000 3.566zM214.755 54.42a1.783 1.783 0 10-.002-3.567 1.783 1.783 0 00.002 3.566zM227.234 54.42a1.784 1.784 0 10-.002-3.568 1.784 1.784 0 00.002 3.568zM239.713 54.42a1.783 1.783 0 100-3.567 1.783 1.783 0 000 3.566zM252.192 54.42a1.783 1.783 0 100-3.567 1.783 1.783 0 000 3.566zM264.672 54.42a1.784 1.784 0 10-.002-3.568 1.784 1.784 0 00.002 3.568zM277.151 54.42a1.783 1.783 0 100-3.567 1.783 1.783 0 000 3.566zM289.63 54.42a1.783 1.783 0 100-3.567 1.783 1.783 0 000 3.566zM302.11 54.42a1.783 1.783 0 10-.002-3.567 1.783 1.783 0 00.002 3.566zM314.589 54.42a1.783 1.783 0 100-3.567 1.783 1.783 0 000 3.566zM327.068 54.42a1.783 1.783 0 100-3.567 1.783 1.783 0 000 3.566zM339.547 54.42a1.783 1.783 0 100-3.567 1.783 1.783 0 000 3.566zM352.027 54.42a1.784 1.784 0 10-.002-3.568 1.784 1.784 0 00.002 3.568zM364.506 54.42a1.783 1.783 0 100-3.567 1.783 1.783 0 000 3.566zM376.985 54.42a1.783 1.783 0 100-3.567 1.783 1.783 0 000 3.566zM2.607 66.907a1.783 1.783 0 10-.001-3.567 1.783 1.783 0 000 3.567zM15.086 66.907a1.783 1.783 0 10-.001-3.567 1.783 1.783 0 00.001 3.567zM27.565 66.907a1.783 1.783 0 100-3.567 1.783 1.783 0 000 3.567zM40.044 66.907a1.783 1.783 0 100-3.567 1.783 1.783 0 000 3.567zM52.524 66.907a1.783 1.783 0 10-.001-3.567 1.783 1.783 0 000 3.567zM65.003 66.907a1.783 1.783 0 10-.001-3.567 1.783 1.783 0 00.001 3.567zM77.482 66.907a1.783 1.783 0 100-3.567 1.783 1.783 0 000 3.567zM89.962 66.907a1.783 1.783 0 10-.001-3.567 1.783 1.783 0 000 3.567zM102.441 66.907a1.783 1.783 0 100-3.567 1.783 1.783 0 000 3.567zM114.92 66.907a1.783 1.783 0 100-3.567 1.783 1.783 0 000 3.567zM127.4 66.907a1.783 1.783 0 10-.002-3.566 1.783 1.783 0 00.002 3.566zM139.879 66.907a1.784 1.784 0 10-.002-3.568 1.784 1.784 0 00.002 3.568zM152.358 66.907a1.783 1.783 0 100-3.567 1.783 1.783 0 000 3.567zM164.837 66.907a1.783 1.783 0 100-3.567 1.783 1.783 0 000 3.567zM177.317 66.907a1.783 1.783 0 10-.002-3.566 1.783 1.783 0 00.002 3.566zM189.796 66.907a1.783 1.783 0 100-3.567 1.783 1.783 0 000 3.567zM202.275 66.907a1.783 1.783 0 100-3.567 1.783 1.783 0 000 3.567zM214.755 66.907a1.783 1.783 0 10-.002-3.566 1.783 1.783 0 00.002 3.566zM227.234 66.907a1.784 1.784 0 10-.002-3.568 1.784 1.784 0 00.002 3.568zM239.713 66.907a1.783 1.783 0 100-3.567 1.783 1.783 0 000 3.567zM252.192 66.907a1.783 1.783 0 100-3.567 1.783 1.783 0 000 3.567zM264.672 66.907a1.784 1.784 0 10-.002-3.568 1.784 1.784 0 00.002 3.568zM277.151 66.907a1.783 1.783 0 100-3.567 1.783 1.783 0 000 3.567zM289.63 66.907a1.783 1.783 0 100-3.567 1.783 1.783 0 000 3.567zM302.11 66.907a1.783 1.783 0 10-.002-3.566 1.783 1.783 0 00.002 3.566zM314.589 66.907a1.783 1.783 0 100-3.567 1.783 1.783 0 000 3.567zM327.068 66.907a1.783 1.783 0 100-3.567 1.783 1.783 0 000 3.567zM339.547 66.907a1.783 1.783 0 100-3.567 1.783 1.783 0 000 3.567zM352.027 66.907a1.784 1.784 0 10-.002-3.568 1.784 1.784 0 00.002 3.568zM364.506 66.907a1.783 1.783 0 100-3.567 1.783 1.783 0 000 3.567zM376.985 66.907a1.783 1.783 0 100-3.567 1.783 1.783 0 000 3.567zM2.607 79.395a1.783 1.783 0 10-.002-3.567 1.783 1.783 0 00.002 3.567zM15.086 79.395a1.783 1.783 0 10-.001-3.567 1.783 1.783 0 00.001 3.567zM27.565 79.395a1.783 1.783 0 10-.001-3.567 1.783 1.783 0 00.001 3.567zM40.044 79.395a1.783 1.783 0 100-3.567 1.783 1.783 0 000 3.567zM52.524 79.395a1.783 1.783 0 10-.001-3.567 1.783 1.783 0 000 3.567zM65.003 79.395a1.783 1.783 0 10-.001-3.567 1.783 1.783 0 00.001 3.567zM77.482 79.395a1.783 1.783 0 100-3.567 1.783 1.783 0 000 3.567zM89.962 79.395a1.783 1.783 0 10-.001-3.567 1.783 1.783 0 000 3.567zM102.441 79.395a1.783 1.783 0 100-3.567 1.783 1.783 0 000 3.567zM114.92 79.395a1.783 1.783 0 100-3.567 1.783 1.783 0 000 3.567zM127.4 79.395a1.783 1.783 0 10-.002-3.567 1.783 1.783 0 00.002 3.567zM139.879 79.395a1.784 1.784 0 10-.002-3.568 1.784 1.784 0 00.002 3.568zM152.358 79.395a1.783 1.783 0 100-3.567 1.783 1.783 0 000 3.567zM164.837 79.395a1.783 1.783 0 100-3.567 1.783 1.783 0 000 3.567zM177.317 79.395a1.783 1.783 0 10-.002-3.567 1.783 1.783 0 00.002 3.567zM189.796 79.395a1.783 1.783 0 100-3.567 1.783 1.783 0 000 3.567zM202.275 79.395a1.783 1.783 0 100-3.567 1.783 1.783 0 000 3.567zM214.755 79.395a1.783 1.783 0 10-.002-3.567 1.783 1.783 0 00.002 3.567zM227.234 79.395a1.784 1.784 0 10-.002-3.568 1.784 1.784 0 00.002 3.568zM239.713 79.395a1.783 1.783 0 100-3.567 1.783 1.783 0 000 3.567zM252.192 79.395a1.783 1.783 0 100-3.567 1.783 1.783 0 000 3.567zM264.672 79.395a1.784 1.784 0 10-.002-3.568 1.784 1.784 0 00.002 3.568zM277.151 79.395a1.783 1.783 0 100-3.567 1.783 1.783 0 000 3.567zM289.63 79.395a1.783 1.783 0 100-3.567 1.783 1.783 0 000 3.567zM302.11 79.395a1.783 1.783 0 10-.002-3.567 1.783 1.783 0 00.002 3.567zM314.589 79.395a1.783 1.783 0 100-3.567 1.783 1.783 0 000 3.567zM327.068 79.395a1.783 1.783 0 100-3.567 1.783 1.783 0 000 3.567zM339.547 79.395a1.783 1.783 0 100-3.567 1.783 1.783 0 000 3.567zM352.027 79.395a1.784 1.784 0 10-.002-3.568 1.784 1.784 0 00.002 3.568zM364.506 79.395a1.783 1.783 0 100-3.567 1.783 1.783 0 000 3.567zM376.985 79.395a1.783 1.783 0 100-3.567 1.783 1.783 0 000 3.567zM2.607 91.882a1.783 1.783 0 10-.001-3.566 1.783 1.783 0 000 3.566zM15.086 91.882a1.783 1.783 0 10-.001-3.566 1.783 1.783 0 00.001 3.566zM27.565 91.882a1.783 1.783 0 100-3.566 1.783 1.783 0 000 3.566zM40.044 91.882a1.783 1.783 0 100-3.566 1.783 1.783 0 000 3.566zM52.524 91.882a1.783 1.783 0 10-.001-3.566 1.783 1.783 0 000 3.566zM65.003 91.882a1.783 1.783 0 10-.001-3.566 1.783 1.783 0 00.001 3.566zM77.482 91.882a1.783 1.783 0 100-3.566 1.783 1.783 0 000 3.566zM89.962 91.882a1.783 1.783 0 10-.001-3.566 1.783 1.783 0 000 3.566zM102.441 91.882a1.783 1.783 0 100-3.566 1.783 1.783 0 000 3.566zM114.92 91.882a1.783 1.783 0 100-3.566 1.783 1.783 0 000 3.566zM127.4 91.882a1.783 1.783 0 10-.002-3.566 1.783 1.783 0 00.002 3.566zM139.879 91.882a1.784 1.784 0 10-.002-3.568 1.784 1.784 0 00.002 3.568zM152.358 91.882a1.783 1.783 0 100-3.566 1.783 1.783 0 000 3.566zM164.837 91.882a1.783 1.783 0 100-3.566 1.783 1.783 0 000 3.566zM177.317 91.882a1.783 1.783 0 10-.002-3.566 1.783 1.783 0 00.002 3.566zM189.796 91.882a1.783 1.783 0 100-3.566 1.783 1.783 0 000 3.566zM202.275 91.882a1.783 1.783 0 100-3.566 1.783 1.783 0 000 3.566zM214.755 91.882a1.783 1.783 0 10-.002-3.566 1.783 1.783 0 00.002 3.566zM227.234 91.882a1.784 1.784 0 10-.002-3.568 1.784 1.784 0 00.002 3.568zM239.713 91.882a1.783 1.783 0 100-3.566 1.783 1.783 0 000 3.566zM252.192 91.882a1.783 1.783 0 100-3.566 1.783 1.783 0 000 3.566zM264.672 91.882a1.784 1.784 0 10-.002-3.568 1.784 1.784 0 00.002 3.568zM277.151 91.882a1.783 1.783 0 100-3.566 1.783 1.783 0 000 3.566zM289.63 91.882a1.783 1.783 0 100-3.566 1.783 1.783 0 000 3.566zM302.11 91.882a1.783 1.783 0 10-.002-3.566 1.783 1.783 0 00.002 3.566zM314.589 91.882a1.783 1.783 0 100-3.566 1.783 1.783 0 000 3.566zM327.068 91.882a1.783 1.783 0 100-3.566 1.783 1.783 0 000 3.566zM339.547 91.882a1.783 1.783 0 100-3.566 1.783 1.783 0 000 3.566zM352.027 91.882a1.784 1.784 0 10-.002-3.568 1.784 1.784 0 00.002 3.568zM364.506 91.882a1.783 1.783 0 100-3.566 1.783 1.783 0 000 3.566zM376.985 91.882a1.783 1.783 0 100-3.566 1.783 1.783 0 000 3.566zM2.607 104.37a1.784 1.784 0 10-.002-3.567 1.784 1.784 0 00.002 3.567zM15.086 104.37a1.784 1.784 0 10-.002-3.567 1.784 1.784 0 00.002 3.567zM27.565 104.37a1.784 1.784 0 10-.001-3.567 1.784 1.784 0 00.001 3.567zM40.044 104.37a1.784 1.784 0 10-.001-3.567 1.784 1.784 0 00.002 3.567zM52.524 104.37a1.784 1.784 0 10-.002-3.567 1.784 1.784 0 00.002 3.567zM65.003 104.37a1.784 1.784 0 10-.001-3.567 1.784 1.784 0 00.001 3.567zM77.482 104.37a1.784 1.784 0 10-.001-3.567 1.784 1.784 0 00.001 3.567zM89.962 104.37a1.784 1.784 0 10-.002-3.567 1.784 1.784 0 00.002 3.567zM102.441 104.37a1.783 1.783 0 10-.001-3.567 1.783 1.783 0 00.001 3.567zM114.92 104.37a1.783 1.783 0 10-.001-3.567 1.783 1.783 0 00.001 3.567zM127.4 104.37a1.783 1.783 0 10-.003-3.567 1.783 1.783 0 00.003 3.567zM139.879 104.37a1.784 1.784 0 10-.002-3.568 1.784 1.784 0 00.002 3.568zM152.358 104.37a1.783 1.783 0 10-.001-3.567 1.783 1.783 0 00.001 3.567zM164.837 104.37a1.783 1.783 0 10-.001-3.567 1.783 1.783 0 00.001 3.567zM177.317 104.37a1.783 1.783 0 10-.003-3.567 1.783 1.783 0 00.003 3.567zM189.796 104.37a1.783 1.783 0 10-.001-3.567 1.783 1.783 0 00.001 3.567zM202.275 104.37a1.783 1.783 0 10-.001-3.567 1.783 1.783 0 00.001 3.567zM214.755 104.37a1.783 1.783 0 10-.003-3.567 1.783 1.783 0 00.003 3.567zM227.234 104.37a1.784 1.784 0 10-.002-3.568 1.784 1.784 0 00.002 3.568zM239.713 104.37a1.783 1.783 0 10-.001-3.567 1.783 1.783 0 00.001 3.567zM252.192 104.37a1.783 1.783 0 10-.001-3.567 1.783 1.783 0 00.001 3.567zM264.672 104.37a1.784 1.784 0 10-.002-3.568 1.784 1.784 0 00.002 3.568zM277.151 104.37a1.783 1.783 0 10-.001-3.567 1.783 1.783 0 00.001 3.567zM289.63 104.37a1.783 1.783 0 10-.001-3.567 1.783 1.783 0 00.001 3.567zM302.11 104.37a1.783 1.783 0 10-.003-3.567 1.783 1.783 0 00.003 3.567zM314.589 104.37a1.783 1.783 0 10-.001-3.567 1.783 1.783 0 00.001 3.567zM327.068 104.37a1.783 1.783 0 10-.001-3.567 1.783 1.783 0 00.001 3.567zM339.547 104.37a1.783 1.783 0 10-.001-3.567 1.783 1.783 0 00.001 3.567zM352.027 104.37a1.784 1.784 0 10-.002-3.568 1.784 1.784 0 00.002 3.568zM364.506 104.37a1.783 1.783 0 10-.001-3.567 1.783 1.783 0 00.001 3.567zM376.985 104.37a1.783 1.783 0 10-.001-3.567 1.783 1.783 0 00.001 3.567zM2.607 116.857a1.783 1.783 0 100-3.566 1.783 1.783 0 000 3.566zM15.086 116.857a1.783 1.783 0 100-3.566 1.783 1.783 0 000 3.566zM27.565 116.857a1.783 1.783 0 100-3.566 1.783 1.783 0 000 3.566zM40.044 116.857a1.783 1.783 0 100-3.566 1.783 1.783 0 000 3.566zM52.524 116.857a1.783 1.783 0 100-3.566 1.783 1.783 0 000 3.566zM65.003 116.857a1.783 1.783 0 100-3.566 1.783 1.783 0 000 3.566zM77.482 116.857a1.783 1.783 0 100-3.566 1.783 1.783 0 000 3.566zM89.962 116.857a1.783 1.783 0 100-3.566 1.783 1.783 0 000 3.566zM102.441 116.857a1.783 1.783 0 100-3.566 1.783 1.783 0 000 3.566zM114.92 116.857a1.783 1.783 0 100-3.566 1.783 1.783 0 000 3.566zM127.4 116.857a1.783 1.783 0 10-.001-3.565 1.783 1.783 0 00.001 3.565zM139.879 116.857a1.784 1.784 0 10-.001-3.567 1.784 1.784 0 00.001 3.567zM152.358 116.857a1.783 1.783 0 100-3.566 1.783 1.783 0 000 3.566zM164.837 116.857a1.783 1.783 0 100-3.566 1.783 1.783 0 000 3.566zM177.317 116.857a1.783 1.783 0 10-.001-3.565 1.783 1.783 0 00.001 3.565zM189.796 116.857a1.783 1.783 0 100-3.566 1.783 1.783 0 000 3.566zM202.275 116.857a1.783 1.783 0 100-3.566 1.783 1.783 0 000 3.566zM214.755 116.857a1.783 1.783 0 10-.001-3.565 1.783 1.783 0 00.001 3.565zM227.234 116.857a1.784 1.784 0 10-.001-3.567 1.784 1.784 0 00.001 3.567zM239.713 116.857a1.783 1.783 0 100-3.566 1.783 1.783 0 000 3.566zM252.192 116.857a1.783 1.783 0 100-3.566 1.783 1.783 0 000 3.566zM264.672 116.857a1.784 1.784 0 10-.001-3.567 1.784 1.784 0 00.001 3.567zM277.151 116.857a1.783 1.783 0 100-3.566 1.783 1.783 0 000 3.566zM289.63 116.857a1.783 1.783 0 100-3.566 1.783 1.783 0 000 3.566zM302.11 116.857a1.783 1.783 0 10-.001-3.565 1.783 1.783 0 00.001 3.565zM314.589 116.857a1.783 1.783 0 100-3.566 1.783 1.783 0 000 3.566zM327.068 116.857a1.783 1.783 0 100-3.566 1.783 1.783 0 000 3.566zM339.547 116.857a1.783 1.783 0 100-3.566 1.783 1.783 0 000 3.566zM352.027 116.857a1.784 1.784 0 10-.001-3.567 1.784 1.784 0 00.001 3.567zM364.506 116.857a1.783 1.783 0 100-3.566 1.783 1.783 0 000 3.566zM376.985 116.857a1.783 1.783 0 100-3.566 1.783 1.783 0 000 3.566zM2.607 129.345a1.784 1.784 0 10-.002-3.567 1.784 1.784 0 00.002 3.567zM15.086 129.345a1.784 1.784 0 10-.002-3.567 1.784 1.784 0 00.002 3.567zM27.565 129.345a1.784 1.784 0 10-.001-3.567 1.784 1.784 0 00.001 3.567zM40.044 129.345a1.784 1.784 0 10-.001-3.567 1.784 1.784 0 00.002 3.567zM52.524 129.345a1.784 1.784 0 10-.002-3.567 1.784 1.784 0 00.002 3.567zM65.003 129.345a1.784 1.784 0 10-.001-3.567 1.784 1.784 0 00.001 3.567zM77.482 129.345a1.784 1.784 0 10-.001-3.567 1.784 1.784 0 00.001 3.567zM89.962 129.345a1.784 1.784 0 10-.002-3.567 1.784 1.784 0 00.002 3.567zM102.441 129.345a1.783 1.783 0 10-.001-3.567 1.783 1.783 0 00.001 3.567zM114.92 129.345a1.783 1.783 0 10-.001-3.567 1.783 1.783 0 00.001 3.567zM127.4 129.345a1.783 1.783 0 10-.003-3.567 1.783 1.783 0 00.003 3.567zM139.879 129.345a1.784 1.784 0 10-.002-3.568 1.784 1.784 0 00.002 3.568zM152.358 129.345a1.783 1.783 0 10-.001-3.567 1.783 1.783 0 00.001 3.567zM164.837 129.345a1.783 1.783 0 10-.001-3.567 1.783 1.783 0 00.001 3.567zM177.317 129.345a1.783 1.783 0 10-.003-3.567 1.783 1.783 0 00.003 3.567zM189.796 129.345a1.783 1.783 0 10-.001-3.567 1.783 1.783 0 00.001 3.567zM202.275 129.345a1.783 1.783 0 10-.001-3.567 1.783 1.783 0 00.001 3.567zM214.755 129.345a1.783 1.783 0 10-.003-3.567 1.783 1.783 0 00.003 3.567zM227.234 129.345a1.784 1.784 0 10-.002-3.568 1.784 1.784 0 00.002 3.568zM239.713 129.345a1.783 1.783 0 10-.001-3.567 1.783 1.783 0 00.001 3.567zM252.192 129.345a1.783 1.783 0 10-.001-3.567 1.783 1.783 0 00.001 3.567zM264.672 129.345a1.784 1.784 0 10-.002-3.568 1.784 1.784 0 00.002 3.568zM277.151 129.345a1.783 1.783 0 10-.001-3.567 1.783 1.783 0 00.001 3.567zM289.63 129.345a1.783 1.783 0 10-.001-3.567 1.783 1.783 0 00.001 3.567zM302.11 129.345a1.783 1.783 0 10-.003-3.567 1.783 1.783 0 00.003 3.567zM314.589 129.345a1.783 1.783 0 10-.001-3.567 1.783 1.783 0 00.001 3.567zM327.068 129.345a1.783 1.783 0 10-.001-3.567 1.783 1.783 0 00.001 3.567zM339.547 129.345a1.783 1.783 0 10-.001-3.567 1.783 1.783 0 00.001 3.567zM352.027 129.345a1.784 1.784 0 10-.002-3.568 1.784 1.784 0 00.002 3.568zM364.506 129.345a1.783 1.783 0 10-.001-3.567 1.783 1.783 0 00.001 3.567zM376.985 129.345a1.783 1.783 0 10-.001-3.567 1.783 1.783 0 00.001 3.567z" fill="#62514B"/></svg>