<svg width="174" height="49" viewBox="0 0 174 49" fill="none" xmlns="http://www.w3.org/2000/svg">
<path fill-rule="evenodd" clip-rule="evenodd" d="M8.33268 19.3508L0 24.1504L8.33268 19.3508ZM0 33.7485L8.33317 38.5486V19.3484L16.6668 24.1479L25 28.948L33.3332 24.1479L41.6663 19.3484V28.9485L33.3337 33.7485L25.0005 38.5486V48.1482L33.3337 43.3481L41.6668 38.5481L50 33.748V4.94819L41.6673 9.74824L33.3346 14.5483L25.0015 19.3484L16.6688 14.5483L8.33512 9.74824V0.148193L0.00243824 4.94819V33.748L0 33.7485Z" fill="white"/>
<path d="M79.8249 22.1844L75.1307 17.1651H74V28.7557H77.1352V23.6043L79.6707 26.18H80.0134L82.566 23.6043V28.7557H85.7012V17.1651H84.6059L79.8249 22.1844ZM96.2374 17.1981H88.7507V28.7557H96.393V26.1302H91.8002V24.1002H95.8777V21.4747H91.8002V19.8398H96.2377L96.2374 17.1981ZM106.808 24.661C109.841 22.6797 108.984 17.2146 104.272 17.1981H99.0128V28.7557H102.079V25.3544H103.673L105.729 28.7557H109.155V28.3264L106.808 24.661ZM104.272 22.6962H102.079V19.8398C102.799 19.8398 103.553 19.8233 104.272 19.8398C106.02 19.8564 105.934 22.6962 104.272 22.6962ZM110.286 22.9769C110.303 26.9064 113.387 28.8877 116.436 28.8712C118.989 28.8712 121.679 27.5834 122.124 24.3143H119.109C118.783 25.5526 117.738 26.18 116.436 26.18C114.62 26.1635 113.455 24.6775 113.455 22.9769C113.455 21.0616 114.637 19.7559 116.436 19.7559C117.721 19.7559 118.629 20.2843 119.057 21.4565H122.073C121.61 18.369 118.92 17.0647 116.436 17.0647C113.387 17.066 110.303 19.0473 110.286 22.9769ZM134.459 17.1981H131.324V21.3919H127.624V17.1981H124.488V28.7557H127.624V24.1161H131.325V28.7557H134.46L134.459 17.1981ZM142.049 17.1981H137.527V28.7557H142.049C149.861 28.7226 149.861 17.2312 142.049 17.1981ZM140.592 19.8894H142.049C145.868 19.8894 145.868 26.0644 142.049 26.0644H140.592V19.8894ZM157.862 28.7557H160.86V28.3264L155.446 17.0495H154.126L148.73 28.3264V28.7557H151.728L152.43 27.3027H157.159L157.862 28.7557ZM156.148 24.7601H153.441L154.778 21.7221L156.148 24.7601ZM174 22.9934C174 15.0022 161.699 15.0022 161.699 22.9934C161.699 31.0022 174 31.0022 174 22.9934ZM164.851 22.9934C164.851 18.8327 170.865 18.8327 170.865 22.9934C170.865 27.1858 164.851 27.1858 164.851 22.9934Z" fill="white"/>
</svg>
