<svg width="294" height="80" viewBox="0 0 294 80" fill="none" xmlns="http://www.w3.org/2000/svg">
<path fill-rule="evenodd" clip-rule="evenodd" d="M14.0794 32.0044L0 40.0037L14.0794 32.0044ZM0 56.0005L14.0802 64.0006V32.0003L28.1612 39.9995L42.2414 47.9996L56.3216 39.9995L70.4017 32.0003V48.0004L56.3224 56.0005L42.2422 64.0006V80L56.3224 71.9999L70.4026 63.9998L84.4828 55.9997V7.99999L70.4034 16.0001L56.324 24.0002L42.2439 32.0003L28.1645 24.0002L14.0835 16.0001V0L0.00411978 7.99999V55.9997L0 56.0005Z" fill="white"/>
<path d="M134.877 36.7266L126.945 28.3611H125.034V47.6787H130.332V39.0931L134.616 43.3859H135.195L139.508 39.0931V47.6787H144.806V28.3611H142.955L134.877 36.7266ZM162.608 28.4162H149.958V47.6787H162.871V43.3029H155.111V39.9195H162V35.5437H155.111V32.819H162.609L162.608 28.4162ZM180.469 40.8543C185.594 37.5521 184.145 28.4437 176.184 28.4162H167.298V47.6787H172.479V42.01H175.171L178.645 47.6787H184.434V46.9632L180.469 40.8543ZM176.184 37.5796H172.479V32.819C173.695 32.819 174.969 32.7915 176.184 32.819C179.137 32.8465 178.992 37.5796 176.184 37.5796ZM186.345 38.0474C186.374 44.5967 191.584 47.8988 196.737 47.8713C201.05 47.8713 205.595 45.7249 206.348 40.2764H201.253C200.703 42.3402 198.937 43.3859 196.737 43.3859C193.669 43.3584 191.7 40.8818 191.7 38.0474C191.7 34.8553 193.698 32.6792 196.737 32.6792C198.908 32.6792 200.442 33.5597 201.166 35.5135H206.261C205.479 30.3677 200.934 28.1938 196.737 28.1938C191.584 28.196 186.374 31.4982 186.345 38.0474ZM227.19 28.4162H221.892V35.4057H215.641V28.4162H210.342V47.6787H215.641V39.9462H221.893V47.6787H227.191L227.19 28.4162ZM240.013 28.4162H232.373V47.6787H240.013C253.213 47.6237 253.213 28.4712 240.013 28.4162ZM237.553 32.9016H240.013C246.467 32.9016 246.467 43.1933 240.013 43.1933H237.553V32.9016ZM266.732 47.6787H271.797V46.9632L262.65 28.1685H260.42L251.303 46.9632V47.6787H256.368L257.555 45.2571H265.544L266.732 47.6787ZM263.837 41.0194H259.263L261.521 35.9561L263.837 41.0194ZM294 38.0749C294 24.7563 273.215 24.7563 273.215 38.0749C273.216 51.4229 294 51.4229 294 38.0749ZM278.542 38.0749C278.542 31.1404 288.703 31.1404 288.703 38.0749C288.703 45.0622 278.542 45.0622 278.542 38.0749Z" fill="white"/>
</svg>
