<svg width="83" height="628" viewBox="0 0 83 628" fill="none" xmlns="http://www.w3.org/2000/svg">
<path d="M2.90909 626.031L80 626.031L80 605.554L35.1307 605.554L35.1307 604.952L79.3977 587.787L79.3977 575.44L35.4318 558.276L35.4318 557.673L80 557.673L80 537.196L2.90908 537.196L2.90909 563.244L46.5739 581.162L46.5739 582.065L2.90909 599.983L2.90909 626.031ZM80 527.277L80 471.868L63.1364 471.868L63.1364 506.348L49.8864 506.348L49.8864 474.578L33.0227 474.578L33.0227 506.348L19.7727 506.348L19.7727 471.718L2.90908 471.718L2.90908 527.277L80 527.277ZM80 461.338L80 440.409L54.554 440.409L54.554 433.182L80 419.63L80 396.895L51.2415 412.554C47.2891 404.348 39.7983 399.454 29.1079 399.454C12.696 399.454 2.90908 410.935 2.90908 428.062L2.90908 461.338L80 461.338ZM38.2926 440.409L19.6221 440.409L19.6221 433.031C19.6221 425.691 22.4829 421.287 29.1079 421.287C35.6953 421.287 38.2926 425.691 38.2926 433.031L38.2926 440.409ZM31.8182 318.562C12.696 320.218 1.8551 334.221 1.8551 353.644C1.8551 374.422 15.7074 390.834 41.4545 390.834C67.0888 390.834 81.054 374.874 81.054 353.644C81.054 331.059 65.3949 319.616 52.2954 318.562L52.1449 339.792C58.7322 340.846 62.8352 345.513 62.8352 353.192C62.8352 363.393 55.6079 369.303 41.4545 369.303C28.054 369.303 20.0738 363.581 20.0738 353.042C20.0738 344.986 24.8167 340.394 31.8182 339.792L31.8182 318.562ZM80 309.066L80 288.137L49.8863 288.137L49.8863 260.433L80 260.433L80 239.504L2.90907 239.504L2.90907 260.433L33.0227 260.433L33.0227 288.137L2.90907 288.137L2.90907 309.066L80 309.066ZM80 199.904C80 176.416 65.5454 161.51 41.4545 161.51C17.3636 161.51 2.90907 176.416 2.90907 200.206L2.90907 229.566L80 229.566L80 199.904ZM62.2329 208.637L20.6761 208.637L20.6761 201.26C20.6761 189.214 25.3437 182.589 41.4545 182.589C57.5653 182.589 62.2329 189.214 62.2329 200.657L62.2329 208.637ZM80 136.666L65.2443 132.224L65.2443 106.778L80 102.336L80 79.7511L2.90907 105.197L2.90907 133.805L80 159.251L80 136.666ZM49.5852 127.481L24.1392 119.802L24.1392 119.2L49.5852 111.521L49.5852 127.481ZM41.4545 1.26739C15.7074 1.26739 1.85508 17.8299 1.85508 38.7589C1.85509 59.8384 15.7074 76.2504 41.4545 76.2504C67.0511 76.2504 81.054 59.8384 81.054 38.7589C81.054 17.8299 67.2017 1.26739 41.4545 1.26739ZM41.4545 22.7986C55.3068 22.7986 62.8352 28.3697 62.8352 38.7589C62.8352 49.1481 55.3068 54.7191 41.4545 54.7191C27.6022 54.7191 20.0738 49.1481 20.0738 38.7589C20.0738 28.3697 27.6022 22.7986 41.4545 22.7986Z" fill="white"/>
<path d="M2.90909 626.031L1.90909 626.031L1.90909 627.031L2.90909 627.031L2.90909 626.031ZM80 626.031L80 627.031L81 627.031L81 626.031L80 626.031ZM80 605.554L81 605.554L81 604.554L80 604.554L80 605.554ZM35.1307 605.554L34.1307 605.554L34.1307 606.554L35.1307 606.554L35.1307 605.554ZM35.1307 604.952L34.7692 604.019L34.1307 604.267L34.1307 604.952L35.1307 604.952ZM79.3977 587.787L79.7593 588.719L80.3977 588.472L80.3977 587.787L79.3977 587.787ZM79.3977 575.44L80.3977 575.44L80.3977 574.757L79.7614 574.509L79.3977 575.44ZM35.4318 558.276L34.4318 558.276L34.4318 558.959L35.0681 559.207L35.4318 558.276ZM35.4318 557.673L35.4318 556.673L34.4318 556.673L34.4318 557.673L35.4318 557.673ZM80 557.673L80 558.673L81 558.673L81 557.673L80 557.673ZM80 537.196L81 537.196L81 536.196L80 536.196L80 537.196ZM2.90908 537.196L2.90908 536.196L1.90908 536.196L1.90908 537.196L2.90908 537.196ZM2.90909 563.244L1.90909 563.244L1.90909 563.915L2.52946 564.169L2.90909 563.244ZM46.5739 581.162L47.5739 581.162L47.5739 580.491L46.9535 580.237L46.5739 581.162ZM46.5739 582.065L46.9535 582.99L47.5739 582.736L47.5739 582.065L46.5739 582.065ZM2.90909 599.983L2.52946 599.058L1.90909 599.312L1.90909 599.983L2.90909 599.983ZM2.90909 627.031L80 627.031L80 625.031L2.90909 625.031L2.90909 627.031ZM81 626.031L81 605.554L79 605.554L79 626.031L81 626.031ZM80 604.554L35.1307 604.554L35.1307 606.554L80 606.554L80 604.554ZM36.1307 605.554L36.1307 604.952L34.1307 604.952L34.1307 605.554L36.1307 605.554ZM35.4922 605.884L79.7593 588.719L79.0362 586.855L34.7692 604.019L35.4922 605.884ZM80.3977 587.787L80.3977 575.44L78.3977 575.44L78.3977 587.787L80.3977 587.787ZM79.7614 574.509L35.7955 557.344L35.0681 559.207L79.034 576.372L79.7614 574.509ZM36.4318 558.276L36.4318 557.673L34.4318 557.673L34.4318 558.276L36.4318 558.276ZM35.4318 558.673L80 558.673L80 556.673L35.4318 556.673L35.4318 558.673ZM81 557.673L81 537.196L79 537.196L79 557.673L81 557.673ZM80 536.196L2.90908 536.196L2.90908 538.196L80 538.196L80 536.196ZM1.90908 537.196L1.90909 563.244L3.90909 563.244L3.90908 537.196L1.90908 537.196ZM2.52946 564.169L46.1942 582.087L46.9535 580.237L3.28871 562.319L2.52946 564.169ZM45.5739 581.162L45.5739 582.065L47.5739 582.065L47.5739 581.162L45.5739 581.162ZM46.1942 581.14L2.52946 599.058L3.28871 600.908L46.9535 582.99L46.1942 581.14ZM1.90909 599.983L1.90909 626.031L3.90909 626.031L3.90909 599.983L1.90909 599.983ZM80 527.277L80 528.277L81 528.277L81 527.277L80 527.277ZM80 471.868L81 471.868L81 470.868L80 470.868L80 471.868ZM63.1364 471.868L63.1364 470.868L62.1364 470.868L62.1364 471.868L63.1364 471.868ZM63.1364 506.348L63.1364 507.348L64.1364 507.348L64.1364 506.348L63.1364 506.348ZM49.8864 506.348L48.8864 506.348L48.8864 507.348L49.8864 507.348L49.8864 506.348ZM49.8864 474.578L50.8864 474.578L50.8864 473.578L49.8864 473.578L49.8864 474.578ZM33.0227 474.578L33.0227 473.578L32.0227 473.578L32.0227 474.578L33.0227 474.578ZM33.0227 506.348L33.0227 507.348L34.0227 507.348L34.0227 506.348L33.0227 506.348ZM19.7727 506.348L18.7727 506.348L18.7727 507.348L19.7727 507.348L19.7727 506.348ZM19.7727 471.718L20.7727 471.718L20.7727 470.718L19.7727 470.718L19.7727 471.718ZM2.90908 471.718L2.90908 470.718L1.90908 470.718L1.90908 471.718L2.90908 471.718ZM2.90908 527.277L1.90908 527.277L1.90908 528.277L2.90908 528.277L2.90908 527.277ZM81 527.277L81 471.868L79 471.868L79 527.277L81 527.277ZM80 470.868L63.1364 470.868L63.1364 472.868L80 472.868L80 470.868ZM62.1364 471.868L62.1364 506.348L64.1364 506.348L64.1364 471.868L62.1364 471.868ZM63.1364 505.348L49.8864 505.348L49.8864 507.348L63.1364 507.348L63.1364 505.348ZM50.8864 506.348L50.8864 474.578L48.8864 474.578L48.8864 506.348L50.8864 506.348ZM49.8864 473.578L33.0227 473.578L33.0227 475.578L49.8864 475.578L49.8864 473.578ZM32.0227 474.578L32.0227 506.348L34.0227 506.348L34.0227 474.578L32.0227 474.578ZM33.0227 505.348L19.7727 505.348L19.7727 507.348L33.0227 507.348L33.0227 505.348ZM20.7727 506.348L20.7727 471.718L18.7727 471.718L18.7727 506.348L20.7727 506.348ZM19.7727 470.718L2.90908 470.718L2.90908 472.718L19.7727 472.718L19.7727 470.718ZM1.90908 471.718L1.90908 527.277L3.90908 527.277L3.90908 471.718L1.90908 471.718ZM2.90908 528.277L80 528.277L80 526.277L2.90908 526.277L2.90908 528.277ZM80 461.338L80 462.338L81 462.338L81 461.338L80 461.338ZM80 440.409L81 440.409L81 439.409L80 439.409L80 440.409ZM54.554 440.409L53.554 440.409L53.554 441.409L54.554 441.409L54.554 440.409ZM54.554 433.182L54.0839 432.299L53.554 432.581L53.554 433.182L54.554 433.182ZM80 419.631L80.47 420.513L81 420.231L81 419.631L80 419.631ZM80 396.895L81 396.895L81 395.212L79.5218 396.016L80 396.895ZM51.2415 412.554L50.3405 412.988L50.7966 413.935L51.7197 413.432L51.2415 412.554ZM2.90908 461.338L1.90908 461.338L1.90908 462.338L2.90908 462.338L2.90908 461.338ZM38.2926 440.409L38.2926 441.409L39.2926 441.409L39.2926 440.409L38.2926 440.409ZM19.6221 440.409L18.6221 440.409L18.6221 441.409L19.6221 441.409L19.6221 440.409ZM81 461.338L81 440.409L79 440.409L79 461.338L81 461.338ZM80 439.409L54.554 439.409L54.554 441.409L80 441.409L80 439.409ZM55.554 440.409L55.554 433.182L53.554 433.182L53.554 440.409L55.554 440.409ZM55.024 434.064L80.47 420.513L79.5299 418.748L54.0839 432.299L55.024 434.064ZM81 419.631L81 396.895L79 396.895L79 419.631L81 419.631ZM79.5218 396.016L50.7633 411.676L51.7197 413.432L80.4782 397.773L79.5218 396.016ZM52.1424 412.12C48.0131 403.547 40.1583 398.454 29.1079 398.454L29.1079 400.454C39.4383 400.454 46.565 405.149 50.3405 412.988L52.1424 412.12ZM29.1079 398.454C20.6553 398.454 13.8213 401.419 9.10988 406.668C4.41008 411.903 1.90908 419.314 1.90908 428.062L3.90908 428.062C3.90908 419.684 6.30155 412.79 10.5982 408.004C14.8832 403.23 21.1486 400.454 29.1079 400.454L29.1079 398.454ZM1.90908 428.062L1.90908 461.338L3.90908 461.338L3.90908 428.062L1.90908 428.062ZM2.90908 462.338L80 462.338L80 460.338L2.90908 460.338L2.90908 462.338ZM38.2926 439.409L19.6221 439.409L19.6221 441.409L38.2926 441.409L38.2926 439.409ZM20.6221 440.409L20.6221 433.031L18.6221 433.031L18.6221 440.409L20.6221 440.409ZM20.6221 433.031C20.6221 429.464 21.3218 426.784 22.6751 425.014C23.9906 423.293 26.0374 422.287 29.1079 422.287L29.1079 420.287C25.5535 420.287 22.8574 421.482 21.0863 423.799C19.3529 426.066 18.6221 429.258 18.6221 433.031L20.6221 433.031ZM29.1079 422.287C32.155 422.287 34.1174 423.289 35.3627 424.996C36.6527 426.764 37.2926 429.447 37.2926 433.031L39.2926 433.031C39.2926 429.275 38.6339 426.086 36.9784 423.817C35.2782 421.487 32.6482 420.287 29.1079 420.287L29.1079 422.287ZM37.2926 433.031L37.2926 440.409L39.2926 440.409L39.2926 433.031L37.2926 433.031ZM31.8182 318.562L32.8182 318.562L32.8182 317.471L31.7319 317.565L31.8182 318.562ZM52.2954 318.562L52.3756 317.565L51.3031 317.479L51.2955 318.555L52.2954 318.562ZM52.1449 339.792L51.1449 339.785L51.1388 340.643L51.9869 340.779L52.1449 339.792ZM31.8182 339.792L31.9039 340.788L32.8182 340.709L32.8182 339.792L31.8182 339.792ZM31.7319 317.565C21.9326 318.414 14.1852 322.439 8.89683 328.801C3.6175 335.152 0.855098 343.75 0.855098 353.644L2.8551 353.644C2.8551 344.115 5.51315 336 10.4348 330.079C15.3475 324.17 22.5816 320.365 31.9045 319.558L31.7319 317.565ZM0.855098 353.644C0.855099 364.257 4.39588 373.822 11.2915 380.737C18.1913 387.656 28.3622 391.834 41.4545 391.834L41.4545 389.834C28.7997 389.834 19.1708 385.806 12.7077 379.325C6.24046 372.839 2.8551 363.81 2.8551 353.644L0.855098 353.644ZM41.4545 391.834C54.4835 391.834 64.6546 387.774 71.5714 380.91C78.4861 374.049 82.054 364.48 82.054 353.644L80.054 353.644C80.054 364.038 76.6393 373.064 70.1627 379.491C63.6884 385.915 54.0598 389.834 41.4545 389.834L41.4545 391.834ZM82.054 353.644C82.054 330.507 65.9636 318.658 52.3756 317.565L52.2152 319.558C64.8261 320.573 80.054 331.61 80.054 353.644L82.054 353.644ZM51.2955 318.555L51.1449 339.785L53.1448 339.799L53.2954 318.569L51.2955 318.555ZM51.9869 340.779C55.0795 341.274 57.5166 342.602 59.1866 344.641C60.8593 346.684 61.8352 349.531 61.8352 353.192L63.8352 353.192C63.8352 349.174 62.7596 345.848 60.734 343.374C58.7056 340.897 55.7976 339.363 52.3029 338.804L51.9869 340.779ZM61.8352 353.192C61.8352 358.033 60.135 361.746 56.8424 364.281C53.5084 366.847 48.4137 368.303 41.4545 368.303L41.4545 370.303C48.6488 370.303 54.2444 368.804 58.0624 365.866C61.9218 362.895 63.8352 358.553 63.8352 353.192L61.8352 353.192ZM41.4545 368.303C34.8767 368.303 29.7731 366.896 26.3383 364.324C22.9451 361.784 21.0738 358.029 21.0738 353.042L19.0738 353.042C19.0738 358.594 21.1927 362.97 25.1396 365.925C29.0451 368.849 34.6318 370.303 41.4545 370.303L41.4545 368.303ZM21.0738 353.042C21.0738 349.214 22.1966 346.312 24.0549 344.3C25.9155 342.287 28.6014 341.072 31.9039 340.788L31.7325 338.795C28.0335 339.114 24.8473 340.496 22.586 342.943C20.3226 345.393 19.0738 348.814 19.0738 353.042L21.0738 353.042ZM32.8182 339.792L32.8182 318.562L30.8182 318.562L30.8182 339.792L32.8182 339.792ZM80 309.066L80 310.066L81 310.066L81 309.066L80 309.066ZM80 288.137L81 288.137L81 287.137L80 287.137L80 288.137ZM49.8863 288.137L48.8863 288.137L48.8863 289.137L49.8863 289.137L49.8863 288.137ZM49.8863 260.433L49.8863 259.433L48.8863 259.433L48.8863 260.433L49.8863 260.433ZM80 260.433L80 261.433L81 261.433L81 260.433L80 260.433ZM80 239.504L81 239.504L81 238.504L80 238.504L80 239.504ZM2.90907 239.504L2.90907 238.504L1.90907 238.504L1.90907 239.504L2.90907 239.504ZM2.90907 260.433L1.90907 260.433L1.90907 261.433L2.90907 261.433L2.90907 260.433ZM33.0227 260.433L34.0227 260.433L34.0227 259.433L33.0227 259.433L33.0227 260.433ZM33.0227 288.137L33.0227 289.137L34.0227 289.137L34.0227 288.137L33.0227 288.137ZM2.90907 288.137L2.90907 287.137L1.90907 287.137L1.90907 288.137L2.90907 288.137ZM2.90907 309.066L1.90907 309.066L1.90907 310.066L2.90907 310.066L2.90907 309.066ZM81 309.066L81 288.137L79 288.137L79 309.066L81 309.066ZM80 287.137L49.8863 287.137L49.8863 289.137L80 289.137L80 287.137ZM50.8863 288.137L50.8863 260.433L48.8863 260.433L48.8863 288.137L50.8863 288.137ZM49.8863 261.433L80 261.433L80 259.433L49.8863 259.433L49.8863 261.433ZM81 260.433L81 239.504L79 239.504L79 260.433L81 260.433ZM80 238.504L2.90907 238.504L2.90907 240.504L80 240.504L80 238.504ZM1.90907 239.504L1.90907 260.433L3.90907 260.433L3.90907 239.504L1.90907 239.504ZM2.90907 261.433L33.0227 261.433L33.0227 259.433L2.90907 259.433L2.90907 261.433ZM32.0227 260.433L32.0227 288.137L34.0227 288.137L34.0227 260.433L32.0227 260.433ZM33.0227 287.137L2.90907 287.137L2.90907 289.137L33.0227 289.137L33.0227 287.137ZM1.90907 288.137L1.90907 309.066L3.90907 309.066L3.90907 288.137L1.90907 288.137ZM2.90907 310.066L80 310.066L80 308.066L2.90907 308.066L2.90907 310.066ZM2.90907 229.566L1.90907 229.566L1.90907 230.566L2.90907 230.566L2.90907 229.566ZM80 229.566L80 230.566L81 230.566L81 229.566L80 229.566ZM62.2329 208.637L62.2329 209.637L63.2329 209.637L63.2329 208.637L62.2329 208.637ZM20.6761 208.637L19.6761 208.637L19.6761 209.637L20.6761 209.637L20.6761 208.637ZM81 199.904C81 187.954 77.3189 178.081 70.4704 171.194C63.6209 164.305 53.7089 160.51 41.4545 160.51L41.4545 162.51C53.2911 162.51 62.6518 166.167 69.0522 172.604C75.4538 179.042 79 188.367 79 199.904L81 199.904ZM41.4545 160.51C29.2001 160.51 19.2868 164.305 12.4366 171.233C5.58811 178.16 1.90907 188.108 1.90907 200.206L3.90907 200.206C3.90907 188.514 7.45729 179.114 13.8588 172.64C20.2587 166.167 29.6181 162.51 41.4545 162.51L41.4545 160.51ZM1.90907 200.206L1.90907 229.566L3.90907 229.566L3.90907 200.206L1.90907 200.206ZM2.90907 230.566L80 230.566L80 228.566L2.90907 228.566L2.90907 230.566ZM81 229.566L81 199.904L79 199.904L79 229.566L81 229.566ZM62.2329 207.637L20.6761 207.637L20.6761 209.637L62.2329 209.637L62.2329 207.637ZM21.6761 208.637L21.6761 201.26L19.6761 201.26L19.6761 208.637L21.6761 208.637ZM21.6761 201.26C21.6761 195.333 22.8305 190.998 25.7288 188.117C28.6322 185.23 33.5013 183.589 41.4545 183.589L41.4545 181.589C33.297 181.589 27.7769 183.26 24.3188 186.698C20.8556 190.141 19.6761 195.141 19.6761 201.26L21.6761 201.26ZM41.4545 183.589C49.4068 183.589 54.2831 185.23 57.1889 188.05C60.0837 190.859 61.2329 195.044 61.2329 200.657L63.2329 200.657C63.2329 194.828 62.0483 189.978 58.5817 186.614C55.1259 183.261 49.613 181.589 41.4545 181.589L41.4545 183.589ZM61.2329 200.657L61.2329 208.637L63.2329 208.637L63.2329 200.657L61.2329 200.657ZM80 136.666L81 136.666L81 135.923L80.2882 135.708L80 136.666ZM65.2443 132.224L64.2443 132.224L64.2443 132.967L64.9561 133.182L65.2443 132.224ZM65.2443 106.778L64.956 105.82L64.2443 106.035L64.2443 106.778L65.2443 106.778ZM80 102.336L80.2882 103.294L81 103.08L81 102.336L80 102.336ZM80 79.751L81 79.751L81 78.3679L79.6865 78.8014L80 79.751ZM2.90907 105.197L2.59562 104.247L1.90907 104.474L1.90907 105.197L2.90907 105.197ZM2.90907 133.805L1.90907 133.805L1.90907 134.528L2.59562 134.755L2.90907 133.805ZM80 159.251L79.6865 160.201L81 160.634L81 159.251L80 159.251ZM49.5852 127.481L49.2963 128.439L50.5852 128.827L50.5852 127.481L49.5852 127.481ZM24.1392 119.802L23.1392 119.802L23.1392 120.545L23.8503 120.76L24.1392 119.802ZM24.1392 119.2L23.8503 118.243L23.1392 118.457L23.1392 119.2L24.1392 119.2ZM49.5852 111.521L50.5852 111.521L50.5852 110.175L49.2963 110.564L49.5852 111.521ZM80.2882 135.708L65.5325 131.267L64.9561 133.182L79.7117 137.623L80.2882 135.708ZM66.2443 132.224L66.2443 106.778L64.2443 106.778L64.2443 132.224L66.2443 132.224ZM65.5325 107.736L80.2882 103.294L79.7117 101.379L64.956 105.82L65.5325 107.736ZM81 102.336L81 79.751L79 79.751L79 102.336L81 102.336ZM79.6865 78.8014L2.59562 104.247L3.22251 106.147L80.3134 80.7007L79.6865 78.8014ZM1.90907 105.197L1.90907 133.805L3.90907 133.805L3.90907 105.197L1.90907 105.197ZM2.59562 134.755L79.6865 160.201L80.3134 158.301L3.22251 132.855L2.59562 134.755ZM81 159.251L81 136.666L79 136.666L79 159.251L81 159.251ZM49.8741 126.524L24.4281 118.845L23.8503 120.76L49.2963 128.439L49.8741 126.524ZM25.1392 119.802L25.1392 119.2L23.1392 119.2L23.1392 119.802L25.1392 119.802ZM24.4281 120.157L49.8741 112.478L49.2963 110.564L23.8503 118.243L24.4281 120.157ZM48.5852 111.521L48.5852 127.481L50.5852 127.481L50.5852 111.521L48.5852 111.521ZM41.4545 0.267392C28.3595 0.267393 18.1877 4.48474 11.2886 11.4616C4.39437 18.4335 0.855084 28.0732 0.855084 38.7588L2.85508 38.7588C2.85508 28.5156 6.24193 19.4095 12.7107 12.8679C19.1744 6.3313 28.8024 2.26739 41.4545 2.26739L41.4545 0.267392ZM0.855084 38.7588C0.855085 49.5185 4.39356 59.1593 11.2895 66.1136C18.19 73.0723 28.3621 77.2504 41.4545 77.2504L41.4545 75.2504C28.7998 75.2504 19.1722 71.2224 12.7097 64.7053C6.24275 58.1837 2.85508 49.0788 2.85508 38.7588L0.855084 38.7588ZM41.4545 77.2504C54.473 77.2504 64.6439 73.0715 71.562 66.1146C78.476 59.1617 82.054 49.5214 82.054 38.7588L80.054 38.7588C80.054 49.0759 76.6305 58.1813 70.1439 64.7043C63.6614 71.2232 54.0326 75.2504 41.4545 75.2504L41.4545 77.2504ZM82.054 38.7588C82.054 28.0732 78.5147 18.4335 71.6205 11.4616C64.7213 4.48474 54.5496 0.267392 41.4545 0.267392L41.4545 2.26739C54.1066 2.26739 63.7346 6.3313 70.1984 12.8679C76.6671 19.4095 80.054 28.5156 80.054 38.7588L82.054 38.7588ZM41.4545 23.7986C48.27 23.7986 53.3695 25.1728 56.7421 27.6848C60.0675 30.1615 61.8352 33.834 61.8352 38.7588L63.8352 38.7588C63.8352 33.2945 61.8387 28.9869 57.9368 26.0808C54.0822 23.21 48.4913 21.7986 41.4545 21.7986L41.4545 23.7986ZM61.8352 38.7588C61.8352 43.6837 60.0675 47.3562 56.7421 49.8329C53.3695 52.3449 48.27 53.7191 41.4545 53.7191L41.4545 55.7191C48.4913 55.7191 54.0822 54.3078 57.9368 51.4369C61.8387 48.5308 63.8352 44.2232 63.8352 38.7588L61.8352 38.7588ZM41.4545 53.7191C34.639 53.7191 29.5396 52.3449 26.1669 49.8329C22.8415 47.3562 21.0738 43.6837 21.0738 38.7588L19.0738 38.7588C19.0738 44.2232 21.0704 48.5308 24.9723 51.4369C28.8268 54.3078 34.4177 55.7191 41.4545 55.7191L41.4545 53.7191ZM21.0738 38.7588C21.0738 33.834 22.8415 30.1615 26.1669 27.6848C29.5396 25.1728 34.639 23.7986 41.4545 23.7986L41.4545 21.7986C34.4177 21.7986 28.8268 23.21 24.9723 26.0808C21.0704 28.9869 19.0738 33.2945 19.0738 38.7588L21.0738 38.7588Z" fill="url(#paint0_linear)"/>
<defs>
<linearGradient id="paint0_linear" x1="-23" y1="631" x2="-23" y2="-20" gradientUnits="userSpaceOnUse">
<stop stop-color="#F96D8C"/>
<stop offset="1" stop-color="#FBD862"/>
</linearGradient>
</defs>
</svg>
