<svg width="246" height="148" fill="none" xmlns="http://www.w3.org/2000/svg"><path fill="#C4C4C4" fill-opacity=".3" d="M12.219 0h1.629v1.626h-1.629zM24.437 0h1.629v1.626h-1.629zM36.656 0h1.629v1.626h-1.629zM48.874 0h1.629v1.626h-1.629zM61.093 0h1.629v1.626h-1.629zM73.311 0h1.629v1.626h-1.629zM85.53 0h1.629v1.626H85.53zM97.748 0h1.629v1.626h-1.629zM109.967 0h1.629v1.626h-1.629zM122.185 0h1.629v1.626h-1.629zM134.404 0h1.629v1.626h-1.629zM146.622 0h1.629v1.626h-1.629zM158.841 0h1.629v1.626h-1.629zM171.06 0h1.629v1.626h-1.629zM183.278 0h1.629v1.626h-1.629zM195.497 0h1.629v1.626h-1.629zM207.715 0h1.629v1.626h-1.629zM219.934 0h1.629v1.626h-1.629zM232.152 0h1.629v1.626h-1.629zM244.371 0H246v1.626h-1.629zM0 12.198h1.629v1.626H0zM12.219 12.198h1.629v1.626h-1.629zM24.437 12.198h1.629v1.626h-1.629zM36.656 12.198h1.629v1.626h-1.629zM48.874 12.198h1.629v1.626h-1.629zM61.093 12.198h1.629v1.626h-1.629zM73.311 12.198h1.629v1.626h-1.629zM85.53 12.198h1.629v1.626H85.53zM97.748 12.198h1.629v1.626h-1.629zM109.967 12.198h1.629v1.626h-1.629zM122.185 12.198h1.629v1.626h-1.629zM134.404 12.198h1.629v1.626h-1.629zM146.622 12.198h1.629v1.626h-1.629zM158.841 12.198h1.629v1.626h-1.629zM171.06 12.198h1.629v1.626h-1.629zM183.278 12.198h1.629v1.626h-1.629zM195.497 12.198h1.629v1.626h-1.629zM207.715 12.198h1.629v1.626h-1.629zM219.934 12.198h1.629v1.626h-1.629zM232.152 12.198h1.629v1.626h-1.629zM244.371 12.198H246v1.626h-1.629zM0 24.395h1.629v1.626H0zM12.219 24.395h1.629v1.626h-1.629zM24.437 24.395h1.629v1.626h-1.629zM36.656 24.395h1.629v1.626h-1.629zM48.874 24.395h1.629v1.626h-1.629zM61.093 24.395h1.629v1.626h-1.629zM73.311 24.395h1.629v1.626h-1.629zM85.53 24.395h1.629v1.626H85.53zM97.748 24.395h1.629v1.626h-1.629zM109.967 24.395h1.629v1.626h-1.629zM122.185 24.395h1.629v1.626h-1.629zM134.404 24.395h1.629v1.626h-1.629zM146.622 24.395h1.629v1.626h-1.629zM158.841 24.395h1.629v1.626h-1.629zM171.06 24.395h1.629v1.626h-1.629zM183.278 24.395h1.629v1.626h-1.629zM195.497 24.395h1.629v1.626h-1.629zM207.715 24.395h1.629v1.626h-1.629zM219.934 24.395h1.629v1.626h-1.629zM232.152 24.395h1.629v1.626h-1.629zM244.371 24.395H246v1.626h-1.629zM0 36.593h1.629v1.626H0zM12.219 36.593h1.629v1.626h-1.629zM24.437 36.593h1.629v1.626h-1.629zM36.656 36.593h1.629v1.626h-1.629zM48.874 36.593h1.629v1.626h-1.629zM61.093 36.593h1.629v1.626h-1.629zM73.311 36.593h1.629v1.626h-1.629zM85.53 36.593h1.629v1.626H85.53zM97.748 36.593h1.629v1.626h-1.629zM109.967 36.593h1.629v1.626h-1.629zM122.185 36.593h1.629v1.626h-1.629zM134.404 36.593h1.629v1.626h-1.629zM146.622 36.593h1.629v1.626h-1.629zM158.841 36.593h1.629v1.626h-1.629zM171.06 36.593h1.629v1.626h-1.629zM183.278 36.593h1.629v1.626h-1.629zM195.497 36.593h1.629v1.626h-1.629zM207.715 36.593h1.629v1.626h-1.629zM219.934 36.593h1.629v1.626h-1.629zM232.152 36.593h1.629v1.626h-1.629zM244.371 36.593H246v1.626h-1.629zM0 48.791h1.629v1.626H0zM12.219 48.791h1.629v1.626h-1.629zM24.437 48.791h1.629v1.626h-1.629zM36.656 48.791h1.629v1.626h-1.629zM48.874 48.791h1.629v1.626h-1.629zM61.093 48.791h1.629v1.626h-1.629zM73.311 48.791h1.629v1.626h-1.629zM85.53 48.791h1.629v1.626H85.53zM97.748 48.791h1.629v1.626h-1.629zM109.967 48.791h1.629v1.626h-1.629zM122.185 48.791h1.629v1.626h-1.629zM134.404 48.791h1.629v1.626h-1.629zM146.622 48.791h1.629v1.626h-1.629zM158.841 48.791h1.629v1.626h-1.629zM171.06 48.791h1.629v1.626h-1.629zM183.278 48.791h1.629v1.626h-1.629zM195.497 48.791h1.629v1.626h-1.629zM207.715 48.791h1.629v1.626h-1.629zM219.934 48.791h1.629v1.626h-1.629zM232.152 48.791h1.629v1.626h-1.629zM244.371 48.791H246v1.626h-1.629zM0 60.989h1.629v1.626H0zM12.219 60.989h1.629v1.626h-1.629zM24.437 60.989h1.629v1.626h-1.629zM36.656 60.989h1.629v1.626h-1.629zM48.874 60.989h1.629v1.626h-1.629zM61.093 60.989h1.629v1.626h-1.629zM73.311 60.989h1.629v1.626h-1.629zM85.53 60.989h1.629v1.626H85.53zM97.748 60.989h1.629v1.626h-1.629zM109.967 60.989h1.629v1.626h-1.629zM122.185 60.989h1.629v1.626h-1.629zM134.404 60.989h1.629v1.626h-1.629zM146.622 60.989h1.629v1.626h-1.629zM158.841 60.989h1.629v1.626h-1.629zM171.06 60.989h1.629v1.626h-1.629zM183.278 60.989h1.629v1.626h-1.629zM195.497 60.989h1.629v1.626h-1.629zM207.715 60.989h1.629v1.626h-1.629zM219.934 60.989h1.629v1.626h-1.629zM232.152 60.989h1.629v1.626h-1.629zM244.371 60.989H246v1.626h-1.629zM0 73.187h1.629v1.626H0zM12.219 73.187h1.629v1.626h-1.629zM24.437 73.187h1.629v1.626h-1.629zM36.656 73.187h1.629v1.626h-1.629zM48.874 73.187h1.629v1.626h-1.629zM61.093 73.187h1.629v1.626h-1.629zM73.311 73.187h1.629v1.626h-1.629zM85.53 73.187h1.629v1.626H85.53zM97.748 73.187h1.629v1.626h-1.629zM109.967 73.187h1.629v1.626h-1.629zM122.185 73.187h1.629v1.626h-1.629zM134.404 73.187h1.629v1.626h-1.629zM146.622 73.187h1.629v1.626h-1.629zM158.841 73.187h1.629v1.626h-1.629zM171.06 73.187h1.629v1.626h-1.629zM183.278 73.187h1.629v1.626h-1.629zM195.497 73.187h1.629v1.626h-1.629zM207.715 73.187h1.629v1.626h-1.629zM219.934 73.187h1.629v1.626h-1.629zM232.152 73.187h1.629v1.626h-1.629zM244.371 73.187H246v1.626h-1.629zM0 85.385h1.629v1.626H0zM12.219 85.385h1.629v1.626h-1.629zM24.437 85.385h1.629v1.626h-1.629zM36.656 85.385h1.629v1.626h-1.629zM48.874 85.385h1.629v1.626h-1.629zM61.093 85.385h1.629v1.626h-1.629zM73.311 85.385h1.629v1.626h-1.629zM85.53 85.385h1.629v1.626H85.53zM97.748 85.385h1.629v1.626h-1.629zM109.967 85.385h1.629v1.626h-1.629zM122.185 85.385h1.629v1.626h-1.629zM134.404 85.385h1.629v1.626h-1.629zM146.622 85.385h1.629v1.626h-1.629zM158.841 85.385h1.629v1.626h-1.629zM171.06 85.385h1.629v1.626h-1.629zM183.278 85.385h1.629v1.626h-1.629zM195.497 85.385h1.629v1.626h-1.629zM207.715 85.385h1.629v1.626h-1.629zM219.934 85.385h1.629v1.626h-1.629zM232.152 85.385h1.629v1.626h-1.629zM244.371 85.385H246v1.626h-1.629zM0 97.582h1.629v1.626H0zM12.219 97.582h1.629v1.626h-1.629zM24.437 97.582h1.629v1.626h-1.629zM36.656 97.582h1.629v1.626h-1.629zM48.874 97.582h1.629v1.626h-1.629zM61.093 97.582h1.629v1.626h-1.629zM73.311 97.582h1.629v1.626h-1.629zM85.53 97.582h1.629v1.626H85.53zM97.748 97.582h1.629v1.626h-1.629zM109.967 97.582h1.629v1.626h-1.629zM122.185 97.582h1.629v1.626h-1.629zM134.404 97.582h1.629v1.626h-1.629zM146.622 97.582h1.629v1.626h-1.629zM158.841 97.582h1.629v1.626h-1.629zM171.06 97.582h1.629v1.626h-1.629zM183.278 97.582h1.629v1.626h-1.629zM195.497 97.582h1.629v1.626h-1.629zM207.715 97.582h1.629v1.626h-1.629zM219.934 97.582h1.629v1.626h-1.629zM232.152 97.582h1.629v1.626h-1.629zM244.371 97.582H246v1.626h-1.629zM0 109.78h1.629v1.626H0zM12.219 109.78h1.629v1.626h-1.629zM24.437 109.78h1.629v1.626h-1.629zM36.656 109.78h1.629v1.626h-1.629zM48.874 109.78h1.629v1.626h-1.629zM61.093 109.78h1.629v1.626h-1.629zM73.311 109.78h1.629v1.626h-1.629zM85.53 109.78h1.629v1.626H85.53zM97.748 109.78h1.629v1.626h-1.629zM109.967 109.78h1.629v1.626h-1.629zM122.185 109.78h1.629v1.626h-1.629zM134.404 109.78h1.629v1.626h-1.629zM146.622 109.78h1.629v1.626h-1.629zM158.841 109.78h1.629v1.626h-1.629zM171.06 109.78h1.629v1.626h-1.629zM183.278 109.78h1.629v1.626h-1.629zM195.497 109.78h1.629v1.626h-1.629zM207.715 109.78h1.629v1.626h-1.629zM219.934 109.78h1.629v1.626h-1.629zM232.152 109.78h1.629v1.626h-1.629zM244.371 109.78H246v1.626h-1.629zM0 121.978h1.629v1.626H0zM12.219 121.978h1.629v1.626h-1.629zM24.437 121.978h1.629v1.626h-1.629zM36.656 121.978h1.629v1.626h-1.629zM48.874 121.978h1.629v1.626h-1.629zM61.093 121.978h1.629v1.626h-1.629zM73.311 121.978h1.629v1.626h-1.629zM85.53 121.978h1.629v1.626H85.53zM97.748 121.978h1.629v1.626h-1.629zM109.967 121.978h1.629v1.626h-1.629zM122.185 121.978h1.629v1.626h-1.629zM134.404 121.978h1.629v1.626h-1.629zM146.622 121.978h1.629v1.626h-1.629zM158.841 121.978h1.629v1.626h-1.629zM171.06 121.978h1.629v1.626h-1.629zM183.278 121.978h1.629v1.626h-1.629zM195.497 121.978h1.629v1.626h-1.629zM207.715 121.978h1.629v1.626h-1.629zM219.934 121.978h1.629v1.626h-1.629zM232.152 121.978h1.629v1.626h-1.629zM244.371 121.978H246v1.626h-1.629zM0 134.176h1.629v1.626H0zM12.219 134.176h1.629v1.626h-1.629zM24.437 134.176h1.629v1.626h-1.629zM36.656 134.176h1.629v1.626h-1.629zM48.874 134.176h1.629v1.626h-1.629zM61.093 134.176h1.629v1.626h-1.629zM73.311 134.176h1.629v1.626h-1.629zM85.53 134.176h1.629v1.626H85.53zM97.748 134.176h1.629v1.626h-1.629zM109.967 134.176h1.629v1.626h-1.629zM122.185 134.176h1.629v1.626h-1.629zM134.404 134.176h1.629v1.626h-1.629zM146.622 134.176h1.629v1.626h-1.629zM158.841 134.176h1.629v1.626h-1.629zM171.06 134.176h1.629v1.626h-1.629zM183.278 134.176h1.629v1.626h-1.629zM195.497 134.176h1.629v1.626h-1.629zM207.715 134.176h1.629v1.626h-1.629zM219.934 134.176h1.629v1.626h-1.629zM232.152 134.176h1.629v1.626h-1.629zM244.371 134.176H246v1.626h-1.629zM12.219 146.374h1.629V148h-1.629zM24.437 146.374h1.629V148h-1.629zM36.656 146.374h1.629V148h-1.629zM48.874 146.374h1.629V148h-1.629zM61.093 146.374h1.629V148h-1.629zM73.311 146.374h1.629V148h-1.629zM85.53 146.374h1.629V148H85.53zM97.748 146.374h1.629V148h-1.629zM109.967 146.374h1.629V148h-1.629zM122.185 146.374h1.629V148h-1.629zM134.404 146.374h1.629V148h-1.629zM146.622 146.374h1.629V148h-1.629zM158.841 146.374h1.629V148h-1.629zM171.06 146.374h1.629V148h-1.629zM183.278 146.374h1.629V148h-1.629zM195.497 146.374h1.629V148h-1.629zM207.715 146.374h1.629V148h-1.629zM219.934 146.374h1.629V148h-1.629zM232.152 146.374h1.629V148h-1.629zM244.371 146.374H246V148h-1.629z"/></svg>