<svg width="32" height="32" viewBox="0 0 32 32" fill="none" xmlns="http://www.w3.org/2000/svg">
<path d="M16 29.3332C8.63601 29.3332 2.66667 23.3638 2.66667 15.9998C2.66667 8.63584 8.63601 2.6665 16 2.6665C23.364 2.6665 29.3333 8.63584 29.3333 15.9998C29.3333 23.3638 23.364 29.3332 16 29.3332ZM24.8933 15.9998C24.8796 15.6245 24.7576 15.2612 24.5421 14.9537C24.3265 14.6461 24.0266 14.4075 23.6785 14.2666C23.3304 14.1256 22.9489 14.0884 22.5801 14.1594C22.2114 14.2303 21.871 14.4064 21.6 14.6665C20.0832 13.6355 18.3003 13.0658 16.4667 13.0265L17.3333 8.8665L20.1867 9.4665C20.2206 9.78181 20.3658 10.0747 20.5962 10.2926C20.8266 10.5105 21.1271 10.6392 21.4438 10.6555C21.7606 10.6718 22.0727 10.5746 22.3243 10.3815C22.5758 10.1884 22.7503 9.91197 22.8164 9.6018C22.8825 9.29164 22.8359 8.96807 22.6849 8.68918C22.534 8.41029 22.2885 8.19433 21.9927 8.08009C21.6969 7.96584 21.37 7.96078 21.0708 8.06581C20.7715 8.17084 20.5195 8.37909 20.36 8.65317L17.0933 7.99984C17.0399 7.98812 16.9847 7.98712 16.9309 7.99689C16.8771 8.00667 16.8257 8.02703 16.7798 8.0568C16.7339 8.08656 16.6944 8.12514 16.6636 8.17029C16.6327 8.21545 16.6111 8.26628 16.6 8.31984L15.6133 12.9465C13.7572 12.9745 11.9497 13.5445 10.4133 14.5865C10.2078 14.3931 9.96265 14.2467 9.69491 14.1575C9.42716 14.0682 9.14322 14.0383 8.86274 14.0697C8.58227 14.1011 8.31198 14.1931 8.07061 14.3394C7.82923 14.4856 7.62254 14.6826 7.46486 14.9167C7.30718 15.1507 7.20229 15.4163 7.15744 15.6949C7.11259 15.9736 7.12887 16.2586 7.20514 16.5304C7.28141 16.8021 7.41586 17.054 7.59915 17.2686C7.78245 17.4832 8.01022 17.6553 8.26667 17.7732C8.25166 17.9684 8.25166 18.1646 8.26667 18.3598C8.26667 21.3465 11.7467 23.7732 16.04 23.7732C20.3333 23.7732 23.8133 21.3465 23.8133 18.3598C23.8284 18.1646 23.8284 17.9684 23.8133 17.7732C24.1424 17.6096 24.4184 17.3563 24.6095 17.0425C24.8006 16.7287 24.899 16.3672 24.8933 15.9998ZM11.56 17.3332C11.56 16.9795 11.7005 16.6404 11.9505 16.3904C12.2006 16.1403 12.5397 15.9998 12.8933 15.9998C13.247 15.9998 13.5861 16.1403 13.8361 16.3904C14.0862 16.6404 14.2267 16.9795 14.2267 17.3332C14.2267 17.6868 14.0862 18.0259 13.8361 18.276C13.5861 18.526 13.247 18.6665 12.8933 18.6665C12.5397 18.6665 12.2006 18.526 11.9505 18.276C11.7005 18.0259 11.56 17.6868 11.56 17.3332ZM19.3067 20.9998C18.3607 21.7127 17.1968 22.0755 16.0133 22.0265C14.8299 22.0755 13.666 21.7127 12.72 20.9998C12.6633 20.9308 12.6343 20.8431 12.6387 20.7538C12.6431 20.6645 12.6805 20.5801 12.7437 20.5169C12.8069 20.4537 12.8914 20.4163 12.9806 20.4119C13.0699 20.4075 13.1576 20.4365 13.2267 20.4932C14.0283 21.0812 15.0068 21.3775 16 21.3332C16.9944 21.3872 17.9775 21.1003 18.7867 20.5198C18.8208 20.4816 18.8624 20.4509 18.9089 20.4294C18.9554 20.408 19.0058 20.3964 19.057 20.3952C19.1082 20.3941 19.159 20.4035 19.2064 20.4229C19.2538 20.4423 19.2967 20.4712 19.3325 20.5079C19.3682 20.5445 19.396 20.5881 19.4142 20.636C19.4324 20.6839 19.4405 20.735 19.4381 20.7861C19.4357 20.8373 19.4227 20.8874 19.4001 20.9333C19.3775 20.9792 19.3457 21.02 19.3067 21.0532V20.9998ZM19.0667 18.7198C18.803 18.7198 18.5452 18.6416 18.3259 18.4951C18.1066 18.3486 17.9358 18.1404 17.8348 17.8967C17.7339 17.6531 17.7075 17.385 17.759 17.1264C17.8104 16.8677 17.9374 16.6302 18.1239 16.4437C18.3103 16.2572 18.5479 16.1302 18.8066 16.0788C19.0652 16.0273 19.3333 16.0537 19.5769 16.1547C19.8206 16.2556 20.0288 16.4265 20.1753 16.6457C20.3218 16.865 20.4 17.1228 20.4 17.3865C20.4072 17.5672 20.3777 17.7474 20.3131 17.9163C20.2485 18.0852 20.1502 18.2391 20.0242 18.3688C19.8983 18.4985 19.7473 18.6013 19.5803 18.6708C19.4134 18.7403 19.2341 18.7751 19.0533 18.7732L19.0667 18.7198Z" fill="white"/>
</svg>
