<svg width="557" height="210" viewBox="0 0 557 210" fill="none" xmlns="http://www.w3.org/2000/svg">
<path fill-rule="evenodd" clip-rule="evenodd" d="M339.63 94.6785L278.902 -8.01396C278.902 -8.01429 278.902 -8.01467 278.902 -8.01505C278.902 -8.01725 278.905 -8.01804 278.906 -8.01615L339.63 94.6785ZM157.438 -8.0167C157.438 -8.01699 157.438 -8.01709 157.438 -8.01684L116.392 61.3983C107.696 76.103 118.296 94.685 135.379 94.685L280.03 94.685C306.36 94.685 322.697 123.324 309.297 145.989L278.902 197.397L228.403 282.801C222.091 293.475 222.091 306.739 228.403 317.412L278.902 402.809L309.293 454.205C322.695 476.869 306.357 505.51 280.027 505.51L237.564 505.51C225.543 505.51 214.416 499.163 208.298 488.816L157.441 402.809L106.579 316.8C100.46 306.454 89.3335 300.107 77.3132 300.107L34.8524 300.107C8.52179 300.107 -7.81579 328.747 5.586 351.412L35.9774 402.809L96.7071 505.51L147.565 591.526C153.684 601.874 164.811 608.222 176.832 608.222L462.221 608.222C488.551 608.222 504.889 579.582 491.488 556.918L461.093 505.51L400.359 402.809L349.863 317.411C343.552 306.738 343.551 293.475 349.862 282.802L400.359 197.397L451.217 111.381C457.335 101.033 468.463 94.685 480.484 94.685L522.945 94.685C549.276 94.685 565.613 66.0432 552.21 43.3784L521.824 -8.00638C521.823 -8.0074 521.823 -8.00857 521.823 -8.00976C521.823 -8.01344 521.82 -8.01642 521.816 -8.01642L157.439 -8.01642C157.438 -8.01642 157.438 -8.01655 157.438 -8.0167Z" fill="url(#paint0_linear)"/>
<defs>
<linearGradient id="paint0_linear" x1="582.551" y1="-8.02295" x2="582.551" y2="608.222" gradientUnits="userSpaceOnUse">
<stop stop-color="#F96D8C"/>
<stop offset="1" stop-color="#FBD862"/>
</linearGradient>
</defs>
</svg>
