<svg width="773" height="151" viewBox="0 0 773 151" fill="none" xmlns="http://www.w3.org/2000/svg">
<rect width="773" height="151" rx="24" fill="url(#paint0_linear)"/>
<rect x="31" y="15.5668" width="1.56688" height="1.56066" transform="rotate(-90 31 15.5668)" fill="white" fill-opacity="0.6"/>
<rect x="44.5497" y="15.5668" width="1.56688" height="1.56066" transform="rotate(-90 44.5497 15.5668)" fill="white" fill-opacity="0.6"/>
<rect x="58.0994" y="15.5668" width="1.56688" height="1.56066" transform="rotate(-90 58.0994 15.5668)" fill="white" fill-opacity="0.6"/>
<rect x="71.6492" y="15.5668" width="1.56688" height="1.56066" transform="rotate(-90 71.6492 15.5668)" fill="white" fill-opacity="0.6"/>
<rect x="85.1989" y="15.5668" width="1.56688" height="1.56066" transform="rotate(-90 85.1989 15.5668)" fill="white" fill-opacity="0.6"/>
<rect x="98.7486" y="15.5668" width="1.56688" height="1.56066" transform="rotate(-90 98.7486 15.5668)" fill="white" fill-opacity="0.6"/>
<rect x="112.298" y="15.5668" width="1.56688" height="1.56066" transform="rotate(-90 112.298 15.5668)" fill="white" fill-opacity="0.6"/>
<rect x="125.848" y="15.5668" width="1.56688" height="1.56066" transform="rotate(-90 125.848 15.5668)" fill="white" fill-opacity="0.6"/>
<rect x="139.398" y="15.5668" width="1.56688" height="1.56066" transform="rotate(-90 139.398 15.5668)" fill="white" fill-opacity="0.6"/>
<rect x="152.948" y="15.5668" width="1.56688" height="1.56066" transform="rotate(-90 152.948 15.5668)" fill="white" fill-opacity="0.6"/>
<rect x="166.497" y="15.5668" width="1.56688" height="1.56066" transform="rotate(-90 166.497 15.5668)" fill="white" fill-opacity="0.6"/>
<rect x="180.047" y="15.5668" width="1.56688" height="1.56066" transform="rotate(-90 180.047 15.5668)" fill="white" fill-opacity="0.6"/>
<rect x="193.597" y="15.5668" width="1.56688" height="1.56066" transform="rotate(-90 193.597 15.5668)" fill="white" fill-opacity="0.6"/>
<rect x="207.146" y="15.5668" width="1.56688" height="1.56066" transform="rotate(-90 207.146 15.5668)" fill="white" fill-opacity="0.6"/>
<rect x="220.696" y="15.5668" width="1.56688" height="1.56066" transform="rotate(-90 220.696 15.5668)" fill="white" fill-opacity="0.6"/>
<rect x="234.246" y="15.5668" width="1.56688" height="1.56066" transform="rotate(-90 234.246 15.5668)" fill="white" fill-opacity="0.6"/>
<rect x="247.796" y="15.5668" width="1.56688" height="1.56066" transform="rotate(-90 247.796 15.5668)" fill="white" fill-opacity="0.6"/>
<rect x="261.345" y="15.5668" width="1.56688" height="1.56066" transform="rotate(-90 261.345 15.5668)" fill="white" fill-opacity="0.6"/>
<rect x="274.895" y="15.5668" width="1.56688" height="1.56066" transform="rotate(-90 274.895 15.5668)" fill="white" fill-opacity="0.6"/>
<rect x="288.445" y="15.5668" width="1.56688" height="1.56066" transform="rotate(-90 288.445 15.5668)" fill="white" fill-opacity="0.6"/>
<rect x="301.995" y="15.5668" width="1.56688" height="1.56066" transform="rotate(-90 301.995 15.5668)" fill="white" fill-opacity="0.6"/>
<rect x="315.544" y="15.5668" width="1.56688" height="1.56066" transform="rotate(-90 315.544 15.5668)" fill="white" fill-opacity="0.6"/>
<rect x="329.094" y="15.5668" width="1.56688" height="1.56066" transform="rotate(-90 329.094 15.5668)" fill="white" fill-opacity="0.6"/>
<rect x="342.644" y="15.5668" width="1.56688" height="1.56066" transform="rotate(-90 342.644 15.5668)" fill="white" fill-opacity="0.6"/>
<rect x="356.193" y="15.5668" width="1.56688" height="1.56066" transform="rotate(-90 356.193 15.5668)" fill="white" fill-opacity="0.6"/>
<rect x="369.743" y="15.5668" width="1.56688" height="1.56066" transform="rotate(-90 369.743 15.5668)" fill="white" fill-opacity="0.6"/>
<rect x="383.293" y="15.5668" width="1.56688" height="1.56066" transform="rotate(-90 383.293 15.5668)" fill="white" fill-opacity="0.6"/>
<rect x="396.843" y="15.5668" width="1.56688" height="1.56066" transform="rotate(-90 396.843 15.5668)" fill="white" fill-opacity="0.6"/>
<rect x="410.392" y="15.5668" width="1.56688" height="1.56066" transform="rotate(-90 410.392 15.5668)" fill="white" fill-opacity="0.6"/>
<rect x="423.942" y="15.5668" width="1.56688" height="1.56066" transform="rotate(-90 423.942 15.5668)" fill="white" fill-opacity="0.6"/>
<rect x="437.492" y="15.5668" width="1.56688" height="1.56066" transform="rotate(-90 437.492 15.5668)" fill="white" fill-opacity="0.6"/>
<rect x="451.042" y="15.5668" width="1.56688" height="1.56066" transform="rotate(-90 451.042 15.5668)" fill="white" fill-opacity="0.6"/>
<rect x="464.591" y="15.5668" width="1.56688" height="1.56066" transform="rotate(-90 464.591 15.5668)" fill="white" fill-opacity="0.6"/>
<rect x="478.141" y="15.5668" width="1.56688" height="1.56066" transform="rotate(-90 478.141 15.5668)" fill="white" fill-opacity="0.6"/>
<rect x="491.691" y="15.5668" width="1.56688" height="1.56066" transform="rotate(-90 491.691 15.5668)" fill="white" fill-opacity="0.6"/>
<rect x="505.24" y="15.5668" width="1.56688" height="1.56066" transform="rotate(-90 505.24 15.5668)" fill="white" fill-opacity="0.6"/>
<rect x="518.79" y="15.5668" width="1.56688" height="1.56066" transform="rotate(-90 518.79 15.5668)" fill="white" fill-opacity="0.6"/>
<rect x="532.34" y="15.5668" width="1.56688" height="1.56066" transform="rotate(-90 532.34 15.5668)" fill="white" fill-opacity="0.6"/>
<rect x="545.89" y="15.5668" width="1.56688" height="1.56066" transform="rotate(-90 545.89 15.5668)" fill="white" fill-opacity="0.6"/>
<rect x="559.439" y="15.5668" width="1.56688" height="1.56066" transform="rotate(-90 559.439 15.5668)" fill="white" fill-opacity="0.6"/>
<rect x="31" y="29.1705" width="1.56688" height="1.56066" transform="rotate(-90 31 29.1705)" fill="white" fill-opacity="0.6"/>
<rect x="44.5497" y="29.1705" width="1.56688" height="1.56066" transform="rotate(-90 44.5497 29.1705)" fill="white" fill-opacity="0.6"/>
<rect x="58.0994" y="29.1705" width="1.56688" height="1.56066" transform="rotate(-90 58.0994 29.1705)" fill="white" fill-opacity="0.6"/>
<rect x="71.6492" y="29.1705" width="1.56688" height="1.56066" transform="rotate(-90 71.6492 29.1705)" fill="white" fill-opacity="0.6"/>
<rect x="85.1989" y="29.1705" width="1.56688" height="1.56066" transform="rotate(-90 85.1989 29.1705)" fill="white" fill-opacity="0.6"/>
<rect x="98.7486" y="29.1705" width="1.56688" height="1.56066" transform="rotate(-90 98.7486 29.1705)" fill="white" fill-opacity="0.6"/>
<rect x="112.298" y="29.1705" width="1.56688" height="1.56066" transform="rotate(-90 112.298 29.1705)" fill="white" fill-opacity="0.6"/>
<rect x="125.848" y="29.1705" width="1.56688" height="1.56066" transform="rotate(-90 125.848 29.1705)" fill="white" fill-opacity="0.6"/>
<rect x="139.398" y="29.1705" width="1.56688" height="1.56066" transform="rotate(-90 139.398 29.1705)" fill="white" fill-opacity="0.6"/>
<rect x="152.948" y="29.1705" width="1.56688" height="1.56066" transform="rotate(-90 152.948 29.1705)" fill="white" fill-opacity="0.6"/>
<rect x="166.497" y="29.1705" width="1.56688" height="1.56066" transform="rotate(-90 166.497 29.1705)" fill="white" fill-opacity="0.6"/>
<rect x="180.047" y="29.1705" width="1.56688" height="1.56066" transform="rotate(-90 180.047 29.1705)" fill="white" fill-opacity="0.6"/>
<rect x="193.597" y="29.1705" width="1.56688" height="1.56066" transform="rotate(-90 193.597 29.1705)" fill="white" fill-opacity="0.6"/>
<rect x="207.146" y="29.1705" width="1.56688" height="1.56066" transform="rotate(-90 207.146 29.1705)" fill="white" fill-opacity="0.6"/>
<rect x="220.696" y="29.1705" width="1.56688" height="1.56066" transform="rotate(-90 220.696 29.1705)" fill="white" fill-opacity="0.6"/>
<rect x="234.246" y="29.1705" width="1.56688" height="1.56066" transform="rotate(-90 234.246 29.1705)" fill="white" fill-opacity="0.6"/>
<rect x="247.796" y="29.1705" width="1.56688" height="1.56066" transform="rotate(-90 247.796 29.1705)" fill="white" fill-opacity="0.6"/>
<rect x="261.345" y="29.1705" width="1.56688" height="1.56066" transform="rotate(-90 261.345 29.1705)" fill="white" fill-opacity="0.6"/>
<rect x="274.895" y="29.1705" width="1.56688" height="1.56066" transform="rotate(-90 274.895 29.1705)" fill="white" fill-opacity="0.6"/>
<rect x="288.445" y="29.1705" width="1.56688" height="1.56066" transform="rotate(-90 288.445 29.1705)" fill="white" fill-opacity="0.6"/>
<rect x="301.995" y="29.1705" width="1.56688" height="1.56066" transform="rotate(-90 301.995 29.1705)" fill="white" fill-opacity="0.6"/>
<rect x="315.544" y="29.1705" width="1.56688" height="1.56066" transform="rotate(-90 315.544 29.1705)" fill="white" fill-opacity="0.6"/>
<rect x="329.094" y="29.1705" width="1.56688" height="1.56066" transform="rotate(-90 329.094 29.1705)" fill="white" fill-opacity="0.6"/>
<rect x="342.644" y="29.1705" width="1.56688" height="1.56066" transform="rotate(-90 342.644 29.1705)" fill="white" fill-opacity="0.6"/>
<rect x="356.193" y="29.1705" width="1.56688" height="1.56066" transform="rotate(-90 356.193 29.1705)" fill="white" fill-opacity="0.6"/>
<rect x="369.743" y="29.1705" width="1.56688" height="1.56066" transform="rotate(-90 369.743 29.1705)" fill="white" fill-opacity="0.6"/>
<rect x="383.293" y="29.1705" width="1.56688" height="1.56066" transform="rotate(-90 383.293 29.1705)" fill="white" fill-opacity="0.6"/>
<rect x="396.843" y="29.1705" width="1.56688" height="1.56066" transform="rotate(-90 396.843 29.1705)" fill="white" fill-opacity="0.6"/>
<rect x="410.392" y="29.1705" width="1.56688" height="1.56066" transform="rotate(-90 410.392 29.1705)" fill="white" fill-opacity="0.6"/>
<rect x="423.942" y="29.1705" width="1.56688" height="1.56066" transform="rotate(-90 423.942 29.1705)" fill="white" fill-opacity="0.6"/>
<rect x="437.492" y="29.1705" width="1.56688" height="1.56066" transform="rotate(-90 437.492 29.1705)" fill="white" fill-opacity="0.6"/>
<rect x="451.042" y="29.1705" width="1.56688" height="1.56066" transform="rotate(-90 451.042 29.1705)" fill="white" fill-opacity="0.6"/>
<rect x="464.591" y="29.1705" width="1.56688" height="1.56066" transform="rotate(-90 464.591 29.1705)" fill="white" fill-opacity="0.6"/>
<rect x="478.141" y="29.1705" width="1.56688" height="1.56066" transform="rotate(-90 478.141 29.1705)" fill="white" fill-opacity="0.6"/>
<rect x="491.691" y="29.1705" width="1.56688" height="1.56066" transform="rotate(-90 491.691 29.1705)" fill="white" fill-opacity="0.6"/>
<rect x="505.24" y="29.1705" width="1.56688" height="1.56066" transform="rotate(-90 505.24 29.1705)" fill="white" fill-opacity="0.6"/>
<rect x="518.79" y="29.1705" width="1.56688" height="1.56066" transform="rotate(-90 518.79 29.1705)" fill="white" fill-opacity="0.6"/>
<rect x="532.34" y="29.1705" width="1.56688" height="1.56066" transform="rotate(-90 532.34 29.1705)" fill="white" fill-opacity="0.6"/>
<rect x="545.89" y="29.1705" width="1.56688" height="1.56066" transform="rotate(-90 545.89 29.1705)" fill="white" fill-opacity="0.6"/>
<rect x="559.439" y="29.1705" width="1.56688" height="1.56066" transform="rotate(-90 559.439 29.1705)" fill="white" fill-opacity="0.6"/>
<rect x="31" y="42.7743" width="1.56688" height="1.56066" transform="rotate(-90 31 42.7743)" fill="white" fill-opacity="0.6"/>
<rect x="44.5497" y="42.7743" width="1.56688" height="1.56066" transform="rotate(-90 44.5497 42.7743)" fill="white" fill-opacity="0.6"/>
<rect x="58.0994" y="42.7743" width="1.56688" height="1.56066" transform="rotate(-90 58.0994 42.7743)" fill="white" fill-opacity="0.6"/>
<rect x="71.6492" y="42.7743" width="1.56688" height="1.56066" transform="rotate(-90 71.6492 42.7743)" fill="white" fill-opacity="0.6"/>
<rect x="85.1989" y="42.7743" width="1.56688" height="1.56066" transform="rotate(-90 85.1989 42.7743)" fill="white" fill-opacity="0.6"/>
<rect x="98.7486" y="42.7743" width="1.56688" height="1.56066" transform="rotate(-90 98.7486 42.7743)" fill="white" fill-opacity="0.6"/>
<rect x="112.298" y="42.7743" width="1.56688" height="1.56066" transform="rotate(-90 112.298 42.7743)" fill="white" fill-opacity="0.6"/>
<rect x="125.848" y="42.7743" width="1.56688" height="1.56066" transform="rotate(-90 125.848 42.7743)" fill="white" fill-opacity="0.6"/>
<rect x="139.398" y="42.7743" width="1.56688" height="1.56066" transform="rotate(-90 139.398 42.7743)" fill="white" fill-opacity="0.6"/>
<rect x="152.948" y="42.7743" width="1.56688" height="1.56066" transform="rotate(-90 152.948 42.7743)" fill="white" fill-opacity="0.6"/>
<rect x="166.497" y="42.7743" width="1.56688" height="1.56066" transform="rotate(-90 166.497 42.7743)" fill="white" fill-opacity="0.6"/>
<rect x="180.047" y="42.7743" width="1.56688" height="1.56066" transform="rotate(-90 180.047 42.7743)" fill="white" fill-opacity="0.6"/>
<rect x="193.597" y="42.7743" width="1.56688" height="1.56066" transform="rotate(-90 193.597 42.7743)" fill="white" fill-opacity="0.6"/>
<rect x="207.146" y="42.7743" width="1.56688" height="1.56066" transform="rotate(-90 207.146 42.7743)" fill="white" fill-opacity="0.6"/>
<rect x="220.696" y="42.7743" width="1.56688" height="1.56066" transform="rotate(-90 220.696 42.7743)" fill="white" fill-opacity="0.6"/>
<rect x="234.246" y="42.7743" width="1.56688" height="1.56066" transform="rotate(-90 234.246 42.7743)" fill="white" fill-opacity="0.6"/>
<rect x="247.796" y="42.7743" width="1.56688" height="1.56066" transform="rotate(-90 247.796 42.7743)" fill="white" fill-opacity="0.6"/>
<rect x="261.345" y="42.7743" width="1.56688" height="1.56066" transform="rotate(-90 261.345 42.7743)" fill="white" fill-opacity="0.6"/>
<rect x="274.895" y="42.7743" width="1.56688" height="1.56066" transform="rotate(-90 274.895 42.7743)" fill="white" fill-opacity="0.6"/>
<rect x="288.445" y="42.7743" width="1.56688" height="1.56066" transform="rotate(-90 288.445 42.7743)" fill="white" fill-opacity="0.6"/>
<rect x="301.995" y="42.7743" width="1.56688" height="1.56066" transform="rotate(-90 301.995 42.7743)" fill="white" fill-opacity="0.6"/>
<rect x="315.544" y="42.7743" width="1.56688" height="1.56066" transform="rotate(-90 315.544 42.7743)" fill="white" fill-opacity="0.6"/>
<rect x="329.094" y="42.7743" width="1.56688" height="1.56066" transform="rotate(-90 329.094 42.7743)" fill="white" fill-opacity="0.6"/>
<rect x="342.644" y="42.7743" width="1.56688" height="1.56066" transform="rotate(-90 342.644 42.7743)" fill="white" fill-opacity="0.6"/>
<rect x="356.193" y="42.7743" width="1.56688" height="1.56066" transform="rotate(-90 356.193 42.7743)" fill="white" fill-opacity="0.6"/>
<rect x="369.743" y="42.7743" width="1.56688" height="1.56066" transform="rotate(-90 369.743 42.7743)" fill="white" fill-opacity="0.6"/>
<rect x="383.293" y="42.7743" width="1.56688" height="1.56066" transform="rotate(-90 383.293 42.7743)" fill="white" fill-opacity="0.6"/>
<rect x="396.843" y="42.7743" width="1.56688" height="1.56066" transform="rotate(-90 396.843 42.7743)" fill="white" fill-opacity="0.6"/>
<rect x="410.392" y="42.7743" width="1.56688" height="1.56066" transform="rotate(-90 410.392 42.7743)" fill="white" fill-opacity="0.6"/>
<rect x="423.942" y="42.7743" width="1.56688" height="1.56066" transform="rotate(-90 423.942 42.7743)" fill="white" fill-opacity="0.6"/>
<rect x="437.492" y="42.7743" width="1.56688" height="1.56066" transform="rotate(-90 437.492 42.7743)" fill="white" fill-opacity="0.6"/>
<rect x="451.042" y="42.7743" width="1.56688" height="1.56066" transform="rotate(-90 451.042 42.7743)" fill="white" fill-opacity="0.6"/>
<rect x="464.591" y="42.7743" width="1.56688" height="1.56066" transform="rotate(-90 464.591 42.7743)" fill="white" fill-opacity="0.6"/>
<rect x="478.141" y="42.7743" width="1.56688" height="1.56066" transform="rotate(-90 478.141 42.7743)" fill="white" fill-opacity="0.6"/>
<rect x="491.691" y="42.7743" width="1.56688" height="1.56066" transform="rotate(-90 491.691 42.7743)" fill="white" fill-opacity="0.6"/>
<rect x="505.24" y="42.7743" width="1.56688" height="1.56066" transform="rotate(-90 505.24 42.7743)" fill="white" fill-opacity="0.6"/>
<rect x="518.79" y="42.7743" width="1.56688" height="1.56066" transform="rotate(-90 518.79 42.7743)" fill="white" fill-opacity="0.6"/>
<rect x="532.34" y="42.7743" width="1.56688" height="1.56066" transform="rotate(-90 532.34 42.7743)" fill="white" fill-opacity="0.6"/>
<rect x="545.89" y="42.7743" width="1.56688" height="1.56066" transform="rotate(-90 545.89 42.7743)" fill="white" fill-opacity="0.6"/>
<rect x="559.439" y="42.7743" width="1.56688" height="1.56066" transform="rotate(-90 559.439 42.7743)" fill="white" fill-opacity="0.6"/>
<rect x="31" y="56.3779" width="1.56688" height="1.56066" transform="rotate(-90 31 56.3779)" fill="white" fill-opacity="0.6"/>
<rect x="44.5497" y="56.3779" width="1.56688" height="1.56066" transform="rotate(-90 44.5497 56.3779)" fill="white" fill-opacity="0.6"/>
<rect x="58.0994" y="56.3779" width="1.56688" height="1.56066" transform="rotate(-90 58.0994 56.3779)" fill="white" fill-opacity="0.6"/>
<rect x="71.6492" y="56.3779" width="1.56688" height="1.56066" transform="rotate(-90 71.6492 56.3779)" fill="white" fill-opacity="0.6"/>
<rect x="85.1989" y="56.3779" width="1.56688" height="1.56066" transform="rotate(-90 85.1989 56.3779)" fill="white" fill-opacity="0.6"/>
<rect x="98.7486" y="56.3779" width="1.56688" height="1.56066" transform="rotate(-90 98.7486 56.3779)" fill="white" fill-opacity="0.6"/>
<rect x="112.298" y="56.3779" width="1.56688" height="1.56066" transform="rotate(-90 112.298 56.3779)" fill="white" fill-opacity="0.6"/>
<rect x="125.848" y="56.3779" width="1.56688" height="1.56066" transform="rotate(-90 125.848 56.3779)" fill="white" fill-opacity="0.6"/>
<rect x="139.398" y="56.3779" width="1.56688" height="1.56066" transform="rotate(-90 139.398 56.3779)" fill="white" fill-opacity="0.6"/>
<rect x="152.948" y="56.3779" width="1.56688" height="1.56066" transform="rotate(-90 152.948 56.3779)" fill="white" fill-opacity="0.6"/>
<rect x="166.497" y="56.3779" width="1.56688" height="1.56066" transform="rotate(-90 166.497 56.3779)" fill="white" fill-opacity="0.6"/>
<rect x="180.047" y="56.3779" width="1.56688" height="1.56066" transform="rotate(-90 180.047 56.3779)" fill="white" fill-opacity="0.6"/>
<rect x="193.597" y="56.3779" width="1.56688" height="1.56066" transform="rotate(-90 193.597 56.3779)" fill="white" fill-opacity="0.6"/>
<rect x="207.146" y="56.3779" width="1.56688" height="1.56066" transform="rotate(-90 207.146 56.3779)" fill="white" fill-opacity="0.6"/>
<rect x="220.696" y="56.3779" width="1.56688" height="1.56066" transform="rotate(-90 220.696 56.3779)" fill="white" fill-opacity="0.6"/>
<rect x="234.246" y="56.3779" width="1.56688" height="1.56066" transform="rotate(-90 234.246 56.3779)" fill="white" fill-opacity="0.6"/>
<rect x="247.796" y="56.3779" width="1.56688" height="1.56066" transform="rotate(-90 247.796 56.3779)" fill="white" fill-opacity="0.6"/>
<rect x="261.345" y="56.3779" width="1.56688" height="1.56066" transform="rotate(-90 261.345 56.3779)" fill="white" fill-opacity="0.6"/>
<rect x="274.895" y="56.3779" width="1.56688" height="1.56066" transform="rotate(-90 274.895 56.3779)" fill="white" fill-opacity="0.6"/>
<rect x="288.445" y="56.3779" width="1.56688" height="1.56066" transform="rotate(-90 288.445 56.3779)" fill="white" fill-opacity="0.6"/>
<rect x="301.995" y="56.3779" width="1.56688" height="1.56066" transform="rotate(-90 301.995 56.3779)" fill="white" fill-opacity="0.6"/>
<rect x="315.544" y="56.3779" width="1.56688" height="1.56066" transform="rotate(-90 315.544 56.3779)" fill="white" fill-opacity="0.6"/>
<rect x="329.094" y="56.3779" width="1.56688" height="1.56066" transform="rotate(-90 329.094 56.3779)" fill="white" fill-opacity="0.6"/>
<rect x="342.644" y="56.3779" width="1.56688" height="1.56066" transform="rotate(-90 342.644 56.3779)" fill="white" fill-opacity="0.6"/>
<rect x="356.193" y="56.3779" width="1.56688" height="1.56066" transform="rotate(-90 356.193 56.3779)" fill="white" fill-opacity="0.6"/>
<rect x="369.743" y="56.3779" width="1.56688" height="1.56066" transform="rotate(-90 369.743 56.3779)" fill="white" fill-opacity="0.6"/>
<rect x="383.293" y="56.3779" width="1.56688" height="1.56066" transform="rotate(-90 383.293 56.3779)" fill="white" fill-opacity="0.6"/>
<rect x="396.843" y="56.3779" width="1.56688" height="1.56066" transform="rotate(-90 396.843 56.3779)" fill="white" fill-opacity="0.6"/>
<rect x="410.392" y="56.3779" width="1.56688" height="1.56066" transform="rotate(-90 410.392 56.3779)" fill="white" fill-opacity="0.6"/>
<rect x="423.942" y="56.3779" width="1.56688" height="1.56066" transform="rotate(-90 423.942 56.3779)" fill="white" fill-opacity="0.6"/>
<rect x="437.492" y="56.3779" width="1.56688" height="1.56066" transform="rotate(-90 437.492 56.3779)" fill="white" fill-opacity="0.6"/>
<rect x="451.042" y="56.3779" width="1.56688" height="1.56066" transform="rotate(-90 451.042 56.3779)" fill="white" fill-opacity="0.6"/>
<rect x="464.591" y="56.3779" width="1.56688" height="1.56066" transform="rotate(-90 464.591 56.3779)" fill="white" fill-opacity="0.6"/>
<rect x="478.141" y="56.3779" width="1.56688" height="1.56066" transform="rotate(-90 478.141 56.3779)" fill="white" fill-opacity="0.6"/>
<rect x="491.691" y="56.3779" width="1.56688" height="1.56066" transform="rotate(-90 491.691 56.3779)" fill="white" fill-opacity="0.6"/>
<rect x="505.24" y="56.3779" width="1.56688" height="1.56066" transform="rotate(-90 505.24 56.3779)" fill="white" fill-opacity="0.6"/>
<rect x="518.79" y="56.3779" width="1.56688" height="1.56066" transform="rotate(-90 518.79 56.3779)" fill="white" fill-opacity="0.6"/>
<rect x="532.34" y="56.3779" width="1.56688" height="1.56066" transform="rotate(-90 532.34 56.3779)" fill="white" fill-opacity="0.6"/>
<rect x="545.89" y="56.3779" width="1.56688" height="1.56066" transform="rotate(-90 545.89 56.3779)" fill="white" fill-opacity="0.6"/>
<rect x="559.439" y="56.3779" width="1.56688" height="1.56066" transform="rotate(-90 559.439 56.3779)" fill="white" fill-opacity="0.6"/>
<rect x="31" y="69.9816" width="1.56688" height="1.56066" transform="rotate(-90 31 69.9816)" fill="white" fill-opacity="0.6"/>
<rect x="44.5497" y="69.9816" width="1.56688" height="1.56066" transform="rotate(-90 44.5497 69.9816)" fill="white" fill-opacity="0.6"/>
<rect x="58.0994" y="69.9816" width="1.56688" height="1.56066" transform="rotate(-90 58.0994 69.9816)" fill="white" fill-opacity="0.6"/>
<rect x="71.6492" y="69.9816" width="1.56688" height="1.56066" transform="rotate(-90 71.6492 69.9816)" fill="white" fill-opacity="0.6"/>
<rect x="85.1989" y="69.9816" width="1.56688" height="1.56066" transform="rotate(-90 85.1989 69.9816)" fill="white" fill-opacity="0.6"/>
<rect x="98.7486" y="69.9816" width="1.56688" height="1.56066" transform="rotate(-90 98.7486 69.9816)" fill="white" fill-opacity="0.6"/>
<rect x="112.298" y="69.9816" width="1.56688" height="1.56066" transform="rotate(-90 112.298 69.9816)" fill="white" fill-opacity="0.6"/>
<rect x="125.848" y="69.9816" width="1.56688" height="1.56066" transform="rotate(-90 125.848 69.9816)" fill="white" fill-opacity="0.6"/>
<rect x="139.398" y="69.9816" width="1.56688" height="1.56066" transform="rotate(-90 139.398 69.9816)" fill="white" fill-opacity="0.6"/>
<rect x="152.948" y="69.9816" width="1.56688" height="1.56066" transform="rotate(-90 152.948 69.9816)" fill="white" fill-opacity="0.6"/>
<rect x="166.497" y="69.9816" width="1.56688" height="1.56066" transform="rotate(-90 166.497 69.9816)" fill="white" fill-opacity="0.6"/>
<rect x="180.047" y="69.9816" width="1.56688" height="1.56066" transform="rotate(-90 180.047 69.9816)" fill="white" fill-opacity="0.6"/>
<rect x="193.597" y="69.9816" width="1.56688" height="1.56066" transform="rotate(-90 193.597 69.9816)" fill="white" fill-opacity="0.6"/>
<rect x="207.146" y="69.9816" width="1.56688" height="1.56066" transform="rotate(-90 207.146 69.9816)" fill="white" fill-opacity="0.6"/>
<rect x="220.696" y="69.9816" width="1.56688" height="1.56066" transform="rotate(-90 220.696 69.9816)" fill="white" fill-opacity="0.6"/>
<rect x="234.246" y="69.9816" width="1.56688" height="1.56066" transform="rotate(-90 234.246 69.9816)" fill="white" fill-opacity="0.6"/>
<rect x="247.796" y="69.9816" width="1.56688" height="1.56066" transform="rotate(-90 247.796 69.9816)" fill="white" fill-opacity="0.6"/>
<rect x="261.345" y="69.9816" width="1.56688" height="1.56066" transform="rotate(-90 261.345 69.9816)" fill="white" fill-opacity="0.6"/>
<rect x="274.895" y="69.9816" width="1.56688" height="1.56066" transform="rotate(-90 274.895 69.9816)" fill="white" fill-opacity="0.6"/>
<rect x="288.445" y="69.9816" width="1.56688" height="1.56066" transform="rotate(-90 288.445 69.9816)" fill="white" fill-opacity="0.6"/>
<rect x="301.995" y="69.9816" width="1.56688" height="1.56066" transform="rotate(-90 301.995 69.9816)" fill="white" fill-opacity="0.6"/>
<rect x="315.544" y="69.9816" width="1.56688" height="1.56066" transform="rotate(-90 315.544 69.9816)" fill="white" fill-opacity="0.6"/>
<rect x="329.094" y="69.9816" width="1.56688" height="1.56066" transform="rotate(-90 329.094 69.9816)" fill="white" fill-opacity="0.6"/>
<rect x="342.644" y="69.9816" width="1.56688" height="1.56066" transform="rotate(-90 342.644 69.9816)" fill="white" fill-opacity="0.6"/>
<rect x="356.193" y="69.9816" width="1.56688" height="1.56066" transform="rotate(-90 356.193 69.9816)" fill="white" fill-opacity="0.6"/>
<rect x="369.743" y="69.9816" width="1.56688" height="1.56066" transform="rotate(-90 369.743 69.9816)" fill="white" fill-opacity="0.6"/>
<rect x="383.293" y="69.9816" width="1.56688" height="1.56066" transform="rotate(-90 383.293 69.9816)" fill="white" fill-opacity="0.6"/>
<rect x="396.843" y="69.9816" width="1.56688" height="1.56066" transform="rotate(-90 396.843 69.9816)" fill="white" fill-opacity="0.6"/>
<rect x="410.392" y="69.9816" width="1.56688" height="1.56066" transform="rotate(-90 410.392 69.9816)" fill="white" fill-opacity="0.6"/>
<rect x="423.942" y="69.9816" width="1.56688" height="1.56066" transform="rotate(-90 423.942 69.9816)" fill="white" fill-opacity="0.6"/>
<rect x="437.492" y="69.9816" width="1.56688" height="1.56066" transform="rotate(-90 437.492 69.9816)" fill="white" fill-opacity="0.6"/>
<rect x="451.042" y="69.9816" width="1.56688" height="1.56066" transform="rotate(-90 451.042 69.9816)" fill="white" fill-opacity="0.6"/>
<rect x="464.591" y="69.9816" width="1.56688" height="1.56066" transform="rotate(-90 464.591 69.9816)" fill="white" fill-opacity="0.6"/>
<rect x="478.141" y="69.9816" width="1.56688" height="1.56066" transform="rotate(-90 478.141 69.9816)" fill="white" fill-opacity="0.6"/>
<rect x="491.691" y="69.9816" width="1.56688" height="1.56066" transform="rotate(-90 491.691 69.9816)" fill="white" fill-opacity="0.6"/>
<rect x="505.24" y="69.9816" width="1.56688" height="1.56066" transform="rotate(-90 505.24 69.9816)" fill="white" fill-opacity="0.6"/>
<rect x="518.79" y="69.9816" width="1.56688" height="1.56066" transform="rotate(-90 518.79 69.9816)" fill="white" fill-opacity="0.6"/>
<rect x="532.34" y="69.9816" width="1.56688" height="1.56066" transform="rotate(-90 532.34 69.9816)" fill="white" fill-opacity="0.6"/>
<rect x="545.89" y="69.9816" width="1.56688" height="1.56066" transform="rotate(-90 545.89 69.9816)" fill="white" fill-opacity="0.6"/>
<rect x="559.439" y="69.9816" width="1.56688" height="1.56066" transform="rotate(-90 559.439 69.9816)" fill="white" fill-opacity="0.6"/>
<rect x="31" y="83.5853" width="1.56688" height="1.56066" transform="rotate(-90 31 83.5853)" fill="white" fill-opacity="0.6"/>
<rect x="44.5497" y="83.5853" width="1.56688" height="1.56066" transform="rotate(-90 44.5497 83.5853)" fill="white" fill-opacity="0.6"/>
<rect x="58.0994" y="83.5853" width="1.56688" height="1.56066" transform="rotate(-90 58.0994 83.5853)" fill="white" fill-opacity="0.6"/>
<rect x="71.6492" y="83.5853" width="1.56688" height="1.56066" transform="rotate(-90 71.6492 83.5853)" fill="white" fill-opacity="0.6"/>
<rect x="85.1989" y="83.5853" width="1.56688" height="1.56066" transform="rotate(-90 85.1989 83.5853)" fill="white" fill-opacity="0.6"/>
<rect x="98.7486" y="83.5853" width="1.56688" height="1.56066" transform="rotate(-90 98.7486 83.5853)" fill="white" fill-opacity="0.6"/>
<rect x="112.298" y="83.5853" width="1.56688" height="1.56066" transform="rotate(-90 112.298 83.5853)" fill="white" fill-opacity="0.6"/>
<rect x="125.848" y="83.5853" width="1.56688" height="1.56066" transform="rotate(-90 125.848 83.5853)" fill="white" fill-opacity="0.6"/>
<rect x="139.398" y="83.5853" width="1.56688" height="1.56066" transform="rotate(-90 139.398 83.5853)" fill="white" fill-opacity="0.6"/>
<rect x="152.948" y="83.5853" width="1.56688" height="1.56066" transform="rotate(-90 152.948 83.5853)" fill="white" fill-opacity="0.6"/>
<rect x="166.497" y="83.5853" width="1.56688" height="1.56066" transform="rotate(-90 166.497 83.5853)" fill="white" fill-opacity="0.6"/>
<rect x="180.047" y="83.5853" width="1.56688" height="1.56066" transform="rotate(-90 180.047 83.5853)" fill="white" fill-opacity="0.6"/>
<rect x="193.597" y="83.5853" width="1.56688" height="1.56066" transform="rotate(-90 193.597 83.5853)" fill="white" fill-opacity="0.6"/>
<rect x="207.146" y="83.5853" width="1.56688" height="1.56066" transform="rotate(-90 207.146 83.5853)" fill="white" fill-opacity="0.6"/>
<rect x="220.696" y="83.5853" width="1.56688" height="1.56066" transform="rotate(-90 220.696 83.5853)" fill="white" fill-opacity="0.6"/>
<rect x="234.246" y="83.5853" width="1.56688" height="1.56066" transform="rotate(-90 234.246 83.5853)" fill="white" fill-opacity="0.6"/>
<rect x="247.796" y="83.5853" width="1.56688" height="1.56066" transform="rotate(-90 247.796 83.5853)" fill="white" fill-opacity="0.6"/>
<rect x="261.345" y="83.5853" width="1.56688" height="1.56066" transform="rotate(-90 261.345 83.5853)" fill="white" fill-opacity="0.6"/>
<rect x="274.895" y="83.5853" width="1.56688" height="1.56066" transform="rotate(-90 274.895 83.5853)" fill="white" fill-opacity="0.6"/>
<rect x="288.445" y="83.5853" width="1.56688" height="1.56066" transform="rotate(-90 288.445 83.5853)" fill="white" fill-opacity="0.6"/>
<rect x="301.995" y="83.5853" width="1.56688" height="1.56066" transform="rotate(-90 301.995 83.5853)" fill="white" fill-opacity="0.6"/>
<rect x="315.544" y="83.5853" width="1.56688" height="1.56066" transform="rotate(-90 315.544 83.5853)" fill="white" fill-opacity="0.6"/>
<rect x="329.094" y="83.5853" width="1.56688" height="1.56066" transform="rotate(-90 329.094 83.5853)" fill="white" fill-opacity="0.6"/>
<rect x="342.644" y="83.5853" width="1.56688" height="1.56066" transform="rotate(-90 342.644 83.5853)" fill="white" fill-opacity="0.6"/>
<rect x="356.193" y="83.5853" width="1.56688" height="1.56066" transform="rotate(-90 356.193 83.5853)" fill="white" fill-opacity="0.6"/>
<rect x="369.743" y="83.5853" width="1.56688" height="1.56066" transform="rotate(-90 369.743 83.5853)" fill="white" fill-opacity="0.6"/>
<rect x="383.293" y="83.5853" width="1.56688" height="1.56066" transform="rotate(-90 383.293 83.5853)" fill="white" fill-opacity="0.6"/>
<rect x="396.843" y="83.5853" width="1.56688" height="1.56066" transform="rotate(-90 396.843 83.5853)" fill="white" fill-opacity="0.6"/>
<rect x="410.392" y="83.5853" width="1.56688" height="1.56066" transform="rotate(-90 410.392 83.5853)" fill="white" fill-opacity="0.6"/>
<rect x="423.942" y="83.5853" width="1.56688" height="1.56066" transform="rotate(-90 423.942 83.5853)" fill="white" fill-opacity="0.6"/>
<rect x="437.492" y="83.5853" width="1.56688" height="1.56066" transform="rotate(-90 437.492 83.5853)" fill="white" fill-opacity="0.6"/>
<rect x="451.042" y="83.5853" width="1.56688" height="1.56066" transform="rotate(-90 451.042 83.5853)" fill="white" fill-opacity="0.6"/>
<rect x="464.591" y="83.5853" width="1.56688" height="1.56066" transform="rotate(-90 464.591 83.5853)" fill="white" fill-opacity="0.6"/>
<rect x="478.141" y="83.5853" width="1.56688" height="1.56066" transform="rotate(-90 478.141 83.5853)" fill="white" fill-opacity="0.6"/>
<rect x="491.691" y="83.5853" width="1.56688" height="1.56066" transform="rotate(-90 491.691 83.5853)" fill="white" fill-opacity="0.6"/>
<rect x="505.24" y="83.5853" width="1.56688" height="1.56066" transform="rotate(-90 505.24 83.5853)" fill="white" fill-opacity="0.6"/>
<rect x="518.79" y="83.5853" width="1.56688" height="1.56066" transform="rotate(-90 518.79 83.5853)" fill="white" fill-opacity="0.6"/>
<rect x="532.34" y="83.5853" width="1.56688" height="1.56066" transform="rotate(-90 532.34 83.5853)" fill="white" fill-opacity="0.6"/>
<rect x="545.89" y="83.5853" width="1.56688" height="1.56066" transform="rotate(-90 545.89 83.5853)" fill="white" fill-opacity="0.6"/>
<rect x="559.439" y="83.5853" width="1.56688" height="1.56066" transform="rotate(-90 559.439 83.5853)" fill="white" fill-opacity="0.6"/>
<rect x="31" y="97.189" width="1.56688" height="1.56066" transform="rotate(-90 31 97.189)" fill="white" fill-opacity="0.6"/>
<rect x="44.5497" y="97.189" width="1.56688" height="1.56066" transform="rotate(-90 44.5497 97.189)" fill="white" fill-opacity="0.6"/>
<rect x="58.0994" y="97.189" width="1.56688" height="1.56066" transform="rotate(-90 58.0994 97.189)" fill="white" fill-opacity="0.6"/>
<rect x="71.6492" y="97.189" width="1.56688" height="1.56066" transform="rotate(-90 71.6492 97.189)" fill="white" fill-opacity="0.6"/>
<rect x="85.1989" y="97.189" width="1.56688" height="1.56066" transform="rotate(-90 85.1989 97.189)" fill="white" fill-opacity="0.6"/>
<rect x="98.7486" y="97.189" width="1.56688" height="1.56066" transform="rotate(-90 98.7486 97.189)" fill="white" fill-opacity="0.6"/>
<rect x="112.298" y="97.189" width="1.56688" height="1.56066" transform="rotate(-90 112.298 97.189)" fill="white" fill-opacity="0.6"/>
<rect x="125.848" y="97.189" width="1.56688" height="1.56066" transform="rotate(-90 125.848 97.189)" fill="white" fill-opacity="0.6"/>
<rect x="139.398" y="97.189" width="1.56688" height="1.56066" transform="rotate(-90 139.398 97.189)" fill="white" fill-opacity="0.6"/>
<rect x="152.948" y="97.189" width="1.56688" height="1.56066" transform="rotate(-90 152.948 97.189)" fill="white" fill-opacity="0.6"/>
<rect x="166.497" y="97.189" width="1.56688" height="1.56066" transform="rotate(-90 166.497 97.189)" fill="white" fill-opacity="0.6"/>
<rect x="180.047" y="97.189" width="1.56688" height="1.56066" transform="rotate(-90 180.047 97.189)" fill="white" fill-opacity="0.6"/>
<rect x="193.597" y="97.189" width="1.56688" height="1.56066" transform="rotate(-90 193.597 97.189)" fill="white" fill-opacity="0.6"/>
<rect x="207.146" y="97.189" width="1.56688" height="1.56066" transform="rotate(-90 207.146 97.189)" fill="white" fill-opacity="0.6"/>
<rect x="220.696" y="97.189" width="1.56688" height="1.56066" transform="rotate(-90 220.696 97.189)" fill="white" fill-opacity="0.6"/>
<rect x="234.246" y="97.189" width="1.56688" height="1.56066" transform="rotate(-90 234.246 97.189)" fill="white" fill-opacity="0.6"/>
<rect x="247.796" y="97.189" width="1.56688" height="1.56066" transform="rotate(-90 247.796 97.189)" fill="white" fill-opacity="0.6"/>
<rect x="261.345" y="97.189" width="1.56688" height="1.56066" transform="rotate(-90 261.345 97.189)" fill="white" fill-opacity="0.6"/>
<rect x="274.895" y="97.189" width="1.56688" height="1.56066" transform="rotate(-90 274.895 97.189)" fill="white" fill-opacity="0.6"/>
<rect x="288.445" y="97.189" width="1.56688" height="1.56066" transform="rotate(-90 288.445 97.189)" fill="white" fill-opacity="0.6"/>
<rect x="301.995" y="97.189" width="1.56688" height="1.56066" transform="rotate(-90 301.995 97.189)" fill="white" fill-opacity="0.6"/>
<rect x="315.544" y="97.189" width="1.56688" height="1.56066" transform="rotate(-90 315.544 97.189)" fill="white" fill-opacity="0.6"/>
<rect x="329.094" y="97.189" width="1.56688" height="1.56066" transform="rotate(-90 329.094 97.189)" fill="white" fill-opacity="0.6"/>
<rect x="342.644" y="97.189" width="1.56688" height="1.56066" transform="rotate(-90 342.644 97.189)" fill="white" fill-opacity="0.6"/>
<rect x="356.193" y="97.189" width="1.56688" height="1.56066" transform="rotate(-90 356.193 97.189)" fill="white" fill-opacity="0.6"/>
<rect x="369.743" y="97.189" width="1.56688" height="1.56066" transform="rotate(-90 369.743 97.189)" fill="white" fill-opacity="0.6"/>
<rect x="383.293" y="97.189" width="1.56688" height="1.56066" transform="rotate(-90 383.293 97.189)" fill="white" fill-opacity="0.6"/>
<rect x="396.843" y="97.189" width="1.56688" height="1.56066" transform="rotate(-90 396.843 97.189)" fill="white" fill-opacity="0.6"/>
<rect x="410.392" y="97.189" width="1.56688" height="1.56066" transform="rotate(-90 410.392 97.189)" fill="white" fill-opacity="0.6"/>
<rect x="423.942" y="97.189" width="1.56688" height="1.56066" transform="rotate(-90 423.942 97.189)" fill="white" fill-opacity="0.6"/>
<rect x="437.492" y="97.189" width="1.56688" height="1.56066" transform="rotate(-90 437.492 97.189)" fill="white" fill-opacity="0.6"/>
<rect x="451.042" y="97.189" width="1.56688" height="1.56066" transform="rotate(-90 451.042 97.189)" fill="white" fill-opacity="0.6"/>
<rect x="464.591" y="97.189" width="1.56688" height="1.56066" transform="rotate(-90 464.591 97.189)" fill="white" fill-opacity="0.6"/>
<rect x="478.141" y="97.189" width="1.56688" height="1.56066" transform="rotate(-90 478.141 97.189)" fill="white" fill-opacity="0.6"/>
<rect x="491.691" y="97.189" width="1.56688" height="1.56066" transform="rotate(-90 491.691 97.189)" fill="white" fill-opacity="0.6"/>
<rect x="505.24" y="97.189" width="1.56688" height="1.56066" transform="rotate(-90 505.24 97.189)" fill="white" fill-opacity="0.6"/>
<rect x="518.79" y="97.189" width="1.56688" height="1.56066" transform="rotate(-90 518.79 97.189)" fill="white" fill-opacity="0.6"/>
<rect x="532.34" y="97.189" width="1.56688" height="1.56066" transform="rotate(-90 532.34 97.189)" fill="white" fill-opacity="0.6"/>
<rect x="545.89" y="97.189" width="1.56688" height="1.56066" transform="rotate(-90 545.89 97.189)" fill="white" fill-opacity="0.6"/>
<rect x="559.439" y="97.189" width="1.56688" height="1.56066" transform="rotate(-90 559.439 97.189)" fill="white" fill-opacity="0.6"/>
<rect x="31" y="110.793" width="1.56688" height="1.56066" transform="rotate(-90 31 110.793)" fill="white" fill-opacity="0.6"/>
<rect x="44.5497" y="110.793" width="1.56688" height="1.56066" transform="rotate(-90 44.5497 110.793)" fill="white" fill-opacity="0.6"/>
<rect x="58.0994" y="110.793" width="1.56688" height="1.56066" transform="rotate(-90 58.0994 110.793)" fill="white" fill-opacity="0.6"/>
<rect x="71.6492" y="110.793" width="1.56688" height="1.56066" transform="rotate(-90 71.6492 110.793)" fill="white" fill-opacity="0.6"/>
<rect x="85.1989" y="110.793" width="1.56688" height="1.56066" transform="rotate(-90 85.1989 110.793)" fill="white" fill-opacity="0.6"/>
<rect x="98.7486" y="110.793" width="1.56688" height="1.56066" transform="rotate(-90 98.7486 110.793)" fill="white" fill-opacity="0.6"/>
<rect x="112.298" y="110.793" width="1.56688" height="1.56066" transform="rotate(-90 112.298 110.793)" fill="white" fill-opacity="0.6"/>
<rect x="125.848" y="110.793" width="1.56688" height="1.56066" transform="rotate(-90 125.848 110.793)" fill="white" fill-opacity="0.6"/>
<rect x="139.398" y="110.793" width="1.56688" height="1.56066" transform="rotate(-90 139.398 110.793)" fill="white" fill-opacity="0.6"/>
<rect x="152.948" y="110.793" width="1.56688" height="1.56066" transform="rotate(-90 152.948 110.793)" fill="white" fill-opacity="0.6"/>
<rect x="166.497" y="110.793" width="1.56688" height="1.56066" transform="rotate(-90 166.497 110.793)" fill="white" fill-opacity="0.6"/>
<rect x="180.047" y="110.793" width="1.56688" height="1.56066" transform="rotate(-90 180.047 110.793)" fill="white" fill-opacity="0.6"/>
<rect x="193.597" y="110.793" width="1.56688" height="1.56066" transform="rotate(-90 193.597 110.793)" fill="white" fill-opacity="0.6"/>
<rect x="207.146" y="110.793" width="1.56688" height="1.56066" transform="rotate(-90 207.146 110.793)" fill="white" fill-opacity="0.6"/>
<rect x="220.696" y="110.793" width="1.56688" height="1.56066" transform="rotate(-90 220.696 110.793)" fill="white" fill-opacity="0.6"/>
<rect x="234.246" y="110.793" width="1.56688" height="1.56066" transform="rotate(-90 234.246 110.793)" fill="white" fill-opacity="0.6"/>
<rect x="247.796" y="110.793" width="1.56688" height="1.56066" transform="rotate(-90 247.796 110.793)" fill="white" fill-opacity="0.6"/>
<rect x="261.345" y="110.793" width="1.56688" height="1.56066" transform="rotate(-90 261.345 110.793)" fill="white" fill-opacity="0.6"/>
<rect x="274.895" y="110.793" width="1.56688" height="1.56066" transform="rotate(-90 274.895 110.793)" fill="white" fill-opacity="0.6"/>
<rect x="288.445" y="110.793" width="1.56688" height="1.56066" transform="rotate(-90 288.445 110.793)" fill="white" fill-opacity="0.6"/>
<rect x="301.995" y="110.793" width="1.56688" height="1.56066" transform="rotate(-90 301.995 110.793)" fill="white" fill-opacity="0.6"/>
<rect x="315.544" y="110.793" width="1.56688" height="1.56066" transform="rotate(-90 315.544 110.793)" fill="white" fill-opacity="0.6"/>
<rect x="329.094" y="110.793" width="1.56688" height="1.56066" transform="rotate(-90 329.094 110.793)" fill="white" fill-opacity="0.6"/>
<rect x="342.644" y="110.793" width="1.56688" height="1.56066" transform="rotate(-90 342.644 110.793)" fill="white" fill-opacity="0.6"/>
<rect x="356.193" y="110.793" width="1.56688" height="1.56066" transform="rotate(-90 356.193 110.793)" fill="white" fill-opacity="0.6"/>
<rect x="369.743" y="110.793" width="1.56688" height="1.56066" transform="rotate(-90 369.743 110.793)" fill="white" fill-opacity="0.6"/>
<rect x="383.293" y="110.793" width="1.56688" height="1.56066" transform="rotate(-90 383.293 110.793)" fill="white" fill-opacity="0.6"/>
<rect x="396.843" y="110.793" width="1.56688" height="1.56066" transform="rotate(-90 396.843 110.793)" fill="white" fill-opacity="0.6"/>
<rect x="410.392" y="110.793" width="1.56688" height="1.56066" transform="rotate(-90 410.392 110.793)" fill="white" fill-opacity="0.6"/>
<rect x="423.942" y="110.793" width="1.56688" height="1.56066" transform="rotate(-90 423.942 110.793)" fill="white" fill-opacity="0.6"/>
<rect x="437.492" y="110.793" width="1.56688" height="1.56066" transform="rotate(-90 437.492 110.793)" fill="white" fill-opacity="0.6"/>
<rect x="451.042" y="110.793" width="1.56688" height="1.56066" transform="rotate(-90 451.042 110.793)" fill="white" fill-opacity="0.6"/>
<rect x="464.591" y="110.793" width="1.56688" height="1.56066" transform="rotate(-90 464.591 110.793)" fill="white" fill-opacity="0.6"/>
<rect x="478.141" y="110.793" width="1.56688" height="1.56066" transform="rotate(-90 478.141 110.793)" fill="white" fill-opacity="0.6"/>
<rect x="491.691" y="110.793" width="1.56688" height="1.56066" transform="rotate(-90 491.691 110.793)" fill="white" fill-opacity="0.6"/>
<rect x="505.24" y="110.793" width="1.56688" height="1.56066" transform="rotate(-90 505.24 110.793)" fill="white" fill-opacity="0.6"/>
<rect x="518.79" y="110.793" width="1.56688" height="1.56066" transform="rotate(-90 518.79 110.793)" fill="white" fill-opacity="0.6"/>
<rect x="532.34" y="110.793" width="1.56688" height="1.56066" transform="rotate(-90 532.34 110.793)" fill="white" fill-opacity="0.6"/>
<rect x="545.89" y="110.793" width="1.56688" height="1.56066" transform="rotate(-90 545.89 110.793)" fill="white" fill-opacity="0.6"/>
<rect x="559.439" y="110.793" width="1.56688" height="1.56066" transform="rotate(-90 559.439 110.793)" fill="white" fill-opacity="0.6"/>
<rect x="31" y="124.396" width="1.56688" height="1.56066" transform="rotate(-90 31 124.396)" fill="white" fill-opacity="0.6"/>
<rect x="44.5497" y="124.396" width="1.56688" height="1.56066" transform="rotate(-90 44.5497 124.396)" fill="white" fill-opacity="0.6"/>
<rect x="58.0994" y="124.396" width="1.56688" height="1.56066" transform="rotate(-90 58.0994 124.396)" fill="white" fill-opacity="0.6"/>
<rect x="71.6492" y="124.396" width="1.56688" height="1.56066" transform="rotate(-90 71.6492 124.396)" fill="white" fill-opacity="0.6"/>
<rect x="85.1989" y="124.396" width="1.56688" height="1.56066" transform="rotate(-90 85.1989 124.396)" fill="white" fill-opacity="0.6"/>
<rect x="98.7486" y="124.396" width="1.56688" height="1.56066" transform="rotate(-90 98.7486 124.396)" fill="white" fill-opacity="0.6"/>
<rect x="112.298" y="124.396" width="1.56688" height="1.56066" transform="rotate(-90 112.298 124.396)" fill="white" fill-opacity="0.6"/>
<rect x="125.848" y="124.396" width="1.56688" height="1.56066" transform="rotate(-90 125.848 124.396)" fill="white" fill-opacity="0.6"/>
<rect x="139.398" y="124.396" width="1.56688" height="1.56066" transform="rotate(-90 139.398 124.396)" fill="white" fill-opacity="0.6"/>
<rect x="152.948" y="124.396" width="1.56688" height="1.56066" transform="rotate(-90 152.948 124.396)" fill="white" fill-opacity="0.6"/>
<rect x="166.497" y="124.396" width="1.56688" height="1.56066" transform="rotate(-90 166.497 124.396)" fill="white" fill-opacity="0.6"/>
<rect x="180.047" y="124.396" width="1.56688" height="1.56066" transform="rotate(-90 180.047 124.396)" fill="white" fill-opacity="0.6"/>
<rect x="193.597" y="124.396" width="1.56688" height="1.56066" transform="rotate(-90 193.597 124.396)" fill="white" fill-opacity="0.6"/>
<rect x="207.146" y="124.396" width="1.56688" height="1.56066" transform="rotate(-90 207.146 124.396)" fill="white" fill-opacity="0.6"/>
<rect x="220.696" y="124.396" width="1.56688" height="1.56066" transform="rotate(-90 220.696 124.396)" fill="white" fill-opacity="0.6"/>
<rect x="234.246" y="124.396" width="1.56688" height="1.56066" transform="rotate(-90 234.246 124.396)" fill="white" fill-opacity="0.6"/>
<rect x="247.796" y="124.396" width="1.56688" height="1.56066" transform="rotate(-90 247.796 124.396)" fill="white" fill-opacity="0.6"/>
<rect x="261.345" y="124.396" width="1.56688" height="1.56066" transform="rotate(-90 261.345 124.396)" fill="white" fill-opacity="0.6"/>
<rect x="274.895" y="124.396" width="1.56688" height="1.56066" transform="rotate(-90 274.895 124.396)" fill="white" fill-opacity="0.6"/>
<rect x="288.445" y="124.396" width="1.56688" height="1.56066" transform="rotate(-90 288.445 124.396)" fill="white" fill-opacity="0.6"/>
<rect x="301.995" y="124.396" width="1.56688" height="1.56066" transform="rotate(-90 301.995 124.396)" fill="white" fill-opacity="0.6"/>
<rect x="315.544" y="124.396" width="1.56688" height="1.56066" transform="rotate(-90 315.544 124.396)" fill="white" fill-opacity="0.6"/>
<rect x="329.094" y="124.396" width="1.56688" height="1.56066" transform="rotate(-90 329.094 124.396)" fill="white" fill-opacity="0.6"/>
<rect x="342.644" y="124.396" width="1.56688" height="1.56066" transform="rotate(-90 342.644 124.396)" fill="white" fill-opacity="0.6"/>
<rect x="356.193" y="124.396" width="1.56688" height="1.56066" transform="rotate(-90 356.193 124.396)" fill="white" fill-opacity="0.6"/>
<rect x="369.743" y="124.396" width="1.56688" height="1.56066" transform="rotate(-90 369.743 124.396)" fill="white" fill-opacity="0.6"/>
<rect x="383.293" y="124.396" width="1.56688" height="1.56066" transform="rotate(-90 383.293 124.396)" fill="white" fill-opacity="0.6"/>
<rect x="396.843" y="124.396" width="1.56688" height="1.56066" transform="rotate(-90 396.843 124.396)" fill="white" fill-opacity="0.6"/>
<rect x="410.392" y="124.396" width="1.56688" height="1.56066" transform="rotate(-90 410.392 124.396)" fill="white" fill-opacity="0.6"/>
<rect x="423.942" y="124.396" width="1.56688" height="1.56066" transform="rotate(-90 423.942 124.396)" fill="white" fill-opacity="0.6"/>
<rect x="437.492" y="124.396" width="1.56688" height="1.56066" transform="rotate(-90 437.492 124.396)" fill="white" fill-opacity="0.6"/>
<rect x="451.042" y="124.396" width="1.56688" height="1.56066" transform="rotate(-90 451.042 124.396)" fill="white" fill-opacity="0.6"/>
<rect x="464.591" y="124.396" width="1.56688" height="1.56066" transform="rotate(-90 464.591 124.396)" fill="white" fill-opacity="0.6"/>
<rect x="478.141" y="124.396" width="1.56688" height="1.56066" transform="rotate(-90 478.141 124.396)" fill="white" fill-opacity="0.6"/>
<rect x="491.691" y="124.396" width="1.56688" height="1.56066" transform="rotate(-90 491.691 124.396)" fill="white" fill-opacity="0.6"/>
<rect x="505.24" y="124.396" width="1.56688" height="1.56066" transform="rotate(-90 505.24 124.396)" fill="white" fill-opacity="0.6"/>
<rect x="518.79" y="124.396" width="1.56688" height="1.56066" transform="rotate(-90 518.79 124.396)" fill="white" fill-opacity="0.6"/>
<rect x="532.34" y="124.396" width="1.56688" height="1.56066" transform="rotate(-90 532.34 124.396)" fill="white" fill-opacity="0.6"/>
<rect x="545.89" y="124.396" width="1.56688" height="1.56066" transform="rotate(-90 545.89 124.396)" fill="white" fill-opacity="0.6"/>
<rect x="559.439" y="124.396" width="1.56688" height="1.56066" transform="rotate(-90 559.439 124.396)" fill="white" fill-opacity="0.6"/>
<rect x="31" y="138" width="1.56688" height="1.56066" transform="rotate(-90 31 138)" fill="white" fill-opacity="0.6"/>
<rect x="44.5497" y="138" width="1.56688" height="1.56066" transform="rotate(-90 44.5497 138)" fill="white" fill-opacity="0.6"/>
<rect x="58.0994" y="138" width="1.56688" height="1.56066" transform="rotate(-90 58.0994 138)" fill="white" fill-opacity="0.6"/>
<rect x="71.6492" y="138" width="1.56688" height="1.56066" transform="rotate(-90 71.6492 138)" fill="white" fill-opacity="0.6"/>
<rect x="85.1989" y="138" width="1.56688" height="1.56066" transform="rotate(-90 85.1989 138)" fill="white" fill-opacity="0.6"/>
<rect x="98.7486" y="138" width="1.56688" height="1.56066" transform="rotate(-90 98.7486 138)" fill="white" fill-opacity="0.6"/>
<rect x="112.298" y="138" width="1.56688" height="1.56066" transform="rotate(-90 112.298 138)" fill="white" fill-opacity="0.6"/>
<rect x="125.848" y="138" width="1.56688" height="1.56066" transform="rotate(-90 125.848 138)" fill="white" fill-opacity="0.6"/>
<rect x="139.398" y="138" width="1.56688" height="1.56066" transform="rotate(-90 139.398 138)" fill="white" fill-opacity="0.6"/>
<rect x="152.948" y="138" width="1.56688" height="1.56066" transform="rotate(-90 152.948 138)" fill="white" fill-opacity="0.6"/>
<rect x="166.497" y="138" width="1.56688" height="1.56066" transform="rotate(-90 166.497 138)" fill="white" fill-opacity="0.6"/>
<rect x="180.047" y="138" width="1.56688" height="1.56066" transform="rotate(-90 180.047 138)" fill="white" fill-opacity="0.6"/>
<rect x="193.597" y="138" width="1.56688" height="1.56066" transform="rotate(-90 193.597 138)" fill="white" fill-opacity="0.6"/>
<rect x="207.146" y="138" width="1.56688" height="1.56066" transform="rotate(-90 207.146 138)" fill="white" fill-opacity="0.6"/>
<rect x="220.696" y="138" width="1.56688" height="1.56066" transform="rotate(-90 220.696 138)" fill="white" fill-opacity="0.6"/>
<rect x="234.246" y="138" width="1.56688" height="1.56066" transform="rotate(-90 234.246 138)" fill="white" fill-opacity="0.6"/>
<rect x="247.796" y="138" width="1.56688" height="1.56066" transform="rotate(-90 247.796 138)" fill="white" fill-opacity="0.6"/>
<rect x="261.345" y="138" width="1.56688" height="1.56066" transform="rotate(-90 261.345 138)" fill="white" fill-opacity="0.6"/>
<rect x="274.895" y="138" width="1.56688" height="1.56066" transform="rotate(-90 274.895 138)" fill="white" fill-opacity="0.6"/>
<rect x="288.445" y="138" width="1.56688" height="1.56066" transform="rotate(-90 288.445 138)" fill="white" fill-opacity="0.6"/>
<rect x="301.995" y="138" width="1.56688" height="1.56066" transform="rotate(-90 301.995 138)" fill="white" fill-opacity="0.6"/>
<rect x="315.544" y="138" width="1.56688" height="1.56066" transform="rotate(-90 315.544 138)" fill="white" fill-opacity="0.6"/>
<rect x="329.094" y="138" width="1.56688" height="1.56066" transform="rotate(-90 329.094 138)" fill="white" fill-opacity="0.6"/>
<rect x="342.644" y="138" width="1.56688" height="1.56066" transform="rotate(-90 342.644 138)" fill="white" fill-opacity="0.6"/>
<rect x="356.193" y="138" width="1.56688" height="1.56066" transform="rotate(-90 356.193 138)" fill="white" fill-opacity="0.6"/>
<rect x="369.743" y="138" width="1.56688" height="1.56066" transform="rotate(-90 369.743 138)" fill="white" fill-opacity="0.6"/>
<rect x="383.293" y="138" width="1.56688" height="1.56066" transform="rotate(-90 383.293 138)" fill="white" fill-opacity="0.6"/>
<rect x="396.843" y="138" width="1.56688" height="1.56066" transform="rotate(-90 396.843 138)" fill="white" fill-opacity="0.6"/>
<rect x="410.392" y="138" width="1.56688" height="1.56066" transform="rotate(-90 410.392 138)" fill="white" fill-opacity="0.6"/>
<rect x="423.942" y="138" width="1.56688" height="1.56066" transform="rotate(-90 423.942 138)" fill="white" fill-opacity="0.6"/>
<rect x="437.492" y="138" width="1.56688" height="1.56066" transform="rotate(-90 437.492 138)" fill="white" fill-opacity="0.6"/>
<rect x="451.042" y="138" width="1.56688" height="1.56066" transform="rotate(-90 451.042 138)" fill="white" fill-opacity="0.6"/>
<rect x="464.591" y="138" width="1.56688" height="1.56066" transform="rotate(-90 464.591 138)" fill="white" fill-opacity="0.6"/>
<rect x="478.141" y="138" width="1.56688" height="1.56066" transform="rotate(-90 478.141 138)" fill="white" fill-opacity="0.6"/>
<rect x="491.691" y="138" width="1.56688" height="1.56066" transform="rotate(-90 491.691 138)" fill="white" fill-opacity="0.6"/>
<rect x="505.24" y="138" width="1.56688" height="1.56066" transform="rotate(-90 505.24 138)" fill="white" fill-opacity="0.6"/>
<rect x="518.79" y="138" width="1.56688" height="1.56066" transform="rotate(-90 518.79 138)" fill="white" fill-opacity="0.6"/>
<rect x="532.34" y="138" width="1.56688" height="1.56066" transform="rotate(-90 532.34 138)" fill="white" fill-opacity="0.6"/>
<rect x="545.89" y="138" width="1.56688" height="1.56066" transform="rotate(-90 545.89 138)" fill="white" fill-opacity="0.6"/>
<rect x="559.439" y="138" width="1.56688" height="1.56066" transform="rotate(-90 559.439 138)" fill="white" fill-opacity="0.6"/>
<rect x="573" y="15.5668" width="1.56688" height="1.56066" transform="rotate(-90 573 15.5668)" fill="white" fill-opacity="0.6"/>
<rect x="586.55" y="15.5668" width="1.56688" height="1.56066" transform="rotate(-90 586.55 15.5668)" fill="white" fill-opacity="0.6"/>
<rect x="600.099" y="15.5668" width="1.56688" height="1.56066" transform="rotate(-90 600.099 15.5668)" fill="white" fill-opacity="0.6"/>
<rect x="613.649" y="15.5668" width="1.56688" height="1.56066" transform="rotate(-90 613.649 15.5668)" fill="white" fill-opacity="0.6"/>
<rect x="627.199" y="15.5668" width="1.56688" height="1.56066" transform="rotate(-90 627.199 15.5668)" fill="white" fill-opacity="0.6"/>
<rect x="640.749" y="15.5668" width="1.56688" height="1.56066" transform="rotate(-90 640.749 15.5668)" fill="white" fill-opacity="0.6"/>
<rect x="654.298" y="15.5668" width="1.56688" height="1.56066" transform="rotate(-90 654.298 15.5668)" fill="white" fill-opacity="0.6"/>
<rect x="667.848" y="15.5668" width="1.56688" height="1.56066" transform="rotate(-90 667.848 15.5668)" fill="white" fill-opacity="0.6"/>
<rect x="681.398" y="15.5668" width="1.56688" height="1.56066" transform="rotate(-90 681.398 15.5668)" fill="white" fill-opacity="0.6"/>
<rect x="694.948" y="15.5668" width="1.56688" height="1.56066" transform="rotate(-90 694.948 15.5668)" fill="white" fill-opacity="0.6"/>
<rect x="708.497" y="15.5668" width="1.56688" height="1.56066" transform="rotate(-90 708.497 15.5668)" fill="white" fill-opacity="0.6"/>
<rect x="722.047" y="15.5668" width="1.56688" height="1.56066" transform="rotate(-90 722.047 15.5668)" fill="white" fill-opacity="0.6"/>
<rect x="735.597" y="15.5668" width="1.56688" height="1.56066" transform="rotate(-90 735.597 15.5668)" fill="white" fill-opacity="0.6"/>
<rect x="749.146" y="15.5668" width="1.56688" height="1.56066" transform="rotate(-90 749.146 15.5668)" fill="white" fill-opacity="0.6"/>
<rect x="762.696" y="15.5668" width="1.56688" height="1.56066" transform="rotate(-90 762.696 15.5668)" fill="white" fill-opacity="0.6"/>
<rect x="573" y="29.1705" width="1.56688" height="1.56066" transform="rotate(-90 573 29.1705)" fill="white" fill-opacity="0.6"/>
<rect x="586.55" y="29.1705" width="1.56688" height="1.56066" transform="rotate(-90 586.55 29.1705)" fill="white" fill-opacity="0.6"/>
<rect x="600.099" y="29.1705" width="1.56688" height="1.56066" transform="rotate(-90 600.099 29.1705)" fill="white" fill-opacity="0.6"/>
<rect x="613.649" y="29.1705" width="1.56688" height="1.56066" transform="rotate(-90 613.649 29.1705)" fill="white" fill-opacity="0.6"/>
<rect x="627.199" y="29.1705" width="1.56688" height="1.56066" transform="rotate(-90 627.199 29.1705)" fill="white" fill-opacity="0.6"/>
<rect x="640.749" y="29.1705" width="1.56688" height="1.56066" transform="rotate(-90 640.749 29.1705)" fill="white" fill-opacity="0.6"/>
<rect x="654.298" y="29.1705" width="1.56688" height="1.56066" transform="rotate(-90 654.298 29.1705)" fill="white" fill-opacity="0.6"/>
<rect x="667.848" y="29.1705" width="1.56688" height="1.56066" transform="rotate(-90 667.848 29.1705)" fill="white" fill-opacity="0.6"/>
<rect x="681.398" y="29.1705" width="1.56688" height="1.56066" transform="rotate(-90 681.398 29.1705)" fill="white" fill-opacity="0.6"/>
<rect x="694.948" y="29.1705" width="1.56688" height="1.56066" transform="rotate(-90 694.948 29.1705)" fill="white" fill-opacity="0.6"/>
<rect x="708.497" y="29.1705" width="1.56688" height="1.56066" transform="rotate(-90 708.497 29.1705)" fill="white" fill-opacity="0.6"/>
<rect x="722.047" y="29.1705" width="1.56688" height="1.56066" transform="rotate(-90 722.047 29.1705)" fill="white" fill-opacity="0.6"/>
<rect x="735.597" y="29.1705" width="1.56688" height="1.56066" transform="rotate(-90 735.597 29.1705)" fill="white" fill-opacity="0.6"/>
<rect x="749.146" y="29.1705" width="1.56688" height="1.56066" transform="rotate(-90 749.146 29.1705)" fill="white" fill-opacity="0.6"/>
<rect x="762.696" y="29.1705" width="1.56688" height="1.56066" transform="rotate(-90 762.696 29.1705)" fill="white" fill-opacity="0.6"/>
<rect x="573" y="42.7743" width="1.56688" height="1.56066" transform="rotate(-90 573 42.7743)" fill="white" fill-opacity="0.6"/>
<rect x="586.55" y="42.7743" width="1.56688" height="1.56066" transform="rotate(-90 586.55 42.7743)" fill="white" fill-opacity="0.6"/>
<rect x="600.099" y="42.7743" width="1.56688" height="1.56066" transform="rotate(-90 600.099 42.7743)" fill="white" fill-opacity="0.6"/>
<rect x="613.649" y="42.7743" width="1.56688" height="1.56066" transform="rotate(-90 613.649 42.7743)" fill="white" fill-opacity="0.6"/>
<rect x="627.199" y="42.7743" width="1.56688" height="1.56066" transform="rotate(-90 627.199 42.7743)" fill="white" fill-opacity="0.6"/>
<rect x="640.749" y="42.7743" width="1.56688" height="1.56066" transform="rotate(-90 640.749 42.7743)" fill="white" fill-opacity="0.6"/>
<rect x="654.298" y="42.7743" width="1.56688" height="1.56066" transform="rotate(-90 654.298 42.7743)" fill="white" fill-opacity="0.6"/>
<rect x="667.848" y="42.7743" width="1.56688" height="1.56066" transform="rotate(-90 667.848 42.7743)" fill="white" fill-opacity="0.6"/>
<rect x="681.398" y="42.7743" width="1.56688" height="1.56066" transform="rotate(-90 681.398 42.7743)" fill="white" fill-opacity="0.6"/>
<rect x="694.948" y="42.7743" width="1.56688" height="1.56066" transform="rotate(-90 694.948 42.7743)" fill="white" fill-opacity="0.6"/>
<rect x="708.497" y="42.7743" width="1.56688" height="1.56066" transform="rotate(-90 708.497 42.7743)" fill="white" fill-opacity="0.6"/>
<rect x="722.047" y="42.7743" width="1.56688" height="1.56066" transform="rotate(-90 722.047 42.7743)" fill="white" fill-opacity="0.6"/>
<rect x="735.597" y="42.7743" width="1.56688" height="1.56066" transform="rotate(-90 735.597 42.7743)" fill="white" fill-opacity="0.6"/>
<rect x="749.146" y="42.7743" width="1.56688" height="1.56066" transform="rotate(-90 749.146 42.7743)" fill="white" fill-opacity="0.6"/>
<rect x="762.696" y="42.7743" width="1.56688" height="1.56066" transform="rotate(-90 762.696 42.7743)" fill="white" fill-opacity="0.6"/>
<rect x="573" y="56.3779" width="1.56688" height="1.56066" transform="rotate(-90 573 56.3779)" fill="white" fill-opacity="0.6"/>
<rect x="586.55" y="56.3779" width="1.56688" height="1.56066" transform="rotate(-90 586.55 56.3779)" fill="white" fill-opacity="0.6"/>
<rect x="600.099" y="56.3779" width="1.56688" height="1.56066" transform="rotate(-90 600.099 56.3779)" fill="white" fill-opacity="0.6"/>
<rect x="613.649" y="56.3779" width="1.56688" height="1.56066" transform="rotate(-90 613.649 56.3779)" fill="white" fill-opacity="0.6"/>
<rect x="627.199" y="56.3779" width="1.56688" height="1.56066" transform="rotate(-90 627.199 56.3779)" fill="white" fill-opacity="0.6"/>
<rect x="640.749" y="56.3779" width="1.56688" height="1.56066" transform="rotate(-90 640.749 56.3779)" fill="white" fill-opacity="0.6"/>
<rect x="654.298" y="56.3779" width="1.56688" height="1.56066" transform="rotate(-90 654.298 56.3779)" fill="white" fill-opacity="0.6"/>
<rect x="667.848" y="56.3779" width="1.56688" height="1.56066" transform="rotate(-90 667.848 56.3779)" fill="white" fill-opacity="0.6"/>
<rect x="681.398" y="56.3779" width="1.56688" height="1.56066" transform="rotate(-90 681.398 56.3779)" fill="white" fill-opacity="0.6"/>
<rect x="694.948" y="56.3779" width="1.56688" height="1.56066" transform="rotate(-90 694.948 56.3779)" fill="white" fill-opacity="0.6"/>
<rect x="708.497" y="56.3779" width="1.56688" height="1.56066" transform="rotate(-90 708.497 56.3779)" fill="white" fill-opacity="0.6"/>
<rect x="722.047" y="56.3779" width="1.56688" height="1.56066" transform="rotate(-90 722.047 56.3779)" fill="white" fill-opacity="0.6"/>
<rect x="735.597" y="56.3779" width="1.56688" height="1.56066" transform="rotate(-90 735.597 56.3779)" fill="white" fill-opacity="0.6"/>
<rect x="749.146" y="56.3779" width="1.56688" height="1.56066" transform="rotate(-90 749.146 56.3779)" fill="white" fill-opacity="0.6"/>
<rect x="762.696" y="56.3779" width="1.56688" height="1.56066" transform="rotate(-90 762.696 56.3779)" fill="white" fill-opacity="0.6"/>
<rect x="573" y="69.9816" width="1.56688" height="1.56066" transform="rotate(-90 573 69.9816)" fill="white" fill-opacity="0.6"/>
<rect x="586.55" y="69.9816" width="1.56688" height="1.56066" transform="rotate(-90 586.55 69.9816)" fill="white" fill-opacity="0.6"/>
<rect x="600.099" y="69.9816" width="1.56688" height="1.56066" transform="rotate(-90 600.099 69.9816)" fill="white" fill-opacity="0.6"/>
<rect x="613.649" y="69.9816" width="1.56688" height="1.56066" transform="rotate(-90 613.649 69.9816)" fill="white" fill-opacity="0.6"/>
<rect x="627.199" y="69.9816" width="1.56688" height="1.56066" transform="rotate(-90 627.199 69.9816)" fill="white" fill-opacity="0.6"/>
<rect x="640.749" y="69.9816" width="1.56688" height="1.56066" transform="rotate(-90 640.749 69.9816)" fill="white" fill-opacity="0.6"/>
<rect x="654.298" y="69.9816" width="1.56688" height="1.56066" transform="rotate(-90 654.298 69.9816)" fill="white" fill-opacity="0.6"/>
<rect x="667.848" y="69.9816" width="1.56688" height="1.56066" transform="rotate(-90 667.848 69.9816)" fill="white" fill-opacity="0.6"/>
<rect x="681.398" y="69.9816" width="1.56688" height="1.56066" transform="rotate(-90 681.398 69.9816)" fill="white" fill-opacity="0.6"/>
<rect x="694.948" y="69.9816" width="1.56688" height="1.56066" transform="rotate(-90 694.948 69.9816)" fill="white" fill-opacity="0.6"/>
<rect x="708.497" y="69.9816" width="1.56688" height="1.56066" transform="rotate(-90 708.497 69.9816)" fill="white" fill-opacity="0.6"/>
<rect x="722.047" y="69.9816" width="1.56688" height="1.56066" transform="rotate(-90 722.047 69.9816)" fill="white" fill-opacity="0.6"/>
<rect x="735.597" y="69.9816" width="1.56688" height="1.56066" transform="rotate(-90 735.597 69.9816)" fill="white" fill-opacity="0.6"/>
<rect x="749.146" y="69.9816" width="1.56688" height="1.56066" transform="rotate(-90 749.146 69.9816)" fill="white" fill-opacity="0.6"/>
<rect x="762.696" y="69.9816" width="1.56688" height="1.56066" transform="rotate(-90 762.696 69.9816)" fill="white" fill-opacity="0.6"/>
<rect x="573" y="83.5853" width="1.56688" height="1.56066" transform="rotate(-90 573 83.5853)" fill="white" fill-opacity="0.6"/>
<rect x="586.55" y="83.5853" width="1.56688" height="1.56066" transform="rotate(-90 586.55 83.5853)" fill="white" fill-opacity="0.6"/>
<rect x="600.099" y="83.5853" width="1.56688" height="1.56066" transform="rotate(-90 600.099 83.5853)" fill="white" fill-opacity="0.6"/>
<rect x="613.649" y="83.5853" width="1.56688" height="1.56066" transform="rotate(-90 613.649 83.5853)" fill="white" fill-opacity="0.6"/>
<rect x="627.199" y="83.5853" width="1.56688" height="1.56066" transform="rotate(-90 627.199 83.5853)" fill="white" fill-opacity="0.6"/>
<rect x="640.749" y="83.5853" width="1.56688" height="1.56066" transform="rotate(-90 640.749 83.5853)" fill="white" fill-opacity="0.6"/>
<rect x="654.298" y="83.5853" width="1.56688" height="1.56066" transform="rotate(-90 654.298 83.5853)" fill="white" fill-opacity="0.6"/>
<rect x="667.848" y="83.5853" width="1.56688" height="1.56066" transform="rotate(-90 667.848 83.5853)" fill="white" fill-opacity="0.6"/>
<rect x="681.398" y="83.5853" width="1.56688" height="1.56066" transform="rotate(-90 681.398 83.5853)" fill="white" fill-opacity="0.6"/>
<rect x="694.948" y="83.5853" width="1.56688" height="1.56066" transform="rotate(-90 694.948 83.5853)" fill="white" fill-opacity="0.6"/>
<rect x="708.497" y="83.5853" width="1.56688" height="1.56066" transform="rotate(-90 708.497 83.5853)" fill="white" fill-opacity="0.6"/>
<rect x="722.047" y="83.5853" width="1.56688" height="1.56066" transform="rotate(-90 722.047 83.5853)" fill="white" fill-opacity="0.6"/>
<rect x="735.597" y="83.5853" width="1.56688" height="1.56066" transform="rotate(-90 735.597 83.5853)" fill="white" fill-opacity="0.6"/>
<rect x="749.146" y="83.5853" width="1.56688" height="1.56066" transform="rotate(-90 749.146 83.5853)" fill="white" fill-opacity="0.6"/>
<rect x="762.696" y="83.5853" width="1.56688" height="1.56066" transform="rotate(-90 762.696 83.5853)" fill="white" fill-opacity="0.6"/>
<rect x="573" y="97.189" width="1.56688" height="1.56066" transform="rotate(-90 573 97.189)" fill="white" fill-opacity="0.6"/>
<rect x="586.55" y="97.189" width="1.56688" height="1.56066" transform="rotate(-90 586.55 97.189)" fill="white" fill-opacity="0.6"/>
<rect x="600.099" y="97.189" width="1.56688" height="1.56066" transform="rotate(-90 600.099 97.189)" fill="white" fill-opacity="0.6"/>
<rect x="613.649" y="97.189" width="1.56688" height="1.56066" transform="rotate(-90 613.649 97.189)" fill="white" fill-opacity="0.6"/>
<rect x="627.199" y="97.189" width="1.56688" height="1.56066" transform="rotate(-90 627.199 97.189)" fill="white" fill-opacity="0.6"/>
<rect x="640.749" y="97.189" width="1.56688" height="1.56066" transform="rotate(-90 640.749 97.189)" fill="white" fill-opacity="0.6"/>
<rect x="654.298" y="97.189" width="1.56688" height="1.56066" transform="rotate(-90 654.298 97.189)" fill="white" fill-opacity="0.6"/>
<rect x="667.848" y="97.189" width="1.56688" height="1.56066" transform="rotate(-90 667.848 97.189)" fill="white" fill-opacity="0.6"/>
<rect x="681.398" y="97.189" width="1.56688" height="1.56066" transform="rotate(-90 681.398 97.189)" fill="white" fill-opacity="0.6"/>
<rect x="694.948" y="97.189" width="1.56688" height="1.56066" transform="rotate(-90 694.948 97.189)" fill="white" fill-opacity="0.6"/>
<rect x="708.497" y="97.189" width="1.56688" height="1.56066" transform="rotate(-90 708.497 97.189)" fill="white" fill-opacity="0.6"/>
<rect x="722.047" y="97.189" width="1.56688" height="1.56066" transform="rotate(-90 722.047 97.189)" fill="white" fill-opacity="0.6"/>
<rect x="735.597" y="97.189" width="1.56688" height="1.56066" transform="rotate(-90 735.597 97.189)" fill="white" fill-opacity="0.6"/>
<rect x="749.146" y="97.189" width="1.56688" height="1.56066" transform="rotate(-90 749.146 97.189)" fill="white" fill-opacity="0.6"/>
<rect x="762.696" y="97.189" width="1.56688" height="1.56066" transform="rotate(-90 762.696 97.189)" fill="white" fill-opacity="0.6"/>
<rect x="573" y="110.793" width="1.56688" height="1.56066" transform="rotate(-90 573 110.793)" fill="white" fill-opacity="0.6"/>
<rect x="586.55" y="110.793" width="1.56688" height="1.56066" transform="rotate(-90 586.55 110.793)" fill="white" fill-opacity="0.6"/>
<rect x="600.099" y="110.793" width="1.56688" height="1.56066" transform="rotate(-90 600.099 110.793)" fill="white" fill-opacity="0.6"/>
<rect x="613.649" y="110.793" width="1.56688" height="1.56066" transform="rotate(-90 613.649 110.793)" fill="white" fill-opacity="0.6"/>
<rect x="627.199" y="110.793" width="1.56688" height="1.56066" transform="rotate(-90 627.199 110.793)" fill="white" fill-opacity="0.6"/>
<rect x="640.749" y="110.793" width="1.56688" height="1.56066" transform="rotate(-90 640.749 110.793)" fill="white" fill-opacity="0.6"/>
<rect x="654.298" y="110.793" width="1.56688" height="1.56066" transform="rotate(-90 654.298 110.793)" fill="white" fill-opacity="0.6"/>
<rect x="667.848" y="110.793" width="1.56688" height="1.56066" transform="rotate(-90 667.848 110.793)" fill="white" fill-opacity="0.6"/>
<rect x="681.398" y="110.793" width="1.56688" height="1.56066" transform="rotate(-90 681.398 110.793)" fill="white" fill-opacity="0.6"/>
<rect x="694.948" y="110.793" width="1.56688" height="1.56066" transform="rotate(-90 694.948 110.793)" fill="white" fill-opacity="0.6"/>
<rect x="708.497" y="110.793" width="1.56688" height="1.56066" transform="rotate(-90 708.497 110.793)" fill="white" fill-opacity="0.6"/>
<rect x="722.047" y="110.793" width="1.56688" height="1.56066" transform="rotate(-90 722.047 110.793)" fill="white" fill-opacity="0.6"/>
<rect x="735.597" y="110.793" width="1.56688" height="1.56066" transform="rotate(-90 735.597 110.793)" fill="white" fill-opacity="0.6"/>
<rect x="749.146" y="110.793" width="1.56688" height="1.56066" transform="rotate(-90 749.146 110.793)" fill="white" fill-opacity="0.6"/>
<rect x="762.696" y="110.793" width="1.56688" height="1.56066" transform="rotate(-90 762.696 110.793)" fill="white" fill-opacity="0.6"/>
<rect x="573" y="124.396" width="1.56688" height="1.56066" transform="rotate(-90 573 124.396)" fill="white" fill-opacity="0.6"/>
<rect x="586.55" y="124.396" width="1.56688" height="1.56066" transform="rotate(-90 586.55 124.396)" fill="white" fill-opacity="0.6"/>
<rect x="600.099" y="124.396" width="1.56688" height="1.56066" transform="rotate(-90 600.099 124.396)" fill="white" fill-opacity="0.6"/>
<rect x="613.649" y="124.396" width="1.56688" height="1.56066" transform="rotate(-90 613.649 124.396)" fill="white" fill-opacity="0.6"/>
<rect x="627.199" y="124.396" width="1.56688" height="1.56066" transform="rotate(-90 627.199 124.396)" fill="white" fill-opacity="0.6"/>
<rect x="640.749" y="124.396" width="1.56688" height="1.56066" transform="rotate(-90 640.749 124.396)" fill="white" fill-opacity="0.6"/>
<rect x="654.298" y="124.396" width="1.56688" height="1.56066" transform="rotate(-90 654.298 124.396)" fill="white" fill-opacity="0.6"/>
<rect x="667.848" y="124.396" width="1.56688" height="1.56066" transform="rotate(-90 667.848 124.396)" fill="white" fill-opacity="0.6"/>
<rect x="681.398" y="124.396" width="1.56688" height="1.56066" transform="rotate(-90 681.398 124.396)" fill="white" fill-opacity="0.6"/>
<rect x="694.948" y="124.396" width="1.56688" height="1.56066" transform="rotate(-90 694.948 124.396)" fill="white" fill-opacity="0.6"/>
<rect x="708.497" y="124.396" width="1.56688" height="1.56066" transform="rotate(-90 708.497 124.396)" fill="white" fill-opacity="0.6"/>
<rect x="722.047" y="124.396" width="1.56688" height="1.56066" transform="rotate(-90 722.047 124.396)" fill="white" fill-opacity="0.6"/>
<rect x="735.597" y="124.396" width="1.56688" height="1.56066" transform="rotate(-90 735.597 124.396)" fill="white" fill-opacity="0.6"/>
<rect x="749.146" y="124.396" width="1.56688" height="1.56066" transform="rotate(-90 749.146 124.396)" fill="white" fill-opacity="0.6"/>
<rect x="762.696" y="124.396" width="1.56688" height="1.56066" transform="rotate(-90 762.696 124.396)" fill="white" fill-opacity="0.6"/>
<rect x="573" y="138" width="1.56688" height="1.56066" transform="rotate(-90 573 138)" fill="white" fill-opacity="0.6"/>
<rect x="586.55" y="138" width="1.56688" height="1.56066" transform="rotate(-90 586.55 138)" fill="white" fill-opacity="0.6"/>
<rect x="600.099" y="138" width="1.56688" height="1.56066" transform="rotate(-90 600.099 138)" fill="white" fill-opacity="0.6"/>
<rect x="613.649" y="138" width="1.56688" height="1.56066" transform="rotate(-90 613.649 138)" fill="white" fill-opacity="0.6"/>
<rect x="627.199" y="138" width="1.56688" height="1.56066" transform="rotate(-90 627.199 138)" fill="white" fill-opacity="0.6"/>
<rect x="640.749" y="138" width="1.56688" height="1.56066" transform="rotate(-90 640.749 138)" fill="white" fill-opacity="0.6"/>
<rect x="654.298" y="138" width="1.56688" height="1.56066" transform="rotate(-90 654.298 138)" fill="white" fill-opacity="0.6"/>
<rect x="667.848" y="138" width="1.56688" height="1.56066" transform="rotate(-90 667.848 138)" fill="white" fill-opacity="0.6"/>
<rect x="681.398" y="138" width="1.56688" height="1.56066" transform="rotate(-90 681.398 138)" fill="white" fill-opacity="0.6"/>
<rect x="694.948" y="138" width="1.56688" height="1.56066" transform="rotate(-90 694.948 138)" fill="white" fill-opacity="0.6"/>
<rect x="708.497" y="138" width="1.56688" height="1.56066" transform="rotate(-90 708.497 138)" fill="white" fill-opacity="0.6"/>
<rect x="722.047" y="138" width="1.56688" height="1.56066" transform="rotate(-90 722.047 138)" fill="white" fill-opacity="0.6"/>
<rect x="735.597" y="138" width="1.56688" height="1.56066" transform="rotate(-90 735.597 138)" fill="white" fill-opacity="0.6"/>
<rect x="749.146" y="138" width="1.56688" height="1.56066" transform="rotate(-90 749.146 138)" fill="white" fill-opacity="0.6"/>
<rect x="762.696" y="138" width="1.56688" height="1.56066" transform="rotate(-90 762.696 138)" fill="white" fill-opacity="0.6"/>
<defs>
<linearGradient id="paint0_linear" x1="0" y1="0" x2="773" y2="0" gradientUnits="userSpaceOnUse">
<stop stop-color="#F96D8C"/>
<stop offset="1" stop-color="#FBD862"/>
</linearGradient>
</defs>
</svg>
