<svg width="172" height="172" viewBox="0 0 172 172" fill="none" xmlns="http://www.w3.org/2000/svg">
<path fill-rule="evenodd" clip-rule="evenodd" d="M86 156.685C125.038 156.685 156.685 125.038 156.685 86C156.685 46.9618 125.038 15.3151 86 15.3151C46.9618 15.3151 15.3151 46.9618 15.3151 86C15.3151 125.038 46.9618 156.685 86 156.685ZM86 172C133.496 172 172 133.496 172 86C172 38.5035 133.496 0 86 0C38.5035 0 0 38.5035 0 86C0 133.496 38.5035 172 86 172Z" fill="#62514B"/>
<path fill-rule="evenodd" clip-rule="evenodd" d="M105.832 46.4093C105.459 45.4545 104.145 45.4446 103.758 46.3936L95.5559 66.5172C94.639 68.7667 94.6304 71.2978 95.5318 73.5539L110.81 111.791C111.328 113.086 112.557 113.931 113.921 113.931H130.566C131.359 113.931 131.901 113.109 131.606 112.354L105.832 46.4093ZM76.4441 66.8046L68.2421 46.681C67.8553 45.732 66.5414 45.7419 66.1682 46.6967L40.3941 112.641C40.0989 113.397 40.641 114.219 41.4342 114.219H58.0793C59.4434 114.219 60.6722 113.373 61.1897 112.078L76.4682 73.8413C77.3697 71.5852 77.361 69.0541 76.4441 66.8046Z" fill="url(#paint0_linear)"/>
<path fill-rule="evenodd" clip-rule="evenodd" d="M96.0101 116.071L87.4199 136.347C87.022 137.286 85.6932 137.305 85.2691 136.377L76.0954 116.308C74.9794 113.867 74.9678 111.065 76.0637 108.615L85.265 88.0378C85.6851 87.0984 87.0293 87.1168 87.4233 88.0674L96.0384 108.854C96.9969 111.167 96.9867 113.766 96.0101 116.071Z" fill="url(#paint1_linear)"/>
<defs>
<linearGradient id="paint0_linear" x1="40.3125" y1="45.6875" x2="131.688" y2="45.6875" gradientUnits="userSpaceOnUse">
<stop stop-color="#F96D8C"/>
<stop offset="1" stop-color="#FBD862"/>
</linearGradient>
<linearGradient id="paint1_linear" x1="75.25" y1="87.3438" x2="96.75" y2="87.3438" gradientUnits="userSpaceOnUse">
<stop stop-color="#F96D8C"/>
<stop offset="1" stop-color="#FBD862"/>
</linearGradient>
</defs>
</svg>
