<svg width="88" height="78" viewBox="0 0 88 78" fill="none" xmlns="http://www.w3.org/2000/svg">
<path d="M67.2175 26.2917H70.2917C71.9824 26.2917 73.6039 26.9633 74.7995 28.1588C75.995 29.3544 76.6667 30.9759 76.6667 32.6667H66.7486L66.75 34.0833H78.0833V32.6667C78.0789 31.1593 77.6433 29.6846 76.8282 28.4167H80.9167C82.2558 28.4163 83.5676 28.7955 84.6999 29.5104C85.8323 30.2252 86.7388 31.2464 87.3143 32.4556C83.9639 36.877 78.5395 39.75 72.4167 39.75C68.5052 39.75 65.1917 38.9142 62.5 37.4479V24.2672C64.2235 24.5141 65.8511 25.2126 67.2175 26.2917ZM59.6667 22.75C60.0136 22.75 60.3486 22.8774 60.6079 23.108C60.8671 23.3386 61.0328 23.6563 61.0734 24.0009L61.0833 24.1667V36.9167C61.0833 37.2924 60.9341 37.6527 60.6684 37.9184C60.4027 38.1841 60.0424 38.3333 59.6667 38.3333H56.8333C56.4576 38.3333 56.0973 38.1841 55.8316 37.9184C55.5659 37.6527 55.4167 37.2924 55.4167 36.9167V24.1667C55.4167 23.7909 55.5659 23.4306 55.8316 23.1649C56.0973 22.8992 56.4576 22.75 56.8333 22.75H59.6667ZM73.3318 15.0646L73.8333 15.5675L74.3348 15.066C74.6632 14.7348 75.0538 14.4717 75.4841 14.2919C75.9145 14.1121 76.3761 14.019 76.8425 14.018C77.3089 14.0171 77.7709 14.1083 78.202 14.2863C78.633 14.4644 79.0247 14.7259 79.3544 15.0557C79.6842 15.3856 79.9455 15.7773 80.1235 16.2084C80.3014 16.6395 80.3925 17.1015 80.3914 17.5679C80.3903 18.0343 80.2971 18.4959 80.1172 18.9262C79.9372 19.3565 79.674 19.747 79.3427 20.0753L73.8333 25.5833L68.3225 20.0725C67.9913 19.7441 67.7282 19.3535 67.5484 18.9232C67.3686 18.4928 67.2755 18.0312 67.2745 17.5648C67.2736 17.0984 67.3648 16.6364 67.5428 16.2053C67.7209 15.7743 67.9824 15.3826 68.3122 15.0529C68.6421 14.7231 69.0338 14.4618 69.4649 14.2838C69.896 14.1059 70.358 14.0148 70.8244 14.0159C71.2909 14.017 71.7524 14.1102 72.1827 14.2902C72.613 14.4701 73.0035 14.7333 73.3318 15.0646Z" fill="url(#paint0_linear)"/>
<path d="M3.929 24.929L5.343 26.343C3.895 27.791 3 29.791 3 32C3 34.21 3.895 36.21 5.343 37.657L3.93 39.07C2.119 37.261 1 34.761 1 32C1 29.239 2.12 26.739 3.929 24.929ZM20.071 24.929C21.881 26.739 23 29.239 23 32C23 34.761 21.88 37.262 20.071 39.071L18.657 37.657C20.105 36.209 21 34.209 21 32C21 29.791 20.105 27.792 18.658 26.344L20.07 24.93L20.071 24.929ZM13 25V31H16L11 39V33H8L13 25ZM6.757 27.757L8.172 29.172C7.448 29.895 7 30.895 7 32C7 33.105 7.448 34.105 8.172 34.828L6.757 36.243C5.672 35.157 5 33.657 5 32C5 30.343 5.672 28.843 6.757 27.757ZM17.244 27.758C18.329 28.844 19 30.344 19 32C19 33.657 18.328 35.157 17.243 36.243L15.828 34.828C16.552 34.105 17 33.105 17 32C17 30.896 16.553 29.896 15.83 29.173L17.244 27.758Z" fill="url(#paint1_linear)"/>
<path d="M51.1667 72.3333V75.1667H22.8333V72.3333H24.25V62.7595C23.3779 62.1774 22.6629 61.3889 22.1687 60.4642C21.6744 59.5394 21.4161 58.5069 21.4167 57.4583C21.4167 56.2867 21.734 55.1577 22.3134 54.1957L26.1554 47.5417C26.2798 47.3263 26.4586 47.1475 26.6739 47.0231C26.8893 46.8988 27.1336 46.8333 27.3823 46.8333H46.6192C46.8678 46.8333 47.1121 46.8988 47.3275 47.0231C47.5428 47.1475 47.7217 47.3263 47.846 47.5417L51.6738 54.1745C52.519 55.5782 52.7906 57.2537 52.4323 58.8525C52.074 60.4514 51.1134 61.8507 49.75 62.7595V72.3333H51.1667ZM28.2011 49.6667L24.7543 55.6351C24.4194 56.4626 24.4094 57.3861 24.7262 58.2208C25.043 59.0554 25.6634 59.7396 26.4631 60.1364C27.2628 60.5332 28.1829 60.6134 29.0392 60.3608C29.8954 60.1083 30.6248 59.5417 31.0812 58.7744C31.5558 57.5887 33.2345 57.5887 33.7105 58.7744C33.973 59.4323 34.4268 59.9964 35.0132 60.3938C35.5996 60.7912 36.2916 61.0036 37 61.0036C37.7084 61.0036 38.4004 60.7912 38.9868 60.3938C39.5732 59.9964 40.027 59.4323 40.2895 58.7744C40.7641 57.5887 42.4428 57.5887 42.9188 58.7744C43.1027 59.227 43.3782 59.6366 43.728 59.9776C44.0777 60.3185 44.4943 60.5834 44.9514 60.7556C45.4085 60.9279 45.8963 61.0037 46.3841 60.9783C46.8719 60.9529 47.3492 60.8269 47.7859 60.6082C48.2227 60.3895 48.6095 60.0827 48.922 59.7073C49.2345 59.3319 49.466 58.8959 49.6019 58.4267C49.7378 57.9575 49.7752 57.4653 49.7117 56.981C49.6482 56.4967 49.4852 56.0307 49.2329 55.6124L45.7975 49.6667H28.2025H28.2011Z" fill="url(#paint2_linear)"/>
<path d="M39.75 6H42L44.25 9.042V13.5H42.7238C42.6346 14.1257 42.3227 14.6983 41.8453 15.1125C41.3679 15.5267 40.757 15.7547 40.125 15.7547C39.493 15.7547 38.8821 15.5267 38.4047 15.1125C37.9273 14.6983 37.6154 14.1257 37.5262 13.5H33.7238C33.6346 14.1257 33.3227 14.6983 32.8453 15.1125C32.3679 15.5267 31.757 15.7547 31.125 15.7547C30.493 15.7547 29.8821 15.5267 29.4047 15.1125C28.9273 14.6983 28.6154 14.1257 28.5263 13.5H27.75V4.5C27.75 4.30109 27.829 4.11032 27.9697 3.96967C28.1103 3.82902 28.3011 3.75 28.5 3.75H39C39.1989 3.75 39.3897 3.82902 39.5303 3.96967C39.671 4.11032 39.75 4.30109 39.75 4.5V6ZM39.75 7.5V9.75H42.75V9.53625L41.244 7.5H39.75Z" fill="url(#paint3_linear)"/>
<defs>
<linearGradient id="paint0_linear" x1="55.4167" y1="14.0159" x2="87.3143" y2="14.0159" gradientUnits="userSpaceOnUse">
<stop stop-color="#F96D8C"/>
<stop offset="1" stop-color="#FBD862"/>
</linearGradient>
<linearGradient id="paint1_linear" x1="1" y1="24.929" x2="23" y2="24.929" gradientUnits="userSpaceOnUse">
<stop stop-color="#F96D8C"/>
<stop offset="1" stop-color="#FBD862"/>
</linearGradient>
<linearGradient id="paint2_linear" x1="21.4167" y1="46.8333" x2="52.5865" y2="46.8333" gradientUnits="userSpaceOnUse">
<stop stop-color="#F96D8C"/>
<stop offset="1" stop-color="#FBD862"/>
</linearGradient>
<linearGradient id="paint3_linear" x1="27.75" y1="3.75" x2="44.25" y2="3.75" gradientUnits="userSpaceOnUse">
<stop stop-color="#F96D8C"/>
<stop offset="1" stop-color="#FBD862"/>
</linearGradient>
</defs>
</svg>
