<svg width="670" height="570" fill="none" xmlns="http://www.w3.org/2000/svg"><path opacity=".5" fill-rule="evenodd" clip-rule="evenodd" d="M663.82 219.865c-6.722 30.265-23.49 58.507-27.607 88.979-4.205 31.128 21.655 64.51 3.082 92.552-18.566 28.031-65.728 25.081-88.797 50.983-31.503 35.37-11.642 64.012-55.833 89.213-38.712 22.075-83.84-5.428-130.092-8.198-43.222-2.589-110.139 44.243-144.927 24.533-37.416-21.2-23.333-74.386-56.076-100.008-31.849-24.924-92.912-23.552-110.547-56.523-17.92-33.503 26.144-52.565 32.467-89.458 5.03-29.351-8.584-57.445-12.352-86.609-5.282-40.887-47.02-88.509-14.566-121.747 32.392-33.175 103.733-3.637 152.222-19.237 39.151-12.595 58.6-56.473 99.894-61.87 41.612-5.439 74.293 28.518 115.368 33.737 42.063 5.344 59.91-18.18 101.55-11.32 46.769 7.703 86.464 35.477 108.607 68.959 23.479 35.502 36.617 65.446 27.607 106.014z" fill="url(#paint0_radial)"/><path opacity=".6" fill-rule="evenodd" clip-rule="evenodd" d="M250.266 72.579c38.095-16.289 41.12-63.786 83.102-69.546 41.885-5.747 45.328 38.87 81.149 58.486 24.622 13.482 73.772-3.822 100.539 6.156 30.759 11.466 43.512 40.562 70.568 57.628 30.274 19.095 73.605 38.661 75.335 71.004 1.906 35.655-54.283 55.108-66.772 89.13-9.85 26.836 15.858 57.701 3.334 83.691-12.376 25.684-50.506 34.189-70.607 55.925-24.5 26.493-28.335 67.012-60.759 86.126-31.394 18.506-75.96 26.848-111.625 15.492-38.505-12.26-53.5-52.658-82.866-77.42-20.64-17.403-42.746-32.559-65.596-47.763-25.199-16.767-60.063-24.103-77.2-47.25-17.058-23.041-6.558-54.194-17.016-80.008-13.984-34.517-54.223-61.278-55.034-97.84-.771-34.807 15.636-76.763 50.785-93.795C148.25 62.9 208.497 90.438 250.266 72.58z" fill="url(#paint1_radial)"/><path opacity=".6" fill-rule="evenodd" clip-rule="evenodd" d="M301.641 72.294c35.114-7.355 68.584-28.8 104.101-23.064 34.592 5.586 56.422 35.002 84.331 53.495 29.692 19.674 99.518 25.105 114.489 54.708 15.132 29.924-34.118 69.549-35.147 102.184-.929 29.433 44.449 67.439 26.615 92.544-19.461 27.395-94.009 19.866-121.72 41.335-21.873 16.947-11.94 72.716-36.967 86.025-25.035 13.315-68.518-24.341-96.003-15.309-34.201 11.239-65.003 79.427-101.359 75.793-34.988-3.497-47.733-43.306-76.784-60.484-27.452-16.231-72.25-12.334-97.26-31.276-24.842-18.816-7.886-78.144-21.708-104.049C28.784 315.247 1.9 288.862 1.13 257.001c-.766-31.766 11.98-66.641 38.863-88.362 28.336-22.894 75.174-15.962 109.54-31.544 25.671-11.639 39.906-36.926 65.908-48.004 26.639-11.348 57.329-10.75 86.2-16.797z" fill="url(#paint2_radial)"/><defs><radialGradient id="paint0_radial" cx="0" cy="0" r="1" gradientUnits="userSpaceOnUse" gradientTransform="matrix(88.27771 -296.81031 366.27884 108.93914 474.169 451.299)"><stop stop-color="#D1D3F9" stop-opacity=".38"/><stop offset="1" stop-color="#E9FDFE" stop-opacity=".58"/></radialGradient><radialGradient id="paint1_radial" cx="0" cy="0" r="1" gradientUnits="userSpaceOnUse" gradientTransform="rotate(179.706 248.726 75.383) scale(298.404 281.983)"><stop stop-color="#D1D3F9" stop-opacity=".38"/><stop offset="1" stop-color="#FEF2F8" stop-opacity=".65"/></radialGradient><radialGradient id="paint2_radial" cx="0" cy="0" r="1" gradientUnits="userSpaceOnUse" gradientTransform="matrix(-269.76143 -22.92753 19.87373 -233.83097 457.545 249.687)"><stop stop-color="#D1D3F9" stop-opacity=".72"/><stop offset=".995" stop-color="#D3DDFF" stop-opacity=".25"/></radialGradient></defs></svg>