<svg width="175" height="60" fill="none" xmlns="http://www.w3.org/2000/svg"><g clip-path="url(#clip0)"><path fill-rule="evenodd" clip-rule="evenodd" d="M60.25 10.717a1.465 1.465 0 01-2.913.307l-.771-7.328-7.551-.774a1.465 1.465 0 01.299-2.914l8.733.896c.69.07 1.235.614 1.308 1.303l.895 8.51zm-10.088 2.62C46.746 8.944 37.302 2.92 24.21 6.424a1.465 1.465 0 00.757 2.83c11.84-3.169 20.114 2.32 22.884 5.881a1.465 1.465 0 102.312-1.798zm-6.07 2.196c-3.33-2.569-7.668-4.468-12.837-4.574-5.172-.106-11.052 1.585-17.463 5.985a1.465 1.465 0 001.658 2.415c6.002-4.12 11.292-5.563 15.745-5.472 4.456.092 8.201 1.723 11.11 3.965a1.464 1.464 0 101.788-2.32zm-9.514 1.27c-1.626-.351-3.098-.539-4.76-.448-1.65.091-3.42.453-5.653 1.125a1.465 1.465 0 10.844 2.805c2.11-.636 3.636-.932 4.97-1.005 1.319-.072 2.516.07 3.98.386 2.211.476 5.127 2.008 7.204 4.704 2.036 2.645 3.32 6.477 2.23 11.732a1.465 1.465 0 102.869.595c1.259-6.075-.211-10.78-2.779-14.114-2.527-3.281-6.065-5.168-8.905-5.78zm12.78 1.843a1.465 1.465 0 00-1.983 2.156c2.326 2.14 3.379 5.155 3.627 6.977a1.465 1.465 0 102.902-.395c-.314-2.308-1.593-6.021-4.547-8.738zM21.57 21.533a1.464 1.464 0 10-1.29-2.63c-3.847 1.886-7.124 5.09-9.252 9.885a1.464 1.464 0 102.677 1.188c1.854-4.177 4.645-6.864 7.865-8.443zm18.437 17.282c2.847-5.099.55-11.019-3.682-14.154-2.152-1.594-4.873-2.542-7.827-2.362-2.965.181-6.05 1.492-8.939 4.218a1.465 1.465 0 002.01 2.13c2.459-2.32 4.916-3.29 7.107-3.424 2.203-.135 4.253.568 5.905 1.792 3.376 2.5 4.815 6.886 2.869 10.372a1.465 1.465 0 002.557 1.428zm-10.59-10.883c-1.216-.174-3.711.058-5.838 1.962-2.182 1.954-3.709 5.42-3.408 11.193a1.465 1.465 0 102.925-.153c-.27-5.207 1.122-7.68 2.437-8.857 1.37-1.227 2.95-1.32 3.47-1.245 1.476.21 2.296.746 2.721 1.583.478.941.661 2.64-.095 5.621-.263 1.038-.315 1.913-.172 2.746.138.806.447 1.48.728 2.07a1.465 1.465 0 002.644-1.26c-.276-.58-.421-.934-.485-1.306-.06-.345-.062-.797.124-1.53.816-3.217.829-5.775-.132-7.667-1.013-1.995-2.899-2.868-4.919-3.157zm-10.513 3.853a1.465 1.465 0 00-2.505-1.52c-1.96 3.233-4.035 10.41-.394 19.251a1.465 1.465 0 102.708-1.115c-3.26-7.918-1.324-14.12.19-16.617zm-6.526 2.065a1.465 1.465 0 10-2.838-.724c-.511 2.003-.86 4.206-1.027 6.62a1.465 1.465 0 102.923.202c.155-2.257.479-4.284.942-6.098zm16.99 1.63a1.465 1.465 0 00-2.759-.986c-.83 2.32-1.394 5.952-.187 9.227a9.312 9.312 0 003.396 4.448c1.697 1.203 3.936 1.993 6.801 2.248a1.465 1.465 0 00.26-2.917c-2.469-.22-4.182-.88-5.366-1.72a6.385 6.385 0 01-2.342-3.072c-.887-2.407-.498-5.286.196-7.227zm15.492 5.558a1.465 1.465 0 10-2.675-1.194c-1.266 2.836-3.472 3.531-5.137 3.184a1.465 1.465 0 10-.598 2.867c3.084.644 6.611-.83 8.41-4.857zM23.632 44.96a1.464 1.464 0 10-2.819.796c1.451 5.137 4.31 7.573 7.291 8.367a1.464 1.464 0 10.754-2.83c-1.822-.486-4.008-2.021-5.226-6.333zm65.789-5.417c-.933.294-1.942.44-3.028.44-1.085 0-2.094-.146-3.027-.44a7.852 7.852 0 01-2.49-1.322c-.717-.578-1.282-1.33-1.695-2.257-.412-.927-.619-1.978-.619-3.153V21.48c0-.523.162-.927.485-1.212.332-.293.73-.44 1.197-.44.449 0 .839.147 1.17.44.333.285.499.689.499 1.212v11.234c0 .77.125 1.454.376 2.051.26.597.606 1.074 1.037 1.432.43.348.906.615 1.426.798a5.13 5.13 0 001.641.262c.583 0 1.135-.087 1.655-.262.53-.183 1.01-.45 1.44-.798.43-.358.772-.835 1.023-1.432.26-.597.39-1.28.39-2.051V21.48c0-.523.161-.927.484-1.212.332-.293.731-.44 1.198-.44.448 0 .834.147 1.157.44.332.285.498.689.498 1.212v11.33c0 1.175-.211 2.226-.633 3.153-.412.927-.982 1.68-1.708 2.258a7.69 7.69 0 01-2.476 1.321zm13.104-.248a1.618 1.618 0 01-1.076.386 1.62 1.62 0 01-1.077-.386c-.296-.257-.444-.615-.444-1.073V22.003c0-.642.175-1.147.525-1.514.35-.377.781-.565 1.292-.565.359 0 .731.092 1.117.276.385.183.699.45.942.798l9.284 13.588V21.397c0-.459.152-.821.457-1.087.305-.266.664-.4 1.077-.4.412 0 .767.134 1.063.4.305.257.457.62.457 1.087v16.204c0 .633-.184 1.138-.552 1.514a1.75 1.75 0 01-1.318.565c-.341 0-.713-.101-1.117-.303a2.609 2.609 0 01-.942-.826l-9.217-13.423v13.093c0 .45-.157.807-.471 1.073zm21.245.358c.458 0 .852-.142 1.184-.427.332-.284.498-.688.498-1.211V21.549c0-.523-.166-.927-.498-1.212a1.71 1.71 0 00-1.17-.44 1.73 1.73 0 00-1.184.44c-.332.285-.498.689-.498 1.212v16.465c0 .514.161.918.484 1.211a1.76 1.76 0 001.184.427zm14.531-.399c-.332.294-.727.44-1.184.44a1.71 1.71 0 01-1.171-.44c-.332-.294-.498-.702-.498-1.225V22.636h-4.695c-.413 0-.736-.137-.969-.413a1.423 1.423 0 01-.35-.95c0-.357.116-.674.35-.95.233-.275.556-.413.969-.413h12.728c.404 0 .718.138.942.413.233.276.35.593.35.95 0 .358-.117.675-.35.95-.224.276-.538.413-.942.413h-4.682v15.392c0 .523-.166.931-.498 1.225zm12.163.4a1.76 1.76 0 001.184-.428c.332-.284.498-.688.498-1.211V21.549c0-.523-.166-.927-.498-1.212a1.71 1.71 0 00-1.171-.44 1.73 1.73 0 00-1.184.44c-.332.285-.498.689-.498 1.212v16.465c0 .514.162.918.485 1.211.331.285.726.427 1.184.427zm14.207.013h-4.87A1.646 1.646 0 01158.132 38V21.59c0-.459.162-.854.484-1.184.332-.33.727-.495 1.185-.495h4.628c3.427 0 6.019.853 7.777 2.56 1.768 1.707 2.651 4.171 2.651 7.393 0 3.157-.892 5.58-2.677 7.269-1.777 1.689-4.279 2.533-7.509 2.533zm-3.202-17.043v14.33h3.404c1.229 0 2.261-.141 3.095-.426.843-.294 1.516-.743 2.018-1.349.503-.615.861-1.354 1.077-2.216.224-.872.336-1.928.336-3.167 0-2.588-.556-4.428-1.668-5.52-1.104-1.102-2.857-1.652-5.261-1.652h-3.001zM58.947 47.483a1.465 1.465 0 011.303 1.61l-.895 8.51a1.465 1.465 0 01-1.308 1.304l-8.733.896a1.465 1.465 0 01-.3-2.914l7.552-.775.771-7.327a1.465 1.465 0 011.61-1.303zm-57.636 0a1.465 1.465 0 00-1.303 1.61l.896 8.51a1.465 1.465 0 001.307 1.304l8.734.896a1.465 1.465 0 00.299-2.914l-7.551-.775-.772-7.327a1.465 1.465 0 00-1.61-1.303zM.008 10.718a1.465 1.465 0 002.913.307l.772-7.328 7.55-.774a1.464 1.464 0 10-.298-2.914L2.21.904C1.52.974.975 1.518.903 2.207l-.896 8.51z" fill="url(#paint0_linear)"/></g><defs><linearGradient id="paint0_linear" x1="0" y1="36.883" x2="174.857" y2="36.883" gradientUnits="userSpaceOnUse"><stop stop-color="#846BF6"/><stop offset=".505" stop-color="#59B3E6"/><stop offset="1" stop-color="#2AE8C7"/></linearGradient><clipPath id="clip0"><path fill="#fff" d="M0 0h174.857v60H0z"/></clipPath></defs></svg>