<svg width="23" height="24" fill="none" xmlns="http://www.w3.org/2000/svg"><path fill-rule="evenodd" clip-rule="evenodd" d="M18.788 15.863c.07.46-.077.65-.223.65-.16 0-.36-.187-.597-.554-.233-.363-.319-.78-.203-.99.077-.139.236-.2.438-.123.391.147.544.742.585 1.017zm-2.161 1.001c.469.395.611.863.363 1.194-.137.181-.36.281-.628.281a1.12 1.12 0 01-.717-.258c-.425-.37-.55-.972-.272-1.313.108-.133.285-.207.496-.207.258 0 .527.108.758.303z" fill="#FF8C00"/><mask id="a" maskUnits="userSpaceOnUse" x="0" y="0" width="23" height="24"><path d="M0 0h22.895v23.576H0V0z" fill="#fff"/></mask><g mask="url(#a)"><path fill-rule="evenodd" clip-rule="evenodd" d="M15.844 20.671c2.017 0 4.206.689 6.629 2.827.242.214.565-.052.354-.318-2.381-2.994-4.583-3.564-6.78-4.046-2.685-.59-4.067-2.095-5.03-3.748-.192-.33-.277-.271-.295.152a9.301 9.301 0 00.131 1.874c-.108.005-.217.004-.327.004-3.843 0-6.958-3.104-6.958-6.931 0-3.828 3.115-6.931 6.958-6.931s6.958 3.103 6.958 6.93c0 .273-.013.542-.043.806-.509-.09-1.509-.101-2.21-.04-.264.022-.227.144-.028.18 2.3.414 3.88 1.834 4.242 4.41.008.06.086.078.117.026a10.403 10.403 0 001.49-5.381C21.052 4.695 16.34 0 10.526 0S0 4.694 0 10.485c0 5.79 4.713 10.485 10.526 10.485 1.542 0 3.072-.299 5.318-.299z" fill="#FF8C00"/></g></svg>