<svg width="34" height="34" fill="none" xmlns="http://www.w3.org/2000/svg"><path d="M17 .577c-9.39 0-17 6.72-17 15.01 0 4.203 1.962 7.997 5.115 10.723-.691 3.993-5.152 5.612-4.846 6.712 3.769 1.56 11.317-1.873 13.16-2.764a19.2 19.2 0 003.57.339c9.389 0 17.001-6.72 17.001-15.01C34 7.294 26.388.576 17 .576zm-1.205 15.634c0 4.082-1.806 6.372-5.365 6.806h-.021a.165.165 0 01-.166-.166v-2.073c0-.06.033-.117.085-.144 1.623-.886 2.433-2.279 2.475-4.256h-2.394a.167.167 0 01-.166-.166v-5.218c0-.091.076-.166.166-.166h5.22c.09 0 .166.075.166.166v5.217zm9.24 0c0 4.02-1.598 6.055-5.35 6.804a.172.172 0 01-.138-.035.165.165 0 01-.06-.128v-2.074c0-.06.033-.117.085-.144 1.623-.886 2.434-2.279 2.475-4.256h-2.394a.167.167 0 01-.166-.166v-5.218c0-.091.076-.166.166-.166h5.217c.093 0 .166.075.166.166v5.217z" fill="#fff"/></svg>