<svg width="89" height="99" fill="none" xmlns="http://www.w3.org/2000/svg"><g filter="url(#filter0_d)"><rect x="20.636" y="20.5" width="47" height="58" rx="2.5" fill="#fff" stroke="#6248EC"/><path d="M51.078 40.746c-.208-.08-.385-.016-.465.13-.128.225-.032.662.209 1.05.24.387.465.58.625.58.16 0 .304-.193.24-.694-.032-.29-.192-.92-.609-1.066zm-2.437 1.809c-.224 0-.4.08-.513.226-.288.355-.16 1.001.289 1.389.192.177.48.274.753.274a.842.842 0 00.658-.29c.256-.356.112-.84-.385-1.26-.257-.226-.545-.34-.802-.34zm-5.61 4.683C36.937 47.238 32 42.264 32 36.128 32 29.973 36.938 25 43.03 25s11.03 4.974 11.03 11.111c0 2.083-.577 4.038-1.555 5.701-.032.049-.112.032-.128-.032-.385-2.73-2.036-4.232-4.441-4.684-.209-.032-.24-.161.032-.193.737-.065 1.78-.049 2.325.048a7.46 7.46 0 00.048-.856c0-4.054-3.27-7.348-7.295-7.348-4.024 0-7.294 3.294-7.294 7.348s3.27 7.348 7.294 7.348h.337a9.977 9.977 0 01-.145-1.986c.017-.453.113-.517.305-.162 1.01 1.76 2.453 3.343 5.275 3.973 2.308.517 4.617 1.114 7.102 4.296.224.275-.112.565-.369.34-2.533-2.262-4.842-3.005-6.942-3.005-2.357.016-3.96.34-5.579.34z" fill="#816DF0"/><rect x="31.273" y="55.591" width="26.136" height="4" rx="1" fill="#F0EDFE"/><rect x="25" y="62.591" width="39" height="4" rx="1" fill="#F0EDFE"/><rect x="25" y="69.591" width="39" height="4" rx="1" fill="#F0EDFE"/></g><defs><filter id="filter0_d" x="-6" y="0" width="100" height="100" filterUnits="userSpaceOnUse" color-interpolation-filters="sRGB"><feFlood flood-opacity="0" result="BackgroundImageFix"/><feColorMatrix in="SourceAlpha" values="0 0 0 0 0 0 0 0 0 0 0 0 0 0 0 0 0 0 127 0"/><feOffset/><feGaussianBlur stdDeviation="10"/><feColorMatrix values="0 0 0 0 0.388235 0 0 0 0 0.286275 0 0 0 0 0.921569 0 0 0 0.35 0"/><feBlend in2="BackgroundImageFix" result="effect1_dropShadow"/><feBlend in="SourceGraphic" in2="effect1_dropShadow" result="shape"/></filter></defs></svg>