<svg width="102" height="102" fill="none" xmlns="http://www.w3.org/2000/svg"><g filter="url(#filter0_d)"><path fill-rule="evenodd" clip-rule="evenodd" d="M66.408 62.68l-3.145-3.146c-.399.43-3.3 3.33-3.73 3.73l3.146 3.144 3.73-3.729z" fill="#fff"/><path d="M80.537 74.322l-.856-.856-6.228-6.227-.001-.002-2.486-2.486-.002-.002-2.194-2.194a1.571 1.571 0 00-1.119-.463c-.422 0-.82.164-1.118.463l-.125.124-3.729 3.73-.124.123a1.571 1.571 0 00-.463 1.12c0 .422.164.82.463 1.118l2.195 2.195h.001l2.486 2.487.002.001 7.083 7.083a1.58 1.58 0 002.238.001l3.977-3.978c.298-.299.463-.696.463-1.118 0-.423-.165-.82-.463-1.119zM63.263 59.534a23.654 23.654 0 004.66-9.774l.155-.878.156-.88a22.96 22.96 0 00.173-1.694l.026-.879.026-.879a24.54 24.54 0 00-.07-1.695l-.101-.879-.1-.879c-.615-4.04-2.257-7.82-4.84-11.084l-2.662-2.848A23.673 23.673 0 0044.73 21C31.645 21 21 31.645 21 44.73c0 11.553 8.299 21.202 19.247 23.304l.88.135.878.135c.56.064 1.124.109 1.695.133l.879.006.879.006c.57-.017 1.135-.054 1.694-.11l.88-.124.878-.123a23.637 23.637 0 0010.624-4.829c.43-.399 3.33-3.3 3.73-3.73z" fill="#fff"/><path d="M66.408 62.68l.124-.125a1.572 1.572 0 011.12-.463c.422 0 .82.164 1.118.463l2.194 2.194.002.002 2.486 2.486.001.002 6.228 6.227.856.856c.298.299.463.696.463 1.118 0 .423-.165.82-.463 1.12l-3.978 3.977a1.572 1.572 0 01-1.118.463 1.57 1.57 0 01-1.12-.464l-7.082-7.083-.002-.001-2.486-2.486-.001-.001-2.195-2.195a1.572 1.572 0 01-.463-1.119c0-.422.164-.82.463-1.118l.124-.125m3.73-3.729l-3.146-3.145m3.145 3.145l-3.729 3.73m.584-6.875a23.654 23.654 0 004.66-9.774l.155-.878m-4.815 10.652c-.399.43-3.3 3.33-3.73 3.73M72.65 48.88h-4.572m8.762-3.452h-8.407m4.218-3.453h-4.363M41.126 72.5v-4.33m3.453 8.463v-8.189m3.452 4.056v-4.284m11.503-4.952a23.637 23.637 0 01-10.624 4.83l-.879.122m11.503-4.952l3.145 3.145m-14.648 1.807l-.879.123a23.12 23.12 0 01-1.694.11l-.88-.005m0 0l-.878-.006c-.57-.024-1.136-.07-1.695-.133l-.879-.135m0 0l-.879-.135C29.3 65.932 21 56.283 21 44.73 21 31.645 31.645 21 44.73 21c5.916 0 11.583 2.19 15.956 6.165l2.661 2.848c2.584 3.265 4.226 7.044 4.84 11.084l.1.88m-.209 6.905l.156-.88a22.96 22.96 0 00.173-1.694l.026-.879m0 0l.026-.879a24.54 24.54 0 00-.07-1.695l-.101-.879" stroke="#FE8A8F"/><path d="M44.73 64.945c-4.49-.053-8.719-1.48-12.239-4.126l-2.89-2.644a19.757 19.757 0 01-5.085-13.454c.057-5.4 2.177-10.47 5.968-14.277 3.808-3.823 8.867-5.928 14.246-5.928 11.147 0 20.215 9.068 20.215 20.215 0 11.146-9.068 20.214-20.214 20.214z" fill="#fff" stroke="#FE8A8F"/><path d="M39.984 45.14h-4.687V34.829c0-.259.14-.469.312-.469h4.063c.172 0 .312.21.312.47v10.31zm14.063 0h-4.688v-5.859c0-.259.14-.468.313-.468h4.062c.173 0 .313.21.313.468v5.86zm-7.031 0h-4.688V30.376c0-.259.14-.469.313-.469h4.062c.173 0 .313.21.313.469v14.766zm7.851 8.327H50.73l-1.88-4.805a.88.88 0 00-1.642.015l-2.569 6.927-1.795-5.089a.879.879 0 00-1.596-.136l-1.724 3.088h-4.127a.879.879 0 100 1.758h4.642a.88.88 0 00.768-.45l1.027-1.84 1.956 5.544c.123.35.451.584.822.587h.007a.879.879 0 00.824-.574l2.611-7.041 1.258 3.215a.879.879 0 00.818.559h4.738a.879.879 0 100-1.758z" fill="#FE8A8F"/></g><defs><filter id="filter0_d" x=".5" y=".5" width="101" height="101" filterUnits="userSpaceOnUse" color-interpolation-filters="sRGB"><feFlood flood-opacity="0" result="BackgroundImageFix"/><feColorMatrix in="SourceAlpha" values="0 0 0 0 0 0 0 0 0 0 0 0 0 0 0 0 0 0 127 0"/><feOffset/><feGaussianBlur stdDeviation="10"/><feColorMatrix values="0 0 0 0 1 0 0 0 0 0.564706 0 0 0 0 0.556863 0 0 0 0.6 0"/><feBlend in2="BackgroundImageFix" result="effect1_dropShadow"/><feBlend in="SourceGraphic" in2="effect1_dropShadow" result="shape"/></filter></defs></svg>