<svg width="24" height="24" fill="none" xmlns="http://www.w3.org/2000/svg"><g clip-path="url(#clip0)" fill="#FE8A8F"><path d="M23.739 19.76L13.667 2.315c-.741-1.284-2.593-1.284-3.335 0L.261 19.76c-.742 1.284.184 2.888 1.667 2.888h20.143c1.483 0 2.41-1.604 1.668-2.888zm-1.668 1.123H1.928a.16.16 0 01-.14-.241L11.86 3.198a.16.16 0 01.28 0l10.07 17.444a.16.16 0 01-.139.241z"/><path d="M12 8.671a.882.882 0 00-.883.883v5.057a.882.882 0 001.765 0V9.554A.882.882 0 0012 8.67zm0 7.969a.882.882 0 00-.883.882v.527a.882.882 0 001.765 0v-.527A.882.882 0 0012 16.64z"/></g><defs><clipPath id="clip0"><path fill="#fff" d="M0 0h24v24H0z"/></clipPath></defs></svg>