<svg xmlns="http://www.w3.org/2000/svg" width="66" height="66" viewBox="0 0 66 66"><g><g><path fill="#ffbd0c" d="M63.688 30.02v1.1h-1.102a4.404 4.404 0 0 1-4.405-4.401v-1.1h1.101a4.404 4.404 0 0 1 4.406 4.402zM58.18 48.729l-4.406-4.402h8.811l.1.1zm1.101-35.214l-3.304 5.58 1.222 3.224H41.66v-5.503a5.506 5.506 0 0 1-5.507 5.503H12.11l.914-2.125-4.405-6.68 5.507-5.502 6.608 4.325 7.71-3.224 1.1-7.703h8.812l1.101 7.703 7.71 3.224 6.608-4.325zm-1.101 13.205a4.404 4.404 0 0 1-4.406 4.402h-1.068v-1.112a4.404 4.404 0 0 1 4.405-4.39h1.069zM42.76 41.025l-5.506 5.502-2.203 2.201 3.304 16.506h-7.71l2.203-16.506-2.203-2.201-5.507-5.502 1.102-1.1h4.405l3.304 3.3 3.305-3.3h4.405zM15.227 30.021h-3.304a4.391 4.391 0 0 1-4.395-4.249 4.264 4.264 0 0 1 1.124-.154h2.17a4.404 4.404 0 0 1 4.405 4.403zM9.72 48.728l-4.405-4.402h8.81l.1.1zM7.518 25.772v2.036a2.201 2.201 0 0 1-2.203 2.201H4.246a4.403 4.403 0 0 1 3.272-4.237z"/></g><g><path fill="#006eb1" d="M46.802 12.936c-.306.199-.69.235-1.028.095l-7.702-3.223a1.1 1.1 0 0 1-.66-.86l-.965-6.757h-6.894l-.969 6.754a1.1 1.1 0 0 1-.66.86l-7.702 3.224a1.11 1.11 0 0 1-1.029-.094L13.338 9.1l-4.235 4.235 3.908 5.93a1.1 1.1 0 0 1 .091 1.043l-.919 2.121-2.02-.873.683-1.576-4.071-6.184a1.1 1.1 0 0 1 .14-1.383l5.502-5.502a1.101 1.101 0 0 1 1.38-.142l6.115 4.004 6.585-2.75L27.51.935a1.101 1.101 0 0 1 1.09-.944H37.4c.547 0 1.011.402 1.09.944l1.01 7.088 6.592 2.75 6.113-4.007a1.101 1.101 0 0 1 1.381.143l5.502 5.502a1.1 1.1 0 0 1 .168 1.337l-3.031 5.126 1.033 2.728-2.059.778-1.22-3.222a1.097 1.097 0 0 1 .084-.949l2.86-4.841-4.264-4.265zM21.219 42.124l3.301-3.3c.206-.208.486-.323.778-.323h15.404c.291 0 .572.115.778.322l3.3 3.3a1.1 1.1 0 0 1 .323.779v22.006a1.1 1.1 0 0 1-1.1 1.1H21.997c-.607 0-1.1-.493-1.1-1.1V42.902a1.1 1.1 0 0 1 .322-.778zm14.84 21.684l-3.037-15.189a1.04 1.04 0 0 1-.022-.21.99.99 0 0 1-.01.14l-2.033 15.259zM33.645 40.7h-1.29l.645.645zm-2.39 5.502l1.423 1.43c.204.205.32.48.322.77a1.092 1.092 0 0 1 .322-.777l1.423-1.423L33 44.458zm11.648 17.605v-20.45l-1.1-1.101-4.724 4.724-1.784 1.784 3.008 15.043zM40.246 40.7h-3.49l-2.2 2.201 1.745 1.745zm-14.493 0l3.946 3.946 1.745-1.745-2.2-2.201zm-2.656 23.107h5.64l2-15.012-1.816-1.815-4.723-4.723-1.1 1.1zm1.1-36.31v-6.601a6.608 6.608 0 0 1 6.602-6.603h9.903a1.1 1.1 0 0 1 1.1 1.1v12.104A8.813 8.813 0 0 1 33 36.3a8.813 8.813 0 0 1-8.802-8.802zm2.201-6.601h8.803c2.43 0 4.4-1.971 4.4-4.402H30.8a4.401 4.401 0 0 0-4.4 4.402zm0 6.601A6.601 6.601 0 0 0 33 34.1a6.601 6.601 0 0 0 6.602-6.602v-6.096a6.564 6.564 0 0 1-4.401 1.695h-8.803zm22.328 19.027l3.301-3.301c.206-.207.487-.322.778-.322h8.802c.292 0 .573.115.778.322l3.301 3.301c.207.206.323.486.323.778v17.605c0 .607-.493 1.1-1.1 1.1H49.503a1.1 1.1 0 0 1-1.1-1.1V47.303c0-.292.116-.572.322-.778zm1.879 1.233v16.05h5.501V47.303h2.2v16.505h5.502v-16.05l-2.124-2.123-2.623 2.47-.754-.802-.755-.802 1.486-1.398h-3.577l1.423 1.422-.778.778-.778.778-2.523-2.523zm7.702-23.561a5.508 5.508 0 0 1 5.5 5.502v5.512a6.601 6.601 0 0 1-6.593 6.59h-.022a6.59 6.59 0 0 1-6.569-6.612l.018-5.509a5.512 5.512 0 0 1 5.501-5.483zm-5.466 5.49v.012a3.301 3.301 0 0 0 3.265-3.302 3.3 3.3 0 0 0-3.265 3.29zm8.766 5.52V31.9a5.502 5.502 0 0 1-4.4-2.2 5.499 5.499 0 0 1-4.369 2.2l-.01 3.301v.01a4.39 4.39 0 0 0 4.39 4.39 4.4 4.4 0 0 0 4.39-4.393zm-3.3-8.81a3.3 3.3 0 0 0 3.3 3.302 3.3 3.3 0 0 0-3.3-3.302zM16.496 66.008H1.092a1.1 1.1 0 0 1-1.1-1.1V47.303c0-.292.115-.572.322-.778l3.3-3.301c.206-.207.487-.322.778-.322h8.803c.291 0 .572.115.778.322l3.3 3.301c.207.206.323.486.323.778v17.605a1.1 1.1 0 0 1-1.1 1.1zm-1.1-2.2v-16.05l-2.124-2.123-2.623 2.47-.755-.802v16.505zM9.893 47.303zm0 0l-.755-.802 1.487-1.398H7.048l1.423 1.422-1.556 1.556-2.523-2.523-2.2 2.2v16.05h5.501V47.303zM2.228 29.68a5.512 5.512 0 0 1 5.502-5.483h2.164a5.508 5.508 0 0 1 5.501 5.502v5.512a6.602 6.602 0 0 1-6.594 6.59H8.78a6.59 6.59 0 0 1-6.568-6.612zm10.967 5.53v-4.412h-2.2a5.476 5.476 0 0 1-3.812-1.548c-.131.21-.285.406-.459.582-.61.609-1.434.954-2.295.958l-.015 4.41v.01a4.39 4.39 0 0 0 4.39 4.39 4.4 4.4 0 0 0 4.39-4.39zm-3.301-8.813H7.896a3.3 3.3 0 0 0 3.098 2.201h1.998a3.3 3.3 0 0 0-3.098-2.2zM4.65 28.542c.196-.04.375-.136.518-.274.21-.207.326-.488.325-.78v-.202a3.31 3.31 0 0 0-.843 1.256z"/></g></g></svg>