<svg xmlns="http://www.w3.org/2000/svg" width="66" height="66" viewBox="0 0 66 66"><defs><clipPath id="e5jwa"><path fill="#fff" d="M33 0c18.225 0 33 14.774 33 33 0 18.225-14.775 33-33 33S0 51.225 0 33C0 14.773 14.775 0 33 0z"/></clipPath><clipPath id="e5jwb"><path fill="#fff" d="M9 12.453L55.666 55"/></clipPath></defs><g><g><g><path fill="#ffbd0c" d="M56.624 24.738c.185.276 0 .644-.277.737l-11.835 4.972a.589.589 0 0 1-.554 0l-12.852-8.564c0-.093-.092-.093-.092-.184-.093-.277 0-.645.277-.737l10.633-4.329c.092-.092.277-.092.462 0l14.053 7.829c.093.091.185.183.185.276zm0 15.195c.093.277 0 .645-.277.737l-11.742 5.065h-.185c-.277 0-.555-.276-.555-.553v-4.88c0-.276.185-.46.37-.553l6.842-2.855c.092-.092.277-.092.462 0l4.9 2.763c.093.092.185.184.185.276zm-18.676 8.473l-11.927 4.973c-.092.092-.277.092-.462 0l-14.146-8.288c0-.093-.092-.093-.092-.184-.185-.277-.093-.553.185-.737l4.9-1.934c.092-.093.277-.093.462 0l8.783 5.157c.093.092.278.092.463 0l11.372-4.789h.185c.277 0 .554.276.554.552v4.79c0 .276-.184.46-.277.46zm0-15.748c.093.276 0 .644-.277.737l-11.835 4.973c-.092.092-.277.092-.462 0l-14.146-8.289c-.092-.092-.185-.184-.185-.276-.185-.276 0-.645.278-.737l13.036-5.341c.185 0 .37 0 .555.091l12.944 8.565c.092.093.092.093.092.277z"/></g><g><path fill="#006eb1" d="M10.176 29.48c0-.368.277-.644.554-.828l13.215-5.427 6.56-2.759c.093 0 .186-.092.37-.092l10.627-4.324c.278-.091.555-.091.832.093l14.139 8.094c.462.184.646.736.37 1.196 0 .184-.186.368-.463.46l-3.419 1.38 3.512 1.931c.462.276.554.828.37 1.288-.093.184-.278.276-.463.368l-3.419 1.472 3.512 1.931c.462.184.646.736.462 1.196a.83.83 0 0 1-.555.552l-3.419 1.38 3.512 1.931c.462.276.554.828.37 1.288-.093.184-.278.276-.463.368l-11.92 5.059-.093.092-6.561 2.76-12.013 5.058c-.277.093-.555.093-.832-.091l-14.323-8.37c-.462-.277-.555-.829-.37-1.289.093-.184.277-.276.462-.368l3.327-1.38-3.512-2.023c-.462-.276-.554-.828-.37-1.288.093-.184.278-.276.463-.368l3.326-1.38-3.511-2.023c-.462-.276-.555-.828-.37-1.288.093-.184.277-.276.462-.368l3.327-1.38-3.512-2.023c-.092-.092-.277-.46-.184-.828zM44.92 43.921l9.057-3.863-3.142-1.748-5.915 2.484zm0-5.059L53.978 35l-3.142-1.748-5.915 2.484zm0-5.059l9.057-3.863-3.142-1.748-5.915 2.484zm9.057-8.922L41.78 18.074l-8.872 3.587 11.182 7.451zm-16.08 7.267c.278.184.37.46.37.736V46.68l4.713-2.024V30.676l-12.198-8.187-4.528 1.84zM13.133 44.933l12.29 7.175 10.997-4.691v-3.036L25.793 48.89c-.277.092-.555.092-.832-.092l-8.871-5.151zm0-5.059l12.29 7.175 10.997-4.691v-3.036L25.7 43.83c-.277.091-.554.091-.831-.092l-8.872-5.152zm0-5.059l12.29 7.175L36.42 37.3v-3.036L25.793 38.77c-.093.092-.277.092-.37.092-.185 0-.37 0-.462-.092l-8.871-5.15zm12.29 2.115l9.98-4.23-11.274-7.451-11.089 4.507z"/></g><g><path fill="none" stroke="#006eb1" stroke-miterlimit="50" stroke-width="4" d="M33 0c18.225 0 33 14.774 33 33 0 18.225-14.775 33-33 33S0 51.225 0 33C0 14.773 14.775 0 33 0z" clip-path="url(&quot;#e5jwa&quot;)"/></g><g><path fill="none" stroke="#006eb1" stroke-miterlimit="50" stroke-width="4" d="M9 12.453L55.666 55" clip-path="url(&quot;#e5jwb&quot;)"/></g></g></g></svg>