<svg xmlns="http://www.w3.org/2000/svg" width="59" height="67" viewBox="0 0 59 67"><g><g><path fill="#ffbd0c" d="M17.58 30.401L32.94 2.083C33.663.71 35.402.205 36.78.927l20.142 10.836c1.376.722 1.883 2.457 1.159 3.829l-8.042 14.81z"/></g><g><path fill="#006eb1" d="M57.176 17.362L50.16 30.367c1.447.362 2.532 1.662 2.532 3.18v9.32h1.374c.723 0 1.302.577 1.302 1.3v9.465c0 .722-.579 1.3-1.302 1.3h-1.374v8.31a3.24 3.24 0 0 1-3.255 3.25H3.653A3.24 3.24 0 0 1 .4 63.243V27.765a3.24 3.24 0 0 1 3.254-3.25h14.321L29.836 2.622C30.921.673 33.453-.05 35.406.961l2.025 1.084 7.232 3.902 10.85 5.852c2.025 1.084 2.748 3.612 1.663 5.563zM17.83 30.295h4.34l14.103-26.01-2.025-1.083c-.723-.362-1.736-.073-2.097.65zM38.516 5.514L25.063 30.295h3.544L41.192 6.958zM2.93 27.694v2.601c.217-.073.506-.073.723-.073h11.284l1.735-3.178H3.653c-.434 0-.723.36-.723.65zm49.834 17.63H45.17c-.724 0-1.302.577-1.302 1.3v4.407c0 .722.578 1.3 1.302 1.3h7.594zm-7.594-2.458h4.99v-9.32a.724.724 0 0 0-.723-.722H3.653a.724.724 0 0 0-.723.723V63.24c0 .434.362.722.723.722h45.784a.724.724 0 0 0 .723-.722v-8.308h-4.99c-2.098 0-3.834-1.734-3.834-3.83v-4.407c0-2.096 1.736-3.83 3.834-3.83zm9.113-28.827l-10.85-5.853L31.5 30.296h15.767l7.667-14.162c.434-.723.145-1.662-.65-2.095zm-2.604 2.89c.217.867.145 1.806-.29 2.6l-.795 1.518c-.65 1.156-1.808 1.806-3.037 1.806a3.306 3.306 0 0 1-1.592-.433l-.65-.362c-.796-.433-1.375-1.155-1.664-2.022-.217-.867-.145-1.807.29-2.601l.795-1.518c.868-1.59 3.038-2.239 4.629-1.373l.65.362c.796.433 1.375 1.155 1.664 2.022zm-2.459.722c-.072-.216-.217-.433-.434-.506l-.65-.36c-.145-.073-.29-.073-.435-.073a.796.796 0 0 0-.723.433l-.796 1.518c-.144.217-.144.433-.072.65.072.217.217.434.434.506l.65.36c.435.218.941.074 1.158-.36l.796-1.517c.144-.217.144-.434.072-.65z"/></g></g></svg>