<svg xmlns="http://www.w3.org/2000/svg" width="55" height="66" viewBox="0 0 55 66"><g><g><path fill="#ffbd0c" d="M6 26s-4.922-1.639-5 3c-.078 4.637 0 31.999 0 31.999s-.907 3.951 5 4c5.907.049 19 0 19 0s3.31-.598 3-6c-.31-5.402 0-31 0-31s-.5-3-3-3-19 1-19 1z"/></g><g><path fill="#006eb1" d="M4.068 34.022v-4.126c0-.57.455-1.032 1.019-1.032h18.34c.564 0 1.02.462 1.02 1.032v4.126c0 .571-.456 1.033-1.02 1.033H5.087a1.025 1.025 0 0 1-1.02-1.033zm2.038-1.031h16.302v-2.063H6.106zm18.34 7.223c0 1.706-1.371 3.095-3.057 3.095-1.685 0-3.056-1.39-3.056-3.095 0-1.708 1.371-3.096 3.056-3.096 1.686 0 3.057 1.388 3.057 3.096zm-2.038 0c0-.57-.456-1.033-1.019-1.033-.562 0-1.018.463-1.018 1.033 0 .57.456 1.031 1.018 1.031.563 0 1.02-.462 1.02-1.031zm-5.094 0c0 1.706-1.372 3.095-3.057 3.095-1.685 0-3.057-1.39-3.057-3.095 0-1.708 1.372-3.096 3.057-3.096 1.685 0 3.057 1.388 3.057 3.096zm-2.038 0c0-.57-.457-1.033-1.02-1.033-.561 0-1.018.463-1.018 1.033 0 .57.457 1.031 1.019 1.031.562 0 1.019-.462 1.019-1.031zm-11.208 0c0-1.708 1.371-3.096 3.056-3.096 1.686 0 3.057 1.388 3.057 3.096 0 1.706-1.371 3.095-3.057 3.095-1.685 0-3.056-1.39-3.056-3.095zm2.038 0c0 .57.456 1.031 1.018 1.031.563 0 1.02-.462 1.02-1.031 0-.57-.457-1.033-1.02-1.033-.562 0-1.018.463-1.018 1.033zm18.34 7.222c0 1.706-1.371 3.095-3.057 3.095-1.685 0-3.056-1.39-3.056-3.095 0-1.707 1.371-3.096 3.056-3.096 1.686 0 3.057 1.39 3.057 3.096zm-2.038 0c0-.57-.456-1.032-1.019-1.032-.562 0-1.018.462-1.018 1.032 0 .57.456 1.031 1.018 1.031.563 0 1.02-.462 1.02-1.031zm-5.094 0c0 1.706-1.372 3.095-3.057 3.095-1.685 0-3.057-1.39-3.057-3.095 0-1.707 1.372-3.096 3.057-3.096 1.685 0 3.057 1.39 3.057 3.096zm-2.038 0c0-.57-.457-1.032-1.02-1.032-.561 0-1.018.462-1.018 1.032 0 .57.457 1.031 1.019 1.031.562 0 1.019-.462 1.019-1.031zm-11.208 0c0-1.707 1.371-3.096 3.056-3.096 1.686 0 3.057 1.39 3.057 3.096 0 1.706-1.371 3.095-3.057 3.095-1.685 0-3.056-1.39-3.056-3.095zm2.038 0c0 .57.456 1.031 1.018 1.031.563 0 1.02-.462 1.02-1.031 0-.57-.457-1.032-1.02-1.032-.562 0-1.018.462-1.018 1.032zm18.34 7.222c0 1.707-1.371 3.095-3.057 3.095-1.685 0-3.056-1.388-3.056-3.095 0-1.707 1.371-3.095 3.056-3.095 1.686 0 3.057 1.388 3.057 3.095zm-2.038 0c0-.57-.456-1.032-1.019-1.032-.562 0-1.018.462-1.018 1.032 0 .57.456 1.032 1.018 1.032.563 0 1.02-.463 1.02-1.032zm-5.094 0c0 1.707-1.372 3.095-3.057 3.095-1.685 0-3.057-1.388-3.057-3.095 0-1.707 1.372-3.095 3.057-3.095 1.685 0 3.057 1.388 3.057 3.095zm-2.038 0c0-.57-.457-1.032-1.02-1.032-.561 0-1.018.462-1.018 1.032 0 .57.457 1.032 1.019 1.032.562 0 1.019-.463 1.019-1.032zm-11.208 0c0-1.707 1.371-3.095 3.056-3.095 1.686 0 3.057 1.388 3.057 3.095 0 1.707-1.371 3.095-3.057 3.095-1.685 0-3.056-1.388-3.056-3.095zm2.038 0c0 .57.456 1.032 1.018 1.032.563 0 1.02-.463 1.02-1.032 0-.57-.457-1.032-1.02-1.032-.562 0-1.018.462-1.018 1.032zm31.571-39.186c.563 0 1.019.46 1.019 1.03v3.096c0 .57-.456 1.032-1.019 1.032H21.374a1.025 1.025 0 0 1-1.019-1.032v-3.095c0-.571.456-1.032 1.02-1.032h.07a8.297 8.297 0 0 1 4.007-6.096V8.94c0-.052.021-.098.03-.15.012-.076.017-.15.043-.22.026-.066.066-.117.103-.175.035-.054.062-.11.106-.16.053-.055.118-.093.182-.136.042-.028.073-.07.12-.091l.032-.013c.006-.004.01-.005.016-.007a8.1 8.1 0 0 1 6.883.003l.023.01.03.013c.042.02.07.057.108.082.068.045.136.086.192.147.044.047.071.101.105.155.038.059.078.11.103.176.026.072.033.147.044.222.008.05.03.097.03.15v.434a8.294 8.294 0 0 1 3.999 6.093zm-14.172 0H35.54a6.258 6.258 0 0 0-1.939-3.576v.478c0 .571-.455 1.032-1.019 1.032a1.024 1.024 0 0 1-1.019-1.032V9.636a6.084 6.084 0 0 0-4.073-.002v2.74c0 .571-.456 1.032-1.02 1.032a1.024 1.024 0 0 1-1.018-1.032v-.484a6.265 6.265 0 0 0-1.947 3.582zm13.153 2.063H22.393v1.032h14.265zm6.124 10.312c0-.57.455-1.032 1.019-1.032h3.056c.564 0 1.02.461 1.02 1.032 0 .57-.456 1.031-1.02 1.031h-3.056a1.024 1.024 0 0 1-1.02-1.031zm5.094 5.159c0 .57-.455 1.031-1.019 1.031h-4.076a1.024 1.024 0 0 1-1.02-1.031c0-.571.456-1.032 1.02-1.032h4.076c.564 0 1.02.46 1.02 1.032zm0 5.158c0 .57-.455 1.032-1.019 1.032h-3.056a1.025 1.025 0 0 1-1.02-1.032c0-.57.456-1.031 1.02-1.031h3.056c.564 0 1.02.461 1.02 1.031zm0 5.16c0 .57-.455 1.03-1.019 1.03h-2.036a1.025 1.025 0 0 1-1.02-1.03c0-.571.456-1.033 1.02-1.033h2.036c.564 0 1.02.462 1.02 1.032zm0 5.158c0 .57-.455 1.032-1.019 1.032h-3.056a1.024 1.024 0 0 1-1.02-1.032c0-.571.456-1.031 1.02-1.031h3.056c.564 0 1.02.46 1.02 1.031zm0 5.159c0 .57-.455 1.031-1.019 1.031h-4.076a1.024 1.024 0 0 1-1.02-1.031c0-.571.456-1.032 1.02-1.032h4.076c.564 0 1.02.461 1.02 1.032zm7.13-45.402l.002.01v52.596c0 .57-.456 1.031-1.019 1.031H28.522v1.036c0 1.706-1.371 3.095-3.057 3.095H3.05c-1.686 0-3.057-1.389-3.057-3.095v-35.08c0-1.707 1.371-3.095 3.057-3.095h10.189V1.023c0-.57.456-1.032 1.019-1.032h32.6a1.005 1.005 0 0 1 .722.304l7.13 7.224a1.023 1.023 0 0 1 .297.72zm-7.13-1.021h3.654l-3.654-3.703zM2.03 58.785c0 .57.456 1.032 1.019 1.032h22.416c.563 0 1.02-.463 1.02-1.032V27.832c0-.57-.457-1.031-1.02-1.031H3.05c-.563 0-1.02.461-1.02 1.031zm24.454 4.127V61.69c-.32.117-.66.191-1.019.191H3.05a2.98 2.98 0 0 1-1.02-.19v1.222c0 .57.457 1.032 1.02 1.032h22.416c.563 0 1.02-.463 1.02-1.032zm2.038-3.098H52.97V9.28h-6.113A1.024 1.024 0 0 1 45.84 8.25V2.055H15.276v22.682h10.19c1.33 0 2.454.872 2.873 2.078h9.345c.564 0 1.02.461 1.02 1.032 0 .57-.456 1.031-1.02 1.031h-9.162v3.096h9.162c.564 0 1.02.46 1.02 1.032 0 .57-.456 1.031-1.02 1.031h-9.162v3.096h9.162c.564 0 1.02.461 1.02 1.031 0 .57-.456 1.032-1.02 1.032h-9.162v3.095h9.162c.564 0 1.02.462 1.02 1.032 0 .57-.456 1.032-1.02 1.032h-9.162v3.096h9.162c.564 0 1.02.46 1.02 1.031 0 .57-.456 1.032-1.02 1.032h-9.162v3.095h9.162c.564 0 1.02.46 1.02 1.032 0 .57-.456 1.031-1.02 1.031h-9.162z"/></g></g></svg>