<svg xmlns="http://www.w3.org/2000/svg" width="60" height="44" viewBox="0 0 60 44"><g><g><path fill="#ffbd0c" d="M41 26c1.306 0 2.515.417 3.5 1.126a6 6 0 1 1 0 9.748A6 6 0 1 1 41 26z"/></g><g><path fill="#006eb1" d="M60 4.216v35.566a4.222 4.222 0 0 1-4.217 4.217H4.217A4.222 4.222 0 0 1 0 39.782V4.216A4.222 4.222 0 0 1 4.217 0h51.566A4.222 4.222 0 0 1 60 4.216zm-2 0A2.22 2.22 0 0 0 55.783 2H4.217A2.22 2.22 0 0 0 2 4.216v35.566A2.22 2.22 0 0 0 4.217 42h51.566A2.22 2.22 0 0 0 58 39.782zM17 30a1 1 0 0 1-1 1H7a1 1 0 1 1 0-2h9a1 1 0 0 1 1 1zm13 0a1 1 0 0 1-1 1h-9a1 1 0 1 1 0-2h9a1 1 0 0 1 1 1zM9 35a1 1 0 0 1-1 1H7a1 1 0 1 1 0-2h1a1 1 0 0 1 1 1zm6 0a1 1 0 0 1-1 1h-2a1 1 0 1 1 0-2h2a1 1 0 0 1 1 1zm5 0a1 1 0 0 1-1 1h-1a1 1 0 1 1 0-2h1a1 1 0 0 1 1 1zm6 0a1 1 0 0 1-1 1h-2a1 1 0 1 1 0-2h2a1 1 0 0 1 1 1zm3.71-.71c.18.19.29.45.29.71 0 .26-.11.52-.29.71-.19.18-.45.29-.71.29-.26 0-.521-.11-.71-.29-.181-.19-.29-.45-.29-.71 0-.26.109-.52.29-.71.359-.37 1.04-.37 1.42 0zM55 32c0 3.86-3.141 7-7 7a6.95 6.95 0 0 1-3.5-.947A6.949 6.949 0 0 1 41 39c-3.86 0-7-3.141-7-7 0-3.86 3.14-7 7-7 1.276 0 2.469.349 3.5.946A6.955 6.955 0 0 1 48 25c3.859 0 7 3.14 7 7zm-10.5-3.562a4.98 4.98 0 0 0 0 7.125 4.982 4.982 0 0 0 0-7.125zM41 37c.631 0 1.23-.131 1.787-.346A6.963 6.963 0 0 1 41 32c0-1.788.68-3.418 1.787-4.656A4.954 4.954 0 0 0 41 27c-2.757 0-5 2.243-5 5s2.243 5 5 5zm12-5c0-2.758-2.243-5.001-5-5.001-.631 0-1.23.13-1.787.345A6.965 6.965 0 0 1 48 32c0 1.787-.68 3.417-1.787 4.654A4.954 4.954 0 0 0 48 37c2.757 0 5-2.244 5-5zM6 19.744v-9.49A2.258 2.258 0 0 1 8.255 8h13.49A2.258 2.258 0 0 1 24 10.255v9.49a2.258 2.258 0 0 1-2.255 2.254H8.255A2.258 2.258 0 0 1 6 19.744zM12 14H8v2h4zm-3.745 6h3.77c-.009-.086-.025-.169-.025-.256V18H8v1.744c0 .141.114.255.255.255zM22 13.972c-.085.01-.168.027-.255.027h-3.49a.254.254 0 0 0-.255.254V16h4zm0 5.771V18h-4v1.744c0 .087-.016.17-.026.255h3.77a.255.255 0 0 0 .256-.255zM14.255 10a.255.255 0 0 0-.255.256v9.49c0 .14.114.254.255.254h1.49a.255.255 0 0 0 .255-.255v-5.49a2.258 2.258 0 0 1 2.255-2.255h3.49a.255.255 0 0 0 .255-.255v-1.49a.255.255 0 0 0-.255-.255zM8 10.255v1.744h4v-1.744c0-.088.016-.17.026-.256H8.255a.255.255 0 0 0-.255.256z"/></g></g></svg>