<svg width="1280" height="676" viewBox="0 0 1280 676" fill="none" xmlns="http://www.w3.org/2000/svg">
<mask id="mask0_632_11852" style="mask-type:alpha" maskUnits="userSpaceOnUse" x="0" y="0" width="1280" height="676">
<rect width="1280" height="676" fill="#EBEFF3"/>
</mask>
<g mask="url(#mask0_632_11852)">
<path opacity="0.1" fill-rule="evenodd" clip-rule="evenodd" d="M729 692.814L1260.4 389.879C1272.32 383.746 1282.32 374.446 1289.31 363.001C1296.3 351.556 1299.99 338.409 1300 325V521.685C1300 535.085 1296.3 548.225 1289.31 559.659C1282.33 571.093 1272.32 580.378 1260.4 586.494L729 889.429V692.814ZM859.026 917.315V1114L1260.4 885.122C1272.32 879.007 1282.33 869.721 1289.31 858.287C1296.3 846.853 1300 833.713 1300 820.313V623.628C1299.99 637.037 1296.3 650.185 1289.31 661.63C1282.32 673.074 1272.32 682.374 1260.4 688.508L859.026 917.315Z" fill="#57BCB3"/>
<path opacity="0.3" fill-rule="evenodd" clip-rule="evenodd" d="M524 -163V-62.3136C524 -6.8938 568.357 58.7498 620.965 88.7865L1260.44 453.739C1272.36 459.853 1282.36 469.138 1289.34 480.571C1296.32 492.004 1300.01 505.142 1300 518.537V322.1C1300 308.706 1296.31 295.572 1289.33 284.14C1282.35 272.708 1272.35 263.422 1260.44 257.302C1014.98 117.225 769.503 -22.8758 524 -163V-163ZM1260.44 751.991L826.53 504.647C773.922 474.68 729.565 408.966 729.565 353.617V252.578L1260.44 555.765C1272.35 561.891 1282.34 571.179 1289.32 582.609C1296.3 594.04 1299.99 607.171 1300 620.563V817C1300.05 803.569 1296.38 790.387 1289.4 778.913C1282.41 767.439 1272.39 758.121 1260.44 751.991Z" fill="white"/>
</g>
</svg>
