<svg width="88" height="26" fill="none" xmlns="http://www.w3.org/2000/svg"><path d="M13.594 12.828a4.266 4.266 0 012.032-3.58 4.367 4.367 0 00-3.44-1.86c-1.449-.151-2.852.867-3.59.867-.752 0-1.887-.851-3.11-.826A4.582 4.582 0 001.63 9.78c-1.668 2.887-.424 7.13 1.173 9.463.8 1.142 1.733 2.418 2.955 2.373 1.196-.05 1.642-.762 3.086-.762 1.43 0 1.849.762 3.095.733 1.283-.02 2.092-1.147 2.863-2.3a9.451 9.451 0 001.309-2.667 4.121 4.121 0 01-2.517-3.792zM11.24 5.854a4.2 4.2 0 00.96-3.009 4.274 4.274 0 00-2.765 1.43 3.997 3.997 0 00-.986 2.898 3.534 3.534 0 002.79-1.319zm17.47 12.87h-4.081l-.98 2.893H21.92l3.865-10.705h1.796l3.865 10.705h-1.758l-.979-2.893zm-3.659-1.335h3.235l-1.595-4.696h-.044l-1.596 4.696zm14.742.326c0 2.425-1.298 3.984-3.257 3.984a2.645 2.645 0 01-2.456-1.366h-.037V24.2h-1.602V13.812h1.55v1.298h.03a2.769 2.769 0 012.485-1.38c1.981 0 3.287 1.566 3.287 3.985zm-1.647 0c0-1.58-.816-2.619-2.062-2.619-1.224 0-2.048 1.06-2.048 2.62 0 1.572.824 2.625 2.048 2.625 1.246 0 2.062-1.031 2.062-2.626zm10.238 0c0 2.425-1.298 3.984-3.257 3.984a2.645 2.645 0 01-2.456-1.366h-.037V24.2h-1.602V13.812h1.55v1.298h.03a2.769 2.769 0 012.485-1.38c1.981 0 3.287 1.566 3.287 3.985zm-1.647 0c0-1.58-.817-2.619-2.063-2.619-1.224 0-2.047 1.06-2.047 2.62 0 1.572.823 2.625 2.047 2.625 1.246 0 2.063-1.031 2.063-2.626zm7.323.919c.12 1.062 1.15 1.76 2.56 1.76 1.35 0 2.322-.698 2.322-1.655 0-.831-.586-1.329-1.973-1.67l-1.388-.334c-1.966-.475-2.878-1.394-2.878-2.886 0-1.847 1.61-3.116 3.895-3.116 2.262 0 3.813 1.27 3.865 3.116h-1.617c-.097-1.068-.98-1.713-2.27-1.713-1.291 0-2.174.653-2.174 1.602 0 .757.564 1.202 1.944 1.543l1.18.29c2.195.52 3.108 1.402 3.108 2.967 0 2.003-1.595 3.258-4.133 3.258-2.374 0-3.976-1.225-4.08-3.162h1.64zm10.032-6.669v1.847h1.484v1.269h-1.484v4.303c0 .668.297.98.95.98.176-.003.352-.016.527-.037v1.26c-.294.055-.592.08-.89.075-1.58 0-2.197-.594-2.197-2.107V15.08h-1.134v-1.269h1.135v-1.847h1.61zm2.344 5.75c0-2.456 1.446-3.999 3.701-3.999 2.263 0 3.703 1.543 3.703 4 0 2.462-1.432 3.998-3.703 3.998-2.27 0-3.701-1.536-3.701-3.999zm5.771 0c0-1.684-.772-2.679-2.07-2.679-1.298 0-2.07 1.002-2.07 2.68 0 1.69.772 2.677 2.07 2.677 1.298 0 2.07-.986 2.07-2.678zm2.953-3.903h1.529v1.329h.037a1.861 1.861 0 011.877-1.41c.185-.001.369.019.549.06v1.498a2.241 2.241 0 00-.72-.097 1.613 1.613 0 00-1.67 1.796v4.63h-1.601v-7.806zm11.379 5.513c-.216 1.417-1.596 2.389-3.361 2.389-2.27 0-3.68-1.521-3.68-3.962 0-2.448 1.417-4.036 3.612-4.036 2.16 0 3.518 1.484 3.518 3.85v.549h-5.513v.097a2.031 2.031 0 002.1 2.21 1.765 1.765 0 001.802-1.097h1.522zm-5.416-2.33h3.902a1.877 1.877 0 00-1.915-1.98 1.975 1.975 0 00-1.987 1.98zM24.85 2.854a2.276 2.276 0 012.421 2.556c0 1.643-.888 2.588-2.42 2.588h-1.858V2.854h1.858zm-1.058 4.417h.97a1.618 1.618 0 001.696-1.85 1.621 1.621 0 00-1.697-1.84h-.97v3.69zm4.382-1.216a1.839 1.839 0 113.661 0 1.84 1.84 0 11-3.661 0zm2.873 0c0-.841-.378-1.333-1.041-1.333-.666 0-1.04.492-1.04 1.333 0 .849.374 1.337 1.04 1.337.663 0 1.041-.492 1.041-1.337zm5.654 1.943h-.794l-.803-2.859h-.06l-.8 2.859h-.786l-1.07-3.882h.777l.695 2.962h.057l.798-2.962h.735l.798 2.962h.061l.692-2.962h.766l-1.066 3.882zm1.966-3.882h.738v.617h.057a1.162 1.162 0 011.159-.692 1.262 1.262 0 011.343 1.444v2.513h-.766v-2.32c0-.624-.27-.935-.837-.935a.89.89 0 00-.927.984v2.271h-.767V4.116zM43.185 2.6h.766v5.398h-.766V2.601zm1.831 3.455a1.84 1.84 0 113.662 0 1.84 1.84 0 11-3.662 0zm2.873 0c0-.841-.378-1.333-1.041-1.333-.666 0-1.04.492-1.04 1.333 0 .849.374 1.337 1.04 1.337.663 0 1.041-.492 1.041-1.337zm1.595.845c0-.699.52-1.101 1.444-1.159l1.051-.06v-.335c0-.41-.27-.642-.794-.642-.428 0-.724.157-.81.432h-.741c.078-.667.705-1.095 1.586-1.095.973 0 1.522.485 1.522 1.305v2.652h-.738v-.546h-.06a1.306 1.306 0 01-1.166.61A1.173 1.173 0 0149.484 6.9zm2.495-.331v-.325l-.948.06c-.534.036-.777.218-.777.56 0 .35.303.553.72.553a.915.915 0 001.005-.848zm1.77-.514c0-1.226.63-2.003 1.611-2.003a1.28 1.28 0 011.19.68h.058v-2.13h.766v5.397h-.734v-.613h-.06a1.347 1.347 0 01-1.22.677c-.987 0-1.611-.777-1.611-2.007zm.791 0c0 .824.389 1.32 1.038 1.32.645 0 1.044-.503 1.044-1.316 0-.81-.403-1.319-1.044-1.319-.645 0-1.038.499-1.038 1.315zm6.004 0a1.839 1.839 0 113.661 0 1.838 1.838 0 11-3.661 0zm2.873 0c0-.841-.378-1.333-1.041-1.333-.666 0-1.04.492-1.04 1.333 0 .849.374 1.337 1.04 1.337.663 0 1.041-.492 1.041-1.337zm1.816-1.939h.737v.617h.058a1.162 1.162 0 011.158-.692 1.262 1.262 0 011.344 1.444v2.513h-.766v-2.32c0-.624-.271-.935-.838-.935a.89.89 0 00-.927.984v2.271h-.766V4.116zm7.625-.966v.984h.841v.645h-.84v1.996c0 .407.167.585.548.585.098 0 .195-.006.292-.018v.638a2.514 2.514 0 01-.416.04c-.852 0-1.192-.3-1.192-1.049V4.78h-.616v-.645h.616V3.15h.767zm1.888-.55h.76v2.14h.06a1.194 1.194 0 011.184-.695 1.279 1.279 0 011.337 1.447v2.506h-.767V5.681c0-.62-.29-.934-.83-.934a.907.907 0 00-.978.984v2.267h-.766V2.601zm7.807 4.35a1.576 1.576 0 01-1.682 1.123 1.764 1.764 0 01-1.793-2.004 1.79 1.79 0 011.79-2.028c1.08 0 1.732.738 1.732 1.957v.268h-2.741v.042a1.027 1.027 0 001.033 1.113.93.93 0 00.924-.471h.737zM79.86 5.699h1.96a.938.938 0 00-.955-1.006.993.993 0 00-1.005 1.006z" fill="#262830"/></svg>