<svg width="101" height="29" fill="none" xmlns="http://www.w3.org/2000/svg"><path d="M15.769 14.3a4.947 4.947 0 012.357-4.151 5.066 5.066 0 00-3.992-2.158c-1.679-.176-3.307 1.005-4.163 1.005-.872 0-2.19-.988-3.608-.958a5.315 5.315 0 00-4.473 2.727c-1.934 3.349-.491 8.27 1.361 10.977.927 1.325 2.01 2.805 3.428 2.753 1.387-.058 1.905-.885 3.58-.885 1.658 0 2.144.885 3.59.852 1.489-.025 2.426-1.332 3.32-2.67a10.96 10.96 0 001.52-3.092 4.782 4.782 0 01-2.92-4.4zm-2.731-8.089a4.873 4.873 0 001.114-3.49 4.958 4.958 0 00-3.207 1.659A4.638 4.638 0 009.8 7.74a4.1 4.1 0 003.237-1.53zM33.302 21.14H28.57l-1.137 3.356h-2.005l4.484-12.418h2.083l4.483 12.418h-2.039l-1.136-3.356zm-4.243-1.55h3.752l-1.85-5.446h-.051l-1.85 5.447zm17.101.38c0 2.813-1.506 4.62-3.779 4.62a3.07 3.07 0 01-2.848-1.583h-.043v4.484h-1.86V15.443h1.8v1.505h.033a3.212 3.212 0 012.883-1.6c2.298 0 3.813 1.816 3.813 4.622zm-1.91 0c0-1.833-.948-3.038-2.393-3.038-1.42 0-2.375 1.23-2.375 3.038 0 1.824.955 3.046 2.375 3.046 1.445 0 2.392-1.197 2.392-3.046zm11.874 0c0 2.813-1.505 4.62-3.778 4.62a3.07 3.07 0 01-2.848-1.583h-.043v4.484h-1.859V15.443h1.799v1.505h.034a3.212 3.212 0 012.883-1.6c2.298 0 3.813 1.816 3.813 4.622zm-1.91 0c0-1.833-.947-3.038-2.392-3.038-1.42 0-2.375 1.23-2.375 3.038 0 1.824.955 3.046 2.375 3.046 1.445 0 2.392-1.197 2.392-3.046zm8.496 1.066c.138 1.232 1.334 2.04 2.97 2.04 1.566 0 2.693-.808 2.693-1.919 0-.964-.68-1.54-2.29-1.936l-1.609-.388c-2.28-.55-3.339-1.617-3.339-3.348 0-2.142 1.867-3.614 4.519-3.614 2.624 0 4.423 1.472 4.483 3.614h-1.876c-.112-1.239-1.136-1.987-2.634-1.987-1.497 0-2.521.757-2.521 1.859 0 .877.654 1.394 2.255 1.79l1.368.335c2.548.603 3.606 1.626 3.606 3.443 0 2.323-1.85 3.778-4.793 3.778-2.754 0-4.614-1.42-4.734-3.667h1.903zM74.346 13.3v2.142h1.722v1.472h-1.722v4.991c0 .776.345 1.137 1.102 1.137.204-.004.408-.018.611-.043v1.463c-.34.064-.686.092-1.032.086-1.833 0-2.548-.689-2.548-2.444v-5.19h-1.316v-1.472h1.316V13.3h1.867zm2.719 6.67c0-2.849 1.678-4.639 4.294-4.639 2.625 0 4.295 1.79 4.295 4.639 0 2.856-1.661 4.638-4.295 4.638-2.633 0-4.294-1.782-4.294-4.638zm6.695 0c0-1.954-.895-3.108-2.401-3.108-1.506 0-2.4 1.162-2.4 3.108 0 1.962.894 3.106 2.4 3.106 1.506 0 2.401-1.144 2.401-3.106zm3.426-4.528h1.772v1.541h.043a2.16 2.16 0 012.178-1.635c.214-.001.428.022.637.069v1.738a2.595 2.595 0 00-.835-.112 1.872 1.872 0 00-1.937 2.083v5.37h-1.858v-9.054zm13.198 6.395c-.25 1.643-1.85 2.771-3.898 2.771-2.634 0-4.269-1.764-4.269-4.595 0-2.84 1.644-4.682 4.19-4.682 2.506 0 4.081 1.72 4.081 4.466v.637h-6.395v.112a2.36 2.36 0 002.436 2.564 2.048 2.048 0 002.09-1.273h1.765zm-6.282-2.702h4.526a2.177 2.177 0 00-2.22-2.298 2.293 2.293 0 00-2.306 2.298zM28.826 2.731a2.64 2.64 0 012.808 2.965c0 1.906-1.03 3.002-2.808 3.002h-2.155V2.73h2.155zm-1.228 5.123h1.125a1.876 1.876 0 001.967-2.146 1.881 1.881 0 00-1.967-2.134h-1.125v4.28zm5.082-1.41a2.132 2.132 0 114.248 0 2.133 2.133 0 11-4.247 0zm3.334 0c0-.976-.439-1.546-1.209-1.546-.772 0-1.206.57-1.206 1.546 0 .984.434 1.55 1.207 1.55.769 0 1.208-.57 1.208-1.55zm6.559 2.254h-.922l-.93-3.317h-.07l-.927 3.317h-.913l-1.242-4.503h.902l.806 3.436h.067l.925-3.436h.853l.926 3.436h.07l.803-3.436h.889l-1.237 4.503zm2.28-4.503h.856v.715h.066a1.348 1.348 0 011.344-.802 1.465 1.465 0 011.559 1.675v2.915h-.889V6.006c0-.724-.314-1.084-.972-1.084a1.033 1.033 0 00-1.075 1.142v2.634h-.889V4.195zm5.241-1.758h.888v6.26h-.888v-6.26zm2.124 4.007a2.134 2.134 0 114.247 0 2.134 2.134 0 11-4.248 0zm3.332 0c0-.976-.438-1.546-1.207-1.546-.773 0-1.208.57-1.208 1.546 0 .984.435 1.55 1.208 1.55.77 0 1.207-.57 1.207-1.55zm1.85.98c0-.81.604-1.278 1.676-1.344l1.22-.07v-.39c0-.476-.315-.744-.922-.744-.497 0-.84.182-.939.5h-.86c.09-.773.818-1.27 1.84-1.27 1.129 0 1.765.563 1.765 1.514v3.077h-.855v-.633h-.07a1.515 1.515 0 01-1.353.707A1.36 1.36 0 0157.4 7.424zm2.895-.384v-.377l-1.1.07c-.62.042-.9.253-.9.65 0 .405.351.64.834.64a1.062 1.062 0 001.166-.983zm2.053-.596c0-1.423.732-2.324 1.87-2.324a1.484 1.484 0 011.38.79h.067V2.437h.888v6.26h-.851v-.71h-.07a1.564 1.564 0 01-1.415.785c-1.145 0-1.869-.901-1.869-2.328zm.918 0c0 .955.45 1.53 1.203 1.53.75 0 1.212-.583 1.212-1.526 0-.938-.468-1.53-1.212-1.53-.748 0-1.203.58-1.203 1.526zm6.964 0a2.132 2.132 0 114.247 0 2.133 2.133 0 11-4.247 0zm3.333 0c0-.976-.439-1.546-1.208-1.546-.773 0-1.207.57-1.207 1.546 0 .984.434 1.55 1.207 1.55.77 0 1.208-.57 1.208-1.55zm2.107-2.249h.855v.715h.066a1.349 1.349 0 011.344-.802 1.465 1.465 0 011.559 1.675v2.915h-.889V6.006c0-.724-.315-1.084-.972-1.084a1.033 1.033 0 00-1.075 1.142v2.634h-.889V4.195zm8.845-1.121v1.141h.976v.749h-.976v2.315c0 .472.195.679.637.679.113 0 .226-.008.339-.021v.74c-.16.029-.322.044-.484.046-.988 0-1.382-.348-1.382-1.216V4.964h-.714v-.749h.715V3.074h.89zm2.19-.637h.88v2.481h.07a1.385 1.385 0 011.374-.806 1.483 1.483 0 011.55 1.679v2.907h-.889V6.01c0-.72-.335-1.084-.963-1.084a1.052 1.052 0 00-1.134 1.142v2.63h-.888V2.437zm9.056 5.045a1.828 1.828 0 01-1.95 1.303 2.046 2.046 0 01-2.08-2.325 2.077 2.077 0 012.075-2.352c1.253 0 2.01.856 2.01 2.27v.31h-3.18v.05a1.19 1.19 0 001.199 1.29 1.08 1.08 0 001.07-.546h.856zM92.635 6.03h2.275a1.086 1.086 0 00-1.11-1.166 1.152 1.152 0 00-1.166 1.167z" fill="#BBBCC1"/></svg>