<svg width="700" height="416" viewBox="0 0 700 416" fill="none" xmlns="http://www.w3.org/2000/svg">
<rect width="700" height="416" fill="#F1F2F3"/>
<path d="M417 76.176C417 78.5982 415.958 80.8475 414.396 82.4047C412.834 83.9619 410.577 85 408.147 85H216.853C211.993 85 208 81.0205 208 76.0029C208 73.5806 209.042 71.3314 210.604 69.7742C212.166 68.217 214.423 67.1789 216.853 67.1789H225.88C229.525 58.8739 237.684 53.1642 247.231 53.1642C253.654 53.1642 259.556 55.7595 263.722 60.085C269.277 50.5689 279.692 44.1672 291.669 44.1672C294.968 44.1672 298.092 44.6862 301.043 45.5513C307.292 33.9589 319.617 26 333.678 26C350.689 26 365.097 37.4194 369.263 52.9912C372.388 51.434 375.86 50.5689 379.679 50.5689C390.267 50.5689 399.294 57.6628 402.071 67.3519H407.8C413.007 67.1789 417 71.1584 417 76.176Z" fill="white"/>
<path d="M174 45.1746C174 46.4445 173.49 47.7143 172.597 48.6032C171.704 49.4921 170.556 50 169.153 50H65.8465C63.1682 50 61 47.8413 61 45.1746C61 43.9048 61.5102 42.6349 62.4029 41.746C63.2957 40.8571 64.4436 40.3492 65.8465 40.3492H70.693C72.6061 35.9048 77.07 32.7302 82.2991 32.7302C85.7427 32.7302 88.9312 34.127 91.2269 36.4127C94.2878 31.3333 99.8995 27.7778 106.277 27.7778C108.062 27.7778 109.72 28.0318 111.378 28.5397C114.694 22.1905 121.326 18 128.979 18C138.161 18 145.941 24.2222 148.237 32.6032C149.895 31.7143 151.808 31.3333 153.849 31.3333C159.588 31.3333 164.435 35.1429 165.965 40.3492H169.026C171.704 40.3492 174 42.5079 174 45.1746Z" fill="white"/>
<path d="M623.6 38.4C623.6 39.4 623.2 40.4 622.5 41.1C621.8 41.8 620.9 42.2 619.8 42.2H538.8C536.7 42.2 535 40.5 535 38.4C535 37.4 535.4 36.4 536.1 35.7C536.8 35 537.7 34.6 538.8 34.6H542.6C544.1 31.1 547.6 28.6 551.7 28.6C554.4 28.6 556.9 29.7 558.7 31.5C561.1 27.5 565.5 24.7 570.5 24.7C571.9 24.7 573.2 24.9 574.5 25.3C577.1 20.3 582.3 17 588.3 17C595.5 17 601.6 21.9 603.4 28.5C604.7 27.8 606.2 27.5 607.8 27.5C612.3 27.5 616.1 30.5 617.3 34.6H619.7C621.9 34.6 623.6 36.3 623.6 38.4Z" fill="white"/>
<path d="M623.9 203C622.5 203.3 621.2 203.7 619.9 204.4L615.7 199.7L610.6 204.3L614.6 208.8C613.7 210 612.9 211.4 612.4 212.8L605.4 212.4L605 219.3L611.5 219.6C611.7 221.5 612.2 223.4 613.1 225.2L608.4 229.4L613 234.5L617.5 230.5C619 231.6 620.6 232.4 622.3 232.9L622 238.7L628.9 239.1L629.2 233.5C631.2 233.2 633.2 232.5 635 231.4L639 235.9L644.1 231.3L639.9 226.6C640.7 225.4 641.3 224.1 641.7 222.8L648.3 223.1L648.7 216.2L642.3 215.9C642 213.9 641.3 211.9 640.2 210.1L644.7 206.1L640.1 201L635.4 205.2C634 204.3 632.4 203.6 630.8 203.2L631.1 196.8L624.2 196.4L623.9 203ZM631.6 213.9C633.9 216.5 633.7 220.5 631.1 222.8C628.5 225.1 624.5 224.9 622.2 222.3C619.9 219.7 620.1 215.7 622.7 213.4C625.3 211.1 629.3 211.3 631.6 213.9Z" fill="white"/>
<path d="M616.5 173.1C615.8 173.2 615 173.5 614.3 173.9L612 171.4L609.2 173.9L611.4 176.3C610.9 177 610.5 177.7 610.2 178.5L606.4 178.3L606.2 182.1L609.7 182.3C609.8 183.4 610.1 184.4 610.6 185.4L608 187.7L610.5 190.5L612.9 188.3C613.7 188.9 614.6 189.4 615.5 189.6L615.3 192.8L619.1 193L619.3 189.9C620.4 189.7 621.5 189.4 622.5 188.8L624.7 191.2L627.5 188.7L625.2 186.1C625.6 185.4 625.9 184.8 626.2 184L629.8 184.2L630 180.4L626.5 180.2C626.3 179.1 626 178 625.4 177L627.8 174.8L625.3 172L622.8 174.3C622 173.8 621.2 173.4 620.3 173.2L620.5 169.7L616.7 169.5L616.5 173.1ZM620.7 179.1C622 180.5 621.9 182.7 620.4 184C619 185.3 616.8 185.2 615.5 183.7C614.2 182.3 614.3 180.1 615.8 178.8C617.2 177.6 619.4 177.7 620.7 179.1Z" fill="white"/>
<path d="M76.7 138.6C75.3 138.9 74 139.3 72.7 140L68.5 135.3L63.4001 139.9L67.4001 144.4C66.5001 145.6 65.7001 147 65.2001 148.4L58.2001 148L57.8 154.9L64.3 155.2C64.5 157.1 65.0001 159 65.9001 160.8L61.2001 165L65.8 170.1L70.3 166.1C71.8 167.2 73.4 168 75.1 168.5L74.8001 174.3L81.7 174.7L82 169.1C84 168.8 86.0001 168.1 87.8001 167L91.8001 171.5L96.9001 166.9L92.7 162.2C93.5 161 94.1 159.7 94.5 158.4L101.1 158.7L101.5 151.8L95.1 151.5C94.8 149.5 94.1 147.5 93 145.7L97.5 141.7L92.9001 136.6L88.2 140.8C86.8 139.9 85.2 139.2 83.6 138.8L83.9001 132.4L77 132L76.7 138.6ZM84.4001 149.6C86.7001 152.2 86.5001 156.2 83.9001 158.5C81.3001 160.8 77.3 160.6 75 158C72.7 155.4 72.9 151.4 75.5 149.1C78.1 146.8 82.1001 147 84.4001 149.6Z" fill="white"/>
<path d="M51.3 183.9C50.6 184 49.8 184.3 49.1 184.7L46.8 182.2L44 184.7L46.2 187.1C45.7 187.8 45.3 188.5 45 189.3L41.2 189.1L41 192.9L44.5 193.1C44.6 194.2 44.9 195.2 45.4 196.2L42.9 198.5L45.4 201.3L47.8 199.1C48.6 199.7 49.5 200.2 50.4 200.4L50.2 203.6L54 203.8L54.2 200.7C55.3 200.5 56.4 200.2 57.4 199.6L59.6 202L62.4 199.5L60.1 196.9C60.5 196.2 60.8 195.6 61.1 194.8L64.7 195L64.9 191.2L61.4 191C61.2 189.9 60.9 188.8 60.3 187.8L62.7 185.6L60.2 182.8L57.7 185.1C56.9 184.6 56.1 184.2 55.2 184L55.4 180.5L51.6 180.3L51.3 183.9ZM55.5 189.9C56.8 191.3 56.7 193.5 55.2 194.8C53.8 196.1 51.6 196 50.3 194.5C49 193.1 49.1 190.9 50.6 189.6C52.1 188.3 54.3 188.4 55.5 189.9Z" fill="white"/>
<path opacity="0.5" d="M351.5 399C487.638 399 598 391.613 598 382.5C598 373.387 487.638 366 351.5 366C215.362 366 105 373.387 105 382.5C105 391.613 215.362 399 351.5 399Z" fill="#E5E5F1"/>
<path d="M561 135.8C561 139.1 558.3 141.7 555.1 141.7C551.8 141.7 549.2 139 549.2 135.8C549.2 132.6 551.9 129.9 555.1 129.9C558.3 129.9 561 132.6 561 135.8ZM559.1 135.8C559.1 133.6 557.3 131.7 555 131.7C552.8 131.7 550.9 133.5 550.9 135.8C550.9 138 552.7 139.9 555 139.9C557.3 139.9 559.1 138.1 559.1 135.8Z" fill="#F5E3B2"/>
<path d="M587.1 118.5C587.1 121.8 584.4 124.4 581.2 124.4C577.9 124.4 575.3 121.7 575.3 118.5C575.3 115.3 578 112.6 581.2 112.6C584.4 112.6 587.1 115.3 587.1 118.5ZM585.2 118.5C585.2 116.3 583.4 114.4 581.1 114.4C578.9 114.4 577 116.2 577 118.5C577 120.7 578.8 122.6 581.1 122.6C583.4 122.6 585.2 120.8 585.2 118.5Z" fill="#EBC665"/>
<path d="M583.7 96.2C583.2 96.2 582.8 96.6 582.8 97.1V101.2C582.8 101.7 583.2 102.1 583.7 102.1C584.2 102.1 584.6 101.7 584.6 101.2V97.1C584.7 96.6 584.3 96.2 583.7 96.2Z" fill="#F5E3B2"/>
<path d="M583.7 89C583.2 89 582.8 89.4 582.8 89.9V94C582.8 94.5 583.2 94.9 583.7 94.9C584.2 94.9 584.6 94.5 584.6 94V89.9C584.7 89.4 584.3 89 583.7 89Z" fill="#F5E3B2"/>
<path d="M589.5 94.7H585.8C585.3 94.7 584.9 95.1 584.9 95.6C584.9 96.1 585.3 96.5 585.8 96.5H589.5C590 96.5 590.4 96.1 590.4 95.6C590.4 95.1 590 94.7 589.5 94.7Z" fill="#F5E3B2"/>
<path d="M581.7 94.7H578C577.5 94.7 577.1 95.1 577.1 95.6C577.1 96.1 577.5 96.5 578 96.5H581.7C582.2 96.5 582.6 96.1 582.6 95.6C582.6 95.1 582.2 94.7 581.7 94.7Z" fill="#F5E3B2"/>
<path d="M551.7 111.7C551.2 111.7 550.8 112.1 550.8 112.6V116.7C550.8 117.2 551.2 117.6 551.7 117.6C552.2 117.6 552.6 117.2 552.6 116.7V112.6C552.6 112.1 552.2 111.7 551.7 111.7Z" fill="#F5E3B2"/>
<path d="M551.7 104.5C551.2 104.5 550.8 104.9 550.8 105.4V109.5C550.8 110 551.2 110.4 551.7 110.4C552.2 110.4 552.6 110 552.6 109.5V105.4C552.6 104.9 552.2 104.5 551.7 104.5Z" fill="#F5E3B2"/>
<path d="M557.4 110.1H553.7C553.2 110.1 552.8 110.5 552.8 111C552.8 111.5 553.2 111.9 553.7 111.9H557.4C557.9 111.9 558.3 111.5 558.3 111C558.4 110.5 557.9 110.1 557.4 110.1Z" fill="#F5E3B2"/>
<path d="M549.6 110.1H545.9C545.4 110.1 545 110.5 545 111C545 111.5 545.4 111.9 545.9 111.9H549.6C550.1 111.9 550.5 111.5 550.5 111C550.5 110.5 550.1 110.1 549.6 110.1Z" fill="#F5E3B2"/>
<path d="M89.4 92.8C86.1 92.8 83.5 90.1 83.5 86.9C83.5 83.6 86.2 81 89.4 81C92.7 81 95.3 83.7 95.3 86.9C95.3 90.2 92.7 92.8 89.4 92.8ZM89.4 91C91.6 91 93.5 89.2 93.5 86.9C93.5 84.7 91.7 82.8 89.4 82.8C87.2 82.8 85.3 84.6 85.3 86.9C85.4 89.2 87.2 91 89.4 91Z" fill="#F5E3B2"/>
<path d="M106.3 112.4C103 112.4 100.4 109.7 100.4 106.5C100.4 103.2 103.1 100.6 106.3 100.6C109.6 100.6 112.2 103.3 112.2 106.5C112.3 109.7 109.6 112.4 106.3 112.4ZM106.3 110.5C108.5 110.5 110.4 108.7 110.4 106.4C110.4 104.2 108.6 102.3 106.3 102.3C104.1 102.3 102.2 104.1 102.2 106.4C102.3 108.7 104.1 110.5 106.3 110.5Z" fill="#EBC665"/>
<path d="M121.4 82.6C121.4 82.1 121 81.7 120.5 81.7H116.4C115.9 81.7 115.5 82.1 115.5 82.6C115.5 83.1 115.9 83.5 116.4 83.5H120.5C121 83.5 121.4 83.1 121.4 82.6Z" fill="#F5E3B2"/>
<path d="M128.6 82.6C128.6 82.1 128.2 81.7 127.7 81.7H123.6C123.1 81.7 122.7 82.1 122.7 82.6C122.7 83.1 123.1 83.5 123.6 83.5H127.7C128.2 83.5 128.6 83.1 128.6 82.6Z" fill="#F5E3B2"/>
<path d="M122.9 88.4V84.7C122.9 84.2 122.5 83.8 122 83.8C121.5 83.8 121.1 84.2 121.1 84.7V88.4C121.1 88.9 121.5 89.3 122 89.3C122.5 89.3 122.9 88.9 122.9 88.4Z" fill="#F5E3B2"/>
<path d="M122.9 80.6V76.9C122.9 76.4 122.5 76 122 76C121.5 76 121.1 76.4 121.1 76.9V80.6C121.1 81.1 121.5 81.5 122 81.5C122.5 81.5 122.9 81.1 122.9 80.6Z" fill="#F5E3B2"/>
<path d="M74.9 117.2C74.9 116.7 74.5 116.3 74 116.3H69.9C69.4 116.3 69 116.7 69 117.2C69 117.7 69.4 118.1 69.9 118.1H74C74.5 118.1 74.9 117.7 74.9 117.2Z" fill="#F5E3B2"/>
<path d="M82.1 117.2C82.1 116.7 81.7 116.3 81.2 116.3H77.1C76.6 116.3 76.2 116.7 76.2 117.2C76.2 117.7 76.6 118.1 77.1 118.1H81.2C81.7 118.1 82.1 117.7 82.1 117.2Z" fill="#F5E3B2"/>
<path d="M76.4001 123V119.3C76.4001 118.8 76.0001 118.4 75.5001 118.4C75.0001 118.4 74.6001 118.8 74.6001 119.3V123C74.6001 123.5 75.0001 123.9 75.5001 123.9C76.0001 123.9 76.4001 123.5 76.4001 123Z" fill="#F5E3B2"/>
<path d="M76.4001 115.1V111.4C76.4001 110.9 76.0001 110.5 75.5001 110.5C75.0001 110.5 74.6001 110.9 74.6001 111.4V115.1C74.6001 115.6 75.0001 116 75.5001 116C76.0001 116.1 76.4001 115.7 76.4001 115.1Z" fill="#F5E3B2"/>
<path d="M442.3 105.9L444.7 107.3L446 108L449.6 110.1C449.6 110.1 516.8 76.5001 508.2 45.8001C505.6 36.3001 491.8 33.9001 478 60.5001C465 85.2001 442.3 105.9 442.3 105.9Z" fill="#D0CEE7"/>
<path d="M444.6 107.3L445.9 108C460 98.5001 472 86.1001 479.8 77.1001C489.1 66.4001 494.7 57.9001 494.8 57.8001C495 57.5001 494.9 57.1001 494.6 56.9001C494.3 56.7001 493.9 56.8001 493.7 57.1001C493.6 57.2001 488.1 65.6001 478.8 76.3001C470.9 85.4001 458.8 97.8001 444.6 107.3Z" fill="#9C93D6"/>
<path d="M430 113.9L432.2 117L433.4 118.6L436.8 123.2C436.8 123.2 540.4 117.2 546.3 73.6001C548.1 60.2001 532 49.5001 499.9 75.8001C470.1 100 430 113.9 430 113.9Z" fill="#E5E5F1"/>
<path d="M432.2 116.9L433.4 118.5C456.5 114.1 478.5 105 493.3 97.8001C510.9 89.3001 522.7 81.5001 522.8 81.5001C523.2 81.2001 523.3 80.7001 523.1 80.2001C522.8 79.8001 522.3 79.7 521.8 79.9C521.7 80 510 87.7001 492.4 96.1001C477.5 103.5 455.4 112.6 432.2 116.9Z" fill="#D0CEE7"/>
<path d="M291.137 290.824L286.63 293.453L284.189 294.767L277.43 298.711C277.43 298.711 151.622 234.868 168.146 177.222C173.216 159.571 198.941 155.065 224.665 205.2C248.7 251.58 291.137 290.824 291.137 290.824Z" fill="#D0CEE7"/>
<path d="M286.63 293.453L284.189 294.768C257.713 276.741 235.368 253.458 220.91 236.37C203.635 216.091 193.119 200.13 192.932 199.942C192.556 199.379 192.744 198.628 193.307 198.252C193.871 197.877 194.622 198.065 194.997 198.628C195.185 198.816 205.512 214.776 222.788 234.868C237.622 251.955 260.154 275.427 286.63 293.453Z" fill="#9C93D6"/>
<path d="M314.233 305.846L309.914 311.667L307.661 314.671L301.277 323.309C301.277 323.309 106.744 310.916 96.229 228.859C93.0369 203.698 123.268 183.794 183.355 233.554C238.936 279.37 314.233 305.846 314.233 305.846Z" fill="#E5E5F1"/>
<path d="M309.914 311.667L307.661 314.671C264.285 306.034 223.163 288.759 195.373 275.239C162.325 259.091 140.356 244.444 140.168 244.257C139.417 243.693 139.229 242.754 139.605 241.816C140.168 241.065 141.107 240.877 142.046 241.252C142.233 241.44 164.203 255.899 197.063 272.047C224.853 285.754 266.351 303.217 309.914 311.667Z" fill="#D0CEE7"/>
<path d="M428.3 289.8C441.4 272.9 454.1 254.6 461.1 241.4C470.2 224.2 473.9 210.4 471.9 200.4C471.8 199.7 471.1 199.3 470.5 199.4C469.8 199.5 469.4 200.2 469.5 200.8C472.8 218.3 457.6 248.8 425.5 289.3L428.3 289.8Z" fill="#D0CEE7"/>
<path d="M467.8 225.4C467.8 225.4 476.3 231.1 485.7 215.8C485.7 215.8 470.3 210.8 467.8 225.4Z" fill="#E5E5F1"/>
<path d="M463.4 233.5C463.4 233.5 469.6 225.4 454.8 215.1C454.8 215.1 448.9 230.2 463.4 233.5Z" fill="#E5E5F1"/>
<path d="M471 208.3C471 208.3 479.5 202.7 469.1 188.1C469 188.1 458.4 200.4 471 208.3Z" fill="#E5E5F1"/>
<path d="M454.9 250.1C454.9 250.1 460.9 258.3 475 247.1C475 247.2 462.2 237.2 454.9 250.1Z" fill="#E5E5F1"/>
<path d="M449.1 257.7C449.1 257.7 456.6 250.7 443.8 238.1C443.9 238.1 435.5 252 449.1 257.7Z" fill="#E5E5F1"/>
<path d="M442.2 268.9C442.2 268.9 448.1 277.2 462.3 266.3C462.4 266.3 449.8 256.1 442.2 268.9Z" fill="#E5E5F1"/>
<path d="M284.339 190.841C258.695 177.01 232.647 161.166 216.663 148.54C195.776 132.153 183.584 116.962 180.429 103.47C180.168 102.541 180.738 101.64 181.686 101.515C182.615 101.255 183.516 101.824 183.641 102.772C189.1 126.424 225.095 156.103 287.527 188.906L284.339 190.841Z" fill="#D0CEE7"/>
<path d="M199.249 132.384C199.249 132.384 191.861 144.236 171.584 130.385C171.584 130.385 188.079 115.543 199.249 132.384Z" fill="#E5E5F1"/>
<path d="M209.206 140.022C209.206 140.022 197.02 133.229 209.68 112.283C209.834 112.4 225.516 127.958 209.206 140.022Z" fill="#E5E5F1"/>
<path d="M185.792 112.815C185.792 112.815 171.993 110.503 177.098 86.56C177.098 86.56 197.075 96.0438 185.792 112.815Z" fill="#E5E5F1"/>
<path d="M229.092 156.127C229.092 156.127 226.067 169.744 202.387 163.503C202.387 163.503 212.772 144.096 229.092 156.127Z" fill="#E5E5F1"/>
<path d="M240.512 162.332C240.512 162.332 227.375 157.73 236.214 134.947C236.232 135.082 254.417 147.694 240.512 162.332Z" fill="#E5E5F1"/>
<path d="M255.211 172.512C255.211 172.512 252.475 186.229 228.713 180.411C228.713 180.411 238.792 160.769 255.211 172.512Z" fill="#E5E5F1"/>
<path d="M448.2 80.2V365.5C448.2 374.4 441 381.7 432 381.7H289.9C285.4 381.7 281.3 379.9 278.4 376.9C275.5 374 273.7 369.9 273.7 365.5V80.2C273.7 71.3 280.9 64 289.9 64H432C434.6 64 437.1 64.6 439.3 65.8C444.6 68.5 448.2 73.9 448.2 80.2Z" fill="#777A84"/>
<path d="M442.2 80.2V365.5C442.2 374.4 435 381.7 426 381.7H283.9C279.4 381.7 275.3 379.9 272.4 376.9C269.5 374 267.7 369.9 267.7 365.5V80.2C267.7 71.3 274.9 64 283.9 64H426C428.6 64 431.1 64.6 433.3 65.8C438.6 68.5 442.2 73.9 442.2 80.2Z" fill="#262830"/>
<path d="M445.2 134.2H447.4C449.5 134.2 451.2 132.5 451.2 130.4V112.2C451.2 110.1 449.5 108.4 447.4 108.4H445.2V134.2Z" fill="#262830"/>
<path d="M267.7 134.2H265.9C264.3 134.2 262.9 132.9 262.9 131.2V111.4C262.9 109.8 264.2 108.4 265.9 108.4H267.7V134.2Z" fill="#262830"/>
<path d="M267.7 168H265.9C264.3 168 262.9 166.7 262.9 165V145.2C262.9 143.6 264.2 142.2 265.9 142.2H267.7V168Z" fill="#262830"/>
<path d="M434.1 79.2V366.5C434.1 370.4 430.9 373.6 427 373.6H283C280.1 373.6 277.5 371.8 276.4 369.3C276 368.4 275.8 367.5 275.8 366.5V79.2C275.8 75.3 279 72.1 282.9 72.1H426.9C427.4 72.1 427.8 72.1 428.3 72.2C428.8 72.3 429.3 72.4 429.7 72.6C431.9 73.6 433.5 75.6 433.9 78C434.1 78.5 434.1 78.8 434.1 79.2Z" fill="white"/>
<path d="M398.4 320.8V346.6C398.4 348.3 396.9 349.8 395 349.8H318.7C316.8 349.8 315.3 348.4 315.3 346.6V320.8C315.3 319.1 316.8 317.6 318.7 317.6H395C396.9 317.7 398.4 319.1 398.4 320.8Z" fill="#7869CF"/>
<path d="M340.151 325.741C341.653 325.741 342.962 325.989 344.077 326.485C345.192 326.98 346.051 327.692 346.655 328.621C347.259 329.551 347.561 330.634 347.561 331.873C347.561 333.112 347.259 334.196 346.655 335.125C346.051 336.054 345.192 336.766 344.077 337.262C342.962 337.757 341.653 338.005 340.151 338.005H337.805V342H332.324V325.741H340.151ZM339.803 333.778C340.546 333.778 341.104 333.615 341.475 333.29C341.847 332.949 342.033 332.477 342.033 331.873C342.033 331.269 341.847 330.805 341.475 330.48C341.104 330.139 340.546 329.969 339.803 329.969H337.805V333.778H339.803ZM359.621 339.166H353.443L352.351 342H346.777L353.884 325.741H359.273L366.38 342H360.713L359.621 339.166ZM358.111 335.218L356.532 331.13L354.952 335.218H358.111ZM375.874 336.1V342H370.392V336.031L364.26 325.741H370.044L373.365 331.362L376.71 325.741H382.005L375.874 336.1Z" fill="white"/>
<path d="M370.8 150.8V283.3C370.8 289.4 366.8 294.6 361.3 296.5C359.9 297 358.4 297.2 356.9 297.2C349.3 297.2 343 290.9 343 283.3V150.8C343 143.2 349.3 136.9 356.9 136.9C358.4 136.9 359.9 137.2 361.3 137.6C363.4 138.3 365.2 139.5 366.7 141C369.2 143.5 370.8 147 370.8 150.8Z" fill="#262830"/>
<path d="M434.1 79.2V108.7H275.8V79.2C275.8 75.3 279 72.1 282.9 72.1H426.9C427.4 72.1 427.8 72.1 428.3 72.2C428.8 72.3 429.3 72.4 429.7 72.6C431.9 73.6 433.5 75.6 433.9 78C434.1 78.5 434.1 78.8 434.1 79.2Z" fill="#E9E2E8"/>
<path d="M271.7 109.8V119.7C271.7 123.8 270 127.5 267.4 130.2C264.7 132.9 261 134.5 256.9 134.5C249.3 134.5 243 128.7 242.1 121.3C242 120.8 242 120.2 242 119.6V110L278.2 73.8C279.3 72.7 280.7 72.1 282.2 72.1H308.7L271.7 109.8Z" fill="#7869CF"/>
<path d="M271.7 109.8V119.7C271.7 123.8 270 127.5 267.4 130.2C264.7 132.9 261 134.5 256.9 134.5C249.3 134.5 243 128.7 242.1 121.3L242 110L271.7 109.8Z" fill="#6A53A4"/>
<path d="M368.2 72.1L331.1 109.2V119.7C331.1 123.8 329.4 127.5 326.8 130.2C324.1 132.9 320.4 134.5 316.3 134.5C308.1 134.5 301.5 127.9 301.5 119.7V109.5L338.6 72.1H368.2Z" fill="#7869CF"/>
<path d="M331.1 109.3V119.7C331.1 123.8 329.4 127.5 326.8 130.2C324.1 132.9 320.4 134.5 316.3 134.5C308.1 134.5 301.5 127.9 301.5 119.7V109.5L331.1 109.3Z" fill="#6A53A4"/>
<path d="M391.4 108.8V119.7C391.4 123.8 389.7 127.5 387.1 130.2C384.4 132.9 380.7 134.5 376.6 134.5C368.4 134.5 360.8 127.9 360.8 119.7L360.9 109.2L361.1 109L398 72.1H428.6L391.4 108.8Z" fill="#7869CF"/>
<path d="M391.4 119.7C391.4 123.8 389.7 127.5 387.1 130.2C384.4 132.9 380.7 134.5 376.6 134.5C368.4 134.5 360.8 127.9 360.8 119.7L360.9 109.2L361.1 109L391.5 108.7L391.4 119.7Z" fill="#6A53A4"/>
<path d="M421.1 108.5V119.7C421.1 123.8 419.4 127.5 416.7 130.2C414 132.9 410.3 134.5 406.2 134.5C398 134.5 391.4 127.9 391.4 119.7V108.8L428.4 72.3C428.9 72.4 429.4 72.5 429.8 72.7C432 73.7 433.6 75.7 434 78.1C434.1 78.5 434.1 78.9 434.1 79.3V95.8L421.1 108.5Z" fill="white"/>
<path d="M421.1 119.7C421.1 123.8 419.4 127.5 416.8 130.2C414.1 132.9 410.4 134.5 406.3 134.5C398.1 134.5 391.5 127.9 391.5 119.7V108.8L421.2 108.6L421.1 119.7Z" fill="#E9E2E8"/>
<path d="M338.5 72.1L301.4 109.5V119.7C301.4 123.8 299.7 127.5 297.1 130.2C294.4 132.9 290.7 134.5 286.6 134.5C278.4 134.5 271.8 127.9 271.8 119.7V109.8V109.7L308.8 72H338.5V72.1Z" fill="white"/>
<path d="M301.4 109.5V119.7C301.4 123.8 299.7 127.5 297.1 130.2C294.4 132.9 290.7 134.5 286.6 134.5C278.4 134.5 271.8 127.9 271.8 119.7V109.8V109.7L301.4 109.5Z" fill="#E9E2E8"/>
<path d="M397.9 72.1L360.8 109.2V119.7C360.8 123.8 359.1 127.5 356.5 130.2C353.8 132.9 350.1 134.5 346 134.5C337.8 134.5 331.2 127.9 331.2 119.7V109.2L368.3 72.1H397.9Z" fill="white"/>
<path d="M360.9 109L360.7 109.2V119.7C360.7 123.8 359 127.5 356.4 130.2C353.7 132.9 350 134.5 345.9 134.5C337.7 134.5 331.1 127.9 331.1 119.7V109.3L360.9 109Z" fill="#E9E2E8"/>
<path d="M365 162.3V272C365 276.9 361 280.9 356.1 280.9H169.8C167.6 280.9 165.5 280.1 164 278.7C162.1 277.1 160.9 274.6 160.9 271.9V162.3C160.9 157.4 164.9 153.4 169.8 153.4H356C361 153.4 365 157.4 365 162.3Z" fill="#777A84"/>
<path d="M364.9 175.9H160.8V200.2H364.9V175.9Z" fill="#262830"/>
<path d="M346 264.4H306.5C304.2 264.4 302.3 262.5 302.3 260.2V251.9C302.3 249.6 304.2 247.7 306.5 247.7H346C348.3 247.7 350.2 249.6 350.2 251.9V260.2C350.2 262.5 348.3 264.4 346 264.4Z" fill="#999BA3"/>
<path d="M187.2 229.1H173.8C173.2 229.1 172.7 228.6 172.7 228V221C172.7 220.4 173.2 219.9 173.8 219.9H187.3C187.9 219.9 188.4 220.4 188.4 221V228C188.3 228.6 187.8 229.1 187.2 229.1Z" fill="#999BA3"/>
<path d="M214.7 229.1H201.2C200.6 229.1 200.1 228.6 200.1 228V221C200.1 220.4 200.6 219.9 201.2 219.9H214.7C215.3 219.9 215.8 220.4 215.8 221V228C215.8 228.6 215.3 229.1 214.7 229.1Z" fill="#999BA3"/>
<path d="M242.2 229.1H228.7C228.1 229.1 227.6 228.6 227.6 228V221C227.6 220.4 228.1 219.9 228.7 219.9H242.2C242.8 219.9 243.3 220.4 243.3 221V228C243.2 228.6 242.7 229.1 242.2 229.1Z" fill="#999BA3"/>
<path d="M269.6 229.1H256.1C255.5 229.1 255 228.6 255 228V221C255 220.4 255.5 219.9 256.1 219.9H269.6C270.2 219.9 270.7 220.4 270.7 221V228C270.7 228.6 270.2 229.1 269.6 229.1Z" fill="#999BA3"/>
<path d="M297.1 229.1H283.6C283 229.1 282.5 228.6 282.5 228V221C282.5 220.4 283 219.9 283.6 219.9H297.1C297.7 219.9 298.2 220.4 298.2 221V228C298.2 228.6 297.7 229.1 297.1 229.1Z" fill="#999BA3"/>
<path d="M324.6 229.1H311.1C310.5 229.1 310 228.6 310 228V221C310 220.4 310.5 219.9 311.1 219.9H324.6C325.2 219.9 325.7 220.4 325.7 221V228C325.6 228.6 325.2 229.1 324.6 229.1Z" fill="#999BA3"/>
<path d="M352 229.1H338.5C337.9 229.1 337.4 228.6 337.4 228V221C337.4 220.4 337.9 219.9 338.5 219.9H352C352.6 219.9 353.1 220.4 353.1 221V228C353.1 228.6 352.6 229.1 352 229.1Z" fill="#999BA3"/>
<path d="M364.9 163.1H160.8V167.8H364.9V163.1Z" fill="#999BA3"/>
<path d="M193.2 266.8H179.6C175.8 266.8 172.7 263.7 172.7 259.9V246.3C172.7 242.5 175.8 239.4 179.6 239.4H193.2C197 239.4 200.1 242.5 200.1 246.3V259.9C200.2 263.7 197.1 266.8 193.2 266.8Z" fill="#999BA3"/>
<path d="M293.3 259.8H209.1C207.8 259.8 206.7 258.7 206.7 257.4V254.6C206.7 253.3 207.8 252.2 209.1 252.2H293.3C294.6 252.2 295.7 253.3 295.7 254.6V257.4C295.6 258.8 294.6 259.8 293.3 259.8Z" fill="#999BA3"/>
<path d="M543.737 384.4H525.637C523.137 384.4 521.037 381.6 520.237 377.5L512.537 335.9C512.237 334.2 512.937 332.4 513.937 332.3C527.937 330.4 541.737 330.4 555.437 332.3C556.437 332.4 557.137 334.2 556.837 335.9L549.137 377.5C548.337 381.6 546.237 384.4 543.737 384.4Z" fill="#777A84"/>
<path d="M534.837 336.6C545.828 336.6 554.737 335.615 554.737 334.4C554.737 333.185 545.828 332.2 534.837 332.2C523.847 332.2 514.937 333.185 514.937 334.4C514.937 335.615 523.847 336.6 534.837 336.6Z" fill="#262830"/>
<path d="M569.037 279.2C558.137 276.3 541.537 298.9 536.537 320.9V288.8C539.037 284.3 543.937 277.5 552.637 270.4C566.337 259.3 578.837 245 567.937 242.1C557.737 239.4 542.437 259.1 536.437 279.8V238.6C538.237 235.9 541.037 232.3 545.637 228.5C554.237 221.5 562.137 212.5 555.337 210.7C549.337 209.1 540.737 219.7 536.437 231.6V218.3C537.137 214.2 538.137 208.3 540.837 202.3C547.137 188.3 550.537 174 542.237 175C533.837 176.1 528.437 200.9 533.037 220V226.9C529.937 212.9 519.337 198.5 512.437 200.3C505.537 202.1 513.537 211.1 522.137 218.1C528.637 223.4 531.737 228.4 533.037 231.1V263.5C528.137 241.4 511.337 218.6 500.437 221.4C489.537 224.3 502.137 238.5 515.737 249.7C526.037 258.1 530.937 266 533.037 270.3V309.2C527.737 287.5 511.437 265.6 500.737 268.4C489.837 271.3 499.137 281.7 514.537 294.3C524.937 302.9 530.537 311.9 533.037 316.8V335.1C534.237 335.4 535.437 335.4 536.437 335.1V327.8C538.537 323.5 543.437 315.7 553.637 307.4C567.437 296.3 579.937 282 569.037 279.2Z" fill="#7869CF"/>
<path d="M216.9 377.5V377.6C216.9 379 216.2 380.3 214.8 381.5C214.5 381.8 214.1 382.1 213.7 382.4C212.6 383.2 211.2 384 209.6 384.7C209.2 384.9 208.9 385 208.5 385.2C207.2 385.7 205.9 386.2 204.4 386.6C204 386.7 203.7 386.8 203.3 386.9C202 387.3 200.6 387.6 199.2 387.9C198.8 388 198.5 388 198.1 388.1C196.8 388.4 195.4 388.6 194 388.8C193.6 388.9 193.3 388.9 192.9 388.9C191.6 389.1 190.2 389.2 188.8 389.4C188.4 389.4 188.1 389.5 187.7 389.5C186.3 389.6 185 389.7 183.6 389.8C183.2 389.8 182.9 389.8 182.5 389.8C181.1 389.9 179.8 389.9 178.4 389.9C178.2 389.9 177.9 389.9 177.7 389.9C177.6 389.9 177.5 389.9 177.3 389.9C175.9 389.9 174.5 389.9 173.2 389.8C172.8 389.8 172.5 389.8 172.1 389.8C171.1 389.8 170 389.7 169 389.6C168.6 389.6 168.3 389.5 167.9 389.5C167.5 389.5 167.2 389.4 166.8 389.4C165.4 389.3 164 389.1 162.7 389C162.3 389 162 388.9 161.6 388.9C160.7 388.8 159.9 388.7 159.1 388.5C158.6 388.4 158 388.3 157.5 388.2C157.1 388.1 156.8 388.1 156.4 388C155 387.7 153.6 387.4 152.3 387.1C152 387 151.8 387 151.5 386.9C151.4 386.9 151.3 386.8 151.2 386.8C150.6 386.6 150 386.5 149.5 386.3C148.7 386 147.8 385.8 147.1 385.5C146.7 385.4 146.4 385.2 146 385.1C144.6 384.5 143.4 383.9 142.3 383.2C142.1 383.1 142 383 141.8 382.9C141.6 382.8 141.4 382.6 141.3 382.5C141.1 382.4 140.9 382.2 140.8 382.1C139.2 380.8 138.4 379.4 138.4 377.9C138.4 377.8 138.4 377.7 138.4 377.6V369.2H140.8H141.9H146H147.1H150.3H151.2H152.3H156.4H157.5H161.6H162.7H166.8H167.9H172H173.1H177.2H178.3H182.4H183.5H187.6H188.7H192.8H193.9H198H199.1H203.2H204.3H204.6H208.5H209.6H213.7H214.8H216.9V377.5Z" fill="#EBC665"/>
<path d="M141.5 368.8V382.6C141.3 382.5 141.1 382.3 141 382.2C140.8 382.1 140.6 381.9 140.5 381.8V368.8H141.5Z" fill="#C78300"/>
<path d="M146.8 368.8V385.2C146.4 385.1 146.1 384.9 145.7 384.8V368.8H146.8Z" fill="#C78300"/>
<path d="M152 368.8V386.9C151.7 386.8 151.5 386.8 151.2 386.7C151.1 386.7 151 386.6 150.9 386.6V368.8H152Z" fill="#C78300"/>
<path d="M157.2 368.8V388C156.8 387.9 156.5 387.9 156.1 387.8V368.8H157.2Z" fill="#C78300"/>
<path d="M162.5 368.8V388.8C162.1 388.8 161.8 388.7 161.4 388.7V368.8H162.5Z" fill="#C78300"/>
<path d="M167.7 368.8V389.4C167.3 389.4 167 389.3 166.6 389.3V368.8H167.7Z" fill="#C78300"/>
<path d="M172.9 368.8V389.7C172.5 389.7 172.2 389.7 171.8 389.7V368.9L172.9 368.8Z" fill="#C78300"/>
<path d="M178.2 368.8V389.8C178 389.8 177.7 389.8 177.5 389.8C177.4 389.8 177.3 389.8 177.1 389.8V368.8H178.2Z" fill="#C78300"/>
<path d="M183.4 368.8V389.6C183 389.6 182.7 389.6 182.3 389.6V368.7L183.4 368.8Z" fill="#C78300"/>
<path d="M188.6 368.8V389.3C188.2 389.3 187.9 389.4 187.5 389.4V368.8H188.6Z" fill="#C78300"/>
<path d="M193.9 368.8V388.7C193.5 388.8 193.2 388.8 192.8 388.8V368.8H193.9Z" fill="#C78300"/>
<path d="M199.1 368.7V387.7C198.7 387.8 198.4 387.8 198 387.9V368.7H199.1Z" fill="#C78300"/>
<path d="M204.3 368.7V386.4C203.9 386.5 203.6 386.6 203.2 386.7V368.7H204.3Z" fill="#C78300"/>
<path d="M209.6 368.7V384.6C209.2 384.8 208.9 384.9 208.5 385.1V368.8L209.6 368.7Z" fill="#C78300"/>
<path d="M214.8 368.7V381.5C214.5 381.8 214.1 382.1 213.7 382.4V368.8L214.8 368.7Z" fill="#C78300"/>
<path d="M216.9 368.8C216.9 375 199.3 380 177.5 380C174.5 380 171.6 379.9 168.8 379.7C165.3 379.5 162 379.1 158.9 378.7C156.1 378.3 153.6 377.8 151.3 377.2C150.6 377 149.9 376.8 149.2 376.6C146.3 375.8 143.9 374.8 142 373.7C141.6 373.5 141.3 373.3 141 373.1C139.1 371.8 138 370.3 138 368.8C138 368.7 138 368.5 138 368.4C138.8 362.4 156.1 357.6 177.4 357.6C182.6 357.6 187.6 357.9 192.2 358.4C193.1 358.5 194 358.6 194.8 358.7C198.5 359.2 201.9 359.9 204.8 360.7C205.4 360.9 206.1 361.1 206.7 361.3C208.8 362 210.7 362.7 212.2 363.5C213.8 364.3 215 365.2 215.7 366.2C216.3 366.9 216.6 367.6 216.7 368.3C216.8 368.6 216.9 368.7 216.9 368.8Z" fill="#F5E3B2"/>
<path d="M208.9 368.8C208.9 368.9 208.9 369.1 208.9 369.2C208.1 373.9 194.3 377.7 177.4 377.7C160.5 377.7 146.7 373.9 145.9 369.2C145.9 369.1 145.9 368.9 145.9 368.8C145.9 363.9 160 359.9 177.4 359.9C194.8 359.9 208.9 363.9 208.9 368.8Z" fill="#C78300"/>
<path d="M208.9 369.2C208.1 373.9 194.3 377.7 177.4 377.7C177 377.7 176.6 377.7 176.3 377.7C172.5 377.7 168.9 377.4 165.6 377.1C162.3 376.7 159.2 376.2 156.6 375.5C155.9 375.3 155.3 375.2 154.7 375C151.9 374.2 149.6 373.2 148.1 372.1C147.7 371.8 147.4 371.6 147.1 371.3C146.4 370.7 146.1 370 145.9 369.3C146.7 364.6 160.5 360.8 177.4 360.8C179.5 360.8 181.6 360.9 183.6 361C184.6 361.1 185.6 361.1 186.6 361.2C190.7 361.6 194.4 362.1 197.5 362.9C198.2 363.1 198.8 363.2 199.5 363.4C202 364.1 204 364.9 205.6 365.8C207.1 366.7 208.1 367.6 208.6 368.6C208.8 368.8 208.9 369 208.9 369.2Z" fill="#EBC665"/>
<path d="M181.8 373.9V375.4H175.2V374C170.5 373.9 165.9 373.6 163.1 373.1L166.7 370.8C169.8 371.3 174 371.7 177.6 371.7C180.8 371.7 181.9 371.5 181.9 371.2C181.9 370 163.6 371 163.6 367.5C163.6 366 167.5 364.7 175.2 364.4V362.9H181.8V364.3C185.3 364.4 188.7 364.6 191.4 365.1L188.1 367.4C184.8 366.9 181.8 366.7 178.9 366.7C175.6 366.7 174.6 367 174.6 367.3C174.6 368.4 192.9 367.5 192.9 370.9C192.8 372.3 189.1 373.5 181.8 373.9Z" fill="#C78300"/>
<path d="M181.6 373.4V374.9H175V373.5C170.3 373.4 165.7 373.1 162.9 372.6L166.5 370.3C169.6 370.8 173.8 371.2 177.4 371.2C180.6 371.2 181.7 371 181.7 370.7C181.7 369.5 163.4 370.5 163.4 367C163.4 365.5 167.3 364.2 175 363.9V362.4H181.6V363.8C185.1 363.9 188.5 364.1 191.2 364.6L187.9 366.9C184.6 366.4 181.6 366.2 178.7 366.2C175.4 366.2 174.4 366.5 174.4 366.8C174.4 367.9 192.7 367 192.7 370.4C192.6 371.8 188.9 373.1 181.6 373.4Z" fill="#F5E3B2"/>
<path d="M219.3 363.6V363.7C219.3 365.1 218.6 366.4 217.2 367.6C216.9 367.9 216.5 368.2 216.1 368.5C215 369.3 213.6 370.1 212 370.8C211.6 371 211.3 371.1 210.9 371.3C209.6 371.8 208.3 372.3 206.8 372.7C206.4 372.8 206.1 372.9 205.7 373C204.4 373.4 203 373.7 201.6 374C201.2 374.1 200.9 374.1 200.5 374.2C199.2 374.5 197.8 374.7 196.4 374.9C196 375 195.7 375 195.3 375C194 375.2 192.6 375.3 191.2 375.5C190.8 375.5 190.5 375.6 190.1 375.6C188.7 375.7 187.4 375.8 186 375.9C185.6 375.9 185.3 375.9 184.9 375.9C183.5 376 182.2 376 180.8 376C180.6 376 180.3 376 180.1 376C180 376 179.9 376 179.7 376C178.3 376 176.9 376 175.6 375.9C175.2 375.9 174.9 375.9 174.5 375.9C173.5 375.9 172.4 375.8 171.4 375.7C171 375.7 170.7 375.6 170.3 375.6C169.9 375.6 169.6 375.5 169.2 375.5C167.8 375.4 166.4 375.2 165.1 375.1C164.7 375.1 164.4 375 164 375C163.1 374.9 162.3 374.8 161.5 374.6C161 374.5 160.4 374.4 159.9 374.3C159.5 374.2 159.2 374.2 158.8 374.1C157.4 373.8 156 373.5 154.7 373.2C154.4 373.1 154.2 373.1 153.9 373C153.8 373 153.7 372.9 153.6 372.9C153 372.7 152.4 372.6 151.9 372.4C151.1 372.1 150.2 371.9 149.5 371.6C149.1 371.5 148.8 371.3 148.4 371.2C147 370.6 145.8 370 144.7 369.3C144.5 369.2 144.4 369.1 144.2 369C144 368.9 143.8 368.7 143.7 368.6C143.5 368.5 143.3 368.3 143.2 368.2C141.6 366.9 140.8 365.5 140.8 364C140.8 363.9 140.8 363.8 140.8 363.7V355.3H143.2H144.3H148.4H149.5H152.7H153.6H154.7H158.8H159.9H164H165.1H169.2H170.3H174.4H175.5H179.6H180.7H184.8H185.9H190H191.1H195.2H196.3H200.4H201.5H205.6H206.7H207H210.9H212H216.1H217.2H219.3V363.6Z" fill="#EBC665"/>
<path d="M144 355V368.8C143.8 368.7 143.6 368.5 143.5 368.4C143.3 368.3 143.1 368.1 143 368V355H144Z" fill="#C78300"/>
<path d="M149.2 355V371.4C148.8 371.3 148.5 371.1 148.1 371V355H149.2Z" fill="#C78300"/>
<path d="M154.5 355V373.1C154.2 373 154 373 153.7 372.9C153.6 372.9 153.5 372.8 153.4 372.8V355H154.5Z" fill="#C78300"/>
<path d="M159.7 355V374.2C159.3 374.1 159 374.1 158.6 374V355H159.7Z" fill="#C78300"/>
<path d="M164.9 355V375C164.5 375 164.2 374.9 163.8 374.9V355H164.9Z" fill="#C78300"/>
<path d="M170.2 355V375.6C169.8 375.6 169.5 375.5 169.1 375.5V355H170.2Z" fill="#C78300"/>
<path d="M175.4 355V375.9C175 375.9 174.7 375.9 174.3 375.9V355H175.4Z" fill="#C78300"/>
<path d="M180.6 355V376C180.4 376 180.1 376 179.9 376C179.8 376 179.7 376 179.5 376V355H180.6Z" fill="#C78300"/>
<path d="M185.9 355V375.8C185.5 375.8 185.2 375.8 184.8 375.8V355H185.9Z" fill="#C78300"/>
<path d="M191.1 355V375.5C190.7 375.5 190.4 375.6 190 375.6V355H191.1Z" fill="#C78300"/>
<path d="M196.3 354.9V374.8C195.9 374.9 195.6 374.9 195.2 374.9V354.9H196.3Z" fill="#C78300"/>
<path d="M201.6 354.9V373.9C201.2 374 200.9 374 200.5 374.1V354.9H201.6Z" fill="#C78300"/>
<path d="M206.8 354.9V372.6C206.4 372.7 206.1 372.8 205.7 372.9V354.9H206.8Z" fill="#C78300"/>
<path d="M212 354.9V370.8C211.6 371 211.3 371.1 210.9 371.3V355L212 354.9Z" fill="#C78300"/>
<path d="M217.3 354.9V367.7C217 368 216.6 368.3 216.2 368.6V355L217.3 354.9Z" fill="#C78300"/>
<path d="M219.3 355C219.3 361.2 201.7 366.2 179.9 366.2C176.9 366.2 174 366.1 171.2 365.9C167.7 365.7 164.4 365.3 161.3 364.9C158.5 364.5 156 364 153.7 363.4C153 363.2 152.3 363 151.6 362.8C148.7 362 146.3 361 144.4 359.9C144 359.7 143.7 359.5 143.4 359.3C141.5 358 140.4 356.5 140.4 355C140.4 354.9 140.4 354.7 140.4 354.6C141.2 348.6 158.5 343.8 179.8 343.8C185 343.8 190 344.1 194.6 344.6C195.5 344.7 196.4 344.8 197.2 344.9C200.9 345.4 204.3 346.1 207.2 346.9C207.8 347.1 208.5 347.3 209.1 347.5C211.2 348.2 213.1 348.9 214.6 349.7C216.2 350.5 217.4 351.4 218.1 352.4C218.7 353.1 219 353.8 219.1 354.5C219.3 354.7 219.3 354.9 219.3 355Z" fill="#F5E3B2"/>
<path d="M211.4 355C211.4 355.1 211.4 355.3 211.4 355.4C210.6 360.1 196.8 363.9 179.9 363.9C163 363.9 149.2 360.1 148.4 355.4C148.4 355.3 148.4 355.1 148.4 355C148.4 350.1 162.5 346.1 179.9 346.1C197.3 346.1 211.4 350.1 211.4 355Z" fill="#C78300"/>
<path d="M211.4 355.4C210.6 360.1 196.8 363.9 179.9 363.9C179.5 363.9 179.1 363.9 178.8 363.9C175 363.9 171.4 363.6 168.1 363.3C164.8 362.9 161.7 362.4 159.1 361.7C158.4 361.5 157.8 361.4 157.2 361.2C154.4 360.4 152.1 359.4 150.6 358.3C150.2 358 149.9 357.8 149.6 357.5C148.9 356.9 148.6 356.2 148.4 355.5C149.2 350.8 163 347 179.9 347C182 347 184.1 347.1 186.1 347.2C187.1 347.3 188.1 347.3 189.1 347.4C193.2 347.8 196.9 348.3 200 349.1C200.7 349.3 201.3 349.4 202 349.6C204.5 350.3 206.5 351.1 208.1 352C209.6 352.9 210.6 353.8 211.1 354.8C211.3 355 211.3 355.2 211.4 355.4Z" fill="#EBC665"/>
<path d="M184.3 360.1V361.6H177.6V360.2C172.9 360.1 168.3 359.8 165.5 359.3L169.1 357C172.2 357.5 176.4 357.9 180 357.9C183.2 357.9 184.3 357.7 184.3 357.4C184.3 356.2 166 357.2 166 353.7C166 352.2 169.9 350.9 177.6 350.6V349H184.2V350.4C187.7 350.5 191.1 350.7 193.8 351.2L190.5 353.5C187.2 353 184.2 352.8 181.3 352.8C178 352.8 177 353.1 177 353.4C177 354.5 195.3 353.6 195.3 357C195.3 358.5 191.6 359.7 184.3 360.1Z" fill="#C78300"/>
<path d="M184.1 359.6V361.1H177.5V359.7C172.8 359.6 168.2 359.3 165.4 358.8L169 356.5C172.1 357 176.3 357.4 179.9 357.4C183.1 357.4 184.2 357.2 184.2 356.9C184.2 355.7 165.9 356.7 165.9 353.2C165.9 351.7 169.8 350.4 177.5 350.1V348.6H184.1V350C187.6 350.1 191 350.3 193.7 350.8L190.4 353.1C187.1 352.6 184.1 352.4 181.2 352.4C177.9 352.4 176.9 352.7 176.9 353C176.9 354.1 195.2 353.2 195.2 356.6C195.1 358 191.4 359.2 184.1 359.6Z" fill="#F5E3B2"/>
<path d="M219 349.8V349.9C219 351.3 218.3 352.6 216.9 353.8C216.6 354.1 216.2 354.4 215.8 354.7C214.7 355.5 213.3 356.3 211.7 357C211.3 357.2 211 357.3 210.6 357.5C209.3 358 208 358.5 206.5 358.9C206.1 359 205.8 359.1 205.4 359.2C204.1 359.6 202.7 359.9 201.3 360.2C200.9 360.3 200.6 360.3 200.2 360.4C198.9 360.7 197.5 360.9 196.1 361.1C195.7 361.2 195.4 361.2 195 361.2C193.7 361.4 192.3 361.5 190.9 361.7C190.5 361.7 190.2 361.8 189.8 361.8C188.4 361.9 187.1 362 185.7 362.1C185.3 362.1 185 362.1 184.6 362.1C183.2 362.2 181.9 362.2 180.5 362.2C180.3 362.2 180 362.2 179.8 362.2C179.7 362.2 179.6 362.2 179.4 362.2C178 362.2 176.6 362.2 175.3 362.1C174.9 362.1 174.6 362.1 174.2 362.1C173.2 362.1 172.1 362 171.1 361.9C170.7 361.9 170.4 361.8 170 361.8C169.6 361.8 169.3 361.7 168.9 361.7C167.5 361.6 166.1 361.4 164.8 361.3C164.4 361.3 164.1 361.2 163.7 361.2C162.8 361.1 162 361 161.2 360.8C160.7 360.7 160.1 360.6 159.6 360.5C159.2 360.4 158.9 360.4 158.5 360.3C157.1 360 155.7 359.7 154.4 359.4C154.1 359.3 153.9 359.3 153.6 359.2C153.5 359.2 153.4 359.1 153.3 359.1C152.7 358.9 152.1 358.8 151.6 358.6C150.8 358.3 149.9 358.1 149.2 357.8C148.8 357.7 148.5 357.5 148.1 357.4C146.7 356.8 145.5 356.2 144.4 355.5C144.2 355.4 144.1 355.3 143.9 355.2C143.7 355.1 143.5 354.9 143.4 354.8C143.2 354.7 143 354.5 142.9 354.4C141.3 353.1 140.5 351.7 140.5 350.2C140.5 350.1 140.5 350 140.5 349.9V341.5H142.9H144H148.1H149.2H152.4H153.3H154.4H158.5H159.6H163.7H164.8H168.9H170H174.1H175.2H179.3H180.4H184.5H185.6H189.7H190.8H194.9H196H200.1H201.2H205.3H206.4H206.7H210.6H211.7H215.8H216.9H219V349.8Z" fill="#EBC665"/>
<path d="M143.6 341.2V355C143.4 354.9 143.2 354.7 143.1 354.6C142.9 354.5 142.7 354.3 142.6 354.2V341.2H143.6Z" fill="#C78300"/>
<path d="M148.9 341.2V357.6C148.5 357.5 148.2 357.3 147.8 357.2V341.2H148.9Z" fill="#C78300"/>
<path d="M154.1 341.2V359.3C153.8 359.2 153.6 359.2 153.3 359.1C153.2 359.1 153.1 359 153 359V341.2H154.1Z" fill="#C78300"/>
<path d="M159.3 341.2V360.4C158.9 360.3 158.6 360.3 158.2 360.2V341.2H159.3Z" fill="#C78300"/>
<path d="M164.6 341.2V361.2C164.2 361.2 163.9 361.1 163.5 361.1V341.2H164.6Z" fill="#C78300"/>
<path d="M169.8 341.2V361.8C169.4 361.8 169.1 361.7 168.7 361.7V341.2H169.8Z" fill="#C78300"/>
<path d="M175 341.2V362.1C174.6 362.1 174.3 362.1 173.9 362.1V341.3L175 341.2Z" fill="#C78300"/>
<path d="M180.3 341.2V362.2C180.1 362.2 179.8 362.2 179.6 362.2C179.5 362.2 179.4 362.2 179.2 362.2V341.2H180.3Z" fill="#C78300"/>
<path d="M185.5 341.2V362C185.1 362 184.8 362 184.4 362V341.1L185.5 341.2Z" fill="#C78300"/>
<path d="M190.7 341.1V361.6C190.3 361.6 190 361.7 189.6 361.7V341.1H190.7Z" fill="#C78300"/>
<path d="M196 341.1V361C195.6 361.1 195.3 361.1 194.9 361.1V341.1H196Z" fill="#C78300"/>
<path d="M201.2 341.1V360.1C200.8 360.2 200.5 360.2 200.1 360.3V341.1H201.2Z" fill="#C78300"/>
<path d="M206.4 341.1V358.8C206 358.9 205.7 359 205.3 359.1V341.1H206.4Z" fill="#C78300"/>
<path d="M211.7 341.1V357C211.3 357.2 211 357.3 210.6 357.5V341.2L211.7 341.1Z" fill="#C78300"/>
<path d="M216.9 341.1V353.9C216.6 354.2 216.2 354.5 215.8 354.8V341.2L216.9 341.1Z" fill="#C78300"/>
<path d="M219 341.2C219 347.4 201.4 352.4 179.6 352.4C176.6 352.4 173.7 352.3 170.9 352.1C167.4 351.9 164.1 351.5 161 351.1C158.2 350.7 155.7 350.2 153.4 349.6C152.7 349.4 152 349.2 151.3 349C148.4 348.2 146 347.2 144.1 346.1C143.7 345.9 143.4 345.7 143.1 345.5C141.2 344.2 140.1 342.7 140.1 341.2C140.1 341.1 140.1 340.9 140.1 340.8C140.9 334.8 158.2 330 179.5 330C184.7 330 189.7 330.3 194.3 330.8C195.2 330.9 196 331 196.9 331.1C200.6 331.6 204 332.3 206.9 333.1C207.5 333.3 208.2 333.5 208.8 333.7C210.9 334.4 212.8 335.1 214.3 335.9C215.9 336.7 217.1 337.6 217.8 338.6C218.4 339.3 218.7 340 218.8 340.7C219 340.9 219 341.1 219 341.2Z" fill="#F5E3B2"/>
<path d="M211.1 341.2C211.1 341.3 211.1 341.5 211.1 341.6C210.3 346.3 196.5 350.1 179.6 350.1C162.7 350.1 148.9 346.3 148.1 341.6C148.1 341.5 148.1 341.3 148.1 341.2C148.1 336.3 162.2 332.3 179.6 332.3C197 332.3 211.1 336.3 211.1 341.2Z" fill="#C78300"/>
<path d="M211 341.6C210.2 346.3 196.4 350.1 179.5 350.1C179.1 350.1 178.7 350.1 178.4 350.1C174.6 350.1 171 349.8 167.7 349.5C164.4 349.1 161.3 348.6 158.7 347.9C158 347.7 157.4 347.6 156.8 347.4C154 346.6 151.7 345.6 150.2 344.5C149.8 344.2 149.5 344 149.2 343.7C148.5 343.1 148.2 342.4 148 341.7C148.8 337 162.6 333.2 179.5 333.2C181.6 333.2 183.7 333.3 185.7 333.4C186.7 333.5 187.7 333.5 188.7 333.6C192.8 334 196.5 334.5 199.6 335.3C200.3 335.5 200.9 335.6 201.6 335.8C204.1 336.5 206.1 337.3 207.7 338.2C209.2 339.1 210.2 340 210.7 341C210.9 341.2 211 341.4 211 341.6Z" fill="#EBC665"/>
<path d="M183.9 346.3V347.8H177.3V346.4C172.6 346.3 168 346 165.2 345.5L168.8 343.2C171.9 343.7 176.1 344.1 179.7 344.1C182.9 344.1 184 343.9 184 343.6C184 342.4 165.7 343.4 165.7 339.9C165.7 338.4 169.6 337.1 177.3 336.8V335.3H183.9V336.7C187.4 336.8 190.8 337 193.5 337.5L190.2 339.8C186.9 339.3 183.9 339.1 181 339.1C177.7 339.1 176.7 339.4 176.7 339.7C176.7 340.8 195 339.9 195 343.3C194.9 344.7 191.2 345.9 183.9 346.3Z" fill="#C78300"/>
<path d="M183.7 345.8V347.3H177.1V345.9C172.4 345.8 167.8 345.5 165 345L168.6 342.7C171.7 343.2 175.9 343.6 179.5 343.6C182.7 343.6 183.8 343.4 183.8 343.1C183.8 341.9 165.5 342.9 165.5 339.4C165.5 337.9 169.4 336.6 177.1 336.3V334.8H183.7V336.2C187.2 336.3 190.6 336.5 193.3 337L190 339.3C186.7 338.8 183.7 338.6 180.8 338.6C177.5 338.6 176.5 338.9 176.5 339.2C176.5 340.3 194.8 339.4 194.8 342.8C194.7 344.2 191 345.4 183.7 345.8Z" fill="#F5E3B2"/>
<path d="M217 337.5V337.6C217 339 216.3 340.3 214.9 341.5C214.6 341.8 214.2 342.1 213.8 342.4C212.7 343.2 211.3 344 209.7 344.7C209.3 344.9 209 345 208.6 345.2C207.3 345.7 206 346.2 204.5 346.6C204.1 346.7 203.8 346.8 203.4 346.9C202.1 347.3 200.7 347.6 199.3 347.9C198.9 348 198.6 348 198.2 348.1C196.9 348.4 195.5 348.6 194.1 348.8C193.7 348.9 193.4 348.9 193 348.9C191.7 349.1 190.3 349.2 188.9 349.4C188.5 349.4 188.2 349.5 187.8 349.5C186.4 349.6 185.1 349.7 183.7 349.8C183.3 349.8 183 349.8 182.6 349.8C181.2 349.9 179.9 349.9 178.5 349.9C178.3 349.9 178 349.9 177.8 349.9C177.7 349.9 177.6 349.9 177.4 349.9C176 349.9 174.6 349.9 173.3 349.8C172.9 349.8 172.6 349.8 172.2 349.8C171.2 349.8 170.1 349.7 169.1 349.6C168.7 349.6 168.4 349.5 168 349.5C167.6 349.5 167.3 349.4 166.9 349.4C165.5 349.3 164.1 349.1 162.8 349C162.4 349 162.1 348.9 161.7 348.9C160.8 348.8 160 348.7 159.2 348.5C158.7 348.4 158.1 348.3 157.6 348.2C157.2 348.1 156.9 348.1 156.5 348C155.1 347.7 153.7 347.4 152.4 347.1C152.1 347 151.9 347 151.6 346.9C151.5 346.9 151.4 346.8 151.3 346.8C150.7 346.6 150.1 346.5 149.6 346.3C148.8 346 147.9 345.8 147.2 345.5C146.8 345.4 146.5 345.2 146.1 345.1C144.7 344.5 143.5 343.9 142.4 343.2C142.2 343.1 142.1 343 141.9 342.9C141.7 342.8 141.5 342.6 141.4 342.5C141.2 342.4 141 342.2 140.9 342.1C139.3 340.8 138.5 339.4 138.5 337.9C138.5 337.8 138.5 337.7 138.5 337.6V329.2H140.9H142H146.1H147.2H150.4H151.3H152.4H156.5H157.6H161.7H162.8H166.9H168H172.1H173.2H177.3H178.4H182.5H183.6H187.7H188.8H192.9H194H198.1H199.2H203.3H204.4H204.7H208.6H209.7H213.8H214.9H217V337.5Z" fill="#EBC665"/>
<path d="M141.7 328.9V342.7C141.5 342.6 141.3 342.4 141.2 342.3C141 342.2 140.8 342 140.7 341.9V328.9H141.7Z" fill="#C78300"/>
<path d="M146.9 328.9V345.3C146.5 345.2 146.2 345 145.8 344.9V328.9H146.9Z" fill="#C78300"/>
<path d="M152.1 328.8V346.9C151.8 346.8 151.6 346.8 151.3 346.7C151.2 346.7 151.1 346.6 151 346.6V328.8H152.1Z" fill="#C78300"/>
<path d="M157.4 328.8V348C157 347.9 156.7 347.9 156.3 347.8V328.8H157.4Z" fill="#C78300"/>
<path d="M162.6 328.8V348.8C162.2 348.8 161.9 348.7 161.5 348.7V328.8H162.6Z" fill="#C78300"/>
<path d="M167.8 328.8V349.4C167.4 349.4 167.1 349.3 166.7 349.3V328.8H167.8Z" fill="#C78300"/>
<path d="M173.1 328.8V349.7C172.7 349.7 172.4 349.7 172 349.7V328.9L173.1 328.8Z" fill="#C78300"/>
<path d="M178.3 328.8V349.8C178.1 349.8 177.8 349.8 177.6 349.8C177.5 349.8 177.4 349.8 177.2 349.8V328.8H178.3Z" fill="#C78300"/>
<path d="M183.5 328.8V349.6C183.1 349.6 182.8 349.6 182.4 349.6V328.7L183.5 328.8Z" fill="#C78300"/>
<path d="M188.8 328.8V349.3C188.4 349.3 188.1 349.4 187.7 349.4V328.8H188.8Z" fill="#C78300"/>
<path d="M194 328.8V348.7C193.6 348.8 193.3 348.8 192.9 348.8V328.8H194Z" fill="#C78300"/>
<path d="M199.2 328.8V347.8C198.8 347.9 198.5 347.9 198.1 348V328.8H199.2Z" fill="#C78300"/>
<path d="M204.5 328.8V346.5C204.1 346.6 203.8 346.7 203.4 346.8V328.8H204.5Z" fill="#C78300"/>
<path d="M209.7 328.8V344.7C209.3 344.9 209 345 208.6 345.2V328.9L209.7 328.8Z" fill="#C78300"/>
<path d="M214.9 328.8V341.6C214.6 341.9 214.2 342.2 213.8 342.5V328.9L214.9 328.8Z" fill="#C78300"/>
<path d="M217 328.9C217 335.1 199.4 340.1 177.6 340.1C174.6 340.1 171.7 340 168.9 339.8C165.4 339.6 162.1 339.2 159 338.8C156.2 338.4 153.7 337.9 151.4 337.3C150.7 337.1 150 336.9 149.3 336.7C146.4 335.9 144 334.9 142.1 333.8C141.7 333.6 141.4 333.4 141.1 333.2C139.2 331.9 138.1 330.4 138.1 328.9C138.1 328.8 138.1 328.6 138.1 328.5C138.9 322.5 156.2 317.7 177.5 317.7C182.7 317.7 187.7 318 192.3 318.5C193.2 318.6 194.1 318.7 194.9 318.8C198.6 319.3 202 320 204.9 320.8C205.5 321 206.2 321.2 206.8 321.4C208.9 322.1 210.8 322.8 212.3 323.6C213.9 324.4 215.1 325.3 215.8 326.3C216.4 327 216.7 327.7 216.8 328.4C217 328.6 217 328.7 217 328.9Z" fill="#F5E3B2"/>
<path d="M209.1 328.9C209.1 329 209.1 329.2 209.1 329.3C208.3 334 194.5 337.8 177.6 337.8C160.7 337.8 146.9 334 146.1 329.3C146.1 329.2 146.1 329 146.1 328.9C146.1 324 160.2 320 177.6 320C195 319.9 209.1 323.9 209.1 328.9Z" fill="#C78300"/>
<path d="M209.1 329.3C208.3 334 194.5 337.8 177.6 337.8C177.2 337.8 176.8 337.8 176.5 337.8C172.7 337.8 169.1 337.5 165.8 337.2C162.5 336.8 159.4 336.3 156.8 335.6C156.1 335.4 155.5 335.3 154.9 335.1C152.1 334.3 149.8 333.3 148.3 332.2C147.9 331.9 147.6 331.7 147.3 331.4C146.6 330.8 146.3 330.1 146.1 329.4C146.9 324.7 160.7 320.9 177.6 320.9C179.7 320.9 181.8 321 183.8 321.1C184.8 321.2 185.8 321.2 186.8 321.3C190.9 321.7 194.6 322.2 197.7 323C198.4 323.2 199 323.3 199.7 323.5C202.2 324.2 204.2 325 205.8 325.9C207.3 326.8 208.3 327.7 208.8 328.7C209 328.8 209 329 209.1 329.3Z" fill="#EBC665"/>
<path d="M182 333.9V335.4H175.4V334C170.7 333.9 166.1 333.6 163.3 333.1L166.9 330.8C170 331.3 174.2 331.7 177.8 331.7C181 331.7 182.1 331.5 182.1 331.2C182.1 330 163.8 331 163.8 327.5C163.8 326 167.7 324.7 175.4 324.4V322.9H182V324.3C185.5 324.4 188.9 324.6 191.6 325.1L188.3 327.4C185 326.9 182 326.7 179.1 326.7C175.8 326.7 174.8 327 174.8 327.3C174.8 328.4 193.1 327.5 193.1 330.9C193 332.3 189.3 333.6 182 333.9Z" fill="#C78300"/>
<path d="M181.8 333.4V334.9H175.2V333.5C170.5 333.4 165.9 333.1 163.1 332.6L166.7 330.3C169.8 330.8 174 331.2 177.6 331.2C180.8 331.2 181.9 331 181.9 330.7C181.9 329.5 163.6 330.5 163.6 327C163.6 325.5 167.5 324.2 175.2 323.9V322.4H181.8V323.8C185.3 323.9 188.7 324.1 191.4 324.6L188.1 326.9C184.8 326.4 181.8 326.2 178.9 326.2C175.6 326.2 174.6 326.5 174.6 326.8C174.6 327.9 192.9 327 192.9 330.4C192.8 331.8 189.1 333.1 181.8 333.4Z" fill="#F5E3B2"/>
<path d="M286.5 377.5V377.6C286.5 379 285.8 380.3 284.4 381.5C284.1 381.8 283.7 382.1 283.3 382.4C282.2 383.2 280.8 384 279.2 384.7C278.8 384.9 278.5 385 278.1 385.2C276.8 385.7 275.5 386.2 274 386.6C273.6 386.7 273.3 386.8 272.9 386.9C271.6 387.3 270.2 387.6 268.8 387.9C268.4 388 268.1 388 267.7 388.1C266.4 388.4 265 388.6 263.6 388.8C263.2 388.9 262.9 388.9 262.5 388.9C261.2 389.1 259.8 389.2 258.4 389.4C258 389.4 257.7 389.5 257.3 389.5C255.9 389.6 254.6 389.7 253.2 389.8C252.8 389.8 252.5 389.8 252.1 389.8C250.7 389.9 249.4 389.9 248 389.9C247.8 389.9 247.5 389.9 247.3 389.9C247.2 389.9 247.1 389.9 246.9 389.9C245.5 389.9 244.1 389.9 242.8 389.8C242.4 389.8 242.1 389.8 241.7 389.8C240.7 389.8 239.6 389.7 238.6 389.6C238.2 389.6 237.9 389.5 237.5 389.5C237.1 389.5 236.8 389.4 236.4 389.4C235 389.3 233.6 389.1 232.3 389C231.9 389 231.6 388.9 231.2 388.9C230.3 388.8 229.5 388.7 228.7 388.5C228.2 388.4 227.6 388.3 227.1 388.2C226.7 388.1 226.4 388.1 226 388C224.6 387.7 223.2 387.4 221.9 387.1C221.6 387 221.4 387 221.1 386.9C221 386.9 220.9 386.8 220.8 386.8C220.2 386.6 219.6 386.5 219.1 386.3C218.3 386 217.4 385.8 216.7 385.5C216.3 385.4 216 385.2 215.6 385.1C214.2 384.5 213 383.9 211.9 383.2C211.7 383.1 211.6 383 211.4 382.9C211.2 382.8 211 382.6 210.9 382.5C210.7 382.4 210.5 382.2 210.4 382.1C208.8 380.8 208 379.4 208 377.9C208 377.8 208 377.7 208 377.6V369.2H210.4H211.5H215.6H216.7H219.9H220.8H221.9H226H227.1H231.2H232.3H236.4H237.5H241.6H242.7H246.8H247.9H252H253.1H257.2H258.3H262.4H263.5H267.6H268.7H272.8H273.9H274.2H278.1H279.2H283.3H284.4H286.5V377.5Z" fill="#EBC665"/>
<path d="M211.2 368.8V382.6C211 382.5 210.8 382.3 210.7 382.2C210.5 382.1 210.3 381.9 210.2 381.8V368.8H211.2Z" fill="#C78300"/>
<path d="M216.4 368.8V385.2C216 385.1 215.7 384.9 215.3 384.8V368.8H216.4Z" fill="#C78300"/>
<path d="M221.7 368.8V386.9C221.4 386.8 221.2 386.8 220.9 386.7C220.8 386.7 220.7 386.6 220.6 386.6V368.8H221.7Z" fill="#C78300"/>
<path d="M226.9 368.8V388C226.5 387.9 226.2 387.9 225.8 387.8V368.8H226.9Z" fill="#C78300"/>
<path d="M232.1 368.8V388.8C231.7 388.8 231.4 388.7 231 388.7V368.8H232.1Z" fill="#C78300"/>
<path d="M237.4 368.8V389.4C237 389.4 236.7 389.3 236.3 389.3V368.8H237.4Z" fill="#C78300"/>
<path d="M242.6 368.8V389.7C242.2 389.7 241.9 389.7 241.5 389.7V368.9L242.6 368.8Z" fill="#C78300"/>
<path d="M247.8 368.8V389.8C247.6 389.8 247.3 389.8 247.1 389.8C247 389.8 246.9 389.8 246.7 389.8V368.8H247.8Z" fill="#C78300"/>
<path d="M253.1 368.8V389.6C252.7 389.6 252.4 389.6 252 389.6V368.7L253.1 368.8Z" fill="#C78300"/>
<path d="M258.3 368.8V389.3C257.9 389.3 257.6 389.4 257.2 389.4V368.8H258.3Z" fill="#C78300"/>
<path d="M263.5 368.8V388.7C263.1 388.8 262.8 388.8 262.4 388.8V368.8H263.5Z" fill="#C78300"/>
<path d="M268.8 368.7V387.7C268.4 387.8 268.1 387.8 267.7 387.9V368.7H268.8Z" fill="#C78300"/>
<path d="M274 368.7V386.4C273.6 386.5 273.3 386.6 272.9 386.7V368.7H274Z" fill="#C78300"/>
<path d="M279.2 368.7V384.6C278.8 384.8 278.5 384.9 278.1 385.1V368.8L279.2 368.7Z" fill="#C78300"/>
<path d="M284.5 368.7V381.5C284.2 381.8 283.8 382.1 283.4 382.4V368.8L284.5 368.7Z" fill="#C78300"/>
<path d="M286.5 368.8C286.5 375 268.9 380 247.1 380C244.1 380 241.2 379.9 238.4 379.7C234.9 379.5 231.6 379.1 228.5 378.7C225.7 378.3 223.2 377.8 220.9 377.2C220.2 377 219.5 376.8 218.8 376.6C215.9 375.8 213.5 374.8 211.6 373.7C211.2 373.5 210.9 373.3 210.6 373.1C208.7 371.8 207.6 370.3 207.6 368.8C207.6 368.7 207.6 368.5 207.6 368.4C208.4 362.4 225.7 357.6 247 357.6C252.2 357.6 257.2 357.9 261.8 358.4C262.7 358.5 263.6 358.6 264.4 358.7C268.1 359.2 271.5 359.9 274.4 360.7C275 360.9 275.7 361.1 276.3 361.3C278.4 362 280.3 362.7 281.8 363.5C283.4 364.3 284.6 365.2 285.3 366.2C285.9 366.9 286.2 367.6 286.3 368.3C286.5 368.6 286.5 368.7 286.5 368.8Z" fill="#F5E3B2"/>
<path d="M278.6 368.8C278.6 368.9 278.6 369.1 278.6 369.2C277.8 373.9 264 377.7 247.1 377.7C230.2 377.7 216.4 373.9 215.6 369.2C215.6 369.1 215.6 368.9 215.6 368.8C215.6 363.9 229.7 359.9 247.1 359.9C264.5 359.9 278.6 363.9 278.6 368.8Z" fill="#C78300"/>
<path d="M278.6 369.2C277.8 373.9 264 377.7 247.1 377.7C246.7 377.7 246.3 377.7 246 377.7C242.2 377.7 238.6 377.4 235.3 377.1C232 376.7 228.9 376.2 226.3 375.5C225.6 375.3 225 375.2 224.4 375C221.6 374.2 219.3 373.2 217.8 372.1C217.4 371.8 217.1 371.6 216.8 371.3C216.1 370.7 215.8 370 215.6 369.3C216.4 364.6 230.2 360.8 247.1 360.8C249.2 360.8 251.3 360.9 253.3 361C254.3 361.1 255.3 361.1 256.3 361.2C260.4 361.6 264.1 362.1 267.2 362.9C267.9 363.1 268.5 363.2 269.2 363.4C271.7 364.1 273.7 364.9 275.3 365.8C276.8 366.7 277.8 367.6 278.3 368.6C278.5 368.8 278.6 369 278.6 369.2Z" fill="#EBC665"/>
<path d="M251.5 373.9V375.4H244.9V374C240.2 373.9 235.6 373.6 232.8 373.1L236.4 370.8C239.5 371.3 243.7 371.7 247.3 371.7C250.5 371.7 251.6 371.5 251.6 371.2C251.6 370 233.3 371 233.3 367.5C233.3 366 237.2 364.7 244.9 364.4V362.9H251.5V364.3C255 364.4 258.4 364.6 261.1 365.1L257.8 367.4C254.5 366.9 251.5 366.7 248.6 366.7C245.3 366.7 244.3 367 244.3 367.3C244.3 368.4 262.6 367.5 262.6 370.9C262.5 372.3 258.8 373.5 251.5 373.9Z" fill="#C78300"/>
<path d="M251.3 373.4V374.9H244.7V373.5C240 373.4 235.4 373.1 232.6 372.6L236.2 370.3C239.3 370.8 243.5 371.2 247.1 371.2C250.3 371.2 251.4 371 251.4 370.7C251.4 369.5 233.1 370.5 233.1 367C233.1 365.5 237 364.2 244.7 363.9V362.4H251.3V363.8C254.8 363.9 258.2 364.1 260.9 364.6L257.6 366.9C254.3 366.4 251.3 366.2 248.4 366.2C245.1 366.2 244.1 366.5 244.1 366.8C244.1 367.9 262.4 367 262.4 370.4C262.3 371.8 258.6 373.1 251.3 373.4Z" fill="#F5E3B2"/>
<path d="M289 363.6V363.7C289 365.1 288.3 366.4 286.9 367.6C286.6 367.9 286.2 368.2 285.8 368.5C284.7 369.3 283.3 370.1 281.7 370.8C281.3 371 281 371.1 280.6 371.3C279.3 371.8 278 372.3 276.5 372.7C276.1 372.8 275.8 372.9 275.4 373C274.1 373.4 272.7 373.7 271.3 374C270.9 374.1 270.6 374.1 270.2 374.2C268.9 374.5 267.5 374.7 266.1 374.9C265.7 375 265.4 375 265 375C263.7 375.2 262.3 375.3 260.9 375.5C260.5 375.5 260.2 375.6 259.8 375.6C258.4 375.7 257.1 375.8 255.7 375.9C255.3 375.9 255 375.9 254.6 375.9C253.2 376 251.9 376 250.5 376C250.3 376 250 376 249.8 376C249.7 376 249.6 376 249.4 376C248 376 246.6 376 245.3 375.9C244.9 375.9 244.6 375.9 244.2 375.9C243.2 375.9 242.1 375.8 241.1 375.7C240.7 375.7 240.4 375.6 240 375.6C239.6 375.6 239.3 375.5 238.9 375.5C237.5 375.4 236.1 375.2 234.8 375.1C234.4 375.1 234.1 375 233.7 375C232.8 374.9 232 374.8 231.2 374.6C230.7 374.5 230.1 374.4 229.6 374.3C229.2 374.2 228.9 374.2 228.5 374.1C227.1 373.8 225.7 373.5 224.4 373.2C224.1 373.1 223.9 373.1 223.6 373C223.5 373 223.4 372.9 223.3 372.9C222.7 372.7 222.1 372.6 221.6 372.4C220.8 372.1 219.9 371.9 219.2 371.6C218.8 371.5 218.5 371.3 218.1 371.2C216.7 370.6 215.5 370 214.4 369.3C214.2 369.2 214.1 369.1 213.9 369C213.7 368.9 213.5 368.7 213.4 368.6C213.2 368.5 213 368.3 212.9 368.2C211.3 366.9 210.5 365.5 210.5 364C210.5 363.9 210.5 363.8 210.5 363.7V355.3H212.9H214H218.1H219.2H222.4H223.3H224.4H228.5H229.6H233.7H234.8H238.9H240H244.1H245.2H249.3H250.4H254.5H255.6H259.7H260.8H264.9H266H270.1H271.2H275.3H276.4H276.7H280.6H281.7H285.8H286.9H289V363.6Z" fill="#EBC665"/>
<path d="M213.7 355V368.8C213.5 368.7 213.3 368.5 213.2 368.4C213 368.3 212.8 368.1 212.7 368V355H213.7Z" fill="#C78300"/>
<path d="M218.9 355V371.4C218.5 371.3 218.2 371.1 217.8 371V355H218.9Z" fill="#C78300"/>
<path d="M224.2 355V373.1C223.9 373 223.7 373 223.4 372.9C223.3 372.9 223.2 372.8 223.1 372.8V355H224.2Z" fill="#C78300"/>
<path d="M229.4 355V374.2C229 374.1 228.7 374.1 228.3 374V355H229.4Z" fill="#C78300"/>
<path d="M234.6 355V375C234.2 375 233.9 374.9 233.5 374.9V355H234.6Z" fill="#C78300"/>
<path d="M239.9 355V375.6C239.5 375.6 239.2 375.5 238.8 375.5V355H239.9Z" fill="#C78300"/>
<path d="M245.1 355V375.9C244.7 375.9 244.4 375.9 244 375.9V355H245.1Z" fill="#C78300"/>
<path d="M250.3 355V376C250.1 376 249.8 376 249.6 376C249.5 376 249.4 376 249.2 376V355H250.3Z" fill="#C78300"/>
<path d="M255.6 355V375.8C255.2 375.8 254.9 375.8 254.5 375.8V355H255.6Z" fill="#C78300"/>
<path d="M260.8 355V375.5C260.4 375.5 260.1 375.6 259.7 375.6V355H260.8Z" fill="#C78300"/>
<path d="M266 354.9V374.8C265.6 374.9 265.3 374.9 264.9 374.9V354.9H266Z" fill="#C78300"/>
<path d="M271.3 354.9V373.9C270.9 374 270.6 374 270.2 374.1V354.9H271.3Z" fill="#C78300"/>
<path d="M276.5 354.9V372.6C276.1 372.7 275.8 372.8 275.4 372.9V354.9H276.5Z" fill="#C78300"/>
<path d="M281.7 354.9V370.8C281.3 371 281 371.1 280.6 371.3V355L281.7 354.9Z" fill="#C78300"/>
<path d="M287 354.9V367.7C286.7 368 286.3 368.3 285.9 368.6V355L287 354.9Z" fill="#C78300"/>
<path d="M289 355C289 361.2 271.4 366.2 249.6 366.2C246.6 366.2 243.7 366.1 240.9 365.9C237.4 365.7 234.1 365.3 231 364.9C228.2 364.5 225.7 364 223.4 363.4C222.7 363.2 222 363 221.3 362.8C218.4 362 216 361 214.1 359.9C213.7 359.7 213.4 359.5 213.1 359.3C211.2 358 210.1 356.5 210.1 355C210.1 354.9 210.1 354.7 210.1 354.6C210.9 348.6 228.2 343.8 249.5 343.8C254.7 343.8 259.7 344.1 264.3 344.6C265.2 344.7 266.1 344.8 266.9 344.9C270.6 345.4 274 346.1 276.9 346.9C277.5 347.1 278.2 347.3 278.8 347.5C280.9 348.2 282.8 348.9 284.3 349.7C285.9 350.5 287.1 351.4 287.8 352.4C288.4 353.1 288.7 353.8 288.8 354.5C289 354.7 289 354.9 289 355Z" fill="#F5E3B2"/>
<path d="M281.1 355C281.1 355.1 281.1 355.3 281.1 355.4C280.3 360.1 266.5 363.9 249.6 363.9C232.7 363.9 218.9 360.1 218.1 355.4C218.1 355.3 218.1 355.1 218.1 355C218.1 350.1 232.2 346.1 249.6 346.1C267 346.1 281.1 350.1 281.1 355Z" fill="#C78300"/>
<path d="M281.1 355.4C280.3 360.1 266.5 363.9 249.6 363.9C249.2 363.9 248.8 363.9 248.5 363.9C244.7 363.9 241.1 363.6 237.8 363.3C234.5 362.9 231.4 362.4 228.8 361.7C228.1 361.5 227.5 361.4 226.9 361.2C224.1 360.4 221.8 359.4 220.3 358.3C219.9 358 219.6 357.8 219.3 357.5C218.6 356.9 218.3 356.2 218.1 355.5C218.9 350.8 232.7 347 249.6 347C251.7 347 253.8 347.1 255.8 347.2C256.8 347.3 257.8 347.3 258.8 347.4C262.9 347.8 266.6 348.3 269.7 349.1C270.4 349.3 271 349.4 271.7 349.6C274.2 350.3 276.2 351.1 277.8 352C279.3 352.9 280.3 353.8 280.8 354.8C281 355 281 355.2 281.1 355.4Z" fill="#EBC665"/>
<path d="M254 360.1V361.6H247.4V360.2C242.7 360.1 238.1 359.8 235.3 359.3L238.9 357C242 357.5 246.2 357.9 249.8 357.9C253 357.9 254.1 357.7 254.1 357.4C254.1 356.2 235.8 357.2 235.8 353.7C235.8 352.2 239.7 350.9 247.4 350.6V349H254V350.4C257.5 350.5 260.9 350.7 263.6 351.2L260.3 353.5C257 353 254 352.8 251.1 352.8C247.8 352.8 246.8 353.1 246.8 353.4C246.8 354.5 265.1 353.6 265.1 357C265 358.5 261.3 359.7 254 360.1Z" fill="#C78300"/>
<path d="M253.8 359.6V361.1H247.2V359.7C242.5 359.6 237.9 359.3 235.1 358.8L238.7 356.5C241.8 357 246 357.4 249.6 357.4C252.8 357.4 253.9 357.2 253.9 356.9C253.9 355.7 235.6 356.7 235.6 353.2C235.6 351.7 239.5 350.4 247.2 350.1V348.6H253.8V350C257.3 350.1 260.7 350.3 263.4 350.8L260.1 353.1C256.8 352.6 253.8 352.4 250.9 352.4C247.6 352.4 246.6 352.7 246.6 353C246.6 354.1 264.9 353.2 264.9 356.6C264.8 358 261.1 359.2 253.8 359.6Z" fill="#F5E3B2"/>
<path d="M459.7 167V196.7C459.7 198.6 458.2 200.1 456.3 200.1H426.6C424.9 200.1 422.2 198.9 421 196.2C420.9 196.1 420.9 196 420.8 195.8C420.7 195.6 420.7 195.4 420.6 195.3C420.6 195.3 420.6 195.3 420.6 195.2V195.1L420.5 171.7V164.8C420.5 163 421.8 161.6 423.6 161.4C423.7 161.4 423.8 161.4 424 161.4L454.3 161.5C454.4 161.5 454.6 161.5 454.7 161.5C457.8 161.9 459.7 165.2 459.7 167Z" fill="#7869CF"/>
<path d="M457.2 164.8V194.5C457.2 196.4 455.7 197.9 453.8 197.9H424.1C422.8 197.9 421.7 197.2 421.1 196.1C421 196 421 195.9 420.9 195.7C420.8 195.5 420.8 195.3 420.7 195.2C420.7 195.2 420.7 195.2 420.7 195.1V195C420.7 194.8 420.6 194.6 420.6 194.4V164.7C420.6 162.9 421.9 161.5 423.7 161.3C423.8 161.3 423.9 161.3 424.1 161.3H453.8C454.2 161.3 454.5 161.3 454.8 161.5C456.2 162 457.2 163.3 457.2 164.8Z" fill="#9C93D6"/>
<path d="M441.1 189.7V192.7H437.3V189.9C434.6 189.7 432.1 189 430.5 188L432.6 183.4C434.4 184.5 436.7 185.1 438.7 185.2C440.5 185.2 441.1 184.8 441.1 184.2C441.1 181.9 430.8 183.7 430.8 176.7C430.8 173.7 433 171.2 437.4 170.6V167.7H441.2V170.6C443.2 170.8 445.1 171.3 446.6 172.2L444.7 176.7C442.9 175.8 441.1 175.3 439.5 175.3C437.7 175.3 437.1 175.8 437.1 176.5C437.1 178.7 447.4 177 447.4 183.8C447.3 186.6 445.2 189 441.1 189.7Z" fill="white"/>
<path d="M477.3 312.3L414.1 312.2V390.7L477.3 390.9V312.3Z" fill="#6A53A4"/>
<path d="M430.3 322C430.9 322 431.5 321.6 431.5 320.9C431.9 316.9 433.6 303.7 440.1 299C441.9 297.7 443.8 297.2 446.1 297.4C457.5 298.5 459.2 316.4 459.5 321.1C459.5 321.7 460.1 322.2 460.7 322.2C461.4 322.2 461.9 321.6 461.9 320.9C461.6 315.7 459.8 296.6 446.4 295.3C443.5 295 440.9 295.7 438.6 297.4C431.4 302.7 429.6 316.4 429.2 320.7C429.1 321.4 429.6 322 430.3 322Z" fill="#9C93D6"/>
<path d="M471.8 312.3L408.6 312.2V390.7L471.8 390.9V312.3Z" fill="#7869CF"/>
<path d="M427.4 321.6C427.4 322.9 426.4 323.9 425.1 323.9C423.8 323.9 422.8 322.9 422.8 321.6C422.8 320.3 423.8 319.3 425.1 319.3C426.4 319.4 427.4 320.4 427.4 321.6Z" fill="#6A53A4"/>
<path d="M457.9 321.6C457.9 322.9 456.9 323.9 455.6 323.9C454.3 323.9 453.3 322.9 453.3 321.6C453.3 320.3 454.3 319.3 455.6 319.3C456.9 319.4 457.9 320.4 457.9 321.6Z" fill="#6A53A4"/>
<path d="M425.2 322.2C425.8 322.2 426.4 321.8 426.4 321.1C426.8 317.1 428.5 303.9 435 299.2C436.8 297.9 438.7 297.4 441 297.6C452.4 298.7 454.1 316.6 454.4 321.3C454.4 321.9 455 322.4 455.6 322.4C456.3 322.4 456.8 321.8 456.8 321.1C456.5 315.9 454.7 296.8 441.3 295.5C438.4 295.2 435.8 295.9 433.5 297.6C426.3 302.9 424.5 316.6 424.1 320.9C424 321.6 424.5 322.2 425.2 322.2Z" fill="#D0CEE7"/>
</svg>
