<svg width="96" height="25" viewBox="0 0 96 25" fill="none" xmlns="http://www.w3.org/2000/svg">
<path d="M51.2093 6.2344C50.4666 6.2344 49.8404 5.96138 49.3453 5.42393C48.8542 4.90153 48.58 4.18134 48.5923 3.44611C48.5923 2.66144 48.846 1.99715 49.3453 1.47045C49.8384 0.932998 50.4645 0.659973 51.2073 0.659973C51.9418 0.659973 52.568 0.932998 53.0713 1.47045C53.5706 2.01435 53.8243 2.67863 53.8243 3.44611C53.8161 4.23294 53.5624 4.89723 53.0713 5.42178C52.5782 5.96353 51.9521 6.2344 51.2093 6.2344ZM29.1087 6.2344C28.3823 6.2344 27.7521 5.96568 27.2365 5.43468C26.7249 4.90583 26.4651 4.23724 26.4651 3.44826C26.4651 2.65929 26.7249 1.9907 27.2365 1.46185C27.7419 0.930848 28.3721 0.662123 29.1087 0.662123C29.4689 0.662123 29.8187 0.737366 30.1543 0.890002C30.4837 1.03834 30.7518 1.24042 30.9503 1.48765L30.9994 1.54999L30.4449 2.12184L30.3876 2.05089C30.0745 1.65963 29.6551 1.4683 29.1005 1.4683C28.6054 1.4683 28.1736 1.65318 27.8176 2.01865C27.4595 2.38626 27.2774 2.86782 27.2774 3.45041C27.2774 4.03301 27.4595 4.51456 27.8176 4.88218C28.1736 5.24764 28.6054 5.43253 29.1005 5.43253C29.6285 5.43253 30.0725 5.24764 30.4183 4.88218C30.6229 4.6672 30.7497 4.36623 30.7948 3.98571H29.0166V3.18169H31.558L31.5682 3.25478C31.5866 3.39022 31.605 3.52995 31.605 3.65894C31.605 4.40062 31.3922 5.00042 30.9707 5.44327C30.4919 5.96783 29.8658 6.2344 29.1087 6.2344ZM58.4936 6.12046H57.71L55.3098 2.08529L55.3303 2.81192V6.11831H54.5466V0.776063H55.4408L55.4653 0.816909L57.7222 4.61775L57.7018 3.89327V0.776063H58.4936V6.12046ZM45.3205 6.12046H44.5265V1.58009H43.1495V0.776063H46.6955V1.58009H45.3184V6.12046H45.3205ZM42.5029 6.12046H41.711V0.776063H42.5029V6.12046ZM38.0525 6.12046H37.2606V1.58009H35.8836V0.776063H39.4296V1.58009H38.0525V6.12046ZM35.3823 6.11186H32.3458V0.776063H35.3823V1.58009H33.1397V3.04625H35.1633V3.84168H33.1397V5.30784H35.3823V6.11186ZM49.9264 4.87143C50.2803 5.24334 50.71 5.43038 51.2093 5.43038C51.7229 5.43038 52.1424 5.24764 52.4922 4.87143C52.8401 4.50596 53.0161 4.02656 53.0161 3.44826C53.0161 2.86997 52.8401 2.38841 52.4943 2.0251C52.1403 1.65318 51.7086 1.46615 51.2113 1.46615C50.6978 1.46615 50.2783 1.64888 49.9305 2.0251C49.5826 2.39056 49.4066 2.86997 49.4066 3.44826C49.4066 4.02656 49.5806 4.50811 49.9264 4.87143Z" fill="white"/>
<path fill-rule="evenodd" clip-rule="evenodd" d="M48.5187 13.5825C46.585 13.5825 45.0177 15.1239 45.0177 17.25C45.0177 19.3568 46.5953 20.9176 48.5187 20.9176C50.4523 20.9176 52.0197 19.3654 52.0197 17.25C52.0197 15.1239 50.4523 13.5825 48.5187 13.5825ZM48.5187 19.4643C47.4608 19.4643 46.5503 18.5442 46.5503 17.2414C46.5503 15.9193 47.4629 15.0185 48.5187 15.0185C49.5765 15.0185 50.4871 15.9193 50.4871 17.2414C50.4891 18.5528 49.5765 19.4643 48.5187 19.4643ZM40.8803 13.5825C38.9467 13.5825 37.3793 15.1239 37.3793 17.25C37.3793 19.3568 38.9569 20.9176 40.8803 20.9176C42.814 20.9176 44.3813 19.3654 44.3813 17.25C44.3813 15.1239 42.8119 13.5825 40.8803 13.5825ZM40.8803 19.4643C39.8225 19.4643 38.9119 18.5442 38.9119 17.2414C38.9119 15.9193 39.8245 15.0185 40.8803 15.0185C41.9382 15.0185 42.8487 15.9193 42.8487 17.2414C42.8487 18.5528 41.9382 19.4643 40.8803 19.4643ZM31.7913 14.7025V16.2547H35.3373C35.2288 17.1253 34.9546 17.7681 34.5352 18.2088C34.0154 18.7549 33.2133 19.3482 31.7994 19.3482C29.6203 19.3482 27.9158 17.4994 27.9158 15.2099C27.9158 12.9203 29.6203 11.0715 31.7994 11.0715C32.976 11.0715 33.8333 11.5595 34.4697 12.1829L35.5173 11.0822C34.6334 10.1922 33.4568 9.51074 31.8076 9.51074C28.8182 9.51074 26.3096 12.069 26.3096 15.2013C26.3096 18.3421 28.8161 20.8918 31.8076 20.8918C33.4221 20.8918 34.6334 20.3371 35.591 19.2923C36.567 18.2669 36.876 16.8201 36.876 15.6527C36.876 15.2894 36.8494 14.9626 36.7941 14.6853H31.7892C31.7913 14.6832 31.7913 14.7025 31.7913 14.7025ZM68.9681 15.9107C68.6755 15.0873 67.7915 13.5739 65.9786 13.5739C64.1821 13.5739 62.6884 15.0594 62.6884 17.2414C62.6884 19.3009 64.1657 20.909 66.1525 20.909C67.7486 20.909 68.6775 19.8835 69.0602 19.2816L67.8754 18.4475C67.4826 19.0601 66.9362 19.4622 66.1607 19.4622C65.3771 19.4622 64.8287 19.0881 64.4645 18.3507L69.1318 16.3192C69.1318 16.3213 68.9681 15.9107 68.9681 15.9107ZM64.2087 17.1361C64.1719 15.7194 65.2563 14.9992 66.0318 14.9992C66.6436 14.9992 67.1531 15.3152 67.327 15.7753L64.2087 17.1361ZM60.4171 20.6897H61.9497V9.9149H60.4171V20.6897ZM57.9004 14.3972H57.8451C57.4993 13.9651 56.8425 13.5739 56.0036 13.5739C54.2623 13.5739 52.6581 15.1841 52.6581 17.2522C52.6581 19.3117 54.2541 20.9025 56.0036 20.9025C56.8323 20.9025 57.4993 20.5091 57.8451 20.0684H57.9004V20.5951C57.9004 21.9946 57.1883 22.7492 56.0404 22.7492C55.1012 22.7492 54.518 22.0398 54.2807 21.4464L52.9486 22.0312C53.3313 22.9986 54.3523 24.196 56.0383 24.196C57.8349 24.196 59.3572 23.0846 59.3572 20.3737V13.7931H57.9085V14.3972C57.9106 14.3972 57.9004 14.3972 57.9004 14.3972ZM56.1407 19.4643C55.0828 19.4643 54.1988 18.5356 54.1988 17.2522C54.1988 15.958 55.0828 15.0207 56.1407 15.0207C57.1883 15.0207 58.0006 15.9687 58.0006 17.2522C58.0108 18.5356 57.1903 19.4643 56.1407 19.4643ZM76.144 9.9149H72.4793V20.6897H74.0119V16.6094H76.146C77.8423 16.6094 79.5099 15.3173 79.5099 13.2664C79.5099 11.2155 77.8484 9.9149 76.144 9.9149ZM76.189 15.1045H74.0098V11.4069H76.189C77.3369 11.4069 77.9855 12.4022 77.9855 13.2557C77.9855 14.1006 77.3287 15.1045 76.189 15.1045ZM85.6525 13.5631C84.5394 13.5631 83.3915 14.0812 82.9168 15.2099L84.2755 15.8032C84.5681 15.2099 85.1041 15.0078 85.6709 15.0078C86.4649 15.0078 87.267 15.5065 87.2854 16.3965V16.5105C87.0112 16.3471 86.4096 16.0977 85.6894 16.0977C84.2223 16.0977 82.7347 16.9404 82.7347 18.5205C82.7347 19.9674 83.9378 20.8961 85.2781 20.8961C86.3073 20.8961 86.8741 20.4081 87.2281 19.8427H87.2833V20.6768H88.7607V16.5492C88.7607 14.6273 87.402 13.5631 85.6525 13.5631ZM85.4602 19.4643C84.9589 19.4643 84.257 19.2063 84.257 18.5442C84.257 17.7101 85.1328 17.3941 85.8797 17.3941C86.5549 17.3941 86.8741 17.5467 87.2751 17.7574C87.1646 18.7248 86.3871 19.4557 85.4602 19.4643ZM94.1503 13.7931L92.3906 18.4668H92.3353L90.5122 13.7931H88.863L91.5987 20.3264L90.0395 23.9574H91.6355L95.8445 13.7931H94.1503ZM80.355 20.6897H81.8876V9.9149H80.355V20.6897Z" fill="white"/>
<path fill-rule="evenodd" clip-rule="evenodd" d="M0.835858 0.776494C1.0797 0.553358 1.44632 0.566566 1.67504 0.806727L11.8486 11.4891C11.9641 11.6103 12.029 11.7748 12.029 11.9464V12.185C12.029 12.3565 11.9641 12.5209 11.8487 12.6422L1.68336 23.3224C1.45466 23.5627 1.08795 23.576 0.844048 23.3528L0.780617 23.2947C0.769963 23.285 0.759632 23.2748 0.749642 23.2644C0.350071 22.8445 0.186768 22.2426 0.186768 21.6011V2.53888C0.186768 1.89284 0.351869 1.30533 0.725522 0.88229C0.740342 0.865512 0.755999 0.849572 0.772427 0.834539L0.835858 0.776494ZM1.42357 2.37085C1.41965 2.42321 1.41754 2.47915 1.41754 2.53888V21.6011C1.41754 21.6603 1.4196 21.7154 1.4234 21.7668L10.6568 12.0658L1.42357 2.37085Z" fill="white"/>
<path fill-rule="evenodd" clip-rule="evenodd" d="M14.3605 7.92486C14.5615 7.71368 14.874 7.67462 15.1166 7.83035L15.1819 7.8723L19.1819 10.2609C19.1822 10.2611 19.1825 10.2613 19.1829 10.2615C19.8694 10.6681 20.3562 11.298 20.3562 12.0657C20.3562 12.8326 19.8702 13.4645 19.1848 13.8753L19.1839 13.8758L15.1819 16.2656L15.1166 16.3075C14.874 16.4633 14.5615 16.4242 14.3605 16.213L10.97 12.6508C10.8546 12.5296 10.7898 12.3651 10.7898 12.1936V11.9443C10.7898 11.7728 10.8546 11.6083 10.97 11.4871L14.3605 7.92486ZM14.8973 9.18969L12.1568 12.0689L14.8973 14.9482L18.5749 12.7521C18.575 12.752 18.5752 12.7519 18.5753 12.7519C19.0374 12.4748 19.1254 12.2017 19.1254 12.0657C19.1254 11.9309 19.0387 11.6603 18.5778 11.3875L18.5758 11.3863L14.8973 9.18969Z" fill="white"/>
<path fill-rule="evenodd" clip-rule="evenodd" d="M11.4052 11.4224C11.5684 11.4224 11.7249 11.4905 11.8403 11.6117L15.3045 15.2513C15.4403 15.394 15.5049 15.595 15.4792 15.795C15.4536 15.9949 15.3405 16.1708 15.1736 16.2705L3.18028 23.4387C2.34123 23.9296 1.36836 23.9791 0.726616 23.257C0.500277 23.0023 0.506761 22.605 0.741278 22.3586L10.9701 11.6117C11.0855 11.4905 11.242 11.4224 11.4052 11.4224ZM2.47194 22.369C2.50649 22.3514 2.54223 22.3318 2.57916 22.3103L13.8634 15.5659L11.4052 12.9833L2.47194 22.369Z" fill="white"/>
<path fill-rule="evenodd" clip-rule="evenodd" d="M3.18545 0.712796C3.1857 0.712945 3.18594 0.713095 3.18619 0.713244L15.1733 7.86695C15.3403 7.96662 15.4535 8.14251 15.4792 8.34249C15.5049 8.54248 15.4403 8.74362 15.3045 8.88632L11.8403 12.5259C11.6001 12.7783 11.2106 12.7784 10.9703 12.5262L0.741496 1.79006C0.507239 1.54419 0.500157 1.14764 0.72547 0.892707C1.36164 0.172898 2.33643 0.203397 3.18545 0.712796ZM2.47016 1.77665L11.405 11.1546L13.863 8.57212L2.57556 1.83597C2.53928 1.81419 2.50416 1.79447 2.47016 1.77665Z" fill="white"/>
</svg>
