<svg width="117" height="29" viewBox="0 0 117 29" fill="none" xmlns="http://www.w3.org/2000/svg">
<path d="M62.4114 7.23184C61.5062 7.23184 60.7431 6.91513 60.1396 6.29169C59.5411 5.6857 59.2069 4.85029 59.2219 3.99742C59.2219 3.0872 59.5311 2.31663 60.1396 1.70565C60.7406 1.08221 61.5037 0.765503 62.4089 0.765503C63.3042 0.765503 64.0673 1.08221 64.6807 1.70565C65.2892 2.33658 65.5984 3.10715 65.5984 3.99742C65.5885 4.91014 65.2792 5.68072 64.6807 6.2892C64.0797 6.91762 63.3166 7.23184 62.4114 7.23184ZM35.4763 7.23184C34.591 7.23184 33.823 6.92012 33.1945 6.30416C32.5711 5.69069 32.2544 4.91513 32.2544 3.99992C32.2544 3.08471 32.5711 2.30914 33.1945 1.69568C33.8105 1.07972 34.5786 0.767997 35.4763 0.767997C35.9152 0.767997 36.3417 0.855279 36.7506 1.03234C37.1521 1.20441 37.4788 1.43882 37.7207 1.7256L37.7806 1.79792L37.1048 2.46126L37.0349 2.37897C36.6534 1.9251 36.1422 1.70316 35.4664 1.70316C34.8629 1.70316 34.3367 1.91762 33.9028 2.34156C33.4664 2.768 33.2444 3.3266 33.2444 4.00241C33.2444 4.67822 33.4664 5.23683 33.9028 5.66326C34.3367 6.0872 34.8629 6.30166 35.4664 6.30166C36.1097 6.30166 36.6509 6.0872 37.0723 5.66326C37.3217 5.41388 37.4763 5.06476 37.5312 4.62336H35.3641V3.69069H38.4614L38.4738 3.77548C38.4963 3.93259 38.5187 4.09468 38.5187 4.24431C38.5187 5.10466 38.2594 5.80042 37.7456 6.31413C37.1621 6.92261 36.399 7.23184 35.4763 7.23184ZM71.2892 7.09967H70.3341L67.4089 2.41887L67.4338 3.26176V7.09718H66.4787V0.900167H67.5685L67.5984 0.947548L70.349 5.35653L70.3241 4.51613V0.900167H71.2892V7.09967ZM55.2344 7.09967H54.2668V1.83284H52.5885V0.900167H56.9102V1.83284H55.2319V7.09967H55.2344ZM51.8005 7.09967H50.8354V0.900167H51.8005V7.09967ZM46.3765 7.09967H45.4115V1.83284H43.7332V0.900167H48.0548V1.83284H46.3765V7.09967ZM43.1222 7.08969H39.4215V0.900167H43.1222V1.83284H40.389V3.53358H42.8554V4.45628H40.389V6.15703H43.1222V7.08969ZM60.8478 5.65079C61.2792 6.08221 61.8029 6.29917 62.4114 6.29917C63.0373 6.29917 63.5486 6.0872 63.975 5.65079C64.3989 5.22685 64.6134 4.67074 64.6134 3.99992C64.6134 3.32909 64.3989 2.77049 63.9775 2.34904C63.5461 1.91762 63.0199 1.70067 62.4139 1.70067C61.788 1.70067 61.2768 1.91264 60.8528 2.34904C60.4289 2.77298 60.2144 3.32909 60.2144 3.99992C60.2144 4.67074 60.4264 5.22934 60.8478 5.65079Z" fill="#BBBCC1"/>
<path fill-rule="evenodd" clip-rule="evenodd" d="M59.1323 15.7557C56.7757 15.7557 54.8655 17.5437 54.8655 20.01C54.8655 22.4539 56.7882 24.2644 59.1323 24.2644C61.4889 24.2644 63.3991 22.4639 63.3991 20.01C63.3991 17.5437 61.4889 15.7557 59.1323 15.7557ZM59.1323 22.5786C57.843 22.5786 56.7333 21.5113 56.7333 20.0001C56.7333 18.4664 57.8455 17.4215 59.1323 17.4215C60.4216 17.4215 61.5313 18.4664 61.5313 20.0001C61.5338 21.5213 60.4216 22.5786 59.1323 22.5786ZM49.8231 15.7557C47.4664 15.7557 45.5562 17.5437 45.5562 20.01C45.5562 22.4539 47.4789 24.2644 49.8231 24.2644C52.1797 24.2644 54.0899 22.4639 54.0899 20.01C54.0899 17.5437 52.1772 15.7557 49.8231 15.7557ZM49.8231 22.5786C48.5338 22.5786 47.4241 21.5113 47.4241 20.0001C47.4241 18.4664 48.5363 17.4215 49.8231 17.4215C51.1123 17.4215 52.2221 18.4664 52.2221 20.0001C52.2221 21.5213 51.1123 22.5786 49.8231 22.5786ZM38.7457 17.0549V18.8554H43.0674C42.9353 19.8654 42.6011 20.611 42.0899 21.1222C41.4565 21.7557 40.4789 22.4439 38.7557 22.4439C36.0999 22.4439 34.0225 20.2993 34.0225 17.6434C34.0225 14.9876 36.0999 12.8429 38.7557 12.8429C40.1896 12.8429 41.2345 13.409 42.0101 14.1322L43.2869 12.8554C42.2096 11.823 40.7757 11.0325 38.7657 11.0325C35.1223 11.0325 32.0649 14.0001 32.0649 17.6335C32.0649 21.2769 35.1198 24.2345 38.7657 24.2345C40.7333 24.2345 42.2096 23.5911 43.3767 22.3791C44.5662 21.1896 44.9428 19.5113 44.9428 18.1572C44.9428 17.7357 44.9103 17.3567 44.843 17.035H38.7433C38.7457 17.0325 38.7457 17.0549 38.7457 17.0549ZM84.055 18.4564C83.6984 17.5013 82.6211 15.7457 80.4116 15.7457C78.2221 15.7457 76.4016 17.4689 76.4016 20.0001C76.4016 22.3891 78.2021 24.2544 80.6236 24.2544C82.5687 24.2544 83.7009 23.0649 84.1672 22.3666L82.7233 21.3991C82.2445 22.1098 81.5787 22.5761 80.6335 22.5761C79.6784 22.5761 79.0101 22.1422 78.5662 21.2868L84.2545 18.9302C84.2545 18.9327 84.055 18.4564 84.055 18.4564ZM78.2545 19.8779C78.2096 18.2345 79.5313 17.3991 80.4764 17.3991C81.2221 17.3991 81.843 17.7656 82.055 18.2993L78.2545 19.8779ZM73.6335 24.0001H75.5014V11.5013H73.6335V24.0001ZM70.5662 16.7008H70.4989C70.0774 16.1996 69.2769 15.7457 68.2545 15.7457C66.1323 15.7457 64.1772 17.6135 64.1772 20.0125C64.1772 22.4016 66.1223 24.2469 68.2545 24.2469C69.2645 24.2469 70.0774 23.7906 70.4989 23.2794H70.5662V23.8903C70.5662 25.5138 69.6984 26.3891 68.2994 26.3891C67.1547 26.3891 66.444 25.5661 66.1547 24.8779L64.5313 25.5562C64.9976 26.6784 66.242 28.0674 68.2969 28.0674C70.4864 28.0674 72.3418 26.7781 72.3418 23.6335V16.0001H70.5762V16.7008C70.5787 16.7008 70.5662 16.7008 70.5662 16.7008ZM68.4216 22.5786C67.1323 22.5786 66.055 21.5013 66.055 20.0125C66.055 18.5113 67.1323 17.424 68.4216 17.424C69.6984 17.424 70.6884 18.5237 70.6884 20.0125C70.7009 21.5013 69.7009 22.5786 68.4216 22.5786ZM92.8006 11.5013H88.3343V24.0001H90.2021V19.2669H92.8031C94.8705 19.2669 96.9029 17.7681 96.9029 15.3891C96.9029 13.01 94.8779 11.5013 92.8006 11.5013ZM92.8555 17.5213H90.1996V13.232H92.8555C94.2545 13.232 95.045 14.3866 95.045 15.3766C95.045 16.3567 94.2445 17.5213 92.8555 17.5213ZM104.389 15.7332C103.033 15.7332 101.634 16.3342 101.055 17.6434L102.711 18.3317C103.067 17.6434 103.721 17.409 104.412 17.409C105.379 17.409 106.357 17.9876 106.379 19.02V19.1522C106.045 18.9626 105.312 18.6734 104.434 18.6734C102.646 18.6734 100.833 19.6509 100.833 21.4838C100.833 23.1621 102.299 24.2395 103.933 24.2395C105.187 24.2395 105.878 23.6734 106.309 23.0175H106.377V23.9851H108.177V19.1971C108.177 16.9676 106.521 15.7332 104.389 15.7332ZM104.155 22.5786C103.544 22.5786 102.688 22.2794 102.688 21.5113C102.688 20.5437 103.756 20.1771 104.666 20.1771C105.489 20.1771 105.878 20.3542 106.367 20.5986C106.232 21.7208 105.284 22.5686 104.155 22.5786ZM114.746 16.0001L112.601 21.4215H112.534L110.312 16.0001H108.302L111.636 23.5786L109.736 27.7906H111.681L116.811 16.0001H114.746ZM97.9328 24.0001H99.8006V11.5013H97.9328V24.0001Z" fill="#BBBCC1"/>
<path fill-rule="evenodd" clip-rule="evenodd" d="M1.01862 0.90075C1.3158 0.641913 1.76262 0.657234 2.04137 0.935821L14.4404 13.3273C14.5811 13.468 14.6602 13.6588 14.6602 13.8578V14.1346C14.6602 14.3336 14.5812 14.5243 14.4405 14.665L2.05151 27.054C1.77278 27.3327 1.32585 27.3481 1.0286 27.0892L0.951293 27.0219C0.938309 27.0106 0.925718 26.9988 0.913543 26.9867C0.426566 26.4997 0.227539 25.8014 0.227539 25.0573V2.94511C0.227539 2.19571 0.428756 1.5142 0.884146 1.02347C0.902207 1.00401 0.921289 0.985521 0.941312 0.968082L1.01862 0.90075ZM1.73489 2.7502C1.73012 2.81094 1.72754 2.87583 1.72754 2.94511V25.0573C1.72754 25.1259 1.73005 25.1899 1.73468 25.2495L12.9878 13.9964L1.73489 2.7502Z" fill="#BBBCC1"/>
<path fill-rule="evenodd" clip-rule="evenodd" d="M17.5018 9.19283C17.7467 8.94787 18.1276 8.90256 18.4232 9.0832L18.5028 9.13186L23.3777 11.9026C23.3781 11.9028 23.3786 11.9031 23.379 11.9033C24.2156 12.375 24.8089 13.1057 24.8089 13.9962C24.8089 14.8858 24.2166 15.6188 23.3813 16.0953L23.3802 16.0959L18.5028 18.8681L18.4232 18.9167C18.1276 19.0974 17.7467 19.0521 17.5018 18.8071L13.3696 14.6749C13.2289 14.5343 13.1499 14.3435 13.1499 14.1446V13.8553C13.1499 13.6564 13.2289 13.4657 13.3696 13.325L17.5018 9.19283ZM18.1559 10.66L14.8159 14L18.1559 17.3399L22.638 14.7924C22.6382 14.7923 22.6383 14.7922 22.6384 14.7922C23.2017 14.4708 23.3089 14.154 23.3089 13.9962C23.3089 13.8398 23.2033 13.5259 22.6416 13.2095L22.6391 13.2081L18.1559 10.66Z" fill="#BBBCC1"/>
<path fill-rule="evenodd" clip-rule="evenodd" d="M13.8999 13.25C14.0988 13.25 14.2896 13.329 14.4303 13.4697L18.6522 17.6916C18.8177 17.8571 18.8964 18.0903 18.8651 18.3222C18.8339 18.5541 18.6961 18.7581 18.4927 18.8738L3.8758 27.189C2.85321 27.7584 1.66752 27.8159 0.885396 26.9782C0.609545 26.6827 0.617447 26.2218 0.903264 25.936L13.3696 13.4697C13.5103 13.329 13.701 13.25 13.8999 13.25ZM3.01251 25.9481C3.05462 25.9276 3.09817 25.905 3.14319 25.88L16.8958 18.0565L13.8999 15.0607L3.01251 25.9481Z" fill="#BBBCC1"/>
<path fill-rule="evenodd" clip-rule="evenodd" d="M3.8821 0.826873C3.8824 0.827046 3.8827 0.827219 3.88301 0.827393L18.4923 9.12569C18.6958 9.24131 18.8337 9.44534 18.8651 9.67732C18.8965 9.9093 18.8177 10.1426 18.6522 10.3082L14.4303 14.5301C14.1375 14.8229 13.6628 14.823 13.3699 14.5304L0.90353 2.0765C0.618029 1.79129 0.609398 1.33129 0.883999 1.03557C1.65934 0.200591 2.84735 0.235969 3.8821 0.826873ZM3.01034 2.06095L13.8997 12.9394L16.8953 9.94369L3.1388 2.12976C3.09458 2.1045 3.05178 2.08161 3.01034 2.06095Z" fill="#BBBCC1"/>
</svg>
