<svg width="150" height="38" viewBox="0 0 150 38" fill="none" xmlns="http://www.w3.org/2000/svg">
<g clip-path="url(#clip0)">
<path d="M80.0144 9.31508C78.8538 9.31508 77.8755 8.90904 77.1018 8.10976C76.3345 7.33285 75.9061 6.26181 75.9253 5.16839C75.9253 4.00144 76.3217 3.01352 77.1018 2.23022C77.8723 1.43094 78.8506 1.0249 80.0112 1.0249C81.159 1.0249 82.1373 1.43094 82.9238 2.23022C83.7039 3.0391 84.1003 4.02701 84.1003 5.16839C84.0875 6.33854 83.6911 7.32646 82.9238 8.10656C82.1533 8.91224 81.175 9.31508 80.0144 9.31508ZM45.4822 9.31508C44.3473 9.31508 43.3626 8.91543 42.5569 8.12574C41.7576 7.33925 41.3516 6.34494 41.3516 5.17159C41.3516 3.99824 41.7576 3.00393 42.5569 2.21743C43.3466 1.42774 44.3313 1.0281 45.4822 1.0281C46.0449 1.0281 46.5916 1.14 47.116 1.367C47.6307 1.5876 48.0495 1.88813 48.3597 2.2558L48.4364 2.34852L47.57 3.19895L47.4805 3.09345C46.9913 2.51157 46.3359 2.22703 45.4695 2.22703C44.6958 2.22703 44.0212 2.50198 43.4649 3.04549C42.9054 3.5922 42.6208 4.30836 42.6208 5.17479C42.6208 6.04121 42.9054 6.75737 43.4649 7.30408C44.0212 7.84759 44.6958 8.12254 45.4695 8.12254C46.2943 8.12254 46.9881 7.84759 47.5284 7.30408C47.8481 6.98436 48.0463 6.53677 48.1167 5.97087H45.3384V4.77514H49.3092L49.3252 4.88385C49.354 5.08527 49.3827 5.29308 49.3827 5.48491C49.3827 6.58792 49.0502 7.47992 48.3916 8.13853C47.6435 8.91863 46.6652 9.31508 45.4822 9.31508ZM91.3962 9.14563H90.1717L86.4214 3.1446L86.4534 4.22524V9.14243H85.2289V1.19755H86.6261L86.6644 1.25829L90.1908 6.91083L90.1589 5.8334V1.19755H91.3962V9.14563ZM70.8131 9.14563H69.5726V2.39328H67.4209V1.19755H72.9615V2.39328H70.8099V9.14563H70.8131ZM66.4106 9.14563H65.1733V1.19755H66.4106V9.14563ZM59.4569 9.14563H58.2196V2.39328H56.0679V1.19755H61.6085V2.39328H59.4569V9.14563ZM55.2846 9.13284H50.5401V1.19755H55.2846V2.39328H51.7806V4.57372H54.9425V5.75666H51.7806V7.93711H55.2846V9.13284ZM78.0098 7.28809C78.5629 7.8412 79.2343 8.11935 80.0144 8.11935C80.8169 8.11935 81.4723 7.84759 82.019 7.28809C82.5625 6.74458 82.8375 6.03162 82.8375 5.17159C82.8375 4.31156 82.5625 3.5954 82.0222 3.05508C81.4691 2.50198 80.7945 2.22383 80.0176 2.22383C79.2151 2.22383 78.5597 2.49558 78.0162 3.05508C77.4727 3.5986 77.1977 4.31156 77.1977 5.17159C77.1977 6.03162 77.4695 6.74778 78.0098 7.28809Z" fill="#262830"/>
<path fill-rule="evenodd" clip-rule="evenodd" d="M75.8111 20.2429C72.7898 20.2429 70.3408 22.5352 70.3408 25.6972C70.3408 28.8304 72.8058 31.1515 75.8111 31.1515C78.8324 31.1515 81.2814 28.8432 81.2814 25.6972C81.2814 22.5352 78.8324 20.2429 75.8111 20.2429ZM75.8111 28.9902C74.1582 28.9902 72.7355 27.6219 72.7355 25.6844C72.7355 23.7182 74.1614 22.3786 75.8111 22.3786C77.464 22.3786 78.8867 23.7182 78.8867 25.6844C78.8899 27.6347 77.464 28.9902 75.8111 28.9902ZM63.8762 20.2429C60.8549 20.2429 58.4059 22.5352 58.4059 25.6972C58.4059 28.8304 60.8709 31.1515 63.8762 31.1515C66.8975 31.1515 69.3465 28.8432 69.3465 25.6972C69.3465 22.5352 66.8943 20.2429 63.8762 20.2429ZM63.8762 28.9902C62.2233 28.9902 60.8005 27.6219 60.8005 25.6844C60.8005 23.7182 62.2265 22.3786 63.8762 22.3786C65.5291 22.3786 66.9518 23.7182 66.9518 25.6844C66.9518 27.6347 65.5291 28.9902 63.8762 28.9902ZM49.6745 21.9086V24.2169H55.2151C55.0457 25.5118 54.6173 26.4677 53.9619 27.1231C53.1498 27.9352 51.8965 28.8176 49.6873 28.8176C46.2823 28.8176 43.6191 26.0681 43.6191 22.6631C43.6191 19.2582 46.2823 16.5086 49.6873 16.5086C51.5256 16.5086 52.8652 17.2344 53.8596 18.1615L55.4965 16.5246C54.1153 15.201 52.277 14.1875 49.7001 14.1875C45.0291 14.1875 41.1094 17.9921 41.1094 22.6503C41.1094 27.3213 45.0259 31.1131 49.7001 31.1131C52.2226 31.1131 54.1153 30.2883 55.6116 28.7345C57.1366 27.2094 57.6194 25.0578 57.6194 23.3217C57.6194 22.7814 57.5778 22.2954 57.4915 21.883H49.6713C49.6745 21.8798 49.6745 21.9086 49.6745 21.9086ZM107.763 23.7054C107.306 22.4809 105.925 20.2301 103.092 20.2301C100.285 20.2301 97.9513 22.4393 97.9513 25.6844C97.9513 28.7473 100.26 31.1387 103.364 31.1387C105.858 31.1387 107.309 29.6137 107.907 28.7185L106.056 27.478C105.442 28.3892 104.589 28.987 103.377 28.987C102.152 28.987 101.295 28.4307 100.726 27.3341L108.019 24.3128C108.019 24.316 107.763 23.7054 107.763 23.7054ZM100.327 25.5277C100.269 23.4208 101.964 22.3498 103.175 22.3498C104.131 22.3498 104.927 22.8198 105.199 23.504L100.327 25.5277ZM94.4025 30.8126H96.7971V14.7886H94.4025V30.8126ZM90.47 21.4546H90.3836C89.8433 20.812 88.8171 20.2301 87.5062 20.2301C84.7855 20.2301 82.2789 22.6247 82.2789 25.7004C82.2789 28.7632 84.7727 31.1291 87.5062 31.1291C88.8011 31.1291 89.8433 30.544 90.3836 29.8886H90.47V30.6719C90.47 32.7533 89.3574 33.8755 87.5638 33.8755C86.0963 33.8755 85.1851 32.8204 84.8142 31.938L82.7329 32.8076C83.3308 34.2463 84.9261 36.0271 87.5606 36.0271C90.3677 36.0271 92.7463 34.3742 92.7463 30.3426V20.5562H90.4828V21.4546C90.486 21.4546 90.47 21.4546 90.47 21.4546ZM87.7204 28.9902C86.0675 28.9902 84.6864 27.6091 84.6864 25.7004C84.6864 23.7757 86.0675 22.3818 87.7204 22.3818C89.3574 22.3818 90.6266 23.7917 90.6266 25.7004C90.6426 27.6091 89.3606 28.9902 87.7204 28.9902ZM118.976 14.7886H113.25V30.8126H115.644V24.7444H118.979C121.629 24.7444 124.235 22.823 124.235 19.7729C124.235 16.7228 121.639 14.7886 118.976 14.7886ZM119.046 22.5064H115.641V17.0074H119.046C120.84 17.0074 121.853 18.4876 121.853 19.7569C121.853 21.0134 120.827 22.5064 119.046 22.5064ZM133.833 20.2141C132.093 20.2141 130.3 20.9846 129.558 22.6631L131.681 23.5455C132.138 22.6631 132.976 22.3626 133.862 22.3626C135.102 22.3626 136.355 23.1043 136.384 24.4279V24.5974C135.956 24.3544 135.016 23.9835 133.89 23.9835C131.598 23.9835 129.274 25.2368 129.274 27.5867C129.274 29.7384 131.154 31.1195 133.248 31.1195C134.856 31.1195 135.741 30.3938 136.295 29.5529H136.381V30.7934H138.689V24.6549C138.689 21.7967 136.566 20.2141 133.833 20.2141ZM133.532 28.9902C132.749 28.9902 131.652 28.6066 131.652 27.6219C131.652 26.3814 133.021 25.9114 134.188 25.9114C135.243 25.9114 135.741 26.1384 136.368 26.4517C136.195 27.8904 134.981 28.9775 133.532 28.9902ZM147.11 20.5562L144.361 27.5068H144.275L141.426 20.5562H138.849L143.124 30.2723L140.687 35.6723H143.181L149.758 20.5562H147.11ZM125.555 30.8126H127.95V14.7886H125.555V30.8126Z" fill="#262830"/>
<path fill-rule="evenodd" clip-rule="evenodd" d="M1.30522 1.19838C1.68622 0.866535 2.25907 0.886178 2.61645 1.24334L18.5126 17.1299C18.693 17.3102 18.7944 17.5549 18.7944 17.81V18.1649C18.7944 18.4199 18.6931 18.6645 18.5128 18.8448L2.62944 34.7282C2.27209 35.0855 1.69911 35.1053 1.31802 34.7733L1.2189 34.687C1.20226 34.6725 1.18612 34.6575 1.17051 34.6419C0.546178 34.0175 0.291016 33.1223 0.291016 32.1684V3.81936C0.291016 2.85859 0.548986 1.98485 1.13282 1.35571C1.15597 1.33076 1.18044 1.30706 1.20611 1.2847L1.30522 1.19838ZM2.22352 3.56947C2.2174 3.64734 2.21409 3.73053 2.21409 3.81936V32.1684C2.21409 32.2563 2.21732 32.3383 2.22325 32.4147L16.6504 17.9876L2.22352 3.56947Z" fill="#262830"/>
<path fill-rule="evenodd" clip-rule="evenodd" d="M22.4367 11.829C22.7508 11.515 23.2391 11.4569 23.618 11.6885L23.7201 11.7508L29.97 15.3031C29.9706 15.3034 29.9711 15.3037 29.9716 15.304C31.0442 15.9087 31.8049 16.8455 31.8049 17.9872C31.8049 19.1277 31.0456 20.0675 29.9745 20.6784L29.9733 20.6791L23.7201 24.2332L23.618 24.2956C23.2391 24.5272 22.7508 24.4691 22.4367 24.155L17.1391 18.8574C16.9587 18.677 16.8574 18.4325 16.8574 18.1774V17.8066C16.8574 17.5516 16.9587 17.307 17.1391 17.1267L22.4367 11.829ZM23.2753 13.71L18.9933 17.992L23.2753 22.274L29.0217 19.0079C29.0219 19.0078 29.022 19.0077 29.0222 19.0077C29.7444 18.5956 29.8818 18.1895 29.8818 17.9872C29.8818 17.7866 29.7463 17.3843 29.0262 16.9786L29.023 16.9768L23.2753 13.71Z" fill="#262830"/>
<path fill-rule="evenodd" clip-rule="evenodd" d="M17.819 17.0308C18.074 17.0308 18.3186 17.1321 18.4989 17.3124L23.9117 22.7251C24.1238 22.9373 24.2248 23.2363 24.1847 23.5336C24.1446 23.8309 23.968 24.0925 23.7072 24.2408L4.96757 34.9012C3.65656 35.6312 2.13644 35.7049 1.13372 34.631C0.780066 34.2522 0.790197 33.6613 1.15663 33.2949L17.1391 17.3124C17.3194 17.1321 17.564 17.0308 17.819 17.0308ZM3.86079 33.3104C3.91478 33.2841 3.97061 33.2551 4.02832 33.2231L21.6599 23.193L17.819 19.3521L3.86079 33.3104Z" fill="#262830"/>
<path fill-rule="evenodd" clip-rule="evenodd" d="M4.97564 1.1036C4.97603 1.10382 4.97642 1.10404 4.97681 1.10427L23.7067 11.7431C23.9676 11.8913 24.1444 12.1529 24.1846 12.4503C24.2249 12.7477 24.1239 13.0469 23.9117 13.2591L18.4989 18.6718C18.1236 19.0472 17.515 19.0474 17.1395 18.6722L1.15697 2.70569C0.790943 2.34003 0.779878 1.75029 1.13193 1.37116C2.12595 0.300674 3.64905 0.346032 4.97564 1.1036ZM3.85801 2.68575L17.8187 16.6325L21.6593 12.7918L4.0227 2.77397C3.96601 2.74158 3.91113 2.71224 3.85801 2.68575Z" fill="#262830"/>
</g>
<defs>
<clipPath id="clip0">
<rect width="150" height="37.1795" fill="white" transform="translate(0 0.043457)"/>
</clipPath>
</defs>
</svg>
