<svg width="199" height="25" viewBox="0 0 199 25" fill="none" xmlns="http://www.w3.org/2000/svg">
<g clip-path="url(#clip0)">
<path d="M40.4526 20.409C40.2755 20.409 40.149 20.3578 40.0225 20.2299C39.8961 20.1019 39.8455 19.9484 39.8455 19.7949V4.6968C39.8455 4.51767 39.8961 4.38972 40.0225 4.26177C40.149 4.13382 40.3008 4.08264 40.4526 4.08264H43.4632C43.6403 4.08264 43.7668 4.13382 43.8933 4.26177C44.0198 4.38972 44.0704 4.54326 44.0704 4.6968V19.7693C44.0704 19.9484 44.0198 20.0763 43.8933 20.2043C43.7668 20.3322 43.615 20.3834 43.4632 20.3834H40.4526V20.409ZM71.393 19.6413C71.4436 19.6925 71.4689 19.7949 71.4689 19.8972C71.4689 20.0252 71.4183 20.1531 71.3171 20.2811C71.2159 20.3834 71.1147 20.409 70.9629 20.409H67.2946C67.0669 20.409 66.9151 20.3578 66.7633 20.2811C66.6368 20.1787 66.485 20.0508 66.3585 19.8716L61.9819 14.3186V19.7693C61.9819 19.9484 61.9313 20.0763 61.8048 20.2043C61.6783 20.3322 61.5265 20.3834 61.3747 20.3834H58.3641C58.1871 20.3834 58.0606 20.3322 57.9341 20.2043C57.8076 20.0763 57.757 19.9228 57.757 19.7693V4.6968C57.757 4.51767 57.8076 4.38972 57.9341 4.26177C58.0606 4.13382 58.2124 4.08264 58.3641 4.08264H61.3747C61.5518 4.08264 61.6783 4.13382 61.8048 4.26177C61.9313 4.38972 61.9819 4.54326 61.9819 4.6968V9.61006L66.0297 4.59444C66.1056 4.49208 66.2068 4.38972 66.3333 4.26177C66.4598 4.13382 66.6621 4.08264 66.9657 4.08264H70.5581C70.6846 4.08264 70.8111 4.13382 70.9123 4.23618C71.0135 4.33854 71.0641 4.4409 71.0641 4.59444C71.0641 4.6968 71.0388 4.79916 70.9882 4.85034L65.296 11.8876L71.393 19.6413ZM95.1738 16.6729C95.3509 16.6729 95.4774 16.7241 95.6039 16.852C95.7304 16.98 95.781 17.1335 95.781 17.287V19.7693C95.781 19.9484 95.7304 20.0763 95.6039 20.2043C95.4774 20.3322 95.3256 20.3834 95.1738 20.3834H84.2448C84.0677 20.3834 83.9412 20.3322 83.8147 20.2043C83.6882 20.0763 83.6376 19.9228 83.6376 19.7693V4.6968C83.6376 4.51767 83.6882 4.38972 83.8147 4.26177C83.9412 4.13382 84.093 4.08264 84.2448 4.08264H94.9967C95.1738 4.08264 95.3003 4.13382 95.4268 4.26177C95.5533 4.38972 95.6039 4.54326 95.6039 4.6968V7.17902C95.6039 7.35815 95.5533 7.4861 95.4268 7.61405C95.3003 7.742 95.1485 7.79318 94.9967 7.79318H87.8878V10.301H94.4908C94.6679 10.301 94.7944 10.3522 94.9208 10.4801C95.0473 10.6081 95.0979 10.7616 95.0979 10.9152V13.3974C95.0979 13.5765 95.0473 13.7045 94.9208 13.8324C94.7944 13.9604 94.6426 14.0115 94.4908 14.0115H87.8878V16.6217H95.1738V16.6729ZM120.371 16.6729C120.548 16.6729 120.7 16.7241 120.801 16.852C120.928 16.98 120.979 17.1335 120.979 17.287V19.7693C120.979 19.9484 120.903 20.0763 120.801 20.2043C120.675 20.3322 120.523 20.3834 120.371 20.3834H109.442C109.265 20.3834 109.113 20.3322 109.012 20.2043C108.886 20.0763 108.835 19.9228 108.835 19.7693V4.6968C108.835 4.51767 108.911 4.38972 109.012 4.26177C109.139 4.13382 109.291 4.08264 109.442 4.08264H120.194C120.371 4.08264 120.523 4.13382 120.624 4.26177C120.751 4.38972 120.801 4.54326 120.801 4.6968V7.17902C120.801 7.35815 120.726 7.4861 120.624 7.61405C120.498 7.742 120.346 7.79318 120.194 7.79318H113.085V10.301H119.688C119.865 10.301 119.992 10.3522 120.118 10.4801C120.245 10.6081 120.295 10.7616 120.295 10.9152V13.3974C120.295 13.5765 120.245 13.7045 120.118 13.8324C119.992 13.9604 119.84 14.0115 119.688 14.0115H113.085V16.6217H120.371V16.6729ZM141.243 4.08264C142.23 4.08264 143.115 4.21059 143.899 4.4409C144.683 4.67121 145.341 5.00388 145.898 5.4645C146.454 5.92512 146.884 6.48809 147.163 7.17902C147.466 7.86995 147.618 8.66324 147.618 9.55889C147.618 10.4801 147.466 11.2734 147.163 11.9643C146.859 12.6553 146.454 13.2182 145.898 13.6789C145.341 14.1395 144.683 14.4722 143.899 14.7025C143.115 14.9328 142.23 15.0607 141.243 15.0607H138.283V19.8204C138.283 19.9996 138.207 20.1275 138.106 20.2555C137.979 20.3834 137.828 20.4346 137.676 20.4346H134.665C134.488 20.4346 134.336 20.3834 134.235 20.2555C134.109 20.1275 134.058 19.974 134.058 19.8204V4.6968C134.058 4.51767 134.134 4.38972 134.235 4.26177C134.362 4.13382 134.513 4.08264 134.665 4.08264H141.243ZM138.308 11.3758H141.142C141.799 11.3758 142.331 11.2478 142.735 10.9663C143.166 10.6593 143.368 10.1986 143.368 9.5333C143.368 8.86796 143.166 8.40734 142.735 8.12585C142.305 7.81877 141.799 7.69082 141.142 7.69082H138.308V11.3758ZM171.778 16.6729C171.956 16.6729 172.107 16.7241 172.209 16.852C172.335 16.98 172.386 17.1335 172.386 17.287V19.7693C172.386 19.9484 172.31 20.0763 172.209 20.2043C172.082 20.3322 171.93 20.3834 171.778 20.3834H160.849C160.672 20.3834 160.521 20.3322 160.419 20.2043C160.293 20.0763 160.242 19.9228 160.242 19.7693V4.6968C160.242 4.51767 160.318 4.38972 160.419 4.26177C160.546 4.13382 160.698 4.08264 160.849 4.08264H171.601C171.778 4.08264 171.93 4.13382 172.031 4.26177C172.158 4.38972 172.209 4.54326 172.209 4.6968V7.17902C172.209 7.35815 172.133 7.4861 172.031 7.61405C171.905 7.742 171.753 7.79318 171.601 7.79318H164.492V10.301H171.095C171.272 10.301 171.399 10.3522 171.525 10.4801C171.652 10.6081 171.703 10.7616 171.703 10.9152V13.3974C171.703 13.5765 171.652 13.7045 171.525 13.8324C171.399 13.9604 171.247 14.0115 171.095 14.0115H164.492V16.6217H171.778V16.6729ZM192.321 4.08264C193.333 4.08264 194.244 4.185 195.053 4.41531C195.863 4.64562 196.521 4.9527 197.077 5.38773C197.659 5.82276 198.064 6.38574 198.367 7.07666C198.671 7.742 198.823 8.53529 198.823 9.43094C198.823 10.6081 198.595 11.5805 198.114 12.3482C197.634 13.1159 196.951 13.7045 196.091 14.0883L198.949 19.6413C199 19.7437 199.025 19.8204 199.025 19.8972C199.025 20.0252 198.975 20.1531 198.873 20.2811C198.772 20.3834 198.671 20.409 198.519 20.409H195.382C195.079 20.409 194.851 20.3322 194.699 20.2043C194.573 20.0763 194.471 19.9228 194.396 19.7949L191.84 14.8048H189.715V19.7949C189.715 19.974 189.639 20.1019 189.538 20.2299C189.412 20.3578 189.26 20.409 189.108 20.409H186.098C185.92 20.409 185.769 20.3578 185.667 20.2299C185.541 20.1019 185.49 19.9484 185.49 19.7949V4.6968C185.49 4.51767 185.566 4.38972 185.667 4.26177C185.794 4.13382 185.946 4.08264 186.098 4.08264H192.321ZM189.715 11.1455H192.321C192.979 11.1455 193.51 11.0175 193.915 10.7616C194.345 10.5057 194.573 10.0707 194.573 9.40535C194.573 8.74001 194.37 8.30498 193.915 8.04908C193.51 7.79318 192.979 7.66523 192.321 7.66523H189.715V11.1455Z" fill="#BBBCC1"/>
<path d="M4.27549 8.84228C4.27549 8.40725 3.94661 8.07458 3.51653 8.07458H0.758963C0.328884 8.07458 0 8.40725 0 8.84228V23.6588C0 24.0939 0.328884 24.4265 0.758963 24.4265H3.51653C3.94661 24.4265 4.27549 24.0939 4.27549 23.6588V8.84228Z" fill="#BBBCC1"/>
<path d="M19.5559 20.1274V23.6844C19.5559 24.1195 19.2271 24.4521 18.797 24.4521H0.758963C0.328884 24.4521 0 24.1195 0 23.6844V20.8951C0 20.4601 0.328884 20.1274 0.758963 20.1274H19.5559Z" fill="#BBBCC1"/>
<path d="M19.556 20.1274H15.2805V8.91907C15.2805 8.48404 15.6094 8.15137 16.0395 8.15137H18.797C19.2271 8.15137 19.556 8.48404 19.556 8.91907V20.1274Z" fill="#BBBCC1"/>
<path d="M0 1.2677C0 0.832669 0.328884 0.5 0.758963 0.5H3.51653C3.94661 0.5 4.27549 0.832669 4.27549 1.2677V3.98023C4.27549 4.41526 3.94661 4.74793 3.51653 4.74793H0.758963C0.328884 4.74793 0 4.41526 0 3.98023V1.2677Z" fill="#BBBCC1"/>
<path d="M22.9207 16.0843C22.9207 16.5193 23.2495 16.852 23.6796 16.852H26.4372C26.8673 16.852 27.1961 16.5193 27.1961 16.0843V1.2677C27.1961 0.832669 26.8673 0.5 26.4372 0.5H23.6796C23.2495 0.5 22.9207 0.832669 22.9207 1.2677V16.0843Z" fill="#BBBCC1"/>
<path d="M7.64014 4.8247V1.2677C7.64014 0.832669 7.96902 0.5 8.3991 0.5H26.4371C26.8672 0.5 27.1961 0.832669 27.1961 1.2677V4.057C27.1961 4.49203 26.8672 4.8247 26.4371 4.8247H7.64014Z" fill="#BBBCC1"/>
<path d="M7.64014 4.82471H11.9156V16.0075C11.9156 16.4425 11.5867 16.7752 11.1567 16.7752H8.3991C7.96902 16.7752 7.64014 16.4425 7.64014 16.0075V4.82471Z" fill="#BBBCC1"/>
<path d="M27.1961 23.6588C27.1961 24.0938 26.8673 24.4265 26.4372 24.4265H23.6796C23.2495 24.4265 22.9207 24.0938 22.9207 23.6588V20.9463C22.9207 20.5113 23.2495 20.1786 23.6796 20.1786H26.4372C26.8673 20.1786 27.1961 20.5113 27.1961 20.9463V23.6588Z" fill="#BBBCC1"/>
</g>
<defs>
<clipPath id="clip0">
<rect width="199" height="24" fill="white" transform="translate(0 0.5)"/>
</clipPath>
</defs>
</svg>
