<svg width="40" height="40" viewBox="0 0 40 40" fill="none" xmlns="http://www.w3.org/2000/svg">
<g clip-path="url(#clip0)">
<path d="M16.3638 33.171L16.3586 33.176L16.3534 33.1811C16.1438 33.3893 16.0001 33.5281 15.8551 33.6295L16.4219 25.6571L33.2375 10.5581C33.2382 10.5574 33.2389 10.5568 33.2396 10.5562C33.473 10.349 33.7465 10.0251 33.7622 9.59794C33.7822 9.05329 33.3951 8.73227 33.0647 8.61533C32.758 8.50678 32.421 8.52233 32.1258 8.58906C31.8194 8.65834 31.4968 8.79587 31.1831 9.00222L10.411 21.9998L1.66805 19.2804L1.66735 19.2802C1.23694 19.1467 0.980338 18.9924 0.848761 18.8694C0.786067 18.8108 0.762661 18.7696 0.754871 18.7521C0.749222 18.7395 0.74987 18.736 0.750067 18.7349C0.750085 18.7349 0.750099 18.7348 0.750104 18.7347C0.750483 18.7304 0.764632 18.6184 0.987707 18.4229C1.20636 18.2314 1.57192 18.0102 2.12678 17.7947C2.1273 17.7944 2.12783 17.7942 2.12836 17.794L37.6019 4.21275C37.603 4.21237 37.604 4.21198 37.605 4.2116C38.2508 3.97215 38.6848 4.09784 38.9096 4.31423C39.1353 4.53136 39.3736 5.05159 39.1764 6.08857L39.1502 6.21166L33.1146 34.493C32.9085 35.3938 32.5847 35.7354 32.3344 35.8488C32.0908 35.9591 31.6532 35.9721 30.9213 35.573L21.7634 28.8664L21.2564 28.4951L20.8021 28.9293L16.3638 33.171Z" stroke="#7869CF" stroke-width="1.5"/>
</g>
<defs>
<clipPath id="clip0">
<rect width="40" height="40" fill="white"/>
</clipPath>
</defs>
</svg>
