<svg width="56" height="56" viewBox="0 0 56 56" fill="none" xmlns="http://www.w3.org/2000/svg">
<g filter="url(#filter0_d)">
<path d="M42 9.33331H14C10.134 9.33331 7 12.4673 7 16.3333V21C7 24.866 10.134 28 14 28H42C45.866 28 49 24.866 49 21V16.3333C49 12.4673 45.866 9.33331 42 9.33331Z" stroke="#262830" stroke-width="2" stroke-linecap="round" stroke-linejoin="round"/>
<path d="M42 28H14C10.134 28 7 31.134 7 35V39.6667C7 43.5327 10.134 46.6667 14 46.6667H42C45.866 46.6667 49 43.5327 49 39.6667V35C49 31.134 45.866 28 42 28Z" stroke="#262830" stroke-width="2" stroke-linecap="round" stroke-linejoin="round"/>
<path d="M16.3335 18.6667V18.69" stroke="#262830" stroke-width="2" stroke-linecap="round" stroke-linejoin="round"/>
<path d="M16.3335 37.3333V37.3566" stroke="#262830" stroke-width="2" stroke-linecap="round" stroke-linejoin="round"/>
</g>
<defs>
<filter id="filter0_d" x="-4" y="0" width="64" height="64" filterUnits="userSpaceOnUse" color-interpolation-filters="sRGB">
<feFlood flood-opacity="0" result="BackgroundImageFix"/>
<feColorMatrix in="SourceAlpha" type="matrix" values="0 0 0 0 0 0 0 0 0 0 0 0 0 0 0 0 0 0 127 0"/>
<feOffset dy="4"/>
<feGaussianBlur stdDeviation="2"/>
<feColorMatrix type="matrix" values="0 0 0 0 0 0 0 0 0 0 0 0 0 0 0 0 0 0 0.25 0"/>
<feBlend mode="normal" in2="BackgroundImageFix" result="effect1_dropShadow"/>
<feBlend mode="normal" in="SourceGraphic" in2="effect1_dropShadow" result="shape"/>
</filter>
</defs>
</svg>
