<svg width="56" height="56" viewBox="0 0 56 56" fill="none" xmlns="http://www.w3.org/2000/svg">
<path d="M21 35L35 21" stroke="#262830" stroke-width="2" stroke-linecap="round" stroke-linejoin="round"/>
<path d="M22.1667 23.3333C22.811 23.3333 23.3333 22.811 23.3333 22.1667C23.3333 21.5223 22.811 21 22.1667 21C21.5223 21 21 21.5223 21 22.1667C21 22.811 21.5223 23.3333 22.1667 23.3333Z" stroke="#262830" stroke-width="2" stroke-linecap="round" stroke-linejoin="round"/>
<path d="M11.6668 16.7999C11.6668 15.4385 12.2076 14.1328 13.1703 13.1701C14.133 12.2074 15.4387 11.6666 16.8001 11.6666H19.1334C20.4889 11.6658 21.789 11.129 22.7501 10.1732L24.3834 8.53992C24.8605 8.06018 25.4276 7.67948 26.0523 7.4197C26.677 7.15992 27.3469 7.02618 28.0234 7.02618C28.7 7.02618 29.3699 7.15992 29.9945 7.4197C30.6192 7.67948 31.1864 8.06018 31.6634 8.53992L33.2968 10.1732C34.2579 11.129 35.558 11.6658 36.9134 11.6666H39.2468C40.6082 11.6666 41.9139 12.2074 42.8766 13.1701C43.8393 14.1328 44.3801 15.4385 44.3801 16.7999V19.1332C44.3809 20.4887 44.9177 21.7888 45.8734 22.7499L47.5068 24.3832C47.9865 24.8603 48.3672 25.4275 48.627 26.0521C48.8868 26.6768 49.0205 27.3467 49.0205 28.0233C49.0205 28.6998 48.8868 29.3697 48.627 29.9944C48.3672 30.619 47.9865 31.1862 47.5068 31.6632L45.8734 33.2966C44.9177 34.2577 44.3809 35.5578 44.3801 36.9132V39.2466C44.3801 40.608 43.8393 41.9137 42.8766 42.8764C41.9139 43.8391 40.6082 44.3799 39.2468 44.3799H36.9134C35.558 44.3807 34.2579 44.9175 33.2968 45.8732L31.6634 47.5066C31.1864 47.9863 30.6192 48.367 29.9945 48.6268C29.3699 48.8866 28.7 49.0203 28.0234 49.0203C27.3469 49.0203 26.677 48.8866 26.0523 48.6268C25.4276 48.367 24.8605 47.9863 24.3834 47.5066L22.7501 45.8732C21.789 44.9175 20.4889 44.3807 19.1334 44.3799H16.8001C15.4387 44.3799 14.133 43.8391 13.1703 42.8764C12.2076 41.9137 11.6668 40.608 11.6668 39.2466V36.9132C11.666 35.5578 11.1292 34.2577 10.1734 33.2966L8.5401 31.6632C8.06037 31.1862 7.67966 30.619 7.41988 29.9944C7.1601 29.3697 7.02637 28.6998 7.02637 28.0233C7.02637 27.3467 7.1601 26.6768 7.41988 26.0521C7.67966 25.4275 8.06037 24.8603 8.5401 24.3832L10.1734 22.7499C11.1292 21.7888 11.666 20.4887 11.6668 19.1332V16.7999" stroke="#262830" stroke-width="2" stroke-linecap="round" stroke-linejoin="round"/>
<path d="M33.8332 35C34.4775 35 34.9998 34.4777 34.9998 33.8334C34.9998 33.189 34.4775 32.6667 33.8332 32.6667C33.1888 32.6667 32.6665 33.189 32.6665 33.8334C32.6665 34.4777 33.1888 35 33.8332 35Z" stroke="#262830" stroke-width="2" stroke-linecap="round" stroke-linejoin="round"/>
</svg>
