<svg id="d1" xmlns="http://www.w3.org/2000/svg" xmlns:xlink="http://www.w3.org/1999/xlink" width="68" height="77.919" viewBox="0 0 68 77.919">
  <defs>
    <linearGradient id="linear-gradient" x1="1.138" y1="0.5" x2="-0.371" y2="1" gradientUnits="objectBoundingBox">
      <stop offset="0" stop-color="#45e9ff"/>
      <stop offset="1" stop-color="#5c02ff"/>
    </linearGradient>
  </defs>
  <g id="Group_1197" data-name="Group 1197" transform="translate(0)">
    <path id="Path_1534" data-name="Path 1534" d="M177.295,443.15H165.008v-3.576a1.574,1.574,0,0,0-3.147,0v3.576H149.574a1.574,1.574,0,1,0,0,3.147h27.737a1.567,1.567,0,0,0,1.574-1.574A1.591,1.591,0,0,0,177.295,443.15Z" transform="translate(-129.434 -368.379)" fill="#2c2f33"/>
    <path id="Path_1535" data-name="Path 1535" d="M62.8,133.533a10.039,10.039,0,0,0-7.614,8.234H48.891a5.612,5.612,0,0,1,5.4-4.133,1.574,1.574,0,1,0,0-3.147,8.763,8.763,0,0,0-8.631,7.28H33.25a1.559,1.559,0,0,0-2.05,1.494v8.583a3.616,3.616,0,0,0,3.608,3.608H95.592a3.616,3.616,0,0,0,3.608-3.608V110.008a3.616,3.616,0,0,0-3.608-3.608H78.584a1.574,1.574,0,0,0,0,3.147H95.592a.461.461,0,0,1,.461.461V151.86a.461.461,0,0,1-.461.461H34.808a.461.461,0,0,1-.461-.461v-6.93H91.125a1.574,1.574,0,0,0,0-3.147H84.4a8.763,8.763,0,0,0-8.631-7.28,1.574,1.574,0,1,0,0,3.147,5.6,5.6,0,0,1,5.4,4.133H74.912a10,10,0,0,0-8.965-8.456A11.358,11.358,0,0,0,62.8,133.533Zm2.257,2.893a6.834,6.834,0,0,1,6.66,5.341H58.4A6.821,6.821,0,0,1,65.057,136.426Z" transform="translate(-31.2 -89.487)" fill="#2c2f33"/>
    <path id="Path_1536" data-name="Path 1536" d="M53.453,107.974A1.567,1.567,0,0,0,51.88,106.4H34.808a3.616,3.616,0,0,0-3.608,3.608v27.451a1.574,1.574,0,0,0,3.147,0V110.008a.461.461,0,0,1,.461-.461H51.88A1.567,1.567,0,0,0,53.453,107.974Z" transform="translate(-31.2 -89.487)" fill="#2c2f33"/>
    <path id="Path_1537" data-name="Path 1537" d="M182.068,42.44a1.567,1.567,0,0,0,1.574-1.574V37.831h3.465a1.567,1.567,0,0,0,1.574-1.574V33.126a5.66,5.66,0,0,0-.874-3.02l-2.432-3.831a2.235,2.235,0,0,1-.35-1.224V12.478a7.92,7.92,0,0,0-1.939-5.2L177.267.54A1.559,1.559,0,0,0,176.075,0h0a1.574,1.574,0,0,0-1.192.556L169.129,7.3a8.006,8.006,0,0,0-1.907,5.166V24.956a2.23,2.23,0,0,1-.413,1.3l-2.591,3.735a5.591,5.591,0,0,0-1.017,3.227v3.036a1.567,1.567,0,0,0,1.574,1.574l2.861.016v3.036a1.574,1.574,0,0,0,3.147,0V37.847l.016-.016a1.574,1.574,0,1,0,0-3.147h-4.451V33.221a2.577,2.577,0,0,1,.445-1.431l2.591-3.735a5.434,5.434,0,0,0,.97-3.115V12.462A4.825,4.825,0,0,1,171.5,9.346l4.61-5.357,4.61,5.341a4.828,4.828,0,0,1,1.16,3.131V25.035a5.392,5.392,0,0,0,.842,2.909l2.432,3.831a2.463,2.463,0,0,1,.381,1.335v1.558H181.3a1.567,1.567,0,0,0-1.574,1.574,1.536,1.536,0,0,0,.763,1.335v3.29A1.577,1.577,0,0,0,182.068,42.44Z" transform="translate(-142.218 0)" fill="url(#linear-gradient)"/>
  </g>
  <path id="Path_1538" data-name="Path 1538" d="M233.3,226.774v6.787a1.618,1.618,0,0,0,1.478,1.637,1.58,1.58,0,0,0,1.669-1.574v-6.851a1.567,1.567,0,0,0-1.574-1.574h0A1.567,1.567,0,0,0,233.3,226.774Z" transform="translate(-201.176 -189.404)" fill="#2c2f33"/>
</svg>
