<svg id="d4" xmlns="http://www.w3.org/2000/svg" xmlns:xlink="http://www.w3.org/1999/xlink" width="60.959" height="65.959" viewBox="0 0 60.959 65.959">
  <defs>
    <linearGradient id="linear-gradient" x1="1.138" y1="0.5" x2="-0.371" y2="1" gradientUnits="objectBoundingBox">
      <stop offset="0" stop-color="#45e9ff"/>
      <stop offset="1" stop-color="#5c02ff"/>
    </linearGradient>
  </defs>
  <path id="Path_1539" data-name="Path 1539" d="M55.6,0H5.358A5.364,5.364,0,0,0,0,5.358V60.6a5.364,5.364,0,0,0,5.358,5.358H55.6A5.364,5.364,0,0,0,60.959,60.6V5.358A5.364,5.364,0,0,0,55.6,0Zm1.786,60.6A1.788,1.788,0,0,1,55.6,62.388H5.358A1.788,1.788,0,0,1,3.572,60.6V5.358A1.788,1.788,0,0,1,5.358,3.572H55.6a1.788,1.788,0,0,1,1.786,1.786Zm0,0" fill="#2c2f33"/>
  <path id="Path_1540" data-name="Path 1540" d="M118.909,68.864a34.336,34.336,0,0,0-41.2,0,1.786,1.786,0,0,0-.356,2.5l9.428,12.542a1.786,1.786,0,0,0,2.5.356,15.048,15.048,0,0,1,18.054,0,1.785,1.785,0,0,0,2.5-.356l9.428-12.542a1.787,1.787,0,0,0-.356-2.5ZM108,80.4A18.41,18.41,0,0,0,100.1,77.77V72.327a1.786,1.786,0,0,0-3.572,0V77.77A18.41,18.41,0,0,0,88.619,80.4l-7.3-9.714a30.773,30.773,0,0,1,33.987,0Zm0,0" transform="translate(-67.832 -54.618)" fill="url(#linear-gradient)"/>
  <path id="Path_1541" data-name="Path 1541" d="M211.826,65.5a1.465,1.465,0,1,0-2.929,0c0,3.457,3.007,6.337,6.952,6.918v1.424a1.465,1.465,0,1,0,2.929,0V72.414c3.944-.581,6.95-3.46,6.95-6.918s-3.006-6.337-6.95-6.918V50.427c2.315.481,4.021,2.065,4.021,3.946a1.465,1.465,0,1,0,2.929,0c0-3.458-3.006-6.339-6.95-6.919V46.031a1.465,1.465,0,1,0-2.929,0v1.423c-3.945.581-6.952,3.461-6.952,6.919s3.007,6.337,6.952,6.918V69.44C213.533,68.96,211.826,67.376,211.826,65.5Zm10.973,0c0,1.88-1.706,3.464-4.021,3.944V61.552C221.093,62.032,222.8,63.616,222.8,65.5ZM211.826,54.373c0-1.881,1.707-3.465,4.023-3.946v7.89C213.533,57.837,211.826,56.253,211.826,54.373Z" transform="translate(-187.075 -13.566)" fill="#2c2f33"/>
</svg>
