<svg xmlns="http://www.w3.org/2000/svg" xmlns:xlink="http://www.w3.org/1999/xlink" width="89.311" height="72.583" viewBox="0 0 89.311 72.583">
  <defs>
    <linearGradient id="linear-gradient" x1="1.138" y1="0.5" x2="-0.371" y2="1" gradientUnits="objectBoundingBox">
      <stop offset="0" stop-color="#45e9ff"/>
      <stop offset="1" stop-color="#5c02ff"/>
    </linearGradient>
  </defs>
  <g id="d5" transform="translate(0 -47.948)">
    <g id="Group_1203" data-name="Group 1203" transform="translate(30.669 47.948)">
      <g id="Group_1202" data-name="Group 1202">
        <path id="Path_1557" data-name="Path 1557" d="M223.837,58.593A36.242,36.242,0,0,0,177.543,54.4a1.744,1.744,0,0,0,1.987,2.868A32.662,32.662,0,0,1,190.3,52.4a22.577,22.577,0,0,0-1.973,2.9c-2.5,4.326-4.355,10.243-5.369,17.112a1.744,1.744,0,1,0,3.451.509c.212-1.439.467-2.841.76-4.2H209.2a73.265,73.265,0,0,1,1.54,13.78h-4.885a1.744,1.744,0,1,0,0,3.489h4.885a73.266,73.266,0,0,1-1.54,13.78h-8.634a1.744,1.744,0,0,0,0,3.489h7.765A43.531,43.531,0,0,1,206.7,108c-2.21,5.331-5.042,8.55-7.859,8.987q-.649.014-1.3,0c-4.922-.74-9.588-9.9-11.256-22.327a1.744,1.744,0,1,0-3.458.464c.954,7.105,2.8,13.248,5.331,17.765a23.1,23.1,0,0,0,2.105,3.157,32.312,32.312,0,0,1-11.652-5.484,1.744,1.744,0,0,0-2.085,2.8,36.243,36.243,0,0,0,21.655,7.167h.006q1.24,0,2.486-.085a36.283,36.283,0,0,0,23.166-61.853ZM230.928,82.5h-16.7a77.555,77.555,0,0,0-1.469-13.78h14.324A32.548,32.548,0,0,1,230.928,82.5ZM188.04,65.235a36.624,36.624,0,0,1,3.31-8.191c2.082-3.6,4.508-5.589,6.831-5.589,3.029,0,6.133,3.295,8.515,9.04a43.537,43.537,0,0,1,1.634,4.741Zm21.879-6.077a27.456,27.456,0,0,0-3.858-6.756A32.753,32.753,0,0,1,221.37,61.06a33.207,33.207,0,0,1,3.538,4.175H211.947A48.081,48.081,0,0,0,209.919,59.158Zm11.451,48.279a32.586,32.586,0,0,1-15.252,8.587,27.6,27.6,0,0,0,3.8-6.685,48.091,48.091,0,0,0,2.028-6.077h12.961A33.141,33.141,0,0,1,221.37,107.437Zm-8.61-7.664a77.555,77.555,0,0,0,1.469-13.78h16.7a32.545,32.545,0,0,1-3.845,13.78Z" transform="translate(-175.823 -47.948)" fill="#2c2f33"/>
      </g>
    </g>
    <g id="Group_1205" data-name="Group 1205" transform="translate(46.342 99.773)">
      <g id="Group_1204" data-name="Group 1204" transform="translate(0 0)">
        <path id="Path_1558" data-name="Path 1558" d="M268.648,345.563a1.743,1.743,0,1,0,.511,1.233A1.758,1.758,0,0,0,268.648,345.563Z" transform="translate(-265.67 -345.052)" fill="#2c2f33"/>
      </g>
    </g>
    <g id="Group_1207" data-name="Group 1207" transform="translate(0 61.023)">
      <g id="Group_1206" data-name="Group 1206" transform="translate(0)">
        <path id="Path_1559" data-name="Path 1559" d="M54.413,145.061a14.651,14.651,0,0,0-11.561-5.707H36.518L30.126,123.98a1.744,1.744,0,0,0-1.611-1.075H21.929a1.744,1.744,0,0,0-1.744,1.744v14.7H13.819l-4.456-5.339a1.745,1.745,0,0,0-1.339-.627H1.744a1.744,1.744,0,0,0-1.516,2.607l5.766,10.126L.228,156.248a1.744,1.744,0,0,0,1.516,2.608h6.28a1.744,1.744,0,0,0,1.339-.627l4.457-5.339h6.366v14.722a1.745,1.745,0,0,0,1.744,1.744h6.587a1.744,1.744,0,0,0,1.611-1.075l6.392-15.391h6.332a14.651,14.651,0,0,0,11.561-5.707A1.744,1.744,0,0,0,54.413,145.061ZM23.674,126.394h3.679l5.388,12.959H23.674V126.394Zm3.678,39.473H23.674V152.879h9.072Zm15.5-16.466H13.274a1.784,1.784,0,0,0-.337-.017,1.745,1.745,0,0,0-1.257.625l-4.472,5.358H4.745l4.773-8.382a1.744,1.744,0,0,0,0-1.726l-4.773-8.382H7.207l4.472,5.358a1.744,1.744,0,0,0,1.261.625,1.769,1.769,0,0,0,.335-.017H42.851a11.153,11.153,0,0,1,7.864,3.279A11.153,11.153,0,0,1,42.851,149.4Z" transform="translate(0 -122.905)" fill="url(#linear-gradient)"/>
      </g>
    </g>
    <g id="Group_1209" data-name="Group 1209" transform="translate(0.261 61.022)">
      <g id="Group_1208" data-name="Group 1208" transform="translate(0 0)">
        <path id="Path_1560" data-name="Path 1560" d="M4.478,123.413a1.743,1.743,0,1,0,.511,1.233A1.757,1.757,0,0,0,4.478,123.413Z" transform="translate(-1.501 -122.902)" fill="#2c2f33"/>
      </g>
    </g>
    <g id="Group_1211" data-name="Group 1211" transform="translate(6.628 61.023)">
      <g id="Group_1210" data-name="Group 1210">
        <path id="Path_1561" data-name="Path 1561" d="M47.158,122.9H39.744a1.744,1.744,0,1,0,0,3.489h7.413a1.744,1.744,0,1,0,0-3.489Z" transform="translate(-38 -122.905)" fill="#2c2f33"/>
      </g>
    </g>
    <g id="Group_1213" data-name="Group 1213" transform="translate(1.57 103.985)">
      <g id="Group_1212" data-name="Group 1212">
        <path id="Path_1562" data-name="Path 1562" d="M21.51,369.2H10.744a1.744,1.744,0,1,0,0,3.489H21.51a1.744,1.744,0,1,0,0-3.489Z" transform="translate(-9 -369.198)" fill="#2c2f33"/>
      </g>
    </g>
  </g>
</svg>
