<svg id="d6" xmlns="http://www.w3.org/2000/svg" xmlns:xlink="http://www.w3.org/1999/xlink" width="87.077" height="87.077" viewBox="0 0 87.077 87.077">
  <defs>
    <linearGradient id="linear-gradient" x1="1.138" y1="0.5" x2="-0.371" y2="1" gradientUnits="objectBoundingBox">
      <stop offset="0" stop-color="#45e9ff"/>
      <stop offset="1" stop-color="#5c02ff"/>
    </linearGradient>
  </defs>
  <g id="Group_1217" data-name="Group 1217" transform="translate(9.184)">
    <g id="Group_1216" data-name="Group 1216">
      <path id="Path_1567" data-name="Path 1567" d="M105.192,0H71.347a17.348,17.348,0,0,0-1.7,34.612v6.035a1.7,1.7,0,0,0,2.9,1.2l7.155-7.155H97l7.155,7.155a1.7,1.7,0,0,0,2.9-1.2V34.594A17.348,17.348,0,0,0,105.192,0Zm.152,31.291a1.7,1.7,0,0,0-1.683,1.7v3.55l-4.75-4.75a1.7,1.7,0,0,0-1.2-.5H79a1.7,1.7,0,0,0-1.2.5l-4.75,4.75V32.994a1.7,1.7,0,0,0-1.7-1.7,13.946,13.946,0,1,1,0-27.892h33.845a13.945,13.945,0,0,1,.152,27.89Z" transform="translate(-54)" fill="url(#linear-gradient)"/>
    </g>
  </g>
  <g id="Group_1219" data-name="Group 1219" transform="translate(33.016 6.803)">
    <g id="Group_1218" data-name="Group 1218">
      <path id="Path_1568" data-name="Path 1568" d="M216.227,42.369a1.7,1.7,0,0,0-2.405,0L212.594,43.6a10.514,10.514,0,1,0,1.841,2.97l1.792-1.792A1.7,1.7,0,0,0,216.227,42.369ZM204.672,57.688a7.143,7.143,0,1,1,5.512-11.681L206.1,50.1l-1.774-1.774a1.7,1.7,0,1,0-2.405,2.405l2.976,2.976a1.7,1.7,0,0,0,2.405,0L211.7,49.3a7.134,7.134,0,0,1-7.032,8.39Z" transform="translate(-194.127 -40)" fill="url(#linear-gradient)"/>
    </g>
  </g>
  <g id="Group_1221" data-name="Group 1221" transform="translate(0 40.151)">
    <g id="Group_1220" data-name="Group 1220">
      <path id="Path_1569" data-name="Path 1569" d="M24.142,253.423a8.738,8.738,0,0,0,1.984-5.552v-3.013a8.779,8.779,0,1,0-17.558,0v3.013a8.738,8.738,0,0,0,1.984,5.552A12.653,12.653,0,0,0,0,265.883V281.3A1.7,1.7,0,0,0,1.7,283H32.994a1.7,1.7,0,0,0,1.7-1.7V265.883A12.653,12.653,0,0,0,24.142,253.423ZM11.97,244.857a5.378,5.378,0,0,1,10.755,0v3.013a5.378,5.378,0,0,1-10.755,0ZM31.293,279.6H3.4v-13.72a9.244,9.244,0,0,1,9.233-9.233h3.012v4.291a1.7,1.7,0,1,0,3.4,0V256.65H22.06a9.244,9.244,0,0,1,9.233,9.233Z" transform="translate(0 -236.078)" fill="#2c2f33"/>
    </g>
  </g>
  <g id="Group_1223" data-name="Group 1223" transform="translate(52.382 40.151)">
    <g id="Group_1222" data-name="Group 1222">
      <path id="Path_1570" data-name="Path 1570" d="M332.142,253.423a8.738,8.738,0,0,0,1.984-5.552v-3.013a8.779,8.779,0,1,0-17.558,0v3.013a8.738,8.738,0,0,0,1.984,5.552A12.653,12.653,0,0,0,308,265.883V281.3a1.7,1.7,0,0,0,1.7,1.7h31.293a1.7,1.7,0,0,0,1.7-1.7V265.883A12.653,12.653,0,0,0,332.142,253.423Zm-12.172-8.566a5.378,5.378,0,1,1,10.755,0v3.013a5.378,5.378,0,0,1-10.755,0ZM339.293,279.6H311.4v-13.72a9.244,9.244,0,0,1,9.233-9.233h3.012v4.291a1.7,1.7,0,1,0,3.4,0V256.65h3.012a9.244,9.244,0,0,1,9.233,9.233Z" transform="translate(-308 -236.078)" fill="#2c2f33"/>
    </g>
  </g>
  <g id="Group_1225" data-name="Group 1225" transform="translate(68.029 69.478)">
    <g id="Group_1224" data-name="Group 1224">
      <path id="Path_1571" data-name="Path 1571" d="M402.9,409.017a1.7,1.7,0,1,0,.5,1.2A1.712,1.712,0,0,0,402.9,409.017Z" transform="translate(-400 -408.52)" fill="#2c2f33"/>
    </g>
  </g>
  <g id="Group_1227" data-name="Group 1227" transform="translate(15.647 69.478)">
    <g id="Group_1226" data-name="Group 1226">
      <path id="Path_1572" data-name="Path 1572" d="M94.9,409.017a1.7,1.7,0,1,0,.5,1.2A1.712,1.712,0,0,0,94.9,409.017Z" transform="translate(-92 -408.52)" fill="#2c2f33"/>
    </g>
  </g>
</svg>
