<svg xmlns="http://www.w3.org/2000/svg" width="520" height="520" viewBox="0 0 520 520">
  <path id="dcircle" d="M-9695,11158a261.928,261.928,0,0,1-52.4-5.282,258.715,258.715,0,0,1-48.8-15.149,260.1,260.1,0,0,1-44.165-23.972,262.066,262.066,0,0,1-38.479-31.748,261.942,261.942,0,0,1-31.748-38.479,260.136,260.136,0,0,1-23.972-44.166,258.715,258.715,0,0,1-15.149-48.8A261.945,261.945,0,0,1-9955,10898a261.928,261.928,0,0,1,5.282-52.4,258.715,258.715,0,0,1,15.149-48.8,260.1,260.1,0,0,1,23.972-44.165,261.942,261.942,0,0,1,31.748-38.479,261.942,261.942,0,0,1,38.479-31.748,260.1,260.1,0,0,1,44.165-23.972,258.715,258.715,0,0,1,48.8-15.149A261.928,261.928,0,0,1-9695,10638a261.943,261.943,0,0,1,52.4,5.282,258.661,258.661,0,0,1,48.8,15.149,260.1,260.1,0,0,1,44.165,23.972,261.942,261.942,0,0,1,38.479,31.748,261.9,261.9,0,0,1,31.749,38.479,259.965,259.965,0,0,1,23.972,44.165,258.708,258.708,0,0,1,15.15,48.8A261.928,261.928,0,0,1-9435,10898a261.945,261.945,0,0,1-5.282,52.4,258.708,258.708,0,0,1-15.15,48.8,260,260,0,0,1-23.972,44.166,261.967,261.967,0,0,1-31.749,38.479,262.066,262.066,0,0,1-38.479,31.748,260.1,260.1,0,0,1-44.165,23.972,258.639,258.639,0,0,1-48.8,15.149A261.943,261.943,0,0,1-9695,11158Zm0-414.5a157.59,157.59,0,0,0-31.541,3.18,155.693,155.693,0,0,0-29.377,9.119,156.506,156.506,0,0,0-26.583,14.429,157.587,157.587,0,0,0-23.161,19.11,157.587,157.587,0,0,0-19.11,23.161,156.506,156.506,0,0,0-14.429,26.583,155.72,155.72,0,0,0-9.119,29.377,157.661,157.661,0,0,0-3.18,31.541,157.659,157.659,0,0,0,3.18,31.54,155.689,155.689,0,0,0,9.119,29.376,156.42,156.42,0,0,0,14.429,26.583,157.576,157.576,0,0,0,19.11,23.162,157.6,157.6,0,0,0,23.161,19.11,156.567,156.567,0,0,0,26.583,14.43,155.649,155.649,0,0,0,29.377,9.119,157.661,157.661,0,0,0,31.541,3.18,157.661,157.661,0,0,0,31.541-3.18,155.72,155.72,0,0,0,29.377-9.119,156.567,156.567,0,0,0,26.583-14.43,157.6,157.6,0,0,0,23.161-19.11,157.525,157.525,0,0,0,19.11-23.162,156.42,156.42,0,0,0,14.429-26.583,155.689,155.689,0,0,0,9.119-29.376,157.587,157.587,0,0,0,3.18-31.54,157.59,157.59,0,0,0-3.18-31.541,155.693,155.693,0,0,0-9.119-29.377,156.506,156.506,0,0,0-14.429-26.583,157.6,157.6,0,0,0-19.11-23.161,157.6,157.6,0,0,0-23.161-19.11,156.468,156.468,0,0,0-26.583-14.429,155.764,155.764,0,0,0-29.377-9.119A157.59,157.59,0,0,0-9695,10743.5Z" transform="translate(9954.999 -10638)" fill="#e5eefb" opacity="0.421"/>
</svg>
