<svg xmlns="http://www.w3.org/2000/svg" xmlns:xlink="http://www.w3.org/1999/xlink" width="390.853" height="487.855" viewBox="0 0 390.853 487.855"><defs><linearGradient id="a" x1="0.5" y1="-0.391" x2="0.5" y2="1.333" gradientUnits="objectBoundingBox"><stop offset="0" stop-color="#6c20b1" stop-opacity="0"/><stop offset="1" stop-color="#fff"/></linearGradient><linearGradient id="c" x1="0.85" y1="2.414" x2="0.642" y2="-0.334" gradientUnits="objectBoundingBox"><stop offset="0" stop-color="#1ae5ff"/><stop offset="0.259" stop-color="#63e8f8"/><stop offset="0.704" stop-color="#eaeeee"/></linearGradient><linearGradient id="d" x1="15.648" y1="0.5" x2="14.648" y2="0.5" gradientUnits="objectBoundingBox"><stop offset="0" stop-color="#3e8ef7"/><stop offset="1" stop-color="#4bd7a8"/></linearGradient><linearGradient id="e" x1="1.734" y1="-0.194" x2="-0.099" y2="0.879" gradientUnits="objectBoundingBox"><stop offset="0" stop-color="#ff1fd4"/><stop offset="1" stop-color="#3e4cad"/></linearGradient><linearGradient id="f" x1="0.5" y1="1.068" x2="0.5" y2="-0.121" xlink:href="#a"/><linearGradient id="h" x1="0.5" y1="1.833" x2="0.5" y2="0.164" gradientUnits="objectBoundingBox"><stop offset="0" stop-color="#003de6"/><stop offset="1" stop-color="#00b4f7"/></linearGradient><linearGradient id="i" x1="-35.918" y1="0.5" x2="-36.917" y2="0.5" gradientUnits="objectBoundingBox"><stop offset="0" stop-color="#05ccff"/><stop offset="0.201" stop-color="#04c6ff"/><stop offset="0.444" stop-color="#04b8ff"/><stop offset="0.709" stop-color="#049fff"/><stop offset="0.987" stop-color="#047dff"/><stop offset="1" stop-color="#047cff"/></linearGradient><linearGradient id="j" x1="-35.918" y1="0.5" x2="-36.917" y2="0.5" gradientUnits="objectBoundingBox"><stop offset="0" stop-color="#bdf7a3"/><stop offset="1" stop-color="#009ee0"/></linearGradient><linearGradient id="k" x1="-35.934" y1="0.5" x2="-36.935" y2="0.5" gradientUnits="objectBoundingBox"><stop offset="0" stop-color="#ffe900"/><stop offset="1" stop-color="#ff13bd"/></linearGradient><linearGradient id="l" x1="0.5" x2="0.5" y2="1" gradientUnits="objectBoundingBox"><stop offset="0" stop-color="#4bd7a8"/><stop offset="1" stop-color="#3e8ef7"/></linearGradient><linearGradient id="m" x1="1" y1="0.5" x2="0" y2="0.5" xlink:href="#k"/><linearGradient id="n" x1="0.5" y1="-0.965" x2="0.5" y2="6.37" gradientUnits="objectBoundingBox"><stop offset="0" stop-color="#ffe900"/><stop offset="1" stop-color="#ff2fcc"/></linearGradient><linearGradient id="o" x1="0.5" y1="-1.538" x2="0.5" y2="5.796" xlink:href="#n"/><linearGradient id="p" x1="0.5" y1="-2.112" x2="0.5" y2="5.222" xlink:href="#n"/><linearGradient id="q" x1="0.5" y1="-2.686" x2="0.5" y2="4.648" xlink:href="#n"/><linearGradient id="r" x1="0.5" y1="-3.26" x2="0.5" y2="4.074" xlink:href="#n"/><linearGradient id="s" x1="0.5" y1="-0.391" x2="0.5" y2="1.333" gradientUnits="objectBoundingBox"><stop offset="0" stop-color="#6c20b1" stop-opacity="0"/><stop offset="1" stop-color="#3e8ef7"/></linearGradient><linearGradient id="t" x1="0.5" y1="-0.391" x2="0.5" y2="1.333" gradientUnits="objectBoundingBox"><stop offset="0" stop-color="#6c20b1" stop-opacity="0"/><stop offset="1" stop-color="#e2eeff"/></linearGradient><linearGradient id="u" x1="0.5" y1="-0.749" x2="0.5" y2="2.227" gradientUnits="objectBoundingBox"><stop offset="0" stop-color="#f38273"/><stop offset="1" stop-color="#ff2fcc"/></linearGradient><linearGradient id="v" x1="0.5" y1="-0.749" x2="0.5" y2="2.228" xlink:href="#u"/><linearGradient id="w" x1="1" y1="0.5" x2="0" y2="0.5" gradientUnits="objectBoundingBox"><stop offset="0" stop-color="#a43f41"/><stop offset="1" stop-color="#642f41"/></linearGradient><linearGradient id="x" x1="12.765" y1="-0.197" x2="13.334" y2="1.148" gradientUnits="objectBoundingBox"><stop offset="0" stop-color="#4bd7a8"/><stop offset="1" stop-color="#009ee0"/></linearGradient></defs><g transform="translate(-27.674 -9.084)"><g transform="translate(103.96 358.04)"><g transform="translate(43.794)"><path d="M235.732,475.078c35.8,0,69.449-7.078,94.839-19.961,25.689-13.033,39.868-30.461,39.924-49.072s-14.014-36.127-39.622-49.318c-25.508-13.139-59.441-20.436-95.55-20.546h-.835c-35.8,0-69.45,7.078-94.84,19.961-25.689,13.033-39.868,30.461-39.925,49.072s14.015,36.127,39.624,49.318c25.506,13.139,59.44,20.436,95.549,20.546Zm-1.244-137.941h.831c35.962.109,69.742,7.37,95.115,20.439,25.273,13.019,39.161,30.231,39.1,48.464s-14.049,35.36-39.4,48.223c-25.454,12.915-59.323,19.951-95.238,19.856-35.962-.109-69.74-7.368-95.115-20.439-25.273-13.019-39.161-30.231-39.1-48.463s14.048-35.36,39.4-48.223C165.339,344.178,198.839,337.136,234.488,337.136Z" transform="translate(-99.722 -336.179)" fill="#6f8eba" opacity="0.57"/><path d="M232.268,465.9c66.289,0,120.177-27.571,120.283-61.634.051-16.623-12.512-32.265-35.376-44.041-22.759-11.724-53.039-18.235-85.259-18.334h-.745c-31.943,0-61.971,6.317-84.627,17.812-22.935,11.637-35.594,27.2-35.644,43.821s12.511,32.264,35.374,44.041c22.761,11.724,53.039,18.236,85.259,18.335Zm-1.1-123.053h.742c32.072.1,62.2,6.573,84.825,18.229,22.527,11.6,34.907,26.942,34.856,43.187-.1,33.536-53.566,60.68-119.323,60.68h-.733c-32.071-.1-62.2-6.573-84.825-18.229-22.527-11.6-34.905-26.942-34.856-43.187s12.523-31.506,35.12-42.972C169.5,349.131,199.376,342.851,231.17,342.851Z" transform="translate(-96.338 -334.45)" fill="#6f8eba" opacity="0.57"/></g><g transform="translate(42.215 27.774)" opacity="0.35"><path d="M253.334,379.686l33.887,19.693a3.85,3.85,0,0,0,3.857.005l34.119-19.7a1.158,1.158,0,0,0,0-2l-33.777-19.629a4.063,4.063,0,0,0-4.074-.005l-34.009,19.636A1.158,1.158,0,0,0,253.334,379.686Z" transform="translate(-252.758 -357.502)" fill="url(#a)"/></g><g transform="translate(0 46.361)" opacity="0.35"><path d="M309.555,384.435,328.9,395.676a2.2,2.2,0,0,0,2.2,0l19.476-11.245a.66.66,0,0,0,0-1.144l-19.28-11.2a2.32,2.32,0,0,0-2.326,0L309.556,383.29A.662.662,0,0,0,309.555,384.435Z" transform="translate(-309.226 -371.772)" fill="url(#a)"/></g></g><g transform="translate(27.674 9.084)"><g transform="translate(25.052 329.54)"><g transform="translate(44.17)"><path d="M332.468,331.571v2.952a2.261,2.261,0,0,0,3.389,1.96l13.949-8.035a2.263,2.263,0,0,0,1.132-1.959v-2.952a2.261,2.261,0,0,0-3.389-1.96L333.6,329.612A2.261,2.261,0,0,0,332.468,331.571Z" transform="translate(-332.468 -321.272)" fill="#1ce5ff"/></g><g transform="translate(0 14.687)"><path d="M332.471,368.127v2.958a2.261,2.261,0,0,0,3.387,1.962l58.114-33.315a2.264,2.264,0,0,0,1.137-1.96v-2.958a2.261,2.261,0,0,0-3.385-1.963l-58.114,33.315A2.26,2.26,0,0,0,332.471,368.127Z" transform="translate(-332.47 -332.548)" fill="#1ce5ff"/></g><g transform="translate(23.954 44.08)" opacity="0.53"><path d="M332.476,376.958v2.958a2.261,2.261,0,0,0,3.385,1.962L370.016,362.3a2.262,2.262,0,0,0,1.136-1.962v-2.958a2.26,2.26,0,0,0-3.384-1.963L333.613,375A2.265,2.265,0,0,0,332.476,376.958Z" transform="translate(-332.476 -355.114)" fill="#1ce5ff"/></g><g transform="translate(9.008 29.384)"><path d="M332.474,374.244V377.2a2.261,2.261,0,0,0,3.385,1.962l49.1-28.149a2.261,2.261,0,0,0,1.137-1.96V346.1a2.261,2.261,0,0,0-3.385-1.963l-49.1,28.149A2.261,2.261,0,0,0,332.474,374.244Z" transform="translate(-332.473 -343.831)" fill="#1ce5ff"/></g></g><path d="M433.512,70.141c.145-.085.289-.164.434-.242q.279-.152.557-.289c.185-.091.369-.178.551-.259s.363-.159.544-.232.367-.142.548-.206c.035-.013.07-.022.105-.035l.04-.013c.134-.046.267-.09.4-.13.188-.057.375-.108.561-.155s.373-.089.557-.124c.2-.039.4-.072.6-.1.134-.018.266-.029.4-.042l.06-.007c.048,0,.1-.01.146-.014.215-.014.429-.022.638-.021.238,0,.473.012.7.034a7.605,7.605,0,0,1,.783.113l.018.005.025.007a6.865,6.865,0,0,1,.905.249,6.487,6.487,0,0,1,1.1.509l9.012,5.236a6.68,6.68,0,0,0-2-.757l-.027-.008a8.119,8.119,0,0,0-2.289-.116l-.063.007a11.02,11.02,0,0,0-2.511.548l-.039.013a15.642,15.642,0,0,0-2.741,1.262L190.8,220.707l-9.011-5.236Z" transform="translate(-168.245 -68.274)" fill="url(#c)"/><path d="M382.481,204.134c.007-.219.017-.438.031-.659s.031-.44.052-.662.046-.443.074-.666.061-.456.1-.684l0-.018,0-.014c.034-.218.073-.436.113-.655.044-.236.092-.472.145-.709s.107-.474.165-.712.122-.481.189-.722c.052-.185.108-.373.164-.559l.013-.044c.012-.038.022-.077.034-.115q.108-.352.224-.7t.242-.693c.081-.221.163-.443.249-.663s.174-.44.266-.66c.07-.169.143-.336.216-.5l.013-.031c.017-.039.033-.077.049-.115.1-.22.2-.44.3-.658.112-.24.228-.477.346-.714.135-.272.276-.544.419-.814.155-.289.32-.576.483-.861.03-.051.056-.1.085-.151s.066-.121.1-.181c.32-.544.658-1.081,1.008-1.6q.416-.625.86-1.226c.2-.268.4-.533.6-.793q.258-.328.524-.647c.173-.207.348-.413.525-.615s.35-.393.529-.585c.035-.039.072-.074.107-.113l.039-.04c.135-.143.271-.288.409-.429q.283-.289.573-.567t.6-.555q.3-.272.6-.528c.1-.086.2-.168.307-.251l.069-.057c.076-.061.151-.125.228-.186q.3-.234.6-.455c.2-.145.393-.285.591-.421s.384-.259.578-.383.383-.238.576-.352c.044-.027.089-.053.134-.078l9.011,5.236a20.952,20.952,0,0,0-2.705,1.877l-.068.055a26.233,26.233,0,0,0-2.493,2.33l-.038.04a31.766,31.766,0,0,0-4.258,5.764l-.085.152a32.765,32.765,0,0,0-1.6,3.157l-.016.038a30.143,30.143,0,0,0-1.231,3.336l-.013.044a25.976,25.976,0,0,0-.776,3.357v.013a20.853,20.853,0,0,0-.267,3.3l.487,171.99a15.5,15.5,0,0,0,.278,2.928l.017.083a10.958,10.958,0,0,0,.767,2.394.478.478,0,0,1,.019.046,8,8,0,0,0,1.02,1.577c.125.158.243.324.378.468a6.657,6.657,0,0,0,1.485,1.224l-9.011-5.237a6.6,6.6,0,0,1-1.486-1.224c-.134-.143-.25-.309-.376-.466a7.264,7.264,0,0,1-.49-.607,8.446,8.446,0,0,1-.513-.929l-.018-.044-.017-.042c-.1-.221-.2-.449-.29-.688s-.165-.469-.238-.715c-.065-.225-.126-.457-.18-.7-.022-.1-.04-.2-.06-.3l-.017-.083c-.018-.1-.04-.186-.057-.283-.037-.212-.069-.43-.1-.651s-.049-.432-.068-.654-.031-.425-.04-.642-.014-.436-.016-.658v-.04l-.487-171.99Q382.471,204.442,382.481,204.134Z" transform="translate(-382.473 -34.085)" fill="url(#d)"/><g transform="translate(9.011 5.237)"><path d="M191.924,219.491c-7.51,4.336-13.573,14.836-13.548,23.467l.487,171.99c.025,8.631,6.127,12.107,13.638,7.771L444.22,277.388c7.51-4.336,13.572-14.836,13.548-23.465l-.487-171.991c-.025-8.629-6.126-12.107-13.636-7.771Z" transform="translate(-178.376 -72.294)" fill="#343996"/></g><g transform="translate(20.285 19.452)"><path d="M199.486,218.526c-6.9,3.986-12.477,13.638-12.455,21.571l.448,158.111c.022,7.934,5.632,11.13,12.537,7.144l231.406-133.6c6.9-3.987,12.476-13.639,12.454-21.573l-.448-158.111c-.022-7.932-5.631-11.129-12.536-7.143Z" transform="translate(-187.031 -83.208)" fill="url(#e)"/></g><g transform="translate(40.668 79.955)"><g transform="translate(0 83.503)"><g transform="translate(19.229 68.569)"><path d="M353.716,246.409l.119.074Z" transform="translate(-353.716 -246.409)" fill="#0e7380"/></g><g transform="translate(5.808 100.745)"><path d="M347.595,283.309a1.714,1.714,0,0,0-.787,1.362l.023,8.392c0,.507.352.714.792.46l20.936-12.088a1.733,1.733,0,0,0,.787-1.37l-.025-8.392c0-.507-.35-.706-.792-.452Z" transform="translate(-346.808 -271.111)" fill="#ebeeee"/></g><g transform="translate(50.124 87.069)"><path d="M326.348,263.17a2.023,2.023,0,0,0-.922,1.588l.014,4.845c0,.581.415.817.927.521l4.21-2.431a2.025,2.025,0,0,0,.921-1.588l-.013-4.845c0-.581-.415-.817-.927-.521Z" transform="translate(-325.426 -260.612)" fill="#ebeeee"/></g><g transform="translate(47.081 82.766)"><path d="M325.6,262.441l0,1.364,8.889-5.132,0-1.365Z" transform="translate(-325.597 -257.309)" fill="#ebeeee"/></g><g transform="translate(35.415 78.91)"><path d="M325.606,266.209l0,1.356L346.154,255.7l0-1.356Z" transform="translate(-325.606 -254.348)" fill="#ebeeee"/></g><g transform="translate(29.458 68.309)"><path d="M345.825,246.288l.061-.027.107-.052Z" transform="translate(-345.825 -246.209)" fill="#0e7380"/></g><g transform="translate(35.393 71.188)"><path d="M325.623,260.28l0,1.365,20.544-11.861,0-1.365Z" transform="translate(-325.623 -248.419)" fill="#ebeeee"/></g><g transform="translate(24.234 68.894)"><path d="M339.7,254.373l.006,2.272,13.362-7.714-.007-2.272Z" transform="translate(-339.701 -246.658)" fill="#ebeeee"/></g><g transform="translate(34.233 65.054)"><path d="M342.05,243.972c.106-.086.21-.173.315-.262-.111.092-.22.184-.331.274Z" transform="translate(-342.034 -243.71)" fill="#0e7380"/></g><g transform="translate(35.813 63.69)"><path d="M340.873,242.914c.089-.083.176-.167.263-.251C341.049,242.748,340.962,242.831,340.873,242.914Z" transform="translate(-340.873 -242.663)" fill="#0e7380"/></g><g transform="translate(16.412 69.362)"><path d="M333.674,263.781l.007,2.272,29.035-16.763-.006-2.272Z" transform="translate(-333.674 -247.018)" fill="#ebeeee"/></g><g transform="translate(5.77 87.353)"><path d="M347.624,273.027a1.714,1.714,0,0,0-.787,1.362l.023,8.4c0,.5.35.706.792.452l20.936-12.088a1.729,1.729,0,0,0,.787-1.362l-.025-8.4c0-.507-.35-.706-.792-.452Z" transform="translate(-346.837 -260.829)" fill="#ebeeee"/></g><g transform="translate(31.845 67.06)"><path d="M344.119,245.252h0l0,0Z" transform="translate(-344.118 -245.25)" fill="#0e7380"/></g><g transform="translate(31.846 66.883)"><path d="M344.185,245.114c-.092.06-.184.12-.276.178h0c.059-.038.119-.076.177-.115Z" transform="translate(-343.909 -245.114)" fill="#0e7380"/></g><g transform="translate(29.519 68.309)"><path d="M345.932,246.209l-.107.052.021-.01.086-.042Z" transform="translate(-345.825 -246.209)" fill="#0e7380"/></g><g transform="translate(29.54 68.308)"><path d="M345.911,246.208h0l-.086.042h0Z" transform="translate(-345.824 -246.208)" fill="#0e7380"/></g><g transform="translate(37.593 39.102)"><path d="M339.772,224.663v-.025c.013-.253.026-.515.026-.776v-.076c-.109.892-.224,1.839-.326,2.675l.034-.057c0,.018-.031.369-.09.965l.014-.022c.076-.572.142-1.092.2-1.52C339.689,225.439,339.743,225.047,339.772,224.663Z" transform="translate(-339.415 -223.786)" fill="#89543c"/></g><g transform="translate(25.303 50.794)"><path d="M348.688,232.762a12.108,12.108,0,0,0,.594,2.064A7.022,7.022,0,0,0,348.688,232.762Z" transform="translate(-348.688 -232.762)" fill="#89543c"/></g><g transform="translate(42.403 55.25)"><path d="M335.914,236.416c.046-.078.089-.155.133-.233C336,236.261,335.96,236.339,335.914,236.416Z" transform="translate(-335.914 -236.183)" fill="#0e7380"/></g><g transform="translate(42.653 54.992)"><path d="M335.83,235.985h0l-.027.051Z" transform="translate(-335.803 -235.985)" fill="#0e7380"/></g><g transform="translate(42.648 54.992)"><path d="M335.8,236.045l.005-.009.027-.051Z" transform="translate(-335.803 -235.985)" fill="#0e7380"/></g><g transform="translate(14.788 28.363)"><path d="M353.568,241.856c.516.037,1.3.093,2.174.158a31.489,31.489,0,0,1,4.625.156,32.258,32.258,0,0,0,4.335-15.206c-.029-10.222-7.263-14.353-16.166-9.213s-16.09,17.6-16.062,27.82c.014,4.909,1.689,8.411,4.412,10.157,1.883-2.489,6.04-7.105,6.259-7.348a3.787,3.787,0,0,0,.262-.3l-.142-.145.937-1.687.452.065.292-1.394a2.227,2.227,0,0,1-1.362-.688,12.111,12.111,0,0,1-.688-2.737c-.19.04-.408-.112-.675-.535-.594-.943-.95-3.242-.3-3.616a41.705,41.705,0,0,1-.763-5.485c.089-1.067,2.807-7.2,5.1-9.436a5.423,5.423,0,0,1,1.086-.81c2.54-1.465,6.523-1.52,7.742-.735.053.065,1.064,1.309.981,2.069-.035.306-.208,1.732-.4,3.333,0,.337-.012.6-.026.852-.027.409-.082.8-.146,1.189-.053.429-.12.948-.2,1.52a1.655,1.655,0,0,1,.526-.524c.64-.37.3,2.332-.288,3.956-.31.856-.552,1.262-.766,1.386a30.933,30.933,0,0,1-.709,3.525,11.794,11.794,0,0,1-1.467,2.417l.221.778Z" transform="translate(-332.475 -215.541)" fill="#ebeeee"/></g><path d="M382.672,193.766l.277,97.451L321.316,326.8l-.276-97.451Zm-30.783,30.573c-8.9,5.136-16.09,17.6-16.062,27.82.029,10.082,7.061,14.228,15.779,9.43h0c.128-.07.257-.143.387-.217.3-.174.6-.357.895-.547.06-.038.118-.074.177-.113l.075-.049c8.365-5.507,14.941-17.322,14.913-27.11-.029-10.222-7.263-14.353-16.166-9.213m-14.437,55.553.007,2.27L366.493,265.4l-.006-2.272-29.035,16.764m21.191-14.961-.007-2.272-13.361,7.715.005,2.272,13.363-7.715m18.345,3.879-13.234,7.641,0,1.365,13.234-7.641,0-1.365m-5.809,21.016c0,.581.415.817.927.521l4.21-2.431a2.025,2.025,0,0,0,.921-1.588l-.013-4.845c0-.581-.416-.817-.927-.521l-4.21,2.431a2.026,2.026,0,0,0-.922,1.588l.014,4.845m-3.054-6.8,8.89-5.132,0-1.365-8.89,5.132,0,1.365m-11.666,2.864L377,274.032l0-1.357-20.544,11.862,0,1.356m-.022-7.714,20.545-11.861h0l0-1.365-20.545,11.861h0l0,1.365m-29.565,38.284c0,.507.352.714.792.46L348.6,304.836a1.733,1.733,0,0,0,.787-1.37l-.025-8.392c0-.507-.35-.706-.791-.452l-20.936,12.088a1.714,1.714,0,0,0-.787,1.363l.023,8.392m-.038-13.385c0,.5.35.706.792.452l20.936-12.088a1.729,1.729,0,0,0,.787-1.363l-.025-8.4c0-.507-.35-.706-.792-.452L327.6,293.316a1.714,1.714,0,0,0-.787,1.362l.023,8.4" transform="translate(-321.04 -193.766)" fill="#fff"/><g transform="translate(42.714 75.045)"><path d="M338.852,252.745l-13.234,7.641,0-1.364,13.234-7.641Z" transform="translate(-325.614 -251.38)" fill="#ebeeee"/></g><g transform="translate(41.548 56.689)"><path d="M336.568,237.506l.135-.218Z" transform="translate(-336.568 -237.288)" fill="#0e7380"/></g><g transform="translate(41.417 56.907)"><path d="M336.672,237.662l.132-.207Z" transform="translate(-336.672 -237.455)" fill="#0e7380"/></g><g transform="translate(39.203 60.021)"><path d="M338.348,240.053c.055-.069.109-.138.163-.207C338.457,239.915,338.4,239.984,338.348,240.053Z" transform="translate(-338.348 -239.846)" fill="#0e7380"/></g><g transform="translate(39.068 60.228)"><path d="M338.473,240.174l.134-.169Z" transform="translate(-338.473 -240.005)" fill="#0e7380"/></g><g transform="translate(38.511 60.774)"><path d="M338.811,240.729c.085-.1.168-.2.251-.3C338.979,240.527,338.894,240.627,338.811,240.729Z" transform="translate(-338.811 -240.424)" fill="#0e7380"/></g><g transform="translate(33.424 65.709)"><path d="M342.656,244.466c.111-.082.22-.167.329-.253C342.876,244.3,342.767,244.384,342.656,244.466Z" transform="translate(-342.656 -244.213)" fill="#0e7380"/></g><g transform="translate(27.661 69.115)"><path d="M347.325,246.832h0l.011,0Z" transform="translate(-347.325 -246.828)" fill="#0e7380"/></g><g transform="translate(27.342 69.115)"><path d="M347.325,246.936c.107-.034.212-.068.319-.1l.012,0h0C347.545,246.865,347.436,246.9,347.325,246.936Z" transform="translate(-347.325 -246.828)" fill="#0e7380"/></g><g transform="translate(30.77 60.017)"><path d="M344.869,239.843l-.016.035.122.07Z" transform="translate(-344.853 -239.843)" fill="#7d7d7e"/></g><g transform="translate(25.142 69.691)"><path d="M349.118,247.3l.2-.027Z" transform="translate(-349.118 -247.27)" fill="#0e7380"/></g><g transform="translate(24.739 69.737)"><path d="M349.376,247.334l.262-.029Z" transform="translate(-349.376 -247.305)" fill="#0e7380"/></g><g transform="translate(24.368 69.778)"><path d="M349.689,247.354l.225-.017Z" transform="translate(-349.689 -247.337)" fill="#0e7380"/></g><g transform="translate(23.902 69.809)"><path d="M350.111,247.365l.142,0Z" transform="translate(-350.111 -247.361)" fill="#0e7380"/></g><g transform="translate(23.292 69.806)"><path d="M350.464,247.358c.1,0,.194.008.292.009C350.658,247.366,350.56,247.362,350.464,247.358Z" transform="translate(-350.464 -247.358)" fill="#0e7380"/></g><g transform="translate(22.54 69.742)"><path d="M351.159,247.309l.138.016Z" transform="translate(-351.159 -247.309)" fill="#0e7380"/></g><g transform="translate(21.845 69.625)"><path d="M351.7,247.219l.125.026Z" transform="translate(-351.703 -247.219)" fill="#0e7380"/></g><g transform="translate(21.682 69.589)"><path d="M351.8,247.192l.163.035Z" transform="translate(-351.799 -247.192)" fill="#0e7380"/></g><g transform="translate(21.547 69.557)"><path d="M351.924,247.167l.135.033Z" transform="translate(-351.924 -247.167)" fill="#0e7380"/></g><g transform="translate(21.394 69.516)"><path d="M352.028,247.136l.152.04Z" transform="translate(-352.028 -247.136)" fill="#0e7380"/></g><g transform="translate(20.907 69.369)"><path d="M352.385,247.023c.057.02.116.039.175.057C352.5,247.062,352.442,247.043,352.385,247.023Z" transform="translate(-352.385 -247.023)" fill="#0e7380"/></g><g transform="translate(20.606 69.261)"><path d="M352.65,246.94c.043.017.086.034.13.05C352.736,246.974,352.693,246.957,352.65,246.94Z" transform="translate(-352.65 -246.94)" fill="#0e7380"/></g><g transform="translate(20.469 69.208)"><path d="M352.75,246.9l.137.053Z" transform="translate(-352.75 -246.899)" fill="#0e7380"/></g><g transform="translate(20.339 69.153)"><path d="M352.855,246.857c.043.019.086.036.13.055Z" transform="translate(-352.855 -246.857)" fill="#0e7380"/></g><g transform="translate(20.199 69.092)"><path d="M352.955,246.81l.141.061Z" transform="translate(-352.955 -246.81)" fill="#0e7380"/></g><g transform="translate(20.077 69.037)"><path d="M353.063,246.768l.121.055Z" transform="translate(-353.063 -246.768)" fill="#0e7380"/></g><g transform="translate(19.843 68.921)"><path d="M353.156,246.679c.078.04.156.078.234.116C353.312,246.757,353.234,246.719,353.156,246.679Z" transform="translate(-353.156 -246.679)" fill="#0e7380"/></g><g transform="translate(19.733 68.864)"><path d="M353.336,246.635l.109.057Z" transform="translate(-353.336 -246.635)" fill="#0e7380"/></g><g transform="translate(19.473 68.718)"><path d="M353.526,246.523l.122.07Z" transform="translate(-353.526 -246.523)" fill="#0e7380"/></g><g transform="translate(19.199 68.55)"><path d="M353.807,246.4l.03.018-.03-.02Z" transform="translate(-353.807 -246.394)" fill="#0e7380"/></g><g transform="translate(19.199 33.197)"><path d="M338.061,246.957l-.142-.145.937-1.687.452.065.292-1.394a2.228,2.228,0,0,1-1.362-.688,12.119,12.119,0,0,1-.688-2.737c-.19.04-.408-.112-.675-.535-.594-.943-.949-3.242-.3-3.616a41.7,41.7,0,0,1-.763-5.485c.089-1.067,2.807-7.2,5.1-9.436a5.424,5.424,0,0,1,1.086-.81c2.54-1.465,6.523-1.52,7.742-.735.053.065,1.064,1.309.981,2.068-.035.306-.209,1.732-.4,3.333-.109.892-.224,1.839-.326,2.675l.034-.057c0,.018-.031.369-.09.965l.014-.022a1.657,1.657,0,0,1,.526-.524c.64-.37.3,2.332-.288,3.956-.31.856-.552,1.262-.766,1.386a.383.383,0,0,1-.042.02,25.02,25.02,0,0,1-.667,3.505,11.8,11.8,0,0,1-1.467,2.418l.221.778-.086-.053.086.053.755.477.108.068-1.781,3.891,1.781-3.891-.108-.068c.516.036,1.3.093,2.174.158a31.477,31.477,0,0,1,4.625.156l-.033.06-.112.2c-.044.078-.087.155-.133.233l-.113.2-.142.242c-.039.066-.078.132-.119.2-.073.122-.147.246-.221.367l-.124.2-.135.218-.132.207c-.044.069-.089.138-.134.207s-.087.137-.132.2-.1.147-.147.221c-.076.112-.151.225-.228.337-.048.07-.1.141-.145.211s-.1.139-.146.208-.087.125-.132.186-.1.142-.151.214-.09.122-.134.182-.1.139-.151.208l-.175.233c-.079.1-.158.208-.238.313l-.139.181c-.053.069-.108.138-.163.207l-.134.169-.165.206-.141.171c-.083.1-.167.2-.251.3-.063.073-.124.146-.185.219l-.165.191-.148.171-.168.19-.148.165c-.056.063-.112.125-.169.186l-.168.182-.266.283-.18.189c-.056.059-.113.116-.169.173l-.162.164-.172.171c-.055.056-.111.111-.167.165l-.167.162c-.087.085-.175.168-.263.251l-.186.172q-.1.094-.2.188c-.052.048-.105.1-.159.143l-.189.168-.163.143-.2.173-.147.125c-.105.089-.21.175-.315.261l2.147-10.427-2.162,10.44-.115.093-.237.189-.128.1c-.109.085-.217.169-.327.251l-.091.068c-.087.065-.176.132-.265.2l-.126.091c-.091.066-.185.132-.277.2l-.1.072c-.1.073-.21.143-.315.214l-.128.086-.1.061-.182.119-.078.051-.348.216-.1.06c-.121.073-.244.146-.366.216s-.258.147-.386.217l-.139.074-.245.132-.164.083-.219.111-.173.086-.086.04-.083.039c-.1.049-.207.1-.311.143-.047.021-.094.043-.141.062-.112.05-.223.1-.335.143l-.107.044c-.145.059-.288.115-.442.172s-.3.111-.461.164l-2.2-7.9Zm5.463-10.755-.121.07.121-.07a.162.162,0,0,1,.031-.035A.162.162,0,0,0,343.524,236.2Zm.983,6.6a9.581,9.581,0,0,1-.728.7l-.168.215.168-.215A9.581,9.581,0,0,0,344.507,242.806Zm-.061,4.576h0l-1.078,1.869Zm-1.213-1.2-.105-.105-.017.035Zm-4.83-6.954a2.026,2.026,0,0,1-.165-.31,6.988,6.988,0,0,0-.6-2.065,12.215,12.215,0,0,0,.6,2.065,2.026,2.026,0,0,0,.165.31,1.04,1.04,0,0,0,.31.3A1.04,1.04,0,0,1,338.4,239.224Z" transform="translate(-331.541 -219.253)" fill="#b8b8b8"/><path d="M353.6,240.765l2.2,7.9q-.16.055-.32.105l-.132.039-.22.065c-.051.016-.1.029-.151.043l-.2.053-.147.038-.236.056-.108.025c-.108.023-.215.046-.322.065l-.139.026-.2.034-.147.023-.2.027-.141.018-.262.029-.146.013-.225.017-.141.007q-.092.006-.184.008l-.142,0h-.318c-.1,0-.2,0-.292-.008l-.124-.007-.182-.013q-.07,0-.141-.012l-.167-.017-.138-.016-.181-.025-.116-.017c-.093-.016-.182-.031-.274-.049l-.125-.026-.163-.035-.135-.033-.152-.04c-.043-.012-.087-.022-.13-.035-.061-.017-.122-.036-.182-.055s-.117-.038-.175-.057l-.171-.059c-.044-.016-.087-.033-.129-.05s-.092-.035-.138-.053-.087-.035-.13-.055l-.141-.061-.121-.055c-.078-.038-.156-.076-.234-.116l-.109-.057-.138-.076-.122-.07-.125-.074-.118-.074-.03-.02C349.217,245.608,353.373,240.992,353.6,240.765Z" transform="translate(-347.333 -212.745)" fill="#b8b8b8"/></g></g><g transform="translate(160.365)"><g transform="translate(19.228 68.569)"><path d="M230.6,182.3l.119.074Z" transform="translate(-230.6 -182.301)" fill="#0e7380"/></g><g transform="translate(5.807 100.745)"><path d="M224.479,219.2a1.719,1.719,0,0,0-.787,1.362l.023,8.392c0,.507.352.714.792.46l20.936-12.088a1.728,1.728,0,0,0,.787-1.37l-.023-8.392c0-.507-.352-.706-.792-.452Z" transform="translate(-223.692 -207.003)" fill="#ebeeee"/></g><g transform="translate(50.123 87.069)"><path d="M203.232,199.062a2.026,2.026,0,0,0-.922,1.588l.014,4.847c0,.58.415.815.927.52l4.21-2.431a2.021,2.021,0,0,0,.921-1.588l-.013-4.845c0-.581-.415-.817-.927-.521Z" transform="translate(-202.31 -196.504)" fill="#ebeeee"/></g><g transform="translate(47.08 82.767)"><path d="M202.481,198.333l0,1.365,8.889-5.132,0-1.365Z" transform="translate(-202.481 -193.201)" fill="#ebeeee"/></g><g transform="translate(35.414 78.91)"><path d="M202.489,202.1l0,1.356L223.037,191.6l0-1.357Z" transform="translate(-202.489 -190.24)" fill="#ebeeee"/></g><g transform="translate(29.458 68.309)"><path d="M222.709,182.18l.06-.027.107-.052Z" transform="translate(-222.709 -182.101)" fill="#0e7380"/></g><g transform="translate(35.392 71.188)"><path d="M202.506,196.172l0,1.365,20.544-11.861,0-1.365Z" transform="translate(-202.506 -184.311)" fill="#ebeeee"/></g><g transform="translate(24.233 68.894)"><path d="M216.585,190.265l.006,2.272,13.362-7.715-.007-2.272Z" transform="translate(-216.585 -182.55)" fill="#ebeeee"/></g><g transform="translate(34.232 65.054)"><path d="M218.934,179.864c.105-.086.211-.173.315-.262-.109.092-.22.184-.331.274Z" transform="translate(-218.918 -179.602)" fill="#0e7380"/></g><g transform="translate(35.812 63.69)"><path d="M217.756,178.806c.089-.083.177-.167.264-.251C217.933,178.64,217.845,178.723,217.756,178.806Z" transform="translate(-217.756 -178.555)" fill="#0e7380"/></g><g transform="translate(16.411 69.362)"><path d="M210.558,199.673l.007,2.272L239.6,185.181l-.007-2.272Z" transform="translate(-210.558 -182.91)" fill="#ebeeee"/></g><g transform="translate(5.769 87.353)"><path d="M224.508,208.919a1.719,1.719,0,0,0-.787,1.362l.023,8.4c0,.5.352.706.792.452l20.936-12.088a1.729,1.729,0,0,0,.787-1.362l-.023-8.4c0-.507-.352-.706-.792-.452Z" transform="translate(-223.721 -196.721)" fill="#ebeeee"/></g><g transform="translate(31.844 67.06)"><path d="M221,181.144h0l0,0Z" transform="translate(-221.002 -181.142)" fill="#0e7380"/></g><g transform="translate(31.846 66.883)"><path d="M221.068,181.006l-.275.18,0,0c.059-.038.118-.076.177-.115Z" transform="translate(-220.793 -181.006)" fill="#0e7380"/></g><g transform="translate(29.518 68.309)"><path d="M222.816,182.1l-.107.052.021-.01.086-.042Z" transform="translate(-222.709 -182.101)" fill="#0e7380"/></g><g transform="translate(29.539 68.309)"><path d="M222.8,182.1h0l-.086.042h0Z" transform="translate(-222.708 -182.101)" fill="#0e7380"/></g><g transform="translate(37.593 39.102)"><path d="M216.655,160.555v-.025c.013-.253.027-.514.026-.776v-.076c-.108.892-.224,1.839-.326,2.675l.035-.057c0,.018-.033.369-.09.965l.014-.021c.074-.573.141-1.093.2-1.521C216.571,161.331,216.627,160.939,216.655,160.555Z" transform="translate(-216.299 -159.678)" fill="#89543c"/></g><g transform="translate(25.302 50.794)"><path d="M225.572,168.654a12.11,12.11,0,0,0,.594,2.065A7.022,7.022,0,0,0,225.572,168.654Z" transform="translate(-225.572 -168.654)" fill="#89543c"/></g><g transform="translate(42.403 55.25)"><path d="M212.8,172.308l.133-.233Z" transform="translate(-212.797 -172.075)" fill="#0e7380"/></g><g transform="translate(42.652 54.992)"><path d="M212.714,171.877h0l-.027.051Z" transform="translate(-212.687 -171.877)" fill="#0e7380"/></g><g transform="translate(42.646 54.992)"><path d="M212.687,171.937l.005-.009.027-.051Z" transform="translate(-212.687 -171.877)" fill="#0e7380"/></g><g transform="translate(14.786 28.363)"><path d="M230.451,177.748c.517.036,1.3.092,2.175.158a31.65,31.65,0,0,1,4.624.156,32.277,32.277,0,0,0,4.336-15.206c-.03-10.222-7.263-14.353-16.167-9.213s-16.09,17.6-16.062,27.82c.014,4.909,1.691,8.411,4.412,10.157,1.883-2.489,6.041-7.1,6.26-7.348.092-.094.178-.2.262-.3l-.142-.145.935-1.687.452.065.293-1.392a2.235,2.235,0,0,1-1.364-.689,12.127,12.127,0,0,1-.686-2.737c-.191.04-.409-.112-.676-.535-.594-.943-.95-3.242-.3-3.616a42.138,42.138,0,0,1-.763-5.485c.09-1.067,2.807-7.2,5.1-9.436a5.466,5.466,0,0,1,1.085-.81c2.54-1.465,6.523-1.52,7.742-.735.053.065,1.065,1.309.982,2.068-.036.306-.21,1.732-.405,3.333,0,.337-.012.6-.025.852-.027.409-.083.8-.146,1.189-.055.429-.121.948-.2,1.521a1.669,1.669,0,0,1,.525-.525c.641-.37.3,2.333-.288,3.956-.309.856-.552,1.262-.766,1.386a30.675,30.675,0,0,1-.709,3.525,11.8,11.8,0,0,1-1.467,2.418l.221.778Z" transform="translate(-209.358 -151.433)" fill="#ebeeee"/></g><path d="M259.556,129.658l.276,97.451L198.2,262.691l-.276-97.451Zm-30.784,30.573c-8.9,5.136-16.09,17.6-16.062,27.82.029,10.082,7.062,14.228,15.78,9.43h0c.129-.07.258-.143.387-.218.3-.173.6-.357.9-.547q.088-.055.176-.113l.076-.049c8.365-5.507,14.941-17.323,14.914-27.11-.03-10.222-7.263-14.353-16.167-9.213m-14.437,55.552.007,2.273,29.035-16.764-.007-2.272-29.035,16.762m21.191-14.96-.007-2.272-13.361,7.715.007,2.272,13.361-7.715m18.345,3.879-13.234,7.641,0,1.365,13.234-7.641,0-1.365m-5.809,21.016c0,.581.416.817.927.521l4.21-2.431a2.026,2.026,0,0,0,.922-1.588l-.014-4.845c0-.581-.416-.817-.927-.521l-4.21,2.431a2.022,2.022,0,0,0-.921,1.588l.013,4.845m-3.053-6.8,8.888-5.132,0-1.364L245,217.557l0,1.364m-11.667,2.864,20.545-11.861,0-1.356-20.545,11.861,0,1.356m-.022-7.714,20.545-11.861h0l0-1.365-20.545,11.861h0l0,1.365m-29.565,38.284c0,.507.352.714.792.46l20.936-12.088a1.728,1.728,0,0,0,.787-1.37l-.023-8.392c0-.507-.352-.706-.792-.452L204.517,242.6a1.719,1.719,0,0,0-.787,1.362l.023,8.392m-.038-13.385c0,.5.352.706.792.452l20.936-12.088a1.729,1.729,0,0,0,.787-1.362l-.023-8.4c0-.507-.352-.706-.792-.452L204.48,229.208a1.719,1.719,0,0,0-.787,1.362l.023,8.4" transform="translate(-197.924 -129.658)" fill="#fafafa"/><g transform="translate(42.713 75.045)"><path d="M215.735,188.637l-13.234,7.64,0-1.365,13.234-7.641Z" transform="translate(-202.498 -187.272)" fill="#ebeeee"/></g><g transform="translate(41.547 56.689)"><path d="M213.452,173.4c.046-.072.091-.145.136-.218C213.543,173.253,213.5,173.326,213.452,173.4Z" transform="translate(-213.452 -173.18)" fill="#0e7380"/></g><g transform="translate(41.416 56.907)"><path d="M213.556,173.554c.044-.069.089-.138.132-.207C213.645,173.416,213.6,173.485,213.556,173.554Z" transform="translate(-213.556 -173.347)" fill="#0e7380"/></g><g transform="translate(39.202 60.021)"><path d="M215.231,175.945l.163-.207C215.339,175.807,215.284,175.876,215.231,175.945Z" transform="translate(-215.231 -175.738)" fill="#0e7380"/></g><g transform="translate(39.067 60.228)"><path d="M215.356,176.066c.046-.056.09-.113.135-.169C215.446,175.953,215.4,176.01,215.356,176.066Z" transform="translate(-215.356 -175.897)" fill="#0e7380"/></g><g transform="translate(38.51 60.774)"><path d="M215.694,176.621l.253-.3Z" transform="translate(-215.694 -176.316)" fill="#0e7380"/></g><g transform="translate(33.424 65.71)"><path d="M219.54,180.357c.109-.082.219-.167.328-.251C219.759,180.191,219.649,180.275,219.54,180.357Z" transform="translate(-219.54 -180.106)" fill="#0e7380"/></g><g transform="translate(27.66 69.115)"><path d="M224.209,182.724h0l.011,0Z" transform="translate(-224.209 -182.72)" fill="#0e7380"/></g><g transform="translate(27.342 69.115)"><path d="M224.208,182.828c.105-.034.212-.068.319-.1l.01,0h0Z" transform="translate(-224.208 -182.72)" fill="#0e7380"/></g><g transform="translate(30.769 60.018)"><path d="M221.753,175.735l-.016.035.122.07Z" transform="translate(-221.736 -175.735)" fill="#7d7d7e"/></g><g transform="translate(25.14 69.691)"><path d="M226,183.189l.2-.027Z" transform="translate(-226.002 -183.162)" fill="#0e7380"/></g><g transform="translate(24.738 69.737)"><path d="M226.259,183.226l.263-.029Z" transform="translate(-226.259 -183.197)" fill="#0e7380"/></g><g transform="translate(24.367 69.778)"><path d="M226.573,183.246l.225-.017Z" transform="translate(-226.573 -183.229)" fill="#0e7380"/></g><g transform="translate(23.9 69.81)"><path d="M226.994,183.257l.143,0Z" transform="translate(-226.994 -183.253)" fill="#0e7380"/></g><g transform="translate(23.291 69.806)"><path d="M227.348,183.25c.1,0,.194.008.292.009C227.542,183.258,227.446,183.254,227.348,183.25Z" transform="translate(-227.348 -183.25)" fill="#0e7380"/></g><g transform="translate(22.539 69.742)"><path d="M228.043,183.2c.046.007.092.01.138.016Z" transform="translate(-228.043 -183.201)" fill="#0e7380"/></g><g transform="translate(21.845 69.625)"><path d="M228.587,183.111l.124.026Z" transform="translate(-228.587 -183.111)" fill="#0e7380"/></g><g transform="translate(21.681 69.589)"><path d="M228.682,183.084l.164.035Z" transform="translate(-228.682 -183.084)" fill="#0e7380"/></g><g transform="translate(21.547 69.557)"><path d="M228.808,183.059l.134.033Z" transform="translate(-228.808 -183.059)" fill="#0e7380"/></g><g transform="translate(21.394 69.518)"><path d="M228.911,183.029l.152.039Z" transform="translate(-228.911 -183.029)" fill="#0e7380"/></g><g transform="translate(20.906 69.369)"><path d="M229.269,182.915c.057.02.116.039.175.057C229.385,182.954,229.326,182.935,229.269,182.915Z" transform="translate(-229.269 -182.915)" fill="#0e7380"/></g><g transform="translate(20.606 69.261)"><path d="M229.534,182.832l.129.05Z" transform="translate(-229.534 -182.832)" fill="#0e7380"/></g><g transform="translate(20.468 69.208)"><path d="M229.633,182.791c.046.018.091.036.138.053C229.724,182.827,229.679,182.809,229.633,182.791Z" transform="translate(-229.633 -182.791)" fill="#0e7380"/></g><g transform="translate(20.338 69.153)"><path d="M229.739,182.749c.043.02.087.036.13.055C229.826,182.785,229.782,182.769,229.739,182.749Z" transform="translate(-229.739 -182.749)" fill="#0e7380"/></g><g transform="translate(20.198 69.092)"><path d="M229.839,182.7c.046.021.092.042.139.061C229.931,182.744,229.885,182.723,229.839,182.7Z" transform="translate(-229.839 -182.702)" fill="#0e7380"/></g><g transform="translate(20.077 69.037)"><path d="M229.946,182.66l.121.055Z" transform="translate(-229.946 -182.66)" fill="#0e7380"/></g><g transform="translate(19.842 68.921)"><path d="M230.039,182.571c.078.04.156.078.236.116C230.2,182.649,230.117,182.611,230.039,182.571Z" transform="translate(-230.039 -182.571)" fill="#0e7380"/></g><g transform="translate(19.732 68.864)"><path d="M230.22,182.527l.109.057Z" transform="translate(-230.22 -182.527)" fill="#0e7380"/></g><g transform="translate(19.472 68.718)"><path d="M230.41,182.415l.122.07Z" transform="translate(-230.41 -182.415)" fill="#0e7380"/></g><g transform="translate(19.198 68.55)"><path d="M230.691,182.287l.03.018-.03-.02Z" transform="translate(-230.691 -182.286)" fill="#0e7380"/></g><g transform="translate(19.198 33.197)"><path d="M214.946,182.849l-.142-.145.935-1.687.452.065.293-1.392a2.235,2.235,0,0,1-1.364-.689,12.128,12.128,0,0,1-.686-2.737c-.191.04-.409-.112-.676-.535-.594-.943-.95-3.242-.3-3.616a42.144,42.144,0,0,1-.763-5.485c.09-1.067,2.807-7.2,5.1-9.436a5.418,5.418,0,0,1,1.085-.81c2.54-1.465,6.523-1.52,7.742-.735.053.065,1.065,1.309.982,2.068-.036.306-.21,1.732-.405,3.333-.108.892-.224,1.839-.326,2.675l.035-.057c0,.018-.033.369-.09.965l.014-.021a1.669,1.669,0,0,1,.525-.525c.641-.37.3,2.332-.288,3.956-.309.856-.552,1.262-.766,1.386a.3.3,0,0,1-.042.02,25.032,25.032,0,0,1-.667,3.505,11.8,11.8,0,0,1-1.467,2.418l.221.778-.085-.053.085.053.755.477.108.068-1.781,3.891,1.781-3.891-.108-.068c.517.036,1.3.093,2.175.158a31.655,31.655,0,0,1,4.624.156l-.033.06c-.036.066-.074.132-.111.2l-.133.233-.115.2-.142.242-.117.2q-.111.186-.223.367c-.04.066-.082.133-.124.2s-.09.146-.135.218-.087.138-.132.207l-.133.207-.133.2c-.048.074-.1.147-.147.221-.076.112-.151.225-.228.337-.047.07-.1.141-.143.211s-.1.139-.146.208-.087.125-.132.186l-.152.214-.133.184-.152.207c-.057.078-.116.155-.175.233-.078.1-.158.208-.237.313l-.139.181c-.055.069-.109.138-.163.207l-.135.169c-.055.069-.109.137-.165.206s-.092.115-.139.171l-.253.3c-.061.073-.122.146-.185.219l-.165.191-.148.171-.168.19-.148.165c-.056.063-.112.125-.169.186l-.168.182-.266.283-.18.189c-.056.059-.113.116-.169.173l-.161.164-.171.172-.168.164-.165.161c-.087.085-.176.168-.264.251l-.185.172c-.068.064-.135.125-.2.188l-.16.143c-.062.056-.125.113-.189.168s-.108.1-.163.143l-.2.173-.147.125c-.1.089-.21.174-.315.26l2.147-10.427-2.162,10.44c-.038.031-.076.062-.115.092-.078.064-.158.126-.237.189l-.128.1c-.108.085-.217.168-.327.25l-.09.068q-.133.1-.266.2l-.125.091c-.092.066-.185.132-.279.2l-.1.072c-.1.073-.21.145-.314.215l-.129.085-.1.063-.182.117-.078.051-.348.216-.1.06c-.121.073-.242.146-.365.216s-.258.147-.387.218c-.046.026-.093.05-.138.074l-.246.132-.163.083-.219.111-.175.086-.086.04-.082.039c-.1.049-.208.1-.313.143-.047.021-.092.043-.139.063-.112.05-.224.1-.335.143l-.108.044c-.143.059-.287.115-.44.172s-.3.111-.462.164l-2.2-7.9Zm5.462-10.755-.121.07.121-.07a.364.364,0,0,1,.031-.035A.364.364,0,0,0,220.408,172.094Zm.983,6.6a9.584,9.584,0,0,1-.728.7l-.168.215.169-.215A9.836,9.836,0,0,0,221.391,178.7Zm-.061,4.576h0l-1.079,1.869Zm-1.211-1.2-.107-.105L220,182Zm-4.831-6.954a2.032,2.032,0,0,1-.165-.31,7.021,7.021,0,0,0-.594-2.065,12.112,12.112,0,0,0,.594,2.065,2.032,2.032,0,0,0,.165.31,1.074,1.074,0,0,0,.31.3A1.074,1.074,0,0,1,215.288,175.116Z" transform="translate(-208.425 -155.145)" fill="#b8b8b8"/><path d="M230.481,176.657l2.2,7.9c-.107.036-.214.072-.319.105l-.132.039c-.074.023-.147.044-.22.065-.051.016-.1.029-.152.043l-.2.053-.146.038-.237.056-.108.025c-.107.023-.215.046-.322.066l-.139.025-.2.034-.147.023-.2.027-.139.018-.263.029-.146.013-.225.017-.141.006q-.092.006-.184.008l-.142,0H228.6c-.1,0-.2-.005-.292-.009l-.122-.007-.184-.012-.139-.013-.168-.017-.138-.016-.181-.025c-.038-.007-.077-.012-.116-.017-.091-.016-.182-.031-.274-.05l-.124-.026-.164-.035-.134-.033-.152-.039c-.044-.012-.089-.023-.132-.036-.061-.017-.122-.036-.182-.055s-.117-.038-.175-.057-.115-.038-.171-.059l-.129-.049c-.047-.017-.092-.035-.138-.053s-.087-.035-.13-.055-.094-.04-.139-.061l-.121-.055c-.079-.038-.158-.076-.236-.115l-.109-.059c-.046-.025-.092-.049-.138-.076l-.122-.07-.125-.074-.119-.074-.03-.02C226.1,181.5,230.258,176.885,230.481,176.657Z" transform="translate(-224.217 -148.637)" fill="#b8b8b8"/></g></g><g transform="translate(74.459 6.857)"><path d="M329.428,134.922l.353,124.535-78.762,45.473L250.666,180.4Z" transform="translate(-250.666 -134.922)" fill="url(#f)"/><path d="M321.779,138.2l.353,124.535L243.37,308.209l-.353-124.535Z" transform="translate(-233.053 -133.931)" fill="url(#f)"/><g transform="translate(17.081 14.234)"><g transform="translate(24.572 87.628)"><path d="M279.311,213.125l.151.094Z" transform="translate(-279.311 -213.125)" fill="#0e7380"/></g><g transform="translate(7.421 128.746)"><path d="M271.489,260.281a2.2,2.2,0,0,0-1.006,1.741l.031,10.724c0,.647.448.913,1.012.587l26.753-15.447a2.207,2.207,0,0,0,1.006-1.752l-.03-10.724c0-.647-.448-.9-1.012-.577Z" transform="translate(-270.483 -244.692)" fill="#c5c5c5"/></g><g transform="translate(64.055 111.269)"><path d="M244.335,234.544a2.586,2.586,0,0,0-1.177,2.029l.017,6.192c0,.741.531,1.043,1.185.666l5.381-3.107a2.59,2.59,0,0,0,1.178-2.029L250.9,232.1c0-.741-.53-1.043-1.185-.666Z" transform="translate(-243.157 -231.275)" fill="#1ce5ff"/></g><g transform="translate(60.165 105.77)"><path d="M243.377,233.612l0,1.744,11.359-6.558,0-1.744Z" transform="translate(-243.377 -227.053)" fill="#ebeeee"/></g><g transform="translate(45.256 100.842)"><path d="M243.387,238.427l0,1.733L269.646,225l-.005-1.733Z" transform="translate(-243.387 -223.269)" fill="#ebeeee"/></g><g transform="translate(37.645 87.295)"><path d="M269.226,212.971l.078-.035.137-.066Z" transform="translate(-269.226 -212.869)" fill="#0e7380"/></g><g transform="translate(45.229 90.974)"><path d="M243.409,230.851l0,1.744,26.254-15.158-.005-1.744Z" transform="translate(-243.409 -215.693)" fill="#ebeeee"/></g><g transform="translate(30.969 88.042)"><path d="M261.4,223.3l.008,2.9,17.076-9.859-.008-2.9Z" transform="translate(-261.4 -213.443)" fill="#ebeeee"/></g><g transform="translate(43.747 83.134)"><path d="M264.4,210.01c.134-.111.268-.221.4-.335-.141.119-.281.234-.422.35Z" transform="translate(-264.382 -209.675)" fill="#0e7380"/></g><g transform="translate(43.767 70.058)"><path d="M259.162,199.721l-2.743,13.325c.134-.109.27-.22.4-.333.064-.052.125-.107.189-.16l.258-.221.207-.181.242-.215.2-.185c.087-.078.175-.158.26-.238s.158-.147.237-.221c.113-.105.225-.212.337-.32l.211-.206.215-.211.219-.219.206-.208.216-.223.231-.241c.113-.12.227-.24.339-.361l.216-.233.215-.238c.064-.07.128-.141.19-.212l.215-.242.189-.218.212-.245.236-.28c.108-.129.216-.258.323-.388.06-.073.12-.146.178-.22s.142-.175.211-.262l.173-.218.207-.264c.06-.077.12-.154.178-.231l.3-.4c.074-.1.148-.2.223-.3s.129-.176.193-.264.115-.156.171-.234.13-.181.194-.272.112-.159.168-.238l.188-.267.184-.27c.1-.143.194-.287.29-.431.063-.1.126-.189.188-.283l.171-.262.171-.264.168-.264c.057-.093.116-.185.173-.279l.158-.254c.1-.155.19-.313.284-.469.051-.085.1-.169.15-.254.061-.1.121-.206.181-.31.049-.083.1-.169.147-.254s.113-.2.169-.3c.047-.083.1-.168.142-.253l.042-.076a40.248,40.248,0,0,0-5.91-.2C260.056,199.679,259.208,199.719,259.162,199.721Z" transform="translate(-256.419 -199.636)" fill="#001030"/></g><g transform="translate(45.766 81.392)"><path d="M262.9,208.657c.113-.105.225-.212.337-.32C263.122,208.445,263.01,208.552,262.9,208.657Z" transform="translate(-262.897 -208.337)" fill="#0e7380"/></g><g transform="translate(39.648 69.875)"><path d="M263.1,208.752l-.766-.761-1.379,2.388,1.279,4.792.121-.079.164-.108q.2-.135.4-.274l.132-.093c.119-.082.237-.167.356-.251.053-.038.107-.077.159-.116q.17-.123.34-.25l.116-.086c.139-.106.279-.212.417-.32l.164-.129c.1-.079.2-.16.3-.241l.147-.119,2.763-13.342c.046,0,.894-.042,2.122-.066-1.116-.083-2.119-.155-2.778-.2l.138.087Z" transform="translate(-260.956 -199.495)" fill="#c5c5c5"/></g><g transform="translate(20.973 88.641)"><path d="M253.7,235.325l.008,2.9,37.1-21.422-.008-2.9Z" transform="translate(-253.698 -213.903)" fill="#ebeeee"/></g><g transform="translate(37.643 76.743)"><path d="M268.629,204.858l-.156-.09-1.679,3.629,1.353.764.323-1.611.329,1.234,1.379-2.388Z" transform="translate(-266.794 -204.768)" fill="#001030"/></g><g transform="translate(7.372 111.631)"><path d="M271.526,247.141a2.194,2.194,0,0,0-1.006,1.741l.03,10.734c0,.637.449.9,1.012.577l26.754-15.447a2.206,2.206,0,0,0,1.006-1.74l-.03-10.736c0-.647-.449-.9-1.012-.577Z" transform="translate(-270.52 -231.553)" fill="#c5c5c5"/></g><g transform="translate(47.33 53.808)"><path d="M261.27,187.874l-.018.027c-.139,1.431-.393,3.887-.71,6.154a.475.475,0,0,0,.053-.025c.272-.158.583-.677.978-1.771.75-2.075,1.187-5.527.369-5.055A2.141,2.141,0,0,0,261.27,187.874Z" transform="translate(-260.542 -187.16)" fill="#ff9d6f"/></g><g transform="translate(40.694 85.698)"><path d="M267.047,211.646h0l.006,0Z" transform="translate(-267.045 -211.643)" fill="#0e7380"/></g><g transform="translate(40.696 85.471)"><path d="M267.13,211.469c-.117.078-.234.154-.352.229l0,0,.227-.146Z" transform="translate(-266.778 -211.469)" fill="#0e7380"/></g><g transform="translate(37.751 79.525)"><path d="M268.006,214.147l.176-.1c.165-.09.33-.182.495-.277l.466-.276.126-.077c.149-.091.3-.182.444-.276l.1-.065c.078-.049.155-.1.233-.151l-1.279-4.792-.33-1.234-.323,1.611-1.244,6.209.109-.052c.074-.035.147-.072.222-.108.094-.047.188-.094.28-.142.07-.035.139-.07.208-.107C267.8,214.261,267.9,214.2,268.006,214.147Z" transform="translate(-266.871 -206.904)" fill="#001030"/></g><g transform="translate(37.723 87.295)"><path d="M269.363,212.869l-.137.066.026-.013.111-.053Z" transform="translate(-269.226 -212.869)" fill="#0e7380"/></g><g transform="translate(37.749 87.293)"><path d="M269.337,212.868h0l-.111.053h0Z" transform="translate(-269.225 -212.868)" fill="#0e7380"/></g><g transform="translate(32.539 77.828)"><path d="M272.728,209.722l-4.044-4.121-.329.4,2.811,10.1c.2-.069.4-.138.59-.21s.379-.146.563-.22l.137-.057c.143-.059.285-.12.429-.182l.18-.079.4-.184.106-.051,1.244-6.209-1.352-.765Z" transform="translate(-268.354 -205.601)" fill="#c5c5c5"/></g><g transform="translate(34.46 68.271)"><path d="M263.831,205.565l4.881.7,5.438-7.074.108.069-.283-1a35.425,35.425,0,0,1-4.429,5.142l-.373.477-.372-.047a10.224,10.224,0,0,1-4.6-.052Z" transform="translate(-263.831 -198.264)" fill="#ff9d6f"/></g><g transform="translate(48.04 49.971)"><path d="M261.49,185.334V185.3c.017-.324.035-.658.034-.993,0-.033,0-.064,0-.1-.139,1.14-.287,2.35-.417,3.419l.044-.074c0,.023-.04.473-.115,1.233l.018-.027c.1-.731.181-1.4.25-1.942C261.384,186.327,261.454,185.825,261.49,185.334Z" transform="translate(-261.035 -184.214)" fill="#89543c"/></g><g transform="translate(32.334 64.912)"><path d="M272.885,195.685a15.612,15.612,0,0,0,.759,2.638A8.932,8.932,0,0,0,272.885,195.685Z" transform="translate(-272.885 -195.685)" fill="#89543c"/></g><g transform="translate(32.038 46.377)"><path d="M270.938,186.707c-2.023,2.464-7.913,7.962-8.223,8.252l-.78.973.109,3.143c.05.258.112.573.186.916a8.933,8.933,0,0,1,.759,2.638,2.48,2.48,0,0,0,.212.4c.434.642,1.261.8,2.289.21a6.891,6.891,0,0,0,1.876-1.745,9.3,9.3,0,0,1,2.042-2.173c.137-.079.178-.064.181-.064l.155-.089a.523.523,0,0,1,.181-.147,3.4,3.4,0,0,1,2.057-.194,2.989,2.989,0,0,0,1.876-.419,5.646,5.646,0,0,0,2.285-2.85,33.635,33.635,0,0,0,1.11-5.145l-.207-.731c-.125-.253-2.5-5.053-2.846-8.222A25.217,25.217,0,0,1,270.938,186.707Z" transform="translate(-261.935 -181.455)" fill="#ff9d6f"/></g><g transform="translate(29.981 42.424)"><path d="M267.162,181.038c-2.932,2.854-6.406,10.7-6.52,12.059a53.746,53.746,0,0,0,.976,7.009l.533.193.671.242-.02-.548-.109-3.143.78-.973c.31-.289,6.2-5.787,8.223-8.252a25.217,25.217,0,0,0,3.262-5.252c.346,3.169,2.721,7.969,2.846,8.222l.207.731.362,1.273c.009-.07.172-1.407.392-3.212.13-1.069.277-2.279.417-3.419.249-2.046.47-3.869.517-4.259.107-.972-1.187-2.559-1.254-2.644-1.558-1-6.649-.934-9.894.94A6.921,6.921,0,0,0,267.162,181.038Z" transform="translate(-260.634 -178.42)" fill="#1e1526"/></g><g transform="translate(54.188 70.605)"><path d="M256.56,200.354c.056-.1.113-.2.169-.3C256.673,200.156,256.616,200.255,256.56,200.354Z" transform="translate(-256.56 -200.056)" fill="#0e7380"/></g><g transform="translate(54.506 70.277)"><path d="M256.454,199.8h0l-.035.064Z" transform="translate(-256.419 -199.804)" fill="#0e7380"/></g><g transform="translate(54.5 70.277)"><path d="M256.419,199.88l.006-.012.035-.064Z" transform="translate(-256.419 -199.804)" fill="#0e7380"/></g><g transform="translate(18.897 36.246)"><path d="M279.121,207.306c.659.047,1.662.119,2.778.2a40.244,40.244,0,0,1,5.91.2c3.452-6.234,5.558-13.16,5.541-19.433-.038-13.064-9.282-18.342-20.66-11.774s-20.563,22.488-20.525,35.551c.017,6.274,2.16,10.749,5.637,12.981,2.407-3.182,7.719-9.08,8-9.391.119-.12.229-.254.335-.384l-.181-.185,1.194-2.154.578.083.374-1.781a2.858,2.858,0,0,1-1.741-.879,15.474,15.474,0,0,1-.878-3.5c-.244.052-.522-.142-.864-.685-.759-1.2-1.214-4.142-.387-4.619a53.737,53.737,0,0,1-.976-7.009c.115-1.364,3.588-9.205,6.52-12.059a6.921,6.921,0,0,1,1.387-1.034c3.245-1.874,8.336-1.945,9.894-.94.068.085,1.361,1.672,1.254,2.644-.047.391-.268,2.213-.517,4.259,0,.431-.016.765-.033,1.089-.035.522-.105,1.024-.186,1.52-.069.547-.154,1.211-.25,1.942a2.141,2.141,0,0,1,.672-.669c.818-.471.382,2.98-.369,5.055-.395,1.094-.706,1.614-.978,1.771a39.728,39.728,0,0,1-.905,4.5,15.072,15.072,0,0,1-1.874,3.088l.283,1Z" transform="translate(-252.165 -173.677)" fill="url(#h)"/></g><path d="M316.315,145.85l.353,124.534-78.762,45.474-.353-124.536Zm-39.339,39.071c-11.369,6.564-20.563,22.488-20.525,35.551.036,12.883,9.024,18.182,20.165,12.051h0c.165-.09.33-.182.495-.277q.576-.334,1.145-.7l.225-.146.1-.064c10.69-7.038,19.094-22.137,19.059-34.644-.038-13.063-9.282-18.342-20.66-11.774m-18.45,70.992.009,2.9,37.1-21.423-.008-2.9-37.105,21.422M285.606,236.8l-.009-2.9-17.075,9.859.008,2.9,17.076-9.858m23.443,4.956-16.912,9.765.005,1.743,16.912-9.764-.005-1.744m-7.424,26.858c0,.741.531,1.043,1.185.666l5.381-3.107a2.59,2.59,0,0,0,1.178-2.029l-.018-6.192c0-.741-.53-1.043-1.185-.666l-5.38,3.107a2.587,2.587,0,0,0-1.177,2.029l.017,6.192m-3.9-8.688,11.359-6.558-.005-1.744-11.359,6.558.005,1.744m-14.909,3.66,26.254-15.158-.005-1.734L282.81,261.85l.005,1.732m-.029-9.858,26.254-15.158h0l0-1.744-26.255,15.159h0l.005,1.743M245,302.649c0,.647.448.913,1.012.587l26.754-15.447a2.21,2.21,0,0,0,1-1.752l-.03-10.724c0-.647-.448-.9-1.012-.577l-26.754,15.447a2.2,2.2,0,0,0-1.006,1.741L245,302.649m-.049-17.1c0,.637.449.9,1.012.577l26.754-15.447a2.206,2.206,0,0,0,1.006-1.74L273.7,258.2c0-.647-.449-.9-1.012-.577l-26.754,15.447a2.194,2.194,0,0,0-1.006,1.741l.03,10.734" transform="translate(-237.553 -145.85)" fill="#fff"/><g transform="translate(54.585 95.902)"><path d="M260.315,221.221,243.4,230.985l0-1.744,16.912-9.764Z" transform="translate(-243.398 -219.477)" fill="#1ce5ff"/></g><g transform="translate(53.095 72.445)"><path d="M257.4,201.747c.057-.093.116-.185.173-.279C257.512,201.562,257.453,201.654,257.4,201.747Z" transform="translate(-257.396 -201.468)" fill="#0e7380"/></g><g transform="translate(52.927 72.723)"><path d="M257.529,201.946l.168-.264Z" transform="translate(-257.529 -201.682)" fill="#0e7380"/></g><g transform="translate(50.098 76.703)"><path d="M259.671,205l.207-.264Z" transform="translate(-259.671 -204.737)" fill="#0e7380"/></g><g transform="translate(49.925 76.967)"><path d="M259.83,205.158l.173-.218Z" transform="translate(-259.83 -204.94)" fill="#0e7380"/></g><g transform="translate(49.212 77.666)"><path d="M260.262,205.865c.108-.129.216-.258.323-.388C260.478,205.607,260.37,205.736,260.262,205.865Z" transform="translate(-260.262 -205.477)" fill="#0e7380"/></g><g transform="translate(42.714 83.973)"><path d="M265.177,210.641c.141-.106.28-.214.419-.322C265.457,210.427,265.318,210.535,265.177,210.641Z" transform="translate(-265.177 -210.319)" fill="#0e7380"/></g><g transform="translate(35.348 88.325)"><path d="M271.143,213.665h0l.013,0Z" transform="translate(-271.143 -213.66)" fill="#0e7380"/></g><g transform="translate(34.941 88.324)"><path d="M271.142,213.8c.135-.043.271-.087.408-.133l.014-.005h0C271.423,213.707,271.283,213.754,271.142,213.8Z" transform="translate(-271.142 -213.659)" fill="#0e7380"/></g><g transform="translate(39.322 76.699)"><path d="M268,204.734l-.021.045.156.09Z" transform="translate(-267.984 -204.734)" fill="#7d7d7e"/></g><g transform="translate(32.128 89.061)"><path d="M273.435,214.26l.249-.035Z" transform="translate(-273.435 -214.225)" fill="#0e7380"/></g><g transform="translate(31.497 53.315)"><path d="M261.973,197.463l.02.548-.671-.242c.15,1.28.406,3.31.718,5.111a15.478,15.478,0,0,0,.878,3.5,2.858,2.858,0,0,0,1.741.879,10.224,10.224,0,0,0,4.6.052l.372.047.373-.477a35.433,35.433,0,0,0,4.429-5.142,15.067,15.067,0,0,0,1.874-3.088,32.076,32.076,0,0,0,.852-4.479c.316-2.268.57-4.723.71-6.154.074-.761.113-1.21.115-1.234l-.044.074c-.22,1.805-.383,3.142-.392,3.212l-.362-1.273a33.622,33.622,0,0,1-1.11,5.145,5.646,5.646,0,0,1-2.285,2.85,2.989,2.989,0,0,1-1.876.419,3.411,3.411,0,0,0-2.057.194.521.521,0,0,0-.181.147l-.155.089s-.044-.016-.181.064a9.3,9.3,0,0,0-2.042,2.173,6.891,6.891,0,0,1-1.876,1.745c-1.029.594-1.855.432-2.289-.21a2.486,2.486,0,0,1-.212-.4,15.612,15.612,0,0,1-.759-2.638C262.085,198.036,262.023,197.721,261.973,197.463Z" transform="translate(-261.322 -186.782)" fill="#1e1526"/></g><g transform="translate(39.341 69.198)"><path d="M268.42,198.975l-5.437,7.073.187.027-.186.4.135.134,1.549,1.538.766.761,4.2-9.17-.138-.087-.966-.609Z" transform="translate(-262.983 -198.975)" fill="#898989"/></g><g transform="translate(31.614 89.12)"><path d="M273.763,214.305c.112-.01.223-.022.336-.035C273.986,214.283,273.875,214.295,273.763,214.305Z" transform="translate(-273.763 -214.27)" fill="#0e7380"/></g><g transform="translate(31.14 89.172)"><path d="M274.164,214.332l.288-.022Z" transform="translate(-274.164 -214.31)" fill="#0e7380"/></g><g transform="translate(30.543 89.212)"><path d="M274.7,214.346l.182-.005Z" transform="translate(-274.703 -214.341)" fill="#0e7380"/></g><g transform="translate(29.764 89.207)"><path d="M275.155,214.337c.124.007.247.009.372.012C275.4,214.346,275.279,214.344,275.155,214.337Z" transform="translate(-275.155 -214.337)" fill="#0e7380"/></g><g transform="translate(28.803 89.125)"><path d="M276.042,214.274l.178.021Z" transform="translate(-276.042 -214.274)" fill="#0e7380"/></g><g transform="translate(27.916 88.976)"><path d="M276.738,214.16l.159.033Z" transform="translate(-276.738 -214.16)" fill="#0e7380"/></g><g transform="translate(27.706 88.931)"><path d="M276.86,214.125l.21.046Z" transform="translate(-276.86 -214.125)" fill="#0e7380"/></g><g transform="translate(27.534 88.889)"><path d="M277.021,214.093l.172.042Z" transform="translate(-277.021 -214.093)" fill="#0e7380"/></g><g transform="translate(27.34 88.838)"><path d="M277.153,214.054c.064.018.129.035.194.051C277.282,214.089,277.217,214.072,277.153,214.054Z" transform="translate(-277.153 -214.054)" fill="#0e7380"/></g><g transform="translate(26.716 88.649)"><path d="M277.61,213.909c.074.026.149.05.223.073C277.759,213.959,277.684,213.935,277.61,213.909Z" transform="translate(-277.61 -213.909)" fill="#0e7380"/></g><g transform="translate(26.333 88.511)"><path d="M277.949,213.8c.055.021.109.043.164.063C278.058,213.846,278,213.824,277.949,213.8Z" transform="translate(-277.949 -213.803)" fill="#0e7380"/></g><g transform="translate(32.687 75.489)"><path d="M269.719,203.888l-.578-.083-1.2,2.155.181.185,4.045,4.121.73-1.577,1.679-3.629.021-.045.186-.4-.187-.027Z" transform="translate(-267.945 -203.805)" fill="#898989"/></g><g transform="translate(26.158 88.442)"><path d="M278.075,213.75l.176.069Z" transform="translate(-278.075 -213.75)" fill="#0e7380"/></g><g transform="translate(25.991 88.373)"><path d="M278.21,213.7c.055.025.111.047.167.069C278.321,213.744,278.265,213.72,278.21,213.7Z" transform="translate(-278.21 -213.697)" fill="#0e7380"/></g><g transform="translate(25.812 88.295)"><path d="M278.338,213.637c.059.026.119.053.178.078C278.457,213.69,278.4,213.663,278.338,213.637Z" transform="translate(-278.338 -213.637)" fill="#0e7380"/></g><g transform="translate(25.657 88.225)"><path d="M278.475,213.583c.051.025.1.047.155.07Z" transform="translate(-278.475 -213.583)" fill="#0e7380"/></g><g transform="translate(25.356 88.078)"><path d="M278.594,213.47c.1.051.2.1.3.147C278.793,213.57,278.694,213.521,278.594,213.47Z" transform="translate(-278.594 -213.47)" fill="#0e7380"/></g><g transform="translate(25.217 88.003)"><path d="M278.825,213.413c.047.025.092.051.139.074C278.918,213.464,278.872,213.438,278.825,213.413Z" transform="translate(-278.825 -213.413)" fill="#0e7380"/></g><g transform="translate(24.884 87.817)"><path d="M279.068,213.27l.156.09Z" transform="translate(-279.068 -213.27)" fill="#0e7380"/></g><g transform="translate(24.535 78.233)"><path d="M279.157,205.912c-.285.291-5.6,6.188-8,9.37l.038.025.151.094.16.1.156.09c.059.033.117.065.177.1s.092.051.139.074c.1.051.2.1.3.147l.155.07c.059.026.118.053.178.078s.111.047.167.069l.176.069c.055.021.109.043.164.063l.219.076c.074.026.148.049.223.073s.155.048.233.07l.168.046c.064.018.129.035.194.051l.172.042.21.046.159.033c.116.023.232.044.35.062l.147.022c.077.01.154.022.231.031l.179.021.212.022.18.016.233.016c.053,0,.106.007.158.008.124.007.247.009.373.012h.406l.182-.005.233-.009.181-.009.288-.022.186-.017c.112-.01.223-.022.336-.035l.179-.023.249-.035.189-.03c.085-.013.169-.029.255-.044l.177-.031c.137-.027.274-.055.412-.085l.138-.031.3-.072.188-.048c.086-.022.172-.044.259-.069l.194-.053.281-.083.168-.051c.135-.043.272-.087.409-.134Z" transform="translate(-271.153 -205.912)" fill="#001030"/></g><g transform="translate(24.535 87.603)"><path d="M279.427,213.106l.038.025-.038-.025Z" transform="translate(-279.427 -213.106)" fill="#0e7380"/></g><g transform="translate(30.523 64.11)"><path d="M274,195.069c-.827.477-.373,3.415.387,4.619.341.543.62.737.864.685-.311-1.8-.568-3.831-.718-5.111Z" transform="translate(-273.56 -195.069)" fill="#ff9d6f"/></g></g></g></g><g transform="translate(113.767 238.365)"><g transform="translate(0)"><g transform="translate(9.671 47.33)"><path d="M304.262,287.806a3.079,3.079,0,0,0-1.4,2.431c0,.9.632,1.256,1.413.8a3.092,3.092,0,0,0,1.409-2.434C305.678,287.71,305.044,287.356,304.262,287.806Z" transform="translate(-302.858 -287.611)" fill="url(#i)"/></g><g transform="translate(0 0)"><path d="M332.594,251.274l-86.774,50.1.033,11.333,18.625-10.754a11.566,11.566,0,0,0,3.9-4.035l2.583-4.3a10.63,10.63,0,0,1,3.592-3.721l58.054-33.518ZM250,306.022c-.775.447-1.411.092-1.413-.8a3.1,3.1,0,0,1,1.4-2.432c.781-.451,1.416-.1,1.418.8A3.094,3.094,0,0,1,250,306.022m13.809-7.973c-.782.451-1.416.1-1.418-.8a3.092,3.092,0,0,1,1.409-2.434c.782-.451,1.411-.093,1.412.8a3.082,3.082,0,0,1-1.4,2.432m-6.9,3.986c-.782.451-1.411.093-1.413-.8a3.079,3.079,0,0,1,1.4-2.431c.782-.451,1.416-.1,1.418.8a3.092,3.092,0,0,1-1.409,2.434" transform="translate(-245.82 -251.274)" fill="#e2eeff"/></g><g transform="translate(2.767 51.316)"><path d="M309.563,290.866a3.1,3.1,0,0,0-1.4,2.432c0,.9.638,1.252,1.413.8a3.092,3.092,0,0,0,1.409-2.434C310.979,290.771,310.345,290.416,309.563,290.866Z" transform="translate(-308.159 -290.671)" fill="url(#j)"/></g><g transform="translate(0.033)"><g transform="translate(16.538 43.344)"><path d="M298.971,284.745a3.091,3.091,0,0,0-1.409,2.434c0,.9.637,1.253,1.418.8a3.083,3.083,0,0,0,1.4-2.432C300.382,284.653,299.752,284.295,298.971,284.745Z" transform="translate(-297.562 -284.551)" fill="url(#k)"/></g><path d="M332.448,251.274l.014,5.1-58.054,33.518a10.63,10.63,0,0,0-3.592,3.721l-2.583,4.3a11.566,11.566,0,0,1-3.9,4.035l-18.625,10.754.129,45.577,86.774-50.1Z" transform="translate(-245.707 -251.274)" fill="url(#l)"/></g></g><g transform="translate(60.345 20.146)"><path d="M256.333,281.74l-5.112,2.9c-.03,6.126,4.279,8.642,9.639,5.6.207-.117.417-.243.626-.376a21.669,21.669,0,0,0,9.12-15.516c.387-6.659-4.063-9.469-9.624-6.316l-.029,5.861c2.585-1.465,4.663-.193,4.555,2.846a10.264,10.264,0,0,1-4.43,7.536l-.171.1C258.363,285.819,256.318,284.634,256.333,281.74Z" transform="translate(-251.22 -266.741)" fill="#fff"/><g transform="translate(0 1.293)"><path d="M268.388,267.733c-5.361,3.039-9.731,10.474-9.761,16.606l5.112-2.9a10.012,10.012,0,0,1,4.62-7.845Z" transform="translate(-258.627 -267.733)" fill="url(#m)"/></g></g><g transform="translate(13.254 48.015)"><g transform="translate(17.015 0)"><path d="M280.039,294.936l11.993-6.8-.147,29.49-11.993,6.8Z" transform="translate(-279.892 -288.137)" fill="#fff"/></g><g transform="translate(52.994 1.098)"><path d="M252.391,295.78l-.04,7.993,11.993-6.8.04-7.993Z" transform="translate(-252.352 -288.98)" fill="#fff"/></g><g transform="translate(34.81 4.344)"><path d="M266.36,298.271l-.075,15.057,11.993-6.8.075-15.057Z" transform="translate(-266.285 -291.471)" fill="#fff"/></g><g transform="translate(0 4.461)"><path d="M293.11,298.362l-.185,34.676,11.993-6.8.185-34.676Z" transform="translate(-292.925 -291.562)" fill="#fff"/></g></g></g></g><g transform="translate(99.927 9.401)"><g transform="translate(92.708)"><path d="M268.214,68.517l-2.484,8.562-6.665,4.394,5.125,1.987L262.6,91.835l5.656-7.321,5.679.777-1.629-6.52,5.1-7.888-6.658,3.3Z" transform="translate(-259.065 -68.517)" fill="url(#n)"/></g><g transform="translate(69.534 13.38)"><path d="M286.006,78.789l-2.494,8.568-6.655,4.388,5.125,1.987-1.586,8.376,5.656-7.322,5.679.777L290.1,89.044l5.1-7.888-6.668,3.3Z" transform="translate(-276.857 -78.789)" fill="url(#o)"/></g><g transform="translate(46.349 26.765)"><path d="M303.8,89.066l-2.484,8.562-6.665,4.394,5.125,1.987-1.586,8.376,5.656-7.321,5.689.771-1.628-6.52,5.1-7.888-6.668,3.3Z" transform="translate(-294.649 -89.066)" fill="url(#p)"/></g><g transform="translate(23.174 40.145)"><path d="M321.6,99.338l-2.494,8.568-6.655,4.388,5.125,1.987-1.586,8.376,5.656-7.321,5.679.777-1.629-6.52,5.1-7.888-6.658,3.3Z" transform="translate(-312.448 -99.338)" fill="url(#q)"/></g><g transform="translate(0 53.525)"><path d="M339.389,109.61l-2.494,8.568-6.655,4.388,5.125,1.987-1.586,8.376,5.656-7.322,5.679.777-1.629-6.52,5.1-7.888-6.668,3.3Z" transform="translate(-330.24 -109.61)" fill="url(#r)"/></g></g><g transform="translate(216.262 166.298)"><g transform="translate(15.683 238.751)"><path d="M159.381,404.927,208.1,433.239a5.526,5.526,0,0,0,5.544.008l49.054-28.32a1.665,1.665,0,0,0,0-2.881l-48.563-28.222a5.844,5.844,0,0,0-5.858-.008l-48.9,28.23A1.665,1.665,0,0,0,159.381,404.927Z" transform="translate(-158.552 -373.033)" fill="url(#s)"/></g><g transform="translate(15.627 228.638)"><path d="M166.3,391.814l48.719,28.312a5.529,5.529,0,0,0,5.545.008l49.052-28.32a1.665,1.665,0,0,0,0-2.881L221.06,360.711a5.846,5.846,0,0,0-5.859-.008l-48.9,28.23A1.665,1.665,0,0,0,166.3,391.814Z" transform="translate(-165.473 -359.92)" fill="url(#t)"/></g><g transform="translate(0 0)"><g transform="translate(0 43.046)"><g transform="translate(15.639 169.564)"><g transform="translate(0 31.36)"><path d="M214.54,360.993l.018,6.254,53.973,31.366-.018-6.254Z" transform="translate(-214.54 -360.993)" fill="url(#u)"/></g><g transform="translate(53.973 31.366)"><path d="M172.84,392.357l.018,6.254,54.316-31.36L227.156,361Z" transform="translate(-172.84 -360.998)" fill="url(#v)"/></g><g transform="translate(0)"><path d="M172.854,368.277l53.973,31.366,54.316-31.36L227.17,336.917Z" transform="translate(-172.854 -336.917)" fill="#f2f8fd"/></g></g><g transform="translate(0 0)"><path d="M221,358.782s.586,4.3-.2,6.057a4.412,4.412,0,0,1-6.057,1.172,62.236,62.236,0,0,1-5.861-5.471s-6.252-3.321-6.838-5.08,1.563-3.321,3.321-2.931,6.838,3.517,9.183,3.517S220.217,356.633,221,358.782Z" transform="translate(-135.177 -162.647)" fill="#001d59"/><path d="M215.3,287.073s-5.467,90.243-6.148,92.857-7.775,4.116-9.09-.038c-.834-2.636-2.893-86.149-2.893-86.149Z" transform="translate(-123.036 -182.432)" fill="#00255c"/><path d="M235.544,364.358a1.393,1.393,0,0,1,.479,1.051c.013,1.241-.046,4.008-.746,5.085a5.258,5.258,0,0,1-6.79,1.269c-2.531-1.376-10.32-7.2-11.9-8.486a4.659,4.659,0,0,1-1.575-2.49,1.412,1.412,0,0,1,.8-1.637,6.78,6.78,0,0,1,4.68-.538c2.58.867,5.828,3.661,9.342,3.512A8.62,8.62,0,0,1,235.544,364.358Z" transform="translate(-166.951 -160.858)" fill="#001d59"/><path d="M201.872,290.322c.395-3.75,4.883-4.968,9.015-3.691,7.888-.426,20.1-.089,20.527,6.032.634,9.063-3.615,15.53-7.714,19.929-3.028,3.251-5.043,9.469-5.891,12.5-.718,23.934-2.3,57.684-3.293,60.915-1.6,5.2-9.446,4.969-9.8-.1C203.127,368.784,201.872,290.322,201.872,290.322Z" transform="translate(-145.346 -182.714)" fill="#00257f"/><path d="M198.094,250.532c5.093-8.18,16.159-10.591,16.159-10.591,13.584-2.778,17.906,2.161,17.906,2.161a20.78,20.78,0,0,1,4.425,12.24c0,4.823-.552,23.151-.9,34.194.145,7.656.339,15.976.533,17.92.38,3.8-12.536,14.816-36.088,8.737a10.989,10.989,0,0,1-3.8-3.419l-.257-28.471c-.105-1.593-.214-3.249-.324-5.028C194.577,259.519,198.094,250.532,198.094,250.532Z" transform="translate(-142.166 -196.948)" fill="#001d59"/><path d="M262.718,254.94l-.666-3.324-.189-4.369a1.282,1.282,0,0,0-1.615-.285,2.517,2.517,0,0,0-.854,1.9l-1.045,1.329Z" transform="translate(-250.15 -194.626)" fill="#ff7c40"/><path d="M195.869,241.4s9.855,5.676,11.367,31.652c-1.261,4.791-8.826,7.312-14.626,3.53S192.823,245.813,195.869,241.4Z" transform="translate(-105.875 -196.249)" fill="#001d59"/><path d="M242.231,248.872s-2.157,3.083-2.536,5.17,2.466,6.259,3.982,7.4,5.122,1.517,5.122,1.517,18.4,12.327,21.429,12.517,7.4-1.517,7.018-6.449c0,0-22.569-10.05-25.6-11.758s-5.31-7.965-6.449-9.292c0,0-2.322-3.09-2.75-3.447a18.006,18.006,0,0,0-2.849-1.138,12.128,12.128,0,0,0-2.066-.57c-.214.072-.427,1.282.641,2.066a13.565,13.565,0,0,0,2.992,1.425Z" transform="translate(-237.355 -195.823)" fill="#ff9d6f"/><path d="M220.53,232.27s-1.172,6.837,0,9.963c.2,1.563-6.643,6.838-12.7,5.471-3.517-.782-3.321-2.54-3.321-2.54s2.931-4.885,2.54-9.574S216.427,231.293,220.53,232.27Z" transform="translate(-137.835 -199.199)" fill="#ff7c40"/><g transform="translate(56.659)"><circle cx="16.119" cy="16.119" r="16.119" transform="matrix(-0.222, -0.975, 0.975, -0.222, 7.159, 38.591)" fill="#ff9d6f"/><path d="M204.067,223.462s-.505,15.216,3.011,18.475,9.226-2.122,17.858-4.145c8.633-2.217-7-19.005-7-19.005Z" transform="translate(-200.89 -203.091)" fill="#ff9d6f"/></g><path d="M203.568,212.008s-5.8,1.261-7.566,10.087c.757,3.783,6.053.757,8.07,5.8s3.279,6.557,3.279,6.557l1.261-.5s0-4.035,1.765-4.035,2.27,4.792,1.261,6.808a7.459,7.459,0,0,1-3.278,3.027s2.522,4.287,3.783,4.791,5.8-.5,7.566-1.261,5.043-4.287,7.565-8.322,4.791-11.1,3.278-15.887-5.043-6.053-5.043-6.053a12.819,12.819,0,0,0-5.549-4.034A17.573,17.573,0,0,0,203.568,212.008Z" transform="translate(-137.26 -206.318)" fill="url(#w)"/><path d="M203.216,243.708l4.2-2.355s10.76-1.008,14.626-3.53l2.018,2.858a12.293,12.293,0,0,1-9.583,5.885c-6.893.672-10.087-2.018-10.087-2.018Z" transform="translate(-139.682 -197.332)" fill="#fff"/><path d="M260.9,255.05l-3.418-1.425a5.751,5.751,0,0,0-3.324,6.838l2.944,1.9Z" transform="translate(-242.638 -192.551)" fill="#fff"/><path d="M265.834,242.341s-7.47,4.632-10.319,6.721-10.067,19.374-10.067,19.374l-25.642-10.827s-5.318,3.608-3.608,8.547c0,0,24.122,15.765,30.2,16.9s20.512-22.793,20.512-22.793S275.013,254.043,265.834,242.341Z" transform="translate(-202.3 -195.965)" fill="#001d59"/></g></g><g transform="translate(110.356)"><path d="M214.1,181.3a20,20,0,1,1,12.352,27.741l-8.9,9.569,2.854-12.561A20,20,0,0,1,214.1,181.3Z" transform="translate(-212.166 -169.868)" fill="url(#x)"/><path d="M228.532,196l-7.771-5.683,2.684-3.67,4.222,3.088,8.4-10.712,3.577,2.806Z" transform="translate(-209.566 -167.098)" fill="#fff"/></g></g></g></g></svg>