<svg xmlns="http://www.w3.org/2000/svg" xmlns:xlink="http://www.w3.org/1999/xlink" width="60" height="60" viewBox="0 0 60 60">
  <defs>
    <linearGradient id="linear-gradient" x1="0.956" y1="-0.346" x2="0.153" y2="1.325" gradientUnits="objectBoundingBox">
      <stop offset="0" stop-color="#7024c4"/>
      <stop offset="0.415" stop-color="#c21975"/>
      <stop offset="0.702" stop-color="#c74c4d"/>
      <stop offset="1" stop-color="#e09b3d"/>
    </linearGradient>
    <filter id="Oval" x="0" y="0" width="60" height="60" filterUnits="userSpaceOnUse">
      <feOffset dy="4" input="SourceAlpha"/>
      <feGaussianBlur stdDeviation="4" result="blur"/>
      <feFlood flood-opacity="0.102"/>
      <feComposite operator="in" in2="blur"/>
      <feComposite in="SourceGraphic"/>
    </filter>
  </defs>
  <g id="Instagram" transform="translate(12 8)">
    <g transform="matrix(1, 0, 0, 1, -12, -8)" filter="url(#Oval)">
      <circle id="Oval-2" data-name="Oval" cx="18" cy="18" r="18" transform="translate(12 8)" fill="url(#linear-gradient)"/>
    </g>
    <path id="Instagram-2" data-name="Instagram" d="M11.018,15.692H4.675A4.68,4.68,0,0,1,0,11.018V4.675A4.68,4.68,0,0,1,4.675,0h6.343a4.68,4.68,0,0,1,4.675,4.675v6.343A4.68,4.68,0,0,1,11.018,15.692ZM4.675,1.578a3.1,3.1,0,0,0-3.1,3.1v6.343a3.1,3.1,0,0,0,3.1,3.1h6.343a3.1,3.1,0,0,0,3.1-3.1V4.675a3.1,3.1,0,0,0-3.1-3.1ZM7.846,11.9A4.059,4.059,0,1,1,11.9,7.846,4.063,4.063,0,0,1,7.846,11.9Zm0-6.538a2.48,2.48,0,1,0,2.48,2.48A2.483,2.483,0,0,0,7.846,5.366Zm4.066-.576a.973.973,0,1,1,.973-.972A.974.974,0,0,1,11.912,4.791Z" transform="translate(10.154 10.154)" fill="#fff"/>
  </g>
</svg>
