<svg xmlns="http://www.w3.org/2000/svg" width="209.912" height="97.737" viewBox="0 0 209.912 97.737">
  <g id="logo-f" transform="translate(-57.047 -37.871)">
    <path id="Path_505" data-name="Path 505" d="M17.011-61.741h6.137C20.562-68.017,16.977-78.26,14.7-85.778H6.116C3.358-79.018-.4-68.465-2.4-61.741H3.53c.414-1.483.931-3.311,1.552-5.311h9.9C15.7-65.017,16.425-63.155,17.011-61.741ZM10.529-80.95c.724,2.552,1.758,5.828,2.862,9.1H6.5c1.1-3.345,2.207-6.587,3.137-9.1Zm26.651,2.035a20.28,20.28,0,0,0-6.034-.966c-4.413,0-7.826,1.242-7.826,6.035,0,3.759,1.965,4.828,5.654,5.173,2.931.276,3.517.655,3.517,1.621,0,1.379-.965,1.552-3.034,1.552a19.593,19.593,0,0,1-5-.724l-1.034,4a21.728,21.728,0,0,0,6.275.966c4.448,0,7.9-1.276,7.9-6.07,0-3.621-1.827-4.863-5.93-5.38-2.724-.345-3.206-.586-3.206-1.517,0-1.379.827-1.517,2.482-1.517a21.235,21.235,0,0,1,5.206.759ZM56.732-61.741c-3.31-5.863-5.758-9.1-6.585-9.656.862-.724,3.069-3.414,6.068-8h-6.1c-3.137,4.725-5.241,7.518-6.1,8.311V-86.64H38.7v24.9h5.31v-9.346c.793.414,2.931,3.518,6.585,9.346Z" transform="translate(108.462 196.669)" fill="#fff"/>
    <path id="Path_506" data-name="Path 506" d="M14.9-63.517v-8.376h8.411c2.077,0,3.011,1.731,3.011,4.326,0,2.492-.762,4.05-2.873,4.05Zm0-18.171h8.273c2.042,0,2.631,1.211,2.631,3.392,0,1.973-.623,3.53-2.631,3.53H14.9Zm9.727,8.272c4.292-.381,4.881-2.492,4.881-5.5,0-3.288-1-5.746-5.815-5.746H11.4V-60.54H23.965c3.877,0,6.127-2.111,6.127-6.715C30.092-70.716,29.192-73.208,24.623-73.416ZM34.868-60.54h3.254V-73.312c0-1.454,2.111-2.146,4.465-2.146a12.156,12.156,0,0,1,2.042.173v-3.184a15.687,15.687,0,0,0-1.8-.1c-2.492,0-4.05.865-4.707,1.765v-1.281H34.868ZM61.452-71.754c0-5.3-2.285-6.819-7.442-6.819a26.011,26.011,0,0,0-6.4.865l.692,2.838a15.272,15.272,0,0,1,5.192-.831c3.842,0,4.777.831,4.777,4.5a21.482,21.482,0,0,0-4.673-.519c-4.015,0-6.923.8-6.923,5.78,0,4.569,1.973,5.884,7.269,5.884a21.744,21.744,0,0,0,7.511-1.384Zm-3.184,8.342a12.835,12.835,0,0,1-4.119.692c-3.15,0-3.946-.45-3.946-3.392,0-2.734,1-3.046,3.981-3.046a18.015,18.015,0,0,1,4.084.381ZM69.69-78.088H66.436V-60.54H69.69ZM68.1-85.08c-1.488,0-1.973.208-1.973,1.731,0,1.661.485,1.938,1.973,1.938,1.454,0,1.938-.277,1.938-1.938C70.036-84.872,69.551-85.08,68.1-85.08Zm9.865,10a13.1,13.1,0,0,1,3.773-.485c3.5,0,4.431,1,4.431,5.607v9.415H89.42v-9.83c0-6.369-2.008-8.2-7.027-8.2a21.991,21.991,0,0,0-7.684,1.454V-60.54h3.254Zm28.764-2.6a22.053,22.053,0,0,0-5.85-.9c-4.5,0-7.234,1.281-7.234,5.642,0,3.427,2.215,4.5,6.265,4.846,3.219.277,4.05,1,4.05,2.561,0,2.319-1.315,2.7-3.877,2.7a16.786,16.786,0,0,1-5.434-.935l-.8,2.769a22.749,22.749,0,0,0,6.3.935c4.569,0,7.13-1.315,7.13-5.711,0-3.357-1.9-4.742-6.3-5.123C97.969-71.166,97-71.754,97-73.208c0-2.284,1.281-2.6,3.808-2.6a15.83,15.83,0,0,1,5.088.9Z" transform="translate(159.678 195.663)" fill="#fff"/>
    <g id="Group_228" data-name="Group 228" transform="translate(57.047 37.871)">
      <path id="Union_11" data-name="Union 11" d="M26.91,84.536a8.4,8.4,0,1,1,2.182.289A8.411,8.411,0,0,1,26.91,84.536Zm14.3-12.667a5.476,5.476,0,0,1-3.233-2.38c-.092-.137-.177-.278-.254-.42a7.049,7.049,0,0,0-2.509-2.5A9.725,9.725,0,0,0,33.033,65.5l-.2-.059a9.42,9.42,0,0,0-6.916.243,17.1,17.1,0,0,0-3.3,2.137,18.6,18.6,0,0,1-2.711,1.826c-.264.128-.526.25-.778.364A12.974,12.974,0,0,1,15.459,71.3a6.867,6.867,0,0,1-1.5.193,13.181,13.181,0,0,1-8.927-2.7,12.931,12.931,0,0,1-3.271-3.713A12.737,12.737,0,0,1,.13,60.439a12.553,12.553,0,0,1,.3-5.07L47.878,68.082h0a5.308,5.308,0,0,1-2.529,3.261,5.441,5.441,0,0,1-2.7.715A5.56,5.56,0,0,1,41.213,71.869ZM.434,55.37a12.549,12.549,0,0,1,2.272-4.543A12.736,12.736,0,0,1,6.44,47.62a13.01,13.01,0,0,1,9.822-1.245,13.1,13.1,0,0,1,3.946,1.794,6.875,6.875,0,0,1,1.2.918,13,13,0,0,1,2.541,2.956c.161.224.326.461.491.7a18.587,18.587,0,0,1,1.434,2.937,17.118,17.118,0,0,0,1.785,3.5,9.422,9.422,0,0,0,5.868,3.669l.2.047a9.712,9.712,0,0,0,2.428.163,7.045,7.045,0,0,0,3.422-.909c.137-.085.282-.165.43-.237a5.511,5.511,0,0,1,7.31,2.077,5.31,5.31,0,0,1,.559,4.089h0ZM79.243,66.361a5.309,5.309,0,0,1-3.286-2.5h0a5.309,5.309,0,0,1-.518-4.094,5.512,5.512,0,0,1,6.523-3.9c.162.032.322.071.477.118a7.051,7.051,0,0,0,3.54-.008,9.724,9.724,0,0,0,2.3-.786c.048-.027.109-.059.18-.1a9.419,9.419,0,0,0,4.718-5.062A17.1,17.1,0,0,0,94,46.194a18.614,18.614,0,0,1,.626-3.209c.1-.277.2-.549.292-.807a12.972,12.972,0,0,1,1.69-3.513,6.837,6.837,0,0,1,.924-1.2,13.184,13.184,0,0,1,8.218-4.406,12.926,12.926,0,0,1,4.938.313,12.731,12.731,0,0,1,4.438,2.13,12.661,12.661,0,0,1,4.976,8.618,12.733,12.733,0,0,1-.374,4.908,13.014,13.014,0,0,1-6.065,7.825,13.109,13.109,0,0,1-4.058,1.521,6.861,6.861,0,0,1-1.5.2,12.987,12.987,0,0,1-3.887-.293c-.272-.045-.557-.1-.845-.15a18.576,18.576,0,0,1-3.091-1.063,17.118,17.118,0,0,0-3.736-1.211A9.423,9.423,0,0,0,89.8,57.417l-.174.108a9.727,9.727,0,0,0-1.832,1.6,7.045,7.045,0,0,0-1.777,3.062c-.037.157-.083.316-.137.472a5.493,5.493,0,0,1-6.637,3.7ZM28.655,55.045a8.407,8.407,0,1,1,7.292,4.207A8.411,8.411,0,0,1,28.655,55.045ZM50.53,58.828a5.512,5.512,0,0,1-3.9-6.523c.032-.162.071-.322.118-.477a7.044,7.044,0,0,0-.008-3.54,9.71,9.71,0,0,0-.786-2.3c-.026-.048-.059-.109-.1-.18A9.419,9.419,0,0,0,40.8,41.086a17.092,17.092,0,0,0-3.841-.819,18.615,18.615,0,0,1-3.208-.626c-.277-.1-.549-.195-.808-.292a12.974,12.974,0,0,1-3.513-1.69,6.842,6.842,0,0,1-1.2-.924,13.182,13.182,0,0,1-4.406-8.218,12.926,12.926,0,0,1,.313-4.938,12.726,12.726,0,0,1,2.13-4.438,12.552,12.552,0,0,1,3.8-3.37L54.626,58.309h0a5.292,5.292,0,0,1-2.654.714A5.42,5.42,0,0,1,50.53,58.828ZM30.066,15.771a12.549,12.549,0,0,1,4.819-1.606,12.731,12.731,0,0,1,4.908.374A13.011,13.011,0,0,1,47.618,20.6a13.1,13.1,0,0,1,1.521,4.058,6.846,6.846,0,0,1,.2,1.5,12.968,12.968,0,0,1-.293,3.887c-.045.273-.1.557-.15.845a18.629,18.629,0,0,1-1.063,3.091,17.1,17.1,0,0,0-1.211,3.736,9.421,9.421,0,0,0,1.555,6.743c.043.068.08.128.108.174a9.719,9.719,0,0,0,1.6,1.832,7.043,7.043,0,0,0,3.062,1.777c.157.037.315.083.472.137a5.512,5.512,0,0,1,3.7,6.637,5.309,5.309,0,0,1-2.5,3.286h0Zm36.268,40.97h0a5.309,5.309,0,0,1-3.261-2.529,5.512,5.512,0,0,1,1.856-7.369c.137-.092.278-.177.421-.254a7.049,7.049,0,0,0,2.5-2.509A9.724,9.724,0,0,0,68.918,41.9c.015-.052.035-.119.059-.2a9.42,9.42,0,0,0-.243-6.916,17.111,17.111,0,0,0-2.137-3.3,18.6,18.6,0,0,1-1.826-2.711c-.128-.265-.25-.526-.364-.778a12.983,12.983,0,0,1-1.289-3.679,6.854,6.854,0,0,1-.194-1.5,13.186,13.186,0,0,1,2.7-8.927,12.928,12.928,0,0,1,3.713-3.271,12.728,12.728,0,0,1,4.644-1.631,12.664,12.664,0,0,1,9.613,2.575A12.737,12.737,0,0,1,86.795,15.3a13.012,13.012,0,0,1,1.245,9.822,13.1,13.1,0,0,1-1.794,3.945,6.846,6.846,0,0,1-.918,1.2,12.968,12.968,0,0,1-2.956,2.541c-.224.161-.461.327-.7.492a18.63,18.63,0,0,1-2.938,1.434,17.115,17.115,0,0,0-3.5,1.785,9.423,9.423,0,0,0-3.669,5.868c-.018.079-.034.147-.047.2a9.728,9.728,0,0,0-.163,2.428,7.044,7.044,0,0,0,.909,3.422c.084.137.164.282.237.43a5.512,5.512,0,0,1-2.077,7.31,5.307,5.307,0,0,1-4.089.559Zm14.588-3.754a8.4,8.4,0,1,1,2.182.289A8.41,8.41,0,0,1,80.922,52.988ZM50.8,42.26a8.407,8.407,0,1,1,7.292,4.207A8.41,8.41,0,0,1,50.8,42.26Zm-45.764-6.6a7.4,7.4,0,1,1,6.416,3.7A7.4,7.4,0,0,1,5.034,35.663Zm94.924-8.224a7.394,7.394,0,1,1,1.92.254A7.4,7.4,0,0,1,99.958,27.438ZM47.572,11.1a7.4,7.4,0,1,1,6.417,3.7A7.4,7.4,0,0,1,47.572,11.1Z" transform="translate(0 0)" fill="#fff"/>
    </g>
  </g>
</svg>
