<svg xmlns="http://www.w3.org/2000/svg" xmlns:xlink="http://www.w3.org/1999/xlink" width="358.751" height="440.983" viewBox="0 0 358.751 440.983">
  <defs>
    <linearGradient id="linear-gradient" x1="0.5" y1="-1.67" x2="0.379" y2="0.77" gradientUnits="objectBoundingBox">
      <stop offset="0" stop-color="#ff9f55"/>
      <stop offset="1" stop-color="#f8fafb"/>
    </linearGradient>
    <linearGradient id="linear-gradient-2" x1="-13.675" y1="-15.295" x2="-12.675" y2="-15.295" gradientUnits="objectBoundingBox">
      <stop offset="0" stop-color="#ff9f55"/>
      <stop offset="1" stop-color="#ffd255"/>
    </linearGradient>
    <linearGradient id="linear-gradient-3" x1="0.002" y1="-0.4" x2="0.761" y2="0.973" gradientUnits="objectBoundingBox">
      <stop offset="0" stop-color="#eb4747"/>
      <stop offset="1" stop-color="#ff9564"/>
    </linearGradient>
    <linearGradient id="linear-gradient-4" x1="0.5" y1="0.813" x2="0.5" y2="-0.776" gradientUnits="objectBoundingBox">
      <stop offset="0" stop-color="#ff4d4d"/>
      <stop offset="1" stop-color="#dbc758"/>
    </linearGradient>
  </defs>
  <g id="p-img" transform="translate(-1304.823 -814.352)">
    <path id="Path_1508" data-name="Path 1508" d="M1611.29,1636.218s-112.536,31.12-69.964,72.448c32.037,31.1,90.613,51.854,149.029,62.855H1351.706s-36.831-121.244,106.532-135.3Z" transform="translate(-26.78 -516.186)" fill="url(#linear-gradient)"/>
    <g id="Group_1151" data-name="Group 1151" transform="translate(1431.457 814.352)">
      <rect id="Rectangle_292" data-name="Rectangle 292" width="129.538" height="300.679" transform="translate(18.319 2.309)" fill="#587aa3"/>
      <rect id="Rectangle_293" data-name="Rectangle 293" width="153.052" height="305.68" transform="translate(0)" fill="url(#linear-gradient-2)"/>
      <rect id="Rectangle_294" data-name="Rectangle 294" width="129.537" height="300.675" transform="translate(12.763 2.311)" fill="#6bb0ff" opacity="0.73" style="mix-blend-mode: screen;isolation: isolate"/>
      <rect id="Rectangle_295" data-name="Rectangle 295" width="140.063" height="300.685" transform="translate(2.243 2.309)" fill="#a3cdff" opacity="0.98" style="mix-blend-mode: screen;isolation: isolate"/>
    </g>
    <path id="Path_1509" data-name="Path 1509" d="M1803.129,1027.56l-15.415-15.415-19.876,19.877-19.877-19.877-15.415,15.415,19.877,19.877-19.877,19.876,15.415,15.415,19.877-19.877,19.876,19.877,15.415-15.415-19.876-19.876Z" transform="translate(-268.638 -124.228)" fill="url(#linear-gradient-3)"/>
    <g id="Group_1188" data-name="Group 1188" transform="translate(1304.823 945.727)">
      <g id="Group_1152" data-name="Group 1152" transform="translate(31.772 122.848)">
        <rect id="Rectangle_296" data-name="Rectangle 296" width="82.181" height="72.406" fill="url(#linear-gradient-4)"/>
      </g>
      <g id="Group_1153" data-name="Group 1153" transform="translate(64.899 157.712)">
        <rect id="Rectangle_297" data-name="Rectangle 297" width="58.346" height="37.543" fill="#202338"/>
      </g>
      <g id="Group_1154" data-name="Group 1154" transform="translate(64.899 157.712)">
        <rect id="Rectangle_298" data-name="Rectangle 298" width="58.346" height="16.67" fill="#2b304d"/>
      </g>
      <g id="Group_1155" data-name="Group 1155" transform="translate(90.049 170.454)">
        <rect id="Rectangle_299" data-name="Rectangle 299" width="8.046" height="2.299" fill="#4a5385"/>
      </g>
      <g id="Group_1187" data-name="Group 1187" transform="translate(0 0)">
        <g id="Group_1156" data-name="Group 1156" transform="translate(20.027 29.155)">
          <path id="Path_1510" data-name="Path 1510" d="M1365.455,1269.919s-1.216-8.607-.778-9.433,7-5.544,7.051-6.224-6.881-6.516-7.464-7.975-2.578,2.261-3.356,5.617-2.127,8.679-2.225,9.409.3,10.26.3,10.26Z" transform="translate(-1358.668 -1245.961)" fill="#d49678"/>
        </g>
        <g id="Group_1157" data-name="Group 1157" transform="translate(19.422 52.272)">
          <path id="Path_1511" data-name="Path 1511" d="M1384.636,1324.985s-3.4,10.523-4.2,12.857-3.212,10.063-5.49,12.4a6.494,6.494,0,0,1-4.084,1.54c-1.219-.067-4.555-2.13-7.4-8.549s-5.689-27.935-5.835-29.1-.584-4.449-.584-4.449l8.041-1.57s3.279,15.714,3.751,17.884c.357,1.646,2.869,8.412,3.014,8.631s3.136-16.994,3.136-16.994Z" transform="translate(-1357.043 -1308.115)" fill="#3c4169"/>
        </g>
        <g id="Group_1159" data-name="Group 1159" transform="translate(0 183.575)">
          <g id="Group_1158" data-name="Group 1158">
            <path id="Path_1512" data-name="Path 1512" d="M1314.669,1665.894s-5.7,9.659-8.1,11.237c-3.266,2.141-1.22,4.307.331,4.309s9.472.569,11.217-1.412,2.611-7.917,4.234-9.469,3.3-7.724-.79-9.224C1317.942,1660.009,1314.669,1665.894,1314.669,1665.894Z" transform="translate(-1304.823 -1661.141)" fill="#41345c"/>
          </g>
        </g>
        <g id="Group_1161" data-name="Group 1161" transform="translate(4.431 183.769)">
          <g id="Group_1160" data-name="Group 1160">
            <path id="Path_1513" data-name="Path 1513" d="M1324.62,1661.973s-6.526,11.313-7.651,12.984,2.118,1.669,4.127.875,7.064-8.907,7.789-10.385a5.449,5.449,0,0,0,.155-3.783Z" transform="translate(-1316.738 -1661.664)" fill="#c98e72"/>
          </g>
        </g>
        <g id="Group_1163" data-name="Group 1163" transform="translate(16.62 190.166)">
          <g id="Group_1162" data-name="Group 1162">
            <path id="Path_1514" data-name="Path 1514" d="M1351.814,1678.861l-1.507,11.6-.8.035.248-8.343Z" transform="translate(-1349.51 -1678.861)" fill="#41345c"/>
          </g>
        </g>
        <g id="Group_1165" data-name="Group 1165" transform="translate(56.508 183.611)">
          <g id="Group_1164" data-name="Group 1164">
            <path id="Path_1515" data-name="Path 1515" d="M1466.6,1665.954s-5.7,9.659-8.1,11.237c-3.266,2.141-1.219,4.307.332,4.309s9.471.569,11.217-1.412,2.611-7.917,4.234-9.469,3.355-7.883-.79-9.224C1469.85,1660.22,1466.6,1665.954,1466.6,1665.954Z" transform="translate(-1456.752 -1661.237)" fill="#41345c"/>
          </g>
        </g>
        <g id="Group_1167" data-name="Group 1167" transform="translate(60.939 183.769)">
          <g id="Group_1166" data-name="Group 1166">
            <path id="Path_1516" data-name="Path 1516" d="M1476.206,1662s-6.185,11.289-7.309,12.96,2.118,1.669,4.128.875,7.064-8.907,7.789-10.385a5.453,5.453,0,0,0,.155-3.783Z" transform="translate(-1468.666 -1661.664)" fill="#de9d7d"/>
          </g>
        </g>
        <g id="Group_1169" data-name="Group 1169" transform="translate(73.128 190.166)">
          <g id="Group_1168" data-name="Group 1168">
            <path id="Path_1517" data-name="Path 1517" d="M1503.742,1678.861l-1.507,11.6-.8.035.248-8.343Z" transform="translate(-1501.438 -1678.861)" fill="#41345c"/>
          </g>
        </g>
        <g id="Group_1171" data-name="Group 1171" transform="translate(12.307 92.371)">
          <g id="Group_1170" data-name="Group 1170">
            <path id="Path_1518" data-name="Path 1518" d="M1417.241,1423.971l-51.566,23.5a9.915,9.915,0,0,0-6.4,8.262c-2.013,19.949-16.934,51.6-16.934,51.6-4.789,2.341-4.421.309-4.421.309,3.017-9.685,6.69-49.6,8-65.65.277-3.4.449-5.727.487-6.471.025-.507.579-1.17,1.535-1.944,7.075-5.738,36.191-17.617,36.191-17.617C1405.991,1415.4,1417.241,1423.971,1417.241,1423.971Z" transform="translate(-1337.912 -1415.926)" fill="#c98e72"/>
          </g>
        </g>
        <g id="Group_1173" data-name="Group 1173" transform="translate(35.395 89.412)">
          <g id="Group_1172" data-name="Group 1172">
            <path id="Path_1519" data-name="Path 1519" d="M1461.662,1428.262c-.561,9.732-17.207,13.143-17.207,13.143h-24.114s6.334,14.095,8.779,25.983c2.6,12.617,8.713,34.94,8.713,34.94s-.4.758-4.762.333c0,0-18.929-37.726-26.174-47.21-1.558-2.041-6.026-13.12-6.8-19.728-.259-2.224-.1-3.942.732-4.638a60.124,60.124,0,0,1,5.323-3.639c7.553-4.763,20.67-12.1,27.979-13.738,9.788-2.2,21.4-5.738,21.4-5.738S1462.469,1414.257,1461.662,1428.262Z" transform="translate(-1399.988 -1407.97)" fill="#de9d7d"/>
          </g>
        </g>
        <g id="Group_1174" data-name="Group 1174" transform="translate(20.979 89.664)">
          <path id="Path_1520" data-name="Path 1520" d="M1398.513,1441.832h21.6s14.968.845,18.046-12.843c2.575-11.448-6.273-20.341-6.273-20.341s-7.335,1.963-16.511,4.179a71.056,71.056,0,0,0-16.6-1.447s-27.408,5.519-37.548,19.037C1361.227,1430.418,1377.317,1422.3,1398.513,1441.832Z" transform="translate(-1361.227 -1408.648)" fill="#494f80"/>
        </g>
        <g id="Group_1175" data-name="Group 1175" transform="translate(21.697 6.943)">
          <path id="Path_1521" data-name="Path 1521" d="M1386,1204.125c-.149,1.56-.349,3.118-.552,4.62-.062.466-.149.928-.255,1.385a14.535,14.535,0,0,1-3.864,7.014h0a9.041,9.041,0,0,1-9.971,2.265c-6.878-2.749-8.194-26.588-8.194-26.588,3.29-8.765,15.441-7.5,19.8-3.547C1386.4,1192.4,1386.56,1198.277,1386,1204.125Z" transform="translate(-1363.16 -1186.241)" fill="#eea886"/>
        </g>
        <g id="Group_1176" data-name="Group 1176" transform="translate(35.939 30.737)">
          <path id="Path_1522" data-name="Path 1522" d="M1406.857,1258.323s-3.721,7.365-4.322,14.219c-.343,3.9-2.626,8.461.681,12.351s7.537,3.4,8.364,5.252a21.648,21.648,0,0,0,4.279,5.981c1.264,1.021,2.772,10.418,3.209,11.4s-2.37,6.127,18.308,6.346,19.77-4.733,19.77-4.733-5.547-6.03-11.952-17.389c-1.976-3.5-6.755-27.112-9.162-30.394S1420.459,1239.955,1406.857,1258.323Z" transform="translate(-1401.449 -1250.214)" fill="#494f80"/>
        </g>
        <g id="Group_1177" data-name="Group 1177" transform="translate(41.645 30.377)">
          <path id="Path_1523" data-name="Path 1523" d="M1428.642,1250.451s-4.454,19.184-9.415,20.69c-5.1,1.549-.6-17.3-.6-17.3S1423.731,1246.4,1428.642,1250.451Z" transform="translate(-1416.791 -1249.245)" fill="#eea886"/>
        </g>
        <g id="Group_1178" data-name="Group 1178" transform="translate(20.683 2.548)">
          <path id="Path_1524" data-name="Path 1524" d="M1366.8,1187.646s-3.641,7.643-3.668,10.864c0,0-2.571-4.792-2.623-8.835-.052-4.022-1-10.654,5.622-14.634S1366.8,1187.646,1366.8,1187.646Z" transform="translate(-1360.431 -1174.424)" fill="#e8734d"/>
        </g>
        <g id="Group_1181" data-name="Group 1181" transform="translate(13.438 98.627)">
          <g id="Group_1179" data-name="Group 1179" transform="translate(1.988)">
            <path id="Path_1525" data-name="Path 1525" d="M1358.6,1433.251s-3.03,1.695-5.186,2.737c-1.67.807-5.254,3.978-5.814,5.511s-.815,9.558-1.223,10.334.866.956,1.685-.2a2.612,2.612,0,0,0,4.013-.774c1.847-2.629,2.231-5.93,3.263-7.175s7.354-8.119,7.354-8.119S1360.114,1431.314,1358.6,1433.251Z" transform="translate(-1346.298 -1432.746)" fill="#eea886"/>
          </g>
          <g id="Group_1180" data-name="Group 1180" transform="translate(0 7.864)">
            <path id="Path_1526" data-name="Path 1526" d="M1344.753,1453.892s-1.464,2.083-1.778,2.765-1.651,3.323-1.979,3.954,1.247.6,4.088-3.192S1344.753,1453.892,1344.753,1453.892Z" transform="translate(-1340.953 -1453.888)" fill="#eea886"/>
          </g>
        </g>
        <g id="Group_1182" data-name="Group 1182" transform="translate(25.874 94.875)">
          <path id="Path_1527" data-name="Path 1527" d="M1374.389,1426.707l3.25,5.922,9.548-3.765-4.281-6.2Z" transform="translate(-1374.389 -1422.659)" fill="#5c63a1"/>
        </g>
        <g id="Group_1183" data-name="Group 1183" transform="translate(25.874 40.246)">
          <path id="Path_1528" data-name="Path 1528" d="M1407.153,1285.074s-1.095-10.431,5.835-9.191,6.045,9.993,5.976,11.744-.87,22.392-1.745,26.185-2.043,11.232-5.325,13.348-34.231,12.789-34.45,12.861-3.055-5.563-3.055-5.563,21.094-10.07,23.574-11.018,8.242-3.72,8.606-5.543S1407.216,1286.678,1407.153,1285.074Z" transform="translate(-1374.389 -1275.781)" fill="#5c63a1"/>
        </g>
        <g id="Group_1184" data-name="Group 1184" transform="translate(35.468 21.75)">
          <path id="Path_1529" data-name="Path 1529" d="M1413.266,1241c-.729,4.789-6.227,6.73-6.275,4.4a5.227,5.227,0,0,0-.883-1.494v0c-.149-.206-.28-.385-.35-.49a6.445,6.445,0,0,0-1.177-1.264,23.26,23.26,0,0,0-4.4-2.751l7.245-13.347s.808,1.249,1.824,3.077C1411.138,1232.517,1413.74,1237.891,1413.266,1241Z" transform="translate(-1400.185 -1226.05)" fill="#eea886"/>
        </g>
        <g id="Group_1185" data-name="Group 1185" transform="translate(21.645)">
          <path id="Path_1530" data-name="Path 1530" d="M1367.328,1184.04s2.484,6.419,7.919,5.8,9.077,1.311,9.384,3.61,3.037,14.778,7.835,15.1,9.319-6.37,11.778-4.566,4.189,10.206,7.984,8.575,4.2-9.077-2.752-13.357-12.239-5.064-13.791-9.526-5.268-16.549-10.089-19.549c-3.573-2.224-7.928-4.137-15.776-.556a11.352,11.352,0,0,0-6.748,11.534Z" transform="translate(-1363.018 -1167.573)" fill="#e8734d"/>
        </g>
        <g id="Group_1186" data-name="Group 1186" transform="translate(39.864 30.833)">
          <path id="Path_1531" data-name="Path 1531" d="M1413.531,1259.241c-.149-.206-.28-.385-.35-.49a6.441,6.441,0,0,0-1.177-1.263,16.146,16.146,0,0,0,3.865-7.015S1416.546,1253.649,1413.531,1259.241Z" transform="translate(-1412.004 -1250.472)" fill="#a77860"/>
        </g>
      </g>
    </g>
  </g>
</svg>
