<svg xmlns="http://www.w3.org/2000/svg" xmlns:xlink="http://www.w3.org/1999/xlink" width="250" height="249" viewBox="0 0 250 249">
  <defs>
    <linearGradient id="linear-gradient" x1="0.911" y1="0.069" x2="-0.123" y2="1" gradientUnits="objectBoundingBox">
      <stop offset="0" stop-color="#ff1fd4"/>
      <stop offset="1" stop-color="#0020ff"/>
    </linearGradient>
  </defs>
  <path id="Subtraction_2" data-name="Subtraction 2" d="M124.571,248.891a126.41,126.41,0,0,1-25.192-2.529,124.3,124.3,0,0,1-63.2-210.006,125.259,125.259,0,0,1,192.04,18.426,124.136,124.136,0,0,1-15.264,157.644,124.918,124.918,0,0,1-88.388,36.465Zm0-232a108.8,108.8,0,0,0-21.766,2.194A107.409,107.409,0,0,0,64.187,35.335,108.316,108.316,0,0,0,25.058,82.852a107.46,107.46,0,0,0-6.293,20.273,109.054,109.054,0,0,0,0,43.531,107.408,107.408,0,0,0,16.251,38.618A108.316,108.316,0,0,0,82.532,224.4a107.461,107.461,0,0,0,20.273,6.293,109.053,109.053,0,0,0,43.531,0,107.408,107.408,0,0,0,38.618-16.251,108.316,108.316,0,0,0,39.129-47.517,107.461,107.461,0,0,0,6.293-20.273,109.054,109.054,0,0,0,0-43.531,107.408,107.408,0,0,0-16.251-38.618,108.317,108.317,0,0,0-47.517-39.129,107.462,107.462,0,0,0-20.273-6.293A108.8,108.8,0,0,0,124.571,16.89Z" transform="translate(0.429 0.11)" fill="url(#linear-gradient)"/>
</svg>
