<svg xmlns="http://www.w3.org/2000/svg" xmlns:xlink="http://www.w3.org/1999/xlink" width="54" height="54" viewBox="0 0 54 54">
  <defs>
    <filter id="Oval" x="0" y="0" width="54" height="54" filterUnits="userSpaceOnUse">
      <feOffset dy="3" input="SourceAlpha"/>
      <feGaussianBlur stdDeviation="3" result="blur"/>
      <feFlood flood-opacity="0.161"/>
      <feComposite operator="in" in2="blur"/>
      <feComposite in="SourceGraphic"/>
    </filter>
  </defs>
  <g id="Twitter">
    <g transform="matrix(1, 0, 0, 1, -9, -6)" filter="url(#Oval)">
      <circle id="Oval-2" data-name="Oval" cx="18" cy="18" r="18" transform="translate(9 6)" fill="#2aa3ef"/>
    </g>
    <path id="Twitter-2" data-name="Twitter" d="M14.769,1.42a6.078,6.078,0,0,1-1.74.477A3.039,3.039,0,0,0,14.361.222a6.055,6.055,0,0,1-1.925.735A3.032,3.032,0,0,0,7.194,3.029a3.064,3.064,0,0,0,.079.691A8.6,8.6,0,0,1,1.029.555,3.033,3.033,0,0,0,1.966,4.6,3,3,0,0,1,.594,4.22v.039a3.031,3.031,0,0,0,2.43,2.97,3.025,3.025,0,0,1-.8.106,2.981,2.981,0,0,1-.57-.055,3.035,3.035,0,0,0,2.831,2.1,6.087,6.087,0,0,1-3.764,1.3A6.107,6.107,0,0,1,0,10.639,8.575,8.575,0,0,0,4.645,12a8.561,8.561,0,0,0,8.621-8.619c0-.132,0-.261-.009-.392a6.158,6.158,0,0,0,1.512-1.568Z" transform="translate(10.615 12)" fill="#fff"/>
  </g>
</svg>
