<svg xmlns="http://www.w3.org/2000/svg" xmlns:xlink="http://www.w3.org/1999/xlink" width="93.666" height="82.157" viewBox="0 0 93.666 82.157">
  <defs>
    <linearGradient id="linear-gradient" x1="0.5" x2="0.5" y2="1" gradientUnits="objectBoundingBox">
      <stop offset="0" stop-color="#f87223"/>
      <stop offset="1" stop-color="#ff647c"/>
    </linearGradient>
  </defs>
  <g id="warning" transform="translate(0 -31.455)">
    <g id="Group_592" data-name="Group 592" transform="translate(0 31.455)">
      <g id="Group_591" data-name="Group 591" transform="translate(0 0)">
        <path id="Path_856" data-name="Path 856" d="M92.055,95.577l-.031-.052-34.9-58.259-.011-.018A12.024,12.024,0,0,0,40.6,33.2a12.074,12.074,0,0,0-4.044,4.045l-.011.018L1.647,95.524l-.031.053A12.024,12.024,0,0,0,11.9,113.612H81.775a12.024,12.024,0,0,0,10.28-18.036ZM81.709,106.045H11.962a4.457,4.457,0,0,1-3.806-6.663L43.03,41.165a4.474,4.474,0,0,1,1.494-1.492,4.457,4.457,0,0,1,6.117,1.492L85.515,99.382a4.457,4.457,0,0,1-3.805,6.663Z" transform="translate(0 -31.455)" opacity="0.392" fill="url(#linear-gradient)"/>
      </g>
    </g>
    <g id="Group_594" data-name="Group 594" transform="translate(42.711 55.665)">
      <g id="Group_593" data-name="Group 593" transform="translate(0 0)">
        <path id="Path_857" data-name="Path 857" d="M239.457,168.924a4.125,4.125,0,0,0-4.125,4.125v17.967a4.125,4.125,0,1,0,8.25,0V173.049A4.125,4.125,0,0,0,239.457,168.924Z" transform="translate(-235.332 -168.924)" fill="url(#linear-gradient)"/>
      </g>
    </g>
    <g id="Group_596" data-name="Group 596" transform="translate(42.71 89.033)">
      <g id="Group_595" data-name="Group 595">
        <path id="Path_858" data-name="Path 858" d="M242.372,350.3a4.125,4.125,0,1,0,1.208,2.917A4.147,4.147,0,0,0,242.372,350.3Z" transform="translate(-235.33 -349.094)" fill="url(#linear-gradient)"/>
      </g>
    </g>
  </g>
</svg>
