<svg width="128" height="128" viewBox="0 0 128 128" fill="none" xmlns="http://www.w3.org/2000/svg">
<g clip-path="url(#clip0_541_221)">
<rect width="128" height="128" rx="20" fill="black"/>
<path d="M44.1875 49H31.8438V9H44.7344C48.6146 9 51.9349 9.80078 54.6953 11.4023C57.4557 12.9909 59.5716 15.276 61.043 18.2578C62.5143 21.2266 63.25 24.7812 63.25 28.9219C63.25 33.0885 62.5078 36.6758 61.0234 39.6836C59.5391 42.6784 57.3776 44.9831 54.5391 46.5977C51.7005 48.1992 48.25 49 44.1875 49ZM36.6875 44.7031H43.875C47.1823 44.7031 49.9232 44.0651 52.0977 42.7891C54.2721 41.513 55.8932 39.6966 56.9609 37.3398C58.0286 34.9831 58.5625 32.1771 58.5625 28.9219C58.5625 25.6927 58.0352 22.9128 56.9805 20.582C55.9258 18.2383 54.3503 16.4414 52.2539 15.1914C50.1576 13.9284 47.5469 13.2969 44.4219 13.2969H36.6875V44.7031ZM70.275 49V9H83.7906C86.9156 9 89.4807 9.53385 91.4859 10.6016C93.4911 11.6562 94.9755 13.1081 95.9391 14.957C96.9026 16.806 97.3844 18.9089 97.3844 21.2656C97.3844 23.6224 96.9026 25.7122 95.9391 27.5352C94.9755 29.3581 93.4977 30.7904 91.5055 31.832C89.5133 32.8607 86.9677 33.375 83.8688 33.375H72.9313V29H83.7125C85.8479 29 87.5667 28.6875 88.8688 28.0625C90.1839 27.4375 91.1344 26.5521 91.7203 25.4062C92.3193 24.2474 92.6188 22.8672 92.6188 21.2656C92.6188 19.6641 92.3193 18.2643 91.7203 17.0664C91.1214 15.8685 90.1643 14.944 88.8492 14.293C87.5341 13.6289 85.7958 13.2969 83.6344 13.2969H75.1188V49H70.275ZM89.1031 31.0312L98.9469 49H93.3219L83.6344 31.0312H89.1031Z" fill="white"/>
<path d="M48.3139 61.5455L65.3707 109.911H66.044L83.1009 61.5455H90.3949L69.2983 119H62.1165L41.0199 61.5455H48.3139Z" fill="white"/>
</g>
<defs>
<clipPath id="clip0_541_221">
<rect width="128" height="128" rx="20" fill="white"/>
</clipPath>
</defs>
</svg>
