<svg width="559" height="329" viewBox="0 0 559 329" fill="none" xmlns="http://www.w3.org/2000/svg">
<mask id="mask0" mask-type="alpha" maskUnits="userSpaceOnUse" x="7" y="39" width="545" height="278">
<path d="M176.85 60.66V261H118.8V248.85C109.98 258.75 96.48 263.7 78.3 263.7C65.34 263.7 53.37 260.64 42.39 254.52C31.59 248.22 22.95 239.22 16.47 227.52C10.17 215.82 7.02 202.32 7.02 187.02C7.02 171.72 10.17 158.31 16.47 146.79C22.95 135.09 31.59 126.18 42.39 120.06C53.37 113.76 65.34 110.61 78.3 110.61C94.68 110.61 107.19 114.84 115.83 123.3V60.66H176.85ZM92.88 216.18C99.9 216.18 105.66 213.66 110.16 208.62C114.66 203.4 116.91 196.2 116.91 187.02C116.91 177.84 114.66 170.73 110.16 165.69C105.66 160.65 99.9 158.13 92.88 158.13C85.86 158.13 80.1 160.65 75.6 165.69C71.1 170.73 68.85 177.84 68.85 187.02C68.85 196.2 71.1 203.4 75.6 208.62C80.1 213.66 85.86 216.18 92.88 216.18ZM203.871 113.31H264.891V261H203.871V113.31ZM234.381 101.43C223.401 101.43 214.491 98.55 207.651 92.79C200.991 86.85 197.661 79.38 197.661 70.38C197.661 61.38 200.991 54 207.651 48.24C214.491 42.3 223.401 39.33 234.381 39.33C245.541 39.33 254.451 42.12 261.111 47.7C267.771 53.28 271.101 60.48 271.101 69.3C271.101 78.66 267.771 86.4 261.111 92.52C254.451 98.46 245.541 101.43 234.381 101.43ZM456.908 113.31V231.57C456.908 259.65 449.078 280.71 433.418 294.75C417.938 308.97 395.798 316.08 366.998 316.08C352.238 316.08 338.468 314.46 325.688 311.22C312.908 308.16 302.018 303.66 293.018 297.72L313.538 256.14C319.298 260.46 326.588 263.97 335.408 266.67C344.228 269.37 352.688 270.72 360.788 270.72C373.028 270.72 381.938 268.11 387.518 262.89C393.098 257.67 395.888 250.02 395.888 239.94V237.24C386.708 247.68 373.118 252.9 355.118 252.9C342.518 252.9 330.728 250.02 319.748 244.26C308.948 238.32 300.308 229.95 293.828 219.15C287.348 208.17 284.108 195.66 284.108 181.62C284.108 167.58 287.348 155.16 293.828 144.36C300.308 133.56 308.948 125.28 319.748 119.52C330.728 113.58 342.518 110.61 355.118 110.61C375.278 110.61 389.858 117.09 398.858 130.05V113.31H456.908ZM371.318 205.38C378.518 205.38 384.458 203.22 389.138 198.9C393.998 194.4 396.428 188.64 396.428 181.62C396.428 174.6 393.998 168.93 389.138 164.61C384.458 160.29 378.518 158.13 371.318 158.13C363.938 158.13 357.818 160.29 352.958 164.61C348.278 168.93 345.938 174.6 345.938 181.62C345.938 188.64 348.368 194.4 353.228 198.9C358.088 203.22 364.118 205.38 371.318 205.38ZM483.891 113.31H544.911V261H483.891V113.31ZM514.401 101.43C503.421 101.43 494.511 98.55 487.671 92.79C481.011 86.85 477.681 79.38 477.681 70.38C477.681 61.38 481.011 54 487.671 48.24C494.511 42.3 503.421 39.33 514.401 39.33C525.561 39.33 534.471 42.12 541.131 47.7C547.791 53.28 551.121 60.48 551.121 69.3C551.121 78.66 547.791 86.4 541.131 92.52C534.471 98.46 525.561 101.43 514.401 101.43Z" fill="black"/>
</mask>
<g mask="url(#mask0)">
<rect y="35" width="559" height="285" fill="#253656"/>
<circle cx="255" cy="350" r="153" fill="#DA5454"/>
<circle cx="491" cy="371" r="153" fill="#F9DEDE"/>
<circle cx="491" cy="371" r="153" fill="#F9DEDE"/>
<circle cx="491" cy="371" r="153" fill="#F9DEDE"/>
<circle cx="79" cy="65" r="153" fill="#F9DEDE"/>
<circle cx="79" cy="65" r="153" fill="#F9DEDE"/>
<circle cx="79" cy="65" r="153" fill="#F9DEDE"/>
<circle cx="406" cy="39" r="153" fill="#DA5454"/>
</g>
</svg>
