<svg width="260" height="232" viewBox="0 0 260 232" fill="none" xmlns="http://www.w3.org/2000/svg">
<circle cx="7.5" cy="7.5" r="7.5" fill="#C4C4C4"/>
<circle cx="42.5" cy="7.5" r="7.5" fill="#C4C4C4"/>
<circle cx="77.5" cy="7.5" r="7.5" fill="#C4C4C4"/>
<circle cx="112.5" cy="7.5" r="7.5" fill="#C4C4C4"/>
<circle cx="147.5" cy="7.5" r="7.5" fill="#C4C4C4"/>
<circle cx="182.5" cy="7.5" r="7.5" fill="#C4C4C4"/>
<circle cx="217.5" cy="7.5" r="7.5" fill="#C4C4C4"/>
<circle cx="252.5" cy="7.5" r="7.5" fill="#C4C4C4"/>
<circle cx="7.5" cy="38.5" r="7.5" fill="#C4C4C4"/>
<circle cx="42.5" cy="38.5" r="7.5" fill="#C4C4C4"/>
<circle cx="77.5" cy="38.5" r="7.5" fill="#C4C4C4"/>
<circle cx="112.5" cy="38.5" r="7.5" fill="#C4C4C4"/>
<circle cx="147.5" cy="38.5" r="7.5" fill="#C4C4C4"/>
<circle cx="182.5" cy="38.5" r="7.5" fill="#C4C4C4"/>
<circle cx="217.5" cy="38.5" r="7.5" fill="#C4C4C4"/>
<circle cx="252.5" cy="38.5" r="7.5" fill="#C4C4C4"/>
<circle cx="7.5" cy="69.5" r="7.5" fill="#C4C4C4"/>
<circle cx="42.5" cy="69.5" r="7.5" fill="#C4C4C4"/>
<circle cx="77.5" cy="69.5" r="7.5" fill="#C4C4C4"/>
<circle cx="112.5" cy="69.5" r="7.5" fill="#C4C4C4"/>
<circle cx="147.5" cy="69.5" r="7.5" fill="#C4C4C4"/>
<circle cx="182.5" cy="69.5" r="7.5" fill="#C4C4C4"/>
<circle cx="217.5" cy="69.5" r="7.5" fill="#C4C4C4"/>
<circle cx="252.5" cy="69.5" r="7.5" fill="#C4C4C4"/>
<circle cx="7.5" cy="100.5" r="7.5" fill="#C4C4C4"/>
<circle cx="42.5" cy="100.5" r="7.5" fill="#C4C4C4"/>
<circle cx="77.5" cy="100.5" r="7.5" fill="#C4C4C4"/>
<circle cx="112.5" cy="100.5" r="7.5" fill="#C4C4C4"/>
<circle cx="147.5" cy="100.5" r="7.5" fill="#C4C4C4"/>
<circle cx="182.5" cy="100.5" r="7.5" fill="#C4C4C4"/>
<circle cx="217.5" cy="100.5" r="7.5" fill="#C4C4C4"/>
<circle cx="252.5" cy="100.5" r="7.5" fill="#C4C4C4"/>
<circle cx="7.5" cy="131.5" r="7.5" fill="#C4C4C4"/>
<circle cx="42.5" cy="131.5" r="7.5" fill="#C4C4C4"/>
<circle cx="77.5" cy="131.5" r="7.5" fill="#C4C4C4"/>
<circle cx="112.5" cy="131.5" r="7.5" fill="#C4C4C4"/>
<circle cx="147.5" cy="131.5" r="7.5" fill="#C4C4C4"/>
<circle cx="182.5" cy="131.5" r="7.5" fill="#C4C4C4"/>
<circle cx="217.5" cy="131.5" r="7.5" fill="#C4C4C4"/>
<circle cx="252.5" cy="131.5" r="7.5" fill="#C4C4C4"/>
<circle cx="7.5" cy="162.5" r="7.5" fill="#C4C4C4"/>
<circle cx="42.5" cy="162.5" r="7.5" fill="#C4C4C4"/>
<circle cx="77.5" cy="162.5" r="7.5" fill="#C4C4C4"/>
<circle cx="112.5" cy="162.5" r="7.5" fill="#C4C4C4"/>
<circle cx="147.5" cy="162.5" r="7.5" fill="#C4C4C4"/>
<circle cx="182.5" cy="162.5" r="7.5" fill="#C4C4C4"/>
<circle cx="217.5" cy="162.5" r="7.5" fill="#C4C4C4"/>
<circle cx="252.5" cy="162.5" r="7.5" fill="#C4C4C4"/>
<circle cx="7.5" cy="193.5" r="7.5" fill="#C4C4C4"/>
<circle cx="42.5" cy="193.5" r="7.5" fill="#C4C4C4"/>
<circle cx="77.5" cy="193.5" r="7.5" fill="#C4C4C4"/>
<circle cx="112.5" cy="193.5" r="7.5" fill="#C4C4C4"/>
<circle cx="147.5" cy="193.5" r="7.5" fill="#C4C4C4"/>
<circle cx="182.5" cy="193.5" r="7.5" fill="#C4C4C4"/>
<circle cx="217.5" cy="193.5" r="7.5" fill="#C4C4C4"/>
<circle cx="252.5" cy="193.5" r="7.5" fill="#C4C4C4"/>
<circle cx="7.5" cy="224.5" r="7.5" fill="#C4C4C4"/>
<circle cx="42.5" cy="224.5" r="7.5" fill="#C4C4C4"/>
<circle cx="77.5" cy="224.5" r="7.5" fill="#C4C4C4"/>
<circle cx="112.5" cy="224.5" r="7.5" fill="#C4C4C4"/>
<circle cx="147.5" cy="224.5" r="7.5" fill="#C4C4C4"/>
<circle cx="182.5" cy="224.5" r="7.5" fill="#C4C4C4"/>
<circle cx="217.5" cy="224.5" r="7.5" fill="#C4C4C4"/>
<circle cx="252.5" cy="224.5" r="7.5" fill="#C4C4C4"/>
</svg>
