<svg width="79" height="72" viewBox="0 0 79 72" fill="none" xmlns="http://www.w3.org/2000/svg">
<path d="M26.6453 32.0322C26.6453 33.5927 25.329 34.8577 23.7081 34.8577C22.0872 34.8577 20.771 33.5927 20.771 32.0322C20.771 30.472 22.0872 29.207 23.7081 29.207C25.329 29.207 26.6453 30.472 26.6453 32.0322Z" stroke="#DA5454" stroke-width="2" stroke-miterlimit="10" stroke-linejoin="round"/>
<path d="M67.7311 36.0374C67.7311 37.5979 66.4152 38.8625 64.793 38.8625C63.1707 38.8625 61.8591 37.5979 61.8591 36.0374C61.8591 34.4768 63.1707 33.2122 64.793 33.2122C66.4152 33.2122 67.7311 34.4768 67.7311 36.0374Z" stroke="#DA5454" stroke-width="2" stroke-miterlimit="10" stroke-linejoin="round"/>
<path d="M56.9023 45.8845C56.9023 47.4445 55.5897 48.7095 53.9669 48.7095C52.3442 48.7095 51.0315 47.4445 51.0315 45.8845C51.0315 44.3237 52.3442 43.0591 53.9669 43.0591C55.5897 43.0591 56.9023 44.3237 56.9023 45.8845Z" stroke="#DA5454" stroke-width="2" stroke-miterlimit="10" stroke-linejoin="round"/>
<path d="M21.8937 12.0381C21.2646 7.11155 25.5973 2.6256 31.5715 2.01978C37.5498 1.41397 42.9074 4.9161 43.5364 9.84225" stroke="#DA5454" stroke-width="3" stroke-miterlimit="10" stroke-linejoin="round"/>
<path d="M14.6741 14.4775C15.1907 11.0435 18.4279 8.37502 22.3956 8.24487" stroke="#DA5454" stroke-width="3" stroke-miterlimit="10" stroke-linejoin="round"/>
<path d="M7.73276 29.3752C4.37729 28.2226 2 25.3234 2 21.9308C2 17.5218 6.01294 13.9519 10.968 13.9519C13.7742 13.9519 16.2798 15.0984 17.9235 16.8984" stroke="#DA5454" stroke-width="3" stroke-miterlimit="10" stroke-linejoin="round"/>
<path d="M4.4725 28.0518C3.0831 29.3994 2.23291 31.1962 2.23291 33.1734C2.23291 35.8035 3.74039 38.1232 6.03113 39.4768" stroke="#DA5454" stroke-width="3" stroke-miterlimit="10" stroke-linejoin="round"/>
<path d="M22.811 47.3772C21.3772 50.4772 18.0088 52.6494 14.087 52.6494C8.85254 52.6494 4.61572 48.7839 4.61572 44.0168C4.61572 40.6922 6.67961 37.8051 9.70476 36.363" stroke="#DA5454" stroke-width="3" stroke-miterlimit="10" stroke-linejoin="round"/>
<path d="M18.2803 52.0271C19.8528 53.9895 22.2928 55.3606 25.1055 55.6948" stroke="#DA5454" stroke-width="3" stroke-miterlimit="10" stroke-linejoin="round"/>
<path d="M42.8174 56.6119C41.5522 59.2837 38.1896 61.1956 34.2402 61.1956C29.2046 61.1956 25.1262 58.0927 25.1262 54.2683C25.1262 53.4853 25.2968 52.7317 25.609 52.0283" stroke="#DA5454" stroke-width="3" stroke-miterlimit="10" stroke-linejoin="round"/>
<path d="M41.6846 5.71855C42.7623 5.24543 43.9795 4.97974 45.26 4.97974C49.7357 4.97974 53.3619 8.20675 53.3619 12.1875C53.3619 12.6517 53.3154 13.104 53.2182 13.5381" stroke="#DA5454" stroke-width="3" stroke-miterlimit="10" stroke-linejoin="round"/>
<path d="M49.1797 15.5805C50.6499 14.2124 52.7287 13.3584 55.0304 13.3584C59.501 13.3584 63.1271 16.5854 63.1271 20.569C63.1271 21.4202 62.9642 22.2359 62.6599 22.9954" stroke="#DA5454" stroke-width="3" stroke-miterlimit="10" stroke-linejoin="round"/>
<path d="M62.6592 18.1393C63.7762 17.7197 65.011 17.4861 66.3025 17.4861C71.4861 17.4861 75.688 21.2276 75.688 25.8376C75.688 27.4514 75.1731 28.9616 74.2786 30.238" stroke="#DA5454" stroke-width="3" stroke-miterlimit="10" stroke-linejoin="round"/>
<path d="M71.3129 28.0518C74.5068 29.6213 76.6653 32.6503 76.6653 36.1256C76.6653 41.2207 72.0251 45.3489 66.3013 45.3489" stroke="#DA5454" stroke-width="3" stroke-miterlimit="10" stroke-linejoin="round"/>
<path d="M69.775 44.8181C69.9049 45.3323 69.9698 45.8674 69.9698 46.414C69.9698 50.5247 66.2215 53.8582 61.6033 53.8582C61.27 53.8582 60.9411 53.8404 60.6165 53.8079" stroke="#DA5454" stroke-width="3" stroke-miterlimit="10" stroke-linejoin="round"/>
<path d="M62.5924 49.0674C62.6052 50.1078 62.3525 51.1658 61.8086 52.1646C60.4766 54.5971 57.7568 56.0274 54.9043 56.0571" stroke="#DA5454" stroke-width="3" stroke-miterlimit="10" stroke-linejoin="round"/>
<path d="M61.0024 53.8359C64.5077 59.6255 67.726 63.6328 73.358 68.8193" stroke="#DA5454" stroke-width="3" stroke-miterlimit="10" stroke-linejoin="round"/>
<path d="M40.9653 58.9404L44.9688 62.5045C46.3033 63.6925 48.1183 64.3606 50.002 64.3606H53.3962C55.2113 64.3606 56.9577 64.9809 58.2836 66.0894L63.8918 70.8059" stroke="#DA5454" stroke-width="3" stroke-miterlimit="10" stroke-linejoin="round"/>
<path d="M53.9648 43.0596V36.0376V13.5391" stroke="#DA5454" stroke-width="2" stroke-miterlimit="10" stroke-linejoin="round"/>
<path d="M61.8611 36.0361H53.9673" stroke="#DA5454" stroke-width="2" stroke-miterlimit="10" stroke-linejoin="round"/>
<path d="M32.2012 9.89697V1.97119" stroke="#DA5454" stroke-width="2" stroke-miterlimit="10" stroke-linejoin="round"/>
<path d="M27.5161 41.4119H5.43213" stroke="#DA5454" stroke-width="2" stroke-miterlimit="10" stroke-linejoin="round"/>
<path d="M28.3083 9.89648H36.0959" stroke="#DA5454" stroke-width="2" stroke-miterlimit="10" stroke-linejoin="round"/>
<path d="M50.0752 27.2954H57.8599" stroke="#DA5454" stroke-width="2" stroke-miterlimit="10" stroke-linejoin="round"/>
<path d="M13.512 45.124V37.6975" stroke="#DA5454" stroke-width="2" stroke-miterlimit="10" stroke-linejoin="round"/>
<path d="M14.3931 27.5979V20.1682" stroke="#DA5454" stroke-width="2" stroke-miterlimit="10" stroke-linejoin="round"/>
<path d="M2.26489 23.8826H14.3927H19.2655" stroke="#DA5454" stroke-width="2" stroke-miterlimit="10" stroke-linejoin="round"/>
<path d="M23.7075 40.6829V34.8579" stroke="#DA5454" stroke-width="2" stroke-miterlimit="10" stroke-linejoin="round"/>
<path d="M36.5671 51.4465V29.6455" stroke="#DA5454" stroke-width="2" stroke-miterlimit="10" stroke-linejoin="round"/>
<path d="M41.1456 50.4771H36.5708" stroke="#DA5454" stroke-width="2" stroke-miterlimit="10" stroke-linejoin="round"/>
<path d="M41.1456 43.73H36.5708" stroke="#DA5454" stroke-width="2" stroke-miterlimit="10" stroke-linejoin="round"/>
<path d="M40.0722 47.1052H36.5698" stroke="#DA5454" stroke-width="2" stroke-miterlimit="10" stroke-linejoin="round"/>
<path d="M42.7562 23.4743C42.7562 26.7338 39.989 29.3728 36.5726 29.3728C33.1562 29.3728 30.3848 26.7338 30.3848 23.4743C30.3848 20.2176 33.1562 17.5754 36.5726 17.5754C39.989 17.5754 42.7562 20.2176 42.7562 23.4743Z" stroke="#DA5454" stroke-width="2" stroke-miterlimit="10" stroke-linejoin="round"/>
<path d="M37.2559 23.4738C37.2559 23.8345 36.9463 24.1272 36.5707 24.1272C36.1951 24.1272 35.8896 23.8345 35.8896 23.4738C35.8896 23.1127 36.1951 22.8228 36.5707 22.8228C36.9463 22.8228 37.2559 23.1127 37.2559 23.4738Z" stroke="#DA5454" stroke-width="3" stroke-miterlimit="10" stroke-linejoin="round"/>
</svg>
