<svg width="1440" height="456" viewBox="0 0 1440 456" fill="none" xmlns="http://www.w3.org/2000/svg">
<path d="M278 375C310.707 311.002 509.014 342.004 646.852 290.005C784.689 238.007 851.707 79.9598 1097.74 78.0121C1235.48 76.9218 1437 116 1437 116C1437 116 2047 198 2047 456H394C394 456 245.293 438.998 278 375Z" fill="#FF6363"/>
<path d="M0 13.9997C100.26 48.529 122.527 138.729 225 166C399.967 212.564 507 -4.00045 663 13.9997C819 31.9999 970.955 198.98 899 338C851.635 429.511 663 456 663 456H-691C-691 456 -302.877 -90.3102 0 13.9997Z" fill="#FFC8C8" fill-opacity="0.5"/>
</svg>
