<svg width="473" height="329" viewBox="0 0 473 329" fill="none" xmlns="http://www.w3.org/2000/svg">
<mask id="mask0" mask-type="alpha" maskUnits="userSpaceOnUse" x="0" y="39" width="466" height="225">
<path d="M122.31 255.87C113.13 261.09 100.62 263.7 84.78 263.7C64.08 263.7 48.15 258.75 36.99 248.85C25.83 238.77 20.25 223.74 20.25 203.76V165.96H0V121.41H20.25V80.1H81.27V121.41H111.51V165.96H81.27V203.22C81.27 207.72 82.44 211.23 84.78 213.75C87.12 216.27 90.18 217.53 93.96 217.53C99.18 217.53 103.77 216.18 107.73 213.48L122.31 255.87ZM203.839 110.61C229.759 110.61 249.559 116.46 263.239 128.16C276.919 139.68 283.759 157.5 283.759 181.62V261H227.059V241.56C220.039 256.32 206.089 263.7 185.209 263.7C173.509 263.7 163.519 261.72 155.239 257.76C147.139 253.62 140.929 248.13 136.609 241.29C132.469 234.27 130.399 226.44 130.399 217.8C130.399 203.22 135.979 192.15 147.139 184.59C158.299 177.03 175.219 173.25 197.899 173.25H222.469C220.489 161.73 211.219 155.97 194.659 155.97C187.999 155.97 181.249 157.05 174.409 159.21C167.569 161.19 161.719 163.98 156.859 167.58L137.419 127.35C145.879 122.13 156.049 118.08 167.929 115.2C179.989 112.14 191.959 110.61 203.839 110.61ZM203.569 226.98C207.889 226.98 211.759 225.81 215.179 223.47C218.599 221.13 221.119 217.62 222.739 212.94V202.68H207.619C195.199 202.68 188.989 206.82 188.989 215.1C188.989 218.52 190.249 221.4 192.769 223.74C195.469 225.9 199.069 226.98 203.569 226.98ZM310.131 60.66H371.151V261H310.131V60.66ZM398.197 113.31H459.217V261H398.197V113.31ZM428.707 101.43C417.727 101.43 408.817 98.55 401.977 92.79C395.317 86.85 391.987 79.38 391.987 70.38C391.987 61.38 395.317 54 401.977 48.24C408.817 42.3 417.727 39.33 428.707 39.33C439.867 39.33 448.777 42.12 455.437 47.7C462.097 53.28 465.427 60.48 465.427 69.3C465.427 78.66 462.097 86.4 455.437 92.52C448.777 98.46 439.867 101.43 428.707 101.43Z" fill="black"/>
</mask>
<g mask="url(#mask0)">
<rect x="-95" y="-22" width="568" height="285" fill="#253656"/>
<circle cx="76" cy="324" r="153" fill="#DA5454"/>
<circle cx="365" cy="321" r="153" fill="#F9DEDE"/>
<circle cx="365" cy="321" r="153" fill="#F9DEDE"/>
<circle cx="365" cy="321" r="153" fill="#F9DEDE"/>
<circle cx="121" cy="-8" r="153" fill="#F9DEDE"/>
<circle cx="121" cy="-8" r="153" fill="#F9DEDE"/>
<circle cx="121" cy="-8" r="153" fill="#F9DEDE"/>
<circle cx="338" cy="110" r="101" fill="#DA5454"/>
</g>
</svg>
