<svg width="32" height="32" fill="none" xmlns="http://www.w3.org/2000/svg"><g clip-path="url(#a)"><path d="M4 17.333h2.667v-2.666H4v2.666Zm0 5.334h2.667V20H4v2.667ZM4 12h2.667V9.333H4V12Zm5.333 5.333H28v-2.666H9.333v2.666Zm0 5.334H28V20H9.333v2.667Zm0-13.334V12H28V9.333H9.333Zm-5.333 8h2.667v-2.666H4v2.666Zm0 5.334h2.667V20H4v2.667ZM4 12h2.667V9.333H4V12Zm5.333 5.333H28v-2.666H9.333v2.666Zm0 5.334H28V20H9.333v2.667Zm0-13.334V12H28V9.333H9.333Z" fill="#F17100"/></g><defs><clipPath id="a"><path fill="#fff" d="M0 0h32v32H0z"/></clipPath></defs></svg>