<svg width="144" height="248" fill="none" xmlns="http://www.w3.org/2000/svg"><path d="M125.73 0H17.302C7.787 0 0 7.787 0 17.304v213.392C0 240.215 7.787 248 17.302 248H125.73c9.517 0 17.304-7.785 17.304-17.304V17.304C143.034 7.787 135.247 0 125.73 0Zm13.842 230.696c0 7.635-6.209 13.844-13.842 13.844H17.302c-7.633 0-13.842-6.209-13.842-13.844V17.304C3.46 9.671 9.669 3.46 17.302 3.46H125.73c7.633 0 13.842 6.211 13.842 13.844v213.392Z" fill="#000"/><path d="M125.728 5.768H94.583v2.305a3.455 3.455 0 0 1-3.457 3.462h-39.22a3.45 3.45 0 0 1-2.446-1.013 3.458 3.458 0 0 1-1.016-2.45V5.769H17.3c-6.356 0-11.53 5.173-11.53 11.536v213.391c0 6.362 5.173 11.536 11.53 11.536h108.428c6.36 0 11.534-5.173 11.534-11.536V17.305c0-6.363-5.174-11.537-11.534-11.537Zm-94.583 9.565a4.086 4.086 0 0 1 0 8.168 4.085 4.085 0 1 1 0-8.169Zm40.37 222.866c-4.566 0-8.267-3.704-8.267-8.272 0-4.564 3.7-8.262 8.268-8.262a8.263 8.263 0 0 1 8.267 8.262c0 4.567-3.7 8.272-8.267 8.272Zm57.673-20.573H13.841V33.067h115.347v184.559Z" fill="#000"/><path fill="#F17100" d="M13.516 33h116v185h-116z"/><path fill-rule="evenodd" clip-rule="evenodd" d="m24.445 122.451 44.698-45.432c1.376-1.468 3.763-1.468 5.14 0l44.697 45.432a3.83 3.83 0 0 1 0 5.232l-44.698 45.431c-1.376 1.469-3.763 1.469-5.14 0l-44.697-45.431c-1.468-1.469-1.468-3.763 0-5.232Z" fill="#fff"/><path fill-rule="evenodd" clip-rule="evenodd" d="M42.529 123.277 69.42 95.651a3.274 3.274 0 0 1 4.772 0l26.892 27.626c1.285 1.377 1.285 3.58 0 4.865l-26.892 27.626a3.273 3.273 0 0 1-4.772 0l-26.892-27.626c-1.377-1.285-1.377-3.488 0-4.865Z" fill="#F17100"/><path d="M42.529 123.277 69.42 95.651a3.274 3.274 0 0 1 4.772 0l26.892 27.626c1.285 1.377 1.285 3.58 0 4.865l-26.892 27.626a3.273 3.273 0 0 1-4.772 0l-26.892-27.626c-1.377-1.285-1.377-3.488 0-4.865Z" stroke="#000" stroke-miterlimit="22.926"/><path d="m69.691 77.662-44.697 45.431a2.848 2.848 0 0 0-.826 2.02c0 .734.275 1.468.826 2.019l44.697 45.432a2.85 2.85 0 0 0 2.02.826 2.85 2.85 0 0 0 2.019-.826l44.697-45.432a2.846 2.846 0 0 0 .826-2.019c0-.735-.275-1.469-.826-2.02l-44.79-45.431a2.847 2.847 0 0 0-2.018-.826c-.643 0-1.377.275-1.928.826Zm-45.89 44.147 44.697-45.432c.918-.918 2.02-1.377 3.212-1.377 1.194 0 2.295.459 3.213 1.377l44.697 45.432c.918.917 1.285 2.019 1.285 3.212s-.459 2.386-1.285 3.212l-44.697 45.432c-.918.918-2.02 1.377-3.213 1.377s-2.294-.459-3.212-1.377l-44.697-45.34c-.918-.918-1.285-2.019-1.285-3.212 0-1.194.459-2.387 1.285-3.304Z" fill="#000"/><path d="m46.943 132.523-3.638-4.548 7.73-1.591 2.274-13.869 1.591-8.413 10.913-10.686 2.274 2.729 1.137 1.137 2.046 2.273 3.865 4.775.91 2.956v.682l2.046-1.137 10.004 8.64 1.819 4.319 8.867 6.366-1.137 5.457-2.956 2.274-22.054-8.64h-5.456l-17.507 8.64-2.728-1.364Z" fill="#fff"/><path fill-rule="evenodd" clip-rule="evenodd" d="M65.472 93.17c-.275.184-5.047 4.956-5.965 5.782-.643.643-1.285 1.377-1.928 2.02l-2.937 2.937c-.367.458-.367.917-.459 1.56l-.734 3.304c-.367 2.111-.092 1.744-1.101 2.845l-7.526 8.261c-1.469 1.652-3.763 3.304-3.763 6.149 0 2.019.734 2.662 2.019 3.946.642.643 1.285 1.285 2.019 1.836l4.589 4.222c.918.826 2.478 2.662 3.396 3.488l6.975 6.792c.276.367.643.642 1.01 1.009.642.643 1.377 1.285 2.02 1.928 1.468 1.376 2.569 2.661 3.854 4.038 1.193 1.285 2.203 2.937 4.314 3.488 2.386.642 4.038-.459 5.598-2.111l13.4-14.226 2.02-2.02a320.182 320.182 0 0 0 7.618-8.168c1.193-1.377 2.753-2.845 2.202-5.507-.459-2.386-1.927-3.396-3.212-4.681l-13.767-13.767c-.551-.551-1.285-1.285-2.02-1.928-1.376-1.376-5.14-4.864-5.965-5.874-.643-.734-1.194-1.284-1.836-2.11-.734-.826-1.01-1.285-2.02-1.836-1.009-.459-2.11-.643-3.303-.275-2.57.917-.918 2.202-3.396-.368-.275-.275-.643-.917-1.102-.734Zm31.757 28.911c-1.285-1.193-3.947-2.937-5.048-3.946-.367-.367-2.111-1.652-2.295-1.652-.459.183-.459.642-.734.734-.275-.275-.459-1.469-.734-2.019-.276-.643-10.004-8.995-10.28-8.995-.642.184-1.01 1.01-1.56 1.285-.642-.734-.092-2.662-1.01-3.579-1.01-1.01-2.294-2.662-3.12-3.855-.275-.367-1.928-1.928-2.203-2.295-.459-.642-.918-.826-.918-1.377 1.01-.826 2.111-1.1 3.488-.458.55.275.918.734 1.285 1.101 2.478 2.937 3.12 3.396 5.874 5.966.918.826 1.468 1.56 2.386 2.386 1.377 1.193 5.69 5.599 7.067 7.067l7.068 7.159c1.468 1.56 3.854 3.488 4.13 5.232.183 1.285-.459 2.661-1.285 3.396-.643-.184-.918-.184-.643-.184a1.948 1.948 0 0 0 1.377-1.285c.367-1.468-1.836-3.671-2.845-4.681Zm-18.265 1.285c-.183-.459-.367-1.468-.275-2.019 1.652-1.101.826-.918 2.662-.092 1.743.826 3.67 1.928 5.323 2.754.642.275 2.294 1.285 2.845 1.285 0-.643-.183-1.652-.459-2.203-.183-.551-.826-.734-1.377-1.101-1.1-.643-2.019-1.285-3.12-1.928l-4.68-2.845c-.735-.367-1.01.551-1.837.551l-.183-1.377c.275-.184.918-.918 1.193-1.102.367-.275.918.276 1.377.551l6.608 4.497c.367.276.918.735 1.377.735 0-.367-.092-1.744-.276-2.111-.183-.276-2.11-1.652-2.57-2.019-1.009-.735-6.332-4.773-6.7-4.773-.367 0-.917 1.01-1.468 1.101-.183-.826-.183-1.009.275-1.468.367-.367.643-.734.918-.918.367-.092 2.845 2.111 3.396 2.478l4.222 3.396c.734.642.642.734 1.285.734 0-.642 0-1.744-.367-2.111-.275-.367-3.12-2.661-3.671-3.12l-2.478-2.111c-.368-.276-2.295-2.019-2.662-1.928-.46.184-.918 1.102-1.469 1.193-.275-.826-.091-.917.368-1.376.275-.276.642-.826 1.01-1.01.274.092 7.342 6.425 8.076 7.251 1.01 1.009 1.01.275 1.468 2.386.367 1.652 2.478 8.444 2.295 8.995-.55.092-1.285 0-1.836 0-1.193 0-2.937-.918-4.038-1.377-.826-.367-1.652-.734-2.57-1.101-.367-.092-.918-.551-1.285-.459-.642.275-.826.642-1.377.642ZM43.17 127.68c-.551-.826-.735-1.285-.551-2.478.092-.826.55-1.56 1.01-2.019.917-1.01 1.927-2.02 2.937-3.121 1.1-1.193 2.019-2.111 2.936-3.12.276-.276 2.662-2.937 2.938-3.029 0 .826-.184 1.927-.368 2.57-.55 2.202-.918 6.516-1.468 8.719-.184.642-.55.551-1.928 1.009-.367.092-.734.276-1.01.368-1.009.183-3.67 1.101-4.496 1.101Zm9.086-2.386c0-.459.184-2.111.275-2.57l1.652-11.932c.184-1.56.46-3.12.735-4.589.183-1.009.183-1.377.826-2.019.367-.367.917-.918 1.285-1.377.917-.918 1.743-1.835 2.57-2.753 1.743-1.836 3.487-3.488 5.323-5.415.826-.826.55-.826 1.468.183l2.57 2.845c.276.276.367.46.643.735.642.642 1.468 1.468 2.019 2.111l1.744 2.294c.275.276 1.652 2.019 1.743 2.203.184.826.368 3.855.551 4.956.092.734.276 1.56.367 2.295.092.734.184 1.744.276 2.386l.55 4.864c.184 1.561.46 3.305.551 4.773-.459.092-1.01 0-1.468-.092-.276 0-.46-.092-.735-.092h-.459l-.275.092c.642.367 4.497 1.377 5.69 1.744 5.6 1.744 11.29 3.121 16.797 5.048 0 .551-1.194 1.469-1.194 1.469-.183 0-2.661-1.01-3.12-1.102-1.01-.367-2.02-.734-3.12-1.101-3.03-1.102-6.334-2.203-9.27-3.396-.919-.367-2.112-.734-3.121-1.101-1.102-.368-2.02-.735-3.03-1.102-1.927-.642-1.468-.459-3.762-.459-1.285 0-2.845-.183-3.947.276-1.01.367-2.019.826-3.029 1.285-3.763 1.743-7.984 3.304-11.84 5.048-.917.367-2.019.917-2.936 1.284-.735.368-.735.368-1.377-.183-.459-.459-.918-.734-1.01-1.101 2.111-.827 11.106-3.672 13.584-4.406l3.488-1.101c.826-.276.826-.184.917-.643-.734-.275-5.047.092-6.24.092-2.662-.092-4.681.551-5.691.551Zm39.19-.184c-.55-.918.092-1.101.551-1.652.46-.459.643-.184 1.652.459.551.367 3.03 1.652 3.213 2.203-.826 0-2.02-.826-2.937-1.377-.367-.184-1.01-.734-1.377-.459-.184.184-.642.826-1.101.826Zm-20.467 5.599c-.091-.643.092-1.01.184-1.652.092-.551 0-1.377.642-1.285.551 0 .46.826.551 1.376.092.368.275 1.194.184 1.561-.46.092-1.194.092-1.56 0Zm-.367 2.661c.46-.091 2.111-.275 2.387.184.183.275.734 4.038.734 4.497-.55.184-3.213.184-3.58 0-.183-.367.276-4.222.46-4.681Zm-15.327-25.974c.55 0 1.927-1.468 2.661-2.111.46-.367.826-.642 1.285-1.101 1.01-.826 6.058-5.415 6.241-5.415l7.985 7.618c.276.275.643.917 1.285 1.009.092-.55 0-2.019-.275-2.386-.183-.367-.918-1.101-1.285-1.469-.918-1.101-1.468-1.835-2.478-2.845l-3.947-4.038-.642-.643c-.184-.183-.459-.55-.918-.275-.184.092-.55.55-.642.642-.276.184-.46.46-.735.643-.55.55-.826.826-1.376 1.285-.826.734-6.517 6.149-6.792 6.608-.184.459-.367 2.019-.367 2.478Zm-.551 4.314c.55 0 4.68-3.212 5.232-3.671.826-.643 1.652-1.285 2.57-1.836l2.57-1.836c.367-.091.734.276 1.284.735 1.193.918 2.57 1.744 3.855 2.845l3.671 2.937c.46.275.826.826 1.377.918 0-.459-.092-2.111-.275-2.387l-5.415-5.139c-1.194-1.01-2.387-1.928-3.58-3.029-.275-.184-.459-.551-.918-.275l-8.719 7.067c-.275.275-1.193 1.009-1.377 1.376-.091.276-.275 1.744-.275 2.295Zm21.018 4.773c.092-.735-.092-1.469-.184-2.111-.183-1.01-.275-.918-.917-1.377-1.01-.643-1.836-1.285-2.754-1.927-1.744-1.194-3.763-2.662-5.599-3.764-1.652-1.009-.917-.917-2.937.368l-2.845 1.835c-.918.643-1.835 1.285-2.845 1.836-.918.551-1.744 1.193-2.845 1.927-.734.551-.734 1.01-.826 2.662-.092 1.101.459.642 2.019-.367l5.966-3.304c.459-.276 1.01-.643 1.468-.826 1.744-.826.918-1.102 3.12.091l4.406 2.57c.46.276 1.01.643 1.469.826.734.276 2.845 1.652 3.304 1.561Zm-22.211 5.415 5.69-1.928c.826-.367 1.836-.642 2.754-1.009.459-.184 2.478-1.01 2.845-1.01.275 0 2.386.734 2.845.918.826.367 1.836.642 2.845 1.01 1.01.275 5.048 1.927 5.783 1.835.091-.642-.092-1.56-.184-2.111-.092-1.193-.092-1.009-1.101-1.468-1.56-.735-9.546-4.865-10.188-4.773-.275 0-5.966 2.845-6.7 3.212l-3.396 1.652c-.826.459-1.01.276-1.101 1.377.091.826-.184 1.469-.092 2.295Zm15.97 20.742c.459-.091 4.405-.091 5.048 0 .183.735 1.193 6.333 1.101 6.7-.367.184-3.12 0-3.487 0-.826 0-2.754.092-3.305-.183-.183-.551.46-6.241.643-6.517Z" fill="#000"/><path fill-rule="evenodd" clip-rule="evenodd" d="M91.44 125.111c.46 0 .919-.642 1.194-.826.367-.275 1.01.184 1.377.459.918.551 2.11 1.377 2.937 1.377-.184-.459-2.662-1.836-3.213-2.203-1.01-.642-1.284-.918-1.652-.459-.55.551-1.193.735-.642 1.652Zm-20.83 8.26c-.184.459-.643 4.314-.552 4.589.46.184 3.03.184 3.58 0 .092-.367-.55-4.13-.734-4.497-.184-.367-1.744-.184-2.295-.092Zm-1.102 9.27c-.092.367-.735 5.966-.735 6.517.551.275 2.478.183 3.305.183.367 0 3.12.184 3.487 0 .092-.367-.826-5.966-1.101-6.7-.643-.184-4.497-.184-4.956 0Zm1.468-11.932c.367.092 1.102.092 1.469 0 .092-.367-.092-1.193-.184-1.56-.092-.551 0-1.377-.55-1.377-.551 0-.551.826-.643 1.285 0 .643-.184 1.01-.092 1.652Z" fill="#fff"/></svg>