<svg width="112" height="51" viewBox="0 0 112 51" fill="none" xmlns="http://www.w3.org/2000/svg">
<path d="M32.1343 23.3571V11.585H35.7046L39.2824 15.5875L42.5849 11.585H46.0511V23.3571H42.0866V17.574L39.2006 20.8482H39.1187L36.1063 17.574V23.3571H32.1343Z" fill="white"/>
<path d="M47.7166 17.4713C47.6978 16.6531 47.8478 15.8397 48.1573 15.0807C48.4667 14.3217 48.9293 13.6331 49.5166 13.0567C50.1555 12.4574 50.909 11.9906 51.7329 11.6835C52.5568 11.3765 53.4345 11.2355 54.3143 11.2688C55.1909 11.2253 56.0674 11.358 56.8907 11.659C57.714 11.96 58.4671 12.4229 59.1045 13.0199C59.7015 13.5906 60.1724 14.2775 60.4873 15.0374C60.8023 15.7973 60.9545 16.6135 60.9342 17.4345C60.9597 18.2616 60.81 19.0849 60.4949 19.8514C60.1798 20.618 59.7062 21.3109 59.1045 21.8858C58.4702 22.4894 57.7185 22.9591 56.895 23.2665C56.0715 23.5738 55.1935 23.7124 54.3143 23.6737C53.4346 23.7139 52.5557 23.5797 51.7292 23.279C50.9027 22.9782 50.1454 22.5171 49.5018 21.9226C48.9098 21.342 48.4446 20.6473 48.1349 19.8816C47.8253 19.116 47.6779 18.2956 47.7017 17.4713H47.7166ZM54.3143 20.0096C54.6451 20.0162 54.9735 19.9536 55.2782 19.8259C55.5829 19.6983 55.8568 19.5085 56.0822 19.2688C56.3076 19.0292 56.4793 18.7453 56.5861 18.4355C56.6929 18.1257 56.7323 17.7972 56.7019 17.4713C56.7243 17.1471 56.6792 16.8218 56.5695 16.5155C56.4597 16.2092 56.2877 15.9284 56.0639 15.6905C55.8401 15.4526 55.5694 15.2627 55.2685 15.1323C54.9675 15.002 54.6428 14.9341 54.3143 14.9329C53.9851 14.9308 53.659 14.9965 53.3569 15.1257C53.0548 15.255 52.7831 15.4451 52.5593 15.6838C52.3354 15.9225 52.1642 16.2047 52.0566 16.5125C51.9489 16.8202 51.9072 17.1467 51.934 17.4713C51.9117 17.7948 51.9566 18.1195 52.0658 18.4253C52.1751 18.7311 52.3465 19.0115 52.5695 19.2493C52.7925 19.4871 53.0623 19.6772 53.3624 19.808C53.6624 19.9387 53.9864 20.0074 54.3143 20.0096Z" fill="white"/>
<path d="M66.5808 23.3573H62.6162V11.5852H66.5808V17.7361L70.8205 11.5852H74.7851V23.3573H70.8205V17.2064L66.5808 23.3573ZM67.7039 5.82422C67.7039 6.84692 68.0758 7.33988 68.8122 7.33988C69.5486 7.33988 69.8164 6.84692 69.8164 5.82422H73.2603C73.2603 8.41409 71.6685 10.2756 68.7973 10.2756C65.7031 10.2756 64.2452 8.46559 64.2452 5.82422H67.7039Z" fill="white"/>
<path d="M11.2104 22.1286C10.8386 22.6686 10.3055 23.0802 9.68562 23.3058C8.9611 23.5525 8.21362 23.7275 7.45416 23.8282C6.65986 23.9456 5.88461 24.1657 5.14833 24.483C3.34829 25.2997 2.34413 27.1832 2.13586 30.1704H2.18793C2.63854 29.3263 3.31744 28.6227 4.14885 28.1381C4.98026 27.6535 5.93147 27.4069 6.8963 27.426C10.2807 27.426 12.4229 29.729 12.4229 33.3121C12.4362 34.1038 12.2913 34.8903 11.9964 35.6264C11.7015 36.3625 11.2625 37.0337 10.7046 37.6016C10.1381 38.1813 9.45457 38.6368 8.69855 38.9385C7.94252 39.2402 7.13083 39.3813 6.31612 39.3527C5.44858 39.3899 4.58377 39.2325 3.78643 38.8923C2.98909 38.5521 2.27987 38.0379 1.71188 37.3882C0.495476 35.8579 -0.108279 33.9379 0.0159788 31.9951C0.0159788 26.8938 1.48874 23.7276 4.43426 22.4964C5.17874 22.1804 5.9612 21.9603 6.76241 21.8416C8.42857 21.5547 9.35834 21.4002 10.0724 20.4805L11.2104 22.1286ZM6.26405 37.3588C6.78677 37.3732 7.3067 37.2784 7.78989 37.0807C8.27308 36.8829 8.70868 36.5866 9.06825 36.211C9.43322 35.8363 9.71918 35.3936 9.90945 34.9085C10.0997 34.4234 10.1905 33.9058 10.1765 33.3857C10.1765 31.0018 8.77072 29.3831 6.36819 29.3831C5.39077 29.3512 4.43372 29.6642 3.66813 30.2661C2.9656 30.7897 2.46448 31.5345 2.24743 32.3777C2.24743 35.3869 3.89127 37.344 6.24918 37.344" fill="white"/>
<path d="M16.447 39.0656H14.3271V27.2861H16.447V36.049L23.3274 27.2861H25.4398V39.0656H23.3274V30.2954L16.447 39.0656Z" fill="white"/>
<path d="M29.226 38.8819C28.4475 38.6798 27.7352 38.2819 27.1582 37.7268L28.2814 36.1596C29.2949 36.9308 30.5224 37.3775 31.7996 37.4398C33.6294 37.4398 34.9237 36.6526 34.9237 35.5048C34.9237 34.5336 34.0534 33.9891 32.5955 33.9891H30.5872V32.2822H32.4616C32.7088 32.3096 32.9589 32.2879 33.1975 32.2184C33.436 32.1489 33.6581 32.033 33.8508 31.8774C34.0434 31.7218 34.2026 31.5297 34.3192 31.3124C34.4357 31.0951 34.5072 30.857 34.5294 30.612C34.5294 29.5598 33.5476 28.905 31.9856 28.905C30.6793 28.926 29.4195 29.3881 28.4153 30.2147L27.5375 28.596C28.4896 27.6248 30.3417 27.0215 32.2459 27.0215C35.1022 27.0215 36.7088 28.2281 36.7088 30.1926C36.7338 30.8217 36.5399 31.4403 36.1596 31.945C35.7792 32.4498 35.2353 32.8103 34.6187 32.9664V33.0179C35.3179 33.0671 35.9699 33.3847 36.4355 33.903C36.9011 34.4213 37.1433 35.0991 37.1105 35.7917C37.1105 37.999 35.0427 39.3234 32.0525 39.3234C31.0839 39.3126 30.122 39.164 29.1963 38.8819" fill="white"/>
<path d="M47.955 39.0656V34.0919H41.3424V39.0656H39.23V27.2861H41.3424V32.1274H47.955V27.2861H50.0749V39.0656H47.955Z" fill="white"/>
<path d="M62.8238 37.7782C61.5891 38.8362 59.9931 39.3887 58.3609 39.3233C57.516 39.3644 56.6714 39.2378 55.8769 38.951C55.0823 38.6641 54.3538 38.2228 53.7343 37.6531C53.145 37.0668 52.6854 36.3657 52.3844 35.5944C52.0835 34.8231 51.948 33.9983 51.9863 33.1724C51.9245 31.544 52.5153 29.9574 53.6302 28.7578C54.2028 28.1649 54.8978 27.7009 55.6679 27.3975C56.438 27.0941 57.2652 26.9583 58.0931 26.9994C58.8199 26.9788 59.5434 27.1031 60.2206 27.3647C60.8979 27.6264 61.515 28.02 62.0353 28.5224C62.5638 29.0182 62.9792 29.62 63.2537 30.2874C63.5282 30.9548 63.6555 31.6725 63.6271 32.3925C63.6415 32.8806 63.6041 33.3689 63.5155 33.8493H54.3591C54.5451 36.0565 56.1592 37.3809 58.5171 37.3809C59.8472 37.4555 61.1545 37.0148 62.1618 36.1522L62.8238 37.7782ZM54.2252 32.1276H61.4477C61.4523 31.6935 61.3653 31.2632 61.1921 30.8642C61.019 30.4653 60.7636 30.1065 60.4422 29.8108C60.1209 29.5151 59.7406 29.289 59.3259 29.1469C58.9111 29.0049 58.471 28.95 58.0336 28.9859C57.1143 28.9237 56.2064 29.2161 55.5004 29.8019C54.7945 30.3877 54.3454 31.2213 54.2475 32.1276" fill="white"/>
<path d="M75.3944 37.3585C74.8313 38.0064 74.1273 38.5196 73.335 38.8599C72.5427 39.2001 71.6829 39.3584 70.8199 39.323C69.9791 39.3579 69.1397 39.2283 68.3496 38.9417C67.5595 38.6551 66.8344 38.2171 66.2157 37.6528C65.6279 37.0655 65.1692 36.3642 64.8684 35.5931C64.5676 34.822 64.4312 33.9978 64.4677 33.1721C64.4507 32.3671 64.5943 31.5668 64.8904 30.8168C65.1866 30.0669 65.6293 29.3821 66.1934 28.8017C66.7446 28.2224 67.413 27.7645 68.155 27.4577C68.8971 27.151 69.6961 27.0022 70.5001 27.0211C72.5902 27.0211 74.1522 27.5509 75.1861 28.5662L74.1745 30.2143C73.238 29.3866 72.0157 28.9467 70.7604 28.9856C70.2242 28.9778 69.6921 29.0789 69.197 29.2826C68.7018 29.4864 68.2542 29.7885 67.8818 30.1702C67.4931 30.556 67.1873 31.0156 66.9828 31.5214C66.7782 32.0272 66.6792 32.5686 66.6917 33.1132C66.6641 33.6758 66.7579 34.2378 66.9669 34.7618C67.176 35.2857 67.4955 35.7596 67.9042 36.1519C68.8148 36.9513 70.0084 37.3614 71.224 37.2925C72.4395 37.2236 73.578 36.6812 74.3903 35.784L75.3944 37.3585Z" fill="white"/>
<path d="M100.09 42.7893L96.1176 38.8604L92.1382 42.7893L96.1102 51.0004L100.09 42.7893Z" fill="white"/>
<path d="M96.0946 16.2725C95.5471 16.2725 95.0118 16.4332 94.5566 16.7343C94.1014 17.0353 93.7468 17.4632 93.5376 17.9638C93.3283 18.4643 93.274 19.015 93.3814 19.5462C93.4887 20.0773 93.753 20.565 94.1407 20.9475C94.5284 21.3299 95.0222 21.59 95.5594 21.6948C96.0966 21.7996 96.6532 21.7443 97.1587 21.5361C97.6642 21.3278 98.0958 20.9758 98.3989 20.5247C98.7021 20.0737 98.8631 19.5438 98.8616 19.0021C98.8616 18.643 98.79 18.2875 98.6509 17.9558C98.5117 17.6242 98.3078 17.3229 98.0508 17.0694C97.7937 16.8158 97.4886 16.6149 97.153 16.4781C96.8173 16.3414 96.4576 16.2715 96.0946 16.2725Z" fill="white"/>
<path d="M96.117 4.00781C95.2765 4.43455 84.2754 10.1808 84.2754 19.3704C84.2754 27.221 90.7466 39.1403 90.7466 39.1403L96.117 33.8502L101.48 39.1697C101.48 39.1697 107.951 27.2504 107.951 19.3999C107.951 10.2103 96.9575 4.46398 96.117 4.03724V4.00781ZM99.6873 30.2376L96.1467 26.728L92.5987 30.2376C92.4202 29.752 90.0474 23.395 90.0474 19.2454C90.0474 13.6536 95.7153 10.5193 96.1467 10.2912C96.5707 10.5193 102.239 13.6536 102.239 19.2454C102.239 23.395 99.8658 29.752 99.6873 30.2376Z" fill="white"/>
<path d="M107.955 0.000184344L103.911 4.00098L107.955 8.00177L112 4.00098L107.955 0.000184344Z" fill="white"/>
</svg>
