<svg width="105" height="82" viewBox="0 0 105 82" fill="none" xmlns="http://www.w3.org/2000/svg">
<g clip-path="url(#clip0_184_4747)">
<path d="M97.0847 7.7883C97.146 7.7883 97.2685 7.85071 97.2685 7.97552V27.3834C97.2685 27.4458 97.2072 27.5082 97.146 27.5082L7.97608 75.1232H7.91483C7.85359 75.1232 7.79235 75.1232 7.79235 75.0608C7.73111 74.9983 7.79235 74.9359 7.79235 74.8735L31.9221 7.91311C31.9221 7.85071 31.9834 7.7883 32.0446 7.7883H97.0847ZM97.0847 7.28906H32.0446C31.7996 7.28906 31.5547 7.47628 31.4322 7.7259L7.3024 74.7487C7.11867 75.1856 7.48613 75.6224 7.91483 75.6224C8.03732 75.6224 8.09856 75.6224 8.22105 75.56L97.4522 27.9451C97.6972 27.8203 97.8196 27.6331 97.8196 27.3834V7.97552C97.7584 7.60109 97.4522 7.28906 97.0847 7.28906Z" fill="white"/>
<path d="M30.33 24.4506L7.30258 74.6865C7.05761 75.1858 7.54755 75.7474 8.09874 75.5602L80.2431 48.7885C80.488 48.7261 80.6718 48.4765 80.6718 48.1644V24.7002C80.6718 24.3258 80.3655 24.0762 80.0593 24.0762H30.8812C30.6362 24.0762 30.3912 24.201 30.33 24.4506Z" fill="white"/>
<path d="M33.6372 28.1324H32.4735V25.3866H31.4937V31.8767H32.4735V29.1309H33.6372V31.8767H34.6783V25.3866H33.6372V28.1324ZM75.7724 25.3866H74.7925V31.8767H75.7724V25.3866ZM36.3319 25.3866L35.2907 31.8767H36.2094L36.3931 30.691H37.618L37.8017 31.8767H38.7816L37.8017 25.3866H36.3319ZM36.5156 29.8174L37.0055 26.5723L37.4955 29.8174H36.5156ZM44.9671 28.07L44.5997 29.4429V25.3866H43.681V31.8767H44.7222L45.5796 28.8813L46.0083 27.2588V31.8143H46.9269V25.3866H45.8245L44.9671 28.07ZM60.8291 30.1918L60.9516 26.2603H61.809V31.8143H62.8501V25.3866H60.0329L59.8492 30.2542C59.8492 30.8783 59.6655 30.9407 59.2368 30.9407V31.8767H59.4205C60.3391 31.8767 60.7678 31.3775 60.8291 30.1918ZM74.1801 30.2542V29.4429C74.1801 28.3821 73.6901 27.8204 72.7102 27.8204H72.2203V25.3866H71.2404V31.8767H72.7102C73.6901 31.8767 74.1801 31.2527 74.1801 30.2542ZM72.2203 28.7565H72.7102C73.0164 28.7565 73.2002 28.8813 73.2002 29.3805V30.379C73.2002 30.8158 73.0164 31.0031 72.7102 31.0031H72.2203V28.7565ZM66.5859 30.2542V29.4429C66.5859 28.3821 66.096 27.8204 65.1161 27.8204H64.6261V25.3866H63.6463V31.8767H65.1161C66.096 31.8767 66.5859 31.2527 66.5859 30.2542ZM64.6261 28.7565H65.1161C65.4223 28.7565 65.606 28.8813 65.606 29.3805V30.379C65.606 30.8158 65.4223 31.0031 65.1161 31.0031H64.6261V28.7565ZM68.3007 29.0685H69.4643V31.8143H70.5055V25.3866H69.4643V28.1324H68.3007V25.3866H67.2596V31.8767H68.2395V29.0685H68.3007ZM42.5786 25.3866H41.5375V30.9407H40.3739V25.3866H39.394V31.8767H42.0275V32.7504H43.0073V31.0031H42.5786V25.3866ZM57.7057 31.8767H58.6856L57.6444 25.3866H56.2358L55.1947 31.8767H56.1134L56.2971 30.691H57.522L57.7057 31.8767ZM56.4196 29.8174L56.9095 26.5723L57.3995 29.8174H56.4196ZM79.2632 26.3227V25.3866H76.5685V31.8767H79.2632V30.9407H77.5484V29.0685H78.8958V28.1324H77.5484V26.3227H79.2632ZM49.1317 25.3242C48.1518 25.3242 47.6006 25.8859 47.6006 26.9467V30.3166C47.6006 31.3775 48.1518 31.9391 49.1317 31.9391C50.1115 31.9391 50.6627 31.3775 50.6627 30.3166V26.9467C50.6627 25.8859 50.1115 25.3242 49.1317 25.3242ZM49.6216 30.379C49.6216 30.8158 49.4379 31.0031 49.1317 31.0031C48.8254 31.0031 48.6417 30.8158 48.6417 30.379V26.8843C48.6417 26.4475 48.8254 26.2603 49.1317 26.2603C49.4379 26.2603 49.6216 26.4475 49.6216 26.8843V30.379ZM52.3775 29.0685H53.5412V31.8143H54.5823V25.3866H53.5412V28.1324H52.3775V25.3866H51.3976V31.8767H52.3775V29.0685ZM66.4022 34.0609V33.1248H63.7075V39.6149H66.4022V38.6789H64.6874V36.8067H66.0347V35.8706H64.6874V34.0609H66.4022ZM69.4031 39.6149H70.4442L69.0356 35.9955L70.4442 33.1248H69.4643L68.1782 35.933V33.1248H67.1984V39.6149H68.1782V37.618L68.4845 37.0563L69.4031 39.6149ZM72.9552 39.6149V34.0609H73.9963V33.1248H70.9342V34.0609H71.9753V39.6149H72.9552ZM77.6097 37.9924V37.1811C77.6097 36.1203 77.1197 35.5586 76.1398 35.5586H75.6499V33.1248H74.67V39.6149H76.1398C77.1197 39.6149 77.6097 39.0533 77.6097 37.9924ZM75.6499 36.4947H76.1398C76.4461 36.4947 76.6298 36.6195 76.6298 37.1187V38.1172C76.6298 38.5541 76.4461 38.7413 76.1398 38.7413H75.6499V36.4947ZM59.298 35.5586V34.7474C59.298 33.6865 58.8081 33.1248 57.8282 33.1248H56.3583V39.6149H57.3382V37.1811H57.8282C58.8081 37.1811 59.298 36.6195 59.298 35.5586ZM57.3382 34.0609H57.8282C58.1344 34.0609 58.3181 34.1857 58.3181 34.685V35.6834C58.3181 36.1203 58.1344 36.3075 57.8282 36.3075H57.3382V34.0609ZM52.3775 39.6149H53.3574V34.0609H54.521V39.6149H55.5622V33.1248H52.4388V39.6149H52.3775ZM78.1609 39.6149H79.1408V33.1248H78.1609V39.6149ZM61.4415 33.0624C60.4616 33.0624 59.9104 33.6865 59.9104 34.685V38.0548C59.9104 39.1157 60.4616 39.6773 61.4415 39.6773C62.4214 39.6773 62.9726 39.1157 62.9726 38.0548V34.685C62.9113 33.6865 62.4214 33.0624 61.4415 33.0624ZM61.9315 38.1172C61.9315 38.5541 61.7477 38.7413 61.4415 38.7413C61.1353 38.7413 60.9516 38.5541 60.9516 38.1172V34.6225C60.9516 34.1857 61.1353 33.9985 61.4415 33.9985C61.7477 33.9985 61.9315 34.1857 61.9315 34.6225V38.1172ZM77.2422 43.6088L76.8748 45.0442V40.9254H75.9561V47.4155H76.9972L77.8546 44.4201L78.2833 42.86V47.4155H79.202V40.9254H78.0996L77.2422 43.6088ZM62.4826 40.863C61.5028 40.863 60.9516 41.4247 60.9516 42.4856V45.8554C60.9516 46.9163 61.5028 47.4779 62.4826 47.4779C63.4625 47.4779 64.0137 46.9163 64.0137 45.8554V42.4856C64.0137 41.4247 63.4625 40.863 62.4826 40.863ZM63.0338 45.9178C63.0338 46.3547 62.8501 46.5419 62.5439 46.5419C62.2377 46.5419 62.0539 46.3547 62.0539 45.9178V42.4232C62.0539 41.9863 62.2377 41.7991 62.5439 41.7991C62.8501 41.7991 63.0338 41.9863 63.0338 42.4232V45.9178ZM58.8693 40.9254H57.3995V47.4155H58.3794V44.9818H58.8693C59.8492 44.9818 60.3391 44.4201 60.3391 43.3592V42.548C60.4004 41.4871 59.9104 40.9254 58.8693 40.9254ZM59.3592 43.4216C59.3592 43.8585 59.1755 44.0457 58.8693 44.0457H58.3794V41.8615H58.8693C59.1755 41.8615 59.3592 41.9863 59.3592 42.4856V43.4216ZM66.2185 40.863C65.2386 40.863 64.7486 41.4247 64.7486 42.4856V45.8554C64.7486 46.9163 65.2386 47.4779 66.2185 47.4779C67.1984 47.4779 67.6883 46.9163 67.6883 45.8554V44.9818H66.7697V45.9178C66.7697 46.3547 66.5859 46.5419 66.2797 46.5419C65.9735 46.5419 65.7898 46.3547 65.7898 45.9178V42.4232C65.7898 41.9863 65.9735 41.7991 66.2797 41.7991C66.5859 41.7991 66.7697 41.9863 66.7697 42.4232V43.1096H67.6883V42.4856C67.6883 41.4247 67.1984 40.863 66.2185 40.863ZM69.8318 40.863C68.8519 40.863 68.362 41.4247 68.362 42.4856V45.8554C68.362 46.9163 68.8519 47.4779 69.8318 47.4779C70.8117 47.4779 71.3016 46.9163 71.3016 45.8554V44.9818H70.383V45.9178C70.383 46.3547 70.1993 46.5419 69.8931 46.5419C69.5868 46.5419 69.4031 46.3547 69.4031 45.9178V42.4232C69.4031 41.9863 69.5868 41.7991 69.8931 41.7991C70.1993 41.7991 70.383 41.9863 70.383 42.4232V43.1096H71.3016V42.4856C71.3629 41.4247 70.8117 40.863 69.8318 40.863ZM73.3227 43.6088L72.9552 45.0442V40.9254H72.0366V47.4155H73.0777L73.9351 44.4201L74.3638 42.86V47.4155H75.2824V40.9254H74.1801L73.3227 43.6088Z" fill="#0C1E2F"/>
<path d="M51.0916 11.2207L52.0715 13.9041L53.0513 11.2207H53.7863V14.7154H53.1738V13.5297L53.2351 11.9696L52.2552 14.653H51.8265L50.8466 11.9696L50.9078 13.4673V14.5906H50.2954V11.2207H51.0916Z" fill="white"/>
<path d="M56.4193 13.8416H55.072L54.7658 14.6529H54.1533L55.4394 11.1582H55.9906L57.2767 14.6529H56.6643L56.4193 13.8416ZM55.2557 13.3424H56.2356L55.7456 11.9071L55.2557 13.3424Z" fill="white"/>
<path d="M60.3389 11.2207V14.7154H59.7264V11.6575H58.6853L58.6241 13.0304C58.6241 13.4673 58.5628 13.7793 58.5016 14.0289C58.4403 14.2785 58.3178 14.4034 58.1954 14.5282C58.0729 14.653 57.8279 14.7154 57.5829 14.7154H57.4604V14.1537H57.5829C57.7054 14.1537 57.8279 14.0913 57.8891 14.0289C57.9504 13.9665 58.0116 13.8417 58.0729 13.6545C58.1341 13.4673 58.0729 13.2177 58.0729 12.9056L58.1341 11.2207H60.3389Z" fill="white"/>
<path d="M63.7688 13.0303C63.7688 13.3424 63.7076 13.6544 63.5851 13.904C63.4626 14.1536 63.2789 14.3409 63.0952 14.4657C62.8502 14.5905 62.6052 14.6529 62.3603 14.6529C62.054 14.6529 61.8091 14.5905 61.6253 14.4657C61.3804 14.3409 61.2579 14.1536 61.1354 13.904C61.0129 13.6544 60.9517 13.3424 60.9517 13.0303V12.8431C60.9517 12.5311 61.0129 12.2191 61.1354 11.9695C61.2579 11.7198 61.4416 11.5326 61.6253 11.3454C61.8703 11.2206 62.1153 11.1582 62.3603 11.1582C62.6665 11.1582 62.9114 11.2206 63.0952 11.3454C63.2789 11.4702 63.4626 11.6574 63.5851 11.9071C63.7076 12.1567 63.7688 12.4687 63.7688 12.7807V13.0303ZM63.1564 12.8431C63.1564 12.4687 63.0952 12.1567 62.9727 11.9695C62.8502 11.7823 62.6052 11.6574 62.3603 11.6574C62.1153 11.6574 61.9316 11.7823 61.7478 11.9695C61.6253 12.1567 61.5028 12.4687 61.5028 12.8431V13.0303C61.5028 13.4048 61.5641 13.7168 61.7478 13.904C61.8703 14.0912 62.1153 14.216 62.3603 14.216C62.6052 14.216 62.8502 14.0912 62.9727 13.904C63.0952 13.7168 63.1564 13.4048 63.1564 13.0303V12.8431Z" fill="white"/>
<path d="M66.2796 13.0928H64.871V14.1537H66.5246V14.653H64.3198V11.2207H66.5246V11.6575H64.9323V12.5936H66.3408V13.0928H66.2796Z" fill="white"/>
<path d="M70.2605 11.2207H70.8729V14.7154H70.2605V12.2192L68.7907 14.7154H68.1782V11.2207H68.7907V13.7169L70.2605 11.2207Z" fill="white"/>
<path d="M75.3438 13.5296C75.2826 13.904 75.1601 14.216 74.9151 14.4033C74.6702 14.5905 74.3639 14.7153 73.9965 14.7153C73.7515 14.7153 73.5065 14.6529 73.2616 14.5281C73.0778 14.4033 72.8941 14.216 72.7716 13.9664C72.6491 13.7168 72.5879 13.4672 72.5879 13.1552V12.7807C72.5879 12.4687 72.6491 12.1567 72.7716 11.9071C72.8941 11.6574 73.0778 11.4702 73.2616 11.3454C73.4453 11.2206 73.6903 11.1582 73.9965 11.1582C74.3639 11.1582 74.6702 11.283 74.9151 11.4702C75.1601 11.6574 75.2826 11.9695 75.3438 12.3439H74.7314C74.7314 12.0943 74.6089 11.9071 74.5477 11.7823C74.4252 11.6574 74.2415 11.6574 73.9965 11.6574C73.7515 11.6574 73.5678 11.7823 73.3841 11.9695C73.2616 12.1567 73.2003 12.4687 73.2003 12.8431V13.1552C73.2003 13.5296 73.2616 13.8416 73.3841 14.0288C73.5065 14.216 73.6903 14.3409 73.9352 14.3409C74.1802 14.3409 74.3639 14.2784 74.4864 14.1536C74.6089 14.0288 74.6702 13.8416 74.7314 13.592H75.3438V13.5296Z" fill="white"/>
<path d="M76.4459 13.4049V14.7154H75.8335V11.2207H77.1196C77.4871 11.2207 77.7933 11.3455 78.0382 11.5327C78.2832 11.7199 78.3445 12.032 78.3445 12.344C78.3445 12.656 78.222 12.968 78.0382 13.1553C77.7933 13.3425 77.4871 13.4673 77.1196 13.4673H76.4459V13.4049ZM76.4459 12.9056H77.1808C77.3646 12.9056 77.5483 12.8432 77.6708 12.7808C77.7933 12.656 77.8545 12.5312 77.8545 12.344C77.8545 12.1568 77.7933 12.032 77.6708 11.9072C77.5483 11.7823 77.4258 11.7199 77.1808 11.7199H76.4459V12.9056Z" fill="white"/>
<path d="M80.8553 13.0928H79.4467V14.1537H81.1003V14.653H78.8955V11.2207H81.1003V11.6575H79.5079V12.5936H80.9165V13.0928H80.8553Z" fill="white"/>
<path d="M84.7141 15.5266H84.1629V14.653H81.8969V15.5266H81.3457V14.2161H81.5907C81.7132 14.0913 81.8356 13.9041 81.8969 13.6545C81.9581 13.4049 82.0194 13.0928 82.0806 12.7808L82.1419 11.2207H84.2854V14.1537H84.7141V15.5266ZM82.2643 14.1537H83.7342V11.6575H82.7543L82.693 12.656C82.6318 13.2801 82.5093 13.8417 82.2643 14.1537Z" fill="white"/>
<path d="M87.837 14.653H87.2246V13.0928H85.6935V14.653H85.0811V11.2207H85.6935V12.656H87.2246V11.2207H87.837V14.653Z" fill="white"/>
<path d="M90.532 13.0928H89.1234V14.1537H90.777V14.653H88.5723V11.2207H90.777V11.6575H89.1847V12.5936H90.5933V13.0928H90.532Z" fill="white"/>
<path d="M93.2269 13.0928H91.8183V14.1537H93.4718V14.653H91.2671V11.2207H93.4718V11.6575H91.8795V12.5936H93.2881V13.0928H93.2269Z" fill="white"/>
<path d="M35.7806 20.5191H35.1682V17.5237H33.6984V20.5191H33.0859V17.0244H35.7806V20.5191Z" fill="white"/>
<path d="M37.0665 19.2086V20.5191H36.4541V17.0244H37.7402C38.1077 17.0244 38.4139 17.1492 38.6588 17.3364C38.9038 17.5237 38.9651 17.8357 38.9651 18.1477C38.9651 18.4597 38.8426 18.7718 38.6588 18.959C38.4139 19.1462 38.1077 19.271 37.7402 19.271H37.0665V19.2086ZM37.0665 18.7718H37.8014C37.9852 18.7718 38.1689 18.7093 38.2914 18.6469C38.4139 18.5221 38.4751 18.3973 38.4751 18.2101C38.4751 18.0229 38.4139 17.8981 38.2914 17.7733C38.1689 17.6485 38.0464 17.5861 37.8014 17.5861H37.0665V18.7718Z" fill="white"/>
<path d="M41.4764 18.959H40.0678V20.0198H41.7213V20.5191H39.5166V17.0244H41.7213V17.5237H40.129V18.5221H41.5376V18.959H41.4764Z" fill="white"/>
<path d="M45.3347 21.3928H44.7835V20.5192H42.5175V21.3928H41.9663V20.0823H42.2113C42.3338 19.9575 42.4563 19.7703 42.5175 19.5207C42.5787 19.2711 42.64 18.9591 42.7012 18.647L42.7625 17.0869H44.906V20.0823H45.3347V21.3928ZM42.885 20.0199H44.3548V17.5237H43.3749L43.2524 18.5222C43.2524 19.1463 43.1299 19.7079 42.885 20.0199Z" fill="white"/>
<path d="M48.4579 20.5191H47.8454V17.5237H46.3756V20.5191H45.7632V17.0244H48.4579V20.5191Z" fill="white"/>
<path d="M49.7443 19.2086V20.5191H49.1318V17.0244H50.4179C50.7854 17.0244 51.0916 17.1492 51.3366 17.3364C51.5816 17.5237 51.6428 17.8357 51.6428 18.1477C51.6428 18.4597 51.5203 18.7718 51.3366 18.959C51.0916 19.1462 50.7854 19.271 50.4179 19.271H49.7443V19.2086ZM49.7443 18.7718H50.4792C50.6629 18.7718 50.8466 18.7093 50.9691 18.6469C51.0916 18.5221 51.1529 18.3973 51.1529 18.2101C51.1529 18.0229 51.0916 17.8981 50.9691 17.7733C50.8466 17.6485 50.7242 17.5861 50.4792 17.5861H49.7443V18.7718Z" fill="white"/>
<path d="M54.2761 17.0244H54.8885V20.5191H54.2761V18.0229L52.8063 20.5191H52.1938V17.0244H52.8063V19.5206L54.2761 17.0244Z" fill="white"/>
<path d="M58.3179 20.5191H57.7055V18.959H56.1744V20.5191H55.562V17.0244H56.1744V18.5221H57.7055V17.0868H58.3179V20.5191Z" fill="white"/>
<path d="M61.074 17.0244H61.6864V20.5191H61.074V18.0229L59.6041 20.5191H58.9917V17.0244H59.6041V19.5206L61.074 17.0244Z" fill="white"/>
<path d="M63.095 17.0243L64.0749 19.7077L65.0548 17.0243H65.7897V20.519H65.1773V19.3957L65.2385 17.8356L64.2586 20.519H63.8299L62.85 17.8356L62.9113 19.3333V20.4566H62.2988V16.9619H63.095V17.0243Z" fill="white"/>
<path d="M68.4232 19.7078H67.0759L66.7697 20.5191H66.1572L67.4433 17.0244H67.9945L69.2806 20.5191H68.6682L68.4232 19.7078ZM67.2596 19.2086H68.2395L67.7496 17.7733L67.2596 19.2086Z" fill="white"/>
<path d="M72.1591 17.5237H71.1179V20.5191H70.5055V17.5237H69.4644V17.0244H72.1591V17.5237Z" fill="white"/>
<path d="M74.5477 18.959H73.1391V20.0198H74.7926V20.5191H72.5879V17.0244H74.7926V17.5237H73.2003V18.5221H74.6089V18.959H74.5477Z" fill="white"/>
<path d="M77.9771 17.0244V20.5191H77.3646V17.5237H76.3235L76.2622 18.8966C76.2622 19.3334 76.201 19.6454 76.1398 19.895C76.0785 20.1447 75.956 20.2695 75.8335 20.3943C75.7111 20.5191 75.4661 20.5815 75.2211 20.5815H75.0986V20.0823H75.2211C75.3436 20.0823 75.4661 20.0198 75.5273 19.9574C75.5886 19.895 75.6498 19.7702 75.7111 19.583C75.7723 19.3958 75.7723 19.1462 75.7723 18.8342L75.8335 17.1492H77.9771V17.0244Z" fill="white"/>
<path d="M79.2021 18.3974H79.8757C80.1207 18.3974 80.3657 18.4598 80.5494 18.5222C80.7331 18.5846 80.8556 18.7094 80.9781 18.8967C81.1006 19.0839 81.1006 19.2711 81.1006 19.4583C81.1006 19.7703 80.9781 20.0199 80.7944 20.2696C80.5494 20.4568 80.3044 20.5816 79.937 20.5816H78.6509V17.0869H79.2633V18.3974H79.2021ZM79.2021 18.8967V20.0823H79.8757C80.0595 20.0823 80.2432 20.0199 80.3657 19.8951C80.4882 19.7703 80.5494 19.6455 80.5494 19.4583C80.5494 19.2711 80.4882 19.1463 80.3657 19.0215C80.2432 18.8967 80.1207 18.8967 79.937 18.8343H79.2021V18.8967Z" fill="white"/>
<path d="M84.2237 19.3959C84.1625 19.7703 84.04 20.0823 83.795 20.2696C83.55 20.4568 83.2438 20.5816 82.8764 20.5816C82.6314 20.5816 82.3864 20.5192 82.1415 20.3944C81.9577 20.2696 81.774 20.0823 81.6515 19.8327C81.529 19.5831 81.4678 19.3335 81.4678 19.0215V18.7094C81.4678 18.3974 81.529 18.0854 81.6515 17.8358C81.774 17.5862 81.9577 17.3989 82.1415 17.2741C82.3252 17.1493 82.5701 17.0869 82.8764 17.0869C83.2438 17.0869 83.55 17.2117 83.795 17.3989C84.04 17.5862 84.1625 17.8982 84.2237 18.2726H83.6113C83.6113 18.023 83.4888 17.8358 83.4276 17.711C83.3051 17.5862 83.1213 17.5237 82.9376 17.5237C82.6926 17.5237 82.5089 17.6486 82.3252 17.8358C82.2027 18.023 82.1415 18.335 82.1415 18.7094V19.0215C82.1415 19.3959 82.2027 19.7079 82.3252 19.8951C82.4477 20.0823 82.6314 20.2072 82.8764 20.2072C83.1213 20.2072 83.3051 20.1448 83.4276 20.0199C83.55 19.8951 83.6113 19.7079 83.6725 19.4583H84.2237V19.3959Z" fill="white"/>
<path d="M87.225 17.5237H86.1838V20.5191H85.5714V17.5237H84.5303V17.0244H87.225V17.5237Z" fill="white"/>
<path d="M87.6533 20.5191V17.0244H88.8169C89.1844 17.0244 89.4906 17.0868 89.6743 17.274C89.8581 17.4612 89.9805 17.6485 89.9805 17.9605C89.9805 18.1477 89.9193 18.2725 89.8581 18.3973C89.7968 18.5221 89.6743 18.6469 89.4906 18.7093C89.6743 18.7718 89.7968 18.8342 89.9193 19.0214C90.0418 19.1462 90.0418 19.3334 90.0418 19.5206C90.0418 19.8326 89.9193 20.0823 89.7356 20.2695C89.5518 20.4567 89.2456 20.5191 88.8782 20.5191H87.6533ZM88.2045 18.5221H88.7557C88.9394 18.5221 89.0619 18.4597 89.1844 18.3973C89.3069 18.3349 89.3681 18.2101 89.3681 18.0229C89.3681 17.8357 89.3069 17.7109 89.2456 17.6485C89.1231 17.5861 89.0007 17.5237 88.8169 17.5237H88.2657V18.5221H88.2045ZM88.2045 18.959V20.0198H88.8782C89.0619 20.0198 89.1844 19.9574 89.3069 19.895C89.4294 19.8326 89.4906 19.6454 89.4906 19.5206C89.4906 19.1462 89.3069 18.959 88.9394 18.959H88.2045Z" fill="white"/>
<path d="M93.3489 18.8966C93.3489 19.2086 93.2877 19.5206 93.1652 19.7702C93.0427 20.0198 92.859 20.2071 92.6753 20.3319C92.4303 20.4567 92.1853 20.5191 91.9403 20.5191C91.6341 20.5191 91.3891 20.4567 91.2054 20.3319C90.9604 20.2071 90.838 20.0198 90.7155 19.7702C90.593 19.5206 90.5317 19.2086 90.5317 18.8966V18.7093C90.5317 18.3973 90.593 18.0853 90.7155 17.8357C90.838 17.5861 91.0217 17.3988 91.2054 17.2116C91.4504 17.0868 91.6954 17.0244 91.9403 17.0244C92.2466 17.0244 92.4915 17.0868 92.6753 17.2116C92.9202 17.3364 93.0427 17.5237 93.1652 17.7733C93.2877 18.0229 93.3489 18.3349 93.3489 18.6469V18.8966ZM92.7365 18.7093C92.7365 18.3349 92.6753 18.0229 92.5528 17.8357C92.4303 17.6485 92.1853 17.5237 91.9403 17.5237C91.6954 17.5237 91.5116 17.6485 91.3279 17.8357C91.2054 18.0229 91.0829 18.3349 91.0829 18.7093V18.8966C91.0829 19.271 91.1442 19.583 91.3279 19.7702C91.4504 19.9574 91.6954 20.0823 91.9403 20.0823C92.1853 20.0823 92.4303 19.9574 92.5528 19.7702C92.6753 19.583 92.7365 19.271 92.7365 18.8966V18.7093Z" fill="white"/>
</g>
<defs>
<clipPath id="clip0_184_4747">
<rect width="90.5172" height="68.3333" fill="white" transform="translate(7.24121 7.28906)"/>
</clipPath>
</defs>
</svg>
