<svg width="105" height="82" viewBox="0 0 105 82" fill="none" xmlns="http://www.w3.org/2000/svg">
<path d="M76.3072 37.9559V37.0003C76.3072 36.5442 76.1359 36.3994 75.8218 36.3994H75.3579V38.5712H75.8218C76.1359 38.5567 76.3072 38.4119 76.3072 37.9559Z" fill="white"/>
<path d="M71.9746 30.8976H72.4385C72.7526 30.8976 72.9239 30.7528 72.9239 30.2967V29.3411C72.9239 28.885 72.7526 28.7402 72.4385 28.7402H71.9746V30.8976Z" fill="white"/>
<path d="M49.0917 26.2715C48.7777 26.2715 48.585 26.4452 48.585 26.9013V30.3472C48.585 30.8033 48.7777 30.9771 49.0917 30.9771C49.4058 30.9771 49.6056 30.8033 49.6056 30.3472V26.9013C49.6056 26.4452 49.4129 26.2715 49.0917 26.2715Z" fill="white"/>
<path d="M64.4302 30.8976H64.9013C65.2153 30.8976 65.3866 30.7528 65.3866 30.2967V29.3411C65.3866 28.885 65.2153 28.7402 64.9013 28.7402H64.4302V30.8976Z" fill="white"/>
<path d="M58.1635 35.5594V34.6038C58.1635 34.1477 57.9922 34.0029 57.6781 34.0029H57.207V36.1747H57.6781C57.9922 36.1965 58.1635 36.0155 58.1635 35.5594Z" fill="white"/>
<path d="M56.3008 29.7903H57.2501L56.779 26.5615L56.3008 29.7903Z" fill="white"/>
<path d="M36.6152 29.7903H37.5645L37.0863 26.5615L36.6152 29.7903Z" fill="white"/>
<path d="M61.2543 33.9307C60.9403 33.9307 60.7476 34.1044 60.7476 34.5605V38.0064C60.7476 38.4553 60.9403 38.6362 61.2543 38.6362C61.5684 38.6362 61.7682 38.4553 61.7682 38.0064V34.5605C61.7682 34.1044 61.5755 33.9307 61.2543 33.9307Z" fill="white"/>
<path d="M96.6133 7.60877H32.19C32.0636 7.60873 31.94 7.64741 31.8356 7.71974C31.7312 7.79208 31.6507 7.89469 31.6047 8.01417L7.65837 74.1021C7.65492 74.1431 7.65492 74.1842 7.65837 74.2252C7.65527 74.2395 7.65527 74.2543 7.65837 74.2686C7.64773 74.326 7.64773 74.385 7.65837 74.4424C7.65837 74.4424 7.65837 74.4424 7.65837 74.4858C7.66936 74.5256 7.68368 74.5643 7.70119 74.6016C7.69885 74.6184 7.69885 74.6355 7.70119 74.6523L7.75829 74.7392L7.80112 74.7899L7.87963 74.855H7.93673L8.05093 74.9057H8.08662C8.13634 74.9127 8.18678 74.9127 8.2365 74.9057V74.9057C8.30715 74.901 8.37682 74.8864 8.44349 74.8623L79.94 48.5617C80.0616 48.517 80.1666 48.4353 80.2407 48.3277C80.3148 48.2202 80.3544 48.0921 80.354 47.9609V36.7616L96.9202 27.9586C97.0229 27.9054 97.1092 27.8246 97.1696 27.725C97.23 27.6254 97.2623 27.5108 97.2628 27.3939V8.24583C97.2628 8.16031 97.2459 8.07566 97.213 7.99691C97.1801 7.91817 97.1319 7.84695 97.0713 7.7875C97.0107 7.72805 96.9389 7.68159 96.8602 7.65088C96.7815 7.62018 96.6975 7.60585 96.6133 7.60877V7.60877ZM34.7809 31.8099H33.7745V29.0807H32.6468V31.8099H31.6618V25.432H32.6468V28.1685H33.7745V25.432H34.7809V31.8099ZM37.8715 31.8099L37.7002 30.6516H36.4868L36.3155 31.8099H35.409L36.4012 25.432H37.8287L38.835 31.8099H37.8715ZM43.0462 32.6714H42.1112V31.8099H39.4917V25.432H40.4838V30.8977H41.6044V25.432H42.6108V30.9194H43.0462V32.6714ZM46.8648 31.8099H45.9726V27.3215L45.5657 28.8852L44.7378 31.7809H43.7242V25.432H44.6093V29.4716L44.9662 28.0671L45.7727 25.432H46.8648V31.8099ZM50.5977 30.2824C50.6119 30.4913 50.5836 30.701 50.5145 30.8984C50.4454 31.0958 50.3371 31.2767 50.1962 31.4298C50.0553 31.5829 49.8848 31.705 49.6954 31.7884C49.506 31.8719 49.3017 31.915 49.0952 31.915C48.8887 31.915 48.6844 31.8719 48.495 31.7884C48.3056 31.705 48.1352 31.5829 47.9943 31.4298C47.8534 31.2767 47.745 31.0958 47.676 30.8984C47.6069 30.701 47.5786 30.4913 47.5928 30.2824V26.9595C47.5786 26.7506 47.6069 26.5409 47.676 26.3435C47.745 26.1461 47.8534 25.9653 47.9943 25.8121C48.1352 25.659 48.3056 25.5369 48.495 25.4535C48.6844 25.37 48.8887 25.3269 49.0952 25.3269C49.3017 25.3269 49.506 25.37 49.6954 25.4535C49.8848 25.5369 50.0553 25.659 50.1962 25.8121C50.3371 25.9653 50.4454 26.1461 50.5145 26.3435C50.5836 26.5409 50.6119 26.7506 50.5977 26.9595V30.2824ZM53.4527 28.1685V25.432H54.4591V31.8099H53.4455V29.0807H52.325V31.8099H51.3328V25.432H52.325V28.1685H53.4527ZM55.4369 39.4691H54.4234V34.0251H53.3028V39.4908H52.3107V33.0913H55.4298L55.4369 39.4691ZM56.0079 31.8099H55.0943L56.1007 25.432H57.5282L58.5275 31.8099H57.5282L57.3569 30.6516H56.1721L56.0079 31.8099ZM57.2142 39.4691H56.222V33.0913H57.6495C58.6345 33.0913 59.1199 33.6487 59.1199 34.6694V35.473C59.1199 36.4937 58.6345 37.0512 57.6495 37.0512H57.1785L57.2142 39.4691ZM62.6458 31.8099H61.6323V26.3442H60.7686L60.6687 30.2028C60.6687 31.3683 60.2191 31.8244 59.2412 31.8244H59.0842V30.9122C59.5338 30.9122 59.6766 30.8471 59.698 30.2534L59.855 25.432H62.6529L62.6458 31.8099ZM62.7671 34.6188V37.9416C62.7814 38.1506 62.753 38.3602 62.684 38.5576C62.6149 38.755 62.5065 38.9359 62.3656 39.089C62.2247 39.2421 62.0543 39.3642 61.8649 39.4477C61.6755 39.5311 61.4712 39.5742 61.2647 39.5742C61.0582 39.5742 60.8539 39.5311 60.6645 39.4477C60.4751 39.3642 60.3047 39.2421 60.1638 39.089C60.0229 38.9359 59.9145 38.755 59.8454 38.5576C59.7764 38.3602 59.748 38.1506 59.7623 37.9416V34.6188C59.748 34.4098 59.7764 34.2001 59.8454 34.0027C59.9145 33.8053 60.0229 33.6245 60.1638 33.4714C60.3047 33.3183 60.4751 33.1962 60.6645 33.1127C60.8539 33.0292 61.0582 32.9862 61.2647 32.9862C61.4712 32.9862 61.6755 33.0292 61.8649 33.1127C62.0543 33.1962 62.2247 33.3183 62.3656 33.4714C62.5065 33.6245 62.6149 33.8053 62.684 34.0027C62.753 34.2001 62.7814 34.4098 62.7671 34.6188V34.6188ZM60.2333 43.1539C60.2333 44.1747 59.748 44.7321 58.763 44.7321H58.2919V47.1283H57.3069V40.7505H58.7344C59.7194 40.7505 60.2048 41.3007 60.2048 42.3214L60.2333 43.1539ZM63.8449 45.6081C63.8591 45.817 63.8308 46.0267 63.7617 46.2241C63.6927 46.4215 63.5843 46.6023 63.4434 46.7555C63.3025 46.9086 63.1321 47.0307 62.9427 47.1141C62.7533 47.1976 62.549 47.2407 62.3425 47.2407C62.136 47.2407 61.9317 47.1976 61.7423 47.1141C61.5529 47.0307 61.3824 46.9086 61.2415 46.7555C61.1006 46.6023 60.9923 46.4215 60.9232 46.2241C60.8541 46.0267 60.8258 45.817 60.84 45.6081V42.278C60.8258 42.069 60.8541 41.8593 60.9232 41.662C60.9923 41.4646 61.1006 41.2837 61.2415 41.1306C61.3824 40.9775 61.5529 40.8554 61.7423 40.7719C61.9317 40.6885 62.136 40.6454 62.3425 40.6454C62.549 40.6454 62.7533 40.6885 62.9427 40.7719C63.1321 40.8554 63.3025 40.9775 63.4434 41.1306C63.5843 41.2837 63.6927 41.4646 63.7617 41.662C63.8308 41.8593 63.8591 42.069 63.8449 42.278V45.6081ZM64.9013 27.8355C65.8862 27.8355 66.3716 28.3929 66.3716 29.4137V30.2462C66.3716 31.2669 65.8862 31.8171 64.9013 31.8171H63.4738V25.432H64.4587V27.8282L64.9013 27.8355ZM65.8434 35.7988V36.7109H64.4873V38.5787H66.1932V39.4908H63.5237V33.0913H66.2217V34.0251H64.4873V35.7988H65.8434ZM67.4779 42.9223H66.5429V42.2345C66.5429 41.7785 66.343 41.612 66.029 41.612C65.7149 41.612 65.5151 41.7785 65.5151 42.2345V45.6805C65.5151 46.1365 65.7149 46.3031 66.029 46.3031C66.343 46.3031 66.5429 46.1365 66.5429 45.6805V44.7466H67.4779V45.6081C67.5088 45.8166 67.4927 46.0296 67.4309 46.2309C67.3691 46.4323 67.2632 46.6169 67.121 46.7708C66.9789 46.9247 66.8042 47.044 66.6102 47.1197C66.4161 47.1954 66.2076 47.2256 66.0004 47.208C65.0297 47.208 64.5301 46.6288 64.5301 45.6081V42.278C64.5301 41.2572 65.0297 40.6781 66.0004 40.6781C66.2076 40.6604 66.4161 40.6906 66.6102 40.7663C66.8042 40.842 66.9789 40.9613 67.121 41.1152C67.2632 41.2692 67.3691 41.4537 67.4309 41.6551C67.4927 41.8565 67.5088 42.0694 67.4779 42.278V42.9223ZM67.8919 39.4908H66.9069V33.0913H67.8919V35.8712L69.1838 33.0913H70.1759L68.7983 35.9363L70.1759 39.4691H69.1624L68.1988 36.9209L67.8919 37.5V39.4908ZM69.1909 28.1902V25.432H70.1973V31.8099H69.1909V29.0807H68.0632V31.8099H67.0925V25.432H68.0775V28.1685L69.1909 28.1902ZM71.0895 42.9006H70.1545V42.2128C70.1545 41.7567 69.9618 41.5902 69.6477 41.5902C69.3337 41.5902 69.1338 41.7567 69.1338 42.2128V45.6587C69.1338 46.1148 69.3337 46.2813 69.6477 46.2813C69.9618 46.2813 70.1545 46.1148 70.1545 45.6587V44.7466H71.0895V45.6081C71.0895 46.6288 70.5899 47.208 69.6192 47.208C69.412 47.2256 69.2035 47.1954 69.0094 47.1197C68.8154 47.044 68.6407 46.9247 68.4986 46.7708C68.3564 46.6169 68.2505 46.4323 68.1887 46.2309C68.1269 46.0296 68.1108 45.8166 68.1417 45.6081V42.278C68.1108 42.0694 68.1269 41.8565 68.1887 41.6551C68.2505 41.4537 68.3564 41.2692 68.4986 41.1152C68.6407 40.9613 68.8154 40.842 69.0094 40.7663C69.2035 40.6906 69.412 40.6604 69.6192 40.6781C70.5899 40.6781 71.0895 41.2572 71.0895 42.278V42.9006ZM70.6612 34.0251V33.0913H73.7161V34.0251H72.6812V39.4908H71.6962V34.0251H70.6612ZM72.4171 27.85C73.4092 27.85 73.8945 28.4074 73.8945 29.4281V30.2607C73.8945 31.2814 73.4092 31.8316 72.4171 31.8316H70.9896V25.432H71.9817V27.8282L72.4171 27.85ZM74.9438 47.1283H74.0516V42.6327L73.6447 44.2036L72.8168 47.0994H71.8032V40.7505H72.6812V44.79L73.0452 43.3784L73.8517 40.7505H74.9438V47.1283ZM75.3649 33.0913V35.473H75.8288C76.8209 35.473 77.3063 36.0304 77.3063 37.0512V37.8765C77.3063 38.9044 76.8209 39.4546 75.8288 39.4546H74.4013V33.0913H75.3649ZM74.487 31.8099V25.432H75.4791V31.8099H74.487ZM78.8622 47.1283H77.9701V42.6327L77.5632 44.2036L76.7353 47.0994H75.7217V40.7505H76.5997V44.79L76.9637 43.3784L77.7988 40.7505H78.8908L78.8622 47.1283ZM78.8622 39.4691H77.8701V33.0913H78.8622V39.4691ZM78.9693 26.3442H77.2563V28.1178H78.6196V29.03H77.2563V30.8977H78.9693V31.8099H76.2713V25.432H78.9693V26.3442ZM96.7703 27.3939C96.7702 27.4245 96.7614 27.4545 96.7449 27.4801C96.7285 27.5058 96.705 27.5261 96.6775 27.5387L80.3326 36.2259V24.795C80.3335 24.711 80.3179 24.6278 80.2867 24.55C80.2555 24.4723 80.2093 24.4017 80.1507 24.3423C80.0922 24.283 80.0226 24.2361 79.946 24.2044C79.8693 24.1727 79.7872 24.1569 79.7045 24.1579H31.0195C30.8995 24.1577 30.7819 24.1923 30.6807 24.2578C30.5795 24.3232 30.4989 24.4167 30.4485 24.5271L10.0352 68.9187L32.0401 8.19516C32.0527 8.16528 32.0735 8.13977 32.1001 8.12176C32.1268 8.10376 32.158 8.09404 32.19 8.0938H96.6133C96.6549 8.0938 96.6948 8.11058 96.7243 8.14045C96.7537 8.17032 96.7703 8.21083 96.7703 8.25307V27.3939Z" fill="white"/>
<path d="M62.3391 41.5898C62.025 41.5898 61.8252 41.7563 61.8252 42.2124V45.6584C61.8252 46.1144 62.025 46.2882 62.3391 46.2882C62.6531 46.2882 62.853 46.1144 62.853 45.6584V42.2124C62.853 41.7563 62.6531 41.5898 62.3391 41.5898Z" fill="white"/>
<path d="M58.7631 41.6553H58.292V43.8271H58.7631C59.0771 43.8271 59.2484 43.6823 59.2484 43.2262V42.2634C59.2413 41.8073 59.0771 41.6553 58.7631 41.6553Z" fill="white"/>
<path d="M35.1025 14.906H35.7235V11.7714H37.308V14.906H37.929V11.2646H35.1025V14.906Z" fill="white"/>
<path d="M41.3404 12.4224C41.3471 12.2649 41.3192 12.1079 41.2587 11.9626C41.1982 11.8174 41.1067 11.6876 40.9907 11.5827C40.7233 11.3573 40.3814 11.2434 40.0343 11.2641H38.6567V14.8838H39.2563V13.5518H39.97C40.3185 13.5766 40.6639 13.471 40.9407 13.2549C41.0665 13.1572 41.1681 13.031 41.2375 12.8865C41.3069 12.742 41.3421 12.5831 41.3404 12.4224ZM40.541 12.8857C40.3986 13.0029 40.2171 13.0599 40.0343 13.045H39.2563V11.7709H40.02C40.2008 11.7657 40.3769 11.8304 40.5125 11.9519C40.5721 12.0154 40.6186 12.0905 40.6492 12.1725C40.6799 12.2545 40.6941 12.342 40.6909 12.4297C40.6982 12.512 40.6887 12.5951 40.6629 12.6736C40.6371 12.752 40.5956 12.8243 40.541 12.8857V12.8857Z" fill="white"/>
<path d="M44.5524 14.1171C44.6778 13.8226 44.7387 13.5039 44.7308 13.1832V12.9805C44.737 12.6569 44.6737 12.3357 44.5452 12.0394C44.4329 11.7881 44.2521 11.5746 44.0242 11.424C43.7887 11.2831 43.5196 11.2104 43.2462 11.2141C42.9717 11.2091 42.7016 11.2845 42.4682 11.4313C42.2337 11.5794 42.0495 11.7966 41.94 12.0539C41.8078 12.3617 41.7444 12.6955 41.7545 13.0312V13.2339C41.7485 13.5528 41.8118 13.8692 41.94 14.1605C42.0543 14.4127 42.2376 14.6263 42.4682 14.7759C42.7049 14.9179 42.9748 14.9928 43.2498 14.9928C43.5248 14.9928 43.7947 14.9179 44.0313 14.7759C44.2675 14.6157 44.4494 14.3857 44.5524 14.1171V14.1171ZM43.2462 14.4356C43.1215 14.4424 42.9972 14.4159 42.8857 14.3588C42.7742 14.3016 42.6795 14.2158 42.611 14.1098C42.438 13.8339 42.3556 13.5096 42.3754 13.1832V12.966C42.3624 12.6472 42.4445 12.3318 42.611 12.0611C42.6847 11.9608 42.7805 11.8793 42.8908 11.8231C43.0011 11.767 43.1228 11.7377 43.2462 11.7377C43.3696 11.7377 43.4913 11.767 43.6016 11.8231C43.7119 11.8793 43.8077 11.9608 43.8814 12.0611C44.0484 12.3394 44.1281 12.6625 44.1098 12.9877V13.1832C44.1308 13.51 44.0536 13.8356 43.8886 14.1171C43.8186 14.2228 43.7223 14.3079 43.6096 14.3638C43.4968 14.4197 43.3714 14.4445 43.2462 14.4356Z" fill="white"/>
<path d="M47.5358 12.3144V14.906H48.1567V11.2646H47.5358L45.9584 13.8563V11.2646H45.3374V14.906H45.9584L47.5358 12.3144Z" fill="white"/>
<path d="M50.0054 14.4783C49.8274 14.4895 49.6517 14.4327 49.5129 14.319C49.4528 14.2722 49.404 14.2119 49.3706 14.1428C49.3372 14.0738 49.3199 13.9978 49.3202 13.9209H48.6993C48.6975 14.1159 48.7521 14.3071 48.8563 14.4711C48.971 14.6401 49.1324 14.7711 49.3202 14.8475C49.5458 14.9442 49.7891 14.991 50.034 14.985C50.3847 15.0008 50.7309 14.8991 51.019 14.6955C51.1427 14.6026 51.2416 14.4797 51.3064 14.338C51.3712 14.1964 51.4 14.0405 51.3901 13.8847C51.3985 13.6955 51.3431 13.5091 51.2331 13.3562C51.1151 13.2034 50.9529 13.0919 50.7691 13.0377C50.9324 12.9635 51.0747 12.849 51.1831 12.7047C51.2828 12.5744 51.3357 12.4135 51.333 12.2486C51.3398 12.1034 51.3122 11.9586 51.2526 11.8264C51.193 11.6941 51.1031 11.5783 50.9904 11.4884C50.7558 11.3372 50.4888 11.2451 50.2119 11.22C49.935 11.1948 49.6562 11.2372 49.3987 11.3437C49.2185 11.4227 49.0612 11.5474 48.9419 11.7056C48.8357 11.8605 48.7807 12.0455 48.7849 12.2341H49.4059C49.4039 12.1625 49.4191 12.0915 49.4501 12.0271C49.4812 11.9628 49.5273 11.9071 49.5843 11.8649C49.7137 11.7663 49.8722 11.7153 50.034 11.7201C50.2094 11.7117 50.3827 11.7626 50.5265 11.8649C50.5861 11.9102 50.634 11.9693 50.6663 12.0374C50.6986 12.1054 50.7143 12.1803 50.712 12.2558C50.712 12.6178 50.4908 12.7988 50.0483 12.7988H49.6485V13.2983H50.0697C50.2532 13.2886 50.4351 13.3367 50.5907 13.4358C50.6522 13.4919 50.7003 13.5615 50.7312 13.6393C50.7621 13.7171 50.7751 13.801 50.7691 13.8847C50.7694 13.9652 50.7508 14.0446 50.7148 14.1164C50.6788 14.1881 50.6265 14.2502 50.5622 14.2973C50.4038 14.4231 50.2064 14.4873 50.0054 14.4783V14.4783Z" fill="white"/>
<path d="M54.4808 13.8418C54.487 13.653 54.4319 13.4673 54.3238 13.3134C54.215 13.1603 54.0553 13.0523 53.8741 13.0093C54.0325 12.9473 54.1692 12.8389 54.2667 12.698C54.3528 12.5648 54.3976 12.4085 54.3952 12.2492C54.4014 12.1121 54.3762 11.9755 54.3217 11.8499C54.2673 11.7243 54.1849 11.6132 54.0811 11.5252C53.8068 11.3423 53.4808 11.2559 53.1533 11.2791H51.9185V14.8988H53.2318C53.5632 14.9193 53.8913 14.822 54.1596 14.6237C54.2676 14.5261 54.3525 14.4052 54.4081 14.2699C54.4637 14.1345 54.4885 13.9882 54.4808 13.8418V13.8418ZM52.5466 11.7714H53.1533C53.3193 11.7592 53.4847 11.8024 53.6243 11.8944C53.6774 11.9434 53.7186 12.0042 53.7446 12.072C53.7706 12.1399 53.7807 12.2129 53.7742 12.2854C53.779 12.3569 53.7666 12.4286 53.738 12.4942C53.7094 12.5598 53.6655 12.6173 53.6101 12.6618C53.4778 12.7594 53.3166 12.8079 53.1533 12.7994H52.5466V11.7714ZM53.6957 14.2545C53.5644 14.3546 53.4031 14.4058 53.2389 14.3993H52.5251V13.2627H53.2389C53.3512 13.2648 53.4605 13.3001 53.5534 13.3642C53.6463 13.4283 53.7187 13.5185 53.7619 13.6237C53.8051 13.7289 53.8171 13.8446 53.7964 13.9566C53.7758 14.0687 53.7234 14.1722 53.6457 14.2545H53.6957Z" fill="white"/>
<path d="M57.2429 11.424C57.0074 11.2831 56.7383 11.2104 56.4649 11.2141C56.1904 11.2091 55.9203 11.2845 55.6869 11.4313C55.4553 11.5827 55.2719 11.799 55.1587 12.0539C55.0216 12.3606 54.9533 12.6944 54.9589 13.0312V13.2339C54.9527 13.5536 55.0186 13.8706 55.1516 14.1605C55.2634 14.4144 55.4473 14.6286 55.6798 14.7759C55.9131 14.9226 56.1832 14.998 56.4578 14.993C56.7323 14.998 57.0024 14.9226 57.2358 14.7759C57.4682 14.6273 57.65 14.41 57.7568 14.1533C57.8847 13.8593 57.948 13.5407 57.9424 13.2194V13.0167C57.9466 12.6925 57.8808 12.3713 57.7497 12.0756C57.6509 11.8107 57.4739 11.5831 57.2429 11.424V11.424ZM57.3285 13.1832C57.3473 13.5108 57.2677 13.8364 57.1001 14.1171C57.0257 14.2175 56.9292 14.299 56.8183 14.3551C56.7074 14.4112 56.5852 14.4404 56.4613 14.4404C56.3374 14.4404 56.2152 14.4112 56.1044 14.3551C55.9935 14.299 55.897 14.2175 55.8225 14.1171C55.6525 13.8401 55.5726 13.516 55.5941 13.1904V12.9733C55.5757 12.6549 55.6555 12.3386 55.8225 12.0683C55.897 11.9679 55.9935 11.8864 56.1044 11.8303C56.2152 11.7742 56.3374 11.745 56.4613 11.745C56.5852 11.745 56.7074 11.7742 56.8183 11.8303C56.9292 11.8864 57.0257 11.9679 57.1001 12.0683C57.2646 12.3474 57.3418 12.6705 57.3214 12.995L57.3285 13.1832Z" fill="white"/>
<path d="M61.4326 11.2646H59.17L59.0772 12.879C59.0567 13.1884 59.0016 13.4944 58.9131 13.7912C58.8497 14.0193 58.732 14.2281 58.5705 14.3993H58.2778V15.8037H58.8774V14.906H61.247V15.8037H61.8395V14.3993H61.3827L61.4326 11.2646ZM60.8116 14.3993H59.2414C59.517 13.9117 59.6668 13.3614 59.6768 12.7994L59.7339 11.7714H60.8116V14.3993Z" fill="white"/>
<path d="M64.5372 14.906H65.1653V11.2646H64.5372L62.9598 13.8563V11.2646H62.3389V14.906H62.9598L64.5372 12.3144V14.906Z" fill="white"/>
<path d="M66.7502 14.906H67.364V11.7714H68.4846V11.2646H65.6367V11.7714H66.7502V14.906Z" fill="white"/>
<path d="M71.2823 14.3993H69.5622V13.2772H71.0325V12.7777H69.5622V11.7714H71.268V11.2646H68.9341V14.906H71.2823V14.3993Z" fill="white"/>
<path d="M72.2961 14.7393C72.4691 14.6047 72.5944 14.4167 72.6529 14.2036C72.749 13.8718 72.8018 13.5286 72.81 13.1828L72.8742 11.7712H73.9734V14.9058H74.5943V11.2861H72.2818L72.2104 13.067C72.2054 13.3345 72.1768 13.601 72.1248 13.8633C72.1007 14.0096 72.0391 14.1469 71.9463 14.2615C71.8598 14.3525 71.7425 14.4068 71.618 14.4135H71.5181V14.9203H71.6751C71.8957 14.9277 72.113 14.8644 72.2961 14.7393V14.7393Z" fill="white"/>
<path d="M77.6206 14.5875C77.7341 14.4855 77.8236 14.3592 77.8829 14.2177C77.9422 14.0762 77.9696 13.9231 77.9632 13.7695C77.968 13.5637 77.9161 13.3606 77.8134 13.1831C77.7039 13.0114 77.5477 12.8756 77.3637 12.7921C77.1385 12.694 76.8949 12.647 76.6499 12.6546H75.9362V11.2646H75.3081V14.8843H76.6856C77.0232 14.9099 77.3577 14.8037 77.6206 14.5875ZM75.9433 14.3993V13.1686H76.6571C76.8312 13.1631 77.0013 13.2223 77.1353 13.3351C77.194 13.39 77.2398 13.4575 77.2694 13.5326C77.2991 13.6078 77.3118 13.6887 77.3066 13.7695C77.3106 13.854 77.2968 13.9384 77.266 14.0171C77.2352 14.0957 77.1882 14.1668 77.1282 14.2255C77.0619 14.2867 76.9841 14.3337 76.8994 14.3635C76.8148 14.3934 76.7251 14.4055 76.6357 14.3993H75.9433Z" fill="white"/>
<path d="M79.1053 13.2917H80.7113V14.906H81.3322V11.2646H80.7113V12.7777H79.1053V11.2646H78.4844V14.906H79.1053V13.2917Z" fill="white"/>
<path d="M82.6524 14.7398C82.8858 14.8866 83.1559 14.962 83.4304 14.957C83.7074 14.9634 83.9801 14.8879 84.2155 14.7398C84.4462 14.5892 84.6275 14.3725 84.7366 14.1172C84.862 13.8227 84.9229 13.5041 84.915 13.1833V12.9806C84.9212 12.657 84.8579 12.3359 84.7294 12.0395C84.6171 11.7883 84.4363 11.5748 84.2084 11.4242C83.9729 11.2832 83.7038 11.2106 83.4304 11.2142C83.1535 11.2078 82.8807 11.2833 82.6453 11.4314C82.4146 11.582 82.2333 11.7987 82.1243 12.054C81.994 12.3497 81.9306 12.6713 81.9387 12.9951V13.1978C81.9327 13.5168 81.996 13.8332 82.1243 14.1245C82.2385 14.3767 82.4219 14.5903 82.6524 14.7398V14.7398ZM82.5596 12.9662C82.5466 12.6474 82.6287 12.332 82.7952 12.0612C82.8689 11.9609 82.9647 11.8794 83.075 11.8233C83.1853 11.7671 83.307 11.7379 83.4304 11.7379C83.5538 11.7379 83.6755 11.7671 83.7858 11.8233C83.8961 11.8794 83.9919 11.9609 84.0657 12.0612C84.2326 12.3395 84.3123 12.6627 84.2941 12.9879V13.1833C84.3115 13.5098 84.2346 13.8344 84.0728 14.1172C83.9976 14.2177 83.9004 14.2992 83.789 14.3553C83.6775 14.4114 83.5548 14.4406 83.4304 14.4406C83.306 14.4406 83.1833 14.4114 83.0718 14.3553C82.9604 14.2992 82.8633 14.2177 82.788 14.1172C82.6211 13.839 82.5414 13.5158 82.5596 13.1906V12.9662Z" fill="white"/>
<path d="M86.0925 14.7467C86.3204 14.8869 86.5825 14.9597 86.8491 14.9566C87.206 14.977 87.5575 14.8607 87.834 14.6308C87.9607 14.515 88.0632 14.3746 88.1356 14.218C88.2079 14.0613 88.2485 13.8915 88.2552 13.7187H87.6342C87.6281 13.9266 87.5468 14.1251 87.4058 14.2761C87.2467 14.3991 87.0485 14.4584 86.8491 14.4426C86.731 14.4468 86.6138 14.4212 86.5079 14.3681C86.4021 14.3151 86.3108 14.2362 86.2424 14.1386C86.0838 13.8653 86.0092 13.5502 86.0283 13.2336V12.9079C86.0129 12.5966 86.0927 12.2882 86.2567 12.0247C86.3264 11.9249 86.42 11.8447 86.5285 11.7915C86.6371 11.7384 86.7572 11.714 86.8776 11.7206C87.0714 11.7067 87.2631 11.7689 87.4129 11.8944C87.5497 12.0533 87.6279 12.2554 87.6342 12.4663H88.2552C88.2401 12.1133 88.0888 11.7805 87.834 11.5396C87.5677 11.3116 87.2257 11.1951 86.8776 11.2139C86.6042 11.2102 86.3351 11.2828 86.0996 11.4238C85.8754 11.5735 85.6973 11.7842 85.5857 12.0319C85.4611 12.3165 85.4001 12.6255 85.4073 12.9368V13.2771C85.4014 13.582 85.4649 13.8843 85.5929 14.1603C85.6988 14.4014 85.8726 14.6054 86.0925 14.7467V14.7467Z" fill="white"/>
<path d="M89.6545 14.906H90.2683V11.7714H91.3889V11.2646H88.541V11.7714H89.6545V14.906Z" fill="white"/>
<path d="M94.1368 14.5875C94.2502 14.4855 94.3398 14.3592 94.399 14.2177C94.4583 14.0762 94.4857 13.9231 94.4794 13.7695C94.49 13.5639 94.4382 13.36 94.331 13.1853C94.2238 13.0105 94.0663 12.8733 93.8798 12.7921C93.6545 12.6946 93.411 12.6477 93.1661 12.6546H92.4523V11.2646H91.8242V14.8843H93.2018C93.5394 14.9099 93.8738 14.8037 94.1368 14.5875V14.5875ZM92.4595 14.3993V13.1686H93.2089C93.383 13.1631 93.5531 13.2223 93.6871 13.3351C93.7458 13.39 93.7916 13.4575 93.8213 13.5326C93.8509 13.6078 93.8636 13.6887 93.8584 13.7695C93.8624 13.854 93.8486 13.9384 93.8178 14.0171C93.7871 14.0957 93.7401 14.1668 93.68 14.2255C93.6137 14.2867 93.5359 14.3337 93.4513 14.3635C93.3666 14.3934 93.2769 14.4055 93.1875 14.3993H92.4595Z" fill="white"/>
<path d="M78.0703 17.8382H79.1766V20.9728H79.7976V17.8382H80.9182V17.3242H78.0703V17.8382Z" fill="white"/>
<path d="M82.7452 17.3237H81.3677V20.9433H81.9958V19.6185H82.7095C83.0574 19.6382 83.401 19.5331 83.6802 19.3217C83.7952 19.2178 83.8856 19.0891 83.9449 18.945C84.0042 18.8009 84.0308 18.6451 84.0228 18.4892C84.0296 18.3306 84.0017 18.1725 83.9413 18.0261C83.8808 17.8796 83.7892 17.7486 83.6731 17.6422C83.4105 17.4283 83.0819 17.3155 82.7452 17.3237V17.3237ZM83.252 18.9525C83.1075 19.0659 82.9275 19.1225 82.7452 19.1118H81.9958V17.8376H82.7952C82.976 17.8325 83.152 17.8972 83.2877 18.0186C83.3471 18.0809 83.3935 18.1546 83.4241 18.2355C83.4548 18.3163 83.4691 18.4026 83.4661 18.4892C83.4662 18.5776 83.4471 18.665 83.4101 18.7451C83.3731 18.8252 83.3191 18.896 83.252 18.9525Z" fill="white"/>
<path d="M85.8716 19.2278L85.0365 17.3239H84.3228L85.5504 19.9807L85.4219 20.2848C85.3921 20.3581 85.3401 20.4201 85.2734 20.4617C85.2067 20.5033 85.1288 20.5224 85.0508 20.5164H84.8438V20.9942H85.1007C85.2622 21.0036 85.4229 20.9664 85.5644 20.887C85.7058 20.8075 85.8223 20.6891 85.9001 20.5454L86.0143 20.321L87.2634 17.2949H86.5497L85.8716 19.2278Z" fill="white"/>
<path d="M90.6465 17.3242H88.3839L88.2911 18.9458C88.2706 19.2528 88.2155 19.5564 88.1269 19.8507C88.0622 20.0804 87.9448 20.2913 87.7843 20.4661H87.4917V21.8633H88.0912V20.9946H90.4609V21.8633H91.0533V20.4661H90.6465V17.3242ZM90.0255 20.4661H88.4838C88.7586 19.9781 88.9083 19.428 88.9192 18.8662L88.9763 17.8382H90.0255V20.4661Z" fill="white"/>
<path d="M92.5592 17.3242L91.2031 20.9439H91.8526L92.1453 20.0896H93.5728L93.8654 20.9439H94.5149L93.1517 17.3242H92.5592ZM92.3166 19.6118L92.8376 18.0988L93.3587 19.6118H92.3166Z" fill="white"/>
</svg>
