<svg width="30" height="29" viewBox="0 0 30 29" fill="none" xmlns="http://www.w3.org/2000/svg">
<rect x="0.5" width="29" height="29" rx="5" fill="#F17100" fill-opacity="0.09"/>
<path d="M6.23937 23.4641C6.56199 23.8051 7.02289 24 7.48379 24C7.50684 24 7.52988 24 7.55292 24C8.106 23.9756 8.63604 23.7077 9.00475 23.2449L14.3742 16.6923L15.0656 15.9615L15.6647 16.5949C15.9413 16.8872 16.2869 17.0333 16.6787 17.0333C17.0705 17.0333 17.4161 16.8872 17.6927 16.5949L23.4078 10.5538C23.4539 10.5051 23.477 10.4564 23.477 10.3833C23.477 10.3103 23.4539 10.2615 23.4078 10.2128L18.5453 5.07308C18.4532 4.97564 18.3149 4.97564 18.2227 5.07308L12.5076 11.1141C12.231 11.4064 12.0928 11.7718 12.0928 12.1859C12.0928 12.6 12.231 12.9654 12.5076 13.2577L13.1067 13.891L12.4154 14.6218L6.21632 20.3218C5.77847 20.7115 5.52497 21.2718 5.50193 21.8564C5.47888 22.3923 5.66324 22.8795 6.00892 23.2449L6.23937 23.4641ZM18.1536 15.4256L13.6368 10.6269L14.3512 9.8718L18.891 14.6705L18.1536 15.4256ZM17.9001 12.941L21.6103 9.01923L22.0943 9.53077L18.384 13.4526L17.9001 12.941ZM17.5775 12.6L17.0935 12.0885L20.8037 8.16667L21.2877 8.67821L17.5775 12.6ZM16.7709 11.7474L16.2869 11.2359L19.9972 7.3141L20.4811 7.82564L16.7709 11.7474ZM15.9643 10.8949L15.4804 10.3833L19.1906 6.46154L19.6745 6.97308L15.9643 10.8949ZM19.2136 14.3295L18.7067 13.7936L22.4169 9.8718L22.9239 10.4077L19.2136 14.3295ZM18.384 5.60897L18.868 6.12051L15.1577 10.0423L14.6738 9.53077L18.384 5.60897ZM12.5537 12.1859C12.5537 11.9179 12.6458 11.65 12.8302 11.4551L13.2911 10.9679L17.831 15.7667L17.3701 16.2538C17.1857 16.4487 16.9552 16.5462 16.6787 16.5462C16.4252 16.5462 16.1717 16.4487 15.9874 16.2538L12.8302 12.9167C12.6458 12.7218 12.5537 12.4538 12.5537 12.1859ZM13.4524 14.2321L14.766 15.6205L14.2129 16.2051L12.8993 14.8167L13.4524 14.2321ZM6.5159 20.6872L12.5537 15.1577L13.8903 16.5705L8.65908 22.9526C8.3595 23.2936 7.96773 23.5128 7.52988 23.5372C7.16116 23.5615 6.81549 23.4154 6.56199 23.1474L6.35459 22.9282C6.1011 22.6603 5.96283 22.2949 5.98587 21.9051C5.98587 21.4179 6.19328 20.9795 6.5159 20.6872Z" fill="#F17100"/>
<path d="M7.85847 22.12C8.01147 21.9583 8.01147 21.6961 7.85848 21.5344C7.70548 21.3727 7.45743 21.3727 7.30444 21.5344C7.15145 21.6961 7.15145 21.9583 7.30444 22.12C7.45744 22.2817 7.70548 22.2817 7.85847 22.12Z" fill="#F17100"/>
<path d="M23.5 12.5026C23.5 12.3564 23.4078 12.259 23.2696 12.259C23.1313 12.259 23.0391 12.3564 23.0391 12.5026V16.741C23.0391 16.8872 23.1313 16.9846 23.2696 16.9846C23.4078 16.9846 23.5 16.8872 23.5 16.741V12.5026Z" fill="#F17100"/>
<path d="M22.5321 13.5256C22.5321 13.3795 22.4399 13.2821 22.3017 13.2821C22.1634 13.2821 22.0712 13.3795 22.0712 13.5256V17.7641C22.0712 17.9103 22.1634 18.0077 22.3017 18.0077C22.4399 18.0077 22.5321 17.9103 22.5321 17.7641V13.5256Z" fill="#F17100"/>
<path d="M22.3017 18.4949C22.1634 18.4949 22.0712 18.5923 22.0712 18.7385V19.7128C22.0712 19.859 22.1634 19.9564 22.3017 19.9564C22.4399 19.9564 22.5321 19.859 22.5321 19.7128V18.7385C22.5321 18.5923 22.4399 18.4949 22.3017 18.4949Z" fill="#F17100"/>
<path d="M23.2696 17.5205C23.1313 17.5205 23.0391 17.6179 23.0391 17.7641V18.7385C23.0391 18.8846 23.1313 18.9821 23.2696 18.9821C23.4078 18.9821 23.5 18.8846 23.5 18.7385V17.7641C23.5 17.6423 23.4078 17.5205 23.2696 17.5205Z" fill="#F17100"/>
<path d="M21.5412 16.4V14.3295C21.5412 14.1833 21.449 14.0859 21.3107 14.0859C21.1725 14.0859 21.0803 14.1833 21.0803 14.3295V16.4C21.0803 16.5462 21.1725 16.6436 21.3107 16.6436C21.449 16.6436 21.5412 16.5462 21.5412 16.4Z" fill="#F17100"/>
</svg>
