<svg width="29" height="29" viewBox="0 0 29 29" fill="none" xmlns="http://www.w3.org/2000/svg">
<rect width="29" height="29" rx="5" fill="#F17100" fill-opacity="0.09"/>
<path d="M8.33944 24H12.6509C13.3317 24 13.8763 23.5075 13.9897 22.8806H14.9882C15.1016 23.5075 15.6462 24 16.327 24H20.6385C21.3873 24 22 23.3955 22 22.6567V13.3209C22 12.7612 21.8185 12.2239 21.5008 11.8209C20.8881 11.0821 20.5477 9.98507 20.5477 8.86567C20.5477 8.37313 20.6158 7.90298 20.7292 7.45522C20.82 7.09701 20.7519 6.71642 20.525 6.44776C20.2981 6.15672 19.9804 6 19.6173 6H18.1877H18.1651C18.1424 6 18.1197 6 18.097 6.02239C13.7401 7.81343 10.9717 6.06716 10.949 6.04478H10.9263C10.9036 6.04478 10.9036 6.02239 10.8809 6.02239C10.8582 6.02239 10.8582 6.02239 10.8356 6.02239H10.8129H9.38327C9.0202 6.02239 8.67982 6.1791 8.47559 6.47015C8.24867 6.76119 8.18059 7.14179 8.27136 7.47761C8.38482 7.92537 8.4529 8.39552 8.4529 8.88806C8.4529 10.0075 8.11252 11.1045 7.49983 11.8433C7.18215 12.2463 7.00061 12.7836 7.00061 13.3433V22.6791C6.97792 23.4179 7.5906 24 8.33944 24ZM21.5462 17.9104H15.4193V16.9925H16.2135C16.3497 16.9925 16.4405 16.903 16.4405 16.7687C16.4405 16.6343 16.3497 16.5448 16.2135 16.5448H15.4193V15.4478H21.5462V17.9104ZM14.9655 22.4328H14.0124V19.7239H14.9655V22.4328ZM14.0124 19.2761V16.9925H14.9655V19.2761H14.0124ZM14.9655 16.5448H14.0124V14.2612H14.9655V16.5448ZM13.5586 16.5448H12.5828C12.4467 16.5448 12.3559 16.6343 12.3559 16.7687C12.3559 16.903 12.4467 16.9925 12.5828 16.9925H13.5586V17.9104H7.43176V15.4478H13.5586V16.5448ZM12.6509 23.5522H8.33944C7.84021 23.5522 7.43176 23.1493 7.43176 22.6567V18.3582H13.5586V19.2761H12.5828C12.4467 19.2761 12.3559 19.3657 12.3559 19.5C12.3559 19.6343 12.4467 19.7239 12.5828 19.7239H13.5586V22.6567C13.5586 23.1716 13.1501 23.5522 12.6509 23.5522ZM20.6385 23.5522H16.327C15.8278 23.5522 15.4193 23.1493 15.4193 22.6567V19.7239H16.2135C16.3497 19.7239 16.4405 19.6343 16.4405 19.5C16.4405 19.3657 16.3497 19.2761 16.2135 19.2761H15.4193V18.3582H21.5462V22.6567C21.5462 23.1716 21.1377 23.5522 20.6385 23.5522ZM19.5947 6.44776C19.8216 6.44776 20.0258 6.53731 20.162 6.71642C20.2981 6.89552 20.3435 7.1194 20.2754 7.34328C20.1393 7.83582 20.0712 8.35075 20.0712 8.86567C20.0712 10.097 20.4569 11.2612 21.115 12.0896C21.3873 12.4254 21.5235 12.8507 21.5235 13.3209V15H15.3966V14.2612H16.1909C16.327 14.2612 16.4178 14.1716 16.4178 14.0373C16.4178 13.903 16.327 13.8134 16.1909 13.8134H15.3966V11.3731C15.3966 10.8582 15.6916 10.3881 16.1228 10.1866C17.507 9.53731 18.3693 7.74627 18.3693 6.44776H19.5947ZM14.2393 7.27612C15.2832 7.27612 16.5312 7.07463 17.9608 6.53731C17.8928 7.70149 17.1212 9.24627 15.9639 9.78358C15.3513 10.0746 14.9655 10.6791 14.9655 11.3731V13.8134H14.0124V11.3731C14.0124 10.6791 13.6267 10.0522 13.014 9.78358C11.8794 9.26866 11.1079 7.76866 11.0171 6.60448C11.5617 6.85075 12.6736 7.27612 14.2393 7.27612ZM7.84021 12.1119C8.49828 11.2836 8.88404 10.097 8.88404 8.88806C8.88404 8.35075 8.81597 7.83582 8.67982 7.36567C8.61174 7.14179 8.65712 6.91791 8.79328 6.73881C8.92943 6.5597 9.13366 6.47015 9.36058 6.47015H10.5632C10.5859 7.79104 11.4482 9.58209 12.8098 10.209C13.2636 10.4104 13.5359 10.8806 13.5359 11.3955V13.8358H12.5601C12.424 13.8358 12.3332 13.9254 12.3332 14.0597C12.3332 14.194 12.424 14.2836 12.5601 14.2836H13.5359V15H7.40907V13.3209C7.43176 12.8731 7.5906 12.4254 7.84021 12.1119Z" fill="#F17100"/>
</svg>
