<svg width="25" height="25" viewBox="0 0 25 25" fill="none" xmlns="http://www.w3.org/2000/svg">
<g clip-path="url(#clip0_2_2306)">
<path d="M12.5007 2.08325C8.4694 2.08325 5.20898 5.34367 5.20898 9.37492C5.20898 14.8437 12.5007 22.9166 12.5007 22.9166C12.5007 22.9166 19.7923 14.8437 19.7923 9.37492C19.7923 5.34367 16.5319 2.08325 12.5007 2.08325ZM7.29232 9.37492C7.29232 6.49992 9.62565 4.16659 12.5007 4.16659C15.3757 4.16659 17.709 6.49992 17.709 9.37492C17.709 12.3749 14.709 16.8645 12.5007 19.6666C10.334 16.8853 7.29232 12.3437 7.29232 9.37492Z" fill="#F17100"/>
<path d="M12.5007 11.9791C13.9389 11.9791 15.1048 10.8132 15.1048 9.37492C15.1048 7.93668 13.9389 6.77075 12.5007 6.77075C11.0624 6.77075 9.89648 7.93668 9.89648 9.37492C9.89648 10.8132 11.0624 11.9791 12.5007 11.9791Z" fill="#F17100"/>
</g>
<defs>
<clipPath id="clip0_2_2306">
<rect width="25" height="25" fill="white"/>
</clipPath>
</defs>
</svg>
