<svg width="25" height="25" viewBox="0 0 25 25" fill="none" xmlns="http://www.w3.org/2000/svg">
<g clip-path="url(#clip0_2_819)">
<path d="M12.5007 2.08333C8.4694 2.08333 5.20898 5.34375 5.20898 9.375C5.20898 14.8437 12.5007 22.9167 12.5007 22.9167C12.5007 22.9167 19.7923 14.8437 19.7923 9.375C19.7923 5.34375 16.5319 2.08333 12.5007 2.08333ZM7.29232 9.375C7.29232 6.5 9.62565 4.16666 12.5007 4.16666C15.3757 4.16666 17.709 6.5 17.709 9.375C17.709 12.375 14.709 16.8646 12.5007 19.6667C10.334 16.8854 7.29232 12.3437 7.29232 9.375Z" fill="black" fill-opacity="0.3"/>
<path d="M12.5007 11.9792C13.9389 11.9792 15.1048 10.8132 15.1048 9.37499C15.1048 7.93675 13.9389 6.77083 12.5007 6.77083C11.0624 6.77083 9.89648 7.93675 9.89648 9.37499C9.89648 10.8132 11.0624 11.9792 12.5007 11.9792Z" fill="black" fill-opacity="0.3"/>
</g>
<defs>
<clipPath id="clip0_2_819">
<rect width="25" height="25" fill="white"/>
</clipPath>
</defs>
</svg>
