<?xml version="1.0" encoding="UTF-8" standalone="no"?>
<!DOCTYPE svg PUBLIC "-//W3C//DTD SVG 20010904//EN" "http://www.w3.org/TR/2001/REC-SVG-20010904/DTD/svg10.dtd">
<svg version="1.0" xmlns="http://www.w3.org/2000/svg" width="192.000000pt" height="192.000000pt" viewBox="0 0 192.000000 192.000000" preserveAspectRatio="xMidYMid meet">
<metadata>
Created by potrace 1.11, written by Peter Selinger 2001-2013
</metadata>
<g transform="translate(0.000000,192.000000) scale(0.100000,-0.100000)" fill="#000000" stroke="none">
<path d="M1083 1668 l1 -113 -522 -3 -522 -2 -1 -38 c-3 -197 0 -1132 4 -1139 3 -4 236 -8 517 -8 308 0 514 -4 518 -9 3 -5 5 -58 5 -118 0 -59 1 -108 3 -108 2 0 190 186 416 412 l413 413 -413 410 c-226 226 -414 412 -416 413 -3 2 -4 -47 -3 -110z"/>
</g>
</svg>