<svg width="320" height="1061" viewBox="0 0 320 1061" fill="none" xmlns="http://www.w3.org/2000/svg">
<path d="M144.912 419.084C197.45 372.641 320 377.117 320 377.117V1004.63C320 1004.63 236.93 1077.38 183.149 1057.58C107.247 1029.64 195.912 931.126 183.149 851.746C166.282 746.837 98.6238 711.855 84.5363 597.944C75.4935 524.825 89.4998 468.068 144.912 419.084Z" fill="#FF6363"/>
<path d="M183 26.4742C86.9998 10.9983 88.9998 106.301 6.99976 94.9983C-21.6454 91.0499 -101 -3.05176e-05 -101 -3.05176e-05V502.998C-101 502.998 -48.9999 780.998 61.0001 780.998C229 780.998 345 668.998 345 546.998C331 408.998 252.813 430.998 229 316.998C205.187 202.998 311 47.1087 183 26.4742Z" fill="#FFC8C8" fill-opacity="0.5"/>
</svg>
