<svg width="136" height="156" viewBox="0 0 136 156" fill="none" xmlns="http://www.w3.org/2000/svg">
<circle cx="35.0016" cy="69.7818" r="25.1244" transform="rotate(54.9046 35.0016 69.7818)" fill="#C4C4C4"/>
<circle cx="69.264" cy="120.238" r="25.1244" transform="rotate(54.9046 69.264 120.238)" fill="#C4C4C4"/>
<circle cx="84.4974" cy="35.0017" r="25.1244" transform="rotate(54.9046 84.4974 35.0017)" fill="#C4C4C4"/>
<path d="M132.805 106.295C128.959 108.998 124.431 110.567 119.737 110.825C115.043 111.082 110.371 110.018 106.252 107.752C102.132 105.486 98.7315 102.11 96.4357 98.0075C94.1399 93.905 93.0411 89.2406 93.2644 84.5447C93.4877 79.8488 95.0241 75.3097 97.6988 71.4436C100.374 67.5774 104.079 64.5393 108.395 62.6746C112.71 60.8098 117.463 60.1933 122.111 60.8952C126.76 61.597 131.118 63.589 134.691 66.6447L124.419 78.655C123.093 77.5214 121.476 76.7824 119.752 76.5221C118.027 76.2617 116.264 76.4904 114.664 77.1822C113.063 77.8739 111.688 79.001 110.696 80.4352C109.703 81.8694 109.133 83.5533 109.051 85.2953C108.968 87.0374 109.375 88.7677 110.227 90.2896C111.079 91.8115 112.34 93.064 113.868 93.9045C115.396 94.745 117.13 95.14 118.871 95.0444C120.613 94.9489 122.292 94.3666 123.719 93.3639L132.805 106.295Z" fill="#DA5454"/>
</svg>
