<svg width="160" height="99" viewBox="0 0 160 99" fill="none" xmlns="http://www.w3.org/2000/svg">
<mask id="mask0" mask-type="alpha" maskUnits="userSpaceOnUse" x="2" y="10" width="152" height="78">
<path d="M49.2737 16.5496V72.1996H33.1487V68.8246C30.6987 71.5746 26.9487 72.9496 21.8987 72.9496C18.2987 72.9496 14.9737 72.0996 11.9237 70.3996C8.92368 68.6496 6.52368 66.1496 4.72368 62.8996C2.97368 59.6496 2.09868 55.8996 2.09868 51.6496C2.09868 47.3996 2.97368 43.6746 4.72368 40.4746C6.52368 37.2246 8.92368 34.7496 11.9237 33.0496C14.9737 31.2996 18.2987 30.4246 21.8987 30.4246C26.4487 30.4246 29.9237 31.5996 32.3237 33.9496V16.5496H49.2737ZM25.9487 59.7496C27.8987 59.7496 29.4987 59.0496 30.7487 57.6496C31.9987 56.1996 32.6237 54.1996 32.6237 51.6496C32.6237 49.0996 31.9987 47.1246 30.7487 45.7246C29.4987 44.3246 27.8987 43.6246 25.9487 43.6246C23.9987 43.6246 22.3987 44.3246 21.1487 45.7246C19.8987 47.1246 19.2737 49.0996 19.2737 51.6496C19.2737 54.1996 19.8987 56.1996 21.1487 57.6496C22.3987 59.0496 23.9987 59.7496 25.9487 59.7496ZM56.7795 31.1746H73.7295V72.1996H56.7795V31.1746ZM65.2545 27.8746C62.2045 27.8746 59.7295 27.0746 57.8295 25.4746C55.9795 23.8246 55.0545 21.7496 55.0545 19.2496C55.0545 16.7496 55.9795 14.6996 57.8295 13.0996C59.7295 11.4496 62.2045 10.6246 65.2545 10.6246C68.3545 10.6246 70.8295 11.3996 72.6795 12.9496C74.5295 14.4996 75.4545 16.4996 75.4545 18.9496C75.4545 21.5496 74.5295 23.6996 72.6795 25.3996C70.8295 27.0496 68.3545 27.8746 65.2545 27.8746ZM127.067 31.1746V64.0246C127.067 71.8246 124.892 77.6746 120.542 81.5746C116.242 85.5246 110.092 87.4996 102.092 87.4996C97.9924 87.4996 94.1674 87.0496 90.6174 86.1496C87.0674 85.2996 84.0424 84.0496 81.5424 82.3996L87.2424 70.8496C88.8424 72.0496 90.8674 73.0246 93.3174 73.7746C95.7674 74.5246 98.1174 74.8996 100.367 74.8996C103.767 74.8996 106.242 74.1746 107.792 72.7246C109.342 71.2746 110.117 69.1496 110.117 66.3496V65.5996C107.567 68.4996 103.792 69.9496 98.7924 69.9496C95.2924 69.9496 92.0174 69.1496 88.9674 67.5496C85.9674 65.8996 83.5674 63.5746 81.7674 60.5746C79.9674 57.5246 79.0674 54.0496 79.0674 50.1496C79.0674 46.2496 79.9674 42.7996 81.7674 39.7996C83.5674 36.7996 85.9674 34.4996 88.9674 32.8996C92.0174 31.2496 95.2924 30.4246 98.7924 30.4246C104.392 30.4246 108.442 32.2246 110.942 35.8246V31.1746H127.067ZM103.292 56.7496C105.292 56.7496 106.942 56.1496 108.242 54.9496C109.592 53.6996 110.267 52.0996 110.267 50.1496C110.267 48.1996 109.592 46.6246 108.242 45.4246C106.942 44.2246 105.292 43.6246 103.292 43.6246C101.242 43.6246 99.5424 44.2246 98.1924 45.4246C96.8924 46.6246 96.2424 48.1996 96.2424 50.1496C96.2424 52.0996 96.9174 53.6996 98.2674 54.9496C99.6174 56.1496 101.292 56.7496 103.292 56.7496ZM134.563 31.1746H151.513V72.1996H134.563V31.1746ZM143.038 27.8746C139.988 27.8746 137.513 27.0746 135.613 25.4746C133.763 23.8246 132.838 21.7496 132.838 19.2496C132.838 16.7496 133.763 14.6996 135.613 13.0996C137.513 11.4496 139.988 10.6246 143.038 10.6246C146.138 10.6246 148.613 11.3996 150.463 12.9496C152.313 14.4996 153.238 16.4996 153.238 18.9496C153.238 21.5496 152.313 23.6996 150.463 25.3996C148.613 27.0496 146.138 27.8746 143.038 27.8746Z" fill="black"/>
</mask>
<g mask="url(#mask0)">
<rect x="-1.85132" y="5.69949" width="159.758" height="85.4991" fill="#253656"/>
<ellipse cx="71.0262" cy="100.198" rx="43.7263" ry="45.8995" fill="#D24747"/>
<ellipse cx="138.473" cy="106.498" rx="43.7263" ry="45.8995" fill="#F9DEDE"/>
<ellipse cx="138.473" cy="106.498" rx="43.7263" ry="45.8995" fill="#F9DEDE"/>
<ellipse cx="138.473" cy="106.498" rx="43.7263" ry="45.8995" fill="#F8C6C6"/>
<ellipse cx="20.7263" cy="14.6994" rx="43.7263" ry="45.8995" fill="#F9DEDE"/>
<ellipse cx="20.7263" cy="14.6994" rx="43.7263" ry="45.8995" fill="#F9DEDE"/>
<ellipse cx="20.7263" cy="14.6994" rx="43.7263" ry="45.8995" fill="#F8C6C6"/>
<ellipse cx="114.181" cy="6.89949" rx="43.7263" ry="45.8995" fill="#D24747"/>
</g>
</svg>
