<svg width="82" height="69" viewBox="0 0 82 69" fill="none" xmlns="http://www.w3.org/2000/svg">
<path d="M76.2768 50.8534V60.1039C76.2768 63.7302 73.1907 66.6741 69.381 66.6741H19.7769C15.9702 66.6741 12.8811 63.7302 12.8811 60.1039V42.2767" stroke="#DA5454" stroke-width="3" stroke-miterlimit="10" stroke-linejoin="round"/>
<path d="M46.2017 18.3568H69.3806C70.5478 18.3568 71.6474 18.6351 72.6083 19.1214C74.7888 20.2257 76.2764 22.4079 76.2764 24.9242V34.1776" stroke="#DA5454" stroke-width="3" stroke-miterlimit="10" stroke-linejoin="round"/>
<path d="M71.7832 15.1044L72.6086 19.1213" stroke="#DA5454" stroke-width="3" stroke-miterlimit="10" stroke-linejoin="round"/>
<path d="M44.8159 13.5558L63.8155 10.0057C67.496 9.31734 71.0624 11.5991 71.7831 15.1053" stroke="#DA5454" stroke-width="3" stroke-miterlimit="10" stroke-linejoin="round"/>
<path d="M48.6782 24.2474H46.3652" stroke="#DA5454" stroke-width="3" stroke-miterlimit="10" stroke-linejoin="round"/>
<path d="M53.0085 24.2474H58.7894" stroke="#DA5454" stroke-width="3" stroke-miterlimit="10" stroke-linejoin="round"/>
<path d="M63.3691 24.2474H69.15" stroke="#DA5454" stroke-width="3" stroke-miterlimit="10" stroke-linejoin="round"/>
<path d="M19.0654 46.4539V44.0981" stroke="#DA5454" stroke-width="3" stroke-miterlimit="10" stroke-linejoin="round"/>
<path d="M19.0654 56.0732V51.0409" stroke="#DA5454" stroke-width="3" stroke-miterlimit="10" stroke-linejoin="round"/>
<path d="M69.9385 33.5594V28.7322" stroke="#DA5454" stroke-width="3" stroke-miterlimit="10" stroke-linejoin="round"/>
<path d="M69.9385 56.299V51.4714" stroke="#DA5454" stroke-width="3" stroke-miterlimit="10" stroke-linejoin="round"/>
<path d="M19.9373 60.7834H25.7181" stroke="#DA5454" stroke-width="3" stroke-miterlimit="10" stroke-linejoin="round"/>
<path d="M30.7964 60.7834H36.5742" stroke="#DA5454" stroke-width="3" stroke-miterlimit="10" stroke-linejoin="round"/>
<path d="M41.6528 60.7834H47.4337" stroke="#DA5454" stroke-width="3" stroke-miterlimit="10" stroke-linejoin="round"/>
<path d="M52.5127 60.7834H58.2905" stroke="#DA5454" stroke-width="3" stroke-miterlimit="10" stroke-linejoin="round"/>
<path d="M63.3691 60.7834H69.15" stroke="#DA5454" stroke-width="3" stroke-miterlimit="10" stroke-linejoin="round"/>
<path d="M79.6522 48.2407H64.1298C60.8097 48.2407 58.1179 45.6805 58.1179 42.5228V42.5082C58.1179 39.3504 60.8097 36.7903 64.1298 36.7903H79.6522V48.2407Z" stroke="#DA5454" stroke-width="3" stroke-miterlimit="10" stroke-linejoin="round"/>
<path d="M64.8257 42.5136C64.8257 42.9532 64.4531 43.3079 63.9942 43.3079C63.5353 43.3079 63.1626 42.9532 63.1626 42.5136C63.1626 42.0769 63.5353 41.7223 63.9942 41.7223C64.4531 41.7223 64.8257 42.0769 64.8257 42.5136Z" stroke="#DA5454" stroke-width="3" stroke-miterlimit="10" stroke-linejoin="round"/>
<path d="M43.7566 21.8923C43.7566 32.8768 34.4093 41.7816 22.8783 41.7816C11.3474 41.7816 2 32.8768 2 21.8923C2 10.9048 11.3474 2 22.8783 2C34.4093 2 43.7566 10.9048 43.7566 21.8923Z" stroke="#DA5454" stroke-width="3" stroke-miterlimit="10" stroke-linejoin="round"/>
<path d="M18.7236 21.2216H24.6677C27.4057 21.2216 29.6263 23.3364 29.6263 25.9434C29.6263 27.2469 29.0719 28.4274 28.1726 29.2827C27.2764 30.1351 26.0352 30.8528 24.6677 30.8528L18.7236 30.6653V21.2216V13.1164L24.2212 12.929C26.5711 12.929 28.4744 14.9325 28.4744 17.1704C28.4744 18.2894 28.0001 19.3029 27.2302 20.0352C26.4602 20.7705 25.3977 21.2216 24.2212 21.2216" stroke="#DA5454" stroke-width="3" stroke-miterlimit="10" stroke-linejoin="round"/>
<path d="M20 12.4622H15" stroke="#DA5454" stroke-width="3" stroke-miterlimit="10" stroke-linejoin="round"/>
<path d="M20 12.4622V7.70654" stroke="#DA5454" stroke-width="3" stroke-miterlimit="10" stroke-linejoin="round"/>
<path d="M20 36.2393V31.4839" stroke="#DA5454" stroke-width="3" stroke-miterlimit="10" stroke-linejoin="round"/>
<path d="M25 12.4622V7.70654" stroke="#DA5454" stroke-width="3" stroke-miterlimit="10" stroke-linejoin="round"/>
<path d="M25 36.2393V31.4839" stroke="#DA5454" stroke-width="3" stroke-miterlimit="10" stroke-linejoin="round"/>
<path d="M20 31.4839H15" stroke="#DA5454" stroke-width="3" stroke-miterlimit="10" stroke-linejoin="round"/>
</svg>
