<svg width="355" height="70" viewBox="0 0 355 70" fill="none" xmlns="http://www.w3.org/2000/svg">
<path d="M58.7699 2.03063C58.7699 0.909466 57.8672 0 56.7517 0H47.7195C46.601 0 45.6953 0.909466 45.6953 2.03063V11.1169C45.6953 12.2396 46.601 13.1498 47.7195 13.1498H56.7517C57.8679 13.1498 58.7699 12.2396 58.7699 11.1169V2.03063Z" fill="#F16364"/>
<path d="M26.1499 41.7117V41.6085V41.5038C26.1499 32.0935 18.7885 25.702 8.72371 25.702H2.02041C0.904208 25.702 0 26.6122 0 27.7349V41.6077V55.4867C0 56.6071 0.904208 57.5165 2.02041 57.5165H8.72371C18.7878 57.5173 26.1499 51.1227 26.1499 41.7117Z" fill="#F16364"/>
<path d="M47.719 57.5172C46.6006 57.5172 45.6948 56.6078 45.6948 55.4874V15.1835C45.6948 14.057 44.7906 13.1498 43.6744 13.1498H15.8765C15.6044 13.1498 15.5049 13.5311 15.7686 13.5992C20.8998 14.9229 25.4633 17.0773 28.5756 19.7767C34.8785 25.29 38.0265 32.043 38.0265 41.4854V41.5595V41.6329C38.0265 51.0784 34.8778 57.8313 28.5756 63.3401C26.1692 65.4311 22.8943 67.1881 19.1628 68.4958C18.8299 68.6143 18.966 69.095 19.3193 69.095H56.7505C57.8667 69.095 58.7686 68.187 58.7686 67.0674V59.5517C58.7686 58.4313 57.8659 57.518 56.7505 57.518H47.719V57.5172Z" fill="#243656"/>
<path d="M66.29 20.1H81.847C85.4503 20.1 88.6463 20.7737 91.435 22.121C94.2237 23.4683 96.3857 25.3797 97.921 27.855C99.4563 30.3303 100.224 33.2287 100.224 36.55C100.224 39.8713 99.4563 42.7697 97.921 45.245C96.3857 47.7203 94.2237 49.6317 91.435 50.979C88.6463 52.3263 85.4503 53 81.847 53H66.29V20.1ZM81.471 45.574C84.291 45.574 86.547 44.775 88.239 43.177C89.9623 41.579 90.824 39.37 90.824 36.55C90.824 33.73 89.9623 31.521 88.239 29.923C86.547 28.325 84.291 27.526 81.471 27.526H75.596V45.574H81.471ZM104.697 27.526H113.627V53H104.697V27.526ZM109.162 24.706C107.533 24.706 106.217 24.2517 105.214 23.343C104.211 22.4343 103.71 21.3063 103.71 19.959C103.71 18.6117 104.211 17.4837 105.214 16.575C106.217 15.6663 107.533 15.212 109.162 15.212C110.791 15.212 112.107 15.6507 113.11 16.528C114.113 17.374 114.614 18.4707 114.614 19.818C114.614 21.228 114.113 22.403 113.11 23.343C112.107 24.2517 110.791 24.706 109.162 24.706ZM146.831 27.526V48.347C146.831 53.0783 145.547 56.619 142.977 58.969C140.408 61.3503 136.711 62.541 131.885 62.541C129.379 62.541 127.029 62.259 124.835 61.695C122.642 61.131 120.778 60.3007 119.242 59.204L122.485 52.953C123.519 53.799 124.82 54.457 126.386 54.927C127.984 55.4283 129.551 55.679 131.086 55.679C133.436 55.679 135.16 55.162 136.256 54.128C137.353 53.094 137.901 51.5587 137.901 49.522V48.676C136.178 50.6813 133.656 51.684 130.334 51.684C128.078 51.684 125.995 51.1827 124.083 50.18C122.172 49.146 120.652 47.7047 119.524 45.856C118.396 43.976 117.832 41.814 117.832 39.37C117.832 36.9573 118.396 34.8267 119.524 32.978C120.652 31.098 122.172 29.6567 124.083 28.654C125.995 27.62 128.078 27.103 130.334 27.103C133.969 27.103 136.632 28.278 138.324 30.628V27.526H146.831ZM132.449 44.587C134.047 44.587 135.363 44.1013 136.397 43.13C137.463 42.1587 137.995 40.9053 137.995 39.37C137.995 37.8347 137.478 36.597 136.444 35.657C135.41 34.6857 134.079 34.2 132.449 34.2C130.82 34.2 129.473 34.6857 128.407 35.657C127.373 36.597 126.856 37.8347 126.856 39.37C126.856 40.9053 127.389 42.1587 128.454 43.13C129.52 44.1013 130.851 44.587 132.449 44.587ZM152.569 27.526H161.499V53H152.569V27.526ZM157.034 24.706C155.405 24.706 154.089 24.2517 153.086 23.343C152.083 22.4343 151.582 21.3063 151.582 19.959C151.582 18.6117 152.083 17.4837 153.086 16.575C154.089 15.6663 155.405 15.212 157.034 15.212C158.663 15.212 159.979 15.6507 160.982 16.528C161.985 17.374 162.486 18.4707 162.486 19.818C162.486 21.228 161.985 22.403 160.982 23.343C159.979 24.2517 158.663 24.706 157.034 24.706ZM184.881 51.966C184.129 52.436 183.204 52.7963 182.108 53.047C181.042 53.2977 179.899 53.423 178.677 53.423C175.355 53.423 172.802 52.6083 171.016 50.979C169.23 49.3497 168.337 46.9213 168.337 43.694V35.14H164.624V28.466H168.337V21.839H177.267V28.466H183.095V35.14H177.267V43.6C177.267 44.5087 177.502 45.2293 177.972 45.762C178.473 46.2633 179.131 46.514 179.946 46.514C180.98 46.514 181.888 46.2477 182.672 45.715L184.881 51.966ZM199.181 27.103C203.411 27.103 206.638 28.0743 208.863 30.017C211.088 31.9283 212.2 34.8737 212.2 38.853V53H203.881V49.71C202.596 52.1853 200.09 53.423 196.361 53.423C194.387 53.423 192.679 53.0783 191.238 52.389C189.797 51.6997 188.7 50.7753 187.948 49.616C187.227 48.4253 186.867 47.078 186.867 45.574C186.867 43.1613 187.791 41.297 189.64 39.981C191.489 38.6337 194.34 37.96 198.194 37.96H203.27C203.113 35.2653 201.312 33.918 197.865 33.918C196.643 33.918 195.405 34.1217 194.152 34.529C192.899 34.905 191.833 35.4377 190.956 36.127L187.948 30.064C189.358 29.124 191.066 28.4033 193.071 27.902C195.108 27.3693 197.144 27.103 199.181 27.103ZM198.852 47.783C199.886 47.783 200.795 47.5323 201.578 47.031C202.361 46.5297 202.925 45.7933 203.27 44.822V42.613H199.416C196.815 42.613 195.515 43.4747 195.515 45.198C195.515 45.9813 195.813 46.608 196.408 47.078C197.003 47.548 197.818 47.783 198.852 47.783ZM217.837 18.126H226.767V53H217.837V18.126ZM232.57 27.526H241.5V53H232.57V27.526ZM237.035 24.706C235.406 24.706 234.09 24.2517 233.087 23.343C232.084 22.4343 231.583 21.3063 231.583 19.959C231.583 18.6117 232.084 17.4837 233.087 16.575C234.09 15.6663 235.406 15.212 237.035 15.212C238.664 15.212 239.98 15.6507 240.983 16.528C241.986 17.374 242.487 18.4707 242.487 19.818C242.487 21.228 241.986 22.403 240.983 23.343C239.98 24.2517 238.664 24.706 237.035 24.706ZM256.563 53.423C254.432 53.423 252.333 53.188 250.265 52.718C248.197 52.2167 246.536 51.5743 245.283 50.791L247.962 44.681C249.121 45.4017 250.5 45.9813 252.098 46.42C253.696 46.8273 255.278 47.031 256.845 47.031C258.286 47.031 259.304 46.89 259.9 46.608C260.526 46.2947 260.84 45.856 260.84 45.292C260.84 44.728 260.464 44.3363 259.712 44.117C258.991 43.8663 257.832 43.6313 256.234 43.412C254.197 43.1613 252.458 42.8323 251.017 42.425C249.607 42.0177 248.385 41.2657 247.351 40.169C246.317 39.0723 245.8 37.537 245.8 35.563C245.8 33.9337 246.285 32.4923 247.257 31.239C248.228 29.9543 249.638 28.9517 251.487 28.231C253.367 27.479 255.607 27.103 258.208 27.103C260.056 27.103 261.889 27.291 263.707 27.667C265.524 28.043 267.044 28.5757 268.266 29.265L265.587 35.328C263.331 34.0747 260.887 33.448 258.255 33.448C256.845 33.448 255.811 33.6203 255.153 33.965C254.495 34.2783 254.166 34.7013 254.166 35.234C254.166 35.8293 254.526 36.2523 255.247 36.503C255.967 36.7223 257.158 36.9573 258.819 37.208C260.918 37.5213 262.657 37.8817 264.036 38.289C265.414 38.6963 266.605 39.4483 267.608 40.545C268.642 41.6103 269.159 43.1143 269.159 45.057C269.159 46.655 268.673 48.0963 267.702 49.381C266.73 50.6343 265.289 51.6213 263.378 52.342C261.498 53.0627 259.226 53.423 256.563 53.423ZM299.045 40.31C299.045 40.3727 298.998 41.109 298.904 42.519H280.386C280.762 43.835 281.482 44.8533 282.548 45.574C283.644 46.2633 285.007 46.608 286.637 46.608C287.859 46.608 288.908 46.4357 289.786 46.091C290.694 45.7463 291.603 45.1823 292.512 44.399L297.212 49.287C294.736 52.0443 291.117 53.423 286.355 53.423C283.378 53.423 280.762 52.859 278.506 51.731C276.25 50.603 274.495 49.0363 273.242 47.031C272.02 45.0257 271.409 42.754 271.409 40.216C271.409 37.7093 272.004 35.469 273.195 33.495C274.417 31.4897 276.093 29.923 278.224 28.795C280.354 27.667 282.751 27.103 285.415 27.103C287.953 27.103 290.256 27.6357 292.324 28.701C294.392 29.735 296.021 31.2547 297.212 33.26C298.434 35.234 299.045 37.584 299.045 40.31ZM285.462 33.448C284.083 33.448 282.924 33.8397 281.984 34.623C281.075 35.4063 280.495 36.4717 280.245 37.819H290.679C290.428 36.4717 289.833 35.4063 288.893 34.623C287.984 33.8397 286.84 33.448 285.462 33.448ZM330.234 18.126V53H321.727V50.462C320.066 52.436 317.575 53.423 314.254 53.423C311.935 53.423 309.82 52.8903 307.909 51.825C305.998 50.7283 304.478 49.1773 303.35 47.172C302.253 45.1667 301.705 42.848 301.705 40.216C301.705 37.584 302.253 35.281 303.35 33.307C304.478 31.3017 305.998 29.7663 307.909 28.701C309.82 27.6357 311.935 27.103 314.254 27.103C317.293 27.103 319.643 27.9803 321.304 29.735V18.126H330.234ZM316.134 46.326C317.669 46.326 318.938 45.7933 319.941 44.728C320.944 43.6313 321.445 42.1273 321.445 40.216C321.445 38.336 320.944 36.8633 319.941 35.798C318.97 34.7327 317.701 34.2 316.134 34.2C314.567 34.2 313.283 34.7327 312.28 35.798C311.277 36.8633 310.776 38.336 310.776 40.216C310.776 42.1273 311.277 43.6313 312.28 44.728C313.283 45.7933 314.567 46.326 316.134 46.326Z" fill="#243656"/>
</svg>
