<svg width="286" height="883" viewBox="0 0 286 883" fill="none" xmlns="http://www.w3.org/2000/svg">
<rect x="-340" y="-11.9999" width="711" height="1039" fill="#F3F3F3"/>
<path d="M-359 -33.9999C-359 -33.9999 -208.521 50.9782 -103.286 70.8611C18.2629 93.8266 101.38 -3.13155 212.36 55.0602C398.877 152.859 548.43 795 334 795C186.163 795 119.138 673.603 -0.729248 722.865C-164.713 790.258 -359 661.243 -359 661.243V-33.9999Z" fill="#FF6363"/>
<path d="M-6.46306 -46.9419H377V362.03C377 362.03 142.634 545.792 38.1581 460.341C-26.0269 407.843 11.6249 336.109 -27.3792 265.03C-86.7596 156.82 -304.428 145.026 -250.485 34.3282C-208.38 -52.0767 -6.46306 -46.9419 -6.46306 -46.9419Z" fill="#FFC8C8" fill-opacity="0.5"/>
<path d="M261.859 494.058H579V905.345C579 905.345 385.169 1090.15 298.763 1004.21C245.679 951.418 276.819 879.277 244.561 807.796C195.45 698.973 15.4294 687.113 60.0423 575.788C94.8647 488.894 261.859 494.058 261.859 494.058Z" fill="#FFC8C8" fill-opacity="0.5"/>
<path d="M-431.673 190.736C-421.785 115.085 -381.767 44.8683 -326.966 -17.9996C-272.18 -80.8501 -202.944 -135.98 -135.334 -181.383C-3.48862 -269.922 158.971 -204.162 217.297 -59.4738L264.279 57.0737C305.448 159.201 407.309 219.608 517.122 207.017C656.052 191.088 773.779 297.249 748.469 436.584C730.864 533.503 699.936 634.212 646.112 698.95C560.891 801.455 461.769 856.039 354.35 874.553C246.768 893.095 130.471 875.517 11.0945 832.916C-265.139 734.339 -472.675 504.463 -431.673 190.736Z" stroke="#F3F3F3" stroke-width="12"/>
</svg>
