<?xml version="1.0" encoding="UTF-8"?>
<svg width="47px" height="69px" viewBox="0 0 47 69" version="1.1" xmlns="http://www.w3.org/2000/svg" xmlns:xlink="http://www.w3.org/1999/xlink">
    <!-- Generator: Sketch 52.4 (67378) - http://www.bohemiancoding.com/sketch -->
    <title>Group 5</title>
    <desc>Created with Sketch.</desc>
    <g id="Page-1" stroke="none" stroke-width="1" fill="none" fill-rule="evenodd">
        <g id="1440_рассылка-copy-5" transform="translate(-688.000000, -272.000000)" fill="#6739FF" fill-rule="nonzero">
            <g id="Group-5" transform="translate(688.000000, 272.000000)">
                <g id="Group-6">
                    <rect id="Rectangle" x="15" y="58" width="19" height="3"></rect>
                    <polygon id="Rectangle" transform="translate(24.500000, 59.468750) rotate(-270.000000) translate(-24.500000, -59.468750) " points="15 58 34 58 34 60.9375 15 60.9375"></polygon>
                    <path d="M42.59375,59.7916667 C42.59375,54.9591751 38.6762416,51.0416667 33.84375,51.0416667 L33.78125,51.0416667 L33.78125,48.1875 C33.78125,43.3204906 29.8357594,39.375 24.96875,39.375 C20.1017406,39.375 16.15625,43.3204906 16.15625,48.1875 L16.15625,49.5833333 C11.2892406,49.5833333 7.34375,53.528824 7.34375,58.3958333 L7.34375,59.7916667 L0,59.7916667 L0,0 L33.78125,0 L47,13.125 L47,59.7916667 L42.59375,59.7916667 Z" id="Combined-Shape" fill-opacity="0.2"></path>
                    <path d="M36,13 L47,13 L34,0 L34,11 C34,12.1045695 34.8954305,13 36,13 Z" id="Path-26"></path>
                </g>
                <rect id="Rectangle" x="7" y="7" width="15" height="3"></rect>
                <g id="Group-4" transform="translate(7.000000, 17.000000)">
                    <polygon id="Rectangle-Copy-2" points="-8.18012325e-13 0 9 0 9 3 -8.18012325e-13 3"></polygon>
                    <polygon id="Rectangle-Copy-4" points="-7.17648163e-13 6 9 6 9 9 -7.17648163e-13 9"></polygon>
                    <rect id="Rectangle" x="0" y="0" width="3" height="9"></rect>
                    <rect id="Rectangle-Copy-5" x="6" y="0" width="3" height="9"></rect>
                </g>
                <g id="Group-3" transform="translate(31.000000, 29.000000)">
                    <polygon id="Rectangle-Copy-9" points="-8.18012325e-13 0 9 0 9 3 -8.18012325e-13 3"></polygon>
                    <polygon id="Rectangle-Copy-10" points="-7.17648163e-13 6 9 6 9 9 -7.17648163e-13 9"></polygon>
                    <rect id="Rectangle-Copy-11" x="0" y="0" width="3" height="9"></rect>
                    <rect id="Rectangle-Copy-12" x="6" y="0" width="3" height="9"></rect>
                </g>
                <rect id="Rectangle-Copy-6" x="20" y="17" width="20" height="3"></rect>
                <rect id="Rectangle-Copy-7" x="20" y="23" width="20" height="3"></rect>
                <rect id="Rectangle-Copy-8" x="7" y="29" width="20" height="3"></rect>
                <rect id="Rectangle-Copy-13" x="7" y="35" width="20" height="3"></rect>
                <rect id="Rectangle-Copy-14" x="7" y="41" width="7" height="3"></rect>
            </g>
        </g>
    </g>
</svg>