<?xml version="1.0" encoding="UTF-8"?>
<svg width="47px" height="70px" viewBox="0 0 47 70" version="1.1" xmlns="http://www.w3.org/2000/svg" xmlns:xlink="http://www.w3.org/1999/xlink">
    <!-- Generator: Sketch 52.4 (67378) - http://www.bohemiancoding.com/sketch -->
    <title>Group</title>
    <desc>Created with Sketch.</desc>
    <g id="Page-1" stroke="none" stroke-width="1" fill="none" fill-rule="evenodd">
        <g id="1440_рассылка-copy-5" transform="translate(-245.000000, -272.000000)" fill="#6739FF" fill-rule="nonzero">
            <g id="Group" transform="translate(245.000000, 272.000000)">
                <g id="Group-6">
                    <rect id="Rectangle" x="15" y="58" width="19" height="3"></rect>
                    <polygon id="Rectangle" transform="translate(24.500000, 59.468750) rotate(-270.000000) translate(-24.500000, -59.468750) " points="14 58 35 58 35 60.9375 14 60.9375"></polygon>
                    <path d="M42.59375,59.7916667 C42.59375,54.9591751 38.6762416,51.0416667 33.84375,51.0416667 L33.78125,51.0416667 L33.78125,48.1875 C33.78125,43.3204906 29.8357594,39.375 24.96875,39.375 C20.1017406,39.375 16.15625,43.3204906 16.15625,48.1875 L16.15625,49.5833333 C11.2892406,49.5833333 7.34375,53.528824 7.34375,58.3958333 L7.34375,59.7916667 L0,59.7916667 L0,0 L33.78125,0 L47,13.125 L47,59.7916667 L42.59375,59.7916667 Z" id="Combined-Shape" fill-opacity="0.2"></path>
                    <path d="M36,13 L47,13 L34,0 L34,11 C34,12.1045695 34.8954305,13 36,13 Z" id="Path-26"></path>
                </g>
                <rect id="Rectangle" x="7" y="7" width="15" height="3"></rect>
                <rect id="Rectangle-Copy-2" x="7" y="22" width="32" height="3"></rect>
                <rect id="Rectangle-Copy-3" x="7" y="28" width="32" height="3"></rect>
                <polygon id="Rectangle-Copy-4" points="7 34 29 34 29 37 7 37"></polygon>
            </g>
        </g>
    </g>
</svg>