<svg xmlns="http://www.w3.org/2000/svg" viewBox="0 0 512 512"><path d="M93.5 418.5C77.2 418.5 64 405.3 64 389v-49c0-1.9 1.6-3.5 3.5-3.5s3.5 1.6 3.5 3.5v49c0 2.7.5 5.4 1.5 8.1l2.2 5.8 152.8-152.8L74.7 97.2l-2.2 5.8c-1 2.7-1.5 5.4-1.5 8.1v75.4h26.5c1.9 0 3.5 1.6 3.5 3.5s-1.6 3.5-3.5 3.5h-90c-1.9 0-3.5-1.6-3.5-3.5s1.6-3.5 3.5-3.5H64V111c0-16.3 13.2-29.5 29.5-29.5h385c16.3 0 29.5 13.2 29.5 29.5v278c0 16.3-13.2 29.5-29.5 29.5h-385zm-13.8-10.7l5.8 2.2c2.7 1 5.4 1.5 8.1 1.5h385c2.7 0 5.4-.5 8.1-1.5l5.8-2.2-153-152.8-13.9 13.9C315 279.5 301 285.3 286 285.3s-29.1-5.8-39.6-16.4L232.5 255 79.7 407.8zM344.5 250l152.8 152.8 2.2-5.8c1-2.7 1.5-5.4 1.5-8.1v-278c0-2.7-.5-5.4-1.5-8.1l-2.2-5.8-152.8 153zM93.5 88.5c-2.7 0-5.4.5-8.1 1.5l-5.8 2.2 171.8 171.7c9.2 9.2 21.5 14.3 34.6 14.3s25.4-5.1 34.6-14.3L492.3 92.2l-5.8-2.2c-2.7-1-5.4-1.5-8.1-1.5H93.5z"/><path d="M8 253.5c-1.9 0-3.5-1.6-3.5-3.5s1.6-3.5 3.5-3.5h56.5V220c0-1.9 1.6-3.5 3.5-3.5s3.5 1.6 3.5 3.5v26.5H128c1.9 0 3.5 1.6 3.5 3.5s-1.6 3.5-3.5 3.5H8zm0 60c-1.9 0-3.5-1.6-3.5-3.5s1.6-3.5 3.5-3.5h56.5V280c0-1.9 1.6-3.5 3.5-3.5s3.5 1.6 3.5 3.5v26.5H98c1.9 0 3.5 1.6 3.5 3.5s-1.6 3.5-3.5 3.5H8z"/></svg>