<svg width="1560" height="820" viewBox="0 0 1560 820" fill="none" xmlns="http://www.w3.org/2000/svg">
<mask id="mask0_649_9" style="mask-type:alpha" maskUnits="userSpaceOnUse" x="0" y="0" width="1560" height="820">
<path d="M60 60H1310C1343.14 60 1370 86.8629 1370 120V350C1370 383.137 1343.14 410 1310 410H250C216.863 410 190 436.863 190 470V700C190 733.137 216.863 760 250 760H1500" stroke="#424359" stroke-width="120" stroke-linecap="round"/>
</mask>
<g mask="url(#mask0_649_9)">
<path d="M60 60H1310C1343.14 60 1370 86.8629 1370 120V350C1370 383.137 1343.14 410 1310 410H250C216.863 410 190 436.863 190 470V700C190 733.137 216.863 760 250 760H1500" stroke="#424359" stroke-width="120" stroke-linecap="round"/>
<path d="M60 60H1310C1343.14 60 1370 86.8629 1370 120V350C1370 383.137 1343.14 410 1310 410H250C216.863 410 190 436.863 190 470V700C190 733.137 216.863 760 250 760H1560" stroke="white" stroke-width="88" stroke-linecap="round"/>
<path d="M60 60H1310C1343.14 60 1370 86.8629 1370 120V350C1370 383.137 1343.14 410 1310 410H250C216.863 410 190 436.863 190 470V700C190 733.137 216.863 760 250 760H1560" stroke="#424359" stroke-width="80" stroke-linecap="round"/>
<path d="M60 58C58.8954 58 58 58.8954 58 60C58 61.1046 58.8954 62 60 62V58ZM1560 762C1561.1 762 1562 761.105 1562 760C1562 758.895 1561.1 758 1560 758V762ZM68.0641 62C69.1687 62 70.0641 61.1046 70.0641 60C70.0641 58.8954 69.1687 58 68.0641 58V62ZM84.1923 58C83.0877 58 82.1923 58.8954 82.1923 60C82.1923 61.1046 83.0877 62 84.1923 62V58ZM100.321 62C101.425 62 102.321 61.1046 102.321 60C102.321 58.8954 101.425 58 100.321 58V62ZM116.449 58C115.344 58 114.449 58.8954 114.449 60C114.449 61.1046 115.344 62 116.449 62V58ZM132.577 62C133.681 62 134.577 61.1046 134.577 60C134.577 58.8954 133.681 58 132.577 58V62ZM148.705 58C147.601 58 146.705 58.8954 146.705 60C146.705 61.1046 147.601 62 148.705 62V58ZM164.833 62C165.938 62 166.833 61.1046 166.833 60C166.833 58.8954 165.938 58 164.833 58V62ZM180.962 58C179.857 58 178.962 58.8954 178.962 60C178.962 61.1046 179.857 62 180.962 62V58ZM197.09 62C198.194 62 199.09 61.1046 199.09 60C199.09 58.8954 198.194 58 197.09 58V62ZM213.218 58C212.113 58 211.218 58.8954 211.218 60C211.218 61.1046 212.113 62 213.218 62V58ZM229.346 62C230.451 62 231.346 61.1046 231.346 60C231.346 58.8954 230.451 58 229.346 58V62ZM245.474 58C244.37 58 243.474 58.8954 243.474 60C243.474 61.1046 244.37 62 245.474 62V58ZM261.603 62C262.707 62 263.603 61.1046 263.603 60C263.603 58.8954 262.707 58 261.603 58V62ZM277.731 58C276.626 58 275.731 58.8954 275.731 60C275.731 61.1046 276.626 62 277.731 62V58ZM293.859 62C294.964 62 295.859 61.1046 295.859 60C295.859 58.8954 294.964 58 293.859 58V62ZM309.987 58C308.883 58 307.987 58.8954 307.987 60C307.987 61.1046 308.883 62 309.987 62V58ZM326.115 62C327.22 62 328.115 61.1046 328.115 60C328.115 58.8954 327.22 58 326.115 58V62ZM342.244 58C341.139 58 340.244 58.8954 340.244 60C340.244 61.1046 341.139 62 342.244 62V58ZM358.372 62C359.476 62 360.372 61.1046 360.372 60C360.372 58.8954 359.476 58 358.372 58V62ZM374.5 58C373.395 58 372.5 58.8954 372.5 60C372.5 61.1046 373.395 62 374.5 62V58ZM390.628 62C391.733 62 392.628 61.1046 392.628 60C392.628 58.8954 391.733 58 390.628 58V62ZM406.756 58C405.652 58 404.756 58.8954 404.756 60C404.756 61.1046 405.652 62 406.756 62V58ZM422.885 62C423.989 62 424.885 61.1046 424.885 60C424.885 58.8954 423.989 58 422.885 58V62ZM439.013 58C437.908 58 437.013 58.8954 437.013 60C437.013 61.1046 437.908 62 439.013 62V58ZM455.141 62C456.246 62 457.141 61.1046 457.141 60C457.141 58.8954 456.246 58 455.141 58V62ZM471.269 58C470.165 58 469.269 58.8954 469.269 60C469.269 61.1046 470.165 62 471.269 62V58ZM487.397 62C488.502 62 489.397 61.1046 489.397 60C489.397 58.8954 488.502 58 487.397 58V62ZM503.526 58C502.421 58 501.526 58.8954 501.526 60C501.526 61.1046 502.421 62 503.526 62V58ZM519.654 62C520.758 62 521.654 61.1046 521.654 60C521.654 58.8954 520.758 58 519.654 58V62ZM535.782 58C534.677 58 533.782 58.8954 533.782 60C533.782 61.1046 534.677 62 535.782 62V58ZM551.91 62C553.015 62 553.91 61.1046 553.91 60C553.91 58.8954 553.015 58 551.91 58V62ZM568.038 58C566.934 58 566.038 58.8954 566.038 60C566.038 61.1046 566.934 62 568.038 62V58ZM584.167 62C585.271 62 586.167 61.1046 586.167 60C586.167 58.8954 585.271 58 584.167 58V62ZM600.295 58C599.19 58 598.295 58.8954 598.295 60C598.295 61.1046 599.19 62 600.295 62V58ZM616.423 62C617.528 62 618.423 61.1046 618.423 60C618.423 58.8954 617.528 58 616.423 58V62ZM632.551 58C631.447 58 630.551 58.8954 630.551 60C630.551 61.1046 631.447 62 632.551 62V58ZM648.679 62C649.784 62 650.679 61.1046 650.679 60C650.679 58.8954 649.784 58 648.679 58V62ZM664.807 58C663.703 58 662.807 58.8954 662.807 60C662.807 61.1046 663.703 62 664.807 62V58ZM680.936 62C682.04 62 682.936 61.1046 682.936 60C682.936 58.8954 682.04 58 680.936 58V62ZM697.064 58C695.959 58 695.064 58.8954 695.064 60C695.064 61.1046 695.959 62 697.064 62V58ZM713.192 62C714.297 62 715.192 61.1046 715.192 60C715.192 58.8954 714.297 58 713.192 58V62ZM729.32 58C728.216 58 727.32 58.8954 727.32 60C727.32 61.1046 728.216 62 729.32 62V58ZM745.448 62C746.553 62 747.448 61.1046 747.448 60C747.448 58.8954 746.553 58 745.448 58V62ZM761.577 58C760.472 58 759.577 58.8954 759.577 60C759.577 61.1046 760.472 62 761.577 62V58ZM777.705 62C778.809 62 779.705 61.1046 779.705 60C779.705 58.8954 778.809 58 777.705 58V62ZM793.833 58C792.728 58 791.833 58.8954 791.833 60C791.833 61.1046 792.728 62 793.833 62V58ZM809.961 62C811.066 62 811.961 61.1046 811.961 60C811.961 58.8954 811.066 58 809.961 58V62ZM826.089 58C824.985 58 824.089 58.8954 824.089 60C824.089 61.1046 824.985 62 826.089 62V58ZM842.217 62C843.322 62 844.217 61.1046 844.217 60C844.217 58.8954 843.322 58 842.217 58V62ZM858.346 58C857.241 58 856.346 58.8954 856.346 60C856.346 61.1046 857.241 62 858.346 62V58ZM874.474 62C875.578 62 876.474 61.1046 876.474 60C876.474 58.8954 875.578 58 874.474 58V62ZM890.602 58C889.497 58 888.602 58.8954 888.602 60C888.602 61.1046 889.497 62 890.602 62V58ZM906.73 62C907.835 62 908.73 61.1046 908.73 60C908.73 58.8954 907.835 58 906.73 58V62ZM922.858 58C921.754 58 920.858 58.8954 920.858 60C920.858 61.1046 921.754 62 922.858 62V58ZM938.986 62C940.091 62 940.986 61.1046 940.986 60C940.986 58.8954 940.091 58 938.986 58V62ZM955.115 58C954.01 58 953.115 58.8954 953.115 60C953.115 61.1046 954.01 62 955.115 62V58ZM971.243 62C972.347 62 973.243 61.1046 973.243 60C973.243 58.8954 972.347 58 971.243 58V62ZM987.371 58C986.266 58 985.371 58.8954 985.371 60C985.371 61.1046 986.266 62 987.371 62V58ZM1003.5 62C1004.6 62 1005.5 61.1046 1005.5 60C1005.5 58.8954 1004.6 58 1003.5 58V62ZM1019.63 58C1018.52 58 1017.63 58.8954 1017.63 60C1017.63 61.1046 1018.52 62 1019.63 62V58ZM1035.76 62C1036.86 62 1037.76 61.1046 1037.76 60C1037.76 58.8954 1036.86 58 1035.76 58V62ZM1051.88 58C1050.78 58 1049.88 58.8954 1049.88 60C1049.88 61.1046 1050.78 62 1051.88 62V58ZM1068.01 62C1069.12 62 1070.01 61.1046 1070.01 60C1070.01 58.8954 1069.12 58 1068.01 58V62ZM1084.14 58C1083.04 58 1082.14 58.8954 1082.14 60C1082.14 61.1046 1083.04 62 1084.14 62V58ZM1100.27 62C1101.37 62 1102.27 61.1046 1102.27 60C1102.27 58.8954 1101.37 58 1100.27 58V62ZM1116.4 58C1115.29 58 1114.4 58.8954 1114.4 60C1114.4 61.1046 1115.29 62 1116.4 62V58ZM1132.52 62C1133.63 62 1134.52 61.1046 1134.52 60C1134.52 58.8954 1133.63 58 1132.52 58V62ZM1148.65 58C1147.55 58 1146.65 58.8954 1146.65 60C1146.65 61.1046 1147.55 62 1148.65 62V58ZM1164.78 62C1165.89 62 1166.78 61.1046 1166.78 60C1166.78 58.8954 1165.89 58 1164.78 58V62ZM1180.91 58C1179.8 58 1178.91 58.8954 1178.91 60C1178.91 61.1046 1179.8 62 1180.91 62V58ZM1197.04 62C1198.14 62 1199.04 61.1046 1199.04 60C1199.04 58.8954 1198.14 58 1197.04 58V62ZM1213.17 58C1212.06 58 1211.17 58.8954 1211.17 60C1211.17 61.1046 1212.06 62 1213.17 62V58ZM1229.29 62C1230.4 62 1231.29 61.1046 1231.29 60C1231.29 58.8954 1230.4 58 1229.29 58V62ZM1245.42 58C1244.32 58 1243.42 58.8954 1243.42 60C1243.42 61.1046 1244.32 62 1245.42 62V58ZM1261.55 62C1262.65 62 1263.55 61.1046 1263.55 60C1263.55 58.8954 1262.65 58 1261.55 58V62ZM1277.68 58C1276.57 58 1275.68 58.8954 1275.68 60C1275.68 61.1046 1276.57 62 1277.68 62V58ZM1293.81 62C1294.91 62 1295.81 61.1046 1295.81 60C1295.81 58.8954 1294.91 58 1293.81 58V62ZM1309.93 58C1308.83 58 1307.93 58.8954 1307.93 60C1307.93 61.1046 1308.83 62 1309.93 62V58ZM1324.53 62.4227C1325.63 62.5656 1326.63 61.7935 1326.77 60.6982C1326.92 59.6029 1326.15 58.5992 1325.05 58.4563L1324.53 62.4227ZM1338.67 62.0983C1337.65 61.6752 1336.48 62.1594 1336.06 63.1797C1335.63 64.2 1336.12 65.3701 1337.14 65.7932L1338.67 62.0983ZM1348.44 72.3291C1349.31 73.0021 1350.57 72.8377 1351.24 71.9619C1351.92 71.086 1351.75 69.8304 1350.88 69.1574L1348.44 72.3291ZM1360.84 79.1246C1360.17 78.2487 1358.91 78.0843 1358.04 78.7574C1357.16 79.4304 1357 80.686 1357.67 81.5619L1360.84 79.1246ZM1364.21 92.8611C1364.63 93.8815 1365.8 94.3656 1366.82 93.9425C1367.84 93.5194 1368.32 92.3492 1367.9 91.3289L1364.21 92.8611ZM1371.54 104.95C1371.4 103.854 1370.4 103.082 1369.3 103.225C1368.21 103.368 1367.43 104.372 1367.58 105.467L1371.54 104.95ZM1368 119.688C1368 120.792 1368.9 121.688 1370 121.688C1371.1 121.688 1372 120.792 1372 119.688H1368ZM1372 135.062C1372 133.958 1371.1 133.062 1370 133.062C1368.9 133.062 1368 133.958 1368 135.062H1372ZM1368 150.438C1368 151.542 1368.9 152.438 1370 152.438C1371.1 152.438 1372 151.542 1372 150.438H1368ZM1372 165.812C1372 164.708 1371.1 163.812 1370 163.812C1368.9 163.812 1368 164.708 1368 165.812H1372ZM1368 181.188C1368 182.292 1368.9 183.188 1370 183.188C1371.1 183.188 1372 182.292 1372 181.188H1368ZM1372 196.562C1372 195.458 1371.1 194.562 1370 194.562C1368.9 194.562 1368 195.458 1368 196.562H1372ZM1368 211.938C1368 213.042 1368.9 213.938 1370 213.938C1371.1 213.938 1372 213.042 1372 211.938H1368ZM1372 227.312C1372 226.208 1371.1 225.312 1370 225.312C1368.9 225.312 1368 226.208 1368 227.312H1372ZM1368 242.688C1368 243.792 1368.9 244.688 1370 244.688C1371.1 244.688 1372 243.792 1372 242.688H1368ZM1372 258.062C1372 256.958 1371.1 256.062 1370 256.062C1368.9 256.062 1368 256.958 1368 258.062H1372ZM1368 273.438C1368 274.542 1368.9 275.438 1370 275.438C1371.1 275.438 1372 274.542 1372 273.438H1368ZM1372 288.812C1372 287.708 1371.1 286.812 1370 286.812C1368.9 286.812 1368 287.708 1368 288.812H1372ZM1368 304.188C1368 305.292 1368.9 306.188 1370 306.188C1371.1 306.188 1372 305.292 1372 304.188H1368ZM1372 319.562C1372 318.458 1371.1 317.562 1370 317.562C1368.9 317.562 1368 318.458 1368 319.562H1372ZM1368 334.938C1368 336.042 1368.9 336.938 1370 336.938C1371.1 336.938 1372 336.042 1372 334.938H1368ZM1372 350.312C1372 349.208 1371.1 348.312 1370 348.312C1368.9 348.312 1368 349.208 1368 350.312H1372ZM1367.58 364.533C1367.43 365.628 1368.21 366.632 1369.3 366.775C1370.4 366.918 1371.4 366.146 1371.54 365.05L1367.58 364.533ZM1367.9 378.671C1368.32 377.651 1367.84 376.481 1366.82 376.058C1365.8 375.634 1364.63 376.119 1364.21 377.139L1367.9 378.671ZM1357.67 388.438C1357 389.314 1357.16 390.57 1358.04 391.243C1358.91 391.916 1360.17 391.751 1360.84 390.875L1357.67 388.438ZM1350.88 400.843C1351.75 400.17 1351.92 398.914 1351.24 398.038C1350.57 397.162 1349.31 396.998 1348.44 397.671L1350.88 400.843ZM1337.14 404.207C1336.12 404.63 1335.63 405.8 1336.06 406.82C1336.48 407.841 1337.65 408.325 1338.67 407.902L1337.14 404.207ZM1325.05 411.544C1326.15 411.401 1326.92 410.397 1326.77 409.302C1326.63 408.206 1325.63 407.434 1324.53 407.577L1325.05 411.544ZM1310.09 408C1308.98 408 1308.09 408.895 1308.09 410C1308.09 411.105 1308.98 412 1310.09 412V408ZM1294.26 412C1295.37 412 1296.26 411.105 1296.26 410C1296.26 408.895 1295.37 408 1294.26 408V412ZM1278.44 408C1277.34 408 1276.44 408.895 1276.44 410C1276.44 411.105 1277.34 412 1278.44 412V408ZM1262.62 412C1263.72 412 1264.62 411.105 1264.62 410C1264.62 408.895 1263.72 408 1262.62 408V412ZM1246.79 408C1245.69 408 1244.79 408.895 1244.79 410C1244.79 411.105 1245.69 412 1246.79 412V408ZM1230.97 412C1232.08 412 1232.97 411.105 1232.97 410C1232.97 408.895 1232.08 408 1230.97 408V412ZM1215.15 408C1214.04 408 1213.15 408.895 1213.15 410C1213.15 411.105 1214.04 412 1215.15 412V408ZM1199.32 412C1200.43 412 1201.32 411.105 1201.32 410C1201.32 408.895 1200.43 408 1199.32 408V412ZM1183.5 408C1182.4 408 1181.5 408.895 1181.5 410C1181.5 411.105 1182.4 412 1183.5 412V408ZM1167.68 412C1168.78 412 1169.68 411.105 1169.68 410C1169.68 408.895 1168.78 408 1167.68 408V412ZM1151.85 408C1150.75 408 1149.85 408.895 1149.85 410C1149.85 411.105 1150.75 412 1151.85 412V408ZM1136.03 412C1137.13 412 1138.03 411.105 1138.03 410C1138.03 408.895 1137.13 408 1136.03 408V412ZM1120.21 408C1119.1 408 1118.21 408.895 1118.21 410C1118.21 411.105 1119.1 412 1120.21 412V408ZM1104.38 412C1105.49 412 1106.38 411.105 1106.38 410C1106.38 408.895 1105.49 408 1104.38 408V412ZM1088.56 408C1087.45 408 1086.56 408.895 1086.56 410C1086.56 411.105 1087.45 412 1088.56 412V408ZM1072.74 412C1073.84 412 1074.74 411.105 1074.74 410C1074.74 408.895 1073.84 408 1072.74 408V412ZM1056.91 408C1055.81 408 1054.91 408.895 1054.91 410C1054.91 411.105 1055.81 412 1056.91 412V408ZM1041.09 412C1042.19 412 1043.09 411.105 1043.09 410C1043.09 408.895 1042.19 408 1041.09 408V412ZM1025.26 408C1024.16 408 1023.26 408.895 1023.26 410C1023.26 411.105 1024.16 412 1025.26 412V408ZM1009.44 412C1010.55 412 1011.44 411.105 1011.44 410C1011.44 408.895 1010.55 408 1009.44 408V412ZM993.618 408C992.513 408 991.618 408.895 991.618 410C991.618 411.105 992.513 412 993.618 412V408ZM977.794 412C978.899 412 979.794 411.105 979.794 410C979.794 408.895 978.899 408 977.794 408V412ZM961.971 408C960.866 408 959.971 408.895 959.971 410C959.971 411.105 960.866 412 961.971 412V408ZM946.147 412C947.252 412 948.147 411.105 948.147 410C948.147 408.895 947.252 408 946.147 408V412ZM930.324 408C929.219 408 928.324 408.895 928.324 410C928.324 411.105 929.219 412 930.324 412V408ZM914.5 412C915.605 412 916.5 411.105 916.5 410C916.5 408.895 915.605 408 914.5 408V412ZM898.677 408C897.572 408 896.677 408.895 896.677 410C896.677 411.105 897.572 412 898.677 412V408ZM882.853 412C883.958 412 884.853 411.105 884.853 410C884.853 408.895 883.958 408 882.853 408V412ZM867.03 408C865.925 408 865.03 408.895 865.03 410C865.03 411.105 865.925 412 867.03 412V408ZM851.206 412C852.311 412 853.206 411.105 853.206 410C853.206 408.895 852.311 408 851.206 408V412ZM835.383 408C834.278 408 833.383 408.895 833.383 410C833.383 411.105 834.278 412 835.383 412V408ZM819.559 412C820.664 412 821.559 411.105 821.559 410C821.559 408.895 820.664 408 819.559 408V412ZM803.735 408C802.631 408 801.735 408.895 801.735 410C801.735 411.105 802.631 412 803.735 412V408ZM787.912 412C789.016 412 789.912 411.105 789.912 410C789.912 408.895 789.016 408 787.912 408V412ZM772.088 408C770.984 408 770.088 408.895 770.088 410C770.088 411.105 770.984 412 772.088 412V408ZM756.265 412C757.369 412 758.265 411.105 758.265 410C758.265 408.895 757.369 408 756.265 408V412ZM740.441 408C739.337 408 738.441 408.895 738.441 410C738.441 411.105 739.337 412 740.441 412V408ZM724.618 412C725.722 412 726.618 411.105 726.618 410C726.618 408.895 725.722 408 724.618 408V412ZM708.794 408C707.69 408 706.794 408.895 706.794 410C706.794 411.105 707.69 412 708.794 412V408ZM692.971 412C694.075 412 694.971 411.105 694.971 410C694.971 408.895 694.075 408 692.971 408V412ZM677.147 408C676.043 408 675.147 408.895 675.147 410C675.147 411.105 676.043 412 677.147 412V408ZM661.324 412C662.428 412 663.324 411.105 663.324 410C663.324 408.895 662.428 408 661.324 408V412ZM645.5 408C644.395 408 643.5 408.895 643.5 410C643.5 411.105 644.395 412 645.5 412V408ZM629.676 412C630.781 412 631.676 411.105 631.676 410C631.676 408.895 630.781 408 629.676 408V412ZM613.853 408C612.748 408 611.853 408.895 611.853 410C611.853 411.105 612.748 412 613.853 412V408ZM598.029 412C599.134 412 600.029 411.105 600.029 410C600.029 408.895 599.134 408 598.029 408V412ZM582.206 408C581.101 408 580.206 408.895 580.206 410C580.206 411.105 581.101 412 582.206 412V408ZM566.382 412C567.487 412 568.382 411.105 568.382 410C568.382 408.895 567.487 408 566.382 408V412ZM550.559 408C549.454 408 548.559 408.895 548.559 410C548.559 411.105 549.454 412 550.559 412V408ZM534.735 412C535.84 412 536.735 411.105 536.735 410C536.735 408.895 535.84 408 534.735 408V412ZM518.912 408C517.807 408 516.912 408.895 516.912 410C516.912 411.105 517.807 412 518.912 412V408ZM503.088 412C504.193 412 505.088 411.105 505.088 410C505.088 408.895 504.193 408 503.088 408V412ZM487.265 408C486.16 408 485.265 408.895 485.265 410C485.265 411.105 486.16 412 487.265 412V408ZM471.441 412C472.546 412 473.441 411.105 473.441 410C473.441 408.895 472.546 408 471.441 408V412ZM455.617 408C454.513 408 453.617 408.895 453.617 410C453.617 411.105 454.513 412 455.617 412V408ZM439.794 412C440.898 412 441.794 411.105 441.794 410C441.794 408.895 440.898 408 439.794 408V412ZM423.97 408C422.866 408 421.97 408.895 421.97 410C421.97 411.105 422.866 412 423.97 412V408ZM408.147 412C409.251 412 410.147 411.105 410.147 410C410.147 408.895 409.251 408 408.147 408V412ZM392.323 408C391.219 408 390.323 408.895 390.323 410C390.323 411.105 391.219 412 392.323 412V408ZM376.5 412C377.604 412 378.5 411.105 378.5 410C378.5 408.895 377.604 408 376.5 408V412ZM360.676 408C359.572 408 358.676 408.895 358.676 410C358.676 411.105 359.572 412 360.676 412V408ZM344.853 412C345.957 412 346.853 411.105 346.853 410C346.853 408.895 345.957 408 344.853 408V412ZM329.029 408C327.924 408 327.029 408.895 327.029 410C327.029 411.105 327.924 412 329.029 412V408ZM313.206 412C314.31 412 315.206 411.105 315.206 410C315.206 408.895 314.31 408 313.206 408V412ZM297.382 408C296.277 408 295.382 408.895 295.382 410C295.382 411.105 296.277 412 297.382 412V408ZM281.558 412C282.663 412 283.558 411.105 283.558 410C283.558 408.895 282.663 408 281.558 408V412ZM265.735 408C264.63 408 263.735 408.895 263.735 410C263.735 411.105 264.63 412 265.735 412V408ZM249.912 412C251.016 412 251.912 411.105 251.912 410C251.912 408.895 251.016 408 249.912 408V412ZM234.95 408.456C233.854 408.599 233.082 409.603 233.225 410.698C233.368 411.793 234.372 412.566 235.467 412.423L234.95 408.456ZM222.861 415.793C223.881 415.37 224.366 414.2 223.942 413.18C223.519 412.159 222.349 411.675 221.329 412.098L222.861 415.793ZM209.125 419.157C208.249 419.83 208.084 421.086 208.757 421.962C209.43 422.838 210.686 423.002 211.562 422.329L209.125 419.157ZM202.329 431.562C203.002 430.686 202.838 429.43 201.962 428.757C201.086 428.084 199.83 428.249 199.157 429.125L202.329 431.562ZM192.098 441.329C191.675 442.349 192.159 443.519 193.18 443.942C194.2 444.366 195.37 443.881 195.793 442.861L192.098 441.329ZM192.423 455.467C192.566 454.372 191.794 453.368 190.698 453.225C189.603 453.082 188.599 453.854 188.456 454.95L192.423 455.467ZM188 469.688C188 470.792 188.895 471.688 190 471.688C191.105 471.688 192 470.792 192 469.688H188ZM192 485.062C192 483.958 191.105 483.062 190 483.062C188.895 483.062 188 483.958 188 485.062H192ZM188 500.438C188 501.542 188.895 502.438 190 502.438C191.105 502.438 192 501.542 192 500.438H188ZM192 515.812C192 514.708 191.105 513.812 190 513.812C188.895 513.812 188 514.708 188 515.812H192ZM188 531.188C188 532.292 188.895 533.188 190 533.188C191.105 533.188 192 532.292 192 531.188H188ZM192 546.562C192 545.458 191.105 544.562 190 544.562C188.895 544.562 188 545.458 188 546.562H192ZM188 561.938C188 563.042 188.895 563.938 190 563.938C191.105 563.938 192 563.042 192 561.938H188ZM192 577.312C192 576.208 191.105 575.312 190 575.312C188.895 575.312 188 576.208 188 577.312H192ZM188 592.688C188 593.792 188.895 594.688 190 594.688C191.105 594.688 192 593.792 192 592.688H188ZM192 608.062C192 606.958 191.105 606.062 190 606.062C188.895 606.062 188 606.958 188 608.062H192ZM188 623.438C188 624.542 188.895 625.438 190 625.438C191.105 625.438 192 624.542 192 623.438H188ZM192 638.812C192 637.708 191.105 636.812 190 636.812C188.895 636.812 188 637.708 188 638.812H192ZM188 654.188C188 655.292 188.895 656.188 190 656.188C191.105 656.188 192 655.292 192 654.188H188ZM192 669.562C192 668.458 191.105 667.562 190 667.562C188.895 667.562 188 668.458 188 669.562H192ZM188 684.938C188 686.042 188.895 686.938 190 686.938C191.105 686.938 192 686.042 192 684.938H188ZM192 700.312C192 699.208 191.105 698.312 190 698.312C188.895 698.312 188 699.208 188 700.312H192ZM188.456 715.05C188.599 716.146 189.603 716.918 190.698 716.775C191.794 716.632 192.566 715.628 192.423 714.533L188.456 715.05ZM195.793 727.139C195.37 726.119 194.2 725.634 193.18 726.057C192.159 726.481 191.675 727.651 192.098 728.671L195.793 727.139ZM199.157 740.875C199.83 741.751 201.086 741.916 201.962 741.243C202.838 740.57 203.002 739.314 202.329 738.438L199.157 740.875ZM211.562 747.671C210.686 746.998 209.43 747.162 208.757 748.038C208.084 748.914 208.249 750.17 209.125 750.843L211.562 747.671ZM221.329 757.902C222.349 758.325 223.519 757.841 223.942 756.82C224.366 755.8 223.881 754.63 222.861 754.207L221.329 757.902ZM235.467 757.577C234.372 757.434 233.368 758.206 233.225 759.302C233.082 760.397 233.854 761.401 234.95 761.544L235.467 757.577ZM250.037 762C251.141 762 252.037 761.105 252.037 760C252.037 758.895 251.141 758 250.037 758V762ZM266.11 758C265.005 758 264.11 758.895 264.11 760C264.11 761.105 265.005 762 266.11 762V758ZM282.183 762C283.288 762 284.183 761.105 284.183 760C284.183 758.895 283.288 758 282.183 758V762ZM298.256 758C297.152 758 296.256 758.895 296.256 760C296.256 761.105 297.152 762 298.256 762V758ZM314.329 762C315.434 762 316.329 761.105 316.329 760C316.329 758.895 315.434 758 314.329 758V762ZM330.402 758C329.298 758 328.402 758.895 328.402 760C328.402 761.105 329.298 762 330.402 762V758ZM346.476 762C347.58 762 348.476 761.105 348.476 760C348.476 758.895 347.58 758 346.476 758V762ZM362.549 758C361.444 758 360.549 758.895 360.549 760C360.549 761.105 361.444 762 362.549 762V758ZM378.622 762C379.727 762 380.622 761.105 380.622 760C380.622 758.895 379.727 758 378.622 758V762ZM394.695 758C393.591 758 392.695 758.895 392.695 760C392.695 761.105 393.591 762 394.695 762V758ZM410.768 762C411.873 762 412.768 761.105 412.768 760C412.768 758.895 411.873 758 410.768 758V762ZM426.841 758C425.737 758 424.841 758.895 424.841 760C424.841 761.105 425.737 762 426.841 762V758ZM442.915 762C444.019 762 444.915 761.105 444.915 760C444.915 758.895 444.019 758 442.915 758V762ZM458.988 758C457.883 758 456.988 758.895 456.988 760C456.988 761.105 457.883 762 458.988 762V758ZM475.061 762C476.166 762 477.061 761.105 477.061 760C477.061 758.895 476.166 758 475.061 758V762ZM491.134 758C490.03 758 489.134 758.895 489.134 760C489.134 761.105 490.03 762 491.134 762V758ZM507.207 762C508.312 762 509.207 761.105 509.207 760C509.207 758.895 508.312 758 507.207 758V762ZM523.28 758C522.176 758 521.28 758.895 521.28 760C521.28 761.105 522.176 762 523.28 762V758ZM539.354 762C540.458 762 541.354 761.105 541.354 760C541.354 758.895 540.458 758 539.354 758V762ZM555.427 758C554.322 758 553.427 758.895 553.427 760C553.427 761.105 554.322 762 555.427 762V758ZM571.5 762C572.605 762 573.5 761.105 573.5 760C573.5 758.895 572.605 758 571.5 758V762ZM587.573 758C586.469 758 585.573 758.895 585.573 760C585.573 761.105 586.469 762 587.573 762V758ZM603.646 762C604.751 762 605.646 761.105 605.646 760C605.646 758.895 604.751 758 603.646 758V762ZM619.72 758C618.615 758 617.72 758.895 617.72 760C617.72 761.105 618.615 762 619.72 762V758ZM635.793 762C636.897 762 637.793 761.105 637.793 760C637.793 758.895 636.897 758 635.793 758V762ZM651.866 758C650.761 758 649.866 758.895 649.866 760C649.866 761.105 650.761 762 651.866 762V758ZM667.939 762C669.044 762 669.939 761.105 669.939 760C669.939 758.895 669.044 758 667.939 758V762ZM684.012 758C682.908 758 682.012 758.895 682.012 760C682.012 761.105 682.908 762 684.012 762V758ZM700.085 762C701.19 762 702.085 761.105 702.085 760C702.085 758.895 701.19 758 700.085 758V762ZM716.159 758C715.054 758 714.159 758.895 714.159 760C714.159 761.105 715.054 762 716.159 762V758ZM732.232 762C733.336 762 734.232 761.105 734.232 760C734.232 758.895 733.336 758 732.232 758V762ZM748.305 758C747.2 758 746.305 758.895 746.305 760C746.305 761.105 747.2 762 748.305 762V758ZM764.378 762C765.483 762 766.378 761.105 766.378 760C766.378 758.895 765.483 758 764.378 758V762ZM780.451 758C779.347 758 778.451 758.895 778.451 760C778.451 761.105 779.347 762 780.451 762V758ZM796.525 762C797.629 762 798.525 761.105 798.525 760C798.525 758.895 797.629 758 796.525 758V762ZM812.598 758C811.493 758 810.598 758.895 810.598 760C810.598 761.105 811.493 762 812.598 762V758ZM828.671 762C829.775 762 830.671 761.105 830.671 760C830.671 758.895 829.775 758 828.671 758V762ZM844.744 758C843.64 758 842.744 758.895 842.744 760C842.744 761.105 843.64 762 844.744 762V758ZM860.817 762C861.922 762 862.817 761.105 862.817 760C862.817 758.895 861.922 758 860.817 758V762ZM876.89 758C875.786 758 874.89 758.895 874.89 760C874.89 761.105 875.786 762 876.89 762V758ZM892.964 762C894.068 762 894.964 761.105 894.964 760C894.964 758.895 894.068 758 892.964 758V762ZM909.037 758C907.932 758 907.037 758.895 907.037 760C907.037 761.105 907.932 762 909.037 762V758ZM925.11 762C926.215 762 927.11 761.105 927.11 760C927.11 758.895 926.215 758 925.11 758V762ZM941.183 758C940.079 758 939.183 758.895 939.183 760C939.183 761.105 940.079 762 941.183 762V758ZM957.256 762C958.361 762 959.256 761.105 959.256 760C959.256 758.895 958.361 758 957.256 758V762ZM973.33 758C972.225 758 971.33 758.895 971.33 760C971.33 761.105 972.225 762 973.33 762V758ZM989.403 762C990.507 762 991.403 761.105 991.403 760C991.403 758.895 990.507 758 989.403 758V762ZM1005.48 758C1004.37 758 1003.48 758.895 1003.48 760C1003.48 761.105 1004.37 762 1005.48 762V758ZM1021.55 762C1022.65 762 1023.55 761.105 1023.55 760C1023.55 758.895 1022.65 758 1021.55 758V762ZM1037.62 758C1036.52 758 1035.62 758.895 1035.62 760C1035.62 761.105 1036.52 762 1037.62 762V758ZM1053.7 762C1054.8 762 1055.7 761.105 1055.7 760C1055.7 758.895 1054.8 758 1053.7 758V762ZM1069.77 758C1068.66 758 1067.77 758.895 1067.77 760C1067.77 761.105 1068.66 762 1069.77 762V758ZM1085.84 762C1086.95 762 1087.84 761.105 1087.84 760C1087.84 758.895 1086.95 758 1085.84 758V762ZM1101.92 758C1100.81 758 1099.92 758.895 1099.92 760C1099.92 761.105 1100.81 762 1101.92 762V758ZM1117.99 762C1119.09 762 1119.99 761.105 1119.99 760C1119.99 758.895 1119.09 758 1117.99 758V762ZM1134.06 758C1132.96 758 1132.06 758.895 1132.06 760C1132.06 761.105 1132.96 762 1134.06 762V758ZM1150.13 762C1151.24 762 1152.13 761.105 1152.13 760C1152.13 758.895 1151.24 758 1150.13 758V762ZM1166.21 758C1165.1 758 1164.21 758.895 1164.21 760C1164.21 761.105 1165.1 762 1166.21 762V758ZM1182.28 762C1183.39 762 1184.28 761.105 1184.28 760C1184.28 758.895 1183.39 758 1182.28 758V762ZM1198.35 758C1197.25 758 1196.35 758.895 1196.35 760C1196.35 761.105 1197.25 762 1198.35 762V758ZM1214.43 762C1215.53 762 1216.43 761.105 1216.43 760C1216.43 758.895 1215.53 758 1214.43 758V762ZM1230.5 758C1229.4 758 1228.5 758.895 1228.5 760C1228.5 761.105 1229.4 762 1230.5 762V758ZM1246.57 762C1247.68 762 1248.57 761.105 1248.57 760C1248.57 758.895 1247.68 758 1246.57 758V762ZM1262.65 758C1261.54 758 1260.65 758.895 1260.65 760C1260.65 761.105 1261.54 762 1262.65 762V758ZM1278.72 762C1279.82 762 1280.72 761.105 1280.72 760C1280.72 758.895 1279.82 758 1278.72 758V762ZM1294.79 758C1293.69 758 1292.79 758.895 1292.79 760C1292.79 761.105 1293.69 762 1294.79 762V758ZM1310.87 762C1311.97 762 1312.87 761.105 1312.87 760C1312.87 758.895 1311.97 758 1310.87 758V762ZM1326.94 758C1325.83 758 1324.94 758.895 1324.94 760C1324.94 761.105 1325.83 762 1326.94 762V758ZM1343.01 762C1344.12 762 1345.01 761.105 1345.01 760C1345.01 758.895 1344.12 758 1343.01 758V762ZM1359.09 758C1357.98 758 1357.09 758.895 1357.09 760C1357.09 761.105 1357.98 762 1359.09 762V758ZM1375.16 762C1376.26 762 1377.16 761.105 1377.16 760C1377.16 758.895 1376.26 758 1375.16 758V762ZM1391.23 758C1390.13 758 1389.23 758.895 1389.23 760C1389.23 761.105 1390.13 762 1391.23 762V758ZM1407.3 762C1408.41 762 1409.3 761.105 1409.3 760C1409.3 758.895 1408.41 758 1407.3 758V762ZM1423.38 758C1422.27 758 1421.38 758.895 1421.38 760C1421.38 761.105 1422.27 762 1423.38 762V758ZM1439.45 762C1440.56 762 1441.45 761.105 1441.45 760C1441.45 758.895 1440.56 758 1439.45 758V762ZM1455.52 758C1454.42 758 1453.52 758.895 1453.52 760C1453.52 761.105 1454.42 762 1455.52 762V758ZM1471.6 762C1472.7 762 1473.6 761.105 1473.6 760C1473.6 758.895 1472.7 758 1471.6 758V762ZM1487.67 758C1486.57 758 1485.67 758.895 1485.67 760C1485.67 761.105 1486.57 762 1487.67 762V758ZM1503.74 762C1504.85 762 1505.74 761.105 1505.74 760C1505.74 758.895 1504.85 758 1503.74 758V762ZM1519.82 758C1518.71 758 1517.82 758.895 1517.82 760C1517.82 761.105 1518.71 762 1519.82 762V758ZM1535.89 762C1536.99 762 1537.89 761.105 1537.89 760C1537.89 758.895 1536.99 758 1535.89 758V762ZM1551.96 758C1550.86 758 1549.96 758.895 1549.96 760C1549.96 761.105 1550.86 762 1551.96 762V758ZM60 62H68.0641V58H60V62ZM84.1923 62H100.321V58H84.1923V62ZM116.449 62H132.577V58H116.449V62ZM148.705 62H164.833V58H148.705V62ZM180.962 62H197.09V58H180.962V62ZM213.218 62H229.346V58H213.218V62ZM245.474 62H261.603V58H245.474V62ZM277.731 62H293.859V58H277.731V62ZM309.987 62H326.115V58H309.987V62ZM342.244 62H358.372V58H342.244V62ZM374.5 62H390.628V58H374.5V62ZM406.756 62H422.885V58H406.756V62ZM439.013 62H455.141V58H439.013V62ZM471.269 62H487.397V58H471.269V62ZM503.526 62H519.654V58H503.526V62ZM535.782 62H551.91V58H535.782V62ZM568.038 62H584.167V58H568.038V62ZM600.295 62H616.423V58H600.295V62ZM632.551 62H648.679V58H632.551V62ZM664.807 62H680.936V58H664.807V62ZM697.064 62H713.192V58H697.064V62ZM729.32 62H745.448V58H729.32V62ZM761.577 62H777.705V58H761.577V62ZM793.833 62H809.961V58H793.833V62ZM826.089 62H842.217V58H826.089V62ZM858.346 62H874.474V58H858.346V62ZM890.602 62H906.73V58H890.602V62ZM922.858 62H938.986V58H922.858V62ZM955.115 62H971.243V58H955.115V62ZM987.371 62H1003.5V58H987.371V62ZM1019.63 62H1035.76V58H1019.63V62ZM1051.88 62H1068.01V58H1051.88V62ZM1084.14 62H1100.27V58H1084.14V62ZM1116.4 62H1132.52V58H1116.4V62ZM1148.65 62H1164.78V58H1148.65V62ZM1180.91 62H1197.04V58H1180.91V62ZM1213.17 62H1229.29V58H1213.17V62ZM1245.42 62H1261.55V58H1245.42V62ZM1277.68 62H1293.81V58H1277.68V62ZM1309.93 62H1318V58H1309.93V62ZM1318 62C1320.22 62 1322.4 62.1439 1324.53 62.4227L1325.05 58.4563C1322.74 58.1552 1320.39 58 1318 58V62ZM1337.14 65.7932C1341.2 67.4784 1345 69.6846 1348.44 72.3291L1350.88 69.1574C1347.16 66.3024 1343.06 63.9193 1338.67 62.0983L1337.14 65.7932ZM1357.67 81.5619C1360.32 85.0031 1362.52 88.7973 1364.21 92.8611L1367.9 91.3289C1366.08 86.9378 1363.7 82.8398 1360.84 79.1246L1357.67 81.5619ZM1367.58 105.467C1367.86 107.604 1368 109.785 1368 112H1372C1372 109.611 1371.84 107.258 1371.54 104.95L1367.58 105.467ZM1368 112V119.688H1372V112H1368ZM1368 135.062V150.438H1372V135.062H1368ZM1368 165.812V181.188H1372V165.812H1368ZM1368 196.562V211.938H1372V196.562H1368ZM1368 227.312V242.688H1372V227.312H1368ZM1368 258.062V273.438H1372V258.062H1368ZM1368 288.812V304.188H1372V288.812H1368ZM1368 319.562V334.938H1372V319.562H1368ZM1368 350.312V358H1372V350.312H1368ZM1368 358C1368 360.215 1367.86 362.396 1367.58 364.533L1371.54 365.05C1371.84 362.742 1372 360.389 1372 358H1368ZM1364.21 377.139C1362.52 381.203 1360.32 384.997 1357.67 388.438L1360.84 390.875C1363.7 387.16 1366.08 383.062 1367.9 378.671L1364.21 377.139ZM1348.44 397.671C1345 400.315 1341.2 402.522 1337.14 404.207L1338.67 407.902C1343.06 406.081 1347.16 403.698 1350.88 400.843L1348.44 397.671ZM1324.53 407.577C1322.4 407.856 1320.22 408 1318 408V412C1320.39 412 1322.74 411.845 1325.05 411.544L1324.53 407.577ZM1318 408H1310.09V412H1318V408ZM1294.26 408H1278.44V412H1294.26V408ZM1262.62 408H1246.79V412H1262.62V408ZM1230.97 408H1215.15V412H1230.97V408ZM1199.32 408H1183.5V412H1199.32V408ZM1167.68 408H1151.85V412H1167.68V408ZM1136.03 408H1120.21V412H1136.03V408ZM1104.38 408H1088.56V412H1104.38V408ZM1072.74 408H1056.91V412H1072.74V408ZM1041.09 408H1025.26V412H1041.09V408ZM1009.44 408H993.618V412H1009.44V408ZM977.794 408H961.971V412H977.794V408ZM946.147 408H930.324V412H946.147V408ZM914.5 408H898.677V412H914.5V408ZM882.853 408H867.03V412H882.853V408ZM851.206 408H835.383V412H851.206V408ZM819.559 408H803.735V412H819.559V408ZM787.912 408H772.088V412H787.912V408ZM756.265 408H740.441V412H756.265V408ZM724.618 408H708.794V412H724.618V408ZM692.971 408H677.147V412H692.971V408ZM661.324 408H645.5V412H661.324V408ZM629.676 408H613.853V412H629.676V408ZM598.029 408H582.206V412H598.029V408ZM566.382 408H550.559V412H566.382V408ZM534.735 408H518.912V412H534.735V408ZM503.088 408H487.265V412H503.088V408ZM471.441 408H455.617V412H471.441V408ZM439.794 408H423.97V412H439.794V408ZM408.147 408H392.323V412H408.147V408ZM376.5 408H360.676V412H376.5V408ZM344.853 408H329.029V412H344.853V408ZM313.206 408H297.382V412H313.206V408ZM281.558 408H265.735V412H281.558V408ZM249.912 408H242V412H249.912V408ZM242 408C239.611 408 237.258 408.155 234.95 408.456L235.467 412.423C237.604 412.144 239.785 412 242 412V408ZM221.329 412.098C216.938 413.919 212.84 416.302 209.125 419.157L211.562 422.329C215.003 419.685 218.797 417.478 222.861 415.793L221.329 412.098ZM199.157 429.125C196.302 432.84 193.919 436.938 192.098 441.329L195.793 442.861C197.478 438.797 199.685 435.003 202.329 431.562L199.157 429.125ZM188.456 454.95C188.155 457.258 188 459.611 188 462H192C192 459.785 192.144 457.604 192.423 455.467L188.456 454.95ZM188 462V469.688H192V462H188ZM188 485.062V500.438H192V485.062H188ZM188 515.812V531.188H192V515.812H188ZM188 546.562V561.938H192V546.562H188ZM188 577.312V592.688H192V577.312H188ZM188 608.062V623.438H192V608.062H188ZM188 638.812V654.188H192V638.812H188ZM188 669.562V684.938H192V669.562H188ZM188 700.312V708H192V700.312H188ZM188 708C188 710.389 188.155 712.742 188.456 715.05L192.423 714.533C192.144 712.396 192 710.215 192 708H188ZM192.098 728.671C193.919 733.062 196.302 737.16 199.157 740.875L202.329 738.438C199.685 734.997 197.478 731.203 195.793 727.139L192.098 728.671ZM209.125 750.843C212.84 753.698 216.938 756.081 221.329 757.902L222.861 754.207C218.797 752.522 215.003 750.315 211.562 747.671L209.125 750.843ZM234.95 761.544C237.258 761.845 239.611 762 242 762V758C239.785 758 237.604 757.856 235.467 757.577L234.95 761.544ZM242 762H250.037V758H242V762ZM266.11 762H282.183V758H266.11V762ZM298.256 762H314.329V758H298.256V762ZM330.402 762H346.476V758H330.402V762ZM362.549 762H378.622V758H362.549V762ZM394.695 762H410.768V758H394.695V762ZM426.841 762H442.915V758H426.841V762ZM458.988 762H475.061V758H458.988V762ZM491.134 762H507.207V758H491.134V762ZM523.28 762H539.354V758H523.28V762ZM555.427 762H571.5V758H555.427V762ZM587.573 762H603.646V758H587.573V762ZM619.72 762H635.793V758H619.72V762ZM651.866 762H667.939V758H651.866V762ZM684.012 762H700.085V758H684.012V762ZM716.159 762H732.232V758H716.159V762ZM748.305 762H764.378V758H748.305V762ZM780.451 762H796.525V758H780.451V762ZM812.598 762H828.671V758H812.598V762ZM844.744 762H860.817V758H844.744V762ZM876.89 762H892.964V758H876.89V762ZM909.037 762H925.11V758H909.037V762ZM941.183 762H957.256V758H941.183V762ZM973.33 762H989.403V758H973.33V762ZM1005.48 762H1021.55V758H1005.48V762ZM1037.62 762H1053.7V758H1037.62V762ZM1069.77 762H1085.84V758H1069.77V762ZM1101.92 762H1117.99V758H1101.92V762ZM1134.06 762H1150.13V758H1134.06V762ZM1166.21 762H1182.28V758H1166.21V762ZM1198.35 762H1214.43V758H1198.35V762ZM1230.5 762H1246.57V758H1230.5V762ZM1262.65 762H1278.72V758H1262.65V762ZM1294.79 762H1310.87V758H1294.79V762ZM1326.94 762H1343.01V758H1326.94V762ZM1359.09 762H1375.16V758H1359.09V762ZM1391.23 762H1407.3V758H1391.23V762ZM1423.38 762H1439.45V758H1423.38V762ZM1455.52 762H1471.6V758H1455.52V762ZM1487.67 762H1503.74V758H1487.67V762ZM1519.82 762H1535.89V758H1519.82V762ZM1551.96 762H1560V758H1551.96V762Z" fill="white"/>
</g>
</svg>
