<svg width="17" height="16" viewBox="0 0 17 16" fill="none" xmlns="http://www.w3.org/2000/svg">
<path fill-rule="evenodd" clip-rule="evenodd" d="M15.2222 4.08032C14.5271 2.88953 13.5843 1.9467 12.3935 1.25166C11.2025 0.55666 9.90227 0.209229 8.49195 0.209229C7.08177 0.209229 5.7812 0.55666 4.59038 1.25166C3.39948 1.9466 2.45666 2.88942 1.76158 4.08032C1.06647 5.27128 0.71904 6.57185 0.71904 7.98193C0.71904 9.39207 1.06658 10.6924 1.76148 11.8835C2.45652 13.0743 3.39934 14.0171 4.59023 14.7122C5.7812 15.4072 7.08166 15.7546 8.49181 15.7546C9.90195 15.7546 11.2026 15.4072 12.3935 14.7122C13.5843 14.0173 14.5271 13.0743 15.2221 11.8835C15.917 10.6925 16.2644 9.392 16.2644 7.98193C16.2644 6.57171 15.917 5.2711 15.2222 4.08032ZM8.49184 1.34277C10.1651 1.34277 11.6258 1.89601 12.874 3.00247L12.7475 3.17946C12.6969 3.25043 12.5704 3.38691 12.3681 3.58943C12.1657 3.79177 11.9447 3.98418 11.7052 4.16631C11.4655 4.34852 11.1402 4.55597 10.7284 4.78876C10.3168 5.02155 9.87831 5.22577 9.41269 5.40117C8.63683 3.97064 7.80701 2.68194 6.9231 1.535C7.45621 1.40682 7.97908 1.34277 8.49184 1.34277ZM5.65809 1.98024C4.72689 2.41874 3.93759 3.04632 3.28991 3.86256C2.64223 4.67897 2.21043 5.5967 1.99441 6.61546C4.03206 6.61556 6.07638 6.34566 8.1275 5.80588C7.31779 4.3688 6.49471 3.0935 5.65809 1.98024ZM2.29792 10.3757C2.001 9.61664 1.85258 8.81865 1.85258 7.98193C1.85258 7.88742 1.85605 7.81656 1.86272 7.76938C4.3053 7.76938 6.57578 7.45573 8.67412 6.82811C8.89007 7.2464 9.06888 7.62088 9.21056 7.95158C9.18323 7.96505 9.1397 7.98015 9.07894 7.99706C9.01801 8.01394 8.97426 8.02563 8.94704 8.03248L8.57267 8.16403C8.31616 8.25853 7.98039 8.4205 7.56561 8.64978C7.15072 8.87941 6.71048 9.15251 6.2449 9.4697C5.77932 9.78693 5.29857 10.2069 4.80271 10.73C4.30679 11.2529 3.89016 11.8144 3.5528 12.4149C3.01302 11.8144 2.59476 11.1345 2.29792 10.3757ZM4.26131 13.1031C5.50282 14.1151 6.91297 14.6212 8.49184 14.6212C9.38256 14.6211 10.2461 14.4458 11.0827 14.0947C10.7994 12.4687 10.3269 10.7885 9.6659 9.05453H9.64552L9.62538 9.0647C9.51744 9.10526 9.37235 9.16105 9.19014 9.23188C9.0078 9.30249 8.66724 9.46797 8.16799 9.72755C7.66862 9.98764 7.20648 10.2642 6.78142 10.5575C6.35635 10.8511 5.91445 11.2376 5.4556 11.7165C4.99669 12.1955 4.64926 12.6948 4.41313 13.2145L4.26131 13.1031ZM14.0787 11.5697C13.5794 12.3424 12.9552 12.9818 12.2065 13.4877C11.9296 11.9359 11.498 10.3535 10.9109 8.74102C12.2535 8.53163 13.6333 8.62964 15.0502 9.03432C14.9017 9.95194 14.5778 10.7972 14.0787 11.5697ZM14.7768 7.84538C14.8779 7.86214 14.9624 7.87746 15.0298 7.89086L15.1311 7.91106C15.1111 6.34559 14.6082 4.96249 13.6232 3.76149L13.613 3.7717C13.5524 3.85256 13.4883 3.93515 13.4208 4.01966C13.353 4.10403 13.2065 4.25409 12.9804 4.46997C12.7544 4.68581 12.5149 4.88993 12.2618 5.08241C12.0087 5.27468 11.6715 5.49383 11.25 5.74016C10.828 5.98649 10.3843 6.204 9.91872 6.39305C10.0876 6.75055 10.2361 7.07108 10.3644 7.35445C10.3775 7.39493 10.3996 7.45406 10.4299 7.53159C10.4603 7.60922 10.4855 7.66491 10.5059 7.69869C10.7487 7.66502 11 7.64112 11.2597 7.62783C11.5193 7.61443 11.7675 7.60759 12.0034 7.60759C12.2396 7.60759 12.4723 7.61269 12.702 7.62276C12.9312 7.63297 13.1472 7.64633 13.3495 7.66328C13.5521 7.68015 13.7427 7.69866 13.9215 7.7189C14.1002 7.73917 14.2624 7.76105 14.4072 7.78465C14.5523 7.80826 14.6756 7.82861 14.7768 7.84538Z" fill="white"/>
</svg>
