<svg width="164" height="40" viewBox="0 0 164 40" fill="none" xmlns="http://www.w3.org/2000/svg">
<path d="M122.749 8.27513C120.519 8.27513 119.405 9.48854 119.405 11.9153V13.2698H125.627V17.5026H119.532V35.7037H114.241V11.8307C114.241 9.4321 114.946 7.52733 116.357 6.1164C117.768 4.70547 119.772 4 122.368 4C124.371 4 125.951 4.40917 127.108 5.22751L125.627 9.20635C124.78 8.58554 123.821 8.27513 122.749 8.27513Z" fill="white"/>
<path d="M141.861 34.4762C141.241 34.9841 140.479 35.3651 139.576 35.619C138.701 35.873 137.77 36 136.782 36C134.299 36 132.38 35.351 131.025 34.0529C129.671 32.7548 128.994 30.8642 128.994 28.381V8.10582H134.285V13.2698H140.338V17.5026H134.285V28.254C134.285 29.3545 134.553 30.2011 135.089 30.7936C135.653 31.358 136.429 31.6402 137.417 31.6402C138.602 31.6402 139.59 31.3298 140.38 30.709L141.861 34.4762Z" fill="white"/>
<path d="M153.219 36C151.385 36 149.593 35.7601 147.843 35.2804C146.094 34.8007 144.697 34.194 143.653 33.4603L145.684 29.4392C146.7 30.1164 147.914 30.6667 149.325 31.0899C150.764 31.485 152.175 31.6825 153.558 31.6825C156.718 31.6825 158.298 30.8501 158.298 29.1852C158.298 28.3951 157.889 27.8448 157.071 27.5344C156.281 27.224 154.997 26.9277 153.219 26.6455C151.356 26.3633 149.833 26.0388 148.647 25.672C147.49 25.3051 146.475 24.6702 145.6 23.7672C144.753 22.836 144.33 21.552 144.33 19.9153C144.33 17.7707 145.219 16.0635 146.997 14.7936C148.803 13.4956 151.229 12.8466 154.277 12.8466C155.829 12.8466 157.381 13.03 158.933 13.3968C160.485 13.7354 161.755 14.2011 162.743 14.7936L160.711 18.8148C158.792 17.6861 156.633 17.1217 154.235 17.1217C152.683 17.1217 151.498 17.3616 150.679 17.8413C149.889 18.2928 149.494 18.8995 149.494 19.6614C149.494 20.5079 149.917 21.1146 150.764 21.4815C151.639 21.8201 152.979 22.1446 154.785 22.455C156.591 22.7372 158.073 23.0617 159.229 23.4286C160.386 23.7954 161.374 24.4162 162.192 25.291C163.039 26.1658 163.462 27.4074 163.462 29.0159C163.462 31.1323 162.545 32.8254 160.711 34.0952C158.877 35.3651 156.379 36 153.219 36Z" fill="white"/>
<path d="M0 6.07401H12.9524C16.1129 6.07401 18.9206 6.69482 21.3757 7.93644C23.8307 9.14984 25.7354 10.8853 27.0899 13.1428C28.4444 15.3721 29.1217 17.9541 29.1217 20.8888C29.1217 23.8236 28.4444 26.4197 27.0899 28.6772C25.7354 30.9065 23.8307 32.6419 21.3757 33.8835C18.9206 35.0969 16.1129 35.7036 12.9524 35.7036H0V6.07401ZM12.6984 31.0476C14.8713 31.0476 16.776 30.6384 18.4127 29.82C20.0776 28.9735 21.3474 27.7883 22.2222 26.2645C23.1252 24.7125 23.5767 22.9206 23.5767 20.8888C23.5767 18.8571 23.1252 17.0793 22.2222 15.5555C21.3474 14.0035 20.0776 12.8183 18.4127 11.9999C16.776 11.1534 14.8713 10.7301 12.6984 10.7301H5.50264V31.0476H12.6984Z" fill="url(#paint0_linear)"/>
<path d="M56.5575 13.1005V35.7036H51.5205V32.783C50.6457 33.8553 49.5593 34.6595 48.2612 35.1957C46.9914 35.7319 45.5805 35.9999 44.0284 35.9999C41.8274 35.9999 39.8521 35.5202 38.1025 34.5608C36.3812 33.6013 35.0267 32.2468 34.039 30.4973C33.0796 28.7477 32.5999 26.716 32.5999 24.402C32.5999 22.0881 33.0796 20.0705 34.039 18.3491C35.0267 16.5996 36.3812 15.2451 38.1025 14.2856C39.8521 13.3262 41.8274 12.8465 44.0284 12.8465C45.4958 12.8465 46.8362 13.1005 48.0496 13.6084C49.2912 14.1163 50.3635 14.8641 51.2665 15.8518V13.1005H56.5575ZM44.621 31.4708C46.5681 31.4708 48.1766 30.8218 49.4464 29.5237C50.7163 28.2257 51.3512 26.5185 51.3512 24.402C51.3512 22.2856 50.7163 20.5784 49.4464 19.2804C48.1766 17.9823 46.5681 17.3333 44.621 17.3333C42.6739 17.3333 41.0655 17.9823 39.7956 19.2804C38.554 20.5784 37.9332 22.2856 37.9332 24.402C37.9332 26.5185 38.554 28.2257 39.7956 29.5237C41.0655 30.8218 42.6739 31.4708 44.621 31.4708Z" fill="url(#paint1_linear)"/>
<path d="M70.4643 35.9999C68.6301 35.9999 66.8382 35.7601 65.0886 35.2804C63.3391 34.8006 61.9422 34.1939 60.8981 33.4602L62.9299 29.4391C63.9458 30.1163 65.1592 30.6666 66.5701 31.0899C68.0093 31.4849 69.4202 31.6825 70.8029 31.6825C73.9634 31.6825 75.5436 30.85 75.5436 29.1851C75.5436 28.395 75.1345 27.8447 74.3161 27.5343C73.526 27.2239 72.2421 26.9276 70.4643 26.6454C68.6019 26.3632 67.078 26.0387 65.8929 25.6719C64.7359 25.305 63.72 24.6701 62.8452 23.7671C61.9987 22.8359 61.5754 21.552 61.5754 19.9153C61.5754 17.7707 62.4643 16.0634 64.2421 14.7936C66.0481 13.4955 68.4749 12.8465 71.5225 12.8465C73.0745 12.8465 74.6265 13.0299 76.1786 13.3968C77.7306 13.7354 79.0004 14.201 79.9881 14.7936L77.9563 18.8147C76.0375 17.686 73.8787 17.1216 71.4802 17.1216C69.9281 17.1216 68.7429 17.3615 67.9246 17.8412C67.1345 18.2927 66.7394 18.8994 66.7394 19.6613C66.7394 20.5079 67.1627 21.1146 68.0093 21.4814C68.884 21.82 70.2244 22.1446 72.0304 22.455C73.8364 22.7371 75.3179 23.0617 76.4749 23.4285C77.6318 23.7953 78.6195 24.4162 79.4378 25.2909C80.2844 26.1657 80.7077 27.4073 80.7077 29.0158C80.7077 31.1322 79.7906 32.8253 77.9563 34.0952C76.1221 35.365 73.6248 35.9999 70.4643 35.9999Z" fill="url(#paint2_linear)"/>
<path d="M98.0896 12.8465C100.94 12.8465 103.225 13.6789 104.947 15.3438C106.668 17.0087 107.529 19.4779 107.529 22.7513V35.7036H102.238V23.4285C102.238 21.4532 101.772 19.9717 100.841 18.9841C99.9097 17.9682 98.5834 17.4602 96.8621 17.4602C94.915 17.4602 93.3771 18.0528 92.2483 19.238C91.1196 20.395 90.5552 22.074 90.5552 24.2751V35.7036H85.2642V13.1005H90.3013V16.0211C91.176 14.977 92.2766 14.1869 93.6028 13.6507C94.9291 13.1146 96.4247 12.8465 98.0896 12.8465Z" fill="url(#paint3_linear)"/>
<defs>
<linearGradient id="paint0_linear" x1="2.9326" y1="35.9999" x2="67.2472" y2="-32.0157" gradientUnits="userSpaceOnUse">
<stop stop-color="#85FFC4"/>
<stop offset="0.411458" stop-color="#5CC6FF"/>
<stop offset="0.854167" stop-color="#BC85FF"/>
</linearGradient>
<linearGradient id="paint1_linear" x1="2.9326" y1="35.9999" x2="67.2472" y2="-32.0157" gradientUnits="userSpaceOnUse">
<stop stop-color="#85FFC4"/>
<stop offset="0.411458" stop-color="#5CC6FF"/>
<stop offset="0.854167" stop-color="#BC85FF"/>
</linearGradient>
<linearGradient id="paint2_linear" x1="2.9326" y1="35.9999" x2="67.2472" y2="-32.0157" gradientUnits="userSpaceOnUse">
<stop stop-color="#85FFC4"/>
<stop offset="0.411458" stop-color="#5CC6FF"/>
<stop offset="0.854167" stop-color="#BC85FF"/>
</linearGradient>
<linearGradient id="paint3_linear" x1="2.9326" y1="35.9999" x2="67.2472" y2="-32.0157" gradientUnits="userSpaceOnUse">
<stop stop-color="#85FFC4"/>
<stop offset="0.411458" stop-color="#5CC6FF"/>
<stop offset="0.854167" stop-color="#BC85FF"/>
</linearGradient>
</defs>
</svg>
