<svg version="1.1" id="Слой_3" xmlns="http://www.w3.org/2000/svg" x="0" y="0" viewBox="0 0 480 480" xml:space="preserve"><style>.st1{fill:#799cde}</style><path d="M23 279c-12.7 0-23-10.3-23-23v-16c0-12.7 10.3-23 22.9-23l1.4-1.3c1.6-43.3 16-84.5 41.6-119.2 25.5-34.8 60.6-60.8 101.4-75.1l1.1-1.4c1.9-11 11.3-19 22.5-19h96c11.3 0 20.8 8.1 22.6 19.2l1 1.2c41 14.4 76.1 40.4 101.6 75 25.6 34.8 40 76 41.6 119.2l1.4 1.3c12.6 0 22.9 10.3 22.9 23v16c0 12.7-10.3 23-23 23H25l-2 .1zm0-48c-5 0-9 4-9 9v16c0 5 4 9 9 9h432c5 0 9-4 9-9v-16c0-5-4-9-9-9H23zm415.3-14l1.4-1.5c-3.1-79.8-53.3-149.9-127.9-178.8L310 38v138c0 3.9-3.1 7-7 7s-7-3.1-7-7V24c0-5-4-9-9-9h-39.6l-1.4 1.4V192c0 3.9-3.1 7-7 7s-7-3.1-7-7V16.4l-1.4-1.4H191c-5 0-9 4-9 9v152c0 3.9-3.1 7-7 7s-7-3.1-7-7V38l-1.8-1.2A199.91 199.91 0 0038.3 215.5l1.4 1.5h398.6z" fill="#ffe400"/><path class="st1" d="M79 415c-3.9 0-7-3.1-7-7v-32c0-12.7 10.3-23 23-23h104c3.9 0 7 3.1 7 7s-3.1 7-7 7H95c-5 0-9 4-9 9v32c0 3.9-3.1 7-7 7z"/><path class="st1" d="M333 479c-35.2-.8-68.3-20.1-86.4-50.3-.8-1.2-1.8-2.2-2.9-2.9-1.4-.9-2.9-1.3-4.7-1.3-3 0-5.8 1.5-7.6 4.2-18.6 30.9-52.5 50.1-88.5 50.2H95c-24.3-.1-45.4-15.7-52.6-39l-1.4-1H7c-3.9 0-7-3.1-7-7v-64c0-3.9 3.1-7 7-7h31.6l1.4-1.4c.2-21.3 17.6-38.6 39-38.6h320c18.3 0 34.3 13 38.1 30.9l1.4 1.1H471c3.9 0 7 3.1 7 7v64c0 3.9-3.1 7-7 7h-32.1l-1.3 1.2c-4.1 26.7-27.4 46.8-54.3 46.8l-50.3.1zm-94-68.4c8 0 15.4 4.1 19.6 10.9 16 26.7 45.2 43.4 76.4 43.5h48c22.6 0 41-18.4 41-41v-64c0-13.8-11.2-25-25-25H79c-13.8 0-25 11.2-25 25v64c0 22.6 18.4 41 41 41h48c31.2-.1 60.4-16.7 76.4-43.4 1.9-3.2 4.6-5.9 7.7-7.7 3.6-2.2 7.6-3.3 11.9-3.3zM38.7 425.1l1.4-1.4v-23.2l-1.4-1.4H15.4l-1.4 1.4v23.2l1.4 1.4h23.3zm424-8l1.4-1.4v-23.2l-1.4-1.4h-23.2l-1.4 1.4v23.2l1.4 1.4h23.2zm-424-32l1.4-1.4v-7.2l-1.4-1.4H15.4l-1.4 1.4v7.2l1.4 1.4h23.3zm424-8l1.4-1.4v-7.2l-1.4-1.4h-23.2l-1.4 1.4v7.2l1.4 1.4h23.2z"/><path class="st1" d="M231 367c-3.9 0-7-3.1-7-7s3.1-7 7-7h16c3.9 0 7 3.1 7 7s-3.1 7-7 7h-16z"/></svg>