<svg version="1.1" id="Слой_2_1_" xmlns="http://www.w3.org/2000/svg" x="0" y="0" viewBox="0 0 512 512" xml:space="preserve"><style>.st0{fill:#ffe400}</style><path class="st0" d="M369.1 456.4c-2.6 0-5.1-1.7-6-4-1-2.5-.4-5.2 1.4-7.1l82.1-82.1c1.2-1.2 2.9-1.9 4.6-1.9 1 0 1.7.1 2.5.5 2.4.9 4 3.3 4 6v82.1c0 3.5-3 6.5-6.5 6.5h-82.1zm74.2-12.9l1.5-1.5v-55.4l-2.2-.9-55.6 55.6.9 2.2h55.4z"/><path class="st0" d="M507 241.3c-.8-.4-1.5-.5-2.5-.5-1.7 0-3.4.7-4.6 1.9l-22 22-.3-.1-14.7 14.6v.2l-.4 1-107.3 107.4c-2.3 2.4-2.5 6.2-.5 8.7v.1l.8.8.1.1c1.2.9 2.5 1.4 4.1 1.4 1.3 0 2.7-.4 3.7-1.1h.2L496 265.7l2.2.9v65.2l-1.4 1.4h-13.5c-3.5 0-6.5 3-6.5 6.5s3 6.5 6.5 6.5h13.5l1.4 1.4v21.8l-1.4 1.4h-13.5c-3.5 0-6.5 3-6.5 6.5s3 6.5 6.5 6.5h13.5l1.4 1.4V407l-1.4 1.4h-13.5c-3.5 0-6.5 3-6.5 6.5s3 6.5 6.5 6.5h13.5l1.4 1.4v22l-1.4 1.4h-13.5c-3.5 0-6.5 3-6.5 6.5s3 6.5 6.5 6.5h13.5l1.4 1.4v34.9l-1.4 1.4v.4H267.4l-.9-2.2 75.4-75.4c1.2-1.2 1.9-2.9 1.9-4.6s-.7-3.4-1.9-4.6c-.2-.3-.4-.5-.6-.6l-.1-.1-.4-.3h-.1c-1.3-.9-2.5-1-3.4-1-1.5 0-2.9.5-3.5.8l-.3.1-30.7 30.7-.8.3-15.2 15.4v.1l-4.6 4.6-38.1 38.1c-1.8 1.9-2.4 4.6-1.4 7.1.9 2.3 3.4 4 6 4h255.8c3.5 0 6.5-3 6.5-6.5V247.3c0-2.7-1.6-5.1-4-6zm-221.9-121l-41 41c-2.5 2.6-2.5 6.7 0 9.2 1.2 1.2 2.9 1.9 4.6 1.9s3.4-.7 4.6-1.9L356.6 67.2h2l33.9 34.1v2.2l-155 155h-2l-33.9-33.9v-2l29.6-29.6c2.5-2.6 2.5-6.7 0-9.2-1.2-1.2-2.9-1.9-4.6-1.9-1.7 0-3.4.7-4.6 1.9l-36.3 36.3v.2l-.2.2h-.1l-25 70.9v.3l-1.4 1.1h-24.6c-3.5 0-6.5 3-6.5 6.5s3 6.5 6.5 6.5h208.4c3.5 0 6.5-3 6.5-6.5s-3-6.5-6.5-6.5H194.3l-.4-2.2 44.5-15.8h.6l.1-.1h.1l.4-.4c.2-.1.4-.2.5-.3l154.4-154.2 16.8-17L452 62.1c4.1-4.2 6.4-9.8 6.4-15.5 0-5.8-2.3-11.3-6.4-15.5L428.6 7.7c-4.2-4.1-9.7-6.4-15.5-6.4s-11.3 2.3-15.5 6.4l-96.8 96.8-1 .4-14.7 15.4zm-62.6 146.2l-20.7 7.3-1.3-.4-13.9-13.9-.4-1.5 7.3-20.7 2.1-.5 27.4 27.5-.5 2.2zM392.2 31.6L406.8 17c1.7-1.7 3.9-2.6 6.3-2.6s4.6.9 6.3 2.6l23.3 23.3c1.7 1.7 2.6 3.9 2.6 6.3s-.9 4.6-2.6 6.3l-14.6 14.6h-2l-33.9-33.9v-2zM367.8 56L381 42.8h2l33.9 33.9v2l-13.2 13.2h-2L367.8 58v-2z"/><path d="M475.7 111.5c0-3.5-3-6.5-6.5-6.5h-57l-15.4 13.1h64.7l1.4 1.4v159.9l-.4 1 15.4-15.7-2.2-.9V111.5zm-173.9 329H57.3c-23.3 0-42.1-18.3-42.9-41.6 0-1.5.1-3.1.3-4.4l.3-2.2v-.9l.1-.2v-.4c.1-.3.1-.5.1-.7l.1-.6v-.2c.3-.4.4-.9.4-1.4l.1-.3.1-.4v-.3c0-.2.1-.4.2-.7v-.3l.2-.4v-.2c0-.1.1-.2.1-.3l.1-.3v-.1c0-.1.1-.2.1-.4l.5-1.2.2-.3.2-.5c0-.2.1-.4.2-.6s.1-.3.2-.4l.1-.1.1-.4c6.2-12.3 17.8-21.4 31.3-24.4h.4l.2-.1c.5-.1 1-.2 1.6-.3h.3l.3-.1c.1 0 .2-.1.3-.1h.4c.2 0 .3 0 .5-.1h.6c.2-.1.3-.1.3-.1h1.2l.2-.1h1.2c.8-.1 1.4-.1 2.2-.1 3.5 0 6.5-3 6.5-6.5v-54.5c0-3.5-3-6.5-6.5-6.5s-6.5 3-6.5 6.5v47l-1.2 1.4c-12.5 1.6-23.9 7.2-32.9 16l-.2.2-.2.2c-.1.2-.3.3-.4.5l-.6.6c-.1.1-.3.2-.4.4-.1.1-.1.2-.2.3l-.2.2-2.2-.8V81.2c0-21.7 15.5-40.3 37-44.3l1.6 1.4v226.1c0 3.5 3 6.5 6.5 6.5s6.5-3 6.5-6.5V119.5l1.4-1.4h217.1c.5-.1 1-.1 1.4 0h.2c.5 0 1-.1 1.4-.1l13-13c-.1-.1-.2-.1-.2-.2l-.3.1H67.1l-1.4-1.4V29.6c0-3.5-3-6.5-6.5-6.5-32 0-58.1 26.1-58.1 58.1v319.3c0 .4 0 .9.2 1.4v.1c1.1 13.7 7 26.4 16.7 35.8 10.4 10.3 24.3 15.9 39 15.9h228.9l15.9-13.2z" fill="#799cde"/></svg>