<svg version="1.1" id="Слой_3" xmlns="http://www.w3.org/2000/svg" x="0" y="0" viewBox="0 0 512 512" xml:space="preserve"><style>.st0{fill:#799cde}.st1{fill:#ffe400}</style><path class="st0" d="M348.1 405.7c-19.4 12.1-40.4 20.1-62.2 23.8-3.3.6-5.8 3.6-5.8 6.9v42.5l-1.4 1.4v.1h-47.4l-1.4-1.4v-42.5c0-3.4-2.5-6.3-5.8-6.9-25.2-4.4-49.6-14.5-70.7-29.3l-.1-.1-.1-.1c-1.4-.7-2.6-1-3.7-1-1.9 0-3.7.8-5.2 2.3l-29.9 29.9h-2L79.1 398v-2l30.1-30.1c2.4-2.5 2.7-6.2.8-8.9-14.8-21.1-24.9-45.5-29.2-70.5-.4-3.4-3.4-6-6.9-6H31.4l-1.4-1.4v-47.2l1.4-1.4h42.8c3.4 0 6.3-2.5 6.9-5.8 4.3-25.2 14.4-49.6 29.2-70.6 2.1-2.9 1.8-6.6-.7-9.1l-30-30v-2l33.1-33.4h1.9l30.3 29.9c1.2 1.3 2.9 2.1 4.9 2.1 1.5 0 2.9-.5 4-1.3 21.1-14.8 45.5-24.9 70.5-29.2 3.4-.4 6-3.4 6-6.9V31.7l1.4-1.4h47.2l1.4 1.4v42.5c0 3.4 2.5 6.3 5.8 6.9 25.2 4.4 49.6 14.5 70.7 29.3l.1.1.1.1c1.4.7 2.6 1 3.7 1 1.8 0 3.5-.7 4.9-2.1l29.9-29.9h2l33.3 33.3v2L400.7 145c-2.4 2.5-2.7 6.2-.8 8.9 14.8 21.2 24.8 45.6 29.2 70.6.6 3.3 3.6 5.8 6.9 5.8h42.6l1.4 1.4v47.2l-1.4 1.4h-42.5c-3.4 0-6.2 2.3-6.9 5.6v.6c-3.9 22-11.8 42.9-23.6 61.9l-2 .3 12 12.2-.2-1.8c12.8-19.8 21.7-41.1 26.4-63.5l1.3-1.1H487c3.9 0 7-3.1 7-7v-64c0-3.9-3.1-7-7-7h-44.5l-1.4-1.1c-4.7-22.8-13.6-44.2-26.2-63.6l.2-1.8 31.2-31.2c2.7-2.8 2.7-7.2 0-9.9l-45.2-45.2c-1.2-1.4-2.9-2.2-4.9-2.2-1.8 0-3.5.7-4.9 2.1l-31.1 31.1-1.8.2c-19.6-12.7-41-21.6-63.5-26.3l-1.1-1.3V23.4c0-3.9-3.1-7-7-7h-64c-3.9 0-7 3.1-7 7v44.1l-1.1 1.4c-22.7 4.7-44 13.5-63.4 26.1l-2-.3-31.1-30.9c-1.2-1.4-2.9-2.2-4.9-2.2-1.8 0-3.5.7-4.9 2.1l-45.2 45.2c-2.7 2.8-2.7 7.2 0 9.9l31.1 31.1.2 1.8c-12.5 19.1-21.3 40.4-26.3 63.5l-1.3 1.1H23c-3.9 0-7 3.1-7 7v64c0 3.9 3.1 7 7 7h44.3l1.4 1.1c4.7 22.8 13.6 44.2 26.2 63.6l-.2 1.8L63.5 392c-2.7 2.8-2.7 7.2 0 9.9l45.2 45.2c1.2 1.4 2.9 2.2 4.9 2.2 1.8 0 3.5-.7 4.9-2.1l31.1-31.1 1.8-.2c19.1 12.5 40.4 21.3 63.5 26.3l1.1 1.3v43.9c0 3.9 3.1 7 6.8 7h1.7c.2 0 .4 0 .6.1h2.9v-.1h59c3.9 0 7-3.1 7-7v-43.9l1.1-1.4c22.7-4.8 44-13.7 63.5-26.3l1.8.2-12-12.3-.3 2z"/><path class="st1" d="M415.6 360.9l-12-12.2-22.7-22.7-13.2-12.6-40.8-40.7c-5.4-5.6-8-13.4-7-21 2.5-21-3.3-41.6-16.3-58.2-13.2-16.6-31.9-27.2-52.7-29.6-3.1-.4-6.3-.6-9.4-.6-11.9 0-23.7 2.7-34 7.7-1.8.8-3 2.1-3.6 4-.6 1.8-.4 3.8.4 5.3.4.8.9 1.4 1.4 1.9l41.6 41.6.4 1v22.3l-1.4 1.4H224l-1-.4-41.4-41.4c-1.2-1.4-2.9-2.2-4.9-2.2-1.8 0-3.5.7-4.9 2.1l-.2.2c-.3.3-.8.8-1.2 1.8-18.7 39.2-2 86.4 37.2 105.2 10.5 5 22.3 7.7 34 7.7 3.1 0 6.3-.2 9.4-.6.9-.1 2.1-.2 3.3-.2 6.7 0 13 2.6 17.7 7.3l40.8 40.7 12.8 12.2 22.8 22.8 12 12.3 65.2 65.1c7.3 7.3 17 11.3 27.4 11.3 10.5 0 20.4-4.1 27.7-11.5 15-15.2 15-39.8 0-54.9l-65.1-65.1zM470.7 471c-4.7 4.7-11 7.3-17.7 7.3s-13-2.6-17.7-7.3L282.2 317.9c-7.2-7.3-16.8-11.4-27.3-11.4l-1.7-.1-3.5.3c-3.1.3-5.7.5-7.8.5-32.8 0-60.5-24.6-64.4-57.2-.9-8-.3-16.1 1.7-24l2.1-.6 34.9 34.9c1.2 1.4 2.9 2.2 4.9 2.2H255c3.9 0 7-3.1 7-7v-34c0-1.8-.7-3.5-2.1-4.9L225 181.7l.6-2.2c5.4-1.5 10.8-2.2 16.3-2.2 29.3 0 55.1 19.8 62.7 48.2 2.2 7.8 2.8 16.1 1.8 24.5-1.5 12 2.6 23.9 11.1 32.5l153.2 153.1c9.7 9.8 9.7 25.7 0 35.4z"/><path class="st0" d="M324.3 129.9c-21.1-11.7-44.9-17.9-69.1-17.9-52.2 0-100.2 28.3-125.5 74-18.5 33.5-22.8 72.2-12.2 108.9 10.6 36.8 34.9 67.2 68.4 85.6 21.1 11.7 45 17.9 69.2 17.9 23.8 0 47.6-6.1 68.8-17.7l1.7.2-12.8-12.2-.3 2.2c-18.2 9-37.6 13.6-57.7 13.6-49.1 0-93.2-27.2-115.3-70.9-32-63.7-6.4-141.5 57.1-173.5 18.3-9.2 37.9-13.9 58.2-13.9 49.3 0 93.4 27.2 114.9 70.9 18.3 36.3 18.4 79.6.2 116l-2.2.3 13.2 12.6-.2-1.9c37.7-69.1 12.5-156.2-56.4-194.2z"/><path class="st1" d="M305.8 313.2c-1.9 0-3.5-.7-4.9-2.1l-5.8-5.8-.1-.1c-1.2-1.5-1.9-3.1-1.9-4.9 0-1.9.7-3.5 2.1-4.9 1.3-1.3 3-2 4.9-2 1.7 0 3.4.7 4.9 1.9l.1.1 5.8 5.8c2.6 2.7 2.6 7 0 9.7-1.5 1.6-3.2 2.3-5.1 2.3zM424.6 432c-1.9 0-3.5-.7-4.9-2.1l-96-96c-1.4-1.4-2.1-3.1-2.1-4.9 0-2 .8-3.7 2.2-4.9 1.4-1.3 3.1-2.1 4.8-2.1 2 0 3.7.8 4.9 2.2l96.2 96.2c2.5 2.7 2.6 6.9.1 9.7l-.4.4-.5.2c-1.7.9-3 1.3-4.3 1.3zm28.3 28.3c-1.9 0-3.5-.7-4.9-2.1l-5.5-5.5c-1.4-1.4-2.1-3.1-2.1-4.9 0-2 .8-3.7 2.2-4.9 1.4-1.3 3.1-2.1 4.8-2.1 2 0 3.7.8 4.9 2.2l5.7 5.7c2.5 2.7 2.6 6.9.1 9.7l-.4.4-.5.2c-1.7.9-3 1.3-4.3 1.3z"/></svg>